<?xml version="1.0" encoding="utf-8" standalone="no"?>
<!DOCTYPE svg PUBLIC "-//W3C//DTD SVG 1.1//EN"
  "http://www.w3.org/Graphics/SVG/1.1/DTD/svg11.dtd">
<svg xmlns:xlink="http://www.w3.org/1999/xlink" width="1188pt" height="252pt" viewBox="0 0 1188 252" xmlns="http://www.w3.org/2000/svg" version="1.1">
 <metadata>
  <rdf:RDF xmlns:dc="http://purl.org/dc/elements/1.1/" xmlns:cc="http://creativecommons.org/ns#" xmlns:rdf="http://www.w3.org/1999/02/22-rdf-syntax-ns#">
   <cc:Work>
    <dc:type rdf:resource="http://purl.org/dc/dcmitype/StillImage"/>
    <dc:date>2024-05-14T18:59:30.747287</dc:date>
    <dc:format>image/svg+xml</dc:format>
    <dc:creator>
     <cc:Agent>
      <dc:title>Matplotlib v3.8.0, https://matplotlib.org/</dc:title>
     </cc:Agent>
    </dc:creator>
   </cc:Work>
  </rdf:RDF>
 </metadata>
 <defs>
  <style type="text/css">*{stroke-linejoin: round; stroke-linecap: butt}</style>
 </defs>
 <g id="figure_1">
  <g id="patch_1">
   <path d="M 0 252 
L 1188 252 
L 1188 0 
L 0 0 
z
" style="fill: #ffffff"/>
  </g>
  <g id="axes_1">
   <g id="patch_2">
    <path d="M 3.00024 198.907885 
L 1184.99976 198.907885 
L 1184.99976 3.00024 
L 3.00024 3.00024 
z
" style="fill: #ffffff"/>
   </g>
   <g id="matplotlib.axis_1">
    <g id="xtick_1">
     <g id="line2d_1">
      <defs>
       <path id="m22eb886fe0" d="M 0 0 
L 0 8 
" style="stroke: #000000; stroke-width: 2"/>
      </defs>
      <g>
       <use xlink:href="#m22eb886fe0" x="1131.272509" y="198.907885" style="stroke: #000000; stroke-width: 2"/>
      </g>
     </g>
     <g id="text_1">
      <!-- 0 -->
      <g transform="translate(1126.267665 224.791947) scale(0.18 -0.18)">
       <defs>
        <path id="Arial-BoldMT-30" d="M 1756 4600 
Q 2422 4600 2797 4125 
Q 3244 3563 3244 2259 
Q 3244 959 2794 391 
Q 2422 -78 1756 -78 
Q 1088 -78 678 436 
Q 269 950 269 2269 
Q 269 3563 719 4131 
Q 1091 4600 1756 4600 
z
M 1756 3872 
Q 1597 3872 1472 3770 
Q 1347 3669 1278 3406 
Q 1188 3066 1188 2259 
Q 1188 1453 1269 1151 
Q 1350 850 1473 750 
Q 1597 650 1756 650 
Q 1916 650 2041 751 
Q 2166 853 2234 1116 
Q 2325 1453 2325 2259 
Q 2325 3066 2244 3367 
Q 2163 3669 2039 3770 
Q 1916 3872 1756 3872 
z
" transform="scale(0.015625)"/>
       </defs>
       <use xlink:href="#Arial-BoldMT-30"/>
      </g>
     </g>
    </g>
    <g id="xtick_2">
     <g id="line2d_2">
      <g>
       <use xlink:href="#m22eb886fe0" x="1023.818007" y="198.907885" style="stroke: #000000; stroke-width: 2"/>
      </g>
     </g>
     <g id="text_2">
      <!-- 1 -->
      <g transform="translate(1018.813164 224.791947) scale(0.18 -0.18)">
       <defs>
        <path id="Arial-BoldMT-31" d="M 2519 0 
L 1641 0 
L 1641 3309 
Q 1159 2859 506 2644 
L 506 3441 
Q 850 3553 1253 3867 
Q 1656 4181 1806 4600 
L 2519 4600 
L 2519 0 
z
" transform="scale(0.015625)"/>
       </defs>
       <use xlink:href="#Arial-BoldMT-31"/>
      </g>
     </g>
    </g>
    <g id="xtick_3">
     <g id="line2d_3">
      <g>
       <use xlink:href="#m22eb886fe0" x="916.363505" y="198.907885" style="stroke: #000000; stroke-width: 2"/>
      </g>
     </g>
     <g id="text_3">
      <!-- 2 -->
      <g transform="translate(911.358662 224.791947) scale(0.18 -0.18)">
       <defs>
        <path id="Arial-BoldMT-32" d="M 3238 816 
L 3238 0 
L 159 0 
Q 209 463 459 877 
Q 709 1291 1447 1975 
Q 2041 2528 2175 2725 
Q 2356 2997 2356 3263 
Q 2356 3556 2198 3714 
Q 2041 3872 1763 3872 
Q 1488 3872 1325 3706 
Q 1163 3541 1138 3156 
L 263 3244 
Q 341 3969 753 4284 
Q 1166 4600 1784 4600 
Q 2463 4600 2850 4234 
Q 3238 3869 3238 3325 
Q 3238 3016 3127 2736 
Q 3016 2456 2775 2150 
Q 2616 1947 2200 1565 
Q 1784 1184 1673 1059 
Q 1563 934 1494 816 
L 3238 816 
z
" transform="scale(0.015625)"/>
       </defs>
       <use xlink:href="#Arial-BoldMT-32"/>
      </g>
     </g>
    </g>
    <g id="xtick_4">
     <g id="line2d_4">
      <g>
       <use xlink:href="#m22eb886fe0" x="808.909004" y="198.907885" style="stroke: #000000; stroke-width: 2"/>
      </g>
     </g>
     <g id="text_4">
      <!-- 3 -->
      <g transform="translate(803.90416 224.791947) scale(0.18 -0.18)">
       <defs>
        <path id="Arial-BoldMT-33" d="M 241 1216 
L 1091 1319 
Q 1131 994 1309 822 
Q 1488 650 1741 650 
Q 2013 650 2198 856 
Q 2384 1063 2384 1413 
Q 2384 1744 2206 1937 
Q 2028 2131 1772 2131 
Q 1603 2131 1369 2066 
L 1466 2781 
Q 1822 2772 2009 2936 
Q 2197 3100 2197 3372 
Q 2197 3603 2059 3740 
Q 1922 3878 1694 3878 
Q 1469 3878 1309 3722 
Q 1150 3566 1116 3266 
L 306 3403 
Q 391 3819 561 4067 
Q 731 4316 1036 4458 
Q 1341 4600 1719 4600 
Q 2366 4600 2756 4188 
Q 3078 3850 3078 3425 
Q 3078 2822 2419 2463 
Q 2813 2378 3048 2084 
Q 3284 1791 3284 1375 
Q 3284 772 2843 347 
Q 2403 -78 1747 -78 
Q 1125 -78 715 280 
Q 306 638 241 1216 
z
" transform="scale(0.015625)"/>
       </defs>
       <use xlink:href="#Arial-BoldMT-33"/>
      </g>
     </g>
    </g>
    <g id="xtick_5">
     <g id="line2d_5">
      <g>
       <use xlink:href="#m22eb886fe0" x="701.454502" y="198.907885" style="stroke: #000000; stroke-width: 2"/>
      </g>
     </g>
     <g id="text_5">
      <!-- 4 -->
      <g transform="translate(696.449658 224.791947) scale(0.18 -0.18)">
       <defs>
        <path id="Arial-BoldMT-34" d="M 1994 0 
L 1994 922 
L 119 922 
L 119 1691 
L 2106 4600 
L 2844 4600 
L 2844 1694 
L 3413 1694 
L 3413 922 
L 2844 922 
L 2844 0 
L 1994 0 
z
M 1994 1694 
L 1994 3259 
L 941 1694 
L 1994 1694 
z
" transform="scale(0.015625)"/>
       </defs>
       <use xlink:href="#Arial-BoldMT-34"/>
      </g>
     </g>
    </g>
    <g id="xtick_6">
     <g id="line2d_6">
      <g>
       <use xlink:href="#m22eb886fe0" x="594" y="198.907885" style="stroke: #000000; stroke-width: 2"/>
      </g>
     </g>
     <g id="text_6">
      <!-- 5 -->
      <g transform="translate(588.995156 224.791947) scale(0.18 -0.18)">
       <defs>
        <path id="Arial-BoldMT-35" d="M 284 1178 
L 1159 1269 
Q 1197 972 1381 798 
Q 1566 625 1806 625 
Q 2081 625 2272 848 
Q 2463 1072 2463 1522 
Q 2463 1944 2273 2155 
Q 2084 2366 1781 2366 
Q 1403 2366 1103 2031 
L 391 2134 
L 841 4519 
L 3163 4519 
L 3163 3697 
L 1506 3697 
L 1369 2919 
Q 1663 3066 1969 3066 
Q 2553 3066 2959 2641 
Q 3366 2216 3366 1538 
Q 3366 972 3038 528 
Q 2591 -78 1797 -78 
Q 1163 -78 763 262 
Q 363 603 284 1178 
z
" transform="scale(0.015625)"/>
       </defs>
       <use xlink:href="#Arial-BoldMT-35"/>
      </g>
     </g>
    </g>
    <g id="xtick_7">
     <g id="line2d_7">
      <g>
       <use xlink:href="#m22eb886fe0" x="486.545498" y="198.907885" style="stroke: #000000; stroke-width: 2"/>
      </g>
     </g>
     <g id="text_7">
      <!-- 6 -->
      <g transform="translate(481.540654 224.791947) scale(0.18 -0.18)">
       <defs>
        <path id="Arial-BoldMT-36" d="M 3247 3459 
L 2397 3366 
Q 2366 3628 2234 3753 
Q 2103 3878 1894 3878 
Q 1616 3878 1423 3628 
Q 1231 3378 1181 2588 
Q 1509 2975 1997 2975 
Q 2547 2975 2939 2556 
Q 3331 2138 3331 1475 
Q 3331 772 2918 347 
Q 2506 -78 1859 -78 
Q 1166 -78 719 461 
Q 272 1000 272 2228 
Q 272 3488 737 4044 
Q 1203 4600 1947 4600 
Q 2469 4600 2811 4308 
Q 3153 4016 3247 3459 
z
M 1256 1544 
Q 1256 1116 1453 883 
Q 1650 650 1903 650 
Q 2147 650 2309 840 
Q 2472 1031 2472 1466 
Q 2472 1913 2297 2120 
Q 2122 2328 1859 2328 
Q 1606 2328 1431 2129 
Q 1256 1931 1256 1544 
z
" transform="scale(0.015625)"/>
       </defs>
       <use xlink:href="#Arial-BoldMT-36"/>
      </g>
     </g>
    </g>
    <g id="xtick_8">
     <g id="line2d_8">
      <g>
       <use xlink:href="#m22eb886fe0" x="379.090996" y="198.907885" style="stroke: #000000; stroke-width: 2"/>
      </g>
     </g>
     <g id="text_8">
      <!-- 7 -->
      <g transform="translate(374.086153 224.791947) scale(0.18 -0.18)">
       <defs>
        <path id="Arial-BoldMT-37" d="M 272 3703 
L 272 4519 
L 3275 4519 
L 3275 3881 
Q 2903 3516 2518 2831 
Q 2134 2147 1932 1376 
Q 1731 606 1734 0 
L 888 0 
Q 909 950 1279 1937 
Q 1650 2925 2269 3703 
L 272 3703 
z
" transform="scale(0.015625)"/>
       </defs>
       <use xlink:href="#Arial-BoldMT-37"/>
      </g>
     </g>
    </g>
    <g id="xtick_9">
     <g id="line2d_9">
      <g>
       <use xlink:href="#m22eb886fe0" x="271.636495" y="198.907885" style="stroke: #000000; stroke-width: 2"/>
      </g>
     </g>
     <g id="text_9">
      <!-- 8 -->
      <g transform="translate(266.631651 224.791947) scale(0.18 -0.18)">
       <defs>
        <path id="Arial-BoldMT-38" d="M 1025 2472 
Q 684 2616 529 2867 
Q 375 3119 375 3419 
Q 375 3931 733 4265 
Q 1091 4600 1750 4600 
Q 2403 4600 2764 4265 
Q 3125 3931 3125 3419 
Q 3125 3100 2959 2851 
Q 2794 2603 2494 2472 
Q 2875 2319 3073 2025 
Q 3272 1731 3272 1347 
Q 3272 713 2867 316 
Q 2463 -81 1791 -81 
Q 1166 -81 750 247 
Q 259 634 259 1309 
Q 259 1681 443 1992 
Q 628 2303 1025 2472 
z
M 1206 3356 
Q 1206 3094 1354 2947 
Q 1503 2800 1750 2800 
Q 2000 2800 2150 2948 
Q 2300 3097 2300 3359 
Q 2300 3606 2151 3754 
Q 2003 3903 1759 3903 
Q 1506 3903 1356 3753 
Q 1206 3603 1206 3356 
z
M 1125 1394 
Q 1125 1031 1311 828 
Q 1497 625 1775 625 
Q 2047 625 2225 820 
Q 2403 1016 2403 1384 
Q 2403 1706 2222 1901 
Q 2041 2097 1763 2097 
Q 1441 2097 1283 1875 
Q 1125 1653 1125 1394 
z
" transform="scale(0.015625)"/>
       </defs>
       <use xlink:href="#Arial-BoldMT-38"/>
      </g>
     </g>
    </g>
    <g id="xtick_10">
     <g id="line2d_10">
      <g>
       <use xlink:href="#m22eb886fe0" x="164.181993" y="198.907885" style="stroke: #000000; stroke-width: 2"/>
      </g>
     </g>
     <g id="text_10">
      <!-- 9 -->
      <g transform="translate(159.177149 224.791947) scale(0.18 -0.18)">
       <defs>
        <path id="Arial-BoldMT-39" d="M 291 1059 
L 1141 1153 
Q 1172 894 1303 769 
Q 1434 644 1650 644 
Q 1922 644 2112 894 
Q 2303 1144 2356 1931 
Q 2025 1547 1528 1547 
Q 988 1547 595 1964 
Q 203 2381 203 3050 
Q 203 3747 617 4173 
Q 1031 4600 1672 4600 
Q 2369 4600 2816 4061 
Q 3263 3522 3263 2288 
Q 3263 1031 2797 475 
Q 2331 -81 1584 -81 
Q 1047 -81 715 205 
Q 384 491 291 1059 
z
M 2278 2978 
Q 2278 3403 2083 3637 
Q 1888 3872 1631 3872 
Q 1388 3872 1227 3680 
Q 1066 3488 1066 3050 
Q 1066 2606 1241 2398 
Q 1416 2191 1678 2191 
Q 1931 2191 2104 2391 
Q 2278 2591 2278 2978 
z
" transform="scale(0.015625)"/>
       </defs>
       <use xlink:href="#Arial-BoldMT-39"/>
      </g>
     </g>
    </g>
    <g id="xtick_11">
     <g id="line2d_11">
      <g>
       <use xlink:href="#m22eb886fe0" x="56.727491" y="198.907885" style="stroke: #000000; stroke-width: 2"/>
      </g>
     </g>
     <g id="text_11">
      <!-- 10 -->
      <g transform="translate(46.717803 224.791947) scale(0.18 -0.18)">
       <use xlink:href="#Arial-BoldMT-31"/>
       <use xlink:href="#Arial-BoldMT-30" x="55.615234"/>
      </g>
     </g>
    </g>
    <g id="text_12">
     <!-- Chemical Shift / ppm -->
     <g transform="translate(504.992813 245.447573) scale(0.18 -0.18)">
      <defs>
       <path id="Arial-BoldMT-43" d="M 3397 1684 
L 4294 1400 
Q 4088 650 3608 286 
Q 3128 -78 2391 -78 
Q 1478 -78 890 545 
Q 303 1169 303 2250 
Q 303 3394 893 4026 
Q 1484 4659 2447 4659 
Q 3288 4659 3813 4163 
Q 4125 3869 4281 3319 
L 3366 3100 
Q 3284 3456 3026 3662 
Q 2769 3869 2400 3869 
Q 1891 3869 1573 3503 
Q 1256 3138 1256 2319 
Q 1256 1450 1568 1081 
Q 1881 713 2381 713 
Q 2750 713 3015 947 
Q 3281 1181 3397 1684 
z
" transform="scale(0.015625)"/>
       <path id="Arial-BoldMT-68" d="M 1334 4581 
L 1334 2897 
Q 1759 3394 2350 3394 
Q 2653 3394 2897 3281 
Q 3141 3169 3264 2994 
Q 3388 2819 3433 2606 
Q 3478 2394 3478 1947 
L 3478 0 
L 2600 0 
L 2600 1753 
Q 2600 2275 2550 2415 
Q 2500 2556 2373 2639 
Q 2247 2722 2056 2722 
Q 1838 2722 1666 2615 
Q 1494 2509 1414 2295 
Q 1334 2081 1334 1663 
L 1334 0 
L 456 0 
L 456 4581 
L 1334 4581 
z
" transform="scale(0.015625)"/>
       <path id="Arial-BoldMT-65" d="M 2381 1056 
L 3256 909 
Q 3088 428 2723 176 
Q 2359 -75 1813 -75 
Q 947 -75 531 491 
Q 203 944 203 1634 
Q 203 2459 634 2926 
Q 1066 3394 1725 3394 
Q 2466 3394 2894 2905 
Q 3322 2416 3303 1406 
L 1103 1406 
Q 1113 1016 1316 798 
Q 1519 581 1822 581 
Q 2028 581 2168 693 
Q 2309 806 2381 1056 
z
M 2431 1944 
Q 2422 2325 2234 2523 
Q 2047 2722 1778 2722 
Q 1491 2722 1303 2513 
Q 1116 2303 1119 1944 
L 2431 1944 
z
" transform="scale(0.015625)"/>
       <path id="Arial-BoldMT-6d" d="M 394 3319 
L 1203 3319 
L 1203 2866 
Q 1638 3394 2238 3394 
Q 2556 3394 2790 3262 
Q 3025 3131 3175 2866 
Q 3394 3131 3647 3262 
Q 3900 3394 4188 3394 
Q 4553 3394 4806 3245 
Q 5059 3097 5184 2809 
Q 5275 2597 5275 2122 
L 5275 0 
L 4397 0 
L 4397 1897 
Q 4397 2391 4306 2534 
Q 4184 2722 3931 2722 
Q 3747 2722 3584 2609 
Q 3422 2497 3350 2280 
Q 3278 2063 3278 1594 
L 3278 0 
L 2400 0 
L 2400 1819 
Q 2400 2303 2353 2443 
Q 2306 2584 2207 2653 
Q 2109 2722 1941 2722 
Q 1738 2722 1575 2612 
Q 1413 2503 1342 2297 
Q 1272 2091 1272 1613 
L 1272 0 
L 394 0 
L 394 3319 
z
" transform="scale(0.015625)"/>
       <path id="Arial-BoldMT-69" d="M 459 3769 
L 459 4581 
L 1338 4581 
L 1338 3769 
L 459 3769 
z
M 459 0 
L 459 3319 
L 1338 3319 
L 1338 0 
L 459 0 
z
" transform="scale(0.015625)"/>
       <path id="Arial-BoldMT-63" d="M 3353 2338 
L 2488 2181 
Q 2444 2441 2289 2572 
Q 2134 2703 1888 2703 
Q 1559 2703 1364 2476 
Q 1169 2250 1169 1719 
Q 1169 1128 1367 884 
Q 1566 641 1900 641 
Q 2150 641 2309 783 
Q 2469 925 2534 1272 
L 3397 1125 
Q 3263 531 2881 228 
Q 2500 -75 1859 -75 
Q 1131 -75 698 384 
Q 266 844 266 1656 
Q 266 2478 700 2936 
Q 1134 3394 1875 3394 
Q 2481 3394 2839 3133 
Q 3197 2872 3353 2338 
z
" transform="scale(0.015625)"/>
       <path id="Arial-BoldMT-61" d="M 1116 2306 
L 319 2450 
Q 453 2931 781 3162 
Q 1109 3394 1756 3394 
Q 2344 3394 2631 3255 
Q 2919 3116 3036 2902 
Q 3153 2688 3153 2116 
L 3144 1091 
Q 3144 653 3186 445 
Q 3228 238 3344 0 
L 2475 0 
Q 2441 88 2391 259 
Q 2369 338 2359 363 
Q 2134 144 1878 34 
Q 1622 -75 1331 -75 
Q 819 -75 523 203 
Q 228 481 228 906 
Q 228 1188 362 1408 
Q 497 1628 739 1745 
Q 981 1863 1438 1950 
Q 2053 2066 2291 2166 
L 2291 2253 
Q 2291 2506 2166 2614 
Q 2041 2722 1694 2722 
Q 1459 2722 1328 2630 
Q 1197 2538 1116 2306 
z
M 2291 1594 
Q 2122 1538 1756 1459 
Q 1391 1381 1278 1306 
Q 1106 1184 1106 997 
Q 1106 813 1243 678 
Q 1381 544 1594 544 
Q 1831 544 2047 700 
Q 2206 819 2256 991 
Q 2291 1103 2291 1419 
L 2291 1594 
z
" transform="scale(0.015625)"/>
       <path id="Arial-BoldMT-6c" d="M 459 0 
L 459 4581 
L 1338 4581 
L 1338 0 
L 459 0 
z
" transform="scale(0.015625)"/>
       <path id="Arial-BoldMT-20" transform="scale(0.015625)"/>
       <path id="Arial-BoldMT-53" d="M 231 1491 
L 1131 1578 
Q 1213 1125 1461 912 
Q 1709 700 2131 700 
Q 2578 700 2804 889 
Q 3031 1078 3031 1331 
Q 3031 1494 2936 1608 
Q 2841 1722 2603 1806 
Q 2441 1863 1863 2006 
Q 1119 2191 819 2459 
Q 397 2838 397 3381 
Q 397 3731 595 4036 
Q 794 4341 1167 4500 
Q 1541 4659 2069 4659 
Q 2931 4659 3367 4281 
Q 3803 3903 3825 3272 
L 2900 3231 
Q 2841 3584 2645 3739 
Q 2450 3894 2059 3894 
Q 1656 3894 1428 3728 
Q 1281 3622 1281 3444 
Q 1281 3281 1419 3166 
Q 1594 3019 2269 2859 
Q 2944 2700 3267 2529 
Q 3591 2359 3773 2064 
Q 3956 1769 3956 1334 
Q 3956 941 3737 597 
Q 3519 253 3119 86 
Q 2719 -81 2122 -81 
Q 1253 -81 787 320 
Q 322 722 231 1491 
z
" transform="scale(0.015625)"/>
       <path id="Arial-BoldMT-66" d="M 75 3319 
L 563 3319 
L 563 3569 
Q 563 3988 652 4194 
Q 741 4400 980 4529 
Q 1219 4659 1584 4659 
Q 1959 4659 2319 4547 
L 2200 3934 
Q 1991 3984 1797 3984 
Q 1606 3984 1523 3895 
Q 1441 3806 1441 3553 
L 1441 3319 
L 2097 3319 
L 2097 2628 
L 1441 2628 
L 1441 0 
L 563 0 
L 563 2628 
L 75 2628 
L 75 3319 
z
" transform="scale(0.015625)"/>
       <path id="Arial-BoldMT-74" d="M 1981 3319 
L 1981 2619 
L 1381 2619 
L 1381 1281 
Q 1381 875 1398 808 
Q 1416 741 1477 697 
Q 1538 653 1625 653 
Q 1747 653 1978 738 
L 2053 56 
Q 1747 -75 1359 -75 
Q 1122 -75 931 4 
Q 741 84 652 211 
Q 563 338 528 553 
Q 500 706 500 1172 
L 500 2619 
L 97 2619 
L 97 3319 
L 500 3319 
L 500 3978 
L 1381 4491 
L 1381 3319 
L 1981 3319 
z
" transform="scale(0.015625)"/>
       <path id="Arial-BoldMT-2f" d="M -9 -78 
L 1125 4659 
L 1784 4659 
L 638 -78 
L -9 -78 
z
" transform="scale(0.015625)"/>
       <path id="Arial-BoldMT-70" d="M 434 3319 
L 1253 3319 
L 1253 2831 
Q 1413 3081 1684 3237 
Q 1956 3394 2288 3394 
Q 2866 3394 3269 2941 
Q 3672 2488 3672 1678 
Q 3672 847 3265 386 
Q 2859 -75 2281 -75 
Q 2006 -75 1782 34 
Q 1559 144 1313 409 
L 1313 -1263 
L 434 -1263 
L 434 3319 
z
M 1303 1716 
Q 1303 1156 1525 889 
Q 1747 622 2066 622 
Q 2372 622 2575 867 
Q 2778 1113 2778 1672 
Q 2778 2194 2568 2447 
Q 2359 2700 2050 2700 
Q 1728 2700 1515 2451 
Q 1303 2203 1303 1716 
z
" transform="scale(0.015625)"/>
      </defs>
      <use xlink:href="#Arial-BoldMT-43"/>
      <use xlink:href="#Arial-BoldMT-68" x="72.216797"/>
      <use xlink:href="#Arial-BoldMT-65" x="133.300781"/>
      <use xlink:href="#Arial-BoldMT-6d" x="188.916016"/>
      <use xlink:href="#Arial-BoldMT-69" x="277.832031"/>
      <use xlink:href="#Arial-BoldMT-63" x="305.615234"/>
      <use xlink:href="#Arial-BoldMT-61" x="361.230469"/>
      <use xlink:href="#Arial-BoldMT-6c" x="416.845703"/>
      <use xlink:href="#Arial-BoldMT-20" x="444.628906"/>
      <use xlink:href="#Arial-BoldMT-53" x="472.412109"/>
      <use xlink:href="#Arial-BoldMT-68" x="539.111328"/>
      <use xlink:href="#Arial-BoldMT-69" x="600.195312"/>
      <use xlink:href="#Arial-BoldMT-66" x="627.978516"/>
      <use xlink:href="#Arial-BoldMT-74" x="661.279297"/>
      <use xlink:href="#Arial-BoldMT-20" x="694.580078"/>
      <use xlink:href="#Arial-BoldMT-2f" x="722.363281"/>
      <use xlink:href="#Arial-BoldMT-20" x="750.146484"/>
      <use xlink:href="#Arial-BoldMT-70" x="777.929688"/>
      <use xlink:href="#Arial-BoldMT-70" x="839.013672"/>
      <use xlink:href="#Arial-BoldMT-6d" x="900.097656"/>
     </g>
    </g>
   </g>
   <g id="matplotlib.axis_2"/>
   <g id="line2d_12">
    <path d="M 3.058767 189.982455 
L 5.309584 189.389809 
L 8.17426 189.514247 
L 9.197359 189.238737 
L 10.220458 189.404831 
L 13.085134 189.684896 
L 13.903613 189.552617 
L 15.131331 189.583702 
L 17.586768 189.514125 
L 18.200627 189.486435 
L 20.656064 189.796832 
L 21.474543 189.604744 
L 22.906881 189.172595 
L 23.72536 189.420872 
L 24.543839 189.634225 
L 25.976177 189.787382 
L 26.999275 189.934306 
L 27.817754 189.880357 
L 28.431613 189.73243 
L 29.454712 189.734545 
L 31.705529 189.426082 
L 33.751726 189.528961 
L 36.821022 189.291788 
L 39.071839 189.817682 
L 39.890318 189.978863 
L 40.708797 189.829881 
L 41.527276 189.643024 
L 43.573473 189.619715 
L 44.187332 189.583681 
L 45.415051 189.871089 
L 46.847389 189.642276 
L 47.665868 189.681692 
L 48.688966 189.544747 
L 49.507445 189.817592 
L 50.325924 189.947907 
L 50.939783 189.869327 
L 51.758262 189.688253 
L 52.781361 189.858351 
L 53.59984 189.959256 
L 54.827558 189.956582 
L 55.441417 189.899332 
L 56.464516 189.592334 
L 57.692234 189.516702 
L 58.919953 189.542219 
L 60.55691 189.578765 
L 64.649305 189.836093 
L 65.263164 189.698998 
L 67.104742 189.563994 
L 68.12784 189.221461 
L 69.355559 189.175481 
L 69.764798 189.140544 
L 70.378657 189.384521 
L 70.787897 189.490839 
L 71.401756 189.29013 
L 72.015615 189.142376 
L 73.038714 189.274632 
L 74.675672 189.49197 
L 76.312629 189.440339 
L 77.335728 189.72832 
L 77.744968 189.818581 
L 78.358827 189.676717 
L 79.177306 189.518063 
L 81.632742 189.533454 
L 82.860461 189.805127 
L 83.67894 189.55697 
L 84.292799 189.343424 
L 86.134376 189.474507 
L 87.566714 190.061087 
L 88.385193 190.046521 
L 89.817531 189.710192 
L 90.84063 189.665514 
L 93.091447 189.533757 
L 94.728405 189.88804 
L 96.979222 189.528048 
L 97.593081 189.558663 
L 99.434659 189.296988 
L 102.299335 189.761313 
L 102.913194 189.607169 
L 103.731673 189.443686 
L 105.57325 189.551299 
L 106.596349 189.516625 
L 107.619448 189.299333 
L 108.642546 189.520063 
L 109.256405 189.629809 
L 110.279504 189.463207 
L 111.507222 189.164896 
L 112.530321 189.271219 
L 113.3488 189.267361 
L 114.167279 189.047565 
L 114.985758 188.822435 
L 115.599617 188.882758 
L 118.464293 189.665261 
L 119.896631 189.728328 
L 122.965927 189.449035 
L 123.784406 189.668132 
L 124.602885 189.866853 
L 125.625984 189.922584 
L 126.649082 189.738436 
L 127.876801 189.854675 
L 128.899899 189.785255 
L 130.127618 190.006236 
L 131.764575 189.757191 
L 132.583054 189.999013 
L 133.401533 190.197411 
L 134.015392 190.051089 
L 134.833871 189.841141 
L 136.675449 189.537276 
L 137.698547 189.628052 
L 142.814041 189.547282 
L 144.041759 189.697193 
L 144.860238 189.988987 
L 145.474097 189.853533 
L 146.087956 189.704067 
L 147.724914 189.718138 
L 148.338773 189.790882 
L 149.157252 189.75764 
L 149.771111 189.815135 
L 150.384971 189.628744 
L 150.99883 189.450576 
L 154.477365 189.19212 
L 155.705083 189.358579 
L 157.546661 189.592325 
L 160.411337 189.796307 
L 161.639056 189.646104 
L 165.322211 189.94126 
L 166.754549 189.380252 
L 169.414605 189.472797 
L 170.233084 189.733813 
L 171.460802 189.677369 
L 172.074662 189.597048 
L 173.507 189.614492 
L 176.985535 189.483132 
L 178.213253 189.670134 
L 180.054831 189.523406 
L 182.305648 189.279569 
L 183.328747 189.406342 
L 184.556465 189.550894 
L 185.579564 189.602317 
L 188.035 189.464315 
L 189.671958 189.600575 
L 190.695057 189.310193 
L 192.741254 189.335166 
L 193.968972 189.641427 
L 194.787451 189.633798 
L 196.219789 189.798603 
L 197.856747 189.62282 
L 199.902944 189.721932 
L 200.516804 189.808244 
L 201.130663 189.905501 
L 202.767621 189.771567 
L 203.790719 189.961078 
L 204.404578 189.856368 
L 205.223057 189.703127 
L 207.064635 189.691487 
L 208.496973 189.437811 
L 209.724691 189.324395 
L 211.361649 189.45434 
L 212.180128 189.441674 
L 215.454044 189.77974 
L 217.091001 189.873307 
L 218.1141 189.839487 
L 221.388016 189.988239 
L 222.411114 189.730166 
L 223.434213 189.349761 
L 225.071171 189.360843 
L 226.094269 189.41882 
L 226.708129 189.459751 
L 228.140467 189.296196 
L 229.163565 189.126386 
L 230.186664 189.256177 
L 230.800523 189.540089 
L 231.414382 189.728344 
L 233.665199 189.556762 
L 234.483678 189.427431 
L 235.506777 189.367885 
L 236.325256 189.1773 
L 240.008411 189.081343 
L 240.62227 188.84257 
L 242.463848 188.690758 
L 244.100805 188.861197 
L 244.919284 188.776691 
L 245.737763 188.931773 
L 246.351622 188.957128 
L 247.374721 188.851401 
L 249.625538 188.975697 
L 250.239397 189.111447 
L 250.853256 189.262645 
L 251.671735 189.148982 
L 252.490214 188.929136 
L 253.513313 188.873763 
L 254.945651 188.512923 
L 256.991848 188.513399 
L 258.219567 188.035937 
L 259.447285 187.904111 
L 260.265764 187.635863 
L 261.084243 187.599121 
L 263.744299 186.887636 
L 264.562778 186.969101 
L 265.995116 186.539307 
L 266.813595 186.021364 
L 267.427454 185.684403 
L 268.859792 185.327742 
L 269.678271 184.446694 
L 270.90599 182.952527 
L 272.542947 180.212025 
L 273.770666 177.6795 
L 274.589145 175.58799 
L 275.407624 172.978157 
L 276.021483 170.279031 
L 276.635342 166.27977 
L 277.249201 160.21078 
L 277.86306 150.872823 
L 278.47692 136.684631 
L 279.090779 116.040105 
L 279.909258 78.369711 
L 280.932356 29.974868 
L 281.546215 11.072841 
L 281.955455 4.549501 
L 282.160075 3.138698 
L 282.364694 3.00024 
L 282.569314 4.161023 
L 282.978553 10.429128 
L 283.387793 22.058895 
L 284.001652 48.825311 
L 285.84323 139.930309 
L 286.457089 156.973687 
L 287.070948 167.733803 
L 287.684807 174.312933 
L 288.298666 178.316773 
L 288.912526 180.844683 
L 289.731004 183.002846 
L 290.549483 184.562996 
L 291.367962 185.615103 
L 292.186441 186.371931 
L 292.8003 186.680853 
L 294.028019 186.947981 
L 295.255737 187.036936 
L 296.892695 186.954107 
L 298.938892 186.865865 
L 300.985089 187.054357 
L 301.803568 187.000543 
L 305.077484 186.202668 
L 307.73754 185.462125 
L 310.192977 184.253556 
L 311.216076 183.665991 
L 312.648414 182.331915 
L 313.262273 181.428772 
L 315.103851 178.311482 
L 316.331569 176.605722 
L 316.945428 175.66674 
L 317.763907 173.864241 
L 319.400865 169.442413 
L 320.014724 166.822773 
L 320.833203 162.395814 
L 321.651682 156.39952 
L 322.470161 148.663942 
L 323.08402 140.746066 
L 323.902499 126.77411 
L 325.130217 100.529795 
L 326.357936 75.320121 
L 326.971795 66.742136 
L 327.381034 63.501607 
L 327.585654 62.864497 
L 327.790274 62.865653 
L 327.994893 63.467205 
L 328.404133 66.550912 
L 328.813372 72.008767 
L 329.427231 83.112822 
L 330.65495 112.262495 
L 331.882668 140.15804 
L 332.701147 154.599133 
L 333.519626 164.636448 
L 334.133485 169.739158 
L 334.951964 174.369066 
L 335.770443 177.571861 
L 336.588922 179.986609 
L 337.81664 182.639158 
L 338.635119 183.781328 
L 339.453598 184.51716 
L 340.885936 185.619657 
L 341.909035 186.420162 
L 343.136753 187.167582 
L 343.955232 187.171598 
L 344.773711 187.259468 
L 345.59219 187.218422 
L 346.206049 187.301246 
L 348.252246 188.081686 
L 348.866106 188.321014 
L 349.479965 188.311162 
L 350.298444 188.24903 
L 351.526162 188.612777 
L 352.344641 188.908473 
L 353.981599 189.536768 
L 354.800078 189.650891 
L 356.846275 189.663382 
L 359.710951 188.527653 
L 360.32481 188.62468 
L 361.552529 189.083818 
L 362.371007 189.174434 
L 363.189486 189.426062 
L 365.031064 189.376467 
L 366.258782 189.455493 
L 369.532698 189.328185 
L 371.783515 189.301732 
L 372.601994 189.196416 
L 375.67129 189.473734 
L 376.489769 189.478006 
L 377.512867 189.582961 
L 378.331346 189.554517 
L 379.149825 189.45055 
L 381.196022 189.49216 
L 382.62836 189.331847 
L 383.856079 189.449004 
L 386.516135 189.012812 
L 387.129994 189.281349 
L 387.743854 189.50527 
L 389.790051 189.895816 
L 390.60853 190.139094 
L 391.222389 189.962975 
L 392.450107 189.484747 
L 393.063967 189.550114 
L 394.700924 189.888306 
L 395.724023 189.884542 
L 397.77022 190.151825 
L 398.384079 190.297621 
L 398.997939 190.145393 
L 400.225657 189.726519 
L 401.248756 189.52844 
L 402.476474 189.668729 
L 403.294953 189.703348 
L 405.13653 190.140355 
L 406.773488 189.944404 
L 408.615066 190.27162 
L 410.252024 189.950019 
L 411.684362 190.053593 
L 412.502841 189.910236 
L 414.344418 189.89743 
L 415.572136 189.963783 
L 416.185996 189.786334 
L 416.799855 189.604939 
L 418.027573 189.621239 
L 418.846052 189.698302 
L 420.07377 189.56658 
L 421.301489 189.593408 
L 421.915348 189.559905 
L 422.938447 189.787934 
L 423.552306 189.563032 
L 424.780024 188.958425 
L 425.393883 188.806496 
L 426.007743 188.932184 
L 427.030841 189.458223 
L 427.6447 189.636143 
L 428.463179 189.518218 
L 430.304757 189.234089 
L 431.532475 189.587284 
L 432.146334 189.722128 
L 433.987912 189.545364 
L 435.011011 189.744352 
L 436.238729 190.135768 
L 437.057208 189.961334 
L 437.875687 189.832704 
L 439.308025 189.681813 
L 440.126504 189.611394 
L 441.149602 189.561374 
L 443.400419 188.864356 
L 443.809659 188.825345 
L 444.423518 188.994504 
L 445.446617 189.467783 
L 447.492814 189.771856 
L 449.334391 189.420452 
L 451.380589 189.57105 
L 451.994448 189.696757 
L 452.812927 189.520046 
L 454.245265 189.257398 
L 455.063744 189.425434 
L 456.291462 189.68434 
L 457.51918 189.602462 
L 458.13304 189.569778 
L 458.951519 189.739396 
L 459.974617 189.591147 
L 462.225434 189.242259 
L 462.634674 189.223802 
L 464.067012 189.553195 
L 465.09011 189.468042 
L 466.522448 189.791131 
L 467.340927 189.938271 
L 468.159406 189.769013 
L 469.182505 189.532644 
L 472.047181 189.505144 
L 472.66104 189.616417 
L 473.684139 189.485777 
L 474.297998 189.459935 
L 475.116477 189.490386 
L 475.730336 189.532807 
L 476.548815 189.85568 
L 477.162674 190.130082 
L 477.571914 190.114991 
L 478.799632 189.744789 
L 480.23197 189.615087 
L 481.050449 189.39057 
L 482.892027 189.099908 
L 483.505886 189.073954 
L 484.324365 189.143374 
L 484.938224 189.1585 
L 486.575182 189.51108 
L 487.59828 189.438014 
L 488.825999 189.474531 
L 489.644478 189.319632 
L 490.258337 189.35169 
L 491.690675 189.717339 
L 492.713773 189.687638 
L 493.941492 189.560315 
L 494.96459 189.602391 
L 495.783069 189.417086 
L 499.056985 189.563569 
L 500.489323 189.367123 
L 503.558619 189.276202 
L 504.172478 189.234212 
L 507.651014 189.405128 
L 508.469492 189.305486 
L 510.51569 189.433463 
L 511.129549 189.249892 
L 511.743408 189.055232 
L 513.789605 189.059609 
L 515.017324 189.13023 
L 515.835803 189.36582 
L 516.449662 189.338774 
L 517.882 188.879982 
L 519.109718 188.968366 
L 521.360535 187.820504 
L 522.179014 187.612142 
L 523.202113 187.324448 
L 524.225211 187.016063 
L 525.04369 186.922178 
L 525.862169 186.468516 
L 526.885268 185.829076 
L 527.908366 185.490374 
L 528.726845 185.204463 
L 529.136085 184.908534 
L 530.363803 183.818194 
L 531.386902 183.145587 
L 531.796141 182.864687 
L 534.865437 179.556809 
L 535.683916 178.181496 
L 536.502395 176.901079 
L 537.320874 175.840932 
L 538.139353 174.249192 
L 539.98093 169.740507 
L 540.799409 167.272985 
L 542.436367 161.527891 
L 543.868705 155.225231 
L 545.301043 147.861796 
L 547.75648 133.248292 
L 549.802677 119.479489 
L 553.076593 98.226353 
L 553.485832 97.161002 
L 553.690452 97.024702 
L 553.895072 97.127363 
L 554.304311 97.949201 
L 554.713551 99.516886 
L 555.12279 101.987268 
L 555.53203 105.674159 
L 556.350508 115.944456 
L 557.578227 132.900443 
L 557.987466 142.37256 
L 558.601325 158.763468 
L 558.805945 160.323563 
L 559.010565 159.542691 
L 560.033664 151.139426 
L 561.670621 141.234324 
L 562.284481 138.381459 
L 562.69372 137.35642 
L 563.102959 137.088667 
L 563.512199 137.173006 
L 563.921438 137.507014 
L 564.330678 138.369508 
L 564.944537 140.80593 
L 566.990734 150.567486 
L 567.809213 154.108095 
L 571.696988 168.325206 
L 572.720087 171.12869 
L 574.357044 174.675426 
L 575.789383 177.024694 
L 579.267918 181.767778 
L 581.314115 183.412995 
L 584.178791 184.990132 
L 585.40651 185.423965 
L 586.429608 185.60967 
L 587.657327 186.23835 
L 588.680425 186.31159 
L 591.135862 187.187802 
L 592.97744 187.228048 
L 594.819017 188.02554 
L 595.432876 188.254538 
L 596.046735 188.556602 
L 596.660595 188.533439 
L 597.479074 188.432487 
L 598.502172 188.451807 
L 599.93451 188.31013 
L 601.366848 188.363545 
L 602.389947 188.536356 
L 603.003806 188.686198 
L 603.617665 188.934944 
L 605.663863 188.97777 
L 607.096201 188.847667 
L 608.119299 189.031706 
L 608.937778 189.106842 
L 610.574736 189.462816 
L 611.597835 189.350595 
L 613.234793 189.393671 
L 614.462511 189.410759 
L 615.28099 189.448335 
L 618.145666 188.935869 
L 620.396483 188.97676 
L 621.828821 189.437912 
L 626.535075 189.602748 
L 627.353554 189.373552 
L 627.762793 189.494932 
L 628.376652 189.7481 
L 630.627469 189.800046 
L 631.241328 189.742459 
L 631.855188 189.715162 
L 632.673667 189.560732 
L 635.538343 189.675328 
L 637.175301 189.224473 
L 637.78916 189.151242 
L 638.403019 189.04084 
L 639.016878 189.277869 
L 640.244596 189.883921 
L 641.267695 189.977579 
L 641.881554 189.963766 
L 643.518512 189.689482 
L 647.201667 189.686011 
L 648.224766 189.676357 
L 649.043245 189.704259 
L 651.089442 189.361911 
L 652.31716 189.310165 
L 654.158738 189.547121 
L 656.614175 188.924136 
L 657.432654 189.026837 
L 658.455752 189.320065 
L 659.069611 189.248315 
L 660.09271 188.990843 
L 660.706569 189.108941 
L 661.525048 189.272242 
L 662.548147 189.344207 
L 665.617443 188.706341 
L 666.435922 188.968189 
L 667.2544 189.31574 
L 667.66364 189.282627 
L 668.686738 188.899919 
L 672.779133 188.729936 
L 675.848429 188.258402 
L 677.076147 188.08276 
L 679.122345 187.681047 
L 683.828598 185.859436 
L 684.647077 185.086557 
L 685.260936 184.318489 
L 686.488655 182.118747 
L 687.102514 180.551646 
L 687.716373 178.260912 
L 688.330232 175.201451 
L 688.944091 171.16995 
L 689.557951 165.447728 
L 690.17181 156.634033 
L 690.581049 148.073179 
L 690.990289 136.170208 
L 691.604148 110.94617 
L 692.013387 93.679553 
L 692.218007 88.376564 
L 692.422627 86.910751 
L 692.627247 89.314995 
L 693.650345 114.76717 
L 693.854965 116.291119 
L 694.059585 116.07636 
L 694.264204 114.144327 
L 694.673444 105.388122 
L 695.491923 80.602681 
L 695.696542 79.420592 
L 695.901162 82.376523 
L 696.310402 97.172372 
L 696.924261 120.121981 
L 697.3335 128.552406 
L 697.53812 130.658821 
L 697.74274 131.493412 
L 697.947359 131.112906 
L 698.151979 129.526347 
L 698.561219 122.603991 
L 698.970458 110.66639 
L 699.584317 90.270309 
L 699.788937 87.192986 
L 699.993557 87.803868 
L 700.402796 98.087311 
L 701.016655 115.936168 
L 701.425895 120.916413 
L 701.630515 120.994428 
L 701.835134 119.506823 
L 702.244374 112.144749 
L 702.858233 96.17778 
L 703.062853 93.567434 
L 703.267472 94.475789 
L 703.472092 99.256772 
L 705.10905 159.039654 
L 705.722909 168.677077 
L 706.336768 174.567883 
L 706.950627 178.325504 
L 707.769106 181.813919 
L 708.382965 183.572287 
L 708.996825 184.770493 
L 710.224543 186.420637 
L 710.838402 187.137332 
L 711.861501 187.798793 
L 712.884599 188.207615 
L 713.907698 188.261018 
L 716.158515 188.689115 
L 717.590853 189.188615 
L 719.432431 188.786145 
L 720.25091 189.01334 
L 720.864769 188.882342 
L 721.683248 188.614254 
L 723.115586 188.694403 
L 724.957163 189.281764 
L 725.571023 189.367595 
L 726.389501 189.049447 
L 727.003361 188.954573 
L 729.049558 189.339345 
L 729.868037 189.250305 
L 730.481896 189.278244 
L 731.300375 189.448252 
L 732.528093 189.444535 
L 733.346572 189.327859 
L 734.369671 189.291982 
L 736.620488 189.099607 
L 737.234347 189.062897 
L 737.848206 188.657099 
L 738.462065 188.013999 
L 739.075925 186.947675 
L 739.894403 185.301533 
L 740.099023 185.381204 
L 740.508263 186.336421 
L 741.122122 187.801931 
L 741.531361 188.232203 
L 742.14522 188.457474 
L 743.986798 189.013263 
L 744.805277 188.981915 
L 745.419136 189.058437 
L 746.442235 189.036365 
L 747.056094 189.177864 
L 748.488432 189.275363 
L 749.102291 189.281987 
L 750.534629 189.05501 
L 751.557728 189.099465 
L 752.580826 189.096181 
L 754.013165 189.466678 
L 754.422404 189.433647 
L 755.036263 189.683514 
L 755.854742 189.994977 
L 757.4917 190.196159 
L 758.719418 189.925455 
L 759.742517 189.510047 
L 761.993334 189.22221 
L 762.607193 189.175125 
L 763.834911 189.530549 
L 764.85801 189.824705 
L 766.699588 190.052393 
L 767.313447 190.064613 
L 768.541165 189.868422 
L 769.973503 189.802841 
L 770.791982 189.795353 
L 772.22432 189.684015 
L 774.065898 189.687795 
L 775.293616 189.676319 
L 776.112095 189.917633 
L 776.725954 189.803544 
L 777.749053 189.618255 
L 778.567532 189.579224 
L 779.79525 189.57744 
L 780.613729 189.445363 
L 783.069166 189.429079 
L 785.115363 189.481799 
L 787.16156 189.143032 
L 788.184659 189.286305 
L 789.003138 189.257768 
L 789.616997 189.573698 
L 790.230856 189.889185 
L 790.844715 189.9587 
L 791.458575 189.782976 
L 792.072434 189.619935 
L 795.346349 189.687114 
L 796.574068 189.486204 
L 797.597166 189.640727 
L 798.415645 189.686959 
L 799.643364 189.547734 
L 800.461843 189.508255 
L 801.484941 189.268889 
L 802.30342 189.526439 
L 803.326519 189.767196 
L 804.554237 189.691829 
L 805.372716 189.465976 
L 806.395815 189.520391 
L 807.623533 189.795039 
L 808.646632 189.5324 
L 809.66973 189.318405 
L 813.148266 189.298579 
L 814.785223 189.162611 
L 815.399083 189.36044 
L 816.626801 189.831637 
L 817.854519 189.976638 
L 818.672998 189.887682 
L 819.696097 189.711443 
L 820.923815 189.677761 
L 821.946914 189.866686 
L 823.583872 189.797965 
L 825.425449 189.579568 
L 826.243928 189.694425 
L 827.676266 189.672921 
L 828.494745 189.88396 
L 829.108604 189.783043 
L 829.722463 189.658692 
L 831.154802 189.804513 
L 833.200999 189.189269 
L 834.019478 189.230648 
L 835.247196 189.45112 
L 836.270295 189.458756 
L 837.088774 189.541036 
L 838.316492 189.233159 
L 838.930351 189.461668 
L 839.95345 189.9265 
L 840.362689 189.851055 
L 841.385788 189.425356 
L 841.795027 189.450187 
L 842.613506 189.681427 
L 844.455084 189.584983 
L 846.296661 189.795109 
L 848.138239 189.734982 
L 848.956718 189.558868 
L 852.639873 189.478254 
L 854.68607 189.836601 
L 855.09531 189.823623 
L 856.527648 189.445484 
L 857.141507 189.606774 
L 857.959986 189.880681 
L 858.778465 189.845408 
L 861.847761 189.267129 
L 862.870859 189.036236 
L 864.303197 189.095903 
L 865.121676 189.10831 
L 866.349395 188.887933 
L 871.055648 189.294552 
L 871.669507 189.223184 
L 872.692606 188.985686 
L 873.306465 188.954758 
L 873.920324 188.65395 
L 875.557282 187.574131 
L 876.375761 186.951658 
L 877.39886 186.411293 
L 877.808099 185.869416 
L 878.626578 184.171499 
L 879.240437 182.524942 
L 879.649677 181.011386 
L 880.058916 178.811564 
L 880.672775 173.818254 
L 881.286635 166.207198 
L 881.695874 161.310697 
L 881.900494 160.086276 
L 882.105114 160.039446 
L 882.514353 162.396862 
L 882.923592 164.862231 
L 883.128212 165.37955 
L 883.332832 165.296399 
L 883.537452 164.578554 
L 883.946691 161.080294 
L 884.355931 154.606377 
L 885.174409 139.576525 
L 885.379029 139.70244 
L 885.583649 142.306334 
L 886.606748 162.603998 
L 887.015987 166.280952 
L 887.220607 167.101538 
L 887.425226 167.32223 
L 887.629846 166.997082 
L 888.039086 165.112947 
L 888.448325 163.283379 
L 888.652945 163.422991 
L 888.857565 164.627322 
L 889.471424 171.921371 
L 890.085283 178.174523 
L 890.699142 181.81277 
L 891.313001 184.074544 
L 891.92686 185.456448 
L 892.745339 186.770572 
L 893.563818 187.63557 
L 894.177677 188.021015 
L 896.019255 188.356529 
L 897.042354 188.229468 
L 898.474692 188.616639 
L 900.316269 188.302201 
L 901.543988 187.976997 
L 902.157847 187.974908 
L 902.976326 188.016677 
L 903.999424 187.72395 
L 908.296439 186.470315 
L 910.751875 186.018564 
L 911.774974 185.939248 
L 912.184213 185.876013 
L 912.798073 185.45438 
L 913.616551 184.917457 
L 914.230411 184.75213 
L 914.84427 184.880889 
L 916.276608 185.737671 
L 917.095087 186.655016 
L 919.141284 188.84192 
L 919.345904 188.806874 
L 919.755143 188.355841 
L 920.573622 187.350132 
L 921.187481 187.021474 
L 922.824439 186.74112 
L 924.256777 186.756919 
L 924.870636 186.793839 
L 926.712214 187.419814 
L 927.326073 187.624301 
L 928.963031 187.895323 
L 930.599989 188.651224 
L 933.055426 188.87063 
L 934.078524 188.866136 
L 934.897003 188.916114 
L 936.738581 189.111495 
L 937.35244 188.886705 
L 938.170919 188.574495 
L 939.398637 188.291223 
L 940.217116 187.891017 
L 941.240215 187.244232 
L 941.854074 186.329929 
L 942.672553 184.843548 
L 943.491032 182.69714 
L 944.104891 180.404372 
L 944.71875 177.043327 
L 945.332609 172.110124 
L 945.741849 167.180616 
L 946.151088 160.153441 
L 946.560327 150.012074 
L 946.969567 135.378266 
L 947.992666 89.660423 
L 948.197285 88.30685 
L 948.401905 92.171339 
L 948.811144 110.458187 
L 949.425004 139.483431 
L 950.038863 157.233201 
L 950.652722 167.219609 
L 951.266581 173.266835 
L 951.88044 177.107276 
L 952.4943 179.574725 
L 953.312778 181.860813 
L 954.131257 183.383942 
L 955.358976 185.273673 
L 955.972835 185.856642 
L 956.586694 186.198447 
L 957.200553 186.248639 
L 957.814412 186.100321 
L 958.632891 185.648588 
L 960.883708 184.231693 
L 961.088328 184.234881 
L 961.497568 184.565834 
L 962.111427 185.552078 
L 963.134525 187.282413 
L 963.748385 187.768229 
L 964.362244 187.932821 
L 964.976103 188.052088 
L 966.203821 188.587712 
L 966.81768 188.483072 
L 968.659258 187.824714 
L 969.273117 187.950902 
L 970.910075 188.416907 
L 973.160892 188.589029 
L 973.774751 188.378327 
L 974.38861 188.101135 
L 974.79785 188.183419 
L 975.820948 188.702531 
L 976.639427 188.867561 
L 977.253287 188.944148 
L 978.071765 189.23577 
L 979.504103 189.241521 
L 980.322582 189.279419 
L 981.95954 189.567653 
L 982.982639 189.517829 
L 985.438076 189.297266 
L 987.075033 189.191901 
L 987.688893 189.117846 
L 988.302752 189.366691 
L 989.121231 189.756133 
L 989.73509 189.721975 
L 990.758188 189.463237 
L 991.372048 189.579313 
L 991.985907 189.647665 
L 992.804386 189.492007 
L 993.622865 189.511319 
L 996.282921 188.663476 
L 996.89678 188.836324 
L 998.738358 189.665386 
L 1000.579935 189.695721 
L 1001.398414 189.88447 
L 1004.26309 189.940792 
L 1005.286189 190.080301 
L 1005.900048 189.971931 
L 1006.513907 189.89935 
L 1008.355485 190.124256 
L 1009.787823 189.891968 
L 1010.606302 189.854175 
L 1011.629401 189.945837 
L 1013.470978 189.556216 
L 1014.289457 189.815678 
L 1016.335654 189.618435 
L 1016.949513 189.921315 
L 1017.563373 190.146095 
L 1018.381852 190.05161 
L 1021.451147 189.697193 
L 1022.883486 189.258446 
L 1023.497345 189.201342 
L 1024.111204 189.246332 
L 1025.134303 189.105333 
L 1025.748162 189.171593 
L 1026.77126 189.418869 
L 1028.612838 189.434847 
L 1029.226697 189.61826 
L 1030.045176 189.839547 
L 1030.454415 189.764227 
L 1031.068275 189.364534 
L 1031.886754 188.754788 
L 1032.705232 188.443475 
L 1033.319092 188.417137 
L 1034.137571 188.565501 
L 1034.956049 189.055579 
L 1035.569909 189.325714 
L 1037.002247 189.396435 
L 1039.048444 189.257683 
L 1039.662303 189.397242 
L 1040.480782 189.645185 
L 1042.731599 189.818482 
L 1043.550078 189.802337 
L 1046.619374 189.495688 
L 1047.437853 189.569501 
L 1048.665571 189.382127 
L 1049.27943 189.286404 
L 1049.89329 189.474035 
L 1050.711768 189.767571 
L 1051.734867 189.788923 
L 1053.576445 189.581587 
L 1054.599543 189.801525 
L 1055.622642 189.752202 
L 1057.2596 189.423735 
L 1059.305797 189.916937 
L 1060.533515 189.733165 
L 1061.147374 189.947055 
L 1061.965853 190.381135 
L 1062.988952 190.523007 
L 1063.602811 190.433442 
L 1064.83053 190.07941 
L 1066.058248 190.065565 
L 1067.490586 189.778797 
L 1068.922924 189.824734 
L 1069.946023 189.896932 
L 1071.173741 189.883597 
L 1071.7876 189.769194 
L 1072.606079 189.684948 
L 1073.424558 189.387407 
L 1074.038417 189.535953 
L 1075.061516 189.82596 
L 1076.084615 189.976832 
L 1078.335432 189.781656 
L 1079.35853 189.391576 
L 1080.995488 189.118281 
L 1082.223206 189.250561 
L 1083.860164 189.404959 
L 1084.474023 189.418728 
L 1085.292502 189.657643 
L 1086.110981 189.656581 
L 1086.92946 189.704279 
L 1089.384897 189.706088 
L 1090.203376 189.827815 
L 1093.272672 189.517615 
L 1094.09115 189.55451 
L 1095.318869 189.416951 
L 1096.137348 189.405521 
L 1099.820503 189.721712 
L 1101.457461 189.762818 
L 1102.480559 189.396182 
L 1103.094418 189.425076 
L 1103.708278 189.497945 
L 1105.140616 189.35092 
L 1106.163714 189.396232 
L 1106.777574 189.395476 
L 1108.209912 189.730924 
L 1110.256109 189.566384 
L 1111.074588 189.569284 
L 1114.962363 189.829267 
L 1116.190081 189.512297 
L 1117.00856 189.106761 
L 1117.417799 189.111124 
L 1118.645518 189.487662 
L 1120.282476 189.490915 
L 1123.761011 188.940959 
L 1126.421067 189.520855 
L 1129.899603 189.877922 
L 1133.582758 189.355823 
L 1135.015096 189.217707 
L 1135.833575 189.075943 
L 1136.447434 189.269171 
L 1137.470533 189.664677 
L 1138.698251 189.877735 
L 1139.925969 189.635655 
L 1140.949068 189.801686 
L 1141.972167 189.628272 
L 1142.790645 189.378152 
L 1143.609124 189.396261 
L 1144.836843 189.510208 
L 1148.110758 189.424258 
L 1150.770815 190.066811 
L 1151.384674 189.9499 
L 1151.998533 189.810635 
L 1152.817012 189.995523 
L 1153.430871 189.989075 
L 1154.863209 189.62823 
L 1157.318646 189.718221 
L 1158.546364 189.558399 
L 1159.160224 189.535612 
L 1160.592562 188.981604 
L 1161.411041 189.202834 
L 1162.638759 189.759521 
L 1163.252618 189.717712 
L 1164.071097 189.519601 
L 1165.094196 189.553056 
L 1165.708055 189.46485 
L 1166.526534 189.45068 
L 1167.140393 189.403381 
L 1168.572731 189.601767 
L 1169.18659 189.584399 
L 1171.028168 189.823046 
L 1172.869745 189.573529 
L 1173.483604 189.449835 
L 1176.96214 189.711551 
L 1177.985238 189.609947 
L 1179.212957 189.583815 
L 1180.236055 189.549693 
L 1181.873013 189.252865 
L 1183.509971 189.428814 
L 1184.32845 189.382334 
L 1184.737689 189.491067 
L 1184.737689 189.491067 
" clip-path="url(#p218aeba06d)" style="fill: none; stroke: #000000; stroke-width: 2; stroke-linecap: square"/>
   </g>
   <g id="patch_3">
    <path d="M 3.00024 198.907885 
L 1184.99976 198.907885 
" style="fill: none; stroke: #000000; stroke-width: 2; stroke-linejoin: miter; stroke-linecap: square"/>
   </g>
  </g>
 </g>
 <defs>
  <clipPath id="p218aeba06d">
   <rect x="3.00024" y="3.00024" width="1181.99952" height="195.907645"/>
  </clipPath>
 </defs>
</svg>
