<?xml version="1.0" encoding="utf-8" standalone="no"?>
<!DOCTYPE svg PUBLIC "-//W3C//DTD SVG 1.1//EN"
  "http://www.w3.org/Graphics/SVG/1.1/DTD/svg11.dtd">
<svg xmlns:xlink="http://www.w3.org/1999/xlink" width="1188pt" height="252pt" viewBox="0 0 1188 252" xmlns="http://www.w3.org/2000/svg" version="1.1">
 <metadata>
  <rdf:RDF xmlns:dc="http://purl.org/dc/elements/1.1/" xmlns:cc="http://creativecommons.org/ns#" xmlns:rdf="http://www.w3.org/1999/02/22-rdf-syntax-ns#">
   <cc:Work>
    <dc:type rdf:resource="http://purl.org/dc/dcmitype/StillImage"/>
    <dc:date>2024-05-14T19:00:02.205922</dc:date>
    <dc:format>image/svg+xml</dc:format>
    <dc:creator>
     <cc:Agent>
      <dc:title>Matplotlib v3.8.0, https://matplotlib.org/</dc:title>
     </cc:Agent>
    </dc:creator>
   </cc:Work>
  </rdf:RDF>
 </metadata>
 <defs>
  <style type="text/css">*{stroke-linejoin: round; stroke-linecap: butt}</style>
 </defs>
 <g id="figure_1">
  <g id="patch_1">
   <path d="M 0 252 
L 1188 252 
L 1188 0 
L 0 0 
z
" style="fill: #ffffff"/>
  </g>
  <g id="axes_1">
   <g id="patch_2">
    <path d="M 3.00024 198.907885 
L 1184.99976 198.907885 
L 1184.99976 3.00024 
L 3.00024 3.00024 
z
" style="fill: #ffffff"/>
   </g>
   <g id="matplotlib.axis_1">
    <g id="xtick_1">
     <g id="line2d_1">
      <defs>
       <path id="m90c7adeca9" d="M 0 0 
L 0 8 
" style="stroke: #000000; stroke-width: 2"/>
      </defs>
      <g>
       <use xlink:href="#m90c7adeca9" x="1131.272509" y="198.907885" style="stroke: #000000; stroke-width: 2"/>
      </g>
     </g>
     <g id="text_1">
      <!-- 0 -->
      <g transform="translate(1126.267665 224.791947) scale(0.18 -0.18)">
       <defs>
        <path id="Arial-BoldMT-30" d="M 1756 4600 
Q 2422 4600 2797 4125 
Q 3244 3563 3244 2259 
Q 3244 959 2794 391 
Q 2422 -78 1756 -78 
Q 1088 -78 678 436 
Q 269 950 269 2269 
Q 269 3563 719 4131 
Q 1091 4600 1756 4600 
z
M 1756 3872 
Q 1597 3872 1472 3770 
Q 1347 3669 1278 3406 
Q 1188 3066 1188 2259 
Q 1188 1453 1269 1151 
Q 1350 850 1473 750 
Q 1597 650 1756 650 
Q 1916 650 2041 751 
Q 2166 853 2234 1116 
Q 2325 1453 2325 2259 
Q 2325 3066 2244 3367 
Q 2163 3669 2039 3770 
Q 1916 3872 1756 3872 
z
" transform="scale(0.015625)"/>
       </defs>
       <use xlink:href="#Arial-BoldMT-30"/>
      </g>
     </g>
    </g>
    <g id="xtick_2">
     <g id="line2d_2">
      <g>
       <use xlink:href="#m90c7adeca9" x="1023.818007" y="198.907885" style="stroke: #000000; stroke-width: 2"/>
      </g>
     </g>
     <g id="text_2">
      <!-- 1 -->
      <g transform="translate(1018.813164 224.791947) scale(0.18 -0.18)">
       <defs>
        <path id="Arial-BoldMT-31" d="M 2519 0 
L 1641 0 
L 1641 3309 
Q 1159 2859 506 2644 
L 506 3441 
Q 850 3553 1253 3867 
Q 1656 4181 1806 4600 
L 2519 4600 
L 2519 0 
z
" transform="scale(0.015625)"/>
       </defs>
       <use xlink:href="#Arial-BoldMT-31"/>
      </g>
     </g>
    </g>
    <g id="xtick_3">
     <g id="line2d_3">
      <g>
       <use xlink:href="#m90c7adeca9" x="916.363505" y="198.907885" style="stroke: #000000; stroke-width: 2"/>
      </g>
     </g>
     <g id="text_3">
      <!-- 2 -->
      <g transform="translate(911.358662 224.791947) scale(0.18 -0.18)">
       <defs>
        <path id="Arial-BoldMT-32" d="M 3238 816 
L 3238 0 
L 159 0 
Q 209 463 459 877 
Q 709 1291 1447 1975 
Q 2041 2528 2175 2725 
Q 2356 2997 2356 3263 
Q 2356 3556 2198 3714 
Q 2041 3872 1763 3872 
Q 1488 3872 1325 3706 
Q 1163 3541 1138 3156 
L 263 3244 
Q 341 3969 753 4284 
Q 1166 4600 1784 4600 
Q 2463 4600 2850 4234 
Q 3238 3869 3238 3325 
Q 3238 3016 3127 2736 
Q 3016 2456 2775 2150 
Q 2616 1947 2200 1565 
Q 1784 1184 1673 1059 
Q 1563 934 1494 816 
L 3238 816 
z
" transform="scale(0.015625)"/>
       </defs>
       <use xlink:href="#Arial-BoldMT-32"/>
      </g>
     </g>
    </g>
    <g id="xtick_4">
     <g id="line2d_4">
      <g>
       <use xlink:href="#m90c7adeca9" x="808.909004" y="198.907885" style="stroke: #000000; stroke-width: 2"/>
      </g>
     </g>
     <g id="text_4">
      <!-- 3 -->
      <g transform="translate(803.90416 224.791947) scale(0.18 -0.18)">
       <defs>
        <path id="Arial-BoldMT-33" d="M 241 1216 
L 1091 1319 
Q 1131 994 1309 822 
Q 1488 650 1741 650 
Q 2013 650 2198 856 
Q 2384 1063 2384 1413 
Q 2384 1744 2206 1937 
Q 2028 2131 1772 2131 
Q 1603 2131 1369 2066 
L 1466 2781 
Q 1822 2772 2009 2936 
Q 2197 3100 2197 3372 
Q 2197 3603 2059 3740 
Q 1922 3878 1694 3878 
Q 1469 3878 1309 3722 
Q 1150 3566 1116 3266 
L 306 3403 
Q 391 3819 561 4067 
Q 731 4316 1036 4458 
Q 1341 4600 1719 4600 
Q 2366 4600 2756 4188 
Q 3078 3850 3078 3425 
Q 3078 2822 2419 2463 
Q 2813 2378 3048 2084 
Q 3284 1791 3284 1375 
Q 3284 772 2843 347 
Q 2403 -78 1747 -78 
Q 1125 -78 715 280 
Q 306 638 241 1216 
z
" transform="scale(0.015625)"/>
       </defs>
       <use xlink:href="#Arial-BoldMT-33"/>
      </g>
     </g>
    </g>
    <g id="xtick_5">
     <g id="line2d_5">
      <g>
       <use xlink:href="#m90c7adeca9" x="701.454502" y="198.907885" style="stroke: #000000; stroke-width: 2"/>
      </g>
     </g>
     <g id="text_5">
      <!-- 4 -->
      <g transform="translate(696.449658 224.791947) scale(0.18 -0.18)">
       <defs>
        <path id="Arial-BoldMT-34" d="M 1994 0 
L 1994 922 
L 119 922 
L 119 1691 
L 2106 4600 
L 2844 4600 
L 2844 1694 
L 3413 1694 
L 3413 922 
L 2844 922 
L 2844 0 
L 1994 0 
z
M 1994 1694 
L 1994 3259 
L 941 1694 
L 1994 1694 
z
" transform="scale(0.015625)"/>
       </defs>
       <use xlink:href="#Arial-BoldMT-34"/>
      </g>
     </g>
    </g>
    <g id="xtick_6">
     <g id="line2d_6">
      <g>
       <use xlink:href="#m90c7adeca9" x="594" y="198.907885" style="stroke: #000000; stroke-width: 2"/>
      </g>
     </g>
     <g id="text_6">
      <!-- 5 -->
      <g transform="translate(588.995156 224.791947) scale(0.18 -0.18)">
       <defs>
        <path id="Arial-BoldMT-35" d="M 284 1178 
L 1159 1269 
Q 1197 972 1381 798 
Q 1566 625 1806 625 
Q 2081 625 2272 848 
Q 2463 1072 2463 1522 
Q 2463 1944 2273 2155 
Q 2084 2366 1781 2366 
Q 1403 2366 1103 2031 
L 391 2134 
L 841 4519 
L 3163 4519 
L 3163 3697 
L 1506 3697 
L 1369 2919 
Q 1663 3066 1969 3066 
Q 2553 3066 2959 2641 
Q 3366 2216 3366 1538 
Q 3366 972 3038 528 
Q 2591 -78 1797 -78 
Q 1163 -78 763 262 
Q 363 603 284 1178 
z
" transform="scale(0.015625)"/>
       </defs>
       <use xlink:href="#Arial-BoldMT-35"/>
      </g>
     </g>
    </g>
    <g id="xtick_7">
     <g id="line2d_7">
      <g>
       <use xlink:href="#m90c7adeca9" x="486.545498" y="198.907885" style="stroke: #000000; stroke-width: 2"/>
      </g>
     </g>
     <g id="text_7">
      <!-- 6 -->
      <g transform="translate(481.540654 224.791947) scale(0.18 -0.18)">
       <defs>
        <path id="Arial-BoldMT-36" d="M 3247 3459 
L 2397 3366 
Q 2366 3628 2234 3753 
Q 2103 3878 1894 3878 
Q 1616 3878 1423 3628 
Q 1231 3378 1181 2588 
Q 1509 2975 1997 2975 
Q 2547 2975 2939 2556 
Q 3331 2138 3331 1475 
Q 3331 772 2918 347 
Q 2506 -78 1859 -78 
Q 1166 -78 719 461 
Q 272 1000 272 2228 
Q 272 3488 737 4044 
Q 1203 4600 1947 4600 
Q 2469 4600 2811 4308 
Q 3153 4016 3247 3459 
z
M 1256 1544 
Q 1256 1116 1453 883 
Q 1650 650 1903 650 
Q 2147 650 2309 840 
Q 2472 1031 2472 1466 
Q 2472 1913 2297 2120 
Q 2122 2328 1859 2328 
Q 1606 2328 1431 2129 
Q 1256 1931 1256 1544 
z
" transform="scale(0.015625)"/>
       </defs>
       <use xlink:href="#Arial-BoldMT-36"/>
      </g>
     </g>
    </g>
    <g id="xtick_8">
     <g id="line2d_8">
      <g>
       <use xlink:href="#m90c7adeca9" x="379.090996" y="198.907885" style="stroke: #000000; stroke-width: 2"/>
      </g>
     </g>
     <g id="text_8">
      <!-- 7 -->
      <g transform="translate(374.086153 224.791947) scale(0.18 -0.18)">
       <defs>
        <path id="Arial-BoldMT-37" d="M 272 3703 
L 272 4519 
L 3275 4519 
L 3275 3881 
Q 2903 3516 2518 2831 
Q 2134 2147 1932 1376 
Q 1731 606 1734 0 
L 888 0 
Q 909 950 1279 1937 
Q 1650 2925 2269 3703 
L 272 3703 
z
" transform="scale(0.015625)"/>
       </defs>
       <use xlink:href="#Arial-BoldMT-37"/>
      </g>
     </g>
    </g>
    <g id="xtick_9">
     <g id="line2d_9">
      <g>
       <use xlink:href="#m90c7adeca9" x="271.636495" y="198.907885" style="stroke: #000000; stroke-width: 2"/>
      </g>
     </g>
     <g id="text_9">
      <!-- 8 -->
      <g transform="translate(266.631651 224.791947) scale(0.18 -0.18)">
       <defs>
        <path id="Arial-BoldMT-38" d="M 1025 2472 
Q 684 2616 529 2867 
Q 375 3119 375 3419 
Q 375 3931 733 4265 
Q 1091 4600 1750 4600 
Q 2403 4600 2764 4265 
Q 3125 3931 3125 3419 
Q 3125 3100 2959 2851 
Q 2794 2603 2494 2472 
Q 2875 2319 3073 2025 
Q 3272 1731 3272 1347 
Q 3272 713 2867 316 
Q 2463 -81 1791 -81 
Q 1166 -81 750 247 
Q 259 634 259 1309 
Q 259 1681 443 1992 
Q 628 2303 1025 2472 
z
M 1206 3356 
Q 1206 3094 1354 2947 
Q 1503 2800 1750 2800 
Q 2000 2800 2150 2948 
Q 2300 3097 2300 3359 
Q 2300 3606 2151 3754 
Q 2003 3903 1759 3903 
Q 1506 3903 1356 3753 
Q 1206 3603 1206 3356 
z
M 1125 1394 
Q 1125 1031 1311 828 
Q 1497 625 1775 625 
Q 2047 625 2225 820 
Q 2403 1016 2403 1384 
Q 2403 1706 2222 1901 
Q 2041 2097 1763 2097 
Q 1441 2097 1283 1875 
Q 1125 1653 1125 1394 
z
" transform="scale(0.015625)"/>
       </defs>
       <use xlink:href="#Arial-BoldMT-38"/>
      </g>
     </g>
    </g>
    <g id="xtick_10">
     <g id="line2d_10">
      <g>
       <use xlink:href="#m90c7adeca9" x="164.181993" y="198.907885" style="stroke: #000000; stroke-width: 2"/>
      </g>
     </g>
     <g id="text_10">
      <!-- 9 -->
      <g transform="translate(159.177149 224.791947) scale(0.18 -0.18)">
       <defs>
        <path id="Arial-BoldMT-39" d="M 291 1059 
L 1141 1153 
Q 1172 894 1303 769 
Q 1434 644 1650 644 
Q 1922 644 2112 894 
Q 2303 1144 2356 1931 
Q 2025 1547 1528 1547 
Q 988 1547 595 1964 
Q 203 2381 203 3050 
Q 203 3747 617 4173 
Q 1031 4600 1672 4600 
Q 2369 4600 2816 4061 
Q 3263 3522 3263 2288 
Q 3263 1031 2797 475 
Q 2331 -81 1584 -81 
Q 1047 -81 715 205 
Q 384 491 291 1059 
z
M 2278 2978 
Q 2278 3403 2083 3637 
Q 1888 3872 1631 3872 
Q 1388 3872 1227 3680 
Q 1066 3488 1066 3050 
Q 1066 2606 1241 2398 
Q 1416 2191 1678 2191 
Q 1931 2191 2104 2391 
Q 2278 2591 2278 2978 
z
" transform="scale(0.015625)"/>
       </defs>
       <use xlink:href="#Arial-BoldMT-39"/>
      </g>
     </g>
    </g>
    <g id="xtick_11">
     <g id="line2d_11">
      <g>
       <use xlink:href="#m90c7adeca9" x="56.727491" y="198.907885" style="stroke: #000000; stroke-width: 2"/>
      </g>
     </g>
     <g id="text_11">
      <!-- 10 -->
      <g transform="translate(46.717803 224.791947) scale(0.18 -0.18)">
       <use xlink:href="#Arial-BoldMT-31"/>
       <use xlink:href="#Arial-BoldMT-30" x="55.615234"/>
      </g>
     </g>
    </g>
    <g id="text_12">
     <!-- Chemical Shift / ppm -->
     <g transform="translate(504.992813 245.447573) scale(0.18 -0.18)">
      <defs>
       <path id="Arial-BoldMT-43" d="M 3397 1684 
L 4294 1400 
Q 4088 650 3608 286 
Q 3128 -78 2391 -78 
Q 1478 -78 890 545 
Q 303 1169 303 2250 
Q 303 3394 893 4026 
Q 1484 4659 2447 4659 
Q 3288 4659 3813 4163 
Q 4125 3869 4281 3319 
L 3366 3100 
Q 3284 3456 3026 3662 
Q 2769 3869 2400 3869 
Q 1891 3869 1573 3503 
Q 1256 3138 1256 2319 
Q 1256 1450 1568 1081 
Q 1881 713 2381 713 
Q 2750 713 3015 947 
Q 3281 1181 3397 1684 
z
" transform="scale(0.015625)"/>
       <path id="Arial-BoldMT-68" d="M 1334 4581 
L 1334 2897 
Q 1759 3394 2350 3394 
Q 2653 3394 2897 3281 
Q 3141 3169 3264 2994 
Q 3388 2819 3433 2606 
Q 3478 2394 3478 1947 
L 3478 0 
L 2600 0 
L 2600 1753 
Q 2600 2275 2550 2415 
Q 2500 2556 2373 2639 
Q 2247 2722 2056 2722 
Q 1838 2722 1666 2615 
Q 1494 2509 1414 2295 
Q 1334 2081 1334 1663 
L 1334 0 
L 456 0 
L 456 4581 
L 1334 4581 
z
" transform="scale(0.015625)"/>
       <path id="Arial-BoldMT-65" d="M 2381 1056 
L 3256 909 
Q 3088 428 2723 176 
Q 2359 -75 1813 -75 
Q 947 -75 531 491 
Q 203 944 203 1634 
Q 203 2459 634 2926 
Q 1066 3394 1725 3394 
Q 2466 3394 2894 2905 
Q 3322 2416 3303 1406 
L 1103 1406 
Q 1113 1016 1316 798 
Q 1519 581 1822 581 
Q 2028 581 2168 693 
Q 2309 806 2381 1056 
z
M 2431 1944 
Q 2422 2325 2234 2523 
Q 2047 2722 1778 2722 
Q 1491 2722 1303 2513 
Q 1116 2303 1119 1944 
L 2431 1944 
z
" transform="scale(0.015625)"/>
       <path id="Arial-BoldMT-6d" d="M 394 3319 
L 1203 3319 
L 1203 2866 
Q 1638 3394 2238 3394 
Q 2556 3394 2790 3262 
Q 3025 3131 3175 2866 
Q 3394 3131 3647 3262 
Q 3900 3394 4188 3394 
Q 4553 3394 4806 3245 
Q 5059 3097 5184 2809 
Q 5275 2597 5275 2122 
L 5275 0 
L 4397 0 
L 4397 1897 
Q 4397 2391 4306 2534 
Q 4184 2722 3931 2722 
Q 3747 2722 3584 2609 
Q 3422 2497 3350 2280 
Q 3278 2063 3278 1594 
L 3278 0 
L 2400 0 
L 2400 1819 
Q 2400 2303 2353 2443 
Q 2306 2584 2207 2653 
Q 2109 2722 1941 2722 
Q 1738 2722 1575 2612 
Q 1413 2503 1342 2297 
Q 1272 2091 1272 1613 
L 1272 0 
L 394 0 
L 394 3319 
z
" transform="scale(0.015625)"/>
       <path id="Arial-BoldMT-69" d="M 459 3769 
L 459 4581 
L 1338 4581 
L 1338 3769 
L 459 3769 
z
M 459 0 
L 459 3319 
L 1338 3319 
L 1338 0 
L 459 0 
z
" transform="scale(0.015625)"/>
       <path id="Arial-BoldMT-63" d="M 3353 2338 
L 2488 2181 
Q 2444 2441 2289 2572 
Q 2134 2703 1888 2703 
Q 1559 2703 1364 2476 
Q 1169 2250 1169 1719 
Q 1169 1128 1367 884 
Q 1566 641 1900 641 
Q 2150 641 2309 783 
Q 2469 925 2534 1272 
L 3397 1125 
Q 3263 531 2881 228 
Q 2500 -75 1859 -75 
Q 1131 -75 698 384 
Q 266 844 266 1656 
Q 266 2478 700 2936 
Q 1134 3394 1875 3394 
Q 2481 3394 2839 3133 
Q 3197 2872 3353 2338 
z
" transform="scale(0.015625)"/>
       <path id="Arial-BoldMT-61" d="M 1116 2306 
L 319 2450 
Q 453 2931 781 3162 
Q 1109 3394 1756 3394 
Q 2344 3394 2631 3255 
Q 2919 3116 3036 2902 
Q 3153 2688 3153 2116 
L 3144 1091 
Q 3144 653 3186 445 
Q 3228 238 3344 0 
L 2475 0 
Q 2441 88 2391 259 
Q 2369 338 2359 363 
Q 2134 144 1878 34 
Q 1622 -75 1331 -75 
Q 819 -75 523 203 
Q 228 481 228 906 
Q 228 1188 362 1408 
Q 497 1628 739 1745 
Q 981 1863 1438 1950 
Q 2053 2066 2291 2166 
L 2291 2253 
Q 2291 2506 2166 2614 
Q 2041 2722 1694 2722 
Q 1459 2722 1328 2630 
Q 1197 2538 1116 2306 
z
M 2291 1594 
Q 2122 1538 1756 1459 
Q 1391 1381 1278 1306 
Q 1106 1184 1106 997 
Q 1106 813 1243 678 
Q 1381 544 1594 544 
Q 1831 544 2047 700 
Q 2206 819 2256 991 
Q 2291 1103 2291 1419 
L 2291 1594 
z
" transform="scale(0.015625)"/>
       <path id="Arial-BoldMT-6c" d="M 459 0 
L 459 4581 
L 1338 4581 
L 1338 0 
L 459 0 
z
" transform="scale(0.015625)"/>
       <path id="Arial-BoldMT-20" transform="scale(0.015625)"/>
       <path id="Arial-BoldMT-53" d="M 231 1491 
L 1131 1578 
Q 1213 1125 1461 912 
Q 1709 700 2131 700 
Q 2578 700 2804 889 
Q 3031 1078 3031 1331 
Q 3031 1494 2936 1608 
Q 2841 1722 2603 1806 
Q 2441 1863 1863 2006 
Q 1119 2191 819 2459 
Q 397 2838 397 3381 
Q 397 3731 595 4036 
Q 794 4341 1167 4500 
Q 1541 4659 2069 4659 
Q 2931 4659 3367 4281 
Q 3803 3903 3825 3272 
L 2900 3231 
Q 2841 3584 2645 3739 
Q 2450 3894 2059 3894 
Q 1656 3894 1428 3728 
Q 1281 3622 1281 3444 
Q 1281 3281 1419 3166 
Q 1594 3019 2269 2859 
Q 2944 2700 3267 2529 
Q 3591 2359 3773 2064 
Q 3956 1769 3956 1334 
Q 3956 941 3737 597 
Q 3519 253 3119 86 
Q 2719 -81 2122 -81 
Q 1253 -81 787 320 
Q 322 722 231 1491 
z
" transform="scale(0.015625)"/>
       <path id="Arial-BoldMT-66" d="M 75 3319 
L 563 3319 
L 563 3569 
Q 563 3988 652 4194 
Q 741 4400 980 4529 
Q 1219 4659 1584 4659 
Q 1959 4659 2319 4547 
L 2200 3934 
Q 1991 3984 1797 3984 
Q 1606 3984 1523 3895 
Q 1441 3806 1441 3553 
L 1441 3319 
L 2097 3319 
L 2097 2628 
L 1441 2628 
L 1441 0 
L 563 0 
L 563 2628 
L 75 2628 
L 75 3319 
z
" transform="scale(0.015625)"/>
       <path id="Arial-BoldMT-74" d="M 1981 3319 
L 1981 2619 
L 1381 2619 
L 1381 1281 
Q 1381 875 1398 808 
Q 1416 741 1477 697 
Q 1538 653 1625 653 
Q 1747 653 1978 738 
L 2053 56 
Q 1747 -75 1359 -75 
Q 1122 -75 931 4 
Q 741 84 652 211 
Q 563 338 528 553 
Q 500 706 500 1172 
L 500 2619 
L 97 2619 
L 97 3319 
L 500 3319 
L 500 3978 
L 1381 4491 
L 1381 3319 
L 1981 3319 
z
" transform="scale(0.015625)"/>
       <path id="Arial-BoldMT-2f" d="M -9 -78 
L 1125 4659 
L 1784 4659 
L 638 -78 
L -9 -78 
z
" transform="scale(0.015625)"/>
       <path id="Arial-BoldMT-70" d="M 434 3319 
L 1253 3319 
L 1253 2831 
Q 1413 3081 1684 3237 
Q 1956 3394 2288 3394 
Q 2866 3394 3269 2941 
Q 3672 2488 3672 1678 
Q 3672 847 3265 386 
Q 2859 -75 2281 -75 
Q 2006 -75 1782 34 
Q 1559 144 1313 409 
L 1313 -1263 
L 434 -1263 
L 434 3319 
z
M 1303 1716 
Q 1303 1156 1525 889 
Q 1747 622 2066 622 
Q 2372 622 2575 867 
Q 2778 1113 2778 1672 
Q 2778 2194 2568 2447 
Q 2359 2700 2050 2700 
Q 1728 2700 1515 2451 
Q 1303 2203 1303 1716 
z
" transform="scale(0.015625)"/>
      </defs>
      <use xlink:href="#Arial-BoldMT-43"/>
      <use xlink:href="#Arial-BoldMT-68" x="72.216797"/>
      <use xlink:href="#Arial-BoldMT-65" x="133.300781"/>
      <use xlink:href="#Arial-BoldMT-6d" x="188.916016"/>
      <use xlink:href="#Arial-BoldMT-69" x="277.832031"/>
      <use xlink:href="#Arial-BoldMT-63" x="305.615234"/>
      <use xlink:href="#Arial-BoldMT-61" x="361.230469"/>
      <use xlink:href="#Arial-BoldMT-6c" x="416.845703"/>
      <use xlink:href="#Arial-BoldMT-20" x="444.628906"/>
      <use xlink:href="#Arial-BoldMT-53" x="472.412109"/>
      <use xlink:href="#Arial-BoldMT-68" x="539.111328"/>
      <use xlink:href="#Arial-BoldMT-69" x="600.195312"/>
      <use xlink:href="#Arial-BoldMT-66" x="627.978516"/>
      <use xlink:href="#Arial-BoldMT-74" x="661.279297"/>
      <use xlink:href="#Arial-BoldMT-20" x="694.580078"/>
      <use xlink:href="#Arial-BoldMT-2f" x="722.363281"/>
      <use xlink:href="#Arial-BoldMT-20" x="750.146484"/>
      <use xlink:href="#Arial-BoldMT-70" x="777.929688"/>
      <use xlink:href="#Arial-BoldMT-70" x="839.013672"/>
      <use xlink:href="#Arial-BoldMT-6d" x="900.097656"/>
     </g>
    </g>
   </g>
   <g id="matplotlib.axis_2"/>
   <g id="line2d_12">
    <path d="M 3.047671 189.604662 
L 4.480009 189.860145 
L 6.935446 189.816279 
L 8.981643 189.467964 
L 10.004742 189.123631 
L 10.618601 189.243785 
L 11.6417 189.543988 
L 13.074038 189.617374 
L 14.097137 189.833763 
L 14.710996 189.945563 
L 15.529475 190.174016 
L 16.552573 190.100805 
L 17.780292 189.518617 
L 19.00801 189.184863 
L 19.826489 189.370635 
L 20.849588 189.468655 
L 24.328123 189.822937 
L 25.146602 189.862238 
L 25.965081 190.227724 
L 26.57894 190.491624 
L 26.988179 190.436493 
L 28.215898 189.769277 
L 30.466715 189.689532 
L 31.080574 189.845004 
L 32.512912 189.796643 
L 34.559109 189.218106 
L 35.377588 189.21188 
L 36.196067 189.289414 
L 38.242264 189.695894 
L 39.674602 189.312388 
L 40.288462 189.21325 
L 42.539279 189.498325 
L 43.971617 189.150452 
L 44.790096 189.200263 
L 46.631673 189.681241 
L 48.064011 190.133351 
L 49.08711 190.259031 
L 50.110209 190.094337 
L 51.337927 189.626188 
L 51.951786 189.629105 
L 52.974885 189.641191 
L 54.816462 189.442165 
L 55.430321 189.461504 
L 56.2488 189.598543 
L 58.499617 189.570153 
L 59.318096 189.696755 
L 60.136575 189.447939 
L 60.750434 189.384816 
L 61.364294 189.541551 
L 62.182772 189.8051 
L 63.001251 189.879022 
L 64.433589 189.662192 
L 65.456688 189.694214 
L 66.684406 189.890646 
L 67.502885 190.01609 
L 68.935223 189.823675 
L 69.753702 189.702125 
L 70.981421 189.193239 
L 71.39066 189.212863 
L 72.822998 189.564186 
L 74.664576 189.441486 
L 75.687674 189.453793 
L 77.938491 190.107979 
L 79.575449 189.974404 
L 80.803168 189.977359 
L 81.826266 189.980159 
L 84.690942 189.743944 
L 85.304802 189.575044 
L 86.12328 189.349553 
L 86.73714 189.507786 
L 87.350999 189.723407 
L 87.760238 189.671003 
L 88.578717 189.45473 
L 89.806436 189.377168 
L 91.238774 189.080361 
L 92.671112 188.90194 
L 93.489591 189.203559 
L 94.10345 189.364684 
L 95.740408 189.468727 
L 97.786605 189.308562 
L 98.809704 189.269279 
L 99.832802 189.174713 
L 100.446661 189.233564 
L 101.878999 189.593773 
L 102.492859 189.681609 
L 103.106718 189.516502 
L 103.720577 189.427295 
L 105.562154 189.643285 
L 106.994493 189.739016 
L 108.017591 189.805211 
L 108.63145 189.671291 
L 110.268408 189.118587 
L 110.677648 189.210119 
L 111.291507 189.418049 
L 113.542324 189.41579 
L 115.383901 189.241467 
L 116.20238 189.260529 
L 116.816239 189.138097 
L 117.634718 188.840886 
L 118.453197 188.925198 
L 119.476296 189.117863 
L 120.499395 189.077765 
L 121.522493 189.379529 
L 122.340972 189.470707 
L 122.954831 189.609211 
L 125.410268 189.509498 
L 126.433367 189.534355 
L 127.661085 189.874255 
L 128.684184 189.769623 
L 129.707282 189.460442 
L 130.730381 189.692999 
L 131.75348 189.967097 
L 132.571958 189.885958 
L 133.390437 189.755632 
L 134.618156 189.874765 
L 136.255114 189.882083 
L 139.11979 190.030657 
L 139.733649 190.008539 
L 140.552128 190.096111 
L 141.370607 189.899021 
L 142.393705 189.715206 
L 144.030663 189.493014 
L 144.644522 189.718927 
L 145.667621 190.051888 
L 146.4861 190.036407 
L 147.509198 189.979122 
L 148.532297 190.023818 
L 149.555396 189.924584 
L 150.373875 189.852831 
L 151.601593 189.541347 
L 152.420072 189.603133 
L 153.64779 189.758273 
L 154.466269 189.699054 
L 155.898607 189.32125 
L 158.763283 189.41402 
L 159.581762 189.562712 
L 162.855678 189.453118 
L 163.878777 189.57188 
L 165.720354 189.571036 
L 167.152692 189.877309 
L 169.608129 189.385654 
L 170.426608 189.34658 
L 172.472805 189.227525 
L 173.495904 189.417939 
L 174.109763 189.574222 
L 175.746721 189.52878 
L 176.5652 189.542821 
L 178.202158 189.571239 
L 179.020636 189.845614 
L 182.499172 189.736009 
L 183.52227 189.64026 
L 184.13613 189.658021 
L 185.977707 189.941304 
L 186.796186 189.889527 
L 187.614665 189.891771 
L 188.433144 189.803712 
L 189.251623 189.693571 
L 190.274721 189.953382 
L 191.0932 190.030955 
L 192.116299 189.980928 
L 192.934778 189.918443 
L 193.753257 189.731552 
L 194.571736 189.510585 
L 195.390215 189.551416 
L 196.413313 189.755952 
L 198.86875 189.397841 
L 199.687229 189.632905 
L 200.301088 189.871431 
L 200.710327 189.793559 
L 202.347285 189.202976 
L 203.370384 189.157756 
L 203.984243 189.424266 
L 204.598102 189.612926 
L 205.825821 189.735643 
L 206.6443 189.748205 
L 207.462778 189.576824 
L 208.895117 189.105107 
L 209.508976 189.065295 
L 210.736694 189.219376 
L 211.964412 188.96902 
L 212.782891 189.136853 
L 213.396751 189.19778 
L 214.419849 189.179454 
L 215.442948 189.405023 
L 217.284525 189.19847 
L 218.716863 188.975721 
L 222.604638 189.071373 
L 223.423117 189.359579 
L 224.036976 189.323993 
L 225.469314 189.039615 
L 226.901652 189.183477 
L 228.53861 189.151647 
L 229.152469 189.337208 
L 230.175568 189.766214 
L 230.789427 189.815614 
L 231.607906 189.56522 
L 233.244864 188.87436 
L 234.472582 188.928741 
L 235.086442 189.059474 
L 235.90492 188.946825 
L 236.928019 188.820397 
L 237.746498 188.89894 
L 239.588076 189.325286 
L 240.406554 189.58217 
L 241.225033 189.491922 
L 242.248132 189.177935 
L 243.066611 189.406327 
L 243.68047 189.428541 
L 244.498949 189.059291 
L 245.112808 188.774268 
L 245.726667 188.82826 
L 246.340527 188.856551 
L 250.432921 188.471555 
L 251.865259 188.672681 
L 252.683738 188.679037 
L 254.729935 188.154709 
L 257.185372 188.006908 
L 257.799231 187.84229 
L 258.61771 187.937164 
L 259.231569 187.935074 
L 261.277767 187.492767 
L 262.300865 187.070986 
L 263.323964 186.955641 
L 264.142443 186.602518 
L 265.370161 186.431639 
L 268.030218 185.707293 
L 269.053316 185.12161 
L 269.871795 184.481878 
L 271.508753 182.827634 
L 273.35033 179.554528 
L 274.987288 176.415358 
L 275.601147 174.684874 
L 276.215007 172.400032 
L 276.828866 169.278268 
L 277.442725 164.819391 
L 278.056584 158.68895 
L 278.670443 150.170116 
L 279.284303 137.96508 
L 279.898162 120.018518 
L 280.512021 95.333122 
L 282.148979 21.230925 
L 282.558218 10.181786 
L 282.967458 4.159441 
L 283.172077 3.00024 
L 283.376697 3.054857 
L 283.581317 4.331247 
L 283.990556 10.692395 
L 284.399796 22.389423 
L 285.013655 49.390134 
L 286.650613 133.009091 
L 287.264472 152.59782 
L 287.878331 164.971707 
L 288.49219 172.598721 
L 289.106049 177.308633 
L 289.719909 180.364803 
L 290.333768 182.325974 
L 290.947627 183.692991 
L 291.561486 184.609605 
L 292.789205 186.033466 
L 293.403064 186.534956 
L 294.016923 186.780776 
L 295.449261 187.05937 
L 296.26774 187.04462 
L 297.290838 186.872288 
L 297.700078 186.762314 
L 298.313937 186.165309 
L 298.927796 185.565872 
L 299.337036 185.409405 
L 299.746275 185.477462 
L 301.178613 185.918472 
L 302.406332 186.224266 
L 303.63405 186.476513 
L 304.657149 186.458028 
L 306.294106 186.663608 
L 307.931064 186.242524 
L 309.363402 186.315941 
L 311.20498 186.386972 
L 311.818839 186.153936 
L 312.432698 185.642318 
L 313.046557 184.737917 
L 313.660417 183.493684 
L 315.092755 180.01397 
L 315.706614 179.262389 
L 316.115853 179.047153 
L 316.934332 178.994309 
L 317.752811 179.114235 
L 319.799008 179.940868 
L 320.208248 179.80054 
L 320.822107 179.320715 
L 321.435966 178.534947 
L 322.254445 177.123047 
L 322.868304 175.743793 
L 323.482164 173.732474 
L 324.096023 170.706845 
L 324.709882 166.451792 
L 325.323741 160.38906 
L 325.9376 152.128676 
L 326.960699 134.601578 
L 328.597657 106.154871 
L 329.211516 99.152693 
L 329.620755 96.577474 
L 330.029995 95.476881 
L 330.234615 95.584096 
L 330.439234 96.123466 
L 330.848474 98.212721 
L 331.257713 101.523612 
L 332.485432 114.839499 
L 333.30391 122.785337 
L 333.91777 126.824805 
L 334.327009 128.50357 
L 334.736249 129.360743 
L 335.145488 129.616288 
L 335.963967 129.61431 
L 336.373206 129.922615 
L 336.782446 130.697349 
L 337.191685 132.018989 
L 337.600925 134.025112 
L 338.419404 139.737476 
L 341.897939 166.920109 
L 342.716418 170.950075 
L 343.739516 174.658472 
L 345.581094 180.300978 
L 346.194953 181.657925 
L 346.808812 182.540909 
L 348.036531 183.739748 
L 350.082728 185.437681 
L 351.310446 186.608889 
L 353.152024 187.418503 
L 354.175123 187.699687 
L 356.835179 187.961245 
L 359.495235 188.808912 
L 360.313714 188.752197 
L 360.927574 188.713919 
L 361.746052 188.800266 
L 362.564531 188.643565 
L 363.996869 188.81365 
L 364.610729 188.781862 
L 366.247686 189.0571 
L 367.884644 189.546686 
L 368.498503 189.717019 
L 369.316982 189.614304 
L 371.977039 189.35752 
L 374.227856 189.028942 
L 375.046335 189.150805 
L 376.683292 189.688978 
L 377.911011 189.798818 
L 378.72949 189.806942 
L 379.752588 189.591011 
L 381.389546 189.710848 
L 383.640363 189.074349 
L 385.072701 189.144345 
L 386.30042 189.423491 
L 386.914279 189.588269 
L 389.165096 189.650107 
L 390.802054 189.522774 
L 392.234392 189.696397 
L 394.689828 189.671867 
L 395.303688 189.683544 
L 396.531406 189.482302 
L 397.759124 189.553322 
L 400.214561 189.589808 
L 401.442279 189.555981 
L 402.465378 189.741402 
L 406.353153 189.796576 
L 407.785491 190.095782 
L 408.60397 190.038109 
L 410.650167 189.750769 
L 412.900984 189.745915 
L 413.514843 189.646918 
L 415.356421 189.9492 
L 416.379519 190.222878 
L 420.676534 189.555922 
L 421.495013 189.344171 
L 422.313492 189.444998 
L 423.33659 189.580257 
L 423.950449 189.463745 
L 425.178168 189.090921 
L 425.996647 189.155414 
L 427.428985 189.56434 
L 429.270562 190.092633 
L 429.884421 190.199634 
L 430.498281 190.063927 
L 431.725999 189.564786 
L 433.158337 189.521999 
L 434.590675 189.143168 
L 435.409154 189.132916 
L 438.47845 189.728348 
L 439.706168 189.620933 
L 440.524647 189.425843 
L 442.161605 189.346492 
L 444.412422 189.103701 
L 445.230901 189.423207 
L 445.84476 189.611233 
L 448.914056 189.796586 
L 449.732535 189.889057 
L 451.164873 189.965082 
L 451.778732 189.879015 
L 453.41569 189.344848 
L 454.848028 189.277842 
L 456.280366 189.474682 
L 456.894225 189.608117 
L 457.508085 189.810844 
L 458.121944 189.727505 
L 459.758902 189.032529 
L 460.372761 189.162977 
L 461.395859 189.594896 
L 462.214338 189.671679 
L 462.828197 189.780452 
L 464.465155 189.778461 
L 465.079014 189.81458 
L 466.102113 189.673509 
L 467.943691 189.706156 
L 468.966789 189.445278 
L 469.785268 189.575944 
L 471.422226 190.108926 
L 472.854564 190.102901 
L 474.082282 189.722481 
L 475.310001 189.735719 
L 478.174677 189.176293 
L 478.993156 189.252926 
L 480.220874 189.370595 
L 482.880931 189.346952 
L 483.49479 189.207277 
L 484.517889 189.354108 
L 486.973325 189.61828 
L 488.814903 189.272481 
L 490.247241 189.184802 
L 492.907297 189.22294 
L 494.339635 189.071868 
L 495.362734 189.09463 
L 496.385833 188.856741 
L 496.795072 188.824422 
L 499.045889 189.336888 
L 501.296706 189.168733 
L 502.115185 189.256604 
L 503.138284 189.147232 
L 504.570622 188.705867 
L 505.184481 188.612213 
L 506.821439 188.909344 
L 507.639918 188.889204 
L 508.253777 188.88693 
L 509.686115 188.593303 
L 511.118453 188.752829 
L 512.346171 188.494792 
L 513.57389 188.434926 
L 514.801608 188.262459 
L 515.415467 188.013563 
L 516.438566 187.550128 
L 517.052425 187.590721 
L 518.075524 187.772056 
L 519.712482 187.541025 
L 520.326341 187.411357 
L 521.554059 186.835867 
L 524.214116 186.142452 
L 525.237214 185.870498 
L 526.464933 185.484856 
L 528.715749 184.735508 
L 529.329609 184.135558 
L 529.943468 183.560805 
L 532.194285 182.093622 
L 533.012764 181.173511 
L 534.240482 179.600874 
L 535.263581 178.10738 
L 536.491299 175.852025 
L 537.309778 174.704245 
L 539.560595 169.942133 
L 540.583694 167.232908 
L 542.016032 162.529021 
L 543.24375 158.037124 
L 544.266849 153.362995 
L 546.722285 140.367573 
L 552.860877 103.885445 
L 553.474736 100.959228 
L 553.883976 99.930415 
L 554.088596 99.823601 
L 554.293215 100.011997 
L 554.497835 100.519142 
L 554.907075 102.566825 
L 555.520934 107.93502 
L 556.339413 117.834453 
L 557.771751 138.588532 
L 558.794849 163.695482 
L 558.999469 162.387125 
L 559.817948 151.120897 
L 560.431807 146.78828 
L 561.454906 141.176293 
L 562.273385 137.82749 
L 562.887244 136.13107 
L 563.296483 135.759693 
L 563.501103 135.810612 
L 563.910343 136.240217 
L 564.319582 137.03934 
L 564.728821 138.380074 
L 565.5473 142.387077 
L 569.025836 158.95843 
L 570.253554 163.431619 
L 573.11823 172.025075 
L 573.936709 173.777999 
L 575.778287 177.105778 
L 577.006005 178.632042 
L 578.642963 180.235497 
L 579.666061 181.406456 
L 580.48454 182.345194 
L 581.712259 183.752273 
L 582.530738 184.446421 
L 583.553836 184.857518 
L 584.986174 185.182055 
L 586.009273 185.620922 
L 587.236991 186.299178 
L 587.850851 186.621774 
L 588.46471 186.703833 
L 590.101668 186.820923 
L 592.557104 187.638168 
L 593.375583 188.012525 
L 593.989442 188.022324 
L 594.807921 187.908825 
L 596.854119 188.15403 
L 598.695696 188.56414 
L 599.514175 188.523043 
L 601.969612 188.692476 
L 602.788091 188.571722 
L 603.60657 188.740462 
L 605.448147 189.170539 
L 606.062006 189.189986 
L 606.675865 189.161365 
L 607.698964 189.306487 
L 609.335922 189.20902 
L 610.154401 189.022456 
L 610.97288 189.032666 
L 611.791359 188.780537 
L 612.405218 189.013654 
L 612.814457 189.126046 
L 613.428316 189.007499 
L 614.042176 188.795509 
L 614.451415 188.841053 
L 615.679133 189.207513 
L 616.497612 189.222103 
L 617.316091 189.403803 
L 618.33919 189.421286 
L 619.157669 189.531544 
L 621.203866 189.294908 
L 622.022345 189.077497 
L 622.840824 189.387057 
L 623.659303 189.568223 
L 624.477782 189.53419 
L 625.50088 189.425083 
L 629.388655 189.468536 
L 630.411754 189.215913 
L 631.230233 189.322165 
L 632.457951 189.790216 
L 633.48105 189.989887 
L 634.504148 189.892688 
L 637.982684 189.749801 
L 639.005782 190.016323 
L 639.619641 189.838828 
L 640.43812 189.616247 
L 642.279698 189.414541 
L 643.507416 189.970118 
L 644.121275 189.974729 
L 645.962853 189.675692 
L 650.259867 189.687985 
L 651.282966 189.938063 
L 652.715304 189.834717 
L 655.98922 189.940412 
L 660.081614 189.526761 
L 661.104713 189.792243 
L 661.923192 189.913892 
L 663.15091 189.906102 
L 664.174009 189.705497 
L 665.197107 189.447783 
L 665.810966 189.543147 
L 666.629445 189.764403 
L 667.243305 189.665479 
L 668.061783 189.464929 
L 670.92646 189.234408 
L 671.540319 189.120327 
L 673.586516 189.520399 
L 675.428094 189.407713 
L 677.474291 189.442803 
L 678.49739 189.357641 
L 679.520488 189.123538 
L 680.338967 189.228961 
L 681.566685 189.605336 
L 682.385164 189.65199 
L 683.408263 189.750197 
L 684.431362 189.506444 
L 685.24984 189.285819 
L 687.296038 189.312492 
L 687.909897 189.417005 
L 690.774573 189.341944 
L 692.002291 189.646014 
L 693.02539 189.553509 
L 693.843869 189.428081 
L 694.662348 189.463785 
L 695.685447 189.623368 
L 698.140883 189.619769 
L 699.573221 189.467807 
L 701.824038 189.232648 
L 702.642517 189.285378 
L 703.460996 189.359184 
L 704.688715 189.354849 
L 705.507193 189.511316 
L 706.325672 189.430602 
L 707.348771 189.170453 
L 708.16725 189.36764 
L 708.781109 189.529481 
L 709.394968 189.390101 
L 710.213447 189.225928 
L 710.827306 189.340252 
L 711.645785 189.705508 
L 712.464264 189.684686 
L 714.715081 189.503495 
L 715.53356 189.140044 
L 716.352039 188.72219 
L 716.965898 188.78425 
L 717.579757 188.850077 
L 720.035194 188.600845 
L 720.649053 188.360414 
L 721.262912 187.960747 
L 721.876772 187.219293 
L 723.10449 185.589447 
L 723.513729 184.55033 
L 724.127589 182.161256 
L 724.536828 180.768854 
L 724.741448 180.625356 
L 724.946067 180.966865 
L 725.559927 183.444645 
L 726.173786 185.665049 
L 726.787645 187.029069 
L 727.401504 187.751199 
L 728.015363 188.119155 
L 729.856941 188.782586 
L 731.493899 188.762472 
L 732.312378 188.526287 
L 734.972434 188.347203 
L 735.790913 188.095399 
L 736.814012 187.593432 
L 737.427871 187.35122 
L 737.83711 187.026279 
L 738.24635 186.47544 
L 738.860209 185.20254 
L 739.883308 182.793077 
L 740.087927 182.9274 
L 740.701786 184.422437 
L 741.315646 185.600731 
L 741.724885 186.013956 
L 742.338744 186.187745 
L 744.794181 186.590285 
L 745.40804 186.38646 
L 746.226519 185.731764 
L 747.863477 184.318283 
L 748.477336 183.186711 
L 749.295815 181.084135 
L 749.909674 178.677341 
L 750.523533 175.163367 
L 751.137393 169.938384 
L 751.751252 162.211201 
L 752.569731 151.278608 
L 752.77435 150.240938 
L 752.97897 150.337797 
L 753.18359 151.516177 
L 753.592829 156.175304 
L 754.411308 166.463042 
L 754.820548 169.682472 
L 755.229787 171.51572 
L 755.639027 172.248903 
L 755.843646 172.285915 
L 756.048266 172.138071 
L 756.457505 171.362627 
L 756.866745 170.005142 
L 757.275984 168.004494 
L 757.889844 163.426325 
L 758.503703 156.248329 
L 759.117562 145.04807 
L 759.731421 128.167157 
L 761.163759 79.818437 
L 761.368379 77.849581 
L 761.572999 78.754399 
L 761.777618 82.566172 
L 762.186858 97.209704 
L 763.005337 131.716501 
L 763.619196 147.843189 
L 764.028435 154.081233 
L 764.437675 157.864087 
L 764.846914 159.919834 
L 765.051534 160.433062 
L 765.256154 160.644674 
L 765.460773 160.567611 
L 765.665393 160.196829 
L 766.074633 158.533686 
L 766.483872 155.610699 
L 766.893111 151.194325 
L 767.302351 144.799877 
L 767.71159 135.785079 
L 768.32545 115.989099 
L 769.553168 70.881981 
L 769.757788 68.919553 
L 769.962407 70.302219 
L 770.167027 75.039019 
L 770.576267 91.721783 
L 771.599365 137.316474 
L 772.213224 153.63723 
L 772.827084 163.003821 
L 773.440943 168.126466 
L 774.054802 170.935521 
L 774.464041 171.861543 
L 774.668661 172.073873 
L 774.873281 172.107057 
L 775.077901 171.948834 
L 775.48714 171.023747 
L 775.896379 169.10153 
L 776.305619 165.904707 
L 776.714858 161.201548 
L 777.328718 151.25235 
L 777.942577 142.156068 
L 778.147196 141.308581 
L 778.351816 142.104471 
L 778.761056 148.090273 
L 779.784154 168.673912 
L 780.398013 175.945263 
L 781.011873 180.108579 
L 781.625732 182.769574 
L 782.239591 184.677085 
L 782.85345 185.907598 
L 783.671929 187.012792 
L 784.285788 187.524994 
L 785.104267 187.89287 
L 785.718126 187.894759 
L 786.331986 187.835991 
L 787.355084 188.133771 
L 788.173563 188.412241 
L 788.787422 188.544486 
L 790.21976 189.142935 
L 791.652098 189.460041 
L 792.265958 189.573181 
L 794.721394 189.38749 
L 795.744493 189.280735 
L 797.176831 189.391517 
L 797.99531 189.445137 
L 799.632268 189.119527 
L 800.246127 189.31508 
L 801.064606 189.71777 
L 802.087704 189.80588 
L 804.133902 189.563961 
L 805.157 189.577471 
L 806.384719 189.767466 
L 807.612437 190.034143 
L 809.454015 189.818626 
L 810.477113 189.850853 
L 811.090972 189.796305 
L 811.909451 189.548527 
L 812.93255 189.668703 
L 814.160268 189.793555 
L 815.183367 189.661172 
L 816.001846 189.703579 
L 817.024945 189.600634 
L 818.661902 189.898164 
L 820.29886 189.680855 
L 821.935818 190.161699 
L 825.414353 189.351441 
L 826.437452 189.092414 
L 827.460551 188.960896 
L 828.27903 188.856446 
L 829.711368 188.955983 
L 830.325227 188.922508 
L 831.757565 189.164834 
L 832.576044 189.596929 
L 833.189903 189.529675 
L 835.44072 189.109875 
L 836.259199 189.165465 
L 837.691537 188.904503 
L 838.919255 188.719093 
L 840.760833 188.536655 
L 842.80703 188.626159 
L 844.034748 188.550309 
L 845.262467 188.007265 
L 846.080946 187.705613 
L 848.127143 187.629507 
L 851.810298 185.694904 
L 853.447256 184.360959 
L 854.674974 182.499999 
L 855.288833 181.027366 
L 855.902693 178.844646 
L 856.516552 175.734847 
L 857.130411 171.270922 
L 857.74427 164.307043 
L 858.358129 153.953419 
L 859.176608 140.23383 
L 859.381228 138.582079 
L 859.585848 137.956863 
L 859.790467 138.33782 
L 860.199707 141.495191 
L 860.813566 147.137158 
L 861.018186 148.009599 
L 861.222806 148.134203 
L 861.427425 147.479334 
L 861.836665 143.884738 
L 862.859763 131.023647 
L 863.064383 131.014093 
L 863.269003 132.490757 
L 863.678242 138.720581 
L 864.292101 148.865199 
L 864.701341 152.871132 
L 864.905961 153.922324 
L 865.11058 154.366357 
L 865.3152 154.224925 
L 865.51982 153.507494 
L 865.929059 150.255862 
L 866.338299 144.256419 
L 866.747538 135.07532 
L 867.770637 105.888605 
L 867.975257 103.388459 
L 868.179876 102.996677 
L 868.384496 104.484959 
L 868.793735 111.36655 
L 869.407595 122.445447 
L 869.612214 124.318993 
L 869.816834 124.887995 
L 870.021454 124.099494 
L 870.226074 121.982327 
L 870.635313 114.406224 
L 871.249172 102.150089 
L 871.453792 100.904625 
L 871.658412 101.940523 
L 871.863031 105.157527 
L 872.272271 116.416609 
L 873.295369 147.504356 
L 873.704609 154.876031 
L 874.113848 159.370788 
L 874.523088 161.599236 
L 874.727708 162.003827 
L 874.932327 161.975602 
L 875.136947 161.520924 
L 875.546186 159.311858 
L 876.773905 149.826862 
L 876.978524 150.22504 
L 877.387764 153.371297 
L 878.001623 159.441163 
L 878.410863 161.522481 
L 878.615482 161.685656 
L 878.820102 161.266458 
L 879.229341 159.019363 
L 879.843201 155.17652 
L 880.04782 154.74249 
L 880.25244 154.934413 
L 880.45706 155.752985 
L 880.866299 159.29908 
L 882.298637 177.227975 
L 882.912497 181.213656 
L 883.526356 183.565843 
L 884.140215 185.083226 
L 884.958694 186.588874 
L 885.777173 187.51542 
L 886.595652 188.071831 
L 889.051088 189.111351 
L 890.074187 189.195745 
L 891.506525 189.056948 
L 896.212779 188.710102 
L 897.645117 188.371842 
L 898.872835 188.58633 
L 901.328272 187.773512 
L 902.146751 187.347898 
L 903.16985 186.98797 
L 904.192948 186.11213 
L 904.806807 185.345448 
L 905.420667 184.072434 
L 906.034526 181.948085 
L 906.443765 180.459257 
L 906.648385 180.046776 
L 906.853005 180.005711 
L 907.057624 180.333223 
L 908.080723 183.215617 
L 908.489962 183.65479 
L 908.899202 183.722711 
L 909.308441 183.514877 
L 910.12692 182.892306 
L 910.33154 182.965327 
L 910.740779 183.539476 
L 911.968498 185.680305 
L 913.400836 187.52211 
L 913.810075 187.740396 
L 914.014695 187.667324 
L 914.423934 187.190637 
L 915.037794 186.472804 
L 915.447033 186.26887 
L 915.856273 186.292653 
L 916.470132 186.691975 
L 917.083991 186.998055 
L 917.90247 187.217475 
L 918.311709 187.334563 
L 918.720949 187.695222 
L 919.334808 188.316426 
L 919.539428 188.30749 
L 921.176385 187.327557 
L 923.222583 186.627646 
L 923.836442 186.655677 
L 925.06416 186.850325 
L 927.110358 187.257105 
L 928.133456 187.520501 
L 928.951935 187.843778 
L 930.384273 188.367378 
L 931.816611 188.294185 
L 932.43047 188.30701 
L 933.862809 188.687664 
L 937.341344 188.576206 
L 937.955203 188.657318 
L 938.773682 188.466006 
L 939.592161 188.353743 
L 940.41064 188.140316 
L 941.024499 187.803658 
L 941.842978 186.95481 
L 942.661457 186.181993 
L 943.275316 185.680956 
L 943.684555 185.091928 
L 944.298415 183.81688 
L 944.912274 182.076743 
L 945.730753 179.118491 
L 946.344612 175.919992 
L 946.958471 170.949962 
L 947.57233 163.1394 
L 947.98157 155.275777 
L 948.390809 143.932738 
L 948.800049 127.501238 
L 949.823147 77.946584 
L 950.027767 77.077185 
L 950.232387 81.85028 
L 950.641626 102.82193 
L 951.255485 135.778866 
L 951.869345 155.641955 
L 952.483204 166.694259 
L 953.097063 173.464146 
L 953.710922 177.725224 
L 954.529401 181.411037 
L 955.14326 183.290251 
L 955.757119 184.590102 
L 956.166359 185.096363 
L 956.780218 185.425329 
L 958.212556 185.68034 
L 959.235655 185.353764 
L 959.849514 184.960752 
L 960.463373 184.557842 
L 960.872612 184.589524 
L 961.281852 184.900035 
L 962.100331 186.108661 
L 962.91881 187.115998 
L 963.737289 187.653006 
L 965.988106 188.703373 
L 966.806585 188.681056 
L 969.671261 188.244668 
L 970.694359 188.292629 
L 971.512838 188.37197 
L 972.331317 188.495109 
L 973.149796 188.40258 
L 973.968275 188.270957 
L 974.377514 188.364971 
L 974.786754 188.637437 
L 975.809853 189.521409 
L 976.219092 189.576862 
L 977.44681 189.480886 
L 978.469909 189.64344 
L 979.697627 189.834055 
L 980.720726 190.037927 
L 981.334585 189.951455 
L 982.562304 189.728565 
L 986.245459 189.654605 
L 987.063938 189.43645 
L 988.291656 189.557879 
L 988.905515 189.572803 
L 991.565571 189.181973 
L 992.58867 189.362908 
L 993.202529 189.084468 
L 994.021008 188.648759 
L 994.634867 188.570954 
L 997.908783 189.036616 
L 998.727262 188.783311 
L 999.136501 188.841657 
L 1000.1596 189.168611 
L 1001.182699 189.052035 
L 1004.047375 189.042145 
L 1005.070473 189.388469 
L 1005.684333 189.561521 
L 1006.707431 189.996061 
L 1007.32129 190.113341 
L 1007.93515 189.95638 
L 1008.549009 189.777976 
L 1009.981347 189.654713 
L 1010.799826 189.368771 
L 1012.846023 189.241163 
L 1014.89222 189.603531 
L 1016.529178 189.697699 
L 1017.552277 190.001209 
L 1018.984615 189.87074 
L 1019.393854 189.788226 
L 1021.030812 189.883263 
L 1022.258531 189.747645 
L 1023.077009 189.589393 
L 1024.509348 189.368117 
L 1026.146305 188.966399 
L 1026.555545 189.05774 
L 1027.987883 189.723299 
L 1029.010982 189.620936 
L 1029.82946 189.611849 
L 1031.057179 189.723296 
L 1031.875658 189.630412 
L 1033.307996 189.325774 
L 1033.921855 189.090063 
L 1034.535714 189.156262 
L 1035.558813 189.384001 
L 1036.991151 189.361898 
L 1037.60501 189.736016 
L 1038.218869 189.730011 
L 1039.037348 189.751721 
L 1040.060447 189.768992 
L 1041.697405 189.599753 
L 1043.129743 190.025633 
L 1043.948222 190.07477 
L 1046.199039 189.791884 
L 1047.222137 189.800345 
L 1048.040616 189.617844 
L 1048.859095 189.694969 
L 1049.677574 189.743916 
L 1051.109912 189.675635 
L 1052.95149 189.797929 
L 1053.974588 189.702472 
L 1054.997687 189.6003 
L 1055.406926 189.796708 
L 1056.020785 190.15034 
L 1056.634645 190.201104 
L 1058.476222 190.027165 
L 1065.024053 189.762451 
L 1066.047152 189.83532 
L 1067.070251 189.47108 
L 1067.88873 189.196573 
L 1068.911828 189.224498 
L 1070.548786 189.305468 
L 1071.162645 189.255257 
L 1072.799603 189.553203 
L 1073.618082 189.5342 
L 1075.868899 189.755027 
L 1077.915096 189.360276 
L 1078.733575 189.621943 
L 1079.961293 189.843818 
L 1080.575153 189.778683 
L 1081.393632 189.667029 
L 1083.235209 189.827003 
L 1084.872167 189.766047 
L 1085.486026 189.825025 
L 1086.713744 189.477755 
L 1087.327604 189.394021 
L 1089.78304 189.893414 
L 1091.215378 189.402377 
L 1094.489294 189.333633 
L 1095.103153 189.500955 
L 1095.717012 189.72357 
L 1096.330872 189.645766 
L 1097.35397 189.485605 
L 1098.172449 189.509204 
L 1099.604787 189.705006 
L 1100.423266 189.803381 
L 1102.060224 189.611559 
L 1102.674083 189.416101 
L 1103.287942 189.519699 
L 1104.515661 189.979371 
L 1108.198816 189.506932 
L 1109.221914 189.734715 
L 1110.449633 189.836864 
L 1111.472731 189.89164 
L 1115.974365 189.279909 
L 1117.406703 189.373567 
L 1118.634422 189.054169 
L 1120.475999 189.38646 
L 1121.089859 189.524688 
L 1121.908337 189.344929 
L 1122.726816 189.157997 
L 1123.545295 189.227733 
L 1124.977633 189.462397 
L 1128.456169 189.413489 
L 1129.070028 189.472689 
L 1130.297746 189.42346 
L 1131.934704 189.654287 
L 1132.548563 189.923385 
L 1134.185521 190.080633 
L 1135.413239 190.032024 
L 1136.845578 189.973149 
L 1137.459437 189.793731 
L 1138.482535 189.427264 
L 1139.096395 189.489273 
L 1139.710254 189.556965 
L 1140.528733 189.608956 
L 1141.347212 189.696503 
L 1142.37031 189.695437 
L 1144.007268 189.800607 
L 1145.439606 189.771571 
L 1147.076564 189.609924 
L 1148.918141 190.048523 
L 1150.14586 189.857541 
L 1153.215156 189.430366 
L 1154.238254 189.364595 
L 1155.056733 189.308918 
L 1156.489071 189.54386 
L 1157.51217 189.465295 
L 1159.149128 189.773739 
L 1159.967607 189.838429 
L 1161.195325 189.60228 
L 1163.855381 189.473151 
L 1164.469241 189.561335 
L 1168.561635 189.325399 
L 1169.175494 189.301107 
L 1169.789354 189.547916 
L 1170.403213 189.784282 
L 1170.812452 189.746182 
L 1171.835551 189.410054 
L 1173.063269 189.656939 
L 1173.881748 189.712484 
L 1175.723326 189.495649 
L 1177.360283 189.572399 
L 1177.974143 189.453469 
L 1178.588002 189.386069 
L 1179.201861 189.288251 
L 1180.429579 189.386035 
L 1181.452678 189.322669 
L 1183.703495 189.70465 
L 1184.726594 189.717281 
L 1184.726594 189.717281 
" clip-path="url(#p106b921edf)" style="fill: none; stroke: #000000; stroke-width: 2; stroke-linecap: square"/>
   </g>
   <g id="patch_3">
    <path d="M 3.00024 198.907885 
L 1184.99976 198.907885 
" style="fill: none; stroke: #000000; stroke-width: 2; stroke-linejoin: miter; stroke-linecap: square"/>
   </g>
  </g>
 </g>
 <defs>
  <clipPath id="p106b921edf">
   <rect x="3.00024" y="3.00024" width="1181.99952" height="195.907645"/>
  </clipPath>
 </defs>
</svg>
