<?xml version="1.0" encoding="utf-8" standalone="no"?>
<!DOCTYPE svg PUBLIC "-//W3C//DTD SVG 1.1//EN"
  "http://www.w3.org/Graphics/SVG/1.1/DTD/svg11.dtd">
<svg xmlns:xlink="http://www.w3.org/1999/xlink" width="1188pt" height="252pt" viewBox="0 0 1188 252" xmlns="http://www.w3.org/2000/svg" version="1.1">
 <metadata>
  <rdf:RDF xmlns:dc="http://purl.org/dc/elements/1.1/" xmlns:cc="http://creativecommons.org/ns#" xmlns:rdf="http://www.w3.org/1999/02/22-rdf-syntax-ns#">
   <cc:Work>
    <dc:type rdf:resource="http://purl.org/dc/dcmitype/StillImage"/>
    <dc:date>2024-05-14T18:59:47.507468</dc:date>
    <dc:format>image/svg+xml</dc:format>
    <dc:creator>
     <cc:Agent>
      <dc:title>Matplotlib v3.8.0, https://matplotlib.org/</dc:title>
     </cc:Agent>
    </dc:creator>
   </cc:Work>
  </rdf:RDF>
 </metadata>
 <defs>
  <style type="text/css">*{stroke-linejoin: round; stroke-linecap: butt}</style>
 </defs>
 <g id="figure_1">
  <g id="patch_1">
   <path d="M 0 252 
L 1188 252 
L 1188 0 
L 0 0 
z
" style="fill: #ffffff"/>
  </g>
  <g id="axes_1">
   <g id="patch_2">
    <path d="M 3.00024 198.907885 
L 1184.99976 198.907885 
L 1184.99976 3.00024 
L 3.00024 3.00024 
z
" style="fill: #ffffff"/>
   </g>
   <g id="matplotlib.axis_1">
    <g id="xtick_1">
     <g id="line2d_1">
      <defs>
       <path id="m4ed32420bd" d="M 0 0 
L 0 8 
" style="stroke: #000000; stroke-width: 2"/>
      </defs>
      <g>
       <use xlink:href="#m4ed32420bd" x="1131.272509" y="198.907885" style="stroke: #000000; stroke-width: 2"/>
      </g>
     </g>
     <g id="text_1">
      <!-- 0 -->
      <g transform="translate(1126.267665 224.791947) scale(0.18 -0.18)">
       <defs>
        <path id="Arial-BoldMT-30" d="M 1756 4600 
Q 2422 4600 2797 4125 
Q 3244 3563 3244 2259 
Q 3244 959 2794 391 
Q 2422 -78 1756 -78 
Q 1088 -78 678 436 
Q 269 950 269 2269 
Q 269 3563 719 4131 
Q 1091 4600 1756 4600 
z
M 1756 3872 
Q 1597 3872 1472 3770 
Q 1347 3669 1278 3406 
Q 1188 3066 1188 2259 
Q 1188 1453 1269 1151 
Q 1350 850 1473 750 
Q 1597 650 1756 650 
Q 1916 650 2041 751 
Q 2166 853 2234 1116 
Q 2325 1453 2325 2259 
Q 2325 3066 2244 3367 
Q 2163 3669 2039 3770 
Q 1916 3872 1756 3872 
z
" transform="scale(0.015625)"/>
       </defs>
       <use xlink:href="#Arial-BoldMT-30"/>
      </g>
     </g>
    </g>
    <g id="xtick_2">
     <g id="line2d_2">
      <g>
       <use xlink:href="#m4ed32420bd" x="1023.818007" y="198.907885" style="stroke: #000000; stroke-width: 2"/>
      </g>
     </g>
     <g id="text_2">
      <!-- 1 -->
      <g transform="translate(1018.813164 224.791947) scale(0.18 -0.18)">
       <defs>
        <path id="Arial-BoldMT-31" d="M 2519 0 
L 1641 0 
L 1641 3309 
Q 1159 2859 506 2644 
L 506 3441 
Q 850 3553 1253 3867 
Q 1656 4181 1806 4600 
L 2519 4600 
L 2519 0 
z
" transform="scale(0.015625)"/>
       </defs>
       <use xlink:href="#Arial-BoldMT-31"/>
      </g>
     </g>
    </g>
    <g id="xtick_3">
     <g id="line2d_3">
      <g>
       <use xlink:href="#m4ed32420bd" x="916.363505" y="198.907885" style="stroke: #000000; stroke-width: 2"/>
      </g>
     </g>
     <g id="text_3">
      <!-- 2 -->
      <g transform="translate(911.358662 224.791947) scale(0.18 -0.18)">
       <defs>
        <path id="Arial-BoldMT-32" d="M 3238 816 
L 3238 0 
L 159 0 
Q 209 463 459 877 
Q 709 1291 1447 1975 
Q 2041 2528 2175 2725 
Q 2356 2997 2356 3263 
Q 2356 3556 2198 3714 
Q 2041 3872 1763 3872 
Q 1488 3872 1325 3706 
Q 1163 3541 1138 3156 
L 263 3244 
Q 341 3969 753 4284 
Q 1166 4600 1784 4600 
Q 2463 4600 2850 4234 
Q 3238 3869 3238 3325 
Q 3238 3016 3127 2736 
Q 3016 2456 2775 2150 
Q 2616 1947 2200 1565 
Q 1784 1184 1673 1059 
Q 1563 934 1494 816 
L 3238 816 
z
" transform="scale(0.015625)"/>
       </defs>
       <use xlink:href="#Arial-BoldMT-32"/>
      </g>
     </g>
    </g>
    <g id="xtick_4">
     <g id="line2d_4">
      <g>
       <use xlink:href="#m4ed32420bd" x="808.909004" y="198.907885" style="stroke: #000000; stroke-width: 2"/>
      </g>
     </g>
     <g id="text_4">
      <!-- 3 -->
      <g transform="translate(803.90416 224.791947) scale(0.18 -0.18)">
       <defs>
        <path id="Arial-BoldMT-33" d="M 241 1216 
L 1091 1319 
Q 1131 994 1309 822 
Q 1488 650 1741 650 
Q 2013 650 2198 856 
Q 2384 1063 2384 1413 
Q 2384 1744 2206 1937 
Q 2028 2131 1772 2131 
Q 1603 2131 1369 2066 
L 1466 2781 
Q 1822 2772 2009 2936 
Q 2197 3100 2197 3372 
Q 2197 3603 2059 3740 
Q 1922 3878 1694 3878 
Q 1469 3878 1309 3722 
Q 1150 3566 1116 3266 
L 306 3403 
Q 391 3819 561 4067 
Q 731 4316 1036 4458 
Q 1341 4600 1719 4600 
Q 2366 4600 2756 4188 
Q 3078 3850 3078 3425 
Q 3078 2822 2419 2463 
Q 2813 2378 3048 2084 
Q 3284 1791 3284 1375 
Q 3284 772 2843 347 
Q 2403 -78 1747 -78 
Q 1125 -78 715 280 
Q 306 638 241 1216 
z
" transform="scale(0.015625)"/>
       </defs>
       <use xlink:href="#Arial-BoldMT-33"/>
      </g>
     </g>
    </g>
    <g id="xtick_5">
     <g id="line2d_5">
      <g>
       <use xlink:href="#m4ed32420bd" x="701.454502" y="198.907885" style="stroke: #000000; stroke-width: 2"/>
      </g>
     </g>
     <g id="text_5">
      <!-- 4 -->
      <g transform="translate(696.449658 224.791947) scale(0.18 -0.18)">
       <defs>
        <path id="Arial-BoldMT-34" d="M 1994 0 
L 1994 922 
L 119 922 
L 119 1691 
L 2106 4600 
L 2844 4600 
L 2844 1694 
L 3413 1694 
L 3413 922 
L 2844 922 
L 2844 0 
L 1994 0 
z
M 1994 1694 
L 1994 3259 
L 941 1694 
L 1994 1694 
z
" transform="scale(0.015625)"/>
       </defs>
       <use xlink:href="#Arial-BoldMT-34"/>
      </g>
     </g>
    </g>
    <g id="xtick_6">
     <g id="line2d_6">
      <g>
       <use xlink:href="#m4ed32420bd" x="594" y="198.907885" style="stroke: #000000; stroke-width: 2"/>
      </g>
     </g>
     <g id="text_6">
      <!-- 5 -->
      <g transform="translate(588.995156 224.791947) scale(0.18 -0.18)">
       <defs>
        <path id="Arial-BoldMT-35" d="M 284 1178 
L 1159 1269 
Q 1197 972 1381 798 
Q 1566 625 1806 625 
Q 2081 625 2272 848 
Q 2463 1072 2463 1522 
Q 2463 1944 2273 2155 
Q 2084 2366 1781 2366 
Q 1403 2366 1103 2031 
L 391 2134 
L 841 4519 
L 3163 4519 
L 3163 3697 
L 1506 3697 
L 1369 2919 
Q 1663 3066 1969 3066 
Q 2553 3066 2959 2641 
Q 3366 2216 3366 1538 
Q 3366 972 3038 528 
Q 2591 -78 1797 -78 
Q 1163 -78 763 262 
Q 363 603 284 1178 
z
" transform="scale(0.015625)"/>
       </defs>
       <use xlink:href="#Arial-BoldMT-35"/>
      </g>
     </g>
    </g>
    <g id="xtick_7">
     <g id="line2d_7">
      <g>
       <use xlink:href="#m4ed32420bd" x="486.545498" y="198.907885" style="stroke: #000000; stroke-width: 2"/>
      </g>
     </g>
     <g id="text_7">
      <!-- 6 -->
      <g transform="translate(481.540654 224.791947) scale(0.18 -0.18)">
       <defs>
        <path id="Arial-BoldMT-36" d="M 3247 3459 
L 2397 3366 
Q 2366 3628 2234 3753 
Q 2103 3878 1894 3878 
Q 1616 3878 1423 3628 
Q 1231 3378 1181 2588 
Q 1509 2975 1997 2975 
Q 2547 2975 2939 2556 
Q 3331 2138 3331 1475 
Q 3331 772 2918 347 
Q 2506 -78 1859 -78 
Q 1166 -78 719 461 
Q 272 1000 272 2228 
Q 272 3488 737 4044 
Q 1203 4600 1947 4600 
Q 2469 4600 2811 4308 
Q 3153 4016 3247 3459 
z
M 1256 1544 
Q 1256 1116 1453 883 
Q 1650 650 1903 650 
Q 2147 650 2309 840 
Q 2472 1031 2472 1466 
Q 2472 1913 2297 2120 
Q 2122 2328 1859 2328 
Q 1606 2328 1431 2129 
Q 1256 1931 1256 1544 
z
" transform="scale(0.015625)"/>
       </defs>
       <use xlink:href="#Arial-BoldMT-36"/>
      </g>
     </g>
    </g>
    <g id="xtick_8">
     <g id="line2d_8">
      <g>
       <use xlink:href="#m4ed32420bd" x="379.090996" y="198.907885" style="stroke: #000000; stroke-width: 2"/>
      </g>
     </g>
     <g id="text_8">
      <!-- 7 -->
      <g transform="translate(374.086153 224.791947) scale(0.18 -0.18)">
       <defs>
        <path id="Arial-BoldMT-37" d="M 272 3703 
L 272 4519 
L 3275 4519 
L 3275 3881 
Q 2903 3516 2518 2831 
Q 2134 2147 1932 1376 
Q 1731 606 1734 0 
L 888 0 
Q 909 950 1279 1937 
Q 1650 2925 2269 3703 
L 272 3703 
z
" transform="scale(0.015625)"/>
       </defs>
       <use xlink:href="#Arial-BoldMT-37"/>
      </g>
     </g>
    </g>
    <g id="xtick_9">
     <g id="line2d_9">
      <g>
       <use xlink:href="#m4ed32420bd" x="271.636495" y="198.907885" style="stroke: #000000; stroke-width: 2"/>
      </g>
     </g>
     <g id="text_9">
      <!-- 8 -->
      <g transform="translate(266.631651 224.791947) scale(0.18 -0.18)">
       <defs>
        <path id="Arial-BoldMT-38" d="M 1025 2472 
Q 684 2616 529 2867 
Q 375 3119 375 3419 
Q 375 3931 733 4265 
Q 1091 4600 1750 4600 
Q 2403 4600 2764 4265 
Q 3125 3931 3125 3419 
Q 3125 3100 2959 2851 
Q 2794 2603 2494 2472 
Q 2875 2319 3073 2025 
Q 3272 1731 3272 1347 
Q 3272 713 2867 316 
Q 2463 -81 1791 -81 
Q 1166 -81 750 247 
Q 259 634 259 1309 
Q 259 1681 443 1992 
Q 628 2303 1025 2472 
z
M 1206 3356 
Q 1206 3094 1354 2947 
Q 1503 2800 1750 2800 
Q 2000 2800 2150 2948 
Q 2300 3097 2300 3359 
Q 2300 3606 2151 3754 
Q 2003 3903 1759 3903 
Q 1506 3903 1356 3753 
Q 1206 3603 1206 3356 
z
M 1125 1394 
Q 1125 1031 1311 828 
Q 1497 625 1775 625 
Q 2047 625 2225 820 
Q 2403 1016 2403 1384 
Q 2403 1706 2222 1901 
Q 2041 2097 1763 2097 
Q 1441 2097 1283 1875 
Q 1125 1653 1125 1394 
z
" transform="scale(0.015625)"/>
       </defs>
       <use xlink:href="#Arial-BoldMT-38"/>
      </g>
     </g>
    </g>
    <g id="xtick_10">
     <g id="line2d_10">
      <g>
       <use xlink:href="#m4ed32420bd" x="164.181993" y="198.907885" style="stroke: #000000; stroke-width: 2"/>
      </g>
     </g>
     <g id="text_10">
      <!-- 9 -->
      <g transform="translate(159.177149 224.791947) scale(0.18 -0.18)">
       <defs>
        <path id="Arial-BoldMT-39" d="M 291 1059 
L 1141 1153 
Q 1172 894 1303 769 
Q 1434 644 1650 644 
Q 1922 644 2112 894 
Q 2303 1144 2356 1931 
Q 2025 1547 1528 1547 
Q 988 1547 595 1964 
Q 203 2381 203 3050 
Q 203 3747 617 4173 
Q 1031 4600 1672 4600 
Q 2369 4600 2816 4061 
Q 3263 3522 3263 2288 
Q 3263 1031 2797 475 
Q 2331 -81 1584 -81 
Q 1047 -81 715 205 
Q 384 491 291 1059 
z
M 2278 2978 
Q 2278 3403 2083 3637 
Q 1888 3872 1631 3872 
Q 1388 3872 1227 3680 
Q 1066 3488 1066 3050 
Q 1066 2606 1241 2398 
Q 1416 2191 1678 2191 
Q 1931 2191 2104 2391 
Q 2278 2591 2278 2978 
z
" transform="scale(0.015625)"/>
       </defs>
       <use xlink:href="#Arial-BoldMT-39"/>
      </g>
     </g>
    </g>
    <g id="xtick_11">
     <g id="line2d_11">
      <g>
       <use xlink:href="#m4ed32420bd" x="56.727491" y="198.907885" style="stroke: #000000; stroke-width: 2"/>
      </g>
     </g>
     <g id="text_11">
      <!-- 10 -->
      <g transform="translate(46.717803 224.791947) scale(0.18 -0.18)">
       <use xlink:href="#Arial-BoldMT-31"/>
       <use xlink:href="#Arial-BoldMT-30" x="55.615234"/>
      </g>
     </g>
    </g>
    <g id="text_12">
     <!-- Chemical Shift / ppm -->
     <g transform="translate(504.992813 245.447573) scale(0.18 -0.18)">
      <defs>
       <path id="Arial-BoldMT-43" d="M 3397 1684 
L 4294 1400 
Q 4088 650 3608 286 
Q 3128 -78 2391 -78 
Q 1478 -78 890 545 
Q 303 1169 303 2250 
Q 303 3394 893 4026 
Q 1484 4659 2447 4659 
Q 3288 4659 3813 4163 
Q 4125 3869 4281 3319 
L 3366 3100 
Q 3284 3456 3026 3662 
Q 2769 3869 2400 3869 
Q 1891 3869 1573 3503 
Q 1256 3138 1256 2319 
Q 1256 1450 1568 1081 
Q 1881 713 2381 713 
Q 2750 713 3015 947 
Q 3281 1181 3397 1684 
z
" transform="scale(0.015625)"/>
       <path id="Arial-BoldMT-68" d="M 1334 4581 
L 1334 2897 
Q 1759 3394 2350 3394 
Q 2653 3394 2897 3281 
Q 3141 3169 3264 2994 
Q 3388 2819 3433 2606 
Q 3478 2394 3478 1947 
L 3478 0 
L 2600 0 
L 2600 1753 
Q 2600 2275 2550 2415 
Q 2500 2556 2373 2639 
Q 2247 2722 2056 2722 
Q 1838 2722 1666 2615 
Q 1494 2509 1414 2295 
Q 1334 2081 1334 1663 
L 1334 0 
L 456 0 
L 456 4581 
L 1334 4581 
z
" transform="scale(0.015625)"/>
       <path id="Arial-BoldMT-65" d="M 2381 1056 
L 3256 909 
Q 3088 428 2723 176 
Q 2359 -75 1813 -75 
Q 947 -75 531 491 
Q 203 944 203 1634 
Q 203 2459 634 2926 
Q 1066 3394 1725 3394 
Q 2466 3394 2894 2905 
Q 3322 2416 3303 1406 
L 1103 1406 
Q 1113 1016 1316 798 
Q 1519 581 1822 581 
Q 2028 581 2168 693 
Q 2309 806 2381 1056 
z
M 2431 1944 
Q 2422 2325 2234 2523 
Q 2047 2722 1778 2722 
Q 1491 2722 1303 2513 
Q 1116 2303 1119 1944 
L 2431 1944 
z
" transform="scale(0.015625)"/>
       <path id="Arial-BoldMT-6d" d="M 394 3319 
L 1203 3319 
L 1203 2866 
Q 1638 3394 2238 3394 
Q 2556 3394 2790 3262 
Q 3025 3131 3175 2866 
Q 3394 3131 3647 3262 
Q 3900 3394 4188 3394 
Q 4553 3394 4806 3245 
Q 5059 3097 5184 2809 
Q 5275 2597 5275 2122 
L 5275 0 
L 4397 0 
L 4397 1897 
Q 4397 2391 4306 2534 
Q 4184 2722 3931 2722 
Q 3747 2722 3584 2609 
Q 3422 2497 3350 2280 
Q 3278 2063 3278 1594 
L 3278 0 
L 2400 0 
L 2400 1819 
Q 2400 2303 2353 2443 
Q 2306 2584 2207 2653 
Q 2109 2722 1941 2722 
Q 1738 2722 1575 2612 
Q 1413 2503 1342 2297 
Q 1272 2091 1272 1613 
L 1272 0 
L 394 0 
L 394 3319 
z
" transform="scale(0.015625)"/>
       <path id="Arial-BoldMT-69" d="M 459 3769 
L 459 4581 
L 1338 4581 
L 1338 3769 
L 459 3769 
z
M 459 0 
L 459 3319 
L 1338 3319 
L 1338 0 
L 459 0 
z
" transform="scale(0.015625)"/>
       <path id="Arial-BoldMT-63" d="M 3353 2338 
L 2488 2181 
Q 2444 2441 2289 2572 
Q 2134 2703 1888 2703 
Q 1559 2703 1364 2476 
Q 1169 2250 1169 1719 
Q 1169 1128 1367 884 
Q 1566 641 1900 641 
Q 2150 641 2309 783 
Q 2469 925 2534 1272 
L 3397 1125 
Q 3263 531 2881 228 
Q 2500 -75 1859 -75 
Q 1131 -75 698 384 
Q 266 844 266 1656 
Q 266 2478 700 2936 
Q 1134 3394 1875 3394 
Q 2481 3394 2839 3133 
Q 3197 2872 3353 2338 
z
" transform="scale(0.015625)"/>
       <path id="Arial-BoldMT-61" d="M 1116 2306 
L 319 2450 
Q 453 2931 781 3162 
Q 1109 3394 1756 3394 
Q 2344 3394 2631 3255 
Q 2919 3116 3036 2902 
Q 3153 2688 3153 2116 
L 3144 1091 
Q 3144 653 3186 445 
Q 3228 238 3344 0 
L 2475 0 
Q 2441 88 2391 259 
Q 2369 338 2359 363 
Q 2134 144 1878 34 
Q 1622 -75 1331 -75 
Q 819 -75 523 203 
Q 228 481 228 906 
Q 228 1188 362 1408 
Q 497 1628 739 1745 
Q 981 1863 1438 1950 
Q 2053 2066 2291 2166 
L 2291 2253 
Q 2291 2506 2166 2614 
Q 2041 2722 1694 2722 
Q 1459 2722 1328 2630 
Q 1197 2538 1116 2306 
z
M 2291 1594 
Q 2122 1538 1756 1459 
Q 1391 1381 1278 1306 
Q 1106 1184 1106 997 
Q 1106 813 1243 678 
Q 1381 544 1594 544 
Q 1831 544 2047 700 
Q 2206 819 2256 991 
Q 2291 1103 2291 1419 
L 2291 1594 
z
" transform="scale(0.015625)"/>
       <path id="Arial-BoldMT-6c" d="M 459 0 
L 459 4581 
L 1338 4581 
L 1338 0 
L 459 0 
z
" transform="scale(0.015625)"/>
       <path id="Arial-BoldMT-20" transform="scale(0.015625)"/>
       <path id="Arial-BoldMT-53" d="M 231 1491 
L 1131 1578 
Q 1213 1125 1461 912 
Q 1709 700 2131 700 
Q 2578 700 2804 889 
Q 3031 1078 3031 1331 
Q 3031 1494 2936 1608 
Q 2841 1722 2603 1806 
Q 2441 1863 1863 2006 
Q 1119 2191 819 2459 
Q 397 2838 397 3381 
Q 397 3731 595 4036 
Q 794 4341 1167 4500 
Q 1541 4659 2069 4659 
Q 2931 4659 3367 4281 
Q 3803 3903 3825 3272 
L 2900 3231 
Q 2841 3584 2645 3739 
Q 2450 3894 2059 3894 
Q 1656 3894 1428 3728 
Q 1281 3622 1281 3444 
Q 1281 3281 1419 3166 
Q 1594 3019 2269 2859 
Q 2944 2700 3267 2529 
Q 3591 2359 3773 2064 
Q 3956 1769 3956 1334 
Q 3956 941 3737 597 
Q 3519 253 3119 86 
Q 2719 -81 2122 -81 
Q 1253 -81 787 320 
Q 322 722 231 1491 
z
" transform="scale(0.015625)"/>
       <path id="Arial-BoldMT-66" d="M 75 3319 
L 563 3319 
L 563 3569 
Q 563 3988 652 4194 
Q 741 4400 980 4529 
Q 1219 4659 1584 4659 
Q 1959 4659 2319 4547 
L 2200 3934 
Q 1991 3984 1797 3984 
Q 1606 3984 1523 3895 
Q 1441 3806 1441 3553 
L 1441 3319 
L 2097 3319 
L 2097 2628 
L 1441 2628 
L 1441 0 
L 563 0 
L 563 2628 
L 75 2628 
L 75 3319 
z
" transform="scale(0.015625)"/>
       <path id="Arial-BoldMT-74" d="M 1981 3319 
L 1981 2619 
L 1381 2619 
L 1381 1281 
Q 1381 875 1398 808 
Q 1416 741 1477 697 
Q 1538 653 1625 653 
Q 1747 653 1978 738 
L 2053 56 
Q 1747 -75 1359 -75 
Q 1122 -75 931 4 
Q 741 84 652 211 
Q 563 338 528 553 
Q 500 706 500 1172 
L 500 2619 
L 97 2619 
L 97 3319 
L 500 3319 
L 500 3978 
L 1381 4491 
L 1381 3319 
L 1981 3319 
z
" transform="scale(0.015625)"/>
       <path id="Arial-BoldMT-2f" d="M -9 -78 
L 1125 4659 
L 1784 4659 
L 638 -78 
L -9 -78 
z
" transform="scale(0.015625)"/>
       <path id="Arial-BoldMT-70" d="M 434 3319 
L 1253 3319 
L 1253 2831 
Q 1413 3081 1684 3237 
Q 1956 3394 2288 3394 
Q 2866 3394 3269 2941 
Q 3672 2488 3672 1678 
Q 3672 847 3265 386 
Q 2859 -75 2281 -75 
Q 2006 -75 1782 34 
Q 1559 144 1313 409 
L 1313 -1263 
L 434 -1263 
L 434 3319 
z
M 1303 1716 
Q 1303 1156 1525 889 
Q 1747 622 2066 622 
Q 2372 622 2575 867 
Q 2778 1113 2778 1672 
Q 2778 2194 2568 2447 
Q 2359 2700 2050 2700 
Q 1728 2700 1515 2451 
Q 1303 2203 1303 1716 
z
" transform="scale(0.015625)"/>
      </defs>
      <use xlink:href="#Arial-BoldMT-43"/>
      <use xlink:href="#Arial-BoldMT-68" x="72.216797"/>
      <use xlink:href="#Arial-BoldMT-65" x="133.300781"/>
      <use xlink:href="#Arial-BoldMT-6d" x="188.916016"/>
      <use xlink:href="#Arial-BoldMT-69" x="277.832031"/>
      <use xlink:href="#Arial-BoldMT-63" x="305.615234"/>
      <use xlink:href="#Arial-BoldMT-61" x="361.230469"/>
      <use xlink:href="#Arial-BoldMT-6c" x="416.845703"/>
      <use xlink:href="#Arial-BoldMT-20" x="444.628906"/>
      <use xlink:href="#Arial-BoldMT-53" x="472.412109"/>
      <use xlink:href="#Arial-BoldMT-68" x="539.111328"/>
      <use xlink:href="#Arial-BoldMT-69" x="600.195312"/>
      <use xlink:href="#Arial-BoldMT-66" x="627.978516"/>
      <use xlink:href="#Arial-BoldMT-74" x="661.279297"/>
      <use xlink:href="#Arial-BoldMT-20" x="694.580078"/>
      <use xlink:href="#Arial-BoldMT-2f" x="722.363281"/>
      <use xlink:href="#Arial-BoldMT-20" x="750.146484"/>
      <use xlink:href="#Arial-BoldMT-70" x="777.929688"/>
      <use xlink:href="#Arial-BoldMT-70" x="839.013672"/>
      <use xlink:href="#Arial-BoldMT-6d" x="900.097656"/>
     </g>
    </g>
   </g>
   <g id="matplotlib.axis_2"/>
   <g id="line2d_12">
    <path d="M 2.940997 189.450356 
L 3.759476 189.485155 
L 4.577955 189.585823 
L 6.010293 189.558374 
L 6.624152 189.715183 
L 8.26111 189.60463 
L 9.079589 189.502865 
L 10.511927 189.524072 
L 12.148885 189.433743 
L 12.967364 189.513388 
L 14.399702 189.48874 
L 15.422801 189.709391 
L 16.241279 190.009541 
L 16.855139 189.915723 
L 19.105956 189.389103 
L 19.719815 189.377803 
L 20.538294 189.693267 
L 21.152153 189.830088 
L 21.970632 189.678338 
L 22.789111 189.452855 
L 24.221449 189.525496 
L 25.039928 189.792324 
L 26.063026 189.617624 
L 26.881505 189.612839 
L 27.699984 189.514664 
L 29.132322 189.219858 
L 29.746181 189.30872 
L 31.383139 189.868559 
L 32.815477 189.418875 
L 34.861675 189.512152 
L 35.475534 189.478694 
L 36.703252 189.550825 
L 37.317111 189.469434 
L 38.34021 189.576417 
L 39.772548 189.440645 
L 40.795647 189.34973 
L 44.683421 189.569207 
L 45.297281 189.609754 
L 47.138858 189.281725 
L 50.208154 189.729024 
L 50.822013 189.803718 
L 52.254351 189.391321 
L 53.07283 189.241535 
L 55.323647 189.533127 
L 56.755985 189.356157 
L 57.983704 189.528978 
L 59.006802 189.5513 
L 60.029901 189.688121 
L 62.689957 189.54957 
L 64.940774 189.945359 
L 65.759253 189.761685 
L 67.805451 189.687909 
L 68.623929 189.620825 
L 69.237789 189.60935 
L 70.670127 189.874723 
L 71.488606 189.902981 
L 72.307085 189.823395 
L 73.739423 189.909446 
L 74.967141 189.747133 
L 76.399479 189.844943 
L 80.287254 189.203374 
L 81.105733 189.031656 
L 82.128831 188.780353 
L 82.538071 188.923938 
L 83.56117 189.471398 
L 84.788888 189.686251 
L 85.607367 189.510816 
L 87.039705 189.074222 
L 87.653564 189.151648 
L 88.267423 189.176644 
L 89.290522 189.017364 
L 89.904381 189.183718 
L 90.51824 189.40592 
L 91.745959 189.471706 
L 92.359818 189.612673 
L 94.406015 189.357758 
L 95.429114 189.093449 
L 98.49841 189.335167 
L 99.316889 189.494628 
L 103.204663 189.543421 
L 104.227762 189.871227 
L 104.841621 189.829498 
L 105.45548 189.824804 
L 106.683199 190.145907 
L 107.297058 189.906832 
L 107.910917 189.647722 
L 108.524776 189.622601 
L 110.161734 189.920605 
L 110.980213 190.053179 
L 113.02641 189.862932 
L 114.867988 189.956033 
L 117.118805 189.62413 
L 118.551143 189.834452 
L 121.620439 189.883836 
L 122.438918 189.800937 
L 124.894354 189.211228 
L 125.712833 189.486493 
L 126.326692 189.569447 
L 127.554411 189.503926 
L 128.16827 189.687765 
L 128.986749 189.562811 
L 130.009848 189.463738 
L 131.442186 189.445898 
L 133.283763 189.314313 
L 135.32996 189.754412 
L 136.353059 189.72233 
L 139.626975 189.217881 
L 141.468552 189.182623 
L 144.537848 189.494273 
L 145.151707 189.465874 
L 146.379426 189.836399 
L 147.402524 189.657851 
L 148.221003 189.522993 
L 149.244102 189.554934 
L 150.062581 189.5973 
L 152.927257 189.903704 
L 153.745736 189.618291 
L 154.564215 189.438783 
L 155.587313 189.680903 
L 156.201173 189.727134 
L 156.815032 189.410136 
L 157.224271 189.237764 
L 158.04275 189.252974 
L 160.088947 189.511998 
L 161.112046 189.671586 
L 163.158243 189.912782 
L 163.772102 189.828422 
L 164.795201 189.572364 
L 167.046018 189.939341 
L 168.478356 189.573223 
L 169.501455 189.47652 
L 170.115314 189.442297 
L 171.956892 189.730161 
L 172.77537 189.77386 
L 173.38923 189.817434 
L 174.003089 189.816435 
L 175.026187 190.055086 
L 176.663145 189.819562 
L 177.481624 190.047614 
L 178.504723 189.984286 
L 179.732441 189.826123 
L 181.164779 189.803776 
L 182.597117 189.725888 
L 183.415596 189.667844 
L 184.234075 189.380835 
L 184.847934 189.200937 
L 186.075653 189.286136 
L 187.507991 189.727051 
L 189.758808 189.624853 
L 191.191146 189.18145 
L 191.805005 189.19273 
L 193.032723 189.348397 
L 194.260442 189.497932 
L 195.28354 189.801225 
L 196.306639 189.826652 
L 197.738977 189.707761 
L 199.785174 189.838634 
L 202.240611 189.641814 
L 203.05909 189.584719 
L 204.082189 189.695758 
L 207.560724 189.292212 
L 208.583823 189.372155 
L 209.197682 189.349333 
L 210.4254 189.728425 
L 212.266978 190.120304 
L 214.108555 189.638502 
L 215.336274 189.733777 
L 216.154753 189.867931 
L 217.587091 189.69598 
L 218.20095 189.694156 
L 218.814809 189.688764 
L 220.451767 189.956074 
L 222.497964 189.56728 
L 223.930302 189.612167 
L 225.36264 189.60896 
L 226.181119 189.826206 
L 226.999598 189.730888 
L 229.659654 189.149859 
L 230.478133 189.290593 
L 233.13819 189.167259 
L 234.570528 189.420012 
L 236.207486 189.460493 
L 237.025965 189.502591 
L 237.844444 189.661744 
L 239.481401 189.143517 
L 243.369176 188.9568 
L 243.778416 188.923039 
L 244.596895 189.190587 
L 246.233852 189.531698 
L 246.847712 189.598217 
L 248.689289 189.254748 
L 251.144726 189.368522 
L 251.963205 189.391277 
L 253.600163 189.279177 
L 254.623261 189.372362 
L 257.487937 188.993009 
L 258.306416 189.00039 
L 259.124895 188.998526 
L 259.943374 189.079459 
L 261.171092 189.018729 
L 262.194191 188.929816 
L 263.21729 188.82112 
L 264.445008 188.253922 
L 268.742022 187.923848 
L 272.015938 186.966277 
L 272.834417 186.532316 
L 274.062135 186.194794 
L 275.085234 185.816458 
L 276.312952 185.346804 
L 277.131431 185.101205 
L 277.94991 184.480004 
L 278.768389 183.966618 
L 279.586868 183.400597 
L 281.428445 181.592032 
L 283.679262 179.074363 
L 285.930079 176.547161 
L 286.953178 175.699649 
L 287.771657 175.251233 
L 288.794756 174.944849 
L 289.408615 175.107802 
L 290.227094 175.502254 
L 291.045573 176.276044 
L 294.114868 179.593668 
L 294.728728 180.214016 
L 295.547206 180.772303 
L 296.365685 181.970418 
L 297.388784 183.238044 
L 297.798023 183.494599 
L 298.616502 183.574716 
L 299.639601 183.681787 
L 300.25346 184.004191 
L 302.708897 185.633453 
L 303.322756 185.864053 
L 303.936615 185.874824 
L 304.959714 185.819687 
L 306.801291 186.537271 
L 309.256728 187.485243 
L 310.279827 187.664835 
L 311.916785 187.798678 
L 313.553742 188.291409 
L 314.167602 188.208675 
L 316.009179 187.637625 
L 316.623038 187.643451 
L 318.464616 188.204613 
L 321.124672 188.721263 
L 321.738532 188.63076 
L 322.55701 188.408815 
L 323.580109 188.189652 
L 324.807827 187.896966 
L 325.421687 188.030985 
L 326.240166 188.279031 
L 326.649405 188.153434 
L 328.081743 187.116448 
L 328.490983 187.18025 
L 329.923321 187.750912 
L 330.7418 187.654676 
L 331.764898 187.456423 
L 332.787997 186.778481 
L 334.015715 186.156863 
L 335.243433 185.092389 
L 335.857293 184.11123 
L 336.471152 182.715975 
L 337.289631 180.127341 
L 337.90349 177.394609 
L 338.721969 173.481642 
L 339.131208 172.351471 
L 339.335828 172.058406 
L 339.540448 171.965201 
L 339.745067 172.065152 
L 340.154307 172.752233 
L 340.972786 174.655113 
L 341.177406 174.784017 
L 341.382025 174.687031 
L 341.791265 173.955957 
L 342.405124 172.018667 
L 343.428223 168.444506 
L 344.246701 167.190709 
L 344.655941 165.360897 
L 345.06518 161.926301 
L 346.702138 145.241733 
L 347.111378 143.498076 
L 347.315997 143.165046 
L 347.520617 143.193076 
L 347.929857 143.588956 
L 348.134476 143.414937 
L 348.339096 142.709189 
L 348.748335 139.387995 
L 349.157575 133.33309 
L 349.566814 124.163106 
L 350.180674 103.501432 
L 350.794533 72.829878 
L 351.408392 41.008749 
L 351.817631 31.549032 
L 352.022251 31.753859 
L 352.431491 38.458592 
L 352.84073 45.544496 
L 353.04535 47.061439 
L 353.249969 47.084709 
L 353.454589 45.961493 
L 353.863829 40.858705 
L 354.273068 30.32788 
L 355.091547 3.512046 
L 355.296167 3.00024 
L 355.500786 7.040586 
L 355.910026 26.884582 
L 356.523885 61.492957 
L 356.933125 73.376896 
L 357.137744 75.216516 
L 357.342364 74.5319 
L 357.546984 71.614188 
L 358.160843 55.005683 
L 358.570082 46.283822 
L 358.774702 45.364027 
L 358.979322 47.275763 
L 359.388561 58.420713 
L 360.41166 95.662351 
L 360.820899 102.4457 
L 361.230139 104.560443 
L 361.639378 105.209023 
L 362.048618 106.721879 
L 362.662477 109.460311 
L 363.480956 111.935937 
L 363.685576 111.843718 
L 363.890195 110.949878 
L 364.094815 108.991676 
L 364.504054 100.9623 
L 364.913294 87.005721 
L 365.527153 63.358903 
L 365.731773 59.152314 
L 365.936393 58.541263 
L 366.141012 61.877553 
L 366.550252 77.90033 
L 367.368731 114.019299 
L 367.98259 129.586511 
L 368.391829 135.801346 
L 368.801069 139.745831 
L 369.414928 143.26456 
L 369.824167 146.045128 
L 371.051886 157.378253 
L 371.461125 158.933439 
L 371.665745 159.262622 
L 371.870365 159.280595 
L 372.074984 158.986892 
L 373.098083 156.45933 
L 373.302703 156.576788 
L 373.711942 157.39733 
L 374.530421 159.63053 
L 374.93966 161.779739 
L 375.55352 165.387927 
L 375.962759 166.615378 
L 376.167379 166.71265 
L 376.371999 166.465349 
L 376.781238 165.034359 
L 377.804337 159.961976 
L 378.008956 159.645237 
L 378.213576 159.687195 
L 378.418196 160.160912 
L 378.827435 162.559952 
L 379.850534 171.166922 
L 380.259773 173.08607 
L 380.873633 174.707593 
L 381.692111 176.809497 
L 382.71521 179.544896 
L 383.12445 179.934065 
L 383.533689 179.830363 
L 384.147548 179.161571 
L 384.556788 178.787775 
L 384.761407 178.75352 
L 384.966027 178.860033 
L 385.375267 179.515097 
L 387.216844 183.998502 
L 388.035323 185.146677 
L 389.263041 186.668486 
L 389.876901 186.973004 
L 390.695379 187.024986 
L 391.309239 187.094321 
L 392.127718 187.220203 
L 394.173915 187.017104 
L 394.992394 187.074054 
L 396.220112 187.076765 
L 397.038591 187.192255 
L 398.266309 187.668309 
L 399.289408 188.282934 
L 400.312507 188.860102 
L 400.926366 188.951789 
L 401.540225 188.814629 
L 402.563324 188.519811 
L 403.177183 188.508802 
L 403.995662 188.591685 
L 405.22338 188.485123 
L 406.246479 188.589615 
L 407.883437 188.861144 
L 408.906535 189.126295 
L 409.725014 188.964735 
L 410.543493 188.761741 
L 411.566592 188.898194 
L 412.99893 189.28091 
L 414.840507 188.92669 
L 415.454366 189.016896 
L 416.272845 189.172688 
L 417.909803 188.957655 
L 419.546761 189.20844 
L 420.36524 189.102936 
L 421.183719 189.143695 
L 422.411437 188.963291 
L 425.276113 189.127606 
L 426.503832 189.301051 
L 427.117691 189.379279 
L 427.93617 189.109434 
L 428.959268 188.916497 
L 429.982367 188.855464 
L 431.414705 189.002514 
L 432.847043 189.313953 
L 434.074762 189.290722 
L 435.09786 189.134467 
L 435.916339 189.09618 
L 437.553297 188.929053 
L 438.167156 189.191187 
L 438.781015 189.512123 
L 439.394874 189.468259 
L 440.417973 189.29713 
L 441.850311 189.33271 
L 442.87341 188.804024 
L 443.487269 188.579609 
L 444.101128 188.628343 
L 445.942706 189.088639 
L 446.965804 189.027406 
L 448.807382 189.18677 
L 450.23972 188.786964 
L 450.853579 188.646782 
L 451.672058 188.738067 
L 452.695157 188.880798 
L 453.513636 188.783857 
L 454.536734 188.510972 
L 455.355213 188.597016 
L 455.969072 188.379351 
L 456.787551 187.987176 
L 457.40141 188.059412 
L 458.219889 188.217307 
L 460.879946 187.931607 
L 461.698425 187.635769 
L 463.744622 187.173249 
L 466.813918 185.80016 
L 467.837016 185.27093 
L 469.883214 184.776876 
L 471.315552 183.9457 
L 472.54327 183.586681 
L 473.361749 183.384124 
L 474.384848 183.066461 
L 476.840284 182.899989 
L 477.658763 182.493919 
L 478.272623 182.468259 
L 479.091101 182.522251 
L 480.1142 182.438384 
L 484.001975 183.176658 
L 485.638933 183.879889 
L 486.252792 184.315521 
L 488.298989 185.10634 
L 488.912848 185.453781 
L 490.549806 185.699416 
L 491.368285 186.389837 
L 491.982144 186.800857 
L 492.800623 186.894831 
L 493.619102 187.172569 
L 494.84682 187.548841 
L 495.665299 187.591779 
L 496.279158 187.68525 
L 497.916116 188.189335 
L 498.529975 188.262113 
L 499.348454 188.500136 
L 500.576173 188.621288 
L 502.008511 189.189379 
L 502.62237 189.044638 
L 503.440849 188.836496 
L 504.054708 188.96019 
L 505.077807 189.318245 
L 506.305525 189.316659 
L 507.942483 189.136255 
L 508.760962 189.177563 
L 510.1933 189.208862 
L 512.239497 189.207749 
L 513.057976 189.006412 
L 515.513413 189.121343 
L 516.536511 189.251249 
L 517.55961 189.161893 
L 519.605807 188.684627 
L 521.447385 188.39413 
L 522.675103 188.517415 
L 524.312061 188.126708 
L 526.562878 187.309829 
L 528.404456 185.909512 
L 529.222934 185.573442 
L 530.655273 185.164071 
L 531.269132 184.737344 
L 531.882991 184.032261 
L 535.156907 179.484741 
L 538.840062 172.623567 
L 539.86316 170.406704 
L 540.477019 168.520913 
L 543.137076 158.33309 
L 544.160175 153.330931 
L 546.206372 141.31968 
L 547.63871 131.889293 
L 549.684907 116.457193 
L 551.731104 101.301477 
L 553.368062 89.863592 
L 553.777302 88.434464 
L 553.981921 88.192627 
L 554.186541 88.277903 
L 554.391161 88.699201 
L 554.8004 90.563268 
L 555.41426 95.336316 
L 556.232738 103.7987 
L 557.665077 121.633572 
L 558.074316 133.909302 
L 558.688175 157.539248 
L 558.892795 159.640682 
L 559.097415 158.807679 
L 559.915894 150.988983 
L 562.166711 136.292441 
L 562.78057 134.18533 
L 562.985189 133.893568 
L 563.189809 133.834794 
L 563.394429 133.971845 
L 563.803668 134.60114 
L 564.417527 136.014042 
L 565.031387 138.202791 
L 567.691443 149.476289 
L 568.714542 154.323812 
L 569.73764 158.084553 
L 572.193077 166.230324 
L 574.034655 171.006127 
L 574.853134 172.850312 
L 575.671612 174.166396 
L 577.30857 176.450558 
L 578.331669 177.318584 
L 579.559387 178.013843 
L 581.605585 180.079405 
L 583.651782 182.62845 
L 584.265641 182.959015 
L 585.28874 183.15418 
L 586.311838 183.799942 
L 587.334937 184.561294 
L 587.948796 184.94097 
L 588.562655 185.30943 
L 588.971895 185.510625 
L 589.381134 185.472087 
L 589.994993 185.328653 
L 590.404233 185.430105 
L 592.85967 186.568301 
L 593.882768 186.852141 
L 594.905867 186.745899 
L 595.724346 186.685412 
L 596.338205 186.814029 
L 596.952064 187.002902 
L 598.589022 186.927617 
L 600.02136 186.960336 
L 600.635219 187.172328 
L 601.453698 187.543749 
L 602.272177 187.652335 
L 603.295276 187.89395 
L 603.909135 187.968393 
L 605.546093 187.817691 
L 608.410769 188.448971 
L 609.229248 188.692648 
L 610.456966 188.350645 
L 611.684684 187.966386 
L 612.298544 188.120254 
L 613.526262 188.613664 
L 614.549361 188.711287 
L 615.16322 188.494334 
L 615.777079 188.285201 
L 616.800178 188.276804 
L 619.050995 188.493723 
L 619.664854 188.463204 
L 620.892572 188.565162 
L 622.73415 188.390175 
L 624.166488 188.742059 
L 625.394206 188.710812 
L 627.440403 188.95111 
L 628.258882 188.736341 
L 628.872741 188.601814 
L 629.69122 188.347641 
L 630.509699 188.295467 
L 631.532798 188.152031 
L 632.146657 188.215484 
L 632.555897 188.271345 
L 635.011333 187.735286 
L 635.625192 187.060171 
L 637.057531 185.193884 
L 637.46677 185.074591 
L 638.285249 185.104465 
L 638.694488 184.828744 
L 639.103728 184.268918 
L 640.331446 182.266977 
L 640.536066 182.256402 
L 640.945305 182.612497 
L 641.559164 183.312275 
L 641.968404 183.527077 
L 642.377643 183.552684 
L 644.423841 183.170261 
L 644.83308 183.094338 
L 645.24232 182.643566 
L 645.856179 181.344661 
L 646.470038 179.483963 
L 647.083897 176.905191 
L 647.697756 173.222735 
L 648.311615 167.714315 
L 648.925475 159.110478 
L 649.334714 150.739095 
L 649.743954 138.983389 
L 650.357813 112.422483 
L 650.971672 82.1717 
L 651.176292 77.406208 
L 651.380911 77.573616 
L 651.585531 82.070879 
L 652.40401 107.96517 
L 652.60863 111.032557 
L 652.813249 112.18037 
L 653.017869 111.416278 
L 653.222489 108.746729 
L 653.631728 97.725603 
L 654.450207 66.130798 
L 654.654827 64.487718 
L 654.859447 67.895282 
L 655.473306 93.42039 
L 655.882545 107.297854 
L 656.291785 113.841005 
L 656.496405 114.433907 
L 656.701024 113.311182 
L 656.905644 110.463768 
L 657.314883 99.620057 
L 658.133362 72.00252 
L 658.337982 71.696005 
L 658.542602 75.894351 
L 659.5657 111.36856 
L 659.77032 114.377655 
L 659.97494 115.530523 
L 660.17956 114.857685 
L 660.384179 112.387301 
L 660.793419 102.395681 
L 661.407278 83.051606 
L 661.611898 80.990588 
L 661.816517 83.61641 
L 662.225757 100.652372 
L 663.044236 139.29174 
L 663.658095 156.259889 
L 664.271954 166.092038 
L 664.885813 172.029866 
L 665.499673 175.988539 
L 666.113532 178.735732 
L 666.932011 181.3545 
L 667.75049 183.346173 
L 668.364349 184.249931 
L 670.205926 186.251293 
L 671.024405 186.816504 
L 671.638264 187.036387 
L 672.661363 187.096074 
L 675.1168 187.321472 
L 675.935279 187.673071 
L 678.799955 188.326919 
L 679.618434 188.511243 
L 680.232293 188.518799 
L 681.664631 188.373544 
L 682.48311 188.424075 
L 683.915448 188.43828 
L 684.529307 188.675528 
L 685.552406 188.647839 
L 686.166265 188.446112 
L 686.780124 188.20097 
L 687.189364 188.266761 
L 688.007842 188.583059 
L 688.621702 188.478585 
L 690.258659 187.990291 
L 690.872519 188.057425 
L 691.895617 188.377414 
L 694.555674 188.166739 
L 695.374153 187.928786 
L 695.783392 188.034108 
L 696.601871 188.39396 
L 697.42035 188.391088 
L 698.443449 188.237122 
L 700.898885 188.72481 
L 701.512744 188.658083 
L 702.535843 188.326505 
L 703.558942 188.190485 
L 705.605139 187.934827 
L 706.218998 188.268056 
L 707.037477 188.741304 
L 707.855956 188.796113 
L 708.879055 188.992425 
L 709.902153 189.167749 
L 713.176069 189.237662 
L 714.403787 189.121723 
L 715.426886 189.238482 
L 716.449985 189.460422 
L 717.063844 189.447354 
L 718.291562 189.354526 
L 719.51928 189.556222 
L 720.337759 189.807745 
L 721.770097 189.756075 
L 722.997816 189.628537 
L 724.634774 189.688666 
L 727.29483 189.626648 
L 728.317929 189.671221 
L 729.954886 189.801256 
L 730.568746 189.890768 
L 731.182605 189.624624 
L 732.205703 189.075204 
L 733.433422 188.674539 
L 735.888859 189.315911 
L 736.911957 189.719942 
L 738.753535 189.652192 
L 739.367394 189.58254 
L 740.185873 189.3905 
L 743.459788 189.126712 
L 747.552183 189.670926 
L 748.779901 189.513964 
L 749.59838 189.59126 
L 750.416859 189.402266 
L 751.439958 189.494724 
L 752.053817 189.573849 
L 752.667676 189.423357 
L 753.281535 189.295993 
L 753.895395 189.505369 
L 755.123113 189.998325 
L 755.736972 190.037831 
L 756.760071 189.919779 
L 757.783169 189.949296 
L 758.397028 189.855894 
L 759.215507 189.666559 
L 761.261705 189.676775 
L 762.898662 189.898881 
L 764.53562 189.689101 
L 765.354099 189.402693 
L 765.763339 189.229221 
L 766.172578 189.26865 
L 766.786437 189.414272 
L 768.423395 189.359006 
L 769.855733 189.623675 
L 770.469592 189.742345 
L 770.878832 189.67564 
L 772.10655 189.245499 
L 772.720409 189.525445 
L 773.538888 189.874308 
L 774.561987 189.88327 
L 775.380466 189.871019 
L 776.812804 189.46368 
L 778.040522 189.480978 
L 781.109818 189.609909 
L 782.132917 189.227596 
L 782.542156 189.218547 
L 784.588354 189.679621 
L 785.406832 189.618917 
L 786.225311 189.714466 
L 787.657649 189.333642 
L 788.271509 189.149287 
L 791.136185 189.269455 
L 792.363903 189.522256 
L 793.182382 189.755456 
L 794.000861 189.980986 
L 794.61472 189.91104 
L 795.433199 189.805221 
L 796.660917 190.075515 
L 797.274777 190.081911 
L 799.934833 189.623079 
L 800.548692 189.50415 
L 801.571791 189.520476 
L 803.822608 189.847237 
L 805.254946 189.588843 
L 806.482664 189.888667 
L 807.915002 189.990202 
L 810.165819 190.182114 
L 811.598157 189.846131 
L 812.212017 189.788932 
L 814.872073 190.210177 
L 815.690552 189.901974 
L 816.304411 189.641795 
L 816.91827 189.669889 
L 817.736749 189.629464 
L 819.169087 189.706551 
L 820.601425 189.950388 
L 821.419904 189.849397 
L 823.261482 189.543582 
L 824.69382 189.516783 
L 825.512299 189.42662 
L 826.330778 189.264589 
L 828.581595 189.74707 
L 829.400074 189.912717 
L 832.878609 189.695054 
L 834.310947 189.852429 
L 835.743285 189.737485 
L 837.380243 189.846424 
L 838.198722 189.808025 
L 840.449539 190.03255 
L 841.472638 189.691312 
L 843.928074 189.714227 
L 844.951173 189.321505 
L 845.769652 189.459335 
L 846.588131 189.487037 
L 848.225089 189.479625 
L 848.838948 189.867509 
L 849.248187 190.14013 
L 849.657427 190.19305 
L 851.089765 189.93313 
L 852.112863 190.063621 
L 853.340582 189.978258 
L 854.159061 190.16164 
L 856.409878 189.483366 
L 857.432976 189.546243 
L 858.251455 189.442332 
L 860.706892 189.47991 
L 861.93461 189.809855 
L 862.548469 189.72964 
L 864.594667 189.12971 
L 866.027005 189.044253 
L 867.050103 188.859221 
L 868.073202 189.014625 
L 872.779456 188.411491 
L 873.393315 188.12241 
L 874.007174 187.546394 
L 875.234892 186.020577 
L 875.848752 185.031407 
L 876.462611 183.440179 
L 877.07647 180.963604 
L 877.690329 177.401049 
L 878.099569 174.0331 
L 878.508808 169.265395 
L 879.531907 153.620134 
L 879.736526 152.934889 
L 879.941146 153.724056 
L 880.759625 159.856596 
L 880.964245 160.113544 
L 881.168865 159.587323 
L 881.373484 158.23207 
L 881.782724 152.82968 
L 882.191963 143.596716 
L 882.805822 127.826884 
L 883.010442 126.140776 
L 883.215062 127.812789 
L 883.624301 138.127178 
L 884.23816 153.662483 
L 884.6474 159.382413 
L 885.056639 161.596499 
L 885.261259 161.517169 
L 885.465879 160.734447 
L 886.284358 155.397387 
L 886.488977 155.969116 
L 886.898217 161.136893 
L 887.716696 173.75852 
L 888.330555 179.170563 
L 888.944414 182.580241 
L 889.558273 184.505865 
L 890.172133 185.585521 
L 890.990611 186.284652 
L 892.01371 187.098553 
L 892.832189 187.42846 
L 893.855288 187.711862 
L 894.673767 187.979825 
L 895.492245 188.087975 
L 896.106105 188.167021 
L 896.719964 188.130834 
L 897.743062 188.325971 
L 898.970781 188.016627 
L 899.58464 188.11656 
L 900.198499 188.214647 
L 901.016978 188.23827 
L 902.244696 188.472271 
L 903.267795 188.483457 
L 905.518612 187.796975 
L 906.132471 187.524472 
L 906.74633 187.578187 
L 907.564809 187.642429 
L 908.587908 187.286371 
L 909.815626 186.892999 
L 910.634105 186.622242 
L 913.089542 185.496039 
L 913.703401 185.353198 
L 914.931119 185.262126 
L 915.544979 185.223705 
L 916.158838 185.558205 
L 918.000415 186.721394 
L 919.023514 187.077861 
L 919.432753 187.5295 
L 920.046613 188.342143 
L 920.455852 188.313624 
L 921.274331 187.700433 
L 922.09281 187.170052 
L 922.706669 187.052321 
L 923.320528 186.957498 
L 924.343627 186.49335 
L 924.957486 186.552883 
L 928.026782 187.791435 
L 929.049881 187.914491 
L 929.66374 188.051709 
L 930.891458 188.468963 
L 931.709937 188.532401 
L 932.528416 188.812451 
L 933.960754 188.931799 
L 936.620811 189.03134 
L 937.848529 188.898076 
L 938.871628 189.057972 
L 939.690106 189.06746 
L 940.508585 189.085421 
L 941.940923 188.874285 
L 942.759402 188.852896 
L 945.214839 187.884897 
L 949.307234 185.040274 
L 949.921093 184.164075 
L 950.534952 182.844174 
L 952.17191 178.30617 
L 952.785769 175.981332 
L 953.604248 171.85503 
L 954.422727 166.601149 
L 955.855065 156.96932 
L 956.264304 155.953961 
L 956.468924 156.023956 
L 956.673544 156.462156 
L 957.082783 158.24716 
L 957.901262 163.698874 
L 958.924361 170.131021 
L 959.74284 173.768515 
L 960.356699 175.559587 
L 961.993657 179.458472 
L 963.016755 182.421765 
L 963.630614 183.641211 
L 964.449093 184.679374 
L 965.267572 185.456842 
L 965.881431 185.754376 
L 966.495291 186.055148 
L 967.31377 186.518603 
L 968.132248 186.641587 
L 969.973826 186.559728 
L 970.587685 186.676169 
L 973.043122 187.755103 
L 973.452361 187.636331 
L 974.066221 187.339549 
L 974.47546 187.508338 
L 975.293939 188.204064 
L 976.112418 188.488379 
L 976.726277 188.485215 
L 977.340136 188.467985 
L 977.953995 188.766416 
L 978.567855 189.095418 
L 979.386333 189.172943 
L 980.409432 189.168293 
L 981.227911 189.132441 
L 982.660249 189.409495 
L 984.297207 189.067689 
L 986.548024 188.956075 
L 987.366503 189.048279 
L 989.20808 188.940725 
L 990.026559 188.943599 
L 991.458897 188.618503 
L 992.891235 188.780431 
L 993.505095 188.631208 
L 995.346672 188.514001 
L 996.165151 188.36145 
L 996.77901 188.550233 
L 997.802109 188.96089 
L 998.825207 189.049657 
L 999.439067 188.970583 
L 1000.257546 188.793296 
L 1001.076024 189.116595 
L 1001.689884 189.235324 
L 1003.122222 189.294114 
L 1004.14532 189.452024 
L 1005.373039 189.4924 
L 1006.396137 189.70505 
L 1007.009997 189.542876 
L 1007.828475 189.251684 
L 1008.442335 189.393489 
L 1009.465433 189.632138 
L 1010.283912 189.674828 
L 1011.511631 189.487763 
L 1012.330109 189.305191 
L 1013.762448 189.396403 
L 1014.785546 189.281659 
L 1016.627124 189.562539 
L 1017.854842 189.6247 
L 1019.28718 189.843279 
L 1020.105659 189.999181 
L 1020.719518 190.039643 
L 1021.333377 189.858434 
L 1022.970335 189.11214 
L 1023.788814 189.019585 
L 1025.221152 189.095152 
L 1026.85811 189.186482 
L 1028.495068 189.522281 
L 1029.313547 189.43826 
L 1029.927406 189.307217 
L 1031.155124 189.321575 
L 1032.792082 188.644398 
L 1033.815181 188.685498 
L 1034.838279 188.645481 
L 1036.884477 188.888703 
L 1037.498336 188.818029 
L 1037.907575 188.926851 
L 1039.135294 189.582736 
L 1039.953773 189.496979 
L 1042.613829 189.140912 
L 1043.636928 189.307823 
L 1045.683125 189.309718 
L 1046.501604 189.423595 
L 1047.524702 189.349589 
L 1048.752421 189.667958 
L 1050.389379 189.511542 
L 1051.003238 189.348221 
L 1051.412477 189.430827 
L 1052.230956 189.762298 
L 1053.049435 189.799616 
L 1054.481773 189.62776 
L 1055.709492 189.906133 
L 1057.755689 189.713934 
L 1058.574168 189.770107 
L 1059.597266 190.057977 
L 1061.643464 190.131785 
L 1062.257323 190.143449 
L 1063.894281 189.843227 
L 1064.917379 189.946515 
L 1065.940478 189.967707 
L 1066.554337 190.025191 
L 1069.419013 189.782013 
L 1071.055971 189.941989 
L 1072.07907 189.785606 
L 1072.897549 189.551541 
L 1074.329887 189.527948 
L 1075.148366 189.802209 
L 1075.966844 189.725776 
L 1076.580704 189.758546 
L 1078.217661 190.014037 
L 1079.854619 189.957575 
L 1080.468478 189.990906 
L 1081.286957 189.875933 
L 1082.923915 190.118662 
L 1084.560873 190.074447 
L 1085.174732 190.1557 
L 1085.788591 190.012786 
L 1086.60707 189.775886 
L 1087.630169 189.833291 
L 1088.653268 190.045503 
L 1089.267127 190.094548 
L 1091.517944 189.868197 
L 1092.541042 189.933432 
L 1093.768761 189.888155 
L 1094.58724 189.85344 
L 1096.428817 189.463137 
L 1097.247296 189.590219 
L 1098.065775 189.764547 
L 1099.293493 189.724646 
L 1101.74893 189.341886 
L 1102.772029 189.322417 
L 1103.999747 189.513418 
L 1105.432085 189.537885 
L 1106.864423 189.729831 
L 1107.682902 190.044137 
L 1108.501381 189.954355 
L 1110.138339 189.577768 
L 1112.593776 189.972971 
L 1113.412254 189.804716 
L 1114.435353 189.532423 
L 1116.072311 189.589106 
L 1117.09541 189.724813 
L 1119.755466 189.751897 
L 1121.187804 189.339759 
L 1124.05248 189.464924 
L 1125.280199 189.261391 
L 1126.507917 189.515726 
L 1127.531016 189.705173 
L 1128.349495 189.672792 
L 1129.167973 189.795544 
L 1131.009551 189.81679 
L 1132.646509 189.717177 
L 1134.283467 189.838101 
L 1139.39896 189.34533 
L 1140.831298 189.518774 
L 1142.059016 189.362517 
L 1143.082115 189.681109 
L 1143.695974 189.870839 
L 1145.128312 189.819964 
L 1148.402228 189.758674 
L 1149.220707 189.829833 
L 1150.039186 189.869215 
L 1153.722341 189.565756 
L 1155.973158 189.697473 
L 1156.791637 189.952928 
L 1158.223975 190.032548 
L 1160.065552 189.763544 
L 1161.70251 189.858161 
L 1162.725609 189.794752 
L 1164.771806 189.56847 
L 1165.385665 189.53602 
L 1165.999524 189.425144 
L 1166.613383 189.595566 
L 1167.841102 189.980931 
L 1168.250341 190.018946 
L 1168.8642 189.762774 
L 1169.682679 189.476518 
L 1170.910398 189.417357 
L 1172.956595 189.581139 
L 1173.775074 189.679176 
L 1175.821271 189.423 
L 1177.253609 189.254966 
L 1178.685947 189.377475 
L 1181.550624 189.181756 
L 1183.392201 189.67471 
L 1184.00606 189.639369 
L 1184.824539 189.424898 
L 1184.824539 189.424898 
" clip-path="url(#pbc25956444)" style="fill: none; stroke: #000000; stroke-width: 2; stroke-linecap: square"/>
   </g>
   <g id="patch_3">
    <path d="M 3.00024 198.907885 
L 1184.99976 198.907885 
" style="fill: none; stroke: #000000; stroke-width: 2; stroke-linejoin: miter; stroke-linecap: square"/>
   </g>
  </g>
 </g>
 <defs>
  <clipPath id="pbc25956444">
   <rect x="3.00024" y="3.00024" width="1181.99952" height="195.907645"/>
  </clipPath>
 </defs>
</svg>
