<?xml version="1.0" encoding="utf-8" standalone="no"?>
<!DOCTYPE svg PUBLIC "-//W3C//DTD SVG 1.1//EN"
  "http://www.w3.org/Graphics/SVG/1.1/DTD/svg11.dtd">
<svg xmlns:xlink="http://www.w3.org/1999/xlink" width="1188pt" height="252pt" viewBox="0 0 1188 252" xmlns="http://www.w3.org/2000/svg" version="1.1">
 <metadata>
  <rdf:RDF xmlns:dc="http://purl.org/dc/elements/1.1/" xmlns:cc="http://creativecommons.org/ns#" xmlns:rdf="http://www.w3.org/1999/02/22-rdf-syntax-ns#">
   <cc:Work>
    <dc:type rdf:resource="http://purl.org/dc/dcmitype/StillImage"/>
    <dc:date>2024-05-14T19:00:33.177678</dc:date>
    <dc:format>image/svg+xml</dc:format>
    <dc:creator>
     <cc:Agent>
      <dc:title>Matplotlib v3.8.0, https://matplotlib.org/</dc:title>
     </cc:Agent>
    </dc:creator>
   </cc:Work>
  </rdf:RDF>
 </metadata>
 <defs>
  <style type="text/css">*{stroke-linejoin: round; stroke-linecap: butt}</style>
 </defs>
 <g id="figure_1">
  <g id="patch_1">
   <path d="M 0 252 
L 1188 252 
L 1188 0 
L 0 0 
z
" style="fill: #ffffff"/>
  </g>
  <g id="axes_1">
   <g id="patch_2">
    <path d="M 3.00024 198.907885 
L 1184.99976 198.907885 
L 1184.99976 3.00024 
L 3.00024 3.00024 
z
" style="fill: #ffffff"/>
   </g>
   <g id="matplotlib.axis_1">
    <g id="xtick_1">
     <g id="line2d_1">
      <defs>
       <path id="m707d82f30e" d="M 0 0 
L 0 8 
" style="stroke: #000000; stroke-width: 2"/>
      </defs>
      <g>
       <use xlink:href="#m707d82f30e" x="1131.272509" y="198.907885" style="stroke: #000000; stroke-width: 2"/>
      </g>
     </g>
     <g id="text_1">
      <!-- 0 -->
      <g transform="translate(1126.267665 224.791947) scale(0.18 -0.18)">
       <defs>
        <path id="Arial-BoldMT-30" d="M 1756 4600 
Q 2422 4600 2797 4125 
Q 3244 3563 3244 2259 
Q 3244 959 2794 391 
Q 2422 -78 1756 -78 
Q 1088 -78 678 436 
Q 269 950 269 2269 
Q 269 3563 719 4131 
Q 1091 4600 1756 4600 
z
M 1756 3872 
Q 1597 3872 1472 3770 
Q 1347 3669 1278 3406 
Q 1188 3066 1188 2259 
Q 1188 1453 1269 1151 
Q 1350 850 1473 750 
Q 1597 650 1756 650 
Q 1916 650 2041 751 
Q 2166 853 2234 1116 
Q 2325 1453 2325 2259 
Q 2325 3066 2244 3367 
Q 2163 3669 2039 3770 
Q 1916 3872 1756 3872 
z
" transform="scale(0.015625)"/>
       </defs>
       <use xlink:href="#Arial-BoldMT-30"/>
      </g>
     </g>
    </g>
    <g id="xtick_2">
     <g id="line2d_2">
      <g>
       <use xlink:href="#m707d82f30e" x="1023.818007" y="198.907885" style="stroke: #000000; stroke-width: 2"/>
      </g>
     </g>
     <g id="text_2">
      <!-- 1 -->
      <g transform="translate(1018.813164 224.791947) scale(0.18 -0.18)">
       <defs>
        <path id="Arial-BoldMT-31" d="M 2519 0 
L 1641 0 
L 1641 3309 
Q 1159 2859 506 2644 
L 506 3441 
Q 850 3553 1253 3867 
Q 1656 4181 1806 4600 
L 2519 4600 
L 2519 0 
z
" transform="scale(0.015625)"/>
       </defs>
       <use xlink:href="#Arial-BoldMT-31"/>
      </g>
     </g>
    </g>
    <g id="xtick_3">
     <g id="line2d_3">
      <g>
       <use xlink:href="#m707d82f30e" x="916.363505" y="198.907885" style="stroke: #000000; stroke-width: 2"/>
      </g>
     </g>
     <g id="text_3">
      <!-- 2 -->
      <g transform="translate(911.358662 224.791947) scale(0.18 -0.18)">
       <defs>
        <path id="Arial-BoldMT-32" d="M 3238 816 
L 3238 0 
L 159 0 
Q 209 463 459 877 
Q 709 1291 1447 1975 
Q 2041 2528 2175 2725 
Q 2356 2997 2356 3263 
Q 2356 3556 2198 3714 
Q 2041 3872 1763 3872 
Q 1488 3872 1325 3706 
Q 1163 3541 1138 3156 
L 263 3244 
Q 341 3969 753 4284 
Q 1166 4600 1784 4600 
Q 2463 4600 2850 4234 
Q 3238 3869 3238 3325 
Q 3238 3016 3127 2736 
Q 3016 2456 2775 2150 
Q 2616 1947 2200 1565 
Q 1784 1184 1673 1059 
Q 1563 934 1494 816 
L 3238 816 
z
" transform="scale(0.015625)"/>
       </defs>
       <use xlink:href="#Arial-BoldMT-32"/>
      </g>
     </g>
    </g>
    <g id="xtick_4">
     <g id="line2d_4">
      <g>
       <use xlink:href="#m707d82f30e" x="808.909004" y="198.907885" style="stroke: #000000; stroke-width: 2"/>
      </g>
     </g>
     <g id="text_4">
      <!-- 3 -->
      <g transform="translate(803.90416 224.791947) scale(0.18 -0.18)">
       <defs>
        <path id="Arial-BoldMT-33" d="M 241 1216 
L 1091 1319 
Q 1131 994 1309 822 
Q 1488 650 1741 650 
Q 2013 650 2198 856 
Q 2384 1063 2384 1413 
Q 2384 1744 2206 1937 
Q 2028 2131 1772 2131 
Q 1603 2131 1369 2066 
L 1466 2781 
Q 1822 2772 2009 2936 
Q 2197 3100 2197 3372 
Q 2197 3603 2059 3740 
Q 1922 3878 1694 3878 
Q 1469 3878 1309 3722 
Q 1150 3566 1116 3266 
L 306 3403 
Q 391 3819 561 4067 
Q 731 4316 1036 4458 
Q 1341 4600 1719 4600 
Q 2366 4600 2756 4188 
Q 3078 3850 3078 3425 
Q 3078 2822 2419 2463 
Q 2813 2378 3048 2084 
Q 3284 1791 3284 1375 
Q 3284 772 2843 347 
Q 2403 -78 1747 -78 
Q 1125 -78 715 280 
Q 306 638 241 1216 
z
" transform="scale(0.015625)"/>
       </defs>
       <use xlink:href="#Arial-BoldMT-33"/>
      </g>
     </g>
    </g>
    <g id="xtick_5">
     <g id="line2d_5">
      <g>
       <use xlink:href="#m707d82f30e" x="701.454502" y="198.907885" style="stroke: #000000; stroke-width: 2"/>
      </g>
     </g>
     <g id="text_5">
      <!-- 4 -->
      <g transform="translate(696.449658 224.791947) scale(0.18 -0.18)">
       <defs>
        <path id="Arial-BoldMT-34" d="M 1994 0 
L 1994 922 
L 119 922 
L 119 1691 
L 2106 4600 
L 2844 4600 
L 2844 1694 
L 3413 1694 
L 3413 922 
L 2844 922 
L 2844 0 
L 1994 0 
z
M 1994 1694 
L 1994 3259 
L 941 1694 
L 1994 1694 
z
" transform="scale(0.015625)"/>
       </defs>
       <use xlink:href="#Arial-BoldMT-34"/>
      </g>
     </g>
    </g>
    <g id="xtick_6">
     <g id="line2d_6">
      <g>
       <use xlink:href="#m707d82f30e" x="594" y="198.907885" style="stroke: #000000; stroke-width: 2"/>
      </g>
     </g>
     <g id="text_6">
      <!-- 5 -->
      <g transform="translate(588.995156 224.791947) scale(0.18 -0.18)">
       <defs>
        <path id="Arial-BoldMT-35" d="M 284 1178 
L 1159 1269 
Q 1197 972 1381 798 
Q 1566 625 1806 625 
Q 2081 625 2272 848 
Q 2463 1072 2463 1522 
Q 2463 1944 2273 2155 
Q 2084 2366 1781 2366 
Q 1403 2366 1103 2031 
L 391 2134 
L 841 4519 
L 3163 4519 
L 3163 3697 
L 1506 3697 
L 1369 2919 
Q 1663 3066 1969 3066 
Q 2553 3066 2959 2641 
Q 3366 2216 3366 1538 
Q 3366 972 3038 528 
Q 2591 -78 1797 -78 
Q 1163 -78 763 262 
Q 363 603 284 1178 
z
" transform="scale(0.015625)"/>
       </defs>
       <use xlink:href="#Arial-BoldMT-35"/>
      </g>
     </g>
    </g>
    <g id="xtick_7">
     <g id="line2d_7">
      <g>
       <use xlink:href="#m707d82f30e" x="486.545498" y="198.907885" style="stroke: #000000; stroke-width: 2"/>
      </g>
     </g>
     <g id="text_7">
      <!-- 6 -->
      <g transform="translate(481.540654 224.791947) scale(0.18 -0.18)">
       <defs>
        <path id="Arial-BoldMT-36" d="M 3247 3459 
L 2397 3366 
Q 2366 3628 2234 3753 
Q 2103 3878 1894 3878 
Q 1616 3878 1423 3628 
Q 1231 3378 1181 2588 
Q 1509 2975 1997 2975 
Q 2547 2975 2939 2556 
Q 3331 2138 3331 1475 
Q 3331 772 2918 347 
Q 2506 -78 1859 -78 
Q 1166 -78 719 461 
Q 272 1000 272 2228 
Q 272 3488 737 4044 
Q 1203 4600 1947 4600 
Q 2469 4600 2811 4308 
Q 3153 4016 3247 3459 
z
M 1256 1544 
Q 1256 1116 1453 883 
Q 1650 650 1903 650 
Q 2147 650 2309 840 
Q 2472 1031 2472 1466 
Q 2472 1913 2297 2120 
Q 2122 2328 1859 2328 
Q 1606 2328 1431 2129 
Q 1256 1931 1256 1544 
z
" transform="scale(0.015625)"/>
       </defs>
       <use xlink:href="#Arial-BoldMT-36"/>
      </g>
     </g>
    </g>
    <g id="xtick_8">
     <g id="line2d_8">
      <g>
       <use xlink:href="#m707d82f30e" x="379.090996" y="198.907885" style="stroke: #000000; stroke-width: 2"/>
      </g>
     </g>
     <g id="text_8">
      <!-- 7 -->
      <g transform="translate(374.086153 224.791947) scale(0.18 -0.18)">
       <defs>
        <path id="Arial-BoldMT-37" d="M 272 3703 
L 272 4519 
L 3275 4519 
L 3275 3881 
Q 2903 3516 2518 2831 
Q 2134 2147 1932 1376 
Q 1731 606 1734 0 
L 888 0 
Q 909 950 1279 1937 
Q 1650 2925 2269 3703 
L 272 3703 
z
" transform="scale(0.015625)"/>
       </defs>
       <use xlink:href="#Arial-BoldMT-37"/>
      </g>
     </g>
    </g>
    <g id="xtick_9">
     <g id="line2d_9">
      <g>
       <use xlink:href="#m707d82f30e" x="271.636495" y="198.907885" style="stroke: #000000; stroke-width: 2"/>
      </g>
     </g>
     <g id="text_9">
      <!-- 8 -->
      <g transform="translate(266.631651 224.791947) scale(0.18 -0.18)">
       <defs>
        <path id="Arial-BoldMT-38" d="M 1025 2472 
Q 684 2616 529 2867 
Q 375 3119 375 3419 
Q 375 3931 733 4265 
Q 1091 4600 1750 4600 
Q 2403 4600 2764 4265 
Q 3125 3931 3125 3419 
Q 3125 3100 2959 2851 
Q 2794 2603 2494 2472 
Q 2875 2319 3073 2025 
Q 3272 1731 3272 1347 
Q 3272 713 2867 316 
Q 2463 -81 1791 -81 
Q 1166 -81 750 247 
Q 259 634 259 1309 
Q 259 1681 443 1992 
Q 628 2303 1025 2472 
z
M 1206 3356 
Q 1206 3094 1354 2947 
Q 1503 2800 1750 2800 
Q 2000 2800 2150 2948 
Q 2300 3097 2300 3359 
Q 2300 3606 2151 3754 
Q 2003 3903 1759 3903 
Q 1506 3903 1356 3753 
Q 1206 3603 1206 3356 
z
M 1125 1394 
Q 1125 1031 1311 828 
Q 1497 625 1775 625 
Q 2047 625 2225 820 
Q 2403 1016 2403 1384 
Q 2403 1706 2222 1901 
Q 2041 2097 1763 2097 
Q 1441 2097 1283 1875 
Q 1125 1653 1125 1394 
z
" transform="scale(0.015625)"/>
       </defs>
       <use xlink:href="#Arial-BoldMT-38"/>
      </g>
     </g>
    </g>
    <g id="xtick_10">
     <g id="line2d_10">
      <g>
       <use xlink:href="#m707d82f30e" x="164.181993" y="198.907885" style="stroke: #000000; stroke-width: 2"/>
      </g>
     </g>
     <g id="text_10">
      <!-- 9 -->
      <g transform="translate(159.177149 224.791947) scale(0.18 -0.18)">
       <defs>
        <path id="Arial-BoldMT-39" d="M 291 1059 
L 1141 1153 
Q 1172 894 1303 769 
Q 1434 644 1650 644 
Q 1922 644 2112 894 
Q 2303 1144 2356 1931 
Q 2025 1547 1528 1547 
Q 988 1547 595 1964 
Q 203 2381 203 3050 
Q 203 3747 617 4173 
Q 1031 4600 1672 4600 
Q 2369 4600 2816 4061 
Q 3263 3522 3263 2288 
Q 3263 1031 2797 475 
Q 2331 -81 1584 -81 
Q 1047 -81 715 205 
Q 384 491 291 1059 
z
M 2278 2978 
Q 2278 3403 2083 3637 
Q 1888 3872 1631 3872 
Q 1388 3872 1227 3680 
Q 1066 3488 1066 3050 
Q 1066 2606 1241 2398 
Q 1416 2191 1678 2191 
Q 1931 2191 2104 2391 
Q 2278 2591 2278 2978 
z
" transform="scale(0.015625)"/>
       </defs>
       <use xlink:href="#Arial-BoldMT-39"/>
      </g>
     </g>
    </g>
    <g id="xtick_11">
     <g id="line2d_11">
      <g>
       <use xlink:href="#m707d82f30e" x="56.727491" y="198.907885" style="stroke: #000000; stroke-width: 2"/>
      </g>
     </g>
     <g id="text_11">
      <!-- 10 -->
      <g transform="translate(46.717803 224.791947) scale(0.18 -0.18)">
       <use xlink:href="#Arial-BoldMT-31"/>
       <use xlink:href="#Arial-BoldMT-30" x="55.615234"/>
      </g>
     </g>
    </g>
    <g id="text_12">
     <!-- Chemical Shift / ppm -->
     <g transform="translate(504.992813 245.447573) scale(0.18 -0.18)">
      <defs>
       <path id="Arial-BoldMT-43" d="M 3397 1684 
L 4294 1400 
Q 4088 650 3608 286 
Q 3128 -78 2391 -78 
Q 1478 -78 890 545 
Q 303 1169 303 2250 
Q 303 3394 893 4026 
Q 1484 4659 2447 4659 
Q 3288 4659 3813 4163 
Q 4125 3869 4281 3319 
L 3366 3100 
Q 3284 3456 3026 3662 
Q 2769 3869 2400 3869 
Q 1891 3869 1573 3503 
Q 1256 3138 1256 2319 
Q 1256 1450 1568 1081 
Q 1881 713 2381 713 
Q 2750 713 3015 947 
Q 3281 1181 3397 1684 
z
" transform="scale(0.015625)"/>
       <path id="Arial-BoldMT-68" d="M 1334 4581 
L 1334 2897 
Q 1759 3394 2350 3394 
Q 2653 3394 2897 3281 
Q 3141 3169 3264 2994 
Q 3388 2819 3433 2606 
Q 3478 2394 3478 1947 
L 3478 0 
L 2600 0 
L 2600 1753 
Q 2600 2275 2550 2415 
Q 2500 2556 2373 2639 
Q 2247 2722 2056 2722 
Q 1838 2722 1666 2615 
Q 1494 2509 1414 2295 
Q 1334 2081 1334 1663 
L 1334 0 
L 456 0 
L 456 4581 
L 1334 4581 
z
" transform="scale(0.015625)"/>
       <path id="Arial-BoldMT-65" d="M 2381 1056 
L 3256 909 
Q 3088 428 2723 176 
Q 2359 -75 1813 -75 
Q 947 -75 531 491 
Q 203 944 203 1634 
Q 203 2459 634 2926 
Q 1066 3394 1725 3394 
Q 2466 3394 2894 2905 
Q 3322 2416 3303 1406 
L 1103 1406 
Q 1113 1016 1316 798 
Q 1519 581 1822 581 
Q 2028 581 2168 693 
Q 2309 806 2381 1056 
z
M 2431 1944 
Q 2422 2325 2234 2523 
Q 2047 2722 1778 2722 
Q 1491 2722 1303 2513 
Q 1116 2303 1119 1944 
L 2431 1944 
z
" transform="scale(0.015625)"/>
       <path id="Arial-BoldMT-6d" d="M 394 3319 
L 1203 3319 
L 1203 2866 
Q 1638 3394 2238 3394 
Q 2556 3394 2790 3262 
Q 3025 3131 3175 2866 
Q 3394 3131 3647 3262 
Q 3900 3394 4188 3394 
Q 4553 3394 4806 3245 
Q 5059 3097 5184 2809 
Q 5275 2597 5275 2122 
L 5275 0 
L 4397 0 
L 4397 1897 
Q 4397 2391 4306 2534 
Q 4184 2722 3931 2722 
Q 3747 2722 3584 2609 
Q 3422 2497 3350 2280 
Q 3278 2063 3278 1594 
L 3278 0 
L 2400 0 
L 2400 1819 
Q 2400 2303 2353 2443 
Q 2306 2584 2207 2653 
Q 2109 2722 1941 2722 
Q 1738 2722 1575 2612 
Q 1413 2503 1342 2297 
Q 1272 2091 1272 1613 
L 1272 0 
L 394 0 
L 394 3319 
z
" transform="scale(0.015625)"/>
       <path id="Arial-BoldMT-69" d="M 459 3769 
L 459 4581 
L 1338 4581 
L 1338 3769 
L 459 3769 
z
M 459 0 
L 459 3319 
L 1338 3319 
L 1338 0 
L 459 0 
z
" transform="scale(0.015625)"/>
       <path id="Arial-BoldMT-63" d="M 3353 2338 
L 2488 2181 
Q 2444 2441 2289 2572 
Q 2134 2703 1888 2703 
Q 1559 2703 1364 2476 
Q 1169 2250 1169 1719 
Q 1169 1128 1367 884 
Q 1566 641 1900 641 
Q 2150 641 2309 783 
Q 2469 925 2534 1272 
L 3397 1125 
Q 3263 531 2881 228 
Q 2500 -75 1859 -75 
Q 1131 -75 698 384 
Q 266 844 266 1656 
Q 266 2478 700 2936 
Q 1134 3394 1875 3394 
Q 2481 3394 2839 3133 
Q 3197 2872 3353 2338 
z
" transform="scale(0.015625)"/>
       <path id="Arial-BoldMT-61" d="M 1116 2306 
L 319 2450 
Q 453 2931 781 3162 
Q 1109 3394 1756 3394 
Q 2344 3394 2631 3255 
Q 2919 3116 3036 2902 
Q 3153 2688 3153 2116 
L 3144 1091 
Q 3144 653 3186 445 
Q 3228 238 3344 0 
L 2475 0 
Q 2441 88 2391 259 
Q 2369 338 2359 363 
Q 2134 144 1878 34 
Q 1622 -75 1331 -75 
Q 819 -75 523 203 
Q 228 481 228 906 
Q 228 1188 362 1408 
Q 497 1628 739 1745 
Q 981 1863 1438 1950 
Q 2053 2066 2291 2166 
L 2291 2253 
Q 2291 2506 2166 2614 
Q 2041 2722 1694 2722 
Q 1459 2722 1328 2630 
Q 1197 2538 1116 2306 
z
M 2291 1594 
Q 2122 1538 1756 1459 
Q 1391 1381 1278 1306 
Q 1106 1184 1106 997 
Q 1106 813 1243 678 
Q 1381 544 1594 544 
Q 1831 544 2047 700 
Q 2206 819 2256 991 
Q 2291 1103 2291 1419 
L 2291 1594 
z
" transform="scale(0.015625)"/>
       <path id="Arial-BoldMT-6c" d="M 459 0 
L 459 4581 
L 1338 4581 
L 1338 0 
L 459 0 
z
" transform="scale(0.015625)"/>
       <path id="Arial-BoldMT-20" transform="scale(0.015625)"/>
       <path id="Arial-BoldMT-53" d="M 231 1491 
L 1131 1578 
Q 1213 1125 1461 912 
Q 1709 700 2131 700 
Q 2578 700 2804 889 
Q 3031 1078 3031 1331 
Q 3031 1494 2936 1608 
Q 2841 1722 2603 1806 
Q 2441 1863 1863 2006 
Q 1119 2191 819 2459 
Q 397 2838 397 3381 
Q 397 3731 595 4036 
Q 794 4341 1167 4500 
Q 1541 4659 2069 4659 
Q 2931 4659 3367 4281 
Q 3803 3903 3825 3272 
L 2900 3231 
Q 2841 3584 2645 3739 
Q 2450 3894 2059 3894 
Q 1656 3894 1428 3728 
Q 1281 3622 1281 3444 
Q 1281 3281 1419 3166 
Q 1594 3019 2269 2859 
Q 2944 2700 3267 2529 
Q 3591 2359 3773 2064 
Q 3956 1769 3956 1334 
Q 3956 941 3737 597 
Q 3519 253 3119 86 
Q 2719 -81 2122 -81 
Q 1253 -81 787 320 
Q 322 722 231 1491 
z
" transform="scale(0.015625)"/>
       <path id="Arial-BoldMT-66" d="M 75 3319 
L 563 3319 
L 563 3569 
Q 563 3988 652 4194 
Q 741 4400 980 4529 
Q 1219 4659 1584 4659 
Q 1959 4659 2319 4547 
L 2200 3934 
Q 1991 3984 1797 3984 
Q 1606 3984 1523 3895 
Q 1441 3806 1441 3553 
L 1441 3319 
L 2097 3319 
L 2097 2628 
L 1441 2628 
L 1441 0 
L 563 0 
L 563 2628 
L 75 2628 
L 75 3319 
z
" transform="scale(0.015625)"/>
       <path id="Arial-BoldMT-74" d="M 1981 3319 
L 1981 2619 
L 1381 2619 
L 1381 1281 
Q 1381 875 1398 808 
Q 1416 741 1477 697 
Q 1538 653 1625 653 
Q 1747 653 1978 738 
L 2053 56 
Q 1747 -75 1359 -75 
Q 1122 -75 931 4 
Q 741 84 652 211 
Q 563 338 528 553 
Q 500 706 500 1172 
L 500 2619 
L 97 2619 
L 97 3319 
L 500 3319 
L 500 3978 
L 1381 4491 
L 1381 3319 
L 1981 3319 
z
" transform="scale(0.015625)"/>
       <path id="Arial-BoldMT-2f" d="M -9 -78 
L 1125 4659 
L 1784 4659 
L 638 -78 
L -9 -78 
z
" transform="scale(0.015625)"/>
       <path id="Arial-BoldMT-70" d="M 434 3319 
L 1253 3319 
L 1253 2831 
Q 1413 3081 1684 3237 
Q 1956 3394 2288 3394 
Q 2866 3394 3269 2941 
Q 3672 2488 3672 1678 
Q 3672 847 3265 386 
Q 2859 -75 2281 -75 
Q 2006 -75 1782 34 
Q 1559 144 1313 409 
L 1313 -1263 
L 434 -1263 
L 434 3319 
z
M 1303 1716 
Q 1303 1156 1525 889 
Q 1747 622 2066 622 
Q 2372 622 2575 867 
Q 2778 1113 2778 1672 
Q 2778 2194 2568 2447 
Q 2359 2700 2050 2700 
Q 1728 2700 1515 2451 
Q 1303 2203 1303 1716 
z
" transform="scale(0.015625)"/>
      </defs>
      <use xlink:href="#Arial-BoldMT-43"/>
      <use xlink:href="#Arial-BoldMT-68" x="72.216797"/>
      <use xlink:href="#Arial-BoldMT-65" x="133.300781"/>
      <use xlink:href="#Arial-BoldMT-6d" x="188.916016"/>
      <use xlink:href="#Arial-BoldMT-69" x="277.832031"/>
      <use xlink:href="#Arial-BoldMT-63" x="305.615234"/>
      <use xlink:href="#Arial-BoldMT-61" x="361.230469"/>
      <use xlink:href="#Arial-BoldMT-6c" x="416.845703"/>
      <use xlink:href="#Arial-BoldMT-20" x="444.628906"/>
      <use xlink:href="#Arial-BoldMT-53" x="472.412109"/>
      <use xlink:href="#Arial-BoldMT-68" x="539.111328"/>
      <use xlink:href="#Arial-BoldMT-69" x="600.195312"/>
      <use xlink:href="#Arial-BoldMT-66" x="627.978516"/>
      <use xlink:href="#Arial-BoldMT-74" x="661.279297"/>
      <use xlink:href="#Arial-BoldMT-20" x="694.580078"/>
      <use xlink:href="#Arial-BoldMT-2f" x="722.363281"/>
      <use xlink:href="#Arial-BoldMT-20" x="750.146484"/>
      <use xlink:href="#Arial-BoldMT-70" x="777.929688"/>
      <use xlink:href="#Arial-BoldMT-70" x="839.013672"/>
      <use xlink:href="#Arial-BoldMT-6d" x="900.097656"/>
     </g>
    </g>
   </g>
   <g id="matplotlib.axis_2"/>
   <g id="line2d_12">
    <path d="M 2.962783 189.593582 
L 7.464417 189.536493 
L 9.510614 189.52585 
L 12.37529 189.638657 
L 16.263065 189.464049 
L 17.490783 189.42646 
L 23.424756 189.586969 
L 25.266333 189.646174 
L 27.31253 189.567022 
L 30.586446 189.562127 
L 32.837263 189.637265 
L 34.269601 189.621985 
L 37.748136 189.516709 
L 39.180474 189.559933 
L 43.477489 189.604212 
L 47.979123 189.584145 
L 50.22994 189.618281 
L 51.662278 189.668194 
L 56.368532 189.521532 
L 58.005489 189.51986 
L 61.279405 189.58161 
L 63.734842 189.600424 
L 66.394898 189.632609 
L 68.031856 189.573572 
L 69.054955 189.554549 
L 73.147349 189.621615 
L 76.625884 189.628387 
L 116.322111 189.471479 
L 117.959069 189.487241 
L 119.391407 189.457752 
L 120.619126 189.548087 
L 121.846844 189.509353 
L 123.483802 189.537397 
L 126.962337 189.55117 
L 159.496874 189.592039 
L 160.519972 189.538631 
L 162.15693 189.548654 
L 163.180029 189.571023 
L 165.021606 189.668858 
L 172.387917 189.515297 
L 174.638734 189.5583 
L 178.526508 189.532211 
L 183.642002 189.581706 
L 193.463748 189.559406 
L 195.305326 189.627789 
L 204.308594 189.496612 
L 205.740932 189.584076 
L 207.991749 189.521672 
L 212.902623 189.486205 
L 214.130341 189.469105 
L 218.018116 189.395696 
L 220.268933 189.359645 
L 221.496651 189.201503 
L 225.793665 189.365314 
L 227.226003 189.400334 
L 231.318398 189.334753 
L 233.569215 189.37829 
L 235.820032 189.241115 
L 237.866229 189.289339 
L 241.754004 189.247457 
L 246.664877 189.127508 
L 248.506455 189.071415 
L 252.39423 188.941077 
L 255.668145 188.768823 
L 259.76054 188.532146 
L 261.806737 188.457864 
L 264.876033 188.223779 
L 267.12685 187.596504 
L 268.763808 186.953769 
L 269.786907 186.34962 
L 271.014625 185.340916 
L 271.833104 184.425363 
L 272.651583 183.113672 
L 273.265442 181.731384 
L 273.879301 179.871346 
L 274.49316 177.225251 
L 275.107019 173.432333 
L 275.720879 168.006321 
L 276.539358 157.866334 
L 277.767076 142.168273 
L 278.176315 138.872148 
L 278.585555 136.950456 
L 278.790175 136.504274 
L 278.994794 136.40455 
L 279.199414 136.656279 
L 279.404034 137.265603 
L 279.813273 139.576832 
L 280.222513 143.362224 
L 280.836372 151.41285 
L 282.26871 171.651616 
L 282.882569 177.226597 
L 283.496428 180.788439 
L 284.110287 183.010457 
L 284.724147 184.409474 
L 285.338006 185.236421 
L 286.156485 185.845604 
L 288.407302 187.182655 
L 289.63502 187.490105 
L 292.090457 187.876756 
L 294.545894 187.968129 
L 298.024429 187.530463 
L 298.842908 187.361208 
L 301.298344 187.346278 
L 303.549161 186.802385 
L 304.9815 186.322646 
L 306.823077 185.412755 
L 308.460035 184.382166 
L 309.278514 183.587598 
L 310.301612 182.24939 
L 311.120091 180.720406 
L 312.14319 178.222465 
L 313.166289 175.107856 
L 314.598627 170.518169 
L 315.212486 169.283367 
L 315.621725 168.898284 
L 316.030965 168.837224 
L 316.440204 169.084332 
L 317.054063 169.92703 
L 317.872542 171.189814 
L 318.281782 171.477318 
L 318.691021 171.380895 
L 319.100261 170.880741 
L 319.71412 169.479336 
L 320.737219 166.226722 
L 321.760317 162.952088 
L 322.169557 162.032538 
L 322.578796 161.585496 
L 322.988036 161.594354 
L 323.397275 162.122904 
L 323.806514 163.150529 
L 324.420374 165.329035 
L 326.671191 174.456781 
L 327.28505 175.85206 
L 327.694289 176.292099 
L 328.103529 176.365251 
L 328.512768 176.0699 
L 328.922008 175.384224 
L 329.331247 174.285215 
L 329.945106 171.776161 
L 330.558965 167.918846 
L 331.172825 162.223924 
L 331.786684 153.918002 
L 332.400543 141.374549 
L 332.809782 129.266406 
L 333.219022 112.372156 
L 333.628261 88.150212 
L 334.85598 3.00024 
L 335.060599 10.070979 
L 335.469839 45.833905 
L 336.083698 101.331185 
L 336.697557 134.39891 
L 337.311416 152.289998 
L 337.925276 162.43333 
L 338.539135 168.529091 
L 339.152994 172.255683 
L 339.562233 173.797426 
L 339.971473 174.731735 
L 340.380712 175.170895 
L 340.789952 175.217178 
L 341.199191 174.96977 
L 341.81305 174.217734 
L 343.450008 171.795734 
L 343.859248 171.552362 
L 344.268487 171.625171 
L 344.677727 172.048746 
L 345.291586 173.248331 
L 346.110065 175.570965 
L 347.951642 180.912636 
L 348.770121 182.688996 
L 349.79322 184.420836 
L 350.611699 185.458405 
L 351.634797 186.367433 
L 352.657896 187.034594 
L 353.885614 187.49234 
L 356.95491 188.229243 
L 358.387248 188.46664 
L 360.842685 188.915655 
L 368.413615 189.279804 
L 373.733728 189.265522 
L 375.575305 189.250404 
L 378.439981 189.42088 
L 380.895418 189.491684 
L 389.898686 189.440609 
L 394.40032 189.373057 
L 396.037278 189.33205 
L 399.720433 189.297299 
L 401.152771 189.232596 
L 401.97125 189.246385 
L 403.198968 189.320795 
L 406.472884 189.24959 
L 408.723701 189.273793 
L 410.360659 188.908404 
L 412.816096 189.262513 
L 417.522349 189.266256 
L 422.637842 189.228183 
L 424.070181 189.385894 
L 431.84573 189.598043 
L 432.868829 189.572454 
L 434.505787 189.48901 
L 439.8259 189.438496 
L 441.258238 189.444633 
L 443.099815 189.406853 
L 444.122914 189.453689 
L 446.578351 189.458901 
L 450.056886 189.520435 
L 451.284604 189.587562 
L 456.195478 189.57559 
L 457.423196 189.599256 
L 459.264774 189.545806 
L 460.492492 189.586117 
L 461.92483 189.565056 
L 463.357168 189.580389 
L 466.221844 189.640322 
L 468.472661 189.666821 
L 471.951197 189.572934 
L 474.815873 189.658149 
L 486.479197 189.570436 
L 487.911535 189.524989 
L 490.571592 189.483598 
L 496.914803 189.616996 
L 498.961001 189.604965 
L 501.007198 189.451686 
L 505.918071 189.444349 
L 508.168888 189.521597 
L 511.033564 189.439315 
L 512.261283 189.401584 
L 513.898241 189.391636 
L 515.944438 189.411497 
L 522.901509 189.166 
L 527.198523 188.756756 
L 529.858579 188.462918 
L 531.904777 188.135368 
L 534.769453 187.147282 
L 536.81565 186.385805 
L 538.043368 185.887252 
L 539.475706 185.011623 
L 542.135763 182.953965 
L 543.363481 181.782219 
L 545.409679 179.488177 
L 548.478974 174.83288 
L 553.185228 166.927406 
L 553.594468 166.788221 
L 554.003707 167.042767 
L 554.617566 167.975728 
L 555.640665 169.854481 
L 556.254524 171.721838 
L 557.686862 177.39986 
L 558.709961 183.51776 
L 558.914581 183.330191 
L 559.733059 181.336519 
L 560.551538 180.275198 
L 562.188496 177.56502 
L 562.802355 177.257998 
L 563.211595 177.206208 
L 563.620834 177.316389 
L 564.439313 177.840187 
L 565.257792 178.515458 
L 569.145567 182.37749 
L 570.782525 183.779056 
L 572.214863 184.651358 
L 576.921116 186.855716 
L 578.148835 187.180177 
L 583.673567 188.125181 
L 585.719765 188.409588 
L 587.152103 188.52422 
L 593.904554 189.020404 
L 614.571146 189.467083 
L 616.412724 189.351116 
L 619.686639 189.360287 
L 623.574414 189.453393 
L 627.871428 189.499678 
L 629.508386 189.514963 
L 665.112219 189.568484 
L 666.544557 189.559831 
L 667.772275 189.544705 
L 669.613853 189.441154 
L 676.161684 189.679936 
L 677.389402 189.714953 
L 678.82174 189.545101 
L 679.844839 189.491838 
L 683.527994 189.67917 
L 686.39267 189.546508 
L 687.825008 189.521969 
L 693.145121 189.55919 
L 695.191319 189.449341 
L 701.94377 189.610643 
L 704.603826 189.537879 
L 706.854643 189.587158 
L 707.877742 189.53586 
L 709.10546 189.485133 
L 714.220953 189.62865 
L 716.88101 189.599333 
L 721.587263 189.641181 
L 735.706024 189.477325 
L 737.342982 189.289435 
L 738.161461 188.998852 
L 739.38918 188.362952 
L 739.798419 188.568051 
L 740.616898 189.04611 
L 741.639997 189.246644 
L 745.323152 189.551235 
L 747.573969 189.508013 
L 752.075603 189.504603 
L 753.507941 189.523517 
L 756.577237 189.616656 
L 760.874251 189.614679 
L 772.128336 189.563942 
L 775.606871 189.546029 
L 776.83459 189.539357 
L 778.676167 189.498973 
L 780.517745 189.59759 
L 786.656336 189.253571 
L 789.521013 189.246993 
L 791.36259 189.072792 
L 792.385689 188.785629 
L 793.408787 188.2658 
L 794.227266 187.611077 
L 795.045745 186.637936 
L 795.659604 185.482723 
L 796.273464 183.792258 
L 796.682703 182.136289 
L 797.091943 179.727744 
L 797.501182 176.138547 
L 797.910421 170.800682 
L 798.93352 154.725565 
L 799.13814 155.396352 
L 799.547379 161.935956 
L 800.161238 172.897562 
L 800.775098 179.35899 
L 801.388957 182.849489 
L 802.002816 184.864533 
L 802.616675 186.168598 
L 803.230534 187.031956 
L 804.049013 187.759986 
L 805.072112 188.370017 
L 806.29983 188.769451 
L 807.936788 189.013874 
L 810.187605 189.156048 
L 811.415323 189.270844 
L 813.66614 189.496108 
L 823.692507 189.602838 
L 828.398761 189.625516 
L 838.015888 189.635826 
L 839.857465 189.69471 
L 841.494423 189.663417 
L 843.94986 189.611071 
L 848.656114 189.647642 
L 850.702311 189.456721 
L 854.590086 188.85648 
L 855.408565 188.370979 
L 856.431663 187.562725 
L 856.840903 187.716319 
L 857.864001 188.44455 
L 858.477861 188.568919 
L 859.09172 188.447721 
L 859.705579 187.995492 
L 860.319438 187.396315 
L 860.524058 187.346055 
L 860.933297 187.645554 
L 861.751776 188.599422 
L 862.365635 188.98744 
L 863.593354 189.374865 
L 865.025692 189.542862 
L 868.708847 189.720953 
L 874.438199 189.722145 
L 876.279777 189.685132 
L 880.372171 189.71324 
L 882.009129 189.681269 
L 886.510763 189.493655 
L 888.352341 189.39823 
L 904.10806 189.424859 
L 908.609694 189.10962 
L 912.702088 188.838048 
L 914.339046 188.902628 
L 918.022201 189.480717 
L 918.63606 189.554698 
L 923.342314 189.218517 
L 928.457807 189.428874 
L 930.094765 189.512025 
L 933.368681 189.34585 
L 935.414878 189.084401 
L 936.233357 188.847487 
L 937.256455 188.273771 
L 937.870315 187.744835 
L 938.484174 186.887933 
L 939.098033 185.483113 
L 939.711892 183.244026 
L 940.734991 178.860073 
L 940.93961 178.688537 
L 941.14423 178.951982 
L 941.55347 180.463477 
L 942.371949 184.056506 
L 942.985808 185.81168 
L 943.599667 186.883177 
L 944.418146 187.742721 
L 945.441244 188.407252 
L 946.464343 188.786043 
L 947.692061 189.005553 
L 949.533639 189.092153 
L 952.193695 189.020632 
L 954.035273 189.106757 
L 955.672231 189.239958 
L 957.309189 189.061563 
L 959.560006 188.604304 
L 960.992344 188.354446 
L 961.606203 188.472453 
L 964.06164 189.264718 
L 967.949414 189.417332 
L 970.814091 189.335869 
L 973.474147 189.296106 
L 974.497246 189.315332 
L 976.134203 189.499609 
L 979.203499 189.544349 
L 981.045077 189.671025 
L 985.95595 189.724102 
L 987.797528 189.717573 
L 991.276063 189.618257 
L 992.503782 189.624877 
L 993.7315 189.570217 
L 994.959218 189.470661 
L 996.186937 189.465559 
L 998.028514 189.526302 
L 1006.213303 189.614828 
L 1008.259501 189.632445 
L 1009.896458 189.72306 
L 1011.328796 189.700963 
L 1016.648909 189.57642 
L 1019.104346 189.594112 
L 1022.582881 189.550063 
L 1023.8106 189.528753 
L 1025.038318 189.502434 
L 1029.949192 189.53492 
L 1033.427727 189.418783 
L 1034.860065 189.472185 
L 1038.74784 189.502904 
L 1040.180178 189.536911 
L 1041.817136 189.590766 
L 1044.886432 189.609641 
L 1048.160347 189.712552 
L 1049.183446 189.727743 
L 1053.8897 189.567794 
L 1064.529925 189.545045 
L 1066.166883 189.521011 
L 1072.714714 189.603438 
L 1074.760912 189.597068 
L 1078.034827 189.600742 
L 1080.490264 189.631305 
L 1081.717982 189.600179 
L 1084.787278 189.641625 
L 1086.628856 189.625445 
L 1089.084293 189.736122 
L 1096.041363 189.55873 
L 1097.473701 189.558261 
L 1098.90604 189.527883 
L 1103.407674 189.610308 
L 1105.249251 189.607868 
L 1107.090829 189.51164 
L 1109.955505 189.545521 
L 1110.978603 189.590541 
L 1114.252519 189.474565 
L 1115.889477 189.582129 
L 1117.526435 189.626816 
L 1119.981871 189.559895 
L 1123.255787 189.521569 
L 1128.16666 189.612295 
L 1131.440576 189.494839 
L 1133.691393 189.481069 
L 1136.556069 189.686687 
L 1141.466943 189.589223 
L 1143.103901 189.591591 
L 1146.173196 189.512621 
L 1152.925647 189.576817 
L 1155.176464 189.595512 
L 1158.041141 189.668328 
L 1173.183 189.54263 
L 1179.730832 189.56309 
L 1180.95855 189.577051 
L 1182.390888 189.567029 
L 1184.846325 189.624033 
L 1184.846325 189.624033 
" clip-path="url(#p885375d187)" style="fill: none; stroke: #000000; stroke-width: 2; stroke-linecap: square"/>
   </g>
   <g id="patch_3">
    <path d="M 3.00024 198.907885 
L 1184.99976 198.907885 
" style="fill: none; stroke: #000000; stroke-width: 2; stroke-linejoin: miter; stroke-linecap: square"/>
   </g>
  </g>
 </g>
 <defs>
  <clipPath id="p885375d187">
   <rect x="3.00024" y="3.00024" width="1181.99952" height="195.907645"/>
  </clipPath>
 </defs>
</svg>
