<?xml version="1.0" encoding="utf-8" standalone="no"?>
<!DOCTYPE svg PUBLIC "-//W3C//DTD SVG 1.1//EN"
  "http://www.w3.org/Graphics/SVG/1.1/DTD/svg11.dtd">
<svg xmlns:xlink="http://www.w3.org/1999/xlink" width="1188pt" height="252pt" viewBox="0 0 1188 252" xmlns="http://www.w3.org/2000/svg" version="1.1">
 <metadata>
  <rdf:RDF xmlns:dc="http://purl.org/dc/elements/1.1/" xmlns:cc="http://creativecommons.org/ns#" xmlns:rdf="http://www.w3.org/1999/02/22-rdf-syntax-ns#">
   <cc:Work>
    <dc:type rdf:resource="http://purl.org/dc/dcmitype/StillImage"/>
    <dc:date>2024-05-14T19:00:47.837062</dc:date>
    <dc:format>image/svg+xml</dc:format>
    <dc:creator>
     <cc:Agent>
      <dc:title>Matplotlib v3.8.0, https://matplotlib.org/</dc:title>
     </cc:Agent>
    </dc:creator>
   </cc:Work>
  </rdf:RDF>
 </metadata>
 <defs>
  <style type="text/css">*{stroke-linejoin: round; stroke-linecap: butt}</style>
 </defs>
 <g id="figure_1">
  <g id="patch_1">
   <path d="M 0 252 
L 1188 252 
L 1188 0 
L 0 0 
z
" style="fill: #ffffff"/>
  </g>
  <g id="axes_1">
   <g id="patch_2">
    <path d="M 3.00024 198.907885 
L 1184.99976 198.907885 
L 1184.99976 3.00024 
L 3.00024 3.00024 
z
" style="fill: #ffffff"/>
   </g>
   <g id="matplotlib.axis_1">
    <g id="xtick_1">
     <g id="line2d_1">
      <defs>
       <path id="mbdfd4dbee8" d="M 0 0 
L 0 8 
" style="stroke: #000000; stroke-width: 2"/>
      </defs>
      <g>
       <use xlink:href="#mbdfd4dbee8" x="1131.272509" y="198.907885" style="stroke: #000000; stroke-width: 2"/>
      </g>
     </g>
     <g id="text_1">
      <!-- 0 -->
      <g transform="translate(1126.267665 224.791947) scale(0.18 -0.18)">
       <defs>
        <path id="Arial-BoldMT-30" d="M 1756 4600 
Q 2422 4600 2797 4125 
Q 3244 3563 3244 2259 
Q 3244 959 2794 391 
Q 2422 -78 1756 -78 
Q 1088 -78 678 436 
Q 269 950 269 2269 
Q 269 3563 719 4131 
Q 1091 4600 1756 4600 
z
M 1756 3872 
Q 1597 3872 1472 3770 
Q 1347 3669 1278 3406 
Q 1188 3066 1188 2259 
Q 1188 1453 1269 1151 
Q 1350 850 1473 750 
Q 1597 650 1756 650 
Q 1916 650 2041 751 
Q 2166 853 2234 1116 
Q 2325 1453 2325 2259 
Q 2325 3066 2244 3367 
Q 2163 3669 2039 3770 
Q 1916 3872 1756 3872 
z
" transform="scale(0.015625)"/>
       </defs>
       <use xlink:href="#Arial-BoldMT-30"/>
      </g>
     </g>
    </g>
    <g id="xtick_2">
     <g id="line2d_2">
      <g>
       <use xlink:href="#mbdfd4dbee8" x="1023.818007" y="198.907885" style="stroke: #000000; stroke-width: 2"/>
      </g>
     </g>
     <g id="text_2">
      <!-- 1 -->
      <g transform="translate(1018.813164 224.791947) scale(0.18 -0.18)">
       <defs>
        <path id="Arial-BoldMT-31" d="M 2519 0 
L 1641 0 
L 1641 3309 
Q 1159 2859 506 2644 
L 506 3441 
Q 850 3553 1253 3867 
Q 1656 4181 1806 4600 
L 2519 4600 
L 2519 0 
z
" transform="scale(0.015625)"/>
       </defs>
       <use xlink:href="#Arial-BoldMT-31"/>
      </g>
     </g>
    </g>
    <g id="xtick_3">
     <g id="line2d_3">
      <g>
       <use xlink:href="#mbdfd4dbee8" x="916.363505" y="198.907885" style="stroke: #000000; stroke-width: 2"/>
      </g>
     </g>
     <g id="text_3">
      <!-- 2 -->
      <g transform="translate(911.358662 224.791947) scale(0.18 -0.18)">
       <defs>
        <path id="Arial-BoldMT-32" d="M 3238 816 
L 3238 0 
L 159 0 
Q 209 463 459 877 
Q 709 1291 1447 1975 
Q 2041 2528 2175 2725 
Q 2356 2997 2356 3263 
Q 2356 3556 2198 3714 
Q 2041 3872 1763 3872 
Q 1488 3872 1325 3706 
Q 1163 3541 1138 3156 
L 263 3244 
Q 341 3969 753 4284 
Q 1166 4600 1784 4600 
Q 2463 4600 2850 4234 
Q 3238 3869 3238 3325 
Q 3238 3016 3127 2736 
Q 3016 2456 2775 2150 
Q 2616 1947 2200 1565 
Q 1784 1184 1673 1059 
Q 1563 934 1494 816 
L 3238 816 
z
" transform="scale(0.015625)"/>
       </defs>
       <use xlink:href="#Arial-BoldMT-32"/>
      </g>
     </g>
    </g>
    <g id="xtick_4">
     <g id="line2d_4">
      <g>
       <use xlink:href="#mbdfd4dbee8" x="808.909004" y="198.907885" style="stroke: #000000; stroke-width: 2"/>
      </g>
     </g>
     <g id="text_4">
      <!-- 3 -->
      <g transform="translate(803.90416 224.791947) scale(0.18 -0.18)">
       <defs>
        <path id="Arial-BoldMT-33" d="M 241 1216 
L 1091 1319 
Q 1131 994 1309 822 
Q 1488 650 1741 650 
Q 2013 650 2198 856 
Q 2384 1063 2384 1413 
Q 2384 1744 2206 1937 
Q 2028 2131 1772 2131 
Q 1603 2131 1369 2066 
L 1466 2781 
Q 1822 2772 2009 2936 
Q 2197 3100 2197 3372 
Q 2197 3603 2059 3740 
Q 1922 3878 1694 3878 
Q 1469 3878 1309 3722 
Q 1150 3566 1116 3266 
L 306 3403 
Q 391 3819 561 4067 
Q 731 4316 1036 4458 
Q 1341 4600 1719 4600 
Q 2366 4600 2756 4188 
Q 3078 3850 3078 3425 
Q 3078 2822 2419 2463 
Q 2813 2378 3048 2084 
Q 3284 1791 3284 1375 
Q 3284 772 2843 347 
Q 2403 -78 1747 -78 
Q 1125 -78 715 280 
Q 306 638 241 1216 
z
" transform="scale(0.015625)"/>
       </defs>
       <use xlink:href="#Arial-BoldMT-33"/>
      </g>
     </g>
    </g>
    <g id="xtick_5">
     <g id="line2d_5">
      <g>
       <use xlink:href="#mbdfd4dbee8" x="701.454502" y="198.907885" style="stroke: #000000; stroke-width: 2"/>
      </g>
     </g>
     <g id="text_5">
      <!-- 4 -->
      <g transform="translate(696.449658 224.791947) scale(0.18 -0.18)">
       <defs>
        <path id="Arial-BoldMT-34" d="M 1994 0 
L 1994 922 
L 119 922 
L 119 1691 
L 2106 4600 
L 2844 4600 
L 2844 1694 
L 3413 1694 
L 3413 922 
L 2844 922 
L 2844 0 
L 1994 0 
z
M 1994 1694 
L 1994 3259 
L 941 1694 
L 1994 1694 
z
" transform="scale(0.015625)"/>
       </defs>
       <use xlink:href="#Arial-BoldMT-34"/>
      </g>
     </g>
    </g>
    <g id="xtick_6">
     <g id="line2d_6">
      <g>
       <use xlink:href="#mbdfd4dbee8" x="594" y="198.907885" style="stroke: #000000; stroke-width: 2"/>
      </g>
     </g>
     <g id="text_6">
      <!-- 5 -->
      <g transform="translate(588.995156 224.791947) scale(0.18 -0.18)">
       <defs>
        <path id="Arial-BoldMT-35" d="M 284 1178 
L 1159 1269 
Q 1197 972 1381 798 
Q 1566 625 1806 625 
Q 2081 625 2272 848 
Q 2463 1072 2463 1522 
Q 2463 1944 2273 2155 
Q 2084 2366 1781 2366 
Q 1403 2366 1103 2031 
L 391 2134 
L 841 4519 
L 3163 4519 
L 3163 3697 
L 1506 3697 
L 1369 2919 
Q 1663 3066 1969 3066 
Q 2553 3066 2959 2641 
Q 3366 2216 3366 1538 
Q 3366 972 3038 528 
Q 2591 -78 1797 -78 
Q 1163 -78 763 262 
Q 363 603 284 1178 
z
" transform="scale(0.015625)"/>
       </defs>
       <use xlink:href="#Arial-BoldMT-35"/>
      </g>
     </g>
    </g>
    <g id="xtick_7">
     <g id="line2d_7">
      <g>
       <use xlink:href="#mbdfd4dbee8" x="486.545498" y="198.907885" style="stroke: #000000; stroke-width: 2"/>
      </g>
     </g>
     <g id="text_7">
      <!-- 6 -->
      <g transform="translate(481.540654 224.791947) scale(0.18 -0.18)">
       <defs>
        <path id="Arial-BoldMT-36" d="M 3247 3459 
L 2397 3366 
Q 2366 3628 2234 3753 
Q 2103 3878 1894 3878 
Q 1616 3878 1423 3628 
Q 1231 3378 1181 2588 
Q 1509 2975 1997 2975 
Q 2547 2975 2939 2556 
Q 3331 2138 3331 1475 
Q 3331 772 2918 347 
Q 2506 -78 1859 -78 
Q 1166 -78 719 461 
Q 272 1000 272 2228 
Q 272 3488 737 4044 
Q 1203 4600 1947 4600 
Q 2469 4600 2811 4308 
Q 3153 4016 3247 3459 
z
M 1256 1544 
Q 1256 1116 1453 883 
Q 1650 650 1903 650 
Q 2147 650 2309 840 
Q 2472 1031 2472 1466 
Q 2472 1913 2297 2120 
Q 2122 2328 1859 2328 
Q 1606 2328 1431 2129 
Q 1256 1931 1256 1544 
z
" transform="scale(0.015625)"/>
       </defs>
       <use xlink:href="#Arial-BoldMT-36"/>
      </g>
     </g>
    </g>
    <g id="xtick_8">
     <g id="line2d_8">
      <g>
       <use xlink:href="#mbdfd4dbee8" x="379.090996" y="198.907885" style="stroke: #000000; stroke-width: 2"/>
      </g>
     </g>
     <g id="text_8">
      <!-- 7 -->
      <g transform="translate(374.086153 224.791947) scale(0.18 -0.18)">
       <defs>
        <path id="Arial-BoldMT-37" d="M 272 3703 
L 272 4519 
L 3275 4519 
L 3275 3881 
Q 2903 3516 2518 2831 
Q 2134 2147 1932 1376 
Q 1731 606 1734 0 
L 888 0 
Q 909 950 1279 1937 
Q 1650 2925 2269 3703 
L 272 3703 
z
" transform="scale(0.015625)"/>
       </defs>
       <use xlink:href="#Arial-BoldMT-37"/>
      </g>
     </g>
    </g>
    <g id="xtick_9">
     <g id="line2d_9">
      <g>
       <use xlink:href="#mbdfd4dbee8" x="271.636495" y="198.907885" style="stroke: #000000; stroke-width: 2"/>
      </g>
     </g>
     <g id="text_9">
      <!-- 8 -->
      <g transform="translate(266.631651 224.791947) scale(0.18 -0.18)">
       <defs>
        <path id="Arial-BoldMT-38" d="M 1025 2472 
Q 684 2616 529 2867 
Q 375 3119 375 3419 
Q 375 3931 733 4265 
Q 1091 4600 1750 4600 
Q 2403 4600 2764 4265 
Q 3125 3931 3125 3419 
Q 3125 3100 2959 2851 
Q 2794 2603 2494 2472 
Q 2875 2319 3073 2025 
Q 3272 1731 3272 1347 
Q 3272 713 2867 316 
Q 2463 -81 1791 -81 
Q 1166 -81 750 247 
Q 259 634 259 1309 
Q 259 1681 443 1992 
Q 628 2303 1025 2472 
z
M 1206 3356 
Q 1206 3094 1354 2947 
Q 1503 2800 1750 2800 
Q 2000 2800 2150 2948 
Q 2300 3097 2300 3359 
Q 2300 3606 2151 3754 
Q 2003 3903 1759 3903 
Q 1506 3903 1356 3753 
Q 1206 3603 1206 3356 
z
M 1125 1394 
Q 1125 1031 1311 828 
Q 1497 625 1775 625 
Q 2047 625 2225 820 
Q 2403 1016 2403 1384 
Q 2403 1706 2222 1901 
Q 2041 2097 1763 2097 
Q 1441 2097 1283 1875 
Q 1125 1653 1125 1394 
z
" transform="scale(0.015625)"/>
       </defs>
       <use xlink:href="#Arial-BoldMT-38"/>
      </g>
     </g>
    </g>
    <g id="xtick_10">
     <g id="line2d_10">
      <g>
       <use xlink:href="#mbdfd4dbee8" x="164.181993" y="198.907885" style="stroke: #000000; stroke-width: 2"/>
      </g>
     </g>
     <g id="text_10">
      <!-- 9 -->
      <g transform="translate(159.177149 224.791947) scale(0.18 -0.18)">
       <defs>
        <path id="Arial-BoldMT-39" d="M 291 1059 
L 1141 1153 
Q 1172 894 1303 769 
Q 1434 644 1650 644 
Q 1922 644 2112 894 
Q 2303 1144 2356 1931 
Q 2025 1547 1528 1547 
Q 988 1547 595 1964 
Q 203 2381 203 3050 
Q 203 3747 617 4173 
Q 1031 4600 1672 4600 
Q 2369 4600 2816 4061 
Q 3263 3522 3263 2288 
Q 3263 1031 2797 475 
Q 2331 -81 1584 -81 
Q 1047 -81 715 205 
Q 384 491 291 1059 
z
M 2278 2978 
Q 2278 3403 2083 3637 
Q 1888 3872 1631 3872 
Q 1388 3872 1227 3680 
Q 1066 3488 1066 3050 
Q 1066 2606 1241 2398 
Q 1416 2191 1678 2191 
Q 1931 2191 2104 2391 
Q 2278 2591 2278 2978 
z
" transform="scale(0.015625)"/>
       </defs>
       <use xlink:href="#Arial-BoldMT-39"/>
      </g>
     </g>
    </g>
    <g id="xtick_11">
     <g id="line2d_11">
      <g>
       <use xlink:href="#mbdfd4dbee8" x="56.727491" y="198.907885" style="stroke: #000000; stroke-width: 2"/>
      </g>
     </g>
     <g id="text_11">
      <!-- 10 -->
      <g transform="translate(46.717803 224.791947) scale(0.18 -0.18)">
       <use xlink:href="#Arial-BoldMT-31"/>
       <use xlink:href="#Arial-BoldMT-30" x="55.615234"/>
      </g>
     </g>
    </g>
    <g id="text_12">
     <!-- Chemical Shift / ppm -->
     <g transform="translate(504.992813 245.447573) scale(0.18 -0.18)">
      <defs>
       <path id="Arial-BoldMT-43" d="M 3397 1684 
L 4294 1400 
Q 4088 650 3608 286 
Q 3128 -78 2391 -78 
Q 1478 -78 890 545 
Q 303 1169 303 2250 
Q 303 3394 893 4026 
Q 1484 4659 2447 4659 
Q 3288 4659 3813 4163 
Q 4125 3869 4281 3319 
L 3366 3100 
Q 3284 3456 3026 3662 
Q 2769 3869 2400 3869 
Q 1891 3869 1573 3503 
Q 1256 3138 1256 2319 
Q 1256 1450 1568 1081 
Q 1881 713 2381 713 
Q 2750 713 3015 947 
Q 3281 1181 3397 1684 
z
" transform="scale(0.015625)"/>
       <path id="Arial-BoldMT-68" d="M 1334 4581 
L 1334 2897 
Q 1759 3394 2350 3394 
Q 2653 3394 2897 3281 
Q 3141 3169 3264 2994 
Q 3388 2819 3433 2606 
Q 3478 2394 3478 1947 
L 3478 0 
L 2600 0 
L 2600 1753 
Q 2600 2275 2550 2415 
Q 2500 2556 2373 2639 
Q 2247 2722 2056 2722 
Q 1838 2722 1666 2615 
Q 1494 2509 1414 2295 
Q 1334 2081 1334 1663 
L 1334 0 
L 456 0 
L 456 4581 
L 1334 4581 
z
" transform="scale(0.015625)"/>
       <path id="Arial-BoldMT-65" d="M 2381 1056 
L 3256 909 
Q 3088 428 2723 176 
Q 2359 -75 1813 -75 
Q 947 -75 531 491 
Q 203 944 203 1634 
Q 203 2459 634 2926 
Q 1066 3394 1725 3394 
Q 2466 3394 2894 2905 
Q 3322 2416 3303 1406 
L 1103 1406 
Q 1113 1016 1316 798 
Q 1519 581 1822 581 
Q 2028 581 2168 693 
Q 2309 806 2381 1056 
z
M 2431 1944 
Q 2422 2325 2234 2523 
Q 2047 2722 1778 2722 
Q 1491 2722 1303 2513 
Q 1116 2303 1119 1944 
L 2431 1944 
z
" transform="scale(0.015625)"/>
       <path id="Arial-BoldMT-6d" d="M 394 3319 
L 1203 3319 
L 1203 2866 
Q 1638 3394 2238 3394 
Q 2556 3394 2790 3262 
Q 3025 3131 3175 2866 
Q 3394 3131 3647 3262 
Q 3900 3394 4188 3394 
Q 4553 3394 4806 3245 
Q 5059 3097 5184 2809 
Q 5275 2597 5275 2122 
L 5275 0 
L 4397 0 
L 4397 1897 
Q 4397 2391 4306 2534 
Q 4184 2722 3931 2722 
Q 3747 2722 3584 2609 
Q 3422 2497 3350 2280 
Q 3278 2063 3278 1594 
L 3278 0 
L 2400 0 
L 2400 1819 
Q 2400 2303 2353 2443 
Q 2306 2584 2207 2653 
Q 2109 2722 1941 2722 
Q 1738 2722 1575 2612 
Q 1413 2503 1342 2297 
Q 1272 2091 1272 1613 
L 1272 0 
L 394 0 
L 394 3319 
z
" transform="scale(0.015625)"/>
       <path id="Arial-BoldMT-69" d="M 459 3769 
L 459 4581 
L 1338 4581 
L 1338 3769 
L 459 3769 
z
M 459 0 
L 459 3319 
L 1338 3319 
L 1338 0 
L 459 0 
z
" transform="scale(0.015625)"/>
       <path id="Arial-BoldMT-63" d="M 3353 2338 
L 2488 2181 
Q 2444 2441 2289 2572 
Q 2134 2703 1888 2703 
Q 1559 2703 1364 2476 
Q 1169 2250 1169 1719 
Q 1169 1128 1367 884 
Q 1566 641 1900 641 
Q 2150 641 2309 783 
Q 2469 925 2534 1272 
L 3397 1125 
Q 3263 531 2881 228 
Q 2500 -75 1859 -75 
Q 1131 -75 698 384 
Q 266 844 266 1656 
Q 266 2478 700 2936 
Q 1134 3394 1875 3394 
Q 2481 3394 2839 3133 
Q 3197 2872 3353 2338 
z
" transform="scale(0.015625)"/>
       <path id="Arial-BoldMT-61" d="M 1116 2306 
L 319 2450 
Q 453 2931 781 3162 
Q 1109 3394 1756 3394 
Q 2344 3394 2631 3255 
Q 2919 3116 3036 2902 
Q 3153 2688 3153 2116 
L 3144 1091 
Q 3144 653 3186 445 
Q 3228 238 3344 0 
L 2475 0 
Q 2441 88 2391 259 
Q 2369 338 2359 363 
Q 2134 144 1878 34 
Q 1622 -75 1331 -75 
Q 819 -75 523 203 
Q 228 481 228 906 
Q 228 1188 362 1408 
Q 497 1628 739 1745 
Q 981 1863 1438 1950 
Q 2053 2066 2291 2166 
L 2291 2253 
Q 2291 2506 2166 2614 
Q 2041 2722 1694 2722 
Q 1459 2722 1328 2630 
Q 1197 2538 1116 2306 
z
M 2291 1594 
Q 2122 1538 1756 1459 
Q 1391 1381 1278 1306 
Q 1106 1184 1106 997 
Q 1106 813 1243 678 
Q 1381 544 1594 544 
Q 1831 544 2047 700 
Q 2206 819 2256 991 
Q 2291 1103 2291 1419 
L 2291 1594 
z
" transform="scale(0.015625)"/>
       <path id="Arial-BoldMT-6c" d="M 459 0 
L 459 4581 
L 1338 4581 
L 1338 0 
L 459 0 
z
" transform="scale(0.015625)"/>
       <path id="Arial-BoldMT-20" transform="scale(0.015625)"/>
       <path id="Arial-BoldMT-53" d="M 231 1491 
L 1131 1578 
Q 1213 1125 1461 912 
Q 1709 700 2131 700 
Q 2578 700 2804 889 
Q 3031 1078 3031 1331 
Q 3031 1494 2936 1608 
Q 2841 1722 2603 1806 
Q 2441 1863 1863 2006 
Q 1119 2191 819 2459 
Q 397 2838 397 3381 
Q 397 3731 595 4036 
Q 794 4341 1167 4500 
Q 1541 4659 2069 4659 
Q 2931 4659 3367 4281 
Q 3803 3903 3825 3272 
L 2900 3231 
Q 2841 3584 2645 3739 
Q 2450 3894 2059 3894 
Q 1656 3894 1428 3728 
Q 1281 3622 1281 3444 
Q 1281 3281 1419 3166 
Q 1594 3019 2269 2859 
Q 2944 2700 3267 2529 
Q 3591 2359 3773 2064 
Q 3956 1769 3956 1334 
Q 3956 941 3737 597 
Q 3519 253 3119 86 
Q 2719 -81 2122 -81 
Q 1253 -81 787 320 
Q 322 722 231 1491 
z
" transform="scale(0.015625)"/>
       <path id="Arial-BoldMT-66" d="M 75 3319 
L 563 3319 
L 563 3569 
Q 563 3988 652 4194 
Q 741 4400 980 4529 
Q 1219 4659 1584 4659 
Q 1959 4659 2319 4547 
L 2200 3934 
Q 1991 3984 1797 3984 
Q 1606 3984 1523 3895 
Q 1441 3806 1441 3553 
L 1441 3319 
L 2097 3319 
L 2097 2628 
L 1441 2628 
L 1441 0 
L 563 0 
L 563 2628 
L 75 2628 
L 75 3319 
z
" transform="scale(0.015625)"/>
       <path id="Arial-BoldMT-74" d="M 1981 3319 
L 1981 2619 
L 1381 2619 
L 1381 1281 
Q 1381 875 1398 808 
Q 1416 741 1477 697 
Q 1538 653 1625 653 
Q 1747 653 1978 738 
L 2053 56 
Q 1747 -75 1359 -75 
Q 1122 -75 931 4 
Q 741 84 652 211 
Q 563 338 528 553 
Q 500 706 500 1172 
L 500 2619 
L 97 2619 
L 97 3319 
L 500 3319 
L 500 3978 
L 1381 4491 
L 1381 3319 
L 1981 3319 
z
" transform="scale(0.015625)"/>
       <path id="Arial-BoldMT-2f" d="M -9 -78 
L 1125 4659 
L 1784 4659 
L 638 -78 
L -9 -78 
z
" transform="scale(0.015625)"/>
       <path id="Arial-BoldMT-70" d="M 434 3319 
L 1253 3319 
L 1253 2831 
Q 1413 3081 1684 3237 
Q 1956 3394 2288 3394 
Q 2866 3394 3269 2941 
Q 3672 2488 3672 1678 
Q 3672 847 3265 386 
Q 2859 -75 2281 -75 
Q 2006 -75 1782 34 
Q 1559 144 1313 409 
L 1313 -1263 
L 434 -1263 
L 434 3319 
z
M 1303 1716 
Q 1303 1156 1525 889 
Q 1747 622 2066 622 
Q 2372 622 2575 867 
Q 2778 1113 2778 1672 
Q 2778 2194 2568 2447 
Q 2359 2700 2050 2700 
Q 1728 2700 1515 2451 
Q 1303 2203 1303 1716 
z
" transform="scale(0.015625)"/>
      </defs>
      <use xlink:href="#Arial-BoldMT-43"/>
      <use xlink:href="#Arial-BoldMT-68" x="72.216797"/>
      <use xlink:href="#Arial-BoldMT-65" x="133.300781"/>
      <use xlink:href="#Arial-BoldMT-6d" x="188.916016"/>
      <use xlink:href="#Arial-BoldMT-69" x="277.832031"/>
      <use xlink:href="#Arial-BoldMT-63" x="305.615234"/>
      <use xlink:href="#Arial-BoldMT-61" x="361.230469"/>
      <use xlink:href="#Arial-BoldMT-6c" x="416.845703"/>
      <use xlink:href="#Arial-BoldMT-20" x="444.628906"/>
      <use xlink:href="#Arial-BoldMT-53" x="472.412109"/>
      <use xlink:href="#Arial-BoldMT-68" x="539.111328"/>
      <use xlink:href="#Arial-BoldMT-69" x="600.195312"/>
      <use xlink:href="#Arial-BoldMT-66" x="627.978516"/>
      <use xlink:href="#Arial-BoldMT-74" x="661.279297"/>
      <use xlink:href="#Arial-BoldMT-20" x="694.580078"/>
      <use xlink:href="#Arial-BoldMT-2f" x="722.363281"/>
      <use xlink:href="#Arial-BoldMT-20" x="750.146484"/>
      <use xlink:href="#Arial-BoldMT-70" x="777.929688"/>
      <use xlink:href="#Arial-BoldMT-70" x="839.013672"/>
      <use xlink:href="#Arial-BoldMT-6d" x="900.097656"/>
     </g>
    </g>
   </g>
   <g id="matplotlib.axis_2"/>
   <g id="line2d_12">
    <path d="M 2.944662 189.667915 
L 3.763141 189.522026 
L 4.377 189.781394 
L 4.990859 189.971593 
L 5.809338 189.965746 
L 8.060155 189.460235 
L 8.878634 189.4631 
L 11.33407 189.559124 
L 11.94793 189.406158 
L 13.994127 189.292095 
L 14.607986 189.144646 
L 15.221845 189.232642 
L 16.040324 189.461138 
L 17.881902 189.598761 
L 19.10962 189.90851 
L 19.723479 189.937172 
L 20.746578 189.657894 
L 21.360437 189.622598 
L 21.974296 189.659757 
L 22.997395 189.566878 
L 23.815874 189.736946 
L 25.248212 189.518547 
L 26.68055 189.118589 
L 28.931367 189.818349 
L 29.340606 189.773299 
L 30.772944 189.339495 
L 31.796043 189.410148 
L 33.433001 189.360275 
L 34.865339 189.815033 
L 35.479198 189.709267 
L 36.502297 189.49572 
L 38.753114 189.430841 
L 39.980832 189.480727 
L 43.254748 189.396518 
L 44.891706 189.356596 
L 46.324044 189.263781 
L 48.9841 189.742575 
L 49.597959 189.696367 
L 50.825678 189.188462 
L 52.667255 189.420834 
L 54.099593 189.371989 
L 54.713453 189.684417 
L 55.531931 190.103613 
L 55.941171 190.09456 
L 57.987368 189.511501 
L 58.601227 189.582493 
L 59.419706 189.712046 
L 60.033565 189.546286 
L 61.261284 189.167765 
L 61.670523 189.18461 
L 62.898242 189.681733 
L 63.512101 189.813236 
L 64.535199 190.129348 
L 65.353678 190.124592 
L 65.967538 189.873046 
L 66.581397 189.53796 
L 66.990636 189.533182 
L 67.809115 189.678912 
L 70.264552 189.49241 
L 72.515369 189.78947 
L 74.356946 189.489981 
L 75.584665 189.711806 
L 76.812383 189.291119 
L 77.835482 189.39042 
L 80.086299 189.05475 
L 80.495538 189.112232 
L 81.109397 189.453509 
L 81.723256 189.725267 
L 83.360214 189.770472 
L 84.383313 189.654216 
L 85.815651 189.311173 
L 87.247989 189.628048 
L 88.271088 189.452161 
L 89.498806 189.24744 
L 90.521905 189.200327 
L 91.749623 189.531966 
L 93.386581 189.733375 
L 94.818919 189.578622 
L 96.865116 189.493696 
L 97.683595 189.482228 
L 99.320553 189.628792 
L 99.934412 189.568016 
L 101.162131 189.66255 
L 102.389849 189.545616 
L 103.208328 189.444905 
L 104.640666 189.321194 
L 105.868384 189.40148 
L 107.300722 189.028738 
L 108.119201 188.987753 
L 108.93768 188.800516 
L 109.34692 189.017252 
L 110.165398 189.527863 
L 110.779258 189.539151 
L 113.030075 189.160539 
L 114.053173 189.496222 
L 115.485511 189.512944 
L 116.099371 189.445603 
L 116.71323 189.293032 
L 117.940948 189.517342 
L 118.964047 189.227821 
L 119.782526 189.166087 
L 121.214864 189.414265 
L 122.851822 189.213958 
L 126.330357 189.549137 
L 128.171934 189.334925 
L 129.399653 189.308694 
L 130.218132 189.372852 
L 132.878188 189.515713 
L 135.129005 189.817805 
L 137.789062 189.843188 
L 139.01678 189.887402 
L 140.653738 189.837623 
L 141.472217 189.826959 
L 142.290696 189.779682 
L 143.109175 189.672323 
L 144.336893 189.35902 
L 145.564611 189.313269 
L 146.17847 189.271023 
L 146.996949 189.227655 
L 148.429287 189.001244 
L 149.861625 189.138675 
L 150.884724 189.43234 
L 151.498583 189.594815 
L 152.521682 189.986359 
L 152.930921 189.934661 
L 153.7494 189.662004 
L 154.567879 189.816848 
L 155.386358 189.997845 
L 158.455654 189.772056 
L 159.069513 189.771546 
L 160.092612 189.543279 
L 161.32033 189.497922 
L 161.934189 189.370567 
L 162.752668 189.13646 
L 164.798866 189.557805 
L 166.231204 189.828242 
L 167.049683 189.702475 
L 167.663542 189.685184 
L 168.277401 189.410012 
L 169.09588 189.014238 
L 169.709739 188.976756 
L 170.937457 189.052049 
L 171.551317 188.97857 
L 172.983655 189.247968 
L 174.415993 189.727373 
L 175.029852 189.571295 
L 175.643711 189.44956 
L 176.46219 189.518607 
L 177.894528 189.994286 
L 181.373063 189.448361 
L 182.396162 189.485435 
L 183.010021 189.480081 
L 185.260838 189.971734 
L 187.716275 189.389147 
L 188.534754 189.096729 
L 189.148613 189.195654 
L 190.580951 189.620745 
L 192.013289 189.639525 
L 193.036388 189.969511 
L 194.059486 190.014105 
L 195.491825 189.84102 
L 196.719543 190.023427 
L 198.56112 190.000253 
L 199.788839 190.158296 
L 200.811937 189.83453 
L 201.630416 189.544329 
L 202.244276 189.625793 
L 203.471994 189.953376 
L 205.518191 190.204284 
L 206.54129 190.049023 
L 207.564388 189.548073 
L 208.178248 189.662017 
L 208.996727 189.883556 
L 211.247544 189.695182 
L 211.861403 189.449857 
L 212.679882 189.460746 
L 213.9076 189.756146 
L 214.930699 190.147978 
L 215.953797 190.038106 
L 216.772276 189.669219 
L 217.386135 189.482388 
L 217.999995 189.505476 
L 218.818473 189.859404 
L 219.227713 189.955416 
L 219.841572 189.752909 
L 220.660051 189.532672 
L 221.47853 189.484907 
L 222.297009 189.727247 
L 223.115488 189.939105 
L 225.570924 189.858723 
L 227.821741 189.61439 
L 232.118756 189.77737 
L 232.937235 189.866724 
L 233.755713 189.916837 
L 234.778812 189.944365 
L 236.41577 189.778375 
L 238.871207 190.180328 
L 241.326643 190.157348 
L 241.940503 190.326214 
L 242.349742 190.179769 
L 243.168221 189.792797 
L 245.623658 189.865638 
L 247.055996 190.211646 
L 247.874475 190.022206 
L 249.102193 189.794435 
L 249.920672 189.683782 
L 251.55763 190.095664 
L 252.376109 190.018946 
L 253.808447 189.481841 
L 255.650024 189.656685 
L 256.468503 189.884086 
L 257.900841 189.83363 
L 258.5147 189.826059 
L 261.174757 189.520629 
L 262.197855 189.388166 
L 263.630194 189.0845 
L 264.857912 188.775828 
L 265.676391 188.956535 
L 267.927208 189.608181 
L 268.541067 189.708256 
L 269.154926 189.547065 
L 269.973405 189.253369 
L 270.587264 189.291186 
L 271.201123 189.289155 
L 272.428842 189.172063 
L 274.884279 189.344372 
L 275.702757 189.279531 
L 276.930476 189.492737 
L 278.362814 189.409057 
L 280.409011 189.365107 
L 282.045969 189.506291 
L 285.319885 189.497521 
L 286.138364 189.053466 
L 288.5938 187.52214 
L 290.230758 186.206272 
L 291.253857 184.824296 
L 291.663096 184.813617 
L 293.095434 185.617827 
L 293.709293 185.693781 
L 295.141632 185.459296 
L 296.16473 185.019491 
L 298.415547 184.606985 
L 299.029406 184.421449 
L 299.643266 183.943157 
L 300.257125 183.460256 
L 302.712561 182.626924 
L 302.917181 182.650352 
L 303.326421 183.063153 
L 304.758759 185.655458 
L 305.167998 185.93839 
L 305.781857 186.047988 
L 306.395716 186.193484 
L 307.009576 186.741148 
L 308.851153 188.620407 
L 309.465012 188.937533 
L 310.078872 188.951755 
L 311.30659 188.801745 
L 312.738928 188.998548 
L 314.375886 188.581188 
L 315.194365 188.253519 
L 315.808224 187.434317 
L 316.422083 186.715958 
L 316.831323 186.632266 
L 317.240562 186.746864 
L 317.854421 187.223039 
L 318.46828 187.78649 
L 318.87752 187.881404 
L 320.105238 187.623437 
L 320.923717 188.119358 
L 321.537576 188.377471 
L 321.946816 188.338134 
L 322.356055 188.095998 
L 323.174534 187.228081 
L 324.197633 185.874354 
L 325.016112 184.754035 
L 325.629971 184.024419 
L 326.03921 183.214481 
L 326.44845 181.754423 
L 326.857689 179.357397 
L 327.266929 175.859957 
L 328.290027 165.06114 
L 328.494647 164.089733 
L 328.699267 163.868316 
L 328.903886 164.31652 
L 329.313126 166.463213 
L 330.131605 170.966548 
L 330.540844 172.276139 
L 330.745464 172.566211 
L 330.950084 172.550491 
L 331.154703 172.22533 
L 331.563943 170.782422 
L 332.177802 167.256288 
L 332.587042 165.015292 
L 332.791661 164.441492 
L 332.996281 164.45336 
L 333.200901 165.106233 
L 333.61014 167.981315 
L 334.428619 174.671728 
L 334.837859 176.628358 
L 335.247098 177.704211 
L 335.656337 178.199315 
L 336.679436 178.881514 
L 337.293295 179.465932 
L 337.702535 179.564228 
L 338.111774 179.299642 
L 338.521014 178.707801 
L 338.930253 177.767139 
L 339.544112 175.630795 
L 339.953352 173.40754 
L 340.362591 170.158631 
L 340.97645 163.278398 
L 341.999549 150.83846 
L 342.408788 148.22471 
L 342.818028 147.103108 
L 343.022648 146.935458 
L 343.431887 146.955077 
L 343.636507 146.70867 
L 343.841126 145.93128 
L 344.045746 144.40883 
L 344.454986 138.543617 
L 344.864225 128.264225 
L 346.091943 87.914732 
L 346.296563 87.073923 
L 346.501183 88.733775 
L 347.115042 100.732162 
L 347.524282 107.872082 
L 347.933521 111.10002 
L 348.138141 111.159821 
L 348.54738 109.881884 
L 348.752 109.816657 
L 348.95662 110.867115 
L 349.365859 116.249162 
L 350.184338 129.183836 
L 350.593577 132.736696 
L 351.002817 134.662621 
L 351.412056 135.558781 
L 351.616676 135.309109 
L 351.821296 134.442116 
L 352.230535 130.979601 
L 352.639775 125.653493 
L 353.049014 117.423992 
L 353.458254 103.704158 
L 354.072113 71.394778 
L 354.481352 50.080218 
L 354.685972 43.395069 
L 354.890592 40.39694 
L 355.095211 40.85804 
L 355.504451 47.964248 
L 355.91369 54.233425 
L 356.11831 54.604932 
L 356.32293 52.634631 
L 356.732169 42.057393 
L 357.550648 14.498975 
L 357.755268 13.928784 
L 357.959888 17.826802 
L 358.369127 35.199587 
L 358.982986 61.207006 
L 359.392226 69.526778 
L 359.596845 70.968241 
L 359.801465 70.471127 
L 360.006085 67.761021 
L 360.415324 55.101891 
L 361.438423 6.831121 
L 361.643043 3.00024 
L 361.847662 3.276051 
L 362.052282 7.793778 
L 362.461522 27.846224 
L 363.48462 94.181784 
L 363.89386 110.278956 
L 364.303099 120.05995 
L 364.916958 128.675299 
L 365.530818 134.676401 
L 366.553916 142.252026 
L 367.577015 150.104514 
L 367.986254 151.900167 
L 368.190874 152.25846 
L 368.395494 152.225296 
L 368.600113 151.816544 
L 369.009353 150.087965 
L 369.827832 146.124506 
L 370.237071 144.002115 
L 370.646311 140.39342 
L 371.05555 135.090985 
L 371.46479 127.265729 
L 371.874029 115.061302 
L 372.692508 87.719999 
L 372.897128 85.817194 
L 373.101747 87.114602 
L 373.510987 96.983983 
L 374.329466 121.041713 
L 374.943325 132.801464 
L 375.557184 141.519396 
L 376.171043 146.745205 
L 376.580283 150.426133 
L 377.808001 163.446706 
L 378.42186 166.928544 
L 379.035719 169.099823 
L 379.854198 171.349546 
L 380.263438 171.822336 
L 380.468058 171.734949 
L 380.672677 171.415229 
L 381.081917 170.100344 
L 381.695776 167.835236 
L 381.900396 167.695287 
L 382.105015 167.965576 
L 382.718875 169.421642 
L 382.923494 169.588432 
L 383.128114 169.458665 
L 383.332734 168.995557 
L 383.741973 166.946544 
L 384.969692 157.729125 
L 385.174311 157.418904 
L 385.378931 157.917418 
L 385.78817 161.552073 
L 386.606649 171.131192 
L 387.220509 175.204167 
L 387.629748 176.716633 
L 388.448227 178.60281 
L 390.085185 182.136895 
L 390.699044 182.863897 
L 391.312903 183.28071 
L 392.336002 183.840276 
L 393.97296 184.83724 
L 395.200678 185.001235 
L 396.019157 185.183809 
L 397.656115 185.415359 
L 398.679213 185.637491 
L 399.293072 185.698599 
L 403.385467 185.422294 
L 404.203946 185.618742 
L 404.817805 185.743634 
L 405.431664 185.560732 
L 406.045523 185.372773 
L 406.864002 185.344529 
L 408.9102 184.437413 
L 409.319439 184.150075 
L 409.728679 183.624553 
L 410.137918 182.851759 
L 410.547157 181.725289 
L 411.570256 178.503336 
L 412.388735 177.135312 
L 412.797974 175.804654 
L 413.207214 173.575453 
L 413.616453 170.152799 
L 414.844172 158.250361 
L 415.253411 155.506636 
L 415.662651 150.944868 
L 416.07189 142.868145 
L 416.481129 129.634264 
L 417.094989 97.740258 
L 417.504228 75.735898 
L 417.708848 69.857189 
L 417.913468 69.223483 
L 418.118087 73.301787 
L 418.731946 98.063354 
L 419.345806 120.454324 
L 419.755045 128.404594 
L 420.164285 131.754047 
L 420.573524 134.814492 
L 420.982763 141.419361 
L 421.801242 156.755955 
L 422.210482 161.38143 
L 422.619721 164.211599 
L 423.23358 166.803358 
L 423.84744 168.663535 
L 424.052059 168.947793 
L 424.256679 168.955728 
L 424.461299 168.633429 
L 424.870538 166.875203 
L 425.279778 163.494501 
L 425.689017 158.282507 
L 426.712116 142.929364 
L 427.530595 137.372221 
L 427.939834 130.363152 
L 429.167553 99.976011 
L 429.372172 99.655004 
L 429.576792 102.930818 
L 429.986031 117.672808 
L 430.599891 141.298595 
L 431.21375 155.798618 
L 431.622989 161.344265 
L 432.032229 164.603503 
L 433.055327 170.533678 
L 433.873806 175.916711 
L 434.487665 178.591593 
L 435.306144 181.242344 
L 435.920004 182.395155 
L 436.943102 183.740922 
L 437.761581 184.218178 
L 438.78468 184.53122 
L 441.240116 185.121748 
L 441.853976 185.286485 
L 442.672455 185.547712 
L 443.900173 185.619684 
L 445.127891 186.450207 
L 445.74175 186.561446 
L 447.174089 186.524092 
L 447.992567 186.688781 
L 448.811046 186.906912 
L 449.834145 186.987185 
L 451.675723 187.444514 
L 452.494201 187.67988 
L 453.31268 187.853688 
L 454.131159 188.14424 
L 454.949638 188.070536 
L 455.563497 188.074396 
L 457.200455 188.63803 
L 458.223554 188.665669 
L 460.269751 187.823505 
L 460.88361 187.581867 
L 462.520568 187.610237 
L 463.748286 188.166729 
L 464.157526 188.138483 
L 465.180624 187.653713 
L 465.999103 187.367915 
L 466.408343 187.44005 
L 467.226822 187.764202 
L 468.045301 187.733713 
L 469.682258 188.184323 
L 470.500737 187.965625 
L 471.319216 187.874209 
L 472.137695 188.146029 
L 472.751554 188.402788 
L 473.160794 188.353586 
L 473.979273 188.059256 
L 474.388512 188.19537 
L 475.002371 188.477396 
L 475.616231 188.473288 
L 476.434709 188.46911 
L 477.048569 188.447083 
L 477.867048 188.323831 
L 478.685526 188.4046 
L 480.936343 188.089017 
L 481.959442 188.411199 
L 483.39178 188.139324 
L 484.824118 188.160264 
L 485.437977 188.193546 
L 487.074935 188.677333 
L 489.939611 189.125997 
L 490.75809 188.919429 
L 493.622766 188.876655 
L 494.236626 189.14553 
L 494.850485 189.370188 
L 495.668964 189.366972 
L 496.692062 189.48778 
L 497.510541 189.429755 
L 504.058373 188.519656 
L 504.672232 188.699163 
L 505.69533 189.115838 
L 506.30919 188.93517 
L 507.332288 188.649947 
L 508.560007 188.492426 
L 509.583105 188.603106 
L 510.401584 188.739529 
L 511.629302 188.964138 
L 512.652401 189.004368 
L 513.6755 189.304764 
L 516.335556 189.08467 
L 517.972514 188.598941 
L 518.586373 188.545555 
L 519.609472 188.380215 
L 520.63257 188.209117 
L 521.451049 187.896026 
L 524.520345 187.04286 
L 525.543444 186.996362 
L 526.566543 186.540952 
L 527.180402 186.295076 
L 527.998881 186.05531 
L 528.61274 185.618871 
L 529.635838 184.754664 
L 530.863557 184.131618 
L 532.295895 183.407971 
L 533.318993 182.123604 
L 535.160571 179.424392 
L 537.002149 176.064852 
L 537.820627 174.390997 
L 539.662205 169.894887 
L 541.094543 165.375303 
L 542.117642 161.400138 
L 543.34536 156.347093 
L 545.391557 145.802785 
L 546.619276 138.28214 
L 548.051614 128.346024 
L 553.167107 89.570284 
L 553.576346 87.29736 
L 553.780966 86.725403 
L 553.985586 86.56754 
L 554.190206 86.815768 
L 554.599445 88.298385 
L 555.213304 91.729728 
L 555.827163 96.511742 
L 556.645642 106.415918 
L 557.668741 119.05673 
L 558.07798 131.134701 
L 558.69184 154.422397 
L 558.896459 156.797889 
L 559.101079 156.54414 
L 560.328797 147.176849 
L 562.170375 133.395508 
L 562.579614 132.232487 
L 562.988854 131.609234 
L 563.193474 131.492132 
L 563.398093 131.534284 
L 563.807333 132.078256 
L 564.421192 133.635024 
L 565.239671 136.652485 
L 570.355164 158.335513 
L 571.378263 161.591027 
L 572.810601 165.468551 
L 575.675277 171.813297 
L 578.130714 175.675688 
L 579.358432 176.720378 
L 580.58615 177.783282 
L 582.018488 179.440347 
L 585.701644 182.225102 
L 587.338601 183.073169 
L 588.15708 183.11093 
L 588.770939 183.255258 
L 590.612517 183.876657 
L 592.044855 183.994077 
L 593.477193 184.564397 
L 593.886433 184.77313 
L 594.500292 184.750812 
L 595.114151 184.716142 
L 596.341869 184.946635 
L 597.160348 185.153963 
L 597.978827 185.628093 
L 598.797306 186.042991 
L 599.411165 186.055552 
L 600.638884 185.764427 
L 601.252743 185.969931 
L 602.071222 186.298965 
L 604.322039 186.435383 
L 606.163616 186.166282 
L 606.982095 186.264336 
L 608.209814 186.68921 
L 610.051391 186.479803 
L 612.711447 187.1248 
L 613.325307 187.204892 
L 614.348405 187.10114 
L 615.166884 187.159462 
L 616.394603 186.987053 
L 618.850039 186.925982 
L 620.896237 187.522196 
L 622.123955 187.572337 
L 623.351673 187.722243 
L 624.579392 187.426098 
L 626.420969 187.650421 
L 627.853307 187.157074 
L 628.671786 187.11293 
L 632.150322 187.473266 
L 632.9688 187.564808 
L 633.787279 187.387454 
L 634.401139 187.349238 
L 635.219617 187.403072 
L 637.879674 187.406124 
L 638.902773 187.343552 
L 639.516632 187.381006 
L 641.358209 187.958395 
L 643.199787 187.761333 
L 644.836745 187.394697 
L 645.450604 187.408854 
L 646.269083 187.286202 
L 647.292181 187.526635 
L 647.90604 187.396332 
L 648.31528 187.33116 
L 650.156857 187.603269 
L 651.179956 187.615349 
L 651.793815 187.620287 
L 654.863111 187.1256 
L 659.569365 186.875204 
L 660.592464 186.974925 
L 661.820182 187.094045 
L 662.843281 187.256967 
L 663.45714 187.114826 
L 664.684858 186.654691 
L 665.298717 186.667653 
L 666.321816 186.853091 
L 667.958774 186.872905 
L 668.981872 186.430635 
L 671.437309 185.979295 
L 672.051168 186.106061 
L 672.869647 186.412503 
L 674.301985 186.535377 
L 674.711225 186.478675 
L 675.734323 186.541731 
L 678.803619 185.549721 
L 680.645197 185.550248 
L 681.259056 185.618631 
L 682.077535 185.368032 
L 683.714493 184.828194 
L 684.532972 184.529898 
L 685.146831 184.589307 
L 686.169929 184.735079 
L 687.806887 184.641344 
L 688.420746 184.452421 
L 689.443845 183.829079 
L 690.262324 183.388079 
L 691.285423 183.06505 
L 691.899282 182.938238 
L 693.53624 182.117766 
L 694.354718 181.454796 
L 694.968578 181.068225 
L 695.787057 180.758998 
L 697.014775 180.06692 
L 698.037874 179.512105 
L 700.084071 178.75344 
L 700.69793 178.385192 
L 701.721029 177.784905 
L 702.539508 177.243917 
L 703.971846 176.150607 
L 704.381085 176.028413 
L 705.404184 175.949953 
L 706.836522 175.337347 
L 707.655001 175.305948 
L 708.882719 175.48615 
L 709.905818 175.187508 
L 710.724297 175.262049 
L 711.133536 175.385241 
L 711.747395 175.873525 
L 712.361254 176.276808 
L 713.793593 176.633474 
L 718.090607 179.030406 
L 719.113705 179.604968 
L 720.341424 180.324905 
L 721.159903 180.567282 
L 722.387621 181.165015 
L 723.00148 181.437108 
L 724.024579 182.12404 
L 726.275396 182.961489 
L 727.298494 183.244609 
L 728.526213 183.60307 
L 729.549311 183.459325 
L 730.36779 184.00726 
L 730.98165 184.283422 
L 733.232467 184.632303 
L 735.483284 185.706705 
L 737.120241 185.646061 
L 737.734101 185.784571 
L 738.757199 186.168304 
L 739.575678 186.146788 
L 740.394157 185.900455 
L 741.008016 185.96785 
L 742.440354 186.43189 
L 743.054213 186.349258 
L 743.668073 186.320805 
L 744.691171 186.663882 
L 745.91889 187.122618 
L 746.532749 187.038125 
L 747.146608 186.997108 
L 748.169707 187.074234 
L 748.988186 187.079522 
L 750.625143 187.604163 
L 752.87596 187.394809 
L 753.48982 187.474822 
L 754.512918 187.747911 
L 755.331397 187.793747 
L 756.354496 187.719584 
L 757.172975 187.789093 
L 758.400693 187.622422 
L 759.219172 187.464049 
L 760.037651 187.421679 
L 763.516186 187.553188 
L 764.334665 187.579665 
L 764.948524 187.682219 
L 765.971623 187.882237 
L 766.790102 187.997686 
L 767.608581 188.203996 
L 769.040919 188.118891 
L 771.496355 188.450912 
L 772.314834 188.386939 
L 773.747172 188.640185 
L 774.361032 188.806647 
L 777.430328 188.71925 
L 778.453426 188.515507 
L 781.113483 188.861705 
L 781.727342 188.970675 
L 783.568919 188.781911 
L 784.182779 188.39796 
L 785.001257 187.843377 
L 786.433596 187.017684 
L 788.070553 186.013649 
L 788.684413 185.224382 
L 789.298272 183.896198 
L 789.707511 182.63998 
L 790.116751 180.781082 
L 790.93523 176.507584 
L 791.139849 176.271007 
L 791.344469 176.669562 
L 791.753708 178.868293 
L 792.367568 182.550802 
L 792.981427 184.791914 
L 793.595286 185.997583 
L 794.413765 187.071255 
L 795.232244 187.824149 
L 795.641483 187.963075 
L 796.869202 187.948831 
L 797.687681 187.772906 
L 799.120019 187.817354 
L 799.938498 187.405741 
L 800.552357 187.429214 
L 801.370836 187.636764 
L 802.393934 187.299645 
L 803.826272 186.453391 
L 804.644751 185.539695 
L 805.46323 184.327386 
L 806.077089 183.02418 
L 806.690948 180.959554 
L 807.304808 177.804167 
L 807.918667 173.251429 
L 808.532526 166.625229 
L 808.941765 160.020719 
L 809.351005 150.336428 
L 809.760244 135.853483 
L 810.374104 102.567237 
L 810.783343 79.553686 
L 810.987963 73.185811 
L 811.192582 72.670893 
L 811.397202 78.224565 
L 812.011061 114.016037 
L 812.624921 144.183873 
L 813.23878 160.850978 
L 813.852639 170.257684 
L 814.466498 176.062954 
L 815.080357 179.602577 
L 815.694216 181.970606 
L 816.308076 183.601584 
L 816.921935 184.754546 
L 817.945033 186.134068 
L 818.763512 186.869481 
L 819.581991 187.267135 
L 821.832808 188.042788 
L 822.855907 188.042676 
L 823.879006 187.893231 
L 825.106724 188.31948 
L 825.925203 188.273791 
L 827.152921 188.503496 
L 828.17602 188.460752 
L 829.608358 188.807438 
L 832.063795 188.764685 
L 833.291513 188.596972 
L 834.519231 188.866004 
L 835.33771 189.201491 
L 835.951569 189.175835 
L 837.383908 189.025066 
L 839.020865 189.07624 
L 839.634725 189.17408 
L 840.248584 189.284481 
L 840.862443 189.14246 
L 841.476302 188.976847 
L 842.499401 188.989364 
L 843.727119 188.496281 
L 844.136358 188.643476 
L 844.750218 188.970107 
L 845.364077 188.973596 
L 846.591795 188.735296 
L 847.410274 188.49411 
L 848.842612 188.347211 
L 849.456471 188.670064 
L 850.27495 189.087743 
L 851.502669 189.464633 
L 852.525767 189.449692 
L 853.548866 189.043826 
L 854.162725 188.827407 
L 855.390443 188.621321 
L 856.004303 188.498721 
L 858.459739 188.323215 
L 859.278218 188.100469 
L 860.301317 188.264468 
L 862.552134 188.516335 
L 863.165993 188.419195 
L 863.984472 188.019161 
L 864.598331 187.557151 
L 865.21219 186.715195 
L 865.62143 185.835832 
L 866.030669 184.513483 
L 866.439909 182.621484 
L 867.053768 178.258051 
L 867.667627 173.95977 
L 867.872247 173.908522 
L 868.076867 174.828261 
L 869.304585 183.558466 
L 869.918444 185.733273 
L 870.327684 186.607758 
L 870.941543 187.317149 
L 873.19236 188.925927 
L 874.420078 188.954459 
L 875.238557 188.870605 
L 877.080135 189.22871 
L 878.103233 189.162689 
L 879.535571 188.540914 
L 880.35405 188.281023 
L 881.377149 188.267629 
L 882.400247 188.363118 
L 883.218726 188.582902 
L 884.037205 188.81286 
L 884.855684 188.76372 
L 886.901881 188.344594 
L 887.72036 188.225974 
L 888.538839 188.097213 
L 889.357318 187.928559 
L 889.766558 188.132458 
L 890.585036 188.703767 
L 891.403515 188.877508 
L 892.426614 188.91902 
L 894.268192 188.788072 
L 895.29129 188.652882 
L 896.314389 188.420792 
L 898.565206 188.376529 
L 899.179065 188.443077 
L 901.634502 188.104257 
L 902.86222 188.168675 
L 904.089938 187.99441 
L 905.522277 187.421649 
L 907.773094 186.841732 
L 909.000812 186.372132 
L 910.22853 186.339168 
L 911.456249 185.830565 
L 912.888587 185.754671 
L 913.502446 185.72631 
L 915.139404 185.26182 
L 916.162502 185.2436 
L 916.776362 185.534949 
L 918.00408 186.242241 
L 918.617939 186.562725 
L 919.231798 187.283252 
L 919.845657 188.234052 
L 920.050277 188.360507 
L 920.459517 188.17108 
L 921.073376 187.707669 
L 922.301094 187.183781 
L 925.779629 186.780926 
L 927.211968 187.296659 
L 927.621207 187.253459 
L 928.030446 187.41536 
L 928.848925 187.953953 
L 929.462785 188.056471 
L 931.304362 188.082146 
L 932.327461 187.755069 
L 932.94132 188.023837 
L 934.373658 188.680849 
L 935.396757 188.718322 
L 936.010616 188.765724 
L 937.442954 189.15385 
L 939.079912 189.103454 
L 940.51225 188.79554 
L 941.126109 188.875848 
L 942.149208 189.029664 
L 942.763067 189.084755 
L 943.581546 189.271477 
L 944.195405 189.099103 
L 947.87856 186.884081 
L 949.924757 185.61232 
L 950.538616 185.221912 
L 951.152476 184.607011 
L 952.994053 182.121082 
L 953.812532 180.562453 
L 954.631011 178.802113 
L 955.24487 176.482124 
L 955.858729 172.81404 
L 956.472588 167.359076 
L 957.086448 159.333666 
L 957.700307 146.832197 
L 958.109546 134.136366 
L 958.518786 115.801887 
L 959.746504 48.116101 
L 959.951124 49.167034 
L 960.155744 56.097735 
L 960.769603 94.638109 
L 961.383462 128.712843 
L 961.997321 149.779109 
L 962.61118 162.468398 
L 963.225039 170.421574 
L 963.838899 175.414281 
L 964.452758 178.536412 
L 965.271237 181.440486 
L 965.885096 182.825309 
L 967.112814 184.760103 
L 967.726673 185.248802 
L 968.749772 185.627231 
L 969.568251 185.938696 
L 971.000589 186.474188 
L 974.069885 187.077805 
L 975.297603 187.599395 
L 975.911463 187.42896 
L 976.320702 187.372135 
L 976.729941 187.56143 
L 978.16228 188.601359 
L 979.799237 188.98164 
L 981.231575 189.130057 
L 982.663914 188.809575 
L 983.277773 188.634379 
L 984.096252 188.661766 
L 984.914731 188.896649 
L 985.733209 189.116252 
L 987.984026 189.0859 
L 988.597886 189.213214 
L 990.439463 188.801376 
L 991.257942 188.473515 
L 992.281041 188.493846 
L 993.304139 188.63563 
L 994.327238 188.81266 
L 994.941097 188.557625 
L 995.759576 188.221194 
L 996.168815 188.241601 
L 998.215013 188.793901 
L 999.647351 188.802678 
L 1001.079689 189.506643 
L 1003.125886 189.377717 
L 1004.353605 189.558129 
L 1005.172083 189.50605 
L 1005.785943 189.555326 
L 1006.399802 189.605108 
L 1007.83214 189.447676 
L 1008.855239 189.295493 
L 1009.469098 189.154343 
L 1011.515295 189.246897 
L 1015.812309 189.74041 
L 1017.040028 189.390059 
L 1018.676985 189.153691 
L 1019.290845 189.137262 
L 1020.109324 189.263076 
L 1021.746281 189.040572 
L 1022.56476 188.806623 
L 1024.406338 188.656878 
L 1025.634056 189.043489 
L 1027.884873 189.233316 
L 1028.703352 189.028307 
L 1029.726451 188.393748 
L 1032.386507 188.077954 
L 1037.502 188.959591 
L 1038.729719 189.042694 
L 1039.957437 189.189724 
L 1040.366676 189.219454 
L 1041.389775 189.478008 
L 1042.003634 189.297037 
L 1042.822113 189.000574 
L 1043.435972 189.087111 
L 1044.459071 189.447824 
L 1045.891409 189.433668 
L 1046.709888 189.601894 
L 1049.983804 189.574697 
L 1051.211522 189.825658 
L 1051.825381 189.695198 
L 1052.64386 189.320953 
L 1054.280818 189.15293 
L 1055.713156 189.367264 
L 1056.736255 189.52411 
L 1057.963973 189.696757 
L 1058.987072 190.112597 
L 1060.01017 190.528705 
L 1060.624029 190.509513 
L 1061.442508 190.150165 
L 1062.056368 189.939261 
L 1063.284086 189.830004 
L 1064.307185 189.470464 
L 1064.716424 189.691425 
L 1065.330283 190.095519 
L 1065.739523 190.196035 
L 1066.353382 190.039414 
L 1066.762621 189.935087 
L 1067.37648 190.111348 
L 1067.78572 190.191904 
L 1068.399579 189.953247 
L 1069.013438 189.816139 
L 1069.627297 189.957305 
L 1070.241157 190.048063 
L 1071.468875 189.956313 
L 1072.287354 189.669396 
L 1072.901213 189.75931 
L 1074.333551 190.154839 
L 1074.742791 190.160151 
L 1075.765889 189.771762 
L 1076.584368 189.562069 
L 1077.812086 189.608123 
L 1078.630565 189.77304 
L 1079.449044 189.775711 
L 1080.267523 189.875973 
L 1081.699861 189.728776 
L 1084.155298 189.910925 
L 1084.769157 189.882333 
L 1085.792256 190.084885 
L 1086.610735 190.079938 
L 1087.429214 190.039976 
L 1088.043073 190.025191 
L 1089.680031 189.606624 
L 1091.316988 189.894885 
L 1093.363186 190.019885 
L 1094.386284 189.753601 
L 1095.409383 189.461037 
L 1096.637101 189.757223 
L 1097.45558 189.709451 
L 1099.092538 190.110051 
L 1099.706397 190.347428 
L 1100.320256 190.356275 
L 1101.138735 189.9979 
L 1101.957214 189.718386 
L 1102.571073 189.701009 
L 1104.003412 189.978593 
L 1105.640369 189.77101 
L 1107.277327 189.515709 
L 1107.686567 189.672256 
L 1108.505046 190.164083 
L 1108.914285 190.161115 
L 1113.415919 189.118254 
L 1114.439018 189.441998 
L 1115.462116 189.785758 
L 1116.075975 189.743648 
L 1117.712933 189.485408 
L 1118.326792 189.457163 
L 1119.349891 189.307742 
L 1120.37299 189.403318 
L 1121.805328 189.658279 
L 1122.623807 189.624672 
L 1123.851525 189.27602 
L 1125.079243 189.271377 
L 1125.897722 189.253085 
L 1127.125441 189.5901 
L 1128.148539 189.952276 
L 1128.762398 189.956356 
L 1130.399356 189.569734 
L 1131.422455 189.890485 
L 1131.831694 189.779855 
L 1132.445554 189.55885 
L 1132.854793 189.639414 
L 1133.673272 189.938949 
L 1134.491751 189.865454 
L 1135.31023 189.841378 
L 1136.333328 190.01107 
L 1136.947188 190.075957 
L 1138.788765 190.009847 
L 1139.607244 189.920696 
L 1140.425723 189.822619 
L 1141.858061 189.797937 
L 1143.085779 190.108506 
L 1143.699639 190.081503 
L 1144.927357 189.783252 
L 1146.359695 190.03811 
L 1147.178174 189.978592 
L 1148.815132 190.140926 
L 1150.04285 189.524792 
L 1151.270568 189.500241 
L 1152.089047 189.510747 
L 1153.521385 189.490197 
L 1155.158343 189.671947 
L 1156.386062 189.721938 
L 1157.20454 189.859434 
L 1159.046118 189.824455 
L 1161.910794 190.145259 
L 1163.138513 189.519064 
L 1163.752372 189.245396 
L 1164.366231 189.274362 
L 1165.18471 189.517221 
L 1166.003189 189.737921 
L 1167.435527 189.723046 
L 1168.049386 189.787374 
L 1168.867865 189.560676 
L 1169.890964 189.269746 
L 1170.914062 189.25891 
L 1171.527921 189.484132 
L 1172.3464 189.901455 
L 1172.960259 189.894236 
L 1173.983358 189.803195 
L 1174.801837 189.731512 
L 1175.620316 189.620864 
L 1177.052654 189.70012 
L 1177.871133 189.864908 
L 1178.484992 190.028087 
L 1179.098851 189.908227 
L 1179.71271 189.844805 
L 1180.735809 189.866086 
L 1181.349668 189.647272 
L 1181.963527 189.443414 
L 1182.986626 189.488622 
L 1184.009725 189.368806 
L 1184.828204 189.254302 
L 1184.828204 189.254302 
" clip-path="url(#p09acf991fd)" style="fill: none; stroke: #000000; stroke-width: 2; stroke-linecap: square"/>
   </g>
   <g id="patch_3">
    <path d="M 3.00024 198.907885 
L 1184.99976 198.907885 
" style="fill: none; stroke: #000000; stroke-width: 2; stroke-linejoin: miter; stroke-linecap: square"/>
   </g>
  </g>
 </g>
 <defs>
  <clipPath id="p09acf991fd">
   <rect x="3.00024" y="3.00024" width="1181.99952" height="195.907645"/>
  </clipPath>
 </defs>
</svg>
