<?xml version="1.0" encoding="utf-8" standalone="no"?>
<!DOCTYPE svg PUBLIC "-//W3C//DTD SVG 1.1//EN"
  "http://www.w3.org/Graphics/SVG/1.1/DTD/svg11.dtd">
<svg xmlns:xlink="http://www.w3.org/1999/xlink" width="1188pt" height="252pt" viewBox="0 0 1188 252" xmlns="http://www.w3.org/2000/svg" version="1.1">
 <metadata>
  <rdf:RDF xmlns:dc="http://purl.org/dc/elements/1.1/" xmlns:cc="http://creativecommons.org/ns#" xmlns:rdf="http://www.w3.org/1999/02/22-rdf-syntax-ns#">
   <cc:Work>
    <dc:type rdf:resource="http://purl.org/dc/dcmitype/StillImage"/>
    <dc:date>2024-05-13T16:41:19.127414</dc:date>
    <dc:format>image/svg+xml</dc:format>
    <dc:creator>
     <cc:Agent>
      <dc:title>Matplotlib v3.8.0, https://matplotlib.org/</dc:title>
     </cc:Agent>
    </dc:creator>
   </cc:Work>
  </rdf:RDF>
 </metadata>
 <defs>
  <style type="text/css">*{stroke-linejoin: round; stroke-linecap: butt}</style>
 </defs>
 <g id="figure_1">
  <g id="patch_1">
   <path d="M 0 252 
L 1188 252 
L 1188 0 
L 0 0 
z
" style="fill: #ffffff"/>
  </g>
  <g id="axes_1">
   <g id="patch_2">
    <path d="M 3.00024 198.907885 
L 1184.99976 198.907885 
L 1184.99976 3.00024 
L 3.00024 3.00024 
z
" style="fill: #ffffff"/>
   </g>
   <g id="matplotlib.axis_1">
    <g id="xtick_1">
     <g id="line2d_1">
      <defs>
       <path id="mb4accc11a8" d="M 0 0 
L 0 8 
" style="stroke: #000000; stroke-width: 2"/>
      </defs>
      <g>
       <use xlink:href="#mb4accc11a8" x="1131.272509" y="198.907885" style="stroke: #000000; stroke-width: 2"/>
      </g>
     </g>
     <g id="text_1">
      <!-- 0 -->
      <g transform="translate(1126.267665 224.791947) scale(0.18 -0.18)">
       <defs>
        <path id="Arial-BoldMT-30" d="M 1756 4600 
Q 2422 4600 2797 4125 
Q 3244 3563 3244 2259 
Q 3244 959 2794 391 
Q 2422 -78 1756 -78 
Q 1088 -78 678 436 
Q 269 950 269 2269 
Q 269 3563 719 4131 
Q 1091 4600 1756 4600 
z
M 1756 3872 
Q 1597 3872 1472 3770 
Q 1347 3669 1278 3406 
Q 1188 3066 1188 2259 
Q 1188 1453 1269 1151 
Q 1350 850 1473 750 
Q 1597 650 1756 650 
Q 1916 650 2041 751 
Q 2166 853 2234 1116 
Q 2325 1453 2325 2259 
Q 2325 3066 2244 3367 
Q 2163 3669 2039 3770 
Q 1916 3872 1756 3872 
z
" transform="scale(0.015625)"/>
       </defs>
       <use xlink:href="#Arial-BoldMT-30"/>
      </g>
     </g>
    </g>
    <g id="xtick_2">
     <g id="line2d_2">
      <g>
       <use xlink:href="#mb4accc11a8" x="1023.818007" y="198.907885" style="stroke: #000000; stroke-width: 2"/>
      </g>
     </g>
     <g id="text_2">
      <!-- 1 -->
      <g transform="translate(1018.813164 224.791947) scale(0.18 -0.18)">
       <defs>
        <path id="Arial-BoldMT-31" d="M 2519 0 
L 1641 0 
L 1641 3309 
Q 1159 2859 506 2644 
L 506 3441 
Q 850 3553 1253 3867 
Q 1656 4181 1806 4600 
L 2519 4600 
L 2519 0 
z
" transform="scale(0.015625)"/>
       </defs>
       <use xlink:href="#Arial-BoldMT-31"/>
      </g>
     </g>
    </g>
    <g id="xtick_3">
     <g id="line2d_3">
      <g>
       <use xlink:href="#mb4accc11a8" x="916.363505" y="198.907885" style="stroke: #000000; stroke-width: 2"/>
      </g>
     </g>
     <g id="text_3">
      <!-- 2 -->
      <g transform="translate(911.358662 224.791947) scale(0.18 -0.18)">
       <defs>
        <path id="Arial-BoldMT-32" d="M 3238 816 
L 3238 0 
L 159 0 
Q 209 463 459 877 
Q 709 1291 1447 1975 
Q 2041 2528 2175 2725 
Q 2356 2997 2356 3263 
Q 2356 3556 2198 3714 
Q 2041 3872 1763 3872 
Q 1488 3872 1325 3706 
Q 1163 3541 1138 3156 
L 263 3244 
Q 341 3969 753 4284 
Q 1166 4600 1784 4600 
Q 2463 4600 2850 4234 
Q 3238 3869 3238 3325 
Q 3238 3016 3127 2736 
Q 3016 2456 2775 2150 
Q 2616 1947 2200 1565 
Q 1784 1184 1673 1059 
Q 1563 934 1494 816 
L 3238 816 
z
" transform="scale(0.015625)"/>
       </defs>
       <use xlink:href="#Arial-BoldMT-32"/>
      </g>
     </g>
    </g>
    <g id="xtick_4">
     <g id="line2d_4">
      <g>
       <use xlink:href="#mb4accc11a8" x="808.909004" y="198.907885" style="stroke: #000000; stroke-width: 2"/>
      </g>
     </g>
     <g id="text_4">
      <!-- 3 -->
      <g transform="translate(803.90416 224.791947) scale(0.18 -0.18)">
       <defs>
        <path id="Arial-BoldMT-33" d="M 241 1216 
L 1091 1319 
Q 1131 994 1309 822 
Q 1488 650 1741 650 
Q 2013 650 2198 856 
Q 2384 1063 2384 1413 
Q 2384 1744 2206 1937 
Q 2028 2131 1772 2131 
Q 1603 2131 1369 2066 
L 1466 2781 
Q 1822 2772 2009 2936 
Q 2197 3100 2197 3372 
Q 2197 3603 2059 3740 
Q 1922 3878 1694 3878 
Q 1469 3878 1309 3722 
Q 1150 3566 1116 3266 
L 306 3403 
Q 391 3819 561 4067 
Q 731 4316 1036 4458 
Q 1341 4600 1719 4600 
Q 2366 4600 2756 4188 
Q 3078 3850 3078 3425 
Q 3078 2822 2419 2463 
Q 2813 2378 3048 2084 
Q 3284 1791 3284 1375 
Q 3284 772 2843 347 
Q 2403 -78 1747 -78 
Q 1125 -78 715 280 
Q 306 638 241 1216 
z
" transform="scale(0.015625)"/>
       </defs>
       <use xlink:href="#Arial-BoldMT-33"/>
      </g>
     </g>
    </g>
    <g id="xtick_5">
     <g id="line2d_5">
      <g>
       <use xlink:href="#mb4accc11a8" x="701.454502" y="198.907885" style="stroke: #000000; stroke-width: 2"/>
      </g>
     </g>
     <g id="text_5">
      <!-- 4 -->
      <g transform="translate(696.449658 224.791947) scale(0.18 -0.18)">
       <defs>
        <path id="Arial-BoldMT-34" d="M 1994 0 
L 1994 922 
L 119 922 
L 119 1691 
L 2106 4600 
L 2844 4600 
L 2844 1694 
L 3413 1694 
L 3413 922 
L 2844 922 
L 2844 0 
L 1994 0 
z
M 1994 1694 
L 1994 3259 
L 941 1694 
L 1994 1694 
z
" transform="scale(0.015625)"/>
       </defs>
       <use xlink:href="#Arial-BoldMT-34"/>
      </g>
     </g>
    </g>
    <g id="xtick_6">
     <g id="line2d_6">
      <g>
       <use xlink:href="#mb4accc11a8" x="594" y="198.907885" style="stroke: #000000; stroke-width: 2"/>
      </g>
     </g>
     <g id="text_6">
      <!-- 5 -->
      <g transform="translate(588.995156 224.791947) scale(0.18 -0.18)">
       <defs>
        <path id="Arial-BoldMT-35" d="M 284 1178 
L 1159 1269 
Q 1197 972 1381 798 
Q 1566 625 1806 625 
Q 2081 625 2272 848 
Q 2463 1072 2463 1522 
Q 2463 1944 2273 2155 
Q 2084 2366 1781 2366 
Q 1403 2366 1103 2031 
L 391 2134 
L 841 4519 
L 3163 4519 
L 3163 3697 
L 1506 3697 
L 1369 2919 
Q 1663 3066 1969 3066 
Q 2553 3066 2959 2641 
Q 3366 2216 3366 1538 
Q 3366 972 3038 528 
Q 2591 -78 1797 -78 
Q 1163 -78 763 262 
Q 363 603 284 1178 
z
" transform="scale(0.015625)"/>
       </defs>
       <use xlink:href="#Arial-BoldMT-35"/>
      </g>
     </g>
    </g>
    <g id="xtick_7">
     <g id="line2d_7">
      <g>
       <use xlink:href="#mb4accc11a8" x="486.545498" y="198.907885" style="stroke: #000000; stroke-width: 2"/>
      </g>
     </g>
     <g id="text_7">
      <!-- 6 -->
      <g transform="translate(481.540654 224.791947) scale(0.18 -0.18)">
       <defs>
        <path id="Arial-BoldMT-36" d="M 3247 3459 
L 2397 3366 
Q 2366 3628 2234 3753 
Q 2103 3878 1894 3878 
Q 1616 3878 1423 3628 
Q 1231 3378 1181 2588 
Q 1509 2975 1997 2975 
Q 2547 2975 2939 2556 
Q 3331 2138 3331 1475 
Q 3331 772 2918 347 
Q 2506 -78 1859 -78 
Q 1166 -78 719 461 
Q 272 1000 272 2228 
Q 272 3488 737 4044 
Q 1203 4600 1947 4600 
Q 2469 4600 2811 4308 
Q 3153 4016 3247 3459 
z
M 1256 1544 
Q 1256 1116 1453 883 
Q 1650 650 1903 650 
Q 2147 650 2309 840 
Q 2472 1031 2472 1466 
Q 2472 1913 2297 2120 
Q 2122 2328 1859 2328 
Q 1606 2328 1431 2129 
Q 1256 1931 1256 1544 
z
" transform="scale(0.015625)"/>
       </defs>
       <use xlink:href="#Arial-BoldMT-36"/>
      </g>
     </g>
    </g>
    <g id="xtick_8">
     <g id="line2d_8">
      <g>
       <use xlink:href="#mb4accc11a8" x="379.090996" y="198.907885" style="stroke: #000000; stroke-width: 2"/>
      </g>
     </g>
     <g id="text_8">
      <!-- 7 -->
      <g transform="translate(374.086153 224.791947) scale(0.18 -0.18)">
       <defs>
        <path id="Arial-BoldMT-37" d="M 272 3703 
L 272 4519 
L 3275 4519 
L 3275 3881 
Q 2903 3516 2518 2831 
Q 2134 2147 1932 1376 
Q 1731 606 1734 0 
L 888 0 
Q 909 950 1279 1937 
Q 1650 2925 2269 3703 
L 272 3703 
z
" transform="scale(0.015625)"/>
       </defs>
       <use xlink:href="#Arial-BoldMT-37"/>
      </g>
     </g>
    </g>
    <g id="xtick_9">
     <g id="line2d_9">
      <g>
       <use xlink:href="#mb4accc11a8" x="271.636495" y="198.907885" style="stroke: #000000; stroke-width: 2"/>
      </g>
     </g>
     <g id="text_9">
      <!-- 8 -->
      <g transform="translate(266.631651 224.791947) scale(0.18 -0.18)">
       <defs>
        <path id="Arial-BoldMT-38" d="M 1025 2472 
Q 684 2616 529 2867 
Q 375 3119 375 3419 
Q 375 3931 733 4265 
Q 1091 4600 1750 4600 
Q 2403 4600 2764 4265 
Q 3125 3931 3125 3419 
Q 3125 3100 2959 2851 
Q 2794 2603 2494 2472 
Q 2875 2319 3073 2025 
Q 3272 1731 3272 1347 
Q 3272 713 2867 316 
Q 2463 -81 1791 -81 
Q 1166 -81 750 247 
Q 259 634 259 1309 
Q 259 1681 443 1992 
Q 628 2303 1025 2472 
z
M 1206 3356 
Q 1206 3094 1354 2947 
Q 1503 2800 1750 2800 
Q 2000 2800 2150 2948 
Q 2300 3097 2300 3359 
Q 2300 3606 2151 3754 
Q 2003 3903 1759 3903 
Q 1506 3903 1356 3753 
Q 1206 3603 1206 3356 
z
M 1125 1394 
Q 1125 1031 1311 828 
Q 1497 625 1775 625 
Q 2047 625 2225 820 
Q 2403 1016 2403 1384 
Q 2403 1706 2222 1901 
Q 2041 2097 1763 2097 
Q 1441 2097 1283 1875 
Q 1125 1653 1125 1394 
z
" transform="scale(0.015625)"/>
       </defs>
       <use xlink:href="#Arial-BoldMT-38"/>
      </g>
     </g>
    </g>
    <g id="xtick_10">
     <g id="line2d_10">
      <g>
       <use xlink:href="#mb4accc11a8" x="164.181993" y="198.907885" style="stroke: #000000; stroke-width: 2"/>
      </g>
     </g>
     <g id="text_10">
      <!-- 9 -->
      <g transform="translate(159.177149 224.791947) scale(0.18 -0.18)">
       <defs>
        <path id="Arial-BoldMT-39" d="M 291 1059 
L 1141 1153 
Q 1172 894 1303 769 
Q 1434 644 1650 644 
Q 1922 644 2112 894 
Q 2303 1144 2356 1931 
Q 2025 1547 1528 1547 
Q 988 1547 595 1964 
Q 203 2381 203 3050 
Q 203 3747 617 4173 
Q 1031 4600 1672 4600 
Q 2369 4600 2816 4061 
Q 3263 3522 3263 2288 
Q 3263 1031 2797 475 
Q 2331 -81 1584 -81 
Q 1047 -81 715 205 
Q 384 491 291 1059 
z
M 2278 2978 
Q 2278 3403 2083 3637 
Q 1888 3872 1631 3872 
Q 1388 3872 1227 3680 
Q 1066 3488 1066 3050 
Q 1066 2606 1241 2398 
Q 1416 2191 1678 2191 
Q 1931 2191 2104 2391 
Q 2278 2591 2278 2978 
z
" transform="scale(0.015625)"/>
       </defs>
       <use xlink:href="#Arial-BoldMT-39"/>
      </g>
     </g>
    </g>
    <g id="xtick_11">
     <g id="line2d_11">
      <g>
       <use xlink:href="#mb4accc11a8" x="56.727491" y="198.907885" style="stroke: #000000; stroke-width: 2"/>
      </g>
     </g>
     <g id="text_11">
      <!-- 10 -->
      <g transform="translate(46.717803 224.791947) scale(0.18 -0.18)">
       <use xlink:href="#Arial-BoldMT-31"/>
       <use xlink:href="#Arial-BoldMT-30" x="55.615234"/>
      </g>
     </g>
    </g>
    <g id="text_12">
     <!-- Chemical Shift / ppm -->
     <g transform="translate(504.992813 245.447573) scale(0.18 -0.18)">
      <defs>
       <path id="Arial-BoldMT-43" d="M 3397 1684 
L 4294 1400 
Q 4088 650 3608 286 
Q 3128 -78 2391 -78 
Q 1478 -78 890 545 
Q 303 1169 303 2250 
Q 303 3394 893 4026 
Q 1484 4659 2447 4659 
Q 3288 4659 3813 4163 
Q 4125 3869 4281 3319 
L 3366 3100 
Q 3284 3456 3026 3662 
Q 2769 3869 2400 3869 
Q 1891 3869 1573 3503 
Q 1256 3138 1256 2319 
Q 1256 1450 1568 1081 
Q 1881 713 2381 713 
Q 2750 713 3015 947 
Q 3281 1181 3397 1684 
z
" transform="scale(0.015625)"/>
       <path id="Arial-BoldMT-68" d="M 1334 4581 
L 1334 2897 
Q 1759 3394 2350 3394 
Q 2653 3394 2897 3281 
Q 3141 3169 3264 2994 
Q 3388 2819 3433 2606 
Q 3478 2394 3478 1947 
L 3478 0 
L 2600 0 
L 2600 1753 
Q 2600 2275 2550 2415 
Q 2500 2556 2373 2639 
Q 2247 2722 2056 2722 
Q 1838 2722 1666 2615 
Q 1494 2509 1414 2295 
Q 1334 2081 1334 1663 
L 1334 0 
L 456 0 
L 456 4581 
L 1334 4581 
z
" transform="scale(0.015625)"/>
       <path id="Arial-BoldMT-65" d="M 2381 1056 
L 3256 909 
Q 3088 428 2723 176 
Q 2359 -75 1813 -75 
Q 947 -75 531 491 
Q 203 944 203 1634 
Q 203 2459 634 2926 
Q 1066 3394 1725 3394 
Q 2466 3394 2894 2905 
Q 3322 2416 3303 1406 
L 1103 1406 
Q 1113 1016 1316 798 
Q 1519 581 1822 581 
Q 2028 581 2168 693 
Q 2309 806 2381 1056 
z
M 2431 1944 
Q 2422 2325 2234 2523 
Q 2047 2722 1778 2722 
Q 1491 2722 1303 2513 
Q 1116 2303 1119 1944 
L 2431 1944 
z
" transform="scale(0.015625)"/>
       <path id="Arial-BoldMT-6d" d="M 394 3319 
L 1203 3319 
L 1203 2866 
Q 1638 3394 2238 3394 
Q 2556 3394 2790 3262 
Q 3025 3131 3175 2866 
Q 3394 3131 3647 3262 
Q 3900 3394 4188 3394 
Q 4553 3394 4806 3245 
Q 5059 3097 5184 2809 
Q 5275 2597 5275 2122 
L 5275 0 
L 4397 0 
L 4397 1897 
Q 4397 2391 4306 2534 
Q 4184 2722 3931 2722 
Q 3747 2722 3584 2609 
Q 3422 2497 3350 2280 
Q 3278 2063 3278 1594 
L 3278 0 
L 2400 0 
L 2400 1819 
Q 2400 2303 2353 2443 
Q 2306 2584 2207 2653 
Q 2109 2722 1941 2722 
Q 1738 2722 1575 2612 
Q 1413 2503 1342 2297 
Q 1272 2091 1272 1613 
L 1272 0 
L 394 0 
L 394 3319 
z
" transform="scale(0.015625)"/>
       <path id="Arial-BoldMT-69" d="M 459 3769 
L 459 4581 
L 1338 4581 
L 1338 3769 
L 459 3769 
z
M 459 0 
L 459 3319 
L 1338 3319 
L 1338 0 
L 459 0 
z
" transform="scale(0.015625)"/>
       <path id="Arial-BoldMT-63" d="M 3353 2338 
L 2488 2181 
Q 2444 2441 2289 2572 
Q 2134 2703 1888 2703 
Q 1559 2703 1364 2476 
Q 1169 2250 1169 1719 
Q 1169 1128 1367 884 
Q 1566 641 1900 641 
Q 2150 641 2309 783 
Q 2469 925 2534 1272 
L 3397 1125 
Q 3263 531 2881 228 
Q 2500 -75 1859 -75 
Q 1131 -75 698 384 
Q 266 844 266 1656 
Q 266 2478 700 2936 
Q 1134 3394 1875 3394 
Q 2481 3394 2839 3133 
Q 3197 2872 3353 2338 
z
" transform="scale(0.015625)"/>
       <path id="Arial-BoldMT-61" d="M 1116 2306 
L 319 2450 
Q 453 2931 781 3162 
Q 1109 3394 1756 3394 
Q 2344 3394 2631 3255 
Q 2919 3116 3036 2902 
Q 3153 2688 3153 2116 
L 3144 1091 
Q 3144 653 3186 445 
Q 3228 238 3344 0 
L 2475 0 
Q 2441 88 2391 259 
Q 2369 338 2359 363 
Q 2134 144 1878 34 
Q 1622 -75 1331 -75 
Q 819 -75 523 203 
Q 228 481 228 906 
Q 228 1188 362 1408 
Q 497 1628 739 1745 
Q 981 1863 1438 1950 
Q 2053 2066 2291 2166 
L 2291 2253 
Q 2291 2506 2166 2614 
Q 2041 2722 1694 2722 
Q 1459 2722 1328 2630 
Q 1197 2538 1116 2306 
z
M 2291 1594 
Q 2122 1538 1756 1459 
Q 1391 1381 1278 1306 
Q 1106 1184 1106 997 
Q 1106 813 1243 678 
Q 1381 544 1594 544 
Q 1831 544 2047 700 
Q 2206 819 2256 991 
Q 2291 1103 2291 1419 
L 2291 1594 
z
" transform="scale(0.015625)"/>
       <path id="Arial-BoldMT-6c" d="M 459 0 
L 459 4581 
L 1338 4581 
L 1338 0 
L 459 0 
z
" transform="scale(0.015625)"/>
       <path id="Arial-BoldMT-20" transform="scale(0.015625)"/>
       <path id="Arial-BoldMT-53" d="M 231 1491 
L 1131 1578 
Q 1213 1125 1461 912 
Q 1709 700 2131 700 
Q 2578 700 2804 889 
Q 3031 1078 3031 1331 
Q 3031 1494 2936 1608 
Q 2841 1722 2603 1806 
Q 2441 1863 1863 2006 
Q 1119 2191 819 2459 
Q 397 2838 397 3381 
Q 397 3731 595 4036 
Q 794 4341 1167 4500 
Q 1541 4659 2069 4659 
Q 2931 4659 3367 4281 
Q 3803 3903 3825 3272 
L 2900 3231 
Q 2841 3584 2645 3739 
Q 2450 3894 2059 3894 
Q 1656 3894 1428 3728 
Q 1281 3622 1281 3444 
Q 1281 3281 1419 3166 
Q 1594 3019 2269 2859 
Q 2944 2700 3267 2529 
Q 3591 2359 3773 2064 
Q 3956 1769 3956 1334 
Q 3956 941 3737 597 
Q 3519 253 3119 86 
Q 2719 -81 2122 -81 
Q 1253 -81 787 320 
Q 322 722 231 1491 
z
" transform="scale(0.015625)"/>
       <path id="Arial-BoldMT-66" d="M 75 3319 
L 563 3319 
L 563 3569 
Q 563 3988 652 4194 
Q 741 4400 980 4529 
Q 1219 4659 1584 4659 
Q 1959 4659 2319 4547 
L 2200 3934 
Q 1991 3984 1797 3984 
Q 1606 3984 1523 3895 
Q 1441 3806 1441 3553 
L 1441 3319 
L 2097 3319 
L 2097 2628 
L 1441 2628 
L 1441 0 
L 563 0 
L 563 2628 
L 75 2628 
L 75 3319 
z
" transform="scale(0.015625)"/>
       <path id="Arial-BoldMT-74" d="M 1981 3319 
L 1981 2619 
L 1381 2619 
L 1381 1281 
Q 1381 875 1398 808 
Q 1416 741 1477 697 
Q 1538 653 1625 653 
Q 1747 653 1978 738 
L 2053 56 
Q 1747 -75 1359 -75 
Q 1122 -75 931 4 
Q 741 84 652 211 
Q 563 338 528 553 
Q 500 706 500 1172 
L 500 2619 
L 97 2619 
L 97 3319 
L 500 3319 
L 500 3978 
L 1381 4491 
L 1381 3319 
L 1981 3319 
z
" transform="scale(0.015625)"/>
       <path id="Arial-BoldMT-2f" d="M -9 -78 
L 1125 4659 
L 1784 4659 
L 638 -78 
L -9 -78 
z
" transform="scale(0.015625)"/>
       <path id="Arial-BoldMT-70" d="M 434 3319 
L 1253 3319 
L 1253 2831 
Q 1413 3081 1684 3237 
Q 1956 3394 2288 3394 
Q 2866 3394 3269 2941 
Q 3672 2488 3672 1678 
Q 3672 847 3265 386 
Q 2859 -75 2281 -75 
Q 2006 -75 1782 34 
Q 1559 144 1313 409 
L 1313 -1263 
L 434 -1263 
L 434 3319 
z
M 1303 1716 
Q 1303 1156 1525 889 
Q 1747 622 2066 622 
Q 2372 622 2575 867 
Q 2778 1113 2778 1672 
Q 2778 2194 2568 2447 
Q 2359 2700 2050 2700 
Q 1728 2700 1515 2451 
Q 1303 2203 1303 1716 
z
" transform="scale(0.015625)"/>
      </defs>
      <use xlink:href="#Arial-BoldMT-43"/>
      <use xlink:href="#Arial-BoldMT-68" x="72.216797"/>
      <use xlink:href="#Arial-BoldMT-65" x="133.300781"/>
      <use xlink:href="#Arial-BoldMT-6d" x="188.916016"/>
      <use xlink:href="#Arial-BoldMT-69" x="277.832031"/>
      <use xlink:href="#Arial-BoldMT-63" x="305.615234"/>
      <use xlink:href="#Arial-BoldMT-61" x="361.230469"/>
      <use xlink:href="#Arial-BoldMT-6c" x="416.845703"/>
      <use xlink:href="#Arial-BoldMT-20" x="444.628906"/>
      <use xlink:href="#Arial-BoldMT-53" x="472.412109"/>
      <use xlink:href="#Arial-BoldMT-68" x="539.111328"/>
      <use xlink:href="#Arial-BoldMT-69" x="600.195312"/>
      <use xlink:href="#Arial-BoldMT-66" x="627.978516"/>
      <use xlink:href="#Arial-BoldMT-74" x="661.279297"/>
      <use xlink:href="#Arial-BoldMT-20" x="694.580078"/>
      <use xlink:href="#Arial-BoldMT-2f" x="722.363281"/>
      <use xlink:href="#Arial-BoldMT-20" x="750.146484"/>
      <use xlink:href="#Arial-BoldMT-70" x="777.929688"/>
      <use xlink:href="#Arial-BoldMT-70" x="839.013672"/>
      <use xlink:href="#Arial-BoldMT-6d" x="900.097656"/>
     </g>
    </g>
   </g>
   <g id="matplotlib.axis_2"/>
   <g id="line2d_12">
    <path d="M 2.930308 188.633712 
L 3.748787 189.081911 
L 4.158026 189.788157 
L 4.567266 190.684229 
L 4.771885 190.865221 
L 4.976505 190.822764 
L 5.385744 190.361132 
L 5.794984 189.804736 
L 5.999604 189.710121 
L 6.408843 189.951068 
L 7.431942 190.867848 
L 7.841181 191.551925 
L 8.045801 191.677032 
L 8.250421 191.571219 
L 8.65966 191.020123 
L 9.068899 190.011615 
L 9.682759 188.257665 
L 9.887378 187.979485 
L 10.091998 187.899498 
L 10.501238 188.182825 
L 10.910477 188.474633 
L 11.728956 188.651275 
L 12.752055 188.34584 
L 13.570533 188.570718 
L 13.979773 188.37522 
L 14.593632 187.797322 
L 15.002872 187.997512 
L 16.43521 188.995693 
L 16.844449 189.201428 
L 17.253689 189.063551 
L 17.662928 188.969999 
L 18.072167 189.131017 
L 18.276787 189.074483 
L 19.299886 188.082522 
L 19.709125 188.560369 
L 20.118365 189.073229 
L 20.732224 189.221645 
L 21.141463 189.306539 
L 21.550703 189.100484 
L 22.573801 188.412735 
L 23.187661 188.19497 
L 23.5969 188.372521 
L 24.619999 189.663334 
L 25.438478 189.621091 
L 25.847717 189.790438 
L 27.075435 190.874775 
L 27.484675 190.747566 
L 28.507774 189.88907 
L 28.917013 189.370299 
L 29.326252 189.262792 
L 29.940112 189.584346 
L 30.349351 189.836224 
L 30.553971 189.837113 
L 30.96321 189.484121 
L 31.577069 188.643003 
L 32.190929 187.583216 
L 32.395548 187.591379 
L 33.827886 189.116213 
L 34.237126 189.327908 
L 34.441746 189.311975 
L 34.850985 188.904001 
L 35.260225 188.496601 
L 36.283323 187.89111 
L 36.692563 188.034263 
L 37.101802 188.513551 
L 38.124901 190.394903 
L 39.352619 191.97535 
L 39.761859 192.078662 
L 40.171098 191.580187 
L 40.989577 190.193896 
L 41.603436 189.540909 
L 42.012676 189.23437 
L 42.831154 188.295699 
L 43.035774 188.568517 
L 43.445014 189.803558 
L 44.058873 191.872574 
L 44.468112 192.417032 
L 45.081971 192.707139 
L 45.491211 192.994095 
L 45.695831 192.984708 
L 46.10507 192.619461 
L 46.514309 191.719925 
L 47.128169 190.221049 
L 47.332788 190.006502 
L 47.742028 189.985683 
L 48.151267 189.929694 
L 49.174366 189.37625 
L 49.583605 189.690943 
L 50.197465 190.233979 
L 51.015943 190.373179 
L 51.425183 190.22663 
L 52.448282 189.626676 
L 53.26676 189.552944 
L 53.676 189.166564 
L 54.289859 187.91194 
L 54.699099 187.261388 
L 54.903718 187.138773 
L 55.108338 187.156122 
L 55.926817 187.649434 
L 56.336056 187.328365 
L 56.540676 187.341347 
L 56.745296 187.6395 
L 57.154535 189.005677 
L 57.768394 191.193452 
L 58.177634 191.673472 
L 58.586873 191.559799 
L 59.200733 191.25102 
L 59.609972 190.706873 
L 60.83769 188.477705 
L 61.04231 188.312619 
L 61.45155 188.436528 
L 61.860789 188.581562 
L 62.474648 188.499214 
L 62.883888 188.080551 
L 63.293127 187.561022 
L 63.702367 187.476631 
L 64.111606 187.750974 
L 65.134705 189.060901 
L 65.543944 188.966242 
L 66.157803 188.533211 
L 66.567043 188.615595 
L 67.385522 189.174752 
L 67.794761 189.230753 
L 68.61324 188.996308 
L 69.636339 190.658958 
L 70.454818 192.205888 
L 70.659437 192.198109 
L 70.864057 192.014593 
L 71.273296 191.161408 
L 71.682536 190.216482 
L 72.091775 189.8313 
L 72.501015 189.972904 
L 73.114874 190.380996 
L 73.933353 190.638529 
L 74.342592 190.520655 
L 74.956452 190.15045 
L 75.365691 190.228271 
L 76.38879 190.706065 
L 77.207269 189.839259 
L 77.616508 189.891663 
L 79.253466 190.90738 
L 79.662705 190.77179 
L 80.071945 190.231588 
L 80.685804 189.218894 
L 80.890424 189.039346 
L 81.095043 189.009024 
L 81.504283 189.370428 
L 81.913522 189.879382 
L 82.118142 189.994572 
L 82.322762 189.970789 
L 82.732001 189.553382 
L 83.55048 188.32184 
L 84.573579 187.36181 
L 85.801297 187.767067 
L 86.210536 187.681477 
L 86.415156 187.601402 
L 86.619776 187.643243 
L 87.029015 188.171924 
L 87.642875 189.009581 
L 88.052114 189.390458 
L 88.461353 189.497726 
L 88.870593 189.351999 
L 89.484452 189.073753 
L 90.098311 189.134453 
L 91.12141 189.240987 
L 92.144509 188.983387 
L 92.962987 188.339076 
L 93.781466 189.092543 
L 93.986086 189.080378 
L 94.190706 188.908016 
L 95.213804 187.369904 
L 95.418424 187.46677 
L 95.827664 188.083286 
L 96.646143 189.448151 
L 97.055382 189.741953 
L 97.260002 189.673075 
L 97.669241 189.012889 
L 98.078481 188.319915 
L 98.2831 188.199458 
L 98.69234 188.327501 
L 99.306199 188.830298 
L 99.510819 188.740863 
L 100.329298 187.795264 
L 100.533917 187.928561 
L 101.352396 189.220094 
L 101.761636 189.567714 
L 102.170875 190.083924 
L 102.375495 190.180295 
L 102.580115 190.072978 
L 103.193974 189.343281 
L 103.603213 189.352787 
L 104.012453 189.66949 
L 105.240171 190.990211 
L 105.444791 191.094104 
L 105.649411 191.048567 
L 106.05865 190.564483 
L 106.877129 189.387024 
L 107.081749 189.283656 
L 107.490988 189.518706 
L 107.900228 189.806817 
L 108.309467 189.712822 
L 109.332566 189.118576 
L 109.537185 189.05941 
L 109.741805 189.145394 
L 110.151045 190.00068 
L 110.560284 190.848683 
L 110.969523 191.046183 
L 111.378763 191.266664 
L 112.197242 192.15733 
L 112.606481 192.733058 
L 112.811101 192.846707 
L 113.22034 192.656166 
L 113.8342 192.232718 
L 114.243439 192.261065 
L 114.652679 192.324343 
L 114.857298 192.133268 
L 115.266538 191.285191 
L 115.880397 189.960062 
L 116.289636 189.699612 
L 116.698876 189.695166 
L 117.517355 189.476805 
L 118.335834 189.963685 
L 118.745073 189.979886 
L 119.358932 189.867879 
L 119.768172 190.329451 
L 120.99589 192.034013 
L 121.20051 192.165965 
L 121.405129 192.143977 
L 121.814369 191.78917 
L 122.632848 190.841106 
L 123.246707 190.615093 
L 123.860566 190.505991 
L 124.269806 190.517417 
L 124.474425 190.420344 
L 124.883665 189.83682 
L 125.292904 189.163248 
L 125.497524 189.025391 
L 125.702144 189.122042 
L 126.520623 190.24534 
L 126.725242 190.076766 
L 127.543721 188.820591 
L 127.952961 188.690031 
L 128.3622 188.687307 
L 128.56682 188.553166 
L 129.385299 187.356477 
L 129.589919 187.427701 
L 129.999158 188.123902 
L 130.613017 189.258163 
L 131.022257 189.555551 
L 131.636116 189.865572 
L 132.045355 190.248837 
L 132.249975 190.281054 
L 132.863834 189.995283 
L 133.273074 189.968808 
L 133.886933 189.396096 
L 134.296172 189.115602 
L 134.705412 189.106942 
L 135.72851 189.851768 
L 135.93313 189.765599 
L 137.160848 188.479097 
L 138.388567 186.404053 
L 138.593187 186.211307 
L 138.797806 186.179224 
L 139.207046 186.543579 
L 140.230144 187.648373 
L 141.253243 188.611491 
L 141.662482 189.028411 
L 142.276342 189.289415 
L 142.685581 189.153327 
L 143.29944 188.793383 
L 143.913299 188.740887 
L 144.322539 188.704675 
L 144.936398 189.172326 
L 145.550257 188.831503 
L 145.754877 189.000159 
L 146.368736 189.903856 
L 148.005694 190.650792 
L 148.414933 190.405012 
L 148.619553 190.420567 
L 149.028793 190.851958 
L 149.847272 191.903866 
L 150.256511 191.930803 
L 150.66575 191.839775 
L 151.27961 191.821135 
L 152.098089 191.444731 
L 152.507328 191.574886 
L 153.121187 192.215538 
L 153.530427 192.565708 
L 153.939666 192.606902 
L 154.348906 192.270448 
L 155.781244 190.393335 
L 156.395103 189.40608 
L 156.599723 189.391446 
L 156.804342 189.612878 
L 158.23668 192.204278 
L 159.259779 192.666289 
L 159.464399 192.538709 
L 160.078258 191.595437 
L 160.692117 190.360312 
L 162.329075 186.730508 
L 162.533695 186.622058 
L 162.942934 186.903645 
L 163.761413 187.747416 
L 164.579892 188.378708 
L 165.60299 189.453339 
L 166.626089 189.827806 
L 167.035329 189.391645 
L 167.649188 188.302219 
L 167.853807 188.166349 
L 168.263047 188.249008 
L 169.081526 188.770831 
L 169.490765 188.565361 
L 170.513864 187.694231 
L 171.332343 187.581136 
L 171.741582 187.425491 
L 172.150822 187.64445 
L 172.560061 187.926927 
L 173.17392 188.191281 
L 173.37854 188.281007 
L 173.58316 188.237994 
L 174.606258 187.52073 
L 174.810878 187.517783 
L 175.220118 187.857604 
L 175.629357 188.52354 
L 176.447836 190.321895 
L 176.857075 190.548304 
L 177.470935 190.536625 
L 178.084794 190.891801 
L 178.698653 191.000301 
L 179.926371 191.655778 
L 180.335611 191.240695 
L 180.74485 190.787345 
L 181.15409 190.670537 
L 181.563329 190.824698 
L 181.767949 190.773835 
L 181.972569 190.501574 
L 182.586428 189.200511 
L 182.791048 189.050402 
L 183.200287 189.142527 
L 184.018766 189.388005 
L 184.428005 189.418738 
L 186.064963 189.058019 
L 186.678822 189.774812 
L 187.088062 190.19792 
L 187.906541 190.487217 
L 188.72502 191.414528 
L 189.134259 191.258934 
L 189.952738 190.61717 
L 190.771217 190.113845 
L 191.385076 189.454284 
L 191.998935 188.730524 
L 192.408175 188.72952 
L 192.817414 188.701495 
L 193.226654 188.154167 
L 193.840513 187.059831 
L 194.454372 186.601062 
L 195.068231 186.390414 
L 195.88671 185.474726 
L 196.09133 185.510987 
L 196.500569 186.076969 
L 197.114428 187.058172 
L 197.523668 187.378094 
L 197.932907 187.323641 
L 198.751386 186.588694 
L 200.388344 184.816284 
L 201.002203 184.496322 
L 201.411443 183.857809 
L 202.639161 181.406162 
L 203.25302 180.350801 
L 204.480739 177.900221 
L 204.889978 176.757574 
L 205.299217 175.074002 
L 207.140795 165.391525 
L 207.754654 158.678727 
L 208.368513 149.622435 
L 208.982373 136.362427 
L 209.596232 117.102789 
L 210.210091 87.734179 
L 211.642429 3.066264 
L 211.847049 3.00024 
L 212.051668 8.824893 
L 212.460908 34.691476 
L 213.484007 110.553937 
L 213.893246 128.808729 
L 214.302485 140.429807 
L 214.711725 147.687832 
L 215.120964 151.956988 
L 215.530204 153.958673 
L 215.734824 154.329157 
L 216.553302 154.79973 
L 216.962542 155.945769 
L 218.19026 160.846847 
L 218.5995 161.490212 
L 218.804119 161.397724 
L 219.213359 160.426357 
L 219.827218 158.234389 
L 220.441077 155.043953 
L 221.054936 151.981792 
L 221.259556 151.685897 
L 221.464176 151.956975 
L 222.487275 155.138251 
L 222.896514 155.9243 
L 223.305753 157.292074 
L 223.919613 159.902188 
L 224.124232 160.316381 
L 224.328852 160.372666 
L 224.533472 160.063708 
L 224.942711 158.367123 
L 225.55657 153.895668 
L 226.17043 149.300546 
L 226.375049 148.629506 
L 226.579669 148.614665 
L 226.988909 149.833942 
L 227.398148 151.04277 
L 228.216627 152.382731 
L 228.625866 155.490234 
L 229.648965 166.045453 
L 230.058204 168.04 
L 230.262824 168.401227 
L 230.467444 168.497428 
L 230.672064 168.428635 
L 230.876683 168.153982 
L 231.081303 167.537446 
L 231.490543 164.909383 
L 231.899782 160.436676 
L 233.1275 144.04073 
L 233.33212 143.022013 
L 233.53674 143.224241 
L 233.74136 144.57967 
L 235.787557 164.833686 
L 236.401416 169.156063 
L 237.015275 171.567447 
L 237.424515 172.350327 
L 237.629134 172.381164 
L 237.833754 172.158128 
L 238.038374 171.679566 
L 238.447613 169.75317 
L 238.856853 166.394325 
L 239.470712 158.849826 
L 240.084571 148.843241 
L 241.10767 126.127109 
L 242.130768 106.976308 
L 242.540008 101.812568 
L 242.744627 100.881307 
L 242.949247 101.27695 
L 243.153867 102.908326 
L 243.767726 111.991991 
L 244.586205 127.528129 
L 246.018543 162.549826 
L 246.427783 167.859393 
L 247.041642 172.518447 
L 247.860121 175.962122 
L 248.26936 176.899591 
L 248.47398 177.013537 
L 248.6786 176.909225 
L 249.292459 176.092443 
L 249.701698 175.194209 
L 250.110938 173.423747 
L 250.520177 170.326564 
L 251.134036 162.851297 
L 251.747895 156.422773 
L 252.361755 152.530343 
L 252.770994 151.234337 
L 252.975614 151.474104 
L 253.180234 152.394894 
L 253.794093 157.608709 
L 254.612572 163.982911 
L 255.226431 169.392429 
L 256.04491 177.51239 
L 256.454149 179.931321 
L 256.863389 181.07869 
L 257.681868 182.640488 
L 258.295727 183.894899 
L 258.704966 184.165781 
L 258.909586 184.240685 
L 259.114206 184.490774 
L 259.932685 186.27608 
L 260.137304 186.360345 
L 260.546544 186.266902 
L 260.751163 186.341439 
L 261.160403 187.010814 
L 261.569642 187.930846 
L 261.774262 188.159602 
L 262.183502 188.215159 
L 262.592741 188.129606 
L 263.2066 187.889089 
L 263.61584 188.055312 
L 264.025079 188.325972 
L 264.434319 188.38517 
L 265.048178 188.200681 
L 265.457417 187.784897 
L 266.071276 187.092147 
L 266.889755 186.891553 
L 267.298995 186.612065 
L 267.708234 186.834914 
L 268.117474 187.046095 
L 268.526713 186.9769 
L 270.163671 186.18081 
L 270.57291 185.611109 
L 271.18677 184.784392 
L 271.800629 184.21693 
L 273.028347 182.164487 
L 273.642206 181.2798 
L 274.460685 179.64618 
L 276.506882 174.461844 
L 277.120742 171.259177 
L 278.757699 160.250238 
L 279.371559 153.651198 
L 279.985418 143.662428 
L 280.599277 128.517061 
L 281.213136 107.137119 
L 282.850094 42.154152 
L 283.259333 36.486363 
L 283.463953 35.24513 
L 283.668573 35.02423 
L 283.873193 36.078881 
L 284.077812 38.761311 
L 284.487052 49.773996 
L 285.91939 104.291325 
L 286.328629 110.364717 
L 286.533249 111.453107 
L 286.737869 111.410926 
L 286.942488 110.380961 
L 287.351728 105.819759 
L 288.579446 88.120604 
L 288.988686 84.346587 
L 289.193305 83.594056 
L 289.397925 84.119623 
L 289.602545 86.200052 
L 290.011784 94.649791 
L 290.830263 114.081388 
L 291.648742 130.905911 
L 292.876461 160.434777 
L 293.49032 169.250851 
L 294.308799 177.569227 
L 294.718038 180.20139 
L 295.127278 181.184173 
L 295.331897 181.193435 
L 296.150376 180.325383 
L 296.354996 180.362047 
L 296.764235 180.891889 
L 298.401193 184.110405 
L 299.219672 187.009947 
L 299.833531 189.31571 
L 300.038151 189.753753 
L 300.242771 189.857389 
L 300.44739 189.657682 
L 301.879729 187.01177 
L 302.288968 187.11462 
L 302.698207 187.574941 
L 303.312067 188.356917 
L 303.721306 188.486499 
L 304.335165 188.247913 
L 305.358264 187.622367 
L 305.972123 187.998497 
L 306.585982 188.561413 
L 306.995222 188.95031 
L 307.199841 188.982621 
L 307.609081 188.701603 
L 308.22294 188.207512 
L 308.42756 188.152882 
L 308.63218 188.278616 
L 309.655278 189.789591 
L 310.269137 191.134898 
L 310.473757 191.375354 
L 310.678377 191.442862 
L 310.882997 191.288837 
L 312.315335 188.78358 
L 312.519954 188.6882 
L 312.724574 188.740964 
L 313.338433 189.285227 
L 313.747673 189.235209 
L 314.156912 189.284168 
L 315.38463 190.47698 
L 315.79387 190.856803 
L 316.203109 190.819567 
L 317.021588 190.296076 
L 318.249307 190.194418 
L 318.658546 190.38409 
L 319.067786 190.655862 
L 319.477025 190.615495 
L 320.909363 189.507401 
L 321.523222 189.577621 
L 321.932462 189.577554 
L 322.546321 189.249649 
L 322.95556 189.381156 
L 323.3648 189.547471 
L 324.183279 189.523693 
L 324.592518 189.429975 
L 325.615617 188.621015 
L 325.820237 188.751229 
L 326.638715 190.068692 
L 326.843335 190.124072 
L 327.661814 189.804845 
L 328.071054 190.112095 
L 328.889532 191.135693 
L 330.73111 192.188999 
L 331.140349 191.95612 
L 332.163448 190.722481 
L 332.777307 189.719284 
L 333.186547 189.511811 
L 333.595786 189.367894 
L 334.209645 188.718795 
L 334.414265 188.67492 
L 334.823505 188.976165 
L 335.232744 189.195406 
L 335.846603 188.975253 
L 336.255843 188.781472 
L 337.074322 188.013787 
L 337.278941 188.039495 
L 337.688181 188.562193 
L 338.50666 189.766969 
L 339.120519 190.532191 
L 339.529758 190.580788 
L 339.938998 190.328179 
L 341.780575 188.754667 
L 342.189815 188.728719 
L 342.599054 188.787904 
L 343.008294 188.434006 
L 343.212913 188.271458 
L 343.417533 188.386129 
L 344.236012 190.011076 
L 344.645251 189.867962 
L 346.282209 189.256025 
L 347.100688 189.635999 
L 347.714547 189.262327 
L 347.919167 189.461218 
L 348.533026 190.3385 
L 348.737646 190.331993 
L 349.146885 189.935118 
L 349.760745 188.956433 
L 349.965364 188.821747 
L 350.169984 188.826534 
L 350.579224 189.194767 
L 351.193083 190.073792 
L 351.397702 190.028491 
L 351.806942 189.218671 
L 352.216181 188.206947 
L 352.420801 188.006264 
L 352.625421 188.114956 
L 353.23928 189.024338 
L 353.648519 189.141585 
L 354.057759 188.861654 
L 354.671618 188.327933 
L 354.876238 188.331969 
L 355.285477 188.698821 
L 355.899336 189.501114 
L 356.103956 189.580059 
L 356.922435 189.421632 
L 357.331674 189.968441 
L 357.740914 190.578959 
L 357.945534 190.64926 
L 358.354773 190.403764 
L 358.968632 189.670673 
L 359.377872 189.228182 
L 359.582491 189.187195 
L 359.991731 189.425778 
L 360.81021 190.158883 
L 361.01483 190.083141 
L 361.424069 189.544788 
L 362.037928 188.700145 
L 362.447168 188.382517 
L 362.856407 188.297017 
L 363.674886 188.616705 
L 364.084125 188.324482 
L 364.493365 187.817952 
L 364.902604 187.183725 
L 365.107224 187.041622 
L 365.311844 187.12894 
L 365.925703 187.777712 
L 366.744182 187.741782 
L 367.562661 188.764187 
L 367.767281 188.658236 
L 368.38114 187.689688 
L 368.994999 186.724587 
L 369.813478 185.860764 
L 370.222717 184.895394 
L 370.836576 183.260457 
L 371.655055 182.002752 
L 372.064295 180.426311 
L 372.882774 176.175391 
L 373.701253 169.225457 
L 374.928971 158.314987 
L 375.54283 150.664246 
L 376.156689 139.00108 
L 376.770549 122.078284 
L 377.793647 90.187828 
L 378.202887 84.402108 
L 378.407506 84.176084 
L 378.612126 85.632927 
L 379.021366 92.382724 
L 380.658323 128.465569 
L 382.090661 149.711216 
L 382.499901 153.04564 
L 382.90914 154.934146 
L 383.11376 155.371137 
L 383.31838 155.515388 
L 383.523 155.367943 
L 383.727619 154.920723 
L 384.136859 153.156971 
L 384.750718 148.659834 
L 385.364577 142.303133 
L 385.978436 132.819784 
L 387.206155 107.210646 
L 387.820014 91.912667 
L 388.843112 62.86094 
L 389.252352 57.78316 
L 389.456972 58.323301 
L 389.661591 61.181838 
L 390.070831 73.418368 
L 391.503169 131.82251 
L 392.117028 146.060408 
L 392.730887 155.437051 
L 393.958606 169.520946 
L 394.777084 176.521113 
L 395.186324 178.624406 
L 395.595563 179.6423 
L 396.414042 180.579361 
L 396.823282 182.056398 
L 397.641761 185.810399 
L 398.051 186.828943 
L 398.46024 187.320121 
L 398.869479 187.332746 
L 399.278718 187.213485 
L 399.483338 187.325132 
L 399.892578 188.030921 
L 400.301817 188.809464 
L 400.711057 189.079338 
L 401.324916 188.974488 
L 401.734155 188.901061 
L 401.938775 189.059088 
L 402.757254 190.379078 
L 403.166493 190.420436 
L 405.008071 189.798074 
L 405.82655 190.219808 
L 406.440409 190.367122 
L 407.258888 191.00661 
L 407.872747 191.064811 
L 408.691226 191.37219 
L 409.100465 191.400662 
L 409.714325 191.566608 
L 410.123564 191.567344 
L 410.532803 191.607629 
L 410.737423 191.408622 
L 411.146663 190.491366 
L 411.555902 189.4861 
L 411.760522 189.264082 
L 412.169761 189.376879 
L 412.579001 189.476598 
L 412.98824 189.485304 
L 413.39748 189.582714 
L 413.806719 189.438134 
L 414.829818 188.636146 
L 415.239057 188.350415 
L 415.648297 187.902434 
L 415.852916 187.860747 
L 416.262156 188.247568 
L 416.671395 188.64322 
L 417.489874 189.07851 
L 418.512973 190.346034 
L 418.717593 190.268888 
L 419.126832 189.780651 
L 419.945311 188.445468 
L 420.35455 188.398905 
L 420.76379 188.357932 
L 421.173029 188.152332 
L 421.786888 187.530214 
L 423.014607 185.851467 
L 423.423846 185.838244 
L 424.856184 186.667842 
L 425.265424 187.506583 
L 426.493142 191.005525 
L 426.902382 191.61812 
L 428.743959 192.899565 
L 429.153199 192.510691 
L 429.562438 192.128839 
L 430.380917 192.137754 
L 430.790156 192.194317 
L 430.994776 192.115009 
L 431.404016 191.501741 
L 431.813255 190.775653 
L 432.222494 190.518705 
L 432.836354 190.616176 
L 433.450213 190.814152 
L 433.859452 191.024848 
L 434.064072 190.973606 
L 434.473311 190.318362 
L 434.882551 189.835388 
L 435.087171 189.908173 
L 435.49641 190.487589 
L 436.110269 191.484344 
L 436.314889 191.47801 
L 436.519509 191.170082 
L 437.542607 188.269484 
L 437.747227 188.292129 
L 438.361086 189.184091 
L 439.179565 190.335517 
L 439.793424 191.375386 
L 439.998044 191.517583 
L 440.407284 191.373315 
L 442.044241 190.226874 
L 442.86272 189.28717 
L 443.27196 189.026844 
L 443.476579 189.012847 
L 443.885819 189.335025 
L 444.295058 189.636996 
L 445.318157 189.777778 
L 445.727396 189.344139 
L 446.136636 188.956627 
L 446.341256 188.992618 
L 446.750495 189.507313 
L 447.364354 190.692264 
L 447.773594 191.09395 
L 447.978213 191.095305 
L 448.182833 190.864324 
L 448.592073 189.562113 
L 449.205932 187.206875 
L 449.615171 186.48695 
L 450.024411 185.947561 
L 450.63827 184.596865 
L 450.84289 184.479993 
L 451.661369 184.910701 
L 451.865988 184.668643 
L 452.684467 182.954926 
L 453.502946 182.287902 
L 453.912186 181.225595 
L 454.935284 177.618151 
L 455.344524 175.260102 
L 455.958383 170.138959 
L 457.390721 155.991026 
L 458.00458 147.17979 
L 458.823059 131.949798 
L 459.232298 120.938437 
L 459.846158 96.113167 
L 460.869256 49.531746 
L 461.073876 46.060608 
L 461.278496 46.035855 
L 461.483115 49.342191 
L 461.892355 63.246807 
L 462.915454 102.932405 
L 463.733932 122.412325 
L 464.961651 147.201108 
L 465.57551 155.476936 
L 465.984749 159.090885 
L 466.393989 161.234308 
L 466.803228 162.124782 
L 467.007848 162.108331 
L 467.212468 161.790833 
L 467.621707 160.316119 
L 468.030947 157.442765 
L 468.440186 151.975178 
L 470.691003 109.252822 
L 472.123341 77.769096 
L 472.327961 77.989062 
L 472.532581 80.877296 
L 472.94182 93.940433 
L 473.964919 135.335705 
L 474.578778 150.00629 
L 475.192637 158.320992 
L 476.829595 174.220353 
L 477.852694 181.115413 
L 478.261933 182.668175 
L 478.671172 183.307629 
L 479.080412 183.865649 
L 479.489651 184.760254 
L 479.898891 185.749881 
L 480.103511 186.003985 
L 480.30813 186.059144 
L 481.126609 185.905105 
L 481.535849 186.268454 
L 481.945088 186.721356 
L 482.558947 187.179217 
L 483.172806 187.939963 
L 483.582046 188.802132 
L 484.195905 190.260929 
L 484.605145 190.472538 
L 485.423623 190.549667 
L 485.628243 190.319006 
L 486.242102 188.865367 
L 486.651342 188.116951 
L 486.855962 188.085289 
L 487.060581 188.30205 
L 487.67444 189.74063 
L 488.08368 190.56034 
L 488.492919 190.915881 
L 489.311398 191.240651 
L 490.334497 190.662329 
L 491.152976 190.718539 
L 491.562215 190.826161 
L 491.766835 190.687566 
L 493.199173 188.759859 
L 493.403793 188.773332 
L 493.813032 189.31062 
L 494.222272 189.970251 
L 494.631511 190.27461 
L 495.040751 190.307423 
L 495.65461 190.13586 
L 496.063849 190.229494 
L 496.268469 190.156493 
L 496.677708 189.530219 
L 497.496187 187.727574 
L 497.700807 187.744291 
L 498.314666 188.556677 
L 498.723906 189.011368 
L 499.133145 189.061146 
L 499.747004 188.828741 
L 500.156244 189.222372 
L 500.565483 189.583875 
L 500.770103 189.414703 
L 501.588582 187.863584 
L 501.793202 187.795503 
L 501.997821 187.929871 
L 503.22554 189.6445 
L 503.634779 189.699279 
L 504.044019 189.62941 
L 504.862498 189.78445 
L 505.271737 189.177498 
L 506.294836 187.259492 
L 506.704075 187.014301 
L 507.113314 187.366732 
L 507.522554 187.601358 
L 508.136413 187.354123 
L 508.341033 187.463086 
L 509.977991 189.463349 
L 510.59185 190.314664 
L 510.79647 190.37867 
L 511.205709 190.176237 
L 511.614948 189.748155 
L 512.228808 188.971891 
L 512.638047 189.018173 
L 513.251906 189.582303 
L 513.865765 190.38482 
L 514.275005 190.54827 
L 516.321202 190.303411 
L 516.730442 189.987895 
L 517.139681 189.260521 
L 517.75354 188.215307 
L 518.16278 187.799194 
L 518.367399 187.722916 
L 518.776639 187.940262 
L 519.185878 188.245372 
L 520.413597 188.588141 
L 521.027456 188.945016 
L 521.641315 189.006624 
L 522.255174 189.242323 
L 522.664414 189.043222 
L 523.278273 188.364522 
L 523.687512 188.308195 
L 524.096752 188.633756 
L 524.710611 189.232201 
L 525.11985 189.448671 
L 525.52909 190.051305 
L 526.552189 192.548233 
L 527.166048 193.263877 
L 527.575287 193.55098 
L 527.984527 193.542988 
L 528.393766 193.140356 
L 530.030724 190.47417 
L 531.053823 190.686344 
L 532.281541 191.096411 
L 532.8954 190.992405 
L 533.509259 191.476435 
L 533.918499 191.245548 
L 534.123118 191.12617 
L 534.327738 191.161451 
L 534.736978 191.770919 
L 535.350837 192.999245 
L 535.760076 193.227036 
L 535.964696 193.1346 
L 536.373935 192.493708 
L 537.192414 190.571079 
L 537.601654 190.315407 
L 538.215513 190.412345 
L 538.624752 190.122419 
L 539.647851 188.927912 
L 540.46633 188.882426 
L 540.875569 188.230709 
L 541.284809 187.637137 
L 541.694048 187.568838 
L 542.307908 187.705237 
L 542.717147 188.014502 
L 543.331006 188.833741 
L 544.354105 190.525686 
L 544.763344 190.610723 
L 544.967964 190.464625 
L 545.377203 189.581353 
L 545.991063 187.84565 
L 546.400302 187.414828 
L 546.604922 187.505852 
L 547.014161 188.136052 
L 547.423401 188.8445 
L 547.62802 188.983642 
L 547.83264 188.911425 
L 548.24188 188.505502 
L 548.446499 188.447882 
L 548.651119 188.57908 
L 549.060358 189.251877 
L 549.878837 190.720285 
L 550.083457 190.833018 
L 550.492697 190.730498 
L 551.720415 190.188339 
L 552.948133 188.770566 
L 553.357373 188.937132 
L 553.766612 189.096297 
L 554.175852 189.007592 
L 555.19895 188.484324 
L 555.60819 188.523613 
L 557.654387 189.357401 
L 558.063626 189.074359 
L 558.677486 188.348743 
L 559.086725 188.21502 
L 559.905204 188.259963 
L 560.519063 188.202372 
L 561.132922 188.468547 
L 561.542162 188.942072 
L 562.156021 189.816362 
L 562.56526 189.831926 
L 563.17912 189.624031 
L 563.588359 189.564455 
L 563.997599 189.019406 
L 564.406838 188.32164 
L 564.611458 188.189396 
L 564.816077 188.232676 
L 565.225317 188.679203 
L 566.248416 190.61731 
L 566.657655 190.605916 
L 567.680754 190.161239 
L 568.703852 190.028657 
L 569.317711 190.485494 
L 570.13619 191.193894 
L 571.363909 191.112474 
L 572.387007 190.436974 
L 572.796247 190.224502 
L 573.410106 189.674256 
L 573.614726 189.675961 
L 574.023965 190.004876 
L 574.637824 190.718977 
L 574.842444 190.829108 
L 575.047064 190.810284 
L 575.251684 190.63168 
L 575.456303 190.23818 
L 576.070162 187.971675 
L 576.479402 186.836023 
L 576.888641 186.463966 
L 577.297881 186.553839 
L 578.320979 187.336197 
L 578.934839 187.404642 
L 579.344078 187.555825 
L 579.753318 188.119123 
L 580.367177 189.445905 
L 580.571796 189.660626 
L 580.776416 189.664653 
L 581.185656 189.191469 
L 581.594895 188.864888 
L 582.004135 189.172528 
L 582.208754 189.329079 
L 582.413374 189.310483 
L 582.822613 188.747665 
L 583.231853 188.004665 
L 583.436473 187.807796 
L 583.641092 187.852165 
L 583.845712 188.182654 
L 584.459571 190.263645 
L 585.07343 191.860276 
L 585.48267 192.352312 
L 586.915008 193.136848 
L 587.119628 193.116596 
L 587.324247 192.911405 
L 588.961205 190.103262 
L 589.370445 190.074301 
L 589.575064 190.05521 
L 589.984304 189.647396 
L 590.598163 188.962841 
L 591.212022 188.601937 
L 591.416642 188.708527 
L 591.825881 189.464849 
L 592.84898 192.120767 
L 593.0536 192.211361 
L 593.462839 191.862469 
L 594.076698 190.81365 
L 594.690558 189.677674 
L 595.304417 188.763898 
L 595.713656 188.119068 
L 596.532135 187.623138 
L 596.941375 187.598665 
L 597.350614 187.939678 
L 597.964473 188.644379 
L 598.169093 188.741533 
L 598.373713 188.686972 
L 598.578332 188.440209 
L 599.396811 186.745277 
L 599.806051 186.628216 
L 600.21529 186.853468 
L 600.62453 187.529825 
L 601.033769 188.219696 
L 601.647628 188.993031 
L 602.261487 189.708798 
L 602.670727 190.079065 
L 603.079966 190.108004 
L 603.693826 189.964616 
L 604.103065 190.167384 
L 605.740023 191.304991 
L 606.149262 191.358178 
L 606.558502 191.065498 
L 606.967741 190.608552 
L 607.172361 190.560903 
L 607.5816 191.030193 
L 607.99084 191.495818 
L 608.400079 191.452751 
L 609.013938 191.063401 
L 609.423178 190.511331 
L 609.832417 189.79828 
L 610.241657 189.563748 
L 610.650896 189.486837 
L 611.060136 188.813935 
L 611.469375 188.275752 
L 611.673995 188.32111 
L 612.083234 188.846225 
L 612.492474 189.417681 
L 612.697094 189.56361 
L 612.901713 189.535857 
L 613.310953 189.014735 
L 613.720192 188.407448 
L 613.924812 188.267799 
L 614.129432 188.318951 
L 614.538671 188.988712 
L 614.947911 189.803434 
L 615.15253 190.018607 
L 615.35715 190.01496 
L 615.766389 189.429152 
L 616.175629 188.92468 
L 616.380249 188.969122 
L 616.789488 189.664702 
L 617.198728 190.376221 
L 617.403347 190.426869 
L 617.812587 189.975941 
L 618.426446 188.984326 
L 618.835685 188.662786 
L 619.244925 188.610863 
L 619.654164 188.872179 
L 620.063404 189.197567 
L 620.268023 189.216934 
L 621.495742 188.563352 
L 621.904981 188.199515 
L 622.109601 188.142918 
L 622.51884 188.357643 
L 623.541939 189.157439 
L 624.360418 189.026919 
L 625.383517 189.559749 
L 625.588136 189.480695 
L 626.611235 188.574816 
L 627.020474 188.809848 
L 627.634334 189.567027 
L 628.043573 189.657277 
L 628.452812 189.686246 
L 630.08977 190.714594 
L 630.703629 190.220804 
L 631.317489 189.599265 
L 631.931348 188.686536 
L 632.135968 188.57718 
L 632.340587 188.675465 
L 632.749827 189.162116 
L 632.954446 189.18456 
L 633.772925 188.253422 
L 634.182165 188.789251 
L 635.409883 190.984405 
L 635.819123 190.704461 
L 636.228362 190.365609 
L 636.637602 190.414138 
L 637.251461 190.681171 
L 637.86532 190.2791 
L 639.093038 189.632506 
L 639.502278 189.755517 
L 640.525376 190.501194 
L 640.934616 190.558056 
L 641.343855 190.619926 
L 641.957714 191.019628 
L 642.162334 190.956608 
L 642.980813 190.21978 
L 644.822391 189.803123 
L 645.845489 189.216318 
L 646.459348 189.267038 
L 647.277827 189.385586 
L 647.687067 189.275266 
L 648.914785 188.261836 
L 649.119405 188.261819 
L 649.324025 188.403572 
L 650.347123 189.725805 
L 650.551743 189.582283 
L 651.370222 188.498848 
L 651.574842 188.514847 
L 652.393321 189.270668 
L 653.211799 189.151023 
L 654.234898 188.739389 
L 654.644138 188.827493 
L 655.462616 189.67745 
L 655.871856 189.630766 
L 656.281095 189.336949 
L 657.099574 188.501581 
L 657.304194 188.53941 
L 657.713433 189.089905 
L 658.122673 189.838865 
L 658.531912 190.111796 
L 659.759631 190.088464 
L 660.16887 189.945091 
L 660.57811 190.218765 
L 660.987349 190.84183 
L 661.805828 192.595578 
L 662.010448 192.608193 
L 662.624307 192.329278 
L 663.238166 192.371084 
L 664.056645 192.117327 
L 664.261265 191.763607 
L 665.079744 189.416842 
L 665.284363 189.201964 
L 665.488983 189.162244 
L 665.898222 189.506766 
L 666.716701 190.419151 
L 667.53518 190.846382 
L 668.149039 191.437228 
L 668.353659 191.412074 
L 668.762899 190.857617 
L 669.376758 189.893951 
L 669.785997 189.455353 
L 669.990617 189.351171 
L 670.399856 189.496146 
L 670.604476 189.586868 
L 670.809096 189.550793 
L 671.218335 189.111928 
L 671.832195 188.442857 
L 672.446054 187.851436 
L 672.855293 187.455996 
L 673.059913 187.431247 
L 673.264533 187.565666 
L 674.492251 189.133443 
L 674.90149 189.181264 
L 675.31073 188.878379 
L 675.924589 188.392883 
L 676.743068 188.004878 
L 677.152307 188.210361 
L 677.561547 188.361002 
L 677.970786 188.196559 
L 678.380026 187.972875 
L 678.584646 188.021162 
L 678.993885 188.546426 
L 679.607744 189.775283 
L 680.016984 189.943723 
L 680.630843 189.756367 
L 681.449322 188.918285 
L 682.063181 188.331586 
L 682.267801 188.245381 
L 682.47242 188.33947 
L 682.88166 189.135984 
L 683.290899 189.772659 
L 683.495519 189.734957 
L 684.109378 189.408059 
L 684.723237 189.389313 
L 685.132477 189.473333 
L 685.337097 189.395784 
L 685.541716 189.122928 
L 686.155575 187.452443 
L 686.769435 186.021807 
L 686.974054 185.826213 
L 687.178674 185.818528 
L 687.587914 186.299836 
L 688.201773 187.252674 
L 688.406392 187.311379 
L 688.611012 187.182609 
L 689.224871 186.342209 
L 689.634111 186.278963 
L 690.04335 186.352397 
L 690.24797 186.244058 
L 690.657209 185.422151 
L 691.271069 183.774113 
L 691.680308 183.11264 
L 692.089548 182.769347 
L 693.317266 182.459332 
L 693.726505 181.980859 
L 694.135745 181.066677 
L 694.544984 179.212725 
L 695.158843 174.673137 
L 697.000421 158.267364 
L 697.61428 149.239954 
L 698.841999 128.768284 
L 699.251238 124.673361 
L 699.660477 122.596918 
L 699.865097 122.247199 
L 700.069717 122.351654 
L 700.274337 122.973383 
L 700.683576 125.99705 
L 701.297435 134.39282 
L 702.934393 160.613184 
L 703.752872 169.293234 
L 704.571351 174.553899 
L 705.38983 179.273068 
L 705.799069 180.462732 
L 706.412928 181.334 
L 706.822168 182.642477 
L 707.436027 184.991109 
L 707.845266 185.777103 
L 708.459126 186.421022 
L 708.868365 186.952976 
L 709.277605 187.12039 
L 709.891464 187.111326 
L 710.505323 186.615265 
L 710.709943 186.685161 
L 711.119182 187.362649 
L 711.528422 187.9496 
L 711.733041 187.960954 
L 712.142281 187.37903 
L 712.55152 186.865589 
L 712.75614 186.865837 
L 713.165379 187.21445 
L 713.983858 188.156555 
L 714.188478 188.207587 
L 714.597717 187.942888 
L 715.006957 187.680327 
L 715.211577 187.793636 
L 716.030056 188.658179 
L 716.643915 188.708262 
L 717.257774 188.552835 
L 717.871633 188.304722 
L 718.076253 188.318144 
L 718.485492 188.657945 
L 718.894732 188.927657 
L 719.099351 188.795897 
L 719.508591 187.978431 
L 719.91783 187.064783 
L 720.12245 186.914898 
L 720.32707 187.001482 
L 721.350168 187.919103 
L 721.759408 188.327141 
L 722.373267 189.255644 
L 722.577887 189.359308 
L 722.987126 189.247968 
L 723.396366 189.114664 
L 724.419464 189.277869 
L 724.828704 188.756849 
L 725.237943 188.046499 
L 725.442563 187.872439 
L 725.851802 187.926641 
L 726.465662 188.283734 
L 726.874901 188.806024 
L 727.898 190.874595 
L 728.102619 190.762244 
L 728.921098 189.699681 
L 729.330338 189.914079 
L 729.944197 190.321888 
L 730.353436 190.251088 
L 730.762676 190.114174 
L 731.376535 190.140467 
L 731.785775 189.665227 
L 732.808873 188.107337 
L 733.013493 188.235451 
L 733.627352 189.421345 
L 734.036592 189.987321 
L 734.650451 190.34296 
L 735.673549 190.422377 
L 735.878169 190.262833 
L 736.287409 189.355097 
L 736.696648 188.439433 
L 737.105887 188.185154 
L 738.128986 188.198459 
L 738.538225 187.943541 
L 739.152085 187.061319 
L 739.765944 186.260363 
L 740.175183 185.904644 
L 740.584423 185.89507 
L 740.993662 186.200713 
L 741.402902 187.015194 
L 742.426 189.820296 
L 742.63062 189.938246 
L 743.449099 189.901678 
L 743.858338 190.259929 
L 745.086057 191.708277 
L 745.290676 191.622749 
L 746.109155 190.649252 
L 746.313775 190.638579 
L 746.723015 190.928764 
L 747.336874 191.477514 
L 747.746113 191.428147 
L 748.564592 190.764729 
L 748.973832 190.079801 
L 749.587691 188.844359 
L 749.79231 188.696396 
L 749.99693 188.787598 
L 751.224649 190.306194 
L 751.633888 190.23049 
L 752.247747 189.776698 
L 752.656987 189.744338 
L 753.270846 189.825004 
L 753.680085 189.483094 
L 754.293944 188.853106 
L 754.498564 188.777743 
L 754.703184 188.852942 
L 755.317043 189.576238 
L 755.521663 189.588022 
L 755.930902 189.24974 
L 756.544761 188.638766 
L 756.749381 188.557914 
L 757.158621 188.773627 
L 757.77248 189.40405 
L 758.181719 189.471761 
L 758.795578 189.536067 
L 759.204818 189.509668 
L 760.227917 189.115152 
L 760.637156 189.198389 
L 761.251015 189.743339 
L 761.455635 189.729604 
L 761.864874 189.289839 
L 762.683353 187.985341 
L 762.887973 187.888626 
L 763.092593 187.966092 
L 763.501832 188.666478 
L 764.115691 189.891823 
L 764.729551 190.722083 
L 764.93417 190.787477 
L 765.13879 190.605234 
L 765.957269 189.366224 
L 766.775748 188.791043 
L 767.594227 188.425054 
L 768.003466 188.660386 
L 769.435804 189.905046 
L 770.663523 190.253842 
L 771.482002 191.905287 
L 772.095861 192.917785 
L 772.30048 192.960012 
L 772.70972 192.661103 
L 773.528199 191.73703 
L 774.346678 190.522989 
L 774.551297 190.478792 
L 775.165157 190.654277 
L 775.779016 190.470625 
L 776.188255 190.791099 
L 776.802114 191.485788 
L 777.211354 191.431689 
L 778.029833 190.903899 
L 778.643692 190.568995 
L 779.666791 190.387558 
L 780.894509 189.626541 
L 781.303748 189.664821 
L 781.712988 189.272039 
L 782.122227 188.915573 
L 782.531467 188.860736 
L 782.940706 189.091586 
L 783.759185 190.318402 
L 784.782284 191.703355 
L 784.986903 191.828344 
L 785.191523 191.767369 
L 785.600763 191.043335 
L 786.419242 189.209655 
L 786.623861 188.977349 
L 786.828481 188.921181 
L 787.23772 189.190021 
L 788.056199 190.134808 
L 788.670059 190.888752 
L 788.874678 190.970447 
L 789.079298 190.858568 
L 790.307016 189.336127 
L 791.125495 188.739036 
L 791.534735 188.904047 
L 792.148594 189.421227 
L 792.353214 189.44189 
L 792.557833 189.27055 
L 793.580932 187.648699 
L 793.990171 187.441561 
L 794.604031 186.836373 
L 794.80865 186.946128 
L 795.21789 187.669947 
L 795.831749 188.876581 
L 796.036369 189.025515 
L 796.445608 188.936993 
L 797.264087 188.27158 
L 797.673327 188.296017 
L 798.696425 188.874868 
L 799.514904 188.875301 
L 799.924144 189.305025 
L 800.333383 189.745994 
L 800.538003 189.784405 
L 800.947242 189.514927 
L 801.765721 188.85702 
L 801.970341 188.8531 
L 802.37958 189.295509 
L 802.78882 189.846253 
L 802.993439 189.983866 
L 803.198059 189.976009 
L 803.402679 189.802356 
L 804.630397 187.985485 
L 804.835017 188.023569 
L 805.244256 188.540056 
L 805.858116 189.779271 
L 806.062735 189.929696 
L 806.267355 189.786401 
L 806.881214 188.914738 
L 807.699693 188.42806 
L 808.108933 188.380233 
L 809.132031 189.028107 
L 809.541271 189.210174 
L 809.95051 189.682909 
L 810.564369 190.465974 
L 810.768989 190.522051 
L 811.178229 190.24834 
L 811.792088 189.549038 
L 812.201327 189.355223 
L 813.429046 189.762938 
L 813.838285 189.520405 
L 814.247524 189.283911 
L 814.656764 189.300639 
L 815.066003 189.479421 
L 815.270623 189.44862 
L 815.475243 189.245801 
L 816.293722 187.855428 
L 816.702961 187.686872 
L 817.112201 187.972632 
L 817.52144 188.212753 
L 818.339919 187.89942 
L 818.749158 188.484741 
L 819.567637 190.254024 
L 819.976877 190.459531 
L 820.386116 190.512629 
L 821.204595 190.456753 
L 822.227694 190.746399 
L 823.046173 190.121494 
L 823.250792 190.185919 
L 824.478511 191.265419 
L 825.501609 191.334766 
L 825.910849 191.046413 
L 826.729328 190.217855 
L 827.138567 189.956821 
L 827.547807 189.967085 
L 828.161666 190.370572 
L 828.570905 190.292568 
L 828.980145 189.868969 
L 829.798624 188.712653 
L 830.207863 188.581815 
L 830.821722 188.629269 
L 831.435581 188.269156 
L 831.844821 188.361946 
L 832.86792 188.69358 
L 833.481779 188.355903 
L 833.686398 188.443383 
L 834.095638 189.135943 
L 834.504877 189.835606 
L 834.709497 189.935593 
L 835.732596 189.826419 
L 836.551075 190.747377 
L 837.983413 190.017068 
L 838.392652 189.499084 
L 839.620371 186.869952 
L 839.82499 186.689714 
L 840.02961 186.676335 
L 840.643469 186.958524 
L 841.461948 186.445815 
L 841.871188 186.239666 
L 842.280427 185.983368 
L 842.485047 186.031093 
L 843.303526 186.551451 
L 844.326624 186.396336 
L 845.145103 187.310647 
L 845.758962 188.199037 
L 845.963582 188.262986 
L 846.372822 188.0236 
L 847.39592 186.944357 
L 848.419019 186.995753 
L 848.828258 186.85266 
L 849.646737 186.13808 
L 849.851357 186.103023 
L 850.055977 186.190587 
L 851.079075 187.183473 
L 851.488315 187.163125 
L 851.897554 186.922663 
L 852.306794 186.090776 
L 852.920653 184.486469 
L 853.329892 184.009178 
L 853.534512 184.042718 
L 853.943751 184.501646 
L 854.352991 185.277903 
L 855.376089 187.608624 
L 855.580709 187.719396 
L 855.989949 187.430874 
L 856.399188 187.081618 
L 856.808428 187.017054 
L 857.217667 186.989668 
L 857.831526 186.869951 
L 858.445385 187.329557 
L 858.854625 187.164066 
L 859.263864 186.828812 
L 860.286963 185.661236 
L 860.900822 185.547769 
L 862.12854 184.994049 
L 862.53778 185.43563 
L 863.151639 186.151783 
L 863.560879 186.212549 
L 863.970118 186.177068 
L 864.379357 186.398145 
L 864.788597 186.625865 
L 865.607076 186.662399 
L 866.630174 186.45614 
L 867.039414 186.766317 
L 867.448653 187.090154 
L 867.653273 187.04919 
L 867.857893 186.751443 
L 868.676372 184.591768 
L 868.880991 184.48252 
L 869.290231 184.747673 
L 869.69947 185.020852 
L 870.10871 184.960386 
L 871.336428 184.197051 
L 872.154907 184.500511 
L 872.564147 184.141685 
L 872.973386 183.699391 
L 873.178006 183.624526 
L 873.382625 183.724908 
L 874.405724 184.869017 
L 874.814964 185.027361 
L 875.428823 185.052148 
L 875.838062 185.173899 
L 876.042682 185.105504 
L 876.451921 184.477569 
L 877.065781 183.140218 
L 877.47502 182.881649 
L 878.293499 183.022105 
L 879.316598 182.580783 
L 880.339696 181.385196 
L 880.748936 181.192904 
L 881.567415 180.982091 
L 881.976654 180.538611 
L 882.999753 178.838412 
L 883.613612 178.355953 
L 884.022851 178.39336 
L 884.432091 178.795366 
L 885.25057 180.103482 
L 885.864429 180.458705 
L 886.273668 180.368689 
L 886.478288 180.144014 
L 886.887527 179.1711 
L 888.933725 172.50322 
L 889.342964 171.610331 
L 889.547584 171.447074 
L 889.956823 171.609406 
L 890.570683 171.965479 
L 890.775302 171.887732 
L 892.61688 170.060066 
L 893.230739 170.086971 
L 893.435359 169.951614 
L 893.844598 169.221437 
L 894.253838 168.618689 
L 894.867697 168.553786 
L 895.276936 167.878751 
L 895.890795 166.783269 
L 897.323133 165.383869 
L 897.732373 164.434933 
L 898.550852 161.779229 
L 899.98319 158.879126 
L 900.597049 157.897809 
L 901.006289 156.70345 
L 901.620148 153.36086 
L 902.234007 150.225463 
L 902.438627 149.774246 
L 902.643246 149.66644 
L 902.847866 149.849127 
L 903.257106 150.819443 
L 903.666345 151.797243 
L 904.894063 153.688522 
L 905.098683 153.635776 
L 905.507923 153.035909 
L 906.121782 151.844509 
L 906.326401 151.795537 
L 906.531021 151.970021 
L 906.940261 152.720901 
L 907.55412 153.943082 
L 907.75874 154.094848 
L 907.963359 153.967467 
L 908.372599 152.856766 
L 908.781838 151.613473 
L 909.191078 151.041202 
L 910.009557 150.400455 
L 910.418796 149.838514 
L 911.441895 147.967912 
L 912.055754 147.372375 
L 912.464993 146.880322 
L 912.669613 146.943076 
L 912.874233 147.369165 
L 913.897331 151.24647 
L 914.101951 151.385434 
L 914.306571 151.21325 
L 914.71581 150.215076 
L 915.534289 147.736883 
L 915.738909 147.504131 
L 915.943529 147.749404 
L 916.148148 148.571625 
L 916.557388 151.665924 
L 917.171247 156.321213 
L 917.375867 156.974486 
L 917.580486 157.221173 
L 917.785106 157.202086 
L 918.194346 156.685933 
L 918.603585 155.738043 
L 919.012825 154.108284 
L 919.422064 150.65127 
L 919.831303 144.642978 
L 920.649782 128.6955 
L 920.854402 127.699162 
L 921.059022 129.061131 
L 921.468261 136.436424 
L 922.08212 148.277817 
L 922.69598 155.574472 
L 923.105219 158.090158 
L 923.514459 159.384619 
L 924.128318 160.260311 
L 924.537557 160.601649 
L 924.742177 160.582715 
L 925.151416 160.141088 
L 925.765276 159.413007 
L 926.174515 159.211152 
L 926.583754 159.35 
L 927.197614 159.926701 
L 928.016093 160.912415 
L 928.220712 160.918404 
L 929.039191 160.458261 
L 929.448431 160.667379 
L 930.676149 162.114595 
L 930.880769 162.083457 
L 931.085388 161.813625 
L 931.494628 160.714166 
L 932.108487 158.992361 
L 932.517726 158.485797 
L 932.926966 158.213183 
L 933.131586 158.18264 
L 933.540825 158.437361 
L 934.768543 159.585598 
L 935.382403 160.879177 
L 937.22398 165.14276 
L 937.63322 165.58803 
L 938.042459 165.724167 
L 938.860938 165.806095 
L 939.270177 165.979035 
L 939.474797 165.925479 
L 939.884037 165.386482 
L 940.293276 164.775697 
L 940.702516 164.578753 
L 941.520994 164.699787 
L 941.725614 164.933397 
L 942.134854 166.081023 
L 943.157952 169.960691 
L 943.771811 171.165727 
L 944.99953 173.211811 
L 945.20415 173.1808 
L 946.022628 172.345975 
L 946.227248 172.43486 
L 946.636488 173.240285 
L 947.250347 174.679962 
L 947.659586 175.233336 
L 947.864206 175.256687 
L 949.091924 174.482914 
L 949.501164 174.877357 
L 950.524262 176.373086 
L 951.138122 177.786664 
L 952.775079 182.608048 
L 953.184319 183.163037 
L 953.593558 183.363068 
L 954.002798 183.188247 
L 954.616657 182.510249 
L 955.025896 181.981883 
L 955.435136 181.837237 
L 955.844375 182.024339 
L 956.458235 182.426023 
L 956.662854 182.237555 
L 957.276713 181.325333 
L 957.481333 181.301636 
L 958.913671 182.542364 
L 959.322911 182.913141 
L 959.73215 182.977642 
L 960.14139 182.886872 
L 960.755249 182.617302 
L 961.164488 182.818745 
L 961.573728 183.077841 
L 961.982967 182.963086 
L 962.187587 182.869293 
L 962.392207 182.917186 
L 962.801446 183.523765 
L 963.210686 184.099022 
L 963.619925 184.113203 
L 964.029164 183.831207 
L 964.643024 182.892455 
L 965.052263 182.328388 
L 965.256883 182.226032 
L 965.461503 182.266131 
L 965.870742 182.806397 
L 966.484601 183.907469 
L 966.893841 184.436089 
L 967.30308 185.310349 
L 967.71232 186.241382 
L 967.916939 186.430521 
L 968.735418 186.539131 
L 969.144658 187.09697 
L 969.758517 188.35525 
L 970.167756 188.678559 
L 970.986235 188.829022 
L 971.395475 188.592312 
L 971.804714 187.884936 
L 972.418573 186.640457 
L 973.032432 186.074704 
L 973.441672 185.999508 
L 973.646292 186.152859 
L 974.055531 186.863754 
L 975.692489 190.254199 
L 976.101728 190.471828 
L 976.510968 190.400518 
L 977.329447 189.891148 
L 978.557165 188.679223 
L 978.761785 188.567701 
L 978.966404 188.640301 
L 979.784883 189.401832 
L 980.194123 189.327604 
L 980.807982 189.065791 
L 981.012602 189.108779 
L 981.421841 189.537021 
L 981.831081 190.084249 
L 982.0357 190.225553 
L 982.24032 190.198184 
L 982.64956 189.56564 
L 983.058799 188.932768 
L 983.263419 188.888497 
L 983.672658 189.172843 
L 984.491137 189.988712 
L 984.695757 190.001116 
L 985.514236 189.599567 
L 985.923475 189.559271 
L 986.332715 189.244292 
L 986.946574 188.498276 
L 987.151194 188.470683 
L 987.560433 188.909938 
L 987.969672 189.669757 
L 988.788151 191.54754 
L 989.197391 191.741448 
L 989.81125 191.645918 
L 990.01587 191.47954 
L 990.425109 190.675175 
L 991.038968 189.323102 
L 991.857447 188.063093 
L 992.266687 187.995371 
L 993.085166 188.172037 
L 993.699025 187.903131 
L 994.312884 187.336597 
L 994.722123 187.028945 
L 994.926743 186.977019 
L 995.131363 187.056181 
L 995.949842 187.857102 
L 996.359081 187.633162 
L 996.768321 187.464733 
L 997.17756 187.790974 
L 997.5868 188.132404 
L 998.200659 188.16202 
L 998.609898 188.027222 
L 999.223757 187.735272 
L 999.837617 187.982876 
L 1000.246856 187.878466 
L 1001.065335 188.078486 
L 1002.293053 186.831805 
L 1002.906913 186.563251 
L 1003.316152 186.564807 
L 1003.725391 186.851924 
L 1004.54387 188.160528 
L 1005.362349 189.533577 
L 1005.771589 190.070369 
L 1005.976208 190.190569 
L 1006.180828 190.160235 
L 1008.227025 188.831918 
L 1008.636265 188.865535 
L 1009.045504 188.907707 
L 1009.454744 188.60306 
L 1010.273223 187.50444 
L 1010.477842 187.471436 
L 1010.887082 187.72543 
L 1011.296321 188.270224 
L 1012.1148 189.79873 
L 1013.137899 190.741923 
L 1013.342519 190.727138 
L 1013.956378 190.325673 
L 1014.160997 190.437891 
L 1014.979476 191.438994 
L 1015.797955 191.260185 
L 1016.616434 191.373252 
L 1017.025674 191.211337 
L 1017.639533 190.814094 
L 1018.253392 191.154146 
L 1018.662631 190.736062 
L 1019.071871 190.288652 
L 1019.48111 190.321913 
L 1019.89035 190.478025 
L 1020.299589 190.327038 
L 1020.708829 190.156164 
L 1021.118068 190.039632 
L 1021.936547 189.383528 
L 1022.550406 189.554644 
L 1022.959646 189.753725 
L 1023.164265 189.700392 
L 1024.187364 188.623042 
L 1025.210463 188.69635 
L 1025.619702 189.39048 
L 1026.438181 191.323395 
L 1026.642801 191.497794 
L 1026.847421 191.435305 
L 1027.25666 191.075955 
L 1027.665899 191.230663 
L 1027.870519 191.293605 
L 1028.075139 191.179689 
L 1028.484378 190.397713 
L 1029.302857 187.801855 
L 1029.507477 187.705633 
L 1029.712097 187.974702 
L 1030.530576 189.630647 
L 1030.939815 190.046444 
L 1031.553674 190.242831 
L 1032.372153 190.315403 
L 1032.781393 190.032254 
L 1033.804491 188.737287 
L 1034.41835 188.619797 
L 1035.236829 187.863267 
L 1035.646069 188.131826 
L 1036.464548 189.099002 
L 1037.487646 190.958461 
L 1038.306125 191.033925 
L 1038.715365 191.24961 
L 1038.919984 191.197458 
L 1039.329224 190.685136 
L 1039.738463 190.117076 
L 1040.147703 189.955774 
L 1040.761562 189.939875 
L 1041.170801 189.436445 
L 1042.1939 187.641664 
L 1042.60314 187.358126 
L 1042.807759 187.434319 
L 1043.421618 188.165816 
L 1045.058576 189.847366 
L 1045.467816 189.981865 
L 1045.877055 189.843061 
L 1046.490914 189.497384 
L 1046.900154 189.359724 
L 1047.514013 189.048644 
L 1047.923252 189.085104 
L 1048.332492 188.84458 
L 1048.946351 188.404762 
L 1050.787929 187.614777 
L 1051.197168 187.249001 
L 1051.606407 187.217808 
L 1052.015647 187.193854 
L 1052.629506 187.086519 
L 1053.038746 187.361872 
L 1053.652605 187.950751 
L 1054.061844 187.997357 
L 1054.880323 187.354474 
L 1055.494182 186.985621 
L 1055.903422 187.066198 
L 1056.312661 187.49533 
L 1057.54038 189.338345 
L 1058.358858 190.400691 
L 1059.586577 190.997039 
L 1059.995816 191.438532 
L 1060.814295 192.709256 
L 1061.018915 192.779811 
L 1061.223535 192.661889 
L 1061.632774 191.990012 
L 1062.246633 191.056474 
L 1062.655873 190.91917 
L 1063.269732 191.043879 
L 1063.474352 190.906467 
L 1063.883591 190.245017 
L 1064.49745 189.176968 
L 1065.111309 188.810871 
L 1065.520549 188.594217 
L 1065.725169 188.601896 
L 1066.134408 189.10316 
L 1066.543648 189.557562 
L 1066.748267 189.481892 
L 1067.566746 188.391977 
L 1067.771366 188.490145 
L 1068.385225 189.112666 
L 1068.589845 189.126096 
L 1068.999084 188.854537 
L 1069.612943 188.434164 
L 1070.431422 188.193911 
L 1070.636042 188.283596 
L 1070.840662 188.51172 
L 1071.249901 189.525056 
L 1071.86376 191.262339 
L 1072.06838 191.415906 
L 1072.273 191.315453 
L 1072.682239 190.691198 
L 1073.296099 189.789794 
L 1073.909958 189.487149 
L 1074.523817 189.169925 
L 1074.933056 189.013419 
L 1075.546916 189.188147 
L 1076.160775 189.199383 
L 1077.388493 189.833527 
L 1077.797733 190.027032 
L 1078.411592 190.432691 
L 1078.820831 190.401551 
L 1079.230071 189.971313 
L 1079.84393 188.816463 
L 1080.04855 188.678036 
L 1080.253169 188.739387 
L 1080.662409 189.213308 
L 1081.480888 190.528598 
L 1081.685507 190.578423 
L 1081.890127 190.422667 
L 1083.117845 188.526581 
L 1083.322465 188.589031 
L 1083.731705 189.179061 
L 1084.550184 190.496096 
L 1084.754803 190.537346 
L 1085.164043 190.251487 
L 1085.982522 189.392343 
L 1086.801 188.318673 
L 1087.21024 188.452099 
L 1087.619479 188.579205 
L 1088.233339 188.334707 
L 1088.437958 188.447828 
L 1090.279536 190.789176 
L 1090.688775 190.672042 
L 1091.098015 190.219358 
L 1091.507254 189.711033 
L 1092.325733 189.068704 
L 1093.144212 187.75408 
L 1093.553451 187.58102 
L 1093.758071 187.726419 
L 1094.37193 188.875156 
L 1094.78117 189.493097 
L 1095.190409 189.772931 
L 1096.008888 190.194161 
L 1096.418128 190.742042 
L 1097.031987 191.658153 
L 1097.236607 191.74235 
L 1097.441226 191.646729 
L 1098.259705 190.721381 
L 1098.464325 190.633538 
L 1098.668945 190.695956 
L 1099.078184 191.30615 
L 1099.692043 192.332196 
L 1099.896663 192.422235 
L 1100.101283 192.301948 
L 1100.919762 190.849499 
L 1101.533621 189.811477 
L 1101.738241 189.70858 
L 1101.94286 189.782543 
L 1102.3521 190.32811 
L 1103.170579 191.550728 
L 1103.579818 191.852993 
L 1103.784438 191.726672 
L 1105.216776 189.440894 
L 1105.626015 189.207761 
L 1106.035255 189.406637 
L 1106.444494 189.833574 
L 1107.262973 191.100039 
L 1107.876832 191.569503 
L 1108.490692 192.310711 
L 1108.695311 192.231266 
L 1109.104551 191.664332 
L 1109.71841 190.39075 
L 1110.332269 188.998453 
L 1110.536889 188.887672 
L 1110.741509 189.018979 
L 1111.559987 190.115479 
L 1111.969227 190.25341 
L 1112.378466 190.732111 
L 1112.787706 191.078914 
L 1113.196945 190.765976 
L 1113.606185 190.417749 
L 1113.810804 190.432044 
L 1114.629283 191.017592 
L 1115.038523 190.365339 
L 1115.857002 188.523863 
L 1116.061621 188.41138 
L 1116.266241 188.478533 
L 1117.08472 189.178064 
L 1117.698579 189.346035 
L 1117.903199 189.214523 
L 1118.721678 188.088672 
L 1118.926298 188.09197 
L 1119.744777 188.785272 
L 1119.949396 188.687127 
L 1120.767875 187.781818 
L 1121.586354 187.947313 
L 1121.995594 187.92891 
L 1122.200213 188.094316 
L 1122.609453 188.944835 
L 1123.018692 189.836127 
L 1123.427932 190.147501 
L 1123.837171 189.810129 
L 1124.45103 189.115888 
L 1125.064889 188.986285 
L 1125.474129 189.204189 
L 1125.883368 189.419801 
L 1126.701847 189.30845 
L 1127.520326 189.319184 
L 1127.929566 189.190937 
L 1128.748044 188.57426 
L 1128.952664 188.721036 
L 1129.361904 189.466895 
L 1129.975763 190.935518 
L 1130.180383 191.108397 
L 1130.385002 191.039192 
L 1130.794242 190.456852 
L 1131.408101 189.453247 
L 1131.81734 189.280891 
L 1132.22658 189.493084 
L 1132.635819 189.861838 
L 1132.840439 189.900426 
L 1133.045059 189.746142 
L 1134.068157 188.328322 
L 1134.682017 187.925812 
L 1134.886636 187.900576 
L 1135.091256 188.028668 
L 1135.909735 188.916671 
L 1137.137453 189.231962 
L 1137.546693 188.820963 
L 1138.365172 187.673933 
L 1138.774411 187.613979 
L 1139.59289 187.986502 
L 1140.206749 188.476931 
L 1140.411369 188.47689 
L 1141.229848 187.967185 
L 1142.457566 188.065986 
L 1142.662186 188.024322 
L 1142.866806 188.099044 
L 1143.276045 188.772816 
L 1143.889904 189.906701 
L 1144.299144 190.155717 
L 1144.913003 190.125542 
L 1145.322242 190.047119 
L 1145.526862 190.131719 
L 1146.345341 190.816365 
L 1146.75458 190.657248 
L 1147.16382 190.240526 
L 1147.777679 189.286129 
L 1147.982299 189.24408 
L 1148.391538 189.743885 
L 1148.800778 190.152925 
L 1149.210017 190.071576 
L 1149.619257 189.633997 
L 1150.233116 188.792432 
L 1150.846975 188.524081 
L 1151.051595 188.538275 
L 1151.460834 188.894589 
L 1151.870074 189.243041 
L 1152.074693 189.183253 
L 1153.302412 188.041886 
L 1153.507031 188.148084 
L 1153.916271 188.90073 
L 1154.53013 189.941584 
L 1155.962468 191.595978 
L 1156.167088 191.490345 
L 1156.576327 190.646255 
L 1157.394806 188.276114 
L 1157.599426 188.045926 
L 1157.804046 188.024691 
L 1158.008665 188.215606 
L 1158.417905 189.183632 
L 1159.031764 190.673873 
L 1159.441004 191.085205 
L 1159.850243 191.254526 
L 1160.054863 191.165364 
L 1160.464102 190.479987 
L 1160.873342 189.811721 
L 1161.487201 189.369579 
L 1162.30568 188.649681 
L 1162.919539 188.103016 
L 1163.124159 188.038057 
L 1163.533398 188.256325 
L 1164.556497 189.274744 
L 1164.965736 190.367723 
L 1165.579595 192.1431 
L 1165.784215 192.379945 
L 1165.988835 192.364777 
L 1166.398074 191.69765 
L 1166.807314 190.798647 
L 1167.011933 190.570786 
L 1167.216553 190.579763 
L 1168.035032 191.359215 
L 1168.648891 191.546637 
L 1169.058131 191.653667 
L 1169.46737 191.497333 
L 1170.081229 190.931966 
L 1170.899708 190.775465 
L 1171.513567 190.249289 
L 1172.332046 190.133766 
L 1173.355145 188.548139 
L 1173.764384 188.622332 
L 1174.173624 188.948424 
L 1174.992103 190.028247 
L 1176.015201 190.683731 
L 1177.0383 191.024048 
L 1177.856779 191.714061 
L 1178.470638 192.400313 
L 1178.675258 192.409033 
L 1178.879878 192.25326 
L 1179.289117 191.508061 
L 1180.516835 188.405772 
L 1180.721455 188.283197 
L 1180.926075 188.354436 
L 1181.744554 189.332972 
L 1181.949173 189.277558 
L 1182.358413 188.583827 
L 1182.972272 187.529469 
L 1183.381512 187.281437 
L 1183.790751 187.245848 
L 1183.995371 187.367224 
L 1184.81385 188.341291 
L 1184.81385 188.341291 
" clip-path="url(#pba1a0ec225)" style="fill: none; stroke: #000000; stroke-width: 2; stroke-linecap: square"/>
   </g>
   <g id="patch_3">
    <path d="M 3.00024 198.907885 
L 1184.99976 198.907885 
" style="fill: none; stroke: #000000; stroke-width: 2; stroke-linejoin: miter; stroke-linecap: square"/>
   </g>
  </g>
 </g>
 <defs>
  <clipPath id="pba1a0ec225">
   <rect x="3.00024" y="3.00024" width="1181.99952" height="195.907645"/>
  </clipPath>
 </defs>
</svg>
