<?xml version="1.0" encoding="utf-8" standalone="no"?>
<!DOCTYPE svg PUBLIC "-//W3C//DTD SVG 1.1//EN"
  "http://www.w3.org/Graphics/SVG/1.1/DTD/svg11.dtd">
<svg xmlns:xlink="http://www.w3.org/1999/xlink" width="1188pt" height="252pt" viewBox="0 0 1188 252" xmlns="http://www.w3.org/2000/svg" version="1.1">
 <metadata>
  <rdf:RDF xmlns:dc="http://purl.org/dc/elements/1.1/" xmlns:cc="http://creativecommons.org/ns#" xmlns:rdf="http://www.w3.org/1999/02/22-rdf-syntax-ns#">
   <cc:Work>
    <dc:type rdf:resource="http://purl.org/dc/dcmitype/StillImage"/>
    <dc:date>2024-05-13T16:40:41.584114</dc:date>
    <dc:format>image/svg+xml</dc:format>
    <dc:creator>
     <cc:Agent>
      <dc:title>Matplotlib v3.8.0, https://matplotlib.org/</dc:title>
     </cc:Agent>
    </dc:creator>
   </cc:Work>
  </rdf:RDF>
 </metadata>
 <defs>
  <style type="text/css">*{stroke-linejoin: round; stroke-linecap: butt}</style>
 </defs>
 <g id="figure_1">
  <g id="patch_1">
   <path d="M 0 252 
L 1188 252 
L 1188 0 
L 0 0 
z
" style="fill: #ffffff"/>
  </g>
  <g id="axes_1">
   <g id="patch_2">
    <path d="M 3.00024 198.907885 
L 1184.99976 198.907885 
L 1184.99976 3.00024 
L 3.00024 3.00024 
z
" style="fill: #ffffff"/>
   </g>
   <g id="matplotlib.axis_1">
    <g id="xtick_1">
     <g id="line2d_1">
      <defs>
       <path id="m922bd63e02" d="M 0 0 
L 0 8 
" style="stroke: #000000; stroke-width: 2"/>
      </defs>
      <g>
       <use xlink:href="#m922bd63e02" x="1131.272509" y="198.907885" style="stroke: #000000; stroke-width: 2"/>
      </g>
     </g>
     <g id="text_1">
      <!-- 0 -->
      <g transform="translate(1126.267665 224.791947) scale(0.18 -0.18)">
       <defs>
        <path id="Arial-BoldMT-30" d="M 1756 4600 
Q 2422 4600 2797 4125 
Q 3244 3563 3244 2259 
Q 3244 959 2794 391 
Q 2422 -78 1756 -78 
Q 1088 -78 678 436 
Q 269 950 269 2269 
Q 269 3563 719 4131 
Q 1091 4600 1756 4600 
z
M 1756 3872 
Q 1597 3872 1472 3770 
Q 1347 3669 1278 3406 
Q 1188 3066 1188 2259 
Q 1188 1453 1269 1151 
Q 1350 850 1473 750 
Q 1597 650 1756 650 
Q 1916 650 2041 751 
Q 2166 853 2234 1116 
Q 2325 1453 2325 2259 
Q 2325 3066 2244 3367 
Q 2163 3669 2039 3770 
Q 1916 3872 1756 3872 
z
" transform="scale(0.015625)"/>
       </defs>
       <use xlink:href="#Arial-BoldMT-30"/>
      </g>
     </g>
    </g>
    <g id="xtick_2">
     <g id="line2d_2">
      <g>
       <use xlink:href="#m922bd63e02" x="1023.818007" y="198.907885" style="stroke: #000000; stroke-width: 2"/>
      </g>
     </g>
     <g id="text_2">
      <!-- 1 -->
      <g transform="translate(1018.813164 224.791947) scale(0.18 -0.18)">
       <defs>
        <path id="Arial-BoldMT-31" d="M 2519 0 
L 1641 0 
L 1641 3309 
Q 1159 2859 506 2644 
L 506 3441 
Q 850 3553 1253 3867 
Q 1656 4181 1806 4600 
L 2519 4600 
L 2519 0 
z
" transform="scale(0.015625)"/>
       </defs>
       <use xlink:href="#Arial-BoldMT-31"/>
      </g>
     </g>
    </g>
    <g id="xtick_3">
     <g id="line2d_3">
      <g>
       <use xlink:href="#m922bd63e02" x="916.363505" y="198.907885" style="stroke: #000000; stroke-width: 2"/>
      </g>
     </g>
     <g id="text_3">
      <!-- 2 -->
      <g transform="translate(911.358662 224.791947) scale(0.18 -0.18)">
       <defs>
        <path id="Arial-BoldMT-32" d="M 3238 816 
L 3238 0 
L 159 0 
Q 209 463 459 877 
Q 709 1291 1447 1975 
Q 2041 2528 2175 2725 
Q 2356 2997 2356 3263 
Q 2356 3556 2198 3714 
Q 2041 3872 1763 3872 
Q 1488 3872 1325 3706 
Q 1163 3541 1138 3156 
L 263 3244 
Q 341 3969 753 4284 
Q 1166 4600 1784 4600 
Q 2463 4600 2850 4234 
Q 3238 3869 3238 3325 
Q 3238 3016 3127 2736 
Q 3016 2456 2775 2150 
Q 2616 1947 2200 1565 
Q 1784 1184 1673 1059 
Q 1563 934 1494 816 
L 3238 816 
z
" transform="scale(0.015625)"/>
       </defs>
       <use xlink:href="#Arial-BoldMT-32"/>
      </g>
     </g>
    </g>
    <g id="xtick_4">
     <g id="line2d_4">
      <g>
       <use xlink:href="#m922bd63e02" x="808.909004" y="198.907885" style="stroke: #000000; stroke-width: 2"/>
      </g>
     </g>
     <g id="text_4">
      <!-- 3 -->
      <g transform="translate(803.90416 224.791947) scale(0.18 -0.18)">
       <defs>
        <path id="Arial-BoldMT-33" d="M 241 1216 
L 1091 1319 
Q 1131 994 1309 822 
Q 1488 650 1741 650 
Q 2013 650 2198 856 
Q 2384 1063 2384 1413 
Q 2384 1744 2206 1937 
Q 2028 2131 1772 2131 
Q 1603 2131 1369 2066 
L 1466 2781 
Q 1822 2772 2009 2936 
Q 2197 3100 2197 3372 
Q 2197 3603 2059 3740 
Q 1922 3878 1694 3878 
Q 1469 3878 1309 3722 
Q 1150 3566 1116 3266 
L 306 3403 
Q 391 3819 561 4067 
Q 731 4316 1036 4458 
Q 1341 4600 1719 4600 
Q 2366 4600 2756 4188 
Q 3078 3850 3078 3425 
Q 3078 2822 2419 2463 
Q 2813 2378 3048 2084 
Q 3284 1791 3284 1375 
Q 3284 772 2843 347 
Q 2403 -78 1747 -78 
Q 1125 -78 715 280 
Q 306 638 241 1216 
z
" transform="scale(0.015625)"/>
       </defs>
       <use xlink:href="#Arial-BoldMT-33"/>
      </g>
     </g>
    </g>
    <g id="xtick_5">
     <g id="line2d_5">
      <g>
       <use xlink:href="#m922bd63e02" x="701.454502" y="198.907885" style="stroke: #000000; stroke-width: 2"/>
      </g>
     </g>
     <g id="text_5">
      <!-- 4 -->
      <g transform="translate(696.449658 224.791947) scale(0.18 -0.18)">
       <defs>
        <path id="Arial-BoldMT-34" d="M 1994 0 
L 1994 922 
L 119 922 
L 119 1691 
L 2106 4600 
L 2844 4600 
L 2844 1694 
L 3413 1694 
L 3413 922 
L 2844 922 
L 2844 0 
L 1994 0 
z
M 1994 1694 
L 1994 3259 
L 941 1694 
L 1994 1694 
z
" transform="scale(0.015625)"/>
       </defs>
       <use xlink:href="#Arial-BoldMT-34"/>
      </g>
     </g>
    </g>
    <g id="xtick_6">
     <g id="line2d_6">
      <g>
       <use xlink:href="#m922bd63e02" x="594" y="198.907885" style="stroke: #000000; stroke-width: 2"/>
      </g>
     </g>
     <g id="text_6">
      <!-- 5 -->
      <g transform="translate(588.995156 224.791947) scale(0.18 -0.18)">
       <defs>
        <path id="Arial-BoldMT-35" d="M 284 1178 
L 1159 1269 
Q 1197 972 1381 798 
Q 1566 625 1806 625 
Q 2081 625 2272 848 
Q 2463 1072 2463 1522 
Q 2463 1944 2273 2155 
Q 2084 2366 1781 2366 
Q 1403 2366 1103 2031 
L 391 2134 
L 841 4519 
L 3163 4519 
L 3163 3697 
L 1506 3697 
L 1369 2919 
Q 1663 3066 1969 3066 
Q 2553 3066 2959 2641 
Q 3366 2216 3366 1538 
Q 3366 972 3038 528 
Q 2591 -78 1797 -78 
Q 1163 -78 763 262 
Q 363 603 284 1178 
z
" transform="scale(0.015625)"/>
       </defs>
       <use xlink:href="#Arial-BoldMT-35"/>
      </g>
     </g>
    </g>
    <g id="xtick_7">
     <g id="line2d_7">
      <g>
       <use xlink:href="#m922bd63e02" x="486.545498" y="198.907885" style="stroke: #000000; stroke-width: 2"/>
      </g>
     </g>
     <g id="text_7">
      <!-- 6 -->
      <g transform="translate(481.540654 224.791947) scale(0.18 -0.18)">
       <defs>
        <path id="Arial-BoldMT-36" d="M 3247 3459 
L 2397 3366 
Q 2366 3628 2234 3753 
Q 2103 3878 1894 3878 
Q 1616 3878 1423 3628 
Q 1231 3378 1181 2588 
Q 1509 2975 1997 2975 
Q 2547 2975 2939 2556 
Q 3331 2138 3331 1475 
Q 3331 772 2918 347 
Q 2506 -78 1859 -78 
Q 1166 -78 719 461 
Q 272 1000 272 2228 
Q 272 3488 737 4044 
Q 1203 4600 1947 4600 
Q 2469 4600 2811 4308 
Q 3153 4016 3247 3459 
z
M 1256 1544 
Q 1256 1116 1453 883 
Q 1650 650 1903 650 
Q 2147 650 2309 840 
Q 2472 1031 2472 1466 
Q 2472 1913 2297 2120 
Q 2122 2328 1859 2328 
Q 1606 2328 1431 2129 
Q 1256 1931 1256 1544 
z
" transform="scale(0.015625)"/>
       </defs>
       <use xlink:href="#Arial-BoldMT-36"/>
      </g>
     </g>
    </g>
    <g id="xtick_8">
     <g id="line2d_8">
      <g>
       <use xlink:href="#m922bd63e02" x="379.090996" y="198.907885" style="stroke: #000000; stroke-width: 2"/>
      </g>
     </g>
     <g id="text_8">
      <!-- 7 -->
      <g transform="translate(374.086153 224.791947) scale(0.18 -0.18)">
       <defs>
        <path id="Arial-BoldMT-37" d="M 272 3703 
L 272 4519 
L 3275 4519 
L 3275 3881 
Q 2903 3516 2518 2831 
Q 2134 2147 1932 1376 
Q 1731 606 1734 0 
L 888 0 
Q 909 950 1279 1937 
Q 1650 2925 2269 3703 
L 272 3703 
z
" transform="scale(0.015625)"/>
       </defs>
       <use xlink:href="#Arial-BoldMT-37"/>
      </g>
     </g>
    </g>
    <g id="xtick_9">
     <g id="line2d_9">
      <g>
       <use xlink:href="#m922bd63e02" x="271.636495" y="198.907885" style="stroke: #000000; stroke-width: 2"/>
      </g>
     </g>
     <g id="text_9">
      <!-- 8 -->
      <g transform="translate(266.631651 224.791947) scale(0.18 -0.18)">
       <defs>
        <path id="Arial-BoldMT-38" d="M 1025 2472 
Q 684 2616 529 2867 
Q 375 3119 375 3419 
Q 375 3931 733 4265 
Q 1091 4600 1750 4600 
Q 2403 4600 2764 4265 
Q 3125 3931 3125 3419 
Q 3125 3100 2959 2851 
Q 2794 2603 2494 2472 
Q 2875 2319 3073 2025 
Q 3272 1731 3272 1347 
Q 3272 713 2867 316 
Q 2463 -81 1791 -81 
Q 1166 -81 750 247 
Q 259 634 259 1309 
Q 259 1681 443 1992 
Q 628 2303 1025 2472 
z
M 1206 3356 
Q 1206 3094 1354 2947 
Q 1503 2800 1750 2800 
Q 2000 2800 2150 2948 
Q 2300 3097 2300 3359 
Q 2300 3606 2151 3754 
Q 2003 3903 1759 3903 
Q 1506 3903 1356 3753 
Q 1206 3603 1206 3356 
z
M 1125 1394 
Q 1125 1031 1311 828 
Q 1497 625 1775 625 
Q 2047 625 2225 820 
Q 2403 1016 2403 1384 
Q 2403 1706 2222 1901 
Q 2041 2097 1763 2097 
Q 1441 2097 1283 1875 
Q 1125 1653 1125 1394 
z
" transform="scale(0.015625)"/>
       </defs>
       <use xlink:href="#Arial-BoldMT-38"/>
      </g>
     </g>
    </g>
    <g id="xtick_10">
     <g id="line2d_10">
      <g>
       <use xlink:href="#m922bd63e02" x="164.181993" y="198.907885" style="stroke: #000000; stroke-width: 2"/>
      </g>
     </g>
     <g id="text_10">
      <!-- 9 -->
      <g transform="translate(159.177149 224.791947) scale(0.18 -0.18)">
       <defs>
        <path id="Arial-BoldMT-39" d="M 291 1059 
L 1141 1153 
Q 1172 894 1303 769 
Q 1434 644 1650 644 
Q 1922 644 2112 894 
Q 2303 1144 2356 1931 
Q 2025 1547 1528 1547 
Q 988 1547 595 1964 
Q 203 2381 203 3050 
Q 203 3747 617 4173 
Q 1031 4600 1672 4600 
Q 2369 4600 2816 4061 
Q 3263 3522 3263 2288 
Q 3263 1031 2797 475 
Q 2331 -81 1584 -81 
Q 1047 -81 715 205 
Q 384 491 291 1059 
z
M 2278 2978 
Q 2278 3403 2083 3637 
Q 1888 3872 1631 3872 
Q 1388 3872 1227 3680 
Q 1066 3488 1066 3050 
Q 1066 2606 1241 2398 
Q 1416 2191 1678 2191 
Q 1931 2191 2104 2391 
Q 2278 2591 2278 2978 
z
" transform="scale(0.015625)"/>
       </defs>
       <use xlink:href="#Arial-BoldMT-39"/>
      </g>
     </g>
    </g>
    <g id="xtick_11">
     <g id="line2d_11">
      <g>
       <use xlink:href="#m922bd63e02" x="56.727491" y="198.907885" style="stroke: #000000; stroke-width: 2"/>
      </g>
     </g>
     <g id="text_11">
      <!-- 10 -->
      <g transform="translate(46.717803 224.791947) scale(0.18 -0.18)">
       <use xlink:href="#Arial-BoldMT-31"/>
       <use xlink:href="#Arial-BoldMT-30" x="55.615234"/>
      </g>
     </g>
    </g>
    <g id="text_12">
     <!-- Chemical Shift / ppm -->
     <g transform="translate(504.992813 245.447573) scale(0.18 -0.18)">
      <defs>
       <path id="Arial-BoldMT-43" d="M 3397 1684 
L 4294 1400 
Q 4088 650 3608 286 
Q 3128 -78 2391 -78 
Q 1478 -78 890 545 
Q 303 1169 303 2250 
Q 303 3394 893 4026 
Q 1484 4659 2447 4659 
Q 3288 4659 3813 4163 
Q 4125 3869 4281 3319 
L 3366 3100 
Q 3284 3456 3026 3662 
Q 2769 3869 2400 3869 
Q 1891 3869 1573 3503 
Q 1256 3138 1256 2319 
Q 1256 1450 1568 1081 
Q 1881 713 2381 713 
Q 2750 713 3015 947 
Q 3281 1181 3397 1684 
z
" transform="scale(0.015625)"/>
       <path id="Arial-BoldMT-68" d="M 1334 4581 
L 1334 2897 
Q 1759 3394 2350 3394 
Q 2653 3394 2897 3281 
Q 3141 3169 3264 2994 
Q 3388 2819 3433 2606 
Q 3478 2394 3478 1947 
L 3478 0 
L 2600 0 
L 2600 1753 
Q 2600 2275 2550 2415 
Q 2500 2556 2373 2639 
Q 2247 2722 2056 2722 
Q 1838 2722 1666 2615 
Q 1494 2509 1414 2295 
Q 1334 2081 1334 1663 
L 1334 0 
L 456 0 
L 456 4581 
L 1334 4581 
z
" transform="scale(0.015625)"/>
       <path id="Arial-BoldMT-65" d="M 2381 1056 
L 3256 909 
Q 3088 428 2723 176 
Q 2359 -75 1813 -75 
Q 947 -75 531 491 
Q 203 944 203 1634 
Q 203 2459 634 2926 
Q 1066 3394 1725 3394 
Q 2466 3394 2894 2905 
Q 3322 2416 3303 1406 
L 1103 1406 
Q 1113 1016 1316 798 
Q 1519 581 1822 581 
Q 2028 581 2168 693 
Q 2309 806 2381 1056 
z
M 2431 1944 
Q 2422 2325 2234 2523 
Q 2047 2722 1778 2722 
Q 1491 2722 1303 2513 
Q 1116 2303 1119 1944 
L 2431 1944 
z
" transform="scale(0.015625)"/>
       <path id="Arial-BoldMT-6d" d="M 394 3319 
L 1203 3319 
L 1203 2866 
Q 1638 3394 2238 3394 
Q 2556 3394 2790 3262 
Q 3025 3131 3175 2866 
Q 3394 3131 3647 3262 
Q 3900 3394 4188 3394 
Q 4553 3394 4806 3245 
Q 5059 3097 5184 2809 
Q 5275 2597 5275 2122 
L 5275 0 
L 4397 0 
L 4397 1897 
Q 4397 2391 4306 2534 
Q 4184 2722 3931 2722 
Q 3747 2722 3584 2609 
Q 3422 2497 3350 2280 
Q 3278 2063 3278 1594 
L 3278 0 
L 2400 0 
L 2400 1819 
Q 2400 2303 2353 2443 
Q 2306 2584 2207 2653 
Q 2109 2722 1941 2722 
Q 1738 2722 1575 2612 
Q 1413 2503 1342 2297 
Q 1272 2091 1272 1613 
L 1272 0 
L 394 0 
L 394 3319 
z
" transform="scale(0.015625)"/>
       <path id="Arial-BoldMT-69" d="M 459 3769 
L 459 4581 
L 1338 4581 
L 1338 3769 
L 459 3769 
z
M 459 0 
L 459 3319 
L 1338 3319 
L 1338 0 
L 459 0 
z
" transform="scale(0.015625)"/>
       <path id="Arial-BoldMT-63" d="M 3353 2338 
L 2488 2181 
Q 2444 2441 2289 2572 
Q 2134 2703 1888 2703 
Q 1559 2703 1364 2476 
Q 1169 2250 1169 1719 
Q 1169 1128 1367 884 
Q 1566 641 1900 641 
Q 2150 641 2309 783 
Q 2469 925 2534 1272 
L 3397 1125 
Q 3263 531 2881 228 
Q 2500 -75 1859 -75 
Q 1131 -75 698 384 
Q 266 844 266 1656 
Q 266 2478 700 2936 
Q 1134 3394 1875 3394 
Q 2481 3394 2839 3133 
Q 3197 2872 3353 2338 
z
" transform="scale(0.015625)"/>
       <path id="Arial-BoldMT-61" d="M 1116 2306 
L 319 2450 
Q 453 2931 781 3162 
Q 1109 3394 1756 3394 
Q 2344 3394 2631 3255 
Q 2919 3116 3036 2902 
Q 3153 2688 3153 2116 
L 3144 1091 
Q 3144 653 3186 445 
Q 3228 238 3344 0 
L 2475 0 
Q 2441 88 2391 259 
Q 2369 338 2359 363 
Q 2134 144 1878 34 
Q 1622 -75 1331 -75 
Q 819 -75 523 203 
Q 228 481 228 906 
Q 228 1188 362 1408 
Q 497 1628 739 1745 
Q 981 1863 1438 1950 
Q 2053 2066 2291 2166 
L 2291 2253 
Q 2291 2506 2166 2614 
Q 2041 2722 1694 2722 
Q 1459 2722 1328 2630 
Q 1197 2538 1116 2306 
z
M 2291 1594 
Q 2122 1538 1756 1459 
Q 1391 1381 1278 1306 
Q 1106 1184 1106 997 
Q 1106 813 1243 678 
Q 1381 544 1594 544 
Q 1831 544 2047 700 
Q 2206 819 2256 991 
Q 2291 1103 2291 1419 
L 2291 1594 
z
" transform="scale(0.015625)"/>
       <path id="Arial-BoldMT-6c" d="M 459 0 
L 459 4581 
L 1338 4581 
L 1338 0 
L 459 0 
z
" transform="scale(0.015625)"/>
       <path id="Arial-BoldMT-20" transform="scale(0.015625)"/>
       <path id="Arial-BoldMT-53" d="M 231 1491 
L 1131 1578 
Q 1213 1125 1461 912 
Q 1709 700 2131 700 
Q 2578 700 2804 889 
Q 3031 1078 3031 1331 
Q 3031 1494 2936 1608 
Q 2841 1722 2603 1806 
Q 2441 1863 1863 2006 
Q 1119 2191 819 2459 
Q 397 2838 397 3381 
Q 397 3731 595 4036 
Q 794 4341 1167 4500 
Q 1541 4659 2069 4659 
Q 2931 4659 3367 4281 
Q 3803 3903 3825 3272 
L 2900 3231 
Q 2841 3584 2645 3739 
Q 2450 3894 2059 3894 
Q 1656 3894 1428 3728 
Q 1281 3622 1281 3444 
Q 1281 3281 1419 3166 
Q 1594 3019 2269 2859 
Q 2944 2700 3267 2529 
Q 3591 2359 3773 2064 
Q 3956 1769 3956 1334 
Q 3956 941 3737 597 
Q 3519 253 3119 86 
Q 2719 -81 2122 -81 
Q 1253 -81 787 320 
Q 322 722 231 1491 
z
" transform="scale(0.015625)"/>
       <path id="Arial-BoldMT-66" d="M 75 3319 
L 563 3319 
L 563 3569 
Q 563 3988 652 4194 
Q 741 4400 980 4529 
Q 1219 4659 1584 4659 
Q 1959 4659 2319 4547 
L 2200 3934 
Q 1991 3984 1797 3984 
Q 1606 3984 1523 3895 
Q 1441 3806 1441 3553 
L 1441 3319 
L 2097 3319 
L 2097 2628 
L 1441 2628 
L 1441 0 
L 563 0 
L 563 2628 
L 75 2628 
L 75 3319 
z
" transform="scale(0.015625)"/>
       <path id="Arial-BoldMT-74" d="M 1981 3319 
L 1981 2619 
L 1381 2619 
L 1381 1281 
Q 1381 875 1398 808 
Q 1416 741 1477 697 
Q 1538 653 1625 653 
Q 1747 653 1978 738 
L 2053 56 
Q 1747 -75 1359 -75 
Q 1122 -75 931 4 
Q 741 84 652 211 
Q 563 338 528 553 
Q 500 706 500 1172 
L 500 2619 
L 97 2619 
L 97 3319 
L 500 3319 
L 500 3978 
L 1381 4491 
L 1381 3319 
L 1981 3319 
z
" transform="scale(0.015625)"/>
       <path id="Arial-BoldMT-2f" d="M -9 -78 
L 1125 4659 
L 1784 4659 
L 638 -78 
L -9 -78 
z
" transform="scale(0.015625)"/>
       <path id="Arial-BoldMT-70" d="M 434 3319 
L 1253 3319 
L 1253 2831 
Q 1413 3081 1684 3237 
Q 1956 3394 2288 3394 
Q 2866 3394 3269 2941 
Q 3672 2488 3672 1678 
Q 3672 847 3265 386 
Q 2859 -75 2281 -75 
Q 2006 -75 1782 34 
Q 1559 144 1313 409 
L 1313 -1263 
L 434 -1263 
L 434 3319 
z
M 1303 1716 
Q 1303 1156 1525 889 
Q 1747 622 2066 622 
Q 2372 622 2575 867 
Q 2778 1113 2778 1672 
Q 2778 2194 2568 2447 
Q 2359 2700 2050 2700 
Q 1728 2700 1515 2451 
Q 1303 2203 1303 1716 
z
" transform="scale(0.015625)"/>
      </defs>
      <use xlink:href="#Arial-BoldMT-43"/>
      <use xlink:href="#Arial-BoldMT-68" x="72.216797"/>
      <use xlink:href="#Arial-BoldMT-65" x="133.300781"/>
      <use xlink:href="#Arial-BoldMT-6d" x="188.916016"/>
      <use xlink:href="#Arial-BoldMT-69" x="277.832031"/>
      <use xlink:href="#Arial-BoldMT-63" x="305.615234"/>
      <use xlink:href="#Arial-BoldMT-61" x="361.230469"/>
      <use xlink:href="#Arial-BoldMT-6c" x="416.845703"/>
      <use xlink:href="#Arial-BoldMT-20" x="444.628906"/>
      <use xlink:href="#Arial-BoldMT-53" x="472.412109"/>
      <use xlink:href="#Arial-BoldMT-68" x="539.111328"/>
      <use xlink:href="#Arial-BoldMT-69" x="600.195312"/>
      <use xlink:href="#Arial-BoldMT-66" x="627.978516"/>
      <use xlink:href="#Arial-BoldMT-74" x="661.279297"/>
      <use xlink:href="#Arial-BoldMT-20" x="694.580078"/>
      <use xlink:href="#Arial-BoldMT-2f" x="722.363281"/>
      <use xlink:href="#Arial-BoldMT-20" x="750.146484"/>
      <use xlink:href="#Arial-BoldMT-70" x="777.929688"/>
      <use xlink:href="#Arial-BoldMT-70" x="839.013672"/>
      <use xlink:href="#Arial-BoldMT-6d" x="900.097656"/>
     </g>
    </g>
   </g>
   <g id="matplotlib.axis_2"/>
   <g id="line2d_12">
    <path d="M 3.013076 192.803259 
L 4.036175 190.952209 
L 4.854654 190.388311 
L 5.673133 189.127176 
L 6.082372 188.967008 
L 6.491612 188.885047 
L 7.31009 188.469746 
L 7.71933 189.097655 
L 8.333189 190.045061 
L 9.970147 190.925749 
L 10.379386 190.952359 
L 10.584006 190.868778 
L 10.993246 190.325113 
L 11.402485 189.787005 
L 13.039443 188.964797 
L 13.448682 189.1849 
L 14.062541 189.456417 
L 15.49488 189.643267 
L 15.904119 189.427069 
L 16.313358 189.210148 
L 16.517978 189.288545 
L 16.927218 189.83449 
L 17.541077 190.856511 
L 17.745697 191.024993 
L 17.950316 191.018942 
L 18.359556 190.569967 
L 18.973415 189.656157 
L 19.178035 189.6877 
L 19.791894 190.164367 
L 20.405753 190.144248 
L 21.633471 190.026987 
L 22.247331 189.798606 
L 22.86119 189.254112 
L 23.270429 189.216523 
L 23.679669 189.657036 
L 24.088908 190.038152 
L 24.293528 189.966443 
L 24.702767 189.243787 
L 25.316626 187.946625 
L 25.930486 187.071299 
L 26.135105 187.00859 
L 26.339725 187.142238 
L 27.772063 188.933621 
L 28.385922 189.459 
L 28.590542 189.520317 
L 28.795162 189.462878 
L 29.204401 189.01924 
L 29.613641 188.583803 
L 30.02288 188.514111 
L 31.250598 189.041835 
L 32.069077 189.635749 
L 32.682937 189.409949 
L 33.092176 189.387968 
L 33.501415 189.750747 
L 35.138373 191.857861 
L 35.342993 191.88469 
L 35.752232 191.426856 
L 36.775331 190.24884 
L 36.979951 190.075792 
L 37.38919 190.134848 
L 37.79843 190.195032 
L 38.616909 190.018082 
L 39.230768 190.426195 
L 39.844627 190.887484 
L 40.458486 190.931076 
L 40.663106 190.826185 
L 41.072345 190.224229 
L 41.686205 189.093098 
L 42.300064 188.504133 
L 42.709303 188.375088 
L 42.913923 188.529913 
L 43.323162 189.581951 
L 43.937022 191.349859 
L 44.141641 191.535415 
L 44.346261 191.525409 
L 44.96012 191.023546 
L 45.36936 190.76044 
L 45.778599 190.850816 
L 46.801698 191.326307 
L 47.415557 191.25568 
L 47.824796 190.896493 
L 48.234036 190.4681 
L 48.643275 190.455458 
L 49.257134 190.502702 
L 49.666374 190.418939 
L 49.870994 190.273191 
L 50.894092 188.836449 
L 51.712571 189.003126 
L 52.121811 189.110747 
L 52.53105 188.896225 
L 52.94029 188.45403 
L 53.758768 186.66989 
L 54.781867 184.88384 
L 55.395726 184.027045 
L 55.804966 183.647353 
L 56.009585 183.617461 
L 56.214205 183.854046 
L 56.623445 185.048868 
L 57.237304 186.859681 
L 57.646543 187.543006 
L 58.669642 188.619141 
L 58.874262 188.711753 
L 59.078881 188.679174 
L 59.488121 188.149379 
L 59.89736 187.537927 
L 60.10198 187.511277 
L 60.511219 187.987696 
L 61.329698 189.580103 
L 61.738938 190.408605 
L 61.943558 190.627837 
L 62.148177 190.664588 
L 62.762036 190.461809 
L 63.375896 190.661048 
L 63.785135 190.525264 
L 64.194375 190.392752 
L 65.012853 190.786154 
L 65.422093 191.246713 
L 65.831332 191.752574 
L 66.035952 191.626866 
L 66.445191 190.531111 
L 67.059051 188.587418 
L 67.26367 188.242817 
L 67.46829 188.137562 
L 67.87753 188.392668 
L 68.696008 188.996352 
L 68.900628 188.994198 
L 69.309868 188.548515 
L 69.719107 187.999831 
L 69.923727 188.017461 
L 70.332966 188.807982 
L 70.946825 190.005016 
L 71.356065 190.352908 
L 71.560685 190.361891 
L 71.969924 190.051927 
L 72.788403 188.994303 
L 73.197642 188.98838 
L 73.606882 188.954022 
L 74.220741 188.586553 
L 75.448459 188.577574 
L 75.857699 188.978978 
L 76.471558 190.032852 
L 76.676178 190.091689 
L 76.880798 189.856708 
L 77.903896 187.695316 
L 78.517755 187.633235 
L 80.359333 187.678591 
L 81.587051 187.391946 
L 81.996291 187.80457 
L 82.61015 188.591874 
L 83.224009 189.168793 
L 84.042488 190.386778 
L 84.451727 190.336565 
L 85.474826 189.607078 
L 86.907164 189.162185 
L 87.930263 189.877884 
L 88.748742 189.675666 
L 89.157981 189.858987 
L 90.18108 190.54335 
L 90.3857 190.558393 
L 90.999559 190.131367 
L 91.818038 189.481881 
L 92.227277 189.586898 
L 92.636517 189.825076 
L 93.045756 189.728268 
L 93.454995 189.65377 
L 93.864235 189.611428 
L 94.273474 189.215827 
L 94.682714 188.756308 
L 94.887334 188.66663 
L 95.091953 188.765435 
L 95.910432 189.848389 
L 96.319672 189.739264 
L 96.933531 189.55665 
L 97.34277 189.577593 
L 98.570489 190.043049 
L 99.184348 190.103849 
L 99.798207 190.130075 
L 100.207446 190.38182 
L 101.025925 191.308407 
L 101.435165 191.42546 
L 101.844404 191.349028 
L 102.253644 191.054787 
L 103.276742 189.574038 
L 103.481362 189.554326 
L 103.685982 189.686487 
L 104.504461 190.699037 
L 105.11832 191.068141 
L 105.527559 191.379949 
L 105.936799 191.389358 
L 106.959897 191.281273 
L 107.369137 190.829284 
L 108.596855 188.555984 
L 109.210714 188.183071 
L 109.824574 187.597587 
L 110.029193 187.523055 
L 110.233813 187.575619 
L 110.438433 187.829605 
L 111.666151 190.29326 
L 112.48463 191.4813 
L 112.893869 191.649735 
L 113.303109 191.399286 
L 114.121588 190.435111 
L 114.940067 190.357105 
L 115.963165 189.656374 
L 116.372405 189.582028 
L 116.781644 189.740786 
L 117.190884 190.193324 
L 117.804743 191.124506 
L 118.213982 191.266231 
L 118.827842 191.02819 
L 119.441701 190.782849 
L 120.26018 190.71662 
L 121.283278 189.933889 
L 122.101757 189.863223 
L 122.510997 189.275894 
L 123.329476 187.915537 
L 123.534095 187.808213 
L 123.738715 187.927866 
L 124.147954 188.70516 
L 124.966433 190.592458 
L 125.171053 190.753406 
L 125.375673 190.688666 
L 126.808011 189.277932 
L 127.21725 189.172341 
L 127.62649 188.585713 
L 128.035729 187.976555 
L 128.444969 187.731469 
L 128.854208 187.812197 
L 129.468067 188.123718 
L 129.877307 188.178234 
L 130.286546 188.442663 
L 130.900405 189.217647 
L 131.105025 189.236015 
L 131.514265 188.680753 
L 131.923504 188.306865 
L 132.741983 188.530953 
L 133.560462 187.98357 
L 133.969701 187.996701 
L 134.378941 187.657272 
L 135.19742 186.421598 
L 135.606659 186.188494 
L 135.811279 186.219337 
L 136.220518 186.673086 
L 136.834378 187.604039 
L 137.652856 188.343967 
L 138.266716 188.646581 
L 138.675955 189.390677 
L 139.289814 190.659422 
L 139.699054 191.165929 
L 140.108293 191.301686 
L 140.517533 191.020644 
L 141.745251 189.75951 
L 142.35911 189.338667 
L 142.56373 189.359474 
L 142.972969 189.838461 
L 143.382209 190.170572 
L 143.791448 189.89954 
L 144.200688 189.552826 
L 144.609927 189.516123 
L 145.019167 189.76456 
L 145.633026 190.241803 
L 146.656124 190.281116 
L 147.065364 190.125749 
L 147.474603 189.878532 
L 147.679223 189.873513 
L 147.883843 190.015483 
L 148.293082 190.84695 
L 148.702322 191.858939 
L 149.111561 192.330022 
L 149.93004 192.597819 
L 150.339279 192.54371 
L 150.748519 191.911859 
L 151.566998 189.99594 
L 151.976237 189.456268 
L 152.385477 189.30736 
L 152.794716 189.50204 
L 154.227054 190.570508 
L 155.045533 190.578979 
L 156.477871 191.58158 
L 156.682491 191.604612 
L 157.09173 191.270402 
L 158.319449 189.788845 
L 158.933308 189.247947 
L 159.342547 189.237115 
L 160.161026 189.373856 
L 160.774886 189.326808 
L 161.184125 189.629566 
L 161.593364 189.947237 
L 161.797984 189.934502 
L 162.616463 189.194197 
L 162.821083 189.417845 
L 163.434942 190.616742 
L 163.844181 190.82735 
L 164.048801 190.709962 
L 165.0719 189.594746 
L 165.890379 189.432497 
L 166.299618 189.874084 
L 166.708858 190.437656 
L 166.913477 190.48922 
L 167.322717 190.135656 
L 167.936576 189.635682 
L 168.755055 189.084955 
L 169.164294 189.241739 
L 169.573534 189.619173 
L 169.778154 189.613071 
L 169.982773 189.326269 
L 170.596632 187.820946 
L 170.801252 187.598991 
L 171.005872 187.58445 
L 171.415111 187.883231 
L 172.028971 188.393074 
L 172.23359 188.386543 
L 172.43821 188.202915 
L 173.461309 186.663789 
L 174.279788 186.900983 
L 174.689027 187.259715 
L 175.302886 187.840816 
L 176.121365 188.271307 
L 176.939844 189.008827 
L 177.144464 188.871929 
L 178.576802 186.789556 
L 179.395281 185.156357 
L 180.21376 184.183202 
L 181.850717 180.199451 
L 183.692295 175.999918 
L 184.101534 175.563757 
L 184.306154 175.410095 
L 184.510774 175.096153 
L 184.920013 173.918457 
L 185.533872 172.129867 
L 186.147732 170.854754 
L 186.556971 169.506133 
L 186.966211 167.535157 
L 187.37545 164.68868 
L 187.784689 160.628239 
L 188.398549 151.674439 
L 189.012408 138.563429 
L 189.626267 120.712167 
L 190.240126 95.010746 
L 191.058605 45.3767 
L 191.672464 10.446514 
L 191.877084 4.442958 
L 192.081704 3.00024 
L 192.286323 6.391273 
L 192.695563 25.365531 
L 194.127901 114.186177 
L 194.74176 135.399384 
L 195.355619 149.348875 
L 195.969479 158.900538 
L 196.787957 167.880846 
L 197.811056 175.956165 
L 198.424915 179.33612 
L 198.834155 180.745344 
L 199.243394 181.438148 
L 199.652634 181.627176 
L 200.471113 181.804393 
L 201.084972 181.494589 
L 201.494211 181.048444 
L 202.31269 179.687076 
L 202.51731 179.587353 
L 203.131169 179.661583 
L 203.540408 179.347078 
L 203.949648 178.707536 
L 205.381986 175.687053 
L 205.791225 174.740684 
L 205.995845 174.517299 
L 206.405085 174.562779 
L 207.018944 174.671279 
L 208.042042 174.761263 
L 208.655902 174.609047 
L 209.474381 174.947225 
L 210.08824 175.178594 
L 210.292859 175.077582 
L 210.497479 174.74786 
L 210.906719 173.350305 
L 212.134437 167.516161 
L 212.748296 163.829527 
L 213.362155 160.516937 
L 213.976015 158.742073 
L 214.794493 157.062668 
L 215.203733 156.135695 
L 215.612972 154.491834 
L 216.431451 150.027762 
L 217.45455 144.074382 
L 217.863789 143.03171 
L 218.068409 142.972764 
L 218.273029 143.213983 
L 218.682268 144.407576 
L 219.296127 147.374188 
L 219.705367 149.265958 
L 219.909987 149.743134 
L 220.114606 149.884949 
L 220.319226 149.795973 
L 220.728465 149.183064 
L 221.137705 147.879027 
L 221.546944 145.705716 
L 221.956184 142.463557 
L 223.388522 129.231744 
L 223.593142 129.121344 
L 223.797761 129.694208 
L 224.207001 132.497803 
L 225.639339 145.654965 
L 226.048578 146.993748 
L 226.253198 147.185953 
L 226.457818 147.142764 
L 226.867057 146.572223 
L 227.276297 145.088944 
L 227.685536 141.998564 
L 228.299395 134.344328 
L 229.322494 120.52433 
L 229.731733 117.474126 
L 230.140973 115.895286 
L 230.754832 114.021241 
L 231.368691 111.134996 
L 231.98255 106.908821 
L 232.59641 100.534198 
L 233.414889 88.481449 
L 234.028748 80.727896 
L 234.437987 78.589297 
L 234.642607 78.523172 
L 234.847227 79.214411 
L 235.051846 80.748475 
L 235.461086 86.445971 
L 236.074945 100.238424 
L 237.507283 135.935527 
L 238.325762 151.112144 
L 238.735001 155.849466 
L 239.348861 159.869986 
L 240.16734 163.733227 
L 240.576579 164.87926 
L 240.781199 165.142641 
L 240.985818 165.201267 
L 241.190438 165.088256 
L 241.599678 164.358513 
L 242.008917 162.810059 
L 242.622776 158.849283 
L 243.645875 151.721177 
L 244.055114 150.020344 
L 244.259734 149.542786 
L 244.464354 149.406015 
L 244.668974 149.691487 
L 245.078213 151.55391 
L 246.101312 159.165486 
L 248.147509 175.470793 
L 248.761368 178.597696 
L 249.170608 179.733456 
L 249.579847 180.315674 
L 249.989086 180.405384 
L 250.398326 180.316748 
L 251.216805 180.642679 
L 251.626044 180.705506 
L 251.830664 180.964278 
L 252.444523 182.518287 
L 253.058382 183.904073 
L 254.49072 185.791912 
L 254.89996 185.855683 
L 255.309199 185.853675 
L 255.718439 186.290227 
L 256.536918 187.510602 
L 256.741537 187.556209 
L 256.946157 187.441064 
L 257.355397 186.818816 
L 257.969256 185.793881 
L 258.787735 184.9494 
L 259.196974 184.547187 
L 259.810833 184.267162 
L 260.424692 183.698529 
L 261.038552 183.558737 
L 261.447791 183.650913 
L 262.26627 184.172177 
L 263.493988 184.167269 
L 264.312467 184.645219 
L 264.517087 184.632375 
L 264.926326 184.175399 
L 265.540186 183.185481 
L 265.949425 182.90185 
L 266.358665 182.702588 
L 266.767904 182.148267 
L 268.200242 179.315853 
L 268.814101 177.274788 
L 269.8372 175.13511 
L 270.451059 172.796909 
L 272.292637 164.536161 
L 272.906496 162.502865 
L 274.543454 154.72177 
L 275.157313 150.221734 
L 275.771172 143.349037 
L 276.385031 133.96993 
L 276.99889 120.340642 
L 278.226609 83.639036 
L 279.658947 44.813511 
L 280.068186 36.774561 
L 280.477426 32.63568 
L 280.682045 32.264386 
L 280.886665 33.112752 
L 281.295905 38.350835 
L 283.137482 72.231954 
L 283.342102 73.326221 
L 283.546722 73.475673 
L 283.751341 72.629145 
L 284.160581 68.21474 
L 284.77444 56.985635 
L 285.183679 49.72028 
L 285.592919 46.149789 
L 285.797539 46.142504 
L 286.002158 47.22891 
L 286.411398 52.107088 
L 286.820637 60.104048 
L 287.434496 76.883878 
L 289.480694 139.157624 
L 290.094553 149.848317 
L 291.322271 165.464374 
L 291.731511 168.830102 
L 292.14075 170.624648 
L 292.54999 171.268301 
L 292.959229 171.859021 
L 293.777708 173.66428 
L 294.186947 174.512203 
L 295.210046 177.773685 
L 296.233145 179.333757 
L 296.847004 181.216185 
L 297.256243 182.111687 
L 297.460863 182.260037 
L 297.665483 182.260416 
L 298.074722 181.896469 
L 298.483962 181.39262 
L 298.688581 181.330006 
L 298.893201 181.471159 
L 300.939398 184.222208 
L 301.348638 184.292858 
L 301.757877 184.210303 
L 302.167117 183.738928 
L 302.780976 182.759118 
L 303.190215 182.529667 
L 303.599455 182.521173 
L 304.622553 183.102755 
L 305.236413 183.172033 
L 306.054892 183.54226 
L 306.464131 183.681412 
L 306.668751 183.629821 
L 306.87337 183.45588 
L 307.28261 182.641888 
L 308.305709 179.878209 
L 308.510328 179.740188 
L 309.533427 179.803969 
L 310.147286 179.142076 
L 310.556526 179.120529 
L 311.784244 179.691025 
L 312.193483 179.973082 
L 312.398103 179.914528 
L 313.011962 179.44662 
L 313.625821 179.402269 
L 313.830441 179.182057 
L 314.239681 178.271631 
L 315.262779 175.584397 
L 315.672019 174.617813 
L 316.695117 171.121829 
L 317.513596 167.235758 
L 318.127455 163.805939 
L 318.741315 158.902401 
L 319.355174 151.423535 
L 319.969033 140.803208 
L 320.582892 126.576431 
L 321.196751 104.706777 
L 322.21985 53.806313 
L 322.833709 28.21879 
L 323.038329 24.900681 
L 323.242949 25.49098 
L 323.447568 30.007895 
L 323.856808 47.974768 
L 325.084526 111.033271 
L 325.698385 130.895274 
L 326.516864 148.366955 
L 327.130723 157.981784 
L 327.744583 164.409291 
L 328.767681 172.268929 
L 329.176921 173.941209 
L 329.38154 174.273944 
L 330.404639 174.94951 
L 331.223118 176.03841 
L 331.427738 176.051169 
L 331.836977 175.718456 
L 332.450836 174.911908 
L 333.064696 174.076057 
L 333.473935 173.718946 
L 333.883174 172.944826 
L 334.292414 171.595101 
L 334.906273 168.338399 
L 336.338611 158.436354 
L 336.95247 152.103612 
L 337.566329 143.786159 
L 338.180189 132.065076 
L 338.998668 111.136858 
L 340.226386 77.152359 
L 340.635625 72.522618 
L 340.840245 72.294893 
L 341.044865 73.452693 
L 341.454104 79.320797 
L 343.909541 128.024031 
L 344.5234 135.118614 
L 344.93264 137.948659 
L 345.341879 139.342744 
L 345.751119 140.087577 
L 345.955738 140.234389 
L 346.160358 140.153163 
L 346.364978 139.795287 
L 346.774217 138.177646 
L 347.183457 135.514583 
L 347.592696 131.528475 
L 348.206555 122.422774 
L 349.025034 106.521622 
L 349.843513 86.420451 
L 351.071231 52.640853 
L 351.480471 47.369954 
L 351.685091 47.05289 
L 351.88971 48.435212 
L 352.29895 55.94796 
L 352.912809 75.93753 
L 354.140527 118.600786 
L 354.959006 137.014264 
L 355.777485 149.185152 
L 356.800584 161.472375 
L 357.619063 169.072873 
L 358.232922 173.285268 
L 358.846781 176.031448 
L 360.279119 181.21526 
L 361.506838 184.481096 
L 362.734556 185.523122 
L 363.143795 185.603661 
L 363.757655 185.452875 
L 364.166894 185.821307 
L 364.985373 186.867463 
L 365.189993 186.88314 
L 366.213091 186.385345 
L 366.622331 186.424662 
L 367.645429 186.889673 
L 368.054669 187.289198 
L 368.463908 187.385482 
L 368.873148 187.024622 
L 369.691627 185.738463 
L 369.896246 185.715193 
L 370.305486 186.100298 
L 372.351683 188.782959 
L 372.760923 189.154755 
L 373.374782 189.88128 
L 373.579401 189.938609 
L 373.988641 189.680181 
L 374.80712 188.964811 
L 375.216359 188.706946 
L 375.420979 188.742337 
L 376.239458 189.336861 
L 376.444078 189.291213 
L 378.899514 187.388638 
L 379.308754 187.539575 
L 379.717993 187.721089 
L 380.331852 187.817564 
L 380.945712 188.647443 
L 381.96881 190.103336 
L 382.17343 190.075452 
L 382.582669 189.352886 
L 382.991909 188.626576 
L 383.196529 188.539139 
L 383.401148 188.652611 
L 383.810388 189.296953 
L 384.424247 190.205052 
L 384.833486 190.452797 
L 385.038106 190.420639 
L 385.242726 190.183715 
L 385.651965 189.015067 
L 386.061205 187.761623 
L 386.470444 187.158623 
L 387.084303 186.638612 
L 387.288923 186.585576 
L 387.698163 186.875127 
L 388.516641 188.09942 
L 389.130501 189.213421 
L 389.94898 190.018251 
L 390.562839 190.866429 
L 391.176698 191.140119 
L 391.381318 191.06697 
L 391.585937 190.80495 
L 392.404416 188.91526 
L 392.609036 189.028225 
L 393.222895 190.389296 
L 393.427515 190.517093 
L 393.836754 190.258229 
L 395.269092 188.877291 
L 396.087571 188.809763 
L 396.496811 188.371407 
L 397.31529 187.052162 
L 397.724529 186.957155 
L 398.133769 187.299696 
L 399.156867 189.044747 
L 399.770726 190.007539 
L 399.975346 190.07581 
L 400.179966 189.917327 
L 400.589205 189.131759 
L 401.407684 187.398556 
L 401.612304 187.239959 
L 401.816924 187.285273 
L 402.226163 187.958 
L 402.840022 189.239054 
L 403.249262 189.666062 
L 403.658501 189.676514 
L 404.067741 189.54065 
L 404.88622 189.506744 
L 405.704699 189.258691 
L 406.318558 189.399908 
L 406.932417 189.09019 
L 408.160135 188.347184 
L 408.569375 188.144099 
L 409.183234 187.785101 
L 409.592473 187.989802 
L 410.615572 189.228353 
L 410.820192 189.123299 
L 411.638671 188.13546 
L 412.04791 188.431005 
L 412.661769 188.931054 
L 413.480248 189.427456 
L 413.684868 189.400059 
L 414.094107 188.852937 
L 414.503347 188.240844 
L 414.707966 188.161163 
L 414.912586 188.280569 
L 415.935685 189.651766 
L 416.140305 189.615577 
L 416.549544 189.098628 
L 417.368023 187.750482 
L 417.777262 187.674965 
L 418.391122 187.933239 
L 418.595741 187.832618 
L 418.800361 187.520074 
L 419.82346 184.884899 
L 420.232699 184.612398 
L 421.051178 184.421675 
L 421.869657 183.906059 
L 422.278896 183.376277 
L 423.097375 181.841756 
L 423.915854 180.256469 
L 424.734333 177.172233 
L 425.348192 174.01245 
L 426.78053 164.8849 
L 428.008249 154.619518 
L 428.417488 149.59101 
L 429.031347 138.627526 
L 429.849826 119.292216 
L 430.463685 100.346488 
L 431.896024 49.788575 
L 432.305263 44.570072 
L 432.509883 44.896932 
L 432.714502 47.11136 
L 433.123742 56.028697 
L 435.374559 119.521668 
L 436.193038 133.077027 
L 436.806897 139.154442 
L 437.420756 142.227293 
L 437.829996 143.560848 
L 438.034615 143.880155 
L 438.239235 143.837826 
L 438.443855 143.407032 
L 438.853094 141.493713 
L 439.466953 136.740593 
L 440.080813 129.690531 
L 440.694672 120.128766 
L 441.513151 103.186068 
L 442.536249 80.751786 
L 442.945489 75.113801 
L 443.150109 73.945891 
L 443.354728 74.206679 
L 443.559348 76.019001 
L 443.968587 84.005337 
L 444.991686 114.958648 
L 445.810165 137.309476 
L 446.424024 149.587034 
L 447.037883 158.000368 
L 448.265602 170.805623 
L 448.879461 174.642023 
L 449.49332 177.368932 
L 449.90256 178.269723 
L 450.311799 178.893629 
L 451.130278 180.921443 
L 451.948757 181.563136 
L 452.562616 182.912356 
L 453.381095 184.53458 
L 453.790334 184.733846 
L 454.199574 184.679146 
L 454.404193 184.773984 
L 454.813433 185.310402 
L 456.450391 188.006016 
L 457.06425 188.030818 
L 457.882729 187.663011 
L 458.087349 187.783629 
L 458.905827 188.872607 
L 459.110447 188.690457 
L 460.133546 186.909428 
L 460.338166 187.033191 
L 460.747405 187.865643 
L 461.565884 190.08162 
L 461.770504 190.354991 
L 461.975123 190.394041 
L 462.179743 190.191862 
L 462.793602 188.848543 
L 463.202842 188.071477 
L 463.612081 187.823531 
L 464.22594 187.947624 
L 465.249039 187.690284 
L 465.862898 187.853651 
L 466.476757 187.876735 
L 467.090617 188.30581 
L 467.704476 188.969289 
L 468.113715 189.43015 
L 468.522955 189.450976 
L 469.341434 188.99613 
L 469.750673 188.608419 
L 470.773772 187.316857 
L 470.978391 187.386689 
L 471.387631 188.025282 
L 471.79687 188.685162 
L 472.615349 189.255123 
L 473.638448 191.082445 
L 473.843068 190.929502 
L 474.661546 189.416694 
L 475.070786 189.198041 
L 475.480025 189.250539 
L 475.889265 189.676887 
L 476.298504 190.128408 
L 476.912363 190.657896 
L 477.526223 191.395902 
L 477.730842 191.396442 
L 478.140082 191.008785 
L 478.549321 190.505771 
L 478.753941 190.393594 
L 478.958561 190.423406 
L 479.57242 190.811214 
L 479.77704 190.68677 
L 479.981659 190.331156 
L 480.800138 188.115122 
L 481.209378 187.852995 
L 481.618617 187.78643 
L 482.641716 187.135758 
L 483.460195 187.301212 
L 483.664814 187.548955 
L 484.074054 188.536611 
L 484.483293 189.569871 
L 484.687913 189.781266 
L 484.892533 189.755382 
L 485.711012 189.229807 
L 486.120251 189.276253 
L 486.529491 189.561109 
L 487.552589 190.752677 
L 487.961829 190.626912 
L 488.984927 190.307624 
L 489.394167 190.386573 
L 489.803406 190.546619 
L 490.212646 190.625728 
L 491.031125 191.450408 
L 491.440364 191.266709 
L 492.258843 190.525121 
L 493.895801 189.52154 
L 494.30504 189.771497 
L 495.328139 190.897376 
L 495.941998 191.539198 
L 496.146618 191.536799 
L 497.578956 190.63577 
L 498.192815 190.056565 
L 498.602054 190.053416 
L 499.011294 190.163997 
L 499.625153 190.130876 
L 500.034393 190.330407 
L 501.057491 191.270554 
L 501.466731 191.426435 
L 501.67135 191.304971 
L 502.899069 189.756 
L 503.103688 189.75931 
L 503.512928 190.24391 
L 503.922167 190.705187 
L 504.740646 191.057513 
L 505.354505 191.574619 
L 505.559125 191.505594 
L 505.763745 191.173763 
L 506.786844 188.700629 
L 507.605322 188.446247 
L 508.219182 188.131533 
L 509.037661 188.264324 
L 509.856139 188.53296 
L 510.060759 188.689295 
L 510.469999 189.471981 
L 511.083858 190.695066 
L 511.697717 191.579744 
L 511.902337 191.722507 
L 512.106956 191.720925 
L 512.311576 191.559101 
L 512.720816 190.782625 
L 513.539295 188.598035 
L 513.743914 188.38934 
L 514.153154 188.407179 
L 514.562393 188.725789 
L 515.176252 189.42691 
L 515.380872 189.444061 
L 515.585492 189.293276 
L 516.403971 188.050018 
L 516.60859 187.994358 
L 516.81321 188.086928 
L 517.01783 188.372428 
L 517.836309 190.25467 
L 518.040929 190.219219 
L 518.654788 189.607196 
L 519.064027 189.608907 
L 519.677886 189.621498 
L 520.700985 189.157579 
L 521.724084 188.202497 
L 522.133323 188.376538 
L 522.542563 188.723057 
L 523.361041 189.783886 
L 523.565661 189.703804 
L 523.974901 189.060458 
L 524.38414 188.42128 
L 524.58876 188.439697 
L 524.79338 188.766995 
L 525.202619 190.124912 
L 525.816478 192.162076 
L 526.021098 192.381724 
L 526.225718 192.355493 
L 526.634957 191.907026 
L 527.044197 191.440037 
L 527.453436 191.316188 
L 528.067295 191.310489 
L 528.681154 191.249538 
L 529.295013 191.332924 
L 530.318112 191.678853 
L 530.727352 191.564265 
L 531.95507 190.792106 
L 532.364309 190.630951 
L 533.387408 189.830364 
L 534.001267 189.697368 
L 534.410507 189.507389 
L 534.615126 189.544218 
L 535.024366 189.965774 
L 535.433605 190.381824 
L 535.638225 190.444904 
L 535.842845 190.382395 
L 536.252084 189.936042 
L 537.070563 188.668069 
L 537.684422 188.318066 
L 538.093662 187.993511 
L 538.502901 187.609696 
L 538.707521 187.693254 
L 539.11676 188.453515 
L 539.73062 189.673718 
L 540.139859 189.851174 
L 540.753718 189.83935 
L 542.390676 190.348492 
L 542.799915 190.538287 
L 543.209155 190.118583 
L 543.618394 189.644594 
L 544.846113 189.117192 
L 545.255352 188.911128 
L 545.869211 188.375153 
L 546.483071 188.285882 
L 547.301549 188.299897 
L 547.710789 188.617302 
L 548.120028 188.947844 
L 548.733888 188.995808 
L 549.143127 188.728782 
L 549.552366 188.455598 
L 549.961606 188.723809 
L 550.575465 189.273346 
L 550.984705 189.321534 
L 551.598564 189.263633 
L 552.212423 189.438104 
L 552.621662 189.743449 
L 552.826282 189.726497 
L 553.440141 189.255834 
L 553.644761 189.330293 
L 554.25862 190.089509 
L 554.66786 190.594446 
L 555.077099 190.795529 
L 555.895578 191.050961 
L 556.509437 191.122804 
L 556.918677 190.965159 
L 557.327916 190.112539 
L 557.941775 188.632546 
L 558.146395 188.529977 
L 558.760254 188.774317 
L 559.169494 188.379525 
L 559.374113 188.135976 
L 559.578733 188.065984 
L 559.783353 188.24802 
L 560.806451 189.925431 
L 561.215691 190.129188 
L 562.443409 189.465831 
L 563.057268 189.394412 
L 563.466508 188.992583 
L 563.875747 188.531933 
L 565.103466 187.806875 
L 566.535804 188.016576 
L 566.945043 187.832014 
L 567.763522 186.973185 
L 567.968142 187.076786 
L 569.40048 188.887332 
L 570.628198 189.170668 
L 571.446677 188.681175 
L 572.265156 188.116357 
L 572.674396 188.126884 
L 573.902114 188.734665 
L 574.311353 189.228644 
L 575.334452 190.828248 
L 576.152931 191.866253 
L 576.56217 192.119033 
L 576.97141 192.090568 
L 578.199128 190.851973 
L 579.222227 189.395981 
L 580.040706 189.086846 
L 580.449945 189.114929 
L 580.859185 188.86874 
L 581.268424 188.675611 
L 581.677664 188.956688 
L 582.086903 189.186653 
L 582.496142 188.905422 
L 583.314621 187.985556 
L 583.723861 187.973554 
L 584.54234 188.538858 
L 584.951579 188.468715 
L 585.565438 188.110589 
L 585.974678 187.573693 
L 586.588537 186.607458 
L 586.793157 186.508186 
L 586.997776 186.620168 
L 587.407016 187.411957 
L 588.020875 188.72059 
L 588.430115 189.004768 
L 589.248593 189.055886 
L 589.657833 189.352564 
L 590.067072 189.188235 
L 590.271692 189.088906 
L 590.680932 189.238324 
L 591.49941 189.679033 
L 591.90865 189.661421 
L 592.931749 189.29481 
L 593.954847 190.146242 
L 594.568706 190.212972 
L 594.977946 190.353047 
L 595.182566 190.279064 
L 595.796425 189.47732 
L 596.410284 188.581348 
L 596.614904 188.500667 
L 596.819523 188.724999 
L 597.228763 189.953666 
L 597.842622 191.9822 
L 598.047242 192.245363 
L 598.251861 192.211732 
L 598.661101 191.549792 
L 599.27496 190.343585 
L 599.6842 190.080679 
L 600.707298 189.823624 
L 601.730397 189.41909 
L 602.139636 189.534922 
L 602.548876 189.746421 
L 602.958115 190.261561 
L 603.367355 190.822441 
L 603.571974 190.913398 
L 604.185834 190.677011 
L 604.595073 191.093874 
L 605.004312 191.453721 
L 605.208932 191.427853 
L 605.618172 191.080577 
L 606.232031 190.559255 
L 607.664369 189.873367 
L 608.073608 189.30032 
L 608.482848 188.642333 
L 608.687467 188.485061 
L 608.892087 188.574062 
L 609.301327 189.402798 
L 609.915186 190.653214 
L 610.529045 191.19513 
L 610.938284 191.1014 
L 611.142904 191.015206 
L 611.347524 191.052096 
L 611.756763 191.564286 
L 612.166003 192.053586 
L 612.370623 192.098347 
L 612.575242 191.991673 
L 612.984482 191.375375 
L 613.802961 189.646177 
L 614.00758 189.474873 
L 614.2122 189.496583 
L 614.62144 189.972482 
L 615.644538 191.533711 
L 615.849158 191.671278 
L 616.053778 191.661208 
L 616.667637 191.246567 
L 617.076876 191.357874 
L 617.486116 191.675755 
L 617.895355 192.234828 
L 618.713834 193.662715 
L 618.918454 193.631698 
L 619.123074 193.341528 
L 619.532313 192.186123 
L 620.350792 189.418176 
L 620.555412 189.217261 
L 620.760031 189.332344 
L 621.78313 191.006137 
L 622.192369 191.247779 
L 622.601609 191.198368 
L 623.010848 190.69189 
L 623.624708 189.774486 
L 623.829327 189.667451 
L 624.238567 189.822612 
L 624.647806 190.094238 
L 625.057046 190.111036 
L 626.080144 189.689769 
L 626.489384 189.413421 
L 626.694003 189.415401 
L 627.103243 189.768305 
L 627.717102 190.3224 
L 627.921722 190.361757 
L 628.740201 190.118102 
L 629.35406 190.422895 
L 629.763299 190.124245 
L 630.172539 189.788216 
L 631.809497 189.719497 
L 632.218736 189.870757 
L 632.832595 190.182768 
L 633.241835 189.923347 
L 634.264933 188.760553 
L 635.901891 188.669527 
L 636.72037 188.140152 
L 637.12961 188.555157 
L 637.948088 189.524444 
L 638.152708 189.585196 
L 638.357328 189.415184 
L 639.380427 187.846198 
L 639.994286 187.692177 
L 641.017384 187.635281 
L 641.426624 187.434023 
L 641.631244 187.489843 
L 642.449722 188.269892 
L 643.472821 188.281624 
L 644.08668 188.914135 
L 645.928258 191.515205 
L 646.132877 191.344527 
L 647.565216 189.06988 
L 648.179075 188.568564 
L 649.406793 187.994616 
L 649.816033 188.354113 
L 650.225272 188.78424 
L 650.634511 188.820229 
L 651.248371 188.616643 
L 651.86223 188.251034 
L 652.271469 188.289767 
L 653.294568 188.693827 
L 653.908427 188.68187 
L 654.931526 189.640639 
L 655.340765 189.547852 
L 655.750005 189.386079 
L 656.159244 189.707481 
L 656.568484 190.071429 
L 657.386962 190.382296 
L 658.000822 190.471295 
L 659.02392 191.205612 
L 659.43316 190.84642 
L 661.070118 188.774692 
L 661.479357 188.723782 
L 661.888596 188.964296 
L 662.707075 189.700631 
L 663.116315 189.727927 
L 663.525554 189.635291 
L 664.344033 189.711594 
L 665.162512 189.025193 
L 665.571752 189.136994 
L 666.39023 189.514721 
L 666.79947 190.167485 
L 667.208709 190.776091 
L 667.413329 190.801035 
L 668.641047 189.682544 
L 669.459526 188.541078 
L 669.664146 188.445763 
L 669.868766 188.533948 
L 670.687245 189.742782 
L 670.891864 189.752004 
L 671.301104 189.333145 
L 671.710343 189.025815 
L 672.528822 189.302876 
L 672.938062 189.30603 
L 673.756541 189.655573 
L 674.57502 189.7568 
L 676.211977 189.182262 
L 676.416597 189.335346 
L 677.235076 190.793981 
L 677.439696 190.893348 
L 677.644315 190.858043 
L 678.053555 190.418019 
L 678.667414 189.188946 
L 679.076654 188.462087 
L 679.485893 188.223628 
L 679.895132 188.35123 
L 680.508992 188.755163 
L 681.327471 188.81372 
L 681.94133 188.934108 
L 682.964428 188.767665 
L 683.373668 188.946399 
L 683.987527 189.687804 
L 684.601386 190.53546 
L 685.010626 190.712657 
L 685.829104 190.786915 
L 686.238344 190.732366 
L 686.442964 190.541186 
L 687.466062 188.718764 
L 687.875302 188.702194 
L 688.489161 188.959945 
L 689.716879 189.855625 
L 690.126119 189.649886 
L 690.535358 189.525499 
L 691.353837 190.01131 
L 691.967696 189.915252 
L 692.376936 190.345826 
L 692.786175 190.965936 
L 692.990795 191.104543 
L 693.195415 191.055467 
L 694.218513 189.959171 
L 694.627753 190.053028 
L 695.650851 190.706122 
L 696.060091 190.66199 
L 696.87857 190.514314 
L 697.901668 190.305831 
L 698.515528 190.997078 
L 698.720147 190.922659 
L 699.129387 190.393352 
L 700.152485 188.747219 
L 700.970964 188.479895 
L 701.380204 188.460009 
L 702.403302 188.895308 
L 703.017162 189.311176 
L 704.24488 190.31694 
L 704.654119 189.830681 
L 705.063359 189.285089 
L 705.472598 189.065107 
L 706.086457 188.868109 
L 706.700317 188.418677 
L 707.109556 188.126896 
L 707.518796 188.23095 
L 708.541894 189.054506 
L 708.951134 188.890306 
L 710.178852 188.233779 
L 710.792711 188.269394 
L 711.201951 188.679596 
L 712.634289 190.74195 
L 713.043528 190.692537 
L 713.657387 190.526182 
L 714.066627 190.110297 
L 714.885106 189.008602 
L 715.089725 188.898864 
L 715.294345 188.972464 
L 716.112824 189.828473 
L 716.726683 190.054028 
L 717.135923 190.227418 
L 717.954402 190.019247 
L 718.568261 190.299884 
L 718.9775 190.146735 
L 719.591359 189.805 
L 719.795979 189.812519 
L 720.205219 190.222916 
L 720.614458 190.717305 
L 720.819078 190.748917 
L 721.228317 190.272147 
L 721.637557 189.829066 
L 722.251416 189.394859 
L 723.274514 188.622885 
L 724.092993 188.30805 
L 724.297613 188.374798 
L 724.706853 188.886296 
L 725.116092 189.390385 
L 725.320712 189.418287 
L 725.934571 188.912784 
L 726.34381 188.646045 
L 726.95767 188.622402 
L 727.366909 188.728152 
L 727.776148 189.219535 
L 728.594627 190.64575 
L 729.208487 190.980924 
L 730.026965 191.356375 
L 730.640825 191.161014 
L 731.050064 190.846057 
L 731.459304 190.193541 
L 731.868543 189.428632 
L 732.073163 189.218079 
L 732.277782 189.180494 
L 732.687022 189.552118 
L 733.096261 190.037724 
L 733.505501 190.162938 
L 733.91474 190.013645 
L 734.32398 189.354044 
L 734.937839 188.039403 
L 735.347078 187.688069 
L 735.756318 187.740054 
L 736.165557 188.162342 
L 736.779416 188.965002 
L 737.802515 189.771756 
L 738.211755 189.621469 
L 739.030233 189.800313 
L 739.439473 189.373874 
L 740.257952 188.216181 
L 740.462572 188.1214 
L 740.667191 188.193658 
L 741.48567 188.897714 
L 743.122628 189.621245 
L 743.941107 190.103879 
L 744.350346 189.975001 
L 744.964206 189.450595 
L 745.168825 189.420052 
L 745.578065 189.682557 
L 745.987304 190.023204 
L 746.396544 190.067882 
L 746.805783 189.753395 
L 747.215023 189.251346 
L 747.828882 188.388315 
L 748.442741 188.362118 
L 749.0566 188.248411 
L 750.079699 187.402206 
L 750.488938 187.49108 
L 751.921276 188.074096 
L 752.330516 188.537379 
L 752.944375 190.098302 
L 753.353614 190.809375 
L 753.558234 190.827488 
L 753.967474 190.60428 
L 754.376713 190.747512 
L 754.785952 190.920647 
L 754.990572 190.895336 
L 755.195192 190.727765 
L 756.013671 189.252033 
L 756.62753 188.300619 
L 757.650629 187.269535 
L 758.059868 187.180649 
L 758.878347 187.282413 
L 759.492206 187.65746 
L 759.901446 188.288068 
L 760.515305 190.052829 
L 760.924544 191.362774 
L 761.129164 191.684192 
L 761.333784 191.620637 
L 761.743023 190.63774 
L 762.356882 189.151179 
L 762.766122 188.665307 
L 763.175361 188.552714 
L 764.19846 188.55428 
L 764.607699 189.045106 
L 765.426178 191.053855 
L 765.630798 191.156449 
L 766.244657 190.979174 
L 766.653897 191.442134 
L 767.063136 191.866197 
L 767.881615 192.011177 
L 769.109333 192.014578 
L 769.518573 191.502648 
L 770.132432 190.665057 
L 770.746291 189.99265 
L 771.56477 188.791609 
L 771.76939 188.699415 
L 771.974009 188.734886 
L 772.383249 189.117424 
L 772.792488 189.593852 
L 773.201728 189.703679 
L 774.020207 189.237162 
L 774.429446 189.383044 
L 774.838686 189.759596 
L 775.247925 190.265463 
L 775.452545 190.361978 
L 776.271024 190.199621 
L 776.884883 190.602907 
L 777.703362 190.804542 
L 778.112601 190.604354 
L 778.93108 190.075752 
L 779.34032 190.046257 
L 779.749559 190.528304 
L 780.568038 191.936923 
L 780.772658 192.090161 
L 780.977277 192.03933 
L 781.386517 191.46072 
L 782.000376 190.436843 
L 782.818855 189.739787 
L 783.432714 189.385618 
L 784.046573 189.543287 
L 785.069672 189.740383 
L 785.478911 190.337142 
L 785.888151 191.029165 
L 786.29739 191.355555 
L 786.70663 191.453745 
L 787.115869 191.300985 
L 787.525109 190.591083 
L 788.138968 189.228873 
L 788.343588 189.076742 
L 788.752827 189.163727 
L 789.366686 189.544721 
L 790.389785 189.842204 
L 790.799024 190.55374 
L 791.412884 191.901233 
L 791.822123 192.274486 
L 792.026743 192.226579 
L 792.435982 191.747476 
L 793.663701 189.508886 
L 794.27756 188.677443 
L 794.891419 187.187212 
L 795.709898 185.17249 
L 795.914518 184.999412 
L 796.119137 185.016692 
L 796.528377 185.457974 
L 797.551475 186.999728 
L 797.960715 187.327486 
L 798.779194 187.646626 
L 799.597673 187.616027 
L 800.211532 187.628086 
L 800.620771 188.215288 
L 801.030011 188.75204 
L 801.43925 188.983698 
L 801.84849 189.543207 
L 802.257729 190.144564 
L 802.666968 190.382018 
L 803.690067 190.273474 
L 804.713166 190.596325 
L 805.122405 190.053684 
L 805.531645 189.39501 
L 805.940884 189.188724 
L 806.554743 189.162083 
L 807.168602 189.30128 
L 807.373222 189.090601 
L 808.191701 187.446013 
L 808.396321 187.429153 
L 809.2148 187.847262 
L 809.624039 188.097117 
L 810.033279 189.007687 
L 810.647138 190.585274 
L 810.851758 190.778994 
L 811.056377 190.789444 
L 811.260997 190.630805 
L 812.284096 189.270399 
L 813.921053 189.053948 
L 814.534913 188.725498 
L 814.739532 188.798896 
L 815.967251 189.980204 
L 816.37649 189.798791 
L 817.194969 189.178734 
L 818.627307 188.680474 
L 819.036547 188.620869 
L 819.445786 188.771197 
L 819.650406 188.695185 
L 820.059645 187.932077 
L 820.468885 187.151412 
L 820.878124 187.04035 
L 821.287364 186.961519 
L 821.696603 186.870122 
L 822.515082 187.161572 
L 823.538181 188.212132 
L 823.94742 188.37959 
L 824.561279 188.149172 
L 825.379758 188.87294 
L 826.198237 188.139335 
L 827.221336 188.139562 
L 827.630575 188.053006 
L 828.039815 188.334573 
L 829.062913 189.351231 
L 829.267533 189.333675 
L 830.086012 188.498338 
L 830.904491 188.499179 
L 831.31373 188.354294 
L 831.927589 188.008026 
L 832.541449 187.937196 
L 833.155308 187.467954 
L 833.564547 187.256075 
L 833.973787 187.393081 
L 834.792266 187.892462 
L 835.406125 187.681077 
L 835.610745 187.897075 
L 836.633843 189.931086 
L 836.838463 190.008067 
L 837.247702 189.788785 
L 837.656942 189.260398 
L 838.270801 188.280513 
L 838.475421 188.305051 
L 839.2939 188.911341 
L 840.521618 188.75575 
L 840.930857 188.70014 
L 841.340097 188.287802 
L 841.953956 187.457351 
L 842.363195 187.396788 
L 842.772435 187.732567 
L 843.386294 188.476564 
L 843.795534 188.583978 
L 844.204773 188.308256 
L 844.614012 187.727463 
L 845.637111 185.616993 
L 846.046351 185.41544 
L 847.069449 185.141085 
L 848.092548 184.202742 
L 848.297168 184.408317 
L 848.706407 185.364116 
L 849.524886 187.900885 
L 850.138745 188.827096 
L 850.343365 188.976539 
L 850.547985 188.927171 
L 851.571083 187.811916 
L 851.980323 188.248038 
L 852.389562 188.893434 
L 852.594182 189.039286 
L 852.798802 188.932332 
L 853.208041 188.083686 
L 853.61728 187.182308 
L 854.02652 186.854973 
L 854.435759 186.968389 
L 855.254238 187.240596 
L 856.072717 187.195361 
L 856.891196 187.542565 
L 857.914295 186.76682 
L 858.323534 186.800039 
L 859.755872 186.333829 
L 860.165112 185.823941 
L 860.778971 185.053614 
L 861.18821 185.003322 
L 861.59745 185.065595 
L 861.80207 184.983711 
L 862.211309 184.445164 
L 862.620548 183.838995 
L 862.825168 183.727258 
L 863.029788 183.811459 
L 863.439027 184.398053 
L 864.052887 185.451037 
L 864.462126 185.630108 
L 865.280605 185.295457 
L 865.894464 184.818391 
L 866.303704 184.891658 
L 867.326802 185.324787 
L 867.736042 185.257539 
L 868.554521 185.375959 
L 869.16838 184.625898 
L 869.577619 184.242831 
L 869.986859 184.243273 
L 870.805338 184.707943 
L 871.214577 184.405111 
L 871.828436 183.477519 
L 872.237676 182.939376 
L 872.442295 182.915501 
L 873.465394 183.438855 
L 874.079253 183.46703 
L 874.488493 183.267387 
L 875.306972 182.641225 
L 875.716211 182.692294 
L 876.73931 182.933328 
L 877.148549 182.656157 
L 877.762408 182.036614 
L 879.808605 180.826827 
L 880.422465 180.229073 
L 880.831704 179.839102 
L 881.240944 179.130229 
L 882.059422 177.222198 
L 882.264042 177.128201 
L 883.082521 177.412025 
L 883.491761 176.728744 
L 884.310239 174.676062 
L 885.537958 172.656821 
L 885.742578 172.621163 
L 885.947197 172.728347 
L 886.356437 173.329842 
L 886.970296 174.376075 
L 887.174916 174.484561 
L 887.584155 174.31077 
L 887.788775 174.220319 
L 887.993395 174.274847 
L 888.607254 174.691999 
L 888.811873 174.575477 
L 889.221113 173.97619 
L 890.039592 172.617785 
L 890.653451 171.915962 
L 891.47193 171.344007 
L 891.881169 170.897531 
L 892.699648 169.716421 
L 893.313507 169.485738 
L 893.927367 169.435777 
L 894.541226 168.92337 
L 894.950465 168.475612 
L 895.359705 167.496427 
L 896.178184 163.719756 
L 896.792043 161.409712 
L 898.63362 155.095785 
L 899.04286 152.457664 
L 899.656719 146.391142 
L 900.679818 133.928354 
L 900.884437 134.381771 
L 901.293677 138.428095 
L 901.907536 144.789354 
L 902.316775 147.383735 
L 902.930635 149.334357 
L 903.749114 152.014316 
L 903.953733 152.281993 
L 904.158353 152.291032 
L 904.772212 151.879271 
L 905.181452 152.145449 
L 905.590691 152.369086 
L 906.20455 152.314457 
L 907.227649 152.038231 
L 907.636888 151.832122 
L 909.069226 150.363948 
L 909.478466 150.17011 
L 909.887705 149.628469 
L 910.706184 147.632192 
L 910.910804 147.464448 
L 911.115424 147.525234 
L 911.524663 148.233448 
L 912.343142 150.25701 
L 913.366241 151.682677 
L 913.77548 151.865262 
L 914.18472 151.710067 
L 915.003198 151.005275 
L 915.207818 151.208517 
L 915.617058 152.319896 
L 916.640156 156.230083 
L 916.844776 156.463948 
L 917.458635 156.525129 
L 917.663255 156.92099 
L 918.072494 158.822892 
L 918.686354 163.31891 
L 919.709452 171.994608 
L 919.914072 171.703152 
L 920.118692 168.066296 
L 920.323311 159.012277 
L 921.14179 101.848188 
L 921.34641 102.195564 
L 921.755649 116.093232 
L 922.369509 137.600899 
L 922.778748 146.351607 
L 923.392607 153.933835 
L 923.801847 156.835032 
L 924.211086 158.495338 
L 925.029565 160.503649 
L 925.643424 161.625863 
L 926.461903 162.515086 
L 927.075762 163.40952 
L 928.098861 164.510987 
L 928.71272 164.767078 
L 929.531199 165.546805 
L 929.940439 165.444623 
L 930.554298 165.035523 
L 930.963537 164.695286 
L 931.372777 164.049277 
L 932.191256 162.641707 
L 932.395875 162.478713 
L 932.600495 162.458649 
L 933.009734 162.831718 
L 933.214354 163.028763 
L 933.418974 163.056615 
L 933.828213 162.623692 
L 934.032833 162.398649 
L 934.237453 162.372363 
L 934.442073 162.600842 
L 935.055932 164.124039 
L 935.465171 164.939451 
L 936.07903 165.572807 
L 936.897509 166.317439 
L 937.306749 166.243555 
L 937.715988 166.504199 
L 938.125228 166.969416 
L 938.534467 167.762793 
L 939.148326 169.219747 
L 940.171425 170.788023 
L 940.785284 172.119613 
L 941.603763 173.02189 
L 942.013002 173.310894 
L 942.217622 173.304509 
L 942.626862 172.94799 
L 943.240721 172.208964 
L 943.445341 172.226948 
L 943.85458 172.713226 
L 944.468439 173.432273 
L 946.514636 175.45155 
L 947.537735 176.968173 
L 949.174693 178.640362 
L 949.583932 179.499368 
L 950.811651 182.731242 
L 951.22089 183.163545 
L 952.653228 184.019351 
L 953.062468 183.947492 
L 953.267087 184.047858 
L 953.676327 184.84328 
L 954.290186 186.21549 
L 954.699425 186.495253 
L 954.904045 186.504261 
L 955.108665 186.394487 
L 955.517904 185.751398 
L 955.927144 185.06475 
L 956.131764 184.924411 
L 956.336383 184.929148 
L 956.745623 185.306446 
L 957.154862 185.727595 
L 957.359482 185.734212 
L 957.768721 185.30185 
L 958.79182 183.643007 
L 959.201059 183.700479 
L 959.610299 184.291562 
L 960.224158 185.560748 
L 961.247257 186.832622 
L 962.065736 186.962642 
L 962.474975 187.428364 
L 963.702693 189.427591 
L 963.907313 189.524273 
L 964.111933 189.488209 
L 964.521172 188.935793 
L 965.135032 187.967526 
L 965.748891 187.408762 
L 965.95351 187.494061 
L 966.56737 188.020516 
L 967.181229 188.011418 
L 967.795088 188.488299 
L 967.999708 188.487927 
L 968.204327 188.313362 
L 968.613567 187.473998 
L 969.022806 186.674212 
L 969.227426 186.596372 
L 969.841285 186.951125 
L 970.864384 187.532487 
L 971.273623 187.377541 
L 971.478243 187.488549 
L 971.887483 188.189623 
L 972.296722 188.954625 
L 972.705961 189.285038 
L 973.115201 189.336756 
L 973.72906 189.706566 
L 974.1383 189.424246 
L 974.342919 189.286589 
L 974.547539 189.30662 
L 975.366018 189.933397 
L 975.775257 189.836484 
L 976.184497 189.503 
L 976.798356 188.624797 
L 977.002976 188.537486 
L 977.412215 188.800705 
L 978.026074 189.31189 
L 978.844553 189.637843 
L 979.867652 189.920594 
L 980.276891 189.616282 
L 980.686131 189.391697 
L 981.09537 189.757138 
L 981.709229 190.426119 
L 981.913849 190.465483 
L 982.527708 190.331018 
L 982.936948 190.753776 
L 983.550807 191.458177 
L 983.960046 191.693081 
L 984.369286 191.58841 
L 984.983145 191.188253 
L 985.392385 190.925786 
L 986.210863 189.786387 
L 986.415483 189.775981 
L 987.438582 190.238726 
L 988.257061 190.001199 
L 988.6663 190.123375 
L 989.280159 190.530932 
L 989.484779 190.501021 
L 989.894019 190.091705 
L 990.712497 188.718182 
L 990.917117 188.642132 
L 991.735596 188.772853 
L 992.144835 188.444015 
L 992.554075 187.970403 
L 992.963314 187.896833 
L 993.986413 188.479205 
L 994.395652 189.141947 
L 995.623371 192.181675 
L 995.827991 192.324021 
L 996.23723 192.188417 
L 997.055709 191.691049 
L 997.464948 191.070121 
L 998.488047 188.786339 
L 998.897286 188.376463 
L 999.306526 188.176457 
L 999.511146 188.192627 
L 999.715765 188.399728 
L 1000.534244 190.046857 
L 1000.738864 189.934351 
L 1001.761963 188.178149 
L 1002.171202 188.244911 
L 1002.580442 188.694589 
L 1003.39892 189.883081 
L 1003.80816 190.026495 
L 1004.422019 189.820489 
L 1005.445118 189.261804 
L 1006.058977 189.405843 
L 1006.263597 189.219732 
L 1006.877456 187.924319 
L 1007.286695 187.129687 
L 1007.695935 186.721226 
L 1007.900554 186.637779 
L 1008.105174 186.675003 
L 1008.309794 186.907809 
L 1009.537512 189.387183 
L 1010.560611 190.348121 
L 1011.37909 191.505389 
L 1011.788329 191.774508 
L 1012.197569 191.671295 
L 1012.606808 191.578641 
L 1014.039146 192.40645 
L 1014.243766 192.267927 
L 1014.653005 191.308767 
L 1015.062245 190.326869 
L 1015.266865 190.115563 
L 1015.471484 190.105213 
L 1015.880724 190.401966 
L 1016.699203 191.196971 
L 1016.903822 191.08016 
L 1017.926921 189.463903 
L 1018.7454 188.88452 
L 1019.154639 188.924104 
L 1019.563879 189.148592 
L 1019.973118 189.589909 
L 1020.791597 190.778621 
L 1020.996217 190.907721 
L 1021.200837 190.890649 
L 1021.610076 190.444282 
L 1022.633175 188.973841 
L 1023.042414 188.882331 
L 1023.451654 189.190563 
L 1024.474752 190.367764 
L 1024.679372 190.299315 
L 1025.088612 189.694868 
L 1025.702471 188.471345 
L 1026.11171 188.226121 
L 1026.52095 188.231664 
L 1026.930189 188.520952 
L 1027.953288 189.699203 
L 1028.771767 189.650094 
L 1029.590246 190.220181 
L 1030.408724 190.247655 
L 1031.022584 190.675297 
L 1031.431823 190.477733 
L 1032.045682 190.15102 
L 1032.454922 189.964661 
L 1033.068781 189.582145 
L 1033.47802 189.809156 
L 1034.091879 190.485782 
L 1034.501119 190.510289 
L 1035.114978 190.005892 
L 1035.524218 189.549446 
L 1036.547316 187.944668 
L 1037.775035 186.893352 
L 1038.184274 187.093674 
L 1038.593513 187.329907 
L 1039.411992 187.250639 
L 1039.616612 187.487653 
L 1040.025852 188.585368 
L 1040.435091 189.814007 
L 1040.639711 190.086132 
L 1040.84433 190.063123 
L 1041.25357 189.729189 
L 1041.45819 189.786965 
L 1042.481288 190.963457 
L 1043.299767 190.718186 
L 1043.709007 190.370417 
L 1044.118246 189.944021 
L 1044.527486 189.785949 
L 1044.936725 190.003079 
L 1045.345964 190.274211 
L 1046.164443 190.610518 
L 1046.573683 190.973185 
L 1046.778303 190.974759 
L 1046.982922 190.744237 
L 1047.596781 189.444374 
L 1047.801401 189.346749 
L 1048.006021 189.505339 
L 1048.8245 190.67499 
L 1049.438359 190.913177 
L 1049.847598 190.801105 
L 1050.870697 190.422008 
L 1051.484556 190.625459 
L 1051.893796 190.367662 
L 1052.712275 189.576993 
L 1052.916894 189.529387 
L 1053.326134 189.776897 
L 1054.144613 190.518432 
L 1054.553852 190.57614 
L 1055.781571 190.648776 
L 1055.98619 190.777463 
L 1057.009289 192.118068 
L 1057.213909 192.130755 
L 1057.418528 191.918954 
L 1058.441627 190.01344 
L 1058.850866 190.020571 
L 1059.260106 190.020531 
L 1059.669345 189.787751 
L 1061.101683 188.519421 
L 1062.124782 186.741202 
L 1062.329402 186.762289 
L 1063.147881 187.475055 
L 1063.76174 187.985689 
L 1064.784839 188.231298 
L 1065.603317 189.026233 
L 1066.626416 188.840789 
L 1067.035656 188.993759 
L 1067.444895 188.895341 
L 1068.058754 188.582337 
L 1068.263374 188.643092 
L 1069.081853 189.429601 
L 1069.491092 189.249502 
L 1070.514191 188.633725 
L 1070.92343 188.707099 
L 1071.33267 188.806973 
L 1071.741909 188.721052 
L 1072.765008 188.274902 
L 1073.583487 188.1983 
L 1073.992726 188.262068 
L 1074.606585 188.701706 
L 1075.629684 189.608441 
L 1075.834304 189.6555 
L 1076.243543 189.390434 
L 1076.652783 189.078173 
L 1077.266642 189.245485 
L 1078.28974 189.709727 
L 1078.9036 190.28724 
L 1079.517459 190.341736 
L 1080.131318 190.688018 
L 1080.335938 190.665174 
L 1080.540557 190.514664 
L 1080.949797 189.801881 
L 1081.972896 187.591716 
L 1082.177515 187.508216 
L 1082.586755 187.824581 
L 1083.200614 188.50793 
L 1083.609853 188.670725 
L 1084.019093 188.612663 
L 1084.632952 188.232628 
L 1085.042191 188.018346 
L 1085.451431 188.156521 
L 1086.26991 188.961068 
L 1086.883769 189.030238 
L 1087.497628 188.935322 
L 1087.906868 188.971556 
L 1089.543825 190.02963 
L 1089.953065 189.81208 
L 1090.362304 189.562453 
L 1090.566924 189.728691 
L 1090.976164 190.956888 
L 1091.385403 192.207477 
L 1091.590023 192.391906 
L 1091.794642 192.269003 
L 1093.022361 190.603933 
L 1093.84084 190.305135 
L 1094.659319 188.987842 
L 1095.068558 188.949244 
L 1095.887037 189.164273 
L 1096.296276 189.423336 
L 1097.728615 190.665041 
L 1098.137854 190.934537 
L 1098.751713 191.555069 
L 1099.774812 192.082077 
L 1100.184051 192.46451 
L 1100.388671 192.500261 
L 1101.20715 192.146523 
L 1101.821009 192.424118 
L 1102.025629 192.327369 
L 1102.639488 191.646522 
L 1103.457967 191.439668 
L 1103.867206 190.898166 
L 1104.276446 189.860521 
L 1104.890305 188.238435 
L 1105.094925 188.010381 
L 1105.299544 187.995912 
L 1105.708784 188.356624 
L 1106.731883 189.407672 
L 1107.141122 189.106273 
L 1107.345742 188.916271 
L 1107.550361 188.881346 
L 1107.959601 189.302915 
L 1109.391939 191.541786 
L 1109.801178 191.61884 
L 1110.005798 191.488178 
L 1110.415038 190.842567 
L 1110.824277 190.157293 
L 1111.028897 190.095317 
L 1111.233516 190.349684 
L 1111.847376 191.783765 
L 1112.051995 191.950839 
L 1112.461235 191.862561 
L 1113.075094 191.698254 
L 1113.688953 191.665781 
L 1114.302812 191.532381 
L 1115.325911 191.209692 
L 1115.73515 191.02264 
L 1116.758249 190.077423 
L 1117.781348 188.385731 
L 1118.190587 188.145885 
L 1118.599827 188.285886 
L 1119.009066 188.671307 
L 1119.622925 189.408835 
L 1119.827545 189.469667 
L 1120.032165 189.342531 
L 1120.441404 188.543126 
L 1121.259883 186.71463 
L 1122.282982 185.466464 
L 1122.487601 185.452343 
L 1124.124559 186.322707 
L 1125.147658 186.855916 
L 1125.966137 187.706048 
L 1126.579996 188.722974 
L 1127.193855 189.709081 
L 1128.012334 190.501439 
L 1128.421574 191.23969 
L 1128.626193 191.428665 
L 1128.830813 191.45395 
L 1129.240052 191.116866 
L 1129.853912 190.026631 
L 1130.263151 189.379316 
L 1130.467771 189.258939 
L 1131.28625 189.350359 
L 1131.695489 189.675868 
L 1132.104729 190.103209 
L 1132.513968 190.080334 
L 1132.923208 189.995232 
L 1134.560165 190.522369 
L 1134.969405 190.245355 
L 1135.583264 189.366893 
L 1136.401743 188.057567 
L 1137.220222 187.19534 
L 1137.424842 187.209068 
L 1137.834081 187.668635 
L 1139.061799 189.362838 
L 1139.880278 189.293919 
L 1140.289518 189.16907 
L 1140.903377 188.771353 
L 1141.721856 187.704647 
L 1141.926476 187.686882 
L 1142.335715 187.975742 
L 1142.744954 188.486887 
L 1143.768053 190.337581 
L 1144.177293 190.193406 
L 1145.200391 189.440165 
L 1145.609631 189.134983 
L 1146.22349 188.246416 
L 1147.246588 187.518604 
L 1147.655828 187.44459 
L 1148.065067 187.824301 
L 1148.474307 188.167732 
L 1148.883546 188.06543 
L 1149.292786 188.048394 
L 1149.906645 188.327742 
L 1150.725124 188.373705 
L 1151.134363 188.80161 
L 1151.748222 189.522654 
L 1151.952842 189.502076 
L 1152.771321 188.782501 
L 1152.975941 188.834264 
L 1153.38518 189.305958 
L 1153.79442 189.856148 
L 1154.203659 190.029904 
L 1155.022138 189.801867 
L 1155.431377 190.339648 
L 1155.840617 190.948314 
L 1156.045237 191.111822 
L 1156.249856 191.098914 
L 1156.454476 190.870868 
L 1157.682194 188.510762 
L 1158.091434 188.148085 
L 1158.500673 188.103103 
L 1159.114533 188.377135 
L 1159.728392 188.35005 
L 1160.137631 188.055421 
L 1160.546871 187.767342 
L 1160.75149 187.895139 
L 1161.16073 188.557963 
L 1161.774589 190.105995 
L 1162.183828 190.982787 
L 1162.388448 191.18753 
L 1162.593068 191.210941 
L 1163.002307 190.836964 
L 1163.820786 189.759046 
L 1164.230026 189.860591 
L 1164.639265 189.927387 
L 1165.253124 189.93639 
L 1165.662364 189.909657 
L 1166.480843 189.330499 
L 1167.094702 189.73524 
L 1168.73166 191.366322 
L 1169.345519 192.195036 
L 1169.550139 192.23238 
L 1169.959378 191.998203 
L 1170.368618 191.443587 
L 1171.391716 189.585682 
L 1171.800956 189.319983 
L 1172.619435 188.218617 
L 1172.824054 188.189965 
L 1173.233294 188.422137 
L 1174.051773 189.044943 
L 1175.074871 190.552617 
L 1175.484111 190.305144 
L 1176.09797 189.956229 
L 1177.325688 190.1426 
L 1177.734928 190.640872 
L 1178.348787 191.630639 
L 1178.553407 191.801158 
L 1178.758026 191.812441 
L 1179.576505 191.316161 
L 1179.985745 191.067109 
L 1180.599604 191.088966 
L 1181.008843 190.582769 
L 1181.622703 189.759918 
L 1182.236562 189.208132 
L 1182.850421 188.945919 
L 1183.46428 189.010459 
L 1184.078139 189.128285 
L 1184.896618 188.709056 
L 1184.896618 188.709056 
" clip-path="url(#p057eee1f0a)" style="fill: none; stroke: #000000; stroke-width: 2; stroke-linecap: square"/>
   </g>
   <g id="patch_3">
    <path d="M 3.00024 198.907885 
L 1184.99976 198.907885 
" style="fill: none; stroke: #000000; stroke-width: 2; stroke-linejoin: miter; stroke-linecap: square"/>
   </g>
  </g>
 </g>
 <defs>
  <clipPath id="p057eee1f0a">
   <rect x="3.00024" y="3.00024" width="1181.99952" height="195.907645"/>
  </clipPath>
 </defs>
</svg>
