<?xml version="1.0" encoding="utf-8" standalone="no"?>
<!DOCTYPE svg PUBLIC "-//W3C//DTD SVG 1.1//EN"
  "http://www.w3.org/Graphics/SVG/1.1/DTD/svg11.dtd">
<svg xmlns:xlink="http://www.w3.org/1999/xlink" width="1188pt" height="252pt" viewBox="0 0 1188 252" xmlns="http://www.w3.org/2000/svg" version="1.1">
 <metadata>
  <rdf:RDF xmlns:dc="http://purl.org/dc/elements/1.1/" xmlns:cc="http://creativecommons.org/ns#" xmlns:rdf="http://www.w3.org/1999/02/22-rdf-syntax-ns#">
   <cc:Work>
    <dc:type rdf:resource="http://purl.org/dc/dcmitype/StillImage"/>
    <dc:date>2024-05-13T16:41:37.473916</dc:date>
    <dc:format>image/svg+xml</dc:format>
    <dc:creator>
     <cc:Agent>
      <dc:title>Matplotlib v3.8.0, https://matplotlib.org/</dc:title>
     </cc:Agent>
    </dc:creator>
   </cc:Work>
  </rdf:RDF>
 </metadata>
 <defs>
  <style type="text/css">*{stroke-linejoin: round; stroke-linecap: butt}</style>
 </defs>
 <g id="figure_1">
  <g id="patch_1">
   <path d="M 0 252 
L 1188 252 
L 1188 0 
L 0 0 
z
" style="fill: #ffffff"/>
  </g>
  <g id="axes_1">
   <g id="patch_2">
    <path d="M 3.00024 198.907885 
L 1184.99976 198.907885 
L 1184.99976 3.00024 
L 3.00024 3.00024 
z
" style="fill: #ffffff"/>
   </g>
   <g id="matplotlib.axis_1">
    <g id="xtick_1">
     <g id="line2d_1">
      <defs>
       <path id="m03f729e980" d="M 0 0 
L 0 8 
" style="stroke: #000000; stroke-width: 2"/>
      </defs>
      <g>
       <use xlink:href="#m03f729e980" x="1131.272509" y="198.907885" style="stroke: #000000; stroke-width: 2"/>
      </g>
     </g>
     <g id="text_1">
      <!-- 0 -->
      <g transform="translate(1126.267665 224.791947) scale(0.18 -0.18)">
       <defs>
        <path id="Arial-BoldMT-30" d="M 1756 4600 
Q 2422 4600 2797 4125 
Q 3244 3563 3244 2259 
Q 3244 959 2794 391 
Q 2422 -78 1756 -78 
Q 1088 -78 678 436 
Q 269 950 269 2269 
Q 269 3563 719 4131 
Q 1091 4600 1756 4600 
z
M 1756 3872 
Q 1597 3872 1472 3770 
Q 1347 3669 1278 3406 
Q 1188 3066 1188 2259 
Q 1188 1453 1269 1151 
Q 1350 850 1473 750 
Q 1597 650 1756 650 
Q 1916 650 2041 751 
Q 2166 853 2234 1116 
Q 2325 1453 2325 2259 
Q 2325 3066 2244 3367 
Q 2163 3669 2039 3770 
Q 1916 3872 1756 3872 
z
" transform="scale(0.015625)"/>
       </defs>
       <use xlink:href="#Arial-BoldMT-30"/>
      </g>
     </g>
    </g>
    <g id="xtick_2">
     <g id="line2d_2">
      <g>
       <use xlink:href="#m03f729e980" x="1023.818007" y="198.907885" style="stroke: #000000; stroke-width: 2"/>
      </g>
     </g>
     <g id="text_2">
      <!-- 1 -->
      <g transform="translate(1018.813164 224.791947) scale(0.18 -0.18)">
       <defs>
        <path id="Arial-BoldMT-31" d="M 2519 0 
L 1641 0 
L 1641 3309 
Q 1159 2859 506 2644 
L 506 3441 
Q 850 3553 1253 3867 
Q 1656 4181 1806 4600 
L 2519 4600 
L 2519 0 
z
" transform="scale(0.015625)"/>
       </defs>
       <use xlink:href="#Arial-BoldMT-31"/>
      </g>
     </g>
    </g>
    <g id="xtick_3">
     <g id="line2d_3">
      <g>
       <use xlink:href="#m03f729e980" x="916.363505" y="198.907885" style="stroke: #000000; stroke-width: 2"/>
      </g>
     </g>
     <g id="text_3">
      <!-- 2 -->
      <g transform="translate(911.358662 224.791947) scale(0.18 -0.18)">
       <defs>
        <path id="Arial-BoldMT-32" d="M 3238 816 
L 3238 0 
L 159 0 
Q 209 463 459 877 
Q 709 1291 1447 1975 
Q 2041 2528 2175 2725 
Q 2356 2997 2356 3263 
Q 2356 3556 2198 3714 
Q 2041 3872 1763 3872 
Q 1488 3872 1325 3706 
Q 1163 3541 1138 3156 
L 263 3244 
Q 341 3969 753 4284 
Q 1166 4600 1784 4600 
Q 2463 4600 2850 4234 
Q 3238 3869 3238 3325 
Q 3238 3016 3127 2736 
Q 3016 2456 2775 2150 
Q 2616 1947 2200 1565 
Q 1784 1184 1673 1059 
Q 1563 934 1494 816 
L 3238 816 
z
" transform="scale(0.015625)"/>
       </defs>
       <use xlink:href="#Arial-BoldMT-32"/>
      </g>
     </g>
    </g>
    <g id="xtick_4">
     <g id="line2d_4">
      <g>
       <use xlink:href="#m03f729e980" x="808.909004" y="198.907885" style="stroke: #000000; stroke-width: 2"/>
      </g>
     </g>
     <g id="text_4">
      <!-- 3 -->
      <g transform="translate(803.90416 224.791947) scale(0.18 -0.18)">
       <defs>
        <path id="Arial-BoldMT-33" d="M 241 1216 
L 1091 1319 
Q 1131 994 1309 822 
Q 1488 650 1741 650 
Q 2013 650 2198 856 
Q 2384 1063 2384 1413 
Q 2384 1744 2206 1937 
Q 2028 2131 1772 2131 
Q 1603 2131 1369 2066 
L 1466 2781 
Q 1822 2772 2009 2936 
Q 2197 3100 2197 3372 
Q 2197 3603 2059 3740 
Q 1922 3878 1694 3878 
Q 1469 3878 1309 3722 
Q 1150 3566 1116 3266 
L 306 3403 
Q 391 3819 561 4067 
Q 731 4316 1036 4458 
Q 1341 4600 1719 4600 
Q 2366 4600 2756 4188 
Q 3078 3850 3078 3425 
Q 3078 2822 2419 2463 
Q 2813 2378 3048 2084 
Q 3284 1791 3284 1375 
Q 3284 772 2843 347 
Q 2403 -78 1747 -78 
Q 1125 -78 715 280 
Q 306 638 241 1216 
z
" transform="scale(0.015625)"/>
       </defs>
       <use xlink:href="#Arial-BoldMT-33"/>
      </g>
     </g>
    </g>
    <g id="xtick_5">
     <g id="line2d_5">
      <g>
       <use xlink:href="#m03f729e980" x="701.454502" y="198.907885" style="stroke: #000000; stroke-width: 2"/>
      </g>
     </g>
     <g id="text_5">
      <!-- 4 -->
      <g transform="translate(696.449658 224.791947) scale(0.18 -0.18)">
       <defs>
        <path id="Arial-BoldMT-34" d="M 1994 0 
L 1994 922 
L 119 922 
L 119 1691 
L 2106 4600 
L 2844 4600 
L 2844 1694 
L 3413 1694 
L 3413 922 
L 2844 922 
L 2844 0 
L 1994 0 
z
M 1994 1694 
L 1994 3259 
L 941 1694 
L 1994 1694 
z
" transform="scale(0.015625)"/>
       </defs>
       <use xlink:href="#Arial-BoldMT-34"/>
      </g>
     </g>
    </g>
    <g id="xtick_6">
     <g id="line2d_6">
      <g>
       <use xlink:href="#m03f729e980" x="594" y="198.907885" style="stroke: #000000; stroke-width: 2"/>
      </g>
     </g>
     <g id="text_6">
      <!-- 5 -->
      <g transform="translate(588.995156 224.791947) scale(0.18 -0.18)">
       <defs>
        <path id="Arial-BoldMT-35" d="M 284 1178 
L 1159 1269 
Q 1197 972 1381 798 
Q 1566 625 1806 625 
Q 2081 625 2272 848 
Q 2463 1072 2463 1522 
Q 2463 1944 2273 2155 
Q 2084 2366 1781 2366 
Q 1403 2366 1103 2031 
L 391 2134 
L 841 4519 
L 3163 4519 
L 3163 3697 
L 1506 3697 
L 1369 2919 
Q 1663 3066 1969 3066 
Q 2553 3066 2959 2641 
Q 3366 2216 3366 1538 
Q 3366 972 3038 528 
Q 2591 -78 1797 -78 
Q 1163 -78 763 262 
Q 363 603 284 1178 
z
" transform="scale(0.015625)"/>
       </defs>
       <use xlink:href="#Arial-BoldMT-35"/>
      </g>
     </g>
    </g>
    <g id="xtick_7">
     <g id="line2d_7">
      <g>
       <use xlink:href="#m03f729e980" x="486.545498" y="198.907885" style="stroke: #000000; stroke-width: 2"/>
      </g>
     </g>
     <g id="text_7">
      <!-- 6 -->
      <g transform="translate(481.540654 224.791947) scale(0.18 -0.18)">
       <defs>
        <path id="Arial-BoldMT-36" d="M 3247 3459 
L 2397 3366 
Q 2366 3628 2234 3753 
Q 2103 3878 1894 3878 
Q 1616 3878 1423 3628 
Q 1231 3378 1181 2588 
Q 1509 2975 1997 2975 
Q 2547 2975 2939 2556 
Q 3331 2138 3331 1475 
Q 3331 772 2918 347 
Q 2506 -78 1859 -78 
Q 1166 -78 719 461 
Q 272 1000 272 2228 
Q 272 3488 737 4044 
Q 1203 4600 1947 4600 
Q 2469 4600 2811 4308 
Q 3153 4016 3247 3459 
z
M 1256 1544 
Q 1256 1116 1453 883 
Q 1650 650 1903 650 
Q 2147 650 2309 840 
Q 2472 1031 2472 1466 
Q 2472 1913 2297 2120 
Q 2122 2328 1859 2328 
Q 1606 2328 1431 2129 
Q 1256 1931 1256 1544 
z
" transform="scale(0.015625)"/>
       </defs>
       <use xlink:href="#Arial-BoldMT-36"/>
      </g>
     </g>
    </g>
    <g id="xtick_8">
     <g id="line2d_8">
      <g>
       <use xlink:href="#m03f729e980" x="379.090996" y="198.907885" style="stroke: #000000; stroke-width: 2"/>
      </g>
     </g>
     <g id="text_8">
      <!-- 7 -->
      <g transform="translate(374.086153 224.791947) scale(0.18 -0.18)">
       <defs>
        <path id="Arial-BoldMT-37" d="M 272 3703 
L 272 4519 
L 3275 4519 
L 3275 3881 
Q 2903 3516 2518 2831 
Q 2134 2147 1932 1376 
Q 1731 606 1734 0 
L 888 0 
Q 909 950 1279 1937 
Q 1650 2925 2269 3703 
L 272 3703 
z
" transform="scale(0.015625)"/>
       </defs>
       <use xlink:href="#Arial-BoldMT-37"/>
      </g>
     </g>
    </g>
    <g id="xtick_9">
     <g id="line2d_9">
      <g>
       <use xlink:href="#m03f729e980" x="271.636495" y="198.907885" style="stroke: #000000; stroke-width: 2"/>
      </g>
     </g>
     <g id="text_9">
      <!-- 8 -->
      <g transform="translate(266.631651 224.791947) scale(0.18 -0.18)">
       <defs>
        <path id="Arial-BoldMT-38" d="M 1025 2472 
Q 684 2616 529 2867 
Q 375 3119 375 3419 
Q 375 3931 733 4265 
Q 1091 4600 1750 4600 
Q 2403 4600 2764 4265 
Q 3125 3931 3125 3419 
Q 3125 3100 2959 2851 
Q 2794 2603 2494 2472 
Q 2875 2319 3073 2025 
Q 3272 1731 3272 1347 
Q 3272 713 2867 316 
Q 2463 -81 1791 -81 
Q 1166 -81 750 247 
Q 259 634 259 1309 
Q 259 1681 443 1992 
Q 628 2303 1025 2472 
z
M 1206 3356 
Q 1206 3094 1354 2947 
Q 1503 2800 1750 2800 
Q 2000 2800 2150 2948 
Q 2300 3097 2300 3359 
Q 2300 3606 2151 3754 
Q 2003 3903 1759 3903 
Q 1506 3903 1356 3753 
Q 1206 3603 1206 3356 
z
M 1125 1394 
Q 1125 1031 1311 828 
Q 1497 625 1775 625 
Q 2047 625 2225 820 
Q 2403 1016 2403 1384 
Q 2403 1706 2222 1901 
Q 2041 2097 1763 2097 
Q 1441 2097 1283 1875 
Q 1125 1653 1125 1394 
z
" transform="scale(0.015625)"/>
       </defs>
       <use xlink:href="#Arial-BoldMT-38"/>
      </g>
     </g>
    </g>
    <g id="xtick_10">
     <g id="line2d_10">
      <g>
       <use xlink:href="#m03f729e980" x="164.181993" y="198.907885" style="stroke: #000000; stroke-width: 2"/>
      </g>
     </g>
     <g id="text_10">
      <!-- 9 -->
      <g transform="translate(159.177149 224.791947) scale(0.18 -0.18)">
       <defs>
        <path id="Arial-BoldMT-39" d="M 291 1059 
L 1141 1153 
Q 1172 894 1303 769 
Q 1434 644 1650 644 
Q 1922 644 2112 894 
Q 2303 1144 2356 1931 
Q 2025 1547 1528 1547 
Q 988 1547 595 1964 
Q 203 2381 203 3050 
Q 203 3747 617 4173 
Q 1031 4600 1672 4600 
Q 2369 4600 2816 4061 
Q 3263 3522 3263 2288 
Q 3263 1031 2797 475 
Q 2331 -81 1584 -81 
Q 1047 -81 715 205 
Q 384 491 291 1059 
z
M 2278 2978 
Q 2278 3403 2083 3637 
Q 1888 3872 1631 3872 
Q 1388 3872 1227 3680 
Q 1066 3488 1066 3050 
Q 1066 2606 1241 2398 
Q 1416 2191 1678 2191 
Q 1931 2191 2104 2391 
Q 2278 2591 2278 2978 
z
" transform="scale(0.015625)"/>
       </defs>
       <use xlink:href="#Arial-BoldMT-39"/>
      </g>
     </g>
    </g>
    <g id="xtick_11">
     <g id="line2d_11">
      <g>
       <use xlink:href="#m03f729e980" x="56.727491" y="198.907885" style="stroke: #000000; stroke-width: 2"/>
      </g>
     </g>
     <g id="text_11">
      <!-- 10 -->
      <g transform="translate(46.717803 224.791947) scale(0.18 -0.18)">
       <use xlink:href="#Arial-BoldMT-31"/>
       <use xlink:href="#Arial-BoldMT-30" x="55.615234"/>
      </g>
     </g>
    </g>
    <g id="text_12">
     <!-- Chemical Shift / ppm -->
     <g transform="translate(504.992813 245.447573) scale(0.18 -0.18)">
      <defs>
       <path id="Arial-BoldMT-43" d="M 3397 1684 
L 4294 1400 
Q 4088 650 3608 286 
Q 3128 -78 2391 -78 
Q 1478 -78 890 545 
Q 303 1169 303 2250 
Q 303 3394 893 4026 
Q 1484 4659 2447 4659 
Q 3288 4659 3813 4163 
Q 4125 3869 4281 3319 
L 3366 3100 
Q 3284 3456 3026 3662 
Q 2769 3869 2400 3869 
Q 1891 3869 1573 3503 
Q 1256 3138 1256 2319 
Q 1256 1450 1568 1081 
Q 1881 713 2381 713 
Q 2750 713 3015 947 
Q 3281 1181 3397 1684 
z
" transform="scale(0.015625)"/>
       <path id="Arial-BoldMT-68" d="M 1334 4581 
L 1334 2897 
Q 1759 3394 2350 3394 
Q 2653 3394 2897 3281 
Q 3141 3169 3264 2994 
Q 3388 2819 3433 2606 
Q 3478 2394 3478 1947 
L 3478 0 
L 2600 0 
L 2600 1753 
Q 2600 2275 2550 2415 
Q 2500 2556 2373 2639 
Q 2247 2722 2056 2722 
Q 1838 2722 1666 2615 
Q 1494 2509 1414 2295 
Q 1334 2081 1334 1663 
L 1334 0 
L 456 0 
L 456 4581 
L 1334 4581 
z
" transform="scale(0.015625)"/>
       <path id="Arial-BoldMT-65" d="M 2381 1056 
L 3256 909 
Q 3088 428 2723 176 
Q 2359 -75 1813 -75 
Q 947 -75 531 491 
Q 203 944 203 1634 
Q 203 2459 634 2926 
Q 1066 3394 1725 3394 
Q 2466 3394 2894 2905 
Q 3322 2416 3303 1406 
L 1103 1406 
Q 1113 1016 1316 798 
Q 1519 581 1822 581 
Q 2028 581 2168 693 
Q 2309 806 2381 1056 
z
M 2431 1944 
Q 2422 2325 2234 2523 
Q 2047 2722 1778 2722 
Q 1491 2722 1303 2513 
Q 1116 2303 1119 1944 
L 2431 1944 
z
" transform="scale(0.015625)"/>
       <path id="Arial-BoldMT-6d" d="M 394 3319 
L 1203 3319 
L 1203 2866 
Q 1638 3394 2238 3394 
Q 2556 3394 2790 3262 
Q 3025 3131 3175 2866 
Q 3394 3131 3647 3262 
Q 3900 3394 4188 3394 
Q 4553 3394 4806 3245 
Q 5059 3097 5184 2809 
Q 5275 2597 5275 2122 
L 5275 0 
L 4397 0 
L 4397 1897 
Q 4397 2391 4306 2534 
Q 4184 2722 3931 2722 
Q 3747 2722 3584 2609 
Q 3422 2497 3350 2280 
Q 3278 2063 3278 1594 
L 3278 0 
L 2400 0 
L 2400 1819 
Q 2400 2303 2353 2443 
Q 2306 2584 2207 2653 
Q 2109 2722 1941 2722 
Q 1738 2722 1575 2612 
Q 1413 2503 1342 2297 
Q 1272 2091 1272 1613 
L 1272 0 
L 394 0 
L 394 3319 
z
" transform="scale(0.015625)"/>
       <path id="Arial-BoldMT-69" d="M 459 3769 
L 459 4581 
L 1338 4581 
L 1338 3769 
L 459 3769 
z
M 459 0 
L 459 3319 
L 1338 3319 
L 1338 0 
L 459 0 
z
" transform="scale(0.015625)"/>
       <path id="Arial-BoldMT-63" d="M 3353 2338 
L 2488 2181 
Q 2444 2441 2289 2572 
Q 2134 2703 1888 2703 
Q 1559 2703 1364 2476 
Q 1169 2250 1169 1719 
Q 1169 1128 1367 884 
Q 1566 641 1900 641 
Q 2150 641 2309 783 
Q 2469 925 2534 1272 
L 3397 1125 
Q 3263 531 2881 228 
Q 2500 -75 1859 -75 
Q 1131 -75 698 384 
Q 266 844 266 1656 
Q 266 2478 700 2936 
Q 1134 3394 1875 3394 
Q 2481 3394 2839 3133 
Q 3197 2872 3353 2338 
z
" transform="scale(0.015625)"/>
       <path id="Arial-BoldMT-61" d="M 1116 2306 
L 319 2450 
Q 453 2931 781 3162 
Q 1109 3394 1756 3394 
Q 2344 3394 2631 3255 
Q 2919 3116 3036 2902 
Q 3153 2688 3153 2116 
L 3144 1091 
Q 3144 653 3186 445 
Q 3228 238 3344 0 
L 2475 0 
Q 2441 88 2391 259 
Q 2369 338 2359 363 
Q 2134 144 1878 34 
Q 1622 -75 1331 -75 
Q 819 -75 523 203 
Q 228 481 228 906 
Q 228 1188 362 1408 
Q 497 1628 739 1745 
Q 981 1863 1438 1950 
Q 2053 2066 2291 2166 
L 2291 2253 
Q 2291 2506 2166 2614 
Q 2041 2722 1694 2722 
Q 1459 2722 1328 2630 
Q 1197 2538 1116 2306 
z
M 2291 1594 
Q 2122 1538 1756 1459 
Q 1391 1381 1278 1306 
Q 1106 1184 1106 997 
Q 1106 813 1243 678 
Q 1381 544 1594 544 
Q 1831 544 2047 700 
Q 2206 819 2256 991 
Q 2291 1103 2291 1419 
L 2291 1594 
z
" transform="scale(0.015625)"/>
       <path id="Arial-BoldMT-6c" d="M 459 0 
L 459 4581 
L 1338 4581 
L 1338 0 
L 459 0 
z
" transform="scale(0.015625)"/>
       <path id="Arial-BoldMT-20" transform="scale(0.015625)"/>
       <path id="Arial-BoldMT-53" d="M 231 1491 
L 1131 1578 
Q 1213 1125 1461 912 
Q 1709 700 2131 700 
Q 2578 700 2804 889 
Q 3031 1078 3031 1331 
Q 3031 1494 2936 1608 
Q 2841 1722 2603 1806 
Q 2441 1863 1863 2006 
Q 1119 2191 819 2459 
Q 397 2838 397 3381 
Q 397 3731 595 4036 
Q 794 4341 1167 4500 
Q 1541 4659 2069 4659 
Q 2931 4659 3367 4281 
Q 3803 3903 3825 3272 
L 2900 3231 
Q 2841 3584 2645 3739 
Q 2450 3894 2059 3894 
Q 1656 3894 1428 3728 
Q 1281 3622 1281 3444 
Q 1281 3281 1419 3166 
Q 1594 3019 2269 2859 
Q 2944 2700 3267 2529 
Q 3591 2359 3773 2064 
Q 3956 1769 3956 1334 
Q 3956 941 3737 597 
Q 3519 253 3119 86 
Q 2719 -81 2122 -81 
Q 1253 -81 787 320 
Q 322 722 231 1491 
z
" transform="scale(0.015625)"/>
       <path id="Arial-BoldMT-66" d="M 75 3319 
L 563 3319 
L 563 3569 
Q 563 3988 652 4194 
Q 741 4400 980 4529 
Q 1219 4659 1584 4659 
Q 1959 4659 2319 4547 
L 2200 3934 
Q 1991 3984 1797 3984 
Q 1606 3984 1523 3895 
Q 1441 3806 1441 3553 
L 1441 3319 
L 2097 3319 
L 2097 2628 
L 1441 2628 
L 1441 0 
L 563 0 
L 563 2628 
L 75 2628 
L 75 3319 
z
" transform="scale(0.015625)"/>
       <path id="Arial-BoldMT-74" d="M 1981 3319 
L 1981 2619 
L 1381 2619 
L 1381 1281 
Q 1381 875 1398 808 
Q 1416 741 1477 697 
Q 1538 653 1625 653 
Q 1747 653 1978 738 
L 2053 56 
Q 1747 -75 1359 -75 
Q 1122 -75 931 4 
Q 741 84 652 211 
Q 563 338 528 553 
Q 500 706 500 1172 
L 500 2619 
L 97 2619 
L 97 3319 
L 500 3319 
L 500 3978 
L 1381 4491 
L 1381 3319 
L 1981 3319 
z
" transform="scale(0.015625)"/>
       <path id="Arial-BoldMT-2f" d="M -9 -78 
L 1125 4659 
L 1784 4659 
L 638 -78 
L -9 -78 
z
" transform="scale(0.015625)"/>
       <path id="Arial-BoldMT-70" d="M 434 3319 
L 1253 3319 
L 1253 2831 
Q 1413 3081 1684 3237 
Q 1956 3394 2288 3394 
Q 2866 3394 3269 2941 
Q 3672 2488 3672 1678 
Q 3672 847 3265 386 
Q 2859 -75 2281 -75 
Q 2006 -75 1782 34 
Q 1559 144 1313 409 
L 1313 -1263 
L 434 -1263 
L 434 3319 
z
M 1303 1716 
Q 1303 1156 1525 889 
Q 1747 622 2066 622 
Q 2372 622 2575 867 
Q 2778 1113 2778 1672 
Q 2778 2194 2568 2447 
Q 2359 2700 2050 2700 
Q 1728 2700 1515 2451 
Q 1303 2203 1303 1716 
z
" transform="scale(0.015625)"/>
      </defs>
      <use xlink:href="#Arial-BoldMT-43"/>
      <use xlink:href="#Arial-BoldMT-68" x="72.216797"/>
      <use xlink:href="#Arial-BoldMT-65" x="133.300781"/>
      <use xlink:href="#Arial-BoldMT-6d" x="188.916016"/>
      <use xlink:href="#Arial-BoldMT-69" x="277.832031"/>
      <use xlink:href="#Arial-BoldMT-63" x="305.615234"/>
      <use xlink:href="#Arial-BoldMT-61" x="361.230469"/>
      <use xlink:href="#Arial-BoldMT-6c" x="416.845703"/>
      <use xlink:href="#Arial-BoldMT-20" x="444.628906"/>
      <use xlink:href="#Arial-BoldMT-53" x="472.412109"/>
      <use xlink:href="#Arial-BoldMT-68" x="539.111328"/>
      <use xlink:href="#Arial-BoldMT-69" x="600.195312"/>
      <use xlink:href="#Arial-BoldMT-66" x="627.978516"/>
      <use xlink:href="#Arial-BoldMT-74" x="661.279297"/>
      <use xlink:href="#Arial-BoldMT-20" x="694.580078"/>
      <use xlink:href="#Arial-BoldMT-2f" x="722.363281"/>
      <use xlink:href="#Arial-BoldMT-20" x="750.146484"/>
      <use xlink:href="#Arial-BoldMT-70" x="777.929688"/>
      <use xlink:href="#Arial-BoldMT-70" x="839.013672"/>
      <use xlink:href="#Arial-BoldMT-6d" x="900.097656"/>
     </g>
    </g>
   </g>
   <g id="matplotlib.axis_2"/>
   <g id="line2d_12">
    <path d="M 3.013797 188.249461 
L 3.832276 188.221812 
L 4.241516 188.466505 
L 4.855375 188.963416 
L 5.264614 188.940881 
L 6.083093 188.595201 
L 6.901572 188.62352 
L 7.924671 189.105454 
L 8.53853 189.284984 
L 8.947769 189.609606 
L 9.766248 190.684612 
L 10.175488 191.22907 
L 10.584727 191.449309 
L 11.403206 191.393636 
L 12.835544 192.289471 
L 13.040164 192.280984 
L 13.449403 191.820241 
L 14.267882 190.645078 
L 14.677122 190.162557 
L 15.495601 188.808514 
L 15.70022 188.732558 
L 15.90484 188.828838 
L 16.31408 189.45559 
L 16.723319 190.008533 
L 16.927939 190.054683 
L 17.337178 189.75571 
L 17.951037 189.152438 
L 18.155657 189.116364 
L 19.178756 189.517246 
L 19.792615 189.064749 
L 19.997235 188.938262 
L 20.201854 188.954769 
L 20.611094 189.45541 
L 21.224953 190.277571 
L 21.634193 190.413949 
L 22.043432 190.297366 
L 22.452671 189.745555 
L 23.066531 188.428063 
L 23.68039 187.101696 
L 23.88501 186.97982 
L 24.294249 187.071941 
L 24.703488 187.280131 
L 25.112728 187.695789 
L 26.135827 188.901453 
L 26.545066 189.065892 
L 27.772784 189.003056 
L 28.591263 189.297205 
L 29.000503 189.336081 
L 30.228221 190.444274 
L 30.637461 190.376113 
L 31.25132 189.922828 
L 31.660559 190.043042 
L 32.274418 190.359235 
L 33.297517 190.563726 
L 33.706756 190.632561 
L 34.320616 190.928121 
L 34.729855 190.834569 
L 36.571433 189.723082 
L 37.185292 189.897369 
L 37.799151 190.366167 
L 38.20839 190.663969 
L 38.61763 190.650629 
L 39.231489 190.400956 
L 40.049968 190.305243 
L 41.482306 189.298945 
L 42.710024 187.37751 
L 42.914644 187.411292 
L 43.323884 187.987632 
L 44.551602 190.207638 
L 45.165461 190.864933 
L 45.574701 190.890232 
L 46.597799 190.283386 
L 47.007039 190.108441 
L 47.416278 189.877869 
L 47.825518 189.982371 
L 48.439377 190.261327 
L 48.848616 190.097829 
L 50.076335 189.130957 
L 50.690194 188.961797 
L 51.304053 188.559245 
L 51.508673 188.653527 
L 51.917912 189.320782 
L 52.736391 190.77595 
L 52.941011 190.903296 
L 53.14563 190.844088 
L 53.75949 190.149129 
L 54.168729 189.535682 
L 54.782588 188.423808 
L 55.191828 188.224168 
L 55.601067 188.510751 
L 56.828786 189.68334 
L 57.238025 189.787258 
L 59.079603 188.852916 
L 60.307321 188.929064 
L 61.944279 189.90209 
L 62.148898 189.896878 
L 62.558138 189.529298 
L 63.171997 188.798334 
L 63.581237 188.623566 
L 64.195096 188.767636 
L 65.627434 188.956187 
L 66.241293 189.402634 
L 67.059772 190.076652 
L 67.264392 190.01763 
L 68.082871 189.372377 
L 68.69673 189.472809 
L 69.105969 189.333025 
L 69.719828 188.731066 
L 70.129068 188.447942 
L 71.152166 188.022582 
L 71.970645 187.5462 
L 72.175265 187.572201 
L 72.584505 188.004857 
L 73.402983 189.38129 
L 73.812223 189.599411 
L 74.426082 189.58623 
L 74.835322 189.93196 
L 75.6538 190.818701 
L 76.06304 191.059276 
L 76.676899 191.237269 
L 77.290758 191.630302 
L 77.699998 191.413986 
L 79.746195 189.32053 
L 80.155434 189.232964 
L 80.564674 189.162836 
L 80.973913 188.712423 
L 81.587772 187.991444 
L 81.997012 187.998141 
L 82.815491 188.371437 
L 83.42935 188.757649 
L 84.861688 189.007046 
L 85.475547 189.222826 
L 86.089406 188.973991 
L 86.703266 188.855723 
L 87.112505 189.045251 
L 88.954083 190.629004 
L 89.567942 191.379119 
L 89.772562 191.389504 
L 91.00028 190.725672 
L 92.227998 189.602472 
L 93.251097 189.452677 
L 93.660336 188.954123 
L 94.069576 188.422766 
L 94.478815 188.277917 
L 94.683435 188.383326 
L 95.501914 189.327637 
L 95.911153 189.035864 
L 96.320393 188.748016 
L 96.729632 188.883723 
L 98.36659 190.039479 
L 100.003548 190.82776 
L 101.026647 190.99731 
L 101.640506 190.681677 
L 102.049745 190.811945 
L 102.663604 191.097305 
L 102.868224 191.023527 
L 103.277464 190.495502 
L 103.686703 190.026399 
L 104.505182 189.909607 
L 104.914421 189.917118 
L 105.323661 190.252395 
L 105.7329 190.620201 
L 105.93752 190.637379 
L 106.346759 190.315581 
L 106.755999 189.931633 
L 107.165238 189.880986 
L 107.574478 190.175637 
L 107.983717 190.434147 
L 108.392957 190.20266 
L 109.416055 189.232854 
L 109.825295 189.172914 
L 110.234534 189.321141 
L 111.666872 190.268799 
L 112.076112 190.23325 
L 113.50845 189.460014 
L 113.917689 189.280183 
L 114.326929 189.4434 
L 114.940788 190.071226 
L 115.350027 190.479464 
L 116.373126 190.839072 
L 116.986985 191.272997 
L 117.396225 191.334047 
L 117.805464 191.211891 
L 118.419323 190.685103 
L 118.828563 190.40182 
L 119.237802 190.459607 
L 120.056281 190.642123 
L 121.283999 190.851472 
L 122.102478 191.319717 
L 122.511718 191.156128 
L 123.534816 190.099646 
L 123.944056 190.160237 
L 124.557915 190.411107 
L 124.967155 190.216374 
L 126.194873 189.20133 
L 126.604112 189.235692 
L 127.627211 190.089258 
L 128.03645 189.878762 
L 128.44569 189.559314 
L 129.264169 189.423512 
L 130.696507 188.36567 
L 130.901127 188.332688 
L 131.310366 188.611273 
L 131.924225 189.24431 
L 132.538084 189.634641 
L 132.742704 189.627076 
L 133.151944 189.288815 
L 133.561183 188.992135 
L 133.970423 189.152453 
L 134.379662 189.289833 
L 134.788901 188.873407 
L 135.198141 188.32828 
L 136.22124 187.660553 
L 136.630479 187.532566 
L 137.448958 187.522172 
L 137.858197 187.894856 
L 138.472057 188.502587 
L 138.881296 188.512068 
L 139.290535 188.541904 
L 140.109014 188.861156 
L 140.927493 188.751117 
L 141.336733 189.127247 
L 141.950592 189.662025 
L 142.564451 189.654615 
L 143.792169 189.56599 
L 144.406029 189.290822 
L 145.224508 188.845017 
L 145.633747 189.017838 
L 146.042986 189.46469 
L 146.861465 190.60331 
L 147.066085 190.714555 
L 147.270705 190.683032 
L 147.679944 190.25677 
L 148.293803 189.615903 
L 149.112282 189.117121 
L 149.521522 189.089234 
L 150.135381 189.305387 
L 151.567719 190.399514 
L 152.181578 190.408591 
L 154.841635 189.829232 
L 155.864733 188.837428 
L 156.478592 188.654419 
L 157.092452 188.269889 
L 157.501691 188.290618 
L 157.910931 188.426929 
L 158.11555 188.346244 
L 158.729409 187.545459 
L 159.138649 187.214932 
L 159.547888 187.386747 
L 160.980226 188.33758 
L 161.389466 188.638086 
L 162.207945 189.47692 
L 163.026424 189.482289 
L 163.844903 189.945265 
L 164.049522 189.83419 
L 164.458762 189.106797 
L 164.868001 188.288061 
L 165.072621 188.184828 
L 165.48186 188.510202 
L 165.8911 188.833183 
L 166.300339 188.680622 
L 167.528058 187.705646 
L 167.937297 187.925176 
L 168.960396 189.03777 
L 169.778875 189.313008 
L 171.006593 190.308546 
L 171.825072 190.162101 
L 174.075889 189.722122 
L 174.689748 189.898307 
L 175.508227 189.925433 
L 176.326706 190.213724 
L 176.735945 189.97958 
L 177.554424 189.318742 
L 177.963664 189.590329 
L 179.396002 191.206313 
L 179.805241 191.25048 
L 180.214481 190.957602 
L 181.03296 190.141307 
L 181.442199 190.078174 
L 182.465298 190.565971 
L 182.874537 190.721624 
L 183.488396 190.66839 
L 184.511495 190.440072 
L 185.125354 189.519379 
L 185.739213 188.589517 
L 185.943833 188.434079 
L 186.148453 188.44139 
L 186.762312 188.790189 
L 187.171552 188.715448 
L 188.808509 187.926151 
L 190.036228 187.788718 
L 191.263946 187.957969 
L 192.082425 188.845135 
L 192.491664 188.833893 
L 192.900904 188.584041 
L 193.719383 187.554646 
L 194.128622 187.127824 
L 194.333242 187.064162 
L 194.537862 187.148279 
L 196.379439 189.009162 
L 196.788679 188.964176 
L 197.402538 188.770539 
L 197.811777 188.666787 
L 198.221017 188.279014 
L 198.834876 187.608975 
L 199.244115 187.480029 
L 199.653355 187.785549 
L 200.267214 188.435053 
L 200.471834 188.480888 
L 200.676453 188.362003 
L 201.085693 187.602743 
L 201.904172 185.713259 
L 202.518031 185.109635 
L 203.13189 183.73279 
L 204.564228 180.309912 
L 205.382707 177.133481 
L 206.610426 171.366256 
L 207.019665 168.808158 
L 207.428904 165.049047 
L 208.042764 157.042659 
L 208.656623 145.560797 
L 209.270482 130.082254 
L 209.884341 107.353476 
L 210.4982 71.167419 
L 211.316679 13.984332 
L 211.521299 5.761261 
L 211.725919 3.00024 
L 211.930538 6.30415 
L 212.339778 28.7219 
L 213.362877 104.842838 
L 213.976736 131.507836 
L 214.590595 146.257664 
L 214.999834 151.827963 
L 215.409074 154.709276 
L 215.613694 155.258296 
L 215.818313 155.319105 
L 216.022933 155.01901 
L 216.636792 153.666114 
L 216.841412 153.661324 
L 217.046032 154.085361 
L 217.455271 155.967245 
L 218.27375 159.95411 
L 218.682989 161.278136 
L 218.887609 161.564084 
L 219.092229 161.629796 
L 219.501468 161.420541 
L 219.706088 161.179266 
L 219.910708 160.68622 
L 220.319947 158.325362 
L 221.138426 151.839036 
L 221.343046 151.210923 
L 221.547666 151.223345 
L 221.752285 151.804847 
L 222.570764 155.242458 
L 222.980004 155.72526 
L 223.184623 155.972749 
L 223.593863 157.203888 
L 224.003102 158.611421 
L 224.412342 159.210717 
L 224.616962 159.091673 
L 224.821581 158.630487 
L 225.230821 156.56765 
L 226.458539 147.271111 
L 226.663159 147.143513 
L 226.867779 147.608497 
L 227.686257 150.473703 
L 228.300117 152.265484 
L 228.709356 154.77047 
L 230.141694 166.533709 
L 230.550934 167.470096 
L 230.755553 167.499066 
L 230.960173 167.252387 
L 231.164793 166.724664 
L 231.574032 164.61272 
L 231.983272 160.997222 
L 232.597131 153.177665 
L 233.00637 147.820018 
L 233.21099 146.127111 
L 233.41561 145.519972 
L 233.620229 146.079978 
L 234.029469 149.825765 
L 234.847948 158.258866 
L 236.689525 171.654154 
L 237.098765 172.584268 
L 237.303385 172.574255 
L 237.508004 172.273169 
L 237.917244 171.030944 
L 238.531103 168.127576 
L 238.940342 165.06472 
L 239.554202 157.989302 
L 240.168061 147.725523 
L 242.214258 106.599282 
L 242.623497 101.974661 
L 242.828117 101.257848 
L 243.032737 101.935437 
L 243.441976 106.668648 
L 244.260455 120.923839 
L 244.874314 135.547322 
L 245.692793 155.121916 
L 246.306653 164.549804 
L 246.920512 170.201834 
L 247.329751 172.452277 
L 247.738991 173.846073 
L 248.35285 175.024734 
L 248.55747 175.206459 
L 248.762089 175.212297 
L 248.966709 175.016172 
L 249.375948 174.076408 
L 249.785188 172.384365 
L 250.194427 169.669224 
L 250.808287 163.414238 
L 251.626765 155.326211 
L 252.240625 151.802191 
L 252.649864 150.506739 
L 252.854484 150.573301 
L 253.059104 151.244969 
L 253.468343 154.08985 
L 256.333019 179.266146 
L 257.151498 182.98001 
L 257.560738 183.891766 
L 258.174597 184.526433 
L 259.402315 186.821255 
L 260.016174 187.989934 
L 260.425414 188.263635 
L 260.834653 188.242888 
L 261.243893 188.03394 
L 261.857752 187.523351 
L 262.471611 187.309784 
L 262.88085 187.40484 
L 263.49471 187.829157 
L 264.313189 187.983658 
L 265.336287 187.993294 
L 265.745527 187.844052 
L 266.154766 187.320989 
L 267.791724 184.530877 
L 267.996344 184.539869 
L 268.405583 185.114629 
L 269.224062 186.641086 
L 269.428682 186.69747 
L 269.837921 186.431174 
L 270.6564 185.623299 
L 271.06564 185.614249 
L 271.474879 185.583571 
L 272.702597 185.102284 
L 273.316456 185.229119 
L 273.521076 185.08502 
L 273.930316 184.316567 
L 274.544175 182.964223 
L 275.158034 181.693811 
L 276.590372 177.408981 
L 277.613471 172.604983 
L 278.22733 168.454691 
L 279.045809 161.208739 
L 279.659668 153.472307 
L 280.273527 142.113967 
L 280.887386 124.34365 
L 281.501246 99.357305 
L 282.524344 53.272934 
L 282.933584 42.771776 
L 283.342823 38.258099 
L 283.547443 37.616634 
L 283.752063 37.926551 
L 283.956682 39.417498 
L 284.161302 42.470261 
L 284.570541 54.112921 
L 285.79826 101.176276 
L 286.207499 108.46351 
L 286.412119 110.119563 
L 286.616739 110.576823 
L 286.821358 109.953609 
L 287.230598 106.207179 
L 289.072175 82.960076 
L 289.276795 82.493946 
L 289.481415 83.41176 
L 289.686035 85.915023 
L 290.095274 94.872703 
L 290.913753 113.321609 
L 291.732232 129.247944 
L 292.95995 158.510842 
L 293.573809 167.289137 
L 294.187669 172.385804 
L 294.801528 175.621136 
L 295.210767 176.834045 
L 295.620007 177.299798 
L 295.824626 177.277141 
L 296.438486 176.907028 
L 296.847725 177.081326 
L 297.666204 178.071202 
L 298.075443 178.847175 
L 298.484683 180.278582 
L 299.507782 184.798982 
L 300.121641 185.931553 
L 300.53088 186.477622 
L 300.94012 186.651383 
L 301.553979 186.713506 
L 302.372458 187.065815 
L 303.600176 186.903463 
L 305.032514 187.950053 
L 306.464852 189.52105 
L 306.874092 189.64169 
L 308.920289 189.334194 
L 310.352627 189.521942 
L 310.761866 189.31899 
L 310.966486 189.338953 
L 311.375726 189.735583 
L 312.603444 191.299857 
L 313.012683 191.969211 
L 313.217303 192.079785 
L 313.626543 191.874557 
L 314.240402 191.448836 
L 314.854261 191.037878 
L 315.46812 190.636536 
L 315.87736 190.685429 
L 316.286599 190.787783 
L 316.695839 190.523335 
L 317.309698 189.930512 
L 317.718937 189.734825 
L 318.332796 189.57338 
L 319.151275 189.166055 
L 319.969754 189.265452 
L 320.788233 188.890799 
L 321.402092 189.271666 
L 321.811332 189.096854 
L 323.652909 187.670936 
L 324.062149 187.672728 
L 324.880628 187.25156 
L 325.289867 187.690132 
L 325.903726 188.351396 
L 327.336064 189.033186 
L 328.154543 188.800865 
L 328.563783 189.118883 
L 329.177642 189.677997 
L 329.586881 189.599324 
L 330.40536 189.236218 
L 331.019219 188.601003 
L 331.223839 188.550518 
L 332.042318 188.835941 
L 332.860797 188.061934 
L 333.270036 188.321162 
L 333.679276 188.943591 
L 334.088515 189.667014 
L 334.293135 189.833726 
L 334.702375 189.737249 
L 336.339332 188.952281 
L 336.543952 188.908224 
L 336.748572 189.005462 
L 337.157811 189.707633 
L 337.567051 190.51982 
L 337.77167 190.665963 
L 338.590149 190.678996 
L 338.999389 190.696414 
L 339.408628 190.349052 
L 340.022487 189.39503 
L 340.227107 189.285678 
L 340.636347 189.478126 
L 341.045586 189.743829 
L 341.454826 189.710047 
L 342.068685 189.51376 
L 342.477924 189.634334 
L 343.091783 189.976475 
L 343.501023 189.933992 
L 344.114882 189.621776 
L 344.524121 189.837229 
L 344.933361 190.181802 
L 345.54722 190.506803 
L 346.161079 191.209163 
L 346.570319 191.25701 
L 346.979558 190.979436 
L 347.593417 190.358221 
L 348.002657 190.232132 
L 348.616516 190.070405 
L 349.025755 189.947778 
L 349.434995 189.982597 
L 349.844234 189.646589 
L 350.253474 189.148946 
L 350.662713 189.033232 
L 351.276572 189.327666 
L 351.685812 189.799253 
L 353.11815 191.99419 
L 353.32277 192.132266 
L 353.527389 192.077749 
L 354.755108 190.825559 
L 355.164347 190.50198 
L 356.187446 189.363448 
L 356.801305 188.940339 
L 357.619784 187.742325 
L 357.824404 187.613619 
L 358.029023 187.62254 
L 358.847502 188.336932 
L 359.461361 188.910834 
L 360.48446 190.534874 
L 360.8937 190.357407 
L 361.302939 189.947991 
L 361.712178 189.218823 
L 362.121418 188.417202 
L 362.326038 188.235633 
L 362.530657 188.280186 
L 363.349136 189.113437 
L 364.986094 189.45529 
L 365.395334 188.834 
L 366.009193 187.549519 
L 366.418432 187.186582 
L 367.441531 187.160732 
L 367.85077 186.484461 
L 368.26001 185.816868 
L 368.464629 185.710833 
L 369.283108 185.691685 
L 369.896968 185.071811 
L 370.510827 184.250888 
L 370.920066 183.154637 
L 371.943165 179.214713 
L 373.170883 173.788816 
L 373.784742 169.668349 
L 375.012461 158.902203 
L 375.62632 151.01658 
L 376.240179 139.512508 
L 376.854038 122.499722 
L 377.877137 92.069595 
L 378.286376 86.832588 
L 378.490996 86.812793 
L 378.695616 88.358221 
L 379.104855 94.807536 
L 380.537193 122.58468 
L 382.174151 148.267129 
L 382.583391 152.196195 
L 382.99263 154.449624 
L 383.19725 154.943672 
L 383.40187 155.005843 
L 383.606489 154.712309 
L 384.015729 153.438204 
L 384.424968 151.365481 
L 384.834208 148.325585 
L 385.448067 141.566673 
L 386.061926 132.18454 
L 387.085025 112.245206 
L 387.903503 91.81578 
L 389.131222 56.358041 
L 389.335842 54.324859 
L 389.540461 54.728588 
L 389.745081 57.680171 
L 390.15432 70.117776 
L 391.586659 125.131873 
L 392.200518 138.430363 
L 393.223616 153.468224 
L 394.042095 162.807477 
L 394.655954 167.552303 
L 396.702152 178.576432 
L 397.72525 181.666579 
L 398.13449 182.685015 
L 398.543729 183.076902 
L 398.952969 183.315551 
L 399.771448 184.332196 
L 400.999166 185.759319 
L 401.408405 185.969386 
L 403.045363 187.742112 
L 405.5008 190.331495 
L 405.70542 190.426051 
L 405.910039 190.390535 
L 406.933138 189.761644 
L 407.751617 190.289965 
L 408.160856 190.504903 
L 408.570096 190.437702 
L 409.593195 189.606368 
L 410.207054 189.007792 
L 410.411673 188.964166 
L 411.639392 189.529046 
L 412.048631 189.790747 
L 412.457871 190.100565 
L 412.86711 190.079053 
L 413.27635 189.728062 
L 413.890209 188.714457 
L 414.299448 188.213192 
L 414.708688 188.134504 
L 415.527167 188.202214 
L 417.368744 188.557606 
L 417.982603 188.066405 
L 418.801082 187.174803 
L 419.210322 187.112229 
L 419.619561 187.061151 
L 420.23342 186.816546 
L 420.64266 186.952232 
L 421.051899 187.166625 
L 421.256519 187.124254 
L 422.279618 186.127417 
L 422.688857 186.139262 
L 424.325815 186.828172 
L 425.144294 187.408247 
L 425.553533 187.509593 
L 426.167392 187.37394 
L 426.576632 187.721294 
L 426.985871 188.105787 
L 427.59973 188.391343 
L 428.418209 189.109407 
L 429.032069 189.116583 
L 429.441308 188.991558 
L 429.850547 188.627855 
L 430.669026 187.708287 
L 431.692125 186.880652 
L 432.101364 187.000028 
L 433.533703 188.25405 
L 433.738322 188.169417 
L 434.556801 187.377565 
L 434.761421 187.683625 
L 435.989139 191.293169 
L 436.193759 191.364499 
L 436.602998 191.093377 
L 437.216858 190.558395 
L 437.626097 190.469765 
L 438.035337 190.58473 
L 438.444576 190.8615 
L 438.649196 190.865535 
L 439.058435 190.36522 
L 439.876914 189.089033 
L 440.490773 188.274269 
L 440.695393 188.154018 
L 440.900013 188.168012 
L 441.309252 188.558395 
L 441.718492 188.964377 
L 442.127731 189.138129 
L 442.536971 189.155718 
L 444.378548 188.785584 
L 444.992407 188.9465 
L 445.401647 189.075712 
L 446.629365 190.318582 
L 447.652464 191.076018 
L 447.857083 191.000354 
L 448.266323 190.488215 
L 448.880182 189.626228 
L 449.289422 189.511963 
L 449.903281 189.654837 
L 450.1079 189.681499 
L 450.31252 189.570793 
L 450.926379 188.889359 
L 451.335619 188.649141 
L 451.744858 188.003612 
L 452.563337 186.392672 
L 453.586436 185.667654 
L 453.995675 184.754515 
L 454.609534 182.324441 
L 455.223394 179.223852 
L 456.246492 172.354732 
L 456.860351 166.6851 
L 457.67883 156.292143 
L 458.497309 143.084076 
L 459.111168 129.043952 
L 459.725028 107.295357 
L 460.952746 50.399633 
L 461.157366 47.012079 
L 461.361985 47.226678 
L 461.566605 50.622949 
L 461.975845 63.588817 
L 462.998943 99.541391 
L 464.022042 123.320462 
L 465.04514 144.706858 
L 465.659 152.988892 
L 466.272859 158.218838 
L 466.682098 159.882937 
L 466.886718 160.167667 
L 467.091338 160.139352 
L 467.295957 159.812705 
L 467.705197 158.277819 
L 468.114436 155.504015 
L 468.523676 151.285165 
L 469.137535 141.862441 
L 470.774493 110.111805 
L 472.206831 77.032668 
L 472.411451 77.312279 
L 472.61607 80.335462 
L 473.02531 93.394689 
L 474.048408 132.02103 
L 474.662268 145.884894 
L 475.276127 154.802148 
L 476.503845 168.468326 
L 477.117704 173.861019 
L 477.731564 177.092311 
L 478.550042 179.562367 
L 479.573141 182.152066 
L 480.187 183.061653 
L 480.59624 183.742094 
L 481.210099 185.118329 
L 481.414719 185.315953 
L 482.233198 185.429524 
L 482.847057 185.948085 
L 483.051676 185.900666 
L 483.460916 185.45671 
L 484.074775 184.785843 
L 484.484015 184.73206 
L 484.893254 184.992381 
L 485.711733 185.933576 
L 486.325592 186.788133 
L 486.939451 187.767376 
L 487.348691 187.967328 
L 488.576409 188.072649 
L 489.599508 187.445969 
L 490.622606 187.842814 
L 491.031846 188.247585 
L 491.441085 188.720126 
L 491.645705 188.757366 
L 492.464184 188.470948 
L 492.873423 188.582045 
L 494.101142 188.545288 
L 494.715001 188.7114 
L 495.12424 188.680425 
L 496.351959 188.196672 
L 496.761198 188.318023 
L 497.170438 188.742681 
L 497.988917 189.868051 
L 499.012015 190.767123 
L 499.421255 190.843246 
L 499.830494 190.51721 
L 500.853593 188.993879 
L 501.058212 188.9305 
L 501.467452 189.136644 
L 501.876691 189.310054 
L 502.285931 188.960546 
L 502.89979 188.179742 
L 503.309029 188.069886 
L 503.718269 188.430886 
L 504.127508 188.907683 
L 504.536748 188.924232 
L 505.355227 188.676514 
L 505.764466 188.805268 
L 507.196804 190.035433 
L 507.606044 190.238513 
L 508.629142 190.273246 
L 509.038382 189.860402 
L 509.652241 189.048648 
L 509.856861 188.932921 
L 510.2661 189.109424 
L 510.879959 189.50356 
L 511.289199 189.534534 
L 511.698438 189.321027 
L 512.312297 188.838377 
L 513.130776 188.63897 
L 513.949255 188.119673 
L 514.358495 188.102236 
L 514.767734 188.498743 
L 515.381593 189.167063 
L 515.790833 189.265364 
L 516.404692 189.078617 
L 516.813931 189.021647 
L 518.246269 189.206307 
L 518.860129 189.497831 
L 519.883227 190.0831 
L 520.292467 189.879051 
L 520.906326 189.242004 
L 521.315565 189.27536 
L 521.929425 189.661347 
L 522.338664 189.573081 
L 522.747903 189.508168 
L 523.566382 189.911949 
L 524.180242 189.664066 
L 524.589481 189.797835 
L 524.99872 190.156313 
L 525.817199 191.117919 
L 526.226439 191.279132 
L 526.635678 191.024132 
L 527.249537 190.550978 
L 528.068016 190.072337 
L 528.886495 189.251428 
L 529.500354 189.231173 
L 530.318833 189.418882 
L 531.341932 189.715988 
L 532.160411 190.276286 
L 532.56965 190.339054 
L 532.97889 190.211343 
L 533.592749 189.784956 
L 534.411228 189.122913 
L 534.820467 188.965552 
L 535.229707 189.162275 
L 535.638946 189.321903 
L 536.048186 189.332769 
L 536.457425 189.631874 
L 536.866665 189.88239 
L 537.275904 189.712754 
L 538.094383 189.209041 
L 538.708242 189.218771 
L 539.322101 189.455902 
L 540.959059 189.358773 
L 541.982158 189.75064 
L 542.800637 189.669198 
L 543.209876 189.738223 
L 544.232975 189.491833 
L 544.846834 189.036697 
L 546.483792 187.570196 
L 546.688411 187.568797 
L 547.097651 187.899959 
L 547.71151 188.406619 
L 548.12075 188.298569 
L 548.529989 188.135714 
L 548.734609 188.242987 
L 549.553088 189.224789 
L 549.962327 189.244371 
L 550.371567 189.040976 
L 551.190045 188.54113 
L 551.599285 188.785094 
L 552.008524 189.071851 
L 552.827003 189.086685 
L 553.645482 189.787345 
L 554.259341 189.921011 
L 554.668581 189.595396 
L 555.28244 188.771314 
L 555.691679 188.545658 
L 556.100919 188.549038 
L 556.510158 188.895626 
L 557.124018 189.707313 
L 557.328637 189.785041 
L 557.533257 189.701459 
L 557.942496 189.079162 
L 558.351736 188.378273 
L 558.556356 188.242318 
L 558.965595 188.392029 
L 559.988694 188.943814 
L 561.421032 188.853908 
L 561.625652 188.838231 
L 561.830271 188.948262 
L 562.239511 189.593417 
L 562.64875 190.303145 
L 562.85337 190.478367 
L 563.262609 190.401874 
L 563.671849 190.279542 
L 565.308807 190.406185 
L 565.718046 190.081785 
L 566.127286 189.713394 
L 566.536525 189.648945 
L 568.173483 189.729131 
L 569.401201 190.385237 
L 570.01506 190.271919 
L 570.4243 190.162804 
L 570.833539 190.407608 
L 571.242779 190.723888 
L 571.652018 190.661699 
L 572.879737 189.905824 
L 573.288976 189.358824 
L 573.698215 189.172002 
L 573.902835 189.206408 
L 574.107455 189.355892 
L 574.516694 190.069867 
L 574.925934 190.844661 
L 575.335173 191.085618 
L 575.744413 190.876567 
L 576.153652 190.680935 
L 576.972131 190.907256 
L 577.58599 191.189782 
L 577.99523 190.863665 
L 578.404469 190.461621 
L 578.813709 190.484064 
L 579.222948 190.777146 
L 579.836807 191.440256 
L 580.041427 191.511576 
L 580.246047 191.412064 
L 581.269145 190.182957 
L 582.906103 189.646551 
L 583.315343 189.478487 
L 583.724582 189.622565 
L 584.133821 189.856859 
L 584.338441 189.858262 
L 584.747681 189.521683 
L 585.56616 188.28078 
L 585.770779 188.283416 
L 586.180019 188.928439 
L 586.793878 189.993025 
L 587.203117 190.296634 
L 587.612357 190.293623 
L 588.226216 190.234209 
L 588.840075 190.283219 
L 589.453934 190.176807 
L 589.863174 190.49121 
L 590.272413 190.742604 
L 590.681653 190.554676 
L 591.295512 190.102348 
L 592.52323 189.7201 
L 592.93247 189.690548 
L 593.341709 189.980042 
L 594.160188 190.818228 
L 594.774047 191.041354 
L 595.387906 191.094431 
L 595.797146 190.858582 
L 596.615625 190.130456 
L 597.024864 190.04131 
L 597.638723 189.97463 
L 599.071062 189.769126 
L 599.684921 189.816219 
L 600.09416 189.268178 
L 600.708019 188.298904 
L 600.912639 188.259898 
L 601.117259 188.422345 
L 601.526498 189.146834 
L 602.140357 190.427796 
L 602.344977 190.61469 
L 602.549597 190.56515 
L 602.958836 189.945899 
L 603.368076 189.298231 
L 603.777315 189.087814 
L 604.186555 189.209409 
L 605.005034 189.564276 
L 605.618893 189.581522 
L 606.028132 189.924728 
L 606.437372 190.369861 
L 606.641991 190.401525 
L 607.051231 190.09349 
L 607.66509 189.644452 
L 607.86971 189.667076 
L 608.278949 190.092534 
L 608.688189 190.52919 
L 608.892808 190.534834 
L 609.302048 190.056223 
L 609.711287 189.503534 
L 609.915907 189.448873 
L 610.325147 189.779245 
L 610.939006 190.587351 
L 611.143625 190.681104 
L 611.348245 190.632781 
L 611.757485 190.218042 
L 612.371344 189.506153 
L 612.780583 189.35858 
L 614.212921 189.492693 
L 614.622161 189.68998 
L 615.0314 189.554371 
L 615.645259 189.148186 
L 616.054499 189.225286 
L 616.668358 189.949625 
L 617.077598 190.43001 
L 617.486837 190.604087 
L 617.896076 190.454509 
L 618.714555 189.973439 
L 619.328414 189.802928 
L 620.146893 189.769199 
L 620.965372 189.529569 
L 622.39771 188.512435 
L 622.80695 188.263478 
L 623.830048 188.075218 
L 624.443908 187.581057 
L 624.648527 187.618691 
L 625.057767 188.177775 
L 625.671626 189.305168 
L 626.080865 189.598431 
L 626.899344 189.803006 
L 627.308584 189.928406 
L 627.717823 189.55173 
L 628.331682 188.874212 
L 628.945542 188.45054 
L 629.354781 188.507179 
L 629.96864 188.916307 
L 630.37788 188.836697 
L 630.991739 188.452805 
L 631.400978 188.386501 
L 631.810218 188.505264 
L 633.242556 189.161833 
L 633.651795 188.717726 
L 634.061035 188.272844 
L 634.674894 188.188946 
L 635.084133 188.325365 
L 635.493373 188.934346 
L 636.107232 189.891855 
L 636.516472 190.070208 
L 636.925711 189.654719 
L 637.33495 189.117242 
L 637.74419 188.932075 
L 638.767289 188.919027 
L 639.176528 189.106146 
L 639.790387 189.68346 
L 640.813486 190.960548 
L 641.222725 191.08539 
L 641.631965 190.892667 
L 642.655063 190.0222 
L 643.882782 189.988276 
L 644.701261 190.059239 
L 645.1105 189.917322 
L 646.133599 189.055271 
L 646.952078 187.936713 
L 647.156697 187.902056 
L 647.770557 188.079841 
L 648.793655 187.489192 
L 649.202895 187.884261 
L 650.021374 189.158704 
L 650.430613 189.314476 
L 650.839852 189.021295 
L 651.249092 188.768826 
L 651.658331 189.012935 
L 652.067571 189.350953 
L 652.272191 189.352664 
L 652.68143 188.981989 
L 653.090669 188.563767 
L 653.499909 188.416059 
L 653.704529 188.463589 
L 654.113768 188.908539 
L 655.341486 190.863691 
L 655.750726 191.025468 
L 656.159965 190.854724 
L 656.773825 190.314512 
L 657.183064 189.722004 
L 657.796923 188.76666 
L 658.001543 188.729463 
L 659.84312 189.635714 
L 660.866219 189.311689 
L 661.275458 189.621648 
L 663.117036 191.500201 
L 663.526275 191.554581 
L 663.935515 191.359749 
L 664.753994 190.536534 
L 664.958614 190.513462 
L 665.367853 190.797625 
L 665.777092 191.138855 
L 666.186332 191.062964 
L 666.800191 190.516292 
L 667.209431 189.848311 
L 667.82329 188.686862 
L 668.027909 188.665035 
L 668.437149 189.230612 
L 668.846388 189.859002 
L 669.051008 189.977061 
L 669.255628 189.921613 
L 670.278726 188.889525 
L 670.892586 188.958133 
L 671.301825 188.595685 
L 671.711065 188.278221 
L 671.915684 188.325534 
L 672.324924 188.80967 
L 672.734163 189.33863 
L 673.552642 189.943387 
L 674.166501 190.594096 
L 674.575741 190.615321 
L 675.598839 190.343414 
L 676.008079 190.430262 
L 677.031177 190.186692 
L 678.054276 190.455614 
L 678.872755 190.982238 
L 679.281994 191.08974 
L 679.691234 190.827085 
L 680.509713 189.842415 
L 681.328192 188.567525 
L 681.737431 188.444278 
L 682.146671 188.767899 
L 682.96515 189.666215 
L 683.374389 189.81692 
L 685.420586 189.262412 
L 685.829826 189.590785 
L 686.443685 190.362524 
L 686.852924 190.507414 
L 687.262164 190.205379 
L 687.876023 189.54099 
L 688.080643 189.563724 
L 688.899122 189.984874 
L 689.308361 189.575635 
L 690.33146 188.11546 
L 690.740699 187.81164 
L 691.354558 187.718836 
L 691.968418 187.641092 
L 692.377657 187.325512 
L 693.196136 186.119867 
L 694.014615 184.673853 
L 694.423854 183.366531 
L 695.037713 180.286748 
L 695.856192 174.718891 
L 696.470051 168.870602 
L 697.28853 157.177977 
L 699.334728 125.090193 
L 699.743967 122.88809 
L 699.948587 122.647173 
L 700.153207 122.941282 
L 700.357826 123.778219 
L 700.767066 127.05936 
L 701.380925 135.230662 
L 702.608643 153.830159 
L 703.222502 160.355271 
L 704.245601 168.234689 
L 705.2687 174.530071 
L 705.882559 176.818491 
L 707.724136 182.252632 
L 708.133376 183.068736 
L 708.951855 184.018956 
L 709.565714 184.488736 
L 710.384193 184.756237 
L 710.998052 184.873945 
L 711.407292 185.169252 
L 711.816531 185.782441 
L 712.43039 186.793088 
L 712.83963 187.135395 
L 713.248869 187.253178 
L 713.658109 187.121459 
L 714.067348 186.9279 
L 714.476587 187.105806 
L 714.885827 187.275614 
L 715.499686 187.328371 
L 715.908926 187.758201 
L 716.727404 188.785765 
L 717.341264 189.165149 
L 717.750503 189.163992 
L 718.773602 188.584657 
L 719.182841 188.571433 
L 719.592081 188.210901 
L 720.00132 187.798526 
L 720.41056 187.771985 
L 720.819799 187.991016 
L 721.229038 188.264675 
L 721.433658 188.265225 
L 722.456757 187.741803 
L 722.865996 187.624179 
L 723.479855 187.351834 
L 724.298334 187.328561 
L 724.707574 187.248181 
L 725.116813 187.382776 
L 726.139912 188.170163 
L 726.958391 187.969541 
L 727.36763 188.369773 
L 728.186109 189.704149 
L 728.390729 189.812101 
L 728.595349 189.747563 
L 729.413828 189.116902 
L 730.027687 189.227802 
L 730.846166 188.816789 
L 731.255405 188.97986 
L 732.073884 189.616824 
L 732.483123 189.675855 
L 732.892363 189.675389 
L 733.301602 189.855624 
L 733.915462 190.185741 
L 734.324701 189.805083 
L 734.93856 189.065336 
L 735.552419 188.36269 
L 736.166278 187.393433 
L 736.370898 187.315076 
L 736.780138 187.587756 
L 737.393997 188.048845 
L 737.803236 188.11319 
L 738.212476 187.863281 
L 738.826335 187.415049 
L 739.235574 187.313244 
L 739.644814 187.389082 
L 740.258673 187.767032 
L 740.872532 188.637151 
L 741.281772 189.026383 
L 741.691011 188.941194 
L 742.30487 188.651248 
L 742.71411 188.859643 
L 743.123349 189.09933 
L 744.146448 189.316597 
L 744.555687 189.758579 
L 745.169546 190.544299 
L 745.578786 190.634178 
L 746.192645 190.577762 
L 746.806504 190.873419 
L 747.829603 191.428994 
L 748.443462 191.240212 
L 748.852702 190.938057 
L 749.466561 189.956823 
L 749.8758 189.311351 
L 750.28504 189.064493 
L 750.898899 189.144137 
L 751.308138 189.486553 
L 751.921997 190.156775 
L 752.331237 190.137223 
L 752.945096 189.880557 
L 754.377434 190.31749 
L 755.195913 190.772614 
L 756.014392 190.979531 
L 756.423631 191.100154 
L 756.832871 190.69193 
L 757.24211 190.201572 
L 757.44673 190.137448 
L 757.85597 190.311578 
L 758.879068 190.872297 
L 759.697547 190.727341 
L 760.311406 190.291293 
L 761.129885 189.748447 
L 762.766843 189.362251 
L 763.585322 188.568035 
L 764.403801 188.946626 
L 765.01766 188.513015 
L 765.426899 188.251069 
L 765.836139 188.325111 
L 766.654618 188.932374 
L 767.268477 188.817574 
L 767.882336 188.613099 
L 768.291576 188.434939 
L 768.700815 188.15573 
L 769.110055 188.202132 
L 769.519294 188.497448 
L 770.133153 189.143716 
L 770.337773 189.226634 
L 770.747012 189.010796 
L 771.156252 188.676085 
L 771.360872 188.696984 
L 771.770111 189.080323 
L 772.38397 189.707672 
L 772.997829 190.274545 
L 773.816308 191.264948 
L 774.020928 191.374357 
L 774.225548 191.356333 
L 774.634787 190.864025 
L 775.044027 190.230969 
L 775.453266 190.009516 
L 775.862505 190.11514 
L 776.271745 190.316651 
L 776.476365 190.299644 
L 776.885604 189.91489 
L 777.294844 189.549001 
L 777.499463 189.547281 
L 777.908703 189.857237 
L 778.522562 190.380574 
L 779.136421 190.58983 
L 779.545661 190.44863 
L 781.182618 189.545663 
L 781.591858 189.767875 
L 782.819576 191.08677 
L 783.228816 190.837343 
L 784.047295 190.086817 
L 784.661154 189.951468 
L 785.275013 189.714716 
L 785.684252 189.570575 
L 786.093492 189.651337 
L 786.911971 189.920726 
L 787.32121 189.655526 
L 787.73045 189.34761 
L 787.935069 189.351347 
L 788.344309 189.672393 
L 788.958168 190.195369 
L 789.162788 190.252086 
L 789.367407 190.164934 
L 789.981267 189.314214 
L 790.595126 188.538505 
L 790.799746 188.480593 
L 791.004365 188.539934 
L 791.413605 189.033973 
L 792.232084 190.474932 
L 792.641323 190.569011 
L 793.050563 190.325961 
L 793.664422 189.564798 
L 794.278281 188.827868 
L 794.482901 188.733552 
L 794.68752 188.774328 
L 795.915239 189.6656 
L 798.166056 189.918066 
L 798.779915 189.620768 
L 799.189154 189.479248 
L 799.803014 189.498734 
L 800.621492 189.001172 
L 801.439971 189.276502 
L 801.849211 189.008488 
L 803.281549 187.534747 
L 803.690788 187.565083 
L 804.509267 188.06406 
L 804.918507 187.932474 
L 805.327746 187.882526 
L 805.736986 188.226654 
L 806.350845 188.807986 
L 806.760084 188.937122 
L 807.169324 188.956646 
L 807.783183 189.370442 
L 808.192422 189.489228 
L 808.601662 189.241277 
L 809.215521 188.783217 
L 809.62476 188.945598 
L 810.23862 189.465182 
L 810.443239 189.450564 
L 810.852479 188.85589 
L 811.875577 186.671365 
L 812.080197 186.547169 
L 812.284817 186.606445 
L 812.694056 187.042921 
L 813.512535 188.06166 
L 814.740254 189.184746 
L 815.558732 189.278714 
L 816.377211 189.597111 
L 816.786451 189.664442 
L 817.19569 189.814813 
L 817.40031 189.744363 
L 818.423409 188.643724 
L 818.832648 188.593874 
L 819.855747 188.90463 
L 820.469606 188.835761 
L 821.083465 188.596279 
L 821.492705 188.71768 
L 822.720423 189.437287 
L 823.538902 189.495517 
L 824.152761 189.270628 
L 824.562 188.946814 
L 825.17586 188.252714 
L 825.380479 188.367414 
L 825.789719 189.259824 
L 826.198958 190.253969 
L 826.403578 190.455672 
L 826.608198 190.408727 
L 827.017437 189.918949 
L 828.449775 187.848563 
L 829.268254 187.342047 
L 829.472874 187.445981 
L 830.291353 188.263018 
L 830.700592 188.166904 
L 831.519071 187.704871 
L 832.951409 187.490578 
L 833.360649 187.756912 
L 834.179128 188.611072 
L 834.588367 189.040561 
L 834.997607 189.042986 
L 835.611466 188.825855 
L 836.429945 188.760275 
L 836.839184 188.398287 
L 837.248424 187.911174 
L 837.453043 187.855668 
L 837.657663 188.021767 
L 838.476142 189.508552 
L 838.680762 189.574899 
L 839.70386 189.315706 
L 840.1131 189.567239 
L 841.545438 190.598988 
L 841.954677 190.225179 
L 842.568536 189.492812 
L 843.796255 188.845161 
L 844.410114 188.831959 
L 844.614734 188.821652 
L 844.819353 188.94859 
L 845.637832 189.926194 
L 845.842452 189.754166 
L 846.251692 188.835144 
L 846.660931 187.987116 
L 847.07017 187.812564 
L 847.68403 187.853228 
L 848.093269 187.608129 
L 848.911748 186.986306 
L 849.320987 186.904478 
L 849.730227 187.018026 
L 850.344086 187.577766 
L 850.753325 187.829125 
L 851.367185 187.786882 
L 851.776424 187.623093 
L 852.390283 187.166425 
L 852.799523 187.299777 
L 853.208762 187.455606 
L 853.618002 187.493444 
L 854.231861 187.69534 
L 854.6411 187.301369 
L 855.05034 187.012532 
L 855.459579 187.282462 
L 856.482678 187.975597 
L 857.505776 188.489195 
L 857.915016 188.247249 
L 858.324255 187.932784 
L 858.733495 187.887432 
L 859.142734 187.918241 
L 859.551974 187.681725 
L 860.779692 186.384282 
L 861.188932 186.5462 
L 861.598171 186.873804 
L 861.802791 186.87679 
L 862.21203 186.44527 
L 862.62127 185.949476 
L 863.030509 185.779783 
L 864.258227 186.102737 
L 864.872087 186.499808 
L 866.099805 186.675699 
L 866.713664 186.436941 
L 867.532143 186.425044 
L 867.941383 186.284654 
L 868.350622 186.458455 
L 869.169101 187.305568 
L 871.215298 187.424124 
L 871.624538 187.121894 
L 872.852256 185.919537 
L 873.261495 185.938903 
L 873.875355 186.237196 
L 874.693834 186.748569 
L 875.103073 186.804776 
L 875.716932 186.80437 
L 876.126172 186.86084 
L 876.535411 186.735069 
L 877.35389 186.217247 
L 877.763129 185.891832 
L 878.376989 185.744935 
L 878.786228 185.80096 
L 880.013946 186.430702 
L 881.446285 185.931285 
L 883.697102 183.484788 
L 884.106341 183.081491 
L 885.12944 182.939716 
L 885.743299 182.768058 
L 886.561778 182.312793 
L 887.584876 180.886662 
L 888.812595 179.291006 
L 889.426454 178.998522 
L 889.835693 178.928144 
L 890.244933 179.172917 
L 891.063412 179.691938 
L 891.677271 180.014975 
L 891.881891 179.971593 
L 892.29113 179.493162 
L 892.700369 178.570196 
L 893.928088 175.264328 
L 894.132708 175.070298 
L 894.337327 175.049836 
L 895.155806 175.410147 
L 895.565046 174.902567 
L 898.225102 170.033856 
L 899.043581 169.42504 
L 899.45282 168.475501 
L 900.06668 165.726603 
L 901.089778 160.704656 
L 901.294398 160.283113 
L 901.499018 160.238523 
L 901.703637 160.543118 
L 902.317497 162.391578 
L 902.931356 164.000486 
L 903.340595 164.520092 
L 903.749835 164.651661 
L 904.363694 164.725715 
L 905.182173 165.021107 
L 905.591412 164.759947 
L 906.205271 163.735563 
L 906.614511 163.138925 
L 906.819131 163.06905 
L 907.63761 163.464587 
L 908.046849 163.108455 
L 908.865328 161.95572 
L 909.274567 161.852264 
L 909.888427 161.799097 
L 910.297666 161.574224 
L 911.116145 160.908471 
L 911.320765 160.90867 
L 911.730004 161.285519 
L 912.139244 161.703909 
L 912.753103 162.082841 
L 913.162342 162.451345 
L 913.571582 162.49908 
L 914.185441 162.244045 
L 914.59468 161.895505 
L 915.208539 160.908003 
L 915.617779 160.238772 
L 915.822399 160.123751 
L 916.027018 160.282115 
L 916.436258 161.237297 
L 916.845497 162.223448 
L 917.050117 162.327049 
L 917.254737 161.988947 
L 918.277835 158.685025 
L 918.687075 158.478971 
L 918.891695 158.189826 
L 919.096314 157.552647 
L 919.505554 154.720879 
L 919.914793 149.498631 
L 920.528652 140.294587 
L 920.733272 139.033877 
L 920.937892 139.608966 
L 921.347131 145.491021 
L 921.96099 156.316057 
L 922.37023 160.876027 
L 922.779469 163.611005 
L 923.188709 165.213892 
L 923.597948 166.267821 
L 924.007188 166.782476 
L 924.211807 166.816938 
L 924.416427 166.71229 
L 924.825667 166.066115 
L 925.234906 165.420691 
L 925.439526 165.350344 
L 925.848765 165.557258 
L 926.667244 166.076555 
L 927.076484 165.99739 
L 927.690343 165.733045 
L 928.099582 165.836169 
L 929.122681 166.407591 
L 929.53192 166.001808 
L 930.145779 164.965586 
L 930.350399 164.888501 
L 930.555019 165.13888 
L 931.578118 167.560883 
L 931.987357 167.912094 
L 932.396596 167.863517 
L 932.805836 167.377299 
L 933.215075 166.695727 
L 933.419695 166.523635 
L 933.624315 166.555138 
L 934.238174 167.342655 
L 934.852033 168.166504 
L 935.670512 169.842834 
L 936.079752 170.21472 
L 936.488991 170.20458 
L 936.89823 169.972461 
L 937.30747 169.606065 
L 937.716709 169.580687 
L 938.125949 169.610837 
L 938.535188 169.619011 
L 938.944428 170.071322 
L 939.353667 170.505704 
L 939.558287 170.52399 
L 939.967526 170.183386 
L 940.376766 169.807177 
L 940.786005 169.809424 
L 941.195245 170.162574 
L 941.809104 170.77725 
L 942.218343 171.136063 
L 942.627583 171.881445 
L 944.059921 175.139959 
L 944.46916 175.193963 
L 944.8784 175.067512 
L 945.287639 175.2276 
L 945.901498 176.011841 
L 946.310738 176.428506 
L 947.129217 176.82159 
L 948.152315 177.891592 
L 948.561555 177.900005 
L 948.970794 177.796125 
L 949.175414 177.888831 
L 949.584654 178.417136 
L 950.198513 179.276646 
L 950.812372 179.61061 
L 951.426231 179.56259 
L 952.24471 179.203404 
L 952.653949 179.50157 
L 953.677048 180.514386 
L 954.290907 181.362253 
L 954.700147 181.880805 
L 954.904766 181.991625 
L 955.109386 181.949927 
L 955.518626 181.384754 
L 955.927865 180.811234 
L 956.132485 180.736509 
L 956.337105 180.827502 
L 957.155583 181.594447 
L 957.564823 181.419852 
L 957.974062 180.977127 
L 958.383302 180.447808 
L 958.587922 180.35999 
L 958.792541 180.436337 
L 959.201781 180.958376 
L 960.224879 182.742789 
L 960.838739 183.386515 
L 961.861837 183.824017 
L 962.475696 183.791944 
L 963.908034 184.807077 
L 964.726513 185.09674 
L 965.340373 186.266342 
L 965.749612 186.909642 
L 965.954232 187.019583 
L 966.158851 186.957048 
L 966.772711 186.314722 
L 966.97733 186.324002 
L 967.38657 186.850245 
L 968.000429 187.764449 
L 968.409668 187.908695 
L 968.818908 187.861527 
L 969.228147 187.589995 
L 969.842006 187.071463 
L 970.660485 186.769444 
L 971.069725 186.837365 
L 972.092823 187.3601 
L 972.502063 187.85115 
L 972.911302 188.433652 
L 973.115922 188.565992 
L 973.320542 188.53871 
L 974.139021 187.878619 
L 974.54826 187.961068 
L 974.9575 188.258276 
L 975.571359 189.081263 
L 976.185218 189.904252 
L 976.594457 189.97542 
L 977.003697 189.738675 
L 977.617556 189.142953 
L 977.822176 189.099172 
L 978.436035 189.418993 
L 979.049894 189.68899 
L 979.868373 189.482318 
L 980.277613 189.751768 
L 981.505331 191.003599 
L 981.91457 190.816094 
L 982.52843 190.289639 
L 983.142289 189.96482 
L 984.165387 188.947464 
L 984.779247 189.10115 
L 985.188486 189.200757 
L 986.825444 188.978858 
L 987.643923 189.355924 
L 988.462402 190.012848 
L 988.871641 189.869679 
L 989.4855 189.445714 
L 989.89474 189.552209 
L 990.303979 189.672947 
L 990.917838 189.564974 
L 991.940937 189.043639 
L 992.350176 188.996119 
L 992.964036 188.728098 
L 993.168655 188.754691 
L 993.577895 189.149685 
L 993.987134 189.562778 
L 995.010233 189.943773 
L 995.624092 190.44324 
L 996.85181 191.984396 
L 997.26105 191.937866 
L 998.488768 191.023332 
L 999.511867 189.829491 
L 999.921106 189.298946 
L 1000.330346 189.158778 
L 1000.739585 189.080611 
L 1001.353444 188.463641 
L 1002.990402 186.860664 
L 1003.195022 186.912189 
L 1003.604261 187.450702 
L 1004.62736 189.262982 
L 1005.0366 189.457954 
L 1005.445839 189.441166 
L 1006.264318 189.167614 
L 1007.287416 189.387809 
L 1007.696656 189.639246 
L 1008.719755 190.570182 
L 1009.128994 190.563538 
L 1009.947473 190.458905 
L 1010.356712 190.714344 
L 1010.765952 191.031921 
L 1011.78905 191.235616 
L 1012.19829 191.177281 
L 1013.630628 190.319838 
L 1015.472206 189.371725 
L 1016.904544 189.653331 
L 1017.927642 190.254287 
L 1018.336882 189.907615 
L 1018.950741 189.27969 
L 1019.5646 189.007065 
L 1019.97384 189.004171 
L 1020.587699 189.298029 
L 1020.996938 189.146922 
L 1021.406178 188.974012 
L 1021.815417 189.115404 
L 1022.224657 189.250663 
L 1022.633896 189.057858 
L 1023.043135 188.808677 
L 1023.247755 188.81541 
L 1023.656995 189.202714 
L 1024.066234 189.601884 
L 1024.475474 189.641988 
L 1025.293952 189.191962 
L 1025.703192 189.522785 
L 1026.112431 189.815643 
L 1026.521671 189.633596 
L 1027.34015 189.041069 
L 1027.749389 189.137201 
L 1028.772488 190.019745 
L 1029.386347 190.799453 
L 1029.590967 190.88562 
L 1029.795586 190.814835 
L 1030.204826 190.200343 
L 1031.227925 187.909531 
L 1032.046403 187.95381 
L 1032.455643 187.654694 
L 1032.660263 187.629841 
L 1033.069502 187.953105 
L 1033.683361 188.542069 
L 1034.092601 188.537263 
L 1035.320319 187.809942 
L 1035.934178 187.755103 
L 1036.138798 187.897481 
L 1037.366516 189.513071 
L 1037.980376 189.646408 
L 1038.798854 189.922849 
L 1039.412714 190.088382 
L 1039.617333 189.983058 
L 1040.026573 189.369888 
L 1040.640432 188.456715 
L 1040.845052 188.334728 
L 1041.049671 188.346743 
L 1041.254291 188.49987 
L 1041.663531 189.260265 
L 1042.27739 190.61239 
L 1042.891249 191.530695 
L 1043.505108 192.509385 
L 1043.709728 192.50657 
L 1044.118967 191.939281 
L 1044.937446 190.299331 
L 1045.346686 189.987757 
L 1045.960545 189.900531 
L 1047.188263 189.86734 
L 1049.029841 188.931141 
L 1049.43908 189.129958 
L 1051.485277 191.022757 
L 1051.689897 191.063837 
L 1051.894517 190.989728 
L 1052.303756 190.416242 
L 1053.122235 188.849559 
L 1053.531475 188.535445 
L 1053.940714 188.68135 
L 1054.759193 189.15385 
L 1055.373052 189.38369 
L 1055.782292 189.189851 
L 1056.396151 188.868923 
L 1056.600771 188.900154 
L 1057.01001 189.294918 
L 1057.623869 190.137187 
L 1058.033109 190.389028 
L 1058.851588 190.636472 
L 1059.465447 191.010349 
L 1059.874686 190.972206 
L 1060.897785 190.59883 
L 1062.330123 190.906481 
L 1062.739362 190.74241 
L 1063.148602 190.219953 
L 1063.762461 189.161266 
L 1064.171701 188.976773 
L 1064.58094 189.200123 
L 1065.808658 190.531249 
L 1066.013278 190.530287 
L 1066.422518 190.212882 
L 1067.036377 189.406363 
L 1067.240996 189.386613 
L 1067.650236 189.949814 
L 1068.059475 190.560759 
L 1068.264095 190.668692 
L 1068.468715 190.61451 
L 1068.877954 190.150948 
L 1069.287194 189.625697 
L 1069.696433 189.453499 
L 1070.924152 189.6561 
L 1071.333391 189.568059 
L 1071.94725 189.834782 
L 1072.970349 189.814557 
L 1073.584208 190.285791 
L 1073.993447 190.121825 
L 1075.221166 189.508438 
L 1075.425786 189.563611 
L 1076.653504 190.741945 
L 1077.267363 191.479903 
L 1077.676603 191.558357 
L 1078.085842 191.147611 
L 1079.108941 189.734657 
L 1080.950518 188.542617 
L 1081.359758 188.772891 
L 1082.178237 189.390357 
L 1083.610575 189.633484 
L 1084.224434 189.977649 
L 1084.633673 189.92322 
L 1085.042913 189.831263 
L 1085.452152 189.955866 
L 1086.475251 190.478699 
L 1087.08911 190.355336 
L 1087.498349 190.236691 
L 1087.907589 190.4157 
L 1088.316828 191.040706 
L 1088.726068 191.619861 
L 1088.930687 191.665545 
L 1089.339927 191.351401 
L 1089.953786 190.552237 
L 1090.772265 189.287999 
L 1092.204603 188.497252 
L 1093.023082 188.671402 
L 1094.66004 188.336886 
L 1095.478519 187.932508 
L 1095.887758 188.063122 
L 1096.706237 188.59773 
L 1097.115477 188.355476 
L 1097.524716 188.07751 
L 1097.933955 188.052988 
L 1098.343195 188.28535 
L 1098.752434 188.704655 
L 1099.366294 189.513236 
L 1100.184772 189.823568 
L 1100.594012 189.654883 
L 1101.207871 188.895919 
L 1102.02635 187.638298 
L 1102.640209 187.242117 
L 1103.049449 187.410909 
L 1103.458688 187.875209 
L 1104.072547 188.682714 
L 1104.481787 188.93034 
L 1105.300266 189.22331 
L 1106.323364 190.289087 
L 1107.141843 190.575119 
L 1107.551083 190.14928 
L 1107.960322 189.615698 
L 1108.369562 189.485797 
L 1108.983421 189.678858 
L 1109.39266 189.547825 
L 1110.006519 189.318955 
L 1110.620379 189.551516 
L 1111.438857 189.893877 
L 1112.052717 189.943428 
L 1112.871196 190.444213 
L 1113.280435 190.669774 
L 1114.098914 191.564602 
L 1114.303534 191.562377 
L 1115.326632 190.892715 
L 1115.940491 190.790866 
L 1116.349731 190.271135 
L 1117.16821 189.105236 
L 1117.577449 188.92891 
L 1117.986689 188.958098 
L 1118.395928 189.367111 
L 1119.009787 190.128371 
L 1119.419027 190.327135 
L 1119.828266 190.150549 
L 1120.442125 189.771989 
L 1120.851365 189.6029 
L 1121.260604 189.11997 
L 1122.283703 187.208632 
L 1122.488323 187.161565 
L 1122.692942 187.255444 
L 1123.102182 187.781008 
L 1123.511421 188.326044 
L 1123.716041 188.415992 
L 1124.73914 188.2674 
L 1125.148379 188.528393 
L 1125.966858 189.62427 
L 1126.580717 189.782588 
L 1127.808436 190.820791 
L 1128.217675 190.859827 
L 1129.036154 190.480984 
L 1129.650013 190.381512 
L 1130.263872 190.126189 
L 1130.877731 189.996821 
L 1131.286971 189.525061 
L 1131.69621 188.964637 
L 1132.10545 188.781966 
L 1132.719309 188.67498 
L 1133.537788 188.867677 
L 1134.151647 188.851824 
L 1136.402464 189.63572 
L 1136.811704 189.740003 
L 1137.630182 189.516685 
L 1138.039422 189.147095 
L 1138.448661 188.792475 
L 1138.653281 188.794464 
L 1139.062521 189.164972 
L 1139.67638 189.802125 
L 1139.880999 189.824838 
L 1140.290239 189.549139 
L 1140.699478 189.197589 
L 1140.904098 189.216797 
L 1141.313338 189.662143 
L 1141.722577 190.142191 
L 1141.927197 190.210135 
L 1142.950295 189.927849 
L 1143.768774 190.108253 
L 1144.178014 189.852067 
L 1144.791873 189.385054 
L 1145.405732 189.157118 
L 1145.814972 189.315273 
L 1146.83807 189.964845 
L 1147.04269 189.952469 
L 1147.451929 189.471418 
L 1148.270408 188.109713 
L 1148.475028 188.072424 
L 1149.293507 188.589955 
L 1149.702746 188.295643 
L 1150.316606 187.891691 
L 1150.725845 187.893654 
L 1152.772042 188.416528 
L 1153.385901 188.399695 
L 1153.999761 188.581483 
L 1154.409 188.509336 
L 1154.81824 188.701613 
L 1155.636718 189.4252 
L 1156.045958 189.817747 
L 1156.250578 189.859592 
L 1156.659817 189.59464 
L 1157.682916 188.86272 
L 1158.092155 188.925306 
L 1159.319874 189.762356 
L 1159.933733 190.606186 
L 1160.138352 190.726621 
L 1160.547592 190.604682 
L 1161.97993 189.885371 
L 1162.389169 190.007613 
L 1162.798409 190.316126 
L 1163.003029 190.321134 
L 1163.412268 189.967348 
L 1163.821507 189.624751 
L 1164.230747 189.667794 
L 1164.639986 189.842337 
L 1165.049226 189.800172 
L 1166.276944 189.213199 
L 1166.890803 189.137002 
L 1167.300043 189.295093 
L 1168.323141 189.913233 
L 1169.34624 190.042056 
L 1170.778578 191.255963 
L 1171.187818 191.313731 
L 1171.597057 191.113057 
L 1172.415536 190.57945 
L 1172.824775 190.423461 
L 1173.029395 190.466333 
L 1173.438635 190.876201 
L 1173.847874 191.287161 
L 1174.257114 191.264911 
L 1174.870973 191.079916 
L 1175.280212 190.98113 
L 1176.098691 190.442353 
L 1176.91717 190.308426 
L 1177.326409 190.175914 
L 1178.144888 189.626084 
L 1178.554128 190.066212 
L 1179.167987 190.711646 
L 1179.372607 190.719478 
L 1179.781846 190.330908 
L 1180.395705 189.466566 
L 1180.804945 189.423223 
L 1181.214184 189.524031 
L 1181.828043 189.343558 
L 1182.441903 189.170081 
L 1183.260382 189.107789 
L 1183.874241 188.703311 
L 1184.4881 188.255668 
L 1184.897339 188.285673 
L 1184.897339 188.285673 
" clip-path="url(#p49f6d73a82)" style="fill: none; stroke: #000000; stroke-width: 2; stroke-linecap: square"/>
   </g>
   <g id="patch_3">
    <path d="M 3.00024 198.907885 
L 1184.99976 198.907885 
" style="fill: none; stroke: #000000; stroke-width: 2; stroke-linejoin: miter; stroke-linecap: square"/>
   </g>
  </g>
 </g>
 <defs>
  <clipPath id="p49f6d73a82">
   <rect x="3.00024" y="3.00024" width="1181.99952" height="195.907645"/>
  </clipPath>
 </defs>
</svg>
