<?xml version="1.0" encoding="utf-8" standalone="no"?>
<!DOCTYPE svg PUBLIC "-//W3C//DTD SVG 1.1//EN"
  "http://www.w3.org/Graphics/SVG/1.1/DTD/svg11.dtd">
<svg xmlns:xlink="http://www.w3.org/1999/xlink" width="1188pt" height="252pt" viewBox="0 0 1188 252" xmlns="http://www.w3.org/2000/svg" version="1.1">
 <metadata>
  <rdf:RDF xmlns:dc="http://purl.org/dc/elements/1.1/" xmlns:cc="http://creativecommons.org/ns#" xmlns:rdf="http://www.w3.org/1999/02/22-rdf-syntax-ns#">
   <cc:Work>
    <dc:type rdf:resource="http://purl.org/dc/dcmitype/StillImage"/>
    <dc:date>2024-05-13T16:40:23.876842</dc:date>
    <dc:format>image/svg+xml</dc:format>
    <dc:creator>
     <cc:Agent>
      <dc:title>Matplotlib v3.8.0, https://matplotlib.org/</dc:title>
     </cc:Agent>
    </dc:creator>
   </cc:Work>
  </rdf:RDF>
 </metadata>
 <defs>
  <style type="text/css">*{stroke-linejoin: round; stroke-linecap: butt}</style>
 </defs>
 <g id="figure_1">
  <g id="patch_1">
   <path d="M 0 252 
L 1188 252 
L 1188 0 
L 0 0 
z
" style="fill: #ffffff"/>
  </g>
  <g id="axes_1">
   <g id="patch_2">
    <path d="M 3.00024 198.907885 
L 1184.99976 198.907885 
L 1184.99976 3.00024 
L 3.00024 3.00024 
z
" style="fill: #ffffff"/>
   </g>
   <g id="matplotlib.axis_1">
    <g id="xtick_1">
     <g id="line2d_1">
      <defs>
       <path id="m05d972a4a3" d="M 0 0 
L 0 8 
" style="stroke: #000000; stroke-width: 2"/>
      </defs>
      <g>
       <use xlink:href="#m05d972a4a3" x="1131.272509" y="198.907885" style="stroke: #000000; stroke-width: 2"/>
      </g>
     </g>
     <g id="text_1">
      <!-- 0 -->
      <g transform="translate(1126.267665 224.791947) scale(0.18 -0.18)">
       <defs>
        <path id="Arial-BoldMT-30" d="M 1756 4600 
Q 2422 4600 2797 4125 
Q 3244 3563 3244 2259 
Q 3244 959 2794 391 
Q 2422 -78 1756 -78 
Q 1088 -78 678 436 
Q 269 950 269 2269 
Q 269 3563 719 4131 
Q 1091 4600 1756 4600 
z
M 1756 3872 
Q 1597 3872 1472 3770 
Q 1347 3669 1278 3406 
Q 1188 3066 1188 2259 
Q 1188 1453 1269 1151 
Q 1350 850 1473 750 
Q 1597 650 1756 650 
Q 1916 650 2041 751 
Q 2166 853 2234 1116 
Q 2325 1453 2325 2259 
Q 2325 3066 2244 3367 
Q 2163 3669 2039 3770 
Q 1916 3872 1756 3872 
z
" transform="scale(0.015625)"/>
       </defs>
       <use xlink:href="#Arial-BoldMT-30"/>
      </g>
     </g>
    </g>
    <g id="xtick_2">
     <g id="line2d_2">
      <g>
       <use xlink:href="#m05d972a4a3" x="1023.818007" y="198.907885" style="stroke: #000000; stroke-width: 2"/>
      </g>
     </g>
     <g id="text_2">
      <!-- 1 -->
      <g transform="translate(1018.813164 224.791947) scale(0.18 -0.18)">
       <defs>
        <path id="Arial-BoldMT-31" d="M 2519 0 
L 1641 0 
L 1641 3309 
Q 1159 2859 506 2644 
L 506 3441 
Q 850 3553 1253 3867 
Q 1656 4181 1806 4600 
L 2519 4600 
L 2519 0 
z
" transform="scale(0.015625)"/>
       </defs>
       <use xlink:href="#Arial-BoldMT-31"/>
      </g>
     </g>
    </g>
    <g id="xtick_3">
     <g id="line2d_3">
      <g>
       <use xlink:href="#m05d972a4a3" x="916.363505" y="198.907885" style="stroke: #000000; stroke-width: 2"/>
      </g>
     </g>
     <g id="text_3">
      <!-- 2 -->
      <g transform="translate(911.358662 224.791947) scale(0.18 -0.18)">
       <defs>
        <path id="Arial-BoldMT-32" d="M 3238 816 
L 3238 0 
L 159 0 
Q 209 463 459 877 
Q 709 1291 1447 1975 
Q 2041 2528 2175 2725 
Q 2356 2997 2356 3263 
Q 2356 3556 2198 3714 
Q 2041 3872 1763 3872 
Q 1488 3872 1325 3706 
Q 1163 3541 1138 3156 
L 263 3244 
Q 341 3969 753 4284 
Q 1166 4600 1784 4600 
Q 2463 4600 2850 4234 
Q 3238 3869 3238 3325 
Q 3238 3016 3127 2736 
Q 3016 2456 2775 2150 
Q 2616 1947 2200 1565 
Q 1784 1184 1673 1059 
Q 1563 934 1494 816 
L 3238 816 
z
" transform="scale(0.015625)"/>
       </defs>
       <use xlink:href="#Arial-BoldMT-32"/>
      </g>
     </g>
    </g>
    <g id="xtick_4">
     <g id="line2d_4">
      <g>
       <use xlink:href="#m05d972a4a3" x="808.909004" y="198.907885" style="stroke: #000000; stroke-width: 2"/>
      </g>
     </g>
     <g id="text_4">
      <!-- 3 -->
      <g transform="translate(803.90416 224.791947) scale(0.18 -0.18)">
       <defs>
        <path id="Arial-BoldMT-33" d="M 241 1216 
L 1091 1319 
Q 1131 994 1309 822 
Q 1488 650 1741 650 
Q 2013 650 2198 856 
Q 2384 1063 2384 1413 
Q 2384 1744 2206 1937 
Q 2028 2131 1772 2131 
Q 1603 2131 1369 2066 
L 1466 2781 
Q 1822 2772 2009 2936 
Q 2197 3100 2197 3372 
Q 2197 3603 2059 3740 
Q 1922 3878 1694 3878 
Q 1469 3878 1309 3722 
Q 1150 3566 1116 3266 
L 306 3403 
Q 391 3819 561 4067 
Q 731 4316 1036 4458 
Q 1341 4600 1719 4600 
Q 2366 4600 2756 4188 
Q 3078 3850 3078 3425 
Q 3078 2822 2419 2463 
Q 2813 2378 3048 2084 
Q 3284 1791 3284 1375 
Q 3284 772 2843 347 
Q 2403 -78 1747 -78 
Q 1125 -78 715 280 
Q 306 638 241 1216 
z
" transform="scale(0.015625)"/>
       </defs>
       <use xlink:href="#Arial-BoldMT-33"/>
      </g>
     </g>
    </g>
    <g id="xtick_5">
     <g id="line2d_5">
      <g>
       <use xlink:href="#m05d972a4a3" x="701.454502" y="198.907885" style="stroke: #000000; stroke-width: 2"/>
      </g>
     </g>
     <g id="text_5">
      <!-- 4 -->
      <g transform="translate(696.449658 224.791947) scale(0.18 -0.18)">
       <defs>
        <path id="Arial-BoldMT-34" d="M 1994 0 
L 1994 922 
L 119 922 
L 119 1691 
L 2106 4600 
L 2844 4600 
L 2844 1694 
L 3413 1694 
L 3413 922 
L 2844 922 
L 2844 0 
L 1994 0 
z
M 1994 1694 
L 1994 3259 
L 941 1694 
L 1994 1694 
z
" transform="scale(0.015625)"/>
       </defs>
       <use xlink:href="#Arial-BoldMT-34"/>
      </g>
     </g>
    </g>
    <g id="xtick_6">
     <g id="line2d_6">
      <g>
       <use xlink:href="#m05d972a4a3" x="594" y="198.907885" style="stroke: #000000; stroke-width: 2"/>
      </g>
     </g>
     <g id="text_6">
      <!-- 5 -->
      <g transform="translate(588.995156 224.791947) scale(0.18 -0.18)">
       <defs>
        <path id="Arial-BoldMT-35" d="M 284 1178 
L 1159 1269 
Q 1197 972 1381 798 
Q 1566 625 1806 625 
Q 2081 625 2272 848 
Q 2463 1072 2463 1522 
Q 2463 1944 2273 2155 
Q 2084 2366 1781 2366 
Q 1403 2366 1103 2031 
L 391 2134 
L 841 4519 
L 3163 4519 
L 3163 3697 
L 1506 3697 
L 1369 2919 
Q 1663 3066 1969 3066 
Q 2553 3066 2959 2641 
Q 3366 2216 3366 1538 
Q 3366 972 3038 528 
Q 2591 -78 1797 -78 
Q 1163 -78 763 262 
Q 363 603 284 1178 
z
" transform="scale(0.015625)"/>
       </defs>
       <use xlink:href="#Arial-BoldMT-35"/>
      </g>
     </g>
    </g>
    <g id="xtick_7">
     <g id="line2d_7">
      <g>
       <use xlink:href="#m05d972a4a3" x="486.545498" y="198.907885" style="stroke: #000000; stroke-width: 2"/>
      </g>
     </g>
     <g id="text_7">
      <!-- 6 -->
      <g transform="translate(481.540654 224.791947) scale(0.18 -0.18)">
       <defs>
        <path id="Arial-BoldMT-36" d="M 3247 3459 
L 2397 3366 
Q 2366 3628 2234 3753 
Q 2103 3878 1894 3878 
Q 1616 3878 1423 3628 
Q 1231 3378 1181 2588 
Q 1509 2975 1997 2975 
Q 2547 2975 2939 2556 
Q 3331 2138 3331 1475 
Q 3331 772 2918 347 
Q 2506 -78 1859 -78 
Q 1166 -78 719 461 
Q 272 1000 272 2228 
Q 272 3488 737 4044 
Q 1203 4600 1947 4600 
Q 2469 4600 2811 4308 
Q 3153 4016 3247 3459 
z
M 1256 1544 
Q 1256 1116 1453 883 
Q 1650 650 1903 650 
Q 2147 650 2309 840 
Q 2472 1031 2472 1466 
Q 2472 1913 2297 2120 
Q 2122 2328 1859 2328 
Q 1606 2328 1431 2129 
Q 1256 1931 1256 1544 
z
" transform="scale(0.015625)"/>
       </defs>
       <use xlink:href="#Arial-BoldMT-36"/>
      </g>
     </g>
    </g>
    <g id="xtick_8">
     <g id="line2d_8">
      <g>
       <use xlink:href="#m05d972a4a3" x="379.090996" y="198.907885" style="stroke: #000000; stroke-width: 2"/>
      </g>
     </g>
     <g id="text_8">
      <!-- 7 -->
      <g transform="translate(374.086153 224.791947) scale(0.18 -0.18)">
       <defs>
        <path id="Arial-BoldMT-37" d="M 272 3703 
L 272 4519 
L 3275 4519 
L 3275 3881 
Q 2903 3516 2518 2831 
Q 2134 2147 1932 1376 
Q 1731 606 1734 0 
L 888 0 
Q 909 950 1279 1937 
Q 1650 2925 2269 3703 
L 272 3703 
z
" transform="scale(0.015625)"/>
       </defs>
       <use xlink:href="#Arial-BoldMT-37"/>
      </g>
     </g>
    </g>
    <g id="xtick_9">
     <g id="line2d_9">
      <g>
       <use xlink:href="#m05d972a4a3" x="271.636495" y="198.907885" style="stroke: #000000; stroke-width: 2"/>
      </g>
     </g>
     <g id="text_9">
      <!-- 8 -->
      <g transform="translate(266.631651 224.791947) scale(0.18 -0.18)">
       <defs>
        <path id="Arial-BoldMT-38" d="M 1025 2472 
Q 684 2616 529 2867 
Q 375 3119 375 3419 
Q 375 3931 733 4265 
Q 1091 4600 1750 4600 
Q 2403 4600 2764 4265 
Q 3125 3931 3125 3419 
Q 3125 3100 2959 2851 
Q 2794 2603 2494 2472 
Q 2875 2319 3073 2025 
Q 3272 1731 3272 1347 
Q 3272 713 2867 316 
Q 2463 -81 1791 -81 
Q 1166 -81 750 247 
Q 259 634 259 1309 
Q 259 1681 443 1992 
Q 628 2303 1025 2472 
z
M 1206 3356 
Q 1206 3094 1354 2947 
Q 1503 2800 1750 2800 
Q 2000 2800 2150 2948 
Q 2300 3097 2300 3359 
Q 2300 3606 2151 3754 
Q 2003 3903 1759 3903 
Q 1506 3903 1356 3753 
Q 1206 3603 1206 3356 
z
M 1125 1394 
Q 1125 1031 1311 828 
Q 1497 625 1775 625 
Q 2047 625 2225 820 
Q 2403 1016 2403 1384 
Q 2403 1706 2222 1901 
Q 2041 2097 1763 2097 
Q 1441 2097 1283 1875 
Q 1125 1653 1125 1394 
z
" transform="scale(0.015625)"/>
       </defs>
       <use xlink:href="#Arial-BoldMT-38"/>
      </g>
     </g>
    </g>
    <g id="xtick_10">
     <g id="line2d_10">
      <g>
       <use xlink:href="#m05d972a4a3" x="164.181993" y="198.907885" style="stroke: #000000; stroke-width: 2"/>
      </g>
     </g>
     <g id="text_10">
      <!-- 9 -->
      <g transform="translate(159.177149 224.791947) scale(0.18 -0.18)">
       <defs>
        <path id="Arial-BoldMT-39" d="M 291 1059 
L 1141 1153 
Q 1172 894 1303 769 
Q 1434 644 1650 644 
Q 1922 644 2112 894 
Q 2303 1144 2356 1931 
Q 2025 1547 1528 1547 
Q 988 1547 595 1964 
Q 203 2381 203 3050 
Q 203 3747 617 4173 
Q 1031 4600 1672 4600 
Q 2369 4600 2816 4061 
Q 3263 3522 3263 2288 
Q 3263 1031 2797 475 
Q 2331 -81 1584 -81 
Q 1047 -81 715 205 
Q 384 491 291 1059 
z
M 2278 2978 
Q 2278 3403 2083 3637 
Q 1888 3872 1631 3872 
Q 1388 3872 1227 3680 
Q 1066 3488 1066 3050 
Q 1066 2606 1241 2398 
Q 1416 2191 1678 2191 
Q 1931 2191 2104 2391 
Q 2278 2591 2278 2978 
z
" transform="scale(0.015625)"/>
       </defs>
       <use xlink:href="#Arial-BoldMT-39"/>
      </g>
     </g>
    </g>
    <g id="xtick_11">
     <g id="line2d_11">
      <g>
       <use xlink:href="#m05d972a4a3" x="56.727491" y="198.907885" style="stroke: #000000; stroke-width: 2"/>
      </g>
     </g>
     <g id="text_11">
      <!-- 10 -->
      <g transform="translate(46.717803 224.791947) scale(0.18 -0.18)">
       <use xlink:href="#Arial-BoldMT-31"/>
       <use xlink:href="#Arial-BoldMT-30" x="55.615234"/>
      </g>
     </g>
    </g>
    <g id="text_12">
     <!-- Chemical Shift / ppm -->
     <g transform="translate(504.992813 245.447573) scale(0.18 -0.18)">
      <defs>
       <path id="Arial-BoldMT-43" d="M 3397 1684 
L 4294 1400 
Q 4088 650 3608 286 
Q 3128 -78 2391 -78 
Q 1478 -78 890 545 
Q 303 1169 303 2250 
Q 303 3394 893 4026 
Q 1484 4659 2447 4659 
Q 3288 4659 3813 4163 
Q 4125 3869 4281 3319 
L 3366 3100 
Q 3284 3456 3026 3662 
Q 2769 3869 2400 3869 
Q 1891 3869 1573 3503 
Q 1256 3138 1256 2319 
Q 1256 1450 1568 1081 
Q 1881 713 2381 713 
Q 2750 713 3015 947 
Q 3281 1181 3397 1684 
z
" transform="scale(0.015625)"/>
       <path id="Arial-BoldMT-68" d="M 1334 4581 
L 1334 2897 
Q 1759 3394 2350 3394 
Q 2653 3394 2897 3281 
Q 3141 3169 3264 2994 
Q 3388 2819 3433 2606 
Q 3478 2394 3478 1947 
L 3478 0 
L 2600 0 
L 2600 1753 
Q 2600 2275 2550 2415 
Q 2500 2556 2373 2639 
Q 2247 2722 2056 2722 
Q 1838 2722 1666 2615 
Q 1494 2509 1414 2295 
Q 1334 2081 1334 1663 
L 1334 0 
L 456 0 
L 456 4581 
L 1334 4581 
z
" transform="scale(0.015625)"/>
       <path id="Arial-BoldMT-65" d="M 2381 1056 
L 3256 909 
Q 3088 428 2723 176 
Q 2359 -75 1813 -75 
Q 947 -75 531 491 
Q 203 944 203 1634 
Q 203 2459 634 2926 
Q 1066 3394 1725 3394 
Q 2466 3394 2894 2905 
Q 3322 2416 3303 1406 
L 1103 1406 
Q 1113 1016 1316 798 
Q 1519 581 1822 581 
Q 2028 581 2168 693 
Q 2309 806 2381 1056 
z
M 2431 1944 
Q 2422 2325 2234 2523 
Q 2047 2722 1778 2722 
Q 1491 2722 1303 2513 
Q 1116 2303 1119 1944 
L 2431 1944 
z
" transform="scale(0.015625)"/>
       <path id="Arial-BoldMT-6d" d="M 394 3319 
L 1203 3319 
L 1203 2866 
Q 1638 3394 2238 3394 
Q 2556 3394 2790 3262 
Q 3025 3131 3175 2866 
Q 3394 3131 3647 3262 
Q 3900 3394 4188 3394 
Q 4553 3394 4806 3245 
Q 5059 3097 5184 2809 
Q 5275 2597 5275 2122 
L 5275 0 
L 4397 0 
L 4397 1897 
Q 4397 2391 4306 2534 
Q 4184 2722 3931 2722 
Q 3747 2722 3584 2609 
Q 3422 2497 3350 2280 
Q 3278 2063 3278 1594 
L 3278 0 
L 2400 0 
L 2400 1819 
Q 2400 2303 2353 2443 
Q 2306 2584 2207 2653 
Q 2109 2722 1941 2722 
Q 1738 2722 1575 2612 
Q 1413 2503 1342 2297 
Q 1272 2091 1272 1613 
L 1272 0 
L 394 0 
L 394 3319 
z
" transform="scale(0.015625)"/>
       <path id="Arial-BoldMT-69" d="M 459 3769 
L 459 4581 
L 1338 4581 
L 1338 3769 
L 459 3769 
z
M 459 0 
L 459 3319 
L 1338 3319 
L 1338 0 
L 459 0 
z
" transform="scale(0.015625)"/>
       <path id="Arial-BoldMT-63" d="M 3353 2338 
L 2488 2181 
Q 2444 2441 2289 2572 
Q 2134 2703 1888 2703 
Q 1559 2703 1364 2476 
Q 1169 2250 1169 1719 
Q 1169 1128 1367 884 
Q 1566 641 1900 641 
Q 2150 641 2309 783 
Q 2469 925 2534 1272 
L 3397 1125 
Q 3263 531 2881 228 
Q 2500 -75 1859 -75 
Q 1131 -75 698 384 
Q 266 844 266 1656 
Q 266 2478 700 2936 
Q 1134 3394 1875 3394 
Q 2481 3394 2839 3133 
Q 3197 2872 3353 2338 
z
" transform="scale(0.015625)"/>
       <path id="Arial-BoldMT-61" d="M 1116 2306 
L 319 2450 
Q 453 2931 781 3162 
Q 1109 3394 1756 3394 
Q 2344 3394 2631 3255 
Q 2919 3116 3036 2902 
Q 3153 2688 3153 2116 
L 3144 1091 
Q 3144 653 3186 445 
Q 3228 238 3344 0 
L 2475 0 
Q 2441 88 2391 259 
Q 2369 338 2359 363 
Q 2134 144 1878 34 
Q 1622 -75 1331 -75 
Q 819 -75 523 203 
Q 228 481 228 906 
Q 228 1188 362 1408 
Q 497 1628 739 1745 
Q 981 1863 1438 1950 
Q 2053 2066 2291 2166 
L 2291 2253 
Q 2291 2506 2166 2614 
Q 2041 2722 1694 2722 
Q 1459 2722 1328 2630 
Q 1197 2538 1116 2306 
z
M 2291 1594 
Q 2122 1538 1756 1459 
Q 1391 1381 1278 1306 
Q 1106 1184 1106 997 
Q 1106 813 1243 678 
Q 1381 544 1594 544 
Q 1831 544 2047 700 
Q 2206 819 2256 991 
Q 2291 1103 2291 1419 
L 2291 1594 
z
" transform="scale(0.015625)"/>
       <path id="Arial-BoldMT-6c" d="M 459 0 
L 459 4581 
L 1338 4581 
L 1338 0 
L 459 0 
z
" transform="scale(0.015625)"/>
       <path id="Arial-BoldMT-20" transform="scale(0.015625)"/>
       <path id="Arial-BoldMT-53" d="M 231 1491 
L 1131 1578 
Q 1213 1125 1461 912 
Q 1709 700 2131 700 
Q 2578 700 2804 889 
Q 3031 1078 3031 1331 
Q 3031 1494 2936 1608 
Q 2841 1722 2603 1806 
Q 2441 1863 1863 2006 
Q 1119 2191 819 2459 
Q 397 2838 397 3381 
Q 397 3731 595 4036 
Q 794 4341 1167 4500 
Q 1541 4659 2069 4659 
Q 2931 4659 3367 4281 
Q 3803 3903 3825 3272 
L 2900 3231 
Q 2841 3584 2645 3739 
Q 2450 3894 2059 3894 
Q 1656 3894 1428 3728 
Q 1281 3622 1281 3444 
Q 1281 3281 1419 3166 
Q 1594 3019 2269 2859 
Q 2944 2700 3267 2529 
Q 3591 2359 3773 2064 
Q 3956 1769 3956 1334 
Q 3956 941 3737 597 
Q 3519 253 3119 86 
Q 2719 -81 2122 -81 
Q 1253 -81 787 320 
Q 322 722 231 1491 
z
" transform="scale(0.015625)"/>
       <path id="Arial-BoldMT-66" d="M 75 3319 
L 563 3319 
L 563 3569 
Q 563 3988 652 4194 
Q 741 4400 980 4529 
Q 1219 4659 1584 4659 
Q 1959 4659 2319 4547 
L 2200 3934 
Q 1991 3984 1797 3984 
Q 1606 3984 1523 3895 
Q 1441 3806 1441 3553 
L 1441 3319 
L 2097 3319 
L 2097 2628 
L 1441 2628 
L 1441 0 
L 563 0 
L 563 2628 
L 75 2628 
L 75 3319 
z
" transform="scale(0.015625)"/>
       <path id="Arial-BoldMT-74" d="M 1981 3319 
L 1981 2619 
L 1381 2619 
L 1381 1281 
Q 1381 875 1398 808 
Q 1416 741 1477 697 
Q 1538 653 1625 653 
Q 1747 653 1978 738 
L 2053 56 
Q 1747 -75 1359 -75 
Q 1122 -75 931 4 
Q 741 84 652 211 
Q 563 338 528 553 
Q 500 706 500 1172 
L 500 2619 
L 97 2619 
L 97 3319 
L 500 3319 
L 500 3978 
L 1381 4491 
L 1381 3319 
L 1981 3319 
z
" transform="scale(0.015625)"/>
       <path id="Arial-BoldMT-2f" d="M -9 -78 
L 1125 4659 
L 1784 4659 
L 638 -78 
L -9 -78 
z
" transform="scale(0.015625)"/>
       <path id="Arial-BoldMT-70" d="M 434 3319 
L 1253 3319 
L 1253 2831 
Q 1413 3081 1684 3237 
Q 1956 3394 2288 3394 
Q 2866 3394 3269 2941 
Q 3672 2488 3672 1678 
Q 3672 847 3265 386 
Q 2859 -75 2281 -75 
Q 2006 -75 1782 34 
Q 1559 144 1313 409 
L 1313 -1263 
L 434 -1263 
L 434 3319 
z
M 1303 1716 
Q 1303 1156 1525 889 
Q 1747 622 2066 622 
Q 2372 622 2575 867 
Q 2778 1113 2778 1672 
Q 2778 2194 2568 2447 
Q 2359 2700 2050 2700 
Q 1728 2700 1515 2451 
Q 1303 2203 1303 1716 
z
" transform="scale(0.015625)"/>
      </defs>
      <use xlink:href="#Arial-BoldMT-43"/>
      <use xlink:href="#Arial-BoldMT-68" x="72.216797"/>
      <use xlink:href="#Arial-BoldMT-65" x="133.300781"/>
      <use xlink:href="#Arial-BoldMT-6d" x="188.916016"/>
      <use xlink:href="#Arial-BoldMT-69" x="277.832031"/>
      <use xlink:href="#Arial-BoldMT-63" x="305.615234"/>
      <use xlink:href="#Arial-BoldMT-61" x="361.230469"/>
      <use xlink:href="#Arial-BoldMT-6c" x="416.845703"/>
      <use xlink:href="#Arial-BoldMT-20" x="444.628906"/>
      <use xlink:href="#Arial-BoldMT-53" x="472.412109"/>
      <use xlink:href="#Arial-BoldMT-68" x="539.111328"/>
      <use xlink:href="#Arial-BoldMT-69" x="600.195312"/>
      <use xlink:href="#Arial-BoldMT-66" x="627.978516"/>
      <use xlink:href="#Arial-BoldMT-74" x="661.279297"/>
      <use xlink:href="#Arial-BoldMT-20" x="694.580078"/>
      <use xlink:href="#Arial-BoldMT-2f" x="722.363281"/>
      <use xlink:href="#Arial-BoldMT-20" x="750.146484"/>
      <use xlink:href="#Arial-BoldMT-70" x="777.929688"/>
      <use xlink:href="#Arial-BoldMT-70" x="839.013672"/>
      <use xlink:href="#Arial-BoldMT-6d" x="900.097656"/>
     </g>
    </g>
   </g>
   <g id="matplotlib.axis_2"/>
   <g id="line2d_12">
    <path d="M 3.067191 189.025729 
L 4.09029 189.303182 
L 4.908769 189.12898 
L 5.727248 189.450115 
L 6.750347 189.496101 
L 7.978065 190.384763 
L 8.387304 190.468622 
L 8.796544 190.299103 
L 9.819642 189.585274 
L 10.228882 189.604427 
L 11.66122 190.090169 
L 12.479699 189.994548 
L 13.502798 190.60352 
L 13.912037 190.458356 
L 16.367474 188.640398 
L 16.776713 188.309974 
L 17.185953 188.442191 
L 18.004432 189.047595 
L 18.618291 189.248489 
L 19.43677 189.849001 
L 21.892206 190.105684 
L 22.506066 189.583485 
L 23.119925 189.209254 
L 23.529164 189.192934 
L 23.938404 189.348258 
L 24.756883 189.962379 
L 25.575361 190.130721 
L 26.189221 189.943531 
L 27.0077 189.532963 
L 27.826178 189.028503 
L 28.644657 188.913834 
L 29.053897 188.750895 
L 29.463136 188.878621 
L 31.100094 190.106344 
L 31.509334 190.016864 
L 32.327812 189.68827 
L 32.737052 189.636127 
L 33.146291 189.850821 
L 34.37401 190.764247 
L 34.783249 190.7872 
L 35.397108 190.494438 
L 35.806348 190.167955 
L 36.624827 189.166588 
L 36.829446 189.173044 
L 37.238686 189.633186 
L 37.647925 190.07523 
L 38.057165 190.204747 
L 39.284883 190.06973 
L 39.898742 189.854889 
L 40.103362 189.95646 
L 40.512601 190.507341 
L 41.126461 191.437943 
L 41.33108 191.58579 
L 41.5357 191.584195 
L 41.94494 191.221281 
L 43.172658 189.568139 
L 43.581897 189.406346 
L 43.991137 189.541392 
L 44.604996 189.824887 
L 45.218855 189.87868 
L 45.628095 189.665426 
L 46.241954 189.280714 
L 46.651193 189.400307 
L 48.083531 190.125364 
L 48.697391 190.178897 
L 49.31125 189.739429 
L 49.720489 189.514082 
L 50.129729 189.56321 
L 51.357447 190.120863 
L 51.971306 190.511915 
L 52.380546 190.373195 
L 52.789785 189.732099 
L 53.608264 188.155584 
L 54.426743 186.996758 
L 55.040602 186.028476 
L 55.859081 184.844894 
L 56.26832 184.458893 
L 56.47294 184.565354 
L 56.88218 185.435326 
L 57.700659 187.595783 
L 58.519137 189.033465 
L 59.951476 190.511462 
L 61.179194 191.050271 
L 62.406912 190.673095 
L 63.225391 190.552908 
L 64.657729 190.214503 
L 65.066969 190.344011 
L 65.680828 190.598904 
L 66.294687 190.409773 
L 67.727025 189.759218 
L 68.136265 189.799522 
L 69.363983 190.271482 
L 69.977842 190.113343 
L 70.796321 190.212559 
L 73.251758 188.864187 
L 73.660997 189.180213 
L 74.684096 190.410029 
L 76.321054 190.636497 
L 76.730293 190.603453 
L 77.344152 190.644652 
L 78.571871 190.112502 
L 79.594969 190.230796 
L 80.413448 189.856387 
L 81.027307 189.987064 
L 83.278124 190.788377 
L 83.687364 190.71809 
L 84.096603 190.447217 
L 84.710462 189.846655 
L 85.119702 189.849243 
L 86.142801 190.362713 
L 86.75666 190.67246 
L 87.165899 190.380393 
L 87.779758 189.712591 
L 88.188998 189.51995 
L 89.007477 189.540168 
L 90.030575 189.862101 
L 90.644435 189.766728 
L 91.667533 189.984594 
L 92.895252 189.27696 
L 93.91835 189.07701 
L 94.32759 188.893617 
L 95.146069 188.753404 
L 96.783026 188.367373 
L 97.192266 188.986271 
L 97.806125 190.017249 
L 98.215364 190.108422 
L 98.624604 189.915551 
L 99.852322 188.678158 
L 101.080041 188.2551 
L 101.6939 188.254617 
L 102.307759 187.721277 
L 102.716998 187.457015 
L 103.330858 187.359066 
L 103.740097 187.631297 
L 104.558576 188.495583 
L 106.195534 189.147937 
L 107.423252 189.68723 
L 108.241731 190.229856 
L 108.85559 190.260833 
L 110.492548 189.872876 
L 111.720266 189.416925 
L 112.129506 189.457401 
L 112.538745 189.242131 
L 113.152605 188.732784 
L 113.561844 188.819391 
L 113.971083 189.025503 
L 115.403422 188.98649 
L 116.83576 188.323394 
L 117.858858 188.481496 
L 118.677337 188.712383 
L 119.086577 188.66104 
L 119.700436 188.451003 
L 120.109675 188.559881 
L 120.518915 188.72021 
L 121.337394 188.811589 
L 122.360492 189.374403 
L 122.769732 189.541855 
L 123.588211 190.400076 
L 123.79283 190.392981 
L 125.429788 189.324091 
L 126.452887 188.474286 
L 127.066746 188.319335 
L 127.680605 188.557724 
L 128.294464 189.036736 
L 128.703704 189.353797 
L 129.112943 189.383039 
L 129.522183 189.390159 
L 129.931422 189.674266 
L 130.340662 189.999737 
L 130.545281 189.991399 
L 130.954521 189.603639 
L 131.36376 189.230447 
L 132.182239 188.775597 
L 132.796098 188.11514 
L 133.409957 187.38578 
L 133.819197 187.329692 
L 134.228436 187.710509 
L 134.842296 188.395205 
L 135.251535 188.522475 
L 136.274634 188.538535 
L 136.683873 188.634984 
L 137.297732 188.554162 
L 137.706972 188.91548 
L 138.116211 189.25363 
L 138.525451 189.279226 
L 139.13931 189.059567 
L 139.548549 188.924356 
L 139.957789 189.014464 
L 140.367028 189.126384 
L 140.980887 188.901043 
L 141.799366 188.518337 
L 142.208606 188.632515 
L 143.027085 189.220818 
L 143.436324 189.28903 
L 143.845564 189.029991 
L 144.254803 188.535732 
L 145.277902 187.036257 
L 145.687141 186.909477 
L 146.096381 187.065741 
L 147.119479 187.891369 
L 147.528719 188.041376 
L 148.142578 187.950473 
L 148.961057 187.631423 
L 149.574916 187.64086 
L 150.802634 188.085899 
L 151.211874 187.73687 
L 151.825733 187.15244 
L 152.030353 187.166944 
L 152.439592 187.580759 
L 153.053451 188.359222 
L 153.462691 188.417056 
L 154.07655 188.242457 
L 155.099648 188.431766 
L 155.713508 188.482592 
L 156.531987 188.481051 
L 157.145846 188.566165 
L 157.555085 188.371332 
L 158.373564 187.565147 
L 159.601282 186.34614 
L 160.215142 186.338308 
L 160.624381 186.466016 
L 161.033621 186.997707 
L 161.64748 187.969047 
L 162.056719 188.159879 
L 162.670578 188.01334 
L 163.284438 187.515544 
L 163.693677 187.23076 
L 164.512156 186.963443 
L 165.739874 185.853461 
L 166.149114 185.624003 
L 166.558353 185.727863 
L 167.172212 186.022374 
L 167.581452 186.00858 
L 168.195311 185.726473 
L 168.80917 185.276008 
L 169.21841 184.986456 
L 169.627649 184.977314 
L 170.855367 185.548486 
L 171.264607 185.333385 
L 172.287706 184.602435 
L 173.106184 184.279475 
L 174.333903 183.125673 
L 174.947762 183.029516 
L 175.561621 182.992433 
L 175.970861 182.647282 
L 176.78934 181.587779 
L 177.403199 181.293652 
L 178.221678 181.096804 
L 178.835537 181.054102 
L 179.244776 180.655074 
L 179.858635 179.488802 
L 182.927931 172.061634 
L 184.360269 167.879097 
L 185.587988 162.834202 
L 186.406467 158.209599 
L 187.020326 153.079666 
L 187.634185 145.175328 
L 188.248044 134.196534 
L 188.861903 119.126706 
L 189.475763 98.490471 
L 190.089622 69.939933 
L 191.31734 6.275326 
L 191.52196 3.00024 
L 191.72658 4.301279 
L 191.931199 10.291661 
L 192.340439 33.682586 
L 193.568157 116.636502 
L 194.182016 140.724152 
L 194.795875 155.376305 
L 195.409735 164.940899 
L 196.023594 171.674508 
L 196.637453 175.72166 
L 197.251312 177.791067 
L 197.865171 179.16677 
L 198.68365 180.386703 
L 199.09289 180.581362 
L 199.502129 180.807605 
L 200.525228 182.035754 
L 200.934467 182.084446 
L 201.548326 181.844863 
L 203.594524 180.21293 
L 204.003763 179.354671 
L 204.617622 177.304168 
L 205.640721 173.630069 
L 206.66382 171.669172 
L 207.073059 171.118736 
L 207.277679 171.043064 
L 207.482299 171.145388 
L 207.891538 171.726088 
L 208.505397 173.004916 
L 208.914637 173.884591 
L 209.323876 174.209339 
L 209.528496 174.165695 
L 209.733116 173.999235 
L 210.142355 173.195562 
L 210.551594 171.663301 
L 211.370073 167.007075 
L 212.393172 161.860219 
L 213.211651 158.11074 
L 213.82551 156.236817 
L 214.439369 155.160431 
L 214.848609 154.471954 
L 215.257848 153.340998 
L 215.871707 150.719975 
L 216.690186 145.923873 
L 217.304045 142.819725 
L 217.508665 142.317664 
L 217.713285 142.130527 
L 217.917905 142.218838 
L 218.327144 142.895168 
L 218.941003 144.40436 
L 219.554862 146.069186 
L 219.964102 146.513696 
L 220.168722 146.455883 
L 220.373341 146.220931 
L 220.782581 145.207178 
L 221.19182 143.347553 
L 221.805679 139.061444 
L 223.033398 128.592818 
L 223.238018 127.855782 
L 223.442637 127.812771 
L 223.647257 128.510286 
L 224.056496 131.783449 
L 225.284215 144.062059 
L 225.693454 146.065455 
L 225.898074 146.550919 
L 226.102694 146.69555 
L 226.307313 146.516163 
L 226.511933 146.024855 
L 226.921173 144.049878 
L 227.330412 140.652555 
L 227.944271 133.278407 
L 229.17199 116.809432 
L 229.581229 113.617507 
L 229.990469 111.923984 
L 230.604328 109.7492 
L 231.013567 107.215829 
L 231.627426 101.500775 
L 233.469004 82.327614 
L 233.878243 80.598469 
L 234.082863 80.633149 
L 234.287483 81.486616 
L 234.696722 85.857915 
L 235.310581 97.372725 
L 236.5383 127.312688 
L 237.561398 149.333293 
L 238.175258 158.232434 
L 238.789117 163.578421 
L 239.402976 166.766688 
L 239.812215 167.782022 
L 240.016835 167.90036 
L 240.221455 167.802881 
L 240.630694 167.114068 
L 241.039934 165.752772 
L 241.653793 162.716609 
L 243.69999 151.361811 
L 243.90461 151.115883 
L 244.10923 151.308859 
L 244.313849 151.940576 
L 244.723089 154.399911 
L 247.178526 174.102381 
L 248.406244 180.719718 
L 249.224723 183.650279 
L 249.838582 185.068754 
L 250.247821 185.612599 
L 250.657061 185.846983 
L 251.0663 185.891414 
L 252.089399 185.756738 
L 253.112498 186.345112 
L 253.726357 186.368968 
L 255.158695 187.184744 
L 255.772554 187.008476 
L 256.181794 187.274024 
L 256.795653 187.698699 
L 258.227991 187.938645 
L 258.432611 187.902825 
L 258.63723 187.740831 
L 259.04647 186.983168 
L 259.864949 185.266175 
L 260.274188 184.864709 
L 261.092667 184.622665 
L 261.706526 184.652858 
L 262.320385 185.026524 
L 262.934245 185.485431 
L 263.343484 185.515518 
L 263.548104 185.329762 
L 264.775822 183.443538 
L 265.798921 182.759403 
L 266.6174 182.382855 
L 267.026639 181.735685 
L 267.640498 180.062056 
L 268.868217 175.794539 
L 269.891315 172.131477 
L 270.709794 169.011919 
L 271.323653 166.678024 
L 272.551372 162.652025 
L 273.165231 160.391475 
L 273.77909 156.840962 
L 274.597569 150.66195 
L 275.211428 144.402524 
L 275.825287 135.562365 
L 276.439146 123.491558 
L 277.257625 103.092124 
L 279.508442 41.224894 
L 279.917682 34.631224 
L 280.326921 31.567033 
L 280.531541 31.776357 
L 280.736161 33.186629 
L 281.1454 39.212864 
L 282.782358 72.476126 
L 282.986978 74.079334 
L 283.191597 74.636881 
L 283.396217 74.122731 
L 283.600837 72.616279 
L 284.010076 67.320929 
L 285.033175 51.474355 
L 285.237795 49.951974 
L 285.442414 49.515885 
L 285.647034 50.228321 
L 285.851654 52.051766 
L 286.260893 58.63352 
L 286.874753 73.84341 
L 287.897851 106.852944 
L 288.92095 138.091768 
L 289.534809 150.930021 
L 290.148668 159.71265 
L 290.762527 165.578919 
L 291.376387 169.542115 
L 292.194865 173.475423 
L 293.217964 177.14678 
L 293.627204 178.097093 
L 294.445682 179.536907 
L 296.08264 183.30162 
L 296.49188 183.546959 
L 296.901119 183.413853 
L 297.310359 183.230656 
L 298.128838 183.148817 
L 298.538077 183.039961 
L 298.947316 183.21287 
L 299.561176 183.451579 
L 300.379655 183.702113 
L 300.993514 183.81074 
L 301.402753 183.881159 
L 302.221232 184.237812 
L 302.835091 184.31517 
L 303.65357 184.572025 
L 304.06281 184.416294 
L 304.676669 184.084234 
L 305.495148 183.844768 
L 306.518246 183.096841 
L 307.541345 183.211381 
L 307.950584 182.927813 
L 308.564444 182.358496 
L 309.996782 182.035509 
L 310.610641 181.650969 
L 312.452218 180.027266 
L 313.475317 178.27512 
L 314.089176 177.3467 
L 314.703035 176.516365 
L 315.316895 175.215264 
L 316.339993 172.176285 
L 316.749233 170.45581 
L 317.363092 166.495443 
L 318.181571 159.174417 
L 318.79543 151.998598 
L 319.409289 142.579919 
L 320.023148 129.803099 
L 320.637007 111.68438 
L 321.250867 86.875959 
L 322.478585 29.30503 
L 322.683205 25.326097 
L 322.887824 25.229255 
L 323.092444 29.158168 
L 323.501684 46.589053 
L 324.729402 112.138789 
L 325.343261 133.630104 
L 325.95712 148.396356 
L 326.57098 158.276148 
L 327.184839 165.113545 
L 327.798698 169.77466 
L 328.412557 172.714976 
L 329.231036 175.243775 
L 329.640275 176.15235 
L 330.049515 176.590675 
L 330.663374 176.884229 
L 330.867994 176.888216 
L 331.277233 176.545661 
L 332.095712 175.391465 
L 332.709571 174.728134 
L 333.323431 173.299534 
L 333.93729 171.434916 
L 334.551149 168.432501 
L 335.369628 163.237858 
L 335.983487 158.069514 
L 336.597346 150.966842 
L 337.415825 138.880645 
L 338.029684 126.603324 
L 338.848163 104.492215 
L 339.871262 76.932261 
L 340.280501 72.276469 
L 340.485121 72.170283 
L 340.689741 73.485083 
L 341.09898 79.587981 
L 343.349797 125.311733 
L 343.963656 133.137627 
L 344.577516 138.2156 
L 344.986755 140.015442 
L 345.191375 140.469221 
L 345.395994 140.651372 
L 345.600614 140.568972 
L 346.009854 139.733932 
L 346.419093 138.207666 
L 346.828333 135.646143 
L 347.237572 131.630748 
L 347.851431 123.013889 
L 348.66991 107.380471 
L 349.488389 87.674495 
L 350.920727 50.400916 
L 351.125347 47.768285 
L 351.329966 46.776733 
L 351.534586 47.661565 
L 351.739206 50.485934 
L 352.148445 61.226819 
L 353.990023 124.15415 
L 354.808502 141.8726 
L 355.626981 154.819016 
L 356.44546 164.535512 
L 357.059319 169.941202 
L 357.673178 173.537653 
L 359.310136 180.013927 
L 359.923995 181.971068 
L 360.537854 183.121539 
L 361.151713 183.792621 
L 362.174812 184.496094 
L 363.197911 185.984502 
L 363.60715 186.272327 
L 363.81177 186.239102 
L 364.630249 185.760124 
L 365.653347 186.180741 
L 367.290305 187.102615 
L 367.699545 187.066189 
L 368.313404 186.90339 
L 368.722643 187.172513 
L 369.336502 187.738731 
L 369.950362 188.020509 
L 370.359601 187.963396 
L 371.17808 187.436727 
L 371.791939 187.207217 
L 373.224277 186.393591 
L 373.633517 186.460801 
L 374.042756 186.95807 
L 374.861235 188.603079 
L 375.270475 188.861132 
L 375.679714 188.681346 
L 376.293573 188.309634 
L 376.702813 188.376123 
L 377.521292 188.650762 
L 378.95363 188.811989 
L 379.772109 189.144277 
L 381.613686 189.305771 
L 382.636785 189.661398 
L 383.659883 190.176917 
L 384.069123 190.333249 
L 384.478362 190.205145 
L 385.092221 189.619304 
L 385.501461 189.334031 
L 386.524559 189.241764 
L 387.138419 188.76088 
L 387.547658 188.872609 
L 388.570757 189.608314 
L 388.979996 189.653542 
L 389.389236 189.931954 
L 389.798475 190.238522 
L 390.207715 190.111238 
L 390.821574 189.817368 
L 391.640053 189.584688 
L 392.049292 189.323331 
L 392.663151 188.870953 
L 393.072391 189.012978 
L 394.504729 190.315796 
L 395.118588 190.283378 
L 395.732447 190.479426 
L 396.346306 190.455724 
L 397.574025 191.004732 
L 397.983264 190.900637 
L 399.210983 190.310047 
L 399.824842 190.219 
L 400.84794 190.132232 
L 401.25718 190.142038 
L 401.666419 190.405741 
L 402.280278 190.908013 
L 402.689518 190.866125 
L 403.303377 190.64255 
L 403.917236 190.626179 
L 405.349574 189.989485 
L 406.168053 190.091991 
L 406.781912 189.511181 
L 407.395772 189.03813 
L 407.805011 188.99754 
L 409.237349 189.520757 
L 409.646589 189.555558 
L 410.465068 190.045801 
L 410.874307 189.863171 
L 411.897406 189.101938 
L 412.306645 189.136419 
L 412.920504 189.431324 
L 413.738983 190.140593 
L 413.943603 190.153479 
L 414.352842 189.813974 
L 414.966702 189.186005 
L 415.78518 188.919728 
L 416.808279 188.989173 
L 417.422138 189.193906 
L 418.240617 189.638825 
L 418.445237 189.603581 
L 418.649857 189.436958 
L 419.059096 188.701201 
L 419.672955 187.551293 
L 419.877575 187.431084 
L 421.309913 187.40937 
L 421.719153 186.955493 
L 422.537631 185.554373 
L 424.174589 181.64208 
L 424.993068 178.720171 
L 425.811547 174.819542 
L 426.425406 171.09197 
L 427.039265 166.136957 
L 427.653125 159.178849 
L 428.471603 146.584744 
L 429.290082 129.625694 
L 429.903942 112.48516 
L 430.72242 82.731861 
L 431.540899 53.560825 
L 431.950139 46.451328 
L 432.154759 45.855 
L 432.359378 47.233885 
L 432.768618 54.78254 
L 433.791716 84.691203 
L 434.814815 111.820277 
L 435.633294 127.787451 
L 436.247153 135.588574 
L 436.861012 140.465251 
L 437.270252 142.359314 
L 437.474871 142.854957 
L 437.679491 143.030395 
L 437.884111 142.901673 
L 438.088731 142.474455 
L 438.49797 140.694992 
L 438.90721 137.77988 
L 439.521069 131.529286 
L 440.339548 120.037273 
L 441.158027 103.811194 
L 442.590365 71.863436 
L 442.794984 69.836638 
L 442.999604 69.235504 
L 443.204224 70.178694 
L 443.408844 72.669498 
L 443.818083 81.680908 
L 445.86428 138.415846 
L 446.478139 148.402382 
L 447.296618 157.823763 
L 448.319717 166.75116 
L 448.933576 170.873825 
L 449.752055 174.673725 
L 450.365914 176.658128 
L 450.979773 177.691128 
L 451.593633 178.657727 
L 453.23059 181.396816 
L 453.84445 181.964427 
L 454.458309 182.819309 
L 455.276788 183.971782 
L 455.890647 184.500787 
L 456.709126 185.09308 
L 457.322985 185.974275 
L 457.936844 186.868297 
L 458.346084 187.104519 
L 458.755323 186.939057 
L 459.778422 186.178393 
L 460.392281 185.576759 
L 461.00614 185.514928 
L 461.41538 185.69857 
L 462.233858 186.321619 
L 462.643098 186.186591 
L 463.052337 185.993748 
L 463.461577 186.087621 
L 463.870816 186.490258 
L 464.484675 187.382126 
L 464.689295 187.467725 
L 465.098535 187.224084 
L 465.712394 186.779075 
L 466.735492 186.641419 
L 467.144732 186.574566 
L 467.963211 186.04941 
L 468.37245 185.879776 
L 468.78169 186.014214 
L 469.190929 186.629047 
L 470.009408 188.379515 
L 470.418647 188.487846 
L 471.237126 188.26991 
L 472.464845 187.626137 
L 472.874084 187.801722 
L 473.897183 188.394234 
L 474.306422 188.315747 
L 475.534141 187.273231 
L 475.94338 187.392741 
L 476.557239 187.9982 
L 477.580338 189.116796 
L 477.989577 189.09691 
L 478.603437 188.851073 
L 479.012676 188.859772 
L 479.421915 189.086359 
L 480.035775 189.451757 
L 480.445014 189.380677 
L 481.672732 188.693467 
L 482.081972 188.93373 
L 482.491211 189.28749 
L 482.900451 189.343596 
L 483.71893 189.02946 
L 484.332789 189.312001 
L 484.742028 189.452335 
L 485.560507 189.569447 
L 486.174366 190.043748 
L 486.583606 190.024617 
L 489.243662 188.619617 
L 489.857522 188.69556 
L 490.88062 188.918182 
L 491.699099 188.766078 
L 492.722198 189.171077 
L 493.745296 189.080892 
L 494.973015 189.020897 
L 495.791494 189.018685 
L 496.405353 188.937348 
L 497.428451 189.168156 
L 498.042311 189.414515 
L 498.65617 189.64231 
L 499.270029 189.986651 
L 499.679268 189.795037 
L 500.088508 189.541625 
L 500.702367 189.556081 
L 501.316226 189.467816 
L 501.725466 189.378239 
L 502.748564 189.410437 
L 503.567043 189.005008 
L 504.180902 188.804948 
L 504.590142 188.900914 
L 505.408621 189.366786 
L 506.02248 189.508594 
L 507.250198 190.282164 
L 507.659438 190.260105 
L 508.477917 189.683088 
L 510.319494 188.434573 
L 511.342593 188.499723 
L 511.751832 188.941331 
L 512.161072 189.432983 
L 512.570311 189.561746 
L 513.79803 189.53231 
L 514.616508 189.195369 
L 515.025748 189.423724 
L 515.639607 190.180535 
L 516.253466 190.893186 
L 516.662706 190.883068 
L 517.276565 190.746187 
L 517.890424 191.050187 
L 518.504283 191.277113 
L 518.913523 191.211119 
L 520.345861 190.324547 
L 520.95972 190.118005 
L 521.368959 189.682496 
L 521.778199 189.200833 
L 521.982819 189.109564 
L 522.187438 189.166062 
L 523.415157 190.202838 
L 524.029016 190.206076 
L 524.847495 190.162402 
L 525.665974 190.467811 
L 526.279833 190.360806 
L 527.507551 190.033022 
L 528.12141 190.279206 
L 528.53065 190.188189 
L 529.758368 189.535994 
L 531.190706 189.467227 
L 531.599946 189.590932 
L 532.009185 189.500485 
L 532.623044 189.291239 
L 533.441523 189.277783 
L 534.260002 188.742572 
L 534.669242 188.91311 
L 535.69234 189.773684 
L 536.10158 189.575614 
L 536.510819 189.288608 
L 537.533918 189.055422 
L 538.147777 188.771316 
L 538.557017 188.811824 
L 539.784735 189.158466 
L 540.398594 188.986591 
L 541.217073 188.556389 
L 541.626312 188.734016 
L 542.240172 189.120999 
L 543.46789 189.2069 
L 544.286369 189.420124 
L 544.695608 189.405329 
L 545.309467 189.271483 
L 546.332566 189.413798 
L 546.741806 189.230369 
L 547.151045 188.67318 
L 547.764904 187.681983 
L 548.174144 187.509193 
L 548.992623 187.41338 
L 549.401862 187.594972 
L 550.015721 188.268197 
L 550.424961 188.677064 
L 550.8342 188.754183 
L 551.24344 188.809652 
L 552.471158 189.616748 
L 553.289637 189.441351 
L 554.108116 188.947163 
L 555.949693 189.063022 
L 556.768172 188.843896 
L 557.791271 189.222748 
L 558.60975 189.330616 
L 559.018989 189.351968 
L 559.632848 189.611899 
L 559.837468 189.565078 
L 560.860567 188.800663 
L 561.269806 189.200386 
L 561.883665 189.837693 
L 562.292905 189.882907 
L 563.111384 189.677008 
L 563.520623 189.982425 
L 563.929863 190.327536 
L 564.339102 190.339715 
L 565.362201 190.18044 
L 565.97606 190.268589 
L 566.385299 190.362678 
L 567.408398 190.048513 
L 568.431497 190.351712 
L 569.249976 190.506269 
L 569.863835 190.978582 
L 570.273074 191.228735 
L 570.682314 191.17647 
L 571.091553 190.678054 
L 571.705412 189.89894 
L 572.523891 189.244624 
L 572.933131 189.236272 
L 573.54699 189.311755 
L 574.365469 189.229691 
L 575.388567 189.487004 
L 576.411666 189.418873 
L 577.230145 189.917119 
L 577.639384 189.819356 
L 579.890201 188.159141 
L 580.50406 188.25916 
L 581.731779 189.016676 
L 582.959497 189.155587 
L 583.777976 189.461566 
L 584.187216 189.373744 
L 585.005694 189.04144 
L 585.619554 189.094283 
L 586.438033 189.357262 
L 587.256511 189.249114 
L 587.665751 189.459353 
L 588.893469 190.351604 
L 589.507328 190.45919 
L 590.325807 190.253414 
L 590.939667 190.197699 
L 591.348906 190.355261 
L 591.962765 190.727675 
L 592.576624 190.758709 
L 593.190484 190.67041 
L 593.599723 190.299361 
L 594.827441 188.381384 
L 595.236681 188.24231 
L 596.05516 188.329951 
L 596.464399 188.286276 
L 597.282878 188.614669 
L 597.896737 189.123178 
L 598.919836 189.908541 
L 599.329075 190.016108 
L 601.579892 189.591042 
L 602.398371 189.37409 
L 602.807611 189.651609 
L 603.42147 190.303832 
L 603.830709 190.374014 
L 604.239949 190.140642 
L 605.058428 189.216333 
L 605.467667 189.256126 
L 605.876907 189.370217 
L 606.286146 189.149178 
L 607.104625 188.343451 
L 607.513864 188.270201 
L 607.923104 188.391324 
L 608.332343 188.840702 
L 608.741583 189.376228 
L 609.150822 189.54313 
L 609.969301 189.726919 
L 611.19702 189.952759 
L 612.015498 190.086112 
L 612.629358 190.415779 
L 613.447837 191.138836 
L 613.857076 191.023507 
L 614.470935 190.833611 
L 615.289414 190.954577 
L 616.312513 191.493297 
L 616.721752 191.219511 
L 617.94947 189.421086 
L 618.56333 189.2341 
L 619.791048 189.380295 
L 620.814147 190.03755 
L 621.428006 189.964747 
L 622.041865 189.761225 
L 622.655724 189.854998 
L 623.883443 190.036344 
L 625.72502 189.195301 
L 626.543499 188.710382 
L 627.157358 188.91123 
L 627.975837 189.312055 
L 628.385077 189.77506 
L 629.203555 190.916912 
L 629.408175 191.008025 
L 629.817415 190.847168 
L 630.431274 190.497678 
L 631.045133 190.405287 
L 631.863612 189.875489 
L 633.50057 190.360413 
L 634.728288 190.29223 
L 635.342147 190.379868 
L 635.751387 190.153967 
L 636.979105 188.944005 
L 638.206823 188.400408 
L 638.616063 188.725716 
L 639.434542 189.784434 
L 639.843781 190.028169 
L 640.253021 190.063562 
L 641.685359 189.663821 
L 642.299218 189.441764 
L 643.322317 189.537244 
L 643.936176 189.681534 
L 644.754655 189.696868 
L 645.368514 189.905279 
L 646.596232 189.978649 
L 647.823951 189.625305 
L 648.64243 189.799419 
L 650.484007 189.145943 
L 651.711725 188.884025 
L 653.553303 189.196579 
L 654.167162 189.001693 
L 654.781021 188.85855 
L 655.394881 188.604809 
L 655.80412 188.695503 
L 656.827219 189.159834 
L 657.850317 189.334197 
L 658.668796 190.097828 
L 659.691895 190.168819 
L 660.101134 189.996623 
L 660.714993 189.467058 
L 661.533472 188.666062 
L 661.942712 188.552305 
L 662.351951 188.823226 
L 662.96581 189.394259 
L 663.57967 189.628727 
L 664.398148 189.717241 
L 665.012008 189.526743 
L 665.625867 189.329507 
L 666.648965 189.200419 
L 667.262825 188.92256 
L 668.081304 188.844412 
L 668.695163 188.93037 
L 669.718261 189.343914 
L 670.332121 189.286936 
L 670.74136 189.2426 
L 671.150599 189.380884 
L 673.196797 190.561998 
L 673.606036 190.436166 
L 674.219895 189.901626 
L 674.629135 189.60313 
L 675.242994 189.54214 
L 675.856853 189.80648 
L 676.470712 190.025498 
L 677.493811 190.069547 
L 678.10767 190.174837 
L 678.51691 190.048827 
L 680.153867 188.953684 
L 680.563107 189.291851 
L 680.972346 189.650164 
L 682.404684 190.166532 
L 683.223163 190.198982 
L 683.632403 190.03765 
L 684.860121 189.332596 
L 685.47398 189.163901 
L 686.08784 188.938034 
L 688.134037 189.290027 
L 689.157135 189.955415 
L 689.975614 189.915669 
L 690.794093 190.171911 
L 691.407952 190.126306 
L 692.226431 189.957482 
L 693.04491 190.133637 
L 693.45415 190.337607 
L 694.477248 191.156616 
L 694.886488 191.043278 
L 695.704967 190.489603 
L 696.318826 190.124393 
L 697.751164 190.090465 
L 698.569643 189.386027 
L 698.978882 189.585149 
L 699.592741 189.8576 
L 700.001981 189.834635 
L 700.82046 189.482874 
L 701.229699 189.611331 
L 701.843558 189.91234 
L 702.866657 189.917297 
L 703.275897 190.261368 
L 703.889756 190.80273 
L 704.094375 190.809885 
L 704.503615 190.465419 
L 705.117474 189.5965 
L 705.526714 189.403214 
L 706.345192 189.180623 
L 708.18677 188.676471 
L 708.596009 188.760705 
L 709.823728 189.496873 
L 711.051446 189.647839 
L 711.665305 189.133165 
L 712.074545 189.111669 
L 712.688404 189.135084 
L 713.506883 189.144319 
L 713.916122 189.150489 
L 715.7577 188.570853 
L 716.166939 188.767985 
L 716.780799 189.226989 
L 717.190038 189.020293 
L 717.599277 188.78717 
L 718.008517 188.791049 
L 718.622376 188.884878 
L 719.440855 188.79778 
L 720.054714 188.98859 
L 720.668573 189.268342 
L 721.282433 189.328166 
L 722.305531 189.186293 
L 723.12401 189.502976 
L 724.147109 189.572109 
L 724.760968 190.101266 
L 725.579447 190.155329 
L 726.602545 191.05265 
L 727.216405 190.693098 
L 727.830264 190.173106 
L 728.648743 189.411795 
L 729.262602 189.483183 
L 729.876461 189.45534 
L 730.89956 189.36129 
L 731.308799 189.543582 
L 732.331898 190.328994 
L 732.741137 190.277348 
L 733.150377 190.198443 
L 733.764236 190.196776 
L 734.378095 189.951054 
L 735.605813 189.932192 
L 737.447391 189.08681 
L 738.06125 189.339219 
L 739.493588 190.067387 
L 739.902828 189.927882 
L 741.130546 188.740557 
L 741.539785 189.010215 
L 742.358264 189.886568 
L 742.767504 189.87888 
L 743.381363 189.531769 
L 743.790602 189.305807 
L 744.199842 189.398751 
L 744.609081 189.461398 
L 745.018321 189.422175 
L 745.42756 189.658968 
L 746.859898 191.130214 
L 747.269138 191.048629 
L 747.882997 190.746824 
L 749.110715 190.769735 
L 750.747673 189.93274 
L 751.361532 189.505615 
L 752.99849 188.662768 
L 753.612349 188.689036 
L 754.226209 188.893603 
L 754.635448 189.393591 
L 755.249307 190.177238 
L 755.658547 190.380986 
L 756.067786 190.331236 
L 757.704744 189.65535 
L 758.727843 189.533536 
L 759.341702 189.135435 
L 760.160181 188.799909 
L 761.183279 187.942086 
L 761.797138 187.793769 
L 762.206378 187.96923 
L 762.820237 188.68741 
L 763.843336 190.024189 
L 764.457195 190.297838 
L 764.866434 190.32674 
L 765.889533 190.057637 
L 766.298772 189.518943 
L 766.912632 188.696226 
L 767.321871 188.552355 
L 768.14035 188.629687 
L 768.754209 188.803945 
L 769.981928 189.529605 
L 771.209646 189.69004 
L 772.028125 189.640239 
L 772.846604 189.326603 
L 773.255843 189.413108 
L 773.869702 189.921762 
L 774.688181 190.638623 
L 775.50666 190.869606 
L 775.9159 190.826662 
L 776.529759 190.661481 
L 776.938998 190.76763 
L 777.552857 191.157112 
L 778.575956 191.265442 
L 780.008294 190.674333 
L 781.031393 189.968715 
L 782.054491 189.783778 
L 782.668351 189.432733 
L 783.28221 189.490563 
L 783.691449 189.605398 
L 784.919168 190.281573 
L 785.328407 190.473989 
L 785.942266 190.819339 
L 786.351506 190.702159 
L 786.760745 190.19537 
L 787.374604 189.298587 
L 787.579224 189.203029 
L 787.988463 189.358857 
L 788.397703 189.536889 
L 789.011562 189.587593 
L 790.64852 190.416156 
L 791.057759 190.384127 
L 792.490097 190.060014 
L 792.899337 190.121909 
L 793.922436 189.956454 
L 794.536295 190.019583 
L 795.354774 189.77497 
L 796.377872 190.058433 
L 796.991731 189.629931 
L 797.605591 189.309815 
L 798.628689 189.362529 
L 799.037929 189.597622 
L 799.651788 190.08792 
L 800.265647 190.288609 
L 800.674887 190.188896 
L 801.084126 190.000049 
L 801.493365 190.047351 
L 802.311844 190.397345 
L 802.721084 190.187823 
L 803.948802 189.163929 
L 804.971901 188.770835 
L 805.38114 189.035229 
L 805.79038 189.294228 
L 806.199619 189.188082 
L 806.813478 188.894424 
L 807.427338 188.754113 
L 808.041197 188.458509 
L 808.859676 188.619512 
L 809.268915 188.92018 
L 809.882774 189.793925 
L 810.292014 190.300476 
L 810.701253 190.342379 
L 811.519732 190.137746 
L 812.74745 190.397724 
L 813.565929 190.265579 
L 814.179788 190.260239 
L 815.202887 189.934616 
L 815.816746 189.703543 
L 816.635225 189.849125 
L 817.249084 189.801302 
L 818.067563 189.604237 
L 818.476803 189.612341 
L 819.499901 189.284835 
L 819.909141 189.487589 
L 821.546099 190.724169 
L 822.159958 190.774834 
L 822.773817 190.601731 
L 824.001535 189.785521 
L 824.410775 189.841363 
L 827.070831 191.144151 
L 828.09393 190.835633 
L 828.503169 190.987565 
L 828.912409 191.202123 
L 829.321648 191.077556 
L 830.344747 190.372012 
L 831.572465 189.731777 
L 831.981705 189.786711 
L 832.390944 189.602457 
L 833.004803 189.166166 
L 833.209423 189.168978 
L 833.618663 189.495327 
L 834.846381 191.089629 
L 835.25562 190.805665 
L 835.86948 190.395173 
L 836.483339 190.376463 
L 836.892578 190.288222 
L 838.120297 189.240819 
L 838.734156 189.101333 
L 839.552635 189.430052 
L 839.961874 189.764033 
L 840.780353 190.715722 
L 841.189592 190.731892 
L 841.803452 190.409054 
L 842.82655 189.732364 
L 843.440409 189.816145 
L 845.486607 189.537309 
L 846.100466 189.706581 
L 846.918945 190.077208 
L 847.737424 190.037191 
L 848.146663 190.286098 
L 849.579001 191.614769 
L 849.988241 191.459724 
L 850.6021 190.793223 
L 851.011339 190.38078 
L 851.420579 190.249503 
L 852.034438 190.362207 
L 852.648297 190.450972 
L 853.262156 190.403685 
L 854.080635 190.612705 
L 855.308354 190.123192 
L 857.559171 190.088613 
L 858.377649 190.086643 
L 858.991509 190.039621 
L 859.605368 190.18927 
L 860.014607 190.037001 
L 860.833086 189.667697 
L 861.242326 189.640565 
L 862.060805 189.803338 
L 863.288523 189.113217 
L 864.311622 188.884259 
L 864.925481 188.894372 
L 866.971678 189.963954 
L 868.199396 190.897844 
L 868.608636 190.729695 
L 869.222495 190.43269 
L 869.631734 190.615134 
L 870.040974 190.905388 
L 870.245594 190.882192 
L 870.654833 190.490928 
L 871.064073 190.093335 
L 871.677932 189.886955 
L 872.291791 189.881404 
L 873.31489 190.367987 
L 873.724129 190.248153 
L 875.156467 189.347569 
L 876.384185 189.563695 
L 878.021143 190.124551 
L 879.658101 189.452499 
L 880.067341 189.411491 
L 880.47658 189.421487 
L 880.885819 189.206942 
L 881.908918 188.281487 
L 882.318158 188.257867 
L 882.727397 188.524624 
L 883.136636 188.837422 
L 883.545876 188.914235 
L 883.955115 188.850084 
L 884.568975 188.470622 
L 884.978214 188.267003 
L 885.387453 188.342836 
L 886.205932 188.686365 
L 886.615172 188.625555 
L 887.229031 188.215258 
L 888.25213 187.121388 
L 888.661369 186.697382 
L 889.070608 186.578747 
L 889.684468 186.650172 
L 890.093707 186.39095 
L 890.707566 185.72226 
L 891.730665 184.084684 
L 892.139904 183.892435 
L 892.549144 183.971653 
L 892.958383 184.298631 
L 893.981482 185.488154 
L 894.390721 185.47735 
L 895.61844 184.620082 
L 896.027679 184.424008 
L 896.641538 183.618908 
L 898.278496 181.416893 
L 899.096975 179.882777 
L 899.915454 177.79097 
L 900.324693 176.350189 
L 900.938553 173.78952 
L 901.143172 173.41671 
L 901.347792 173.443037 
L 901.757032 174.245359 
L 902.370891 175.381624 
L 902.78013 175.67359 
L 903.393989 175.763883 
L 903.803229 175.658273 
L 904.417088 175.18678 
L 905.440187 174.106675 
L 906.872525 172.434434 
L 907.895623 172.158468 
L 908.304863 172.466109 
L 908.714102 172.945602 
L 909.123342 173.071221 
L 909.737201 172.78853 
L 910.14644 172.450308 
L 910.7603 171.49965 
L 911.578778 170.347583 
L 911.988018 170.298045 
L 913.624976 171.254924 
L 914.034215 171.709295 
L 914.238835 171.692957 
L 914.648074 171.037678 
L 915.671173 168.835849 
L 916.080412 168.581723 
L 916.285032 168.663185 
L 916.489652 168.931491 
L 917.512751 170.991471 
L 917.71737 170.951208 
L 918.331229 170.359403 
L 918.740469 169.858117 
L 919.149708 168.8613 
L 919.558948 166.701998 
L 919.968187 162.57168 
L 920.786666 151.408366 
L 920.991286 151.26655 
L 921.195906 152.703936 
L 922.423624 165.545303 
L 922.832863 167.871643 
L 923.242103 169.292422 
L 924.060582 170.948604 
L 924.469821 171.574695 
L 925.08368 172.032042 
L 926.516018 172.941657 
L 927.539117 172.551779 
L 928.971455 171.768537 
L 929.585314 170.896641 
L 929.789934 170.784466 
L 929.994554 170.845215 
L 930.608413 171.622075 
L 931.426892 172.633391 
L 931.836131 172.93396 
L 932.85923 173.295959 
L 933.268469 173.54727 
L 934.086948 173.639239 
L 934.496188 173.462299 
L 936.337765 172.283455 
L 937.360864 172.40009 
L 937.770103 172.84534 
L 938.383963 174.018828 
L 938.997822 175.135261 
L 939.407061 175.29226 
L 939.816301 175.066206 
L 941.044019 174.145364 
L 941.453259 174.20562 
L 943.294836 175.312886 
L 943.908695 175.972674 
L 944.317935 176.165886 
L 944.727174 176.062701 
L 945.136414 175.975662 
L 945.545653 176.297828 
L 946.568752 177.732851 
L 947.182611 178.780707 
L 947.59185 179.019224 
L 948.410329 178.968592 
L 949.433428 178.68341 
L 950.047287 179.058877 
L 950.661146 179.581833 
L 951.275005 180.029367 
L 952.707344 180.814306 
L 953.525822 181.430788 
L 954.139682 181.602713 
L 954.548921 181.567747 
L 955.3674 181.286829 
L 955.776639 181.549735 
L 956.390499 182.112362 
L 956.799738 182.098287 
L 957.413597 181.831915 
L 957.822837 181.921658 
L 959.459795 182.699484 
L 960.278273 183.646937 
L 960.482893 183.664047 
L 961.710612 183.100603 
L 962.119851 183.269673 
L 962.73371 183.535864 
L 963.14295 183.577885 
L 963.552189 183.991394 
L 964.370668 185.11692 
L 964.779907 185.44184 
L 965.189147 185.36558 
L 965.598386 185.160659 
L 966.007626 185.304455 
L 966.621485 185.808344 
L 967.030724 185.812833 
L 967.439964 185.481503 
L 968.667682 184.086891 
L 969.076922 184.372554 
L 970.713879 185.862336 
L 972.146218 185.565167 
L 973.373936 185.418221 
L 973.783175 185.852763 
L 974.601654 186.99073 
L 975.010894 187.321268 
L 975.420133 187.210587 
L 975.829373 187.017994 
L 976.238612 187.113891 
L 977.261711 187.787034 
L 977.67095 187.661793 
L 978.284809 187.400841 
L 979.307908 187.154328 
L 979.921767 187.015454 
L 980.535626 186.994781 
L 981.149486 186.750783 
L 981.558725 186.89246 
L 985.4465 189.099655 
L 986.060359 188.902935 
L 986.469598 188.424975 
L 986.878838 187.977791 
L 987.288077 187.935141 
L 988.106556 188.073569 
L 988.925035 188.368649 
L 989.334275 188.160551 
L 990.561993 186.535094 
L 990.971232 186.465005 
L 991.585092 186.735238 
L 993.631289 187.991877 
L 994.040528 187.875583 
L 994.859007 187.218423 
L 995.268247 187.239218 
L 996.086726 187.819194 
L 996.700585 188.46867 
L 997.109824 188.83961 
L 997.314444 188.88001 
L 997.723683 188.620867 
L 998.746782 187.306979 
L 999.360641 186.622214 
L 999.9745 186.257187 
L 1000.38374 186.214315 
L 1000.792979 186.498487 
L 1001.406839 187.103997 
L 1001.611458 187.157856 
L 1002.020698 186.896633 
L 1002.429937 186.560034 
L 1002.839177 186.593443 
L 1004.066895 187.395156 
L 1005.089994 187.571183 
L 1005.703853 187.870398 
L 1006.522332 188.329778 
L 1006.931571 188.348713 
L 1008.159289 188.06716 
L 1008.773149 188.302279 
L 1011.228585 189.687971 
L 1011.842445 189.263831 
L 1012.865543 188.495617 
L 1013.479402 188.272209 
L 1014.502501 188.439915 
L 1015.934839 188.607334 
L 1016.344079 188.569011 
L 1016.957938 188.899329 
L 1017.981036 189.550481 
L 1018.390276 189.352426 
L 1019.617994 187.951919 
L 1020.436473 187.226309 
L 1021.254952 186.608764 
L 1021.664191 186.685459 
L 1022.89191 187.589317 
L 1023.710389 187.922026 
L 1024.528868 188.214206 
L 1025.347347 188.301522 
L 1026.165825 188.731428 
L 1026.575065 188.95807 
L 1026.984304 188.956965 
L 1028.212023 188.589519 
L 1031.281319 188.748013 
L 1032.099798 189.004446 
L 1032.713657 189.582728 
L 1033.122896 189.877877 
L 1033.532136 189.867372 
L 1033.941375 189.837544 
L 1034.350615 189.891243 
L 1034.759854 189.678158 
L 1035.373713 189.083479 
L 1035.782953 189.019456 
L 1037.215291 189.309922 
L 1037.82915 189.023015 
L 1038.443009 188.201538 
L 1038.852249 187.845022 
L 1039.056868 187.886483 
L 1039.875347 188.395656 
L 1041.103066 188.452645 
L 1041.716925 188.146439 
L 1042.740023 187.465571 
L 1043.353882 187.615468 
L 1045.809319 188.5633 
L 1047.241657 188.470481 
L 1048.264756 188.779684 
L 1048.878615 188.611013 
L 1050.310953 188.056496 
L 1050.924812 188.168822 
L 1051.743291 188.683117 
L 1052.76639 189.619718 
L 1054.198728 190.021973 
L 1054.812587 190.004881 
L 1055.835686 189.419946 
L 1056.449545 189.174025 
L 1057.268024 189.211378 
L 1057.881883 188.91111 
L 1058.495742 188.616231 
L 1059.109601 188.468381 
L 1059.518841 188.292998 
L 1059.92808 188.400764 
L 1060.746559 188.958393 
L 1061.974278 189.257745 
L 1062.588137 189.305912 
L 1063.406616 189.69861 
L 1064.429714 189.581801 
L 1066.066672 190.324485 
L 1066.475912 190.264334 
L 1067.90825 189.672949 
L 1068.522109 189.61302 
L 1069.545208 189.189337 
L 1069.954447 189.14502 
L 1070.568306 188.600741 
L 1070.977546 188.292887 
L 1071.386785 188.298038 
L 1072.205264 188.883936 
L 1072.614503 189.11205 
L 1073.023743 189.080625 
L 1073.432982 189.012321 
L 1073.842222 189.18201 
L 1074.251461 189.401217 
L 1074.456081 189.395989 
L 1075.47918 188.809103 
L 1076.093039 188.829993 
L 1076.502278 188.823341 
L 1076.911518 189.159818 
L 1077.525377 189.864416 
L 1077.934616 190.035047 
L 1078.548476 189.908303 
L 1079.162335 189.711845 
L 1079.571574 189.934879 
L 1080.185433 190.318458 
L 1080.594673 190.380944 
L 1081.003912 190.212161 
L 1082.027011 189.509253 
L 1082.64087 189.545629 
L 1083.254729 189.453091 
L 1083.663969 189.450504 
L 1084.891687 189.924732 
L 1085.300926 189.755376 
L 1085.914786 188.963298 
L 1086.528645 188.350868 
L 1086.937884 188.210828 
L 1087.347124 188.383248 
L 1088.165603 189.050939 
L 1088.779462 189.085749 
L 1089.597941 189.110227 
L 1090.41642 188.993017 
L 1091.439518 188.923016 
L 1092.053377 189.189394 
L 1092.462617 189.288915 
L 1092.871856 189.120078 
L 1093.690335 188.679416 
L 1094.099575 188.641863 
L 1094.508814 188.799119 
L 1095.327293 189.318698 
L 1096.555011 189.452109 
L 1097.168871 189.386182 
L 1097.57811 189.555378 
L 1098.805828 190.282813 
L 1100.033547 189.786088 
L 1101.056645 188.925278 
L 1101.670505 188.799476 
L 1103.307462 188.882282 
L 1103.921322 188.770565 
L 1105.762899 189.123723 
L 1107.195237 188.656921 
L 1108.627575 188.999216 
L 1110.469153 189.377989 
L 1112.31073 190.312766 
L 1113.129209 190.414603 
L 1113.538449 190.243693 
L 1114.152308 189.905464 
L 1114.766167 189.96266 
L 1116.607745 190.454285 
L 1117.221604 190.104729 
L 1118.244703 189.720027 
L 1118.653942 189.688469 
L 1119.88166 190.159597 
L 1120.700139 190.007174 
L 1121.313998 189.70144 
L 1121.927858 189.569077 
L 1122.337097 189.085991 
L 1123.360196 187.52076 
L 1123.769435 187.348405 
L 1124.383294 187.675206 
L 1125.201773 188.157407 
L 1126.020252 188.732834 
L 1126.429492 188.723757 
L 1126.838731 188.599634 
L 1127.24797 188.717689 
L 1127.65721 188.867891 
L 1128.066449 188.711712 
L 1128.884928 188.204893 
L 1129.498787 188.06064 
L 1129.908027 188.271117 
L 1131.544985 189.694634 
L 1131.954224 189.648515 
L 1132.568083 189.50317 
L 1132.977323 189.398592 
L 1133.386562 189.260612 
L 1133.591182 189.3755 
L 1134.614281 190.519389 
L 1135.22814 190.710202 
L 1136.455858 190.431814 
L 1136.865098 190.230483 
L 1138.092816 189.138229 
L 1138.502055 188.68687 
L 1138.911295 188.523091 
L 1139.729774 188.308434 
L 1140.343633 188.027456 
L 1141.366732 187.27263 
L 1142.185211 187.492523 
L 1142.79907 187.688519 
L 1143.208309 187.980619 
L 1144.231408 188.987973 
L 1146.277605 189.874924 
L 1146.686845 189.908912 
L 1147.096084 189.721064 
L 1147.914563 189.213154 
L 1148.323802 189.393129 
L 1149.75614 190.273014 
L 1150.574619 190.261151 
L 1151.393098 189.943328 
L 1152.620817 189.810446 
L 1153.030056 189.911885 
L 1153.439296 189.792587 
L 1154.257774 189.486698 
L 1154.667014 189.725367 
L 1155.690113 190.892807 
L 1156.099352 190.881301 
L 1156.713211 190.819424 
L 1158.350169 191.110459 
L 1158.759408 190.821714 
L 1159.577887 189.661441 
L 1159.782507 189.604069 
L 1160.191746 189.931015 
L 1160.805606 190.705724 
L 1161.214845 190.824602 
L 1162.237944 190.474485 
L 1162.851803 190.459098 
L 1163.261042 190.2099 
L 1163.874902 189.430621 
L 1164.284141 188.936548 
L 1164.69338 188.788231 
L 1165.10262 189.178615 
L 1165.921099 190.407942 
L 1166.330338 190.691169 
L 1166.739578 190.728082 
L 1167.148817 190.554178 
L 1167.762676 189.968767 
L 1168.990395 188.613003 
L 1169.399634 188.703346 
L 1170.013493 188.973954 
L 1171.650451 189.442768 
L 1172.67355 189.960526 
L 1173.696648 190.2251 
L 1174.105888 190.387595 
L 1174.515127 190.271712 
L 1175.333606 189.800129 
L 1175.947465 189.544736 
L 1176.561325 189.21717 
L 1176.970564 189.225724 
L 1177.379804 189.626427 
L 1178.198282 190.611197 
L 1178.607522 190.900585 
L 1179.016761 190.894129 
L 1179.83524 190.451412 
L 1181.267578 190.548567 
L 1182.086057 190.309501 
L 1183.109156 189.694571 
L 1183.518395 189.737349 
L 1184.746114 190.627572 
L 1184.746114 190.627572 
" clip-path="url(#p7f1a631fc7)" style="fill: none; stroke: #000000; stroke-width: 2; stroke-linecap: square"/>
   </g>
   <g id="patch_3">
    <path d="M 3.00024 198.907885 
L 1184.99976 198.907885 
" style="fill: none; stroke: #000000; stroke-width: 2; stroke-linejoin: miter; stroke-linecap: square"/>
   </g>
  </g>
 </g>
 <defs>
  <clipPath id="p7f1a631fc7">
   <rect x="3.00024" y="3.00024" width="1181.99952" height="195.907645"/>
  </clipPath>
 </defs>
</svg>
