<?xml version="1.0" encoding="utf-8" standalone="no"?>
<!DOCTYPE svg PUBLIC "-//W3C//DTD SVG 1.1//EN"
  "http://www.w3.org/Graphics/SVG/1.1/DTD/svg11.dtd">
<svg xmlns:xlink="http://www.w3.org/1999/xlink" width="1188pt" height="252pt" viewBox="0 0 1188 252" xmlns="http://www.w3.org/2000/svg" version="1.1">
 <metadata>
  <rdf:RDF xmlns:dc="http://purl.org/dc/elements/1.1/" xmlns:cc="http://creativecommons.org/ns#" xmlns:rdf="http://www.w3.org/1999/02/22-rdf-syntax-ns#">
   <cc:Work>
    <dc:type rdf:resource="http://purl.org/dc/dcmitype/StillImage"/>
    <dc:date>2024-05-13T16:41:28.829778</dc:date>
    <dc:format>image/svg+xml</dc:format>
    <dc:creator>
     <cc:Agent>
      <dc:title>Matplotlib v3.8.0, https://matplotlib.org/</dc:title>
     </cc:Agent>
    </dc:creator>
   </cc:Work>
  </rdf:RDF>
 </metadata>
 <defs>
  <style type="text/css">*{stroke-linejoin: round; stroke-linecap: butt}</style>
 </defs>
 <g id="figure_1">
  <g id="patch_1">
   <path d="M 0 252 
L 1188 252 
L 1188 0 
L 0 0 
z
" style="fill: #ffffff"/>
  </g>
  <g id="axes_1">
   <g id="patch_2">
    <path d="M 3.00024 198.907885 
L 1184.99976 198.907885 
L 1184.99976 3.00024 
L 3.00024 3.00024 
z
" style="fill: #ffffff"/>
   </g>
   <g id="matplotlib.axis_1">
    <g id="xtick_1">
     <g id="line2d_1">
      <defs>
       <path id="mef1236a168" d="M 0 0 
L 0 8 
" style="stroke: #000000; stroke-width: 2"/>
      </defs>
      <g>
       <use xlink:href="#mef1236a168" x="1131.272509" y="198.907885" style="stroke: #000000; stroke-width: 2"/>
      </g>
     </g>
     <g id="text_1">
      <!-- 0 -->
      <g transform="translate(1126.267665 224.791947) scale(0.18 -0.18)">
       <defs>
        <path id="Arial-BoldMT-30" d="M 1756 4600 
Q 2422 4600 2797 4125 
Q 3244 3563 3244 2259 
Q 3244 959 2794 391 
Q 2422 -78 1756 -78 
Q 1088 -78 678 436 
Q 269 950 269 2269 
Q 269 3563 719 4131 
Q 1091 4600 1756 4600 
z
M 1756 3872 
Q 1597 3872 1472 3770 
Q 1347 3669 1278 3406 
Q 1188 3066 1188 2259 
Q 1188 1453 1269 1151 
Q 1350 850 1473 750 
Q 1597 650 1756 650 
Q 1916 650 2041 751 
Q 2166 853 2234 1116 
Q 2325 1453 2325 2259 
Q 2325 3066 2244 3367 
Q 2163 3669 2039 3770 
Q 1916 3872 1756 3872 
z
" transform="scale(0.015625)"/>
       </defs>
       <use xlink:href="#Arial-BoldMT-30"/>
      </g>
     </g>
    </g>
    <g id="xtick_2">
     <g id="line2d_2">
      <g>
       <use xlink:href="#mef1236a168" x="1023.818007" y="198.907885" style="stroke: #000000; stroke-width: 2"/>
      </g>
     </g>
     <g id="text_2">
      <!-- 1 -->
      <g transform="translate(1018.813164 224.791947) scale(0.18 -0.18)">
       <defs>
        <path id="Arial-BoldMT-31" d="M 2519 0 
L 1641 0 
L 1641 3309 
Q 1159 2859 506 2644 
L 506 3441 
Q 850 3553 1253 3867 
Q 1656 4181 1806 4600 
L 2519 4600 
L 2519 0 
z
" transform="scale(0.015625)"/>
       </defs>
       <use xlink:href="#Arial-BoldMT-31"/>
      </g>
     </g>
    </g>
    <g id="xtick_3">
     <g id="line2d_3">
      <g>
       <use xlink:href="#mef1236a168" x="916.363505" y="198.907885" style="stroke: #000000; stroke-width: 2"/>
      </g>
     </g>
     <g id="text_3">
      <!-- 2 -->
      <g transform="translate(911.358662 224.791947) scale(0.18 -0.18)">
       <defs>
        <path id="Arial-BoldMT-32" d="M 3238 816 
L 3238 0 
L 159 0 
Q 209 463 459 877 
Q 709 1291 1447 1975 
Q 2041 2528 2175 2725 
Q 2356 2997 2356 3263 
Q 2356 3556 2198 3714 
Q 2041 3872 1763 3872 
Q 1488 3872 1325 3706 
Q 1163 3541 1138 3156 
L 263 3244 
Q 341 3969 753 4284 
Q 1166 4600 1784 4600 
Q 2463 4600 2850 4234 
Q 3238 3869 3238 3325 
Q 3238 3016 3127 2736 
Q 3016 2456 2775 2150 
Q 2616 1947 2200 1565 
Q 1784 1184 1673 1059 
Q 1563 934 1494 816 
L 3238 816 
z
" transform="scale(0.015625)"/>
       </defs>
       <use xlink:href="#Arial-BoldMT-32"/>
      </g>
     </g>
    </g>
    <g id="xtick_4">
     <g id="line2d_4">
      <g>
       <use xlink:href="#mef1236a168" x="808.909004" y="198.907885" style="stroke: #000000; stroke-width: 2"/>
      </g>
     </g>
     <g id="text_4">
      <!-- 3 -->
      <g transform="translate(803.90416 224.791947) scale(0.18 -0.18)">
       <defs>
        <path id="Arial-BoldMT-33" d="M 241 1216 
L 1091 1319 
Q 1131 994 1309 822 
Q 1488 650 1741 650 
Q 2013 650 2198 856 
Q 2384 1063 2384 1413 
Q 2384 1744 2206 1937 
Q 2028 2131 1772 2131 
Q 1603 2131 1369 2066 
L 1466 2781 
Q 1822 2772 2009 2936 
Q 2197 3100 2197 3372 
Q 2197 3603 2059 3740 
Q 1922 3878 1694 3878 
Q 1469 3878 1309 3722 
Q 1150 3566 1116 3266 
L 306 3403 
Q 391 3819 561 4067 
Q 731 4316 1036 4458 
Q 1341 4600 1719 4600 
Q 2366 4600 2756 4188 
Q 3078 3850 3078 3425 
Q 3078 2822 2419 2463 
Q 2813 2378 3048 2084 
Q 3284 1791 3284 1375 
Q 3284 772 2843 347 
Q 2403 -78 1747 -78 
Q 1125 -78 715 280 
Q 306 638 241 1216 
z
" transform="scale(0.015625)"/>
       </defs>
       <use xlink:href="#Arial-BoldMT-33"/>
      </g>
     </g>
    </g>
    <g id="xtick_5">
     <g id="line2d_5">
      <g>
       <use xlink:href="#mef1236a168" x="701.454502" y="198.907885" style="stroke: #000000; stroke-width: 2"/>
      </g>
     </g>
     <g id="text_5">
      <!-- 4 -->
      <g transform="translate(696.449658 224.791947) scale(0.18 -0.18)">
       <defs>
        <path id="Arial-BoldMT-34" d="M 1994 0 
L 1994 922 
L 119 922 
L 119 1691 
L 2106 4600 
L 2844 4600 
L 2844 1694 
L 3413 1694 
L 3413 922 
L 2844 922 
L 2844 0 
L 1994 0 
z
M 1994 1694 
L 1994 3259 
L 941 1694 
L 1994 1694 
z
" transform="scale(0.015625)"/>
       </defs>
       <use xlink:href="#Arial-BoldMT-34"/>
      </g>
     </g>
    </g>
    <g id="xtick_6">
     <g id="line2d_6">
      <g>
       <use xlink:href="#mef1236a168" x="594" y="198.907885" style="stroke: #000000; stroke-width: 2"/>
      </g>
     </g>
     <g id="text_6">
      <!-- 5 -->
      <g transform="translate(588.995156 224.791947) scale(0.18 -0.18)">
       <defs>
        <path id="Arial-BoldMT-35" d="M 284 1178 
L 1159 1269 
Q 1197 972 1381 798 
Q 1566 625 1806 625 
Q 2081 625 2272 848 
Q 2463 1072 2463 1522 
Q 2463 1944 2273 2155 
Q 2084 2366 1781 2366 
Q 1403 2366 1103 2031 
L 391 2134 
L 841 4519 
L 3163 4519 
L 3163 3697 
L 1506 3697 
L 1369 2919 
Q 1663 3066 1969 3066 
Q 2553 3066 2959 2641 
Q 3366 2216 3366 1538 
Q 3366 972 3038 528 
Q 2591 -78 1797 -78 
Q 1163 -78 763 262 
Q 363 603 284 1178 
z
" transform="scale(0.015625)"/>
       </defs>
       <use xlink:href="#Arial-BoldMT-35"/>
      </g>
     </g>
    </g>
    <g id="xtick_7">
     <g id="line2d_7">
      <g>
       <use xlink:href="#mef1236a168" x="486.545498" y="198.907885" style="stroke: #000000; stroke-width: 2"/>
      </g>
     </g>
     <g id="text_7">
      <!-- 6 -->
      <g transform="translate(481.540654 224.791947) scale(0.18 -0.18)">
       <defs>
        <path id="Arial-BoldMT-36" d="M 3247 3459 
L 2397 3366 
Q 2366 3628 2234 3753 
Q 2103 3878 1894 3878 
Q 1616 3878 1423 3628 
Q 1231 3378 1181 2588 
Q 1509 2975 1997 2975 
Q 2547 2975 2939 2556 
Q 3331 2138 3331 1475 
Q 3331 772 2918 347 
Q 2506 -78 1859 -78 
Q 1166 -78 719 461 
Q 272 1000 272 2228 
Q 272 3488 737 4044 
Q 1203 4600 1947 4600 
Q 2469 4600 2811 4308 
Q 3153 4016 3247 3459 
z
M 1256 1544 
Q 1256 1116 1453 883 
Q 1650 650 1903 650 
Q 2147 650 2309 840 
Q 2472 1031 2472 1466 
Q 2472 1913 2297 2120 
Q 2122 2328 1859 2328 
Q 1606 2328 1431 2129 
Q 1256 1931 1256 1544 
z
" transform="scale(0.015625)"/>
       </defs>
       <use xlink:href="#Arial-BoldMT-36"/>
      </g>
     </g>
    </g>
    <g id="xtick_8">
     <g id="line2d_8">
      <g>
       <use xlink:href="#mef1236a168" x="379.090996" y="198.907885" style="stroke: #000000; stroke-width: 2"/>
      </g>
     </g>
     <g id="text_8">
      <!-- 7 -->
      <g transform="translate(374.086153 224.791947) scale(0.18 -0.18)">
       <defs>
        <path id="Arial-BoldMT-37" d="M 272 3703 
L 272 4519 
L 3275 4519 
L 3275 3881 
Q 2903 3516 2518 2831 
Q 2134 2147 1932 1376 
Q 1731 606 1734 0 
L 888 0 
Q 909 950 1279 1937 
Q 1650 2925 2269 3703 
L 272 3703 
z
" transform="scale(0.015625)"/>
       </defs>
       <use xlink:href="#Arial-BoldMT-37"/>
      </g>
     </g>
    </g>
    <g id="xtick_9">
     <g id="line2d_9">
      <g>
       <use xlink:href="#mef1236a168" x="271.636495" y="198.907885" style="stroke: #000000; stroke-width: 2"/>
      </g>
     </g>
     <g id="text_9">
      <!-- 8 -->
      <g transform="translate(266.631651 224.791947) scale(0.18 -0.18)">
       <defs>
        <path id="Arial-BoldMT-38" d="M 1025 2472 
Q 684 2616 529 2867 
Q 375 3119 375 3419 
Q 375 3931 733 4265 
Q 1091 4600 1750 4600 
Q 2403 4600 2764 4265 
Q 3125 3931 3125 3419 
Q 3125 3100 2959 2851 
Q 2794 2603 2494 2472 
Q 2875 2319 3073 2025 
Q 3272 1731 3272 1347 
Q 3272 713 2867 316 
Q 2463 -81 1791 -81 
Q 1166 -81 750 247 
Q 259 634 259 1309 
Q 259 1681 443 1992 
Q 628 2303 1025 2472 
z
M 1206 3356 
Q 1206 3094 1354 2947 
Q 1503 2800 1750 2800 
Q 2000 2800 2150 2948 
Q 2300 3097 2300 3359 
Q 2300 3606 2151 3754 
Q 2003 3903 1759 3903 
Q 1506 3903 1356 3753 
Q 1206 3603 1206 3356 
z
M 1125 1394 
Q 1125 1031 1311 828 
Q 1497 625 1775 625 
Q 2047 625 2225 820 
Q 2403 1016 2403 1384 
Q 2403 1706 2222 1901 
Q 2041 2097 1763 2097 
Q 1441 2097 1283 1875 
Q 1125 1653 1125 1394 
z
" transform="scale(0.015625)"/>
       </defs>
       <use xlink:href="#Arial-BoldMT-38"/>
      </g>
     </g>
    </g>
    <g id="xtick_10">
     <g id="line2d_10">
      <g>
       <use xlink:href="#mef1236a168" x="164.181993" y="198.907885" style="stroke: #000000; stroke-width: 2"/>
      </g>
     </g>
     <g id="text_10">
      <!-- 9 -->
      <g transform="translate(159.177149 224.791947) scale(0.18 -0.18)">
       <defs>
        <path id="Arial-BoldMT-39" d="M 291 1059 
L 1141 1153 
Q 1172 894 1303 769 
Q 1434 644 1650 644 
Q 1922 644 2112 894 
Q 2303 1144 2356 1931 
Q 2025 1547 1528 1547 
Q 988 1547 595 1964 
Q 203 2381 203 3050 
Q 203 3747 617 4173 
Q 1031 4600 1672 4600 
Q 2369 4600 2816 4061 
Q 3263 3522 3263 2288 
Q 3263 1031 2797 475 
Q 2331 -81 1584 -81 
Q 1047 -81 715 205 
Q 384 491 291 1059 
z
M 2278 2978 
Q 2278 3403 2083 3637 
Q 1888 3872 1631 3872 
Q 1388 3872 1227 3680 
Q 1066 3488 1066 3050 
Q 1066 2606 1241 2398 
Q 1416 2191 1678 2191 
Q 1931 2191 2104 2391 
Q 2278 2591 2278 2978 
z
" transform="scale(0.015625)"/>
       </defs>
       <use xlink:href="#Arial-BoldMT-39"/>
      </g>
     </g>
    </g>
    <g id="xtick_11">
     <g id="line2d_11">
      <g>
       <use xlink:href="#mef1236a168" x="56.727491" y="198.907885" style="stroke: #000000; stroke-width: 2"/>
      </g>
     </g>
     <g id="text_11">
      <!-- 10 -->
      <g transform="translate(46.717803 224.791947) scale(0.18 -0.18)">
       <use xlink:href="#Arial-BoldMT-31"/>
       <use xlink:href="#Arial-BoldMT-30" x="55.615234"/>
      </g>
     </g>
    </g>
    <g id="text_12">
     <!-- Chemical Shift / ppm -->
     <g transform="translate(504.992813 245.447573) scale(0.18 -0.18)">
      <defs>
       <path id="Arial-BoldMT-43" d="M 3397 1684 
L 4294 1400 
Q 4088 650 3608 286 
Q 3128 -78 2391 -78 
Q 1478 -78 890 545 
Q 303 1169 303 2250 
Q 303 3394 893 4026 
Q 1484 4659 2447 4659 
Q 3288 4659 3813 4163 
Q 4125 3869 4281 3319 
L 3366 3100 
Q 3284 3456 3026 3662 
Q 2769 3869 2400 3869 
Q 1891 3869 1573 3503 
Q 1256 3138 1256 2319 
Q 1256 1450 1568 1081 
Q 1881 713 2381 713 
Q 2750 713 3015 947 
Q 3281 1181 3397 1684 
z
" transform="scale(0.015625)"/>
       <path id="Arial-BoldMT-68" d="M 1334 4581 
L 1334 2897 
Q 1759 3394 2350 3394 
Q 2653 3394 2897 3281 
Q 3141 3169 3264 2994 
Q 3388 2819 3433 2606 
Q 3478 2394 3478 1947 
L 3478 0 
L 2600 0 
L 2600 1753 
Q 2600 2275 2550 2415 
Q 2500 2556 2373 2639 
Q 2247 2722 2056 2722 
Q 1838 2722 1666 2615 
Q 1494 2509 1414 2295 
Q 1334 2081 1334 1663 
L 1334 0 
L 456 0 
L 456 4581 
L 1334 4581 
z
" transform="scale(0.015625)"/>
       <path id="Arial-BoldMT-65" d="M 2381 1056 
L 3256 909 
Q 3088 428 2723 176 
Q 2359 -75 1813 -75 
Q 947 -75 531 491 
Q 203 944 203 1634 
Q 203 2459 634 2926 
Q 1066 3394 1725 3394 
Q 2466 3394 2894 2905 
Q 3322 2416 3303 1406 
L 1103 1406 
Q 1113 1016 1316 798 
Q 1519 581 1822 581 
Q 2028 581 2168 693 
Q 2309 806 2381 1056 
z
M 2431 1944 
Q 2422 2325 2234 2523 
Q 2047 2722 1778 2722 
Q 1491 2722 1303 2513 
Q 1116 2303 1119 1944 
L 2431 1944 
z
" transform="scale(0.015625)"/>
       <path id="Arial-BoldMT-6d" d="M 394 3319 
L 1203 3319 
L 1203 2866 
Q 1638 3394 2238 3394 
Q 2556 3394 2790 3262 
Q 3025 3131 3175 2866 
Q 3394 3131 3647 3262 
Q 3900 3394 4188 3394 
Q 4553 3394 4806 3245 
Q 5059 3097 5184 2809 
Q 5275 2597 5275 2122 
L 5275 0 
L 4397 0 
L 4397 1897 
Q 4397 2391 4306 2534 
Q 4184 2722 3931 2722 
Q 3747 2722 3584 2609 
Q 3422 2497 3350 2280 
Q 3278 2063 3278 1594 
L 3278 0 
L 2400 0 
L 2400 1819 
Q 2400 2303 2353 2443 
Q 2306 2584 2207 2653 
Q 2109 2722 1941 2722 
Q 1738 2722 1575 2612 
Q 1413 2503 1342 2297 
Q 1272 2091 1272 1613 
L 1272 0 
L 394 0 
L 394 3319 
z
" transform="scale(0.015625)"/>
       <path id="Arial-BoldMT-69" d="M 459 3769 
L 459 4581 
L 1338 4581 
L 1338 3769 
L 459 3769 
z
M 459 0 
L 459 3319 
L 1338 3319 
L 1338 0 
L 459 0 
z
" transform="scale(0.015625)"/>
       <path id="Arial-BoldMT-63" d="M 3353 2338 
L 2488 2181 
Q 2444 2441 2289 2572 
Q 2134 2703 1888 2703 
Q 1559 2703 1364 2476 
Q 1169 2250 1169 1719 
Q 1169 1128 1367 884 
Q 1566 641 1900 641 
Q 2150 641 2309 783 
Q 2469 925 2534 1272 
L 3397 1125 
Q 3263 531 2881 228 
Q 2500 -75 1859 -75 
Q 1131 -75 698 384 
Q 266 844 266 1656 
Q 266 2478 700 2936 
Q 1134 3394 1875 3394 
Q 2481 3394 2839 3133 
Q 3197 2872 3353 2338 
z
" transform="scale(0.015625)"/>
       <path id="Arial-BoldMT-61" d="M 1116 2306 
L 319 2450 
Q 453 2931 781 3162 
Q 1109 3394 1756 3394 
Q 2344 3394 2631 3255 
Q 2919 3116 3036 2902 
Q 3153 2688 3153 2116 
L 3144 1091 
Q 3144 653 3186 445 
Q 3228 238 3344 0 
L 2475 0 
Q 2441 88 2391 259 
Q 2369 338 2359 363 
Q 2134 144 1878 34 
Q 1622 -75 1331 -75 
Q 819 -75 523 203 
Q 228 481 228 906 
Q 228 1188 362 1408 
Q 497 1628 739 1745 
Q 981 1863 1438 1950 
Q 2053 2066 2291 2166 
L 2291 2253 
Q 2291 2506 2166 2614 
Q 2041 2722 1694 2722 
Q 1459 2722 1328 2630 
Q 1197 2538 1116 2306 
z
M 2291 1594 
Q 2122 1538 1756 1459 
Q 1391 1381 1278 1306 
Q 1106 1184 1106 997 
Q 1106 813 1243 678 
Q 1381 544 1594 544 
Q 1831 544 2047 700 
Q 2206 819 2256 991 
Q 2291 1103 2291 1419 
L 2291 1594 
z
" transform="scale(0.015625)"/>
       <path id="Arial-BoldMT-6c" d="M 459 0 
L 459 4581 
L 1338 4581 
L 1338 0 
L 459 0 
z
" transform="scale(0.015625)"/>
       <path id="Arial-BoldMT-20" transform="scale(0.015625)"/>
       <path id="Arial-BoldMT-53" d="M 231 1491 
L 1131 1578 
Q 1213 1125 1461 912 
Q 1709 700 2131 700 
Q 2578 700 2804 889 
Q 3031 1078 3031 1331 
Q 3031 1494 2936 1608 
Q 2841 1722 2603 1806 
Q 2441 1863 1863 2006 
Q 1119 2191 819 2459 
Q 397 2838 397 3381 
Q 397 3731 595 4036 
Q 794 4341 1167 4500 
Q 1541 4659 2069 4659 
Q 2931 4659 3367 4281 
Q 3803 3903 3825 3272 
L 2900 3231 
Q 2841 3584 2645 3739 
Q 2450 3894 2059 3894 
Q 1656 3894 1428 3728 
Q 1281 3622 1281 3444 
Q 1281 3281 1419 3166 
Q 1594 3019 2269 2859 
Q 2944 2700 3267 2529 
Q 3591 2359 3773 2064 
Q 3956 1769 3956 1334 
Q 3956 941 3737 597 
Q 3519 253 3119 86 
Q 2719 -81 2122 -81 
Q 1253 -81 787 320 
Q 322 722 231 1491 
z
" transform="scale(0.015625)"/>
       <path id="Arial-BoldMT-66" d="M 75 3319 
L 563 3319 
L 563 3569 
Q 563 3988 652 4194 
Q 741 4400 980 4529 
Q 1219 4659 1584 4659 
Q 1959 4659 2319 4547 
L 2200 3934 
Q 1991 3984 1797 3984 
Q 1606 3984 1523 3895 
Q 1441 3806 1441 3553 
L 1441 3319 
L 2097 3319 
L 2097 2628 
L 1441 2628 
L 1441 0 
L 563 0 
L 563 2628 
L 75 2628 
L 75 3319 
z
" transform="scale(0.015625)"/>
       <path id="Arial-BoldMT-74" d="M 1981 3319 
L 1981 2619 
L 1381 2619 
L 1381 1281 
Q 1381 875 1398 808 
Q 1416 741 1477 697 
Q 1538 653 1625 653 
Q 1747 653 1978 738 
L 2053 56 
Q 1747 -75 1359 -75 
Q 1122 -75 931 4 
Q 741 84 652 211 
Q 563 338 528 553 
Q 500 706 500 1172 
L 500 2619 
L 97 2619 
L 97 3319 
L 500 3319 
L 500 3978 
L 1381 4491 
L 1381 3319 
L 1981 3319 
z
" transform="scale(0.015625)"/>
       <path id="Arial-BoldMT-2f" d="M -9 -78 
L 1125 4659 
L 1784 4659 
L 638 -78 
L -9 -78 
z
" transform="scale(0.015625)"/>
       <path id="Arial-BoldMT-70" d="M 434 3319 
L 1253 3319 
L 1253 2831 
Q 1413 3081 1684 3237 
Q 1956 3394 2288 3394 
Q 2866 3394 3269 2941 
Q 3672 2488 3672 1678 
Q 3672 847 3265 386 
Q 2859 -75 2281 -75 
Q 2006 -75 1782 34 
Q 1559 144 1313 409 
L 1313 -1263 
L 434 -1263 
L 434 3319 
z
M 1303 1716 
Q 1303 1156 1525 889 
Q 1747 622 2066 622 
Q 2372 622 2575 867 
Q 2778 1113 2778 1672 
Q 2778 2194 2568 2447 
Q 2359 2700 2050 2700 
Q 1728 2700 1515 2451 
Q 1303 2203 1303 1716 
z
" transform="scale(0.015625)"/>
      </defs>
      <use xlink:href="#Arial-BoldMT-43"/>
      <use xlink:href="#Arial-BoldMT-68" x="72.216797"/>
      <use xlink:href="#Arial-BoldMT-65" x="133.300781"/>
      <use xlink:href="#Arial-BoldMT-6d" x="188.916016"/>
      <use xlink:href="#Arial-BoldMT-69" x="277.832031"/>
      <use xlink:href="#Arial-BoldMT-63" x="305.615234"/>
      <use xlink:href="#Arial-BoldMT-61" x="361.230469"/>
      <use xlink:href="#Arial-BoldMT-6c" x="416.845703"/>
      <use xlink:href="#Arial-BoldMT-20" x="444.628906"/>
      <use xlink:href="#Arial-BoldMT-53" x="472.412109"/>
      <use xlink:href="#Arial-BoldMT-68" x="539.111328"/>
      <use xlink:href="#Arial-BoldMT-69" x="600.195312"/>
      <use xlink:href="#Arial-BoldMT-66" x="627.978516"/>
      <use xlink:href="#Arial-BoldMT-74" x="661.279297"/>
      <use xlink:href="#Arial-BoldMT-20" x="694.580078"/>
      <use xlink:href="#Arial-BoldMT-2f" x="722.363281"/>
      <use xlink:href="#Arial-BoldMT-20" x="750.146484"/>
      <use xlink:href="#Arial-BoldMT-70" x="777.929688"/>
      <use xlink:href="#Arial-BoldMT-70" x="839.013672"/>
      <use xlink:href="#Arial-BoldMT-6d" x="900.097656"/>
     </g>
    </g>
   </g>
   <g id="matplotlib.axis_2"/>
   <g id="line2d_12">
    <path d="M 3.059445 189.304934 
L 3.877924 189.376108 
L 4.491783 189.281654 
L 5.105642 189.112444 
L 5.514882 189.206962 
L 6.33336 189.830375 
L 7.151839 190.499818 
L 7.561079 190.642705 
L 7.970318 190.620527 
L 8.379558 190.395521 
L 9.198037 189.625095 
L 9.607276 189.611231 
L 11.039614 189.827974 
L 11.858093 189.857369 
L 12.267333 190.076381 
L 12.881192 190.535795 
L 13.085811 190.562579 
L 13.495051 190.290276 
L 13.90429 189.993125 
L 14.31353 190.044545 
L 14.927389 190.142986 
L 16.359727 190.075728 
L 16.973586 189.829943 
L 17.382826 189.923739 
L 18.610544 190.848169 
L 19.224403 190.764972 
L 20.452122 190.305306 
L 21.065981 190.285026 
L 21.67984 190.048636 
L 22.498319 189.585895 
L 24.953756 189.202254 
L 25.772234 189.639719 
L 26.386094 189.45973 
L 27.204573 189.110912 
L 28.636911 188.827089 
L 29.864629 189.732212 
L 30.478488 189.669712 
L 31.092347 189.285456 
L 31.706207 188.90074 
L 32.115446 188.949266 
L 32.933925 189.21976 
L 33.343164 189.148449 
L 34.161643 188.879096 
L 34.775502 188.887401 
L 35.184742 189.162117 
L 36.207841 190.21638 
L 36.61708 190.192657 
L 37.640179 189.593796 
L 38.254038 189.717346 
L 38.867897 189.83539 
L 40.095615 189.727047 
L 40.709475 189.613623 
L 41.937193 189.668629 
L 42.551052 190.190342 
L 42.960292 190.201329 
L 45.006489 189.673049 
L 45.415728 189.55182 
L 46.848066 189.603026 
L 47.871165 188.910075 
L 48.280404 189.050221 
L 49.303503 189.61896 
L 50.735841 189.982818 
L 51.3497 189.890771 
L 52.168179 190.055974 
L 52.782038 189.680471 
L 53.395898 189.354793 
L 53.805137 189.437219 
L 54.214377 189.55694 
L 54.828236 189.40954 
L 55.442095 189.26633 
L 56.055954 189.285593 
L 56.874433 189.454986 
L 57.283672 189.252204 
L 58.102151 188.575536 
L 58.511391 188.641915 
L 60.557588 189.440224 
L 60.966828 189.407779 
L 61.785306 189.238604 
L 63.013025 189.133901 
L 64.036123 189.451237 
L 64.445363 189.5055 
L 65.059222 189.521744 
L 66.28694 190.010148 
L 67.310039 189.74112 
L 69.560856 189.472425 
L 70.379335 189.765471 
L 71.402434 189.484976 
L 72.425532 189.698779 
L 73.244011 189.737088 
L 74.676349 190.116348 
L 75.290208 189.951728 
L 76.722546 189.406808 
L 77.131786 189.526043 
L 77.745645 189.796032 
L 78.359504 189.836283 
L 78.973363 189.527757 
L 79.791842 189.061642 
L 80.405702 188.991182 
L 82.042659 189.334629 
L 82.861138 189.742391 
L 83.884237 190.01548 
L 84.702716 189.887331 
L 85.111955 189.945964 
L 85.725814 190.111275 
L 86.135054 189.865142 
L 86.953533 189.179766 
L 87.567392 188.969834 
L 87.976631 189.064952 
L 88.590491 189.453373 
L 89.20435 189.836058 
L 90.022829 190.252197 
L 90.432068 190.418384 
L 90.841308 190.353192 
L 91.864406 189.876261 
L 92.478265 189.525326 
L 93.705984 189.446751 
L 94.729082 189.134558 
L 95.752181 189.435198 
L 96.77528 189.937033 
L 97.184519 189.753033 
L 98.207618 189.035847 
L 98.616857 188.91192 
L 99.230716 188.994534 
L 99.844576 189.346523 
L 100.458435 189.737768 
L 100.867674 189.675861 
L 101.481533 189.49462 
L 102.095393 189.450553 
L 102.913871 189.290317 
L 107.415505 188.98191 
L 109.257083 190.001061 
L 110.689421 190.159652 
L 112.326379 189.201538 
L 113.144858 189.24303 
L 113.963337 189.691846 
L 114.577196 189.957641 
L 116.214154 190.105162 
L 117.441872 189.841165 
L 117.851112 189.835118 
L 118.464971 189.947607 
L 118.87421 189.819604 
L 119.897309 189.286714 
L 120.306548 189.297069 
L 121.125027 189.536103 
L 122.761985 189.506671 
L 123.785084 189.762935 
L 125.626661 189.673476 
L 126.24052 189.658031 
L 127.468239 189.968652 
L 128.286718 189.888902 
L 129.309816 189.609746 
L 129.719056 189.781205 
L 130.742154 190.481127 
L 131.151394 190.429066 
L 131.765253 190.065292 
L 132.379112 189.734787 
L 133.402211 189.50111 
L 133.81145 189.303569 
L 134.22069 189.322228 
L 136.062267 189.83149 
L 137.289986 189.599699 
L 137.903845 189.666126 
L 138.722324 189.697955 
L 139.540803 189.828424 
L 140.973141 189.518498 
L 141.38238 189.520098 
L 142.200859 189.340983 
L 143.223958 189.591261 
L 144.451676 190.348119 
L 145.270155 190.12617 
L 145.679394 189.965824 
L 146.907113 189.131645 
L 147.316352 189.141105 
L 147.930211 189.442594 
L 148.339451 189.677067 
L 148.95331 189.65647 
L 150.590268 189.55298 
L 151.613366 189.258611 
L 152.841085 189.54666 
L 153.864183 189.654976 
L 154.887282 189.433631 
L 155.501141 189.504626 
L 156.115 189.262216 
L 156.52424 189.173816 
L 157.342719 189.505431 
L 158.570437 189.947439 
L 159.184296 189.969141 
L 159.593536 189.796247 
L 160.821254 188.957682 
L 161.844353 189.179036 
L 162.253592 189.12889 
L 164.09517 189.449995 
L 165.936747 189.431952 
L 166.550607 189.648313 
L 167.369085 190.019925 
L 167.778325 189.835397 
L 169.210663 188.78576 
L 169.619902 188.786809 
L 170.643001 189.219735 
L 171.052241 189.016347 
L 171.870719 188.434277 
L 172.279959 188.298882 
L 172.689198 188.397977 
L 173.712297 189.164145 
L 174.121536 189.128749 
L 175.758494 188.372885 
L 176.167734 188.649941 
L 176.781593 189.16237 
L 177.190832 189.205048 
L 178.82779 188.935882 
L 179.441649 188.904546 
L 179.850889 189.061952 
L 180.669368 189.584914 
L 181.078607 189.462712 
L 181.897086 188.94831 
L 182.306325 188.928181 
L 183.329424 189.106218 
L 184.147903 188.946689 
L 184.966382 189.029506 
L 185.784861 188.53477 
L 186.39872 188.325168 
L 187.626438 188.273971 
L 188.240298 188.651457 
L 189.058776 188.672127 
L 189.877255 188.290383 
L 191.309593 187.862309 
L 191.923453 188.012492 
L 192.741932 188.101664 
L 193.355791 188.023078 
L 193.96965 187.651145 
L 194.788129 187.129185 
L 196.629706 186.410073 
L 197.038946 186.499212 
L 197.652805 186.772315 
L 198.266664 186.777205 
L 198.675904 186.648451 
L 199.289763 186.121677 
L 202.359059 182.508294 
L 203.382157 180.713706 
L 204.200636 179.778031 
L 204.609876 178.916943 
L 205.223735 176.846444 
L 205.837594 173.991679 
L 206.451453 170.263917 
L 207.065312 165.152729 
L 207.679172 157.872583 
L 208.293031 147.585205 
L 208.90689 132.842429 
L 209.520749 110.905514 
L 210.134608 77.340673 
L 211.157707 8.481003 
L 211.362327 3.00024 
L 211.566946 3.508867 
L 211.771566 10.1129 
L 212.180806 37.255986 
L 212.999285 99.725749 
L 213.613144 128.750303 
L 214.227003 144.932736 
L 214.636242 151.187585 
L 215.045482 154.951481 
L 215.454721 156.763025 
L 215.659341 157.108335 
L 215.863961 157.174883 
L 216.47782 156.790952 
L 216.68244 156.881329 
L 217.091679 157.664507 
L 218.319397 161.389053 
L 218.524017 161.538688 
L 218.728637 161.472846 
L 219.137876 160.916752 
L 219.547116 159.909961 
L 219.956355 158.162564 
L 220.570214 153.826213 
L 220.979454 150.884492 
L 221.184074 150.027042 
L 221.388693 149.813113 
L 221.593313 150.205738 
L 223.63951 158.440814 
L 224.04875 159.959296 
L 224.253369 160.230517 
L 224.457989 160.110829 
L 224.662609 159.592427 
L 225.071848 157.547787 
L 226.299567 149.359745 
L 226.504186 149.184904 
L 226.708806 149.50099 
L 227.322665 151.183554 
L 227.731905 151.613393 
L 227.936525 151.784495 
L 228.141144 152.163513 
L 228.345764 152.90017 
L 228.755003 155.594353 
L 229.778102 164.069915 
L 230.187342 165.908378 
L 230.391961 166.336563 
L 230.596581 166.436589 
L 230.801201 166.222494 
L 231.00582 165.698393 
L 231.41506 163.671942 
L 231.824299 160.309918 
L 232.438159 152.856972 
L 233.052018 145.281387 
L 233.256637 144.099796 
L 233.461257 144.092851 
L 233.665877 145.251202 
L 234.279736 152.29789 
L 234.893595 158.411288 
L 236.530553 168.943976 
L 236.939793 170.064829 
L 237.144412 170.223617 
L 237.349032 170.136546 
L 237.553652 169.816978 
L 237.962891 168.538929 
L 238.372131 166.493038 
L 238.78137 163.510419 
L 239.19061 159.232849 
L 239.804469 149.690409 
L 240.827567 127.597719 
L 242.055286 103.631487 
L 242.464525 99.445062 
L 242.669145 99.534481 
L 242.873765 101.109508 
L 243.283004 107.173375 
L 244.101483 122.531615 
L 245.943061 163.3544 
L 246.55692 169.397992 
L 247.170779 172.888628 
L 247.580018 174.25645 
L 247.989258 175.067855 
L 248.398497 175.35749 
L 248.603117 175.2792 
L 248.807737 175.029354 
L 249.216976 173.996629 
L 249.626216 172.269966 
L 250.035455 169.576149 
L 250.649314 163.730573 
L 251.467793 156.122811 
L 252.081652 152.618526 
L 252.490892 151.329681 
L 252.695512 151.41059 
L 252.900131 152.102568 
L 253.309371 154.953902 
L 255.150948 171.869863 
L 255.764807 177.015639 
L 256.378667 180.501465 
L 256.992526 182.954994 
L 257.811005 185.251854 
L 258.424864 186.280947 
L 258.834103 186.657833 
L 259.243343 186.819769 
L 260.061822 186.944606 
L 260.880301 187.312721 
L 262.517258 187.402992 
L 263.131118 187.679572 
L 264.154216 187.693033 
L 264.972695 187.562297 
L 268.246611 186.70508 
L 268.86047 186.127973 
L 269.474329 186.001537 
L 270.088188 185.739922 
L 270.702047 185.567194 
L 271.315907 185.482811 
L 271.725146 185.214514 
L 272.339005 184.526898 
L 273.975963 182.189889 
L 274.589822 180.308226 
L 275.408301 178.021768 
L 276.63602 175.600443 
L 277.454498 172.540299 
L 278.068358 169.313713 
L 278.682217 164.367947 
L 279.296076 156.898287 
L 279.909935 145.805827 
L 280.523794 129.906349 
L 281.137654 107.355309 
L 282.569992 46.884415 
L 282.979231 39.812726 
L 283.183851 38.149335 
L 283.388471 37.456959 
L 283.59309 37.731288 
L 283.79771 39.18481 
L 284.00233 42.177864 
L 284.411569 53.663929 
L 285.843907 105.815683 
L 286.253147 110.711275 
L 286.457766 111.212063 
L 286.662386 110.594442 
L 287.071626 106.760112 
L 288.503964 88.890047 
L 288.913203 86.643216 
L 289.117823 86.707473 
L 289.322443 87.932378 
L 289.731682 94.39578 
L 290.9594 122.153809 
L 291.777879 138.117693 
L 292.800978 159.687355 
L 293.414837 167.94857 
L 294.028696 173.056963 
L 294.642556 175.86723 
L 295.051795 176.945194 
L 295.461034 177.551629 
L 296.484133 178.502379 
L 297.507232 180.574683 
L 298.121091 181.264526 
L 298.53033 182.285598 
L 299.553429 185.672846 
L 300.167288 186.520903 
L 300.781147 186.905962 
L 301.599626 187.317016 
L 302.213485 187.978348 
L 302.827345 188.613267 
L 303.236584 188.643788 
L 303.850443 188.582164 
L 304.464302 188.652081 
L 305.487401 188.634195 
L 306.10126 188.524891 
L 306.5105 188.440436 
L 306.919739 188.561934 
L 307.738218 189.071691 
L 308.556697 189.179852 
L 309.170556 189.137744 
L 310.398274 188.791691 
L 311.216753 189.121012 
L 312.035232 189.481631 
L 312.649091 189.459443 
L 313.262951 189.373452 
L 315.104528 190.025922 
L 315.513768 189.886875 
L 316.536866 188.993687 
L 319.606162 189.045496 
L 320.833881 189.630805 
L 321.24312 189.530059 
L 321.856979 189.181052 
L 323.084698 189.022132 
L 324.312416 188.480528 
L 324.721655 188.457325 
L 325.335515 188.870382 
L 325.949374 189.262499 
L 326.563233 189.33832 
L 327.995571 189.324586 
L 329.632529 189.314515 
L 330.655627 188.823057 
L 331.474106 188.612678 
L 331.883346 188.683982 
L 333.315684 189.478496 
L 333.724923 189.406001 
L 334.338782 189.080617 
L 334.748022 189.208689 
L 335.361881 189.62724 
L 336.794219 189.999532 
L 337.612698 189.753982 
L 338.226557 189.540954 
L 339.249656 189.322037 
L 339.863515 189.1364 
L 340.272755 189.240481 
L 341.295853 189.928751 
L 341.705093 189.777096 
L 342.114332 189.579692 
L 342.728191 189.58829 
L 343.75129 189.79603 
L 344.160529 189.85949 
L 345.183628 189.543338 
L 346.206727 189.955156 
L 347.025206 189.97914 
L 347.843684 190.302574 
L 348.252924 190.453635 
L 348.662163 190.371721 
L 349.889882 189.601599 
L 350.503741 189.276874 
L 351.936079 189.072783 
L 352.549938 188.911056 
L 356.028474 189.150664 
L 357.256192 188.721377 
L 357.870051 188.753857 
L 358.89315 188.953818 
L 359.711629 189.031377 
L 361.143967 188.668438 
L 362.371685 187.85232 
L 362.985544 187.52149 
L 363.599403 187.540889 
L 364.827122 187.780428 
L 365.236361 187.581679 
L 365.85022 186.972323 
L 366.46408 186.345956 
L 366.873319 186.201706 
L 368.305657 186.077887 
L 369.124136 185.727421 
L 369.737995 185.273467 
L 370.147235 184.729771 
L 371.374953 182.308118 
L 371.988812 180.376855 
L 372.602671 177.62747 
L 373.216531 173.860611 
L 373.83039 168.477753 
L 375.058108 154.841683 
L 375.671967 145.526366 
L 376.285826 131.708671 
L 377.308925 99.734115 
L 377.718165 89.098309 
L 377.922784 85.959445 
L 378.127404 84.658368 
L 378.332024 85.182819 
L 378.536643 87.307238 
L 378.945883 94.871316 
L 380.173601 121.261508 
L 381.40132 141.166648 
L 382.015179 149.131539 
L 382.424418 152.731059 
L 382.833658 154.944816 
L 383.242897 155.903351 
L 383.447517 155.88756 
L 383.652137 155.565035 
L 384.061376 154.076471 
L 384.470616 151.400376 
L 384.879855 147.434001 
L 385.493714 138.794032 
L 386.516813 118.975324 
L 387.539911 94.876657 
L 388.97225 55.922322 
L 389.176869 54.636072 
L 389.381489 55.790328 
L 389.586109 59.496315 
L 389.995348 73.247208 
L 391.223067 122.164828 
L 391.836926 137.531378 
L 392.450785 147.759388 
L 393.473884 160.797872 
L 394.087743 166.600055 
L 394.701602 170.335425 
L 395.724701 174.852594 
L 396.747799 178.539273 
L 397.975518 181.984188 
L 398.793996 183.554811 
L 399.817095 184.860113 
L 400.430954 185.350416 
L 402.681771 186.419807 
L 403.70487 186.13065 
L 404.114109 186.081044 
L 405.546447 186.514661 
L 405.955687 186.883611 
L 406.774166 187.802874 
L 407.388025 188.035329 
L 410.457321 188.580431 
L 412.094279 189.234936 
L 412.708138 189.271944 
L 413.117377 189.33375 
L 413.526617 189.094799 
L 414.140476 188.582945 
L 414.549715 188.552724 
L 415.777434 188.717262 
L 416.186673 188.490284 
L 417.005152 187.812845 
L 417.414392 187.773854 
L 418.23287 187.876204 
L 418.84673 187.525402 
L 419.460589 187.25048 
L 420.688307 187.139833 
L 421.302166 186.705198 
L 421.711406 186.161402 
L 422.529885 184.8848 
L 422.939124 184.600407 
L 423.143744 184.633363 
L 423.552983 185.103712 
L 424.371462 186.51248 
L 424.780702 186.863881 
L 425.599181 187.148 
L 426.622279 188.02506 
L 427.031519 187.93945 
L 428.054617 187.327307 
L 429.077716 187.586768 
L 431.123913 187.154747 
L 431.942392 187.001661 
L 432.556251 187.081756 
L 433.170111 187.119085 
L 433.78397 186.987101 
L 434.193209 186.874475 
L 434.602449 187.091838 
L 435.216308 187.960598 
L 435.830167 188.743566 
L 436.239406 188.964562 
L 437.057885 189.085743 
L 437.671745 189.002725 
L 438.285604 188.897266 
L 439.104083 188.968593 
L 439.922562 188.706044 
L 440.74104 188.754809 
L 441.764139 188.405513 
L 443.605717 188.505233 
L 444.219576 188.831378 
L 444.833435 189.253943 
L 445.242674 189.217426 
L 447.698111 187.773904 
L 448.31197 187.270622 
L 448.92583 187.106236 
L 449.335069 187.25204 
L 450.153548 187.823773 
L 450.562787 187.780955 
L 451.790506 187.037693 
L 452.404365 186.094622 
L 454.245942 182.741666 
L 454.859802 180.689468 
L 455.473661 177.716537 
L 456.08752 173.262041 
L 456.701379 167.091444 
L 457.519858 156.342689 
L 458.338337 143.942481 
L 458.952196 130.195627 
L 459.566055 108.303643 
L 460.793774 51.563683 
L 460.998393 48.340268 
L 461.203013 48.740471 
L 461.407633 52.383311 
L 461.816872 65.927398 
L 462.839971 101.916366 
L 463.65845 120.588151 
L 464.886168 145.21011 
L 465.500027 153.592191 
L 465.909267 157.426562 
L 466.318506 159.66762 
L 466.523126 160.20262 
L 466.727746 160.388121 
L 466.932365 160.260865 
L 467.136985 159.844165 
L 467.546225 158.11329 
L 467.955464 155.009499 
L 468.569323 147.480741 
L 469.592422 129.856648 
L 470.615521 110.320156 
L 472.047859 78.200036 
L 472.252478 78.643679 
L 472.457098 81.708656 
L 472.866338 94.509195 
L 473.889436 132.733009 
L 474.503295 146.951193 
L 475.117155 156.176713 
L 475.935633 164.708577 
L 476.754112 171.259074 
L 477.572591 176.097677 
L 478.39107 179.53965 
L 479.004929 181.001094 
L 479.618789 181.759036 
L 480.641887 183.020505 
L 481.460366 183.942914 
L 482.074225 184.25997 
L 482.688084 184.540199 
L 484.120423 185.644354 
L 484.734282 185.680462 
L 486.16662 186.4166 
L 486.985099 186.583585 
L 488.622056 187.154733 
L 489.235916 187.00937 
L 489.645155 187.143211 
L 490.463634 187.498163 
L 492.100592 187.534701 
L 494.351409 189.242909 
L 495.783747 189.450296 
L 496.192986 189.24889 
L 496.806846 188.861347 
L 497.216085 188.835662 
L 497.829944 189.103565 
L 498.443803 189.354891 
L 499.262282 189.312137 
L 500.285381 189.113847 
L 500.89924 189.197592 
L 501.717719 189.02348 
L 502.126958 189.192369 
L 502.740818 189.777074 
L 503.354677 190.357912 
L 503.968536 190.582203 
L 504.377775 190.447734 
L 505.810114 189.459436 
L 506.628592 189.197212 
L 507.242452 189.359636 
L 507.651691 189.261914 
L 508.67479 188.743138 
L 510.311748 189.183688 
L 510.925607 189.249501 
L 512.562565 189.794872 
L 513.381043 189.855357 
L 514.404142 189.629545 
L 515.222621 189.834022 
L 516.0411 190.002928 
L 516.450339 189.828601 
L 517.268818 189.402177 
L 518.087297 189.423507 
L 518.496537 189.349667 
L 519.110396 189.568161 
L 519.724255 189.708611 
L 520.338114 189.535881 
L 521.156593 189.188457 
L 521.565833 189.341195 
L 522.588931 189.896575 
L 524.021269 190.306194 
L 524.430509 190.415682 
L 526.067467 190.286433 
L 526.681326 189.825653 
L 527.090565 189.631767 
L 527.499805 189.683165 
L 528.318283 189.915341 
L 529.136762 189.562613 
L 529.750622 189.343721 
L 530.159861 189.407666 
L 531.18296 189.873708 
L 531.592199 189.683279 
L 532.001439 189.465608 
L 532.410678 189.450747 
L 533.229157 189.693688 
L 534.456875 190.457206 
L 534.866115 190.571021 
L 535.275354 190.410368 
L 536.093833 189.83378 
L 536.912312 189.665053 
L 537.730791 189.773127 
L 538.34465 189.502259 
L 538.958509 189.252937 
L 539.776988 189.113129 
L 540.595467 188.458191 
L 541.004707 188.467116 
L 543.050904 188.893939 
L 544.278622 188.995993 
L 545.71096 189.500068 
L 546.324819 189.345159 
L 546.734059 189.269097 
L 547.552538 189.314555 
L 548.780256 189.176809 
L 549.803355 189.59206 
L 550.826453 189.634127 
L 551.440313 189.426065 
L 551.849552 189.273641 
L 552.872651 189.170483 
L 553.895749 188.910858 
L 554.714228 189.050734 
L 556.146566 189.330403 
L 556.555806 189.320504 
L 557.578904 189.664613 
L 560.034341 189.581238 
L 561.26206 189.956166 
L 563.308257 189.851697 
L 563.717496 190.096406 
L 564.331355 190.61956 
L 564.740595 190.699757 
L 565.149834 190.447119 
L 566.582172 189.13166 
L 567.196032 188.842596 
L 567.605271 188.843483 
L 568.832989 189.217031 
L 570.265327 188.803594 
L 570.879187 188.787734 
L 571.288426 189.008567 
L 571.902285 189.429652 
L 572.925384 189.63685 
L 574.153102 189.632521 
L 574.766961 189.881054 
L 575.99468 189.595377 
L 577.017778 189.260103 
L 578.040877 189.485396 
L 578.654736 189.729513 
L 579.268595 189.873118 
L 579.882455 189.84821 
L 580.905553 189.368311 
L 581.519412 189.698869 
L 581.928652 189.838778 
L 582.542511 189.685089 
L 583.15637 189.367503 
L 583.770229 188.93846 
L 584.179469 188.901945 
L 586.430286 189.672996 
L 586.839525 189.91743 
L 587.248765 189.930967 
L 588.067244 189.659993 
L 588.681103 189.847342 
L 589.090342 190.025393 
L 589.499582 189.906072 
L 590.52268 189.243165 
L 591.545779 189.190557 
L 591.955019 189.367902 
L 592.568878 189.673328 
L 593.591976 189.638947 
L 594.001216 189.696699 
L 595.024314 189.667193 
L 597.275131 190.29514 
L 597.888991 190.354621 
L 599.116709 190.156898 
L 599.730568 190.09251 
L 600.958287 189.71128 
L 601.776765 189.488801 
L 602.186005 189.390731 
L 603.004484 189.46428 
L 604.232202 189.151305 
L 605.050681 189.363033 
L 605.86916 189.22145 
L 606.278399 188.969203 
L 606.892259 188.478968 
L 607.301498 188.541166 
L 607.915357 189.005685 
L 608.938456 189.861462 
L 609.552315 190.111296 
L 610.166174 190.020379 
L 611.393893 189.644933 
L 612.416991 189.574771 
L 613.03085 189.900288 
L 614.053949 190.748759 
L 614.463188 190.757722 
L 615.281667 190.292129 
L 616.509386 189.34635 
L 617.123245 189.32044 
L 618.555583 189.530281 
L 619.374062 189.228282 
L 620.192541 188.895408 
L 620.60178 189.058764 
L 621.420259 189.544494 
L 621.829499 189.551344 
L 622.647978 189.368476 
L 623.875696 189.505707 
L 624.489555 189.510658 
L 626.535752 190.013288 
L 627.558851 189.840754 
L 628.37733 189.944288 
L 628.991189 190.157789 
L 630.014288 190.049525 
L 630.423527 189.851398 
L 631.446626 189.16388 
L 632.060485 189.37071 
L 633.288203 189.944681 
L 633.697443 189.78311 
L 634.311302 189.523698 
L 635.129781 189.496127 
L 635.74364 189.419612 
L 636.15288 189.669968 
L 636.766739 190.294196 
L 636.971358 190.353088 
L 637.380598 190.167766 
L 637.789837 189.961946 
L 638.812936 189.894394 
L 641.063753 189.687561 
L 642.700711 189.452322 
L 643.31457 189.248004 
L 643.928429 189.353948 
L 644.951528 189.706212 
L 645.770007 189.513382 
L 646.588486 189.415436 
L 646.997725 189.571452 
L 647.611584 189.953185 
L 648.020824 189.983334 
L 649.248542 189.735127 
L 649.657781 189.853554 
L 650.067021 189.742574 
L 650.8855 189.277025 
L 651.703979 189.274926 
L 652.522458 189.405397 
L 653.545556 189.783647 
L 654.773275 189.956984 
L 655.182514 190.038691 
L 655.796373 190.257712 
L 656.205613 190.011515 
L 656.819472 189.357154 
L 657.637951 188.923811 
L 658.04719 188.845575 
L 658.45643 188.969204 
L 658.865669 189.377385 
L 659.479528 190.053776 
L 659.888768 190.045439 
L 660.298007 190.006445 
L 661.116486 190.26333 
L 661.525726 190.089664 
L 662.139585 189.717914 
L 662.753444 189.774044 
L 663.571923 189.845978 
L 663.981162 189.713412 
L 664.595022 189.428708 
L 666.641219 189.23918 
L 667.459698 189.513952 
L 668.073557 189.335102 
L 668.892036 189.063589 
L 669.710515 189.084672 
L 671.756712 189.585012 
L 672.370571 189.840404 
L 675.030628 189.995743 
L 675.849107 189.7872 
L 677.076825 189.603265 
L 677.690684 189.450181 
L 678.509163 189.286242 
L 679.123022 189.218056 
L 680.146121 189.201377 
L 681.578459 188.262302 
L 681.987698 188.204605 
L 682.396938 188.351901 
L 682.806177 188.821484 
L 683.420036 189.690793 
L 684.033896 190.098725 
L 685.056994 190.494525 
L 685.466234 190.217701 
L 685.875473 189.856975 
L 686.489332 189.687955 
L 687.307811 189.596682 
L 687.717051 189.544722 
L 689.354008 188.650115 
L 689.967868 188.062062 
L 690.990966 186.620031 
L 691.809445 186.19293 
L 692.218685 185.558183 
L 693.446403 182.686273 
L 694.264882 180.143474 
L 694.878741 177.491397 
L 695.4926 173.856546 
L 696.106459 168.863119 
L 696.720319 161.979194 
L 697.538798 149.998443 
L 698.971136 127.783817 
L 699.380375 124.322634 
L 699.584995 123.418109 
L 699.789615 123.101372 
L 699.994234 123.388728 
L 700.198854 124.261894 
L 700.608093 127.534571 
L 701.221953 135.290263 
L 702.85891 158.440461 
L 703.677389 166.865406 
L 704.495868 172.458104 
L 705.314347 176.392441 
L 705.928206 178.285884 
L 707.155925 181.237475 
L 707.974404 182.628012 
L 708.588263 183.24245 
L 709.406742 183.888812 
L 711.248319 185.667014 
L 711.657559 185.785641 
L 713.089897 185.612121 
L 713.499136 185.986767 
L 714.317615 187.158869 
L 714.726855 187.329715 
L 716.363812 187.214082 
L 716.977672 187.222315 
L 718.20539 187.6467 
L 718.614629 187.77704 
L 719.433108 188.525922 
L 720.251587 188.747217 
L 721.070066 189.2077 
L 722.502404 189.243677 
L 723.320883 188.998905 
L 724.957841 188.349358 
L 725.77632 188.472384 
L 726.390179 188.718087 
L 727.208658 188.886629 
L 728.436376 189.458402 
L 728.845616 189.393704 
L 729.664095 189.08449 
L 731.096433 189.075634 
L 732.528771 189.528649 
L 733.34725 189.955353 
L 733.961109 189.724896 
L 734.779588 189.432389 
L 735.188827 189.233534 
L 735.802686 188.591353 
L 737.030405 187.188829 
L 737.439644 187.083733 
L 739.895081 187.980563 
L 740.50894 188.3397 
L 741.122799 188.379379 
L 741.532039 188.446881 
L 742.350518 188.963165 
L 742.964377 189.48606 
L 743.373616 189.562698 
L 745.215194 189.41401 
L 745.624433 189.388785 
L 746.442912 189.080558 
L 747.466011 189.160829 
L 748.693729 189.124495 
L 749.307588 189.196293 
L 749.921448 188.949334 
L 750.330687 188.917289 
L 751.149166 189.288379 
L 751.967645 189.113606 
L 752.786124 188.757609 
L 753.604603 188.71813 
L 754.627701 188.106735 
L 756.469279 188.960142 
L 757.696997 189.149068 
L 758.106237 189.12554 
L 759.129335 189.483592 
L 761.175533 189.511375 
L 762.81249 189.141612 
L 763.42635 189.170691 
L 763.835589 189.175739 
L 764.244828 189.367202 
L 765.881786 190.433952 
L 766.904885 190.298601 
L 767.518744 190.163822 
L 767.927984 190.341624 
L 768.337223 190.543822 
L 768.951082 190.483137 
L 769.564941 190.242893 
L 771.201899 189.306053 
L 772.634237 189.237581 
L 773.043477 189.373923 
L 774.680435 190.439524 
L 775.089674 190.483393 
L 775.703533 190.178028 
L 776.931252 189.491613 
L 777.545111 189.579726 
L 778.15897 189.9788 
L 778.977449 190.688618 
L 779.386688 190.610514 
L 780.205167 190.324039 
L 781.023646 190.355413 
L 781.637505 189.982753 
L 782.251364 189.697185 
L 783.274463 189.483311 
L 784.502181 189.877702 
L 785.116041 189.775337 
L 786.139139 189.377651 
L 786.752998 189.052148 
L 787.162238 189.203219 
L 787.980717 189.552966 
L 788.799196 189.871943 
L 789.413055 189.805772 
L 791.050013 189.459165 
L 791.459252 189.48506 
L 792.89159 189.104582 
L 793.710069 189.215697 
L 794.323928 189.191316 
L 797.393224 189.984183 
L 798.211703 189.970482 
L 798.825562 190.00354 
L 799.234802 189.823549 
L 800.2579 189.164008 
L 800.66714 189.262271 
L 802.099478 189.958902 
L 802.917957 190.053937 
L 803.941055 189.700469 
L 804.759534 189.679908 
L 806.191872 189.022079 
L 806.805732 188.99503 
L 808.647309 189.188391 
L 810.284267 188.620197 
L 811.511985 188.664286 
L 812.535084 189.125849 
L 813.762802 188.948321 
L 814.785901 189.347267 
L 815.60438 189.341436 
L 816.013619 189.222853 
L 816.832098 188.82866 
L 819.287535 188.727266 
L 820.719873 189.461056 
L 821.742972 189.429742 
L 822.152211 189.451246 
L 823.17531 189.11558 
L 824.403028 189.302262 
L 825.426127 188.969999 
L 826.653845 189.733708 
L 828.086183 189.623219 
L 828.700042 189.353954 
L 829.927761 189.160791 
L 830.337 189.013282 
L 830.74624 189.072731 
L 831.564719 189.533069 
L 831.973958 189.654289 
L 832.997057 189.499862 
L 834.020155 189.72178 
L 834.838634 189.708782 
L 835.247874 189.496042 
L 836.270972 188.835478 
L 836.884831 188.683606 
L 837.294071 188.773283 
L 838.11255 189.233178 
L 840.363367 189.499459 
L 841.386465 189.139611 
L 842.000325 188.848636 
L 842.614184 189.005329 
L 843.228043 189.058084 
L 843.841902 188.945729 
L 844.660381 188.787324 
L 845.888099 188.681793 
L 846.911198 188.491596 
L 847.934297 188.941187 
L 848.957395 189.688534 
L 849.366635 189.699106 
L 851.617452 189.214473 
L 852.231311 189.16932 
L 853.459029 188.651841 
L 853.868269 188.86476 
L 854.482128 189.348772 
L 855.095987 189.484546 
L 855.914466 189.29573 
L 856.528325 189.024705 
L 857.346804 188.612678 
L 857.960663 188.609667 
L 858.983762 188.953937 
L 859.597621 189.167626 
L 860.006861 189.0605 
L 860.62072 188.871533 
L 861.643818 188.769202 
L 862.257678 188.527596 
L 864.099255 188.665441 
L 865.326974 188.698152 
L 865.940833 188.279237 
L 866.350072 188.246334 
L 867.577791 188.484442 
L 867.98703 188.710728 
L 868.600889 189.119269 
L 869.010129 189.110442 
L 869.623988 188.972748 
L 870.647086 189.191386 
L 871.465565 188.621314 
L 872.284044 188.060523 
L 874.534861 187.493076 
L 875.35334 187.584445 
L 875.967199 187.59526 
L 877.194918 187.325412 
L 878.422636 187.773564 
L 879.036495 187.349408 
L 879.650354 187.004027 
L 880.468833 186.790138 
L 881.491932 186.296574 
L 882.92427 186.253725 
L 884.561228 186.194466 
L 885.788946 185.873472 
L 887.221284 185.295382 
L 887.835143 185.088679 
L 889.881341 184.36117 
L 890.4952 184.303133 
L 891.109059 184.3773 
L 893.359876 183.456296 
L 893.769116 183.176394 
L 894.587594 182.281071 
L 894.996834 182.119885 
L 895.610693 182.00534 
L 897.86151 180.625408 
L 899.703088 178.232514 
L 900.112327 177.702101 
L 900.521567 177.489647 
L 901.135426 177.583738 
L 902.158524 178.020647 
L 903.181623 178.320562 
L 903.590862 178.167618 
L 904.204722 177.798357 
L 905.023201 177.58187 
L 906.046299 176.62817 
L 906.660158 176.486887 
L 907.478637 176.162446 
L 908.297116 176.158683 
L 909.115595 176.160772 
L 910.547933 176.362199 
L 911.980271 175.957807 
L 912.79875 175.759356 
L 914.026468 175.913746 
L 915.254187 177.056259 
L 915.663426 176.902531 
L 916.686525 175.758763 
L 916.891145 175.840902 
L 917.914243 176.819787 
L 918.323483 176.667303 
L 918.732722 176.037698 
L 919.141962 174.695134 
L 919.551201 172.467948 
L 919.960441 168.8823 
L 920.778919 160.54145 
L 920.983539 160.657789 
L 921.392779 164.324979 
L 922.006638 170.846354 
L 922.415877 173.498461 
L 922.825117 174.913062 
L 923.643596 176.473251 
L 924.257455 177.403126 
L 924.666694 177.572677 
L 925.689793 177.481894 
L 927.326751 178.179274 
L 927.73599 178.133725 
L 928.963709 177.628391 
L 929.372948 177.921857 
L 929.782187 178.315316 
L 930.191427 178.358321 
L 931.214526 177.844807 
L 932.237624 177.671338 
L 932.646864 177.951514 
L 933.465343 178.764983 
L 933.874582 178.755814 
L 936.534638 178.192999 
L 936.943878 178.675903 
L 938.376216 180.744836 
L 938.990075 181.153099 
L 940.013174 181.337662 
L 940.831653 181.30327 
L 941.445512 181.530758 
L 941.854751 181.316588 
L 942.263991 180.993906 
L 942.67323 180.927337 
L 943.08247 181.161926 
L 943.900949 181.772895 
L 944.924047 182.100044 
L 945.333287 182.119151 
L 945.947146 182.05905 
L 947.584104 182.635356 
L 948.402583 183.468805 
L 949.016442 184.094275 
L 949.425681 184.179282 
L 950.24416 184.183853 
L 953.313456 185.626185 
L 953.927315 185.632759 
L 954.950414 185.385436 
L 955.564273 185.195622 
L 956.382752 185.286206 
L 956.996611 185.819716 
L 957.61047 186.279087 
L 958.633569 186.647298 
L 959.247428 186.544327 
L 959.861287 186.478559 
L 960.475146 186.697528 
L 961.702865 187.328412 
L 962.112104 187.355819 
L 962.725963 187.044498 
L 963.339823 186.835952 
L 964.362921 186.722515 
L 964.97678 187.217934 
L 966.409119 188.35522 
L 966.818358 188.206719 
L 967.636837 187.749692 
L 968.250696 187.925101 
L 970.296893 188.768659 
L 971.319992 188.930126 
L 972.138471 188.729744 
L 972.75233 188.880785 
L 973.16157 188.93634 
L 974.593908 188.486491 
L 975.003147 188.70214 
L 975.821626 189.439564 
L 976.230865 189.433148 
L 977.049344 189.21053 
L 978.890922 189.175269 
L 980.732499 189.423673 
L 982.164838 189.812116 
L 982.983316 190.017373 
L 983.392556 190.107846 
L 983.801795 189.996159 
L 985.029514 189.170829 
L 985.643373 188.763259 
L 986.052612 188.741697 
L 986.666472 188.98965 
L 987.48495 189.326849 
L 987.89419 189.327146 
L 988.917289 188.966822 
L 989.531148 189.36613 
L 989.940387 189.513862 
L 990.758866 189.49992 
L 991.577345 189.779175 
L 991.986584 189.676691 
L 993.009683 189.150783 
L 993.418922 189.330055 
L 994.032782 189.83279 
L 994.442021 189.936057 
L 995.874359 189.74271 
L 996.692838 189.507113 
L 997.306697 189.55249 
L 997.920556 189.732886 
L 998.329796 189.641644 
L 998.943655 189.424406 
L 999.762134 189.208549 
L 1000.785233 188.480847 
L 1001.194472 188.589129 
L 1002.62681 189.262322 
L 1003.445289 189.269534 
L 1004.263768 189.179699 
L 1004.877627 188.975187 
L 1005.286867 189.148517 
L 1006.309965 189.939524 
L 1007.537684 190.193596 
L 1008.151543 190.105348 
L 1008.560782 190.016046 
L 1008.970022 190.173209 
L 1009.379261 190.377123 
L 1009.788501 190.2696 
L 1010.811599 189.50697 
L 1011.220839 189.535253 
L 1013.267036 190.190127 
L 1014.290135 190.05122 
L 1014.903994 189.543939 
L 1015.313233 189.283555 
L 1016.336332 188.98403 
L 1016.745571 188.853418 
L 1017.359431 188.956761 
L 1018.791769 189.490629 
L 1019.814867 190.113247 
L 1020.224107 190.035073 
L 1021.042586 189.652915 
L 1021.656445 189.579556 
L 1022.270304 189.154311 
L 1022.884163 188.645912 
L 1023.293403 188.569975 
L 1024.93036 188.833269 
L 1025.3396 189.117689 
L 1026.362699 190.220304 
L 1027.385797 190.666081 
L 1027.795037 190.59313 
L 1028.613515 190.115319 
L 1029.636614 189.89075 
L 1030.250473 189.551384 
L 1030.864332 189.246867 
L 1032.296671 188.734217 
L 1032.70591 188.626285 
L 1033.319769 188.782588 
L 1034.547488 189.254865 
L 1035.979826 189.257978 
L 1036.389065 189.20519 
L 1037.616783 189.274343 
L 1038.639882 189.215738 
L 1039.253741 189.445979 
L 1040.27684 190.047138 
L 1040.686079 190.331955 
L 1041.095319 190.3278 
L 1042.118417 189.907605 
L 1042.936896 189.477083 
L 1044.164615 189.465553 
L 1045.187713 188.928436 
L 1047.233911 189.32607 
L 1048.461629 189.667418 
L 1049.893967 189.864336 
L 1050.303207 189.940587 
L 1051.121685 189.84189 
L 1053.167883 189.78024 
L 1054.804841 189.527526 
L 1055.4187 189.221792 
L 1055.827939 189.13922 
L 1056.237179 189.517397 
L 1056.646418 189.941267 
L 1057.260277 190.110723 
L 1057.669517 190.102304 
L 1058.078756 189.899436 
L 1059.101855 189.264569 
L 1059.511094 189.240717 
L 1060.534193 189.475109 
L 1060.943432 189.406448 
L 1061.352672 189.620909 
L 1062.171151 190.446991 
L 1062.58039 190.404566 
L 1063.194249 190.130705 
L 1063.808109 190.177911 
L 1064.626587 190.300785 
L 1065.240447 190.037046 
L 1066.058926 189.626141 
L 1067.286644 189.487864 
L 1068.309742 188.918011 
L 1068.923602 189.065805 
L 1070.560559 189.571187 
L 1071.174419 189.49189 
L 1071.992898 189.651425 
L 1072.606757 189.790429 
L 1073.015996 189.643073 
L 1074.039095 188.865629 
L 1074.652954 189.092676 
L 1075.880672 189.524731 
L 1076.494532 189.887285 
L 1077.108391 190.084192 
L 1079.768447 190.174656 
L 1080.586926 189.813978 
L 1081.200785 189.483174 
L 1081.610025 189.516452 
L 1082.223884 189.723991 
L 1082.837743 189.622364 
L 1083.451602 189.602951 
L 1084.88394 189.853047 
L 1086.111659 190.1749 
L 1086.725518 190.495213 
L 1087.134757 190.362947 
L 1088.362476 189.587337 
L 1088.771715 189.548712 
L 1089.385574 189.611864 
L 1090.204053 189.302388 
L 1091.431772 188.971156 
L 1092.045631 189.011712 
L 1093.682589 189.403335 
L 1094.705687 189.409992 
L 1095.114927 189.493524 
L 1095.524166 189.372449 
L 1096.138025 189.085668 
L 1097.161124 189.043787 
L 1097.774983 188.836205 
L 1098.388842 188.940898 
L 1099.207321 189.207854 
L 1100.639659 189.48525 
L 1101.253519 189.316398 
L 1102.481237 189.525051 
L 1103.299716 189.926415 
L 1103.913575 189.863022 
L 1104.732054 189.547651 
L 1105.550533 189.726717 
L 1106.164392 189.367079 
L 1106.982871 189.000677 
L 1107.59673 188.957094 
L 1109.438308 189.176917 
L 1111.484505 189.665851 
L 1112.098364 189.99854 
L 1112.507603 190.021866 
L 1112.916843 189.989783 
L 1113.939942 190.151317 
L 1114.553801 190.169617 
L 1115.986139 190.487436 
L 1117.213857 190.237214 
L 1117.623097 189.811325 
L 1118.236956 189.087499 
L 1118.646195 189.045755 
L 1119.873914 189.634353 
L 1120.283153 189.481587 
L 1120.897012 189.090439 
L 1122.124731 188.884756 
L 1123.147829 187.941446 
L 1123.557069 187.983007 
L 1124.170928 188.481957 
L 1124.989407 189.209159 
L 1127.035604 190.159305 
L 1128.877182 190.06799 
L 1131.332618 189.756893 
L 1132.151097 189.864976 
L 1133.378816 189.571569 
L 1133.992675 189.719939 
L 1134.606534 189.798258 
L 1135.220393 189.986285 
L 1135.834252 189.852704 
L 1137.061971 189.460707 
L 1138.494309 189.052005 
L 1138.903548 189.22667 
L 1140.131267 190.062235 
L 1140.540506 190.083904 
L 1142.177464 189.550766 
L 1144.632901 189.489724 
L 1145.451379 189.126569 
L 1147.088337 189.291314 
L 1147.702196 189.672046 
L 1148.316056 189.646807 
L 1149.953013 189.654077 
L 1150.566873 190.101809 
L 1150.976112 190.431749 
L 1151.385352 190.396508 
L 1152.40845 189.933407 
L 1156.091605 189.521433 
L 1156.910084 189.894468 
L 1157.523943 189.697837 
L 1158.342422 189.393626 
L 1159.160901 189.276877 
L 1159.97938 189.514113 
L 1160.593239 189.805001 
L 1161.207098 190.040974 
L 1161.820958 189.953022 
L 1163.457915 189.602661 
L 1164.481014 189.922631 
L 1164.890254 189.984244 
L 1165.708732 189.887467 
L 1166.322592 189.873098 
L 1166.731831 189.835376 
L 1167.75493 190.158218 
L 1168.368789 189.789833 
L 1168.982648 189.510821 
L 1169.391888 189.601062 
L 1170.210366 190.046203 
L 1171.028845 189.787798 
L 1171.847324 189.440398 
L 1172.665803 189.461941 
L 1173.279662 189.177007 
L 1173.893522 188.805144 
L 1174.302761 188.826797 
L 1175.939719 189.522825 
L 1177.372057 189.695127 
L 1177.985916 189.477448 
L 1178.599775 189.178647 
L 1179.009015 189.394008 
L 1179.622874 189.7676 
L 1180.032113 189.811744 
L 1180.441353 189.628716 
L 1181.055212 189.221365 
L 1181.464451 189.24557 
L 1182.078311 189.849427 
L 1182.69217 190.350541 
L 1183.101409 190.298283 
L 1184.124508 189.442517 
L 1184.738367 189.378729 
L 1184.738367 189.378729 
" clip-path="url(#pebf4006e50)" style="fill: none; stroke: #000000; stroke-width: 2; stroke-linecap: square"/>
   </g>
   <g id="patch_3">
    <path d="M 3.00024 198.907885 
L 1184.99976 198.907885 
" style="fill: none; stroke: #000000; stroke-width: 2; stroke-linejoin: miter; stroke-linecap: square"/>
   </g>
  </g>
 </g>
 <defs>
  <clipPath id="pebf4006e50">
   <rect x="3.00024" y="3.00024" width="1181.99952" height="195.907645"/>
  </clipPath>
 </defs>
</svg>
