<?xml version="1.0" encoding="utf-8" standalone="no"?>
<!DOCTYPE svg PUBLIC "-//W3C//DTD SVG 1.1//EN"
  "http://www.w3.org/Graphics/SVG/1.1/DTD/svg11.dtd">
<svg xmlns:xlink="http://www.w3.org/1999/xlink" width="1188pt" height="252pt" viewBox="0 0 1188 252" xmlns="http://www.w3.org/2000/svg" version="1.1">
 <metadata>
  <rdf:RDF xmlns:dc="http://purl.org/dc/elements/1.1/" xmlns:cc="http://creativecommons.org/ns#" xmlns:rdf="http://www.w3.org/1999/02/22-rdf-syntax-ns#">
   <cc:Work>
    <dc:type rdf:resource="http://purl.org/dc/dcmitype/StillImage"/>
    <dc:date>2024-05-13T16:41:47.231639</dc:date>
    <dc:format>image/svg+xml</dc:format>
    <dc:creator>
     <cc:Agent>
      <dc:title>Matplotlib v3.8.0, https://matplotlib.org/</dc:title>
     </cc:Agent>
    </dc:creator>
   </cc:Work>
  </rdf:RDF>
 </metadata>
 <defs>
  <style type="text/css">*{stroke-linejoin: round; stroke-linecap: butt}</style>
 </defs>
 <g id="figure_1">
  <g id="patch_1">
   <path d="M 0 252 
L 1188 252 
L 1188 0 
L 0 0 
z
" style="fill: #ffffff"/>
  </g>
  <g id="axes_1">
   <g id="patch_2">
    <path d="M 3.00024 198.907885 
L 1184.99976 198.907885 
L 1184.99976 3.00024 
L 3.00024 3.00024 
z
" style="fill: #ffffff"/>
   </g>
   <g id="matplotlib.axis_1">
    <g id="xtick_1">
     <g id="line2d_1">
      <defs>
       <path id="m99566c9724" d="M 0 0 
L 0 8 
" style="stroke: #000000; stroke-width: 2"/>
      </defs>
      <g>
       <use xlink:href="#m99566c9724" x="1131.272509" y="198.907885" style="stroke: #000000; stroke-width: 2"/>
      </g>
     </g>
     <g id="text_1">
      <!-- 0 -->
      <g transform="translate(1126.267665 224.791947) scale(0.18 -0.18)">
       <defs>
        <path id="Arial-BoldMT-30" d="M 1756 4600 
Q 2422 4600 2797 4125 
Q 3244 3563 3244 2259 
Q 3244 959 2794 391 
Q 2422 -78 1756 -78 
Q 1088 -78 678 436 
Q 269 950 269 2269 
Q 269 3563 719 4131 
Q 1091 4600 1756 4600 
z
M 1756 3872 
Q 1597 3872 1472 3770 
Q 1347 3669 1278 3406 
Q 1188 3066 1188 2259 
Q 1188 1453 1269 1151 
Q 1350 850 1473 750 
Q 1597 650 1756 650 
Q 1916 650 2041 751 
Q 2166 853 2234 1116 
Q 2325 1453 2325 2259 
Q 2325 3066 2244 3367 
Q 2163 3669 2039 3770 
Q 1916 3872 1756 3872 
z
" transform="scale(0.015625)"/>
       </defs>
       <use xlink:href="#Arial-BoldMT-30"/>
      </g>
     </g>
    </g>
    <g id="xtick_2">
     <g id="line2d_2">
      <g>
       <use xlink:href="#m99566c9724" x="1023.818007" y="198.907885" style="stroke: #000000; stroke-width: 2"/>
      </g>
     </g>
     <g id="text_2">
      <!-- 1 -->
      <g transform="translate(1018.813164 224.791947) scale(0.18 -0.18)">
       <defs>
        <path id="Arial-BoldMT-31" d="M 2519 0 
L 1641 0 
L 1641 3309 
Q 1159 2859 506 2644 
L 506 3441 
Q 850 3553 1253 3867 
Q 1656 4181 1806 4600 
L 2519 4600 
L 2519 0 
z
" transform="scale(0.015625)"/>
       </defs>
       <use xlink:href="#Arial-BoldMT-31"/>
      </g>
     </g>
    </g>
    <g id="xtick_3">
     <g id="line2d_3">
      <g>
       <use xlink:href="#m99566c9724" x="916.363505" y="198.907885" style="stroke: #000000; stroke-width: 2"/>
      </g>
     </g>
     <g id="text_3">
      <!-- 2 -->
      <g transform="translate(911.358662 224.791947) scale(0.18 -0.18)">
       <defs>
        <path id="Arial-BoldMT-32" d="M 3238 816 
L 3238 0 
L 159 0 
Q 209 463 459 877 
Q 709 1291 1447 1975 
Q 2041 2528 2175 2725 
Q 2356 2997 2356 3263 
Q 2356 3556 2198 3714 
Q 2041 3872 1763 3872 
Q 1488 3872 1325 3706 
Q 1163 3541 1138 3156 
L 263 3244 
Q 341 3969 753 4284 
Q 1166 4600 1784 4600 
Q 2463 4600 2850 4234 
Q 3238 3869 3238 3325 
Q 3238 3016 3127 2736 
Q 3016 2456 2775 2150 
Q 2616 1947 2200 1565 
Q 1784 1184 1673 1059 
Q 1563 934 1494 816 
L 3238 816 
z
" transform="scale(0.015625)"/>
       </defs>
       <use xlink:href="#Arial-BoldMT-32"/>
      </g>
     </g>
    </g>
    <g id="xtick_4">
     <g id="line2d_4">
      <g>
       <use xlink:href="#m99566c9724" x="808.909004" y="198.907885" style="stroke: #000000; stroke-width: 2"/>
      </g>
     </g>
     <g id="text_4">
      <!-- 3 -->
      <g transform="translate(803.90416 224.791947) scale(0.18 -0.18)">
       <defs>
        <path id="Arial-BoldMT-33" d="M 241 1216 
L 1091 1319 
Q 1131 994 1309 822 
Q 1488 650 1741 650 
Q 2013 650 2198 856 
Q 2384 1063 2384 1413 
Q 2384 1744 2206 1937 
Q 2028 2131 1772 2131 
Q 1603 2131 1369 2066 
L 1466 2781 
Q 1822 2772 2009 2936 
Q 2197 3100 2197 3372 
Q 2197 3603 2059 3740 
Q 1922 3878 1694 3878 
Q 1469 3878 1309 3722 
Q 1150 3566 1116 3266 
L 306 3403 
Q 391 3819 561 4067 
Q 731 4316 1036 4458 
Q 1341 4600 1719 4600 
Q 2366 4600 2756 4188 
Q 3078 3850 3078 3425 
Q 3078 2822 2419 2463 
Q 2813 2378 3048 2084 
Q 3284 1791 3284 1375 
Q 3284 772 2843 347 
Q 2403 -78 1747 -78 
Q 1125 -78 715 280 
Q 306 638 241 1216 
z
" transform="scale(0.015625)"/>
       </defs>
       <use xlink:href="#Arial-BoldMT-33"/>
      </g>
     </g>
    </g>
    <g id="xtick_5">
     <g id="line2d_5">
      <g>
       <use xlink:href="#m99566c9724" x="701.454502" y="198.907885" style="stroke: #000000; stroke-width: 2"/>
      </g>
     </g>
     <g id="text_5">
      <!-- 4 -->
      <g transform="translate(696.449658 224.791947) scale(0.18 -0.18)">
       <defs>
        <path id="Arial-BoldMT-34" d="M 1994 0 
L 1994 922 
L 119 922 
L 119 1691 
L 2106 4600 
L 2844 4600 
L 2844 1694 
L 3413 1694 
L 3413 922 
L 2844 922 
L 2844 0 
L 1994 0 
z
M 1994 1694 
L 1994 3259 
L 941 1694 
L 1994 1694 
z
" transform="scale(0.015625)"/>
       </defs>
       <use xlink:href="#Arial-BoldMT-34"/>
      </g>
     </g>
    </g>
    <g id="xtick_6">
     <g id="line2d_6">
      <g>
       <use xlink:href="#m99566c9724" x="594" y="198.907885" style="stroke: #000000; stroke-width: 2"/>
      </g>
     </g>
     <g id="text_6">
      <!-- 5 -->
      <g transform="translate(588.995156 224.791947) scale(0.18 -0.18)">
       <defs>
        <path id="Arial-BoldMT-35" d="M 284 1178 
L 1159 1269 
Q 1197 972 1381 798 
Q 1566 625 1806 625 
Q 2081 625 2272 848 
Q 2463 1072 2463 1522 
Q 2463 1944 2273 2155 
Q 2084 2366 1781 2366 
Q 1403 2366 1103 2031 
L 391 2134 
L 841 4519 
L 3163 4519 
L 3163 3697 
L 1506 3697 
L 1369 2919 
Q 1663 3066 1969 3066 
Q 2553 3066 2959 2641 
Q 3366 2216 3366 1538 
Q 3366 972 3038 528 
Q 2591 -78 1797 -78 
Q 1163 -78 763 262 
Q 363 603 284 1178 
z
" transform="scale(0.015625)"/>
       </defs>
       <use xlink:href="#Arial-BoldMT-35"/>
      </g>
     </g>
    </g>
    <g id="xtick_7">
     <g id="line2d_7">
      <g>
       <use xlink:href="#m99566c9724" x="486.545498" y="198.907885" style="stroke: #000000; stroke-width: 2"/>
      </g>
     </g>
     <g id="text_7">
      <!-- 6 -->
      <g transform="translate(481.540654 224.791947) scale(0.18 -0.18)">
       <defs>
        <path id="Arial-BoldMT-36" d="M 3247 3459 
L 2397 3366 
Q 2366 3628 2234 3753 
Q 2103 3878 1894 3878 
Q 1616 3878 1423 3628 
Q 1231 3378 1181 2588 
Q 1509 2975 1997 2975 
Q 2547 2975 2939 2556 
Q 3331 2138 3331 1475 
Q 3331 772 2918 347 
Q 2506 -78 1859 -78 
Q 1166 -78 719 461 
Q 272 1000 272 2228 
Q 272 3488 737 4044 
Q 1203 4600 1947 4600 
Q 2469 4600 2811 4308 
Q 3153 4016 3247 3459 
z
M 1256 1544 
Q 1256 1116 1453 883 
Q 1650 650 1903 650 
Q 2147 650 2309 840 
Q 2472 1031 2472 1466 
Q 2472 1913 2297 2120 
Q 2122 2328 1859 2328 
Q 1606 2328 1431 2129 
Q 1256 1931 1256 1544 
z
" transform="scale(0.015625)"/>
       </defs>
       <use xlink:href="#Arial-BoldMT-36"/>
      </g>
     </g>
    </g>
    <g id="xtick_8">
     <g id="line2d_8">
      <g>
       <use xlink:href="#m99566c9724" x="379.090996" y="198.907885" style="stroke: #000000; stroke-width: 2"/>
      </g>
     </g>
     <g id="text_8">
      <!-- 7 -->
      <g transform="translate(374.086153 224.791947) scale(0.18 -0.18)">
       <defs>
        <path id="Arial-BoldMT-37" d="M 272 3703 
L 272 4519 
L 3275 4519 
L 3275 3881 
Q 2903 3516 2518 2831 
Q 2134 2147 1932 1376 
Q 1731 606 1734 0 
L 888 0 
Q 909 950 1279 1937 
Q 1650 2925 2269 3703 
L 272 3703 
z
" transform="scale(0.015625)"/>
       </defs>
       <use xlink:href="#Arial-BoldMT-37"/>
      </g>
     </g>
    </g>
    <g id="xtick_9">
     <g id="line2d_9">
      <g>
       <use xlink:href="#m99566c9724" x="271.636495" y="198.907885" style="stroke: #000000; stroke-width: 2"/>
      </g>
     </g>
     <g id="text_9">
      <!-- 8 -->
      <g transform="translate(266.631651 224.791947) scale(0.18 -0.18)">
       <defs>
        <path id="Arial-BoldMT-38" d="M 1025 2472 
Q 684 2616 529 2867 
Q 375 3119 375 3419 
Q 375 3931 733 4265 
Q 1091 4600 1750 4600 
Q 2403 4600 2764 4265 
Q 3125 3931 3125 3419 
Q 3125 3100 2959 2851 
Q 2794 2603 2494 2472 
Q 2875 2319 3073 2025 
Q 3272 1731 3272 1347 
Q 3272 713 2867 316 
Q 2463 -81 1791 -81 
Q 1166 -81 750 247 
Q 259 634 259 1309 
Q 259 1681 443 1992 
Q 628 2303 1025 2472 
z
M 1206 3356 
Q 1206 3094 1354 2947 
Q 1503 2800 1750 2800 
Q 2000 2800 2150 2948 
Q 2300 3097 2300 3359 
Q 2300 3606 2151 3754 
Q 2003 3903 1759 3903 
Q 1506 3903 1356 3753 
Q 1206 3603 1206 3356 
z
M 1125 1394 
Q 1125 1031 1311 828 
Q 1497 625 1775 625 
Q 2047 625 2225 820 
Q 2403 1016 2403 1384 
Q 2403 1706 2222 1901 
Q 2041 2097 1763 2097 
Q 1441 2097 1283 1875 
Q 1125 1653 1125 1394 
z
" transform="scale(0.015625)"/>
       </defs>
       <use xlink:href="#Arial-BoldMT-38"/>
      </g>
     </g>
    </g>
    <g id="xtick_10">
     <g id="line2d_10">
      <g>
       <use xlink:href="#m99566c9724" x="164.181993" y="198.907885" style="stroke: #000000; stroke-width: 2"/>
      </g>
     </g>
     <g id="text_10">
      <!-- 9 -->
      <g transform="translate(159.177149 224.791947) scale(0.18 -0.18)">
       <defs>
        <path id="Arial-BoldMT-39" d="M 291 1059 
L 1141 1153 
Q 1172 894 1303 769 
Q 1434 644 1650 644 
Q 1922 644 2112 894 
Q 2303 1144 2356 1931 
Q 2025 1547 1528 1547 
Q 988 1547 595 1964 
Q 203 2381 203 3050 
Q 203 3747 617 4173 
Q 1031 4600 1672 4600 
Q 2369 4600 2816 4061 
Q 3263 3522 3263 2288 
Q 3263 1031 2797 475 
Q 2331 -81 1584 -81 
Q 1047 -81 715 205 
Q 384 491 291 1059 
z
M 2278 2978 
Q 2278 3403 2083 3637 
Q 1888 3872 1631 3872 
Q 1388 3872 1227 3680 
Q 1066 3488 1066 3050 
Q 1066 2606 1241 2398 
Q 1416 2191 1678 2191 
Q 1931 2191 2104 2391 
Q 2278 2591 2278 2978 
z
" transform="scale(0.015625)"/>
       </defs>
       <use xlink:href="#Arial-BoldMT-39"/>
      </g>
     </g>
    </g>
    <g id="xtick_11">
     <g id="line2d_11">
      <g>
       <use xlink:href="#m99566c9724" x="56.727491" y="198.907885" style="stroke: #000000; stroke-width: 2"/>
      </g>
     </g>
     <g id="text_11">
      <!-- 10 -->
      <g transform="translate(46.717803 224.791947) scale(0.18 -0.18)">
       <use xlink:href="#Arial-BoldMT-31"/>
       <use xlink:href="#Arial-BoldMT-30" x="55.615234"/>
      </g>
     </g>
    </g>
    <g id="text_12">
     <!-- Chemical Shift / ppm -->
     <g transform="translate(504.992813 245.447573) scale(0.18 -0.18)">
      <defs>
       <path id="Arial-BoldMT-43" d="M 3397 1684 
L 4294 1400 
Q 4088 650 3608 286 
Q 3128 -78 2391 -78 
Q 1478 -78 890 545 
Q 303 1169 303 2250 
Q 303 3394 893 4026 
Q 1484 4659 2447 4659 
Q 3288 4659 3813 4163 
Q 4125 3869 4281 3319 
L 3366 3100 
Q 3284 3456 3026 3662 
Q 2769 3869 2400 3869 
Q 1891 3869 1573 3503 
Q 1256 3138 1256 2319 
Q 1256 1450 1568 1081 
Q 1881 713 2381 713 
Q 2750 713 3015 947 
Q 3281 1181 3397 1684 
z
" transform="scale(0.015625)"/>
       <path id="Arial-BoldMT-68" d="M 1334 4581 
L 1334 2897 
Q 1759 3394 2350 3394 
Q 2653 3394 2897 3281 
Q 3141 3169 3264 2994 
Q 3388 2819 3433 2606 
Q 3478 2394 3478 1947 
L 3478 0 
L 2600 0 
L 2600 1753 
Q 2600 2275 2550 2415 
Q 2500 2556 2373 2639 
Q 2247 2722 2056 2722 
Q 1838 2722 1666 2615 
Q 1494 2509 1414 2295 
Q 1334 2081 1334 1663 
L 1334 0 
L 456 0 
L 456 4581 
L 1334 4581 
z
" transform="scale(0.015625)"/>
       <path id="Arial-BoldMT-65" d="M 2381 1056 
L 3256 909 
Q 3088 428 2723 176 
Q 2359 -75 1813 -75 
Q 947 -75 531 491 
Q 203 944 203 1634 
Q 203 2459 634 2926 
Q 1066 3394 1725 3394 
Q 2466 3394 2894 2905 
Q 3322 2416 3303 1406 
L 1103 1406 
Q 1113 1016 1316 798 
Q 1519 581 1822 581 
Q 2028 581 2168 693 
Q 2309 806 2381 1056 
z
M 2431 1944 
Q 2422 2325 2234 2523 
Q 2047 2722 1778 2722 
Q 1491 2722 1303 2513 
Q 1116 2303 1119 1944 
L 2431 1944 
z
" transform="scale(0.015625)"/>
       <path id="Arial-BoldMT-6d" d="M 394 3319 
L 1203 3319 
L 1203 2866 
Q 1638 3394 2238 3394 
Q 2556 3394 2790 3262 
Q 3025 3131 3175 2866 
Q 3394 3131 3647 3262 
Q 3900 3394 4188 3394 
Q 4553 3394 4806 3245 
Q 5059 3097 5184 2809 
Q 5275 2597 5275 2122 
L 5275 0 
L 4397 0 
L 4397 1897 
Q 4397 2391 4306 2534 
Q 4184 2722 3931 2722 
Q 3747 2722 3584 2609 
Q 3422 2497 3350 2280 
Q 3278 2063 3278 1594 
L 3278 0 
L 2400 0 
L 2400 1819 
Q 2400 2303 2353 2443 
Q 2306 2584 2207 2653 
Q 2109 2722 1941 2722 
Q 1738 2722 1575 2612 
Q 1413 2503 1342 2297 
Q 1272 2091 1272 1613 
L 1272 0 
L 394 0 
L 394 3319 
z
" transform="scale(0.015625)"/>
       <path id="Arial-BoldMT-69" d="M 459 3769 
L 459 4581 
L 1338 4581 
L 1338 3769 
L 459 3769 
z
M 459 0 
L 459 3319 
L 1338 3319 
L 1338 0 
L 459 0 
z
" transform="scale(0.015625)"/>
       <path id="Arial-BoldMT-63" d="M 3353 2338 
L 2488 2181 
Q 2444 2441 2289 2572 
Q 2134 2703 1888 2703 
Q 1559 2703 1364 2476 
Q 1169 2250 1169 1719 
Q 1169 1128 1367 884 
Q 1566 641 1900 641 
Q 2150 641 2309 783 
Q 2469 925 2534 1272 
L 3397 1125 
Q 3263 531 2881 228 
Q 2500 -75 1859 -75 
Q 1131 -75 698 384 
Q 266 844 266 1656 
Q 266 2478 700 2936 
Q 1134 3394 1875 3394 
Q 2481 3394 2839 3133 
Q 3197 2872 3353 2338 
z
" transform="scale(0.015625)"/>
       <path id="Arial-BoldMT-61" d="M 1116 2306 
L 319 2450 
Q 453 2931 781 3162 
Q 1109 3394 1756 3394 
Q 2344 3394 2631 3255 
Q 2919 3116 3036 2902 
Q 3153 2688 3153 2116 
L 3144 1091 
Q 3144 653 3186 445 
Q 3228 238 3344 0 
L 2475 0 
Q 2441 88 2391 259 
Q 2369 338 2359 363 
Q 2134 144 1878 34 
Q 1622 -75 1331 -75 
Q 819 -75 523 203 
Q 228 481 228 906 
Q 228 1188 362 1408 
Q 497 1628 739 1745 
Q 981 1863 1438 1950 
Q 2053 2066 2291 2166 
L 2291 2253 
Q 2291 2506 2166 2614 
Q 2041 2722 1694 2722 
Q 1459 2722 1328 2630 
Q 1197 2538 1116 2306 
z
M 2291 1594 
Q 2122 1538 1756 1459 
Q 1391 1381 1278 1306 
Q 1106 1184 1106 997 
Q 1106 813 1243 678 
Q 1381 544 1594 544 
Q 1831 544 2047 700 
Q 2206 819 2256 991 
Q 2291 1103 2291 1419 
L 2291 1594 
z
" transform="scale(0.015625)"/>
       <path id="Arial-BoldMT-6c" d="M 459 0 
L 459 4581 
L 1338 4581 
L 1338 0 
L 459 0 
z
" transform="scale(0.015625)"/>
       <path id="Arial-BoldMT-20" transform="scale(0.015625)"/>
       <path id="Arial-BoldMT-53" d="M 231 1491 
L 1131 1578 
Q 1213 1125 1461 912 
Q 1709 700 2131 700 
Q 2578 700 2804 889 
Q 3031 1078 3031 1331 
Q 3031 1494 2936 1608 
Q 2841 1722 2603 1806 
Q 2441 1863 1863 2006 
Q 1119 2191 819 2459 
Q 397 2838 397 3381 
Q 397 3731 595 4036 
Q 794 4341 1167 4500 
Q 1541 4659 2069 4659 
Q 2931 4659 3367 4281 
Q 3803 3903 3825 3272 
L 2900 3231 
Q 2841 3584 2645 3739 
Q 2450 3894 2059 3894 
Q 1656 3894 1428 3728 
Q 1281 3622 1281 3444 
Q 1281 3281 1419 3166 
Q 1594 3019 2269 2859 
Q 2944 2700 3267 2529 
Q 3591 2359 3773 2064 
Q 3956 1769 3956 1334 
Q 3956 941 3737 597 
Q 3519 253 3119 86 
Q 2719 -81 2122 -81 
Q 1253 -81 787 320 
Q 322 722 231 1491 
z
" transform="scale(0.015625)"/>
       <path id="Arial-BoldMT-66" d="M 75 3319 
L 563 3319 
L 563 3569 
Q 563 3988 652 4194 
Q 741 4400 980 4529 
Q 1219 4659 1584 4659 
Q 1959 4659 2319 4547 
L 2200 3934 
Q 1991 3984 1797 3984 
Q 1606 3984 1523 3895 
Q 1441 3806 1441 3553 
L 1441 3319 
L 2097 3319 
L 2097 2628 
L 1441 2628 
L 1441 0 
L 563 0 
L 563 2628 
L 75 2628 
L 75 3319 
z
" transform="scale(0.015625)"/>
       <path id="Arial-BoldMT-74" d="M 1981 3319 
L 1981 2619 
L 1381 2619 
L 1381 1281 
Q 1381 875 1398 808 
Q 1416 741 1477 697 
Q 1538 653 1625 653 
Q 1747 653 1978 738 
L 2053 56 
Q 1747 -75 1359 -75 
Q 1122 -75 931 4 
Q 741 84 652 211 
Q 563 338 528 553 
Q 500 706 500 1172 
L 500 2619 
L 97 2619 
L 97 3319 
L 500 3319 
L 500 3978 
L 1381 4491 
L 1381 3319 
L 1981 3319 
z
" transform="scale(0.015625)"/>
       <path id="Arial-BoldMT-2f" d="M -9 -78 
L 1125 4659 
L 1784 4659 
L 638 -78 
L -9 -78 
z
" transform="scale(0.015625)"/>
       <path id="Arial-BoldMT-70" d="M 434 3319 
L 1253 3319 
L 1253 2831 
Q 1413 3081 1684 3237 
Q 1956 3394 2288 3394 
Q 2866 3394 3269 2941 
Q 3672 2488 3672 1678 
Q 3672 847 3265 386 
Q 2859 -75 2281 -75 
Q 2006 -75 1782 34 
Q 1559 144 1313 409 
L 1313 -1263 
L 434 -1263 
L 434 3319 
z
M 1303 1716 
Q 1303 1156 1525 889 
Q 1747 622 2066 622 
Q 2372 622 2575 867 
Q 2778 1113 2778 1672 
Q 2778 2194 2568 2447 
Q 2359 2700 2050 2700 
Q 1728 2700 1515 2451 
Q 1303 2203 1303 1716 
z
" transform="scale(0.015625)"/>
      </defs>
      <use xlink:href="#Arial-BoldMT-43"/>
      <use xlink:href="#Arial-BoldMT-68" x="72.216797"/>
      <use xlink:href="#Arial-BoldMT-65" x="133.300781"/>
      <use xlink:href="#Arial-BoldMT-6d" x="188.916016"/>
      <use xlink:href="#Arial-BoldMT-69" x="277.832031"/>
      <use xlink:href="#Arial-BoldMT-63" x="305.615234"/>
      <use xlink:href="#Arial-BoldMT-61" x="361.230469"/>
      <use xlink:href="#Arial-BoldMT-6c" x="416.845703"/>
      <use xlink:href="#Arial-BoldMT-20" x="444.628906"/>
      <use xlink:href="#Arial-BoldMT-53" x="472.412109"/>
      <use xlink:href="#Arial-BoldMT-68" x="539.111328"/>
      <use xlink:href="#Arial-BoldMT-69" x="600.195312"/>
      <use xlink:href="#Arial-BoldMT-66" x="627.978516"/>
      <use xlink:href="#Arial-BoldMT-74" x="661.279297"/>
      <use xlink:href="#Arial-BoldMT-20" x="694.580078"/>
      <use xlink:href="#Arial-BoldMT-2f" x="722.363281"/>
      <use xlink:href="#Arial-BoldMT-20" x="750.146484"/>
      <use xlink:href="#Arial-BoldMT-70" x="777.929688"/>
      <use xlink:href="#Arial-BoldMT-70" x="839.013672"/>
      <use xlink:href="#Arial-BoldMT-6d" x="900.097656"/>
     </g>
    </g>
   </g>
   <g id="matplotlib.axis_2"/>
   <g id="line2d_12">
    <path d="M 2.957156 190.849031 
L 3.161776 190.92224 
L 3.980255 190.402064 
L 4.594114 190.57168 
L 5.003354 190.357196 
L 6.026452 189.115674 
L 7.049551 188.606094 
L 7.45879 188.590532 
L 8.277269 189.102335 
L 9.095748 189.878929 
L 9.300368 189.837221 
L 9.709607 189.425212 
L 10.118847 188.91997 
L 10.323467 188.853925 
L 11.346565 189.342534 
L 11.755805 189.713964 
L 12.574284 190.906768 
L 12.778903 190.978765 
L 13.188143 190.775232 
L 13.597382 190.582911 
L 14.211241 190.747333 
L 15.02972 191.157996 
L 15.43896 191.015751 
L 16.462058 190.22974 
L 17.280537 189.549742 
L 17.689777 189.345602 
L 18.508256 188.633209 
L 18.917495 188.684816 
L 19.531354 189.103763 
L 20.145214 189.849242 
L 20.963692 191.028274 
L 21.372932 191.206629 
L 22.191411 191.15701 
L 22.60065 190.955758 
L 23.419129 190.198019 
L 23.828369 190.265265 
L 24.237608 190.394578 
L 24.646848 190.30598 
L 25.056087 189.926286 
L 25.669946 189.399904 
L 26.079186 189.282035 
L 26.283805 189.357929 
L 26.693045 189.893561 
L 27.102284 190.602034 
L 27.511524 190.79632 
L 28.125383 190.823259 
L 28.739242 190.998256 
L 29.148482 190.832692 
L 29.762341 190.048528 
L 30.58082 189.027383 
L 31.194679 188.608786 
L 31.603918 188.670346 
L 32.422397 189.279845 
L 33.854735 189.094166 
L 34.263975 188.942907 
L 34.673214 189.099741 
L 35.696313 190.08225 
L 36.105552 190.064769 
L 36.514792 189.844994 
L 37.128651 189.403948 
L 37.94713 189.18209 
L 38.560989 188.28089 
L 38.970228 187.769814 
L 39.174848 187.696532 
L 39.379468 187.80345 
L 39.788707 188.477841 
L 40.402567 189.589206 
L 40.811806 189.67361 
L 41.221045 189.650224 
L 41.425665 189.837448 
L 41.834905 190.764548 
L 42.244144 191.765895 
L 42.448764 191.993279 
L 42.653383 192.010216 
L 43.062623 191.618225 
L 44.085722 190.345733 
L 44.494961 190.046876 
L 45.51806 189.586146 
L 46.336539 188.766961 
L 46.541158 188.755642 
L 46.950398 189.173371 
L 47.359637 189.568373 
L 48.791975 190.204749 
L 49.610454 190.978831 
L 50.224313 191.430025 
L 50.428933 191.450317 
L 51.042792 191.15649 
L 51.452032 191.333932 
L 51.861271 191.50102 
L 52.47513 191.298875 
L 53.08899 191.080029 
L 53.907468 190.965158 
L 54.725947 190.634239 
L 55.544426 190.060476 
L 55.953666 189.838599 
L 56.362905 190.080151 
L 56.772145 190.328911 
L 57.181384 190.223964 
L 58.204483 189.698692 
L 58.613722 189.274387 
L 59.227581 189.086563 
L 59.636821 189.051962 
L 60.25068 189.172772 
L 60.864539 189.038875 
L 62.296877 189.480599 
L 63.115356 190.189397 
L 63.933835 190.394122 
L 64.343075 190.050184 
L 64.956934 189.026858 
L 65.980032 187.207588 
L 66.593892 186.830773 
L 66.798511 186.860876 
L 67.207751 187.283464 
L 68.02623 188.318648 
L 69.049328 189.245138 
L 69.458568 189.05577 
L 69.867807 188.896365 
L 70.277047 189.068456 
L 70.890906 189.403433 
L 71.300145 189.241814 
L 71.709385 188.670257 
L 72.732483 187.019832 
L 72.937103 186.911733 
L 73.141723 187.048824 
L 73.550962 188.024048 
L 73.960202 188.983521 
L 74.369441 189.25386 
L 74.778681 189.421144 
L 75.18792 189.631569 
L 75.801779 189.490153 
L 76.415638 189.300702 
L 77.438737 188.500068 
L 77.847977 188.449374 
L 78.666455 188.53027 
L 79.484934 188.228272 
L 80.303413 187.583875 
L 80.712653 187.723146 
L 81.121892 188.17474 
L 81.940371 189.324773 
L 82.34961 189.488759 
L 83.372709 189.771671 
L 83.986568 190.294082 
L 84.395808 190.585661 
L 84.805047 190.509556 
L 85.418906 190.244415 
L 86.032766 190.213667 
L 86.442005 190.465446 
L 87.260484 191.202817 
L 87.465104 191.228132 
L 87.874343 190.960753 
L 88.488202 190.453983 
L 88.897442 190.593351 
L 89.306681 190.702501 
L 89.715921 190.597268 
L 90.12516 190.157826 
L 90.739019 189.091435 
L 90.943639 188.981985 
L 91.352878 189.222731 
L 91.762118 189.357077 
L 92.171357 189.047932 
L 92.580597 188.715927 
L 92.785217 188.723288 
L 93.399076 189.213241 
L 94.217555 190.073102 
L 95.036034 191.013004 
L 95.445273 191.102328 
L 95.854512 190.90408 
L 96.263752 190.434126 
L 96.877611 189.58788 
L 97.69609 189.113372 
L 98.105329 188.904638 
L 98.309949 188.921158 
L 98.719189 189.390577 
L 99.333048 190.286432 
L 99.537668 190.335571 
L 99.742287 190.161356 
L 100.151527 189.316963 
L 100.560766 188.441041 
L 100.765386 188.263734 
L 100.970006 188.340604 
L 101.379245 189.057271 
L 101.788485 189.802282 
L 101.993104 189.884819 
L 102.197724 189.730707 
L 103.220823 188.283542 
L 103.630062 188.47068 
L 104.85778 189.659227 
L 105.676259 189.819833 
L 106.085499 190.324481 
L 106.699358 191.124083 
L 107.108597 191.326035 
L 107.517837 191.289316 
L 109.768654 189.962613 
L 110.382513 189.812205 
L 111.814851 189.048993 
L 112.83795 189.039847 
L 113.247189 189.208743 
L 114.270288 189.044088 
L 116.316485 190.040938 
L 116.521105 189.985969 
L 116.725725 189.746827 
L 117.544204 188.11491 
L 117.748823 187.97538 
L 117.953443 187.999957 
L 118.362682 188.484196 
L 119.385781 190.275448 
L 119.79502 190.288233 
L 120.613499 189.966998 
L 122.045837 189.849228 
L 122.455077 190.093773 
L 122.864316 190.432584 
L 123.068936 190.45256 
L 123.478176 190.17215 
L 124.296654 189.430846 
L 124.501274 189.411529 
L 124.910514 189.710802 
L 125.319753 190.126076 
L 125.524373 190.168362 
L 125.933612 189.849963 
L 126.342852 189.038853 
L 126.956711 187.549259 
L 127.161331 187.36852 
L 127.36595 187.428329 
L 127.77519 188.125144 
L 128.798288 190.511687 
L 129.207528 190.96422 
L 129.616767 191.033298 
L 130.026007 191.093142 
L 131.049105 191.460141 
L 131.458345 191.345795 
L 131.867584 190.72196 
L 132.481444 189.485058 
L 132.686063 189.290419 
L 132.890683 189.350166 
L 133.299922 190.167639 
L 133.709162 190.946119 
L 133.913782 191.059285 
L 134.323021 190.941806 
L 134.93688 190.411004 
L 135.34612 190.085196 
L 135.755359 190.149551 
L 136.164599 190.127421 
L 136.573838 189.632886 
L 137.187697 188.845299 
L 137.801556 188.512387 
L 138.620035 188.234563 
L 139.233895 188.482204 
L 140.052373 187.968098 
L 140.461613 188.296375 
L 143.530909 191.14826 
L 143.940148 191.273042 
L 144.349388 191.315402 
L 144.963247 191.599901 
L 145.372486 191.4423 
L 145.781726 190.996382 
L 146.804824 189.663482 
L 147.418684 189.256801 
L 147.827923 189.129114 
L 148.441782 189.261447 
L 148.851022 189.28376 
L 149.464881 188.983938 
L 150.48798 188.043571 
L 151.715698 188.460586 
L 152.329557 188.984429 
L 152.738797 189.178453 
L 153.148036 189.054057 
L 153.557275 188.913483 
L 154.171135 189.08716 
L 154.989614 188.763872 
L 155.603473 188.945203 
L 156.217332 188.980953 
L 156.831191 189.321335 
L 158.058909 190.083842 
L 158.468149 189.877852 
L 158.877388 189.682918 
L 159.286628 189.854677 
L 160.309726 190.546563 
L 161.128205 190.662687 
L 161.537445 190.48334 
L 162.355924 189.736406 
L 162.969783 189.698407 
L 163.379022 189.853894 
L 164.402121 190.761907 
L 164.81136 190.651186 
L 166.039079 189.935098 
L 166.652938 190.215642 
L 168.494515 189.977448 
L 169.517614 188.917735 
L 169.926854 188.971381 
L 170.336093 189.100088 
L 170.745332 188.879835 
L 171.973051 187.546452 
L 172.177671 187.498798 
L 172.38229 187.582599 
L 172.79153 188.142671 
L 174.019248 190.188852 
L 174.223868 190.308553 
L 174.428488 190.237987 
L 175.042347 189.642678 
L 175.451586 189.664257 
L 175.860826 189.683501 
L 176.474685 189.477713 
L 178.520882 190.016887 
L 178.930122 189.660659 
L 179.543981 189.048259 
L 179.95322 188.897512 
L 180.36246 188.841381 
L 180.771699 188.448514 
L 181.180939 187.886987 
L 181.385558 187.78456 
L 181.794798 188.030358 
L 182.204037 188.404151 
L 182.613277 188.45122 
L 183.022516 188.115587 
L 184.045615 186.858552 
L 184.659474 186.904108 
L 185.068713 187.120481 
L 185.682573 187.77277 
L 186.091812 187.845999 
L 186.910291 187.358732 
L 187.31953 187.756679 
L 188.547249 189.398603 
L 188.751868 189.287035 
L 189.365728 188.60983 
L 189.979587 188.319007 
L 190.388826 187.774776 
L 191.002685 186.762271 
L 191.411925 186.549355 
L 191.821164 186.580772 
L 192.435024 186.96591 
L 193.048883 187.500574 
L 193.867362 188.372767 
L 194.276601 188.363949 
L 195.09508 187.766035 
L 195.708939 188.008141 
L 196.732038 188.666583 
L 197.141277 188.647295 
L 198.778235 187.512837 
L 199.392094 187.553324 
L 199.801334 187.23868 
L 200.210573 186.625413 
L 201.642911 183.902034 
L 202.052151 183.464622 
L 202.25677 183.47349 
L 202.87063 183.76633 
L 203.279869 183.431693 
L 204.098348 182.524477 
L 204.507587 182.192469 
L 204.916827 181.304689 
L 206.144545 177.638668 
L 206.758404 174.271234 
L 207.576883 168.198529 
L 207.986123 163.774998 
L 208.395362 157.52296 
L 209.009221 144.039534 
L 209.623081 125.113387 
L 210.23694 95.81995 
L 211.055419 37.295525 
L 211.464658 11.423438 
L 211.669278 4.361994 
L 211.873898 3.00024 
L 212.078517 7.742492 
L 212.487757 32.057639 
L 213.510855 104.319902 
L 214.124715 128.872482 
L 214.738574 142.887072 
L 215.147813 148.16828 
L 215.557053 150.840852 
L 215.761672 151.433542 
L 215.966292 151.683883 
L 216.170912 151.695929 
L 216.580151 151.526576 
L 216.784771 151.647685 
L 216.989391 152.06786 
L 217.39863 153.866168 
L 218.217109 158.306474 
L 218.626349 159.226311 
L 218.830968 159.324491 
L 219.240208 159.127968 
L 219.649447 158.4356 
L 220.058687 156.937997 
L 220.672546 152.923541 
L 221.081785 150.235026 
L 221.286405 149.457971 
L 221.491025 149.264146 
L 221.695644 149.671176 
L 222.718743 153.902364 
L 223.127983 154.734739 
L 223.537222 156.351828 
L 224.151081 159.246075 
L 224.355701 159.785446 
L 224.560321 159.961872 
L 224.76494 159.739618 
L 224.96956 159.123416 
L 225.3788 156.758548 
L 226.606518 147.532102 
L 226.811138 147.286702 
L 227.015757 147.48026 
L 228.038856 149.630872 
L 228.448095 151.490501 
L 230.085053 162.655144 
L 230.494293 164.100157 
L 230.698912 164.500844 
L 230.903532 164.576668 
L 231.108152 164.260537 
L 231.517391 162.380971 
L 231.926631 158.85688 
L 232.54049 150.821054 
L 233.154349 142.942316 
L 233.358969 141.69275 
L 233.563589 141.625435 
L 233.768208 142.806295 
L 235.200546 157.273347 
L 235.814406 161.754457 
L 236.428265 166.469522 
L 236.837504 168.478675 
L 237.246744 169.596871 
L 237.451363 169.859614 
L 237.655983 169.897981 
L 238.065223 169.468013 
L 238.474462 168.706542 
L 238.883701 167.040746 
L 239.292941 163.880728 
L 239.70218 159.054655 
L 240.31604 147.846418 
L 242.362237 103.31011 
L 242.771476 98.665377 
L 242.976096 98.459384 
L 243.180716 99.673616 
L 243.589955 104.931229 
L 244.408434 119.585917 
L 246.045392 156.658359 
L 246.659251 163.880557 
L 247.27311 169.151318 
L 247.886969 172.698195 
L 248.296209 174.128587 
L 248.500829 174.481014 
L 248.705448 174.55936 
L 248.910068 174.412289 
L 249.319308 173.653271 
L 249.728547 172.280521 
L 250.137786 169.900372 
L 250.751646 163.960994 
L 251.774744 152.539456 
L 252.388603 148.521713 
L 252.593223 147.891757 
L 252.797843 147.723838 
L 253.002463 148.062718 
L 253.411702 150.230468 
L 254.84404 162.178662 
L 256.480998 178.770143 
L 256.890237 181.063749 
L 257.299477 182.411657 
L 257.913336 183.485537 
L 258.322576 183.876283 
L 259.345674 184.324641 
L 260.164153 184.318316 
L 260.573393 184.725343 
L 261.187252 185.6599 
L 261.596491 185.817116 
L 262.005731 185.624229 
L 262.41497 185.388774 
L 262.61959 185.392534 
L 262.82421 185.524241 
L 263.233449 186.155897 
L 263.847308 187.137427 
L 264.256548 187.299355 
L 264.665787 187.165313 
L 265.484266 186.295191 
L 265.893505 186.897839 
L 266.302745 187.561576 
L 266.916604 187.92672 
L 267.735083 188.448339 
L 268.144322 188.773853 
L 268.348942 188.819186 
L 268.758182 188.528015 
L 269.78128 187.540958 
L 270.599759 186.117738 
L 270.804379 186.053253 
L 271.213618 186.338093 
L 271.827478 186.859547 
L 272.032097 186.886208 
L 272.236717 186.744281 
L 272.850576 185.616055 
L 273.464435 184.675626 
L 274.487534 183.600247 
L 275.101393 182.422736 
L 275.715252 180.369502 
L 276.533731 176.891682 
L 277.14759 174.380162 
L 277.966069 171.899007 
L 278.375309 169.725116 
L 278.784548 166.344797 
L 279.603027 156.830516 
L 280.012267 149.963127 
L 280.626126 135.107221 
L 281.239985 114.461623 
L 282.058464 77.095793 
L 282.672323 51.708232 
L 283.081562 42.281549 
L 283.490802 38.100156 
L 283.695422 37.571955 
L 283.900041 38.114002 
L 284.104661 40.015187 
L 284.513901 49.170895 
L 285.12776 73.616679 
L 285.741619 96.849934 
L 286.150858 106.44766 
L 286.560098 110.668746 
L 286.764718 110.852447 
L 286.969337 109.822864 
L 287.378577 104.809502 
L 288.606295 85.983173 
L 289.015535 82.764238 
L 289.220154 82.150693 
L 289.424774 82.569027 
L 289.629394 84.293315 
L 290.038633 91.726638 
L 290.857112 109.781919 
L 291.675591 123.735701 
L 293.312549 158.60936 
L 293.926408 166.345956 
L 294.540267 171.377951 
L 294.949507 173.068543 
L 295.358746 173.858455 
L 295.767986 174.019159 
L 296.177225 174.166564 
L 296.586464 174.850459 
L 297.609563 177.080836 
L 298.018803 177.590926 
L 298.428042 178.445048 
L 300.678859 184.066085 
L 302.111197 185.653821 
L 302.520437 185.811941 
L 303.338915 186.322471 
L 303.748155 186.170643 
L 304.362014 185.510832 
L 304.566634 185.466309 
L 304.975873 185.855921 
L 305.385113 186.267193 
L 306.203592 186.474415 
L 306.612831 187.194278 
L 307.43131 188.685241 
L 307.840549 189.307857 
L 308.249789 189.476524 
L 308.863648 189.43825 
L 309.272888 189.403978 
L 309.682127 189.064673 
L 310.500606 187.93621 
L 310.705226 187.914825 
L 310.909845 188.092299 
L 311.319085 188.957177 
L 311.728324 189.84394 
L 312.137564 190.128249 
L 312.546803 190.389294 
L 313.569902 191.715045 
L 313.774521 191.670908 
L 314.183761 191.135468 
L 315.00224 189.678077 
L 316.025338 188.537372 
L 316.229958 188.560465 
L 316.843817 189.122901 
L 317.048437 189.119405 
L 317.457677 188.704772 
L 318.276155 187.481144 
L 318.685395 187.26329 
L 319.094634 187.344897 
L 319.503874 187.745104 
L 320.117733 188.471609 
L 320.526972 188.585376 
L 320.731592 188.77037 
L 321.140832 189.607406 
L 321.550071 190.482439 
L 321.959311 190.787483 
L 322.16393 190.698675 
L 322.36855 190.432834 
L 322.777789 189.354816 
L 323.187029 188.142257 
L 323.391649 187.865465 
L 323.596268 187.898744 
L 324.005508 188.530362 
L 324.823987 189.900998 
L 325.233226 190.245862 
L 325.437846 190.197876 
L 326.870184 189.050603 
L 327.893283 188.891303 
L 328.916381 189.34745 
L 329.93948 189.281421 
L 330.348719 189.717402 
L 330.757959 190.197894 
L 331.371818 190.452117 
L 331.985677 190.667583 
L 333.213396 191.384141 
L 333.418015 191.278086 
L 333.827255 190.60458 
L 334.236494 189.748484 
L 334.441114 189.575107 
L 334.645734 189.632508 
L 335.464213 190.499881 
L 336.282691 190.599586 
L 337.10117 191.101667 
L 337.51041 191.020506 
L 337.919649 191.201539 
L 338.533508 191.777077 
L 338.942748 191.690905 
L 339.351987 191.405519 
L 339.761227 190.804742 
L 340.375086 189.640241 
L 340.784325 189.379341 
L 341.807424 189.499268 
L 342.216664 189.748015 
L 342.830523 190.423612 
L 343.239762 190.434566 
L 343.853621 190.171499 
L 344.262861 190.234196 
L 345.285959 190.596048 
L 345.899819 190.425942 
L 347.741396 189.557348 
L 348.355255 188.689139 
L 348.764495 188.212418 
L 350.401453 187.608081 
L 350.810692 188.013484 
L 351.424551 188.655752 
L 351.833791 188.823847 
L 352.65227 189.043141 
L 353.266129 189.645188 
L 354.289227 190.990888 
L 354.903087 191.221008 
L 355.312326 191.041905 
L 355.721565 190.817674 
L 356.130805 190.831898 
L 356.744664 191.030668 
L 357.153904 190.901642 
L 357.767763 190.696952 
L 358.177002 190.417629 
L 359.200101 189.324382 
L 359.60934 189.325932 
L 360.01858 189.453632 
L 360.837059 189.463742 
L 361.655538 189.777982 
L 362.064777 189.758582 
L 362.678636 189.540228 
L 363.701735 189.707243 
L 364.110974 189.45912 
L 364.929453 188.619742 
L 365.338693 188.657152 
L 365.747932 188.893724 
L 366.361791 189.487281 
L 366.771031 189.990008 
L 367.18027 190.077547 
L 367.58951 189.677041 
L 369.021848 187.255967 
L 369.431087 187.274122 
L 369.635707 187.314431 
L 369.840327 187.232958 
L 370.249566 186.584986 
L 370.863425 184.822721 
L 371.681904 182.482684 
L 372.295763 180.612897 
L 372.909623 177.885592 
L 373.728101 173.209699 
L 374.341961 168.757597 
L 374.95582 162.811698 
L 375.569679 155.324679 
L 376.183538 144.294572 
L 376.797397 127.901196 
L 378.025116 90.208461 
L 378.229735 87.414311 
L 378.434355 86.431374 
L 378.638975 87.159744 
L 378.843595 89.404369 
L 379.252834 97.196496 
L 380.480552 123.207289 
L 381.912891 146.454394 
L 382.52675 153.376278 
L 382.935989 156.301697 
L 383.345229 157.658724 
L 383.549848 157.729342 
L 383.754468 157.386641 
L 384.163708 155.790194 
L 384.572947 153.466389 
L 384.982186 149.964079 
L 385.596046 142.223759 
L 386.414525 127.911276 
L 387.437623 106.030223 
L 388.051482 89.178985 
L 389.074581 58.659591 
L 389.279201 55.892321 
L 389.48382 55.360608 
L 389.68844 57.217386 
L 390.09768 67.559923 
L 391.939257 132.615493 
L 392.553116 144.201794 
L 393.576215 158.664815 
L 394.190074 165.349526 
L 394.803933 169.74564 
L 395.622412 173.757519 
L 398.077849 182.848954 
L 399.714807 186.196632 
L 400.124046 186.511918 
L 400.942525 186.786737 
L 401.965624 186.934088 
L 402.988722 186.687729 
L 403.602582 186.942373 
L 404.42106 187.330134 
L 405.853399 188.688723 
L 406.262638 188.983382 
L 407.490356 189.304002 
L 408.308835 190.078922 
L 408.922694 190.184729 
L 409.536554 190.059168 
L 410.355033 190.477215 
L 410.968892 190.419405 
L 411.378131 190.487352 
L 411.787371 190.229361 
L 412.40123 189.544922 
L 412.810469 189.409622 
L 413.015089 189.525835 
L 413.424328 190.159088 
L 413.833568 190.800256 
L 414.038188 190.925447 
L 414.242807 190.879079 
L 415.061286 190.082307 
L 415.879765 188.753323 
L 416.084385 188.731344 
L 416.493624 189.035137 
L 416.902864 189.625534 
L 417.516723 190.607279 
L 417.721343 190.683956 
L 417.925962 190.604447 
L 418.744441 189.826264 
L 419.153681 189.962221 
L 419.56292 190.088584 
L 420.176779 190.040742 
L 420.586019 189.859947 
L 420.995258 189.370754 
L 421.404498 188.883605 
L 422.427596 188.476829 
L 422.836836 187.738634 
L 423.450695 186.383289 
L 423.655315 186.238959 
L 423.859935 186.261736 
L 424.064554 186.451432 
L 425.087653 188.041062 
L 426.110752 188.225017 
L 427.747709 188.663715 
L 428.975428 189.716235 
L 430.407766 191.298507 
L 430.612385 191.287259 
L 431.021625 190.729113 
L 431.430864 190.146906 
L 431.840104 190.017528 
L 432.249343 190.037885 
L 432.658583 189.686794 
L 433.477062 188.863977 
L 433.886301 188.84743 
L 434.295541 188.982281 
L 434.9094 189.003181 
L 436.137118 189.779068 
L 436.546358 190.408782 
L 437.160217 191.461104 
L 437.364836 191.504037 
L 438.387935 190.996985 
L 439.001794 191.262884 
L 439.820273 191.207997 
L 440.434132 191.126151 
L 440.843372 191.425445 
L 441.457231 192.036817 
L 441.661851 192.009804 
L 442.07109 191.526905 
L 442.889569 190.26693 
L 443.094189 190.283136 
L 443.503428 190.586173 
L 443.708048 190.592627 
L 444.321907 190.280167 
L 445.140386 190.403974 
L 445.958865 189.645931 
L 446.368104 189.555059 
L 446.981964 189.457533 
L 447.391203 189.215702 
L 448.005062 188.705905 
L 448.414302 188.775568 
L 449.232781 189.126415 
L 449.64202 188.889288 
L 450.05126 188.671463 
L 450.255879 188.745073 
L 450.665119 189.281028 
L 451.278978 190.211724 
L 451.483598 190.343414 
L 451.892837 190.253621 
L 452.506696 190.073759 
L 452.915936 189.975797 
L 453.734415 189.374591 
L 454.143654 188.756541 
L 454.552894 187.567263 
L 455.371372 183.916525 
L 455.985232 180.408444 
L 456.599091 175.388806 
L 457.21295 167.389883 
L 458.645288 144.729802 
L 459.054528 135.172355 
L 459.668387 113.789416 
L 461.100725 50.259945 
L 461.305345 49.293236 
L 461.509964 51.7558 
L 461.919204 63.824287 
L 462.942302 99.801101 
L 463.760781 118.615381 
L 465.193119 148.313909 
L 465.806979 155.835643 
L 466.216218 158.884035 
L 466.625457 160.452577 
L 466.830077 160.617 
L 467.034697 160.418988 
L 467.443936 159.30417 
L 467.853176 157.570998 
L 468.262415 154.295629 
L 468.876274 145.939448 
L 470.103993 124.106549 
L 470.922472 106.469157 
L 471.94557 80.253318 
L 472.15019 77.570762 
L 472.35481 77.076647 
L 472.559429 79.134699 
L 472.968669 90.32126 
L 474.196387 135.374744 
L 474.810246 148.77338 
L 475.628725 160.45541 
L 476.447204 169.054453 
L 477.265683 175.490023 
L 477.879542 178.525092 
L 478.698021 181.199315 
L 479.107261 181.891838 
L 480.130359 183.006284 
L 480.744219 183.875495 
L 481.153458 183.952057 
L 481.562697 183.990092 
L 481.971937 184.385466 
L 482.790416 185.715201 
L 484.222754 186.614754 
L 484.631993 186.930029 
L 485.245853 186.913886 
L 485.655092 187.264558 
L 486.268951 187.989902 
L 486.473571 187.988801 
L 487.29205 187.547899 
L 487.905909 187.71131 
L 488.724388 188.053205 
L 489.133627 187.889634 
L 489.542867 187.306423 
L 490.156726 186.34933 
L 490.565965 186.006904 
L 490.975205 186.04723 
L 491.589064 186.411981 
L 492.407543 187.32892 
L 493.226022 187.022893 
L 493.635261 187.61042 
L 494.86298 190.262239 
L 495.272219 190.480464 
L 495.681459 190.159197 
L 496.499938 189.104707 
L 496.909177 189.101704 
L 497.727656 189.31229 
L 498.136895 189.725539 
L 498.750755 190.50856 
L 498.955374 190.578932 
L 499.364614 190.35971 
L 499.978473 189.908302 
L 500.387712 189.948475 
L 501.001572 190.487834 
L 501.410811 190.794016 
L 501.615431 190.738823 
L 502.843149 189.222573 
L 503.457008 188.206215 
L 504.070867 187.6154 
L 504.275487 187.552193 
L 504.684727 187.870782 
L 505.503205 188.751838 
L 506.117065 189.249921 
L 506.526304 189.336481 
L 507.549403 189.166267 
L 508.572501 187.807848 
L 508.777121 187.836972 
L 509.186361 188.198261 
L 509.80022 188.796511 
L 510.004839 188.825251 
L 511.232558 188.332988 
L 511.846417 188.601923 
L 512.664896 189.058202 
L 513.074135 189.069869 
L 513.483375 189.003188 
L 514.506473 189.237169 
L 514.915713 189.34957 
L 515.734192 190.00545 
L 516.348051 190.134032 
L 517.16653 190.136865 
L 517.985009 190.945215 
L 518.394248 190.830377 
L 518.803488 190.50731 
L 519.417347 189.758222 
L 519.826586 189.646247 
L 521.054305 189.946284 
L 521.872784 189.976816 
L 522.691263 190.082519 
L 523.305122 190.000387 
L 523.714361 190.453196 
L 524.123601 190.922935 
L 524.53284 191.064987 
L 524.94208 191.052839 
L 525.351319 191.265378 
L 526.374418 192.024196 
L 526.988277 191.996667 
L 527.602136 192.155661 
L 528.011375 191.851106 
L 528.625235 191.134264 
L 529.034474 191.000648 
L 529.648333 191.27287 
L 530.057573 191.186209 
L 530.466812 191.052784 
L 531.694531 191.176391 
L 531.89915 191.016135 
L 532.513009 189.904495 
L 533.126869 188.854354 
L 533.536108 188.640882 
L 533.945348 188.573485 
L 534.763826 188.031115 
L 535.173066 188.254744 
L 535.991545 189.099216 
L 536.810024 189.63365 
L 537.423883 189.633047 
L 538.037742 189.879037 
L 538.446982 189.796562 
L 538.856221 189.596903 
L 539.26546 189.751648 
L 539.87932 190.098413 
L 540.288559 190.343461 
L 541.107038 191.083326 
L 541.311658 191.003319 
L 541.925517 190.303591 
L 542.743996 190.010979 
L 543.357855 189.543775 
L 543.971714 189.444522 
L 544.585573 189.290852 
L 545.199432 189.102564 
L 545.813292 189.21379 
L 546.222531 189.416511 
L 546.83639 189.894165 
L 547.04101 189.844974 
L 547.450249 189.278094 
L 547.859489 188.667833 
L 548.268728 188.389328 
L 548.677968 188.406817 
L 549.087207 188.845923 
L 550.110306 190.415184 
L 550.314926 190.329997 
L 550.928785 189.718625 
L 551.338024 189.78413 
L 551.747264 189.871974 
L 552.565743 189.663035 
L 553.588841 189.06632 
L 554.61194 189.29245 
L 555.021179 188.957683 
L 555.430419 188.62583 
L 555.839658 188.541519 
L 556.248898 188.748167 
L 556.862757 189.260996 
L 557.271996 189.126614 
L 557.885856 188.80703 
L 558.295095 188.848162 
L 558.704334 189.321913 
L 559.318194 190.16825 
L 559.932053 190.633731 
L 560.341292 190.677533 
L 561.569011 190.422044 
L 561.97825 189.781288 
L 562.796729 188.035156 
L 563.001349 187.888667 
L 563.410588 188.034794 
L 564.024447 188.358955 
L 564.433687 188.134872 
L 564.842926 187.87438 
L 565.047546 187.930479 
L 565.456785 188.3605 
L 566.070645 189.216882 
L 566.275264 189.296326 
L 566.684504 189.134831 
L 567.298363 188.892714 
L 567.707602 188.8555 
L 568.321462 189.133981 
L 569.139941 189.545323 
L 569.54918 190.054991 
L 569.958419 190.572704 
L 570.163039 190.613693 
L 570.367659 190.481391 
L 570.776898 189.820669 
L 571.390758 188.754847 
L 571.595377 188.757271 
L 572.004617 189.331831 
L 572.413856 189.763491 
L 572.618476 189.678828 
L 573.232335 189.145397 
L 574.255434 189.240261 
L 574.664673 189.481587 
L 575.073913 189.774835 
L 575.278532 189.727195 
L 575.687772 189.10632 
L 576.301631 188.04725 
L 576.71087 187.814391 
L 577.12011 187.866566 
L 577.733969 188.138492 
L 578.143209 188.170498 
L 578.347828 188.319802 
L 578.757068 189.043227 
L 579.370927 190.28863 
L 579.780166 190.723057 
L 579.984786 190.755139 
L 580.394026 190.408115 
L 580.803265 190.110287 
L 581.212504 190.305652 
L 581.621744 190.534468 
L 581.826364 190.520542 
L 582.030983 190.368121 
L 582.440223 189.636852 
L 583.258702 187.977297 
L 583.667941 187.574904 
L 584.077181 187.652023 
L 584.48642 187.922591 
L 584.895659 188.632648 
L 585.714138 190.313096 
L 585.918758 190.526285 
L 586.123378 190.556071 
L 586.327998 190.372691 
L 586.941857 189.14173 
L 587.555716 187.979722 
L 587.760336 187.809402 
L 587.964955 187.815272 
L 588.374195 188.227377 
L 589.192674 189.194157 
L 589.601913 189.342071 
L 590.011153 189.088254 
L 590.829632 188.356605 
L 591.443491 187.953773 
L 591.85273 188.116798 
L 592.26197 188.274831 
L 592.671209 188.338073 
L 593.080449 188.710632 
L 593.898927 189.957331 
L 594.308167 190.165544 
L 595.535885 190.263148 
L 597.786702 188.174062 
L 598.400561 188.163798 
L 599.014421 188.325795 
L 599.62828 188.952453 
L 600.446759 189.805339 
L 602.083717 190.697339 
L 603.720674 190.973569 
L 604.539153 190.366488 
L 604.948393 190.465258 
L 605.971491 191.059307 
L 607.608449 190.773169 
L 608.836168 191.747217 
L 609.245407 191.605223 
L 609.859266 190.822997 
L 610.473125 190.15806 
L 611.086985 189.87441 
L 611.291604 189.888608 
L 611.700844 190.276586 
L 612.314703 190.937052 
L 612.519323 190.91283 
L 612.928562 190.358348 
L 613.337802 189.793141 
L 613.542421 189.716486 
L 613.951661 189.925447 
L 614.3609 190.134982 
L 614.77014 189.731738 
L 615.179379 189.257601 
L 615.383999 189.19798 
L 615.588619 189.300658 
L 616.407097 190.148044 
L 616.816337 189.996671 
L 617.430196 189.576227 
L 617.839436 189.304723 
L 618.657914 188.500221 
L 618.862534 188.534756 
L 619.271774 189.016875 
L 620.090253 190.224944 
L 620.499492 190.456782 
L 620.908731 190.360036 
L 622.545689 189.603783 
L 623.159548 189.522333 
L 623.568788 189.482464 
L 623.978027 189.683259 
L 624.387267 189.980958 
L 624.796506 189.974397 
L 625.410365 189.629517 
L 625.819605 189.768476 
L 626.433464 190.118883 
L 627.047323 190.477463 
L 627.456563 190.666885 
L 628.479661 190.536652 
L 629.29814 190.983576 
L 629.70738 190.81031 
L 630.321239 190.510981 
L 630.935098 190.487823 
L 631.753577 190.914373 
L 632.162816 190.589454 
L 633.185915 189.175551 
L 633.595154 189.121642 
L 634.004394 189.244141 
L 634.413633 189.079447 
L 635.027493 188.75356 
L 635.436732 188.756569 
L 635.845971 188.821189 
L 636.255211 188.604628 
L 637.07369 187.718282 
L 637.482929 187.86703 
L 637.892169 188.02071 
L 638.301408 187.777969 
L 638.915267 187.355638 
L 639.119887 187.348612 
L 639.529127 187.688572 
L 640.552225 189.079131 
L 640.961465 189.304675 
L 641.779944 190.186791 
L 642.189183 190.425435 
L 642.803042 190.975888 
L 643.007662 190.887954 
L 643.621521 190.290707 
L 644.849239 190.02594 
L 645.667718 189.511718 
L 646.076958 189.244861 
L 646.486197 189.33919 
L 647.304676 189.924625 
L 647.918535 190.844748 
L 648.327775 191.394272 
L 648.737014 191.59878 
L 649.146254 191.414031 
L 650.373972 190.65057 
L 650.987831 190.124053 
L 651.397071 189.753827 
L 652.829409 187.953816 
L 653.852507 187.874795 
L 654.057127 187.97492 
L 655.489465 189.645378 
L 656.307944 190.047369 
L 656.717184 190.448546 
L 656.921803 190.51764 
L 657.331043 190.235253 
L 658.354141 188.762803 
L 658.763381 188.403569 
L 658.968001 188.514179 
L 659.58186 189.212048 
L 659.991099 189.161185 
L 660.400339 189.003692 
L 661.423437 189.053835 
L 662.037296 189.79529 
L 662.651156 190.434078 
L 663.060395 190.409737 
L 663.878874 190.124337 
L 664.288113 190.207527 
L 665.106592 190.611513 
L 665.515832 190.465225 
L 666.53893 189.509243 
L 667.562029 189.118038 
L 668.175888 189.061526 
L 668.585128 189.336025 
L 669.812846 190.864816 
L 670.222086 190.968829 
L 672.063663 190.876013 
L 673.086762 189.532372 
L 673.700621 188.672116 
L 674.10986 188.446324 
L 674.72372 188.524813 
L 675.132959 188.208753 
L 675.951438 187.544672 
L 676.360677 187.438063 
L 676.974537 187.610991 
L 677.588396 187.919277 
L 679.225354 189.504177 
L 679.634593 189.957448 
L 680.043832 190.039764 
L 680.862311 190.003098 
L 681.476171 190.219625 
L 682.09003 190.113557 
L 683.113128 190.280948 
L 683.726988 190.544749 
L 684.750086 190.331576 
L 685.568565 190.039779 
L 687.410143 188.8114 
L 687.614762 188.835411 
L 688.024002 189.312841 
L 688.637861 190.110578 
L 689.0471 190.280402 
L 689.45634 190.259762 
L 689.865579 189.881131 
L 690.479439 188.748874 
L 691.297917 187.291839 
L 692.321016 185.671583 
L 692.730256 184.855105 
L 693.753354 183.44689 
L 694.162594 182.484213 
L 694.571833 180.976246 
L 695.390312 176.50682 
L 696.208791 170.234858 
L 696.82265 163.765547 
L 697.436509 154.469255 
L 698.868847 130.841837 
L 699.278087 127.008799 
L 699.687326 125.245256 
L 699.891946 125.047147 
L 700.096566 125.258623 
L 700.301185 125.963482 
L 700.710425 129.156657 
L 701.324284 137.213112 
L 702.756622 157.889884 
L 703.575101 166.137641 
L 704.18896 170.876321 
L 704.802819 173.837188 
L 705.825918 177.792048 
L 706.439777 180.388342 
L 707.053636 181.910142 
L 708.281355 184.665745 
L 709.304453 186.232861 
L 709.509073 186.300395 
L 709.918313 186.105172 
L 710.941411 185.522676 
L 711.55527 185.375917 
L 712.578369 185.159413 
L 712.782989 185.308921 
L 713.192228 186.169396 
L 713.806087 187.666057 
L 714.624566 188.991512 
L 715.033806 189.230265 
L 715.443045 189.175586 
L 715.852285 188.737383 
L 716.670764 187.580452 
L 717.080003 187.392354 
L 717.489242 187.564776 
L 718.716961 188.426998 
L 718.921581 188.386312 
L 720.149299 187.293854 
L 720.967778 186.453126 
L 721.172398 186.464393 
L 721.990876 186.968156 
L 722.400116 186.671558 
L 722.809355 186.28145 
L 723.218595 186.218666 
L 723.832454 186.309865 
L 724.241693 186.708911 
L 725.469412 188.908837 
L 725.674032 188.972948 
L 725.878651 188.888357 
L 727.515609 187.091316 
L 727.720229 187.161535 
L 728.129468 187.599822 
L 728.538708 188.273152 
L 730.175666 191.926115 
L 730.584905 192.046664 
L 730.789525 191.97001 
L 731.198764 191.386463 
L 731.812623 190.094304 
L 732.221863 189.703619 
L 732.835722 189.453238 
L 733.244961 189.649997 
L 733.654201 189.929286 
L 734.06344 189.835925 
L 734.6773 189.620396 
L 735.086539 189.542078 
L 735.905018 189.069733 
L 736.109638 189.082832 
L 736.518877 189.453832 
L 736.928116 189.903687 
L 737.337356 189.977118 
L 737.746595 189.760198 
L 739.383553 188.313986 
L 739.792793 188.090965 
L 741.020511 187.092112 
L 741.42975 187.11211 
L 741.83899 187.272184 
L 742.248229 187.295979 
L 742.657469 187.608244 
L 743.475948 188.7421 
L 744.089807 189.51436 
L 745.112906 190.432768 
L 745.931384 190.233832 
L 746.954483 190.667651 
L 747.977582 190.670475 
L 749.00068 191.135911 
L 749.61454 191.092373 
L 750.023779 190.858181 
L 750.637638 190.459515 
L 751.046878 190.190337 
L 752.069976 189.014722 
L 752.479216 188.982697 
L 752.888455 189.379 
L 753.706934 190.510024 
L 754.525413 191.110497 
L 754.730033 191.168103 
L 755.139272 190.926886 
L 755.548512 190.633829 
L 756.77623 190.589232 
L 757.185469 190.520777 
L 758.003948 190.880144 
L 758.413188 190.857603 
L 759.027047 190.989433 
L 760.254765 190.266002 
L 760.459385 190.323804 
L 760.868625 190.806205 
L 761.277864 191.392202 
L 761.482484 191.51268 
L 761.891723 191.382118 
L 762.300963 191.251554 
L 762.710202 191.336478 
L 762.914822 191.218117 
L 763.324061 190.606456 
L 763.733301 189.917099 
L 764.14254 189.687846 
L 764.756399 189.799588 
L 765.779498 189.119144 
L 766.393357 189.103123 
L 766.802597 189.107482 
L 767.211836 188.580591 
L 767.621076 188.149966 
L 768.030315 188.367654 
L 768.439554 188.62479 
L 769.053414 188.618514 
L 769.462653 188.317952 
L 770.281132 187.036853 
L 770.485752 186.965037 
L 770.894991 187.13492 
L 771.304231 187.319845 
L 771.71347 187.355034 
L 771.91809 187.47778 
L 773.145808 188.86205 
L 773.759667 189.244855 
L 774.578146 188.994928 
L 774.987386 189.50196 
L 775.805865 190.873512 
L 776.010484 190.942991 
L 776.215104 190.817696 
L 777.033583 189.577774 
L 777.442822 189.640268 
L 777.852062 189.792045 
L 778.056682 189.686849 
L 778.465921 188.942866 
L 778.87516 188.259873 
L 779.07978 188.263766 
L 779.693639 188.75488 
L 780.716738 188.487862 
L 781.125977 188.76375 
L 782.558316 190.280554 
L 782.967555 190.385583 
L 783.376794 190.144419 
L 784.195273 189.343676 
L 784.399893 189.310049 
L 784.809133 189.61986 
L 785.218372 189.97584 
L 786.036851 190.06617 
L 786.44609 189.84448 
L 787.264569 189.181627 
L 787.469189 189.188993 
L 787.673809 189.372409 
L 788.901527 191.253838 
L 789.310767 191.397646 
L 789.515386 191.290338 
L 790.129245 190.420379 
L 790.743105 189.714917 
L 791.152344 189.582841 
L 791.356964 189.686234 
L 791.766203 190.254638 
L 792.175443 190.89392 
L 792.380062 191.04968 
L 792.584682 191.004287 
L 793.812401 189.780355 
L 794.22164 189.976686 
L 794.835499 190.518147 
L 795.244739 190.568914 
L 795.653978 190.318798 
L 796.063218 189.73698 
L 796.472457 189.033172 
L 796.677077 188.852891 
L 797.086316 188.934922 
L 797.495556 188.981531 
L 798.314035 188.622475 
L 798.723274 188.879652 
L 799.541753 189.644439 
L 800.155612 189.784953 
L 801.178711 189.878388 
L 801.79257 190.004474 
L 802.406429 189.885475 
L 803.020288 189.739724 
L 803.429528 189.900849 
L 804.043387 190.191199 
L 804.657246 190.233472 
L 805.066486 190.399018 
L 805.271105 190.352624 
L 805.680345 189.862354 
L 806.703443 188.351308 
L 806.908063 188.419297 
L 807.521922 189.000107 
L 807.931162 189.004206 
L 808.95426 188.669978 
L 810.181979 189.551083 
L 811.000458 189.540718 
L 811.409697 189.563717 
L 812.023556 189.548429 
L 812.432796 189.571329 
L 813.455894 189.16763 
L 813.865134 188.930115 
L 814.274373 189.200677 
L 814.683613 189.522241 
L 815.092852 189.459987 
L 815.502092 189.374648 
L 815.911331 189.627065 
L 816.72981 190.641164 
L 817.548289 190.922749 
L 817.957528 191.086546 
L 818.366768 190.728956 
L 818.776007 190.212814 
L 819.185247 190.030955 
L 819.799106 190.122275 
L 820.208345 189.742079 
L 820.617585 189.328163 
L 820.822204 189.272218 
L 821.231444 189.538919 
L 821.845303 190.091817 
L 822.254543 190.204572 
L 822.868402 190.104123 
L 824.30074 189.635685 
L 824.709979 189.698569 
L 825.119219 189.415796 
L 825.937698 188.37117 
L 826.142317 188.383416 
L 826.551557 188.900756 
L 827.370036 190.089542 
L 827.779275 190.278416 
L 828.188515 190.164081 
L 828.597754 189.75701 
L 830.030092 187.644023 
L 830.234712 187.690491 
L 830.643951 188.153739 
L 831.46243 189.515623 
L 832.076289 190.345263 
L 832.280909 190.462411 
L 832.485529 190.39687 
L 832.894768 189.714553 
L 833.508628 188.724915 
L 834.327106 188.05572 
L 834.736346 187.958863 
L 835.964064 188.241281 
L 836.577923 188.659358 
L 836.987163 188.731006 
L 837.396402 188.527543 
L 838.010262 187.694929 
L 838.419501 187.245623 
L 838.624121 187.23641 
L 839.03336 187.591888 
L 839.4426 188.048041 
L 839.647219 188.11511 
L 840.670318 187.74212 
L 841.079557 187.936603 
L 841.488797 188.552139 
L 841.898036 189.222622 
L 842.102656 189.320884 
L 842.921135 189.055084 
L 843.739614 189.17102 
L 844.148853 189.138887 
L 845.171952 189.617377 
L 845.785811 189.999115 
L 845.990431 189.988182 
L 846.39967 189.591692 
L 847.01353 188.974409 
L 847.832008 188.612188 
L 848.445868 188.275665 
L 848.855107 188.220565 
L 849.264347 188.461817 
L 850.082825 189.106823 
L 850.492065 189.097473 
L 851.105924 188.683907 
L 851.924403 188.068688 
L 852.129023 188.118911 
L 852.538262 188.577793 
L 853.152121 189.478321 
L 853.356741 189.537709 
L 853.561361 189.385497 
L 854.584459 187.699276 
L 854.993699 187.674256 
L 855.402938 187.999287 
L 856.016797 188.644172 
L 856.426037 188.845206 
L 857.039896 188.851493 
L 857.858375 188.637676 
L 859.290713 187.733992 
L 859.699953 187.889222 
L 860.723051 188.525073 
L 860.927671 188.513883 
L 861.33691 188.182137 
L 862.564629 186.643472 
L 863.178488 186.438437 
L 863.792347 186.269276 
L 864.406206 186.155012 
L 865.224685 185.591068 
L 865.633925 185.755937 
L 866.247784 186.218234 
L 866.452404 186.230114 
L 867.066263 185.777638 
L 868.293981 185.051491 
L 868.703221 185.533639 
L 869.11246 186.01882 
L 869.521699 186.081992 
L 870.749418 186.054512 
L 871.363277 186.554114 
L 871.977136 186.72172 
L 872.795615 187.450374 
L 873.000235 187.435525 
L 873.409474 186.918273 
L 873.818714 186.239116 
L 874.637193 185.565329 
L 875.455672 184.266179 
L 876.069531 183.798145 
L 876.47877 183.716394 
L 876.88801 183.909754 
L 877.706489 184.552915 
L 879.138827 184.997147 
L 879.548066 185.166858 
L 879.752686 185.279375 
L 879.957306 185.265012 
L 881.798883 183.970644 
L 882.208123 183.964521 
L 882.617362 183.533823 
L 883.231221 182.691207 
L 884.0497 182.495722 
L 884.663559 181.48379 
L 885.277418 180.66589 
L 885.482038 180.575173 
L 885.891278 180.762506 
L 886.505137 181.245893 
L 886.914376 181.062392 
L 887.528235 180.278494 
L 888.551334 178.078294 
L 888.755954 178.004382 
L 889.369813 178.120173 
L 890.188292 177.669488 
L 890.802151 177.52685 
L 891.41601 177.00218 
L 892.643729 175.522624 
L 893.257588 175.073514 
L 893.871447 174.871668 
L 894.280686 174.365792 
L 894.689926 173.538388 
L 895.303785 171.646644 
L 896.122264 168.999449 
L 897.349982 167.0309 
L 897.759222 166.696414 
L 898.373081 166.852971 
L 899.39618 167.145355 
L 899.805419 166.865571 
L 900.828518 165.184505 
L 901.237757 164.250885 
L 902.465475 160.44177 
L 902.670095 160.539333 
L 903.283954 161.375157 
L 903.488574 161.388775 
L 903.693194 161.208556 
L 904.102433 160.431191 
L 904.920912 158.57024 
L 905.330152 158.186164 
L 905.739391 157.959001 
L 905.944011 157.947563 
L 906.35325 158.25661 
L 906.76249 158.648521 
L 907.171729 158.727507 
L 907.580969 158.763673 
L 908.399448 159.297277 
L 909.217926 159.866135 
L 909.627166 159.715605 
L 910.241025 159.30074 
L 910.650265 158.70443 
L 911.468743 157.271731 
L 911.877983 156.966198 
L 912.082603 157.039621 
L 912.491842 157.604838 
L 913.105701 159.043615 
L 913.92418 161.41769 
L 914.1288 161.671262 
L 914.33342 161.664184 
L 914.538039 161.408365 
L 914.947279 160.300895 
L 915.970377 156.892646 
L 916.174997 156.620392 
L 916.379617 156.618747 
L 916.584237 156.897073 
L 917.402716 159.143549 
L 917.607335 159.148105 
L 917.811955 158.803323 
L 918.221194 157.469743 
L 918.630434 155.57415 
L 919.039673 152.670378 
L 919.448913 147.71174 
L 920.472011 131.059439 
L 920.676631 132.619894 
L 921.90435 155.989151 
L 922.313589 159.549128 
L 922.722828 161.638563 
L 923.132068 162.817061 
L 923.541307 163.452998 
L 923.950547 163.726994 
L 924.359786 163.629948 
L 924.769026 163.536354 
L 925.178265 163.8602 
L 925.996744 165.128278 
L 926.201364 165.213072 
L 926.610603 165.035827 
L 927.224462 164.619393 
L 927.429082 164.683543 
L 928.247561 165.559097 
L 928.452181 165.393756 
L 928.86142 164.525783 
L 929.475279 163.098845 
L 929.679899 162.932519 
L 929.884519 162.987485 
L 930.293758 163.518574 
L 931.316857 165.287172 
L 931.726096 165.58711 
L 932.339956 165.743824 
L 932.749195 165.493851 
L 933.158434 165.234109 
L 933.363054 165.34531 
L 934.181533 166.233186 
L 934.590773 166.159721 
L 935.000012 166.118091 
L 936.22773 166.767303 
L 936.84159 167.344251 
L 937.864688 167.741413 
L 938.683167 168.869397 
L 939.501646 169.604515 
L 939.910885 170.432923 
L 940.933984 172.941238 
L 941.343224 173.223255 
L 941.752463 173.161443 
L 942.570942 172.606938 
L 942.775562 172.64498 
L 943.184801 173.085829 
L 943.594041 173.573409 
L 944.412519 174.195687 
L 945.640238 175.639818 
L 946.663336 177.123092 
L 947.481815 177.79611 
L 948.095675 178.15485 
L 948.504914 178.223189 
L 948.914153 178.605971 
L 949.732632 179.886041 
L 950.141872 180.549647 
L 950.755731 181.014556 
L 951.16497 181.203822 
L 951.57421 181.036925 
L 951.77883 180.934267 
L 951.983449 180.990764 
L 952.392689 181.620631 
L 952.801928 182.249284 
L 953.006548 182.295333 
L 953.620407 181.879902 
L 953.825027 181.897462 
L 954.234266 182.264567 
L 954.643506 182.74659 
L 955.461985 183.07311 
L 955.871224 183.253849 
L 956.485083 183.729809 
L 956.689703 183.726371 
L 957.098943 183.337635 
L 957.917421 181.873498 
L 958.531281 181.635292 
L 959.14514 181.368245 
L 959.554379 181.498763 
L 960.577478 182.214813 
L 961.191337 182.910493 
L 962.009816 183.257567 
L 962.419055 183.861045 
L 963.442154 186.019608 
L 963.851394 186.427746 
L 964.465253 186.531989 
L 965.283732 186.732131 
L 965.692971 186.858319 
L 965.897591 186.789152 
L 966.51145 186.264209 
L 966.71607 186.361199 
L 967.125309 187.090345 
L 967.534549 187.790244 
L 969.171506 189.165689 
L 969.785366 189.789116 
L 970.194605 189.818726 
L 970.808464 189.691444 
L 971.217704 189.743522 
L 971.422323 189.666703 
L 971.831563 189.172955 
L 972.445422 188.326611 
L 972.854661 188.144746 
L 973.263901 188.262643 
L 973.67314 188.503643 
L 974.287 188.465143 
L 974.696239 188.569273 
L 975.105478 189.102675 
L 975.719338 190.052942 
L 976.128577 190.231103 
L 976.333197 190.136328 
L 976.742436 189.583401 
L 977.356295 188.6238 
L 977.970155 188.350207 
L 978.584014 188.353335 
L 979.197873 188.515535 
L 980.425591 189.195953 
L 982.062549 189.580196 
L 982.881028 189.43033 
L 983.290268 189.688231 
L 984.927225 190.98581 
L 985.131845 190.893043 
L 985.950324 189.926403 
L 986.154944 189.954128 
L 986.973423 190.462868 
L 987.382662 190.093752 
L 987.791902 189.720497 
L 988.61038 189.888816 
L 989.838099 189.011549 
L 990.656578 189.072603 
L 991.679676 189.448892 
L 992.088916 189.945011 
L 993.112014 191.429469 
L 993.316634 191.35378 
L 993.930493 190.533169 
L 994.339733 190.050565 
L 994.748972 189.934445 
L 995.362831 190.262039 
L 995.976691 190.51781 
L 996.79517 190.620232 
L 997.204409 190.333937 
L 997.818268 189.671216 
L 998.841367 188.93411 
L 999.250606 188.556304 
L 999.659846 188.448339 
L 1000.682944 188.462081 
L 1001.092184 188.88477 
L 1002.115282 190.508087 
L 1002.524522 190.541624 
L 1002.933761 190.216509 
L 1003.343001 189.564439 
L 1004.366099 187.390674 
L 1004.570719 187.219533 
L 1004.775339 187.203448 
L 1005.184578 187.578769 
L 1006.412297 189.067063 
L 1007.435395 189.720572 
L 1007.844635 189.419634 
L 1008.458494 188.838211 
L 1008.867733 188.772922 
L 1009.276973 189.095159 
L 1009.686212 189.454617 
L 1010.095452 189.522008 
L 1010.504691 189.240755 
L 1011.11855 188.676912 
L 1011.52779 188.649176 
L 1012.141649 189.113637 
L 1012.755508 189.450699 
L 1013.164748 189.610527 
L 1013.778607 189.491276 
L 1014.597086 189.267069 
L 1015.620184 189.340454 
L 1016.438663 188.694214 
L 1016.847903 189.127741 
L 1017.257142 189.525399 
L 1017.461762 189.522189 
L 1017.871001 189.163231 
L 1018.484861 188.552767 
L 1018.8941 188.403249 
L 1019.507959 188.287472 
L 1019.917199 188.214416 
L 1020.326438 188.404042 
L 1021.963396 189.957004 
L 1022.372635 190.041116 
L 1023.191114 189.856742 
L 1023.600354 190.184282 
L 1024.009593 190.521948 
L 1024.214213 190.448401 
L 1025.032692 189.495428 
L 1025.441931 189.618252 
L 1027.078889 190.594821 
L 1027.488129 190.247893 
L 1028.101988 189.656948 
L 1028.511227 189.622255 
L 1029.329706 190.104588 
L 1031.375903 189.873925 
L 1031.989763 189.52502 
L 1032.808241 189.389027 
L 1033.422101 189.001459 
L 1033.83134 189.2203 
L 1035.263678 190.330363 
L 1035.672918 190.200937 
L 1036.286777 189.696888 
L 1036.696016 189.174642 
L 1037.719115 187.462392 
L 1037.923735 187.366113 
L 1038.128354 187.451174 
L 1039.356073 188.602726 
L 1041.19765 189.916697 
L 1041.811509 190.006807 
L 1042.629988 189.946149 
L 1043.448467 189.8178 
L 1044.062326 190.091224 
L 1044.471566 189.962942 
L 1044.880805 189.813925 
L 1045.494664 189.731221 
L 1046.722383 189.307835 
L 1047.336242 189.523705 
L 1047.745481 189.727867 
L 1047.950101 189.696422 
L 1048.154721 189.513074 
L 1048.9732 188.150404 
L 1049.17782 188.149637 
L 1049.587059 188.697961 
L 1050.200918 189.676946 
L 1050.405538 189.724724 
L 1052.247115 188.821342 
L 1052.656355 189.112116 
L 1054.088693 190.827234 
L 1054.497932 190.932789 
L 1054.907172 190.711407 
L 1055.930271 189.913457 
L 1056.54413 190.075403 
L 1057.567228 189.614765 
L 1058.181088 189.389257 
L 1058.794947 189.497882 
L 1059.204186 189.526317 
L 1059.818045 189.508848 
L 1060.227285 189.738425 
L 1060.636524 190.260562 
L 1061.045764 190.864449 
L 1061.250383 190.96921 
L 1061.455003 190.853531 
L 1062.273482 189.899882 
L 1062.682722 189.82899 
L 1063.091961 190.145468 
L 1063.5012 190.525678 
L 1063.70582 190.573149 
L 1064.11506 190.326484 
L 1064.728919 189.733232 
L 1064.933539 189.690982 
L 1065.342778 189.948593 
L 1065.752017 190.251413 
L 1066.161257 190.26161 
L 1068.002834 189.103395 
L 1068.412074 188.759289 
L 1068.616694 188.722674 
L 1068.821313 188.818809 
L 1069.230553 189.38241 
L 1069.639792 189.965276 
L 1070.049032 190.114398 
L 1070.458271 190.031571 
L 1070.867511 189.702938 
L 1071.48137 189.061706 
L 1071.68599 189.06802 
L 1072.504468 189.478124 
L 1073.118328 189.578442 
L 1073.527567 189.607691 
L 1074.141426 189.314471 
L 1075.369145 188.513627 
L 1075.778384 188.711984 
L 1076.187624 188.906592 
L 1076.801483 188.601807 
L 1077.415342 188.985914 
L 1078.438441 188.476263 
L 1078.84768 188.681939 
L 1079.461539 189.373624 
L 1079.870779 189.834435 
L 1080.280018 189.89427 
L 1080.893877 189.615713 
L 1081.916976 188.962334 
L 1082.735455 188.624455 
L 1083.144694 188.522759 
L 1083.758553 188.540778 
L 1084.577032 188.366107 
L 1085.395511 188.485919 
L 1086.41861 188.315008 
L 1086.827849 188.536286 
L 1087.646328 189.203883 
L 1088.464807 189.514251 
L 1088.874047 189.632913 
L 1089.283286 189.471792 
L 1089.897145 189.134674 
L 1090.306385 189.247631 
L 1091.738723 190.461856 
L 1092.352582 190.738411 
L 1092.761821 190.815913 
L 1093.171061 190.410673 
L 1093.78492 189.200574 
L 1094.398779 188.01741 
L 1094.808019 187.768894 
L 1095.217258 187.984072 
L 1095.626498 188.57302 
L 1096.854216 190.760892 
L 1097.263455 191.110691 
L 1097.672695 190.950969 
L 1098.491174 190.582475 
L 1099.309653 190.474773 
L 1099.923512 189.641973 
L 1100.537371 188.827721 
L 1100.94661 188.61744 
L 1101.56047 188.569759 
L 1101.969709 188.844451 
L 1103.197427 190.619297 
L 1103.606667 190.622878 
L 1104.629766 190.313234 
L 1105.448244 190.52602 
L 1106.266723 189.889108 
L 1106.880583 190.135045 
L 1107.289822 189.912055 
L 1107.699061 189.644597 
L 1108.108301 189.566638 
L 1108.51754 189.736175 
L 1109.336019 190.280765 
L 1109.745259 190.327707 
L 1110.154498 190.6626 
L 1110.768357 191.443424 
L 1111.177597 191.504812 
L 1111.586836 191.480682 
L 1111.996076 191.147055 
L 1112.405315 190.622157 
L 1112.609935 190.502326 
L 1112.814555 190.519396 
L 1113.223794 190.856022 
L 1113.633034 191.229496 
L 1114.042273 191.331527 
L 1114.656132 191.201326 
L 1115.065372 190.819357 
L 1115.679231 190.112121 
L 1116.29309 189.927834 
L 1116.906949 189.91837 
L 1117.520808 190.349584 
L 1117.930048 190.547312 
L 1118.339287 190.342647 
L 1119.976245 188.48879 
L 1120.180865 188.47121 
L 1121.203963 189.195357 
L 1121.817823 189.071623 
L 1122.431682 188.854768 
L 1123.250161 187.873471 
L 1123.6594 187.865462 
L 1124.06864 188.16263 
L 1124.477879 188.422191 
L 1125.296358 188.303314 
L 1125.705597 188.725762 
L 1126.524076 190.113592 
L 1126.728696 190.120095 
L 1127.137935 189.581007 
L 1127.751795 188.601823 
L 1128.161034 188.312012 
L 1128.365654 188.346066 
L 1129.184133 188.845565 
L 1130.002612 188.983255 
L 1130.616471 188.805504 
L 1131.02571 188.992371 
L 1132.048809 189.779454 
L 1132.662668 190.032129 
L 1133.685767 190.185449 
L 1134.504246 190.769399 
L 1135.731964 190.904741 
L 1136.755063 191.850632 
L 1137.164302 191.485784 
L 1137.778161 190.854736 
L 1138.39202 190.365461 
L 1138.80126 190.143323 
L 1139.210499 190.324183 
L 1139.824359 190.687696 
L 1140.028978 190.63583 
L 1140.233598 190.38996 
L 1140.847457 188.898177 
L 1141.461316 187.640146 
L 1141.870556 187.174853 
L 1142.279795 187.021256 
L 1143.098274 187.269896 
L 1143.507514 187.608483 
L 1143.916753 188.153618 
L 1144.735232 189.486208 
L 1145.144471 189.828681 
L 1145.349091 189.836086 
L 1145.758331 189.510571 
L 1146.16757 189.128154 
L 1146.57681 189.110596 
L 1147.395288 189.334569 
L 1148.213767 190.279766 
L 1148.623007 190.212951 
L 1149.646105 189.70216 
L 1150.464584 189.388326 
L 1151.078444 189.730983 
L 1151.692303 190.050352 
L 1152.101542 190.008192 
L 1152.510782 189.736004 
L 1152.920021 189.202229 
L 1153.53388 188.169404 
L 1153.7385 188.007724 
L 1153.94312 187.991928 
L 1154.352359 188.332632 
L 1155.170838 189.370734 
L 1155.784697 189.701741 
L 1157.012416 190.123497 
L 1157.421655 190.054776 
L 1157.830895 190.118064 
L 1158.035514 189.977564 
L 1158.853993 188.845439 
L 1159.263233 188.740997 
L 1159.672472 188.669936 
L 1160.286331 188.466241 
L 1161.10481 188.950188 
L 1161.51405 188.700101 
L 1161.923289 188.395597 
L 1162.332528 188.447755 
L 1163.355627 188.872935 
L 1163.764867 188.711803 
L 1164.787965 187.763471 
L 1164.992585 187.782209 
L 1165.197205 187.946691 
L 1165.606444 188.709308 
L 1166.015684 189.555214 
L 1166.424923 189.870716 
L 1166.834162 189.750262 
L 1167.243402 189.568888 
L 1167.652641 189.74374 
L 1168.061881 189.901658 
L 1168.88036 189.640802 
L 1169.494219 190.1641 
L 1170.108078 190.525459 
L 1170.926557 191.020781 
L 1171.131177 190.903704 
L 1171.540416 190.113615 
L 1171.949656 189.289208 
L 1172.154275 189.156254 
L 1172.768135 189.27578 
L 1172.972754 189.133828 
L 1173.381994 188.440353 
L 1173.995853 187.315965 
L 1174.200473 187.20515 
L 1174.405092 187.302465 
L 1174.609712 187.613124 
L 1175.018952 188.841002 
L 1175.632811 190.832004 
L 1176.04205 191.380765 
L 1176.45129 191.398347 
L 1176.860529 191.33065 
L 1177.474388 191.350187 
L 1178.088247 191.207216 
L 1179.111346 191.226505 
L 1179.725205 190.888934 
L 1180.543684 190.364853 
L 1181.157543 190.106639 
L 1182.180642 189.11784 
L 1182.589881 189.37032 
L 1183.61298 190.525963 
L 1184.02222 190.547285 
L 1184.840698 190.062478 
L 1184.840698 190.062478 
" clip-path="url(#p9a2e878dd2)" style="fill: none; stroke: #000000; stroke-width: 2; stroke-linecap: square"/>
   </g>
   <g id="patch_3">
    <path d="M 3.00024 198.907885 
L 1184.99976 198.907885 
" style="fill: none; stroke: #000000; stroke-width: 2; stroke-linejoin: miter; stroke-linecap: square"/>
   </g>
  </g>
 </g>
 <defs>
  <clipPath id="p9a2e878dd2">
   <rect x="3.00024" y="3.00024" width="1181.99952" height="195.907645"/>
  </clipPath>
 </defs>
</svg>
