<?xml version="1.0" encoding="utf-8" standalone="no"?>
<!DOCTYPE svg PUBLIC "-//W3C//DTD SVG 1.1//EN"
  "http://www.w3.org/Graphics/SVG/1.1/DTD/svg11.dtd">
<svg xmlns:xlink="http://www.w3.org/1999/xlink" width="1188pt" height="252pt" viewBox="0 0 1188 252" xmlns="http://www.w3.org/2000/svg" version="1.1">
 <metadata>
  <rdf:RDF xmlns:dc="http://purl.org/dc/elements/1.1/" xmlns:cc="http://creativecommons.org/ns#" xmlns:rdf="http://www.w3.org/1999/02/22-rdf-syntax-ns#">
   <cc:Work>
    <dc:type rdf:resource="http://purl.org/dc/dcmitype/StillImage"/>
    <dc:date>2024-05-13T16:41:56.371852</dc:date>
    <dc:format>image/svg+xml</dc:format>
    <dc:creator>
     <cc:Agent>
      <dc:title>Matplotlib v3.8.0, https://matplotlib.org/</dc:title>
     </cc:Agent>
    </dc:creator>
   </cc:Work>
  </rdf:RDF>
 </metadata>
 <defs>
  <style type="text/css">*{stroke-linejoin: round; stroke-linecap: butt}</style>
 </defs>
 <g id="figure_1">
  <g id="patch_1">
   <path d="M 0 252 
L 1188 252 
L 1188 0 
L 0 0 
z
" style="fill: #ffffff"/>
  </g>
  <g id="axes_1">
   <g id="patch_2">
    <path d="M 3.00024 198.907885 
L 1184.99976 198.907885 
L 1184.99976 3.00024 
L 3.00024 3.00024 
z
" style="fill: #ffffff"/>
   </g>
   <g id="matplotlib.axis_1">
    <g id="xtick_1">
     <g id="line2d_1">
      <defs>
       <path id="m1f0ea1ec00" d="M 0 0 
L 0 8 
" style="stroke: #000000; stroke-width: 2"/>
      </defs>
      <g>
       <use xlink:href="#m1f0ea1ec00" x="1131.272509" y="198.907885" style="stroke: #000000; stroke-width: 2"/>
      </g>
     </g>
     <g id="text_1">
      <!-- 0 -->
      <g transform="translate(1126.267665 224.791947) scale(0.18 -0.18)">
       <defs>
        <path id="Arial-BoldMT-30" d="M 1756 4600 
Q 2422 4600 2797 4125 
Q 3244 3563 3244 2259 
Q 3244 959 2794 391 
Q 2422 -78 1756 -78 
Q 1088 -78 678 436 
Q 269 950 269 2269 
Q 269 3563 719 4131 
Q 1091 4600 1756 4600 
z
M 1756 3872 
Q 1597 3872 1472 3770 
Q 1347 3669 1278 3406 
Q 1188 3066 1188 2259 
Q 1188 1453 1269 1151 
Q 1350 850 1473 750 
Q 1597 650 1756 650 
Q 1916 650 2041 751 
Q 2166 853 2234 1116 
Q 2325 1453 2325 2259 
Q 2325 3066 2244 3367 
Q 2163 3669 2039 3770 
Q 1916 3872 1756 3872 
z
" transform="scale(0.015625)"/>
       </defs>
       <use xlink:href="#Arial-BoldMT-30"/>
      </g>
     </g>
    </g>
    <g id="xtick_2">
     <g id="line2d_2">
      <g>
       <use xlink:href="#m1f0ea1ec00" x="1023.818007" y="198.907885" style="stroke: #000000; stroke-width: 2"/>
      </g>
     </g>
     <g id="text_2">
      <!-- 1 -->
      <g transform="translate(1018.813164 224.791947) scale(0.18 -0.18)">
       <defs>
        <path id="Arial-BoldMT-31" d="M 2519 0 
L 1641 0 
L 1641 3309 
Q 1159 2859 506 2644 
L 506 3441 
Q 850 3553 1253 3867 
Q 1656 4181 1806 4600 
L 2519 4600 
L 2519 0 
z
" transform="scale(0.015625)"/>
       </defs>
       <use xlink:href="#Arial-BoldMT-31"/>
      </g>
     </g>
    </g>
    <g id="xtick_3">
     <g id="line2d_3">
      <g>
       <use xlink:href="#m1f0ea1ec00" x="916.363505" y="198.907885" style="stroke: #000000; stroke-width: 2"/>
      </g>
     </g>
     <g id="text_3">
      <!-- 2 -->
      <g transform="translate(911.358662 224.791947) scale(0.18 -0.18)">
       <defs>
        <path id="Arial-BoldMT-32" d="M 3238 816 
L 3238 0 
L 159 0 
Q 209 463 459 877 
Q 709 1291 1447 1975 
Q 2041 2528 2175 2725 
Q 2356 2997 2356 3263 
Q 2356 3556 2198 3714 
Q 2041 3872 1763 3872 
Q 1488 3872 1325 3706 
Q 1163 3541 1138 3156 
L 263 3244 
Q 341 3969 753 4284 
Q 1166 4600 1784 4600 
Q 2463 4600 2850 4234 
Q 3238 3869 3238 3325 
Q 3238 3016 3127 2736 
Q 3016 2456 2775 2150 
Q 2616 1947 2200 1565 
Q 1784 1184 1673 1059 
Q 1563 934 1494 816 
L 3238 816 
z
" transform="scale(0.015625)"/>
       </defs>
       <use xlink:href="#Arial-BoldMT-32"/>
      </g>
     </g>
    </g>
    <g id="xtick_4">
     <g id="line2d_4">
      <g>
       <use xlink:href="#m1f0ea1ec00" x="808.909004" y="198.907885" style="stroke: #000000; stroke-width: 2"/>
      </g>
     </g>
     <g id="text_4">
      <!-- 3 -->
      <g transform="translate(803.90416 224.791947) scale(0.18 -0.18)">
       <defs>
        <path id="Arial-BoldMT-33" d="M 241 1216 
L 1091 1319 
Q 1131 994 1309 822 
Q 1488 650 1741 650 
Q 2013 650 2198 856 
Q 2384 1063 2384 1413 
Q 2384 1744 2206 1937 
Q 2028 2131 1772 2131 
Q 1603 2131 1369 2066 
L 1466 2781 
Q 1822 2772 2009 2936 
Q 2197 3100 2197 3372 
Q 2197 3603 2059 3740 
Q 1922 3878 1694 3878 
Q 1469 3878 1309 3722 
Q 1150 3566 1116 3266 
L 306 3403 
Q 391 3819 561 4067 
Q 731 4316 1036 4458 
Q 1341 4600 1719 4600 
Q 2366 4600 2756 4188 
Q 3078 3850 3078 3425 
Q 3078 2822 2419 2463 
Q 2813 2378 3048 2084 
Q 3284 1791 3284 1375 
Q 3284 772 2843 347 
Q 2403 -78 1747 -78 
Q 1125 -78 715 280 
Q 306 638 241 1216 
z
" transform="scale(0.015625)"/>
       </defs>
       <use xlink:href="#Arial-BoldMT-33"/>
      </g>
     </g>
    </g>
    <g id="xtick_5">
     <g id="line2d_5">
      <g>
       <use xlink:href="#m1f0ea1ec00" x="701.454502" y="198.907885" style="stroke: #000000; stroke-width: 2"/>
      </g>
     </g>
     <g id="text_5">
      <!-- 4 -->
      <g transform="translate(696.449658 224.791947) scale(0.18 -0.18)">
       <defs>
        <path id="Arial-BoldMT-34" d="M 1994 0 
L 1994 922 
L 119 922 
L 119 1691 
L 2106 4600 
L 2844 4600 
L 2844 1694 
L 3413 1694 
L 3413 922 
L 2844 922 
L 2844 0 
L 1994 0 
z
M 1994 1694 
L 1994 3259 
L 941 1694 
L 1994 1694 
z
" transform="scale(0.015625)"/>
       </defs>
       <use xlink:href="#Arial-BoldMT-34"/>
      </g>
     </g>
    </g>
    <g id="xtick_6">
     <g id="line2d_6">
      <g>
       <use xlink:href="#m1f0ea1ec00" x="594" y="198.907885" style="stroke: #000000; stroke-width: 2"/>
      </g>
     </g>
     <g id="text_6">
      <!-- 5 -->
      <g transform="translate(588.995156 224.791947) scale(0.18 -0.18)">
       <defs>
        <path id="Arial-BoldMT-35" d="M 284 1178 
L 1159 1269 
Q 1197 972 1381 798 
Q 1566 625 1806 625 
Q 2081 625 2272 848 
Q 2463 1072 2463 1522 
Q 2463 1944 2273 2155 
Q 2084 2366 1781 2366 
Q 1403 2366 1103 2031 
L 391 2134 
L 841 4519 
L 3163 4519 
L 3163 3697 
L 1506 3697 
L 1369 2919 
Q 1663 3066 1969 3066 
Q 2553 3066 2959 2641 
Q 3366 2216 3366 1538 
Q 3366 972 3038 528 
Q 2591 -78 1797 -78 
Q 1163 -78 763 262 
Q 363 603 284 1178 
z
" transform="scale(0.015625)"/>
       </defs>
       <use xlink:href="#Arial-BoldMT-35"/>
      </g>
     </g>
    </g>
    <g id="xtick_7">
     <g id="line2d_7">
      <g>
       <use xlink:href="#m1f0ea1ec00" x="486.545498" y="198.907885" style="stroke: #000000; stroke-width: 2"/>
      </g>
     </g>
     <g id="text_7">
      <!-- 6 -->
      <g transform="translate(481.540654 224.791947) scale(0.18 -0.18)">
       <defs>
        <path id="Arial-BoldMT-36" d="M 3247 3459 
L 2397 3366 
Q 2366 3628 2234 3753 
Q 2103 3878 1894 3878 
Q 1616 3878 1423 3628 
Q 1231 3378 1181 2588 
Q 1509 2975 1997 2975 
Q 2547 2975 2939 2556 
Q 3331 2138 3331 1475 
Q 3331 772 2918 347 
Q 2506 -78 1859 -78 
Q 1166 -78 719 461 
Q 272 1000 272 2228 
Q 272 3488 737 4044 
Q 1203 4600 1947 4600 
Q 2469 4600 2811 4308 
Q 3153 4016 3247 3459 
z
M 1256 1544 
Q 1256 1116 1453 883 
Q 1650 650 1903 650 
Q 2147 650 2309 840 
Q 2472 1031 2472 1466 
Q 2472 1913 2297 2120 
Q 2122 2328 1859 2328 
Q 1606 2328 1431 2129 
Q 1256 1931 1256 1544 
z
" transform="scale(0.015625)"/>
       </defs>
       <use xlink:href="#Arial-BoldMT-36"/>
      </g>
     </g>
    </g>
    <g id="xtick_8">
     <g id="line2d_8">
      <g>
       <use xlink:href="#m1f0ea1ec00" x="379.090996" y="198.907885" style="stroke: #000000; stroke-width: 2"/>
      </g>
     </g>
     <g id="text_8">
      <!-- 7 -->
      <g transform="translate(374.086153 224.791947) scale(0.18 -0.18)">
       <defs>
        <path id="Arial-BoldMT-37" d="M 272 3703 
L 272 4519 
L 3275 4519 
L 3275 3881 
Q 2903 3516 2518 2831 
Q 2134 2147 1932 1376 
Q 1731 606 1734 0 
L 888 0 
Q 909 950 1279 1937 
Q 1650 2925 2269 3703 
L 272 3703 
z
" transform="scale(0.015625)"/>
       </defs>
       <use xlink:href="#Arial-BoldMT-37"/>
      </g>
     </g>
    </g>
    <g id="xtick_9">
     <g id="line2d_9">
      <g>
       <use xlink:href="#m1f0ea1ec00" x="271.636495" y="198.907885" style="stroke: #000000; stroke-width: 2"/>
      </g>
     </g>
     <g id="text_9">
      <!-- 8 -->
      <g transform="translate(266.631651 224.791947) scale(0.18 -0.18)">
       <defs>
        <path id="Arial-BoldMT-38" d="M 1025 2472 
Q 684 2616 529 2867 
Q 375 3119 375 3419 
Q 375 3931 733 4265 
Q 1091 4600 1750 4600 
Q 2403 4600 2764 4265 
Q 3125 3931 3125 3419 
Q 3125 3100 2959 2851 
Q 2794 2603 2494 2472 
Q 2875 2319 3073 2025 
Q 3272 1731 3272 1347 
Q 3272 713 2867 316 
Q 2463 -81 1791 -81 
Q 1166 -81 750 247 
Q 259 634 259 1309 
Q 259 1681 443 1992 
Q 628 2303 1025 2472 
z
M 1206 3356 
Q 1206 3094 1354 2947 
Q 1503 2800 1750 2800 
Q 2000 2800 2150 2948 
Q 2300 3097 2300 3359 
Q 2300 3606 2151 3754 
Q 2003 3903 1759 3903 
Q 1506 3903 1356 3753 
Q 1206 3603 1206 3356 
z
M 1125 1394 
Q 1125 1031 1311 828 
Q 1497 625 1775 625 
Q 2047 625 2225 820 
Q 2403 1016 2403 1384 
Q 2403 1706 2222 1901 
Q 2041 2097 1763 2097 
Q 1441 2097 1283 1875 
Q 1125 1653 1125 1394 
z
" transform="scale(0.015625)"/>
       </defs>
       <use xlink:href="#Arial-BoldMT-38"/>
      </g>
     </g>
    </g>
    <g id="xtick_10">
     <g id="line2d_10">
      <g>
       <use xlink:href="#m1f0ea1ec00" x="164.181993" y="198.907885" style="stroke: #000000; stroke-width: 2"/>
      </g>
     </g>
     <g id="text_10">
      <!-- 9 -->
      <g transform="translate(159.177149 224.791947) scale(0.18 -0.18)">
       <defs>
        <path id="Arial-BoldMT-39" d="M 291 1059 
L 1141 1153 
Q 1172 894 1303 769 
Q 1434 644 1650 644 
Q 1922 644 2112 894 
Q 2303 1144 2356 1931 
Q 2025 1547 1528 1547 
Q 988 1547 595 1964 
Q 203 2381 203 3050 
Q 203 3747 617 4173 
Q 1031 4600 1672 4600 
Q 2369 4600 2816 4061 
Q 3263 3522 3263 2288 
Q 3263 1031 2797 475 
Q 2331 -81 1584 -81 
Q 1047 -81 715 205 
Q 384 491 291 1059 
z
M 2278 2978 
Q 2278 3403 2083 3637 
Q 1888 3872 1631 3872 
Q 1388 3872 1227 3680 
Q 1066 3488 1066 3050 
Q 1066 2606 1241 2398 
Q 1416 2191 1678 2191 
Q 1931 2191 2104 2391 
Q 2278 2591 2278 2978 
z
" transform="scale(0.015625)"/>
       </defs>
       <use xlink:href="#Arial-BoldMT-39"/>
      </g>
     </g>
    </g>
    <g id="xtick_11">
     <g id="line2d_11">
      <g>
       <use xlink:href="#m1f0ea1ec00" x="56.727491" y="198.907885" style="stroke: #000000; stroke-width: 2"/>
      </g>
     </g>
     <g id="text_11">
      <!-- 10 -->
      <g transform="translate(46.717803 224.791947) scale(0.18 -0.18)">
       <use xlink:href="#Arial-BoldMT-31"/>
       <use xlink:href="#Arial-BoldMT-30" x="55.615234"/>
      </g>
     </g>
    </g>
    <g id="text_12">
     <!-- Chemical Shift / ppm -->
     <g transform="translate(504.992813 245.447573) scale(0.18 -0.18)">
      <defs>
       <path id="Arial-BoldMT-43" d="M 3397 1684 
L 4294 1400 
Q 4088 650 3608 286 
Q 3128 -78 2391 -78 
Q 1478 -78 890 545 
Q 303 1169 303 2250 
Q 303 3394 893 4026 
Q 1484 4659 2447 4659 
Q 3288 4659 3813 4163 
Q 4125 3869 4281 3319 
L 3366 3100 
Q 3284 3456 3026 3662 
Q 2769 3869 2400 3869 
Q 1891 3869 1573 3503 
Q 1256 3138 1256 2319 
Q 1256 1450 1568 1081 
Q 1881 713 2381 713 
Q 2750 713 3015 947 
Q 3281 1181 3397 1684 
z
" transform="scale(0.015625)"/>
       <path id="Arial-BoldMT-68" d="M 1334 4581 
L 1334 2897 
Q 1759 3394 2350 3394 
Q 2653 3394 2897 3281 
Q 3141 3169 3264 2994 
Q 3388 2819 3433 2606 
Q 3478 2394 3478 1947 
L 3478 0 
L 2600 0 
L 2600 1753 
Q 2600 2275 2550 2415 
Q 2500 2556 2373 2639 
Q 2247 2722 2056 2722 
Q 1838 2722 1666 2615 
Q 1494 2509 1414 2295 
Q 1334 2081 1334 1663 
L 1334 0 
L 456 0 
L 456 4581 
L 1334 4581 
z
" transform="scale(0.015625)"/>
       <path id="Arial-BoldMT-65" d="M 2381 1056 
L 3256 909 
Q 3088 428 2723 176 
Q 2359 -75 1813 -75 
Q 947 -75 531 491 
Q 203 944 203 1634 
Q 203 2459 634 2926 
Q 1066 3394 1725 3394 
Q 2466 3394 2894 2905 
Q 3322 2416 3303 1406 
L 1103 1406 
Q 1113 1016 1316 798 
Q 1519 581 1822 581 
Q 2028 581 2168 693 
Q 2309 806 2381 1056 
z
M 2431 1944 
Q 2422 2325 2234 2523 
Q 2047 2722 1778 2722 
Q 1491 2722 1303 2513 
Q 1116 2303 1119 1944 
L 2431 1944 
z
" transform="scale(0.015625)"/>
       <path id="Arial-BoldMT-6d" d="M 394 3319 
L 1203 3319 
L 1203 2866 
Q 1638 3394 2238 3394 
Q 2556 3394 2790 3262 
Q 3025 3131 3175 2866 
Q 3394 3131 3647 3262 
Q 3900 3394 4188 3394 
Q 4553 3394 4806 3245 
Q 5059 3097 5184 2809 
Q 5275 2597 5275 2122 
L 5275 0 
L 4397 0 
L 4397 1897 
Q 4397 2391 4306 2534 
Q 4184 2722 3931 2722 
Q 3747 2722 3584 2609 
Q 3422 2497 3350 2280 
Q 3278 2063 3278 1594 
L 3278 0 
L 2400 0 
L 2400 1819 
Q 2400 2303 2353 2443 
Q 2306 2584 2207 2653 
Q 2109 2722 1941 2722 
Q 1738 2722 1575 2612 
Q 1413 2503 1342 2297 
Q 1272 2091 1272 1613 
L 1272 0 
L 394 0 
L 394 3319 
z
" transform="scale(0.015625)"/>
       <path id="Arial-BoldMT-69" d="M 459 3769 
L 459 4581 
L 1338 4581 
L 1338 3769 
L 459 3769 
z
M 459 0 
L 459 3319 
L 1338 3319 
L 1338 0 
L 459 0 
z
" transform="scale(0.015625)"/>
       <path id="Arial-BoldMT-63" d="M 3353 2338 
L 2488 2181 
Q 2444 2441 2289 2572 
Q 2134 2703 1888 2703 
Q 1559 2703 1364 2476 
Q 1169 2250 1169 1719 
Q 1169 1128 1367 884 
Q 1566 641 1900 641 
Q 2150 641 2309 783 
Q 2469 925 2534 1272 
L 3397 1125 
Q 3263 531 2881 228 
Q 2500 -75 1859 -75 
Q 1131 -75 698 384 
Q 266 844 266 1656 
Q 266 2478 700 2936 
Q 1134 3394 1875 3394 
Q 2481 3394 2839 3133 
Q 3197 2872 3353 2338 
z
" transform="scale(0.015625)"/>
       <path id="Arial-BoldMT-61" d="M 1116 2306 
L 319 2450 
Q 453 2931 781 3162 
Q 1109 3394 1756 3394 
Q 2344 3394 2631 3255 
Q 2919 3116 3036 2902 
Q 3153 2688 3153 2116 
L 3144 1091 
Q 3144 653 3186 445 
Q 3228 238 3344 0 
L 2475 0 
Q 2441 88 2391 259 
Q 2369 338 2359 363 
Q 2134 144 1878 34 
Q 1622 -75 1331 -75 
Q 819 -75 523 203 
Q 228 481 228 906 
Q 228 1188 362 1408 
Q 497 1628 739 1745 
Q 981 1863 1438 1950 
Q 2053 2066 2291 2166 
L 2291 2253 
Q 2291 2506 2166 2614 
Q 2041 2722 1694 2722 
Q 1459 2722 1328 2630 
Q 1197 2538 1116 2306 
z
M 2291 1594 
Q 2122 1538 1756 1459 
Q 1391 1381 1278 1306 
Q 1106 1184 1106 997 
Q 1106 813 1243 678 
Q 1381 544 1594 544 
Q 1831 544 2047 700 
Q 2206 819 2256 991 
Q 2291 1103 2291 1419 
L 2291 1594 
z
" transform="scale(0.015625)"/>
       <path id="Arial-BoldMT-6c" d="M 459 0 
L 459 4581 
L 1338 4581 
L 1338 0 
L 459 0 
z
" transform="scale(0.015625)"/>
       <path id="Arial-BoldMT-20" transform="scale(0.015625)"/>
       <path id="Arial-BoldMT-53" d="M 231 1491 
L 1131 1578 
Q 1213 1125 1461 912 
Q 1709 700 2131 700 
Q 2578 700 2804 889 
Q 3031 1078 3031 1331 
Q 3031 1494 2936 1608 
Q 2841 1722 2603 1806 
Q 2441 1863 1863 2006 
Q 1119 2191 819 2459 
Q 397 2838 397 3381 
Q 397 3731 595 4036 
Q 794 4341 1167 4500 
Q 1541 4659 2069 4659 
Q 2931 4659 3367 4281 
Q 3803 3903 3825 3272 
L 2900 3231 
Q 2841 3584 2645 3739 
Q 2450 3894 2059 3894 
Q 1656 3894 1428 3728 
Q 1281 3622 1281 3444 
Q 1281 3281 1419 3166 
Q 1594 3019 2269 2859 
Q 2944 2700 3267 2529 
Q 3591 2359 3773 2064 
Q 3956 1769 3956 1334 
Q 3956 941 3737 597 
Q 3519 253 3119 86 
Q 2719 -81 2122 -81 
Q 1253 -81 787 320 
Q 322 722 231 1491 
z
" transform="scale(0.015625)"/>
       <path id="Arial-BoldMT-66" d="M 75 3319 
L 563 3319 
L 563 3569 
Q 563 3988 652 4194 
Q 741 4400 980 4529 
Q 1219 4659 1584 4659 
Q 1959 4659 2319 4547 
L 2200 3934 
Q 1991 3984 1797 3984 
Q 1606 3984 1523 3895 
Q 1441 3806 1441 3553 
L 1441 3319 
L 2097 3319 
L 2097 2628 
L 1441 2628 
L 1441 0 
L 563 0 
L 563 2628 
L 75 2628 
L 75 3319 
z
" transform="scale(0.015625)"/>
       <path id="Arial-BoldMT-74" d="M 1981 3319 
L 1981 2619 
L 1381 2619 
L 1381 1281 
Q 1381 875 1398 808 
Q 1416 741 1477 697 
Q 1538 653 1625 653 
Q 1747 653 1978 738 
L 2053 56 
Q 1747 -75 1359 -75 
Q 1122 -75 931 4 
Q 741 84 652 211 
Q 563 338 528 553 
Q 500 706 500 1172 
L 500 2619 
L 97 2619 
L 97 3319 
L 500 3319 
L 500 3978 
L 1381 4491 
L 1381 3319 
L 1981 3319 
z
" transform="scale(0.015625)"/>
       <path id="Arial-BoldMT-2f" d="M -9 -78 
L 1125 4659 
L 1784 4659 
L 638 -78 
L -9 -78 
z
" transform="scale(0.015625)"/>
       <path id="Arial-BoldMT-70" d="M 434 3319 
L 1253 3319 
L 1253 2831 
Q 1413 3081 1684 3237 
Q 1956 3394 2288 3394 
Q 2866 3394 3269 2941 
Q 3672 2488 3672 1678 
Q 3672 847 3265 386 
Q 2859 -75 2281 -75 
Q 2006 -75 1782 34 
Q 1559 144 1313 409 
L 1313 -1263 
L 434 -1263 
L 434 3319 
z
M 1303 1716 
Q 1303 1156 1525 889 
Q 1747 622 2066 622 
Q 2372 622 2575 867 
Q 2778 1113 2778 1672 
Q 2778 2194 2568 2447 
Q 2359 2700 2050 2700 
Q 1728 2700 1515 2451 
Q 1303 2203 1303 1716 
z
" transform="scale(0.015625)"/>
      </defs>
      <use xlink:href="#Arial-BoldMT-43"/>
      <use xlink:href="#Arial-BoldMT-68" x="72.216797"/>
      <use xlink:href="#Arial-BoldMT-65" x="133.300781"/>
      <use xlink:href="#Arial-BoldMT-6d" x="188.916016"/>
      <use xlink:href="#Arial-BoldMT-69" x="277.832031"/>
      <use xlink:href="#Arial-BoldMT-63" x="305.615234"/>
      <use xlink:href="#Arial-BoldMT-61" x="361.230469"/>
      <use xlink:href="#Arial-BoldMT-6c" x="416.845703"/>
      <use xlink:href="#Arial-BoldMT-20" x="444.628906"/>
      <use xlink:href="#Arial-BoldMT-53" x="472.412109"/>
      <use xlink:href="#Arial-BoldMT-68" x="539.111328"/>
      <use xlink:href="#Arial-BoldMT-69" x="600.195312"/>
      <use xlink:href="#Arial-BoldMT-66" x="627.978516"/>
      <use xlink:href="#Arial-BoldMT-74" x="661.279297"/>
      <use xlink:href="#Arial-BoldMT-20" x="694.580078"/>
      <use xlink:href="#Arial-BoldMT-2f" x="722.363281"/>
      <use xlink:href="#Arial-BoldMT-20" x="750.146484"/>
      <use xlink:href="#Arial-BoldMT-70" x="777.929688"/>
      <use xlink:href="#Arial-BoldMT-70" x="839.013672"/>
      <use xlink:href="#Arial-BoldMT-6d" x="900.097656"/>
     </g>
    </g>
   </g>
   <g id="matplotlib.axis_2"/>
   <g id="line2d_12">
    <path d="M 2.925819 189.615148 
L 3.335059 189.495789 
L 3.744298 189.834505 
L 5.381256 191.636021 
L 5.585876 191.675927 
L 5.790496 191.524864 
L 6.199735 190.804838 
L 6.813594 189.580257 
L 8.245932 187.448031 
L 8.655172 187.402283 
L 9.064411 187.553938 
L 11.110609 189.123698 
L 11.519848 189.211105 
L 11.929087 189.04222 
L 12.542947 188.398718 
L 12.747566 188.369753 
L 13.156806 188.710299 
L 13.566045 189.030557 
L 13.975285 189.012302 
L 14.793764 188.789275 
L 15.612243 188.697363 
L 16.021482 188.620294 
L 17.044581 188.973388 
L 17.86306 189.547965 
L 18.476919 189.724306 
L 19.909257 190.491549 
L 20.523116 191.318083 
L 20.727736 191.333273 
L 21.546215 190.539829 
L 22.160074 190.731329 
L 23.183172 190.53512 
L 23.797032 190.36529 
L 24.206271 190.510597 
L 25.22937 191.258946 
L 25.638609 191.083343 
L 26.047849 190.858537 
L 26.457088 190.785125 
L 26.866328 190.278802 
L 27.684806 188.888115 
L 28.503285 187.828188 
L 28.912525 187.174817 
L 29.117145 187.128182 
L 29.321764 187.301816 
L 29.935623 188.500275 
L 30.344863 189.14651 
L 31.163342 189.783079 
L 32.18644 190.214173 
L 32.8003 190.298629 
L 33.209539 190.524676 
L 33.618779 190.455555 
L 34.028018 190.273703 
L 34.641877 190.29452 
L 35.051117 190.014281 
L 36.892694 188.286577 
L 37.301934 188.360816 
L 38.325032 188.95163 
L 39.552751 189.845273 
L 40.16661 190.054202 
L 40.575849 190.231418 
L 40.985089 190.898045 
L 41.598948 192.237753 
L 41.803568 192.367659 
L 42.008187 192.272522 
L 43.645145 190.469462 
L 44.054385 190.558585 
L 44.463624 190.749502 
L 44.872863 190.546711 
L 45.895962 189.666313 
L 46.714441 189.249505 
L 47.3283 189.469902 
L 47.73754 189.729152 
L 48.760638 190.597155 
L 50.602216 190.196631 
L 51.216075 189.948181 
L 52.239174 189.947396 
L 52.648413 190.196926 
L 53.262272 190.981182 
L 54.69461 193.048297 
L 54.89923 193.092072 
L 55.10385 192.982372 
L 55.717709 192.119229 
L 56.331568 191.375073 
L 56.945427 190.949129 
L 58.377765 190.429822 
L 58.787005 190.698312 
L 59.400864 191.24133 
L 59.605484 191.246702 
L 60.014723 190.935986 
L 60.628582 190.364655 
L 61.242442 190.15252 
L 61.856301 189.919407 
L 62.47016 189.609421 
L 62.879399 189.356905 
L 63.902498 188.254789 
L 64.516357 187.996443 
L 64.720977 188.057023 
L 65.130216 188.517956 
L 65.948695 189.682619 
L 66.153315 189.823087 
L 66.357935 189.821306 
L 66.767174 189.436895 
L 67.585653 188.4199 
L 67.790273 188.298883 
L 67.994893 188.308905 
L 69.222611 189.158639 
L 69.63185 189.544324 
L 70.04109 189.562328 
L 70.859569 189.298166 
L 71.882667 189.563768 
L 72.291907 189.42747 
L 72.701146 189.08864 
L 73.519625 188.191885 
L 74.338104 188.449035 
L 74.747344 188.460693 
L 75.361203 188.957523 
L 75.770442 189.102829 
L 75.975062 188.923098 
L 76.588921 188.00632 
L 76.793541 187.988635 
L 77.20278 188.408054 
L 77.816639 189.150036 
L 78.225879 189.285794 
L 79.044358 189.220778 
L 79.862837 189.698031 
L 81.090555 190.429119 
L 82.522893 190.935306 
L 82.932133 190.804701 
L 83.545992 190.339755 
L 84.364471 190.108717 
L 85.18295 189.619858 
L 85.796809 189.617398 
L 86.206048 189.471687 
L 86.615288 189.140665 
L 87.638386 188.019258 
L 88.047626 188.060159 
L 88.456865 188.533403 
L 89.275344 189.964557 
L 91.116922 191.107183 
L 91.526161 191.514809 
L 91.730781 191.524845 
L 92.14002 191.06921 
L 93.367739 189.386076 
L 94.390837 188.457652 
L 95.004697 187.675698 
L 95.209316 187.695068 
L 95.618556 188.144225 
L 96.232415 188.851796 
L 96.437035 188.897321 
L 97.255514 188.681426 
L 97.664753 188.942172 
L 98.483232 189.999657 
L 98.687852 190.093735 
L 98.892471 190.060571 
L 99.301711 189.628838 
L 99.71095 189.16281 
L 99.91557 189.200548 
L 100.734049 190.235522 
L 101.143288 190.130824 
L 101.552528 189.894229 
L 101.961767 189.880305 
L 102.371007 189.535658 
L 102.780246 189.077706 
L 103.189486 188.935339 
L 103.598725 189.054781 
L 104.826443 189.925211 
L 105.849542 190.032814 
L 106.668021 189.659807 
L 108.918838 189.85054 
L 109.328077 189.608791 
L 110.555796 188.471405 
L 110.965035 188.659343 
L 111.578894 189.11725 
L 112.806613 189.131734 
L 113.625092 188.338102 
L 113.829711 188.393118 
L 114.238951 188.90131 
L 114.85281 189.69913 
L 115.466669 189.972097 
L 115.671289 189.984802 
L 115.875909 189.883557 
L 116.694388 189.004063 
L 117.103627 189.138243 
L 118.331345 189.803086 
L 118.740585 189.751877 
L 119.149824 189.973456 
L 119.559064 190.464351 
L 120.172923 191.335801 
L 120.377543 191.416682 
L 121.196022 191.202451 
L 121.809881 191.37945 
L 122.62836 191.536805 
L 123.037599 191.101057 
L 123.446839 190.646529 
L 124.469937 189.939338 
L 125.083796 189.276141 
L 126.106895 188.789103 
L 126.925374 187.814299 
L 127.129994 187.785663 
L 127.539233 188.145085 
L 128.153092 188.849775 
L 129.58543 189.84511 
L 129.99467 189.626976 
L 130.403909 189.340289 
L 130.813149 189.470602 
L 131.222388 189.701518 
L 132.245487 189.888996 
L 132.859346 190.355787 
L 133.268585 190.195948 
L 133.882445 189.678155 
L 134.291684 189.782177 
L 134.905543 190.005498 
L 135.314783 189.920863 
L 136.133262 189.541369 
L 136.542501 189.72923 
L 137.36098 190.473151 
L 137.770219 190.448268 
L 138.588698 189.734167 
L 139.611797 188.683993 
L 140.430276 188.38977 
L 140.839515 188.175474 
L 141.248755 188.269781 
L 142.067234 188.911702 
L 142.476473 189.182976 
L 143.294952 190.213644 
L 143.499572 190.122856 
L 143.908811 189.513326 
L 144.52267 188.617227 
L 145.13653 188.427276 
L 145.750389 188.307491 
L 145.955009 188.403336 
L 146.364248 189.132355 
L 146.978107 190.387286 
L 147.387347 190.766766 
L 147.591966 190.801758 
L 148.001206 190.541802 
L 148.410445 190.11529 
L 148.615065 190.059781 
L 148.819685 190.172538 
L 149.842783 191.247599 
L 151.070502 190.879333 
L 151.479741 190.452246 
L 152.707459 188.180686 
L 153.525938 187.744457 
L 153.730558 187.769713 
L 154.139798 188.153869 
L 154.753657 188.929865 
L 155.162896 189.150692 
L 155.572136 189.029814 
L 156.595234 188.434425 
L 157.209093 188.797942 
L 157.618333 189.205267 
L 158.641432 190.709653 
L 158.846051 190.755908 
L 159.255291 190.409905 
L 159.66453 189.924412 
L 160.07377 189.737028 
L 160.687629 189.666247 
L 161.096868 189.981218 
L 162.119967 191.24052 
L 162.733826 192.148026 
L 163.143066 192.381533 
L 163.552305 192.163974 
L 163.961544 191.488643 
L 164.780023 189.797311 
L 165.189263 189.543771 
L 165.803122 189.451221 
L 166.621601 188.743121 
L 167.03084 188.822536 
L 168.053939 189.523455 
L 168.463178 189.439825 
L 169.077038 189.666192 
L 169.690897 189.872689 
L 169.895517 189.809096 
L 170.304756 189.263738 
L 170.918615 188.24458 
L 171.327855 188.078277 
L 172.146334 188.089544 
L 172.555573 188.098411 
L 173.169432 188.407898 
L 173.578672 188.437564 
L 174.60177 189.008025 
L 175.01101 188.823018 
L 175.624869 188.265718 
L 176.443348 187.294267 
L 176.852587 187.280839 
L 177.466446 187.626888 
L 178.284925 188.364105 
L 179.308024 189.596153 
L 179.512644 189.663457 
L 179.717263 189.611499 
L 180.126503 189.049111 
L 180.535742 188.471291 
L 180.944982 188.221087 
L 182.58194 187.855286 
L 183.809658 188.574301 
L 184.423517 189.129713 
L 185.651236 189.556701 
L 186.060475 189.44703 
L 186.469714 189.024443 
L 187.902053 187.198147 
L 188.515912 186.857206 
L 188.925151 186.878663 
L 189.94825 187.51371 
L 190.562109 187.30074 
L 191.380588 187.434255 
L 191.789827 187.170594 
L 192.199067 186.690684 
L 193.426785 184.608346 
L 193.836025 184.355523 
L 194.040644 184.408027 
L 194.245264 184.623851 
L 194.654503 185.617242 
L 195.063743 186.699625 
L 195.268363 186.921752 
L 195.472982 186.884423 
L 195.882222 186.286815 
L 196.291461 185.575452 
L 196.700701 185.292096 
L 197.31456 185.259886 
L 197.723799 184.836222 
L 198.337659 184.088424 
L 199.360757 183.459423 
L 199.769997 183.598988 
L 200.793095 184.47683 
L 200.997715 184.311284 
L 202.225433 182.41484 
L 203.248532 181.725574 
L 203.657771 181.300456 
L 204.067011 180.436208 
L 206.113208 174.373082 
L 206.522448 172.458541 
L 206.931687 169.297454 
L 207.545546 161.418048 
L 208.364025 146.96486 
L 208.977884 132.938919 
L 209.591744 113.660004 
L 210.205603 85.633491 
L 211.637941 3.00024 
L 211.842561 3.251567 
L 212.04718 9.438871 
L 212.45642 36.168162 
L 213.274899 99.977662 
L 213.888758 129.648337 
L 214.297997 140.861605 
L 214.707237 147.971879 
L 215.116476 152.407092 
L 215.525716 154.542277 
L 215.730335 154.948774 
L 215.934955 155.057022 
L 216.344195 154.834329 
L 216.753434 154.6239 
L 216.958054 154.785706 
L 217.162673 155.245249 
L 217.571913 156.94802 
L 218.390392 160.475608 
L 218.799631 161.37861 
L 219.004251 161.514746 
L 219.208871 161.417583 
L 219.41349 161.101287 
L 219.82273 159.860357 
L 220.231969 157.700115 
L 221.255068 150.647306 
L 221.459688 150.521814 
L 221.664307 150.945751 
L 223.301265 156.706013 
L 223.915124 158.445844 
L 224.324364 159.108976 
L 224.528984 159.160753 
L 224.733603 158.927042 
L 225.142843 157.52031 
L 225.552082 155.011114 
L 226.370561 149.323747 
L 226.575181 148.766788 
L 226.779801 148.630516 
L 227.39366 149.109302 
L 227.802899 149.440825 
L 228.007519 149.853861 
L 228.416758 151.7019 
L 229.030618 156.958045 
L 229.849096 164.098199 
L 230.258336 165.565795 
L 230.462956 165.710319 
L 230.667575 165.561286 
L 231.076815 164.581646 
L 231.486054 162.47572 
L 232.099913 157.022575 
L 233.327632 144.748333 
L 233.532252 144.578345 
L 233.736871 145.548642 
L 234.146111 149.748331 
L 234.96459 158.339372 
L 236.192308 167.206692 
L 236.601547 168.854352 
L 237.010787 169.608775 
L 237.420026 169.921569 
L 237.624646 169.980691 
L 237.829266 169.873708 
L 238.033886 169.500369 
L 238.443125 167.843967 
L 239.056984 163.39481 
L 239.466224 159.264639 
L 239.875463 153.411875 
L 240.489322 141.125971 
L 241.717041 115.194904 
L 242.3309 104.321062 
L 242.740139 100.553607 
L 242.944759 100.646958 
L 243.149379 102.093943 
L 243.558618 107.837519 
L 244.377097 123.300493 
L 246.218675 162.860956 
L 246.832534 169.397631 
L 247.241773 171.961424 
L 247.855632 174.22848 
L 248.264872 175.110949 
L 248.469492 175.21272 
L 248.674111 175.020388 
L 249.083351 173.846417 
L 249.49259 171.860192 
L 250.106449 167.579529 
L 251.948027 152.688855 
L 252.561886 150.207372 
L 252.766506 150.046457 
L 252.971126 150.460102 
L 253.380365 152.903151 
L 254.812703 165.739344 
L 256.245041 180.493244 
L 256.654281 182.522093 
L 257.06352 183.599749 
L 257.47276 184.125143 
L 257.881999 184.255468 
L 258.291239 184.315043 
L 258.700478 184.612433 
L 259.109717 184.883933 
L 259.518957 184.924217 
L 259.928196 185.338175 
L 260.542056 186.011066 
L 260.951295 186.502797 
L 261.565154 187.403567 
L 261.974394 187.467544 
L 262.588253 187.296898 
L 262.997492 187.043712 
L 263.202112 187.062089 
L 264.225211 187.650985 
L 265.248309 187.226021 
L 266.066788 186.568751 
L 266.476028 186.704898 
L 267.089887 187.028673 
L 267.499126 186.931756 
L 268.112985 186.427761 
L 268.522225 186.474174 
L 268.931464 186.527275 
L 269.954563 186.276194 
L 270.977662 185.152116 
L 272.20538 184.708551 
L 272.614619 184.503456 
L 273.023859 183.773141 
L 274.251577 180.647803 
L 275.479296 176.257238 
L 275.888535 175.551271 
L 276.297774 174.946371 
L 276.707014 173.749564 
L 277.730113 169.159253 
L 278.548591 164.560639 
L 278.957831 160.96946 
L 279.57169 152.905811 
L 280.185549 141.398843 
L 280.799408 124.560222 
L 281.413268 100.884836 
L 282.640986 47.541613 
L 283.050225 38.399419 
L 283.254845 36.124834 
L 283.459465 35.121617 
L 283.664085 35.250596 
L 283.868704 36.509371 
L 284.073324 39.055284 
L 284.482564 49.071601 
L 285.096423 74.920332 
L 285.710282 99.171998 
L 286.119521 108.464277 
L 286.528761 112.111209 
L 286.733381 112.067775 
L 286.938 110.897453 
L 287.34724 105.886188 
L 288.574958 87.721099 
L 288.984198 84.189049 
L 289.188817 83.538576 
L 289.393437 84.06824 
L 289.598057 86.038953 
L 290.007296 94.221868 
L 291.030395 118.628911 
L 291.848874 134.974256 
L 293.076592 161.282508 
L 293.690451 169.580521 
L 294.30431 174.749758 
L 294.71355 176.949658 
L 295.122789 178.294046 
L 295.941268 179.980893 
L 296.350508 180.295621 
L 297.168987 180.230533 
L 297.782846 180.874329 
L 298.192085 181.587455 
L 299.419804 184.517521 
L 300.442902 185.688043 
L 301.87524 188.714127 
L 302.898339 190.048358 
L 303.512198 189.986965 
L 303.921438 189.725846 
L 304.330677 189.398116 
L 304.535297 189.421126 
L 305.558395 190.284828 
L 305.763015 190.197183 
L 306.172255 189.571144 
L 306.786114 188.570745 
L 307.195353 188.387783 
L 307.604593 188.632885 
L 308.627691 189.639038 
L 309.24155 190.099865 
L 309.65079 190.516292 
L 310.060029 190.588501 
L 310.878508 190.453771 
L 311.901607 190.662 
L 312.310846 190.332495 
L 313.333945 189.44016 
L 314.561663 188.919564 
L 314.766283 188.959479 
L 315.584762 189.597871 
L 317.630959 189.80806 
L 318.858678 189.099666 
L 319.472537 188.964207 
L 319.881776 188.969669 
L 320.495635 189.441188 
L 320.700255 189.389544 
L 321.109495 188.826125 
L 321.723354 187.950379 
L 321.927974 187.867117 
L 322.337213 188.078478 
L 322.951072 188.592573 
L 324.38341 190.502328 
L 324.997269 190.754974 
L 325.815748 191.817685 
L 326.020368 191.811556 
L 326.224988 191.569467 
L 327.248086 189.63723 
L 327.657326 189.591595 
L 328.475805 189.862654 
L 329.089664 190.089197 
L 329.703523 189.862026 
L 330.522002 189.476748 
L 330.931242 189.748809 
L 331.340481 189.925778 
L 332.36358 189.579995 
L 332.977439 189.804469 
L 333.591298 189.955483 
L 334.000537 189.772344 
L 334.409777 189.392639 
L 334.614397 189.342959 
L 335.432876 189.65284 
L 335.842115 189.681108 
L 336.660594 190.317286 
L 337.069833 189.935012 
L 337.479073 189.443904 
L 337.683693 189.407858 
L 338.092932 189.806006 
L 338.502171 190.294943 
L 338.911411 190.479662 
L 339.52527 190.444538 
L 340.957608 189.796357 
L 341.366848 189.463437 
L 341.776087 189.480705 
L 342.389946 189.963315 
L 342.799186 190.277548 
L 343.003805 190.259976 
L 343.413045 189.809059 
L 343.822284 189.296671 
L 344.436143 188.961884 
L 344.845383 188.677264 
L 345.663862 187.920957 
L 345.868482 187.914385 
L 346.277721 188.238558 
L 346.89158 188.893531 
L 347.505439 189.40328 
L 348.119299 189.939909 
L 349.347017 189.917373 
L 349.756256 189.326866 
L 350.370116 188.337806 
L 350.574735 188.220869 
L 350.779355 188.28436 
L 351.188594 188.898995 
L 351.802454 189.99211 
L 352.211693 190.141993 
L 352.620933 190.051649 
L 354.46251 189.050788 
L 354.66713 189.241116 
L 355.485609 190.441415 
L 355.894848 190.452762 
L 356.917947 190.009913 
L 357.531806 189.949656 
L 357.941045 189.694993 
L 358.350285 189.040777 
L 358.759524 188.334815 
L 358.964144 188.190028 
L 359.373384 188.302324 
L 359.782623 188.511868 
L 361.214961 188.536084 
L 361.624201 188.318175 
L 361.82882 188.366619 
L 362.23806 188.960049 
L 362.851919 189.968828 
L 363.261158 190.244129 
L 363.465778 190.268728 
L 363.670398 190.154173 
L 364.898116 188.65491 
L 365.307356 188.395838 
L 365.716595 187.732 
L 366.330454 186.622514 
L 366.739694 186.330365 
L 367.762792 186.186603 
L 368.990511 185.108467 
L 369.60437 184.9547 
L 370.013609 184.519815 
L 370.627469 183.593604 
L 371.036708 183.172121 
L 371.445947 182.389611 
L 372.059807 180.842107 
L 372.469046 179.318928 
L 373.082905 175.654261 
L 373.901384 168.856118 
L 374.719863 160.042397 
L 375.538342 149.33123 
L 376.152201 138.110745 
L 376.76606 122.021784 
L 377.993779 86.83223 
L 378.198398 84.318187 
L 378.403018 83.650775 
L 378.607638 84.832751 
L 379.016877 91.70174 
L 380.653835 128.252523 
L 381.472314 142.330065 
L 382.086173 150.26483 
L 382.700032 155.340718 
L 383.109272 157.096674 
L 383.518511 157.723782 
L 383.723131 157.705189 
L 383.927751 157.474104 
L 384.13237 156.954469 
L 384.54161 154.753656 
L 384.950849 150.725088 
L 385.564709 141.352687 
L 386.587807 120.461888 
L 387.815526 92.20513 
L 389.043244 58.905791 
L 389.247864 56.626998 
L 389.452483 56.602736 
L 389.657103 59.042721 
L 390.066343 70.65684 
L 391.498681 126.147371 
L 392.11254 140.812406 
L 392.726399 151.119564 
L 393.544878 161.009652 
L 394.158737 166.141144 
L 395.795695 176.532586 
L 396.409554 178.969451 
L 397.023413 180.711319 
L 397.637272 181.958251 
L 398.046512 182.227046 
L 398.455751 182.372194 
L 398.660371 182.594459 
L 399.069611 183.529124 
L 399.68347 184.975705 
L 400.092709 185.609018 
L 401.115808 186.761428 
L 401.525047 187.152765 
L 401.934287 187.207611 
L 402.343526 186.841091 
L 402.752766 186.404256 
L 403.162005 186.319172 
L 403.980484 186.759248 
L 404.389723 187.313739 
L 404.798963 188.1187 
L 405.003583 188.321295 
L 405.208202 188.327512 
L 405.822062 188.001841 
L 406.231301 188.253833 
L 406.84516 188.821253 
L 407.2544 188.92503 
L 407.868259 189.056002 
L 408.686738 189.704966 
L 409.300597 190.082842 
L 409.709836 190.037646 
L 410.119076 189.498599 
L 410.528315 188.906341 
L 410.732935 188.82539 
L 410.937555 188.948205 
L 411.756034 190.242015 
L 411.960653 190.23982 
L 412.779132 189.680297 
L 413.597611 189.414165 
L 414.21147 188.869811 
L 414.82533 188.25005 
L 415.643808 187.86994 
L 416.053048 187.807135 
L 416.257668 187.891857 
L 416.666907 188.511393 
L 417.690006 190.796832 
L 417.894625 190.88509 
L 418.099245 190.753774 
L 418.713104 189.646268 
L 419.326964 188.640691 
L 419.940823 188.08428 
L 420.554682 187.76225 
L 420.963921 187.185746 
L 421.7824 185.432189 
L 421.98702 185.41402 
L 423.623978 187.130269 
L 424.033217 187.611537 
L 424.442457 187.681187 
L 424.851696 187.728332 
L 425.260936 188.113881 
L 425.874795 189.00661 
L 426.079414 189.040266 
L 426.284034 188.835637 
L 426.897893 187.800377 
L 427.102513 187.721232 
L 427.307133 187.805303 
L 427.716372 188.369021 
L 428.330231 189.289316 
L 428.534851 189.290609 
L 428.944091 188.799404 
L 429.35333 188.34365 
L 429.55795 188.326486 
L 429.76257 188.477629 
L 430.171809 189.181814 
L 430.785668 190.456757 
L 430.990288 190.592601 
L 431.194908 190.501953 
L 432.218006 189.315814 
L 432.831865 188.959512 
L 433.241105 189.001294 
L 433.650344 189.294474 
L 434.468823 190.247009 
L 434.878063 190.31934 
L 435.491922 190.176253 
L 435.901161 190.370358 
L 436.71964 190.874269 
L 437.333499 190.985489 
L 438.356598 191.876459 
L 439.379697 191.422265 
L 439.788936 191.315163 
L 441.016655 191.406748 
L 441.425894 191.010056 
L 442.039753 190.134444 
L 442.244373 190.041064 
L 442.653612 190.191824 
L 443.062852 190.355789 
L 443.472091 190.161379 
L 444.08595 189.695791 
L 444.69981 189.463393 
L 445.109049 188.817549 
L 445.927528 187.2945 
L 446.336767 186.997925 
L 446.746007 187.151504 
L 447.564486 187.641802 
L 448.382965 188.078427 
L 448.792204 188.282356 
L 449.201444 188.050669 
L 449.815303 187.471972 
L 451.043021 187.045498 
L 451.452261 187.056739 
L 451.65688 186.861884 
L 452.679979 185.235108 
L 453.703078 184.899812 
L 453.907697 184.669752 
L 454.316937 183.619053 
L 454.726176 181.645112 
L 455.544655 176.000695 
L 456.567754 167.139819 
L 457.181613 160.274198 
L 458.204712 144.71577 
L 458.818571 132.889024 
L 459.43243 113.956114 
L 460.046289 87.010785 
L 460.864768 51.61131 
L 461.069388 48.009988 
L 461.274007 47.828929 
L 461.478627 50.865697 
L 461.887867 63.665971 
L 462.910965 100.994867 
L 463.524824 116.069637 
L 465.161782 148.741456 
L 465.775641 156.415505 
L 466.184881 159.506396 
L 466.59412 160.853194 
L 466.79874 160.923016 
L 467.00336 160.620887 
L 467.412599 159.04423 
L 467.821839 156.40542 
L 468.231078 152.514822 
L 468.844937 143.853456 
L 470.686515 111.111288 
L 471.504994 90.606928 
L 471.914233 81.572638 
L 472.118853 79.253977 
L 472.323473 79.149698 
L 472.528092 81.534396 
L 472.937332 92.96553 
L 474.16505 137.695974 
L 474.778909 150.940713 
L 475.392769 159.483836 
L 476.620487 172.064711 
L 477.234346 176.703424 
L 478.257445 181.70647 
L 478.666684 183.282957 
L 479.280543 184.56501 
L 480.303642 186.346617 
L 480.917501 186.913779 
L 481.9406 188.268009 
L 482.14522 188.307568 
L 482.554459 188.053305 
L 483.577558 187.240183 
L 483.782177 187.26038 
L 484.600656 187.879733 
L 485.009896 187.544579 
L 485.419135 187.154144 
L 485.623755 187.175077 
L 486.032994 187.675367 
L 486.442234 188.246508 
L 486.851473 188.427757 
L 487.260713 188.170435 
L 487.669952 187.674927 
L 487.874572 187.56452 
L 488.079192 187.59927 
L 488.488431 187.989529 
L 489.10229 188.701139 
L 489.30691 188.769713 
L 489.71615 188.499284 
L 490.125389 188.244998 
L 491.148488 188.460708 
L 491.557727 188.92185 
L 492.171586 189.703409 
L 492.580826 190.042144 
L 492.785445 190.086481 
L 492.990065 189.949808 
L 493.808544 188.914641 
L 494.217784 188.787981 
L 494.627023 188.682063 
L 495.036262 188.219225 
L 495.445502 187.690328 
L 495.854741 187.506304 
L 496.263981 187.717758 
L 497.287079 188.890232 
L 497.491699 188.873375 
L 497.900939 188.392076 
L 498.310178 187.748476 
L 498.719417 187.539602 
L 499.128657 187.817888 
L 499.537896 188.092817 
L 500.560995 188.390335 
L 501.174854 188.726077 
L 501.379474 188.719181 
L 502.197953 188.207643 
L 502.811812 188.257881 
L 503.834911 187.718857 
L 504.65339 188.062118 
L 505.062629 188.513695 
L 506.085728 190.055907 
L 506.290347 190.122278 
L 506.699587 189.884837 
L 507.313446 189.371496 
L 507.518066 189.418707 
L 507.927305 189.998262 
L 508.745784 191.635442 
L 509.155024 192.113128 
L 510.587362 192.827501 
L 510.996601 192.293342 
L 511.61046 190.984091 
L 512.428939 189.020218 
L 512.838179 188.635632 
L 513.247418 188.883428 
L 513.656658 189.153037 
L 514.475136 189.221121 
L 514.884376 189.226567 
L 515.088996 189.377409 
L 516.112094 190.848523 
L 516.521334 190.932965 
L 518.158292 190.675433 
L 518.772151 190.362843 
L 519.795249 190.29567 
L 520.613728 190.414879 
L 521.022968 190.030384 
L 521.841447 189.233535 
L 522.250686 188.948795 
L 522.455306 188.984189 
L 523.273785 189.541254 
L 523.887644 189.656284 
L 524.296883 189.572116 
L 525.115362 189.210137 
L 526.138461 189.552123 
L 526.95694 189.172857 
L 527.570799 189.578297 
L 527.980038 189.46062 
L 528.593898 188.863989 
L 529.003137 188.412226 
L 529.412377 188.32164 
L 530.230855 188.460814 
L 530.844715 188.70845 
L 531.458574 188.703155 
L 532.072433 188.955026 
L 532.481672 189.11391 
L 533.300151 190.063945 
L 533.709391 190.060742 
L 534.11863 190.011479 
L 534.732489 190.084384 
L 535.141729 189.819031 
L 535.550968 189.499456 
L 535.960208 189.486594 
L 536.369447 189.479836 
L 537.392546 188.868881 
L 537.801785 188.943373 
L 538.415644 189.344642 
L 538.824884 189.8091 
L 539.643363 190.99851 
L 539.847983 191.048717 
L 540.257222 190.854988 
L 541.075701 190.150801 
L 541.280321 190.164404 
L 542.0988 190.720742 
L 543.326518 190.704189 
L 544.144997 190.662878 
L 544.554236 190.666377 
L 545.986574 190.02932 
L 546.600434 189.717837 
L 547.214293 189.658643 
L 547.828152 189.288201 
L 548.237391 189.358269 
L 549.26049 189.658081 
L 550.897448 189.792138 
L 551.306687 189.950502 
L 551.920546 189.841797 
L 552.329786 189.857048 
L 552.739025 190.414922 
L 553.352885 191.436786 
L 553.557504 191.553903 
L 553.762124 191.514693 
L 554.171363 190.995626 
L 554.785223 189.84008 
L 555.194462 189.62805 
L 556.217561 189.857944 
L 556.42218 189.607164 
L 557.03604 188.078651 
L 557.445279 187.19797 
L 557.649899 187.007146 
L 557.854519 187.035585 
L 558.263758 187.701477 
L 558.672997 188.539441 
L 559.082237 188.860842 
L 559.900716 188.906826 
L 560.309955 189.262498 
L 561.333054 190.509214 
L 561.742293 190.513794 
L 562.560772 190.1804 
L 562.970012 189.776068 
L 563.379251 188.912285 
L 564.19773 186.910438 
L 564.40235 186.744745 
L 564.60697 186.785448 
L 565.016209 187.336342 
L 566.039308 189.268297 
L 566.243927 189.353681 
L 566.653167 189.209945 
L 567.267026 188.966785 
L 567.676265 189.080709 
L 568.290125 189.602287 
L 569.108604 190.528919 
L 569.313223 190.488091 
L 570.540942 189.42247 
L 570.950181 189.368236 
L 572.177899 188.92874 
L 572.587139 188.846906 
L 572.996378 188.970122 
L 574.428716 189.98961 
L 574.837956 190.413486 
L 575.247195 190.516215 
L 575.656435 190.172973 
L 576.270294 189.489171 
L 576.474914 189.548977 
L 577.293393 190.434647 
L 577.907252 190.727734 
L 578.316491 190.899232 
L 578.725731 190.666449 
L 579.13497 190.366135 
L 579.748829 190.310406 
L 580.362688 190.389671 
L 581.181167 190.721351 
L 581.385787 190.546024 
L 581.795027 189.656518 
L 582.408886 188.372934 
L 582.818125 188.093883 
L 583.022745 188.140995 
L 583.431984 188.609643 
L 583.841224 189.121257 
L 584.250463 189.266283 
L 584.659703 189.053561 
L 585.682801 188.106482 
L 585.887421 188.109533 
L 586.50128 188.583238 
L 587.115139 189.264403 
L 587.933618 190.33244 
L 588.138238 190.426097 
L 588.342858 190.364417 
L 589.570576 189.252638 
L 589.979816 189.391208 
L 591.002914 189.96445 
L 591.616773 190.003496 
L 592.639872 189.362412 
L 593.253731 189.588671 
L 594.07221 189.955354 
L 594.686069 190.038654 
L 595.299929 189.877354 
L 595.913788 190.013647 
L 596.323027 189.973577 
L 596.732267 190.175594 
L 597.141506 190.724669 
L 597.755365 191.727469 
L 597.959985 191.715489 
L 598.369224 191.031933 
L 598.983084 189.723405 
L 599.392323 189.18546 
L 599.801563 189.026027 
L 600.620041 189.216382 
L 601.43852 188.946836 
L 601.64314 189.122841 
L 602.461619 190.291358 
L 602.870858 190.12103 
L 603.484718 189.716354 
L 604.303197 189.420234 
L 604.712436 189.143643 
L 605.121675 189.134413 
L 605.530915 189.293502 
L 606.144774 189.670882 
L 607.577112 189.046397 
L 608.395591 188.254258 
L 608.600211 188.263165 
L 609.00945 188.749585 
L 609.827929 190.118928 
L 610.646408 190.72057 
L 610.851028 190.706461 
L 611.669507 190.042662 
L 612.078746 189.619604 
L 613.101845 188.178236 
L 613.306465 188.186213 
L 613.715704 188.551673 
L 614.329563 189.140462 
L 615.966521 190.187814 
L 616.58038 190.793735 
L 616.98962 190.748896 
L 617.398859 190.360945 
L 619.240437 187.974192 
L 619.649676 187.84943 
L 620.058915 188.032841 
L 620.672775 188.350171 
L 621.286634 188.388024 
L 621.695873 188.897912 
L 622.514352 190.173996 
L 622.923592 190.383325 
L 623.332831 190.2488 
L 623.94669 189.849067 
L 624.35593 189.212658 
L 624.969789 188.144967 
L 625.174409 187.926032 
L 625.379028 187.899369 
L 625.788268 188.437554 
L 626.402127 189.492085 
L 626.811366 189.680318 
L 627.425226 189.76373 
L 628.039085 189.825428 
L 628.652944 189.643731 
L 629.471423 189.253563 
L 629.880662 189.235395 
L 630.289902 189.305947 
L 630.699141 189.052871 
L 631.108381 188.66071 
L 631.51762 188.679073 
L 632.336099 189.143498 
L 632.745339 189.182819 
L 633.359198 188.957572 
L 634.177677 188.645283 
L 634.382296 188.784 
L 635.405395 190.187056 
L 635.814634 190.138427 
L 636.223874 189.849068 
L 636.837733 189.280399 
L 637.246973 189.243064 
L 637.656212 189.408082 
L 638.679311 190.108002 
L 639.29317 190.348643 
L 639.702409 190.055994 
L 640.111649 189.545802 
L 640.316268 189.441097 
L 642.362466 189.928288 
L 643.385564 190.998395 
L 643.794804 191.057411 
L 645.431762 189.993345 
L 645.841001 189.205944 
L 646.45486 187.937718 
L 646.8641 187.733948 
L 647.887198 188.010883 
L 648.296438 188.104877 
L 649.319536 188.817307 
L 650.138015 189.800139 
L 651.774973 190.921314 
L 653.002691 190.904024 
L 653.616551 190.945264 
L 654.02579 190.74117 
L 654.844269 189.963856 
L 655.867368 190.021338 
L 656.685847 189.611666 
L 657.299706 189.666188 
L 657.913565 189.935405 
L 658.732044 190.052562 
L 659.959762 190.532069 
L 660.369002 190.720426 
L 661.187481 190.634392 
L 661.80134 191.093995 
L 662.005959 191.031277 
L 662.415199 190.523717 
L 662.824438 189.974336 
L 663.029058 189.910548 
L 663.233678 190.032966 
L 664.256776 191.206491 
L 664.461396 191.168563 
L 664.870636 190.615264 
L 665.279875 189.89727 
L 665.689115 189.61089 
L 666.098354 189.687321 
L 666.712213 189.859279 
L 667.121453 189.706196 
L 667.530692 189.034957 
L 668.144551 187.693034 
L 668.553791 187.390571 
L 668.96303 187.535434 
L 669.37227 187.99242 
L 669.986129 188.799006 
L 670.395368 189.061704 
L 670.804608 189.699559 
L 671.623087 191.454967 
L 671.827706 191.477581 
L 672.236946 191.13578 
L 673.260044 189.799099 
L 673.464664 189.777737 
L 673.873904 190.204938 
L 674.283143 190.719821 
L 674.692383 190.877245 
L 675.101622 190.742053 
L 675.510861 190.272493 
L 676.124721 189.372551 
L 676.53396 189.204606 
L 678.784777 188.808421 
L 679.194017 188.612439 
L 680.217115 187.861346 
L 681.854073 188.274751 
L 682.467932 188.937143 
L 682.877172 189.362139 
L 683.286411 189.47173 
L 684.10489 189.319754 
L 684.514129 189.47362 
L 684.923369 190.023913 
L 685.537228 191.157448 
L 685.741848 191.317817 
L 685.946468 191.322517 
L 686.560327 190.832026 
L 686.969566 190.425861 
L 687.992665 188.879515 
L 688.401904 188.896982 
L 688.811144 188.939698 
L 689.220383 188.681747 
L 690.038862 187.865678 
L 691.4712 186.961882 
L 692.289679 185.529319 
L 692.903538 184.039851 
L 693.517397 181.970059 
L 694.949735 175.845547 
L 695.768214 171.063048 
L 696.382074 166.060634 
L 697.200552 156.32522 
L 698.019031 143.255133 
L 698.83751 130.084937 
L 699.24675 125.555973 
L 699.655989 123.34626 
L 699.860609 123.061472 
L 700.065229 123.300343 
L 700.269848 124.085352 
L 700.679088 127.163378 
L 701.292947 134.835442 
L 702.929905 159.24685 
L 703.543764 165.696076 
L 704.362243 171.600127 
L 705.589961 179.225811 
L 706.20382 182.070963 
L 706.61306 183.13044 
L 707.022299 183.583596 
L 707.431539 183.602282 
L 707.840778 183.702824 
L 708.454637 184.445103 
L 709.682356 186.080475 
L 711.114694 188.305643 
L 711.523933 188.143483 
L 711.728553 188.014898 
L 711.933173 188.018895 
L 712.342412 188.515383 
L 712.547032 188.761339 
L 712.751652 188.811017 
L 713.570131 188.279325 
L 713.97937 188.415476 
L 714.18399 188.325937 
L 714.593229 187.705798 
L 715.002469 187.148203 
L 715.207088 187.111937 
L 715.616328 187.396622 
L 716.434807 188.502358 
L 716.844046 189.006146 
L 717.253286 189.250933 
L 717.457905 189.229012 
L 717.867145 188.846878 
L 718.276384 188.443727 
L 718.481004 188.428546 
L 718.890244 188.786877 
L 719.504103 189.312649 
L 720.117962 189.733531 
L 720.731821 190.142638 
L 721.141061 190.040601 
L 721.5503 189.703783 
L 721.75492 189.676193 
L 722.164159 190.011083 
L 722.982638 190.766058 
L 723.187258 190.789636 
L 723.391878 190.675788 
L 723.801117 190.057609 
L 724.619596 188.62032 
L 725.028835 188.460043 
L 725.847314 188.485666 
L 726.256554 188.758217 
L 727.279652 189.574111 
L 728.098131 189.670855 
L 728.71199 190.128565 
L 729.12123 190.022906 
L 729.530469 189.830844 
L 730.553568 189.680454 
L 731.372047 188.83922 
L 732.395145 188.313433 
L 732.804385 187.999223 
L 733.009005 188.030601 
L 733.622864 188.495957 
L 733.827484 188.460595 
L 734.236723 188.027145 
L 735.055202 186.860284 
L 735.464441 186.609286 
L 735.873681 186.726273 
L 736.28292 187.196942 
L 736.896779 188.047503 
L 737.306019 188.190578 
L 737.715258 188.180507 
L 738.533737 188.42269 
L 738.942977 187.998512 
L 739.147596 187.729479 
L 739.352216 187.665684 
L 739.556836 187.895233 
L 740.375315 189.424433 
L 740.784554 189.588466 
L 741.193794 189.557906 
L 741.603033 189.320498 
L 742.216892 188.67103 
L 742.830752 187.943884 
L 743.035371 187.947411 
L 743.444611 188.394525 
L 744.672329 190.194989 
L 745.286188 190.174326 
L 746.923146 189.702756 
L 747.537005 190.232477 
L 748.764724 191.157279 
L 749.173963 190.938104 
L 749.787822 190.344545 
L 750.197062 190.325909 
L 750.606301 190.557315 
L 750.810921 190.559614 
L 751.6294 190.031145 
L 752.243259 190.129233 
L 752.652498 189.86339 
L 753.061738 189.391734 
L 753.675597 188.513869 
L 754.084837 188.365241 
L 754.698696 188.571636 
L 755.721794 189.03049 
L 756.540273 189.889821 
L 756.949513 189.860138 
L 757.358752 189.823096 
L 758.381851 189.956835 
L 759.20033 189.660748 
L 759.814189 189.803592 
L 760.632668 190.068139 
L 761.451147 189.968214 
L 761.860386 189.624014 
L 762.474245 188.96292 
L 762.883485 188.891532 
L 763.292724 189.159961 
L 763.906583 189.691755 
L 764.725062 190.020831 
L 765.134302 190.055971 
L 765.543541 189.959786 
L 765.748161 190.072929 
L 766.975879 191.617998 
L 767.180499 191.618305 
L 767.385119 191.448786 
L 768.203598 190.144948 
L 768.612837 190.045186 
L 769.226696 190.358698 
L 770.045175 190.929998 
L 770.659034 190.966065 
L 771.068274 190.698842 
L 771.886753 189.511401 
L 772.295992 188.951241 
L 772.500612 188.845586 
L 772.705232 188.949806 
L 773.523711 190.075013 
L 773.93295 190.119133 
L 775.160668 189.856676 
L 776.183767 189.837354 
L 777.206866 190.121886 
L 778.025345 189.989659 
L 779.048443 190.117854 
L 779.457683 189.541195 
L 780.276162 188.053402 
L 780.480781 187.983822 
L 781.09464 188.229461 
L 781.50388 188.088208 
L 781.913119 187.936398 
L 782.117739 188.006146 
L 784.163936 190.131003 
L 784.777796 190.893094 
L 784.982415 191.040813 
L 785.187035 191.048541 
L 785.391655 190.863418 
L 785.800894 189.989698 
L 786.210134 189.00219 
L 786.414753 188.760937 
L 786.619373 188.722422 
L 787.028613 189.004781 
L 787.847091 190.107588 
L 788.051711 190.164492 
L 788.87019 189.927564 
L 789.27943 190.307678 
L 789.893289 190.948831 
L 790.302528 190.85794 
L 791.325627 190.112569 
L 791.734866 189.64296 
L 792.348725 188.821379 
L 792.553345 188.812095 
L 795.418021 190.720936 
L 795.827261 190.822834 
L 796.64574 191.33745 
L 800.942754 189.240348 
L 801.556613 188.650245 
L 802.170472 188.481804 
L 804.01205 188.341128 
L 804.421289 188.564338 
L 804.830529 188.475052 
L 805.239768 188.373923 
L 806.058247 188.551929 
L 807.285965 188.958943 
L 808.104444 189.757793 
L 808.513684 189.825709 
L 808.922923 189.876883 
L 809.536782 190.024158 
L 810.355261 189.581123 
L 811.17374 188.802216 
L 811.992219 188.116267 
L 812.196839 188.130107 
L 812.606078 188.485153 
L 813.219938 189.529906 
L 814.038416 191.199727 
L 814.447656 191.332862 
L 816.289233 190.572291 
L 817.721572 189.80422 
L 818.335431 189.866904 
L 818.94929 190.00177 
L 819.563149 189.90664 
L 819.972389 189.839025 
L 821.200107 190.362735 
L 822.223206 190.38278 
L 823.655544 189.027301 
L 824.064783 188.566866 
L 824.474023 188.439001 
L 825.292501 188.621375 
L 825.906361 188.87543 
L 826.929459 188.627003 
L 827.338699 188.923705 
L 828.361797 189.939781 
L 829.180276 189.945478 
L 831.431093 189.539348 
L 832.044952 189.782769 
L 832.863431 189.869309 
L 833.477291 190.242076 
L 833.68191 190.16864 
L 834.09115 189.489268 
L 834.705009 188.425586 
L 835.114248 188.189651 
L 835.523488 188.356127 
L 836.955826 189.556957 
L 837.365065 189.65844 
L 837.569685 189.544504 
L 837.978925 188.856442 
L 838.592784 187.675006 
L 838.797403 187.579508 
L 839.206643 187.788974 
L 839.820502 188.146929 
L 840.638981 188.124408 
L 842.071319 189.50729 
L 842.275939 189.514754 
L 842.685178 189.206004 
L 843.094418 188.88778 
L 843.912897 188.998287 
L 844.526756 188.569079 
L 845.549854 188.565456 
L 846.368333 188.12017 
L 846.777573 188.257658 
L 847.800671 189.018904 
L 848.61915 189.232491 
L 849.02839 188.963132 
L 849.437629 188.648952 
L 850.869967 188.512875 
L 851.483826 188.493049 
L 852.097686 188.288239 
L 852.711545 187.983655 
L 853.120784 188.103024 
L 855.166982 189.46767 
L 855.576221 189.279455 
L 856.19008 188.887793 
L 856.59932 189.012418 
L 856.803939 189.085466 
L 857.213179 188.908508 
L 857.622418 188.801218 
L 858.031658 188.85466 
L 858.440897 188.536904 
L 859.054756 187.79383 
L 859.463996 187.817814 
L 860.282475 188.03204 
L 860.691714 188.065817 
L 861.714813 187.788132 
L 862.124052 188.385911 
L 862.533292 189.067112 
L 862.942531 189.225621 
L 863.55639 189.391498 
L 863.96563 189.144669 
L 864.579489 188.492642 
L 865.193348 187.408239 
L 865.807207 186.336788 
L 866.011827 186.193751 
L 866.216447 186.205662 
L 866.625686 186.561111 
L 867.034926 187.168298 
L 867.853405 188.552888 
L 868.671884 189.310792 
L 868.876503 189.363485 
L 869.081123 189.233162 
L 869.490362 188.540786 
L 870.104222 187.506749 
L 870.718081 186.838836 
L 871.12732 186.815321 
L 871.53656 186.920685 
L 871.945799 186.740848 
L 872.764278 185.955116 
L 873.378137 185.865347 
L 873.991996 185.685324 
L 874.810475 185.251924 
L 875.219715 185.385896 
L 875.833574 185.84574 
L 876.038194 185.779234 
L 876.652053 184.947249 
L 877.061292 184.498687 
L 877.470532 184.344371 
L 878.289011 184.333731 
L 878.69825 183.899366 
L 879.721349 182.358132 
L 880.130588 181.978876 
L 880.335208 181.923773 
L 880.744447 182.157036 
L 881.358307 182.830288 
L 881.562926 182.869004 
L 881.767546 182.739448 
L 882.176786 182.05045 
L 882.790645 180.80039 
L 883.199884 180.393331 
L 883.404504 180.358312 
L 883.609124 180.445571 
L 885.655321 182.51488 
L 885.859941 182.468854 
L 886.26918 181.985586 
L 886.883039 180.93308 
L 887.906138 178.823894 
L 888.315377 178.691154 
L 888.724617 178.822992 
L 889.133856 179.082077 
L 889.338476 179.066094 
L 889.747715 178.588555 
L 890.361575 177.777621 
L 891.384673 176.683603 
L 891.793913 176.790727 
L 892.407772 177.045753 
L 892.817011 176.929073 
L 893.226251 176.259216 
L 894.658589 173.02037 
L 896.090927 170.940412 
L 896.500166 170.995667 
L 897.114026 171.263055 
L 897.318645 171.129488 
L 898.546364 168.980788 
L 899.364843 167.422412 
L 900.183321 166.721089 
L 901.0018 165.137474 
L 902.229519 162.32743 
L 902.638758 162.126652 
L 903.047998 162.305181 
L 903.661857 162.683477 
L 904.275716 162.756505 
L 904.889575 162.621362 
L 905.298815 162.464713 
L 905.708054 162.651848 
L 906.117294 162.863174 
L 907.140392 162.553942 
L 907.549632 162.149607 
L 907.958871 161.695558 
L 908.163491 161.65511 
L 908.98197 162.071593 
L 909.595829 161.955726 
L 910.005068 162.289901 
L 910.414308 162.835415 
L 910.618928 162.947401 
L 910.823547 162.895114 
L 911.232787 162.354246 
L 911.846646 161.334834 
L 912.051266 161.174421 
L 912.255885 161.166618 
L 912.460505 161.340983 
L 913.278984 162.505915 
L 913.483604 162.506317 
L 913.892843 162.173516 
L 914.302083 161.847466 
L 914.711322 161.884521 
L 915.120562 162.026169 
L 915.325181 161.897466 
L 915.734421 160.986779 
L 916.5529 158.446107 
L 916.757519 158.211337 
L 916.962139 158.305005 
L 917.780618 159.730198 
L 917.985238 159.430088 
L 918.394477 157.83583 
L 919.008336 153.977922 
L 919.417576 149.768874 
L 920.440674 137.066896 
L 920.645294 138.090845 
L 921.054534 145.360217 
L 921.668393 157.382479 
L 922.077632 161.689473 
L 922.486872 164.063729 
L 922.896111 165.281876 
L 923.71459 166.559875 
L 924.123829 166.84321 
L 924.533069 166.813091 
L 925.146928 166.352317 
L 925.965407 165.540479 
L 926.170027 165.584678 
L 926.579266 165.975079 
L 927.193125 166.670637 
L 927.397745 166.721154 
L 927.602365 166.554703 
L 928.011604 165.584809 
L 928.420844 164.536993 
L 928.830083 163.994538 
L 929.034703 163.891485 
L 929.239323 163.93278 
L 929.648562 164.466364 
L 930.057802 165.032561 
L 930.467041 165.1708 
L 930.87628 164.946181 
L 931.694759 163.952825 
L 931.899379 163.860423 
L 932.103999 163.932136 
L 932.308619 164.225125 
L 932.922478 165.940191 
L 933.536337 167.625836 
L 934.354816 169.015213 
L 934.764055 169.43802 
L 934.968675 169.418893 
L 935.787154 168.658387 
L 936.196393 168.079237 
L 937.219492 166.196342 
L 937.628731 165.695054 
L 937.833351 165.663776 
L 938.037971 165.837715 
L 938.65183 167.029834 
L 939.470309 169.144125 
L 940.493408 171.753584 
L 941.107267 172.822241 
L 941.311887 172.942341 
L 942.948844 172.737086 
L 943.562704 173.052746 
L 944.176563 173.03733 
L 944.790422 173.232671 
L 945.404281 173.106976 
L 945.813521 173.086515 
L 946.01814 173.265299 
L 946.42738 174.089809 
L 947.041239 176.025474 
L 947.655098 178.275191 
L 948.064338 179.058059 
L 949.087436 180.394979 
L 950.315155 180.986927 
L 950.724394 181.22904 
L 951.542873 181.914145 
L 951.952112 182.034216 
L 952.565972 181.886127 
L 952.975211 181.48085 
L 953.58907 180.739844 
L 953.99831 180.807619 
L 955.226028 181.850146 
L 955.635267 182.408163 
L 956.249127 183.468933 
L 956.453746 183.564996 
L 956.658366 183.457467 
L 957.476845 182.619881 
L 957.681465 182.664135 
L 958.090704 183.247092 
L 958.704563 184.23993 
L 959.523042 185.221883 
L 960.750761 185.942327 
L 961.36462 186.64971 
L 961.978479 187.637784 
L 962.183099 187.729164 
L 963.001578 187.518666 
L 963.615437 188.067452 
L 964.229296 188.162811 
L 964.638535 188.114143 
L 965.047775 187.818323 
L 965.661634 187.247021 
L 966.070873 187.195009 
L 966.480113 187.136348 
L 967.298592 186.659584 
L 968.117071 187.073931 
L 968.73093 187.002517 
L 969.140169 187.087575 
L 969.754029 187.527248 
L 970.163268 187.763444 
L 970.777127 187.955543 
L 971.595606 188.635274 
L 972.209465 189.154873 
L 972.823324 189.34814 
L 973.641803 189.932304 
L 974.051043 189.71501 
L 974.664902 189.382526 
L 975.483381 189.272821 
L 976.09724 188.728329 
L 976.50648 188.382781 
L 976.711099 188.33703 
L 977.120339 188.543467 
L 977.938818 189.131749 
L 978.552677 190.052731 
L 978.961916 190.20794 
L 979.575775 189.819352 
L 980.189635 189.630957 
L 980.598874 189.76264 
L 981.008114 190.315858 
L 981.417353 190.900787 
L 981.826592 191.041671 
L 982.235832 190.938355 
L 982.645071 190.620386 
L 983.46355 189.875586 
L 984.077409 189.541806 
L 984.691269 189.466519 
L 985.100508 188.94981 
L 985.714367 188.207595 
L 986.123607 188.003682 
L 986.328226 187.999255 
L 986.737466 188.333574 
L 987.351325 189.366221 
L 987.555945 189.465351 
L 987.965184 189.165545 
L 988.988283 188.232696 
L 989.397522 188.288003 
L 990.420621 188.988412 
L 991.2391 189.015591 
L 991.648339 188.579846 
L 992.262199 187.831358 
L 992.671438 187.699184 
L 993.080677 187.848971 
L 995.126875 190.268079 
L 995.536114 190.683518 
L 995.740734 190.614885 
L 996.149973 190.057192 
L 996.559213 189.474707 
L 996.763833 189.371481 
L 997.173072 189.545789 
L 997.786931 189.955354 
L 998.60541 190.173352 
L 999.01465 190.34091 
L 999.423889 190.141755 
L 999.833128 189.673751 
L 1000.856227 188.033438 
L 1001.265466 187.66176 
L 1001.470086 187.667921 
L 1001.674706 187.90517 
L 1002.493185 189.698864 
L 1002.902424 189.92487 
L 1003.516283 189.985317 
L 1003.925523 189.625945 
L 1004.334762 189.241507 
L 1004.744002 189.219805 
L 1005.153241 189.545374 
L 1006.17634 191.076851 
L 1006.585579 190.968853 
L 1006.994819 190.796163 
L 1007.404058 190.65414 
L 1008.427157 189.664914 
L 1009.041016 189.577619 
L 1009.654875 189.126249 
L 1010.473354 188.214163 
L 1010.882594 188.138426 
L 1012.314932 188.145174 
L 1012.928791 188.138794 
L 1013.54265 188.31263 
L 1014.361129 188.183772 
L 1014.974988 188.086141 
L 1015.384228 188.191301 
L 1015.793467 188.613113 
L 1016.407326 189.429346 
L 1016.816566 189.626944 
L 1017.225805 189.557983 
L 1017.635045 189.540891 
L 1019.476622 191.105934 
L 1019.885862 191.661192 
L 1020.090481 191.752495 
L 1020.295101 191.665212 
L 1020.704341 191.082746 
L 1021.522819 189.833285 
L 1021.932059 189.458973 
L 1022.750538 189.160053 
L 1023.364397 188.119808 
L 1023.978256 187.180949 
L 1024.387496 187.024894 
L 1024.796735 187.322828 
L 1026.638313 189.135615 
L 1027.456792 190.162893 
L 1027.866031 190.213444 
L 1028.27527 189.925405 
L 1028.68451 189.607601 
L 1029.298369 189.509942 
L 1030.321468 189.487327 
L 1030.730707 189.710152 
L 1031.139947 190.308486 
L 1031.753806 191.33379 
L 1031.958426 191.470708 
L 1032.163045 191.434303 
L 1032.367665 191.202691 
L 1033.595383 188.935173 
L 1034.004623 188.745127 
L 1034.413862 188.860864 
L 1034.823102 189.318582 
L 1035.8462 190.652994 
L 1036.25544 190.607382 
L 1037.483158 189.966367 
L 1037.892398 190.093542 
L 1039.120116 190.92919 
L 1039.324736 190.911286 
L 1039.733975 190.458286 
L 1040.143215 189.899184 
L 1040.552454 189.710634 
L 1041.575553 189.935161 
L 1041.984792 190.169984 
L 1042.394032 190.521149 
L 1043.82637 190.684264 
L 1044.440229 190.947105 
L 1044.849468 190.769075 
L 1045.872567 190.266774 
L 1046.281806 190.146364 
L 1046.691046 189.750117 
L 1047.509525 188.587299 
L 1047.714144 188.537801 
L 1048.123384 188.858297 
L 1048.532623 189.113291 
L 1048.941863 188.906058 
L 1049.351102 188.600119 
L 1049.760342 188.570539 
L 1050.169581 188.789099 
L 1050.578821 189.046314 
L 1050.98806 188.995607 
L 1051.806539 188.636101 
L 1052.215778 188.40084 
L 1052.625018 188.479569 
L 1053.034257 188.808308 
L 1053.852736 189.628876 
L 1054.261976 189.712675 
L 1055.080455 189.529394 
L 1056.103553 188.843638 
L 1056.512793 188.953754 
L 1057.740511 189.821961 
L 1058.149751 189.847126 
L 1058.76361 189.697387 
L 1059.377469 189.880812 
L 1060.195948 189.692751 
L 1060.605187 189.968309 
L 1061.014427 189.920176 
L 1061.423666 189.511513 
L 1061.832906 189.016154 
L 1062.242145 188.875274 
L 1063.469863 189.110421 
L 1064.083723 189.054222 
L 1064.697582 189.223053 
L 1065.9253 188.923665 
L 1066.743779 188.171836 
L 1067.153019 187.870981 
L 1067.357638 187.870594 
L 1067.766878 188.26343 
L 1068.176117 188.649825 
L 1068.789976 188.61938 
L 1069.403836 188.472637 
L 1070.017695 188.24826 
L 1070.222314 188.332954 
L 1070.631554 188.926319 
L 1071.450033 190.441246 
L 1071.654653 190.539668 
L 1072.063892 190.253248 
L 1072.473131 189.927518 
L 1073.086991 189.685732 
L 1074.314709 188.323859 
L 1074.723948 188.238192 
L 1076.360906 188.999435 
L 1076.770146 189.835644 
L 1077.588625 191.901828 
L 1077.793244 192.149312 
L 1077.997864 192.179032 
L 1078.407103 191.731417 
L 1079.839442 189.622819 
L 1080.044061 189.516101 
L 1080.453301 189.681325 
L 1081.06716 190.114936 
L 1081.476399 190.07466 
L 1083.931836 189.4035 
L 1084.341076 189.581143 
L 1084.954935 190.185595 
L 1085.568794 190.845242 
L 1085.978033 190.966281 
L 1086.796512 190.756486 
L 1087.205752 190.416873 
L 1087.819611 189.540569 
L 1088.024231 189.466617 
L 1088.63809 189.574969 
L 1089.456569 189.19169 
L 1089.865808 189.413711 
L 1090.888907 190.528507 
L 1091.502766 190.300579 
L 1091.912005 190.512714 
L 1092.321245 191.056477 
L 1093.139724 192.591845 
L 1093.344344 192.707877 
L 1093.548963 192.637477 
L 1093.958203 191.994252 
L 1094.776682 190.211646 
L 1095.185921 189.733852 
L 1096.20902 188.943318 
L 1096.618259 189.041572 
L 1097.027499 189.162289 
L 1097.436738 189.011324 
L 1098.255217 188.477063 
L 1099.278316 188.514553 
L 1099.687555 188.353216 
L 1099.892175 188.423947 
L 1101.119893 189.465957 
L 1101.733752 189.781066 
L 1102.142992 190.318156 
L 1102.756851 191.247735 
L 1102.961471 191.337152 
L 1103.16609 191.209939 
L 1103.57533 190.437717 
L 1104.189189 189.115821 
L 1104.598429 188.854932 
L 1105.007668 189.014555 
L 1106.644626 189.995773 
L 1107.258485 190.067605 
L 1108.486203 190.137861 
L 1109.509302 190.440165 
L 1110.327781 190.201564 
L 1111.14626 190.414137 
L 1111.555499 190.142592 
L 1111.964739 189.594749 
L 1112.783218 188.273508 
L 1113.397077 187.690793 
L 1113.601697 187.652597 
L 1114.010936 187.919839 
L 1115.034035 189.167493 
L 1115.647894 189.242989 
L 1116.261753 189.544339 
L 1116.875612 189.400284 
L 1117.080232 189.326868 
L 1117.284852 189.127789 
L 1118.10333 187.806277 
L 1118.30795 187.751463 
L 1118.51257 187.849075 
L 1119.535669 189.083404 
L 1119.740288 189.057889 
L 1120.558767 188.555176 
L 1121.377246 188.510339 
L 1123.423443 189.459982 
L 1124.037303 189.879699 
L 1124.446542 189.855531 
L 1125.67426 189.22463 
L 1126.697359 189.321671 
L 1127.311218 188.852381 
L 1127.720458 188.67223 
L 1128.129697 189.024464 
L 1129.152796 190.547772 
L 1129.357415 190.632492 
L 1129.562035 190.549089 
L 1129.971275 190.012601 
L 1130.994373 188.473094 
L 1131.403613 188.306831 
L 1132.835951 188.199133 
L 1133.24519 188.226621 
L 1133.65443 188.549593 
L 1134.063669 188.916559 
L 1135.905247 189.651464 
L 1136.928345 189.737917 
L 1137.746824 190.573779 
L 1137.951444 190.539243 
L 1138.360683 190.085454 
L 1138.974543 189.144151 
L 1139.383782 188.928492 
L 1139.793022 188.744335 
L 1140.406881 188.193205 
L 1140.6115 188.194456 
L 1141.429979 188.806289 
L 1141.839219 188.615705 
L 1142.248458 188.42114 
L 1143.271557 188.417461 
L 1144.703895 189.41111 
L 1145.317754 189.8739 
L 1145.522374 189.887101 
L 1146.340853 189.589773 
L 1147.363951 189.774667 
L 1147.773191 190.160241 
L 1148.59167 191.706174 
L 1148.79629 191.796102 
L 1149.000909 191.677804 
L 1149.819388 190.654306 
L 1150.024008 190.595569 
L 1150.228628 190.671818 
L 1150.637867 191.20532 
L 1151.251726 192.20925 
L 1151.456346 192.28785 
L 1151.865585 191.955883 
L 1152.479445 190.964095 
L 1153.297924 189.279254 
L 1153.707163 188.924633 
L 1154.116402 189.005004 
L 1154.525642 189.107318 
L 1155.139501 189.192033 
L 1155.54874 189.760692 
L 1155.95798 190.485917 
L 1156.571839 190.983231 
L 1156.981079 191.272088 
L 1157.390318 191.284465 
L 1158.208797 190.853887 
L 1159.027276 190.416082 
L 1159.641135 190.320764 
L 1160.254994 190.508624 
L 1160.868853 190.875752 
L 1161.278093 190.937146 
L 1161.891952 190.755726 
L 1162.301191 190.64986 
L 1162.710431 190.764909 
L 1163.11967 190.902612 
L 1163.52891 190.675236 
L 1163.938149 190.479393 
L 1164.552008 190.603016 
L 1164.756628 190.479606 
L 1165.165868 189.740366 
L 1165.779727 188.517372 
L 1166.188966 188.239355 
L 1167.416685 188.208827 
L 1167.825924 188.24642 
L 1168.439783 188.140083 
L 1169.053642 188.344064 
L 1169.667502 188.837611 
L 1170.6906 190.297537 
L 1171.09984 190.212605 
L 1172.532178 189.75285 
L 1172.941417 190.223869 
L 1173.350657 190.651315 
L 1173.759896 190.668774 
L 1175.396854 190.083558 
L 1176.419953 189.961952 
L 1177.443051 188.858921 
L 1178.46615 188.054297 
L 1178.67077 188.060596 
L 1179.080009 188.542443 
L 1179.693868 189.365411 
L 1179.898488 189.414563 
L 1180.307727 189.141612 
L 1180.716967 188.739196 
L 1181.330826 188.448914 
L 1181.944685 187.684176 
L 1182.149305 187.700608 
L 1182.558544 188.238803 
L 1183.172404 189.153417 
L 1183.581643 189.472413 
L 1183.990883 189.515187 
L 1184.400122 189.27721 
L 1184.809361 188.74568 
L 1184.809361 188.74568 
" clip-path="url(#p22620cdcb6)" style="fill: none; stroke: #000000; stroke-width: 2; stroke-linecap: square"/>
   </g>
   <g id="patch_3">
    <path d="M 3.00024 198.907885 
L 1184.99976 198.907885 
" style="fill: none; stroke: #000000; stroke-width: 2; stroke-linejoin: miter; stroke-linecap: square"/>
   </g>
  </g>
 </g>
 <defs>
  <clipPath id="p22620cdcb6">
   <rect x="3.00024" y="3.00024" width="1181.99952" height="195.907645"/>
  </clipPath>
 </defs>
</svg>
