<?xml version="1.0" encoding="utf-8" standalone="no"?>
<!DOCTYPE svg PUBLIC "-//W3C//DTD SVG 1.1//EN"
  "http://www.w3.org/Graphics/SVG/1.1/DTD/svg11.dtd">
<svg xmlns:xlink="http://www.w3.org/1999/xlink" width="1188pt" height="252pt" viewBox="0 0 1188 252" xmlns="http://www.w3.org/2000/svg" version="1.1">
 <metadata>
  <rdf:RDF xmlns:dc="http://purl.org/dc/elements/1.1/" xmlns:cc="http://creativecommons.org/ns#" xmlns:rdf="http://www.w3.org/1999/02/22-rdf-syntax-ns#">
   <cc:Work>
    <dc:type rdf:resource="http://purl.org/dc/dcmitype/StillImage"/>
    <dc:date>2024-05-13T16:41:09.580285</dc:date>
    <dc:format>image/svg+xml</dc:format>
    <dc:creator>
     <cc:Agent>
      <dc:title>Matplotlib v3.8.0, https://matplotlib.org/</dc:title>
     </cc:Agent>
    </dc:creator>
   </cc:Work>
  </rdf:RDF>
 </metadata>
 <defs>
  <style type="text/css">*{stroke-linejoin: round; stroke-linecap: butt}</style>
 </defs>
 <g id="figure_1">
  <g id="patch_1">
   <path d="M 0 252 
L 1188 252 
L 1188 0 
L 0 0 
z
" style="fill: #ffffff"/>
  </g>
  <g id="axes_1">
   <g id="patch_2">
    <path d="M 3.00024 198.907885 
L 1184.99976 198.907885 
L 1184.99976 3.00024 
L 3.00024 3.00024 
z
" style="fill: #ffffff"/>
   </g>
   <g id="matplotlib.axis_1">
    <g id="xtick_1">
     <g id="line2d_1">
      <defs>
       <path id="mcf90e88427" d="M 0 0 
L 0 8 
" style="stroke: #000000; stroke-width: 2"/>
      </defs>
      <g>
       <use xlink:href="#mcf90e88427" x="1131.272509" y="198.907885" style="stroke: #000000; stroke-width: 2"/>
      </g>
     </g>
     <g id="text_1">
      <!-- 0 -->
      <g transform="translate(1126.267665 224.791947) scale(0.18 -0.18)">
       <defs>
        <path id="Arial-BoldMT-30" d="M 1756 4600 
Q 2422 4600 2797 4125 
Q 3244 3563 3244 2259 
Q 3244 959 2794 391 
Q 2422 -78 1756 -78 
Q 1088 -78 678 436 
Q 269 950 269 2269 
Q 269 3563 719 4131 
Q 1091 4600 1756 4600 
z
M 1756 3872 
Q 1597 3872 1472 3770 
Q 1347 3669 1278 3406 
Q 1188 3066 1188 2259 
Q 1188 1453 1269 1151 
Q 1350 850 1473 750 
Q 1597 650 1756 650 
Q 1916 650 2041 751 
Q 2166 853 2234 1116 
Q 2325 1453 2325 2259 
Q 2325 3066 2244 3367 
Q 2163 3669 2039 3770 
Q 1916 3872 1756 3872 
z
" transform="scale(0.015625)"/>
       </defs>
       <use xlink:href="#Arial-BoldMT-30"/>
      </g>
     </g>
    </g>
    <g id="xtick_2">
     <g id="line2d_2">
      <g>
       <use xlink:href="#mcf90e88427" x="1023.818007" y="198.907885" style="stroke: #000000; stroke-width: 2"/>
      </g>
     </g>
     <g id="text_2">
      <!-- 1 -->
      <g transform="translate(1018.813164 224.791947) scale(0.18 -0.18)">
       <defs>
        <path id="Arial-BoldMT-31" d="M 2519 0 
L 1641 0 
L 1641 3309 
Q 1159 2859 506 2644 
L 506 3441 
Q 850 3553 1253 3867 
Q 1656 4181 1806 4600 
L 2519 4600 
L 2519 0 
z
" transform="scale(0.015625)"/>
       </defs>
       <use xlink:href="#Arial-BoldMT-31"/>
      </g>
     </g>
    </g>
    <g id="xtick_3">
     <g id="line2d_3">
      <g>
       <use xlink:href="#mcf90e88427" x="916.363505" y="198.907885" style="stroke: #000000; stroke-width: 2"/>
      </g>
     </g>
     <g id="text_3">
      <!-- 2 -->
      <g transform="translate(911.358662 224.791947) scale(0.18 -0.18)">
       <defs>
        <path id="Arial-BoldMT-32" d="M 3238 816 
L 3238 0 
L 159 0 
Q 209 463 459 877 
Q 709 1291 1447 1975 
Q 2041 2528 2175 2725 
Q 2356 2997 2356 3263 
Q 2356 3556 2198 3714 
Q 2041 3872 1763 3872 
Q 1488 3872 1325 3706 
Q 1163 3541 1138 3156 
L 263 3244 
Q 341 3969 753 4284 
Q 1166 4600 1784 4600 
Q 2463 4600 2850 4234 
Q 3238 3869 3238 3325 
Q 3238 3016 3127 2736 
Q 3016 2456 2775 2150 
Q 2616 1947 2200 1565 
Q 1784 1184 1673 1059 
Q 1563 934 1494 816 
L 3238 816 
z
" transform="scale(0.015625)"/>
       </defs>
       <use xlink:href="#Arial-BoldMT-32"/>
      </g>
     </g>
    </g>
    <g id="xtick_4">
     <g id="line2d_4">
      <g>
       <use xlink:href="#mcf90e88427" x="808.909004" y="198.907885" style="stroke: #000000; stroke-width: 2"/>
      </g>
     </g>
     <g id="text_4">
      <!-- 3 -->
      <g transform="translate(803.90416 224.791947) scale(0.18 -0.18)">
       <defs>
        <path id="Arial-BoldMT-33" d="M 241 1216 
L 1091 1319 
Q 1131 994 1309 822 
Q 1488 650 1741 650 
Q 2013 650 2198 856 
Q 2384 1063 2384 1413 
Q 2384 1744 2206 1937 
Q 2028 2131 1772 2131 
Q 1603 2131 1369 2066 
L 1466 2781 
Q 1822 2772 2009 2936 
Q 2197 3100 2197 3372 
Q 2197 3603 2059 3740 
Q 1922 3878 1694 3878 
Q 1469 3878 1309 3722 
Q 1150 3566 1116 3266 
L 306 3403 
Q 391 3819 561 4067 
Q 731 4316 1036 4458 
Q 1341 4600 1719 4600 
Q 2366 4600 2756 4188 
Q 3078 3850 3078 3425 
Q 3078 2822 2419 2463 
Q 2813 2378 3048 2084 
Q 3284 1791 3284 1375 
Q 3284 772 2843 347 
Q 2403 -78 1747 -78 
Q 1125 -78 715 280 
Q 306 638 241 1216 
z
" transform="scale(0.015625)"/>
       </defs>
       <use xlink:href="#Arial-BoldMT-33"/>
      </g>
     </g>
    </g>
    <g id="xtick_5">
     <g id="line2d_5">
      <g>
       <use xlink:href="#mcf90e88427" x="701.454502" y="198.907885" style="stroke: #000000; stroke-width: 2"/>
      </g>
     </g>
     <g id="text_5">
      <!-- 4 -->
      <g transform="translate(696.449658 224.791947) scale(0.18 -0.18)">
       <defs>
        <path id="Arial-BoldMT-34" d="M 1994 0 
L 1994 922 
L 119 922 
L 119 1691 
L 2106 4600 
L 2844 4600 
L 2844 1694 
L 3413 1694 
L 3413 922 
L 2844 922 
L 2844 0 
L 1994 0 
z
M 1994 1694 
L 1994 3259 
L 941 1694 
L 1994 1694 
z
" transform="scale(0.015625)"/>
       </defs>
       <use xlink:href="#Arial-BoldMT-34"/>
      </g>
     </g>
    </g>
    <g id="xtick_6">
     <g id="line2d_6">
      <g>
       <use xlink:href="#mcf90e88427" x="594" y="198.907885" style="stroke: #000000; stroke-width: 2"/>
      </g>
     </g>
     <g id="text_6">
      <!-- 5 -->
      <g transform="translate(588.995156 224.791947) scale(0.18 -0.18)">
       <defs>
        <path id="Arial-BoldMT-35" d="M 284 1178 
L 1159 1269 
Q 1197 972 1381 798 
Q 1566 625 1806 625 
Q 2081 625 2272 848 
Q 2463 1072 2463 1522 
Q 2463 1944 2273 2155 
Q 2084 2366 1781 2366 
Q 1403 2366 1103 2031 
L 391 2134 
L 841 4519 
L 3163 4519 
L 3163 3697 
L 1506 3697 
L 1369 2919 
Q 1663 3066 1969 3066 
Q 2553 3066 2959 2641 
Q 3366 2216 3366 1538 
Q 3366 972 3038 528 
Q 2591 -78 1797 -78 
Q 1163 -78 763 262 
Q 363 603 284 1178 
z
" transform="scale(0.015625)"/>
       </defs>
       <use xlink:href="#Arial-BoldMT-35"/>
      </g>
     </g>
    </g>
    <g id="xtick_7">
     <g id="line2d_7">
      <g>
       <use xlink:href="#mcf90e88427" x="486.545498" y="198.907885" style="stroke: #000000; stroke-width: 2"/>
      </g>
     </g>
     <g id="text_7">
      <!-- 6 -->
      <g transform="translate(481.540654 224.791947) scale(0.18 -0.18)">
       <defs>
        <path id="Arial-BoldMT-36" d="M 3247 3459 
L 2397 3366 
Q 2366 3628 2234 3753 
Q 2103 3878 1894 3878 
Q 1616 3878 1423 3628 
Q 1231 3378 1181 2588 
Q 1509 2975 1997 2975 
Q 2547 2975 2939 2556 
Q 3331 2138 3331 1475 
Q 3331 772 2918 347 
Q 2506 -78 1859 -78 
Q 1166 -78 719 461 
Q 272 1000 272 2228 
Q 272 3488 737 4044 
Q 1203 4600 1947 4600 
Q 2469 4600 2811 4308 
Q 3153 4016 3247 3459 
z
M 1256 1544 
Q 1256 1116 1453 883 
Q 1650 650 1903 650 
Q 2147 650 2309 840 
Q 2472 1031 2472 1466 
Q 2472 1913 2297 2120 
Q 2122 2328 1859 2328 
Q 1606 2328 1431 2129 
Q 1256 1931 1256 1544 
z
" transform="scale(0.015625)"/>
       </defs>
       <use xlink:href="#Arial-BoldMT-36"/>
      </g>
     </g>
    </g>
    <g id="xtick_8">
     <g id="line2d_8">
      <g>
       <use xlink:href="#mcf90e88427" x="379.090996" y="198.907885" style="stroke: #000000; stroke-width: 2"/>
      </g>
     </g>
     <g id="text_8">
      <!-- 7 -->
      <g transform="translate(374.086153 224.791947) scale(0.18 -0.18)">
       <defs>
        <path id="Arial-BoldMT-37" d="M 272 3703 
L 272 4519 
L 3275 4519 
L 3275 3881 
Q 2903 3516 2518 2831 
Q 2134 2147 1932 1376 
Q 1731 606 1734 0 
L 888 0 
Q 909 950 1279 1937 
Q 1650 2925 2269 3703 
L 272 3703 
z
" transform="scale(0.015625)"/>
       </defs>
       <use xlink:href="#Arial-BoldMT-37"/>
      </g>
     </g>
    </g>
    <g id="xtick_9">
     <g id="line2d_9">
      <g>
       <use xlink:href="#mcf90e88427" x="271.636495" y="198.907885" style="stroke: #000000; stroke-width: 2"/>
      </g>
     </g>
     <g id="text_9">
      <!-- 8 -->
      <g transform="translate(266.631651 224.791947) scale(0.18 -0.18)">
       <defs>
        <path id="Arial-BoldMT-38" d="M 1025 2472 
Q 684 2616 529 2867 
Q 375 3119 375 3419 
Q 375 3931 733 4265 
Q 1091 4600 1750 4600 
Q 2403 4600 2764 4265 
Q 3125 3931 3125 3419 
Q 3125 3100 2959 2851 
Q 2794 2603 2494 2472 
Q 2875 2319 3073 2025 
Q 3272 1731 3272 1347 
Q 3272 713 2867 316 
Q 2463 -81 1791 -81 
Q 1166 -81 750 247 
Q 259 634 259 1309 
Q 259 1681 443 1992 
Q 628 2303 1025 2472 
z
M 1206 3356 
Q 1206 3094 1354 2947 
Q 1503 2800 1750 2800 
Q 2000 2800 2150 2948 
Q 2300 3097 2300 3359 
Q 2300 3606 2151 3754 
Q 2003 3903 1759 3903 
Q 1506 3903 1356 3753 
Q 1206 3603 1206 3356 
z
M 1125 1394 
Q 1125 1031 1311 828 
Q 1497 625 1775 625 
Q 2047 625 2225 820 
Q 2403 1016 2403 1384 
Q 2403 1706 2222 1901 
Q 2041 2097 1763 2097 
Q 1441 2097 1283 1875 
Q 1125 1653 1125 1394 
z
" transform="scale(0.015625)"/>
       </defs>
       <use xlink:href="#Arial-BoldMT-38"/>
      </g>
     </g>
    </g>
    <g id="xtick_10">
     <g id="line2d_10">
      <g>
       <use xlink:href="#mcf90e88427" x="164.181993" y="198.907885" style="stroke: #000000; stroke-width: 2"/>
      </g>
     </g>
     <g id="text_10">
      <!-- 9 -->
      <g transform="translate(159.177149 224.791947) scale(0.18 -0.18)">
       <defs>
        <path id="Arial-BoldMT-39" d="M 291 1059 
L 1141 1153 
Q 1172 894 1303 769 
Q 1434 644 1650 644 
Q 1922 644 2112 894 
Q 2303 1144 2356 1931 
Q 2025 1547 1528 1547 
Q 988 1547 595 1964 
Q 203 2381 203 3050 
Q 203 3747 617 4173 
Q 1031 4600 1672 4600 
Q 2369 4600 2816 4061 
Q 3263 3522 3263 2288 
Q 3263 1031 2797 475 
Q 2331 -81 1584 -81 
Q 1047 -81 715 205 
Q 384 491 291 1059 
z
M 2278 2978 
Q 2278 3403 2083 3637 
Q 1888 3872 1631 3872 
Q 1388 3872 1227 3680 
Q 1066 3488 1066 3050 
Q 1066 2606 1241 2398 
Q 1416 2191 1678 2191 
Q 1931 2191 2104 2391 
Q 2278 2591 2278 2978 
z
" transform="scale(0.015625)"/>
       </defs>
       <use xlink:href="#Arial-BoldMT-39"/>
      </g>
     </g>
    </g>
    <g id="xtick_11">
     <g id="line2d_11">
      <g>
       <use xlink:href="#mcf90e88427" x="56.727491" y="198.907885" style="stroke: #000000; stroke-width: 2"/>
      </g>
     </g>
     <g id="text_11">
      <!-- 10 -->
      <g transform="translate(46.717803 224.791947) scale(0.18 -0.18)">
       <use xlink:href="#Arial-BoldMT-31"/>
       <use xlink:href="#Arial-BoldMT-30" x="55.615234"/>
      </g>
     </g>
    </g>
    <g id="text_12">
     <!-- Chemical Shift / ppm -->
     <g transform="translate(504.992813 245.447573) scale(0.18 -0.18)">
      <defs>
       <path id="Arial-BoldMT-43" d="M 3397 1684 
L 4294 1400 
Q 4088 650 3608 286 
Q 3128 -78 2391 -78 
Q 1478 -78 890 545 
Q 303 1169 303 2250 
Q 303 3394 893 4026 
Q 1484 4659 2447 4659 
Q 3288 4659 3813 4163 
Q 4125 3869 4281 3319 
L 3366 3100 
Q 3284 3456 3026 3662 
Q 2769 3869 2400 3869 
Q 1891 3869 1573 3503 
Q 1256 3138 1256 2319 
Q 1256 1450 1568 1081 
Q 1881 713 2381 713 
Q 2750 713 3015 947 
Q 3281 1181 3397 1684 
z
" transform="scale(0.015625)"/>
       <path id="Arial-BoldMT-68" d="M 1334 4581 
L 1334 2897 
Q 1759 3394 2350 3394 
Q 2653 3394 2897 3281 
Q 3141 3169 3264 2994 
Q 3388 2819 3433 2606 
Q 3478 2394 3478 1947 
L 3478 0 
L 2600 0 
L 2600 1753 
Q 2600 2275 2550 2415 
Q 2500 2556 2373 2639 
Q 2247 2722 2056 2722 
Q 1838 2722 1666 2615 
Q 1494 2509 1414 2295 
Q 1334 2081 1334 1663 
L 1334 0 
L 456 0 
L 456 4581 
L 1334 4581 
z
" transform="scale(0.015625)"/>
       <path id="Arial-BoldMT-65" d="M 2381 1056 
L 3256 909 
Q 3088 428 2723 176 
Q 2359 -75 1813 -75 
Q 947 -75 531 491 
Q 203 944 203 1634 
Q 203 2459 634 2926 
Q 1066 3394 1725 3394 
Q 2466 3394 2894 2905 
Q 3322 2416 3303 1406 
L 1103 1406 
Q 1113 1016 1316 798 
Q 1519 581 1822 581 
Q 2028 581 2168 693 
Q 2309 806 2381 1056 
z
M 2431 1944 
Q 2422 2325 2234 2523 
Q 2047 2722 1778 2722 
Q 1491 2722 1303 2513 
Q 1116 2303 1119 1944 
L 2431 1944 
z
" transform="scale(0.015625)"/>
       <path id="Arial-BoldMT-6d" d="M 394 3319 
L 1203 3319 
L 1203 2866 
Q 1638 3394 2238 3394 
Q 2556 3394 2790 3262 
Q 3025 3131 3175 2866 
Q 3394 3131 3647 3262 
Q 3900 3394 4188 3394 
Q 4553 3394 4806 3245 
Q 5059 3097 5184 2809 
Q 5275 2597 5275 2122 
L 5275 0 
L 4397 0 
L 4397 1897 
Q 4397 2391 4306 2534 
Q 4184 2722 3931 2722 
Q 3747 2722 3584 2609 
Q 3422 2497 3350 2280 
Q 3278 2063 3278 1594 
L 3278 0 
L 2400 0 
L 2400 1819 
Q 2400 2303 2353 2443 
Q 2306 2584 2207 2653 
Q 2109 2722 1941 2722 
Q 1738 2722 1575 2612 
Q 1413 2503 1342 2297 
Q 1272 2091 1272 1613 
L 1272 0 
L 394 0 
L 394 3319 
z
" transform="scale(0.015625)"/>
       <path id="Arial-BoldMT-69" d="M 459 3769 
L 459 4581 
L 1338 4581 
L 1338 3769 
L 459 3769 
z
M 459 0 
L 459 3319 
L 1338 3319 
L 1338 0 
L 459 0 
z
" transform="scale(0.015625)"/>
       <path id="Arial-BoldMT-63" d="M 3353 2338 
L 2488 2181 
Q 2444 2441 2289 2572 
Q 2134 2703 1888 2703 
Q 1559 2703 1364 2476 
Q 1169 2250 1169 1719 
Q 1169 1128 1367 884 
Q 1566 641 1900 641 
Q 2150 641 2309 783 
Q 2469 925 2534 1272 
L 3397 1125 
Q 3263 531 2881 228 
Q 2500 -75 1859 -75 
Q 1131 -75 698 384 
Q 266 844 266 1656 
Q 266 2478 700 2936 
Q 1134 3394 1875 3394 
Q 2481 3394 2839 3133 
Q 3197 2872 3353 2338 
z
" transform="scale(0.015625)"/>
       <path id="Arial-BoldMT-61" d="M 1116 2306 
L 319 2450 
Q 453 2931 781 3162 
Q 1109 3394 1756 3394 
Q 2344 3394 2631 3255 
Q 2919 3116 3036 2902 
Q 3153 2688 3153 2116 
L 3144 1091 
Q 3144 653 3186 445 
Q 3228 238 3344 0 
L 2475 0 
Q 2441 88 2391 259 
Q 2369 338 2359 363 
Q 2134 144 1878 34 
Q 1622 -75 1331 -75 
Q 819 -75 523 203 
Q 228 481 228 906 
Q 228 1188 362 1408 
Q 497 1628 739 1745 
Q 981 1863 1438 1950 
Q 2053 2066 2291 2166 
L 2291 2253 
Q 2291 2506 2166 2614 
Q 2041 2722 1694 2722 
Q 1459 2722 1328 2630 
Q 1197 2538 1116 2306 
z
M 2291 1594 
Q 2122 1538 1756 1459 
Q 1391 1381 1278 1306 
Q 1106 1184 1106 997 
Q 1106 813 1243 678 
Q 1381 544 1594 544 
Q 1831 544 2047 700 
Q 2206 819 2256 991 
Q 2291 1103 2291 1419 
L 2291 1594 
z
" transform="scale(0.015625)"/>
       <path id="Arial-BoldMT-6c" d="M 459 0 
L 459 4581 
L 1338 4581 
L 1338 0 
L 459 0 
z
" transform="scale(0.015625)"/>
       <path id="Arial-BoldMT-20" transform="scale(0.015625)"/>
       <path id="Arial-BoldMT-53" d="M 231 1491 
L 1131 1578 
Q 1213 1125 1461 912 
Q 1709 700 2131 700 
Q 2578 700 2804 889 
Q 3031 1078 3031 1331 
Q 3031 1494 2936 1608 
Q 2841 1722 2603 1806 
Q 2441 1863 1863 2006 
Q 1119 2191 819 2459 
Q 397 2838 397 3381 
Q 397 3731 595 4036 
Q 794 4341 1167 4500 
Q 1541 4659 2069 4659 
Q 2931 4659 3367 4281 
Q 3803 3903 3825 3272 
L 2900 3231 
Q 2841 3584 2645 3739 
Q 2450 3894 2059 3894 
Q 1656 3894 1428 3728 
Q 1281 3622 1281 3444 
Q 1281 3281 1419 3166 
Q 1594 3019 2269 2859 
Q 2944 2700 3267 2529 
Q 3591 2359 3773 2064 
Q 3956 1769 3956 1334 
Q 3956 941 3737 597 
Q 3519 253 3119 86 
Q 2719 -81 2122 -81 
Q 1253 -81 787 320 
Q 322 722 231 1491 
z
" transform="scale(0.015625)"/>
       <path id="Arial-BoldMT-66" d="M 75 3319 
L 563 3319 
L 563 3569 
Q 563 3988 652 4194 
Q 741 4400 980 4529 
Q 1219 4659 1584 4659 
Q 1959 4659 2319 4547 
L 2200 3934 
Q 1991 3984 1797 3984 
Q 1606 3984 1523 3895 
Q 1441 3806 1441 3553 
L 1441 3319 
L 2097 3319 
L 2097 2628 
L 1441 2628 
L 1441 0 
L 563 0 
L 563 2628 
L 75 2628 
L 75 3319 
z
" transform="scale(0.015625)"/>
       <path id="Arial-BoldMT-74" d="M 1981 3319 
L 1981 2619 
L 1381 2619 
L 1381 1281 
Q 1381 875 1398 808 
Q 1416 741 1477 697 
Q 1538 653 1625 653 
Q 1747 653 1978 738 
L 2053 56 
Q 1747 -75 1359 -75 
Q 1122 -75 931 4 
Q 741 84 652 211 
Q 563 338 528 553 
Q 500 706 500 1172 
L 500 2619 
L 97 2619 
L 97 3319 
L 500 3319 
L 500 3978 
L 1381 4491 
L 1381 3319 
L 1981 3319 
z
" transform="scale(0.015625)"/>
       <path id="Arial-BoldMT-2f" d="M -9 -78 
L 1125 4659 
L 1784 4659 
L 638 -78 
L -9 -78 
z
" transform="scale(0.015625)"/>
       <path id="Arial-BoldMT-70" d="M 434 3319 
L 1253 3319 
L 1253 2831 
Q 1413 3081 1684 3237 
Q 1956 3394 2288 3394 
Q 2866 3394 3269 2941 
Q 3672 2488 3672 1678 
Q 3672 847 3265 386 
Q 2859 -75 2281 -75 
Q 2006 -75 1782 34 
Q 1559 144 1313 409 
L 1313 -1263 
L 434 -1263 
L 434 3319 
z
M 1303 1716 
Q 1303 1156 1525 889 
Q 1747 622 2066 622 
Q 2372 622 2575 867 
Q 2778 1113 2778 1672 
Q 2778 2194 2568 2447 
Q 2359 2700 2050 2700 
Q 1728 2700 1515 2451 
Q 1303 2203 1303 1716 
z
" transform="scale(0.015625)"/>
      </defs>
      <use xlink:href="#Arial-BoldMT-43"/>
      <use xlink:href="#Arial-BoldMT-68" x="72.216797"/>
      <use xlink:href="#Arial-BoldMT-65" x="133.300781"/>
      <use xlink:href="#Arial-BoldMT-6d" x="188.916016"/>
      <use xlink:href="#Arial-BoldMT-69" x="277.832031"/>
      <use xlink:href="#Arial-BoldMT-63" x="305.615234"/>
      <use xlink:href="#Arial-BoldMT-61" x="361.230469"/>
      <use xlink:href="#Arial-BoldMT-6c" x="416.845703"/>
      <use xlink:href="#Arial-BoldMT-20" x="444.628906"/>
      <use xlink:href="#Arial-BoldMT-53" x="472.412109"/>
      <use xlink:href="#Arial-BoldMT-68" x="539.111328"/>
      <use xlink:href="#Arial-BoldMT-69" x="600.195312"/>
      <use xlink:href="#Arial-BoldMT-66" x="627.978516"/>
      <use xlink:href="#Arial-BoldMT-74" x="661.279297"/>
      <use xlink:href="#Arial-BoldMT-20" x="694.580078"/>
      <use xlink:href="#Arial-BoldMT-2f" x="722.363281"/>
      <use xlink:href="#Arial-BoldMT-20" x="750.146484"/>
      <use xlink:href="#Arial-BoldMT-70" x="777.929688"/>
      <use xlink:href="#Arial-BoldMT-70" x="839.013672"/>
      <use xlink:href="#Arial-BoldMT-6d" x="900.097656"/>
     </g>
    </g>
   </g>
   <g id="matplotlib.axis_2"/>
   <g id="line2d_12">
    <path d="M 2.982981 189.888047 
L 3.59684 189.822649 
L 4.210699 189.625713 
L 4.619938 189.525132 
L 5.233798 189.034783 
L 5.847657 188.521805 
L 6.256896 188.47828 
L 6.666136 188.893507 
L 7.075375 189.304357 
L 7.484615 189.309957 
L 8.303093 188.980468 
L 8.916953 188.928167 
L 9.326192 188.863333 
L 9.735432 189.120251 
L 10.349291 189.558519 
L 10.75853 189.628955 
L 11.372389 189.419864 
L 11.986249 189.144377 
L 12.804727 189.137773 
L 14.441685 189.360388 
L 15.055544 189.523233 
L 15.464784 189.472615 
L 15.669404 189.562578 
L 17.101742 190.957919 
L 17.715601 191.182243 
L 18.12484 191.053713 
L 18.53408 190.618187 
L 19.147939 189.503902 
L 19.761798 188.554374 
L 20.171038 188.297072 
L 20.580277 188.343709 
L 20.989517 188.594705 
L 21.398756 189.116639 
L 21.807995 189.661881 
L 22.217235 189.785605 
L 22.831094 189.711912 
L 23.444953 189.465663 
L 23.649573 189.553185 
L 24.672672 190.583713 
L 25.081911 190.522305 
L 25.90039 189.990461 
L 26.309629 190.244049 
L 27.128108 191.115546 
L 27.332728 191.132885 
L 28.560446 190.436452 
L 28.969686 190.422265 
L 29.378925 190.179221 
L 31.015883 188.576108 
L 31.425123 188.651021 
L 32.448221 189.102026 
L 32.857461 188.729456 
L 33.47132 187.96664 
L 33.880559 187.774394 
L 35.108278 187.728357 
L 35.517517 188.151033 
L 36.131376 188.911972 
L 36.540616 189.158065 
L 38.791433 189.978137 
L 39.200672 190.358835 
L 39.405292 190.41569 
L 39.814531 190.168147 
L 40.223771 189.971166 
L 40.428391 190.061442 
L 41.04225 190.683303 
L 41.246869 190.641726 
L 42.883827 189.20043 
L 43.702306 189.262522 
L 45.339264 189.577646 
L 45.748503 189.527444 
L 46.362363 189.227482 
L 46.771602 189.358481 
L 47.180842 189.536625 
L 47.385461 189.429923 
L 48.20394 188.597815 
L 48.40856 188.680501 
L 48.817799 189.218445 
L 49.227039 189.828443 
L 49.636278 190.013556 
L 51.477856 189.196361 
L 51.887095 189.181441 
L 52.296335 189.359582 
L 52.910194 189.844103 
L 53.319433 189.829433 
L 53.728673 189.391557 
L 54.547152 188.309288 
L 55.161011 187.979995 
L 55.77487 187.834772 
L 56.593349 187.949126 
L 57.207208 188.305036 
L 58.230307 188.423243 
L 59.253405 189.431395 
L 59.662645 189.301282 
L 60.276504 189.022729 
L 60.685744 189.191766 
L 61.504222 189.851732 
L 61.913462 189.860736 
L 62.527321 189.631905 
L 62.93656 189.872471 
L 63.55042 190.685511 
L 64.164279 191.413664 
L 64.573518 191.530552 
L 65.187377 191.123916 
L 65.801237 190.603629 
L 66.210476 190.018996 
L 66.824335 188.929649 
L 67.233575 188.660465 
L 67.642814 188.937183 
L 68.256673 189.369671 
L 69.484392 189.997339 
L 69.893631 189.986632 
L 70.50749 189.558934 
L 71.12135 189.145604 
L 71.530589 189.146131 
L 72.144448 189.468485 
L 72.758307 189.728347 
L 73.372167 189.679079 
L 75.009124 189.337864 
L 75.827603 189.776602 
L 77.055322 189.891444 
L 77.464561 189.730077 
L 78.896899 188.649825 
L 79.919998 188.377728 
L 80.329237 188.680742 
L 81.147716 189.463414 
L 81.556956 189.560565 
L 81.966195 189.414605 
L 82.580054 188.986961 
L 84.012392 189.104235 
L 84.421632 189.319515 
L 85.035491 189.278532 
L 85.64935 189.334152 
L 86.05859 189.510284 
L 86.467829 189.89037 
L 87.081688 190.539136 
L 87.490928 190.69859 
L 87.900167 190.654428 
L 88.309407 190.290198 
L 88.923266 189.626072 
L 89.537125 189.410244 
L 90.150984 189.518424 
L 91.992562 190.348817 
L 92.606421 190.509028 
L 93.01566 190.380793 
L 93.62952 190.194426 
L 94.447998 190.059585 
L 95.471097 190.511424 
L 95.880337 190.340555 
L 96.698815 189.942018 
L 99.154252 189.659433 
L 99.768111 189.749547 
L 100.58659 189.732779 
L 100.99583 189.811563 
L 101.405069 189.606109 
L 101.814309 189.241908 
L 102.223548 189.146948 
L 103.246647 189.275667 
L 104.065126 189.337873 
L 104.678985 189.184615 
L 105.088224 189.376287 
L 106.520562 190.725948 
L 106.929802 190.573757 
L 107.339041 190.087371 
L 107.9529 189.220257 
L 108.36214 188.986988 
L 108.771379 188.995975 
L 109.180619 189.137916 
L 109.589858 189.489249 
L 110.203717 190.12549 
L 110.612957 190.258578 
L 111.431436 190.203343 
L 112.045295 190.29782 
L 112.454534 190.134326 
L 113.273013 189.616519 
L 113.886872 189.807365 
L 115.114591 190.212968 
L 116.137689 189.912185 
L 116.546929 190.114759 
L 117.160788 190.714812 
L 117.365408 190.686939 
L 117.979267 190.26481 
L 118.388506 190.350286 
L 119.002366 190.708575 
L 119.206985 190.652139 
L 120.230084 189.651275 
L 121.048563 189.695311 
L 121.457802 189.798272 
L 122.276281 190.377884 
L 122.685521 190.083771 
L 123.708619 188.874157 
L 123.913239 188.826395 
L 125.345577 189.356003 
L 125.959436 189.822512 
L 126.777915 190.19005 
L 127.187155 190.377567 
L 127.596394 190.199589 
L 128.414873 189.513429 
L 129.028732 189.251997 
L 129.437972 189.253871 
L 129.847211 189.544131 
L 130.256451 189.905045 
L 130.66569 189.910341 
L 131.07493 189.832128 
L 131.484169 190.044031 
L 131.893408 190.309294 
L 132.507268 190.309657 
L 133.325747 190.161289 
L 133.734986 189.819744 
L 134.758085 188.804754 
L 135.167324 188.82422 
L 135.781183 189.002965 
L 137.213521 188.920539 
L 138.645859 188.080882 
L 139.055099 188.092103 
L 139.464338 188.506714 
L 139.873578 188.905096 
L 140.282817 188.82559 
L 140.896676 188.582913 
L 141.510536 188.577664 
L 141.919775 188.614543 
L 142.738254 188.298454 
L 143.352113 188.533522 
L 143.761353 188.951685 
L 144.579831 190.248687 
L 144.784451 190.303045 
L 145.193691 190.043214 
L 145.60293 189.780851 
L 146.01217 189.817137 
L 146.421409 190.141065 
L 147.035268 190.787556 
L 147.239888 190.825633 
L 147.649127 190.566539 
L 148.058367 190.298823 
L 148.672226 190.156325 
L 149.286085 190.310179 
L 150.513804 190.642998 
L 151.332282 190.133181 
L 151.741522 190.328197 
L 152.560001 190.903586 
L 153.17386 191.125144 
L 153.583099 190.801724 
L 155.015438 189.068284 
L 156.243156 188.993669 
L 158.903212 188.753453 
L 159.517072 188.47198 
L 160.130931 188.53447 
L 160.54017 188.276124 
L 160.94941 188.013313 
L 161.154029 188.050459 
L 161.563269 188.517549 
L 161.972508 189.126323 
L 162.381748 189.24679 
L 162.995607 189.048762 
L 163.814086 188.478963 
L 164.223325 188.50834 
L 164.837184 189.075554 
L 165.246424 189.426749 
L 165.655663 189.45918 
L 166.474142 189.180348 
L 167.497241 189.178724 
L 168.1111 188.384077 
L 168.52034 187.871674 
L 168.929579 187.660628 
L 169.134199 187.704017 
L 169.543438 188.168373 
L 169.952678 188.727592 
L 170.361917 188.92782 
L 170.771157 188.906706 
L 171.385016 188.515928 
L 171.998875 188.063834 
L 172.408114 187.997556 
L 172.612734 188.162539 
L 173.021974 188.970496 
L 173.635833 190.115332 
L 174.045072 190.458631 
L 174.863551 190.696893 
L 175.272791 190.630348 
L 176.705129 189.71916 
L 177.318988 188.560763 
L 177.728227 187.89267 
L 178.137467 187.638573 
L 178.546706 187.644932 
L 180.183664 188.198734 
L 180.797523 188.20107 
L 181.411382 187.906488 
L 181.820622 188.077726 
L 183.04834 189.01394 
L 183.25296 189.002346 
L 183.662199 188.617015 
L 184.071439 188.286412 
L 184.480678 188.359469 
L 185.708397 189.107932 
L 186.526875 189.009924 
L 187.345354 188.766769 
L 187.959214 188.862808 
L 188.982312 188.524966 
L 190.210031 189.188343 
L 190.82389 189.81159 
L 191.028509 189.779598 
L 191.233129 189.55101 
L 191.846988 188.075581 
L 192.256228 187.375839 
L 192.665467 187.175781 
L 193.074707 187.421645 
L 193.893186 188.059834 
L 194.507045 188.374237 
L 195.325524 188.605136 
L 195.939383 188.87651 
L 196.144003 188.856806 
L 196.553242 188.346159 
L 197.167101 187.397707 
L 198.1902 186.608937 
L 199.417918 185.428261 
L 200.441017 185.266288 
L 201.873355 185.2983 
L 202.282594 185.040084 
L 203.101073 184.031847 
L 203.714933 182.621463 
L 205.35189 177.574445 
L 205.96575 175.009084 
L 206.784228 170.731303 
L 207.193468 167.668552 
L 207.807327 160.839161 
L 208.421186 151.342809 
L 209.035045 137.642867 
L 209.648905 117.574414 
L 210.262764 87.2049 
L 211.490482 6.955139 
L 211.695102 3.00024 
L 211.899722 5.062697 
L 212.104341 12.986154 
L 212.513581 41.391874 
L 213.33206 102.266223 
L 213.945919 129.706726 
L 214.559778 145.208314 
L 214.969018 151.433553 
L 215.378257 155.166953 
L 215.787496 156.694486 
L 215.992116 156.813042 
L 216.196736 156.653932 
L 216.810595 155.903383 
L 217.015215 156.093433 
L 217.424454 157.552841 
L 218.038313 160.198692 
L 218.242933 160.546413 
L 218.447553 160.61657 
L 218.856792 160.313291 
L 219.266032 159.727542 
L 219.675271 158.5533 
L 220.084511 156.535516 
L 220.69837 151.590058 
L 221.107609 148.755706 
L 221.312229 148.223926 
L 221.516849 148.44519 
L 221.926088 150.514654 
L 222.539947 153.861737 
L 223.358426 157.203124 
L 223.972285 159.814676 
L 224.176905 160.138134 
L 224.381525 160.115239 
L 224.586145 159.779008 
L 224.995384 158.321244 
L 225.404624 155.85225 
L 226.427722 148.358132 
L 226.632342 148.163653 
L 226.836962 148.541799 
L 228.473919 154.517728 
L 228.883159 157.472038 
L 229.701638 164.355503 
L 230.110877 166.184609 
L 230.315497 166.569337 
L 230.520117 166.665638 
L 230.724736 166.500617 
L 230.929356 166.087255 
L 231.338596 164.403471 
L 231.747835 161.254962 
L 232.361694 154.262114 
L 233.180173 144.467545 
L 233.384793 143.594828 
L 233.589413 143.919093 
L 233.998652 147.583723 
L 234.612511 154.419796 
L 235.43099 159.939217 
L 236.454089 166.309759 
L 237.067948 168.643194 
L 237.477187 169.480301 
L 237.681807 169.543574 
L 237.886427 169.302985 
L 238.091047 168.714217 
L 238.500286 166.528348 
L 239.114145 161.160551 
L 239.728004 153.194375 
L 240.341864 141.925765 
L 241.978821 108.748513 
L 242.592681 99.398411 
L 242.7973 98.456656 
L 243.00192 99.057977 
L 243.41116 103.813907 
L 244.229638 117.730698 
L 244.843498 132.024107 
L 245.866596 156.237915 
L 246.480455 165.235431 
L 247.094315 170.967357 
L 247.503554 173.680884 
L 247.912794 175.241318 
L 248.117413 175.566189 
L 248.322033 175.620371 
L 248.731272 175.307183 
L 249.140512 174.790219 
L 249.549751 173.663212 
L 249.958991 171.497735 
L 250.57285 166.459898 
L 252.005188 153.173326 
L 252.619047 150.007965 
L 252.823667 149.697442 
L 253.028287 150.029022 
L 253.232906 151.024628 
L 253.642146 154.50006 
L 255.279104 170.025479 
L 256.302202 177.991885 
L 256.916061 180.994843 
L 258.14378 184.81167 
L 258.553019 185.514868 
L 259.166878 185.815117 
L 259.985357 186.249734 
L 260.599217 186.613057 
L 261.826935 186.349088 
L 262.850034 185.43317 
L 263.259273 185.504608 
L 263.668512 185.943304 
L 264.486991 186.985918 
L 265.30547 187.275332 
L 266.123949 187.573597 
L 266.942428 187.68083 
L 267.760907 187.794743 
L 268.170146 187.473075 
L 268.988625 186.377388 
L 269.807104 185.283051 
L 271.853302 183.817069 
L 272.67178 182.470445 
L 273.490259 180.783405 
L 273.899499 180.475353 
L 274.308738 180.333301 
L 274.717978 179.738208 
L 275.127217 178.64648 
L 275.945696 176.289115 
L 276.559555 175.306856 
L 277.173414 173.473735 
L 277.787274 170.903498 
L 278.401133 166.8781 
L 279.014992 160.816114 
L 279.628851 152.1241 
L 280.24271 140.425185 
L 280.85657 123.670131 
L 281.470429 99.392783 
L 282.493527 53.721232 
L 282.902767 42.800012 
L 283.312006 37.386569 
L 283.516626 36.375148 
L 283.721246 36.414029 
L 283.925865 37.689038 
L 284.130485 40.508644 
L 284.539725 51.626898 
L 285.972063 104.795212 
L 286.381302 110.051893 
L 286.585922 110.734493 
L 286.790542 110.294431 
L 286.995161 108.847288 
L 287.404401 103.624379 
L 288.427499 88.553886 
L 288.836739 84.330645 
L 289.041359 83.012352 
L 289.245978 82.627383 
L 289.450598 83.573354 
L 289.655218 86.116107 
L 290.064457 95.310839 
L 290.882936 114.978516 
L 291.906035 135.115918 
L 292.929133 157.676077 
L 293.542993 166.570536 
L 294.156852 172.290698 
L 294.566091 174.65486 
L 295.17995 176.73998 
L 295.79381 178.085706 
L 296.816908 179.921486 
L 297.430767 181.029817 
L 298.249246 182.219041 
L 300.295444 186.590893 
L 300.704683 186.759408 
L 301.727782 186.52839 
L 302.137021 186.871127 
L 303.364739 188.38974 
L 304.592458 188.970129 
L 305.410937 188.79739 
L 306.229416 189.066528 
L 306.638655 188.641854 
L 307.047895 188.062005 
L 307.252514 187.941243 
L 307.457134 187.991034 
L 308.275613 188.802451 
L 308.480233 188.692135 
L 309.298712 187.774044 
L 309.503331 187.849074 
L 309.912571 188.395768 
L 310.32181 188.936178 
L 310.73105 188.931224 
L 311.140289 188.908976 
L 311.549529 189.295709 
L 312.163388 189.953528 
L 312.368007 190.018373 
L 312.777247 189.769642 
L 313.391106 189.252227 
L 314.004965 189.007227 
L 314.414205 189.141934 
L 314.823444 189.312326 
L 315.232684 189.22167 
L 316.051163 188.796479 
L 316.460402 189.046886 
L 316.869641 189.264358 
L 317.68812 189.188757 
L 318.30198 189.660812 
L 319.120458 190.392329 
L 319.529698 190.354115 
L 319.938937 190.317027 
L 321.166656 190.608882 
L 321.985135 190.228595 
L 322.394374 190.254875 
L 323.008233 190.431643 
L 323.417473 190.324396 
L 325.25905 189.372384 
L 325.872909 189.007971 
L 326.486769 188.759285 
L 327.305248 188.005988 
L 327.714487 188.187388 
L 328.123726 188.444634 
L 328.532966 188.449478 
L 328.942205 188.384635 
L 329.965304 188.780742 
L 330.374543 189.386878 
L 331.193022 191.021265 
L 331.602262 191.374888 
L 331.806882 191.291719 
L 332.62536 190.561655 
L 333.648459 190.414752 
L 334.262318 190.050671 
L 335.080797 189.420988 
L 335.490037 189.413277 
L 336.308515 189.743763 
L 336.922375 189.711805 
L 337.331614 189.781382 
L 337.740854 189.412758 
L 338.354713 188.626841 
L 338.559332 188.525431 
L 338.763952 188.576051 
L 339.787051 189.339885 
L 340.40091 189.281358 
L 341.014769 189.576918 
L 342.242488 189.523251 
L 343.470206 190.307205 
L 343.879445 190.503004 
L 344.288685 190.744008 
L 344.697924 190.552047 
L 345.311783 190.088628 
L 345.925643 190.108223 
L 347.357981 190.360687 
L 348.381079 189.890895 
L 349.199558 188.703252 
L 349.813417 188.484753 
L 350.222657 188.633736 
L 350.631896 188.935115 
L 350.836516 188.915365 
L 351.654995 188.307699 
L 352.473474 189.097607 
L 353.291953 189.140242 
L 353.905812 189.204817 
L 354.519671 189.197507 
L 355.13353 189.171214 
L 355.54277 189.558588 
L 356.156629 190.425612 
L 356.361249 190.47241 
L 356.770488 190.189465 
L 357.793587 189.325635 
L 358.202826 189.219316 
L 358.612066 189.289251 
L 359.225925 189.691599 
L 359.839784 190.106857 
L 360.658263 190.4006 
L 361.067502 190.264717 
L 362.499841 189.095586 
L 363.1137 188.355755 
L 363.522939 188.104498 
L 364.136798 187.954588 
L 364.955277 187.328535 
L 365.569136 186.581714 
L 365.978376 186.083045 
L 366.182996 185.987601 
L 366.592235 186.158461 
L 367.206094 186.510994 
L 368.024573 186.727197 
L 368.843052 187.145891 
L 369.047672 187.058048 
L 369.456911 186.544218 
L 370.07077 185.421335 
L 370.68463 183.734421 
L 371.912348 179.902052 
L 372.526207 176.913182 
L 374.163165 166.38817 
L 374.777024 160.906533 
L 375.390883 153.373946 
L 376.004742 142.754686 
L 376.618602 127.339384 
L 378.05094 86.615346 
L 378.255559 85.378668 
L 378.460179 85.975513 
L 378.869419 91.399604 
L 379.892517 113.623285 
L 380.710996 129.194221 
L 381.938715 146.434792 
L 382.552574 153.452663 
L 382.961813 155.980789 
L 383.166433 156.498805 
L 383.371053 156.595366 
L 383.575672 156.342154 
L 383.984912 155.031212 
L 384.394151 152.682188 
L 384.803391 149.097938 
L 385.41725 141.382932 
L 386.235729 127.455292 
L 387.258827 106.02027 
L 388.077306 83.050415 
L 388.895785 59.443983 
L 389.305025 54.156397 
L 389.509644 54.859401 
L 389.714264 58.135145 
L 390.123504 71.48701 
L 391.555842 129.143011 
L 392.169701 142.861479 
L 392.98818 155.482413 
L 393.806659 165.581524 
L 394.420518 170.780117 
L 395.034377 174.409383 
L 395.443617 175.991505 
L 396.671335 179.596911 
L 397.694434 182.988622 
L 398.103673 183.601473 
L 398.512912 184.014116 
L 399.126772 185.230696 
L 399.945251 187.203419 
L 400.35449 188.095949 
L 401.582208 189.65943 
L 401.991448 189.7688 
L 402.605307 189.637805 
L 403.628406 189.24825 
L 404.856124 189.896249 
L 405.879223 189.738199 
L 406.493082 189.468927 
L 407.311561 189.592259 
L 408.948519 189.988514 
L 409.357758 189.92761 
L 409.766997 189.690339 
L 410.790096 188.878204 
L 411.199335 189.019625 
L 412.222434 190.032037 
L 412.631674 190.098434 
L 413.040913 190.103204 
L 413.450152 190.400679 
L 414.064012 190.825745 
L 414.473251 190.781996 
L 415.29173 190.381519 
L 415.700969 190.508112 
L 416.110209 190.818447 
L 416.314829 190.838439 
L 416.519448 190.651307 
L 417.337927 189.116168 
L 417.542547 189.056355 
L 417.951786 189.402747 
L 418.361026 189.840965 
L 418.770265 189.924337 
L 419.997984 189.702814 
L 420.611843 189.714368 
L 421.021082 189.4092 
L 422.248801 187.921761 
L 422.65804 187.767188 
L 424.294998 188.195591 
L 424.704237 188.365493 
L 425.522716 188.261275 
L 425.931956 188.603481 
L 426.545815 189.468196 
L 426.955054 189.414799 
L 427.159674 189.414707 
L 427.568914 189.882044 
L 428.592012 191.4287 
L 429.001252 191.408582 
L 431.047449 191.013041 
L 431.456688 190.253221 
L 432.479787 187.808985 
L 432.889027 187.192639 
L 433.298266 187.019186 
L 433.502886 187.11054 
L 433.912125 187.749764 
L 434.321365 188.475538 
L 435.549083 189.540536 
L 436.162942 189.902949 
L 436.572182 189.851668 
L 436.981421 189.500308 
L 438.209139 188.199446 
L 438.618379 187.952868 
L 438.822999 187.955164 
L 439.232238 188.328413 
L 440.255337 189.912053 
L 440.459956 190.011986 
L 440.869196 189.822787 
L 441.278435 189.551113 
L 441.687675 189.617691 
L 442.506154 190.064494 
L 442.915393 189.968873 
L 443.938492 189.345052 
L 444.96159 189.494066 
L 445.780069 189.247053 
L 446.189309 189.012115 
L 447.212407 187.94961 
L 447.621647 187.942017 
L 448.644745 188.273554 
L 449.053985 188.119383 
L 449.872464 188.139988 
L 450.281703 187.518706 
L 451.100182 185.768753 
L 451.509422 185.503577 
L 451.918661 185.304165 
L 452.53252 184.556139 
L 453.555619 183.097957 
L 453.964858 181.865208 
L 455.601816 174.969216 
L 456.011056 172.098729 
L 456.624915 165.716977 
L 457.852633 149.729486 
L 458.671112 136.539235 
L 459.080352 126.584554 
L 459.694211 104.055741 
L 460.921929 48.889924 
L 461.126549 46.129283 
L 461.331169 46.941121 
L 461.535788 50.9388 
L 462.149647 73.241989 
L 462.968126 102.307956 
L 463.786605 121.813384 
L 465.014324 147.035017 
L 465.628183 155.629337 
L 466.037422 158.987007 
L 466.446662 160.690678 
L 466.651281 160.988967 
L 466.855901 160.920259 
L 467.060521 160.498002 
L 467.46976 158.787691 
L 467.879 155.893278 
L 468.288239 151.363943 
L 468.902098 141.623583 
L 470.948296 103.44084 
L 471.971394 79.652438 
L 472.176014 78.053677 
L 472.380634 78.823161 
L 472.585254 82.245154 
L 472.994493 95.863521 
L 474.017592 135.907624 
L 474.631451 150.932494 
L 475.24531 159.90743 
L 476.882268 176.649468 
L 477.496127 180.368026 
L 477.905366 181.731643 
L 479.951564 186.164706 
L 480.770043 187.161086 
L 480.974662 187.263717 
L 481.383902 187.100178 
L 482.202381 186.459509 
L 482.407 186.554177 
L 482.81624 187.205576 
L 483.839339 188.975486 
L 484.453198 189.479391 
L 484.862437 189.620221 
L 485.271677 189.480605 
L 486.090156 188.882673 
L 486.908634 188.238205 
L 487.522494 187.982146 
L 487.931733 188.149364 
L 488.545592 188.883285 
L 489.159451 189.506375 
L 489.568691 189.565233 
L 490.18255 189.289789 
L 490.796409 188.946051 
L 491.410268 188.390033 
L 491.819508 188.29949 
L 493.047226 188.299441 
L 494.479564 189.386044 
L 495.093423 189.844949 
L 495.707283 190.390591 
L 496.116522 190.487294 
L 496.525762 190.191691 
L 497.75348 188.582734 
L 498.367339 188.360594 
L 498.776579 188.459001 
L 500.822776 189.42575 
L 501.232015 189.257422 
L 502.255114 188.38735 
L 504.301311 188.983391 
L 504.710551 189.145515 
L 505.11979 188.951769 
L 505.938269 188.153601 
L 506.347508 188.121291 
L 506.756748 188.38633 
L 507.370607 189.25796 
L 508.189086 190.440672 
L 508.802945 190.72211 
L 509.212185 190.800248 
L 511.258382 190.367592 
L 512.281481 190.761214 
L 512.89534 190.635079 
L 513.509199 190.697004 
L 513.918438 190.32594 
L 514.941537 188.961938 
L 515.146157 188.988091 
L 515.555396 189.406117 
L 516.169255 190.303101 
L 516.578495 190.497837 
L 517.396974 190.490828 
L 517.806213 190.221161 
L 518.624692 189.572033 
L 519.033932 189.507765 
L 519.443171 189.686788 
L 520.05703 190.360817 
L 520.46627 190.802547 
L 520.875509 190.945423 
L 521.284749 190.787985 
L 522.512467 189.710588 
L 522.717087 189.652639 
L 523.126326 189.847549 
L 524.149425 190.493703 
L 524.967904 190.519118 
L 525.786382 190.35907 
L 526.195622 190.465112 
L 526.400242 190.419267 
L 526.809481 189.967687 
L 528.241819 187.481476 
L 528.446439 187.463081 
L 528.855678 187.796615 
L 529.264918 188.145181 
L 529.878777 188.555227 
L 530.492636 189.10921 
L 531.311115 189.537534 
L 531.924974 189.973432 
L 532.334214 189.746204 
L 532.743453 189.588701 
L 533.357312 189.574513 
L 533.766552 189.315718 
L 534.380411 188.769515 
L 534.99427 188.809437 
L 536.426608 189.007709 
L 537.040467 189.285817 
L 538.268186 189.19489 
L 538.677425 189.273567 
L 539.291284 189.201378 
L 539.700524 189.494972 
L 540.928242 190.618693 
L 541.337482 190.736445 
L 541.746721 190.390194 
L 542.155961 190.006788 
L 542.5652 189.931883 
L 543.179059 190.02164 
L 543.792918 190.006177 
L 544.816017 190.211256 
L 546.248355 189.566701 
L 546.657595 189.576947 
L 547.066834 189.358957 
L 547.680693 188.998585 
L 548.294552 189.008133 
L 548.703792 189.133497 
L 549.522271 189.563964 
L 550.34075 189.292114 
L 550.954609 188.908235 
L 551.568468 188.523419 
L 551.977708 188.535638 
L 552.386947 188.763239 
L 552.796186 189.330413 
L 553.410046 190.284601 
L 553.614665 190.423031 
L 553.819285 190.395096 
L 554.228525 189.926071 
L 554.842384 189.154785 
L 555.251623 189.057314 
L 556.070102 189.292493 
L 556.479342 189.672283 
L 557.093201 190.254005 
L 557.70706 190.584332 
L 558.934778 191.49865 
L 560.367116 190.796396 
L 561.390215 189.960558 
L 561.799454 190.223344 
L 562.208694 190.423857 
L 563.231793 190.293146 
L 564.254891 191.035457 
L 564.459511 190.949393 
L 565.27799 190.024405 
L 565.687229 189.996479 
L 566.301088 190.048748 
L 566.710328 189.883962 
L 567.733426 189.335857 
L 568.142666 189.165768 
L 568.961145 188.619673 
L 569.575004 188.447141 
L 569.984243 188.258919 
L 570.393483 188.378726 
L 571.416582 188.97197 
L 571.825821 188.964491 
L 572.43968 188.89384 
L 573.053539 189.195236 
L 573.462779 189.351147 
L 573.872018 189.182819 
L 574.485877 188.544104 
L 575.304356 187.616855 
L 575.508976 187.636088 
L 575.918216 188.190848 
L 576.532075 189.192361 
L 576.941314 189.475012 
L 577.759793 189.435941 
L 578.373652 189.965861 
L 578.782892 190.305297 
L 579.192131 190.308955 
L 580.21523 189.623102 
L 580.829089 189.724261 
L 581.647568 190.206081 
L 581.852188 190.134623 
L 582.670667 189.481213 
L 583.079906 189.560639 
L 583.489145 189.84424 
L 583.898385 190.453838 
L 584.307624 191.124346 
L 584.716864 191.340929 
L 585.535343 191.366421 
L 585.944582 191.02215 
L 587.172301 189.42981 
L 587.58154 189.221475 
L 587.990779 189.289869 
L 588.809258 189.501083 
L 589.218498 189.247457 
L 590.241596 188.035948 
L 590.650836 188.081217 
L 591.264695 188.447608 
L 591.878554 188.602791 
L 593.515512 189.859739 
L 593.720132 189.802684 
L 594.129371 189.262207 
L 594.538611 188.66085 
L 594.94785 188.400146 
L 595.970949 188.370157 
L 596.584808 188.537934 
L 597.403287 188.901455 
L 598.221766 188.653823 
L 598.835625 188.7027 
L 600.063343 189.043371 
L 601.086442 188.956002 
L 603.132639 190.432339 
L 603.951118 190.421629 
L 604.360358 190.207856 
L 605.178836 189.460857 
L 605.792696 189.319397 
L 606.815794 189.321714 
L 607.225034 189.75755 
L 607.634273 190.232317 
L 608.043513 190.369006 
L 608.657372 190.491304 
L 609.271231 191.009643 
L 609.68047 191.368553 
L 610.08971 191.446257 
L 610.498949 191.363284 
L 611.112809 191.040541 
L 611.931287 191.120755 
L 612.749766 191.234988 
L 613.772865 190.705789 
L 615.205203 190.792504 
L 615.614443 190.525792 
L 616.023682 190.229973 
L 616.432921 190.216652 
L 617.046781 190.354709 
L 617.66064 190.179712 
L 618.069879 190.229409 
L 618.479119 189.903141 
L 619.502217 188.636361 
L 620.116077 188.508111 
L 620.525316 188.515422 
L 620.934555 188.750713 
L 621.753034 189.309595 
L 622.776133 189.893432 
L 623.185372 189.51887 
L 624.003851 188.468066 
L 624.413091 188.169565 
L 624.617711 188.212474 
L 625.436189 188.856331 
L 625.640809 188.80805 
L 626.050049 188.260116 
L 626.663908 187.183714 
L 626.868528 187.069269 
L 627.277767 187.254564 
L 627.687006 187.491472 
L 629.733204 187.705847 
L 630.142443 187.659961 
L 630.551683 187.923528 
L 631.779401 189.364163 
L 631.984021 189.433455 
L 632.39326 189.192767 
L 633.211739 188.495977 
L 633.620979 188.470016 
L 634.030218 188.682884 
L 634.644077 189.372762 
L 635.667176 190.449021 
L 636.076415 190.55214 
L 637.099514 190.324614 
L 638.531852 189.285279 
L 638.941091 189.417645 
L 639.350331 189.57348 
L 639.96419 189.738997 
L 640.578049 190.113294 
L 641.396528 190.117656 
L 642.828866 189.791051 
L 643.238106 189.328186 
L 643.851965 188.082138 
L 644.056585 187.899454 
L 644.261204 187.9077 
L 645.898162 189.12315 
L 646.512021 189.058306 
L 646.921261 189.41396 
L 647.73974 190.345202 
L 648.148979 190.610124 
L 648.762838 190.680705 
L 649.172078 190.592541 
L 649.990557 189.956903 
L 650.399796 190.117316 
L 651.832134 191.035693 
L 652.445993 191.251268 
L 652.855233 191.095885 
L 654.69681 190.105686 
L 655.515289 189.82013 
L 656.333768 189.666778 
L 657.152247 190.091121 
L 659.198444 189.43519 
L 659.812304 189.192481 
L 660.630782 189.117104 
L 661.040022 189.385462 
L 661.653881 190.201365 
L 662.063121 190.706522 
L 662.26774 190.781811 
L 662.67698 190.602058 
L 663.086219 190.355182 
L 663.495459 190.489277 
L 663.904698 190.641551 
L 664.109318 190.562748 
L 664.518557 190.056217 
L 665.132416 189.281572 
L 665.541656 189.167222 
L 666.155515 189.246811 
L 666.973994 189.692792 
L 667.997093 190.594859 
L 668.406332 190.501 
L 668.815572 190.110167 
L 669.63405 189.036792 
L 670.04329 188.959623 
L 670.452529 189.103462 
L 671.271008 189.890348 
L 671.884867 189.79239 
L 672.703346 189.433191 
L 673.726445 189.437039 
L 674.954163 188.570607 
L 676.181882 188.261946 
L 676.795741 188.590658 
L 678.023459 188.516071 
L 678.432699 188.766904 
L 678.841938 188.674457 
L 679.251178 188.447032 
L 679.660417 188.458651 
L 680.069656 188.474971 
L 680.478896 188.369639 
L 680.888135 188.551562 
L 681.297375 188.653592 
L 681.706614 188.545305 
L 682.115854 188.858736 
L 682.729713 189.525637 
L 683.138952 189.675374 
L 683.548192 189.567258 
L 684.162051 189.262725 
L 684.77591 189.383694 
L 685.389769 189.515932 
L 685.594389 189.412089 
L 686.208248 188.555628 
L 687.435967 186.683271 
L 688.459065 185.8431 
L 688.868305 185.710596 
L 691.119122 185.944094 
L 691.528361 185.631943 
L 692.14222 184.47967 
L 693.369939 181.346516 
L 694.188418 178.592716 
L 695.006897 174.752186 
L 695.620756 170.770313 
L 696.234615 165.542654 
L 696.848474 158.478254 
L 697.666953 145.997382 
L 698.690052 130.137011 
L 699.099291 125.63114 
L 699.508531 123.146119 
L 699.71315 122.739773 
L 699.91777 122.939366 
L 700.12239 123.804044 
L 700.531629 127.411028 
L 701.145488 136.204343 
L 702.577826 159.8093 
L 703.191686 166.608332 
L 704.214784 174.590273 
L 704.828643 178.145248 
L 705.442503 180.487263 
L 706.874841 185.245009 
L 707.4887 185.930509 
L 708.102559 186.475393 
L 709.125658 187.135779 
L 709.739517 187.880968 
L 710.557996 189.169852 
L 710.762616 189.262029 
L 711.581094 189.086774 
L 712.194954 189.443922 
L 713.013433 189.614789 
L 713.627292 190.141292 
L 714.241151 190.634071 
L 715.26425 191.315571 
L 715.673489 191.158106 
L 716.696588 190.413543 
L 717.924306 189.222088 
L 718.333545 189.085355 
L 718.947405 189.23165 
L 720.379743 190.031196 
L 720.788982 190.156842 
L 721.402841 190.653636 
L 721.812081 190.727907 
L 723.244419 190.5998 
L 723.653658 190.13323 
L 724.062898 189.586105 
L 725.085996 188.908611 
L 725.495236 188.952791 
L 726.109095 189.26321 
L 726.927574 189.32015 
L 727.336813 189.686465 
L 727.950673 190.321613 
L 728.359912 190.421826 
L 728.769151 190.292185 
L 729.58763 189.798824 
L 729.99687 189.78773 
L 730.815349 189.954113 
L 731.429208 189.843462 
L 731.838447 189.535918 
L 732.861546 188.430501 
L 733.270785 188.475135 
L 734.293884 189.134489 
L 734.498504 189.166677 
L 734.907743 188.874324 
L 735.316983 188.585532 
L 735.521602 188.663165 
L 736.135462 189.320399 
L 736.340081 189.366753 
L 736.749321 189.141054 
L 737.36318 188.676597 
L 738.181659 188.349431 
L 738.590898 188.415717 
L 739.409377 188.884788 
L 740.432476 189.735444 
L 740.841715 190.00371 
L 741.046335 189.941799 
L 741.864814 189.267606 
L 742.683293 189.384331 
L 744.72949 190.872762 
L 745.13873 190.34167 
L 745.752589 189.1404 
L 746.161828 188.883932 
L 746.775687 189.134141 
L 747.184927 189.228868 
L 747.798786 189.132888 
L 748.412645 189.130241 
L 749.844983 188.515131 
L 750.458843 188.522593 
L 751.481941 187.85433 
L 751.891181 188.127778 
L 752.70966 188.81245 
L 753.118899 188.920994 
L 753.937378 188.910644 
L 754.551237 189.019789 
L 754.960477 189.384142 
L 755.574336 190.032475 
L 755.983575 190.067287 
L 756.597434 189.847449 
L 757.006674 189.935445 
L 757.620533 190.434925 
L 758.029772 190.668536 
L 758.439012 190.586898 
L 759.87135 189.7668 
L 760.689829 188.968077 
L 760.894449 188.918611 
L 761.303688 189.138074 
L 762.326787 189.731899 
L 762.736026 189.847565 
L 763.349885 189.775509 
L 763.759125 189.982095 
L 764.577604 190.559215 
L 765.191463 190.588073 
L 765.805322 190.29328 
L 767.23766 189.453451 
L 768.056139 188.766868 
L 768.465378 189.105519 
L 769.488477 190.199283 
L 769.897717 190.466627 
L 770.306956 190.509637 
L 770.716195 190.263543 
L 771.943914 189.185139 
L 772.353153 189.279083 
L 773.580872 190.171968 
L 774.194731 190.565984 
L 774.60397 190.63903 
L 776.240928 190.459889 
L 776.854787 190.847077 
L 777.264027 190.763296 
L 777.877886 190.627185 
L 778.287125 190.941738 
L 778.696365 191.422251 
L 778.900985 191.488506 
L 779.105604 191.382321 
L 779.924083 190.509385 
L 781.561041 189.84465 
L 782.1749 189.929565 
L 782.788759 189.76833 
L 783.197999 189.999248 
L 783.607238 190.362978 
L 784.221097 190.507281 
L 784.834957 190.730859 
L 785.448816 190.888465 
L 785.858055 190.588756 
L 786.471914 189.87378 
L 786.881154 189.912102 
L 787.290393 189.950907 
L 788.722731 189.032021 
L 789.131971 189.235008 
L 789.95045 190.270769 
L 790.15507 190.278648 
L 790.768929 189.740143 
L 791.587408 189.119329 
L 792.405887 188.897596 
L 793.019746 188.542576 
L 793.633605 188.42335 
L 794.656704 187.65557 
L 795.065943 187.42657 
L 795.884422 186.805431 
L 796.089042 186.918494 
L 796.90752 187.996207 
L 797.11214 187.969259 
L 797.725999 187.462212 
L 797.930619 187.467763 
L 798.544478 187.943895 
L 799.158337 188.671053 
L 799.772197 189.589771 
L 800.181436 189.712482 
L 800.999915 189.656627 
L 801.818394 189.794041 
L 802.227633 189.80967 
L 803.250732 190.355044 
L 804.069211 189.817422 
L 804.47845 190.172481 
L 805.296929 191.17744 
L 806.320028 191.649507 
L 806.933887 191.989248 
L 807.343127 191.953079 
L 807.752366 191.447816 
L 808.366225 190.615403 
L 808.775465 190.450282 
L 809.593944 190.239497 
L 810.412422 189.748432 
L 811.026282 189.591791 
L 811.435521 189.234487 
L 812.04938 188.550758 
L 813.072479 187.925381 
L 813.481718 188.11123 
L 814.095578 188.410229 
L 814.709437 188.685056 
L 814.914056 188.645844 
L 816.141775 187.597785 
L 816.551014 187.172084 
L 816.755634 187.102237 
L 816.960254 187.177024 
L 817.369493 187.666442 
L 817.778733 188.216346 
L 818.187972 188.33017 
L 818.801831 188.190467 
L 819.211071 188.679714 
L 819.82493 189.658718 
L 820.234169 189.782619 
L 820.643409 189.539801 
L 821.052648 188.981128 
L 821.666507 187.938017 
L 822.075747 187.824392 
L 822.484986 188.106095 
L 822.894226 188.632225 
L 823.508085 189.648342 
L 823.917324 189.872376 
L 824.326564 189.805923 
L 824.940423 189.437696 
L 826.782001 187.751763 
L 827.60048 187.968863 
L 828.009719 187.663417 
L 828.418958 187.163919 
L 828.623578 187.081809 
L 829.032818 187.452062 
L 829.442057 187.79114 
L 830.874395 187.89244 
L 831.488254 187.840186 
L 832.102114 187.933989 
L 832.715973 187.866843 
L 833.125212 188.175991 
L 833.943691 189.219531 
L 834.35293 189.364481 
L 836.194508 188.919509 
L 836.808367 188.326593 
L 837.217607 188.092892 
L 837.626846 188.132958 
L 838.240705 188.273455 
L 838.649945 187.921356 
L 839.059184 187.464271 
L 839.468424 187.304074 
L 842.12848 187.221752 
L 842.742339 187.316866 
L 843.151579 187.680154 
L 843.560818 188.073897 
L 843.970058 188.208635 
L 845.402396 188.181091 
L 846.425494 189.042923 
L 848.062452 188.42471 
L 848.880931 188.181262 
L 849.290171 188.281745 
L 849.90403 188.786569 
L 850.313269 188.660887 
L 850.722509 188.485848 
L 851.336368 188.314418 
L 851.745607 187.959479 
L 852.359466 186.987746 
L 852.768706 186.34862 
L 853.177945 186.149408 
L 853.587185 186.320154 
L 854.610283 187.371946 
L 855.019523 187.763257 
L 855.428762 187.836841 
L 855.838002 187.556125 
L 856.451861 186.791187 
L 856.656481 186.735917 
L 858.088819 187.298997 
L 858.293439 187.343754 
L 858.498058 187.27381 
L 859.725777 186.157745 
L 860.339636 185.989709 
L 860.748875 186.139493 
L 861.362734 186.489646 
L 861.976594 186.724531 
L 862.795073 187.04893 
L 864.43203 186.99438 
L 866.478228 186.189029 
L 867.092087 186.064025 
L 867.501326 185.408299 
L 868.115185 184.166433 
L 868.729045 183.786569 
L 869.138284 183.85683 
L 869.956763 184.471048 
L 870.570622 184.483424 
L 871.184481 184.298601 
L 871.593721 184.248157 
L 872.00296 184.512141 
L 872.616819 185.158063 
L 872.821439 185.185098 
L 873.230679 184.850079 
L 873.639918 184.44148 
L 874.458397 184.136776 
L 875.481496 184.309818 
L 876.095355 184.473501 
L 877.323073 183.789574 
L 877.732313 183.598056 
L 880.596989 181.093248 
L 881.006228 181.108444 
L 881.620087 181.303305 
L 882.029327 181.013127 
L 882.643186 180.43783 
L 883.052425 180.317344 
L 883.461665 180.221877 
L 883.870904 179.725846 
L 884.280144 179.200297 
L 884.894003 178.867244 
L 885.303242 178.823889 
L 885.712482 178.97446 
L 886.121721 179.292403 
L 886.326341 179.333518 
L 886.735581 179.093857 
L 887.34944 178.768384 
L 888.372538 178.349839 
L 888.986398 177.526505 
L 890.009496 176.194872 
L 890.418736 176.091899 
L 891.237215 176.516814 
L 891.646454 176.15663 
L 892.055693 175.431591 
L 892.874172 173.735371 
L 893.283412 173.459259 
L 893.692651 173.199722 
L 894.30651 172.177458 
L 895.124989 170.887051 
L 896.148088 169.846883 
L 897.171187 169.131474 
L 898.398905 168.640187 
L 899.422004 167.60924 
L 899.831243 167.462065 
L 900.240483 167.725758 
L 900.445102 167.891491 
L 900.649722 167.871245 
L 900.854342 167.570474 
L 901.468201 165.608392 
L 902.08206 163.996933 
L 902.4913 163.681091 
L 902.900539 163.839463 
L 903.309778 164.075205 
L 903.514398 164.038265 
L 903.923638 163.535253 
L 904.332877 162.983058 
L 905.560595 162.102172 
L 905.969835 161.64962 
L 906.379074 161.577751 
L 907.197553 161.745589 
L 907.606793 162.077769 
L 908.220652 162.711542 
L 908.629891 162.764993 
L 909.039131 162.405694 
L 909.85761 161.455757 
L 911.494567 161.492985 
L 912.313046 161.35958 
L 912.722286 161.452037 
L 913.131525 161.860205 
L 913.745384 163.24164 
L 914.154624 164.001568 
L 914.359244 164.151591 
L 914.563863 164.142568 
L 914.973103 163.716466 
L 915.586962 162.455695 
L 915.996201 161.655694 
L 916.200821 161.522263 
L 916.405441 161.652354 
L 916.81468 162.644727 
L 917.42854 164.633749 
L 917.633159 164.810956 
L 917.837779 164.641724 
L 918.247018 163.748315 
L 918.656258 162.462066 
L 919.065497 160.41945 
L 919.474737 156.547033 
L 919.883976 149.553006 
L 920.293216 141.485148 
L 920.497835 139.231896 
L 920.702455 139.463121 
L 920.907075 142.14027 
L 921.930174 161.220732 
L 922.339413 165.34586 
L 922.748652 167.636395 
L 923.157892 168.412223 
L 923.362512 168.426857 
L 923.976371 168.071771 
L 924.180991 168.095834 
L 924.59023 168.486478 
L 925.408709 169.570014 
L 926.022568 169.908296 
L 926.431808 169.911393 
L 926.841047 169.595916 
L 927.454906 168.994688 
L 927.864146 168.87391 
L 928.273385 168.804036 
L 928.682625 168.225197 
L 929.091864 167.592161 
L 929.296484 167.519504 
L 929.501103 167.656863 
L 930.524202 169.13259 
L 930.728822 169.091312 
L 931.138061 168.707748 
L 931.75192 168.012946 
L 931.95654 167.989662 
L 932.36578 168.39869 
L 933.593498 170.26061 
L 935.844315 172.875024 
L 936.253554 172.824588 
L 937.072033 172.382082 
L 937.276653 172.519241 
L 938.095132 173.628132 
L 938.708991 174.011262 
L 939.73209 175.113885 
L 940.550569 175.25307 
L 942.596766 176.512772 
L 943.006005 176.99862 
L 944.438344 179.27943 
L 945.256822 179.590858 
L 945.666062 179.666577 
L 947.0984 179.538439 
L 947.507639 180.138324 
L 948.735358 182.480802 
L 949.553837 183.733667 
L 949.963076 183.922193 
L 950.372316 184.007945 
L 951.190794 184.384708 
L 952.213893 184.091946 
L 953.236992 184.630876 
L 955.283189 184.388135 
L 955.897048 183.976714 
L 957.329386 184.104466 
L 958.352485 183.974902 
L 958.761724 184.342059 
L 959.170964 185.087722 
L 959.989443 186.756272 
L 960.807922 187.441888 
L 961.626401 187.912279 
L 962.03564 187.897947 
L 962.649499 187.622253 
L 963.467978 187.146994 
L 963.877218 187.178574 
L 964.695696 187.434659 
L 965.309556 187.399592 
L 966.128035 187.217079 
L 966.537274 187.468411 
L 967.355753 188.042963 
L 967.764992 188.041762 
L 968.174232 187.859149 
L 969.19733 187.052427 
L 969.60657 187.069081 
L 971.652767 188.371666 
L 972.062007 188.131201 
L 972.675866 187.606301 
L 974.312824 187.363684 
L 975.131303 187.601522 
L 975.949781 188.123061 
L 976.359021 188.090372 
L 977.38212 187.838161 
L 977.995979 188.148073 
L 978.609838 187.964182 
L 979.019077 187.862959 
L 979.428317 187.996954 
L 980.042176 188.465938 
L 980.451415 188.433215 
L 981.269894 188.266367 
L 982.088373 188.161549 
L 982.702232 187.947073 
L 983.725331 188.127007 
L 984.134571 188.15931 
L 985.157669 188.670114 
L 985.566909 189.173943 
L 985.976148 189.801068 
L 986.180768 189.923103 
L 986.385388 189.83503 
L 986.999247 189.339207 
L 988.431585 189.251155 
L 989.454683 188.81766 
L 990.068543 188.551086 
L 990.682402 188.088524 
L 991.091641 188.100929 
L 991.91012 188.470791 
L 992.31936 188.259919 
L 992.728599 188.024067 
L 993.137838 187.9923 
L 993.956317 188.334617 
L 994.774796 188.853003 
L 995.184036 189.137215 
L 995.388655 189.163486 
L 996.411754 188.694955 
L 996.820994 188.912175 
L 997.230233 189.289511 
L 997.639472 189.328623 
L 998.048712 189.213646 
L 998.457951 189.362639 
L 999.27643 189.757579 
L 999.890289 190.145819 
L 1000.504149 190.441624 
L 1000.913388 190.317338 
L 1001.731867 189.592879 
L 1002.345726 189.523496 
L 1002.754966 189.717811 
L 1003.573445 190.259078 
L 1003.982684 190.362918 
L 1004.596543 190.18685 
L 1005.210402 189.951742 
L 1005.824262 189.925601 
L 1006.84736 190.156837 
L 1007.665839 191.075617 
L 1007.870459 191.066841 
L 1008.279698 190.682739 
L 1008.893557 189.976677 
L 1009.507417 189.699878 
L 1010.121276 189.490773 
L 1010.939755 189.058772 
L 1011.348994 189.219009 
L 1011.962853 189.803812 
L 1012.781332 190.567162 
L 1012.985952 190.539013 
L 1013.395191 190.071332 
L 1014.21367 188.756487 
L 1014.41829 188.680803 
L 1014.82753 188.920166 
L 1015.646008 189.745604 
L 1016.259868 190.540567 
L 1016.464487 190.575386 
L 1016.873727 190.283201 
L 1017.282966 190.005054 
L 1017.692206 190.095107 
L 1019.124544 190.961315 
L 1019.533783 190.970687 
L 1019.943023 190.724978 
L 1020.556882 190.176747 
L 1022.398459 189.508489 
L 1023.012319 189.493049 
L 1023.421558 189.195373 
L 1024.444657 188.275901 
L 1024.853896 188.124696 
L 1025.263136 188.266664 
L 1026.286234 189.077076 
L 1026.900093 189.116193 
L 1028.127812 188.907902 
L 1028.946291 189.155215 
L 1029.56015 189.347089 
L 1029.969389 189.192843 
L 1030.583248 188.900572 
L 1031.606347 188.827481 
L 1032.629446 188.066459 
L 1033.038685 188.1605 
L 1033.857164 188.688666 
L 1034.471023 188.704621 
L 1034.880263 188.482809 
L 1035.698742 187.615628 
L 1036.107981 187.41931 
L 1036.517221 187.552371 
L 1037.335699 188.348726 
L 1038.358798 189.603326 
L 1039.177277 190.798189 
L 1039.381897 190.899789 
L 1039.791136 190.715913 
L 1040.200376 190.516698 
L 1040.814235 190.624984 
L 1041.837333 190.243281 
L 1042.451193 190.223385 
L 1042.860432 190.128705 
L 1043.474291 190.115155 
L 1044.29277 189.789356 
L 1044.906629 190.019457 
L 1045.315869 189.812043 
L 1045.725108 189.496003 
L 1045.929728 189.513757 
L 1046.952827 190.108437 
L 1047.362066 190.18845 
L 1047.975925 189.873947 
L 1049.612883 188.605709 
L 1050.022123 188.108655 
L 1050.226742 188.034076 
L 1050.635982 188.334275 
L 1051.65908 189.623174 
L 1051.8637 189.709005 
L 1052.27294 189.499086 
L 1052.682179 189.220107 
L 1053.091418 189.294202 
L 1053.500658 189.446169 
L 1053.909897 189.281242 
L 1054.114517 189.185433 
L 1054.319137 189.214048 
L 1054.728376 189.731343 
L 1055.751475 191.577058 
L 1056.160714 191.841553 
L 1056.365334 191.760075 
L 1056.774574 191.13298 
L 1057.183813 190.450582 
L 1057.593052 190.317432 
L 1058.002292 190.337465 
L 1059.23001 189.743961 
L 1059.63925 189.24946 
L 1060.253109 188.351302 
L 1060.662348 188.018512 
L 1061.071588 187.991076 
L 1061.480827 188.369545 
L 1062.913165 190.250171 
L 1063.527025 191.239744 
L 1063.936264 191.413212 
L 1065.163982 191.401842 
L 1065.777841 191.082721 
L 1066.187081 190.675812 
L 1066.80094 189.980355 
L 1067.414799 189.696221 
L 1067.824039 189.69437 
L 1068.437898 189.906394 
L 1068.847137 189.676943 
L 1069.870236 188.358841 
L 1070.279475 188.297297 
L 1070.688715 187.93698 
L 1071.097954 187.636042 
L 1071.507194 187.786775 
L 1072.121053 188.429568 
L 1072.939532 189.51159 
L 1073.348771 189.627311 
L 1073.962631 189.686485 
L 1074.985729 189.869722 
L 1075.599588 189.938371 
L 1076.622687 190.361717 
L 1077.031926 189.945057 
L 1078.259645 188.060163 
L 1078.464265 187.960166 
L 1078.873504 188.097058 
L 1079.691983 188.508421 
L 1080.510462 188.723156 
L 1081.124321 189.323649 
L 1081.73818 189.826191 
L 1082.14742 189.936985 
L 1082.556659 189.844672 
L 1082.965899 189.676956 
L 1083.170518 189.733483 
L 1083.988997 190.390316 
L 1085.012096 190.321339 
L 1085.625955 190.417627 
L 1086.649054 190.276896 
L 1087.876772 189.451418 
L 1088.286011 189.391945 
L 1088.695251 189.696539 
L 1089.10449 190.004308 
L 1089.51373 189.880845 
L 1090.536828 189.024681 
L 1090.946068 189.04051 
L 1091.355307 189.300017 
L 1091.969167 189.975263 
L 1092.173786 189.994637 
L 1092.583026 189.644189 
L 1093.606124 188.398287 
L 1095.243082 188.950113 
L 1096.061561 189.792798 
L 1096.470801 190.160021 
L 1096.67542 190.169304 
L 1097.08466 189.796492 
L 1097.493899 189.441816 
L 1098.926237 189.426465 
L 1099.335477 189.400842 
L 1100.153956 188.919292 
L 1100.767815 188.494943 
L 1101.381674 188.256212 
L 1101.790913 188.029945 
L 1101.995533 188.054899 
L 1102.404773 188.595433 
L 1103.018632 189.641277 
L 1103.632491 190.283983 
L 1104.860209 191.004275 
L 1105.269449 191.153665 
L 1105.883308 191.021905 
L 1106.701787 190.526313 
L 1107.929505 189.382127 
L 1109.157224 189.136061 
L 1109.771083 188.896689 
L 1110.794181 189.107617 
L 1111.203421 188.765241 
L 1111.81728 187.877597 
L 1112.635759 187.527382 
L 1112.840379 187.514669 
L 1113.044998 187.649015 
L 1113.454238 188.28761 
L 1114.272717 189.916093 
L 1114.477336 190.113084 
L 1114.681956 190.137587 
L 1115.091196 189.745884 
L 1115.705055 189.009899 
L 1115.909675 188.928885 
L 1116.318914 189.094149 
L 1116.932773 189.754301 
L 1117.546632 190.563072 
L 1117.751252 190.600824 
L 1118.569731 190.299778 
L 1118.97897 190.259777 
L 1121.025168 189.362008 
L 1121.434407 189.238432 
L 1122.048266 189.368515 
L 1123.685224 190.096451 
L 1124.299083 191.200535 
L 1124.912943 192.152932 
L 1125.322182 192.32774 
L 1125.731421 192.01948 
L 1126.345281 191.575337 
L 1126.75452 191.245236 
L 1127.16376 190.649133 
L 1128.596098 188.003856 
L 1128.800717 188.096491 
L 1129.209957 188.746202 
L 1129.619196 189.489069 
L 1130.642295 190.5632 
L 1131.051534 191.049341 
L 1131.460774 191.165294 
L 1131.870013 191.143097 
L 1132.279253 190.823837 
L 1133.302351 189.461988 
L 1133.711591 189.120626 
L 1134.12083 189.176614 
L 1135.348549 190.069013 
L 1135.757788 189.99062 
L 1136.780887 189.276857 
L 1138.213225 189.667366 
L 1139.031704 190.352826 
L 1139.440943 190.193628 
L 1140.259422 189.767967 
L 1140.873281 189.462946 
L 1141.89638 188.655303 
L 1142.510239 188.77452 
L 1143.124098 189.082194 
L 1143.737957 189.356586 
L 1145.170295 189.561456 
L 1145.784155 189.019303 
L 1146.193394 189.16813 
L 1147.421112 189.938419 
L 1148.034972 190.024785 
L 1148.444211 189.858943 
L 1149.26269 189.0303 
L 1149.671929 189.042388 
L 1151.308887 189.674393 
L 1151.513507 189.537464 
L 1152.741225 187.921019 
L 1153.150465 187.771036 
L 1153.559704 187.912266 
L 1156.015141 190.294183 
L 1156.42438 190.295841 
L 1157.447479 189.794687 
L 1157.856719 189.698048 
L 1159.493676 188.854176 
L 1160.516775 188.678362 
L 1161.335254 188.188574 
L 1161.744493 188.394936 
L 1162.358353 189.004591 
L 1162.767592 189.073686 
L 1163.381451 188.861478 
L 1163.790691 188.702966 
L 1164.19993 188.978756 
L 1165.018409 190.044142 
L 1165.632268 190.85275 
L 1165.836888 190.905897 
L 1167.064606 190.581042 
L 1168.292325 190.749136 
L 1168.701564 190.668306 
L 1169.110804 190.201296 
L 1169.929282 189.209228 
L 1170.338522 189.159901 
L 1171.361621 189.364219 
L 1171.97548 189.2502 
L 1173.203198 188.710161 
L 1173.612438 188.941391 
L 1174.021677 189.136321 
L 1174.226297 189.038086 
L 1174.635536 188.418079 
L 1175.044776 187.842553 
L 1175.249395 187.795203 
L 1175.658635 188.084721 
L 1176.067874 188.381336 
L 1176.477114 188.54531 
L 1176.886353 189.009218 
L 1177.909452 190.949292 
L 1179.13717 191.281552 
L 1181.183367 190.467635 
L 1182.001846 190.432214 
L 1182.411086 190.185038 
L 1183.024945 189.745858 
L 1184.048044 189.664994 
L 1184.661903 189.125037 
L 1184.866522 188.887523 
L 1184.866522 188.887523 
" clip-path="url(#pba8645dec4)" style="fill: none; stroke: #000000; stroke-width: 2; stroke-linecap: square"/>
   </g>
   <g id="patch_3">
    <path d="M 3.00024 198.907885 
L 1184.99976 198.907885 
" style="fill: none; stroke: #000000; stroke-width: 2; stroke-linejoin: miter; stroke-linecap: square"/>
   </g>
  </g>
 </g>
 <defs>
  <clipPath id="pba8645dec4">
   <rect x="3.00024" y="3.00024" width="1181.99952" height="195.907645"/>
  </clipPath>
 </defs>
</svg>
