<?xml version="1.0" encoding="utf-8" standalone="no"?>
<!DOCTYPE svg PUBLIC "-//W3C//DTD SVG 1.1//EN"
  "http://www.w3.org/Graphics/SVG/1.1/DTD/svg11.dtd">
<svg xmlns:xlink="http://www.w3.org/1999/xlink" width="1188pt" height="252pt" viewBox="0 0 1188 252" xmlns="http://www.w3.org/2000/svg" version="1.1">
 <metadata>
  <rdf:RDF xmlns:dc="http://purl.org/dc/elements/1.1/" xmlns:cc="http://creativecommons.org/ns#" xmlns:rdf="http://www.w3.org/1999/02/22-rdf-syntax-ns#">
   <cc:Work>
    <dc:type rdf:resource="http://purl.org/dc/dcmitype/StillImage"/>
    <dc:date>2024-05-13T16:41:00.714651</dc:date>
    <dc:format>image/svg+xml</dc:format>
    <dc:creator>
     <cc:Agent>
      <dc:title>Matplotlib v3.8.0, https://matplotlib.org/</dc:title>
     </cc:Agent>
    </dc:creator>
   </cc:Work>
  </rdf:RDF>
 </metadata>
 <defs>
  <style type="text/css">*{stroke-linejoin: round; stroke-linecap: butt}</style>
 </defs>
 <g id="figure_1">
  <g id="patch_1">
   <path d="M 0 252 
L 1188 252 
L 1188 0 
L 0 0 
z
" style="fill: #ffffff"/>
  </g>
  <g id="axes_1">
   <g id="patch_2">
    <path d="M 3.00024 198.907885 
L 1184.99976 198.907885 
L 1184.99976 3.00024 
L 3.00024 3.00024 
z
" style="fill: #ffffff"/>
   </g>
   <g id="matplotlib.axis_1">
    <g id="xtick_1">
     <g id="line2d_1">
      <defs>
       <path id="mbadd1a8c76" d="M 0 0 
L 0 8 
" style="stroke: #000000; stroke-width: 2"/>
      </defs>
      <g>
       <use xlink:href="#mbadd1a8c76" x="1131.272509" y="198.907885" style="stroke: #000000; stroke-width: 2"/>
      </g>
     </g>
     <g id="text_1">
      <!-- 0 -->
      <g transform="translate(1126.267665 224.791947) scale(0.18 -0.18)">
       <defs>
        <path id="Arial-BoldMT-30" d="M 1756 4600 
Q 2422 4600 2797 4125 
Q 3244 3563 3244 2259 
Q 3244 959 2794 391 
Q 2422 -78 1756 -78 
Q 1088 -78 678 436 
Q 269 950 269 2269 
Q 269 3563 719 4131 
Q 1091 4600 1756 4600 
z
M 1756 3872 
Q 1597 3872 1472 3770 
Q 1347 3669 1278 3406 
Q 1188 3066 1188 2259 
Q 1188 1453 1269 1151 
Q 1350 850 1473 750 
Q 1597 650 1756 650 
Q 1916 650 2041 751 
Q 2166 853 2234 1116 
Q 2325 1453 2325 2259 
Q 2325 3066 2244 3367 
Q 2163 3669 2039 3770 
Q 1916 3872 1756 3872 
z
" transform="scale(0.015625)"/>
       </defs>
       <use xlink:href="#Arial-BoldMT-30"/>
      </g>
     </g>
    </g>
    <g id="xtick_2">
     <g id="line2d_2">
      <g>
       <use xlink:href="#mbadd1a8c76" x="1023.818007" y="198.907885" style="stroke: #000000; stroke-width: 2"/>
      </g>
     </g>
     <g id="text_2">
      <!-- 1 -->
      <g transform="translate(1018.813164 224.791947) scale(0.18 -0.18)">
       <defs>
        <path id="Arial-BoldMT-31" d="M 2519 0 
L 1641 0 
L 1641 3309 
Q 1159 2859 506 2644 
L 506 3441 
Q 850 3553 1253 3867 
Q 1656 4181 1806 4600 
L 2519 4600 
L 2519 0 
z
" transform="scale(0.015625)"/>
       </defs>
       <use xlink:href="#Arial-BoldMT-31"/>
      </g>
     </g>
    </g>
    <g id="xtick_3">
     <g id="line2d_3">
      <g>
       <use xlink:href="#mbadd1a8c76" x="916.363505" y="198.907885" style="stroke: #000000; stroke-width: 2"/>
      </g>
     </g>
     <g id="text_3">
      <!-- 2 -->
      <g transform="translate(911.358662 224.791947) scale(0.18 -0.18)">
       <defs>
        <path id="Arial-BoldMT-32" d="M 3238 816 
L 3238 0 
L 159 0 
Q 209 463 459 877 
Q 709 1291 1447 1975 
Q 2041 2528 2175 2725 
Q 2356 2997 2356 3263 
Q 2356 3556 2198 3714 
Q 2041 3872 1763 3872 
Q 1488 3872 1325 3706 
Q 1163 3541 1138 3156 
L 263 3244 
Q 341 3969 753 4284 
Q 1166 4600 1784 4600 
Q 2463 4600 2850 4234 
Q 3238 3869 3238 3325 
Q 3238 3016 3127 2736 
Q 3016 2456 2775 2150 
Q 2616 1947 2200 1565 
Q 1784 1184 1673 1059 
Q 1563 934 1494 816 
L 3238 816 
z
" transform="scale(0.015625)"/>
       </defs>
       <use xlink:href="#Arial-BoldMT-32"/>
      </g>
     </g>
    </g>
    <g id="xtick_4">
     <g id="line2d_4">
      <g>
       <use xlink:href="#mbadd1a8c76" x="808.909004" y="198.907885" style="stroke: #000000; stroke-width: 2"/>
      </g>
     </g>
     <g id="text_4">
      <!-- 3 -->
      <g transform="translate(803.90416 224.791947) scale(0.18 -0.18)">
       <defs>
        <path id="Arial-BoldMT-33" d="M 241 1216 
L 1091 1319 
Q 1131 994 1309 822 
Q 1488 650 1741 650 
Q 2013 650 2198 856 
Q 2384 1063 2384 1413 
Q 2384 1744 2206 1937 
Q 2028 2131 1772 2131 
Q 1603 2131 1369 2066 
L 1466 2781 
Q 1822 2772 2009 2936 
Q 2197 3100 2197 3372 
Q 2197 3603 2059 3740 
Q 1922 3878 1694 3878 
Q 1469 3878 1309 3722 
Q 1150 3566 1116 3266 
L 306 3403 
Q 391 3819 561 4067 
Q 731 4316 1036 4458 
Q 1341 4600 1719 4600 
Q 2366 4600 2756 4188 
Q 3078 3850 3078 3425 
Q 3078 2822 2419 2463 
Q 2813 2378 3048 2084 
Q 3284 1791 3284 1375 
Q 3284 772 2843 347 
Q 2403 -78 1747 -78 
Q 1125 -78 715 280 
Q 306 638 241 1216 
z
" transform="scale(0.015625)"/>
       </defs>
       <use xlink:href="#Arial-BoldMT-33"/>
      </g>
     </g>
    </g>
    <g id="xtick_5">
     <g id="line2d_5">
      <g>
       <use xlink:href="#mbadd1a8c76" x="701.454502" y="198.907885" style="stroke: #000000; stroke-width: 2"/>
      </g>
     </g>
     <g id="text_5">
      <!-- 4 -->
      <g transform="translate(696.449658 224.791947) scale(0.18 -0.18)">
       <defs>
        <path id="Arial-BoldMT-34" d="M 1994 0 
L 1994 922 
L 119 922 
L 119 1691 
L 2106 4600 
L 2844 4600 
L 2844 1694 
L 3413 1694 
L 3413 922 
L 2844 922 
L 2844 0 
L 1994 0 
z
M 1994 1694 
L 1994 3259 
L 941 1694 
L 1994 1694 
z
" transform="scale(0.015625)"/>
       </defs>
       <use xlink:href="#Arial-BoldMT-34"/>
      </g>
     </g>
    </g>
    <g id="xtick_6">
     <g id="line2d_6">
      <g>
       <use xlink:href="#mbadd1a8c76" x="594" y="198.907885" style="stroke: #000000; stroke-width: 2"/>
      </g>
     </g>
     <g id="text_6">
      <!-- 5 -->
      <g transform="translate(588.995156 224.791947) scale(0.18 -0.18)">
       <defs>
        <path id="Arial-BoldMT-35" d="M 284 1178 
L 1159 1269 
Q 1197 972 1381 798 
Q 1566 625 1806 625 
Q 2081 625 2272 848 
Q 2463 1072 2463 1522 
Q 2463 1944 2273 2155 
Q 2084 2366 1781 2366 
Q 1403 2366 1103 2031 
L 391 2134 
L 841 4519 
L 3163 4519 
L 3163 3697 
L 1506 3697 
L 1369 2919 
Q 1663 3066 1969 3066 
Q 2553 3066 2959 2641 
Q 3366 2216 3366 1538 
Q 3366 972 3038 528 
Q 2591 -78 1797 -78 
Q 1163 -78 763 262 
Q 363 603 284 1178 
z
" transform="scale(0.015625)"/>
       </defs>
       <use xlink:href="#Arial-BoldMT-35"/>
      </g>
     </g>
    </g>
    <g id="xtick_7">
     <g id="line2d_7">
      <g>
       <use xlink:href="#mbadd1a8c76" x="486.545498" y="198.907885" style="stroke: #000000; stroke-width: 2"/>
      </g>
     </g>
     <g id="text_7">
      <!-- 6 -->
      <g transform="translate(481.540654 224.791947) scale(0.18 -0.18)">
       <defs>
        <path id="Arial-BoldMT-36" d="M 3247 3459 
L 2397 3366 
Q 2366 3628 2234 3753 
Q 2103 3878 1894 3878 
Q 1616 3878 1423 3628 
Q 1231 3378 1181 2588 
Q 1509 2975 1997 2975 
Q 2547 2975 2939 2556 
Q 3331 2138 3331 1475 
Q 3331 772 2918 347 
Q 2506 -78 1859 -78 
Q 1166 -78 719 461 
Q 272 1000 272 2228 
Q 272 3488 737 4044 
Q 1203 4600 1947 4600 
Q 2469 4600 2811 4308 
Q 3153 4016 3247 3459 
z
M 1256 1544 
Q 1256 1116 1453 883 
Q 1650 650 1903 650 
Q 2147 650 2309 840 
Q 2472 1031 2472 1466 
Q 2472 1913 2297 2120 
Q 2122 2328 1859 2328 
Q 1606 2328 1431 2129 
Q 1256 1931 1256 1544 
z
" transform="scale(0.015625)"/>
       </defs>
       <use xlink:href="#Arial-BoldMT-36"/>
      </g>
     </g>
    </g>
    <g id="xtick_8">
     <g id="line2d_8">
      <g>
       <use xlink:href="#mbadd1a8c76" x="379.090996" y="198.907885" style="stroke: #000000; stroke-width: 2"/>
      </g>
     </g>
     <g id="text_8">
      <!-- 7 -->
      <g transform="translate(374.086153 224.791947) scale(0.18 -0.18)">
       <defs>
        <path id="Arial-BoldMT-37" d="M 272 3703 
L 272 4519 
L 3275 4519 
L 3275 3881 
Q 2903 3516 2518 2831 
Q 2134 2147 1932 1376 
Q 1731 606 1734 0 
L 888 0 
Q 909 950 1279 1937 
Q 1650 2925 2269 3703 
L 272 3703 
z
" transform="scale(0.015625)"/>
       </defs>
       <use xlink:href="#Arial-BoldMT-37"/>
      </g>
     </g>
    </g>
    <g id="xtick_9">
     <g id="line2d_9">
      <g>
       <use xlink:href="#mbadd1a8c76" x="271.636495" y="198.907885" style="stroke: #000000; stroke-width: 2"/>
      </g>
     </g>
     <g id="text_9">
      <!-- 8 -->
      <g transform="translate(266.631651 224.791947) scale(0.18 -0.18)">
       <defs>
        <path id="Arial-BoldMT-38" d="M 1025 2472 
Q 684 2616 529 2867 
Q 375 3119 375 3419 
Q 375 3931 733 4265 
Q 1091 4600 1750 4600 
Q 2403 4600 2764 4265 
Q 3125 3931 3125 3419 
Q 3125 3100 2959 2851 
Q 2794 2603 2494 2472 
Q 2875 2319 3073 2025 
Q 3272 1731 3272 1347 
Q 3272 713 2867 316 
Q 2463 -81 1791 -81 
Q 1166 -81 750 247 
Q 259 634 259 1309 
Q 259 1681 443 1992 
Q 628 2303 1025 2472 
z
M 1206 3356 
Q 1206 3094 1354 2947 
Q 1503 2800 1750 2800 
Q 2000 2800 2150 2948 
Q 2300 3097 2300 3359 
Q 2300 3606 2151 3754 
Q 2003 3903 1759 3903 
Q 1506 3903 1356 3753 
Q 1206 3603 1206 3356 
z
M 1125 1394 
Q 1125 1031 1311 828 
Q 1497 625 1775 625 
Q 2047 625 2225 820 
Q 2403 1016 2403 1384 
Q 2403 1706 2222 1901 
Q 2041 2097 1763 2097 
Q 1441 2097 1283 1875 
Q 1125 1653 1125 1394 
z
" transform="scale(0.015625)"/>
       </defs>
       <use xlink:href="#Arial-BoldMT-38"/>
      </g>
     </g>
    </g>
    <g id="xtick_10">
     <g id="line2d_10">
      <g>
       <use xlink:href="#mbadd1a8c76" x="164.181993" y="198.907885" style="stroke: #000000; stroke-width: 2"/>
      </g>
     </g>
     <g id="text_10">
      <!-- 9 -->
      <g transform="translate(159.177149 224.791947) scale(0.18 -0.18)">
       <defs>
        <path id="Arial-BoldMT-39" d="M 291 1059 
L 1141 1153 
Q 1172 894 1303 769 
Q 1434 644 1650 644 
Q 1922 644 2112 894 
Q 2303 1144 2356 1931 
Q 2025 1547 1528 1547 
Q 988 1547 595 1964 
Q 203 2381 203 3050 
Q 203 3747 617 4173 
Q 1031 4600 1672 4600 
Q 2369 4600 2816 4061 
Q 3263 3522 3263 2288 
Q 3263 1031 2797 475 
Q 2331 -81 1584 -81 
Q 1047 -81 715 205 
Q 384 491 291 1059 
z
M 2278 2978 
Q 2278 3403 2083 3637 
Q 1888 3872 1631 3872 
Q 1388 3872 1227 3680 
Q 1066 3488 1066 3050 
Q 1066 2606 1241 2398 
Q 1416 2191 1678 2191 
Q 1931 2191 2104 2391 
Q 2278 2591 2278 2978 
z
" transform="scale(0.015625)"/>
       </defs>
       <use xlink:href="#Arial-BoldMT-39"/>
      </g>
     </g>
    </g>
    <g id="xtick_11">
     <g id="line2d_11">
      <g>
       <use xlink:href="#mbadd1a8c76" x="56.727491" y="198.907885" style="stroke: #000000; stroke-width: 2"/>
      </g>
     </g>
     <g id="text_11">
      <!-- 10 -->
      <g transform="translate(46.717803 224.791947) scale(0.18 -0.18)">
       <use xlink:href="#Arial-BoldMT-31"/>
       <use xlink:href="#Arial-BoldMT-30" x="55.615234"/>
      </g>
     </g>
    </g>
    <g id="text_12">
     <!-- Chemical Shift / ppm -->
     <g transform="translate(504.992813 245.447573) scale(0.18 -0.18)">
      <defs>
       <path id="Arial-BoldMT-43" d="M 3397 1684 
L 4294 1400 
Q 4088 650 3608 286 
Q 3128 -78 2391 -78 
Q 1478 -78 890 545 
Q 303 1169 303 2250 
Q 303 3394 893 4026 
Q 1484 4659 2447 4659 
Q 3288 4659 3813 4163 
Q 4125 3869 4281 3319 
L 3366 3100 
Q 3284 3456 3026 3662 
Q 2769 3869 2400 3869 
Q 1891 3869 1573 3503 
Q 1256 3138 1256 2319 
Q 1256 1450 1568 1081 
Q 1881 713 2381 713 
Q 2750 713 3015 947 
Q 3281 1181 3397 1684 
z
" transform="scale(0.015625)"/>
       <path id="Arial-BoldMT-68" d="M 1334 4581 
L 1334 2897 
Q 1759 3394 2350 3394 
Q 2653 3394 2897 3281 
Q 3141 3169 3264 2994 
Q 3388 2819 3433 2606 
Q 3478 2394 3478 1947 
L 3478 0 
L 2600 0 
L 2600 1753 
Q 2600 2275 2550 2415 
Q 2500 2556 2373 2639 
Q 2247 2722 2056 2722 
Q 1838 2722 1666 2615 
Q 1494 2509 1414 2295 
Q 1334 2081 1334 1663 
L 1334 0 
L 456 0 
L 456 4581 
L 1334 4581 
z
" transform="scale(0.015625)"/>
       <path id="Arial-BoldMT-65" d="M 2381 1056 
L 3256 909 
Q 3088 428 2723 176 
Q 2359 -75 1813 -75 
Q 947 -75 531 491 
Q 203 944 203 1634 
Q 203 2459 634 2926 
Q 1066 3394 1725 3394 
Q 2466 3394 2894 2905 
Q 3322 2416 3303 1406 
L 1103 1406 
Q 1113 1016 1316 798 
Q 1519 581 1822 581 
Q 2028 581 2168 693 
Q 2309 806 2381 1056 
z
M 2431 1944 
Q 2422 2325 2234 2523 
Q 2047 2722 1778 2722 
Q 1491 2722 1303 2513 
Q 1116 2303 1119 1944 
L 2431 1944 
z
" transform="scale(0.015625)"/>
       <path id="Arial-BoldMT-6d" d="M 394 3319 
L 1203 3319 
L 1203 2866 
Q 1638 3394 2238 3394 
Q 2556 3394 2790 3262 
Q 3025 3131 3175 2866 
Q 3394 3131 3647 3262 
Q 3900 3394 4188 3394 
Q 4553 3394 4806 3245 
Q 5059 3097 5184 2809 
Q 5275 2597 5275 2122 
L 5275 0 
L 4397 0 
L 4397 1897 
Q 4397 2391 4306 2534 
Q 4184 2722 3931 2722 
Q 3747 2722 3584 2609 
Q 3422 2497 3350 2280 
Q 3278 2063 3278 1594 
L 3278 0 
L 2400 0 
L 2400 1819 
Q 2400 2303 2353 2443 
Q 2306 2584 2207 2653 
Q 2109 2722 1941 2722 
Q 1738 2722 1575 2612 
Q 1413 2503 1342 2297 
Q 1272 2091 1272 1613 
L 1272 0 
L 394 0 
L 394 3319 
z
" transform="scale(0.015625)"/>
       <path id="Arial-BoldMT-69" d="M 459 3769 
L 459 4581 
L 1338 4581 
L 1338 3769 
L 459 3769 
z
M 459 0 
L 459 3319 
L 1338 3319 
L 1338 0 
L 459 0 
z
" transform="scale(0.015625)"/>
       <path id="Arial-BoldMT-63" d="M 3353 2338 
L 2488 2181 
Q 2444 2441 2289 2572 
Q 2134 2703 1888 2703 
Q 1559 2703 1364 2476 
Q 1169 2250 1169 1719 
Q 1169 1128 1367 884 
Q 1566 641 1900 641 
Q 2150 641 2309 783 
Q 2469 925 2534 1272 
L 3397 1125 
Q 3263 531 2881 228 
Q 2500 -75 1859 -75 
Q 1131 -75 698 384 
Q 266 844 266 1656 
Q 266 2478 700 2936 
Q 1134 3394 1875 3394 
Q 2481 3394 2839 3133 
Q 3197 2872 3353 2338 
z
" transform="scale(0.015625)"/>
       <path id="Arial-BoldMT-61" d="M 1116 2306 
L 319 2450 
Q 453 2931 781 3162 
Q 1109 3394 1756 3394 
Q 2344 3394 2631 3255 
Q 2919 3116 3036 2902 
Q 3153 2688 3153 2116 
L 3144 1091 
Q 3144 653 3186 445 
Q 3228 238 3344 0 
L 2475 0 
Q 2441 88 2391 259 
Q 2369 338 2359 363 
Q 2134 144 1878 34 
Q 1622 -75 1331 -75 
Q 819 -75 523 203 
Q 228 481 228 906 
Q 228 1188 362 1408 
Q 497 1628 739 1745 
Q 981 1863 1438 1950 
Q 2053 2066 2291 2166 
L 2291 2253 
Q 2291 2506 2166 2614 
Q 2041 2722 1694 2722 
Q 1459 2722 1328 2630 
Q 1197 2538 1116 2306 
z
M 2291 1594 
Q 2122 1538 1756 1459 
Q 1391 1381 1278 1306 
Q 1106 1184 1106 997 
Q 1106 813 1243 678 
Q 1381 544 1594 544 
Q 1831 544 2047 700 
Q 2206 819 2256 991 
Q 2291 1103 2291 1419 
L 2291 1594 
z
" transform="scale(0.015625)"/>
       <path id="Arial-BoldMT-6c" d="M 459 0 
L 459 4581 
L 1338 4581 
L 1338 0 
L 459 0 
z
" transform="scale(0.015625)"/>
       <path id="Arial-BoldMT-20" transform="scale(0.015625)"/>
       <path id="Arial-BoldMT-53" d="M 231 1491 
L 1131 1578 
Q 1213 1125 1461 912 
Q 1709 700 2131 700 
Q 2578 700 2804 889 
Q 3031 1078 3031 1331 
Q 3031 1494 2936 1608 
Q 2841 1722 2603 1806 
Q 2441 1863 1863 2006 
Q 1119 2191 819 2459 
Q 397 2838 397 3381 
Q 397 3731 595 4036 
Q 794 4341 1167 4500 
Q 1541 4659 2069 4659 
Q 2931 4659 3367 4281 
Q 3803 3903 3825 3272 
L 2900 3231 
Q 2841 3584 2645 3739 
Q 2450 3894 2059 3894 
Q 1656 3894 1428 3728 
Q 1281 3622 1281 3444 
Q 1281 3281 1419 3166 
Q 1594 3019 2269 2859 
Q 2944 2700 3267 2529 
Q 3591 2359 3773 2064 
Q 3956 1769 3956 1334 
Q 3956 941 3737 597 
Q 3519 253 3119 86 
Q 2719 -81 2122 -81 
Q 1253 -81 787 320 
Q 322 722 231 1491 
z
" transform="scale(0.015625)"/>
       <path id="Arial-BoldMT-66" d="M 75 3319 
L 563 3319 
L 563 3569 
Q 563 3988 652 4194 
Q 741 4400 980 4529 
Q 1219 4659 1584 4659 
Q 1959 4659 2319 4547 
L 2200 3934 
Q 1991 3984 1797 3984 
Q 1606 3984 1523 3895 
Q 1441 3806 1441 3553 
L 1441 3319 
L 2097 3319 
L 2097 2628 
L 1441 2628 
L 1441 0 
L 563 0 
L 563 2628 
L 75 2628 
L 75 3319 
z
" transform="scale(0.015625)"/>
       <path id="Arial-BoldMT-74" d="M 1981 3319 
L 1981 2619 
L 1381 2619 
L 1381 1281 
Q 1381 875 1398 808 
Q 1416 741 1477 697 
Q 1538 653 1625 653 
Q 1747 653 1978 738 
L 2053 56 
Q 1747 -75 1359 -75 
Q 1122 -75 931 4 
Q 741 84 652 211 
Q 563 338 528 553 
Q 500 706 500 1172 
L 500 2619 
L 97 2619 
L 97 3319 
L 500 3319 
L 500 3978 
L 1381 4491 
L 1381 3319 
L 1981 3319 
z
" transform="scale(0.015625)"/>
       <path id="Arial-BoldMT-2f" d="M -9 -78 
L 1125 4659 
L 1784 4659 
L 638 -78 
L -9 -78 
z
" transform="scale(0.015625)"/>
       <path id="Arial-BoldMT-70" d="M 434 3319 
L 1253 3319 
L 1253 2831 
Q 1413 3081 1684 3237 
Q 1956 3394 2288 3394 
Q 2866 3394 3269 2941 
Q 3672 2488 3672 1678 
Q 3672 847 3265 386 
Q 2859 -75 2281 -75 
Q 2006 -75 1782 34 
Q 1559 144 1313 409 
L 1313 -1263 
L 434 -1263 
L 434 3319 
z
M 1303 1716 
Q 1303 1156 1525 889 
Q 1747 622 2066 622 
Q 2372 622 2575 867 
Q 2778 1113 2778 1672 
Q 2778 2194 2568 2447 
Q 2359 2700 2050 2700 
Q 1728 2700 1515 2451 
Q 1303 2203 1303 1716 
z
" transform="scale(0.015625)"/>
      </defs>
      <use xlink:href="#Arial-BoldMT-43"/>
      <use xlink:href="#Arial-BoldMT-68" x="72.216797"/>
      <use xlink:href="#Arial-BoldMT-65" x="133.300781"/>
      <use xlink:href="#Arial-BoldMT-6d" x="188.916016"/>
      <use xlink:href="#Arial-BoldMT-69" x="277.832031"/>
      <use xlink:href="#Arial-BoldMT-63" x="305.615234"/>
      <use xlink:href="#Arial-BoldMT-61" x="361.230469"/>
      <use xlink:href="#Arial-BoldMT-6c" x="416.845703"/>
      <use xlink:href="#Arial-BoldMT-20" x="444.628906"/>
      <use xlink:href="#Arial-BoldMT-53" x="472.412109"/>
      <use xlink:href="#Arial-BoldMT-68" x="539.111328"/>
      <use xlink:href="#Arial-BoldMT-69" x="600.195312"/>
      <use xlink:href="#Arial-BoldMT-66" x="627.978516"/>
      <use xlink:href="#Arial-BoldMT-74" x="661.279297"/>
      <use xlink:href="#Arial-BoldMT-20" x="694.580078"/>
      <use xlink:href="#Arial-BoldMT-2f" x="722.363281"/>
      <use xlink:href="#Arial-BoldMT-20" x="750.146484"/>
      <use xlink:href="#Arial-BoldMT-70" x="777.929688"/>
      <use xlink:href="#Arial-BoldMT-70" x="839.013672"/>
      <use xlink:href="#Arial-BoldMT-6d" x="900.097656"/>
     </g>
    </g>
   </g>
   <g id="matplotlib.axis_2"/>
   <g id="line2d_12">
    <path d="M 2.922876 186.737124 
L 3.536735 187.460479 
L 4.150595 188.736393 
L 4.764454 190.168872 
L 4.969073 190.318006 
L 5.378313 190.137118 
L 6.196792 189.481055 
L 6.606031 188.931697 
L 6.810651 188.891721 
L 7.015271 189.082297 
L 7.42451 190.065607 
L 7.83375 191.116473 
L 8.038369 191.249637 
L 8.242989 191.039726 
L 8.856848 189.922625 
L 9.061468 189.875718 
L 9.470707 190.321642 
L 9.879947 190.776025 
L 10.289186 190.775783 
L 11.107665 190.310965 
L 11.516905 190.189202 
L 12.335384 189.258571 
L 12.744623 189.251029 
L 13.153863 189.412637 
L 13.563102 189.701294 
L 13.972341 189.62591 
L 14.586201 189.225496 
L 14.99544 188.985734 
L 15.40468 189.100211 
L 15.813919 189.320926 
L 16.223158 189.076553 
L 16.632398 188.753811 
L 16.837018 188.780545 
L 17.246257 189.335607 
L 17.655497 189.880183 
L 18.064736 189.976951 
L 18.883215 189.970975 
L 19.292454 190.045806 
L 20.315553 189.723022 
L 21.134032 190.335511 
L 22.157131 191.517145 
L 22.56637 191.59475 
L 22.975609 191.748407 
L 23.180229 191.616054 
L 23.589469 190.860006 
L 24.407948 188.700789 
L 24.612567 188.586065 
L 24.817187 188.867709 
L 25.635666 191.009121 
L 25.840286 191.06594 
L 26.249525 190.782976 
L 27.272624 189.495712 
L 28.091103 189.619899 
L 28.704962 189.708028 
L 29.523441 189.488304 
L 29.72806 189.627439 
L 30.1373 190.379478 
L 30.751159 191.925 
L 30.955779 192.015357 
L 31.160398 191.797444 
L 31.978877 190.241826 
L 32.388117 190.228936 
L 32.797356 190.330803 
L 33.206596 190.120049 
L 34.025075 189.445419 
L 34.229694 189.39868 
L 34.434314 189.482313 
L 35.662032 190.752743 
L 36.071272 191.144526 
L 36.685131 191.869001 
L 36.889751 191.863481 
L 37.29899 191.424645 
L 38.526709 189.065946 
L 39.549807 187.785341 
L 39.754427 187.86727 
L 40.572906 188.5707 
L 40.982145 188.792758 
L 42.823723 190.703471 
L 43.232962 191.267397 
L 43.437582 191.10422 
L 44.256061 189.394829 
L 44.6653 189.369535 
L 45.07454 189.305458 
L 45.688399 188.988322 
L 46.097639 189.192119 
L 46.506878 189.527307 
L 46.916117 189.546643 
L 47.325357 189.48845 
L 47.529977 189.749286 
L 48.143836 190.955772 
L 48.553075 191.098244 
L 48.962315 191.141716 
L 50.190033 191.741772 
L 50.394653 191.646407 
L 50.803892 191.092507 
L 51.826991 189.299461 
L 52.23623 189.168627 
L 52.64547 189.178072 
L 53.463949 188.335396 
L 53.873188 188.952956 
L 54.487047 189.99712 
L 54.691667 190.101053 
L 54.896287 189.975756 
L 56.124005 188.365508 
L 56.533245 188.663031 
L 57.351724 189.64369 
L 57.760963 189.624739 
L 58.374822 189.373294 
L 58.988681 189.29773 
L 59.602541 189.110047 
L 59.80716 189.205836 
L 60.625639 189.93773 
L 61.034879 189.593128 
L 61.239498 189.593539 
L 61.648738 190.190333 
L 62.057977 190.701457 
L 62.467217 190.803256 
L 62.671836 190.729665 
L 62.876456 190.528523 
L 63.899555 188.756427 
L 64.308794 188.943722 
L 65.127273 189.430968 
L 65.536513 189.311086 
L 66.764231 188.287847 
L 67.17347 188.159706 
L 67.78733 188.15509 
L 67.991949 188.102256 
L 68.196569 188.179114 
L 68.810428 188.791904 
L 69.219668 188.932752 
L 69.628907 188.792951 
L 70.038147 188.543332 
L 70.242766 188.634713 
L 70.652006 189.344863 
L 71.470485 191.059698 
L 71.675104 191.277114 
L 71.879724 191.329467 
L 72.698203 191.028712 
L 72.902823 191.057061 
L 73.516682 191.548827 
L 73.721302 191.398082 
L 74.539781 189.764441 
L 74.7444 189.849549 
L 75.15364 190.460313 
L 75.767499 191.400652 
L 75.972119 191.408636 
L 76.585978 190.902532 
L 76.995217 190.452121 
L 77.404457 189.94742 
L 77.609076 189.992694 
L 78.222936 190.810931 
L 78.427555 190.837044 
L 78.632175 190.602148 
L 79.859893 187.724773 
L 80.269133 187.321988 
L 80.473753 187.389872 
L 81.292232 188.394182 
L 82.51995 190.436116 
L 82.72457 190.431338 
L 83.747668 189.532572 
L 83.952288 189.589149 
L 84.770767 190.536866 
L 85.793866 190.813713 
L 85.998485 190.812274 
L 86.407725 190.395729 
L 87.021584 189.698388 
L 88.044683 188.859794 
L 88.453922 188.892498 
L 89.272401 188.821069 
L 90.09088 188.910989 
L 90.704739 188.552815 
L 91.113978 187.912543 
L 91.523218 187.247749 
L 91.727838 187.087242 
L 91.932457 187.097646 
L 92.341697 187.665226 
L 92.750936 188.378018 
L 93.160176 188.653366 
L 93.569415 188.611589 
L 93.978655 188.486689 
L 94.183274 188.525693 
L 94.387894 188.747313 
L 95.001753 190.177085 
L 95.615612 191.568497 
L 96.024852 191.919634 
L 96.434091 191.721589 
L 98.071049 189.949734 
L 98.889528 188.834696 
L 99.298768 188.681657 
L 99.503387 188.746934 
L 99.912627 189.224222 
L 100.731106 190.263277 
L 100.935725 190.236746 
L 101.344965 189.740521 
L 101.754204 189.084318 
L 101.958824 188.933105 
L 102.163444 189.00607 
L 102.981923 190.094593 
L 103.186542 189.988871 
L 103.595782 189.482615 
L 104.005021 189.38909 
L 104.8235 189.331944 
L 105.02812 189.639532 
L 106.051219 192.213007 
L 106.255838 192.028401 
L 106.869697 191.089161 
L 107.278937 190.950379 
L 107.688176 190.929269 
L 108.097416 190.47178 
L 108.506655 190.030199 
L 108.711275 190.068004 
L 109.325134 190.643675 
L 109.529754 190.611996 
L 109.938993 190.035445 
L 110.348233 189.255468 
L 110.552852 189.041353 
L 110.757472 188.993943 
L 110.962092 189.111014 
L 111.371331 189.78556 
L 111.780571 190.506806 
L 111.985191 190.617863 
L 112.39443 190.420807 
L 112.803669 190.263792 
L 113.212909 190.124896 
L 113.622148 189.805505 
L 113.826768 189.775903 
L 114.645247 190.163463 
L 114.849867 189.878636 
L 115.259106 188.430244 
L 115.668346 186.976258 
L 116.077585 186.551002 
L 116.691444 186.350062 
L 116.896064 186.458486 
L 117.305303 187.182578 
L 118.328402 189.624907 
L 118.737642 190.088792 
L 118.942261 190.139669 
L 119.146881 190.024407 
L 119.55612 189.323993 
L 119.96536 188.604317 
L 120.374599 188.378033 
L 120.783839 188.455017 
L 121.397698 189.008504 
L 122.216177 189.989552 
L 123.034656 190.169595 
L 123.239276 190.119645 
L 123.648515 189.604704 
L 124.671614 187.837354 
L 125.080853 187.953688 
L 125.285473 188.033713 
L 125.490093 187.970034 
L 126.103952 187.148749 
L 126.308571 187.247487 
L 127.33167 189.08439 
L 127.74091 189.571365 
L 128.559388 190.901583 
L 129.377867 191.552551 
L 129.582487 191.461741 
L 130.810205 190.171389 
L 131.219445 189.986672 
L 131.628684 190.246151 
L 132.856403 191.30112 
L 133.061022 191.305462 
L 134.084121 190.779299 
L 134.9026 189.548569 
L 135.10722 189.468651 
L 135.516459 189.824822 
L 135.721079 190.009149 
L 135.925699 189.972583 
L 136.334938 189.328348 
L 136.744178 188.789329 
L 136.948797 188.788325 
L 137.358037 188.982445 
L 137.562656 188.890762 
L 138.381135 187.766495 
L 139.404234 185.331055 
L 139.608854 185.248774 
L 140.018093 185.515523 
L 140.427333 186.151806 
L 141.041192 187.184576 
L 141.655051 187.73112 
L 142.47353 188.131237 
L 142.882769 188.799022 
L 143.292009 189.518975 
L 143.701248 189.880727 
L 144.110488 189.975124 
L 144.519727 189.56009 
L 145.133586 188.202879 
L 145.542826 187.420988 
L 145.747446 187.392248 
L 146.770544 188.383566 
L 146.975164 188.380892 
L 147.793643 188.026467 
L 148.407502 188.502813 
L 149.021361 188.535897 
L 149.225981 188.723712 
L 149.63522 189.661577 
L 150.04446 190.676477 
L 150.453699 190.963392 
L 151.067558 190.886866 
L 151.886037 190.600365 
L 152.499896 191.063232 
L 153.113756 191.630169 
L 153.318375 191.653861 
L 153.522995 191.49785 
L 154.546094 189.949207 
L 154.955333 190.109601 
L 155.364573 190.292399 
L 155.773812 189.975723 
L 156.387671 189.304772 
L 156.796911 189.124377 
L 157.20615 189.327659 
L 157.61539 189.791134 
L 158.024629 190.608471 
L 158.638488 192.226906 
L 158.843108 192.447267 
L 159.047728 192.340305 
L 159.866207 190.975115 
L 160.275446 190.822581 
L 160.480066 190.810698 
L 160.684686 190.676527 
L 161.093925 189.812153 
L 161.707784 188.300314 
L 162.321643 187.579897 
L 162.730883 187.425748 
L 163.140122 187.427408 
L 163.549362 186.839431 
L 163.958601 186.136067 
L 164.163221 185.987148 
L 165.390939 186.060662 
L 166.004798 186.624264 
L 166.209418 186.518579 
L 166.618658 185.65381 
L 167.027897 184.724705 
L 167.232517 184.480294 
L 167.437137 184.482762 
L 167.846376 185.168813 
L 168.050996 185.498066 
L 168.255615 185.576077 
L 168.460235 185.377422 
L 169.278714 184.026052 
L 169.483334 184.125262 
L 170.301813 185.015995 
L 170.711052 185.408522 
L 171.324911 186.36382 
L 172.34801 187.211301 
L 172.55263 187.25823 
L 172.757249 187.16955 
L 173.166489 186.571985 
L 173.780348 184.911963 
L 174.598827 182.736165 
L 175.008066 182.223195 
L 175.417306 182.440671 
L 175.826545 182.550966 
L 176.235785 182.301898 
L 176.849644 181.55174 
L 177.463503 180.271705 
L 178.077362 178.958492 
L 178.281982 178.887909 
L 178.486602 179.19048 
L 179.100461 180.790785 
L 179.305081 180.882391 
L 180.12356 180.750249 
L 180.737419 180.634336 
L 180.942039 180.422065 
L 181.351278 179.480319 
L 181.965137 176.993655 
L 182.578996 174.531792 
L 182.988236 173.921138 
L 183.397475 173.772229 
L 184.011334 173.708886 
L 184.215954 173.362563 
L 184.625194 171.70002 
L 185.852912 164.784639 
L 186.876011 157.406687 
L 187.48987 151.004448 
L 188.103729 142.926907 
L 188.717588 131.671753 
L 189.536067 112.027648 
L 190.149926 90.800893 
L 190.763785 60.371269 
L 191.786884 7.066776 
L 191.991504 3.00024 
L 192.196123 3.490211 
L 192.400743 8.791819 
L 192.809983 31.31972 
L 194.037701 113.029165 
L 194.65156 138.570176 
L 195.265419 154.232525 
L 195.879279 164.670638 
L 196.493138 171.506225 
L 197.106997 175.655932 
L 197.516236 177.188461 
L 197.925476 178.037009 
L 198.334715 178.555026 
L 198.743955 179.616173 
L 199.153194 180.610105 
L 199.357814 180.67342 
L 199.971673 180.171831 
L 200.176293 180.339925 
L 201.404011 182.273507 
L 201.813251 182.557722 
L 202.63173 182.343751 
L 203.040969 182.514762 
L 203.245589 182.458263 
L 203.654828 181.883308 
L 204.064068 180.754803 
L 205.087166 177.02061 
L 206.519504 171.298092 
L 206.928744 170.310116 
L 207.133364 170.234924 
L 207.337983 170.474485 
L 207.747223 171.580462 
L 208.770321 174.802983 
L 208.974941 175.020531 
L 209.179561 174.9276 
L 209.5888 174.37472 
L 209.79342 174.323805 
L 210.407279 174.849543 
L 210.611899 174.648046 
L 211.021138 173.356741 
L 211.430378 170.969103 
L 212.248857 165.176211 
L 214.090434 156.460679 
L 214.295054 156.065187 
L 214.908913 155.520624 
L 215.318153 154.46393 
L 215.727392 152.722642 
L 216.545871 147.798834 
L 217.36435 143.03569 
L 217.56897 142.454496 
L 217.773589 142.31409 
L 217.978209 142.606716 
L 218.387449 144.039427 
L 219.819787 149.874277 
L 220.024406 150.267917 
L 220.229026 150.324011 
L 220.433646 150.050015 
L 220.842885 148.789407 
L 221.456744 145.883757 
L 222.070604 142.005399 
L 222.684463 135.671843 
L 223.298322 129.916238 
L 223.502942 129.176755 
L 223.707561 129.254146 
L 223.912181 130.138322 
L 224.321421 134.02089 
L 225.344519 145.895011 
L 225.753759 148.366593 
L 226.162998 149.567771 
L 226.572238 150.167901 
L 226.776857 150.027711 
L 226.981477 149.449784 
L 227.186097 148.342617 
L 227.595336 144.256788 
L 228.209195 134.332634 
L 229.027674 121.705985 
L 229.436914 117.476173 
L 229.846153 115.55342 
L 230.255393 115.017405 
L 230.664632 114.439974 
L 231.278491 112.746736 
L 231.687731 110.894034 
L 232.09697 107.221343 
L 234.143167 83.527912 
L 234.347787 82.704401 
L 234.552407 82.625925 
L 234.757027 83.449799 
L 235.166266 88.060558 
L 235.780125 100.335102 
L 237.826323 147.164165 
L 238.440182 156.975213 
L 239.054041 163.692208 
L 239.46328 166.357787 
L 239.87252 167.486568 
L 240.281759 167.733877 
L 240.895618 167.769831 
L 241.100238 167.473946 
L 241.509478 166.066755 
L 242.532576 160.52194 
L 243.351055 156.584954 
L 244.169534 152.987393 
L 244.374154 152.898728 
L 244.578774 153.328891 
L 244.988013 155.543555 
L 245.601872 161.239121 
L 247.23883 176.597054 
L 248.057309 183.195342 
L 248.466548 184.582813 
L 248.671168 184.686833 
L 249.080408 184.671524 
L 249.489647 185.209765 
L 250.308126 186.786305 
L 250.717365 187.840266 
L 250.921985 188.082295 
L 251.331225 188.076876 
L 251.740464 187.879893 
L 251.945084 187.598666 
L 252.354323 186.484622 
L 252.968182 184.58487 
L 253.172802 184.3357 
L 253.377422 184.436771 
L 253.786661 185.413334 
L 254.195901 186.231252 
L 254.40052 186.159139 
L 255.423619 184.498245 
L 255.628239 184.436851 
L 255.832859 184.540919 
L 256.446718 185.417772 
L 256.855957 185.750738 
L 257.060577 185.656102 
L 257.469816 185.052158 
L 257.879056 184.424162 
L 258.288295 184.193412 
L 258.697535 184.12381 
L 259.311394 183.816503 
L 259.720633 184.11263 
L 260.129873 184.611995 
L 260.334493 184.6871 
L 260.539112 184.490791 
L 261.562211 182.529477 
L 261.766831 182.585254 
L 262.17607 183.363602 
L 262.585309 184.3691 
L 262.994549 184.792615 
L 263.199169 184.792988 
L 263.403788 184.64345 
L 264.426887 183.278093 
L 264.836126 182.588281 
L 265.859225 180.073156 
L 266.268465 180.054189 
L 266.473084 180.03374 
L 266.882324 179.535534 
L 267.291563 178.557613 
L 268.110042 176.287723 
L 268.928521 174.649895 
L 269.747 171.689783 
L 270.565479 167.767731 
L 271.588577 162.647655 
L 272.202437 160.984849 
L 272.816296 159.38769 
L 273.225535 157.750716 
L 273.839394 153.868695 
L 275.680972 141.068733 
L 276.090211 136.080588 
L 276.704071 125.210505 
L 277.31793 110.603629 
L 279.568747 49.577354 
L 280.182606 38.021901 
L 280.387226 36.000982 
L 280.591845 35.218118 
L 280.796465 35.7381 
L 281.001085 37.471024 
L 281.410324 43.603418 
L 283.047282 73.805755 
L 283.251902 75.40087 
L 283.456522 76.071521 
L 283.661141 75.732031 
L 283.865761 74.365724 
L 284.275001 69.158658 
L 285.298099 52.660101 
L 285.707339 50.085054 
L 285.911958 50.161011 
L 286.116578 51.24426 
L 286.525818 56.65532 
L 286.935057 66.165469 
L 287.753536 92.554354 
L 288.981254 132.339326 
L 289.595113 146.467891 
L 290.413592 158.923801 
L 291.027452 165.818374 
L 291.641311 169.618396 
L 293.278269 178.078553 
L 293.687508 179.38996 
L 294.915226 181.450593 
L 295.938325 182.67139 
L 296.961424 182.880286 
L 297.370663 183.014224 
L 297.575283 183.192127 
L 297.779903 183.593542 
L 298.189142 185.217466 
L 298.803001 187.989584 
L 299.212241 188.658 
L 299.62148 188.70105 
L 300.03072 188.665456 
L 300.439959 188.290445 
L 302.076917 185.805155 
L 302.486156 185.583767 
L 303.509255 185.27795 
L 303.918494 185.027915 
L 304.123114 185.053978 
L 304.532353 185.710198 
L 305.555452 187.848721 
L 305.760072 187.859854 
L 305.964692 187.558993 
L 306.578551 185.810288 
L 306.98779 184.770717 
L 307.19241 184.529494 
L 307.39703 184.538867 
L 308.215509 185.493441 
L 309.033987 185.411393 
L 309.238607 185.401594 
L 309.443227 185.215101 
L 309.852466 184.273639 
L 310.466326 182.827261 
L 310.875565 182.141427 
L 311.694044 180.515752 
L 311.898664 180.468662 
L 312.307903 180.66057 
L 312.512523 180.517728 
L 312.717143 180.052285 
L 313.126382 178.38537 
L 313.740241 175.689882 
L 313.944861 175.281886 
L 314.149481 175.154628 
L 314.3541 175.246408 
L 314.76334 175.905969 
L 315.172579 176.580388 
L 315.377199 176.626928 
L 315.581819 176.392654 
L 315.991058 175.362186 
L 316.400298 173.940177 
L 316.809537 171.597445 
L 318.855734 155.72908 
L 319.469594 148.404292 
L 320.083453 138.075734 
L 320.697312 123.807374 
L 321.311171 102.828078 
L 322.12965 63.185577 
L 322.743509 34.091144 
L 322.948129 28.370757 
L 323.152749 26.099804 
L 323.357368 27.833571 
L 323.561988 33.541157 
L 323.971228 53.581078 
L 324.994326 110.01624 
L 325.608185 131.496523 
L 326.222045 145.735651 
L 326.835904 155.771674 
L 327.449763 162.413155 
L 328.063622 166.794369 
L 328.882101 170.443036 
L 329.70058 173.625614 
L 330.109819 174.187459 
L 331.337538 175.597761 
L 331.746777 175.684148 
L 331.951397 175.572123 
L 332.360636 174.740235 
L 332.769876 173.856999 
L 332.974496 173.749953 
L 333.383735 173.739261 
L 333.588355 173.414797 
L 335.020693 169.416413 
L 335.429932 167.053917 
L 336.043791 161.347824 
L 337.885369 138.491051 
L 338.499228 127.365989 
L 339.113087 111.158846 
L 340.136186 80.606066 
L 340.545425 74.109004 
L 340.750045 72.840436 
L 340.954665 72.985453 
L 341.159285 74.583569 
L 341.568524 81.59354 
L 343.205482 118.217405 
L 343.819341 126.271722 
L 345.251679 141.374383 
L 345.660919 143.961304 
L 345.865538 144.611598 
L 346.070158 144.83454 
L 346.274778 144.665615 
L 346.479397 144.143612 
L 346.888637 141.92199 
L 347.297876 137.860354 
L 347.911736 129.134393 
L 348.730214 114.256288 
L 349.957933 87.436554 
L 351.390271 49.994555 
L 351.594891 48.111047 
L 351.79951 47.948406 
L 352.00413 49.662753 
L 352.41337 58.597628 
L 353.231848 87.72992 
L 354.050327 116.301998 
L 354.868806 137.033221 
L 355.687285 151.600886 
L 356.505764 162.546919 
L 357.324243 169.434027 
L 357.938102 172.943504 
L 360.188919 182.064847 
L 360.598159 183.101054 
L 361.007398 183.63735 
L 361.621257 184.090479 
L 363.462835 187.663421 
L 363.872074 187.754166 
L 364.281314 187.495112 
L 364.690553 187.184503 
L 364.895173 187.143087 
L 365.099793 187.293566 
L 366.122891 189.059864 
L 367.14599 189.494197 
L 367.555229 189.813231 
L 368.169089 190.714074 
L 368.373708 190.777683 
L 368.782948 190.369192 
L 369.192187 189.961062 
L 369.806046 189.920417 
L 370.010666 190.068164 
L 370.624525 190.860025 
L 370.829145 190.849942 
L 371.238384 190.467882 
L 371.647624 189.916604 
L 372.056863 189.81119 
L 372.466103 190.034311 
L 373.079962 190.700597 
L 374.103061 192.043718 
L 375.126159 193.084563 
L 375.535399 193.231537 
L 375.944638 193.056015 
L 376.558497 192.637899 
L 377.376976 192.408842 
L 377.786216 191.876692 
L 378.604695 190.441278 
L 379.013934 190.126687 
L 380.650892 189.514461 
L 381.469371 188.665433 
L 381.87861 188.810733 
L 382.28785 189.280507 
L 383.310948 191.007385 
L 384.538667 191.735938 
L 385.357146 191.514012 
L 386.175624 190.918267 
L 386.584864 191.03683 
L 387.198723 191.44802 
L 387.607963 191.467683 
L 388.017202 191.073378 
L 388.631061 190.261253 
L 389.040301 188.947023 
L 389.44954 187.628077 
L 389.65416 187.347716 
L 389.85878 187.375116 
L 390.881878 188.427862 
L 391.700357 189.279568 
L 393.541935 189.691024 
L 394.769653 189.309128 
L 396.406611 188.922953 
L 397.02047 188.546293 
L 397.634329 187.975542 
L 398.043569 187.974983 
L 398.452808 188.154584 
L 398.657428 188.40474 
L 399.475907 190.365634 
L 399.680526 190.37308 
L 400.089766 189.788363 
L 400.908245 188.3671 
L 401.317484 187.981505 
L 401.726724 187.876603 
L 401.931343 187.998279 
L 402.749822 189.251805 
L 402.954442 189.260943 
L 403.363682 188.973956 
L 403.977541 188.288065 
L 405.205259 186.466552 
L 406.637597 185.554584 
L 406.842217 185.564827 
L 407.046837 185.710801 
L 407.456076 186.399085 
L 408.069935 187.950027 
L 408.888414 190.595291 
L 409.093034 190.888042 
L 409.297654 190.90864 
L 410.729992 189.623578 
L 410.934611 189.723194 
L 411.343851 190.246299 
L 411.95771 191.431711 
L 412.571569 192.709109 
L 412.776189 192.819407 
L 412.980809 192.713363 
L 413.799288 191.528937 
L 414.617767 190.429309 
L 415.231626 190.170415 
L 415.640865 189.577214 
L 416.254724 188.102491 
L 416.459344 187.858823 
L 416.663964 187.792308 
L 416.868583 187.877776 
L 417.891682 189.029826 
L 418.914781 189.136621 
L 419.32402 188.671571 
L 419.73326 187.75491 
L 420.347119 185.874626 
L 420.551739 185.559895 
L 420.756358 185.474807 
L 421.165598 185.735418 
L 421.574837 186.069565 
L 421.984077 186.035861 
L 422.188696 185.791849 
L 422.597936 184.729667 
L 423.007175 183.598883 
L 423.416415 183.022767 
L 423.825654 182.469076 
L 424.644133 180.341696 
L 424.848753 180.264429 
L 425.257992 180.352747 
L 425.462612 179.970265 
L 425.871851 177.765728 
L 427.30419 166.192026 
L 427.918049 159.041703 
L 428.736528 146.0255 
L 429.350387 133.568358 
L 430.373485 106.411832 
L 431.191964 77.421853 
L 432.010443 49.077567 
L 432.215063 45.386263 
L 432.419683 43.74696 
L 432.624302 44.128955 
L 432.828922 46.323923 
L 433.238162 54.933682 
L 435.693598 121.767803 
L 436.512077 135.392325 
L 437.125936 142.500571 
L 437.535176 145.282058 
L 437.739796 145.980738 
L 437.944415 146.251646 
L 438.149035 146.113903 
L 438.353655 145.576927 
L 438.762894 143.594705 
L 439.376753 139.428155 
L 439.990613 133.107335 
L 440.604472 125.12549 
L 441.218331 113.751371 
L 442.03681 93.621462 
L 442.650669 79.546811 
L 443.059909 74.099626 
L 443.264528 73.191975 
L 443.469148 73.740035 
L 443.673768 75.817112 
L 444.083007 84.178459 
L 446.129204 139.313738 
L 446.947683 153.717228 
L 447.766162 164.149169 
L 448.789261 174.125832 
L 449.40312 178.117498 
L 449.81236 179.360522 
L 450.016979 179.53756 
L 450.426219 179.426355 
L 450.835458 179.314683 
L 451.040078 179.426836 
L 451.449317 180.267711 
L 452.881655 184.26728 
L 453.290895 184.702672 
L 454.313994 184.664265 
L 455.132472 184.945918 
L 455.541712 185.512833 
L 456.76943 188.494193 
L 456.97405 188.519649 
L 457.17867 188.288281 
L 457.587909 187.224073 
L 457.997149 186.148356 
L 458.406388 185.801216 
L 458.611008 185.87283 
L 459.020247 186.544122 
L 459.429487 187.285761 
L 460.657205 188.751478 
L 461.066444 189.766027 
L 461.475684 190.938776 
L 461.680304 191.219333 
L 461.884923 191.259737 
L 462.294163 190.898044 
L 463.726501 188.60218 
L 463.931121 188.501469 
L 464.13574 188.652436 
L 464.7496 189.916088 
L 464.954219 190.038033 
L 465.772698 189.814439 
L 466.181938 190.011234 
L 467.000417 189.648324 
L 467.409656 189.800942 
L 468.228135 189.536303 
L 468.432755 189.551573 
L 468.637374 189.407949 
L 469.660473 187.664381 
L 469.865093 187.707825 
L 470.478952 188.138284 
L 470.888191 187.922943 
L 471.297431 187.675903 
L 471.70667 187.785249 
L 472.11591 188.292451 
L 472.525149 188.787641 
L 472.729769 188.755584 
L 473.139008 188.021746 
L 473.548248 187.26747 
L 473.752868 187.187797 
L 474.162107 187.544158 
L 475.185206 188.980943 
L 475.594445 189.192011 
L 476.412924 190.16631 
L 476.822163 190.928843 
L 477.231403 191.860729 
L 477.436023 192.020772 
L 477.640642 191.87595 
L 478.459121 190.661021 
L 478.663741 190.78013 
L 479.68684 192.112399 
L 479.891459 191.893137 
L 480.505319 190.852203 
L 480.914558 190.830947 
L 481.119178 190.833499 
L 481.323797 190.699909 
L 481.733037 190.012396 
L 482.346896 188.840854 
L 482.551516 188.793205 
L 482.756136 188.970776 
L 483.165375 189.823463 
L 483.779234 191.405355 
L 483.983854 191.59871 
L 484.188474 191.601757 
L 484.597713 191.172029 
L 485.006953 190.632674 
L 485.211572 190.69342 
L 485.620812 191.426003 
L 486.234671 192.583707 
L 486.64391 193.040124 
L 486.84853 193.068084 
L 488.076248 192.359835 
L 488.485488 191.787397 
L 489.917826 188.936382 
L 490.327065 188.338593 
L 490.736305 188.347715 
L 491.145544 188.382566 
L 491.554784 188.114156 
L 492.577882 186.90788 
L 492.987122 187.397987 
L 493.396361 187.881398 
L 493.600981 187.907995 
L 494.41946 187.521136 
L 494.828699 187.826609 
L 495.442559 188.407198 
L 495.851798 188.151309 
L 496.056418 188.010893 
L 496.261037 188.010343 
L 496.670277 188.43897 
L 497.079516 188.792606 
L 497.488756 189.00591 
L 498.307235 190.376834 
L 498.511854 190.399379 
L 499.534953 190.013956 
L 500.353432 190.443213 
L 500.762671 190.158945 
L 501.376531 189.446127 
L 501.78577 188.220245 
L 502.19501 186.788458 
L 502.604249 186.142284 
L 502.808869 186.08934 
L 503.013488 186.172721 
L 503.422728 186.755848 
L 504.241207 188.397123 
L 505.059686 189.468363 
L 505.878165 191.474293 
L 506.082784 191.655583 
L 506.287404 191.658828 
L 506.696644 191.244137 
L 507.310503 189.748309 
L 507.924362 188.238005 
L 508.333601 187.831709 
L 508.742841 187.739917 
L 508.947461 187.87292 
L 509.3567 188.80391 
L 510.175179 191.427378 
L 510.584418 191.97072 
L 510.789038 192.052208 
L 510.993658 191.937883 
L 511.402897 191.040609 
L 512.016756 189.54383 
L 512.425996 189.134994 
L 512.630616 189.20092 
L 513.039855 189.777354 
L 513.858334 191.194488 
L 514.267573 191.620467 
L 514.881433 192.410402 
L 515.086052 192.422177 
L 515.290672 192.291617 
L 515.699912 191.66031 
L 516.109151 191.005152 
L 516.51839 190.756973 
L 516.92763 190.561172 
L 517.541489 189.650247 
L 518.155348 188.806528 
L 518.359968 188.852594 
L 518.769207 189.540843 
L 519.587686 191.156633 
L 519.996926 191.469536 
L 520.815405 191.593252 
L 521.224644 191.657104 
L 521.429264 191.437249 
L 522.247743 189.988176 
L 522.452363 189.971925 
L 522.656982 190.225467 
L 523.475461 192.037295 
L 523.680081 192.130435 
L 524.08932 191.833756 
L 525.317039 190.474045 
L 525.726278 189.202978 
L 526.340137 187.14945 
L 526.544757 186.835411 
L 526.749377 186.795663 
L 527.158616 187.276627 
L 527.772475 188.128934 
L 528.590954 188.608335 
L 529.000194 188.68995 
L 529.409433 188.756679 
L 529.818673 189.12863 
L 531.046391 190.494497 
L 531.455631 190.749139 
L 531.86487 190.586786 
L 532.478729 190.089253 
L 532.683349 190.062197 
L 533.092588 190.334781 
L 533.501828 190.586976 
L 533.706447 190.519817 
L 534.524926 189.573204 
L 534.729546 189.645456 
L 535.138786 190.074034 
L 535.343405 189.999083 
L 535.752645 189.085393 
L 536.161884 188.232319 
L 536.366504 188.254685 
L 536.775743 188.98544 
L 537.389603 190.049427 
L 537.594222 190.123931 
L 537.798842 189.985501 
L 538.412701 189.214579 
L 538.617321 189.212239 
L 539.64042 190.085836 
L 540.458898 191.059903 
L 540.663518 190.943507 
L 541.072758 190.188747 
L 541.891237 188.114941 
L 542.095856 188.003923 
L 542.505096 188.229937 
L 543.323575 188.766545 
L 543.732814 189.445099 
L 544.346673 190.921958 
L 544.551293 191.114422 
L 544.755913 191.143532 
L 544.960532 191.030395 
L 545.369772 190.340668 
L 546.59749 187.522958 
L 546.80211 187.244061 
L 547.00673 187.173961 
L 547.415969 187.288039 
L 547.620589 187.168811 
L 548.439068 186.127282 
L 548.643688 186.15657 
L 549.052927 186.545977 
L 549.462166 186.873636 
L 549.666786 186.72824 
L 550.280645 185.810084 
L 550.485265 185.778377 
L 550.689885 185.955314 
L 551.917603 187.974799 
L 552.326843 189.159239 
L 552.531462 189.443765 
L 552.736082 189.482202 
L 553.759181 188.879274 
L 554.37304 188.312207 
L 554.57766 188.456464 
L 555.396139 189.98087 
L 555.600758 189.854935 
L 556.009998 189.258432 
L 556.214617 189.23961 
L 556.419237 189.571949 
L 557.033096 190.943913 
L 557.442336 191.023061 
L 557.851575 191.022037 
L 558.056195 190.889767 
L 558.874674 189.764648 
L 559.283913 189.82188 
L 559.488533 189.707842 
L 559.897773 188.874261 
L 560.307012 187.957815 
L 560.511632 187.7464 
L 560.920871 187.759091 
L 563.171688 188.454938 
L 563.376308 188.220375 
L 563.785547 187.225011 
L 564.194787 186.138287 
L 564.399407 185.977787 
L 564.604026 186.172341 
L 565.013266 187.346371 
L 565.422505 188.600849 
L 565.831745 189.320068 
L 566.445604 189.953528 
L 567.059463 190.571549 
L 568.696421 192.896984 
L 569.10566 192.921549 
L 569.5149 192.426455 
L 570.128759 191.437381 
L 570.537998 191.115314 
L 570.947238 191.119952 
L 571.970336 191.610402 
L 572.174956 191.324886 
L 572.788815 189.464577 
L 573.198055 188.448171 
L 573.402674 188.250965 
L 573.607294 188.293277 
L 575.039632 189.446856 
L 575.244252 189.319535 
L 575.858111 188.234672 
L 576.267351 188.135086 
L 576.88121 188.25567 
L 577.290449 188.260645 
L 578.313548 188.876921 
L 578.518168 188.820558 
L 578.927407 189.04501 
L 579.336647 189.176164 
L 579.745886 188.895272 
L 580.359745 188.313019 
L 580.564365 188.271056 
L 580.768985 188.44924 
L 581.178224 189.568901 
L 581.587464 190.748517 
L 581.792083 191.039521 
L 581.996703 191.090273 
L 582.405942 190.584474 
L 583.224421 189.302204 
L 583.633661 188.943478 
L 584.45214 188.608168 
L 586.293717 190.054379 
L 586.498337 190.06308 
L 586.907576 189.786265 
L 587.726055 188.893321 
L 588.544534 187.74521 
L 588.953774 187.808689 
L 589.363013 187.844394 
L 589.772253 187.626925 
L 589.976872 187.711149 
L 590.590732 188.52038 
L 590.795351 188.490558 
L 591.61383 187.676521 
L 591.81845 187.950271 
L 592.432309 189.083313 
L 593.046168 189.307831 
L 593.864647 190.226048 
L 594.069267 190.163554 
L 594.478506 189.619957 
L 595.092366 188.363232 
L 595.296985 188.235248 
L 595.501605 188.378138 
L 596.115464 189.563194 
L 596.524704 190.142212 
L 596.729323 190.221695 
L 596.933943 190.172849 
L 597.138563 189.958962 
L 597.957042 188.408957 
L 598.161661 188.742555 
L 598.98014 191.05851 
L 599.38938 191.483318 
L 600.003239 191.774311 
L 600.412478 192.428466 
L 601.026338 193.82507 
L 601.230957 193.867438 
L 601.435577 193.584736 
L 602.458676 190.79073 
L 603.072535 189.113026 
L 603.277155 188.829837 
L 603.481774 188.868193 
L 604.914112 191.003709 
L 606.75569 191.759725 
L 607.369549 192.615963 
L 607.983408 193.31696 
L 608.188028 193.435562 
L 608.392648 193.399188 
L 608.801887 192.84874 
L 609.415746 192.15151 
L 610.234225 191.26235 
L 611.052704 191.16478 
L 611.666563 190.711997 
L 612.075803 189.834806 
L 613.098901 187.056749 
L 613.508141 186.797226 
L 613.91738 186.925072 
L 614.32662 187.388875 
L 614.735859 188.202589 
L 615.554338 190.198706 
L 615.758958 190.102563 
L 616.168197 189.27946 
L 616.986676 187.565799 
L 617.395916 187.187518 
L 617.805155 187.166842 
L 618.009775 187.384207 
L 618.419014 188.431535 
L 618.828254 189.390527 
L 619.032874 189.454503 
L 619.442113 188.915507 
L 619.851352 188.48947 
L 620.260592 188.685978 
L 621.283691 189.681715 
L 621.69293 189.570279 
L 621.89755 189.663497 
L 622.306789 190.275024 
L 622.716029 190.974008 
L 622.920648 191.10625 
L 623.329888 190.878832 
L 623.739127 190.752361 
L 624.148367 191.104648 
L 624.557606 191.356398 
L 624.762226 191.230714 
L 625.171465 190.451521 
L 625.989944 188.545201 
L 626.194564 188.381944 
L 626.399184 188.452067 
L 627.217663 189.242591 
L 627.626902 189.134317 
L 628.240761 188.415867 
L 628.650001 187.867848 
L 628.85462 187.763094 
L 630.286959 188.114314 
L 631.310057 187.445496 
L 631.719297 187.718771 
L 632.128536 188.312797 
L 632.742395 189.384482 
L 633.560874 189.936104 
L 634.379353 191.855197 
L 634.583973 191.797068 
L 634.993212 190.865911 
L 635.607071 189.227519 
L 635.811691 189.121262 
L 636.016311 189.465611 
L 636.63017 191.368307 
L 636.83479 191.556108 
L 637.03941 191.37884 
L 637.857888 189.517262 
L 638.062508 189.466419 
L 638.471748 189.866254 
L 639.290227 191.532952 
L 639.494846 191.504725 
L 639.904086 190.720677 
L 640.313325 189.834046 
L 640.722565 189.492463 
L 641.131804 189.154154 
L 641.541044 188.742724 
L 641.745663 188.723306 
L 641.950283 188.965547 
L 642.973382 191.513258 
L 643.382621 191.5723 
L 644.40572 191.051317 
L 645.019579 191.238795 
L 645.633438 191.193398 
L 646.247297 191.321352 
L 646.451917 191.211379 
L 647.884255 189.289849 
L 648.702734 187.473916 
L 648.907354 187.484965 
L 649.521213 188.091296 
L 651.158171 190.094483 
L 651.56741 189.894602 
L 653.408988 188.022937 
L 653.818227 187.34208 
L 654.227467 187.125331 
L 655.455185 187.163137 
L 656.069044 187.115972 
L 656.887523 186.990105 
L 657.296762 187.80576 
L 657.910622 189.259009 
L 658.115241 189.431389 
L 658.319861 189.390118 
L 659.13834 188.645636 
L 659.34296 188.854459 
L 660.366058 190.565339 
L 661.184537 191.339945 
L 661.389157 191.303251 
L 661.798396 190.711407 
L 662.616875 189.331656 
L 663.026115 189.029779 
L 663.435354 189.282428 
L 664.049213 189.79273 
L 664.663073 190.17289 
L 665.072312 189.954081 
L 665.481552 189.695289 
L 665.890791 189.698596 
L 666.095411 189.865412 
L 666.50465 190.768621 
L 666.91389 191.594416 
L 667.118509 191.572489 
L 667.936988 190.402927 
L 669.573946 189.933021 
L 670.392425 189.099109 
L 670.597045 189.223427 
L 671.006284 190.273542 
L 671.620143 191.94361 
L 672.234003 192.601418 
L 672.643242 192.850451 
L 672.847862 192.803885 
L 674.07558 191.553284 
L 675.712538 189.527818 
L 676.531017 188.147015 
L 676.940256 187.784007 
L 677.349496 187.651496 
L 677.758735 187.623197 
L 678.167975 187.327242 
L 678.577214 187.03275 
L 678.781834 187.1264 
L 679.395693 188.015032 
L 680.214172 189.44831 
L 681.032651 190.270503 
L 681.44189 191.0354 
L 681.64651 191.148254 
L 681.85113 190.966641 
L 682.464989 189.582074 
L 683.283468 187.935432 
L 683.692707 187.476879 
L 684.101947 187.372237 
L 684.511186 187.49234 
L 684.920426 187.890306 
L 685.534285 188.957487 
L 686.352764 190.578251 
L 686.966623 191.03917 
L 687.375862 191.05363 
L 687.785102 190.849224 
L 689.21744 189.152159 
L 689.42206 189.10619 
L 689.831299 189.525486 
L 690.240538 190.008925 
L 690.445158 190.033598 
L 690.854398 189.757676 
L 691.877496 188.820022 
L 692.695975 188.369022 
L 693.105215 188.766382 
L 693.514454 189.192735 
L 693.923694 189.307902 
L 694.128313 189.496612 
L 694.537553 190.450099 
L 695.151412 192.449516 
L 695.356032 192.66459 
L 695.560651 192.557307 
L 696.174511 191.624285 
L 696.78837 191.245583 
L 697.811468 189.980976 
L 698.220708 190.017522 
L 698.629947 189.707763 
L 699.039187 189.381205 
L 699.243806 189.52253 
L 699.653046 190.48082 
L 700.062285 191.450305 
L 700.266905 191.716953 
L 700.471525 191.778415 
L 700.676145 191.558587 
L 701.085384 190.3291 
L 701.903863 187.512168 
L 702.108483 187.243294 
L 702.313102 187.26704 
L 702.722342 187.745111 
L 703.131581 188.530528 
L 703.540821 189.435557 
L 703.74544 189.688591 
L 703.95006 189.737399 
L 704.3593 189.422752 
L 704.973159 188.482764 
L 705.382398 187.869678 
L 705.587018 187.846843 
L 705.791638 188.095376 
L 706.405497 189.278494 
L 706.814736 189.646592 
L 707.019356 189.698115 
L 707.223976 189.606371 
L 707.837835 189.035372 
L 708.042455 189.196753 
L 708.451694 190.020819 
L 709.065553 191.507761 
L 709.474793 191.893362 
L 710.293272 192.364408 
L 710.702511 192.256432 
L 711.111751 192.532486 
L 711.31637 192.643168 
L 711.52099 192.544369 
L 712.339469 191.471682 
L 713.771807 191.079027 
L 714.385666 191.404639 
L 714.999525 191.303583 
L 715.613385 191.967617 
L 716.227244 192.655634 
L 716.431864 192.656264 
L 716.636483 192.374626 
L 717.454962 190.718217 
L 717.659582 190.613609 
L 717.864202 190.635571 
L 718.273441 191.09517 
L 718.8873 192.083034 
L 719.09192 192.174275 
L 719.29654 191.999688 
L 720.115019 190.235758 
L 720.319638 190.278677 
L 720.933498 191.00015 
L 721.342737 191.036848 
L 721.751976 190.914823 
L 722.979695 189.59369 
L 723.798174 188.749758 
L 724.002793 188.763207 
L 724.821272 189.547004 
L 725.230512 189.289882 
L 726.25361 189.430744 
L 726.66285 189.128485 
L 727.276709 188.534341 
L 727.685948 188.518821 
L 728.095188 188.870897 
L 729.527526 190.986808 
L 729.732146 191.044105 
L 730.141385 190.837222 
L 730.550625 190.702118 
L 730.755244 190.876077 
L 731.164484 191.811314 
L 731.573723 192.924058 
L 731.982963 193.393905 
L 732.187582 193.358999 
L 732.392202 193.11453 
L 732.801442 191.859661 
L 734.02916 186.962608 
L 734.23378 186.598324 
L 734.438399 186.461179 
L 734.847639 186.596766 
L 735.256878 187.026967 
L 735.666118 187.535568 
L 736.075357 187.594 
L 736.484597 187.545907 
L 737.098456 187.763422 
L 737.712315 188.410274 
L 738.121555 189.157084 
L 738.530794 189.9628 
L 738.735414 190.112199 
L 738.940033 190.05013 
L 739.349273 189.449089 
L 739.758512 188.74747 
L 740.167752 188.503688 
L 740.576991 188.19014 
L 741.19085 187.32252 
L 741.39547 187.23924 
L 741.60009 187.382867 
L 742.623189 188.867126 
L 742.827808 188.742078 
L 743.441667 187.770697 
L 743.646287 187.715225 
L 744.260146 188.048265 
L 744.464766 187.945398 
L 744.874006 187.322515 
L 745.283245 186.709263 
L 745.692484 186.556283 
L 746.306344 186.393542 
L 747.124823 185.849555 
L 747.534062 185.635555 
L 747.943301 185.288307 
L 748.147921 185.288073 
L 748.352541 185.48965 
L 749.17102 186.980373 
L 749.784879 187.361157 
L 750.398738 187.673307 
L 751.421837 189.175944 
L 751.831076 189.333335 
L 752.035696 189.325017 
L 752.240316 189.167315 
L 753.263414 187.553515 
L 753.468034 187.645139 
L 754.286513 189.13571 
L 754.491133 189.070314 
L 755.514231 187.852043 
L 755.718851 187.872103 
L 756.128091 188.258652 
L 756.946569 189.679798 
L 757.969668 191.316996 
L 758.378908 191.741513 
L 758.788147 191.721671 
L 759.402006 191.361684 
L 760.629725 190.650541 
L 761.038964 190.53162 
L 761.448203 190.176061 
L 761.857443 189.348679 
L 762.471302 187.516686 
L 762.675922 187.331065 
L 762.880542 187.413903 
L 763.289781 188.045788 
L 763.90364 189.067057 
L 764.31288 189.220014 
L 764.722119 189.062213 
L 765.540598 188.225046 
L 766.154457 187.370538 
L 766.768316 186.249701 
L 766.972936 186.278709 
L 767.177556 186.609926 
L 768.200654 189.375916 
L 768.609894 189.349956 
L 768.814514 189.164128 
L 769.223753 188.151436 
L 769.632992 186.729921 
L 769.837612 186.338184 
L 770.042232 186.302201 
L 770.451471 186.899985 
L 770.860711 187.370117 
L 771.065331 187.35931 
L 772.088429 186.819136 
L 772.497669 187.784755 
L 773.111528 189.411808 
L 773.930007 191.034478 
L 774.339246 191.22271 
L 774.953105 191.13425 
L 775.157725 191.001357 
L 775.976204 189.861475 
L 777.817782 190.325387 
L 778.63626 191.004698 
L 778.84088 190.995949 
L 779.0455 191.132499 
L 779.659359 192.191341 
L 779.863979 192.176595 
L 780.273218 191.559676 
L 780.887077 190.602104 
L 781.296317 190.060715 
L 781.705556 189.23575 
L 781.910176 189.068484 
L 782.114796 189.199171 
L 782.524035 189.637295 
L 782.933275 189.61364 
L 783.342514 189.38602 
L 783.751754 189.048723 
L 783.956373 189.098512 
L 784.160993 189.466423 
L 784.979472 191.739262 
L 785.184092 191.808873 
L 785.797951 191.60987 
L 786.20719 191.642396 
L 786.41181 191.423287 
L 786.82105 190.374966 
L 787.434909 188.719756 
L 788.048768 188.026442 
L 788.662627 187.528403 
L 789.071867 187.577233 
L 789.890345 187.969777 
L 790.299585 187.88303 
L 790.504205 187.992008 
L 791.731923 189.400275 
L 792.755022 189.373931 
L 793.164261 189.633161 
L 793.368881 189.578488 
L 794.18736 188.966627 
L 794.391979 189.150399 
L 795.210458 190.764989 
L 795.619698 191.554173 
L 795.824318 191.632582 
L 796.028937 191.377847 
L 796.438177 190.170158 
L 796.847416 188.850066 
L 797.052036 188.524615 
L 797.256656 188.575037 
L 797.665895 189.639627 
L 798.279754 191.706775 
L 798.484374 192.09506 
L 798.688994 192.241069 
L 799.098233 192.17387 
L 799.916712 191.709323 
L 800.325952 191.426947 
L 800.939811 190.492539 
L 801.75829 189.211127 
L 801.962909 189.12107 
L 802.167529 189.213002 
L 802.986008 189.97525 
L 803.395247 190.170636 
L 803.804487 190.058723 
L 804.622966 189.316598 
L 805.032205 189.705929 
L 805.646064 190.319196 
L 805.850684 190.312612 
L 806.259924 189.833156 
L 806.873783 188.74772 
L 807.078402 188.627349 
L 807.283022 188.696633 
L 808.101501 189.606348 
L 808.306121 189.476286 
L 809.738459 187.656101 
L 810.147698 187.622075 
L 811.580036 188.010538 
L 811.989276 188.756987 
L 812.807755 191.109753 
L 813.012375 191.250336 
L 813.421614 191.107528 
L 813.626234 191.179007 
L 814.035473 191.76852 
L 814.444713 192.445724 
L 814.649332 192.509426 
L 814.853952 192.197771 
L 815.467811 190.494668 
L 815.672431 190.419969 
L 816.08167 190.811573 
L 816.49091 191.167142 
L 816.69553 191.113478 
L 817.309389 190.093385 
L 817.514009 190.122829 
L 817.923248 190.777918 
L 818.946347 192.479279 
L 819.969445 192.569999 
L 820.174065 192.50228 
L 820.583304 191.919251 
L 821.401783 190.507672 
L 821.811023 190.462392 
L 822.220262 190.371027 
L 822.834121 189.67302 
L 823.243361 189.246452 
L 824.06184 189.087752 
L 824.675699 188.579092 
L 825.289558 187.631203 
L 825.494178 187.53835 
L 825.903417 187.735056 
L 826.721896 188.23772 
L 828.154234 188.073704 
L 828.358854 188.262731 
L 829.586572 190.452354 
L 829.791192 190.522176 
L 830.200432 190.308627 
L 831.22353 189.335541 
L 832.042009 190.092174 
L 832.246629 190.131425 
L 832.655868 189.784081 
L 833.065108 189.483513 
L 833.269728 189.536697 
L 833.678967 189.955419 
L 834.292826 190.640171 
L 834.497446 190.632638 
L 836.134404 189.643528 
L 836.952883 188.679094 
L 837.157502 188.5968 
L 837.362122 188.666346 
L 838.180601 189.415434 
L 838.79446 188.962393 
L 839.408319 188.524458 
L 840.022179 188.335211 
L 840.840657 188.189653 
L 841.249897 188.061343 
L 841.863756 187.956975 
L 842.272995 187.762059 
L 842.477615 187.757443 
L 842.886855 188.095132 
L 843.705334 189.139834 
L 844.114573 189.410486 
L 844.523812 189.373584 
L 844.933052 188.92621 
L 845.546911 188.141889 
L 845.751531 188.063781 
L 845.956151 188.141571 
L 846.774629 189.070351 
L 847.388489 190.015053 
L 847.593108 190.072518 
L 848.206968 189.786017 
L 848.616207 189.146429 
L 849.434686 187.658949 
L 850.048545 186.814763 
L 850.253165 186.688354 
L 850.457785 186.693113 
L 850.662404 186.891255 
L 851.071644 187.912464 
L 851.890123 190.501856 
L 852.299362 191.167056 
L 852.708602 191.248947 
L 853.52708 190.900255 
L 854.14094 191.036414 
L 854.550179 190.724525 
L 855.164038 190.167589 
L 855.982517 190.246644 
L 856.596376 189.914081 
L 857.005616 189.075176 
L 857.619475 187.664504 
L 857.824095 187.525617 
L 858.233334 187.64693 
L 859.461053 188.527737 
L 859.870292 188.396494 
L 860.074912 188.44738 
L 860.484151 188.925358 
L 860.893391 189.324205 
L 861.30263 189.123243 
L 861.71187 188.625385 
L 862.325729 187.58236 
L 862.530348 187.488286 
L 862.939588 187.760644 
L 863.758067 188.547651 
L 864.371926 188.897712 
L 864.985785 189.416006 
L 865.395025 189.304506 
L 865.599644 189.232729 
L 865.804264 189.327992 
L 866.418123 190.105512 
L 866.622743 190.158826 
L 867.031982 189.882383 
L 867.850461 189.025834 
L 868.464321 188.397195 
L 869.692039 186.742232 
L 869.896659 186.751418 
L 870.101278 186.969767 
L 870.715138 188.283724 
L 871.328997 189.492402 
L 871.533616 189.45993 
L 872.352095 188.53072 
L 873.170574 188.347596 
L 873.989053 188.40141 
L 874.398293 188.352373 
L 874.807532 188.746347 
L 875.216772 189.270987 
L 876.64911 190.038942 
L 876.853729 189.830186 
L 877.672208 188.491588 
L 878.081448 188.495854 
L 878.490687 188.44314 
L 879.104546 188.394017 
L 879.513786 188.492411 
L 879.718405 188.415087 
L 880.127645 187.846341 
L 881.150744 185.684169 
L 881.969222 184.653205 
L 882.173842 184.730824 
L 882.583082 185.148806 
L 882.787701 185.159802 
L 882.992321 184.896194 
L 883.401561 183.697239 
L 883.8108 182.340002 
L 884.220039 181.796447 
L 885.038518 181.543667 
L 885.447758 180.822725 
L 886.061617 179.384627 
L 886.470856 178.946814 
L 886.880096 178.865408 
L 887.493955 179.017608 
L 888.926293 178.336118 
L 889.949392 177.731422 
L 890.358631 177.79377 
L 891.58635 178.685387 
L 891.790969 178.605818 
L 892.200209 177.881942 
L 893.223307 175.44621 
L 894.041786 174.28713 
L 894.655646 172.333484 
L 895.064885 171.260552 
L 896.701843 169.050358 
L 896.906463 168.852056 
L 897.315702 167.928828 
L 898.338801 164.631234 
L 898.54342 164.694395 
L 898.95266 165.060893 
L 899.15728 164.998219 
L 899.566519 164.196618 
L 900.384998 162.217733 
L 900.794237 160.015806 
L 901.203477 156.737802 
L 902.226575 147.286219 
L 902.431195 147.201112 
L 902.840435 148.568297 
L 903.249674 150.066545 
L 903.454294 150.483885 
L 903.658914 150.647516 
L 903.863533 150.552005 
L 904.068153 150.181655 
L 905.295871 146.886586 
L 906.31897 144.566972 
L 906.728209 144.280209 
L 907.137449 144.105253 
L 907.546688 143.647876 
L 908.365167 142.489358 
L 908.774407 142.635277 
L 909.183646 142.807299 
L 909.592886 142.766136 
L 910.206745 142.255694 
L 910.411365 142.339539 
L 910.820604 143.023455 
L 911.639083 144.340689 
L 912.662182 145.675571 
L 912.866801 145.453378 
L 913.276041 144.292676 
L 913.68528 143.208018 
L 913.8899 143.040432 
L 914.09452 143.102801 
L 914.912999 143.76838 
L 915.322238 143.920019 
L 915.731477 144.397601 
L 915.936097 144.353921 
L 916.140717 143.874261 
L 917.163816 139.485965 
L 917.368435 139.781748 
L 917.982294 141.544002 
L 918.186914 141.68422 
L 918.391534 141.432628 
L 918.596154 140.693231 
L 919.005393 137.472012 
L 919.414632 131.543855 
L 919.823872 121.996065 
L 920.642351 99.505004 
L 920.846971 100.049075 
L 921.25621 110.73253 
L 921.870069 127.982575 
L 922.483928 137.166079 
L 922.893168 140.974052 
L 923.302407 143.281714 
L 923.711647 144.472376 
L 923.916266 144.696164 
L 924.120886 144.67198 
L 924.530126 144.41397 
L 924.734745 144.397035 
L 924.939365 144.497205 
L 925.143985 144.799427 
L 925.962464 146.857815 
L 926.167083 146.910381 
L 927.394802 145.977849 
L 927.804041 145.570802 
L 928.213281 145.549802 
L 929.236379 145.871683 
L 929.850239 145.96784 
L 930.259478 146.232488 
L 930.668717 146.878966 
L 931.487196 148.712974 
L 931.691816 148.773522 
L 931.896436 148.476856 
L 932.510295 146.985276 
L 932.919534 146.250122 
L 933.533394 144.064187 
L 934.761112 139.851565 
L 934.965732 139.897366 
L 935.170351 140.273233 
L 935.579591 141.844966 
L 937.421168 151.024858 
L 937.830408 151.812432 
L 938.035028 151.938703 
L 938.239647 151.880389 
L 938.648887 151.301579 
L 939.058126 150.686347 
L 939.467366 150.491617 
L 939.876605 150.486735 
L 940.081225 150.278529 
L 940.899704 148.805135 
L 941.104324 148.845542 
L 941.308943 149.091089 
L 941.718183 150.162973 
L 942.332042 152.147567 
L 942.945901 153.304774 
L 943.55976 155.188661 
L 943.969 155.704268 
L 944.378239 156.309244 
L 946.629056 162.119068 
L 947.856775 163.525772 
L 948.061394 163.510132 
L 948.266014 163.298986 
L 948.675253 162.213897 
L 949.084493 161.024868 
L 949.289113 160.752123 
L 949.493732 160.780537 
L 949.698352 161.100702 
L 950.721451 163.472928 
L 951.53993 164.438791 
L 951.949169 165.325947 
L 952.767648 167.689979 
L 954.404606 173.190871 
L 955.018465 174.388252 
L 955.427704 174.688322 
L 955.836944 174.949766 
L 957.678521 176.65143 
L 958.70162 178.078485 
L 959.110859 177.880062 
L 959.520099 177.749977 
L 959.929338 177.78079 
L 960.133958 177.634782 
L 960.747817 176.638368 
L 961.566296 175.212994 
L 962.384775 174.688204 
L 963.203254 174.088303 
L 963.612493 173.94339 
L 963.817113 174.139736 
L 964.226353 175.253634 
L 965.249451 179.693992 
L 965.86331 181.946517 
L 966.06793 182.231191 
L 966.27255 182.210105 
L 967.091029 181.205327 
L 967.295649 181.257617 
L 967.500268 181.522327 
L 968.523367 183.516109 
L 968.932606 183.544563 
L 969.341846 183.636532 
L 970.160325 184.599963 
L 970.569564 184.339261 
L 970.978804 184.194189 
L 971.797283 184.165784 
L 972.615761 183.798394 
L 973.025001 184.04011 
L 973.63886 184.587697 
L 974.0481 184.499213 
L 974.866578 183.752173 
L 975.071198 183.762879 
L 975.275818 183.887865 
L 975.480438 184.175926 
L 976.298917 186.104078 
L 976.503536 185.917691 
L 977.526635 184.005431 
L 977.731255 183.848506 
L 977.935874 183.848826 
L 978.345114 184.148175 
L 979.368212 185.293605 
L 980.391311 187.04745 
L 980.595931 187.107988 
L 981.00517 186.807563 
L 981.41441 186.172165 
L 981.823649 185.021638 
L 982.232889 183.838166 
L 982.437508 183.626816 
L 982.642128 183.679092 
L 983.051368 184.17918 
L 983.460607 185.233563 
L 984.074466 187.039593 
L 984.483706 187.474967 
L 984.892945 187.404102 
L 985.506804 187.028515 
L 985.916044 186.386782 
L 986.325283 185.710591 
L 986.529903 185.58944 
L 986.939142 185.768212 
L 987.348382 185.85677 
L 988.98534 184.978099 
L 990.008438 185.243554 
L 990.213058 185.340027 
L 991.236157 186.593591 
L 992.259255 188.057521 
L 992.668495 187.870377 
L 993.691593 187.013805 
L 994.510072 187.649867 
L 995.123931 186.891023 
L 995.328551 186.965499 
L 995.737791 187.671902 
L 996.14703 188.513844 
L 996.35165 188.709601 
L 996.556269 188.612091 
L 997.579368 186.801893 
L 997.988608 187.020868 
L 998.807086 187.660228 
L 999.216326 187.351489 
L 999.625565 187.018923 
L 999.830185 187.080239 
L 1000.444044 187.525215 
L 1000.853284 187.383997 
L 1001.467143 186.634786 
L 1002.285622 185.783418 
L 1002.490242 185.753977 
L 1002.899481 186.021469 
L 1003.71796 187.091444 
L 1004.127199 187.792739 
L 1005.354918 190.69234 
L 1005.764157 191.035574 
L 1006.173397 191.050858 
L 1006.378016 190.857287 
L 1006.787256 190.049548 
L 1007.810354 187.519095 
L 1008.014974 187.455794 
L 1008.424214 187.690618 
L 1009.242693 188.409743 
L 1009.447312 188.180398 
L 1010.265791 186.445752 
L 1010.87965 185.910831 
L 1011.08427 185.818068 
L 1011.28889 185.847487 
L 1011.698129 186.233343 
L 1013.130467 188.147353 
L 1014.358186 190.982218 
L 1014.562805 190.991747 
L 1014.972045 190.638721 
L 1015.585904 189.825836 
L 1015.790524 189.886822 
L 1016.199763 190.565936 
L 1016.813622 191.821654 
L 1017.018242 192.044655 
L 1017.222862 192.069892 
L 1017.427482 191.879296 
L 1017.836721 191.068922 
L 1018.6552 188.953823 
L 1018.85982 188.82209 
L 1019.064439 189.030204 
L 1019.882918 191.185672 
L 1020.087538 191.243292 
L 1020.496778 190.842938 
L 1021.315256 189.675227 
L 1021.519876 189.567662 
L 1022.338355 189.628278 
L 1022.747595 189.193177 
L 1023.156834 188.663383 
L 1023.361454 188.658223 
L 1023.566073 188.950216 
L 1024.384552 190.967701 
L 1024.589172 191.078168 
L 1024.793792 190.985801 
L 1025.612271 190.203103 
L 1026.22613 190.186191 
L 1026.635369 189.597732 
L 1027.044609 189.044607 
L 1027.249229 189.071576 
L 1027.863088 189.46299 
L 1028.272327 189.685525 
L 1028.886186 190.257998 
L 1029.295426 190.286659 
L 1029.704665 190.212442 
L 1030.113905 189.832451 
L 1030.932384 188.491678 
L 1031.137003 188.510087 
L 1031.546243 189.018094 
L 1031.955482 190.101915 
L 1032.569341 191.882072 
L 1032.978581 192.50491 
L 1033.183201 192.617688 
L 1033.38782 192.546576 
L 1033.79706 191.891678 
L 1035.229398 188.537787 
L 1036.457116 187.21799 
L 1036.661736 187.435668 
L 1037.070975 188.566797 
L 1037.480215 189.686866 
L 1037.684835 189.922876 
L 1038.094074 189.967939 
L 1038.707933 189.704331 
L 1039.526412 189.010394 
L 1039.731032 189.04287 
L 1040.140271 189.552657 
L 1040.95875 190.661398 
L 1041.36799 191.017782 
L 1041.777229 191.093147 
L 1041.981849 190.955526 
L 1042.186469 190.612098 
L 1042.595708 189.26923 
L 1043.004947 187.726686 
L 1043.209567 187.267759 
L 1043.414187 187.150945 
L 1044.028046 187.620098 
L 1044.846525 187.502261 
L 1045.051145 187.702499 
L 1045.460384 188.710368 
L 1045.869624 189.682128 
L 1046.074243 189.87492 
L 1046.278863 189.880638 
L 1046.688103 189.546378 
L 1047.506581 188.625606 
L 1048.120441 188.471769 
L 1048.52968 188.452428 
L 1048.93892 188.69038 
L 1049.348159 189.467169 
L 1049.962018 190.62595 
L 1050.371258 190.861139 
L 1050.780497 190.626985 
L 1051.394356 190.009389 
L 1051.803596 189.074711 
L 1052.417455 187.566422 
L 1052.826694 187.063858 
L 1053.235934 187.083668 
L 1054.259032 187.466657 
L 1055.077511 188.719823 
L 1055.486751 188.845155 
L 1056.10061 188.685939 
L 1056.509849 189.151385 
L 1057.737568 191.572664 
L 1057.942188 191.561272 
L 1058.146807 191.318167 
L 1058.965286 189.54716 
L 1059.169906 189.433746 
L 1059.374526 189.518646 
L 1059.988385 190.116046 
L 1060.193005 190.11435 
L 1060.806864 189.709897 
L 1061.420723 189.805094 
L 1061.829962 189.375143 
L 1062.239202 188.942438 
L 1062.648441 188.975963 
L 1063.2623 189.136882 
L 1063.67154 188.828384 
L 1064.080779 188.464581 
L 1064.285399 188.418617 
L 1064.490019 188.523127 
L 1064.899258 189.14804 
L 1065.308498 189.760442 
L 1065.513117 189.832136 
L 1065.717737 189.703568 
L 1066.740836 188.376799 
L 1067.559315 188.836666 
L 1068.377794 190.562882 
L 1068.582413 190.624079 
L 1068.991653 190.26427 
L 1069.810132 189.125237 
L 1070.423991 188.866371 
L 1071.03785 188.826706 
L 1071.44709 189.135733 
L 1072.060949 189.707027 
L 1072.879428 190.102239 
L 1074.107146 192.025756 
L 1074.925625 192.157759 
L 1075.539484 192.654715 
L 1075.744104 192.540552 
L 1076.357963 191.64746 
L 1076.562583 191.746825 
L 1077.381062 192.924603 
L 1077.585681 192.790724 
L 1077.994921 191.835915 
L 1078.60878 189.956303 
L 1079.018019 189.502017 
L 1079.631879 189.448296 
L 1080.245738 189.659649 
L 1080.450357 189.359582 
L 1081.473456 186.711239 
L 1081.678076 186.76212 
L 1082.087315 187.481948 
L 1082.496555 188.24484 
L 1082.701174 188.450619 
L 1082.905794 188.494213 
L 1083.315034 188.200081 
L 1083.724273 187.776527 
L 1084.338132 186.784357 
L 1084.951991 186.11972 
L 1085.361231 185.597944 
L 1085.77047 185.459777 
L 1086.17971 185.470597 
L 1086.793569 185.357843 
L 1086.998189 185.48264 
L 1087.202808 185.765927 
L 1088.225907 188.163014 
L 1088.635147 188.558302 
L 1089.044386 189.553619 
L 1089.658245 191.233536 
L 1089.862865 191.439946 
L 1090.067485 191.410814 
L 1090.272104 191.137741 
L 1091.090583 189.203157 
L 1091.295203 189.202299 
L 1092.318302 190.069465 
L 1093.136781 190.138114 
L 1094.159879 191.058188 
L 1094.364499 190.914347 
L 1095.182978 189.634732 
L 1095.592217 189.284663 
L 1096.206076 188.412578 
L 1096.615316 188.341754 
L 1097.024555 188.364306 
L 1097.433795 188.644217 
L 1097.843034 189.324873 
L 1098.456893 190.629425 
L 1098.866133 191.023176 
L 1099.070753 191.038682 
L 1099.275372 190.849588 
L 1100.093851 189.195607 
L 1100.298471 189.179867 
L 1100.70771 189.580185 
L 1101.526189 190.768761 
L 1101.730809 190.759308 
L 1102.140049 190.168282 
L 1102.549288 189.43555 
L 1102.753908 189.358841 
L 1102.958527 189.547756 
L 1103.777006 190.788912 
L 1104.186246 191.088114 
L 1104.595485 190.968996 
L 1105.004725 190.922261 
L 1105.618584 191.484112 
L 1105.823204 191.368956 
L 1106.641683 190.015475 
L 1107.050922 189.871859 
L 1107.255542 189.973881 
L 1108.074021 191.03533 
L 1108.48326 190.886321 
L 1108.68788 191.003677 
L 1109.097119 191.827246 
L 1109.506359 192.78517 
L 1109.710978 193.033414 
L 1109.915598 193.078555 
L 1110.938697 192.636059 
L 1111.552556 192.74593 
L 1111.961795 193.291953 
L 1112.575655 194.478929 
L 1112.780274 194.52305 
L 1112.984894 194.256481 
L 1114.621852 190.49515 
L 1115.235711 189.972533 
L 1116.05419 189.522569 
L 1116.463429 189.651392 
L 1116.872669 190.191799 
L 1117.281908 190.800094 
L 1117.486528 190.885538 
L 1117.691148 190.75966 
L 1118.305007 190.001446 
L 1118.714246 189.914822 
L 1119.123486 189.879522 
L 1119.532725 189.456843 
L 1120.146584 188.793488 
L 1120.555824 188.482552 
L 1120.760444 188.437019 
L 1120.965063 188.526682 
L 1121.783542 189.438758 
L 1122.806641 189.041763 
L 1123.21588 189.402062 
L 1124.238979 190.798634 
L 1124.648218 190.975086 
L 1125.057458 190.706373 
L 1125.671317 190.092551 
L 1126.080557 190.020792 
L 1128.126754 190.536213 
L 1128.535993 190.436907 
L 1129.354472 189.792674 
L 1129.968331 189.328811 
L 1130.377571 189.597547 
L 1130.78681 189.779073 
L 1131.809909 189.586393 
L 1132.219148 188.683602 
L 1132.628388 187.812089 
L 1132.833008 187.664687 
L 1133.037627 187.714315 
L 1133.446867 188.172473 
L 1133.856106 188.658978 
L 1134.060726 188.73303 
L 1134.674585 188.507754 
L 1135.083825 188.549233 
L 1135.493064 187.939064 
L 1135.902303 187.299887 
L 1136.925402 186.366931 
L 1137.334642 186.540411 
L 1138.56236 187.663319 
L 1138.971599 187.787588 
L 1139.176219 188.091248 
L 1139.994698 190.160244 
L 1140.199318 190.283561 
L 1141.017797 190.131936 
L 1141.631656 190.503197 
L 1141.836276 190.428114 
L 1142.245515 189.754024 
L 1142.859374 188.521311 
L 1143.063994 188.511841 
L 1143.677853 189.31695 
L 1143.882473 189.310288 
L 1145.110191 188.528413 
L 1145.519431 188.550853 
L 1146.13329 189.139414 
L 1146.747149 189.263971 
L 1147.156388 189.70645 
L 1147.770248 190.726987 
L 1147.974867 190.808929 
L 1148.179487 190.575148 
L 1148.997966 188.660934 
L 1149.202586 188.687931 
L 1150.021065 189.838297 
L 1150.430304 190.498985 
L 1151.044163 191.99958 
L 1151.862642 194.112486 
L 1152.271882 194.647629 
L 1152.476501 194.58057 
L 1152.681121 194.232734 
L 1154.113459 190.56377 
L 1154.318079 190.450937 
L 1154.727318 190.659577 
L 1154.931938 190.788331 
L 1155.136558 190.768303 
L 1155.545797 190.286564 
L 1155.955037 189.864624 
L 1156.978135 189.818449 
L 1157.796614 188.985545 
L 1159.228952 187.125319 
L 1159.433572 187.067112 
L 1159.638192 187.176607 
L 1160.047431 187.769437 
L 1161.07053 190.21645 
L 1161.479769 190.422913 
L 1162.093628 190.312222 
L 1162.502868 189.993485 
L 1162.912107 189.562424 
L 1163.116727 189.525128 
L 1163.321347 189.686503 
L 1163.935206 190.560697 
L 1164.344445 190.6294 
L 1164.753685 190.794927 
L 1165.367544 191.240702 
L 1166.390643 191.591781 
L 1166.799882 191.51773 
L 1167.004502 191.621166 
L 1167.413741 192.114106 
L 1167.618361 192.196893 
L 1168.027601 191.922827 
L 1168.43684 191.624978 
L 1168.64146 191.328934 
L 1169.050699 189.905422 
L 1169.664558 187.033036 
L 1170.073798 186.091996 
L 1170.483037 185.940333 
L 1171.096896 186.078398 
L 1171.506136 186.739834 
L 1172.324615 188.748131 
L 1172.733854 189.075992 
L 1173.143094 189.094054 
L 1173.347713 189.269712 
L 1173.756953 190.323058 
L 1174.166192 191.450938 
L 1174.370812 191.568224 
L 1174.575432 191.262505 
L 1176.00777 187.044529 
L 1176.621629 186.307536 
L 1177.030869 185.749857 
L 1177.235488 185.771061 
L 1177.440108 186.066356 
L 1177.849347 187.246439 
L 1178.667826 190.037312 
L 1178.872446 190.283507 
L 1179.281686 190.321764 
L 1179.895545 189.906923 
L 1180.304784 189.477165 
L 1180.714024 188.553148 
L 1181.123263 187.682455 
L 1181.327883 187.653991 
L 1181.532503 187.942324 
L 1182.350981 189.633643 
L 1182.760221 189.766011 
L 1184.192559 189.882677 
L 1184.601798 189.300706 
L 1184.806418 188.909558 
L 1184.806418 188.909558 
" clip-path="url(#p57c60f4a1d)" style="fill: none; stroke: #000000; stroke-width: 2; stroke-linecap: square"/>
   </g>
   <g id="patch_3">
    <path d="M 3.00024 198.907885 
L 1184.99976 198.907885 
" style="fill: none; stroke: #000000; stroke-width: 2; stroke-linejoin: miter; stroke-linecap: square"/>
   </g>
  </g>
 </g>
 <defs>
  <clipPath id="p57c60f4a1d">
   <rect x="3.00024" y="3.00024" width="1181.99952" height="195.907645"/>
  </clipPath>
 </defs>
</svg>
