<?xml version="1.0" encoding="utf-8" standalone="no"?>
<!DOCTYPE svg PUBLIC "-//W3C//DTD SVG 1.1//EN"
  "http://www.w3.org/Graphics/SVG/1.1/DTD/svg11.dtd">
<svg xmlns:xlink="http://www.w3.org/1999/xlink" width="1188pt" height="252pt" viewBox="0 0 1188 252" xmlns="http://www.w3.org/2000/svg" version="1.1">
 <metadata>
  <rdf:RDF xmlns:dc="http://purl.org/dc/elements/1.1/" xmlns:cc="http://creativecommons.org/ns#" xmlns:rdf="http://www.w3.org/1999/02/22-rdf-syntax-ns#">
   <cc:Work>
    <dc:type rdf:resource="http://purl.org/dc/dcmitype/StillImage"/>
    <dc:date>2024-05-13T16:40:32.979523</dc:date>
    <dc:format>image/svg+xml</dc:format>
    <dc:creator>
     <cc:Agent>
      <dc:title>Matplotlib v3.8.0, https://matplotlib.org/</dc:title>
     </cc:Agent>
    </dc:creator>
   </cc:Work>
  </rdf:RDF>
 </metadata>
 <defs>
  <style type="text/css">*{stroke-linejoin: round; stroke-linecap: butt}</style>
 </defs>
 <g id="figure_1">
  <g id="patch_1">
   <path d="M 0 252 
L 1188 252 
L 1188 0 
L 0 0 
z
" style="fill: #ffffff"/>
  </g>
  <g id="axes_1">
   <g id="patch_2">
    <path d="M 3.00024 198.907885 
L 1184.99976 198.907885 
L 1184.99976 3.00024 
L 3.00024 3.00024 
z
" style="fill: #ffffff"/>
   </g>
   <g id="matplotlib.axis_1">
    <g id="xtick_1">
     <g id="line2d_1">
      <defs>
       <path id="m06d3c72d8a" d="M 0 0 
L 0 8 
" style="stroke: #000000; stroke-width: 2"/>
      </defs>
      <g>
       <use xlink:href="#m06d3c72d8a" x="1131.272509" y="198.907885" style="stroke: #000000; stroke-width: 2"/>
      </g>
     </g>
     <g id="text_1">
      <!-- 0 -->
      <g transform="translate(1126.267665 224.791947) scale(0.18 -0.18)">
       <defs>
        <path id="Arial-BoldMT-30" d="M 1756 4600 
Q 2422 4600 2797 4125 
Q 3244 3563 3244 2259 
Q 3244 959 2794 391 
Q 2422 -78 1756 -78 
Q 1088 -78 678 436 
Q 269 950 269 2269 
Q 269 3563 719 4131 
Q 1091 4600 1756 4600 
z
M 1756 3872 
Q 1597 3872 1472 3770 
Q 1347 3669 1278 3406 
Q 1188 3066 1188 2259 
Q 1188 1453 1269 1151 
Q 1350 850 1473 750 
Q 1597 650 1756 650 
Q 1916 650 2041 751 
Q 2166 853 2234 1116 
Q 2325 1453 2325 2259 
Q 2325 3066 2244 3367 
Q 2163 3669 2039 3770 
Q 1916 3872 1756 3872 
z
" transform="scale(0.015625)"/>
       </defs>
       <use xlink:href="#Arial-BoldMT-30"/>
      </g>
     </g>
    </g>
    <g id="xtick_2">
     <g id="line2d_2">
      <g>
       <use xlink:href="#m06d3c72d8a" x="1023.818007" y="198.907885" style="stroke: #000000; stroke-width: 2"/>
      </g>
     </g>
     <g id="text_2">
      <!-- 1 -->
      <g transform="translate(1018.813164 224.791947) scale(0.18 -0.18)">
       <defs>
        <path id="Arial-BoldMT-31" d="M 2519 0 
L 1641 0 
L 1641 3309 
Q 1159 2859 506 2644 
L 506 3441 
Q 850 3553 1253 3867 
Q 1656 4181 1806 4600 
L 2519 4600 
L 2519 0 
z
" transform="scale(0.015625)"/>
       </defs>
       <use xlink:href="#Arial-BoldMT-31"/>
      </g>
     </g>
    </g>
    <g id="xtick_3">
     <g id="line2d_3">
      <g>
       <use xlink:href="#m06d3c72d8a" x="916.363505" y="198.907885" style="stroke: #000000; stroke-width: 2"/>
      </g>
     </g>
     <g id="text_3">
      <!-- 2 -->
      <g transform="translate(911.358662 224.791947) scale(0.18 -0.18)">
       <defs>
        <path id="Arial-BoldMT-32" d="M 3238 816 
L 3238 0 
L 159 0 
Q 209 463 459 877 
Q 709 1291 1447 1975 
Q 2041 2528 2175 2725 
Q 2356 2997 2356 3263 
Q 2356 3556 2198 3714 
Q 2041 3872 1763 3872 
Q 1488 3872 1325 3706 
Q 1163 3541 1138 3156 
L 263 3244 
Q 341 3969 753 4284 
Q 1166 4600 1784 4600 
Q 2463 4600 2850 4234 
Q 3238 3869 3238 3325 
Q 3238 3016 3127 2736 
Q 3016 2456 2775 2150 
Q 2616 1947 2200 1565 
Q 1784 1184 1673 1059 
Q 1563 934 1494 816 
L 3238 816 
z
" transform="scale(0.015625)"/>
       </defs>
       <use xlink:href="#Arial-BoldMT-32"/>
      </g>
     </g>
    </g>
    <g id="xtick_4">
     <g id="line2d_4">
      <g>
       <use xlink:href="#m06d3c72d8a" x="808.909004" y="198.907885" style="stroke: #000000; stroke-width: 2"/>
      </g>
     </g>
     <g id="text_4">
      <!-- 3 -->
      <g transform="translate(803.90416 224.791947) scale(0.18 -0.18)">
       <defs>
        <path id="Arial-BoldMT-33" d="M 241 1216 
L 1091 1319 
Q 1131 994 1309 822 
Q 1488 650 1741 650 
Q 2013 650 2198 856 
Q 2384 1063 2384 1413 
Q 2384 1744 2206 1937 
Q 2028 2131 1772 2131 
Q 1603 2131 1369 2066 
L 1466 2781 
Q 1822 2772 2009 2936 
Q 2197 3100 2197 3372 
Q 2197 3603 2059 3740 
Q 1922 3878 1694 3878 
Q 1469 3878 1309 3722 
Q 1150 3566 1116 3266 
L 306 3403 
Q 391 3819 561 4067 
Q 731 4316 1036 4458 
Q 1341 4600 1719 4600 
Q 2366 4600 2756 4188 
Q 3078 3850 3078 3425 
Q 3078 2822 2419 2463 
Q 2813 2378 3048 2084 
Q 3284 1791 3284 1375 
Q 3284 772 2843 347 
Q 2403 -78 1747 -78 
Q 1125 -78 715 280 
Q 306 638 241 1216 
z
" transform="scale(0.015625)"/>
       </defs>
       <use xlink:href="#Arial-BoldMT-33"/>
      </g>
     </g>
    </g>
    <g id="xtick_5">
     <g id="line2d_5">
      <g>
       <use xlink:href="#m06d3c72d8a" x="701.454502" y="198.907885" style="stroke: #000000; stroke-width: 2"/>
      </g>
     </g>
     <g id="text_5">
      <!-- 4 -->
      <g transform="translate(696.449658 224.791947) scale(0.18 -0.18)">
       <defs>
        <path id="Arial-BoldMT-34" d="M 1994 0 
L 1994 922 
L 119 922 
L 119 1691 
L 2106 4600 
L 2844 4600 
L 2844 1694 
L 3413 1694 
L 3413 922 
L 2844 922 
L 2844 0 
L 1994 0 
z
M 1994 1694 
L 1994 3259 
L 941 1694 
L 1994 1694 
z
" transform="scale(0.015625)"/>
       </defs>
       <use xlink:href="#Arial-BoldMT-34"/>
      </g>
     </g>
    </g>
    <g id="xtick_6">
     <g id="line2d_6">
      <g>
       <use xlink:href="#m06d3c72d8a" x="594" y="198.907885" style="stroke: #000000; stroke-width: 2"/>
      </g>
     </g>
     <g id="text_6">
      <!-- 5 -->
      <g transform="translate(588.995156 224.791947) scale(0.18 -0.18)">
       <defs>
        <path id="Arial-BoldMT-35" d="M 284 1178 
L 1159 1269 
Q 1197 972 1381 798 
Q 1566 625 1806 625 
Q 2081 625 2272 848 
Q 2463 1072 2463 1522 
Q 2463 1944 2273 2155 
Q 2084 2366 1781 2366 
Q 1403 2366 1103 2031 
L 391 2134 
L 841 4519 
L 3163 4519 
L 3163 3697 
L 1506 3697 
L 1369 2919 
Q 1663 3066 1969 3066 
Q 2553 3066 2959 2641 
Q 3366 2216 3366 1538 
Q 3366 972 3038 528 
Q 2591 -78 1797 -78 
Q 1163 -78 763 262 
Q 363 603 284 1178 
z
" transform="scale(0.015625)"/>
       </defs>
       <use xlink:href="#Arial-BoldMT-35"/>
      </g>
     </g>
    </g>
    <g id="xtick_7">
     <g id="line2d_7">
      <g>
       <use xlink:href="#m06d3c72d8a" x="486.545498" y="198.907885" style="stroke: #000000; stroke-width: 2"/>
      </g>
     </g>
     <g id="text_7">
      <!-- 6 -->
      <g transform="translate(481.540654 224.791947) scale(0.18 -0.18)">
       <defs>
        <path id="Arial-BoldMT-36" d="M 3247 3459 
L 2397 3366 
Q 2366 3628 2234 3753 
Q 2103 3878 1894 3878 
Q 1616 3878 1423 3628 
Q 1231 3378 1181 2588 
Q 1509 2975 1997 2975 
Q 2547 2975 2939 2556 
Q 3331 2138 3331 1475 
Q 3331 772 2918 347 
Q 2506 -78 1859 -78 
Q 1166 -78 719 461 
Q 272 1000 272 2228 
Q 272 3488 737 4044 
Q 1203 4600 1947 4600 
Q 2469 4600 2811 4308 
Q 3153 4016 3247 3459 
z
M 1256 1544 
Q 1256 1116 1453 883 
Q 1650 650 1903 650 
Q 2147 650 2309 840 
Q 2472 1031 2472 1466 
Q 2472 1913 2297 2120 
Q 2122 2328 1859 2328 
Q 1606 2328 1431 2129 
Q 1256 1931 1256 1544 
z
" transform="scale(0.015625)"/>
       </defs>
       <use xlink:href="#Arial-BoldMT-36"/>
      </g>
     </g>
    </g>
    <g id="xtick_8">
     <g id="line2d_8">
      <g>
       <use xlink:href="#m06d3c72d8a" x="379.090996" y="198.907885" style="stroke: #000000; stroke-width: 2"/>
      </g>
     </g>
     <g id="text_8">
      <!-- 7 -->
      <g transform="translate(374.086153 224.791947) scale(0.18 -0.18)">
       <defs>
        <path id="Arial-BoldMT-37" d="M 272 3703 
L 272 4519 
L 3275 4519 
L 3275 3881 
Q 2903 3516 2518 2831 
Q 2134 2147 1932 1376 
Q 1731 606 1734 0 
L 888 0 
Q 909 950 1279 1937 
Q 1650 2925 2269 3703 
L 272 3703 
z
" transform="scale(0.015625)"/>
       </defs>
       <use xlink:href="#Arial-BoldMT-37"/>
      </g>
     </g>
    </g>
    <g id="xtick_9">
     <g id="line2d_9">
      <g>
       <use xlink:href="#m06d3c72d8a" x="271.636495" y="198.907885" style="stroke: #000000; stroke-width: 2"/>
      </g>
     </g>
     <g id="text_9">
      <!-- 8 -->
      <g transform="translate(266.631651 224.791947) scale(0.18 -0.18)">
       <defs>
        <path id="Arial-BoldMT-38" d="M 1025 2472 
Q 684 2616 529 2867 
Q 375 3119 375 3419 
Q 375 3931 733 4265 
Q 1091 4600 1750 4600 
Q 2403 4600 2764 4265 
Q 3125 3931 3125 3419 
Q 3125 3100 2959 2851 
Q 2794 2603 2494 2472 
Q 2875 2319 3073 2025 
Q 3272 1731 3272 1347 
Q 3272 713 2867 316 
Q 2463 -81 1791 -81 
Q 1166 -81 750 247 
Q 259 634 259 1309 
Q 259 1681 443 1992 
Q 628 2303 1025 2472 
z
M 1206 3356 
Q 1206 3094 1354 2947 
Q 1503 2800 1750 2800 
Q 2000 2800 2150 2948 
Q 2300 3097 2300 3359 
Q 2300 3606 2151 3754 
Q 2003 3903 1759 3903 
Q 1506 3903 1356 3753 
Q 1206 3603 1206 3356 
z
M 1125 1394 
Q 1125 1031 1311 828 
Q 1497 625 1775 625 
Q 2047 625 2225 820 
Q 2403 1016 2403 1384 
Q 2403 1706 2222 1901 
Q 2041 2097 1763 2097 
Q 1441 2097 1283 1875 
Q 1125 1653 1125 1394 
z
" transform="scale(0.015625)"/>
       </defs>
       <use xlink:href="#Arial-BoldMT-38"/>
      </g>
     </g>
    </g>
    <g id="xtick_10">
     <g id="line2d_10">
      <g>
       <use xlink:href="#m06d3c72d8a" x="164.181993" y="198.907885" style="stroke: #000000; stroke-width: 2"/>
      </g>
     </g>
     <g id="text_10">
      <!-- 9 -->
      <g transform="translate(159.177149 224.791947) scale(0.18 -0.18)">
       <defs>
        <path id="Arial-BoldMT-39" d="M 291 1059 
L 1141 1153 
Q 1172 894 1303 769 
Q 1434 644 1650 644 
Q 1922 644 2112 894 
Q 2303 1144 2356 1931 
Q 2025 1547 1528 1547 
Q 988 1547 595 1964 
Q 203 2381 203 3050 
Q 203 3747 617 4173 
Q 1031 4600 1672 4600 
Q 2369 4600 2816 4061 
Q 3263 3522 3263 2288 
Q 3263 1031 2797 475 
Q 2331 -81 1584 -81 
Q 1047 -81 715 205 
Q 384 491 291 1059 
z
M 2278 2978 
Q 2278 3403 2083 3637 
Q 1888 3872 1631 3872 
Q 1388 3872 1227 3680 
Q 1066 3488 1066 3050 
Q 1066 2606 1241 2398 
Q 1416 2191 1678 2191 
Q 1931 2191 2104 2391 
Q 2278 2591 2278 2978 
z
" transform="scale(0.015625)"/>
       </defs>
       <use xlink:href="#Arial-BoldMT-39"/>
      </g>
     </g>
    </g>
    <g id="xtick_11">
     <g id="line2d_11">
      <g>
       <use xlink:href="#m06d3c72d8a" x="56.727491" y="198.907885" style="stroke: #000000; stroke-width: 2"/>
      </g>
     </g>
     <g id="text_11">
      <!-- 10 -->
      <g transform="translate(46.717803 224.791947) scale(0.18 -0.18)">
       <use xlink:href="#Arial-BoldMT-31"/>
       <use xlink:href="#Arial-BoldMT-30" x="55.615234"/>
      </g>
     </g>
    </g>
    <g id="text_12">
     <!-- Chemical Shift / ppm -->
     <g transform="translate(504.992813 245.447573) scale(0.18 -0.18)">
      <defs>
       <path id="Arial-BoldMT-43" d="M 3397 1684 
L 4294 1400 
Q 4088 650 3608 286 
Q 3128 -78 2391 -78 
Q 1478 -78 890 545 
Q 303 1169 303 2250 
Q 303 3394 893 4026 
Q 1484 4659 2447 4659 
Q 3288 4659 3813 4163 
Q 4125 3869 4281 3319 
L 3366 3100 
Q 3284 3456 3026 3662 
Q 2769 3869 2400 3869 
Q 1891 3869 1573 3503 
Q 1256 3138 1256 2319 
Q 1256 1450 1568 1081 
Q 1881 713 2381 713 
Q 2750 713 3015 947 
Q 3281 1181 3397 1684 
z
" transform="scale(0.015625)"/>
       <path id="Arial-BoldMT-68" d="M 1334 4581 
L 1334 2897 
Q 1759 3394 2350 3394 
Q 2653 3394 2897 3281 
Q 3141 3169 3264 2994 
Q 3388 2819 3433 2606 
Q 3478 2394 3478 1947 
L 3478 0 
L 2600 0 
L 2600 1753 
Q 2600 2275 2550 2415 
Q 2500 2556 2373 2639 
Q 2247 2722 2056 2722 
Q 1838 2722 1666 2615 
Q 1494 2509 1414 2295 
Q 1334 2081 1334 1663 
L 1334 0 
L 456 0 
L 456 4581 
L 1334 4581 
z
" transform="scale(0.015625)"/>
       <path id="Arial-BoldMT-65" d="M 2381 1056 
L 3256 909 
Q 3088 428 2723 176 
Q 2359 -75 1813 -75 
Q 947 -75 531 491 
Q 203 944 203 1634 
Q 203 2459 634 2926 
Q 1066 3394 1725 3394 
Q 2466 3394 2894 2905 
Q 3322 2416 3303 1406 
L 1103 1406 
Q 1113 1016 1316 798 
Q 1519 581 1822 581 
Q 2028 581 2168 693 
Q 2309 806 2381 1056 
z
M 2431 1944 
Q 2422 2325 2234 2523 
Q 2047 2722 1778 2722 
Q 1491 2722 1303 2513 
Q 1116 2303 1119 1944 
L 2431 1944 
z
" transform="scale(0.015625)"/>
       <path id="Arial-BoldMT-6d" d="M 394 3319 
L 1203 3319 
L 1203 2866 
Q 1638 3394 2238 3394 
Q 2556 3394 2790 3262 
Q 3025 3131 3175 2866 
Q 3394 3131 3647 3262 
Q 3900 3394 4188 3394 
Q 4553 3394 4806 3245 
Q 5059 3097 5184 2809 
Q 5275 2597 5275 2122 
L 5275 0 
L 4397 0 
L 4397 1897 
Q 4397 2391 4306 2534 
Q 4184 2722 3931 2722 
Q 3747 2722 3584 2609 
Q 3422 2497 3350 2280 
Q 3278 2063 3278 1594 
L 3278 0 
L 2400 0 
L 2400 1819 
Q 2400 2303 2353 2443 
Q 2306 2584 2207 2653 
Q 2109 2722 1941 2722 
Q 1738 2722 1575 2612 
Q 1413 2503 1342 2297 
Q 1272 2091 1272 1613 
L 1272 0 
L 394 0 
L 394 3319 
z
" transform="scale(0.015625)"/>
       <path id="Arial-BoldMT-69" d="M 459 3769 
L 459 4581 
L 1338 4581 
L 1338 3769 
L 459 3769 
z
M 459 0 
L 459 3319 
L 1338 3319 
L 1338 0 
L 459 0 
z
" transform="scale(0.015625)"/>
       <path id="Arial-BoldMT-63" d="M 3353 2338 
L 2488 2181 
Q 2444 2441 2289 2572 
Q 2134 2703 1888 2703 
Q 1559 2703 1364 2476 
Q 1169 2250 1169 1719 
Q 1169 1128 1367 884 
Q 1566 641 1900 641 
Q 2150 641 2309 783 
Q 2469 925 2534 1272 
L 3397 1125 
Q 3263 531 2881 228 
Q 2500 -75 1859 -75 
Q 1131 -75 698 384 
Q 266 844 266 1656 
Q 266 2478 700 2936 
Q 1134 3394 1875 3394 
Q 2481 3394 2839 3133 
Q 3197 2872 3353 2338 
z
" transform="scale(0.015625)"/>
       <path id="Arial-BoldMT-61" d="M 1116 2306 
L 319 2450 
Q 453 2931 781 3162 
Q 1109 3394 1756 3394 
Q 2344 3394 2631 3255 
Q 2919 3116 3036 2902 
Q 3153 2688 3153 2116 
L 3144 1091 
Q 3144 653 3186 445 
Q 3228 238 3344 0 
L 2475 0 
Q 2441 88 2391 259 
Q 2369 338 2359 363 
Q 2134 144 1878 34 
Q 1622 -75 1331 -75 
Q 819 -75 523 203 
Q 228 481 228 906 
Q 228 1188 362 1408 
Q 497 1628 739 1745 
Q 981 1863 1438 1950 
Q 2053 2066 2291 2166 
L 2291 2253 
Q 2291 2506 2166 2614 
Q 2041 2722 1694 2722 
Q 1459 2722 1328 2630 
Q 1197 2538 1116 2306 
z
M 2291 1594 
Q 2122 1538 1756 1459 
Q 1391 1381 1278 1306 
Q 1106 1184 1106 997 
Q 1106 813 1243 678 
Q 1381 544 1594 544 
Q 1831 544 2047 700 
Q 2206 819 2256 991 
Q 2291 1103 2291 1419 
L 2291 1594 
z
" transform="scale(0.015625)"/>
       <path id="Arial-BoldMT-6c" d="M 459 0 
L 459 4581 
L 1338 4581 
L 1338 0 
L 459 0 
z
" transform="scale(0.015625)"/>
       <path id="Arial-BoldMT-20" transform="scale(0.015625)"/>
       <path id="Arial-BoldMT-53" d="M 231 1491 
L 1131 1578 
Q 1213 1125 1461 912 
Q 1709 700 2131 700 
Q 2578 700 2804 889 
Q 3031 1078 3031 1331 
Q 3031 1494 2936 1608 
Q 2841 1722 2603 1806 
Q 2441 1863 1863 2006 
Q 1119 2191 819 2459 
Q 397 2838 397 3381 
Q 397 3731 595 4036 
Q 794 4341 1167 4500 
Q 1541 4659 2069 4659 
Q 2931 4659 3367 4281 
Q 3803 3903 3825 3272 
L 2900 3231 
Q 2841 3584 2645 3739 
Q 2450 3894 2059 3894 
Q 1656 3894 1428 3728 
Q 1281 3622 1281 3444 
Q 1281 3281 1419 3166 
Q 1594 3019 2269 2859 
Q 2944 2700 3267 2529 
Q 3591 2359 3773 2064 
Q 3956 1769 3956 1334 
Q 3956 941 3737 597 
Q 3519 253 3119 86 
Q 2719 -81 2122 -81 
Q 1253 -81 787 320 
Q 322 722 231 1491 
z
" transform="scale(0.015625)"/>
       <path id="Arial-BoldMT-66" d="M 75 3319 
L 563 3319 
L 563 3569 
Q 563 3988 652 4194 
Q 741 4400 980 4529 
Q 1219 4659 1584 4659 
Q 1959 4659 2319 4547 
L 2200 3934 
Q 1991 3984 1797 3984 
Q 1606 3984 1523 3895 
Q 1441 3806 1441 3553 
L 1441 3319 
L 2097 3319 
L 2097 2628 
L 1441 2628 
L 1441 0 
L 563 0 
L 563 2628 
L 75 2628 
L 75 3319 
z
" transform="scale(0.015625)"/>
       <path id="Arial-BoldMT-74" d="M 1981 3319 
L 1981 2619 
L 1381 2619 
L 1381 1281 
Q 1381 875 1398 808 
Q 1416 741 1477 697 
Q 1538 653 1625 653 
Q 1747 653 1978 738 
L 2053 56 
Q 1747 -75 1359 -75 
Q 1122 -75 931 4 
Q 741 84 652 211 
Q 563 338 528 553 
Q 500 706 500 1172 
L 500 2619 
L 97 2619 
L 97 3319 
L 500 3319 
L 500 3978 
L 1381 4491 
L 1381 3319 
L 1981 3319 
z
" transform="scale(0.015625)"/>
       <path id="Arial-BoldMT-2f" d="M -9 -78 
L 1125 4659 
L 1784 4659 
L 638 -78 
L -9 -78 
z
" transform="scale(0.015625)"/>
       <path id="Arial-BoldMT-70" d="M 434 3319 
L 1253 3319 
L 1253 2831 
Q 1413 3081 1684 3237 
Q 1956 3394 2288 3394 
Q 2866 3394 3269 2941 
Q 3672 2488 3672 1678 
Q 3672 847 3265 386 
Q 2859 -75 2281 -75 
Q 2006 -75 1782 34 
Q 1559 144 1313 409 
L 1313 -1263 
L 434 -1263 
L 434 3319 
z
M 1303 1716 
Q 1303 1156 1525 889 
Q 1747 622 2066 622 
Q 2372 622 2575 867 
Q 2778 1113 2778 1672 
Q 2778 2194 2568 2447 
Q 2359 2700 2050 2700 
Q 1728 2700 1515 2451 
Q 1303 2203 1303 1716 
z
" transform="scale(0.015625)"/>
      </defs>
      <use xlink:href="#Arial-BoldMT-43"/>
      <use xlink:href="#Arial-BoldMT-68" x="72.216797"/>
      <use xlink:href="#Arial-BoldMT-65" x="133.300781"/>
      <use xlink:href="#Arial-BoldMT-6d" x="188.916016"/>
      <use xlink:href="#Arial-BoldMT-69" x="277.832031"/>
      <use xlink:href="#Arial-BoldMT-63" x="305.615234"/>
      <use xlink:href="#Arial-BoldMT-61" x="361.230469"/>
      <use xlink:href="#Arial-BoldMT-6c" x="416.845703"/>
      <use xlink:href="#Arial-BoldMT-20" x="444.628906"/>
      <use xlink:href="#Arial-BoldMT-53" x="472.412109"/>
      <use xlink:href="#Arial-BoldMT-68" x="539.111328"/>
      <use xlink:href="#Arial-BoldMT-69" x="600.195312"/>
      <use xlink:href="#Arial-BoldMT-66" x="627.978516"/>
      <use xlink:href="#Arial-BoldMT-74" x="661.279297"/>
      <use xlink:href="#Arial-BoldMT-20" x="694.580078"/>
      <use xlink:href="#Arial-BoldMT-2f" x="722.363281"/>
      <use xlink:href="#Arial-BoldMT-20" x="750.146484"/>
      <use xlink:href="#Arial-BoldMT-70" x="777.929688"/>
      <use xlink:href="#Arial-BoldMT-70" x="839.013672"/>
      <use xlink:href="#Arial-BoldMT-6d" x="900.097656"/>
     </g>
    </g>
   </g>
   <g id="matplotlib.axis_2"/>
   <g id="line2d_12">
    <path d="M 2.996917 188.898137 
L 4.020016 187.632874 
L 4.224636 187.777527 
L 4.633875 188.921254 
L 5.043115 190.295555 
L 5.452354 190.78901 
L 5.656974 190.776171 
L 6.066213 190.269571 
L 6.475453 189.617099 
L 6.884692 189.357504 
L 7.498551 189.335176 
L 8.112411 189.441716 
L 8.72627 189.145636 
L 9.135509 188.700119 
L 10.158608 187.095914 
L 10.772467 186.822057 
L 11.181706 186.789766 
L 11.795566 186.976351 
L 12.614044 186.588397 
L 13.023284 186.869406 
L 13.432523 187.130292 
L 14.046383 187.327224 
L 14.864861 188.201556 
L 15.478721 187.741848 
L 15.68334 187.867036 
L 16.09258 188.735355 
L 16.911059 191.467915 
L 17.729538 194.320413 
L 17.934157 194.566201 
L 18.138777 194.581883 
L 18.548017 194.193815 
L 18.957256 193.320135 
L 19.775735 191.080242 
L 19.980355 190.966554 
L 20.389594 191.373529 
L 20.798834 191.794476 
L 21.208073 191.99196 
L 22.026552 192.815048 
L 22.231172 192.763488 
L 22.640411 192.138589 
L 23.049651 191.447954 
L 23.25427 191.353091 
L 23.66351 191.593562 
L 24.277369 192.221458 
L 24.481989 192.216869 
L 25.709707 191.154555 
L 26.528186 189.365018 
L 26.732806 189.377075 
L 27.142045 190.07068 
L 27.551285 190.641733 
L 27.960524 190.580313 
L 28.369763 190.465825 
L 28.983623 190.617619 
L 29.392862 189.985831 
L 29.802102 189.454143 
L 30.006721 189.509464 
L 30.62058 189.951912 
L 30.8252 189.847163 
L 31.848299 188.640047 
L 32.257538 188.750947 
L 32.666778 188.882792 
L 32.871397 188.768722 
L 33.894496 187.439697 
L 34.099116 187.529469 
L 34.303736 187.832583 
L 34.712975 189.044025 
L 35.122214 190.262912 
L 35.531454 190.829888 
L 36.349933 191.75613 
L 36.554553 191.786749 
L 36.759172 191.627887 
L 37.168412 190.862475 
L 38.39613 187.757258 
L 38.60075 187.727856 
L 39.419229 188.247031 
L 39.828468 188.279718 
L 40.851567 189.236945 
L 42.079285 190.57577 
L 42.488525 190.510433 
L 43.102384 190.191803 
L 43.716243 189.783725 
L 43.920863 189.733488 
L 44.125482 189.819444 
L 45.148581 190.939062 
L 45.76244 190.819086 
L 46.376299 190.53268 
L 46.990159 190.693239 
L 47.399398 190.33336 
L 48.422497 188.913859 
L 48.831736 188.982116 
L 49.036356 188.866524 
L 49.854835 187.880525 
L 50.264074 188.087422 
L 50.673314 188.344955 
L 51.082553 188.325202 
L 51.491793 188.174137 
L 51.696412 188.318183 
L 52.310271 189.519963 
L 53.33337 191.217615 
L 53.53799 191.110368 
L 53.74261 190.74167 
L 54.151849 189.275735 
L 54.970328 185.376831 
L 55.379567 184.42808 
L 55.584187 184.262277 
L 55.788807 184.302641 
L 56.198046 184.819904 
L 56.811905 185.768006 
L 57.221145 186.859601 
L 58.039624 189.551902 
L 58.448863 190.186915 
L 58.653483 190.193917 
L 58.858103 189.988141 
L 59.471962 188.930146 
L 59.676582 188.86331 
L 60.495061 188.96885 
L 60.9043 189.009748 
L 62.336638 190.498961 
L 62.950497 190.706677 
L 63.359737 191.264235 
L 63.973596 192.404208 
L 64.792075 193.119311 
L 64.996695 193.185842 
L 65.201314 193.132387 
L 65.405934 192.919994 
L 65.815173 191.985855 
L 66.224413 190.920303 
L 66.633652 190.557956 
L 67.042892 190.364762 
L 67.452131 189.941438 
L 68.06599 189.155572 
L 68.27061 189.188927 
L 69.089089 189.934493 
L 69.498329 189.847599 
L 69.907568 189.530109 
L 70.316807 188.845949 
L 70.930667 187.215439 
L 71.135286 187.030676 
L 71.339906 187.198902 
L 71.749146 188.388851 
L 72.158385 189.594061 
L 72.772244 190.634473 
L 73.181484 191.030307 
L 73.999963 191.29963 
L 74.409202 191.157147 
L 74.613822 191.256878 
L 75.432301 192.550191 
L 75.63692 192.36587 
L 76.455399 190.818382 
L 76.864639 190.849638 
L 77.273878 190.949 
L 77.683118 191.010092 
L 78.092357 191.25062 
L 78.296977 191.221358 
L 79.115456 190.584308 
L 79.320075 190.687469 
L 79.729315 191.279127 
L 80.138554 191.819199 
L 80.343174 191.860531 
L 80.752414 191.521295 
L 81.366273 190.704082 
L 81.570892 190.636644 
L 81.980132 190.729877 
L 82.184752 190.637047 
L 82.593991 190.063421 
L 83.41247 188.727989 
L 84.435569 187.295925 
L 84.844808 186.691193 
L 85.049428 186.553656 
L 85.254048 186.642485 
L 85.663287 187.431061 
L 86.277146 188.777318 
L 86.686386 189.221159 
L 87.095625 189.360832 
L 87.504865 189.278276 
L 87.914104 189.497435 
L 88.118724 189.61574 
L 88.323343 189.537315 
L 88.527963 189.16275 
L 89.346442 186.555844 
L 89.551062 186.455596 
L 89.755681 186.68739 
L 90.77878 189.017186 
L 90.9834 189.056545 
L 91.392639 188.656075 
L 91.801879 188.287311 
L 92.211118 188.315873 
L 93.234217 188.48405 
L 93.438837 188.712073 
L 94.461935 190.613613 
L 94.666555 190.635981 
L 94.871175 190.43725 
L 95.485034 189.459101 
L 96.098893 189.258825 
L 96.508132 188.517316 
L 97.121992 187.464002 
L 97.326611 187.381787 
L 97.735851 187.627562 
L 98.55433 188.385135 
L 98.963569 188.48887 
L 99.577428 188.434016 
L 99.986668 188.717731 
L 100.395907 189.495819 
L 100.805147 190.515392 
L 101.009766 190.753604 
L 101.214386 190.703865 
L 102.032865 189.756806 
L 102.237485 189.782948 
L 102.851344 190.111134 
L 103.669823 189.576959 
L 104.488302 189.983336 
L 105.306781 189.653604 
L 105.71602 189.983083 
L 106.739119 191.075234 
L 107.148358 191.132138 
L 107.762217 190.876022 
L 108.580696 191.858163 
L 108.989936 191.579921 
L 109.194556 191.574093 
L 109.808415 191.804366 
L 110.217654 191.434055 
L 110.626894 190.593781 
L 111.036133 189.263644 
L 111.240753 188.954314 
L 111.445373 189.043427 
L 111.854612 189.522834 
L 112.059232 189.553766 
L 112.673091 189.319252 
L 113.08233 189.599978 
L 113.49157 189.861915 
L 114.105429 189.685851 
L 114.514668 189.346283 
L 115.333147 188.453217 
L 115.537767 188.535197 
L 115.947007 189.329194 
L 116.356246 190.15778 
L 116.765485 190.366715 
L 117.379345 190.283126 
L 117.788584 190.336296 
L 118.197824 189.726826 
L 118.607063 188.962213 
L 119.016302 188.587919 
L 119.425542 188.545357 
L 119.834781 188.619617 
L 120.244021 188.549587 
L 120.448641 188.645029 
L 120.85788 189.281199 
L 121.676359 191.173038 
L 122.085598 191.718975 
L 122.290218 191.795466 
L 122.494838 191.662232 
L 123.313317 190.351752 
L 123.517936 190.60867 
L 124.131796 191.854685 
L 124.541035 191.87917 
L 124.950275 191.648515 
L 125.359514 191.096571 
L 125.973373 190.246282 
L 126.382613 190.198123 
L 126.791852 190.190288 
L 127.201091 189.557206 
L 128.22419 187.462698 
L 128.42881 187.338663 
L 128.63343 187.528052 
L 129.451908 189.197837 
L 129.861148 189.40328 
L 130.270387 189.461696 
L 130.475007 189.652293 
L 131.293486 190.946724 
L 132.111965 190.863915 
L 132.725824 190.661122 
L 133.544303 190.083223 
L 133.953542 189.306218 
L 134.976641 186.83113 
L 135.181261 186.56177 
L 135.385881 186.484735 
L 135.5905 186.623487 
L 136.613599 188.006107 
L 137.636698 189.366726 
L 137.841317 189.391925 
L 138.250557 189.077694 
L 139.069036 188.369468 
L 139.682895 188.007892 
L 140.092134 187.177643 
L 140.501374 186.301133 
L 141.319853 185.304898 
L 141.729092 184.663483 
L 141.933712 184.58567 
L 142.138332 184.702924 
L 142.547571 185.379043 
L 143.775289 187.923616 
L 144.593768 188.358158 
L 145.003008 188.351258 
L 145.412247 188.388439 
L 146.230726 189.022978 
L 146.639966 190.142611 
L 147.049205 191.372721 
L 147.253825 191.631664 
L 147.458444 191.607196 
L 147.867684 190.912039 
L 148.481543 189.707414 
L 148.686163 189.514005 
L 148.890783 189.493923 
L 149.095402 189.721119 
L 150.118501 191.902605 
L 150.52774 192.01361 
L 151.346219 192.040992 
L 151.960078 192.453526 
L 152.164698 192.398463 
L 153.801656 190.400116 
L 155.029374 188.27816 
L 155.233994 188.10198 
L 155.438614 188.124223 
L 155.643234 188.385777 
L 156.257093 189.52848 
L 156.461712 189.464715 
L 156.870952 188.686225 
L 157.280191 187.988498 
L 157.484811 187.929845 
L 157.894051 188.343402 
L 158.30329 188.629909 
L 158.917149 188.57035 
L 159.531008 188.830151 
L 159.940248 189.271254 
L 160.349487 190.054559 
L 160.963346 191.387924 
L 161.167966 191.442612 
L 161.577206 190.918558 
L 162.395685 189.240894 
L 163.009544 187.460455 
L 163.418783 186.307629 
L 163.828023 185.709382 
L 164.441882 185.170058 
L 165.055741 184.135223 
L 165.260361 184.198067 
L 166.488079 185.74131 
L 166.897318 186.179493 
L 167.101938 186.186087 
L 168.125037 185.445384 
L 168.534276 185.843196 
L 169.557375 187.481534 
L 169.761995 187.282746 
L 170.171234 186.280479 
L 170.580474 185.158203 
L 170.989713 184.721066 
L 171.194333 184.725292 
L 171.398952 184.854158 
L 171.808192 185.545686 
L 173.44515 188.752125 
L 173.649769 188.545686 
L 175.286727 184.492185 
L 176.719065 179.136951 
L 177.332925 178.034879 
L 178.151403 176.78044 
L 178.356023 176.722448 
L 178.765263 177.015628 
L 179.174502 177.663812 
L 180.197601 179.733081 
L 180.40222 179.819332 
L 180.81146 179.684311 
L 181.425319 179.38234 
L 181.834559 179.39385 
L 182.448418 179.062623 
L 182.653037 178.718682 
L 183.062277 177.052012 
L 183.471516 175.180837 
L 184.494615 171.875395 
L 185.313094 168.64661 
L 185.926953 166.968594 
L 186.336193 166.036567 
L 186.745432 164.286987 
L 187.154671 161.530757 
L 187.97315 153.619685 
L 188.58701 145.676791 
L 189.200869 133.660926 
L 189.814728 116.009315 
L 190.428587 92.130231 
L 191.042446 60.17519 
L 191.860925 13.055028 
L 192.065545 5.879361 
L 192.270165 3.00024 
L 192.474784 5.091847 
L 192.679404 12.049881 
L 193.088644 37.042905 
L 194.111742 109.862129 
L 194.725601 137.688222 
L 195.339461 153.489708 
L 195.95332 162.619773 
L 196.771799 171.216927 
L 197.385658 175.880928 
L 197.794897 178.039332 
L 198.204137 179.166371 
L 199.022616 180.207327 
L 200.250334 183.069285 
L 200.454954 183.12444 
L 200.659573 182.970828 
L 201.273433 182.093391 
L 201.682672 182.054463 
L 202.296531 182.223653 
L 202.91039 182.847071 
L 203.11501 182.821678 
L 203.31963 182.578828 
L 203.728869 181.339123 
L 204.547348 177.978771 
L 205.161207 175.743344 
L 205.979686 172.43442 
L 206.593545 170.751409 
L 207.207405 169.978049 
L 207.616644 169.695308 
L 207.821264 169.777344 
L 208.230503 170.301977 
L 208.844362 171.038205 
L 209.253602 171.178586 
L 209.458222 171.089137 
L 210.276701 170.354987 
L 210.68594 170.3898 
L 210.89056 170.309068 
L 211.095179 170.075875 
L 211.504419 169.021 
L 212.936757 163.668287 
L 213.755236 159.231295 
L 215.392194 153.6654 
L 216.006053 152.470961 
L 216.415292 150.489035 
L 217.029152 146.923845 
L 217.438391 145.821586 
L 217.643011 145.688928 
L 217.84763 145.801449 
L 218.25687 146.287868 
L 218.46149 146.379397 
L 219.075349 146.29123 
L 219.484588 146.591196 
L 220.507687 148.030224 
L 220.916926 148.068159 
L 221.121546 147.907634 
L 221.326166 147.567274 
L 221.735405 146.080417 
L 222.144645 143.030876 
L 223.372363 130.976757 
L 223.576983 130.341404 
L 223.781603 130.403513 
L 223.986222 131.120074 
L 224.395462 134.146818 
L 225.8278 147.420967 
L 226.237039 149.166082 
L 226.646279 149.873197 
L 226.850898 149.734515 
L 227.055518 149.141026 
L 227.464758 146.613892 
L 228.078617 141.071832 
L 229.715575 123.451658 
L 230.124814 121.030875 
L 230.534054 119.673888 
L 230.943293 118.561861 
L 231.352532 116.370588 
L 231.761772 112.501231 
L 234.217209 83.996958 
L 234.421828 82.965769 
L 234.626448 82.544445 
L 234.831068 82.912244 
L 235.035688 84.22456 
L 235.444927 89.621672 
L 236.058786 102.65055 
L 237.695744 140.062346 
L 238.309603 149.649721 
L 239.128082 158.602743 
L 239.946561 165.032888 
L 240.56042 168.243548 
L 240.76504 168.504623 
L 240.96966 168.206261 
L 241.378899 166.405356 
L 243.629716 154.598603 
L 244.243575 152.713185 
L 244.652815 152.134463 
L 244.857434 152.223468 
L 245.062054 152.664803 
L 245.471294 154.654729 
L 246.085153 160.189812 
L 247.517491 174.073245 
L 248.13135 178.333503 
L 248.949829 181.810534 
L 249.563688 183.653803 
L 249.972928 184.374294 
L 250.382167 184.643433 
L 250.996026 184.806765 
L 251.405266 184.395121 
L 251.814505 183.909447 
L 252.019125 183.836186 
L 252.223745 183.891384 
L 252.632984 184.373849 
L 253.451463 186.041025 
L 253.860702 186.157405 
L 254.065322 186.376447 
L 254.679181 187.55575 
L 255.088421 187.765635 
L 255.9069 187.845141 
L 256.111519 187.645964 
L 256.520759 186.647526 
L 256.929998 185.666416 
L 257.953097 184.318497 
L 258.157717 184.221702 
L 259.180815 184.508493 
L 259.590055 184.682698 
L 260.203914 184.631588 
L 260.613153 184.900145 
L 261.227013 185.463599 
L 261.636252 185.416416 
L 262.454731 184.879817 
L 263.27321 184.155449 
L 263.682449 184.313354 
L 264.091689 184.639621 
L 264.705548 185.32894 
L 264.910168 185.332854 
L 265.114787 185.147334 
L 265.728647 184.135585 
L 266.547125 183.560679 
L 267.365604 183.343938 
L 267.570224 182.898836 
L 268.388703 179.581285 
L 269.207182 176.926833 
L 270.025661 175.082717 
L 270.63952 172.892178 
L 271.457999 169.25704 
L 272.685717 163.564971 
L 273.504196 160.02387 
L 274.118055 155.439018 
L 275.550393 143.337689 
L 276.368872 134.583919 
L 276.778112 128.18806 
L 277.391971 113.566528 
L 279.233549 59.929313 
L 280.256647 39.701217 
L 280.461267 37.48211 
L 280.665887 36.484182 
L 280.870506 36.831874 
L 281.075126 38.464285 
L 281.484365 44.742735 
L 283.121323 77.453723 
L 283.325943 78.747328 
L 283.530563 79.019658 
L 283.735182 78.3492 
L 284.144422 74.716997 
L 284.758281 65.216359 
L 285.37214 55.67989 
L 285.78138 52.289949 
L 285.985999 52.350719 
L 286.190619 53.630342 
L 286.599859 59.19761 
L 287.213718 72.809259 
L 287.827577 92.124891 
L 288.850676 127.702555 
L 289.464535 141.896594 
L 290.283014 155.623541 
L 290.896873 162.07907 
L 291.919972 170.184633 
L 293.761549 177.919147 
L 294.989267 181.711482 
L 295.398507 182.972349 
L 295.807746 183.599528 
L 296.626225 184.514629 
L 297.035465 184.841867 
L 297.444704 185.565392 
L 298.058563 186.695259 
L 298.263183 186.866115 
L 298.467803 186.857062 
L 298.877042 186.432063 
L 299.286282 185.711926 
L 300.71862 182.013384 
L 300.92324 181.825887 
L 301.127859 181.799032 
L 301.332479 181.978784 
L 301.741718 183.11506 
L 302.355578 185.045934 
L 302.764817 185.738951 
L 302.969437 185.797749 
L 303.174057 185.614048 
L 304.197155 183.514905 
L 304.401775 183.396354 
L 304.606395 183.430112 
L 304.811014 183.653441 
L 305.424874 184.829916 
L 305.629493 184.905925 
L 306.447972 184.481654 
L 306.857212 184.631957 
L 307.471071 185.177171 
L 307.675691 185.218397 
L 307.88031 185.095901 
L 308.28955 184.341896 
L 309.312648 181.749473 
L 309.517268 181.714691 
L 309.926508 181.910835 
L 310.335747 181.773202 
L 310.744986 181.294236 
L 311.768085 179.545418 
L 311.972705 179.556743 
L 312.381944 179.905068 
L 312.791184 180.202945 
L 313.814282 180.170005 
L 314.018902 180.059126 
L 314.223522 179.71533 
L 315.042001 177.631201 
L 315.45124 177.412562 
L 315.65586 177.364705 
L 315.86048 177.194094 
L 316.065099 176.713245 
L 316.474339 174.577617 
L 317.088198 170.699627 
L 317.702057 167.824864 
L 318.520536 160.979731 
L 319.134395 155.027912 
L 319.748254 145.804928 
L 320.566733 128.840009 
L 321.180592 112.048608 
L 321.794452 87.943305 
L 323.02217 29.283316 
L 323.22679 25.65667 
L 323.431409 26.07248 
L 323.636029 30.536328 
L 324.045269 49.059779 
L 325.068367 105.809817 
L 325.682226 127.83993 
L 326.296086 143.264821 
L 326.909945 153.193454 
L 327.728424 162.044487 
L 328.751522 169.923981 
L 329.365382 173.901221 
L 329.979241 176.104115 
L 330.18386 176.569196 
L 330.38848 176.725801 
L 330.5931 176.598494 
L 331.206959 175.580447 
L 331.411579 175.536542 
L 332.025438 175.978765 
L 332.230058 175.891336 
L 332.639297 175.106874 
L 334.071635 170.943133 
L 335.913213 162.465492 
L 336.527072 157.400354 
L 337.140931 149.77781 
L 338.16403 133.450985 
L 338.777889 120.354582 
L 340.619467 74.397893 
L 340.824086 72.983463 
L 341.028706 73.034633 
L 341.233326 74.376252 
L 341.642565 80.390641 
L 343.688762 121.204623 
L 344.507241 134.355609 
L 344.916481 138.666077 
L 345.32572 141.17793 
L 345.73496 142.207966 
L 345.939579 142.290325 
L 346.144199 142.134546 
L 346.553439 141.269003 
L 346.962678 139.909051 
L 347.371918 137.522778 
L 347.781157 133.1398 
L 348.599636 120.493379 
L 349.622735 100.580402 
L 350.236594 85.240344 
L 351.464312 51.618558 
L 351.668932 48.92271 
L 351.873552 47.730005 
L 352.078171 48.303814 
L 352.282791 50.807846 
L 352.69203 61.132095 
L 354.942847 135.574797 
L 355.761326 152.635362 
L 356.375186 160.840403 
L 356.989045 166.302056 
L 358.626002 177.274615 
L 359.239862 180.034037 
L 359.649101 180.762785 
L 360.058341 180.835184 
L 360.26296 181.033194 
L 361.081439 182.467821 
L 361.695298 182.74781 
L 362.309158 182.807897 
L 362.718397 182.751416 
L 362.923017 182.600793 
L 363.741496 181.417385 
L 364.150735 181.725594 
L 364.764594 182.52045 
L 365.583073 183.95091 
L 365.992313 184.588305 
L 366.606172 186.280082 
L 367.424651 188.879014 
L 367.83389 189.394706 
L 368.24313 189.69396 
L 368.447749 189.691098 
L 368.856989 189.208017 
L 369.266228 188.76452 
L 369.675468 188.729263 
L 370.289327 188.945058 
L 371.312426 188.898033 
L 372.130904 188.364735 
L 372.744764 188.561764 
L 373.358623 188.821436 
L 373.767862 188.857726 
L 374.177102 189.158617 
L 374.790961 189.810789 
L 375.40482 190.189091 
L 375.81406 190.071806 
L 376.427919 189.532898 
L 377.246398 189.40111 
L 377.655637 189.280771 
L 378.064877 189.463494 
L 378.883355 190.258263 
L 379.292595 190.194458 
L 379.701834 190.154286 
L 380.315694 190.525095 
L 380.520313 190.490875 
L 380.929553 190.035323 
L 381.338792 189.480612 
L 381.952651 189.15994 
L 382.361891 188.326377 
L 382.97575 186.664255 
L 383.18037 186.410422 
L 383.384989 186.400713 
L 383.589609 186.60996 
L 384.612708 188.336634 
L 385.021947 188.182393 
L 385.431187 188.020719 
L 385.840426 188.264201 
L 386.658905 189.075453 
L 386.863525 189.016725 
L 387.886623 188.148993 
L 388.295863 188.208066 
L 388.500483 188.451046 
L 389.728201 191.238856 
L 390.13744 191.427898 
L 390.7513 191.270462 
L 391.365159 191.065504 
L 391.774398 191.134465 
L 391.979018 191.036117 
L 392.388257 190.404134 
L 392.797497 189.742085 
L 393.206736 189.469857 
L 393.615976 189.250027 
L 394.434455 188.476353 
L 394.639074 188.491374 
L 395.457553 189.345374 
L 396.276032 189.325659 
L 396.480652 189.707539 
L 397.503751 192.825128 
L 397.70837 193.024349 
L 397.91299 193.046708 
L 398.322229 192.570718 
L 398.731469 192.110581 
L 399.140708 192.078424 
L 399.549948 192.158271 
L 399.754568 192.036287 
L 400.163807 191.289794 
L 401.391525 188.164734 
L 402.414624 187.499116 
L 402.619244 187.564652 
L 403.437723 188.455897 
L 403.846962 188.720291 
L 404.256202 188.743913 
L 404.665441 189.061451 
L 405.07468 189.407403 
L 405.48392 189.550703 
L 405.893159 189.439531 
L 406.507019 188.85146 
L 407.325497 188.914365 
L 407.734737 188.701115 
L 408.348596 188.261014 
L 408.757836 188.319553 
L 409.576314 188.756261 
L 409.780934 188.691509 
L 410.804033 187.737564 
L 411.213272 187.445996 
L 411.622512 186.99096 
L 411.827131 186.939349 
L 412.031751 187.102389 
L 413.05485 189.031366 
L 413.25947 189.038759 
L 413.464089 188.814601 
L 413.873329 187.790376 
L 414.282568 186.602673 
L 414.487188 186.270998 
L 414.691808 186.185146 
L 415.101047 186.47473 
L 416.533385 188.172514 
L 416.942625 188.181957 
L 417.351864 187.923481 
L 417.761104 187.085891 
L 418.170343 186.136297 
L 418.579582 185.77525 
L 418.988822 185.376313 
L 419.398061 184.812823 
L 419.602681 184.797224 
L 420.011921 185.145283 
L 420.21654 185.156336 
L 420.62578 184.57916 
L 421.648878 182.658661 
L 421.853498 182.564694 
L 422.671977 182.679922 
L 422.876597 182.455466 
L 423.285836 181.405725 
L 424.104315 178.971065 
L 424.922794 177.44762 
L 425.536653 174.840907 
L 427.173611 166.496673 
L 427.58285 163.11464 
L 428.401329 153.832718 
L 429.015189 145.20134 
L 429.629048 132.300473 
L 430.447527 110.417783 
L 431.266006 80.714371 
L 432.084484 51.479139 
L 432.493724 45.567854 
L 432.698344 45.779109 
L 432.902963 47.876799 
L 433.312203 56.512935 
L 435.767639 123.591365 
L 436.586118 137.603494 
L 437.199978 144.956301 
L 437.609217 148.115858 
L 438.018456 149.46006 
L 438.223076 149.369129 
L 438.427696 148.791591 
L 438.836935 146.463714 
L 439.450795 140.823901 
L 440.269273 131.00531 
L 440.883133 121.020901 
L 442.52009 88.561191 
L 443.13395 78.092282 
L 443.338569 76.389458 
L 443.543189 76.104236 
L 443.747809 77.359465 
L 444.157048 84.580968 
L 444.770907 103.374967 
L 445.589386 128.486647 
L 446.203246 141.582538 
L 446.817105 150.310097 
L 448.044823 164.48526 
L 449.067922 173.162891 
L 449.477161 175.31368 
L 449.886401 176.199311 
L 450.29564 177.054684 
L 452.341837 183.688259 
L 452.955697 185.529217 
L 453.160316 185.788149 
L 453.364936 185.725862 
L 454.183415 184.601959 
L 454.797274 184.100704 
L 455.001894 184.239354 
L 455.411133 185.091026 
L 456.229612 187.039301 
L 456.434232 187.230965 
L 456.638852 187.172917 
L 457.457331 186.21642 
L 457.86657 186.389614 
L 458.889669 187.180876 
L 459.298908 187.225143 
L 459.503528 187.390354 
L 460.322007 188.571836 
L 460.731246 188.581581 
L 461.549725 189.002992 
L 462.368204 188.299755 
L 462.982063 188.337328 
L 463.391303 188.106152 
L 463.800542 187.809216 
L 464.005162 187.966627 
L 464.823641 189.621132 
L 465.23288 190.578742 
L 466.051359 192.971556 
L 466.255979 192.909134 
L 466.460599 192.520572 
L 467.688317 188.99585 
L 468.506796 188.947796 
L 468.916035 189.353553 
L 469.325275 189.786195 
L 469.939134 190.04826 
L 470.552993 190.741568 
L 470.757613 190.520227 
L 471.371472 189.001124 
L 471.576092 188.978688 
L 471.985331 189.748044 
L 472.394571 190.387421 
L 472.59919 190.429234 
L 473.417669 189.906106 
L 473.826909 189.898004 
L 474.440768 189.43488 
L 474.645388 189.533805 
L 475.054627 189.995592 
L 475.259247 190.07792 
L 475.668486 189.941764 
L 476.282345 189.517717 
L 476.896205 188.945775 
L 477.100824 188.94168 
L 478.123923 189.619872 
L 478.737782 190.075192 
L 479.147022 190.029719 
L 479.556261 189.448669 
L 479.9655 188.635579 
L 480.17012 188.536161 
L 480.37474 188.73503 
L 480.783979 189.607425 
L 481.397839 191.285828 
L 481.602458 191.508906 
L 481.807078 191.386784 
L 482.216317 190.254317 
L 482.625557 188.95799 
L 482.830177 188.741077 
L 483.034796 188.854903 
L 483.853275 190.01229 
L 484.057895 189.964414 
L 484.671754 189.568767 
L 485.080994 189.803765 
L 485.490233 190.366909 
L 486.104092 191.408568 
L 486.308712 191.510134 
L 487.127191 191.477204 
L 487.53643 191.975433 
L 487.94567 192.567599 
L 488.15029 192.705006 
L 488.354909 192.695095 
L 488.764149 192.25043 
L 489.378008 190.844073 
L 489.787247 190.061617 
L 489.991867 189.956978 
L 490.810346 190.293456 
L 491.219585 189.884982 
L 491.833445 189.949371 
L 492.856543 189.214304 
L 493.470402 189.510018 
L 493.879642 189.336535 
L 494.493501 188.462243 
L 494.902741 188.030639 
L 495.5166 187.860757 
L 495.925839 187.358237 
L 496.335079 186.831299 
L 496.539698 186.754267 
L 496.948938 187.03475 
L 497.358177 187.347804 
L 497.972036 187.662171 
L 498.585896 188.273471 
L 499.404375 189.405165 
L 499.813614 189.431017 
L 500.018234 189.388504 
L 500.222853 189.468425 
L 501.041332 190.421616 
L 501.450572 190.169644 
L 501.859811 189.604738 
L 503.701389 185.850727 
L 503.906009 185.88985 
L 504.315248 186.689885 
L 504.724487 187.43743 
L 505.338347 187.545508 
L 505.542966 187.942144 
L 506.361445 190.350903 
L 506.770685 190.71154 
L 507.179924 190.626144 
L 507.589164 190.312064 
L 508.407643 189.479439 
L 508.816882 189.5947 
L 509.021502 189.494586 
L 509.226121 189.145244 
L 509.839981 187.552229 
L 510.0446 187.51483 
L 510.24922 187.772105 
L 511.067699 189.567447 
L 511.272319 189.640566 
L 511.681558 189.363788 
L 512.909276 187.814306 
L 513.318516 187.181103 
L 513.523136 187.066711 
L 513.727755 187.138267 
L 514.750854 188.260642 
L 515.160093 188.547615 
L 516.592432 190.183367 
L 517.001671 190.048713 
L 517.61553 189.587921 
L 517.82015 189.156303 
L 518.638629 186.432653 
L 518.843249 186.408387 
L 519.252488 186.960882 
L 520.480206 188.860958 
L 521.298685 190.507904 
L 521.503305 190.562821 
L 521.707925 190.483126 
L 521.912544 190.258737 
L 522.321784 189.27238 
L 522.731023 188.138948 
L 523.140263 187.683046 
L 523.754122 187.651735 
L 524.367981 187.333925 
L 524.572601 187.369885 
L 524.777221 187.63327 
L 525.18646 188.920097 
L 525.800319 190.999586 
L 526.004939 191.204397 
L 526.209559 191.123309 
L 526.618798 190.241207 
L 527.028038 189.206335 
L 527.437277 188.809485 
L 527.846517 188.425239 
L 528.255756 187.971623 
L 528.460376 187.998985 
L 528.869615 188.566689 
L 529.483474 189.746912 
L 529.892714 189.999167 
L 530.301953 190.01585 
L 531.120432 189.892449 
L 531.938911 188.935746 
L 532.143531 189.156166 
L 532.96201 190.920846 
L 533.371249 190.866787 
L 533.780489 190.583582 
L 535.212827 188.771858 
L 535.417446 188.799136 
L 535.622066 189.019541 
L 536.031306 189.937263 
L 537.463644 193.614353 
L 537.872883 193.888341 
L 538.077503 193.893664 
L 538.282123 193.763017 
L 538.691362 193.059256 
L 539.100602 192.227243 
L 539.509841 191.954963 
L 539.714461 191.853323 
L 540.32832 190.986576 
L 541.146799 189.907018 
L 541.556038 189.226344 
L 541.760658 189.06183 
L 542.169897 189.14785 
L 542.988376 189.761752 
L 543.397616 189.738203 
L 544.011475 189.558311 
L 544.216095 189.808513 
L 545.034574 191.507561 
L 545.443813 191.749017 
L 546.057672 192.372738 
L 546.466912 192.056582 
L 546.876151 191.732773 
L 547.69463 191.48576 
L 547.89925 191.575917 
L 548.308489 192.185593 
L 548.717729 192.874466 
L 548.922348 192.990474 
L 549.126968 192.805948 
L 549.536208 191.499245 
L 549.945447 190.040041 
L 550.150067 189.67694 
L 550.354687 189.630369 
L 550.559306 189.903942 
L 551.377785 191.771292 
L 552.605503 192.548025 
L 553.014743 192.573994 
L 553.628602 192.215284 
L 554.651701 191.306365 
L 555.06094 191.306037 
L 556.084039 190.372691 
L 556.493278 190.691369 
L 557.107137 191.178521 
L 558.130236 191.838841 
L 559.357954 191.792336 
L 559.767194 191.32526 
L 560.381053 190.532877 
L 560.994912 190.027617 
L 562.83649 189.357142 
L 563.04111 189.516692 
L 563.859588 190.690114 
L 564.473448 190.721989 
L 564.882687 190.414401 
L 565.496546 189.553795 
L 566.315025 188.93386 
L 567.133504 188.82671 
L 567.338124 188.935106 
L 567.747363 189.83636 
L 568.156603 190.720324 
L 568.361222 190.821808 
L 568.565842 190.684608 
L 568.975082 189.756454 
L 569.588941 187.901116 
L 569.99818 187.356143 
L 570.40742 187.467889 
L 570.816659 187.607543 
L 571.021279 187.551039 
L 571.430518 186.977797 
L 571.839758 186.356466 
L 572.248997 186.355908 
L 572.862856 186.705595 
L 573.476716 187.380538 
L 574.499814 187.961733 
L 574.909054 188.696572 
L 575.522913 189.996149 
L 575.727533 190.147237 
L 575.932152 190.061516 
L 576.546012 189.366353 
L 576.955251 189.389284 
L 577.77373 189.440511 
L 578.182969 189.4292 
L 578.592209 189.6757 
L 579.001448 190.324445 
L 579.615307 192.190438 
L 580.229167 193.909266 
L 580.433786 194.142962 
L 580.638406 194.172299 
L 580.843026 194.021966 
L 581.252265 193.237047 
L 582.684603 188.949185 
L 582.889223 188.96621 
L 583.503082 189.404213 
L 584.116941 189.647722 
L 584.526181 190.046076 
L 585.54928 191.73085 
L 585.958519 191.751947 
L 586.367758 191.789367 
L 586.776998 192.188967 
L 587.390857 192.840716 
L 587.595477 192.777155 
L 588.413956 192.049658 
L 588.823195 191.633971 
L 590.050913 189.474144 
L 590.460153 189.2932 
L 591.278632 189.346954 
L 592.097111 188.606189 
L 592.50635 188.764979 
L 592.71097 188.68013 
L 593.529449 187.543756 
L 594.143308 187.361691 
L 594.757167 187.347112 
L 595.984886 186.662411 
L 596.394125 187.019476 
L 596.803364 187.296454 
L 597.621843 187.174095 
L 598.235703 186.32364 
L 598.440322 186.320689 
L 598.849562 186.917529 
L 599.463421 188.044995 
L 599.87266 188.170341 
L 600.2819 188.24764 
L 602.328097 189.69915 
L 603.146576 189.692438 
L 603.555815 189.312207 
L 604.374294 188.048508 
L 604.578914 188.082246 
L 604.988154 188.859366 
L 605.397393 189.527444 
L 605.602013 189.553591 
L 606.011252 189.22375 
L 606.625111 188.649007 
L 607.238971 188.453807 
L 607.64821 187.934759 
L 607.85283 187.860327 
L 608.466689 187.988655 
L 608.875928 188.063671 
L 609.899027 188.679511 
L 610.103647 188.641516 
L 610.308266 188.48191 
L 610.717506 187.738758 
L 611.126745 186.855707 
L 611.331365 186.615609 
L 611.535985 186.59528 
L 611.945224 186.961706 
L 612.354464 187.290216 
L 612.559083 187.23488 
L 613.377562 186.670906 
L 613.786802 186.749868 
L 613.991422 186.918451 
L 614.400661 187.706191 
L 615.832999 191.291237 
L 616.242239 191.734888 
L 616.446858 191.790805 
L 616.651478 191.722984 
L 617.060717 191.1585 
L 618.083816 189.151228 
L 618.697675 187.815336 
L 619.106915 187.305751 
L 619.516154 187.217817 
L 619.925394 187.448252 
L 620.539253 188.326585 
L 621.766971 190.104969 
L 621.971591 190.228968 
L 622.38083 190.102022 
L 622.79007 189.766101 
L 623.403929 189.134928 
L 623.813168 189.150219 
L 624.222408 189.42086 
L 625.040887 190.16472 
L 625.654746 191.182207 
L 625.859366 191.173128 
L 626.268605 190.588651 
L 626.677845 190.146899 
L 626.882464 190.258411 
L 627.496324 190.956119 
L 627.700943 190.991294 
L 628.110183 190.71209 
L 629.133281 189.880427 
L 629.74714 189.664667 
L 630.770239 189.615589 
L 631.588718 189.749058 
L 631.997957 189.407067 
L 632.407197 188.908114 
L 632.611817 188.929706 
L 632.816436 189.288877 
L 633.839535 192.60258 
L 634.044155 192.760586 
L 634.248774 192.700226 
L 635.271873 191.569317 
L 635.885732 190.98351 
L 636.294972 190.999416 
L 636.499591 191.021766 
L 636.704211 190.91787 
L 637.113451 190.212496 
L 637.93193 188.110072 
L 638.136549 187.953991 
L 638.341169 188.055474 
L 639.364268 189.483617 
L 639.568887 189.553416 
L 639.978127 189.352237 
L 640.796606 188.640322 
L 641.615085 188.680734 
L 642.024324 188.139358 
L 642.638183 187.179997 
L 643.047423 187.036557 
L 643.252042 187.154975 
L 643.456662 187.439201 
L 643.865902 188.593878 
L 644.479761 190.901595 
L 644.684381 191.21992 
L 645.502859 191.494147 
L 645.707479 191.419593 
L 646.730578 190.385254 
L 647.139817 189.605514 
L 647.958296 187.533705 
L 648.162916 187.263657 
L 648.367536 187.214635 
L 648.981395 187.486498 
L 649.186015 187.680298 
L 649.595254 188.550509 
L 650.004493 189.65543 
L 650.209113 189.958712 
L 650.413733 190.027497 
L 650.822972 189.707279 
L 652.050691 188.544308 
L 652.86917 187.721454 
L 653.278409 187.236328 
L 653.483029 187.154858 
L 653.687649 187.263335 
L 654.301508 187.916024 
L 654.710747 187.960025 
L 655.119987 188.41417 
L 655.733846 189.183699 
L 656.552325 190.176426 
L 656.961564 190.533086 
L 657.575423 190.692851 
L 658.393902 191.342524 
L 658.598522 191.266228 
L 659.212381 190.483666 
L 660.23548 189.208446 
L 660.4401 189.220839 
L 660.849339 189.773416 
L 661.463198 190.759917 
L 661.872438 191.174757 
L 662.077057 191.181579 
L 662.281677 190.960671 
L 662.690917 189.919617 
L 663.304776 188.181403 
L 663.509395 188.064399 
L 663.918635 188.462048 
L 664.327874 188.826505 
L 665.146353 189.108598 
L 666.169452 190.001292 
L 666.783311 190.789793 
L 667.19255 190.823143 
L 667.60179 190.840812 
L 668.011029 191.228618 
L 668.420269 191.753501 
L 668.624889 191.790837 
L 670.057227 190.922262 
L 670.671086 190.469403 
L 671.080325 189.595778 
L 672.103424 187.07614 
L 672.308044 186.966399 
L 672.512663 187.076109 
L 673.331142 188.382067 
L 674.558861 190.993594 
L 674.76348 191.06434 
L 675.17272 190.623317 
L 675.581959 190.241022 
L 675.991199 190.401399 
L 676.400438 190.550282 
L 676.809678 190.46111 
L 677.218917 190.744138 
L 677.628157 190.968123 
L 677.832776 190.932821 
L 678.037396 190.781377 
L 680.083593 187.794924 
L 680.492833 187.524398 
L 680.697452 187.515591 
L 680.902072 187.638396 
L 681.311312 188.302866 
L 682.53903 191.257009 
L 682.74365 191.297045 
L 683.152889 190.682609 
L 683.562129 190.196902 
L 684.789847 189.991883 
L 685.403706 190.216933 
L 685.812946 190.675156 
L 686.222185 191.167997 
L 686.426805 191.227698 
L 686.836044 191.013519 
L 688.268382 189.78305 
L 689.086861 189.296185 
L 689.496101 188.861962 
L 689.70072 188.797886 
L 690.10996 189.106643 
L 690.31458 189.285396 
L 690.519199 189.265649 
L 691.337678 188.183458 
L 692.156157 188.820958 
L 692.974636 188.309715 
L 693.383876 188.314813 
L 693.997735 188.525798 
L 695.020833 188.338555 
L 695.430073 188.715979 
L 695.839312 189.191103 
L 696.043932 189.265446 
L 696.657791 189.01957 
L 696.862411 189.194469 
L 697.68089 190.470652 
L 698.090129 190.402932 
L 698.703988 190.121459 
L 699.113228 189.529528 
L 699.727087 188.379323 
L 700.136327 188.155499 
L 700.750186 188.065925 
L 701.364045 188.314148 
L 701.568665 188.150492 
L 702.387144 186.830196 
L 702.591763 186.916614 
L 703.410242 188.340832 
L 704.024101 188.399056 
L 704.433341 188.996872 
L 704.84258 189.720522 
L 705.0472 189.900329 
L 705.25182 189.890446 
L 706.274918 189.027711 
L 707.298017 186.548174 
L 707.502637 186.485384 
L 707.911876 186.719317 
L 708.321116 187.375499 
L 709.753454 190.68568 
L 710.162693 190.76826 
L 710.571933 190.531866 
L 710.981172 190.217869 
L 711.185792 190.268887 
L 712.41351 191.589146 
L 713.027369 192.661663 
L 713.231989 192.801408 
L 713.641228 192.697517 
L 714.050468 192.403934 
L 714.255088 192.126726 
L 714.664327 190.900404 
L 715.482806 187.787437 
L 715.892045 187.213708 
L 716.096665 187.255733 
L 716.505905 187.883624 
L 717.119764 188.939076 
L 717.529003 189.219098 
L 718.142862 189.48337 
L 718.552102 189.806167 
L 718.961341 189.576606 
L 719.165961 189.453539 
L 719.370581 189.476166 
L 719.77982 190.013532 
L 720.18906 190.629264 
L 720.393679 190.641131 
L 722.030637 189.579664 
L 722.439877 188.886442 
L 723.053736 187.315391 
L 723.258356 187.15919 
L 723.462975 187.342264 
L 723.872215 187.954192 
L 724.486074 188.085796 
L 724.690694 188.382634 
L 725.304553 189.795542 
L 725.509173 189.850485 
L 725.713792 189.589802 
L 726.327652 188.422928 
L 726.532271 188.436377 
L 728.373849 190.486502 
L 728.783088 190.465917 
L 729.601567 189.714739 
L 729.806187 189.794605 
L 730.215426 190.524351 
L 730.829286 191.819697 
L 731.033905 191.881468 
L 731.443145 191.545347 
L 732.057004 190.656938 
L 732.670863 189.61485 
L 732.875483 189.468747 
L 733.080103 189.534568 
L 733.489342 190.198528 
L 734.103201 191.373095 
L 734.512441 191.715308 
L 734.92168 191.814472 
L 735.1263 191.757547 
L 735.33092 191.559237 
L 735.740159 190.721384 
L 736.354018 189.277946 
L 736.558638 189.086839 
L 736.967877 189.16946 
L 737.581737 189.50586 
L 738.400215 190.118958 
L 738.809455 190.142756 
L 739.627934 189.87894 
L 740.651032 189.801615 
L 741.264892 190.423843 
L 741.469511 190.330668 
L 741.674131 189.939583 
L 742.49261 187.261413 
L 742.69723 187.08697 
L 742.901849 187.225279 
L 743.311089 188.293794 
L 743.720328 189.496727 
L 744.334187 190.329116 
L 744.538807 190.498941 
L 744.743427 190.506265 
L 746.175765 189.251238 
L 747.608103 186.843387 
L 748.017343 186.595983 
L 748.426582 186.538545 
L 748.835821 186.728234 
L 749.245061 187.340934 
L 749.85892 188.382899 
L 750.06354 188.457618 
L 750.472779 188.292165 
L 751.291258 187.733189 
L 752.109737 188.412991 
L 752.518977 188.853239 
L 753.132836 190.202404 
L 754.360554 193.262321 
L 754.769794 193.679906 
L 754.974413 193.660906 
L 755.179033 193.529447 
L 755.588272 192.82851 
L 756.202132 191.430795 
L 756.406751 191.212884 
L 756.611371 191.176975 
L 757.42985 191.698794 
L 757.839089 190.780828 
L 758.248329 189.843256 
L 758.862188 189.484301 
L 759.680667 187.65313 
L 759.885287 187.618177 
L 760.089906 187.752727 
L 760.499146 188.576901 
L 760.908385 189.46778 
L 761.113005 189.550164 
L 761.522245 189.206734 
L 761.931484 188.85544 
L 762.340723 188.947449 
L 763.363822 189.399785 
L 763.773062 190.144152 
L 764.182301 190.831303 
L 765.2054 191.52642 
L 765.614639 191.997585 
L 765.819259 191.982565 
L 766.228498 191.530134 
L 766.637738 191.017653 
L 767.046977 190.996395 
L 767.456217 191.348838 
L 768.070076 192.455723 
L 768.274696 192.551247 
L 769.093174 192.324892 
L 769.502414 192.603293 
L 769.911653 192.506998 
L 770.730132 191.862451 
L 771.343991 191.858881 
L 771.753231 191.601359 
L 772.980949 190.218515 
L 773.185569 190.347749 
L 773.799428 191.311844 
L 774.004048 191.189774 
L 774.617907 190.474341 
L 775.027147 190.201211 
L 775.845625 189.207752 
L 776.050245 189.325941 
L 777.073344 190.720558 
L 777.277964 190.697512 
L 777.482583 190.512681 
L 778.301062 189.120445 
L 779.324161 189.485434 
L 779.7334 189.120193 
L 780.14264 188.783252 
L 780.756499 188.572154 
L 781.165738 188.065132 
L 781.779598 186.98704 
L 782.188837 186.75775 
L 782.393457 186.848238 
L 782.598076 187.102309 
L 783.007316 188.176171 
L 783.416555 189.251487 
L 783.621175 189.463676 
L 783.825795 189.430954 
L 785.053513 188.529726 
L 785.258133 188.520061 
L 785.871992 189.021202 
L 786.076612 188.97316 
L 786.485851 188.630987 
L 786.690471 188.72332 
L 787.09971 189.747848 
L 787.50895 190.789263 
L 787.71357 190.972209 
L 788.327429 191.14918 
L 788.941288 191.672289 
L 789.350527 191.614805 
L 789.759767 191.159892 
L 790.373626 189.889372 
L 791.396725 187.525489 
L 791.601344 187.368601 
L 792.010584 187.664942 
L 792.419823 187.8639 
L 793.033682 187.90904 
L 793.238302 188.049298 
L 793.647542 188.737698 
L 794.056781 189.452713 
L 794.466021 189.793605 
L 794.67064 189.83401 
L 794.87526 189.721878 
L 795.284499 189.030945 
L 795.898359 187.230126 
L 796.307598 186.275083 
L 796.512218 186.304066 
L 796.716838 186.738703 
L 797.535316 189.364732 
L 797.739936 189.385525 
L 798.149176 188.818066 
L 798.558415 188.308701 
L 798.763035 188.415013 
L 799.172274 189.499713 
L 799.581514 190.704503 
L 799.786133 190.876353 
L 800.604612 190.407417 
L 801.218472 191.053996 
L 801.423091 190.89609 
L 801.832331 189.966355 
L 803.060049 186.762176 
L 803.264669 186.660397 
L 803.673908 187.080456 
L 804.901627 188.759723 
L 805.106246 188.641742 
L 805.720106 187.688511 
L 805.924725 187.667222 
L 806.129345 187.908332 
L 806.743204 189.112027 
L 807.152444 189.359869 
L 807.561683 189.245991 
L 807.970923 188.912307 
L 808.380162 187.994202 
L 808.994021 186.211675 
L 809.198641 186.084583 
L 809.403261 186.281942 
L 810.426359 188.297571 
L 810.835599 188.0791 
L 811.244838 187.968489 
L 811.449458 188.106468 
L 812.677176 189.835502 
L 813.086416 190.901811 
L 813.700275 193.149894 
L 813.904895 193.552491 
L 814.109514 193.682514 
L 814.314134 193.58032 
L 814.518754 193.276064 
L 814.927993 192.035386 
L 815.541852 189.513368 
L 815.951092 188.811139 
L 816.360331 188.675974 
L 816.769571 188.604094 
L 816.974191 188.331832 
L 817.792669 186.109191 
L 817.997289 186.100531 
L 818.406529 186.439331 
L 819.020388 186.990973 
L 820.043486 187.722099 
L 820.452726 188.166714 
L 820.657346 188.223704 
L 821.066585 187.877729 
L 821.680444 187.257727 
L 821.885064 187.151588 
L 822.089684 187.190089 
L 822.498923 187.728248 
L 823.112782 188.941326 
L 823.317402 188.969669 
L 823.726641 188.551283 
L 824.74974 186.882895 
L 824.95436 187.101041 
L 825.568219 188.761674 
L 825.977458 189.460169 
L 826.386698 189.488325 
L 826.795937 189.474638 
L 827.409797 189.666995 
L 828.023656 189.418656 
L 828.228275 189.131909 
L 828.637515 187.766865 
L 829.046754 186.175999 
L 829.455994 185.528162 
L 829.865233 185.53445 
L 830.274473 185.817425 
L 830.683712 186.569506 
L 831.911431 189.224221 
L 832.32067 189.386948 
L 832.52529 189.474311 
L 832.729909 189.741776 
L 833.139149 190.773441 
L 833.957628 192.933174 
L 834.366867 193.26013 
L 834.776107 193.249916 
L 835.185346 192.874982 
L 835.594586 192.468196 
L 835.799205 192.444107 
L 836.208445 192.761742 
L 836.413065 192.947316 
L 836.617684 192.946215 
L 836.822304 192.677865 
L 837.436163 191.057959 
L 838.459262 187.772638 
L 838.663882 187.506268 
L 838.868501 187.431794 
L 839.277741 187.624516 
L 840.09622 188.429565 
L 840.505459 188.798712 
L 840.710079 188.847226 
L 840.914699 188.671185 
L 841.937797 186.599691 
L 842.142417 186.59376 
L 842.960896 186.98599 
L 843.370135 187.064214 
L 843.574755 187.26462 
L 844.393234 188.620337 
L 845.211713 188.932414 
L 845.620952 188.96368 
L 846.234811 188.917887 
L 846.848671 189.262151 
L 847.25791 189.861763 
L 847.66715 190.360087 
L 847.871769 190.25367 
L 849.099488 188.566831 
L 849.508727 188.326502 
L 850.327206 188.48323 
L 850.941065 188.414024 
L 851.554924 188.704501 
L 852.168784 189.086957 
L 852.578023 189.000828 
L 852.987262 188.439454 
L 853.396502 187.636702 
L 853.601122 187.473102 
L 853.805741 187.573999 
L 854.214981 187.952431 
L 854.419601 187.87744 
L 854.82884 187.010925 
L 855.238079 186.073954 
L 855.442699 185.915386 
L 855.851939 186.077061 
L 856.465798 186.249156 
L 857.079657 186.25237 
L 857.488896 186.366711 
L 857.898136 186.620126 
L 858.307375 186.663486 
L 858.511995 186.827408 
L 859.535094 188.431278 
L 859.944333 188.426463 
L 860.558192 188.163007 
L 860.967432 188.284842 
L 861.581291 188.644281 
L 861.99053 189.653831 
L 862.60439 191.502832 
L 862.809009 191.692546 
L 863.013629 191.637507 
L 863.218249 191.328567 
L 864.036728 189.364201 
L 864.241347 189.290283 
L 864.855207 189.471182 
L 865.059826 189.429276 
L 865.264446 189.248418 
L 865.673685 188.271703 
L 866.287545 186.5834 
L 866.696784 185.933461 
L 867.515263 185.283064 
L 868.129122 184.611612 
L 868.742981 183.862104 
L 869.152221 183.915305 
L 869.356841 183.980268 
L 869.56146 183.889413 
L 869.9707 183.472776 
L 870.175319 183.441524 
L 871.607658 184.27231 
L 871.812277 184.495761 
L 872.630756 186.230282 
L 872.835376 186.148412 
L 873.653855 184.958754 
L 874.472334 184.50979 
L 875.290813 183.288423 
L 875.700052 183.503647 
L 876.518531 184.212228 
L 877.33701 185.288011 
L 877.950869 185.161338 
L 878.360109 185.509499 
L 878.564728 185.503005 
L 878.769348 185.254729 
L 879.383207 183.959519 
L 879.997066 183.3325 
L 880.406306 182.516829 
L 881.020165 180.693824 
L 882.043264 176.925788 
L 882.452503 175.99694 
L 882.861743 175.625892 
L 883.270982 175.696265 
L 883.680221 175.896084 
L 883.884841 175.862847 
L 884.70332 175.14351 
L 885.521799 175.135869 
L 885.931038 175.486357 
L 886.749517 176.596664 
L 886.954137 176.643314 
L 887.363377 176.282693 
L 889.204954 174.026692 
L 889.409574 174.004139 
L 890.023433 174.525279 
L 890.228053 174.408595 
L 891.046532 172.973507 
L 891.660391 173.073838 
L 891.865011 172.886862 
L 893.297349 170.090156 
L 893.706588 168.197559 
L 894.525067 164.201578 
L 894.729687 163.853338 
L 894.934306 163.839098 
L 895.548166 164.326268 
L 895.957405 164.266983 
L 896.366645 164.047553 
L 896.775884 163.337992 
L 897.185123 162.076716 
L 898.412842 157.470518 
L 899.231321 156.196048 
L 899.64056 154.28307 
L 900.459039 149.637979 
L 901.482138 144.66518 
L 902.095997 139.902411 
L 902.300617 139.233766 
L 902.505236 139.405373 
L 902.914476 141.369584 
L 903.528335 144.247959 
L 904.551434 147.269649 
L 904.756053 147.555027 
L 904.960673 147.610084 
L 905.165293 147.46939 
L 905.574532 146.657672 
L 906.393011 144.304348 
L 906.597631 144.068279 
L 906.802251 144.059284 
L 907.620729 144.652271 
L 907.825349 144.451458 
L 908.234589 143.414966 
L 908.643828 142.263351 
L 908.848448 141.96523 
L 909.053068 141.939877 
L 910.076166 142.866481 
L 910.485406 143.089769 
L 910.690025 142.980334 
L 911.099265 142.296677 
L 911.508504 141.53821 
L 911.713124 141.445634 
L 912.122363 141.805394 
L 912.531603 142.144502 
L 913.145462 141.883757 
L 913.350082 142.044576 
L 913.759321 143.08978 
L 914.37318 145.05014 
L 914.5778 145.233326 
L 914.78242 145.009241 
L 915.191659 143.62476 
L 915.805519 140.270361 
L 916.214758 137.801911 
L 916.419378 137.155116 
L 916.623997 137.228872 
L 916.828617 138.109175 
L 917.647096 144.621162 
L 917.851716 145.206644 
L 918.056336 145.329128 
L 918.260955 145.12726 
L 918.670195 143.928744 
L 919.079434 142.022443 
L 919.488674 138.686931 
L 919.897913 131.193069 
L 920.307153 118.085612 
L 920.921012 98.421438 
L 921.125631 98.10214 
L 921.330251 101.923495 
L 922.35335 131.733081 
L 922.967209 140.337529 
L 923.376448 143.539243 
L 923.785688 145.351219 
L 924.194927 146.423768 
L 924.604167 146.912049 
L 925.013406 146.844515 
L 925.422646 146.75944 
L 926.036505 147.00206 
L 927.264223 147.923096 
L 927.468843 147.939779 
L 927.878082 147.665263 
L 928.287322 147.425541 
L 928.491942 147.486161 
L 929.51504 148.395313 
L 929.92428 148.54606 
L 930.333519 149.154611 
L 930.947378 150.15821 
L 931.151998 150.316551 
L 931.561238 150.24438 
L 931.970477 150.089741 
L 932.175097 150.165608 
L 932.379716 150.479867 
L 932.788956 151.906901 
L 933.198195 153.256555 
L 933.607435 153.92435 
L 934.016674 154.266204 
L 934.221294 154.237568 
L 934.425914 154.017789 
L 934.835153 153.112811 
L 935.244393 151.69555 
L 935.858252 149.418331 
L 936.267491 148.748731 
L 936.676731 148.426183 
L 936.88135 148.472852 
L 937.08597 148.827979 
L 937.49521 150.839434 
L 938.109069 154.794583 
L 938.518308 155.999871 
L 938.927548 156.578862 
L 939.541407 157.266986 
L 940.359886 158.545366 
L 940.769125 158.766325 
L 941.178365 158.700327 
L 941.587604 158.643499 
L 941.792224 158.835133 
L 942.815322 160.486503 
L 943.019942 160.565937 
L 943.224562 160.770816 
L 943.429182 161.281511 
L 943.838421 163.31244 
L 944.247661 165.3985 
L 944.6569 166.249316 
L 946.089238 166.950129 
L 946.907717 166.524885 
L 947.112337 166.675458 
L 947.521576 167.501622 
L 948.953914 171.81897 
L 949.363154 172.116162 
L 949.772393 171.96993 
L 950.386252 171.526254 
L 950.590872 171.596374 
L 950.795492 171.942315 
L 951.81859 175.001811 
L 952.02321 175.122679 
L 952.22783 174.985791 
L 952.841689 173.911236 
L 953.046309 173.877188 
L 953.250929 174.208617 
L 953.864788 175.824149 
L 954.274027 176.141037 
L 954.683267 175.976594 
L 955.297126 175.482502 
L 955.501746 175.498065 
L 955.706365 175.76259 
L 956.115605 176.971547 
L 956.934084 179.91684 
L 957.343323 180.605915 
L 957.547943 180.654061 
L 958.366422 180.216187 
L 958.980281 180.433879 
L 959.38952 180.378878 
L 960.00338 180.176254 
L 960.412619 180.457673 
L 961.026478 181.080877 
L 961.640337 181.256701 
L 962.049577 181.467938 
L 962.458816 181.1082 
L 962.663436 180.899555 
L 962.868056 180.878968 
L 963.072675 181.123412 
L 963.481915 182.308966 
L 964.095774 184.412064 
L 964.300394 184.70163 
L 964.505014 184.736423 
L 964.709633 184.584203 
L 965.118873 183.789281 
L 965.732732 182.198125 
L 965.937352 182.058126 
L 966.141971 182.179352 
L 966.551211 182.975793 
L 966.96045 183.74893 
L 967.574309 184.192509 
L 969.620507 185.405458 
L 969.825126 185.389481 
L 970.029746 185.215106 
L 970.643605 184.279285 
L 970.848225 184.281646 
L 971.257465 184.8464 
L 972.075943 186.403602 
L 972.280563 186.545399 
L 972.689803 186.481718 
L 973.303662 186.32614 
L 973.508282 186.345387 
L 973.712901 186.505382 
L 974.736 188.109305 
L 975.145239 188.055812 
L 975.963718 187.429875 
L 976.372958 186.928637 
L 976.986817 185.796751 
L 977.191437 185.731862 
L 977.396056 185.841899 
L 977.805296 186.44132 
L 978.623775 188.041366 
L 979.442254 188.600812 
L 980.056113 188.444701 
L 980.465352 188.910509 
L 980.874592 189.335548 
L 981.89769 189.75293 
L 982.10231 189.590297 
L 982.511549 188.814105 
L 983.330028 186.792964 
L 983.739268 186.439452 
L 983.943888 186.553872 
L 984.353127 187.354794 
L 984.762366 188.326577 
L 985.171606 188.740063 
L 986.399324 189.372004 
L 986.808564 189.186807 
L 987.217803 189.080858 
L 987.627043 189.391646 
L 988.650141 190.407606 
L 988.854761 190.304402 
L 989.87786 188.96752 
L 990.287099 188.96192 
L 991.105578 188.593768 
L 991.310198 188.865658 
L 992.128677 190.460822 
L 992.333296 190.33119 
L 992.742536 189.808003 
L 992.947156 189.728712 
L 993.356395 189.974025 
L 994.174874 190.396676 
L 994.584113 190.377261 
L 994.993353 190.056425 
L 996.016451 188.983535 
L 996.425691 189.105194 
L 996.630311 189.326476 
L 997.03955 190.293775 
L 997.858029 192.425629 
L 998.267268 192.9574 
L 998.471888 193.010105 
L 998.676508 192.900072 
L 999.494987 191.806355 
L 999.904226 191.628511 
L 1000.313466 191.083981 
L 1000.722705 190.313295 
L 1001.131945 190.045503 
L 1001.336564 190.072229 
L 1001.745804 190.491378 
L 1002.359663 191.348703 
L 1002.768902 191.543456 
L 1003.382762 191.471294 
L 1003.792001 191.435051 
L 1004.40586 191.653063 
L 1004.8151 191.226582 
L 1005.428959 190.525826 
L 1005.838198 190.361965 
L 1006.042818 190.06632 
L 1006.656677 188.438777 
L 1006.861297 188.353363 
L 1007.679776 188.830682 
L 1008.293635 188.789273 
L 1008.702875 189.144963 
L 1009.316734 189.843257 
L 1010.135213 189.903158 
L 1010.544452 190.892594 
L 1011.158311 192.349718 
L 1011.362931 192.581088 
L 1011.567551 192.630525 
L 1011.77217 192.469973 
L 1012.18141 191.624152 
L 1013.613748 188.095897 
L 1014.022987 187.910472 
L 1014.432227 187.791986 
L 1014.841466 187.217669 
L 1015.659945 185.932209 
L 1016.069185 185.531969 
L 1016.478424 185.465054 
L 1016.887664 185.638271 
L 1017.296903 186.001742 
L 1017.706142 186.589596 
L 1018.115382 187.609637 
L 1018.729241 189.371578 
L 1019.138481 190.006483 
L 1019.3431 190.022474 
L 1019.75234 189.547345 
L 1020.775438 187.493822 
L 1020.980058 187.532265 
L 1021.389298 188.176805 
L 1021.798537 188.835037 
L 1022.412396 189.305995 
L 1023.230875 189.663026 
L 1023.640115 190.44439 
L 1023.844734 190.614639 
L 1024.049354 190.476165 
L 1024.458593 189.294306 
L 1024.867833 187.819679 
L 1025.072453 187.543555 
L 1025.277072 187.635041 
L 1026.095551 188.93536 
L 1026.300171 188.865178 
L 1026.70941 188.041158 
L 1027.11865 187.110741 
L 1027.32327 186.874055 
L 1027.527889 186.850512 
L 1027.732509 187.015795 
L 1028.141749 187.750861 
L 1028.755608 189.679244 
L 1029.164847 190.847036 
L 1029.574087 191.326755 
L 1029.778706 191.253841 
L 1030.597185 190.070044 
L 1031.211044 189.018149 
L 1031.824904 187.81037 
L 1032.234143 187.443624 
L 1033.052622 187.549057 
L 1033.461861 187.983632 
L 1034.075721 188.663664 
L 1034.28034 188.640889 
L 1035.098819 188.173863 
L 1035.303439 188.286091 
L 1035.712678 189.037697 
L 1036.121918 189.725738 
L 1036.326538 189.66412 
L 1036.940397 189.061873 
L 1037.963495 189.028358 
L 1038.986594 188.979428 
L 1039.395834 189.274662 
L 1039.805073 189.656221 
L 1040.214312 189.625241 
L 1040.828172 189.27246 
L 1041.646651 188.232402 
L 1041.85127 188.202421 
L 1042.26051 188.485771 
L 1043.078989 189.446385 
L 1043.897468 190.252824 
L 1044.511327 191.34721 
L 1045.329806 193.253539 
L 1045.534425 193.277796 
L 1045.739045 192.986797 
L 1046.557524 190.714571 
L 1047.376003 188.026528 
L 1047.785242 187.669356 
L 1048.194482 187.702585 
L 1048.603721 188.250412 
L 1049.012961 188.721131 
L 1049.21758 188.589143 
L 1049.62682 187.74344 
L 1050.036059 186.787989 
L 1050.240679 186.629415 
L 1050.445299 186.825186 
L 1050.854538 188.24528 
L 1051.468397 190.592177 
L 1052.082257 191.491871 
L 1052.286876 191.635884 
L 1052.491496 191.531997 
L 1053.105355 190.365209 
L 1053.923834 188.905462 
L 1054.128454 188.665422 
L 1054.333074 188.658834 
L 1054.742313 189.349564 
L 1055.151552 189.858023 
L 1055.356172 189.807292 
L 1055.765412 189.305169 
L 1056.174651 188.629007 
L 1056.379271 188.520071 
L 1056.583891 188.681405 
L 1057.402369 189.939246 
L 1057.811609 190.547114 
L 1058.425468 191.815109 
L 1058.834708 191.995913 
L 1059.448567 191.845696 
L 1060.471665 192.147137 
L 1061.085525 192.645758 
L 1061.290144 192.539231 
L 1061.699384 191.753275 
L 1062.313243 190.585399 
L 1062.517863 190.488568 
L 1062.927102 190.84967 
L 1063.336342 191.191656 
L 1064.15482 191.438608 
L 1064.973299 192.18547 
L 1065.177919 192.149177 
L 1065.587159 191.640916 
L 1066.201018 190.096368 
L 1066.814877 188.657083 
L 1067.019497 188.574586 
L 1067.428736 188.948934 
L 1067.837976 189.600234 
L 1068.247215 190.73292 
L 1068.656454 192.121201 
L 1068.861074 192.516497 
L 1069.065694 192.605045 
L 1069.270314 192.425583 
L 1069.679553 191.415142 
L 1070.293412 189.727619 
L 1070.702652 189.264957 
L 1071.111891 189.21099 
L 1071.316511 189.310508 
L 1071.72575 189.900285 
L 1072.33961 190.815227 
L 1072.748849 190.942713 
L 1073.158088 190.868357 
L 1073.567328 190.556721 
L 1074.181187 189.977463 
L 1074.385807 189.981726 
L 1074.590427 190.236487 
L 1075.204286 191.639004 
L 1075.408905 191.801413 
L 1075.613525 191.748449 
L 1076.227384 191.111698 
L 1076.841244 190.275558 
L 1077.659722 188.646731 
L 1078.068962 188.318579 
L 1078.478201 187.997032 
L 1078.887441 187.578909 
L 1079.29668 187.554796 
L 1079.910539 187.824979 
L 1080.729018 187.593425 
L 1081.138258 188.246479 
L 1081.547497 188.851748 
L 1081.956737 188.94403 
L 1082.365976 188.898319 
L 1082.775216 188.933274 
L 1083.184455 188.927774 
L 1086.86761 191.536907 
L 1087.890709 191.586726 
L 1088.913807 190.649975 
L 1089.527667 190.627527 
L 1089.936906 190.907545 
L 1090.755385 192.203648 
L 1091.164624 192.293696 
L 1091.778484 192.046603 
L 1092.187723 192.008284 
L 1092.596962 192.200683 
L 1092.801582 192.154297 
L 1093.210822 191.840578 
L 1093.415441 191.851742 
L 1094.029301 192.553391 
L 1094.23392 192.441047 
L 1094.64316 191.572221 
L 1095.461639 189.39068 
L 1096.075498 188.593702 
L 1096.893977 187.997897 
L 1097.303216 187.89359 
L 1097.712456 188.12072 
L 1098.326315 188.690618 
L 1099.144794 189.925721 
L 1099.554033 190.049664 
L 1100.372512 189.990942 
L 1101.190991 189.647746 
L 1101.395611 189.776809 
L 1102.00947 190.576144 
L 1102.827949 190.818758 
L 1103.441808 190.641184 
L 1104.055667 190.936734 
L 1104.260287 190.662767 
L 1104.874146 189.227291 
L 1105.078766 189.077981 
L 1105.283386 189.206612 
L 1106.306484 190.748012 
L 1106.511104 190.763144 
L 1106.715724 190.526974 
L 1107.124963 189.221462 
L 1107.943442 186.08543 
L 1108.148062 185.862687 
L 1108.352681 185.956157 
L 1108.966541 187.024193 
L 1109.37578 187.685912 
L 1109.5804 187.827111 
L 1110.398879 187.800358 
L 1110.808118 188.479182 
L 1111.626597 190.104663 
L 1111.831217 190.325371 
L 1112.240456 190.316423 
L 1112.854315 190.028161 
L 1113.672794 189.257566 
L 1113.877414 189.298304 
L 1114.900513 190.310743 
L 1115.514372 190.335778 
L 1116.128231 190.329545 
L 1116.74209 190.873598 
L 1116.94671 190.843528 
L 1117.15133 190.570595 
L 1118.379048 187.498736 
L 1119.197527 184.761584 
L 1119.402147 184.671744 
L 1119.811386 185.161909 
L 1121.448344 187.358177 
L 1121.652964 187.41677 
L 1122.266823 187.167848 
L 1122.676062 186.741747 
L 1123.289922 185.528844 
L 1123.494541 185.391727 
L 1123.699161 185.545774 
L 1124.1084 186.619605 
L 1124.51764 187.654909 
L 1124.926879 187.894562 
L 1125.336119 187.897493 
L 1125.540739 188.016799 
L 1125.949978 188.775181 
L 1126.973077 191.459754 
L 1127.382316 191.740381 
L 1127.791556 191.565669 
L 1128.200795 191.395236 
L 1129.019274 191.354648 
L 1129.223894 191.433215 
L 1129.428513 191.388109 
L 1129.633133 191.118424 
L 1130.656232 189.002348 
L 1131.270091 188.049969 
L 1132.08857 186.327913 
L 1132.293189 186.14924 
L 1132.497809 186.142606 
L 1132.907049 186.612873 
L 1133.520908 188.0356 
L 1134.134767 189.206868 
L 1134.544006 189.530355 
L 1134.953246 189.60941 
L 1135.362485 189.653338 
L 1135.771725 189.914988 
L 1136.180964 190.599463 
L 1136.794823 191.904125 
L 1136.999443 192.038391 
L 1137.204063 191.864738 
L 1137.613302 190.74606 
L 1138.227162 188.790204 
L 1138.431781 188.409706 
L 1138.636401 188.300165 
L 1138.841021 188.474882 
L 1139.6595 189.837198 
L 1140.273359 190.383659 
L 1140.477979 190.425572 
L 1140.682598 190.343373 
L 1141.091838 189.736219 
L 1141.501077 188.890109 
L 1141.705697 188.680088 
L 1141.910317 188.659584 
L 1142.114936 188.822868 
L 1142.524176 189.686934 
L 1143.138035 190.960591 
L 1143.547274 191.362636 
L 1144.161134 191.627455 
L 1144.570373 191.471083 
L 1146.82119 189.769626 
L 1147.02581 189.856462 
L 1147.844289 191.054135 
L 1148.048908 191.100253 
L 1148.253528 190.947792 
L 1148.662768 190.181459 
L 1149.481247 188.215217 
L 1150.504345 186.891101 
L 1150.913585 186.620304 
L 1151.322824 186.895178 
L 1152.345923 187.914927 
L 1153.778261 190.129604 
L 1153.982881 190.135916 
L 1154.1875 189.824185 
L 1155.005979 187.95168 
L 1155.210599 187.922045 
L 1155.415219 188.193043 
L 1156.642937 191.155735 
L 1157.052176 191.903915 
L 1157.461416 192.943956 
L 1157.666036 193.207952 
L 1157.870655 193.188393 
L 1158.075275 192.887512 
L 1158.893754 191.059656 
L 1159.712233 190.613458 
L 1160.121472 189.808704 
L 1160.530712 188.894976 
L 1160.939951 188.525886 
L 1161.349191 188.625411 
L 1161.75843 189.220823 
L 1162.16767 189.881205 
L 1162.372289 189.983477 
L 1162.781529 189.844409 
L 1163.395388 189.52407 
L 1163.804627 189.804786 
L 1164.213867 190.100183 
L 1164.418487 190.07918 
L 1165.032346 189.583546 
L 1165.441585 189.632832 
L 1165.646205 189.491044 
L 1166.055444 188.887962 
L 1166.260064 188.842119 
L 1166.464684 189.077405 
L 1166.873923 190.035688 
L 1167.487783 191.513599 
L 1167.692402 191.623328 
L 1167.897022 191.47427 
L 1168.306261 190.466502 
L 1169.32936 186.62401 
L 1169.53398 186.448232 
L 1169.738599 186.576369 
L 1170.147839 187.665322 
L 1170.966318 190.572738 
L 1171.375557 191.520773 
L 1171.580177 191.73315 
L 1171.784797 191.692369 
L 1172.603276 190.969503 
L 1173.421755 190.654742 
L 1173.830994 190.352298 
L 1174.035614 190.337674 
L 1174.240233 190.469285 
L 1174.649473 191.203485 
L 1175.467952 193.021304 
L 1175.672572 192.956997 
L 1176.081811 192.135648 
L 1176.90029 190.149194 
L 1177.10491 189.996168 
L 1177.309529 190.117387 
L 1177.718769 190.99281 
L 1178.332628 192.237875 
L 1178.537248 192.421151 
L 1178.741867 192.404087 
L 1179.151107 191.807723 
L 1180.583445 189.020267 
L 1180.992684 188.612632 
L 1181.197304 188.586102 
L 1181.401924 188.767376 
L 1182.220403 190.214954 
L 1182.629642 190.349298 
L 1183.038882 190.912657 
L 1183.652741 192.193778 
L 1183.857361 192.387489 
L 1184.06198 192.375966 
L 1184.2666 192.179281 
L 1184.880459 190.860954 
L 1184.880459 190.860954 
" clip-path="url(#p73368d59bc)" style="fill: none; stroke: #000000; stroke-width: 2; stroke-linecap: square"/>
   </g>
   <g id="patch_3">
    <path d="M 3.00024 198.907885 
L 1184.99976 198.907885 
" style="fill: none; stroke: #000000; stroke-width: 2; stroke-linejoin: miter; stroke-linecap: square"/>
   </g>
  </g>
 </g>
 <defs>
  <clipPath id="p73368d59bc">
   <rect x="3.00024" y="3.00024" width="1181.99952" height="195.907645"/>
  </clipPath>
 </defs>
</svg>
