<?xml version="1.0" encoding="utf-8" standalone="no"?>
<!DOCTYPE svg PUBLIC "-//W3C//DTD SVG 1.1//EN"
  "http://www.w3.org/Graphics/SVG/1.1/DTD/svg11.dtd">
<svg xmlns:xlink="http://www.w3.org/1999/xlink" width="1188pt" height="252pt" viewBox="0 0 1188 252" xmlns="http://www.w3.org/2000/svg" version="1.1">
 <metadata>
  <rdf:RDF xmlns:dc="http://purl.org/dc/elements/1.1/" xmlns:cc="http://creativecommons.org/ns#" xmlns:rdf="http://www.w3.org/1999/02/22-rdf-syntax-ns#">
   <cc:Work>
    <dc:type rdf:resource="http://purl.org/dc/dcmitype/StillImage"/>
    <dc:date>2024-05-14T22:49:05.620028</dc:date>
    <dc:format>image/svg+xml</dc:format>
    <dc:creator>
     <cc:Agent>
      <dc:title>Matplotlib v3.8.0, https://matplotlib.org/</dc:title>
     </cc:Agent>
    </dc:creator>
   </cc:Work>
  </rdf:RDF>
 </metadata>
 <defs>
  <style type="text/css">*{stroke-linejoin: round; stroke-linecap: butt}</style>
 </defs>
 <g id="figure_1">
  <g id="patch_1">
   <path d="M 0 252 
L 1188 252 
L 1188 0 
L 0 0 
z
" style="fill: #ffffff"/>
  </g>
  <g id="axes_1">
   <g id="patch_2">
    <path d="M 61.69274 199.12726 
L 1184.99976 199.12726 
L 1184.99976 3.00024 
L 61.69274 3.00024 
z
" style="fill: #ffffff"/>
   </g>
   <g id="PolyCollection_1">
    <path d="M 630.437848 175.521349 
L 630.437848 174.525058 
L 630.721491 174.525058 
L 631.005174 174.525058 
L 631.288817 174.525058 
L 631.572501 174.525058 
L 631.856144 174.525058 
L 632.139827 174.525058 
L 632.42347 174.525058 
L 632.707153 174.525058 
L 632.990796 174.525058 
L 633.274479 174.525058 
L 633.558122 174.525058 
L 633.841806 174.525058 
L 634.125448 174.525058 
L 634.409132 174.525058 
L 634.692775 174.525058 
L 634.976458 174.525058 
L 635.260101 174.525058 
L 635.543784 174.525058 
L 635.827427 174.525058 
L 636.111111 174.525058 
L 636.394753 174.525058 
L 636.678437 174.525058 
L 636.96208 174.525058 
L 637.245763 174.525058 
L 637.529406 174.525058 
L 637.813089 174.525058 
L 638.096732 174.525058 
L 638.380416 174.525058 
L 638.664058 174.525058 
L 638.947742 174.525058 
L 639.231385 174.525058 
L 639.515068 174.525058 
L 639.798711 174.525058 
L 640.082394 174.525058 
L 640.366037 174.525058 
L 640.649721 174.525058 
L 640.933363 174.525058 
L 641.217047 174.525058 
L 641.50069 174.525058 
L 641.784373 174.525058 
L 642.068016 174.525058 
L 642.351699 174.525058 
L 642.635342 174.525058 
L 642.919025 174.525058 
L 643.202668 174.525058 
L 643.486352 174.525058 
L 643.769995 174.525058 
L 644.053678 174.525058 
L 644.337321 174.525058 
L 644.621004 174.525058 
L 644.904688 174.525058 
L 645.18833 174.525058 
L 645.472014 174.525058 
L 645.755657 174.525058 
L 646.03934 174.525058 
L 646.322983 174.525058 
L 646.606666 174.525058 
L 646.890309 174.525058 
L 647.173993 174.525058 
L 647.457635 174.525058 
L 647.741319 174.525058 
L 648.024962 174.525058 
L 648.308645 174.525058 
L 648.592288 174.525058 
L 648.875971 174.525058 
L 648.875971 173.888402 
L 648.875971 173.888402 
L 648.592288 173.176912 
L 648.308645 172.383066 
L 648.024962 171.496041 
L 647.741319 170.503667 
L 647.457635 169.392063 
L 647.173993 168.148486 
L 646.890309 166.757881 
L 646.606666 165.204291 
L 646.322983 163.471281 
L 646.03934 161.541183 
L 645.755657 159.395998 
L 645.472014 157.015837 
L 645.18833 154.382199 
L 644.904688 151.477112 
L 644.621004 148.282978 
L 644.337321 144.782653 
L 644.053678 140.965097 
L 643.769995 136.820221 
L 643.486352 132.341265 
L 643.202668 127.529663 
L 642.919025 122.393522 
L 642.635342 116.948109 
L 642.351699 111.217968 
L 642.068016 105.241326 
L 641.784373 99.063285 
L 641.50069 92.737062 
L 641.217047 86.336565 
L 640.933363 79.936207 
L 640.649721 73.610824 
L 640.366037 67.468354 
L 640.082394 61.593783 
L 639.798711 56.042944 
L 639.515068 50.900596 
L 639.231385 46.239831 
L 638.947742 42.049536 
L 638.664058 38.384996 
L 638.380416 35.262143 
L 638.096732 32.668383 
L 637.813089 30.579318 
L 637.529406 29.02658 
L 637.245763 27.947748 
L 636.96208 27.353124 
L 636.678437 27.264488 
L 636.394753 27.706623 
L 636.111111 28.698876 
L 635.827427 30.333694 
L 635.543784 32.70391 
L 635.260101 35.854969 
L 634.976458 39.891968 
L 634.692775 44.923028 
L 634.409132 51.026461 
L 634.125448 58.226468 
L 633.841806 66.553292 
L 633.558122 75.925058 
L 633.274479 86.192226 
L 632.990796 97.115249 
L 632.707153 108.408345 
L 632.42347 119.728427 
L 632.139827 130.72714 
L 631.856144 141.062865 
L 631.572501 150.450938 
L 631.288817 158.670173 
L 631.005174 165.593608 
L 630.721491 171.190937 
L 630.437848 175.521349 
z
" clip-path="url(#p15365adbb6)" style="fill: #d55e00"/>
   </g>
   <g id="PathCollection_1">
    <defs>
     <path id="m17ce847093" d="M 0 -6.708204 
L -1.506086 -2.072949 
L -6.379881 -2.072949 
L -2.436898 0.791796 
L -3.942983 5.427051 
L -0 2.562306 
L 3.942983 5.427051 
L 2.436898 0.791796 
L 6.379881 -2.072949 
L 1.506086 -2.072949 
z
" style="stroke: #000000; stroke-width: 1.5"/>
    </defs>
    <g clip-path="url(#p15365adbb6)">
     <use xlink:href="#m17ce847093" x="636.962093" y="11.915105" style="stroke: #000000; stroke-width: 1.5"/>
    </g>
   </g>
   <g id="matplotlib.axis_1">
    <g id="xtick_1">
     <g id="line2d_1">
      <defs>
       <path id="m9d5256cfa9" d="M 0 0 
L 0 8 
" style="stroke: #000000; stroke-width: 2"/>
      </defs>
      <g>
       <use xlink:href="#m9d5256cfa9" x="112.75215" y="199.12726" style="stroke: #000000; stroke-width: 2"/>
      </g>
     </g>
     <g id="text_1">
      <!-- 0.0 -->
      <g transform="translate(100.24215 225.011323) scale(0.18 -0.18)">
       <defs>
        <path id="Arial-BoldMT-30" d="M 1756 4600 
Q 2422 4600 2797 4125 
Q 3244 3563 3244 2259 
Q 3244 959 2794 391 
Q 2422 -78 1756 -78 
Q 1088 -78 678 436 
Q 269 950 269 2269 
Q 269 3563 719 4131 
Q 1091 4600 1756 4600 
z
M 1756 3872 
Q 1597 3872 1472 3770 
Q 1347 3669 1278 3406 
Q 1188 3066 1188 2259 
Q 1188 1453 1269 1151 
Q 1350 850 1473 750 
Q 1597 650 1756 650 
Q 1916 650 2041 751 
Q 2166 853 2234 1116 
Q 2325 1453 2325 2259 
Q 2325 3066 2244 3367 
Q 2163 3669 2039 3770 
Q 1916 3872 1756 3872 
z
" transform="scale(0.015625)"/>
        <path id="Arial-BoldMT-2e" d="M 459 0 
L 459 878 
L 1338 878 
L 1338 0 
L 459 0 
z
" transform="scale(0.015625)"/>
       </defs>
       <use xlink:href="#Arial-BoldMT-30"/>
       <use xlink:href="#Arial-BoldMT-2e" x="55.615234"/>
       <use xlink:href="#Arial-BoldMT-30" x="83.398438"/>
      </g>
     </g>
    </g>
    <g id="xtick_2">
     <g id="line2d_2">
      <g>
       <use xlink:href="#m9d5256cfa9" x="282.950183" y="199.12726" style="stroke: #000000; stroke-width: 2"/>
      </g>
     </g>
     <g id="text_2">
      <!-- 0.5 -->
      <g transform="translate(270.440183 225.011323) scale(0.18 -0.18)">
       <defs>
        <path id="Arial-BoldMT-35" d="M 284 1178 
L 1159 1269 
Q 1197 972 1381 798 
Q 1566 625 1806 625 
Q 2081 625 2272 848 
Q 2463 1072 2463 1522 
Q 2463 1944 2273 2155 
Q 2084 2366 1781 2366 
Q 1403 2366 1103 2031 
L 391 2134 
L 841 4519 
L 3163 4519 
L 3163 3697 
L 1506 3697 
L 1369 2919 
Q 1663 3066 1969 3066 
Q 2553 3066 2959 2641 
Q 3366 2216 3366 1538 
Q 3366 972 3038 528 
Q 2591 -78 1797 -78 
Q 1163 -78 763 262 
Q 363 603 284 1178 
z
" transform="scale(0.015625)"/>
       </defs>
       <use xlink:href="#Arial-BoldMT-30"/>
       <use xlink:href="#Arial-BoldMT-2e" x="55.615234"/>
       <use xlink:href="#Arial-BoldMT-35" x="83.398438"/>
      </g>
     </g>
    </g>
    <g id="xtick_3">
     <g id="line2d_3">
      <g>
       <use xlink:href="#m9d5256cfa9" x="453.148217" y="199.12726" style="stroke: #000000; stroke-width: 2"/>
      </g>
     </g>
     <g id="text_3">
      <!-- 1.0 -->
      <g transform="translate(440.638217 225.011323) scale(0.18 -0.18)">
       <defs>
        <path id="Arial-BoldMT-31" d="M 2519 0 
L 1641 0 
L 1641 3309 
Q 1159 2859 506 2644 
L 506 3441 
Q 850 3553 1253 3867 
Q 1656 4181 1806 4600 
L 2519 4600 
L 2519 0 
z
" transform="scale(0.015625)"/>
       </defs>
       <use xlink:href="#Arial-BoldMT-31"/>
       <use xlink:href="#Arial-BoldMT-2e" x="55.615234"/>
       <use xlink:href="#Arial-BoldMT-30" x="83.398438"/>
      </g>
     </g>
    </g>
    <g id="xtick_4">
     <g id="line2d_4">
      <g>
       <use xlink:href="#m9d5256cfa9" x="623.34625" y="199.12726" style="stroke: #000000; stroke-width: 2"/>
      </g>
     </g>
     <g id="text_4">
      <!-- 1.5 -->
      <g transform="translate(610.83625 225.011323) scale(0.18 -0.18)">
       <use xlink:href="#Arial-BoldMT-31"/>
       <use xlink:href="#Arial-BoldMT-2e" x="55.615234"/>
       <use xlink:href="#Arial-BoldMT-35" x="83.398438"/>
      </g>
     </g>
    </g>
    <g id="xtick_5">
     <g id="line2d_5">
      <g>
       <use xlink:href="#m9d5256cfa9" x="793.544283" y="199.12726" style="stroke: #000000; stroke-width: 2"/>
      </g>
     </g>
     <g id="text_5">
      <!-- 2.0 -->
      <g transform="translate(781.034283 225.011323) scale(0.18 -0.18)">
       <defs>
        <path id="Arial-BoldMT-32" d="M 3238 816 
L 3238 0 
L 159 0 
Q 209 463 459 877 
Q 709 1291 1447 1975 
Q 2041 2528 2175 2725 
Q 2356 2997 2356 3263 
Q 2356 3556 2198 3714 
Q 2041 3872 1763 3872 
Q 1488 3872 1325 3706 
Q 1163 3541 1138 3156 
L 263 3244 
Q 341 3969 753 4284 
Q 1166 4600 1784 4600 
Q 2463 4600 2850 4234 
Q 3238 3869 3238 3325 
Q 3238 3016 3127 2736 
Q 3016 2456 2775 2150 
Q 2616 1947 2200 1565 
Q 1784 1184 1673 1059 
Q 1563 934 1494 816 
L 3238 816 
z
" transform="scale(0.015625)"/>
       </defs>
       <use xlink:href="#Arial-BoldMT-32"/>
       <use xlink:href="#Arial-BoldMT-2e" x="55.615234"/>
       <use xlink:href="#Arial-BoldMT-30" x="83.398438"/>
      </g>
     </g>
    </g>
    <g id="xtick_6">
     <g id="line2d_6">
      <g>
       <use xlink:href="#m9d5256cfa9" x="963.742317" y="199.12726" style="stroke: #000000; stroke-width: 2"/>
      </g>
     </g>
     <g id="text_6">
      <!-- 2.5 -->
      <g transform="translate(951.232317 225.011323) scale(0.18 -0.18)">
       <use xlink:href="#Arial-BoldMT-32"/>
       <use xlink:href="#Arial-BoldMT-2e" x="55.615234"/>
       <use xlink:href="#Arial-BoldMT-35" x="83.398438"/>
      </g>
     </g>
    </g>
    <g id="xtick_7">
     <g id="line2d_7">
      <g>
       <use xlink:href="#m9d5256cfa9" x="1133.94035" y="199.12726" style="stroke: #000000; stroke-width: 2"/>
      </g>
     </g>
     <g id="text_7">
      <!-- 3.0 -->
      <g transform="translate(1121.43035 225.011323) scale(0.18 -0.18)">
       <defs>
        <path id="Arial-BoldMT-33" d="M 241 1216 
L 1091 1319 
Q 1131 994 1309 822 
Q 1488 650 1741 650 
Q 2013 650 2198 856 
Q 2384 1063 2384 1413 
Q 2384 1744 2206 1937 
Q 2028 2131 1772 2131 
Q 1603 2131 1369 2066 
L 1466 2781 
Q 1822 2772 2009 2936 
Q 2197 3100 2197 3372 
Q 2197 3603 2059 3740 
Q 1922 3878 1694 3878 
Q 1469 3878 1309 3722 
Q 1150 3566 1116 3266 
L 306 3403 
Q 391 3819 561 4067 
Q 731 4316 1036 4458 
Q 1341 4600 1719 4600 
Q 2366 4600 2756 4188 
Q 3078 3850 3078 3425 
Q 3078 2822 2419 2463 
Q 2813 2378 3048 2084 
Q 3284 1791 3284 1375 
Q 3284 772 2843 347 
Q 2403 -78 1747 -78 
Q 1125 -78 715 280 
Q 306 638 241 1216 
z
" transform="scale(0.015625)"/>
       </defs>
       <use xlink:href="#Arial-BoldMT-33"/>
       <use xlink:href="#Arial-BoldMT-2e" x="55.615234"/>
       <use xlink:href="#Arial-BoldMT-30" x="83.398438"/>
      </g>
     </g>
    </g>
    <g id="text_8">
     <!-- Retention time / min -->
     <g transform="translate(537.345625 245.447573) scale(0.18 -0.18)">
      <defs>
       <path id="Arial-BoldMT-52" d="M 469 0 
L 469 4581 
L 2416 4581 
Q 3150 4581 3483 4457 
Q 3816 4334 4016 4018 
Q 4216 3703 4216 3297 
Q 4216 2781 3912 2445 
Q 3609 2109 3006 2022 
Q 3306 1847 3501 1637 
Q 3697 1428 4028 894 
L 4588 0 
L 3481 0 
L 2813 997 
Q 2456 1531 2325 1670 
Q 2194 1809 2047 1861 
Q 1900 1913 1581 1913 
L 1394 1913 
L 1394 0 
L 469 0 
z
M 1394 2644 
L 2078 2644 
Q 2744 2644 2909 2700 
Q 3075 2756 3169 2893 
Q 3263 3031 3263 3238 
Q 3263 3469 3139 3611 
Q 3016 3753 2791 3791 
Q 2678 3806 2116 3806 
L 1394 3806 
L 1394 2644 
z
" transform="scale(0.015625)"/>
       <path id="Arial-BoldMT-65" d="M 2381 1056 
L 3256 909 
Q 3088 428 2723 176 
Q 2359 -75 1813 -75 
Q 947 -75 531 491 
Q 203 944 203 1634 
Q 203 2459 634 2926 
Q 1066 3394 1725 3394 
Q 2466 3394 2894 2905 
Q 3322 2416 3303 1406 
L 1103 1406 
Q 1113 1016 1316 798 
Q 1519 581 1822 581 
Q 2028 581 2168 693 
Q 2309 806 2381 1056 
z
M 2431 1944 
Q 2422 2325 2234 2523 
Q 2047 2722 1778 2722 
Q 1491 2722 1303 2513 
Q 1116 2303 1119 1944 
L 2431 1944 
z
" transform="scale(0.015625)"/>
       <path id="Arial-BoldMT-74" d="M 1981 3319 
L 1981 2619 
L 1381 2619 
L 1381 1281 
Q 1381 875 1398 808 
Q 1416 741 1477 697 
Q 1538 653 1625 653 
Q 1747 653 1978 738 
L 2053 56 
Q 1747 -75 1359 -75 
Q 1122 -75 931 4 
Q 741 84 652 211 
Q 563 338 528 553 
Q 500 706 500 1172 
L 500 2619 
L 97 2619 
L 97 3319 
L 500 3319 
L 500 3978 
L 1381 4491 
L 1381 3319 
L 1981 3319 
z
" transform="scale(0.015625)"/>
       <path id="Arial-BoldMT-6e" d="M 3478 0 
L 2600 0 
L 2600 1694 
Q 2600 2231 2544 2389 
Q 2488 2547 2361 2634 
Q 2234 2722 2056 2722 
Q 1828 2722 1647 2597 
Q 1466 2472 1398 2265 
Q 1331 2059 1331 1503 
L 1331 0 
L 453 0 
L 453 3319 
L 1269 3319 
L 1269 2831 
Q 1703 3394 2363 3394 
Q 2653 3394 2893 3289 
Q 3134 3184 3257 3021 
Q 3381 2859 3429 2653 
Q 3478 2447 3478 2063 
L 3478 0 
z
" transform="scale(0.015625)"/>
       <path id="Arial-BoldMT-69" d="M 459 3769 
L 459 4581 
L 1338 4581 
L 1338 3769 
L 459 3769 
z
M 459 0 
L 459 3319 
L 1338 3319 
L 1338 0 
L 459 0 
z
" transform="scale(0.015625)"/>
       <path id="Arial-BoldMT-6f" d="M 256 1706 
Q 256 2144 472 2553 
Q 688 2963 1083 3178 
Q 1478 3394 1966 3394 
Q 2719 3394 3200 2905 
Q 3681 2416 3681 1669 
Q 3681 916 3195 420 
Q 2709 -75 1972 -75 
Q 1516 -75 1102 131 
Q 688 338 472 736 
Q 256 1134 256 1706 
z
M 1156 1659 
Q 1156 1166 1390 903 
Q 1625 641 1969 641 
Q 2313 641 2545 903 
Q 2778 1166 2778 1666 
Q 2778 2153 2545 2415 
Q 2313 2678 1969 2678 
Q 1625 2678 1390 2415 
Q 1156 2153 1156 1659 
z
" transform="scale(0.015625)"/>
       <path id="Arial-BoldMT-20" transform="scale(0.015625)"/>
       <path id="Arial-BoldMT-6d" d="M 394 3319 
L 1203 3319 
L 1203 2866 
Q 1638 3394 2238 3394 
Q 2556 3394 2790 3262 
Q 3025 3131 3175 2866 
Q 3394 3131 3647 3262 
Q 3900 3394 4188 3394 
Q 4553 3394 4806 3245 
Q 5059 3097 5184 2809 
Q 5275 2597 5275 2122 
L 5275 0 
L 4397 0 
L 4397 1897 
Q 4397 2391 4306 2534 
Q 4184 2722 3931 2722 
Q 3747 2722 3584 2609 
Q 3422 2497 3350 2280 
Q 3278 2063 3278 1594 
L 3278 0 
L 2400 0 
L 2400 1819 
Q 2400 2303 2353 2443 
Q 2306 2584 2207 2653 
Q 2109 2722 1941 2722 
Q 1738 2722 1575 2612 
Q 1413 2503 1342 2297 
Q 1272 2091 1272 1613 
L 1272 0 
L 394 0 
L 394 3319 
z
" transform="scale(0.015625)"/>
       <path id="Arial-BoldMT-2f" d="M -9 -78 
L 1125 4659 
L 1784 4659 
L 638 -78 
L -9 -78 
z
" transform="scale(0.015625)"/>
      </defs>
      <use xlink:href="#Arial-BoldMT-52"/>
      <use xlink:href="#Arial-BoldMT-65" x="72.216797"/>
      <use xlink:href="#Arial-BoldMT-74" x="127.832031"/>
      <use xlink:href="#Arial-BoldMT-65" x="161.132812"/>
      <use xlink:href="#Arial-BoldMT-6e" x="216.748047"/>
      <use xlink:href="#Arial-BoldMT-74" x="277.832031"/>
      <use xlink:href="#Arial-BoldMT-69" x="311.132812"/>
      <use xlink:href="#Arial-BoldMT-6f" x="338.916016"/>
      <use xlink:href="#Arial-BoldMT-6e" x="400"/>
      <use xlink:href="#Arial-BoldMT-20" x="461.083984"/>
      <use xlink:href="#Arial-BoldMT-74" x="488.867188"/>
      <use xlink:href="#Arial-BoldMT-69" x="522.167969"/>
      <use xlink:href="#Arial-BoldMT-6d" x="549.951172"/>
      <use xlink:href="#Arial-BoldMT-65" x="638.867188"/>
      <use xlink:href="#Arial-BoldMT-20" x="694.482422"/>
      <use xlink:href="#Arial-BoldMT-2f" x="722.265625"/>
      <use xlink:href="#Arial-BoldMT-20" x="750.048828"/>
      <use xlink:href="#Arial-BoldMT-6d" x="777.832031"/>
      <use xlink:href="#Arial-BoldMT-69" x="866.748047"/>
      <use xlink:href="#Arial-BoldMT-6e" x="894.53125"/>
     </g>
    </g>
   </g>
   <g id="matplotlib.axis_2">
    <g id="ytick_1">
     <g id="line2d_8">
      <defs>
       <path id="m52a905c46a" d="M 0 0 
L -8 0 
" style="stroke: #000000; stroke-width: 2"/>
      </defs>
      <g>
       <use xlink:href="#m52a905c46a" x="61.69274" y="181.64468" style="stroke: #000000; stroke-width: 2"/>
      </g>
     </g>
     <g id="text_9">
      <!-- 0.0 -->
      <g transform="translate(23.67274 188.086711) scale(0.18 -0.18)">
       <use xlink:href="#Arial-BoldMT-30"/>
       <use xlink:href="#Arial-BoldMT-2e" x="55.615234"/>
       <use xlink:href="#Arial-BoldMT-30" x="83.398438"/>
      </g>
     </g>
    </g>
    <g id="ytick_2">
     <g id="line2d_9">
      <g>
       <use xlink:href="#m52a905c46a" x="61.69274" y="104.454584" style="stroke: #000000; stroke-width: 2"/>
      </g>
     </g>
     <g id="text_10">
      <!-- 0.5 -->
      <g transform="translate(23.67274 110.896615) scale(0.18 -0.18)">
       <use xlink:href="#Arial-BoldMT-30"/>
       <use xlink:href="#Arial-BoldMT-2e" x="55.615234"/>
       <use xlink:href="#Arial-BoldMT-35" x="83.398438"/>
      </g>
     </g>
    </g>
    <g id="ytick_3">
     <g id="line2d_10">
      <g>
       <use xlink:href="#m52a905c46a" x="61.69274" y="27.264488" style="stroke: #000000; stroke-width: 2"/>
      </g>
     </g>
     <g id="text_11">
      <!-- 1.0 -->
      <g transform="translate(23.67274 33.706519) scale(0.18 -0.18)">
       <use xlink:href="#Arial-BoldMT-31"/>
       <use xlink:href="#Arial-BoldMT-2e" x="55.615234"/>
       <use xlink:href="#Arial-BoldMT-30" x="83.398438"/>
      </g>
     </g>
    </g>
    <g id="text_12">
     <!-- Rel. Intensity -->
     <g transform="translate(15.884303 157.071875) rotate(-90) scale(0.18 -0.18)">
      <defs>
       <path id="Arial-BoldMT-6c" d="M 459 0 
L 459 4581 
L 1338 4581 
L 1338 0 
L 459 0 
z
" transform="scale(0.015625)"/>
       <path id="Arial-BoldMT-49" d="M 438 0 
L 438 4581 
L 1363 4581 
L 1363 0 
L 438 0 
z
" transform="scale(0.015625)"/>
       <path id="Arial-BoldMT-73" d="M 150 947 
L 1031 1081 
Q 1088 825 1259 692 
Q 1431 559 1741 559 
Q 2081 559 2253 684 
Q 2369 772 2369 919 
Q 2369 1019 2306 1084 
Q 2241 1147 2013 1200 
Q 950 1434 666 1628 
Q 272 1897 272 2375 
Q 272 2806 612 3100 
Q 953 3394 1669 3394 
Q 2350 3394 2681 3172 
Q 3013 2950 3138 2516 
L 2309 2363 
Q 2256 2556 2107 2659 
Q 1959 2763 1684 2763 
Q 1338 2763 1188 2666 
Q 1088 2597 1088 2488 
Q 1088 2394 1175 2328 
Q 1294 2241 1995 2081 
Q 2697 1922 2975 1691 
Q 3250 1456 3250 1038 
Q 3250 581 2869 253 
Q 2488 -75 1741 -75 
Q 1063 -75 667 200 
Q 272 475 150 947 
z
" transform="scale(0.015625)"/>
       <path id="Arial-BoldMT-79" d="M 44 3319 
L 978 3319 
L 1772 963 
L 2547 3319 
L 3456 3319 
L 2284 125 
L 2075 -453 
Q 1959 -744 1854 -897 
Q 1750 -1050 1614 -1145 
Q 1478 -1241 1279 -1294 
Q 1081 -1347 831 -1347 
Q 578 -1347 334 -1294 
L 256 -606 
Q 463 -647 628 -647 
Q 934 -647 1081 -467 
Q 1228 -288 1306 -9 
L 44 3319 
z
" transform="scale(0.015625)"/>
      </defs>
      <use xlink:href="#Arial-BoldMT-52"/>
      <use xlink:href="#Arial-BoldMT-65" x="72.216797"/>
      <use xlink:href="#Arial-BoldMT-6c" x="127.832031"/>
      <use xlink:href="#Arial-BoldMT-2e" x="155.615234"/>
      <use xlink:href="#Arial-BoldMT-20" x="183.398438"/>
      <use xlink:href="#Arial-BoldMT-49" x="211.181641"/>
      <use xlink:href="#Arial-BoldMT-6e" x="238.964844"/>
      <use xlink:href="#Arial-BoldMT-74" x="300.048828"/>
      <use xlink:href="#Arial-BoldMT-65" x="333.349609"/>
      <use xlink:href="#Arial-BoldMT-6e" x="388.964844"/>
      <use xlink:href="#Arial-BoldMT-73" x="450.048828"/>
      <use xlink:href="#Arial-BoldMT-69" x="505.664062"/>
      <use xlink:href="#Arial-BoldMT-74" x="533.447266"/>
      <use xlink:href="#Arial-BoldMT-79" x="566.748047"/>
     </g>
    </g>
   </g>
   <g id="line2d_11">
    <path d="M 112.75215 181.647611 
L 161.542252 181.530235 
L 184.802653 181.497102 
L 191.043247 181.512988 
L 193.596215 181.415697 
L 194.163541 181.274052 
L 194.730867 180.915234 
L 195.298199 180.168762 
L 195.865525 178.902913 
L 196.716514 176.118474 
L 197.851167 172.175035 
L 198.418493 170.825068 
L 198.985819 170.10786 
L 199.269482 169.982721 
L 199.553145 170.004323 
L 199.836808 170.162566 
L 200.404135 170.880912 
L 200.971461 172.170416 
L 201.538787 174.080463 
L 202.389777 177.96 
L 203.808102 184.87001 
L 204.659092 187.793052 
L 205.226418 189.04524 
L 205.793744 189.80405 
L 206.36107 190.158907 
L 206.928397 190.196576 
L 207.495723 189.993501 
L 208.346712 189.376907 
L 212.601659 185.621145 
L 214.587311 184.501688 
L 217.140279 183.372364 
L 219.125921 182.714219 
L 221.111563 182.274789 
L 223.664531 181.960669 
L 227.068498 181.792177 
L 233.59275 181.69546 
L 288.623446 181.635344 
L 347.341772 181.710996 
L 361.808611 181.406774 
L 394.146227 180.631281 
L 405.209109 180.773301 
L 415.988308 181.129824 
L 425.632874 181.610543 
L 434.426431 182.003344 
L 437.546725 181.964994 
L 440.383356 182.210035 
L 446.340302 182.78359 
L 458.254153 183.408838 
L 470.451687 183.846908 
L 480.947243 184.041273 
L 489.457136 184.012661 
L 490.875432 183.83456 
L 492.010084 183.518216 
L 493.144737 182.957026 
L 493.995746 182.288047 
L 494.846715 181.333624 
L 495.981408 179.624561 
L 497.96703 176.008096 
L 500.236335 172.047621 
L 501.654671 169.9433 
L 502.50564 168.949927 
L 503.356649 168.294811 
L 503.923976 168.083565 
L 504.491302 168.0572 
L 505.058628 168.203559 
L 505.909597 168.709925 
L 506.760607 169.504397 
L 507.895259 170.886139 
L 512.717512 177.268038 
L 514.135848 178.679489 
L 515.554143 179.786798 
L 516.972479 180.589796 
L 518.390815 181.141796 
L 520.092794 181.570179 
L 522.362099 181.891538 
L 525.482373 182.097157 
L 529.73734 182.164012 
L 554.983378 182.039195 
L 568.599207 182.321565 
L 580.513058 182.77112 
L 592.42695 183.320536 
L 606.042779 184.04747 
L 614.836356 184.430201 
L 628.168543 184.484801 
L 628.73587 184.258047 
L 629.019512 183.953144 
L 629.303196 183.398976 
L 629.586839 182.460384 
L 629.870522 180.965418 
L 630.154165 178.719175 
L 630.721491 171.190937 
L 631.288817 158.670173 
L 631.856144 141.062865 
L 634.409132 51.026461 
L 634.976458 39.891968 
L 635.543784 32.70391 
L 636.111111 28.698876 
L 636.394753 27.706623 
L 636.678437 27.264488 
L 636.96208 27.353124 
L 637.245763 27.947748 
L 637.529406 29.02658 
L 638.096732 32.668383 
L 638.664058 38.384996 
L 639.231385 46.239831 
L 640.082394 61.593783 
L 641.784373 99.063285 
L 642.919025 122.393522 
L 644.053678 140.965097 
L 644.904688 151.477112 
L 645.755657 159.395998 
L 646.606666 165.204291 
L 647.457635 169.392063 
L 648.308645 172.383066 
L 649.159614 174.527301 
L 650.010624 176.095026 
L 650.861593 177.267742 
L 651.996245 178.423101 
L 653.130898 179.263838 
L 654.549234 180.018629 
L 656.251212 180.65128 
L 658.520517 181.23479 
L 661.357148 181.723213 
L 664.761106 182.071626 
L 668.73239 182.248948 
L 673.838326 182.24077 
L 688.021522 182.002276 
L 696.815059 181.904388 
L 721.210127 181.544577 
L 732.556652 181.594727 
L 778.510118 181.818816 
L 801.203208 182.01627 
L 802.33786 181.836353 
L 803.18887 181.489435 
L 804.607165 180.577446 
L 805.741818 179.902702 
L 806.87647 179.509894 
L 807.72748 179.426612 
L 808.862132 179.564418 
L 810.280428 180.015769 
L 813.684385 181.245414 
L 815.386404 181.604073 
L 817.655709 181.84298 
L 821.34331 181.96515 
L 828.151224 181.940416 
L 835.810149 181.810998 
L 847.440316 181.820444 
L 864.176461 181.47984 
L 867.296775 181.395418 
L 872.119028 181.543224 
L 878.075933 181.636492 
L 936.7943 181.5909 
L 942.467563 181.559416 
L 957.785411 181.638735 
L 1017.071064 181.710898 
L 1051.110638 181.688336 
L 1124.012121 181.648797 
L 1133.656707 181.633612 
L 1133.656707 181.633612 
" clip-path="url(#p15365adbb6)" style="fill: none; stroke: #000000; stroke-width: 2.5; stroke-linecap: square"/>
   </g>
   <g id="line2d_12">
    <path d="M 248.910577 199.12726 
L 248.910577 3.00024 
" clip-path="url(#p15365adbb6)" style="fill: none; stroke: #d55e00; stroke-width: 2; stroke-linecap: square"/>
   </g>
   <g id="line2d_13">
    <path d="M 1133.94035 199.12726 
L 1133.94035 3.00024 
" clip-path="url(#p15365adbb6)" style="fill: none; stroke: #d55e00; stroke-width: 2; stroke-linecap: square"/>
   </g>
   <g id="patch_3">
    <path d="M 61.69274 199.12726 
L 61.69274 3.00024 
" style="fill: none; stroke: #000000; stroke-width: 2; stroke-linejoin: miter; stroke-linecap: square"/>
   </g>
   <g id="patch_4">
    <path d="M 1184.99976 199.12726 
L 1184.99976 3.00024 
" style="fill: none; stroke: #000000; stroke-width: 2; stroke-linejoin: miter; stroke-linecap: square"/>
   </g>
   <g id="patch_5">
    <path d="M 61.69274 199.12726 
L 1184.99976 199.12726 
" style="fill: none; stroke: #000000; stroke-width: 2; stroke-linejoin: miter; stroke-linecap: square"/>
   </g>
   <g id="patch_6">
    <path d="M 61.69274 3.00024 
L 1184.99976 3.00024 
" style="fill: none; stroke: #000000; stroke-width: 2; stroke-linejoin: miter; stroke-linecap: square"/>
   </g>
   <g id="text_13">
    <!-- ANALYSIS -->
    <g style="fill: #d55e00" transform="translate(242.547644 141.677189) rotate(-90) scale(0.14994 -0.14994)">
     <defs>
      <path id="Arial-BoldMT-41" d="M 4597 0 
L 3591 0 
L 3191 1041 
L 1359 1041 
L 981 0 
L 0 0 
L 1784 4581 
L 2763 4581 
L 4597 0 
z
M 2894 1813 
L 2263 3513 
L 1644 1813 
L 2894 1813 
z
" transform="scale(0.015625)"/>
      <path id="Arial-BoldMT-4e" d="M 475 0 
L 475 4581 
L 1375 4581 
L 3250 1522 
L 3250 4581 
L 4109 4581 
L 4109 0 
L 3181 0 
L 1334 2988 
L 1334 0 
L 475 0 
z
" transform="scale(0.015625)"/>
      <path id="Arial-BoldMT-4c" d="M 491 0 
L 491 4544 
L 1416 4544 
L 1416 772 
L 3716 772 
L 3716 0 
L 491 0 
z
" transform="scale(0.015625)"/>
      <path id="Arial-BoldMT-59" d="M 1669 0 
L 1669 1928 
L -9 4581 
L 1075 4581 
L 2153 2769 
L 3209 4581 
L 4275 4581 
L 2591 1922 
L 2591 0 
L 1669 0 
z
" transform="scale(0.015625)"/>
      <path id="Arial-BoldMT-53" d="M 231 1491 
L 1131 1578 
Q 1213 1125 1461 912 
Q 1709 700 2131 700 
Q 2578 700 2804 889 
Q 3031 1078 3031 1331 
Q 3031 1494 2936 1608 
Q 2841 1722 2603 1806 
Q 2441 1863 1863 2006 
Q 1119 2191 819 2459 
Q 397 2838 397 3381 
Q 397 3731 595 4036 
Q 794 4341 1167 4500 
Q 1541 4659 2069 4659 
Q 2931 4659 3367 4281 
Q 3803 3903 3825 3272 
L 2900 3231 
Q 2841 3584 2645 3739 
Q 2450 3894 2059 3894 
Q 1656 3894 1428 3728 
Q 1281 3622 1281 3444 
Q 1281 3281 1419 3166 
Q 1594 3019 2269 2859 
Q 2944 2700 3267 2529 
Q 3591 2359 3773 2064 
Q 3956 1769 3956 1334 
Q 3956 941 3737 597 
Q 3519 253 3119 86 
Q 2719 -81 2122 -81 
Q 1253 -81 787 320 
Q 322 722 231 1491 
z
" transform="scale(0.015625)"/>
     </defs>
     <use xlink:href="#Arial-BoldMT-41"/>
     <use xlink:href="#Arial-BoldMT-4e" x="72.216797"/>
     <use xlink:href="#Arial-BoldMT-41" x="144.433594"/>
     <use xlink:href="#Arial-BoldMT-4c" x="216.650391"/>
     <use xlink:href="#Arial-BoldMT-59" x="268.609375"/>
     <use xlink:href="#Arial-BoldMT-53" x="335.308594"/>
     <use xlink:href="#Arial-BoldMT-49" x="402.007812"/>
     <use xlink:href="#Arial-BoldMT-53" x="429.791016"/>
    </g>
   </g>
   <g id="text_14">
    <!-- START -->
    <g style="fill: #d55e00" transform="translate(266.450922 128.888947) rotate(-90) scale(0.14994 -0.14994)">
     <defs>
      <path id="Arial-BoldMT-54" d="M 1497 0 
L 1497 3806 
L 138 3806 
L 138 4581 
L 3778 4581 
L 3778 3806 
L 2422 3806 
L 2422 0 
L 1497 0 
z
" transform="scale(0.015625)"/>
     </defs>
     <use xlink:href="#Arial-BoldMT-53"/>
     <use xlink:href="#Arial-BoldMT-54" x="66.699219"/>
     <use xlink:href="#Arial-BoldMT-41" x="120.408203"/>
     <use xlink:href="#Arial-BoldMT-52" x="192.625"/>
     <use xlink:href="#Arial-BoldMT-54" x="264.841797"/>
    </g>
   </g>
   <g id="text_15">
    <!-- ANALYSIS -->
    <g style="fill: #d55e00" transform="translate(1127.577417 141.677189) rotate(-90) scale(0.14994 -0.14994)">
     <use xlink:href="#Arial-BoldMT-41"/>
     <use xlink:href="#Arial-BoldMT-4e" x="72.216797"/>
     <use xlink:href="#Arial-BoldMT-41" x="144.433594"/>
     <use xlink:href="#Arial-BoldMT-4c" x="216.650391"/>
     <use xlink:href="#Arial-BoldMT-59" x="268.609375"/>
     <use xlink:href="#Arial-BoldMT-53" x="335.308594"/>
     <use xlink:href="#Arial-BoldMT-49" x="402.007812"/>
     <use xlink:href="#Arial-BoldMT-53" x="429.791016"/>
    </g>
   </g>
   <g id="text_16">
    <!-- END -->
    <g style="fill: #d55e00" transform="translate(1151.480695 120.283796) rotate(-90) scale(0.14994 -0.14994)">
     <defs>
      <path id="Arial-BoldMT-45" d="M 466 0 
L 466 4581 
L 3863 4581 
L 3863 3806 
L 1391 3806 
L 1391 2791 
L 3691 2791 
L 3691 2019 
L 1391 2019 
L 1391 772 
L 3950 772 
L 3950 0 
L 466 0 
z
" transform="scale(0.015625)"/>
      <path id="Arial-BoldMT-44" d="M 463 4581 
L 2153 4581 
Q 2725 4581 3025 4494 
Q 3428 4375 3715 4072 
Q 4003 3769 4153 3330 
Q 4303 2891 4303 2247 
Q 4303 1681 4163 1272 
Q 3991 772 3672 463 
Q 3431 228 3022 97 
Q 2716 0 2203 0 
L 463 0 
L 463 4581 
z
M 1388 3806 
L 1388 772 
L 2078 772 
Q 2466 772 2638 816 
Q 2863 872 3011 1006 
Q 3159 1141 3253 1448 
Q 3347 1756 3347 2288 
Q 3347 2819 3253 3103 
Q 3159 3388 2990 3547 
Q 2822 3706 2563 3763 
Q 2369 3806 1803 3806 
L 1388 3806 
z
" transform="scale(0.015625)"/>
     </defs>
     <use xlink:href="#Arial-BoldMT-45"/>
     <use xlink:href="#Arial-BoldMT-4e" x="66.699219"/>
     <use xlink:href="#Arial-BoldMT-44" x="138.916016"/>
    </g>
   </g>
  </g>
 </g>
 <defs>
  <clipPath id="p15365adbb6">
   <rect x="61.69274" y="3.00024" width="1123.30702" height="196.12702"/>
  </clipPath>
 </defs>
</svg>
