<?xml version="1.0" encoding="utf-8" standalone="no"?>
<!DOCTYPE svg PUBLIC "-//W3C//DTD SVG 1.1//EN"
  "http://www.w3.org/Graphics/SVG/1.1/DTD/svg11.dtd">
<svg xmlns:xlink="http://www.w3.org/1999/xlink" width="1188pt" height="252pt" viewBox="0 0 1188 252" xmlns="http://www.w3.org/2000/svg" version="1.1">
 <metadata>
  <rdf:RDF xmlns:dc="http://purl.org/dc/elements/1.1/" xmlns:cc="http://creativecommons.org/ns#" xmlns:rdf="http://www.w3.org/1999/02/22-rdf-syntax-ns#">
   <cc:Work>
    <dc:type rdf:resource="http://purl.org/dc/dcmitype/StillImage"/>
    <dc:date>2024-05-14T22:49:07.004970</dc:date>
    <dc:format>image/svg+xml</dc:format>
    <dc:creator>
     <cc:Agent>
      <dc:title>Matplotlib v3.8.0, https://matplotlib.org/</dc:title>
     </cc:Agent>
    </dc:creator>
   </cc:Work>
  </rdf:RDF>
 </metadata>
 <defs>
  <style type="text/css">*{stroke-linejoin: round; stroke-linecap: butt}</style>
 </defs>
 <g id="figure_1">
  <g id="patch_1">
   <path d="M 0 252 
L 1188 252 
L 1188 0 
L 0 0 
z
" style="fill: #ffffff"/>
  </g>
  <g id="axes_1">
   <g id="patch_2">
    <path d="M 61.69274 199.12726 
L 1184.99976 199.12726 
L 1184.99976 3.00024 
L 61.69274 3.00024 
z
" style="fill: #ffffff"/>
   </g>
   <g id="PolyCollection_1">
    <path d="M 818.506638 174.132318 
L 818.506638 172.846096 
L 818.790362 172.846096 
L 819.074005 172.846096 
L 819.357647 172.846096 
L 819.64129 172.846096 
L 819.925014 172.846096 
L 820.208657 172.846096 
L 820.4923 172.846096 
L 820.775943 172.846096 
L 821.059667 172.846096 
L 821.34331 172.846096 
L 821.626952 172.846096 
L 821.910595 172.846096 
L 822.194319 172.846096 
L 822.477962 172.846096 
L 822.761605 172.846096 
L 823.045248 172.846096 
L 823.328972 172.846096 
L 823.612614 172.846096 
L 823.896257 172.846096 
L 824.1799 172.846096 
L 824.463624 172.846096 
L 824.747267 172.846096 
L 825.03091 172.846096 
L 825.314553 172.846096 
L 825.598277 172.846096 
L 825.881919 172.846096 
L 826.165562 172.846096 
L 826.449205 172.846096 
L 826.732929 172.846096 
L 827.016572 172.846096 
L 827.300215 172.846096 
L 827.583858 172.846096 
L 827.867582 172.846096 
L 828.151224 172.846096 
L 828.434867 172.846096 
L 828.71851 172.846096 
L 829.002234 172.846096 
L 829.285877 172.846096 
L 829.56952 172.846096 
L 829.853162 172.846096 
L 830.136886 172.846096 
L 830.420529 172.846096 
L 830.704172 172.846096 
L 830.987815 172.846096 
L 831.271539 172.846096 
L 831.555182 172.846096 
L 831.838825 172.846096 
L 832.122467 172.846096 
L 832.406191 172.846096 
L 832.689834 172.846096 
L 832.973477 172.846096 
L 833.25712 172.846096 
L 833.540844 172.846096 
L 833.824487 172.846096 
L 834.10813 172.846096 
L 834.391772 172.846096 
L 834.675496 172.846096 
L 834.959139 172.846096 
L 835.242782 172.846096 
L 835.526425 172.846096 
L 835.810149 172.846096 
L 836.093792 172.846096 
L 836.377434 172.846096 
L 836.377434 172.324528 
L 836.377434 172.324528 
L 836.093792 171.652358 
L 835.810149 170.914959 
L 835.526425 170.102641 
L 835.242782 169.206772 
L 834.959139 168.216383 
L 834.675496 167.120716 
L 834.391772 165.908222 
L 834.10813 164.566421 
L 833.824487 163.080531 
L 833.540844 161.435883 
L 833.25712 159.61513 
L 832.973477 157.600064 
L 832.689834 155.372249 
L 832.406191 152.914864 
L 832.122467 150.21057 
L 831.838825 147.242557 
L 831.555182 143.996054 
L 831.271539 140.459227 
L 830.987815 136.618138 
L 830.704172 132.467241 
L 830.420529 128.004729 
L 830.136886 123.23365 
L 829.853162 118.163956 
L 829.56952 112.815502 
L 829.285877 107.208907 
L 829.002234 101.378052 
L 828.71851 95.36227 
L 828.434867 89.209348 
L 828.151224 82.976586 
L 827.867582 76.725232 
L 827.583858 70.524984 
L 827.300215 64.451961 
L 827.016572 58.582732 
L 826.732929 52.990701 
L 826.449205 47.75969 
L 826.165562 42.963493 
L 825.881919 38.67414 
L 825.598277 34.952836 
L 825.314553 31.87047 
L 825.03091 29.487862 
L 824.747267 27.858892 
L 824.463624 27.040845 
L 824.1799 27.104482 
L 823.896257 28.10412 
L 823.612614 30.097914 
L 823.328972 33.149904 
L 823.045248 37.319065 
L 822.761605 42.645525 
L 822.477962 49.156909 
L 822.194319 56.851694 
L 821.910595 65.683047 
L 821.626952 75.536971 
L 821.34331 86.238322 
L 821.059667 97.539558 
L 820.775943 109.124814 
L 820.4923 120.628919 
L 820.208657 131.676377 
L 819.925014 141.91106 
L 819.64129 151.036149 
L 819.357647 158.850527 
L 819.074005 165.269723 
L 818.790362 170.322471 
L 818.506638 174.132318 
z
" clip-path="url(#pb52ba19618)" style="fill: #d55e00"/>
   </g>
   <g id="PathCollection_1">
    <defs>
     <path id="m0043c5d63f" d="M 0 -6.708204 
L -1.506086 -2.072949 
L -6.379881 -2.072949 
L -2.436898 0.791796 
L -3.942983 5.427051 
L -0 2.562306 
L 3.942983 5.427051 
L 2.436898 0.791796 
L 6.379881 -2.072949 
L 1.506086 -2.072949 
z
" style="stroke: #000000; stroke-width: 1.5"/>
    </defs>
    <g clip-path="url(#pb52ba19618)">
     <use xlink:href="#m0043c5d63f" x="824.179929" y="11.915105" style="stroke: #000000; stroke-width: 1.5"/>
    </g>
   </g>
   <g id="matplotlib.axis_1">
    <g id="xtick_1">
     <g id="line2d_1">
      <defs>
       <path id="m869f22aa5f" d="M 0 0 
L 0 8 
" style="stroke: #000000; stroke-width: 2"/>
      </defs>
      <g>
       <use xlink:href="#m869f22aa5f" x="112.75215" y="199.12726" style="stroke: #000000; stroke-width: 2"/>
      </g>
     </g>
     <g id="text_1">
      <!-- 0.0 -->
      <g transform="translate(100.24215 225.011323) scale(0.18 -0.18)">
       <defs>
        <path id="Arial-BoldMT-30" d="M 1756 4600 
Q 2422 4600 2797 4125 
Q 3244 3563 3244 2259 
Q 3244 959 2794 391 
Q 2422 -78 1756 -78 
Q 1088 -78 678 436 
Q 269 950 269 2269 
Q 269 3563 719 4131 
Q 1091 4600 1756 4600 
z
M 1756 3872 
Q 1597 3872 1472 3770 
Q 1347 3669 1278 3406 
Q 1188 3066 1188 2259 
Q 1188 1453 1269 1151 
Q 1350 850 1473 750 
Q 1597 650 1756 650 
Q 1916 650 2041 751 
Q 2166 853 2234 1116 
Q 2325 1453 2325 2259 
Q 2325 3066 2244 3367 
Q 2163 3669 2039 3770 
Q 1916 3872 1756 3872 
z
" transform="scale(0.015625)"/>
        <path id="Arial-BoldMT-2e" d="M 459 0 
L 459 878 
L 1338 878 
L 1338 0 
L 459 0 
z
" transform="scale(0.015625)"/>
       </defs>
       <use xlink:href="#Arial-BoldMT-30"/>
       <use xlink:href="#Arial-BoldMT-2e" x="55.615234"/>
       <use xlink:href="#Arial-BoldMT-30" x="83.398438"/>
      </g>
     </g>
    </g>
    <g id="xtick_2">
     <g id="line2d_2">
      <g>
       <use xlink:href="#m869f22aa5f" x="282.950183" y="199.12726" style="stroke: #000000; stroke-width: 2"/>
      </g>
     </g>
     <g id="text_2">
      <!-- 0.5 -->
      <g transform="translate(270.440183 225.011323) scale(0.18 -0.18)">
       <defs>
        <path id="Arial-BoldMT-35" d="M 284 1178 
L 1159 1269 
Q 1197 972 1381 798 
Q 1566 625 1806 625 
Q 2081 625 2272 848 
Q 2463 1072 2463 1522 
Q 2463 1944 2273 2155 
Q 2084 2366 1781 2366 
Q 1403 2366 1103 2031 
L 391 2134 
L 841 4519 
L 3163 4519 
L 3163 3697 
L 1506 3697 
L 1369 2919 
Q 1663 3066 1969 3066 
Q 2553 3066 2959 2641 
Q 3366 2216 3366 1538 
Q 3366 972 3038 528 
Q 2591 -78 1797 -78 
Q 1163 -78 763 262 
Q 363 603 284 1178 
z
" transform="scale(0.015625)"/>
       </defs>
       <use xlink:href="#Arial-BoldMT-30"/>
       <use xlink:href="#Arial-BoldMT-2e" x="55.615234"/>
       <use xlink:href="#Arial-BoldMT-35" x="83.398438"/>
      </g>
     </g>
    </g>
    <g id="xtick_3">
     <g id="line2d_3">
      <g>
       <use xlink:href="#m869f22aa5f" x="453.148217" y="199.12726" style="stroke: #000000; stroke-width: 2"/>
      </g>
     </g>
     <g id="text_3">
      <!-- 1.0 -->
      <g transform="translate(440.638217 225.011323) scale(0.18 -0.18)">
       <defs>
        <path id="Arial-BoldMT-31" d="M 2519 0 
L 1641 0 
L 1641 3309 
Q 1159 2859 506 2644 
L 506 3441 
Q 850 3553 1253 3867 
Q 1656 4181 1806 4600 
L 2519 4600 
L 2519 0 
z
" transform="scale(0.015625)"/>
       </defs>
       <use xlink:href="#Arial-BoldMT-31"/>
       <use xlink:href="#Arial-BoldMT-2e" x="55.615234"/>
       <use xlink:href="#Arial-BoldMT-30" x="83.398438"/>
      </g>
     </g>
    </g>
    <g id="xtick_4">
     <g id="line2d_4">
      <g>
       <use xlink:href="#m869f22aa5f" x="623.34625" y="199.12726" style="stroke: #000000; stroke-width: 2"/>
      </g>
     </g>
     <g id="text_4">
      <!-- 1.5 -->
      <g transform="translate(610.83625 225.011323) scale(0.18 -0.18)">
       <use xlink:href="#Arial-BoldMT-31"/>
       <use xlink:href="#Arial-BoldMT-2e" x="55.615234"/>
       <use xlink:href="#Arial-BoldMT-35" x="83.398438"/>
      </g>
     </g>
    </g>
    <g id="xtick_5">
     <g id="line2d_5">
      <g>
       <use xlink:href="#m869f22aa5f" x="793.544283" y="199.12726" style="stroke: #000000; stroke-width: 2"/>
      </g>
     </g>
     <g id="text_5">
      <!-- 2.0 -->
      <g transform="translate(781.034283 225.011323) scale(0.18 -0.18)">
       <defs>
        <path id="Arial-BoldMT-32" d="M 3238 816 
L 3238 0 
L 159 0 
Q 209 463 459 877 
Q 709 1291 1447 1975 
Q 2041 2528 2175 2725 
Q 2356 2997 2356 3263 
Q 2356 3556 2198 3714 
Q 2041 3872 1763 3872 
Q 1488 3872 1325 3706 
Q 1163 3541 1138 3156 
L 263 3244 
Q 341 3969 753 4284 
Q 1166 4600 1784 4600 
Q 2463 4600 2850 4234 
Q 3238 3869 3238 3325 
Q 3238 3016 3127 2736 
Q 3016 2456 2775 2150 
Q 2616 1947 2200 1565 
Q 1784 1184 1673 1059 
Q 1563 934 1494 816 
L 3238 816 
z
" transform="scale(0.015625)"/>
       </defs>
       <use xlink:href="#Arial-BoldMT-32"/>
       <use xlink:href="#Arial-BoldMT-2e" x="55.615234"/>
       <use xlink:href="#Arial-BoldMT-30" x="83.398438"/>
      </g>
     </g>
    </g>
    <g id="xtick_6">
     <g id="line2d_6">
      <g>
       <use xlink:href="#m869f22aa5f" x="963.742317" y="199.12726" style="stroke: #000000; stroke-width: 2"/>
      </g>
     </g>
     <g id="text_6">
      <!-- 2.5 -->
      <g transform="translate(951.232317 225.011323) scale(0.18 -0.18)">
       <use xlink:href="#Arial-BoldMT-32"/>
       <use xlink:href="#Arial-BoldMT-2e" x="55.615234"/>
       <use xlink:href="#Arial-BoldMT-35" x="83.398438"/>
      </g>
     </g>
    </g>
    <g id="xtick_7">
     <g id="line2d_7">
      <g>
       <use xlink:href="#m869f22aa5f" x="1133.94035" y="199.12726" style="stroke: #000000; stroke-width: 2"/>
      </g>
     </g>
     <g id="text_7">
      <!-- 3.0 -->
      <g transform="translate(1121.43035 225.011323) scale(0.18 -0.18)">
       <defs>
        <path id="Arial-BoldMT-33" d="M 241 1216 
L 1091 1319 
Q 1131 994 1309 822 
Q 1488 650 1741 650 
Q 2013 650 2198 856 
Q 2384 1063 2384 1413 
Q 2384 1744 2206 1937 
Q 2028 2131 1772 2131 
Q 1603 2131 1369 2066 
L 1466 2781 
Q 1822 2772 2009 2936 
Q 2197 3100 2197 3372 
Q 2197 3603 2059 3740 
Q 1922 3878 1694 3878 
Q 1469 3878 1309 3722 
Q 1150 3566 1116 3266 
L 306 3403 
Q 391 3819 561 4067 
Q 731 4316 1036 4458 
Q 1341 4600 1719 4600 
Q 2366 4600 2756 4188 
Q 3078 3850 3078 3425 
Q 3078 2822 2419 2463 
Q 2813 2378 3048 2084 
Q 3284 1791 3284 1375 
Q 3284 772 2843 347 
Q 2403 -78 1747 -78 
Q 1125 -78 715 280 
Q 306 638 241 1216 
z
" transform="scale(0.015625)"/>
       </defs>
       <use xlink:href="#Arial-BoldMT-33"/>
       <use xlink:href="#Arial-BoldMT-2e" x="55.615234"/>
       <use xlink:href="#Arial-BoldMT-30" x="83.398438"/>
      </g>
     </g>
    </g>
    <g id="text_8">
     <!-- Retention time / min -->
     <g transform="translate(537.345625 245.447573) scale(0.18 -0.18)">
      <defs>
       <path id="Arial-BoldMT-52" d="M 469 0 
L 469 4581 
L 2416 4581 
Q 3150 4581 3483 4457 
Q 3816 4334 4016 4018 
Q 4216 3703 4216 3297 
Q 4216 2781 3912 2445 
Q 3609 2109 3006 2022 
Q 3306 1847 3501 1637 
Q 3697 1428 4028 894 
L 4588 0 
L 3481 0 
L 2813 997 
Q 2456 1531 2325 1670 
Q 2194 1809 2047 1861 
Q 1900 1913 1581 1913 
L 1394 1913 
L 1394 0 
L 469 0 
z
M 1394 2644 
L 2078 2644 
Q 2744 2644 2909 2700 
Q 3075 2756 3169 2893 
Q 3263 3031 3263 3238 
Q 3263 3469 3139 3611 
Q 3016 3753 2791 3791 
Q 2678 3806 2116 3806 
L 1394 3806 
L 1394 2644 
z
" transform="scale(0.015625)"/>
       <path id="Arial-BoldMT-65" d="M 2381 1056 
L 3256 909 
Q 3088 428 2723 176 
Q 2359 -75 1813 -75 
Q 947 -75 531 491 
Q 203 944 203 1634 
Q 203 2459 634 2926 
Q 1066 3394 1725 3394 
Q 2466 3394 2894 2905 
Q 3322 2416 3303 1406 
L 1103 1406 
Q 1113 1016 1316 798 
Q 1519 581 1822 581 
Q 2028 581 2168 693 
Q 2309 806 2381 1056 
z
M 2431 1944 
Q 2422 2325 2234 2523 
Q 2047 2722 1778 2722 
Q 1491 2722 1303 2513 
Q 1116 2303 1119 1944 
L 2431 1944 
z
" transform="scale(0.015625)"/>
       <path id="Arial-BoldMT-74" d="M 1981 3319 
L 1981 2619 
L 1381 2619 
L 1381 1281 
Q 1381 875 1398 808 
Q 1416 741 1477 697 
Q 1538 653 1625 653 
Q 1747 653 1978 738 
L 2053 56 
Q 1747 -75 1359 -75 
Q 1122 -75 931 4 
Q 741 84 652 211 
Q 563 338 528 553 
Q 500 706 500 1172 
L 500 2619 
L 97 2619 
L 97 3319 
L 500 3319 
L 500 3978 
L 1381 4491 
L 1381 3319 
L 1981 3319 
z
" transform="scale(0.015625)"/>
       <path id="Arial-BoldMT-6e" d="M 3478 0 
L 2600 0 
L 2600 1694 
Q 2600 2231 2544 2389 
Q 2488 2547 2361 2634 
Q 2234 2722 2056 2722 
Q 1828 2722 1647 2597 
Q 1466 2472 1398 2265 
Q 1331 2059 1331 1503 
L 1331 0 
L 453 0 
L 453 3319 
L 1269 3319 
L 1269 2831 
Q 1703 3394 2363 3394 
Q 2653 3394 2893 3289 
Q 3134 3184 3257 3021 
Q 3381 2859 3429 2653 
Q 3478 2447 3478 2063 
L 3478 0 
z
" transform="scale(0.015625)"/>
       <path id="Arial-BoldMT-69" d="M 459 3769 
L 459 4581 
L 1338 4581 
L 1338 3769 
L 459 3769 
z
M 459 0 
L 459 3319 
L 1338 3319 
L 1338 0 
L 459 0 
z
" transform="scale(0.015625)"/>
       <path id="Arial-BoldMT-6f" d="M 256 1706 
Q 256 2144 472 2553 
Q 688 2963 1083 3178 
Q 1478 3394 1966 3394 
Q 2719 3394 3200 2905 
Q 3681 2416 3681 1669 
Q 3681 916 3195 420 
Q 2709 -75 1972 -75 
Q 1516 -75 1102 131 
Q 688 338 472 736 
Q 256 1134 256 1706 
z
M 1156 1659 
Q 1156 1166 1390 903 
Q 1625 641 1969 641 
Q 2313 641 2545 903 
Q 2778 1166 2778 1666 
Q 2778 2153 2545 2415 
Q 2313 2678 1969 2678 
Q 1625 2678 1390 2415 
Q 1156 2153 1156 1659 
z
" transform="scale(0.015625)"/>
       <path id="Arial-BoldMT-20" transform="scale(0.015625)"/>
       <path id="Arial-BoldMT-6d" d="M 394 3319 
L 1203 3319 
L 1203 2866 
Q 1638 3394 2238 3394 
Q 2556 3394 2790 3262 
Q 3025 3131 3175 2866 
Q 3394 3131 3647 3262 
Q 3900 3394 4188 3394 
Q 4553 3394 4806 3245 
Q 5059 3097 5184 2809 
Q 5275 2597 5275 2122 
L 5275 0 
L 4397 0 
L 4397 1897 
Q 4397 2391 4306 2534 
Q 4184 2722 3931 2722 
Q 3747 2722 3584 2609 
Q 3422 2497 3350 2280 
Q 3278 2063 3278 1594 
L 3278 0 
L 2400 0 
L 2400 1819 
Q 2400 2303 2353 2443 
Q 2306 2584 2207 2653 
Q 2109 2722 1941 2722 
Q 1738 2722 1575 2612 
Q 1413 2503 1342 2297 
Q 1272 2091 1272 1613 
L 1272 0 
L 394 0 
L 394 3319 
z
" transform="scale(0.015625)"/>
       <path id="Arial-BoldMT-2f" d="M -9 -78 
L 1125 4659 
L 1784 4659 
L 638 -78 
L -9 -78 
z
" transform="scale(0.015625)"/>
      </defs>
      <use xlink:href="#Arial-BoldMT-52"/>
      <use xlink:href="#Arial-BoldMT-65" x="72.216797"/>
      <use xlink:href="#Arial-BoldMT-74" x="127.832031"/>
      <use xlink:href="#Arial-BoldMT-65" x="161.132812"/>
      <use xlink:href="#Arial-BoldMT-6e" x="216.748047"/>
      <use xlink:href="#Arial-BoldMT-74" x="277.832031"/>
      <use xlink:href="#Arial-BoldMT-69" x="311.132812"/>
      <use xlink:href="#Arial-BoldMT-6f" x="338.916016"/>
      <use xlink:href="#Arial-BoldMT-6e" x="400"/>
      <use xlink:href="#Arial-BoldMT-20" x="461.083984"/>
      <use xlink:href="#Arial-BoldMT-74" x="488.867188"/>
      <use xlink:href="#Arial-BoldMT-69" x="522.167969"/>
      <use xlink:href="#Arial-BoldMT-6d" x="549.951172"/>
      <use xlink:href="#Arial-BoldMT-65" x="638.867188"/>
      <use xlink:href="#Arial-BoldMT-20" x="694.482422"/>
      <use xlink:href="#Arial-BoldMT-2f" x="722.265625"/>
      <use xlink:href="#Arial-BoldMT-20" x="750.048828"/>
      <use xlink:href="#Arial-BoldMT-6d" x="777.832031"/>
      <use xlink:href="#Arial-BoldMT-69" x="866.748047"/>
      <use xlink:href="#Arial-BoldMT-6e" x="894.53125"/>
     </g>
    </g>
   </g>
   <g id="matplotlib.axis_2">
    <g id="ytick_1">
     <g id="line2d_8">
      <defs>
       <path id="mb0326b59aa" d="M 0 0 
L -8 0 
" style="stroke: #000000; stroke-width: 2"/>
      </defs>
      <g>
       <use xlink:href="#mb0326b59aa" x="61.69274" y="178.934623" style="stroke: #000000; stroke-width: 2"/>
      </g>
     </g>
     <g id="text_9">
      <!-- 0.0 -->
      <g transform="translate(23.67274 185.376655) scale(0.18 -0.18)">
       <use xlink:href="#Arial-BoldMT-30"/>
       <use xlink:href="#Arial-BoldMT-2e" x="55.615234"/>
       <use xlink:href="#Arial-BoldMT-30" x="83.398438"/>
      </g>
     </g>
    </g>
    <g id="ytick_2">
     <g id="line2d_9">
      <g>
       <use xlink:href="#mb0326b59aa" x="61.69274" y="102.987734" style="stroke: #000000; stroke-width: 2"/>
      </g>
     </g>
     <g id="text_10">
      <!-- 0.5 -->
      <g transform="translate(23.67274 109.429765) scale(0.18 -0.18)">
       <use xlink:href="#Arial-BoldMT-30"/>
       <use xlink:href="#Arial-BoldMT-2e" x="55.615234"/>
       <use xlink:href="#Arial-BoldMT-35" x="83.398438"/>
      </g>
     </g>
    </g>
    <g id="ytick_3">
     <g id="line2d_10">
      <g>
       <use xlink:href="#mb0326b59aa" x="61.69274" y="27.040845" style="stroke: #000000; stroke-width: 2"/>
      </g>
     </g>
     <g id="text_11">
      <!-- 1.0 -->
      <g transform="translate(23.67274 33.482876) scale(0.18 -0.18)">
       <use xlink:href="#Arial-BoldMT-31"/>
       <use xlink:href="#Arial-BoldMT-2e" x="55.615234"/>
       <use xlink:href="#Arial-BoldMT-30" x="83.398438"/>
      </g>
     </g>
    </g>
    <g id="text_12">
     <!-- Rel. Intensity -->
     <g transform="translate(15.884303 157.071875) rotate(-90) scale(0.18 -0.18)">
      <defs>
       <path id="Arial-BoldMT-6c" d="M 459 0 
L 459 4581 
L 1338 4581 
L 1338 0 
L 459 0 
z
" transform="scale(0.015625)"/>
       <path id="Arial-BoldMT-49" d="M 438 0 
L 438 4581 
L 1363 4581 
L 1363 0 
L 438 0 
z
" transform="scale(0.015625)"/>
       <path id="Arial-BoldMT-73" d="M 150 947 
L 1031 1081 
Q 1088 825 1259 692 
Q 1431 559 1741 559 
Q 2081 559 2253 684 
Q 2369 772 2369 919 
Q 2369 1019 2306 1084 
Q 2241 1147 2013 1200 
Q 950 1434 666 1628 
Q 272 1897 272 2375 
Q 272 2806 612 3100 
Q 953 3394 1669 3394 
Q 2350 3394 2681 3172 
Q 3013 2950 3138 2516 
L 2309 2363 
Q 2256 2556 2107 2659 
Q 1959 2763 1684 2763 
Q 1338 2763 1188 2666 
Q 1088 2597 1088 2488 
Q 1088 2394 1175 2328 
Q 1294 2241 1995 2081 
Q 2697 1922 2975 1691 
Q 3250 1456 3250 1038 
Q 3250 581 2869 253 
Q 2488 -75 1741 -75 
Q 1063 -75 667 200 
Q 272 475 150 947 
z
" transform="scale(0.015625)"/>
       <path id="Arial-BoldMT-79" d="M 44 3319 
L 978 3319 
L 1772 963 
L 2547 3319 
L 3456 3319 
L 2284 125 
L 2075 -453 
Q 1959 -744 1854 -897 
Q 1750 -1050 1614 -1145 
Q 1478 -1241 1279 -1294 
Q 1081 -1347 831 -1347 
Q 578 -1347 334 -1294 
L 256 -606 
Q 463 -647 628 -647 
Q 934 -647 1081 -467 
Q 1228 -288 1306 -9 
L 44 3319 
z
" transform="scale(0.015625)"/>
      </defs>
      <use xlink:href="#Arial-BoldMT-52"/>
      <use xlink:href="#Arial-BoldMT-65" x="72.216797"/>
      <use xlink:href="#Arial-BoldMT-6c" x="127.832031"/>
      <use xlink:href="#Arial-BoldMT-2e" x="155.615234"/>
      <use xlink:href="#Arial-BoldMT-20" x="183.398438"/>
      <use xlink:href="#Arial-BoldMT-49" x="211.181641"/>
      <use xlink:href="#Arial-BoldMT-6e" x="238.964844"/>
      <use xlink:href="#Arial-BoldMT-74" x="300.048828"/>
      <use xlink:href="#Arial-BoldMT-65" x="333.349609"/>
      <use xlink:href="#Arial-BoldMT-6e" x="388.964844"/>
      <use xlink:href="#Arial-BoldMT-73" x="450.048828"/>
      <use xlink:href="#Arial-BoldMT-69" x="505.664062"/>
      <use xlink:href="#Arial-BoldMT-74" x="533.447266"/>
      <use xlink:href="#Arial-BoldMT-79" x="566.748047"/>
     </g>
    </g>
   </g>
   <g id="line2d_11">
    <path d="M 112.75215 179.000388 
L 148.210073 178.830749 
L 190.475921 178.815577 
L 194.163541 178.637234 
L 194.730867 178.384036 
L 195.298199 177.781644 
L 195.865525 176.614132 
L 196.432851 174.788292 
L 197.567504 169.855975 
L 198.418493 166.561536 
L 198.985819 165.193956 
L 199.553145 164.600212 
L 199.836808 164.573722 
L 200.120472 164.710821 
L 200.687798 165.451994 
L 201.255124 166.847722 
L 201.82245 168.987861 
L 202.67344 173.569658 
L 204.375429 184.025342 
L 204.942755 186.56617 
L 205.510081 188.380201 
L 206.077407 189.516293 
L 206.644733 190.086447 
L 207.21206 190.212395 
L 207.779386 190.005065 
L 208.346712 189.561542 
L 209.481365 188.276 
L 211.75067 185.606223 
L 213.168985 184.315034 
L 215.154637 182.841119 
L 217.423942 181.425487 
L 219.125921 180.595039 
L 220.8279 179.997195 
L 222.813541 179.557023 
L 225.36652 179.275647 
L 229.621466 179.086002 
L 240.968001 178.966181 
L 265.36305 178.931309 
L 284.935825 178.932626 
L 349.89474 178.977161 
L 360.106633 178.696643 
L 375.424441 178.001093 
L 385.919997 177.599957 
L 393.578901 177.457741 
L 403.50713 177.513335 
L 409.180393 177.639867 
L 429.604158 178.541865 
L 461.374467 180.432894 
L 473.004635 180.948583 
L 482.081895 181.223956 
L 489.457136 181.255262 
L 490.875432 181.031097 
L 492.010084 180.607886 
L 493.144737 179.918018 
L 494.279389 178.97236 
L 495.697725 177.465326 
L 497.683387 174.968676 
L 499.669009 172.489168 
L 500.803661 171.458882 
L 501.654671 170.985859 
L 502.50564 170.7642 
L 503.356649 170.770366 
L 504.207619 170.978855 
L 505.342271 171.520569 
L 506.760607 172.522359 
L 508.462586 174.035401 
L 511.866543 177.157813 
L 513.284838 178.126462 
L 514.703174 178.816283 
L 516.405153 179.358523 
L 518.390815 179.720128 
L 520.943763 179.919472 
L 524.34772 179.960806 
L 531.439318 179.763316 
L 558.670978 178.924193 
L 573.705143 178.787569 
L 611.432399 178.955783 
L 634.409132 179.004801 
L 638.096732 178.89543 
L 643.202668 178.643 
L 648.308645 178.811474 
L 655.11656 178.922277 
L 678.660619 178.856192 
L 683.766555 178.792941 
L 707.310614 178.904714 
L 714.118529 178.743047 
L 718.940822 178.769726 
L 747.590818 179.528342 
L 763.192309 180.353134 
L 777.659149 181.56362 
L 789.573 182.539124 
L 793.544283 182.782497 
L 798.082893 183.103241 
L 800.635841 183.244133 
L 801.770493 183.087717 
L 802.905146 182.673501 
L 805.174451 181.665718 
L 806.309103 181.464697 
L 807.443756 181.525114 
L 808.862132 181.866954 
L 813.684385 183.317676 
L 814.535395 183.358748 
L 815.386404 183.178048 
L 816.237333 182.673501 
L 816.8047 182.08071 
L 817.371985 181.028241 
L 817.655709 180.136976 
L 817.939352 178.820911 
L 818.222995 176.89159 
L 818.790362 170.322471 
L 819.357647 158.850527 
L 819.925014 141.91106 
L 821.059667 97.539558 
L 821.910595 65.683047 
L 822.761605 42.645525 
L 823.328972 33.149904 
L 823.896257 28.10412 
L 824.1799 27.104482 
L 824.463624 27.040845 
L 824.747267 27.858892 
L 825.03091 29.487862 
L 825.598277 34.952836 
L 826.165562 42.963493 
L 827.016572 58.582732 
L 830.420529 128.004729 
L 831.271539 140.459227 
L 832.122467 150.21057 
L 832.973477 157.600064 
L 833.824487 163.080531 
L 834.675496 167.120716 
L 835.526425 170.102641 
L 836.377434 172.324528 
L 837.228444 174.014193 
L 838.079454 175.313823 
L 839.214106 176.592197 
L 840.065116 177.247012 
L 840.916044 177.63158 
L 842.050697 177.823048 
L 845.454654 178.064182 
L 847.156674 178.53374 
L 851.978926 180.028724 
L 854.248231 180.369509 
L 857.084903 180.512303 
L 860.205218 180.451558 
L 862.758165 180.171598 
L 865.87848 179.848479 
L 869.56608 179.743368 
L 875.806628 179.602005 
L 884.600205 179.098569 
L 892.25913 178.954152 
L 899.918054 178.837458 
L 916.654198 178.7994 
L 935.94329 178.794747 
L 940.765543 178.740581 
L 965.727979 179.01433 
L 991.541343 179.10474 
L 992.675995 178.871056 
L 994.094291 178.303598 
L 995.79631 177.639878 
L 996.930962 177.445891 
L 998.065615 177.464988 
L 999.48391 177.710975 
L 1004.589806 178.823397 
L 1007.426477 179.064899 
L 1011.965087 179.204711 
L 1017.071064 179.177684 
L 1021.893317 179.053955 
L 1031.254179 179.109992 
L 1072.952759 178.929235 
L 1074.654697 178.522301 
L 1076.356717 178.151547 
L 1077.775012 178.059426 
L 1079.47695 178.180205 
L 1085.717579 178.879354 
L 1090.539832 179.006248 
L 1102.453724 179.038327 
L 1133.656707 178.94946 
L 1133.656707 178.94946 
" clip-path="url(#pb52ba19618)" style="fill: none; stroke: #000000; stroke-width: 2.5; stroke-linecap: square"/>
   </g>
   <g id="line2d_12">
    <path d="M 248.910577 199.12726 
L 248.910577 3.00024 
" clip-path="url(#pb52ba19618)" style="fill: none; stroke: #d55e00; stroke-width: 2; stroke-linecap: square"/>
   </g>
   <g id="line2d_13">
    <path d="M 1133.94035 199.12726 
L 1133.94035 3.00024 
" clip-path="url(#pb52ba19618)" style="fill: none; stroke: #d55e00; stroke-width: 2; stroke-linecap: square"/>
   </g>
   <g id="patch_3">
    <path d="M 61.69274 199.12726 
L 61.69274 3.00024 
" style="fill: none; stroke: #000000; stroke-width: 2; stroke-linejoin: miter; stroke-linecap: square"/>
   </g>
   <g id="patch_4">
    <path d="M 1184.99976 199.12726 
L 1184.99976 3.00024 
" style="fill: none; stroke: #000000; stroke-width: 2; stroke-linejoin: miter; stroke-linecap: square"/>
   </g>
   <g id="patch_5">
    <path d="M 61.69274 199.12726 
L 1184.99976 199.12726 
" style="fill: none; stroke: #000000; stroke-width: 2; stroke-linejoin: miter; stroke-linecap: square"/>
   </g>
   <g id="patch_6">
    <path d="M 61.69274 3.00024 
L 1184.99976 3.00024 
" style="fill: none; stroke: #000000; stroke-width: 2; stroke-linejoin: miter; stroke-linecap: square"/>
   </g>
   <g id="text_13">
    <!-- ANALYSIS -->
    <g style="fill: #d55e00" transform="translate(242.547644 140.210339) rotate(-90) scale(0.14994 -0.14994)">
     <defs>
      <path id="Arial-BoldMT-41" d="M 4597 0 
L 3591 0 
L 3191 1041 
L 1359 1041 
L 981 0 
L 0 0 
L 1784 4581 
L 2763 4581 
L 4597 0 
z
M 2894 1813 
L 2263 3513 
L 1644 1813 
L 2894 1813 
z
" transform="scale(0.015625)"/>
      <path id="Arial-BoldMT-4e" d="M 475 0 
L 475 4581 
L 1375 4581 
L 3250 1522 
L 3250 4581 
L 4109 4581 
L 4109 0 
L 3181 0 
L 1334 2988 
L 1334 0 
L 475 0 
z
" transform="scale(0.015625)"/>
      <path id="Arial-BoldMT-4c" d="M 491 0 
L 491 4544 
L 1416 4544 
L 1416 772 
L 3716 772 
L 3716 0 
L 491 0 
z
" transform="scale(0.015625)"/>
      <path id="Arial-BoldMT-59" d="M 1669 0 
L 1669 1928 
L -9 4581 
L 1075 4581 
L 2153 2769 
L 3209 4581 
L 4275 4581 
L 2591 1922 
L 2591 0 
L 1669 0 
z
" transform="scale(0.015625)"/>
      <path id="Arial-BoldMT-53" d="M 231 1491 
L 1131 1578 
Q 1213 1125 1461 912 
Q 1709 700 2131 700 
Q 2578 700 2804 889 
Q 3031 1078 3031 1331 
Q 3031 1494 2936 1608 
Q 2841 1722 2603 1806 
Q 2441 1863 1863 2006 
Q 1119 2191 819 2459 
Q 397 2838 397 3381 
Q 397 3731 595 4036 
Q 794 4341 1167 4500 
Q 1541 4659 2069 4659 
Q 2931 4659 3367 4281 
Q 3803 3903 3825 3272 
L 2900 3231 
Q 2841 3584 2645 3739 
Q 2450 3894 2059 3894 
Q 1656 3894 1428 3728 
Q 1281 3622 1281 3444 
Q 1281 3281 1419 3166 
Q 1594 3019 2269 2859 
Q 2944 2700 3267 2529 
Q 3591 2359 3773 2064 
Q 3956 1769 3956 1334 
Q 3956 941 3737 597 
Q 3519 253 3119 86 
Q 2719 -81 2122 -81 
Q 1253 -81 787 320 
Q 322 722 231 1491 
z
" transform="scale(0.015625)"/>
     </defs>
     <use xlink:href="#Arial-BoldMT-41"/>
     <use xlink:href="#Arial-BoldMT-4e" x="72.216797"/>
     <use xlink:href="#Arial-BoldMT-41" x="144.433594"/>
     <use xlink:href="#Arial-BoldMT-4c" x="216.650391"/>
     <use xlink:href="#Arial-BoldMT-59" x="268.609375"/>
     <use xlink:href="#Arial-BoldMT-53" x="335.308594"/>
     <use xlink:href="#Arial-BoldMT-49" x="402.007812"/>
     <use xlink:href="#Arial-BoldMT-53" x="429.791016"/>
    </g>
   </g>
   <g id="text_14">
    <!-- START -->
    <g style="fill: #d55e00" transform="translate(266.450922 127.422097) rotate(-90) scale(0.14994 -0.14994)">
     <defs>
      <path id="Arial-BoldMT-54" d="M 1497 0 
L 1497 3806 
L 138 3806 
L 138 4581 
L 3778 4581 
L 3778 3806 
L 2422 3806 
L 2422 0 
L 1497 0 
z
" transform="scale(0.015625)"/>
     </defs>
     <use xlink:href="#Arial-BoldMT-53"/>
     <use xlink:href="#Arial-BoldMT-54" x="66.699219"/>
     <use xlink:href="#Arial-BoldMT-41" x="120.408203"/>
     <use xlink:href="#Arial-BoldMT-52" x="192.625"/>
     <use xlink:href="#Arial-BoldMT-54" x="264.841797"/>
    </g>
   </g>
   <g id="text_15">
    <!-- ANALYSIS -->
    <g style="fill: #d55e00" transform="translate(1127.577417 140.210339) rotate(-90) scale(0.14994 -0.14994)">
     <use xlink:href="#Arial-BoldMT-41"/>
     <use xlink:href="#Arial-BoldMT-4e" x="72.216797"/>
     <use xlink:href="#Arial-BoldMT-41" x="144.433594"/>
     <use xlink:href="#Arial-BoldMT-4c" x="216.650391"/>
     <use xlink:href="#Arial-BoldMT-59" x="268.609375"/>
     <use xlink:href="#Arial-BoldMT-53" x="335.308594"/>
     <use xlink:href="#Arial-BoldMT-49" x="402.007812"/>
     <use xlink:href="#Arial-BoldMT-53" x="429.791016"/>
    </g>
   </g>
   <g id="text_16">
    <!-- END -->
    <g style="fill: #d55e00" transform="translate(1151.480695 118.816947) rotate(-90) scale(0.14994 -0.14994)">
     <defs>
      <path id="Arial-BoldMT-45" d="M 466 0 
L 466 4581 
L 3863 4581 
L 3863 3806 
L 1391 3806 
L 1391 2791 
L 3691 2791 
L 3691 2019 
L 1391 2019 
L 1391 772 
L 3950 772 
L 3950 0 
L 466 0 
z
" transform="scale(0.015625)"/>
      <path id="Arial-BoldMT-44" d="M 463 4581 
L 2153 4581 
Q 2725 4581 3025 4494 
Q 3428 4375 3715 4072 
Q 4003 3769 4153 3330 
Q 4303 2891 4303 2247 
Q 4303 1681 4163 1272 
Q 3991 772 3672 463 
Q 3431 228 3022 97 
Q 2716 0 2203 0 
L 463 0 
L 463 4581 
z
M 1388 3806 
L 1388 772 
L 2078 772 
Q 2466 772 2638 816 
Q 2863 872 3011 1006 
Q 3159 1141 3253 1448 
Q 3347 1756 3347 2288 
Q 3347 2819 3253 3103 
Q 3159 3388 2990 3547 
Q 2822 3706 2563 3763 
Q 2369 3806 1803 3806 
L 1388 3806 
z
" transform="scale(0.015625)"/>
     </defs>
     <use xlink:href="#Arial-BoldMT-45"/>
     <use xlink:href="#Arial-BoldMT-4e" x="66.699219"/>
     <use xlink:href="#Arial-BoldMT-44" x="138.916016"/>
    </g>
   </g>
  </g>
 </g>
 <defs>
  <clipPath id="pb52ba19618">
   <rect x="61.69274" y="3.00024" width="1123.30702" height="196.12702"/>
  </clipPath>
 </defs>
</svg>
