<?xml version="1.0" encoding="utf-8" standalone="no"?>
<!DOCTYPE svg PUBLIC "-//W3C//DTD SVG 1.1//EN"
  "http://www.w3.org/Graphics/SVG/1.1/DTD/svg11.dtd">
<svg xmlns:xlink="http://www.w3.org/1999/xlink" width="1188pt" height="252pt" viewBox="0 0 1188 252" xmlns="http://www.w3.org/2000/svg" version="1.1">
 <metadata>
  <rdf:RDF xmlns:dc="http://purl.org/dc/elements/1.1/" xmlns:cc="http://creativecommons.org/ns#" xmlns:rdf="http://www.w3.org/1999/02/22-rdf-syntax-ns#">
   <cc:Work>
    <dc:type rdf:resource="http://purl.org/dc/dcmitype/StillImage"/>
    <dc:date>2024-05-14T22:49:08.471724</dc:date>
    <dc:format>image/svg+xml</dc:format>
    <dc:creator>
     <cc:Agent>
      <dc:title>Matplotlib v3.8.0, https://matplotlib.org/</dc:title>
     </cc:Agent>
    </dc:creator>
   </cc:Work>
  </rdf:RDF>
 </metadata>
 <defs>
  <style type="text/css">*{stroke-linejoin: round; stroke-linecap: butt}</style>
 </defs>
 <g id="figure_1">
  <g id="patch_1">
   <path d="M 0 252 
L 1188 252 
L 1188 0 
L 0 0 
z
" style="fill: #ffffff"/>
  </g>
  <g id="axes_1">
   <g id="patch_2">
    <path d="M 61.69274 199.12726 
L 1184.99976 199.12726 
L 1184.99976 3.00024 
L 61.69274 3.00024 
z
" style="fill: #ffffff"/>
   </g>
   <g id="PolyCollection_1">
    <path d="M 664.761106 177.461874 
L 664.761106 176.674375 
L 665.044749 176.674375 
L 665.328432 176.674375 
L 665.612075 176.674375 
L 665.895758 176.674375 
L 666.179442 176.674375 
L 666.463085 176.674375 
L 666.746768 176.674375 
L 667.030411 176.674375 
L 667.314094 176.674375 
L 667.597737 176.674375 
L 667.88142 176.674375 
L 668.165063 176.674375 
L 668.448747 176.674375 
L 668.73239 176.674375 
L 669.016073 176.674375 
L 669.299716 176.674375 
L 669.583399 176.674375 
L 669.867042 176.674375 
L 670.150725 176.674375 
L 670.434368 176.674375 
L 670.718052 176.674375 
L 671.001694 176.674375 
L 671.285378 176.674375 
L 671.569021 176.674375 
L 671.852704 176.674375 
L 672.136347 176.674375 
L 672.42003 176.674375 
L 672.703673 176.674375 
L 672.987357 176.674375 
L 673.270999 176.674375 
L 673.554683 176.674375 
L 673.838326 176.674375 
L 674.122009 176.674375 
L 674.405652 176.674375 
L 674.689335 176.674375 
L 674.972978 176.674375 
L 675.256662 176.674375 
L 675.540304 176.674375 
L 675.823988 176.674375 
L 676.107631 176.674375 
L 676.391314 176.674375 
L 676.674957 176.674375 
L 676.95864 176.674375 
L 677.242283 176.674375 
L 677.525966 176.674375 
L 677.809609 176.674375 
L 678.093293 176.674375 
L 678.376936 176.674375 
L 678.660619 176.674375 
L 678.944262 176.674375 
L 679.227945 176.674375 
L 679.511588 176.674375 
L 679.795271 176.674375 
L 680.078914 176.674375 
L 680.362598 176.674375 
L 680.64624 176.674375 
L 680.929924 176.674375 
L 681.213567 176.674375 
L 681.49725 176.674375 
L 681.780893 176.674375 
L 682.064576 176.674375 
L 682.348219 176.674375 
L 682.631903 176.674375 
L 682.915545 176.674375 
L 683.199229 176.674375 
L 683.482872 176.674375 
L 683.766555 176.674375 
L 684.050198 176.674375 
L 684.333881 176.674375 
L 684.617524 176.674375 
L 684.901208 176.674375 
L 684.901208 176.149794 
L 684.901208 176.149794 
L 684.617524 175.734777 
L 684.333881 175.281427 
L 684.050198 174.786556 
L 683.766555 174.242887 
L 683.482872 173.644805 
L 683.199229 172.984007 
L 682.915545 172.252573 
L 682.631903 171.439681 
L 682.348219 170.536039 
L 682.064576 169.528848 
L 681.780893 168.405886 
L 681.49725 167.152165 
L 681.213567 165.753004 
L 680.929924 164.1918 
L 680.64624 162.451467 
L 680.362598 160.513973 
L 680.078914 158.36191 
L 679.795271 155.976692 
L 679.511588 153.339919 
L 679.227945 150.433576 
L 678.944262 147.241696 
L 678.660619 143.748688 
L 678.376936 139.941718 
L 678.093293 135.811913 
L 677.809609 131.353883 
L 677.525966 126.566838 
L 677.242283 121.456585 
L 676.95864 116.036366 
L 676.674957 110.332025 
L 676.391314 104.37538 
L 676.107631 98.214652 
L 675.823988 91.908929 
L 675.540304 85.52303 
L 675.256662 79.128653 
L 674.972978 72.814234 
L 674.689335 66.658698 
L 674.405652 60.757402 
L 674.122009 55.205721 
L 673.838326 50.056778 
L 673.554683 45.390629 
L 673.270999 41.240854 
L 672.987357 37.628486 
L 672.703673 34.531779 
L 672.42003 32.000072 
L 672.136347 29.991691 
L 671.852704 28.530347 
L 671.569021 27.580112 
L 671.285378 27.199911 
L 671.001694 27.362118 
L 670.718052 28.11026 
L 670.434368 29.458023 
L 670.150725 31.509086 
L 669.867042 34.290525 
L 669.583399 37.907981 
L 669.299716 42.444066 
L 669.016073 48.007602 
L 668.73239 54.637783 
L 668.448747 62.378344 
L 668.165063 71.19418 
L 667.88142 80.985618 
L 667.597737 91.566075 
L 667.314094 102.693958 
L 667.030411 114.053571 
L 666.746768 125.293987 
L 666.463085 136.061305 
L 666.179442 146.022231 
L 665.895758 154.90347 
L 665.612075 162.52161 
L 665.328432 168.793662 
L 665.044749 173.738115 
L 664.761106 177.461874 
z
" clip-path="url(#pdb47a9021e)" style="fill: #d55e00"/>
   </g>
   <g id="PolyCollection_2">
    <path d="M 844.320002 180.950062 
L 844.320002 180.526378 
L 844.603726 180.526378 
L 844.887369 180.526378 
L 845.171011 180.526378 
L 845.454654 180.526378 
L 845.738378 180.526378 
L 846.022021 180.526378 
L 846.305664 180.526378 
L 846.589307 180.526378 
L 846.873031 180.526378 
L 847.156674 180.526378 
L 847.440316 180.526378 
L 847.723959 180.526378 
L 848.007683 180.526378 
L 848.291326 180.526378 
L 848.574969 180.526378 
L 848.858612 180.526378 
L 849.142336 180.526378 
L 849.425979 180.526378 
L 849.709621 180.526378 
L 849.993264 180.526378 
L 850.276988 180.526378 
L 850.560631 180.526378 
L 850.844274 180.526378 
L 851.127917 180.526378 
L 851.411641 180.526378 
L 851.695283 180.526378 
L 851.978926 180.526378 
L 852.262569 180.526378 
L 852.546293 180.526378 
L 852.829936 180.526378 
L 853.113579 180.526378 
L 853.397222 180.526378 
L 853.680946 180.526378 
L 853.964588 180.526378 
L 854.248231 180.526378 
L 854.531874 180.526378 
L 854.815598 180.526378 
L 855.099241 180.526378 
L 855.382884 180.526378 
L 855.666527 180.526378 
L 855.950251 180.526378 
L 856.233893 180.526378 
L 856.517536 180.526378 
L 856.801179 180.526378 
L 857.084903 180.526378 
L 857.368546 180.526378 
L 857.652189 180.526378 
L 857.935913 180.526378 
L 858.219555 180.526378 
L 858.503198 180.526378 
L 858.786841 180.526378 
L 859.070565 180.526378 
L 859.354208 180.526378 
L 859.637851 180.526378 
L 859.921494 180.526378 
L 860.205218 180.526378 
L 860.48886 180.526378 
L 860.772503 180.526378 
L 861.056146 180.526378 
L 861.33987 180.526378 
L 861.623513 180.526378 
L 861.907156 180.526378 
L 862.190799 180.526378 
L 862.190799 180.379813 
L 862.190799 180.379813 
L 861.907156 180.200428 
L 861.623513 180.000909 
L 861.33987 179.777896 
L 861.056146 179.527429 
L 860.772503 179.245591 
L 860.48886 178.929329 
L 860.205218 178.574543 
L 859.921494 178.177682 
L 859.637851 177.73462 
L 859.354208 177.24107 
L 859.070565 176.692361 
L 858.786841 176.083797 
L 858.503198 175.410747 
L 858.219555 174.669825 
L 857.935913 173.857272 
L 857.652189 172.969208 
L 857.368546 172.002784 
L 857.084903 170.955431 
L 856.801179 169.825145 
L 856.517536 168.612008 
L 856.233893 167.317525 
L 855.950251 165.945036 
L 855.666527 164.50011 
L 855.382884 162.989734 
L 855.099241 161.42226 
L 854.815598 159.809328 
L 854.531874 158.164273 
L 854.248231 156.501293 
L 853.964588 154.837242 
L 853.680946 153.190181 
L 853.397222 151.577769 
L 853.113579 150.018199 
L 852.829936 148.530787 
L 852.546293 147.134374 
L 852.262569 145.847311 
L 851.978926 144.687348 
L 851.695283 143.670433 
L 851.411641 142.811477 
L 851.127917 142.12336 
L 850.844274 141.61922 
L 850.560631 141.31153 
L 850.276988 141.213798 
L 849.993264 141.337866 
L 849.709621 141.695959 
L 849.425979 142.298346 
L 849.142336 143.154408 
L 848.858612 144.272412 
L 848.574969 145.659272 
L 848.291326 147.319424 
L 848.007683 149.253161 
L 847.723959 151.453339 
L 847.440316 153.900475 
L 847.156674 156.563096 
L 846.873031 159.393347 
L 846.589307 162.328824 
L 846.305664 165.294591 
L 846.022021 168.210286 
L 845.738378 170.994207 
L 845.454654 173.572793 
L 845.171011 175.886565 
L 844.887369 177.895944 
L 844.603726 179.582666 
L 844.320002 180.950062 
z
" clip-path="url(#pdb47a9021e)" style="fill: #0072b2"/>
   </g>
   <g id="PathCollection_1">
    <defs>
     <path id="mb67b8ffb92" d="M 0 -6.708204 
L -1.506086 -2.072949 
L -6.379881 -2.072949 
L -2.436898 0.791796 
L -3.942983 5.427051 
L -0 2.562306 
L 3.942983 5.427051 
L 2.436898 0.791796 
L 6.379881 -2.072949 
L 1.506086 -2.072949 
z
" style="stroke: #000000; stroke-width: 1.5"/>
    </defs>
    <g clip-path="url(#pdb47a9021e)">
     <use xlink:href="#mb67b8ffb92" x="671.001699" y="11.915105" style="stroke: #000000; stroke-width: 1.5"/>
    </g>
   </g>
   <g id="matplotlib.axis_1">
    <g id="xtick_1">
     <g id="line2d_1">
      <defs>
       <path id="m4021057031" d="M 0 0 
L 0 8 
" style="stroke: #000000; stroke-width: 2"/>
      </defs>
      <g>
       <use xlink:href="#m4021057031" x="112.75215" y="199.12726" style="stroke: #000000; stroke-width: 2"/>
      </g>
     </g>
     <g id="text_1">
      <!-- 0.0 -->
      <g transform="translate(100.24215 225.011323) scale(0.18 -0.18)">
       <defs>
        <path id="Arial-BoldMT-30" d="M 1756 4600 
Q 2422 4600 2797 4125 
Q 3244 3563 3244 2259 
Q 3244 959 2794 391 
Q 2422 -78 1756 -78 
Q 1088 -78 678 436 
Q 269 950 269 2269 
Q 269 3563 719 4131 
Q 1091 4600 1756 4600 
z
M 1756 3872 
Q 1597 3872 1472 3770 
Q 1347 3669 1278 3406 
Q 1188 3066 1188 2259 
Q 1188 1453 1269 1151 
Q 1350 850 1473 750 
Q 1597 650 1756 650 
Q 1916 650 2041 751 
Q 2166 853 2234 1116 
Q 2325 1453 2325 2259 
Q 2325 3066 2244 3367 
Q 2163 3669 2039 3770 
Q 1916 3872 1756 3872 
z
" transform="scale(0.015625)"/>
        <path id="Arial-BoldMT-2e" d="M 459 0 
L 459 878 
L 1338 878 
L 1338 0 
L 459 0 
z
" transform="scale(0.015625)"/>
       </defs>
       <use xlink:href="#Arial-BoldMT-30"/>
       <use xlink:href="#Arial-BoldMT-2e" x="55.615234"/>
       <use xlink:href="#Arial-BoldMT-30" x="83.398438"/>
      </g>
     </g>
    </g>
    <g id="xtick_2">
     <g id="line2d_2">
      <g>
       <use xlink:href="#m4021057031" x="282.950183" y="199.12726" style="stroke: #000000; stroke-width: 2"/>
      </g>
     </g>
     <g id="text_2">
      <!-- 0.5 -->
      <g transform="translate(270.440183 225.011323) scale(0.18 -0.18)">
       <defs>
        <path id="Arial-BoldMT-35" d="M 284 1178 
L 1159 1269 
Q 1197 972 1381 798 
Q 1566 625 1806 625 
Q 2081 625 2272 848 
Q 2463 1072 2463 1522 
Q 2463 1944 2273 2155 
Q 2084 2366 1781 2366 
Q 1403 2366 1103 2031 
L 391 2134 
L 841 4519 
L 3163 4519 
L 3163 3697 
L 1506 3697 
L 1369 2919 
Q 1663 3066 1969 3066 
Q 2553 3066 2959 2641 
Q 3366 2216 3366 1538 
Q 3366 972 3038 528 
Q 2591 -78 1797 -78 
Q 1163 -78 763 262 
Q 363 603 284 1178 
z
" transform="scale(0.015625)"/>
       </defs>
       <use xlink:href="#Arial-BoldMT-30"/>
       <use xlink:href="#Arial-BoldMT-2e" x="55.615234"/>
       <use xlink:href="#Arial-BoldMT-35" x="83.398438"/>
      </g>
     </g>
    </g>
    <g id="xtick_3">
     <g id="line2d_3">
      <g>
       <use xlink:href="#m4021057031" x="453.148217" y="199.12726" style="stroke: #000000; stroke-width: 2"/>
      </g>
     </g>
     <g id="text_3">
      <!-- 1.0 -->
      <g transform="translate(440.638217 225.011323) scale(0.18 -0.18)">
       <defs>
        <path id="Arial-BoldMT-31" d="M 2519 0 
L 1641 0 
L 1641 3309 
Q 1159 2859 506 2644 
L 506 3441 
Q 850 3553 1253 3867 
Q 1656 4181 1806 4600 
L 2519 4600 
L 2519 0 
z
" transform="scale(0.015625)"/>
       </defs>
       <use xlink:href="#Arial-BoldMT-31"/>
       <use xlink:href="#Arial-BoldMT-2e" x="55.615234"/>
       <use xlink:href="#Arial-BoldMT-30" x="83.398438"/>
      </g>
     </g>
    </g>
    <g id="xtick_4">
     <g id="line2d_4">
      <g>
       <use xlink:href="#m4021057031" x="623.34625" y="199.12726" style="stroke: #000000; stroke-width: 2"/>
      </g>
     </g>
     <g id="text_4">
      <!-- 1.5 -->
      <g transform="translate(610.83625 225.011323) scale(0.18 -0.18)">
       <use xlink:href="#Arial-BoldMT-31"/>
       <use xlink:href="#Arial-BoldMT-2e" x="55.615234"/>
       <use xlink:href="#Arial-BoldMT-35" x="83.398438"/>
      </g>
     </g>
    </g>
    <g id="xtick_5">
     <g id="line2d_5">
      <g>
       <use xlink:href="#m4021057031" x="793.544283" y="199.12726" style="stroke: #000000; stroke-width: 2"/>
      </g>
     </g>
     <g id="text_5">
      <!-- 2.0 -->
      <g transform="translate(781.034283 225.011323) scale(0.18 -0.18)">
       <defs>
        <path id="Arial-BoldMT-32" d="M 3238 816 
L 3238 0 
L 159 0 
Q 209 463 459 877 
Q 709 1291 1447 1975 
Q 2041 2528 2175 2725 
Q 2356 2997 2356 3263 
Q 2356 3556 2198 3714 
Q 2041 3872 1763 3872 
Q 1488 3872 1325 3706 
Q 1163 3541 1138 3156 
L 263 3244 
Q 341 3969 753 4284 
Q 1166 4600 1784 4600 
Q 2463 4600 2850 4234 
Q 3238 3869 3238 3325 
Q 3238 3016 3127 2736 
Q 3016 2456 2775 2150 
Q 2616 1947 2200 1565 
Q 1784 1184 1673 1059 
Q 1563 934 1494 816 
L 3238 816 
z
" transform="scale(0.015625)"/>
       </defs>
       <use xlink:href="#Arial-BoldMT-32"/>
       <use xlink:href="#Arial-BoldMT-2e" x="55.615234"/>
       <use xlink:href="#Arial-BoldMT-30" x="83.398438"/>
      </g>
     </g>
    </g>
    <g id="xtick_6">
     <g id="line2d_6">
      <g>
       <use xlink:href="#m4021057031" x="963.742317" y="199.12726" style="stroke: #000000; stroke-width: 2"/>
      </g>
     </g>
     <g id="text_6">
      <!-- 2.5 -->
      <g transform="translate(951.232317 225.011323) scale(0.18 -0.18)">
       <use xlink:href="#Arial-BoldMT-32"/>
       <use xlink:href="#Arial-BoldMT-2e" x="55.615234"/>
       <use xlink:href="#Arial-BoldMT-35" x="83.398438"/>
      </g>
     </g>
    </g>
    <g id="xtick_7">
     <g id="line2d_7">
      <g>
       <use xlink:href="#m4021057031" x="1133.94035" y="199.12726" style="stroke: #000000; stroke-width: 2"/>
      </g>
     </g>
     <g id="text_7">
      <!-- 3.0 -->
      <g transform="translate(1121.43035 225.011323) scale(0.18 -0.18)">
       <defs>
        <path id="Arial-BoldMT-33" d="M 241 1216 
L 1091 1319 
Q 1131 994 1309 822 
Q 1488 650 1741 650 
Q 2013 650 2198 856 
Q 2384 1063 2384 1413 
Q 2384 1744 2206 1937 
Q 2028 2131 1772 2131 
Q 1603 2131 1369 2066 
L 1466 2781 
Q 1822 2772 2009 2936 
Q 2197 3100 2197 3372 
Q 2197 3603 2059 3740 
Q 1922 3878 1694 3878 
Q 1469 3878 1309 3722 
Q 1150 3566 1116 3266 
L 306 3403 
Q 391 3819 561 4067 
Q 731 4316 1036 4458 
Q 1341 4600 1719 4600 
Q 2366 4600 2756 4188 
Q 3078 3850 3078 3425 
Q 3078 2822 2419 2463 
Q 2813 2378 3048 2084 
Q 3284 1791 3284 1375 
Q 3284 772 2843 347 
Q 2403 -78 1747 -78 
Q 1125 -78 715 280 
Q 306 638 241 1216 
z
" transform="scale(0.015625)"/>
       </defs>
       <use xlink:href="#Arial-BoldMT-33"/>
       <use xlink:href="#Arial-BoldMT-2e" x="55.615234"/>
       <use xlink:href="#Arial-BoldMT-30" x="83.398438"/>
      </g>
     </g>
    </g>
    <g id="text_8">
     <!-- Retention time / min -->
     <g transform="translate(537.345625 245.447573) scale(0.18 -0.18)">
      <defs>
       <path id="Arial-BoldMT-52" d="M 469 0 
L 469 4581 
L 2416 4581 
Q 3150 4581 3483 4457 
Q 3816 4334 4016 4018 
Q 4216 3703 4216 3297 
Q 4216 2781 3912 2445 
Q 3609 2109 3006 2022 
Q 3306 1847 3501 1637 
Q 3697 1428 4028 894 
L 4588 0 
L 3481 0 
L 2813 997 
Q 2456 1531 2325 1670 
Q 2194 1809 2047 1861 
Q 1900 1913 1581 1913 
L 1394 1913 
L 1394 0 
L 469 0 
z
M 1394 2644 
L 2078 2644 
Q 2744 2644 2909 2700 
Q 3075 2756 3169 2893 
Q 3263 3031 3263 3238 
Q 3263 3469 3139 3611 
Q 3016 3753 2791 3791 
Q 2678 3806 2116 3806 
L 1394 3806 
L 1394 2644 
z
" transform="scale(0.015625)"/>
       <path id="Arial-BoldMT-65" d="M 2381 1056 
L 3256 909 
Q 3088 428 2723 176 
Q 2359 -75 1813 -75 
Q 947 -75 531 491 
Q 203 944 203 1634 
Q 203 2459 634 2926 
Q 1066 3394 1725 3394 
Q 2466 3394 2894 2905 
Q 3322 2416 3303 1406 
L 1103 1406 
Q 1113 1016 1316 798 
Q 1519 581 1822 581 
Q 2028 581 2168 693 
Q 2309 806 2381 1056 
z
M 2431 1944 
Q 2422 2325 2234 2523 
Q 2047 2722 1778 2722 
Q 1491 2722 1303 2513 
Q 1116 2303 1119 1944 
L 2431 1944 
z
" transform="scale(0.015625)"/>
       <path id="Arial-BoldMT-74" d="M 1981 3319 
L 1981 2619 
L 1381 2619 
L 1381 1281 
Q 1381 875 1398 808 
Q 1416 741 1477 697 
Q 1538 653 1625 653 
Q 1747 653 1978 738 
L 2053 56 
Q 1747 -75 1359 -75 
Q 1122 -75 931 4 
Q 741 84 652 211 
Q 563 338 528 553 
Q 500 706 500 1172 
L 500 2619 
L 97 2619 
L 97 3319 
L 500 3319 
L 500 3978 
L 1381 4491 
L 1381 3319 
L 1981 3319 
z
" transform="scale(0.015625)"/>
       <path id="Arial-BoldMT-6e" d="M 3478 0 
L 2600 0 
L 2600 1694 
Q 2600 2231 2544 2389 
Q 2488 2547 2361 2634 
Q 2234 2722 2056 2722 
Q 1828 2722 1647 2597 
Q 1466 2472 1398 2265 
Q 1331 2059 1331 1503 
L 1331 0 
L 453 0 
L 453 3319 
L 1269 3319 
L 1269 2831 
Q 1703 3394 2363 3394 
Q 2653 3394 2893 3289 
Q 3134 3184 3257 3021 
Q 3381 2859 3429 2653 
Q 3478 2447 3478 2063 
L 3478 0 
z
" transform="scale(0.015625)"/>
       <path id="Arial-BoldMT-69" d="M 459 3769 
L 459 4581 
L 1338 4581 
L 1338 3769 
L 459 3769 
z
M 459 0 
L 459 3319 
L 1338 3319 
L 1338 0 
L 459 0 
z
" transform="scale(0.015625)"/>
       <path id="Arial-BoldMT-6f" d="M 256 1706 
Q 256 2144 472 2553 
Q 688 2963 1083 3178 
Q 1478 3394 1966 3394 
Q 2719 3394 3200 2905 
Q 3681 2416 3681 1669 
Q 3681 916 3195 420 
Q 2709 -75 1972 -75 
Q 1516 -75 1102 131 
Q 688 338 472 736 
Q 256 1134 256 1706 
z
M 1156 1659 
Q 1156 1166 1390 903 
Q 1625 641 1969 641 
Q 2313 641 2545 903 
Q 2778 1166 2778 1666 
Q 2778 2153 2545 2415 
Q 2313 2678 1969 2678 
Q 1625 2678 1390 2415 
Q 1156 2153 1156 1659 
z
" transform="scale(0.015625)"/>
       <path id="Arial-BoldMT-20" transform="scale(0.015625)"/>
       <path id="Arial-BoldMT-6d" d="M 394 3319 
L 1203 3319 
L 1203 2866 
Q 1638 3394 2238 3394 
Q 2556 3394 2790 3262 
Q 3025 3131 3175 2866 
Q 3394 3131 3647 3262 
Q 3900 3394 4188 3394 
Q 4553 3394 4806 3245 
Q 5059 3097 5184 2809 
Q 5275 2597 5275 2122 
L 5275 0 
L 4397 0 
L 4397 1897 
Q 4397 2391 4306 2534 
Q 4184 2722 3931 2722 
Q 3747 2722 3584 2609 
Q 3422 2497 3350 2280 
Q 3278 2063 3278 1594 
L 3278 0 
L 2400 0 
L 2400 1819 
Q 2400 2303 2353 2443 
Q 2306 2584 2207 2653 
Q 2109 2722 1941 2722 
Q 1738 2722 1575 2612 
Q 1413 2503 1342 2297 
Q 1272 2091 1272 1613 
L 1272 0 
L 394 0 
L 394 3319 
z
" transform="scale(0.015625)"/>
       <path id="Arial-BoldMT-2f" d="M -9 -78 
L 1125 4659 
L 1784 4659 
L 638 -78 
L -9 -78 
z
" transform="scale(0.015625)"/>
      </defs>
      <use xlink:href="#Arial-BoldMT-52"/>
      <use xlink:href="#Arial-BoldMT-65" x="72.216797"/>
      <use xlink:href="#Arial-BoldMT-74" x="127.832031"/>
      <use xlink:href="#Arial-BoldMT-65" x="161.132812"/>
      <use xlink:href="#Arial-BoldMT-6e" x="216.748047"/>
      <use xlink:href="#Arial-BoldMT-74" x="277.832031"/>
      <use xlink:href="#Arial-BoldMT-69" x="311.132812"/>
      <use xlink:href="#Arial-BoldMT-6f" x="338.916016"/>
      <use xlink:href="#Arial-BoldMT-6e" x="400"/>
      <use xlink:href="#Arial-BoldMT-20" x="461.083984"/>
      <use xlink:href="#Arial-BoldMT-74" x="488.867188"/>
      <use xlink:href="#Arial-BoldMT-69" x="522.167969"/>
      <use xlink:href="#Arial-BoldMT-6d" x="549.951172"/>
      <use xlink:href="#Arial-BoldMT-65" x="638.867188"/>
      <use xlink:href="#Arial-BoldMT-20" x="694.482422"/>
      <use xlink:href="#Arial-BoldMT-2f" x="722.265625"/>
      <use xlink:href="#Arial-BoldMT-20" x="750.048828"/>
      <use xlink:href="#Arial-BoldMT-6d" x="777.832031"/>
      <use xlink:href="#Arial-BoldMT-69" x="866.748047"/>
      <use xlink:href="#Arial-BoldMT-6e" x="894.53125"/>
     </g>
    </g>
   </g>
   <g id="matplotlib.axis_2">
    <g id="ytick_1">
     <g id="line2d_8">
      <defs>
       <path id="m0c40bc3f0c" d="M 0 0 
L -8 0 
" style="stroke: #000000; stroke-width: 2"/>
      </defs>
      <g>
       <use xlink:href="#m0c40bc3f0c" x="61.69274" y="181.670045" style="stroke: #000000; stroke-width: 2"/>
      </g>
     </g>
     <g id="text_9">
      <!-- 0.0 -->
      <g transform="translate(23.67274 188.112077) scale(0.18 -0.18)">
       <use xlink:href="#Arial-BoldMT-30"/>
       <use xlink:href="#Arial-BoldMT-2e" x="55.615234"/>
       <use xlink:href="#Arial-BoldMT-30" x="83.398438"/>
      </g>
     </g>
    </g>
    <g id="ytick_2">
     <g id="line2d_9">
      <g>
       <use xlink:href="#m0c40bc3f0c" x="61.69274" y="104.434978" style="stroke: #000000; stroke-width: 2"/>
      </g>
     </g>
     <g id="text_10">
      <!-- 0.5 -->
      <g transform="translate(23.67274 110.877009) scale(0.18 -0.18)">
       <use xlink:href="#Arial-BoldMT-30"/>
       <use xlink:href="#Arial-BoldMT-2e" x="55.615234"/>
       <use xlink:href="#Arial-BoldMT-35" x="83.398438"/>
      </g>
     </g>
    </g>
    <g id="ytick_3">
     <g id="line2d_10">
      <g>
       <use xlink:href="#m0c40bc3f0c" x="61.69274" y="27.199911" style="stroke: #000000; stroke-width: 2"/>
      </g>
     </g>
     <g id="text_11">
      <!-- 1.0 -->
      <g transform="translate(23.67274 33.641942) scale(0.18 -0.18)">
       <use xlink:href="#Arial-BoldMT-31"/>
       <use xlink:href="#Arial-BoldMT-2e" x="55.615234"/>
       <use xlink:href="#Arial-BoldMT-30" x="83.398438"/>
      </g>
     </g>
    </g>
    <g id="text_12">
     <!-- Rel. Intensity -->
     <g transform="translate(15.884303 157.071875) rotate(-90) scale(0.18 -0.18)">
      <defs>
       <path id="Arial-BoldMT-6c" d="M 459 0 
L 459 4581 
L 1338 4581 
L 1338 0 
L 459 0 
z
" transform="scale(0.015625)"/>
       <path id="Arial-BoldMT-49" d="M 438 0 
L 438 4581 
L 1363 4581 
L 1363 0 
L 438 0 
z
" transform="scale(0.015625)"/>
       <path id="Arial-BoldMT-73" d="M 150 947 
L 1031 1081 
Q 1088 825 1259 692 
Q 1431 559 1741 559 
Q 2081 559 2253 684 
Q 2369 772 2369 919 
Q 2369 1019 2306 1084 
Q 2241 1147 2013 1200 
Q 950 1434 666 1628 
Q 272 1897 272 2375 
Q 272 2806 612 3100 
Q 953 3394 1669 3394 
Q 2350 3394 2681 3172 
Q 3013 2950 3138 2516 
L 2309 2363 
Q 2256 2556 2107 2659 
Q 1959 2763 1684 2763 
Q 1338 2763 1188 2666 
Q 1088 2597 1088 2488 
Q 1088 2394 1175 2328 
Q 1294 2241 1995 2081 
Q 2697 1922 2975 1691 
Q 3250 1456 3250 1038 
Q 3250 581 2869 253 
Q 2488 -75 1741 -75 
Q 1063 -75 667 200 
Q 272 475 150 947 
z
" transform="scale(0.015625)"/>
       <path id="Arial-BoldMT-79" d="M 44 3319 
L 978 3319 
L 1772 963 
L 2547 3319 
L 3456 3319 
L 2284 125 
L 2075 -453 
Q 1959 -744 1854 -897 
Q 1750 -1050 1614 -1145 
Q 1478 -1241 1279 -1294 
Q 1081 -1347 831 -1347 
Q 578 -1347 334 -1294 
L 256 -606 
Q 463 -647 628 -647 
Q 934 -647 1081 -467 
Q 1228 -288 1306 -9 
L 44 3319 
z
" transform="scale(0.015625)"/>
      </defs>
      <use xlink:href="#Arial-BoldMT-52"/>
      <use xlink:href="#Arial-BoldMT-65" x="72.216797"/>
      <use xlink:href="#Arial-BoldMT-6c" x="127.832031"/>
      <use xlink:href="#Arial-BoldMT-2e" x="155.615234"/>
      <use xlink:href="#Arial-BoldMT-20" x="183.398438"/>
      <use xlink:href="#Arial-BoldMT-49" x="211.181641"/>
      <use xlink:href="#Arial-BoldMT-6e" x="238.964844"/>
      <use xlink:href="#Arial-BoldMT-74" x="300.048828"/>
      <use xlink:href="#Arial-BoldMT-65" x="333.349609"/>
      <use xlink:href="#Arial-BoldMT-6e" x="388.964844"/>
      <use xlink:href="#Arial-BoldMT-73" x="450.048828"/>
      <use xlink:href="#Arial-BoldMT-69" x="505.664062"/>
      <use xlink:href="#Arial-BoldMT-74" x="533.447266"/>
      <use xlink:href="#Arial-BoldMT-79" x="566.748047"/>
     </g>
    </g>
   </g>
   <g id="line2d_11">
    <path d="M 112.75215 181.806646 
L 134.877894 181.652428 
L 177.427402 181.589019 
L 193.879878 181.487195 
L 194.447204 181.335271 
L 195.01453 180.946063 
L 195.581862 180.149255 
L 196.149188 178.825003 
L 197.000177 175.995126 
L 198.13483 172.135008 
L 198.702156 170.846785 
L 199.269482 170.168715 
L 199.553145 170.055925 
L 199.836808 170.084874 
L 200.120472 170.252669 
L 200.687798 171.011568 
L 201.255124 172.384215 
L 201.82245 174.41269 
L 202.67344 178.437501 
L 204.091765 185.256608 
L 204.942755 188.013058 
L 205.510081 189.167317 
L 206.077407 189.855727 
L 206.644733 190.169277 
L 207.21206 190.19296 
L 207.779386 189.998042 
L 208.630375 189.438352 
L 212.885322 186.080483 
L 215.4383 184.642028 
L 217.991268 183.421046 
L 219.97691 182.71929 
L 221.962552 182.271912 
L 224.231857 181.985114 
L 227.635825 181.809486 
L 236.429391 181.689716 
L 255.718494 181.669028 
L 319.542766 181.711841 
L 349.89474 181.696051 
L 372.020484 181.127904 
L 383.650692 180.810671 
L 395.848206 180.67888 
L 409.180393 180.839119 
L 427.902179 181.455569 
L 448.325944 182.388911 
L 465.345751 183.083902 
L 477.543285 183.410728 
L 488.322484 183.503941 
L 490.024463 183.363888 
L 491.442758 183.019582 
L 492.861094 182.402007 
L 494.279389 181.537937 
L 495.981408 180.231786 
L 500.803661 176.301871 
L 501.938314 175.716575 
L 502.789323 175.470034 
L 503.640292 175.412796 
L 504.774945 175.598402 
L 506.193281 176.105189 
L 508.178902 177.080882 
L 511.299217 178.88408 
L 514.703174 180.843629 
L 516.405153 181.544684 
L 518.107132 181.975825 
L 520.376437 182.270284 
L 523.213068 182.388652 
L 528.319004 182.366781 
L 543.920496 181.923336 
L 560.372997 181.558613 
L 572.854174 181.507139 
L 583.917056 181.711521 
L 599.802191 182.243848 
L 611.716042 182.839865 
L 639.798711 184.215309 
L 660.222496 184.703578 
L 662.775444 184.576699 
L 663.34277 184.247393 
L 663.626453 183.839268 
L 663.910096 183.125424 
L 664.19378 181.952495 
L 664.477422 180.133006 
L 664.761106 177.461874 
L 665.328432 168.793662 
L 665.895758 154.90347 
L 666.746768 125.293987 
L 668.165063 71.19418 
L 669.016073 48.007602 
L 669.583399 37.907981 
L 670.150725 31.509086 
L 670.718052 28.11026 
L 671.001694 27.362118 
L 671.285378 27.199911 
L 671.569021 27.580112 
L 671.852704 28.530347 
L 672.42003 32.000072 
L 672.987357 37.628486 
L 673.554683 45.390629 
L 674.405652 60.757402 
L 676.391314 104.37538 
L 677.525966 126.566838 
L 678.376936 139.941718 
L 679.227945 150.433576 
L 680.078914 158.36191 
L 680.929924 164.1918 
L 681.780893 168.405886 
L 682.631903 171.439681 
L 683.482872 173.644805 
L 684.333881 175.281427 
L 685.18485 176.531176 
L 686.319503 177.785386 
L 687.454196 178.720691 
L 688.872491 179.594529 
L 690.57447 180.363126 
L 692.560132 181.011032 
L 694.829437 181.511692 
L 697.098742 181.799057 
L 701.070026 182.021168 
L 708.445267 182.217021 
L 724.897728 181.992899 
L 756.951721 181.582515 
L 769.716541 181.782742 
L 781.630432 182.268281 
L 797.79925 183.186214 
L 802.33786 183.363058 
L 807.160113 183.256517 
L 809.996785 183.557933 
L 815.10268 184.109481 
L 817.939352 184.203681 
L 818.790362 184.035361 
L 819.64129 183.619303 
L 820.775943 182.732385 
L 822.194319 181.670777 
L 823.045248 181.28951 
L 823.896257 181.126921 
L 824.747267 181.165064 
L 825.881919 181.472389 
L 827.583858 182.250867 
L 829.853162 183.27781 
L 831.555182 183.797617 
L 833.540844 184.147937 
L 836.661158 184.418025 
L 840.916044 184.539674 
L 842.050697 184.458787 
L 842.618064 184.27789 
L 843.185349 183.821949 
L 843.752716 182.826089 
L 844.320002 180.950062 
L 844.887369 177.895944 
L 845.454654 173.572793 
L 846.589307 162.328824 
L 847.723959 151.453339 
L 848.574969 145.659272 
L 849.142336 143.154408 
L 849.709621 141.695959 
L 849.993264 141.337866 
L 850.276988 141.213798 
L 850.560631 141.31153 
L 850.844274 141.61922 
L 851.411641 142.811477 
L 851.978926 144.687348 
L 852.829936 148.530787 
L 854.248231 156.501293 
L 855.950251 165.945036 
L 857.084903 170.955431 
L 857.935913 173.857272 
L 858.786841 176.083797 
L 859.637851 177.73462 
L 860.48886 178.929329 
L 861.33987 179.777896 
L 862.474523 180.541367 
L 863.892818 181.153941 
L 865.594756 181.630036 
L 868.147785 182.089392 
L 871.551742 182.455693 
L 874.9557 182.590672 
L 879.777952 182.528511 
L 893.110139 182.080016 
L 906.725969 181.537399 
L 909.846284 181.401767 
L 914.101251 181.475563 
L 920.909166 181.587642 
L 936.226933 181.534779 
L 941.33291 181.530057 
L 956.650759 181.657092 
L 985.584438 181.598022 
L 991.824986 181.582711 
L 1052.812658 181.709751 
L 1133.656707 181.693331 
L 1133.656707 181.693331 
" clip-path="url(#pdb47a9021e)" style="fill: none; stroke: #000000; stroke-width: 2.5; stroke-linecap: square"/>
   </g>
   <g id="line2d_12">
    <path d="M 248.910577 199.12726 
L 248.910577 3.00024 
" clip-path="url(#pdb47a9021e)" style="fill: none; stroke: #d55e00; stroke-width: 2; stroke-linecap: square"/>
   </g>
   <g id="line2d_13">
    <path d="M 1133.94035 199.12726 
L 1133.94035 3.00024 
" clip-path="url(#pdb47a9021e)" style="fill: none; stroke: #d55e00; stroke-width: 2; stroke-linecap: square"/>
   </g>
   <g id="patch_3">
    <path d="M 61.69274 199.12726 
L 61.69274 3.00024 
" style="fill: none; stroke: #000000; stroke-width: 2; stroke-linejoin: miter; stroke-linecap: square"/>
   </g>
   <g id="patch_4">
    <path d="M 1184.99976 199.12726 
L 1184.99976 3.00024 
" style="fill: none; stroke: #000000; stroke-width: 2; stroke-linejoin: miter; stroke-linecap: square"/>
   </g>
   <g id="patch_5">
    <path d="M 61.69274 199.12726 
L 1184.99976 199.12726 
" style="fill: none; stroke: #000000; stroke-width: 2; stroke-linejoin: miter; stroke-linecap: square"/>
   </g>
   <g id="patch_6">
    <path d="M 61.69274 3.00024 
L 1184.99976 3.00024 
" style="fill: none; stroke: #000000; stroke-width: 2; stroke-linejoin: miter; stroke-linecap: square"/>
   </g>
   <g id="text_13">
    <!-- ANALYSIS -->
    <g style="fill: #d55e00" transform="translate(242.547644 141.657583) rotate(-90) scale(0.14994 -0.14994)">
     <defs>
      <path id="Arial-BoldMT-41" d="M 4597 0 
L 3591 0 
L 3191 1041 
L 1359 1041 
L 981 0 
L 0 0 
L 1784 4581 
L 2763 4581 
L 4597 0 
z
M 2894 1813 
L 2263 3513 
L 1644 1813 
L 2894 1813 
z
" transform="scale(0.015625)"/>
      <path id="Arial-BoldMT-4e" d="M 475 0 
L 475 4581 
L 1375 4581 
L 3250 1522 
L 3250 4581 
L 4109 4581 
L 4109 0 
L 3181 0 
L 1334 2988 
L 1334 0 
L 475 0 
z
" transform="scale(0.015625)"/>
      <path id="Arial-BoldMT-4c" d="M 491 0 
L 491 4544 
L 1416 4544 
L 1416 772 
L 3716 772 
L 3716 0 
L 491 0 
z
" transform="scale(0.015625)"/>
      <path id="Arial-BoldMT-59" d="M 1669 0 
L 1669 1928 
L -9 4581 
L 1075 4581 
L 2153 2769 
L 3209 4581 
L 4275 4581 
L 2591 1922 
L 2591 0 
L 1669 0 
z
" transform="scale(0.015625)"/>
      <path id="Arial-BoldMT-53" d="M 231 1491 
L 1131 1578 
Q 1213 1125 1461 912 
Q 1709 700 2131 700 
Q 2578 700 2804 889 
Q 3031 1078 3031 1331 
Q 3031 1494 2936 1608 
Q 2841 1722 2603 1806 
Q 2441 1863 1863 2006 
Q 1119 2191 819 2459 
Q 397 2838 397 3381 
Q 397 3731 595 4036 
Q 794 4341 1167 4500 
Q 1541 4659 2069 4659 
Q 2931 4659 3367 4281 
Q 3803 3903 3825 3272 
L 2900 3231 
Q 2841 3584 2645 3739 
Q 2450 3894 2059 3894 
Q 1656 3894 1428 3728 
Q 1281 3622 1281 3444 
Q 1281 3281 1419 3166 
Q 1594 3019 2269 2859 
Q 2944 2700 3267 2529 
Q 3591 2359 3773 2064 
Q 3956 1769 3956 1334 
Q 3956 941 3737 597 
Q 3519 253 3119 86 
Q 2719 -81 2122 -81 
Q 1253 -81 787 320 
Q 322 722 231 1491 
z
" transform="scale(0.015625)"/>
     </defs>
     <use xlink:href="#Arial-BoldMT-41"/>
     <use xlink:href="#Arial-BoldMT-4e" x="72.216797"/>
     <use xlink:href="#Arial-BoldMT-41" x="144.433594"/>
     <use xlink:href="#Arial-BoldMT-4c" x="216.650391"/>
     <use xlink:href="#Arial-BoldMT-59" x="268.609375"/>
     <use xlink:href="#Arial-BoldMT-53" x="335.308594"/>
     <use xlink:href="#Arial-BoldMT-49" x="402.007812"/>
     <use xlink:href="#Arial-BoldMT-53" x="429.791016"/>
    </g>
   </g>
   <g id="text_14">
    <!-- START -->
    <g style="fill: #d55e00" transform="translate(266.450922 128.869341) rotate(-90) scale(0.14994 -0.14994)">
     <defs>
      <path id="Arial-BoldMT-54" d="M 1497 0 
L 1497 3806 
L 138 3806 
L 138 4581 
L 3778 4581 
L 3778 3806 
L 2422 3806 
L 2422 0 
L 1497 0 
z
" transform="scale(0.015625)"/>
     </defs>
     <use xlink:href="#Arial-BoldMT-53"/>
     <use xlink:href="#Arial-BoldMT-54" x="66.699219"/>
     <use xlink:href="#Arial-BoldMT-41" x="120.408203"/>
     <use xlink:href="#Arial-BoldMT-52" x="192.625"/>
     <use xlink:href="#Arial-BoldMT-54" x="264.841797"/>
    </g>
   </g>
   <g id="text_15">
    <!-- ANALYSIS -->
    <g style="fill: #d55e00" transform="translate(1127.577417 141.657583) rotate(-90) scale(0.14994 -0.14994)">
     <use xlink:href="#Arial-BoldMT-41"/>
     <use xlink:href="#Arial-BoldMT-4e" x="72.216797"/>
     <use xlink:href="#Arial-BoldMT-41" x="144.433594"/>
     <use xlink:href="#Arial-BoldMT-4c" x="216.650391"/>
     <use xlink:href="#Arial-BoldMT-59" x="268.609375"/>
     <use xlink:href="#Arial-BoldMT-53" x="335.308594"/>
     <use xlink:href="#Arial-BoldMT-49" x="402.007812"/>
     <use xlink:href="#Arial-BoldMT-53" x="429.791016"/>
    </g>
   </g>
   <g id="text_16">
    <!-- END -->
    <g style="fill: #d55e00" transform="translate(1151.480695 120.264191) rotate(-90) scale(0.14994 -0.14994)">
     <defs>
      <path id="Arial-BoldMT-45" d="M 466 0 
L 466 4581 
L 3863 4581 
L 3863 3806 
L 1391 3806 
L 1391 2791 
L 3691 2791 
L 3691 2019 
L 1391 2019 
L 1391 772 
L 3950 772 
L 3950 0 
L 466 0 
z
" transform="scale(0.015625)"/>
      <path id="Arial-BoldMT-44" d="M 463 4581 
L 2153 4581 
Q 2725 4581 3025 4494 
Q 3428 4375 3715 4072 
Q 4003 3769 4153 3330 
Q 4303 2891 4303 2247 
Q 4303 1681 4163 1272 
Q 3991 772 3672 463 
Q 3431 228 3022 97 
Q 2716 0 2203 0 
L 463 0 
L 463 4581 
z
M 1388 3806 
L 1388 772 
L 2078 772 
Q 2466 772 2638 816 
Q 2863 872 3011 1006 
Q 3159 1141 3253 1448 
Q 3347 1756 3347 2288 
Q 3347 2819 3253 3103 
Q 3159 3388 2990 3547 
Q 2822 3706 2563 3763 
Q 2369 3806 1803 3806 
L 1388 3806 
z
" transform="scale(0.015625)"/>
     </defs>
     <use xlink:href="#Arial-BoldMT-45"/>
     <use xlink:href="#Arial-BoldMT-4e" x="66.699219"/>
     <use xlink:href="#Arial-BoldMT-44" x="138.916016"/>
    </g>
   </g>
  </g>
 </g>
 <defs>
  <clipPath id="pdb47a9021e">
   <rect x="61.69274" y="3.00024" width="1123.30702" height="196.12702"/>
  </clipPath>
 </defs>
</svg>
