<?xml version="1.0" encoding="utf-8" standalone="no"?>
<!DOCTYPE svg PUBLIC "-//W3C//DTD SVG 1.1//EN"
  "http://www.w3.org/Graphics/SVG/1.1/DTD/svg11.dtd">
<svg xmlns:xlink="http://www.w3.org/1999/xlink" width="1188pt" height="252pt" viewBox="0 0 1188 252" xmlns="http://www.w3.org/2000/svg" version="1.1">
 <metadata>
  <rdf:RDF xmlns:dc="http://purl.org/dc/elements/1.1/" xmlns:cc="http://creativecommons.org/ns#" xmlns:rdf="http://www.w3.org/1999/02/22-rdf-syntax-ns#">
   <cc:Work>
    <dc:type rdf:resource="http://purl.org/dc/dcmitype/StillImage"/>
    <dc:date>2024-05-14T23:08:11.160607</dc:date>
    <dc:format>image/svg+xml</dc:format>
    <dc:creator>
     <cc:Agent>
      <dc:title>Matplotlib v3.8.0, https://matplotlib.org/</dc:title>
     </cc:Agent>
    </dc:creator>
   </cc:Work>
  </rdf:RDF>
 </metadata>
 <defs>
  <style type="text/css">*{stroke-linejoin: round; stroke-linecap: butt}</style>
 </defs>
 <g id="figure_1">
  <g id="patch_1">
   <path d="M 0 252 
L 1188 252 
L 1188 0 
L 0 0 
z
" style="fill: #ffffff"/>
  </g>
  <g id="axes_1">
   <g id="patch_2">
    <path d="M 3.00024 198.907885 
L 1184.99976 198.907885 
L 1184.99976 3.00024 
L 3.00024 3.00024 
z
" style="fill: #ffffff"/>
   </g>
   <g id="matplotlib.axis_1">
    <g id="xtick_1">
     <g id="line2d_1">
      <defs>
       <path id="m9f0bc3407f" d="M 0 0 
L 0 8 
" style="stroke: #000000; stroke-width: 2"/>
      </defs>
      <g>
       <use xlink:href="#m9f0bc3407f" x="1131.272509" y="198.907885" style="stroke: #000000; stroke-width: 2"/>
      </g>
     </g>
     <g id="text_1">
      <!-- 0 -->
      <g transform="translate(1126.267665 224.791947) scale(0.18 -0.18)">
       <defs>
        <path id="Arial-BoldMT-30" d="M 1756 4600 
Q 2422 4600 2797 4125 
Q 3244 3563 3244 2259 
Q 3244 959 2794 391 
Q 2422 -78 1756 -78 
Q 1088 -78 678 436 
Q 269 950 269 2269 
Q 269 3563 719 4131 
Q 1091 4600 1756 4600 
z
M 1756 3872 
Q 1597 3872 1472 3770 
Q 1347 3669 1278 3406 
Q 1188 3066 1188 2259 
Q 1188 1453 1269 1151 
Q 1350 850 1473 750 
Q 1597 650 1756 650 
Q 1916 650 2041 751 
Q 2166 853 2234 1116 
Q 2325 1453 2325 2259 
Q 2325 3066 2244 3367 
Q 2163 3669 2039 3770 
Q 1916 3872 1756 3872 
z
" transform="scale(0.015625)"/>
       </defs>
       <use xlink:href="#Arial-BoldMT-30"/>
      </g>
     </g>
    </g>
    <g id="xtick_2">
     <g id="line2d_2">
      <g>
       <use xlink:href="#m9f0bc3407f" x="1023.818007" y="198.907885" style="stroke: #000000; stroke-width: 2"/>
      </g>
     </g>
     <g id="text_2">
      <!-- 1 -->
      <g transform="translate(1018.813164 224.791947) scale(0.18 -0.18)">
       <defs>
        <path id="Arial-BoldMT-31" d="M 2519 0 
L 1641 0 
L 1641 3309 
Q 1159 2859 506 2644 
L 506 3441 
Q 850 3553 1253 3867 
Q 1656 4181 1806 4600 
L 2519 4600 
L 2519 0 
z
" transform="scale(0.015625)"/>
       </defs>
       <use xlink:href="#Arial-BoldMT-31"/>
      </g>
     </g>
    </g>
    <g id="xtick_3">
     <g id="line2d_3">
      <g>
       <use xlink:href="#m9f0bc3407f" x="916.363505" y="198.907885" style="stroke: #000000; stroke-width: 2"/>
      </g>
     </g>
     <g id="text_3">
      <!-- 2 -->
      <g transform="translate(911.358662 224.791947) scale(0.18 -0.18)">
       <defs>
        <path id="Arial-BoldMT-32" d="M 3238 816 
L 3238 0 
L 159 0 
Q 209 463 459 877 
Q 709 1291 1447 1975 
Q 2041 2528 2175 2725 
Q 2356 2997 2356 3263 
Q 2356 3556 2198 3714 
Q 2041 3872 1763 3872 
Q 1488 3872 1325 3706 
Q 1163 3541 1138 3156 
L 263 3244 
Q 341 3969 753 4284 
Q 1166 4600 1784 4600 
Q 2463 4600 2850 4234 
Q 3238 3869 3238 3325 
Q 3238 3016 3127 2736 
Q 3016 2456 2775 2150 
Q 2616 1947 2200 1565 
Q 1784 1184 1673 1059 
Q 1563 934 1494 816 
L 3238 816 
z
" transform="scale(0.015625)"/>
       </defs>
       <use xlink:href="#Arial-BoldMT-32"/>
      </g>
     </g>
    </g>
    <g id="xtick_4">
     <g id="line2d_4">
      <g>
       <use xlink:href="#m9f0bc3407f" x="808.909004" y="198.907885" style="stroke: #000000; stroke-width: 2"/>
      </g>
     </g>
     <g id="text_4">
      <!-- 3 -->
      <g transform="translate(803.90416 224.791947) scale(0.18 -0.18)">
       <defs>
        <path id="Arial-BoldMT-33" d="M 241 1216 
L 1091 1319 
Q 1131 994 1309 822 
Q 1488 650 1741 650 
Q 2013 650 2198 856 
Q 2384 1063 2384 1413 
Q 2384 1744 2206 1937 
Q 2028 2131 1772 2131 
Q 1603 2131 1369 2066 
L 1466 2781 
Q 1822 2772 2009 2936 
Q 2197 3100 2197 3372 
Q 2197 3603 2059 3740 
Q 1922 3878 1694 3878 
Q 1469 3878 1309 3722 
Q 1150 3566 1116 3266 
L 306 3403 
Q 391 3819 561 4067 
Q 731 4316 1036 4458 
Q 1341 4600 1719 4600 
Q 2366 4600 2756 4188 
Q 3078 3850 3078 3425 
Q 3078 2822 2419 2463 
Q 2813 2378 3048 2084 
Q 3284 1791 3284 1375 
Q 3284 772 2843 347 
Q 2403 -78 1747 -78 
Q 1125 -78 715 280 
Q 306 638 241 1216 
z
" transform="scale(0.015625)"/>
       </defs>
       <use xlink:href="#Arial-BoldMT-33"/>
      </g>
     </g>
    </g>
    <g id="xtick_5">
     <g id="line2d_5">
      <g>
       <use xlink:href="#m9f0bc3407f" x="701.454502" y="198.907885" style="stroke: #000000; stroke-width: 2"/>
      </g>
     </g>
     <g id="text_5">
      <!-- 4 -->
      <g transform="translate(696.449658 224.791947) scale(0.18 -0.18)">
       <defs>
        <path id="Arial-BoldMT-34" d="M 1994 0 
L 1994 922 
L 119 922 
L 119 1691 
L 2106 4600 
L 2844 4600 
L 2844 1694 
L 3413 1694 
L 3413 922 
L 2844 922 
L 2844 0 
L 1994 0 
z
M 1994 1694 
L 1994 3259 
L 941 1694 
L 1994 1694 
z
" transform="scale(0.015625)"/>
       </defs>
       <use xlink:href="#Arial-BoldMT-34"/>
      </g>
     </g>
    </g>
    <g id="xtick_6">
     <g id="line2d_6">
      <g>
       <use xlink:href="#m9f0bc3407f" x="594" y="198.907885" style="stroke: #000000; stroke-width: 2"/>
      </g>
     </g>
     <g id="text_6">
      <!-- 5 -->
      <g transform="translate(588.995156 224.791947) scale(0.18 -0.18)">
       <defs>
        <path id="Arial-BoldMT-35" d="M 284 1178 
L 1159 1269 
Q 1197 972 1381 798 
Q 1566 625 1806 625 
Q 2081 625 2272 848 
Q 2463 1072 2463 1522 
Q 2463 1944 2273 2155 
Q 2084 2366 1781 2366 
Q 1403 2366 1103 2031 
L 391 2134 
L 841 4519 
L 3163 4519 
L 3163 3697 
L 1506 3697 
L 1369 2919 
Q 1663 3066 1969 3066 
Q 2553 3066 2959 2641 
Q 3366 2216 3366 1538 
Q 3366 972 3038 528 
Q 2591 -78 1797 -78 
Q 1163 -78 763 262 
Q 363 603 284 1178 
z
" transform="scale(0.015625)"/>
       </defs>
       <use xlink:href="#Arial-BoldMT-35"/>
      </g>
     </g>
    </g>
    <g id="xtick_7">
     <g id="line2d_7">
      <g>
       <use xlink:href="#m9f0bc3407f" x="486.545498" y="198.907885" style="stroke: #000000; stroke-width: 2"/>
      </g>
     </g>
     <g id="text_7">
      <!-- 6 -->
      <g transform="translate(481.540654 224.791947) scale(0.18 -0.18)">
       <defs>
        <path id="Arial-BoldMT-36" d="M 3247 3459 
L 2397 3366 
Q 2366 3628 2234 3753 
Q 2103 3878 1894 3878 
Q 1616 3878 1423 3628 
Q 1231 3378 1181 2588 
Q 1509 2975 1997 2975 
Q 2547 2975 2939 2556 
Q 3331 2138 3331 1475 
Q 3331 772 2918 347 
Q 2506 -78 1859 -78 
Q 1166 -78 719 461 
Q 272 1000 272 2228 
Q 272 3488 737 4044 
Q 1203 4600 1947 4600 
Q 2469 4600 2811 4308 
Q 3153 4016 3247 3459 
z
M 1256 1544 
Q 1256 1116 1453 883 
Q 1650 650 1903 650 
Q 2147 650 2309 840 
Q 2472 1031 2472 1466 
Q 2472 1913 2297 2120 
Q 2122 2328 1859 2328 
Q 1606 2328 1431 2129 
Q 1256 1931 1256 1544 
z
" transform="scale(0.015625)"/>
       </defs>
       <use xlink:href="#Arial-BoldMT-36"/>
      </g>
     </g>
    </g>
    <g id="xtick_8">
     <g id="line2d_8">
      <g>
       <use xlink:href="#m9f0bc3407f" x="379.090996" y="198.907885" style="stroke: #000000; stroke-width: 2"/>
      </g>
     </g>
     <g id="text_8">
      <!-- 7 -->
      <g transform="translate(374.086153 224.791947) scale(0.18 -0.18)">
       <defs>
        <path id="Arial-BoldMT-37" d="M 272 3703 
L 272 4519 
L 3275 4519 
L 3275 3881 
Q 2903 3516 2518 2831 
Q 2134 2147 1932 1376 
Q 1731 606 1734 0 
L 888 0 
Q 909 950 1279 1937 
Q 1650 2925 2269 3703 
L 272 3703 
z
" transform="scale(0.015625)"/>
       </defs>
       <use xlink:href="#Arial-BoldMT-37"/>
      </g>
     </g>
    </g>
    <g id="xtick_9">
     <g id="line2d_9">
      <g>
       <use xlink:href="#m9f0bc3407f" x="271.636495" y="198.907885" style="stroke: #000000; stroke-width: 2"/>
      </g>
     </g>
     <g id="text_9">
      <!-- 8 -->
      <g transform="translate(266.631651 224.791947) scale(0.18 -0.18)">
       <defs>
        <path id="Arial-BoldMT-38" d="M 1025 2472 
Q 684 2616 529 2867 
Q 375 3119 375 3419 
Q 375 3931 733 4265 
Q 1091 4600 1750 4600 
Q 2403 4600 2764 4265 
Q 3125 3931 3125 3419 
Q 3125 3100 2959 2851 
Q 2794 2603 2494 2472 
Q 2875 2319 3073 2025 
Q 3272 1731 3272 1347 
Q 3272 713 2867 316 
Q 2463 -81 1791 -81 
Q 1166 -81 750 247 
Q 259 634 259 1309 
Q 259 1681 443 1992 
Q 628 2303 1025 2472 
z
M 1206 3356 
Q 1206 3094 1354 2947 
Q 1503 2800 1750 2800 
Q 2000 2800 2150 2948 
Q 2300 3097 2300 3359 
Q 2300 3606 2151 3754 
Q 2003 3903 1759 3903 
Q 1506 3903 1356 3753 
Q 1206 3603 1206 3356 
z
M 1125 1394 
Q 1125 1031 1311 828 
Q 1497 625 1775 625 
Q 2047 625 2225 820 
Q 2403 1016 2403 1384 
Q 2403 1706 2222 1901 
Q 2041 2097 1763 2097 
Q 1441 2097 1283 1875 
Q 1125 1653 1125 1394 
z
" transform="scale(0.015625)"/>
       </defs>
       <use xlink:href="#Arial-BoldMT-38"/>
      </g>
     </g>
    </g>
    <g id="xtick_10">
     <g id="line2d_10">
      <g>
       <use xlink:href="#m9f0bc3407f" x="164.181993" y="198.907885" style="stroke: #000000; stroke-width: 2"/>
      </g>
     </g>
     <g id="text_10">
      <!-- 9 -->
      <g transform="translate(159.177149 224.791947) scale(0.18 -0.18)">
       <defs>
        <path id="Arial-BoldMT-39" d="M 291 1059 
L 1141 1153 
Q 1172 894 1303 769 
Q 1434 644 1650 644 
Q 1922 644 2112 894 
Q 2303 1144 2356 1931 
Q 2025 1547 1528 1547 
Q 988 1547 595 1964 
Q 203 2381 203 3050 
Q 203 3747 617 4173 
Q 1031 4600 1672 4600 
Q 2369 4600 2816 4061 
Q 3263 3522 3263 2288 
Q 3263 1031 2797 475 
Q 2331 -81 1584 -81 
Q 1047 -81 715 205 
Q 384 491 291 1059 
z
M 2278 2978 
Q 2278 3403 2083 3637 
Q 1888 3872 1631 3872 
Q 1388 3872 1227 3680 
Q 1066 3488 1066 3050 
Q 1066 2606 1241 2398 
Q 1416 2191 1678 2191 
Q 1931 2191 2104 2391 
Q 2278 2591 2278 2978 
z
" transform="scale(0.015625)"/>
       </defs>
       <use xlink:href="#Arial-BoldMT-39"/>
      </g>
     </g>
    </g>
    <g id="xtick_11">
     <g id="line2d_11">
      <g>
       <use xlink:href="#m9f0bc3407f" x="56.727491" y="198.907885" style="stroke: #000000; stroke-width: 2"/>
      </g>
     </g>
     <g id="text_11">
      <!-- 10 -->
      <g transform="translate(46.717803 224.791947) scale(0.18 -0.18)">
       <use xlink:href="#Arial-BoldMT-31"/>
       <use xlink:href="#Arial-BoldMT-30" x="55.615234"/>
      </g>
     </g>
    </g>
    <g id="text_12">
     <!-- Chemical Shift / ppm -->
     <g transform="translate(504.992813 245.447573) scale(0.18 -0.18)">
      <defs>
       <path id="Arial-BoldMT-43" d="M 3397 1684 
L 4294 1400 
Q 4088 650 3608 286 
Q 3128 -78 2391 -78 
Q 1478 -78 890 545 
Q 303 1169 303 2250 
Q 303 3394 893 4026 
Q 1484 4659 2447 4659 
Q 3288 4659 3813 4163 
Q 4125 3869 4281 3319 
L 3366 3100 
Q 3284 3456 3026 3662 
Q 2769 3869 2400 3869 
Q 1891 3869 1573 3503 
Q 1256 3138 1256 2319 
Q 1256 1450 1568 1081 
Q 1881 713 2381 713 
Q 2750 713 3015 947 
Q 3281 1181 3397 1684 
z
" transform="scale(0.015625)"/>
       <path id="Arial-BoldMT-68" d="M 1334 4581 
L 1334 2897 
Q 1759 3394 2350 3394 
Q 2653 3394 2897 3281 
Q 3141 3169 3264 2994 
Q 3388 2819 3433 2606 
Q 3478 2394 3478 1947 
L 3478 0 
L 2600 0 
L 2600 1753 
Q 2600 2275 2550 2415 
Q 2500 2556 2373 2639 
Q 2247 2722 2056 2722 
Q 1838 2722 1666 2615 
Q 1494 2509 1414 2295 
Q 1334 2081 1334 1663 
L 1334 0 
L 456 0 
L 456 4581 
L 1334 4581 
z
" transform="scale(0.015625)"/>
       <path id="Arial-BoldMT-65" d="M 2381 1056 
L 3256 909 
Q 3088 428 2723 176 
Q 2359 -75 1813 -75 
Q 947 -75 531 491 
Q 203 944 203 1634 
Q 203 2459 634 2926 
Q 1066 3394 1725 3394 
Q 2466 3394 2894 2905 
Q 3322 2416 3303 1406 
L 1103 1406 
Q 1113 1016 1316 798 
Q 1519 581 1822 581 
Q 2028 581 2168 693 
Q 2309 806 2381 1056 
z
M 2431 1944 
Q 2422 2325 2234 2523 
Q 2047 2722 1778 2722 
Q 1491 2722 1303 2513 
Q 1116 2303 1119 1944 
L 2431 1944 
z
" transform="scale(0.015625)"/>
       <path id="Arial-BoldMT-6d" d="M 394 3319 
L 1203 3319 
L 1203 2866 
Q 1638 3394 2238 3394 
Q 2556 3394 2790 3262 
Q 3025 3131 3175 2866 
Q 3394 3131 3647 3262 
Q 3900 3394 4188 3394 
Q 4553 3394 4806 3245 
Q 5059 3097 5184 2809 
Q 5275 2597 5275 2122 
L 5275 0 
L 4397 0 
L 4397 1897 
Q 4397 2391 4306 2534 
Q 4184 2722 3931 2722 
Q 3747 2722 3584 2609 
Q 3422 2497 3350 2280 
Q 3278 2063 3278 1594 
L 3278 0 
L 2400 0 
L 2400 1819 
Q 2400 2303 2353 2443 
Q 2306 2584 2207 2653 
Q 2109 2722 1941 2722 
Q 1738 2722 1575 2612 
Q 1413 2503 1342 2297 
Q 1272 2091 1272 1613 
L 1272 0 
L 394 0 
L 394 3319 
z
" transform="scale(0.015625)"/>
       <path id="Arial-BoldMT-69" d="M 459 3769 
L 459 4581 
L 1338 4581 
L 1338 3769 
L 459 3769 
z
M 459 0 
L 459 3319 
L 1338 3319 
L 1338 0 
L 459 0 
z
" transform="scale(0.015625)"/>
       <path id="Arial-BoldMT-63" d="M 3353 2338 
L 2488 2181 
Q 2444 2441 2289 2572 
Q 2134 2703 1888 2703 
Q 1559 2703 1364 2476 
Q 1169 2250 1169 1719 
Q 1169 1128 1367 884 
Q 1566 641 1900 641 
Q 2150 641 2309 783 
Q 2469 925 2534 1272 
L 3397 1125 
Q 3263 531 2881 228 
Q 2500 -75 1859 -75 
Q 1131 -75 698 384 
Q 266 844 266 1656 
Q 266 2478 700 2936 
Q 1134 3394 1875 3394 
Q 2481 3394 2839 3133 
Q 3197 2872 3353 2338 
z
" transform="scale(0.015625)"/>
       <path id="Arial-BoldMT-61" d="M 1116 2306 
L 319 2450 
Q 453 2931 781 3162 
Q 1109 3394 1756 3394 
Q 2344 3394 2631 3255 
Q 2919 3116 3036 2902 
Q 3153 2688 3153 2116 
L 3144 1091 
Q 3144 653 3186 445 
Q 3228 238 3344 0 
L 2475 0 
Q 2441 88 2391 259 
Q 2369 338 2359 363 
Q 2134 144 1878 34 
Q 1622 -75 1331 -75 
Q 819 -75 523 203 
Q 228 481 228 906 
Q 228 1188 362 1408 
Q 497 1628 739 1745 
Q 981 1863 1438 1950 
Q 2053 2066 2291 2166 
L 2291 2253 
Q 2291 2506 2166 2614 
Q 2041 2722 1694 2722 
Q 1459 2722 1328 2630 
Q 1197 2538 1116 2306 
z
M 2291 1594 
Q 2122 1538 1756 1459 
Q 1391 1381 1278 1306 
Q 1106 1184 1106 997 
Q 1106 813 1243 678 
Q 1381 544 1594 544 
Q 1831 544 2047 700 
Q 2206 819 2256 991 
Q 2291 1103 2291 1419 
L 2291 1594 
z
" transform="scale(0.015625)"/>
       <path id="Arial-BoldMT-6c" d="M 459 0 
L 459 4581 
L 1338 4581 
L 1338 0 
L 459 0 
z
" transform="scale(0.015625)"/>
       <path id="Arial-BoldMT-20" transform="scale(0.015625)"/>
       <path id="Arial-BoldMT-53" d="M 231 1491 
L 1131 1578 
Q 1213 1125 1461 912 
Q 1709 700 2131 700 
Q 2578 700 2804 889 
Q 3031 1078 3031 1331 
Q 3031 1494 2936 1608 
Q 2841 1722 2603 1806 
Q 2441 1863 1863 2006 
Q 1119 2191 819 2459 
Q 397 2838 397 3381 
Q 397 3731 595 4036 
Q 794 4341 1167 4500 
Q 1541 4659 2069 4659 
Q 2931 4659 3367 4281 
Q 3803 3903 3825 3272 
L 2900 3231 
Q 2841 3584 2645 3739 
Q 2450 3894 2059 3894 
Q 1656 3894 1428 3728 
Q 1281 3622 1281 3444 
Q 1281 3281 1419 3166 
Q 1594 3019 2269 2859 
Q 2944 2700 3267 2529 
Q 3591 2359 3773 2064 
Q 3956 1769 3956 1334 
Q 3956 941 3737 597 
Q 3519 253 3119 86 
Q 2719 -81 2122 -81 
Q 1253 -81 787 320 
Q 322 722 231 1491 
z
" transform="scale(0.015625)"/>
       <path id="Arial-BoldMT-66" d="M 75 3319 
L 563 3319 
L 563 3569 
Q 563 3988 652 4194 
Q 741 4400 980 4529 
Q 1219 4659 1584 4659 
Q 1959 4659 2319 4547 
L 2200 3934 
Q 1991 3984 1797 3984 
Q 1606 3984 1523 3895 
Q 1441 3806 1441 3553 
L 1441 3319 
L 2097 3319 
L 2097 2628 
L 1441 2628 
L 1441 0 
L 563 0 
L 563 2628 
L 75 2628 
L 75 3319 
z
" transform="scale(0.015625)"/>
       <path id="Arial-BoldMT-74" d="M 1981 3319 
L 1981 2619 
L 1381 2619 
L 1381 1281 
Q 1381 875 1398 808 
Q 1416 741 1477 697 
Q 1538 653 1625 653 
Q 1747 653 1978 738 
L 2053 56 
Q 1747 -75 1359 -75 
Q 1122 -75 931 4 
Q 741 84 652 211 
Q 563 338 528 553 
Q 500 706 500 1172 
L 500 2619 
L 97 2619 
L 97 3319 
L 500 3319 
L 500 3978 
L 1381 4491 
L 1381 3319 
L 1981 3319 
z
" transform="scale(0.015625)"/>
       <path id="Arial-BoldMT-2f" d="M -9 -78 
L 1125 4659 
L 1784 4659 
L 638 -78 
L -9 -78 
z
" transform="scale(0.015625)"/>
       <path id="Arial-BoldMT-70" d="M 434 3319 
L 1253 3319 
L 1253 2831 
Q 1413 3081 1684 3237 
Q 1956 3394 2288 3394 
Q 2866 3394 3269 2941 
Q 3672 2488 3672 1678 
Q 3672 847 3265 386 
Q 2859 -75 2281 -75 
Q 2006 -75 1782 34 
Q 1559 144 1313 409 
L 1313 -1263 
L 434 -1263 
L 434 3319 
z
M 1303 1716 
Q 1303 1156 1525 889 
Q 1747 622 2066 622 
Q 2372 622 2575 867 
Q 2778 1113 2778 1672 
Q 2778 2194 2568 2447 
Q 2359 2700 2050 2700 
Q 1728 2700 1515 2451 
Q 1303 2203 1303 1716 
z
" transform="scale(0.015625)"/>
      </defs>
      <use xlink:href="#Arial-BoldMT-43"/>
      <use xlink:href="#Arial-BoldMT-68" x="72.216797"/>
      <use xlink:href="#Arial-BoldMT-65" x="133.300781"/>
      <use xlink:href="#Arial-BoldMT-6d" x="188.916016"/>
      <use xlink:href="#Arial-BoldMT-69" x="277.832031"/>
      <use xlink:href="#Arial-BoldMT-63" x="305.615234"/>
      <use xlink:href="#Arial-BoldMT-61" x="361.230469"/>
      <use xlink:href="#Arial-BoldMT-6c" x="416.845703"/>
      <use xlink:href="#Arial-BoldMT-20" x="444.628906"/>
      <use xlink:href="#Arial-BoldMT-53" x="472.412109"/>
      <use xlink:href="#Arial-BoldMT-68" x="539.111328"/>
      <use xlink:href="#Arial-BoldMT-69" x="600.195312"/>
      <use xlink:href="#Arial-BoldMT-66" x="627.978516"/>
      <use xlink:href="#Arial-BoldMT-74" x="661.279297"/>
      <use xlink:href="#Arial-BoldMT-20" x="694.580078"/>
      <use xlink:href="#Arial-BoldMT-2f" x="722.363281"/>
      <use xlink:href="#Arial-BoldMT-20" x="750.146484"/>
      <use xlink:href="#Arial-BoldMT-70" x="777.929688"/>
      <use xlink:href="#Arial-BoldMT-70" x="839.013672"/>
      <use xlink:href="#Arial-BoldMT-6d" x="900.097656"/>
     </g>
    </g>
   </g>
   <g id="matplotlib.axis_2"/>
   <g id="line2d_12">
    <path d="M 3.048917 188.49 
L 3.662777 188.135811 
L 4.276636 188.306403 
L 4.890495 188.262416 
L 6.322833 188.515811 
L 7.755171 188.608624 
L 9.392129 188.435543 
L 10.210608 188.242668 
L 11.029087 188.246033 
L 11.438326 188.332634 
L 12.666045 188.095109 
L 13.893763 188.233741 
L 14.303002 188.338685 
L 15.530721 188.243786 
L 15.93996 188.385454 
L 16.3492 188.128152 
L 16.758439 187.890334 
L 18.600017 188.080081 
L 19.418496 188.298992 
L 20.850834 188.143671 
L 21.464693 187.838522 
L 21.873932 187.988962 
L 22.487791 188.305699 
L 22.897031 188.264819 
L 23.71551 188.025341 
L 24.738608 188.158447 
L 25.557087 188.417587 
L 25.966327 188.216747 
L 26.580186 187.74447 
L 27.398665 187.169497 
L 27.603285 187.217073 
L 28.421764 187.819425 
L 29.035623 187.914428 
L 29.649482 187.823533 
L 30.058721 187.881223 
L 31.08182 188.262474 
L 31.695679 188.324855 
L 34.151116 188.193754 
L 34.560355 188.033063 
L 35.378834 187.597598 
L 36.401933 187.612356 
L 37.015792 187.794311 
L 37.629651 187.697291 
L 38.44813 187.66974 
L 40.903567 188.223697 
L 41.312806 188.399642 
L 42.131285 188.265067 
L 42.745144 188.116472 
L 43.154384 188.237228 
L 43.768243 188.519096 
L 44.586722 188.421039 
L 45.200581 188.406459 
L 46.632919 187.810429 
L 47.042159 187.672771 
L 47.656018 187.750135 
L 48.065257 187.823222 
L 49.497595 187.709059 
L 49.906835 187.792346 
L 50.929933 187.594538 
L 51.543793 187.451641 
L 53.18075 186.719659 
L 53.79461 187.112665 
L 54.613089 187.497143 
L 55.022328 187.45798 
L 55.636187 187.328834 
L 56.659286 187.530474 
L 57.477765 187.239011 
L 58.091624 187.129683 
L 59.114723 186.778732 
L 59.933201 187.343177 
L 60.342441 187.10726 
L 60.9563 186.624264 
L 61.36554 186.598102 
L 61.774779 186.659514 
L 62.797878 186.402685 
L 63.411737 186.25923 
L 65.048695 185.954351 
L 65.457934 185.99892 
L 66.071793 185.959584 
L 66.481033 185.931001 
L 67.094892 185.552978 
L 68.117991 184.882609 
L 68.73185 184.942489 
L 70.368808 184.289484 
L 70.982667 183.588164 
L 71.596526 182.973365 
L 72.415005 182.552692 
L 73.642723 181.003487 
L 75.484301 177.146135 
L 76.30278 174.276363 
L 77.121259 170.635427 
L 77.939737 165.952998 
L 79.372075 156.793123 
L 79.781315 155.170121 
L 79.985935 154.721545 
L 80.190554 154.555252 
L 80.395174 154.666621 
L 80.599794 155.024095 
L 81.009033 156.370859 
L 81.418273 158.410016 
L 82.236752 164.165231 
L 83.25985 171.599535 
L 84.078329 175.934966 
L 84.896808 179.052389 
L 85.715287 181.299663 
L 86.329146 182.604089 
L 86.943005 183.447371 
L 87.966104 184.254718 
L 90.012301 185.579826 
L 91.853879 185.824738 
L 93.286217 186.377485 
L 93.900076 186.366968 
L 95.332414 186.080467 
L 95.741654 186.187663 
L 96.560133 186.531296 
L 97.173992 186.748939 
L 97.583231 186.905199 
L 98.40171 186.795939 
L 99.015569 186.75299 
L 99.834048 186.870479 
L 101.266386 187.284415 
L 101.675626 187.302833 
L 102.289485 187.058537 
L 102.903344 186.954902 
L 103.312584 187.063112 
L 103.926443 187.238769 
L 105.154161 187.238066 
L 106.995739 187.084694 
L 107.404978 187.213414 
L 109.246556 187.13499 
L 109.655795 187.253556 
L 110.883513 187.118497 
L 111.701992 186.539709 
L 112.520471 186.220361 
L 113.33895 186.216298 
L 113.952809 186.268807 
L 114.362049 186.129207 
L 115.180528 185.527501 
L 116.203626 184.14778 
L 116.817485 183.964096 
L 117.226725 183.429357 
L 118.045204 182.026373 
L 118.659063 180.974045 
L 119.477542 178.977699 
L 120.70526 174.784023 
L 121.319119 171.941277 
L 121.932979 168.049205 
L 123.160697 159.513776 
L 123.774556 156.455046 
L 124.183796 155.144534 
L 124.388415 154.878081 
L 124.593035 154.953336 
L 124.797655 155.347633 
L 125.206894 156.95533 
L 125.820753 160.794056 
L 126.843852 167.267013 
L 128.07157 173.513118 
L 129.094669 177.308642 
L 129.708528 178.835765 
L 130.322387 180.306276 
L 130.731627 181.306538 
L 131.550106 182.5733 
L 132.777824 184.042307 
L 133.596303 185.249724 
L 135.028641 186.430311 
L 137.074838 186.706912 
L 138.097937 187.816382 
L 138.507177 187.81712 
L 139.121036 187.603568 
L 139.734895 187.675687 
L 140.757994 187.484667 
L 141.985712 187.620377 
L 142.599571 187.535638 
L 144.236529 187.50154 
L 144.850388 187.685633 
L 145.668867 187.644638 
L 146.078106 187.550851 
L 146.896585 188.083763 
L 147.510445 187.842297 
L 148.328923 187.594261 
L 148.738163 187.721903 
L 149.352022 187.959561 
L 149.761262 187.804563 
L 150.170501 187.67212 
L 151.602839 188.001893 
L 152.216698 187.856761 
L 153.853656 188.061029 
L 154.467515 187.944353 
L 155.081374 188.021791 
L 155.695234 188.040831 
L 156.309093 188.095622 
L 157.332191 188.028603 
L 157.946051 188.134566 
L 159.378389 187.750803 
L 160.196868 187.679894 
L 160.810727 187.358166 
L 162.447685 187.232304 
L 163.470783 186.870825 
L 164.084642 186.478515 
L 164.493882 186.55139 
L 164.903121 186.617741 
L 165.312361 186.435227 
L 166.744699 185.23957 
L 167.358558 184.380049 
L 168.177037 182.694926 
L 169.404755 179.818065 
L 170.018614 178.511259 
L 170.427854 178.148144 
L 170.632474 178.290158 
L 171.246333 179.461922 
L 173.29253 184.174577 
L 174.111009 185.498186 
L 175.338727 186.943065 
L 175.952587 186.897385 
L 177.794164 186.620853 
L 179.840361 186.86278 
L 180.65884 187.023852 
L 181.477319 187.390909 
L 182.295798 187.182618 
L 183.114277 187.147835 
L 183.523516 187.197797 
L 183.932756 187.245287 
L 184.546615 187.106044 
L 184.955855 186.93067 
L 185.365094 186.592622 
L 186.183573 186.291645 
L 187.002052 185.954276 
L 187.411291 185.835266 
L 187.820531 185.992661 
L 188.22977 186.183376 
L 188.63901 186.111585 
L 189.662108 185.799313 
L 190.889827 186.514607 
L 191.299066 186.244114 
L 191.912925 185.787252 
L 192.731404 185.484143 
L 193.549883 185.258927 
L 196.209939 184.056154 
L 197.846897 182.260296 
L 199.483855 178.685274 
L 200.506954 175.329013 
L 200.916193 173.543821 
L 201.530052 169.379338 
L 202.143912 163.698854 
L 202.96239 153.952146 
L 203.57625 144.203818 
L 204.394729 127.215088 
L 206.236306 85.338238 
L 206.645546 80.587302 
L 207.054785 78.713896 
L 207.259405 78.698879 
L 207.464024 79.304066 
L 207.873264 82.389523 
L 208.282503 87.952109 
L 208.896363 100.821322 
L 211.14718 157.07457 
L 211.761039 165.643538 
L 212.374898 171.465426 
L 212.988757 175.157119 
L 213.602616 177.620049 
L 214.625715 180.199425 
L 215.444194 181.735803 
L 215.853433 182.07724 
L 217.899631 182.831259 
L 218.51349 182.843729 
L 219.127349 183.068368 
L 219.741208 183.029983 
L 220.150448 182.682386 
L 221.787405 180.301603 
L 222.605884 178.176507 
L 224.038222 174.102285 
L 224.652082 172.561798 
L 225.8798 170.659959 
L 226.08442 170.462905 
L 226.289039 170.449277 
L 226.493659 170.645708 
L 226.902899 171.567661 
L 227.925997 174.748767 
L 228.335237 175.34947 
L 229.153716 175.843248 
L 230.790673 176.72465 
L 231.199913 176.362727 
L 232.427631 174.655009 
L 233.04149 173.023218 
L 233.655349 170.664154 
L 234.269209 166.693665 
L 234.883068 160.822645 
L 235.496927 152.135087 
L 236.315406 135.970391 
L 237.133885 115.021009 
L 237.747744 98.569149 
L 238.156983 93.325709 
L 238.361603 93.178105 
L 239.384702 97.497828 
L 239.589322 99.59143 
L 239.998561 108.173589 
L 241.02166 134.607371 
L 241.840139 150.307038 
L 242.658617 161.783571 
L 243.272477 167.67132 
L 244.090956 173.066277 
L 244.704815 175.917079 
L 245.523294 178.554375 
L 245.932533 179.504762 
L 246.341773 180.017043 
L 247.364871 180.789001 
L 247.97873 180.895051 
L 248.797209 181.292426 
L 249.411068 181.19578 
L 251.252646 179.805105 
L 252.275745 178.483362 
L 252.889604 177.625593 
L 253.708083 176.238652 
L 254.526562 175.30693 
L 255.140421 175.36031 
L 255.54966 175.511516 
L 256.572759 176.334617 
L 256.981998 176.662759 
L 257.800477 177.638242 
L 258.209717 177.648263 
L 258.823576 177.148054 
L 259.437435 176.288118 
L 260.051294 174.977526 
L 260.460534 173.71594 
L 261.074393 170.924464 
L 262.097492 165.910187 
L 262.302111 165.490183 
L 262.506731 165.391198 
L 262.711351 165.569742 
L 263.32521 166.751746 
L 264.143689 168.407503 
L 264.552928 168.912847 
L 264.962168 169.056354 
L 266.599126 168.232947 
L 267.212985 167.492067 
L 267.622224 166.54572 
L 268.236083 164.186679 
L 268.645323 162.05404 
L 269.054562 158.706723 
L 269.873041 148.890085 
L 270.4869 138.589328 
L 271.305379 121.035282 
L 272.123858 97.508143 
L 272.942337 65.121097 
L 274.170055 11.015862 
L 274.579295 3.494127 
L 274.783915 3.00024 
L 274.988534 4.307616 
L 275.397774 10.463006 
L 276.216253 25.052546 
L 276.625492 29.553591 
L 277.034732 31.926151 
L 277.443971 33.982222 
L 277.648591 35.911618 
L 278.05783 43.519533 
L 278.46707 57.493295 
L 280.308647 135.316061 
L 280.922506 148.632173 
L 281.536366 157.72115 
L 282.354844 166.017609 
L 282.968704 170.707218 
L 283.582563 173.686107 
L 284.196422 175.4664 
L 284.810281 176.529164 
L 285.219521 176.936732 
L 285.62876 177.028485 
L 286.651859 176.49634 
L 287.879577 175.497951 
L 288.288817 174.723526 
L 289.311915 172.315359 
L 289.721155 172.185169 
L 290.130394 172.428387 
L 290.335014 172.762747 
L 290.744253 174.048848 
L 291.358112 177.066455 
L 292.381211 181.847944 
L 292.99507 183.934597 
L 293.813549 185.665948 
L 294.427408 186.524133 
L 295.041268 186.836958 
L 296.882845 187.545861 
L 297.292085 187.595235 
L 298.315183 187.307281 
L 298.929042 187.106476 
L 300.566 186.962456 
L 300.97524 186.488202 
L 301.384479 186.063553 
L 301.998338 185.824335 
L 302.407578 185.849027 
L 304.044536 186.789393 
L 304.658395 187.400256 
L 305.476874 187.743773 
L 306.090733 187.870482 
L 306.704592 188.237395 
L 307.727691 188.165806 
L 308.13693 188.111268 
L 308.750789 188.013315 
L 309.160029 188.042952 
L 309.773888 188.199137 
L 310.387747 188.109286 
L 311.410846 187.879696 
L 312.024705 187.84848 
L 313.252423 187.597206 
L 314.275522 187.621726 
L 314.684761 187.554211 
L 315.29862 187.717132 
L 315.70786 187.990316 
L 316.321719 188.520825 
L 316.730959 188.642872 
L 317.344818 188.606048 
L 317.958677 188.312661 
L 318.367916 188.52982 
L 318.981776 189.066599 
L 320.004874 189.195319 
L 320.414114 189.019328 
L 321.027973 188.595134 
L 321.437212 188.630603 
L 324.097269 189.256835 
L 324.711128 189.113409 
L 325.529607 189.224299 
L 326.143466 188.900323 
L 326.552705 188.914914 
L 326.961945 189.020826 
L 327.575804 188.775251 
L 327.985044 188.73123 
L 328.598903 188.92595 
L 329.417382 188.614398 
L 330.031241 188.362433 
L 332.282058 188.373532 
L 333.919016 187.544086 
L 334.328255 187.600266 
L 335.146734 187.804805 
L 336.374452 187.722376 
L 337.397551 187.571983 
L 339.239129 185.705169 
L 339.648368 185.131832 
L 340.262227 183.960247 
L 340.466847 183.826161 
L 340.671467 183.887078 
L 341.080706 184.382095 
L 342.103805 185.770909 
L 343.740763 186.945946 
L 344.354622 187.182324 
L 345.173101 187.857389 
L 346.400819 188.006261 
L 347.219298 187.783293 
L 348.242396 187.702858 
L 349.060875 187.050613 
L 349.674735 186.691854 
L 350.902453 185.807214 
L 351.720932 184.698896 
L 352.130171 184.499722 
L 352.334791 184.570574 
L 352.74403 185.053852 
L 353.767129 186.827858 
L 354.585608 187.757447 
L 355.404087 188.018478 
L 356.427186 188.205389 
L 358.064143 188.458121 
L 358.678003 188.320878 
L 359.291862 188.423759 
L 360.110341 188.02046 
L 360.92882 187.338209 
L 361.542679 187.0255 
L 361.951918 186.806277 
L 362.565777 186.76357 
L 363.179637 186.977428 
L 363.588876 187.0558 
L 364.202735 187.069019 
L 365.839693 187.188012 
L 367.067411 187.028104 
L 367.88589 186.989656 
L 368.29513 186.676353 
L 369.113609 186.469929 
L 370.341327 184.77369 
L 371.364426 183.249621 
L 371.773665 183.330182 
L 372.387524 183.89336 
L 373.206003 184.88212 
L 373.819862 185.639342 
L 375.66144 186.710692 
L 376.275299 186.739851 
L 377.093778 186.694713 
L 377.912257 186.323068 
L 378.526116 186.139545 
L 379.139975 185.986374 
L 379.549215 186.003242 
L 380.572313 186.374344 
L 381.390792 186.54013 
L 383.02775 187.869041 
L 383.641609 187.822923 
L 384.664708 187.701752 
L 385.073947 187.76865 
L 386.097046 188.366881 
L 386.506285 188.321973 
L 387.120145 187.922945 
L 388.143243 187.888617 
L 388.552483 187.93749 
L 389.370962 187.638362 
L 392.440257 186.604804 
L 393.258736 185.841738 
L 394.077215 184.886113 
L 395.100314 182.555925 
L 395.509553 181.286081 
L 396.123413 178.241902 
L 396.941891 172.300162 
L 397.76037 165.562101 
L 397.96499 164.57764 
L 398.16961 164.170734 
L 398.37423 164.374 
L 398.578849 165.140137 
L 398.988089 168.021285 
L 399.806568 174.459713 
L 400.420427 177.535125 
L 400.829666 178.813095 
L 401.238906 179.459018 
L 401.648145 179.682608 
L 402.057385 179.613607 
L 402.466624 179.305322 
L 402.875864 178.715228 
L 403.285103 177.543873 
L 403.898962 174.755555 
L 404.512821 170.281889 
L 404.922061 166.024968 
L 405.53592 156.594801 
L 406.763638 133.900692 
L 406.968258 133.206519 
L 407.172878 134.218779 
L 407.582117 140.671566 
L 408.809836 166.221785 
L 409.423695 172.852224 
L 410.037554 176.427816 
L 410.651413 178.684542 
L 411.060653 179.500924 
L 411.469892 179.900771 
L 411.674512 179.92317 
L 412.083751 179.63645 
L 412.69761 178.773056 
L 413.10685 177.771422 
L 413.516089 176.124511 
L 413.925329 173.787633 
L 415.357667 163.271376 
L 415.562287 162.942271 
L 415.766906 163.290778 
L 416.176146 165.77918 
L 417.608484 178.622962 
L 418.222343 181.974745 
L 419.040822 184.667501 
L 419.450061 185.515486 
L 420.47316 186.757145 
L 421.496259 187.603689 
L 422.110118 188.092914 
L 423.542456 188.728505 
L 424.156315 188.656823 
L 424.770174 188.605017 
L 425.384033 188.295649 
L 425.997893 187.997392 
L 426.407132 187.931295 
L 426.816372 188.107839 
L 428.24871 188.83399 
L 428.657949 188.921104 
L 429.476428 189.264194 
L 430.499527 189.132206 
L 431.113386 189.233358 
L 432.136484 188.95043 
L 432.750344 189.327641 
L 433.159583 189.206642 
L 433.568823 189.092859 
L 434.591921 189.256628 
L 435.001161 189.002132 
L 435.61502 188.947203 
L 436.638118 189.040967 
L 437.456597 189.491432 
L 438.070457 189.368838 
L 438.479696 189.321596 
L 439.298175 189.462198 
L 439.912034 189.427916 
L 440.525893 189.667262 
L 440.935133 189.38805 
L 441.344372 189.150163 
L 441.958231 189.239167 
L 442.572091 189.542668 
L 444.822908 188.909538 
L 445.232147 189.08467 
L 445.846006 189.55062 
L 446.255246 189.570461 
L 447.482964 189.38223 
L 447.892203 189.454304 
L 448.301443 189.282784 
L 448.915302 189.023442 
L 449.938401 188.920337 
L 450.34764 188.820557 
L 450.75688 188.976166 
L 451.779978 189.596116 
L 452.598457 189.461196 
L 453.621556 189.082792 
L 454.235415 189.008811 
L 455.053894 188.860452 
L 455.872373 189.090277 
L 456.486232 189.280462 
L 456.895471 189.213921 
L 457.304711 189.045732 
L 457.71395 189.152082 
L 458.12319 189.31974 
L 458.737049 189.261468 
L 459.760148 188.902819 
L 460.169387 188.835436 
L 461.397105 189.169445 
L 462.010965 189.290823 
L 462.829444 189.132967 
L 463.238683 188.996836 
L 463.647922 189.149114 
L 464.261782 189.386108 
L 464.671021 189.27848 
L 465.69412 188.706474 
L 467.944937 188.878022 
L 469.991134 188.476291 
L 470.400373 188.558034 
L 471.014233 188.389143 
L 472.241951 188.40537 
L 472.85581 188.567479 
L 473.469669 188.340944 
L 474.697388 187.716366 
L 475.311247 187.363046 
L 476.743585 186.756229 
L 477.766684 186.588144 
L 478.175923 186.683447 
L 479.199022 186.401953 
L 479.812881 186.260428 
L 481.040599 186.082582 
L 481.859078 185.530884 
L 482.268318 185.302504 
L 482.677557 184.801396 
L 483.086796 183.888922 
L 483.905275 181.278025 
L 484.109895 181.35487 
L 484.519135 182.727606 
L 485.132994 184.790027 
L 485.542233 185.295814 
L 486.769952 185.912284 
L 487.383811 185.971374 
L 487.79305 185.826582 
L 488.20229 185.578921 
L 488.611529 185.61949 
L 489.020769 185.779674 
L 490.043867 185.868937 
L 490.657726 186.276535 
L 491.680825 186.901096 
L 492.294684 186.773926 
L 492.908543 186.965868 
L 493.522403 187.216819 
L 494.340881 187.469045 
L 495.36398 187.664461 
L 495.77322 187.633015 
L 496.387079 187.81304 
L 496.796318 187.996418 
L 497.205558 187.865566 
L 497.819417 187.578904 
L 498.228656 187.719011 
L 499.047135 188.134468 
L 501.297952 188.393712 
L 502.116431 188.95546 
L 503.13953 188.764325 
L 504.367248 188.2097 
L 504.981107 187.716147 
L 505.390347 187.651749 
L 507.231924 187.973552 
L 507.845783 187.969052 
L 508.459643 188.078646 
L 509.073502 188.07611 
L 509.687361 188.119768 
L 510.0966 187.957348 
L 510.71046 187.390281 
L 511.324319 187.320132 
L 512.552037 187.50966 
L 513.165896 187.353123 
L 514.393615 187.427444 
L 515.212094 187.161706 
L 515.825953 186.932715 
L 516.235192 186.866117 
L 516.849051 186.464806 
L 517.66753 185.799843 
L 518.690629 185.849471 
L 519.509108 185.49561 
L 520.122967 185.056232 
L 520.941446 184.665502 
L 521.759925 184.203822 
L 522.783023 183.660537 
L 523.396883 183.894645 
L 524.010742 183.471978 
L 524.624601 182.851687 
L 525.23846 182.240784 
L 526.261559 181.511049 
L 527.080038 180.913532 
L 528.307756 179.519549 
L 528.921615 178.403331 
L 529.535474 177.753034 
L 530.967813 176.134947 
L 531.786291 175.057057 
L 533.832489 169.860018 
L 534.650968 167.529634 
L 535.264827 165.756809 
L 537.515644 157.503414 
L 538.743362 151.940569 
L 539.561841 147.725179 
L 540.789559 139.835303 
L 541.608038 133.457954 
L 543.858855 112.524851 
L 544.881954 100.156815 
L 546.518912 76.653636 
L 547.95125 52.365724 
L 550.80461 -1 
M 569.585847 -1 
L 570.2548 23.530045 
L 571.277899 53.067672 
L 572.300997 75.981413 
L 573.324096 93.31521 
L 574.551814 110.160762 
L 575.574913 121.277521 
L 576.598012 129.656408 
L 577.62111 136.738235 
L 579.053448 144.994597 
L 580.076547 149.039701 
L 581.508885 154.087775 
L 583.759702 160.198643 
L 584.782801 162.223946 
L 585.60128 163.060797 
L 586.010519 163.374585 
L 586.419758 163.321528 
L 587.033618 162.974692 
L 587.647477 162.459742 
L 588.875195 162.104204 
L 589.079815 162.285946 
L 589.693674 163.562994 
L 590.512153 165.12444 
L 591.535252 166.824166 
L 591.944491 166.896308 
L 592.76297 166.728972 
L 593.172209 166.35209 
L 593.581449 165.65666 
L 594.399928 163.573632 
L 595.013787 161.93416 
L 596.855365 158.518049 
L 597.059984 158.492699 
L 597.264604 158.780733 
L 597.673843 160.00617 
L 599.310801 166.072279 
L 599.92466 166.968744 
L 600.3339 167.255367 
L 600.743139 167.132398 
L 601.152379 166.623908 
L 601.561618 165.525012 
L 602.380097 162.341758 
L 602.993956 159.831839 
L 603.198576 159.487446 
L 603.403196 159.44924 
L 603.607816 159.666912 
L 604.017055 160.736551 
L 605.449393 166.420734 
L 606.063252 168.614267 
L 606.677111 170.097237 
L 607.086351 170.691947 
L 608.10945 171.506739 
L 608.518689 171.477989 
L 608.927928 171.133135 
L 609.337168 170.260677 
L 611.383365 164.573842 
L 611.587985 164.506252 
L 611.997224 164.78226 
L 612.611084 165.499363 
L 613.224943 165.74616 
L 613.634182 165.663154 
L 614.043422 165.151484 
L 614.657281 163.979166 
L 615.47576 162.077033 
L 615.680379 162.169558 
L 615.884999 162.663774 
L 616.908098 166.467435 
L 617.112718 166.472886 
L 617.521957 165.922381 
L 618.135816 164.14962 
L 619.363534 160.268267 
L 620.182013 156.422475 
L 621.409732 149.124204 
L 623.251309 136.343563 
L 623.455929 136.416466 
L 623.660549 137.616179 
L 623.865168 140.337886 
L 624.274408 150.740378 
L 624.888267 167.497444 
L 625.297507 172.238237 
L 625.502126 172.846864 
L 625.706746 172.664413 
L 626.115985 170.857099 
L 626.729845 165.936632 
L 627.548324 157.19407 
L 629.389901 134.392926 
L 630.413 118.467023 
L 631.436098 101.14184 
L 631.640718 99.294447 
L 631.845338 99.257969 
L 632.049958 101.963766 
L 632.254577 108.352542 
L 632.663817 133.279347 
L 633.277676 175.61473 
L 633.686915 188.430201 
L 633.891535 191.07889 
L 634.096155 192.100008 
L 634.300775 191.961929 
L 634.505394 191.046349 
L 634.914634 187.847477 
L 635.733113 178.72718 
L 636.960831 161.754827 
L 638.188549 141.582755 
L 638.802409 128.737394 
L 639.416268 111.72223 
L 640.643986 70.152633 
L 640.848606 69.602842 
L 641.053226 74.579892 
L 641.462465 99.351088 
L 642.076324 139.572089 
L 642.485564 155.54309 
L 642.894803 164.673121 
L 643.304043 169.583503 
L 643.713282 171.943432 
L 644.122521 172.750709 
L 644.531761 172.816576 
L 644.736381 172.671063 
L 645.14562 171.988732 
L 646.782578 168.274634 
L 647.396437 165.892358 
L 647.805677 163.555203 
L 648.419536 158.462698 
L 649.033395 151.392795 
L 649.442634 146.451727 
L 649.647254 145.013873 
L 649.851874 144.70133 
L 650.056494 145.427054 
L 650.670353 150.48458 
L 651.284212 154.850271 
L 651.898071 157.364299 
L 652.307311 158.159641 
L 652.51193 158.281619 
L 652.92117 158.178635 
L 653.330409 157.87367 
L 654.353508 156.634944 
L 654.762747 155.858071 
L 655.171987 154.680204 
L 655.581226 152.750819 
L 656.195085 148.05649 
L 657.422804 137.636435 
L 657.627423 136.944295 
L 657.832043 136.693926 
L 658.036663 136.899197 
L 658.241283 137.557031 
L 658.650522 139.999809 
L 660.28748 153.059587 
L 660.696719 154.220212 
L 660.901339 154.425057 
L 661.105959 154.463494 
L 661.924438 154.155314 
L 662.129057 154.256298 
L 662.538297 155.01971 
L 663.356776 157.049428 
L 663.766015 157.625744 
L 663.970635 157.675251 
L 664.789114 157.283864 
L 665.402973 156.855244 
L 665.607593 157.089749 
L 665.812212 157.764762 
L 666.221452 160.525684 
L 667.039931 166.993599 
L 667.65379 170.137535 
L 668.063029 171.254485 
L 668.472269 171.704034 
L 668.881508 172.070112 
L 669.290748 173.027558 
L 670.313846 176.197184 
L 670.927706 177.436186 
L 672.973903 179.518788 
L 673.792382 179.999122 
L 675.22472 180.225472 
L 675.838579 179.88743 
L 676.452438 179.931451 
L 677.270917 179.781294 
L 678.498636 180.599393 
L 678.907875 180.684888 
L 679.317114 180.461147 
L 680.340213 179.512645 
L 680.749453 178.782674 
L 681.158692 177.921395 
L 681.363312 177.714804 
L 681.567931 177.818083 
L 681.977171 178.788379 
L 682.79565 180.927172 
L 683.409509 181.736731 
L 684.227988 182.283623 
L 684.637227 182.501267 
L 685.046467 182.613419 
L 685.455706 182.853122 
L 685.864946 182.761559 
L 686.274185 182.621775 
L 686.683425 182.571306 
L 687.092664 182.315807 
L 688.525002 180.834226 
L 688.934242 179.540369 
L 689.548101 176.440287 
L 690.16196 173.086602 
L 690.36658 172.798815 
L 690.571199 173.156364 
L 690.980439 175.196374 
L 691.798918 179.399813 
L 692.208157 180.741027 
L 692.617397 181.422241 
L 694.458974 182.849687 
L 695.072833 183.05629 
L 695.482073 182.911912 
L 696.709791 181.840827 
L 698.346749 178.900099 
L 699.165228 176.315698 
L 699.369848 175.994569 
L 699.574467 175.886341 
L 700.392946 175.952825 
L 700.802186 175.487647 
L 701.211425 174.348119 
L 701.620665 172.263627 
L 702.029904 169.057702 
L 702.439144 164.267293 
L 702.848383 157.228606 
L 703.257622 145.919034 
L 703.666862 128.193815 
L 704.485341 85.994482 
L 704.689961 84.600136 
L 704.89458 89.722283 
L 706.326918 156.853187 
L 706.736158 164.892119 
L 707.145397 170.065277 
L 707.554637 173.362696 
L 707.963876 175.315972 
L 708.373116 176.28764 
L 709.396214 177.958737 
L 710.419313 181.808413 
L 711.033172 183.167826 
L 711.442412 183.687622 
L 712.67013 184.49011 
L 714.102468 185.147478 
L 714.511707 185.139479 
L 714.920947 185.057091 
L 715.534806 185.297416 
L 716.353285 185.707088 
L 717.581003 185.73888 
L 718.604102 185.7603 
L 719.627201 186.292002 
L 720.44568 186.085382 
L 721.673398 186.342131 
L 722.082637 186.405013 
L 723.105736 186.881243 
L 723.514975 186.557642 
L 723.924215 186.205505 
L 724.333454 186.205228 
L 725.151933 186.556311 
L 726.788891 186.320106 
L 727.60737 186.491493 
L 728.835088 186.968121 
L 730.062807 186.319403 
L 731.699765 185.924051 
L 732.518243 186.136232 
L 733.132103 186.004486 
L 733.745962 186.016628 
L 734.359821 185.961751 
L 734.76906 186.1021 
L 735.38292 186.37915 
L 736.201398 186.225708 
L 736.610638 186.331142 
L 737.019877 186.091934 
L 737.633737 185.693949 
L 738.042976 185.693407 
L 738.656835 185.867664 
L 739.066075 185.917868 
L 739.679934 186.04675 
L 740.293793 186.062274 
L 740.907652 185.883298 
L 741.316892 186.026782 
L 742.33999 186.689751 
L 742.74923 186.529129 
L 744.181568 185.56048 
L 744.795427 185.627696 
L 745.409286 185.395317 
L 745.818526 185.20511 
L 746.637005 185.45877 
L 747.864723 185.08202 
L 748.683202 184.987858 
L 749.297061 184.983991 
L 751.138639 184.693318 
L 751.752498 184.807096 
L 752.366357 185.081374 
L 752.980216 184.900785 
L 753.389456 184.7463 
L 754.207934 184.669639 
L 755.026413 184.002348 
L 756.049512 183.602006 
L 756.458751 183.225118 
L 756.867991 183.151033 
L 758.095709 183.41279 
L 758.709568 183.419774 
L 759.323428 183.353515 
L 759.732667 183.506617 
L 760.346526 183.917286 
L 760.755766 183.880907 
L 761.165005 183.69169 
L 761.574245 183.817079 
L 761.983484 184.024028 
L 763.825062 183.990668 
L 764.438921 183.712199 
L 765.666639 183.517872 
L 766.894358 183.952859 
L 767.508217 183.774459 
L 768.122076 183.56399 
L 769.554414 184.191167 
L 770.372893 185.018936 
L 770.986752 185.341062 
L 773.237569 185.626422 
L 773.851428 185.487819 
L 774.260668 185.396504 
L 775.079147 184.967948 
L 775.693006 184.977555 
L 776.306865 184.930503 
L 777.534583 185.346842 
L 777.943823 185.59093 
L 778.353062 185.633395 
L 779.376161 185.347868 
L 779.7854 185.472179 
L 780.399259 185.794962 
L 781.217738 185.779576 
L 781.626978 185.909967 
L 782.240837 185.790802 
L 783.059316 185.646909 
L 784.082415 185.617093 
L 784.696274 185.970078 
L 785.105513 185.771549 
L 785.514753 185.544034 
L 786.128612 185.519231 
L 788.174809 185.426124 
L 790.425626 184.528875 
L 793.290302 183.40146 
L 793.904161 182.79349 
L 794.518021 181.970758 
L 795.13188 180.768313 
L 796.564218 177.343978 
L 797.382697 176.215388 
L 797.996556 175.147397 
L 798.405795 174.02117 
L 798.815035 172.178087 
L 799.224274 169.235013 
L 799.633514 164.807932 
L 800.042753 158.389743 
L 801.065852 138.881292 
L 801.270472 138.009352 
L 801.475091 138.723292 
L 801.884331 142.963006 
L 803.521289 164.359143 
L 804.135148 168.169034 
L 804.544387 169.780182 
L 804.953627 170.692155 
L 805.158246 170.845625 
L 805.362866 170.804555 
L 805.772106 170.344437 
L 806.181345 169.589865 
L 806.590585 168.331569 
L 806.999824 166.280091 
L 807.613683 160.956586 
L 808.227542 153.307577 
L 809.8645 128.525634 
L 810.06912 128.225838 
L 810.27374 129.134699 
L 810.682979 134.26197 
L 812.115317 159.072213 
L 812.729176 165.300886 
L 813.343035 168.946518 
L 813.956895 170.921594 
L 814.570754 172.107875 
L 814.775374 172.180086 
L 814.979993 172.013217 
L 815.389233 171.289303 
L 816.003092 169.548604 
L 816.412331 167.74012 
L 817.026191 163.647734 
L 818.049289 155.98773 
L 818.253909 155.496718 
L 818.458529 155.627311 
L 818.663148 156.329973 
L 819.072388 159.294409 
L 820.504726 173.346007 
L 821.118585 176.530547 
L 821.732444 178.473923 
L 822.755543 180.488301 
L 823.574022 181.522315 
L 824.187881 181.861463 
L 824.59712 181.939565 
L 825.415599 181.686481 
L 826.234078 181.470532 
L 827.052557 181.627483 
L 827.461797 181.312399 
L 828.689515 179.495 
L 829.712614 177.414542 
L 830.326473 175.270407 
L 830.735712 172.789238 
L 831.144952 168.717078 
L 831.554191 164.123469 
L 831.758811 162.97494 
L 831.963431 163.38256 
L 833.191149 172.821065 
L 833.600388 173.590257 
L 834.009628 173.797026 
L 834.623487 173.715963 
L 835.032727 173.406555 
L 836.465065 171.520552 
L 837.078924 169.998557 
L 838.920501 164.420066 
L 839.73898 160.716687 
L 840.352839 157.038836 
L 840.762079 153.405934 
L 841.580558 142.955826 
L 842.603656 127.077459 
L 844.445234 96.156607 
L 845.059093 86.515465 
L 845.468333 77.934752 
L 845.877572 65.028324 
L 846.286812 45.420334 
L 846.900671 10.907553 
L 847.10529 10.575199 
L 847.30991 23.340356 
L 848.333009 134.119805 
L 848.742248 151.238045 
L 849.151488 159.706288 
L 849.560727 163.852152 
L 849.969967 165.918653 
L 850.379206 166.913469 
L 852.630023 171.02081 
L 853.243882 171.901007 
L 855.699319 176.398801 
L 856.108558 176.636395 
L 856.927037 176.826009 
L 857.950136 176.482631 
L 858.563995 176.060091 
L 859.177854 175.153512 
L 859.587094 174.045563 
L 860.200953 171.323602 
L 862.45177 159.149058 
L 863.065629 153.670693 
L 863.474869 148.107951 
L 863.884108 139.950043 
L 864.293347 128.20602 
L 865.725686 80.255374 
L 865.930305 79.014885 
L 866.134925 78.789721 
L 866.339545 79.044534 
L 866.544164 79.697879 
L 866.748784 81.172355 
L 866.953404 84.226837 
L 867.362643 96.723605 
L 868.385742 138.104396 
L 868.999601 153.38452 
L 869.61346 162.922488 
L 870.22732 169.053703 
L 871.045798 174.351715 
L 871.659658 176.92466 
L 872.478137 179.479786 
L 873.296615 181.207617 
L 873.910475 182.048922 
L 874.933573 183.00351 
L 875.956672 183.222957 
L 876.775151 183.659166 
L 878.002869 183.877702 
L 878.616728 184.27812 
L 879.639827 184.317139 
L 880.662926 184.851036 
L 881.481405 185.086054 
L 882.504503 185.01545 
L 883.527602 185.21852 
L 884.141461 185.161429 
L 885.778419 185.442317 
L 886.801517 184.940218 
L 887.210757 185.047461 
L 887.619996 185.197907 
L 889.052334 184.894354 
L 889.666194 184.52045 
L 890.280053 184.670193 
L 891.303151 185.00835 
L 892.735489 185.4607 
L 893.758588 185.386639 
L 896.418645 184.632574 
L 898.464842 183.31883 
L 898.874081 183.189522 
L 899.283321 183.522966 
L 899.69256 183.859423 
L 900.1018 183.941264 
L 901.124898 184.68423 
L 902.147997 184.54965 
L 904.194194 183.933208 
L 905.012673 183.608443 
L 905.421913 183.422454 
L 906.035772 182.881405 
L 906.445011 182.55985 
L 907.05887 182.287311 
L 907.67273 181.684654 
L 908.286589 180.94616 
L 908.491208 180.910034 
L 909.105068 181.350329 
L 910.537406 182.278506 
L 910.946645 182.084443 
L 911.355885 181.831884 
L 912.583603 181.730144 
L 912.992842 181.413787 
L 914.015941 180.177498 
L 914.425181 180.139476 
L 914.83442 180.160089 
L 915.243659 179.873646 
L 915.857519 179.077116 
L 916.675998 177.718677 
L 917.699096 176.016127 
L 918.108336 175.759309 
L 918.517575 175.700911 
L 918.926815 175.415937 
L 919.336054 174.938398 
L 921.791491 170.7316 
L 923.837688 164.509318 
L 927.316223 151.27152 
L 929.56704 140.208503 
L 930.590139 134.296396 
L 932.022477 125.505214 
L 933.045576 119.267857 
L 934.477914 108.813289 
L 934.887153 105.642481 
L 935.091773 104.813692 
L 935.296393 104.656165 
L 935.501012 105.093082 
L 935.910252 107.211107 
L 936.524111 112.856065 
L 937.13797 117.750017 
L 937.54721 119.637507 
L 937.751829 119.919352 
L 937.956449 118.938257 
L 938.161069 115.739483 
L 938.365689 109.22224 
L 938.570308 97.90478 
L 938.979548 51.588805 
L 939.226825 -1 
M 949.587642 -1 
L 949.824393 20.606691 
L 950.233633 44.705 
L 950.847492 66.473606 
L 953.098309 126.848446 
L 953.916788 140.56067 
L 954.530647 148.205829 
L 955.349126 154.981262 
L 956.781464 164.199599 
L 957.599943 168.641104 
L 958.623042 172.645967 
L 959.85076 176.155791 
L 961.487718 179.759741 
L 961.896957 180.066285 
L 962.715436 180.331983 
L 963.533915 180.368749 
L 964.147774 180.8839 
L 964.557014 181.593166 
L 965.784732 184.488324 
L 966.398591 185.73748 
L 967.626309 187.308768 
L 968.035549 187.510651 
L 969.467887 187.746014 
L 970.695605 187.638126 
L 971.104845 187.40369 
L 971.514084 186.947497 
L 971.923324 186.307204 
L 972.332563 185.174683 
L 973.151042 181.781299 
L 973.355662 181.417406 
L 973.560282 181.453941 
L 974.174141 182.803581 
L 974.788 184.336945 
L 975.606479 186.305965 
L 976.629577 188.051002 
L 977.038817 188.369527 
L 978.471155 188.958872 
L 979.494254 189.247961 
L 979.903493 189.19782 
L 980.517352 188.971965 
L 981.540451 189.022394 
L 983.382028 187.950052 
L 983.791268 187.864517 
L 984.405127 188.235972 
L 985.018986 188.637691 
L 986.246705 188.955178 
L 987.065184 189.502076 
L 988.497522 189.591501 
L 989.111381 189.629465 
L 989.52062 189.662629 
L 990.339099 190.108381 
L 992.589916 189.588838 
L 993.203775 189.639699 
L 994.022254 189.29609 
L 995.045353 189.380432 
L 995.454592 189.331265 
L 997.50079 189.652677 
L 998.114649 189.428084 
L 998.728508 189.363698 
L 999.137747 189.555755 
L 999.546987 189.78191 
L 1000.365466 189.883505 
L 1001.388564 189.990437 
L 1003.434762 189.57359 
L 1004.253241 189.563828 
L 1004.8671 189.195025 
L 1005.276339 189.290564 
L 1006.094818 189.601804 
L 1006.504058 189.59335 
L 1007.527156 189.201762 
L 1008.141015 188.773148 
L 1008.550255 188.802883 
L 1010.187213 189.2506 
L 1011.414931 188.913578 
L 1012.23341 189.27066 
L 1014.279607 189.066714 
L 1014.893466 189.132356 
L 1016.121185 188.895033 
L 1017.144283 189.165376 
L 1017.553523 189.378312 
L 1018.781241 189.06687 
L 1021.236678 188.72099 
L 1022.464396 188.863927 
L 1023.282875 188.819583 
L 1025.533692 188.760729 
L 1026.761411 189.174498 
L 1027.579889 189.059493 
L 1028.193749 188.885243 
L 1029.421467 189.009186 
L 1030.649185 188.695732 
L 1032.900002 188.57293 
L 1033.513862 188.6333 
L 1034.9462 188.728205 
L 1035.355439 188.906634 
L 1035.969298 188.801967 
L 1036.378538 188.792113 
L 1036.992397 189.097089 
L 1037.401636 188.822257 
L 1037.810876 188.392848 
L 1038.220115 188.363672 
L 1038.629355 188.382838 
L 1039.243214 188.119993 
L 1039.857073 188.218747 
L 1041.084791 188.613246 
L 1041.698651 188.642151 
L 1042.10789 188.621907 
L 1042.926369 188.245146 
L 1043.949468 188.028707 
L 1044.972566 188.428184 
L 1045.586425 188.375733 
L 1046.200285 188.544722 
L 1046.814144 188.15919 
L 1047.223383 187.976474 
L 1048.860341 188.116155 
L 1050.292679 188.684806 
L 1051.315778 188.728994 
L 1051.929637 188.89546 
L 1053.157355 189.065481 
L 1054.180454 188.476112 
L 1054.589693 188.465037 
L 1054.998933 188.530512 
L 1055.817412 188.415305 
L 1056.635891 188.772681 
L 1057.863609 188.639754 
L 1058.272848 188.509564 
L 1058.886708 188.59178 
L 1059.500567 188.870871 
L 1059.909806 189.029459 
L 1060.319046 189.041451 
L 1060.932905 188.725226 
L 1061.546764 188.453915 
L 1062.774482 188.536171 
L 1063.388342 188.540988 
L 1063.797581 188.387517 
L 1064.61606 187.918427 
L 1065.229919 187.868021 
L 1065.843778 188.115273 
L 1066.457638 188.152165 
L 1067.889976 188.636539 
L 1068.708455 188.491971 
L 1069.322314 188.522473 
L 1070.550032 188.756995 
L 1071.77775 188.27695 
L 1072.39161 188.246419 
L 1073.414708 188.425557 
L 1074.028567 188.336051 
L 1074.642427 188.482077 
L 1075.460906 188.891316 
L 1076.074765 188.755243 
L 1076.893244 188.263903 
L 1077.916342 188.338575 
L 1078.734821 188.376442 
L 1080.985638 188.353967 
L 1081.599497 188.404909 
L 1082.213356 188.409185 
L 1082.827216 188.709903 
L 1083.441075 188.613027 
L 1084.464173 188.25753 
L 1086.510371 188.396236 
L 1089.170427 188.067691 
L 1089.988906 188.485298 
L 1090.807385 188.440384 
L 1091.421244 188.373952 
L 1092.239723 188.099276 
L 1092.853582 187.954098 
L 1093.672061 188.168866 
L 1094.28592 188.475974 
L 1094.89978 188.494622 
L 1095.309019 188.447674 
L 1096.127498 188.653429 
L 1097.559836 188.06406 
L 1098.173695 188.06266 
L 1098.992174 188.280569 
L 1099.401414 188.321437 
L 1100.015273 188.567531 
L 1101.447611 188.466051 
L 1102.06147 188.672301 
L 1102.470709 188.54138 
L 1103.289188 188.134048 
L 1103.698428 188.174184 
L 1105.335386 188.67112 
L 1106.153865 188.545143 
L 1106.563104 188.579004 
L 1107.381583 188.136554 
L 1108.200062 188.444694 
L 1109.018541 188.866745 
L 1109.42778 188.660338 
L 1110.041639 188.28617 
L 1111.064738 188.300306 
L 1111.473977 188.168497 
L 1112.087837 187.891561 
L 1112.701696 187.980992 
L 1113.724794 188.366219 
L 1114.134034 188.328358 
L 1114.747893 188.11548 
L 1115.361752 188.310846 
L 1115.770992 188.382066 
L 1116.180231 188.179613 
L 1116.79409 188.309826 
L 1117.612569 188.470332 
L 1118.226428 188.701651 
L 1118.635668 188.505041 
L 1119.044907 188.303596 
L 1119.863386 188.240893 
L 1121.295724 188.462224 
L 1122.318823 188.142196 
L 1123.341922 188.131944 
L 1123.955781 188.378545 
L 1125.183499 188.731743 
L 1126.411217 188.51104 
L 1127.025077 188.580024 
L 1128.048175 188.426444 
L 1128.662034 188.885052 
L 1129.275894 188.96868 
L 1129.685133 188.912656 
L 1130.708232 188.247289 
L 1131.322091 188.250966 
L 1131.93595 188.245837 
L 1132.959049 188.076392 
L 1133.777528 188.042174 
L 1135.005246 187.941086 
L 1135.414485 187.997375 
L 1136.028345 187.829302 
L 1138.074542 188.146737 
L 1138.483781 188.124464 
L 1138.893021 188.377669 
L 1139.30226 188.636066 
L 1139.916119 188.518295 
L 1140.529979 188.487568 
L 1141.143838 188.71045 
L 1142.780796 188.060003 
L 1144.008514 188.364922 
L 1144.826993 188.296093 
L 1145.440852 188.359914 
L 1146.054711 188.434016 
L 1146.66857 188.199436 
L 1147.07781 187.97958 
L 1147.487049 188.090494 
L 1147.896289 188.218747 
L 1148.510148 188.110605 
L 1149.328627 188.365516 
L 1149.942486 188.155727 
L 1150.760965 187.640829 
L 1151.374824 187.596462 
L 1152.193303 187.615756 
L 1152.602543 187.573187 
L 1153.421021 187.91093 
L 1153.830261 188.001887 
L 1154.85336 187.937323 
L 1155.467219 187.974221 
L 1156.081078 188.164273 
L 1157.718036 188.274524 
L 1158.127275 188.311001 
L 1158.945754 188.113942 
L 1160.173472 188.396092 
L 1160.582712 188.408666 
L 1161.401191 188.773061 
L 1161.81043 188.627243 
L 1162.424289 188.40737 
L 1163.038149 188.551251 
L 1163.447388 188.669582 
L 1164.675106 188.362548 
L 1165.084346 188.446193 
L 1167.130543 188.124729 
L 1167.744402 188.292019 
L 1168.153642 188.405825 
L 1169.17674 188.325137 
L 1169.7906 188.465549 
L 1171.427557 187.768719 
L 1172.655276 187.89185 
L 1173.473755 187.841438 
L 1174.087614 187.980715 
L 1174.701473 188.295039 
L 1176.338431 188.213313 
L 1177.566149 188.547598 
L 1178.180008 188.461982 
L 1178.793868 188.103609 
L 1179.203107 188.107522 
L 1179.816966 188.307371 
L 1180.430825 188.258526 
L 1182.272403 188.088315 
L 1183.090882 188.264727 
L 1184.11398 188.211797 
L 1184.72784 188.071805 
L 1184.72784 188.071805 
" clip-path="url(#peda0ba5ebc)" style="fill: none; stroke: #000000; stroke-width: 2; stroke-linecap: square"/>
   </g>
   <g id="patch_3">
    <path d="M 3.00024 198.907885 
L 1184.99976 198.907885 
" style="fill: none; stroke: #000000; stroke-width: 2; stroke-linejoin: miter; stroke-linecap: square"/>
   </g>
  </g>
 </g>
 <defs>
  <clipPath id="peda0ba5ebc">
   <rect x="3.00024" y="3.00024" width="1181.99952" height="195.907645"/>
  </clipPath>
 </defs>
</svg>
