<?xml version="1.0" encoding="utf-8" standalone="no"?>
<!DOCTYPE svg PUBLIC "-//W3C//DTD SVG 1.1//EN"
  "http://www.w3.org/Graphics/SVG/1.1/DTD/svg11.dtd">
<svg xmlns:xlink="http://www.w3.org/1999/xlink" width="1188pt" height="252pt" viewBox="0 0 1188 252" xmlns="http://www.w3.org/2000/svg" version="1.1">
 <metadata>
  <rdf:RDF xmlns:dc="http://purl.org/dc/elements/1.1/" xmlns:cc="http://creativecommons.org/ns#" xmlns:rdf="http://www.w3.org/1999/02/22-rdf-syntax-ns#">
   <cc:Work>
    <dc:type rdf:resource="http://purl.org/dc/dcmitype/StillImage"/>
    <dc:date>2024-05-14T23:07:55.942780</dc:date>
    <dc:format>image/svg+xml</dc:format>
    <dc:creator>
     <cc:Agent>
      <dc:title>Matplotlib v3.8.0, https://matplotlib.org/</dc:title>
     </cc:Agent>
    </dc:creator>
   </cc:Work>
  </rdf:RDF>
 </metadata>
 <defs>
  <style type="text/css">*{stroke-linejoin: round; stroke-linecap: butt}</style>
 </defs>
 <g id="figure_1">
  <g id="patch_1">
   <path d="M 0 252 
L 1188 252 
L 1188 0 
L 0 0 
z
" style="fill: #ffffff"/>
  </g>
  <g id="axes_1">
   <g id="patch_2">
    <path d="M 3.00024 198.907885 
L 1184.99976 198.907885 
L 1184.99976 3.00024 
L 3.00024 3.00024 
z
" style="fill: #ffffff"/>
   </g>
   <g id="matplotlib.axis_1">
    <g id="xtick_1">
     <g id="line2d_1">
      <defs>
       <path id="m279539cbea" d="M 0 0 
L 0 8 
" style="stroke: #000000; stroke-width: 2"/>
      </defs>
      <g>
       <use xlink:href="#m279539cbea" x="1131.272509" y="198.907885" style="stroke: #000000; stroke-width: 2"/>
      </g>
     </g>
     <g id="text_1">
      <!-- 0 -->
      <g transform="translate(1126.267665 224.791947) scale(0.18 -0.18)">
       <defs>
        <path id="Arial-BoldMT-30" d="M 1756 4600 
Q 2422 4600 2797 4125 
Q 3244 3563 3244 2259 
Q 3244 959 2794 391 
Q 2422 -78 1756 -78 
Q 1088 -78 678 436 
Q 269 950 269 2269 
Q 269 3563 719 4131 
Q 1091 4600 1756 4600 
z
M 1756 3872 
Q 1597 3872 1472 3770 
Q 1347 3669 1278 3406 
Q 1188 3066 1188 2259 
Q 1188 1453 1269 1151 
Q 1350 850 1473 750 
Q 1597 650 1756 650 
Q 1916 650 2041 751 
Q 2166 853 2234 1116 
Q 2325 1453 2325 2259 
Q 2325 3066 2244 3367 
Q 2163 3669 2039 3770 
Q 1916 3872 1756 3872 
z
" transform="scale(0.015625)"/>
       </defs>
       <use xlink:href="#Arial-BoldMT-30"/>
      </g>
     </g>
    </g>
    <g id="xtick_2">
     <g id="line2d_2">
      <g>
       <use xlink:href="#m279539cbea" x="1023.818007" y="198.907885" style="stroke: #000000; stroke-width: 2"/>
      </g>
     </g>
     <g id="text_2">
      <!-- 1 -->
      <g transform="translate(1018.813164 224.791947) scale(0.18 -0.18)">
       <defs>
        <path id="Arial-BoldMT-31" d="M 2519 0 
L 1641 0 
L 1641 3309 
Q 1159 2859 506 2644 
L 506 3441 
Q 850 3553 1253 3867 
Q 1656 4181 1806 4600 
L 2519 4600 
L 2519 0 
z
" transform="scale(0.015625)"/>
       </defs>
       <use xlink:href="#Arial-BoldMT-31"/>
      </g>
     </g>
    </g>
    <g id="xtick_3">
     <g id="line2d_3">
      <g>
       <use xlink:href="#m279539cbea" x="916.363505" y="198.907885" style="stroke: #000000; stroke-width: 2"/>
      </g>
     </g>
     <g id="text_3">
      <!-- 2 -->
      <g transform="translate(911.358662 224.791947) scale(0.18 -0.18)">
       <defs>
        <path id="Arial-BoldMT-32" d="M 3238 816 
L 3238 0 
L 159 0 
Q 209 463 459 877 
Q 709 1291 1447 1975 
Q 2041 2528 2175 2725 
Q 2356 2997 2356 3263 
Q 2356 3556 2198 3714 
Q 2041 3872 1763 3872 
Q 1488 3872 1325 3706 
Q 1163 3541 1138 3156 
L 263 3244 
Q 341 3969 753 4284 
Q 1166 4600 1784 4600 
Q 2463 4600 2850 4234 
Q 3238 3869 3238 3325 
Q 3238 3016 3127 2736 
Q 3016 2456 2775 2150 
Q 2616 1947 2200 1565 
Q 1784 1184 1673 1059 
Q 1563 934 1494 816 
L 3238 816 
z
" transform="scale(0.015625)"/>
       </defs>
       <use xlink:href="#Arial-BoldMT-32"/>
      </g>
     </g>
    </g>
    <g id="xtick_4">
     <g id="line2d_4">
      <g>
       <use xlink:href="#m279539cbea" x="808.909004" y="198.907885" style="stroke: #000000; stroke-width: 2"/>
      </g>
     </g>
     <g id="text_4">
      <!-- 3 -->
      <g transform="translate(803.90416 224.791947) scale(0.18 -0.18)">
       <defs>
        <path id="Arial-BoldMT-33" d="M 241 1216 
L 1091 1319 
Q 1131 994 1309 822 
Q 1488 650 1741 650 
Q 2013 650 2198 856 
Q 2384 1063 2384 1413 
Q 2384 1744 2206 1937 
Q 2028 2131 1772 2131 
Q 1603 2131 1369 2066 
L 1466 2781 
Q 1822 2772 2009 2936 
Q 2197 3100 2197 3372 
Q 2197 3603 2059 3740 
Q 1922 3878 1694 3878 
Q 1469 3878 1309 3722 
Q 1150 3566 1116 3266 
L 306 3403 
Q 391 3819 561 4067 
Q 731 4316 1036 4458 
Q 1341 4600 1719 4600 
Q 2366 4600 2756 4188 
Q 3078 3850 3078 3425 
Q 3078 2822 2419 2463 
Q 2813 2378 3048 2084 
Q 3284 1791 3284 1375 
Q 3284 772 2843 347 
Q 2403 -78 1747 -78 
Q 1125 -78 715 280 
Q 306 638 241 1216 
z
" transform="scale(0.015625)"/>
       </defs>
       <use xlink:href="#Arial-BoldMT-33"/>
      </g>
     </g>
    </g>
    <g id="xtick_5">
     <g id="line2d_5">
      <g>
       <use xlink:href="#m279539cbea" x="701.454502" y="198.907885" style="stroke: #000000; stroke-width: 2"/>
      </g>
     </g>
     <g id="text_5">
      <!-- 4 -->
      <g transform="translate(696.449658 224.791947) scale(0.18 -0.18)">
       <defs>
        <path id="Arial-BoldMT-34" d="M 1994 0 
L 1994 922 
L 119 922 
L 119 1691 
L 2106 4600 
L 2844 4600 
L 2844 1694 
L 3413 1694 
L 3413 922 
L 2844 922 
L 2844 0 
L 1994 0 
z
M 1994 1694 
L 1994 3259 
L 941 1694 
L 1994 1694 
z
" transform="scale(0.015625)"/>
       </defs>
       <use xlink:href="#Arial-BoldMT-34"/>
      </g>
     </g>
    </g>
    <g id="xtick_6">
     <g id="line2d_6">
      <g>
       <use xlink:href="#m279539cbea" x="594" y="198.907885" style="stroke: #000000; stroke-width: 2"/>
      </g>
     </g>
     <g id="text_6">
      <!-- 5 -->
      <g transform="translate(588.995156 224.791947) scale(0.18 -0.18)">
       <defs>
        <path id="Arial-BoldMT-35" d="M 284 1178 
L 1159 1269 
Q 1197 972 1381 798 
Q 1566 625 1806 625 
Q 2081 625 2272 848 
Q 2463 1072 2463 1522 
Q 2463 1944 2273 2155 
Q 2084 2366 1781 2366 
Q 1403 2366 1103 2031 
L 391 2134 
L 841 4519 
L 3163 4519 
L 3163 3697 
L 1506 3697 
L 1369 2919 
Q 1663 3066 1969 3066 
Q 2553 3066 2959 2641 
Q 3366 2216 3366 1538 
Q 3366 972 3038 528 
Q 2591 -78 1797 -78 
Q 1163 -78 763 262 
Q 363 603 284 1178 
z
" transform="scale(0.015625)"/>
       </defs>
       <use xlink:href="#Arial-BoldMT-35"/>
      </g>
     </g>
    </g>
    <g id="xtick_7">
     <g id="line2d_7">
      <g>
       <use xlink:href="#m279539cbea" x="486.545498" y="198.907885" style="stroke: #000000; stroke-width: 2"/>
      </g>
     </g>
     <g id="text_7">
      <!-- 6 -->
      <g transform="translate(481.540654 224.791947) scale(0.18 -0.18)">
       <defs>
        <path id="Arial-BoldMT-36" d="M 3247 3459 
L 2397 3366 
Q 2366 3628 2234 3753 
Q 2103 3878 1894 3878 
Q 1616 3878 1423 3628 
Q 1231 3378 1181 2588 
Q 1509 2975 1997 2975 
Q 2547 2975 2939 2556 
Q 3331 2138 3331 1475 
Q 3331 772 2918 347 
Q 2506 -78 1859 -78 
Q 1166 -78 719 461 
Q 272 1000 272 2228 
Q 272 3488 737 4044 
Q 1203 4600 1947 4600 
Q 2469 4600 2811 4308 
Q 3153 4016 3247 3459 
z
M 1256 1544 
Q 1256 1116 1453 883 
Q 1650 650 1903 650 
Q 2147 650 2309 840 
Q 2472 1031 2472 1466 
Q 2472 1913 2297 2120 
Q 2122 2328 1859 2328 
Q 1606 2328 1431 2129 
Q 1256 1931 1256 1544 
z
" transform="scale(0.015625)"/>
       </defs>
       <use xlink:href="#Arial-BoldMT-36"/>
      </g>
     </g>
    </g>
    <g id="xtick_8">
     <g id="line2d_8">
      <g>
       <use xlink:href="#m279539cbea" x="379.090996" y="198.907885" style="stroke: #000000; stroke-width: 2"/>
      </g>
     </g>
     <g id="text_8">
      <!-- 7 -->
      <g transform="translate(374.086153 224.791947) scale(0.18 -0.18)">
       <defs>
        <path id="Arial-BoldMT-37" d="M 272 3703 
L 272 4519 
L 3275 4519 
L 3275 3881 
Q 2903 3516 2518 2831 
Q 2134 2147 1932 1376 
Q 1731 606 1734 0 
L 888 0 
Q 909 950 1279 1937 
Q 1650 2925 2269 3703 
L 272 3703 
z
" transform="scale(0.015625)"/>
       </defs>
       <use xlink:href="#Arial-BoldMT-37"/>
      </g>
     </g>
    </g>
    <g id="xtick_9">
     <g id="line2d_9">
      <g>
       <use xlink:href="#m279539cbea" x="271.636495" y="198.907885" style="stroke: #000000; stroke-width: 2"/>
      </g>
     </g>
     <g id="text_9">
      <!-- 8 -->
      <g transform="translate(266.631651 224.791947) scale(0.18 -0.18)">
       <defs>
        <path id="Arial-BoldMT-38" d="M 1025 2472 
Q 684 2616 529 2867 
Q 375 3119 375 3419 
Q 375 3931 733 4265 
Q 1091 4600 1750 4600 
Q 2403 4600 2764 4265 
Q 3125 3931 3125 3419 
Q 3125 3100 2959 2851 
Q 2794 2603 2494 2472 
Q 2875 2319 3073 2025 
Q 3272 1731 3272 1347 
Q 3272 713 2867 316 
Q 2463 -81 1791 -81 
Q 1166 -81 750 247 
Q 259 634 259 1309 
Q 259 1681 443 1992 
Q 628 2303 1025 2472 
z
M 1206 3356 
Q 1206 3094 1354 2947 
Q 1503 2800 1750 2800 
Q 2000 2800 2150 2948 
Q 2300 3097 2300 3359 
Q 2300 3606 2151 3754 
Q 2003 3903 1759 3903 
Q 1506 3903 1356 3753 
Q 1206 3603 1206 3356 
z
M 1125 1394 
Q 1125 1031 1311 828 
Q 1497 625 1775 625 
Q 2047 625 2225 820 
Q 2403 1016 2403 1384 
Q 2403 1706 2222 1901 
Q 2041 2097 1763 2097 
Q 1441 2097 1283 1875 
Q 1125 1653 1125 1394 
z
" transform="scale(0.015625)"/>
       </defs>
       <use xlink:href="#Arial-BoldMT-38"/>
      </g>
     </g>
    </g>
    <g id="xtick_10">
     <g id="line2d_10">
      <g>
       <use xlink:href="#m279539cbea" x="164.181993" y="198.907885" style="stroke: #000000; stroke-width: 2"/>
      </g>
     </g>
     <g id="text_10">
      <!-- 9 -->
      <g transform="translate(159.177149 224.791947) scale(0.18 -0.18)">
       <defs>
        <path id="Arial-BoldMT-39" d="M 291 1059 
L 1141 1153 
Q 1172 894 1303 769 
Q 1434 644 1650 644 
Q 1922 644 2112 894 
Q 2303 1144 2356 1931 
Q 2025 1547 1528 1547 
Q 988 1547 595 1964 
Q 203 2381 203 3050 
Q 203 3747 617 4173 
Q 1031 4600 1672 4600 
Q 2369 4600 2816 4061 
Q 3263 3522 3263 2288 
Q 3263 1031 2797 475 
Q 2331 -81 1584 -81 
Q 1047 -81 715 205 
Q 384 491 291 1059 
z
M 2278 2978 
Q 2278 3403 2083 3637 
Q 1888 3872 1631 3872 
Q 1388 3872 1227 3680 
Q 1066 3488 1066 3050 
Q 1066 2606 1241 2398 
Q 1416 2191 1678 2191 
Q 1931 2191 2104 2391 
Q 2278 2591 2278 2978 
z
" transform="scale(0.015625)"/>
       </defs>
       <use xlink:href="#Arial-BoldMT-39"/>
      </g>
     </g>
    </g>
    <g id="xtick_11">
     <g id="line2d_11">
      <g>
       <use xlink:href="#m279539cbea" x="56.727491" y="198.907885" style="stroke: #000000; stroke-width: 2"/>
      </g>
     </g>
     <g id="text_11">
      <!-- 10 -->
      <g transform="translate(46.717803 224.791947) scale(0.18 -0.18)">
       <use xlink:href="#Arial-BoldMT-31"/>
       <use xlink:href="#Arial-BoldMT-30" x="55.615234"/>
      </g>
     </g>
    </g>
    <g id="text_12">
     <!-- Chemical Shift / ppm -->
     <g transform="translate(504.992813 245.447573) scale(0.18 -0.18)">
      <defs>
       <path id="Arial-BoldMT-43" d="M 3397 1684 
L 4294 1400 
Q 4088 650 3608 286 
Q 3128 -78 2391 -78 
Q 1478 -78 890 545 
Q 303 1169 303 2250 
Q 303 3394 893 4026 
Q 1484 4659 2447 4659 
Q 3288 4659 3813 4163 
Q 4125 3869 4281 3319 
L 3366 3100 
Q 3284 3456 3026 3662 
Q 2769 3869 2400 3869 
Q 1891 3869 1573 3503 
Q 1256 3138 1256 2319 
Q 1256 1450 1568 1081 
Q 1881 713 2381 713 
Q 2750 713 3015 947 
Q 3281 1181 3397 1684 
z
" transform="scale(0.015625)"/>
       <path id="Arial-BoldMT-68" d="M 1334 4581 
L 1334 2897 
Q 1759 3394 2350 3394 
Q 2653 3394 2897 3281 
Q 3141 3169 3264 2994 
Q 3388 2819 3433 2606 
Q 3478 2394 3478 1947 
L 3478 0 
L 2600 0 
L 2600 1753 
Q 2600 2275 2550 2415 
Q 2500 2556 2373 2639 
Q 2247 2722 2056 2722 
Q 1838 2722 1666 2615 
Q 1494 2509 1414 2295 
Q 1334 2081 1334 1663 
L 1334 0 
L 456 0 
L 456 4581 
L 1334 4581 
z
" transform="scale(0.015625)"/>
       <path id="Arial-BoldMT-65" d="M 2381 1056 
L 3256 909 
Q 3088 428 2723 176 
Q 2359 -75 1813 -75 
Q 947 -75 531 491 
Q 203 944 203 1634 
Q 203 2459 634 2926 
Q 1066 3394 1725 3394 
Q 2466 3394 2894 2905 
Q 3322 2416 3303 1406 
L 1103 1406 
Q 1113 1016 1316 798 
Q 1519 581 1822 581 
Q 2028 581 2168 693 
Q 2309 806 2381 1056 
z
M 2431 1944 
Q 2422 2325 2234 2523 
Q 2047 2722 1778 2722 
Q 1491 2722 1303 2513 
Q 1116 2303 1119 1944 
L 2431 1944 
z
" transform="scale(0.015625)"/>
       <path id="Arial-BoldMT-6d" d="M 394 3319 
L 1203 3319 
L 1203 2866 
Q 1638 3394 2238 3394 
Q 2556 3394 2790 3262 
Q 3025 3131 3175 2866 
Q 3394 3131 3647 3262 
Q 3900 3394 4188 3394 
Q 4553 3394 4806 3245 
Q 5059 3097 5184 2809 
Q 5275 2597 5275 2122 
L 5275 0 
L 4397 0 
L 4397 1897 
Q 4397 2391 4306 2534 
Q 4184 2722 3931 2722 
Q 3747 2722 3584 2609 
Q 3422 2497 3350 2280 
Q 3278 2063 3278 1594 
L 3278 0 
L 2400 0 
L 2400 1819 
Q 2400 2303 2353 2443 
Q 2306 2584 2207 2653 
Q 2109 2722 1941 2722 
Q 1738 2722 1575 2612 
Q 1413 2503 1342 2297 
Q 1272 2091 1272 1613 
L 1272 0 
L 394 0 
L 394 3319 
z
" transform="scale(0.015625)"/>
       <path id="Arial-BoldMT-69" d="M 459 3769 
L 459 4581 
L 1338 4581 
L 1338 3769 
L 459 3769 
z
M 459 0 
L 459 3319 
L 1338 3319 
L 1338 0 
L 459 0 
z
" transform="scale(0.015625)"/>
       <path id="Arial-BoldMT-63" d="M 3353 2338 
L 2488 2181 
Q 2444 2441 2289 2572 
Q 2134 2703 1888 2703 
Q 1559 2703 1364 2476 
Q 1169 2250 1169 1719 
Q 1169 1128 1367 884 
Q 1566 641 1900 641 
Q 2150 641 2309 783 
Q 2469 925 2534 1272 
L 3397 1125 
Q 3263 531 2881 228 
Q 2500 -75 1859 -75 
Q 1131 -75 698 384 
Q 266 844 266 1656 
Q 266 2478 700 2936 
Q 1134 3394 1875 3394 
Q 2481 3394 2839 3133 
Q 3197 2872 3353 2338 
z
" transform="scale(0.015625)"/>
       <path id="Arial-BoldMT-61" d="M 1116 2306 
L 319 2450 
Q 453 2931 781 3162 
Q 1109 3394 1756 3394 
Q 2344 3394 2631 3255 
Q 2919 3116 3036 2902 
Q 3153 2688 3153 2116 
L 3144 1091 
Q 3144 653 3186 445 
Q 3228 238 3344 0 
L 2475 0 
Q 2441 88 2391 259 
Q 2369 338 2359 363 
Q 2134 144 1878 34 
Q 1622 -75 1331 -75 
Q 819 -75 523 203 
Q 228 481 228 906 
Q 228 1188 362 1408 
Q 497 1628 739 1745 
Q 981 1863 1438 1950 
Q 2053 2066 2291 2166 
L 2291 2253 
Q 2291 2506 2166 2614 
Q 2041 2722 1694 2722 
Q 1459 2722 1328 2630 
Q 1197 2538 1116 2306 
z
M 2291 1594 
Q 2122 1538 1756 1459 
Q 1391 1381 1278 1306 
Q 1106 1184 1106 997 
Q 1106 813 1243 678 
Q 1381 544 1594 544 
Q 1831 544 2047 700 
Q 2206 819 2256 991 
Q 2291 1103 2291 1419 
L 2291 1594 
z
" transform="scale(0.015625)"/>
       <path id="Arial-BoldMT-6c" d="M 459 0 
L 459 4581 
L 1338 4581 
L 1338 0 
L 459 0 
z
" transform="scale(0.015625)"/>
       <path id="Arial-BoldMT-20" transform="scale(0.015625)"/>
       <path id="Arial-BoldMT-53" d="M 231 1491 
L 1131 1578 
Q 1213 1125 1461 912 
Q 1709 700 2131 700 
Q 2578 700 2804 889 
Q 3031 1078 3031 1331 
Q 3031 1494 2936 1608 
Q 2841 1722 2603 1806 
Q 2441 1863 1863 2006 
Q 1119 2191 819 2459 
Q 397 2838 397 3381 
Q 397 3731 595 4036 
Q 794 4341 1167 4500 
Q 1541 4659 2069 4659 
Q 2931 4659 3367 4281 
Q 3803 3903 3825 3272 
L 2900 3231 
Q 2841 3584 2645 3739 
Q 2450 3894 2059 3894 
Q 1656 3894 1428 3728 
Q 1281 3622 1281 3444 
Q 1281 3281 1419 3166 
Q 1594 3019 2269 2859 
Q 2944 2700 3267 2529 
Q 3591 2359 3773 2064 
Q 3956 1769 3956 1334 
Q 3956 941 3737 597 
Q 3519 253 3119 86 
Q 2719 -81 2122 -81 
Q 1253 -81 787 320 
Q 322 722 231 1491 
z
" transform="scale(0.015625)"/>
       <path id="Arial-BoldMT-66" d="M 75 3319 
L 563 3319 
L 563 3569 
Q 563 3988 652 4194 
Q 741 4400 980 4529 
Q 1219 4659 1584 4659 
Q 1959 4659 2319 4547 
L 2200 3934 
Q 1991 3984 1797 3984 
Q 1606 3984 1523 3895 
Q 1441 3806 1441 3553 
L 1441 3319 
L 2097 3319 
L 2097 2628 
L 1441 2628 
L 1441 0 
L 563 0 
L 563 2628 
L 75 2628 
L 75 3319 
z
" transform="scale(0.015625)"/>
       <path id="Arial-BoldMT-74" d="M 1981 3319 
L 1981 2619 
L 1381 2619 
L 1381 1281 
Q 1381 875 1398 808 
Q 1416 741 1477 697 
Q 1538 653 1625 653 
Q 1747 653 1978 738 
L 2053 56 
Q 1747 -75 1359 -75 
Q 1122 -75 931 4 
Q 741 84 652 211 
Q 563 338 528 553 
Q 500 706 500 1172 
L 500 2619 
L 97 2619 
L 97 3319 
L 500 3319 
L 500 3978 
L 1381 4491 
L 1381 3319 
L 1981 3319 
z
" transform="scale(0.015625)"/>
       <path id="Arial-BoldMT-2f" d="M -9 -78 
L 1125 4659 
L 1784 4659 
L 638 -78 
L -9 -78 
z
" transform="scale(0.015625)"/>
       <path id="Arial-BoldMT-70" d="M 434 3319 
L 1253 3319 
L 1253 2831 
Q 1413 3081 1684 3237 
Q 1956 3394 2288 3394 
Q 2866 3394 3269 2941 
Q 3672 2488 3672 1678 
Q 3672 847 3265 386 
Q 2859 -75 2281 -75 
Q 2006 -75 1782 34 
Q 1559 144 1313 409 
L 1313 -1263 
L 434 -1263 
L 434 3319 
z
M 1303 1716 
Q 1303 1156 1525 889 
Q 1747 622 2066 622 
Q 2372 622 2575 867 
Q 2778 1113 2778 1672 
Q 2778 2194 2568 2447 
Q 2359 2700 2050 2700 
Q 1728 2700 1515 2451 
Q 1303 2203 1303 1716 
z
" transform="scale(0.015625)"/>
      </defs>
      <use xlink:href="#Arial-BoldMT-43"/>
      <use xlink:href="#Arial-BoldMT-68" x="72.216797"/>
      <use xlink:href="#Arial-BoldMT-65" x="133.300781"/>
      <use xlink:href="#Arial-BoldMT-6d" x="188.916016"/>
      <use xlink:href="#Arial-BoldMT-69" x="277.832031"/>
      <use xlink:href="#Arial-BoldMT-63" x="305.615234"/>
      <use xlink:href="#Arial-BoldMT-61" x="361.230469"/>
      <use xlink:href="#Arial-BoldMT-6c" x="416.845703"/>
      <use xlink:href="#Arial-BoldMT-20" x="444.628906"/>
      <use xlink:href="#Arial-BoldMT-53" x="472.412109"/>
      <use xlink:href="#Arial-BoldMT-68" x="539.111328"/>
      <use xlink:href="#Arial-BoldMT-69" x="600.195312"/>
      <use xlink:href="#Arial-BoldMT-66" x="627.978516"/>
      <use xlink:href="#Arial-BoldMT-74" x="661.279297"/>
      <use xlink:href="#Arial-BoldMT-20" x="694.580078"/>
      <use xlink:href="#Arial-BoldMT-2f" x="722.363281"/>
      <use xlink:href="#Arial-BoldMT-20" x="750.146484"/>
      <use xlink:href="#Arial-BoldMT-70" x="777.929688"/>
      <use xlink:href="#Arial-BoldMT-70" x="839.013672"/>
      <use xlink:href="#Arial-BoldMT-6d" x="900.097656"/>
     </g>
    </g>
   </g>
   <g id="matplotlib.axis_2"/>
   <g id="line2d_12">
    <path d="M 3.053862 187.639858 
L 3.258482 187.717545 
L 3.667721 187.977547 
L 4.076961 187.735174 
L 5.100059 187.990305 
L 5.509299 187.753187 
L 5.713918 187.821101 
L 6.123158 188.398838 
L 6.532397 189.013527 
L 6.941637 189.2754 
L 7.146256 189.207323 
L 7.555496 188.530553 
L 7.964735 187.57241 
L 8.169355 187.347218 
L 8.373975 187.395134 
L 9.192454 188.421637 
L 9.601693 188.559759 
L 9.806313 188.44576 
L 10.215552 187.999279 
L 10.624792 187.966335 
L 10.829412 188.000548 
L 11.034031 187.8373 
L 11.443271 187.317173 
L 11.64789 187.325727 
L 12.670989 188.138571 
L 12.875609 188.11048 
L 13.284848 187.734608 
L 14.103327 187.914007 
L 14.512567 188.103773 
L 15.126426 188.659426 
L 15.331046 188.557053 
L 16.149524 187.560871 
L 16.354144 187.380808 
L 16.558764 187.401432 
L 17.377243 188.915448 
L 17.786482 188.404615 
L 17.991102 188.168941 
L 18.195722 188.120864 
L 18.604961 188.380785 
L 19.014201 188.746074 
L 19.21882 188.719769 
L 19.832679 188.073405 
L 20.037299 188.03374 
L 20.651158 188.196834 
L 21.265018 187.732158 
L 21.674257 187.529395 
L 22.083496 187.348374 
L 22.492736 187.426437 
L 23.311215 187.261909 
L 23.720454 187.453858 
L 24.129694 187.753088 
L 24.334313 187.760209 
L 24.743553 187.333061 
L 25.152792 187.016388 
L 25.766652 186.977209 
L 26.175891 187.157225 
L 26.99437 187.909934 
L 27.19899 187.968754 
L 27.608229 187.626229 
L 28.017469 187.320833 
L 28.426708 187.249346 
L 28.631328 187.165251 
L 28.835947 187.207176 
L 29.245187 187.567968 
L 29.449807 187.602305 
L 30.063666 187.235 
L 30.677525 187.665428 
L 31.086764 187.374816 
L 31.291384 187.376985 
L 31.905243 187.854901 
L 32.928342 187.608458 
L 33.337581 187.230893 
L 33.746821 187.132228 
L 34.15606 186.993683 
L 34.5653 187.38411 
L 34.974539 187.930176 
L 35.793018 188.362385 
L 36.202258 188.172648 
L 36.406877 188.077486 
L 37.020737 188.238721 
L 37.225356 188.086777 
L 37.839215 187.265123 
L 38.043835 187.197889 
L 38.248455 186.959932 
L 38.657694 186.020279 
L 38.862314 185.822647 
L 39.066934 185.839704 
L 39.476173 186.418031 
L 39.885413 186.916776 
L 40.294652 187.00803 
L 40.703892 186.885093 
L 40.908511 186.712208 
L 41.317751 186.12745 
L 41.522371 186.091917 
L 42.340849 186.508484 
L 42.954709 186.926641 
L 43.568568 187.406042 
L 43.773188 187.449869 
L 44.182427 187.212006 
L 44.796286 186.635784 
L 45.000906 186.562344 
L 45.819385 186.958716 
L 46.433244 187.621905 
L 46.842483 188.054461 
L 47.047103 188.132177 
L 47.251723 188.083871 
L 47.865582 187.575842 
L 48.479441 187.776933 
L 49.29792 187.499151 
L 49.911779 187.14839 
L 50.730258 187.358809 
L 51.344117 188.258081 
L 51.548737 188.279099 
L 52.367216 187.792892 
L 52.776456 187.157279 
L 53.185695 186.608165 
L 53.594934 186.582386 
L 54.004174 186.707212 
L 54.618033 187.187061 
L 55.231892 186.900583 
L 55.641132 186.901187 
L 56.254991 186.757351 
L 56.86885 187.248899 
L 57.482709 187.244611 
L 58.301188 187.518067 
L 59.119667 188.458696 
L 59.733526 188.100165 
L 60.142766 188.355348 
L 60.347385 188.500364 
L 60.552005 188.465695 
L 61.370484 187.613035 
L 62.393583 187.573422 
L 62.802822 187.97892 
L 63.212062 188.306589 
L 63.621301 188.2437 
L 64.6444 187.759611 
L 65.258259 187.800046 
L 66.281357 187.1668 
L 66.895217 186.433061 
L 67.099836 186.393116 
L 67.509076 186.89463 
L 67.918315 187.316929 
L 68.736794 187.646923 
L 69.555273 188.680367 
L 69.964513 189.202405 
L 70.169132 189.089358 
L 70.782991 188.28422 
L 71.396851 187.964732 
L 71.80609 187.577337 
L 72.624569 188.041865 
L 73.033808 187.825745 
L 73.443048 187.576128 
L 73.852287 187.8659 
L 74.056907 187.960952 
L 74.466147 187.58426 
L 74.875386 187.371307 
L 75.489245 187.365716 
L 75.693865 187.310091 
L 76.307724 186.756343 
L 76.512344 186.898989 
L 77.126203 187.802029 
L 77.535442 187.840984 
L 78.149302 187.5603 
L 78.763161 186.946262 
L 78.967781 187.062098 
L 79.37702 187.499081 
L 79.786259 187.65615 
L 80.400119 188.267856 
L 81.013978 187.808659 
L 82.037076 188.130556 
L 82.241696 188.139465 
L 82.650936 187.906539 
L 82.855555 187.96272 
L 83.469415 188.538829 
L 85.106372 188.034846 
L 85.720232 188.183196 
L 86.129471 187.689132 
L 86.53871 187.294901 
L 87.15257 187.265871 
L 87.357189 187.370529 
L 87.971049 188.001877 
L 88.584908 188.266734 
L 88.994147 188.19629 
L 89.198767 188.123762 
L 89.812626 188.304947 
L 90.835725 187.585286 
L 91.244964 187.614335 
L 91.654204 187.429903 
L 92.063443 187.808418 
L 92.677302 188.53768 
L 93.086542 188.182874 
L 93.700401 188.270729 
L 94.10964 187.957022 
L 94.51888 187.952229 
L 95.337359 188.251095 
L 95.541978 188.140434 
L 96.360457 187.170461 
L 96.565077 187.143316 
L 96.769697 187.291963 
L 97.178936 188.011689 
L 97.383556 188.154182 
L 97.792795 187.869186 
L 98.611274 187.305617 
L 99.020514 187.161626 
L 100.248232 187.736098 
L 100.657472 187.435943 
L 101.066711 187.13998 
L 102.294429 186.987089 
L 102.703669 187.393889 
L 103.112908 187.737326 
L 103.522148 187.807824 
L 103.726767 187.706221 
L 104.545246 186.41542 
L 104.749866 186.361283 
L 104.954486 186.476104 
L 105.568345 187.089739 
L 105.772965 187.147561 
L 105.977584 187.030527 
L 106.591444 186.053954 
L 106.796063 186.091487 
L 107.614542 186.856971 
L 108.023782 186.859781 
L 108.433021 187.003531 
L 109.2515 187.645247 
L 110.479218 187.702336 
L 110.888458 187.585653 
L 111.706937 187.658458 
L 112.525416 187.338222 
L 112.934655 187.148983 
L 113.343895 187.298673 
L 114.571613 188.161882 
L 114.776233 187.877564 
L 115.390092 186.572685 
L 116.413191 186.033423 
L 116.61781 185.993049 
L 117.02705 186.280928 
L 118.254768 187.674046 
L 118.664008 187.612257 
L 119.687106 186.9182 
L 120.096346 187.22739 
L 120.710205 187.933279 
L 120.914825 188.071349 
L 121.119444 187.911622 
L 121.528684 187.089826 
L 121.733303 186.951779 
L 121.937923 187.14502 
L 122.347163 187.759876 
L 122.551782 187.805011 
L 123.574881 187.202433 
L 124.59798 187.388016 
L 125.007219 187.079986 
L 125.416459 186.85723 
L 126.030318 186.940231 
L 126.644177 186.694004 
L 127.053416 186.670517 
L 127.871895 187.254 
L 128.690374 187.582604 
L 130.327332 186.614978 
L 130.941191 185.833743 
L 131.350431 185.627615 
L 131.96429 185.818873 
L 132.373529 186.415633 
L 132.782769 186.920368 
L 134.010487 186.688153 
L 135.033586 186.380636 
L 135.647445 187.026063 
L 136.056684 187.371507 
L 136.465924 187.810211 
L 137.693642 188.073162 
L 138.92136 187.543829 
L 139.12598 187.676088 
L 139.3306 187.664482 
L 140.558318 186.613077 
L 140.967558 186.615721 
L 141.581417 186.131525 
L 141.786037 185.973585 
L 141.990656 185.976289 
L 142.399896 186.521788 
L 142.604516 186.80241 
L 142.809135 186.876635 
L 143.218375 186.728101 
L 143.832234 186.772506 
L 144.241473 186.817853 
L 144.650713 186.906945 
L 146.083051 187.865984 
L 146.49229 187.894975 
L 146.90153 187.778847 
L 147.310769 187.75302 
L 148.129248 187.344353 
L 148.538488 187.634854 
L 149.152347 187.669349 
L 149.356967 187.733344 
L 149.561586 187.662462 
L 150.380065 187.015203 
L 150.584685 186.981484 
L 150.993924 186.430111 
L 151.198544 186.135336 
L 151.403164 186.053454 
L 152.017023 186.526081 
L 152.426262 186.656081 
L 153.040122 187.110032 
L 153.244741 187.095772 
L 153.653981 186.790895 
L 153.858601 186.83637 
L 154.26784 187.113975 
L 155.086319 186.59598 
L 156.314037 186.464242 
L 156.927896 185.657242 
L 157.132516 185.728597 
L 157.746375 186.330658 
L 157.950995 186.20716 
L 158.564854 185.42311 
L 158.769474 185.400784 
L 158.974094 185.551584 
L 159.997192 187.039895 
L 160.201812 187.040058 
L 160.815671 186.720324 
L 161.224911 186.69463 
L 161.63415 186.90692 
L 162.04339 186.780616 
L 162.452629 186.696763 
L 163.475728 186.151369 
L 163.884967 186.353003 
L 164.294207 186.620597 
L 164.498826 186.626817 
L 164.908066 186.269375 
L 165.317305 185.718593 
L 165.521925 185.647903 
L 165.931164 185.888446 
L 166.545024 186.301258 
L 166.749643 186.193317 
L 167.158883 185.298176 
L 167.568122 184.451426 
L 167.772742 184.574127 
L 168.386601 185.992791 
L 168.591221 186.013694 
L 169.4097 185.402719 
L 170.023559 185.477854 
L 170.842038 186.302764 
L 171.455897 186.467922 
L 171.865137 186.647309 
L 172.478996 186.323607 
L 172.888235 186.270404 
L 173.502094 186.407399 
L 173.706714 186.36564 
L 173.911334 186.463938 
L 174.729813 187.414278 
L 175.548292 186.787277 
L 175.957531 186.859659 
L 176.36677 186.785939 
L 176.77601 186.901518 
L 176.98063 186.80568 
L 177.594489 186.008223 
L 178.822207 185.690305 
L 179.231447 185.841418 
L 179.640686 186.145961 
L 180.663785 186.009586 
L 180.868404 186.053165 
L 181.482264 185.750564 
L 181.891503 185.959592 
L 182.505362 185.938509 
L 183.119221 186.267746 
L 183.528461 186.265247 
L 184.34694 185.999427 
L 184.756179 186.336908 
L 185.165419 186.791018 
L 185.370038 186.793349 
L 185.983898 186.024268 
L 186.597757 186.84417 
L 187.006996 186.791367 
L 187.416236 186.605216 
L 187.825475 186.700905 
L 188.439334 187.122926 
L 189.053194 186.960765 
L 189.462433 187.266245 
L 189.667053 187.482669 
L 189.871672 187.499945 
L 190.076292 187.152142 
L 190.485532 185.973355 
L 190.690151 185.681183 
L 191.099391 185.570942 
L 191.50863 185.686575 
L 192.736349 186.60199 
L 192.940968 186.471489 
L 193.554828 185.731464 
L 193.964067 185.729271 
L 194.987166 186.359795 
L 195.805645 186.989051 
L 196.214884 186.566219 
L 196.419504 186.326366 
L 196.624123 186.338215 
L 197.237983 187.204606 
L 197.442602 187.179428 
L 197.851842 186.605317 
L 198.261081 185.881525 
L 198.465701 185.901734 
L 199.28418 186.776464 
L 199.4888 186.758209 
L 200.102659 186.014661 
L 200.307279 186.034179 
L 200.716518 186.25593 
L 201.125757 186.032882 
L 201.534997 185.885485 
L 201.944236 186.327105 
L 202.353476 186.761403 
L 203.171955 187.067121 
L 203.581194 187.615698 
L 203.785814 187.576202 
L 204.195053 187.245995 
L 204.604293 187.214712 
L 205.013532 187.185319 
L 206.036631 186.559201 
L 206.44587 186.284927 
L 207.264349 186.481882 
L 207.673589 186.025572 
L 208.287448 185.314989 
L 208.492068 185.204996 
L 209.310547 185.39405 
L 209.719786 185.274273 
L 209.924406 185.39717 
L 210.333645 185.819128 
L 210.538265 185.738534 
L 211.561363 184.39588 
L 211.970603 184.287773 
L 212.379842 184.663929 
L 212.789082 184.875907 
L 213.402941 184.676511 
L 213.81218 184.810402 
L 214.22142 184.996895 
L 214.630659 184.84895 
L 215.244519 184.275479 
L 216.062997 183.963262 
L 216.472237 183.505589 
L 216.881476 182.852202 
L 217.086096 182.753347 
L 217.495336 182.845696 
L 217.699955 182.72796 
L 218.927674 181.209526 
L 219.336913 181.299982 
L 219.746153 181.333772 
L 221.178491 180.532571 
L 221.99697 180.949383 
L 222.610829 180.602978 
L 223.224688 180.554468 
L 223.633927 180.629326 
L 224.043167 179.861409 
L 224.452406 179.044885 
L 224.657026 179.030472 
L 225.270885 179.485987 
L 225.680125 179.401099 
L 226.293984 178.766772 
L 226.498604 178.821749 
L 226.907843 179.081154 
L 227.521702 178.709773 
L 227.930942 178.770726 
L 228.749421 179.539007 
L 229.567899 179.048869 
L 230.386378 177.913602 
L 230.795618 176.657419 
L 231.409477 173.470776 
L 232.637195 166.27018 
L 233.046435 161.744077 
L 233.864914 148.277209 
L 234.274153 141.516796 
L 234.683393 137.946235 
L 235.706491 133.266297 
L 235.911111 133.057452 
L 236.115731 133.019419 
L 236.32035 132.738202 
L 236.72959 130.996289 
L 236.93421 130.044853 
L 237.138829 129.626635 
L 237.343449 129.894521 
L 237.752689 130.995572 
L 237.957308 131.303484 
L 238.161928 131.819044 
L 238.366548 132.986535 
L 238.775787 137.577413 
L 239.185027 141.933855 
L 239.389646 142.779348 
L 239.594266 142.686996 
L 239.798886 141.812782 
L 240.208125 137.618889 
L 240.617365 132.137329 
L 240.821984 130.691772 
L 241.026604 130.250507 
L 241.231224 130.238811 
L 241.435844 130.027957 
L 241.640463 129.242707 
L 242.254323 125.078724 
L 242.458942 124.585118 
L 242.663562 124.73664 
L 243.072801 125.770288 
L 243.277421 126.707117 
L 243.686661 130.450862 
L 244.30052 136.335374 
L 244.709759 139.737387 
L 245.118999 147.423359 
L 245.937478 165.510528 
L 246.346717 170.607394 
L 246.960576 174.455932 
L 247.574435 176.870786 
L 249.006774 180.081857 
L 249.416013 180.22047 
L 249.620633 180.162629 
L 250.234492 179.581427 
L 250.643731 179.806678 
L 251.25759 180.420507 
L 251.87145 181.012794 
L 252.076069 181.017191 
L 252.689929 180.545482 
L 252.894548 180.561121 
L 253.303788 181.123242 
L 253.917647 181.773731 
L 254.122267 181.827172 
L 255.349985 181.08116 
L 256.168464 180.94527 
L 256.373084 181.083236 
L 257.396182 182.596605 
L 257.600802 182.575792 
L 258.623901 181.24596 
L 259.03314 180.651371 
L 259.23776 180.540202 
L 259.851619 180.705557 
L 260.056239 180.554656 
L 261.079337 179.034497 
L 261.488577 178.99806 
L 261.897816 178.976633 
L 262.511675 178.751148 
L 262.920915 178.81885 
L 263.125535 178.64287 
L 263.534774 177.711065 
L 264.148633 176.116677 
L 264.353253 175.925384 
L 264.762492 175.840577 
L 264.967112 175.651557 
L 265.785591 174.173172 
L 266.80869 174.335568 
L 267.013309 174.247244 
L 267.217929 174.036368 
L 267.627169 172.98935 
L 268.445648 170.366016 
L 269.877986 168.131378 
L 270.287225 167.185091 
L 270.696465 165.230709 
L 272.333422 153.934036 
L 273.97038 139.673939 
L 274.584239 135.655185 
L 274.993479 134.343397 
L 275.198099 134.121712 
L 275.607338 134.386641 
L 276.016577 134.909533 
L 276.425817 135.783711 
L 276.835056 137.265679 
L 277.653535 142.276224 
L 278.267394 146.220634 
L 278.881254 148.412033 
L 279.085873 148.778524 
L 279.290493 148.887331 
L 279.495113 148.712986 
L 280.313592 147.464667 
L 280.722831 146.778461 
L 281.132071 145.993376 
L 281.74593 145.168985 
L 282.359789 144.063193 
L 282.564409 144.345711 
L 284.815226 153.325804 
L 285.838324 156.062986 
L 286.452184 157.143957 
L 287.066043 158.41232 
L 287.679902 159.323186 
L 288.089141 159.447603 
L 288.703 159.316383 
L 288.90762 159.33831 
L 289.31686 158.921618 
L 290.544578 157.286463 
L 290.953817 157.355094 
L 291.772296 157.951424 
L 292.181536 157.642245 
L 292.795395 156.906941 
L 293.000015 156.911354 
L 293.409254 157.471264 
L 294.023113 158.64335 
L 294.227733 158.765032 
L 294.841592 158.745341 
L 295.250832 159.396692 
L 296.47855 162.145598 
L 297.092409 163.745597 
L 297.910888 166.142388 
L 298.320128 166.785867 
L 298.729367 167.191402 
L 299.547846 168.576925 
L 299.957085 168.82396 
L 300.366325 168.631873 
L 301.184804 167.340661 
L 301.389424 166.813141 
L 301.798663 164.227246 
L 302.412522 158.946285 
L 302.617142 158.593126 
L 302.821762 159.42255 
L 303.435621 163.655995 
L 303.640241 164.458733 
L 303.84486 164.792072 
L 304.04948 164.78292 
L 304.2541 164.537305 
L 304.458719 164.0222 
L 305.072579 161.423098 
L 305.277198 161.308384 
L 305.481818 162.173843 
L 306.300297 167.672174 
L 306.709536 169.298777 
L 306.914156 169.756514 
L 307.118776 169.82865 
L 307.732635 169.32658 
L 308.346494 169.117511 
L 308.755734 168.913051 
L 309.164973 168.194668 
L 309.778832 166.7313 
L 310.188072 164.214559 
L 310.801931 157.228945 
L 311.21117 152.925547 
L 312.029649 147.475497 
L 312.438889 140.146752 
L 313.052748 125.36839 
L 313.257368 124.200284 
L 313.461987 126.445174 
L 314.280466 142.660516 
L 314.485086 144.278972 
L 314.689706 144.627705 
L 314.894326 143.830227 
L 315.098945 141.819679 
L 315.917424 129.448474 
L 316.122044 131.953263 
L 316.940523 151.101939 
L 317.349762 155.251136 
L 317.759002 156.744372 
L 317.963621 156.93444 
L 318.168241 156.650175 
L 318.577481 155.057136 
L 318.98672 152.138941 
L 319.600579 145.493168 
L 320.009819 138.8188 
L 320.419058 128.432216 
L 320.828298 111.579759 
L 321.237537 85.019728 
L 321.851396 36.889059 
L 322.056016 29.714431 
L 322.260636 30.265903 
L 322.874495 46.538872 
L 323.079115 46.168887 
L 323.488354 35.586693 
L 324.511453 3.259392 
L 324.716072 3.00024 
L 324.920692 7.955739 
L 325.329932 31.015161 
L 325.739171 53.010117 
L 325.943791 57.389545 
L 326.35303 59.952512 
L 326.55765 65.201244 
L 327.580749 114.323363 
L 327.989988 120.582672 
L 328.399227 122.942559 
L 329.013087 125.635318 
L 329.422326 128.888233 
L 330.036185 136.563418 
L 330.854664 147.117988 
L 331.263904 150.11145 
L 331.468523 150.53308 
L 331.673143 150.336083 
L 331.877763 149.480691 
L 332.287002 145.472652 
L 332.900861 137.699336 
L 333.105481 137.126854 
L 333.514721 138.17451 
L 333.71934 137.944786 
L 334.12858 136.07385 
L 334.3332 136.26847 
L 334.742439 140.104917 
L 335.151678 143.219303 
L 335.560918 144.174781 
L 336.174777 144.674635 
L 336.379397 144.389293 
L 336.788636 142.477479 
L 336.993256 141.471202 
L 337.197876 141.061482 
L 337.402495 141.347329 
L 337.811735 142.511748 
L 338.016355 142.690495 
L 338.220974 142.604084 
L 338.425594 142.287547 
L 338.630214 141.544555 
L 338.834834 140.16377 
L 339.244073 135.047289 
L 339.653312 126.877638 
L 340.471791 105.287741 
L 340.676411 105.914441 
L 341.085651 117.714577 
L 341.49489 129.243232 
L 341.904129 134.267586 
L 342.108749 134.485173 
L 342.313369 133.334236 
L 342.722608 127.684581 
L 343.131848 121.670366 
L 343.336468 121.651648 
L 343.541087 124.693592 
L 344.359566 143.492912 
L 344.768806 147.181909 
L 344.973425 147.842019 
L 345.178045 147.792913 
L 345.382665 146.99697 
L 345.587285 145.419039 
L 345.996524 139.530399 
L 346.405763 129.7973 
L 346.815003 119.260689 
L 347.019623 117.601297 
L 347.224242 119.816032 
L 347.838102 134.001845 
L 348.042721 136.041209 
L 348.247341 136.178443 
L 348.451961 134.660993 
L 348.8612 127.160584 
L 349.27044 117.487395 
L 349.475059 114.853069 
L 349.679679 114.65422 
L 349.884299 116.896665 
L 350.293538 127.704482 
L 350.702778 139.198558 
L 351.112017 144.522352 
L 351.316637 144.970827 
L 351.521257 144.223101 
L 351.725876 142.977896 
L 351.930496 142.49045 
L 352.135116 143.83225 
L 353.158214 158.730419 
L 353.567454 160.420076 
L 353.772074 160.664463 
L 353.976693 160.638413 
L 354.181313 160.382787 
L 354.385933 159.702041 
L 354.795172 156.384294 
L 355.409031 148.92049 
L 355.613651 149.079507 
L 356.022891 154.954914 
L 356.43213 161.219072 
L 356.84137 164.517523 
L 357.045989 165.079597 
L 357.250609 165.046084 
L 357.455229 164.380155 
L 357.864468 160.900988 
L 358.273708 157.080446 
L 358.478327 157.307522 
L 358.887567 163.459443 
L 359.501426 172.758573 
L 359.910665 175.728197 
L 360.524525 178.288989 
L 361.752243 181.702201 
L 361.956863 181.823111 
L 362.161482 181.758801 
L 362.775342 181.047584 
L 363.184581 180.394574 
L 363.593821 179.404626 
L 363.79844 179.347233 
L 364.00306 179.72221 
L 364.616919 181.514382 
L 364.821539 181.680744 
L 365.230778 181.065077 
L 365.640018 180.637991 
L 366.049257 180.804623 
L 366.458497 181.121134 
L 367.481595 182.434285 
L 367.686215 182.473015 
L 368.300074 182.317933 
L 368.504694 182.488053 
L 369.527793 184.025663 
L 369.732412 184.117175 
L 369.937032 184.044573 
L 370.346271 183.501034 
L 370.960131 182.648204 
L 371.36937 182.514632 
L 371.77861 182.649847 
L 371.983229 182.706723 
L 372.187849 182.578633 
L 372.801708 181.485827 
L 373.620187 179.853861 
L 374.029427 179.531767 
L 374.438666 179.575631 
L 374.847905 179.87331 
L 375.257145 179.909225 
L 375.871004 180.424646 
L 376.280244 181.463085 
L 376.689483 182.757599 
L 376.894103 183.084263 
L 377.507962 183.077616 
L 377.917201 183.004218 
L 378.326441 182.951492 
L 378.9403 183.631079 
L 379.554159 184.127829 
L 380.168018 184.437799 
L 380.781878 184.48427 
L 381.395737 184.203258 
L 381.804976 183.627413 
L 382.214216 182.984184 
L 382.828075 182.243661 
L 383.237314 181.821671 
L 383.441934 181.933052 
L 384.669652 183.881772 
L 385.078892 183.756048 
L 386.10199 184.337617 
L 386.71585 184.821572 
L 387.329709 185.093343 
L 387.738948 184.878262 
L 387.943568 184.935124 
L 388.966667 185.759111 
L 389.171286 185.787955 
L 389.580526 185.486259 
L 390.194385 184.915445 
L 390.399005 184.903991 
L 390.808244 185.333712 
L 391.217484 185.907279 
L 391.422103 185.962206 
L 391.831343 185.680706 
L 392.649822 184.639253 
L 393.059061 184.790896 
L 393.468301 184.305551 
L 394.08216 183.309603 
L 394.28678 183.459945 
L 394.900639 184.789219 
L 395.105258 184.875582 
L 396.332977 184.084579 
L 396.742216 183.904053 
L 397.560695 183.159568 
L 397.969935 182.989239 
L 398.174554 182.681433 
L 398.788414 181.223512 
L 399.606892 180.602777 
L 400.016132 180.038299 
L 400.220752 180.004098 
L 400.629991 180.221914 
L 400.834611 180.145118 
L 401.65309 179.175422 
L 401.857709 179.071976 
L 402.266949 179.157212 
L 402.676188 178.793064 
L 403.085428 178.781995 
L 403.699287 179.314627 
L 403.903907 179.199631 
L 404.517766 178.512419 
L 404.722386 178.617082 
L 405.131625 179.364487 
L 406.154724 182.085434 
L 406.563963 182.315934 
L 407.177822 182.565622 
L 407.587062 182.845251 
L 407.996301 182.786077 
L 408.81478 182.128464 
L 409.428639 181.603573 
L 409.633259 181.758861 
L 410.247118 183.130677 
L 410.451738 183.119591 
L 410.860977 182.736344 
L 411.270217 182.772654 
L 411.679456 182.946245 
L 412.088696 183.15646 
L 412.702555 182.961577 
L 413.111794 182.936846 
L 413.521034 182.691348 
L 414.134893 182.07464 
L 414.544132 182.135729 
L 414.953372 182.636905 
L 415.362611 183.383042 
L 415.771851 183.694173 
L 415.976471 183.793849 
L 416.18109 184.02502 
L 416.794949 185.183025 
L 420.273485 187.923044 
L 420.478105 187.861576 
L 421.091964 187.155999 
L 421.296583 187.273032 
L 421.705823 187.854803 
L 422.524302 187.600829 
L 422.728922 187.441061 
L 423.342781 186.620785 
L 423.95664 186.286045 
L 424.365879 185.944923 
L 425.388978 184.975979 
L 425.593598 185.035273 
L 426.821316 186.301463 
L 427.844415 187.1751 
L 429.276753 187.314546 
L 429.481373 187.263986 
L 430.504471 186.272215 
L 430.913711 185.885992 
L 431.32295 186.045398 
L 432.141429 187.282413 
L 432.550668 187.249806 
L 432.755288 187.070248 
L 433.164528 186.37948 
L 433.369147 186.388378 
L 433.778387 186.582517 
L 434.187626 186.419589 
L 434.392246 186.487372 
L 435.210725 187.358416 
L 435.415345 187.326909 
L 436.233824 186.756903 
L 436.643063 186.692169 
L 437.052302 186.489917 
L 437.461542 186.524676 
L 438.075401 186.852753 
L 439.0985 186.492975 
L 439.507739 186.544866 
L 440.121598 187.203536 
L 440.530838 187.111747 
L 440.940077 186.631357 
L 441.349317 185.899054 
L 441.758556 185.587817 
L 442.167796 185.448358 
L 442.781655 185.477926 
L 443.600134 184.879469 
L 444.009373 184.871619 
L 444.418613 185.207427 
L 445.032472 186.033001 
L 445.850951 186.360528 
L 446.26019 186.773696 
L 446.66943 186.762126 
L 447.897148 186.108324 
L 448.101768 186.105533 
L 448.511007 186.403371 
L 449.124866 186.808948 
L 449.329486 186.72364 
L 449.943345 185.825639 
L 450.147965 185.892391 
L 450.966444 186.832406 
L 451.375683 187.531685 
L 451.989542 187.87999 
L 453.217261 187.741917 
L 453.6265 187.541164 
L 454.240359 187.69465 
L 454.854219 187.232049 
L 455.058838 187.350114 
L 455.468078 187.994405 
L 455.877317 188.593021 
L 456.081937 188.477467 
L 456.491176 188.034481 
L 456.900416 187.984926 
L 457.923515 186.441751 
L 458.332754 186.27679 
L 458.537374 186.374818 
L 458.946613 186.81321 
L 459.151233 186.809095 
L 459.560472 186.527053 
L 459.969712 186.415744 
L 460.378951 186.2201 
L 460.788191 186.4741 
L 461.60667 187.155347 
L 462.015909 187.115322 
L 462.425149 187.035421 
L 462.834388 187.100553 
L 463.857487 186.864921 
L 464.675966 187.208819 
L 464.880585 187.184565 
L 465.289825 187.565375 
L 465.699064 187.847757 
L 466.312923 187.771321 
L 467.336022 187.957786 
L 467.745261 188.186493 
L 468.359121 187.951572 
L 468.97298 187.501671 
L 469.382219 187.406953 
L 469.996078 186.73629 
L 470.200698 186.781854 
L 471.223797 188.048271 
L 471.428417 188.14573 
L 471.837656 187.895766 
L 472.246895 187.774299 
L 473.474614 188.40818 
L 474.293093 188.171761 
L 474.497712 188.250111 
L 474.906952 188.043503 
L 475.930051 187.090941 
L 476.13467 187.057152 
L 476.953149 187.618835 
L 477.362389 187.499748 
L 477.567008 187.620056 
L 477.976248 188.015718 
L 478.180868 187.884629 
L 478.590107 187.353721 
L 479.613206 187.340432 
L 480.022445 187.214749 
L 480.840924 187.584553 
L 481.250163 187.472848 
L 481.454783 187.585317 
L 481.864023 187.996952 
L 482.068642 187.912141 
L 483.091741 186.247854 
L 483.296361 186.189754 
L 483.7056 186.456575 
L 484.728699 187.556295 
L 484.933318 187.526124 
L 485.137938 187.323385 
L 485.956417 185.821283 
L 486.161037 185.893503 
L 486.570276 186.492244 
L 486.979516 187.000817 
L 487.388755 187.032321 
L 487.797995 187.571109 
L 488.207234 188.149369 
L 488.616474 188.433334 
L 489.230333 188.471415 
L 489.844192 188.199311 
L 490.458051 187.660298 
L 490.867291 187.534081 
L 491.27653 187.689543 
L 492.299629 188.768985 
L 492.913488 189.58739 
L 493.527347 189.922351 
L 493.936586 189.848165 
L 494.345826 189.488159 
L 494.755065 188.491531 
L 495.164305 187.49709 
L 495.368925 187.293201 
L 495.778164 187.206067 
L 496.392023 186.633145 
L 496.596643 186.63371 
L 496.801263 186.783582 
L 497.415122 187.781913 
L 498.028981 187.830885 
L 498.233601 187.796515 
L 499.05208 187.240615 
L 499.461319 187.021897 
L 499.870559 186.516014 
L 501.098277 184.042303 
L 501.712136 184.290796 
L 502.325995 184.51831 
L 502.530615 184.383697 
L 503.962953 182.308939 
L 504.576812 181.393198 
L 504.781432 181.305611 
L 504.986052 181.446285 
L 505.395291 182.470522 
L 505.804531 183.582525 
L 506.21377 184.010992 
L 506.41839 183.9659 
L 506.827629 183.567862 
L 507.032249 183.554867 
L 508.055348 184.567103 
L 508.669207 186.188125 
L 509.487686 187.948368 
L 509.692305 187.980351 
L 510.101545 187.800828 
L 510.306165 187.854364 
L 510.715404 188.460137 
L 511.124644 189.003092 
L 511.329263 188.841194 
L 512.147742 186.964555 
L 512.556982 186.594582 
L 512.966221 186.84989 
L 513.375461 186.99559 
L 514.193939 187.211935 
L 514.603179 187.050159 
L 515.012418 187.617001 
L 515.217038 187.866697 
L 516.649376 188.278665 
L 517.058616 187.918996 
L 517.672475 186.864018 
L 518.695573 186.022117 
L 519.514052 186.076085 
L 520.94639 185.748303 
L 521.35563 186.396503 
L 521.764869 187.203961 
L 521.969489 187.373228 
L 522.174109 187.256235 
L 522.992588 186.106033 
L 523.401827 186.032983 
L 523.811067 185.876988 
L 524.424926 186.212766 
L 524.834165 185.813684 
L 525.243405 185.459211 
L 525.857264 185.455549 
L 526.266503 185.460183 
L 526.880362 185.070889 
L 527.698841 184.833361 
L 528.312701 184.024824 
L 528.72194 183.14597 
L 529.131179 182.196709 
L 529.540419 181.920498 
L 530.154278 181.713923 
L 530.358898 181.787154 
L 530.972757 182.541968 
L 531.177377 182.504706 
L 531.791236 181.520567 
L 532.200475 180.564701 
L 532.609715 179.608028 
L 532.814335 179.514518 
L 533.223574 179.652793 
L 533.428194 179.583617 
L 533.632813 179.305487 
L 534.246673 177.787044 
L 534.451292 177.580359 
L 534.655912 177.536682 
L 535.679011 177.934424 
L 535.88363 177.954203 
L 536.08825 177.854599 
L 536.49749 177.27198 
L 537.315969 175.808566 
L 538.748307 171.130699 
L 539.976025 166.813887 
L 540.385264 165.758855 
L 541.612983 161.522905 
L 543.045321 154.287036 
L 544.886898 142.982521 
L 547.137715 124.756815 
L 548.774673 109.435714 
L 551.02549 81.688053 
L 551.843969 69.270607 
L 552.867068 53.533026 
L 553.276307 50.114551 
L 553.480927 49.860109 
L 553.685547 50.520078 
L 554.094786 53.967652 
L 554.708645 62.755156 
L 555.117885 71.766178 
L 555.731744 93.12531 
L 556.550223 130.442849 
L 557.164082 171.703968 
L 557.573322 209.146075 
L 557.865989 253 
M 559.111274 253 
L 559.414899 213.09098 
L 559.824138 186.614253 
L 560.233378 175.359116 
L 561.051857 159.935339 
L 561.665716 154.395357 
L 563.302674 141.689793 
L 563.711913 140.566772 
L 563.916533 140.441911 
L 564.121153 140.530723 
L 564.735012 141.315706 
L 565.144251 141.778283 
L 565.348871 142.31877 
L 565.758111 144.410675 
L 566.37197 147.884174 
L 566.781209 148.951645 
L 567.190449 149.591585 
L 567.599688 150.904388 
L 570.668984 163.474502 
L 571.896702 166.430947 
L 572.715181 169.021557 
L 573.32904 170.524521 
L 574.147519 171.511248 
L 575.170618 173.55368 
L 575.579857 173.988541 
L 575.989097 174.864751 
L 576.602956 176.285415 
L 577.216815 176.603757 
L 578.035294 178.176925 
L 578.853773 178.220211 
L 579.263013 178.715095 
L 579.876872 179.675606 
L 580.286111 179.967889 
L 580.695351 179.995396 
L 581.10459 179.735105 
L 582.332308 179.616749 
L 582.946168 180.116848 
L 583.560027 180.926204 
L 584.173886 181.108159 
L 584.992365 182.909034 
L 585.810844 182.487863 
L 586.220083 182.667233 
L 587.038562 184.222538 
L 587.652421 184.655542 
L 588.4709 184.775891 
L 589.084759 184.596899 
L 589.493999 184.746898 
L 589.698619 184.716876 
L 589.903238 184.530966 
L 590.517098 183.680575 
L 590.926337 183.739642 
L 591.540196 184.109128 
L 591.949436 183.922205 
L 592.972534 183.095364 
L 593.177154 183.22621 
L 594.404872 184.772591 
L 594.609492 184.93492 
L 595.018732 185.76963 
L 595.427971 186.427383 
L 595.632591 186.357735 
L 596.04183 185.701321 
L 596.24645 185.365865 
L 596.45107 185.258579 
L 597.678788 185.844693 
L 597.883408 185.810918 
L 598.497267 185.326739 
L 598.906506 185.397208 
L 599.111126 185.367432 
L 599.315746 185.518613 
L 599.724985 186.056857 
L 600.134225 186.260947 
L 600.543464 186.316523 
L 601.157323 186.779927 
L 601.361943 186.696689 
L 602.180422 185.825181 
L 602.998901 185.857847 
L 603.61276 185.518773 
L 604.635859 185.240017 
L 605.045098 185.569313 
L 605.454338 185.839451 
L 606.477436 185.544898 
L 606.886676 185.518871 
L 607.091295 185.472248 
L 607.705155 184.832694 
L 608.523633 183.288828 
L 609.137493 183.112319 
L 609.342112 183.225324 
L 609.955972 183.904045 
L 610.569831 184.205404 
L 610.77445 184.310655 
L 611.797549 183.744329 
L 612.616028 183.152076 
L 613.229887 183.65523 
L 613.639127 184.707131 
L 614.048366 185.68396 
L 614.457606 185.932685 
L 614.866845 186.269077 
L 615.480704 186.665143 
L 615.889944 186.928206 
L 616.299183 186.916117 
L 616.913042 186.805164 
L 617.117662 186.855033 
L 617.731521 187.34295 
L 618.140761 187.310139 
L 618.55 187.349105 
L 619.163859 187.229266 
L 619.368479 187.254123 
L 619.777718 186.862337 
L 619.982338 186.683643 
L 620.186958 186.749967 
L 620.596197 187.218127 
L 620.800817 187.295313 
L 621.823916 186.788955 
L 622.233155 186.970123 
L 622.642395 187.143098 
L 623.051634 186.965516 
L 623.460874 186.771286 
L 623.870113 186.781193 
L 624.279352 186.360517 
L 625.097831 185.367352 
L 625.711691 185.186975 
L 625.91631 185.320787 
L 626.32555 186.041971 
L 626.939409 187.107067 
L 627.144029 187.179459 
L 627.553268 186.946281 
L 627.962508 186.573332 
L 628.576367 186.684325 
L 628.985606 186.248057 
L 629.190226 186.300741 
L 629.599465 186.848723 
L 629.804085 186.908295 
L 630.417944 186.511623 
L 631.441043 186.819302 
L 632.259522 187.555257 
L 632.668761 186.940468 
L 633.28262 186.080172 
L 633.89648 185.41488 
L 634.101099 185.335997 
L 634.510339 185.710446 
L 635.124198 186.375863 
L 635.533437 186.333628 
L 635.942677 186.160871 
L 636.556536 186.195377 
L 636.965775 185.712561 
L 637.375015 185.223405 
L 637.579635 185.309953 
L 638.193494 186.248362 
L 639.011973 186.621527 
L 639.625832 187.32693 
L 640.035071 187.296438 
L 640.648931 187.196299 
L 641.05817 186.979188 
L 641.467409 187.01886 
L 641.876649 186.350227 
L 642.285888 185.742292 
L 642.490508 185.702228 
L 643.308987 186.028167 
L 643.718226 185.926104 
L 644.127466 186.15708 
L 644.945945 186.936277 
L 645.355184 187.160039 
L 645.969043 187.197619 
L 646.582903 187.08992 
L 646.787522 187.093511 
L 647.401382 186.63236 
L 648.6291 185.644104 
L 649.242959 185.856547 
L 649.652199 185.547614 
L 650.470677 185.449434 
L 650.675297 185.171776 
L 652.516875 180.573123 
L 652.926114 178.472177 
L 654.153833 170.254874 
L 654.358452 169.828799 
L 654.563072 170.152838 
L 654.972311 172.356008 
L 655.381551 174.684624 
L 655.586171 175.340035 
L 655.79079 175.536372 
L 655.99541 175.311381 
L 656.40465 174.035667 
L 657.018509 171.396284 
L 657.223128 170.936612 
L 657.427748 170.97546 
L 657.632368 171.604902 
L 658.041607 174.257923 
L 658.655467 178.171422 
L 659.064706 179.704948 
L 659.883185 181.448032 
L 660.497044 182.582179 
L 660.906284 182.761419 
L 661.315523 182.899179 
L 661.520143 183.079481 
L 661.929382 183.868237 
L 662.338622 184.719686 
L 662.747861 185.088868 
L 663.157101 185.426038 
L 663.77096 186.542923 
L 663.975579 186.555537 
L 664.384819 186.02491 
L 665.203298 184.805594 
L 665.817157 185.052239 
L 666.431016 184.735493 
L 667.044875 184.810582 
L 667.454115 184.300738 
L 667.863354 183.67908 
L 668.477213 183.352224 
L 669.295692 182.005758 
L 669.909552 182.055134 
L 670.318791 181.763978 
L 670.93265 181.03648 
L 671.34189 180.512804 
L 671.546509 180.451206 
L 672.160369 180.745704 
L 673.388087 179.439803 
L 674.001946 177.883422 
L 674.820425 177.084655 
L 675.025045 176.995641 
L 675.229664 177.063609 
L 676.457383 178.56383 
L 676.866622 179.216828 
L 677.480481 179.394023 
L 678.094341 179.794825 
L 678.29896 179.833129 
L 678.7082 179.579155 
L 679.322059 179.135525 
L 679.731298 179.069625 
L 680.140538 179.366541 
L 680.549777 179.736269 
L 681.163636 179.437086 
L 681.572876 179.451072 
L 682.595975 178.340445 
L 683.005214 178.02864 
L 684.028313 175.726256 
L 685.051411 173.582444 
L 685.86989 172.444129 
L 686.892989 170.007783 
L 687.302228 169.339742 
L 688.120707 167.311283 
L 688.939186 164.446803 
L 689.757665 161.04828 
L 691.190003 157.167842 
L 692.417721 153.273234 
L 693.2362 150.771844 
L 693.85006 147.346452 
L 694.668538 142.487192 
L 695.282398 139.93829 
L 696.714736 136.284057 
L 697.123975 135.689858 
L 697.328595 135.573739 
L 698.147074 136.000279 
L 698.556313 136.462191 
L 698.760933 136.523187 
L 698.965553 136.39694 
L 701.21637 133.191551 
L 702.034849 132.416415 
L 702.444088 131.195127 
L 703.057947 129.340655 
L 703.262567 128.93509 
L 703.467187 128.80141 
L 703.876426 129.219989 
L 704.285666 129.566133 
L 704.490285 129.711824 
L 704.694905 130.080163 
L 705.104145 131.614663 
L 705.718004 133.914522 
L 707.150342 137.922148 
L 707.559581 138.463575 
L 708.7873 139.090766 
L 709.196539 138.745958 
L 709.605779 137.735958 
L 710.219638 136.251737 
L 710.628877 134.93427 
L 711.242736 132.378197 
L 712.265835 130.390185 
L 712.470455 130.26115 
L 712.675074 130.35695 
L 713.493553 131.438517 
L 713.902793 131.495162 
L 714.107412 131.514555 
L 714.721272 131.931763 
L 715.130511 131.821439 
L 715.539751 131.911613 
L 715.94899 132.074736 
L 716.15361 131.929544 
L 716.562849 130.938153 
L 717.790568 127.222317 
L 718.199807 125.498682 
L 718.813666 121.487498 
L 719.836765 114.492937 
L 721.269103 105.109996 
L 722.087582 100.957287 
L 722.906061 95.737003 
L 724.133779 86.667612 
L 724.952258 78.640279 
L 728.021554 53.921437 
L 728.430793 52.397173 
L 728.635413 52.110272 
L 728.840033 52.051704 
L 729.044653 52.168545 
L 729.249272 52.48631 
L 729.658512 53.966449 
L 730.067751 56.633322 
L 730.68161 62.488272 
L 732.113948 78.647255 
L 733.546287 98.312861 
L 734.774005 113.688414 
L 735.797104 123.559285 
L 736.410963 128.447317 
L 737.638681 136.816699 
L 738.45716 142.98538 
L 739.275639 149.116195 
L 740.094118 153.62014 
L 740.503357 154.754172 
L 740.912597 155.812187 
L 741.935695 159.099733 
L 742.958794 161.490793 
L 743.777273 163.409778 
L 744.595752 164.945514 
L 745.209611 166.313795 
L 745.82347 168.134948 
L 746.23271 168.546116 
L 746.641949 168.387167 
L 747.051189 168.293741 
L 747.460428 168.602446 
L 749.302006 171.128533 
L 749.506625 171.529163 
L 749.711245 171.644178 
L 750.529724 171.208293 
L 751.348203 170.179909 
L 751.552822 170.284234 
L 751.962062 170.864635 
L 752.371301 171.803691 
L 752.985161 173.921665 
L 753.3944 174.378833 
L 754.008259 174.086811 
L 754.417499 174.979277 
L 754.826738 175.860866 
L 755.440597 176.646033 
L 755.849837 176.664589 
L 756.054456 176.578926 
L 756.463696 175.943265 
L 756.872935 175.492739 
L 757.282175 175.417233 
L 757.896034 176.054158 
L 758.714513 175.480166 
L 759.328372 174.529087 
L 760.351471 172.359334 
L 760.76071 172.901383 
L 761.374569 174.08125 
L 762.193048 176.508848 
L 762.806907 178.324395 
L 763.420767 179.878362 
L 763.830006 180.25227 
L 764.239246 180.577423 
L 764.648485 181.117018 
L 764.853105 181.181773 
L 765.671584 180.757096 
L 766.899302 180.313494 
L 767.308541 180.28183 
L 768.12702 179.927867 
L 768.74088 179.000694 
L 768.945499 178.933131 
L 769.354739 179.184248 
L 769.559358 179.302615 
L 769.763978 179.212934 
L 770.173218 178.857435 
L 770.377837 179.03641 
L 770.991697 180.29379 
L 771.400936 180.684013 
L 772.014795 182.073086 
L 772.424035 182.414308 
L 772.833274 182.449064 
L 773.242514 182.467716 
L 773.447133 182.622472 
L 773.856373 183.394815 
L 774.265612 184.033692 
L 774.470232 184.022447 
L 775.084091 183.404844 
L 775.493331 183.23448 
L 775.90257 182.589536 
L 776.516429 180.80635 
L 777.334908 178.137834 
L 777.744148 177.640208 
L 777.948767 177.67377 
L 778.153387 177.863813 
L 778.767246 179.107485 
L 780.404204 182.430646 
L 780.813443 183.028789 
L 781.018063 183.120917 
L 781.427303 182.945093 
L 781.631922 183.054018 
L 782.041162 183.474015 
L 782.655021 183.587061 
L 783.06426 183.561412 
L 783.26888 183.458684 
L 783.882739 182.826505 
L 784.291979 182.935112 
L 784.701218 183.34512 
L 786.133556 185.053502 
L 786.338176 184.94703 
L 787.156655 184.082864 
L 787.565894 183.93534 
L 788.179754 184.384006 
L 788.384373 184.293317 
L 788.793613 183.856099 
L 788.998233 183.855382 
L 789.407472 184.306924 
L 789.816711 184.790404 
L 790.225951 184.797205 
L 790.430571 185.049401 
L 790.83981 185.959265 
L 791.04443 186.152064 
L 791.453669 186.064111 
L 792.067528 185.778147 
L 792.476768 185.410781 
L 792.886007 185.494156 
L 793.295247 185.742152 
L 793.704486 185.706306 
L 794.113726 185.429581 
L 794.522965 185.119081 
L 795.136824 184.94652 
L 795.750683 184.588147 
L 796.159923 184.535806 
L 796.569162 184.4973 
L 796.978402 184.650088 
L 797.387641 184.619675 
L 797.592261 184.512509 
L 798.61536 183.487469 
L 799.229219 183.646248 
L 799.638458 184.178762 
L 800.252317 185.083962 
L 800.456937 185.038179 
L 800.866177 184.472494 
L 801.070796 184.474642 
L 801.889275 185.962613 
L 802.298515 185.833909 
L 802.707754 185.767981 
L 803.321613 185.840996 
L 803.730853 185.444062 
L 804.549332 184.481261 
L 804.958571 184.433634 
L 805.163191 184.549531 
L 805.57243 185.353637 
L 805.98167 186.119872 
L 806.18629 186.137136 
L 806.595529 185.758533 
L 806.800149 185.804096 
L 807.414008 186.247079 
L 807.823247 186.227329 
L 808.232487 186.090223 
L 809.050966 186.233151 
L 809.460205 185.851618 
L 809.869445 185.300985 
L 810.074064 185.299012 
L 810.483304 185.647492 
L 811.711022 185.670307 
L 812.324881 185.214204 
L 812.734121 185.01682 
L 813.14336 185.131003 
L 813.34798 185.013692 
L 814.166459 183.998578 
L 814.371079 183.960818 
L 814.575698 184.043985 
L 815.189558 184.706063 
L 815.803417 185.046525 
L 816.212656 185.517838 
L 816.417276 185.580531 
L 816.826515 185.51071 
L 817.235755 185.55049 
L 817.440375 185.498603 
L 817.644994 185.596688 
L 818.258853 186.526123 
L 819.077332 188.051123 
L 819.486572 188.118996 
L 819.895811 187.80772 
L 820.50967 187.033978 
L 821.12353 185.899371 
L 821.532769 185.596671 
L 822.146628 185.413105 
L 822.351248 185.592423 
L 822.760487 186.262865 
L 822.965107 186.315607 
L 823.578966 185.77136 
L 823.783586 185.809793 
L 824.192826 186.135348 
L 825.011304 186.214758 
L 825.420544 185.736258 
L 826.034403 184.992488 
L 826.443643 184.853847 
L 827.057502 184.876217 
L 827.875981 185.821514 
L 828.28522 186.24899 
L 828.694459 186.39726 
L 829.717558 186.492297 
L 830.536037 187.394502 
L 830.740657 187.312104 
L 831.354516 186.448892 
L 831.559136 186.435012 
L 831.968375 186.775063 
L 832.582234 187.670119 
L 832.786854 187.688992 
L 834.219192 186.715533 
L 834.833051 185.912652 
L 835.242291 185.921045 
L 835.65153 186.170878 
L 836.06077 186.581093 
L 836.470009 187.044957 
L 836.674629 187.054378 
L 836.879249 186.910909 
L 837.288488 186.34085 
L 837.493108 186.25416 
L 838.106967 186.860244 
L 838.720826 186.701872 
L 839.334685 186.969806 
L 839.743925 186.876003 
L 839.948544 186.965067 
L 840.767023 187.798744 
L 840.971643 187.864917 
L 841.176263 187.790573 
L 841.790122 187.008609 
L 842.199361 187.012824 
L 842.813221 186.371475 
L 843.01784 186.516885 
L 843.42708 187.115112 
L 843.836319 187.283561 
L 844.245559 187.142824 
L 845.064038 186.265452 
L 845.268657 186.195772 
L 846.291756 186.550842 
L 846.496376 186.539166 
L 847.314855 185.823815 
L 847.519474 185.924605 
L 848.337953 186.904936 
L 848.542573 187.033029 
L 849.156432 187.004942 
L 849.974911 187.900319 
L 850.179531 187.869199 
L 850.384151 187.709552 
L 851.611869 186.009783 
L 851.816489 185.976824 
L 852.430348 186.364427 
L 852.839587 186.126908 
L 853.248827 186.26512 
L 853.658066 186.415733 
L 854.067306 186.489904 
L 854.681165 187.035523 
L 854.885785 186.762167 
L 855.499644 185.256928 
L 855.704263 185.069438 
L 856.113503 185.232772 
L 856.727362 185.54687 
L 857.136602 185.840799 
L 857.341221 185.882394 
L 857.545841 185.790667 
L 858.1597 185.251776 
L 858.56894 185.590473 
L 859.182799 186.155221 
L 859.592038 186.210534 
L 860.001278 186.039284 
L 860.410517 185.424901 
L 860.819757 184.745489 
L 861.024376 184.646557 
L 862.047475 184.991084 
L 862.252095 184.987164 
L 862.456714 185.112274 
L 863.275193 186.06335 
L 863.684433 186.169309 
L 864.707531 185.657159 
L 865.116771 185.780999 
L 866.549109 186.729244 
L 866.958348 186.696007 
L 867.367588 186.550188 
L 867.981447 186.055364 
L 868.186067 186.071247 
L 868.799926 186.647967 
L 869.823025 186.280391 
L 870.846123 185.739889 
L 872.073842 186.034556 
L 872.483081 185.791773 
L 873.09694 185.248722 
L 873.30156 185.263405 
L 873.710799 185.588803 
L 874.120039 185.563557 
L 874.733898 185.316773 
L 875.143137 184.782803 
L 875.961616 183.15489 
L 876.780095 181.198743 
L 876.984715 181.064508 
L 877.189335 181.304343 
L 877.803194 182.70739 
L 878.212433 183.026383 
L 878.621673 183.105118 
L 878.826293 182.843431 
L 879.440152 181.197276 
L 880.46325 178.226084 
L 880.66787 178.385263 
L 881.895588 181.938259 
L 882.509448 182.521006 
L 883.941786 182.513354 
L 884.351025 183.408178 
L 884.760265 184.076979 
L 885.374124 184.4742 
L 885.987983 185.144009 
L 886.601842 185.774036 
L 886.806462 185.846187 
L 887.215701 185.679986 
L 887.624941 185.39135 
L 888.03418 185.446956 
L 888.648039 185.93576 
L 889.671138 185.537941 
L 890.080378 185.829931 
L 890.284997 186.010515 
L 891.103476 186.095037 
L 891.308096 185.954532 
L 892.535814 184.332576 
L 892.740434 184.218671 
L 892.945054 184.240962 
L 893.354293 184.693187 
L 893.558913 184.913178 
L 893.763533 184.906675 
L 894.786631 184.283216 
L 895.40049 184.55122 
L 895.80973 184.559945 
L 896.218969 184.71136 
L 896.423589 184.569361 
L 897.037448 183.818972 
L 897.651307 183.044828 
L 898.060547 182.578323 
L 898.469786 182.502207 
L 898.879026 182.021953 
L 899.697505 180.739876 
L 900.106744 180.163983 
L 900.515984 179.857849 
L 900.925223 179.435638 
L 901.743702 179.029994 
L 902.152941 178.445834 
L 902.766801 177.311598 
L 903.17604 176.633123 
L 903.789899 175.020872 
L 904.608378 173.527994 
L 905.017618 172.106544 
L 905.426857 168.798113 
L 906.449956 157.7261 
L 906.654575 158.102018 
L 907.473054 163.232586 
L 907.882294 163.920112 
L 908.291533 163.934108 
L 908.496153 163.76485 
L 909.110012 162.355096 
L 909.723871 160.631277 
L 910.133111 159.407819 
L 911.974688 151.565944 
L 913.202407 143.818312 
L 914.020886 138.804268 
L 914.634745 132.728933 
L 915.043984 127.714684 
L 916.067083 110.317909 
L 918.727139 62.225508 
L 919.750238 43.756897 
L 920.159477 31.19999 
L 920.568717 8.451444 
L 920.675102 -1 
M 922.190064 -1 
L 922.614914 74.032295 
L 923.024154 110.876792 
L 923.433393 127.890854 
L 923.842632 135.28251 
L 924.251872 139.039732 
L 925.070351 143.079817 
L 926.298069 147.912112 
L 927.525788 151.631904 
L 929.162745 159.12085 
L 929.776605 161.148379 
L 930.390464 163.027327 
L 931.004323 164.884763 
L 931.822802 166.693903 
L 932.232041 168.306172 
L 932.8459 170.940321 
L 934.892098 174.360212 
L 935.301337 174.593006 
L 935.505957 174.684528 
L 935.915196 175.474736 
L 936.324436 176.416442 
L 936.938295 176.938109 
L 937.347534 177.278846 
L 937.756774 177.244345 
L 938.166013 176.973227 
L 938.370633 177.040474 
L 938.984492 178.064688 
L 940.007591 179.795501 
L 940.82607 180.992899 
L 941.235309 181.504758 
L 941.439929 181.543735 
L 942.258408 181.054984 
L 942.872267 180.90866 
L 943.690746 181.839925 
L 944.509225 181.472498 
L 944.918464 181.84374 
L 945.532323 182.8686 
L 945.941563 183.391819 
L 946.146183 183.406253 
L 946.964662 182.981817 
L 947.578521 183.320759 
L 947.98776 183.15518 
L 948.397 183.401317 
L 948.806239 183.578222 
L 949.420098 183.371729 
L 949.829338 183.421599 
L 950.443197 184.065763 
L 950.647817 183.850213 
L 951.261676 182.747187 
L 951.670915 182.313133 
L 952.489394 182.117148 
L 953.103253 182.070966 
L 953.512493 181.925012 
L 954.330972 181.25395 
L 954.944831 181.263342 
L 955.55869 180.761902 
L 956.172549 180.1176 
L 956.786408 179.04421 
L 957.400268 177.836135 
L 957.604887 177.736184 
L 957.809507 177.836676 
L 958.832606 179.220671 
L 959.241845 179.397414 
L 960.060324 179.345866 
L 960.674183 180.131444 
L 961.083423 180.782963 
L 961.492662 180.96429 
L 961.901902 180.831849 
L 962.311141 180.499288 
L 963.33424 179.176845 
L 964.152719 177.540762 
L 964.561958 176.645139 
L 966.403536 171.82407 
L 966.608155 171.584256 
L 966.812775 171.664424 
L 967.017395 172.042395 
L 967.426634 173.516146 
L 968.449733 177.354234 
L 969.063592 179.061782 
L 969.677451 179.598041 
L 970.086691 179.686421 
L 970.49593 179.861588 
L 970.90517 180.503619 
L 971.109789 180.807337 
L 971.314409 180.798494 
L 975.611423 175.229964 
L 976.020663 174.18793 
L 976.429902 173.215791 
L 976.634522 173.335511 
L 977.453001 174.826344 
L 978.27148 175.295221 
L 978.885339 176.294407 
L 979.089959 176.3879 
L 980.113057 176.242084 
L 980.317677 176.334805 
L 981.136156 177.172758 
L 981.545395 176.551002 
L 982.568494 174.802659 
L 983.386973 173.663237 
L 984.205452 172.195344 
L 985.023931 169.261206 
L 985.43317 168.452171 
L 986.251649 166.158417 
L 986.660889 165.996023 
L 987.070128 166.03128 
L 987.683987 165.240035 
L 987.888607 164.933144 
L 988.297846 163.633454 
L 988.911706 161.528377 
L 989.525565 159.683556 
L 991.162523 153.185312 
L 994.231818 138.1931 
L 994.845678 134.881217 
L 995.664157 130.233011 
L 996.278016 126.80597 
L 997.096495 122.394269 
L 997.710354 119.521133 
L 999.142692 110.89426 
L 999.961171 106.19236 
L 1000.984269 100.819619 
L 1002.007368 96.455779 
L 1003.030467 88.960951 
L 1003.848946 82.226147 
L 1004.667425 75.288285 
L 1005.281284 71.653435 
L 1005.895143 68.744474 
L 1006.509002 64.522509 
L 1006.918242 60.489435 
L 1007.327481 52.619123 
L 1007.73672 35.941194 
L 1008.190642 -1 
M 1011.760953 -1 
L 1012.238354 15.319737 
L 1013.261453 43.011411 
L 1014.079932 59.548265 
L 1014.489171 64.743028 
L 1014.693791 65.822093 
L 1014.898411 65.867586 
L 1015.103031 64.888887 
L 1015.30765 62.709632 
L 1015.71689 53.537953 
L 1016.126129 33.374434 
L 1016.499052 -1 
M 1019.884808 -1 
L 1020.423144 20.339901 
L 1021.446242 52.1521 
L 1022.264721 71.912872 
L 1023.28782 90.328827 
L 1023.901679 98.65734 
L 1025.334017 113.565692 
L 1026.970975 127.759594 
L 1029.426411 143.645018 
L 1029.835651 145.358945 
L 1031.677228 149.762884 
L 1032.291088 153.471232 
L 1033.314186 159.534553 
L 1034.337285 163.496057 
L 1035.155764 166.232107 
L 1035.769623 168.237985 
L 1036.383482 169.357979 
L 1036.997341 171.186854 
L 1037.406581 171.710864 
L 1038.02044 173.02535 
L 1038.22506 173.074857 
L 1038.634299 172.961612 
L 1038.838919 172.961638 
L 1039.043539 172.835799 
L 1039.248158 172.477501 
L 1039.657398 171.08182 
L 1040.066637 168.915855 
L 1040.475877 165.933455 
L 1040.680496 165.216607 
L 1040.885116 165.336133 
L 1041.294356 166.889142 
L 1043.749792 178.139482 
L 1044.568271 180.207464 
L 1044.772891 180.317689 
L 1045.59137 180.010603 
L 1046.205229 180.283164 
L 1046.409849 180.23117 
L 1046.819088 179.91681 
L 1047.432947 179.838541 
L 1047.637567 179.770849 
L 1047.842187 179.95036 
L 1048.456046 181.202359 
L 1048.865286 180.968969 
L 1049.274525 180.841499 
L 1049.683764 181.185899 
L 1050.093004 181.526673 
L 1050.297624 181.49702 
L 1051.116103 180.727611 
L 1051.525342 180.898433 
L 1053.36692 183.08936 
L 1053.776159 183.924347 
L 1053.980779 184.148456 
L 1054.185398 184.196792 
L 1055.208497 183.53322 
L 1055.617737 183.720154 
L 1056.436215 184.641715 
L 1057.050075 184.57349 
L 1057.459314 184.569494 
L 1057.868554 184.581148 
L 1058.891652 185.231094 
L 1059.710131 184.850709 
L 1060.119371 184.658765 
L 1060.32399 184.738058 
L 1060.937849 185.213528 
L 1061.551709 185.016169 
L 1061.960948 185.095642 
L 1062.370187 184.560183 
L 1062.779427 184.106026 
L 1063.188666 184.174944 
L 1063.597906 184.405493 
L 1064.416385 184.168235 
L 1065.030244 184.446117 
L 1065.439483 184.173087 
L 1066.053343 183.358294 
L 1066.462582 183.114675 
L 1066.667202 183.085143 
L 1067.076441 183.360656 
L 1067.6903 184.033878 
L 1068.09954 184.05499 
L 1068.508779 184.431144 
L 1069.327258 185.743212 
L 1069.736498 185.818019 
L 1070.350357 185.592287 
L 1070.964216 185.889997 
L 1072.396554 185.013298 
L 1072.805794 185.515971 
L 1073.215033 185.550374 
L 1073.828892 185.427312 
L 1075.26123 184.446205 
L 1075.46585 184.374486 
L 1075.67047 184.506706 
L 1076.488949 185.452541 
L 1077.102808 185.301383 
L 1077.921287 185.034646 
L 1078.330526 185.329425 
L 1078.535146 185.563318 
L 1078.739766 185.565371 
L 1079.762864 184.35173 
L 1080.172104 184.685768 
L 1080.581343 184.663619 
L 1080.990583 184.472093 
L 1081.399822 184.115255 
L 1082.218301 184.070687 
L 1082.422921 184.210924 
L 1083.2414 185.605123 
L 1083.446019 185.760917 
L 1083.650639 185.770316 
L 1084.059879 185.581061 
L 1084.673738 185.875308 
L 1085.287597 185.384852 
L 1085.901456 185.616138 
L 1086.310696 185.836574 
L 1086.719935 186.09048 
L 1086.924555 186.014805 
L 1087.333794 185.404071 
L 1087.743034 184.841867 
L 1088.766132 184.3499 
L 1089.175372 184.584464 
L 1089.789231 185.247562 
L 1090.40309 185.545592 
L 1091.016949 186.004939 
L 1092.040048 185.372577 
L 1092.244668 185.200783 
L 1092.449287 185.215382 
L 1093.472386 186.380189 
L 1093.881625 186.452651 
L 1094.290865 186.249846 
L 1094.904724 185.503808 
L 1095.313964 185.073298 
L 1095.518583 185.109151 
L 1095.927823 185.453849 
L 1096.337062 184.97553 
L 1096.541682 184.782915 
L 1096.950921 184.8173 
L 1097.564781 185.041707 
L 1098.17864 185.581855 
L 1098.792499 185.557578 
L 1099.201738 185.605395 
L 1099.610978 185.758434 
L 1100.429457 185.669717 
L 1100.838696 185.047729 
L 1101.043316 184.718813 
L 1101.247936 184.648666 
L 1102.066414 185.730091 
L 1102.680274 185.719156 
L 1103.089513 185.741755 
L 1103.703372 186.144128 
L 1104.521851 186.209932 
L 1104.931091 186.358466 
L 1105.34033 186.57666 
L 1105.954189 186.482523 
L 1106.363429 186.189381 
L 1106.772668 186.410348 
L 1106.977288 186.50344 
L 1107.591147 186.458995 
L 1108.205006 186.714692 
L 1108.614246 186.832928 
L 1109.228105 186.863689 
L 1109.637344 186.999066 
L 1109.841964 186.930219 
L 1110.251204 186.456111 
L 1110.455823 186.455667 
L 1110.865063 186.830374 
L 1111.478922 186.813193 
L 1111.683542 186.88846 
L 1112.502021 186.696523 
L 1113.11588 186.673703 
L 1114.752838 185.354712 
L 1114.957457 185.568952 
L 1115.571316 186.696589 
L 1116.389795 186.956568 
L 1116.799035 187.093052 
L 1117.208274 187.154401 
L 1117.617514 187.606979 
L 1118.026753 187.507507 
L 1119.049852 187.323002 
L 1119.663711 187.54528 
L 1119.868331 187.469276 
L 1120.68681 186.46297 
L 1120.891429 186.398605 
L 1121.505289 186.769968 
L 1122.119148 186.579554 
L 1122.528387 186.736708 
L 1122.733007 186.62279 
L 1123.142246 186.099671 
L 1123.551486 186.058517 
L 1124.165345 186.212275 
L 1125.188444 186.934288 
L 1125.597683 187.281674 
L 1125.802303 187.252974 
L 1126.620782 186.65199 
L 1127.234641 186.751385 
L 1127.8485 186.250249 
L 1128.871599 186.438261 
L 1129.485458 186.242165 
L 1130.303937 185.959962 
L 1131.327035 186.511332 
L 1131.531655 186.513192 
L 1131.940895 186.167812 
L 1132.145514 185.967561 
L 1132.350134 185.950317 
L 1132.759374 186.621265 
L 1133.168613 187.345393 
L 1133.373233 187.572847 
L 1133.577852 187.632831 
L 1134.600951 187.121255 
L 1135.010191 187.162702 
L 1135.62405 187.434828 
L 1136.851768 186.454235 
L 1137.261008 186.214539 
L 1137.670247 185.988585 
L 1138.079486 185.853855 
L 1138.488726 186.105565 
L 1139.511824 187.224897 
L 1140.330303 187.267801 
L 1140.739543 186.938001 
L 1141.148782 186.510896 
L 1141.353402 186.461383 
L 1141.558022 186.535674 
L 1142.376501 187.46318 
L 1143.399599 187.159783 
L 1143.808839 187.333252 
L 1144.422698 188.021677 
L 1144.627318 187.982372 
L 1145.445797 187.065502 
L 1147.696614 187.146643 
L 1148.105853 186.955513 
L 1148.310473 187.017362 
L 1148.924332 187.58275 
L 1149.538191 187.651688 
L 1151.379769 186.950902 
L 1151.789008 187.065925 
L 1152.198248 187.152419 
L 1152.812107 186.853492 
L 1153.221346 187.077845 
L 1153.630586 187.280061 
L 1154.039825 187.11396 
L 1154.653684 186.782307 
L 1154.858304 186.754646 
L 1155.062924 186.873842 
L 1155.676783 187.509413 
L 1156.086022 187.580189 
L 1156.495262 187.642145 
L 1157.109121 188.17767 
L 1157.51836 187.817355 
L 1158.336839 187.037621 
L 1158.541459 187.057009 
L 1158.950699 187.299789 
L 1159.359938 187.288839 
L 1159.564558 187.18242 
L 1160.792276 185.808175 
L 1161.201516 186.56789 
L 1161.610755 187.055087 
L 1161.815375 187.006785 
L 1162.429234 186.549309 
L 1162.838473 186.679918 
L 1163.043093 186.491912 
L 1163.452333 185.731411 
L 1163.656952 185.672478 
L 1164.270811 186.035353 
L 1164.680051 185.805064 
L 1165.70315 186.011327 
L 1166.112389 185.947505 
L 1166.930868 186.397552 
L 1167.749347 185.887391 
L 1168.363206 185.77029 
L 1168.567826 185.687847 
L 1168.772445 185.83963 
L 1169.386305 186.793951 
L 1169.795544 186.865418 
L 1170.204784 186.517059 
L 1170.818643 185.549349 
L 1171.023262 185.626249 
L 1171.432502 186.227149 
L 1172.046361 187.331169 
L 1172.66022 188.148018 
L 1173.274079 188.614234 
L 1173.683319 188.811123 
L 1174.092558 188.586094 
L 1174.706418 188.042628 
L 1175.934136 187.978535 
L 1176.547995 187.366397 
L 1176.957234 187.024872 
L 1177.571094 187.476797 
L 1178.184953 187.172037 
L 1178.798812 186.822422 
L 1179.003432 186.70406 
L 1179.617291 186.852794 
L 1180.02653 186.392007 
L 1180.23115 186.158102 
L 1180.43577 186.210696 
L 1180.845009 186.803083 
L 1181.049629 186.872397 
L 1181.254249 186.811174 
L 1181.663488 186.198039 
L 1181.868108 185.944942 
L 1182.277347 185.815083 
L 1182.481967 185.91189 
L 1183.095826 186.722467 
L 1184.118925 186.43478 
L 1184.732784 185.516199 
L 1184.732784 185.516199 
" clip-path="url(#pb767fa2925)" style="fill: none; stroke: #000000; stroke-width: 2; stroke-linecap: square"/>
   </g>
   <g id="patch_3">
    <path d="M 3.00024 198.907885 
L 1184.99976 198.907885 
" style="fill: none; stroke: #000000; stroke-width: 2; stroke-linejoin: miter; stroke-linecap: square"/>
   </g>
  </g>
 </g>
 <defs>
  <clipPath id="pb767fa2925">
   <rect x="3.00024" y="3.00024" width="1181.99952" height="195.907645"/>
  </clipPath>
 </defs>
</svg>
