<?xml version="1.0" encoding="utf-8" standalone="no"?>
<!DOCTYPE svg PUBLIC "-//W3C//DTD SVG 1.1//EN"
  "http://www.w3.org/Graphics/SVG/1.1/DTD/svg11.dtd">
<svg xmlns:xlink="http://www.w3.org/1999/xlink" width="1188pt" height="252pt" viewBox="0 0 1188 252" xmlns="http://www.w3.org/2000/svg" version="1.1">
 <metadata>
  <rdf:RDF xmlns:dc="http://purl.org/dc/elements/1.1/" xmlns:cc="http://creativecommons.org/ns#" xmlns:rdf="http://www.w3.org/1999/02/22-rdf-syntax-ns#">
   <cc:Work>
    <dc:type rdf:resource="http://purl.org/dc/dcmitype/StillImage"/>
    <dc:date>2024-05-14T23:07:59.161316</dc:date>
    <dc:format>image/svg+xml</dc:format>
    <dc:creator>
     <cc:Agent>
      <dc:title>Matplotlib v3.8.0, https://matplotlib.org/</dc:title>
     </cc:Agent>
    </dc:creator>
   </cc:Work>
  </rdf:RDF>
 </metadata>
 <defs>
  <style type="text/css">*{stroke-linejoin: round; stroke-linecap: butt}</style>
 </defs>
 <g id="figure_1">
  <g id="patch_1">
   <path d="M 0 252 
L 1188 252 
L 1188 0 
L 0 0 
z
" style="fill: #ffffff"/>
  </g>
  <g id="axes_1">
   <g id="patch_2">
    <path d="M 3.00024 198.907885 
L 1184.99976 198.907885 
L 1184.99976 3.00024 
L 3.00024 3.00024 
z
" style="fill: #ffffff"/>
   </g>
   <g id="matplotlib.axis_1">
    <g id="xtick_1">
     <g id="line2d_1">
      <defs>
       <path id="m55928c1471" d="M 0 0 
L 0 8 
" style="stroke: #000000; stroke-width: 2"/>
      </defs>
      <g>
       <use xlink:href="#m55928c1471" x="1131.272509" y="198.907885" style="stroke: #000000; stroke-width: 2"/>
      </g>
     </g>
     <g id="text_1">
      <!-- 0 -->
      <g transform="translate(1126.267665 224.791947) scale(0.18 -0.18)">
       <defs>
        <path id="Arial-BoldMT-30" d="M 1756 4600 
Q 2422 4600 2797 4125 
Q 3244 3563 3244 2259 
Q 3244 959 2794 391 
Q 2422 -78 1756 -78 
Q 1088 -78 678 436 
Q 269 950 269 2269 
Q 269 3563 719 4131 
Q 1091 4600 1756 4600 
z
M 1756 3872 
Q 1597 3872 1472 3770 
Q 1347 3669 1278 3406 
Q 1188 3066 1188 2259 
Q 1188 1453 1269 1151 
Q 1350 850 1473 750 
Q 1597 650 1756 650 
Q 1916 650 2041 751 
Q 2166 853 2234 1116 
Q 2325 1453 2325 2259 
Q 2325 3066 2244 3367 
Q 2163 3669 2039 3770 
Q 1916 3872 1756 3872 
z
" transform="scale(0.015625)"/>
       </defs>
       <use xlink:href="#Arial-BoldMT-30"/>
      </g>
     </g>
    </g>
    <g id="xtick_2">
     <g id="line2d_2">
      <g>
       <use xlink:href="#m55928c1471" x="1023.818007" y="198.907885" style="stroke: #000000; stroke-width: 2"/>
      </g>
     </g>
     <g id="text_2">
      <!-- 1 -->
      <g transform="translate(1018.813164 224.791947) scale(0.18 -0.18)">
       <defs>
        <path id="Arial-BoldMT-31" d="M 2519 0 
L 1641 0 
L 1641 3309 
Q 1159 2859 506 2644 
L 506 3441 
Q 850 3553 1253 3867 
Q 1656 4181 1806 4600 
L 2519 4600 
L 2519 0 
z
" transform="scale(0.015625)"/>
       </defs>
       <use xlink:href="#Arial-BoldMT-31"/>
      </g>
     </g>
    </g>
    <g id="xtick_3">
     <g id="line2d_3">
      <g>
       <use xlink:href="#m55928c1471" x="916.363505" y="198.907885" style="stroke: #000000; stroke-width: 2"/>
      </g>
     </g>
     <g id="text_3">
      <!-- 2 -->
      <g transform="translate(911.358662 224.791947) scale(0.18 -0.18)">
       <defs>
        <path id="Arial-BoldMT-32" d="M 3238 816 
L 3238 0 
L 159 0 
Q 209 463 459 877 
Q 709 1291 1447 1975 
Q 2041 2528 2175 2725 
Q 2356 2997 2356 3263 
Q 2356 3556 2198 3714 
Q 2041 3872 1763 3872 
Q 1488 3872 1325 3706 
Q 1163 3541 1138 3156 
L 263 3244 
Q 341 3969 753 4284 
Q 1166 4600 1784 4600 
Q 2463 4600 2850 4234 
Q 3238 3869 3238 3325 
Q 3238 3016 3127 2736 
Q 3016 2456 2775 2150 
Q 2616 1947 2200 1565 
Q 1784 1184 1673 1059 
Q 1563 934 1494 816 
L 3238 816 
z
" transform="scale(0.015625)"/>
       </defs>
       <use xlink:href="#Arial-BoldMT-32"/>
      </g>
     </g>
    </g>
    <g id="xtick_4">
     <g id="line2d_4">
      <g>
       <use xlink:href="#m55928c1471" x="808.909004" y="198.907885" style="stroke: #000000; stroke-width: 2"/>
      </g>
     </g>
     <g id="text_4">
      <!-- 3 -->
      <g transform="translate(803.90416 224.791947) scale(0.18 -0.18)">
       <defs>
        <path id="Arial-BoldMT-33" d="M 241 1216 
L 1091 1319 
Q 1131 994 1309 822 
Q 1488 650 1741 650 
Q 2013 650 2198 856 
Q 2384 1063 2384 1413 
Q 2384 1744 2206 1937 
Q 2028 2131 1772 2131 
Q 1603 2131 1369 2066 
L 1466 2781 
Q 1822 2772 2009 2936 
Q 2197 3100 2197 3372 
Q 2197 3603 2059 3740 
Q 1922 3878 1694 3878 
Q 1469 3878 1309 3722 
Q 1150 3566 1116 3266 
L 306 3403 
Q 391 3819 561 4067 
Q 731 4316 1036 4458 
Q 1341 4600 1719 4600 
Q 2366 4600 2756 4188 
Q 3078 3850 3078 3425 
Q 3078 2822 2419 2463 
Q 2813 2378 3048 2084 
Q 3284 1791 3284 1375 
Q 3284 772 2843 347 
Q 2403 -78 1747 -78 
Q 1125 -78 715 280 
Q 306 638 241 1216 
z
" transform="scale(0.015625)"/>
       </defs>
       <use xlink:href="#Arial-BoldMT-33"/>
      </g>
     </g>
    </g>
    <g id="xtick_5">
     <g id="line2d_5">
      <g>
       <use xlink:href="#m55928c1471" x="701.454502" y="198.907885" style="stroke: #000000; stroke-width: 2"/>
      </g>
     </g>
     <g id="text_5">
      <!-- 4 -->
      <g transform="translate(696.449658 224.791947) scale(0.18 -0.18)">
       <defs>
        <path id="Arial-BoldMT-34" d="M 1994 0 
L 1994 922 
L 119 922 
L 119 1691 
L 2106 4600 
L 2844 4600 
L 2844 1694 
L 3413 1694 
L 3413 922 
L 2844 922 
L 2844 0 
L 1994 0 
z
M 1994 1694 
L 1994 3259 
L 941 1694 
L 1994 1694 
z
" transform="scale(0.015625)"/>
       </defs>
       <use xlink:href="#Arial-BoldMT-34"/>
      </g>
     </g>
    </g>
    <g id="xtick_6">
     <g id="line2d_6">
      <g>
       <use xlink:href="#m55928c1471" x="594" y="198.907885" style="stroke: #000000; stroke-width: 2"/>
      </g>
     </g>
     <g id="text_6">
      <!-- 5 -->
      <g transform="translate(588.995156 224.791947) scale(0.18 -0.18)">
       <defs>
        <path id="Arial-BoldMT-35" d="M 284 1178 
L 1159 1269 
Q 1197 972 1381 798 
Q 1566 625 1806 625 
Q 2081 625 2272 848 
Q 2463 1072 2463 1522 
Q 2463 1944 2273 2155 
Q 2084 2366 1781 2366 
Q 1403 2366 1103 2031 
L 391 2134 
L 841 4519 
L 3163 4519 
L 3163 3697 
L 1506 3697 
L 1369 2919 
Q 1663 3066 1969 3066 
Q 2553 3066 2959 2641 
Q 3366 2216 3366 1538 
Q 3366 972 3038 528 
Q 2591 -78 1797 -78 
Q 1163 -78 763 262 
Q 363 603 284 1178 
z
" transform="scale(0.015625)"/>
       </defs>
       <use xlink:href="#Arial-BoldMT-35"/>
      </g>
     </g>
    </g>
    <g id="xtick_7">
     <g id="line2d_7">
      <g>
       <use xlink:href="#m55928c1471" x="486.545498" y="198.907885" style="stroke: #000000; stroke-width: 2"/>
      </g>
     </g>
     <g id="text_7">
      <!-- 6 -->
      <g transform="translate(481.540654 224.791947) scale(0.18 -0.18)">
       <defs>
        <path id="Arial-BoldMT-36" d="M 3247 3459 
L 2397 3366 
Q 2366 3628 2234 3753 
Q 2103 3878 1894 3878 
Q 1616 3878 1423 3628 
Q 1231 3378 1181 2588 
Q 1509 2975 1997 2975 
Q 2547 2975 2939 2556 
Q 3331 2138 3331 1475 
Q 3331 772 2918 347 
Q 2506 -78 1859 -78 
Q 1166 -78 719 461 
Q 272 1000 272 2228 
Q 272 3488 737 4044 
Q 1203 4600 1947 4600 
Q 2469 4600 2811 4308 
Q 3153 4016 3247 3459 
z
M 1256 1544 
Q 1256 1116 1453 883 
Q 1650 650 1903 650 
Q 2147 650 2309 840 
Q 2472 1031 2472 1466 
Q 2472 1913 2297 2120 
Q 2122 2328 1859 2328 
Q 1606 2328 1431 2129 
Q 1256 1931 1256 1544 
z
" transform="scale(0.015625)"/>
       </defs>
       <use xlink:href="#Arial-BoldMT-36"/>
      </g>
     </g>
    </g>
    <g id="xtick_8">
     <g id="line2d_8">
      <g>
       <use xlink:href="#m55928c1471" x="379.090996" y="198.907885" style="stroke: #000000; stroke-width: 2"/>
      </g>
     </g>
     <g id="text_8">
      <!-- 7 -->
      <g transform="translate(374.086153 224.791947) scale(0.18 -0.18)">
       <defs>
        <path id="Arial-BoldMT-37" d="M 272 3703 
L 272 4519 
L 3275 4519 
L 3275 3881 
Q 2903 3516 2518 2831 
Q 2134 2147 1932 1376 
Q 1731 606 1734 0 
L 888 0 
Q 909 950 1279 1937 
Q 1650 2925 2269 3703 
L 272 3703 
z
" transform="scale(0.015625)"/>
       </defs>
       <use xlink:href="#Arial-BoldMT-37"/>
      </g>
     </g>
    </g>
    <g id="xtick_9">
     <g id="line2d_9">
      <g>
       <use xlink:href="#m55928c1471" x="271.636495" y="198.907885" style="stroke: #000000; stroke-width: 2"/>
      </g>
     </g>
     <g id="text_9">
      <!-- 8 -->
      <g transform="translate(266.631651 224.791947) scale(0.18 -0.18)">
       <defs>
        <path id="Arial-BoldMT-38" d="M 1025 2472 
Q 684 2616 529 2867 
Q 375 3119 375 3419 
Q 375 3931 733 4265 
Q 1091 4600 1750 4600 
Q 2403 4600 2764 4265 
Q 3125 3931 3125 3419 
Q 3125 3100 2959 2851 
Q 2794 2603 2494 2472 
Q 2875 2319 3073 2025 
Q 3272 1731 3272 1347 
Q 3272 713 2867 316 
Q 2463 -81 1791 -81 
Q 1166 -81 750 247 
Q 259 634 259 1309 
Q 259 1681 443 1992 
Q 628 2303 1025 2472 
z
M 1206 3356 
Q 1206 3094 1354 2947 
Q 1503 2800 1750 2800 
Q 2000 2800 2150 2948 
Q 2300 3097 2300 3359 
Q 2300 3606 2151 3754 
Q 2003 3903 1759 3903 
Q 1506 3903 1356 3753 
Q 1206 3603 1206 3356 
z
M 1125 1394 
Q 1125 1031 1311 828 
Q 1497 625 1775 625 
Q 2047 625 2225 820 
Q 2403 1016 2403 1384 
Q 2403 1706 2222 1901 
Q 2041 2097 1763 2097 
Q 1441 2097 1283 1875 
Q 1125 1653 1125 1394 
z
" transform="scale(0.015625)"/>
       </defs>
       <use xlink:href="#Arial-BoldMT-38"/>
      </g>
     </g>
    </g>
    <g id="xtick_10">
     <g id="line2d_10">
      <g>
       <use xlink:href="#m55928c1471" x="164.181993" y="198.907885" style="stroke: #000000; stroke-width: 2"/>
      </g>
     </g>
     <g id="text_10">
      <!-- 9 -->
      <g transform="translate(159.177149 224.791947) scale(0.18 -0.18)">
       <defs>
        <path id="Arial-BoldMT-39" d="M 291 1059 
L 1141 1153 
Q 1172 894 1303 769 
Q 1434 644 1650 644 
Q 1922 644 2112 894 
Q 2303 1144 2356 1931 
Q 2025 1547 1528 1547 
Q 988 1547 595 1964 
Q 203 2381 203 3050 
Q 203 3747 617 4173 
Q 1031 4600 1672 4600 
Q 2369 4600 2816 4061 
Q 3263 3522 3263 2288 
Q 3263 1031 2797 475 
Q 2331 -81 1584 -81 
Q 1047 -81 715 205 
Q 384 491 291 1059 
z
M 2278 2978 
Q 2278 3403 2083 3637 
Q 1888 3872 1631 3872 
Q 1388 3872 1227 3680 
Q 1066 3488 1066 3050 
Q 1066 2606 1241 2398 
Q 1416 2191 1678 2191 
Q 1931 2191 2104 2391 
Q 2278 2591 2278 2978 
z
" transform="scale(0.015625)"/>
       </defs>
       <use xlink:href="#Arial-BoldMT-39"/>
      </g>
     </g>
    </g>
    <g id="xtick_11">
     <g id="line2d_11">
      <g>
       <use xlink:href="#m55928c1471" x="56.727491" y="198.907885" style="stroke: #000000; stroke-width: 2"/>
      </g>
     </g>
     <g id="text_11">
      <!-- 10 -->
      <g transform="translate(46.717803 224.791947) scale(0.18 -0.18)">
       <use xlink:href="#Arial-BoldMT-31"/>
       <use xlink:href="#Arial-BoldMT-30" x="55.615234"/>
      </g>
     </g>
    </g>
    <g id="text_12">
     <!-- Chemical Shift / ppm -->
     <g transform="translate(504.992813 245.447573) scale(0.18 -0.18)">
      <defs>
       <path id="Arial-BoldMT-43" d="M 3397 1684 
L 4294 1400 
Q 4088 650 3608 286 
Q 3128 -78 2391 -78 
Q 1478 -78 890 545 
Q 303 1169 303 2250 
Q 303 3394 893 4026 
Q 1484 4659 2447 4659 
Q 3288 4659 3813 4163 
Q 4125 3869 4281 3319 
L 3366 3100 
Q 3284 3456 3026 3662 
Q 2769 3869 2400 3869 
Q 1891 3869 1573 3503 
Q 1256 3138 1256 2319 
Q 1256 1450 1568 1081 
Q 1881 713 2381 713 
Q 2750 713 3015 947 
Q 3281 1181 3397 1684 
z
" transform="scale(0.015625)"/>
       <path id="Arial-BoldMT-68" d="M 1334 4581 
L 1334 2897 
Q 1759 3394 2350 3394 
Q 2653 3394 2897 3281 
Q 3141 3169 3264 2994 
Q 3388 2819 3433 2606 
Q 3478 2394 3478 1947 
L 3478 0 
L 2600 0 
L 2600 1753 
Q 2600 2275 2550 2415 
Q 2500 2556 2373 2639 
Q 2247 2722 2056 2722 
Q 1838 2722 1666 2615 
Q 1494 2509 1414 2295 
Q 1334 2081 1334 1663 
L 1334 0 
L 456 0 
L 456 4581 
L 1334 4581 
z
" transform="scale(0.015625)"/>
       <path id="Arial-BoldMT-65" d="M 2381 1056 
L 3256 909 
Q 3088 428 2723 176 
Q 2359 -75 1813 -75 
Q 947 -75 531 491 
Q 203 944 203 1634 
Q 203 2459 634 2926 
Q 1066 3394 1725 3394 
Q 2466 3394 2894 2905 
Q 3322 2416 3303 1406 
L 1103 1406 
Q 1113 1016 1316 798 
Q 1519 581 1822 581 
Q 2028 581 2168 693 
Q 2309 806 2381 1056 
z
M 2431 1944 
Q 2422 2325 2234 2523 
Q 2047 2722 1778 2722 
Q 1491 2722 1303 2513 
Q 1116 2303 1119 1944 
L 2431 1944 
z
" transform="scale(0.015625)"/>
       <path id="Arial-BoldMT-6d" d="M 394 3319 
L 1203 3319 
L 1203 2866 
Q 1638 3394 2238 3394 
Q 2556 3394 2790 3262 
Q 3025 3131 3175 2866 
Q 3394 3131 3647 3262 
Q 3900 3394 4188 3394 
Q 4553 3394 4806 3245 
Q 5059 3097 5184 2809 
Q 5275 2597 5275 2122 
L 5275 0 
L 4397 0 
L 4397 1897 
Q 4397 2391 4306 2534 
Q 4184 2722 3931 2722 
Q 3747 2722 3584 2609 
Q 3422 2497 3350 2280 
Q 3278 2063 3278 1594 
L 3278 0 
L 2400 0 
L 2400 1819 
Q 2400 2303 2353 2443 
Q 2306 2584 2207 2653 
Q 2109 2722 1941 2722 
Q 1738 2722 1575 2612 
Q 1413 2503 1342 2297 
Q 1272 2091 1272 1613 
L 1272 0 
L 394 0 
L 394 3319 
z
" transform="scale(0.015625)"/>
       <path id="Arial-BoldMT-69" d="M 459 3769 
L 459 4581 
L 1338 4581 
L 1338 3769 
L 459 3769 
z
M 459 0 
L 459 3319 
L 1338 3319 
L 1338 0 
L 459 0 
z
" transform="scale(0.015625)"/>
       <path id="Arial-BoldMT-63" d="M 3353 2338 
L 2488 2181 
Q 2444 2441 2289 2572 
Q 2134 2703 1888 2703 
Q 1559 2703 1364 2476 
Q 1169 2250 1169 1719 
Q 1169 1128 1367 884 
Q 1566 641 1900 641 
Q 2150 641 2309 783 
Q 2469 925 2534 1272 
L 3397 1125 
Q 3263 531 2881 228 
Q 2500 -75 1859 -75 
Q 1131 -75 698 384 
Q 266 844 266 1656 
Q 266 2478 700 2936 
Q 1134 3394 1875 3394 
Q 2481 3394 2839 3133 
Q 3197 2872 3353 2338 
z
" transform="scale(0.015625)"/>
       <path id="Arial-BoldMT-61" d="M 1116 2306 
L 319 2450 
Q 453 2931 781 3162 
Q 1109 3394 1756 3394 
Q 2344 3394 2631 3255 
Q 2919 3116 3036 2902 
Q 3153 2688 3153 2116 
L 3144 1091 
Q 3144 653 3186 445 
Q 3228 238 3344 0 
L 2475 0 
Q 2441 88 2391 259 
Q 2369 338 2359 363 
Q 2134 144 1878 34 
Q 1622 -75 1331 -75 
Q 819 -75 523 203 
Q 228 481 228 906 
Q 228 1188 362 1408 
Q 497 1628 739 1745 
Q 981 1863 1438 1950 
Q 2053 2066 2291 2166 
L 2291 2253 
Q 2291 2506 2166 2614 
Q 2041 2722 1694 2722 
Q 1459 2722 1328 2630 
Q 1197 2538 1116 2306 
z
M 2291 1594 
Q 2122 1538 1756 1459 
Q 1391 1381 1278 1306 
Q 1106 1184 1106 997 
Q 1106 813 1243 678 
Q 1381 544 1594 544 
Q 1831 544 2047 700 
Q 2206 819 2256 991 
Q 2291 1103 2291 1419 
L 2291 1594 
z
" transform="scale(0.015625)"/>
       <path id="Arial-BoldMT-6c" d="M 459 0 
L 459 4581 
L 1338 4581 
L 1338 0 
L 459 0 
z
" transform="scale(0.015625)"/>
       <path id="Arial-BoldMT-20" transform="scale(0.015625)"/>
       <path id="Arial-BoldMT-53" d="M 231 1491 
L 1131 1578 
Q 1213 1125 1461 912 
Q 1709 700 2131 700 
Q 2578 700 2804 889 
Q 3031 1078 3031 1331 
Q 3031 1494 2936 1608 
Q 2841 1722 2603 1806 
Q 2441 1863 1863 2006 
Q 1119 2191 819 2459 
Q 397 2838 397 3381 
Q 397 3731 595 4036 
Q 794 4341 1167 4500 
Q 1541 4659 2069 4659 
Q 2931 4659 3367 4281 
Q 3803 3903 3825 3272 
L 2900 3231 
Q 2841 3584 2645 3739 
Q 2450 3894 2059 3894 
Q 1656 3894 1428 3728 
Q 1281 3622 1281 3444 
Q 1281 3281 1419 3166 
Q 1594 3019 2269 2859 
Q 2944 2700 3267 2529 
Q 3591 2359 3773 2064 
Q 3956 1769 3956 1334 
Q 3956 941 3737 597 
Q 3519 253 3119 86 
Q 2719 -81 2122 -81 
Q 1253 -81 787 320 
Q 322 722 231 1491 
z
" transform="scale(0.015625)"/>
       <path id="Arial-BoldMT-66" d="M 75 3319 
L 563 3319 
L 563 3569 
Q 563 3988 652 4194 
Q 741 4400 980 4529 
Q 1219 4659 1584 4659 
Q 1959 4659 2319 4547 
L 2200 3934 
Q 1991 3984 1797 3984 
Q 1606 3984 1523 3895 
Q 1441 3806 1441 3553 
L 1441 3319 
L 2097 3319 
L 2097 2628 
L 1441 2628 
L 1441 0 
L 563 0 
L 563 2628 
L 75 2628 
L 75 3319 
z
" transform="scale(0.015625)"/>
       <path id="Arial-BoldMT-74" d="M 1981 3319 
L 1981 2619 
L 1381 2619 
L 1381 1281 
Q 1381 875 1398 808 
Q 1416 741 1477 697 
Q 1538 653 1625 653 
Q 1747 653 1978 738 
L 2053 56 
Q 1747 -75 1359 -75 
Q 1122 -75 931 4 
Q 741 84 652 211 
Q 563 338 528 553 
Q 500 706 500 1172 
L 500 2619 
L 97 2619 
L 97 3319 
L 500 3319 
L 500 3978 
L 1381 4491 
L 1381 3319 
L 1981 3319 
z
" transform="scale(0.015625)"/>
       <path id="Arial-BoldMT-2f" d="M -9 -78 
L 1125 4659 
L 1784 4659 
L 638 -78 
L -9 -78 
z
" transform="scale(0.015625)"/>
       <path id="Arial-BoldMT-70" d="M 434 3319 
L 1253 3319 
L 1253 2831 
Q 1413 3081 1684 3237 
Q 1956 3394 2288 3394 
Q 2866 3394 3269 2941 
Q 3672 2488 3672 1678 
Q 3672 847 3265 386 
Q 2859 -75 2281 -75 
Q 2006 -75 1782 34 
Q 1559 144 1313 409 
L 1313 -1263 
L 434 -1263 
L 434 3319 
z
M 1303 1716 
Q 1303 1156 1525 889 
Q 1747 622 2066 622 
Q 2372 622 2575 867 
Q 2778 1113 2778 1672 
Q 2778 2194 2568 2447 
Q 2359 2700 2050 2700 
Q 1728 2700 1515 2451 
Q 1303 2203 1303 1716 
z
" transform="scale(0.015625)"/>
      </defs>
      <use xlink:href="#Arial-BoldMT-43"/>
      <use xlink:href="#Arial-BoldMT-68" x="72.216797"/>
      <use xlink:href="#Arial-BoldMT-65" x="133.300781"/>
      <use xlink:href="#Arial-BoldMT-6d" x="188.916016"/>
      <use xlink:href="#Arial-BoldMT-69" x="277.832031"/>
      <use xlink:href="#Arial-BoldMT-63" x="305.615234"/>
      <use xlink:href="#Arial-BoldMT-61" x="361.230469"/>
      <use xlink:href="#Arial-BoldMT-6c" x="416.845703"/>
      <use xlink:href="#Arial-BoldMT-20" x="444.628906"/>
      <use xlink:href="#Arial-BoldMT-53" x="472.412109"/>
      <use xlink:href="#Arial-BoldMT-68" x="539.111328"/>
      <use xlink:href="#Arial-BoldMT-69" x="600.195312"/>
      <use xlink:href="#Arial-BoldMT-66" x="627.978516"/>
      <use xlink:href="#Arial-BoldMT-74" x="661.279297"/>
      <use xlink:href="#Arial-BoldMT-20" x="694.580078"/>
      <use xlink:href="#Arial-BoldMT-2f" x="722.363281"/>
      <use xlink:href="#Arial-BoldMT-20" x="750.146484"/>
      <use xlink:href="#Arial-BoldMT-70" x="777.929688"/>
      <use xlink:href="#Arial-BoldMT-70" x="839.013672"/>
      <use xlink:href="#Arial-BoldMT-6d" x="900.097656"/>
     </g>
    </g>
   </g>
   <g id="matplotlib.axis_2"/>
   <g id="line2d_12">
    <path d="M 2.952668 190.139652 
L 3.361908 190.13261 
L 3.771147 189.888428 
L 4.385006 189.184163 
L 4.589626 189.179727 
L 5.612725 189.710459 
L 6.635823 189.930495 
L 7.249683 189.363964 
L 7.863542 189.298833 
L 8.272781 189.160427 
L 8.682021 189.015745 
L 9.09126 188.992102 
L 9.705119 188.657145 
L 10.114359 188.703148 
L 10.728218 188.995554 
L 11.137457 189.053416 
L 11.546697 189.19487 
L 12.160556 188.9883 
L 12.774415 188.780229 
L 12.979035 188.942331 
L 14.002134 190.747949 
L 14.411373 190.978751 
L 14.615993 190.993739 
L 14.820612 190.834932 
L 16.252951 188.793927 
L 16.45757 188.729276 
L 16.66219 188.853985 
L 17.480669 189.930631 
L 17.889908 190.112877 
L 18.503768 190.434184 
L 18.913007 190.443496 
L 19.322246 190.510034 
L 19.526866 190.522293 
L 20.754585 189.461329 
L 21.163824 189.027663 
L 21.368444 189.023697 
L 21.777683 189.281255 
L 22.596162 189.365401 
L 23.82388 190.195818 
L 24.23312 189.742525 
L 24.43774 189.475045 
L 24.642359 189.398894 
L 25.051599 189.567528 
L 25.870078 189.365326 
L 26.483937 189.850495 
L 26.688557 189.824732 
L 27.302416 189.1961 
L 27.916275 189.088825 
L 28.325514 188.744115 
L 28.530134 188.766266 
L 29.757853 189.649506 
L 30.167092 189.591993 
L 30.985571 189.218544 
L 31.59943 189.183508 
L 32.00867 189.486347 
L 32.827148 190.468622 
L 33.236388 190.708471 
L 33.441008 190.600128 
L 34.259487 189.419382 
L 34.668726 189.351398 
L 35.282585 188.801751 
L 35.691825 188.629459 
L 35.896444 188.492023 
L 36.101064 188.520747 
L 36.510304 189.060362 
L 37.124163 190.012881 
L 37.328782 190.077445 
L 37.533402 190.017958 
L 37.942642 189.550551 
L 38.351881 189.14576 
L 39.37498 189.173828 
L 40.602698 189.824973 
L 41.011937 189.534299 
L 41.421177 189.084982 
L 42.035036 188.931585 
L 42.444276 189.179065 
L 42.853515 189.549688 
L 43.262754 189.638877 
L 44.081233 189.510899 
L 44.490473 189.287663 
L 44.695093 189.281321 
L 45.308952 189.530204 
L 46.74129 187.926443 
L 47.150529 187.747225 
L 47.355149 187.783088 
L 48.582867 188.892213 
L 48.992107 188.96005 
L 49.605966 189.41784 
L 50.015205 189.774682 
L 50.424445 189.686567 
L 50.833684 189.460487 
L 51.652163 188.75069 
L 52.266022 188.534047 
L 53.289121 189.037568 
L 54.516839 188.928646 
L 54.926079 189.13234 
L 55.539938 189.888096 
L 55.744558 190.186002 
L 55.949178 190.273688 
L 56.358417 189.929384 
L 56.972276 189.423166 
L 57.381516 189.387536 
L 57.790755 189.500031 
L 58.199995 189.336306 
L 58.813854 189.1168 
L 59.836952 188.748032 
L 60.450812 188.384436 
L 61.67853 188.278371 
L 62.497009 188.480994 
L 62.701629 188.503055 
L 62.906248 188.651595 
L 63.520107 189.534468 
L 64.133967 189.385575 
L 64.543206 189.277123 
L 64.747826 189.14159 
L 64.952446 189.147055 
L 65.770924 189.938041 
L 66.180164 189.959585 
L 66.794023 190.360997 
L 67.203263 190.197967 
L 67.407882 190.006855 
L 68.021741 188.733591 
L 68.430981 188.758106 
L 69.24946 189.260433 
L 70.272558 189.011871 
L 70.681798 189.114249 
L 71.091037 189.26415 
L 72.932615 188.557661 
L 73.341854 188.869085 
L 73.955714 188.889153 
L 74.364953 189.306003 
L 75.183432 190.239555 
L 75.388052 190.276302 
L 76.61577 189.571659 
L 76.82039 189.616964 
L 77.229629 189.907062 
L 77.638869 189.934845 
L 78.457347 189.769411 
L 79.071207 190.080471 
L 79.889686 189.649784 
L 80.094305 189.775715 
L 80.708164 190.564041 
L 81.117404 189.931311 
L 81.526643 189.393442 
L 81.935883 189.220399 
L 82.345122 189.413492 
L 82.958981 189.87337 
L 84.1867 189.625631 
L 84.595939 189.887865 
L 85.005179 190.064718 
L 85.414418 189.606982 
L 85.823658 189.264821 
L 86.642137 189.51814 
L 87.051376 189.241667 
L 87.460615 189.514372 
L 88.892954 189.228221 
L 89.302193 189.349965 
L 89.711432 189.493326 
L 90.529911 188.89138 
L 90.939151 189.269726 
L 91.55301 190.021731 
L 91.75763 189.968872 
L 92.166869 189.417274 
L 92.371489 189.341228 
L 92.780728 189.802389 
L 93.189968 190.334753 
L 93.599207 190.362568 
L 94.008447 190.417975 
L 94.417686 190.484237 
L 94.826926 190.29974 
L 95.645405 189.592632 
L 96.054644 189.700263 
L 96.668503 189.999674 
L 98.7147 189.79219 
L 100.147039 190.77137 
L 100.351658 190.609671 
L 101.374757 188.868322 
L 101.783996 188.703872 
L 101.988616 188.762899 
L 102.602475 189.241304 
L 103.011715 189.064067 
L 103.420954 188.718455 
L 103.830194 188.246267 
L 104.034813 188.184913 
L 104.853292 188.837953 
L 105.262532 188.735198 
L 105.671771 188.737736 
L 106.081011 188.568053 
L 107.104109 189.23768 
L 107.308729 189.292452 
L 108.127208 189.907243 
L 108.741067 189.666755 
L 109.559546 190.086517 
L 110.173405 189.942812 
L 110.787264 189.957901 
L 111.401124 189.976495 
L 112.219602 189.430844 
L 112.833462 189.382817 
L 113.242701 189.711237 
L 113.651941 189.912036 
L 114.675039 189.576698 
L 115.493518 189.811731 
L 116.107377 189.380928 
L 116.721236 188.824075 
L 117.130476 188.849186 
L 117.539715 189.225783 
L 117.948955 189.582031 
L 118.972053 189.553708 
L 119.381293 189.132726 
L 119.790532 188.714511 
L 120.404391 188.513189 
L 120.813631 188.132834 
L 121.63211 188.619083 
L 122.041349 188.391234 
L 122.450589 188.117323 
L 122.655208 188.170162 
L 123.269068 188.836013 
L 124.087547 189.850354 
L 124.292166 189.858883 
L 125.110645 189.332583 
L 126.338364 189.363787 
L 126.747603 189.389929 
L 127.156842 189.265045 
L 127.566082 189.508156 
L 127.770702 189.648152 
L 127.975321 189.647587 
L 128.99842 188.86103 
L 129.407659 189.159057 
L 130.021519 189.738235 
L 130.839998 189.876804 
L 132.476955 190.384239 
L 132.886195 189.616553 
L 133.295434 188.927273 
L 134.318533 188.528842 
L 134.727772 188.729893 
L 135.137012 188.882695 
L 135.955491 188.482078 
L 136.16011 188.491412 
L 136.77397 188.818004 
L 137.592449 188.346294 
L 138.820167 188.986546 
L 139.229406 189.009188 
L 139.638646 188.862478 
L 140.252505 188.300079 
L 140.661744 188.39839 
L 141.070984 188.116689 
L 141.275604 187.942134 
L 141.480223 187.966618 
L 142.094083 188.540012 
L 142.503322 188.968272 
L 142.707942 189.008743 
L 143.321801 188.745443 
L 144.3449 189.132946 
L 144.549519 189.008452 
L 144.958759 188.351792 
L 145.163378 188.279029 
L 146.186477 188.656202 
L 146.595717 188.827596 
L 147.209576 188.713581 
L 148.028055 188.947429 
L 148.641914 188.564437 
L 149.051153 189.161528 
L 149.460393 189.650691 
L 150.074252 189.866411 
L 150.278872 189.802729 
L 150.892731 189.197917 
L 151.30197 189.090682 
L 151.915829 189.248443 
L 152.120449 189.136991 
L 152.938928 188.017316 
L 153.552787 188.551119 
L 154.575886 188.253438 
L 155.189745 188.097811 
L 156.212844 187.619628 
L 156.622083 187.736616 
L 157.235942 187.536506 
L 158.054421 188.15368 
L 158.463661 187.969247 
L 158.8729 187.823246 
L 159.28214 188.205872 
L 159.486759 188.390246 
L 159.691379 188.295115 
L 160.100618 187.43313 
L 160.509858 186.518314 
L 160.919097 186.13964 
L 161.328337 186.092745 
L 161.737576 186.400815 
L 162.556055 187.322586 
L 164.193013 187.61553 
L 164.806872 187.645375 
L 166.23921 188.183047 
L 166.44383 188.075798 
L 166.853069 187.604587 
L 167.671548 187.42664 
L 168.285408 187.869528 
L 168.694647 187.74406 
L 169.513126 188.106491 
L 170.331605 188.795382 
L 170.536225 188.702503 
L 171.354703 187.596069 
L 171.763943 187.466842 
L 172.173182 187.428279 
L 172.787042 186.996056 
L 174.01476 187.894143 
L 174.21938 187.998498 
L 175.242478 187.832548 
L 176.060957 188.136313 
L 176.265577 188.238938 
L 176.674816 188.07877 
L 177.084056 187.889403 
L 177.902535 187.8384 
L 179.130253 188.788561 
L 179.948732 188.686952 
L 180.357971 188.62436 
L 180.971831 187.93159 
L 181.79031 186.622368 
L 182.199549 186.407407 
L 182.404169 186.492899 
L 183.018028 187.58671 
L 183.427267 188.156783 
L 184.041127 188.774642 
L 184.245746 188.693031 
L 185.064225 187.549377 
L 185.473465 187.361216 
L 185.882704 187.019835 
L 186.291944 186.992024 
L 186.701183 187.305185 
L 187.315042 187.844617 
L 187.928901 187.784427 
L 188.542761 187.457863 
L 188.952 187.773555 
L 189.975099 188.67499 
L 190.384338 188.5613 
L 191.202817 188.921526 
L 191.612056 189.084527 
L 192.635155 188.93296 
L 193.453634 188.952088 
L 194.272113 188.775407 
L 194.681352 188.916752 
L 195.090592 188.611971 
L 195.295211 188.486046 
L 195.704451 188.814554 
L 196.11369 188.990072 
L 196.52293 188.821951 
L 196.932169 188.722321 
L 197.341409 188.975076 
L 197.546028 188.940026 
L 198.569127 188.009104 
L 198.978367 187.613208 
L 199.387606 187.627014 
L 200.001465 187.938874 
L 200.410705 188.113144 
L 200.819944 188.48801 
L 201.229184 188.46844 
L 201.843043 188.264868 
L 203.070761 188.809642 
L 203.480001 188.93596 
L 204.298479 189.438305 
L 205.116958 188.916089 
L 205.935437 187.905118 
L 206.344677 187.739646 
L 207.163156 187.920126 
L 207.572395 187.852469 
L 207.777015 187.708302 
L 208.186254 186.832846 
L 208.595494 186.177063 
L 208.800113 186.252776 
L 209.413973 187.109911 
L 209.823212 187.246953 
L 210.641691 187.083103 
L 211.05093 186.904554 
L 211.25555 186.789372 
L 211.46017 186.818142 
L 211.869409 187.165749 
L 212.483269 187.941973 
L 212.687888 187.963804 
L 213.301747 187.63657 
L 213.710987 187.539673 
L 214.120226 187.299703 
L 214.734086 186.641389 
L 215.347945 186.276754 
L 215.757184 186.146857 
L 216.575663 185.175748 
L 216.780283 185.138447 
L 216.984903 184.986325 
L 217.394142 183.897975 
L 218.008001 182.01152 
L 218.417241 180.783302 
L 219.0311 177.966826 
L 220.054198 172.355411 
L 220.872677 169.457515 
L 221.281917 167.848826 
L 221.486537 167.539083 
L 221.691156 167.516835 
L 222.100396 167.963642 
L 222.509635 168.99052 
L 222.918875 170.079166 
L 223.532734 171.332196 
L 224.146593 172.680657 
L 224.555832 172.909619 
L 225.169692 173.018277 
L 225.374311 172.716054 
L 225.783551 171.401666 
L 226.60203 168.175501 
L 227.215889 166.742172 
L 227.625128 166.104661 
L 228.443607 165.726728 
L 228.648227 165.986151 
L 229.466706 168.225008 
L 230.285185 171.854762 
L 230.899044 175.305224 
L 231.103664 175.930233 
L 231.308283 176.183942 
L 231.717523 176.08784 
L 232.126762 175.817745 
L 232.536002 175.308114 
L 233.149861 173.915532 
L 233.5591 172.339549 
L 233.96834 169.356317 
L 234.377579 164.639973 
L 234.991438 156.205278 
L 235.400678 153.286074 
L 236.423777 149.540402 
L 236.628396 149.742047 
L 236.833016 150.229398 
L 237.037636 150.401121 
L 237.242255 149.906181 
L 237.856115 147.204921 
L 238.060734 147.280241 
L 238.674594 148.433997 
L 238.879213 148.606235 
L 239.083833 149.000826 
L 239.288453 150.030401 
L 240.106932 156.32241 
L 240.311551 156.954756 
L 240.516171 156.867118 
L 240.720791 155.980826 
L 241.743889 148.688813 
L 242.153129 147.974615 
L 242.357749 147.211731 
L 243.176228 143.036531 
L 243.585467 142.839011 
L 243.790087 142.90839 
L 243.994706 143.518982 
L 244.403946 146.499288 
L 244.813185 149.669642 
L 245.427045 152.361777 
L 245.836284 157.242139 
L 246.654763 168.997563 
L 247.064002 172.91869 
L 247.677862 176.271576 
L 248.291721 178.754543 
L 249.314819 181.977001 
L 249.519439 182.117145 
L 250.133298 181.826121 
L 250.337918 181.913471 
L 250.747157 182.689938 
L 251.361017 183.966777 
L 251.974876 184.420203 
L 252.179496 184.513449 
L 252.588735 184.355081 
L 252.997974 184.285774 
L 253.816453 184.240538 
L 254.021073 184.357297 
L 254.225693 184.322784 
L 254.634932 184.055773 
L 255.044172 184.096786 
L 255.658031 184.825983 
L 255.862651 184.805083 
L 256.27189 184.081556 
L 256.47651 183.734059 
L 256.68113 183.683925 
L 257.294989 184.109576 
L 257.499608 184.105356 
L 258.113468 183.806113 
L 258.522707 183.787127 
L 259.955045 182.859317 
L 260.568904 182.41266 
L 260.773524 182.369649 
L 260.978144 182.16201 
L 261.592003 180.715256 
L 262.615102 177.992052 
L 263.433581 176.851754 
L 264.04744 174.751727 
L 264.865919 171.377838 
L 267.321355 158.5673 
L 268.139834 154.765354 
L 268.549074 153.77698 
L 269.572172 152.088805 
L 269.981412 150.761602 
L 270.595271 148.012362 
L 271.00451 144.815636 
L 271.61837 136.670046 
L 272.232229 123.722627 
L 273.050708 98.596703 
L 274.892285 38.57577 
L 275.915384 10.141918 
L 276.324623 4.026462 
L 276.529243 3.00024 
L 276.733863 3.224517 
L 276.938482 4.53231 
L 277.347722 10.213446 
L 277.961581 24.001509 
L 278.98468 51.316849 
L 280.826257 107.225139 
L 281.440116 119.332693 
L 282.053976 127.355262 
L 282.872455 132.665584 
L 283.486314 135.421544 
L 283.895553 136.300667 
L 284.304793 136.557668 
L 284.918652 136.337458 
L 285.327891 136.548801 
L 286.14637 137.212616 
L 286.55561 137.331326 
L 287.169469 137.956118 
L 287.578708 138.032781 
L 287.783328 138.270017 
L 289.011046 141.379862 
L 289.624906 143.007458 
L 290.238765 143.63551 
L 290.852624 143.863562 
L 291.875723 144.601709 
L 292.284962 144.34826 
L 292.898821 143.460661 
L 293.103441 143.568581 
L 293.308061 144.080736 
L 293.7173 146.190022 
L 294.535779 150.663741 
L 294.945018 151.635798 
L 295.354258 152.016291 
L 295.558878 152.573791 
L 295.968117 155.186773 
L 296.581976 159.31166 
L 297.195835 162.204022 
L 297.809695 163.633649 
L 298.832793 165.510653 
L 299.242033 165.964069 
L 300.265131 166.367162 
L 300.469751 166.17673 
L 300.878991 165.285556 
L 301.28823 163.83288 
L 301.697469 161.269943 
L 302.106709 157.272441 
L 302.925188 147.486791 
L 303.129808 147.056469 
L 303.334427 147.502582 
L 303.743667 149.200688 
L 304.357526 152.644446 
L 304.562146 153.036534 
L 304.766765 152.608178 
L 305.176005 149.858354 
L 305.380625 148.448189 
L 305.585244 147.859342 
L 305.789864 148.520805 
L 306.199103 152.904677 
L 307.017582 163.287048 
L 307.631441 167.567783 
L 308.040681 168.939066 
L 308.44992 169.396589 
L 308.85916 169.267816 
L 309.882258 168.52815 
L 310.291498 167.420277 
L 310.700737 165.471244 
L 311.109977 161.962566 
L 311.723836 155.814789 
L 312.133075 153.446596 
L 312.337695 151.506478 
L 312.746935 143.858098 
L 313.565414 123.746445 
L 313.770033 125.097206 
L 314.793132 142.887426 
L 314.997752 143.599165 
L 315.202371 142.803271 
L 315.406991 140.481492 
L 316.02085 129.596891 
L 316.22547 129.183687 
L 316.43009 132.420932 
L 317.248569 153.762843 
L 317.657808 159.704634 
L 318.067048 163.094174 
L 318.476287 164.295979 
L 318.680907 164.443095 
L 318.885526 164.401537 
L 319.090146 164.01567 
L 319.499386 162.095749 
L 319.908625 159.037252 
L 320.317865 154.676269 
L 320.727104 148.011793 
L 321.136343 137.602081 
L 321.545583 121.512435 
L 322.364062 81.180258 
L 322.568682 78.980321 
L 322.773301 80.261945 
L 323.38716 88.237305 
L 323.59178 86.554589 
L 324.00102 76.011972 
L 324.819499 54.4694 
L 325.024118 53.384105 
L 325.228738 55.122788 
L 325.433358 58.986881 
L 325.842597 74.325866 
L 326.251837 87.855374 
L 326.456456 90.179218 
L 326.661076 90.77654 
L 326.865696 92.283118 
L 327.070316 97.442616 
L 327.888794 132.408811 
L 328.298034 141.393516 
L 328.707273 146.458557 
L 329.116513 148.935856 
L 329.321133 149.545519 
L 329.730372 149.867904 
L 330.139611 150.13415 
L 330.344231 150.037445 
L 330.548851 149.515782 
L 330.95809 147.189252 
L 332.185809 137.923352 
L 332.595048 131.962183 
L 333.413527 118.093319 
L 333.618147 117.488694 
L 334.027386 118.464531 
L 334.232006 117.955135 
L 334.641245 115.213384 
L 334.845865 114.878922 
L 335.664344 118.703483 
L 335.868964 118.066546 
L 336.278203 115.519785 
L 336.687443 111.440302 
L 338.73364 85.478281 
L 340.165978 69.110372 
L 340.779837 56.814022 
L 340.984457 55.257312 
L 341.189077 57.191667 
L 342.007556 73.354344 
L 342.416795 76.725746 
L 342.826035 77.986421 
L 343.030654 77.936861 
L 343.439894 76.993543 
L 343.644513 77.793543 
L 343.849133 80.913191 
L 345.076852 109.379017 
L 345.690711 116.202608 
L 346.09995 118.281438 
L 346.30457 118.262649 
L 346.50919 117.214483 
L 346.918429 111.808227 
L 347.327668 106.383495 
L 347.532288 107.04371 
L 348.350767 119.827051 
L 348.555387 120.480452 
L 348.760007 119.774904 
L 349.169246 114.84714 
L 349.578485 108.57905 
L 349.783105 106.771667 
L 349.987725 106.622047 
L 350.192345 108.249903 
L 350.601584 116.528701 
L 351.010824 125.296769 
L 351.420063 130.056612 
L 351.624683 131.304109 
L 351.829302 131.757678 
L 352.238542 131.332708 
L 352.443162 132.026488 
L 352.647781 134.525682 
L 353.46626 148.647483 
L 353.8755 151.86884 
L 354.284739 153.439441 
L 354.898598 154.678716 
L 355.103218 154.833431 
L 355.307838 154.423354 
L 355.921697 150.815957 
L 356.126317 151.535811 
L 357.149415 162.074298 
L 357.354035 162.78135 
L 357.558655 162.988304 
L 357.763275 162.611726 
L 357.967894 161.63183 
L 358.377134 157.825985 
L 358.786373 153.760845 
L 358.990993 153.891168 
L 359.400232 158.670776 
L 360.014092 166.091577 
L 360.423331 168.239368 
L 361.03719 169.978904 
L 361.651049 173.188321 
L 362.264909 175.616521 
L 362.878768 177.610232 
L 363.492627 178.879321 
L 363.901866 179.524428 
L 364.515726 180.765696 
L 364.720345 180.859014 
L 365.334204 180.619779 
L 366.152683 180.911162 
L 367.789641 180.458807 
L 368.198881 180.438874 
L 368.60812 180.023962 
L 368.81274 180.035711 
L 369.221979 180.673785 
L 369.631219 181.355146 
L 369.835838 181.53264 
L 370.040458 181.51528 
L 370.858937 180.710208 
L 371.268177 180.880586 
L 371.882036 181.208622 
L 372.086655 181.05503 
L 372.905134 179.401423 
L 374.337472 176.394196 
L 374.746712 175.785808 
L 374.951332 175.660896 
L 375.155951 175.874681 
L 377.202149 180.892619 
L 378.020628 182.329187 
L 378.634487 182.66388 
L 379.452966 183.006119 
L 379.657585 183.125317 
L 380.476064 184.2723 
L 380.680684 184.262468 
L 380.885304 184.002225 
L 381.294543 183.133594 
L 381.499163 182.924178 
L 381.908402 182.898677 
L 382.726881 183.182538 
L 383.136121 183.138313 
L 383.54536 183.17607 
L 383.74998 183.181591 
L 384.363839 183.551688 
L 384.773078 183.428456 
L 385.591557 183.774257 
L 387.023895 184.102849 
L 387.637755 184.785876 
L 388.251614 184.885806 
L 389.070093 184.643493 
L 389.479332 184.663191 
L 390.502431 184.201712 
L 390.91167 184.41286 
L 391.32091 185.068117 
L 391.730149 185.652067 
L 391.934769 185.654167 
L 393.162487 184.921114 
L 393.571727 185.104833 
L 394.185586 185.500982 
L 394.390206 185.393249 
L 395.208685 184.255679 
L 395.617924 184.181869 
L 396.231783 184.18286 
L 396.641023 184.12773 
L 397.254882 184.380962 
L 397.868741 184.107224 
L 398.89184 184.580532 
L 399.301079 184.672823 
L 400.324178 185.469224 
L 401.347276 185.008088 
L 401.756516 184.948085 
L 401.961136 184.775218 
L 402.984234 183.097225 
L 403.598093 182.675043 
L 403.802713 182.673904 
L 404.621192 182.081757 
L 405.235051 182.525066 
L 405.644291 182.389346 
L 406.25815 182.259517 
L 406.667389 181.497874 
L 407.076629 180.890846 
L 408.099727 180.423733 
L 408.508967 180.039601 
L 408.713587 180.020181 
L 409.532065 180.816714 
L 410.555164 181.794495 
L 410.964404 181.770993 
L 411.782882 181.331546 
L 412.192122 180.701334 
L 412.805981 179.320408 
L 413.010601 179.267995 
L 413.41984 179.507375 
L 414.647559 179.107841 
L 416.284516 177.904195 
L 416.489136 177.952273 
L 417.102995 177.739309 
L 417.716855 177.828556 
L 417.921474 178.070087 
L 418.739953 179.723502 
L 419.149193 180.068723 
L 419.558432 180.172728 
L 419.967672 180.438807 
L 420.581531 180.622762 
L 420.99077 180.93083 
L 421.19539 180.928816 
L 422.218489 180.339314 
L 423.241587 180.620114 
L 423.650827 180.423188 
L 424.060066 180.511794 
L 424.878545 180.967417 
L 425.287784 181.535141 
L 426.106263 182.873539 
L 426.720122 183.431274 
L 427.538601 183.538893 
L 427.947841 183.777157 
L 428.970939 183.822722 
L 429.584799 183.984433 
L 429.994038 184.328926 
L 430.403278 184.146123 
L 430.607897 183.99364 
L 430.812517 184.037214 
L 431.426376 184.678751 
L 431.835616 184.477391 
L 432.449475 183.903629 
L 432.654095 184.019175 
L 433.267954 184.679345 
L 433.472573 184.648728 
L 434.086433 184.147919 
L 434.495672 184.601546 
L 434.904912 184.950765 
L 435.518771 184.933559 
L 437.155729 187.118899 
L 437.564968 187.399615 
L 437.769588 187.341259 
L 438.178827 186.783412 
L 438.792686 185.746291 
L 438.997306 185.713073 
L 439.611165 186.030458 
L 440.020405 186.135329 
L 440.429644 186.300438 
L 441.043503 186.36703 
L 441.248123 186.439613 
L 441.452743 186.387777 
L 442.066602 185.551798 
L 442.885081 185.491011 
L 443.29432 185.026793 
L 443.90818 184.061916 
L 444.317419 184.056381 
L 445.340518 184.364536 
L 445.954377 184.555134 
L 446.363616 184.624768 
L 446.568236 184.642208 
L 447.182095 185.226224 
L 447.591335 185.199638 
L 448.409814 185.638775 
L 448.819053 185.168274 
L 449.228292 184.760613 
L 449.842152 184.421942 
L 450.251391 184.535791 
L 451.27449 184.149251 
L 451.683729 183.716208 
L 452.092969 183.722095 
L 452.911448 183.78177 
L 453.116067 183.700778 
L 454.548405 182.252577 
L 456.185363 182.844381 
L 456.389983 182.814608 
L 456.799222 182.57008 
L 457.003842 182.629494 
L 457.413082 183.088843 
L 457.617701 183.116109 
L 457.822321 182.906877 
L 459.254659 180.415189 
L 460.686997 179.508777 
L 461.300856 179.731487 
L 461.710096 179.680227 
L 462.528575 180.279467 
L 462.937814 179.970476 
L 463.142434 179.973923 
L 463.551673 180.497307 
L 464.370152 181.962524 
L 464.574772 182.064314 
L 464.779392 181.936329 
L 465.393251 181.129638 
L 466.21173 180.685383 
L 466.620969 180.190775 
L 467.030209 180.252362 
L 468.053307 180.517923 
L 468.462547 180.399122 
L 468.871786 180.786476 
L 469.485645 181.447601 
L 470.099505 181.649523 
L 470.713364 182.249806 
L 471.122603 182.390222 
L 471.736462 182.960197 
L 472.350322 183.70079 
L 472.964181 183.648767 
L 473.37342 183.860344 
L 474.396519 184.498951 
L 474.805758 184.232458 
L 475.010378 184.114744 
L 475.214998 184.153341 
L 476.442716 185.015732 
L 476.851956 185.260893 
L 477.261195 185.416981 
L 477.875054 185.182227 
L 479.307392 185.841532 
L 479.716632 186.071039 
L 480.535111 186.099909 
L 480.94435 186.269446 
L 481.14897 186.188291 
L 481.762829 185.374533 
L 482.990547 185.659526 
L 483.809026 185.537295 
L 484.627505 186.139977 
L 485.036745 186.111723 
L 485.650604 186.569264 
L 486.264463 187.363751 
L 486.878322 187.245848 
L 487.287562 187.018218 
L 487.696801 186.459981 
L 488.106041 185.93931 
L 488.51528 185.872924 
L 488.924519 185.800871 
L 489.333759 185.557637 
L 489.742998 185.712905 
L 490.356858 186.001509 
L 490.970717 186.182376 
L 491.379956 186.627018 
L 491.789196 187.328286 
L 491.993815 187.356526 
L 492.812294 186.644783 
L 493.016914 186.707698 
L 493.426153 187.005631 
L 493.835393 187.115542 
L 494.244632 187.432816 
L 494.653872 187.400481 
L 495.063111 187.409949 
L 495.88159 187.590097 
L 496.495449 187.997659 
L 497.109309 187.970186 
L 497.723168 187.444327 
L 498.132407 187.099694 
L 498.337027 187.36256 
L 498.950886 188.654469 
L 499.360126 188.700594 
L 499.564745 188.718034 
L 500.383224 189.210444 
L 500.792464 188.868238 
L 501.201703 188.814451 
L 502.020182 187.903854 
L 503.043281 187.599634 
L 503.65714 188.362946 
L 503.861759 188.320136 
L 504.475619 187.893934 
L 504.884858 187.682869 
L 505.294098 187.230197 
L 506.112576 187.335003 
L 506.726436 187.753541 
L 507.135675 187.846058 
L 507.340295 187.68763 
L 507.749534 187.163899 
L 507.954154 187.285563 
L 508.568013 188.320127 
L 508.977253 188.533384 
L 509.795732 188.358639 
L 510.409591 187.79872 
L 510.61421 187.906409 
L 511.22807 188.525266 
L 511.637309 188.47919 
L 512.455788 187.906484 
L 512.865027 188.194177 
L 513.069647 188.330476 
L 513.274267 188.228482 
L 513.888126 187.439746 
L 514.501985 187.577604 
L 515.115844 187.441954 
L 515.729704 187.682534 
L 516.138943 187.810375 
L 516.548183 187.911492 
L 517.775901 187.45062 
L 518.38976 187.90943 
L 518.799 188.136065 
L 519.617478 188.007837 
L 520.026718 187.808931 
L 520.640577 188.042354 
L 521.049817 187.844606 
L 521.459056 187.335286 
L 521.868295 186.813986 
L 522.277535 186.698193 
L 522.482155 186.744592 
L 522.891394 187.123653 
L 523.300634 187.095289 
L 524.119112 186.679656 
L 524.528352 186.477482 
L 525.551451 186.446826 
L 525.96069 186.509267 
L 526.369929 186.661769 
L 526.574549 186.563921 
L 526.983789 185.914139 
L 527.393028 185.197556 
L 527.597648 185.084586 
L 528.006887 185.16904 
L 528.211507 185.089238 
L 528.825366 184.42625 
L 529.848465 184.331579 
L 530.462324 184.137387 
L 531.485423 183.767825 
L 531.894662 183.58412 
L 532.713141 182.838659 
L 533.327 183.058565 
L 533.53162 182.857972 
L 533.940859 181.808942 
L 534.759338 179.102846 
L 535.168578 178.683287 
L 535.782437 178.460226 
L 536.191676 177.82998 
L 537.624014 174.884627 
L 538.237874 172.992766 
L 539.465592 170.824829 
L 541.716409 162.753976 
L 545.604184 141.975396 
L 546.627282 135.325566 
L 548.46886 121.780273 
L 553.175114 77.547924 
L 553.379733 76.646801 
L 553.584353 76.292892 
L 553.788973 76.541611 
L 553.993593 77.349557 
L 554.402832 80.410197 
L 555.016691 87.710075 
L 555.63055 97.910579 
L 556.449029 116.041463 
L 557.881367 153.765701 
L 558.495227 190.826685 
L 558.699846 189.740004 
L 559.518325 161.470069 
L 559.722945 159.286169 
L 559.927565 159.338908 
L 560.746044 162.832647 
L 560.950663 162.774844 
L 561.155283 162.214601 
L 561.564522 159.866637 
L 561.973762 156.246473 
L 562.996861 145.647285 
L 563.4061 143.816452 
L 564.224579 141.671294 
L 564.429199 141.783501 
L 564.838438 143.175965 
L 565.452297 145.249748 
L 566.680016 148.599178 
L 567.089255 150.591761 
L 567.703114 153.907657 
L 569.544692 161.078081 
L 570.158551 162.79082 
L 571.18165 166.846996 
L 572.000129 169.475984 
L 572.613988 170.676817 
L 573.023227 171.457513 
L 573.637086 172.775659 
L 574.046326 173.371884 
L 574.455565 174.562745 
L 574.864805 175.827818 
L 575.274044 176.386694 
L 576.501763 177.330098 
L 576.706382 177.71035 
L 576.911002 177.822727 
L 577.320241 177.811976 
L 578.13872 178.582446 
L 579.571058 180.850535 
L 580.184918 181.149617 
L 581.208016 182.686068 
L 581.412636 182.58521 
L 581.821875 182.174508 
L 582.026495 182.203647 
L 582.435735 182.596924 
L 583.049594 182.566731 
L 583.663453 183.01434 
L 584.072692 182.915361 
L 584.481932 183.259926 
L 584.686552 183.234334 
L 585.50503 182.626769 
L 585.91427 182.783052 
L 586.323509 182.966753 
L 586.732749 183.045618 
L 587.141988 183.393783 
L 587.755847 183.396561 
L 588.165087 183.909494 
L 588.778946 184.791448 
L 588.983566 184.821892 
L 589.392805 184.555937 
L 590.006664 184.68957 
L 590.415904 184.399864 
L 591.234383 184.709586 
L 591.643622 184.444449 
L 591.848242 184.31399 
L 592.666721 184.456712 
L 592.871341 184.29351 
L 593.07596 184.299655 
L 593.4852 184.945837 
L 594.099059 186.206188 
L 594.303679 186.366603 
L 594.508298 186.310655 
L 595.122158 185.774292 
L 595.531397 185.730832 
L 595.736017 185.560661 
L 596.349876 184.715243 
L 596.759115 184.74655 
L 597.168355 185.051949 
L 597.577594 185.455389 
L 598.191454 185.651741 
L 598.805313 186.232635 
L 600.237651 186.411958 
L 600.64689 186.330894 
L 600.85151 186.4462 
L 601.260749 187.120846 
L 601.874609 188.281511 
L 602.079228 188.305804 
L 602.488468 187.877831 
L 602.897707 187.411069 
L 603.511566 187.39051 
L 604.534665 186.955428 
L 605.353144 187.636334 
L 605.967003 187.901814 
L 606.785482 187.602375 
L 607.194722 187.466281 
L 608.0132 187.783632 
L 609.240919 187.000753 
L 609.650158 186.933666 
L 610.059398 187.30012 
L 610.468637 187.591954 
L 610.877877 187.563645 
L 611.696356 187.160847 
L 612.514834 187.885917 
L 612.924074 187.941354 
L 613.333313 187.813452 
L 613.947173 188.085346 
L 614.970271 188.904792 
L 615.78875 188.466649 
L 616.402609 188.289353 
L 617.016468 187.948023 
L 617.425708 187.944924 
L 617.834947 188.105363 
L 618.448806 187.85947 
L 619.062666 187.276581 
L 619.471905 186.774724 
L 619.881145 186.65112 
L 620.495004 186.901646 
L 620.904243 186.903402 
L 621.108863 187.121131 
L 621.518102 188.060946 
L 621.927342 189.054753 
L 622.131962 189.203643 
L 622.336581 189.021034 
L 622.95044 187.790143 
L 623.35968 187.94775 
L 623.5643 188.035798 
L 623.973539 187.834045 
L 624.587398 187.299093 
L 624.996638 187.565168 
L 625.405877 187.969704 
L 626.019736 188.70717 
L 626.838215 189.336817 
L 627.042835 189.575006 
L 627.247455 189.584121 
L 628.270553 188.743581 
L 629.498272 189.453257 
L 629.907511 188.975388 
L 630.316751 188.295959 
L 630.52137 188.204292 
L 630.72599 188.416311 
L 631.13523 189.213625 
L 631.339849 189.32128 
L 631.749089 188.920214 
L 632.567568 188.059073 
L 632.772187 188.083919 
L 633.181427 188.366556 
L 633.386047 188.331618 
L 633.999906 187.81711 
L 634.613765 188.079335 
L 635.636864 187.249208 
L 636.455342 187.342944 
L 636.659962 187.367482 
L 637.069202 187.168182 
L 637.273821 187.373113 
L 637.683061 188.208512 
L 637.887681 188.36784 
L 638.50154 188.03837 
L 638.706159 188.255867 
L 639.115399 188.926194 
L 639.320019 189.011654 
L 640.138498 188.734622 
L 640.547737 189.033838 
L 640.956976 188.94057 
L 641.161596 188.930387 
L 642.184695 189.566184 
L 642.798554 189.607813 
L 643.003174 189.626764 
L 643.207793 189.500355 
L 643.821653 188.684616 
L 644.230892 188.34614 
L 644.844751 187.701368 
L 645.253991 187.598854 
L 645.66323 187.627176 
L 646.07247 188.067638 
L 646.481709 188.468652 
L 646.686329 188.409196 
L 647.095568 188.092119 
L 647.709427 188.260175 
L 648.118667 187.860633 
L 648.732526 187.083673 
L 649.551005 186.835132 
L 650.778723 188.274379 
L 651.187963 188.782695 
L 651.801822 188.485284 
L 652.211061 188.735516 
L 652.620301 188.444358 
L 653.02954 188.170163 
L 653.23416 188.234073 
L 653.848019 188.817117 
L 654.052639 188.784681 
L 654.871118 188.129532 
L 655.689597 187.896855 
L 656.098836 188.12042 
L 656.917315 188.71641 
L 657.326555 189.00225 
L 658.554273 189.018394 
L 658.963512 189.074861 
L 659.372752 188.945436 
L 660.191231 188.296261 
L 660.80509 187.799372 
L 661.418949 187.815731 
L 662.237428 187.389591 
L 662.851287 187.157206 
L 663.465146 187.573273 
L 664.079006 188.263153 
L 665.306724 189.565929 
L 665.715963 189.455348 
L 666.125203 189.432158 
L 666.534442 189.516297 
L 667.148301 188.871936 
L 667.557541 189.01582 
L 667.96678 189.187492 
L 668.1714 189.096293 
L 668.989879 188.181675 
L 669.399118 188.363581 
L 669.808358 188.21882 
L 670.626837 187.226306 
L 671.036076 186.682487 
L 671.445316 186.631597 
L 671.649935 186.730971 
L 672.468414 187.498845 
L 672.877654 187.425544 
L 673.696133 187.636679 
L 674.105372 187.548495 
L 674.514612 186.901752 
L 674.923851 186.347854 
L 675.94695 185.661046 
L 677.788527 186.226383 
L 678.197767 186.399038 
L 678.607006 186.239281 
L 679.220865 185.791705 
L 680.039344 185.564814 
L 680.653203 185.179126 
L 683.31326 181.367996 
L 684.540978 180.49211 
L 684.950218 180.12471 
L 685.359457 179.443807 
L 686.791795 176.46697 
L 687.201035 176.034286 
L 687.610274 174.916984 
L 688.224133 173.308365 
L 688.633373 172.529024 
L 689.042612 172.02332 
L 689.861091 170.812335 
L 690.47495 169.92397 
L 690.88419 169.08316 
L 691.498049 166.912006 
L 692.725767 161.763316 
L 694.362725 152.975385 
L 695.795063 142.967274 
L 696.818162 135.966244 
L 697.636641 131.979871 
L 699.068979 127.647261 
L 700.092077 124.892139 
L 701.729035 118.873954 
L 703.570613 109.88027 
L 704.184472 107.494971 
L 704.389092 107.129742 
L 704.593711 107.047253 
L 704.798331 107.17125 
L 705.002951 107.440791 
L 705.207571 107.910402 
L 705.61681 109.736915 
L 707.253768 119.292934 
L 708.890726 127.028109 
L 709.299965 127.930853 
L 709.504585 128.185291 
L 709.709205 128.246632 
L 710.323064 128.06667 
L 710.732303 128.328051 
L 711.141543 128.612287 
L 712.164641 127.560359 
L 712.573881 126.527773 
L 712.98312 125.481225 
L 713.18774 125.35101 
L 713.39236 125.524256 
L 713.801599 126.757152 
L 715.029318 132.368542 
L 715.643177 134.800609 
L 716.257036 136.018073 
L 716.461656 136.18079 
L 717.280135 136.028339 
L 717.893994 136.385081 
L 718.098613 136.206258 
L 718.917092 134.516175 
L 719.940191 132.513052 
L 720.55405 130.454624 
L 720.75867 130.120788 
L 720.96329 130.076604 
L 721.577149 130.305112 
L 721.986388 130.137641 
L 722.191008 130.320115 
L 722.600247 130.995614 
L 723.009487 131.266347 
L 723.214107 131.314653 
L 723.418726 131.143748 
L 723.827966 130.237864 
L 724.646445 127.794986 
L 725.260304 125.254975 
L 726.897262 117.023845 
L 727.511121 113.004863 
L 728.943459 100.781727 
L 730.785037 82.432484 
L 731.398896 74.047917 
L 732.831234 51.48167 
L 733.445093 45.95078 
L 734.058952 37.893638 
L 735.082051 20.154946 
L 736.378268 -1 
M 740.048298 -1 
L 740.606783 9.411351 
L 744.289938 88.664501 
L 745.313037 105.487097 
L 746.131516 116.412464 
L 746.949995 124.547387 
L 747.563854 128.456013 
L 749.200812 135.274259 
L 750.223911 139.17463 
L 752.065488 149.003594 
L 752.474728 149.857539 
L 752.883967 150.579053 
L 753.293206 151.706933 
L 753.907066 153.714292 
L 754.316305 154.319228 
L 754.520925 154.479764 
L 754.725545 154.459291 
L 755.134784 153.903815 
L 755.544023 152.741386 
L 756.157883 149.176743 
L 756.567122 146.013327 
L 757.99946 131.938942 
L 758.20408 131.353248 
L 758.4087 131.396238 
L 758.613319 132.103204 
L 759.022559 135.03609 
L 759.636418 139.556971 
L 760.045657 141.652406 
L 760.454897 142.997346 
L 760.864136 143.575414 
L 761.273376 143.600643 
L 761.887235 143.276327 
L 762.501094 143.390621 
L 762.910334 143.829523 
L 763.319573 144.387815 
L 763.524193 144.316784 
L 763.728813 143.784327 
L 764.342672 140.984416 
L 764.751911 138.36916 
L 765.36577 132.642555 
L 766.184249 125.243099 
L 766.388869 124.617545 
L 766.593489 124.812058 
L 766.798108 125.705814 
L 767.411968 130.513613 
L 768.230447 136.837302 
L 768.639686 138.182594 
L 768.844306 138.174503 
L 769.048925 137.819364 
L 769.662785 135.679584 
L 770.685883 131.991865 
L 770.890503 131.450147 
L 771.095123 131.228623 
L 771.299742 131.391549 
L 771.708982 132.579071 
L 773.14132 138.153257 
L 773.755179 139.18487 
L 774.164419 139.5716 
L 774.369038 139.983677 
L 774.778278 141.807813 
L 775.801376 147.253797 
L 776.210616 148.369138 
L 776.415236 148.351468 
L 776.824475 147.271749 
L 777.438334 144.660593 
L 779.075292 134.9559 
L 779.279912 134.911352 
L 779.484531 135.442254 
L 779.893771 137.808958 
L 780.50763 143.245384 
L 781.326109 150.889857 
L 782.553827 158.846951 
L 783.576926 163.766011 
L 783.986165 164.943992 
L 784.190785 165.157899 
L 784.395405 165.100697 
L 785.213884 164.415799 
L 785.827743 164.206263 
L 787.464701 161.916934 
L 787.669321 161.816422 
L 787.87394 161.910099 
L 788.28318 162.934684 
L 789.510898 167.896455 
L 790.124757 170.068353 
L 790.943236 172.018501 
L 791.557095 173.428782 
L 791.966335 174.65089 
L 792.580194 175.486387 
L 792.784814 175.583589 
L 793.398673 175.483647 
L 793.603293 175.677077 
L 794.012532 176.550386 
L 794.626391 178.080102 
L 795.035631 178.44326 
L 795.64949 178.503887 
L 796.467969 179.760331 
L 796.877208 179.403191 
L 797.695687 178.707886 
L 798.309546 178.445358 
L 798.718786 178.386294 
L 799.741884 178.704307 
L 800.151124 179.09236 
L 800.764983 179.117274 
L 801.378842 179.987946 
L 801.992701 180.170625 
L 802.401941 180.174689 
L 803.22042 180.555166 
L 803.629659 180.433206 
L 804.038899 180.538967 
L 804.448138 180.58204 
L 804.857378 180.824124 
L 805.061997 180.73326 
L 805.471237 180.082884 
L 805.880476 179.537897 
L 806.289716 179.647774 
L 806.698955 179.867966 
L 807.108195 179.961794 
L 807.517434 180.122766 
L 808.745152 180.109497 
L 809.972871 180.605402 
L 810.38211 180.528763 
L 811.200589 180.784779 
L 811.405209 180.668349 
L 812.019068 179.736493 
L 812.223688 179.715461 
L 812.837547 180.349899 
L 813.246786 180.938188 
L 813.860646 182.046424 
L 814.065265 182.132089 
L 814.474505 181.654861 
L 815.088364 180.923934 
L 815.497603 180.78628 
L 816.316082 179.733633 
L 816.520702 179.636161 
L 817.339181 178.634393 
L 817.74842 178.683616 
L 818.15766 179.189469 
L 818.771519 180.002249 
L 819.180758 180.128702 
L 819.589998 180.275824 
L 819.999237 180.576878 
L 820.408477 180.5701 
L 821.022336 180.23256 
L 821.431575 179.914275 
L 821.636195 179.940867 
L 822.045435 180.510605 
L 822.454674 181.057934 
L 822.659294 180.993943 
L 823.068533 180.556553 
L 823.273153 180.510914 
L 824.091632 180.922681 
L 824.500871 180.905613 
L 824.910111 180.581468 
L 825.114731 180.409728 
L 825.31935 180.403713 
L 825.72859 180.750747 
L 826.137829 181.203652 
L 826.342449 181.215516 
L 826.751688 180.855078 
L 827.365548 180.246915 
L 828.184026 180.468217 
L 828.388646 180.522976 
L 829.616365 180.178837 
L 830.025604 180.430148 
L 830.639463 181.199559 
L 830.844083 180.968139 
L 831.457942 179.789785 
L 831.662562 179.827924 
L 832.071801 180.094447 
L 832.481041 180.202079 
L 832.68566 180.286829 
L 832.89028 180.20929 
L 833.913379 178.809598 
L 834.117999 178.748651 
L 834.322618 178.812784 
L 834.731858 179.280969 
L 835.141097 179.722364 
L 835.754956 179.845614 
L 835.959576 179.700451 
L 836.573435 178.442188 
L 837.801154 175.467352 
L 838.415013 173.414556 
L 839.028872 169.872805 
L 839.642731 164.948765 
L 840.25659 158.102133 
L 840.87045 151.547234 
L 841.075069 150.475868 
L 841.279689 150.160087 
L 841.484309 150.48352 
L 841.688928 151.369566 
L 842.098168 154.838963 
L 842.916647 163.306474 
L 843.530506 167.486194 
L 843.939745 168.871487 
L 844.348985 169.729093 
L 844.758224 170.192387 
L 844.962844 170.133702 
L 845.372084 169.301656 
L 845.781323 168.182578 
L 846.599802 164.676193 
L 847.009041 161.955731 
L 847.418281 158.356689 
L 847.82752 152.817616 
L 849.259858 128.355092 
L 849.464478 128.084144 
L 849.669098 129.226412 
L 850.078337 134.689413 
L 851.510675 157.419978 
L 852.124534 162.429379 
L 852.738394 165.091565 
L 853.147633 166.067818 
L 853.556873 166.518655 
L 853.761492 166.483418 
L 854.170732 165.908111 
L 854.784591 164.676022 
L 855.19383 163.230045 
L 855.60307 160.595619 
L 856.626168 151.161256 
L 857.240028 145.881469 
L 857.649267 144.037267 
L 857.853887 143.690592 
L 858.058507 143.777285 
L 858.263126 144.337752 
L 858.876985 147.589849 
L 859.695464 152.832717 
L 860.923183 161.513373 
L 861.741662 164.938773 
L 862.150901 165.796009 
L 862.76476 166.548432 
L 862.96938 166.651327 
L 863.174 166.607131 
L 863.583239 166.08807 
L 863.992479 165.413645 
L 864.401718 164.238471 
L 864.810958 162.460052 
L 865.424817 158.136347 
L 867.471014 141.762389 
L 867.675634 141.452057 
L 867.880253 141.869428 
L 868.289493 144.285004 
L 870.54031 162.15309 
L 871.154169 165.486899 
L 871.563409 166.289462 
L 872.177268 166.770978 
L 872.586507 166.804522 
L 873.200366 166.783158 
L 873.404986 166.591866 
L 873.814226 165.434415 
L 874.428085 163.391941 
L 875.246564 161.326208 
L 875.451183 161.183009 
L 875.860423 161.330329 
L 876.269662 161.681462 
L 876.678902 162.091638 
L 877.088141 162.113264 
L 877.497381 161.733533 
L 877.702 161.734257 
L 878.520479 162.889267 
L 878.929719 164.191571 
L 879.543578 167.487866 
L 880.566677 173.693393 
L 880.771296 174.139733 
L 881.180536 174.264599 
L 881.589775 174.368004 
L 882.817494 175.083485 
L 883.840592 174.096243 
L 884.045212 174.03824 
L 884.249832 174.140944 
L 884.659071 174.866956 
L 885.27293 176.128987 
L 886.296029 177.202915 
L 886.500649 177.155416 
L 886.705268 176.96487 
L 887.114508 176.158669 
L 887.319127 176.037818 
L 888.342226 176.663635 
L 888.956085 177.742933 
L 889.365325 178.452176 
L 889.774564 178.72385 
L 889.979184 178.803491 
L 890.183804 178.752698 
L 890.593043 178.37737 
L 890.797663 178.374027 
L 891.616142 179.216849 
L 892.025381 179.279814 
L 892.230001 179.364213 
L 892.434621 179.261537 
L 893.04848 178.366869 
L 893.457719 178.137468 
L 894.276198 178.213098 
L 894.685438 178.088269 
L 895.094677 177.596421 
L 895.503917 177.113907 
L 896.117776 176.87791 
L 896.322395 176.695114 
L 896.527015 176.666725 
L 896.936255 176.83377 
L 897.345494 176.693571 
L 897.959353 176.329561 
L 898.368593 176.245047 
L 898.982452 175.650848 
L 899.596311 175.138411 
L 900.005551 174.875573 
L 901.233269 172.796951 
L 901.847128 171.529739 
L 902.870227 169.929414 
L 903.484086 169.447134 
L 903.893325 168.697724 
L 904.507185 166.82575 
L 905.121044 163.89052 
L 905.734903 160.958437 
L 906.144142 159.022906 
L 906.553382 155.195923 
L 907.371861 146.228756 
L 907.57648 147.073534 
L 908.19034 152.684524 
L 908.599579 154.491604 
L 908.804199 154.813662 
L 909.008819 154.702317 
L 909.418058 153.862457 
L 910.236537 151.787019 
L 910.645776 151.489306 
L 910.850396 151.000388 
L 911.464255 148.072401 
L 912.282734 143.727153 
L 913.101213 139.470523 
L 913.715072 137.366082 
L 914.533551 132.804186 
L 915.76127 125.07884 
L 917.602847 111.623754 
L 917.807467 111.019833 
L 918.012087 110.766629 
L 918.216706 110.894313 
L 918.421326 111.419067 
L 918.830565 113.489608 
L 919.239805 116.852753 
L 920.058284 127.202551 
L 921.286002 145.556966 
L 921.490622 146.820778 
L 921.695242 145.685039 
L 921.899861 140.833518 
L 922.309101 118.493781 
L 922.513721 107.114769 
L 922.71834 102.849635 
L 922.92296 104.673338 
L 923.332199 110.619852 
L 923.741439 113.670949 
L 923.946059 113.87063 
L 924.559918 113.192388 
L 924.764537 113.37024 
L 924.969157 113.825247 
L 925.378397 115.494706 
L 925.787636 118.009236 
L 926.810735 126.645544 
L 928.447693 143.668866 
L 929.675411 153.66049 
L 930.28927 157.223387 
L 931.721608 164.396613 
L 933.563186 169.850447 
L 934.177045 171.512333 
L 934.586284 172.529948 
L 935.200144 174.295593 
L 936.632482 177.323633 
L 937.041721 177.489573 
L 937.450961 178.041179 
L 938.269439 179.577004 
L 938.883299 180.225985 
L 939.292538 180.615001 
L 939.906397 180.489511 
L 940.315637 180.752307 
L 940.929496 181.410808 
L 941.543355 181.783021 
L 942.975693 181.95839 
L 943.180313 181.950001 
L 943.384933 182.08326 
L 943.998792 182.784365 
L 944.203412 182.753702 
L 945.02189 182.006213 
L 945.43113 182.000265 
L 945.840369 181.881323 
L 947.477327 182.066218 
L 948.500426 181.64228 
L 948.909665 182.007113 
L 949.523524 182.632 
L 950.137384 183.030176 
L 950.546623 183.223994 
L 951.978961 182.547389 
L 952.388201 182.303636 
L 953.20668 182.241297 
L 954.025158 181.513645 
L 954.434398 181.618363 
L 954.639018 181.676737 
L 954.843637 181.554539 
L 955.252877 180.835991 
L 956.071356 179.056975 
L 956.685215 178.823745 
L 958.117553 177.274383 
L 958.322173 177.244814 
L 958.731412 177.584957 
L 960.57299 179.875692 
L 961.186849 180.87106 
L 961.596088 180.995252 
L 962.005328 180.908768 
L 962.414567 180.276452 
L 963.233046 178.301084 
L 964.256145 175.3409 
L 964.870004 174.795877 
L 965.279243 174.286024 
L 965.688483 173.2919 
L 966.097722 171.633785 
L 967.120821 166.372192 
L 967.325441 166.630306 
L 967.9393 169.908957 
L 968.962398 175.267564 
L 969.371638 176.333201 
L 969.985497 177.163078 
L 970.394737 177.376227 
L 971.213215 177.296859 
L 971.827075 177.456864 
L 972.031694 177.406499 
L 972.645554 176.698959 
L 973.054793 175.854799 
L 973.259413 175.745223 
L 973.873272 176.408869 
L 974.282511 175.955284 
L 975.10099 174.936396 
L 975.51023 174.792187 
L 975.714849 174.720962 
L 975.919469 174.446994 
L 977.147188 171.772473 
L 977.556427 171.194154 
L 977.761047 171.089669 
L 977.965666 171.187825 
L 978.374906 172.031977 
L 978.784145 173.066727 
L 978.988765 173.219806 
L 979.602624 173.230996 
L 980.011864 173.296512 
L 980.625723 172.784206 
L 981.034962 172.352396 
L 981.239582 172.333312 
L 981.853441 172.795202 
L 982.058061 172.871196 
L 982.262681 172.818648 
L 982.67192 172.271247 
L 983.899639 169.73728 
L 984.513498 168.688446 
L 985.331977 166.846356 
L 985.945836 165.412306 
L 986.764315 163.498937 
L 986.968934 163.363393 
L 987.378174 163.35954 
L 987.582794 163.115447 
L 987.992033 161.781013 
L 988.605892 159.767758 
L 989.015132 159.19107 
L 989.424371 158.759402 
L 989.833611 157.91072 
L 991.265949 153.41935 
L 992.084428 149.602652 
L 994.130625 137.481494 
L 995.562963 131.023882 
L 996.381442 125.703175 
L 996.995301 122.150465 
L 998.0184 117.208241 
L 1000.883076 100.501332 
L 1001.701555 95.122146 
L 1002.315414 91.354641 
L 1003.543132 81.845711 
L 1004.156991 74.986625 
L 1004.97547 63.277666 
L 1006.203189 46.135147 
L 1006.817048 40.008988 
L 1007.226287 37.529895 
L 1007.840147 35.565664 
L 1008.249386 34.755237 
L 1008.658625 34.148784 
L 1009.272485 32.599519 
L 1009.477104 32.482606 
L 1009.681724 33.47445 
L 1009.886344 36.648527 
L 1010.295583 51.474302 
L 1011.114062 87.579045 
L 1011.523302 96.618612 
L 1011.932541 100.863681 
L 1012.137161 101.91274 
L 1012.341781 102.315356 
L 1012.5464 102.07556 
L 1012.95564 100.303119 
L 1013.978738 95.447628 
L 1014.592598 92.969996 
L 1015.001837 92.179101 
L 1015.206457 92.297485 
L 1015.615696 93.42998 
L 1016.229555 96.62236 
L 1016.638795 99.501261 
L 1017.252654 105.639676 
L 1017.866513 114.423523 
L 1018.889612 131.432246 
L 1019.094232 132.674208 
L 1019.298851 132.948444 
L 1019.503471 132.464147 
L 1020.935809 126.129812 
L 1021.549668 124.997584 
L 1021.754288 125.038399 
L 1022.163527 125.69871 
L 1022.572767 127.132037 
L 1023.391246 131.165009 
L 1025.437443 143.676798 
L 1027.48364 153.016981 
L 1028.506739 157.290049 
L 1029.529838 161.263403 
L 1030.552936 164.077981 
L 1031.371415 164.928249 
L 1031.985274 165.716672 
L 1032.394514 166.337165 
L 1032.803753 167.537668 
L 1033.417612 170.34353 
L 1034.440711 175.579453 
L 1035.668429 178.856759 
L 1036.486908 181.134577 
L 1036.896148 182.145457 
L 1037.305387 182.597946 
L 1037.510007 182.459822 
L 1038.123866 181.636172 
L 1038.328486 181.638682 
L 1038.737725 181.912437 
L 1039.351585 182.649872 
L 1039.556204 182.683309 
L 1039.760824 182.575467 
L 1039.965444 182.326774 
L 1040.374683 181.071026 
L 1041.397782 176.718554 
L 1041.602401 176.655342 
L 1041.807021 177.063798 
L 1042.42088 179.328393 
L 1043.853218 185.287213 
L 1044.876317 187.133609 
L 1045.899416 187.781512 
L 1046.308655 187.987741 
L 1046.717895 188.181784 
L 1047.127134 188.191836 
L 1048.764092 188.971586 
L 1048.968712 189.017783 
L 1049.377951 188.775429 
L 1049.99181 188.206582 
L 1050.605669 187.806497 
L 1051.219529 187.287203 
L 1051.628768 186.975769 
L 1052.038008 187.38468 
L 1052.856486 188.265891 
L 1053.061106 188.244198 
L 1054.288825 187.545882 
L 1054.698064 187.42844 
L 1055.311923 187.915506 
L 1056.130402 188.703352 
L 1056.539642 188.755823 
L 1057.153501 188.270632 
L 1057.56274 188.335768 
L 1058.381219 189.143157 
L 1058.790459 189.307031 
L 1059.608937 189.842597 
L 1059.813557 189.747639 
L 1060.427416 189.05187 
L 1060.836656 188.775976 
L 1061.655135 188.555565 
L 1062.064374 188.653027 
L 1062.678233 188.976207 
L 1063.701332 189.114723 
L 1064.110571 188.960552 
L 1064.519811 189.121076 
L 1064.92905 189.422026 
L 1065.13367 189.415637 
L 1065.54291 189.117357 
L 1065.952149 188.651868 
L 1066.156769 188.567412 
L 1066.975248 188.839404 
L 1067.589107 189.189716 
L 1068.612205 189.041586 
L 1069.226065 188.812085 
L 1070.044544 189.629306 
L 1070.249163 189.57298 
L 1071.067642 188.770997 
L 1071.272262 188.79733 
L 1071.886121 189.382647 
L 1072.49998 189.560586 
L 1073.318459 190.744519 
L 1074.136938 191.046324 
L 1075.364656 190.241487 
L 1075.978516 189.438129 
L 1076.387755 189.255897 
L 1077.206234 188.574707 
L 1077.615473 188.55025 
L 1078.229333 188.282255 
L 1078.638572 188.232538 
L 1079.047811 188.20361 
L 1079.457051 188.471592 
L 1080.07091 189.062764 
L 1080.48015 189.1731 
L 1081.503248 189.062453 
L 1081.912488 189.325219 
L 1082.117107 189.46794 
L 1082.321727 189.398114 
L 1082.730967 188.992696 
L 1082.935586 189.041128 
L 1083.549445 189.54352 
L 1084.163305 189.549265 
L 1084.367924 189.475582 
L 1084.981784 189.013187 
L 1085.595643 189.23333 
L 1086.004882 188.70898 
L 1086.414122 188.377243 
L 1086.823361 188.314777 
L 1087.027981 188.246438 
L 1087.232601 188.301729 
L 1088.051079 189.080676 
L 1088.460319 189.053586 
L 1089.278798 189.370558 
L 1089.892657 189.08441 
L 1090.301896 189.38692 
L 1090.711136 189.563531 
L 1091.120375 189.627433 
L 1091.734235 189.99391 
L 1092.348094 189.510543 
L 1092.961953 189.578495 
L 1093.371192 190.024674 
L 1093.780432 190.464989 
L 1094.189671 190.610505 
L 1094.598911 190.240681 
L 1094.80353 190.05307 
L 1095.00815 190.027212 
L 1095.826629 190.501493 
L 1096.235869 190.733041 
L 1097.258967 190.379827 
L 1097.668207 190.415736 
L 1098.077446 190.132441 
L 1098.486686 189.893197 
L 1099.714404 190.102987 
L 1099.919024 190.143635 
L 1100.532883 189.870132 
L 1100.942122 190.005691 
L 1101.351362 190.269359 
L 1101.760601 190.234022 
L 1102.169841 190.128885 
L 1102.98832 190.256389 
L 1103.397559 189.972503 
L 1104.216038 188.564324 
L 1104.625277 188.331317 
L 1105.034517 188.614078 
L 1105.443756 188.872384 
L 1106.057615 189.086949 
L 1106.466855 189.090513 
L 1107.080714 188.667277 
L 1108.103813 188.770668 
L 1108.513052 188.950558 
L 1108.922292 188.967346 
L 1109.94539 189.771438 
L 1110.35463 189.821691 
L 1111.173109 189.700806 
L 1111.582348 189.501901 
L 1112.196207 189.271484 
L 1112.605447 189.106562 
L 1113.219306 189.639152 
L 1113.833165 189.211651 
L 1114.856264 189.789941 
L 1115.879362 189.854232 
L 1117.107081 189.114554 
L 1117.51632 189.020677 
L 1117.92556 188.712531 
L 1118.334799 188.791383 
L 1119.153278 189.422712 
L 1119.767137 189.502872 
L 1120.380996 190.040453 
L 1120.994855 190.480799 
L 1121.404095 190.46217 
L 1121.813334 190.072402 
L 1122.222574 189.497929 
L 1122.427194 189.374148 
L 1122.631813 189.407931 
L 1123.041053 189.781817 
L 1123.859532 190.773056 
L 1124.473391 190.617864 
L 1124.88263 190.753528 
L 1125.29187 190.478837 
L 1125.701109 190.620531 
L 1125.905729 190.681121 
L 1126.110349 190.589996 
L 1126.928828 189.572929 
L 1127.338067 189.568176 
L 1127.747306 189.213353 
L 1128.156546 188.722528 
L 1128.565785 188.58104 
L 1129.998123 188.795581 
L 1130.407363 188.718421 
L 1130.611983 188.866955 
L 1131.225842 189.751123 
L 1131.430462 189.661403 
L 1131.839701 189.218769 
L 1132.044321 189.274643 
L 1132.65818 190.146982 
L 1132.8628 190.142569 
L 1133.272039 189.627558 
L 1133.885898 188.800159 
L 1134.295138 188.690231 
L 1134.704377 188.362494 
L 1135.113617 188.47747 
L 1136.136715 189.257856 
L 1136.545955 189.314675 
L 1137.159814 189.151361 
L 1137.569053 189.357085 
L 1137.978293 189.631158 
L 1138.387532 189.455361 
L 1139.001391 189.128364 
L 1139.206011 189.177387 
L 1140.02449 189.799618 
L 1140.43373 189.725141 
L 1141.047589 189.435041 
L 1141.456828 189.333982 
L 1141.866068 188.916078 
L 1142.070687 188.680867 
L 1142.275307 188.633512 
L 1142.684547 188.93988 
L 1144.935364 189.270112 
L 1145.344603 189.685553 
L 1145.753842 190.004568 
L 1145.958462 189.943953 
L 1146.572321 189.434984 
L 1146.776941 189.450671 
L 1147.186181 189.642274 
L 1147.59542 189.227047 
L 1148.413899 188.442214 
L 1148.823138 188.492106 
L 1149.027758 188.464567 
L 1149.436998 188.795256 
L 1149.846237 189.212509 
L 1150.050857 189.262193 
L 1150.460096 188.73102 
L 1150.664716 188.496697 
L 1150.869336 188.441205 
L 1151.278575 188.845816 
L 1152.506293 190.022904 
L 1152.915533 190.151059 
L 1153.529392 190.694703 
L 1154.347871 190.783698 
L 1154.75711 190.571129 
L 1155.780209 189.241205 
L 1156.189448 188.86375 
L 1156.598688 188.44514 
L 1157.007927 188.583232 
L 1157.621787 189.080086 
L 1158.235646 189.077404 
L 1158.644885 189.861636 
L 1159.054125 190.577509 
L 1159.463364 190.865908 
L 1159.872604 191.430705 
L 1160.077223 191.382715 
L 1160.486463 190.60129 
L 1161.100322 189.300696 
L 1161.304942 189.078337 
L 1162.53266 188.822524 
L 1162.941899 189.057665 
L 1163.351139 189.332655 
L 1163.964998 189.58223 
L 1164.374238 189.842052 
L 1164.578857 189.834981 
L 1165.806576 189.013746 
L 1166.215815 188.994962 
L 1166.829674 189.318364 
L 1167.443533 188.899997 
L 1167.852773 189.32517 
L 1168.262012 189.602266 
L 1168.671252 189.90842 
L 1169.080491 190.151488 
L 1169.489731 189.996655 
L 1170.10359 189.602042 
L 1170.922069 188.592884 
L 1171.126689 188.521514 
L 1171.535928 188.728029 
L 1171.945167 189.146006 
L 1172.968266 190.440307 
L 1173.377506 190.641231 
L 1174.195984 190.333891 
L 1174.605224 190.555789 
L 1175.014463 190.293988 
L 1175.423703 190.068815 
L 1176.037562 189.976818 
L 1178.083759 189.303581 
L 1178.492999 189.355822 
L 1179.106858 189.51137 
L 1180.334576 189.464253 
L 1180.539196 189.379353 
L 1180.743816 189.439353 
L 1181.153055 189.814208 
L 1181.357675 189.77408 
L 1181.766914 189.102373 
L 1181.971534 188.775818 
L 1182.176154 188.775787 
L 1182.790013 189.788602 
L 1182.994633 189.748925 
L 1183.403872 189.335037 
L 1183.813112 188.89902 
L 1184.222351 189.111736 
L 1184.631591 189.33483 
L 1184.83621 189.34197 
L 1184.83621 189.34197 
" clip-path="url(#p4ee8d740cc)" style="fill: none; stroke: #000000; stroke-width: 2; stroke-linecap: square"/>
   </g>
   <g id="patch_3">
    <path d="M 3.00024 198.907885 
L 1184.99976 198.907885 
" style="fill: none; stroke: #000000; stroke-width: 2; stroke-linejoin: miter; stroke-linecap: square"/>
   </g>
  </g>
 </g>
 <defs>
  <clipPath id="p4ee8d740cc">
   <rect x="3.00024" y="3.00024" width="1181.99952" height="195.907645"/>
  </clipPath>
 </defs>
</svg>
