<?xml version="1.0" encoding="utf-8" standalone="no"?>
<!DOCTYPE svg PUBLIC "-//W3C//DTD SVG 1.1//EN"
  "http://www.w3.org/Graphics/SVG/1.1/DTD/svg11.dtd">
<svg xmlns:xlink="http://www.w3.org/1999/xlink" width="1188pt" height="252pt" viewBox="0 0 1188 252" xmlns="http://www.w3.org/2000/svg" version="1.1">
 <metadata>
  <rdf:RDF xmlns:dc="http://purl.org/dc/elements/1.1/" xmlns:cc="http://creativecommons.org/ns#" xmlns:rdf="http://www.w3.org/1999/02/22-rdf-syntax-ns#">
   <cc:Work>
    <dc:type rdf:resource="http://purl.org/dc/dcmitype/StillImage"/>
    <dc:date>2024-05-14T23:08:09.509772</dc:date>
    <dc:format>image/svg+xml</dc:format>
    <dc:creator>
     <cc:Agent>
      <dc:title>Matplotlib v3.8.0, https://matplotlib.org/</dc:title>
     </cc:Agent>
    </dc:creator>
   </cc:Work>
  </rdf:RDF>
 </metadata>
 <defs>
  <style type="text/css">*{stroke-linejoin: round; stroke-linecap: butt}</style>
 </defs>
 <g id="figure_1">
  <g id="patch_1">
   <path d="M 0 252 
L 1188 252 
L 1188 0 
L 0 0 
z
" style="fill: #ffffff"/>
  </g>
  <g id="axes_1">
   <g id="patch_2">
    <path d="M 3.00024 198.907885 
L 1184.99976 198.907885 
L 1184.99976 3.00024 
L 3.00024 3.00024 
z
" style="fill: #ffffff"/>
   </g>
   <g id="matplotlib.axis_1">
    <g id="xtick_1">
     <g id="line2d_1">
      <defs>
       <path id="m24ce53676a" d="M 0 0 
L 0 8 
" style="stroke: #000000; stroke-width: 2"/>
      </defs>
      <g>
       <use xlink:href="#m24ce53676a" x="1131.272509" y="198.907885" style="stroke: #000000; stroke-width: 2"/>
      </g>
     </g>
     <g id="text_1">
      <!-- 0 -->
      <g transform="translate(1126.267665 224.791947) scale(0.18 -0.18)">
       <defs>
        <path id="Arial-BoldMT-30" d="M 1756 4600 
Q 2422 4600 2797 4125 
Q 3244 3563 3244 2259 
Q 3244 959 2794 391 
Q 2422 -78 1756 -78 
Q 1088 -78 678 436 
Q 269 950 269 2269 
Q 269 3563 719 4131 
Q 1091 4600 1756 4600 
z
M 1756 3872 
Q 1597 3872 1472 3770 
Q 1347 3669 1278 3406 
Q 1188 3066 1188 2259 
Q 1188 1453 1269 1151 
Q 1350 850 1473 750 
Q 1597 650 1756 650 
Q 1916 650 2041 751 
Q 2166 853 2234 1116 
Q 2325 1453 2325 2259 
Q 2325 3066 2244 3367 
Q 2163 3669 2039 3770 
Q 1916 3872 1756 3872 
z
" transform="scale(0.015625)"/>
       </defs>
       <use xlink:href="#Arial-BoldMT-30"/>
      </g>
     </g>
    </g>
    <g id="xtick_2">
     <g id="line2d_2">
      <g>
       <use xlink:href="#m24ce53676a" x="1023.818007" y="198.907885" style="stroke: #000000; stroke-width: 2"/>
      </g>
     </g>
     <g id="text_2">
      <!-- 1 -->
      <g transform="translate(1018.813164 224.791947) scale(0.18 -0.18)">
       <defs>
        <path id="Arial-BoldMT-31" d="M 2519 0 
L 1641 0 
L 1641 3309 
Q 1159 2859 506 2644 
L 506 3441 
Q 850 3553 1253 3867 
Q 1656 4181 1806 4600 
L 2519 4600 
L 2519 0 
z
" transform="scale(0.015625)"/>
       </defs>
       <use xlink:href="#Arial-BoldMT-31"/>
      </g>
     </g>
    </g>
    <g id="xtick_3">
     <g id="line2d_3">
      <g>
       <use xlink:href="#m24ce53676a" x="916.363505" y="198.907885" style="stroke: #000000; stroke-width: 2"/>
      </g>
     </g>
     <g id="text_3">
      <!-- 2 -->
      <g transform="translate(911.358662 224.791947) scale(0.18 -0.18)">
       <defs>
        <path id="Arial-BoldMT-32" d="M 3238 816 
L 3238 0 
L 159 0 
Q 209 463 459 877 
Q 709 1291 1447 1975 
Q 2041 2528 2175 2725 
Q 2356 2997 2356 3263 
Q 2356 3556 2198 3714 
Q 2041 3872 1763 3872 
Q 1488 3872 1325 3706 
Q 1163 3541 1138 3156 
L 263 3244 
Q 341 3969 753 4284 
Q 1166 4600 1784 4600 
Q 2463 4600 2850 4234 
Q 3238 3869 3238 3325 
Q 3238 3016 3127 2736 
Q 3016 2456 2775 2150 
Q 2616 1947 2200 1565 
Q 1784 1184 1673 1059 
Q 1563 934 1494 816 
L 3238 816 
z
" transform="scale(0.015625)"/>
       </defs>
       <use xlink:href="#Arial-BoldMT-32"/>
      </g>
     </g>
    </g>
    <g id="xtick_4">
     <g id="line2d_4">
      <g>
       <use xlink:href="#m24ce53676a" x="808.909004" y="198.907885" style="stroke: #000000; stroke-width: 2"/>
      </g>
     </g>
     <g id="text_4">
      <!-- 3 -->
      <g transform="translate(803.90416 224.791947) scale(0.18 -0.18)">
       <defs>
        <path id="Arial-BoldMT-33" d="M 241 1216 
L 1091 1319 
Q 1131 994 1309 822 
Q 1488 650 1741 650 
Q 2013 650 2198 856 
Q 2384 1063 2384 1413 
Q 2384 1744 2206 1937 
Q 2028 2131 1772 2131 
Q 1603 2131 1369 2066 
L 1466 2781 
Q 1822 2772 2009 2936 
Q 2197 3100 2197 3372 
Q 2197 3603 2059 3740 
Q 1922 3878 1694 3878 
Q 1469 3878 1309 3722 
Q 1150 3566 1116 3266 
L 306 3403 
Q 391 3819 561 4067 
Q 731 4316 1036 4458 
Q 1341 4600 1719 4600 
Q 2366 4600 2756 4188 
Q 3078 3850 3078 3425 
Q 3078 2822 2419 2463 
Q 2813 2378 3048 2084 
Q 3284 1791 3284 1375 
Q 3284 772 2843 347 
Q 2403 -78 1747 -78 
Q 1125 -78 715 280 
Q 306 638 241 1216 
z
" transform="scale(0.015625)"/>
       </defs>
       <use xlink:href="#Arial-BoldMT-33"/>
      </g>
     </g>
    </g>
    <g id="xtick_5">
     <g id="line2d_5">
      <g>
       <use xlink:href="#m24ce53676a" x="701.454502" y="198.907885" style="stroke: #000000; stroke-width: 2"/>
      </g>
     </g>
     <g id="text_5">
      <!-- 4 -->
      <g transform="translate(696.449658 224.791947) scale(0.18 -0.18)">
       <defs>
        <path id="Arial-BoldMT-34" d="M 1994 0 
L 1994 922 
L 119 922 
L 119 1691 
L 2106 4600 
L 2844 4600 
L 2844 1694 
L 3413 1694 
L 3413 922 
L 2844 922 
L 2844 0 
L 1994 0 
z
M 1994 1694 
L 1994 3259 
L 941 1694 
L 1994 1694 
z
" transform="scale(0.015625)"/>
       </defs>
       <use xlink:href="#Arial-BoldMT-34"/>
      </g>
     </g>
    </g>
    <g id="xtick_6">
     <g id="line2d_6">
      <g>
       <use xlink:href="#m24ce53676a" x="594" y="198.907885" style="stroke: #000000; stroke-width: 2"/>
      </g>
     </g>
     <g id="text_6">
      <!-- 5 -->
      <g transform="translate(588.995156 224.791947) scale(0.18 -0.18)">
       <defs>
        <path id="Arial-BoldMT-35" d="M 284 1178 
L 1159 1269 
Q 1197 972 1381 798 
Q 1566 625 1806 625 
Q 2081 625 2272 848 
Q 2463 1072 2463 1522 
Q 2463 1944 2273 2155 
Q 2084 2366 1781 2366 
Q 1403 2366 1103 2031 
L 391 2134 
L 841 4519 
L 3163 4519 
L 3163 3697 
L 1506 3697 
L 1369 2919 
Q 1663 3066 1969 3066 
Q 2553 3066 2959 2641 
Q 3366 2216 3366 1538 
Q 3366 972 3038 528 
Q 2591 -78 1797 -78 
Q 1163 -78 763 262 
Q 363 603 284 1178 
z
" transform="scale(0.015625)"/>
       </defs>
       <use xlink:href="#Arial-BoldMT-35"/>
      </g>
     </g>
    </g>
    <g id="xtick_7">
     <g id="line2d_7">
      <g>
       <use xlink:href="#m24ce53676a" x="486.545498" y="198.907885" style="stroke: #000000; stroke-width: 2"/>
      </g>
     </g>
     <g id="text_7">
      <!-- 6 -->
      <g transform="translate(481.540654 224.791947) scale(0.18 -0.18)">
       <defs>
        <path id="Arial-BoldMT-36" d="M 3247 3459 
L 2397 3366 
Q 2366 3628 2234 3753 
Q 2103 3878 1894 3878 
Q 1616 3878 1423 3628 
Q 1231 3378 1181 2588 
Q 1509 2975 1997 2975 
Q 2547 2975 2939 2556 
Q 3331 2138 3331 1475 
Q 3331 772 2918 347 
Q 2506 -78 1859 -78 
Q 1166 -78 719 461 
Q 272 1000 272 2228 
Q 272 3488 737 4044 
Q 1203 4600 1947 4600 
Q 2469 4600 2811 4308 
Q 3153 4016 3247 3459 
z
M 1256 1544 
Q 1256 1116 1453 883 
Q 1650 650 1903 650 
Q 2147 650 2309 840 
Q 2472 1031 2472 1466 
Q 2472 1913 2297 2120 
Q 2122 2328 1859 2328 
Q 1606 2328 1431 2129 
Q 1256 1931 1256 1544 
z
" transform="scale(0.015625)"/>
       </defs>
       <use xlink:href="#Arial-BoldMT-36"/>
      </g>
     </g>
    </g>
    <g id="xtick_8">
     <g id="line2d_8">
      <g>
       <use xlink:href="#m24ce53676a" x="379.090996" y="198.907885" style="stroke: #000000; stroke-width: 2"/>
      </g>
     </g>
     <g id="text_8">
      <!-- 7 -->
      <g transform="translate(374.086153 224.791947) scale(0.18 -0.18)">
       <defs>
        <path id="Arial-BoldMT-37" d="M 272 3703 
L 272 4519 
L 3275 4519 
L 3275 3881 
Q 2903 3516 2518 2831 
Q 2134 2147 1932 1376 
Q 1731 606 1734 0 
L 888 0 
Q 909 950 1279 1937 
Q 1650 2925 2269 3703 
L 272 3703 
z
" transform="scale(0.015625)"/>
       </defs>
       <use xlink:href="#Arial-BoldMT-37"/>
      </g>
     </g>
    </g>
    <g id="xtick_9">
     <g id="line2d_9">
      <g>
       <use xlink:href="#m24ce53676a" x="271.636495" y="198.907885" style="stroke: #000000; stroke-width: 2"/>
      </g>
     </g>
     <g id="text_9">
      <!-- 8 -->
      <g transform="translate(266.631651 224.791947) scale(0.18 -0.18)">
       <defs>
        <path id="Arial-BoldMT-38" d="M 1025 2472 
Q 684 2616 529 2867 
Q 375 3119 375 3419 
Q 375 3931 733 4265 
Q 1091 4600 1750 4600 
Q 2403 4600 2764 4265 
Q 3125 3931 3125 3419 
Q 3125 3100 2959 2851 
Q 2794 2603 2494 2472 
Q 2875 2319 3073 2025 
Q 3272 1731 3272 1347 
Q 3272 713 2867 316 
Q 2463 -81 1791 -81 
Q 1166 -81 750 247 
Q 259 634 259 1309 
Q 259 1681 443 1992 
Q 628 2303 1025 2472 
z
M 1206 3356 
Q 1206 3094 1354 2947 
Q 1503 2800 1750 2800 
Q 2000 2800 2150 2948 
Q 2300 3097 2300 3359 
Q 2300 3606 2151 3754 
Q 2003 3903 1759 3903 
Q 1506 3903 1356 3753 
Q 1206 3603 1206 3356 
z
M 1125 1394 
Q 1125 1031 1311 828 
Q 1497 625 1775 625 
Q 2047 625 2225 820 
Q 2403 1016 2403 1384 
Q 2403 1706 2222 1901 
Q 2041 2097 1763 2097 
Q 1441 2097 1283 1875 
Q 1125 1653 1125 1394 
z
" transform="scale(0.015625)"/>
       </defs>
       <use xlink:href="#Arial-BoldMT-38"/>
      </g>
     </g>
    </g>
    <g id="xtick_10">
     <g id="line2d_10">
      <g>
       <use xlink:href="#m24ce53676a" x="164.181993" y="198.907885" style="stroke: #000000; stroke-width: 2"/>
      </g>
     </g>
     <g id="text_10">
      <!-- 9 -->
      <g transform="translate(159.177149 224.791947) scale(0.18 -0.18)">
       <defs>
        <path id="Arial-BoldMT-39" d="M 291 1059 
L 1141 1153 
Q 1172 894 1303 769 
Q 1434 644 1650 644 
Q 1922 644 2112 894 
Q 2303 1144 2356 1931 
Q 2025 1547 1528 1547 
Q 988 1547 595 1964 
Q 203 2381 203 3050 
Q 203 3747 617 4173 
Q 1031 4600 1672 4600 
Q 2369 4600 2816 4061 
Q 3263 3522 3263 2288 
Q 3263 1031 2797 475 
Q 2331 -81 1584 -81 
Q 1047 -81 715 205 
Q 384 491 291 1059 
z
M 2278 2978 
Q 2278 3403 2083 3637 
Q 1888 3872 1631 3872 
Q 1388 3872 1227 3680 
Q 1066 3488 1066 3050 
Q 1066 2606 1241 2398 
Q 1416 2191 1678 2191 
Q 1931 2191 2104 2391 
Q 2278 2591 2278 2978 
z
" transform="scale(0.015625)"/>
       </defs>
       <use xlink:href="#Arial-BoldMT-39"/>
      </g>
     </g>
    </g>
    <g id="xtick_11">
     <g id="line2d_11">
      <g>
       <use xlink:href="#m24ce53676a" x="56.727491" y="198.907885" style="stroke: #000000; stroke-width: 2"/>
      </g>
     </g>
     <g id="text_11">
      <!-- 10 -->
      <g transform="translate(46.717803 224.791947) scale(0.18 -0.18)">
       <use xlink:href="#Arial-BoldMT-31"/>
       <use xlink:href="#Arial-BoldMT-30" x="55.615234"/>
      </g>
     </g>
    </g>
    <g id="text_12">
     <!-- Chemical Shift / ppm -->
     <g transform="translate(504.992813 245.447573) scale(0.18 -0.18)">
      <defs>
       <path id="Arial-BoldMT-43" d="M 3397 1684 
L 4294 1400 
Q 4088 650 3608 286 
Q 3128 -78 2391 -78 
Q 1478 -78 890 545 
Q 303 1169 303 2250 
Q 303 3394 893 4026 
Q 1484 4659 2447 4659 
Q 3288 4659 3813 4163 
Q 4125 3869 4281 3319 
L 3366 3100 
Q 3284 3456 3026 3662 
Q 2769 3869 2400 3869 
Q 1891 3869 1573 3503 
Q 1256 3138 1256 2319 
Q 1256 1450 1568 1081 
Q 1881 713 2381 713 
Q 2750 713 3015 947 
Q 3281 1181 3397 1684 
z
" transform="scale(0.015625)"/>
       <path id="Arial-BoldMT-68" d="M 1334 4581 
L 1334 2897 
Q 1759 3394 2350 3394 
Q 2653 3394 2897 3281 
Q 3141 3169 3264 2994 
Q 3388 2819 3433 2606 
Q 3478 2394 3478 1947 
L 3478 0 
L 2600 0 
L 2600 1753 
Q 2600 2275 2550 2415 
Q 2500 2556 2373 2639 
Q 2247 2722 2056 2722 
Q 1838 2722 1666 2615 
Q 1494 2509 1414 2295 
Q 1334 2081 1334 1663 
L 1334 0 
L 456 0 
L 456 4581 
L 1334 4581 
z
" transform="scale(0.015625)"/>
       <path id="Arial-BoldMT-65" d="M 2381 1056 
L 3256 909 
Q 3088 428 2723 176 
Q 2359 -75 1813 -75 
Q 947 -75 531 491 
Q 203 944 203 1634 
Q 203 2459 634 2926 
Q 1066 3394 1725 3394 
Q 2466 3394 2894 2905 
Q 3322 2416 3303 1406 
L 1103 1406 
Q 1113 1016 1316 798 
Q 1519 581 1822 581 
Q 2028 581 2168 693 
Q 2309 806 2381 1056 
z
M 2431 1944 
Q 2422 2325 2234 2523 
Q 2047 2722 1778 2722 
Q 1491 2722 1303 2513 
Q 1116 2303 1119 1944 
L 2431 1944 
z
" transform="scale(0.015625)"/>
       <path id="Arial-BoldMT-6d" d="M 394 3319 
L 1203 3319 
L 1203 2866 
Q 1638 3394 2238 3394 
Q 2556 3394 2790 3262 
Q 3025 3131 3175 2866 
Q 3394 3131 3647 3262 
Q 3900 3394 4188 3394 
Q 4553 3394 4806 3245 
Q 5059 3097 5184 2809 
Q 5275 2597 5275 2122 
L 5275 0 
L 4397 0 
L 4397 1897 
Q 4397 2391 4306 2534 
Q 4184 2722 3931 2722 
Q 3747 2722 3584 2609 
Q 3422 2497 3350 2280 
Q 3278 2063 3278 1594 
L 3278 0 
L 2400 0 
L 2400 1819 
Q 2400 2303 2353 2443 
Q 2306 2584 2207 2653 
Q 2109 2722 1941 2722 
Q 1738 2722 1575 2612 
Q 1413 2503 1342 2297 
Q 1272 2091 1272 1613 
L 1272 0 
L 394 0 
L 394 3319 
z
" transform="scale(0.015625)"/>
       <path id="Arial-BoldMT-69" d="M 459 3769 
L 459 4581 
L 1338 4581 
L 1338 3769 
L 459 3769 
z
M 459 0 
L 459 3319 
L 1338 3319 
L 1338 0 
L 459 0 
z
" transform="scale(0.015625)"/>
       <path id="Arial-BoldMT-63" d="M 3353 2338 
L 2488 2181 
Q 2444 2441 2289 2572 
Q 2134 2703 1888 2703 
Q 1559 2703 1364 2476 
Q 1169 2250 1169 1719 
Q 1169 1128 1367 884 
Q 1566 641 1900 641 
Q 2150 641 2309 783 
Q 2469 925 2534 1272 
L 3397 1125 
Q 3263 531 2881 228 
Q 2500 -75 1859 -75 
Q 1131 -75 698 384 
Q 266 844 266 1656 
Q 266 2478 700 2936 
Q 1134 3394 1875 3394 
Q 2481 3394 2839 3133 
Q 3197 2872 3353 2338 
z
" transform="scale(0.015625)"/>
       <path id="Arial-BoldMT-61" d="M 1116 2306 
L 319 2450 
Q 453 2931 781 3162 
Q 1109 3394 1756 3394 
Q 2344 3394 2631 3255 
Q 2919 3116 3036 2902 
Q 3153 2688 3153 2116 
L 3144 1091 
Q 3144 653 3186 445 
Q 3228 238 3344 0 
L 2475 0 
Q 2441 88 2391 259 
Q 2369 338 2359 363 
Q 2134 144 1878 34 
Q 1622 -75 1331 -75 
Q 819 -75 523 203 
Q 228 481 228 906 
Q 228 1188 362 1408 
Q 497 1628 739 1745 
Q 981 1863 1438 1950 
Q 2053 2066 2291 2166 
L 2291 2253 
Q 2291 2506 2166 2614 
Q 2041 2722 1694 2722 
Q 1459 2722 1328 2630 
Q 1197 2538 1116 2306 
z
M 2291 1594 
Q 2122 1538 1756 1459 
Q 1391 1381 1278 1306 
Q 1106 1184 1106 997 
Q 1106 813 1243 678 
Q 1381 544 1594 544 
Q 1831 544 2047 700 
Q 2206 819 2256 991 
Q 2291 1103 2291 1419 
L 2291 1594 
z
" transform="scale(0.015625)"/>
       <path id="Arial-BoldMT-6c" d="M 459 0 
L 459 4581 
L 1338 4581 
L 1338 0 
L 459 0 
z
" transform="scale(0.015625)"/>
       <path id="Arial-BoldMT-20" transform="scale(0.015625)"/>
       <path id="Arial-BoldMT-53" d="M 231 1491 
L 1131 1578 
Q 1213 1125 1461 912 
Q 1709 700 2131 700 
Q 2578 700 2804 889 
Q 3031 1078 3031 1331 
Q 3031 1494 2936 1608 
Q 2841 1722 2603 1806 
Q 2441 1863 1863 2006 
Q 1119 2191 819 2459 
Q 397 2838 397 3381 
Q 397 3731 595 4036 
Q 794 4341 1167 4500 
Q 1541 4659 2069 4659 
Q 2931 4659 3367 4281 
Q 3803 3903 3825 3272 
L 2900 3231 
Q 2841 3584 2645 3739 
Q 2450 3894 2059 3894 
Q 1656 3894 1428 3728 
Q 1281 3622 1281 3444 
Q 1281 3281 1419 3166 
Q 1594 3019 2269 2859 
Q 2944 2700 3267 2529 
Q 3591 2359 3773 2064 
Q 3956 1769 3956 1334 
Q 3956 941 3737 597 
Q 3519 253 3119 86 
Q 2719 -81 2122 -81 
Q 1253 -81 787 320 
Q 322 722 231 1491 
z
" transform="scale(0.015625)"/>
       <path id="Arial-BoldMT-66" d="M 75 3319 
L 563 3319 
L 563 3569 
Q 563 3988 652 4194 
Q 741 4400 980 4529 
Q 1219 4659 1584 4659 
Q 1959 4659 2319 4547 
L 2200 3934 
Q 1991 3984 1797 3984 
Q 1606 3984 1523 3895 
Q 1441 3806 1441 3553 
L 1441 3319 
L 2097 3319 
L 2097 2628 
L 1441 2628 
L 1441 0 
L 563 0 
L 563 2628 
L 75 2628 
L 75 3319 
z
" transform="scale(0.015625)"/>
       <path id="Arial-BoldMT-74" d="M 1981 3319 
L 1981 2619 
L 1381 2619 
L 1381 1281 
Q 1381 875 1398 808 
Q 1416 741 1477 697 
Q 1538 653 1625 653 
Q 1747 653 1978 738 
L 2053 56 
Q 1747 -75 1359 -75 
Q 1122 -75 931 4 
Q 741 84 652 211 
Q 563 338 528 553 
Q 500 706 500 1172 
L 500 2619 
L 97 2619 
L 97 3319 
L 500 3319 
L 500 3978 
L 1381 4491 
L 1381 3319 
L 1981 3319 
z
" transform="scale(0.015625)"/>
       <path id="Arial-BoldMT-2f" d="M -9 -78 
L 1125 4659 
L 1784 4659 
L 638 -78 
L -9 -78 
z
" transform="scale(0.015625)"/>
       <path id="Arial-BoldMT-70" d="M 434 3319 
L 1253 3319 
L 1253 2831 
Q 1413 3081 1684 3237 
Q 1956 3394 2288 3394 
Q 2866 3394 3269 2941 
Q 3672 2488 3672 1678 
Q 3672 847 3265 386 
Q 2859 -75 2281 -75 
Q 2006 -75 1782 34 
Q 1559 144 1313 409 
L 1313 -1263 
L 434 -1263 
L 434 3319 
z
M 1303 1716 
Q 1303 1156 1525 889 
Q 1747 622 2066 622 
Q 2372 622 2575 867 
Q 2778 1113 2778 1672 
Q 2778 2194 2568 2447 
Q 2359 2700 2050 2700 
Q 1728 2700 1515 2451 
Q 1303 2203 1303 1716 
z
" transform="scale(0.015625)"/>
      </defs>
      <use xlink:href="#Arial-BoldMT-43"/>
      <use xlink:href="#Arial-BoldMT-68" x="72.216797"/>
      <use xlink:href="#Arial-BoldMT-65" x="133.300781"/>
      <use xlink:href="#Arial-BoldMT-6d" x="188.916016"/>
      <use xlink:href="#Arial-BoldMT-69" x="277.832031"/>
      <use xlink:href="#Arial-BoldMT-63" x="305.615234"/>
      <use xlink:href="#Arial-BoldMT-61" x="361.230469"/>
      <use xlink:href="#Arial-BoldMT-6c" x="416.845703"/>
      <use xlink:href="#Arial-BoldMT-20" x="444.628906"/>
      <use xlink:href="#Arial-BoldMT-53" x="472.412109"/>
      <use xlink:href="#Arial-BoldMT-68" x="539.111328"/>
      <use xlink:href="#Arial-BoldMT-69" x="600.195312"/>
      <use xlink:href="#Arial-BoldMT-66" x="627.978516"/>
      <use xlink:href="#Arial-BoldMT-74" x="661.279297"/>
      <use xlink:href="#Arial-BoldMT-20" x="694.580078"/>
      <use xlink:href="#Arial-BoldMT-2f" x="722.363281"/>
      <use xlink:href="#Arial-BoldMT-20" x="750.146484"/>
      <use xlink:href="#Arial-BoldMT-70" x="777.929688"/>
      <use xlink:href="#Arial-BoldMT-70" x="839.013672"/>
      <use xlink:href="#Arial-BoldMT-6d" x="900.097656"/>
     </g>
    </g>
   </g>
   <g id="matplotlib.axis_2"/>
   <g id="line2d_12">
    <path d="M 3.030938 188.181445 
L 4.258657 188.106367 
L 4.872516 187.959824 
L 6.714093 188.252491 
L 8.351051 187.805392 
L 8.96491 188.056522 
L 9.578769 188.225985 
L 10.397248 188.312126 
L 10.806488 188.380451 
L 11.420347 188.158217 
L 11.829586 188.028889 
L 12.443446 187.947316 
L 13.057305 187.790844 
L 13.875784 187.99841 
L 14.489643 188.074598 
L 16.126601 187.955993 
L 16.53584 188.109864 
L 16.94508 187.925416 
L 17.354319 187.696655 
L 17.763559 187.733347 
L 18.582037 188.075952 
L 18.991277 188.252436 
L 20.218995 188.155183 
L 21.242094 188.158445 
L 22.060573 188.199764 
L 22.674432 188.095387 
L 23.697531 188.147092 
L 25.539108 187.872757 
L 26.152967 187.963047 
L 27.176066 187.750648 
L 28.403784 187.921803 
L 30.245362 187.776688 
L 31.063841 188.039131 
L 32.496179 187.793 
L 33.110038 187.633162 
L 34.542376 187.905157 
L 34.951616 187.863051 
L 37.202433 188.150548 
L 38.020912 188.072195 
L 40.476348 188.026711 
L 41.090207 187.946548 
L 42.522546 188.123674 
L 43.341024 187.935382 
L 44.159503 187.796811 
L 44.977982 188.040956 
L 45.591841 188.248476 
L 46.001081 188.183299 
L 46.61494 188.063274 
L 47.638039 188.023974 
L 48.661137 187.795241 
L 49.274996 187.934308 
L 49.888856 188.095688 
L 51.116574 188.054692 
L 52.139673 188.188863 
L 52.753532 188.089894 
L 53.162771 188.01408 
L 53.98125 188.11563 
L 54.39049 188.102062 
L 55.413588 188.377854 
L 55.822828 188.378379 
L 56.436687 188.235968 
L 56.845926 188.278601 
L 57.869025 188.058869 
L 58.687504 187.964474 
L 59.301363 187.898105 
L 60.529081 187.914709 
L 61.34756 187.735191 
L 62.370659 188.046988 
L 63.802997 188.000692 
L 64.621476 187.952858 
L 65.439955 188.140423 
L 67.281532 188.082606 
L 67.690772 188.043414 
L 68.713871 188.216791 
L 69.32773 188.044051 
L 69.736969 187.87326 
L 70.146209 187.965864 
L 70.760068 188.338107 
L 71.169307 188.34326 
L 73.010885 187.98571 
L 73.829364 188.162586 
L 74.443223 188.035033 
L 75.670941 188.202866 
L 76.48942 187.872357 
L 77.307899 187.713075 
L 78.944857 188.057204 
L 79.763336 187.890184 
L 80.581815 187.974227 
L 83.651111 188.063838 
L 84.26497 188.098503 
L 85.288068 187.878272 
L 89.380463 188.212938 
L 90.403562 188.056857 
L 94.700576 187.912545 
L 95.928294 187.736395 
L 96.542153 187.875087 
L 97.156013 187.986648 
L 98.588351 187.829779 
L 99.40683 187.730104 
L 100.429928 187.899036 
L 100.839168 187.985562 
L 101.862266 187.866977 
L 104.931562 187.98266 
L 105.750041 187.843167 
L 106.977759 188.213502 
L 107.591619 188.178368 
L 108.000858 188.21807 
L 109.637816 187.751274 
L 110.251675 188.005438 
L 111.888633 188.051024 
L 112.502492 188.064054 
L 113.320971 187.763003 
L 113.93483 187.568129 
L 114.34407 187.688254 
L 114.753309 187.842918 
L 115.571788 187.737233 
L 116.185647 187.747476 
L 116.799506 187.918554 
L 117.617985 187.859802 
L 118.436464 187.783237 
L 121.30114 188.127316 
L 122.324239 187.917784 
L 122.733478 187.845194 
L 123.756577 188.006604 
L 125.188915 187.755037 
L 125.598155 187.860875 
L 126.416633 188.17115 
L 127.030493 187.944736 
L 127.644352 187.733853 
L 128.66745 187.876895 
L 129.485929 187.96949 
L 131.327507 187.872369 
L 132.555225 187.897123 
L 133.373704 187.972949 
L 134.396803 188.002517 
L 135.419901 187.846549 
L 136.033761 188.081383 
L 142.172352 187.958038 
L 143.604691 188.421645 
L 144.832409 188.152803 
L 145.650888 187.786102 
L 146.469367 187.808814 
L 148.515564 188.140808 
L 149.334043 188.022711 
L 150.561761 187.443171 
L 150.971001 187.427891 
L 151.78948 187.559 
L 152.607959 187.594902 
L 154.040297 187.987056 
L 155.063395 187.907363 
L 155.677254 187.863594 
L 156.086494 187.836768 
L 157.723452 187.301281 
L 158.337311 187.478562 
L 159.15579 187.729228 
L 159.769649 187.627549 
L 160.588128 187.940843 
L 161.201987 188.126585 
L 161.611227 187.999843 
L 162.225086 187.676817 
L 163.043565 187.697974 
L 165.089762 187.819528 
L 165.499001 187.744165 
L 165.908241 187.667909 
L 166.5221 187.701163 
L 166.931339 187.673244 
L 168.363677 187.974094 
L 168.977537 188.018077 
L 170.205255 187.658832 
L 171.637593 187.791359 
L 172.251452 187.897792 
L 174.09303 187.75028 
L 174.911509 187.834593 
L 175.320748 187.853117 
L 175.934607 187.801395 
L 177.366945 188.018108 
L 178.594664 187.550474 
L 179.208523 187.769154 
L 179.822382 188.042496 
L 180.845481 187.905868 
L 181.66396 187.737889 
L 182.891678 187.936085 
L 183.710157 187.683755 
L 184.937875 187.921846 
L 185.756354 187.805005 
L 186.370213 187.653168 
L 187.393312 187.65211 
L 190.257988 188.145008 
L 191.076467 187.888209 
L 191.485707 187.77557 
L 192.918045 187.927969 
L 193.531904 188.026029 
L 193.941143 187.905761 
L 194.555003 187.549096 
L 195.168862 187.487997 
L 195.782721 187.57337 
L 196.39658 187.733183 
L 197.828918 187.68962 
L 198.442777 187.957633 
L 199.261256 187.947317 
L 200.693594 187.768868 
L 202.330552 187.898952 
L 202.944411 187.842867 
L 204.17213 188.095107 
L 204.581369 187.98173 
L 205.604468 187.462783 
L 206.218327 187.619478 
L 207.036806 187.989941 
L 208.264524 188.050023 
L 209.696862 187.88107 
L 212.356919 187.96033 
L 213.175398 187.744353 
L 214.198496 187.764057 
L 214.812355 187.824365 
L 215.630834 187.931741 
L 216.040074 187.829917 
L 216.858553 187.935076 
L 217.472412 187.780421 
L 219.10937 187.898378 
L 219.723229 188.004157 
L 220.541708 187.836583 
L 221.974046 187.8357 
L 222.792525 187.717839 
L 223.406384 187.584307 
L 224.020243 187.314609 
L 224.634102 187.272278 
L 225.452581 187.38169 
L 226.47568 187.128172 
L 227.089539 187.095493 
L 228.112638 187.385276 
L 228.726497 187.539351 
L 229.135736 187.606845 
L 229.749596 187.810315 
L 231.795793 187.659077 
L 232.409652 187.589212 
L 233.228131 187.485553 
L 234.04661 187.277088 
L 234.455849 187.038822 
L 235.069708 186.368896 
L 235.274328 186.373789 
L 236.502047 187.304132 
L 237.115906 187.344929 
L 237.729765 187.421846 
L 238.343624 187.627851 
L 239.162103 187.558498 
L 240.389821 187.181488 
L 241.00368 187.185011 
L 241.41292 187.169925 
L 242.845258 187.496169 
L 244.482216 187.443332 
L 245.096075 187.369083 
L 245.709934 187.327157 
L 246.323793 187.455966 
L 246.937653 187.680577 
L 248.369991 187.571828 
L 248.77923 187.4375 
L 250.006948 187.348256 
L 251.234667 187.405049 
L 252.257765 187.672879 
L 253.485484 187.438945 
L 254.303963 187.472155 
L 255.736301 187.882217 
L 256.759399 187.777128 
L 257.373259 187.676725 
L 257.987118 187.535354 
L 258.600977 187.503256 
L 259.214836 187.327636 
L 261.261033 187.510196 
L 263.102611 186.901707 
L 266.990386 187.288812 
L 267.808865 187.265413 
L 270.059682 186.932006 
L 270.673541 186.811572 
L 271.2874 186.834797 
L 273.128978 186.561643 
L 273.538217 186.536982 
L 274.561316 186.110222 
L 275.584414 185.760531 
L 276.812133 185.191097 
L 278.449091 184.499661 
L 279.881429 183.077058 
L 280.290668 182.958732 
L 280.904527 183.082398 
L 281.518386 183.269854 
L 281.927626 183.092137 
L 282.336865 182.61365 
L 283.155344 180.984185 
L 283.769203 179.628698 
L 284.178443 178.28746 
L 284.587682 176.428022 
L 285.201541 172.251683 
L 286.63388 160.364372 
L 286.838499 160.539625 
L 287.043119 161.654915 
L 287.452358 165.99085 
L 288.270837 175.287498 
L 288.884697 179.54582 
L 289.498556 182.09942 
L 290.112415 183.469585 
L 290.726274 184.108575 
L 291.749373 184.999223 
L 292.363232 185.076777 
L 292.977091 185.158103 
L 293.386331 185.216521 
L 293.79557 184.934404 
L 294.409429 184.31186 
L 295.227908 183.880808 
L 295.637148 183.369929 
L 296.864866 181.32732 
L 297.478725 180.20409 
L 297.887965 179.044879 
L 298.501824 176.479451 
L 299.524922 171.130189 
L 300.138782 167.605473 
L 300.548021 166.310561 
L 300.752641 166.173404 
L 301.16188 166.546855 
L 301.57112 166.840719 
L 301.775739 166.92281 
L 301.980359 167.139684 
L 302.184979 167.617359 
L 302.594218 169.434289 
L 304.026556 177.247103 
L 304.845035 179.856079 
L 305.254275 180.56817 
L 305.663514 180.892382 
L 306.072754 180.992499 
L 306.481993 180.919916 
L 306.891233 180.408418 
L 307.709711 178.798325 
L 308.323571 176.847478 
L 308.93743 173.742033 
L 309.551289 168.971531 
L 310.165148 162.043379 
L 311.188247 147.183798 
L 312.415965 127.132656 
L 312.620585 127.350868 
L 313.234444 131.1343 
L 313.439064 131.104497 
L 313.643684 130.626991 
L 313.848303 130.549265 
L 314.052923 131.818131 
L 314.462162 139.337338 
L 315.280641 156.71519 
L 316.30374 171.462594 
L 316.917599 177.396939 
L 317.531458 180.844673 
L 318.145317 183.009736 
L 318.759177 184.419485 
L 319.168416 184.956757 
L 320.191515 185.719727 
L 321.009994 185.979369 
L 321.828473 186.043431 
L 322.851571 186.107478 
L 324.07929 185.829622 
L 325.716247 185.775631 
L 326.739346 185.528917 
L 327.557825 185.007205 
L 327.967064 184.962458 
L 328.376304 185.127413 
L 328.990163 185.453169 
L 330.013262 185.279544 
L 330.831741 185.244045 
L 332.059459 185.234586 
L 332.877938 184.855261 
L 334.105656 183.98111 
L 334.514896 184.057902 
L 335.128755 184.290013 
L 336.151853 184.030021 
L 337.993431 182.787989 
L 339.01653 181.810469 
L 339.425769 181.763362 
L 340.653487 181.999893 
L 341.676586 181.639951 
L 342.085826 181.350129 
L 342.904304 180.593325 
L 343.518164 180.285506 
L 344.336643 179.538224 
L 345.9736 177.875828 
L 346.996699 177.433225 
L 347.405938 176.941617 
L 348.838277 174.714196 
L 349.452136 174.616333 
L 349.861375 174.475651 
L 350.270615 173.959188 
L 350.884474 172.565988 
L 351.293713 171.719664 
L 351.498333 171.534858 
L 351.702953 171.580929 
L 352.112192 172.295513 
L 352.726051 173.60796 
L 353.135291 174.095021 
L 353.54453 174.332614 
L 353.95377 174.256519 
L 354.363009 173.798665 
L 355.590728 171.539548 
L 357.432305 167.885293 
L 358.455404 164.981922 
L 358.660023 164.807904 
L 359.683122 164.807097 
L 360.706221 164.85228 
L 361.11546 164.303228 
L 361.5247 162.993978 
L 361.933939 160.690461 
L 362.547798 155.409789 
L 363.161657 147.529974 
L 363.775517 140.321879 
L 363.980136 139.165774 
L 364.184756 138.649948 
L 365.003235 138.136151 
L 365.207855 137.887944 
L 365.412474 137.950515 
L 365.617094 138.49476 
L 366.844812 143.816171 
L 367.049432 143.656337 
L 367.663291 142.136287 
L 367.867911 142.123234 
L 368.072531 142.679909 
L 368.48177 145.5117 
L 369.095629 150.57686 
L 369.504869 151.915446 
L 369.709489 151.836796 
L 369.914108 151.271843 
L 370.323348 148.917735 
L 370.937207 144.681346 
L 371.141827 143.95467 
L 371.346446 143.721267 
L 371.551066 143.90486 
L 371.960306 144.742088 
L 372.164925 144.884776 
L 372.369545 144.626866 
L 372.574165 143.920401 
L 372.983404 141.043387 
L 373.392644 135.772904 
L 373.801883 127.760471 
L 374.415742 110.666498 
L 374.824982 95.702831 
L 375.234221 73.393631 
L 376.25732 3.00024 
L 376.46194 10.43223 
L 377.689658 107.911375 
L 378.098897 121.014665 
L 378.508137 128.400962 
L 380.349714 152.188035 
L 380.758954 154.447317 
L 380.963574 154.945525 
L 381.168193 155.08091 
L 381.372813 154.912776 
L 381.577433 154.437801 
L 381.986672 152.557769 
L 382.395912 149.454387 
L 382.805151 144.961485 
L 383.214391 138.136945 
L 383.62363 127.419896 
L 384.03287 110.625557 
L 384.442109 84.508207 
L 385.260588 22.082229 
L 385.465208 23.791346 
L 385.874447 57.455284 
L 386.488306 113.215759 
L 386.897546 134.83713 
L 387.306785 148.146432 
L 387.920644 159.945699 
L 388.534504 166.73632 
L 389.148363 171.085769 
L 389.762222 174.035895 
L 390.376081 175.867464 
L 391.39918 178.327347 
L 392.013039 179.80775 
L 392.831518 182.0331 
L 393.240757 182.550863 
L 394.673095 183.625451 
L 395.900814 184.894361 
L 396.310053 185.190748 
L 397.128532 185.437721 
L 397.537771 185.533133 
L 398.35625 186.05208 
L 398.97011 186.09537 
L 399.993208 186.497295 
L 400.607067 186.722568 
L 401.425546 186.919942 
L 404.085603 187.792726 
L 405.108701 187.837856 
L 406.33642 187.790558 
L 406.950279 187.770506 
L 407.359518 187.820398 
L 408.177997 188.201185 
L 408.587237 188.37365 
L 410.224195 188.329386 
L 411.861152 187.342007 
L 412.475012 186.97435 
L 413.70273 185.702355 
L 413.90735 185.626942 
L 414.111969 185.685483 
L 414.521209 186.281648 
L 415.339688 187.634979 
L 415.748927 187.997125 
L 416.362786 188.215299 
L 418.408984 188.572034 
L 420.86442 188.451865 
L 421.682899 188.346314 
L 422.501378 188.287821 
L 423.319857 188.349127 
L 424.138336 188.159185 
L 424.956815 188.322872 
L 425.979914 188.561853 
L 426.798392 188.391516 
L 427.207632 188.14046 
L 427.821491 187.70705 
L 428.63997 187.658528 
L 429.867688 187.968275 
L 430.481548 187.966696 
L 432.118505 188.165879 
L 432.936984 188.137596 
L 433.550843 187.895273 
L 433.960083 187.821399 
L 434.983181 187.235037 
L 435.597041 187.214961 
L 436.824759 187.22211 
L 437.438618 187.091214 
L 438.666337 186.462562 
L 439.280196 185.718104 
L 440.303294 184.287285 
L 440.917154 183.450196 
L 441.326393 183.265879 
L 441.735632 183.487562 
L 443.37259 185.255261 
L 444.600309 186.077982 
L 445.009548 186.095457 
L 445.623407 185.674663 
L 447.669605 183.805498 
L 448.078844 182.879763 
L 448.897323 180.02752 
L 449.920422 176.161026 
L 450.125041 176.00819 
L 450.329661 176.188439 
L 450.7389 177.412398 
L 451.966619 182.273747 
L 452.580478 183.774984 
L 453.194337 184.659606 
L 454.012816 185.550105 
L 454.422056 185.817276 
L 454.831295 185.790832 
L 455.445154 185.590838 
L 456.059013 185.463375 
L 456.672873 185.075218 
L 457.286732 184.407484 
L 458.30983 183.143528 
L 458.71907 182.868458 
L 458.92369 182.84628 
L 459.332929 183.147023 
L 459.946788 184.103699 
L 460.969887 185.479578 
L 461.583746 186.098679 
L 462.811464 186.856348 
L 463.220704 186.977826 
L 465.266901 186.959891 
L 466.29 186.305506 
L 467.108479 185.773459 
L 467.722338 184.753659 
L 468.540817 182.697217 
L 469.154676 180.296197 
L 469.768535 176.860017 
L 470.791634 169.807478 
L 470.996253 169.427139 
L 471.200873 169.626589 
L 471.405493 170.37068 
L 471.814732 173.065991 
L 472.633211 178.659901 
L 473.24707 181.136328 
L 473.65631 182.07298 
L 474.065549 182.547616 
L 474.474789 182.775708 
L 474.884028 182.772828 
L 475.293268 182.478134 
L 475.702507 181.860843 
L 476.316366 180.497451 
L 476.725606 179.279111 
L 477.134845 177.455471 
L 477.544085 174.749786 
L 477.953324 170.977672 
L 478.362564 165.672908 
L 478.976423 154.428903 
L 479.385662 147.101099 
L 479.590282 145.022466 
L 479.794902 144.543811 
L 479.999521 145.721914 
L 480.408761 152.237582 
L 481.22724 168.953346 
L 481.841099 176.404322 
L 482.454958 180.529547 
L 482.864198 182.123799 
L 483.273437 183.033586 
L 483.682676 183.350215 
L 484.501155 183.433041 
L 485.115015 183.230537 
L 485.524254 182.651781 
L 486.138113 181.230502 
L 486.547353 179.749745 
L 487.161212 176.257451 
L 488.18431 168.799063 
L 488.38893 168.263147 
L 488.59355 168.396736 
L 488.79817 169.223789 
L 489.207409 172.377577 
L 490.230508 181.015564 
L 490.844367 184.054973 
L 491.458226 185.832289 
L 492.072085 186.786783 
L 492.481325 187.175185 
L 495.346001 188.741207 
L 495.95986 188.828428 
L 498.415297 188.623254 
L 500.461494 189.048299 
L 500.870734 189.208545 
L 503.32617 188.917325 
L 504.144649 188.913424 
L 504.553889 188.921995 
L 505.372368 189.213774 
L 507.213945 189.02223 
L 507.827804 188.924047 
L 508.646283 188.81917 
L 509.260142 188.617646 
L 510.487861 188.806907 
L 512.329438 189.034754 
L 513.352537 188.966312 
L 514.784875 189.033575 
L 515.807974 189.075291 
L 516.626452 189.049097 
L 517.444931 188.788148 
L 518.46803 188.890539 
L 519.491129 189.100503 
L 520.514227 188.96599 
L 521.537326 188.898783 
L 523.378903 188.7549 
L 524.402002 189.052566 
L 525.425101 188.950548 
L 525.83434 189.146503 
L 526.448199 189.071558 
L 527.471298 188.923406 
L 529.312876 188.78754 
L 529.722115 188.826179 
L 530.131354 188.908554 
L 531.563693 188.681909 
L 532.177552 188.804637 
L 532.791411 188.587469 
L 533.20065 188.437389 
L 534.019129 188.563983 
L 534.632988 188.535253 
L 535.451467 188.444322 
L 535.860707 188.451157 
L 538.520763 187.872352 
L 539.339242 188.043783 
L 539.748482 187.968932 
L 540.362341 187.472109 
L 541.18082 186.873617 
L 541.590059 186.759241 
L 543.227017 187.123115 
L 543.840876 187.299703 
L 544.454735 187.283732 
L 545.273214 187.590627 
L 549.365609 187.34423 
L 551.616426 185.858081 
L 552.844144 185.618486 
L 553.253384 185.498979 
L 553.867243 184.908993 
L 554.685722 183.975189 
L 555.094961 182.916227 
L 555.70882 181.119117 
L 555.91344 181.038035 
L 556.936539 182.217297 
L 557.345778 182.137771 
L 558.778116 181.189731 
L 559.187356 181.288828 
L 560.005835 181.97266 
L 560.619694 182.063902 
L 561.438173 181.917013 
L 562.461271 181.423141 
L 563.07513 181.537313 
L 565.325947 182.547499 
L 565.735187 182.414834 
L 566.144426 182.044678 
L 566.553666 181.615981 
L 566.962905 181.4822 
L 567.576764 181.395791 
L 568.190624 180.820053 
L 569.213722 179.928687 
L 569.827581 179.590478 
L 570.236821 179.663432 
L 570.64606 180.040794 
L 571.669159 181.375528 
L 572.078398 181.607162 
L 572.487638 181.585149 
L 572.896877 181.306634 
L 573.306117 180.797755 
L 573.919976 179.455928 
L 574.329215 178.094713 
L 574.738455 175.948014 
L 575.556934 169.840244 
L 576.989272 157.585216 
L 577.603131 152.2562 
L 577.807751 151.525353 
L 578.012371 151.39883 
L 578.42161 151.830213 
L 579.035469 151.879142 
L 579.240089 152.571033 
L 579.649328 156.054092 
L 580.467807 164.832433 
L 582.104765 177.477057 
L 582.718624 180.653058 
L 583.332483 182.569205 
L 583.741723 183.28632 
L 584.355582 183.924977 
L 585.174061 184.36161 
L 585.78792 184.470956 
L 586.401779 184.283098 
L 586.811019 183.932526 
L 587.629498 182.936076 
L 588.038737 182.222333 
L 588.652596 180.417698 
L 589.266455 177.678203 
L 589.880315 173.592892 
L 591.108033 163.00732 
L 591.926512 155.509856 
L 592.335751 153.911001 
L 592.540371 153.806374 
L 592.744991 153.970778 
L 593.15423 154.795101 
L 593.56347 156.731382 
L 594.177329 162.384428 
L 594.995808 169.731453 
L 595.814287 175.616617 
L 596.428146 178.547693 
L 597.042005 180.273496 
L 597.451245 180.864163 
L 598.065104 181.273301 
L 598.883583 181.772758 
L 599.292822 182.007884 
L 599.702062 182.044337 
L 600.52054 181.945738 
L 601.1344 182.076079 
L 601.748259 181.837855 
L 603.794456 180.948389 
L 604.408315 180.736303 
L 607.477611 178.679763 
L 610.546907 175.063607 
L 611.365386 173.786096 
L 613.206964 170.903617 
L 614.639302 168.391655 
L 615.457781 166.953463 
L 616.685499 164.600837 
L 617.913217 162.175997 
L 620.777893 155.355376 
L 624.665668 145.743453 
L 626.302626 140.114801 
L 627.121105 136.61458 
L 627.939584 131.87274 
L 628.553443 126.892952 
L 629.371922 118.517248 
L 629.985781 110.114378 
L 630.80426 95.474823 
L 631.418119 80.572576 
L 632.031978 61.16358 
L 632.645838 35.167512 
L 633.280251 -1 
M 638.684963 -1 
L 639.398289 37.688129 
L 640.216767 70.304861 
L 641.035246 93.538876 
L 641.853725 110.674085 
L 642.672204 122.95109 
L 643.490683 132.302305 
L 644.309162 139.238337 
L 645.332261 145.772933 
L 646.355359 151.225702 
L 647.787697 157.227689 
L 648.810796 160.450935 
L 650.243134 163.855932 
L 651.470852 166.324539 
L 652.493951 168.412155 
L 653.926289 170.656378 
L 654.540148 171.398869 
L 656.381726 174.22257 
L 656.995585 174.852627 
L 659.451022 176.334281 
L 659.860261 176.055833 
L 661.08798 174.638289 
L 661.497219 174.4185 
L 661.906459 174.497558 
L 663.338797 175.496015 
L 664.361895 176.604146 
L 664.771135 176.701399 
L 665.180374 176.640904 
L 665.589614 176.270927 
L 666.612712 174.805608 
L 668.24967 171.908074 
L 668.863529 171.586652 
L 670.091248 170.249194 
L 670.295867 170.192557 
L 670.500487 170.286131 
L 670.909726 170.986251 
L 672.546684 175.092341 
L 672.955924 175.345353 
L 673.365163 175.361581 
L 673.979022 175.034665 
L 674.592882 174.519595 
L 675.002121 173.999995 
L 675.41136 173.166524 
L 676.434459 170.395166 
L 676.639079 170.197184 
L 676.843699 170.18868 
L 677.048318 170.36169 
L 677.457558 171.196235 
L 679.094516 175.394835 
L 680.117614 177.572674 
L 680.731473 178.450328 
L 681.345333 178.986931 
L 681.959192 179.292743 
L 682.368431 179.274686 
L 683.18691 178.842568 
L 683.59615 178.273183 
L 684.414628 176.8595 
L 684.823868 176.588267 
L 685.233107 176.72663 
L 686.256206 177.734201 
L 686.665445 177.843888 
L 687.074685 177.790581 
L 688.507023 177.165846 
L 688.711643 177.390507 
L 689.120882 178.469185 
L 689.734741 180.03165 
L 690.143981 180.462964 
L 690.348601 180.498957 
L 690.75784 180.244907 
L 692.190178 178.315796 
L 692.804037 177.183367 
L 694.031756 174.16791 
L 694.645615 172.090893 
L 696.487192 164.54941 
L 696.691812 164.61457 
L 696.896432 165.476987 
L 697.305671 170.276251 
L 697.91953 179.322069 
L 698.32877 182.016822 
L 698.53339 182.524577 
L 698.738009 182.671463 
L 698.942629 182.585941 
L 699.351869 182.037547 
L 699.965728 180.6307 
L 701.193446 177.102037 
L 702.011925 174.111535 
L 702.830404 170.38324 
L 703.648883 165.673346 
L 704.671981 159.217514 
L 704.876601 158.80386 
L 705.081221 159.236405 
L 705.285841 160.759005 
L 705.69508 167.226547 
L 706.308939 178.341224 
L 706.718179 181.930681 
L 707.127418 183.440411 
L 707.536658 184.002361 
L 707.945897 184.038694 
L 708.559756 183.492617 
L 709.173615 182.802599 
L 709.992094 181.57826 
L 710.810573 179.860662 
L 711.629052 177.924496 
L 712.242911 175.537997 
L 713.06139 171.007496 
L 713.47063 168.903493 
L 713.675249 168.415137 
L 713.879869 168.421327 
L 714.084489 168.892557 
L 715.312207 173.701505 
L 716.130686 175.185725 
L 716.744545 176.474256 
L 718.176883 179.81194 
L 718.995362 181.367242 
L 719.813841 183.412381 
L 720.4277 185.01484 
L 720.63232 185.273267 
L 720.83694 185.3149 
L 721.04156 185.099681 
L 721.246179 184.520253 
L 721.450799 183.41228 
L 721.860038 179.050602 
L 722.883137 164.160307 
L 723.087757 163.354875 
L 723.292377 163.148387 
L 723.496996 163.287958 
L 724.724715 165.116979 
L 726.566292 166.903655 
L 727.794011 168.496575 
L 728.20325 168.637893 
L 728.612489 168.522402 
L 729.021729 167.942724 
L 729.430968 166.469453 
L 729.840208 163.254919 
L 730.249447 156.882851 
L 731.067926 139.973049 
L 731.272546 138.094594 
L 731.477166 137.455907 
L 731.681785 137.904889 
L 732.091025 140.992458 
L 733.114123 150.175045 
L 733.727983 153.372182 
L 734.137222 154.544623 
L 734.546462 155.051269 
L 734.955701 155.3469 
L 735.36494 156.097253 
L 735.9788 158.229213 
L 736.797279 161.070137 
L 737.411138 162.905831 
L 739.048096 169.034335 
L 740.275814 172.459466 
L 740.889673 173.949007 
L 741.503532 174.777412 
L 742.322011 175.562784 
L 743.14049 175.970771 
L 743.958969 176.551561 
L 744.777448 176.860415 
L 745.391307 176.727031 
L 747.437504 176.058675 
L 748.255983 175.290643 
L 748.460603 175.350861 
L 748.869842 175.907393 
L 749.892941 177.789669 
L 750.71142 178.44694 
L 751.325279 178.869749 
L 751.939138 179.459169 
L 752.757617 179.714806 
L 753.166857 179.431991 
L 753.576096 178.91058 
L 754.189955 177.904099 
L 754.394575 177.77265 
L 754.599195 177.822417 
L 755.213054 178.506258 
L 755.826913 179.143972 
L 756.645392 179.514599 
L 757.054631 179.51814 
L 757.668491 179.112563 
L 759.305448 177.374788 
L 759.714688 176.490182 
L 760.328547 174.449254 
L 760.737787 172.436197 
L 761.351646 168.083604 
L 762.170125 161.402932 
L 762.579364 159.596293 
L 762.783984 159.288842 
L 762.988604 159.4193 
L 763.193223 160.010209 
L 763.602463 162.360017 
L 764.216322 166.370427 
L 764.625561 167.971999 
L 765.034801 168.668924 
L 765.239421 168.719264 
L 765.44404 168.568923 
L 765.85328 167.829655 
L 767.080998 165.076308 
L 767.490238 162.805129 
L 768.308716 157.218763 
L 768.922576 154.603793 
L 769.331815 153.319192 
L 769.536435 153.082649 
L 769.741055 153.252318 
L 770.150294 154.702281 
L 771.173393 159.704932 
L 771.378012 159.97901 
L 771.582632 159.903528 
L 772.196491 158.888993 
L 772.401111 158.994575 
L 772.605731 159.562467 
L 773.833449 165.013809 
L 774.242689 165.361815 
L 774.651928 165.714718 
L 775.061167 166.235734 
L 775.265787 166.269017 
L 775.470407 166.013691 
L 775.879646 164.599951 
L 776.288886 161.994058 
L 777.107365 155.369734 
L 777.311984 154.617574 
L 777.516604 154.657211 
L 777.721224 155.523774 
L 778.130463 159.265501 
L 779.153562 170.476561 
L 779.767421 174.733475 
L 780.38128 177.327242 
L 780.995139 179.194123 
L 781.813618 180.807304 
L 783.655196 183.446777 
L 784.269055 184.101236 
L 786.315252 185.657701 
L 787.542971 185.979345 
L 788.975309 186.226891 
L 789.589168 186.310321 
L 790.612267 186.35261 
L 791.226126 186.527775 
L 791.839985 186.72853 
L 794.704661 186.688327 
L 795.31852 186.717714 
L 796.341619 186.560719 
L 796.750858 186.451906 
L 797.364718 186.660848 
L 797.978577 186.819588 
L 798.592436 186.782147 
L 799.001675 186.863627 
L 799.615535 186.641165 
L 801.252492 185.965552 
L 801.661732 185.747676 
L 803.29869 185.372535 
L 804.526408 184.55004 
L 805.549507 183.368775 
L 807.595704 180.255947 
L 808.004943 180.03966 
L 808.414183 180.147956 
L 809.437282 180.806084 
L 810.051141 180.907511 
L 810.665 181.218126 
L 812.097338 181.277001 
L 813.325056 180.815645 
L 813.938916 179.899016 
L 814.552775 178.483188 
L 816.394352 173.583129 
L 816.803592 173.138708 
L 817.008211 173.110733 
L 817.212831 173.240869 
L 817.622071 173.907709 
L 818.849789 176.796026 
L 819.668268 178.656831 
L 820.691366 180.297395 
L 821.509845 181.173162 
L 822.328324 181.516648 
L 823.146803 181.214663 
L 824.783761 180.139703 
L 825.39762 180.023319 
L 826.625339 179.384692 
L 827.034578 179.488115 
L 827.648437 179.895888 
L 828.057677 179.93457 
L 829.694634 179.707363 
L 830.717733 180.233263 
L 831.536212 180.157037 
L 832.150071 179.948856 
L 832.559311 179.628544 
L 833.37779 178.89736 
L 833.787029 178.550406 
L 834.605508 177.752041 
L 836.447085 177.239049 
L 836.856325 176.930629 
L 837.470184 176.82708 
L 838.084043 176.810224 
L 838.697902 176.714168 
L 839.516381 176.86739 
L 840.130241 176.46441 
L 841.153339 175.415847 
L 841.562579 174.680539 
L 842.176438 172.720029 
L 842.994917 169.122296 
L 844.222635 162.225481 
L 845.450353 155.844964 
L 845.859593 154.485927 
L 846.064213 154.200117 
L 846.268832 154.235162 
L 846.473452 154.58726 
L 847.291931 157.329012 
L 848.519649 161.419911 
L 848.928889 162.29515 
L 849.542748 162.991307 
L 849.951987 163.114913 
L 850.156607 162.99529 
L 850.565847 162.357199 
L 851.384326 160.779178 
L 851.998185 159.72352 
L 852.612044 158.094298 
L 853.430523 155.618256 
L 853.839762 155.175402 
L 854.044382 155.229218 
L 854.453621 155.711622 
L 855.067481 157.167988 
L 855.47672 158.5811 
L 857.318298 166.499846 
L 858.136776 168.393134 
L 858.546016 168.804619 
L 858.955255 168.759395 
L 859.364495 168.423844 
L 860.796833 166.79015 
L 861.001453 166.76196 
L 861.206072 166.876171 
L 861.615312 167.586445 
L 862.229171 169.413605 
L 863.04765 172.502006 
L 863.866129 175.641563 
L 864.479988 177.329655 
L 866.321566 180.858359 
L 866.935425 181.471224 
L 867.549284 181.875501 
L 867.958523 181.992976 
L 868.367763 181.925995 
L 868.777002 181.636243 
L 869.390861 180.895592 
L 870.61858 178.460205 
L 871.232439 176.961106 
L 871.641678 175.36289 
L 872.050918 172.720387 
L 872.664777 166.611154 
L 873.483256 157.465213 
L 873.687876 156.677385 
L 873.892495 156.973545 
L 874.301735 160.042184 
L 875.324834 170.226466 
L 875.938693 173.823996 
L 876.552552 175.870898 
L 876.961791 176.48614 
L 877.371031 176.717396 
L 877.78027 176.622326 
L 878.18951 176.113491 
L 878.598749 175.188383 
L 879.212608 172.813949 
L 879.826468 168.914324 
L 880.235707 164.90325 
L 880.849566 155.900711 
L 881.872665 139.184026 
L 882.077285 137.915919 
L 882.281904 137.967329 
L 882.486524 139.337684 
L 882.895763 145.148963 
L 883.918862 162.195884 
L 884.532721 168.267814 
L 885.14658 171.602141 
L 885.76044 173.432541 
L 886.783538 175.828531 
L 887.192778 176.150124 
L 887.397397 176.151484 
L 887.806637 175.744511 
L 888.215876 174.823127 
L 888.625116 173.420391 
L 889.034355 171.297364 
L 890.262074 162.62328 
L 890.466693 162.249188 
L 890.671313 162.510381 
L 890.875933 163.410765 
L 891.285172 166.626978 
L 892.308271 175.752595 
L 892.92213 178.955912 
L 893.535989 180.951089 
L 894.354468 182.701895 
L 894.968327 183.529638 
L 895.991426 184.427251 
L 897.014525 185.020509 
L 897.423764 185.023331 
L 897.833003 185.037121 
L 898.856102 185.295982 
L 900.08382 185.093444 
L 901.516159 184.388687 
L 902.130018 184.379609 
L 903.357736 183.836008 
L 903.766976 183.533488 
L 905.403933 181.708714 
L 906.017793 181.586866 
L 906.836271 181.438722 
L 907.245511 181.124361 
L 907.65475 180.770495 
L 908.06399 180.530196 
L 908.473229 180.008831 
L 911.542525 175.003792 
L 912.565624 172.069308 
L 913.179483 169.902369 
L 913.588722 167.797887 
L 914.202582 163.105617 
L 915.021061 154.232902 
L 916.044159 140.15834 
L 918.294976 104.579746 
L 918.704216 93.323922 
L 919.113455 75.714967 
L 919.522695 46.90808 
L 919.958491 -1 
M 920.622048 -1 
L 921.364272 108.360802 
L 921.773512 135.431895 
L 922.182751 149.661398 
L 922.59199 157.795012 
L 923.00123 162.559194 
L 923.410469 165.278481 
L 924.228948 168.501638 
L 925.252047 172.120709 
L 926.479765 174.953561 
L 927.298244 176.660917 
L 928.116723 177.547796 
L 929.753681 178.94402 
L 930.981399 179.493957 
L 931.390639 179.255372 
L 932.004498 178.758512 
L 932.618357 177.806033 
L 933.027597 176.790578 
L 933.436836 175.333401 
L 933.846075 173.232401 
L 934.459935 168.533984 
L 935.687653 157.160588 
L 936.506132 150.844723 
L 937.119991 144.389122 
L 937.52923 137.627379 
L 938.14309 121.48031 
L 938.552329 112.174511 
L 938.756949 110.371547 
L 938.961569 110.266323 
L 939.370808 111.33759 
L 939.575428 111.362097 
L 939.780047 111.248307 
L 939.984667 111.831242 
L 940.189287 114.122422 
L 940.598526 124.817118 
L 941.417005 149.752102 
L 942.030864 161.127751 
L 942.644724 167.892253 
L 943.258583 172.208689 
L 944.077062 176.154448 
L 944.895541 178.887063 
L 945.5094 180.364657 
L 946.123259 181.330448 
L 946.737118 181.910554 
L 947.760217 182.556839 
L 948.374076 182.858943 
L 948.987935 183.405504 
L 949.601794 183.908517 
L 950.215654 183.937323 
L 950.829513 183.913303 
L 952.261851 184.294261 
L 952.87571 184.359191 
L 953.489569 184.396814 
L 954.103428 184.720559 
L 954.921907 185.181349 
L 956.968105 185.60771 
L 958.195823 185.952848 
L 958.809682 185.808425 
L 959.628161 185.612906 
L 960.855879 185.506747 
L 961.265119 185.681125 
L 961.674358 185.592626 
L 962.083598 185.481167 
L 963.515936 185.609608 
L 964.539034 185.989134 
L 965.562133 186.513214 
L 966.380612 186.646878 
L 967.81295 186.777303 
L 968.22219 186.7632 
L 969.245288 186.499636 
L 970.063767 186.516907 
L 970.677626 186.171587 
L 971.496105 185.853556 
L 972.109964 185.797007 
L 972.723824 186.072991 
L 974.565401 187.087407 
L 978.862415 187.052468 
L 981.931711 185.405574 
L 982.75019 186.385983 
L 983.364049 186.860999 
L 983.977908 186.926496 
L 985.001007 186.906284 
L 985.410247 187.048933 
L 985.819486 186.965392 
L 988.684162 185.585512 
L 989.707261 184.967369 
L 990.52574 184.308429 
L 991.139599 183.727887 
L 992.162698 183.267035 
L 992.571937 182.793231 
L 993.390416 181.203969 
L 993.799655 180.412278 
L 994.004275 180.240174 
L 994.413515 180.351224 
L 994.822754 180.441639 
L 995.845853 180.257952 
L 996.459712 179.506969 
L 997.278191 178.201859 
L 998.301289 176.017703 
L 1000.347487 170.552664 
L 1002.598304 162.991879 
L 1003.212163 161.808904 
L 1004.644501 158.237554 
L 1005.25836 156.344762 
L 1006.486078 151.018083 
L 1007.099938 147.49623 
L 1007.713797 144.205875 
L 1007.918417 143.756777 
L 1008.123036 143.663346 
L 1008.327656 143.825947 
L 1008.736895 144.730593 
L 1009.146135 146.757874 
L 1009.759994 151.587857 
L 1010.169234 155.714558 
L 1011.192332 167.68538 
L 1011.396952 167.835053 
L 1011.601572 166.076834 
L 1011.806191 161.270472 
L 1012.010811 151.727209 
L 1012.215431 135.002184 
L 1012.62467 65.921628 
L 1012.855321 -1 
M 1015.726666 -1 
L 1016.307825 19.351464 
L 1017.126304 41.024609 
L 1017.740163 53.270103 
L 1018.149403 57.623751 
L 1018.354023 58.414258 
L 1018.558642 58.411348 
L 1018.763262 57.617405 
L 1018.967882 55.821893 
L 1019.172501 52.668195 
L 1019.581741 40.605549 
L 1019.99098 17.597896 
L 1020.206482 -1 
M 1022.611786 -1 
L 1022.855657 25.852027 
L 1023.264896 54.866021 
L 1023.878755 80.416597 
L 1024.697234 102.72398 
L 1025.720333 125.48577 
L 1026.538812 139.346332 
L 1027.357291 148.261138 
L 1027.97115 152.929548 
L 1029.198868 160.02259 
L 1030.221967 164.526901 
L 1031.449685 168.356153 
L 1032.677403 171.603535 
L 1033.700502 173.409988 
L 1034.92822 175.071859 
L 1035.746699 175.634956 
L 1036.155939 175.784606 
L 1036.974418 175.921676 
L 1037.383657 176.216895 
L 1038.406756 177.531081 
L 1039.020615 178.700629 
L 1039.634474 179.716161 
L 1041.271432 181.255268 
L 1041.885291 181.456849 
L 1043.522249 181.691016 
L 1043.931488 181.835213 
L 1044.749967 181.585447 
L 1045.159207 181.296202 
L 1045.568446 180.604876 
L 1046.591545 178.209794 
L 1047.000784 178.733667 
L 1050.2747 183.370182 
L 1050.888559 183.853099 
L 1051.911658 184.074583 
L 1053.139376 183.983727 
L 1053.957855 184.155329 
L 1055.594813 183.982913 
L 1056.617911 183.311254 
L 1057.027151 183.398953 
L 1058.05025 184.057694 
L 1058.664109 183.988041 
L 1059.073348 184.076893 
L 1059.687207 184.480151 
L 1060.710306 185.232898 
L 1061.119545 185.235754 
L 1062.756503 184.908642 
L 1063.574982 185.276669 
L 1063.984222 185.266463 
L 1064.393461 185.199309 
L 1065.825799 185.499311 
L 1068.076616 185.739989 
L 1068.690475 185.931942 
L 1069.304335 185.841756 
L 1070.532053 185.402019 
L 1071.350532 185.703611 
L 1071.964391 185.640427 
L 1072.37363 185.61145 
L 1072.98749 185.85474 
L 1073.601349 185.890451 
L 1074.624447 186.169061 
L 1075.852166 186.160738 
L 1077.284504 185.836687 
L 1077.898363 186.041694 
L 1078.716842 186.243534 
L 1080.14918 185.934635 
L 1080.967659 185.700591 
L 1081.376898 185.809977 
L 1081.990758 186.084327 
L 1083.832335 186.129222 
L 1085.060054 185.886471 
L 1086.083152 186.026363 
L 1087.310871 186.227014 
L 1088.129349 186.278664 
L 1088.743209 186.397462 
L 1089.561688 186.280764 
L 1091.198645 186.011537 
L 1092.017124 186.102656 
L 1092.630983 186.288076 
L 1093.654082 186.106752 
L 1094.063321 186.053692 
L 1094.8818 186.071235 
L 1095.29104 186.053053 
L 1096.723378 186.50678 
L 1097.746477 186.198199 
L 1098.155716 186.205746 
L 1098.769575 186.497905 
L 1100.815772 186.524162 
L 1101.634251 186.572774 
L 1102.45273 186.40318 
L 1103.066589 186.320409 
L 1103.680449 186.406725 
L 1104.498928 186.340409 
L 1105.112787 186.390686 
L 1105.726646 186.452802 
L 1106.749745 186.356528 
L 1107.363604 186.598842 
L 1110.842139 186.569829 
L 1111.660618 186.633205 
L 1112.683717 186.428968 
L 1113.297576 186.539531 
L 1114.320674 186.352696 
L 1114.934534 186.426665 
L 1115.548393 186.450795 
L 1116.571491 186.283454 
L 1117.38997 186.575404 
L 1118.00383 186.465972 
L 1119.845407 186.684545 
L 1120.663886 186.693877 
L 1121.482365 186.827687 
L 1122.300844 186.501032 
L 1123.733182 186.52216 
L 1124.756281 186.236382 
L 1125.16552 186.315761 
L 1125.779379 186.513173 
L 1127.416337 186.452497 
L 1129.257914 186.722247 
L 1129.871774 186.948877 
L 1133.554929 186.884822 
L 1133.964168 187.015899 
L 1134.373408 186.874814 
L 1134.782647 186.764409 
L 1135.805746 186.720894 
L 1137.033464 186.57327 
L 1137.647323 186.676333 
L 1140.10276 186.639831 
L 1140.511999 186.612062 
L 1141.535098 186.387856 
L 1142.148957 186.558873 
L 1142.967436 186.862519 
L 1144.399774 186.975868 
L 1145.422873 186.799374 
L 1146.241352 186.556915 
L 1147.059831 186.756271 
L 1148.287549 186.645721 
L 1148.901408 186.511348 
L 1150.129127 186.672872 
L 1150.538366 186.765294 
L 1150.947606 186.654283 
L 1151.561465 186.328224 
L 1151.970704 186.426955 
L 1152.584563 186.589216 
L 1155.24462 186.572299 
L 1156.063099 186.791203 
L 1156.676958 186.737422 
L 1157.290817 186.699309 
L 1158.518535 186.881315 
L 1161.792451 186.990886 
L 1162.40631 187.260953 
L 1162.81555 187.143764 
L 1163.429409 186.757473 
L 1163.838648 186.690141 
L 1165.270986 186.873255 
L 1167.521803 186.897969 
L 1168.135663 186.712838 
L 1168.954141 186.652926 
L 1169.568001 186.592868 
L 1170.795719 186.723225 
L 1171.409578 186.560973 
L 1172.023437 186.490433 
L 1172.841916 186.115937 
L 1173.251156 186.372333 
L 1174.069635 186.876668 
L 1174.478874 186.91113 
L 1175.092733 186.781262 
L 1175.706592 186.757691 
L 1176.320452 186.724176 
L 1176.934311 186.646904 
L 1178.366649 186.328823 
L 1178.775888 186.378033 
L 1179.798987 186.598022 
L 1182.049804 186.818216 
L 1182.868283 186.735456 
L 1184.505241 186.826876 
L 1184.70986 186.834611 
L 1184.70986 186.834611 
" clip-path="url(#pa7bcaa3af0)" style="fill: none; stroke: #000000; stroke-width: 2; stroke-linecap: square"/>
   </g>
   <g id="patch_3">
    <path d="M 3.00024 198.907885 
L 1184.99976 198.907885 
" style="fill: none; stroke: #000000; stroke-width: 2; stroke-linejoin: miter; stroke-linecap: square"/>
   </g>
  </g>
 </g>
 <defs>
  <clipPath id="pa7bcaa3af0">
   <rect x="3.00024" y="3.00024" width="1181.99952" height="195.907645"/>
  </clipPath>
 </defs>
</svg>
