<?xml version="1.0" encoding="utf-8" standalone="no"?>
<!DOCTYPE svg PUBLIC "-//W3C//DTD SVG 1.1//EN"
  "http://www.w3.org/Graphics/SVG/1.1/DTD/svg11.dtd">
<svg xmlns:xlink="http://www.w3.org/1999/xlink" width="1188pt" height="252pt" viewBox="0 0 1188 252" xmlns="http://www.w3.org/2000/svg" version="1.1">
 <metadata>
  <rdf:RDF xmlns:dc="http://purl.org/dc/elements/1.1/" xmlns:cc="http://creativecommons.org/ns#" xmlns:rdf="http://www.w3.org/1999/02/22-rdf-syntax-ns#">
   <cc:Work>
    <dc:type rdf:resource="http://purl.org/dc/dcmitype/StillImage"/>
    <dc:date>2024-05-14T23:08:06.060101</dc:date>
    <dc:format>image/svg+xml</dc:format>
    <dc:creator>
     <cc:Agent>
      <dc:title>Matplotlib v3.8.0, https://matplotlib.org/</dc:title>
     </cc:Agent>
    </dc:creator>
   </cc:Work>
  </rdf:RDF>
 </metadata>
 <defs>
  <style type="text/css">*{stroke-linejoin: round; stroke-linecap: butt}</style>
 </defs>
 <g id="figure_1">
  <g id="patch_1">
   <path d="M 0 252 
L 1188 252 
L 1188 0 
L 0 0 
z
" style="fill: #ffffff"/>
  </g>
  <g id="axes_1">
   <g id="patch_2">
    <path d="M 3.00024 198.907885 
L 1184.99976 198.907885 
L 1184.99976 3.00024 
L 3.00024 3.00024 
z
" style="fill: #ffffff"/>
   </g>
   <g id="matplotlib.axis_1">
    <g id="xtick_1">
     <g id="line2d_1">
      <defs>
       <path id="m2ffa257776" d="M 0 0 
L 0 8 
" style="stroke: #000000; stroke-width: 2"/>
      </defs>
      <g>
       <use xlink:href="#m2ffa257776" x="1131.272509" y="198.907885" style="stroke: #000000; stroke-width: 2"/>
      </g>
     </g>
     <g id="text_1">
      <!-- 0 -->
      <g transform="translate(1126.267665 224.791947) scale(0.18 -0.18)">
       <defs>
        <path id="Arial-BoldMT-30" d="M 1756 4600 
Q 2422 4600 2797 4125 
Q 3244 3563 3244 2259 
Q 3244 959 2794 391 
Q 2422 -78 1756 -78 
Q 1088 -78 678 436 
Q 269 950 269 2269 
Q 269 3563 719 4131 
Q 1091 4600 1756 4600 
z
M 1756 3872 
Q 1597 3872 1472 3770 
Q 1347 3669 1278 3406 
Q 1188 3066 1188 2259 
Q 1188 1453 1269 1151 
Q 1350 850 1473 750 
Q 1597 650 1756 650 
Q 1916 650 2041 751 
Q 2166 853 2234 1116 
Q 2325 1453 2325 2259 
Q 2325 3066 2244 3367 
Q 2163 3669 2039 3770 
Q 1916 3872 1756 3872 
z
" transform="scale(0.015625)"/>
       </defs>
       <use xlink:href="#Arial-BoldMT-30"/>
      </g>
     </g>
    </g>
    <g id="xtick_2">
     <g id="line2d_2">
      <g>
       <use xlink:href="#m2ffa257776" x="1023.818007" y="198.907885" style="stroke: #000000; stroke-width: 2"/>
      </g>
     </g>
     <g id="text_2">
      <!-- 1 -->
      <g transform="translate(1018.813164 224.791947) scale(0.18 -0.18)">
       <defs>
        <path id="Arial-BoldMT-31" d="M 2519 0 
L 1641 0 
L 1641 3309 
Q 1159 2859 506 2644 
L 506 3441 
Q 850 3553 1253 3867 
Q 1656 4181 1806 4600 
L 2519 4600 
L 2519 0 
z
" transform="scale(0.015625)"/>
       </defs>
       <use xlink:href="#Arial-BoldMT-31"/>
      </g>
     </g>
    </g>
    <g id="xtick_3">
     <g id="line2d_3">
      <g>
       <use xlink:href="#m2ffa257776" x="916.363505" y="198.907885" style="stroke: #000000; stroke-width: 2"/>
      </g>
     </g>
     <g id="text_3">
      <!-- 2 -->
      <g transform="translate(911.358662 224.791947) scale(0.18 -0.18)">
       <defs>
        <path id="Arial-BoldMT-32" d="M 3238 816 
L 3238 0 
L 159 0 
Q 209 463 459 877 
Q 709 1291 1447 1975 
Q 2041 2528 2175 2725 
Q 2356 2997 2356 3263 
Q 2356 3556 2198 3714 
Q 2041 3872 1763 3872 
Q 1488 3872 1325 3706 
Q 1163 3541 1138 3156 
L 263 3244 
Q 341 3969 753 4284 
Q 1166 4600 1784 4600 
Q 2463 4600 2850 4234 
Q 3238 3869 3238 3325 
Q 3238 3016 3127 2736 
Q 3016 2456 2775 2150 
Q 2616 1947 2200 1565 
Q 1784 1184 1673 1059 
Q 1563 934 1494 816 
L 3238 816 
z
" transform="scale(0.015625)"/>
       </defs>
       <use xlink:href="#Arial-BoldMT-32"/>
      </g>
     </g>
    </g>
    <g id="xtick_4">
     <g id="line2d_4">
      <g>
       <use xlink:href="#m2ffa257776" x="808.909004" y="198.907885" style="stroke: #000000; stroke-width: 2"/>
      </g>
     </g>
     <g id="text_4">
      <!-- 3 -->
      <g transform="translate(803.90416 224.791947) scale(0.18 -0.18)">
       <defs>
        <path id="Arial-BoldMT-33" d="M 241 1216 
L 1091 1319 
Q 1131 994 1309 822 
Q 1488 650 1741 650 
Q 2013 650 2198 856 
Q 2384 1063 2384 1413 
Q 2384 1744 2206 1937 
Q 2028 2131 1772 2131 
Q 1603 2131 1369 2066 
L 1466 2781 
Q 1822 2772 2009 2936 
Q 2197 3100 2197 3372 
Q 2197 3603 2059 3740 
Q 1922 3878 1694 3878 
Q 1469 3878 1309 3722 
Q 1150 3566 1116 3266 
L 306 3403 
Q 391 3819 561 4067 
Q 731 4316 1036 4458 
Q 1341 4600 1719 4600 
Q 2366 4600 2756 4188 
Q 3078 3850 3078 3425 
Q 3078 2822 2419 2463 
Q 2813 2378 3048 2084 
Q 3284 1791 3284 1375 
Q 3284 772 2843 347 
Q 2403 -78 1747 -78 
Q 1125 -78 715 280 
Q 306 638 241 1216 
z
" transform="scale(0.015625)"/>
       </defs>
       <use xlink:href="#Arial-BoldMT-33"/>
      </g>
     </g>
    </g>
    <g id="xtick_5">
     <g id="line2d_5">
      <g>
       <use xlink:href="#m2ffa257776" x="701.454502" y="198.907885" style="stroke: #000000; stroke-width: 2"/>
      </g>
     </g>
     <g id="text_5">
      <!-- 4 -->
      <g transform="translate(696.449658 224.791947) scale(0.18 -0.18)">
       <defs>
        <path id="Arial-BoldMT-34" d="M 1994 0 
L 1994 922 
L 119 922 
L 119 1691 
L 2106 4600 
L 2844 4600 
L 2844 1694 
L 3413 1694 
L 3413 922 
L 2844 922 
L 2844 0 
L 1994 0 
z
M 1994 1694 
L 1994 3259 
L 941 1694 
L 1994 1694 
z
" transform="scale(0.015625)"/>
       </defs>
       <use xlink:href="#Arial-BoldMT-34"/>
      </g>
     </g>
    </g>
    <g id="xtick_6">
     <g id="line2d_6">
      <g>
       <use xlink:href="#m2ffa257776" x="594" y="198.907885" style="stroke: #000000; stroke-width: 2"/>
      </g>
     </g>
     <g id="text_6">
      <!-- 5 -->
      <g transform="translate(588.995156 224.791947) scale(0.18 -0.18)">
       <defs>
        <path id="Arial-BoldMT-35" d="M 284 1178 
L 1159 1269 
Q 1197 972 1381 798 
Q 1566 625 1806 625 
Q 2081 625 2272 848 
Q 2463 1072 2463 1522 
Q 2463 1944 2273 2155 
Q 2084 2366 1781 2366 
Q 1403 2366 1103 2031 
L 391 2134 
L 841 4519 
L 3163 4519 
L 3163 3697 
L 1506 3697 
L 1369 2919 
Q 1663 3066 1969 3066 
Q 2553 3066 2959 2641 
Q 3366 2216 3366 1538 
Q 3366 972 3038 528 
Q 2591 -78 1797 -78 
Q 1163 -78 763 262 
Q 363 603 284 1178 
z
" transform="scale(0.015625)"/>
       </defs>
       <use xlink:href="#Arial-BoldMT-35"/>
      </g>
     </g>
    </g>
    <g id="xtick_7">
     <g id="line2d_7">
      <g>
       <use xlink:href="#m2ffa257776" x="486.545498" y="198.907885" style="stroke: #000000; stroke-width: 2"/>
      </g>
     </g>
     <g id="text_7">
      <!-- 6 -->
      <g transform="translate(481.540654 224.791947) scale(0.18 -0.18)">
       <defs>
        <path id="Arial-BoldMT-36" d="M 3247 3459 
L 2397 3366 
Q 2366 3628 2234 3753 
Q 2103 3878 1894 3878 
Q 1616 3878 1423 3628 
Q 1231 3378 1181 2588 
Q 1509 2975 1997 2975 
Q 2547 2975 2939 2556 
Q 3331 2138 3331 1475 
Q 3331 772 2918 347 
Q 2506 -78 1859 -78 
Q 1166 -78 719 461 
Q 272 1000 272 2228 
Q 272 3488 737 4044 
Q 1203 4600 1947 4600 
Q 2469 4600 2811 4308 
Q 3153 4016 3247 3459 
z
M 1256 1544 
Q 1256 1116 1453 883 
Q 1650 650 1903 650 
Q 2147 650 2309 840 
Q 2472 1031 2472 1466 
Q 2472 1913 2297 2120 
Q 2122 2328 1859 2328 
Q 1606 2328 1431 2129 
Q 1256 1931 1256 1544 
z
" transform="scale(0.015625)"/>
       </defs>
       <use xlink:href="#Arial-BoldMT-36"/>
      </g>
     </g>
    </g>
    <g id="xtick_8">
     <g id="line2d_8">
      <g>
       <use xlink:href="#m2ffa257776" x="379.090996" y="198.907885" style="stroke: #000000; stroke-width: 2"/>
      </g>
     </g>
     <g id="text_8">
      <!-- 7 -->
      <g transform="translate(374.086153 224.791947) scale(0.18 -0.18)">
       <defs>
        <path id="Arial-BoldMT-37" d="M 272 3703 
L 272 4519 
L 3275 4519 
L 3275 3881 
Q 2903 3516 2518 2831 
Q 2134 2147 1932 1376 
Q 1731 606 1734 0 
L 888 0 
Q 909 950 1279 1937 
Q 1650 2925 2269 3703 
L 272 3703 
z
" transform="scale(0.015625)"/>
       </defs>
       <use xlink:href="#Arial-BoldMT-37"/>
      </g>
     </g>
    </g>
    <g id="xtick_9">
     <g id="line2d_9">
      <g>
       <use xlink:href="#m2ffa257776" x="271.636495" y="198.907885" style="stroke: #000000; stroke-width: 2"/>
      </g>
     </g>
     <g id="text_9">
      <!-- 8 -->
      <g transform="translate(266.631651 224.791947) scale(0.18 -0.18)">
       <defs>
        <path id="Arial-BoldMT-38" d="M 1025 2472 
Q 684 2616 529 2867 
Q 375 3119 375 3419 
Q 375 3931 733 4265 
Q 1091 4600 1750 4600 
Q 2403 4600 2764 4265 
Q 3125 3931 3125 3419 
Q 3125 3100 2959 2851 
Q 2794 2603 2494 2472 
Q 2875 2319 3073 2025 
Q 3272 1731 3272 1347 
Q 3272 713 2867 316 
Q 2463 -81 1791 -81 
Q 1166 -81 750 247 
Q 259 634 259 1309 
Q 259 1681 443 1992 
Q 628 2303 1025 2472 
z
M 1206 3356 
Q 1206 3094 1354 2947 
Q 1503 2800 1750 2800 
Q 2000 2800 2150 2948 
Q 2300 3097 2300 3359 
Q 2300 3606 2151 3754 
Q 2003 3903 1759 3903 
Q 1506 3903 1356 3753 
Q 1206 3603 1206 3356 
z
M 1125 1394 
Q 1125 1031 1311 828 
Q 1497 625 1775 625 
Q 2047 625 2225 820 
Q 2403 1016 2403 1384 
Q 2403 1706 2222 1901 
Q 2041 2097 1763 2097 
Q 1441 2097 1283 1875 
Q 1125 1653 1125 1394 
z
" transform="scale(0.015625)"/>
       </defs>
       <use xlink:href="#Arial-BoldMT-38"/>
      </g>
     </g>
    </g>
    <g id="xtick_10">
     <g id="line2d_10">
      <g>
       <use xlink:href="#m2ffa257776" x="164.181993" y="198.907885" style="stroke: #000000; stroke-width: 2"/>
      </g>
     </g>
     <g id="text_10">
      <!-- 9 -->
      <g transform="translate(159.177149 224.791947) scale(0.18 -0.18)">
       <defs>
        <path id="Arial-BoldMT-39" d="M 291 1059 
L 1141 1153 
Q 1172 894 1303 769 
Q 1434 644 1650 644 
Q 1922 644 2112 894 
Q 2303 1144 2356 1931 
Q 2025 1547 1528 1547 
Q 988 1547 595 1964 
Q 203 2381 203 3050 
Q 203 3747 617 4173 
Q 1031 4600 1672 4600 
Q 2369 4600 2816 4061 
Q 3263 3522 3263 2288 
Q 3263 1031 2797 475 
Q 2331 -81 1584 -81 
Q 1047 -81 715 205 
Q 384 491 291 1059 
z
M 2278 2978 
Q 2278 3403 2083 3637 
Q 1888 3872 1631 3872 
Q 1388 3872 1227 3680 
Q 1066 3488 1066 3050 
Q 1066 2606 1241 2398 
Q 1416 2191 1678 2191 
Q 1931 2191 2104 2391 
Q 2278 2591 2278 2978 
z
" transform="scale(0.015625)"/>
       </defs>
       <use xlink:href="#Arial-BoldMT-39"/>
      </g>
     </g>
    </g>
    <g id="xtick_11">
     <g id="line2d_11">
      <g>
       <use xlink:href="#m2ffa257776" x="56.727491" y="198.907885" style="stroke: #000000; stroke-width: 2"/>
      </g>
     </g>
     <g id="text_11">
      <!-- 10 -->
      <g transform="translate(46.717803 224.791947) scale(0.18 -0.18)">
       <use xlink:href="#Arial-BoldMT-31"/>
       <use xlink:href="#Arial-BoldMT-30" x="55.615234"/>
      </g>
     </g>
    </g>
    <g id="text_12">
     <!-- Chemical Shift / ppm -->
     <g transform="translate(504.992813 245.447573) scale(0.18 -0.18)">
      <defs>
       <path id="Arial-BoldMT-43" d="M 3397 1684 
L 4294 1400 
Q 4088 650 3608 286 
Q 3128 -78 2391 -78 
Q 1478 -78 890 545 
Q 303 1169 303 2250 
Q 303 3394 893 4026 
Q 1484 4659 2447 4659 
Q 3288 4659 3813 4163 
Q 4125 3869 4281 3319 
L 3366 3100 
Q 3284 3456 3026 3662 
Q 2769 3869 2400 3869 
Q 1891 3869 1573 3503 
Q 1256 3138 1256 2319 
Q 1256 1450 1568 1081 
Q 1881 713 2381 713 
Q 2750 713 3015 947 
Q 3281 1181 3397 1684 
z
" transform="scale(0.015625)"/>
       <path id="Arial-BoldMT-68" d="M 1334 4581 
L 1334 2897 
Q 1759 3394 2350 3394 
Q 2653 3394 2897 3281 
Q 3141 3169 3264 2994 
Q 3388 2819 3433 2606 
Q 3478 2394 3478 1947 
L 3478 0 
L 2600 0 
L 2600 1753 
Q 2600 2275 2550 2415 
Q 2500 2556 2373 2639 
Q 2247 2722 2056 2722 
Q 1838 2722 1666 2615 
Q 1494 2509 1414 2295 
Q 1334 2081 1334 1663 
L 1334 0 
L 456 0 
L 456 4581 
L 1334 4581 
z
" transform="scale(0.015625)"/>
       <path id="Arial-BoldMT-65" d="M 2381 1056 
L 3256 909 
Q 3088 428 2723 176 
Q 2359 -75 1813 -75 
Q 947 -75 531 491 
Q 203 944 203 1634 
Q 203 2459 634 2926 
Q 1066 3394 1725 3394 
Q 2466 3394 2894 2905 
Q 3322 2416 3303 1406 
L 1103 1406 
Q 1113 1016 1316 798 
Q 1519 581 1822 581 
Q 2028 581 2168 693 
Q 2309 806 2381 1056 
z
M 2431 1944 
Q 2422 2325 2234 2523 
Q 2047 2722 1778 2722 
Q 1491 2722 1303 2513 
Q 1116 2303 1119 1944 
L 2431 1944 
z
" transform="scale(0.015625)"/>
       <path id="Arial-BoldMT-6d" d="M 394 3319 
L 1203 3319 
L 1203 2866 
Q 1638 3394 2238 3394 
Q 2556 3394 2790 3262 
Q 3025 3131 3175 2866 
Q 3394 3131 3647 3262 
Q 3900 3394 4188 3394 
Q 4553 3394 4806 3245 
Q 5059 3097 5184 2809 
Q 5275 2597 5275 2122 
L 5275 0 
L 4397 0 
L 4397 1897 
Q 4397 2391 4306 2534 
Q 4184 2722 3931 2722 
Q 3747 2722 3584 2609 
Q 3422 2497 3350 2280 
Q 3278 2063 3278 1594 
L 3278 0 
L 2400 0 
L 2400 1819 
Q 2400 2303 2353 2443 
Q 2306 2584 2207 2653 
Q 2109 2722 1941 2722 
Q 1738 2722 1575 2612 
Q 1413 2503 1342 2297 
Q 1272 2091 1272 1613 
L 1272 0 
L 394 0 
L 394 3319 
z
" transform="scale(0.015625)"/>
       <path id="Arial-BoldMT-69" d="M 459 3769 
L 459 4581 
L 1338 4581 
L 1338 3769 
L 459 3769 
z
M 459 0 
L 459 3319 
L 1338 3319 
L 1338 0 
L 459 0 
z
" transform="scale(0.015625)"/>
       <path id="Arial-BoldMT-63" d="M 3353 2338 
L 2488 2181 
Q 2444 2441 2289 2572 
Q 2134 2703 1888 2703 
Q 1559 2703 1364 2476 
Q 1169 2250 1169 1719 
Q 1169 1128 1367 884 
Q 1566 641 1900 641 
Q 2150 641 2309 783 
Q 2469 925 2534 1272 
L 3397 1125 
Q 3263 531 2881 228 
Q 2500 -75 1859 -75 
Q 1131 -75 698 384 
Q 266 844 266 1656 
Q 266 2478 700 2936 
Q 1134 3394 1875 3394 
Q 2481 3394 2839 3133 
Q 3197 2872 3353 2338 
z
" transform="scale(0.015625)"/>
       <path id="Arial-BoldMT-61" d="M 1116 2306 
L 319 2450 
Q 453 2931 781 3162 
Q 1109 3394 1756 3394 
Q 2344 3394 2631 3255 
Q 2919 3116 3036 2902 
Q 3153 2688 3153 2116 
L 3144 1091 
Q 3144 653 3186 445 
Q 3228 238 3344 0 
L 2475 0 
Q 2441 88 2391 259 
Q 2369 338 2359 363 
Q 2134 144 1878 34 
Q 1622 -75 1331 -75 
Q 819 -75 523 203 
Q 228 481 228 906 
Q 228 1188 362 1408 
Q 497 1628 739 1745 
Q 981 1863 1438 1950 
Q 2053 2066 2291 2166 
L 2291 2253 
Q 2291 2506 2166 2614 
Q 2041 2722 1694 2722 
Q 1459 2722 1328 2630 
Q 1197 2538 1116 2306 
z
M 2291 1594 
Q 2122 1538 1756 1459 
Q 1391 1381 1278 1306 
Q 1106 1184 1106 997 
Q 1106 813 1243 678 
Q 1381 544 1594 544 
Q 1831 544 2047 700 
Q 2206 819 2256 991 
Q 2291 1103 2291 1419 
L 2291 1594 
z
" transform="scale(0.015625)"/>
       <path id="Arial-BoldMT-6c" d="M 459 0 
L 459 4581 
L 1338 4581 
L 1338 0 
L 459 0 
z
" transform="scale(0.015625)"/>
       <path id="Arial-BoldMT-20" transform="scale(0.015625)"/>
       <path id="Arial-BoldMT-53" d="M 231 1491 
L 1131 1578 
Q 1213 1125 1461 912 
Q 1709 700 2131 700 
Q 2578 700 2804 889 
Q 3031 1078 3031 1331 
Q 3031 1494 2936 1608 
Q 2841 1722 2603 1806 
Q 2441 1863 1863 2006 
Q 1119 2191 819 2459 
Q 397 2838 397 3381 
Q 397 3731 595 4036 
Q 794 4341 1167 4500 
Q 1541 4659 2069 4659 
Q 2931 4659 3367 4281 
Q 3803 3903 3825 3272 
L 2900 3231 
Q 2841 3584 2645 3739 
Q 2450 3894 2059 3894 
Q 1656 3894 1428 3728 
Q 1281 3622 1281 3444 
Q 1281 3281 1419 3166 
Q 1594 3019 2269 2859 
Q 2944 2700 3267 2529 
Q 3591 2359 3773 2064 
Q 3956 1769 3956 1334 
Q 3956 941 3737 597 
Q 3519 253 3119 86 
Q 2719 -81 2122 -81 
Q 1253 -81 787 320 
Q 322 722 231 1491 
z
" transform="scale(0.015625)"/>
       <path id="Arial-BoldMT-66" d="M 75 3319 
L 563 3319 
L 563 3569 
Q 563 3988 652 4194 
Q 741 4400 980 4529 
Q 1219 4659 1584 4659 
Q 1959 4659 2319 4547 
L 2200 3934 
Q 1991 3984 1797 3984 
Q 1606 3984 1523 3895 
Q 1441 3806 1441 3553 
L 1441 3319 
L 2097 3319 
L 2097 2628 
L 1441 2628 
L 1441 0 
L 563 0 
L 563 2628 
L 75 2628 
L 75 3319 
z
" transform="scale(0.015625)"/>
       <path id="Arial-BoldMT-74" d="M 1981 3319 
L 1981 2619 
L 1381 2619 
L 1381 1281 
Q 1381 875 1398 808 
Q 1416 741 1477 697 
Q 1538 653 1625 653 
Q 1747 653 1978 738 
L 2053 56 
Q 1747 -75 1359 -75 
Q 1122 -75 931 4 
Q 741 84 652 211 
Q 563 338 528 553 
Q 500 706 500 1172 
L 500 2619 
L 97 2619 
L 97 3319 
L 500 3319 
L 500 3978 
L 1381 4491 
L 1381 3319 
L 1981 3319 
z
" transform="scale(0.015625)"/>
       <path id="Arial-BoldMT-2f" d="M -9 -78 
L 1125 4659 
L 1784 4659 
L 638 -78 
L -9 -78 
z
" transform="scale(0.015625)"/>
       <path id="Arial-BoldMT-70" d="M 434 3319 
L 1253 3319 
L 1253 2831 
Q 1413 3081 1684 3237 
Q 1956 3394 2288 3394 
Q 2866 3394 3269 2941 
Q 3672 2488 3672 1678 
Q 3672 847 3265 386 
Q 2859 -75 2281 -75 
Q 2006 -75 1782 34 
Q 1559 144 1313 409 
L 1313 -1263 
L 434 -1263 
L 434 3319 
z
M 1303 1716 
Q 1303 1156 1525 889 
Q 1747 622 2066 622 
Q 2372 622 2575 867 
Q 2778 1113 2778 1672 
Q 2778 2194 2568 2447 
Q 2359 2700 2050 2700 
Q 1728 2700 1515 2451 
Q 1303 2203 1303 1716 
z
" transform="scale(0.015625)"/>
      </defs>
      <use xlink:href="#Arial-BoldMT-43"/>
      <use xlink:href="#Arial-BoldMT-68" x="72.216797"/>
      <use xlink:href="#Arial-BoldMT-65" x="133.300781"/>
      <use xlink:href="#Arial-BoldMT-6d" x="188.916016"/>
      <use xlink:href="#Arial-BoldMT-69" x="277.832031"/>
      <use xlink:href="#Arial-BoldMT-63" x="305.615234"/>
      <use xlink:href="#Arial-BoldMT-61" x="361.230469"/>
      <use xlink:href="#Arial-BoldMT-6c" x="416.845703"/>
      <use xlink:href="#Arial-BoldMT-20" x="444.628906"/>
      <use xlink:href="#Arial-BoldMT-53" x="472.412109"/>
      <use xlink:href="#Arial-BoldMT-68" x="539.111328"/>
      <use xlink:href="#Arial-BoldMT-69" x="600.195312"/>
      <use xlink:href="#Arial-BoldMT-66" x="627.978516"/>
      <use xlink:href="#Arial-BoldMT-74" x="661.279297"/>
      <use xlink:href="#Arial-BoldMT-20" x="694.580078"/>
      <use xlink:href="#Arial-BoldMT-2f" x="722.363281"/>
      <use xlink:href="#Arial-BoldMT-20" x="750.146484"/>
      <use xlink:href="#Arial-BoldMT-70" x="777.929688"/>
      <use xlink:href="#Arial-BoldMT-70" x="839.013672"/>
      <use xlink:href="#Arial-BoldMT-6d" x="900.097656"/>
     </g>
    </g>
   </g>
   <g id="matplotlib.axis_2"/>
   <g id="line2d_12">
    <path d="M 3.004228 189.844978 
L 3.413467 189.894237 
L 4.436566 190.368516 
L 5.664284 190.491305 
L 6.073524 190.482975 
L 7.505862 189.932389 
L 8.119721 189.687155 
L 8.9382 189.815266 
L 9.552059 189.752544 
L 10.370538 190.051547 
L 11.189017 189.756305 
L 11.802876 189.997376 
L 12.212116 189.857811 
L 12.621355 189.62648 
L 13.030595 189.613035 
L 13.849073 189.768299 
L 14.667552 189.64668 
L 15.076792 189.632461 
L 16.09989 189.929515 
L 17.532229 190.001068 
L 18.759947 190.474855 
L 19.783046 190.217865 
L 22.033863 190.635393 
L 22.647722 190.337518 
L 23.67082 190.282717 
L 24.489299 190.140471 
L 24.898539 190.115035 
L 25.307778 190.188053 
L 25.921637 190.110831 
L 26.740116 190.580851 
L 27.353975 190.38433 
L 29.195553 190.671624 
L 30.014032 190.31443 
L 30.423271 190.274587 
L 31.24175 189.898201 
L 31.65099 190.053833 
L 32.469469 190.637501 
L 32.878708 190.546834 
L 33.492567 190.222 
L 34.106426 190.246824 
L 35.948004 190.335173 
L 36.357243 190.492374 
L 36.971103 190.311257 
L 38.81268 190.892501 
L 39.22192 190.633004 
L 40.040398 189.865058 
L 40.449638 189.86426 
L 41.881976 190.391215 
L 42.291215 190.325445 
L 42.700455 190.110539 
L 43.109694 190.137597 
L 43.723554 190.273422 
L 44.337413 190.201889 
L 44.746652 189.986457 
L 45.155892 190.113629 
L 45.565131 190.309047 
L 46.38361 190.387554 
L 46.997469 190.242822 
L 48.020568 190.515713 
L 49.043666 190.430794 
L 50.476005 189.924661 
L 51.294483 190.068812 
L 51.703723 190.232186 
L 51.908343 190.196757 
L 52.522202 189.821594 
L 53.5453 189.960547 
L 54.363779 190.444816 
L 54.773019 190.383862 
L 55.591498 190.089211 
L 56.000737 190.050726 
L 56.819216 190.360874 
L 58.251554 190.004677 
L 59.070033 189.602457 
L 59.683892 189.217067 
L 60.093132 189.232306 
L 60.911611 189.644311 
L 61.32085 189.752761 
L 62.343949 189.710391 
L 62.753188 189.982996 
L 63.162428 190.279984 
L 63.571667 190.247023 
L 66.436343 189.678396 
L 67.254822 189.834369 
L 67.664062 189.793048 
L 68.073301 189.830832 
L 68.482541 189.767275 
L 69.301019 190.185134 
L 70.324118 190.17885 
L 71.551836 189.534311 
L 72.165696 189.634122 
L 72.984175 189.918061 
L 74.211893 190.503797 
L 74.621132 190.428006 
L 75.439611 190.027875 
L 75.848851 190.217724 
L 76.46271 190.689067 
L 76.871949 190.664693 
L 77.281189 190.553163 
L 77.895048 190.498579 
L 78.304287 190.401879 
L 79.736625 190.589428 
L 81.578203 190.168564 
L 82.601302 190.225764 
L 83.215161 190.158175 
L 84.03364 190.181418 
L 84.442879 190.015128 
L 84.852119 189.722 
L 85.261358 189.750179 
L 85.875217 190.070156 
L 86.284457 190.300666 
L 86.693696 190.274862 
L 87.102936 190.053252 
L 87.512175 189.803045 
L 87.716795 189.853827 
L 88.330654 190.295794 
L 88.739893 190.387513 
L 89.558372 190.74242 
L 90.376851 190.972084 
L 90.786091 190.978348 
L 91.60457 190.617149 
L 92.013809 190.551939 
L 92.423049 190.597919 
L 92.832288 190.375223 
L 93.241527 190.017627 
L 93.650767 190.028889 
L 94.469246 190.303282 
L 95.287725 191.071373 
L 95.696964 190.891205 
L 96.310823 190.577141 
L 97.538542 190.462228 
L 97.947781 190.452971 
L 98.357021 190.311329 
L 99.380119 190.485258 
L 99.993978 190.268953 
L 101.426317 190.70971 
L 102.449415 190.497857 
L 103.881753 190.930453 
L 104.290993 190.682765 
L 104.700232 190.736487 
L 105.314091 190.955473 
L 106.746429 190.546085 
L 106.951049 190.559898 
L 107.769528 190.990548 
L 108.588007 190.7455 
L 109.406486 190.406548 
L 110.634204 190.610962 
L 111.452683 190.704076 
L 112.680402 190.655281 
L 113.089641 190.538625 
L 113.90812 190.239759 
L 114.521979 190.441994 
L 115.135838 190.253235 
L 115.545078 190.428246 
L 115.954317 190.585337 
L 116.568176 190.520677 
L 116.977416 190.756563 
L 117.386655 190.987458 
L 117.795895 190.792463 
L 118.205134 190.618834 
L 119.432852 190.332771 
L 119.842092 190.194278 
L 120.660571 190.419525 
L 121.06981 190.629622 
L 121.47905 190.581762 
L 122.092909 190.458588 
L 122.502148 190.656786 
L 122.911388 190.903034 
L 124.343726 191.006599 
L 124.752965 191.005506 
L 125.162205 190.782738 
L 125.776064 190.375945 
L 126.594543 190.55241 
L 128.231501 190.403179 
L 128.84536 190.487396 
L 129.459219 190.728271 
L 129.868459 190.802433 
L 131.096177 190.284055 
L 131.710036 190.121423 
L 132.323895 190.235796 
L 132.937754 190.491562 
L 133.346994 190.504344 
L 134.370093 190.347587 
L 135.188571 190.535363 
L 135.802431 190.561861 
L 136.825529 190.150925 
L 137.439388 190.087585 
L 138.257867 189.813134 
L 138.871727 190.259966 
L 139.485586 190.683958 
L 139.894825 190.552654 
L 140.508684 190.426992 
L 141.531783 190.484519 
L 142.350262 190.981167 
L 143.373361 190.949261 
L 143.98722 190.667375 
L 144.396459 190.668767 
L 145.828797 190.259684 
L 146.851896 190.534661 
L 147.261135 190.360506 
L 147.874995 189.972053 
L 149.921192 189.861135 
L 150.739671 190.014733 
L 151.762769 189.927095 
L 152.376629 190.09335 
L 152.990488 190.185639 
L 153.604347 190.151334 
L 154.013586 190.038157 
L 154.627445 190.333451 
L 155.241305 190.624678 
L 156.264403 190.853555 
L 157.287502 190.637851 
L 158.105981 190.335978 
L 158.71984 190.516304 
L 159.129079 190.569069 
L 159.742939 190.702329 
L 160.766037 190.440567 
L 161.993756 189.967794 
L 162.402995 190.06074 
L 163.221474 190.497156 
L 163.630713 190.490511 
L 164.653812 190.251348 
L 165.676911 190.019092 
L 166.08615 189.968619 
L 166.904629 190.005918 
L 167.927728 189.882618 
L 168.950826 190.114764 
L 169.564686 190.176227 
L 170.792404 189.817645 
L 171.406263 189.941966 
L 172.633981 189.556965 
L 173.45246 189.222289 
L 174.270939 188.908933 
L 175.498658 187.784532 
L 176.521756 186.500893 
L 177.544855 186.174298 
L 177.954094 186.471583 
L 178.977193 187.466842 
L 180.000292 187.910113 
L 180.614151 188.401487 
L 181.02339 188.352393 
L 181.637249 188.134163 
L 182.660348 188.015372 
L 183.274207 187.646528 
L 183.683447 187.504798 
L 184.501926 186.934606 
L 184.911165 187.158189 
L 186.343503 188.521003 
L 186.957362 189.122736 
L 187.366602 189.586705 
L 187.775841 189.675629 
L 188.185081 189.611635 
L 188.59432 189.792659 
L 189.412799 189.563559 
L 190.640517 189.216376 
L 191.458996 189.500831 
L 192.072856 189.50629 
L 192.891334 189.644428 
L 193.300574 190.047271 
L 193.505194 190.120928 
L 193.914433 189.921237 
L 194.323672 189.756604 
L 194.732912 190.075003 
L 195.142151 190.413973 
L 195.551391 190.318095 
L 196.574489 189.878403 
L 197.392968 190.297169 
L 198.006828 190.323788 
L 199.029926 190.579101 
L 200.053025 190.318232 
L 203.32694 190.231746 
L 204.145419 190.772428 
L 204.963898 191.064343 
L 205.782377 191.042819 
L 206.191617 190.699194 
L 207.010096 189.744311 
L 207.623955 189.636129 
L 208.237814 189.817304 
L 208.647053 189.986684 
L 209.056293 189.936109 
L 209.670152 189.49489 
L 212.125589 185.976193 
L 212.739448 184.674852 
L 213.557927 182.724214 
L 213.967166 182.236092 
L 214.581025 181.690442 
L 215.194885 181.041709 
L 215.604124 181.086437 
L 216.013364 181.151837 
L 216.627223 180.994286 
L 217.036462 181.250235 
L 217.445702 181.195716 
L 217.650321 181.037921 
L 218.264181 179.967987 
L 218.87804 178.741207 
L 219.287279 177.300024 
L 219.696519 174.935762 
L 220.105758 171.480755 
L 220.514998 166.344316 
L 220.924237 157.97648 
L 221.333476 143.763073 
L 221.947336 114.18828 
L 222.151955 110.689924 
L 222.356575 113.035955 
L 222.765815 120.577482 
L 222.970434 121.612812 
L 223.175054 120.897837 
L 223.584293 116.012314 
L 223.993533 107.334051 
L 224.607392 85.811879 
L 225.016632 74.814444 
L 225.221251 74.431065 
L 225.83511 81.192999 
L 226.03973 80.793436 
L 226.44897 77.678557 
L 226.653589 78.750609 
L 226.858209 83.513364 
L 228.290547 134.859351 
L 229.313646 159.662681 
L 229.927505 168.898924 
L 230.541364 174.914692 
L 231.155223 178.284519 
L 231.769082 180.560809 
L 232.382942 181.76721 
L 234.019899 184.366801 
L 234.429139 184.828714 
L 234.838378 185.066639 
L 236.066097 185.241609 
L 237.293815 186.344978 
L 237.907674 186.97732 
L 238.521533 187.175667 
L 239.544632 187.092817 
L 239.953872 186.844827 
L 240.77235 185.932444 
L 241.795449 185.755436 
L 242.204689 185.899985 
L 242.818548 186.48257 
L 243.227787 186.498885 
L 243.637027 186.368654 
L 244.046266 186.403653 
L 244.864745 186.055137 
L 245.683224 186.317772 
L 246.092463 186.092797 
L 246.706323 185.530856 
L 247.729421 185.12945 
L 248.34328 184.806338 
L 249.366379 184.648282 
L 249.775618 184.886922 
L 250.184858 185.23011 
L 250.594097 185.094268 
L 251.617196 184.11903 
L 253.458774 182.609755 
L 254.277252 182.548949 
L 255.095731 182.848031 
L 255.504971 182.597472 
L 256.11883 182.177657 
L 256.732689 182.0962 
L 257.141929 182.196761 
L 257.346548 182.12976 
L 257.960408 181.425868 
L 259.188126 179.7526 
L 260.006605 178.229172 
L 260.211225 178.215284 
L 260.620464 178.49674 
L 261.643563 179.574495 
L 262.462042 179.640052 
L 262.871281 179.333954 
L 264.098999 178.029399 
L 264.508239 177.976915 
L 264.917478 177.65424 
L 265.326718 177.00111 
L 265.735957 175.696679 
L 266.554436 172.794331 
L 267.577535 170.650644 
L 268.191394 167.390526 
L 268.600633 165.155437 
L 269.009873 164.033092 
L 269.214493 163.83337 
L 269.419112 163.800478 
L 269.623732 163.950648 
L 269.828352 164.306425 
L 270.237591 165.661181 
L 270.646831 167.105201 
L 271.05607 167.709543 
L 271.26069 167.746997 
L 271.465309 167.638228 
L 271.874549 166.982523 
L 272.283788 165.851391 
L 272.897648 163.033491 
L 273.306887 161.484458 
L 273.511507 161.221043 
L 273.920746 161.193544 
L 274.125366 161.030328 
L 274.329986 160.637919 
L 274.739225 158.841291 
L 275.148465 155.158026 
L 276.376183 140.310315 
L 276.785422 138.523725 
L 276.990042 138.098441 
L 277.194662 138.08919 
L 277.399282 138.579351 
L 278.013141 141.068216 
L 278.21776 141.401538 
L 278.42238 141.230474 
L 278.627 140.477663 
L 279.036239 137.009201 
L 279.445479 130.225472 
L 279.854718 119.322035 
L 280.468577 94.603287 
L 281.696296 28.196289 
L 281.900916 28.210266 
L 282.105535 32.414635 
L 282.924014 55.962449 
L 283.128634 57.670978 
L 283.333254 57.601584 
L 283.742493 54.921908 
L 284.151733 50.415453 
L 284.560972 40.217794 
L 285.584071 3.00024 
L 285.78869 4.765598 
L 285.99331 11.95723 
L 287.016409 65.710123 
L 287.221028 69.570929 
L 287.425648 70.314252 
L 287.630268 68.140468 
L 288.039507 56.529598 
L 288.653367 36.842226 
L 288.857986 36.210799 
L 289.062606 39.968432 
L 289.471845 57.415236 
L 290.290324 96.823044 
L 290.699564 109.71329 
L 291.108803 117.173591 
L 291.518043 120.603564 
L 292.541141 125.740458 
L 292.745761 125.900642 
L 292.950381 125.310684 
L 294.178099 118.339863 
L 294.382719 117.506762 
L 294.587339 116.088641 
L 294.791958 113.705531 
L 295.201198 104.669604 
L 295.610437 88.571231 
L 296.428916 46.727351 
L 296.633536 41.985902 
L 296.838156 42.39548 
L 297.042775 47.88672 
L 298.270494 101.707581 
L 298.884353 115.134979 
L 299.498212 124.32923 
L 300.316691 132.351393 
L 300.93055 140.451145 
L 301.544409 148.577216 
L 302.158269 154.367501 
L 302.976747 159.654093 
L 303.385987 161.288233 
L 303.795226 162.015676 
L 303.999846 161.985827 
L 304.204466 161.640999 
L 304.613705 160.06858 
L 305.432184 155.826072 
L 305.636804 155.519118 
L 305.841424 155.59604 
L 306.659903 156.570261 
L 306.864522 156.428678 
L 307.069142 156.016976 
L 307.478381 154.057875 
L 308.7061 145.274442 
L 308.910719 144.919586 
L 309.115339 145.081424 
L 309.319959 145.902844 
L 309.729198 149.850023 
L 310.752297 163.608148 
L 311.366156 168.1877 
L 311.980015 171.120702 
L 312.593875 173.048021 
L 314.230832 176.686066 
L 315.049311 178.288713 
L 316.07241 180.720076 
L 316.686269 181.436903 
L 317.709368 182.34382 
L 317.913987 182.394313 
L 318.937086 181.932757 
L 319.755565 180.998091 
L 320.164804 180.936339 
L 320.574044 181.402877 
L 322.415621 184.078575 
L 323.64334 184.784536 
L 325.484917 186.708992 
L 325.894157 186.829553 
L 327.940354 186.475216 
L 328.554213 186.890762 
L 328.963453 186.841059 
L 329.577312 186.733427 
L 330.600411 186.975354 
L 331.00965 186.995867 
L 331.623509 186.509765 
L 332.237368 185.88599 
L 333.465087 184.502395 
L 333.874326 184.418068 
L 334.283566 184.509401 
L 336.125143 185.996915 
L 337.148242 186.255243 
L 337.557481 186.433706 
L 337.966721 186.382797 
L 338.989819 185.807851 
L 340.012918 184.673185 
L 340.422157 184.617335 
L 341.445256 185.161273 
L 342.263735 185.923362 
L 343.082214 186.049 
L 343.491453 185.999445 
L 344.719172 185.521237 
L 345.94689 185.574811 
L 348.197707 187.135789 
L 348.606946 186.973205 
L 349.016186 186.671909 
L 349.630045 186.442678 
L 351.471623 185.081597 
L 352.085482 185.070383 
L 352.290102 185.182893 
L 353.3132 186.445893 
L 354.336299 186.956364 
L 355.564017 187.405692 
L 356.587116 187.968379 
L 356.996355 187.87788 
L 358.224074 187.087461 
L 358.837933 186.785316 
L 359.451792 186.219326 
L 360.270271 185.373525 
L 361.29337 183.747966 
L 361.497989 183.670851 
L 361.907229 183.867138 
L 363.134947 184.898926 
L 364.362665 186.377375 
L 365.590384 187.582793 
L 366.818102 187.771919 
L 368.045821 187.139608 
L 368.45506 187.106286 
L 368.864299 186.772652 
L 369.273539 186.058396 
L 369.887398 185.028573 
L 370.092018 184.895561 
L 370.501257 184.99608 
L 371.524356 185.726091 
L 372.138215 186.540433 
L 372.547455 186.963872 
L 372.956694 186.990229 
L 373.365933 186.804337 
L 373.979793 186.194065 
L 374.798272 185.966883 
L 375.207511 185.810157 
L 375.61675 185.909147 
L 376.435229 186.3806 
L 376.844469 186.239137 
L 377.253708 186.115847 
L 378.481427 185.896479 
L 378.890666 185.681346 
L 379.504525 184.757134 
L 380.118384 183.421664 
L 380.527624 181.935927 
L 381.141483 178.845013 
L 381.550723 175.98772 
L 381.959962 171.967565 
L 382.573821 162.835876 
L 383.18768 154.341443 
L 383.3923 153.192166 
L 383.59692 153.256912 
L 383.80154 154.514752 
L 384.210779 159.793204 
L 385.029258 171.277998 
L 385.643117 175.89662 
L 386.256976 178.496899 
L 386.666216 179.323981 
L 387.075455 179.670816 
L 387.484695 179.788834 
L 387.689314 179.67358 
L 388.098554 178.960462 
L 388.507793 177.593681 
L 389.121652 174.357062 
L 389.530892 171.388837 
L 389.940131 166.830035 
L 390.349371 159.905195 
L 390.75861 149.594679 
L 391.372469 126.322953 
L 391.781709 110.785788 
L 391.986329 106.096672 
L 392.190948 104.577009 
L 392.395568 106.378563 
L 392.804807 118.435511 
L 393.623286 150.239188 
L 394.237146 164.143549 
L 394.851005 171.603534 
L 395.260244 174.612781 
L 395.669484 176.357355 
L 396.692582 179.487723 
L 396.897202 179.72549 
L 397.101822 179.650486 
L 397.511061 178.957777 
L 397.920301 177.730351 
L 398.32954 176.023214 
L 398.73878 173.40133 
L 399.148019 169.576194 
L 399.761878 161.20263 
L 400.375737 151.431755 
L 400.580357 149.458102 
L 400.784977 148.690386 
L 400.989597 149.207918 
L 401.194216 150.949198 
L 401.603456 157.218073 
L 402.421935 171.245656 
L 402.831174 175.893798 
L 403.240414 178.724304 
L 404.058892 182.31659 
L 404.672752 184.268372 
L 405.491231 185.788809 
L 406.718949 187.159987 
L 407.946667 187.916837 
L 408.765146 188.02046 
L 409.379005 188.167206 
L 410.197484 188.791501 
L 410.811343 188.602694 
L 411.629822 188.802137 
L 412.448301 188.301095 
L 412.857541 188.321117 
L 413.26678 188.808253 
L 413.67602 189.271751 
L 415.312977 189.709755 
L 416.540696 189.357385 
L 418.382273 189.57391 
L 418.996133 190.027576 
L 419.405372 189.941774 
L 420.223851 189.572531 
L 420.63309 189.635407 
L 421.04233 189.768863 
L 422.270048 189.822822 
L 423.293147 190.238322 
L 424.316245 189.844789 
L 424.725485 189.843249 
L 425.748583 190.063947 
L 426.771682 189.98927 
L 427.180922 190.005599 
L 428.61326 189.524726 
L 429.227119 189.950891 
L 430.045598 190.361335 
L 430.659457 190.47095 
L 431.068696 190.297891 
L 431.682556 189.988585 
L 432.501034 189.762273 
L 433.319513 189.943823 
L 433.728753 189.709562 
L 434.137992 189.877939 
L 434.547232 189.906864 
L 434.751851 189.874869 
L 435.77495 190.345769 
L 436.798049 190.228879 
L 437.411908 190.45175 
L 437.821147 190.528611 
L 439.253485 190.083326 
L 439.662725 190.008744 
L 440.276584 190.105496 
L 441.504302 189.516538 
L 442.118162 189.799009 
L 442.732021 189.520127 
L 443.959739 189.850117 
L 444.778218 189.827157 
L 446.210556 189.993532 
L 446.824415 190.539337 
L 447.438275 190.49323 
L 448.052134 190.307369 
L 448.461373 190.131179 
L 449.689092 190.194385 
L 450.098331 189.957924 
L 450.50757 190.013499 
L 451.326049 190.339268 
L 452.349148 190.520986 
L 452.963007 190.44647 
L 453.576866 190.561775 
L 454.190726 190.817624 
L 454.599965 190.837865 
L 455.009204 190.585804 
L 455.623064 190.09807 
L 456.850782 189.642915 
L 457.464641 189.824035 
L 458.28312 190.072652 
L 458.896979 190.007789 
L 459.715458 189.729903 
L 460.124698 189.388706 
L 460.738557 189.354738 
L 461.352416 189.27831 
L 462.375515 189.048398 
L 463.193994 189.272958 
L 463.603233 189.002876 
L 464.421712 187.989858 
L 466.05867 184.517305 
L 467.081768 180.228508 
L 467.286388 180.671861 
L 468.104867 183.840736 
L 468.514106 184.530334 
L 469.127966 184.908824 
L 469.537205 185.00136 
L 470.969543 184.939072 
L 471.788022 184.124187 
L 472.197261 183.452115 
L 473.22036 181.054161 
L 474.243459 177.756316 
L 474.652698 175.498006 
L 475.266557 170.177744 
L 475.880417 162.539383 
L 476.494276 155.803352 
L 477.312755 151.173568 
L 477.721994 146.557999 
L 478.131234 139.312656 
L 479.154332 116.541156 
L 479.358952 114.442352 
L 479.563572 114.207099 
L 479.768191 115.73755 
L 480.382051 123.272683 
L 480.58667 124.109975 
L 480.79129 123.511674 
L 480.99591 121.46313 
L 482.019008 105.49352 
L 482.223628 106.987487 
L 482.632868 115.986964 
L 483.451346 136.942929 
L 483.860586 142.997334 
L 484.269825 145.72994 
L 484.883685 147.123429 
L 485.088304 148.552939 
L 485.497544 153.788832 
L 486.520642 168.636333 
L 487.134502 173.161593 
L 487.543741 174.850249 
L 487.95298 175.497208 
L 488.1576 175.511609 
L 488.36222 175.32362 
L 488.771459 174.457196 
L 489.180699 173.062803 
L 489.589938 170.917371 
L 489.999178 167.521087 
L 491.022276 157.468724 
L 491.431516 156.403242 
L 491.840755 155.863729 
L 492.045375 155.273688 
L 492.454614 152.811387 
L 492.863854 148.326523 
L 494.500812 125.185265 
L 494.705431 125.204128 
L 494.910051 126.715228 
L 495.72853 135.681565 
L 495.93315 136.227765 
L 496.13777 135.84 
L 496.547009 132.814606 
L 496.956248 129.682112 
L 497.160868 129.427047 
L 497.365488 130.272322 
L 497.774727 134.112935 
L 498.388587 142.538308 
L 499.207065 153.720452 
L 499.616305 156.847978 
L 500.025544 158.542223 
L 500.434784 160.02841 
L 500.844023 162.76804 
L 502.071742 173.135199 
L 502.89022 177.64481 
L 503.50408 179.727109 
L 504.117939 181.129302 
L 504.527178 181.600343 
L 505.141037 182.161971 
L 506.164136 183.389827 
L 506.573376 184.094213 
L 508.210333 185.377633 
L 508.619573 185.546381 
L 510.051911 186.582511 
L 510.66577 186.770744 
L 511.07501 186.933255 
L 511.893488 187.502845 
L 513.325827 187.861668 
L 514.144305 187.95098 
L 515.167404 187.42486 
L 515.576644 187.250358 
L 516.190503 187.201388 
L 517.008982 186.598981 
L 518.645939 186.399164 
L 519.259799 186.74602 
L 519.669038 186.631949 
L 520.078278 186.428446 
L 520.896756 186.396018 
L 522.124475 185.405224 
L 522.942954 184.371277 
L 523.556813 183.829515 
L 524.170672 183.278396 
L 524.784531 182.729488 
L 525.193771 182.382126 
L 526.01225 182.183178 
L 527.035348 181.496348 
L 527.444588 181.198153 
L 528.467686 180.131956 
L 529.081546 179.475578 
L 530.513884 178.71617 
L 530.923123 178.143999 
L 532.560081 174.488483 
L 536.038616 165.89638 
L 537.061715 162.495621 
L 538.903292 155.011723 
L 539.721771 150.909637 
L 542.381828 135.607183 
L 544.428025 119.662693 
L 546.269603 102.79175 
L 549.134279 76.226796 
L 550.771237 62.24765 
L 551.385096 58.478022 
L 551.998955 55.942129 
L 553.431293 50.849593 
L 554.659011 44.746441 
L 555.272871 41.492073 
L 555.68211 40.541229 
L 555.88673 40.650741 
L 556.091349 41.17365 
L 556.500589 43.260473 
L 557.728307 50.8415 
L 557.932927 50.915497 
L 558.137547 49.972828 
L 558.342166 47.460789 
L 558.546786 42.625405 
L 558.751406 34.521215 
L 559.160645 3.346701 
L 559.194399 -1 
M 566.766324 -1 
L 567.550054 32.146228 
L 568.163913 50.544467 
L 568.982392 68.969083 
L 570.005491 86.722632 
L 571.02859 101.040638 
L 572.051688 112.516336 
L 573.074787 121.502571 
L 574.711745 133.588152 
L 575.939463 140.910717 
L 577.167181 147.138555 
L 579.213379 154.16276 
L 580.236477 156.401269 
L 581.464196 159.498089 
L 582.282674 160.798808 
L 582.896534 161.806456 
L 583.305773 162.885541 
L 584.328872 165.950793 
L 585.55659 167.888889 
L 586.375069 168.637739 
L 586.988928 168.962405 
L 587.602787 169.265416 
L 588.012027 169.152463 
L 588.830506 168.673884 
L 589.035125 168.652577 
L 589.239745 168.746093 
L 590.876703 170.46531 
L 591.285942 170.696222 
L 591.695182 171.351882 
L 592.513661 172.862113 
L 593.12752 173.634532 
L 594.969098 175.236745 
L 595.173717 175.257368 
L 595.378337 175.162002 
L 595.787576 174.487211 
L 596.401436 173.447856 
L 597.424534 171.996576 
L 597.833774 171.892911 
L 599.266112 171.739228 
L 600.90307 170.902523 
L 601.312309 170.553322 
L 601.516929 170.508202 
L 601.721549 170.661714 
L 602.130788 171.563694 
L 602.744647 173.301485 
L 602.949267 173.54204 
L 603.153887 173.557231 
L 603.767746 173.117102 
L 604.381605 172.423995 
L 604.995464 171.188408 
L 605.813943 168.780181 
L 606.427802 166.566259 
L 608.678619 157.344519 
L 609.087859 156.176593 
L 609.292478 155.924739 
L 609.497098 156.142474 
L 609.701718 157.006591 
L 609.906338 158.670821 
L 610.315577 165.213198 
L 610.929436 176.905221 
L 611.134056 178.341204 
L 611.338676 178.688693 
L 611.543295 178.379892 
L 611.952535 176.895551 
L 612.975634 171.834793 
L 613.589493 168.403678 
L 615.43107 156.886408 
L 616.249549 153.065799 
L 616.658789 151.883562 
L 616.863408 151.517007 
L 617.068028 151.43125 
L 617.272648 151.760123 
L 617.477268 152.684194 
L 617.681887 154.457469 
L 618.091127 161.701269 
L 618.500366 174.76873 
L 618.909606 189.326593 
L 619.114225 193.477358 
L 619.318845 194.50619 
L 619.523465 193.345297 
L 620.955803 179.44218 
L 621.978901 172.812764 
L 623.41124 166.018309 
L 624.025099 163.707962 
L 624.229718 163.440397 
L 624.434338 163.418241 
L 624.638958 163.583681 
L 625.048197 164.500158 
L 625.457437 166.42569 
L 625.866676 170.215748 
L 626.275916 176.893856 
L 627.094395 194.760313 
L 627.299014 195.757683 
L 627.503634 194.223574 
L 628.731352 176.605249 
L 629.345212 171.954099 
L 629.754451 169.952264 
L 630.163691 168.889931 
L 631.186789 167.592667 
L 631.596029 167.703372 
L 632.005268 168.143161 
L 632.414508 169.319712 
L 632.823747 171.370449 
L 633.232986 174.399951 
L 633.846846 181.370428 
L 634.460705 191.864026 
L 635.074564 202.862482 
L 635.279184 204.001902 
L 635.483803 202.388757 
L 635.893043 191.296826 
L 636.506902 175.285049 
L 636.916142 170.079865 
L 637.530001 165.621692 
L 638.14386 162.968803 
L 638.757719 161.469133 
L 639.166959 160.984751 
L 639.780818 160.62006 
L 640.599297 160.783774 
L 641.008536 160.482716 
L 641.417776 160.234306 
L 642.236254 160.132319 
L 642.440874 159.944 
L 642.645494 159.499196 
L 642.850114 158.708701 
L 643.054733 157.445447 
L 643.259353 155.334591 
L 643.668593 146.407547 
L 644.282452 127.792934 
L 644.487071 124.713389 
L 644.691691 123.697603 
L 644.896311 124.35556 
L 645.30555 128.883615 
L 646.124029 139.929398 
L 646.533269 143.037624 
L 646.942508 144.295859 
L 647.147128 144.419019 
L 647.351748 144.331085 
L 647.760987 143.641443 
L 648.170227 142.961736 
L 648.374846 143.063644 
L 648.579466 143.603938 
L 649.807184 148.643908 
L 650.216424 149.820621 
L 650.625663 152.088292 
L 652.262621 164.53017 
L 653.28572 169.647262 
L 654.308818 172.980848 
L 655.127297 174.773041 
L 656.355016 177.041813 
L 656.764255 177.322613 
L 657.173494 177.619766 
L 658.605833 179.031314 
L 659.219692 179.067056 
L 660.44741 180.382577 
L 660.65203 180.343978 
L 661.061269 179.946907 
L 661.675128 179.175798 
L 661.879748 179.070091 
L 662.084368 179.146347 
L 662.493607 179.695829 
L 663.312086 180.982594 
L 663.721326 181.227388 
L 664.744424 181.641898 
L 665.562903 181.359912 
L 665.972143 180.841087 
L 666.381382 179.81024 
L 666.995241 177.680483 
L 667.199861 177.320873 
L 667.404481 177.351414 
L 667.81372 178.329536 
L 668.632199 180.670675 
L 669.041439 181.455515 
L 669.450678 181.833338 
L 669.859918 181.924727 
L 670.269157 181.98762 
L 672.519974 183.622004 
L 673.543073 183.637161 
L 673.952312 183.196118 
L 674.361552 182.340881 
L 674.975411 180.503777 
L 675.38465 178.628532 
L 675.998509 175.10781 
L 676.203129 174.55972 
L 676.407749 174.658248 
L 676.612369 175.441734 
L 677.635467 181.464432 
L 678.044707 182.734033 
L 678.658566 183.705441 
L 679.067805 184.163212 
L 679.477045 184.314046 
L 680.500143 184.323805 
L 680.909383 184.283701 
L 682.137101 184.751572 
L 683.1602 184.769472 
L 683.569439 184.319883 
L 684.183298 183.147199 
L 684.797158 181.286303 
L 685.206397 180.208638 
L 685.411017 180.132541 
L 685.615637 180.461455 
L 687.047975 184.509353 
L 687.457214 184.899277 
L 687.866454 185.027195 
L 688.480313 184.900071 
L 689.094172 185.376867 
L 690.117271 186.27379 
L 690.52651 186.471737 
L 690.935749 186.767866 
L 691.344989 186.742792 
L 693.391186 186.150654 
L 694.209665 186.055436 
L 695.642003 185.51388 
L 696.255862 186.085921 
L 697.074341 186.354521 
L 697.483581 186.710611 
L 697.89282 186.707741 
L 698.30206 186.729106 
L 698.711299 186.752053 
L 699.734398 186.303502 
L 700.348257 186.090181 
L 700.757496 186.3153 
L 701.166736 186.66424 
L 701.575975 186.713172 
L 701.985215 186.722048 
L 702.394454 186.853332 
L 702.803694 186.652517 
L 703.212933 186.464329 
L 703.826792 186.477643 
L 704.440651 186.808535 
L 705.25913 186.498105 
L 705.66837 186.370163 
L 706.486849 186.511529 
L 707.305328 186.603251 
L 708.123806 186.568018 
L 708.533046 186.389026 
L 709.556145 186.486994 
L 710.170004 186.302402 
L 710.783863 186.519618 
L 711.193102 186.643741 
L 711.806962 186.609195 
L 712.216201 186.868262 
L 712.83006 187.388214 
L 713.2393 187.323788 
L 714.262398 186.859375 
L 715.080877 187.215754 
L 715.899356 187.142204 
L 717.127074 187.416259 
L 719.173272 187.005974 
L 719.582511 187.105107 
L 719.991751 187.071679 
L 720.60561 187.193041 
L 721.014849 187.238917 
L 721.424089 187.324424 
L 722.242568 187.236147 
L 723.265666 187.256804 
L 723.879525 187.089775 
L 724.493385 186.880655 
L 725.107244 186.815366 
L 725.925723 187.183955 
L 726.539582 187.271696 
L 727.153441 187.266206 
L 727.97192 187.350771 
L 729.404258 186.75175 
L 730.427357 186.414537 
L 731.041216 186.606348 
L 732.268934 187.695801 
L 733.292033 187.548601 
L 733.701272 187.134668 
L 734.110512 186.703351 
L 734.519751 186.785533 
L 735.74747 187.33614 
L 736.156709 186.926401 
L 736.565948 186.600243 
L 737.384427 186.73132 
L 737.998287 186.415974 
L 738.407526 186.187492 
L 738.816765 186.247161 
L 739.430625 186.581222 
L 739.839864 186.500504 
L 740.249104 186.291858 
L 740.658343 186.351974 
L 741.272202 186.39115 
L 741.886061 186.29256 
L 742.90916 185.824049 
L 743.932259 185.743933 
L 744.955357 185.149227 
L 745.569216 185.035648 
L 746.387695 184.683536 
L 747.206174 184.722709 
L 748.024653 184.48697 
L 748.433893 184.616517 
L 748.843132 184.712034 
L 750.07085 184.450008 
L 751.093949 185.02231 
L 751.912428 184.877193 
L 753.754006 185.21112 
L 754.163245 184.884718 
L 754.777104 184.326683 
L 755.800203 183.722447 
L 756.209442 183.656003 
L 757.232541 183.828793 
L 757.64178 184.074275 
L 758.25564 184.313592 
L 758.664879 184.442042 
L 759.074118 184.543813 
L 759.687978 184.751111 
L 760.097217 184.768434 
L 760.711076 184.983797 
L 761.120316 185.047123 
L 761.529555 185.275368 
L 762.961893 185.333496 
L 764.394231 185.870211 
L 765.008091 185.683305 
L 765.62195 185.516541 
L 766.440429 185.602381 
L 767.463527 186.031124 
L 768.077386 185.968733 
L 769.918964 186.326273 
L 771.146682 185.850241 
L 772.78364 186.845067 
L 773.19288 186.550788 
L 773.602119 186.20531 
L 774.011358 186.239172 
L 774.420598 186.445776 
L 775.034457 186.366488 
L 775.443697 186.219388 
L 775.852936 185.985138 
L 776.262175 186.057069 
L 777.080654 186.530488 
L 777.489894 186.468599 
L 778.308373 185.902148 
L 778.717612 186.02044 
L 779.331471 186.276468 
L 779.740711 186.283714 
L 780.14995 185.817012 
L 781.582288 183.95469 
L 782.196148 183.472569 
L 782.605387 183.153421 
L 783.014626 182.1929 
L 783.628486 179.790157 
L 784.242345 176.666784 
L 784.856204 172.262834 
L 785.265443 168.269954 
L 785.674683 162.382905 
L 786.902401 140.557879 
L 787.107021 140.891981 
L 787.311641 143.040446 
L 788.743979 165.37771 
L 789.153218 168.433779 
L 789.562458 170.296514 
L 789.971697 171.269579 
L 790.380937 171.709498 
L 790.585556 171.765076 
L 790.790176 171.654251 
L 791.199416 170.845677 
L 791.813275 168.655182 
L 792.222514 166.355083 
L 792.631754 162.933573 
L 793.245613 154.84015 
L 793.654852 146.863362 
L 794.268711 129.233444 
L 795.08719 104.518887 
L 795.29181 102.4192 
L 795.49643 103.086308 
L 795.70105 106.449641 
L 796.314909 125.725589 
L 796.928768 144.137376 
L 797.542627 156.14881 
L 798.156486 163.068899 
L 798.565726 165.996978 
L 798.974965 167.896384 
L 799.384205 169.014724 
L 800.202684 170.300062 
L 800.407303 170.426536 
L 800.611923 170.302846 
L 801.021162 169.377369 
L 801.430402 167.51493 
L 801.839641 164.639696 
L 802.248881 160.458167 
L 802.86274 151.005412 
L 803.476599 141.766814 
L 803.681219 140.549663 
L 803.885839 140.844881 
L 804.090458 142.662372 
L 804.499698 149.523835 
L 805.318177 163.926247 
L 805.932036 169.947819 
L 806.341275 172.284557 
L 806.955135 174.337839 
L 807.568994 175.879765 
L 808.182853 176.903286 
L 809.819811 178.84282 
L 810.43367 179.046103 
L 811.456768 178.752968 
L 812.070628 178.439513 
L 812.684487 178.277455 
L 813.298346 178.006373 
L 814.935304 176.17838 
L 815.753783 174.982013 
L 816.163022 174.470978 
L 816.572262 173.574822 
L 817.59536 170.399226 
L 818.0046 169.347461 
L 818.413839 169.073894 
L 818.823079 168.852907 
L 819.232318 168.279542 
L 820.460036 165.82918 
L 821.278515 163.070501 
L 822.710853 157.682527 
L 824.552431 150.232254 
L 825.57553 145.499627 
L 826.598628 139.387626 
L 827.212487 133.722773 
L 827.826347 127.283904 
L 828.235586 124.741905 
L 828.849445 122.327474 
L 829.054065 121.839829 
L 829.258685 121.642744 
L 829.463304 121.726903 
L 829.667924 122.020412 
L 829.872544 122.514156 
L 830.077164 123.447161 
L 830.486403 127.711838 
L 831.100262 138.368134 
L 832.123361 156.807519 
L 832.327981 157.977153 
L 832.5326 156.504624 
L 832.73722 151.216963 
L 833.555699 118.301667 
L 833.760319 117.400206 
L 833.964938 117.438371 
L 834.169558 117.195812 
L 834.988037 113.585317 
L 835.192657 113.449592 
L 835.806516 113.521929 
L 836.011136 113.73481 
L 836.215755 114.285279 
L 836.420375 115.284753 
L 836.829615 119.052524 
L 837.443474 128.17885 
L 838.671192 147.17857 
L 839.285051 153.409238 
L 839.898911 157.343144 
L 840.717389 161.284675 
L 841.945108 165.652436 
L 842.968206 168.048854 
L 843.786685 169.610746 
L 844.195925 170.025405 
L 844.400545 170.058568 
L 844.809784 169.699477 
L 845.423643 168.598501 
L 845.832883 167.196607 
L 846.446742 163.87256 
L 846.855981 160.642886 
L 847.46984 153.79251 
L 848.0837 145.200314 
L 848.697559 133.391648 
L 849.106798 121.358963 
L 849.516038 103.90756 
L 849.925277 78.93507 
L 850.743756 19.840464 
L 850.948376 14.738707 
L 851.152995 14.74187 
L 851.562235 18.102164 
L 851.766855 17.678172 
L 851.971474 16.205647 
L 852.176094 15.927903 
L 852.380714 19.851086 
L 852.789953 44.988243 
L 853.608432 107.086648 
L 854.222291 133.765508 
L 854.836151 149.177817 
L 855.45001 159.152959 
L 856.063869 165.540362 
L 856.677728 169.997734 
L 857.496207 174.273251 
L 858.110066 176.163192 
L 859.133165 178.465268 
L 860.974742 181.537312 
L 861.383982 181.729925 
L 862.6117 183.149526 
L 863.225559 183.443744 
L 864.862517 183.446065 
L 866.090236 183.802687 
L 866.499475 183.918893 
L 866.908714 184.17049 
L 867.317954 184.138044 
L 867.727193 184.092976 
L 868.136433 184.098545 
L 868.545672 183.998902 
L 868.954912 184.179105 
L 870.18263 185.22046 
L 871.205729 184.985354 
L 872.638067 184.224183 
L 873.456546 184.391848 
L 873.865785 184.164962 
L 874.275025 183.601209 
L 874.684264 183.125043 
L 875.093504 183.143022 
L 875.707363 183.637934 
L 876.730461 184.604365 
L 877.344321 184.900539 
L 878.162799 184.971655 
L 878.776659 185.3234 
L 879.185898 185.340901 
L 880.004377 185.049574 
L 880.618236 184.58148 
L 881.436715 184.404331 
L 882.459814 183.791621 
L 883.073673 182.90682 
L 883.687532 182.230255 
L 884.096772 182.030523 
L 885.11987 181.977417 
L 886.142969 183.170438 
L 886.756828 183.872618 
L 887.779927 184.291883 
L 888.189166 184.309284 
L 889.826124 183.29244 
L 892.281561 181.534125 
L 892.6908 181.334462 
L 893.100039 180.978971 
L 893.918518 179.684633 
L 894.123138 179.62243 
L 894.532378 179.797882 
L 895.350856 180.464567 
L 895.760096 180.759138 
L 896.169335 180.626157 
L 896.578575 180.441465 
L 896.987814 180.518975 
L 897.397054 180.243572 
L 898.215533 179.5224 
L 899.238631 178.901041 
L 899.647871 178.813929 
L 900.875589 178.123056 
L 901.489448 177.130853 
L 903.126406 173.671198 
L 904.354124 171.064134 
L 905.581843 167.340881 
L 906.400322 167.498384 
L 906.809561 167.246966 
L 907.218801 166.751944 
L 907.62804 165.987215 
L 909.060378 162.081612 
L 909.469618 160.761797 
L 910.083477 157.700616 
L 912.743533 141.658728 
L 914.380491 130.245782 
L 915.19897 125.382178 
L 916.017449 119.298346 
L 917.654407 103.915687 
L 918.472886 93.523016 
L 919.086745 83.5263 
L 920.314463 61.38772 
L 921.132942 52.979741 
L 921.542182 50.424903 
L 921.746801 49.793032 
L 921.951421 49.829441 
L 922.156041 50.80756 
L 922.36066 53.052876 
L 922.7699 61.611763 
L 923.588379 86.42346 
L 924.406858 112.122493 
L 924.611477 114.861043 
L 924.816097 113.559919 
L 925.020717 105.573543 
L 925.225337 87.512583 
L 925.71826 -1 
M 928.397356 -1 
L 929.113111 7.963033 
L 930.13621 18.072514 
L 930.954689 23.081627 
L 931.159309 23.988135 
L 931.363928 24.213416 
L 931.568548 23.426073 
L 931.773168 21.503996 
L 932.182407 14.067275 
L 932.60882 -1 
M 934.452908 -1 
L 934.842464 41.090244 
L 935.251703 61.604829 
L 935.660943 70.190414 
L 937.2979 91.398812 
L 939.753337 134.350189 
L 940.571816 143.037933 
L 941.594915 151.317148 
L 942.618013 158.216907 
L 943.641112 163.987057 
L 944.664211 168.877345 
L 945.27807 170.884991 
L 946.301168 173.511042 
L 947.119647 175.005692 
L 947.528887 175.554897 
L 948.142746 176.040785 
L 948.551985 176.497504 
L 948.961225 176.552597 
L 949.165845 176.712953 
L 949.779704 177.801409 
L 950.188943 178.718068 
L 951.416662 182.379703 
L 952.235141 183.483814 
L 953.053619 184.68334 
L 953.872098 185.231585 
L 954.485958 185.652428 
L 954.895197 185.964102 
L 955.304436 185.909986 
L 955.918296 185.770768 
L 956.327535 185.561146 
L 956.736775 184.812794 
L 957.555253 182.21013 
L 958.169113 179.763993 
L 958.373732 179.680449 
L 958.578352 180.106022 
L 959.601451 183.290693 
L 960.21531 184.50596 
L 961.647648 186.9233 
L 962.056887 187.349155 
L 963.489226 187.912437 
L 964.103085 187.699194 
L 964.512324 187.498194 
L 965.330803 187.562094 
L 965.740042 187.461393 
L 966.353902 187.477791 
L 966.967761 187.350032 
L 967.58162 187.36051 
L 967.990859 187.215304 
L 968.604719 186.769094 
L 970.037057 186.797438 
L 970.446296 186.844459 
L 971.060155 187.555422 
L 971.469395 187.853387 
L 972.492493 188.219374 
L 973.106353 188.651008 
L 975.15255 189.180937 
L 975.561789 189.078417 
L 976.175649 188.707606 
L 976.584888 188.674432 
L 976.994127 188.679647 
L 977.607987 188.49753 
L 978.426466 188.758282 
L 978.835705 188.841891 
L 979.244944 188.819993 
L 980.472663 189.52387 
L 981.086522 189.473814 
L 981.700381 189.469066 
L 982.72348 189.173315 
L 983.132719 189.394897 
L 983.746578 189.883652 
L 983.951198 189.901855 
L 984.155818 189.7075 
L 984.565057 189.021003 
L 984.769677 188.873343 
L 984.974297 188.934345 
L 985.792776 189.772459 
L 986.406635 189.560706 
L 988.248212 188.966447 
L 990.908269 188.991301 
L 991.522128 189.239041 
L 991.931368 189.198765 
L 993.772945 188.299779 
L 994.386804 188.365274 
L 994.796044 188.625135 
L 995.205283 188.874133 
L 996.637621 189.00431 
L 997.25148 189.308067 
L 997.66072 189.143544 
L 998.274579 188.805712 
L 998.888438 188.656842 
L 999.502297 188.637793 
L 999.911537 188.584185 
L 1000.320776 188.570152 
L 1000.934636 188.424534 
L 1001.548495 188.573728 
L 1002.366974 188.55118 
L 1003.185453 188.416754 
L 1003.799312 188.610016 
L 1004.413171 188.772968 
L 1005.436269 188.427961 
L 1006.050129 188.58982 
L 1006.663988 188.862105 
L 1007.482467 189.475687 
L 1008.710185 189.535328 
L 1009.119425 189.527002 
L 1009.937903 189.166361 
L 1010.756382 189.088527 
L 1013.416439 188.712426 
L 1013.825678 188.757763 
L 1014.848777 188.561397 
L 1015.258016 188.580197 
L 1016.281115 188.05843 
L 1017.713453 188.299383 
L 1018.941171 189.274326 
L 1020.16889 189.39839 
L 1020.782749 189.385471 
L 1021.191988 189.078128 
L 1021.805848 188.48183 
L 1023.852045 188.286114 
L 1024.261284 188.212835 
L 1024.875144 188.437601 
L 1025.489003 188.194416 
L 1025.898242 188.013983 
L 1026.307482 188.055913 
L 1027.5352 188.4736 
L 1027.944439 188.25425 
L 1028.353679 188.006548 
L 1028.762918 188.311739 
L 1029.786017 189.197431 
L 1030.195256 189.015269 
L 1030.604496 188.793787 
L 1031.218355 188.823389 
L 1031.627595 188.795334 
L 1032.241454 188.737429 
L 1032.650693 188.875869 
L 1033.469172 189.263414 
L 1033.878412 189.108383 
L 1034.90151 188.365096 
L 1035.31075 188.321969 
L 1036.333848 188.699253 
L 1037.561567 188.667712 
L 1038.175426 188.818105 
L 1041.040102 188.652311 
L 1042.26782 188.118923 
L 1042.67706 188.131598 
L 1043.290919 188.329488 
L 1046.360215 188.560857 
L 1047.383313 188.879249 
L 1048.611032 188.787393 
L 1049.224891 188.86449 
L 1050.24799 189.000081 
L 1050.861849 189.194657 
L 1051.680328 189.387558 
L 1052.089567 189.173903 
L 1052.703426 188.859812 
L 1053.112666 188.872665 
L 1053.521905 188.988812 
L 1054.135764 188.794048 
L 1054.545004 188.631148 
L 1055.363483 188.784691 
L 1055.772722 188.692611 
L 1056.386581 188.75546 
L 1057.40968 188.544246 
L 1058.432779 188.592694 
L 1059.046638 188.506555 
L 1059.660497 188.57456 
L 1061.297455 188.363913 
L 1062.525173 188.484398 
L 1063.139032 188.529127 
L 1063.752892 188.523124 
L 1064.162131 188.446161 
L 1064.571371 188.679706 
L 1064.98061 188.906898 
L 1065.594469 188.896568 
L 1066.412948 188.829491 
L 1067.026807 189.192525 
L 1067.436047 189.348471 
L 1068.663765 189.081356 
L 1069.073005 189.022956 
L 1070.096103 188.544614 
L 1070.505343 188.690249 
L 1071.323822 189.23878 
L 1071.528441 189.241781 
L 1071.937681 188.897723 
L 1072.34692 188.603086 
L 1072.960779 188.631684 
L 1073.574639 188.95526 
L 1073.983878 188.645421 
L 1074.393117 188.425816 
L 1075.006977 188.429852 
L 1076.643934 188.748041 
L 1078.076273 188.073666 
L 1079.303991 188.511477 
L 1080.12247 189.074529 
L 1080.531709 189.08192 
L 1081.964047 188.678592 
L 1082.782526 188.81564 
L 1083.601005 188.511539 
L 1084.624104 188.7918 
L 1085.033343 188.887042 
L 1085.442583 188.958701 
L 1086.056442 188.794 
L 1086.465681 188.756364 
L 1087.07954 188.579445 
L 1087.6934 188.642486 
L 1088.511879 188.836174 
L 1088.921118 188.818923 
L 1089.944217 188.481188 
L 1090.353456 188.45075 
L 1090.762696 188.733774 
L 1091.171935 188.923183 
L 1092.399653 188.590218 
L 1093.218132 188.558829 
L 1093.831991 188.524297 
L 1094.241231 188.507438 
L 1094.85509 188.646996 
L 1095.878189 188.377248 
L 1096.492048 188.552864 
L 1097.105907 188.7716 
L 1097.719766 188.802773 
L 1098.538245 188.456281 
L 1099.765964 188.394251 
L 1100.379823 188.625575 
L 1102.42602 188.192577 
L 1102.835259 188.434995 
L 1103.244499 188.634074 
L 1103.653738 188.605609 
L 1104.472217 188.910738 
L 1104.881457 188.783322 
L 1105.699936 188.418174 
L 1106.109175 188.375161 
L 1106.723034 188.027418 
L 1107.950753 187.922072 
L 1108.359992 188.320044 
L 1108.973851 189.110752 
L 1109.178471 189.173136 
L 1109.58771 188.980015 
L 1109.99695 188.775 
L 1110.406189 188.760252 
L 1111.224668 188.9278 
L 1111.838527 188.57973 
L 1112.452387 188.303911 
L 1113.066246 188.15952 
L 1113.680105 188.344789 
L 1114.498584 188.833695 
L 1115.112443 188.912818 
L 1115.521683 189.006228 
L 1115.930922 189.145115 
L 1116.340161 188.939763 
L 1116.954021 188.449952 
L 1117.56788 188.4604 
L 1118.386359 188.622124 
L 1119.204838 188.640567 
L 1119.614077 188.507156 
L 1121.660274 188.823073 
L 1122.274133 189.200693 
L 1123.911091 189.094419 
L 1124.320331 189.239127 
L 1124.72957 189.168571 
L 1125.548049 188.769516 
L 1126.571148 188.751101 
L 1127.185007 188.965914 
L 1127.798866 188.885031 
L 1128.412725 189.119883 
L 1128.821965 189.275378 
L 1130.254303 188.589022 
L 1131.891261 188.158461 
L 1132.50512 187.890748 
L 1132.914359 188.040839 
L 1133.528218 188.526291 
L 1135.574416 188.61101 
L 1135.983655 188.628669 
L 1136.802134 189.059657 
L 1137.825233 189.055123 
L 1139.87143 189.148264 
L 1140.485289 188.788383 
L 1141.713008 188.602749 
L 1142.940726 188.925507 
L 1143.554585 188.724627 
L 1144.577684 188.116407 
L 1144.986923 188.263232 
L 1145.600782 188.528467 
L 1146.010022 188.646329 
L 1146.623881 188.842685 
L 1147.23774 188.770211 
L 1148.056219 189.132375 
L 1148.465459 189.441891 
L 1148.874698 189.380758 
L 1149.897797 188.901766 
L 1150.716276 189.100246 
L 1151.125515 189.150592 
L 1152.557853 188.612529 
L 1153.580952 188.876925 
L 1154.194811 188.596984 
L 1155.422529 189.032059 
L 1155.831769 189.244273 
L 1156.241008 189.120904 
L 1157.059487 188.604867 
L 1157.468727 188.577341 
L 1158.287205 188.93122 
L 1159.105684 189.315248 
L 1159.719543 189.048725 
L 1161.97036 188.972249 
L 1162.58422 188.638962 
L 1162.993459 188.757931 
L 1163.402699 188.97534 
L 1163.811938 188.897094 
L 1164.425797 188.756563 
L 1165.244276 188.841276 
L 1166.267375 189.074219 
L 1167.495093 188.657302 
L 1168.313572 188.700789 
L 1168.722811 188.900996 
L 1169.336671 189.505056 
L 1169.54129 189.568389 
L 1169.95053 189.386444 
L 1170.769009 188.972583 
L 1171.382868 188.933379 
L 1171.792107 189.056601 
L 1172.201347 189.246741 
L 1172.405967 189.206345 
L 1173.224445 188.520845 
L 1173.633685 188.650564 
L 1175.066023 189.241949 
L 1176.089122 188.906475 
L 1178.135319 189.22782 
L 1179.158418 188.437535 
L 1179.567657 188.559471 
L 1180.590756 189.000951 
L 1180.999995 189.08884 
L 1182.227713 188.736401 
L 1182.841573 188.863408 
L 1183.864671 188.709563 
L 1184.47853 188.507362 
L 1184.88777 188.674302 
L 1184.88777 188.674302 
" clip-path="url(#p3358dc56dd)" style="fill: none; stroke: #000000; stroke-width: 2; stroke-linecap: square"/>
   </g>
   <g id="patch_3">
    <path d="M 3.00024 198.907885 
L 1184.99976 198.907885 
" style="fill: none; stroke: #000000; stroke-width: 2; stroke-linejoin: miter; stroke-linecap: square"/>
   </g>
  </g>
 </g>
 <defs>
  <clipPath id="p3358dc56dd">
   <rect x="3.00024" y="3.00024" width="1181.99952" height="195.907645"/>
  </clipPath>
 </defs>
</svg>
