<?xml version="1.0" encoding="utf-8" standalone="no"?>
<!DOCTYPE svg PUBLIC "-//W3C//DTD SVG 1.1//EN"
  "http://www.w3.org/Graphics/SVG/1.1/DTD/svg11.dtd">
<svg xmlns:xlink="http://www.w3.org/1999/xlink" width="1188pt" height="252pt" viewBox="0 0 1188 252" xmlns="http://www.w3.org/2000/svg" version="1.1">
 <metadata>
  <rdf:RDF xmlns:dc="http://purl.org/dc/elements/1.1/" xmlns:cc="http://creativecommons.org/ns#" xmlns:rdf="http://www.w3.org/1999/02/22-rdf-syntax-ns#">
   <cc:Work>
    <dc:type rdf:resource="http://purl.org/dc/dcmitype/StillImage"/>
    <dc:date>2024-05-14T23:08:00.845202</dc:date>
    <dc:format>image/svg+xml</dc:format>
    <dc:creator>
     <cc:Agent>
      <dc:title>Matplotlib v3.8.0, https://matplotlib.org/</dc:title>
     </cc:Agent>
    </dc:creator>
   </cc:Work>
  </rdf:RDF>
 </metadata>
 <defs>
  <style type="text/css">*{stroke-linejoin: round; stroke-linecap: butt}</style>
 </defs>
 <g id="figure_1">
  <g id="patch_1">
   <path d="M 0 252 
L 1188 252 
L 1188 0 
L 0 0 
z
" style="fill: #ffffff"/>
  </g>
  <g id="axes_1">
   <g id="patch_2">
    <path d="M 3.00024 198.907885 
L 1184.99976 198.907885 
L 1184.99976 3.00024 
L 3.00024 3.00024 
z
" style="fill: #ffffff"/>
   </g>
   <g id="matplotlib.axis_1">
    <g id="xtick_1">
     <g id="line2d_1">
      <defs>
       <path id="m1d0754a2fc" d="M 0 0 
L 0 8 
" style="stroke: #000000; stroke-width: 2"/>
      </defs>
      <g>
       <use xlink:href="#m1d0754a2fc" x="1131.272509" y="198.907885" style="stroke: #000000; stroke-width: 2"/>
      </g>
     </g>
     <g id="text_1">
      <!-- 0 -->
      <g transform="translate(1126.267665 224.791947) scale(0.18 -0.18)">
       <defs>
        <path id="Arial-BoldMT-30" d="M 1756 4600 
Q 2422 4600 2797 4125 
Q 3244 3563 3244 2259 
Q 3244 959 2794 391 
Q 2422 -78 1756 -78 
Q 1088 -78 678 436 
Q 269 950 269 2269 
Q 269 3563 719 4131 
Q 1091 4600 1756 4600 
z
M 1756 3872 
Q 1597 3872 1472 3770 
Q 1347 3669 1278 3406 
Q 1188 3066 1188 2259 
Q 1188 1453 1269 1151 
Q 1350 850 1473 750 
Q 1597 650 1756 650 
Q 1916 650 2041 751 
Q 2166 853 2234 1116 
Q 2325 1453 2325 2259 
Q 2325 3066 2244 3367 
Q 2163 3669 2039 3770 
Q 1916 3872 1756 3872 
z
" transform="scale(0.015625)"/>
       </defs>
       <use xlink:href="#Arial-BoldMT-30"/>
      </g>
     </g>
    </g>
    <g id="xtick_2">
     <g id="line2d_2">
      <g>
       <use xlink:href="#m1d0754a2fc" x="1023.818007" y="198.907885" style="stroke: #000000; stroke-width: 2"/>
      </g>
     </g>
     <g id="text_2">
      <!-- 1 -->
      <g transform="translate(1018.813164 224.791947) scale(0.18 -0.18)">
       <defs>
        <path id="Arial-BoldMT-31" d="M 2519 0 
L 1641 0 
L 1641 3309 
Q 1159 2859 506 2644 
L 506 3441 
Q 850 3553 1253 3867 
Q 1656 4181 1806 4600 
L 2519 4600 
L 2519 0 
z
" transform="scale(0.015625)"/>
       </defs>
       <use xlink:href="#Arial-BoldMT-31"/>
      </g>
     </g>
    </g>
    <g id="xtick_3">
     <g id="line2d_3">
      <g>
       <use xlink:href="#m1d0754a2fc" x="916.363505" y="198.907885" style="stroke: #000000; stroke-width: 2"/>
      </g>
     </g>
     <g id="text_3">
      <!-- 2 -->
      <g transform="translate(911.358662 224.791947) scale(0.18 -0.18)">
       <defs>
        <path id="Arial-BoldMT-32" d="M 3238 816 
L 3238 0 
L 159 0 
Q 209 463 459 877 
Q 709 1291 1447 1975 
Q 2041 2528 2175 2725 
Q 2356 2997 2356 3263 
Q 2356 3556 2198 3714 
Q 2041 3872 1763 3872 
Q 1488 3872 1325 3706 
Q 1163 3541 1138 3156 
L 263 3244 
Q 341 3969 753 4284 
Q 1166 4600 1784 4600 
Q 2463 4600 2850 4234 
Q 3238 3869 3238 3325 
Q 3238 3016 3127 2736 
Q 3016 2456 2775 2150 
Q 2616 1947 2200 1565 
Q 1784 1184 1673 1059 
Q 1563 934 1494 816 
L 3238 816 
z
" transform="scale(0.015625)"/>
       </defs>
       <use xlink:href="#Arial-BoldMT-32"/>
      </g>
     </g>
    </g>
    <g id="xtick_4">
     <g id="line2d_4">
      <g>
       <use xlink:href="#m1d0754a2fc" x="808.909004" y="198.907885" style="stroke: #000000; stroke-width: 2"/>
      </g>
     </g>
     <g id="text_4">
      <!-- 3 -->
      <g transform="translate(803.90416 224.791947) scale(0.18 -0.18)">
       <defs>
        <path id="Arial-BoldMT-33" d="M 241 1216 
L 1091 1319 
Q 1131 994 1309 822 
Q 1488 650 1741 650 
Q 2013 650 2198 856 
Q 2384 1063 2384 1413 
Q 2384 1744 2206 1937 
Q 2028 2131 1772 2131 
Q 1603 2131 1369 2066 
L 1466 2781 
Q 1822 2772 2009 2936 
Q 2197 3100 2197 3372 
Q 2197 3603 2059 3740 
Q 1922 3878 1694 3878 
Q 1469 3878 1309 3722 
Q 1150 3566 1116 3266 
L 306 3403 
Q 391 3819 561 4067 
Q 731 4316 1036 4458 
Q 1341 4600 1719 4600 
Q 2366 4600 2756 4188 
Q 3078 3850 3078 3425 
Q 3078 2822 2419 2463 
Q 2813 2378 3048 2084 
Q 3284 1791 3284 1375 
Q 3284 772 2843 347 
Q 2403 -78 1747 -78 
Q 1125 -78 715 280 
Q 306 638 241 1216 
z
" transform="scale(0.015625)"/>
       </defs>
       <use xlink:href="#Arial-BoldMT-33"/>
      </g>
     </g>
    </g>
    <g id="xtick_5">
     <g id="line2d_5">
      <g>
       <use xlink:href="#m1d0754a2fc" x="701.454502" y="198.907885" style="stroke: #000000; stroke-width: 2"/>
      </g>
     </g>
     <g id="text_5">
      <!-- 4 -->
      <g transform="translate(696.449658 224.791947) scale(0.18 -0.18)">
       <defs>
        <path id="Arial-BoldMT-34" d="M 1994 0 
L 1994 922 
L 119 922 
L 119 1691 
L 2106 4600 
L 2844 4600 
L 2844 1694 
L 3413 1694 
L 3413 922 
L 2844 922 
L 2844 0 
L 1994 0 
z
M 1994 1694 
L 1994 3259 
L 941 1694 
L 1994 1694 
z
" transform="scale(0.015625)"/>
       </defs>
       <use xlink:href="#Arial-BoldMT-34"/>
      </g>
     </g>
    </g>
    <g id="xtick_6">
     <g id="line2d_6">
      <g>
       <use xlink:href="#m1d0754a2fc" x="594" y="198.907885" style="stroke: #000000; stroke-width: 2"/>
      </g>
     </g>
     <g id="text_6">
      <!-- 5 -->
      <g transform="translate(588.995156 224.791947) scale(0.18 -0.18)">
       <defs>
        <path id="Arial-BoldMT-35" d="M 284 1178 
L 1159 1269 
Q 1197 972 1381 798 
Q 1566 625 1806 625 
Q 2081 625 2272 848 
Q 2463 1072 2463 1522 
Q 2463 1944 2273 2155 
Q 2084 2366 1781 2366 
Q 1403 2366 1103 2031 
L 391 2134 
L 841 4519 
L 3163 4519 
L 3163 3697 
L 1506 3697 
L 1369 2919 
Q 1663 3066 1969 3066 
Q 2553 3066 2959 2641 
Q 3366 2216 3366 1538 
Q 3366 972 3038 528 
Q 2591 -78 1797 -78 
Q 1163 -78 763 262 
Q 363 603 284 1178 
z
" transform="scale(0.015625)"/>
       </defs>
       <use xlink:href="#Arial-BoldMT-35"/>
      </g>
     </g>
    </g>
    <g id="xtick_7">
     <g id="line2d_7">
      <g>
       <use xlink:href="#m1d0754a2fc" x="486.545498" y="198.907885" style="stroke: #000000; stroke-width: 2"/>
      </g>
     </g>
     <g id="text_7">
      <!-- 6 -->
      <g transform="translate(481.540654 224.791947) scale(0.18 -0.18)">
       <defs>
        <path id="Arial-BoldMT-36" d="M 3247 3459 
L 2397 3366 
Q 2366 3628 2234 3753 
Q 2103 3878 1894 3878 
Q 1616 3878 1423 3628 
Q 1231 3378 1181 2588 
Q 1509 2975 1997 2975 
Q 2547 2975 2939 2556 
Q 3331 2138 3331 1475 
Q 3331 772 2918 347 
Q 2506 -78 1859 -78 
Q 1166 -78 719 461 
Q 272 1000 272 2228 
Q 272 3488 737 4044 
Q 1203 4600 1947 4600 
Q 2469 4600 2811 4308 
Q 3153 4016 3247 3459 
z
M 1256 1544 
Q 1256 1116 1453 883 
Q 1650 650 1903 650 
Q 2147 650 2309 840 
Q 2472 1031 2472 1466 
Q 2472 1913 2297 2120 
Q 2122 2328 1859 2328 
Q 1606 2328 1431 2129 
Q 1256 1931 1256 1544 
z
" transform="scale(0.015625)"/>
       </defs>
       <use xlink:href="#Arial-BoldMT-36"/>
      </g>
     </g>
    </g>
    <g id="xtick_8">
     <g id="line2d_8">
      <g>
       <use xlink:href="#m1d0754a2fc" x="379.090996" y="198.907885" style="stroke: #000000; stroke-width: 2"/>
      </g>
     </g>
     <g id="text_8">
      <!-- 7 -->
      <g transform="translate(374.086153 224.791947) scale(0.18 -0.18)">
       <defs>
        <path id="Arial-BoldMT-37" d="M 272 3703 
L 272 4519 
L 3275 4519 
L 3275 3881 
Q 2903 3516 2518 2831 
Q 2134 2147 1932 1376 
Q 1731 606 1734 0 
L 888 0 
Q 909 950 1279 1937 
Q 1650 2925 2269 3703 
L 272 3703 
z
" transform="scale(0.015625)"/>
       </defs>
       <use xlink:href="#Arial-BoldMT-37"/>
      </g>
     </g>
    </g>
    <g id="xtick_9">
     <g id="line2d_9">
      <g>
       <use xlink:href="#m1d0754a2fc" x="271.636495" y="198.907885" style="stroke: #000000; stroke-width: 2"/>
      </g>
     </g>
     <g id="text_9">
      <!-- 8 -->
      <g transform="translate(266.631651 224.791947) scale(0.18 -0.18)">
       <defs>
        <path id="Arial-BoldMT-38" d="M 1025 2472 
Q 684 2616 529 2867 
Q 375 3119 375 3419 
Q 375 3931 733 4265 
Q 1091 4600 1750 4600 
Q 2403 4600 2764 4265 
Q 3125 3931 3125 3419 
Q 3125 3100 2959 2851 
Q 2794 2603 2494 2472 
Q 2875 2319 3073 2025 
Q 3272 1731 3272 1347 
Q 3272 713 2867 316 
Q 2463 -81 1791 -81 
Q 1166 -81 750 247 
Q 259 634 259 1309 
Q 259 1681 443 1992 
Q 628 2303 1025 2472 
z
M 1206 3356 
Q 1206 3094 1354 2947 
Q 1503 2800 1750 2800 
Q 2000 2800 2150 2948 
Q 2300 3097 2300 3359 
Q 2300 3606 2151 3754 
Q 2003 3903 1759 3903 
Q 1506 3903 1356 3753 
Q 1206 3603 1206 3356 
z
M 1125 1394 
Q 1125 1031 1311 828 
Q 1497 625 1775 625 
Q 2047 625 2225 820 
Q 2403 1016 2403 1384 
Q 2403 1706 2222 1901 
Q 2041 2097 1763 2097 
Q 1441 2097 1283 1875 
Q 1125 1653 1125 1394 
z
" transform="scale(0.015625)"/>
       </defs>
       <use xlink:href="#Arial-BoldMT-38"/>
      </g>
     </g>
    </g>
    <g id="xtick_10">
     <g id="line2d_10">
      <g>
       <use xlink:href="#m1d0754a2fc" x="164.181993" y="198.907885" style="stroke: #000000; stroke-width: 2"/>
      </g>
     </g>
     <g id="text_10">
      <!-- 9 -->
      <g transform="translate(159.177149 224.791947) scale(0.18 -0.18)">
       <defs>
        <path id="Arial-BoldMT-39" d="M 291 1059 
L 1141 1153 
Q 1172 894 1303 769 
Q 1434 644 1650 644 
Q 1922 644 2112 894 
Q 2303 1144 2356 1931 
Q 2025 1547 1528 1547 
Q 988 1547 595 1964 
Q 203 2381 203 3050 
Q 203 3747 617 4173 
Q 1031 4600 1672 4600 
Q 2369 4600 2816 4061 
Q 3263 3522 3263 2288 
Q 3263 1031 2797 475 
Q 2331 -81 1584 -81 
Q 1047 -81 715 205 
Q 384 491 291 1059 
z
M 2278 2978 
Q 2278 3403 2083 3637 
Q 1888 3872 1631 3872 
Q 1388 3872 1227 3680 
Q 1066 3488 1066 3050 
Q 1066 2606 1241 2398 
Q 1416 2191 1678 2191 
Q 1931 2191 2104 2391 
Q 2278 2591 2278 2978 
z
" transform="scale(0.015625)"/>
       </defs>
       <use xlink:href="#Arial-BoldMT-39"/>
      </g>
     </g>
    </g>
    <g id="xtick_11">
     <g id="line2d_11">
      <g>
       <use xlink:href="#m1d0754a2fc" x="56.727491" y="198.907885" style="stroke: #000000; stroke-width: 2"/>
      </g>
     </g>
     <g id="text_11">
      <!-- 10 -->
      <g transform="translate(46.717803 224.791947) scale(0.18 -0.18)">
       <use xlink:href="#Arial-BoldMT-31"/>
       <use xlink:href="#Arial-BoldMT-30" x="55.615234"/>
      </g>
     </g>
    </g>
    <g id="text_12">
     <!-- Chemical Shift / ppm -->
     <g transform="translate(504.992813 245.447573) scale(0.18 -0.18)">
      <defs>
       <path id="Arial-BoldMT-43" d="M 3397 1684 
L 4294 1400 
Q 4088 650 3608 286 
Q 3128 -78 2391 -78 
Q 1478 -78 890 545 
Q 303 1169 303 2250 
Q 303 3394 893 4026 
Q 1484 4659 2447 4659 
Q 3288 4659 3813 4163 
Q 4125 3869 4281 3319 
L 3366 3100 
Q 3284 3456 3026 3662 
Q 2769 3869 2400 3869 
Q 1891 3869 1573 3503 
Q 1256 3138 1256 2319 
Q 1256 1450 1568 1081 
Q 1881 713 2381 713 
Q 2750 713 3015 947 
Q 3281 1181 3397 1684 
z
" transform="scale(0.015625)"/>
       <path id="Arial-BoldMT-68" d="M 1334 4581 
L 1334 2897 
Q 1759 3394 2350 3394 
Q 2653 3394 2897 3281 
Q 3141 3169 3264 2994 
Q 3388 2819 3433 2606 
Q 3478 2394 3478 1947 
L 3478 0 
L 2600 0 
L 2600 1753 
Q 2600 2275 2550 2415 
Q 2500 2556 2373 2639 
Q 2247 2722 2056 2722 
Q 1838 2722 1666 2615 
Q 1494 2509 1414 2295 
Q 1334 2081 1334 1663 
L 1334 0 
L 456 0 
L 456 4581 
L 1334 4581 
z
" transform="scale(0.015625)"/>
       <path id="Arial-BoldMT-65" d="M 2381 1056 
L 3256 909 
Q 3088 428 2723 176 
Q 2359 -75 1813 -75 
Q 947 -75 531 491 
Q 203 944 203 1634 
Q 203 2459 634 2926 
Q 1066 3394 1725 3394 
Q 2466 3394 2894 2905 
Q 3322 2416 3303 1406 
L 1103 1406 
Q 1113 1016 1316 798 
Q 1519 581 1822 581 
Q 2028 581 2168 693 
Q 2309 806 2381 1056 
z
M 2431 1944 
Q 2422 2325 2234 2523 
Q 2047 2722 1778 2722 
Q 1491 2722 1303 2513 
Q 1116 2303 1119 1944 
L 2431 1944 
z
" transform="scale(0.015625)"/>
       <path id="Arial-BoldMT-6d" d="M 394 3319 
L 1203 3319 
L 1203 2866 
Q 1638 3394 2238 3394 
Q 2556 3394 2790 3262 
Q 3025 3131 3175 2866 
Q 3394 3131 3647 3262 
Q 3900 3394 4188 3394 
Q 4553 3394 4806 3245 
Q 5059 3097 5184 2809 
Q 5275 2597 5275 2122 
L 5275 0 
L 4397 0 
L 4397 1897 
Q 4397 2391 4306 2534 
Q 4184 2722 3931 2722 
Q 3747 2722 3584 2609 
Q 3422 2497 3350 2280 
Q 3278 2063 3278 1594 
L 3278 0 
L 2400 0 
L 2400 1819 
Q 2400 2303 2353 2443 
Q 2306 2584 2207 2653 
Q 2109 2722 1941 2722 
Q 1738 2722 1575 2612 
Q 1413 2503 1342 2297 
Q 1272 2091 1272 1613 
L 1272 0 
L 394 0 
L 394 3319 
z
" transform="scale(0.015625)"/>
       <path id="Arial-BoldMT-69" d="M 459 3769 
L 459 4581 
L 1338 4581 
L 1338 3769 
L 459 3769 
z
M 459 0 
L 459 3319 
L 1338 3319 
L 1338 0 
L 459 0 
z
" transform="scale(0.015625)"/>
       <path id="Arial-BoldMT-63" d="M 3353 2338 
L 2488 2181 
Q 2444 2441 2289 2572 
Q 2134 2703 1888 2703 
Q 1559 2703 1364 2476 
Q 1169 2250 1169 1719 
Q 1169 1128 1367 884 
Q 1566 641 1900 641 
Q 2150 641 2309 783 
Q 2469 925 2534 1272 
L 3397 1125 
Q 3263 531 2881 228 
Q 2500 -75 1859 -75 
Q 1131 -75 698 384 
Q 266 844 266 1656 
Q 266 2478 700 2936 
Q 1134 3394 1875 3394 
Q 2481 3394 2839 3133 
Q 3197 2872 3353 2338 
z
" transform="scale(0.015625)"/>
       <path id="Arial-BoldMT-61" d="M 1116 2306 
L 319 2450 
Q 453 2931 781 3162 
Q 1109 3394 1756 3394 
Q 2344 3394 2631 3255 
Q 2919 3116 3036 2902 
Q 3153 2688 3153 2116 
L 3144 1091 
Q 3144 653 3186 445 
Q 3228 238 3344 0 
L 2475 0 
Q 2441 88 2391 259 
Q 2369 338 2359 363 
Q 2134 144 1878 34 
Q 1622 -75 1331 -75 
Q 819 -75 523 203 
Q 228 481 228 906 
Q 228 1188 362 1408 
Q 497 1628 739 1745 
Q 981 1863 1438 1950 
Q 2053 2066 2291 2166 
L 2291 2253 
Q 2291 2506 2166 2614 
Q 2041 2722 1694 2722 
Q 1459 2722 1328 2630 
Q 1197 2538 1116 2306 
z
M 2291 1594 
Q 2122 1538 1756 1459 
Q 1391 1381 1278 1306 
Q 1106 1184 1106 997 
Q 1106 813 1243 678 
Q 1381 544 1594 544 
Q 1831 544 2047 700 
Q 2206 819 2256 991 
Q 2291 1103 2291 1419 
L 2291 1594 
z
" transform="scale(0.015625)"/>
       <path id="Arial-BoldMT-6c" d="M 459 0 
L 459 4581 
L 1338 4581 
L 1338 0 
L 459 0 
z
" transform="scale(0.015625)"/>
       <path id="Arial-BoldMT-20" transform="scale(0.015625)"/>
       <path id="Arial-BoldMT-53" d="M 231 1491 
L 1131 1578 
Q 1213 1125 1461 912 
Q 1709 700 2131 700 
Q 2578 700 2804 889 
Q 3031 1078 3031 1331 
Q 3031 1494 2936 1608 
Q 2841 1722 2603 1806 
Q 2441 1863 1863 2006 
Q 1119 2191 819 2459 
Q 397 2838 397 3381 
Q 397 3731 595 4036 
Q 794 4341 1167 4500 
Q 1541 4659 2069 4659 
Q 2931 4659 3367 4281 
Q 3803 3903 3825 3272 
L 2900 3231 
Q 2841 3584 2645 3739 
Q 2450 3894 2059 3894 
Q 1656 3894 1428 3728 
Q 1281 3622 1281 3444 
Q 1281 3281 1419 3166 
Q 1594 3019 2269 2859 
Q 2944 2700 3267 2529 
Q 3591 2359 3773 2064 
Q 3956 1769 3956 1334 
Q 3956 941 3737 597 
Q 3519 253 3119 86 
Q 2719 -81 2122 -81 
Q 1253 -81 787 320 
Q 322 722 231 1491 
z
" transform="scale(0.015625)"/>
       <path id="Arial-BoldMT-66" d="M 75 3319 
L 563 3319 
L 563 3569 
Q 563 3988 652 4194 
Q 741 4400 980 4529 
Q 1219 4659 1584 4659 
Q 1959 4659 2319 4547 
L 2200 3934 
Q 1991 3984 1797 3984 
Q 1606 3984 1523 3895 
Q 1441 3806 1441 3553 
L 1441 3319 
L 2097 3319 
L 2097 2628 
L 1441 2628 
L 1441 0 
L 563 0 
L 563 2628 
L 75 2628 
L 75 3319 
z
" transform="scale(0.015625)"/>
       <path id="Arial-BoldMT-74" d="M 1981 3319 
L 1981 2619 
L 1381 2619 
L 1381 1281 
Q 1381 875 1398 808 
Q 1416 741 1477 697 
Q 1538 653 1625 653 
Q 1747 653 1978 738 
L 2053 56 
Q 1747 -75 1359 -75 
Q 1122 -75 931 4 
Q 741 84 652 211 
Q 563 338 528 553 
Q 500 706 500 1172 
L 500 2619 
L 97 2619 
L 97 3319 
L 500 3319 
L 500 3978 
L 1381 4491 
L 1381 3319 
L 1981 3319 
z
" transform="scale(0.015625)"/>
       <path id="Arial-BoldMT-2f" d="M -9 -78 
L 1125 4659 
L 1784 4659 
L 638 -78 
L -9 -78 
z
" transform="scale(0.015625)"/>
       <path id="Arial-BoldMT-70" d="M 434 3319 
L 1253 3319 
L 1253 2831 
Q 1413 3081 1684 3237 
Q 1956 3394 2288 3394 
Q 2866 3394 3269 2941 
Q 3672 2488 3672 1678 
Q 3672 847 3265 386 
Q 2859 -75 2281 -75 
Q 2006 -75 1782 34 
Q 1559 144 1313 409 
L 1313 -1263 
L 434 -1263 
L 434 3319 
z
M 1303 1716 
Q 1303 1156 1525 889 
Q 1747 622 2066 622 
Q 2372 622 2575 867 
Q 2778 1113 2778 1672 
Q 2778 2194 2568 2447 
Q 2359 2700 2050 2700 
Q 1728 2700 1515 2451 
Q 1303 2203 1303 1716 
z
" transform="scale(0.015625)"/>
      </defs>
      <use xlink:href="#Arial-BoldMT-43"/>
      <use xlink:href="#Arial-BoldMT-68" x="72.216797"/>
      <use xlink:href="#Arial-BoldMT-65" x="133.300781"/>
      <use xlink:href="#Arial-BoldMT-6d" x="188.916016"/>
      <use xlink:href="#Arial-BoldMT-69" x="277.832031"/>
      <use xlink:href="#Arial-BoldMT-63" x="305.615234"/>
      <use xlink:href="#Arial-BoldMT-61" x="361.230469"/>
      <use xlink:href="#Arial-BoldMT-6c" x="416.845703"/>
      <use xlink:href="#Arial-BoldMT-20" x="444.628906"/>
      <use xlink:href="#Arial-BoldMT-53" x="472.412109"/>
      <use xlink:href="#Arial-BoldMT-68" x="539.111328"/>
      <use xlink:href="#Arial-BoldMT-69" x="600.195312"/>
      <use xlink:href="#Arial-BoldMT-66" x="627.978516"/>
      <use xlink:href="#Arial-BoldMT-74" x="661.279297"/>
      <use xlink:href="#Arial-BoldMT-20" x="694.580078"/>
      <use xlink:href="#Arial-BoldMT-2f" x="722.363281"/>
      <use xlink:href="#Arial-BoldMT-20" x="750.146484"/>
      <use xlink:href="#Arial-BoldMT-70" x="777.929688"/>
      <use xlink:href="#Arial-BoldMT-70" x="839.013672"/>
      <use xlink:href="#Arial-BoldMT-6d" x="900.097656"/>
     </g>
    </g>
   </g>
   <g id="matplotlib.axis_2"/>
   <g id="line2d_12">
    <path d="M 2.970372 192.248247 
L 3.584231 192.165337 
L 3.993471 192.167667 
L 4.40271 191.676031 
L 4.81195 191.259918 
L 5.016569 191.244644 
L 5.425809 191.541593 
L 6.039668 192.382652 
L 6.244288 192.458353 
L 6.653527 192.099797 
L 6.858147 191.911001 
L 7.062767 191.930657 
L 7.472006 192.287074 
L 7.676626 192.155619 
L 8.085865 191.474965 
L 8.495105 191.417043 
L 8.904344 191.591335 
L 9.518203 192.008564 
L 10.132062 191.69518 
L 10.541302 191.581007 
L 11.155161 191.716889 
L 11.564401 191.21007 
L 12.17826 190.316897 
L 12.382879 190.360172 
L 12.996739 191.181532 
L 14.633696 191.115422 
L 15.042936 191.621675 
L 15.247556 191.665733 
L 15.861415 191.262205 
L 16.679894 191.423172 
L 17.702992 191.182215 
L 17.907612 191.300331 
L 18.726091 192.415603 
L 19.54457 191.864857 
L 19.74919 191.852515 
L 20.363049 191.415318 
L 20.976908 192.12764 
L 21.181528 192.026432 
L 21.795387 191.024725 
L 22.409246 191.698388 
L 23.841584 191.613784 
L 24.660063 191.089152 
L 25.887781 192.262251 
L 26.297021 192.197898 
L 26.501641 192.343547 
L 27.1155 193.087351 
L 27.524739 193.053905 
L 27.933979 192.658769 
L 28.343218 192.047409 
L 29.570937 191.628991 
L 30.184796 192.050616 
L 30.594035 192.43349 
L 30.798655 192.418686 
L 31.821754 191.694106 
L 33.254092 191.997215 
L 33.663331 191.988107 
L 34.072571 191.499823 
L 34.48181 190.947122 
L 34.68643 190.878789 
L 34.891049 191.006083 
L 36.118768 192.501362 
L 36.323388 192.510236 
L 36.732627 192.032237 
L 37.141866 191.485575 
L 38.369585 191.149309 
L 39.188064 191.665859 
L 39.597303 191.931342 
L 40.211162 192.085155 
L 40.620402 192.354965 
L 42.05274 192.52537 
L 43.075838 192.600189 
L 43.485078 193.080961 
L 43.689698 193.10157 
L 44.917416 192.411866 
L 45.531275 192.062795 
L 45.940515 191.906959 
L 46.554374 191.329312 
L 46.963613 190.859103 
L 47.168233 190.83379 
L 47.577472 190.912516 
L 47.986712 190.678195 
L 48.191332 190.712677 
L 49.41905 191.830072 
L 50.032909 192.038085 
L 50.442149 191.910858 
L 50.851388 191.762337 
L 51.260628 192.081152 
L 52.079106 192.868589 
L 52.488346 192.739247 
L 53.716064 192.059283 
L 54.739163 192.667534 
L 55.148402 192.815311 
L 55.762262 193.400632 
L 55.966881 193.416406 
L 56.58074 192.882458 
L 57.1946 192.249321 
L 57.808459 192.459984 
L 58.422318 192.239906 
L 59.240797 191.543082 
L 59.854656 191.56613 
L 60.263896 191.40878 
L 60.468515 191.498812 
L 60.877755 191.970859 
L 61.082374 192.010259 
L 61.491614 191.411195 
L 61.900853 190.937412 
L 62.310093 191.024991 
L 62.923952 191.440632 
L 63.333191 191.329599 
L 64.35629 190.624965 
L 64.56091 190.775036 
L 65.584008 192.132963 
L 65.993248 192.260104 
L 66.607107 192.140174 
L 68.857924 193.197177 
L 69.471783 192.424455 
L 69.676403 192.43958 
L 70.290262 192.787632 
L 71.7226 193.410598 
L 71.92722 193.448894 
L 72.950319 192.929433 
L 73.564178 192.1757 
L 74.382657 191.94585 
L 74.791896 191.535691 
L 75.201136 191.495247 
L 76.019614 191.991355 
L 76.633474 191.797612 
L 77.042713 192.018318 
L 78.475051 193.339544 
L 78.679671 193.46131 
L 78.884291 193.387707 
L 79.907389 192.138383 
L 80.112009 192.096317 
L 80.521248 192.411775 
L 80.930488 192.724593 
L 81.544347 192.592065 
L 82.362826 192.364804 
L 82.772065 192.852139 
L 82.976685 192.839001 
L 83.385925 192.100797 
L 83.999784 190.893461 
L 84.204404 190.751161 
L 84.409023 190.83147 
L 85.022882 191.350119 
L 85.841361 191.851239 
L 86.250601 192.414718 
L 86.65984 193.034665 
L 86.86446 193.063589 
L 87.06908 192.889665 
L 87.478319 192.297272 
L 88.910657 191.641133 
L 89.115277 191.714647 
L 89.524516 191.560107 
L 90.138376 191.318542 
L 90.342995 191.456942 
L 91.366094 192.693474 
L 91.775333 192.209743 
L 92.389193 191.32431 
L 92.593812 191.175306 
L 92.798432 191.275262 
L 93.821531 193.057325 
L 94.02615 193.171736 
L 94.43539 192.91761 
L 95.049249 192.026197 
L 95.867728 191.757456 
L 96.276967 191.83111 
L 97.300066 192.484975 
L 97.709306 192.47419 
L 98.323165 192.528238 
L 98.732404 192.708366 
L 99.346263 192.410134 
L 99.755503 192.139962 
L 100.369362 192.062833 
L 102.415559 192.22756 
L 102.620179 192.18916 
L 103.643278 191.350046 
L 104.461757 191.279371 
L 104.870996 191.481977 
L 105.280235 191.539594 
L 105.484855 191.810526 
L 106.098714 193.195941 
L 106.507954 193.358132 
L 106.917193 193.206117 
L 107.326433 192.912873 
L 108.144912 192.038727 
L 108.349531 192.013506 
L 109.16801 192.393885 
L 109.57725 192.151957 
L 110.191109 192.153992 
L 111.214208 191.348688 
L 111.623447 191.392781 
L 112.646546 192.254225 
L 113.055785 192.759717 
L 113.465025 193.121453 
L 114.078884 193.959021 
L 114.283503 193.913464 
L 114.897363 193.470388 
L 115.715841 193.511667 
L 115.920461 193.407085 
L 116.53432 192.846479 
L 117.14818 193.213989 
L 117.557419 192.86366 
L 117.966658 192.666628 
L 118.171278 192.661763 
L 118.580518 192.277084 
L 118.989757 191.893548 
L 119.194377 191.790148 
L 120.831335 192.107364 
L 121.649814 192.789528 
L 122.059053 192.559022 
L 122.468292 192.287195 
L 122.877532 192.354117 
L 123.286771 192.701465 
L 123.900631 193.406833 
L 124.30987 193.431127 
L 124.923729 193.090001 
L 125.742208 192.901195 
L 126.151448 192.531406 
L 126.560687 192.117027 
L 126.969926 192.035028 
L 127.379166 191.915605 
L 127.788405 191.805995 
L 127.993025 191.83405 
L 128.606884 192.353812 
L 128.811504 192.17525 
L 129.220743 191.563468 
L 129.425363 191.566655 
L 130.448462 192.684382 
L 130.653082 192.504896 
L 131.266941 191.56613 
L 131.67618 191.425212 
L 132.08542 191.683586 
L 132.699279 192.166022 
L 133.722377 192.708224 
L 134.131617 192.247951 
L 134.540856 191.529152 
L 134.745476 191.422332 
L 135.768575 191.608247 
L 136.177814 191.267397 
L 136.382434 191.330342 
L 136.791673 191.808133 
L 137.200913 191.873263 
L 137.610152 191.749524 
L 138.224011 191.379825 
L 138.633251 191.855045 
L 139.04249 192.271684 
L 139.65635 192.571865 
L 140.065589 192.563456 
L 140.474828 192.577614 
L 141.293307 193.117936 
L 141.702547 193.415772 
L 142.521026 194.040512 
L 142.725645 193.93818 
L 143.748744 192.383306 
L 144.157984 191.931636 
L 144.567223 192.038487 
L 145.181082 192.182657 
L 145.590322 192.175532 
L 145.999561 192.457922 
L 146.61342 193.030925 
L 147.431899 192.901129 
L 149.273477 192.777806 
L 149.887336 193.323061 
L 150.296575 193.153263 
L 150.910435 193.159556 
L 151.319674 192.987593 
L 151.933533 192.373683 
L 152.752012 192.844248 
L 153.161251 193.105141 
L 153.775111 193.192323 
L 154.18435 193.373442 
L 154.798209 193.030625 
L 155.002829 193.016872 
L 155.616688 192.633817 
L 156.025928 192.706084 
L 156.844407 193.374097 
L 157.253646 193.639248 
L 157.662885 193.50767 
L 158.685984 192.992192 
L 159.299843 192.623286 
L 159.504463 192.630986 
L 159.913702 192.879672 
L 160.527562 192.32253 
L 160.732181 192.426919 
L 161.346041 193.247086 
L 161.55066 193.293533 
L 162.369139 192.802899 
L 162.778379 192.639309 
L 163.392238 192.899609 
L 165.029196 192.695831 
L 165.438435 193.216156 
L 165.847675 193.786534 
L 166.256914 194.086978 
L 166.666153 193.909618 
L 167.075393 193.855201 
L 167.280013 193.847111 
L 167.689252 193.370206 
L 168.098492 193.066601 
L 168.507731 193.293599 
L 169.12159 193.801952 
L 169.32621 193.756425 
L 171.167787 192.236042 
L 171.372407 192.20936 
L 171.781647 192.544891 
L 172.190886 193.000513 
L 172.395506 193.081287 
L 172.804745 192.957064 
L 173.009365 193.019894 
L 173.418604 193.517657 
L 173.827844 194.050471 
L 174.032464 194.048807 
L 174.850943 193.464468 
L 175.260182 193.302909 
L 176.078661 193.82246 
L 176.283281 193.777561 
L 177.10176 192.976746 
L 177.510999 192.614215 
L 177.920238 192.814702 
L 178.534098 193.484723 
L 178.943337 193.577028 
L 179.147957 193.574472 
L 179.352577 193.707959 
L 180.171055 194.925843 
L 180.375675 194.774075 
L 180.989534 193.91042 
L 181.398774 193.854921 
L 182.217253 193.938764 
L 182.626492 193.875036 
L 183.035732 194.027879 
L 183.444971 194.301804 
L 184.05883 194.400602 
L 184.46807 194.648578 
L 184.877309 194.380349 
L 185.286549 193.79091 
L 185.695788 193.046597 
L 186.514267 192.566029 
L 186.718887 192.535765 
L 186.923506 192.656034 
L 187.537366 193.325013 
L 188.151225 193.56757 
L 188.560464 193.464549 
L 188.969704 193.305633 
L 189.992802 193.343747 
L 190.402042 193.515445 
L 190.811281 193.49767 
L 191.220521 193.165706 
L 191.62976 192.714253 
L 192.039 192.419085 
L 192.448239 192.008631 
L 192.652859 192.00286 
L 193.062098 192.409699 
L 193.675957 193.136063 
L 194.085197 193.238751 
L 194.494436 193.174807 
L 195.312915 193.604369 
L 196.336014 193.984282 
L 196.949873 193.971975 
L 197.359112 194.029499 
L 198.99607 192.603202 
L 199.40531 193.009265 
L 199.814549 193.444922 
L 200.428408 193.631645 
L 200.633028 193.574578 
L 201.246887 192.621096 
L 201.656127 192.661361 
L 202.065366 192.932339 
L 203.088465 193.84824 
L 204.111563 194.302338 
L 204.316183 194.385732 
L 204.725423 194.106422 
L 204.930042 193.978568 
L 205.339282 194.118412 
L 206.567 194.756849 
L 206.97624 195.14126 
L 207.180859 195.091409 
L 207.794719 194.166402 
L 208.613197 194.186503 
L 209.431676 194.4089 
L 209.636296 194.263076 
L 210.250155 194.330518 
L 210.864014 193.532104 
L 211.068634 193.494487 
L 211.477874 193.635331 
L 212.091733 193.41764 
L 212.500972 193.192255 
L 213.114831 193.308199 
L 213.728691 193.969771 
L 214.54717 193.571034 
L 215.774888 193.695394 
L 216.184127 193.658898 
L 216.593367 193.900748 
L 217.207226 194.516948 
L 217.411846 194.495246 
L 217.821085 194.250692 
L 218.844184 194.124885 
L 219.662663 193.193748 
L 220.071902 193.02913 
L 220.481142 192.843192 
L 220.890381 193.048588 
L 221.299621 193.28032 
L 222.322719 193.080236 
L 223.345818 193.733983 
L 223.550438 193.770978 
L 224.778156 194.685514 
L 224.982776 194.645106 
L 225.596635 194.086328 
L 226.005874 194.04995 
L 226.824353 194.371458 
L 227.233593 194.05456 
L 227.642832 194.091815 
L 228.052072 194.152987 
L 228.461311 193.648128 
L 228.87055 193.050304 
L 229.27979 192.890678 
L 229.689029 192.966676 
L 229.893649 192.897694 
L 230.302888 192.38031 
L 231.325987 190.587196 
L 231.939846 189.735051 
L 232.349086 188.518511 
L 232.962945 185.728658 
L 233.576804 180.864538 
L 233.986044 175.956335 
L 234.395283 168.559321 
L 235.213762 151.5672 
L 235.623001 147.040101 
L 236.44148 141.292243 
L 236.6461 140.835949 
L 236.85072 140.681722 
L 237.055339 140.385029 
L 237.464579 138.481962 
L 237.873818 136.414895 
L 238.078438 136.100942 
L 238.283058 136.19631 
L 238.692297 136.558775 
L 238.896917 136.65589 
L 239.101537 137.197063 
L 239.306156 138.715869 
L 240.124635 148.564348 
L 240.329255 149.486543 
L 240.533875 149.159956 
L 240.738495 147.633706 
L 241.966213 133.421955 
L 242.375452 131.20929 
L 243.193931 125.083371 
L 243.603171 123.938255 
L 243.80779 123.795033 
L 244.01241 124.248386 
L 244.21703 125.493161 
L 245.240129 134.34101 
L 245.444748 135.794922 
L 245.853988 141.630549 
L 247.081706 166.820271 
L 247.695565 173.598786 
L 248.514044 180.02608 
L 248.923284 182.023965 
L 249.537143 183.464893 
L 249.946382 183.962987 
L 250.560241 184.475842 
L 250.969481 185.01911 
L 251.58334 186.036958 
L 252.401819 187.197598 
L 253.015678 188.143045 
L 253.629537 188.062788 
L 254.243397 188.567846 
L 254.857256 188.710485 
L 255.266495 188.806445 
L 255.880354 189.281756 
L 256.289594 189.019184 
L 256.494214 189.134765 
L 257.108073 189.970118 
L 257.517312 189.967665 
L 257.721932 189.94484 
L 258.131171 190.0912 
L 258.540411 189.691649 
L 258.94965 189.358154 
L 259.35889 189.56138 
L 259.768129 189.885768 
L 260.791228 190.991749 
L 260.995848 190.825581 
L 261.405087 190.272975 
L 261.609707 190.246598 
L 262.223566 190.507184 
L 262.428186 190.510342 
L 262.837425 190.860874 
L 263.451284 191.514202 
L 264.269763 191.894444 
L 264.679003 191.391301 
L 265.088242 190.904299 
L 265.292862 190.804651 
L 265.702101 190.967466 
L 266.111341 191.265965 
L 266.52058 191.748773 
L 266.7252 191.743828 
L 267.339059 191.246459 
L 268.566777 191.695931 
L 268.976017 191.833653 
L 269.180637 191.924021 
L 269.385256 191.889711 
L 270.408355 191.066313 
L 270.817594 191.079554 
L 271.840693 191.739854 
L 272.249932 191.455789 
L 272.863792 191.058294 
L 273.273031 191.416521 
L 273.682271 191.789132 
L 274.09151 191.809486 
L 274.909989 191.339524 
L 275.933088 191.443739 
L 276.342327 191.50095 
L 277.160806 191.848792 
L 277.774665 191.851838 
L 278.183905 192.176521 
L 278.593144 192.082851 
L 279.002383 191.827159 
L 279.411623 191.570226 
L 279.820862 191.522021 
L 280.639341 191.056886 
L 281.048581 190.511707 
L 281.2532 190.43218 
L 281.66244 190.875874 
L 282.071679 191.1986 
L 283.094778 190.710413 
L 283.913257 191.21273 
L 284.117877 191.159488 
L 285.140975 190.211908 
L 285.754834 190.178363 
L 286.777933 189.014524 
L 286.982553 188.999319 
L 287.391792 189.448979 
L 288.005651 190.402638 
L 288.210271 190.411777 
L 288.619511 190.033509 
L 289.43799 188.832174 
L 289.847229 188.516946 
L 290.461088 188.734578 
L 290.870328 188.285519 
L 291.279567 187.953874 
L 291.484187 188.155339 
L 291.893426 188.796969 
L 292.098046 188.861148 
L 292.507285 188.538658 
L 293.121145 187.738869 
L 293.325764 187.785156 
L 293.735004 188.101693 
L 293.939624 188.089674 
L 294.348863 187.533797 
L 294.758102 187.089538 
L 295.371962 187.059043 
L 296.190441 187.487297 
L 296.39506 187.24983 
L 297.008919 186.137843 
L 297.213539 186.116537 
L 297.418159 186.330921 
L 298.441258 188.308478 
L 298.645877 188.239392 
L 299.259736 187.533834 
L 299.873596 187.348674 
L 300.282835 187.22787 
L 300.896694 187.263751 
L 301.101314 187.17194 
L 301.305934 186.951549 
L 301.510553 186.538147 
L 301.919793 184.608122 
L 302.738272 178.105324 
L 302.942892 178.066372 
L 303.352131 180.177909 
L 303.76137 182.657266 
L 304.17061 183.815249 
L 304.37523 183.845484 
L 304.579849 183.59595 
L 304.784469 183.093859 
L 305.193709 181.025341 
L 305.398328 179.939792 
L 305.602948 179.596955 
L 305.807568 180.256408 
L 306.626047 184.730665 
L 307.649145 187.084374 
L 307.853765 187.224222 
L 308.876864 187.07207 
L 309.286103 186.138585 
L 309.899962 183.732541 
L 310.513821 180.599795 
L 310.923061 177.199441 
L 311.53692 171.285517 
L 312.150779 168.989836 
L 312.355399 167.179294 
L 312.764638 159.475708 
L 313.378498 143.036202 
L 313.583117 141.555646 
L 313.787737 143.103028 
L 314.810836 159.569632 
L 315.015455 159.953593 
L 315.220075 158.82684 
L 315.629315 152.058278 
L 316.038554 143.425687 
L 316.243174 142.576965 
L 316.447793 145.346634 
L 317.470892 168.67113 
L 317.880132 173.122433 
L 318.289371 175.524127 
L 318.493991 176.009311 
L 318.69861 175.936031 
L 318.90323 175.479569 
L 319.31247 173.733553 
L 319.721709 170.819465 
L 320.130949 166.276359 
L 320.540188 158.618028 
L 320.949427 146.412216 
L 321.358667 126.258635 
L 322.381766 50.998334 
L 322.586385 47.804145 
L 322.791005 49.16846 
L 323.200244 56.767017 
L 323.404864 57.387457 
L 323.609484 53.598331 
L 324.223343 26.79881 
L 324.837202 4.57908 
L 325.041822 3.00024 
L 325.246442 4.811379 
L 325.451061 10.518792 
L 326.26954 50.827322 
L 326.47416 53.919443 
L 326.67878 55.211413 
L 326.8834 58.766041 
L 327.292639 80.974313 
L 327.906498 120.706818 
L 328.315738 136.99942 
L 328.724977 147.234282 
L 329.134217 153.516698 
L 329.952695 161.146453 
L 330.566555 165.57674 
L 330.975794 167.407482 
L 331.385034 168.346739 
L 331.589653 168.176592 
L 331.794273 167.465422 
L 332.203512 164.778184 
L 332.612752 160.657473 
L 333.635851 147.436416 
L 333.84047 147.349185 
L 334.04509 146.988065 
L 334.454329 144.093884 
L 334.658949 142.607182 
L 334.863569 141.949247 
L 335.068189 141.822521 
L 335.272808 141.306223 
L 335.477428 139.564463 
L 335.886668 131.873059 
L 336.295907 124.506337 
L 336.500527 123.693332 
L 336.705146 124.658085 
L 337.114386 129.23023 
L 338.342104 146.662296 
L 338.546724 147.120502 
L 338.751344 146.383565 
L 339.160583 142.097031 
L 339.979062 128.350593 
L 340.388302 117.531943 
L 340.797541 105.620402 
L 341.002161 104.261315 
L 341.20678 107.268708 
L 341.82064 120.820231 
L 342.025259 121.620305 
L 342.229879 119.878395 
L 342.639119 109.125998 
L 343.252978 86.407183 
L 343.457597 82.573618 
L 343.662217 82.602654 
L 343.866837 86.688425 
L 344.685316 110.299773 
L 344.889936 112.51496 
L 345.094555 113.418877 
L 345.299175 113.680229 
L 345.503795 113.726618 
L 345.708414 113.326864 
L 345.913034 111.883017 
L 346.322274 104.9626 
L 346.731513 92.861149 
L 347.549992 64.178388 
L 347.959231 54.439806 
L 348.573091 33.985495 
L 348.77771 31.452433 
L 348.98233 32.714587 
L 349.596189 46.819396 
L 350.005429 58.810412 
L 351.233147 102.31404 
L 351.437767 103.17867 
L 351.642386 101.652916 
L 352.256246 92.470574 
L 352.460865 93.382596 
L 352.870105 103.672209 
L 353.279344 114.260676 
L 353.483964 117.084875 
L 353.688584 117.939096 
L 353.893203 116.77673 
L 354.097823 113.459278 
L 354.507063 99.229503 
L 355.530161 49.873232 
L 355.734781 51.175271 
L 355.939401 58.893922 
L 356.962499 116.873863 
L 357.371739 127.132957 
L 357.780978 131.166632 
L 357.985598 130.828453 
L 358.394837 126.645554 
L 358.804077 123.140019 
L 359.008697 123.865208 
L 359.417936 128.651945 
L 360.441035 141.878776 
L 360.645654 142.842884 
L 360.850274 142.805725 
L 361.054894 141.744017 
L 361.464133 136.878099 
L 362.077993 125.49292 
L 362.487232 113.93095 
L 362.896471 92.439628 
L 363.510331 53.79538 
L 363.71495 52.907207 
L 364.12419 68.343349 
L 364.533429 81.279415 
L 364.738049 82.275174 
L 364.942669 79.32693 
L 365.761148 52.906909 
L 365.965767 54.277999 
L 366.375007 71.127431 
L 367.193486 112.479538 
L 367.602725 123.860956 
L 368.011965 130.432294 
L 368.216584 132.160385 
L 368.421204 132.720843 
L 368.625824 132.127837 
L 369.035063 129.232785 
L 369.239683 128.868699 
L 369.444303 129.969957 
L 370.058162 135.466471 
L 370.262782 136.004262 
L 370.467401 135.279374 
L 370.672021 133.091191 
L 371.081261 124.337691 
L 371.899739 101.372882 
L 372.308979 95.730678 
L 372.922838 90.058407 
L 373.127458 89.760982 
L 373.332078 91.435686 
L 373.741317 100.045144 
L 374.150556 109.318803 
L 374.559796 113.639575 
L 374.764416 114.161173 
L 374.969035 114.141939 
L 375.173655 113.595082 
L 375.378275 112.080733 
L 375.582895 109.020982 
L 375.992134 96.520416 
L 376.605993 60.670969 
L 377.015233 42.436067 
L 377.219852 40.960829 
L 377.424472 44.160213 
L 378.038331 65.761637 
L 379.26605 113.084785 
L 379.675289 118.319152 
L 380.084529 119.481618 
L 380.289148 120.229889 
L 380.698388 123.990941 
L 381.926106 137.802558 
L 383.563064 152.659959 
L 383.972303 154.572467 
L 384.176923 155.022808 
L 384.381543 155.057146 
L 384.586162 154.67901 
L 384.995402 153.096696 
L 385.404641 150.443326 
L 385.813881 146.958972 
L 386.018501 146.030756 
L 386.22312 145.965012 
L 387.041599 147.967857 
L 387.246219 147.69196 
L 387.450839 146.744549 
L 387.860078 142.457619 
L 388.269318 134.882774 
L 389.087796 118.633208 
L 389.292416 117.640424 
L 389.497036 119.393612 
L 390.929374 146.110796 
L 391.338613 149.156169 
L 392.157092 152.659955 
L 392.566332 154.461777 
L 393.58943 160.625458 
L 394.20329 165.385326 
L 394.612529 166.828502 
L 395.431008 168.843414 
L 396.044867 170.404379 
L 396.454107 170.858091 
L 396.863346 171.117648 
L 397.272586 171.205657 
L 398.091064 171.919944 
L 398.500304 171.869163 
L 399.318783 171.441883 
L 399.523403 171.578696 
L 400.341881 173.000714 
L 400.546501 173.023647 
L 402.592698 171.698631 
L 402.797318 171.847142 
L 403.206558 172.563732 
L 404.025037 174.437902 
L 405.252755 175.950608 
L 405.661994 176.212446 
L 406.071234 176.942094 
L 406.480473 177.188442 
L 407.298952 178.33111 
L 407.708192 178.166588 
L 408.526671 178.189561 
L 408.93591 177.99418 
L 409.345149 178.499544 
L 409.959009 179.240383 
L 411.391347 179.889461 
L 411.595966 179.87256 
L 412.209826 179.247645 
L 412.619065 179.262532 
L 412.823685 179.06419 
L 413.642164 177.049017 
L 414.051403 175.850156 
L 414.256023 175.576251 
L 414.460643 175.807868 
L 414.869882 177.483055 
L 415.483741 179.870576 
L 417.120699 182.361412 
L 417.529939 182.598158 
L 417.734558 182.561639 
L 418.348417 182.133255 
L 418.757657 182.15289 
L 419.166896 182.467988 
L 419.780756 183.24424 
L 419.985375 183.174354 
L 421.213094 181.637966 
L 421.417713 181.593565 
L 421.826953 182.032968 
L 422.236192 182.302572 
L 422.645432 182.44692 
L 423.463911 182.906823 
L 424.07777 183.736592 
L 424.691629 184.120513 
L 425.305488 183.871807 
L 425.919347 183.917619 
L 426.328587 184.238199 
L 427.556305 185.34912 
L 428.170164 185.287402 
L 428.988643 185.798347 
L 429.397883 185.998412 
L 430.011742 186.059884 
L 430.420981 186.166636 
L 430.625601 186.089264 
L 431.03484 185.563052 
L 431.44408 185.143463 
L 431.853319 184.889039 
L 432.262559 184.57261 
L 432.467179 184.699283 
L 432.876418 185.337389 
L 433.081038 185.43008 
L 433.694897 185.382672 
L 434.513376 186.060852 
L 435.536474 186.971826 
L 436.150334 187.84331 
L 436.354953 187.694598 
L 436.764193 187.18138 
L 436.968813 187.189171 
L 437.378052 187.761407 
L 437.582672 187.811492 
L 438.196531 187.363639 
L 439.21963 187.306469 
L 439.833489 187.1506 
L 440.242728 187.109144 
L 440.651968 187.215616 
L 440.856587 187.236712 
L 441.265827 187.654271 
L 441.675066 188.01492 
L 442.084306 188.154327 
L 442.493545 187.924808 
L 442.902785 187.586458 
L 443.107404 187.571009 
L 443.516644 187.744817 
L 444.130503 187.469515 
L 444.539742 187.3207 
L 444.948982 187.458934 
L 445.767461 188.054463 
L 446.1767 188.108611 
L 446.995179 188.014925 
L 448.018278 188.453168 
L 448.427517 188.149393 
L 449.655236 188.568571 
L 450.064475 188.073033 
L 450.269095 187.854171 
L 450.678334 187.938381 
L 451.292193 188.231915 
L 451.701433 188.103869 
L 451.906053 187.98086 
L 452.110672 187.998507 
L 452.519912 188.293541 
L 453.133771 187.983573 
L 453.338391 188.16862 
L 453.74763 188.797609 
L 454.15687 189.017527 
L 454.566109 189.061391 
L 454.770729 189.253063 
L 455.179968 189.953507 
L 455.384588 190.022315 
L 458.044644 187.738298 
L 458.453884 187.286423 
L 458.863123 187.463791 
L 459.681602 188.206629 
L 460.090842 188.69174 
L 460.500081 188.862841 
L 460.704701 188.809642 
L 461.52318 188.144302 
L 462.546278 188.826198 
L 462.955518 188.601239 
L 463.569377 188.602214 
L 463.978616 188.912632 
L 464.592476 189.52121 
L 464.797095 189.525279 
L 465.410955 189.201929 
L 466.638673 188.983455 
L 467.047912 188.82714 
L 467.866391 188.221114 
L 468.275631 188.186989 
L 468.48025 188.326614 
L 468.88949 189.113425 
L 469.09411 189.485048 
L 469.503349 189.567106 
L 470.526448 189.478648 
L 470.935687 189.539322 
L 471.344927 189.879523 
L 472.163406 189.850998 
L 472.368025 189.80624 
L 472.981884 189.129553 
L 473.186504 189.16368 
L 473.595744 189.553469 
L 474.004983 189.549403 
L 474.414223 189.385342 
L 474.823462 188.971761 
L 475.028082 188.916574 
L 475.641941 189.03826 
L 476.05118 189.035327 
L 476.46042 189.156932 
L 477.278899 189.739272 
L 478.097378 189.514298 
L 478.711237 189.496471 
L 479.120476 189.102325 
L 480.143575 187.904707 
L 480.552814 187.895921 
L 480.962054 188.303921 
L 481.575913 188.952738 
L 483.008251 190.229231 
L 483.82673 190.445773 
L 484.235969 190.362815 
L 484.645209 190.134382 
L 485.259068 190.034004 
L 485.872927 189.604661 
L 487.509885 189.66282 
L 487.919125 189.602931 
L 488.328364 189.752502 
L 488.737603 190.228901 
L 488.942223 190.556809 
L 489.146843 190.66544 
L 490.169942 189.941387 
L 490.579181 190.109415 
L 490.98842 190.34325 
L 491.60228 190.055678 
L 493.648477 190.355496 
L 494.057716 190.588869 
L 494.466956 190.470905 
L 495.080815 190.046719 
L 495.899294 190.496804 
L 496.922393 190.315107 
L 497.945491 190.468712 
L 498.76397 191.244884 
L 499.17321 191.133419 
L 499.787069 190.868654 
L 500.400928 190.871905 
L 501.219407 190.389474 
L 502.447125 190.25445 
L 503.470224 190.600248 
L 503.879463 190.906764 
L 504.288703 190.651466 
L 505.107182 190.850514 
L 505.92566 191.47981 
L 506.13028 191.670747 
L 506.3349 191.662364 
L 506.948759 190.860853 
L 507.357999 191.078301 
L 507.767238 191.422604 
L 508.585717 191.38137 
L 508.790337 191.263679 
L 509.404196 190.225914 
L 509.813435 190.118915 
L 510.018055 190.121488 
L 510.222675 190.27729 
L 511.041154 191.592058 
L 511.245773 191.690185 
L 511.859633 191.427719 
L 512.268872 192.027953 
L 513.087351 193.210248 
L 513.49659 193.590332 
L 513.90583 193.543564 
L 514.724309 192.855343 
L 515.338168 193.212656 
L 515.952027 192.258821 
L 516.975126 190.987686 
L 517.384365 190.792623 
L 518.202844 191.042805 
L 518.612084 190.758565 
L 519.021323 190.471961 
L 520.249041 191.336039 
L 520.658281 192.113115 
L 520.862901 192.1566 
L 521.47676 191.63649 
L 522.295239 190.312729 
L 522.499858 190.334136 
L 522.909098 190.806323 
L 523.522957 190.957918 
L 523.932196 190.900408 
L 524.546056 190.436554 
L 524.955295 190.819114 
L 525.364535 191.138969 
L 525.569154 191.008316 
L 526.387633 190.05309 
L 527.206112 189.34951 
L 527.410732 189.396116 
L 528.229211 190.145765 
L 528.63845 189.992518 
L 529.866169 188.840227 
L 530.480028 188.066677 
L 530.889267 187.98161 
L 531.707746 188.061953 
L 532.526225 187.947576 
L 532.935464 187.432755 
L 533.549324 186.637557 
L 533.753943 186.520443 
L 534.572422 186.564981 
L 534.981662 186.003405 
L 535.800141 184.181065 
L 536.414 183.311431 
L 536.823239 183.164995 
L 537.232479 182.48203 
L 537.641718 181.727664 
L 538.050958 181.212355 
L 538.664817 179.322866 
L 539.278676 177.46126 
L 540.301775 175.138325 
L 542.143352 167.950895 
L 545.417268 149.85122 
L 547.054226 139.042447 
L 547.668085 134.254959 
L 548.691183 124.253198 
L 551.35124 95.917573 
L 551.965099 86.215814 
L 553.192817 65.941921 
L 553.602057 62.36506 
L 553.806677 61.861655 
L 554.011296 62.185811 
L 554.420536 64.524198 
L 555.034395 70.472094 
L 555.648254 79.648279 
L 557.080592 104.228878 
L 557.285212 105.109643 
L 557.489832 105.161698 
L 557.694451 107.060539 
L 557.899071 115.982517 
L 558.308311 167.537587 
L 558.51293 193.243632 
L 558.71755 198.727085 
L 559.126789 174.661538 
L 559.536029 153.792691 
L 559.740649 150.143525 
L 559.945268 149.745518 
L 560.354508 151.068381 
L 560.559128 150.873211 
L 560.968367 148.901754 
L 561.991466 142.760609 
L 562.605325 139.947793 
L 563.423804 134.367505 
L 563.833043 133.328493 
L 564.242283 133.233758 
L 564.446902 133.312724 
L 564.651522 133.553719 
L 565.060762 134.849321 
L 566.4931 141.029474 
L 567.106959 142.59905 
L 567.516198 144.648728 
L 568.743917 151.367369 
L 569.562396 154.80475 
L 570.380874 157.76078 
L 572.427072 163.650936 
L 572.836311 164.324345 
L 573.245551 165.484407 
L 574.06403 168.877728 
L 574.268649 169.182133 
L 574.882508 169.501554 
L 575.291748 170.918784 
L 575.905607 173.059315 
L 576.928706 175.05988 
L 577.337945 175.457057 
L 577.951804 175.578238 
L 579.179523 177.238407 
L 579.588762 177.790751 
L 579.793382 177.922585 
L 580.202621 178.674036 
L 580.611861 179.3531 
L 580.81648 179.37971 
L 581.43034 179.188785 
L 581.839579 179.390732 
L 582.862678 180.550601 
L 583.476537 180.827782 
L 583.885776 181.182358 
L 584.499636 181.147214 
L 584.908875 181.790833 
L 585.318114 182.447777 
L 585.522734 182.563496 
L 587.159692 181.874397 
L 588.38741 182.523131 
L 589.00127 183.541874 
L 589.205889 183.546455 
L 590.024368 182.830166 
L 590.433608 182.667151 
L 590.842847 183.062563 
L 591.252087 183.335634 
L 591.661326 183.131896 
L 592.275185 182.134814 
L 593.298284 180.246329 
L 593.502904 180.190305 
L 593.912143 180.518793 
L 594.526002 181.306907 
L 594.935242 181.720956 
L 595.549101 182.570845 
L 595.95834 183.070554 
L 596.36758 183.4661 
L 596.776819 183.326145 
L 597.186059 183.161237 
L 597.799918 183.095925 
L 598.618397 183.978703 
L 598.823016 183.972198 
L 599.027636 183.827436 
L 599.436876 183.068751 
L 600.050735 181.741252 
L 600.255355 181.52054 
L 600.664594 181.685036 
L 601.483073 182.060146 
L 602.096932 182.082449 
L 603.120031 182.704597 
L 603.32465 182.901986 
L 604.347749 184.566868 
L 604.756989 184.961815 
L 605.370848 185.713062 
L 605.780087 185.820926 
L 606.189327 185.781041 
L 606.393946 185.900628 
L 607.007806 186.707059 
L 607.417045 186.623159 
L 609.054003 186.241331 
L 609.463242 186.466717 
L 610.486341 187.859621 
L 611.1002 188.502482 
L 611.918679 188.603189 
L 612.737158 188.094006 
L 613.555637 186.87456 
L 613.760257 187.193298 
L 614.169496 188.201578 
L 614.374116 188.38683 
L 614.783355 188.493833 
L 615.397214 188.92732 
L 615.806454 188.807844 
L 616.624933 188.226285 
L 617.238792 188.373896 
L 617.852651 188.02086 
L 618.057271 188.127364 
L 618.46651 188.784313 
L 619.284989 190.216646 
L 619.694229 190.56713 
L 619.898848 190.552282 
L 621.126567 189.46917 
L 621.535806 189.36643 
L 622.149665 189.475054 
L 622.763524 189.821244 
L 623.786623 190.278396 
L 623.991243 190.258868 
L 625.218961 189.218116 
L 627.060539 188.687809 
L 627.469778 189.021685 
L 627.879018 189.487559 
L 628.083637 189.432701 
L 628.902116 188.358085 
L 629.106736 188.262479 
L 629.311356 188.298264 
L 629.720595 188.79863 
L 630.743694 190.100383 
L 631.152933 190.42483 
L 631.562173 190.337706 
L 632.176032 189.953826 
L 632.994511 189.048124 
L 633.60837 188.98639 
L 634.017609 188.617214 
L 634.222229 188.579569 
L 635.245328 189.098028 
L 636.268426 189.121405 
L 636.882286 188.868734 
L 637.291525 188.624691 
L 637.905384 188.759126 
L 638.314624 189.142388 
L 638.723863 189.719762 
L 639.337722 190.226044 
L 639.746962 190.897969 
L 640.156201 191.094137 
L 640.360821 190.985812 
L 641.1793 190.033384 
L 641.588539 190.229581 
L 641.793159 190.202911 
L 642.407018 189.767598 
L 642.611638 189.809189 
L 643.225497 190.478899 
L 643.430117 190.453008 
L 644.043976 189.97629 
L 644.657835 189.906313 
L 645.067075 189.478227 
L 645.885554 189.328807 
L 646.090173 189.440775 
L 646.704033 190.261392 
L 647.113272 190.121488 
L 647.522511 189.827048 
L 648.136371 189.094878 
L 648.54561 189.166911 
L 648.95485 189.351535 
L 649.364089 189.387691 
L 649.568709 189.598819 
L 650.182568 190.622264 
L 650.591807 190.57517 
L 651.001047 190.473146 
L 651.410286 190.550823 
L 651.819526 190.076398 
L 652.228765 189.465779 
L 652.433385 189.372933 
L 653.251864 189.699303 
L 653.865723 190.240146 
L 654.479582 190.415018 
L 655.093441 190.406308 
L 655.502681 190.369506 
L 655.91192 190.522128 
L 656.32116 190.43051 
L 656.730399 190.692491 
L 657.139639 190.842862 
L 657.958117 190.822348 
L 658.981216 190.594089 
L 659.595075 190.175639 
L 660.413554 189.769178 
L 660.822794 190.300727 
L 661.436653 191.169649 
L 661.641273 191.199891 
L 662.050512 190.633172 
L 662.664371 189.588648 
L 662.868991 189.459859 
L 663.073611 189.503684 
L 663.68747 190.065394 
L 664.301329 190.835604 
L 664.915188 190.537937 
L 665.529047 189.938121 
L 665.938287 189.896648 
L 666.142907 189.98284 
L 666.961385 190.781859 
L 667.166005 190.779016 
L 667.984484 190.347727 
L 668.393724 190.45661 
L 669.212202 190.930469 
L 670.235301 190.315451 
L 670.84916 190.532925 
L 672.281498 189.764465 
L 673.509217 189.593941 
L 673.918456 189.036024 
L 674.123076 189.074156 
L 674.941555 189.726285 
L 675.964653 190.244794 
L 676.578513 190.433917 
L 676.987752 190.434472 
L 677.601611 189.852084 
L 678.42009 188.787925 
L 678.62471 188.830325 
L 679.033949 189.130927 
L 679.647809 188.996889 
L 680.261668 189.257287 
L 680.466287 189.147019 
L 681.284766 187.902868 
L 681.694006 187.116307 
L 682.717104 184.242562 
L 684.149443 178.103625 
L 685.172541 173.873425 
L 685.581781 173.121341 
L 685.7864 172.882536 
L 686.19564 171.793925 
L 686.809499 169.588197 
L 687.014119 169.570613 
L 688.037217 171.640122 
L 688.241837 171.731482 
L 688.446457 171.98769 
L 689.060316 173.257741 
L 689.469555 173.446806 
L 690.697274 173.579765 
L 691.311133 172.765683 
L 691.720372 171.952217 
L 692.129612 170.325989 
L 692.743471 167.938516 
L 693.15271 166.602627 
L 693.76657 163.662512 
L 695.403527 153.460758 
L 696.426626 145.861737 
L 696.835866 143.994409 
L 697.245105 142.950858 
L 697.654344 142.406931 
L 698.268204 142.061078 
L 699.291302 140.787383 
L 700.92826 136.712362 
L 701.3375 135.716206 
L 701.951359 133.194934 
L 702.565218 130.039238 
L 704.202176 120.827151 
L 704.816035 118.763054 
L 705.020655 118.554293 
L 705.225274 118.811681 
L 705.634514 119.907356 
L 706.043753 121.549013 
L 706.862232 126.717335 
L 707.885331 133.449888 
L 708.49919 135.173113 
L 709.113049 136.712697 
L 709.726908 138.568005 
L 709.931528 138.480875 
L 710.340768 137.75342 
L 710.750007 136.701224 
L 710.954627 136.463994 
L 711.363866 136.440902 
L 711.568486 136.235457 
L 711.977725 135.156149 
L 712.591585 132.962384 
L 713.000824 132.182331 
L 713.205444 132.003998 
L 713.410063 132.118088 
L 713.819303 133.305445 
L 715.251641 139.301012 
L 716.683979 142.450533 
L 717.093219 143.058562 
L 717.502458 143.328633 
L 717.911697 143.310041 
L 718.116317 143.132436 
L 719.753275 139.991804 
L 721.185613 136.818544 
L 721.799472 135.759488 
L 722.413331 134.484864 
L 722.617951 134.286259 
L 723.23181 134.151031 
L 723.43643 133.834122 
L 723.84567 132.444702 
L 725.073388 126.756527 
L 726.710346 116.562311 
L 728.961163 99.724675 
L 729.984261 90.764123 
L 730.80274 81.702596 
L 732.644318 56.12795 
L 733.667416 39.890217 
L 734.895135 19.226315 
L 735.713614 7.945985 
L 736.532093 0.482753 
L 736.768568 -1 
M 738.703162 -1 
L 739.192149 2.572527 
L 740.010628 10.071344 
L 741.033727 20.568189 
L 741.647586 30.221892 
L 742.670684 49.332646 
L 744.512262 88.145997 
L 745.330741 100.280638 
L 746.558459 112.878684 
L 747.172318 118.079786 
L 748.400037 127.844201 
L 749.013896 132.072567 
L 751.878572 148.135166 
L 752.492431 150.950948 
L 753.31091 154.547328 
L 754.129389 157.133339 
L 754.743248 159.65096 
L 755.766347 161.328434 
L 756.175586 161.815718 
L 756.380206 161.89114 
L 756.789446 161.649769 
L 757.198685 161.027404 
L 757.812544 159.367066 
L 759.040263 156.467156 
L 759.858741 155.511459 
L 760.267981 155.343528 
L 760.67722 155.52135 
L 761.08646 155.752568 
L 761.495699 155.983315 
L 761.904939 156.958456 
L 762.928037 159.710483 
L 763.746516 160.913047 
L 763.951136 161.066596 
L 764.155756 161.002759 
L 765.178854 160.086901 
L 765.588094 158.572747 
L 766.815812 152.182411 
L 767.429671 150.488168 
L 767.634291 150.229882 
L 767.838911 150.196709 
L 768.043531 150.370226 
L 769.475869 153.272017 
L 770.294347 156.284185 
L 771.112826 160.393645 
L 771.522066 162.042993 
L 772.749784 164.458792 
L 772.954404 164.667095 
L 773.159024 164.679442 
L 773.568263 164.052859 
L 773.977503 163.155767 
L 775.61446 158.170994 
L 775.81908 157.829674 
L 776.0237 157.759237 
L 776.22832 157.960649 
L 776.432939 158.430421 
L 776.842179 160.134655 
L 778.069897 165.696904 
L 779.092996 168.116799 
L 779.502235 168.650681 
L 779.911475 169.995304 
L 780.934573 173.865707 
L 781.548432 176.071958 
L 782.162292 178.206023 
L 782.366911 178.491788 
L 782.571531 178.55139 
L 783.18539 178.088667 
L 783.39001 178.262253 
L 784.413109 180.140404 
L 784.617728 180.188289 
L 785.231588 179.951212 
L 786.050066 180.185615 
L 786.663926 180.823102 
L 786.868545 180.866336 
L 787.687024 180.250319 
L 788.096264 180.311978 
L 788.300883 180.235041 
L 788.505503 180.278698 
L 789.733222 181.194848 
L 790.142461 181.134202 
L 791.16556 181.512971 
L 791.574799 181.8851 
L 792.188658 181.602324 
L 792.597898 182.213504 
L 793.007137 183.032033 
L 793.416377 183.403007 
L 793.825616 183.463523 
L 794.030236 183.497698 
L 794.439475 183.778272 
L 794.848715 183.492694 
L 795.053334 183.56208 
L 795.462574 184.007915 
L 795.667194 184.047489 
L 796.690292 183.229344 
L 796.894912 183.263631 
L 798.53187 185.325874 
L 798.73649 185.404117 
L 798.941109 185.196728 
L 799.759588 183.772968 
L 799.964208 183.777271 
L 800.373447 184.174806 
L 800.782687 184.662613 
L 800.987307 184.636452 
L 801.396546 184.131204 
L 801.805785 183.543732 
L 802.010405 183.459822 
L 802.828884 183.860752 
L 804.465842 184.961043 
L 804.875081 185.372147 
L 805.284321 185.448449 
L 805.69356 185.374463 
L 806.1028 184.614417 
L 806.512039 183.770129 
L 806.921279 183.320514 
L 807.125898 183.227852 
L 807.330518 183.36022 
L 807.944377 184.473274 
L 808.353617 185.105681 
L 808.558236 185.237014 
L 808.967476 185.085697 
L 809.581335 184.762967 
L 809.990574 184.899181 
L 810.399814 185.06736 
L 810.809053 185.10119 
L 811.218293 185.161284 
L 811.627532 185.073271 
L 812.036772 185.262823 
L 812.446011 185.541473 
L 813.67373 185.400811 
L 813.878349 185.210039 
L 814.082969 185.182264 
L 815.719927 186.589272 
L 816.129166 186.443105 
L 816.538406 186.025721 
L 817.356885 185.049328 
L 817.561504 185.011416 
L 818.993842 185.642494 
L 819.198462 185.609041 
L 819.403082 185.730616 
L 820.016941 186.695225 
L 820.221561 186.730237 
L 820.426181 186.471639 
L 820.83542 185.60499 
L 821.04004 185.491226 
L 821.244659 185.693657 
L 821.858519 186.646978 
L 822.267758 186.534098 
L 823.086237 185.872178 
L 823.904716 184.654691 
L 824.313955 184.433476 
L 824.927815 183.537911 
L 825.132434 183.513671 
L 825.541674 183.849229 
L 825.950913 184.251589 
L 826.155533 184.295533 
L 826.360153 184.192667 
L 826.769392 183.638497 
L 827.587871 183.271487 
L 828.20173 182.6498 
L 828.61097 181.483836 
L 829.224829 178.488598 
L 830.247927 171.503748 
L 830.861787 168.164155 
L 831.271026 167.115835 
L 831.680266 166.534228 
L 831.884885 166.655503 
L 832.294125 167.724782 
L 832.907984 170.454414 
L 833.931083 175.3885 
L 834.340322 176.19894 
L 834.749561 176.685876 
L 835.158801 176.857796 
L 835.56804 177.269322 
L 835.77266 177.213982 
L 836.1819 176.297948 
L 837.409618 172.104909 
L 838.637336 166.229446 
L 839.660435 162.210701 
L 840.069674 161.853831 
L 840.274294 162.045621 
L 840.683534 163.073435 
L 841.092773 164.916818 
L 843.34359 176.358867 
L 843.752829 177.600791 
L 844.162069 178.264177 
L 844.366689 178.363342 
L 844.775928 178.047534 
L 845.389787 177.269079 
L 846.003646 176.471068 
L 846.412886 175.453535 
L 846.822125 173.846525 
L 847.640604 170.483166 
L 848.049844 169.519001 
L 848.254463 169.341063 
L 848.459083 169.461979 
L 848.663703 169.89932 
L 849.482182 172.528341 
L 850.096041 173.742619 
L 851.11914 176.329806 
L 851.323759 176.283574 
L 851.732999 175.908124 
L 852.142238 175.272108 
L 852.551478 174.211231 
L 853.165337 171.425762 
L 853.574576 168.378023 
L 853.983816 163.977648 
L 854.393055 157.407487 
L 855.416154 137.162785 
L 855.620774 136.080884 
L 855.825393 136.483252 
L 856.234633 140.612372 
L 856.848492 148.263199 
L 857.257731 150.423994 
L 857.462351 150.233944 
L 857.666971 149.191863 
L 858.07621 144.119221 
L 859.099309 125.786814 
L 859.303929 126.478606 
L 859.713168 133.669309 
L 860.531647 150.533909 
L 860.940886 155.222922 
L 861.350126 157.062309 
L 861.554746 157.260687 
L 861.759365 157.041316 
L 861.963985 156.30564 
L 862.373225 153.417133 
L 862.782464 148.484912 
L 863.191703 139.61148 
L 863.600943 125.064252 
L 864.214802 97.890128 
L 864.419422 93.215606 
L 864.624042 92.351723 
L 864.828661 94.765543 
L 865.237901 105.61576 
L 865.85176 121.789796 
L 866.05638 124.528507 
L 866.260999 125.503278 
L 866.465619 124.725748 
L 866.670239 122.293982 
L 867.079478 112.513277 
L 867.897957 84.741827 
L 868.102577 84.335847 
L 868.307197 87.83694 
L 868.716436 102.387642 
L 869.534915 134.947923 
L 869.944154 144.999158 
L 870.558014 153.936122 
L 870.967253 157.093344 
L 871.376493 158.450715 
L 871.581112 158.48291 
L 871.785732 158.094256 
L 871.990352 157.236449 
L 872.399591 153.782791 
L 873.01345 144.029417 
L 873.42269 137.975601 
L 873.62731 136.894417 
L 873.831929 137.760736 
L 874.241169 143.786571 
L 874.855028 152.886738 
L 875.059648 154.193147 
L 875.264267 154.596804 
L 875.468887 154.12404 
L 875.878127 150.785272 
L 876.696605 141.073167 
L 876.901225 140.006374 
L 877.105845 139.720502 
L 877.310465 140.232621 
L 877.515084 141.753987 
L 877.924324 148.000628 
L 878.742803 162.590054 
L 879.152042 166.587147 
L 879.970521 171.75974 
L 880.58438 174.23954 
L 880.99362 175.160586 
L 882.221338 176.775791 
L 882.425958 176.855894 
L 883.039817 176.724276 
L 883.449056 177.582893 
L 883.858296 178.521999 
L 884.472155 179.417017 
L 884.676775 179.289687 
L 885.086014 178.531271 
L 886.313733 177.580411 
L 886.518352 177.570314 
L 886.927592 177.827806 
L 887.336831 178.331597 
L 888.56455 180.540408 
L 888.973789 180.646382 
L 889.178409 180.520878 
L 889.996888 179.419602 
L 890.406127 179.294096 
L 891.224606 178.562505 
L 891.633845 178.331444 
L 892.043085 178.41657 
L 892.452324 178.859915 
L 893.270803 179.977877 
L 893.475423 179.905728 
L 894.089282 179.369687 
L 894.907761 178.987527 
L 895.93086 179.174466 
L 896.135479 179.025957 
L 897.158578 177.63938 
L 897.363198 177.501911 
L 897.977057 177.656005 
L 898.181677 177.43452 
L 899.000156 175.939684 
L 899.409395 175.698994 
L 900.023254 175.885993 
L 900.432494 175.548139 
L 900.841733 174.904163 
L 901.250973 173.729475 
L 901.864832 171.193745 
L 902.274071 168.258647 
L 903.50179 157.405646 
L 903.706409 158.064421 
L 904.320269 161.846839 
L 904.729508 162.956594 
L 904.934128 163.1153 
L 905.138747 162.994929 
L 905.343367 162.59259 
L 905.752607 160.651092 
L 906.161846 157.23213 
L 906.775705 151.637699 
L 906.980325 151.364368 
L 907.184945 151.976976 
L 908.208043 157.129954 
L 908.412663 157.443835 
L 908.821903 157.520015 
L 909.231142 157.42232 
L 909.435762 157.237351 
L 909.640381 156.756325 
L 910.45886 153.123645 
L 910.8681 151.60062 
L 911.277339 150.906137 
L 911.686579 150.222076 
L 912.095818 148.77761 
L 913.323537 143.385443 
L 914.960494 138.197021 
L 915.574354 135.081463 
L 917.211311 124.489382 
L 917.620551 123.387017 
L 917.825171 123.224074 
L 918.02979 123.25672 
L 918.43903 123.72964 
L 918.643649 124.258984 
L 919.052889 126.235353 
L 919.462128 129.545999 
L 920.689847 142.9765 
L 920.894466 143.577717 
L 921.099086 142.662352 
L 921.303706 139.605408 
L 921.508326 133.227384 
L 921.712945 121.464682 
L 922.122185 73.925427 
L 922.531424 11.763869 
L 922.736044 -0.674778 
L 922.940664 3.253077 
L 923.963762 55.263131 
L 924.373002 64.255565 
L 925.60072 81.968991 
L 926.214579 91.46286 
L 928.260777 129.074838 
L 929.079255 139.251807 
L 929.897734 146.048029 
L 930.511594 149.783991 
L 932.762411 160.993991 
L 933.37627 163.206322 
L 935.013228 168.050871 
L 935.831706 170.445048 
L 937.468664 174.527197 
L 937.673284 174.627106 
L 938.082523 174.533246 
L 938.287143 174.73507 
L 938.901002 175.753426 
L 939.310242 176.017167 
L 939.719481 176.170601 
L 940.33334 176.619799 
L 940.74258 177.224118 
L 941.356439 177.478274 
L 942.174918 178.102074 
L 942.584157 178.892664 
L 942.993397 179.589 
L 943.402636 179.640903 
L 943.811876 179.746301 
L 945.039594 180.403408 
L 945.653453 180.640647 
L 946.676552 179.94964 
L 947.085791 180.050315 
L 947.90427 180.236546 
L 948.31351 180.293888 
L 949.336608 180.988194 
L 950.155087 181.454366 
L 950.768947 181.632665 
L 951.178186 181.676355 
L 951.792045 182.043778 
L 951.996665 182.023005 
L 952.405904 181.542504 
L 953.019764 180.416718 
L 953.429003 180.192595 
L 953.838242 180.227219 
L 954.452102 180.498632 
L 954.656721 180.411522 
L 955.065961 179.643935 
L 955.67982 178.109859 
L 955.88444 177.93378 
L 956.907538 178.209859 
L 957.112158 178.112546 
L 957.521398 177.532141 
L 957.930637 176.965558 
L 958.339876 176.456098 
L 958.749116 175.949354 
L 959.158355 175.999166 
L 959.567595 176.35614 
L 960.590693 178.083923 
L 960.999933 178.297556 
L 961.409172 178.434439 
L 962.023032 178.789243 
L 962.432271 178.777071 
L 963.04613 178.112417 
L 963.45537 177.668074 
L 965.092327 175.070824 
L 965.501567 174.042573 
L 966.115426 171.794904 
L 966.729285 169.051454 
L 967.138525 168.067149 
L 967.343144 167.968208 
L 967.547764 168.21608 
L 967.957004 169.24024 
L 968.366243 170.775542 
L 969.184722 174.317277 
L 969.798581 175.886106 
L 970.003201 176.218901 
L 970.61706 176.451386 
L 971.230919 177.665139 
L 971.435539 177.679446 
L 972.867877 176.456239 
L 974.095595 174.970418 
L 974.709455 173.427701 
L 974.914074 173.242716 
L 975.527933 173.145464 
L 976.551032 172.412147 
L 976.960272 171.695386 
L 977.369511 170.936419 
L 977.574131 170.951818 
L 977.98337 171.917458 
L 978.39261 173.103799 
L 978.597229 173.380139 
L 979.620328 173.472359 
L 980.438807 173.167267 
L 980.848046 172.981733 
L 981.461906 173.500515 
L 982.689624 172.685529 
L 984.326582 170.851315 
L 985.75892 168.152161 
L 986.372779 166.638812 
L 987.191258 164.634267 
L 987.395878 164.39547 
L 988.009737 164.565141 
L 988.214357 164.307691 
L 988.623596 163.220435 
L 989.237455 161.318447 
L 990.055934 159.473681 
L 992.102131 153.0902 
L 992.92061 150.084713 
L 993.32985 148.485965 
L 994.557568 142.42283 
L 995.171427 139.171214 
L 996.399146 131.345914 
L 997.422244 125.901032 
L 998.036103 123.446031 
L 1002.128498 100.843529 
L 1002.946977 97.235635 
L 1003.356216 94.729557 
L 1004.174695 86.716643 
L 1006.220892 63.110078 
L 1006.630132 60.786411 
L 1006.834752 60.25554 
L 1007.039371 60.201079 
L 1008.471709 61.776883 
L 1008.676329 61.724169 
L 1008.880949 61.21536 
L 1009.290188 58.696862 
L 1009.699428 55.893051 
L 1009.904048 55.923435 
L 1010.108667 57.344087 
L 1010.927146 65.648656 
L 1011.541005 69.365509 
L 1012.154865 71.875276 
L 1012.359484 72.203208 
L 1012.564104 72.058607 
L 1013.177963 70.813297 
L 1013.996442 70.163574 
L 1014.201062 70.232569 
L 1014.610301 70.735841 
L 1015.019541 71.786978 
L 1016.042639 74.89201 
L 1016.451879 75.624778 
L 1016.656499 75.793699 
L 1017.065738 75.723799 
L 1017.679597 75.548168 
L 1017.884217 75.587086 
L 1018.088837 76.282344 
L 1018.293456 78.477983 
L 1018.702696 88.967188 
L 1019.316555 106.782486 
L 1019.725794 112.443496 
L 1020.135034 114.547629 
L 1020.339654 114.679812 
L 1020.953513 113.911865 
L 1021.158133 113.894107 
L 1021.362752 114.112224 
L 1021.771992 115.042185 
L 1022.181231 116.53293 
L 1022.79509 119.888224 
L 1024.432048 129.259655 
L 1026.478245 140.176172 
L 1027.092105 144.146756 
L 1030.57064 157.366212 
L 1031.389119 158.287159 
L 1032.002978 159.722393 
L 1032.412218 160.510539 
L 1033.026077 163.011103 
L 1033.639936 166.481807 
L 1034.049175 168.662488 
L 1034.867654 171.222602 
L 1035.276894 172.017142 
L 1035.686133 172.532674 
L 1037.118471 175.849078 
L 1037.527711 176.622639 
L 1038.550809 177.353757 
L 1038.960049 177.804172 
L 1039.369288 177.887567 
L 1039.778528 178.066992 
L 1039.983147 177.840451 
L 1040.392387 176.759223 
L 1041.006246 174.221784 
L 1041.415485 172.507708 
L 1041.620105 172.230254 
L 1041.824725 172.537499 
L 1042.847824 175.333958 
L 1043.257063 176.468413 
L 1043.870922 179.036007 
L 1044.280162 180.810491 
L 1044.689401 181.570182 
L 1045.30326 181.723874 
L 1045.7125 182.517728 
L 1046.326359 183.947884 
L 1046.530979 184.065088 
L 1046.940218 183.940578 
L 1047.144838 183.880545 
L 1047.554077 184.213189 
L 1047.963317 184.618256 
L 1048.167936 184.66198 
L 1048.986415 184.367475 
L 1049.395655 184.36826 
L 1049.804894 184.065503 
L 1050.418753 183.426192 
L 1051.441852 183.719019 
L 1051.851092 183.90154 
L 1052.87419 185.081551 
L 1053.28343 185.220651 
L 1053.897289 185.986216 
L 1054.511148 186.068217 
L 1054.920387 186.679444 
L 1055.329627 187.300752 
L 1056.148106 187.138387 
L 1056.352726 187.267133 
L 1056.557345 187.223829 
L 1057.171204 186.398786 
L 1057.375824 186.393594 
L 1057.989683 186.699175 
L 1058.194303 186.545155 
L 1058.603543 185.962476 
L 1058.808162 185.972312 
L 1059.422021 186.71283 
L 1059.831261 186.742421 
L 1060.2405 186.640749 
L 1060.85436 186.144867 
L 1061.263599 186.41245 
L 1061.672838 186.628722 
L 1062.286698 186.470722 
L 1062.900557 186.469431 
L 1063.309796 185.968784 
L 1063.923655 185.043575 
L 1064.946754 185.057353 
L 1065.355994 185.26678 
L 1065.765233 185.954988 
L 1066.174472 186.679236 
L 1066.379092 186.750911 
L 1066.583712 186.589219 
L 1067.402191 185.306489 
L 1067.606811 185.381342 
L 1068.425289 186.11957 
L 1069.243768 185.843535 
L 1069.857628 185.626171 
L 1070.266867 185.999239 
L 1070.880726 186.660779 
L 1071.903825 186.814897 
L 1072.517684 187.023004 
L 1073.131543 187.268532 
L 1073.336163 187.177248 
L 1073.950022 186.531745 
L 1076.200839 186.319809 
L 1076.405459 186.515872 
L 1077.019318 187.466793 
L 1077.223938 187.491143 
L 1077.428557 187.376401 
L 1077.633177 187.098794 
L 1078.247036 185.7871 
L 1078.451656 185.701859 
L 1078.656276 185.815845 
L 1079.270135 186.75958 
L 1080.088614 187.967064 
L 1080.293234 187.986374 
L 1080.702473 187.61122 
L 1081.725572 186.361214 
L 1082.134811 186.429471 
L 1082.544051 186.550649 
L 1082.95329 186.340519 
L 1083.567149 185.978451 
L 1084.999487 185.622343 
L 1085.817966 184.896037 
L 1086.227206 185.108351 
L 1086.636445 185.670296 
L 1087.454924 186.939729 
L 1087.864163 187.232869 
L 1088.682642 187.323414 
L 1089.091882 186.830003 
L 1089.296502 186.591838 
L 1089.501121 186.561742 
L 1089.910361 186.799736 
L 1090.3196 187.636885 
L 1090.72884 188.35627 
L 1090.933459 188.300959 
L 1091.547319 187.696265 
L 1092.161178 187.14253 
L 1092.570417 187.360456 
L 1093.184276 187.7602 
L 1093.388896 187.680551 
L 1094.002755 186.949344 
L 1094.207375 186.871114 
L 1094.821234 187.165961 
L 1095.230474 187.149567 
L 1095.844333 187.720518 
L 1096.253572 188.078658 
L 1097.072051 187.73323 
L 1097.89053 187.311551 
L 1098.504389 187.62739 
L 1099.732108 187.284098 
L 1100.345967 187.627339 
L 1100.755206 188.170519 
L 1101.164446 188.080282 
L 1101.573685 187.917806 
L 1101.982925 187.718379 
L 1102.596784 187.958209 
L 1103.210643 187.968952 
L 1104.029122 188.078524 
L 1105.052221 187.769835 
L 1105.46146 187.886704 
L 1106.279939 187.717215 
L 1107.098418 187.395843 
L 1107.507657 187.072313 
L 1107.916897 186.844631 
L 1108.326136 186.88755 
L 1108.939995 187.106611 
L 1109.349235 186.419099 
L 1109.758474 185.795764 
L 1109.963094 185.833518 
L 1110.781573 186.526261 
L 1111.190812 186.656018 
L 1111.395432 186.956742 
L 1112.009291 188.507401 
L 1112.213911 188.650369 
L 1112.418531 188.495666 
L 1113.23701 187.153087 
L 1113.646249 187.181753 
L 1114.260108 186.883052 
L 1114.464728 187.016827 
L 1115.283207 188.260896 
L 1115.487827 188.231423 
L 1116.715545 186.856424 
L 1117.124784 186.935254 
L 1117.738644 187.345078 
L 1118.761742 187.86882 
L 1118.966362 187.889037 
L 1119.580221 187.642728 
L 1119.989461 187.854276 
L 1120.807939 188.749952 
L 1121.217179 188.770281 
L 1122.035658 188.056024 
L 1122.649517 188.163605 
L 1123.058756 187.714354 
L 1123.263376 187.663406 
L 1123.672616 188.148401 
L 1123.877235 188.375751 
L 1124.081855 188.371961 
L 1125.104954 187.392635 
L 1125.514193 187.592886 
L 1126.332672 188.453846 
L 1126.946531 189.434483 
L 1127.151151 189.374608 
L 1127.56039 188.318544 
L 1128.17425 186.82192 
L 1128.583489 186.441249 
L 1128.788109 186.425942 
L 1128.992729 186.664028 
L 1129.606588 187.884123 
L 1130.220447 188.434755 
L 1130.425067 188.412795 
L 1131.038926 187.801422 
L 1132.471264 187.949845 
L 1132.880503 188.596016 
L 1133.494363 189.651787 
L 1133.698982 189.739879 
L 1134.108222 189.45667 
L 1134.926701 188.519521 
L 1135.54056 187.669504 
L 1135.949799 187.49701 
L 1136.154419 187.614301 
L 1136.563658 188.142194 
L 1136.972898 188.251536 
L 1137.382137 188.217805 
L 1138.200616 187.726971 
L 1138.814475 187.334828 
L 1139.223715 187.476423 
L 1139.837574 188.025321 
L 1140.246814 187.970513 
L 1140.451433 188.124144 
L 1141.065292 188.964722 
L 1141.679152 188.8429 
L 1142.70225 188.848566 
L 1143.725349 188.225911 
L 1144.134588 187.415076 
L 1144.339208 187.375465 
L 1144.953067 188.125767 
L 1145.566926 188.536258 
L 1146.794645 189.428098 
L 1147.203884 189.496986 
L 1147.408504 189.596288 
L 1147.613124 189.535976 
L 1148.840842 188.555665 
L 1149.250082 188.620381 
L 1149.863941 187.959963 
L 1150.06856 187.991501 
L 1150.4778 188.383824 
L 1150.887039 188.86485 
L 1151.091659 188.983653 
L 1151.296279 188.934663 
L 1152.114758 188.016521 
L 1152.319377 188.061766 
L 1154.160955 189.536871 
L 1154.570194 189.630856 
L 1156.207152 189.183907 
L 1156.411772 189.274872 
L 1156.616392 189.242127 
L 1158.04873 188.232925 
L 1158.457969 188.305519 
L 1159.071828 188.059767 
L 1159.685688 188.569901 
L 1159.890307 188.626202 
L 1160.094927 188.531021 
L 1160.913406 187.751337 
L 1161.527265 187.867672 
L 1161.936505 187.771806 
L 1162.345744 187.538252 
L 1162.550364 187.766328 
L 1162.959603 188.532899 
L 1163.368843 188.669948 
L 1163.982702 188.736294 
L 1164.596561 188.51957 
L 1165.0058 188.323209 
L 1165.41504 188.074158 
L 1165.61966 188.084311 
L 1165.824279 188.214876 
L 1166.233519 188.803039 
L 1166.438139 188.83805 
L 1167.461237 187.93224 
L 1168.075096 187.726198 
L 1168.484336 187.520491 
L 1169.098195 187.434161 
L 1169.712054 187.127777 
L 1170.530533 187.11681 
L 1171.144392 187.696576 
L 1172.372111 188.131866 
L 1172.78135 188.784316 
L 1173.19059 189.326677 
L 1174.418308 188.997722 
L 1174.622928 189.116405 
L 1175.441407 190.13078 
L 1175.646026 190.169856 
L 1175.850646 190.0523 
L 1176.259885 189.109066 
L 1176.669125 188.26528 
L 1176.873745 188.192413 
L 1177.282984 188.357525 
L 1177.692224 188.587443 
L 1178.306083 188.495022 
L 1179.124562 189.323764 
L 1179.943041 188.961763 
L 1180.5569 189.006847 
L 1180.761519 188.956006 
L 1181.784618 188.144965 
L 1182.193858 188.357965 
L 1182.807717 188.786721 
L 1183.216956 188.791567 
L 1183.830815 188.407999 
L 1184.444675 187.848625 
L 1184.853914 187.879074 
L 1184.853914 187.879074 
" clip-path="url(#p6755865328)" style="fill: none; stroke: #000000; stroke-width: 2; stroke-linecap: square"/>
   </g>
   <g id="patch_3">
    <path d="M 3.00024 198.907885 
L 1184.99976 198.907885 
" style="fill: none; stroke: #000000; stroke-width: 2; stroke-linejoin: miter; stroke-linecap: square"/>
   </g>
  </g>
 </g>
 <defs>
  <clipPath id="p6755865328">
   <rect x="3.00024" y="3.00024" width="1181.99952" height="195.907645"/>
  </clipPath>
 </defs>
</svg>
