<?xml version="1.0" encoding="utf-8" standalone="no"?>
<!DOCTYPE svg PUBLIC "-//W3C//DTD SVG 1.1//EN"
  "http://www.w3.org/Graphics/SVG/1.1/DTD/svg11.dtd">
<svg xmlns:xlink="http://www.w3.org/1999/xlink" width="1188pt" height="252pt" viewBox="0 0 1188 252" xmlns="http://www.w3.org/2000/svg" version="1.1">
 <metadata>
  <rdf:RDF xmlns:dc="http://purl.org/dc/elements/1.1/" xmlns:cc="http://creativecommons.org/ns#" xmlns:rdf="http://www.w3.org/1999/02/22-rdf-syntax-ns#">
   <cc:Work>
    <dc:type rdf:resource="http://purl.org/dc/dcmitype/StillImage"/>
    <dc:date>2024-05-14T23:07:57.578557</dc:date>
    <dc:format>image/svg+xml</dc:format>
    <dc:creator>
     <cc:Agent>
      <dc:title>Matplotlib v3.8.0, https://matplotlib.org/</dc:title>
     </cc:Agent>
    </dc:creator>
   </cc:Work>
  </rdf:RDF>
 </metadata>
 <defs>
  <style type="text/css">*{stroke-linejoin: round; stroke-linecap: butt}</style>
 </defs>
 <g id="figure_1">
  <g id="patch_1">
   <path d="M 0 252 
L 1188 252 
L 1188 0 
L 0 0 
z
" style="fill: #ffffff"/>
  </g>
  <g id="axes_1">
   <g id="patch_2">
    <path d="M 3.00024 198.907885 
L 1184.99976 198.907885 
L 1184.99976 3.00024 
L 3.00024 3.00024 
z
" style="fill: #ffffff"/>
   </g>
   <g id="matplotlib.axis_1">
    <g id="xtick_1">
     <g id="line2d_1">
      <defs>
       <path id="md946756ae2" d="M 0 0 
L 0 8 
" style="stroke: #000000; stroke-width: 2"/>
      </defs>
      <g>
       <use xlink:href="#md946756ae2" x="1131.272509" y="198.907885" style="stroke: #000000; stroke-width: 2"/>
      </g>
     </g>
     <g id="text_1">
      <!-- 0 -->
      <g transform="translate(1126.267665 224.791947) scale(0.18 -0.18)">
       <defs>
        <path id="Arial-BoldMT-30" d="M 1756 4600 
Q 2422 4600 2797 4125 
Q 3244 3563 3244 2259 
Q 3244 959 2794 391 
Q 2422 -78 1756 -78 
Q 1088 -78 678 436 
Q 269 950 269 2269 
Q 269 3563 719 4131 
Q 1091 4600 1756 4600 
z
M 1756 3872 
Q 1597 3872 1472 3770 
Q 1347 3669 1278 3406 
Q 1188 3066 1188 2259 
Q 1188 1453 1269 1151 
Q 1350 850 1473 750 
Q 1597 650 1756 650 
Q 1916 650 2041 751 
Q 2166 853 2234 1116 
Q 2325 1453 2325 2259 
Q 2325 3066 2244 3367 
Q 2163 3669 2039 3770 
Q 1916 3872 1756 3872 
z
" transform="scale(0.015625)"/>
       </defs>
       <use xlink:href="#Arial-BoldMT-30"/>
      </g>
     </g>
    </g>
    <g id="xtick_2">
     <g id="line2d_2">
      <g>
       <use xlink:href="#md946756ae2" x="1023.818007" y="198.907885" style="stroke: #000000; stroke-width: 2"/>
      </g>
     </g>
     <g id="text_2">
      <!-- 1 -->
      <g transform="translate(1018.813164 224.791947) scale(0.18 -0.18)">
       <defs>
        <path id="Arial-BoldMT-31" d="M 2519 0 
L 1641 0 
L 1641 3309 
Q 1159 2859 506 2644 
L 506 3441 
Q 850 3553 1253 3867 
Q 1656 4181 1806 4600 
L 2519 4600 
L 2519 0 
z
" transform="scale(0.015625)"/>
       </defs>
       <use xlink:href="#Arial-BoldMT-31"/>
      </g>
     </g>
    </g>
    <g id="xtick_3">
     <g id="line2d_3">
      <g>
       <use xlink:href="#md946756ae2" x="916.363505" y="198.907885" style="stroke: #000000; stroke-width: 2"/>
      </g>
     </g>
     <g id="text_3">
      <!-- 2 -->
      <g transform="translate(911.358662 224.791947) scale(0.18 -0.18)">
       <defs>
        <path id="Arial-BoldMT-32" d="M 3238 816 
L 3238 0 
L 159 0 
Q 209 463 459 877 
Q 709 1291 1447 1975 
Q 2041 2528 2175 2725 
Q 2356 2997 2356 3263 
Q 2356 3556 2198 3714 
Q 2041 3872 1763 3872 
Q 1488 3872 1325 3706 
Q 1163 3541 1138 3156 
L 263 3244 
Q 341 3969 753 4284 
Q 1166 4600 1784 4600 
Q 2463 4600 2850 4234 
Q 3238 3869 3238 3325 
Q 3238 3016 3127 2736 
Q 3016 2456 2775 2150 
Q 2616 1947 2200 1565 
Q 1784 1184 1673 1059 
Q 1563 934 1494 816 
L 3238 816 
z
" transform="scale(0.015625)"/>
       </defs>
       <use xlink:href="#Arial-BoldMT-32"/>
      </g>
     </g>
    </g>
    <g id="xtick_4">
     <g id="line2d_4">
      <g>
       <use xlink:href="#md946756ae2" x="808.909004" y="198.907885" style="stroke: #000000; stroke-width: 2"/>
      </g>
     </g>
     <g id="text_4">
      <!-- 3 -->
      <g transform="translate(803.90416 224.791947) scale(0.18 -0.18)">
       <defs>
        <path id="Arial-BoldMT-33" d="M 241 1216 
L 1091 1319 
Q 1131 994 1309 822 
Q 1488 650 1741 650 
Q 2013 650 2198 856 
Q 2384 1063 2384 1413 
Q 2384 1744 2206 1937 
Q 2028 2131 1772 2131 
Q 1603 2131 1369 2066 
L 1466 2781 
Q 1822 2772 2009 2936 
Q 2197 3100 2197 3372 
Q 2197 3603 2059 3740 
Q 1922 3878 1694 3878 
Q 1469 3878 1309 3722 
Q 1150 3566 1116 3266 
L 306 3403 
Q 391 3819 561 4067 
Q 731 4316 1036 4458 
Q 1341 4600 1719 4600 
Q 2366 4600 2756 4188 
Q 3078 3850 3078 3425 
Q 3078 2822 2419 2463 
Q 2813 2378 3048 2084 
Q 3284 1791 3284 1375 
Q 3284 772 2843 347 
Q 2403 -78 1747 -78 
Q 1125 -78 715 280 
Q 306 638 241 1216 
z
" transform="scale(0.015625)"/>
       </defs>
       <use xlink:href="#Arial-BoldMT-33"/>
      </g>
     </g>
    </g>
    <g id="xtick_5">
     <g id="line2d_5">
      <g>
       <use xlink:href="#md946756ae2" x="701.454502" y="198.907885" style="stroke: #000000; stroke-width: 2"/>
      </g>
     </g>
     <g id="text_5">
      <!-- 4 -->
      <g transform="translate(696.449658 224.791947) scale(0.18 -0.18)">
       <defs>
        <path id="Arial-BoldMT-34" d="M 1994 0 
L 1994 922 
L 119 922 
L 119 1691 
L 2106 4600 
L 2844 4600 
L 2844 1694 
L 3413 1694 
L 3413 922 
L 2844 922 
L 2844 0 
L 1994 0 
z
M 1994 1694 
L 1994 3259 
L 941 1694 
L 1994 1694 
z
" transform="scale(0.015625)"/>
       </defs>
       <use xlink:href="#Arial-BoldMT-34"/>
      </g>
     </g>
    </g>
    <g id="xtick_6">
     <g id="line2d_6">
      <g>
       <use xlink:href="#md946756ae2" x="594" y="198.907885" style="stroke: #000000; stroke-width: 2"/>
      </g>
     </g>
     <g id="text_6">
      <!-- 5 -->
      <g transform="translate(588.995156 224.791947) scale(0.18 -0.18)">
       <defs>
        <path id="Arial-BoldMT-35" d="M 284 1178 
L 1159 1269 
Q 1197 972 1381 798 
Q 1566 625 1806 625 
Q 2081 625 2272 848 
Q 2463 1072 2463 1522 
Q 2463 1944 2273 2155 
Q 2084 2366 1781 2366 
Q 1403 2366 1103 2031 
L 391 2134 
L 841 4519 
L 3163 4519 
L 3163 3697 
L 1506 3697 
L 1369 2919 
Q 1663 3066 1969 3066 
Q 2553 3066 2959 2641 
Q 3366 2216 3366 1538 
Q 3366 972 3038 528 
Q 2591 -78 1797 -78 
Q 1163 -78 763 262 
Q 363 603 284 1178 
z
" transform="scale(0.015625)"/>
       </defs>
       <use xlink:href="#Arial-BoldMT-35"/>
      </g>
     </g>
    </g>
    <g id="xtick_7">
     <g id="line2d_7">
      <g>
       <use xlink:href="#md946756ae2" x="486.545498" y="198.907885" style="stroke: #000000; stroke-width: 2"/>
      </g>
     </g>
     <g id="text_7">
      <!-- 6 -->
      <g transform="translate(481.540654 224.791947) scale(0.18 -0.18)">
       <defs>
        <path id="Arial-BoldMT-36" d="M 3247 3459 
L 2397 3366 
Q 2366 3628 2234 3753 
Q 2103 3878 1894 3878 
Q 1616 3878 1423 3628 
Q 1231 3378 1181 2588 
Q 1509 2975 1997 2975 
Q 2547 2975 2939 2556 
Q 3331 2138 3331 1475 
Q 3331 772 2918 347 
Q 2506 -78 1859 -78 
Q 1166 -78 719 461 
Q 272 1000 272 2228 
Q 272 3488 737 4044 
Q 1203 4600 1947 4600 
Q 2469 4600 2811 4308 
Q 3153 4016 3247 3459 
z
M 1256 1544 
Q 1256 1116 1453 883 
Q 1650 650 1903 650 
Q 2147 650 2309 840 
Q 2472 1031 2472 1466 
Q 2472 1913 2297 2120 
Q 2122 2328 1859 2328 
Q 1606 2328 1431 2129 
Q 1256 1931 1256 1544 
z
" transform="scale(0.015625)"/>
       </defs>
       <use xlink:href="#Arial-BoldMT-36"/>
      </g>
     </g>
    </g>
    <g id="xtick_8">
     <g id="line2d_8">
      <g>
       <use xlink:href="#md946756ae2" x="379.090996" y="198.907885" style="stroke: #000000; stroke-width: 2"/>
      </g>
     </g>
     <g id="text_8">
      <!-- 7 -->
      <g transform="translate(374.086153 224.791947) scale(0.18 -0.18)">
       <defs>
        <path id="Arial-BoldMT-37" d="M 272 3703 
L 272 4519 
L 3275 4519 
L 3275 3881 
Q 2903 3516 2518 2831 
Q 2134 2147 1932 1376 
Q 1731 606 1734 0 
L 888 0 
Q 909 950 1279 1937 
Q 1650 2925 2269 3703 
L 272 3703 
z
" transform="scale(0.015625)"/>
       </defs>
       <use xlink:href="#Arial-BoldMT-37"/>
      </g>
     </g>
    </g>
    <g id="xtick_9">
     <g id="line2d_9">
      <g>
       <use xlink:href="#md946756ae2" x="271.636495" y="198.907885" style="stroke: #000000; stroke-width: 2"/>
      </g>
     </g>
     <g id="text_9">
      <!-- 8 -->
      <g transform="translate(266.631651 224.791947) scale(0.18 -0.18)">
       <defs>
        <path id="Arial-BoldMT-38" d="M 1025 2472 
Q 684 2616 529 2867 
Q 375 3119 375 3419 
Q 375 3931 733 4265 
Q 1091 4600 1750 4600 
Q 2403 4600 2764 4265 
Q 3125 3931 3125 3419 
Q 3125 3100 2959 2851 
Q 2794 2603 2494 2472 
Q 2875 2319 3073 2025 
Q 3272 1731 3272 1347 
Q 3272 713 2867 316 
Q 2463 -81 1791 -81 
Q 1166 -81 750 247 
Q 259 634 259 1309 
Q 259 1681 443 1992 
Q 628 2303 1025 2472 
z
M 1206 3356 
Q 1206 3094 1354 2947 
Q 1503 2800 1750 2800 
Q 2000 2800 2150 2948 
Q 2300 3097 2300 3359 
Q 2300 3606 2151 3754 
Q 2003 3903 1759 3903 
Q 1506 3903 1356 3753 
Q 1206 3603 1206 3356 
z
M 1125 1394 
Q 1125 1031 1311 828 
Q 1497 625 1775 625 
Q 2047 625 2225 820 
Q 2403 1016 2403 1384 
Q 2403 1706 2222 1901 
Q 2041 2097 1763 2097 
Q 1441 2097 1283 1875 
Q 1125 1653 1125 1394 
z
" transform="scale(0.015625)"/>
       </defs>
       <use xlink:href="#Arial-BoldMT-38"/>
      </g>
     </g>
    </g>
    <g id="xtick_10">
     <g id="line2d_10">
      <g>
       <use xlink:href="#md946756ae2" x="164.181993" y="198.907885" style="stroke: #000000; stroke-width: 2"/>
      </g>
     </g>
     <g id="text_10">
      <!-- 9 -->
      <g transform="translate(159.177149 224.791947) scale(0.18 -0.18)">
       <defs>
        <path id="Arial-BoldMT-39" d="M 291 1059 
L 1141 1153 
Q 1172 894 1303 769 
Q 1434 644 1650 644 
Q 1922 644 2112 894 
Q 2303 1144 2356 1931 
Q 2025 1547 1528 1547 
Q 988 1547 595 1964 
Q 203 2381 203 3050 
Q 203 3747 617 4173 
Q 1031 4600 1672 4600 
Q 2369 4600 2816 4061 
Q 3263 3522 3263 2288 
Q 3263 1031 2797 475 
Q 2331 -81 1584 -81 
Q 1047 -81 715 205 
Q 384 491 291 1059 
z
M 2278 2978 
Q 2278 3403 2083 3637 
Q 1888 3872 1631 3872 
Q 1388 3872 1227 3680 
Q 1066 3488 1066 3050 
Q 1066 2606 1241 2398 
Q 1416 2191 1678 2191 
Q 1931 2191 2104 2391 
Q 2278 2591 2278 2978 
z
" transform="scale(0.015625)"/>
       </defs>
       <use xlink:href="#Arial-BoldMT-39"/>
      </g>
     </g>
    </g>
    <g id="xtick_11">
     <g id="line2d_11">
      <g>
       <use xlink:href="#md946756ae2" x="56.727491" y="198.907885" style="stroke: #000000; stroke-width: 2"/>
      </g>
     </g>
     <g id="text_11">
      <!-- 10 -->
      <g transform="translate(46.717803 224.791947) scale(0.18 -0.18)">
       <use xlink:href="#Arial-BoldMT-31"/>
       <use xlink:href="#Arial-BoldMT-30" x="55.615234"/>
      </g>
     </g>
    </g>
    <g id="text_12">
     <!-- Chemical Shift / ppm -->
     <g transform="translate(504.992813 245.447573) scale(0.18 -0.18)">
      <defs>
       <path id="Arial-BoldMT-43" d="M 3397 1684 
L 4294 1400 
Q 4088 650 3608 286 
Q 3128 -78 2391 -78 
Q 1478 -78 890 545 
Q 303 1169 303 2250 
Q 303 3394 893 4026 
Q 1484 4659 2447 4659 
Q 3288 4659 3813 4163 
Q 4125 3869 4281 3319 
L 3366 3100 
Q 3284 3456 3026 3662 
Q 2769 3869 2400 3869 
Q 1891 3869 1573 3503 
Q 1256 3138 1256 2319 
Q 1256 1450 1568 1081 
Q 1881 713 2381 713 
Q 2750 713 3015 947 
Q 3281 1181 3397 1684 
z
" transform="scale(0.015625)"/>
       <path id="Arial-BoldMT-68" d="M 1334 4581 
L 1334 2897 
Q 1759 3394 2350 3394 
Q 2653 3394 2897 3281 
Q 3141 3169 3264 2994 
Q 3388 2819 3433 2606 
Q 3478 2394 3478 1947 
L 3478 0 
L 2600 0 
L 2600 1753 
Q 2600 2275 2550 2415 
Q 2500 2556 2373 2639 
Q 2247 2722 2056 2722 
Q 1838 2722 1666 2615 
Q 1494 2509 1414 2295 
Q 1334 2081 1334 1663 
L 1334 0 
L 456 0 
L 456 4581 
L 1334 4581 
z
" transform="scale(0.015625)"/>
       <path id="Arial-BoldMT-65" d="M 2381 1056 
L 3256 909 
Q 3088 428 2723 176 
Q 2359 -75 1813 -75 
Q 947 -75 531 491 
Q 203 944 203 1634 
Q 203 2459 634 2926 
Q 1066 3394 1725 3394 
Q 2466 3394 2894 2905 
Q 3322 2416 3303 1406 
L 1103 1406 
Q 1113 1016 1316 798 
Q 1519 581 1822 581 
Q 2028 581 2168 693 
Q 2309 806 2381 1056 
z
M 2431 1944 
Q 2422 2325 2234 2523 
Q 2047 2722 1778 2722 
Q 1491 2722 1303 2513 
Q 1116 2303 1119 1944 
L 2431 1944 
z
" transform="scale(0.015625)"/>
       <path id="Arial-BoldMT-6d" d="M 394 3319 
L 1203 3319 
L 1203 2866 
Q 1638 3394 2238 3394 
Q 2556 3394 2790 3262 
Q 3025 3131 3175 2866 
Q 3394 3131 3647 3262 
Q 3900 3394 4188 3394 
Q 4553 3394 4806 3245 
Q 5059 3097 5184 2809 
Q 5275 2597 5275 2122 
L 5275 0 
L 4397 0 
L 4397 1897 
Q 4397 2391 4306 2534 
Q 4184 2722 3931 2722 
Q 3747 2722 3584 2609 
Q 3422 2497 3350 2280 
Q 3278 2063 3278 1594 
L 3278 0 
L 2400 0 
L 2400 1819 
Q 2400 2303 2353 2443 
Q 2306 2584 2207 2653 
Q 2109 2722 1941 2722 
Q 1738 2722 1575 2612 
Q 1413 2503 1342 2297 
Q 1272 2091 1272 1613 
L 1272 0 
L 394 0 
L 394 3319 
z
" transform="scale(0.015625)"/>
       <path id="Arial-BoldMT-69" d="M 459 3769 
L 459 4581 
L 1338 4581 
L 1338 3769 
L 459 3769 
z
M 459 0 
L 459 3319 
L 1338 3319 
L 1338 0 
L 459 0 
z
" transform="scale(0.015625)"/>
       <path id="Arial-BoldMT-63" d="M 3353 2338 
L 2488 2181 
Q 2444 2441 2289 2572 
Q 2134 2703 1888 2703 
Q 1559 2703 1364 2476 
Q 1169 2250 1169 1719 
Q 1169 1128 1367 884 
Q 1566 641 1900 641 
Q 2150 641 2309 783 
Q 2469 925 2534 1272 
L 3397 1125 
Q 3263 531 2881 228 
Q 2500 -75 1859 -75 
Q 1131 -75 698 384 
Q 266 844 266 1656 
Q 266 2478 700 2936 
Q 1134 3394 1875 3394 
Q 2481 3394 2839 3133 
Q 3197 2872 3353 2338 
z
" transform="scale(0.015625)"/>
       <path id="Arial-BoldMT-61" d="M 1116 2306 
L 319 2450 
Q 453 2931 781 3162 
Q 1109 3394 1756 3394 
Q 2344 3394 2631 3255 
Q 2919 3116 3036 2902 
Q 3153 2688 3153 2116 
L 3144 1091 
Q 3144 653 3186 445 
Q 3228 238 3344 0 
L 2475 0 
Q 2441 88 2391 259 
Q 2369 338 2359 363 
Q 2134 144 1878 34 
Q 1622 -75 1331 -75 
Q 819 -75 523 203 
Q 228 481 228 906 
Q 228 1188 362 1408 
Q 497 1628 739 1745 
Q 981 1863 1438 1950 
Q 2053 2066 2291 2166 
L 2291 2253 
Q 2291 2506 2166 2614 
Q 2041 2722 1694 2722 
Q 1459 2722 1328 2630 
Q 1197 2538 1116 2306 
z
M 2291 1594 
Q 2122 1538 1756 1459 
Q 1391 1381 1278 1306 
Q 1106 1184 1106 997 
Q 1106 813 1243 678 
Q 1381 544 1594 544 
Q 1831 544 2047 700 
Q 2206 819 2256 991 
Q 2291 1103 2291 1419 
L 2291 1594 
z
" transform="scale(0.015625)"/>
       <path id="Arial-BoldMT-6c" d="M 459 0 
L 459 4581 
L 1338 4581 
L 1338 0 
L 459 0 
z
" transform="scale(0.015625)"/>
       <path id="Arial-BoldMT-20" transform="scale(0.015625)"/>
       <path id="Arial-BoldMT-53" d="M 231 1491 
L 1131 1578 
Q 1213 1125 1461 912 
Q 1709 700 2131 700 
Q 2578 700 2804 889 
Q 3031 1078 3031 1331 
Q 3031 1494 2936 1608 
Q 2841 1722 2603 1806 
Q 2441 1863 1863 2006 
Q 1119 2191 819 2459 
Q 397 2838 397 3381 
Q 397 3731 595 4036 
Q 794 4341 1167 4500 
Q 1541 4659 2069 4659 
Q 2931 4659 3367 4281 
Q 3803 3903 3825 3272 
L 2900 3231 
Q 2841 3584 2645 3739 
Q 2450 3894 2059 3894 
Q 1656 3894 1428 3728 
Q 1281 3622 1281 3444 
Q 1281 3281 1419 3166 
Q 1594 3019 2269 2859 
Q 2944 2700 3267 2529 
Q 3591 2359 3773 2064 
Q 3956 1769 3956 1334 
Q 3956 941 3737 597 
Q 3519 253 3119 86 
Q 2719 -81 2122 -81 
Q 1253 -81 787 320 
Q 322 722 231 1491 
z
" transform="scale(0.015625)"/>
       <path id="Arial-BoldMT-66" d="M 75 3319 
L 563 3319 
L 563 3569 
Q 563 3988 652 4194 
Q 741 4400 980 4529 
Q 1219 4659 1584 4659 
Q 1959 4659 2319 4547 
L 2200 3934 
Q 1991 3984 1797 3984 
Q 1606 3984 1523 3895 
Q 1441 3806 1441 3553 
L 1441 3319 
L 2097 3319 
L 2097 2628 
L 1441 2628 
L 1441 0 
L 563 0 
L 563 2628 
L 75 2628 
L 75 3319 
z
" transform="scale(0.015625)"/>
       <path id="Arial-BoldMT-74" d="M 1981 3319 
L 1981 2619 
L 1381 2619 
L 1381 1281 
Q 1381 875 1398 808 
Q 1416 741 1477 697 
Q 1538 653 1625 653 
Q 1747 653 1978 738 
L 2053 56 
Q 1747 -75 1359 -75 
Q 1122 -75 931 4 
Q 741 84 652 211 
Q 563 338 528 553 
Q 500 706 500 1172 
L 500 2619 
L 97 2619 
L 97 3319 
L 500 3319 
L 500 3978 
L 1381 4491 
L 1381 3319 
L 1981 3319 
z
" transform="scale(0.015625)"/>
       <path id="Arial-BoldMT-2f" d="M -9 -78 
L 1125 4659 
L 1784 4659 
L 638 -78 
L -9 -78 
z
" transform="scale(0.015625)"/>
       <path id="Arial-BoldMT-70" d="M 434 3319 
L 1253 3319 
L 1253 2831 
Q 1413 3081 1684 3237 
Q 1956 3394 2288 3394 
Q 2866 3394 3269 2941 
Q 3672 2488 3672 1678 
Q 3672 847 3265 386 
Q 2859 -75 2281 -75 
Q 2006 -75 1782 34 
Q 1559 144 1313 409 
L 1313 -1263 
L 434 -1263 
L 434 3319 
z
M 1303 1716 
Q 1303 1156 1525 889 
Q 1747 622 2066 622 
Q 2372 622 2575 867 
Q 2778 1113 2778 1672 
Q 2778 2194 2568 2447 
Q 2359 2700 2050 2700 
Q 1728 2700 1515 2451 
Q 1303 2203 1303 1716 
z
" transform="scale(0.015625)"/>
      </defs>
      <use xlink:href="#Arial-BoldMT-43"/>
      <use xlink:href="#Arial-BoldMT-68" x="72.216797"/>
      <use xlink:href="#Arial-BoldMT-65" x="133.300781"/>
      <use xlink:href="#Arial-BoldMT-6d" x="188.916016"/>
      <use xlink:href="#Arial-BoldMT-69" x="277.832031"/>
      <use xlink:href="#Arial-BoldMT-63" x="305.615234"/>
      <use xlink:href="#Arial-BoldMT-61" x="361.230469"/>
      <use xlink:href="#Arial-BoldMT-6c" x="416.845703"/>
      <use xlink:href="#Arial-BoldMT-20" x="444.628906"/>
      <use xlink:href="#Arial-BoldMT-53" x="472.412109"/>
      <use xlink:href="#Arial-BoldMT-68" x="539.111328"/>
      <use xlink:href="#Arial-BoldMT-69" x="600.195312"/>
      <use xlink:href="#Arial-BoldMT-66" x="627.978516"/>
      <use xlink:href="#Arial-BoldMT-74" x="661.279297"/>
      <use xlink:href="#Arial-BoldMT-20" x="694.580078"/>
      <use xlink:href="#Arial-BoldMT-2f" x="722.363281"/>
      <use xlink:href="#Arial-BoldMT-20" x="750.146484"/>
      <use xlink:href="#Arial-BoldMT-70" x="777.929688"/>
      <use xlink:href="#Arial-BoldMT-70" x="839.013672"/>
      <use xlink:href="#Arial-BoldMT-6d" x="900.097656"/>
     </g>
    </g>
   </g>
   <g id="matplotlib.axis_2"/>
   <g id="line2d_12">
    <path d="M 3.098111 190.763146 
L 3.71197 191.003743 
L 3.91659 190.952684 
L 4.325829 190.433805 
L 4.735069 190.000187 
L 5.144308 190.116079 
L 5.348928 190.186858 
L 5.553547 190.111814 
L 6.372026 189.201179 
L 6.576646 189.257071 
L 7.599745 190.490855 
L 7.804364 190.38799 
L 8.622843 189.513307 
L 8.827463 189.631164 
L 9.441322 190.384661 
L 10.055181 190.465192 
L 10.464421 190.516897 
L 10.87366 190.392335 
L 11.692139 190.75522 
L 12.101379 190.350086 
L 12.510618 189.99283 
L 13.329097 189.710632 
L 13.738337 189.964877 
L 13.942956 189.947103 
L 14.556815 189.581631 
L 14.966055 189.507676 
L 15.375294 189.660513 
L 15.989154 189.450834 
L 16.807632 189.924982 
L 17.216872 190.223961 
L 18.035351 190.043251 
L 18.44459 190.147019 
L 18.85383 190.196373 
L 19.058449 190.278121 
L 19.467689 189.973252 
L 19.876928 189.688438 
L 20.081548 189.682684 
L 20.900027 190.080379 
L 21.718506 189.79384 
L 22.536985 189.484385 
L 23.764703 189.002767 
L 23.969323 189.038789 
L 24.583182 189.734208 
L 25.197041 190.456053 
L 25.606281 190.577663 
L 26.01552 190.646512 
L 26.42476 190.844341 
L 27.447858 190.823012 
L 28.266337 190.636064 
L 28.675577 190.655376 
L 29.289436 190.53398 
L 30.107915 190.515741 
L 30.517154 190.87644 
L 30.721774 190.889622 
L 31.540253 190.482961 
L 32.154112 190.930573 
L 32.563351 191.041931 
L 32.972591 191.238879 
L 33.38183 191.222962 
L 33.79107 191.528297 
L 34.200309 191.792052 
L 34.404929 191.736451 
L 34.814168 191.178885 
L 35.223408 190.672832 
L 35.837267 190.516199 
L 36.246506 190.413316 
L 37.064985 190.847849 
L 37.474225 190.235439 
L 37.883464 189.671717 
L 38.088084 189.573965 
L 38.701943 189.673839 
L 39.725042 189.251568 
L 40.543521 190.000796 
L 40.95276 189.996424 
L 41.362 190.143085 
L 42.180479 189.885383 
L 42.794338 190.383041 
L 43.408197 190.692981 
L 43.817436 190.878207 
L 44.022056 190.744763 
L 44.635915 189.700727 
L 44.840535 189.682096 
L 45.454394 190.218997 
L 45.659014 190.193942 
L 46.068253 189.91177 
L 46.272873 189.917087 
L 47.909831 190.95548 
L 48.31907 191.087525 
L 48.72831 190.971032 
L 49.546789 190.258508 
L 49.956028 190.345262 
L 50.774507 190.234709 
L 51.183747 190.19891 
L 52.002225 190.706126 
L 53.025324 190.387756 
L 53.843803 190.16607 
L 54.253042 190.315589 
L 54.457662 190.423101 
L 54.662282 190.388757 
L 55.071521 189.950198 
L 55.276141 190.015718 
L 55.89 190.974196 
L 57.526958 191.220935 
L 57.936198 191.113814 
L 59.163916 191.646391 
L 59.573155 191.761404 
L 59.982395 191.548783 
L 60.596254 191.068278 
L 61.005493 190.995632 
L 61.823972 190.5931 
L 62.642451 190.815105 
L 63.46093 190.324418 
L 63.87017 190.092225 
L 64.484029 189.946943 
L 65.302508 190.490866 
L 65.916367 190.165789 
L 66.325606 190.383111 
L 66.734846 191.15142 
L 67.144085 191.930409 
L 67.348705 191.943074 
L 67.757944 191.596108 
L 68.167184 191.129264 
L 68.371804 191.083353 
L 68.985663 191.303543 
L 69.394902 191.261906 
L 69.804142 191.372048 
L 70.82724 190.932853 
L 71.03186 190.713958 
L 71.23648 190.747039 
L 71.645719 191.151037 
L 71.850339 191.203722 
L 72.054959 191.085853 
L 72.464198 190.629804 
L 72.873438 190.644666 
L 73.282677 190.74166 
L 73.691916 191.125942 
L 74.510395 191.237293 
L 75.328874 190.411496 
L 75.942733 190.587198 
L 76.147353 190.605286 
L 77.375072 191.529364 
L 77.988931 191.501742 
L 78.39817 191.345843 
L 79.012029 190.471 
L 79.216649 190.5112 
L 79.625889 190.906552 
L 79.830508 190.928213 
L 80.444367 190.591078 
L 80.648987 190.608701 
L 81.467466 191.334748 
L 82.081325 191.116852 
L 83.104424 191.43775 
L 83.513663 191.348962 
L 84.741382 190.757946 
L 85.355241 190.649821 
L 85.76448 190.368225 
L 89.038396 190.394154 
L 89.243016 190.336958 
L 89.856875 190.516213 
L 90.470734 189.901971 
L 90.879974 190.210025 
L 91.289213 190.441177 
L 92.312312 190.21555 
L 92.721551 190.202152 
L 93.54003 190.611241 
L 94.358509 189.964785 
L 94.767748 190.324708 
L 95.586227 191.551977 
L 96.200086 191.406213 
L 96.609326 191.5309 
L 97.018565 191.311504 
L 97.837044 190.354919 
L 98.246284 190.492534 
L 98.655523 190.451885 
L 99.269382 190.80649 
L 100.087861 190.500393 
L 100.70172 191.106503 
L 101.11096 191.210138 
L 101.520199 190.930443 
L 101.929439 190.604069 
L 102.543298 189.825909 
L 102.952537 189.722681 
L 103.361777 190.128484 
L 103.771016 190.46462 
L 104.589495 190.74803 
L 105.407974 189.761014 
L 105.817214 189.875002 
L 106.021833 189.769225 
L 106.431073 189.164877 
L 106.635692 189.091706 
L 107.249552 189.488841 
L 107.658791 190.216414 
L 107.863411 190.597497 
L 108.068031 190.708482 
L 108.47727 190.541524 
L 109.295749 190.705058 
L 109.909608 190.241456 
L 110.318848 189.853969 
L 110.523467 189.793159 
L 111.341946 190.041854 
L 111.751186 190.539173 
L 112.160425 191.163285 
L 112.365045 191.258043 
L 112.978904 191.271349 
L 113.388143 191.53009 
L 113.797383 191.422386 
L 114.206622 191.166686 
L 114.411242 191.16241 
L 114.820482 191.411571 
L 115.434341 191.32571 
L 115.84358 191.200054 
L 116.662059 191.217675 
L 117.480538 191.213578 
L 118.503637 191.769 
L 118.912876 191.649659 
L 119.731355 191.848779 
L 120.345214 191.703743 
L 120.754454 191.975461 
L 121.163693 192.411432 
L 121.368313 192.422646 
L 122.391411 191.553889 
L 122.800651 191.371237 
L 123.61913 190.580226 
L 124.232989 190.290578 
L 124.437609 190.42677 
L 124.846848 190.978705 
L 125.051468 191.071347 
L 125.665327 190.749085 
L 126.893045 190.903068 
L 127.506905 190.706095 
L 128.325384 191.010145 
L 129.143862 190.798289 
L 129.962341 189.862512 
L 130.166961 189.84672 
L 130.371581 190.002093 
L 130.98544 190.976781 
L 132.213158 191.242673 
L 133.031637 191.011201 
L 133.440877 191.327517 
L 133.850116 191.751093 
L 134.259356 191.756687 
L 134.668595 191.823245 
L 135.077835 191.865325 
L 135.487074 191.885363 
L 136.305553 192.080158 
L 136.510173 192.092615 
L 137.328651 191.27666 
L 137.737891 190.874456 
L 138.14713 190.765264 
L 138.76099 190.902424 
L 139.784088 190.949953 
L 140.397947 191.427373 
L 140.602567 191.348235 
L 141.421046 190.22864 
L 142.034905 190.088613 
L 142.444145 190.380074 
L 143.058004 190.918389 
L 143.467243 190.94343 
L 143.876483 190.863298 
L 144.081102 190.877018 
L 145.308821 190.34746 
L 146.1273 190.670864 
L 146.536539 190.712388 
L 146.945779 190.856618 
L 147.355018 190.166197 
L 147.764258 189.668404 
L 147.968877 189.647376 
L 148.378117 189.92569 
L 148.787356 190.364863 
L 149.401215 190.517191 
L 149.810455 190.611417 
L 150.219694 190.399765 
L 150.424314 190.28639 
L 151.242793 190.338595 
L 152.061272 189.965877 
L 152.470511 189.965549 
L 152.675131 190.109437 
L 153.49361 191.128261 
L 153.902849 190.851703 
L 154.312089 190.900644 
L 154.925948 191.012075 
L 155.335187 191.081764 
L 155.744427 190.844601 
L 156.153666 191.038867 
L 156.767526 191.460486 
L 157.381385 191.477256 
L 157.995244 191.34982 
L 158.404483 190.991803 
L 159.018343 191.069416 
L 159.427582 191.322729 
L 159.836821 191.65879 
L 160.041441 191.544278 
L 160.85992 190.632359 
L 161.26916 190.569087 
L 161.883019 190.682523 
L 162.292258 190.511886 
L 163.110737 189.695654 
L 163.724596 190.017542 
L 164.338455 190.63736 
L 164.952315 190.260668 
L 165.361554 190.351512 
L 165.975413 190.954287 
L 166.384653 191.057436 
L 166.793892 190.85221 
L 166.998512 190.684053 
L 167.203132 190.666446 
L 167.612371 191.004181 
L 168.021611 190.924352 
L 168.840089 190.24109 
L 169.044709 190.338634 
L 169.658568 191.004863 
L 170.067808 191.077349 
L 170.477047 190.71667 
L 171.090906 189.886227 
L 171.295526 189.859295 
L 172.318625 190.398126 
L 172.932484 190.973504 
L 173.341723 190.925263 
L 173.750963 190.782024 
L 174.160202 190.973089 
L 174.569442 191.026522 
L 175.183301 190.495632 
L 175.79716 190.139049 
L 176.00178 190.257341 
L 176.411019 190.663734 
L 176.820259 190.410341 
L 177.843357 189.831315 
L 178.047977 189.886754 
L 178.661836 190.628699 
L 179.480315 190.380793 
L 179.889555 190.499448 
L 180.708034 190.405774 
L 181.117273 190.209326 
L 181.321893 190.220981 
L 181.526512 190.382611 
L 181.935752 191.050895 
L 182.140372 191.152293 
L 182.754231 190.747424 
L 183.16347 190.812686 
L 183.57271 190.73327 
L 184.186569 190.93806 
L 184.800428 190.91119 
L 185.618907 191.079133 
L 186.846625 191.626696 
L 188.074344 191.060014 
L 188.688203 190.423202 
L 189.302062 190.267182 
L 190.52978 190.698167 
L 190.93902 190.655829 
L 191.757499 190.345166 
L 192.780597 190.617909 
L 193.599076 191.543114 
L 194.826795 191.380712 
L 195.031414 191.507451 
L 195.236034 191.501069 
L 195.645274 191.315848 
L 196.054513 191.273596 
L 196.463753 191.2412 
L 197.077612 191.779516 
L 197.691471 192.234964 
L 197.896091 192.19926 
L 198.50995 191.68192 
L 198.919189 191.963763 
L 199.123809 192.10657 
L 199.328429 192.054648 
L 199.737668 191.655605 
L 200.556147 191.526005 
L 201.374626 191.15106 
L 201.988485 191.382425 
L 202.602344 191.402472 
L 203.420823 191.84088 
L 204.034682 191.274713 
L 205.467021 191.449088 
L 206.08088 191.306218 
L 206.490119 191.105646 
L 206.899359 190.69837 
L 207.308598 190.555329 
L 207.717838 190.67236 
L 208.331697 191.152376 
L 208.740936 191.101319 
L 209.150176 190.751211 
L 210.377894 190.73697 
L 210.787133 191.115318 
L 211.196373 191.076296 
L 211.605612 191.129865 
L 212.014852 191.260922 
L 212.628711 191.115097 
L 212.833331 191.159831 
L 213.03795 191.074839 
L 213.44719 190.432947 
L 213.856429 189.735152 
L 214.061049 189.625513 
L 214.265669 189.737698 
L 215.288767 191.154187 
L 215.493387 191.090276 
L 216.311866 190.343126 
L 216.721105 190.686432 
L 217.334965 191.336557 
L 217.744204 191.28635 
L 218.153444 191.317054 
L 218.971922 191.566288 
L 219.381162 191.817776 
L 219.585782 191.697188 
L 220.404261 190.791826 
L 220.8135 190.557464 
L 221.222739 190.733726 
L 221.631979 191.013815 
L 222.245838 191.180147 
L 222.859697 191.61126 
L 223.268937 191.565437 
L 223.678176 191.215912 
L 224.087416 190.864662 
L 224.701275 190.829307 
L 225.315134 190.892756 
L 225.724373 190.728146 
L 226.338233 190.848886 
L 226.747472 190.502858 
L 226.952092 190.473756 
L 227.361331 190.659331 
L 227.770571 190.483091 
L 228.17981 190.048915 
L 229.202909 188.409514 
L 230.226007 187.164017 
L 230.839867 185.786705 
L 231.044486 185.550834 
L 231.658346 185.390601 
L 231.862965 185.11747 
L 232.067585 184.543567 
L 232.476824 182.426967 
L 233.090684 177.84415 
L 233.499923 173.829312 
L 233.909163 168.049801 
L 235.136881 146.901425 
L 236.15998 139.276482 
L 236.364599 138.869737 
L 236.773839 138.894596 
L 236.978458 138.374809 
L 237.592318 135.022947 
L 237.796937 134.832695 
L 238.206177 135.791286 
L 238.410797 135.877548 
L 238.615416 135.578163 
L 238.820036 135.534673 
L 239.024656 136.466884 
L 240.047754 146.734109 
L 240.252374 146.803495 
L 240.456994 145.884307 
L 240.866233 141.541194 
L 241.275473 136.106965 
L 241.684712 133.668079 
L 241.889332 133.034126 
L 242.093952 131.988055 
L 242.912431 125.589848 
L 243.32167 124.616361 
L 243.52629 124.309898 
L 243.730909 124.426433 
L 243.935529 125.524447 
L 245.572487 144.311277 
L 246.800205 168.965408 
L 247.414065 175.585773 
L 248.027924 179.776218 
L 248.846403 182.305552 
L 249.664882 184.490295 
L 250.278741 185.357815 
L 251.09722 185.747253 
L 251.506459 186.13571 
L 251.915699 186.369338 
L 252.938797 187.720266 
L 253.552656 187.924227 
L 253.757276 187.743948 
L 254.371135 186.847317 
L 254.575755 186.863453 
L 255.394234 187.424917 
L 255.803473 187.662418 
L 256.826572 188.802954 
L 257.645051 188.853248 
L 258.46353 189.51044 
L 258.872769 189.476743 
L 259.486628 189.170936 
L 259.895868 188.991499 
L 260.305107 189.157661 
L 261.328206 189.797784 
L 261.737445 189.118514 
L 262.146685 188.501763 
L 262.351305 188.378709 
L 262.555924 188.38586 
L 262.760544 188.552635 
L 263.579023 189.828454 
L 264.397502 189.827933 
L 264.806741 189.903696 
L 265.215981 189.918261 
L 265.62522 190.219073 
L 266.03446 190.561553 
L 266.239079 190.590494 
L 266.443699 190.477347 
L 267.057558 189.811173 
L 267.671417 190.086813 
L 268.285277 190.735583 
L 268.694516 190.495499 
L 269.103756 190.248338 
L 269.717615 190.106923 
L 270.126854 189.812171 
L 271.149953 189.868096 
L 271.559192 189.732194 
L 272.786911 189.987644 
L 273.19615 189.790489 
L 274.423868 189.148204 
L 275.037728 189.670943 
L 275.242347 189.825771 
L 276.060826 189.651709 
L 276.470066 189.91329 
L 277.083925 190.009612 
L 277.902404 190.745696 
L 278.311643 190.793107 
L 278.516263 190.648551 
L 279.130122 189.886232 
L 279.334742 189.794694 
L 280.357841 190.114395 
L 280.56246 190.019041 
L 281.380939 189.034141 
L 282.199418 188.379427 
L 283.222517 188.226734 
L 283.631756 187.72451 
L 284.245615 186.671025 
L 284.859475 186.43774 
L 285.268714 186.465646 
L 285.882573 186.81578 
L 286.291813 186.530689 
L 286.701052 186.338336 
L 287.314911 186.517005 
L 288.54263 186.910898 
L 290.179587 186.313983 
L 290.793447 185.707888 
L 291.202686 185.94084 
L 291.611925 186.137816 
L 292.225785 185.849448 
L 293.248883 186.151714 
L 293.658123 186.517119 
L 293.862742 186.443071 
L 294.476602 185.578974 
L 294.681221 185.540507 
L 295.4997 185.825458 
L 296.727419 185.784073 
L 297.341278 185.414118 
L 297.750517 185.427303 
L 298.364376 185.647942 
L 299.592095 185.789514 
L 299.796715 185.608468 
L 300.615193 184.337545 
L 301.024433 183.893499 
L 301.433672 182.601349 
L 301.842912 180.832006 
L 302.252151 177.682306 
L 302.661391 173.586564 
L 302.86601 172.573437 
L 303.07063 172.862634 
L 304.093729 178.83658 
L 304.298349 179.291613 
L 304.502968 179.27782 
L 304.707588 178.882075 
L 305.116827 177.195994 
L 305.526067 175.620438 
L 305.730687 175.81478 
L 306.344546 178.718188 
L 307.163025 182.354341 
L 307.572264 183.226705 
L 307.776884 183.363682 
L 309.004602 182.922935 
L 309.823081 180.731942 
L 310.232321 178.809971 
L 310.64156 176.104943 
L 311.0508 171.744927 
L 311.664659 164.609072 
L 312.278518 162.063645 
L 312.483138 160.037888 
L 312.892377 151.822873 
L 313.506236 136.620185 
L 313.710856 136.76814 
L 314.120095 144.099215 
L 314.733955 154.799539 
L 314.938574 156.167024 
L 315.143194 156.09612 
L 315.347814 154.438812 
L 315.757053 147.03529 
L 316.166293 139.113382 
L 316.370912 139.291091 
L 316.780152 148.515528 
L 317.189391 158.291501 
L 317.598631 164.072491 
L 318.00787 166.640687 
L 318.21249 167.062624 
L 318.41711 167.223438 
L 318.621729 167.130566 
L 318.826349 166.657533 
L 319.235589 164.654624 
L 319.644828 161.372501 
L 320.054068 156.085114 
L 320.463307 148.63232 
L 320.872546 137.787914 
L 321.281786 119.819589 
L 321.691025 90.853908 
L 322.304885 43.203651 
L 322.509504 38.452399 
L 322.714124 40.227447 
L 323.327983 54.132847 
L 323.532603 52.184103 
L 323.941842 38.498325 
L 324.964941 3.00024 
L 325.169561 4.335913 
L 325.37418 10.568342 
L 326.397279 59.957239 
L 326.601899 61.668689 
L 326.806519 64.826665 
L 327.011138 72.926334 
L 328.034237 133.884937 
L 328.443476 146.688766 
L 328.852716 154.173951 
L 329.261955 158.522621 
L 329.875814 162.00918 
L 330.898913 168.321478 
L 331.103533 168.890338 
L 331.308152 169.041215 
L 331.512772 168.733949 
L 331.922012 166.958022 
L 332.331251 163.858891 
L 332.740491 158.319734 
L 333.35435 149.561354 
L 333.558969 149.481965 
L 333.968209 151.059229 
L 334.172829 150.910627 
L 334.377448 150.270825 
L 334.582068 150.042534 
L 334.786688 151.17749 
L 335.605167 160.46999 
L 336.628265 165.447052 
L 336.832885 165.637746 
L 337.037505 165.370573 
L 337.446744 164.442502 
L 337.651364 164.400311 
L 338.265223 165.403073 
L 338.469843 165.111239 
L 338.674463 164.322474 
L 339.083702 161.40154 
L 339.492942 156.988881 
L 339.902181 150.274571 
L 340.31142 139.031805 
L 340.92528 120.288015 
L 341.129899 121.392224 
L 342.152998 146.578531 
L 342.357618 147.664881 
L 342.562237 147.291594 
L 342.766857 145.726593 
L 343.176097 139.043225 
L 343.585336 131.948999 
L 343.789956 132.014129 
L 344.199195 139.608232 
L 344.608435 147.395715 
L 345.017674 150.994923 
L 345.222294 151.760229 
L 345.426914 151.922523 
L 345.631533 151.371134 
L 345.836153 150.007004 
L 346.245393 144.380875 
L 346.654632 133.930523 
L 347.268491 114.290728 
L 347.473111 112.567088 
L 347.677731 114.777253 
L 348.08697 122.390734 
L 348.29159 124.333187 
L 348.49621 124.205647 
L 348.700829 121.909264 
L 349.110069 110.626036 
L 349.928548 76.160261 
L 350.133167 73.161114 
L 350.337787 74.139453 
L 350.747027 85.725175 
L 351.360886 104.406069 
L 351.770125 110.574022 
L 351.974745 111.527787 
L 352.179365 111.729268 
L 352.383984 112.411012 
L 352.588604 114.64333 
L 353.407083 129.120814 
L 354.020942 134.473594 
L 354.430182 136.200507 
L 354.634801 135.972521 
L 354.839421 134.801432 
L 355.044041 132.558545 
L 355.45328 124.374501 
L 356.067139 111.204084 
L 356.476379 109.160268 
L 357.294858 106.192958 
L 357.704097 105.880137 
L 357.908717 105.447084 
L 358.113337 104.2509 
L 358.727196 97.191568 
L 358.931816 97.17225 
L 359.341055 102.663307 
L 359.750295 108.500485 
L 360.159534 111.390042 
L 360.364154 111.805727 
L 360.568773 111.557573 
L 360.773393 110.554612 
L 360.978013 108.542621 
L 361.387252 100.613634 
L 362.410351 70.480533 
L 362.614971 68.685605 
L 362.81959 69.8347 
L 363.22883 79.915131 
L 364.047309 106.004514 
L 364.456548 113.811526 
L 364.865788 118.109504 
L 365.070407 118.858695 
L 365.275027 118.873522 
L 365.684267 117.73579 
L 366.093506 116.683219 
L 366.298126 116.97513 
L 366.707365 119.228679 
L 367.116605 121.392915 
L 367.321224 121.395325 
L 367.525844 120.399785 
L 367.730464 118.278838 
L 368.139703 110.174361 
L 369.162802 79.845643 
L 369.367422 78.085739 
L 369.572041 79.453657 
L 369.981281 90.586075 
L 370.79976 118.254189 
L 371.208999 127.071241 
L 371.618239 131.62928 
L 371.822858 132.602366 
L 372.027478 132.82934 
L 372.232098 132.3424 
L 372.641337 129.563195 
L 373.459816 123.237995 
L 373.664436 123.163136 
L 374.073675 124.815891 
L 374.482915 125.985762 
L 374.687535 125.81681 
L 374.892154 124.972011 
L 375.301394 120.890651 
L 375.710633 112.948767 
L 376.119873 99.637061 
L 377.347591 49.343322 
L 377.552211 51.453107 
L 377.96145 69.014204 
L 378.779929 109.904164 
L 379.189169 121.111992 
L 379.598408 127.517586 
L 380.007647 129.848471 
L 380.212267 129.873525 
L 380.621507 128.768728 
L 380.826126 128.882372 
L 381.030746 130.137839 
L 381.849225 138.933187 
L 382.053845 139.880595 
L 382.258464 140.063979 
L 382.463084 139.635283 
L 383.486183 135.252356 
L 384.509281 129.553585 
L 384.713901 129.609284 
L 385.123141 130.476888 
L 385.32776 130.456393 
L 385.53238 129.68765 
L 385.94162 126.094243 
L 386.760098 115.726089 
L 387.169338 107.383559 
L 387.578577 91.997804 
L 388.806296 32.401145 
L 389.010915 34.8661 
L 389.420155 50.733473 
L 390.647873 107.469905 
L 391.057113 118.753191 
L 391.466352 124.442466 
L 392.080211 129.341441 
L 392.489451 136.045345 
L 393.10331 147.343163 
L 393.717169 153.869609 
L 394.331028 158.739969 
L 394.740268 160.392554 
L 395.149507 161.103211 
L 395.558747 160.929073 
L 395.967986 160.577153 
L 396.377226 159.518997 
L 396.786465 157.397907 
L 397.400324 152.842722 
L 397.604944 152.001648 
L 397.809564 151.944076 
L 398.218803 153.927583 
L 398.423423 154.894737 
L 398.628043 155.272942 
L 398.832662 155.102756 
L 399.037282 154.435489 
L 399.446522 151.384867 
L 399.855761 145.620806 
L 400.46962 135.562591 
L 400.67424 133.535109 
L 400.87886 132.916324 
L 401.083479 134.106843 
L 401.492719 141.745096 
L 402.106578 155.615427 
L 402.515817 161.366934 
L 403.129677 166.728845 
L 403.743536 170.815835 
L 404.152775 172.336238 
L 404.562015 172.926105 
L 404.971254 173.163582 
L 405.175874 173.394497 
L 405.585113 174.449527 
L 406.403592 177.41534 
L 406.812832 177.975855 
L 407.222071 178.175727 
L 407.426691 178.417513 
L 408.24517 179.935569 
L 408.654409 180.164602 
L 409.882128 181.31473 
L 410.086747 181.357046 
L 411.314466 181.000725 
L 412.542184 181.087353 
L 412.951423 181.042627 
L 413.565283 181.451486 
L 413.974522 181.313209 
L 414.383762 181.182522 
L 414.588381 181.315327 
L 414.997621 182.038466 
L 415.40686 182.772711 
L 415.61148 182.874498 
L 416.225339 182.484646 
L 416.839198 182.75307 
L 417.248438 182.773435 
L 417.453057 182.683712 
L 417.862297 182.141823 
L 418.271536 181.46691 
L 418.476156 181.294604 
L 418.680776 181.283401 
L 419.090015 181.790701 
L 419.703874 182.522565 
L 420.113114 182.46136 
L 420.522353 182.484496 
L 421.545452 182.54684 
L 421.954691 182.05086 
L 422.363931 181.598039 
L 422.77317 181.521737 
L 423.18241 181.905494 
L 423.591649 182.26189 
L 423.796269 182.328805 
L 424.205508 181.986955 
L 424.614748 181.622628 
L 424.819368 181.635089 
L 425.228607 182.266905 
L 425.637847 183.003347 
L 426.047086 183.156042 
L 426.456325 183.137295 
L 426.660945 183.286321 
L 427.070185 184.094045 
L 427.684044 185.59704 
L 427.888664 185.619967 
L 428.297903 185.480476 
L 428.707142 186.026226 
L 429.116382 186.527663 
L 429.525621 186.399159 
L 430.139481 185.911552 
L 430.54872 186.209434 
L 430.957959 186.545242 
L 432.185678 187.149117 
L 433.004157 187.733332 
L 433.208776 187.887559 
L 433.413396 187.866953 
L 434.027255 187.48578 
L 434.641115 187.272938 
L 435.050354 187.114792 
L 436.073453 187.317933 
L 436.482692 187.390929 
L 436.687312 187.250728 
L 437.096551 186.653981 
L 437.301171 186.695436 
L 438.11965 187.589025 
L 438.32427 187.645616 
L 438.733509 187.428923 
L 439.347368 187.584366 
L 439.756608 187.44159 
L 440.575087 188.037053 
L 440.984326 187.380506 
L 441.393566 186.707621 
L 441.802805 186.566925 
L 442.212044 186.680201 
L 442.825904 186.923327 
L 443.644383 186.779249 
L 444.258242 186.962763 
L 445.28134 187.180688 
L 445.69058 187.266159 
L 446.099819 187.797014 
L 446.509059 188.255811 
L 447.327538 188.401098 
L 447.736777 188.490674 
L 448.146016 188.465226 
L 448.555256 188.632042 
L 449.169115 188.106609 
L 449.373735 188.231912 
L 449.782974 188.815894 
L 449.987594 188.86613 
L 450.806073 188.32847 
L 451.829172 187.779785 
L 452.238411 187.854343 
L 452.85227 188.034395 
L 453.670749 188.066512 
L 454.284608 187.65028 
L 454.693848 187.591985 
L 455.103087 187.311249 
L 455.716946 186.920604 
L 456.126186 186.833678 
L 457.763144 188.099061 
L 458.172383 188.641771 
L 459.195482 189.052906 
L 459.604721 188.539816 
L 460.013961 188.054331 
L 460.21858 188.043883 
L 461.241679 188.869927 
L 462.060158 188.978671 
L 462.264778 189.000959 
L 462.878637 188.652957 
L 463.083257 188.704263 
L 463.697116 189.148556 
L 464.310975 189.019651 
L 464.720214 188.196286 
L 465.129454 187.57126 
L 465.743313 187.377426 
L 466.152552 187.86307 
L 466.766412 188.556763 
L 467.175651 188.700644 
L 467.78951 188.536502 
L 468.19875 188.343195 
L 468.607989 188.121784 
L 469.017229 188.210632 
L 470.244947 188.620201 
L 470.858806 188.211482 
L 471.677285 188.72566 
L 471.881905 188.745512 
L 473.314243 189.614412 
L 473.723482 189.752539 
L 474.132722 189.843325 
L 474.746581 189.601159 
L 474.951201 189.491804 
L 475.36044 188.809861 
L 476.178919 187.375742 
L 476.383539 187.359095 
L 477.202018 187.94446 
L 477.611257 187.76084 
L 478.020497 187.609581 
L 478.838976 187.50578 
L 479.657454 186.73332 
L 480.475933 187.413975 
L 480.885173 187.439974 
L 481.089793 187.280335 
L 481.499032 186.724704 
L 481.908271 186.57379 
L 482.112891 186.577788 
L 482.522131 186.993729 
L 483.13599 187.600121 
L 483.545229 187.663981 
L 483.954469 187.787916 
L 484.977567 188.811513 
L 485.386807 188.727289 
L 486.000666 188.399284 
L 486.819145 188.651777 
L 487.433004 188.820492 
L 487.842243 188.640833 
L 488.046863 188.777955 
L 488.865342 189.787922 
L 489.069962 189.80143 
L 489.479201 189.118566 
L 489.888441 188.647905 
L 490.70692 188.648971 
L 491.116159 188.332787 
L 491.320779 188.447328 
L 491.934638 189.073012 
L 492.548497 188.818228 
L 493.162356 188.917767 
L 493.571596 188.713772 
L 493.776216 188.746096 
L 494.390075 189.262416 
L 494.594694 189.19832 
L 495.413173 188.292885 
L 495.617793 188.40637 
L 496.027033 189.251271 
L 496.436272 190.036056 
L 496.845511 190.20727 
L 497.254751 190.012622 
L 497.86861 189.456913 
L 498.27785 189.412857 
L 498.687089 189.76717 
L 499.300948 190.451006 
L 499.505568 190.470104 
L 499.914807 190.102172 
L 500.324047 189.531363 
L 500.733286 189.450686 
L 501.142526 189.683299 
L 501.756385 190.008037 
L 502.165624 190.164497 
L 502.370244 190.042383 
L 502.984103 189.37318 
L 504.007202 189.435153 
L 504.621061 188.700178 
L 505.030301 188.317759 
L 505.23492 188.295661 
L 505.43954 188.424875 
L 506.053399 189.296708 
L 506.462639 189.310534 
L 507.690357 188.853531 
L 508.099596 188.420591 
L 508.508836 188.581675 
L 509.122695 189.135289 
L 509.531935 189.484463 
L 509.941174 189.255398 
L 510.350413 189.030071 
L 510.555033 189.154201 
L 511.168892 189.952851 
L 511.782752 189.98851 
L 512.191991 189.819802 
L 512.60123 189.493989 
L 513.624329 190.162576 
L 513.828949 190.022527 
L 514.442808 189.13618 
L 514.852047 189.220867 
L 515.465907 189.219486 
L 515.875146 189.136883 
L 516.079766 189.233249 
L 516.693625 189.83721 
L 517.307484 189.797711 
L 517.512104 189.646638 
L 518.330583 188.576758 
L 519.149062 189.279924 
L 520.78602 188.949103 
L 522.218358 189.875161 
L 523.036836 189.752856 
L 523.855315 189.137085 
L 524.673794 188.357535 
L 525.083034 188.273308 
L 525.492273 188.549201 
L 525.696893 188.685638 
L 525.901513 188.623884 
L 526.310752 188.198811 
L 526.924611 188.071847 
L 527.53847 187.183306 
L 528.356949 186.60266 
L 528.766189 186.572836 
L 529.993907 186.994865 
L 530.403147 186.623986 
L 530.607766 186.563478 
L 531.221626 186.673918 
L 531.630865 186.294356 
L 533.472443 183.684995 
L 534.495541 182.353297 
L 534.904781 182.229863 
L 535.31402 181.676389 
L 536.337119 179.817181 
L 536.746358 179.575223 
L 536.950978 179.463224 
L 537.974077 178.299365 
L 538.178696 178.060992 
L 538.383316 177.506157 
L 538.997175 174.483163 
L 539.611034 171.704523 
L 539.815654 171.268099 
L 540.429513 170.889572 
L 540.838753 169.95557 
L 542.066471 166.41719 
L 544.521908 155.649533 
L 546.363485 142.982463 
L 546.977345 138.732969 
L 547.591204 135.215097 
L 549.432781 121.366191 
L 550.25126 113.789803 
L 551.888218 97.753492 
L 552.911317 86.443109 
L 553.320556 84.430182 
L 553.525176 84.437329 
L 553.729796 85.02232 
L 554.139035 87.154451 
L 554.957514 93.501524 
L 555.366753 98.219479 
L 557.208331 126.468363 
L 557.61757 128.008429 
L 557.82219 131.442656 
L 558.02681 140.70215 
L 558.436049 171.147886 
L 558.640669 177.323485 
L 558.845289 172.79846 
L 559.254528 159.612615 
L 559.459148 156.143438 
L 559.663768 154.9864 
L 559.868387 155.290929 
L 560.277627 156.704061 
L 560.482247 156.843943 
L 560.686866 156.336294 
L 561.300725 153.524237 
L 561.709965 153.228446 
L 561.914585 152.670513 
L 562.323824 149.530454 
L 563.142303 141.038966 
L 563.756162 137.26908 
L 564.165402 136.240002 
L 564.574641 136.222164 
L 564.779261 136.338813 
L 564.98388 136.608024 
L 565.39312 137.936044 
L 566.006979 141.426044 
L 566.825458 146.208754 
L 569.280895 156.54557 
L 570.303993 161.483339 
L 571.327092 165.136639 
L 571.531712 165.514939 
L 571.736331 165.582459 
L 572.55481 164.966508 
L 572.96405 164.914182 
L 573.373289 164.45606 
L 573.782529 164.403084 
L 573.987148 164.364535 
L 575.214867 163.320899 
L 575.419487 163.397851 
L 575.828726 163.891974 
L 576.033346 163.817794 
L 576.442585 162.771146 
L 576.851825 161.569694 
L 577.056444 161.731429 
L 577.465684 163.65288 
L 578.284163 168.073032 
L 578.693402 169.087282 
L 578.898022 169.264878 
L 579.102642 169.20928 
L 579.921121 168.405762 
L 580.12574 168.553919 
L 580.739599 169.864084 
L 580.944219 169.89775 
L 581.148839 169.586937 
L 581.353459 168.748658 
L 581.762698 165.455135 
L 582.171938 162.047713 
L 582.376557 161.290466 
L 582.581177 161.366475 
L 583.399656 163.60117 
L 583.604276 163.072733 
L 584.013515 160.443746 
L 585.241233 149.270217 
L 585.855093 142.496281 
L 586.059712 142.816877 
L 586.468952 147.47276 
L 586.878191 151.400312 
L 587.082811 151.767501 
L 587.287431 150.917724 
L 587.90129 145.245336 
L 588.10591 144.918419 
L 588.310529 145.960425 
L 588.924389 151.106442 
L 589.538248 154.273818 
L 590.561346 164.346049 
L 590.765966 164.788149 
L 590.970586 164.776197 
L 591.379825 164.566564 
L 591.584445 165.029523 
L 591.993684 168.007006 
L 592.812163 175.133402 
L 593.630642 179.247874 
L 594.039882 180.480334 
L 594.653741 181.473975 
L 595.47222 182.315956 
L 596.086079 182.695683 
L 596.699938 183.287338 
L 597.313797 182.765081 
L 597.518417 182.906137 
L 598.132276 184.34796 
L 598.950755 185.908431 
L 599.155375 186.001216 
L 599.359995 185.84648 
L 600.383093 184.337275 
L 600.587713 184.277457 
L 601.610812 184.841447 
L 601.815431 185.075655 
L 602.63391 186.974122 
L 603.04315 186.981168 
L 603.452389 186.818885 
L 604.475488 185.715002 
L 604.884727 185.71756 
L 605.293967 185.510411 
L 605.907826 185.58667 
L 606.521685 185.85702 
L 606.930924 185.800772 
L 607.340164 185.484887 
L 608.363263 185.622423 
L 609.181741 185.864367 
L 609.795601 186.030224 
L 610.40946 186.564867 
L 610.818699 186.515916 
L 611.023319 186.654192 
L 611.637178 187.590552 
L 611.841798 187.633879 
L 612.864897 187.066632 
L 613.274136 186.893678 
L 614.297235 186.269114 
L 614.501854 186.356627 
L 614.911094 187.097807 
L 615.320333 187.737471 
L 615.729573 187.852069 
L 616.138812 188.01464 
L 616.548052 187.721484 
L 616.957291 187.381188 
L 617.366531 187.247654 
L 617.77577 186.783687 
L 618.185009 186.480701 
L 618.389629 186.563052 
L 618.798869 187.045627 
L 619.412728 187.865416 
L 619.617348 187.79538 
L 620.026587 187.413367 
L 620.231207 187.519555 
L 621.049686 188.39134 
L 621.458925 188.318946 
L 622.482024 187.497709 
L 622.891263 187.672367 
L 623.300503 187.991163 
L 623.709742 187.906119 
L 624.323601 187.476571 
L 624.528221 187.338059 
L 624.732841 187.432466 
L 625.14208 187.974843 
L 625.3467 187.903381 
L 625.960559 186.925841 
L 626.165179 186.941264 
L 626.779038 187.634 
L 626.983658 187.637154 
L 627.392897 187.281329 
L 628.006756 187.129412 
L 628.825235 186.071043 
L 629.234475 186.253653 
L 629.439094 186.332989 
L 629.643714 186.257809 
L 630.052954 185.607867 
L 630.666813 184.543231 
L 631.280672 183.96244 
L 631.689911 183.968161 
L 632.099151 184.055196 
L 632.50839 183.77745 
L 632.91763 183.433563 
L 633.531489 183.554374 
L 633.940728 183.703329 
L 634.145348 183.637152 
L 635.373067 181.971236 
L 636.191545 180.739381 
L 637.623884 176.313462 
L 638.646982 169.32886 
L 639.056222 164.948124 
L 639.670081 155.002476 
L 640.07932 145.519022 
L 640.693179 123.788173 
L 641.511658 91.212359 
L 641.716278 87.99045 
L 641.920898 87.830332 
L 642.125517 90.088956 
L 642.739377 100.010286 
L 642.943996 100.994424 
L 643.148616 100.074245 
L 643.353236 97.021788 
L 643.762475 83.5664 
L 644.990194 25.75004 
L 645.194813 28.255514 
L 645.604053 47.221467 
L 646.422532 91.845782 
L 646.831771 103.121154 
L 647.036391 105.764429 
L 647.241011 106.469794 
L 647.44563 105.550028 
L 648.264109 98.116493 
L 648.468729 100.220835 
L 648.877968 111.572308 
L 649.901067 145.021693 
L 650.514926 157.201868 
L 651.128785 165.063035 
L 651.947264 172.062943 
L 652.356504 174.452546 
L 653.174983 177.565575 
L 653.788842 178.918236 
L 654.402701 179.60582 
L 655.4258 181.546947 
L 656.039659 181.450942 
L 656.653518 181.719555 
L 657.471997 182.613994 
L 657.881236 182.88956 
L 658.290476 183.135627 
L 659.108955 182.917256 
L 659.722814 183.184273 
L 660.132053 183.127765 
L 660.541293 182.965476 
L 660.950532 183.387646 
L 661.564392 184.074645 
L 662.38287 184.284248 
L 662.79211 184.327294 
L 663.405969 184.557462 
L 664.633687 185.998764 
L 665.042927 186.0703 
L 665.247547 185.952741 
L 665.861406 185.313687 
L 666.270645 185.297052 
L 666.679885 185.269899 
L 667.293744 185.718408 
L 667.702983 185.11983 
L 667.907603 184.872317 
L 668.112223 184.86611 
L 668.521462 185.568952 
L 668.726082 185.852735 
L 669.135321 185.729312 
L 670.15842 185.444128 
L 670.56766 185.598859 
L 671.181519 185.233361 
L 671.590758 185.597208 
L 671.999998 185.461043 
L 672.409237 185.368959 
L 672.818477 185.532543 
L 673.023096 185.308884 
L 673.636955 184.247986 
L 673.841575 184.187449 
L 674.660054 184.540413 
L 675.478533 185.024998 
L 676.501632 185.094925 
L 677.32011 185.785252 
L 677.72935 185.214326 
L 678.138589 184.717376 
L 678.343209 184.666322 
L 678.547829 184.759994 
L 678.957068 185.14941 
L 679.366308 185.080276 
L 679.775547 184.810099 
L 681.003266 183.355634 
L 681.617125 183.295281 
L 682.026364 183.129944 
L 682.435604 183.454694 
L 682.844843 183.746163 
L 683.049463 183.877914 
L 683.663322 184.894158 
L 683.867942 184.871899 
L 684.072561 184.611837 
L 684.481801 183.589764 
L 685.5049 180.742762 
L 685.709519 180.362887 
L 685.914139 180.23558 
L 686.323378 180.23841 
L 686.732618 179.772968 
L 687.755717 178.082099 
L 688.164956 176.943101 
L 688.778815 175.959933 
L 689.597294 175.295507 
L 690.211153 174.338362 
L 690.620393 174.029748 
L 691.029632 173.138691 
L 691.848111 170.998449 
L 693.280449 165.884389 
L 694.303548 161.382078 
L 696.349745 151.476662 
L 697.782083 144.475677 
L 699.009802 138.390085 
L 699.419041 136.891289 
L 700.0329 135.319004 
L 700.44214 133.395697 
L 701.055999 130.208121 
L 701.874478 126.850814 
L 702.488337 123.790782 
L 703.306816 120.321625 
L 704.125295 116.134016 
L 704.329914 115.742394 
L 704.534534 115.694989 
L 704.739154 115.977105 
L 705.966872 119.488359 
L 706.580731 121.705297 
L 707.194591 123.970046 
L 707.80845 125.86908 
L 708.626929 128.416835 
L 709.036168 129.156293 
L 709.650027 129.713058 
L 710.263887 130.604151 
L 710.468506 130.66847 
L 710.877746 130.296934 
L 712.105464 128.912161 
L 712.310084 128.960781 
L 712.514704 129.173961 
L 712.923943 130.206124 
L 713.947042 133.524237 
L 714.97014 138.156172 
L 715.583999 140.128104 
L 715.993239 140.763813 
L 717.220957 141.329636 
L 717.425577 141.210464 
L 717.834816 140.326055 
L 718.653295 137.972748 
L 720.699493 134.463573 
L 720.904112 134.35419 
L 721.108732 134.398311 
L 721.517971 134.750577 
L 721.927211 135.391993 
L 722.54107 136.95158 
L 722.95031 137.852007 
L 723.564169 138.445498 
L 723.768788 138.449634 
L 723.973408 138.217655 
L 724.382648 137.122251 
L 725.814986 131.742723 
L 727.861183 120.372777 
L 731.748958 95.887428 
L 732.567437 87.960862 
L 733.590535 75.527986 
L 735.227493 51.140346 
L 737.68293 13.321253 
L 738.296789 7.574389 
L 738.706029 5.343048 
L 738.910648 4.87633 
L 739.115268 4.92506 
L 739.319888 5.404576 
L 739.729127 7.161284 
L 740.138367 9.983031 
L 740.752226 17.040264 
L 741.570705 30.277096 
L 745.04924 96.952894 
L 746.686198 119.278918 
L 748.118536 134.772039 
L 748.937015 141.202617 
L 749.960114 147.887438 
L 752.006311 157.034267 
L 752.62017 158.820341 
L 753.847888 163.622801 
L 755.689466 168.283021 
L 757.121804 171.407093 
L 757.326424 171.557234 
L 757.531043 171.560234 
L 757.940283 171.096891 
L 758.349522 170.746798 
L 758.554142 170.906745 
L 759.168001 171.885158 
L 759.577241 172.139459 
L 759.98648 172.163052 
L 761.214198 171.578734 
L 761.418818 171.68991 
L 761.623438 172.037119 
L 762.646537 175.099024 
L 763.055776 175.243944 
L 763.465015 175.346931 
L 763.874255 175.583763 
L 764.488114 175.548155 
L 764.692734 175.893478 
L 765.101973 177.206095 
L 765.715832 179.087194 
L 766.125072 179.490441 
L 766.329692 179.445592 
L 767.148171 178.476269 
L 767.76203 177.70655 
L 767.966649 177.640481 
L 768.375889 177.88962 
L 768.785128 178.22144 
L 769.194368 178.227048 
L 769.603607 178.312462 
L 770.626706 178.979513 
L 771.445185 178.910293 
L 771.649805 179.021466 
L 773.900622 182.732004 
L 774.514481 182.951657 
L 775.12834 182.942474 
L 775.537579 183.248064 
L 776.151439 183.819039 
L 776.356058 183.803576 
L 776.765298 183.432548 
L 777.174537 183.13724 
L 777.583777 182.914572 
L 777.788396 182.641636 
L 778.197636 181.475142 
L 778.606875 180.262869 
L 778.811495 179.977503 
L 779.016115 179.891931 
L 779.220734 179.977318 
L 779.834594 180.874484 
L 780.653073 182.327444 
L 781.266932 183.293711 
L 781.676171 183.878003 
L 782.90389 184.660732 
L 783.108509 184.680385 
L 784.131608 185.412655 
L 784.540847 185.285019 
L 785.359326 184.635051 
L 786.587045 184.376133 
L 786.996284 183.734328 
L 787.200904 183.742619 
L 787.814763 184.337025 
L 788.224002 184.97637 
L 788.428622 185.07327 
L 789.042481 184.75861 
L 789.86096 185.209386 
L 790.06558 185.235018 
L 790.679439 184.909279 
L 791.088679 185.006675 
L 791.907158 185.607814 
L 792.111777 185.639924 
L 792.725636 185.335013 
L 793.748735 185.313302 
L 793.953355 185.506563 
L 794.567214 186.486673 
L 794.771834 186.485841 
L 795.181073 186.315187 
L 795.590313 186.49766 
L 795.794932 186.413788 
L 796.408791 185.776359 
L 796.613411 185.937614 
L 797.022651 186.543909 
L 797.84113 186.984049 
L 799.273468 186.32378 
L 800.091947 186.961431 
L 800.501186 186.621716 
L 800.910425 186.398998 
L 801.319665 186.354331 
L 801.728904 185.960589 
L 801.933524 186.094428 
L 802.752003 187.487127 
L 803.161242 187.382893 
L 803.570482 187.058744 
L 803.979721 187.2224 
L 804.388961 187.281101 
L 804.7982 187.156397 
L 805.412059 186.79058 
L 805.616679 186.803635 
L 806.435158 187.349205 
L 807.253637 187.394711 
L 807.458257 187.234469 
L 808.072116 186.377533 
L 808.685975 186.27241 
L 809.095215 186.400137 
L 810.118313 186.697887 
L 810.732172 186.834789 
L 811.141412 187.130593 
L 811.550651 186.960175 
L 812.16451 186.359632 
L 812.36913 186.080326 
L 812.57375 185.993959 
L 813.596849 186.728175 
L 814.006088 186.663706 
L 814.415327 186.803881 
L 814.619947 186.709898 
L 815.029187 186.131849 
L 815.233806 186.060863 
L 815.643046 186.271762 
L 816.052285 186.538314 
L 816.256905 186.554832 
L 816.461525 186.399205 
L 817.280004 185.022014 
L 817.484623 185.088639 
L 817.893863 185.575671 
L 818.916961 187.269852 
L 819.121581 187.235662 
L 819.73544 186.700764 
L 820.3493 186.436324 
L 820.758539 186.240369 
L 821.167778 185.824989 
L 822.395497 186.103364 
L 823.213976 186.77089 
L 823.418595 186.66206 
L 824.032455 185.842811 
L 824.441694 185.71917 
L 824.850934 185.834223 
L 825.260173 186.019477 
L 825.669412 185.770051 
L 825.874032 185.61913 
L 826.078652 185.648716 
L 826.897131 186.544876 
L 827.30637 186.515604 
L 828.329469 186.102639 
L 828.738708 185.922859 
L 828.943328 185.80847 
L 829.147948 185.822193 
L 830.580286 186.704869 
L 830.989525 186.500632 
L 831.398765 186.095499 
L 831.603384 186.044094 
L 833.649582 186.833938 
L 834.058821 187.246075 
L 834.263441 187.325093 
L 834.67268 187.137215 
L 835.28654 186.822948 
L 835.900399 186.140944 
L 836.309638 186.372648 
L 837.537357 187.141621 
L 839.788174 186.472183 
L 840.606652 185.768394 
L 841.015892 185.765417 
L 841.834371 186.230694 
L 842.44823 185.869039 
L 842.857469 186.200604 
L 843.266709 186.107066 
L 844.085188 185.58998 
L 844.289808 185.626835 
L 845.108286 186.325414 
L 845.722146 186.453752 
L 845.926765 186.333983 
L 846.745244 185.23146 
L 847.154484 185.362135 
L 847.768343 185.965641 
L 848.177582 186.227215 
L 848.996061 185.79737 
L 849.81454 185.319407 
L 850.428399 184.923242 
L 850.633019 184.921945 
L 850.837639 185.063477 
L 851.246878 185.574509 
L 851.451498 185.599254 
L 852.474597 184.95245 
L 852.883836 184.391282 
L 853.088456 184.385439 
L 854.316174 185.116282 
L 854.930033 185.850256 
L 855.543893 186.010619 
L 855.953132 185.795571 
L 856.566991 185.377252 
L 856.771611 185.333926 
L 857.79471 185.965299 
L 858.408569 185.841491 
L 858.817808 185.3309 
L 859.431667 184.505501 
L 859.840907 184.362603 
L 860.045527 184.426322 
L 860.659386 185.16862 
L 861.068625 185.647554 
L 861.477865 185.61747 
L 861.887104 185.647739 
L 862.500963 185.756621 
L 862.910203 185.398012 
L 863.524062 184.470859 
L 863.933301 184.528801 
L 864.547161 184.816267 
L 865.365639 184.702734 
L 865.570259 184.694851 
L 865.979499 184.523361 
L 866.388738 184.978445 
L 866.797978 185.362759 
L 867.207217 185.44682 
L 868.025696 185.053305 
L 868.639555 185.579985 
L 869.048795 185.835049 
L 870.071893 185.309043 
L 870.481133 185.272055 
L 871.504231 184.759346 
L 872.32271 185.003829 
L 872.936569 184.715453 
L 873.345809 184.688566 
L 873.959668 185.069791 
L 874.573527 185.346939 
L 875.187386 185.753426 
L 876.415105 185.992463 
L 877.233584 185.777666 
L 877.847443 185.362992 
L 878.665922 185.705779 
L 879.279781 185.971038 
L 879.68902 185.717729 
L 880.09826 185.299532 
L 880.916739 185.34483 
L 881.325978 185.125644 
L 882.144457 184.31474 
L 882.962936 183.71673 
L 883.576795 183.656695 
L 884.395274 182.870398 
L 884.599894 182.904328 
L 885.009133 183.328339 
L 885.213753 183.563715 
L 885.418373 183.590423 
L 885.827612 183.244065 
L 886.032232 183.242292 
L 886.850711 184.019213 
L 887.25995 183.916839 
L 888.078429 184.569236 
L 889.306147 183.769909 
L 890.329246 183.733068 
L 891.352345 184.421923 
L 891.761584 184.327827 
L 892.375443 183.816901 
L 892.784683 183.595923 
L 893.193922 183.663885 
L 893.603162 183.691504 
L 893.807781 183.780133 
L 894.012401 183.687257 
L 894.421641 182.844896 
L 894.83088 181.984789 
L 895.444739 181.280125 
L 895.853979 181.216108 
L 896.467838 181.707804 
L 896.672458 181.501372 
L 897.286317 180.362242 
L 897.695556 180.099047 
L 898.104796 179.584963 
L 898.309415 179.496771 
L 898.923275 179.619456 
L 900.764852 178.284859 
L 901.378711 178.365154 
L 901.787951 178.037294 
L 902.60643 176.718313 
L 903.424909 174.28622 
L 905.061866 172.232652 
L 906.698824 168.442779 
L 907.517303 165.822433 
L 908.131162 164.085326 
L 908.540402 163.314494 
L 909.154261 161.139146 
L 909.76812 158.337698 
L 910.791219 153.266119 
L 911.405078 150.47237 
L 913.655895 137.376106 
L 915.088233 126.860117 
L 915.702092 119.152776 
L 916.725191 102.703649 
L 917.952909 81.833686 
L 918.566768 74.595466 
L 919.180628 69.799763 
L 919.589867 68.189634 
L 919.794487 67.94136 
L 920.203726 67.862329 
L 920.408346 67.703878 
L 920.612966 67.388296 
L 920.817585 66.732461 
L 921.022205 65.415885 
L 921.226825 62.965832 
L 921.636064 52.20444 
L 922.045304 39.451258 
L 922.249923 41.101011 
L 922.454543 53.342214 
L 923.068402 111.907567 
L 923.477642 130.373582 
L 923.886881 136.382578 
L 924.091501 137.025667 
L 924.296121 136.927248 
L 925.1146 135.135829 
L 925.319219 135.082002 
L 925.728459 135.579839 
L 926.137698 136.842767 
L 927.160797 142.747875 
L 928.183896 148.61502 
L 930.843952 161.461257 
L 931.867051 164.203582 
L 933.913248 171.125559 
L 934.527107 172.316666 
L 934.936347 172.805597 
L 935.345586 173.734865 
L 935.959445 175.594488 
L 936.368685 176.052822 
L 936.982544 176.111835 
L 937.187164 176.313713 
L 937.596403 177.323855 
L 938.005642 178.411821 
L 938.414882 178.871953 
L 939.028741 178.702671 
L 939.437981 178.872707 
L 939.84722 178.70967 
L 940.256459 178.431728 
L 940.461079 178.686481 
L 940.870319 180.064869 
L 941.279558 181.100409 
L 941.484178 181.022373 
L 941.893417 180.576669 
L 942.302657 180.567644 
L 942.916516 180.997386 
L 943.325755 181.375022 
L 943.734995 181.486591 
L 944.553474 182.306155 
L 945.371953 181.793609 
L 945.781192 181.489098 
L 945.985812 181.551643 
L 947.00891 182.759588 
L 947.62277 183.006028 
L 948.032009 182.953652 
L 948.441248 183.029425 
L 949.464347 182.770967 
L 950.078206 182.08408 
L 950.692065 181.838976 
L 951.101305 181.808511 
L 952.124404 182.30874 
L 952.329023 182.078462 
L 952.942882 180.925331 
L 953.352122 180.783905 
L 953.761361 180.806261 
L 954.170601 180.638199 
L 954.78446 180.970543 
L 954.98908 180.78878 
L 955.398319 179.846701 
L 956.012178 178.014564 
L 956.216798 177.796844 
L 956.421418 177.797996 
L 956.830657 178.161603 
L 957.239897 178.623085 
L 957.444516 178.596178 
L 957.853756 178.025927 
L 958.262995 177.426333 
L 958.467615 177.411034 
L 958.876855 177.95711 
L 959.286094 178.487404 
L 960.104573 178.965078 
L 960.513812 179.236357 
L 960.923052 179.671536 
L 961.332291 180.258722 
L 961.536911 180.335758 
L 961.94615 179.924527 
L 962.35539 179.377352 
L 962.764629 178.941524 
L 963.173869 177.839134 
L 963.787728 176.045982 
L 964.401587 174.960631 
L 965.629306 172.79643 
L 966.447784 170.492804 
L 966.857024 169.658779 
L 967.061644 169.696692 
L 967.470883 170.586101 
L 967.880123 172.025282 
L 969.107841 177.352706 
L 969.51708 178.112408 
L 969.7217 178.178045 
L 970.13094 178.09836 
L 970.335559 178.172916 
L 970.744799 178.759264 
L 971.767897 180.365567 
L 971.972517 180.184891 
L 973.200235 177.111281 
L 973.814095 176.866267 
L 974.223334 176.291676 
L 974.632574 175.701614 
L 975.655672 174.70381 
L 976.474151 173.653083 
L 977.29263 171.787894 
L 977.49725 171.706534 
L 977.701869 171.861416 
L 977.906489 172.249468 
L 978.724968 174.652885 
L 978.929588 174.882201 
L 979.338827 174.845828 
L 979.952686 174.751158 
L 980.361926 174.253432 
L 980.975785 174.087301 
L 981.385025 174.135131 
L 982.203503 174.517952 
L 982.408123 174.474567 
L 982.612743 174.282149 
L 983.021982 173.558987 
L 983.431222 173.253339 
L 983.840461 172.172918 
L 984.249701 171.091343 
L 985.06818 170.2408 
L 986.091278 167.504777 
L 986.500518 167.081934 
L 987.114377 166.662489 
L 987.523616 165.846552 
L 988.342095 163.833434 
L 989.160574 162.378483 
L 989.569814 161.474887 
L 992.843729 150.151626 
L 994.480687 142.904597 
L 999.39156 116.58663 
L 1000.00542 114.178633 
L 1001.846997 104.975284 
L 1002.665476 99.205524 
L 1003.279335 92.970237 
L 1004.302434 80.009728 
L 1006.553251 49.503134 
L 1007.780969 36.071068 
L 1008.190209 29.896901 
L 1008.599448 20.554472 
L 1009.269444 -1 
M 1009.886417 -1 
L 1010.236406 18.855946 
L 1011.054885 72.114042 
L 1011.464124 86.140264 
L 1011.873364 93.999808 
L 1012.282603 97.632525 
L 1012.691843 99.046701 
L 1014.124181 101.15212 
L 1014.328801 101.420378 
L 1014.53342 101.909962 
L 1014.94266 103.856422 
L 1015.556519 106.722286 
L 1015.965758 107.659493 
L 1016.170378 107.741248 
L 1016.374998 107.39643 
L 1016.579618 106.473802 
L 1016.784237 104.809798 
L 1017.193477 98.406084 
L 1017.602716 87.125135 
L 1018.216575 67.171189 
L 1018.421195 63.607246 
L 1018.625815 63.069182 
L 1018.830435 65.005392 
L 1020.467392 90.029532 
L 1023.332069 120.801859 
L 1024.559787 130.32303 
L 1025.378266 135.748403 
L 1026.196745 140.211013 
L 1028.447562 153.027269 
L 1029.061421 154.893975 
L 1029.67528 157.03154 
L 1030.289139 159.028114 
L 1031.721477 161.620275 
L 1032.130717 163.212394 
L 1034.381534 173.513131 
L 1035.404632 176.205297 
L 1036.018492 177.192344 
L 1037.04159 179.079838 
L 1037.45083 179.339953 
L 1038.064689 180.248447 
L 1038.678548 181.474727 
L 1039.087787 181.738133 
L 1039.292407 181.706819 
L 1039.497027 181.557903 
L 1039.906266 180.764053 
L 1040.315506 179.10197 
L 1040.929365 176.227607 
L 1041.133985 175.824728 
L 1041.338604 175.989704 
L 1041.747844 177.187389 
L 1042.566323 179.760917 
L 1042.975562 180.726005 
L 1043.384802 181.470084 
L 1044.61252 185.095885 
L 1045.226379 185.766163 
L 1045.635619 186.443456 
L 1046.249478 187.818682 
L 1046.658717 187.807618 
L 1047.477196 187.596507 
L 1048.091055 187.717756 
L 1048.295675 187.696878 
L 1048.500295 187.542406 
L 1049.114154 186.749908 
L 1049.523394 186.477856 
L 1049.932633 186.209344 
L 1050.546492 186.490596 
L 1050.955732 186.22247 
L 1051.364971 185.657072 
L 1051.569591 185.624854 
L 1053.206549 186.686859 
L 1053.615788 187.25865 
L 1054.434267 188.986261 
L 1054.843506 189.345911 
L 1055.252746 189.368327 
L 1055.661985 189.125191 
L 1056.275845 188.581438 
L 1056.685084 188.726442 
L 1057.298943 189.154683 
L 1057.708183 189.037503 
L 1058.117422 188.686722 
L 1058.731281 188.110453 
L 1059.140521 188.045556 
L 1059.75438 188.341386 
L 1060.572859 189.153008 
L 1060.982098 188.964471 
L 1062.414436 188.09505 
L 1062.823676 188.231677 
L 1063.232915 188.340272 
L 1064.256014 187.926709 
L 1064.460634 188.02328 
L 1065.892972 189.590785 
L 1066.097591 189.55437 
L 1066.91607 188.788457 
L 1067.32531 188.653903 
L 1067.734549 188.135095 
L 1068.348408 188.012323 
L 1068.757648 188.027513 
L 1069.166887 188.294906 
L 1069.780746 188.060427 
L 1070.189986 187.786155 
L 1070.599225 187.452312 
L 1071.213085 187.479293 
L 1072.031563 188.152712 
L 1073.463902 188.086416 
L 1074.077761 187.605816 
L 1074.69162 187.586833 
L 1074.89624 187.667389 
L 1075.714719 188.468792 
L 1076.328578 188.783638 
L 1076.942437 189.197042 
L 1077.351676 189.120243 
L 1077.965536 188.566332 
L 1078.170155 188.575534 
L 1078.579395 188.984226 
L 1078.988634 189.307583 
L 1079.397874 188.997296 
L 1080.011733 188.568369 
L 1080.420972 188.485322 
L 1080.625592 188.451701 
L 1081.444071 187.754296 
L 1081.85331 187.948679 
L 1082.05793 188.034684 
L 1082.46717 187.955769 
L 1083.081029 188.389366 
L 1083.490268 188.237398 
L 1084.104127 188.537979 
L 1084.717987 189.15763 
L 1085.127226 189.645612 
L 1085.331846 189.756696 
L 1085.741085 189.570542 
L 1086.150325 189.355941 
L 1086.559564 189.185645 
L 1086.968804 189.046958 
L 1088.196522 189.199856 
L 1089.015001 188.631865 
L 1089.219621 188.891975 
L 1089.62886 189.82259 
L 1089.83348 190.001719 
L 1090.038099 189.844758 
L 1090.651959 188.547072 
L 1090.856578 188.513765 
L 1091.879677 189.182805 
L 1092.288916 189.07232 
L 1092.902776 188.873409 
L 1093.516635 189.207605 
L 1094.335114 189.318561 
L 1094.744353 189.484778 
L 1095.153593 189.390153 
L 1095.562832 189.537719 
L 1096.99517 188.737499 
L 1097.19979 188.798196 
L 1097.609029 189.476902 
L 1098.018269 190.091297 
L 1098.427508 190.194569 
L 1100.064466 190.376483 
L 1100.269086 190.220302 
L 1100.882945 189.234621 
L 1101.087565 189.20894 
L 1101.701424 189.785772 
L 1102.315283 189.569067 
L 1103.133762 189.87801 
L 1103.543001 189.584621 
L 1104.156861 188.9893 
L 1104.36148 188.953959 
L 1104.975339 189.34574 
L 1105.589199 189.91162 
L 1105.998438 190.073871 
L 1106.407678 189.800357 
L 1107.021537 189.157071 
L 1107.430776 189.073902 
L 1108.249255 188.272434 
L 1108.453875 188.300742 
L 1108.863114 188.506271 
L 1109.272354 188.549874 
L 1109.681593 188.941716 
L 1110.090833 189.338383 
L 1110.704692 189.771286 
L 1111.523171 190.104702 
L 1111.93241 190.117861 
L 1112.34165 190.383127 
L 1112.546269 190.31688 
L 1113.364748 189.503374 
L 1113.569368 189.571694 
L 1114.183227 190.332928 
L 1114.387847 190.190825 
L 1115.001706 189.068608 
L 1115.820185 188.293275 
L 1116.229424 188.52549 
L 1116.638664 189.125625 
L 1117.047903 189.801885 
L 1117.457143 189.951568 
L 1117.866382 189.709841 
L 1118.889481 189.15448 
L 1119.094101 189.196225 
L 1119.50334 189.789799 
L 1119.91258 190.316569 
L 1120.731058 190.756305 
L 1121.140298 190.766527 
L 1121.344918 190.611727 
L 1122.163397 189.427538 
L 1122.981875 189.205817 
L 1123.391115 189.221457 
L 1123.800354 189.042178 
L 1124.414214 188.474016 
L 1125.028073 187.656047 
L 1125.437312 187.539747 
L 1126.051171 187.649669 
L 1126.665031 187.174072 
L 1127.483509 187.282912 
L 1127.892749 187.134248 
L 1128.097369 187.188432 
L 1128.301988 187.401438 
L 1129.325087 189.15697 
L 1129.734326 189.186759 
L 1130.143566 189.131554 
L 1131.575904 189.647658 
L 1131.985143 189.928521 
L 1132.189763 189.781 
L 1133.008242 188.448898 
L 1133.417482 188.129045 
L 1133.622101 187.93664 
L 1133.826721 187.930614 
L 1134.031341 188.104315 
L 1134.44058 188.927343 
L 1135.259059 190.743691 
L 1135.463679 190.918882 
L 1135.872918 190.647787 
L 1136.896017 189.361692 
L 1137.305256 188.91189 
L 1137.509876 188.925003 
L 1137.919116 189.251628 
L 1138.328355 189.50838 
L 1138.737594 189.059409 
L 1138.942214 189.08265 
L 1139.351454 189.656591 
L 1139.556073 189.718349 
L 1140.169932 189.486074 
L 1140.579172 189.074421 
L 1140.783792 189.032285 
L 1141.397651 189.476852 
L 1142.21613 188.869949 
L 1142.420749 188.873292 
L 1143.034609 189.121664 
L 1143.443848 188.658241 
L 1143.853088 188.317775 
L 1144.057707 188.360635 
L 1145.285426 189.351437 
L 1145.694665 189.870809 
L 1145.899285 189.830685 
L 1146.922383 188.883073 
L 1147.331623 188.935182 
L 1147.740862 189.232233 
L 1148.354722 190.14799 
L 1149.37782 190.433917 
L 1149.58244 190.375806 
L 1149.991679 189.845865 
L 1150.400919 189.308635 
L 1151.833257 189.148187 
L 1152.856356 189.446174 
L 1153.674834 190.180928 
L 1154.493313 190.461693 
L 1155.311792 191.192468 
L 1155.721032 191.389785 
L 1155.925651 191.318553 
L 1157.15337 189.972391 
L 1157.767229 189.407494 
L 1158.585708 189.880623 
L 1159.199567 189.657195 
L 1160.836525 188.239414 
L 1161.041145 188.395171 
L 1161.655004 189.294844 
L 1161.859624 189.273577 
L 1162.473483 188.93352 
L 1162.882722 188.929166 
L 1163.701201 189.324263 
L 1164.110441 189.044527 
L 1164.31506 188.857183 
L 1164.51968 188.830639 
L 1164.928919 188.94979 
L 1165.133539 188.923551 
L 1165.542779 189.311009 
L 1166.770497 190.818951 
L 1167.179736 191.243497 
L 1167.384356 191.29804 
L 1167.793596 190.956918 
L 1168.202835 190.66837 
L 1169.021314 190.461673 
L 1169.839793 189.575492 
L 1170.044413 189.521925 
L 1171.272131 189.845297 
L 1171.88599 189.32534 
L 1172.29523 189.36194 
L 1173.318328 189.786721 
L 1173.727568 190.043464 
L 1174.136807 190.709712 
L 1174.341427 191.065189 
L 1174.546047 191.177989 
L 1174.750666 191.012872 
L 1175.569145 189.530481 
L 1175.773765 189.47966 
L 1176.387624 189.700696 
L 1176.796864 189.592557 
L 1177.206103 189.775687 
L 1178.024582 190.501886 
L 1178.229202 190.42686 
L 1179.45692 189.209068 
L 1180.480019 188.31971 
L 1180.684638 188.207332 
L 1181.093878 188.346186 
L 1181.912357 188.726545 
L 1182.526216 189.18287 
L 1183.344695 189.335738 
L 1183.753934 189.454042 
L 1184.163174 189.578154 
L 1184.572413 190.167141 
L 1184.777033 190.488666 
L 1184.777033 190.488666 
" clip-path="url(#p42847c0d02)" style="fill: none; stroke: #000000; stroke-width: 2; stroke-linecap: square"/>
   </g>
   <g id="patch_3">
    <path d="M 3.00024 198.907885 
L 1184.99976 198.907885 
" style="fill: none; stroke: #000000; stroke-width: 2; stroke-linejoin: miter; stroke-linecap: square"/>
   </g>
  </g>
 </g>
 <defs>
  <clipPath id="p42847c0d02">
   <rect x="3.00024" y="3.00024" width="1181.99952" height="195.907645"/>
  </clipPath>
 </defs>
</svg>
