<?xml version="1.0" encoding="utf-8" standalone="no"?>
<!DOCTYPE svg PUBLIC "-//W3C//DTD SVG 1.1//EN"
  "http://www.w3.org/Graphics/SVG/1.1/DTD/svg11.dtd">
<svg xmlns:xlink="http://www.w3.org/1999/xlink" width="1188pt" height="252pt" viewBox="0 0 1188 252" xmlns="http://www.w3.org/2000/svg" version="1.1">
 <metadata>
  <rdf:RDF xmlns:dc="http://purl.org/dc/elements/1.1/" xmlns:cc="http://creativecommons.org/ns#" xmlns:rdf="http://www.w3.org/1999/02/22-rdf-syntax-ns#">
   <cc:Work>
    <dc:type rdf:resource="http://purl.org/dc/dcmitype/StillImage"/>
    <dc:date>2024-05-14T23:08:04.293346</dc:date>
    <dc:format>image/svg+xml</dc:format>
    <dc:creator>
     <cc:Agent>
      <dc:title>Matplotlib v3.8.0, https://matplotlib.org/</dc:title>
     </cc:Agent>
    </dc:creator>
   </cc:Work>
  </rdf:RDF>
 </metadata>
 <defs>
  <style type="text/css">*{stroke-linejoin: round; stroke-linecap: butt}</style>
 </defs>
 <g id="figure_1">
  <g id="patch_1">
   <path d="M 0 252 
L 1188 252 
L 1188 0 
L 0 0 
z
" style="fill: #ffffff"/>
  </g>
  <g id="axes_1">
   <g id="patch_2">
    <path d="M 3.00024 198.907885 
L 1184.99976 198.907885 
L 1184.99976 3.00024 
L 3.00024 3.00024 
z
" style="fill: #ffffff"/>
   </g>
   <g id="matplotlib.axis_1">
    <g id="xtick_1">
     <g id="line2d_1">
      <defs>
       <path id="m0857a750ef" d="M 0 0 
L 0 8 
" style="stroke: #000000; stroke-width: 2"/>
      </defs>
      <g>
       <use xlink:href="#m0857a750ef" x="1131.272509" y="198.907885" style="stroke: #000000; stroke-width: 2"/>
      </g>
     </g>
     <g id="text_1">
      <!-- 0 -->
      <g transform="translate(1126.267665 224.791947) scale(0.18 -0.18)">
       <defs>
        <path id="Arial-BoldMT-30" d="M 1756 4600 
Q 2422 4600 2797 4125 
Q 3244 3563 3244 2259 
Q 3244 959 2794 391 
Q 2422 -78 1756 -78 
Q 1088 -78 678 436 
Q 269 950 269 2269 
Q 269 3563 719 4131 
Q 1091 4600 1756 4600 
z
M 1756 3872 
Q 1597 3872 1472 3770 
Q 1347 3669 1278 3406 
Q 1188 3066 1188 2259 
Q 1188 1453 1269 1151 
Q 1350 850 1473 750 
Q 1597 650 1756 650 
Q 1916 650 2041 751 
Q 2166 853 2234 1116 
Q 2325 1453 2325 2259 
Q 2325 3066 2244 3367 
Q 2163 3669 2039 3770 
Q 1916 3872 1756 3872 
z
" transform="scale(0.015625)"/>
       </defs>
       <use xlink:href="#Arial-BoldMT-30"/>
      </g>
     </g>
    </g>
    <g id="xtick_2">
     <g id="line2d_2">
      <g>
       <use xlink:href="#m0857a750ef" x="1023.818007" y="198.907885" style="stroke: #000000; stroke-width: 2"/>
      </g>
     </g>
     <g id="text_2">
      <!-- 1 -->
      <g transform="translate(1018.813164 224.791947) scale(0.18 -0.18)">
       <defs>
        <path id="Arial-BoldMT-31" d="M 2519 0 
L 1641 0 
L 1641 3309 
Q 1159 2859 506 2644 
L 506 3441 
Q 850 3553 1253 3867 
Q 1656 4181 1806 4600 
L 2519 4600 
L 2519 0 
z
" transform="scale(0.015625)"/>
       </defs>
       <use xlink:href="#Arial-BoldMT-31"/>
      </g>
     </g>
    </g>
    <g id="xtick_3">
     <g id="line2d_3">
      <g>
       <use xlink:href="#m0857a750ef" x="916.363505" y="198.907885" style="stroke: #000000; stroke-width: 2"/>
      </g>
     </g>
     <g id="text_3">
      <!-- 2 -->
      <g transform="translate(911.358662 224.791947) scale(0.18 -0.18)">
       <defs>
        <path id="Arial-BoldMT-32" d="M 3238 816 
L 3238 0 
L 159 0 
Q 209 463 459 877 
Q 709 1291 1447 1975 
Q 2041 2528 2175 2725 
Q 2356 2997 2356 3263 
Q 2356 3556 2198 3714 
Q 2041 3872 1763 3872 
Q 1488 3872 1325 3706 
Q 1163 3541 1138 3156 
L 263 3244 
Q 341 3969 753 4284 
Q 1166 4600 1784 4600 
Q 2463 4600 2850 4234 
Q 3238 3869 3238 3325 
Q 3238 3016 3127 2736 
Q 3016 2456 2775 2150 
Q 2616 1947 2200 1565 
Q 1784 1184 1673 1059 
Q 1563 934 1494 816 
L 3238 816 
z
" transform="scale(0.015625)"/>
       </defs>
       <use xlink:href="#Arial-BoldMT-32"/>
      </g>
     </g>
    </g>
    <g id="xtick_4">
     <g id="line2d_4">
      <g>
       <use xlink:href="#m0857a750ef" x="808.909004" y="198.907885" style="stroke: #000000; stroke-width: 2"/>
      </g>
     </g>
     <g id="text_4">
      <!-- 3 -->
      <g transform="translate(803.90416 224.791947) scale(0.18 -0.18)">
       <defs>
        <path id="Arial-BoldMT-33" d="M 241 1216 
L 1091 1319 
Q 1131 994 1309 822 
Q 1488 650 1741 650 
Q 2013 650 2198 856 
Q 2384 1063 2384 1413 
Q 2384 1744 2206 1937 
Q 2028 2131 1772 2131 
Q 1603 2131 1369 2066 
L 1466 2781 
Q 1822 2772 2009 2936 
Q 2197 3100 2197 3372 
Q 2197 3603 2059 3740 
Q 1922 3878 1694 3878 
Q 1469 3878 1309 3722 
Q 1150 3566 1116 3266 
L 306 3403 
Q 391 3819 561 4067 
Q 731 4316 1036 4458 
Q 1341 4600 1719 4600 
Q 2366 4600 2756 4188 
Q 3078 3850 3078 3425 
Q 3078 2822 2419 2463 
Q 2813 2378 3048 2084 
Q 3284 1791 3284 1375 
Q 3284 772 2843 347 
Q 2403 -78 1747 -78 
Q 1125 -78 715 280 
Q 306 638 241 1216 
z
" transform="scale(0.015625)"/>
       </defs>
       <use xlink:href="#Arial-BoldMT-33"/>
      </g>
     </g>
    </g>
    <g id="xtick_5">
     <g id="line2d_5">
      <g>
       <use xlink:href="#m0857a750ef" x="701.454502" y="198.907885" style="stroke: #000000; stroke-width: 2"/>
      </g>
     </g>
     <g id="text_5">
      <!-- 4 -->
      <g transform="translate(696.449658 224.791947) scale(0.18 -0.18)">
       <defs>
        <path id="Arial-BoldMT-34" d="M 1994 0 
L 1994 922 
L 119 922 
L 119 1691 
L 2106 4600 
L 2844 4600 
L 2844 1694 
L 3413 1694 
L 3413 922 
L 2844 922 
L 2844 0 
L 1994 0 
z
M 1994 1694 
L 1994 3259 
L 941 1694 
L 1994 1694 
z
" transform="scale(0.015625)"/>
       </defs>
       <use xlink:href="#Arial-BoldMT-34"/>
      </g>
     </g>
    </g>
    <g id="xtick_6">
     <g id="line2d_6">
      <g>
       <use xlink:href="#m0857a750ef" x="594" y="198.907885" style="stroke: #000000; stroke-width: 2"/>
      </g>
     </g>
     <g id="text_6">
      <!-- 5 -->
      <g transform="translate(588.995156 224.791947) scale(0.18 -0.18)">
       <defs>
        <path id="Arial-BoldMT-35" d="M 284 1178 
L 1159 1269 
Q 1197 972 1381 798 
Q 1566 625 1806 625 
Q 2081 625 2272 848 
Q 2463 1072 2463 1522 
Q 2463 1944 2273 2155 
Q 2084 2366 1781 2366 
Q 1403 2366 1103 2031 
L 391 2134 
L 841 4519 
L 3163 4519 
L 3163 3697 
L 1506 3697 
L 1369 2919 
Q 1663 3066 1969 3066 
Q 2553 3066 2959 2641 
Q 3366 2216 3366 1538 
Q 3366 972 3038 528 
Q 2591 -78 1797 -78 
Q 1163 -78 763 262 
Q 363 603 284 1178 
z
" transform="scale(0.015625)"/>
       </defs>
       <use xlink:href="#Arial-BoldMT-35"/>
      </g>
     </g>
    </g>
    <g id="xtick_7">
     <g id="line2d_7">
      <g>
       <use xlink:href="#m0857a750ef" x="486.545498" y="198.907885" style="stroke: #000000; stroke-width: 2"/>
      </g>
     </g>
     <g id="text_7">
      <!-- 6 -->
      <g transform="translate(481.540654 224.791947) scale(0.18 -0.18)">
       <defs>
        <path id="Arial-BoldMT-36" d="M 3247 3459 
L 2397 3366 
Q 2366 3628 2234 3753 
Q 2103 3878 1894 3878 
Q 1616 3878 1423 3628 
Q 1231 3378 1181 2588 
Q 1509 2975 1997 2975 
Q 2547 2975 2939 2556 
Q 3331 2138 3331 1475 
Q 3331 772 2918 347 
Q 2506 -78 1859 -78 
Q 1166 -78 719 461 
Q 272 1000 272 2228 
Q 272 3488 737 4044 
Q 1203 4600 1947 4600 
Q 2469 4600 2811 4308 
Q 3153 4016 3247 3459 
z
M 1256 1544 
Q 1256 1116 1453 883 
Q 1650 650 1903 650 
Q 2147 650 2309 840 
Q 2472 1031 2472 1466 
Q 2472 1913 2297 2120 
Q 2122 2328 1859 2328 
Q 1606 2328 1431 2129 
Q 1256 1931 1256 1544 
z
" transform="scale(0.015625)"/>
       </defs>
       <use xlink:href="#Arial-BoldMT-36"/>
      </g>
     </g>
    </g>
    <g id="xtick_8">
     <g id="line2d_8">
      <g>
       <use xlink:href="#m0857a750ef" x="379.090996" y="198.907885" style="stroke: #000000; stroke-width: 2"/>
      </g>
     </g>
     <g id="text_8">
      <!-- 7 -->
      <g transform="translate(374.086153 224.791947) scale(0.18 -0.18)">
       <defs>
        <path id="Arial-BoldMT-37" d="M 272 3703 
L 272 4519 
L 3275 4519 
L 3275 3881 
Q 2903 3516 2518 2831 
Q 2134 2147 1932 1376 
Q 1731 606 1734 0 
L 888 0 
Q 909 950 1279 1937 
Q 1650 2925 2269 3703 
L 272 3703 
z
" transform="scale(0.015625)"/>
       </defs>
       <use xlink:href="#Arial-BoldMT-37"/>
      </g>
     </g>
    </g>
    <g id="xtick_9">
     <g id="line2d_9">
      <g>
       <use xlink:href="#m0857a750ef" x="271.636495" y="198.907885" style="stroke: #000000; stroke-width: 2"/>
      </g>
     </g>
     <g id="text_9">
      <!-- 8 -->
      <g transform="translate(266.631651 224.791947) scale(0.18 -0.18)">
       <defs>
        <path id="Arial-BoldMT-38" d="M 1025 2472 
Q 684 2616 529 2867 
Q 375 3119 375 3419 
Q 375 3931 733 4265 
Q 1091 4600 1750 4600 
Q 2403 4600 2764 4265 
Q 3125 3931 3125 3419 
Q 3125 3100 2959 2851 
Q 2794 2603 2494 2472 
Q 2875 2319 3073 2025 
Q 3272 1731 3272 1347 
Q 3272 713 2867 316 
Q 2463 -81 1791 -81 
Q 1166 -81 750 247 
Q 259 634 259 1309 
Q 259 1681 443 1992 
Q 628 2303 1025 2472 
z
M 1206 3356 
Q 1206 3094 1354 2947 
Q 1503 2800 1750 2800 
Q 2000 2800 2150 2948 
Q 2300 3097 2300 3359 
Q 2300 3606 2151 3754 
Q 2003 3903 1759 3903 
Q 1506 3903 1356 3753 
Q 1206 3603 1206 3356 
z
M 1125 1394 
Q 1125 1031 1311 828 
Q 1497 625 1775 625 
Q 2047 625 2225 820 
Q 2403 1016 2403 1384 
Q 2403 1706 2222 1901 
Q 2041 2097 1763 2097 
Q 1441 2097 1283 1875 
Q 1125 1653 1125 1394 
z
" transform="scale(0.015625)"/>
       </defs>
       <use xlink:href="#Arial-BoldMT-38"/>
      </g>
     </g>
    </g>
    <g id="xtick_10">
     <g id="line2d_10">
      <g>
       <use xlink:href="#m0857a750ef" x="164.181993" y="198.907885" style="stroke: #000000; stroke-width: 2"/>
      </g>
     </g>
     <g id="text_10">
      <!-- 9 -->
      <g transform="translate(159.177149 224.791947) scale(0.18 -0.18)">
       <defs>
        <path id="Arial-BoldMT-39" d="M 291 1059 
L 1141 1153 
Q 1172 894 1303 769 
Q 1434 644 1650 644 
Q 1922 644 2112 894 
Q 2303 1144 2356 1931 
Q 2025 1547 1528 1547 
Q 988 1547 595 1964 
Q 203 2381 203 3050 
Q 203 3747 617 4173 
Q 1031 4600 1672 4600 
Q 2369 4600 2816 4061 
Q 3263 3522 3263 2288 
Q 3263 1031 2797 475 
Q 2331 -81 1584 -81 
Q 1047 -81 715 205 
Q 384 491 291 1059 
z
M 2278 2978 
Q 2278 3403 2083 3637 
Q 1888 3872 1631 3872 
Q 1388 3872 1227 3680 
Q 1066 3488 1066 3050 
Q 1066 2606 1241 2398 
Q 1416 2191 1678 2191 
Q 1931 2191 2104 2391 
Q 2278 2591 2278 2978 
z
" transform="scale(0.015625)"/>
       </defs>
       <use xlink:href="#Arial-BoldMT-39"/>
      </g>
     </g>
    </g>
    <g id="xtick_11">
     <g id="line2d_11">
      <g>
       <use xlink:href="#m0857a750ef" x="56.727491" y="198.907885" style="stroke: #000000; stroke-width: 2"/>
      </g>
     </g>
     <g id="text_11">
      <!-- 10 -->
      <g transform="translate(46.717803 224.791947) scale(0.18 -0.18)">
       <use xlink:href="#Arial-BoldMT-31"/>
       <use xlink:href="#Arial-BoldMT-30" x="55.615234"/>
      </g>
     </g>
    </g>
    <g id="text_12">
     <!-- Chemical Shift / ppm -->
     <g transform="translate(504.992813 245.447573) scale(0.18 -0.18)">
      <defs>
       <path id="Arial-BoldMT-43" d="M 3397 1684 
L 4294 1400 
Q 4088 650 3608 286 
Q 3128 -78 2391 -78 
Q 1478 -78 890 545 
Q 303 1169 303 2250 
Q 303 3394 893 4026 
Q 1484 4659 2447 4659 
Q 3288 4659 3813 4163 
Q 4125 3869 4281 3319 
L 3366 3100 
Q 3284 3456 3026 3662 
Q 2769 3869 2400 3869 
Q 1891 3869 1573 3503 
Q 1256 3138 1256 2319 
Q 1256 1450 1568 1081 
Q 1881 713 2381 713 
Q 2750 713 3015 947 
Q 3281 1181 3397 1684 
z
" transform="scale(0.015625)"/>
       <path id="Arial-BoldMT-68" d="M 1334 4581 
L 1334 2897 
Q 1759 3394 2350 3394 
Q 2653 3394 2897 3281 
Q 3141 3169 3264 2994 
Q 3388 2819 3433 2606 
Q 3478 2394 3478 1947 
L 3478 0 
L 2600 0 
L 2600 1753 
Q 2600 2275 2550 2415 
Q 2500 2556 2373 2639 
Q 2247 2722 2056 2722 
Q 1838 2722 1666 2615 
Q 1494 2509 1414 2295 
Q 1334 2081 1334 1663 
L 1334 0 
L 456 0 
L 456 4581 
L 1334 4581 
z
" transform="scale(0.015625)"/>
       <path id="Arial-BoldMT-65" d="M 2381 1056 
L 3256 909 
Q 3088 428 2723 176 
Q 2359 -75 1813 -75 
Q 947 -75 531 491 
Q 203 944 203 1634 
Q 203 2459 634 2926 
Q 1066 3394 1725 3394 
Q 2466 3394 2894 2905 
Q 3322 2416 3303 1406 
L 1103 1406 
Q 1113 1016 1316 798 
Q 1519 581 1822 581 
Q 2028 581 2168 693 
Q 2309 806 2381 1056 
z
M 2431 1944 
Q 2422 2325 2234 2523 
Q 2047 2722 1778 2722 
Q 1491 2722 1303 2513 
Q 1116 2303 1119 1944 
L 2431 1944 
z
" transform="scale(0.015625)"/>
       <path id="Arial-BoldMT-6d" d="M 394 3319 
L 1203 3319 
L 1203 2866 
Q 1638 3394 2238 3394 
Q 2556 3394 2790 3262 
Q 3025 3131 3175 2866 
Q 3394 3131 3647 3262 
Q 3900 3394 4188 3394 
Q 4553 3394 4806 3245 
Q 5059 3097 5184 2809 
Q 5275 2597 5275 2122 
L 5275 0 
L 4397 0 
L 4397 1897 
Q 4397 2391 4306 2534 
Q 4184 2722 3931 2722 
Q 3747 2722 3584 2609 
Q 3422 2497 3350 2280 
Q 3278 2063 3278 1594 
L 3278 0 
L 2400 0 
L 2400 1819 
Q 2400 2303 2353 2443 
Q 2306 2584 2207 2653 
Q 2109 2722 1941 2722 
Q 1738 2722 1575 2612 
Q 1413 2503 1342 2297 
Q 1272 2091 1272 1613 
L 1272 0 
L 394 0 
L 394 3319 
z
" transform="scale(0.015625)"/>
       <path id="Arial-BoldMT-69" d="M 459 3769 
L 459 4581 
L 1338 4581 
L 1338 3769 
L 459 3769 
z
M 459 0 
L 459 3319 
L 1338 3319 
L 1338 0 
L 459 0 
z
" transform="scale(0.015625)"/>
       <path id="Arial-BoldMT-63" d="M 3353 2338 
L 2488 2181 
Q 2444 2441 2289 2572 
Q 2134 2703 1888 2703 
Q 1559 2703 1364 2476 
Q 1169 2250 1169 1719 
Q 1169 1128 1367 884 
Q 1566 641 1900 641 
Q 2150 641 2309 783 
Q 2469 925 2534 1272 
L 3397 1125 
Q 3263 531 2881 228 
Q 2500 -75 1859 -75 
Q 1131 -75 698 384 
Q 266 844 266 1656 
Q 266 2478 700 2936 
Q 1134 3394 1875 3394 
Q 2481 3394 2839 3133 
Q 3197 2872 3353 2338 
z
" transform="scale(0.015625)"/>
       <path id="Arial-BoldMT-61" d="M 1116 2306 
L 319 2450 
Q 453 2931 781 3162 
Q 1109 3394 1756 3394 
Q 2344 3394 2631 3255 
Q 2919 3116 3036 2902 
Q 3153 2688 3153 2116 
L 3144 1091 
Q 3144 653 3186 445 
Q 3228 238 3344 0 
L 2475 0 
Q 2441 88 2391 259 
Q 2369 338 2359 363 
Q 2134 144 1878 34 
Q 1622 -75 1331 -75 
Q 819 -75 523 203 
Q 228 481 228 906 
Q 228 1188 362 1408 
Q 497 1628 739 1745 
Q 981 1863 1438 1950 
Q 2053 2066 2291 2166 
L 2291 2253 
Q 2291 2506 2166 2614 
Q 2041 2722 1694 2722 
Q 1459 2722 1328 2630 
Q 1197 2538 1116 2306 
z
M 2291 1594 
Q 2122 1538 1756 1459 
Q 1391 1381 1278 1306 
Q 1106 1184 1106 997 
Q 1106 813 1243 678 
Q 1381 544 1594 544 
Q 1831 544 2047 700 
Q 2206 819 2256 991 
Q 2291 1103 2291 1419 
L 2291 1594 
z
" transform="scale(0.015625)"/>
       <path id="Arial-BoldMT-6c" d="M 459 0 
L 459 4581 
L 1338 4581 
L 1338 0 
L 459 0 
z
" transform="scale(0.015625)"/>
       <path id="Arial-BoldMT-20" transform="scale(0.015625)"/>
       <path id="Arial-BoldMT-53" d="M 231 1491 
L 1131 1578 
Q 1213 1125 1461 912 
Q 1709 700 2131 700 
Q 2578 700 2804 889 
Q 3031 1078 3031 1331 
Q 3031 1494 2936 1608 
Q 2841 1722 2603 1806 
Q 2441 1863 1863 2006 
Q 1119 2191 819 2459 
Q 397 2838 397 3381 
Q 397 3731 595 4036 
Q 794 4341 1167 4500 
Q 1541 4659 2069 4659 
Q 2931 4659 3367 4281 
Q 3803 3903 3825 3272 
L 2900 3231 
Q 2841 3584 2645 3739 
Q 2450 3894 2059 3894 
Q 1656 3894 1428 3728 
Q 1281 3622 1281 3444 
Q 1281 3281 1419 3166 
Q 1594 3019 2269 2859 
Q 2944 2700 3267 2529 
Q 3591 2359 3773 2064 
Q 3956 1769 3956 1334 
Q 3956 941 3737 597 
Q 3519 253 3119 86 
Q 2719 -81 2122 -81 
Q 1253 -81 787 320 
Q 322 722 231 1491 
z
" transform="scale(0.015625)"/>
       <path id="Arial-BoldMT-66" d="M 75 3319 
L 563 3319 
L 563 3569 
Q 563 3988 652 4194 
Q 741 4400 980 4529 
Q 1219 4659 1584 4659 
Q 1959 4659 2319 4547 
L 2200 3934 
Q 1991 3984 1797 3984 
Q 1606 3984 1523 3895 
Q 1441 3806 1441 3553 
L 1441 3319 
L 2097 3319 
L 2097 2628 
L 1441 2628 
L 1441 0 
L 563 0 
L 563 2628 
L 75 2628 
L 75 3319 
z
" transform="scale(0.015625)"/>
       <path id="Arial-BoldMT-74" d="M 1981 3319 
L 1981 2619 
L 1381 2619 
L 1381 1281 
Q 1381 875 1398 808 
Q 1416 741 1477 697 
Q 1538 653 1625 653 
Q 1747 653 1978 738 
L 2053 56 
Q 1747 -75 1359 -75 
Q 1122 -75 931 4 
Q 741 84 652 211 
Q 563 338 528 553 
Q 500 706 500 1172 
L 500 2619 
L 97 2619 
L 97 3319 
L 500 3319 
L 500 3978 
L 1381 4491 
L 1381 3319 
L 1981 3319 
z
" transform="scale(0.015625)"/>
       <path id="Arial-BoldMT-2f" d="M -9 -78 
L 1125 4659 
L 1784 4659 
L 638 -78 
L -9 -78 
z
" transform="scale(0.015625)"/>
       <path id="Arial-BoldMT-70" d="M 434 3319 
L 1253 3319 
L 1253 2831 
Q 1413 3081 1684 3237 
Q 1956 3394 2288 3394 
Q 2866 3394 3269 2941 
Q 3672 2488 3672 1678 
Q 3672 847 3265 386 
Q 2859 -75 2281 -75 
Q 2006 -75 1782 34 
Q 1559 144 1313 409 
L 1313 -1263 
L 434 -1263 
L 434 3319 
z
M 1303 1716 
Q 1303 1156 1525 889 
Q 1747 622 2066 622 
Q 2372 622 2575 867 
Q 2778 1113 2778 1672 
Q 2778 2194 2568 2447 
Q 2359 2700 2050 2700 
Q 1728 2700 1515 2451 
Q 1303 2203 1303 1716 
z
" transform="scale(0.015625)"/>
      </defs>
      <use xlink:href="#Arial-BoldMT-43"/>
      <use xlink:href="#Arial-BoldMT-68" x="72.216797"/>
      <use xlink:href="#Arial-BoldMT-65" x="133.300781"/>
      <use xlink:href="#Arial-BoldMT-6d" x="188.916016"/>
      <use xlink:href="#Arial-BoldMT-69" x="277.832031"/>
      <use xlink:href="#Arial-BoldMT-63" x="305.615234"/>
      <use xlink:href="#Arial-BoldMT-61" x="361.230469"/>
      <use xlink:href="#Arial-BoldMT-6c" x="416.845703"/>
      <use xlink:href="#Arial-BoldMT-20" x="444.628906"/>
      <use xlink:href="#Arial-BoldMT-53" x="472.412109"/>
      <use xlink:href="#Arial-BoldMT-68" x="539.111328"/>
      <use xlink:href="#Arial-BoldMT-69" x="600.195312"/>
      <use xlink:href="#Arial-BoldMT-66" x="627.978516"/>
      <use xlink:href="#Arial-BoldMT-74" x="661.279297"/>
      <use xlink:href="#Arial-BoldMT-20" x="694.580078"/>
      <use xlink:href="#Arial-BoldMT-2f" x="722.363281"/>
      <use xlink:href="#Arial-BoldMT-20" x="750.146484"/>
      <use xlink:href="#Arial-BoldMT-70" x="777.929688"/>
      <use xlink:href="#Arial-BoldMT-70" x="839.013672"/>
      <use xlink:href="#Arial-BoldMT-6d" x="900.097656"/>
     </g>
    </g>
   </g>
   <g id="matplotlib.axis_2"/>
   <g id="line2d_12">
    <path d="M 3.095856 190.794897 
L 3.505095 190.694765 
L 4.118955 191.074039 
L 4.732814 191.039918 
L 6.574391 191.032344 
L 6.983631 190.883511 
L 7.80211 191.217215 
L 8.211349 190.661414 
L 8.825208 189.834357 
L 9.234448 189.58066 
L 10.462166 189.909968 
L 11.485265 191.108901 
L 12.099124 190.935379 
L 12.917603 190.446206 
L 14.145321 190.356914 
L 14.9638 190.178136 
L 15.37304 189.375799 
L 15.986899 188.113321 
L 17.419237 187.268024 
L 18.237716 187.203656 
L 19.260814 187.354272 
L 20.079293 188.239481 
L 20.693152 188.819772 
L 20.897772 188.869464 
L 21.307012 188.7587 
L 22.125491 188.797813 
L 22.53473 188.681022 
L 23.148589 189.100591 
L 23.557829 188.865042 
L 23.762448 188.747334 
L 24.171688 188.882756 
L 24.785547 189.272217 
L 25.604026 189.364853 
L 26.217885 189.969589 
L 26.627125 189.918175 
L 28.264082 189.283544 
L 29.287181 189.747501 
L 29.69642 190.008086 
L 30.514899 189.814879 
L 30.924139 190.094665 
L 31.333378 190.403571 
L 31.742618 190.235946 
L 32.356477 189.892456 
L 32.970336 189.991372 
L 33.584195 190.073759 
L 34.198054 190.303064 
L 34.607294 190.281253 
L 35.425773 190.090697 
L 36.039632 190.19037 
L 36.448871 190.256684 
L 36.858111 190.269316 
L 37.67659 190.032549 
L 38.290449 189.624285 
L 38.699688 189.499497 
L 40.132026 189.829656 
L 40.745886 190.435039 
L 40.950505 190.481617 
L 41.155125 190.408577 
L 41.768984 189.870608 
L 42.178224 189.856193 
L 42.587463 189.942646 
L 43.201322 189.656607 
L 44.019801 189.093809 
L 44.429041 188.830866 
L 46.475238 188.926125 
L 46.679858 188.812684 
L 47.907576 187.422224 
L 48.112196 187.324604 
L 48.930675 187.544057 
L 49.544534 187.313669 
L 49.953773 187.122473 
L 50.363013 187.017835 
L 50.772252 186.853674 
L 51.590731 186.874592 
L 52.40921 187.028431 
L 53.023069 186.758684 
L 53.432309 186.149568 
L 54.660027 184.08116 
L 55.273886 183.595482 
L 55.683126 183.503812 
L 56.092365 183.513523 
L 56.501605 183.11364 
L 56.910844 182.370675 
L 58.957041 177.342494 
L 60.389379 174.801393 
L 65.095633 164.275943 
L 65.914112 163.377988 
L 66.323352 162.549427 
L 66.937211 161.896891 
L 67.34645 161.271176 
L 67.55107 161.160431 
L 68.164929 161.163072 
L 68.574169 160.462516 
L 69.188028 158.418688 
L 70.415746 153.555903 
L 71.438845 147.940629 
L 72.052704 144.44054 
L 72.461943 142.961123 
L 72.666563 142.66075 
L 72.871183 142.645419 
L 73.075803 142.941858 
L 73.280422 143.621034 
L 73.689662 146.260355 
L 75.940479 165.519578 
L 76.758958 170.827344 
L 77.577436 174.234778 
L 77.986676 175.566454 
L 79.828253 179.877379 
L 80.646732 182.216995 
L 81.055972 182.794229 
L 81.669831 183.197915 
L 82.07907 183.408768 
L 82.48831 183.724515 
L 83.102169 183.941014 
L 83.716028 184.721484 
L 84.534507 185.756215 
L 84.739127 185.788545 
L 85.352986 185.341437 
L 85.557606 185.365642 
L 86.376085 185.900273 
L 86.989944 185.676619 
L 87.399183 185.888422 
L 88.422282 186.948077 
L 89.036141 186.9419 
L 89.85462 187.712811 
L 90.26386 187.632692 
L 90.877719 187.99125 
L 91.491578 188.377989 
L 91.900817 188.443023 
L 92.310057 188.281982 
L 92.923916 187.771309 
L 93.333155 187.336933 
L 94.356254 186.846475 
L 94.765494 187.302861 
L 95.174733 187.774283 
L 95.583972 187.918288 
L 96.402451 187.934569 
L 97.42555 188.603732 
L 97.834789 188.593021 
L 98.448649 188.143888 
L 99.267128 188.001588 
L 99.676367 187.975838 
L 100.085606 188.263137 
L 100.494846 188.609497 
L 100.904085 188.486446 
L 101.927184 188.110364 
L 102.336423 188.214943 
L 102.950283 188.477037 
L 103.564142 188.4439 
L 104.178001 188.53128 
L 104.58724 188.484545 
L 104.99648 188.79431 
L 105.405719 189.045475 
L 106.224198 188.960537 
L 106.838057 189.263329 
L 107.451917 189.693934 
L 107.656536 189.623453 
L 108.065776 189.116684 
L 108.475015 188.648554 
L 109.498114 187.994226 
L 109.702734 188.078341 
L 110.316593 188.807213 
L 110.725832 188.898807 
L 111.748931 188.749453 
L 113.181269 189.185059 
L 113.590508 189.271918 
L 114.204368 189.608676 
L 115.432086 189.155841 
L 115.841325 188.598157 
L 116.250565 188.048536 
L 117.273663 187.83288 
L 118.296762 189.21938 
L 118.910621 189.406245 
L 119.319861 189.177644 
L 119.7291 189.077501 
L 120.13834 189.128937 
L 120.956819 188.631196 
L 121.570678 188.932314 
L 122.184537 189.189371 
L 122.593776 189.367698 
L 123.003016 189.057191 
L 123.412255 188.715168 
L 123.616875 188.684878 
L 123.821495 188.785083 
L 124.844593 189.943326 
L 125.253833 189.844166 
L 125.867692 189.327666 
L 126.481551 188.770735 
L 126.890791 188.71031 
L 127.70927 189.093764 
L 129.346227 189.770474 
L 129.755467 189.630173 
L 130.164706 189.833251 
L 130.983185 190.593154 
L 131.392425 190.529433 
L 131.801664 190.365947 
L 132.824763 189.251541 
L 133.438622 188.623974 
L 133.847861 188.484648 
L 134.87096 189.108894 
L 135.280199 189.129811 
L 135.689439 189.031138 
L 136.098678 189.261983 
L 136.712538 189.54698 
L 137.121777 189.443432 
L 137.735636 189.135086 
L 138.758735 189.060795 
L 139.167974 188.915129 
L 139.781833 189.051423 
L 140.191073 189.231699 
L 140.600312 189.11301 
L 141.214172 188.73517 
L 141.418791 188.615224 
L 141.623411 188.640134 
L 142.64651 189.354263 
L 143.055749 189.253274 
L 144.078848 188.582629 
L 144.692707 188.624316 
L 145.511186 188.915143 
L 146.125045 188.732005 
L 147.148144 189.382825 
L 147.762003 189.239909 
L 148.375862 188.795827 
L 149.194341 188.710811 
L 149.8082 188.384841 
L 150.422059 188.391758 
L 150.831299 188.70528 
L 151.649778 189.558284 
L 151.854397 189.591186 
L 152.672876 189.235367 
L 153.082116 189.325292 
L 153.491355 189.114082 
L 154.309834 188.302745 
L 155.128313 187.877831 
L 155.742172 188.001751 
L 156.151412 187.522748 
L 156.560651 187.020036 
L 157.37913 186.632695 
L 157.58375 186.734902 
L 159.016088 188.477886 
L 159.425327 188.857905 
L 159.629947 188.908913 
L 160.039186 188.617243 
L 160.243806 188.473629 
L 160.857665 188.563482 
L 161.676144 188.786973 
L 162.085384 188.726075 
L 163.313102 187.910694 
L 164.131581 187.930083 
L 164.54082 187.930715 
L 165.768539 187.311496 
L 166.177778 187.312602 
L 166.791637 187.385116 
L 167.200877 187.381067 
L 167.610116 187.61185 
L 168.019356 187.496146 
L 168.633215 187.175248 
L 169.247074 187.188798 
L 170.270173 186.479642 
L 171.497891 186.513317 
L 172.11175 187.096369 
L 172.31637 186.887089 
L 172.725609 186.190252 
L 173.134849 186.002155 
L 173.544088 185.947616 
L 174.157948 185.626471 
L 174.567187 185.637268 
L 175.181046 185.809765 
L 175.590286 185.487626 
L 175.999525 185.186774 
L 176.408765 185.344422 
L 176.818004 185.507124 
L 177.227243 185.339037 
L 178.250342 184.564265 
L 178.659582 184.497175 
L 179.273441 184.795499 
L 180.09192 184.672792 
L 180.501159 184.624547 
L 181.524258 184.159518 
L 181.933497 184.292045 
L 183.365835 183.959769 
L 183.570455 183.854379 
L 185.002793 182.078308 
L 185.412033 182.233477 
L 185.616652 182.130702 
L 186.639751 180.898676 
L 187.25361 180.50555 
L 188.072089 179.528028 
L 189.299807 176.477402 
L 190.118286 174.238645 
L 191.141385 171.603746 
L 192.369103 168.588159 
L 193.187582 166.933333 
L 194.4153 165.225085 
L 194.82454 163.987977 
L 195.643019 161.295593 
L 196.052258 159.990267 
L 196.666117 157.134223 
L 197.484596 152.788142 
L 198.098456 146.921963 
L 199.121554 134.23955 
L 199.940033 121.526229 
L 200.553892 108.716894 
L 202.60009 56.572708 
L 203.009329 51.572397 
L 203.213949 50.366878 
L 203.418568 49.934277 
L 203.623188 50.075244 
L 203.827808 50.69322 
L 204.032428 51.823115 
L 204.441667 55.987262 
L 204.850907 62.72053 
L 205.464766 78.049538 
L 207.101724 125.712344 
L 207.715583 136.362469 
L 208.329442 144.027736 
L 209.147921 150.605507 
L 209.9664 155.940647 
L 210.580259 158.739083 
L 211.194118 160.614527 
L 212.217217 163.09588 
L 212.626456 164.218732 
L 213.035696 164.70282 
L 214.263414 165.656026 
L 214.672653 165.452592 
L 215.491132 164.399686 
L 216.309611 162.951816 
L 216.718851 161.588983 
L 217.12809 159.448717 
L 217.946569 153.556572 
L 218.560428 146.992847 
L 219.174287 138.129823 
L 219.788147 125.83451 
L 220.811245 100.367544 
L 221.834344 75.367691 
L 222.243583 69.507891 
L 222.448203 67.813429 
L 222.652823 67.063083 
L 222.857443 67.161014 
L 223.062062 68.008745 
L 223.471302 71.973822 
L 223.880541 79.142907 
L 224.4944 94.318687 
L 225.722119 126.893014 
L 226.540598 143.704172 
L 227.154457 152.510428 
L 227.768316 158.92683 
L 228.586795 165.315996 
L 229.405274 169.160934 
L 230.223753 172.726268 
L 230.837612 174.716592 
L 231.656091 176.668612 
L 232.06533 177.132567 
L 232.47457 177.445121 
L 233.088429 178.370918 
L 233.906908 179.918376 
L 234.520767 180.604419 
L 234.930006 180.887983 
L 235.543866 181.737391 
L 236.157725 181.992995 
L 236.771584 182.313563 
L 237.180823 182.648263 
L 237.999302 183.365898 
L 238.817781 183.943839 
L 239.63626 184.103943 
L 239.84088 184.097662 
L 240.454739 183.793122 
L 240.863978 183.972415 
L 241.477838 184.244733 
L 242.091697 184.407701 
L 243.319415 185.006157 
L 243.728655 184.895829 
L 244.342514 184.475877 
L 244.751753 184.521218 
L 245.160993 184.841052 
L 245.979472 185.707766 
L 246.184091 185.79824 
L 246.388711 185.714567 
L 246.797951 185.39816 
L 247.616429 185.716925 
L 248.639528 185.228962 
L 250.685725 185.587856 
L 251.094965 185.741183 
L 251.504204 185.488424 
L 252.731923 184.144246 
L 253.141162 184.099854 
L 253.550402 184.045293 
L 254.77812 183.396579 
L 255.187359 183.71181 
L 255.596599 184.18351 
L 256.005838 184.2333 
L 256.619697 184.141532 
L 257.233557 183.901433 
L 257.847416 183.764381 
L 258.461275 183.366138 
L 258.870514 183.280282 
L 259.279754 182.621003 
L 260.098233 181.205336 
L 260.712092 180.185156 
L 261.325951 178.450894 
L 262.55367 174.815293 
L 263.167529 172.839795 
L 263.781388 171.040763 
L 264.395247 169.280454 
L 264.804487 168.603546 
L 265.213726 167.158376 
L 265.827585 163.380231 
L 266.441444 158.001519 
L 267.055303 150.314355 
L 267.669163 139.187901 
L 268.283022 124.65797 
L 269.101501 98.940228 
L 270.124599 57.96463 
L 271.147698 17.094784 
L 271.556937 6.878679 
L 271.761557 4.056319 
L 271.966177 3.00024 
L 272.170797 3.796686 
L 272.375416 6.526385 
L 272.784656 17.597773 
L 273.398515 43.286396 
L 274.830853 106.767497 
L 275.649332 132.629096 
L 276.263191 145.973162 
L 276.87705 155.696703 
L 277.695529 165.155529 
L 278.309388 170.163974 
L 278.923248 173.740024 
L 279.537107 175.68514 
L 280.355586 177.59707 
L 280.764825 178.251759 
L 281.583304 180.124708 
L 281.992544 180.374328 
L 283.834121 182.575848 
L 284.85722 183.349469 
L 286.084938 184.765568 
L 286.903417 185.242364 
L 287.312656 185.509053 
L 287.721896 185.566328 
L 288.131135 185.744588 
L 288.540375 185.531203 
L 288.949614 185.246175 
L 289.154234 185.266734 
L 289.768093 185.748948 
L 290.177333 185.785647 
L 290.995812 185.816584 
L 291.609671 186.157632 
L 292.01891 186.095488 
L 292.42815 185.984561 
L 292.837389 185.98968 
L 293.451248 186.241226 
L 294.065107 186.070418 
L 294.474347 186.237149 
L 294.883586 186.374846 
L 296.315924 185.228884 
L 297.134403 184.56249 
L 297.748263 183.952523 
L 298.157502 183.539893 
L 298.771361 182.543346 
L 298.975981 182.549641 
L 299.38522 182.808381 
L 299.99908 182.705801 
L 300.408319 182.981035 
L 301.022178 184.067078 
L 301.636037 184.841245 
L 302.249897 185.342761 
L 302.863756 186.027709 
L 303.272995 186.511847 
L 304.296094 188.120196 
L 304.705333 188.223424 
L 305.319192 188.077848 
L 305.728432 188.446801 
L 306.137671 188.763051 
L 306.546911 188.665143 
L 306.95615 188.220579 
L 307.36539 187.725672 
L 307.979249 187.37251 
L 308.593108 187.26965 
L 309.206967 187.347644 
L 309.820826 187.772967 
L 310.230066 187.931292 
L 310.434686 187.80914 
L 311.048545 187.128168 
L 311.457784 187.049522 
L 311.867024 186.985124 
L 312.276263 186.784412 
L 312.890122 186.913293 
L 313.299362 186.374126 
L 313.708601 185.90848 
L 314.117841 186.159618 
L 314.52708 186.766611 
L 314.93632 187.392285 
L 315.345559 187.658498 
L 316.368658 187.787041 
L 316.777897 188.13201 
L 317.187137 188.62673 
L 317.391756 188.671667 
L 317.800996 188.342312 
L 318.414855 187.333811 
L 318.619475 187.311816 
L 319.233334 187.865631 
L 321.688771 187.779304 
L 322.507249 187.977865 
L 323.325728 188.245588 
L 323.939588 187.871517 
L 324.962686 187.797217 
L 325.371926 187.886792 
L 326.190405 187.850557 
L 326.599644 188.026485 
L 327.008883 188.206962 
L 327.418123 188.075233 
L 327.622743 187.944764 
L 328.031982 187.262479 
L 328.441222 186.74188 
L 328.850461 186.903845 
L 329.2597 187.240677 
L 329.66894 187.892703 
L 329.87356 187.992213 
L 330.282799 187.757126 
L 330.896658 187.275898 
L 331.510517 187.096434 
L 331.919757 186.425652 
L 332.533616 185.157258 
L 332.738236 185.006504 
L 333.352095 185.131238 
L 334.170574 184.489789 
L 334.579813 184.702681 
L 334.784433 184.814638 
L 334.989053 184.726079 
L 335.807532 183.610491 
L 336.216771 183.300631 
L 336.83063 182.334267 
L 337.44449 181.388239 
L 338.262968 181.27137 
L 339.286067 181.304379 
L 340.104546 180.638536 
L 340.923025 181.040285 
L 341.127645 181.094645 
L 341.332264 180.948901 
L 342.150743 179.646274 
L 342.764602 178.511193 
L 343.173842 178.158048 
L 343.992321 177.775649 
L 344.40156 177.114886 
L 345.015419 176.00561 
L 345.424659 175.818879 
L 346.652377 176.394393 
L 347.061617 176.924857 
L 348.289335 178.871706 
L 349.312434 179.785141 
L 349.926293 180.137762 
L 350.335532 180.087844 
L 350.949391 179.79964 
L 351.563251 179.456508 
L 351.97249 179.236061 
L 352.790969 179.284092 
L 353.404828 179.639663 
L 353.814068 180.000136 
L 354.427927 180.091923 
L 354.837166 180.184324 
L 355.655645 180.814623 
L 356.474124 180.743521 
L 356.883364 181.109841 
L 357.087983 181.079171 
L 357.701842 180.328567 
L 358.315702 179.737249 
L 359.3388 178.918405 
L 361.794237 176.333643 
L 362.203476 175.834454 
L 362.612716 175.595685 
L 363.021955 174.881453 
L 363.431195 174.100825 
L 363.635815 174.066495 
L 364.249674 174.528806 
L 364.454293 174.424617 
L 364.863533 173.57261 
L 365.272772 172.602172 
L 366.90973 170.326422 
L 367.932829 169.882318 
L 368.751308 169.23671 
L 369.365167 169.161749 
L 369.774406 169.412813 
L 370.388266 169.137586 
L 371.002125 169.572217 
L 371.615984 169.473639 
L 372.025223 169.478562 
L 373.252942 169.995899 
L 374.071421 169.92371 
L 375.503759 170.783574 
L 375.912998 171.573734 
L 376.526857 173.315326 
L 376.936097 174.458056 
L 377.549956 175.187701 
L 377.959195 175.581617 
L 380.210012 178.888527 
L 380.619252 179.032011 
L 381.233111 178.946183 
L 381.642351 179.141202 
L 382.25621 179.587907 
L 383.688548 181.414196 
L 383.893167 181.437673 
L 384.097787 181.668935 
L 384.711646 182.9184 
L 385.530125 183.509091 
L 386.143984 183.961363 
L 386.962463 184.805112 
L 387.576323 185.017187 
L 387.985562 184.985788 
L 388.394801 184.779989 
L 388.599421 184.797344 
L 389.21328 185.387545 
L 390.645618 187.102387 
L 391.054858 186.927051 
L 391.464097 186.711355 
L 392.077957 186.773264 
L 392.691816 187.22065 
L 393.101055 187.085908 
L 393.510295 186.856055 
L 393.714914 186.842051 
L 394.124154 187.285858 
L 394.533393 187.661111 
L 394.942633 187.669959 
L 395.351872 187.854352 
L 395.965731 187.911923 
L 396.374971 188.176351 
L 396.78421 188.15447 
L 397.19345 187.856667 
L 397.602689 187.489196 
L 398.011929 187.563087 
L 398.421168 187.898446 
L 398.830408 188.676251 
L 399.239647 189.306573 
L 399.853506 189.47672 
L 400.058126 189.394031 
L 400.671985 188.88228 
L 401.285844 188.894948 
L 401.695084 188.713054 
L 401.899703 188.774971 
L 402.718182 189.775161 
L 404.15052 189.600027 
L 404.55976 189.574794 
L 405.378239 189.605204 
L 405.992098 189.522806 
L 407.015197 189.193104 
L 407.424436 188.94466 
L 408.242915 188.615882 
L 408.652154 188.589165 
L 409.061394 188.705608 
L 409.470633 188.70103 
L 409.879873 188.855743 
L 410.698352 188.789373 
L 411.516831 189.227238 
L 411.92607 189.788949 
L 412.539929 190.332908 
L 412.949169 190.821753 
L 413.153788 190.879602 
L 414.176887 190.37094 
L 414.790746 189.717592 
L 415.199986 189.709251 
L 415.404605 189.736611 
L 415.813845 189.423604 
L 416.018465 189.242448 
L 416.632324 189.231578 
L 417.041563 189.415545 
L 417.655422 189.908498 
L 417.860042 189.820821 
L 418.883141 188.356556 
L 419.087761 188.413983 
L 419.906239 189.096758 
L 420.315479 189.088906 
L 420.724718 188.750086 
L 421.338577 188.046948 
L 421.543197 188.098897 
L 422.361676 189.124457 
L 422.975535 188.554644 
L 423.589394 188.080097 
L 423.998634 188.146733 
L 424.407873 188.715266 
L 425.021733 189.546277 
L 425.430972 189.866635 
L 427.06793 190.115182 
L 427.681789 190.277523 
L 428.091028 190.1597 
L 428.500268 190.005194 
L 429.318747 189.93445 
L 430.751085 190.01537 
L 431.160324 190.090756 
L 431.774184 190.064488 
L 432.388043 190.028217 
L 432.797282 190.171502 
L 433.206522 190.179561 
L 434.43424 190.620047 
L 435.048099 190.498323 
L 435.866578 189.928211 
L 436.275818 189.563151 
L 436.685057 189.456268 
L 437.094296 189.533337 
L 438.117395 190.111408 
L 438.526635 189.826105 
L 439.345113 189.913367 
L 439.958973 189.64306 
L 442.414409 189.845603 
L 442.823649 189.876329 
L 443.437508 190.147611 
L 444.460607 190.306956 
L 444.869846 189.792912 
L 445.279086 189.407578 
L 445.688325 189.317731 
L 446.302184 189.55246 
L 446.711424 189.240345 
L 447.325283 188.521952 
L 447.734522 188.315943 
L 448.348381 188.367833 
L 448.757621 188.349839 
L 449.37148 188.783302 
L 449.5761 188.629138 
L 449.985339 188.010711 
L 450.189959 187.894823 
L 450.599198 188.167376 
L 450.803818 188.298819 
L 451.008438 188.283808 
L 451.417677 188.053302 
L 452.031537 188.20305 
L 452.440776 188.403616 
L 452.850015 188.729992 
L 453.259255 188.82202 
L 454.282354 188.633139 
L 455.100832 188.247041 
L 456.123931 188.306164 
L 456.73779 187.622678 
L 457.14703 187.537673 
L 457.556269 187.503626 
L 458.170128 187.135639 
L 458.988607 187.253107 
L 459.397847 187.107662 
L 460.011706 187.104591 
L 460.830185 186.339882 
L 461.648664 186.812576 
L 462.671762 185.80969 
L 463.081002 185.820367 
L 464.30872 186.125206 
L 464.922579 185.766365 
L 465.536438 185.451106 
L 465.945678 185.249563 
L 466.354917 184.587915 
L 467.173396 183.06716 
L 467.582636 182.713477 
L 467.787255 182.706796 
L 468.196495 183.215628 
L 468.401115 183.455859 
L 468.605734 183.496636 
L 469.424213 182.867801 
L 470.242692 182.025088 
L 470.856551 181.352911 
L 471.67503 180.743107 
L 472.493509 179.919345 
L 473.311988 179.72893 
L 473.721228 179.605201 
L 474.130467 179.472668 
L 474.539706 179.166302 
L 474.948946 179.155785 
L 475.358185 178.709349 
L 476.176664 177.784912 
L 476.381284 177.669676 
L 476.790523 177.731902 
L 476.995143 177.632663 
L 477.199763 177.304613 
L 478.427481 174.118285 
L 478.836721 172.968114 
L 479.24596 171.167827 
L 479.6552 168.14116 
L 480.473679 159.251133 
L 480.678298 159.611458 
L 481.087538 164.398734 
L 481.496777 169.060427 
L 481.906017 171.893047 
L 482.315256 173.432592 
L 483.338355 176.198758 
L 483.542974 176.296037 
L 483.952214 176.233262 
L 484.156834 176.363174 
L 485.998411 178.673055 
L 486.407651 178.890305 
L 486.81689 178.945497 
L 487.635369 179.511826 
L 488.044608 179.455136 
L 488.453848 179.737874 
L 488.863087 179.538405 
L 489.272327 179.483751 
L 489.886186 179.575813 
L 490.295425 179.965599 
L 491.113904 180.961468 
L 491.523144 181.145387 
L 492.137003 181.101021 
L 492.546242 181.288314 
L 493.364721 181.879315 
L 495.001679 182.596933 
L 495.615538 183.25291 
L 496.638637 184.352845 
L 496.843257 184.335134 
L 497.866355 183.468387 
L 498.480214 183.529213 
L 498.684834 183.665912 
L 499.707933 185.000108 
L 500.117172 185.134419 
L 501.54951 186.1814 
L 502.16337 186.674883 
L 502.572609 186.728249 
L 503.595708 186.19728 
L 504.004947 186.229485 
L 504.823426 186.812853 
L 505.641905 186.508834 
L 505.846525 186.556239 
L 506.460384 187.146078 
L 506.665004 187.115195 
L 507.278863 186.742619 
L 508.506581 186.929316 
L 508.915821 187.08777 
L 509.32506 186.939145 
L 509.734299 186.650286 
L 509.938919 186.636996 
L 510.348159 186.939198 
L 510.962018 187.476839 
L 511.371257 187.435869 
L 511.780497 187.282106 
L 512.394356 187.387703 
L 513.417455 187.151407 
L 514.031314 187.277175 
L 514.849793 186.466277 
L 515.259032 186.168531 
L 515.872891 186.101396 
L 516.48675 185.639161 
L 516.89599 185.402946 
L 517.714469 184.392891 
L 518.532948 184.461773 
L 519.146807 184.332628 
L 519.556046 184.071771 
L 519.965286 183.704051 
L 520.169906 183.684184 
L 520.783765 184.18792 
L 521.193004 184.14823 
L 521.397624 184.059288 
L 521.806863 183.434978 
L 523.034582 181.011339 
L 523.648441 180.544699 
L 524.05768 180.204228 
L 524.46692 180.209512 
L 524.876159 179.722705 
L 525.694638 178.525953 
L 526.103878 177.773202 
L 526.717737 177.197033 
L 527.331596 176.473958 
L 527.945455 175.638438 
L 528.559314 174.823301 
L 529.173174 173.688904 
L 529.787033 172.391799 
L 530.196272 171.539392 
L 530.810131 169.657485 
L 531.219371 167.544815 
L 532.242469 161.679073 
L 532.856329 158.741712 
L 534.902526 151.970992 
L 536.130244 145.86461 
L 536.948723 139.414716 
L 537.971822 130.402711 
L 539.60878 114.972122 
L 541.245737 93.829105 
L 542.268836 78.616447 
L 543.291935 59.520839 
L 544.315033 36.061564 
L 545.542752 3.716113 
L 545.704794 -1 
M 571.31391 -1 
L 572.143316 20.86109 
L 573.575654 53.469307 
L 574.394133 68.610692 
L 575.621851 86.942368 
L 576.64495 99.068927 
L 577.463429 106.644418 
L 580.123485 127.807238 
L 581.555824 135.186677 
L 582.988162 140.594969 
L 583.602021 142.871682 
L 584.829739 146.461145 
L 585.852838 149.185093 
L 586.875936 150.811141 
L 587.694415 152.515412 
L 588.512894 154.122288 
L 589.331373 155.076202 
L 589.740613 155.695712 
L 590.559092 156.549013 
L 591.172951 157.218991 
L 591.78681 157.558415 
L 593.219148 159.489157 
L 595.879204 163.578772 
L 596.902303 165.236113 
L 597.311543 165.70413 
L 598.130021 165.976748 
L 598.743881 166.960072 
L 599.56236 167.242843 
L 599.971599 167.881641 
L 600.585458 169.286452 
L 600.994698 169.720408 
L 601.608557 169.888207 
L 602.017796 170.325988 
L 602.836275 170.726644 
L 603.654754 170.446468 
L 604.268613 170.202791 
L 604.882472 170.896814 
L 605.291712 171.251827 
L 605.496332 171.211037 
L 605.905571 170.775451 
L 606.51943 170.134648 
L 607.542529 169.155048 
L 607.951768 168.978443 
L 608.361008 168.876833 
L 608.974867 168.436086 
L 609.384106 167.786172 
L 610.407205 165.803682 
L 611.225684 164.522889 
L 611.839543 162.700228 
L 612.658022 158.997221 
L 613.271881 156.569359 
L 613.681121 155.836617 
L 613.88574 155.81514 
L 614.29498 156.359684 
L 614.704219 156.852074 
L 614.908839 156.795465 
L 615.727318 155.8351 
L 617.568895 151.380139 
L 618.591994 147.381087 
L 619.819712 140.819698 
L 620.228952 137.97917 
L 620.638191 133.793595 
L 621.66129 120.756015 
L 621.86591 120.012681 
L 622.070529 120.463564 
L 622.479769 123.451272 
L 623.093628 128.151034 
L 623.502868 130.150882 
L 623.912107 131.220384 
L 624.321346 131.579539 
L 624.525966 131.428223 
L 625.139825 130.566006 
L 625.549065 129.932624 
L 626.162924 127.903931 
L 626.981403 124.400053 
L 627.390642 121.898888 
L 627.799882 118.284944 
L 628.209121 113.339698 
L 628.618361 105.985375 
L 629.0276 94.984176 
L 630.050699 64.027623 
L 630.255319 64.581539 
L 630.664558 74.360859 
L 631.278417 91.878112 
L 631.892276 102.863022 
L 632.506136 109.132123 
L 633.119995 112.940806 
L 633.938474 116.774431 
L 634.347713 117.590596 
L 634.552333 117.617382 
L 634.961572 117.128232 
L 635.166192 116.550604 
L 635.575431 114.259778 
L 635.984671 110.115495 
L 636.39391 103.292013 
L 636.80315 92.767138 
L 637.417009 68.463198 
L 638.030868 39.811548 
L 638.235488 34.291231 
L 638.440108 33.382139 
L 638.644727 37.137902 
L 640.077065 84.882669 
L 640.690925 95.391029 
L 641.304784 102.656931 
L 642.327882 111.78706 
L 642.737122 113.883816 
L 643.146361 114.582227 
L 643.350981 114.674527 
L 643.555601 114.391224 
L 643.760221 113.641824 
L 644.16946 110.424103 
L 644.578699 104.577741 
L 644.987939 95.75479 
L 645.397178 83.154462 
L 646.624897 35.807853 
L 646.829516 36.624824 
L 647.238756 47.531987 
L 647.852615 65.90531 
L 648.466474 77.007096 
L 649.080333 83.894103 
L 649.694193 88.541705 
L 651.126531 97.124641 
L 651.53577 98.426842 
L 651.74039 98.586971 
L 651.94501 98.425291 
L 652.354249 97.315126 
L 652.763488 95.206052 
L 653.172728 91.675228 
L 653.786587 83.641512 
L 654.400446 75.115126 
L 654.605066 74.365821 
L 654.809686 75.911849 
L 655.218925 84.975523 
L 656.037404 106.1906 
L 656.855883 119.975925 
L 657.674362 130.592712 
L 658.90208 142.645293 
L 659.720559 148.98379 
L 660.334418 152.451759 
L 660.743658 153.435612 
L 660.948278 153.350016 
L 661.357517 152.555377 
L 661.766756 151.179248 
L 662.789855 146.217845 
L 662.994475 146.63232 
L 663.403714 149.758045 
L 664.222193 157.332765 
L 664.836052 160.74916 
L 665.040672 161.24988 
L 665.245292 161.375984 
L 665.449912 161.181589 
L 665.859151 160.427147 
L 666.063771 160.365024 
L 666.26839 160.892658 
L 666.67763 163.696307 
L 667.291489 168.458118 
L 667.700729 170.445883 
L 668.109968 171.567789 
L 669.746926 174.307532 
L 670.156165 174.36544 
L 670.770024 174.268688 
L 671.383884 174.440886 
L 671.793123 174.504089 
L 671.997743 174.398435 
L 673.430081 172.432581 
L 674.04394 172.457254 
L 674.862419 172.912785 
L 675.885518 173.867472 
L 676.499377 173.874237 
L 676.908616 173.497383 
L 677.113236 173.229713 
L 677.522475 172.064886 
L 678.340954 168.502728 
L 678.545574 168.249104 
L 678.750194 168.535751 
L 679.159433 170.441912 
L 679.977912 175.071863 
L 680.387152 176.205358 
L 680.796391 176.479429 
L 681.205631 176.818019 
L 681.81949 177.557867 
L 682.433349 178.565273 
L 682.637969 178.641606 
L 683.047208 178.485521 
L 683.661067 177.940376 
L 684.888786 176.100841 
L 685.298025 174.726073 
L 685.911884 170.946876 
L 686.321124 167.481108 
L 686.934983 159.111877 
L 687.344222 154.587348 
L 687.548842 154.182422 
L 687.753462 155.296887 
L 688.162701 160.7976 
L 688.77656 169.386724 
L 689.1858 172.707761 
L 689.799659 175.884513 
L 690.208899 176.911646 
L 691.027377 177.958644 
L 691.845856 179.576647 
L 692.664335 180.486159 
L 692.868955 180.399322 
L 694.505913 177.179798 
L 694.915152 176.215097 
L 695.529011 173.709116 
L 696.34749 169.600692 
L 696.55211 169.398216 
L 696.75673 170.034911 
L 698.189068 178.985604 
L 698.598307 180.777809 
L 699.007547 181.643053 
L 700.235265 182.820674 
L 700.644505 182.912856 
L 701.462983 183.4123 
L 701.872223 183.689574 
L 702.281462 183.607783 
L 702.895322 183.145436 
L 703.509181 183.238237 
L 703.91842 182.558697 
L 704.941519 180.293338 
L 705.555378 178.209067 
L 705.964617 176.732919 
L 706.169237 176.679841 
L 706.373857 177.324996 
L 707.192336 181.527651 
L 707.601575 182.584324 
L 708.010815 183.07462 
L 708.624674 183.604174 
L 709.647773 185.063278 
L 709.852392 185.067425 
L 711.28473 184.234773 
L 711.89859 183.463661 
L 712.103209 183.428751 
L 712.512449 183.759814 
L 712.717068 183.937211 
L 712.921688 183.965154 
L 713.330928 183.761676 
L 713.740167 183.909996 
L 714.558646 184.634063 
L 715.172505 185.42274 
L 715.581745 185.523298 
L 715.786364 185.482594 
L 716.195604 185.051461 
L 716.809463 184.417171 
L 717.832562 184.288828 
L 718.446421 184.978161 
L 718.651041 185.066243 
L 718.85566 185.014269 
L 719.469519 184.325829 
L 720.083379 184.297813 
L 720.697238 183.705849 
L 720.901858 183.718542 
L 721.924956 184.419378 
L 722.538815 184.316535 
L 723.152675 184.330847 
L 723.971153 184.686017 
L 724.585013 184.494322 
L 725.608111 183.529529 
L 726.63121 183.356727 
L 727.245069 183.163066 
L 727.654309 183.24379 
L 728.472787 183.505159 
L 728.882027 183.469351 
L 729.291266 183.127109 
L 730.314365 182.018387 
L 730.928224 181.688914 
L 731.132844 181.731121 
L 731.542083 182.057284 
L 731.746703 182.073797 
L 733.383661 181.30064 
L 733.7929 181.235953 
L 735.225238 180.528276 
L 736.248337 179.861255 
L 736.862196 179.405181 
L 737.271436 179.395391 
L 737.680675 179.500871 
L 738.908393 179.386313 
L 739.726872 178.926161 
L 740.340732 178.350278 
L 741.15921 177.072212 
L 741.56845 176.838743 
L 741.977689 176.887495 
L 742.591549 176.998883 
L 743.000788 176.898505 
L 743.410027 176.477273 
L 744.433126 175.36292 
L 745.251605 175.279239 
L 746.070084 173.91624 
L 746.479323 173.334989 
L 746.888563 173.055623 
L 747.297802 172.895371 
L 747.707042 172.178515 
L 748.525521 170.569254 
L 749.548619 169.350154 
L 751.185577 166.073909 
L 751.799436 164.306384 
L 752.413295 162.446478 
L 753.027155 161.490094 
L 753.641014 160.22112 
L 754.868732 158.611907 
L 755.687211 157.19268 
L 756.30107 156.448321 
L 756.914929 155.440164 
L 758.551887 153.821195 
L 759.165746 153.55753 
L 759.984225 153.058139 
L 760.598085 153.096331 
L 761.621183 152.657186 
L 762.030423 152.972159 
L 762.235042 152.986645 
L 762.644282 152.638433 
L 763.053521 152.263023 
L 763.462761 152.139378 
L 763.66738 152.149266 
L 763.872 152.311016 
L 765.099719 154.303961 
L 765.918197 154.791213 
L 766.941296 156.508623 
L 767.555155 156.984517 
L 768.169014 157.996552 
L 769.192113 160.092849 
L 769.601352 160.807958 
L 770.419831 160.98542 
L 770.829071 161.435359 
L 771.23831 162.361705 
L 771.852169 163.953446 
L 772.056789 164.19819 
L 772.261409 164.198767 
L 772.875268 163.557813 
L 773.079888 163.647564 
L 773.489127 164.456308 
L 773.898367 165.549274 
L 774.102986 165.854553 
L 774.716846 166.237831 
L 775.739944 167.968948 
L 776.558423 168.694885 
L 777.376902 170.174654 
L 777.990761 170.471774 
L 778.400001 170.391761 
L 779.21848 169.775513 
L 779.832339 168.92769 
L 780.446198 167.369109 
L 781.060057 165.439801 
L 781.469297 163.394495 
L 782.083156 157.947476 
L 782.901635 150.937525 
L 783.106254 150.217149 
L 783.310874 150.020439 
L 784.129353 150.361375 
L 784.333973 149.840664 
L 784.743212 147.34688 
L 785.152452 143.218275 
L 785.766311 133.565671 
L 786.17555 128.85411 
L 786.38017 129.316964 
L 786.78941 136.041699 
L 787.403269 147.364983 
L 787.812508 151.708276 
L 788.221748 153.873413 
L 788.426367 154.265487 
L 788.630987 154.338857 
L 789.244846 154.06212 
L 789.449466 154.537676 
L 789.858705 157.288914 
L 791.291044 170.868 
L 791.700283 172.853886 
L 792.109522 173.885057 
L 792.723382 174.97849 
L 794.769579 178.914311 
L 795.997297 179.666603 
L 796.611156 180.288068 
L 796.815776 180.326503 
L 797.838875 180.009349 
L 798.248114 180.059976 
L 798.657354 180.395511 
L 799.680452 181.90487 
L 800.089692 182.017701 
L 800.703551 181.943756 
L 801.31741 181.944795 
L 801.72665 181.800697 
L 802.135889 182.021937 
L 802.545129 182.331924 
L 803.363607 182.679278 
L 803.772847 182.940353 
L 804.182086 182.865714 
L 804.795946 182.586385 
L 805.205185 182.772015 
L 805.409805 182.71031 
L 805.819044 182.36715 
L 806.228284 182.423422 
L 806.637523 182.560777 
L 806.842143 182.469656 
L 807.456002 181.817532 
L 808.68372 181.87915 
L 809.297579 182.197604 
L 809.911439 182.590736 
L 810.525298 182.89648 
L 810.934537 182.60833 
L 811.343777 182.48464 
L 811.753016 182.398271 
L 812.571495 182.186311 
L 812.980735 182.420051 
L 813.594594 182.290282 
L 814.003833 181.936313 
L 814.617692 181.271734 
L 815.231552 180.970918 
L 816.45927 180.421967 
L 816.868509 180.420917 
L 817.277749 180.335313 
L 817.891608 180.534344 
L 818.505467 180.249708 
L 818.914707 179.992685 
L 819.528566 179.525138 
L 819.733186 179.546173 
L 819.937805 179.396674 
L 820.551664 178.474699 
L 821.370143 177.779595 
L 822.188622 176.624907 
L 822.597862 176.411637 
L 823.007101 176.345944 
L 823.416341 175.92492 
L 823.82558 175.086964 
L 825.462538 170.698521 
L 825.871777 169.957422 
L 826.281017 168.706355 
L 826.894876 166.066107 
L 827.304115 163.617118 
L 827.713355 159.793705 
L 828.122594 153.772063 
L 828.941073 137.693022 
L 829.145693 137.841395 
L 829.554932 144.452883 
L 829.964172 150.603376 
L 830.373411 153.922058 
L 830.782651 155.223881 
L 830.987271 155.348797 
L 831.19189 155.235583 
L 831.60113 154.528253 
L 833.238088 150.207329 
L 833.851947 146.921585 
L 835.079665 138.852036 
L 835.898144 132.194127 
L 836.716623 123.661698 
L 837.330482 114.825874 
L 837.944341 102.062933 
L 838.96744 75.030695 
L 840.604398 30.54302 
L 842.077493 -1 
M 844.503775 -1 
L 844.901412 71.02145 
L 845.310651 109.350685 
L 845.719891 127.198072 
L 846.12913 135.797299 
L 846.53837 139.429591 
L 846.947609 140.750679 
L 847.561468 141.568098 
L 847.970708 142.591359 
L 848.379947 144.262465 
L 850.221525 153.510472 
L 851.449243 156.943842 
L 851.858483 157.824699 
L 852.267722 158.205322 
L 852.676962 158.374188 
L 853.086201 158.743468 
L 853.290821 158.780341 
L 853.70006 158.466765 
L 854.313919 157.500409 
L 854.723159 156.560908 
L 855.132398 154.722802 
L 855.746257 150.8733 
L 856.360117 144.902181 
L 856.973976 136.361979 
L 857.587835 123.265029 
L 858.201694 105.097178 
L 859.634032 58.222452 
L 859.838652 55.626049 
L 860.043272 54.874051 
L 860.247891 55.971917 
L 860.452511 58.922268 
L 860.861751 69.824651 
L 862.703328 133.521448 
L 863.317187 145.868749 
L 864.135666 157.030451 
L 864.749525 162.840702 
L 865.363385 165.993932 
L 866.591103 171.077986 
L 868.023441 174.770274 
L 869.251159 176.687757 
L 870.069638 176.815348 
L 870.274258 176.723392 
L 870.888117 176.037459 
L 871.297357 176.118538 
L 871.911216 176.198865 
L 872.320455 176.168813 
L 872.729695 176.188745 
L 873.343554 176.838433 
L 873.957413 177.909652 
L 874.366653 178.235504 
L 875.389751 179.510129 
L 875.798991 179.760339 
L 876.41285 179.950721 
L 876.822089 180.49601 
L 877.231329 180.971431 
L 877.435949 180.942161 
L 878.254427 180.370379 
L 878.663667 180.298913 
L 879.072906 180.496158 
L 879.482146 180.802202 
L 880.914484 180.612629 
L 881.323723 180.391314 
L 881.732963 180.575412 
L 882.142202 180.785258 
L 882.551442 180.506558 
L 883.165301 179.950713 
L 884.188399 179.715861 
L 886.234597 177.976238 
L 886.439216 178.093515 
L 887.666935 179.577291 
L 888.485414 179.853642 
L 889.303893 179.351005 
L 890.326991 178.700335 
L 890.94085 178.676964 
L 891.35009 178.183773 
L 891.963949 177.397655 
L 892.373189 177.235952 
L 892.987048 177.104456 
L 893.396287 176.648504 
L 893.805527 175.594937 
L 894.419386 173.863591 
L 895.033245 172.555129 
L 895.442484 171.932199 
L 895.647104 171.783434 
L 895.851724 171.857059 
L 896.260963 172.642066 
L 897.488682 175.431093 
L 897.897921 175.748603 
L 899.12564 175.793764 
L 899.944118 175.185169 
L 900.762597 174.452728 
L 901.171837 173.893687 
L 901.581076 173.106631 
L 901.990316 172.648476 
L 902.399555 171.673062 
L 903.218034 169.626843 
L 903.831893 168.789316 
L 904.241133 168.260456 
L 905.264231 165.820304 
L 905.468851 165.694663 
L 906.08271 165.849149 
L 906.696569 166.127479 
L 907.515048 167.175614 
L 907.719668 167.147682 
L 908.128908 166.520625 
L 908.538147 166.05548 
L 908.947386 165.874208 
L 909.356626 165.302191 
L 910.379725 163.271194 
L 912.016682 158.707004 
L 913.039781 155.686161 
L 913.85826 152.087614 
L 914.472119 150.249645 
L 915.085978 148.752422 
L 916.109077 145.02232 
L 917.132176 140.148955 
L 918.155274 134.611185 
L 919.792232 121.996416 
L 921.01995 109.774832 
L 922.452288 92.424776 
L 923.680007 82.601324 
L 924.293866 76.18408 
L 925.112345 65.075394 
L 926.340063 44.518461 
L 927.772401 16.787721 
L 928.627916 -1 
M 950.688238 -1 
L 951.30367 31.119094 
L 952.122149 61.554261 
L 952.940628 83.310284 
L 953.963726 105.100138 
L 954.986825 122.270229 
L 955.805304 133.721871 
L 956.828403 144.618435 
L 958.056121 155.165542 
L 958.66998 157.967847 
L 959.283839 159.912145 
L 959.897698 161.056102 
L 960.511558 161.949224 
L 960.920797 163.031706 
L 961.534656 166.001731 
L 962.353135 171.236499 
L 963.171614 176.701078 
L 963.785473 179.24904 
L 964.194713 180.221474 
L 965.422431 181.889214 
L 966.854769 183.224886 
L 967.264009 183.688451 
L 967.877868 183.997247 
L 968.082487 183.958848 
L 968.287107 183.664778 
L 968.696347 182.26298 
L 969.105586 179.754406 
L 970.128685 171.830121 
L 970.333304 172.058731 
L 970.742544 174.2958 
L 971.970262 182.129173 
L 972.788741 185.728512 
L 973.197981 186.829845 
L 974.425699 189.365108 
L 974.834938 190.109859 
L 975.244178 190.320119 
L 975.653417 190.240636 
L 976.267277 189.971681 
L 977.085755 189.781392 
L 977.904234 189.96591 
L 978.722713 189.613392 
L 979.336572 188.775347 
L 979.950432 188.375802 
L 980.359671 188.051221 
L 980.564291 188.12273 
L 981.17815 188.972541 
L 981.792009 189.66419 
L 982.405868 190.122729 
L 983.019728 191.083349 
L 983.428967 191.694425 
L 983.838206 191.916558 
L 984.452066 191.929495 
L 985.065925 191.81184 
L 987.112122 192.977664 
L 987.521362 192.982418 
L 987.930601 192.861924 
L 988.54446 192.943997 
L 989.158319 192.268164 
L 989.567559 192.402071 
L 990.590657 192.890362 
L 991.204517 193.161275 
L 991.613756 193.067622 
L 992.227615 192.950267 
L 992.841474 192.712727 
L 994.069193 192.140081 
L 996.32001 192.363056 
L 996.933869 192.114336 
L 997.752348 192.549672 
L 998.161587 192.749936 
L 998.570827 192.586002 
L 998.980066 192.454488 
L 1000.821644 192.612545 
L 1001.230883 192.773275 
L 1001.640123 192.61973 
L 1002.458602 192.124139 
L 1002.663221 192.146384 
L 1003.072461 192.392299 
L 1003.27708 192.362816 
L 1003.68632 192.076455 
L 1003.89094 192.097168 
L 1004.709419 192.708496 
L 1005.118658 192.547737 
L 1005.527897 192.269217 
L 1005.937137 192.318416 
L 1006.550996 192.567767 
L 1006.960236 192.731169 
L 1007.574095 192.736556 
L 1007.983334 192.933788 
L 1008.187954 192.877619 
L 1009.006433 192.033287 
L 1009.211053 191.962776 
L 1010.234151 192.336105 
L 1010.84801 192.186746 
L 1011.25725 191.867183 
L 1011.871109 191.213656 
L 1012.075729 191.106468 
L 1012.280348 191.124803 
L 1012.894208 191.748427 
L 1013.508067 192.519391 
L 1014.326546 193.164391 
L 1014.940405 192.774054 
L 1015.554264 192.214725 
L 1016.372743 192.329045 
L 1017.191222 192.55502 
L 1018.214321 192.132929 
L 1018.62356 192.330434 
L 1019.032799 192.433719 
L 1019.442039 192.424409 
L 1019.851278 192.451573 
L 1020.669757 192.35938 
L 1021.078997 192.461461 
L 1021.897476 191.799827 
L 1022.306715 191.143018 
L 1022.715955 190.506827 
L 1022.920574 190.45531 
L 1023.943673 190.880927 
L 1024.352912 190.897887 
L 1024.966772 191.030084 
L 1025.376011 190.818401 
L 1025.78525 190.493297 
L 1025.98987 190.466944 
L 1026.808349 190.854947 
L 1027.626828 190.652796 
L 1029.263786 190.236884 
L 1029.673025 190.362005 
L 1030.286884 190.446965 
L 1030.696124 190.990658 
L 1031.105363 191.609681 
L 1031.309983 191.74729 
L 1031.719223 191.639489 
L 1032.742321 191.258781 
L 1033.151561 191.434344 
L 1033.5608 191.735725 
L 1033.97004 191.696677 
L 1034.583899 191.462662 
L 1035.402378 191.180213 
L 1036.220857 191.4098 
L 1037.857814 191.961191 
L 1038.267054 191.689452 
L 1038.880913 191.119586 
L 1039.494772 191.050595 
L 1040.108631 191.060209 
L 1040.72249 191.195864 
L 1041.13173 191.131857 
L 1041.540969 191.38004 
L 1042.154829 192.096596 
L 1042.359448 192.101298 
L 1043.587167 191.054443 
L 1044.814885 190.979549 
L 1045.837984 191.552 
L 1046.247223 192.238546 
L 1046.451843 192.329712 
L 1047.270322 191.953473 
L 1047.474941 191.946952 
L 1047.884181 191.582228 
L 1048.29342 191.074545 
L 1048.70266 191.013725 
L 1049.111899 191.268108 
L 1049.521139 191.56194 
L 1050.134998 191.380729 
L 1050.544237 190.962639 
L 1050.953477 190.533468 
L 1052.590435 190.008459 
L 1053.408914 190.385563 
L 1053.818153 190.195702 
L 1054.227392 189.9955 
L 1054.636632 190.396531 
L 1055.045871 190.741567 
L 1055.455111 190.695412 
L 1056.27359 190.373592 
L 1056.682829 189.899193 
L 1056.887449 189.853771 
L 1057.910548 190.103839 
L 1058.115167 190.053127 
L 1058.319787 190.127136 
L 1058.729026 190.482147 
L 1059.138266 190.426686 
L 1060.161365 189.820519 
L 1060.570604 189.860729 
L 1061.184463 189.692923 
L 1061.593703 189.926164 
L 1062.002942 190.262108 
L 1063.6399 190.378848 
L 1064.253759 190.989126 
L 1064.458379 190.959844 
L 1065.072238 190.543893 
L 1065.686097 190.795384 
L 1066.095337 190.771173 
L 1066.913816 191.22041 
L 1067.527675 190.707366 
L 1068.346154 190.742623 
L 1069.164633 190.995855 
L 1070.392351 191.151853 
L 1071.21083 191.142926 
L 1072.438548 190.428383 
L 1072.847788 190.478747 
L 1073.461647 190.744132 
L 1074.280126 190.697402 
L 1074.893985 190.332197 
L 1075.098605 190.379506 
L 1075.507844 190.785424 
L 1076.121703 191.43666 
L 1076.530943 191.710216 
L 1076.735562 191.670856 
L 1077.758661 190.815159 
L 1078.1679 190.865635 
L 1078.57714 190.880574 
L 1078.986379 190.971067 
L 1079.395619 190.724676 
L 1080.418717 190.794958 
L 1081.032577 190.467647 
L 1082.260295 191.205818 
L 1082.874154 191.278578 
L 1083.283394 191.521559 
L 1083.692633 191.528223 
L 1084.306492 191.258064 
L 1084.920351 190.87394 
L 1085.329591 191.143531 
L 1085.73883 191.494965 
L 1086.14807 191.433888 
L 1086.557309 191.164482 
L 1086.761929 190.972137 
L 1086.966549 190.969502 
L 1087.375788 191.186301 
L 1087.580408 191.080471 
L 1088.398887 189.915285 
L 1088.808126 190.056639 
L 1089.217366 190.308989 
L 1089.626605 190.256247 
L 1090.035845 190.234571 
L 1090.649704 190.729577 
L 1091.058943 190.731159 
L 1091.468183 190.671291 
L 1091.877422 190.87095 
L 1092.695901 190.769062 
L 1093.105141 190.799438 
L 1093.51438 190.765861 
L 1093.923619 190.728104 
L 1094.332859 190.534404 
L 1095.151338 190.708805 
L 1095.765197 190.323496 
L 1096.174436 190.424936 
L 1096.788296 190.647044 
L 1097.402155 190.532838 
L 1098.425253 191.484826 
L 1099.448352 191.467484 
L 1099.857592 191.387161 
L 1100.266831 190.979381 
L 1100.67607 190.673688 
L 1101.08531 190.832679 
L 1101.494549 191.062958 
L 1101.903789 190.965789 
L 1102.926887 190.689358 
L 1103.745366 191.296186 
L 1104.973085 190.298426 
L 1105.382324 189.937575 
L 1107.223902 189.50668 
L 1107.428521 189.589475 
L 1108.042381 190.161831 
L 1108.247 190.074717 
L 1108.86086 189.275773 
L 1109.065479 189.26051 
L 1110.088578 189.696877 
L 1111.520916 189.434034 
L 1111.930155 189.690873 
L 1113.362494 190.78775 
L 1115.204071 190.187181 
L 1116.02255 190.433989 
L 1116.431789 189.783338 
L 1116.636409 189.6769 
L 1117.045649 189.858052 
L 1118.068747 190.764414 
L 1118.477987 190.640618 
L 1118.682606 190.547926 
L 1118.887226 190.61252 
L 1119.296466 191.050215 
L 1119.501085 191.078354 
L 1120.319564 190.635642 
L 1120.728804 190.635597 
L 1121.138043 190.772271 
L 1121.547283 190.634785 
L 1122.365761 190.192392 
L 1122.570381 190.227002 
L 1123.38886 190.809984 
L 1123.59348 190.767374 
L 1124.616578 189.942587 
L 1125.025818 189.722451 
L 1125.435057 189.408418 
L 1125.639677 189.460706 
L 1126.253536 189.905367 
L 1126.662776 189.957843 
L 1127.276635 189.51354 
L 1129.118212 190.324057 
L 1130.95979 189.892181 
L 1131.369029 189.772367 
L 1131.778269 190.238612 
L 1132.187508 190.62166 
L 1132.801368 190.413447 
L 1133.619846 190.561336 
L 1134.233706 190.456399 
L 1134.847565 190.109481 
L 1135.052185 190.120654 
L 1135.461424 190.478086 
L 1135.870663 190.829263 
L 1136.075283 190.846146 
L 1136.484523 190.46021 
L 1136.893762 190.189603 
L 1137.303002 190.205289 
L 1137.712241 190.488052 
L 1138.3261 191.068785 
L 1138.939959 190.716433 
L 1139.349199 190.854521 
L 1140.986157 190.471705 
L 1141.395396 190.101394 
L 1141.600016 190.065977 
L 1142.213875 190.314343 
L 1143.850833 189.582016 
L 1145.078551 190.09415 
L 1145.69241 189.355422 
L 1145.89703 189.442359 
L 1146.510889 190.323726 
L 1146.715509 190.357953 
L 1147.329368 189.926282 
L 1147.533988 189.760911 
L 1147.738608 189.767338 
L 1148.352467 190.254601 
L 1149.170946 190.206135 
L 1149.580185 189.722241 
L 1149.784805 189.683352 
L 1151.012523 190.34683 
L 1153.46796 191.549661 
L 1153.877199 191.541014 
L 1154.286439 191.398465 
L 1155.104918 190.85999 
L 1155.718777 191.065322 
L 1156.128016 190.82413 
L 1157.151115 189.477104 
L 1157.560354 189.913174 
L 1158.174214 190.551446 
L 1158.583453 190.711535 
L 1158.992693 190.765901 
L 1159.606552 191.240686 
L 1160.015791 191.255236 
L 1161.03889 190.60291 
L 1161.448129 190.022776 
L 1161.652749 189.951229 
L 1162.471228 190.406385 
L 1162.880467 190.155172 
L 1163.494327 189.678477 
L 1163.903566 190.087844 
L 1164.517425 190.773383 
L 1164.722045 190.779059 
L 1165.745144 190.079847 
L 1166.154383 190.146788 
L 1166.563622 190.13186 
L 1168.4052 189.397736 
L 1168.814439 189.797031 
L 1169.019059 189.827992 
L 1169.428299 189.653888 
L 1170.246778 189.838227 
L 1171.065256 190.279755 
L 1171.679116 190.459163 
L 1172.088355 190.533639 
L 1172.702214 190.76228 
L 1172.906834 190.645885 
L 1173.316073 190.162825 
L 1173.520693 190.077156 
L 1174.339172 190.158087 
L 1174.953031 189.738182 
L 1175.362271 189.620017 
L 1175.56689 189.71235 
L 1176.385369 190.566273 
L 1176.589989 190.5649 
L 1177.203848 190.231281 
L 1178.022327 190.311134 
L 1178.636186 190.007638 
L 1179.863905 190.715293 
L 1180.273144 190.379044 
L 1180.682384 190.098636 
L 1181.091623 189.826419 
L 1181.705482 189.070005 
L 1181.910102 189.045251 
L 1182.319341 189.546703 
L 1182.933201 190.283224 
L 1183.54706 190.610401 
L 1184.160919 190.904602 
L 1184.774778 190.583726 
L 1184.774778 190.583726 
" clip-path="url(#p8503f26ba7)" style="fill: none; stroke: #000000; stroke-width: 2; stroke-linecap: square"/>
   </g>
   <g id="patch_3">
    <path d="M 3.00024 198.907885 
L 1184.99976 198.907885 
" style="fill: none; stroke: #000000; stroke-width: 2; stroke-linejoin: miter; stroke-linecap: square"/>
   </g>
  </g>
 </g>
 <defs>
  <clipPath id="p8503f26ba7">
   <rect x="3.00024" y="3.00024" width="1181.99952" height="195.907645"/>
  </clipPath>
 </defs>
</svg>
