<?xml version="1.0" encoding="utf-8" standalone="no"?>
<!DOCTYPE svg PUBLIC "-//W3C//DTD SVG 1.1//EN"
  "http://www.w3.org/Graphics/SVG/1.1/DTD/svg11.dtd">
<svg xmlns:xlink="http://www.w3.org/1999/xlink" width="1188pt" height="252pt" viewBox="0 0 1188 252" xmlns="http://www.w3.org/2000/svg" version="1.1">
 <metadata>
  <rdf:RDF xmlns:dc="http://purl.org/dc/elements/1.1/" xmlns:cc="http://creativecommons.org/ns#" xmlns:rdf="http://www.w3.org/1999/02/22-rdf-syntax-ns#">
   <cc:Work>
    <dc:type rdf:resource="http://purl.org/dc/dcmitype/StillImage"/>
    <dc:date>2024-05-14T23:08:07.813289</dc:date>
    <dc:format>image/svg+xml</dc:format>
    <dc:creator>
     <cc:Agent>
      <dc:title>Matplotlib v3.8.0, https://matplotlib.org/</dc:title>
     </cc:Agent>
    </dc:creator>
   </cc:Work>
  </rdf:RDF>
 </metadata>
 <defs>
  <style type="text/css">*{stroke-linejoin: round; stroke-linecap: butt}</style>
 </defs>
 <g id="figure_1">
  <g id="patch_1">
   <path d="M 0 252 
L 1188 252 
L 1188 0 
L 0 0 
z
" style="fill: #ffffff"/>
  </g>
  <g id="axes_1">
   <g id="patch_2">
    <path d="M 3.00024 198.907885 
L 1184.99976 198.907885 
L 1184.99976 3.00024 
L 3.00024 3.00024 
z
" style="fill: #ffffff"/>
   </g>
   <g id="matplotlib.axis_1">
    <g id="xtick_1">
     <g id="line2d_1">
      <defs>
       <path id="m4e15bf4163" d="M 0 0 
L 0 8 
" style="stroke: #000000; stroke-width: 2"/>
      </defs>
      <g>
       <use xlink:href="#m4e15bf4163" x="1131.272509" y="198.907885" style="stroke: #000000; stroke-width: 2"/>
      </g>
     </g>
     <g id="text_1">
      <!-- 0 -->
      <g transform="translate(1126.267665 224.791947) scale(0.18 -0.18)">
       <defs>
        <path id="Arial-BoldMT-30" d="M 1756 4600 
Q 2422 4600 2797 4125 
Q 3244 3563 3244 2259 
Q 3244 959 2794 391 
Q 2422 -78 1756 -78 
Q 1088 -78 678 436 
Q 269 950 269 2269 
Q 269 3563 719 4131 
Q 1091 4600 1756 4600 
z
M 1756 3872 
Q 1597 3872 1472 3770 
Q 1347 3669 1278 3406 
Q 1188 3066 1188 2259 
Q 1188 1453 1269 1151 
Q 1350 850 1473 750 
Q 1597 650 1756 650 
Q 1916 650 2041 751 
Q 2166 853 2234 1116 
Q 2325 1453 2325 2259 
Q 2325 3066 2244 3367 
Q 2163 3669 2039 3770 
Q 1916 3872 1756 3872 
z
" transform="scale(0.015625)"/>
       </defs>
       <use xlink:href="#Arial-BoldMT-30"/>
      </g>
     </g>
    </g>
    <g id="xtick_2">
     <g id="line2d_2">
      <g>
       <use xlink:href="#m4e15bf4163" x="1023.818007" y="198.907885" style="stroke: #000000; stroke-width: 2"/>
      </g>
     </g>
     <g id="text_2">
      <!-- 1 -->
      <g transform="translate(1018.813164 224.791947) scale(0.18 -0.18)">
       <defs>
        <path id="Arial-BoldMT-31" d="M 2519 0 
L 1641 0 
L 1641 3309 
Q 1159 2859 506 2644 
L 506 3441 
Q 850 3553 1253 3867 
Q 1656 4181 1806 4600 
L 2519 4600 
L 2519 0 
z
" transform="scale(0.015625)"/>
       </defs>
       <use xlink:href="#Arial-BoldMT-31"/>
      </g>
     </g>
    </g>
    <g id="xtick_3">
     <g id="line2d_3">
      <g>
       <use xlink:href="#m4e15bf4163" x="916.363505" y="198.907885" style="stroke: #000000; stroke-width: 2"/>
      </g>
     </g>
     <g id="text_3">
      <!-- 2 -->
      <g transform="translate(911.358662 224.791947) scale(0.18 -0.18)">
       <defs>
        <path id="Arial-BoldMT-32" d="M 3238 816 
L 3238 0 
L 159 0 
Q 209 463 459 877 
Q 709 1291 1447 1975 
Q 2041 2528 2175 2725 
Q 2356 2997 2356 3263 
Q 2356 3556 2198 3714 
Q 2041 3872 1763 3872 
Q 1488 3872 1325 3706 
Q 1163 3541 1138 3156 
L 263 3244 
Q 341 3969 753 4284 
Q 1166 4600 1784 4600 
Q 2463 4600 2850 4234 
Q 3238 3869 3238 3325 
Q 3238 3016 3127 2736 
Q 3016 2456 2775 2150 
Q 2616 1947 2200 1565 
Q 1784 1184 1673 1059 
Q 1563 934 1494 816 
L 3238 816 
z
" transform="scale(0.015625)"/>
       </defs>
       <use xlink:href="#Arial-BoldMT-32"/>
      </g>
     </g>
    </g>
    <g id="xtick_4">
     <g id="line2d_4">
      <g>
       <use xlink:href="#m4e15bf4163" x="808.909004" y="198.907885" style="stroke: #000000; stroke-width: 2"/>
      </g>
     </g>
     <g id="text_4">
      <!-- 3 -->
      <g transform="translate(803.90416 224.791947) scale(0.18 -0.18)">
       <defs>
        <path id="Arial-BoldMT-33" d="M 241 1216 
L 1091 1319 
Q 1131 994 1309 822 
Q 1488 650 1741 650 
Q 2013 650 2198 856 
Q 2384 1063 2384 1413 
Q 2384 1744 2206 1937 
Q 2028 2131 1772 2131 
Q 1603 2131 1369 2066 
L 1466 2781 
Q 1822 2772 2009 2936 
Q 2197 3100 2197 3372 
Q 2197 3603 2059 3740 
Q 1922 3878 1694 3878 
Q 1469 3878 1309 3722 
Q 1150 3566 1116 3266 
L 306 3403 
Q 391 3819 561 4067 
Q 731 4316 1036 4458 
Q 1341 4600 1719 4600 
Q 2366 4600 2756 4188 
Q 3078 3850 3078 3425 
Q 3078 2822 2419 2463 
Q 2813 2378 3048 2084 
Q 3284 1791 3284 1375 
Q 3284 772 2843 347 
Q 2403 -78 1747 -78 
Q 1125 -78 715 280 
Q 306 638 241 1216 
z
" transform="scale(0.015625)"/>
       </defs>
       <use xlink:href="#Arial-BoldMT-33"/>
      </g>
     </g>
    </g>
    <g id="xtick_5">
     <g id="line2d_5">
      <g>
       <use xlink:href="#m4e15bf4163" x="701.454502" y="198.907885" style="stroke: #000000; stroke-width: 2"/>
      </g>
     </g>
     <g id="text_5">
      <!-- 4 -->
      <g transform="translate(696.449658 224.791947) scale(0.18 -0.18)">
       <defs>
        <path id="Arial-BoldMT-34" d="M 1994 0 
L 1994 922 
L 119 922 
L 119 1691 
L 2106 4600 
L 2844 4600 
L 2844 1694 
L 3413 1694 
L 3413 922 
L 2844 922 
L 2844 0 
L 1994 0 
z
M 1994 1694 
L 1994 3259 
L 941 1694 
L 1994 1694 
z
" transform="scale(0.015625)"/>
       </defs>
       <use xlink:href="#Arial-BoldMT-34"/>
      </g>
     </g>
    </g>
    <g id="xtick_6">
     <g id="line2d_6">
      <g>
       <use xlink:href="#m4e15bf4163" x="594" y="198.907885" style="stroke: #000000; stroke-width: 2"/>
      </g>
     </g>
     <g id="text_6">
      <!-- 5 -->
      <g transform="translate(588.995156 224.791947) scale(0.18 -0.18)">
       <defs>
        <path id="Arial-BoldMT-35" d="M 284 1178 
L 1159 1269 
Q 1197 972 1381 798 
Q 1566 625 1806 625 
Q 2081 625 2272 848 
Q 2463 1072 2463 1522 
Q 2463 1944 2273 2155 
Q 2084 2366 1781 2366 
Q 1403 2366 1103 2031 
L 391 2134 
L 841 4519 
L 3163 4519 
L 3163 3697 
L 1506 3697 
L 1369 2919 
Q 1663 3066 1969 3066 
Q 2553 3066 2959 2641 
Q 3366 2216 3366 1538 
Q 3366 972 3038 528 
Q 2591 -78 1797 -78 
Q 1163 -78 763 262 
Q 363 603 284 1178 
z
" transform="scale(0.015625)"/>
       </defs>
       <use xlink:href="#Arial-BoldMT-35"/>
      </g>
     </g>
    </g>
    <g id="xtick_7">
     <g id="line2d_7">
      <g>
       <use xlink:href="#m4e15bf4163" x="486.545498" y="198.907885" style="stroke: #000000; stroke-width: 2"/>
      </g>
     </g>
     <g id="text_7">
      <!-- 6 -->
      <g transform="translate(481.540654 224.791947) scale(0.18 -0.18)">
       <defs>
        <path id="Arial-BoldMT-36" d="M 3247 3459 
L 2397 3366 
Q 2366 3628 2234 3753 
Q 2103 3878 1894 3878 
Q 1616 3878 1423 3628 
Q 1231 3378 1181 2588 
Q 1509 2975 1997 2975 
Q 2547 2975 2939 2556 
Q 3331 2138 3331 1475 
Q 3331 772 2918 347 
Q 2506 -78 1859 -78 
Q 1166 -78 719 461 
Q 272 1000 272 2228 
Q 272 3488 737 4044 
Q 1203 4600 1947 4600 
Q 2469 4600 2811 4308 
Q 3153 4016 3247 3459 
z
M 1256 1544 
Q 1256 1116 1453 883 
Q 1650 650 1903 650 
Q 2147 650 2309 840 
Q 2472 1031 2472 1466 
Q 2472 1913 2297 2120 
Q 2122 2328 1859 2328 
Q 1606 2328 1431 2129 
Q 1256 1931 1256 1544 
z
" transform="scale(0.015625)"/>
       </defs>
       <use xlink:href="#Arial-BoldMT-36"/>
      </g>
     </g>
    </g>
    <g id="xtick_8">
     <g id="line2d_8">
      <g>
       <use xlink:href="#m4e15bf4163" x="379.090996" y="198.907885" style="stroke: #000000; stroke-width: 2"/>
      </g>
     </g>
     <g id="text_8">
      <!-- 7 -->
      <g transform="translate(374.086153 224.791947) scale(0.18 -0.18)">
       <defs>
        <path id="Arial-BoldMT-37" d="M 272 3703 
L 272 4519 
L 3275 4519 
L 3275 3881 
Q 2903 3516 2518 2831 
Q 2134 2147 1932 1376 
Q 1731 606 1734 0 
L 888 0 
Q 909 950 1279 1937 
Q 1650 2925 2269 3703 
L 272 3703 
z
" transform="scale(0.015625)"/>
       </defs>
       <use xlink:href="#Arial-BoldMT-37"/>
      </g>
     </g>
    </g>
    <g id="xtick_9">
     <g id="line2d_9">
      <g>
       <use xlink:href="#m4e15bf4163" x="271.636495" y="198.907885" style="stroke: #000000; stroke-width: 2"/>
      </g>
     </g>
     <g id="text_9">
      <!-- 8 -->
      <g transform="translate(266.631651 224.791947) scale(0.18 -0.18)">
       <defs>
        <path id="Arial-BoldMT-38" d="M 1025 2472 
Q 684 2616 529 2867 
Q 375 3119 375 3419 
Q 375 3931 733 4265 
Q 1091 4600 1750 4600 
Q 2403 4600 2764 4265 
Q 3125 3931 3125 3419 
Q 3125 3100 2959 2851 
Q 2794 2603 2494 2472 
Q 2875 2319 3073 2025 
Q 3272 1731 3272 1347 
Q 3272 713 2867 316 
Q 2463 -81 1791 -81 
Q 1166 -81 750 247 
Q 259 634 259 1309 
Q 259 1681 443 1992 
Q 628 2303 1025 2472 
z
M 1206 3356 
Q 1206 3094 1354 2947 
Q 1503 2800 1750 2800 
Q 2000 2800 2150 2948 
Q 2300 3097 2300 3359 
Q 2300 3606 2151 3754 
Q 2003 3903 1759 3903 
Q 1506 3903 1356 3753 
Q 1206 3603 1206 3356 
z
M 1125 1394 
Q 1125 1031 1311 828 
Q 1497 625 1775 625 
Q 2047 625 2225 820 
Q 2403 1016 2403 1384 
Q 2403 1706 2222 1901 
Q 2041 2097 1763 2097 
Q 1441 2097 1283 1875 
Q 1125 1653 1125 1394 
z
" transform="scale(0.015625)"/>
       </defs>
       <use xlink:href="#Arial-BoldMT-38"/>
      </g>
     </g>
    </g>
    <g id="xtick_10">
     <g id="line2d_10">
      <g>
       <use xlink:href="#m4e15bf4163" x="164.181993" y="198.907885" style="stroke: #000000; stroke-width: 2"/>
      </g>
     </g>
     <g id="text_10">
      <!-- 9 -->
      <g transform="translate(159.177149 224.791947) scale(0.18 -0.18)">
       <defs>
        <path id="Arial-BoldMT-39" d="M 291 1059 
L 1141 1153 
Q 1172 894 1303 769 
Q 1434 644 1650 644 
Q 1922 644 2112 894 
Q 2303 1144 2356 1931 
Q 2025 1547 1528 1547 
Q 988 1547 595 1964 
Q 203 2381 203 3050 
Q 203 3747 617 4173 
Q 1031 4600 1672 4600 
Q 2369 4600 2816 4061 
Q 3263 3522 3263 2288 
Q 3263 1031 2797 475 
Q 2331 -81 1584 -81 
Q 1047 -81 715 205 
Q 384 491 291 1059 
z
M 2278 2978 
Q 2278 3403 2083 3637 
Q 1888 3872 1631 3872 
Q 1388 3872 1227 3680 
Q 1066 3488 1066 3050 
Q 1066 2606 1241 2398 
Q 1416 2191 1678 2191 
Q 1931 2191 2104 2391 
Q 2278 2591 2278 2978 
z
" transform="scale(0.015625)"/>
       </defs>
       <use xlink:href="#Arial-BoldMT-39"/>
      </g>
     </g>
    </g>
    <g id="xtick_11">
     <g id="line2d_11">
      <g>
       <use xlink:href="#m4e15bf4163" x="56.727491" y="198.907885" style="stroke: #000000; stroke-width: 2"/>
      </g>
     </g>
     <g id="text_11">
      <!-- 10 -->
      <g transform="translate(46.717803 224.791947) scale(0.18 -0.18)">
       <use xlink:href="#Arial-BoldMT-31"/>
       <use xlink:href="#Arial-BoldMT-30" x="55.615234"/>
      </g>
     </g>
    </g>
    <g id="text_12">
     <!-- Chemical Shift / ppm -->
     <g transform="translate(504.992813 245.447573) scale(0.18 -0.18)">
      <defs>
       <path id="Arial-BoldMT-43" d="M 3397 1684 
L 4294 1400 
Q 4088 650 3608 286 
Q 3128 -78 2391 -78 
Q 1478 -78 890 545 
Q 303 1169 303 2250 
Q 303 3394 893 4026 
Q 1484 4659 2447 4659 
Q 3288 4659 3813 4163 
Q 4125 3869 4281 3319 
L 3366 3100 
Q 3284 3456 3026 3662 
Q 2769 3869 2400 3869 
Q 1891 3869 1573 3503 
Q 1256 3138 1256 2319 
Q 1256 1450 1568 1081 
Q 1881 713 2381 713 
Q 2750 713 3015 947 
Q 3281 1181 3397 1684 
z
" transform="scale(0.015625)"/>
       <path id="Arial-BoldMT-68" d="M 1334 4581 
L 1334 2897 
Q 1759 3394 2350 3394 
Q 2653 3394 2897 3281 
Q 3141 3169 3264 2994 
Q 3388 2819 3433 2606 
Q 3478 2394 3478 1947 
L 3478 0 
L 2600 0 
L 2600 1753 
Q 2600 2275 2550 2415 
Q 2500 2556 2373 2639 
Q 2247 2722 2056 2722 
Q 1838 2722 1666 2615 
Q 1494 2509 1414 2295 
Q 1334 2081 1334 1663 
L 1334 0 
L 456 0 
L 456 4581 
L 1334 4581 
z
" transform="scale(0.015625)"/>
       <path id="Arial-BoldMT-65" d="M 2381 1056 
L 3256 909 
Q 3088 428 2723 176 
Q 2359 -75 1813 -75 
Q 947 -75 531 491 
Q 203 944 203 1634 
Q 203 2459 634 2926 
Q 1066 3394 1725 3394 
Q 2466 3394 2894 2905 
Q 3322 2416 3303 1406 
L 1103 1406 
Q 1113 1016 1316 798 
Q 1519 581 1822 581 
Q 2028 581 2168 693 
Q 2309 806 2381 1056 
z
M 2431 1944 
Q 2422 2325 2234 2523 
Q 2047 2722 1778 2722 
Q 1491 2722 1303 2513 
Q 1116 2303 1119 1944 
L 2431 1944 
z
" transform="scale(0.015625)"/>
       <path id="Arial-BoldMT-6d" d="M 394 3319 
L 1203 3319 
L 1203 2866 
Q 1638 3394 2238 3394 
Q 2556 3394 2790 3262 
Q 3025 3131 3175 2866 
Q 3394 3131 3647 3262 
Q 3900 3394 4188 3394 
Q 4553 3394 4806 3245 
Q 5059 3097 5184 2809 
Q 5275 2597 5275 2122 
L 5275 0 
L 4397 0 
L 4397 1897 
Q 4397 2391 4306 2534 
Q 4184 2722 3931 2722 
Q 3747 2722 3584 2609 
Q 3422 2497 3350 2280 
Q 3278 2063 3278 1594 
L 3278 0 
L 2400 0 
L 2400 1819 
Q 2400 2303 2353 2443 
Q 2306 2584 2207 2653 
Q 2109 2722 1941 2722 
Q 1738 2722 1575 2612 
Q 1413 2503 1342 2297 
Q 1272 2091 1272 1613 
L 1272 0 
L 394 0 
L 394 3319 
z
" transform="scale(0.015625)"/>
       <path id="Arial-BoldMT-69" d="M 459 3769 
L 459 4581 
L 1338 4581 
L 1338 3769 
L 459 3769 
z
M 459 0 
L 459 3319 
L 1338 3319 
L 1338 0 
L 459 0 
z
" transform="scale(0.015625)"/>
       <path id="Arial-BoldMT-63" d="M 3353 2338 
L 2488 2181 
Q 2444 2441 2289 2572 
Q 2134 2703 1888 2703 
Q 1559 2703 1364 2476 
Q 1169 2250 1169 1719 
Q 1169 1128 1367 884 
Q 1566 641 1900 641 
Q 2150 641 2309 783 
Q 2469 925 2534 1272 
L 3397 1125 
Q 3263 531 2881 228 
Q 2500 -75 1859 -75 
Q 1131 -75 698 384 
Q 266 844 266 1656 
Q 266 2478 700 2936 
Q 1134 3394 1875 3394 
Q 2481 3394 2839 3133 
Q 3197 2872 3353 2338 
z
" transform="scale(0.015625)"/>
       <path id="Arial-BoldMT-61" d="M 1116 2306 
L 319 2450 
Q 453 2931 781 3162 
Q 1109 3394 1756 3394 
Q 2344 3394 2631 3255 
Q 2919 3116 3036 2902 
Q 3153 2688 3153 2116 
L 3144 1091 
Q 3144 653 3186 445 
Q 3228 238 3344 0 
L 2475 0 
Q 2441 88 2391 259 
Q 2369 338 2359 363 
Q 2134 144 1878 34 
Q 1622 -75 1331 -75 
Q 819 -75 523 203 
Q 228 481 228 906 
Q 228 1188 362 1408 
Q 497 1628 739 1745 
Q 981 1863 1438 1950 
Q 2053 2066 2291 2166 
L 2291 2253 
Q 2291 2506 2166 2614 
Q 2041 2722 1694 2722 
Q 1459 2722 1328 2630 
Q 1197 2538 1116 2306 
z
M 2291 1594 
Q 2122 1538 1756 1459 
Q 1391 1381 1278 1306 
Q 1106 1184 1106 997 
Q 1106 813 1243 678 
Q 1381 544 1594 544 
Q 1831 544 2047 700 
Q 2206 819 2256 991 
Q 2291 1103 2291 1419 
L 2291 1594 
z
" transform="scale(0.015625)"/>
       <path id="Arial-BoldMT-6c" d="M 459 0 
L 459 4581 
L 1338 4581 
L 1338 0 
L 459 0 
z
" transform="scale(0.015625)"/>
       <path id="Arial-BoldMT-20" transform="scale(0.015625)"/>
       <path id="Arial-BoldMT-53" d="M 231 1491 
L 1131 1578 
Q 1213 1125 1461 912 
Q 1709 700 2131 700 
Q 2578 700 2804 889 
Q 3031 1078 3031 1331 
Q 3031 1494 2936 1608 
Q 2841 1722 2603 1806 
Q 2441 1863 1863 2006 
Q 1119 2191 819 2459 
Q 397 2838 397 3381 
Q 397 3731 595 4036 
Q 794 4341 1167 4500 
Q 1541 4659 2069 4659 
Q 2931 4659 3367 4281 
Q 3803 3903 3825 3272 
L 2900 3231 
Q 2841 3584 2645 3739 
Q 2450 3894 2059 3894 
Q 1656 3894 1428 3728 
Q 1281 3622 1281 3444 
Q 1281 3281 1419 3166 
Q 1594 3019 2269 2859 
Q 2944 2700 3267 2529 
Q 3591 2359 3773 2064 
Q 3956 1769 3956 1334 
Q 3956 941 3737 597 
Q 3519 253 3119 86 
Q 2719 -81 2122 -81 
Q 1253 -81 787 320 
Q 322 722 231 1491 
z
" transform="scale(0.015625)"/>
       <path id="Arial-BoldMT-66" d="M 75 3319 
L 563 3319 
L 563 3569 
Q 563 3988 652 4194 
Q 741 4400 980 4529 
Q 1219 4659 1584 4659 
Q 1959 4659 2319 4547 
L 2200 3934 
Q 1991 3984 1797 3984 
Q 1606 3984 1523 3895 
Q 1441 3806 1441 3553 
L 1441 3319 
L 2097 3319 
L 2097 2628 
L 1441 2628 
L 1441 0 
L 563 0 
L 563 2628 
L 75 2628 
L 75 3319 
z
" transform="scale(0.015625)"/>
       <path id="Arial-BoldMT-74" d="M 1981 3319 
L 1981 2619 
L 1381 2619 
L 1381 1281 
Q 1381 875 1398 808 
Q 1416 741 1477 697 
Q 1538 653 1625 653 
Q 1747 653 1978 738 
L 2053 56 
Q 1747 -75 1359 -75 
Q 1122 -75 931 4 
Q 741 84 652 211 
Q 563 338 528 553 
Q 500 706 500 1172 
L 500 2619 
L 97 2619 
L 97 3319 
L 500 3319 
L 500 3978 
L 1381 4491 
L 1381 3319 
L 1981 3319 
z
" transform="scale(0.015625)"/>
       <path id="Arial-BoldMT-2f" d="M -9 -78 
L 1125 4659 
L 1784 4659 
L 638 -78 
L -9 -78 
z
" transform="scale(0.015625)"/>
       <path id="Arial-BoldMT-70" d="M 434 3319 
L 1253 3319 
L 1253 2831 
Q 1413 3081 1684 3237 
Q 1956 3394 2288 3394 
Q 2866 3394 3269 2941 
Q 3672 2488 3672 1678 
Q 3672 847 3265 386 
Q 2859 -75 2281 -75 
Q 2006 -75 1782 34 
Q 1559 144 1313 409 
L 1313 -1263 
L 434 -1263 
L 434 3319 
z
M 1303 1716 
Q 1303 1156 1525 889 
Q 1747 622 2066 622 
Q 2372 622 2575 867 
Q 2778 1113 2778 1672 
Q 2778 2194 2568 2447 
Q 2359 2700 2050 2700 
Q 1728 2700 1515 2451 
Q 1303 2203 1303 1716 
z
" transform="scale(0.015625)"/>
      </defs>
      <use xlink:href="#Arial-BoldMT-43"/>
      <use xlink:href="#Arial-BoldMT-68" x="72.216797"/>
      <use xlink:href="#Arial-BoldMT-65" x="133.300781"/>
      <use xlink:href="#Arial-BoldMT-6d" x="188.916016"/>
      <use xlink:href="#Arial-BoldMT-69" x="277.832031"/>
      <use xlink:href="#Arial-BoldMT-63" x="305.615234"/>
      <use xlink:href="#Arial-BoldMT-61" x="361.230469"/>
      <use xlink:href="#Arial-BoldMT-6c" x="416.845703"/>
      <use xlink:href="#Arial-BoldMT-20" x="444.628906"/>
      <use xlink:href="#Arial-BoldMT-53" x="472.412109"/>
      <use xlink:href="#Arial-BoldMT-68" x="539.111328"/>
      <use xlink:href="#Arial-BoldMT-69" x="600.195312"/>
      <use xlink:href="#Arial-BoldMT-66" x="627.978516"/>
      <use xlink:href="#Arial-BoldMT-74" x="661.279297"/>
      <use xlink:href="#Arial-BoldMT-20" x="694.580078"/>
      <use xlink:href="#Arial-BoldMT-2f" x="722.363281"/>
      <use xlink:href="#Arial-BoldMT-20" x="750.146484"/>
      <use xlink:href="#Arial-BoldMT-70" x="777.929688"/>
      <use xlink:href="#Arial-BoldMT-70" x="839.013672"/>
      <use xlink:href="#Arial-BoldMT-6d" x="900.097656"/>
     </g>
    </g>
   </g>
   <g id="matplotlib.axis_2"/>
   <g id="line2d_12">
    <path d="M 3.031364 184.988448 
L 3.849843 184.620954 
L 4.259083 184.862717 
L 4.872942 185.338765 
L 5.486801 185.418666 
L 6.5099 185.23388 
L 7.328379 185.079971 
L 7.737618 185.032904 
L 8.351477 184.549192 
L 9.169956 184.032108 
L 10.193055 183.787478 
L 10.806914 183.81352 
L 11.216153 183.776002 
L 11.830013 183.509068 
L 12.239252 183.770619 
L 12.648491 183.975257 
L 13.057731 183.839486 
L 13.67159 183.498351 
L 14.285449 183.400506 
L 14.694689 183.607846 
L 15.717787 184.212777 
L 16.127027 184.369083 
L 16.740886 184.822386 
L 17.150125 184.883756 
L 18.173224 185.395243 
L 18.582463 185.323005 
L 19.196323 185.099926 
L 20.424041 184.761541 
L 21.0379 184.802673 
L 21.856379 184.937532 
L 22.879478 184.839701 
L 23.288717 184.978229 
L 23.697957 184.844026 
L 25.130295 183.692667 
L 25.334914 183.695631 
L 25.744154 184.13139 
L 26.153393 184.627387 
L 26.767253 184.955994 
L 28.199591 185.373085 
L 28.60883 185.223647 
L 29.631929 184.689938 
L 30.041168 184.427869 
L 30.450408 184.458955 
L 31.064267 184.512876 
L 31.473506 184.559253 
L 32.701225 184.819491 
L 33.315084 184.785206 
L 34.133563 184.835244 
L 35.156661 184.36265 
L 35.770521 184.463238 
L 36.17976 184.453565 
L 36.998239 184.583235 
L 37.816718 184.032578 
L 38.225957 184.200036 
L 39.249056 184.792323 
L 40.272155 184.625459 
L 40.886014 184.347705 
L 41.295253 184.222036 
L 41.909112 183.809589 
L 42.727591 184.058426 
L 43.136831 184.045022 
L 43.95531 184.534593 
L 44.364549 184.423343 
L 44.978408 184.121648 
L 46.410746 184.269227 
L 47.638465 184.045167 
L 48.252324 184.283786 
L 48.661563 184.173801 
L 49.070803 184.095199 
L 51.32162 184.213337 
L 51.730859 184.056063 
L 53.777057 182.908013 
L 54.186296 182.935036 
L 54.595535 182.674397 
L 55.004775 182.446529 
L 56.027873 182.426388 
L 56.641733 182.223353 
L 57.050972 182.172292 
L 57.664831 181.99912 
L 58.48331 181.945427 
L 58.89255 181.939609 
L 59.301789 181.924906 
L 59.915648 182.297354 
L 60.324888 182.237663 
L 61.757226 181.617434 
L 62.371085 181.668053 
L 62.984944 181.91933 
L 64.008043 181.94077 
L 65.440381 181.256324 
L 66.46348 180.170646 
L 67.077339 179.485696 
L 67.486578 179.251292 
L 67.895818 179.003456 
L 68.305057 178.446332 
L 70.351254 175.087333 
L 70.965114 174.051306 
L 71.988212 171.572665 
L 72.602071 169.034173 
L 75.466748 155.760372 
L 75.671367 155.391517 
L 75.875987 155.262116 
L 76.285226 155.426845 
L 77.103705 156.078622 
L 77.512945 156.411769 
L 77.922184 156.484637 
L 78.126804 156.395256 
L 78.536043 155.8841 
L 78.945283 155.138222 
L 79.559142 153.23782 
L 80.377621 150.444431 
L 81.1961 148.634371 
L 81.605339 148.290901 
L 81.809959 148.455637 
L 82.219199 149.497226 
L 82.628438 151.221747 
L 83.446917 156.292063 
L 85.902354 172.187103 
L 86.925452 176.749068 
L 87.743931 178.962746 
L 88.35779 180.143043 
L 89.176269 181.161181 
L 90.199368 182.144454 
L 91.222467 183.495387 
L 91.836326 183.659999 
L 92.450185 183.735733 
L 93.064044 184.046003 
L 93.677903 184.194246 
L 94.087143 184.204645 
L 94.496382 184.052698 
L 96.542579 184.425223 
L 97.565678 185.04418 
L 97.974917 185.191124 
L 98.588777 185.017565 
L 99.407256 185.341177 
L 100.225734 184.970725 
L 101.044213 184.909245 
L 101.453453 184.959594 
L 102.067312 185.195104 
L 102.476551 185.327772 
L 102.885791 185.457394 
L 104.113509 185.133803 
L 104.727368 185.104638 
L 105.341228 185.066083 
L 107.182805 185.438248 
L 107.592045 185.509851 
L 109.024383 185.047448 
L 109.842862 185.448177 
L 110.456721 185.780661 
L 110.86596 185.617438 
L 111.2752 185.324905 
L 112.298298 185.159319 
L 112.912158 185.242509 
L 113.730636 185.162249 
L 114.139876 185.178846 
L 115.162975 184.947565 
L 115.981453 185.15203 
L 116.595313 185.637082 
L 117.004552 186.008874 
L 117.209172 186.000741 
L 118.43689 185.111036 
L 121.301566 185.302739 
L 121.710806 185.089022 
L 123.143144 185.418121 
L 124.166243 185.385259 
L 124.575482 185.381196 
L 125.393961 185.572534 
L 126.826299 185.371958 
L 127.235538 185.483083 
L 128.258637 185.081595 
L 129.281736 185.033125 
L 129.895595 185.429998 
L 130.304834 185.366383 
L 130.714074 185.230715 
L 131.123313 185.205143 
L 131.737172 184.880267 
L 132.146412 184.759054 
L 132.760271 184.915553 
L 133.78337 184.726607 
L 134.601849 184.208694 
L 136.648046 184.75884 
L 137.057285 184.683609 
L 138.489623 185.087281 
L 139.103483 184.99609 
L 139.512722 184.752269 
L 139.921961 184.458768 
L 140.331201 184.433148 
L 140.94506 184.934167 
L 141.3543 185.166519 
L 141.763539 185.099477 
L 142.172778 185.036352 
L 142.786638 185.072695 
L 143.195877 185.016798 
L 144.218976 185.046377 
L 145.242074 184.472166 
L 145.651314 184.692059 
L 146.060553 184.949762 
L 146.674412 184.986396 
L 147.288272 184.881752 
L 148.72061 184.435967 
L 149.129849 184.380622 
L 149.743708 183.818889 
L 150.152948 183.859634 
L 151.176046 184.29757 
L 153.426863 183.918026 
L 154.245342 183.991529 
L 154.654582 183.706707 
L 155.063821 183.393991 
L 155.473061 183.343662 
L 156.29154 183.651852 
L 157.110019 183.425007 
L 157.928497 183.463438 
L 158.951596 182.922088 
L 159.360836 182.977101 
L 159.974695 183.088081 
L 162.020892 182.954645 
L 162.634751 182.993359 
L 163.86247 183.022772 
L 164.476329 183.013293 
L 165.294808 183.021992 
L 165.704047 182.945234 
L 166.522526 182.567466 
L 167.954864 182.510304 
L 168.977963 182.48516 
L 169.387202 182.620151 
L 170.001061 182.406399 
L 171.02416 181.746655 
L 171.638019 182.10223 
L 172.047259 181.986745 
L 172.865737 181.337635 
L 173.274977 181.362592 
L 173.684216 181.397043 
L 175.116554 180.955203 
L 175.730414 181.142836 
L 176.344273 181.115122 
L 176.958132 180.871564 
L 177.776611 181.011411 
L 178.39047 180.643731 
L 179.413569 180.164752 
L 179.822808 180.158444 
L 181.255146 179.673454 
L 181.869005 179.716922 
L 182.278245 179.553195 
L 182.892104 178.970201 
L 183.505963 178.287214 
L 183.915203 178.274873 
L 184.529062 178.255485 
L 184.938301 178.094066 
L 186.16602 176.967553 
L 186.575259 176.589695 
L 187.393738 175.591718 
L 188.007597 175.361722 
L 188.416837 174.908606 
L 189.644555 173.136029 
L 190.872273 171.674199 
L 192.304612 167.865063 
L 194.146189 164.276255 
L 194.760048 163.338902 
L 196.601626 159.305677 
L 197.215485 156.495381 
L 198.443203 149.240283 
L 200.69402 134.328219 
L 201.512499 127.770943 
L 202.126358 120.734392 
L 202.740218 111.378103 
L 203.354077 99.282505 
L 204.172556 78.448077 
L 206.832612 5.894915 
L 207.037232 3.885184 
L 207.241852 3.00024 
L 207.446471 3.18227 
L 207.651091 4.398005 
L 208.060331 9.685721 
L 208.67419 22.570988 
L 209.288049 40.963893 
L 210.106528 73.446621 
L 211.334246 122.277989 
L 211.948105 138.607973 
L 212.561964 150.461021 
L 213.175824 158.171343 
L 213.789683 162.925142 
L 214.403542 166.378255 
L 215.017401 168.769402 
L 215.426641 169.814114 
L 215.83588 170.423896 
L 216.24512 170.642981 
L 217.268218 170.441826 
L 217.677458 169.838187 
L 218.291317 167.964365 
L 218.905176 165.253565 
L 219.519035 161.277938 
L 220.337514 153.65024 
L 220.951373 145.851318 
L 221.769852 131.753128 
L 222.792951 114.642227 
L 223.20219 110.946026 
L 223.40681 110.427263 
L 223.61143 110.640365 
L 224.020669 112.246029 
L 224.429909 114.947377 
L 224.839148 120.149111 
L 225.453007 133.07587 
L 226.271486 150.555805 
L 227.089965 162.957375 
L 227.703824 169.61432 
L 228.317683 173.976981 
L 228.931543 177.028812 
L 229.954641 180.571437 
L 230.363881 181.132154 
L 230.77312 181.27109 
L 231.18236 181.14665 
L 231.591599 180.502536 
L 231.796219 180.083822 
L 232.000839 179.946724 
L 232.205458 180.324907 
L 233.023937 183.113618 
L 233.637796 184.025523 
L 234.660895 184.655577 
L 235.274754 184.783866 
L 236.093233 185.277699 
L 236.502473 185.369084 
L 237.730191 186.114139 
L 238.75329 186.013475 
L 239.571768 186.19574 
L 240.185628 186.117366 
L 241.208726 186.659974 
L 241.822585 186.347051 
L 242.436445 186.008452 
L 243.050304 185.939682 
L 243.459543 186.09992 
L 244.278022 186.567553 
L 244.687262 186.488971 
L 245.505741 186.260475 
L 246.733459 186.147782 
L 247.142698 186.389136 
L 249.393515 186.530483 
L 250.007374 186.414978 
L 251.030473 185.65381 
L 252.053572 185.675243 
L 252.462811 185.194793 
L 252.667431 185.099884 
L 253.07667 185.234087 
L 253.48591 185.298407 
L 254.099769 185.26898 
L 254.509008 185.186073 
L 255.122868 184.842002 
L 255.941347 184.276793 
L 256.555206 184.379026 
L 257.578304 184.272503 
L 258.192164 183.709305 
L 258.601403 183.71486 
L 259.215262 183.912077 
L 260.238361 183.583587 
L 260.85222 182.799286 
L 261.466079 181.956855 
L 262.079938 181.365335 
L 263.716896 178.503107 
L 265.558474 175.399455 
L 265.967713 175.261694 
L 266.581572 175.313356 
L 267.195432 175.019192 
L 267.809291 174.571016 
L 268.62777 174.27033 
L 269.241629 173.668494 
L 269.650868 172.807505 
L 270.060108 171.442041 
L 270.878587 167.564735 
L 271.287826 164.44817 
L 271.901685 157.948353 
L 272.720164 146.044998 
L 273.743263 126.755914 
L 274.766361 107.298605 
L 275.380221 98.69719 
L 275.78946 94.949928 
L 275.99408 93.925073 
L 276.1987 93.501018 
L 276.403319 93.699866 
L 276.607939 94.485563 
L 277.017178 97.608312 
L 277.426418 102.751565 
L 278.040277 113.917431 
L 280.291094 159.683819 
L 281.109573 170.96774 
L 281.723432 176.22314 
L 282.541911 180.971488 
L 283.15577 183.202847 
L 283.56501 183.972825 
L 285.611207 186.256682 
L 286.634306 186.270521 
L 287.248165 186.823113 
L 287.862024 187.289378 
L 289.908221 187.56052 
L 290.317461 187.614974 
L 290.7267 187.846227 
L 291.13594 187.785409 
L 291.749799 187.534001 
L 292.363658 187.505866 
L 293.182137 187.687364 
L 293.795996 187.157401 
L 294.205235 187.267033 
L 294.614475 187.339147 
L 296.251433 186.723541 
L 299.320729 185.05538 
L 299.729968 185.103491 
L 300.753067 184.788274 
L 301.366926 185.34307 
L 302.390025 186.120033 
L 302.799264 186.162844 
L 303.208503 186.687239 
L 303.822363 187.480515 
L 304.231602 187.702309 
L 304.640842 187.627811 
L 305.050081 187.391625 
L 305.45932 187.414474 
L 305.86856 187.445795 
L 306.891659 186.993128 
L 307.914757 187.309471 
L 308.528616 187.037279 
L 309.142476 187.008398 
L 309.756335 186.916758 
L 310.370194 187.026715 
L 311.393293 186.6852 
L 312.211771 186.750301 
L 312.825631 186.952963 
L 313.23487 186.935261 
L 313.64411 186.648083 
L 314.257969 186.166078 
L 315.894927 186.159728 
L 316.918025 185.704719 
L 317.531884 185.96846 
L 318.554983 186.781643 
L 318.964222 186.575609 
L 319.373462 186.406002 
L 319.987321 186.593664 
L 321.01042 187.297311 
L 321.828899 187.078646 
L 323.056617 187.223814 
L 323.670476 187.399412 
L 324.284335 187.277301 
L 325.716673 186.67313 
L 326.535152 186.526987 
L 327.149011 186.705708 
L 327.762871 186.444868 
L 328.58135 185.910186 
L 328.990589 186.071577 
L 329.809068 186.469894 
L 331.446026 186.259356 
L 332.059885 186.16708 
L 332.673744 186.609334 
L 333.082984 186.79238 
L 333.492223 186.705134 
L 334.310702 186.022713 
L 334.719941 186.078611 
L 335.53842 186.386939 
L 336.561519 186.056653 
L 337.175378 186.294318 
L 337.584618 186.112046 
L 338.198477 185.813881 
L 340.449294 185.72222 
L 341.063153 185.751572 
L 342.290871 185.59521 
L 342.90473 185.296852 
L 343.723209 185.205171 
L 344.337069 185.175045 
L 344.950928 184.909812 
L 345.564787 184.60793 
L 346.383266 184.243835 
L 347.610984 183.279155 
L 348.429463 183.140455 
L 349.043322 182.6889 
L 349.452562 182.157112 
L 350.271041 180.82176 
L 351.08952 180.370558 
L 351.907998 180.177196 
L 352.931097 179.457126 
L 354.977294 177.234549 
L 355.181914 177.154074 
L 356.000393 177.305136 
L 356.614252 176.737751 
L 357.432731 175.852025 
L 358.865069 173.382041 
L 359.888168 171.107574 
L 361.729745 166.842937 
L 362.343605 165.896547 
L 364.185182 163.401861 
L 365.208281 161.878185 
L 366.231379 160.849696 
L 367.459098 160.183505 
L 369.096055 160.677318 
L 369.505295 160.972747 
L 369.914534 161.026751 
L 370.937633 160.772897 
L 371.346872 160.112414 
L 372.369971 157.80561 
L 372.98383 155.473042 
L 373.597689 153.068455 
L 374.006929 152.185335 
L 374.416168 151.671885 
L 374.620788 151.550728 
L 374.825408 151.603212 
L 375.030028 151.878935 
L 375.439267 153.223677 
L 376.053126 156.814295 
L 376.871605 161.453556 
L 377.690084 165.17555 
L 378.917802 168.279133 
L 379.327042 168.890152 
L 380.35014 169.805215 
L 381.168619 170.336215 
L 381.987098 170.630399 
L 382.600957 170.967402 
L 383.419436 171.847012 
L 383.828676 172.619546 
L 384.647155 174.742993 
L 385.670253 177.624913 
L 387.102591 180.925955 
L 387.92107 182.329055 
L 388.944169 183.26591 
L 390.171887 184.75649 
L 390.785747 185.154186 
L 391.808845 185.399603 
L 393.036564 186.074189 
L 393.855042 185.671325 
L 395.287381 186.172925 
L 395.69662 186.099015 
L 396.924338 186.501975 
L 399.175155 187.543129 
L 399.584395 187.77461 
L 399.993634 187.601908 
L 400.402874 187.443156 
L 401.630592 187.528495 
L 402.039832 187.777077 
L 402.449071 187.516527 
L 402.85831 187.221859 
L 404.290648 187.147161 
L 405.313747 187.402825 
L 406.132226 187.043208 
L 406.541465 187.303336 
L 406.950705 187.656465 
L 408.178423 187.655352 
L 408.792282 187.486374 
L 411.043099 187.195499 
L 411.452339 187.047927 
L 411.861578 187.128726 
L 413.293916 187.653756 
L 414.112395 187.111902 
L 415.135494 187.180706 
L 415.749353 187.095388 
L 416.567832 187.143395 
L 417.181691 187.212421 
L 418.20479 186.964668 
L 421.887945 187.574539 
L 422.501804 187.609529 
L 423.524903 187.826846 
L 424.548001 188.084762 
L 425.161861 188.124734 
L 425.5711 188.225038 
L 425.98034 188.061857 
L 426.594199 187.660873 
L 427.208058 187.593133 
L 427.821917 187.640946 
L 429.049635 187.399205 
L 429.868114 187.362315 
L 430.686593 186.911582 
L 431.095833 187.057041 
L 431.505072 187.359648 
L 432.118931 187.357471 
L 432.528171 187.269072 
L 433.34665 186.665211 
L 434.165129 186.689484 
L 434.574368 186.950648 
L 435.188227 187.537456 
L 436.415946 187.362225 
L 437.029805 187.493899 
L 437.848284 187.2841 
L 438.462143 187.450611 
L 438.871382 187.558067 
L 439.280622 187.326634 
L 439.689861 186.932677 
L 440.099101 186.897252 
L 441.531439 187.314163 
L 442.349918 187.137025 
L 442.759157 187.280659 
L 443.168397 187.499475 
L 443.577636 187.488323 
L 444.191495 187.047402 
L 444.600735 186.711601 
L 445.009974 186.755518 
L 445.419214 186.874154 
L 446.237692 187.557259 
L 446.851552 187.419325 
L 447.465411 187.09268 
L 448.693129 187.139201 
L 449.102369 186.970451 
L 449.511608 187.142663 
L 450.125467 187.599911 
L 451.557805 187.027889 
L 454.013242 186.984767 
L 454.422482 187.159501 
L 455.036341 187.020144 
L 456.059439 187.092279 
L 456.673299 186.921 
L 457.287158 186.970921 
L 458.310256 186.660893 
L 459.333355 186.616755 
L 459.947214 186.455364 
L 460.561073 186.366308 
L 461.174933 186.160882 
L 462.607271 186.303583 
L 464.039609 186.042274 
L 465.062707 186.160433 
L 465.676567 185.741366 
L 466.904285 185.41119 
L 467.518144 185.149453 
L 468.336623 184.918669 
L 468.745862 185.03944 
L 469.155102 184.783271 
L 470.996679 183.083721 
L 471.610539 182.776809 
L 472.838257 181.410109 
L 473.452116 180.893308 
L 474.065975 180.208676 
L 475.293694 178.581992 
L 475.907553 177.963961 
L 477.95375 174.976091 
L 478.976849 172.230073 
L 479.590708 170.019712 
L 479.999947 168.00053 
L 480.409187 165.097301 
L 480.818426 160.862236 
L 481.227666 154.576717 
L 482.250764 134.37208 
L 482.455384 136.772576 
L 483.478483 159.804382 
L 483.887722 163.638442 
L 484.296962 165.614178 
L 484.910821 167.228486 
L 485.52468 168.33092 
L 485.933919 168.822653 
L 486.343159 169.199102 
L 487.570877 170.757188 
L 488.184736 170.974062 
L 488.798596 171.04704 
L 489.207835 171.128814 
L 490.026314 170.820209 
L 491.049413 170.958551 
L 491.663272 171.108051 
L 492.481751 171.774753 
L 492.89099 172.356772 
L 494.118709 174.568391 
L 494.527948 174.830405 
L 495.755666 176.242279 
L 496.369526 177.03291 
L 497.188004 178.409829 
L 497.597244 178.647667 
L 498.415723 178.767028 
L 499.438821 179.52014 
L 500.052681 180.289116 
L 500.46192 180.661916 
L 501.280399 181.840113 
L 501.894258 182.348049 
L 503.940455 183.361171 
L 504.554315 183.485154 
L 504.963554 183.763606 
L 505.577413 184.249646 
L 506.191272 184.643154 
L 506.600512 184.864216 
L 507.418991 184.774932 
L 508.646709 184.41691 
L 508.851329 184.270457 
L 509.055949 184.264964 
L 510.283667 185.048865 
L 510.692906 184.990162 
L 511.511385 185.124019 
L 513.352963 184.684376 
L 514.171442 184.576713 
L 514.785301 183.989518 
L 515.39916 183.595858 
L 516.013019 183.507023 
L 516.626879 183.495415 
L 517.240738 183.457627 
L 518.059217 183.423784 
L 518.877695 183.248415 
L 519.491555 183.244774 
L 520.923893 182.496215 
L 523.17471 180.914112 
L 524.197808 180.334428 
L 527.062485 177.105342 
L 527.880963 175.72011 
L 528.494823 174.618823 
L 529.108682 173.941397 
L 531.154879 170.170518 
L 531.768738 168.474761 
L 533.201076 163.872389 
L 534.224175 160.310121 
L 536.065753 153.750704 
L 537.088851 148.676367 
L 538.521189 139.988189 
L 539.953527 128.917349 
L 540.976626 119.281316 
L 542.204344 106.094029 
L 543.636682 88.162318 
L 544.659781 71.287293 
L 545.68288 51.696279 
L 546.910598 24.679338 
L 547.905801 -1 
M 569.514886 -1 
L 570.237247 26.835922 
L 571.055726 51.409198 
L 571.874205 69.859154 
L 572.897303 87.781571 
L 573.920402 101.973786 
L 574.943501 113.417399 
L 576.171219 124.453498 
L 577.194318 131.414577 
L 579.854374 145.658509 
L 580.672853 148.830317 
L 582.105191 153.332052 
L 582.71905 155.352333 
L 583.946769 157.81963 
L 584.560628 159.371594 
L 585.174487 160.773028 
L 585.992966 161.832292 
L 587.220684 163.371881 
L 587.834543 163.940123 
L 589.062262 165.026278 
L 589.471501 165.121885 
L 590.08536 165.122907 
L 590.4946 165.167639 
L 592.336177 164.704843 
L 592.950037 164.78683 
L 593.973135 164.675173 
L 594.996234 163.79691 
L 595.814713 162.425194 
L 596.428572 162.365213 
L 596.837811 162.452908 
L 597.65629 162.827739 
L 598.474769 162.935997 
L 599.088628 163.491104 
L 599.702488 163.799957 
L 600.520966 164.486192 
L 601.748685 165.109372 
L 602.157924 165.187739 
L 603.385643 165.787101 
L 604.613361 166.868551 
L 605.63646 167.917208 
L 606.454939 168.410994 
L 607.682657 168.765021 
L 608.705756 168.28093 
L 609.933474 167.548339 
L 610.342713 167.434872 
L 611.365812 166.618932 
L 611.979671 165.892733 
L 612.59353 164.734719 
L 613.616629 161.855439 
L 614.639728 158.686229 
L 614.844347 158.659345 
L 615.048967 159.08293 
L 615.662826 161.146755 
L 616.072066 161.646068 
L 616.276685 161.558435 
L 616.685925 160.809994 
L 617.913643 157.489274 
L 618.936742 153.713026 
L 619.959841 147.993918 
L 620.982939 140.69813 
L 621.801418 132.651034 
L 622.415277 126.324521 
L 622.619897 125.203957 
L 622.824517 125.321977 
L 623.029136 127.115483 
L 623.438376 136.15556 
L 624.052235 151.016176 
L 624.461475 155.740535 
L 624.870714 157.570281 
L 625.075334 157.635513 
L 625.279953 157.296057 
L 625.689193 155.813575 
L 626.507672 151.595805 
L 627.73539 143.61209 
L 628.758489 135.463659 
L 629.372348 128.428939 
L 630.190827 116.609617 
L 630.804686 107.324267 
L 631.009306 105.730321 
L 631.213926 105.844224 
L 631.418545 108.397909 
L 631.827785 121.36978 
L 632.441644 143.942715 
L 632.850883 152.166175 
L 633.260123 156.290861 
L 633.669362 158.181368 
L 634.078602 159.135794 
L 634.487841 159.683253 
L 635.30632 159.958471 
L 635.715559 159.960212 
L 636.124799 159.775176 
L 636.534038 159.204025 
L 636.943278 158.134494 
L 637.352517 156.041581 
L 637.761757 152.850455 
L 638.170996 148.277959 
L 638.784855 137.933112 
L 639.807954 116.04731 
L 640.012574 114.595713 
L 640.217193 115.361731 
L 640.626433 121.54108 
L 641.444912 134.4362 
L 642.058771 141.095003 
L 643.08187 149.103192 
L 644.923447 163.308874 
L 645.537306 166.50029 
L 645.946546 167.744361 
L 646.151166 168.065893 
L 646.355785 168.179969 
L 646.560405 167.96109 
L 646.765025 167.194478 
L 646.969644 165.623284 
L 647.378884 158.987379 
L 647.788123 146.387998 
L 648.606602 115.672285 
L 648.811222 112.867578 
L 649.015842 112.150126 
L 649.220461 112.701205 
L 649.629701 115.619558 
L 650.24356 120.26868 
L 651.675898 127.208395 
L 654.745194 142.21192 
L 655.154434 143.57424 
L 655.359053 143.601995 
L 655.563673 142.931976 
L 655.768293 141.323196 
L 656.177532 134.275893 
L 656.791391 119.604838 
L 656.996011 117.028414 
L 657.200631 115.946929 
L 657.405251 115.94087 
L 657.60987 116.648095 
L 658.01911 119.402142 
L 660.065307 135.086236 
L 660.679166 138.174211 
L 661.702265 142.148442 
L 662.929983 152.597568 
L 663.339223 154.531647 
L 663.748462 155.432096 
L 663.953082 155.486453 
L 664.157702 155.295682 
L 664.771561 154.376605 
L 664.97618 154.543752 
L 665.38542 155.822668 
L 666.613138 160.534638 
L 667.022378 161.179734 
L 667.226997 161.184632 
L 667.636237 160.801986 
L 667.840857 160.853289 
L 668.045476 161.335494 
L 669.477814 167.584282 
L 669.887054 168.23881 
L 671.728631 169.06539 
L 672.342491 169.077578 
L 672.95635 168.962598 
L 673.774829 169.064091 
L 674.388688 168.827538 
L 674.797927 168.508086 
L 675.207167 167.837231 
L 675.616406 167.020186 
L 676.025646 166.731833 
L 676.434885 166.525544 
L 677.662603 165.2684 
L 678.071843 165.170361 
L 678.276463 164.996374 
L 678.685702 164.145597 
L 679.094942 162.689923 
L 680.11804 157.719242 
L 680.32266 157.433473 
L 680.52728 157.578054 
L 680.936519 158.6226 
L 681.550378 160.246741 
L 681.959618 160.58943 
L 682.982716 160.977687 
L 683.391956 160.879717 
L 683.801195 160.637375 
L 684.415054 159.856818 
L 685.438153 158.272615 
L 687.075111 154.829977 
L 687.48435 153.071675 
L 688.09821 148.984253 
L 689.121308 140.705447 
L 689.325928 140.884575 
L 689.530548 142.048676 
L 690.758266 152.636316 
L 691.167505 153.916538 
L 692.395224 155.83259 
L 693.827562 158.16652 
L 694.441421 159.242988 
L 695.05528 159.846288 
L 696.282999 160.647359 
L 696.487618 160.541948 
L 696.896858 159.828718 
L 697.306097 158.542899 
L 697.919956 156.287095 
L 698.124576 155.965798 
L 698.329196 156.068113 
L 698.533816 156.60198 
L 699.556914 160.736726 
L 699.966154 161.297485 
L 700.170773 161.341636 
L 700.784633 161.017796 
L 701.603112 160.464431 
L 702.012351 160.483604 
L 702.216971 160.698655 
L 702.62621 161.611444 
L 704.672407 167.380273 
L 705.081647 167.81613 
L 705.490886 167.808163 
L 705.900126 167.562538 
L 706.309365 167.015135 
L 706.718605 165.866802 
L 707.127844 164.107657 
L 707.741703 161.083485 
L 707.946323 161.188253 
L 708.764802 163.684507 
L 709.174041 164.101749 
L 709.583281 164.218008 
L 710.19714 164.233237 
L 710.40176 164.400936 
L 710.810999 165.175246 
L 711.424858 167.229149 
L 712.243337 169.835188 
L 713.061816 172.226411 
L 714.084915 174.419768 
L 714.698774 175.184543 
L 715.108013 175.64441 
L 716.540352 176.264189 
L 716.949591 176.115829 
L 717.76807 175.49996 
L 718.381929 175.447054 
L 718.791169 175.787836 
L 719.814267 176.768864 
L 722.269704 179.000244 
L 722.883563 179.635272 
L 723.497422 179.8305 
L 724.111281 179.832524 
L 724.520521 179.773172 
L 725.748239 180.19096 
L 726.157479 180.080394 
L 726.975958 179.668507 
L 727.589817 179.894343 
L 727.999056 179.651102 
L 728.612915 179.360994 
L 729.636014 179.157234 
L 730.249873 178.718213 
L 730.863732 178.443692 
L 731.272972 178.282038 
L 731.682211 178.207838 
L 732.091451 177.864085 
L 733.114549 176.40942 
L 733.728409 176.456155 
L 734.342268 176.018212 
L 734.956127 175.479688 
L 735.365366 175.431681 
L 736.388465 175.616046 
L 736.797705 175.333014 
L 737.820803 174.332038 
L 738.230043 174.244336 
L 738.639282 174.14826 
L 739.048522 173.635225 
L 739.457761 173.104819 
L 741.094719 171.665473 
L 741.708578 171.10595 
L 742.936296 170.258435 
L 743.345536 170.334501 
L 743.959395 170.478481 
L 744.368634 170.398904 
L 744.982494 170.233968 
L 745.596353 170.319936 
L 746.005592 169.899239 
L 746.619451 169.353985 
L 747.43793 168.750346 
L 748.461029 168.107979 
L 748.870268 167.828581 
L 749.893367 167.353637 
L 750.507226 166.952266 
L 751.734945 165.097321 
L 752.758043 163.903171 
L 753.371902 162.88504 
L 753.576522 162.848178 
L 754.395001 163.257536 
L 755.00886 162.970607 
L 756.031959 163.205128 
L 756.441198 162.774274 
L 757.259677 161.624006 
L 757.873536 160.752003 
L 759.715114 156.698257 
L 760.738213 154.621539 
L 760.942832 154.517752 
L 761.352072 154.702905 
L 762.170551 155.253873 
L 763.398269 157.393474 
L 765.649086 159.930238 
L 766.262945 160.203446 
L 766.672185 160.152931 
L 768.104523 159.298001 
L 768.718382 158.766248 
L 769.127621 158.471766 
L 769.536861 158.704947 
L 770.35534 159.684344 
L 770.969199 160.815971 
L 772.810776 165.449836 
L 774.243115 169.231093 
L 775.675453 171.145797 
L 776.289312 171.635582 
L 776.903171 172.071356 
L 777.31241 172.326046 
L 777.72165 172.238496 
L 778.335509 172.052037 
L 778.744749 172.074493 
L 779.358608 172.360496 
L 779.767847 172.577654 
L 780.177087 172.722366 
L 781.200185 173.552373 
L 783.451002 176.732541 
L 784.678721 177.667703 
L 785.08796 178.029698 
L 785.906439 178.93423 
L 786.520298 179.470392 
L 786.929538 179.508767 
L 787.952636 178.836213 
L 788.361876 178.678235 
L 789.384974 178.71339 
L 789.998833 179.075453 
L 790.612693 179.391734 
L 791.635791 179.281431 
L 792.65889 179.64013 
L 793.681989 179.548358 
L 794.091228 179.174597 
L 794.909707 178.352798 
L 795.728186 177.776452 
L 796.342045 176.960132 
L 796.955904 176.275217 
L 797.365144 176.111981 
L 797.979003 176.244919 
L 798.388242 176.050514 
L 799.002101 175.140391 
L 800.0252 173.372465 
L 800.22982 173.381613 
L 800.43444 173.586672 
L 801.048299 174.907114 
L 802.276017 177.628734 
L 802.685257 177.880025 
L 803.094496 177.808829 
L 803.708355 177.325346 
L 804.322214 176.30423 
L 804.936074 175.138104 
L 805.549933 173.890074 
L 805.959172 173.616452 
L 806.368412 173.387196 
L 806.777651 172.723458 
L 807.186891 171.602431 
L 807.80075 169.034525 
L 808.414609 166.636503 
L 808.619229 166.409866 
L 808.823848 166.566483 
L 809.233088 167.697121 
L 809.846947 169.440139 
L 810.256186 170.287427 
L 810.665426 170.691403 
L 810.870046 170.649594 
L 811.279285 169.968617 
L 811.688525 169.098016 
L 812.097764 168.821334 
L 812.507003 169.095273 
L 813.120863 169.69286 
L 813.325482 169.675482 
L 813.530102 169.42889 
L 813.734722 168.914522 
L 814.143961 166.976041 
L 814.75782 163.160894 
L 814.96244 162.515342 
L 815.16706 162.378002 
L 815.37168 162.574853 
L 815.780919 163.55331 
L 816.394778 166.491998 
L 818.031736 175.137786 
L 818.850215 177.272654 
L 820.282553 180.917809 
L 820.896412 181.44241 
L 821.305652 181.539903 
L 821.919511 181.321847 
L 822.32875 181.71188 
L 822.73799 181.992017 
L 823.351849 181.934551 
L 824.170328 181.608998 
L 826.625765 179.904182 
L 827.648863 178.663738 
L 828.262722 177.264432 
L 828.876582 175.474824 
L 829.285821 173.336155 
L 829.69506 170.296996 
L 830.1043 165.494934 
L 830.513539 159.531783 
L 830.718159 158.177609 
L 830.922779 159.122984 
L 831.741258 168.132563 
L 832.150497 170.132095 
L 832.559737 170.975292 
L 832.968976 171.335842 
L 833.173596 171.295899 
L 833.582835 170.884267 
L 835.219793 168.26756 
L 836.242892 166.042924 
L 838.084469 158.982784 
L 838.493709 156.498089 
L 839.107568 150.857563 
L 839.926047 140.689846 
L 842.176864 108.356349 
L 844.018441 88.655592 
L 844.427681 80.429748 
L 844.83692 67.863207 
L 845.450779 47.570737 
L 845.655399 51.194202 
L 846.064639 87.204748 
L 846.473878 124.80063 
L 846.883118 145.03835 
L 847.292357 154.494018 
L 847.701596 158.779086 
L 848.110836 160.726984 
L 848.520075 161.41393 
L 849.338554 161.910175 
L 849.747794 162.808566 
L 851.793991 169.046714 
L 852.40785 170.284794 
L 853.430949 171.841236 
L 854.044808 172.113089 
L 854.658667 172.253089 
L 855.272526 172.230806 
L 855.681766 172.30207 
L 855.886386 172.207797 
L 856.295625 171.597566 
L 856.704864 170.324095 
L 857.318724 167.546985 
L 857.727963 165.09198 
L 858.341822 159.885002 
L 858.751062 154.811985 
L 859.364921 144.110643 
L 860.797259 114.124812 
L 861.206498 111.395494 
L 861.411118 111.262535 
L 861.615738 111.965159 
L 861.820358 113.603499 
L 862.229597 119.670589 
L 864.071175 156.471716 
L 864.685034 163.307326 
L 865.298893 167.912959 
L 866.117372 172.67724 
L 866.731231 175.037516 
L 867.75433 177.576008 
L 868.163569 178.390462 
L 870.414386 181.364803 
L 871.028245 181.711265 
L 872.051344 182.075995 
L 872.460583 182.243508 
L 872.869823 182.243508 
L 874.7114 181.690889 
L 876.143738 182.453259 
L 877.166837 183.750216 
L 877.576077 183.88486 
L 878.394555 183.740487 
L 878.803795 184.049333 
L 879.213034 184.386177 
L 879.826894 184.5259 
L 880.440753 184.894424 
L 881.259232 184.913619 
L 881.873091 184.775581 
L 882.69157 185.041755 
L 883.100809 185.005086 
L 883.714668 184.761824 
L 884.328528 184.721217 
L 885.351626 184.294779 
L 886.170105 183.830462 
L 886.579345 183.618162 
L 887.193204 183.533382 
L 887.807063 183.23338 
L 888.216302 183.369683 
L 888.830162 183.995142 
L 889.444021 184.487429 
L 889.85326 184.557214 
L 890.467119 184.609111 
L 892.104077 185.152569 
L 892.513317 185.152141 
L 892.922556 184.927507 
L 893.536415 184.484527 
L 894.764134 183.892136 
L 895.377993 183.273441 
L 896.401091 181.989882 
L 897.014951 181.782156 
L 897.42419 181.999328 
L 898.038049 182.715439 
L 898.447289 183.251732 
L 898.856528 183.355636 
L 899.061148 183.384808 
L 900.902725 184.674917 
L 901.925824 184.148678 
L 903.358162 184.162718 
L 903.972021 183.300969 
L 904.585881 182.225302 
L 905.404359 180.733374 
L 906.632078 179.544751 
L 906.836697 179.731065 
L 907.859796 181.540297 
L 909.087514 182.170765 
L 909.905993 181.996412 
L 910.519853 181.29206 
L 911.747571 179.836801 
L 912.56605 179.272159 
L 913.384529 178.162809 
L 913.793768 177.756615 
L 914.203008 176.978318 
L 915.021487 175.294666 
L 915.430726 174.388109 
L 915.839965 173.402203 
L 916.249205 172.913828 
L 916.863064 172.598749 
L 917.272304 172.179309 
L 917.681543 171.395105 
L 918.909261 168.251274 
L 920.13698 163.725681 
L 921.364698 158.133161 
L 922.387797 152.611691 
L 924.638614 138.57241 
L 925.661712 132.757247 
L 926.480191 126.97806 
L 927.70791 116.330536 
L 928.935628 102.691653 
L 930.367966 85.641362 
L 931.800304 64.193822 
L 932.823403 47.441558 
L 933.232642 44.778944 
L 933.437262 44.218779 
L 933.641882 44.058804 
L 933.846501 44.35415 
L 934.051121 45.163691 
L 934.66498 49.644988 
L 935.07422 53.393398 
L 935.483459 60.672713 
L 936.097318 73.500563 
L 936.301938 75.148631 
L 936.506558 74.229982 
L 936.711178 69.407792 
L 936.915797 58.54141 
L 937.120417 38.608108 
L 937.349757 -1 
M 951.022674 -1 
L 951.648418 32.256113 
L 952.466897 65.081523 
L 953.080756 82.41222 
L 953.899235 99.353148 
L 954.717714 112.23143 
L 955.536192 122.125711 
L 956.763911 134.039196 
L 958.196249 144.308302 
L 959.219348 150.437902 
L 960.037826 154.040245 
L 960.447066 155.226809 
L 961.265545 156.634275 
L 962.493263 158.457084 
L 962.902503 159.394955 
L 963.311742 160.941384 
L 964.74408 167.043637 
L 965.767179 169.529154 
L 966.585658 171.085547 
L 967.199517 171.760105 
L 968.222616 172.633241 
L 968.631855 172.578283 
L 969.245714 172.754592 
L 969.654954 172.575796 
L 970.064193 172.189874 
L 970.268813 171.794652 
L 970.678052 170.291642 
L 971.496531 166.476003 
L 971.701151 166.342761 
L 971.905771 166.739392 
L 974.361207 174.596008 
L 975.179686 176.653897 
L 975.793545 177.323833 
L 976.407405 177.679104 
L 977.430503 178.237224 
L 978.862841 179.149516 
L 979.88594 178.739218 
L 981.727518 177.751004 
L 982.136757 178.057722 
L 982.750616 178.772003 
L 983.159856 179.027004 
L 983.978334 179.371752 
L 986.229151 181.262778 
L 987.04763 181.321882 
L 988.275349 181.598827 
L 988.684588 181.922722 
L 989.093828 181.905435 
L 989.503067 181.820013 
L 990.526166 181.955093 
L 991.344645 182.510262 
L 992.367743 182.254722 
L 994.209321 182.368432 
L 995.232419 182.359498 
L 996.664758 182.480275 
L 997.483236 182.423859 
L 998.506335 181.605322 
L 998.915575 181.868324 
L 999.324814 182.180888 
L 1000.552532 182.318787 
L 1000.961772 182.336848 
L 1002.59873 182.857332 
L 1003.007969 182.790207 
L 1004.644927 182.134131 
L 1006.281885 182.477263 
L 1006.895744 182.394252 
L 1007.714223 183.06539 
L 1008.532702 182.617041 
L 1010.16966 182.940218 
L 1010.578899 183.211118 
L 1010.988138 183.123823 
L 1011.601998 182.98267 
L 1012.215857 182.895286 
L 1013.034336 183.178851 
L 1013.648195 183.219243 
L 1014.262054 183.51007 
L 1014.671294 183.41409 
L 1015.899012 183.679718 
L 1016.308251 183.576539 
L 1017.12673 183.777494 
L 1017.53597 183.830186 
L 1018.559068 183.275017 
L 1018.968308 183.097533 
L 1019.377547 182.99615 
L 1019.786787 182.827186 
L 1020.605266 183.155448 
L 1021.014505 183.144752 
L 1022.446843 183.380642 
L 1023.060702 183.42214 
L 1023.469942 183.497239 
L 1024.083801 183.352734 
L 1024.69766 183.523447 
L 1025.311519 183.324447 
L 1025.925378 183.521781 
L 1026.334618 183.498075 
L 1026.948477 183.76865 
L 1027.971576 183.68204 
L 1028.585435 183.503264 
L 1029.403914 183.622273 
L 1029.813153 183.530784 
L 1030.222393 183.591325 
L 1030.836252 183.307229 
L 1032.26859 183.621312 
L 1032.677829 183.668939 
L 1033.700928 183.182195 
L 1034.314787 183.158088 
L 1034.928646 183.273296 
L 1036.156365 183.305169 
L 1037.179463 183.699279 
L 1037.997942 183.724913 
L 1038.816421 184.046452 
L 1039.83952 183.657117 
L 1040.453379 183.431792 
L 1041.476478 183.247503 
L 1042.499576 183.921612 
L 1043.727295 183.701573 
L 1044.341154 183.753808 
L 1044.955013 183.883665 
L 1045.568872 183.828362 
L 1046.591971 183.114095 
L 1047.41045 183.703148 
L 1047.819689 183.998279 
L 1048.228929 183.993996 
L 1048.638168 183.750305 
L 1049.252027 183.31212 
L 1050.275126 183.158191 
L 1051.502844 183.537369 
L 1052.321323 183.458677 
L 1052.935182 183.652495 
L 1054.367521 184.43815 
L 1056.209098 183.458898 
L 1056.618338 183.556253 
L 1057.436816 184.142128 
L 1060.096873 184.151511 
L 1061.119971 184.295338 
L 1062.14307 183.946154 
L 1062.756929 184.109425 
L 1063.166169 184.278362 
L 1063.575408 184.159954 
L 1064.393887 183.691803 
L 1064.803127 183.801394 
L 1065.212366 183.83639 
L 1065.621605 183.897318 
L 1066.030845 184.111968 
L 1067.667803 183.865935 
L 1068.486282 184.205253 
L 1069.100141 184.070974 
L 1069.714 184.051987 
L 1070.327859 184.043523 
L 1071.760197 183.777059 
L 1073.397155 184.133816 
L 1073.806395 184.088483 
L 1074.829493 184.524484 
L 1075.238733 184.671234 
L 1076.057212 184.640536 
L 1076.671071 184.178506 
L 1077.28493 183.648398 
L 1077.694169 183.568655 
L 1078.103409 183.691008 
L 1078.921888 184.15017 
L 1079.331127 184.193714 
L 1079.944986 183.800261 
L 1080.354226 183.933904 
L 1081.377324 184.58575 
L 1081.786564 184.601718 
L 1082.400423 184.551866 
L 1083.014282 184.543768 
L 1083.832761 184.303236 
L 1084.242001 184.167831 
L 1085.674339 184.33229 
L 1087.311297 184.265932 
L 1087.925156 184.38094 
L 1088.334395 184.04639 
L 1088.948254 183.522597 
L 1089.357494 183.437078 
L 1090.175973 184.007276 
L 1090.994452 183.880784 
L 1091.608311 184.299035 
L 1092.22217 184.819933 
L 1092.42679 184.874476 
L 1092.836029 184.658991 
L 1093.245269 184.422355 
L 1093.859128 184.38684 
L 1094.677607 183.953313 
L 1095.086846 183.654913 
L 1095.291466 183.685508 
L 1095.700705 183.941387 
L 1096.314565 183.941477 
L 1097.746903 183.876127 
L 1098.156142 184.114559 
L 1099.179241 184.117875 
L 1100.611579 184.217199 
L 1101.225438 184.26113 
L 1102.248537 184.436084 
L 1103.476255 184.065695 
L 1103.680875 183.981786 
L 1104.090114 184.160604 
L 1105.113213 184.870379 
L 1105.522452 184.759012 
L 1106.136311 184.382557 
L 1106.750171 183.932702 
L 1107.36403 183.83449 
L 1108.387128 184.17349 
L 1108.796368 184.036433 
L 1109.205607 184.220433 
L 1109.819466 184.528844 
L 1110.228706 184.445937 
L 1110.637945 184.111809 
L 1111.047185 184.132655 
L 1112.274903 184.510831 
L 1112.684143 184.748482 
L 1113.093382 184.705554 
L 1114.3211 184.126049 
L 1115.753439 184.370064 
L 1116.367298 184.596854 
L 1117.390396 184.383441 
L 1117.799636 184.251214 
L 1118.413495 184.40229 
L 1119.641213 184.786519 
L 1121.482791 183.891708 
L 1122.30127 184.238964 
L 1122.710509 184.261323 
L 1123.733608 184.68041 
L 1124.347467 184.509953 
L 1124.756707 184.488106 
L 1125.165946 184.316398 
L 1126.189045 184.347505 
L 1126.802904 184.26314 
L 1128.439862 184.640978 
L 1129.053721 184.815449 
L 1129.66758 184.868465 
L 1130.486059 184.669244 
L 1131.304538 184.703439 
L 1132.123017 184.452183 
L 1133.350735 184.737835 
L 1133.964594 184.376905 
L 1135.396932 184.301363 
L 1136.215411 184.146529 
L 1136.624651 184.160818 
L 1137.03389 184.070186 
L 1138.261608 184.434267 
L 1139.080087 184.903075 
L 1140.717045 184.32185 
L 1141.740144 184.703495 
L 1142.149383 184.562659 
L 1143.377102 183.916651 
L 1143.581721 183.945194 
L 1143.990961 184.380173 
L 1144.4002 184.71314 
L 1144.80944 184.641911 
L 1145.218679 184.506188 
L 1147.469496 185.004015 
L 1147.878736 185.196458 
L 1148.697215 185.314368 
L 1149.720313 185.055332 
L 1150.334172 185.138826 
L 1151.561891 184.705478 
L 1151.97113 184.482246 
L 1152.38037 184.564013 
L 1152.789609 184.730248 
L 1153.403468 184.580534 
L 1154.426567 184.442469 
L 1155.245046 184.542704 
L 1155.654285 184.488776 
L 1156.472764 184.655225 
L 1157.291243 184.341003 
L 1158.109722 184.441114 
L 1158.518961 184.328663 
L 1159.33744 184.627705 
L 1159.9513 184.484817 
L 1160.360539 184.374714 
L 1161.179018 184.701788 
L 1161.588257 184.875748 
L 1161.997497 184.774413 
L 1162.406736 184.60726 
L 1163.839074 184.406615 
L 1164.248314 184.456073 
L 1164.862173 184.894514 
L 1166.294511 185.069116 
L 1166.90837 184.718854 
L 1167.31761 184.819304 
L 1168.136089 185.188512 
L 1168.954568 185.253019 
L 1169.568427 185.421948 
L 1169.977666 185.284823 
L 1170.591525 184.998916 
L 1171.614624 184.645082 
L 1172.023863 184.46755 
L 1172.637723 184.649808 
L 1174.27468 185.077643 
L 1174.68392 184.99893 
L 1176.320878 184.082658 
L 1176.730117 184.022642 
L 1179.390174 184.522508 
L 1179.799413 184.387345 
L 1180.413272 184.588853 
L 1180.822512 184.679726 
L 1182.05023 184.592556 
L 1182.459469 184.587581 
L 1182.868709 184.711841 
L 1184.301047 184.487194 
L 1184.710286 184.600136 
L 1184.710286 184.600136 
" clip-path="url(#p6a6dacc7e7)" style="fill: none; stroke: #000000; stroke-width: 2; stroke-linecap: square"/>
   </g>
   <g id="patch_3">
    <path d="M 3.00024 198.907885 
L 1184.99976 198.907885 
" style="fill: none; stroke: #000000; stroke-width: 2; stroke-linejoin: miter; stroke-linecap: square"/>
   </g>
  </g>
 </g>
 <defs>
  <clipPath id="p6a6dacc7e7">
   <rect x="3.00024" y="3.00024" width="1181.99952" height="195.907645"/>
  </clipPath>
 </defs>
</svg>
