<?xml version="1.0" encoding="utf-8" standalone="no"?>
<!DOCTYPE svg PUBLIC "-//W3C//DTD SVG 1.1//EN"
  "http://www.w3.org/Graphics/SVG/1.1/DTD/svg11.dtd">
<svg xmlns:xlink="http://www.w3.org/1999/xlink" width="1188pt" height="252pt" viewBox="0 0 1188 252" xmlns="http://www.w3.org/2000/svg" version="1.1">
 <metadata>
  <rdf:RDF xmlns:dc="http://purl.org/dc/elements/1.1/" xmlns:cc="http://creativecommons.org/ns#" xmlns:rdf="http://www.w3.org/1999/02/22-rdf-syntax-ns#">
   <cc:Work>
    <dc:type rdf:resource="http://purl.org/dc/dcmitype/StillImage"/>
    <dc:date>2024-05-14T23:08:02.594235</dc:date>
    <dc:format>image/svg+xml</dc:format>
    <dc:creator>
     <cc:Agent>
      <dc:title>Matplotlib v3.8.0, https://matplotlib.org/</dc:title>
     </cc:Agent>
    </dc:creator>
   </cc:Work>
  </rdf:RDF>
 </metadata>
 <defs>
  <style type="text/css">*{stroke-linejoin: round; stroke-linecap: butt}</style>
 </defs>
 <g id="figure_1">
  <g id="patch_1">
   <path d="M 0 252 
L 1188 252 
L 1188 0 
L 0 0 
z
" style="fill: #ffffff"/>
  </g>
  <g id="axes_1">
   <g id="patch_2">
    <path d="M 3.00024 198.907885 
L 1184.99976 198.907885 
L 1184.99976 3.00024 
L 3.00024 3.00024 
z
" style="fill: #ffffff"/>
   </g>
   <g id="matplotlib.axis_1">
    <g id="xtick_1">
     <g id="line2d_1">
      <defs>
       <path id="m89e556ad21" d="M 0 0 
L 0 8 
" style="stroke: #000000; stroke-width: 2"/>
      </defs>
      <g>
       <use xlink:href="#m89e556ad21" x="1131.272509" y="198.907885" style="stroke: #000000; stroke-width: 2"/>
      </g>
     </g>
     <g id="text_1">
      <!-- 0 -->
      <g transform="translate(1126.267665 224.791947) scale(0.18 -0.18)">
       <defs>
        <path id="Arial-BoldMT-30" d="M 1756 4600 
Q 2422 4600 2797 4125 
Q 3244 3563 3244 2259 
Q 3244 959 2794 391 
Q 2422 -78 1756 -78 
Q 1088 -78 678 436 
Q 269 950 269 2269 
Q 269 3563 719 4131 
Q 1091 4600 1756 4600 
z
M 1756 3872 
Q 1597 3872 1472 3770 
Q 1347 3669 1278 3406 
Q 1188 3066 1188 2259 
Q 1188 1453 1269 1151 
Q 1350 850 1473 750 
Q 1597 650 1756 650 
Q 1916 650 2041 751 
Q 2166 853 2234 1116 
Q 2325 1453 2325 2259 
Q 2325 3066 2244 3367 
Q 2163 3669 2039 3770 
Q 1916 3872 1756 3872 
z
" transform="scale(0.015625)"/>
       </defs>
       <use xlink:href="#Arial-BoldMT-30"/>
      </g>
     </g>
    </g>
    <g id="xtick_2">
     <g id="line2d_2">
      <g>
       <use xlink:href="#m89e556ad21" x="1023.818007" y="198.907885" style="stroke: #000000; stroke-width: 2"/>
      </g>
     </g>
     <g id="text_2">
      <!-- 1 -->
      <g transform="translate(1018.813164 224.791947) scale(0.18 -0.18)">
       <defs>
        <path id="Arial-BoldMT-31" d="M 2519 0 
L 1641 0 
L 1641 3309 
Q 1159 2859 506 2644 
L 506 3441 
Q 850 3553 1253 3867 
Q 1656 4181 1806 4600 
L 2519 4600 
L 2519 0 
z
" transform="scale(0.015625)"/>
       </defs>
       <use xlink:href="#Arial-BoldMT-31"/>
      </g>
     </g>
    </g>
    <g id="xtick_3">
     <g id="line2d_3">
      <g>
       <use xlink:href="#m89e556ad21" x="916.363505" y="198.907885" style="stroke: #000000; stroke-width: 2"/>
      </g>
     </g>
     <g id="text_3">
      <!-- 2 -->
      <g transform="translate(911.358662 224.791947) scale(0.18 -0.18)">
       <defs>
        <path id="Arial-BoldMT-32" d="M 3238 816 
L 3238 0 
L 159 0 
Q 209 463 459 877 
Q 709 1291 1447 1975 
Q 2041 2528 2175 2725 
Q 2356 2997 2356 3263 
Q 2356 3556 2198 3714 
Q 2041 3872 1763 3872 
Q 1488 3872 1325 3706 
Q 1163 3541 1138 3156 
L 263 3244 
Q 341 3969 753 4284 
Q 1166 4600 1784 4600 
Q 2463 4600 2850 4234 
Q 3238 3869 3238 3325 
Q 3238 3016 3127 2736 
Q 3016 2456 2775 2150 
Q 2616 1947 2200 1565 
Q 1784 1184 1673 1059 
Q 1563 934 1494 816 
L 3238 816 
z
" transform="scale(0.015625)"/>
       </defs>
       <use xlink:href="#Arial-BoldMT-32"/>
      </g>
     </g>
    </g>
    <g id="xtick_4">
     <g id="line2d_4">
      <g>
       <use xlink:href="#m89e556ad21" x="808.909004" y="198.907885" style="stroke: #000000; stroke-width: 2"/>
      </g>
     </g>
     <g id="text_4">
      <!-- 3 -->
      <g transform="translate(803.90416 224.791947) scale(0.18 -0.18)">
       <defs>
        <path id="Arial-BoldMT-33" d="M 241 1216 
L 1091 1319 
Q 1131 994 1309 822 
Q 1488 650 1741 650 
Q 2013 650 2198 856 
Q 2384 1063 2384 1413 
Q 2384 1744 2206 1937 
Q 2028 2131 1772 2131 
Q 1603 2131 1369 2066 
L 1466 2781 
Q 1822 2772 2009 2936 
Q 2197 3100 2197 3372 
Q 2197 3603 2059 3740 
Q 1922 3878 1694 3878 
Q 1469 3878 1309 3722 
Q 1150 3566 1116 3266 
L 306 3403 
Q 391 3819 561 4067 
Q 731 4316 1036 4458 
Q 1341 4600 1719 4600 
Q 2366 4600 2756 4188 
Q 3078 3850 3078 3425 
Q 3078 2822 2419 2463 
Q 2813 2378 3048 2084 
Q 3284 1791 3284 1375 
Q 3284 772 2843 347 
Q 2403 -78 1747 -78 
Q 1125 -78 715 280 
Q 306 638 241 1216 
z
" transform="scale(0.015625)"/>
       </defs>
       <use xlink:href="#Arial-BoldMT-33"/>
      </g>
     </g>
    </g>
    <g id="xtick_5">
     <g id="line2d_5">
      <g>
       <use xlink:href="#m89e556ad21" x="701.454502" y="198.907885" style="stroke: #000000; stroke-width: 2"/>
      </g>
     </g>
     <g id="text_5">
      <!-- 4 -->
      <g transform="translate(696.449658 224.791947) scale(0.18 -0.18)">
       <defs>
        <path id="Arial-BoldMT-34" d="M 1994 0 
L 1994 922 
L 119 922 
L 119 1691 
L 2106 4600 
L 2844 4600 
L 2844 1694 
L 3413 1694 
L 3413 922 
L 2844 922 
L 2844 0 
L 1994 0 
z
M 1994 1694 
L 1994 3259 
L 941 1694 
L 1994 1694 
z
" transform="scale(0.015625)"/>
       </defs>
       <use xlink:href="#Arial-BoldMT-34"/>
      </g>
     </g>
    </g>
    <g id="xtick_6">
     <g id="line2d_6">
      <g>
       <use xlink:href="#m89e556ad21" x="594" y="198.907885" style="stroke: #000000; stroke-width: 2"/>
      </g>
     </g>
     <g id="text_6">
      <!-- 5 -->
      <g transform="translate(588.995156 224.791947) scale(0.18 -0.18)">
       <defs>
        <path id="Arial-BoldMT-35" d="M 284 1178 
L 1159 1269 
Q 1197 972 1381 798 
Q 1566 625 1806 625 
Q 2081 625 2272 848 
Q 2463 1072 2463 1522 
Q 2463 1944 2273 2155 
Q 2084 2366 1781 2366 
Q 1403 2366 1103 2031 
L 391 2134 
L 841 4519 
L 3163 4519 
L 3163 3697 
L 1506 3697 
L 1369 2919 
Q 1663 3066 1969 3066 
Q 2553 3066 2959 2641 
Q 3366 2216 3366 1538 
Q 3366 972 3038 528 
Q 2591 -78 1797 -78 
Q 1163 -78 763 262 
Q 363 603 284 1178 
z
" transform="scale(0.015625)"/>
       </defs>
       <use xlink:href="#Arial-BoldMT-35"/>
      </g>
     </g>
    </g>
    <g id="xtick_7">
     <g id="line2d_7">
      <g>
       <use xlink:href="#m89e556ad21" x="486.545498" y="198.907885" style="stroke: #000000; stroke-width: 2"/>
      </g>
     </g>
     <g id="text_7">
      <!-- 6 -->
      <g transform="translate(481.540654 224.791947) scale(0.18 -0.18)">
       <defs>
        <path id="Arial-BoldMT-36" d="M 3247 3459 
L 2397 3366 
Q 2366 3628 2234 3753 
Q 2103 3878 1894 3878 
Q 1616 3878 1423 3628 
Q 1231 3378 1181 2588 
Q 1509 2975 1997 2975 
Q 2547 2975 2939 2556 
Q 3331 2138 3331 1475 
Q 3331 772 2918 347 
Q 2506 -78 1859 -78 
Q 1166 -78 719 461 
Q 272 1000 272 2228 
Q 272 3488 737 4044 
Q 1203 4600 1947 4600 
Q 2469 4600 2811 4308 
Q 3153 4016 3247 3459 
z
M 1256 1544 
Q 1256 1116 1453 883 
Q 1650 650 1903 650 
Q 2147 650 2309 840 
Q 2472 1031 2472 1466 
Q 2472 1913 2297 2120 
Q 2122 2328 1859 2328 
Q 1606 2328 1431 2129 
Q 1256 1931 1256 1544 
z
" transform="scale(0.015625)"/>
       </defs>
       <use xlink:href="#Arial-BoldMT-36"/>
      </g>
     </g>
    </g>
    <g id="xtick_8">
     <g id="line2d_8">
      <g>
       <use xlink:href="#m89e556ad21" x="379.090996" y="198.907885" style="stroke: #000000; stroke-width: 2"/>
      </g>
     </g>
     <g id="text_8">
      <!-- 7 -->
      <g transform="translate(374.086153 224.791947) scale(0.18 -0.18)">
       <defs>
        <path id="Arial-BoldMT-37" d="M 272 3703 
L 272 4519 
L 3275 4519 
L 3275 3881 
Q 2903 3516 2518 2831 
Q 2134 2147 1932 1376 
Q 1731 606 1734 0 
L 888 0 
Q 909 950 1279 1937 
Q 1650 2925 2269 3703 
L 272 3703 
z
" transform="scale(0.015625)"/>
       </defs>
       <use xlink:href="#Arial-BoldMT-37"/>
      </g>
     </g>
    </g>
    <g id="xtick_9">
     <g id="line2d_9">
      <g>
       <use xlink:href="#m89e556ad21" x="271.636495" y="198.907885" style="stroke: #000000; stroke-width: 2"/>
      </g>
     </g>
     <g id="text_9">
      <!-- 8 -->
      <g transform="translate(266.631651 224.791947) scale(0.18 -0.18)">
       <defs>
        <path id="Arial-BoldMT-38" d="M 1025 2472 
Q 684 2616 529 2867 
Q 375 3119 375 3419 
Q 375 3931 733 4265 
Q 1091 4600 1750 4600 
Q 2403 4600 2764 4265 
Q 3125 3931 3125 3419 
Q 3125 3100 2959 2851 
Q 2794 2603 2494 2472 
Q 2875 2319 3073 2025 
Q 3272 1731 3272 1347 
Q 3272 713 2867 316 
Q 2463 -81 1791 -81 
Q 1166 -81 750 247 
Q 259 634 259 1309 
Q 259 1681 443 1992 
Q 628 2303 1025 2472 
z
M 1206 3356 
Q 1206 3094 1354 2947 
Q 1503 2800 1750 2800 
Q 2000 2800 2150 2948 
Q 2300 3097 2300 3359 
Q 2300 3606 2151 3754 
Q 2003 3903 1759 3903 
Q 1506 3903 1356 3753 
Q 1206 3603 1206 3356 
z
M 1125 1394 
Q 1125 1031 1311 828 
Q 1497 625 1775 625 
Q 2047 625 2225 820 
Q 2403 1016 2403 1384 
Q 2403 1706 2222 1901 
Q 2041 2097 1763 2097 
Q 1441 2097 1283 1875 
Q 1125 1653 1125 1394 
z
" transform="scale(0.015625)"/>
       </defs>
       <use xlink:href="#Arial-BoldMT-38"/>
      </g>
     </g>
    </g>
    <g id="xtick_10">
     <g id="line2d_10">
      <g>
       <use xlink:href="#m89e556ad21" x="164.181993" y="198.907885" style="stroke: #000000; stroke-width: 2"/>
      </g>
     </g>
     <g id="text_10">
      <!-- 9 -->
      <g transform="translate(159.177149 224.791947) scale(0.18 -0.18)">
       <defs>
        <path id="Arial-BoldMT-39" d="M 291 1059 
L 1141 1153 
Q 1172 894 1303 769 
Q 1434 644 1650 644 
Q 1922 644 2112 894 
Q 2303 1144 2356 1931 
Q 2025 1547 1528 1547 
Q 988 1547 595 1964 
Q 203 2381 203 3050 
Q 203 3747 617 4173 
Q 1031 4600 1672 4600 
Q 2369 4600 2816 4061 
Q 3263 3522 3263 2288 
Q 3263 1031 2797 475 
Q 2331 -81 1584 -81 
Q 1047 -81 715 205 
Q 384 491 291 1059 
z
M 2278 2978 
Q 2278 3403 2083 3637 
Q 1888 3872 1631 3872 
Q 1388 3872 1227 3680 
Q 1066 3488 1066 3050 
Q 1066 2606 1241 2398 
Q 1416 2191 1678 2191 
Q 1931 2191 2104 2391 
Q 2278 2591 2278 2978 
z
" transform="scale(0.015625)"/>
       </defs>
       <use xlink:href="#Arial-BoldMT-39"/>
      </g>
     </g>
    </g>
    <g id="xtick_11">
     <g id="line2d_11">
      <g>
       <use xlink:href="#m89e556ad21" x="56.727491" y="198.907885" style="stroke: #000000; stroke-width: 2"/>
      </g>
     </g>
     <g id="text_11">
      <!-- 10 -->
      <g transform="translate(46.717803 224.791947) scale(0.18 -0.18)">
       <use xlink:href="#Arial-BoldMT-31"/>
       <use xlink:href="#Arial-BoldMT-30" x="55.615234"/>
      </g>
     </g>
    </g>
    <g id="text_12">
     <!-- Chemical Shift / ppm -->
     <g transform="translate(504.992813 245.447573) scale(0.18 -0.18)">
      <defs>
       <path id="Arial-BoldMT-43" d="M 3397 1684 
L 4294 1400 
Q 4088 650 3608 286 
Q 3128 -78 2391 -78 
Q 1478 -78 890 545 
Q 303 1169 303 2250 
Q 303 3394 893 4026 
Q 1484 4659 2447 4659 
Q 3288 4659 3813 4163 
Q 4125 3869 4281 3319 
L 3366 3100 
Q 3284 3456 3026 3662 
Q 2769 3869 2400 3869 
Q 1891 3869 1573 3503 
Q 1256 3138 1256 2319 
Q 1256 1450 1568 1081 
Q 1881 713 2381 713 
Q 2750 713 3015 947 
Q 3281 1181 3397 1684 
z
" transform="scale(0.015625)"/>
       <path id="Arial-BoldMT-68" d="M 1334 4581 
L 1334 2897 
Q 1759 3394 2350 3394 
Q 2653 3394 2897 3281 
Q 3141 3169 3264 2994 
Q 3388 2819 3433 2606 
Q 3478 2394 3478 1947 
L 3478 0 
L 2600 0 
L 2600 1753 
Q 2600 2275 2550 2415 
Q 2500 2556 2373 2639 
Q 2247 2722 2056 2722 
Q 1838 2722 1666 2615 
Q 1494 2509 1414 2295 
Q 1334 2081 1334 1663 
L 1334 0 
L 456 0 
L 456 4581 
L 1334 4581 
z
" transform="scale(0.015625)"/>
       <path id="Arial-BoldMT-65" d="M 2381 1056 
L 3256 909 
Q 3088 428 2723 176 
Q 2359 -75 1813 -75 
Q 947 -75 531 491 
Q 203 944 203 1634 
Q 203 2459 634 2926 
Q 1066 3394 1725 3394 
Q 2466 3394 2894 2905 
Q 3322 2416 3303 1406 
L 1103 1406 
Q 1113 1016 1316 798 
Q 1519 581 1822 581 
Q 2028 581 2168 693 
Q 2309 806 2381 1056 
z
M 2431 1944 
Q 2422 2325 2234 2523 
Q 2047 2722 1778 2722 
Q 1491 2722 1303 2513 
Q 1116 2303 1119 1944 
L 2431 1944 
z
" transform="scale(0.015625)"/>
       <path id="Arial-BoldMT-6d" d="M 394 3319 
L 1203 3319 
L 1203 2866 
Q 1638 3394 2238 3394 
Q 2556 3394 2790 3262 
Q 3025 3131 3175 2866 
Q 3394 3131 3647 3262 
Q 3900 3394 4188 3394 
Q 4553 3394 4806 3245 
Q 5059 3097 5184 2809 
Q 5275 2597 5275 2122 
L 5275 0 
L 4397 0 
L 4397 1897 
Q 4397 2391 4306 2534 
Q 4184 2722 3931 2722 
Q 3747 2722 3584 2609 
Q 3422 2497 3350 2280 
Q 3278 2063 3278 1594 
L 3278 0 
L 2400 0 
L 2400 1819 
Q 2400 2303 2353 2443 
Q 2306 2584 2207 2653 
Q 2109 2722 1941 2722 
Q 1738 2722 1575 2612 
Q 1413 2503 1342 2297 
Q 1272 2091 1272 1613 
L 1272 0 
L 394 0 
L 394 3319 
z
" transform="scale(0.015625)"/>
       <path id="Arial-BoldMT-69" d="M 459 3769 
L 459 4581 
L 1338 4581 
L 1338 3769 
L 459 3769 
z
M 459 0 
L 459 3319 
L 1338 3319 
L 1338 0 
L 459 0 
z
" transform="scale(0.015625)"/>
       <path id="Arial-BoldMT-63" d="M 3353 2338 
L 2488 2181 
Q 2444 2441 2289 2572 
Q 2134 2703 1888 2703 
Q 1559 2703 1364 2476 
Q 1169 2250 1169 1719 
Q 1169 1128 1367 884 
Q 1566 641 1900 641 
Q 2150 641 2309 783 
Q 2469 925 2534 1272 
L 3397 1125 
Q 3263 531 2881 228 
Q 2500 -75 1859 -75 
Q 1131 -75 698 384 
Q 266 844 266 1656 
Q 266 2478 700 2936 
Q 1134 3394 1875 3394 
Q 2481 3394 2839 3133 
Q 3197 2872 3353 2338 
z
" transform="scale(0.015625)"/>
       <path id="Arial-BoldMT-61" d="M 1116 2306 
L 319 2450 
Q 453 2931 781 3162 
Q 1109 3394 1756 3394 
Q 2344 3394 2631 3255 
Q 2919 3116 3036 2902 
Q 3153 2688 3153 2116 
L 3144 1091 
Q 3144 653 3186 445 
Q 3228 238 3344 0 
L 2475 0 
Q 2441 88 2391 259 
Q 2369 338 2359 363 
Q 2134 144 1878 34 
Q 1622 -75 1331 -75 
Q 819 -75 523 203 
Q 228 481 228 906 
Q 228 1188 362 1408 
Q 497 1628 739 1745 
Q 981 1863 1438 1950 
Q 2053 2066 2291 2166 
L 2291 2253 
Q 2291 2506 2166 2614 
Q 2041 2722 1694 2722 
Q 1459 2722 1328 2630 
Q 1197 2538 1116 2306 
z
M 2291 1594 
Q 2122 1538 1756 1459 
Q 1391 1381 1278 1306 
Q 1106 1184 1106 997 
Q 1106 813 1243 678 
Q 1381 544 1594 544 
Q 1831 544 2047 700 
Q 2206 819 2256 991 
Q 2291 1103 2291 1419 
L 2291 1594 
z
" transform="scale(0.015625)"/>
       <path id="Arial-BoldMT-6c" d="M 459 0 
L 459 4581 
L 1338 4581 
L 1338 0 
L 459 0 
z
" transform="scale(0.015625)"/>
       <path id="Arial-BoldMT-20" transform="scale(0.015625)"/>
       <path id="Arial-BoldMT-53" d="M 231 1491 
L 1131 1578 
Q 1213 1125 1461 912 
Q 1709 700 2131 700 
Q 2578 700 2804 889 
Q 3031 1078 3031 1331 
Q 3031 1494 2936 1608 
Q 2841 1722 2603 1806 
Q 2441 1863 1863 2006 
Q 1119 2191 819 2459 
Q 397 2838 397 3381 
Q 397 3731 595 4036 
Q 794 4341 1167 4500 
Q 1541 4659 2069 4659 
Q 2931 4659 3367 4281 
Q 3803 3903 3825 3272 
L 2900 3231 
Q 2841 3584 2645 3739 
Q 2450 3894 2059 3894 
Q 1656 3894 1428 3728 
Q 1281 3622 1281 3444 
Q 1281 3281 1419 3166 
Q 1594 3019 2269 2859 
Q 2944 2700 3267 2529 
Q 3591 2359 3773 2064 
Q 3956 1769 3956 1334 
Q 3956 941 3737 597 
Q 3519 253 3119 86 
Q 2719 -81 2122 -81 
Q 1253 -81 787 320 
Q 322 722 231 1491 
z
" transform="scale(0.015625)"/>
       <path id="Arial-BoldMT-66" d="M 75 3319 
L 563 3319 
L 563 3569 
Q 563 3988 652 4194 
Q 741 4400 980 4529 
Q 1219 4659 1584 4659 
Q 1959 4659 2319 4547 
L 2200 3934 
Q 1991 3984 1797 3984 
Q 1606 3984 1523 3895 
Q 1441 3806 1441 3553 
L 1441 3319 
L 2097 3319 
L 2097 2628 
L 1441 2628 
L 1441 0 
L 563 0 
L 563 2628 
L 75 2628 
L 75 3319 
z
" transform="scale(0.015625)"/>
       <path id="Arial-BoldMT-74" d="M 1981 3319 
L 1981 2619 
L 1381 2619 
L 1381 1281 
Q 1381 875 1398 808 
Q 1416 741 1477 697 
Q 1538 653 1625 653 
Q 1747 653 1978 738 
L 2053 56 
Q 1747 -75 1359 -75 
Q 1122 -75 931 4 
Q 741 84 652 211 
Q 563 338 528 553 
Q 500 706 500 1172 
L 500 2619 
L 97 2619 
L 97 3319 
L 500 3319 
L 500 3978 
L 1381 4491 
L 1381 3319 
L 1981 3319 
z
" transform="scale(0.015625)"/>
       <path id="Arial-BoldMT-2f" d="M -9 -78 
L 1125 4659 
L 1784 4659 
L 638 -78 
L -9 -78 
z
" transform="scale(0.015625)"/>
       <path id="Arial-BoldMT-70" d="M 434 3319 
L 1253 3319 
L 1253 2831 
Q 1413 3081 1684 3237 
Q 1956 3394 2288 3394 
Q 2866 3394 3269 2941 
Q 3672 2488 3672 1678 
Q 3672 847 3265 386 
Q 2859 -75 2281 -75 
Q 2006 -75 1782 34 
Q 1559 144 1313 409 
L 1313 -1263 
L 434 -1263 
L 434 3319 
z
M 1303 1716 
Q 1303 1156 1525 889 
Q 1747 622 2066 622 
Q 2372 622 2575 867 
Q 2778 1113 2778 1672 
Q 2778 2194 2568 2447 
Q 2359 2700 2050 2700 
Q 1728 2700 1515 2451 
Q 1303 2203 1303 1716 
z
" transform="scale(0.015625)"/>
      </defs>
      <use xlink:href="#Arial-BoldMT-43"/>
      <use xlink:href="#Arial-BoldMT-68" x="72.216797"/>
      <use xlink:href="#Arial-BoldMT-65" x="133.300781"/>
      <use xlink:href="#Arial-BoldMT-6d" x="188.916016"/>
      <use xlink:href="#Arial-BoldMT-69" x="277.832031"/>
      <use xlink:href="#Arial-BoldMT-63" x="305.615234"/>
      <use xlink:href="#Arial-BoldMT-61" x="361.230469"/>
      <use xlink:href="#Arial-BoldMT-6c" x="416.845703"/>
      <use xlink:href="#Arial-BoldMT-20" x="444.628906"/>
      <use xlink:href="#Arial-BoldMT-53" x="472.412109"/>
      <use xlink:href="#Arial-BoldMT-68" x="539.111328"/>
      <use xlink:href="#Arial-BoldMT-69" x="600.195312"/>
      <use xlink:href="#Arial-BoldMT-66" x="627.978516"/>
      <use xlink:href="#Arial-BoldMT-74" x="661.279297"/>
      <use xlink:href="#Arial-BoldMT-20" x="694.580078"/>
      <use xlink:href="#Arial-BoldMT-2f" x="722.363281"/>
      <use xlink:href="#Arial-BoldMT-20" x="750.146484"/>
      <use xlink:href="#Arial-BoldMT-70" x="777.929688"/>
      <use xlink:href="#Arial-BoldMT-70" x="839.013672"/>
      <use xlink:href="#Arial-BoldMT-6d" x="900.097656"/>
     </g>
    </g>
   </g>
   <g id="matplotlib.axis_2"/>
   <g id="line2d_12">
    <path d="M 2.990613 187.842733 
L 4.013712 187.640088 
L 5.24143 187.8554 
L 6.059909 188.024264 
L 7.492247 187.827412 
L 8.924585 187.716087 
L 10.970782 187.99864 
L 12.198501 187.954853 
L 12.81236 187.791327 
L 13.630839 187.51411 
L 14.244698 187.518405 
L 16.495515 187.997789 
L 17.109374 187.989508 
L 18.337092 187.656835 
L 20.17867 187.905032 
L 21.406388 187.677205 
L 22.838726 187.747331 
L 23.452586 187.519172 
L 24.475684 187.576343 
L 25.498783 187.820408 
L 27.34036 187.692958 
L 28.158839 187.823756 
L 29.386558 187.662806 
L 30.409656 187.790478 
L 32.660473 187.629711 
L 33.478952 187.849629 
L 34.092811 187.742588 
L 35.934389 188.141285 
L 37.571347 187.643196 
L 38.389826 187.643579 
L 39.003685 187.515031 
L 41.049882 187.586228 
L 41.663741 187.693615 
L 42.48222 187.690969 
L 43.096079 187.788015 
L 44.528418 187.749802 
L 45.551516 188.012749 
L 46.165375 187.833673 
L 46.983854 187.551905 
L 48.416192 187.761649 
L 48.825432 187.783143 
L 49.643911 187.481676 
L 50.667009 187.5205 
L 51.894728 187.561669 
L 52.713207 187.783138 
L 53.531685 187.777488 
L 54.145545 187.741832 
L 54.759404 187.801112 
L 56.191742 187.579869 
L 57.62408 187.929064 
L 58.237939 187.801681 
L 58.851798 187.838211 
L 60.488756 187.405483 
L 61.716475 187.644627 
L 62.330334 187.848236 
L 63.967292 187.70518 
L 66.013489 187.290662 
L 66.627348 187.412251 
L 68.059686 187.410064 
L 68.673545 187.44212 
L 69.287404 187.450352 
L 70.310503 187.767677 
L 70.924362 187.64033 
L 71.538221 187.504375 
L 72.97056 187.668321 
L 73.789038 187.518046 
L 74.607517 187.238471 
L 76.244475 187.319718 
L 76.858334 187.129103 
L 78.495292 187.320754 
L 79.518391 187.395023 
L 80.13225 187.591796 
L 80.541489 187.489753 
L 81.359968 187.208033 
L 81.973828 187.189585 
L 83.610785 187.21378 
L 84.429264 187.185233 
L 85.452363 187.353143 
L 86.066222 187.419414 
L 86.884701 187.574879 
L 88.317039 187.558069 
L 89.544757 187.682685 
L 90.363236 187.688368 
L 91.181715 187.605637 
L 91.795574 187.705285 
L 92.409434 187.798998 
L 94.660251 187.526107 
L 95.27411 187.501742 
L 96.297208 187.366498 
L 97.320307 187.010926 
L 97.934166 187.070131 
L 99.161885 187.362666 
L 99.980363 187.348741 
L 100.594223 187.497754 
L 102.4358 187.403895 
L 104.481997 187.29921 
L 105.300476 187.298083 
L 106.732814 187.318317 
L 107.551293 187.337208 
L 108.165153 187.15589 
L 108.983631 187.127339 
L 110.620589 186.973725 
L 111.439068 186.985242 
L 112.462167 186.764541 
L 113.076026 186.940861 
L 113.894505 187.329333 
L 114.508364 187.233393 
L 116.349942 187.190916 
L 117.168421 186.946291 
L 117.78228 187.097627 
L 118.396139 187.285017 
L 119.214618 187.415797 
L 120.442336 187.072704 
L 120.851576 187.150252 
L 121.260815 187.27241 
L 122.079294 187.094737 
L 122.897773 187.025426 
L 123.511632 187.040707 
L 124.330111 186.944545 
L 127.808646 186.986408 
L 128.627125 186.881064 
L 129.650224 186.827793 
L 130.468703 187.170487 
L 131.696421 186.979217 
L 132.71952 186.923168 
L 133.742618 186.634807 
L 134.356478 186.387687 
L 134.970337 186.47122 
L 135.584196 186.633793 
L 137.425773 186.636558 
L 138.039633 186.475035 
L 139.062731 186.516634 
L 139.67659 186.323595 
L 141.518168 186.714744 
L 143.768985 186.368686 
L 144.382844 186.318065 
L 145.201323 186.464327 
L 146.019802 186.495371 
L 147.042901 186.304051 
L 147.65676 186.424419 
L 148.475239 186.229675 
L 149.907577 186.49312 
L 151.135295 186.469093 
L 151.544535 186.500429 
L 152.363014 186.349656 
L 152.772253 186.326354 
L 153.386112 186.199486 
L 154.613831 186.383045 
L 155.841549 186.306817 
L 157.478507 186.360536 
L 158.092366 186.404556 
L 159.320084 186.087318 
L 160.138563 186.327039 
L 160.547803 186.396345 
L 160.957042 186.547656 
L 161.570901 186.446869 
L 162.594 186.123218 
L 163.617099 186.199009 
L 165.663296 185.87134 
L 169.346451 186.166409 
L 169.75569 186.370807 
L 170.16493 186.284573 
L 170.574169 186.070401 
L 172.415747 186.112703 
L 172.824986 186.041591 
L 173.438845 186.175258 
L 174.052705 186.387633 
L 174.666564 186.181067 
L 175.280423 186.003458 
L 175.894282 186.046055 
L 176.508141 186.090994 
L 178.554339 185.777794 
L 179.168198 185.910774 
L 179.986677 186.008438 
L 180.805156 185.683947 
L 182.442113 186.163166 
L 183.465212 185.881271 
L 184.079071 186.10486 
L 185.716029 186.005395 
L 186.329888 185.920959 
L 187.148367 185.870361 
L 187.966846 185.924388 
L 188.785325 185.577411 
L 190.013043 185.604657 
L 190.626902 185.646693 
L 192.059241 185.470904 
L 192.877719 185.390636 
L 194.105438 185.125212 
L 195.128536 185.261121 
L 195.742396 185.313522 
L 196.560875 185.354639 
L 197.174734 185.346919 
L 197.788593 185.400319 
L 199.016311 185.249729 
L 199.425551 185.331398 
L 200.03941 185.518201 
L 203.313326 184.918456 
L 204.336424 184.623103 
L 205.154903 184.629668 
L 207.2011 184.313825 
L 209.656537 183.252886 
L 210.270396 183.024702 
L 210.884255 182.495546 
L 211.498115 181.754582 
L 212.111974 180.550515 
L 213.544312 177.108489 
L 214.97665 175.888734 
L 215.590509 176.02297 
L 215.999749 176.447247 
L 216.613608 177.276008 
L 217.022847 177.647506 
L 217.432087 178.340174 
L 218.045946 179.411976 
L 218.455185 179.462895 
L 218.864425 179.072198 
L 219.478284 177.713794 
L 219.887523 176.761016 
L 220.296763 176.328999 
L 221.319861 175.831382 
L 221.933721 176.066209 
L 222.34296 176.353357 
L 223.570678 178.364012 
L 223.979918 179.642444 
L 224.593777 181.903948 
L 225.003017 182.763378 
L 225.616876 183.516638 
L 226.435355 183.88009 
L 227.049214 184.068528 
L 227.663073 183.980141 
L 229.095411 183.650396 
L 229.70927 183.553882 
L 230.11851 183.481186 
L 232.778566 182.267104 
L 233.187806 181.796291 
L 233.801665 180.499067 
L 235.029383 177.613251 
L 236.052482 176.583644 
L 236.461721 176.617684 
L 236.870961 176.737969 
L 237.2802 176.575619 
L 237.68944 176.37892 
L 238.098679 176.531861 
L 239.121778 177.169031 
L 239.735637 178.152825 
L 239.940257 178.31162 
L 240.144876 178.316888 
L 240.554116 177.906617 
L 241.781834 176.064284 
L 242.191074 175.762903 
L 242.804933 175.160628 
L 243.214172 175.142055 
L 243.623412 175.343459 
L 244.032651 175.843203 
L 244.85113 177.262149 
L 245.26037 177.800988 
L 245.669609 178.931895 
L 246.283468 180.82113 
L 246.897327 182.026291 
L 247.511186 182.545228 
L 248.125046 182.765942 
L 249.762003 182.954833 
L 250.580482 182.927278 
L 252.01282 182.273632 
L 252.831299 182.080951 
L 253.649778 181.770005 
L 254.672877 181.080561 
L 255.491356 180.655809 
L 257.128314 179.871195 
L 257.742173 179.360256 
L 258.356032 178.731145 
L 259.174511 178.130664 
L 260.811469 175.950318 
L 261.629948 174.114177 
L 262.653046 171.144421 
L 263.266905 168.82019 
L 263.880765 165.674453 
L 264.494624 161.341078 
L 265.108483 155.630805 
L 265.722342 147.782707 
L 266.336201 137.0909 
L 267.15468 118.148234 
L 268.382399 89.562656 
L 268.791638 83.589251 
L 269.200878 80.433553 
L 269.405497 79.833904 
L 269.610117 79.884254 
L 269.814737 80.625149 
L 270.223976 84.114893 
L 270.633216 90.06803 
L 271.247075 103.272756 
L 273.293272 155.817511 
L 273.907131 164.226312 
L 274.52099 169.124493 
L 275.13485 172.264118 
L 275.748709 174.266685 
L 276.157948 174.997091 
L 276.976427 175.801264 
L 277.590286 176.286716 
L 278.408765 176.527626 
L 279.022624 177.150501 
L 280.250343 178.566315 
L 281.887301 179.446203 
L 282.50116 179.493754 
L 283.319639 179.516897 
L 284.342737 179.805908 
L 285.570456 179.87737 
L 286.798174 179.226606 
L 288.025892 178.852474 
L 288.435132 178.624816 
L 289.048991 177.82068 
L 290.276709 175.790389 
L 290.481329 175.643562 
L 290.685949 175.637672 
L 291.095188 175.982149 
L 292.118287 177.421133 
L 292.322907 177.474098 
L 292.732146 177.240954 
L 293.141386 176.933947 
L 293.346005 176.905685 
L 293.550625 177.055394 
L 294.778343 178.811756 
L 295.187583 178.908074 
L 295.596822 178.824249 
L 296.210681 178.44565 
L 297.23378 177.601234 
L 298.256879 176.26718 
L 299.075358 175.931837 
L 299.484597 175.264899 
L 299.893837 174.091002 
L 301.121555 169.902392 
L 301.326175 169.769601 
L 301.530794 169.878216 
L 302.144654 170.823638 
L 302.349273 170.82945 
L 302.758513 170.249844 
L 303.167752 169.707032 
L 303.372372 169.793128 
L 303.781611 170.434474 
L 304.190851 171.81597 
L 304.60009 173.310166 
L 305.00933 174.098638 
L 305.418569 174.355282 
L 306.032428 174.474085 
L 306.441668 174.585478 
L 307.055527 174.354327 
L 307.669386 173.946963 
L 308.078626 173.239042 
L 308.692485 171.417004 
L 310.124823 165.97313 
L 310.738682 162.871271 
L 311.147922 160.960257 
L 311.352541 160.615709 
L 311.557161 160.641139 
L 312.37564 161.514641 
L 312.58026 161.308349 
L 312.784879 160.747938 
L 313.603358 157.412608 
L 313.807978 158.007528 
L 314.831077 164.510906 
L 315.035696 164.975188 
L 315.240316 165.149428 
L 315.444936 165.051017 
L 315.649556 164.687142 
L 316.468034 162.099028 
L 316.672654 162.169661 
L 317.081894 162.782617 
L 317.286513 162.846974 
L 317.695753 162.455238 
L 318.104992 161.634519 
L 318.514232 160.140678 
L 319.128091 156.680979 
L 319.74195 151.768053 
L 320.560429 142.520476 
L 321.174288 133.832778 
L 321.788147 120.506093 
L 322.606626 102.624734 
L 323.220485 95.225292 
L 323.629725 84.268729 
L 324.038964 66.295025 
L 324.652823 28.534143 
L 325.062063 5.143806 
L 325.266683 3.00024 
L 325.471302 10.47111 
L 326.699021 95.371341 
L 327.31288 109.840743 
L 327.722119 114.565733 
L 327.926739 115.099126 
L 328.131359 114.539243 
L 328.335979 113.021587 
L 328.745218 107.491857 
L 329.359077 94.228388 
L 330.177556 74.720466 
L 330.586796 70.54494 
L 330.791415 70.260062 
L 330.996035 70.954687 
L 331.405274 74.86396 
L 331.814514 82.121944 
L 332.428373 98.869661 
L 333.042232 114.852006 
L 333.656091 124.235105 
L 334.67919 134.526179 
L 335.497669 146.302422 
L 335.906908 149.41432 
L 336.930007 154.835024 
L 337.748486 164.160347 
L 338.362345 169.597339 
L 338.771585 171.462785 
L 339.180824 172.32568 
L 339.385444 172.482165 
L 339.590064 172.486481 
L 339.794683 172.3423 
L 340.203923 171.546618 
L 341.022402 168.517659 
L 341.227021 168.572616 
L 341.636261 170.326786 
L 342.0455 171.727553 
L 342.25012 171.835267 
L 342.45474 171.583551 
L 342.863979 170.329374 
L 343.887078 166.120758 
L 344.091698 166.779121 
L 344.910176 171.136754 
L 345.319416 171.904416 
L 345.933275 172.093088 
L 346.547134 172.770503 
L 346.751754 172.679651 
L 347.160993 171.766682 
L 347.365613 171.226855 
L 347.570233 171.047562 
L 347.774853 171.442219 
L 348.184092 172.845587 
L 348.388712 173.20605 
L 348.593332 173.261128 
L 348.797951 173.045523 
L 349.002571 172.553344 
L 349.41181 170.721874 
L 350.02567 167.73789 
L 350.230289 167.48051 
L 350.434909 167.795928 
L 350.844149 170.115414 
L 351.253388 172.633811 
L 351.458008 173.304386 
L 351.662627 173.570578 
L 351.867247 173.464323 
L 352.481106 172.263809 
L 352.685726 172.402136 
L 353.094966 173.823664 
L 354.322684 178.445129 
L 354.527304 178.71294 
L 354.731923 178.768554 
L 355.141163 178.44681 
L 355.755022 177.559586 
L 355.959642 177.612844 
L 356.164261 178.08993 
L 356.98274 181.39576 
L 357.39198 182.076169 
L 357.5966 182.214231 
L 357.801219 182.2101 
L 358.005839 182.044492 
L 358.415078 181.295697 
L 359.028938 179.956144 
L 359.233557 179.908238 
L 360.052036 180.443734 
L 360.461276 181.147667 
L 360.870515 181.941839 
L 361.279755 182.272492 
L 362.302853 182.426292 
L 362.712093 183.295665 
L 363.325952 184.642286 
L 363.939811 185.419335 
L 364.55367 185.868174 
L 365.576769 186.326339 
L 368.032206 186.231101 
L 368.441445 186.227412 
L 369.259924 186.452324 
L 370.487642 186.542266 
L 371.306121 186.367334 
L 372.53384 186.275363 
L 373.147699 185.810325 
L 373.966178 185.674476 
L 374.375417 185.588029 
L 375.603135 185.799253 
L 377.649333 186.955757 
L 378.263192 187.094042 
L 379.081671 187.069216 
L 381.127868 187.333326 
L 381.537108 187.165364 
L 382.150967 187.267304 
L 382.764826 187.297006 
L 386.038742 187.141334 
L 386.85722 186.89901 
L 390.335756 187.755205 
L 391.358854 187.872527 
L 393.200432 188.151631 
L 394.018911 187.869255 
L 395.04201 187.639216 
L 395.451249 187.593467 
L 396.065108 187.318953 
L 396.678967 187.275527 
L 397.702066 187.460644 
L 398.520545 187.408915 
L 399.134404 187.537355 
L 400.157503 187.691587 
L 400.771362 187.59369 
L 401.589841 187.431524 
L 404.249897 187.657414 
L 404.863756 187.485223 
L 405.477616 187.632082 
L 406.091475 187.859598 
L 407.523813 187.880756 
L 407.933052 187.897051 
L 408.546911 187.786555 
L 409.97925 188.009462 
L 410.593109 187.971408 
L 411.206968 187.68841 
L 412.639306 187.761216 
L 413.662405 187.641047 
L 414.890123 187.145069 
L 415.299362 186.791562 
L 415.708602 186.418281 
L 415.913222 186.42368 
L 416.322461 186.772931 
L 416.93632 187.535619 
L 417.550179 187.848912 
L 420.005616 188.40802 
L 421.847194 188.100574 
L 422.256433 187.990575 
L 423.279532 188.121457 
L 424.098011 187.81301 
L 425.530349 187.835904 
L 426.348828 187.656554 
L 426.962687 187.351918 
L 427.371926 187.135839 
L 427.781166 187.169255 
L 428.190405 187.582978 
L 428.804264 188.219476 
L 429.418124 188.614285 
L 430.236603 188.638201 
L 431.668941 188.33344 
L 433.101279 188.486382 
L 433.715138 188.599586 
L 434.124377 188.717595 
L 437.807532 188.727614 
L 440.876828 189.033719 
L 442.923026 188.923578 
L 443.536885 188.974677 
L 444.150744 188.931247 
L 444.764603 188.923264 
L 445.583082 188.925989 
L 446.606181 189.03626 
L 447.629279 188.806686 
L 449.061617 189.177853 
L 449.880096 189.128399 
L 451.107815 189.189722 
L 453.154012 189.096541 
L 453.972491 189.243289 
L 454.995589 189.017623 
L 456.018688 189.212919 
L 457.041787 189.160634 
L 458.474125 189.455399 
L 459.292604 189.661968 
L 459.701843 189.596595 
L 460.315702 189.499127 
L 461.338801 189.518303 
L 461.95266 189.634074 
L 463.384998 189.314395 
L 463.998857 189.382717 
L 468.705111 189.157918 
L 470.342069 189.295009 
L 471.569787 189.300035 
L 472.592886 189.507106 
L 473.206745 189.399178 
L 474.229844 189.206788 
L 476.276041 189.393668 
L 476.8899 189.210673 
L 477.29914 189.222945 
L 477.912999 189.052794 
L 479.549957 189.215774 
L 479.959196 189.325465 
L 482.414633 189.249701 
L 483.028492 189.240946 
L 483.642351 189.21467 
L 484.25621 189.296221 
L 485.483929 189.05572 
L 486.302408 189.150998 
L 486.711647 189.244735 
L 487.939365 189.126906 
L 489.576323 189.398885 
L 489.985563 189.29365 
L 491.213281 188.581687 
L 491.82714 188.701489 
L 492.23638 188.659903 
L 494.487197 189.353734 
L 494.896436 189.540959 
L 495.510295 189.50139 
L 496.533394 189.279412 
L 497.351873 189.208846 
L 500.011929 189.067192 
L 500.421169 188.997223 
L 501.444267 189.234229 
L 503.285845 189.116207 
L 504.104324 189.058542 
L 504.922803 188.781408 
L 505.536662 188.510984 
L 505.945901 188.703371 
L 506.76438 189.205801 
L 507.17362 189.221117 
L 508.605958 188.858278 
L 509.219817 188.754663 
L 510.652155 189.135634 
L 511.470634 189.057515 
L 512.698352 188.783128 
L 514.130691 189.156592 
L 514.949169 188.842232 
L 515.563029 188.717947 
L 516.381507 188.714406 
L 517.199986 188.594832 
L 517.813846 188.602031 
L 519.246184 188.494982 
L 520.678522 188.877928 
L 521.497001 188.785402 
L 522.520099 188.481546 
L 523.952437 188.456227 
L 524.975536 188.268676 
L 525.794015 187.913729 
L 526.612494 188.09494 
L 527.021733 188.182468 
L 527.635592 187.86756 
L 528.863311 187.366993 
L 530.500269 187.347028 
L 531.114128 187.153539 
L 531.727987 186.859036 
L 532.546466 186.705977 
L 533.978804 186.147601 
L 535.615762 185.530985 
L 536.229621 184.983843 
L 537.457339 184.305009 
L 539.094297 182.762427 
L 539.708156 182.146888 
L 540.322016 181.734109 
L 542.572833 178.898226 
L 543.595931 176.945692 
L 546.460607 170.269568 
L 547.892945 165.997179 
L 549.120664 161.579837 
L 550.143762 157.108171 
L 551.166861 151.580655 
L 551.98534 145.60266 
L 552.599199 138.786521 
L 553.622298 127.080964 
L 554.850016 116.999373 
L 555.259256 114.653839 
L 556.282354 110.540504 
L 556.691594 106.738225 
L 557.100833 99.276962 
L 557.510073 84.857937 
L 558.123932 55.914074 
L 558.328551 58.295158 
L 558.737791 94.949108 
L 559.14703 134.470619 
L 559.55627 156.475583 
L 559.965509 166.865733 
L 560.374749 171.748926 
L 560.783988 173.735484 
L 561.193228 174.372014 
L 562.011707 174.855673 
L 562.420946 174.95361 
L 563.034805 174.746068 
L 563.648664 174.573332 
L 564.057904 174.800568 
L 565.285622 176.249584 
L 565.899481 176.848821 
L 566.513341 177.967929 
L 567.331819 179.499052 
L 567.741059 180.061148 
L 569.378017 181.498287 
L 569.991876 182.120021 
L 573.470411 184.882904 
L 573.879651 185.009539 
L 574.49351 185.043186 
L 575.107369 185.374205 
L 575.721228 185.769535 
L 576.130468 185.912975 
L 577.767426 186.851266 
L 578.790524 186.999397 
L 579.404383 187.233543 
L 579.813623 187.310758 
L 580.427482 187.319609 
L 581.6552 187.837437 
L 583.087538 187.999819 
L 583.906017 188.133399 
L 586.156834 188.396922 
L 586.770694 188.449392 
L 587.384553 188.41659 
L 588.203032 188.400066 
L 588.816891 188.562215 
L 589.43075 188.691959 
L 590.453849 188.748635 
L 590.863088 188.810024 
L 591.476947 188.587242 
L 592.090806 188.540891 
L 592.704666 188.275251 
L 593.113905 188.391136 
L 593.727764 188.5787 
L 594.546243 188.680743 
L 595.160102 188.827118 
L 597.410919 188.736735 
L 598.638638 188.902628 
L 599.252497 188.761018 
L 600.275595 188.819329 
L 600.889455 188.900558 
L 601.707934 189.100794 
L 602.321793 189.002277 
L 602.731032 188.881482 
L 603.754131 188.885938 
L 604.36799 188.781789 
L 605.186469 188.950009 
L 605.800328 188.989839 
L 606.414187 188.983751 
L 607.028046 188.847544 
L 608.665004 189.245371 
L 610.506582 188.926393 
L 612.348159 189.137669 
L 612.962019 189.237003 
L 613.780497 189.126437 
L 614.598976 189.217201 
L 617.463653 188.891471 
L 618.691371 189.126971 
L 619.50985 189.066124 
L 619.919089 189.199624 
L 620.532948 189.409839 
L 621.146808 189.442309 
L 622.579146 189.024792 
L 623.193005 189.101605 
L 623.806864 189.129762 
L 624.420723 188.96227 
L 625.239202 188.686299 
L 626.262301 188.796849 
L 626.87616 188.958949 
L 627.899259 188.586519 
L 629.126977 188.662795 
L 633.014752 188.661556 
L 633.833231 188.901004 
L 635.265569 188.686301 
L 636.288667 189.063507 
L 636.697907 189.023265 
L 637.107146 188.95036 
L 637.721005 188.951137 
L 638.948724 188.862849 
L 639.767203 188.950806 
L 640.994921 189.199464 
L 641.404161 189.235645 
L 642.222639 189.049915 
L 642.631879 189.127619 
L 643.654978 189.047917 
L 645.291935 189.120862 
L 646.315034 188.859085 
L 647.133513 188.956755 
L 647.747372 189.065801 
L 648.565851 189.012495 
L 649.38433 188.70062 
L 649.998189 188.685626 
L 652.044386 188.977731 
L 654.090584 189.090759 
L 654.909063 189.09884 
L 655.522922 189.07456 
L 657.364499 188.885543 
L 657.978358 189.065832 
L 658.796837 188.95441 
L 659.410697 188.904408 
L 660.638415 189.10813 
L 661.456894 189.102755 
L 662.070753 189.098909 
L 663.093852 188.921512 
L 663.503091 188.817197 
L 665.958528 189.099857 
L 666.981626 188.683812 
L 669.232443 188.640854 
L 669.846303 188.568474 
L 671.48326 188.836054 
L 672.506359 188.707688 
L 673.324838 188.544551 
L 673.938697 188.541372 
L 674.961796 188.847886 
L 675.575655 188.780598 
L 676.189514 188.665568 
L 677.417232 188.728567 
L 678.440331 188.539083 
L 680.077289 188.54775 
L 680.691148 188.591753 
L 682.737345 188.387892 
L 683.351205 188.506849 
L 685.602022 188.038281 
L 686.82974 188.116611 
L 687.443599 188.104437 
L 688.262078 188.126171 
L 688.875937 188.275937 
L 689.489796 188.277296 
L 693.172951 187.773994 
L 694.40067 187.58791 
L 697.060726 187.679286 
L 697.469966 187.698653 
L 698.493064 188.01165 
L 700.743881 187.883849 
L 701.357741 188.09538 
L 701.9716 187.86554 
L 702.790079 187.54253 
L 703.199318 187.452757 
L 704.017797 187.12575 
L 706.473234 187.229405 
L 707.087093 187.366772 
L 707.700952 187.403106 
L 708.92867 187.845095 
L 710.361008 187.31984 
L 712.202586 187.458087 
L 714.044164 187.74444 
L 715.476502 188.184294 
L 716.294981 188.17326 
L 716.70422 188.292133 
L 717.113459 188.543056 
L 717.522699 188.549631 
L 718.341178 188.438008 
L 719.159657 188.336269 
L 720.387375 188.17443 
L 720.796615 187.977675 
L 721.615093 188.137534 
L 722.228953 188.348017 
L 723.456671 188.158337 
L 724.27515 188.437252 
L 724.889009 188.295573 
L 725.502868 188.49154 
L 726.116727 188.654588 
L 727.344446 188.519665 
L 728.162925 188.615399 
L 728.572164 188.564169 
L 729.595263 188.120513 
L 730.618361 188.026852 
L 731.43684 187.65954 
L 732.255319 187.732743 
L 734.301517 187.918343 
L 734.915376 187.94755 
L 736.143094 188.074073 
L 736.756953 187.970955 
L 737.780052 187.894491 
L 738.598531 187.883556 
L 739.41701 188.027405 
L 740.235489 187.991254 
L 742.281686 187.558718 
L 742.895545 187.349934 
L 744.941742 187.447688 
L 746.5787 187.904554 
L 747.192559 188.037182 
L 748.011038 188.100184 
L 748.624897 188.22134 
L 749.238757 188.186656 
L 750.875714 188.449174 
L 753.331151 188.34549 
L 753.94501 188.470756 
L 755.377348 188.834099 
L 755.786588 188.736802 
L 756.400447 188.541129 
L 757.218926 188.558884 
L 758.037405 188.752072 
L 758.855884 188.727664 
L 759.469743 188.77946 
L 760.697461 188.667088 
L 761.51594 188.773706 
L 762.539039 188.797319 
L 762.948278 188.747212 
L 763.766757 188.863157 
L 764.175997 188.761957 
L 765.403715 188.897875 
L 766.222194 188.581792 
L 766.836053 188.658493 
L 768.268391 188.973341 
L 770.314588 188.847145 
L 770.928448 188.747455 
L 771.542307 188.587695 
L 773.383884 188.918435 
L 773.793124 188.856663 
L 774.406983 188.690621 
L 775.020842 188.801334 
L 776.6578 188.384666 
L 778.499378 188.321729 
L 778.908617 188.251871 
L 780.340955 188.561962 
L 781.159434 188.891568 
L 782.387152 189.126576 
L 783.001012 189.267164 
L 783.81949 189.17291 
L 784.637969 188.920962 
L 786.888786 188.939942 
L 787.502645 188.747489 
L 788.525744 188.668534 
L 790.162702 188.096637 
L 790.776561 188.046942 
L 791.39042 187.73076 
L 791.79966 187.275468 
L 792.208899 186.331531 
L 792.618139 184.754085 
L 793.231998 181.836075 
L 793.436618 181.672883 
L 793.641237 182.144693 
L 794.664336 186.278314 
L 795.073575 187.088601 
L 795.892054 188.061698 
L 796.505913 188.286539 
L 799.16597 188.712173 
L 800.393688 188.721371 
L 802.644505 189.263544 
L 803.258364 189.259156 
L 804.486083 188.974652 
L 805.918421 189.250744 
L 806.32766 189.278503 
L 807.555379 188.975379 
L 808.987717 188.654438 
L 810.010815 188.970572 
L 811.033914 189.041772 
L 811.647773 188.861022 
L 812.466252 188.973088 
L 813.693971 188.991466 
L 814.30783 188.905953 
L 815.330928 188.947135 
L 816.763266 189.247403 
L 818.400224 189.040549 
L 819.014083 188.810985 
L 820.241802 188.886107 
L 822.901858 188.717212 
L 825.357295 188.850486 
L 825.971154 188.797931 
L 826.380394 188.75076 
L 827.403492 188.868426 
L 828.017351 188.718451 
L 829.449689 188.878389 
L 830.472788 188.7154 
L 831.495887 188.874552 
L 832.109746 188.891304 
L 833.337464 188.806317 
L 834.565183 188.890763 
L 836.20214 188.894076 
L 836.816 188.969852 
L 837.429859 188.940608 
L 838.043718 188.980106 
L 838.657577 189.095211 
L 839.680676 189.044801 
L 841.113014 188.834418 
L 842.340732 188.797527 
L 843.159211 188.561346 
L 844.18231 189.110068 
L 845.000789 189.0211 
L 846.228507 189.177072 
L 849.911662 188.834552 
L 850.320902 188.72549 
L 851.957859 188.853881 
L 854.004057 188.823349 
L 854.617916 188.724015 
L 856.050254 188.873583 
L 857.277972 188.502067 
L 857.687212 188.471408 
L 858.096451 188.49036 
L 859.11955 188.164867 
L 859.733409 187.920455 
L 860.347268 187.724097 
L 860.756508 187.368415 
L 861.165747 186.660475 
L 861.574987 185.484838 
L 862.598085 181.9455 
L 862.802705 182.125141 
L 863.211944 183.559141 
L 863.825804 185.728911 
L 864.235043 186.502106 
L 864.848902 187.091791 
L 866.69048 188.27958 
L 867.099719 188.359029 
L 868.122818 188.412658 
L 868.736677 188.439675 
L 869.964395 188.064514 
L 871.192114 187.181974 
L 871.601353 186.603199 
L 872.010593 185.508643 
L 872.829072 182.592212 
L 873.033691 182.833766 
L 874.05679 186.351889 
L 874.466029 187.154561 
L 874.875269 187.615521 
L 875.693748 188.064218 
L 876.307607 188.216296 
L 878.149184 188.278857 
L 878.558424 188.136742 
L 878.967663 188.208307 
L 879.786142 188.404775 
L 881.62772 188.487446 
L 883.673917 188.437343 
L 884.492396 188.387024 
L 885.106255 188.475167 
L 886.333974 188.654673 
L 886.743213 188.647021 
L 888.175551 188.18532 
L 890.426368 188.555122 
L 891.449467 188.230025 
L 892.063326 188.296026 
L 892.881805 188.584992 
L 893.495664 188.345356 
L 894.109523 188.153032 
L 895.132622 188.091742 
L 896.56496 188.401632 
L 897.383439 188.056844 
L 897.997298 188.09929 
L 898.611157 187.895479 
L 899.429636 187.423733 
L 901.066594 186.898236 
L 903.112791 185.98155 
L 903.72665 185.48805 
L 904.545129 185.018454 
L 905.568228 183.844357 
L 906.182087 182.795072 
L 906.591326 181.439114 
L 907.205186 179.236399 
L 907.409805 179.317983 
L 908.228284 180.983148 
L 908.637524 181.31008 
L 909.046763 181.339401 
L 909.865242 180.796045 
L 910.274482 180.317499 
L 910.888341 179.522026 
L 911.70682 178.486377 
L 912.320679 177.692077 
L 914.162256 174.26916 
L 915.389975 171.127316 
L 916.003834 168.706716 
L 916.617693 164.920889 
L 918.050031 154.230968 
L 919.482369 145.098991 
L 920.096228 142.71838 
L 920.505468 141.16044 
L 920.914707 138.609286 
L 921.323947 133.686388 
L 922.142426 115.778436 
L 922.347045 116.096082 
L 922.551665 122.477984 
L 923.165524 153.144486 
L 923.574764 163.764166 
L 923.984003 168.410277 
L 924.393243 170.180645 
L 924.802482 170.830472 
L 925.416341 171.19791 
L 925.825581 171.422191 
L 926.23482 171.870179 
L 926.848679 172.879222 
L 928.894877 176.726553 
L 931.350313 180.390699 
L 933.80575 183.040342 
L 934.624229 183.622395 
L 938.512004 186.06691 
L 938.921243 186.101717 
L 940.148962 185.956946 
L 940.967441 186.391964 
L 941.37668 186.644522 
L 941.785919 186.577039 
L 942.195159 186.443506 
L 943.013638 186.603582 
L 943.832117 186.876898 
L 945.264455 187.111907 
L 945.878314 187.386917 
L 946.287553 187.355195 
L 947.106032 187.01798 
L 947.719892 187.119238 
L 948.333751 187.181643 
L 949.356849 187.177733 
L 949.970709 187.337483 
L 950.584568 187.417296 
L 954.472343 187.252589 
L 954.881582 187.278785 
L 957.541638 186.248043 
L 958.155498 186.36909 
L 959.383216 186.608799 
L 960.201695 186.751791 
L 960.815554 186.90731 
L 961.838653 187.327875 
L 962.452512 187.257862 
L 963.066371 186.988521 
L 964.703329 186.167277 
L 965.521808 185.914588 
L 966.749526 185.000839 
L 967.158766 184.983426 
L 967.568005 185.15623 
L 968.181864 185.696337 
L 969.204963 187.020288 
L 969.614202 187.104557 
L 970.432681 187.158704 
L 971.25116 187.358166 
L 971.865019 187.272021 
L 972.683498 187.238988 
L 974.934315 186.422479 
L 977.185132 185.248776 
L 977.594372 185.394044 
L 978.208231 185.736147 
L 979.435949 186.107772 
L 980.049808 186.00978 
L 980.663668 186.173202 
L 982.300625 185.874502 
L 982.914485 185.639569 
L 985.165302 185.248304 
L 985.98378 184.973764 
L 986.39302 184.893592 
L 986.802259 184.585422 
L 987.416119 183.933624 
L 988.643837 183.369769 
L 989.053076 183.218741 
L 991.508513 181.58107 
L 992.531612 180.50104 
L 993.350091 179.506624 
L 994.987048 178.003568 
L 995.600908 177.1624 
L 996.214767 176.339808 
L 997.237865 175.568884 
L 998.056344 174.856581 
L 999.897922 173.355274 
L 1000.921021 173.203108 
L 1002.148739 172.28823 
L 1003.376457 172.331103 
L 1005.013415 172.55157 
L 1005.627274 172.660723 
L 1006.445753 173.233346 
L 1007.059612 173.660931 
L 1007.468852 173.763558 
L 1007.878091 173.493997 
L 1008.082711 173.154425 
L 1008.49195 171.723287 
L 1008.90119 168.705874 
L 1009.310429 163.600223 
L 1010.128908 151.840831 
L 1010.333528 150.99794 
L 1010.538148 151.203267 
L 1010.947387 153.510186 
L 1012.175106 161.565515 
L 1012.788965 164.121248 
L 1013.607444 166.593931 
L 1014.630542 168.662523 
L 1015.039782 169.226151 
L 1015.449021 169.415249 
L 1015.653641 169.270617 
L 1016.06288 168.534992 
L 1016.47212 167.317577 
L 1016.881359 165.16388 
L 1017.290599 161.641263 
L 1018.109078 153.712543 
L 1018.313697 153.313958 
L 1018.518317 154.187166 
L 1019.132176 160.728868 
L 1019.746035 166.325018 
L 1020.359895 169.890428 
L 1020.973754 172.314693 
L 1022.610712 176.589088 
L 1023.224571 177.711506 
L 1023.63381 178.224568 
L 1024.861529 179.097065 
L 1026.498486 179.985058 
L 1027.112346 180.50452 
L 1027.930824 180.683543 
L 1029.158543 181.267287 
L 1030.795501 181.276578 
L 1033.046318 182.090604 
L 1033.455557 182.591061 
L 1034.274036 183.695264 
L 1034.683275 184.065723 
L 1036.115614 184.698911 
L 1038.161811 185.337985 
L 1039.798769 185.007546 
L 1040.208008 184.609529 
L 1041.231107 183.065975 
L 1041.640346 183.545449 
L 1043.072684 185.2557 
L 1043.481924 185.557185 
L 1044.095783 186.206053 
L 1044.709642 186.434231 
L 1046.755839 186.914163 
L 1047.369699 187.242258 
L 1047.778938 187.241412 
L 1048.597417 187.040583 
L 1049.825135 186.915398 
L 1050.234375 186.798717 
L 1055.145248 187.309453 
L 1055.963727 187.362681 
L 1056.372966 187.414992 
L 1056.986826 187.293053 
L 1057.600685 187.45225 
L 1058.419164 187.895582 
L 1060.260741 187.43604 
L 1060.669981 187.540396 
L 1061.693079 188.033922 
L 1062.511558 187.937341 
L 1063.125417 187.869451 
L 1063.739277 187.879478 
L 1064.557756 187.647818 
L 1065.171615 187.835331 
L 1065.580854 187.95577 
L 1066.808573 187.831543 
L 1067.422432 188.053374 
L 1068.65015 187.88419 
L 1069.673249 188.041338 
L 1070.287108 187.950762 
L 1070.900967 187.876853 
L 1073.151784 188.041103 
L 1073.561024 188.220527 
L 1073.970263 188.129123 
L 1074.788742 187.848143 
L 1075.197981 187.86793 
L 1077.039559 188.316274 
L 1077.858038 188.320257 
L 1078.676517 188.24894 
L 1080.108855 188.275736 
L 1080.722714 188.228034 
L 1081.336573 188.084191 
L 1082.973531 188.100304 
L 1084.405869 188.021917 
L 1085.428968 188.173021 
L 1086.247447 188.064353 
L 1087.270545 188.03542 
L 1088.702883 188.079288 
L 1089.316743 187.900132 
L 1089.725982 188.080072 
L 1090.135221 188.269371 
L 1092.590658 188.200341 
L 1093.409137 188.276872 
L 1093.818377 188.264835 
L 1094.636855 188.090245 
L 1095.659954 188.046786 
L 1096.069193 188.214729 
L 1096.683053 188.581077 
L 1097.501532 188.647815 
L 1098.72925 188.373344 
L 1099.547729 188.131256 
L 1100.570827 188.085619 
L 1101.389306 187.764283 
L 1101.798546 187.879851 
L 1102.617025 188.348038 
L 1106.709419 188.223484 
L 1107.323278 187.961265 
L 1108.346377 187.968229 
L 1108.960236 188.01773 
L 1109.574095 187.974812 
L 1110.597194 188.136406 
L 1112.643391 188.222675 
L 1113.052631 188.269027 
L 1114.484969 188.124371 
L 1116.121927 188.544569 
L 1117.554265 188.238601 
L 1118.781983 188.413776 
L 1121.44204 188.643701 
L 1122.669758 188.381443 
L 1123.897476 188.463705 
L 1124.920575 188.339966 
L 1125.534434 188.048386 
L 1126.148293 188.02571 
L 1127.376012 188.009495 
L 1128.80835 187.910795 
L 1129.422209 188.100598 
L 1131.059167 188.123159 
L 1131.673026 188.071704 
L 1132.900744 187.803111 
L 1133.923843 187.888097 
L 1137.197759 188.62771 
L 1138.016237 188.479077 
L 1138.834716 188.748552 
L 1139.448576 188.616108 
L 1140.267054 188.33907 
L 1141.085533 188.090859 
L 1141.699393 188.111195 
L 1142.313252 188.194993 
L 1142.927111 188.419165 
L 1145.177928 188.410008 
L 1147.019505 188.495445 
L 1147.633365 188.434462 
L 1148.861083 188.514409 
L 1149.679562 188.506987 
L 1150.498041 188.351036 
L 1151.1119 188.414763 
L 1151.725759 188.557295 
L 1153.771956 188.467004 
L 1154.385816 188.535881 
L 1156.841252 188.220911 
L 1157.455112 188.392586 
L 1158.068971 188.623689 
L 1161.138267 188.680583 
L 1161.956746 188.846438 
L 1163.593703 188.693305 
L 1165.435281 188.435978 
L 1166.04914 188.3832 
L 1166.662999 188.277062 
L 1167.276858 188.455956 
L 1167.890718 188.652166 
L 1168.504577 188.540574 
L 1169.118436 188.436193 
L 1169.732295 188.42255 
L 1170.346154 188.445045 
L 1170.960014 188.481581 
L 1172.596971 188.219216 
L 1173.41545 188.595873 
L 1174.029309 188.713667 
L 1176.689366 188.543959 
L 1177.303225 188.389963 
L 1177.917084 188.310069 
L 1178.735563 188.26314 
L 1179.144803 188.326114 
L 1179.758662 188.514087 
L 1181.191 188.318043 
L 1184.464915 188.687841 
L 1184.874155 188.585981 
L 1184.874155 188.585981 
" clip-path="url(#p9acd71ddb2)" style="fill: none; stroke: #000000; stroke-width: 2; stroke-linecap: square"/>
   </g>
   <g id="patch_3">
    <path d="M 3.00024 198.907885 
L 1184.99976 198.907885 
" style="fill: none; stroke: #000000; stroke-width: 2; stroke-linejoin: miter; stroke-linecap: square"/>
   </g>
  </g>
 </g>
 <defs>
  <clipPath id="p9acd71ddb2">
   <rect x="3.00024" y="3.00024" width="1181.99952" height="195.907645"/>
  </clipPath>
 </defs>
</svg>
