<?xml version="1.0" encoding="utf-8" standalone="no"?>
<!DOCTYPE svg PUBLIC "-//W3C//DTD SVG 1.1//EN"
  "http://www.w3.org/Graphics/SVG/1.1/DTD/svg11.dtd">
<svg xmlns:xlink="http://www.w3.org/1999/xlink" width="1188pt" height="252pt" viewBox="0 0 1188 252" xmlns="http://www.w3.org/2000/svg" version="1.1">
 <metadata>
  <rdf:RDF xmlns:dc="http://purl.org/dc/elements/1.1/" xmlns:cc="http://creativecommons.org/ns#" xmlns:rdf="http://www.w3.org/1999/02/22-rdf-syntax-ns#">
   <cc:Work>
    <dc:type rdf:resource="http://purl.org/dc/dcmitype/StillImage"/>
    <dc:date>2024-05-14T19:45:34.812375</dc:date>
    <dc:format>image/svg+xml</dc:format>
    <dc:creator>
     <cc:Agent>
      <dc:title>Matplotlib v3.8.0, https://matplotlib.org/</dc:title>
     </cc:Agent>
    </dc:creator>
   </cc:Work>
  </rdf:RDF>
 </metadata>
 <defs>
  <style type="text/css">*{stroke-linejoin: round; stroke-linecap: butt}</style>
 </defs>
 <g id="figure_1">
  <g id="patch_1">
   <path d="M 0 252 
L 1188 252 
L 1188 0 
L 0 0 
z
" style="fill: #ffffff"/>
  </g>
  <g id="axes_1">
   <g id="patch_2">
    <path d="M 3.00024 198.907885 
L 1184.99976 198.907885 
L 1184.99976 20.50024 
L 3.00024 20.50024 
z
" style="fill: #ffffff"/>
   </g>
   <g id="matplotlib.axis_1">
    <g id="xtick_1">
     <g id="line2d_1">
      <defs>
       <path id="m0ca0e3e8e7" d="M 0 0 
L 0 8 
" style="stroke: #000000; stroke-width: 2"/>
      </defs>
      <g>
       <use xlink:href="#m0ca0e3e8e7" x="56.727491" y="198.907885" style="stroke: #000000; stroke-width: 2"/>
      </g>
     </g>
     <g id="text_1">
      <!-- 12.0 -->
      <g transform="translate(39.212647 224.791947) scale(0.18 -0.18)">
       <defs>
        <path id="Arial-BoldMT-31" d="M 2519 0 
L 1641 0 
L 1641 3309 
Q 1159 2859 506 2644 
L 506 3441 
Q 850 3553 1253 3867 
Q 1656 4181 1806 4600 
L 2519 4600 
L 2519 0 
z
" transform="scale(0.015625)"/>
        <path id="Arial-BoldMT-32" d="M 3238 816 
L 3238 0 
L 159 0 
Q 209 463 459 877 
Q 709 1291 1447 1975 
Q 2041 2528 2175 2725 
Q 2356 2997 2356 3263 
Q 2356 3556 2198 3714 
Q 2041 3872 1763 3872 
Q 1488 3872 1325 3706 
Q 1163 3541 1138 3156 
L 263 3244 
Q 341 3969 753 4284 
Q 1166 4600 1784 4600 
Q 2463 4600 2850 4234 
Q 3238 3869 3238 3325 
Q 3238 3016 3127 2736 
Q 3016 2456 2775 2150 
Q 2616 1947 2200 1565 
Q 1784 1184 1673 1059 
Q 1563 934 1494 816 
L 3238 816 
z
" transform="scale(0.015625)"/>
        <path id="Arial-BoldMT-2e" d="M 459 0 
L 459 878 
L 1338 878 
L 1338 0 
L 459 0 
z
" transform="scale(0.015625)"/>
        <path id="Arial-BoldMT-30" d="M 1756 4600 
Q 2422 4600 2797 4125 
Q 3244 3563 3244 2259 
Q 3244 959 2794 391 
Q 2422 -78 1756 -78 
Q 1088 -78 678 436 
Q 269 950 269 2269 
Q 269 3563 719 4131 
Q 1091 4600 1756 4600 
z
M 1756 3872 
Q 1597 3872 1472 3770 
Q 1347 3669 1278 3406 
Q 1188 3066 1188 2259 
Q 1188 1453 1269 1151 
Q 1350 850 1473 750 
Q 1597 650 1756 650 
Q 1916 650 2041 751 
Q 2166 853 2234 1116 
Q 2325 1453 2325 2259 
Q 2325 3066 2244 3367 
Q 2163 3669 2039 3770 
Q 1916 3872 1756 3872 
z
" transform="scale(0.015625)"/>
       </defs>
       <use xlink:href="#Arial-BoldMT-31"/>
       <use xlink:href="#Arial-BoldMT-32" x="55.615234"/>
       <use xlink:href="#Arial-BoldMT-2e" x="111.230469"/>
       <use xlink:href="#Arial-BoldMT-30" x="139.013672"/>
      </g>
     </g>
    </g>
    <g id="xtick_2">
     <g id="line2d_2">
      <g>
       <use xlink:href="#m0ca0e3e8e7" x="154.386819" y="198.907885" style="stroke: #000000; stroke-width: 2"/>
      </g>
     </g>
     <g id="text_2">
      <!-- 10.7 -->
      <g transform="translate(136.871975 224.791947) scale(0.18 -0.18)">
       <defs>
        <path id="Arial-BoldMT-37" d="M 272 3703 
L 272 4519 
L 3275 4519 
L 3275 3881 
Q 2903 3516 2518 2831 
Q 2134 2147 1932 1376 
Q 1731 606 1734 0 
L 888 0 
Q 909 950 1279 1937 
Q 1650 2925 2269 3703 
L 272 3703 
z
" transform="scale(0.015625)"/>
       </defs>
       <use xlink:href="#Arial-BoldMT-31"/>
       <use xlink:href="#Arial-BoldMT-30" x="55.615234"/>
       <use xlink:href="#Arial-BoldMT-2e" x="111.230469"/>
       <use xlink:href="#Arial-BoldMT-37" x="139.013672"/>
      </g>
     </g>
    </g>
    <g id="xtick_3">
     <g id="line2d_3">
      <g>
       <use xlink:href="#m0ca0e3e8e7" x="252.046146" y="198.907885" style="stroke: #000000; stroke-width: 2"/>
      </g>
     </g>
     <g id="text_3">
      <!-- 9.5 -->
      <g transform="translate(239.536146 224.791947) scale(0.18 -0.18)">
       <defs>
        <path id="Arial-BoldMT-39" d="M 291 1059 
L 1141 1153 
Q 1172 894 1303 769 
Q 1434 644 1650 644 
Q 1922 644 2112 894 
Q 2303 1144 2356 1931 
Q 2025 1547 1528 1547 
Q 988 1547 595 1964 
Q 203 2381 203 3050 
Q 203 3747 617 4173 
Q 1031 4600 1672 4600 
Q 2369 4600 2816 4061 
Q 3263 3522 3263 2288 
Q 3263 1031 2797 475 
Q 2331 -81 1584 -81 
Q 1047 -81 715 205 
Q 384 491 291 1059 
z
M 2278 2978 
Q 2278 3403 2083 3637 
Q 1888 3872 1631 3872 
Q 1388 3872 1227 3680 
Q 1066 3488 1066 3050 
Q 1066 2606 1241 2398 
Q 1416 2191 1678 2191 
Q 1931 2191 2104 2391 
Q 2278 2591 2278 2978 
z
" transform="scale(0.015625)"/>
        <path id="Arial-BoldMT-35" d="M 284 1178 
L 1159 1269 
Q 1197 972 1381 798 
Q 1566 625 1806 625 
Q 2081 625 2272 848 
Q 2463 1072 2463 1522 
Q 2463 1944 2273 2155 
Q 2084 2366 1781 2366 
Q 1403 2366 1103 2031 
L 391 2134 
L 841 4519 
L 3163 4519 
L 3163 3697 
L 1506 3697 
L 1369 2919 
Q 1663 3066 1969 3066 
Q 2553 3066 2959 2641 
Q 3366 2216 3366 1538 
Q 3366 972 3038 528 
Q 2591 -78 1797 -78 
Q 1163 -78 763 262 
Q 363 603 284 1178 
z
" transform="scale(0.015625)"/>
       </defs>
       <use xlink:href="#Arial-BoldMT-39"/>
       <use xlink:href="#Arial-BoldMT-2e" x="55.615234"/>
       <use xlink:href="#Arial-BoldMT-35" x="83.398438"/>
      </g>
     </g>
    </g>
    <g id="xtick_4">
     <g id="line2d_4">
      <g>
       <use xlink:href="#m0ca0e3e8e7" x="349.705474" y="198.907885" style="stroke: #000000; stroke-width: 2"/>
      </g>
     </g>
     <g id="text_4">
      <!-- 8.2 -->
      <g transform="translate(337.195474 224.791947) scale(0.18 -0.18)">
       <defs>
        <path id="Arial-BoldMT-38" d="M 1025 2472 
Q 684 2616 529 2867 
Q 375 3119 375 3419 
Q 375 3931 733 4265 
Q 1091 4600 1750 4600 
Q 2403 4600 2764 4265 
Q 3125 3931 3125 3419 
Q 3125 3100 2959 2851 
Q 2794 2603 2494 2472 
Q 2875 2319 3073 2025 
Q 3272 1731 3272 1347 
Q 3272 713 2867 316 
Q 2463 -81 1791 -81 
Q 1166 -81 750 247 
Q 259 634 259 1309 
Q 259 1681 443 1992 
Q 628 2303 1025 2472 
z
M 1206 3356 
Q 1206 3094 1354 2947 
Q 1503 2800 1750 2800 
Q 2000 2800 2150 2948 
Q 2300 3097 2300 3359 
Q 2300 3606 2151 3754 
Q 2003 3903 1759 3903 
Q 1506 3903 1356 3753 
Q 1206 3603 1206 3356 
z
M 1125 1394 
Q 1125 1031 1311 828 
Q 1497 625 1775 625 
Q 2047 625 2225 820 
Q 2403 1016 2403 1384 
Q 2403 1706 2222 1901 
Q 2041 2097 1763 2097 
Q 1441 2097 1283 1875 
Q 1125 1653 1125 1394 
z
" transform="scale(0.015625)"/>
       </defs>
       <use xlink:href="#Arial-BoldMT-38"/>
       <use xlink:href="#Arial-BoldMT-2e" x="55.615234"/>
       <use xlink:href="#Arial-BoldMT-32" x="83.398438"/>
      </g>
     </g>
    </g>
    <g id="xtick_5">
     <g id="line2d_5">
      <g>
       <use xlink:href="#m0ca0e3e8e7" x="447.364802" y="198.907885" style="stroke: #000000; stroke-width: 2"/>
      </g>
     </g>
     <g id="text_5">
      <!-- 6.9 -->
      <g transform="translate(434.854802 224.791947) scale(0.18 -0.18)">
       <defs>
        <path id="Arial-BoldMT-36" d="M 3247 3459 
L 2397 3366 
Q 2366 3628 2234 3753 
Q 2103 3878 1894 3878 
Q 1616 3878 1423 3628 
Q 1231 3378 1181 2588 
Q 1509 2975 1997 2975 
Q 2547 2975 2939 2556 
Q 3331 2138 3331 1475 
Q 3331 772 2918 347 
Q 2506 -78 1859 -78 
Q 1166 -78 719 461 
Q 272 1000 272 2228 
Q 272 3488 737 4044 
Q 1203 4600 1947 4600 
Q 2469 4600 2811 4308 
Q 3153 4016 3247 3459 
z
M 1256 1544 
Q 1256 1116 1453 883 
Q 1650 650 1903 650 
Q 2147 650 2309 840 
Q 2472 1031 2472 1466 
Q 2472 1913 2297 2120 
Q 2122 2328 1859 2328 
Q 1606 2328 1431 2129 
Q 1256 1931 1256 1544 
z
" transform="scale(0.015625)"/>
       </defs>
       <use xlink:href="#Arial-BoldMT-36"/>
       <use xlink:href="#Arial-BoldMT-2e" x="55.615234"/>
       <use xlink:href="#Arial-BoldMT-39" x="83.398438"/>
      </g>
     </g>
    </g>
    <g id="xtick_6">
     <g id="line2d_6">
      <g>
       <use xlink:href="#m0ca0e3e8e7" x="545.02413" y="198.907885" style="stroke: #000000; stroke-width: 2"/>
      </g>
     </g>
     <g id="text_6">
      <!-- 5.6 -->
      <g transform="translate(532.51413 224.791947) scale(0.18 -0.18)">
       <use xlink:href="#Arial-BoldMT-35"/>
       <use xlink:href="#Arial-BoldMT-2e" x="55.615234"/>
       <use xlink:href="#Arial-BoldMT-36" x="83.398438"/>
      </g>
     </g>
    </g>
    <g id="xtick_7">
     <g id="line2d_7">
      <g>
       <use xlink:href="#m0ca0e3e8e7" x="642.683457" y="198.907885" style="stroke: #000000; stroke-width: 2"/>
      </g>
     </g>
     <g id="text_7">
      <!-- 4.4 -->
      <g transform="translate(630.173457 224.791947) scale(0.18 -0.18)">
       <defs>
        <path id="Arial-BoldMT-34" d="M 1994 0 
L 1994 922 
L 119 922 
L 119 1691 
L 2106 4600 
L 2844 4600 
L 2844 1694 
L 3413 1694 
L 3413 922 
L 2844 922 
L 2844 0 
L 1994 0 
z
M 1994 1694 
L 1994 3259 
L 941 1694 
L 1994 1694 
z
" transform="scale(0.015625)"/>
       </defs>
       <use xlink:href="#Arial-BoldMT-34"/>
       <use xlink:href="#Arial-BoldMT-2e" x="55.615234"/>
       <use xlink:href="#Arial-BoldMT-34" x="83.398438"/>
      </g>
     </g>
    </g>
    <g id="xtick_8">
     <g id="line2d_8">
      <g>
       <use xlink:href="#m0ca0e3e8e7" x="740.342785" y="198.907885" style="stroke: #000000; stroke-width: 2"/>
      </g>
     </g>
     <g id="text_8">
      <!-- 3.1 -->
      <g transform="translate(727.832785 224.791947) scale(0.18 -0.18)">
       <defs>
        <path id="Arial-BoldMT-33" d="M 241 1216 
L 1091 1319 
Q 1131 994 1309 822 
Q 1488 650 1741 650 
Q 2013 650 2198 856 
Q 2384 1063 2384 1413 
Q 2384 1744 2206 1937 
Q 2028 2131 1772 2131 
Q 1603 2131 1369 2066 
L 1466 2781 
Q 1822 2772 2009 2936 
Q 2197 3100 2197 3372 
Q 2197 3603 2059 3740 
Q 1922 3878 1694 3878 
Q 1469 3878 1309 3722 
Q 1150 3566 1116 3266 
L 306 3403 
Q 391 3819 561 4067 
Q 731 4316 1036 4458 
Q 1341 4600 1719 4600 
Q 2366 4600 2756 4188 
Q 3078 3850 3078 3425 
Q 3078 2822 2419 2463 
Q 2813 2378 3048 2084 
Q 3284 1791 3284 1375 
Q 3284 772 2843 347 
Q 2403 -78 1747 -78 
Q 1125 -78 715 280 
Q 306 638 241 1216 
z
" transform="scale(0.015625)"/>
       </defs>
       <use xlink:href="#Arial-BoldMT-33"/>
       <use xlink:href="#Arial-BoldMT-2e" x="55.615234"/>
       <use xlink:href="#Arial-BoldMT-31" x="83.398438"/>
      </g>
     </g>
    </g>
    <g id="xtick_9">
     <g id="line2d_9">
      <g>
       <use xlink:href="#m0ca0e3e8e7" x="838.002113" y="198.907885" style="stroke: #000000; stroke-width: 2"/>
      </g>
     </g>
     <g id="text_9">
      <!-- 1.8 -->
      <g transform="translate(825.492113 224.791947) scale(0.18 -0.18)">
       <use xlink:href="#Arial-BoldMT-31"/>
       <use xlink:href="#Arial-BoldMT-2e" x="55.615234"/>
       <use xlink:href="#Arial-BoldMT-38" x="83.398438"/>
      </g>
     </g>
    </g>
    <g id="xtick_10">
     <g id="line2d_10">
      <g>
       <use xlink:href="#m0ca0e3e8e7" x="935.661441" y="198.907885" style="stroke: #000000; stroke-width: 2"/>
      </g>
     </g>
     <g id="text_10">
      <!-- 0.6 -->
      <g transform="translate(923.151441 224.791947) scale(0.18 -0.18)">
       <use xlink:href="#Arial-BoldMT-30"/>
       <use xlink:href="#Arial-BoldMT-2e" x="55.615234"/>
       <use xlink:href="#Arial-BoldMT-36" x="83.398438"/>
      </g>
     </g>
    </g>
    <g id="xtick_11">
     <g id="line2d_11">
      <g>
       <use xlink:href="#m0ca0e3e8e7" x="1033.320768" y="198.907885" style="stroke: #000000; stroke-width: 2"/>
      </g>
     </g>
     <g id="text_11">
      <!-- -0.7 -->
      <g transform="translate(1017.81405 224.791947) scale(0.18 -0.18)">
       <defs>
        <path id="Arial-BoldMT-2d" d="M 359 1222 
L 359 2100 
L 2084 2100 
L 2084 1222 
L 359 1222 
z
" transform="scale(0.015625)"/>
       </defs>
       <use xlink:href="#Arial-BoldMT-2d"/>
       <use xlink:href="#Arial-BoldMT-30" x="33.300781"/>
       <use xlink:href="#Arial-BoldMT-2e" x="88.916016"/>
       <use xlink:href="#Arial-BoldMT-37" x="116.699219"/>
      </g>
     </g>
    </g>
    <g id="xtick_12">
     <g id="line2d_12">
      <g>
       <use xlink:href="#m0ca0e3e8e7" x="1130.980096" y="198.907885" style="stroke: #000000; stroke-width: 2"/>
      </g>
     </g>
     <g id="text_12">
      <!-- -2.0 -->
      <g transform="translate(1115.473377 224.791947) scale(0.18 -0.18)">
       <use xlink:href="#Arial-BoldMT-2d"/>
       <use xlink:href="#Arial-BoldMT-32" x="33.300781"/>
       <use xlink:href="#Arial-BoldMT-2e" x="88.916016"/>
       <use xlink:href="#Arial-BoldMT-30" x="116.699219"/>
      </g>
     </g>
    </g>
    <g id="text_13">
     <!-- Chemical shift / ppm -->
     <g transform="translate(505.99125 245.447573) scale(0.18 -0.18)">
      <defs>
       <path id="Arial-BoldMT-43" d="M 3397 1684 
L 4294 1400 
Q 4088 650 3608 286 
Q 3128 -78 2391 -78 
Q 1478 -78 890 545 
Q 303 1169 303 2250 
Q 303 3394 893 4026 
Q 1484 4659 2447 4659 
Q 3288 4659 3813 4163 
Q 4125 3869 4281 3319 
L 3366 3100 
Q 3284 3456 3026 3662 
Q 2769 3869 2400 3869 
Q 1891 3869 1573 3503 
Q 1256 3138 1256 2319 
Q 1256 1450 1568 1081 
Q 1881 713 2381 713 
Q 2750 713 3015 947 
Q 3281 1181 3397 1684 
z
" transform="scale(0.015625)"/>
       <path id="Arial-BoldMT-68" d="M 1334 4581 
L 1334 2897 
Q 1759 3394 2350 3394 
Q 2653 3394 2897 3281 
Q 3141 3169 3264 2994 
Q 3388 2819 3433 2606 
Q 3478 2394 3478 1947 
L 3478 0 
L 2600 0 
L 2600 1753 
Q 2600 2275 2550 2415 
Q 2500 2556 2373 2639 
Q 2247 2722 2056 2722 
Q 1838 2722 1666 2615 
Q 1494 2509 1414 2295 
Q 1334 2081 1334 1663 
L 1334 0 
L 456 0 
L 456 4581 
L 1334 4581 
z
" transform="scale(0.015625)"/>
       <path id="Arial-BoldMT-65" d="M 2381 1056 
L 3256 909 
Q 3088 428 2723 176 
Q 2359 -75 1813 -75 
Q 947 -75 531 491 
Q 203 944 203 1634 
Q 203 2459 634 2926 
Q 1066 3394 1725 3394 
Q 2466 3394 2894 2905 
Q 3322 2416 3303 1406 
L 1103 1406 
Q 1113 1016 1316 798 
Q 1519 581 1822 581 
Q 2028 581 2168 693 
Q 2309 806 2381 1056 
z
M 2431 1944 
Q 2422 2325 2234 2523 
Q 2047 2722 1778 2722 
Q 1491 2722 1303 2513 
Q 1116 2303 1119 1944 
L 2431 1944 
z
" transform="scale(0.015625)"/>
       <path id="Arial-BoldMT-6d" d="M 394 3319 
L 1203 3319 
L 1203 2866 
Q 1638 3394 2238 3394 
Q 2556 3394 2790 3262 
Q 3025 3131 3175 2866 
Q 3394 3131 3647 3262 
Q 3900 3394 4188 3394 
Q 4553 3394 4806 3245 
Q 5059 3097 5184 2809 
Q 5275 2597 5275 2122 
L 5275 0 
L 4397 0 
L 4397 1897 
Q 4397 2391 4306 2534 
Q 4184 2722 3931 2722 
Q 3747 2722 3584 2609 
Q 3422 2497 3350 2280 
Q 3278 2063 3278 1594 
L 3278 0 
L 2400 0 
L 2400 1819 
Q 2400 2303 2353 2443 
Q 2306 2584 2207 2653 
Q 2109 2722 1941 2722 
Q 1738 2722 1575 2612 
Q 1413 2503 1342 2297 
Q 1272 2091 1272 1613 
L 1272 0 
L 394 0 
L 394 3319 
z
" transform="scale(0.015625)"/>
       <path id="Arial-BoldMT-69" d="M 459 3769 
L 459 4581 
L 1338 4581 
L 1338 3769 
L 459 3769 
z
M 459 0 
L 459 3319 
L 1338 3319 
L 1338 0 
L 459 0 
z
" transform="scale(0.015625)"/>
       <path id="Arial-BoldMT-63" d="M 3353 2338 
L 2488 2181 
Q 2444 2441 2289 2572 
Q 2134 2703 1888 2703 
Q 1559 2703 1364 2476 
Q 1169 2250 1169 1719 
Q 1169 1128 1367 884 
Q 1566 641 1900 641 
Q 2150 641 2309 783 
Q 2469 925 2534 1272 
L 3397 1125 
Q 3263 531 2881 228 
Q 2500 -75 1859 -75 
Q 1131 -75 698 384 
Q 266 844 266 1656 
Q 266 2478 700 2936 
Q 1134 3394 1875 3394 
Q 2481 3394 2839 3133 
Q 3197 2872 3353 2338 
z
" transform="scale(0.015625)"/>
       <path id="Arial-BoldMT-61" d="M 1116 2306 
L 319 2450 
Q 453 2931 781 3162 
Q 1109 3394 1756 3394 
Q 2344 3394 2631 3255 
Q 2919 3116 3036 2902 
Q 3153 2688 3153 2116 
L 3144 1091 
Q 3144 653 3186 445 
Q 3228 238 3344 0 
L 2475 0 
Q 2441 88 2391 259 
Q 2369 338 2359 363 
Q 2134 144 1878 34 
Q 1622 -75 1331 -75 
Q 819 -75 523 203 
Q 228 481 228 906 
Q 228 1188 362 1408 
Q 497 1628 739 1745 
Q 981 1863 1438 1950 
Q 2053 2066 2291 2166 
L 2291 2253 
Q 2291 2506 2166 2614 
Q 2041 2722 1694 2722 
Q 1459 2722 1328 2630 
Q 1197 2538 1116 2306 
z
M 2291 1594 
Q 2122 1538 1756 1459 
Q 1391 1381 1278 1306 
Q 1106 1184 1106 997 
Q 1106 813 1243 678 
Q 1381 544 1594 544 
Q 1831 544 2047 700 
Q 2206 819 2256 991 
Q 2291 1103 2291 1419 
L 2291 1594 
z
" transform="scale(0.015625)"/>
       <path id="Arial-BoldMT-6c" d="M 459 0 
L 459 4581 
L 1338 4581 
L 1338 0 
L 459 0 
z
" transform="scale(0.015625)"/>
       <path id="Arial-BoldMT-20" transform="scale(0.015625)"/>
       <path id="Arial-BoldMT-73" d="M 150 947 
L 1031 1081 
Q 1088 825 1259 692 
Q 1431 559 1741 559 
Q 2081 559 2253 684 
Q 2369 772 2369 919 
Q 2369 1019 2306 1084 
Q 2241 1147 2013 1200 
Q 950 1434 666 1628 
Q 272 1897 272 2375 
Q 272 2806 612 3100 
Q 953 3394 1669 3394 
Q 2350 3394 2681 3172 
Q 3013 2950 3138 2516 
L 2309 2363 
Q 2256 2556 2107 2659 
Q 1959 2763 1684 2763 
Q 1338 2763 1188 2666 
Q 1088 2597 1088 2488 
Q 1088 2394 1175 2328 
Q 1294 2241 1995 2081 
Q 2697 1922 2975 1691 
Q 3250 1456 3250 1038 
Q 3250 581 2869 253 
Q 2488 -75 1741 -75 
Q 1063 -75 667 200 
Q 272 475 150 947 
z
" transform="scale(0.015625)"/>
       <path id="Arial-BoldMT-66" d="M 75 3319 
L 563 3319 
L 563 3569 
Q 563 3988 652 4194 
Q 741 4400 980 4529 
Q 1219 4659 1584 4659 
Q 1959 4659 2319 4547 
L 2200 3934 
Q 1991 3984 1797 3984 
Q 1606 3984 1523 3895 
Q 1441 3806 1441 3553 
L 1441 3319 
L 2097 3319 
L 2097 2628 
L 1441 2628 
L 1441 0 
L 563 0 
L 563 2628 
L 75 2628 
L 75 3319 
z
" transform="scale(0.015625)"/>
       <path id="Arial-BoldMT-74" d="M 1981 3319 
L 1981 2619 
L 1381 2619 
L 1381 1281 
Q 1381 875 1398 808 
Q 1416 741 1477 697 
Q 1538 653 1625 653 
Q 1747 653 1978 738 
L 2053 56 
Q 1747 -75 1359 -75 
Q 1122 -75 931 4 
Q 741 84 652 211 
Q 563 338 528 553 
Q 500 706 500 1172 
L 500 2619 
L 97 2619 
L 97 3319 
L 500 3319 
L 500 3978 
L 1381 4491 
L 1381 3319 
L 1981 3319 
z
" transform="scale(0.015625)"/>
       <path id="Arial-BoldMT-2f" d="M -9 -78 
L 1125 4659 
L 1784 4659 
L 638 -78 
L -9 -78 
z
" transform="scale(0.015625)"/>
       <path id="Arial-BoldMT-70" d="M 434 3319 
L 1253 3319 
L 1253 2831 
Q 1413 3081 1684 3237 
Q 1956 3394 2288 3394 
Q 2866 3394 3269 2941 
Q 3672 2488 3672 1678 
Q 3672 847 3265 386 
Q 2859 -75 2281 -75 
Q 2006 -75 1782 34 
Q 1559 144 1313 409 
L 1313 -1263 
L 434 -1263 
L 434 3319 
z
M 1303 1716 
Q 1303 1156 1525 889 
Q 1747 622 2066 622 
Q 2372 622 2575 867 
Q 2778 1113 2778 1672 
Q 2778 2194 2568 2447 
Q 2359 2700 2050 2700 
Q 1728 2700 1515 2451 
Q 1303 2203 1303 1716 
z
" transform="scale(0.015625)"/>
      </defs>
      <use xlink:href="#Arial-BoldMT-43"/>
      <use xlink:href="#Arial-BoldMT-68" x="72.216797"/>
      <use xlink:href="#Arial-BoldMT-65" x="133.300781"/>
      <use xlink:href="#Arial-BoldMT-6d" x="188.916016"/>
      <use xlink:href="#Arial-BoldMT-69" x="277.832031"/>
      <use xlink:href="#Arial-BoldMT-63" x="305.615234"/>
      <use xlink:href="#Arial-BoldMT-61" x="361.230469"/>
      <use xlink:href="#Arial-BoldMT-6c" x="416.845703"/>
      <use xlink:href="#Arial-BoldMT-20" x="444.628906"/>
      <use xlink:href="#Arial-BoldMT-73" x="472.412109"/>
      <use xlink:href="#Arial-BoldMT-68" x="528.027344"/>
      <use xlink:href="#Arial-BoldMT-69" x="589.111328"/>
      <use xlink:href="#Arial-BoldMT-66" x="616.894531"/>
      <use xlink:href="#Arial-BoldMT-74" x="650.195312"/>
      <use xlink:href="#Arial-BoldMT-20" x="683.496094"/>
      <use xlink:href="#Arial-BoldMT-2f" x="711.279297"/>
      <use xlink:href="#Arial-BoldMT-20" x="739.0625"/>
      <use xlink:href="#Arial-BoldMT-70" x="766.845703"/>
      <use xlink:href="#Arial-BoldMT-70" x="827.929688"/>
      <use xlink:href="#Arial-BoldMT-6d" x="889.013672"/>
     </g>
    </g>
   </g>
   <g id="matplotlib.axis_2"/>
   <g id="line2d_13">
    <path d="M 56.727491 190.798447 
L 374.369489 190.798447 
L 374.515665 187.545012 
L 375.246549 187.237641 
L 375.977432 186.851626 
L 377.293023 185.991368 
L 378.170083 185.179083 
L 382.263031 181.207385 
L 382.993915 180.851237 
L 383.870975 180.771785 
L 384.309505 180.872593 
L 385.040389 181.440309 
L 388.402453 184.911135 
L 389.133337 185.60998 
L 390.887457 186.991731 
L 392.056871 187.548979 
L 392.203048 190.798447 
L 408.867193 190.798447 
L 409.01337 187.503219 
L 409.598076 186.798542 
L 410.182783 185.82923 
L 410.621313 184.647686 
L 411.352197 182.421004 
L 411.64455 182.106893 
L 411.936904 182.111438 
L 412.229257 182.401793 
L 412.960141 183.473334 
L 413.252494 183.421906 
L 413.544848 182.93432 
L 414.568085 180.556271 
L 415.298968 180.162421 
L 415.591322 179.375565 
L 416.029852 177.013662 
L 416.614559 173.578318 
L 417.053089 172.32554 
L 417.345442 172.140141 
L 417.930149 172.438124 
L 418.076326 172.297184 
L 418.368679 171.312897 
L 418.661033 169.250515 
L 419.099563 164.350222 
L 419.538093 157.026567 
L 420.415153 139.119342 
L 420.56133 138.449872 
L 420.707507 138.932828 
L 420.99986 142.384252 
L 421.43839 148.194605 
L 421.730744 149.348844 
L 421.87692 148.94698 
L 422.31545 145.896099 
L 422.753981 142.288508 
L 423.192511 136.011526 
L 423.777218 126.538818 
L 423.923394 125.922939 
L 424.069571 126.464676 
L 424.508101 132.308497 
L 424.800455 134.815161 
L 424.946631 135.074332 
L 425.238985 135.107285 
L 425.385161 135.652476 
L 425.677515 138.975556 
L 426.846929 159.96825 
L 427.139282 161.876684 
L 427.431635 162.709741 
L 428.016342 163.473231 
L 428.601049 165.613375 
L 428.893403 166.461214 
L 429.185756 166.771792 
L 429.478109 166.768044 
L 429.624286 166.679148 
L 429.91664 166.040623 
L 430.208993 164.431445 
L 430.501346 161.349821 
L 430.939877 153.393571 
L 431.378407 146.197646 
L 431.524583 145.787217 
L 431.67076 146.746811 
L 431.963114 151.994658 
L 432.693997 166.645034 
L 433.132527 171.156473 
L 433.571057 173.787391 
L 435.179001 180.239262 
L 435.471355 180.469135 
L 436.056061 180.07332 
L 436.348415 180.428259 
L 436.933122 181.626815 
L 437.225475 181.709556 
L 437.664005 181.551451 
L 437.956359 181.864842 
L 438.541066 182.787004 
L 438.833419 182.857819 
L 439.125772 182.598551 
L 439.418126 181.901553 
L 440.002833 180.18121 
L 440.149009 180.020124 
L 440.295186 180.039257 
L 440.441363 180.275894 
L 440.733716 181.456986 
L 441.4646 185.38871 
L 441.90313 186.537891 
L 442.34166 187.040898 
L 442.78019 187.521364 
L 442.926367 190.798447 
L 491.749389 190.798447 
L 491.895566 187.510271 
L 493.06498 187.142493 
L 494.965277 186.840371 
L 495.988514 186.785733 
L 496.573221 186.867118 
L 497.157928 186.948473 
L 498.181165 186.842265 
L 500.958522 187.256863 
L 501.981759 187.537418 
L 502.127936 190.798447 
L 548.904484 190.798447 
L 549.050661 187.517019 
L 551.828018 185.469346 
L 552.997432 184.184087 
L 554.605376 182.312985 
L 555.628613 180.639668 
L 556.798027 178.177773 
L 557.96744 175.027405 
L 559.136854 171.484524 
L 560.452444 166.729249 
L 561.475681 162.364646 
L 564.545392 149.278294 
L 564.983922 147.960154 
L 565.276276 147.717662 
L 565.422453 147.835076 
L 565.714806 148.496778 
L 566.299513 150.641536 
L 566.738043 153.143712 
L 567.76128 162.105582 
L 568.053633 165.064254 
L 568.345987 170.247177 
L 568.784517 180.247563 
L 568.930694 181.138821 
L 569.07687 180.650318 
L 569.807754 176.106309 
L 571.269521 169.090312 
L 571.561875 168.773758 
L 571.854228 168.745833 
L 572.146581 168.956478 
L 572.585112 169.646722 
L 573.608349 171.713237 
L 576.093353 177.600725 
L 577.408943 180.286991 
L 578.139827 181.478058 
L 580.332477 184.212439 
L 583.109835 186.516685 
L 584.425425 187.184525 
L 585.302486 187.467285 
L 585.594839 187.517619 
L 585.741016 190.798447 
L 679.440289 190.798447 
L 679.586466 187.431991 
L 680.024996 186.640094 
L 680.463526 185.379478 
L 680.902056 183.374653 
L 681.340586 180.146392 
L 682.07147 173.574405 
L 682.217646 173.299387 
L 682.363823 173.665069 
L 682.656177 175.852438 
L 683.240883 180.851392 
L 683.679414 182.881118 
L 683.971767 183.514643 
L 684.26412 183.721045 
L 684.556474 183.601791 
L 684.848827 183.20722 
L 685.287357 182.152816 
L 685.725887 180.39149 
L 686.164418 177.582006 
L 686.602948 172.984109 
L 687.041478 165.694084 
L 688.210892 143.230576 
L 688.357068 143.813534 
L 688.649422 148.947125 
L 689.526482 170.742959 
L 689.965012 175.918216 
L 690.403542 178.411355 
L 690.695896 179.140097 
L 690.988249 179.324569 
L 691.280603 179.018933 
L 691.572956 178.241285 
L 692.011486 176.10303 
L 692.450016 172.313782 
L 692.888546 165.841629 
L 693.473253 151.702239 
L 693.911783 141.946922 
L 694.05796 140.65495 
L 694.204137 140.848597 
L 694.49649 145.50333 
L 695.665904 173.825974 
L 696.104434 178.631693 
L 696.542964 181.334324 
L 696.981494 182.775859 
L 697.420025 183.420544 
L 697.712378 183.50745 
L 698.004731 183.273315 
L 698.297085 182.701735 
L 698.589438 181.758239 
L 699.027968 179.320513 
L 699.466499 175.120636 
L 699.905029 170.82127 
L 700.051205 170.368393 
L 700.197382 170.730184 
L 700.489736 173.574414 
L 701.220619 182.352577 
L 701.659149 185.182841 
L 702.243856 187.351877 
L 702.390033 190.798447 
L 773.578092 190.798447 
L 773.724269 187.517596 
L 774.455152 186.232578 
L 775.039859 184.709237 
L 775.478389 182.914706 
L 775.916919 180.149254 
L 776.35545 175.880949 
L 776.940156 169.663716 
L 777.086333 168.949326 
L 777.23251 168.799217 
L 777.378687 169.192301 
L 777.817217 172.216459 
L 778.10957 173.843604 
L 778.255747 174.190251 
L 778.401924 174.194003 
L 778.5481 173.856537 
L 778.840454 172.203547 
L 779.571337 166.214724 
L 779.717514 166.234681 
L 779.863691 166.986672 
L 780.886928 176.025211 
L 781.179281 176.524295 
L 781.325458 176.421907 
L 781.617811 175.494513 
L 781.910165 173.457508 
L 782.348695 167.898343 
L 783.225755 153.499435 
L 783.371932 153.518188 
L 783.664285 156.378982 
L 784.248992 163.939671 
L 784.395169 164.698024 
L 784.541346 164.858143 
L 784.687522 164.429831 
L 784.979876 161.902091 
L 785.710759 153.187342 
L 785.856936 153.561217 
L 786.149289 157.49869 
L 787.02635 173.957903 
L 787.46488 177.607423 
L 787.757233 178.681057 
L 788.049587 178.92175 
L 788.195763 178.749102 
L 788.488117 177.806627 
L 788.926647 175.058001 
L 789.365177 172.736597 
L 789.511354 172.755091 
L 789.803707 174.152115 
L 790.388414 177.911443 
L 790.680768 178.536585 
L 790.826944 178.466287 
L 791.119298 177.604991 
L 791.704005 174.831876 
L 791.850181 174.60778 
L 791.996358 174.774524 
L 792.288711 176.309852 
L 793.458125 185.458189 
L 793.896655 186.974866 
L 794.042832 187.328584 
L 794.189009 190.798447 
L 820.646994 190.798447 
L 820.79317 187.526032 
L 821.377877 186.997369 
L 821.670231 187.084839 
L 821.962584 187.428259 
L 822.108761 190.798447 
L 848.859099 190.798447 
L 849.005276 187.503634 
L 849.589983 186.646154 
L 850.320866 185.131217 
L 850.759397 183.824448 
L 851.197927 181.835534 
L 851.636457 178.985967 
L 852.074987 174.703702 
L 852.513517 167.385019 
L 852.952047 154.355202 
L 853.536754 131.93467 
L 853.682931 130.854878 
L 853.829108 133.42802 
L 854.998521 173.126903 
L 855.437051 178.419402 
L 855.875582 181.542706 
L 856.460288 184.124102 
L 857.337349 187.00406 
L 857.483525 187.370628 
L 857.629702 190.798447 
L 1131.272509 190.798447 
L 1131.272509 190.798447 
" clip-path="url(#p17eeaaa153)" style="fill: none; stroke: #000000; stroke-width: 2; stroke-linecap: square"/>
   </g>
   <g id="line2d_14">
    <path d="M 56.727491 93.485186 
L 374.661842 93.485186 
L 374.808019 90.217598 
L 375.977432 89.81938 
L 380.801264 85.89611 
L 381.678324 85.065272 
L 382.555384 84.614482 
L 383.286268 84.541755 
L 383.724798 84.658698 
L 384.309505 85.083311 
L 387.233039 87.751827 
L 387.963923 88.338397 
L 388.840983 89.035798 
L 389.571867 89.539262 
L 390.887457 90.198581 
L 391.179811 90.225106 
L 391.325987 93.485186 
L 409.305723 93.485186 
L 409.4519 90.064534 
L 410.32896 88.901587 
L 410.76749 87.92232 
L 411.790727 85.036599 
L 412.083081 84.927577 
L 412.375434 85.202689 
L 413.252494 86.564163 
L 413.544848 86.561002 
L 413.837201 86.222203 
L 414.568085 85.003126 
L 414.860438 84.861988 
L 415.298968 84.779983 
L 415.591322 84.405343 
L 415.883675 83.510553 
L 416.468382 80.29513 
L 416.906912 78.366019 
L 417.199265 77.765532 
L 417.637796 77.506614 
L 418.076326 77.560027 
L 418.368679 77.531071 
L 418.514856 77.340578 
L 418.807209 76.37632 
L 419.245739 73.503128 
L 419.68427 68.866598 
L 420.707507 54.478053 
L 420.853683 54.486542 
L 420.99986 55.394727 
L 421.43839 61.285838 
L 421.87692 66.333057 
L 422.169274 67.251628 
L 422.31545 67.000838 
L 422.607804 65.587478 
L 423.192511 62.665351 
L 423.484864 62.248189 
L 423.631041 62.18131 
L 423.777218 61.959958 
L 423.923394 61.36399 
L 424.215748 58.399737 
L 424.508101 52.45906 
L 425.385161 28.698431 
L 425.531338 28.609678 
L 425.677515 30.493838 
L 425.969868 38.734829 
L 426.700752 62.092565 
L 427.139282 69.179083 
L 427.431635 71.038275 
L 427.723989 71.458535 
L 428.016342 71.601593 
L 428.162519 71.967909 
L 428.454872 73.615304 
L 429.331933 80.079225 
L 429.624286 81.050689 
L 429.770463 81.200806 
L 429.91664 81.144239 
L 430.208993 80.501099 
L 431.524583 75.693349 
L 431.816937 73.756966 
L 432.10929 70.655891 
L 433.132527 56.961901 
L 433.278704 57.8282 
L 433.571057 61.992276 
L 434.301941 72.982248 
L 434.886648 77.77094 
L 435.325178 79.525104 
L 435.763708 80.471792 
L 436.202238 82.140019 
L 437.371652 87.13155 
L 437.810182 87.868659 
L 438.102535 88.033665 
L 438.394889 87.96931 
L 438.687242 87.665942 
L 439.271949 86.966717 
L 439.564303 87.121816 
L 440.149009 87.809646 
L 440.295186 87.779972 
L 440.58754 87.361465 
L 441.02607 85.933152 
L 441.610777 84.038826 
L 441.756953 83.885331 
L 441.90313 83.95147 
L 442.195483 84.876682 
L 443.072544 89.272411 
L 443.511074 90.218725 
L 443.657251 93.485186 
L 489.118208 93.485186 
L 489.264385 90.232107 
L 491.310859 89.988137 
L 493.795863 90.161825 
L 493.94204 90.206213 
L 494.088217 93.485186 
L 494.965277 93.485186 
L 495.111454 90.223845 
L 496.573221 90.201048 
L 496.719397 93.485186 
L 549.781544 93.485186 
L 549.927721 90.230087 
L 551.243311 89.613162 
L 551.974195 88.88394 
L 553.582139 86.66259 
L 554.897729 85.302484 
L 555.77479 83.918409 
L 556.65185 82.148301 
L 558.259794 77.824114 
L 559.575384 73.699355 
L 560.598621 69.724596 
L 562.060388 63.039077 
L 563.522155 55.404181 
L 564.983922 47.205492 
L 565.276276 46.464808 
L 565.568629 46.20705 
L 565.714806 46.26197 
L 566.007159 46.807497 
L 566.299513 47.968328 
L 566.738043 50.687428 
L 567.615103 58.224377 
L 568.053633 62.271343 
L 568.345987 66.991914 
L 568.930694 79.56602 
L 569.07687 79.885906 
L 569.369224 78.535116 
L 570.830991 70.785931 
L 571.269521 69.500523 
L 571.561875 69.052285 
L 571.854228 68.92539 
L 572.146581 69.101367 
L 572.585112 69.711173 
L 573.023642 70.794802 
L 575.800999 78.760195 
L 577.847473 82.859339 
L 579.455417 85.535345 
L 580.332477 86.660935 
L 581.209538 87.37781 
L 582.378951 88.115258 
L 584.279249 89.73441 
L 584.863955 89.899214 
L 585.594839 90.129271 
L 585.741016 90.197489 
L 585.887192 93.485186 
L 681.486763 93.485186 
L 681.63294 90.121598 
L 682.07147 89.09818 
L 682.51 87.481407 
L 682.94853 84.807008 
L 683.679414 79.194196 
L 683.82559 78.885945 
L 683.971767 79.098481 
L 684.26412 80.773599 
L 684.995004 85.77677 
L 685.433534 87.165165 
L 685.725887 87.569168 
L 686.018241 87.654931 
L 686.310594 87.46875 
L 686.749124 86.812282 
L 687.187655 85.638294 
L 687.626185 83.808399 
L 688.064715 80.841108 
L 688.503245 75.936992 
L 689.087952 65.862105 
L 689.672659 55.522954 
L 689.965012 53.702356 
L 690.111189 54.402549 
L 690.403542 58.927888 
L 691.280603 76.465436 
L 691.719133 80.602224 
L 692.157663 82.712757 
L 692.450016 83.376585 
L 692.74237 83.608763 
L 693.034723 83.466156 
L 693.327077 82.943385 
L 693.61943 81.955658 
L 693.911783 80.350097 
L 694.350314 76.34274 
L 694.788844 69.617975 
L 695.665904 52.333446 
L 695.812081 51.391675 
L 695.958257 51.616503 
L 696.250611 55.276275 
L 697.566201 79.87298 
L 698.004731 83.408398 
L 698.443262 85.424421 
L 698.881792 86.50103 
L 699.320322 86.92656 
L 699.612675 86.886872 
L 699.905029 86.58061 
L 700.197382 86.016331 
L 700.489736 85.086272 
L 700.928266 82.622775 
L 701.805326 75.870011 
L 701.951503 75.95724 
L 702.243856 77.964961 
L 703.120916 86.243409 
L 703.559446 88.386677 
L 703.997977 89.588698 
L 704.29033 90.129236 
L 704.436507 93.485186 
L 775.186036 93.485186 
L 775.332213 90.012423 
L 775.916919 88.714253 
L 776.35545 87.325123 
L 776.79398 85.199764 
L 777.23251 81.831841 
L 777.963393 75.575382 
L 778.10957 75.214321 
L 778.255747 75.328335 
L 778.5481 76.708142 
L 778.98663 79.254248 
L 779.278984 79.874364 
L 779.425161 79.763873 
L 779.717514 78.713919 
L 780.156044 75.41252 
L 780.448398 73.432822 
L 780.594574 73.12224 
L 780.740751 73.426352 
L 781.033104 75.537447 
L 781.617811 80.42466 
L 781.910165 81.630634 
L 782.202518 82.008187 
L 782.348695 81.918518 
L 782.641048 81.133902 
L 782.933402 79.421467 
L 783.225755 76.559062 
L 783.664285 69.723913 
L 784.102815 62.706226 
L 784.248992 61.6739 
L 784.395169 61.606162 
L 784.541346 62.419743 
L 785.418406 71.067944 
L 785.564583 71.303508 
L 785.710759 71.022137 
L 786.003113 68.937539 
L 786.733996 60.918084 
L 786.880173 61.096984 
L 787.172526 64.178275 
L 788.049587 78.07763 
L 788.488117 81.505212 
L 788.78047 82.646699 
L 789.072824 83.091003 
L 789.219 83.080158 
L 789.511354 82.587572 
L 789.803707 81.39646 
L 790.534591 77.630864 
L 790.680768 77.658683 
L 790.973121 78.814465 
L 791.557828 81.748883 
L 791.850181 82.196408 
L 791.996358 82.119428 
L 792.288711 81.381402 
L 793.019595 78.801902 
L 793.165772 78.935903 
L 793.458125 80.219126 
L 794.627539 87.941308 
L 795.212246 89.608408 
L 795.504599 90.133983 
L 795.650776 93.485186 
L 815.969339 93.485186 
L 816.115516 90.21658 
L 817.869636 88.978344 
L 819.91611 86.54688 
L 820.35464 85.914202 
L 820.646994 85.861075 
L 821.524054 86.307435 
L 821.962584 86.275225 
L 822.401114 85.95228 
L 822.985821 85.422359 
L 823.424351 85.331162 
L 823.862881 85.482808 
L 824.447588 85.933582 
L 825.178472 86.860519 
L 825.763179 87.556081 
L 826.494062 88.401152 
L 826.932592 89.16095 
L 827.224946 89.936015 
L 827.371123 93.485186 
L 828.102006 93.485186 
L 828.248183 90.05092 
L 828.83289 89.053052 
L 829.563773 88.160691 
L 830.002303 87.934167 
L 830.58701 87.905406 
L 831.46407 88.18361 
L 832.194954 88.715818 
L 832.925838 89.191394 
L 834.095251 89.856952 
L 834.533781 90.200731 
L 834.679958 93.485186 
L 843.304384 93.485186 
L 843.450561 90.172983 
L 844.035268 88.930665 
L 844.473798 87.417298 
L 844.912328 84.860285 
L 845.350858 80.268553 
L 845.789388 72.46761 
L 846.227918 64.940187 
L 846.374095 64.654188 
L 846.520272 65.905904 
L 847.689686 83.957183 
L 848.128216 86.517757 
L 848.566746 87.95454 
L 849.151453 89.17295 
L 849.73616 89.955221 
L 850.028513 90.218949 
L 850.17469 93.485186 
L 856.021758 93.485186 
L 856.167935 90.230546 
L 857.044995 89.717617 
L 857.337349 89.755503 
L 857.629702 90.046302 
L 857.775879 93.485186 
L 1131.272509 93.485186 
L 1131.272509 93.485186 
" clip-path="url(#p17eeaaa153)" style="fill: none; stroke: #d55e00; stroke-width: 2; stroke-linecap: square"/>
   </g>
   <g id="LineCollection_1">
    <path d="M 56.727491 190.798447 
L 56.727491 93.485186 
" clip-path="url(#p17eeaaa153)" style="fill: none; stroke-dasharray: 1,1.65; stroke-dashoffset: 0; stroke: #808080"/>
    <path d="M 80.115765 190.798447 
L 80.408118 93.485186 
" clip-path="url(#p17eeaaa153)" style="fill: none; stroke-dasharray: 1,1.65; stroke-dashoffset: 0; stroke: #808080"/>
    <path d="M 103.796393 190.798447 
L 104.088746 93.485186 
" clip-path="url(#p17eeaaa153)" style="fill: none; stroke-dasharray: 1,1.65; stroke-dashoffset: 0; stroke: #808080"/>
    <path d="M 127.47702 190.798447 
L 127.769373 93.485186 
" clip-path="url(#p17eeaaa153)" style="fill: none; stroke-dasharray: 1,1.65; stroke-dashoffset: 0; stroke: #808080"/>
    <path d="M 151.157648 190.798447 
L 151.450001 93.485186 
" clip-path="url(#p17eeaaa153)" style="fill: none; stroke-dasharray: 1,1.65; stroke-dashoffset: 0; stroke: #808080"/>
    <path d="M 174.838275 190.798447 
L 175.130629 93.485186 
" clip-path="url(#p17eeaaa153)" style="fill: none; stroke-dasharray: 1,1.65; stroke-dashoffset: 0; stroke: #808080"/>
    <path d="M 198.518903 190.798447 
L 198.811256 93.485186 
" clip-path="url(#p17eeaaa153)" style="fill: none; stroke-dasharray: 1,1.65; stroke-dashoffset: 0; stroke: #808080"/>
    <path d="M 222.345707 190.798447 
L 222.63806 93.485186 
" clip-path="url(#p17eeaaa153)" style="fill: none; stroke-dasharray: 1,1.65; stroke-dashoffset: 0; stroke: #808080"/>
    <path d="M 246.026334 190.798447 
L 246.318688 93.485186 
" clip-path="url(#p17eeaaa153)" style="fill: none; stroke-dasharray: 1,1.65; stroke-dashoffset: 0; stroke: #808080"/>
    <path d="M 269.706962 190.798447 
L 269.999315 93.485186 
" clip-path="url(#p17eeaaa153)" style="fill: none; stroke-dasharray: 1,1.65; stroke-dashoffset: 0; stroke: #808080"/>
    <path d="M 293.387589 190.798447 
L 293.679943 93.485186 
" clip-path="url(#p17eeaaa153)" style="fill: none; stroke-dasharray: 1,1.65; stroke-dashoffset: 0; stroke: #808080"/>
    <path d="M 317.068217 190.798447 
L 317.36057 93.485186 
" clip-path="url(#p17eeaaa153)" style="fill: none; stroke-dasharray: 1,1.65; stroke-dashoffset: 0; stroke: #808080"/>
    <path d="M 340.748845 190.798447 
L 341.041198 93.485186 
" clip-path="url(#p17eeaaa153)" style="fill: none; stroke-dasharray: 1,1.65; stroke-dashoffset: 0; stroke: #808080"/>
    <path d="M 364.429472 190.798447 
L 364.721825 93.485186 
" clip-path="url(#p17eeaaa153)" style="fill: none; stroke-dasharray: 1,1.65; stroke-dashoffset: 0; stroke: #808080"/>
    <path d="M 385.771272 182.215742 
L 384.017152 84.845668 
" clip-path="url(#p17eeaaa153)" style="fill: none; stroke-dasharray: 1,1.65; stroke-dashoffset: 0; stroke: #808080"/>
    <path d="M 406.966896 190.798447 
L 407.405426 93.485186 
" clip-path="url(#p17eeaaa153)" style="fill: none; stroke-dasharray: 1,1.65; stroke-dashoffset: 0; stroke: #808080"/>
    <path d="M 422.607804 143.664617 
L 424.654278 48.343166 
" clip-path="url(#p17eeaaa153)" style="fill: none; stroke-dasharray: 1,1.65; stroke-dashoffset: 0; stroke: #808080"/>
    <path d="M 440.58754 180.7554 
L 436.640768 84.203619 
" clip-path="url(#p17eeaaa153)" style="fill: none; stroke-dasharray: 1,1.65; stroke-dashoffset: 0; stroke: #808080"/>
    <path d="M 458.859629 190.798447 
L 456.228448 93.485186 
" clip-path="url(#p17eeaaa153)" style="fill: none; stroke-dasharray: 1,1.65; stroke-dashoffset: 0; stroke: #808080"/>
    <path d="M 482.540256 190.798447 
L 479.909075 93.485186 
" clip-path="url(#p17eeaaa153)" style="fill: none; stroke-dasharray: 1,1.65; stroke-dashoffset: 0; stroke: #808080"/>
    <path d="M 501.981759 187.537418 
L 494.8191 93.485186 
" clip-path="url(#p17eeaaa153)" style="fill: none; stroke-dasharray: 1,1.65; stroke-dashoffset: 0; stroke: #808080"/>
    <path d="M 517.768844 190.798447 
L 518.645904 93.485186 
" clip-path="url(#p17eeaaa153)" style="fill: none; stroke-dasharray: 1,1.65; stroke-dashoffset: 0; stroke: #808080"/>
    <path d="M 541.449472 190.798447 
L 542.326532 93.485186 
" clip-path="url(#p17eeaaa153)" style="fill: none; stroke-dasharray: 1,1.65; stroke-dashoffset: 0; stroke: #808080"/>
    <path d="M 564.545392 149.278294 
L 564.106862 51.865279 
" clip-path="url(#p17eeaaa153)" style="fill: none; stroke-dasharray: 1,1.65; stroke-dashoffset: 0; stroke: #808080"/>
    <path d="M 582.525128 186.212908 
L 583.256012 88.838847 
" clip-path="url(#p17eeaaa153)" style="fill: none; stroke-dasharray: 1,1.65; stroke-dashoffset: 0; stroke: #808080"/>
    <path d="M 603.866928 190.798447 
L 605.913402 93.485186 
" clip-path="url(#p17eeaaa153)" style="fill: none; stroke-dasharray: 1,1.65; stroke-dashoffset: 0; stroke: #808080"/>
    <path d="M 627.547556 190.798447 
L 629.59403 93.485186 
" clip-path="url(#p17eeaaa153)" style="fill: none; stroke-dasharray: 1,1.65; stroke-dashoffset: 0; stroke: #808080"/>
    <path d="M 651.228183 190.798447 
L 653.274657 93.485186 
" clip-path="url(#p17eeaaa153)" style="fill: none; stroke-dasharray: 1,1.65; stroke-dashoffset: 0; stroke: #808080"/>
    <path d="M 675.054987 190.798447 
L 677.101461 93.485186 
" clip-path="url(#p17eeaaa153)" style="fill: none; stroke-dasharray: 1,1.65; stroke-dashoffset: 0; stroke: #808080"/>
    <path d="M 694.204137 140.848597 
L 695.812081 51.391675 
" clip-path="url(#p17eeaaa153)" style="fill: none; stroke-dasharray: 1,1.65; stroke-dashoffset: 0; stroke: #808080"/>
    <path d="M 715.545937 190.798447 
L 717.153881 93.485186 
" clip-path="url(#p17eeaaa153)" style="fill: none; stroke-dasharray: 1,1.65; stroke-dashoffset: 0; stroke: #808080"/>
    <path d="M 739.226564 190.798447 
L 740.834508 93.485186 
" clip-path="url(#p17eeaaa153)" style="fill: none; stroke-dasharray: 1,1.65; stroke-dashoffset: 0; stroke: #808080"/>
    <path d="M 762.907192 190.798447 
L 764.515136 93.485186 
" clip-path="url(#p17eeaaa153)" style="fill: none; stroke-dasharray: 1,1.65; stroke-dashoffset: 0; stroke: #808080"/>
    <path d="M 782.787225 159.446777 
L 784.248992 61.6739 
" clip-path="url(#p17eeaaa153)" style="fill: none; stroke-dasharray: 1,1.65; stroke-dashoffset: 0; stroke: #808080"/>
    <path d="M 801.644021 190.798447 
L 796.966366 93.485186 
" clip-path="url(#p17eeaaa153)" style="fill: none; stroke-dasharray: 1,1.65; stroke-dashoffset: 0; stroke: #808080"/>
    <path d="M 821.524054 186.997099 
L 820.646994 85.861075 
" clip-path="url(#p17eeaaa153)" style="fill: none; stroke-dasharray: 1,1.65; stroke-dashoffset: 0; stroke: #808080"/>
    <path d="M 831.756424 190.798447 
L 834.679958 93.485186 
" clip-path="url(#p17eeaaa153)" style="fill: none; stroke-dasharray: 1,1.65; stroke-dashoffset: 0; stroke: #808080"/>
    <path d="M 854.998521 173.126903 
L 847.104979 76.966908 
" clip-path="url(#p17eeaaa153)" style="fill: none; stroke-dasharray: 1,1.65; stroke-dashoffset: 0; stroke: #808080"/>
    <path d="M 870.493253 190.798447 
L 870.493253 93.485186 
" clip-path="url(#p17eeaaa153)" style="fill: none; stroke-dasharray: 1,1.65; stroke-dashoffset: 0; stroke: #808080"/>
    <path d="M 894.17388 190.798447 
L 894.17388 93.485186 
" clip-path="url(#p17eeaaa153)" style="fill: none; stroke-dasharray: 1,1.65; stroke-dashoffset: 0; stroke: #808080"/>
    <path d="M 917.854508 190.798447 
L 917.854508 93.485186 
" clip-path="url(#p17eeaaa153)" style="fill: none; stroke-dasharray: 1,1.65; stroke-dashoffset: 0; stroke: #808080"/>
    <path d="M 941.535135 190.798447 
L 941.535135 93.485186 
" clip-path="url(#p17eeaaa153)" style="fill: none; stroke-dasharray: 1,1.65; stroke-dashoffset: 0; stroke: #808080"/>
    <path d="M 965.36194 190.798447 
L 965.36194 93.485186 
" clip-path="url(#p17eeaaa153)" style="fill: none; stroke-dasharray: 1,1.65; stroke-dashoffset: 0; stroke: #808080"/>
    <path d="M 989.042567 190.798447 
L 989.042567 93.485186 
" clip-path="url(#p17eeaaa153)" style="fill: none; stroke-dasharray: 1,1.65; stroke-dashoffset: 0; stroke: #808080"/>
    <path d="M 1012.723195 190.798447 
L 1012.723195 93.485186 
" clip-path="url(#p17eeaaa153)" style="fill: none; stroke-dasharray: 1,1.65; stroke-dashoffset: 0; stroke: #808080"/>
    <path d="M 1036.403822 190.798447 
L 1036.403822 93.485186 
" clip-path="url(#p17eeaaa153)" style="fill: none; stroke-dasharray: 1,1.65; stroke-dashoffset: 0; stroke: #808080"/>
    <path d="M 1060.08445 190.798447 
L 1060.08445 93.485186 
" clip-path="url(#p17eeaaa153)" style="fill: none; stroke-dasharray: 1,1.65; stroke-dashoffset: 0; stroke: #808080"/>
    <path d="M 1083.765077 190.798447 
L 1083.765077 93.485186 
" clip-path="url(#p17eeaaa153)" style="fill: none; stroke-dasharray: 1,1.65; stroke-dashoffset: 0; stroke: #808080"/>
    <path d="M 1107.445705 190.798447 
L 1107.445705 93.485186 
" clip-path="url(#p17eeaaa153)" style="fill: none; stroke-dasharray: 1,1.65; stroke-dashoffset: 0; stroke: #808080"/>
    <path d="M 1131.272509 190.798447 
L 1131.272509 93.485186 
" clip-path="url(#p17eeaaa153)" style="fill: none; stroke-dasharray: 1,1.65; stroke-dashoffset: 0; stroke: #808080"/>
   </g>
   <g id="patch_3">
    <path d="M 3.00024 198.907885 
L 3.00024 20.50024 
" style="fill: none; stroke: #000000; stroke-width: 2; stroke-linejoin: miter; stroke-linecap: square"/>
   </g>
   <g id="patch_4">
    <path d="M 1184.99976 198.907885 
L 1184.99976 20.50024 
" style="fill: none; stroke: #000000; stroke-width: 2; stroke-linejoin: miter; stroke-linecap: square"/>
   </g>
   <g id="patch_5">
    <path d="M 3.00024 198.907885 
L 1184.99976 198.907885 
" style="fill: none; stroke: #000000; stroke-width: 2; stroke-linejoin: miter; stroke-linecap: square"/>
   </g>
   <g id="patch_6">
    <path d="M 3.00024 20.50024 
L 1184.99976 20.50024 
" style="fill: none; stroke: #000000; stroke-width: 2; stroke-linejoin: miter; stroke-linecap: square"/>
   </g>
   <g id="text_14">
    <!-- Distance between spectra: 27.4 -->
    <g transform="translate(475.29125 14.50024) scale(0.16 -0.16)">
     <defs>
      <path id="Arial-BoldMT-44" d="M 463 4581 
L 2153 4581 
Q 2725 4581 3025 4494 
Q 3428 4375 3715 4072 
Q 4003 3769 4153 3330 
Q 4303 2891 4303 2247 
Q 4303 1681 4163 1272 
Q 3991 772 3672 463 
Q 3431 228 3022 97 
Q 2716 0 2203 0 
L 463 0 
L 463 4581 
z
M 1388 3806 
L 1388 772 
L 2078 772 
Q 2466 772 2638 816 
Q 2863 872 3011 1006 
Q 3159 1141 3253 1448 
Q 3347 1756 3347 2288 
Q 3347 2819 3253 3103 
Q 3159 3388 2990 3547 
Q 2822 3706 2563 3763 
Q 2369 3806 1803 3806 
L 1388 3806 
z
" transform="scale(0.015625)"/>
      <path id="Arial-BoldMT-6e" d="M 3478 0 
L 2600 0 
L 2600 1694 
Q 2600 2231 2544 2389 
Q 2488 2547 2361 2634 
Q 2234 2722 2056 2722 
Q 1828 2722 1647 2597 
Q 1466 2472 1398 2265 
Q 1331 2059 1331 1503 
L 1331 0 
L 453 0 
L 453 3319 
L 1269 3319 
L 1269 2831 
Q 1703 3394 2363 3394 
Q 2653 3394 2893 3289 
Q 3134 3184 3257 3021 
Q 3381 2859 3429 2653 
Q 3478 2447 3478 2063 
L 3478 0 
z
" transform="scale(0.015625)"/>
      <path id="Arial-BoldMT-62" d="M 422 0 
L 422 4581 
L 1300 4581 
L 1300 2931 
Q 1706 3394 2263 3394 
Q 2869 3394 3266 2955 
Q 3663 2516 3663 1694 
Q 3663 844 3258 384 
Q 2853 -75 2275 -75 
Q 1991 -75 1714 67 
Q 1438 209 1238 488 
L 1238 0 
L 422 0 
z
M 1294 1731 
Q 1294 1216 1456 969 
Q 1684 619 2063 619 
Q 2353 619 2558 867 
Q 2763 1116 2763 1650 
Q 2763 2219 2556 2470 
Q 2350 2722 2028 2722 
Q 1713 2722 1503 2476 
Q 1294 2231 1294 1731 
z
" transform="scale(0.015625)"/>
      <path id="Arial-BoldMT-77" d="M 1078 0 
L 28 3319 
L 881 3319 
L 1503 1144 
L 2075 3319 
L 2922 3319 
L 3475 1144 
L 4109 3319 
L 4975 3319 
L 3909 0 
L 3066 0 
L 2494 2134 
L 1931 0 
L 1078 0 
z
" transform="scale(0.015625)"/>
      <path id="Arial-BoldMT-72" d="M 1300 0 
L 422 0 
L 422 3319 
L 1238 3319 
L 1238 2847 
Q 1447 3181 1614 3287 
Q 1781 3394 1994 3394 
Q 2294 3394 2572 3228 
L 2300 2463 
Q 2078 2606 1888 2606 
Q 1703 2606 1575 2504 
Q 1447 2403 1373 2137 
Q 1300 1872 1300 1025 
L 1300 0 
z
" transform="scale(0.015625)"/>
      <path id="Arial-BoldMT-3a" d="M 628 2441 
L 628 3319 
L 1506 3319 
L 1506 2441 
L 628 2441 
z
M 628 0 
L 628 878 
L 1506 878 
L 1506 0 
L 628 0 
z
" transform="scale(0.015625)"/>
     </defs>
     <use xlink:href="#Arial-BoldMT-44"/>
     <use xlink:href="#Arial-BoldMT-69" x="72.216797"/>
     <use xlink:href="#Arial-BoldMT-73" x="100"/>
     <use xlink:href="#Arial-BoldMT-74" x="155.615234"/>
     <use xlink:href="#Arial-BoldMT-61" x="188.916016"/>
     <use xlink:href="#Arial-BoldMT-6e" x="244.53125"/>
     <use xlink:href="#Arial-BoldMT-63" x="305.615234"/>
     <use xlink:href="#Arial-BoldMT-65" x="361.230469"/>
     <use xlink:href="#Arial-BoldMT-20" x="416.845703"/>
     <use xlink:href="#Arial-BoldMT-62" x="444.628906"/>
     <use xlink:href="#Arial-BoldMT-65" x="505.712891"/>
     <use xlink:href="#Arial-BoldMT-74" x="561.328125"/>
     <use xlink:href="#Arial-BoldMT-77" x="594.628906"/>
     <use xlink:href="#Arial-BoldMT-65" x="672.412109"/>
     <use xlink:href="#Arial-BoldMT-65" x="728.027344"/>
     <use xlink:href="#Arial-BoldMT-6e" x="783.642578"/>
     <use xlink:href="#Arial-BoldMT-20" x="844.726562"/>
     <use xlink:href="#Arial-BoldMT-73" x="872.509766"/>
     <use xlink:href="#Arial-BoldMT-70" x="928.125"/>
     <use xlink:href="#Arial-BoldMT-65" x="989.208984"/>
     <use xlink:href="#Arial-BoldMT-63" x="1044.824219"/>
     <use xlink:href="#Arial-BoldMT-74" x="1100.439453"/>
     <use xlink:href="#Arial-BoldMT-72" x="1133.740234"/>
     <use xlink:href="#Arial-BoldMT-61" x="1172.65625"/>
     <use xlink:href="#Arial-BoldMT-3a" x="1228.271484"/>
     <use xlink:href="#Arial-BoldMT-20" x="1261.572266"/>
     <use xlink:href="#Arial-BoldMT-32" x="1289.355469"/>
     <use xlink:href="#Arial-BoldMT-37" x="1344.970703"/>
     <use xlink:href="#Arial-BoldMT-2e" x="1400.585938"/>
     <use xlink:href="#Arial-BoldMT-34" x="1428.369141"/>
    </g>
   </g>
  </g>
  <g id="axes_2">
   <g id="matplotlib.axis_3"/>
   <g id="patch_7">
    <path d="M 3.00024 198.907885 
L 3.00024 20.50024 
" style="fill: none; stroke: #000000; stroke-width: 2; stroke-linejoin: miter; stroke-linecap: square"/>
   </g>
   <g id="patch_8">
    <path d="M 1184.99976 198.907885 
L 1184.99976 20.50024 
" style="fill: none; stroke: #000000; stroke-width: 2; stroke-linejoin: miter; stroke-linecap: square"/>
   </g>
   <g id="patch_9">
    <path d="M 3.00024 198.907885 
L 1184.99976 198.907885 
" style="fill: none; stroke: #000000; stroke-width: 2; stroke-linejoin: miter; stroke-linecap: square"/>
   </g>
   <g id="patch_10">
    <path d="M 3.00024 20.50024 
L 1184.99976 20.50024 
" style="fill: none; stroke: #000000; stroke-width: 2; stroke-linejoin: miter; stroke-linecap: square"/>
   </g>
  </g>
 </g>
 <defs>
  <clipPath id="p17eeaaa153">
   <rect x="3.00024" y="20.50024" width="1181.99952" height="178.407645"/>
  </clipPath>
 </defs>
</svg>
