<?xml version="1.0" encoding="utf-8" standalone="no"?>
<!DOCTYPE svg PUBLIC "-//W3C//DTD SVG 1.1//EN"
  "http://www.w3.org/Graphics/SVG/1.1/DTD/svg11.dtd">
<svg xmlns:xlink="http://www.w3.org/1999/xlink" width="1188pt" height="252pt" viewBox="0 0 1188 252" xmlns="http://www.w3.org/2000/svg" version="1.1">
 <metadata>
  <rdf:RDF xmlns:dc="http://purl.org/dc/elements/1.1/" xmlns:cc="http://creativecommons.org/ns#" xmlns:rdf="http://www.w3.org/1999/02/22-rdf-syntax-ns#">
   <cc:Work>
    <dc:type rdf:resource="http://purl.org/dc/dcmitype/StillImage"/>
    <dc:date>2024-05-14T19:45:11.247437</dc:date>
    <dc:format>image/svg+xml</dc:format>
    <dc:creator>
     <cc:Agent>
      <dc:title>Matplotlib v3.8.0, https://matplotlib.org/</dc:title>
     </cc:Agent>
    </dc:creator>
   </cc:Work>
  </rdf:RDF>
 </metadata>
 <defs>
  <style type="text/css">*{stroke-linejoin: round; stroke-linecap: butt}</style>
 </defs>
 <g id="figure_1">
  <g id="patch_1">
   <path d="M 0 252 
L 1188 252 
L 1188 0 
L 0 0 
z
" style="fill: #ffffff"/>
  </g>
  <g id="axes_1">
   <g id="patch_2">
    <path d="M 3.00024 198.907885 
L 1184.99976 198.907885 
L 1184.99976 20.50024 
L 3.00024 20.50024 
z
" style="fill: #ffffff"/>
   </g>
   <g id="matplotlib.axis_1">
    <g id="xtick_1">
     <g id="line2d_1">
      <defs>
       <path id="m51dd7dec8c" d="M 0 0 
L 0 8 
" style="stroke: #000000; stroke-width: 2"/>
      </defs>
      <g>
       <use xlink:href="#m51dd7dec8c" x="56.727491" y="198.907885" style="stroke: #000000; stroke-width: 2"/>
      </g>
     </g>
     <g id="text_1">
      <!-- 12.0 -->
      <g transform="translate(39.212647 224.791947) scale(0.18 -0.18)">
       <defs>
        <path id="Arial-BoldMT-31" d="M 2519 0 
L 1641 0 
L 1641 3309 
Q 1159 2859 506 2644 
L 506 3441 
Q 850 3553 1253 3867 
Q 1656 4181 1806 4600 
L 2519 4600 
L 2519 0 
z
" transform="scale(0.015625)"/>
        <path id="Arial-BoldMT-32" d="M 3238 816 
L 3238 0 
L 159 0 
Q 209 463 459 877 
Q 709 1291 1447 1975 
Q 2041 2528 2175 2725 
Q 2356 2997 2356 3263 
Q 2356 3556 2198 3714 
Q 2041 3872 1763 3872 
Q 1488 3872 1325 3706 
Q 1163 3541 1138 3156 
L 263 3244 
Q 341 3969 753 4284 
Q 1166 4600 1784 4600 
Q 2463 4600 2850 4234 
Q 3238 3869 3238 3325 
Q 3238 3016 3127 2736 
Q 3016 2456 2775 2150 
Q 2616 1947 2200 1565 
Q 1784 1184 1673 1059 
Q 1563 934 1494 816 
L 3238 816 
z
" transform="scale(0.015625)"/>
        <path id="Arial-BoldMT-2e" d="M 459 0 
L 459 878 
L 1338 878 
L 1338 0 
L 459 0 
z
" transform="scale(0.015625)"/>
        <path id="Arial-BoldMT-30" d="M 1756 4600 
Q 2422 4600 2797 4125 
Q 3244 3563 3244 2259 
Q 3244 959 2794 391 
Q 2422 -78 1756 -78 
Q 1088 -78 678 436 
Q 269 950 269 2269 
Q 269 3563 719 4131 
Q 1091 4600 1756 4600 
z
M 1756 3872 
Q 1597 3872 1472 3770 
Q 1347 3669 1278 3406 
Q 1188 3066 1188 2259 
Q 1188 1453 1269 1151 
Q 1350 850 1473 750 
Q 1597 650 1756 650 
Q 1916 650 2041 751 
Q 2166 853 2234 1116 
Q 2325 1453 2325 2259 
Q 2325 3066 2244 3367 
Q 2163 3669 2039 3770 
Q 1916 3872 1756 3872 
z
" transform="scale(0.015625)"/>
       </defs>
       <use xlink:href="#Arial-BoldMT-31"/>
       <use xlink:href="#Arial-BoldMT-32" x="55.615234"/>
       <use xlink:href="#Arial-BoldMT-2e" x="111.230469"/>
       <use xlink:href="#Arial-BoldMT-30" x="139.013672"/>
      </g>
     </g>
    </g>
    <g id="xtick_2">
     <g id="line2d_2">
      <g>
       <use xlink:href="#m51dd7dec8c" x="154.386819" y="198.907885" style="stroke: #000000; stroke-width: 2"/>
      </g>
     </g>
     <g id="text_2">
      <!-- 10.7 -->
      <g transform="translate(136.871975 224.791947) scale(0.18 -0.18)">
       <defs>
        <path id="Arial-BoldMT-37" d="M 272 3703 
L 272 4519 
L 3275 4519 
L 3275 3881 
Q 2903 3516 2518 2831 
Q 2134 2147 1932 1376 
Q 1731 606 1734 0 
L 888 0 
Q 909 950 1279 1937 
Q 1650 2925 2269 3703 
L 272 3703 
z
" transform="scale(0.015625)"/>
       </defs>
       <use xlink:href="#Arial-BoldMT-31"/>
       <use xlink:href="#Arial-BoldMT-30" x="55.615234"/>
       <use xlink:href="#Arial-BoldMT-2e" x="111.230469"/>
       <use xlink:href="#Arial-BoldMT-37" x="139.013672"/>
      </g>
     </g>
    </g>
    <g id="xtick_3">
     <g id="line2d_3">
      <g>
       <use xlink:href="#m51dd7dec8c" x="252.046146" y="198.907885" style="stroke: #000000; stroke-width: 2"/>
      </g>
     </g>
     <g id="text_3">
      <!-- 9.5 -->
      <g transform="translate(239.536146 224.791947) scale(0.18 -0.18)">
       <defs>
        <path id="Arial-BoldMT-39" d="M 291 1059 
L 1141 1153 
Q 1172 894 1303 769 
Q 1434 644 1650 644 
Q 1922 644 2112 894 
Q 2303 1144 2356 1931 
Q 2025 1547 1528 1547 
Q 988 1547 595 1964 
Q 203 2381 203 3050 
Q 203 3747 617 4173 
Q 1031 4600 1672 4600 
Q 2369 4600 2816 4061 
Q 3263 3522 3263 2288 
Q 3263 1031 2797 475 
Q 2331 -81 1584 -81 
Q 1047 -81 715 205 
Q 384 491 291 1059 
z
M 2278 2978 
Q 2278 3403 2083 3637 
Q 1888 3872 1631 3872 
Q 1388 3872 1227 3680 
Q 1066 3488 1066 3050 
Q 1066 2606 1241 2398 
Q 1416 2191 1678 2191 
Q 1931 2191 2104 2391 
Q 2278 2591 2278 2978 
z
" transform="scale(0.015625)"/>
        <path id="Arial-BoldMT-35" d="M 284 1178 
L 1159 1269 
Q 1197 972 1381 798 
Q 1566 625 1806 625 
Q 2081 625 2272 848 
Q 2463 1072 2463 1522 
Q 2463 1944 2273 2155 
Q 2084 2366 1781 2366 
Q 1403 2366 1103 2031 
L 391 2134 
L 841 4519 
L 3163 4519 
L 3163 3697 
L 1506 3697 
L 1369 2919 
Q 1663 3066 1969 3066 
Q 2553 3066 2959 2641 
Q 3366 2216 3366 1538 
Q 3366 972 3038 528 
Q 2591 -78 1797 -78 
Q 1163 -78 763 262 
Q 363 603 284 1178 
z
" transform="scale(0.015625)"/>
       </defs>
       <use xlink:href="#Arial-BoldMT-39"/>
       <use xlink:href="#Arial-BoldMT-2e" x="55.615234"/>
       <use xlink:href="#Arial-BoldMT-35" x="83.398438"/>
      </g>
     </g>
    </g>
    <g id="xtick_4">
     <g id="line2d_4">
      <g>
       <use xlink:href="#m51dd7dec8c" x="349.705474" y="198.907885" style="stroke: #000000; stroke-width: 2"/>
      </g>
     </g>
     <g id="text_4">
      <!-- 8.2 -->
      <g transform="translate(337.195474 224.791947) scale(0.18 -0.18)">
       <defs>
        <path id="Arial-BoldMT-38" d="M 1025 2472 
Q 684 2616 529 2867 
Q 375 3119 375 3419 
Q 375 3931 733 4265 
Q 1091 4600 1750 4600 
Q 2403 4600 2764 4265 
Q 3125 3931 3125 3419 
Q 3125 3100 2959 2851 
Q 2794 2603 2494 2472 
Q 2875 2319 3073 2025 
Q 3272 1731 3272 1347 
Q 3272 713 2867 316 
Q 2463 -81 1791 -81 
Q 1166 -81 750 247 
Q 259 634 259 1309 
Q 259 1681 443 1992 
Q 628 2303 1025 2472 
z
M 1206 3356 
Q 1206 3094 1354 2947 
Q 1503 2800 1750 2800 
Q 2000 2800 2150 2948 
Q 2300 3097 2300 3359 
Q 2300 3606 2151 3754 
Q 2003 3903 1759 3903 
Q 1506 3903 1356 3753 
Q 1206 3603 1206 3356 
z
M 1125 1394 
Q 1125 1031 1311 828 
Q 1497 625 1775 625 
Q 2047 625 2225 820 
Q 2403 1016 2403 1384 
Q 2403 1706 2222 1901 
Q 2041 2097 1763 2097 
Q 1441 2097 1283 1875 
Q 1125 1653 1125 1394 
z
" transform="scale(0.015625)"/>
       </defs>
       <use xlink:href="#Arial-BoldMT-38"/>
       <use xlink:href="#Arial-BoldMT-2e" x="55.615234"/>
       <use xlink:href="#Arial-BoldMT-32" x="83.398438"/>
      </g>
     </g>
    </g>
    <g id="xtick_5">
     <g id="line2d_5">
      <g>
       <use xlink:href="#m51dd7dec8c" x="447.364802" y="198.907885" style="stroke: #000000; stroke-width: 2"/>
      </g>
     </g>
     <g id="text_5">
      <!-- 6.9 -->
      <g transform="translate(434.854802 224.791947) scale(0.18 -0.18)">
       <defs>
        <path id="Arial-BoldMT-36" d="M 3247 3459 
L 2397 3366 
Q 2366 3628 2234 3753 
Q 2103 3878 1894 3878 
Q 1616 3878 1423 3628 
Q 1231 3378 1181 2588 
Q 1509 2975 1997 2975 
Q 2547 2975 2939 2556 
Q 3331 2138 3331 1475 
Q 3331 772 2918 347 
Q 2506 -78 1859 -78 
Q 1166 -78 719 461 
Q 272 1000 272 2228 
Q 272 3488 737 4044 
Q 1203 4600 1947 4600 
Q 2469 4600 2811 4308 
Q 3153 4016 3247 3459 
z
M 1256 1544 
Q 1256 1116 1453 883 
Q 1650 650 1903 650 
Q 2147 650 2309 840 
Q 2472 1031 2472 1466 
Q 2472 1913 2297 2120 
Q 2122 2328 1859 2328 
Q 1606 2328 1431 2129 
Q 1256 1931 1256 1544 
z
" transform="scale(0.015625)"/>
       </defs>
       <use xlink:href="#Arial-BoldMT-36"/>
       <use xlink:href="#Arial-BoldMT-2e" x="55.615234"/>
       <use xlink:href="#Arial-BoldMT-39" x="83.398438"/>
      </g>
     </g>
    </g>
    <g id="xtick_6">
     <g id="line2d_6">
      <g>
       <use xlink:href="#m51dd7dec8c" x="545.02413" y="198.907885" style="stroke: #000000; stroke-width: 2"/>
      </g>
     </g>
     <g id="text_6">
      <!-- 5.6 -->
      <g transform="translate(532.51413 224.791947) scale(0.18 -0.18)">
       <use xlink:href="#Arial-BoldMT-35"/>
       <use xlink:href="#Arial-BoldMT-2e" x="55.615234"/>
       <use xlink:href="#Arial-BoldMT-36" x="83.398438"/>
      </g>
     </g>
    </g>
    <g id="xtick_7">
     <g id="line2d_7">
      <g>
       <use xlink:href="#m51dd7dec8c" x="642.683457" y="198.907885" style="stroke: #000000; stroke-width: 2"/>
      </g>
     </g>
     <g id="text_7">
      <!-- 4.4 -->
      <g transform="translate(630.173457 224.791947) scale(0.18 -0.18)">
       <defs>
        <path id="Arial-BoldMT-34" d="M 1994 0 
L 1994 922 
L 119 922 
L 119 1691 
L 2106 4600 
L 2844 4600 
L 2844 1694 
L 3413 1694 
L 3413 922 
L 2844 922 
L 2844 0 
L 1994 0 
z
M 1994 1694 
L 1994 3259 
L 941 1694 
L 1994 1694 
z
" transform="scale(0.015625)"/>
       </defs>
       <use xlink:href="#Arial-BoldMT-34"/>
       <use xlink:href="#Arial-BoldMT-2e" x="55.615234"/>
       <use xlink:href="#Arial-BoldMT-34" x="83.398438"/>
      </g>
     </g>
    </g>
    <g id="xtick_8">
     <g id="line2d_8">
      <g>
       <use xlink:href="#m51dd7dec8c" x="740.342785" y="198.907885" style="stroke: #000000; stroke-width: 2"/>
      </g>
     </g>
     <g id="text_8">
      <!-- 3.1 -->
      <g transform="translate(727.832785 224.791947) scale(0.18 -0.18)">
       <defs>
        <path id="Arial-BoldMT-33" d="M 241 1216 
L 1091 1319 
Q 1131 994 1309 822 
Q 1488 650 1741 650 
Q 2013 650 2198 856 
Q 2384 1063 2384 1413 
Q 2384 1744 2206 1937 
Q 2028 2131 1772 2131 
Q 1603 2131 1369 2066 
L 1466 2781 
Q 1822 2772 2009 2936 
Q 2197 3100 2197 3372 
Q 2197 3603 2059 3740 
Q 1922 3878 1694 3878 
Q 1469 3878 1309 3722 
Q 1150 3566 1116 3266 
L 306 3403 
Q 391 3819 561 4067 
Q 731 4316 1036 4458 
Q 1341 4600 1719 4600 
Q 2366 4600 2756 4188 
Q 3078 3850 3078 3425 
Q 3078 2822 2419 2463 
Q 2813 2378 3048 2084 
Q 3284 1791 3284 1375 
Q 3284 772 2843 347 
Q 2403 -78 1747 -78 
Q 1125 -78 715 280 
Q 306 638 241 1216 
z
" transform="scale(0.015625)"/>
       </defs>
       <use xlink:href="#Arial-BoldMT-33"/>
       <use xlink:href="#Arial-BoldMT-2e" x="55.615234"/>
       <use xlink:href="#Arial-BoldMT-31" x="83.398438"/>
      </g>
     </g>
    </g>
    <g id="xtick_9">
     <g id="line2d_9">
      <g>
       <use xlink:href="#m51dd7dec8c" x="838.002113" y="198.907885" style="stroke: #000000; stroke-width: 2"/>
      </g>
     </g>
     <g id="text_9">
      <!-- 1.8 -->
      <g transform="translate(825.492113 224.791947) scale(0.18 -0.18)">
       <use xlink:href="#Arial-BoldMT-31"/>
       <use xlink:href="#Arial-BoldMT-2e" x="55.615234"/>
       <use xlink:href="#Arial-BoldMT-38" x="83.398438"/>
      </g>
     </g>
    </g>
    <g id="xtick_10">
     <g id="line2d_10">
      <g>
       <use xlink:href="#m51dd7dec8c" x="935.661441" y="198.907885" style="stroke: #000000; stroke-width: 2"/>
      </g>
     </g>
     <g id="text_10">
      <!-- 0.6 -->
      <g transform="translate(923.151441 224.791947) scale(0.18 -0.18)">
       <use xlink:href="#Arial-BoldMT-30"/>
       <use xlink:href="#Arial-BoldMT-2e" x="55.615234"/>
       <use xlink:href="#Arial-BoldMT-36" x="83.398438"/>
      </g>
     </g>
    </g>
    <g id="xtick_11">
     <g id="line2d_11">
      <g>
       <use xlink:href="#m51dd7dec8c" x="1033.320768" y="198.907885" style="stroke: #000000; stroke-width: 2"/>
      </g>
     </g>
     <g id="text_11">
      <!-- -0.7 -->
      <g transform="translate(1017.81405 224.791947) scale(0.18 -0.18)">
       <defs>
        <path id="Arial-BoldMT-2d" d="M 359 1222 
L 359 2100 
L 2084 2100 
L 2084 1222 
L 359 1222 
z
" transform="scale(0.015625)"/>
       </defs>
       <use xlink:href="#Arial-BoldMT-2d"/>
       <use xlink:href="#Arial-BoldMT-30" x="33.300781"/>
       <use xlink:href="#Arial-BoldMT-2e" x="88.916016"/>
       <use xlink:href="#Arial-BoldMT-37" x="116.699219"/>
      </g>
     </g>
    </g>
    <g id="xtick_12">
     <g id="line2d_12">
      <g>
       <use xlink:href="#m51dd7dec8c" x="1130.980096" y="198.907885" style="stroke: #000000; stroke-width: 2"/>
      </g>
     </g>
     <g id="text_12">
      <!-- -2.0 -->
      <g transform="translate(1115.473377 224.791947) scale(0.18 -0.18)">
       <use xlink:href="#Arial-BoldMT-2d"/>
       <use xlink:href="#Arial-BoldMT-32" x="33.300781"/>
       <use xlink:href="#Arial-BoldMT-2e" x="88.916016"/>
       <use xlink:href="#Arial-BoldMT-30" x="116.699219"/>
      </g>
     </g>
    </g>
    <g id="text_13">
     <!-- Chemical shift / ppm -->
     <g transform="translate(505.99125 245.447573) scale(0.18 -0.18)">
      <defs>
       <path id="Arial-BoldMT-43" d="M 3397 1684 
L 4294 1400 
Q 4088 650 3608 286 
Q 3128 -78 2391 -78 
Q 1478 -78 890 545 
Q 303 1169 303 2250 
Q 303 3394 893 4026 
Q 1484 4659 2447 4659 
Q 3288 4659 3813 4163 
Q 4125 3869 4281 3319 
L 3366 3100 
Q 3284 3456 3026 3662 
Q 2769 3869 2400 3869 
Q 1891 3869 1573 3503 
Q 1256 3138 1256 2319 
Q 1256 1450 1568 1081 
Q 1881 713 2381 713 
Q 2750 713 3015 947 
Q 3281 1181 3397 1684 
z
" transform="scale(0.015625)"/>
       <path id="Arial-BoldMT-68" d="M 1334 4581 
L 1334 2897 
Q 1759 3394 2350 3394 
Q 2653 3394 2897 3281 
Q 3141 3169 3264 2994 
Q 3388 2819 3433 2606 
Q 3478 2394 3478 1947 
L 3478 0 
L 2600 0 
L 2600 1753 
Q 2600 2275 2550 2415 
Q 2500 2556 2373 2639 
Q 2247 2722 2056 2722 
Q 1838 2722 1666 2615 
Q 1494 2509 1414 2295 
Q 1334 2081 1334 1663 
L 1334 0 
L 456 0 
L 456 4581 
L 1334 4581 
z
" transform="scale(0.015625)"/>
       <path id="Arial-BoldMT-65" d="M 2381 1056 
L 3256 909 
Q 3088 428 2723 176 
Q 2359 -75 1813 -75 
Q 947 -75 531 491 
Q 203 944 203 1634 
Q 203 2459 634 2926 
Q 1066 3394 1725 3394 
Q 2466 3394 2894 2905 
Q 3322 2416 3303 1406 
L 1103 1406 
Q 1113 1016 1316 798 
Q 1519 581 1822 581 
Q 2028 581 2168 693 
Q 2309 806 2381 1056 
z
M 2431 1944 
Q 2422 2325 2234 2523 
Q 2047 2722 1778 2722 
Q 1491 2722 1303 2513 
Q 1116 2303 1119 1944 
L 2431 1944 
z
" transform="scale(0.015625)"/>
       <path id="Arial-BoldMT-6d" d="M 394 3319 
L 1203 3319 
L 1203 2866 
Q 1638 3394 2238 3394 
Q 2556 3394 2790 3262 
Q 3025 3131 3175 2866 
Q 3394 3131 3647 3262 
Q 3900 3394 4188 3394 
Q 4553 3394 4806 3245 
Q 5059 3097 5184 2809 
Q 5275 2597 5275 2122 
L 5275 0 
L 4397 0 
L 4397 1897 
Q 4397 2391 4306 2534 
Q 4184 2722 3931 2722 
Q 3747 2722 3584 2609 
Q 3422 2497 3350 2280 
Q 3278 2063 3278 1594 
L 3278 0 
L 2400 0 
L 2400 1819 
Q 2400 2303 2353 2443 
Q 2306 2584 2207 2653 
Q 2109 2722 1941 2722 
Q 1738 2722 1575 2612 
Q 1413 2503 1342 2297 
Q 1272 2091 1272 1613 
L 1272 0 
L 394 0 
L 394 3319 
z
" transform="scale(0.015625)"/>
       <path id="Arial-BoldMT-69" d="M 459 3769 
L 459 4581 
L 1338 4581 
L 1338 3769 
L 459 3769 
z
M 459 0 
L 459 3319 
L 1338 3319 
L 1338 0 
L 459 0 
z
" transform="scale(0.015625)"/>
       <path id="Arial-BoldMT-63" d="M 3353 2338 
L 2488 2181 
Q 2444 2441 2289 2572 
Q 2134 2703 1888 2703 
Q 1559 2703 1364 2476 
Q 1169 2250 1169 1719 
Q 1169 1128 1367 884 
Q 1566 641 1900 641 
Q 2150 641 2309 783 
Q 2469 925 2534 1272 
L 3397 1125 
Q 3263 531 2881 228 
Q 2500 -75 1859 -75 
Q 1131 -75 698 384 
Q 266 844 266 1656 
Q 266 2478 700 2936 
Q 1134 3394 1875 3394 
Q 2481 3394 2839 3133 
Q 3197 2872 3353 2338 
z
" transform="scale(0.015625)"/>
       <path id="Arial-BoldMT-61" d="M 1116 2306 
L 319 2450 
Q 453 2931 781 3162 
Q 1109 3394 1756 3394 
Q 2344 3394 2631 3255 
Q 2919 3116 3036 2902 
Q 3153 2688 3153 2116 
L 3144 1091 
Q 3144 653 3186 445 
Q 3228 238 3344 0 
L 2475 0 
Q 2441 88 2391 259 
Q 2369 338 2359 363 
Q 2134 144 1878 34 
Q 1622 -75 1331 -75 
Q 819 -75 523 203 
Q 228 481 228 906 
Q 228 1188 362 1408 
Q 497 1628 739 1745 
Q 981 1863 1438 1950 
Q 2053 2066 2291 2166 
L 2291 2253 
Q 2291 2506 2166 2614 
Q 2041 2722 1694 2722 
Q 1459 2722 1328 2630 
Q 1197 2538 1116 2306 
z
M 2291 1594 
Q 2122 1538 1756 1459 
Q 1391 1381 1278 1306 
Q 1106 1184 1106 997 
Q 1106 813 1243 678 
Q 1381 544 1594 544 
Q 1831 544 2047 700 
Q 2206 819 2256 991 
Q 2291 1103 2291 1419 
L 2291 1594 
z
" transform="scale(0.015625)"/>
       <path id="Arial-BoldMT-6c" d="M 459 0 
L 459 4581 
L 1338 4581 
L 1338 0 
L 459 0 
z
" transform="scale(0.015625)"/>
       <path id="Arial-BoldMT-20" transform="scale(0.015625)"/>
       <path id="Arial-BoldMT-73" d="M 150 947 
L 1031 1081 
Q 1088 825 1259 692 
Q 1431 559 1741 559 
Q 2081 559 2253 684 
Q 2369 772 2369 919 
Q 2369 1019 2306 1084 
Q 2241 1147 2013 1200 
Q 950 1434 666 1628 
Q 272 1897 272 2375 
Q 272 2806 612 3100 
Q 953 3394 1669 3394 
Q 2350 3394 2681 3172 
Q 3013 2950 3138 2516 
L 2309 2363 
Q 2256 2556 2107 2659 
Q 1959 2763 1684 2763 
Q 1338 2763 1188 2666 
Q 1088 2597 1088 2488 
Q 1088 2394 1175 2328 
Q 1294 2241 1995 2081 
Q 2697 1922 2975 1691 
Q 3250 1456 3250 1038 
Q 3250 581 2869 253 
Q 2488 -75 1741 -75 
Q 1063 -75 667 200 
Q 272 475 150 947 
z
" transform="scale(0.015625)"/>
       <path id="Arial-BoldMT-66" d="M 75 3319 
L 563 3319 
L 563 3569 
Q 563 3988 652 4194 
Q 741 4400 980 4529 
Q 1219 4659 1584 4659 
Q 1959 4659 2319 4547 
L 2200 3934 
Q 1991 3984 1797 3984 
Q 1606 3984 1523 3895 
Q 1441 3806 1441 3553 
L 1441 3319 
L 2097 3319 
L 2097 2628 
L 1441 2628 
L 1441 0 
L 563 0 
L 563 2628 
L 75 2628 
L 75 3319 
z
" transform="scale(0.015625)"/>
       <path id="Arial-BoldMT-74" d="M 1981 3319 
L 1981 2619 
L 1381 2619 
L 1381 1281 
Q 1381 875 1398 808 
Q 1416 741 1477 697 
Q 1538 653 1625 653 
Q 1747 653 1978 738 
L 2053 56 
Q 1747 -75 1359 -75 
Q 1122 -75 931 4 
Q 741 84 652 211 
Q 563 338 528 553 
Q 500 706 500 1172 
L 500 2619 
L 97 2619 
L 97 3319 
L 500 3319 
L 500 3978 
L 1381 4491 
L 1381 3319 
L 1981 3319 
z
" transform="scale(0.015625)"/>
       <path id="Arial-BoldMT-2f" d="M -9 -78 
L 1125 4659 
L 1784 4659 
L 638 -78 
L -9 -78 
z
" transform="scale(0.015625)"/>
       <path id="Arial-BoldMT-70" d="M 434 3319 
L 1253 3319 
L 1253 2831 
Q 1413 3081 1684 3237 
Q 1956 3394 2288 3394 
Q 2866 3394 3269 2941 
Q 3672 2488 3672 1678 
Q 3672 847 3265 386 
Q 2859 -75 2281 -75 
Q 2006 -75 1782 34 
Q 1559 144 1313 409 
L 1313 -1263 
L 434 -1263 
L 434 3319 
z
M 1303 1716 
Q 1303 1156 1525 889 
Q 1747 622 2066 622 
Q 2372 622 2575 867 
Q 2778 1113 2778 1672 
Q 2778 2194 2568 2447 
Q 2359 2700 2050 2700 
Q 1728 2700 1515 2451 
Q 1303 2203 1303 1716 
z
" transform="scale(0.015625)"/>
      </defs>
      <use xlink:href="#Arial-BoldMT-43"/>
      <use xlink:href="#Arial-BoldMT-68" x="72.216797"/>
      <use xlink:href="#Arial-BoldMT-65" x="133.300781"/>
      <use xlink:href="#Arial-BoldMT-6d" x="188.916016"/>
      <use xlink:href="#Arial-BoldMT-69" x="277.832031"/>
      <use xlink:href="#Arial-BoldMT-63" x="305.615234"/>
      <use xlink:href="#Arial-BoldMT-61" x="361.230469"/>
      <use xlink:href="#Arial-BoldMT-6c" x="416.845703"/>
      <use xlink:href="#Arial-BoldMT-20" x="444.628906"/>
      <use xlink:href="#Arial-BoldMT-73" x="472.412109"/>
      <use xlink:href="#Arial-BoldMT-68" x="528.027344"/>
      <use xlink:href="#Arial-BoldMT-69" x="589.111328"/>
      <use xlink:href="#Arial-BoldMT-66" x="616.894531"/>
      <use xlink:href="#Arial-BoldMT-74" x="650.195312"/>
      <use xlink:href="#Arial-BoldMT-20" x="683.496094"/>
      <use xlink:href="#Arial-BoldMT-2f" x="711.279297"/>
      <use xlink:href="#Arial-BoldMT-20" x="739.0625"/>
      <use xlink:href="#Arial-BoldMT-70" x="766.845703"/>
      <use xlink:href="#Arial-BoldMT-70" x="827.929688"/>
      <use xlink:href="#Arial-BoldMT-6d" x="889.013672"/>
     </g>
    </g>
   </g>
   <g id="matplotlib.axis_2"/>
   <g id="line2d_13">
    <path d="M 56.727491 190.798447 
L 371.153601 190.798447 
L 371.299778 187.50432 
L 372.761545 186.686793 
L 374.661842 185.763784 
L 375.685079 185.528901 
L 376.269786 185.53151 
L 377.293023 185.817347 
L 380.801264 187.521473 
L 380.947441 190.798447 
L 410.32896 190.798447 
L 410.475137 187.548848 
L 411.059844 186.351093 
L 411.790727 184.769845 
L 412.083081 184.502083 
L 412.375434 184.50442 
L 412.667787 184.742496 
L 413.252494 185.401849 
L 413.544848 185.412909 
L 413.837201 185.15959 
L 414.275731 184.488313 
L 415.006615 183.249856 
L 415.737498 182.565355 
L 416.029852 181.653921 
L 416.468382 179.362973 
L 417.053089 176.208187 
L 417.491619 174.852533 
L 417.783972 174.49045 
L 418.076326 174.580117 
L 418.368679 174.577038 
L 418.514856 174.332494 
L 418.807209 173.181691 
L 419.099563 171.083649 
L 419.538093 165.865656 
L 419.976623 157.590425 
L 420.853683 136.871559 
L 420.99986 135.815178 
L 421.146037 135.886151 
L 421.43839 138.209361 
L 421.730744 140.664647 
L 421.87692 141.190272 
L 422.023097 141.198335 
L 422.31545 140.104268 
L 422.607804 137.496651 
L 423.484864 125.922939 
L 423.631041 127.322931 
L 423.923394 134.198933 
L 424.508101 148.731994 
L 424.800455 150.946088 
L 424.946631 150.708866 
L 425.238985 148.067208 
L 425.823692 140.920826 
L 425.969868 140.602114 
L 426.116045 141.264536 
L 426.408398 145.126293 
L 427.139282 158.030629 
L 427.431635 160.381079 
L 427.723989 161.113844 
L 428.162519 161.552536 
L 429.185756 163.521403 
L 429.331933 163.669473 
L 429.478109 163.637519 
L 429.624286 163.327801 
L 429.91664 161.516864 
L 430.208993 157.683602 
L 430.939877 145.379795 
L 431.086053 145.168064 
L 431.23223 146.324099 
L 431.524583 151.876037 
L 432.10929 164.391364 
L 432.54782 169.785448 
L 432.98635 172.702417 
L 433.424881 174.167943 
L 433.863411 175.488407 
L 434.740471 179.415367 
L 435.032824 179.954244 
L 435.325178 180.074534 
L 435.617531 179.780323 
L 436.056061 179.158073 
L 436.348415 179.137658 
L 436.933122 179.764447 
L 437.225475 180.195788 
L 437.664005 181.392113 
L 438.102535 182.460587 
L 438.394889 182.649763 
L 438.687242 182.366711 
L 439.125772 181.265945 
L 439.564303 180.310635 
L 439.856656 180.215423 
L 440.002833 180.379567 
L 440.295186 181.210841 
L 441.172246 184.569841 
L 441.610777 185.25673 
L 442.487837 186.360678 
L 443.072544 187.096173 
L 443.364897 187.231021 
L 443.803427 187.130953 
L 444.534311 186.821959 
L 444.826664 186.947454 
L 445.265194 187.463629 
L 445.411371 190.798447 
L 551.243311 190.798447 
L 551.389488 187.522528 
L 552.412725 186.659288 
L 553.435962 185.770721 
L 554.897729 184.410027 
L 555.628613 183.520793 
L 557.09038 180.873492 
L 557.96744 179.104987 
L 558.8445 176.786337 
L 560.890974 170.583369 
L 563.229802 162.057042 
L 564.983922 156.021342 
L 565.276276 155.526145 
L 565.568629 155.471896 
L 565.860983 155.882958 
L 566.299513 157.303356 
L 567.030396 160.849897 
L 568.053633 167.029732 
L 568.345987 171.283308 
L 568.784517 179.471153 
L 568.930694 180.199306 
L 569.07687 179.910667 
L 569.807754 176.715408 
L 571.269521 172.109073 
L 571.708051 171.378953 
L 572.000405 171.257491 
L 572.292758 171.39997 
L 572.877465 172.012607 
L 573.462172 173.063848 
L 575.508646 177.396223 
L 576.385706 179.176521 
L 578.724533 182.864574 
L 580.624831 185.024375 
L 582.232775 186.09367 
L 582.963658 186.358284 
L 583.840718 186.633602 
L 585.448662 187.474749 
L 585.594839 190.798447 
L 631.055797 190.798447 
L 631.201973 187.526752 
L 631.78668 186.515527 
L 632.371387 184.905526 
L 632.809917 182.996843 
L 633.248447 180.015588 
L 633.686978 175.254155 
L 634.125508 167.343899 
L 634.856391 151.704822 
L 635.002568 151.76283 
L 635.294921 155.736581 
L 635.733452 162.293591 
L 636.025805 163.75417 
L 636.171982 163.48941 
L 636.464335 160.978264 
L 636.902865 152.838057 
L 637.195219 147.79786 
L 637.341395 147.228528 
L 637.487572 148.409259 
L 638.510809 164.329585 
L 638.656986 164.535027 
L 638.803163 164.146 
L 639.095516 161.569251 
L 639.972576 149.726221 
L 640.26493 153.73415 
L 640.849637 163.472876 
L 641.14199 164.915008 
L 641.288167 164.681868 
L 641.58052 162.366305 
L 642.311404 152.946821 
L 642.45758 153.856676 
L 642.749934 159.759685 
L 643.334641 173.148338 
L 643.773171 179.027851 
L 644.211701 182.434719 
L 644.796408 185.007868 
L 645.381115 186.532796 
L 645.965822 187.523995 
L 646.111998 190.798447 
L 796.235483 190.798447 
L 796.381659 187.226603 
L 796.820189 185.815954 
L 797.25872 183.534296 
L 798.13578 177.875729 
L 798.281957 178.149178 
L 798.866663 180.27412 
L 799.01284 180.363153 
L 799.159017 180.180816 
L 799.45137 178.937317 
L 799.743724 176.401966 
L 800.474607 168.591491 
L 800.620784 169.170848 
L 801.059314 174.804771 
L 801.497844 179.280925 
L 801.790198 180.63612 
L 801.936374 180.877002 
L 802.082551 180.849514 
L 802.374905 180.107907 
L 802.813435 178.728991 
L 802.959611 178.927097 
L 803.251965 180.717747 
L 803.836672 185.091177 
L 804.275202 186.966466 
L 804.421379 187.422792 
L 804.567555 190.798447 
L 849.151453 190.798447 
L 849.297629 187.469783 
L 850.028513 186.42704 
L 850.61322 185.191153 
L 851.344103 183.102399 
L 852.659694 179.03237 
L 852.952047 178.946099 
L 853.244401 179.361851 
L 853.682931 180.608797 
L 854.852345 184.198913 
L 855.437051 185.329231 
L 856.021758 186.018381 
L 856.752642 186.847133 
L 857.191172 187.518756 
L 857.337349 190.798447 
L 1131.272509 190.798447 
L 1131.272509 190.798447 
" clip-path="url(#p4e8b738ef1)" style="fill: none; stroke: #000000; stroke-width: 2; stroke-linecap: square"/>
   </g>
   <g id="line2d_14">
    <path d="M 56.727491 93.485186 
L 370.422717 93.485186 
L 370.568894 90.168578 
L 373.784782 88.148712 
L 375.685079 86.563417 
L 377.293023 86.04503 
L 378.75479 86.577325 
L 379.485673 87.004207 
L 383.578621 89.886117 
L 384.455682 90.235953 
L 384.601858 93.485186 
L 410.76749 93.485186 
L 410.913667 89.870471 
L 411.936904 87.10419 
L 412.229257 87.111952 
L 412.521611 87.505346 
L 413.252494 88.825203 
L 413.544848 88.940031 
L 413.837201 88.713909 
L 414.714261 87.61628 
L 415.445145 87.553019 
L 415.737498 86.995964 
L 416.029852 85.8712 
L 417.053089 80.833414 
L 417.345442 80.321406 
L 417.637796 80.112313 
L 417.930149 80.175244 
L 418.368679 80.403864 
L 418.514856 80.273455 
L 418.807209 79.424151 
L 419.245739 76.74556 
L 419.68427 72.081787 
L 420.268976 61.744236 
L 420.707507 55.867645 
L 420.853683 55.57378 
L 420.99986 56.223379 
L 421.292213 59.553606 
L 421.87692 66.72817 
L 422.169274 67.790971 
L 422.31545 67.605869 
L 422.607804 66.274899 
L 423.046334 63.935085 
L 423.338687 63.333345 
L 423.631041 63.152756 
L 423.777218 62.718836 
L 424.069571 60.16544 
L 424.361924 54.565901 
L 425.385161 28.609678 
L 425.531338 29.3271 
L 425.823692 34.999453 
L 426.846929 62.583734 
L 427.285459 67.629117 
L 427.577812 68.798548 
L 428.016342 69.707398 
L 428.308696 71.304547 
L 429.331933 78.452013 
L 429.624286 79.176406 
L 429.770463 79.217559 
L 429.91664 79.047303 
L 430.208993 78.203247 
L 430.7937 76.451594 
L 431.086053 75.574307 
L 431.524583 73.313821 
L 431.816937 70.666974 
L 432.255467 63.675249 
L 432.693997 55.952455 
L 432.840174 54.75759 
L 432.98635 54.692134 
L 433.132527 55.720399 
L 433.571057 62.38338 
L 434.155764 70.187823 
L 434.740471 74.994835 
L 435.179001 76.74446 
L 435.617531 77.972236 
L 436.494592 81.898586 
L 437.225475 84.632275 
L 437.664005 85.521896 
L 437.956359 85.750251 
L 438.248712 85.724467 
L 438.541066 85.417636 
L 439.125772 84.672949 
L 439.418126 84.890319 
L 440.002833 85.593135 
L 440.149009 85.58276 
L 440.441363 85.185473 
L 440.879893 83.682163 
L 441.4646 81.701252 
L 441.610777 81.54647 
L 441.756953 81.623101 
L 442.049307 82.584866 
L 442.926367 86.970053 
L 443.364897 88.075381 
L 443.803427 88.513475 
L 445.557548 89.483325 
L 446.288431 90.071169 
L 446.580785 90.227744 
L 446.726962 93.485186 
L 499.058225 93.485186 
L 499.204402 90.240829 
L 504.759117 90.058149 
L 505.197647 90.225831 
L 505.343823 93.485186 
L 550.220074 93.485186 
L 550.366251 90.234662 
L 551.535665 89.461919 
L 552.558902 88.409812 
L 553.582139 87.202867 
L 554.166846 86.43111 
L 556.505673 82.55452 
L 557.236557 80.768365 
L 558.40597 77.319303 
L 559.575384 73.104036 
L 560.890974 67.82748 
L 562.060388 62.330115 
L 563.814509 53.03526 
L 564.983922 46.613242 
L 565.276276 45.825932 
L 565.568629 45.612383 
L 565.860983 45.883547 
L 566.153336 46.618227 
L 566.44569 47.917886 
L 566.88422 51.011118 
L 568.053633 61.737738 
L 568.345987 67.086146 
L 568.784517 76.832059 
L 568.930694 77.904337 
L 569.07687 77.909501 
L 569.661577 75.60225 
L 570.392461 72.324341 
L 570.977168 69.960121 
L 571.269521 69.32057 
L 571.561875 69.053094 
L 571.854228 69.009279 
L 572.146581 69.138213 
L 572.438935 69.504957 
L 573.023642 70.83963 
L 575.362469 77.044611 
L 576.970413 81.165937 
L 578.43218 83.526554 
L 579.455417 84.864534 
L 580.478654 86.035452 
L 581.794244 87.65007 
L 582.817481 88.340022 
L 585.448662 89.708184 
L 587.202783 90.235789 
L 587.34896 93.485186 
L 632.663741 93.485186 
L 632.809917 90.180703 
L 633.248447 89.416834 
L 633.833154 87.982498 
L 634.271684 86.407327 
L 634.710215 84.097793 
L 635.148745 80.684488 
L 635.587275 75.147276 
L 636.025805 66.172358 
L 636.464335 57.458212 
L 636.610512 56.880298 
L 636.756689 57.900218 
L 637.487572 68.143786 
L 637.633749 68.824428 
L 637.779926 68.888602 
L 637.926102 68.332364 
L 638.218456 65.332046 
L 638.949339 53.727928 
L 639.095516 54.244606 
L 639.387869 59.21052 
L 639.8264 67.344954 
L 640.118753 70.043521 
L 640.26493 70.544126 
L 640.411106 70.510246 
L 640.557283 69.94536 
L 640.849637 67.20516 
L 641.58052 56.173606 
L 641.726697 56.347002 
L 642.01905 60.561883 
L 642.45758 67.952862 
L 642.749934 70.257289 
L 642.896111 70.516008 
L 643.042287 70.186009 
L 643.334641 67.80305 
L 644.065524 59.353065 
L 644.211701 60.608742 
L 644.650231 70.276245 
L 645.088761 78.957912 
L 645.527291 83.989797 
L 645.965822 86.760531 
L 646.550528 88.938778 
L 647.135235 90.16463 
L 647.281412 93.485186 
L 795.504599 93.485186 
L 795.650776 90.146312 
L 796.089306 89.437789 
L 796.527836 88.230509 
L 796.966366 86.21865 
L 797.989603 80.306637 
L 798.281957 81.35593 
L 798.57431 82.538518 
L 798.720487 82.829632 
L 798.866663 82.863412 
L 799.01284 82.633228 
L 799.305194 81.390478 
L 799.597547 79.09117 
L 800.182254 73.172009 
L 800.328431 72.973938 
L 800.474607 73.847095 
L 801.351668 83.364768 
L 801.644021 84.415718 
L 801.790198 84.590049 
L 801.936374 84.555999 
L 802.228728 83.944962 
L 802.521081 83.068964 
L 802.667258 82.928096 
L 802.813435 83.225829 
L 803.105788 85.015902 
L 803.690495 88.710009 
L 804.129025 90.05711 
L 804.275202 93.485186 
L 814.946102 93.485186 
L 815.092279 90.190249 
L 816.115516 89.680913 
L 816.992576 89.349428 
L 817.869636 88.634852 
L 820.062287 86.920863 
L 822.547291 85.818356 
L 823.424351 85.436063 
L 823.862881 85.323069 
L 824.301412 85.513557 
L 824.886118 86.186833 
L 825.763179 87.40594 
L 827.078769 89.727195 
L 827.224946 90.184078 
L 827.371123 93.485186 
L 827.955829 93.485186 
L 828.102006 90.184777 
L 828.540536 89.308861 
L 829.125243 88.668997 
L 829.856127 88.200528 
L 830.440833 88.149629 
L 831.02554 88.300996 
L 831.756424 88.784092 
L 832.925838 89.681312 
L 833.802898 90.200571 
L 833.949075 93.485186 
L 842.719677 93.485186 
L 842.865854 90.082622 
L 843.450561 88.847051 
L 844.035268 86.847263 
L 844.473798 84.419956 
L 844.912328 80.415795 
L 845.789388 70.241047 
L 845.935565 70.605965 
L 846.227918 74.269146 
L 846.812625 83.465601 
L 847.251155 87.341996 
L 847.689686 89.354761 
L 847.982039 90.09684 
L 848.128216 93.485186 
L 1131.272509 93.485186 
L 1131.272509 93.485186 
" clip-path="url(#p4e8b738ef1)" style="fill: none; stroke: #d55e00; stroke-width: 2; stroke-linecap: square"/>
   </g>
   <g id="LineCollection_1">
    <path d="M 56.727491 190.798447 
L 56.727491 93.485186 
" clip-path="url(#p4e8b738ef1)" style="fill: none; stroke-dasharray: 1,1.65; stroke-dashoffset: 0; stroke: #808080"/>
    <path d="M 80.408118 190.798447 
L 79.677235 93.485186 
" clip-path="url(#p4e8b738ef1)" style="fill: none; stroke-dasharray: 1,1.65; stroke-dashoffset: 0; stroke: #808080"/>
    <path d="M 104.088746 190.798447 
L 103.357862 93.485186 
" clip-path="url(#p4e8b738ef1)" style="fill: none; stroke-dasharray: 1,1.65; stroke-dashoffset: 0; stroke: #808080"/>
    <path d="M 127.769373 190.798447 
L 127.03849 93.485186 
" clip-path="url(#p4e8b738ef1)" style="fill: none; stroke-dasharray: 1,1.65; stroke-dashoffset: 0; stroke: #808080"/>
    <path d="M 151.450001 190.798447 
L 150.719117 93.485186 
" clip-path="url(#p4e8b738ef1)" style="fill: none; stroke-dasharray: 1,1.65; stroke-dashoffset: 0; stroke: #808080"/>
    <path d="M 175.130629 190.798447 
L 174.399745 93.485186 
" clip-path="url(#p4e8b738ef1)" style="fill: none; stroke-dasharray: 1,1.65; stroke-dashoffset: 0; stroke: #808080"/>
    <path d="M 198.957433 190.798447 
L 198.226549 93.485186 
" clip-path="url(#p4e8b738ef1)" style="fill: none; stroke-dasharray: 1,1.65; stroke-dashoffset: 0; stroke: #808080"/>
    <path d="M 222.63806 190.798447 
L 221.907177 93.485186 
" clip-path="url(#p4e8b738ef1)" style="fill: none; stroke-dasharray: 1,1.65; stroke-dashoffset: 0; stroke: #808080"/>
    <path d="M 246.318688 190.798447 
L 245.587804 93.485186 
" clip-path="url(#p4e8b738ef1)" style="fill: none; stroke-dasharray: 1,1.65; stroke-dashoffset: 0; stroke: #808080"/>
    <path d="M 269.999315 190.798447 
L 269.268432 93.485186 
" clip-path="url(#p4e8b738ef1)" style="fill: none; stroke-dasharray: 1,1.65; stroke-dashoffset: 0; stroke: #808080"/>
    <path d="M 293.679943 190.798447 
L 292.949059 93.485186 
" clip-path="url(#p4e8b738ef1)" style="fill: none; stroke-dasharray: 1,1.65; stroke-dashoffset: 0; stroke: #808080"/>
    <path d="M 317.506747 190.798447 
L 316.775864 93.485186 
" clip-path="url(#p4e8b738ef1)" style="fill: none; stroke-dasharray: 1,1.65; stroke-dashoffset: 0; stroke: #808080"/>
    <path d="M 341.187375 190.798447 
L 340.456491 93.485186 
" clip-path="url(#p4e8b738ef1)" style="fill: none; stroke-dasharray: 1,1.65; stroke-dashoffset: 0; stroke: #808080"/>
    <path d="M 364.868002 190.798447 
L 364.137119 93.485186 
" clip-path="url(#p4e8b738ef1)" style="fill: none; stroke-dasharray: 1,1.65; stroke-dashoffset: 0; stroke: #808080"/>
    <path d="M 380.947441 190.798447 
L 384.601858 93.485186 
" clip-path="url(#p4e8b738ef1)" style="fill: none; stroke-dasharray: 1,1.65; stroke-dashoffset: 0; stroke: #808080"/>
    <path d="M 404.628068 190.798447 
L 405.066598 93.485186 
" clip-path="url(#p4e8b738ef1)" style="fill: none; stroke-dasharray: 1,1.65; stroke-dashoffset: 0; stroke: #808080"/>
    <path d="M 420.415153 146.094963 
L 424.508101 50.5561 
" clip-path="url(#p4e8b738ef1)" style="fill: none; stroke-dasharray: 1,1.65; stroke-dashoffset: 0; stroke: #808080"/>
    <path d="M 438.394889 182.649763 
L 437.517829 85.300852 
" clip-path="url(#p4e8b738ef1)" style="fill: none; stroke-dasharray: 1,1.65; stroke-dashoffset: 0; stroke: #808080"/>
    <path d="M 456.813155 190.798447 
L 449.650496 93.485186 
" clip-path="url(#p4e8b738ef1)" style="fill: none; stroke-dasharray: 1,1.65; stroke-dashoffset: 0; stroke: #808080"/>
    <path d="M 480.493782 190.798447 
L 473.331123 93.485186 
" clip-path="url(#p4e8b738ef1)" style="fill: none; stroke-dasharray: 1,1.65; stroke-dashoffset: 0; stroke: #808080"/>
    <path d="M 504.17441 190.798447 
L 497.011751 93.485186 
" clip-path="url(#p4e8b738ef1)" style="fill: none; stroke-dasharray: 1,1.65; stroke-dashoffset: 0; stroke: #808080"/>
    <path d="M 521.715615 190.798447 
L 520.692378 93.485186 
" clip-path="url(#p4e8b738ef1)" style="fill: none; stroke-dasharray: 1,1.65; stroke-dashoffset: 0; stroke: #808080"/>
    <path d="M 545.54242 190.798447 
L 544.519183 93.485186 
" clip-path="url(#p4e8b738ef1)" style="fill: none; stroke-dasharray: 1,1.65; stroke-dashoffset: 0; stroke: #808080"/>
    <path d="M 565.422453 155.442348 
L 566.153336 46.618227 
" clip-path="url(#p4e8b738ef1)" style="fill: none; stroke-dasharray: 1,1.65; stroke-dashoffset: 0; stroke: #808080"/>
    <path d="M 582.817481 186.32475 
L 583.986895 88.95367 
" clip-path="url(#p4e8b738ef1)" style="fill: none; stroke-dasharray: 1,1.65; stroke-dashoffset: 0; stroke: #808080"/>
    <path d="M 605.474872 190.798447 
L 607.082816 93.485186 
" clip-path="url(#p4e8b738ef1)" style="fill: none; stroke-dasharray: 1,1.65; stroke-dashoffset: 0; stroke: #808080"/>
    <path d="M 629.1555 190.798447 
L 630.763443 93.485186 
" clip-path="url(#p4e8b738ef1)" style="fill: none; stroke-dasharray: 1,1.65; stroke-dashoffset: 0; stroke: #808080"/>
    <path d="M 649.181709 190.798447 
L 648.450826 93.485186 
" clip-path="url(#p4e8b738ef1)" style="fill: none; stroke-dasharray: 1,1.65; stroke-dashoffset: 0; stroke: #808080"/>
    <path d="M 673.008513 190.798447 
L 672.27763 93.485186 
" clip-path="url(#p4e8b738ef1)" style="fill: none; stroke-dasharray: 1,1.65; stroke-dashoffset: 0; stroke: #808080"/>
    <path d="M 696.689141 190.798447 
L 695.958257 93.485186 
" clip-path="url(#p4e8b738ef1)" style="fill: none; stroke-dasharray: 1,1.65; stroke-dashoffset: 0; stroke: #808080"/>
    <path d="M 720.369768 190.798447 
L 719.638885 93.485186 
" clip-path="url(#p4e8b738ef1)" style="fill: none; stroke-dasharray: 1,1.65; stroke-dashoffset: 0; stroke: #808080"/>
    <path d="M 744.050396 190.798447 
L 743.319512 93.485186 
" clip-path="url(#p4e8b738ef1)" style="fill: none; stroke-dasharray: 1,1.65; stroke-dashoffset: 0; stroke: #808080"/>
    <path d="M 767.731024 190.798447 
L 767.00014 93.485186 
" clip-path="url(#p4e8b738ef1)" style="fill: none; stroke-dasharray: 1,1.65; stroke-dashoffset: 0; stroke: #808080"/>
    <path d="M 791.557828 190.798447 
L 790.826944 93.485186 
" clip-path="url(#p4e8b738ef1)" style="fill: none; stroke-dasharray: 1,1.65; stroke-dashoffset: 0; stroke: #808080"/>
    <path d="M 812.899628 190.798447 
L 804.275202 93.485186 
" clip-path="url(#p4e8b738ef1)" style="fill: none; stroke-dasharray: 1,1.65; stroke-dashoffset: 0; stroke: #808080"/>
    <path d="M 836.580255 190.798447 
L 804.275202 93.485186 
" clip-path="url(#p4e8b738ef1)" style="fill: none; stroke-dasharray: 1,1.65; stroke-dashoffset: 0; stroke: #808080"/>
    <path d="M 853.682931 180.608797 
L 823.862881 85.323069 
" clip-path="url(#p4e8b738ef1)" style="fill: none; stroke-dasharray: 1,1.65; stroke-dashoffset: 0; stroke: #808080"/>
    <path d="M 857.337349 190.798447 
L 846.666449 81.56277 
" clip-path="url(#p4e8b738ef1)" style="fill: none; stroke-dasharray: 1,1.65; stroke-dashoffset: 0; stroke: #808080"/>
    <path d="M 870.347076 190.798447 
L 870.347076 93.485186 
" clip-path="url(#p4e8b738ef1)" style="fill: none; stroke-dasharray: 1,1.65; stroke-dashoffset: 0; stroke: #808080"/>
    <path d="M 894.17388 190.798447 
L 894.17388 93.485186 
" clip-path="url(#p4e8b738ef1)" style="fill: none; stroke-dasharray: 1,1.65; stroke-dashoffset: 0; stroke: #808080"/>
    <path d="M 917.854508 190.798447 
L 917.854508 93.485186 
" clip-path="url(#p4e8b738ef1)" style="fill: none; stroke-dasharray: 1,1.65; stroke-dashoffset: 0; stroke: #808080"/>
    <path d="M 941.535135 190.798447 
L 941.535135 93.485186 
" clip-path="url(#p4e8b738ef1)" style="fill: none; stroke-dasharray: 1,1.65; stroke-dashoffset: 0; stroke: #808080"/>
    <path d="M 965.215763 190.798447 
L 965.215763 93.485186 
" clip-path="url(#p4e8b738ef1)" style="fill: none; stroke-dasharray: 1,1.65; stroke-dashoffset: 0; stroke: #808080"/>
    <path d="M 988.896391 190.798447 
L 988.896391 93.485186 
" clip-path="url(#p4e8b738ef1)" style="fill: none; stroke-dasharray: 1,1.65; stroke-dashoffset: 0; stroke: #808080"/>
    <path d="M 1012.723195 190.798447 
L 1012.723195 93.485186 
" clip-path="url(#p4e8b738ef1)" style="fill: none; stroke-dasharray: 1,1.65; stroke-dashoffset: 0; stroke: #808080"/>
    <path d="M 1036.403822 190.798447 
L 1036.403822 93.485186 
" clip-path="url(#p4e8b738ef1)" style="fill: none; stroke-dasharray: 1,1.65; stroke-dashoffset: 0; stroke: #808080"/>
    <path d="M 1060.08445 190.798447 
L 1060.08445 93.485186 
" clip-path="url(#p4e8b738ef1)" style="fill: none; stroke-dasharray: 1,1.65; stroke-dashoffset: 0; stroke: #808080"/>
    <path d="M 1083.765077 190.798447 
L 1083.765077 93.485186 
" clip-path="url(#p4e8b738ef1)" style="fill: none; stroke-dasharray: 1,1.65; stroke-dashoffset: 0; stroke: #808080"/>
    <path d="M 1107.445705 190.798447 
L 1107.445705 93.485186 
" clip-path="url(#p4e8b738ef1)" style="fill: none; stroke-dasharray: 1,1.65; stroke-dashoffset: 0; stroke: #808080"/>
    <path d="M 1131.272509 190.798447 
L 1131.272509 93.485186 
" clip-path="url(#p4e8b738ef1)" style="fill: none; stroke-dasharray: 1,1.65; stroke-dashoffset: 0; stroke: #808080"/>
   </g>
   <g id="patch_3">
    <path d="M 3.00024 198.907885 
L 3.00024 20.50024 
" style="fill: none; stroke: #000000; stroke-width: 2; stroke-linejoin: miter; stroke-linecap: square"/>
   </g>
   <g id="patch_4">
    <path d="M 1184.99976 198.907885 
L 1184.99976 20.50024 
" style="fill: none; stroke: #000000; stroke-width: 2; stroke-linejoin: miter; stroke-linecap: square"/>
   </g>
   <g id="patch_5">
    <path d="M 3.00024 198.907885 
L 1184.99976 198.907885 
" style="fill: none; stroke: #000000; stroke-width: 2; stroke-linejoin: miter; stroke-linecap: square"/>
   </g>
   <g id="patch_6">
    <path d="M 3.00024 20.50024 
L 1184.99976 20.50024 
" style="fill: none; stroke: #000000; stroke-width: 2; stroke-linejoin: miter; stroke-linecap: square"/>
   </g>
   <g id="text_14">
    <!-- Distance between spectra: 28.7 -->
    <g transform="translate(475.29125 14.50024) scale(0.16 -0.16)">
     <defs>
      <path id="Arial-BoldMT-44" d="M 463 4581 
L 2153 4581 
Q 2725 4581 3025 4494 
Q 3428 4375 3715 4072 
Q 4003 3769 4153 3330 
Q 4303 2891 4303 2247 
Q 4303 1681 4163 1272 
Q 3991 772 3672 463 
Q 3431 228 3022 97 
Q 2716 0 2203 0 
L 463 0 
L 463 4581 
z
M 1388 3806 
L 1388 772 
L 2078 772 
Q 2466 772 2638 816 
Q 2863 872 3011 1006 
Q 3159 1141 3253 1448 
Q 3347 1756 3347 2288 
Q 3347 2819 3253 3103 
Q 3159 3388 2990 3547 
Q 2822 3706 2563 3763 
Q 2369 3806 1803 3806 
L 1388 3806 
z
" transform="scale(0.015625)"/>
      <path id="Arial-BoldMT-6e" d="M 3478 0 
L 2600 0 
L 2600 1694 
Q 2600 2231 2544 2389 
Q 2488 2547 2361 2634 
Q 2234 2722 2056 2722 
Q 1828 2722 1647 2597 
Q 1466 2472 1398 2265 
Q 1331 2059 1331 1503 
L 1331 0 
L 453 0 
L 453 3319 
L 1269 3319 
L 1269 2831 
Q 1703 3394 2363 3394 
Q 2653 3394 2893 3289 
Q 3134 3184 3257 3021 
Q 3381 2859 3429 2653 
Q 3478 2447 3478 2063 
L 3478 0 
z
" transform="scale(0.015625)"/>
      <path id="Arial-BoldMT-62" d="M 422 0 
L 422 4581 
L 1300 4581 
L 1300 2931 
Q 1706 3394 2263 3394 
Q 2869 3394 3266 2955 
Q 3663 2516 3663 1694 
Q 3663 844 3258 384 
Q 2853 -75 2275 -75 
Q 1991 -75 1714 67 
Q 1438 209 1238 488 
L 1238 0 
L 422 0 
z
M 1294 1731 
Q 1294 1216 1456 969 
Q 1684 619 2063 619 
Q 2353 619 2558 867 
Q 2763 1116 2763 1650 
Q 2763 2219 2556 2470 
Q 2350 2722 2028 2722 
Q 1713 2722 1503 2476 
Q 1294 2231 1294 1731 
z
" transform="scale(0.015625)"/>
      <path id="Arial-BoldMT-77" d="M 1078 0 
L 28 3319 
L 881 3319 
L 1503 1144 
L 2075 3319 
L 2922 3319 
L 3475 1144 
L 4109 3319 
L 4975 3319 
L 3909 0 
L 3066 0 
L 2494 2134 
L 1931 0 
L 1078 0 
z
" transform="scale(0.015625)"/>
      <path id="Arial-BoldMT-72" d="M 1300 0 
L 422 0 
L 422 3319 
L 1238 3319 
L 1238 2847 
Q 1447 3181 1614 3287 
Q 1781 3394 1994 3394 
Q 2294 3394 2572 3228 
L 2300 2463 
Q 2078 2606 1888 2606 
Q 1703 2606 1575 2504 
Q 1447 2403 1373 2137 
Q 1300 1872 1300 1025 
L 1300 0 
z
" transform="scale(0.015625)"/>
      <path id="Arial-BoldMT-3a" d="M 628 2441 
L 628 3319 
L 1506 3319 
L 1506 2441 
L 628 2441 
z
M 628 0 
L 628 878 
L 1506 878 
L 1506 0 
L 628 0 
z
" transform="scale(0.015625)"/>
     </defs>
     <use xlink:href="#Arial-BoldMT-44"/>
     <use xlink:href="#Arial-BoldMT-69" x="72.216797"/>
     <use xlink:href="#Arial-BoldMT-73" x="100"/>
     <use xlink:href="#Arial-BoldMT-74" x="155.615234"/>
     <use xlink:href="#Arial-BoldMT-61" x="188.916016"/>
     <use xlink:href="#Arial-BoldMT-6e" x="244.53125"/>
     <use xlink:href="#Arial-BoldMT-63" x="305.615234"/>
     <use xlink:href="#Arial-BoldMT-65" x="361.230469"/>
     <use xlink:href="#Arial-BoldMT-20" x="416.845703"/>
     <use xlink:href="#Arial-BoldMT-62" x="444.628906"/>
     <use xlink:href="#Arial-BoldMT-65" x="505.712891"/>
     <use xlink:href="#Arial-BoldMT-74" x="561.328125"/>
     <use xlink:href="#Arial-BoldMT-77" x="594.628906"/>
     <use xlink:href="#Arial-BoldMT-65" x="672.412109"/>
     <use xlink:href="#Arial-BoldMT-65" x="728.027344"/>
     <use xlink:href="#Arial-BoldMT-6e" x="783.642578"/>
     <use xlink:href="#Arial-BoldMT-20" x="844.726562"/>
     <use xlink:href="#Arial-BoldMT-73" x="872.509766"/>
     <use xlink:href="#Arial-BoldMT-70" x="928.125"/>
     <use xlink:href="#Arial-BoldMT-65" x="989.208984"/>
     <use xlink:href="#Arial-BoldMT-63" x="1044.824219"/>
     <use xlink:href="#Arial-BoldMT-74" x="1100.439453"/>
     <use xlink:href="#Arial-BoldMT-72" x="1133.740234"/>
     <use xlink:href="#Arial-BoldMT-61" x="1172.65625"/>
     <use xlink:href="#Arial-BoldMT-3a" x="1228.271484"/>
     <use xlink:href="#Arial-BoldMT-20" x="1261.572266"/>
     <use xlink:href="#Arial-BoldMT-32" x="1289.355469"/>
     <use xlink:href="#Arial-BoldMT-38" x="1344.970703"/>
     <use xlink:href="#Arial-BoldMT-2e" x="1400.585938"/>
     <use xlink:href="#Arial-BoldMT-37" x="1428.369141"/>
    </g>
   </g>
  </g>
  <g id="axes_2">
   <g id="matplotlib.axis_3"/>
   <g id="patch_7">
    <path d="M 3.00024 198.907885 
L 3.00024 20.50024 
" style="fill: none; stroke: #000000; stroke-width: 2; stroke-linejoin: miter; stroke-linecap: square"/>
   </g>
   <g id="patch_8">
    <path d="M 1184.99976 198.907885 
L 1184.99976 20.50024 
" style="fill: none; stroke: #000000; stroke-width: 2; stroke-linejoin: miter; stroke-linecap: square"/>
   </g>
   <g id="patch_9">
    <path d="M 3.00024 198.907885 
L 1184.99976 198.907885 
" style="fill: none; stroke: #000000; stroke-width: 2; stroke-linejoin: miter; stroke-linecap: square"/>
   </g>
   <g id="patch_10">
    <path d="M 3.00024 20.50024 
L 1184.99976 20.50024 
" style="fill: none; stroke: #000000; stroke-width: 2; stroke-linejoin: miter; stroke-linecap: square"/>
   </g>
  </g>
 </g>
 <defs>
  <clipPath id="p4e8b738ef1">
   <rect x="3.00024" y="20.50024" width="1181.99952" height="178.407645"/>
  </clipPath>
 </defs>
</svg>
