<?xml version="1.0" encoding="utf-8" standalone="no"?>
<!DOCTYPE svg PUBLIC "-//W3C//DTD SVG 1.1//EN"
  "http://www.w3.org/Graphics/SVG/1.1/DTD/svg11.dtd">
<svg xmlns:xlink="http://www.w3.org/1999/xlink" width="1188pt" height="252pt" viewBox="0 0 1188 252" xmlns="http://www.w3.org/2000/svg" version="1.1">
 <metadata>
  <rdf:RDF xmlns:dc="http://purl.org/dc/elements/1.1/" xmlns:cc="http://creativecommons.org/ns#" xmlns:rdf="http://www.w3.org/1999/02/22-rdf-syntax-ns#">
   <cc:Work>
    <dc:type rdf:resource="http://purl.org/dc/dcmitype/StillImage"/>
    <dc:date>2024-05-14T19:45:23.296181</dc:date>
    <dc:format>image/svg+xml</dc:format>
    <dc:creator>
     <cc:Agent>
      <dc:title>Matplotlib v3.8.0, https://matplotlib.org/</dc:title>
     </cc:Agent>
    </dc:creator>
   </cc:Work>
  </rdf:RDF>
 </metadata>
 <defs>
  <style type="text/css">*{stroke-linejoin: round; stroke-linecap: butt}</style>
 </defs>
 <g id="figure_1">
  <g id="patch_1">
   <path d="M 0 252 
L 1188 252 
L 1188 0 
L 0 0 
z
" style="fill: #ffffff"/>
  </g>
  <g id="axes_1">
   <g id="patch_2">
    <path d="M 3.00024 198.907885 
L 1184.99976 198.907885 
L 1184.99976 20.50024 
L 3.00024 20.50024 
z
" style="fill: #ffffff"/>
   </g>
   <g id="matplotlib.axis_1">
    <g id="xtick_1">
     <g id="line2d_1">
      <defs>
       <path id="me5bafe60c8" d="M 0 0 
L 0 8 
" style="stroke: #000000; stroke-width: 2"/>
      </defs>
      <g>
       <use xlink:href="#me5bafe60c8" x="56.727491" y="198.907885" style="stroke: #000000; stroke-width: 2"/>
      </g>
     </g>
     <g id="text_1">
      <!-- 12.0 -->
      <g transform="translate(39.212647 224.791947) scale(0.18 -0.18)">
       <defs>
        <path id="Arial-BoldMT-31" d="M 2519 0 
L 1641 0 
L 1641 3309 
Q 1159 2859 506 2644 
L 506 3441 
Q 850 3553 1253 3867 
Q 1656 4181 1806 4600 
L 2519 4600 
L 2519 0 
z
" transform="scale(0.015625)"/>
        <path id="Arial-BoldMT-32" d="M 3238 816 
L 3238 0 
L 159 0 
Q 209 463 459 877 
Q 709 1291 1447 1975 
Q 2041 2528 2175 2725 
Q 2356 2997 2356 3263 
Q 2356 3556 2198 3714 
Q 2041 3872 1763 3872 
Q 1488 3872 1325 3706 
Q 1163 3541 1138 3156 
L 263 3244 
Q 341 3969 753 4284 
Q 1166 4600 1784 4600 
Q 2463 4600 2850 4234 
Q 3238 3869 3238 3325 
Q 3238 3016 3127 2736 
Q 3016 2456 2775 2150 
Q 2616 1947 2200 1565 
Q 1784 1184 1673 1059 
Q 1563 934 1494 816 
L 3238 816 
z
" transform="scale(0.015625)"/>
        <path id="Arial-BoldMT-2e" d="M 459 0 
L 459 878 
L 1338 878 
L 1338 0 
L 459 0 
z
" transform="scale(0.015625)"/>
        <path id="Arial-BoldMT-30" d="M 1756 4600 
Q 2422 4600 2797 4125 
Q 3244 3563 3244 2259 
Q 3244 959 2794 391 
Q 2422 -78 1756 -78 
Q 1088 -78 678 436 
Q 269 950 269 2269 
Q 269 3563 719 4131 
Q 1091 4600 1756 4600 
z
M 1756 3872 
Q 1597 3872 1472 3770 
Q 1347 3669 1278 3406 
Q 1188 3066 1188 2259 
Q 1188 1453 1269 1151 
Q 1350 850 1473 750 
Q 1597 650 1756 650 
Q 1916 650 2041 751 
Q 2166 853 2234 1116 
Q 2325 1453 2325 2259 
Q 2325 3066 2244 3367 
Q 2163 3669 2039 3770 
Q 1916 3872 1756 3872 
z
" transform="scale(0.015625)"/>
       </defs>
       <use xlink:href="#Arial-BoldMT-31"/>
       <use xlink:href="#Arial-BoldMT-32" x="55.615234"/>
       <use xlink:href="#Arial-BoldMT-2e" x="111.230469"/>
       <use xlink:href="#Arial-BoldMT-30" x="139.013672"/>
      </g>
     </g>
    </g>
    <g id="xtick_2">
     <g id="line2d_2">
      <g>
       <use xlink:href="#me5bafe60c8" x="154.386819" y="198.907885" style="stroke: #000000; stroke-width: 2"/>
      </g>
     </g>
     <g id="text_2">
      <!-- 10.7 -->
      <g transform="translate(136.871975 224.791947) scale(0.18 -0.18)">
       <defs>
        <path id="Arial-BoldMT-37" d="M 272 3703 
L 272 4519 
L 3275 4519 
L 3275 3881 
Q 2903 3516 2518 2831 
Q 2134 2147 1932 1376 
Q 1731 606 1734 0 
L 888 0 
Q 909 950 1279 1937 
Q 1650 2925 2269 3703 
L 272 3703 
z
" transform="scale(0.015625)"/>
       </defs>
       <use xlink:href="#Arial-BoldMT-31"/>
       <use xlink:href="#Arial-BoldMT-30" x="55.615234"/>
       <use xlink:href="#Arial-BoldMT-2e" x="111.230469"/>
       <use xlink:href="#Arial-BoldMT-37" x="139.013672"/>
      </g>
     </g>
    </g>
    <g id="xtick_3">
     <g id="line2d_3">
      <g>
       <use xlink:href="#me5bafe60c8" x="252.046146" y="198.907885" style="stroke: #000000; stroke-width: 2"/>
      </g>
     </g>
     <g id="text_3">
      <!-- 9.5 -->
      <g transform="translate(239.536146 224.791947) scale(0.18 -0.18)">
       <defs>
        <path id="Arial-BoldMT-39" d="M 291 1059 
L 1141 1153 
Q 1172 894 1303 769 
Q 1434 644 1650 644 
Q 1922 644 2112 894 
Q 2303 1144 2356 1931 
Q 2025 1547 1528 1547 
Q 988 1547 595 1964 
Q 203 2381 203 3050 
Q 203 3747 617 4173 
Q 1031 4600 1672 4600 
Q 2369 4600 2816 4061 
Q 3263 3522 3263 2288 
Q 3263 1031 2797 475 
Q 2331 -81 1584 -81 
Q 1047 -81 715 205 
Q 384 491 291 1059 
z
M 2278 2978 
Q 2278 3403 2083 3637 
Q 1888 3872 1631 3872 
Q 1388 3872 1227 3680 
Q 1066 3488 1066 3050 
Q 1066 2606 1241 2398 
Q 1416 2191 1678 2191 
Q 1931 2191 2104 2391 
Q 2278 2591 2278 2978 
z
" transform="scale(0.015625)"/>
        <path id="Arial-BoldMT-35" d="M 284 1178 
L 1159 1269 
Q 1197 972 1381 798 
Q 1566 625 1806 625 
Q 2081 625 2272 848 
Q 2463 1072 2463 1522 
Q 2463 1944 2273 2155 
Q 2084 2366 1781 2366 
Q 1403 2366 1103 2031 
L 391 2134 
L 841 4519 
L 3163 4519 
L 3163 3697 
L 1506 3697 
L 1369 2919 
Q 1663 3066 1969 3066 
Q 2553 3066 2959 2641 
Q 3366 2216 3366 1538 
Q 3366 972 3038 528 
Q 2591 -78 1797 -78 
Q 1163 -78 763 262 
Q 363 603 284 1178 
z
" transform="scale(0.015625)"/>
       </defs>
       <use xlink:href="#Arial-BoldMT-39"/>
       <use xlink:href="#Arial-BoldMT-2e" x="55.615234"/>
       <use xlink:href="#Arial-BoldMT-35" x="83.398438"/>
      </g>
     </g>
    </g>
    <g id="xtick_4">
     <g id="line2d_4">
      <g>
       <use xlink:href="#me5bafe60c8" x="349.705474" y="198.907885" style="stroke: #000000; stroke-width: 2"/>
      </g>
     </g>
     <g id="text_4">
      <!-- 8.2 -->
      <g transform="translate(337.195474 224.791947) scale(0.18 -0.18)">
       <defs>
        <path id="Arial-BoldMT-38" d="M 1025 2472 
Q 684 2616 529 2867 
Q 375 3119 375 3419 
Q 375 3931 733 4265 
Q 1091 4600 1750 4600 
Q 2403 4600 2764 4265 
Q 3125 3931 3125 3419 
Q 3125 3100 2959 2851 
Q 2794 2603 2494 2472 
Q 2875 2319 3073 2025 
Q 3272 1731 3272 1347 
Q 3272 713 2867 316 
Q 2463 -81 1791 -81 
Q 1166 -81 750 247 
Q 259 634 259 1309 
Q 259 1681 443 1992 
Q 628 2303 1025 2472 
z
M 1206 3356 
Q 1206 3094 1354 2947 
Q 1503 2800 1750 2800 
Q 2000 2800 2150 2948 
Q 2300 3097 2300 3359 
Q 2300 3606 2151 3754 
Q 2003 3903 1759 3903 
Q 1506 3903 1356 3753 
Q 1206 3603 1206 3356 
z
M 1125 1394 
Q 1125 1031 1311 828 
Q 1497 625 1775 625 
Q 2047 625 2225 820 
Q 2403 1016 2403 1384 
Q 2403 1706 2222 1901 
Q 2041 2097 1763 2097 
Q 1441 2097 1283 1875 
Q 1125 1653 1125 1394 
z
" transform="scale(0.015625)"/>
       </defs>
       <use xlink:href="#Arial-BoldMT-38"/>
       <use xlink:href="#Arial-BoldMT-2e" x="55.615234"/>
       <use xlink:href="#Arial-BoldMT-32" x="83.398438"/>
      </g>
     </g>
    </g>
    <g id="xtick_5">
     <g id="line2d_5">
      <g>
       <use xlink:href="#me5bafe60c8" x="447.364802" y="198.907885" style="stroke: #000000; stroke-width: 2"/>
      </g>
     </g>
     <g id="text_5">
      <!-- 6.9 -->
      <g transform="translate(434.854802 224.791947) scale(0.18 -0.18)">
       <defs>
        <path id="Arial-BoldMT-36" d="M 3247 3459 
L 2397 3366 
Q 2366 3628 2234 3753 
Q 2103 3878 1894 3878 
Q 1616 3878 1423 3628 
Q 1231 3378 1181 2588 
Q 1509 2975 1997 2975 
Q 2547 2975 2939 2556 
Q 3331 2138 3331 1475 
Q 3331 772 2918 347 
Q 2506 -78 1859 -78 
Q 1166 -78 719 461 
Q 272 1000 272 2228 
Q 272 3488 737 4044 
Q 1203 4600 1947 4600 
Q 2469 4600 2811 4308 
Q 3153 4016 3247 3459 
z
M 1256 1544 
Q 1256 1116 1453 883 
Q 1650 650 1903 650 
Q 2147 650 2309 840 
Q 2472 1031 2472 1466 
Q 2472 1913 2297 2120 
Q 2122 2328 1859 2328 
Q 1606 2328 1431 2129 
Q 1256 1931 1256 1544 
z
" transform="scale(0.015625)"/>
       </defs>
       <use xlink:href="#Arial-BoldMT-36"/>
       <use xlink:href="#Arial-BoldMT-2e" x="55.615234"/>
       <use xlink:href="#Arial-BoldMT-39" x="83.398438"/>
      </g>
     </g>
    </g>
    <g id="xtick_6">
     <g id="line2d_6">
      <g>
       <use xlink:href="#me5bafe60c8" x="545.02413" y="198.907885" style="stroke: #000000; stroke-width: 2"/>
      </g>
     </g>
     <g id="text_6">
      <!-- 5.6 -->
      <g transform="translate(532.51413 224.791947) scale(0.18 -0.18)">
       <use xlink:href="#Arial-BoldMT-35"/>
       <use xlink:href="#Arial-BoldMT-2e" x="55.615234"/>
       <use xlink:href="#Arial-BoldMT-36" x="83.398438"/>
      </g>
     </g>
    </g>
    <g id="xtick_7">
     <g id="line2d_7">
      <g>
       <use xlink:href="#me5bafe60c8" x="642.683457" y="198.907885" style="stroke: #000000; stroke-width: 2"/>
      </g>
     </g>
     <g id="text_7">
      <!-- 4.4 -->
      <g transform="translate(630.173457 224.791947) scale(0.18 -0.18)">
       <defs>
        <path id="Arial-BoldMT-34" d="M 1994 0 
L 1994 922 
L 119 922 
L 119 1691 
L 2106 4600 
L 2844 4600 
L 2844 1694 
L 3413 1694 
L 3413 922 
L 2844 922 
L 2844 0 
L 1994 0 
z
M 1994 1694 
L 1994 3259 
L 941 1694 
L 1994 1694 
z
" transform="scale(0.015625)"/>
       </defs>
       <use xlink:href="#Arial-BoldMT-34"/>
       <use xlink:href="#Arial-BoldMT-2e" x="55.615234"/>
       <use xlink:href="#Arial-BoldMT-34" x="83.398438"/>
      </g>
     </g>
    </g>
    <g id="xtick_8">
     <g id="line2d_8">
      <g>
       <use xlink:href="#me5bafe60c8" x="740.342785" y="198.907885" style="stroke: #000000; stroke-width: 2"/>
      </g>
     </g>
     <g id="text_8">
      <!-- 3.1 -->
      <g transform="translate(727.832785 224.791947) scale(0.18 -0.18)">
       <defs>
        <path id="Arial-BoldMT-33" d="M 241 1216 
L 1091 1319 
Q 1131 994 1309 822 
Q 1488 650 1741 650 
Q 2013 650 2198 856 
Q 2384 1063 2384 1413 
Q 2384 1744 2206 1937 
Q 2028 2131 1772 2131 
Q 1603 2131 1369 2066 
L 1466 2781 
Q 1822 2772 2009 2936 
Q 2197 3100 2197 3372 
Q 2197 3603 2059 3740 
Q 1922 3878 1694 3878 
Q 1469 3878 1309 3722 
Q 1150 3566 1116 3266 
L 306 3403 
Q 391 3819 561 4067 
Q 731 4316 1036 4458 
Q 1341 4600 1719 4600 
Q 2366 4600 2756 4188 
Q 3078 3850 3078 3425 
Q 3078 2822 2419 2463 
Q 2813 2378 3048 2084 
Q 3284 1791 3284 1375 
Q 3284 772 2843 347 
Q 2403 -78 1747 -78 
Q 1125 -78 715 280 
Q 306 638 241 1216 
z
" transform="scale(0.015625)"/>
       </defs>
       <use xlink:href="#Arial-BoldMT-33"/>
       <use xlink:href="#Arial-BoldMT-2e" x="55.615234"/>
       <use xlink:href="#Arial-BoldMT-31" x="83.398438"/>
      </g>
     </g>
    </g>
    <g id="xtick_9">
     <g id="line2d_9">
      <g>
       <use xlink:href="#me5bafe60c8" x="838.002113" y="198.907885" style="stroke: #000000; stroke-width: 2"/>
      </g>
     </g>
     <g id="text_9">
      <!-- 1.8 -->
      <g transform="translate(825.492113 224.791947) scale(0.18 -0.18)">
       <use xlink:href="#Arial-BoldMT-31"/>
       <use xlink:href="#Arial-BoldMT-2e" x="55.615234"/>
       <use xlink:href="#Arial-BoldMT-38" x="83.398438"/>
      </g>
     </g>
    </g>
    <g id="xtick_10">
     <g id="line2d_10">
      <g>
       <use xlink:href="#me5bafe60c8" x="935.661441" y="198.907885" style="stroke: #000000; stroke-width: 2"/>
      </g>
     </g>
     <g id="text_10">
      <!-- 0.6 -->
      <g transform="translate(923.151441 224.791947) scale(0.18 -0.18)">
       <use xlink:href="#Arial-BoldMT-30"/>
       <use xlink:href="#Arial-BoldMT-2e" x="55.615234"/>
       <use xlink:href="#Arial-BoldMT-36" x="83.398438"/>
      </g>
     </g>
    </g>
    <g id="xtick_11">
     <g id="line2d_11">
      <g>
       <use xlink:href="#me5bafe60c8" x="1033.320768" y="198.907885" style="stroke: #000000; stroke-width: 2"/>
      </g>
     </g>
     <g id="text_11">
      <!-- -0.7 -->
      <g transform="translate(1017.81405 224.791947) scale(0.18 -0.18)">
       <defs>
        <path id="Arial-BoldMT-2d" d="M 359 1222 
L 359 2100 
L 2084 2100 
L 2084 1222 
L 359 1222 
z
" transform="scale(0.015625)"/>
       </defs>
       <use xlink:href="#Arial-BoldMT-2d"/>
       <use xlink:href="#Arial-BoldMT-30" x="33.300781"/>
       <use xlink:href="#Arial-BoldMT-2e" x="88.916016"/>
       <use xlink:href="#Arial-BoldMT-37" x="116.699219"/>
      </g>
     </g>
    </g>
    <g id="xtick_12">
     <g id="line2d_12">
      <g>
       <use xlink:href="#me5bafe60c8" x="1130.980096" y="198.907885" style="stroke: #000000; stroke-width: 2"/>
      </g>
     </g>
     <g id="text_12">
      <!-- -2.0 -->
      <g transform="translate(1115.473377 224.791947) scale(0.18 -0.18)">
       <use xlink:href="#Arial-BoldMT-2d"/>
       <use xlink:href="#Arial-BoldMT-32" x="33.300781"/>
       <use xlink:href="#Arial-BoldMT-2e" x="88.916016"/>
       <use xlink:href="#Arial-BoldMT-30" x="116.699219"/>
      </g>
     </g>
    </g>
    <g id="text_13">
     <!-- Chemical shift / ppm -->
     <g transform="translate(505.99125 245.447573) scale(0.18 -0.18)">
      <defs>
       <path id="Arial-BoldMT-43" d="M 3397 1684 
L 4294 1400 
Q 4088 650 3608 286 
Q 3128 -78 2391 -78 
Q 1478 -78 890 545 
Q 303 1169 303 2250 
Q 303 3394 893 4026 
Q 1484 4659 2447 4659 
Q 3288 4659 3813 4163 
Q 4125 3869 4281 3319 
L 3366 3100 
Q 3284 3456 3026 3662 
Q 2769 3869 2400 3869 
Q 1891 3869 1573 3503 
Q 1256 3138 1256 2319 
Q 1256 1450 1568 1081 
Q 1881 713 2381 713 
Q 2750 713 3015 947 
Q 3281 1181 3397 1684 
z
" transform="scale(0.015625)"/>
       <path id="Arial-BoldMT-68" d="M 1334 4581 
L 1334 2897 
Q 1759 3394 2350 3394 
Q 2653 3394 2897 3281 
Q 3141 3169 3264 2994 
Q 3388 2819 3433 2606 
Q 3478 2394 3478 1947 
L 3478 0 
L 2600 0 
L 2600 1753 
Q 2600 2275 2550 2415 
Q 2500 2556 2373 2639 
Q 2247 2722 2056 2722 
Q 1838 2722 1666 2615 
Q 1494 2509 1414 2295 
Q 1334 2081 1334 1663 
L 1334 0 
L 456 0 
L 456 4581 
L 1334 4581 
z
" transform="scale(0.015625)"/>
       <path id="Arial-BoldMT-65" d="M 2381 1056 
L 3256 909 
Q 3088 428 2723 176 
Q 2359 -75 1813 -75 
Q 947 -75 531 491 
Q 203 944 203 1634 
Q 203 2459 634 2926 
Q 1066 3394 1725 3394 
Q 2466 3394 2894 2905 
Q 3322 2416 3303 1406 
L 1103 1406 
Q 1113 1016 1316 798 
Q 1519 581 1822 581 
Q 2028 581 2168 693 
Q 2309 806 2381 1056 
z
M 2431 1944 
Q 2422 2325 2234 2523 
Q 2047 2722 1778 2722 
Q 1491 2722 1303 2513 
Q 1116 2303 1119 1944 
L 2431 1944 
z
" transform="scale(0.015625)"/>
       <path id="Arial-BoldMT-6d" d="M 394 3319 
L 1203 3319 
L 1203 2866 
Q 1638 3394 2238 3394 
Q 2556 3394 2790 3262 
Q 3025 3131 3175 2866 
Q 3394 3131 3647 3262 
Q 3900 3394 4188 3394 
Q 4553 3394 4806 3245 
Q 5059 3097 5184 2809 
Q 5275 2597 5275 2122 
L 5275 0 
L 4397 0 
L 4397 1897 
Q 4397 2391 4306 2534 
Q 4184 2722 3931 2722 
Q 3747 2722 3584 2609 
Q 3422 2497 3350 2280 
Q 3278 2063 3278 1594 
L 3278 0 
L 2400 0 
L 2400 1819 
Q 2400 2303 2353 2443 
Q 2306 2584 2207 2653 
Q 2109 2722 1941 2722 
Q 1738 2722 1575 2612 
Q 1413 2503 1342 2297 
Q 1272 2091 1272 1613 
L 1272 0 
L 394 0 
L 394 3319 
z
" transform="scale(0.015625)"/>
       <path id="Arial-BoldMT-69" d="M 459 3769 
L 459 4581 
L 1338 4581 
L 1338 3769 
L 459 3769 
z
M 459 0 
L 459 3319 
L 1338 3319 
L 1338 0 
L 459 0 
z
" transform="scale(0.015625)"/>
       <path id="Arial-BoldMT-63" d="M 3353 2338 
L 2488 2181 
Q 2444 2441 2289 2572 
Q 2134 2703 1888 2703 
Q 1559 2703 1364 2476 
Q 1169 2250 1169 1719 
Q 1169 1128 1367 884 
Q 1566 641 1900 641 
Q 2150 641 2309 783 
Q 2469 925 2534 1272 
L 3397 1125 
Q 3263 531 2881 228 
Q 2500 -75 1859 -75 
Q 1131 -75 698 384 
Q 266 844 266 1656 
Q 266 2478 700 2936 
Q 1134 3394 1875 3394 
Q 2481 3394 2839 3133 
Q 3197 2872 3353 2338 
z
" transform="scale(0.015625)"/>
       <path id="Arial-BoldMT-61" d="M 1116 2306 
L 319 2450 
Q 453 2931 781 3162 
Q 1109 3394 1756 3394 
Q 2344 3394 2631 3255 
Q 2919 3116 3036 2902 
Q 3153 2688 3153 2116 
L 3144 1091 
Q 3144 653 3186 445 
Q 3228 238 3344 0 
L 2475 0 
Q 2441 88 2391 259 
Q 2369 338 2359 363 
Q 2134 144 1878 34 
Q 1622 -75 1331 -75 
Q 819 -75 523 203 
Q 228 481 228 906 
Q 228 1188 362 1408 
Q 497 1628 739 1745 
Q 981 1863 1438 1950 
Q 2053 2066 2291 2166 
L 2291 2253 
Q 2291 2506 2166 2614 
Q 2041 2722 1694 2722 
Q 1459 2722 1328 2630 
Q 1197 2538 1116 2306 
z
M 2291 1594 
Q 2122 1538 1756 1459 
Q 1391 1381 1278 1306 
Q 1106 1184 1106 997 
Q 1106 813 1243 678 
Q 1381 544 1594 544 
Q 1831 544 2047 700 
Q 2206 819 2256 991 
Q 2291 1103 2291 1419 
L 2291 1594 
z
" transform="scale(0.015625)"/>
       <path id="Arial-BoldMT-6c" d="M 459 0 
L 459 4581 
L 1338 4581 
L 1338 0 
L 459 0 
z
" transform="scale(0.015625)"/>
       <path id="Arial-BoldMT-20" transform="scale(0.015625)"/>
       <path id="Arial-BoldMT-73" d="M 150 947 
L 1031 1081 
Q 1088 825 1259 692 
Q 1431 559 1741 559 
Q 2081 559 2253 684 
Q 2369 772 2369 919 
Q 2369 1019 2306 1084 
Q 2241 1147 2013 1200 
Q 950 1434 666 1628 
Q 272 1897 272 2375 
Q 272 2806 612 3100 
Q 953 3394 1669 3394 
Q 2350 3394 2681 3172 
Q 3013 2950 3138 2516 
L 2309 2363 
Q 2256 2556 2107 2659 
Q 1959 2763 1684 2763 
Q 1338 2763 1188 2666 
Q 1088 2597 1088 2488 
Q 1088 2394 1175 2328 
Q 1294 2241 1995 2081 
Q 2697 1922 2975 1691 
Q 3250 1456 3250 1038 
Q 3250 581 2869 253 
Q 2488 -75 1741 -75 
Q 1063 -75 667 200 
Q 272 475 150 947 
z
" transform="scale(0.015625)"/>
       <path id="Arial-BoldMT-66" d="M 75 3319 
L 563 3319 
L 563 3569 
Q 563 3988 652 4194 
Q 741 4400 980 4529 
Q 1219 4659 1584 4659 
Q 1959 4659 2319 4547 
L 2200 3934 
Q 1991 3984 1797 3984 
Q 1606 3984 1523 3895 
Q 1441 3806 1441 3553 
L 1441 3319 
L 2097 3319 
L 2097 2628 
L 1441 2628 
L 1441 0 
L 563 0 
L 563 2628 
L 75 2628 
L 75 3319 
z
" transform="scale(0.015625)"/>
       <path id="Arial-BoldMT-74" d="M 1981 3319 
L 1981 2619 
L 1381 2619 
L 1381 1281 
Q 1381 875 1398 808 
Q 1416 741 1477 697 
Q 1538 653 1625 653 
Q 1747 653 1978 738 
L 2053 56 
Q 1747 -75 1359 -75 
Q 1122 -75 931 4 
Q 741 84 652 211 
Q 563 338 528 553 
Q 500 706 500 1172 
L 500 2619 
L 97 2619 
L 97 3319 
L 500 3319 
L 500 3978 
L 1381 4491 
L 1381 3319 
L 1981 3319 
z
" transform="scale(0.015625)"/>
       <path id="Arial-BoldMT-2f" d="M -9 -78 
L 1125 4659 
L 1784 4659 
L 638 -78 
L -9 -78 
z
" transform="scale(0.015625)"/>
       <path id="Arial-BoldMT-70" d="M 434 3319 
L 1253 3319 
L 1253 2831 
Q 1413 3081 1684 3237 
Q 1956 3394 2288 3394 
Q 2866 3394 3269 2941 
Q 3672 2488 3672 1678 
Q 3672 847 3265 386 
Q 2859 -75 2281 -75 
Q 2006 -75 1782 34 
Q 1559 144 1313 409 
L 1313 -1263 
L 434 -1263 
L 434 3319 
z
M 1303 1716 
Q 1303 1156 1525 889 
Q 1747 622 2066 622 
Q 2372 622 2575 867 
Q 2778 1113 2778 1672 
Q 2778 2194 2568 2447 
Q 2359 2700 2050 2700 
Q 1728 2700 1515 2451 
Q 1303 2203 1303 1716 
z
" transform="scale(0.015625)"/>
      </defs>
      <use xlink:href="#Arial-BoldMT-43"/>
      <use xlink:href="#Arial-BoldMT-68" x="72.216797"/>
      <use xlink:href="#Arial-BoldMT-65" x="133.300781"/>
      <use xlink:href="#Arial-BoldMT-6d" x="188.916016"/>
      <use xlink:href="#Arial-BoldMT-69" x="277.832031"/>
      <use xlink:href="#Arial-BoldMT-63" x="305.615234"/>
      <use xlink:href="#Arial-BoldMT-61" x="361.230469"/>
      <use xlink:href="#Arial-BoldMT-6c" x="416.845703"/>
      <use xlink:href="#Arial-BoldMT-20" x="444.628906"/>
      <use xlink:href="#Arial-BoldMT-73" x="472.412109"/>
      <use xlink:href="#Arial-BoldMT-68" x="528.027344"/>
      <use xlink:href="#Arial-BoldMT-69" x="589.111328"/>
      <use xlink:href="#Arial-BoldMT-66" x="616.894531"/>
      <use xlink:href="#Arial-BoldMT-74" x="650.195312"/>
      <use xlink:href="#Arial-BoldMT-20" x="683.496094"/>
      <use xlink:href="#Arial-BoldMT-2f" x="711.279297"/>
      <use xlink:href="#Arial-BoldMT-20" x="739.0625"/>
      <use xlink:href="#Arial-BoldMT-70" x="766.845703"/>
      <use xlink:href="#Arial-BoldMT-70" x="827.929688"/>
      <use xlink:href="#Arial-BoldMT-6d" x="889.013672"/>
     </g>
    </g>
   </g>
   <g id="matplotlib.axis_2"/>
   <g id="line2d_13">
    <path d="M 56.727491 190.798447 
L 364.283295 190.798447 
L 364.429472 187.503036 
L 366.183593 185.926282 
L 366.768299 185.086546 
L 367.353006 183.860445 
L 367.791536 182.48619 
L 368.376243 179.79277 
L 368.96095 175.615839 
L 369.39948 170.802596 
L 369.83801 163.818491 
L 370.568894 147.647401 
L 371.299778 132.230936 
L 371.738308 127.149717 
L 372.030661 125.922939 
L 372.176838 125.941837 
L 372.323015 126.383481 
L 372.615368 128.584501 
L 372.907721 132.631788 
L 373.346252 141.9743 
L 374.661842 173.491088 
L 375.100372 179.345454 
L 375.538902 182.992738 
L 375.977432 185.234729 
L 376.562139 186.990028 
L 376.854493 187.552678 
L 377.000669 190.798447 
L 394.395698 190.798447 
L 394.541875 187.455585 
L 395.126582 186.976824 
L 395.711289 186.824036 
L 396.880702 186.890936 
L 398.196293 187.146143 
L 398.781 186.998676 
L 399.511883 186.54863 
L 400.388943 185.693913 
L 400.827474 184.997977 
L 401.41218 183.513708 
L 401.850711 181.861825 
L 402.435417 178.555491 
L 403.166301 172.75497 
L 404.628068 160.667706 
L 405.066598 158.683182 
L 405.358952 158.041445 
L 405.505128 157.92077 
L 405.651305 157.957867 
L 405.943659 158.453415 
L 406.382189 160.012998 
L 408.282486 168.767461 
L 408.721016 169.528446 
L 409.01337 169.709294 
L 410.182783 169.951696 
L 410.621313 170.5647 
L 411.059844 171.694816 
L 411.790727 174.394982 
L 413.398671 180.751466 
L 414.275731 183.399072 
L 415.006615 184.843072 
L 416.468382 187.074079 
L 416.760735 187.44902 
L 416.906912 190.798447 
L 550.512428 190.798447 
L 550.658605 187.490883 
L 551.828018 186.742125 
L 552.412725 186.214783 
L 552.997432 185.731363 
L 553.728316 185.191479 
L 556.067143 182.531672 
L 557.821264 179.567231 
L 558.698324 177.590513 
L 560.744798 172.14269 
L 563.960685 162.7063 
L 565.276276 159.595281 
L 565.568629 159.424778 
L 565.860983 159.665442 
L 566.153336 160.37396 
L 566.591866 162.231409 
L 567.32275 166.620007 
L 568.19981 172.837826 
L 568.930694 181.525079 
L 569.07687 181.072374 
L 569.661577 177.174148 
L 570.246284 175.249741 
L 570.977168 173.411892 
L 571.708051 172.141047 
L 572.000405 171.893355 
L 572.292758 171.876639 
L 572.731288 172.145282 
L 573.169818 172.765698 
L 574.631586 176.110839 
L 576.531883 180.434842 
L 577.55512 182.070315 
L 579.893947 185.146731 
L 581.355714 186.357831 
L 582.232775 186.816204 
L 583.256012 187.339705 
L 583.548365 187.514462 
L 583.694542 190.798447 
L 687.187655 190.798447 
L 687.333831 187.432634 
L 687.480008 187.382982 
L 687.626185 187.501148 
L 687.772361 190.798447 
L 704.875037 190.798447 
L 705.021214 187.541724 
L 705.459744 186.70895 
L 705.898274 185.49308 
L 706.336804 183.685185 
L 706.921511 179.945957 
L 707.360041 177.228718 
L 707.506218 176.869674 
L 707.652394 176.903188 
L 707.944748 178.020743 
L 708.821808 183.104928 
L 709.260338 184.230958 
L 709.552692 184.484647 
L 709.845045 184.446298 
L 710.137399 184.177987 
L 710.575929 183.393703 
L 711.014459 182.042116 
L 711.452989 179.90252 
L 711.891519 176.554725 
L 712.330049 171.427704 
L 712.914756 161.446743 
L 713.499463 152.502793 
L 713.64564 151.82155 
L 713.791816 152.134626 
L 714.08417 155.661829 
L 715.107407 174.533418 
L 715.545937 178.198454 
L 715.984467 179.926955 
L 716.276821 180.396249 
L 716.569174 180.442805 
L 716.861527 180.080429 
L 717.153881 179.290208 
L 717.592411 177.199555 
L 718.030941 173.55591 
L 718.469471 167.60586 
L 719.638885 148.731672 
L 719.785062 149.210088 
L 720.077415 153.432126 
L 721.100652 174.613526 
L 721.539182 179.341299 
L 721.977712 181.997869 
L 722.416242 183.454545 
L 722.854773 184.219579 
L 723.147126 184.424085 
L 723.439479 184.38082 
L 723.731833 184.060731 
L 724.024186 183.395625 
L 724.462716 181.545002 
L 724.901247 178.475682 
L 725.485953 174.072229 
L 725.63213 173.77899 
L 725.778307 174.054376 
L 726.07066 176.125523 
L 726.947721 184.245596 
L 727.386251 186.33288 
L 727.824781 187.546961 
L 727.970958 190.798447 
L 780.594574 190.798447 
L 780.740751 187.522082 
L 781.325458 186.447203 
L 781.910165 184.730941 
L 782.348695 182.668776 
L 782.787225 179.461507 
L 783.518109 173.407116 
L 783.810462 172.619263 
L 783.956639 172.751078 
L 784.248992 173.843559 
L 784.687522 175.795735 
L 784.833699 176.097609 
L 784.979876 176.140723 
L 785.126052 175.914132 
L 785.418406 174.670366 
L 786.149289 170.220302 
L 786.295466 170.216996 
L 786.441643 170.727936 
L 786.880173 174.169359 
L 787.318703 177.198368 
L 787.611057 178.14347 
L 787.757233 178.29711 
L 787.90341 178.248173 
L 788.195763 177.546862 
L 788.488117 175.965537 
L 788.926647 171.62222 
L 789.803707 160.658254 
L 789.949884 160.522693 
L 790.096061 161.037654 
L 790.534591 164.873232 
L 790.973121 167.900425 
L 791.119298 168.097305 
L 791.265474 167.824476 
L 791.557828 165.942652 
L 792.142535 160.229765 
L 792.288711 159.798823 
L 792.434888 160.157254 
L 792.727241 163.001701 
L 793.750478 177.335445 
L 794.189009 180.028692 
L 794.481362 180.799757 
L 794.773715 180.929983 
L 795.066069 180.465326 
L 795.358422 179.416189 
L 795.943129 176.909535 
L 796.089306 176.726399 
L 796.235483 176.864173 
L 796.527836 177.952809 
L 797.112543 180.510343 
L 797.404896 180.829659 
L 797.551073 180.684612 
L 797.843426 179.907095 
L 798.281957 178.577434 
L 798.428133 178.427255 
L 798.57431 178.493663 
L 798.866663 179.280363 
L 799.305194 181.930053 
L 799.8899 185.558947 
L 800.328431 187.207689 
L 800.474607 190.798447 
L 817.138753 190.798447 
L 817.284929 187.32551 
L 817.577283 187.168579 
L 817.869636 187.484606 
L 818.015813 190.798447 
L 844.912328 190.798447 
L 845.058505 187.410802 
L 845.643212 186.174128 
L 846.081742 184.695802 
L 846.520272 182.379905 
L 846.958802 178.611778 
L 847.397332 172.096523 
L 847.982039 157.430861 
L 848.274392 151.855114 
L 848.420569 151.554293 
L 848.566746 153.205831 
L 849.005276 164.660733 
L 849.443806 174.636648 
L 849.882336 180.245019 
L 850.320866 183.469026 
L 850.759397 185.471275 
L 851.344103 187.078832 
L 851.49028 187.379733 
L 851.636457 190.798447 
L 1131.272509 190.798447 
L 1131.272509 190.798447 
" clip-path="url(#pfec4730110)" style="fill: none; stroke: #000000; stroke-width: 2; stroke-linecap: square"/>
   </g>
   <g id="line2d_14">
    <path d="M 56.727491 93.485186 
L 361.213584 93.485186 
L 361.359761 90.154453 
L 362.382998 89.439583 
L 363.113882 88.890313 
L 364.137119 87.734782 
L 364.721825 86.897165 
L 365.452709 85.411983 
L 366.037416 83.681825 
L 366.622123 81.146865 
L 367.20683 77.401417 
L 367.64536 73.131333 
L 368.08389 66.857083 
L 368.668597 54.992725 
L 369.691834 33.71207 
L 370.130364 29.37738 
L 370.422717 28.609678 
L 370.568894 28.849772 
L 370.861247 30.555212 
L 371.153601 33.908608 
L 371.592131 42.173136 
L 373.200075 79.614417 
L 373.638605 84.569719 
L 374.077135 87.57681 
L 374.515665 89.381136 
L 374.808019 90.202894 
L 374.954195 93.485186 
L 391.618341 93.485186 
L 391.764517 90.18932 
L 393.518638 88.659301 
L 394.249522 88.085388 
L 395.565112 87.395841 
L 396.295995 87.398976 
L 397.173056 87.402948 
L 397.757763 87.058502 
L 398.342469 86.515464 
L 398.927176 85.512847 
L 399.804237 83.462937 
L 401.119827 79.979696 
L 401.704534 77.791882 
L 402.581594 73.703108 
L 403.751008 66.852511 
L 405.066598 58.818709 
L 405.651305 56.182667 
L 406.089835 55.078512 
L 406.236012 54.944885 
L 406.382189 54.977296 
L 406.674542 55.539493 
L 406.966896 56.658665 
L 407.405426 59.432043 
L 407.990133 64.585241 
L 409.744253 81.563288 
L 410.32896 85.242583 
L 410.913667 87.694164 
L 411.498374 89.295023 
L 412.083081 90.200734 
L 412.229257 93.485186 
L 548.465954 93.485186 
L 548.612131 90.225009 
L 549.343014 89.738614 
L 549.927721 89.377937 
L 551.097135 88.891812 
L 551.681842 88.383428 
L 553.435962 86.453939 
L 554.020669 85.993111 
L 554.605376 85.212282 
L 556.359496 82.310512 
L 557.236557 80.265558 
L 558.552147 76.642764 
L 560.013914 71.661779 
L 561.329505 66.184279 
L 563.375979 57.568897 
L 565.276276 50.000628 
L 565.422453 49.935873 
L 565.568629 50.019346 
L 565.860983 50.606708 
L 566.299513 52.454955 
L 566.88422 56.454729 
L 567.76128 64.842208 
L 568.19981 69.450684 
L 568.930694 80.18886 
L 569.07687 80.049517 
L 570.977168 69.589415 
L 571.269521 68.771554 
L 571.561875 68.391989 
L 571.854228 68.329464 
L 572.146581 68.606787 
L 572.731288 69.762042 
L 573.315995 71.406178 
L 575.654823 79.158568 
L 576.970413 82.141323 
L 579.016887 86.142339 
L 579.601594 86.915588 
L 580.771007 87.983557 
L 581.648068 88.446071 
L 583.694542 90.049245 
L 583.986895 90.198467 
L 584.133072 93.485186 
L 688.064715 93.485186 
L 688.210892 89.998427 
L 688.795598 88.375525 
L 688.941775 88.375714 
L 689.234129 89.102028 
L 689.526482 90.104859 
L 689.672659 93.485186 
L 706.629157 93.485186 
L 706.775334 90.15335 
L 707.360041 89.163652 
L 707.798571 87.974013 
L 708.237101 86.22318 
L 708.675631 83.598445 
L 709.260338 79.706413 
L 709.406515 79.2762 
L 709.552692 79.244144 
L 709.698868 79.608249 
L 709.991222 81.228996 
L 710.722105 85.673884 
L 711.160636 86.947571 
L 711.452989 87.243933 
L 711.745342 87.209925 
L 712.037696 86.950072 
L 712.476226 86.144615 
L 712.914756 84.761876 
L 713.353286 82.79165 
L 713.791816 79.693124 
L 714.230347 74.788401 
L 714.815053 64.942343 
L 715.39976 55.055379 
L 715.692114 53.46238 
L 715.83829 54.14283 
L 716.130644 58.317471 
L 717.007704 75.086049 
L 717.446234 79.595678 
L 717.884764 81.890951 
L 718.177118 82.616903 
L 718.469471 82.845756 
L 718.761825 82.644022 
L 719.054178 82.038709 
L 719.346532 81.0004 
L 719.785062 78.330726 
L 720.223592 73.599831 
L 720.662122 66.115546 
L 721.539182 49.981969 
L 721.685359 49.422304 
L 721.831536 50.078564 
L 722.123889 54.685464 
L 723.147126 76.674345 
L 723.585656 81.546622 
L 724.024186 84.323305 
L 724.462716 85.799722 
L 724.901247 86.482218 
L 725.1936 86.643703 
L 725.485953 86.611372 
L 725.778307 86.312625 
L 726.07066 85.665754 
L 726.363014 84.578883 
L 726.801544 81.812762 
L 727.532427 75.892933 
L 727.678604 75.575489 
L 727.824781 75.848524 
L 728.117134 77.985029 
L 728.994195 86.562171 
L 729.432725 88.777498 
L 729.871255 89.971413 
L 730.017432 93.485186 
L 781.910165 93.485186 
L 782.056341 90.193377 
L 782.787225 88.913922 
L 783.225755 87.636848 
L 783.664285 85.655593 
L 784.102815 82.474806 
L 784.979876 75.308211 
L 785.126052 74.966352 
L 785.272229 74.979029 
L 785.564583 75.968827 
L 786.149289 78.602073 
L 786.295466 78.747734 
L 786.441643 78.602883 
L 786.733996 77.43913 
L 787.46488 72.599426 
L 787.611057 72.437409 
L 787.757233 72.808338 
L 788.049587 74.882549 
L 788.634294 79.70903 
L 788.926647 80.900415 
L 789.219 81.237822 
L 789.365177 81.122096 
L 789.657531 80.28072 
L 789.949884 78.493715 
L 790.388414 73.646651 
L 791.119298 63.374996 
L 791.265474 62.721068 
L 791.411651 62.777242 
L 791.704005 64.61546 
L 792.288711 69.965507 
L 792.434888 70.542828 
L 792.581065 70.635279 
L 792.727241 70.219986 
L 793.019595 67.930642 
L 793.604302 61.784922 
L 793.750478 61.534459 
L 793.896655 62.119057 
L 794.189009 65.32221 
L 795.212246 79.593823 
L 795.650776 82.361696 
L 795.943129 83.234899 
L 796.235483 83.452247 
L 796.381659 83.311724 
L 796.674013 82.510204 
L 797.551073 78.861896 
L 797.69725 78.944101 
L 797.989603 79.930785 
L 798.57431 82.408673 
L 798.866663 82.697963 
L 799.01284 82.555664 
L 799.305194 81.771873 
L 799.743724 80.32693 
L 799.8899 80.129313 
L 800.036077 80.1477 
L 800.182254 80.384186 
L 800.474607 81.558718 
L 801.644021 88.628104 
L 802.228728 90.116409 
L 802.374905 93.485186 
L 814.507572 93.485186 
L 814.653748 90.121962 
L 815.969339 88.729015 
L 816.407869 87.860682 
L 817.138753 86.211612 
L 817.284929 86.207882 
L 817.577283 86.592704 
L 818.015813 87.236394 
L 818.308166 87.371728 
L 818.60052 87.24099 
L 819.185227 86.549086 
L 819.623757 86.099962 
L 819.91611 86.115588 
L 821.085524 86.591227 
L 822.547291 86.448639 
L 823.716705 85.790695 
L 824.155235 85.809523 
L 824.886118 86.087692 
L 825.324649 86.436738 
L 825.763179 87.08086 
L 827.371123 90.207991 
L 827.517299 93.485186 
L 827.809653 93.485186 
L 827.955829 90.146195 
L 829.27142 88.539355 
L 830.002303 87.919865 
L 830.440833 87.870339 
L 830.879364 88.05198 
L 833.949075 90.144089 
L 834.095251 93.485186 
L 840.81938 93.485186 
L 840.965557 90.224311 
L 841.404087 89.241083 
L 841.842617 87.555966 
L 842.281147 84.636172 
L 842.719677 79.503329 
L 843.304384 71.038039 
L 843.450561 70.528066 
L 843.596738 71.198774 
L 843.889091 75.15053 
L 844.473798 83.628717 
L 844.912328 87.08032 
L 845.350858 88.974022 
L 845.789388 90.157857 
L 845.935565 93.485186 
L 856.606465 93.485186 
L 856.752642 90.219519 
L 857.191172 89.981685 
L 857.483525 90.070788 
L 857.629702 90.190191 
L 857.775879 93.485186 
L 1131.272509 93.485186 
L 1131.272509 93.485186 
" clip-path="url(#pfec4730110)" style="fill: none; stroke: #d55e00; stroke-width: 2; stroke-linecap: square"/>
   </g>
   <g id="LineCollection_1">
    <path d="M 56.727491 190.798447 
L 56.727491 93.485186 
" clip-path="url(#pfec4730110)" style="fill: none; stroke-dasharray: 1,1.65; stroke-dashoffset: 0; stroke: #808080"/>
    <path d="M 79.823412 190.798447 
L 76.753701 93.485186 
" clip-path="url(#pfec4730110)" style="fill: none; stroke-dasharray: 1,1.65; stroke-dashoffset: 0; stroke: #808080"/>
    <path d="M 103.065509 190.798447 
L 99.995798 93.485186 
" clip-path="url(#pfec4730110)" style="fill: none; stroke-dasharray: 1,1.65; stroke-dashoffset: 0; stroke: #808080"/>
    <path d="M 126.16143 190.798447 
L 123.091719 93.485186 
" clip-path="url(#pfec4730110)" style="fill: none; stroke-dasharray: 1,1.65; stroke-dashoffset: 0; stroke: #808080"/>
    <path d="M 149.403527 190.798447 
L 146.333816 93.485186 
" clip-path="url(#pfec4730110)" style="fill: none; stroke-dasharray: 1,1.65; stroke-dashoffset: 0; stroke: #808080"/>
    <path d="M 172.499448 190.798447 
L 169.429737 93.485186 
" clip-path="url(#pfec4730110)" style="fill: none; stroke-dasharray: 1,1.65; stroke-dashoffset: 0; stroke: #808080"/>
    <path d="M 195.741545 190.798447 
L 192.671834 93.485186 
" clip-path="url(#pfec4730110)" style="fill: none; stroke-dasharray: 1,1.65; stroke-dashoffset: 0; stroke: #808080"/>
    <path d="M 218.837466 190.798447 
L 215.767755 93.485186 
" clip-path="url(#pfec4730110)" style="fill: none; stroke-dasharray: 1,1.65; stroke-dashoffset: 0; stroke: #808080"/>
    <path d="M 242.079563 190.798447 
L 239.009852 93.485186 
" clip-path="url(#pfec4730110)" style="fill: none; stroke-dasharray: 1,1.65; stroke-dashoffset: 0; stroke: #808080"/>
    <path d="M 265.175484 190.798447 
L 262.105773 93.485186 
" clip-path="url(#pfec4730110)" style="fill: none; stroke-dasharray: 1,1.65; stroke-dashoffset: 0; stroke: #808080"/>
    <path d="M 288.417581 190.798447 
L 285.34787 93.485186 
" clip-path="url(#pfec4730110)" style="fill: none; stroke-dasharray: 1,1.65; stroke-dashoffset: 0; stroke: #808080"/>
    <path d="M 311.513502 190.798447 
L 308.443791 93.485186 
" clip-path="url(#pfec4730110)" style="fill: none; stroke-dasharray: 1,1.65; stroke-dashoffset: 0; stroke: #808080"/>
    <path d="M 334.755599 190.798447 
L 331.685888 93.485186 
" clip-path="url(#pfec4730110)" style="fill: none; stroke-dasharray: 1,1.65; stroke-dashoffset: 0; stroke: #808080"/>
    <path d="M 357.85152 190.798447 
L 354.781809 93.485186 
" clip-path="url(#pfec4730110)" style="fill: none; stroke-dasharray: 1,1.65; stroke-dashoffset: 0; stroke: #808080"/>
    <path d="M 379.19332 190.798447 
L 376.415963 93.485186 
" clip-path="url(#pfec4730110)" style="fill: none; stroke-dasharray: 1,1.65; stroke-dashoffset: 0; stroke: #808080"/>
    <path d="M 400.97365 184.690955 
L 395.565112 87.395841 
" clip-path="url(#pfec4730110)" style="fill: none; stroke-dasharray: 1,1.65; stroke-dashoffset: 0; stroke: #808080"/>
    <path d="M 416.322205 186.866992 
L 411.64455 89.572317 
" clip-path="url(#pfec4730110)" style="fill: none; stroke-dasharray: 1,1.65; stroke-dashoffset: 0; stroke: #808080"/>
    <path d="M 436.933122 190.798447 
L 434.886648 93.485186 
" clip-path="url(#pfec4730110)" style="fill: none; stroke-dasharray: 1,1.65; stroke-dashoffset: 0; stroke: #808080"/>
    <path d="M 460.029042 190.798447 
L 457.982568 93.485186 
" clip-path="url(#pfec4730110)" style="fill: none; stroke-dasharray: 1,1.65; stroke-dashoffset: 0; stroke: #808080"/>
    <path d="M 483.27114 190.798447 
L 481.224666 93.485186 
" clip-path="url(#pfec4730110)" style="fill: none; stroke-dasharray: 1,1.65; stroke-dashoffset: 0; stroke: #808080"/>
    <path d="M 506.36706 190.798447 
L 504.320586 93.485186 
" clip-path="url(#pfec4730110)" style="fill: none; stroke-dasharray: 1,1.65; stroke-dashoffset: 0; stroke: #808080"/>
    <path d="M 529.609158 190.798447 
L 527.562684 93.485186 
" clip-path="url(#pfec4730110)" style="fill: none; stroke-dasharray: 1,1.65; stroke-dashoffset: 0; stroke: #808080"/>
    <path d="M 552.120372 186.511738 
L 550.512428 89.169923 
" clip-path="url(#pfec4730110)" style="fill: none; stroke-dasharray: 1,1.65; stroke-dashoffset: 0; stroke: #808080"/>
    <path d="M 569.515401 177.908914 
L 568.930694 80.18886 
" clip-path="url(#pfec4730110)" style="fill: none; stroke-dasharray: 1,1.65; stroke-dashoffset: 0; stroke: #808080"/>
    <path d="M 587.495136 190.798447 
L 588.372197 93.485186 
" clip-path="url(#pfec4730110)" style="fill: none; stroke-dasharray: 1,1.65; stroke-dashoffset: 0; stroke: #808080"/>
    <path d="M 610.737234 190.798447 
L 611.614294 93.485186 
" clip-path="url(#pfec4730110)" style="fill: none; stroke-dasharray: 1,1.65; stroke-dashoffset: 0; stroke: #808080"/>
    <path d="M 633.833154 190.798447 
L 634.710215 93.485186 
" clip-path="url(#pfec4730110)" style="fill: none; stroke-dasharray: 1,1.65; stroke-dashoffset: 0; stroke: #808080"/>
    <path d="M 657.075252 190.798447 
L 657.952312 93.485186 
" clip-path="url(#pfec4730110)" style="fill: none; stroke-dasharray: 1,1.65; stroke-dashoffset: 0; stroke: #808080"/>
    <path d="M 680.171172 190.798447 
L 681.048233 93.485186 
" clip-path="url(#pfec4730110)" style="fill: none; stroke-dasharray: 1,1.65; stroke-dashoffset: 0; stroke: #808080"/>
    <path d="M 702.097679 190.798447 
L 703.8518 93.485186 
" clip-path="url(#pfec4730110)" style="fill: none; stroke-dasharray: 1,1.65; stroke-dashoffset: 0; stroke: #808080"/>
    <path d="M 722.270066 183.058243 
L 724.462716 85.799722 
" clip-path="url(#pfec4730110)" style="fill: none; stroke-dasharray: 1,1.65; stroke-dashoffset: 0; stroke: #808080"/>
    <path d="M 744.050396 190.798447 
L 745.365986 93.485186 
" clip-path="url(#pfec4730110)" style="fill: none; stroke-dasharray: 1,1.65; stroke-dashoffset: 0; stroke: #808080"/>
    <path d="M 767.146317 190.798447 
L 768.461907 93.485186 
" clip-path="url(#pfec4730110)" style="fill: none; stroke-dasharray: 1,1.65; stroke-dashoffset: 0; stroke: #808080"/>
    <path d="M 789.365177 165.128129 
L 790.826944 66.734413 
" clip-path="url(#pfec4730110)" style="fill: none; stroke-dasharray: 1,1.65; stroke-dashoffset: 0; stroke: #808080"/>
    <path d="M 808.660503 190.798447 
L 806.029322 93.485186 
" clip-path="url(#pfec4730110)" style="fill: none; stroke-dasharray: 1,1.65; stroke-dashoffset: 0; stroke: #808080"/>
    <path d="M 817.577283 187.168579 
L 828.979066 88.864309 
" clip-path="url(#pfec4730110)" style="fill: none; stroke-dasharray: 1,1.65; stroke-dashoffset: 0; stroke: #808080"/>
    <path d="M 836.141725 190.798447 
L 834.095251 93.485186 
" clip-path="url(#pfec4730110)" style="fill: none; stroke-dasharray: 1,1.65; stroke-dashoffset: 0; stroke: #808080"/>
    <path d="M 854.121461 190.798447 
L 853.098224 93.485186 
" clip-path="url(#pfec4730110)" style="fill: none; stroke-dasharray: 1,1.65; stroke-dashoffset: 0; stroke: #808080"/>
    <path d="M 876.340321 190.798447 
L 876.340321 93.485186 
" clip-path="url(#pfec4730110)" style="fill: none; stroke-dasharray: 1,1.65; stroke-dashoffset: 0; stroke: #808080"/>
    <path d="M 899.436242 190.798447 
L 899.436242 93.485186 
" clip-path="url(#pfec4730110)" style="fill: none; stroke-dasharray: 1,1.65; stroke-dashoffset: 0; stroke: #808080"/>
    <path d="M 922.678339 190.798447 
L 922.678339 93.485186 
" clip-path="url(#pfec4730110)" style="fill: none; stroke-dasharray: 1,1.65; stroke-dashoffset: 0; stroke: #808080"/>
    <path d="M 945.77426 190.798447 
L 945.77426 93.485186 
" clip-path="url(#pfec4730110)" style="fill: none; stroke-dasharray: 1,1.65; stroke-dashoffset: 0; stroke: #808080"/>
    <path d="M 969.016358 190.798447 
L 969.016358 93.485186 
" clip-path="url(#pfec4730110)" style="fill: none; stroke-dasharray: 1,1.65; stroke-dashoffset: 0; stroke: #808080"/>
    <path d="M 992.112278 190.798447 
L 992.112278 93.485186 
" clip-path="url(#pfec4730110)" style="fill: none; stroke-dasharray: 1,1.65; stroke-dashoffset: 0; stroke: #808080"/>
    <path d="M 1015.354376 190.798447 
L 1015.354376 93.485186 
" clip-path="url(#pfec4730110)" style="fill: none; stroke-dasharray: 1,1.65; stroke-dashoffset: 0; stroke: #808080"/>
    <path d="M 1038.450296 190.798447 
L 1038.450296 93.485186 
" clip-path="url(#pfec4730110)" style="fill: none; stroke-dasharray: 1,1.65; stroke-dashoffset: 0; stroke: #808080"/>
    <path d="M 1061.692394 190.798447 
L 1061.692394 93.485186 
" clip-path="url(#pfec4730110)" style="fill: none; stroke-dasharray: 1,1.65; stroke-dashoffset: 0; stroke: #808080"/>
    <path d="M 1084.788314 190.798447 
L 1084.788314 93.485186 
" clip-path="url(#pfec4730110)" style="fill: none; stroke-dasharray: 1,1.65; stroke-dashoffset: 0; stroke: #808080"/>
    <path d="M 1108.030412 190.798447 
L 1108.030412 93.485186 
" clip-path="url(#pfec4730110)" style="fill: none; stroke-dasharray: 1,1.65; stroke-dashoffset: 0; stroke: #808080"/>
    <path d="M 1131.272509 190.798447 
L 1131.272509 93.485186 
" clip-path="url(#pfec4730110)" style="fill: none; stroke-dasharray: 1,1.65; stroke-dashoffset: 0; stroke: #808080"/>
   </g>
   <g id="patch_3">
    <path d="M 3.00024 198.907885 
L 3.00024 20.50024 
" style="fill: none; stroke: #000000; stroke-width: 2; stroke-linejoin: miter; stroke-linecap: square"/>
   </g>
   <g id="patch_4">
    <path d="M 1184.99976 198.907885 
L 1184.99976 20.50024 
" style="fill: none; stroke: #000000; stroke-width: 2; stroke-linejoin: miter; stroke-linecap: square"/>
   </g>
   <g id="patch_5">
    <path d="M 3.00024 198.907885 
L 1184.99976 198.907885 
" style="fill: none; stroke: #000000; stroke-width: 2; stroke-linejoin: miter; stroke-linecap: square"/>
   </g>
   <g id="patch_6">
    <path d="M 3.00024 20.50024 
L 1184.99976 20.50024 
" style="fill: none; stroke: #000000; stroke-width: 2; stroke-linejoin: miter; stroke-linecap: square"/>
   </g>
   <g id="text_14">
    <!-- Distance between spectra: 19.3 -->
    <g transform="translate(475.29125 14.50024) scale(0.16 -0.16)">
     <defs>
      <path id="Arial-BoldMT-44" d="M 463 4581 
L 2153 4581 
Q 2725 4581 3025 4494 
Q 3428 4375 3715 4072 
Q 4003 3769 4153 3330 
Q 4303 2891 4303 2247 
Q 4303 1681 4163 1272 
Q 3991 772 3672 463 
Q 3431 228 3022 97 
Q 2716 0 2203 0 
L 463 0 
L 463 4581 
z
M 1388 3806 
L 1388 772 
L 2078 772 
Q 2466 772 2638 816 
Q 2863 872 3011 1006 
Q 3159 1141 3253 1448 
Q 3347 1756 3347 2288 
Q 3347 2819 3253 3103 
Q 3159 3388 2990 3547 
Q 2822 3706 2563 3763 
Q 2369 3806 1803 3806 
L 1388 3806 
z
" transform="scale(0.015625)"/>
      <path id="Arial-BoldMT-6e" d="M 3478 0 
L 2600 0 
L 2600 1694 
Q 2600 2231 2544 2389 
Q 2488 2547 2361 2634 
Q 2234 2722 2056 2722 
Q 1828 2722 1647 2597 
Q 1466 2472 1398 2265 
Q 1331 2059 1331 1503 
L 1331 0 
L 453 0 
L 453 3319 
L 1269 3319 
L 1269 2831 
Q 1703 3394 2363 3394 
Q 2653 3394 2893 3289 
Q 3134 3184 3257 3021 
Q 3381 2859 3429 2653 
Q 3478 2447 3478 2063 
L 3478 0 
z
" transform="scale(0.015625)"/>
      <path id="Arial-BoldMT-62" d="M 422 0 
L 422 4581 
L 1300 4581 
L 1300 2931 
Q 1706 3394 2263 3394 
Q 2869 3394 3266 2955 
Q 3663 2516 3663 1694 
Q 3663 844 3258 384 
Q 2853 -75 2275 -75 
Q 1991 -75 1714 67 
Q 1438 209 1238 488 
L 1238 0 
L 422 0 
z
M 1294 1731 
Q 1294 1216 1456 969 
Q 1684 619 2063 619 
Q 2353 619 2558 867 
Q 2763 1116 2763 1650 
Q 2763 2219 2556 2470 
Q 2350 2722 2028 2722 
Q 1713 2722 1503 2476 
Q 1294 2231 1294 1731 
z
" transform="scale(0.015625)"/>
      <path id="Arial-BoldMT-77" d="M 1078 0 
L 28 3319 
L 881 3319 
L 1503 1144 
L 2075 3319 
L 2922 3319 
L 3475 1144 
L 4109 3319 
L 4975 3319 
L 3909 0 
L 3066 0 
L 2494 2134 
L 1931 0 
L 1078 0 
z
" transform="scale(0.015625)"/>
      <path id="Arial-BoldMT-72" d="M 1300 0 
L 422 0 
L 422 3319 
L 1238 3319 
L 1238 2847 
Q 1447 3181 1614 3287 
Q 1781 3394 1994 3394 
Q 2294 3394 2572 3228 
L 2300 2463 
Q 2078 2606 1888 2606 
Q 1703 2606 1575 2504 
Q 1447 2403 1373 2137 
Q 1300 1872 1300 1025 
L 1300 0 
z
" transform="scale(0.015625)"/>
      <path id="Arial-BoldMT-3a" d="M 628 2441 
L 628 3319 
L 1506 3319 
L 1506 2441 
L 628 2441 
z
M 628 0 
L 628 878 
L 1506 878 
L 1506 0 
L 628 0 
z
" transform="scale(0.015625)"/>
     </defs>
     <use xlink:href="#Arial-BoldMT-44"/>
     <use xlink:href="#Arial-BoldMT-69" x="72.216797"/>
     <use xlink:href="#Arial-BoldMT-73" x="100"/>
     <use xlink:href="#Arial-BoldMT-74" x="155.615234"/>
     <use xlink:href="#Arial-BoldMT-61" x="188.916016"/>
     <use xlink:href="#Arial-BoldMT-6e" x="244.53125"/>
     <use xlink:href="#Arial-BoldMT-63" x="305.615234"/>
     <use xlink:href="#Arial-BoldMT-65" x="361.230469"/>
     <use xlink:href="#Arial-BoldMT-20" x="416.845703"/>
     <use xlink:href="#Arial-BoldMT-62" x="444.628906"/>
     <use xlink:href="#Arial-BoldMT-65" x="505.712891"/>
     <use xlink:href="#Arial-BoldMT-74" x="561.328125"/>
     <use xlink:href="#Arial-BoldMT-77" x="594.628906"/>
     <use xlink:href="#Arial-BoldMT-65" x="672.412109"/>
     <use xlink:href="#Arial-BoldMT-65" x="728.027344"/>
     <use xlink:href="#Arial-BoldMT-6e" x="783.642578"/>
     <use xlink:href="#Arial-BoldMT-20" x="844.726562"/>
     <use xlink:href="#Arial-BoldMT-73" x="872.509766"/>
     <use xlink:href="#Arial-BoldMT-70" x="928.125"/>
     <use xlink:href="#Arial-BoldMT-65" x="989.208984"/>
     <use xlink:href="#Arial-BoldMT-63" x="1044.824219"/>
     <use xlink:href="#Arial-BoldMT-74" x="1100.439453"/>
     <use xlink:href="#Arial-BoldMT-72" x="1133.740234"/>
     <use xlink:href="#Arial-BoldMT-61" x="1172.65625"/>
     <use xlink:href="#Arial-BoldMT-3a" x="1228.271484"/>
     <use xlink:href="#Arial-BoldMT-20" x="1261.572266"/>
     <use xlink:href="#Arial-BoldMT-31" x="1289.355469"/>
     <use xlink:href="#Arial-BoldMT-39" x="1344.970703"/>
     <use xlink:href="#Arial-BoldMT-2e" x="1400.585938"/>
     <use xlink:href="#Arial-BoldMT-33" x="1428.369141"/>
    </g>
   </g>
  </g>
  <g id="axes_2">
   <g id="matplotlib.axis_3"/>
   <g id="patch_7">
    <path d="M 3.00024 198.907885 
L 3.00024 20.50024 
" style="fill: none; stroke: #000000; stroke-width: 2; stroke-linejoin: miter; stroke-linecap: square"/>
   </g>
   <g id="patch_8">
    <path d="M 1184.99976 198.907885 
L 1184.99976 20.50024 
" style="fill: none; stroke: #000000; stroke-width: 2; stroke-linejoin: miter; stroke-linecap: square"/>
   </g>
   <g id="patch_9">
    <path d="M 3.00024 198.907885 
L 1184.99976 198.907885 
" style="fill: none; stroke: #000000; stroke-width: 2; stroke-linejoin: miter; stroke-linecap: square"/>
   </g>
   <g id="patch_10">
    <path d="M 3.00024 20.50024 
L 1184.99976 20.50024 
" style="fill: none; stroke: #000000; stroke-width: 2; stroke-linejoin: miter; stroke-linecap: square"/>
   </g>
  </g>
 </g>
 <defs>
  <clipPath id="pfec4730110">
   <rect x="3.00024" y="20.50024" width="1181.99952" height="178.407645"/>
  </clipPath>
 </defs>
</svg>
