<?xml version="1.0" encoding="utf-8" standalone="no"?>
<!DOCTYPE svg PUBLIC "-//W3C//DTD SVG 1.1//EN"
  "http://www.w3.org/Graphics/SVG/1.1/DTD/svg11.dtd">
<svg xmlns:xlink="http://www.w3.org/1999/xlink" width="1188pt" height="252pt" viewBox="0 0 1188 252" xmlns="http://www.w3.org/2000/svg" version="1.1">
 <metadata>
  <rdf:RDF xmlns:dc="http://purl.org/dc/elements/1.1/" xmlns:cc="http://creativecommons.org/ns#" xmlns:rdf="http://www.w3.org/1999/02/22-rdf-syntax-ns#">
   <cc:Work>
    <dc:type rdf:resource="http://purl.org/dc/dcmitype/StillImage"/>
    <dc:date>2024-05-14T22:48:41.321235</dc:date>
    <dc:format>image/svg+xml</dc:format>
    <dc:creator>
     <cc:Agent>
      <dc:title>Matplotlib v3.8.0, https://matplotlib.org/</dc:title>
     </cc:Agent>
    </dc:creator>
   </cc:Work>
  </rdf:RDF>
 </metadata>
 <defs>
  <style type="text/css">*{stroke-linejoin: round; stroke-linecap: butt}</style>
 </defs>
 <g id="figure_1">
  <g id="patch_1">
   <path d="M 0 252 
L 1188 252 
L 1188 0 
L 0 0 
z
" style="fill: #ffffff"/>
  </g>
  <g id="axes_1">
   <g id="patch_2">
    <path d="M 61.69274 199.12726 
L 1184.99976 199.12726 
L 1184.99976 3.00024 
L 61.69274 3.00024 
z
" style="fill: #ffffff"/>
   </g>
   <g id="PolyCollection_1">
    <path d="M 491.726441 183.445872 
L 491.726441 183.328705 
L 492.010084 183.328705 
L 492.293768 183.328705 
L 492.57741 183.328705 
L 492.861094 183.328705 
L 493.144737 183.328705 
L 493.42842 183.328705 
L 493.712063 183.328705 
L 493.995746 183.328705 
L 494.279389 183.328705 
L 494.563073 183.328705 
L 494.846715 183.328705 
L 495.130399 183.328705 
L 495.414042 183.328705 
L 495.697725 183.328705 
L 495.981408 183.328705 
L 496.265051 183.328705 
L 496.548735 183.328705 
L 496.832377 183.328705 
L 497.116061 183.328705 
L 497.399704 183.328705 
L 497.683387 183.328705 
L 497.96703 183.328705 
L 498.250713 183.328705 
L 498.534356 183.328705 
L 498.81804 183.328705 
L 499.101682 183.328705 
L 499.385366 183.328705 
L 499.669009 183.328705 
L 499.952692 183.328705 
L 500.236335 183.328705 
L 500.520018 183.328705 
L 500.803661 183.328705 
L 501.087345 183.328705 
L 501.370987 183.328705 
L 501.654671 183.328705 
L 501.938314 183.328705 
L 502.221997 183.328705 
L 502.50564 183.328705 
L 502.789323 183.328705 
L 503.072966 183.328705 
L 503.356649 183.328705 
L 503.640292 183.328705 
L 503.923976 183.328705 
L 504.207619 183.328705 
L 504.491302 183.328705 
L 504.774945 183.328705 
L 505.058628 183.328705 
L 505.342271 183.328705 
L 505.625954 183.328705 
L 505.909597 183.328705 
L 506.193281 183.328705 
L 506.476923 183.328705 
L 506.760607 183.328705 
L 507.04425 183.328705 
L 507.327933 183.328705 
L 507.611576 183.328705 
L 507.895259 183.328705 
L 508.178902 183.328705 
L 508.462586 183.328705 
L 508.746228 183.328705 
L 509.029912 183.328705 
L 509.313555 183.328705 
L 509.597238 183.328705 
L 509.880881 183.328705 
L 510.164564 183.328705 
L 510.448207 183.328705 
L 510.731891 183.328705 
L 511.015533 183.328705 
L 511.299217 183.328705 
L 511.58286 183.328705 
L 511.866543 183.328705 
L 512.150186 183.328705 
L 512.433869 183.328705 
L 512.717512 183.328705 
L 513.001196 183.328705 
L 513.284838 183.328705 
L 513.568522 183.328705 
L 513.852165 183.328705 
L 514.135848 183.328705 
L 514.419491 183.328705 
L 514.703174 183.328705 
L 514.986817 183.328705 
L 515.2705 183.328705 
L 515.554143 183.328705 
L 515.837827 183.328705 
L 516.12147 183.328705 
L 516.405153 183.328705 
L 516.688796 183.328705 
L 516.972479 183.328705 
L 517.256163 183.328705 
L 517.539805 183.328705 
L 517.823489 183.328705 
L 518.107132 183.328705 
L 518.390815 183.328705 
L 518.674458 183.328705 
L 518.958141 183.328705 
L 519.241784 183.328705 
L 519.525468 183.328705 
L 519.80911 183.328705 
L 520.092794 183.328705 
L 520.376437 183.328705 
L 520.66012 183.328705 
L 520.943763 183.328705 
L 521.227446 183.328705 
L 521.511089 183.328705 
L 521.794772 183.328705 
L 522.078415 183.328705 
L 522.362099 183.328705 
L 522.645742 183.328705 
L 522.929425 183.328705 
L 523.213068 183.328705 
L 523.496751 183.328705 
L 523.780394 183.328705 
L 524.064077 183.328705 
L 524.34772 183.328705 
L 524.631404 183.328705 
L 524.915046 183.328705 
L 525.19873 183.328705 
L 525.482373 183.328705 
L 525.766056 183.328705 
L 526.049699 183.328705 
L 526.333382 183.328705 
L 526.617025 183.328705 
L 526.900709 183.328705 
L 527.184351 183.328705 
L 527.468035 183.328705 
L 527.751678 183.328705 
L 528.035361 183.328705 
L 528.319004 183.328705 
L 528.602687 183.328705 
L 528.88633 183.328705 
L 529.170014 183.328705 
L 529.453656 183.328705 
L 529.73734 183.328705 
L 530.020983 183.328705 
L 530.304666 183.328705 
L 530.588309 183.328705 
L 530.871992 183.328705 
L 531.155635 183.328705 
L 531.439318 183.328705 
L 531.722961 183.328705 
L 532.006645 183.328705 
L 532.290288 183.328705 
L 532.573971 183.328705 
L 532.857614 183.328705 
L 533.141297 183.328705 
L 533.42494 183.328705 
L 533.708623 183.328705 
L 533.992266 183.328705 
L 534.27595 183.328705 
L 534.559593 183.328705 
L 534.843276 183.328705 
L 535.126919 183.328705 
L 535.410602 183.328705 
L 535.694245 183.328705 
L 535.977928 183.328705 
L 536.261571 183.328705 
L 536.545255 183.328705 
L 536.828897 183.328705 
L 537.112581 183.328705 
L 537.396224 183.328705 
L 537.679907 183.328705 
L 537.96355 183.328705 
L 538.247233 183.328705 
L 538.530917 183.328705 
L 538.81456 183.328705 
L 539.098243 183.328705 
L 539.381886 183.328705 
L 539.665569 183.328705 
L 539.949212 183.328705 
L 540.232895 183.328705 
L 540.516538 183.328705 
L 540.800222 183.328705 
L 541.083865 183.328705 
L 541.367548 183.328705 
L 541.651191 183.328705 
L 541.934874 183.328705 
L 542.218517 183.328705 
L 542.5022 183.328705 
L 542.785843 183.328705 
L 543.069527 183.328705 
L 543.353169 183.328705 
L 543.636853 183.328705 
L 543.920496 183.328705 
L 544.204179 183.328705 
L 544.487822 183.328705 
L 544.771505 183.328705 
L 545.055148 183.328705 
L 545.338832 183.328705 
L 545.622474 183.328705 
L 545.906158 183.328705 
L 546.189801 183.328705 
L 546.473484 183.328705 
L 546.757127 183.328705 
L 547.04081 183.328705 
L 547.324453 183.328705 
L 547.608137 183.328705 
L 547.891779 183.328705 
L 548.175463 183.328705 
L 548.459106 183.328705 
L 548.742789 183.328705 
L 549.026432 183.328705 
L 549.310115 183.328705 
L 549.593758 183.328705 
L 549.877441 183.328705 
L 550.161084 183.328705 
L 550.444768 183.328705 
L 550.728411 183.328705 
L 551.012094 183.328705 
L 551.295737 183.328705 
L 551.57942 183.328705 
L 551.863063 183.328705 
L 552.146746 183.328705 
L 552.430389 183.328705 
L 552.714073 183.328705 
L 552.997715 183.328705 
L 553.281399 183.328705 
L 553.565042 183.328705 
L 553.848725 183.328705 
L 554.132368 183.328705 
L 554.416051 183.328705 
L 554.699694 183.328705 
L 554.983378 183.328705 
L 555.26702 183.328705 
L 555.550704 183.328705 
L 555.834347 183.328705 
L 556.11803 183.328705 
L 556.401673 183.328705 
L 556.685356 183.328705 
L 556.968999 183.328705 
L 557.252683 183.328705 
L 557.536325 183.328705 
L 557.820009 183.328705 
L 558.103652 183.328705 
L 558.387335 183.328705 
L 558.670978 183.328705 
L 558.954661 183.328705 
L 559.238304 183.328705 
L 559.521988 183.328705 
L 559.805671 183.328705 
L 560.089314 183.328705 
L 560.372997 183.328705 
L 560.65664 183.328705 
L 560.940323 183.328705 
L 561.223966 183.328705 
L 561.50765 183.328705 
L 561.791292 183.328705 
L 562.074976 183.328705 
L 562.358619 183.328705 
L 562.642302 183.328705 
L 562.925945 183.328705 
L 563.209628 183.328705 
L 563.493271 183.328705 
L 563.776955 183.328705 
L 564.060597 183.328705 
L 564.344281 183.328705 
L 564.627924 183.328705 
L 564.911607 183.328705 
L 565.19525 183.328705 
L 565.478933 183.328705 
L 565.762576 183.328705 
L 566.04626 183.328705 
L 566.329902 183.328705 
L 566.613586 183.328705 
L 566.897229 183.328705 
L 567.180912 183.328705 
L 567.464555 183.328705 
L 567.748238 183.328705 
L 568.031881 183.328705 
L 568.315564 183.328705 
L 568.599207 183.328705 
L 568.882891 183.328705 
L 569.166534 183.328705 
L 569.450217 183.328705 
L 569.73386 183.328705 
L 570.017543 183.328705 
L 570.301186 183.328705 
L 570.584869 183.328705 
L 570.868512 183.328705 
L 571.152196 183.328705 
L 571.435838 183.328705 
L 571.719522 183.328705 
L 572.003165 183.328705 
L 572.286848 183.328705 
L 572.570491 183.328705 
L 572.854174 183.328705 
L 573.137817 183.328705 
L 573.421501 183.328705 
L 573.705143 183.328705 
L 573.988827 183.328705 
L 574.27247 183.328705 
L 574.556153 183.328705 
L 574.839796 183.328705 
L 575.123479 183.328705 
L 575.407122 183.328705 
L 575.690806 183.328705 
L 575.974448 183.328705 
L 576.258132 183.328705 
L 576.541775 183.328705 
L 576.825458 183.328705 
L 577.109101 183.328705 
L 577.392784 183.328705 
L 577.676427 183.328705 
L 577.96011 183.328705 
L 578.243753 183.328705 
L 578.527437 183.328705 
L 578.81108 183.328705 
L 579.094763 183.328705 
L 579.378406 183.328705 
L 579.662089 183.328705 
L 579.945732 183.328705 
L 580.229415 183.328705 
L 580.513058 183.328705 
L 580.796742 183.328705 
L 581.080425 183.328705 
L 581.364068 183.328705 
L 581.647751 183.328705 
L 581.931394 183.328705 
L 582.215078 183.328705 
L 582.49872 183.328705 
L 582.782404 183.328705 
L 583.066047 183.328705 
L 583.34973 183.328705 
L 583.633373 183.328705 
L 583.917056 183.328705 
L 584.200699 183.328705 
L 584.484382 183.328705 
L 584.768025 183.328705 
L 585.051709 183.328705 
L 585.335352 183.328705 
L 585.619035 183.328705 
L 585.902678 183.328705 
L 586.186361 183.328705 
L 586.470004 183.328705 
L 586.753687 183.328705 
L 587.03733 183.328705 
L 587.321014 183.328705 
L 587.604657 183.328705 
L 587.88834 183.328705 
L 588.171983 183.328705 
L 588.455666 183.328705 
L 588.739309 183.328705 
L 589.022992 183.328705 
L 589.306635 183.328705 
L 589.590319 183.328705 
L 589.873961 183.328705 
L 590.157645 183.328705 
L 590.441288 183.328705 
L 590.724971 183.328705 
L 591.008614 183.328705 
L 591.292297 183.328705 
L 591.57594 183.328705 
L 591.859624 183.328705 
L 592.143266 183.328705 
L 592.42695 183.328705 
L 592.710593 183.328705 
L 592.994276 183.328705 
L 593.277919 183.328705 
L 593.561602 183.328705 
L 593.845245 183.328705 
L 594.128929 183.328705 
L 594.412571 183.328705 
L 594.696255 183.328705 
L 594.696255 183.319581 
L 594.696255 183.319581 
L 594.412571 183.306694 
L 594.128929 183.294205 
L 593.845245 183.282065 
L 593.561602 183.270898 
L 593.277919 183.260067 
L 592.994276 183.249454 
L 592.710593 183.239007 
L 592.42695 183.229505 
L 592.143266 183.219907 
L 591.859624 183.210839 
L 591.57594 183.202378 
L 591.292297 183.195028 
L 591.008614 183.188021 
L 590.724971 183.182097 
L 590.441288 183.176746 
L 590.157645 183.171925 
L 589.873961 183.167376 
L 589.590319 183.163266 
L 589.306635 183.159152 
L 589.022992 183.155134 
L 588.739309 183.150958 
L 588.455666 183.146475 
L 588.171983 183.141078 
L 587.88834 183.135135 
L 587.604657 183.127951 
L 587.321014 183.120138 
L 587.03733 183.111412 
L 586.753687 183.102044 
L 586.470004 183.092181 
L 586.186361 183.082374 
L 585.902678 183.07147 
L 585.619035 183.060304 
L 585.335352 183.049419 
L 585.051709 183.038134 
L 584.768025 183.026381 
L 584.484382 183.015338 
L 584.200699 183.004491 
L 583.917056 182.992993 
L 583.633373 182.981945 
L 583.34973 182.971121 
L 583.066047 182.96007 
L 582.782404 182.948945 
L 582.49872 182.93835 
L 582.215078 182.92732 
L 581.931394 182.915856 
L 581.647751 182.904493 
L 581.364068 182.892829 
L 581.080425 182.881293 
L 580.796742 182.87002 
L 580.513058 182.859393 
L 580.229415 182.848335 
L 579.945732 182.837568 
L 579.662089 182.826535 
L 579.378406 182.815357 
L 579.094763 182.803553 
L 578.81108 182.792113 
L 578.527437 182.780827 
L 578.243753 182.769474 
L 577.96011 182.757614 
L 577.676427 182.746506 
L 577.392784 182.735167 
L 577.109101 182.723347 
L 576.825458 182.711383 
L 576.541775 182.700103 
L 576.258132 182.688472 
L 575.974448 182.677095 
L 575.690806 182.666093 
L 575.407122 182.655756 
L 575.123479 182.645673 
L 574.839796 182.635182 
L 574.556153 182.625433 
L 574.27247 182.615954 
L 573.988827 182.60653 
L 573.705143 182.596572 
L 573.421501 182.587801 
L 573.137817 182.578492 
L 572.854174 182.569495 
L 572.570491 182.560557 
L 572.286848 182.553048 
L 572.003165 182.545231 
L 571.719522 182.537903 
L 571.435838 182.530605 
L 571.152196 182.523475 
L 570.868512 182.515574 
L 570.584869 182.507742 
L 570.301186 182.499833 
L 570.017543 182.491825 
L 569.73386 182.483465 
L 569.450217 182.475148 
L 569.166534 182.466814 
L 568.882891 182.458095 
L 568.599207 182.449162 
L 568.315564 182.44111 
L 568.031881 182.432713 
L 567.748238 182.423661 
L 567.464555 182.414785 
L 567.180912 182.406327 
L 566.897229 182.396411 
L 566.613586 182.386769 
L 566.329902 182.378278 
L 566.04626 182.370369 
L 565.762576 182.362353 
L 565.478933 182.355287 
L 565.19525 182.348711 
L 564.911607 182.341756 
L 564.627924 182.334312 
L 564.344281 182.326854 
L 564.060597 182.319193 
L 563.776955 182.311484 
L 563.493271 182.303657 
L 563.209628 182.295987 
L 562.925945 182.288805 
L 562.642302 182.281994 
L 562.358619 182.274995 
L 562.074976 182.268276 
L 561.791292 182.262037 
L 561.50765 182.255269 
L 561.223966 182.248026 
L 560.940323 182.241045 
L 560.65664 182.234064 
L 560.372997 182.226923 
L 560.089314 182.220157 
L 559.805671 182.214166 
L 559.521988 182.208283 
L 559.238304 182.202322 
L 558.954661 182.196046 
L 558.670978 182.19002 
L 558.387335 182.183892 
L 558.103652 182.177741 
L 557.820009 182.171629 
L 557.536325 182.166146 
L 557.252683 182.160576 
L 556.968999 182.155305 
L 556.685356 182.14987 
L 556.401673 182.14501 
L 556.11803 182.139993 
L 555.834347 182.134944 
L 555.550704 182.129678 
L 555.26702 182.125228 
L 554.983378 182.120182 
L 554.699694 182.115568 
L 554.416051 182.111285 
L 554.132368 182.106949 
L 553.848725 182.10232 
L 553.565042 182.098546 
L 553.281399 182.094814 
L 552.997715 182.090875 
L 552.714073 182.087565 
L 552.430389 182.084089 
L 552.146746 182.080597 
L 551.863063 182.077298 
L 551.57942 182.074459 
L 551.295737 182.071834 
L 551.012094 182.069752 
L 550.728411 182.067284 
L 550.444768 182.064938 
L 550.161084 182.062713 
L 549.877441 182.060445 
L 549.593758 182.058289 
L 549.310115 182.056623 
L 549.026432 182.055069 
L 548.742789 182.053446 
L 548.459106 182.051784 
L 548.175463 182.050145 
L 547.891779 182.048547 
L 547.608137 182.04682 
L 547.324453 182.045216 
L 547.04081 182.043917 
L 546.757127 182.042437 
L 546.473484 182.041264 
L 546.189801 182.040838 
L 545.906158 182.040841 
L 545.622474 182.040774 
L 545.338832 182.04125 
L 545.055148 182.041866 
L 544.771505 182.042246 
L 544.487822 182.042765 
L 544.204179 182.043408 
L 543.920496 182.04411 
L 543.636853 182.04495 
L 543.353169 182.045373 
L 543.069527 182.045297 
L 542.785843 182.045874 
L 542.5022 182.046376 
L 542.218517 182.046385 
L 541.934874 182.047245 
L 541.651191 182.048918 
L 541.367548 182.049935 
L 541.083865 182.051329 
L 540.800222 182.052819 
L 540.516538 182.053884 
L 540.232895 182.054799 
L 539.949212 182.055993 
L 539.665569 182.056956 
L 539.381886 182.059019 
L 539.098243 182.060824 
L 538.81456 182.062347 
L 538.530917 182.064129 
L 538.247233 182.066339 
L 537.96355 182.067957 
L 537.679907 182.070863 
L 537.396224 182.074911 
L 537.112581 182.079295 
L 536.828897 182.084023 
L 536.545255 182.089328 
L 536.261571 182.09449 
L 535.977928 182.099415 
L 535.694245 182.10458 
L 535.410602 182.109695 
L 535.126919 182.115193 
L 534.843276 182.120906 
L 534.559593 182.126294 
L 534.27595 182.13172 
L 533.992266 182.137267 
L 533.708623 182.142016 
L 533.42494 182.145877 
L 533.141297 182.149662 
L 532.857614 182.152592 
L 532.573971 182.154708 
L 532.290288 182.156648 
L 532.006645 182.158205 
L 531.722961 182.159243 
L 531.439318 182.15974 
L 531.155635 182.160267 
L 530.871992 182.159968 
L 530.588309 182.159454 
L 530.304666 182.158566 
L 530.020983 182.157357 
L 529.73734 182.155056 
L 529.453656 182.152368 
L 529.170014 182.149024 
L 528.88633 182.14482 
L 528.602687 182.140208 
L 528.319004 182.135626 
L 528.035361 182.13002 
L 527.751678 182.12371 
L 527.468035 182.116406 
L 527.184351 182.1082 
L 526.900709 182.09824 
L 526.617025 182.088057 
L 526.333382 182.076425 
L 526.049699 182.064558 
L 525.766056 182.05112 
L 525.482373 182.036831 
L 525.19873 182.021023 
L 524.915046 182.004582 
L 524.631404 181.986296 
L 524.34772 181.967356 
L 524.064077 181.947423 
L 523.780394 181.9262 
L 523.496751 181.9039 
L 523.213068 181.879913 
L 522.929425 181.854307 
L 522.645742 181.827244 
L 522.362099 181.798401 
L 522.078415 181.766992 
L 521.794772 181.733563 
L 521.511089 181.697848 
L 521.227446 181.659114 
L 520.943763 181.617462 
L 520.66012 181.5727 
L 520.376437 181.525143 
L 520.092794 181.473766 
L 519.80911 181.418288 
L 519.525468 181.358517 
L 519.241784 181.294429 
L 518.958141 181.225015 
L 518.674458 181.14994 
L 518.390815 181.069348 
L 518.107132 180.982376 
L 517.823489 180.88837 
L 517.539805 180.787635 
L 517.256163 180.678952 
L 516.972479 180.561434 
L 516.688796 180.435063 
L 516.405153 180.298708 
L 516.12147 180.150662 
L 515.837827 179.991287 
L 515.554143 179.819764 
L 515.2705 179.634382 
L 514.986817 179.434783 
L 514.703174 179.220523 
L 514.419491 178.990653 
L 514.135848 178.744949 
L 513.852165 178.483438 
L 513.568522 178.2063 
L 513.284838 177.913226 
L 513.001196 177.604531 
L 512.717512 177.279749 
L 512.433869 176.940629 
L 512.150186 176.586203 
L 511.866543 176.217507 
L 511.58286 175.835528 
L 511.299217 175.441489 
L 511.015533 175.034556 
L 510.731891 174.616785 
L 510.448207 174.189162 
L 510.164564 173.751852 
L 509.880881 173.305701 
L 509.597238 172.852057 
L 509.313555 172.391764 
L 509.029912 171.925516 
L 508.746228 171.456164 
L 508.462586 170.984684 
L 508.178902 170.5141 
L 507.895259 170.046668 
L 507.611576 169.584477 
L 507.327933 169.129311 
L 507.04425 168.684666 
L 506.760607 168.252254 
L 506.476923 167.834537 
L 506.193281 167.435886 
L 505.909597 167.058122 
L 505.625954 166.705076 
L 505.342271 166.379092 
L 505.058628 166.082119 
L 504.774945 165.814494 
L 504.491302 165.579108 
L 504.207619 165.374141 
L 503.923976 165.200577 
L 503.640292 165.060187 
L 503.356649 164.952908 
L 503.072966 164.877034 
L 502.789323 164.832223 
L 502.50564 164.817458 
L 502.221997 164.828939 
L 501.938314 164.8651 
L 501.654671 164.924486 
L 501.370987 165.006267 
L 501.087345 165.108118 
L 500.803661 165.230744 
L 500.520018 165.374023 
L 500.236335 165.538394 
L 499.952692 165.726733 
L 499.669009 165.943687 
L 499.385366 166.192337 
L 499.101682 166.478486 
L 498.81804 166.809081 
L 498.534356 167.18758 
L 498.250713 167.618951 
L 497.96703 168.107669 
L 497.683387 168.655889 
L 497.399704 169.265439 
L 497.116061 169.937223 
L 496.832377 170.667901 
L 496.548735 171.454705 
L 496.265051 172.291411 
L 495.981408 173.167579 
L 495.697725 174.072992 
L 495.414042 174.996582 
L 495.130399 175.92398 
L 494.846715 176.842213 
L 494.563073 177.738252 
L 494.279389 178.598676 
L 493.995746 179.411636 
L 493.712063 180.166975 
L 493.42842 180.855846 
L 493.144737 181.472366 
L 492.861094 182.013566 
L 492.57741 182.478238 
L 492.293768 182.868522 
L 492.010084 183.188815 
L 491.726441 183.445872 
z
" clip-path="url(#p128fbf8edc)" style="fill: #d55e00"/>
   </g>
   <g id="PolyCollection_2">
    <path d="M 629.870522 174.765516 
L 629.870522 176.397344 
L 630.154165 176.397344 
L 630.437848 176.397344 
L 630.721491 176.397344 
L 631.005174 176.397344 
L 631.288817 176.397344 
L 631.572501 176.397344 
L 631.856144 176.397344 
L 632.139827 176.397344 
L 632.42347 176.397344 
L 632.707153 176.397344 
L 632.990796 176.397344 
L 633.274479 176.397344 
L 633.558122 176.397344 
L 633.841806 176.397344 
L 634.125448 176.397344 
L 634.409132 176.397344 
L 634.692775 176.397344 
L 634.976458 176.397344 
L 635.260101 176.397344 
L 635.543784 176.397344 
L 635.827427 176.397344 
L 636.111111 176.397344 
L 636.394753 176.397344 
L 636.678437 176.397344 
L 636.96208 176.397344 
L 637.245763 176.397344 
L 637.529406 176.397344 
L 637.813089 176.397344 
L 638.096732 176.397344 
L 638.380416 176.397344 
L 638.664058 176.397344 
L 638.947742 176.397344 
L 639.231385 176.397344 
L 639.515068 176.397344 
L 639.798711 176.397344 
L 640.082394 176.397344 
L 640.366037 176.397344 
L 640.649721 176.397344 
L 640.933363 176.397344 
L 641.217047 176.397344 
L 641.50069 176.397344 
L 641.784373 176.397344 
L 642.068016 176.397344 
L 642.351699 176.397344 
L 642.635342 176.397344 
L 642.919025 176.397344 
L 643.202668 176.397344 
L 643.486352 176.397344 
L 643.769995 176.397344 
L 644.053678 176.397344 
L 644.337321 176.397344 
L 644.621004 176.397344 
L 644.904688 176.397344 
L 645.18833 176.397344 
L 645.472014 176.397344 
L 645.755657 176.397344 
L 646.03934 176.397344 
L 646.322983 176.397344 
L 646.606666 176.397344 
L 646.890309 176.397344 
L 647.173993 176.397344 
L 647.457635 176.397344 
L 647.741319 176.397344 
L 648.024962 176.397344 
L 648.308645 176.397344 
L 648.592288 176.397344 
L 648.875971 176.397344 
L 649.159614 176.397344 
L 649.443297 176.397344 
L 649.72694 176.397344 
L 650.010624 176.397344 
L 650.010624 176.12224 
L 650.010624 176.12224 
L 649.72694 175.672579 
L 649.443297 175.17785 
L 649.159614 174.632972 
L 648.875971 174.030322 
L 648.592288 173.362995 
L 648.308645 172.621813 
L 648.024962 171.796732 
L 647.741319 170.876237 
L 647.457635 169.848511 
L 647.173993 168.698931 
L 646.890309 167.413606 
L 646.606666 165.976874 
L 646.322983 164.36996 
L 646.03934 162.575293 
L 645.755657 160.574813 
L 645.472014 158.348008 
L 645.18833 155.873734 
L 644.904688 153.1341 
L 644.621004 150.10745 
L 644.337321 146.774762 
L 644.053678 143.118745 
L 643.769995 139.126313 
L 643.486352 134.783621 
L 643.202668 130.087033 
L 642.919025 125.035416 
L 642.635342 119.636889 
L 642.351699 113.910443 
L 642.068016 107.884483 
L 641.784373 101.602365 
L 641.50069 95.120677 
L 641.217047 88.522584 
L 640.933363 81.885947 
L 640.649721 75.319462 
L 640.366037 68.917853 
L 640.082394 62.803304 
L 639.798711 57.028632 
L 639.515068 51.710223 
L 639.231385 46.910714 
L 638.947742 42.679536 
L 638.664058 38.99454 
L 638.380416 35.903058 
L 638.096732 33.339177 
L 637.813089 31.252513 
L 637.529406 29.574151 
L 637.245763 28.327997 
L 636.96208 27.432571 
L 636.678437 26.864131 
L 636.394753 26.570272 
L 636.111111 26.626748 
L 635.827427 26.922176 
L 635.543784 27.527826 
L 635.260101 28.518606 
L 634.976458 30.036162 
L 634.692775 32.112241 
L 634.409132 35.018236 
L 634.125448 38.914549 
L 633.841806 43.943632 
L 633.558122 50.259217 
L 633.274479 57.975777 
L 632.990796 67.045606 
L 632.707153 77.352543 
L 632.42347 88.69417 
L 632.139827 100.706198 
L 631.856144 112.978631 
L 631.572501 125.059617 
L 631.288817 136.511965 
L 631.005174 146.950469 
L 630.721491 156.098434 
L 630.437848 163.791165 
L 630.154165 169.991087 
L 629.870522 174.765516 
z
" clip-path="url(#p128fbf8edc)" style="fill: #0072b2"/>
   </g>
   <g id="PolyCollection_3">
    <path d="M 845.454654 179.922101 
L 845.454654 179.543373 
L 845.738378 179.543373 
L 846.022021 179.543373 
L 846.305664 179.543373 
L 846.589307 179.543373 
L 846.873031 179.543373 
L 847.156674 179.543373 
L 847.440316 179.543373 
L 847.723959 179.543373 
L 848.007683 179.543373 
L 848.291326 179.543373 
L 848.574969 179.543373 
L 848.858612 179.543373 
L 849.142336 179.543373 
L 849.425979 179.543373 
L 849.709621 179.543373 
L 849.993264 179.543373 
L 850.276988 179.543373 
L 850.560631 179.543373 
L 850.844274 179.543373 
L 851.127917 179.543373 
L 851.411641 179.543373 
L 851.695283 179.543373 
L 851.978926 179.543373 
L 852.262569 179.543373 
L 852.546293 179.543373 
L 852.829936 179.543373 
L 853.113579 179.543373 
L 853.397222 179.543373 
L 853.680946 179.543373 
L 853.964588 179.543373 
L 854.248231 179.543373 
L 854.531874 179.543373 
L 854.815598 179.543373 
L 855.099241 179.543373 
L 855.382884 179.543373 
L 855.666527 179.543373 
L 855.950251 179.543373 
L 856.233893 179.543373 
L 856.517536 179.543373 
L 856.801179 179.543373 
L 857.084903 179.543373 
L 857.368546 179.543373 
L 857.652189 179.543373 
L 857.935913 179.543373 
L 858.219555 179.543373 
L 858.503198 179.543373 
L 858.786841 179.543373 
L 859.070565 179.543373 
L 859.354208 179.543373 
L 859.637851 179.543373 
L 859.921494 179.543373 
L 860.205218 179.543373 
L 860.48886 179.543373 
L 860.772503 179.543373 
L 861.056146 179.543373 
L 861.33987 179.543373 
L 861.623513 179.543373 
L 861.907156 179.543373 
L 862.190799 179.543373 
L 862.474523 179.543373 
L 862.758165 179.543373 
L 863.041808 179.543373 
L 863.325451 179.543373 
L 863.609175 179.543373 
L 863.892818 179.543373 
L 864.176461 179.543373 
L 864.176461 179.383877 
L 864.176461 179.383877 
L 863.892818 179.172624 
L 863.609175 178.940705 
L 863.325451 178.68492 
L 863.041808 178.402382 
L 862.758165 178.089005 
L 862.474523 177.740413 
L 862.190799 177.352368 
L 861.907156 176.92032 
L 861.623513 176.439174 
L 861.33987 175.903869 
L 861.056146 175.30918 
L 860.772503 174.649273 
L 860.48886 173.918498 
L 860.205218 173.110993 
L 859.921494 172.220921 
L 859.637851 171.242426 
L 859.354208 170.170383 
L 859.070565 168.999395 
L 858.786841 167.724769 
L 858.503198 166.342902 
L 858.219555 164.851133 
L 857.935913 163.24754 
L 857.652189 161.532443 
L 857.368546 159.708546 
L 857.084903 157.780186 
L 856.801179 155.753542 
L 856.517536 153.638368 
L 856.233893 151.44644 
L 855.950251 149.192489 
L 855.666527 146.893556 
L 855.382884 144.570442 
L 855.099241 142.244459 
L 854.815598 139.939454 
L 854.531874 137.679378 
L 854.248231 135.49045 
L 853.964588 133.398862 
L 853.680946 131.432282 
L 853.397222 129.617678 
L 853.113579 127.982568 
L 852.829936 126.552649 
L 852.546293 125.353839 
L 852.262569 124.408788 
L 851.978926 123.741287 
L 851.695283 123.372647 
L 851.411641 123.323548 
L 851.127917 123.61101 
L 850.844274 124.252912 
L 850.560631 125.263057 
L 850.276988 126.653476 
L 849.993264 128.433343 
L 849.709621 130.608179 
L 849.425979 133.17667 
L 849.142336 136.127595 
L 848.858612 139.437565 
L 848.574969 143.06581 
L 848.291326 146.953478 
L 848.007683 151.02091 
L 847.723959 155.172636 
L 847.440316 159.300757 
L 847.156674 163.294044 
L 846.873031 167.046083 
L 846.589307 170.4669 
L 846.305664 173.489301 
L 846.022021 176.074196 
L 845.738378 178.212587 
L 845.454654 179.922101 
z
" clip-path="url(#p128fbf8edc)" style="fill: #009e73"/>
   </g>
   <g id="PathCollection_1">
    <defs>
     <path id="m2475804e35" d="M 0 -5.91608 
L -1.328243 -1.828169 
L -5.626526 -1.828169 
L -2.149142 0.698298 
L -3.477384 4.786209 
L -0 2.259741 
L 3.477384 4.786209 
L 2.149142 0.698298 
L 5.626526 -1.828169 
L 1.328243 -1.828169 
z
" style="stroke: #000000; stroke-width: 1.5"/>
    </defs>
    <g clip-path="url(#p128fbf8edc)">
     <use xlink:href="#m2475804e35" x="636.962093" y="11.915105" style="stroke: #000000; stroke-width: 1.5"/>
    </g>
   </g>
   <g id="matplotlib.axis_1">
    <g id="xtick_1">
     <g id="line2d_1">
      <defs>
       <path id="m510fe63fb4" d="M 0 0 
L 0 8 
" style="stroke: #000000; stroke-width: 2"/>
      </defs>
      <g>
       <use xlink:href="#m510fe63fb4" x="112.75215" y="199.12726" style="stroke: #000000; stroke-width: 2"/>
      </g>
     </g>
     <g id="text_1">
      <!-- 0.0 -->
      <g transform="translate(100.24215 225.011323) scale(0.18 -0.18)">
       <defs>
        <path id="Arial-BoldMT-30" d="M 1756 4600 
Q 2422 4600 2797 4125 
Q 3244 3563 3244 2259 
Q 3244 959 2794 391 
Q 2422 -78 1756 -78 
Q 1088 -78 678 436 
Q 269 950 269 2269 
Q 269 3563 719 4131 
Q 1091 4600 1756 4600 
z
M 1756 3872 
Q 1597 3872 1472 3770 
Q 1347 3669 1278 3406 
Q 1188 3066 1188 2259 
Q 1188 1453 1269 1151 
Q 1350 850 1473 750 
Q 1597 650 1756 650 
Q 1916 650 2041 751 
Q 2166 853 2234 1116 
Q 2325 1453 2325 2259 
Q 2325 3066 2244 3367 
Q 2163 3669 2039 3770 
Q 1916 3872 1756 3872 
z
" transform="scale(0.015625)"/>
        <path id="Arial-BoldMT-2e" d="M 459 0 
L 459 878 
L 1338 878 
L 1338 0 
L 459 0 
z
" transform="scale(0.015625)"/>
       </defs>
       <use xlink:href="#Arial-BoldMT-30"/>
       <use xlink:href="#Arial-BoldMT-2e" x="55.615234"/>
       <use xlink:href="#Arial-BoldMT-30" x="83.398438"/>
      </g>
     </g>
    </g>
    <g id="xtick_2">
     <g id="line2d_2">
      <g>
       <use xlink:href="#m510fe63fb4" x="282.950183" y="199.12726" style="stroke: #000000; stroke-width: 2"/>
      </g>
     </g>
     <g id="text_2">
      <!-- 0.5 -->
      <g transform="translate(270.440183 225.011323) scale(0.18 -0.18)">
       <defs>
        <path id="Arial-BoldMT-35" d="M 284 1178 
L 1159 1269 
Q 1197 972 1381 798 
Q 1566 625 1806 625 
Q 2081 625 2272 848 
Q 2463 1072 2463 1522 
Q 2463 1944 2273 2155 
Q 2084 2366 1781 2366 
Q 1403 2366 1103 2031 
L 391 2134 
L 841 4519 
L 3163 4519 
L 3163 3697 
L 1506 3697 
L 1369 2919 
Q 1663 3066 1969 3066 
Q 2553 3066 2959 2641 
Q 3366 2216 3366 1538 
Q 3366 972 3038 528 
Q 2591 -78 1797 -78 
Q 1163 -78 763 262 
Q 363 603 284 1178 
z
" transform="scale(0.015625)"/>
       </defs>
       <use xlink:href="#Arial-BoldMT-30"/>
       <use xlink:href="#Arial-BoldMT-2e" x="55.615234"/>
       <use xlink:href="#Arial-BoldMT-35" x="83.398438"/>
      </g>
     </g>
    </g>
    <g id="xtick_3">
     <g id="line2d_3">
      <g>
       <use xlink:href="#m510fe63fb4" x="453.148217" y="199.12726" style="stroke: #000000; stroke-width: 2"/>
      </g>
     </g>
     <g id="text_3">
      <!-- 1.0 -->
      <g transform="translate(440.638217 225.011323) scale(0.18 -0.18)">
       <defs>
        <path id="Arial-BoldMT-31" d="M 2519 0 
L 1641 0 
L 1641 3309 
Q 1159 2859 506 2644 
L 506 3441 
Q 850 3553 1253 3867 
Q 1656 4181 1806 4600 
L 2519 4600 
L 2519 0 
z
" transform="scale(0.015625)"/>
       </defs>
       <use xlink:href="#Arial-BoldMT-31"/>
       <use xlink:href="#Arial-BoldMT-2e" x="55.615234"/>
       <use xlink:href="#Arial-BoldMT-30" x="83.398438"/>
      </g>
     </g>
    </g>
    <g id="xtick_4">
     <g id="line2d_4">
      <g>
       <use xlink:href="#m510fe63fb4" x="623.34625" y="199.12726" style="stroke: #000000; stroke-width: 2"/>
      </g>
     </g>
     <g id="text_4">
      <!-- 1.5 -->
      <g transform="translate(610.83625 225.011323) scale(0.18 -0.18)">
       <use xlink:href="#Arial-BoldMT-31"/>
       <use xlink:href="#Arial-BoldMT-2e" x="55.615234"/>
       <use xlink:href="#Arial-BoldMT-35" x="83.398438"/>
      </g>
     </g>
    </g>
    <g id="xtick_5">
     <g id="line2d_5">
      <g>
       <use xlink:href="#m510fe63fb4" x="793.544283" y="199.12726" style="stroke: #000000; stroke-width: 2"/>
      </g>
     </g>
     <g id="text_5">
      <!-- 2.0 -->
      <g transform="translate(781.034283 225.011323) scale(0.18 -0.18)">
       <defs>
        <path id="Arial-BoldMT-32" d="M 3238 816 
L 3238 0 
L 159 0 
Q 209 463 459 877 
Q 709 1291 1447 1975 
Q 2041 2528 2175 2725 
Q 2356 2997 2356 3263 
Q 2356 3556 2198 3714 
Q 2041 3872 1763 3872 
Q 1488 3872 1325 3706 
Q 1163 3541 1138 3156 
L 263 3244 
Q 341 3969 753 4284 
Q 1166 4600 1784 4600 
Q 2463 4600 2850 4234 
Q 3238 3869 3238 3325 
Q 3238 3016 3127 2736 
Q 3016 2456 2775 2150 
Q 2616 1947 2200 1565 
Q 1784 1184 1673 1059 
Q 1563 934 1494 816 
L 3238 816 
z
" transform="scale(0.015625)"/>
       </defs>
       <use xlink:href="#Arial-BoldMT-32"/>
       <use xlink:href="#Arial-BoldMT-2e" x="55.615234"/>
       <use xlink:href="#Arial-BoldMT-30" x="83.398438"/>
      </g>
     </g>
    </g>
    <g id="xtick_6">
     <g id="line2d_6">
      <g>
       <use xlink:href="#m510fe63fb4" x="963.742317" y="199.12726" style="stroke: #000000; stroke-width: 2"/>
      </g>
     </g>
     <g id="text_6">
      <!-- 2.5 -->
      <g transform="translate(951.232317 225.011323) scale(0.18 -0.18)">
       <use xlink:href="#Arial-BoldMT-32"/>
       <use xlink:href="#Arial-BoldMT-2e" x="55.615234"/>
       <use xlink:href="#Arial-BoldMT-35" x="83.398438"/>
      </g>
     </g>
    </g>
    <g id="xtick_7">
     <g id="line2d_7">
      <g>
       <use xlink:href="#m510fe63fb4" x="1133.94035" y="199.12726" style="stroke: #000000; stroke-width: 2"/>
      </g>
     </g>
     <g id="text_7">
      <!-- 3.0 -->
      <g transform="translate(1121.43035 225.011323) scale(0.18 -0.18)">
       <defs>
        <path id="Arial-BoldMT-33" d="M 241 1216 
L 1091 1319 
Q 1131 994 1309 822 
Q 1488 650 1741 650 
Q 2013 650 2198 856 
Q 2384 1063 2384 1413 
Q 2384 1744 2206 1937 
Q 2028 2131 1772 2131 
Q 1603 2131 1369 2066 
L 1466 2781 
Q 1822 2772 2009 2936 
Q 2197 3100 2197 3372 
Q 2197 3603 2059 3740 
Q 1922 3878 1694 3878 
Q 1469 3878 1309 3722 
Q 1150 3566 1116 3266 
L 306 3403 
Q 391 3819 561 4067 
Q 731 4316 1036 4458 
Q 1341 4600 1719 4600 
Q 2366 4600 2756 4188 
Q 3078 3850 3078 3425 
Q 3078 2822 2419 2463 
Q 2813 2378 3048 2084 
Q 3284 1791 3284 1375 
Q 3284 772 2843 347 
Q 2403 -78 1747 -78 
Q 1125 -78 715 280 
Q 306 638 241 1216 
z
" transform="scale(0.015625)"/>
       </defs>
       <use xlink:href="#Arial-BoldMT-33"/>
       <use xlink:href="#Arial-BoldMT-2e" x="55.615234"/>
       <use xlink:href="#Arial-BoldMT-30" x="83.398438"/>
      </g>
     </g>
    </g>
    <g id="text_8">
     <!-- Retention time / min -->
     <g transform="translate(537.345625 245.447573) scale(0.18 -0.18)">
      <defs>
       <path id="Arial-BoldMT-52" d="M 469 0 
L 469 4581 
L 2416 4581 
Q 3150 4581 3483 4457 
Q 3816 4334 4016 4018 
Q 4216 3703 4216 3297 
Q 4216 2781 3912 2445 
Q 3609 2109 3006 2022 
Q 3306 1847 3501 1637 
Q 3697 1428 4028 894 
L 4588 0 
L 3481 0 
L 2813 997 
Q 2456 1531 2325 1670 
Q 2194 1809 2047 1861 
Q 1900 1913 1581 1913 
L 1394 1913 
L 1394 0 
L 469 0 
z
M 1394 2644 
L 2078 2644 
Q 2744 2644 2909 2700 
Q 3075 2756 3169 2893 
Q 3263 3031 3263 3238 
Q 3263 3469 3139 3611 
Q 3016 3753 2791 3791 
Q 2678 3806 2116 3806 
L 1394 3806 
L 1394 2644 
z
" transform="scale(0.015625)"/>
       <path id="Arial-BoldMT-65" d="M 2381 1056 
L 3256 909 
Q 3088 428 2723 176 
Q 2359 -75 1813 -75 
Q 947 -75 531 491 
Q 203 944 203 1634 
Q 203 2459 634 2926 
Q 1066 3394 1725 3394 
Q 2466 3394 2894 2905 
Q 3322 2416 3303 1406 
L 1103 1406 
Q 1113 1016 1316 798 
Q 1519 581 1822 581 
Q 2028 581 2168 693 
Q 2309 806 2381 1056 
z
M 2431 1944 
Q 2422 2325 2234 2523 
Q 2047 2722 1778 2722 
Q 1491 2722 1303 2513 
Q 1116 2303 1119 1944 
L 2431 1944 
z
" transform="scale(0.015625)"/>
       <path id="Arial-BoldMT-74" d="M 1981 3319 
L 1981 2619 
L 1381 2619 
L 1381 1281 
Q 1381 875 1398 808 
Q 1416 741 1477 697 
Q 1538 653 1625 653 
Q 1747 653 1978 738 
L 2053 56 
Q 1747 -75 1359 -75 
Q 1122 -75 931 4 
Q 741 84 652 211 
Q 563 338 528 553 
Q 500 706 500 1172 
L 500 2619 
L 97 2619 
L 97 3319 
L 500 3319 
L 500 3978 
L 1381 4491 
L 1381 3319 
L 1981 3319 
z
" transform="scale(0.015625)"/>
       <path id="Arial-BoldMT-6e" d="M 3478 0 
L 2600 0 
L 2600 1694 
Q 2600 2231 2544 2389 
Q 2488 2547 2361 2634 
Q 2234 2722 2056 2722 
Q 1828 2722 1647 2597 
Q 1466 2472 1398 2265 
Q 1331 2059 1331 1503 
L 1331 0 
L 453 0 
L 453 3319 
L 1269 3319 
L 1269 2831 
Q 1703 3394 2363 3394 
Q 2653 3394 2893 3289 
Q 3134 3184 3257 3021 
Q 3381 2859 3429 2653 
Q 3478 2447 3478 2063 
L 3478 0 
z
" transform="scale(0.015625)"/>
       <path id="Arial-BoldMT-69" d="M 459 3769 
L 459 4581 
L 1338 4581 
L 1338 3769 
L 459 3769 
z
M 459 0 
L 459 3319 
L 1338 3319 
L 1338 0 
L 459 0 
z
" transform="scale(0.015625)"/>
       <path id="Arial-BoldMT-6f" d="M 256 1706 
Q 256 2144 472 2553 
Q 688 2963 1083 3178 
Q 1478 3394 1966 3394 
Q 2719 3394 3200 2905 
Q 3681 2416 3681 1669 
Q 3681 916 3195 420 
Q 2709 -75 1972 -75 
Q 1516 -75 1102 131 
Q 688 338 472 736 
Q 256 1134 256 1706 
z
M 1156 1659 
Q 1156 1166 1390 903 
Q 1625 641 1969 641 
Q 2313 641 2545 903 
Q 2778 1166 2778 1666 
Q 2778 2153 2545 2415 
Q 2313 2678 1969 2678 
Q 1625 2678 1390 2415 
Q 1156 2153 1156 1659 
z
" transform="scale(0.015625)"/>
       <path id="Arial-BoldMT-20" transform="scale(0.015625)"/>
       <path id="Arial-BoldMT-6d" d="M 394 3319 
L 1203 3319 
L 1203 2866 
Q 1638 3394 2238 3394 
Q 2556 3394 2790 3262 
Q 3025 3131 3175 2866 
Q 3394 3131 3647 3262 
Q 3900 3394 4188 3394 
Q 4553 3394 4806 3245 
Q 5059 3097 5184 2809 
Q 5275 2597 5275 2122 
L 5275 0 
L 4397 0 
L 4397 1897 
Q 4397 2391 4306 2534 
Q 4184 2722 3931 2722 
Q 3747 2722 3584 2609 
Q 3422 2497 3350 2280 
Q 3278 2063 3278 1594 
L 3278 0 
L 2400 0 
L 2400 1819 
Q 2400 2303 2353 2443 
Q 2306 2584 2207 2653 
Q 2109 2722 1941 2722 
Q 1738 2722 1575 2612 
Q 1413 2503 1342 2297 
Q 1272 2091 1272 1613 
L 1272 0 
L 394 0 
L 394 3319 
z
" transform="scale(0.015625)"/>
       <path id="Arial-BoldMT-2f" d="M -9 -78 
L 1125 4659 
L 1784 4659 
L 638 -78 
L -9 -78 
z
" transform="scale(0.015625)"/>
      </defs>
      <use xlink:href="#Arial-BoldMT-52"/>
      <use xlink:href="#Arial-BoldMT-65" x="72.216797"/>
      <use xlink:href="#Arial-BoldMT-74" x="127.832031"/>
      <use xlink:href="#Arial-BoldMT-65" x="161.132812"/>
      <use xlink:href="#Arial-BoldMT-6e" x="216.748047"/>
      <use xlink:href="#Arial-BoldMT-74" x="277.832031"/>
      <use xlink:href="#Arial-BoldMT-69" x="311.132812"/>
      <use xlink:href="#Arial-BoldMT-6f" x="338.916016"/>
      <use xlink:href="#Arial-BoldMT-6e" x="400"/>
      <use xlink:href="#Arial-BoldMT-20" x="461.083984"/>
      <use xlink:href="#Arial-BoldMT-74" x="488.867188"/>
      <use xlink:href="#Arial-BoldMT-69" x="522.167969"/>
      <use xlink:href="#Arial-BoldMT-6d" x="549.951172"/>
      <use xlink:href="#Arial-BoldMT-65" x="638.867188"/>
      <use xlink:href="#Arial-BoldMT-20" x="694.482422"/>
      <use xlink:href="#Arial-BoldMT-2f" x="722.265625"/>
      <use xlink:href="#Arial-BoldMT-20" x="750.048828"/>
      <use xlink:href="#Arial-BoldMT-6d" x="777.832031"/>
      <use xlink:href="#Arial-BoldMT-69" x="866.748047"/>
      <use xlink:href="#Arial-BoldMT-6e" x="894.53125"/>
     </g>
    </g>
   </g>
   <g id="matplotlib.axis_2">
    <g id="ytick_1">
     <g id="line2d_8">
      <defs>
       <path id="mcf96c0807f" d="M 0 0 
L -8 0 
" style="stroke: #000000; stroke-width: 2"/>
      </defs>
      <g>
       <use xlink:href="#mcf96c0807f" x="61.69274" y="181.744934" style="stroke: #000000; stroke-width: 2"/>
      </g>
     </g>
     <g id="text_9">
      <!-- 0.0 -->
      <g transform="translate(23.67274 188.186965) scale(0.18 -0.18)">
       <use xlink:href="#Arial-BoldMT-30"/>
       <use xlink:href="#Arial-BoldMT-2e" x="55.615234"/>
       <use xlink:href="#Arial-BoldMT-30" x="83.398438"/>
      </g>
     </g>
    </g>
    <g id="ytick_2">
     <g id="line2d_9">
      <g>
       <use xlink:href="#mcf96c0807f" x="61.69274" y="104.157603" style="stroke: #000000; stroke-width: 2"/>
      </g>
     </g>
     <g id="text_10">
      <!-- 0.5 -->
      <g transform="translate(23.67274 110.599634) scale(0.18 -0.18)">
       <use xlink:href="#Arial-BoldMT-30"/>
       <use xlink:href="#Arial-BoldMT-2e" x="55.615234"/>
       <use xlink:href="#Arial-BoldMT-35" x="83.398438"/>
      </g>
     </g>
    </g>
    <g id="ytick_3">
     <g id="line2d_10">
      <g>
       <use xlink:href="#mcf96c0807f" x="61.69274" y="26.570272" style="stroke: #000000; stroke-width: 2"/>
      </g>
     </g>
     <g id="text_11">
      <!-- 1.0 -->
      <g transform="translate(23.67274 33.012304) scale(0.18 -0.18)">
       <use xlink:href="#Arial-BoldMT-31"/>
       <use xlink:href="#Arial-BoldMT-2e" x="55.615234"/>
       <use xlink:href="#Arial-BoldMT-30" x="83.398438"/>
      </g>
     </g>
    </g>
    <g id="text_12">
     <!-- Rel. Intensity -->
     <g transform="translate(15.884303 157.071875) rotate(-90) scale(0.18 -0.18)">
      <defs>
       <path id="Arial-BoldMT-6c" d="M 459 0 
L 459 4581 
L 1338 4581 
L 1338 0 
L 459 0 
z
" transform="scale(0.015625)"/>
       <path id="Arial-BoldMT-49" d="M 438 0 
L 438 4581 
L 1363 4581 
L 1363 0 
L 438 0 
z
" transform="scale(0.015625)"/>
       <path id="Arial-BoldMT-73" d="M 150 947 
L 1031 1081 
Q 1088 825 1259 692 
Q 1431 559 1741 559 
Q 2081 559 2253 684 
Q 2369 772 2369 919 
Q 2369 1019 2306 1084 
Q 2241 1147 2013 1200 
Q 950 1434 666 1628 
Q 272 1897 272 2375 
Q 272 2806 612 3100 
Q 953 3394 1669 3394 
Q 2350 3394 2681 3172 
Q 3013 2950 3138 2516 
L 2309 2363 
Q 2256 2556 2107 2659 
Q 1959 2763 1684 2763 
Q 1338 2763 1188 2666 
Q 1088 2597 1088 2488 
Q 1088 2394 1175 2328 
Q 1294 2241 1995 2081 
Q 2697 1922 2975 1691 
Q 3250 1456 3250 1038 
Q 3250 581 2869 253 
Q 2488 -75 1741 -75 
Q 1063 -75 667 200 
Q 272 475 150 947 
z
" transform="scale(0.015625)"/>
       <path id="Arial-BoldMT-79" d="M 44 3319 
L 978 3319 
L 1772 963 
L 2547 3319 
L 3456 3319 
L 2284 125 
L 2075 -453 
Q 1959 -744 1854 -897 
Q 1750 -1050 1614 -1145 
Q 1478 -1241 1279 -1294 
Q 1081 -1347 831 -1347 
Q 578 -1347 334 -1294 
L 256 -606 
Q 463 -647 628 -647 
Q 934 -647 1081 -467 
Q 1228 -288 1306 -9 
L 44 3319 
z
" transform="scale(0.015625)"/>
      </defs>
      <use xlink:href="#Arial-BoldMT-52"/>
      <use xlink:href="#Arial-BoldMT-65" x="72.216797"/>
      <use xlink:href="#Arial-BoldMT-6c" x="127.832031"/>
      <use xlink:href="#Arial-BoldMT-2e" x="155.615234"/>
      <use xlink:href="#Arial-BoldMT-20" x="183.398438"/>
      <use xlink:href="#Arial-BoldMT-49" x="211.181641"/>
      <use xlink:href="#Arial-BoldMT-6e" x="238.964844"/>
      <use xlink:href="#Arial-BoldMT-74" x="300.048828"/>
      <use xlink:href="#Arial-BoldMT-65" x="333.349609"/>
      <use xlink:href="#Arial-BoldMT-6e" x="388.964844"/>
      <use xlink:href="#Arial-BoldMT-73" x="450.048828"/>
      <use xlink:href="#Arial-BoldMT-69" x="505.664062"/>
      <use xlink:href="#Arial-BoldMT-74" x="533.447266"/>
      <use xlink:href="#Arial-BoldMT-79" x="566.748047"/>
     </g>
    </g>
   </g>
   <g id="line2d_11">
    <path d="M 112.75215 181.86475 
L 134.310567 181.701026 
L 193.028889 181.554968 
L 193.879878 181.332124 
L 194.447204 180.901973 
L 195.01453 180.059629 
L 195.581862 178.697432 
L 196.432851 175.837078 
L 197.567504 172.005693 
L 198.13483 170.759627 
L 198.702156 170.138104 
L 198.985819 170.059949 
L 199.269482 170.12963 
L 199.553145 170.345488 
L 200.120472 171.229088 
L 200.687798 172.761119 
L 201.255124 174.951602 
L 202.389777 180.591037 
L 203.524439 185.783043 
L 204.091765 187.628863 
L 204.659092 188.920931 
L 205.226418 189.722887 
L 205.793744 190.125486 
L 206.36107 190.212395 
L 206.928397 190.05554 
L 207.779386 189.504081 
L 209.765028 187.701925 
L 211.183343 186.585313 
L 212.885322 185.554635 
L 215.721963 184.14139 
L 218.274931 183.108029 
L 220.260573 182.567141 
L 222.529878 182.189934 
L 225.36652 181.974412 
L 231.323445 181.825462 
L 244.939285 181.759952 
L 351.029393 181.741954 
L 368.0492 181.340776 
L 387.621975 180.868997 
L 397.550185 180.892731 
L 407.478414 181.113226 
L 419.959591 181.632429 
L 432.724452 182.166853 
L 436.128409 181.839787 
L 438.114051 182.000335 
L 446.340302 183.070362 
L 456.268531 183.60653 
L 470.168004 184.095883 
L 480.663559 184.284825 
L 488.88981 184.247612 
L 490.308105 184.079178 
L 491.159115 183.803085 
L 491.726441 183.445872 
L 492.293768 182.868522 
L 492.861094 182.013566 
L 493.712063 180.166975 
L 494.846715 176.842213 
L 496.832377 170.667901 
L 497.683387 168.655889 
L 498.534356 167.18758 
L 499.385366 166.192337 
L 500.236335 165.538394 
L 501.370987 165.006267 
L 502.221997 164.828939 
L 503.072966 164.877034 
L 503.923976 165.200577 
L 504.774945 165.814494 
L 505.625954 166.705076 
L 506.760607 168.252254 
L 508.746228 171.456164 
L 511.015533 175.034556 
L 512.433869 176.940629 
L 513.852165 178.483438 
L 514.986817 179.434783 
L 516.405153 180.298708 
L 517.823489 180.88837 
L 519.525468 181.358517 
L 521.794772 181.733563 
L 524.915046 182.004582 
L 529.170014 182.149024 
L 535.126919 182.115193 
L 544.487822 182.042765 
L 555.550704 182.129678 
L 572.003165 182.545231 
L 583.066047 182.96007 
L 606.326463 183.974805 
L 614.836356 184.398681 
L 627.601217 184.443983 
L 628.168543 184.216632 
L 628.452186 183.901436 
L 628.73587 183.320057 
L 629.019512 182.320135 
L 629.303196 180.71021 
L 629.586839 178.268757 
L 630.154165 169.991087 
L 630.721491 156.098434 
L 631.288817 136.511965 
L 633.274479 57.975777 
L 633.841806 43.943632 
L 634.409132 35.018236 
L 634.976458 30.036162 
L 635.543784 27.527826 
L 635.827427 26.922176 
L 636.111111 26.626748 
L 636.394753 26.570272 
L 636.678437 26.864131 
L 636.96208 27.432571 
L 637.529406 29.574151 
L 638.096732 33.339177 
L 638.664058 38.99454 
L 639.231385 46.910714 
L 640.082394 62.803304 
L 643.486352 134.783621 
L 644.337321 146.774762 
L 645.18833 155.873734 
L 646.03934 162.575293 
L 646.890309 167.413606 
L 647.741319 170.876237 
L 648.592288 173.362995 
L 649.443297 175.17785 
L 650.294267 176.532034 
L 651.428919 177.857811 
L 652.563571 178.8174 
L 653.981907 179.673957 
L 655.683886 180.385965 
L 657.953191 181.032987 
L 660.789822 181.577283 
L 663.910096 181.95542 
L 667.597737 182.167898 
L 674.122009 182.300283 
L 678.660619 182.200093 
L 684.050198 182.044274 
L 695.396763 182.093559 
L 722.912106 181.660194 
L 766.596267 181.831295 
L 779.361127 182.237639 
L 800.635841 183.2186 
L 802.905146 183.225364 
L 804.607165 182.972759 
L 806.592827 182.695115 
L 808.294765 182.69795 
L 810.280428 182.943032 
L 815.670047 183.743483 
L 819.64129 183.999244 
L 827.016572 184.217794 
L 841.199768 184.282979 
L 843.185349 184.179175 
L 843.752716 183.965518 
L 844.320002 183.423986 
L 844.887369 182.22549 
L 845.454654 179.922101 
L 846.022021 176.074196 
L 846.589307 170.4669 
L 847.440316 159.300757 
L 849.142336 136.127595 
L 849.993264 128.433343 
L 850.560631 125.263057 
L 851.127917 123.61101 
L 851.411641 123.323548 
L 851.695283 123.372647 
L 851.978926 123.741287 
L 852.546293 125.353839 
L 853.113579 127.982568 
L 853.964588 133.398862 
L 855.382884 144.570442 
L 857.084903 157.780186 
L 858.219555 164.851133 
L 859.070565 168.999395 
L 859.921494 172.220921 
L 860.772503 174.649273 
L 861.623513 176.439174 
L 862.474523 177.740413 
L 863.325451 178.68492 
L 864.460104 179.577111 
L 865.87848 180.340986 
L 867.580418 180.976217 
L 869.849723 181.56868 
L 872.686395 182.052993 
L 875.806628 182.333496 
L 879.777952 182.435073 
L 887.436877 182.349994 
L 905.874959 181.859956 
L 912.115589 181.500259 
L 916.654198 181.684918 
L 922.894828 181.849426 
L 937.077943 181.935619 
L 941.049267 181.878568 
L 948.140825 182.152555 
L 958.63634 182.388833 
L 973.386903 182.502312 
L 976.507137 182.406375 
L 977.358146 182.177992 
L 978.209156 181.656604 
L 979.060166 180.795015 
L 981.329471 178.199821 
L 982.180399 177.650885 
L 983.031409 177.414293 
L 983.882418 177.458432 
L 984.733428 177.72978 
L 985.86808 178.32933 
L 989.555681 180.4853 
L 991.2577 181.108131 
L 993.243281 181.554614 
L 995.79631 181.866383 
L 999.48391 182.061539 
L 1005.724458 182.124521 
L 1023.311612 181.960289 
L 1048.841333 181.820419 
L 1123.444835 181.765198 
L 1133.656707 181.680456 
L 1133.656707 181.680456 
" clip-path="url(#p128fbf8edc)" style="fill: none; stroke: #000000; stroke-width: 2.5; stroke-linecap: square"/>
   </g>
   <g id="line2d_12">
    <path d="M 248.910577 199.12726 
L 248.910577 3.00024 
" clip-path="url(#p128fbf8edc)" style="fill: none; stroke: #d55e00; stroke-width: 2; stroke-linecap: square"/>
   </g>
   <g id="line2d_13">
    <path d="M 1133.94035 199.12726 
L 1133.94035 3.00024 
" clip-path="url(#p128fbf8edc)" style="fill: none; stroke: #d55e00; stroke-width: 2; stroke-linecap: square"/>
   </g>
   <g id="patch_3">
    <path d="M 61.69274 199.12726 
L 61.69274 3.00024 
" style="fill: none; stroke: #000000; stroke-width: 2; stroke-linejoin: miter; stroke-linecap: square"/>
   </g>
   <g id="patch_4">
    <path d="M 1184.99976 199.12726 
L 1184.99976 3.00024 
" style="fill: none; stroke: #000000; stroke-width: 2; stroke-linejoin: miter; stroke-linecap: square"/>
   </g>
   <g id="patch_5">
    <path d="M 61.69274 199.12726 
L 1184.99976 199.12726 
" style="fill: none; stroke: #000000; stroke-width: 2; stroke-linejoin: miter; stroke-linecap: square"/>
   </g>
   <g id="patch_6">
    <path d="M 61.69274 3.00024 
L 1184.99976 3.00024 
" style="fill: none; stroke: #000000; stroke-width: 2; stroke-linejoin: miter; stroke-linecap: square"/>
   </g>
   <g id="text_13">
    <!-- ANALYSIS -->
    <g style="fill: #d55e00" transform="translate(242.547644 141.380208) rotate(-90) scale(0.14994 -0.14994)">
     <defs>
      <path id="Arial-BoldMT-41" d="M 4597 0 
L 3591 0 
L 3191 1041 
L 1359 1041 
L 981 0 
L 0 0 
L 1784 4581 
L 2763 4581 
L 4597 0 
z
M 2894 1813 
L 2263 3513 
L 1644 1813 
L 2894 1813 
z
" transform="scale(0.015625)"/>
      <path id="Arial-BoldMT-4e" d="M 475 0 
L 475 4581 
L 1375 4581 
L 3250 1522 
L 3250 4581 
L 4109 4581 
L 4109 0 
L 3181 0 
L 1334 2988 
L 1334 0 
L 475 0 
z
" transform="scale(0.015625)"/>
      <path id="Arial-BoldMT-4c" d="M 491 0 
L 491 4544 
L 1416 4544 
L 1416 772 
L 3716 772 
L 3716 0 
L 491 0 
z
" transform="scale(0.015625)"/>
      <path id="Arial-BoldMT-59" d="M 1669 0 
L 1669 1928 
L -9 4581 
L 1075 4581 
L 2153 2769 
L 3209 4581 
L 4275 4581 
L 2591 1922 
L 2591 0 
L 1669 0 
z
" transform="scale(0.015625)"/>
      <path id="Arial-BoldMT-53" d="M 231 1491 
L 1131 1578 
Q 1213 1125 1461 912 
Q 1709 700 2131 700 
Q 2578 700 2804 889 
Q 3031 1078 3031 1331 
Q 3031 1494 2936 1608 
Q 2841 1722 2603 1806 
Q 2441 1863 1863 2006 
Q 1119 2191 819 2459 
Q 397 2838 397 3381 
Q 397 3731 595 4036 
Q 794 4341 1167 4500 
Q 1541 4659 2069 4659 
Q 2931 4659 3367 4281 
Q 3803 3903 3825 3272 
L 2900 3231 
Q 2841 3584 2645 3739 
Q 2450 3894 2059 3894 
Q 1656 3894 1428 3728 
Q 1281 3622 1281 3444 
Q 1281 3281 1419 3166 
Q 1594 3019 2269 2859 
Q 2944 2700 3267 2529 
Q 3591 2359 3773 2064 
Q 3956 1769 3956 1334 
Q 3956 941 3737 597 
Q 3519 253 3119 86 
Q 2719 -81 2122 -81 
Q 1253 -81 787 320 
Q 322 722 231 1491 
z
" transform="scale(0.015625)"/>
     </defs>
     <use xlink:href="#Arial-BoldMT-41"/>
     <use xlink:href="#Arial-BoldMT-4e" x="72.216797"/>
     <use xlink:href="#Arial-BoldMT-41" x="144.433594"/>
     <use xlink:href="#Arial-BoldMT-4c" x="216.650391"/>
     <use xlink:href="#Arial-BoldMT-59" x="268.609375"/>
     <use xlink:href="#Arial-BoldMT-53" x="335.308594"/>
     <use xlink:href="#Arial-BoldMT-49" x="402.007812"/>
     <use xlink:href="#Arial-BoldMT-53" x="429.791016"/>
    </g>
   </g>
   <g id="text_14">
    <!-- START -->
    <g style="fill: #d55e00" transform="translate(266.450922 128.591966) rotate(-90) scale(0.14994 -0.14994)">
     <defs>
      <path id="Arial-BoldMT-54" d="M 1497 0 
L 1497 3806 
L 138 3806 
L 138 4581 
L 3778 4581 
L 3778 3806 
L 2422 3806 
L 2422 0 
L 1497 0 
z
" transform="scale(0.015625)"/>
     </defs>
     <use xlink:href="#Arial-BoldMT-53"/>
     <use xlink:href="#Arial-BoldMT-54" x="66.699219"/>
     <use xlink:href="#Arial-BoldMT-41" x="120.408203"/>
     <use xlink:href="#Arial-BoldMT-52" x="192.625"/>
     <use xlink:href="#Arial-BoldMT-54" x="264.841797"/>
    </g>
   </g>
   <g id="text_15">
    <!-- ANALYSIS -->
    <g style="fill: #d55e00" transform="translate(1127.577417 141.380208) rotate(-90) scale(0.14994 -0.14994)">
     <use xlink:href="#Arial-BoldMT-41"/>
     <use xlink:href="#Arial-BoldMT-4e" x="72.216797"/>
     <use xlink:href="#Arial-BoldMT-41" x="144.433594"/>
     <use xlink:href="#Arial-BoldMT-4c" x="216.650391"/>
     <use xlink:href="#Arial-BoldMT-59" x="268.609375"/>
     <use xlink:href="#Arial-BoldMT-53" x="335.308594"/>
     <use xlink:href="#Arial-BoldMT-49" x="402.007812"/>
     <use xlink:href="#Arial-BoldMT-53" x="429.791016"/>
    </g>
   </g>
   <g id="text_16">
    <!-- END -->
    <g style="fill: #d55e00" transform="translate(1151.480695 119.986816) rotate(-90) scale(0.14994 -0.14994)">
     <defs>
      <path id="Arial-BoldMT-45" d="M 466 0 
L 466 4581 
L 3863 4581 
L 3863 3806 
L 1391 3806 
L 1391 2791 
L 3691 2791 
L 3691 2019 
L 1391 2019 
L 1391 772 
L 3950 772 
L 3950 0 
L 466 0 
z
" transform="scale(0.015625)"/>
      <path id="Arial-BoldMT-44" d="M 463 4581 
L 2153 4581 
Q 2725 4581 3025 4494 
Q 3428 4375 3715 4072 
Q 4003 3769 4153 3330 
Q 4303 2891 4303 2247 
Q 4303 1681 4163 1272 
Q 3991 772 3672 463 
Q 3431 228 3022 97 
Q 2716 0 2203 0 
L 463 0 
L 463 4581 
z
M 1388 3806 
L 1388 772 
L 2078 772 
Q 2466 772 2638 816 
Q 2863 872 3011 1006 
Q 3159 1141 3253 1448 
Q 3347 1756 3347 2288 
Q 3347 2819 3253 3103 
Q 3159 3388 2990 3547 
Q 2822 3706 2563 3763 
Q 2369 3806 1803 3806 
L 1388 3806 
z
" transform="scale(0.015625)"/>
     </defs>
     <use xlink:href="#Arial-BoldMT-45"/>
     <use xlink:href="#Arial-BoldMT-4e" x="66.699219"/>
     <use xlink:href="#Arial-BoldMT-44" x="138.916016"/>
    </g>
   </g>
  </g>
 </g>
 <defs>
  <clipPath id="p128fbf8edc">
   <rect x="61.69274" y="3.00024" width="1123.30702" height="196.12702"/>
  </clipPath>
 </defs>
</svg>
