<?xml version="1.0" encoding="utf-8" standalone="no"?>
<!DOCTYPE svg PUBLIC "-//W3C//DTD SVG 1.1//EN"
  "http://www.w3.org/Graphics/SVG/1.1/DTD/svg11.dtd">
<svg xmlns:xlink="http://www.w3.org/1999/xlink" width="1188pt" height="252pt" viewBox="0 0 1188 252" xmlns="http://www.w3.org/2000/svg" version="1.1">
 <metadata>
  <rdf:RDF xmlns:dc="http://purl.org/dc/elements/1.1/" xmlns:cc="http://creativecommons.org/ns#" xmlns:rdf="http://www.w3.org/1999/02/22-rdf-syntax-ns#">
   <cc:Work>
    <dc:type rdf:resource="http://purl.org/dc/dcmitype/StillImage"/>
    <dc:date>2024-05-14T22:48:44.087863</dc:date>
    <dc:format>image/svg+xml</dc:format>
    <dc:creator>
     <cc:Agent>
      <dc:title>Matplotlib v3.8.0, https://matplotlib.org/</dc:title>
     </cc:Agent>
    </dc:creator>
   </cc:Work>
  </rdf:RDF>
 </metadata>
 <defs>
  <style type="text/css">*{stroke-linejoin: round; stroke-linecap: butt}</style>
 </defs>
 <g id="figure_1">
  <g id="patch_1">
   <path d="M 0 252 
L 1188 252 
L 1188 0 
L 0 0 
z
" style="fill: #ffffff"/>
  </g>
  <g id="axes_1">
   <g id="patch_2">
    <path d="M 71.702428 199.12726 
L 1184.99976 199.12726 
L 1184.99976 3.00024 
L 71.702428 3.00024 
z
" style="fill: #ffffff"/>
   </g>
   <g id="PolyCollection_1">
    <path d="M 670.521447 177.299523 
L 670.521447 175.817014 
L 670.802603 175.817014 
L 671.083718 175.817014 
L 671.364874 175.817014 
L 671.645989 175.817014 
L 671.927144 175.817014 
L 672.20826 175.817014 
L 672.489415 175.817014 
L 672.770531 175.817014 
L 673.051686 175.817014 
L 673.332801 175.817014 
L 673.613957 175.817014 
L 673.895072 175.817014 
L 674.176228 175.817014 
L 674.457343 175.817014 
L 674.738499 175.817014 
L 675.019614 175.817014 
L 675.30077 175.817014 
L 675.581885 175.817014 
L 675.86304 175.817014 
L 676.144156 175.817014 
L 676.425311 175.817014 
L 676.706427 175.817014 
L 676.987582 175.817014 
L 677.268697 175.817014 
L 677.549853 175.817014 
L 677.830968 175.817014 
L 678.112124 175.817014 
L 678.393239 175.817014 
L 678.674395 175.817014 
L 678.95551 175.817014 
L 679.236665 175.817014 
L 679.517781 175.817014 
L 679.798936 175.817014 
L 680.080052 175.817014 
L 680.361207 175.817014 
L 680.642322 175.817014 
L 680.923478 175.817014 
L 681.204593 175.817014 
L 681.485749 175.817014 
L 681.766864 175.817014 
L 682.04802 175.817014 
L 682.329135 175.817014 
L 682.610291 175.817014 
L 682.891406 175.817014 
L 683.172561 175.817014 
L 683.453677 175.817014 
L 683.734832 175.817014 
L 684.015948 175.817014 
L 684.297103 175.817014 
L 684.578218 175.817014 
L 684.859374 175.817014 
L 685.140489 175.817014 
L 685.421645 175.817014 
L 685.70276 175.817014 
L 685.983916 175.817014 
L 686.265031 175.817014 
L 686.546186 175.817014 
L 686.827302 175.817014 
L 687.108457 175.817014 
L 687.389573 175.817014 
L 687.670728 175.817014 
L 687.951843 175.817014 
L 688.232999 175.817014 
L 688.514114 175.817014 
L 688.79527 175.817014 
L 689.076385 175.817014 
L 689.357541 175.817014 
L 689.638656 175.817014 
L 689.919811 175.817014 
L 690.200927 175.817014 
L 690.482082 175.817014 
L 690.763198 175.817014 
L 691.044353 175.817014 
L 691.325468 175.817014 
L 691.325468 175.409247 
L 691.325468 175.409247 
L 691.044353 175.018887 
L 690.763198 174.596945 
L 690.482082 174.140026 
L 690.200927 173.643281 
L 689.919811 173.102801 
L 689.638656 172.513276 
L 689.357541 171.86745 
L 689.076385 171.157912 
L 688.79527 170.376795 
L 688.514114 169.514881 
L 688.232999 168.561127 
L 687.951843 167.504289 
L 687.670728 166.331166 
L 687.389573 165.027608 
L 687.108457 163.577134 
L 686.827302 161.963496 
L 686.546186 160.16924 
L 686.265031 158.17567 
L 685.983916 155.963971 
L 685.70276 153.514169 
L 685.421645 150.807752 
L 685.140489 147.825272 
L 684.859374 144.547962 
L 684.578218 140.959025 
L 684.297103 137.043223 
L 684.015948 132.789363 
L 683.734832 128.187673 
L 683.453677 123.23791 
L 683.172561 117.945674 
L 682.891406 112.325237 
L 682.610291 106.394305 
L 682.329135 100.191173 
L 682.04802 93.764035 
L 681.766864 87.172141 
L 681.485749 80.495201 
L 681.204593 73.830869 
L 680.923478 67.281357 
L 680.642322 60.937416 
L 680.361207 54.906174 
L 680.080052 49.294887 
L 679.798936 44.173467 
L 679.517781 39.583382 
L 679.236665 35.577696 
L 678.95551 32.155547 
L 678.674395 29.260615 
L 678.393239 26.870117 
L 678.112124 24.972539 
L 677.830968 23.517232 
L 677.549853 22.483218 
L 677.268697 21.882203 
L 676.987582 21.700573 
L 676.706427 21.923022 
L 676.425311 22.582569 
L 676.144156 23.74238 
L 675.86304 25.47186 
L 675.581885 27.875931 
L 675.30077 31.096913 
L 675.019614 35.305003 
L 674.738499 40.606268 
L 674.457343 47.133817 
L 674.176228 54.977761 
L 673.895072 64.135898 
L 673.613957 74.469386 
L 673.332801 85.802805 
L 673.051686 97.819203 
L 672.770531 110.11999 
L 672.489415 122.274757 
L 672.20826 133.873078 
L 671.927144 144.527793 
L 671.645989 153.945463 
L 671.364874 161.942799 
L 671.083718 168.454385 
L 670.802603 173.526896 
L 670.521447 177.299523 
z
" clip-path="url(#ped562333b0)" style="fill: #d55e00"/>
   </g>
   <g id="PolyCollection_2">
    <path d="M 849.323736 178.106505 
L 849.323736 178.667697 
L 849.604852 178.667697 
L 849.886048 178.667697 
L 850.167163 178.667697 
L 850.448278 178.667697 
L 850.729393 178.667697 
L 851.010589 178.667697 
L 851.291705 178.667697 
L 851.57282 178.667697 
L 851.853935 178.667697 
L 852.135131 178.667697 
L 852.416246 178.667697 
L 852.697362 178.667697 
L 852.978477 178.667697 
L 853.259673 178.667697 
L 853.540788 178.667697 
L 853.821903 178.667697 
L 854.103019 178.667697 
L 854.384214 178.667697 
L 854.66533 178.667697 
L 854.946445 178.667697 
L 855.22756 178.667697 
L 855.508756 178.667697 
L 855.789871 178.667697 
L 856.070987 178.667697 
L 856.352102 178.667697 
L 856.633298 178.667697 
L 856.914413 178.667697 
L 857.195528 178.667697 
L 857.476644 178.667697 
L 857.757839 178.667697 
L 858.038955 178.667697 
L 858.32007 178.667697 
L 858.601185 178.667697 
L 858.882381 178.667697 
L 859.163496 178.667697 
L 859.444612 178.667697 
L 859.725727 178.667697 
L 860.006923 178.667697 
L 860.288038 178.667697 
L 860.569153 178.667697 
L 860.850349 178.667697 
L 861.131464 178.667697 
L 861.41258 178.667697 
L 861.693695 178.667697 
L 861.974891 178.667697 
L 862.256006 178.667697 
L 862.537121 178.667697 
L 862.818237 178.667697 
L 863.099432 178.667697 
L 863.380548 178.667697 
L 863.661663 178.667697 
L 863.942778 178.667697 
L 864.223974 178.667697 
L 864.505089 178.667697 
L 864.786205 178.667697 
L 865.06732 178.667697 
L 865.348516 178.667697 
L 865.629631 178.667697 
L 865.910746 178.667697 
L 866.191862 178.667697 
L 866.473058 178.667697 
L 866.754173 178.667697 
L 867.035288 178.667697 
L 867.316403 178.667697 
L 867.597599 178.667697 
L 867.878715 178.667697 
L 867.878715 178.515387 
L 867.878715 178.515387 
L 867.597599 178.268184 
L 867.316403 177.997855 
L 867.035288 177.701314 
L 866.754173 177.37475 
L 866.473058 177.014171 
L 866.191862 176.615031 
L 865.910746 176.172526 
L 865.629631 175.681351 
L 865.348516 175.135557 
L 865.06732 174.52953 
L 864.786205 173.857421 
L 864.505089 173.112402 
L 864.223974 172.287479 
L 863.942778 171.376462 
L 863.661663 170.371896 
L 863.380548 169.266849 
L 863.099432 168.055052 
L 862.818237 166.73043 
L 862.537121 165.287285 
L 862.256006 163.72154 
L 861.974891 162.029128 
L 861.693695 160.20808 
L 861.41258 158.25839 
L 861.131464 156.181736 
L 860.850349 153.982459 
L 860.569153 151.668566 
L 860.288038 149.250352 
L 860.006923 146.741592 
L 859.725727 144.159356 
L 859.444612 141.522971 
L 859.163496 138.855677 
L 858.882381 136.182307 
L 858.601185 133.530077 
L 858.32007 130.928273 
L 858.038955 128.407997 
L 857.757839 125.99787 
L 857.476644 123.729324 
L 857.195528 121.632674 
L 856.914413 119.737586 
L 856.633298 118.071263 
L 856.352102 116.66171 
L 856.070987 115.536029 
L 855.789871 114.717698 
L 855.508756 114.228714 
L 855.22756 114.091667 
L 854.946445 114.327359 
L 854.66533 114.950514 
L 854.384214 115.980425 
L 854.103019 117.42994 
L 853.821903 119.310694 
L 853.540788 121.629981 
L 853.259673 124.391604 
L 852.978477 127.585055 
L 852.697362 131.193165 
L 852.416246 135.178659 
L 852.135131 139.484779 
L 851.853935 144.031721 
L 851.57282 148.721263 
L 851.291705 153.435859 
L 851.010589 158.050969 
L 850.729393 162.44273 
L 850.448278 166.501192 
L 850.167163 170.138548 
L 849.886048 173.296708 
L 849.604852 175.950094 
L 849.323736 178.106505 
z
" clip-path="url(#ped562333b0)" style="fill: #0072b2"/>
   </g>
   <g id="PathCollection_1">
    <defs>
     <path id="m795a766495" d="M 0 -5.91608 
L -1.328243 -1.828169 
L -5.626526 -1.828169 
L -2.149142 0.698298 
L -3.477384 4.786209 
L -0 2.259741 
L 3.477384 4.786209 
L 2.149142 0.698298 
L 5.626526 -1.828169 
L 1.328243 -1.828169 
z
" style="stroke: #000000; stroke-width: 1.5"/>
    </defs>
    <g clip-path="url(#ped562333b0)">
     <use xlink:href="#m795a766495" x="675.58189" y="11.915105" style="stroke: #000000; stroke-width: 1.5"/>
    </g>
   </g>
   <g id="matplotlib.axis_1">
    <g id="xtick_1">
     <g id="line2d_1">
      <defs>
       <path id="m5f4b569f30" d="M 0 0 
L 0 8 
" style="stroke: #000000; stroke-width: 2"/>
      </defs>
      <g>
       <use xlink:href="#m5f4b569f30" x="122.306852" y="199.12726" style="stroke: #000000; stroke-width: 2"/>
      </g>
     </g>
     <g id="text_1">
      <!-- 0.0 -->
      <g transform="translate(109.796852 225.011323) scale(0.18 -0.18)">
       <defs>
        <path id="Arial-BoldMT-30" d="M 1756 4600 
Q 2422 4600 2797 4125 
Q 3244 3563 3244 2259 
Q 3244 959 2794 391 
Q 2422 -78 1756 -78 
Q 1088 -78 678 436 
Q 269 950 269 2269 
Q 269 3563 719 4131 
Q 1091 4600 1756 4600 
z
M 1756 3872 
Q 1597 3872 1472 3770 
Q 1347 3669 1278 3406 
Q 1188 3066 1188 2259 
Q 1188 1453 1269 1151 
Q 1350 850 1473 750 
Q 1597 650 1756 650 
Q 1916 650 2041 751 
Q 2166 853 2234 1116 
Q 2325 1453 2325 2259 
Q 2325 3066 2244 3367 
Q 2163 3669 2039 3770 
Q 1916 3872 1756 3872 
z
" transform="scale(0.015625)"/>
        <path id="Arial-BoldMT-2e" d="M 459 0 
L 459 878 
L 1338 878 
L 1338 0 
L 459 0 
z
" transform="scale(0.015625)"/>
       </defs>
       <use xlink:href="#Arial-BoldMT-30"/>
       <use xlink:href="#Arial-BoldMT-2e" x="55.615234"/>
       <use xlink:href="#Arial-BoldMT-30" x="83.398438"/>
      </g>
     </g>
    </g>
    <g id="xtick_2">
     <g id="line2d_2">
      <g>
       <use xlink:href="#m5f4b569f30" x="290.988266" y="199.12726" style="stroke: #000000; stroke-width: 2"/>
      </g>
     </g>
     <g id="text_2">
      <!-- 0.5 -->
      <g transform="translate(278.478266 225.011323) scale(0.18 -0.18)">
       <defs>
        <path id="Arial-BoldMT-35" d="M 284 1178 
L 1159 1269 
Q 1197 972 1381 798 
Q 1566 625 1806 625 
Q 2081 625 2272 848 
Q 2463 1072 2463 1522 
Q 2463 1944 2273 2155 
Q 2084 2366 1781 2366 
Q 1403 2366 1103 2031 
L 391 2134 
L 841 4519 
L 3163 4519 
L 3163 3697 
L 1506 3697 
L 1369 2919 
Q 1663 3066 1969 3066 
Q 2553 3066 2959 2641 
Q 3366 2216 3366 1538 
Q 3366 972 3038 528 
Q 2591 -78 1797 -78 
Q 1163 -78 763 262 
Q 363 603 284 1178 
z
" transform="scale(0.015625)"/>
       </defs>
       <use xlink:href="#Arial-BoldMT-30"/>
       <use xlink:href="#Arial-BoldMT-2e" x="55.615234"/>
       <use xlink:href="#Arial-BoldMT-35" x="83.398438"/>
      </g>
     </g>
    </g>
    <g id="xtick_3">
     <g id="line2d_3">
      <g>
       <use xlink:href="#m5f4b569f30" x="459.66968" y="199.12726" style="stroke: #000000; stroke-width: 2"/>
      </g>
     </g>
     <g id="text_3">
      <!-- 1.0 -->
      <g transform="translate(447.15968 225.011323) scale(0.18 -0.18)">
       <defs>
        <path id="Arial-BoldMT-31" d="M 2519 0 
L 1641 0 
L 1641 3309 
Q 1159 2859 506 2644 
L 506 3441 
Q 850 3553 1253 3867 
Q 1656 4181 1806 4600 
L 2519 4600 
L 2519 0 
z
" transform="scale(0.015625)"/>
       </defs>
       <use xlink:href="#Arial-BoldMT-31"/>
       <use xlink:href="#Arial-BoldMT-2e" x="55.615234"/>
       <use xlink:href="#Arial-BoldMT-30" x="83.398438"/>
      </g>
     </g>
    </g>
    <g id="xtick_4">
     <g id="line2d_4">
      <g>
       <use xlink:href="#m5f4b569f30" x="628.351094" y="199.12726" style="stroke: #000000; stroke-width: 2"/>
      </g>
     </g>
     <g id="text_4">
      <!-- 1.5 -->
      <g transform="translate(615.841094 225.011323) scale(0.18 -0.18)">
       <use xlink:href="#Arial-BoldMT-31"/>
       <use xlink:href="#Arial-BoldMT-2e" x="55.615234"/>
       <use xlink:href="#Arial-BoldMT-35" x="83.398438"/>
      </g>
     </g>
    </g>
    <g id="xtick_5">
     <g id="line2d_5">
      <g>
       <use xlink:href="#m5f4b569f30" x="797.032508" y="199.12726" style="stroke: #000000; stroke-width: 2"/>
      </g>
     </g>
     <g id="text_5">
      <!-- 2.0 -->
      <g transform="translate(784.522508 225.011323) scale(0.18 -0.18)">
       <defs>
        <path id="Arial-BoldMT-32" d="M 3238 816 
L 3238 0 
L 159 0 
Q 209 463 459 877 
Q 709 1291 1447 1975 
Q 2041 2528 2175 2725 
Q 2356 2997 2356 3263 
Q 2356 3556 2198 3714 
Q 2041 3872 1763 3872 
Q 1488 3872 1325 3706 
Q 1163 3541 1138 3156 
L 263 3244 
Q 341 3969 753 4284 
Q 1166 4600 1784 4600 
Q 2463 4600 2850 4234 
Q 3238 3869 3238 3325 
Q 3238 3016 3127 2736 
Q 3016 2456 2775 2150 
Q 2616 1947 2200 1565 
Q 1784 1184 1673 1059 
Q 1563 934 1494 816 
L 3238 816 
z
" transform="scale(0.015625)"/>
       </defs>
       <use xlink:href="#Arial-BoldMT-32"/>
       <use xlink:href="#Arial-BoldMT-2e" x="55.615234"/>
       <use xlink:href="#Arial-BoldMT-30" x="83.398438"/>
      </g>
     </g>
    </g>
    <g id="xtick_6">
     <g id="line2d_6">
      <g>
       <use xlink:href="#m5f4b569f30" x="965.713922" y="199.12726" style="stroke: #000000; stroke-width: 2"/>
      </g>
     </g>
     <g id="text_6">
      <!-- 2.5 -->
      <g transform="translate(953.203922 225.011323) scale(0.18 -0.18)">
       <use xlink:href="#Arial-BoldMT-32"/>
       <use xlink:href="#Arial-BoldMT-2e" x="55.615234"/>
       <use xlink:href="#Arial-BoldMT-35" x="83.398438"/>
      </g>
     </g>
    </g>
    <g id="xtick_7">
     <g id="line2d_7">
      <g>
       <use xlink:href="#m5f4b569f30" x="1134.395336" y="199.12726" style="stroke: #000000; stroke-width: 2"/>
      </g>
     </g>
     <g id="text_7">
      <!-- 3.0 -->
      <g transform="translate(1121.885336 225.011323) scale(0.18 -0.18)">
       <defs>
        <path id="Arial-BoldMT-33" d="M 241 1216 
L 1091 1319 
Q 1131 994 1309 822 
Q 1488 650 1741 650 
Q 2013 650 2198 856 
Q 2384 1063 2384 1413 
Q 2384 1744 2206 1937 
Q 2028 2131 1772 2131 
Q 1603 2131 1369 2066 
L 1466 2781 
Q 1822 2772 2009 2936 
Q 2197 3100 2197 3372 
Q 2197 3603 2059 3740 
Q 1922 3878 1694 3878 
Q 1469 3878 1309 3722 
Q 1150 3566 1116 3266 
L 306 3403 
Q 391 3819 561 4067 
Q 731 4316 1036 4458 
Q 1341 4600 1719 4600 
Q 2366 4600 2756 4188 
Q 3078 3850 3078 3425 
Q 3078 2822 2419 2463 
Q 2813 2378 3048 2084 
Q 3284 1791 3284 1375 
Q 3284 772 2843 347 
Q 2403 -78 1747 -78 
Q 1125 -78 715 280 
Q 306 638 241 1216 
z
" transform="scale(0.015625)"/>
       </defs>
       <use xlink:href="#Arial-BoldMT-33"/>
       <use xlink:href="#Arial-BoldMT-2e" x="55.615234"/>
       <use xlink:href="#Arial-BoldMT-30" x="83.398438"/>
      </g>
     </g>
    </g>
    <g id="text_8">
     <!-- Retention time / min -->
     <g transform="translate(542.350469 245.447573) scale(0.18 -0.18)">
      <defs>
       <path id="Arial-BoldMT-52" d="M 469 0 
L 469 4581 
L 2416 4581 
Q 3150 4581 3483 4457 
Q 3816 4334 4016 4018 
Q 4216 3703 4216 3297 
Q 4216 2781 3912 2445 
Q 3609 2109 3006 2022 
Q 3306 1847 3501 1637 
Q 3697 1428 4028 894 
L 4588 0 
L 3481 0 
L 2813 997 
Q 2456 1531 2325 1670 
Q 2194 1809 2047 1861 
Q 1900 1913 1581 1913 
L 1394 1913 
L 1394 0 
L 469 0 
z
M 1394 2644 
L 2078 2644 
Q 2744 2644 2909 2700 
Q 3075 2756 3169 2893 
Q 3263 3031 3263 3238 
Q 3263 3469 3139 3611 
Q 3016 3753 2791 3791 
Q 2678 3806 2116 3806 
L 1394 3806 
L 1394 2644 
z
" transform="scale(0.015625)"/>
       <path id="Arial-BoldMT-65" d="M 2381 1056 
L 3256 909 
Q 3088 428 2723 176 
Q 2359 -75 1813 -75 
Q 947 -75 531 491 
Q 203 944 203 1634 
Q 203 2459 634 2926 
Q 1066 3394 1725 3394 
Q 2466 3394 2894 2905 
Q 3322 2416 3303 1406 
L 1103 1406 
Q 1113 1016 1316 798 
Q 1519 581 1822 581 
Q 2028 581 2168 693 
Q 2309 806 2381 1056 
z
M 2431 1944 
Q 2422 2325 2234 2523 
Q 2047 2722 1778 2722 
Q 1491 2722 1303 2513 
Q 1116 2303 1119 1944 
L 2431 1944 
z
" transform="scale(0.015625)"/>
       <path id="Arial-BoldMT-74" d="M 1981 3319 
L 1981 2619 
L 1381 2619 
L 1381 1281 
Q 1381 875 1398 808 
Q 1416 741 1477 697 
Q 1538 653 1625 653 
Q 1747 653 1978 738 
L 2053 56 
Q 1747 -75 1359 -75 
Q 1122 -75 931 4 
Q 741 84 652 211 
Q 563 338 528 553 
Q 500 706 500 1172 
L 500 2619 
L 97 2619 
L 97 3319 
L 500 3319 
L 500 3978 
L 1381 4491 
L 1381 3319 
L 1981 3319 
z
" transform="scale(0.015625)"/>
       <path id="Arial-BoldMT-6e" d="M 3478 0 
L 2600 0 
L 2600 1694 
Q 2600 2231 2544 2389 
Q 2488 2547 2361 2634 
Q 2234 2722 2056 2722 
Q 1828 2722 1647 2597 
Q 1466 2472 1398 2265 
Q 1331 2059 1331 1503 
L 1331 0 
L 453 0 
L 453 3319 
L 1269 3319 
L 1269 2831 
Q 1703 3394 2363 3394 
Q 2653 3394 2893 3289 
Q 3134 3184 3257 3021 
Q 3381 2859 3429 2653 
Q 3478 2447 3478 2063 
L 3478 0 
z
" transform="scale(0.015625)"/>
       <path id="Arial-BoldMT-69" d="M 459 3769 
L 459 4581 
L 1338 4581 
L 1338 3769 
L 459 3769 
z
M 459 0 
L 459 3319 
L 1338 3319 
L 1338 0 
L 459 0 
z
" transform="scale(0.015625)"/>
       <path id="Arial-BoldMT-6f" d="M 256 1706 
Q 256 2144 472 2553 
Q 688 2963 1083 3178 
Q 1478 3394 1966 3394 
Q 2719 3394 3200 2905 
Q 3681 2416 3681 1669 
Q 3681 916 3195 420 
Q 2709 -75 1972 -75 
Q 1516 -75 1102 131 
Q 688 338 472 736 
Q 256 1134 256 1706 
z
M 1156 1659 
Q 1156 1166 1390 903 
Q 1625 641 1969 641 
Q 2313 641 2545 903 
Q 2778 1166 2778 1666 
Q 2778 2153 2545 2415 
Q 2313 2678 1969 2678 
Q 1625 2678 1390 2415 
Q 1156 2153 1156 1659 
z
" transform="scale(0.015625)"/>
       <path id="Arial-BoldMT-20" transform="scale(0.015625)"/>
       <path id="Arial-BoldMT-6d" d="M 394 3319 
L 1203 3319 
L 1203 2866 
Q 1638 3394 2238 3394 
Q 2556 3394 2790 3262 
Q 3025 3131 3175 2866 
Q 3394 3131 3647 3262 
Q 3900 3394 4188 3394 
Q 4553 3394 4806 3245 
Q 5059 3097 5184 2809 
Q 5275 2597 5275 2122 
L 5275 0 
L 4397 0 
L 4397 1897 
Q 4397 2391 4306 2534 
Q 4184 2722 3931 2722 
Q 3747 2722 3584 2609 
Q 3422 2497 3350 2280 
Q 3278 2063 3278 1594 
L 3278 0 
L 2400 0 
L 2400 1819 
Q 2400 2303 2353 2443 
Q 2306 2584 2207 2653 
Q 2109 2722 1941 2722 
Q 1738 2722 1575 2612 
Q 1413 2503 1342 2297 
Q 1272 2091 1272 1613 
L 1272 0 
L 394 0 
L 394 3319 
z
" transform="scale(0.015625)"/>
       <path id="Arial-BoldMT-2f" d="M -9 -78 
L 1125 4659 
L 1784 4659 
L 638 -78 
L -9 -78 
z
" transform="scale(0.015625)"/>
      </defs>
      <use xlink:href="#Arial-BoldMT-52"/>
      <use xlink:href="#Arial-BoldMT-65" x="72.216797"/>
      <use xlink:href="#Arial-BoldMT-74" x="127.832031"/>
      <use xlink:href="#Arial-BoldMT-65" x="161.132812"/>
      <use xlink:href="#Arial-BoldMT-6e" x="216.748047"/>
      <use xlink:href="#Arial-BoldMT-74" x="277.832031"/>
      <use xlink:href="#Arial-BoldMT-69" x="311.132812"/>
      <use xlink:href="#Arial-BoldMT-6f" x="338.916016"/>
      <use xlink:href="#Arial-BoldMT-6e" x="400"/>
      <use xlink:href="#Arial-BoldMT-20" x="461.083984"/>
      <use xlink:href="#Arial-BoldMT-74" x="488.867188"/>
      <use xlink:href="#Arial-BoldMT-69" x="522.167969"/>
      <use xlink:href="#Arial-BoldMT-6d" x="549.951172"/>
      <use xlink:href="#Arial-BoldMT-65" x="638.867188"/>
      <use xlink:href="#Arial-BoldMT-20" x="694.482422"/>
      <use xlink:href="#Arial-BoldMT-2f" x="722.265625"/>
      <use xlink:href="#Arial-BoldMT-20" x="750.048828"/>
      <use xlink:href="#Arial-BoldMT-6d" x="777.832031"/>
      <use xlink:href="#Arial-BoldMT-69" x="866.748047"/>
      <use xlink:href="#Arial-BoldMT-6e" x="894.53125"/>
     </g>
    </g>
   </g>
   <g id="matplotlib.axis_2">
    <g id="ytick_1">
     <g id="line2d_8">
      <defs>
       <path id="m69fd311b18" d="M 0 0 
L -8 0 
" style="stroke: #000000; stroke-width: 2"/>
      </defs>
      <g>
       <use xlink:href="#m69fd311b18" x="71.702428" y="181.30884" style="stroke: #000000; stroke-width: 2"/>
      </g>
     </g>
     <g id="text_9">
      <!-- 0.00 -->
      <g transform="translate(23.67274 187.750871) scale(0.18 -0.18)">
       <use xlink:href="#Arial-BoldMT-30"/>
       <use xlink:href="#Arial-BoldMT-2e" x="55.615234"/>
       <use xlink:href="#Arial-BoldMT-30" x="83.398438"/>
       <use xlink:href="#Arial-BoldMT-30" x="139.013672"/>
      </g>
     </g>
    </g>
    <g id="ytick_2">
     <g id="line2d_9">
      <g>
       <use xlink:href="#m69fd311b18" x="71.702428" y="141.406773" style="stroke: #000000; stroke-width: 2"/>
      </g>
     </g>
     <g id="text_10">
      <!-- 0.25 -->
      <g transform="translate(23.67274 147.848805) scale(0.18 -0.18)">
       <use xlink:href="#Arial-BoldMT-30"/>
       <use xlink:href="#Arial-BoldMT-2e" x="55.615234"/>
       <use xlink:href="#Arial-BoldMT-32" x="83.398438"/>
       <use xlink:href="#Arial-BoldMT-35" x="139.013672"/>
      </g>
     </g>
    </g>
    <g id="ytick_3">
     <g id="line2d_10">
      <g>
       <use xlink:href="#m69fd311b18" x="71.702428" y="101.504707" style="stroke: #000000; stroke-width: 2"/>
      </g>
     </g>
     <g id="text_11">
      <!-- 0.50 -->
      <g transform="translate(23.67274 107.946738) scale(0.18 -0.18)">
       <use xlink:href="#Arial-BoldMT-30"/>
       <use xlink:href="#Arial-BoldMT-2e" x="55.615234"/>
       <use xlink:href="#Arial-BoldMT-35" x="83.398438"/>
       <use xlink:href="#Arial-BoldMT-30" x="139.013672"/>
      </g>
     </g>
    </g>
    <g id="ytick_4">
     <g id="line2d_11">
      <g>
       <use xlink:href="#m69fd311b18" x="71.702428" y="61.60264" style="stroke: #000000; stroke-width: 2"/>
      </g>
     </g>
     <g id="text_12">
      <!-- 0.75 -->
      <g transform="translate(23.67274 68.044671) scale(0.18 -0.18)">
       <defs>
        <path id="Arial-BoldMT-37" d="M 272 3703 
L 272 4519 
L 3275 4519 
L 3275 3881 
Q 2903 3516 2518 2831 
Q 2134 2147 1932 1376 
Q 1731 606 1734 0 
L 888 0 
Q 909 950 1279 1937 
Q 1650 2925 2269 3703 
L 272 3703 
z
" transform="scale(0.015625)"/>
       </defs>
       <use xlink:href="#Arial-BoldMT-30"/>
       <use xlink:href="#Arial-BoldMT-2e" x="55.615234"/>
       <use xlink:href="#Arial-BoldMT-37" x="83.398438"/>
       <use xlink:href="#Arial-BoldMT-35" x="139.013672"/>
      </g>
     </g>
    </g>
    <g id="ytick_5">
     <g id="line2d_12">
      <g>
       <use xlink:href="#m69fd311b18" x="71.702428" y="21.700573" style="stroke: #000000; stroke-width: 2"/>
      </g>
     </g>
     <g id="text_13">
      <!-- 1.00 -->
      <g transform="translate(23.67274 28.142605) scale(0.18 -0.18)">
       <use xlink:href="#Arial-BoldMT-31"/>
       <use xlink:href="#Arial-BoldMT-2e" x="55.615234"/>
       <use xlink:href="#Arial-BoldMT-30" x="83.398438"/>
       <use xlink:href="#Arial-BoldMT-30" x="139.013672"/>
      </g>
     </g>
    </g>
    <g id="text_14">
     <!-- Rel. Intensity -->
     <g transform="translate(15.884303 157.071875) rotate(-90) scale(0.18 -0.18)">
      <defs>
       <path id="Arial-BoldMT-6c" d="M 459 0 
L 459 4581 
L 1338 4581 
L 1338 0 
L 459 0 
z
" transform="scale(0.015625)"/>
       <path id="Arial-BoldMT-49" d="M 438 0 
L 438 4581 
L 1363 4581 
L 1363 0 
L 438 0 
z
" transform="scale(0.015625)"/>
       <path id="Arial-BoldMT-73" d="M 150 947 
L 1031 1081 
Q 1088 825 1259 692 
Q 1431 559 1741 559 
Q 2081 559 2253 684 
Q 2369 772 2369 919 
Q 2369 1019 2306 1084 
Q 2241 1147 2013 1200 
Q 950 1434 666 1628 
Q 272 1897 272 2375 
Q 272 2806 612 3100 
Q 953 3394 1669 3394 
Q 2350 3394 2681 3172 
Q 3013 2950 3138 2516 
L 2309 2363 
Q 2256 2556 2107 2659 
Q 1959 2763 1684 2763 
Q 1338 2763 1188 2666 
Q 1088 2597 1088 2488 
Q 1088 2394 1175 2328 
Q 1294 2241 1995 2081 
Q 2697 1922 2975 1691 
Q 3250 1456 3250 1038 
Q 3250 581 2869 253 
Q 2488 -75 1741 -75 
Q 1063 -75 667 200 
Q 272 475 150 947 
z
" transform="scale(0.015625)"/>
       <path id="Arial-BoldMT-79" d="M 44 3319 
L 978 3319 
L 1772 963 
L 2547 3319 
L 3456 3319 
L 2284 125 
L 2075 -453 
Q 1959 -744 1854 -897 
Q 1750 -1050 1614 -1145 
Q 1478 -1241 1279 -1294 
Q 1081 -1347 831 -1347 
Q 578 -1347 334 -1294 
L 256 -606 
Q 463 -647 628 -647 
Q 934 -647 1081 -467 
Q 1228 -288 1306 -9 
L 44 3319 
z
" transform="scale(0.015625)"/>
      </defs>
      <use xlink:href="#Arial-BoldMT-52"/>
      <use xlink:href="#Arial-BoldMT-65" x="72.216797"/>
      <use xlink:href="#Arial-BoldMT-6c" x="127.832031"/>
      <use xlink:href="#Arial-BoldMT-2e" x="155.615234"/>
      <use xlink:href="#Arial-BoldMT-20" x="183.398438"/>
      <use xlink:href="#Arial-BoldMT-49" x="211.181641"/>
      <use xlink:href="#Arial-BoldMT-6e" x="238.964844"/>
      <use xlink:href="#Arial-BoldMT-74" x="300.048828"/>
      <use xlink:href="#Arial-BoldMT-65" x="333.349609"/>
      <use xlink:href="#Arial-BoldMT-6e" x="388.964844"/>
      <use xlink:href="#Arial-BoldMT-73" x="450.048828"/>
      <use xlink:href="#Arial-BoldMT-69" x="505.664062"/>
      <use xlink:href="#Arial-BoldMT-74" x="533.447266"/>
      <use xlink:href="#Arial-BoldMT-79" x="566.748047"/>
     </g>
    </g>
   </g>
   <g id="line2d_13">
    <path d="M 122.306852 181.381889 
L 160.260169 181.247907 
L 198.213486 181.232094 
L 202.149387 181.124548 
L 202.711658 180.957892 
L 203.273929 180.555858 
L 203.836199 179.754122 
L 204.398475 178.431563 
L 205.241882 175.599264 
L 206.366423 171.730794 
L 206.928694 170.457927 
L 207.490965 169.818221 
L 207.7721 169.735724 
L 208.053236 169.80218 
L 208.334371 170.015886 
L 208.896642 170.892465 
L 209.458913 172.413626 
L 210.021184 174.599308 
L 211.145725 180.304082 
L 212.270277 185.649006 
L 212.832548 187.567297 
L 213.394819 188.91044 
L 213.95709 189.738884 
L 214.519361 190.14179 
L 215.081631 190.208452 
L 215.643902 190.012173 
L 216.487309 189.375961 
L 218.455256 187.330881 
L 219.860934 186.069579 
L 221.266611 185.111299 
L 223.515704 183.912398 
L 225.764788 182.940565 
L 228.013871 182.227814 
L 230.262954 181.793185 
L 232.793173 181.547722 
L 237.010214 181.394781 
L 246.287693 181.309557 
L 304.763922 181.299695 
L 363.8024 181.217268 
L 377.578056 180.847853 
L 393.883931 180.453025 
L 404.004806 180.38959 
L 416.937055 180.540967 
L 432.680659 181.015115 
L 477.381231 182.693214 
L 490.875732 182.946834 
L 495.936169 182.89552 
L 497.341866 182.673178 
L 498.747523 182.220591 
L 500.153221 181.520084 
L 501.840033 180.39918 
L 507.181626 176.460128 
L 508.306168 176.032585 
L 509.43071 175.872862 
L 510.555251 175.955184 
L 511.960908 176.29603 
L 513.928876 177.051244 
L 516.17796 178.148999 
L 521.800668 181.069866 
L 523.487481 181.512695 
L 525.455449 181.793672 
L 528.266803 181.955283 
L 533.327241 181.965423 
L 544.010387 181.692725 
L 564.533293 181.202258 
L 578.308948 181.144375 
L 589.27325 181.326077 
L 601.362053 181.690503 
L 612.045239 182.139834 
L 650.560812 183.980302 
L 662.087385 184.310696 
L 668.272364 184.332228 
L 668.834635 184.183575 
L 669.11575 183.979516 
L 669.396906 183.593347 
L 669.678021 182.90792 
L 669.959176 181.765899 
L 670.240292 179.97072 
L 670.521447 177.299523 
L 671.083718 168.454385 
L 671.645989 153.945463 
L 672.489415 122.274757 
L 673.895072 64.135898 
L 674.457343 47.133817 
L 675.019614 35.305003 
L 675.581885 27.875931 
L 676.144156 23.74238 
L 676.425311 22.582569 
L 676.706427 21.923022 
L 676.987582 21.700573 
L 677.268697 21.882203 
L 677.549853 22.483218 
L 678.112124 24.972539 
L 678.674395 29.260615 
L 679.236665 35.577696 
L 679.798936 44.173467 
L 680.642322 60.937416 
L 683.453677 123.23791 
L 684.297103 137.043223 
L 685.140489 147.825272 
L 685.983916 155.963971 
L 686.827302 161.963496 
L 687.670728 166.331166 
L 688.514114 169.514881 
L 689.357541 171.86745 
L 690.200927 173.643281 
L 691.325468 175.409247 
L 692.45005 176.708584 
L 693.574592 177.695885 
L 694.980249 178.635245 
L 696.667062 179.472662 
L 698.63503 180.185937 
L 700.884113 180.777474 
L 703.414312 181.211235 
L 706.225666 181.461573 
L 712.972956 181.742962 
L 717.471123 181.762547 
L 763.858488 181.27224 
L 775.38506 181.465996 
L 791.128644 182.071452 
L 829.081986 183.675437 
L 844.82557 183.928217 
L 846.793538 183.838373 
L 847.355768 183.645766 
L 847.918079 183.150683 
L 848.48031 182.027168 
L 849.042621 179.800542 
L 849.604852 175.950094 
L 850.167163 170.138548 
L 851.010589 158.050969 
L 852.697362 131.193165 
L 853.540788 121.629981 
L 854.103019 117.42994 
L 854.66533 114.950514 
L 854.946445 114.327359 
L 855.22756 114.091667 
L 855.508756 114.228714 
L 855.789871 114.717698 
L 856.352102 116.66171 
L 856.914413 119.737586 
L 857.757839 125.99787 
L 859.163496 138.855677 
L 860.850349 153.982459 
L 861.974891 162.029128 
L 862.818237 166.73043 
L 863.661663 170.371896 
L 864.505089 173.112402 
L 865.348516 175.135557 
L 866.191862 176.615031 
L 867.035288 177.701314 
L 868.15983 178.742033 
L 869.284372 179.48801 
L 870.690029 180.169794 
L 872.657997 180.844675 
L 874.90708 181.377797 
L 877.437279 181.761343 
L 880.529788 181.994702 
L 884.74684 182.066436 
L 892.899747 181.955188 
L 909.486757 181.423469 
L 914.547235 181.084565 
L 918.48309 181.167269 
L 924.66811 181.288307 
L 938.443726 181.23758 
L 946.034402 181.146087 
L 956.717588 181.279237 
L 988.204756 181.262646 
L 995.795432 181.224341 
L 1010.976785 181.343362 
L 1053.147139 181.364331 
L 1107.687451 181.391573 
L 1134.11422 181.331328 
L 1134.11422 181.331328 
" clip-path="url(#ped562333b0)" style="fill: none; stroke: #000000; stroke-width: 2.5; stroke-linecap: square"/>
   </g>
   <g id="line2d_14">
    <path d="M 257.251983 199.12726 
L 257.251983 3.00024 
" clip-path="url(#ped562333b0)" style="fill: none; stroke: #d55e00; stroke-width: 2; stroke-linecap: square"/>
   </g>
   <g id="line2d_15">
    <path d="M 1134.395336 199.12726 
L 1134.395336 3.00024 
" clip-path="url(#ped562333b0)" style="fill: none; stroke: #d55e00; stroke-width: 2; stroke-linecap: square"/>
   </g>
   <g id="patch_3">
    <path d="M 71.702428 199.12726 
L 71.702428 3.00024 
" style="fill: none; stroke: #000000; stroke-width: 2; stroke-linejoin: miter; stroke-linecap: square"/>
   </g>
   <g id="patch_4">
    <path d="M 1184.99976 199.12726 
L 1184.99976 3.00024 
" style="fill: none; stroke: #000000; stroke-width: 2; stroke-linejoin: miter; stroke-linecap: square"/>
   </g>
   <g id="patch_5">
    <path d="M 71.702428 199.12726 
L 1184.99976 199.12726 
" style="fill: none; stroke: #000000; stroke-width: 2; stroke-linejoin: miter; stroke-linecap: square"/>
   </g>
   <g id="patch_6">
    <path d="M 71.702428 3.00024 
L 1184.99976 3.00024 
" style="fill: none; stroke: #000000; stroke-width: 2; stroke-linejoin: miter; stroke-linecap: square"/>
   </g>
   <g id="text_15">
    <!-- ANALYSIS -->
    <g style="fill: #d55e00" transform="translate(250.919382 138.727312) rotate(-90) scale(0.14994 -0.14994)">
     <defs>
      <path id="Arial-BoldMT-41" d="M 4597 0 
L 3591 0 
L 3191 1041 
L 1359 1041 
L 981 0 
L 0 0 
L 1784 4581 
L 2763 4581 
L 4597 0 
z
M 2894 1813 
L 2263 3513 
L 1644 1813 
L 2894 1813 
z
" transform="scale(0.015625)"/>
      <path id="Arial-BoldMT-4e" d="M 475 0 
L 475 4581 
L 1375 4581 
L 3250 1522 
L 3250 4581 
L 4109 4581 
L 4109 0 
L 3181 0 
L 1334 2988 
L 1334 0 
L 475 0 
z
" transform="scale(0.015625)"/>
      <path id="Arial-BoldMT-4c" d="M 491 0 
L 491 4544 
L 1416 4544 
L 1416 772 
L 3716 772 
L 3716 0 
L 491 0 
z
" transform="scale(0.015625)"/>
      <path id="Arial-BoldMT-59" d="M 1669 0 
L 1669 1928 
L -9 4581 
L 1075 4581 
L 2153 2769 
L 3209 4581 
L 4275 4581 
L 2591 1922 
L 2591 0 
L 1669 0 
z
" transform="scale(0.015625)"/>
      <path id="Arial-BoldMT-53" d="M 231 1491 
L 1131 1578 
Q 1213 1125 1461 912 
Q 1709 700 2131 700 
Q 2578 700 2804 889 
Q 3031 1078 3031 1331 
Q 3031 1494 2936 1608 
Q 2841 1722 2603 1806 
Q 2441 1863 1863 2006 
Q 1119 2191 819 2459 
Q 397 2838 397 3381 
Q 397 3731 595 4036 
Q 794 4341 1167 4500 
Q 1541 4659 2069 4659 
Q 2931 4659 3367 4281 
Q 3803 3903 3825 3272 
L 2900 3231 
Q 2841 3584 2645 3739 
Q 2450 3894 2059 3894 
Q 1656 3894 1428 3728 
Q 1281 3622 1281 3444 
Q 1281 3281 1419 3166 
Q 1594 3019 2269 2859 
Q 2944 2700 3267 2529 
Q 3591 2359 3773 2064 
Q 3956 1769 3956 1334 
Q 3956 941 3737 597 
Q 3519 253 3119 86 
Q 2719 -81 2122 -81 
Q 1253 -81 787 320 
Q 322 722 231 1491 
z
" transform="scale(0.015625)"/>
     </defs>
     <use xlink:href="#Arial-BoldMT-41"/>
     <use xlink:href="#Arial-BoldMT-4e" x="72.216797"/>
     <use xlink:href="#Arial-BoldMT-41" x="144.433594"/>
     <use xlink:href="#Arial-BoldMT-4c" x="216.650391"/>
     <use xlink:href="#Arial-BoldMT-59" x="268.609375"/>
     <use xlink:href="#Arial-BoldMT-53" x="335.308594"/>
     <use xlink:href="#Arial-BoldMT-49" x="402.007812"/>
     <use xlink:href="#Arial-BoldMT-53" x="429.791016"/>
    </g>
   </g>
   <g id="text_16">
    <!-- START -->
    <g style="fill: #d55e00" transform="translate(274.731664 125.93907) rotate(-90) scale(0.14994 -0.14994)">
     <defs>
      <path id="Arial-BoldMT-54" d="M 1497 0 
L 1497 3806 
L 138 3806 
L 138 4581 
L 3778 4581 
L 3778 3806 
L 2422 3806 
L 2422 0 
L 1497 0 
z
" transform="scale(0.015625)"/>
     </defs>
     <use xlink:href="#Arial-BoldMT-53"/>
     <use xlink:href="#Arial-BoldMT-54" x="66.699219"/>
     <use xlink:href="#Arial-BoldMT-41" x="120.408203"/>
     <use xlink:href="#Arial-BoldMT-52" x="192.625"/>
     <use xlink:href="#Arial-BoldMT-54" x="264.841797"/>
    </g>
   </g>
   <g id="text_17">
    <!-- ANALYSIS -->
    <g style="fill: #d55e00" transform="translate(1128.062735 138.727312) rotate(-90) scale(0.14994 -0.14994)">
     <use xlink:href="#Arial-BoldMT-41"/>
     <use xlink:href="#Arial-BoldMT-4e" x="72.216797"/>
     <use xlink:href="#Arial-BoldMT-41" x="144.433594"/>
     <use xlink:href="#Arial-BoldMT-4c" x="216.650391"/>
     <use xlink:href="#Arial-BoldMT-59" x="268.609375"/>
     <use xlink:href="#Arial-BoldMT-53" x="335.308594"/>
     <use xlink:href="#Arial-BoldMT-49" x="402.007812"/>
     <use xlink:href="#Arial-BoldMT-53" x="429.791016"/>
    </g>
   </g>
   <g id="text_18">
    <!-- END -->
    <g style="fill: #d55e00" transform="translate(1151.875016 117.333919) rotate(-90) scale(0.14994 -0.14994)">
     <defs>
      <path id="Arial-BoldMT-45" d="M 466 0 
L 466 4581 
L 3863 4581 
L 3863 3806 
L 1391 3806 
L 1391 2791 
L 3691 2791 
L 3691 2019 
L 1391 2019 
L 1391 772 
L 3950 772 
L 3950 0 
L 466 0 
z
" transform="scale(0.015625)"/>
      <path id="Arial-BoldMT-44" d="M 463 4581 
L 2153 4581 
Q 2725 4581 3025 4494 
Q 3428 4375 3715 4072 
Q 4003 3769 4153 3330 
Q 4303 2891 4303 2247 
Q 4303 1681 4163 1272 
Q 3991 772 3672 463 
Q 3431 228 3022 97 
Q 2716 0 2203 0 
L 463 0 
L 463 4581 
z
M 1388 3806 
L 1388 772 
L 2078 772 
Q 2466 772 2638 816 
Q 2863 872 3011 1006 
Q 3159 1141 3253 1448 
Q 3347 1756 3347 2288 
Q 3347 2819 3253 3103 
Q 3159 3388 2990 3547 
Q 2822 3706 2563 3763 
Q 2369 3806 1803 3806 
L 1388 3806 
z
" transform="scale(0.015625)"/>
     </defs>
     <use xlink:href="#Arial-BoldMT-45"/>
     <use xlink:href="#Arial-BoldMT-4e" x="66.699219"/>
     <use xlink:href="#Arial-BoldMT-44" x="138.916016"/>
    </g>
   </g>
  </g>
 </g>
 <defs>
  <clipPath id="ped562333b0">
   <rect x="71.702428" y="3.00024" width="1113.297333" height="196.12702"/>
  </clipPath>
 </defs>
</svg>
