<?xml version="1.0" encoding="utf-8" standalone="no"?>
<!DOCTYPE svg PUBLIC "-//W3C//DTD SVG 1.1//EN"
  "http://www.w3.org/Graphics/SVG/1.1/DTD/svg11.dtd">
<svg xmlns:xlink="http://www.w3.org/1999/xlink" width="1188pt" height="252pt" viewBox="0 0 1188 252" xmlns="http://www.w3.org/2000/svg" version="1.1">
 <metadata>
  <rdf:RDF xmlns:dc="http://purl.org/dc/elements/1.1/" xmlns:cc="http://creativecommons.org/ns#" xmlns:rdf="http://www.w3.org/1999/02/22-rdf-syntax-ns#">
   <cc:Work>
    <dc:type rdf:resource="http://purl.org/dc/dcmitype/StillImage"/>
    <dc:date>2024-05-14T22:48:46.171285</dc:date>
    <dc:format>image/svg+xml</dc:format>
    <dc:creator>
     <cc:Agent>
      <dc:title>Matplotlib v3.8.0, https://matplotlib.org/</dc:title>
     </cc:Agent>
    </dc:creator>
   </cc:Work>
  </rdf:RDF>
 </metadata>
 <defs>
  <style type="text/css">*{stroke-linejoin: round; stroke-linecap: butt}</style>
 </defs>
 <g id="figure_1">
  <g id="patch_1">
   <path d="M 0 252 
L 1188 252 
L 1188 0 
L 0 0 
z
" style="fill: #ffffff"/>
  </g>
  <g id="axes_1">
   <g id="patch_2">
    <path d="M 71.702428 199.12726 
L 1184.99976 199.12726 
L 1184.99976 3.00024 
L 71.702428 3.00024 
z
" style="fill: #ffffff"/>
   </g>
   <g id="PolyCollection_1">
    <path d="M 491.54056 183.334475 
L 491.54056 183.323524 
L 491.821794 183.323524 
L 492.102987 183.323524 
L 492.384221 183.323524 
L 492.665414 183.323524 
L 492.946648 183.323524 
L 493.227841 183.323524 
L 493.509075 183.323524 
L 493.790268 183.323524 
L 494.071502 183.323524 
L 494.352695 183.323524 
L 494.633929 183.323524 
L 494.915122 183.323524 
L 495.196356 183.323524 
L 495.477549 183.323524 
L 495.758783 183.323524 
L 496.039977 183.323524 
L 496.32121 183.323524 
L 496.602404 183.323524 
L 496.883637 183.323524 
L 497.164831 183.323524 
L 497.446064 183.323524 
L 497.727258 183.323524 
L 498.008491 183.323524 
L 498.289685 183.323524 
L 498.570918 183.323524 
L 498.852112 183.323524 
L 499.133345 183.323524 
L 499.414539 183.323524 
L 499.695773 183.323524 
L 499.976966 183.323524 
L 500.2582 183.323524 
L 500.539393 183.323524 
L 500.820627 183.323524 
L 501.10182 183.323524 
L 501.383054 183.323524 
L 501.664247 183.323524 
L 501.945481 183.323524 
L 502.226714 183.323524 
L 502.507908 183.323524 
L 502.789141 183.323524 
L 503.070335 183.323524 
L 503.351569 183.323524 
L 503.632762 183.323524 
L 503.913996 183.323524 
L 504.195189 183.323524 
L 504.476423 183.323524 
L 504.757616 183.323524 
L 505.03885 183.323524 
L 505.320043 183.323524 
L 505.601277 183.323524 
L 505.88247 183.323524 
L 506.163704 183.323524 
L 506.444897 183.323524 
L 506.726131 183.323524 
L 507.007324 183.323524 
L 507.288558 183.323524 
L 507.569751 183.323524 
L 507.850985 183.323524 
L 508.132178 183.323524 
L 508.413412 183.323524 
L 508.694606 183.323524 
L 508.975839 183.323524 
L 509.257033 183.323524 
L 509.538266 183.323524 
L 509.81946 183.323524 
L 510.100693 183.323524 
L 510.381887 183.323524 
L 510.66312 183.323524 
L 510.944314 183.323524 
L 511.225547 183.323524 
L 511.506741 183.323524 
L 511.787974 183.323524 
L 512.069168 183.323524 
L 512.350402 183.323524 
L 512.631595 183.323524 
L 512.912829 183.323524 
L 513.194022 183.323524 
L 513.475256 183.323524 
L 513.756449 183.323524 
L 514.037683 183.323524 
L 514.318876 183.323524 
L 514.60011 183.323524 
L 514.881303 183.323524 
L 515.162537 183.323524 
L 515.44373 183.323524 
L 515.724964 183.323524 
L 516.006157 183.323524 
L 516.287391 183.323524 
L 516.568584 183.323524 
L 516.849818 183.323524 
L 517.131011 183.323524 
L 517.412245 183.323524 
L 517.693439 183.323524 
L 517.974672 183.323524 
L 518.255866 183.323524 
L 518.537099 183.323524 
L 518.818293 183.323524 
L 519.099526 183.323524 
L 519.38072 183.323524 
L 519.661953 183.323524 
L 519.943147 183.323524 
L 520.22438 183.323524 
L 520.505574 183.323524 
L 520.786807 183.323524 
L 521.068001 183.323524 
L 521.349235 183.323524 
L 521.630428 183.323524 
L 521.911662 183.323524 
L 522.192855 183.323524 
L 522.474089 183.323524 
L 522.755282 183.323524 
L 523.036516 183.323524 
L 523.317749 183.323524 
L 523.598943 183.323524 
L 523.880176 183.323524 
L 524.16137 183.323524 
L 524.442603 183.323524 
L 524.723797 183.323524 
L 525.005031 183.323524 
L 525.286224 183.323524 
L 525.567458 183.323524 
L 525.848651 183.323524 
L 526.129885 183.323524 
L 526.411078 183.323524 
L 526.692312 183.323524 
L 526.973505 183.323524 
L 527.254739 183.323524 
L 527.535932 183.323524 
L 527.817166 183.323524 
L 528.098359 183.323524 
L 528.379593 183.323524 
L 528.660786 183.323524 
L 528.94202 183.323524 
L 529.223213 183.323524 
L 529.504447 183.323524 
L 529.78564 183.323524 
L 530.066874 183.323524 
L 530.348068 183.323524 
L 530.629301 183.323524 
L 530.910495 183.323524 
L 531.191728 183.323524 
L 531.472922 183.323524 
L 531.754155 183.323524 
L 532.035349 183.323524 
L 532.316582 183.323524 
L 532.597776 183.323524 
L 532.879009 183.323524 
L 533.160203 183.323524 
L 533.441436 183.323524 
L 533.72263 183.323524 
L 534.003864 183.323524 
L 534.285057 183.323524 
L 534.566291 183.323524 
L 534.847484 183.323524 
L 535.128718 183.323524 
L 535.409911 183.323524 
L 535.691145 183.323524 
L 535.972338 183.323524 
L 536.253572 183.323524 
L 536.534765 183.323524 
L 536.534765 183.308653 
L 536.534765 183.308653 
L 536.253572 183.279709 
L 535.972338 183.248161 
L 535.691145 183.213317 
L 535.409911 183.175342 
L 535.128718 183.134368 
L 534.847484 183.090831 
L 534.566291 183.04426 
L 534.285057 182.993913 
L 534.003864 182.939792 
L 533.72263 182.881575 
L 533.441436 182.818485 
L 533.160203 182.750093 
L 532.879009 182.676789 
L 532.597776 182.597977 
L 532.316582 182.513553 
L 532.035349 182.422931 
L 531.754155 182.326864 
L 531.472922 182.224838 
L 531.191728 182.116526 
L 530.910495 182.001713 
L 530.629301 181.881117 
L 530.348068 181.753157 
L 530.066874 181.617729 
L 529.78564 181.474826 
L 529.504447 181.32382 
L 529.223213 181.164261 
L 528.94202 180.997932 
L 528.660786 180.82429 
L 528.379593 180.643751 
L 528.098359 180.457641 
L 527.817166 180.265324 
L 527.535932 180.065219 
L 527.254739 179.859597 
L 526.973505 179.647928 
L 526.692312 179.428984 
L 526.411078 179.204897 
L 526.129885 178.97708 
L 525.848651 178.743634 
L 525.567458 178.506174 
L 525.286224 178.265579 
L 525.005031 178.02045 
L 524.723797 177.771386 
L 524.442603 177.51928 
L 524.16137 177.263063 
L 523.880176 177.00374 
L 523.598943 176.742098 
L 523.317749 176.476617 
L 523.036516 176.207962 
L 522.755282 175.936385 
L 522.474089 175.660899 
L 522.192855 175.381458 
L 521.911662 175.099728 
L 521.630428 174.81446 
L 521.349235 174.52642 
L 521.068001 174.234809 
L 520.786807 173.94017 
L 520.505574 173.641556 
L 520.22438 173.339533 
L 519.943147 173.033608 
L 519.661953 172.724993 
L 519.38072 172.412013 
L 519.099526 172.094441 
L 518.818293 171.77184 
L 518.537099 171.443733 
L 518.255866 171.109283 
L 517.974672 170.768374 
L 517.693439 170.419886 
L 517.412245 170.063047 
L 517.131011 169.695802 
L 516.849818 169.317268 
L 516.568584 168.926135 
L 516.287391 168.522225 
L 516.006157 168.10493 
L 515.724964 167.675304 
L 515.44373 167.233106 
L 515.162537 166.779506 
L 514.881303 166.31486 
L 514.60011 165.840622 
L 514.318876 165.358106 
L 514.037683 164.868476 
L 513.756449 164.373869 
L 513.475256 163.877359 
L 513.194022 163.380315 
L 512.912829 162.883978 
L 512.631595 162.391967 
L 512.350402 161.905303 
L 512.069168 161.424459 
L 511.787974 160.950798 
L 511.506741 160.486407 
L 511.225547 160.029939 
L 510.944314 159.583094 
L 510.66312 159.144976 
L 510.381887 158.71655 
L 510.100693 158.296662 
L 509.81946 157.884931 
L 509.538266 157.477238 
L 509.257033 157.073347 
L 508.975839 156.669775 
L 508.694606 156.261076 
L 508.413412 155.843243 
L 508.132178 155.4142 
L 507.850985 154.966507 
L 507.569751 154.493504 
L 507.288558 153.993107 
L 507.007324 153.458142 
L 506.726131 152.880148 
L 506.444897 152.254176 
L 506.163704 151.572533 
L 505.88247 150.82408 
L 505.601277 149.999646 
L 505.320043 149.091292 
L 505.03885 148.090248 
L 504.757616 146.988964 
L 504.476423 145.782004 
L 504.195189 144.469934 
L 503.913996 143.051289 
L 503.632762 141.531004 
L 503.351569 139.918399 
L 503.070335 138.232504 
L 502.789141 136.49425 
L 502.507908 134.734767 
L 502.226714 132.989293 
L 501.945481 131.299433 
L 501.664247 129.694625 
L 501.383054 128.207057 
L 501.10182 126.865273 
L 500.820627 125.685267 
L 500.539393 124.678153 
L 500.2582 123.861828 
L 499.976966 123.242203 
L 499.695773 122.818495 
L 499.414539 122.597545 
L 499.133345 122.579167 
L 498.852112 122.758008 
L 498.570918 123.131631 
L 498.289685 123.703908 
L 498.008491 124.472798 
L 497.727258 125.442453 
L 497.446064 126.624197 
L 497.164831 128.033035 
L 496.883637 129.690758 
L 496.602404 131.622761 
L 496.32121 133.855005 
L 496.039977 136.405475 
L 495.758783 139.286445 
L 495.477549 142.483148 
L 495.196356 145.963313 
L 494.915122 149.669398 
L 494.633929 153.524724 
L 494.352695 157.429992 
L 494.071502 161.283954 
L 493.790268 164.986978 
L 493.509075 168.452939 
L 493.227841 171.614702 
L 492.946648 174.432675 
L 492.665414 176.888335 
L 492.384221 178.985031 
L 492.102987 180.739742 
L 491.821794 182.17889 
L 491.54056 183.334475 
z
" clip-path="url(#peba2970518)" style="fill: #d55e00"/>
   </g>
   <g id="PolyCollection_2">
    <path d="M 761.787025 182.838294 
L 761.787025 183.04121 
L 762.068259 183.04121 
L 762.349452 183.04121 
L 762.630686 183.04121 
L 762.911879 183.04121 
L 763.193113 183.04121 
L 763.474306 183.04121 
L 763.75554 183.04121 
L 764.036733 183.04121 
L 764.317967 183.04121 
L 764.59916 183.04121 
L 764.880394 183.04121 
L 765.161587 183.04121 
L 765.442821 183.04121 
L 765.724014 183.04121 
L 766.005248 183.04121 
L 766.286441 183.04121 
L 766.567675 183.04121 
L 766.848868 183.04121 
L 767.130102 183.04121 
L 767.411296 183.04121 
L 767.692529 183.04121 
L 767.973723 183.04121 
L 768.254956 183.04121 
L 768.53615 183.04121 
L 768.817383 183.04121 
L 769.098577 183.04121 
L 769.37981 183.04121 
L 769.661004 183.04121 
L 769.942237 183.04121 
L 770.223431 183.04121 
L 770.504664 183.04121 
L 770.785858 183.04121 
L 771.067092 183.04121 
L 771.348285 183.04121 
L 771.629519 183.04121 
L 771.910712 183.04121 
L 772.191946 183.04121 
L 772.473139 183.04121 
L 772.754373 183.04121 
L 773.035566 183.04121 
L 773.3168 183.04121 
L 773.597993 183.04121 
L 773.879227 183.04121 
L 774.16042 183.04121 
L 774.441654 183.04121 
L 774.722847 183.04121 
L 775.004081 183.04121 
L 775.285274 183.04121 
L 775.566508 183.04121 
L 775.847701 183.04121 
L 776.128935 183.04121 
L 776.410169 183.04121 
L 776.691362 183.04121 
L 776.972596 183.04121 
L 777.253789 183.04121 
L 777.535023 183.04121 
L 777.816216 183.04121 
L 778.09745 183.04121 
L 778.378643 183.04121 
L 778.659877 183.04121 
L 778.94107 183.04121 
L 779.222304 183.04121 
L 779.503497 183.04121 
L 779.784731 183.04121 
L 780.065925 183.04121 
L 780.347158 183.04121 
L 780.628352 183.04121 
L 780.909585 183.04121 
L 781.190779 183.04121 
L 781.472012 183.04121 
L 781.753206 183.04121 
L 782.034439 183.04121 
L 782.315633 183.04121 
L 782.596866 183.04121 
L 782.87806 183.04121 
L 783.159293 183.04121 
L 783.440487 183.04121 
L 783.440487 182.997241 
L 783.440487 182.997241 
L 783.159293 182.928856 
L 782.87806 182.857065 
L 782.596866 182.781526 
L 782.315633 182.702259 
L 782.034439 182.61901 
L 781.753206 182.530935 
L 781.472012 182.438156 
L 781.190779 182.340368 
L 780.909585 182.236225 
L 780.628352 182.125496 
L 780.347158 182.007496 
L 780.065925 181.880953 
L 779.784731 181.744963 
L 779.503497 181.599065 
L 779.222304 181.441571 
L 778.94107 181.27116 
L 778.659877 181.08688 
L 778.378643 180.887384 
L 778.09745 180.670756 
L 777.816216 180.43541 
L 777.535023 180.179706 
L 777.253789 179.901256 
L 776.972596 179.597421 
L 776.691362 179.266314 
L 776.410169 178.905836 
L 776.128935 178.513692 
L 775.847701 178.087703 
L 775.566508 177.626022 
L 775.285274 177.126442 
L 775.004081 176.586899 
L 774.722847 176.00563 
L 774.441654 175.381777 
L 774.16042 174.71491 
L 773.879227 174.004999 
L 773.597993 173.253034 
L 773.3168 172.460617 
L 773.035566 171.629729 
L 772.754373 170.763838 
L 772.473139 169.866933 
L 772.191946 168.94477 
L 771.910712 168.003755 
L 771.629519 167.052172 
L 771.348285 166.098217 
L 771.067092 165.152415 
L 770.785858 164.224414 
L 770.504664 163.325548 
L 770.223431 162.466718 
L 769.942237 161.659638 
L 769.661004 160.915226 
L 769.37981 160.244808 
L 769.098577 159.658656 
L 768.817383 159.166695 
L 768.53615 158.778025 
L 768.254956 158.50043 
L 767.973723 158.342013 
L 767.692529 158.309262 
L 767.411296 158.408687 
L 767.130102 158.645455 
L 766.848868 159.02554 
L 766.567675 159.553856 
L 766.286441 160.235787 
L 766.005248 161.075748 
L 765.724014 162.079696 
L 765.442821 163.250122 
L 765.161587 164.585981 
L 764.880394 166.081415 
L 764.59916 167.721658 
L 764.317967 169.480242 
L 764.036733 171.320386 
L 763.75554 173.193671 
L 763.474306 175.04286 
L 763.193113 176.808585 
L 762.911879 178.434022 
L 762.630686 179.871702 
L 762.349452 181.090231 
L 762.068259 182.077365 
L 761.787025 182.838294 
z
" clip-path="url(#peba2970518)" style="fill: #0072b2"/>
   </g>
   <g id="PolyCollection_3">
    <path d="M 848.400873 173.982114 
L 848.400873 175.123279 
L 848.682066 175.123279 
L 848.96334 175.123279 
L 849.244534 175.123279 
L 849.525727 175.123279 
L 849.80692 175.123279 
L 850.088194 175.123279 
L 850.369388 175.123279 
L 850.650581 175.123279 
L 850.931775 175.123279 
L 851.213048 175.123279 
L 851.494242 175.123279 
L 851.775435 175.123279 
L 852.056629 175.123279 
L 852.337903 175.123279 
L 852.619096 175.123279 
L 852.900289 175.123279 
L 853.181483 175.123279 
L 853.462757 175.123279 
L 853.74395 175.123279 
L 854.025144 175.123279 
L 854.306337 175.123279 
L 854.587611 175.123279 
L 854.868804 175.123279 
L 855.149998 175.123279 
L 855.431191 175.123279 
L 855.712465 175.123279 
L 855.993658 175.123279 
L 856.274852 175.123279 
L 856.556045 175.123279 
L 856.837319 175.123279 
L 857.118513 175.123279 
L 857.399706 175.123279 
L 857.680899 175.123279 
L 857.962173 175.123279 
L 858.243367 175.123279 
L 858.52456 175.123279 
L 858.805753 175.123279 
L 859.087027 175.123279 
L 859.368221 175.123279 
L 859.649414 175.123279 
L 859.930608 175.123279 
L 860.211881 175.123279 
L 860.493075 175.123279 
L 860.774268 175.123279 
L 861.055542 175.123279 
L 861.336736 175.123279 
L 861.617929 175.123279 
L 861.899122 175.123279 
L 862.180396 175.123279 
L 862.46159 175.123279 
L 862.742783 175.123279 
L 863.023977 175.123279 
L 863.30525 175.123279 
L 863.586444 175.123279 
L 863.867637 175.123279 
L 864.148831 175.123279 
L 864.430105 175.123279 
L 864.711298 175.123279 
L 864.992491 175.123279 
L 865.273685 175.123279 
L 865.554959 175.123279 
L 865.836152 175.123279 
L 866.117346 175.123279 
L 866.398539 175.123279 
L 866.679813 175.123279 
L 866.961006 175.123279 
L 867.2422 175.123279 
L 867.523393 175.123279 
L 867.804667 175.123279 
L 868.08586 175.123279 
L 868.367054 175.123279 
L 868.648247 175.123279 
L 868.929521 175.123279 
L 869.210714 175.123279 
L 869.491908 175.123279 
L 869.773101 175.123279 
L 870.054375 175.123279 
L 870.335569 175.123279 
L 870.616762 175.123279 
L 870.897955 175.123279 
L 871.179229 175.123279 
L 871.460423 175.123279 
L 871.741616 175.123279 
L 872.02281 175.123279 
L 872.304083 175.123279 
L 872.585277 175.123279 
L 872.86647 175.123279 
L 873.147664 175.123279 
L 873.147664 174.741822 
L 873.147664 174.741822 
L 872.86647 174.281968 
L 872.585277 173.793709 
L 872.304083 173.275684 
L 872.02281 172.727476 
L 871.741616 172.147631 
L 871.460423 171.533815 
L 871.179229 170.881625 
L 870.897955 170.186604 
L 870.616762 169.443626 
L 870.335569 168.648898 
L 870.054375 167.799157 
L 869.773101 166.89093 
L 869.491908 165.919408 
L 869.210714 164.877474 
L 868.929521 163.756364 
L 868.648247 162.546559 
L 868.367054 161.239516 
L 868.08586 159.825388 
L 867.804667 158.294537 
L 867.523393 156.634346 
L 867.2422 154.829485 
L 866.961006 152.860622 
L 866.679813 150.707511 
L 866.398539 148.349026 
L 866.117346 145.764347 
L 865.836152 142.930597 
L 865.554959 139.823585 
L 865.273685 136.414487 
L 864.992491 132.674087 
L 864.711298 128.571395 
L 864.430105 124.0796 
L 864.148831 119.174804 
L 863.867637 113.845576 
L 863.586444 108.078429 
L 863.30525 101.877629 
L 863.023977 95.256142 
L 862.742783 88.253568 
L 862.46159 80.927857 
L 862.180396 73.400172 
L 861.899122 65.781553 
L 861.617929 58.258785 
L 861.336736 51.028523 
L 861.055542 44.276926 
L 860.774268 38.13026 
L 860.493075 32.775131 
L 860.211881 28.240167 
L 859.930608 24.529382 
L 859.649414 21.566397 
L 859.368221 19.303613 
L 859.087027 17.575435 
L 858.805753 16.271858 
L 858.52456 15.25545 
L 858.243367 14.512173 
L 857.962173 13.940161 
L 857.680899 13.481263 
L 857.399706 13.122213 
L 857.118513 12.848992 
L 856.837319 12.581654 
L 856.556045 12.35689 
L 856.274852 12.166171 
L 855.993658 12.011233 
L 855.712465 11.921202 
L 855.431191 11.915105 
L 855.149998 11.915838 
L 854.868804 11.994407 
L 854.587611 12.126422 
L 854.306337 12.261674 
L 854.025144 12.45992 
L 853.74395 12.721125 
L 853.462757 12.995437 
L 853.181483 13.349659 
L 852.900289 13.887054 
L 852.619096 14.608838 
L 852.337903 15.875115 
L 852.056629 18.166991 
L 851.775435 22.115182 
L 851.494242 28.460121 
L 851.213048 37.892318 
L 850.931775 50.587435 
L 850.650581 66.202784 
L 850.369388 83.816448 
L 850.088194 102.107569 
L 849.80692 119.718542 
L 849.525727 135.555704 
L 849.244534 148.945699 
L 848.96334 159.678699 
L 848.682066 167.910064 
L 848.400873 173.982114 
z
" clip-path="url(#peba2970518)" style="fill: #009e73"/>
   </g>
   <g id="matplotlib.axis_1">
    <g id="xtick_1">
     <g id="line2d_1">
      <defs>
       <path id="m556e0de76a" d="M 0 0 
L 0 8 
" style="stroke: #000000; stroke-width: 2"/>
      </defs>
      <g>
       <use xlink:href="#m556e0de76a" x="122.306852" y="199.12726" style="stroke: #000000; stroke-width: 2"/>
      </g>
     </g>
     <g id="text_1">
      <!-- 0.0 -->
      <g transform="translate(109.796852 225.011323) scale(0.18 -0.18)">
       <defs>
        <path id="Arial-BoldMT-30" d="M 1756 4600 
Q 2422 4600 2797 4125 
Q 3244 3563 3244 2259 
Q 3244 959 2794 391 
Q 2422 -78 1756 -78 
Q 1088 -78 678 436 
Q 269 950 269 2269 
Q 269 3563 719 4131 
Q 1091 4600 1756 4600 
z
M 1756 3872 
Q 1597 3872 1472 3770 
Q 1347 3669 1278 3406 
Q 1188 3066 1188 2259 
Q 1188 1453 1269 1151 
Q 1350 850 1473 750 
Q 1597 650 1756 650 
Q 1916 650 2041 751 
Q 2166 853 2234 1116 
Q 2325 1453 2325 2259 
Q 2325 3066 2244 3367 
Q 2163 3669 2039 3770 
Q 1916 3872 1756 3872 
z
" transform="scale(0.015625)"/>
        <path id="Arial-BoldMT-2e" d="M 459 0 
L 459 878 
L 1338 878 
L 1338 0 
L 459 0 
z
" transform="scale(0.015625)"/>
       </defs>
       <use xlink:href="#Arial-BoldMT-30"/>
       <use xlink:href="#Arial-BoldMT-2e" x="55.615234"/>
       <use xlink:href="#Arial-BoldMT-30" x="83.398438"/>
      </g>
     </g>
    </g>
    <g id="xtick_2">
     <g id="line2d_2">
      <g>
       <use xlink:href="#m556e0de76a" x="291.035131" y="199.12726" style="stroke: #000000; stroke-width: 2"/>
      </g>
     </g>
     <g id="text_2">
      <!-- 0.5 -->
      <g transform="translate(278.525131 225.011323) scale(0.18 -0.18)">
       <defs>
        <path id="Arial-BoldMT-35" d="M 284 1178 
L 1159 1269 
Q 1197 972 1381 798 
Q 1566 625 1806 625 
Q 2081 625 2272 848 
Q 2463 1072 2463 1522 
Q 2463 1944 2273 2155 
Q 2084 2366 1781 2366 
Q 1403 2366 1103 2031 
L 391 2134 
L 841 4519 
L 3163 4519 
L 3163 3697 
L 1506 3697 
L 1369 2919 
Q 1663 3066 1969 3066 
Q 2553 3066 2959 2641 
Q 3366 2216 3366 1538 
Q 3366 972 3038 528 
Q 2591 -78 1797 -78 
Q 1163 -78 763 262 
Q 363 603 284 1178 
z
" transform="scale(0.015625)"/>
       </defs>
       <use xlink:href="#Arial-BoldMT-30"/>
       <use xlink:href="#Arial-BoldMT-2e" x="55.615234"/>
       <use xlink:href="#Arial-BoldMT-35" x="83.398438"/>
      </g>
     </g>
    </g>
    <g id="xtick_3">
     <g id="line2d_3">
      <g>
       <use xlink:href="#m556e0de76a" x="459.763411" y="199.12726" style="stroke: #000000; stroke-width: 2"/>
      </g>
     </g>
     <g id="text_3">
      <!-- 1.0 -->
      <g transform="translate(447.253411 225.011323) scale(0.18 -0.18)">
       <defs>
        <path id="Arial-BoldMT-31" d="M 2519 0 
L 1641 0 
L 1641 3309 
Q 1159 2859 506 2644 
L 506 3441 
Q 850 3553 1253 3867 
Q 1656 4181 1806 4600 
L 2519 4600 
L 2519 0 
z
" transform="scale(0.015625)"/>
       </defs>
       <use xlink:href="#Arial-BoldMT-31"/>
       <use xlink:href="#Arial-BoldMT-2e" x="55.615234"/>
       <use xlink:href="#Arial-BoldMT-30" x="83.398438"/>
      </g>
     </g>
    </g>
    <g id="xtick_4">
     <g id="line2d_4">
      <g>
       <use xlink:href="#m556e0de76a" x="628.49169" y="199.12726" style="stroke: #000000; stroke-width: 2"/>
      </g>
     </g>
     <g id="text_4">
      <!-- 1.5 -->
      <g transform="translate(615.98169 225.011323) scale(0.18 -0.18)">
       <use xlink:href="#Arial-BoldMT-31"/>
       <use xlink:href="#Arial-BoldMT-2e" x="55.615234"/>
       <use xlink:href="#Arial-BoldMT-35" x="83.398438"/>
      </g>
     </g>
    </g>
    <g id="xtick_5">
     <g id="line2d_5">
      <g>
       <use xlink:href="#m556e0de76a" x="797.21997" y="199.12726" style="stroke: #000000; stroke-width: 2"/>
      </g>
     </g>
     <g id="text_5">
      <!-- 2.0 -->
      <g transform="translate(784.70997 225.011323) scale(0.18 -0.18)">
       <defs>
        <path id="Arial-BoldMT-32" d="M 3238 816 
L 3238 0 
L 159 0 
Q 209 463 459 877 
Q 709 1291 1447 1975 
Q 2041 2528 2175 2725 
Q 2356 2997 2356 3263 
Q 2356 3556 2198 3714 
Q 2041 3872 1763 3872 
Q 1488 3872 1325 3706 
Q 1163 3541 1138 3156 
L 263 3244 
Q 341 3969 753 4284 
Q 1166 4600 1784 4600 
Q 2463 4600 2850 4234 
Q 3238 3869 3238 3325 
Q 3238 3016 3127 2736 
Q 3016 2456 2775 2150 
Q 2616 1947 2200 1565 
Q 1784 1184 1673 1059 
Q 1563 934 1494 816 
L 3238 816 
z
" transform="scale(0.015625)"/>
       </defs>
       <use xlink:href="#Arial-BoldMT-32"/>
       <use xlink:href="#Arial-BoldMT-2e" x="55.615234"/>
       <use xlink:href="#Arial-BoldMT-30" x="83.398438"/>
      </g>
     </g>
    </g>
    <g id="xtick_6">
     <g id="line2d_6">
      <g>
       <use xlink:href="#m556e0de76a" x="965.94825" y="199.12726" style="stroke: #000000; stroke-width: 2"/>
      </g>
     </g>
     <g id="text_6">
      <!-- 2.5 -->
      <g transform="translate(953.43825 225.011323) scale(0.18 -0.18)">
       <use xlink:href="#Arial-BoldMT-32"/>
       <use xlink:href="#Arial-BoldMT-2e" x="55.615234"/>
       <use xlink:href="#Arial-BoldMT-35" x="83.398438"/>
      </g>
     </g>
    </g>
    <g id="xtick_7">
     <g id="line2d_7">
      <g>
       <use xlink:href="#m556e0de76a" x="1134.676529" y="199.12726" style="stroke: #000000; stroke-width: 2"/>
      </g>
     </g>
     <g id="text_7">
      <!-- 3.0 -->
      <g transform="translate(1122.166529 225.011323) scale(0.18 -0.18)">
       <defs>
        <path id="Arial-BoldMT-33" d="M 241 1216 
L 1091 1319 
Q 1131 994 1309 822 
Q 1488 650 1741 650 
Q 2013 650 2198 856 
Q 2384 1063 2384 1413 
Q 2384 1744 2206 1937 
Q 2028 2131 1772 2131 
Q 1603 2131 1369 2066 
L 1466 2781 
Q 1822 2772 2009 2936 
Q 2197 3100 2197 3372 
Q 2197 3603 2059 3740 
Q 1922 3878 1694 3878 
Q 1469 3878 1309 3722 
Q 1150 3566 1116 3266 
L 306 3403 
Q 391 3819 561 4067 
Q 731 4316 1036 4458 
Q 1341 4600 1719 4600 
Q 2366 4600 2756 4188 
Q 3078 3850 3078 3425 
Q 3078 2822 2419 2463 
Q 2813 2378 3048 2084 
Q 3284 1791 3284 1375 
Q 3284 772 2843 347 
Q 2403 -78 1747 -78 
Q 1125 -78 715 280 
Q 306 638 241 1216 
z
" transform="scale(0.015625)"/>
       </defs>
       <use xlink:href="#Arial-BoldMT-33"/>
       <use xlink:href="#Arial-BoldMT-2e" x="55.615234"/>
       <use xlink:href="#Arial-BoldMT-30" x="83.398438"/>
      </g>
     </g>
    </g>
    <g id="text_8">
     <!-- Retention time / min -->
     <g transform="translate(542.350469 245.447573) scale(0.18 -0.18)">
      <defs>
       <path id="Arial-BoldMT-52" d="M 469 0 
L 469 4581 
L 2416 4581 
Q 3150 4581 3483 4457 
Q 3816 4334 4016 4018 
Q 4216 3703 4216 3297 
Q 4216 2781 3912 2445 
Q 3609 2109 3006 2022 
Q 3306 1847 3501 1637 
Q 3697 1428 4028 894 
L 4588 0 
L 3481 0 
L 2813 997 
Q 2456 1531 2325 1670 
Q 2194 1809 2047 1861 
Q 1900 1913 1581 1913 
L 1394 1913 
L 1394 0 
L 469 0 
z
M 1394 2644 
L 2078 2644 
Q 2744 2644 2909 2700 
Q 3075 2756 3169 2893 
Q 3263 3031 3263 3238 
Q 3263 3469 3139 3611 
Q 3016 3753 2791 3791 
Q 2678 3806 2116 3806 
L 1394 3806 
L 1394 2644 
z
" transform="scale(0.015625)"/>
       <path id="Arial-BoldMT-65" d="M 2381 1056 
L 3256 909 
Q 3088 428 2723 176 
Q 2359 -75 1813 -75 
Q 947 -75 531 491 
Q 203 944 203 1634 
Q 203 2459 634 2926 
Q 1066 3394 1725 3394 
Q 2466 3394 2894 2905 
Q 3322 2416 3303 1406 
L 1103 1406 
Q 1113 1016 1316 798 
Q 1519 581 1822 581 
Q 2028 581 2168 693 
Q 2309 806 2381 1056 
z
M 2431 1944 
Q 2422 2325 2234 2523 
Q 2047 2722 1778 2722 
Q 1491 2722 1303 2513 
Q 1116 2303 1119 1944 
L 2431 1944 
z
" transform="scale(0.015625)"/>
       <path id="Arial-BoldMT-74" d="M 1981 3319 
L 1981 2619 
L 1381 2619 
L 1381 1281 
Q 1381 875 1398 808 
Q 1416 741 1477 697 
Q 1538 653 1625 653 
Q 1747 653 1978 738 
L 2053 56 
Q 1747 -75 1359 -75 
Q 1122 -75 931 4 
Q 741 84 652 211 
Q 563 338 528 553 
Q 500 706 500 1172 
L 500 2619 
L 97 2619 
L 97 3319 
L 500 3319 
L 500 3978 
L 1381 4491 
L 1381 3319 
L 1981 3319 
z
" transform="scale(0.015625)"/>
       <path id="Arial-BoldMT-6e" d="M 3478 0 
L 2600 0 
L 2600 1694 
Q 2600 2231 2544 2389 
Q 2488 2547 2361 2634 
Q 2234 2722 2056 2722 
Q 1828 2722 1647 2597 
Q 1466 2472 1398 2265 
Q 1331 2059 1331 1503 
L 1331 0 
L 453 0 
L 453 3319 
L 1269 3319 
L 1269 2831 
Q 1703 3394 2363 3394 
Q 2653 3394 2893 3289 
Q 3134 3184 3257 3021 
Q 3381 2859 3429 2653 
Q 3478 2447 3478 2063 
L 3478 0 
z
" transform="scale(0.015625)"/>
       <path id="Arial-BoldMT-69" d="M 459 3769 
L 459 4581 
L 1338 4581 
L 1338 3769 
L 459 3769 
z
M 459 0 
L 459 3319 
L 1338 3319 
L 1338 0 
L 459 0 
z
" transform="scale(0.015625)"/>
       <path id="Arial-BoldMT-6f" d="M 256 1706 
Q 256 2144 472 2553 
Q 688 2963 1083 3178 
Q 1478 3394 1966 3394 
Q 2719 3394 3200 2905 
Q 3681 2416 3681 1669 
Q 3681 916 3195 420 
Q 2709 -75 1972 -75 
Q 1516 -75 1102 131 
Q 688 338 472 736 
Q 256 1134 256 1706 
z
M 1156 1659 
Q 1156 1166 1390 903 
Q 1625 641 1969 641 
Q 2313 641 2545 903 
Q 2778 1166 2778 1666 
Q 2778 2153 2545 2415 
Q 2313 2678 1969 2678 
Q 1625 2678 1390 2415 
Q 1156 2153 1156 1659 
z
" transform="scale(0.015625)"/>
       <path id="Arial-BoldMT-20" transform="scale(0.015625)"/>
       <path id="Arial-BoldMT-6d" d="M 394 3319 
L 1203 3319 
L 1203 2866 
Q 1638 3394 2238 3394 
Q 2556 3394 2790 3262 
Q 3025 3131 3175 2866 
Q 3394 3131 3647 3262 
Q 3900 3394 4188 3394 
Q 4553 3394 4806 3245 
Q 5059 3097 5184 2809 
Q 5275 2597 5275 2122 
L 5275 0 
L 4397 0 
L 4397 1897 
Q 4397 2391 4306 2534 
Q 4184 2722 3931 2722 
Q 3747 2722 3584 2609 
Q 3422 2497 3350 2280 
Q 3278 2063 3278 1594 
L 3278 0 
L 2400 0 
L 2400 1819 
Q 2400 2303 2353 2443 
Q 2306 2584 2207 2653 
Q 2109 2722 1941 2722 
Q 1738 2722 1575 2612 
Q 1413 2503 1342 2297 
Q 1272 2091 1272 1613 
L 1272 0 
L 394 0 
L 394 3319 
z
" transform="scale(0.015625)"/>
       <path id="Arial-BoldMT-2f" d="M -9 -78 
L 1125 4659 
L 1784 4659 
L 638 -78 
L -9 -78 
z
" transform="scale(0.015625)"/>
      </defs>
      <use xlink:href="#Arial-BoldMT-52"/>
      <use xlink:href="#Arial-BoldMT-65" x="72.216797"/>
      <use xlink:href="#Arial-BoldMT-74" x="127.832031"/>
      <use xlink:href="#Arial-BoldMT-65" x="161.132812"/>
      <use xlink:href="#Arial-BoldMT-6e" x="216.748047"/>
      <use xlink:href="#Arial-BoldMT-74" x="277.832031"/>
      <use xlink:href="#Arial-BoldMT-69" x="311.132812"/>
      <use xlink:href="#Arial-BoldMT-6f" x="338.916016"/>
      <use xlink:href="#Arial-BoldMT-6e" x="400"/>
      <use xlink:href="#Arial-BoldMT-20" x="461.083984"/>
      <use xlink:href="#Arial-BoldMT-74" x="488.867188"/>
      <use xlink:href="#Arial-BoldMT-69" x="522.167969"/>
      <use xlink:href="#Arial-BoldMT-6d" x="549.951172"/>
      <use xlink:href="#Arial-BoldMT-65" x="638.867188"/>
      <use xlink:href="#Arial-BoldMT-20" x="694.482422"/>
      <use xlink:href="#Arial-BoldMT-2f" x="722.265625"/>
      <use xlink:href="#Arial-BoldMT-20" x="750.048828"/>
      <use xlink:href="#Arial-BoldMT-6d" x="777.832031"/>
      <use xlink:href="#Arial-BoldMT-69" x="866.748047"/>
      <use xlink:href="#Arial-BoldMT-6e" x="894.53125"/>
     </g>
    </g>
   </g>
   <g id="matplotlib.axis_2">
    <g id="ytick_1">
     <g id="line2d_8">
      <defs>
       <path id="m767c38476e" d="M 0 0 
L -8 0 
" style="stroke: #000000; stroke-width: 2"/>
      </defs>
      <g>
       <use xlink:href="#m767c38476e" x="71.702428" y="182.597762" style="stroke: #000000; stroke-width: 2"/>
      </g>
     </g>
     <g id="text_9">
      <!-- 0.00 -->
      <g transform="translate(23.67274 189.039794) scale(0.18 -0.18)">
       <use xlink:href="#Arial-BoldMT-30"/>
       <use xlink:href="#Arial-BoldMT-2e" x="55.615234"/>
       <use xlink:href="#Arial-BoldMT-30" x="83.398438"/>
       <use xlink:href="#Arial-BoldMT-30" x="139.013672"/>
      </g>
     </g>
    </g>
    <g id="ytick_2">
     <g id="line2d_9">
      <g>
       <use xlink:href="#m767c38476e" x="71.702428" y="139.927098" style="stroke: #000000; stroke-width: 2"/>
      </g>
     </g>
     <g id="text_10">
      <!-- 0.25 -->
      <g transform="translate(23.67274 146.369129) scale(0.18 -0.18)">
       <use xlink:href="#Arial-BoldMT-30"/>
       <use xlink:href="#Arial-BoldMT-2e" x="55.615234"/>
       <use xlink:href="#Arial-BoldMT-32" x="83.398438"/>
       <use xlink:href="#Arial-BoldMT-35" x="139.013672"/>
      </g>
     </g>
    </g>
    <g id="ytick_3">
     <g id="line2d_10">
      <g>
       <use xlink:href="#m767c38476e" x="71.702428" y="97.256433" style="stroke: #000000; stroke-width: 2"/>
      </g>
     </g>
     <g id="text_11">
      <!-- 0.50 -->
      <g transform="translate(23.67274 103.698465) scale(0.18 -0.18)">
       <use xlink:href="#Arial-BoldMT-30"/>
       <use xlink:href="#Arial-BoldMT-2e" x="55.615234"/>
       <use xlink:href="#Arial-BoldMT-35" x="83.398438"/>
       <use xlink:href="#Arial-BoldMT-30" x="139.013672"/>
      </g>
     </g>
    </g>
    <g id="ytick_4">
     <g id="line2d_11">
      <g>
       <use xlink:href="#m767c38476e" x="71.702428" y="54.585769" style="stroke: #000000; stroke-width: 2"/>
      </g>
     </g>
     <g id="text_12">
      <!-- 0.75 -->
      <g transform="translate(23.67274 61.0278) scale(0.18 -0.18)">
       <defs>
        <path id="Arial-BoldMT-37" d="M 272 3703 
L 272 4519 
L 3275 4519 
L 3275 3881 
Q 2903 3516 2518 2831 
Q 2134 2147 1932 1376 
Q 1731 606 1734 0 
L 888 0 
Q 909 950 1279 1937 
Q 1650 2925 2269 3703 
L 272 3703 
z
" transform="scale(0.015625)"/>
       </defs>
       <use xlink:href="#Arial-BoldMT-30"/>
       <use xlink:href="#Arial-BoldMT-2e" x="55.615234"/>
       <use xlink:href="#Arial-BoldMT-37" x="83.398438"/>
       <use xlink:href="#Arial-BoldMT-35" x="139.013672"/>
      </g>
     </g>
    </g>
    <g id="ytick_5">
     <g id="line2d_12">
      <g>
       <use xlink:href="#m767c38476e" x="71.702428" y="11.915105" style="stroke: #000000; stroke-width: 2"/>
      </g>
     </g>
     <g id="text_13">
      <!-- 1.00 -->
      <g transform="translate(23.67274 18.357136) scale(0.18 -0.18)">
       <use xlink:href="#Arial-BoldMT-31"/>
       <use xlink:href="#Arial-BoldMT-2e" x="55.615234"/>
       <use xlink:href="#Arial-BoldMT-30" x="83.398438"/>
       <use xlink:href="#Arial-BoldMT-30" x="139.013672"/>
      </g>
     </g>
    </g>
    <g id="text_14">
     <!-- Rel. Intensity -->
     <g transform="translate(15.884303 157.071875) rotate(-90) scale(0.18 -0.18)">
      <defs>
       <path id="Arial-BoldMT-6c" d="M 459 0 
L 459 4581 
L 1338 4581 
L 1338 0 
L 459 0 
z
" transform="scale(0.015625)"/>
       <path id="Arial-BoldMT-49" d="M 438 0 
L 438 4581 
L 1363 4581 
L 1363 0 
L 438 0 
z
" transform="scale(0.015625)"/>
       <path id="Arial-BoldMT-73" d="M 150 947 
L 1031 1081 
Q 1088 825 1259 692 
Q 1431 559 1741 559 
Q 2081 559 2253 684 
Q 2369 772 2369 919 
Q 2369 1019 2306 1084 
Q 2241 1147 2013 1200 
Q 950 1434 666 1628 
Q 272 1897 272 2375 
Q 272 2806 612 3100 
Q 953 3394 1669 3394 
Q 2350 3394 2681 3172 
Q 3013 2950 3138 2516 
L 2309 2363 
Q 2256 2556 2107 2659 
Q 1959 2763 1684 2763 
Q 1338 2763 1188 2666 
Q 1088 2597 1088 2488 
Q 1088 2394 1175 2328 
Q 1294 2241 1995 2081 
Q 2697 1922 2975 1691 
Q 3250 1456 3250 1038 
Q 3250 581 2869 253 
Q 2488 -75 1741 -75 
Q 1063 -75 667 200 
Q 272 475 150 947 
z
" transform="scale(0.015625)"/>
       <path id="Arial-BoldMT-79" d="M 44 3319 
L 978 3319 
L 1772 963 
L 2547 3319 
L 3456 3319 
L 2284 125 
L 2075 -453 
Q 1959 -744 1854 -897 
Q 1750 -1050 1614 -1145 
Q 1478 -1241 1279 -1294 
Q 1081 -1347 831 -1347 
Q 578 -1347 334 -1294 
L 256 -606 
Q 463 -647 628 -647 
Q 934 -647 1081 -467 
Q 1228 -288 1306 -9 
L 44 3319 
z
" transform="scale(0.015625)"/>
      </defs>
      <use xlink:href="#Arial-BoldMT-52"/>
      <use xlink:href="#Arial-BoldMT-65" x="72.216797"/>
      <use xlink:href="#Arial-BoldMT-6c" x="127.832031"/>
      <use xlink:href="#Arial-BoldMT-2e" x="155.615234"/>
      <use xlink:href="#Arial-BoldMT-20" x="183.398438"/>
      <use xlink:href="#Arial-BoldMT-49" x="211.181641"/>
      <use xlink:href="#Arial-BoldMT-6e" x="238.964844"/>
      <use xlink:href="#Arial-BoldMT-74" x="300.048828"/>
      <use xlink:href="#Arial-BoldMT-65" x="333.349609"/>
      <use xlink:href="#Arial-BoldMT-6e" x="388.964844"/>
      <use xlink:href="#Arial-BoldMT-73" x="450.048828"/>
      <use xlink:href="#Arial-BoldMT-69" x="505.664062"/>
      <use xlink:href="#Arial-BoldMT-74" x="533.447266"/>
      <use xlink:href="#Arial-BoldMT-79" x="566.748047"/>
     </g>
    </g>
   </g>
   <g id="line2d_13">
    <path d="M 122.306852 182.5813 
L 146.210024 182.517605 
L 202.452784 182.321932 
L 203.015211 182.112273 
L 203.577638 181.638503 
L 204.14007 180.765069 
L 204.702497 179.43591 
L 206.952205 173.260443 
L 207.514632 172.657167 
L 207.795846 172.553505 
L 208.077059 172.576174 
L 208.639486 172.990781 
L 209.201913 173.925975 
L 209.76434 175.43741 
L 210.607981 178.704622 
L 212.295272 185.933504 
L 213.138913 188.32972 
L 213.70134 189.331085 
L 214.263767 189.924341 
L 214.826194 190.184273 
L 215.388621 190.18355 
L 215.951048 189.984726 
L 216.794689 189.435834 
L 220.450465 186.634095 
L 222.418959 185.603325 
L 225.231105 184.377321 
L 227.480813 183.620912 
L 229.730521 183.141633 
L 232.261443 182.865942 
L 236.198442 182.705755 
L 243.791218 182.623665 
L 281.755075 182.589587 
L 315.219515 182.607713 
L 366.400438 182.434829 
L 376.805339 182.168637 
L 393.115744 181.772515 
L 403.520644 181.73763 
L 413.363138 181.944988 
L 424.611679 182.46911 
L 435.579027 183.194985 
L 453.857927 184.653105 
L 456.951276 184.837527 
L 458.07613 184.645347 
L 459.200984 184.168275 
L 460.607072 183.549738 
L 461.731926 183.303444 
L 462.85678 183.274674 
L 464.262827 183.490201 
L 465.950109 184.045337 
L 468.762244 185.018087 
L 470.730759 185.417217 
L 473.542894 185.729669 
L 481.135679 186.234549 
L 488.447231 186.530014 
L 489.572085 186.397568 
L 490.134512 186.105001 
L 490.69694 185.461454 
L 491.259367 184.243669 
L 491.821794 182.17889 
L 492.384221 178.985031 
L 492.946648 174.432675 
L 493.790268 164.986978 
L 496.039977 136.405475 
L 496.883637 129.690758 
L 497.446064 126.624197 
L 498.008491 124.472798 
L 498.570918 123.131631 
L 498.852112 122.758008 
L 499.133345 122.579167 
L 499.414539 122.597545 
L 499.695773 122.818495 
L 500.2582 123.861828 
L 500.820627 125.685267 
L 501.664247 129.694625 
L 504.757616 146.988964 
L 505.601277 149.999646 
L 506.444897 152.254176 
L 507.569751 154.493504 
L 508.975839 156.669775 
L 511.506741 160.486407 
L 514.037683 164.868476 
L 516.006157 168.10493 
L 517.693439 170.419886 
L 519.943147 173.033608 
L 522.755282 175.936385 
L 525.567458 178.506174 
L 527.817166 180.265324 
L 529.504447 181.32382 
L 531.191728 182.116526 
L 532.879009 182.676789 
L 534.847484 183.090831 
L 537.378426 183.382289 
L 540.752988 183.536006 
L 544.971211 183.522249 
L 566.624673 182.806777 
L 578.435642 182.542643 
L 593.621172 182.452857 
L 630.741399 182.587833 
L 688.108999 182.692272 
L 711.730976 183.430668 
L 721.292236 183.594962 
L 746.320261 184.196685 
L 760.099744 184.31257 
L 760.662171 184.182079 
L 761.224598 183.779288 
L 761.787025 182.838294 
L 762.349452 181.090231 
L 762.911879 178.434022 
L 764.036733 171.320386 
L 765.161587 164.585981 
L 766.005248 161.075748 
L 766.567675 159.553856 
L 767.130102 158.645455 
L 767.692529 158.309262 
L 767.973723 158.342013 
L 768.53615 158.778025 
L 769.098577 159.658656 
L 769.942237 161.659638 
L 771.067092 165.152415 
L 773.3168 172.460617 
L 774.441654 175.381777 
L 775.566508 177.626022 
L 776.691362 179.266314 
L 777.816216 180.43541 
L 778.94107 181.27116 
L 780.347158 182.007496 
L 782.034439 182.61901 
L 784.284148 183.185473 
L 787.377476 183.715841 
L 791.876893 184.2213 
L 799.469678 184.78989 
L 814.373975 185.625222 
L 827.872305 186.201592 
L 836.027478 186.336359 
L 845.869971 186.417086 
L 846.432358 186.1456 
L 846.713632 185.849345 
L 846.994825 185.353936 
L 847.276019 184.546264 
L 847.557212 183.262423 
L 847.838486 181.278737 
L 848.11968 178.303872 
L 848.400873 173.982114 
L 848.96334 159.678699 
L 849.525727 135.555704 
L 851.494242 28.460121 
L 852.056629 18.166991 
L 852.337903 15.875115 
L 852.619096 14.608838 
L 853.181483 13.349659 
L 854.025144 12.45992 
L 854.868804 11.994407 
L 855.431191 11.915105 
L 855.993658 12.011233 
L 856.837319 12.581654 
L 857.680899 13.481263 
L 858.243367 14.512173 
L 858.805753 16.271858 
L 859.368221 19.303613 
L 859.930608 24.529382 
L 860.493075 32.775131 
L 861.055542 44.276926 
L 862.180396 73.400172 
L 863.586444 108.078429 
L 864.430105 124.0796 
L 865.273685 136.414487 
L 866.117346 145.764347 
L 866.961006 152.860622 
L 867.804667 158.294537 
L 868.648247 162.546559 
L 869.491908 165.919408 
L 870.616762 169.443626 
L 871.741616 172.147631 
L 872.86647 174.281968 
L 873.991324 175.977425 
L 875.397372 177.655702 
L 876.8035 178.956771 
L 878.209547 179.975887 
L 879.896788 180.917482 
L 881.58411 181.616614 
L 883.833818 182.280349 
L 886.645994 182.865305 
L 890.020556 183.325799 
L 893.676312 183.600133 
L 898.175728 183.708835 
L 901.831484 183.633198 
L 904.64366 183.319421 
L 905.768514 183.027646 
L 909.986737 181.542107 
L 911.392784 181.403951 
L 912.798832 181.508509 
L 915.04854 181.957014 
L 918.423103 182.587804 
L 921.235278 182.867497 
L 924.60984 182.967237 
L 931.358965 182.897923 
L 950.481485 182.598176 
L 1012.629736 182.630371 
L 1044.406925 182.652322 
L 1134.395336 182.560959 
L 1134.395336 182.560959 
" clip-path="url(#peba2970518)" style="fill: none; stroke: #000000; stroke-width: 2.5; stroke-linecap: square"/>
   </g>
   <g id="line2d_14">
    <path d="M 257.289475 199.12726 
L 257.289475 3.00024 
" clip-path="url(#peba2970518)" style="fill: none; stroke: #d55e00; stroke-width: 2; stroke-linecap: square"/>
   </g>
   <g id="line2d_15">
    <path d="M 1134.676529 199.12726 
L 1134.676529 3.00024 
" clip-path="url(#peba2970518)" style="fill: none; stroke: #d55e00; stroke-width: 2; stroke-linecap: square"/>
   </g>
   <g id="patch_3">
    <path d="M 71.702428 199.12726 
L 71.702428 3.00024 
" style="fill: none; stroke: #000000; stroke-width: 2; stroke-linejoin: miter; stroke-linecap: square"/>
   </g>
   <g id="patch_4">
    <path d="M 1184.99976 199.12726 
L 1184.99976 3.00024 
" style="fill: none; stroke: #000000; stroke-width: 2; stroke-linejoin: miter; stroke-linecap: square"/>
   </g>
   <g id="patch_5">
    <path d="M 71.702428 199.12726 
L 1184.99976 199.12726 
" style="fill: none; stroke: #000000; stroke-width: 2; stroke-linejoin: miter; stroke-linecap: square"/>
   </g>
   <g id="patch_6">
    <path d="M 71.702428 3.00024 
L 1184.99976 3.00024 
" style="fill: none; stroke: #000000; stroke-width: 2; stroke-linejoin: miter; stroke-linecap: square"/>
   </g>
   <g id="text_15">
    <!-- ANALYSIS -->
    <g style="fill: #d55e00" transform="translate(250.955938 134.479038) rotate(-90) scale(0.14994 -0.14994)">
     <defs>
      <path id="Arial-BoldMT-41" d="M 4597 0 
L 3591 0 
L 3191 1041 
L 1359 1041 
L 981 0 
L 0 0 
L 1784 4581 
L 2763 4581 
L 4597 0 
z
M 2894 1813 
L 2263 3513 
L 1644 1813 
L 2894 1813 
z
" transform="scale(0.015625)"/>
      <path id="Arial-BoldMT-4e" d="M 475 0 
L 475 4581 
L 1375 4581 
L 3250 1522 
L 3250 4581 
L 4109 4581 
L 4109 0 
L 3181 0 
L 1334 2988 
L 1334 0 
L 475 0 
z
" transform="scale(0.015625)"/>
      <path id="Arial-BoldMT-4c" d="M 491 0 
L 491 4544 
L 1416 4544 
L 1416 772 
L 3716 772 
L 3716 0 
L 491 0 
z
" transform="scale(0.015625)"/>
      <path id="Arial-BoldMT-59" d="M 1669 0 
L 1669 1928 
L -9 4581 
L 1075 4581 
L 2153 2769 
L 3209 4581 
L 4275 4581 
L 2591 1922 
L 2591 0 
L 1669 0 
z
" transform="scale(0.015625)"/>
      <path id="Arial-BoldMT-53" d="M 231 1491 
L 1131 1578 
Q 1213 1125 1461 912 
Q 1709 700 2131 700 
Q 2578 700 2804 889 
Q 3031 1078 3031 1331 
Q 3031 1494 2936 1608 
Q 2841 1722 2603 1806 
Q 2441 1863 1863 2006 
Q 1119 2191 819 2459 
Q 397 2838 397 3381 
Q 397 3731 595 4036 
Q 794 4341 1167 4500 
Q 1541 4659 2069 4659 
Q 2931 4659 3367 4281 
Q 3803 3903 3825 3272 
L 2900 3231 
Q 2841 3584 2645 3739 
Q 2450 3894 2059 3894 
Q 1656 3894 1428 3728 
Q 1281 3622 1281 3444 
Q 1281 3281 1419 3166 
Q 1594 3019 2269 2859 
Q 2944 2700 3267 2529 
Q 3591 2359 3773 2064 
Q 3956 1769 3956 1334 
Q 3956 941 3737 597 
Q 3519 253 3119 86 
Q 2719 -81 2122 -81 
Q 1253 -81 787 320 
Q 322 722 231 1491 
z
" transform="scale(0.015625)"/>
     </defs>
     <use xlink:href="#Arial-BoldMT-41"/>
     <use xlink:href="#Arial-BoldMT-4e" x="72.216797"/>
     <use xlink:href="#Arial-BoldMT-41" x="144.433594"/>
     <use xlink:href="#Arial-BoldMT-4c" x="216.650391"/>
     <use xlink:href="#Arial-BoldMT-59" x="268.609375"/>
     <use xlink:href="#Arial-BoldMT-53" x="335.308594"/>
     <use xlink:href="#Arial-BoldMT-49" x="402.007812"/>
     <use xlink:href="#Arial-BoldMT-53" x="429.791016"/>
    </g>
   </g>
   <g id="text_16">
    <!-- START -->
    <g style="fill: #d55e00" transform="translate(274.771031 121.690796) rotate(-90) scale(0.14994 -0.14994)">
     <defs>
      <path id="Arial-BoldMT-54" d="M 1497 0 
L 1497 3806 
L 138 3806 
L 138 4581 
L 3778 4581 
L 3778 3806 
L 2422 3806 
L 2422 0 
L 1497 0 
z
" transform="scale(0.015625)"/>
     </defs>
     <use xlink:href="#Arial-BoldMT-53"/>
     <use xlink:href="#Arial-BoldMT-54" x="66.699219"/>
     <use xlink:href="#Arial-BoldMT-41" x="120.408203"/>
     <use xlink:href="#Arial-BoldMT-52" x="192.625"/>
     <use xlink:href="#Arial-BoldMT-54" x="264.841797"/>
    </g>
   </g>
   <g id="text_17">
    <!-- ANALYSIS -->
    <g style="fill: #d55e00" transform="translate(1128.342991 134.479038) rotate(-90) scale(0.14994 -0.14994)">
     <use xlink:href="#Arial-BoldMT-41"/>
     <use xlink:href="#Arial-BoldMT-4e" x="72.216797"/>
     <use xlink:href="#Arial-BoldMT-41" x="144.433594"/>
     <use xlink:href="#Arial-BoldMT-4c" x="216.650391"/>
     <use xlink:href="#Arial-BoldMT-59" x="268.609375"/>
     <use xlink:href="#Arial-BoldMT-53" x="335.308594"/>
     <use xlink:href="#Arial-BoldMT-49" x="402.007812"/>
     <use xlink:href="#Arial-BoldMT-53" x="429.791016"/>
    </g>
   </g>
   <g id="text_18">
    <!-- END -->
    <g style="fill: #d55e00" transform="translate(1152.158084 113.085646) rotate(-90) scale(0.14994 -0.14994)">
     <defs>
      <path id="Arial-BoldMT-45" d="M 466 0 
L 466 4581 
L 3863 4581 
L 3863 3806 
L 1391 3806 
L 1391 2791 
L 3691 2791 
L 3691 2019 
L 1391 2019 
L 1391 772 
L 3950 772 
L 3950 0 
L 466 0 
z
" transform="scale(0.015625)"/>
      <path id="Arial-BoldMT-44" d="M 463 4581 
L 2153 4581 
Q 2725 4581 3025 4494 
Q 3428 4375 3715 4072 
Q 4003 3769 4153 3330 
Q 4303 2891 4303 2247 
Q 4303 1681 4163 1272 
Q 3991 772 3672 463 
Q 3431 228 3022 97 
Q 2716 0 2203 0 
L 463 0 
L 463 4581 
z
M 1388 3806 
L 1388 772 
L 2078 772 
Q 2466 772 2638 816 
Q 2863 872 3011 1006 
Q 3159 1141 3253 1448 
Q 3347 1756 3347 2288 
Q 3347 2819 3253 3103 
Q 3159 3388 2990 3547 
Q 2822 3706 2563 3763 
Q 2369 3806 1803 3806 
L 1388 3806 
z
" transform="scale(0.015625)"/>
     </defs>
     <use xlink:href="#Arial-BoldMT-45"/>
     <use xlink:href="#Arial-BoldMT-4e" x="66.699219"/>
     <use xlink:href="#Arial-BoldMT-44" x="138.916016"/>
    </g>
   </g>
  </g>
 </g>
 <defs>
  <clipPath id="peba2970518">
   <rect x="71.702428" y="3.00024" width="1113.297333" height="196.12702"/>
  </clipPath>
 </defs>
</svg>
