<?xml version="1.0" encoding="utf-8" standalone="no"?>
<!DOCTYPE svg PUBLIC "-//W3C//DTD SVG 1.1//EN"
  "http://www.w3.org/Graphics/SVG/1.1/DTD/svg11.dtd">
<svg xmlns:xlink="http://www.w3.org/1999/xlink" width="1188pt" height="252pt" viewBox="0 0 1188 252" xmlns="http://www.w3.org/2000/svg" version="1.1">
 <metadata>
  <rdf:RDF xmlns:dc="http://purl.org/dc/elements/1.1/" xmlns:cc="http://creativecommons.org/ns#" xmlns:rdf="http://www.w3.org/1999/02/22-rdf-syntax-ns#">
   <cc:Work>
    <dc:type rdf:resource="http://purl.org/dc/dcmitype/StillImage"/>
    <dc:date>2024-05-13T18:26:19.173361</dc:date>
    <dc:format>image/svg+xml</dc:format>
    <dc:creator>
     <cc:Agent>
      <dc:title>Matplotlib v3.8.0, https://matplotlib.org/</dc:title>
     </cc:Agent>
    </dc:creator>
   </cc:Work>
  </rdf:RDF>
 </metadata>
 <defs>
  <style type="text/css">*{stroke-linejoin: round; stroke-linecap: butt}</style>
 </defs>
 <g id="figure_1">
  <g id="patch_1">
   <path d="M 0 252 
L 1188 252 
L 1188 0 
L 0 0 
z
" style="fill: #ffffff"/>
  </g>
  <g id="axes_1">
   <g id="patch_2">
    <path d="M 3.00024 198.907885 
L 1184.99976 198.907885 
L 1184.99976 3.00024 
L 3.00024 3.00024 
z
" style="fill: #ffffff"/>
   </g>
   <g id="matplotlib.axis_1">
    <g id="xtick_1">
     <g id="line2d_1">
      <defs>
       <path id="mc7c27741a5" d="M 0 0 
L 0 8 
" style="stroke: #000000; stroke-width: 2"/>
      </defs>
      <g>
       <use xlink:href="#mc7c27741a5" x="1135.74978" y="198.907885" style="stroke: #000000; stroke-width: 2"/>
      </g>
     </g>
     <g id="text_1">
      <!-- −1 -->
      <g transform="translate(1125.488374 224.791947) scale(0.18 -0.18)">
       <defs>
        <path id="Arial-BoldMT-2212" d="M 266 1850 
L 266 2672 
L 3469 2672 
L 3469 1850 
L 266 1850 
z
" transform="scale(0.015625)"/>
        <path id="Arial-BoldMT-31" d="M 2519 0 
L 1641 0 
L 1641 3309 
Q 1159 2859 506 2644 
L 506 3441 
Q 850 3553 1253 3867 
Q 1656 4181 1806 4600 
L 2519 4600 
L 2519 0 
z
" transform="scale(0.015625)"/>
       </defs>
       <use xlink:href="#Arial-BoldMT-2212"/>
       <use xlink:href="#Arial-BoldMT-31" x="58.398438"/>
      </g>
     </g>
    </g>
    <g id="xtick_2">
     <g id="line2d_2">
      <g>
       <use xlink:href="#mc7c27741a5" x="1037.24982" y="198.907885" style="stroke: #000000; stroke-width: 2"/>
      </g>
     </g>
     <g id="text_2">
      <!-- 0 -->
      <g transform="translate(1032.244976 224.791947) scale(0.18 -0.18)">
       <defs>
        <path id="Arial-BoldMT-30" d="M 1756 4600 
Q 2422 4600 2797 4125 
Q 3244 3563 3244 2259 
Q 3244 959 2794 391 
Q 2422 -78 1756 -78 
Q 1088 -78 678 436 
Q 269 950 269 2269 
Q 269 3563 719 4131 
Q 1091 4600 1756 4600 
z
M 1756 3872 
Q 1597 3872 1472 3770 
Q 1347 3669 1278 3406 
Q 1188 3066 1188 2259 
Q 1188 1453 1269 1151 
Q 1350 850 1473 750 
Q 1597 650 1756 650 
Q 1916 650 2041 751 
Q 2166 853 2234 1116 
Q 2325 1453 2325 2259 
Q 2325 3066 2244 3367 
Q 2163 3669 2039 3770 
Q 1916 3872 1756 3872 
z
" transform="scale(0.015625)"/>
       </defs>
       <use xlink:href="#Arial-BoldMT-30"/>
      </g>
     </g>
    </g>
    <g id="xtick_3">
     <g id="line2d_3">
      <g>
       <use xlink:href="#mc7c27741a5" x="938.74986" y="198.907885" style="stroke: #000000; stroke-width: 2"/>
      </g>
     </g>
     <g id="text_3">
      <!-- 1 -->
      <g transform="translate(933.745016 224.791947) scale(0.18 -0.18)">
       <use xlink:href="#Arial-BoldMT-31"/>
      </g>
     </g>
    </g>
    <g id="xtick_4">
     <g id="line2d_4">
      <g>
       <use xlink:href="#mc7c27741a5" x="840.2499" y="198.907885" style="stroke: #000000; stroke-width: 2"/>
      </g>
     </g>
     <g id="text_4">
      <!-- 2 -->
      <g transform="translate(835.245056 224.791947) scale(0.18 -0.18)">
       <defs>
        <path id="Arial-BoldMT-32" d="M 3238 816 
L 3238 0 
L 159 0 
Q 209 463 459 877 
Q 709 1291 1447 1975 
Q 2041 2528 2175 2725 
Q 2356 2997 2356 3263 
Q 2356 3556 2198 3714 
Q 2041 3872 1763 3872 
Q 1488 3872 1325 3706 
Q 1163 3541 1138 3156 
L 263 3244 
Q 341 3969 753 4284 
Q 1166 4600 1784 4600 
Q 2463 4600 2850 4234 
Q 3238 3869 3238 3325 
Q 3238 3016 3127 2736 
Q 3016 2456 2775 2150 
Q 2616 1947 2200 1565 
Q 1784 1184 1673 1059 
Q 1563 934 1494 816 
L 3238 816 
z
" transform="scale(0.015625)"/>
       </defs>
       <use xlink:href="#Arial-BoldMT-32"/>
      </g>
     </g>
    </g>
    <g id="xtick_5">
     <g id="line2d_5">
      <g>
       <use xlink:href="#mc7c27741a5" x="741.74994" y="198.907885" style="stroke: #000000; stroke-width: 2"/>
      </g>
     </g>
     <g id="text_5">
      <!-- 3 -->
      <g transform="translate(736.745096 224.791947) scale(0.18 -0.18)">
       <defs>
        <path id="Arial-BoldMT-33" d="M 241 1216 
L 1091 1319 
Q 1131 994 1309 822 
Q 1488 650 1741 650 
Q 2013 650 2198 856 
Q 2384 1063 2384 1413 
Q 2384 1744 2206 1937 
Q 2028 2131 1772 2131 
Q 1603 2131 1369 2066 
L 1466 2781 
Q 1822 2772 2009 2936 
Q 2197 3100 2197 3372 
Q 2197 3603 2059 3740 
Q 1922 3878 1694 3878 
Q 1469 3878 1309 3722 
Q 1150 3566 1116 3266 
L 306 3403 
Q 391 3819 561 4067 
Q 731 4316 1036 4458 
Q 1341 4600 1719 4600 
Q 2366 4600 2756 4188 
Q 3078 3850 3078 3425 
Q 3078 2822 2419 2463 
Q 2813 2378 3048 2084 
Q 3284 1791 3284 1375 
Q 3284 772 2843 347 
Q 2403 -78 1747 -78 
Q 1125 -78 715 280 
Q 306 638 241 1216 
z
" transform="scale(0.015625)"/>
       </defs>
       <use xlink:href="#Arial-BoldMT-33"/>
      </g>
     </g>
    </g>
    <g id="xtick_6">
     <g id="line2d_6">
      <g>
       <use xlink:href="#mc7c27741a5" x="643.24998" y="198.907885" style="stroke: #000000; stroke-width: 2"/>
      </g>
     </g>
     <g id="text_6">
      <!-- 4 -->
      <g transform="translate(638.245136 224.791947) scale(0.18 -0.18)">
       <defs>
        <path id="Arial-BoldMT-34" d="M 1994 0 
L 1994 922 
L 119 922 
L 119 1691 
L 2106 4600 
L 2844 4600 
L 2844 1694 
L 3413 1694 
L 3413 922 
L 2844 922 
L 2844 0 
L 1994 0 
z
M 1994 1694 
L 1994 3259 
L 941 1694 
L 1994 1694 
z
" transform="scale(0.015625)"/>
       </defs>
       <use xlink:href="#Arial-BoldMT-34"/>
      </g>
     </g>
    </g>
    <g id="xtick_7">
     <g id="line2d_7">
      <g>
       <use xlink:href="#mc7c27741a5" x="544.75002" y="198.907885" style="stroke: #000000; stroke-width: 2"/>
      </g>
     </g>
     <g id="text_7">
      <!-- 5 -->
      <g transform="translate(539.745176 224.791947) scale(0.18 -0.18)">
       <defs>
        <path id="Arial-BoldMT-35" d="M 284 1178 
L 1159 1269 
Q 1197 972 1381 798 
Q 1566 625 1806 625 
Q 2081 625 2272 848 
Q 2463 1072 2463 1522 
Q 2463 1944 2273 2155 
Q 2084 2366 1781 2366 
Q 1403 2366 1103 2031 
L 391 2134 
L 841 4519 
L 3163 4519 
L 3163 3697 
L 1506 3697 
L 1369 2919 
Q 1663 3066 1969 3066 
Q 2553 3066 2959 2641 
Q 3366 2216 3366 1538 
Q 3366 972 3038 528 
Q 2591 -78 1797 -78 
Q 1163 -78 763 262 
Q 363 603 284 1178 
z
" transform="scale(0.015625)"/>
       </defs>
       <use xlink:href="#Arial-BoldMT-35"/>
      </g>
     </g>
    </g>
    <g id="xtick_8">
     <g id="line2d_8">
      <g>
       <use xlink:href="#mc7c27741a5" x="446.25006" y="198.907885" style="stroke: #000000; stroke-width: 2"/>
      </g>
     </g>
     <g id="text_8">
      <!-- 6 -->
      <g transform="translate(441.245216 224.791947) scale(0.18 -0.18)">
       <defs>
        <path id="Arial-BoldMT-36" d="M 3247 3459 
L 2397 3366 
Q 2366 3628 2234 3753 
Q 2103 3878 1894 3878 
Q 1616 3878 1423 3628 
Q 1231 3378 1181 2588 
Q 1509 2975 1997 2975 
Q 2547 2975 2939 2556 
Q 3331 2138 3331 1475 
Q 3331 772 2918 347 
Q 2506 -78 1859 -78 
Q 1166 -78 719 461 
Q 272 1000 272 2228 
Q 272 3488 737 4044 
Q 1203 4600 1947 4600 
Q 2469 4600 2811 4308 
Q 3153 4016 3247 3459 
z
M 1256 1544 
Q 1256 1116 1453 883 
Q 1650 650 1903 650 
Q 2147 650 2309 840 
Q 2472 1031 2472 1466 
Q 2472 1913 2297 2120 
Q 2122 2328 1859 2328 
Q 1606 2328 1431 2129 
Q 1256 1931 1256 1544 
z
" transform="scale(0.015625)"/>
       </defs>
       <use xlink:href="#Arial-BoldMT-36"/>
      </g>
     </g>
    </g>
    <g id="xtick_9">
     <g id="line2d_9">
      <g>
       <use xlink:href="#mc7c27741a5" x="347.7501" y="198.907885" style="stroke: #000000; stroke-width: 2"/>
      </g>
     </g>
     <g id="text_9">
      <!-- 7 -->
      <g transform="translate(342.745256 224.791947) scale(0.18 -0.18)">
       <defs>
        <path id="Arial-BoldMT-37" d="M 272 3703 
L 272 4519 
L 3275 4519 
L 3275 3881 
Q 2903 3516 2518 2831 
Q 2134 2147 1932 1376 
Q 1731 606 1734 0 
L 888 0 
Q 909 950 1279 1937 
Q 1650 2925 2269 3703 
L 272 3703 
z
" transform="scale(0.015625)"/>
       </defs>
       <use xlink:href="#Arial-BoldMT-37"/>
      </g>
     </g>
    </g>
    <g id="xtick_10">
     <g id="line2d_10">
      <g>
       <use xlink:href="#mc7c27741a5" x="249.25014" y="198.907885" style="stroke: #000000; stroke-width: 2"/>
      </g>
     </g>
     <g id="text_10">
      <!-- 8 -->
      <g transform="translate(244.245296 224.791947) scale(0.18 -0.18)">
       <defs>
        <path id="Arial-BoldMT-38" d="M 1025 2472 
Q 684 2616 529 2867 
Q 375 3119 375 3419 
Q 375 3931 733 4265 
Q 1091 4600 1750 4600 
Q 2403 4600 2764 4265 
Q 3125 3931 3125 3419 
Q 3125 3100 2959 2851 
Q 2794 2603 2494 2472 
Q 2875 2319 3073 2025 
Q 3272 1731 3272 1347 
Q 3272 713 2867 316 
Q 2463 -81 1791 -81 
Q 1166 -81 750 247 
Q 259 634 259 1309 
Q 259 1681 443 1992 
Q 628 2303 1025 2472 
z
M 1206 3356 
Q 1206 3094 1354 2947 
Q 1503 2800 1750 2800 
Q 2000 2800 2150 2948 
Q 2300 3097 2300 3359 
Q 2300 3606 2151 3754 
Q 2003 3903 1759 3903 
Q 1506 3903 1356 3753 
Q 1206 3603 1206 3356 
z
M 1125 1394 
Q 1125 1031 1311 828 
Q 1497 625 1775 625 
Q 2047 625 2225 820 
Q 2403 1016 2403 1384 
Q 2403 1706 2222 1901 
Q 2041 2097 1763 2097 
Q 1441 2097 1283 1875 
Q 1125 1653 1125 1394 
z
" transform="scale(0.015625)"/>
       </defs>
       <use xlink:href="#Arial-BoldMT-38"/>
      </g>
     </g>
    </g>
    <g id="xtick_11">
     <g id="line2d_11">
      <g>
       <use xlink:href="#mc7c27741a5" x="150.75018" y="198.907885" style="stroke: #000000; stroke-width: 2"/>
      </g>
     </g>
     <g id="text_11">
      <!-- 9 -->
      <g transform="translate(145.745336 224.791947) scale(0.18 -0.18)">
       <defs>
        <path id="Arial-BoldMT-39" d="M 291 1059 
L 1141 1153 
Q 1172 894 1303 769 
Q 1434 644 1650 644 
Q 1922 644 2112 894 
Q 2303 1144 2356 1931 
Q 2025 1547 1528 1547 
Q 988 1547 595 1964 
Q 203 2381 203 3050 
Q 203 3747 617 4173 
Q 1031 4600 1672 4600 
Q 2369 4600 2816 4061 
Q 3263 3522 3263 2288 
Q 3263 1031 2797 475 
Q 2331 -81 1584 -81 
Q 1047 -81 715 205 
Q 384 491 291 1059 
z
M 2278 2978 
Q 2278 3403 2083 3637 
Q 1888 3872 1631 3872 
Q 1388 3872 1227 3680 
Q 1066 3488 1066 3050 
Q 1066 2606 1241 2398 
Q 1416 2191 1678 2191 
Q 1931 2191 2104 2391 
Q 2278 2591 2278 2978 
z
" transform="scale(0.015625)"/>
       </defs>
       <use xlink:href="#Arial-BoldMT-39"/>
      </g>
     </g>
    </g>
    <g id="xtick_12">
     <g id="line2d_12">
      <g>
       <use xlink:href="#mc7c27741a5" x="52.25022" y="198.907885" style="stroke: #000000; stroke-width: 2"/>
      </g>
     </g>
     <g id="text_12">
      <!-- 10 -->
      <g transform="translate(42.240533 224.791947) scale(0.18 -0.18)">
       <use xlink:href="#Arial-BoldMT-31"/>
       <use xlink:href="#Arial-BoldMT-30" x="55.615234"/>
      </g>
     </g>
    </g>
    <g id="text_13">
     <!-- Chemical Shift / ppm -->
     <g transform="translate(504.992813 245.447573) scale(0.18 -0.18)">
      <defs>
       <path id="Arial-BoldMT-43" d="M 3397 1684 
L 4294 1400 
Q 4088 650 3608 286 
Q 3128 -78 2391 -78 
Q 1478 -78 890 545 
Q 303 1169 303 2250 
Q 303 3394 893 4026 
Q 1484 4659 2447 4659 
Q 3288 4659 3813 4163 
Q 4125 3869 4281 3319 
L 3366 3100 
Q 3284 3456 3026 3662 
Q 2769 3869 2400 3869 
Q 1891 3869 1573 3503 
Q 1256 3138 1256 2319 
Q 1256 1450 1568 1081 
Q 1881 713 2381 713 
Q 2750 713 3015 947 
Q 3281 1181 3397 1684 
z
" transform="scale(0.015625)"/>
       <path id="Arial-BoldMT-68" d="M 1334 4581 
L 1334 2897 
Q 1759 3394 2350 3394 
Q 2653 3394 2897 3281 
Q 3141 3169 3264 2994 
Q 3388 2819 3433 2606 
Q 3478 2394 3478 1947 
L 3478 0 
L 2600 0 
L 2600 1753 
Q 2600 2275 2550 2415 
Q 2500 2556 2373 2639 
Q 2247 2722 2056 2722 
Q 1838 2722 1666 2615 
Q 1494 2509 1414 2295 
Q 1334 2081 1334 1663 
L 1334 0 
L 456 0 
L 456 4581 
L 1334 4581 
z
" transform="scale(0.015625)"/>
       <path id="Arial-BoldMT-65" d="M 2381 1056 
L 3256 909 
Q 3088 428 2723 176 
Q 2359 -75 1813 -75 
Q 947 -75 531 491 
Q 203 944 203 1634 
Q 203 2459 634 2926 
Q 1066 3394 1725 3394 
Q 2466 3394 2894 2905 
Q 3322 2416 3303 1406 
L 1103 1406 
Q 1113 1016 1316 798 
Q 1519 581 1822 581 
Q 2028 581 2168 693 
Q 2309 806 2381 1056 
z
M 2431 1944 
Q 2422 2325 2234 2523 
Q 2047 2722 1778 2722 
Q 1491 2722 1303 2513 
Q 1116 2303 1119 1944 
L 2431 1944 
z
" transform="scale(0.015625)"/>
       <path id="Arial-BoldMT-6d" d="M 394 3319 
L 1203 3319 
L 1203 2866 
Q 1638 3394 2238 3394 
Q 2556 3394 2790 3262 
Q 3025 3131 3175 2866 
Q 3394 3131 3647 3262 
Q 3900 3394 4188 3394 
Q 4553 3394 4806 3245 
Q 5059 3097 5184 2809 
Q 5275 2597 5275 2122 
L 5275 0 
L 4397 0 
L 4397 1897 
Q 4397 2391 4306 2534 
Q 4184 2722 3931 2722 
Q 3747 2722 3584 2609 
Q 3422 2497 3350 2280 
Q 3278 2063 3278 1594 
L 3278 0 
L 2400 0 
L 2400 1819 
Q 2400 2303 2353 2443 
Q 2306 2584 2207 2653 
Q 2109 2722 1941 2722 
Q 1738 2722 1575 2612 
Q 1413 2503 1342 2297 
Q 1272 2091 1272 1613 
L 1272 0 
L 394 0 
L 394 3319 
z
" transform="scale(0.015625)"/>
       <path id="Arial-BoldMT-69" d="M 459 3769 
L 459 4581 
L 1338 4581 
L 1338 3769 
L 459 3769 
z
M 459 0 
L 459 3319 
L 1338 3319 
L 1338 0 
L 459 0 
z
" transform="scale(0.015625)"/>
       <path id="Arial-BoldMT-63" d="M 3353 2338 
L 2488 2181 
Q 2444 2441 2289 2572 
Q 2134 2703 1888 2703 
Q 1559 2703 1364 2476 
Q 1169 2250 1169 1719 
Q 1169 1128 1367 884 
Q 1566 641 1900 641 
Q 2150 641 2309 783 
Q 2469 925 2534 1272 
L 3397 1125 
Q 3263 531 2881 228 
Q 2500 -75 1859 -75 
Q 1131 -75 698 384 
Q 266 844 266 1656 
Q 266 2478 700 2936 
Q 1134 3394 1875 3394 
Q 2481 3394 2839 3133 
Q 3197 2872 3353 2338 
z
" transform="scale(0.015625)"/>
       <path id="Arial-BoldMT-61" d="M 1116 2306 
L 319 2450 
Q 453 2931 781 3162 
Q 1109 3394 1756 3394 
Q 2344 3394 2631 3255 
Q 2919 3116 3036 2902 
Q 3153 2688 3153 2116 
L 3144 1091 
Q 3144 653 3186 445 
Q 3228 238 3344 0 
L 2475 0 
Q 2441 88 2391 259 
Q 2369 338 2359 363 
Q 2134 144 1878 34 
Q 1622 -75 1331 -75 
Q 819 -75 523 203 
Q 228 481 228 906 
Q 228 1188 362 1408 
Q 497 1628 739 1745 
Q 981 1863 1438 1950 
Q 2053 2066 2291 2166 
L 2291 2253 
Q 2291 2506 2166 2614 
Q 2041 2722 1694 2722 
Q 1459 2722 1328 2630 
Q 1197 2538 1116 2306 
z
M 2291 1594 
Q 2122 1538 1756 1459 
Q 1391 1381 1278 1306 
Q 1106 1184 1106 997 
Q 1106 813 1243 678 
Q 1381 544 1594 544 
Q 1831 544 2047 700 
Q 2206 819 2256 991 
Q 2291 1103 2291 1419 
L 2291 1594 
z
" transform="scale(0.015625)"/>
       <path id="Arial-BoldMT-6c" d="M 459 0 
L 459 4581 
L 1338 4581 
L 1338 0 
L 459 0 
z
" transform="scale(0.015625)"/>
       <path id="Arial-BoldMT-20" transform="scale(0.015625)"/>
       <path id="Arial-BoldMT-53" d="M 231 1491 
L 1131 1578 
Q 1213 1125 1461 912 
Q 1709 700 2131 700 
Q 2578 700 2804 889 
Q 3031 1078 3031 1331 
Q 3031 1494 2936 1608 
Q 2841 1722 2603 1806 
Q 2441 1863 1863 2006 
Q 1119 2191 819 2459 
Q 397 2838 397 3381 
Q 397 3731 595 4036 
Q 794 4341 1167 4500 
Q 1541 4659 2069 4659 
Q 2931 4659 3367 4281 
Q 3803 3903 3825 3272 
L 2900 3231 
Q 2841 3584 2645 3739 
Q 2450 3894 2059 3894 
Q 1656 3894 1428 3728 
Q 1281 3622 1281 3444 
Q 1281 3281 1419 3166 
Q 1594 3019 2269 2859 
Q 2944 2700 3267 2529 
Q 3591 2359 3773 2064 
Q 3956 1769 3956 1334 
Q 3956 941 3737 597 
Q 3519 253 3119 86 
Q 2719 -81 2122 -81 
Q 1253 -81 787 320 
Q 322 722 231 1491 
z
" transform="scale(0.015625)"/>
       <path id="Arial-BoldMT-66" d="M 75 3319 
L 563 3319 
L 563 3569 
Q 563 3988 652 4194 
Q 741 4400 980 4529 
Q 1219 4659 1584 4659 
Q 1959 4659 2319 4547 
L 2200 3934 
Q 1991 3984 1797 3984 
Q 1606 3984 1523 3895 
Q 1441 3806 1441 3553 
L 1441 3319 
L 2097 3319 
L 2097 2628 
L 1441 2628 
L 1441 0 
L 563 0 
L 563 2628 
L 75 2628 
L 75 3319 
z
" transform="scale(0.015625)"/>
       <path id="Arial-BoldMT-74" d="M 1981 3319 
L 1981 2619 
L 1381 2619 
L 1381 1281 
Q 1381 875 1398 808 
Q 1416 741 1477 697 
Q 1538 653 1625 653 
Q 1747 653 1978 738 
L 2053 56 
Q 1747 -75 1359 -75 
Q 1122 -75 931 4 
Q 741 84 652 211 
Q 563 338 528 553 
Q 500 706 500 1172 
L 500 2619 
L 97 2619 
L 97 3319 
L 500 3319 
L 500 3978 
L 1381 4491 
L 1381 3319 
L 1981 3319 
z
" transform="scale(0.015625)"/>
       <path id="Arial-BoldMT-2f" d="M -9 -78 
L 1125 4659 
L 1784 4659 
L 638 -78 
L -9 -78 
z
" transform="scale(0.015625)"/>
       <path id="Arial-BoldMT-70" d="M 434 3319 
L 1253 3319 
L 1253 2831 
Q 1413 3081 1684 3237 
Q 1956 3394 2288 3394 
Q 2866 3394 3269 2941 
Q 3672 2488 3672 1678 
Q 3672 847 3265 386 
Q 2859 -75 2281 -75 
Q 2006 -75 1782 34 
Q 1559 144 1313 409 
L 1313 -1263 
L 434 -1263 
L 434 3319 
z
M 1303 1716 
Q 1303 1156 1525 889 
Q 1747 622 2066 622 
Q 2372 622 2575 867 
Q 2778 1113 2778 1672 
Q 2778 2194 2568 2447 
Q 2359 2700 2050 2700 
Q 1728 2700 1515 2451 
Q 1303 2203 1303 1716 
z
" transform="scale(0.015625)"/>
      </defs>
      <use xlink:href="#Arial-BoldMT-43"/>
      <use xlink:href="#Arial-BoldMT-68" x="72.216797"/>
      <use xlink:href="#Arial-BoldMT-65" x="133.300781"/>
      <use xlink:href="#Arial-BoldMT-6d" x="188.916016"/>
      <use xlink:href="#Arial-BoldMT-69" x="277.832031"/>
      <use xlink:href="#Arial-BoldMT-63" x="305.615234"/>
      <use xlink:href="#Arial-BoldMT-61" x="361.230469"/>
      <use xlink:href="#Arial-BoldMT-6c" x="416.845703"/>
      <use xlink:href="#Arial-BoldMT-20" x="444.628906"/>
      <use xlink:href="#Arial-BoldMT-53" x="472.412109"/>
      <use xlink:href="#Arial-BoldMT-68" x="539.111328"/>
      <use xlink:href="#Arial-BoldMT-69" x="600.195312"/>
      <use xlink:href="#Arial-BoldMT-66" x="627.978516"/>
      <use xlink:href="#Arial-BoldMT-74" x="661.279297"/>
      <use xlink:href="#Arial-BoldMT-20" x="694.580078"/>
      <use xlink:href="#Arial-BoldMT-2f" x="722.363281"/>
      <use xlink:href="#Arial-BoldMT-20" x="750.146484"/>
      <use xlink:href="#Arial-BoldMT-70" x="777.929688"/>
      <use xlink:href="#Arial-BoldMT-70" x="839.013672"/>
      <use xlink:href="#Arial-BoldMT-6d" x="900.097656"/>
     </g>
    </g>
   </g>
   <g id="matplotlib.axis_2"/>
   <g id="line2d_13">
    <path d="M 2.920662 188.174617 
L 3.295798 187.770927 
L 3.670934 187.694457 
L 5.359047 188.080197 
L 6.672024 188.816866 
L 7.422296 189.874363 
L 8.172568 190.926204 
L 8.547704 191.095222 
L 9.110409 191.000312 
L 10.423385 190.292619 
L 11.173658 190.342838 
L 11.548794 190.183037 
L 11.92393 189.82862 
L 12.299066 189.201531 
L 13.612043 186.456736 
L 13.987179 186.288763 
L 14.174747 186.420455 
L 14.549883 187.096364 
L 15.86286 190.228268 
L 16.425564 190.985259 
L 16.8007 191.06402 
L 17.550972 190.906627 
L 18.301245 191.11308 
L 18.676381 190.855251 
L 19.989358 189.270445 
L 20.364494 189.410435 
L 21.302334 189.9364 
L 21.67747 189.902116 
L 22.240175 189.700609 
L 23.178015 189.804342 
L 23.553151 189.51799 
L 24.67856 188.143786 
L 25.241264 188.097922 
L 25.991536 188.250489 
L 26.55424 188.623076 
L 28.805057 190.588643 
L 29.180194 190.355 
L 29.930466 189.257133 
L 30.868306 187.952468 
L 32.368851 186.712496 
L 32.743987 186.968981 
L 33.49426 187.862405 
L 33.869396 187.942406 
L 34.4321 187.997821 
L 35.557508 188.672792 
L 36.120213 189.295095 
L 36.870485 190.464375 
L 37.808325 192.290216 
L 38.183462 192.542287 
L 38.558598 192.4583 
L 38.933734 192.084546 
L 39.871574 190.943975 
L 40.24671 190.811556 
L 41.184551 190.809325 
L 41.747255 190.255956 
L 42.309959 189.789393 
L 42.685096 189.839589 
L 43.622936 190.464824 
L 43.998072 190.335492 
L 45.311049 189.195131 
L 46.061321 189.257005 
L 47.937002 190.043578 
L 48.687274 190.66371 
L 49.249978 190.618624 
L 49.625115 190.663759 
L 50.562955 191.056814 
L 51.125659 190.781689 
L 51.875932 190.40251 
L 52.251068 190.429041 
L 53.188908 190.977238 
L 53.564044 190.819496 
L 54.126749 190.249514 
L 54.689453 189.38122 
L 55.439725 187.415055 
L 56.002429 186.227136 
L 56.377566 185.803062 
L 56.752702 185.631856 
L 57.127838 185.718052 
L 58.065678 186.328727 
L 59.191087 187.354672 
L 59.566223 187.143355 
L 60.128927 186.741318 
L 60.691632 186.624011 
L 61.066768 186.771634 
L 61.441904 187.298718 
L 62.192176 188.494769 
L 63.317585 189.218448 
L 64.255425 190.317213 
L 64.630561 190.369315 
L 65.005697 190.12977 
L 66.131106 188.995931 
L 66.506242 189.05642 
L 67.256514 189.560978 
L 68.194355 190.022515 
L 68.757059 190.122375 
L 69.319763 190.066029 
L 70.257604 189.790404 
L 71.007876 189.769383 
L 74.384102 188.844395 
L 74.946806 188.871179 
L 75.50951 188.924085 
L 76.072214 188.83567 
L 77.197623 189.047698 
L 77.947895 188.66488 
L 78.510599 188.743948 
L 79.073304 189.067378 
L 79.636008 189.491351 
L 80.011144 189.502946 
L 80.573848 189.357742 
L 80.948984 189.687112 
L 81.699257 190.666664 
L 82.074393 190.649218 
L 83.012233 190.179661 
L 84.137642 190.127342 
L 84.887914 189.645058 
L 85.26305 189.88881 
L 85.825755 190.879447 
L 86.388459 191.83316 
L 86.763595 192.229411 
L 87.138731 192.364092 
L 87.513867 192.188132 
L 88.076572 191.438781 
L 89.20198 189.753596 
L 89.764684 189.553415 
L 91.077661 189.332581 
L 91.827933 189.401036 
L 92.203069 189.762108 
L 93.328478 191.549003 
L 93.703614 191.461635 
L 94.07875 191.019802 
L 95.016591 189.674915 
L 95.204159 189.635464 
L 95.579295 189.903535 
L 96.141999 190.506962 
L 96.517135 190.516003 
L 96.892272 190.223573 
L 97.642544 189.218629 
L 98.392816 188.249877 
L 98.767952 188.044855 
L 99.143089 188.20167 
L 100.268497 189.178709 
L 100.643633 189.199063 
L 101.393906 188.877532 
L 101.769042 189.045898 
L 102.331746 189.359047 
L 102.89445 189.216154 
L 103.457154 189.207259 
L 103.832291 189.257854 
L 104.207427 189.071986 
L 104.770131 188.303312 
L 105.520403 187.333483 
L 105.895539 187.033829 
L 106.270676 187.006855 
L 107.77122 187.63915 
L 109.084197 188.86651 
L 109.646901 189.354903 
L 110.209605 190.265098 
L 110.959878 191.509863 
L 111.335014 191.646231 
L 111.71015 191.306142 
L 112.835559 189.458088 
L 114.148535 188.863032 
L 115.273944 187.876433 
L 115.64908 187.873301 
L 116.774488 188.532312 
L 117.712329 188.303368 
L 118.087465 187.894026 
L 118.650169 186.778467 
L 119.212873 185.823562 
L 119.775578 185.462554 
L 120.338282 185.254893 
L 120.713418 185.322743 
L 121.088554 185.711123 
L 121.838827 186.83392 
L 123.714507 188.219251 
L 124.089644 188.064522 
L 124.839916 187.507695 
L 125.40262 187.17484 
L 125.965324 186.800375 
L 126.528029 186.796247 
L 127.653437 186.963876 
L 128.028573 187.446845 
L 128.778846 188.523363 
L 129.34155 188.803712 
L 129.904254 188.889847 
L 130.466958 188.831808 
L 130.842095 189.019424 
L 131.404799 189.357729 
L 131.967503 189.274778 
L 132.530207 189.321118 
L 133.28048 189.457071 
L 134.405888 189.251692 
L 134.781024 188.974524 
L 135.15616 188.326225 
L 136.094001 186.220857 
L 136.469137 185.911661 
L 136.844273 185.952077 
L 137.594546 186.366058 
L 138.719954 187.161325 
L 139.657794 187.170085 
L 140.032931 187.632928 
L 140.595635 188.759501 
L 141.345907 190.203663 
L 141.721043 190.4737 
L 142.471316 190.536282 
L 142.846452 190.401308 
L 143.596724 189.943561 
L 144.159428 190.099046 
L 145.097269 190.486239 
L 146.035109 191.348502 
L 146.410245 191.218207 
L 146.97295 190.551036 
L 148.098358 188.946241 
L 148.661062 188.668265 
L 149.036199 188.509471 
L 149.598903 187.902047 
L 150.349175 186.805731 
L 151.099447 185.458329 
L 151.474584 185.269394 
L 151.84972 185.649659 
L 152.412424 186.382929 
L 152.78756 186.434227 
L 153.350264 186.217955 
L 153.725401 186.362181 
L 155.038377 187.543091 
L 156.72649 188.22849 
L 158.227035 187.811014 
L 158.602171 187.284249 
L 159.540011 185.50929 
L 159.915147 185.316008 
L 160.290284 185.618088 
L 161.040556 186.568639 
L 161.228124 186.591962 
L 161.60326 186.268684 
L 162.728669 184.617879 
L 163.103805 184.543343 
L 163.478941 184.793276 
L 164.041645 185.178434 
L 164.416781 185.017906 
L 164.979486 184.648986 
L 165.354622 184.603454 
L 165.729758 184.820283 
L 166.104894 185.423312 
L 167.417871 188.393714 
L 167.793007 188.622635 
L 168.168143 188.426213 
L 168.918415 187.596486 
L 169.856256 186.360742 
L 170.231392 186.295938 
L 170.794096 186.64399 
L 171.3568 187.326896 
L 172.107073 188.34015 
L 172.482209 188.485106 
L 173.044913 188.359631 
L 173.795186 187.958856 
L 174.170322 187.590518 
L 174.733026 186.606072 
L 175.483298 185.255926 
L 176.046002 184.752355 
L 176.983843 184.194841 
L 177.734115 183.46355 
L 179.047092 181.806153 
L 180.360068 181.525562 
L 180.735205 181.619942 
L 181.297909 182.087574 
L 181.673045 182.38052 
L 182.048181 182.396118 
L 182.423317 182.099002 
L 183.361158 181.131369 
L 183.923862 180.548319 
L 185.236839 178.874291 
L 185.611975 177.870046 
L 187.675224 170.25801 
L 188.613064 166.073985 
L 189.175768 162.305322 
L 189.738473 156.712815 
L 190.301177 149.211339 
L 190.863881 139.335375 
L 191.614153 121.613304 
L 192.176858 103.501219 
L 192.739562 79.169243 
L 194.240107 4.785111 
L 194.427675 3.00024 
L 194.615243 4.705559 
L 194.990379 17.92301 
L 196.86606 116.495012 
L 197.428764 129.335256 
L 197.991468 136.337181 
L 198.554172 139.772267 
L 200.242285 146.943126 
L 200.617421 147.667207 
L 200.804989 147.767581 
L 201.180126 147.586438 
L 201.555262 147.065523 
L 202.117966 145.702665 
L 202.868238 143.489393 
L 203.055806 143.248364 
L 203.243375 143.252971 
L 203.618511 143.894279 
L 205.494192 148.803803 
L 205.869328 149.219185 
L 206.056896 149.165029 
L 206.244464 148.910485 
L 206.6196 147.831842 
L 207.182304 145.029221 
L 207.932577 140.789693 
L 208.307713 139.860748 
L 208.495281 139.793504 
L 208.682849 139.959216 
L 209.057985 140.972765 
L 209.433121 143.034177 
L 209.995826 147.886305 
L 210.746098 154.21408 
L 211.121234 156.039332 
L 211.49637 156.732186 
L 211.683938 156.694192 
L 211.871506 156.435754 
L 212.246642 155.295012 
L 212.621779 153.162362 
L 213.184483 147.838186 
L 213.934755 140.572017 
L 214.122323 139.699307 
L 214.309891 139.422068 
L 214.497459 139.745734 
L 214.872596 141.91057 
L 215.622868 149.206788 
L 216.37314 156.039159 
L 216.935845 159.387563 
L 217.310981 160.635028 
L 217.686117 161.339306 
L 218.061253 161.53397 
L 218.248821 161.357383 
L 218.436389 160.906339 
L 218.811525 158.915407 
L 219.186662 155.261021 
L 219.749366 146.722947 
L 220.499638 131.046526 
L 221.812615 102.273577 
L 222.375319 93.575477 
L 222.750455 90.760292 
L 222.938023 90.6518 
L 223.125591 91.45704 
L 223.500727 95.487164 
L 224.063432 105.714869 
L 225.001272 128.914425 
L 225.751544 145.442876 
L 226.314249 154.15038 
L 226.876953 159.744491 
L 227.252089 161.996251 
L 227.627225 163.25345 
L 228.002361 163.759066 
L 228.377498 163.820804 
L 228.565066 163.693602 
L 228.940202 162.968528 
L 229.315338 161.487326 
L 229.878042 157.825335 
L 231.191019 147.419006 
L 231.566155 145.669405 
L 231.941291 144.85998 
L 232.128859 144.996094 
L 232.316427 145.574051 
L 232.691564 148.016086 
L 233.254268 153.898075 
L 234.567244 168.487325 
L 235.317517 173.946631 
L 236.067789 178.060667 
L 236.630493 179.993469 
L 237.755902 182.452336 
L 238.506174 183.705471 
L 238.88131 184.075313 
L 239.256446 184.132172 
L 242.445104 183.050502 
L 243.007808 182.437417 
L 243.75808 181.359328 
L 244.133217 181.31344 
L 244.883489 181.616852 
L 245.258625 181.436016 
L 245.821329 180.958247 
L 246.196465 180.987908 
L 246.75917 181.507996 
L 248.072146 182.770759 
L 248.259714 182.781898 
L 248.634851 182.44415 
L 249.572691 180.58733 
L 250.135395 179.353234 
L 250.698099 177.536053 
L 251.448372 174.155664 
L 252.761348 167.882864 
L 253.699189 163.882744 
L 254.261893 160.422804 
L 255.199733 153.01998 
L 255.762438 147.416105 
L 256.325142 139.37484 
L 256.887846 127.473265 
L 257.45055 110.773497 
L 258.200823 80.400829 
L 259.326231 33.046176 
L 259.701367 24.018711 
L 260.076504 19.706748 
L 260.264072 19.312426 
L 260.45164 20.124662 
L 260.639208 22.191453 
L 261.014344 30.09208 
L 261.764616 55.201438 
L 262.327321 71.589857 
L 262.702457 78.275016 
L 263.077593 81.316484 
L 263.265161 81.568176 
L 263.452729 81.071747 
L 263.827865 78.290632 
L 264.953274 66.964548 
L 265.140842 66.280324 
L 265.32841 66.301503 
L 265.515978 67.150409 
L 265.891114 71.616195 
L 266.453818 84.02643 
L 269.26734 155.840141 
L 269.830044 163.450898 
L 270.392748 167.803409 
L 270.955452 170.274264 
L 274.331678 180.999495 
L 274.894382 181.927295 
L 275.457086 182.860229 
L 277.332767 186.9923 
L 277.707903 187.453918 
L 277.895472 187.510985 
L 278.270608 187.236393 
L 279.02088 186.272543 
L 279.208448 186.245822 
L 279.396016 186.369595 
L 279.771152 187.020066 
L 280.521425 188.521056 
L 280.896561 188.848742 
L 282.021969 189.296406 
L 282.397105 189.2132 
L 283.147378 188.937003 
L 284.085218 188.904719 
L 285.023059 188.986016 
L 286.148467 188.657902 
L 286.523603 189.086319 
L 287.273876 190.109442 
L 287.649012 190.287393 
L 288.211716 190.25017 
L 289.712261 189.873864 
L 290.837669 189.697782 
L 291.963078 189.293925 
L 292.900918 189.697672 
L 293.276054 189.557286 
L 293.838759 189.029362 
L 294.964167 187.582005 
L 295.339303 187.750528 
L 295.902007 188.613302 
L 296.464712 189.471687 
L 296.839848 189.585014 
L 297.59012 189.558023 
L 298.152824 189.573649 
L 298.715529 189.221547 
L 299.840937 188.37926 
L 300.966346 187.776634 
L 301.341482 187.986737 
L 302.279322 188.636934 
L 302.654458 188.634185 
L 304.155003 188.235974 
L 304.905275 188.280654 
L 305.46798 187.935197 
L 305.843116 187.748181 
L 306.40582 187.775733 
L 307.343661 187.965197 
L 307.718797 188.377931 
L 308.656637 189.689837 
L 309.031773 189.780799 
L 309.406909 189.649907 
L 310.157182 189.097866 
L 310.719886 188.43182 
L 312.220431 186.072172 
L 312.783135 185.747253 
L 313.345839 185.730704 
L 313.720975 186.00967 
L 315.033952 187.666453 
L 315.596656 188.518253 
L 315.971792 188.771522 
L 317.472337 189.000718 
L 317.847473 188.947427 
L 318.222609 188.7046 
L 318.785314 187.944146 
L 319.348018 187.138777 
L 319.723154 186.945913 
L 320.660994 186.934954 
L 321.036131 186.823471 
L 321.411267 186.920883 
L 321.973971 187.162871 
L 322.724243 187.249169 
L 323.099379 187.602083 
L 323.849652 188.535082 
L 324.224788 188.592304 
L 324.787492 188.215699 
L 325.912901 187.278386 
L 326.100469 187.297287 
L 326.475605 187.703429 
L 327.038309 188.464258 
L 327.225877 188.451363 
L 327.601013 187.909393 
L 328.163718 186.989281 
L 328.351286 186.919591 
L 328.726422 187.105848 
L 329.476694 187.785392 
L 329.85183 187.728877 
L 330.226967 187.222137 
L 331.352375 184.997585 
L 331.727511 184.706836 
L 332.290216 184.698293 
L 334.165896 185.125967 
L 335.103737 185.608045 
L 336.416713 185.755355 
L 336.79185 185.448683 
L 337.354554 184.540125 
L 338.855098 181.595988 
L 339.605371 179.492954 
L 340.543211 175.806856 
L 341.481052 171.836432 
L 342.043756 168.306676 
L 342.60646 163.044776 
L 343.356732 153.203756 
L 344.482141 135.283401 
L 345.232413 118.623862 
L 346.732958 79.239554 
L 347.108094 75.788622 
L 347.295662 75.953563 
L 347.48323 77.293418 
L 347.858366 82.66855 
L 350.48432 130.633957 
L 351.047024 135.766379 
L 351.42216 137.442721 
L 351.797296 138.022164 
L 351.984864 137.911585 
L 352.172432 137.486985 
L 352.547568 135.572229 
L 352.922705 132.228095 
L 353.485409 124.831264 
L 354.235681 111.416794 
L 355.173522 90.822418 
L 356.861634 48.969232 
L 357.049202 47.225792 
L 357.236771 46.972112 
L 357.424339 48.346015 
L 357.799475 55.886026 
L 358.362179 75.62149 
L 359.487588 116.908733 
L 360.23786 135.769745 
L 361.1757 152.640766 
L 361.925973 161.936366 
L 362.488677 166.618587 
L 363.051381 169.832924 
L 364.927062 178.363773 
L 365.489766 179.443844 
L 366.05247 180.353123 
L 367.928151 184.227857 
L 368.303287 184.359521 
L 369.05356 184.230984 
L 369.428696 184.477766 
L 369.803832 184.998667 
L 370.366536 186.388911 
L 371.116809 188.263359 
L 371.491945 188.791638 
L 371.679513 188.88764 
L 372.054649 188.71205 
L 372.99249 187.744945 
L 373.93033 187.237506 
L 374.493034 186.891041 
L 374.86817 187.037331 
L 375.243307 187.190313 
L 375.618443 186.886512 
L 376.181147 186.230679 
L 376.368715 186.236604 
L 376.556283 186.410469 
L 376.931419 187.201602 
L 377.681692 188.961237 
L 378.056828 189.230863 
L 378.431964 189.155443 
L 378.8071 188.877742 
L 379.182236 188.382099 
L 380.120077 186.851495 
L 380.307645 186.867765 
L 380.682781 187.353317 
L 381.433053 189.144229 
L 381.995758 190.434726 
L 382.370894 190.787244 
L 382.74603 190.662654 
L 384.621711 189.166721 
L 385.184415 188.915934 
L 387.6228 186.599049 
L 388.185504 186.41853 
L 388.935777 186.483372 
L 389.310913 186.81172 
L 389.686049 187.522564 
L 390.436321 189.026668 
L 390.811457 189.176017 
L 391.374162 189.237182 
L 392.687138 189.955605 
L 393.062274 189.932845 
L 393.437411 189.6993 
L 394.562819 188.727707 
L 395.313091 188.3947 
L 396.250932 187.448443 
L 397.001204 186.373048 
L 397.751476 184.947975 
L 398.126613 184.322638 
L 398.501749 184.122872 
L 398.876885 184.400796 
L 399.627157 185.619654 
L 400.564998 187.437183 
L 401.127702 188.550211 
L 401.502838 188.92219 
L 401.877974 189.004449 
L 402.25311 188.837732 
L 403.190951 188.016266 
L 403.566087 188.095071 
L 404.316359 188.751984 
L 404.879064 189.153372 
L 405.2542 189.174526 
L 405.629336 188.798106 
L 406.19204 187.450058 
L 406.754744 186.079109 
L 407.129881 185.572117 
L 407.505017 185.414336 
L 407.880153 185.586084 
L 408.442857 186.378613 
L 409.005561 187.117197 
L 409.380698 187.309952 
L 409.755834 187.171612 
L 410.881242 186.287095 
L 412.006651 185.823153 
L 412.944491 185.797898 
L 413.319627 185.550236 
L 413.882332 184.721718 
L 414.632604 183.178851 
L 415.00774 181.936369 
L 415.758012 178.306462 
L 416.883421 171.977352 
L 417.633693 166.15329 
L 418.383966 158.47858 
L 419.134238 148.578542 
L 419.88451 135.364569 
L 420.634783 118.094721 
L 421.197487 100.713757 
L 421.947759 70.054723 
L 422.510463 47.456639 
L 422.8856 38.846769 
L 423.073168 37.57056 
L 423.260736 38.400947 
L 423.635872 45.437611 
L 424.386144 69.941375 
L 425.323985 98.459582 
L 426.261825 121.098372 
L 427.012097 134.622728 
L 427.574802 140.809532 
L 427.949938 142.932884 
L 428.325074 143.663457 
L 428.512642 143.538589 
L 428.70021 143.066737 
L 429.075346 141.022854 
L 429.450482 137.544213 
L 430.013187 129.921491 
L 430.763459 116.309111 
L 432.826708 76.028721 
L 433.014276 74.955061 
L 433.201844 75.289169 
L 433.389412 77.188826 
L 433.764548 85.534081 
L 435.640229 142.982051 
L 436.390502 155.235474 
L 437.328342 167.413598 
L 437.891046 172.623932 
L 438.45375 175.836192 
L 439.016455 177.477219 
L 439.954295 180.172432 
L 440.704567 182.090989 
L 442.39268 185.072153 
L 443.142953 186.031768 
L 443.705657 186.417974 
L 444.643497 186.684868 
L 445.206201 186.598325 
L 445.768906 186.28189 
L 446.33161 185.926293 
L 446.894314 185.88122 
L 447.832155 185.952942 
L 448.207291 186.371767 
L 448.957563 187.498453 
L 449.332699 187.464785 
L 450.082972 186.995636 
L 450.458108 186.980841 
L 450.833244 187.173852 
L 452.333789 188.649885 
L 453.646765 190.316974 
L 454.021901 190.126605 
L 454.584606 189.710278 
L 455.14731 189.623497 
L 455.522446 189.573485 
L 455.897582 189.318393 
L 456.835423 188.240183 
L 457.585695 188.057841 
L 457.960831 188.135977 
L 458.523535 188.696878 
L 458.898671 189.027588 
L 459.273808 189.109294 
L 460.399216 188.934663 
L 461.337057 189.241362 
L 461.712193 189.18693 
L 462.837601 188.591411 
L 463.587874 188.964483 
L 463.96301 188.941484 
L 464.90085 188.64173 
L 465.275986 188.995467 
L 465.838691 189.779842 
L 466.213827 189.906755 
L 466.588963 189.692198 
L 467.526803 189.021337 
L 468.089508 189.035099 
L 471.090597 189.681623 
L 471.653301 190.185708 
L 472.591142 191.258671 
L 472.966278 191.265036 
L 473.71655 191.004912 
L 474.279254 191.117318 
L 475.404663 191.450434 
L 476.530071 191.332014 
L 477.280344 191.594275 
L 478.780888 191.227261 
L 480.844137 190.90991 
L 481.59441 190.873151 
L 482.53225 190.616969 
L 483.47009 190.591095 
L 483.845227 190.274152 
L 485.158203 188.437929 
L 485.533339 188.522909 
L 485.908475 188.948261 
L 486.658748 190.068353 
L 487.033884 190.245393 
L 487.596588 190.143531 
L 488.721997 189.622365 
L 489.847405 188.745152 
L 490.222541 189.004946 
L 491.160382 190.276612 
L 491.34795 190.281604 
L 491.723086 189.991826 
L 492.473358 189.270507 
L 492.848495 189.255761 
L 493.411199 189.631655 
L 493.973903 190.107926 
L 494.536607 191.004624 
L 495.099311 191.860573 
L 495.474448 192.013769 
L 496.787424 191.924599 
L 497.16256 191.599358 
L 499.038241 189.362345 
L 499.788514 188.980903 
L 500.16365 189.046926 
L 500.726354 189.651744 
L 501.664194 190.676699 
L 502.039331 190.759604 
L 502.414467 190.500271 
L 503.164739 189.944469 
L 504.665284 189.125703 
L 505.790692 189.091166 
L 507.666373 188.627515 
L 508.041509 188.924198 
L 508.416645 189.650068 
L 509.166918 191.291602 
L 509.542054 191.650827 
L 509.91719 191.715788 
L 510.292326 191.584001 
L 510.85503 191.103036 
L 511.792871 189.916137 
L 512.543143 188.945216 
L 512.918279 188.954455 
L 513.480984 189.543345 
L 514.043688 190.073866 
L 514.606392 190.324661 
L 514.981528 190.289009 
L 516.294505 189.585371 
L 517.607481 188.739264 
L 518.545322 188.343511 
L 518.920458 188.635277 
L 519.483162 189.691328 
L 520.045867 190.609458 
L 520.421003 190.772391 
L 520.796139 190.620079 
L 521.171275 190.155589 
L 522.67182 187.662448 
L 523.046956 187.403601 
L 523.984796 187.231011 
L 524.735069 187.252393 
L 525.297773 187.176984 
L 526.048045 186.783393 
L 526.423181 186.931374 
L 526.985886 187.312677 
L 527.361022 187.28781 
L 528.48643 186.959013 
L 528.861566 187.241887 
L 529.986975 188.7487 
L 531.112383 189.108419 
L 531.48752 189.11732 
L 531.862656 188.876991 
L 532.612928 188.339682 
L 533.925905 187.923573 
L 534.676177 187.363306 
L 535.051313 187.396854 
L 535.426449 187.933215 
L 536.551858 190.302856 
L 537.114562 190.556847 
L 538.427539 191.03012 
L 539.177811 190.872923 
L 539.740515 190.591735 
L 540.678356 189.968886 
L 541.991332 189.62768 
L 542.741605 189.048812 
L 545.17999 186.426007 
L 545.555126 186.543067 
L 546.305398 187.150964 
L 546.680534 187.218802 
L 547.05567 187.076936 
L 547.805943 186.563861 
L 548.181079 186.65445 
L 548.556215 187.150918 
L 549.681624 189.190198 
L 551.744873 191.282767 
L 552.495145 191.707584 
L 552.870281 191.702608 
L 554.370826 191.140111 
L 554.745962 191.187397 
L 555.496234 191.468173 
L 555.87137 191.379503 
L 557.559483 190.391507 
L 558.497324 190.535145 
L 560.185436 189.435431 
L 560.560572 189.448459 
L 561.685981 190.016077 
L 562.998958 190.996474 
L 563.74923 191.144288 
L 564.311934 191.257264 
L 564.68707 191.090386 
L 565.062206 190.627511 
L 566.000047 189.198907 
L 566.375183 189.161831 
L 566.937887 189.539095 
L 567.500591 189.874372 
L 567.875728 189.734908 
L 569.001136 188.659369 
L 569.56384 188.627017 
L 569.938977 188.824261 
L 570.501681 189.459758 
L 571.627089 191.04576 
L 572.002225 191.126574 
L 572.377362 190.915118 
L 573.315202 189.949975 
L 574.065474 189.709644 
L 574.628179 189.094426 
L 575.190883 188.549401 
L 575.566019 188.546986 
L 576.128723 188.984755 
L 577.066564 189.750599 
L 577.4417 189.790215 
L 577.816836 189.552291 
L 579.317381 188.178757 
L 579.880085 188.020836 
L 580.255221 188.155497 
L 581.193062 188.880235 
L 582.31847 189.0302 
L 582.693606 188.641816 
L 583.25631 187.797931 
L 583.631447 187.641898 
L 584.006583 187.970504 
L 584.381719 188.744124 
L 585.319559 191.166977 
L 585.694696 191.377663 
L 587.570376 190.850281 
L 587.945513 190.365306 
L 588.695785 189.30129 
L 589.070921 189.214629 
L 590.19633 189.397609 
L 590.571466 189.266267 
L 590.946602 188.881956 
L 592.07201 187.382869 
L 592.447147 187.502666 
L 593.009851 188.173369 
L 593.572555 189.113124 
L 594.322827 190.469054 
L 594.510395 190.627532 
L 594.697964 190.636297 
L 595.0731 190.208464 
L 595.823372 189.040353 
L 596.573644 188.505584 
L 597.136349 188.2769 
L 597.511485 188.390943 
L 598.636893 189.201013 
L 599.012029 188.957606 
L 599.762302 188.17813 
L 600.137438 188.089306 
L 600.512574 188.275756 
L 601.825551 189.45825 
L 603.138527 190.214635 
L 603.8888 190.863689 
L 604.263936 190.843433 
L 604.82664 190.371956 
L 605.389344 189.650278 
L 605.952048 188.254322 
L 606.514753 186.846802 
L 606.889889 186.38563 
L 607.827729 185.865685 
L 608.202865 185.906847 
L 608.578002 186.220596 
L 609.140706 187.097525 
L 609.890978 188.25891 
L 610.828819 189.146413 
L 611.954227 189.921473 
L 612.892068 190.582883 
L 613.267204 190.499033 
L 615.142885 189.255753 
L 615.518021 189.430699 
L 616.080725 189.861316 
L 616.643429 189.929284 
L 617.393702 189.755346 
L 618.51911 189.410963 
L 619.269382 188.757481 
L 620.019655 187.91225 
L 620.394791 187.868451 
L 621.145063 188.024978 
L 621.520199 187.830637 
L 622.082904 187.194815 
L 623.020744 185.806491 
L 623.39588 185.550895 
L 623.771016 185.538248 
L 624.521289 185.68023 
L 625.083993 185.441507 
L 626.772106 184.62368 
L 627.147242 184.75625 
L 627.709946 185.281957 
L 628.460218 186.01379 
L 629.398059 186.361154 
L 629.960763 186.481164 
L 630.335899 186.320863 
L 630.898604 185.725807 
L 631.836444 184.228445 
L 632.399148 183.500797 
L 632.774284 183.357244 
L 633.149421 183.466111 
L 633.899693 183.803585 
L 634.274829 183.57955 
L 634.649965 182.958726 
L 635.212669 181.455009 
L 635.962942 178.491884 
L 636.525646 175.503498 
L 637.651054 167.434744 
L 638.213759 162.629362 
L 638.776463 155.8458 
L 639.526735 143.668586 
L 640.839712 120.671741 
L 641.214848 116.980909 
L 641.589984 115.101437 
L 641.777552 114.864234 
L 641.96512 115.135736 
L 642.152688 115.942074 
L 642.527825 119.173293 
L 643.090529 127.537251 
L 644.591074 153.098612 
L 645.341346 161.874174 
L 646.279186 170.104163 
L 647.029459 175.186495 
L 647.779731 178.734095 
L 648.530003 181.234222 
L 649.092708 182.414717 
L 649.467844 182.940826 
L 649.84298 183.139584 
L 650.218116 182.953626 
L 650.593252 182.70447 
L 650.968388 182.811128 
L 651.531093 183.575171 
L 652.093797 184.288368 
L 653.219205 185.322574 
L 653.969478 186.252532 
L 654.344614 186.319529 
L 654.907318 186.161582 
L 655.282454 186.414382 
L 656.970567 188.551015 
L 657.345703 188.54437 
L 658.283544 188.185806 
L 658.846248 187.540717 
L 659.784088 186.411147 
L 660.534361 185.475771 
L 661.284633 184.441246 
L 661.659769 184.211504 
L 662.034905 184.272815 
L 662.410041 184.563033 
L 662.972746 185.381503 
L 663.723018 186.760544 
L 664.098154 187.021166 
L 664.47329 186.997871 
L 664.848427 186.752844 
L 665.973835 185.720034 
L 666.348971 185.601335 
L 666.724107 185.768722 
L 667.099244 186.252501 
L 668.037084 187.685672 
L 669.350061 188.973203 
L 669.725197 188.980215 
L 670.287901 188.583216 
L 671.976014 187.258486 
L 672.726286 187.116561 
L 673.101422 187.226026 
L 674.414399 187.891286 
L 674.789535 187.533013 
L 675.727375 186.276785 
L 677.040352 185.266114 
L 677.22792 185.329921 
L 677.603056 185.878531 
L 678.16576 187.415141 
L 678.916033 189.603319 
L 679.291169 190.203672 
L 679.666305 190.438694 
L 680.041441 190.455023 
L 681.16685 190.114294 
L 681.541986 189.688668 
L 683.230099 187.094018 
L 683.605235 186.99058 
L 685.293348 187.180168 
L 685.668484 186.955328 
L 686.418756 186.347477 
L 686.606324 186.38222 
L 686.98146 186.777362 
L 687.731733 188.162702 
L 688.669573 190.081314 
L 689.044709 190.427768 
L 689.419845 190.383459 
L 690.357686 189.802892 
L 690.732822 190.068576 
L 691.670662 191.379497 
L 691.85823 191.358179 
L 692.233367 191.01684 
L 693.358775 189.583068 
L 693.546343 189.49853 
L 693.733911 189.539447 
L 694.109047 189.936788 
L 694.671752 190.530231 
L 695.609592 190.95298 
L 695.984728 190.907934 
L 696.359864 190.596227 
L 697.297705 189.617964 
L 697.672841 189.457349 
L 698.047977 189.494192 
L 698.985818 189.875711 
L 699.360954 189.583052 
L 700.298794 188.412273 
L 700.486362 188.407208 
L 700.861498 188.769618 
L 701.611771 189.948797 
L 701.986907 190.231673 
L 702.362043 190.280025 
L 702.737179 190.050366 
L 703.299884 189.232916 
L 704.050156 188.19753 
L 704.987996 187.327776 
L 705.550701 186.678601 
L 705.925837 186.254681 
L 706.300973 186.228621 
L 706.676109 186.580226 
L 707.426381 187.431131 
L 707.801517 187.555429 
L 708.176654 187.266724 
L 708.55179 186.865803 
L 708.739358 186.791953 
L 709.114494 186.989022 
L 710.239903 188.169867 
L 710.802607 188.472545 
L 711.365311 189.271461 
L 711.928015 189.934537 
L 713.053424 190.52862 
L 713.42856 190.416343 
L 713.803696 189.969242 
L 715.116673 187.75441 
L 715.491809 187.519349 
L 716.804785 187.059988 
L 717.179922 187.047396 
L 717.555058 187.381379 
L 718.492898 188.491023 
L 718.868034 188.539845 
L 719.430739 188.298255 
L 720.181011 187.797987 
L 720.556147 187.798635 
L 721.306419 187.905014 
L 722.431828 187.453736 
L 722.806964 187.828837 
L 723.744805 189.44832 
L 724.119941 189.525485 
L 724.495077 189.262504 
L 725.057781 188.59586 
L 725.620485 187.438451 
L 726.370758 185.786606 
L 726.745894 185.486796 
L 726.933462 185.522294 
L 727.308598 185.928014 
L 727.871302 187.1441 
L 728.621575 188.828422 
L 728.996711 189.336034 
L 729.371847 189.575188 
L 729.746983 189.568507 
L 730.122119 189.326831 
L 731.247528 188.057577 
L 731.9978 187.359656 
L 732.372936 187.410281 
L 733.123209 187.881331 
L 733.498345 187.793248 
L 734.061049 187.404684 
L 735.186458 186.212621 
L 735.93673 185.656238 
L 736.687002 184.967845 
L 736.87457 184.990931 
L 737.249707 185.460455 
L 737.812411 187.022821 
L 738.375115 188.566669 
L 738.750251 189.009048 
L 739.125387 188.974286 
L 739.688092 188.865071 
L 740.063228 189.1065 
L 741.001068 190.176748 
L 741.376204 190.209194 
L 741.75134 189.829462 
L 742.314045 188.618899 
L 742.876749 187.357386 
L 743.251885 186.946354 
L 743.439453 186.962823 
L 743.814589 187.377376 
L 744.377294 188.116217 
L 744.75243 188.296835 
L 745.127566 188.402823 
L 745.502702 188.784805 
L 746.440543 190.428828 
L 746.815679 190.509224 
L 747.190815 190.313883 
L 747.753519 189.743329 
L 748.316223 189.246409 
L 748.69136 189.245613 
L 749.441632 189.536691 
L 750.004336 190.135306 
L 750.56704 190.664848 
L 750.942177 190.789417 
L 751.317313 190.657543 
L 752.255153 189.755659 
L 752.817857 188.975263 
L 753.380562 188.200994 
L 753.755698 187.99838 
L 754.50597 188.019717 
L 755.068674 188.204397 
L 755.818947 188.783588 
L 756.569219 189.440703 
L 756.944355 189.522934 
L 757.319491 189.38841 
L 757.694628 188.939724 
L 758.820036 187.154333 
L 759.38274 186.740624 
L 759.757876 186.731448 
L 763.134102 188.216719 
L 763.509238 188.438325 
L 763.884374 188.444545 
L 765.009783 188.167102 
L 765.384919 188.34783 
L 766.510327 189.38791 
L 766.885464 189.288197 
L 768.573576 188.063602 
L 769.698985 186.527028 
L 770.261689 185.326139 
L 770.824393 184.050243 
L 771.19953 183.584736 
L 771.574666 183.493105 
L 771.949802 183.724087 
L 772.700074 184.343934 
L 773.262778 184.406737 
L 774.013051 184.278742 
L 774.575755 183.858155 
L 774.950891 183.595123 
L 775.326027 183.570512 
L 776.0763 183.666596 
L 777.389276 183.522368 
L 777.764412 183.759209 
L 778.327117 184.69785 
L 778.702253 185.248029 
L 779.077389 185.455646 
L 779.640093 185.405769 
L 780.015229 185.37499 
L 780.390366 185.538588 
L 780.765502 185.969143 
L 781.140638 186.739723 
L 782.078478 189.084189 
L 782.453614 189.329276 
L 783.203887 189.099464 
L 783.766591 188.844279 
L 785.642272 187.183329 
L 786.76768 186.283119 
L 788.080657 184.357044 
L 788.830929 183.758017 
L 789.76877 183.008829 
L 790.143906 183.013951 
L 790.519042 183.301598 
L 791.456882 184.227036 
L 792.019587 184.404093 
L 792.769859 184.315774 
L 794.082836 183.849328 
L 794.64554 183.389052 
L 796.333653 181.601381 
L 797.646629 179.111569 
L 798.209333 178.674587 
L 798.772038 178.575661 
L 800.647719 178.672768 
L 801.210423 178.483855 
L 801.585559 178.72416 
L 802.148263 179.650431 
L 802.710967 180.394802 
L 803.086104 180.505836 
L 803.46124 180.384287 
L 804.39908 179.768999 
L 804.774216 179.836935 
L 805.336921 180.04361 
L 805.712057 179.856991 
L 806.087193 179.213497 
L 807.587738 175.543319 
L 810.213691 172.074254 
L 811.901804 167.731851 
L 812.27694 167.498204 
L 812.652076 167.601359 
L 813.21478 167.843466 
L 813.589916 167.763764 
L 813.965052 167.384195 
L 815.090461 165.869904 
L 815.465597 165.392638 
L 816.028301 164.103992 
L 817.903982 159.325006 
L 818.466686 158.551351 
L 818.841823 158.42085 
L 819.216959 158.364644 
L 819.592095 157.92779 
L 821.842912 153.361951 
L 822.593184 152.092752 
L 823.155888 150.508974 
L 823.718593 147.941369 
L 824.468865 142.770967 
L 825.406705 134.21471 
L 826.532114 123.365786 
L 826.719682 122.628792 
L 826.90725 122.527663 
L 827.094818 123.006801 
L 827.657522 126.232994 
L 828.407795 130.46236 
L 828.970499 132.692892 
L 829.533203 133.921351 
L 830.095908 134.550453 
L 830.658612 134.821035 
L 831.033748 134.829412 
L 831.408884 134.631775 
L 831.971588 133.922973 
L 832.534293 133.264382 
L 833.096997 132.925998 
L 833.659701 132.882467 
L 834.597542 133.192723 
L 834.972678 133.527061 
L 835.535382 134.545319 
L 836.285654 135.881963 
L 836.66079 136.10816 
L 837.035927 136.022554 
L 837.973767 135.255606 
L 838.161335 135.365783 
L 838.536471 136.094502 
L 839.099176 137.485943 
L 839.286744 137.676358 
L 839.474312 137.660406 
L 839.849448 137.11111 
L 840.412152 135.963838 
L 840.59972 135.834746 
L 840.787288 135.927581 
L 841.725129 137.250992 
L 841.912697 136.949484 
L 842.287833 135.24659 
L 842.662969 131.850386 
L 843.038105 126.418857 
L 843.60081 114.238704 
L 844.163514 103.308876 
L 844.351082 102.353233 
L 844.53865 103.268197 
L 844.913786 109.615463 
L 845.851627 130.232862 
L 846.414331 137.128954 
L 846.789467 139.478247 
L 847.164603 140.664506 
L 847.539739 141.110257 
L 847.914875 141.166966 
L 848.47758 141.159392 
L 848.852716 141.34549 
L 851.103533 143.048364 
L 851.666237 143.026492 
L 852.041373 143.391815 
L 852.604077 144.515566 
L 853.35435 146.072611 
L 853.729486 146.393042 
L 854.479758 146.62683 
L 854.854894 147.066525 
L 855.605167 148.28765 
L 855.980303 148.418289 
L 857.29328 148.12946 
L 857.668416 148.454679 
L 858.043552 149.226549 
L 858.981392 152.146471 
L 859.731665 154.18852 
L 860.481937 156.064512 
L 861.419777 158.887629 
L 861.794914 159.469794 
L 862.545186 160.239995 
L 862.920322 160.998728 
L 863.670594 162.776161 
L 864.983571 164.98496 
L 865.921411 167.000144 
L 867.04682 168.799846 
L 868.172228 170.910018 
L 868.547365 171.268534 
L 868.922501 171.368605 
L 869.485205 171.448258 
L 869.860341 171.801758 
L 870.610613 172.674443 
L 871.548454 173.115019 
L 872.298726 174.159451 
L 873.048999 175.510774 
L 874.737111 178.751 
L 875.112247 179.006395 
L 876.050088 179.21454 
L 876.425224 179.649993 
L 877.363064 181.174627 
L 877.738201 181.204737 
L 878.300905 180.886385 
L 878.676041 181.050072 
L 879.80145 182.377569 
L 880.176586 182.165017 
L 881.489562 180.673939 
L 881.864698 180.848598 
L 882.990107 181.934454 
L 883.177675 181.849531 
L 883.552811 181.284109 
L 885.240924 177.580568 
L 886.366332 176.410248 
L 886.929037 175.682622 
L 887.304173 175.551909 
L 887.866877 175.398561 
L 888.242013 174.829971 
L 888.617149 173.521803 
L 889.179854 170.268724 
L 890.117694 163.362882 
L 890.680398 157.956332 
L 891.243103 150.433734 
L 891.805807 139.643158 
L 892.368511 124.725561 
L 892.931215 104.178703 
L 893.49392 75.123543 
L 894.056624 32.513318 
L 894.372819 -1 
M 897.973289 -1 
L 898.37069 37.44785 
L 898.933394 76.363084 
L 899.683666 110.955328 
L 900.433939 133.598463 
L 900.996643 144.995801 
L 901.746915 155.435232 
L 902.497188 162.232412 
L 903.24746 167.133578 
L 903.810164 169.627446 
L 904.372868 171.319629 
L 905.310709 173.45061 
L 905.873413 175.810735 
L 906.623685 179.073362 
L 907.18639 180.407465 
L 908.686934 182.672453 
L 908.874502 182.69224 
L 909.249639 182.433969 
L 909.812343 182.015629 
L 910.187479 182.167271 
L 910.562615 182.703339 
L 911.500456 184.719381 
L 912.813432 187.618405 
L 913.188568 187.987683 
L 913.938841 188.297214 
L 914.313977 188.29677 
L 916.00209 187.631853 
L 916.752362 186.814157 
L 917.127498 186.794716 
L 917.502634 187.224908 
L 918.440475 188.920384 
L 919.190747 189.626775 
L 919.565883 189.721233 
L 919.941019 189.459383 
L 920.691292 188.784876 
L 921.441564 188.229551 
L 922.191836 187.603184 
L 923.504813 187.162822 
L 924.442653 186.428153 
L 925.005357 186.424319 
L 925.568062 186.637014 
L 927.443743 188.055852 
L 929.319423 189.286547 
L 931.195104 191.431336 
L 931.945377 191.876528 
L 932.320513 191.84771 
L 932.695649 191.491598 
L 933.445921 190.36919 
L 933.821057 190.22364 
L 934.758898 190.368009 
L 935.50917 190.782392 
L 936.822147 191.770937 
L 937.197283 191.738183 
L 937.572419 191.33305 
L 938.135123 190.501479 
L 938.510259 190.26884 
L 940.38594 189.708108 
L 940.948645 189.469557 
L 941.323781 189.488336 
L 941.886485 189.860057 
L 942.636757 190.382935 
L 943.011893 190.390501 
L 943.38703 190.151543 
L 944.137302 189.451518 
L 944.700006 189.307075 
L 945.450279 189.216961 
L 947.701096 188.653152 
L 948.451368 189.338014 
L 949.20164 189.941876 
L 950.514617 190.431192 
L 951.827593 190.798121 
L 952.390298 190.760858 
L 953.515706 191.016317 
L 954.07841 190.621749 
L 954.453546 190.395847 
L 954.828683 190.364058 
L 955.766523 190.678697 
L 956.329227 191.034415 
L 956.891932 191.447398 
L 957.267068 191.442707 
L 957.642204 191.095877 
L 958.392476 190.182902 
L 958.767612 190.036809 
L 959.142749 190.154465 
L 959.705453 190.417384 
L 960.643293 190.529921 
L 961.205997 191.101955 
L 961.768702 191.576337 
L 962.331406 191.593798 
L 963.644383 191.443514 
L 964.207087 191.253141 
L 964.582223 191.400451 
L 965.707631 192.18361 
L 966.082768 192.141065 
L 967.208176 191.325089 
L 967.958448 190.389186 
L 968.521153 189.84254 
L 969.271425 189.45126 
L 969.646561 189.58358 
L 970.584402 190.333329 
L 970.959538 190.299845 
L 971.522242 189.847773 
L 972.084946 189.410372 
L 972.460082 189.304517 
L 972.835219 189.412773 
L 974.148195 190.115441 
L 974.523331 189.843874 
L 975.461172 188.587379 
L 975.836308 188.727627 
L 976.774148 189.688032 
L 977.336853 189.781173 
L 977.899557 189.566008 
L 978.462261 189.280654 
L 978.837397 189.263172 
L 979.212533 189.461681 
L 980.52551 190.685615 
L 981.275782 191.059684 
L 982.026055 191.815897 
L 982.588759 192.743161 
L 983.151463 193.775007 
L 983.526599 194.040097 
L 983.901736 193.880437 
L 984.46444 193.464468 
L 985.027144 193.249019 
L 985.40228 192.854093 
L 986.527689 191.315123 
L 987.090393 191.027432 
L 988.028233 190.677419 
L 988.590938 190.577587 
L 989.34121 190.57032 
L 989.716346 190.607332 
L 990.091482 190.963698 
L 990.841755 191.791437 
L 991.216891 191.93294 
L 991.592027 191.877845 
L 992.529867 191.56393 
L 992.905003 191.811615 
L 993.467708 192.834984 
L 994.21798 194.163501 
L 994.780684 194.630975 
L 996.093661 195.138601 
L 996.468797 194.842249 
L 997.031501 193.866154 
L 998.907182 189.891806 
L 1000.220159 187.621387 
L 1000.407727 187.483787 
L 1000.595295 187.484938 
L 1000.782863 187.648205 
L 1001.157999 188.434155 
L 1002.09584 190.92051 
L 1002.283408 191.036728 
L 1002.658544 190.826483 
L 1003.221248 190.264859 
L 1003.783952 190.101315 
L 1004.534225 189.955925 
L 1005.096929 189.545655 
L 1005.847201 188.974373 
L 1006.409905 188.801269 
L 1006.785042 188.855466 
L 1007.160178 189.088688 
L 1008.285586 190.046325 
L 1008.660722 189.551503 
L 1009.786131 187.150958 
L 1010.161267 186.892541 
L 1010.723971 186.984909 
L 1011.474244 187.274932 
L 1012.224516 187.942723 
L 1012.78722 188.847181 
L 1013.537493 190.258304 
L 1013.912629 190.517463 
L 1014.287765 190.386816 
L 1014.662901 189.901185 
L 1015.600742 188.447287 
L 1016.351014 187.884404 
L 1016.72615 187.832059 
L 1017.288854 188.079449 
L 1017.851559 188.639575 
L 1018.414263 189.200506 
L 1018.789399 189.273708 
L 1019.164535 188.944953 
L 1020.102376 187.562338 
L 1020.477512 187.386306 
L 1020.852648 187.380447 
L 1021.227784 187.556695 
L 1021.790488 188.210604 
L 1023.291033 190.452912 
L 1023.666169 190.579326 
L 1024.041305 190.440529 
L 1025.354282 189.450757 
L 1025.54185 189.492576 
L 1025.916986 189.945994 
L 1026.854826 191.592811 
L 1027.229963 191.898403 
L 1027.605099 191.943113 
L 1027.980235 191.620937 
L 1028.355371 190.893399 
L 1029.293212 188.631153 
L 1029.668348 188.426239 
L 1030.043484 188.733766 
L 1030.981324 189.92111 
L 1031.919165 190.671986 
L 1033.232141 192.5061 
L 1033.794846 192.718268 
L 1034.169982 192.676178 
L 1034.545118 192.308971 
L 1034.920254 191.569167 
L 1036.045663 188.836484 
L 1036.420799 188.657682 
L 1037.358639 188.734697 
L 1037.921343 188.381767 
L 1038.859184 187.49928 
L 1039.23432 187.470209 
L 1040.734865 188.07691 
L 1041.110001 188.392657 
L 1042.235409 189.855821 
L 1042.610545 189.761613 
L 1044.486226 188.414945 
L 1044.861362 188.513837 
L 1045.236499 189.039089 
L 1046.174339 191.016513 
L 1046.549475 191.220284 
L 1046.924611 190.926589 
L 1047.674884 189.940788 
L 1048.05002 189.820716 
L 1048.612724 189.936002 
L 1049.175428 190.340852 
L 1050.113269 191.166614 
L 1050.488405 191.181252 
L 1050.863541 191.000514 
L 1052.176518 190.064617 
L 1053.114358 189.967366 
L 1053.489494 190.150002 
L 1054.427335 190.764785 
L 1055.740311 190.727332 
L 1056.86572 190.453113 
L 1058.366264 191.213387 
L 1058.741401 191.240602 
L 1059.116537 190.994269 
L 1059.866809 190.205164 
L 1061.74249 189.281781 
L 1062.68033 189.261127 
L 1063.055466 189.533869 
L 1063.618171 190.468329 
L 1064.368443 191.571362 
L 1064.931147 192.11889 
L 1065.306283 192.224529 
L 1065.68142 192.00445 
L 1067.5571 190.037026 
L 1067.744669 190.007499 
L 1068.119805 190.308128 
L 1069.245213 192.03206 
L 1069.620349 192.058324 
L 1070.183054 191.698601 
L 1070.745758 191.045561 
L 1072.433871 188.829242 
L 1072.809007 188.618284 
L 1073.184143 188.614242 
L 1073.559279 188.842494 
L 1075.059824 190.267374 
L 1075.810096 190.91086 
L 1076.3728 191.200195 
L 1076.747937 191.168035 
L 1077.310641 190.827027 
L 1078.248481 190.161687 
L 1078.623617 190.124267 
L 1081.249571 191.336308 
L 1081.999843 191.805757 
L 1082.562547 191.81593 
L 1083.687956 191.657719 
L 1085.376068 190.778187 
L 1085.938773 190.305551 
L 1086.313909 190.329053 
L 1086.689045 190.65175 
L 1087.814453 192.156574 
L 1088.18959 192.06512 
L 1088.564726 191.603095 
L 1089.502566 190.1777 
L 1089.877702 189.902546 
L 1090.252839 189.85197 
L 1091.378247 190.064517 
L 1091.753383 189.850969 
L 1092.128519 189.395236 
L 1093.253928 187.547992 
L 1093.629064 187.393679 
L 1094.191768 187.497999 
L 1095.129609 187.802918 
L 1097.192858 189.679243 
L 1098.130698 190.89855 
L 1098.318266 190.862786 
L 1098.693402 190.428705 
L 1099.443675 189.253998 
L 1099.818811 188.96899 
L 1100.193947 189.014053 
L 1101.506923 189.92374 
L 1102.069628 189.75745 
L 1102.444764 189.472255 
L 1103.382604 188.441113 
L 1103.75774 188.485407 
L 1104.132877 188.75835 
L 1104.508013 189.215519 
L 1105.820989 191.276502 
L 1106.196126 191.249897 
L 1106.75883 190.719731 
L 1107.321534 190.218744 
L 1107.69667 190.234992 
L 1108.446943 190.788163 
L 1108.822079 190.64822 
L 1110.135055 189.674259 
L 1111.260464 189.28374 
L 1111.6356 189.415003 
L 1112.198304 189.693571 
L 1113.886417 189.999274 
L 1114.636689 190.558612 
L 1115.386962 191.128423 
L 1115.762098 191.20474 
L 1116.137234 191.042645 
L 1118.200483 189.461924 
L 1118.575619 189.31221 
L 1119.138323 188.783483 
L 1119.888596 187.694675 
L 1120.263732 187.277568 
L 1120.4513 187.278773 
L 1120.826436 187.775454 
L 1121.951845 190.213976 
L 1122.889685 191.286178 
L 1124.202662 192.06703 
L 1124.577798 191.962893 
L 1124.952934 191.410356 
L 1125.515638 189.904628 
L 1126.078342 188.381616 
L 1126.453479 187.993942 
L 1126.828615 188.200446 
L 1127.578887 188.94316 
L 1128.704296 189.577703 
L 1129.642136 189.904418 
L 1130.017272 190.310839 
L 1130.955112 191.821537 
L 1131.330249 191.899624 
L 1131.892953 191.782836 
L 1132.268089 191.985921 
L 1133.205929 192.831888 
L 1133.956202 193.10546 
L 1134.518906 193.073534 
L 1135.269178 192.799201 
L 1135.644315 192.399238 
L 1136.207019 191.357916 
L 1136.957291 189.97574 
L 1137.332427 189.702309 
L 1138.457836 189.342858 
L 1139.02054 189.38131 
L 1139.583244 189.683056 
L 1140.521085 190.415619 
L 1140.896221 190.350147 
L 1142.021629 189.836934 
L 1142.584334 189.928347 
L 1143.334606 190.124762 
L 1143.709742 189.953388 
L 1144.272446 189.33473 
L 1144.835151 188.712172 
L 1145.210287 188.551328 
L 1145.585423 188.705434 
L 1146.148127 189.287928 
L 1146.710831 189.847312 
L 1147.085968 189.891128 
L 1147.648672 189.629573 
L 1148.586512 189.18409 
L 1149.336785 188.913412 
L 1150.274625 188.22341 
L 1151.024897 188.015444 
L 1151.400034 188.086643 
L 1152.337874 188.627385 
L 1152.900578 188.944014 
L 1153.275714 188.748654 
L 1154.401123 187.614147 
L 1154.776259 187.669246 
L 1155.151395 188.017172 
L 1156.089236 189.154631 
L 1156.464372 189.336772 
L 1157.027076 189.291349 
L 1157.58978 189.218268 
L 1158.152485 189.453562 
L 1158.715189 189.609584 
L 1159.465461 189.721234 
L 1160.028165 189.839896 
L 1160.403302 189.752799 
L 1160.966006 189.356143 
L 1161.52871 188.9196 
L 1161.903846 188.891361 
L 1163.029255 189.417848 
L 1163.591959 189.223648 
L 1164.342231 188.885988 
L 1164.717367 189.035904 
L 1165.280072 189.417369 
L 1165.655208 189.381877 
L 1166.217912 188.910346 
L 1166.593048 188.63687 
L 1166.968184 188.639852 
L 1168.093593 189.263021 
L 1168.656297 189.160007 
L 1169.031433 188.943285 
L 1170.34441 187.715541 
L 1170.719546 187.657678 
L 1171.094682 187.808159 
L 1171.657386 188.342432 
L 1174.658476 192.299935 
L 1175.033612 192.272364 
L 1175.408748 191.823482 
L 1175.971452 190.514669 
L 1176.534157 189.254153 
L 1176.909293 188.775978 
L 1177.096861 188.710576 
L 1177.471997 188.940493 
L 1178.597406 190.168943 
L 1179.347678 190.969369 
L 1179.722814 191.053246 
L 1180.473086 191.048399 
L 1181.223359 191.425644 
L 1181.973631 191.806222 
L 1182.348767 191.828764 
L 1182.723903 191.642212 
L 1183.474176 190.8977 
L 1184.787152 189.315598 
L 1184.787152 189.315598 
" clip-path="url(#pb68b595d17)" style="fill: none; stroke: #000000; stroke-width: 2; stroke-linecap: square"/>
   </g>
   <g id="patch_3">
    <path d="M 3.00024 198.907885 
L 1184.99976 198.907885 
" style="fill: none; stroke: #000000; stroke-width: 2; stroke-linejoin: miter; stroke-linecap: square"/>
   </g>
  </g>
 </g>
 <defs>
  <clipPath id="pb68b595d17">
   <rect x="3.00024" y="3.00024" width="1181.99952" height="195.907645"/>
  </clipPath>
 </defs>
</svg>
