<?xml version="1.0" encoding="utf-8" standalone="no"?>
<!DOCTYPE svg PUBLIC "-//W3C//DTD SVG 1.1//EN"
  "http://www.w3.org/Graphics/SVG/1.1/DTD/svg11.dtd">
<svg xmlns:xlink="http://www.w3.org/1999/xlink" width="1188pt" height="252pt" viewBox="0 0 1188 252" xmlns="http://www.w3.org/2000/svg" version="1.1">
 <metadata>
  <rdf:RDF xmlns:dc="http://purl.org/dc/elements/1.1/" xmlns:cc="http://creativecommons.org/ns#" xmlns:rdf="http://www.w3.org/1999/02/22-rdf-syntax-ns#">
   <cc:Work>
    <dc:type rdf:resource="http://purl.org/dc/dcmitype/StillImage"/>
    <dc:date>2024-05-13T18:26:37.339696</dc:date>
    <dc:format>image/svg+xml</dc:format>
    <dc:creator>
     <cc:Agent>
      <dc:title>Matplotlib v3.8.0, https://matplotlib.org/</dc:title>
     </cc:Agent>
    </dc:creator>
   </cc:Work>
  </rdf:RDF>
 </metadata>
 <defs>
  <style type="text/css">*{stroke-linejoin: round; stroke-linecap: butt}</style>
 </defs>
 <g id="figure_1">
  <g id="patch_1">
   <path d="M 0 252 
L 1188 252 
L 1188 0 
L 0 0 
z
" style="fill: #ffffff"/>
  </g>
  <g id="axes_1">
   <g id="patch_2">
    <path d="M 3.00024 198.907885 
L 1184.99976 198.907885 
L 1184.99976 3.00024 
L 3.00024 3.00024 
z
" style="fill: #ffffff"/>
   </g>
   <g id="matplotlib.axis_1">
    <g id="xtick_1">
     <g id="line2d_1">
      <defs>
       <path id="m3bfbe04ed8" d="M 0 0 
L 0 8 
" style="stroke: #000000; stroke-width: 2"/>
      </defs>
      <g>
       <use xlink:href="#m3bfbe04ed8" x="1135.74978" y="198.907885" style="stroke: #000000; stroke-width: 2"/>
      </g>
     </g>
     <g id="text_1">
      <!-- −1 -->
      <g transform="translate(1125.488374 224.791947) scale(0.18 -0.18)">
       <defs>
        <path id="Arial-BoldMT-2212" d="M 266 1850 
L 266 2672 
L 3469 2672 
L 3469 1850 
L 266 1850 
z
" transform="scale(0.015625)"/>
        <path id="Arial-BoldMT-31" d="M 2519 0 
L 1641 0 
L 1641 3309 
Q 1159 2859 506 2644 
L 506 3441 
Q 850 3553 1253 3867 
Q 1656 4181 1806 4600 
L 2519 4600 
L 2519 0 
z
" transform="scale(0.015625)"/>
       </defs>
       <use xlink:href="#Arial-BoldMT-2212"/>
       <use xlink:href="#Arial-BoldMT-31" x="58.398438"/>
      </g>
     </g>
    </g>
    <g id="xtick_2">
     <g id="line2d_2">
      <g>
       <use xlink:href="#m3bfbe04ed8" x="1037.24982" y="198.907885" style="stroke: #000000; stroke-width: 2"/>
      </g>
     </g>
     <g id="text_2">
      <!-- 0 -->
      <g transform="translate(1032.244976 224.791947) scale(0.18 -0.18)">
       <defs>
        <path id="Arial-BoldMT-30" d="M 1756 4600 
Q 2422 4600 2797 4125 
Q 3244 3563 3244 2259 
Q 3244 959 2794 391 
Q 2422 -78 1756 -78 
Q 1088 -78 678 436 
Q 269 950 269 2269 
Q 269 3563 719 4131 
Q 1091 4600 1756 4600 
z
M 1756 3872 
Q 1597 3872 1472 3770 
Q 1347 3669 1278 3406 
Q 1188 3066 1188 2259 
Q 1188 1453 1269 1151 
Q 1350 850 1473 750 
Q 1597 650 1756 650 
Q 1916 650 2041 751 
Q 2166 853 2234 1116 
Q 2325 1453 2325 2259 
Q 2325 3066 2244 3367 
Q 2163 3669 2039 3770 
Q 1916 3872 1756 3872 
z
" transform="scale(0.015625)"/>
       </defs>
       <use xlink:href="#Arial-BoldMT-30"/>
      </g>
     </g>
    </g>
    <g id="xtick_3">
     <g id="line2d_3">
      <g>
       <use xlink:href="#m3bfbe04ed8" x="938.74986" y="198.907885" style="stroke: #000000; stroke-width: 2"/>
      </g>
     </g>
     <g id="text_3">
      <!-- 1 -->
      <g transform="translate(933.745016 224.791947) scale(0.18 -0.18)">
       <use xlink:href="#Arial-BoldMT-31"/>
      </g>
     </g>
    </g>
    <g id="xtick_4">
     <g id="line2d_4">
      <g>
       <use xlink:href="#m3bfbe04ed8" x="840.2499" y="198.907885" style="stroke: #000000; stroke-width: 2"/>
      </g>
     </g>
     <g id="text_4">
      <!-- 2 -->
      <g transform="translate(835.245056 224.791947) scale(0.18 -0.18)">
       <defs>
        <path id="Arial-BoldMT-32" d="M 3238 816 
L 3238 0 
L 159 0 
Q 209 463 459 877 
Q 709 1291 1447 1975 
Q 2041 2528 2175 2725 
Q 2356 2997 2356 3263 
Q 2356 3556 2198 3714 
Q 2041 3872 1763 3872 
Q 1488 3872 1325 3706 
Q 1163 3541 1138 3156 
L 263 3244 
Q 341 3969 753 4284 
Q 1166 4600 1784 4600 
Q 2463 4600 2850 4234 
Q 3238 3869 3238 3325 
Q 3238 3016 3127 2736 
Q 3016 2456 2775 2150 
Q 2616 1947 2200 1565 
Q 1784 1184 1673 1059 
Q 1563 934 1494 816 
L 3238 816 
z
" transform="scale(0.015625)"/>
       </defs>
       <use xlink:href="#Arial-BoldMT-32"/>
      </g>
     </g>
    </g>
    <g id="xtick_5">
     <g id="line2d_5">
      <g>
       <use xlink:href="#m3bfbe04ed8" x="741.74994" y="198.907885" style="stroke: #000000; stroke-width: 2"/>
      </g>
     </g>
     <g id="text_5">
      <!-- 3 -->
      <g transform="translate(736.745096 224.791947) scale(0.18 -0.18)">
       <defs>
        <path id="Arial-BoldMT-33" d="M 241 1216 
L 1091 1319 
Q 1131 994 1309 822 
Q 1488 650 1741 650 
Q 2013 650 2198 856 
Q 2384 1063 2384 1413 
Q 2384 1744 2206 1937 
Q 2028 2131 1772 2131 
Q 1603 2131 1369 2066 
L 1466 2781 
Q 1822 2772 2009 2936 
Q 2197 3100 2197 3372 
Q 2197 3603 2059 3740 
Q 1922 3878 1694 3878 
Q 1469 3878 1309 3722 
Q 1150 3566 1116 3266 
L 306 3403 
Q 391 3819 561 4067 
Q 731 4316 1036 4458 
Q 1341 4600 1719 4600 
Q 2366 4600 2756 4188 
Q 3078 3850 3078 3425 
Q 3078 2822 2419 2463 
Q 2813 2378 3048 2084 
Q 3284 1791 3284 1375 
Q 3284 772 2843 347 
Q 2403 -78 1747 -78 
Q 1125 -78 715 280 
Q 306 638 241 1216 
z
" transform="scale(0.015625)"/>
       </defs>
       <use xlink:href="#Arial-BoldMT-33"/>
      </g>
     </g>
    </g>
    <g id="xtick_6">
     <g id="line2d_6">
      <g>
       <use xlink:href="#m3bfbe04ed8" x="643.24998" y="198.907885" style="stroke: #000000; stroke-width: 2"/>
      </g>
     </g>
     <g id="text_6">
      <!-- 4 -->
      <g transform="translate(638.245136 224.791947) scale(0.18 -0.18)">
       <defs>
        <path id="Arial-BoldMT-34" d="M 1994 0 
L 1994 922 
L 119 922 
L 119 1691 
L 2106 4600 
L 2844 4600 
L 2844 1694 
L 3413 1694 
L 3413 922 
L 2844 922 
L 2844 0 
L 1994 0 
z
M 1994 1694 
L 1994 3259 
L 941 1694 
L 1994 1694 
z
" transform="scale(0.015625)"/>
       </defs>
       <use xlink:href="#Arial-BoldMT-34"/>
      </g>
     </g>
    </g>
    <g id="xtick_7">
     <g id="line2d_7">
      <g>
       <use xlink:href="#m3bfbe04ed8" x="544.75002" y="198.907885" style="stroke: #000000; stroke-width: 2"/>
      </g>
     </g>
     <g id="text_7">
      <!-- 5 -->
      <g transform="translate(539.745176 224.791947) scale(0.18 -0.18)">
       <defs>
        <path id="Arial-BoldMT-35" d="M 284 1178 
L 1159 1269 
Q 1197 972 1381 798 
Q 1566 625 1806 625 
Q 2081 625 2272 848 
Q 2463 1072 2463 1522 
Q 2463 1944 2273 2155 
Q 2084 2366 1781 2366 
Q 1403 2366 1103 2031 
L 391 2134 
L 841 4519 
L 3163 4519 
L 3163 3697 
L 1506 3697 
L 1369 2919 
Q 1663 3066 1969 3066 
Q 2553 3066 2959 2641 
Q 3366 2216 3366 1538 
Q 3366 972 3038 528 
Q 2591 -78 1797 -78 
Q 1163 -78 763 262 
Q 363 603 284 1178 
z
" transform="scale(0.015625)"/>
       </defs>
       <use xlink:href="#Arial-BoldMT-35"/>
      </g>
     </g>
    </g>
    <g id="xtick_8">
     <g id="line2d_8">
      <g>
       <use xlink:href="#m3bfbe04ed8" x="446.25006" y="198.907885" style="stroke: #000000; stroke-width: 2"/>
      </g>
     </g>
     <g id="text_8">
      <!-- 6 -->
      <g transform="translate(441.245216 224.791947) scale(0.18 -0.18)">
       <defs>
        <path id="Arial-BoldMT-36" d="M 3247 3459 
L 2397 3366 
Q 2366 3628 2234 3753 
Q 2103 3878 1894 3878 
Q 1616 3878 1423 3628 
Q 1231 3378 1181 2588 
Q 1509 2975 1997 2975 
Q 2547 2975 2939 2556 
Q 3331 2138 3331 1475 
Q 3331 772 2918 347 
Q 2506 -78 1859 -78 
Q 1166 -78 719 461 
Q 272 1000 272 2228 
Q 272 3488 737 4044 
Q 1203 4600 1947 4600 
Q 2469 4600 2811 4308 
Q 3153 4016 3247 3459 
z
M 1256 1544 
Q 1256 1116 1453 883 
Q 1650 650 1903 650 
Q 2147 650 2309 840 
Q 2472 1031 2472 1466 
Q 2472 1913 2297 2120 
Q 2122 2328 1859 2328 
Q 1606 2328 1431 2129 
Q 1256 1931 1256 1544 
z
" transform="scale(0.015625)"/>
       </defs>
       <use xlink:href="#Arial-BoldMT-36"/>
      </g>
     </g>
    </g>
    <g id="xtick_9">
     <g id="line2d_9">
      <g>
       <use xlink:href="#m3bfbe04ed8" x="347.7501" y="198.907885" style="stroke: #000000; stroke-width: 2"/>
      </g>
     </g>
     <g id="text_9">
      <!-- 7 -->
      <g transform="translate(342.745256 224.791947) scale(0.18 -0.18)">
       <defs>
        <path id="Arial-BoldMT-37" d="M 272 3703 
L 272 4519 
L 3275 4519 
L 3275 3881 
Q 2903 3516 2518 2831 
Q 2134 2147 1932 1376 
Q 1731 606 1734 0 
L 888 0 
Q 909 950 1279 1937 
Q 1650 2925 2269 3703 
L 272 3703 
z
" transform="scale(0.015625)"/>
       </defs>
       <use xlink:href="#Arial-BoldMT-37"/>
      </g>
     </g>
    </g>
    <g id="xtick_10">
     <g id="line2d_10">
      <g>
       <use xlink:href="#m3bfbe04ed8" x="249.25014" y="198.907885" style="stroke: #000000; stroke-width: 2"/>
      </g>
     </g>
     <g id="text_10">
      <!-- 8 -->
      <g transform="translate(244.245296 224.791947) scale(0.18 -0.18)">
       <defs>
        <path id="Arial-BoldMT-38" d="M 1025 2472 
Q 684 2616 529 2867 
Q 375 3119 375 3419 
Q 375 3931 733 4265 
Q 1091 4600 1750 4600 
Q 2403 4600 2764 4265 
Q 3125 3931 3125 3419 
Q 3125 3100 2959 2851 
Q 2794 2603 2494 2472 
Q 2875 2319 3073 2025 
Q 3272 1731 3272 1347 
Q 3272 713 2867 316 
Q 2463 -81 1791 -81 
Q 1166 -81 750 247 
Q 259 634 259 1309 
Q 259 1681 443 1992 
Q 628 2303 1025 2472 
z
M 1206 3356 
Q 1206 3094 1354 2947 
Q 1503 2800 1750 2800 
Q 2000 2800 2150 2948 
Q 2300 3097 2300 3359 
Q 2300 3606 2151 3754 
Q 2003 3903 1759 3903 
Q 1506 3903 1356 3753 
Q 1206 3603 1206 3356 
z
M 1125 1394 
Q 1125 1031 1311 828 
Q 1497 625 1775 625 
Q 2047 625 2225 820 
Q 2403 1016 2403 1384 
Q 2403 1706 2222 1901 
Q 2041 2097 1763 2097 
Q 1441 2097 1283 1875 
Q 1125 1653 1125 1394 
z
" transform="scale(0.015625)"/>
       </defs>
       <use xlink:href="#Arial-BoldMT-38"/>
      </g>
     </g>
    </g>
    <g id="xtick_11">
     <g id="line2d_11">
      <g>
       <use xlink:href="#m3bfbe04ed8" x="150.75018" y="198.907885" style="stroke: #000000; stroke-width: 2"/>
      </g>
     </g>
     <g id="text_11">
      <!-- 9 -->
      <g transform="translate(145.745336 224.791947) scale(0.18 -0.18)">
       <defs>
        <path id="Arial-BoldMT-39" d="M 291 1059 
L 1141 1153 
Q 1172 894 1303 769 
Q 1434 644 1650 644 
Q 1922 644 2112 894 
Q 2303 1144 2356 1931 
Q 2025 1547 1528 1547 
Q 988 1547 595 1964 
Q 203 2381 203 3050 
Q 203 3747 617 4173 
Q 1031 4600 1672 4600 
Q 2369 4600 2816 4061 
Q 3263 3522 3263 2288 
Q 3263 1031 2797 475 
Q 2331 -81 1584 -81 
Q 1047 -81 715 205 
Q 384 491 291 1059 
z
M 2278 2978 
Q 2278 3403 2083 3637 
Q 1888 3872 1631 3872 
Q 1388 3872 1227 3680 
Q 1066 3488 1066 3050 
Q 1066 2606 1241 2398 
Q 1416 2191 1678 2191 
Q 1931 2191 2104 2391 
Q 2278 2591 2278 2978 
z
" transform="scale(0.015625)"/>
       </defs>
       <use xlink:href="#Arial-BoldMT-39"/>
      </g>
     </g>
    </g>
    <g id="xtick_12">
     <g id="line2d_12">
      <g>
       <use xlink:href="#m3bfbe04ed8" x="52.25022" y="198.907885" style="stroke: #000000; stroke-width: 2"/>
      </g>
     </g>
     <g id="text_12">
      <!-- 10 -->
      <g transform="translate(42.240533 224.791947) scale(0.18 -0.18)">
       <use xlink:href="#Arial-BoldMT-31"/>
       <use xlink:href="#Arial-BoldMT-30" x="55.615234"/>
      </g>
     </g>
    </g>
    <g id="text_13">
     <!-- Chemical Shift / ppm -->
     <g transform="translate(504.992813 245.447573) scale(0.18 -0.18)">
      <defs>
       <path id="Arial-BoldMT-43" d="M 3397 1684 
L 4294 1400 
Q 4088 650 3608 286 
Q 3128 -78 2391 -78 
Q 1478 -78 890 545 
Q 303 1169 303 2250 
Q 303 3394 893 4026 
Q 1484 4659 2447 4659 
Q 3288 4659 3813 4163 
Q 4125 3869 4281 3319 
L 3366 3100 
Q 3284 3456 3026 3662 
Q 2769 3869 2400 3869 
Q 1891 3869 1573 3503 
Q 1256 3138 1256 2319 
Q 1256 1450 1568 1081 
Q 1881 713 2381 713 
Q 2750 713 3015 947 
Q 3281 1181 3397 1684 
z
" transform="scale(0.015625)"/>
       <path id="Arial-BoldMT-68" d="M 1334 4581 
L 1334 2897 
Q 1759 3394 2350 3394 
Q 2653 3394 2897 3281 
Q 3141 3169 3264 2994 
Q 3388 2819 3433 2606 
Q 3478 2394 3478 1947 
L 3478 0 
L 2600 0 
L 2600 1753 
Q 2600 2275 2550 2415 
Q 2500 2556 2373 2639 
Q 2247 2722 2056 2722 
Q 1838 2722 1666 2615 
Q 1494 2509 1414 2295 
Q 1334 2081 1334 1663 
L 1334 0 
L 456 0 
L 456 4581 
L 1334 4581 
z
" transform="scale(0.015625)"/>
       <path id="Arial-BoldMT-65" d="M 2381 1056 
L 3256 909 
Q 3088 428 2723 176 
Q 2359 -75 1813 -75 
Q 947 -75 531 491 
Q 203 944 203 1634 
Q 203 2459 634 2926 
Q 1066 3394 1725 3394 
Q 2466 3394 2894 2905 
Q 3322 2416 3303 1406 
L 1103 1406 
Q 1113 1016 1316 798 
Q 1519 581 1822 581 
Q 2028 581 2168 693 
Q 2309 806 2381 1056 
z
M 2431 1944 
Q 2422 2325 2234 2523 
Q 2047 2722 1778 2722 
Q 1491 2722 1303 2513 
Q 1116 2303 1119 1944 
L 2431 1944 
z
" transform="scale(0.015625)"/>
       <path id="Arial-BoldMT-6d" d="M 394 3319 
L 1203 3319 
L 1203 2866 
Q 1638 3394 2238 3394 
Q 2556 3394 2790 3262 
Q 3025 3131 3175 2866 
Q 3394 3131 3647 3262 
Q 3900 3394 4188 3394 
Q 4553 3394 4806 3245 
Q 5059 3097 5184 2809 
Q 5275 2597 5275 2122 
L 5275 0 
L 4397 0 
L 4397 1897 
Q 4397 2391 4306 2534 
Q 4184 2722 3931 2722 
Q 3747 2722 3584 2609 
Q 3422 2497 3350 2280 
Q 3278 2063 3278 1594 
L 3278 0 
L 2400 0 
L 2400 1819 
Q 2400 2303 2353 2443 
Q 2306 2584 2207 2653 
Q 2109 2722 1941 2722 
Q 1738 2722 1575 2612 
Q 1413 2503 1342 2297 
Q 1272 2091 1272 1613 
L 1272 0 
L 394 0 
L 394 3319 
z
" transform="scale(0.015625)"/>
       <path id="Arial-BoldMT-69" d="M 459 3769 
L 459 4581 
L 1338 4581 
L 1338 3769 
L 459 3769 
z
M 459 0 
L 459 3319 
L 1338 3319 
L 1338 0 
L 459 0 
z
" transform="scale(0.015625)"/>
       <path id="Arial-BoldMT-63" d="M 3353 2338 
L 2488 2181 
Q 2444 2441 2289 2572 
Q 2134 2703 1888 2703 
Q 1559 2703 1364 2476 
Q 1169 2250 1169 1719 
Q 1169 1128 1367 884 
Q 1566 641 1900 641 
Q 2150 641 2309 783 
Q 2469 925 2534 1272 
L 3397 1125 
Q 3263 531 2881 228 
Q 2500 -75 1859 -75 
Q 1131 -75 698 384 
Q 266 844 266 1656 
Q 266 2478 700 2936 
Q 1134 3394 1875 3394 
Q 2481 3394 2839 3133 
Q 3197 2872 3353 2338 
z
" transform="scale(0.015625)"/>
       <path id="Arial-BoldMT-61" d="M 1116 2306 
L 319 2450 
Q 453 2931 781 3162 
Q 1109 3394 1756 3394 
Q 2344 3394 2631 3255 
Q 2919 3116 3036 2902 
Q 3153 2688 3153 2116 
L 3144 1091 
Q 3144 653 3186 445 
Q 3228 238 3344 0 
L 2475 0 
Q 2441 88 2391 259 
Q 2369 338 2359 363 
Q 2134 144 1878 34 
Q 1622 -75 1331 -75 
Q 819 -75 523 203 
Q 228 481 228 906 
Q 228 1188 362 1408 
Q 497 1628 739 1745 
Q 981 1863 1438 1950 
Q 2053 2066 2291 2166 
L 2291 2253 
Q 2291 2506 2166 2614 
Q 2041 2722 1694 2722 
Q 1459 2722 1328 2630 
Q 1197 2538 1116 2306 
z
M 2291 1594 
Q 2122 1538 1756 1459 
Q 1391 1381 1278 1306 
Q 1106 1184 1106 997 
Q 1106 813 1243 678 
Q 1381 544 1594 544 
Q 1831 544 2047 700 
Q 2206 819 2256 991 
Q 2291 1103 2291 1419 
L 2291 1594 
z
" transform="scale(0.015625)"/>
       <path id="Arial-BoldMT-6c" d="M 459 0 
L 459 4581 
L 1338 4581 
L 1338 0 
L 459 0 
z
" transform="scale(0.015625)"/>
       <path id="Arial-BoldMT-20" transform="scale(0.015625)"/>
       <path id="Arial-BoldMT-53" d="M 231 1491 
L 1131 1578 
Q 1213 1125 1461 912 
Q 1709 700 2131 700 
Q 2578 700 2804 889 
Q 3031 1078 3031 1331 
Q 3031 1494 2936 1608 
Q 2841 1722 2603 1806 
Q 2441 1863 1863 2006 
Q 1119 2191 819 2459 
Q 397 2838 397 3381 
Q 397 3731 595 4036 
Q 794 4341 1167 4500 
Q 1541 4659 2069 4659 
Q 2931 4659 3367 4281 
Q 3803 3903 3825 3272 
L 2900 3231 
Q 2841 3584 2645 3739 
Q 2450 3894 2059 3894 
Q 1656 3894 1428 3728 
Q 1281 3622 1281 3444 
Q 1281 3281 1419 3166 
Q 1594 3019 2269 2859 
Q 2944 2700 3267 2529 
Q 3591 2359 3773 2064 
Q 3956 1769 3956 1334 
Q 3956 941 3737 597 
Q 3519 253 3119 86 
Q 2719 -81 2122 -81 
Q 1253 -81 787 320 
Q 322 722 231 1491 
z
" transform="scale(0.015625)"/>
       <path id="Arial-BoldMT-66" d="M 75 3319 
L 563 3319 
L 563 3569 
Q 563 3988 652 4194 
Q 741 4400 980 4529 
Q 1219 4659 1584 4659 
Q 1959 4659 2319 4547 
L 2200 3934 
Q 1991 3984 1797 3984 
Q 1606 3984 1523 3895 
Q 1441 3806 1441 3553 
L 1441 3319 
L 2097 3319 
L 2097 2628 
L 1441 2628 
L 1441 0 
L 563 0 
L 563 2628 
L 75 2628 
L 75 3319 
z
" transform="scale(0.015625)"/>
       <path id="Arial-BoldMT-74" d="M 1981 3319 
L 1981 2619 
L 1381 2619 
L 1381 1281 
Q 1381 875 1398 808 
Q 1416 741 1477 697 
Q 1538 653 1625 653 
Q 1747 653 1978 738 
L 2053 56 
Q 1747 -75 1359 -75 
Q 1122 -75 931 4 
Q 741 84 652 211 
Q 563 338 528 553 
Q 500 706 500 1172 
L 500 2619 
L 97 2619 
L 97 3319 
L 500 3319 
L 500 3978 
L 1381 4491 
L 1381 3319 
L 1981 3319 
z
" transform="scale(0.015625)"/>
       <path id="Arial-BoldMT-2f" d="M -9 -78 
L 1125 4659 
L 1784 4659 
L 638 -78 
L -9 -78 
z
" transform="scale(0.015625)"/>
       <path id="Arial-BoldMT-70" d="M 434 3319 
L 1253 3319 
L 1253 2831 
Q 1413 3081 1684 3237 
Q 1956 3394 2288 3394 
Q 2866 3394 3269 2941 
Q 3672 2488 3672 1678 
Q 3672 847 3265 386 
Q 2859 -75 2281 -75 
Q 2006 -75 1782 34 
Q 1559 144 1313 409 
L 1313 -1263 
L 434 -1263 
L 434 3319 
z
M 1303 1716 
Q 1303 1156 1525 889 
Q 1747 622 2066 622 
Q 2372 622 2575 867 
Q 2778 1113 2778 1672 
Q 2778 2194 2568 2447 
Q 2359 2700 2050 2700 
Q 1728 2700 1515 2451 
Q 1303 2203 1303 1716 
z
" transform="scale(0.015625)"/>
      </defs>
      <use xlink:href="#Arial-BoldMT-43"/>
      <use xlink:href="#Arial-BoldMT-68" x="72.216797"/>
      <use xlink:href="#Arial-BoldMT-65" x="133.300781"/>
      <use xlink:href="#Arial-BoldMT-6d" x="188.916016"/>
      <use xlink:href="#Arial-BoldMT-69" x="277.832031"/>
      <use xlink:href="#Arial-BoldMT-63" x="305.615234"/>
      <use xlink:href="#Arial-BoldMT-61" x="361.230469"/>
      <use xlink:href="#Arial-BoldMT-6c" x="416.845703"/>
      <use xlink:href="#Arial-BoldMT-20" x="444.628906"/>
      <use xlink:href="#Arial-BoldMT-53" x="472.412109"/>
      <use xlink:href="#Arial-BoldMT-68" x="539.111328"/>
      <use xlink:href="#Arial-BoldMT-69" x="600.195312"/>
      <use xlink:href="#Arial-BoldMT-66" x="627.978516"/>
      <use xlink:href="#Arial-BoldMT-74" x="661.279297"/>
      <use xlink:href="#Arial-BoldMT-20" x="694.580078"/>
      <use xlink:href="#Arial-BoldMT-2f" x="722.363281"/>
      <use xlink:href="#Arial-BoldMT-20" x="750.146484"/>
      <use xlink:href="#Arial-BoldMT-70" x="777.929688"/>
      <use xlink:href="#Arial-BoldMT-70" x="839.013672"/>
      <use xlink:href="#Arial-BoldMT-6d" x="900.097656"/>
     </g>
    </g>
   </g>
   <g id="matplotlib.axis_2"/>
   <g id="line2d_13">
    <path d="M 3.041021 189.883179 
L 3.791293 190.697368 
L 4.353998 191.0052 
L 5.10427 191.081071 
L 5.666974 191.001923 
L 6.417247 190.780459 
L 8.105359 190.821184 
L 8.855632 191.274949 
L 9.230768 191.099099 
L 10.731312 189.716071 
L 11.294017 189.818631 
L 12.606993 190.202088 
L 12.982129 189.909858 
L 13.91997 188.885774 
L 15.232946 188.138479 
L 15.795651 187.885617 
L 16.170787 188.034732 
L 16.545923 188.533349 
L 17.483763 190.055265 
L 17.8589 190.302933 
L 18.234036 190.321817 
L 18.984308 190.041735 
L 19.73458 189.42335 
L 20.484853 188.963021 
L 21.797829 188.428117 
L 22.360534 188.09307 
L 22.73567 188.227634 
L 23.298374 188.865344 
L 24.048646 189.69511 
L 24.423783 189.817765 
L 24.986487 189.672538 
L 25.549191 189.235061 
L 26.299463 188.594955 
L 26.6746 188.503708 
L 27.237304 188.492129 
L 27.61244 188.290571 
L 28.175144 187.959607 
L 28.55028 188.091354 
L 28.925416 188.501816 
L 30.613529 191.03221 
L 30.988665 190.951235 
L 32.114074 190.170285 
L 32.676778 190.181794 
L 33.42705 190.393379 
L 33.802187 190.117376 
L 34.552459 189.337637 
L 34.927595 189.292418 
L 35.490299 189.323952 
L 35.865436 189.150384 
L 36.615708 188.349604 
L 37.178412 187.881274 
L 37.553548 187.825438 
L 38.116253 188.081997 
L 38.678957 188.587749 
L 39.616797 189.66091 
L 39.991933 189.771977 
L 41.680046 189.848658 
L 42.24275 190.326615 
L 43.180591 191.05216 
L 43.555727 191.10736 
L 43.930863 190.750863 
L 44.493567 189.566766 
L 45.24384 187.946082 
L 45.806544 187.275858 
L 46.369248 186.938415 
L 46.744384 186.987321 
L 47.119521 187.312695 
L 48.244929 188.603141 
L 49.370338 189.452291 
L 50.308178 190.624845 
L 50.683314 190.74016 
L 51.05845 190.565056 
L 51.621155 189.818686 
L 51.996291 189.366448 
L 52.371427 189.249817 
L 53.496835 189.427658 
L 54.05954 189.135088 
L 54.809812 188.692171 
L 55.184948 188.770239 
L 56.497925 189.495098 
L 56.873061 189.296627 
L 57.435765 188.574615 
L 58.561174 186.943138 
L 58.93631 186.700224 
L 60.061718 186.241276 
L 61.562263 185.515236 
L 62.124967 185.590712 
L 62.87524 185.977352 
L 63.437944 186.597524 
L 64.000648 187.307246 
L 64.75092 187.990084 
L 65.688761 189.155498 
L 66.251465 189.366253 
L 66.814169 189.249142 
L 67.564442 188.906649 
L 67.939578 189.12489 
L 68.314714 189.737736 
L 69.064986 191.096317 
L 69.440122 191.275809 
L 70.190395 191.189696 
L 70.565531 191.047921 
L 70.940667 190.702742 
L 72.253644 189.037466 
L 72.62878 189.018927 
L 73.379052 189.484755 
L 74.504461 190.224885 
L 74.879597 190.268412 
L 75.254733 190.077131 
L 76.005005 189.249637 
L 76.942846 188.057334 
L 77.317982 187.857311 
L 78.068254 187.818328 
L 79.006095 187.74731 
L 79.381231 187.970295 
L 80.881775 189.265544 
L 81.632048 189.683677 
L 82.194752 189.74961 
L 82.757456 189.500702 
L 83.320161 188.912504 
L 84.070433 187.973592 
L 84.445569 187.747701 
L 85.008273 187.735527 
L 86.32125 188.036298 
L 87.25909 188.38459 
L 87.634226 188.326417 
L 88.572067 187.989454 
L 89.322339 187.908919 
L 90.072612 187.607608 
L 91.010452 187.64442 
L 91.385588 187.886188 
L 91.948292 188.337555 
L 92.323429 188.376164 
L 94.011541 187.919212 
L 95.13695 188.133095 
L 97.012631 188.77128 
L 98.513175 190.02724 
L 98.888311 189.896674 
L 99.826152 188.997867 
L 100.763992 188.173895 
L 101.326696 187.940773 
L 101.701833 188.011405 
L 102.264537 188.27559 
L 102.639673 188.16068 
L 103.577513 187.507274 
L 103.95265 187.709663 
L 104.515354 188.259923 
L 104.702922 188.304151 
L 105.078058 188.073646 
L 105.640762 187.582604 
L 106.015899 187.543781 
L 106.578603 187.867349 
L 108.079147 188.938503 
L 108.641852 189.056255 
L 109.204556 188.932648 
L 109.76726 188.507956 
L 110.517533 187.833514 
L 110.892669 187.786729 
L 113.143486 188.304216 
L 114.081326 188.243801 
L 114.831598 188.340512 
L 115.206735 188.175776 
L 115.957007 187.686065 
L 116.332143 187.727161 
L 116.707279 187.972381 
L 117.082415 188.395568 
L 117.64512 189.458836 
L 118.207824 190.496 
L 118.58296 190.701341 
L 118.958096 190.596344 
L 119.520801 190.150836 
L 120.083505 189.285618 
L 121.021345 187.706736 
L 121.396481 187.478242 
L 121.771618 187.671475 
L 123.272162 189.135258 
L 123.647298 189.26671 
L 124.210003 189.177324 
L 124.772707 188.761567 
L 125.335411 188.301784 
L 125.710547 188.233073 
L 126.46082 188.271512 
L 127.023524 187.979201 
L 127.773796 187.623294 
L 128.3365 187.472703 
L 128.711637 187.565477 
L 129.649477 188.203962 
L 130.399749 188.559624 
L 131.150022 188.490898 
L 132.087862 188.536552 
L 133.963543 188.849452 
L 134.338679 188.761923 
L 135.088951 188.416138 
L 136.026792 188.370024 
L 137.339768 187.630655 
L 137.714905 187.426769 
L 138.652745 186.565785 
L 139.027881 186.734529 
L 139.403017 187.279676 
L 140.340858 188.831219 
L 141.278698 189.753158 
L 141.841402 190.040469 
L 143.341947 190.283493 
L 143.717083 189.958894 
L 144.279787 188.812345 
L 144.654924 188.100345 
L 145.03006 187.767931 
L 145.9679 187.411778 
L 146.530604 187.038053 
L 146.905741 187.034751 
L 148.031149 187.530956 
L 148.781421 187.598005 
L 149.531694 187.739079 
L 150.281966 187.494489 
L 151.407375 187.065148 
L 152.720351 186.187161 
L 153.283055 186.282126 
L 153.84576 186.328731 
L 154.596032 186.316371 
L 155.346304 186.55247 
L 156.096577 187.128955 
L 156.846849 187.667216 
L 157.409553 187.783017 
L 158.910098 187.78695 
L 160.410643 188.390839 
L 161.348483 189.1314 
L 161.911187 189.237728 
L 163.224164 189.330331 
L 163.5993 188.994024 
L 164.724709 187.762947 
L 165.287413 187.33206 
L 165.850117 186.543118 
L 166.787957 185.129637 
L 167.163094 184.871838 
L 167.725798 184.85471 
L 168.47607 184.999932 
L 169.038774 185.355684 
L 169.789047 185.830574 
L 170.164183 185.722469 
L 171.289591 184.848185 
L 172.415 184.641208 
L 172.977704 184.2918 
L 173.915545 183.588762 
L 174.478249 183.403206 
L 175.040953 183.501673 
L 175.791225 183.694715 
L 176.35393 183.798257 
L 177.104202 184.045624 
L 177.479338 183.834538 
L 180.667996 180.568758 
L 181.043132 180.48253 
L 181.605836 180.730542 
L 182.356108 181.465183 
L 182.918813 181.865563 
L 183.481517 181.957546 
L 183.856653 181.872799 
L 184.231789 181.460645 
L 184.794493 180.208858 
L 186.10747 176.944589 
L 186.857742 175.607584 
L 187.420447 173.980325 
L 188.170719 170.891735 
L 188.733423 167.749041 
L 189.296127 163.595306 
L 190.0464 155.979467 
L 190.609104 148.386079 
L 191.171808 138.089975 
L 191.734512 124.015083 
L 192.297217 105.418166 
L 192.859921 80.542304 
L 194.360466 4.669464 
L 194.548034 3.00024 
L 194.735602 5.023615 
L 195.110738 19.350918 
L 196.798851 113.874675 
L 197.361555 129.151982 
L 197.924259 137.948316 
L 198.299395 141.179781 
L 199.049668 144.962532 
L 200.175076 150.198559 
L 200.550212 150.818706 
L 200.73778 150.833417 
L 200.925349 150.676336 
L 201.300485 149.946373 
L 201.675621 148.750778 
L 202.238325 146.011985 
L 202.801029 143.262305 
L 203.176166 142.606552 
L 203.363734 142.696298 
L 203.73887 143.417704 
L 204.489142 145.725379 
L 205.239414 148.081505 
L 205.614551 148.703673 
L 205.802119 148.792313 
L 205.989687 148.706315 
L 206.364823 147.99999 
L 206.739959 146.626358 
L 207.865368 141.046373 
L 208.052936 140.821162 
L 208.240504 140.89371 
L 208.61564 141.603603 
L 209.178344 143.28288 
L 209.741048 145.982133 
L 211.429161 156.20756 
L 211.616729 156.45883 
L 211.804297 156.401358 
L 211.991865 156.015088 
L 212.367002 154.227026 
L 212.742138 151.138021 
L 214.055114 137.208806 
L 214.242682 136.617136 
L 214.43025 136.713061 
L 214.617819 137.431055 
L 214.992955 140.161686 
L 216.118363 149.674483 
L 217.056204 155.232111 
L 217.618908 157.513116 
L 217.994044 158.149555 
L 218.181612 158.112548 
L 218.36918 157.820853 
L 218.744316 156.47929 
L 219.119453 154.111886 
L 219.494589 150.52523 
L 220.057293 142.198246 
L 220.807565 125.840483 
L 221.932974 101.611067 
L 222.495678 93.687356 
L 222.683246 92.501297 
L 222.870814 92.291603 
L 223.058382 93.066518 
L 223.433518 97.052354 
L 223.996223 106.725689 
L 224.746495 124.24085 
L 225.684335 146.124238 
L 226.24704 154.975868 
L 226.809744 160.677682 
L 227.372448 163.907671 
L 227.747584 164.951555 
L 228.122721 165.308578 
L 228.310289 165.249595 
L 228.497857 165.023103 
L 228.872993 164.026009 
L 229.248129 162.245867 
L 229.810833 158.249604 
L 230.748674 151.179992 
L 231.498946 147.429274 
L 231.874082 146.312106 
L 232.06165 146.22194 
L 232.249218 146.539644 
L 232.624355 148.35307 
L 233.187059 153.042834 
L 234.312467 165.031549 
L 235.06274 172.446576 
L 235.625444 176.399067 
L 236.188148 179.065336 
L 236.750852 180.634877 
L 237.501125 182.178444 
L 237.876261 182.595791 
L 239.189237 183.029165 
L 239.751942 183.034254 
L 240.502214 182.835087 
L 240.87735 182.947105 
L 241.627622 183.31354 
L 243.503303 183.717432 
L 244.441144 184.239832 
L 245.003848 184.211931 
L 245.75412 183.924555 
L 246.129256 183.629332 
L 246.691961 182.815703 
L 247.817369 181.142326 
L 248.192505 180.755951 
L 248.567642 180.644299 
L 249.505482 180.778157 
L 249.880618 180.518436 
L 250.255754 179.93293 
L 251.006027 178.061066 
L 251.943867 175.266503 
L 252.506571 173.04366 
L 253.444412 168.050548 
L 254.382252 162.002543 
L 255.320093 154.22499 
L 255.882797 147.582732 
L 256.445501 138.194532 
L 257.008205 124.908166 
L 257.57091 106.251615 
L 258.50875 64.989053 
L 259.259022 34.53181 
L 259.634158 25.329026 
L 260.009295 20.788952 
L 260.196863 20.248204 
L 260.384431 20.923782 
L 260.571999 22.887773 
L 260.947135 30.741918 
L 261.697407 56.557378 
L 262.260112 73.597739 
L 262.635248 80.330007 
L 263.010384 83.09615 
L 263.197952 83.149034 
L 263.38552 82.468723 
L 263.760656 79.563383 
L 264.698497 70.976203 
L 265.073633 69.610762 
L 265.261201 69.878064 
L 265.448769 70.96639 
L 265.823905 75.862882 
L 266.386609 88.442838 
L 268.637426 142.565997 
L 269.387699 155.60387 
L 269.950403 161.806003 
L 270.513107 165.778009 
L 271.075812 168.135205 
L 271.638516 169.414352 
L 272.20122 170.661131 
L 272.951492 173.413213 
L 273.514197 175.097668 
L 274.076901 176.063855 
L 275.202309 177.812318 
L 275.765014 179.3701 
L 277.453126 185.118829 
L 277.828262 185.347713 
L 278.390967 185.077104 
L 278.953671 184.886989 
L 279.516375 184.914044 
L 280.266648 185.220049 
L 280.641784 185.335059 
L 281.579624 185.327088 
L 281.95476 185.837999 
L 282.517465 186.831291 
L 282.892601 186.994196 
L 283.455305 186.694735 
L 284.018009 186.445116 
L 284.393145 186.425702 
L 284.95585 186.64075 
L 286.456394 187.429586 
L 287.394235 187.589794 
L 287.956939 188.058715 
L 288.519643 188.471364 
L 288.894779 188.374047 
L 289.269916 187.913948 
L 289.83262 187.099138 
L 290.207756 186.84354 
L 290.77046 186.586851 
L 291.145596 186.119536 
L 292.083437 184.598526 
L 292.458573 184.353891 
L 293.77155 183.858981 
L 294.521822 183.17761 
L 294.70939 183.148188 
L 295.084526 183.428304 
L 296.209935 184.886919 
L 296.585071 184.960653 
L 296.960207 184.866038 
L 297.898047 184.243455 
L 299.023456 183.587241 
L 299.961296 183.441994 
L 300.899137 183.475674 
L 302.774818 184.056927 
L 303.149954 184.489411 
L 303.712658 185.251772 
L 304.087794 185.337941 
L 304.46293 184.944746 
L 305.963475 182.480671 
L 308.214292 180.790657 
L 308.776996 180.572306 
L 309.152132 180.65221 
L 310.277541 181.470807 
L 310.840245 181.305195 
L 311.778085 180.915178 
L 312.153222 180.993221 
L 312.903494 181.224161 
L 313.27863 181.032695 
L 313.653766 180.564365 
L 314.216471 179.317531 
L 314.966743 177.474079 
L 315.529447 176.815974 
L 315.904583 176.384406 
L 316.279719 175.603976 
L 317.405128 172.679587 
L 317.967832 172.04536 
L 318.342968 171.527814 
L 318.905673 169.96756 
L 320.781353 163.665408 
L 321.344058 160.208151 
L 324.532715 135.475109 
L 325.282987 124.740788 
L 326.595964 103.039029 
L 326.9711 100.294307 
L 327.346236 99.325343 
L 327.721373 98.561381 
L 328.096509 97.050162 
L 328.659213 93.107113 
L 329.221917 86.85704 
L 329.784621 77.584725 
L 330.534894 61.132848 
L 331.097598 44.908197 
L 331.660302 21.995216 
L 332.06932 -1 
M 347.879253 -1 
L 349.291702 37.839661 
L 350.229542 57.996057 
L 351.542519 91.12069 
L 352.105223 99.003972 
L 352.480359 102.082624 
L 352.667928 102.907492 
L 352.855496 103.20457 
L 353.043064 102.957784 
L 353.230632 102.180551 
L 353.605768 99.202453 
L 354.168472 91.818904 
L 354.918745 77.890761 
L 355.856585 55.86853 
L 356.794425 33.790178 
L 356.981993 31.713189 
L 357.169562 31.13864 
L 357.35713 32.27812 
L 357.732266 39.823287 
L 358.29497 60.81083 
L 359.420379 104.688664 
L 360.170651 123.725625 
L 360.920923 137.564123 
L 361.858764 150.63408 
L 362.609036 157.956228 
L 363.734444 166.152815 
L 364.672285 171.251285 
L 365.422557 174.330548 
L 365.985261 175.705056 
L 366.923102 177.36755 
L 367.298238 177.682998 
L 367.673374 177.789136 
L 368.611215 177.673405 
L 369.361487 177.661637 
L 369.736623 177.860608 
L 370.674464 178.848271 
L 372.175008 180.48264 
L 373.112849 181.76663 
L 373.487985 181.937351 
L 373.863121 181.838108 
L 374.613393 181.451108 
L 374.988529 181.537036 
L 375.551234 181.961739 
L 376.489074 182.704761 
L 377.802051 183.408104 
L 378.927459 183.391387 
L 379.490163 183.368765 
L 379.8653 183.535924 
L 380.240436 183.919821 
L 381.74098 185.961295 
L 382.116117 185.94074 
L 382.678821 185.865344 
L 383.429093 186.004157 
L 383.804229 185.787367 
L 384.366934 184.990405 
L 385.67991 182.646353 
L 386.992887 181.660787 
L 387.555591 181.458488 
L 388.118295 181.403598 
L 388.493431 181.587854 
L 390.369112 183.271699 
L 391.306953 183.974391 
L 392.057225 184.925037 
L 393.182633 186.440578 
L 393.55777 186.579475 
L 394.49561 186.492271 
L 395.058314 186.644398 
L 396.371291 186.564004 
L 397.121563 186.881052 
L 397.496699 186.789975 
L 398.059404 186.306124 
L 398.997244 185.331911 
L 399.559948 185.119615 
L 400.122653 185.188711 
L 400.685357 185.230857 
L 401.248061 184.967413 
L 401.810765 184.736813 
L 402.185901 184.8623 
L 402.936174 185.239198 
L 404.624287 185.391235 
L 405.937263 184.591411 
L 406.499967 184.622069 
L 408.000512 185.030785 
L 408.750784 185.138724 
L 409.876193 185.629736 
L 410.438897 185.485795 
L 411.189169 185.035353 
L 411.564306 184.604601 
L 412.877282 182.304897 
L 413.627555 181.017003 
L 414.190259 180.561343 
L 414.565395 180.222423 
L 414.940531 179.611343 
L 415.503235 178.211797 
L 417.191348 173.122849 
L 417.754052 169.653609 
L 418.504325 163.014934 
L 419.067029 156.048107 
L 419.817301 143.752466 
L 420.567574 127.31003 
L 421.130278 110.714092 
L 421.88055 80.355921 
L 422.630822 48.684224 
L 423.005959 41.003741 
L 423.193527 40.487716 
L 423.381095 42.130631 
L 423.756231 50.525124 
L 425.81948 111.883843 
L 426.569752 127.543537 
L 427.320025 138.535664 
L 427.695161 141.937309 
L 428.070297 143.741773 
L 428.257865 144.043055 
L 428.445433 143.954245 
L 428.633001 143.474366 
L 429.008137 141.319589 
L 429.383273 137.595761 
L 429.945978 129.486719 
L 431.071386 108.614705 
L 432.947067 71.732159 
L 433.134635 71.068516 
L 433.322203 71.97112 
L 433.509771 74.503551 
L 433.884907 83.837886 
L 435.385452 130.958177 
L 436.135724 145.212241 
L 437.073565 158.376973 
L 437.823837 166.137519 
L 438.57411 171.476591 
L 439.324382 175.397424 
L 440.074654 177.761681 
L 441.200063 180.80897 
L 441.762767 181.575049 
L 442.700607 182.489178 
L 443.638448 183.695091 
L 444.013584 183.863465 
L 444.576288 184.004504 
L 445.701697 184.708257 
L 446.827105 185.514106 
L 447.202241 185.475307 
L 447.764946 185.02487 
L 448.32765 184.692876 
L 448.702786 184.765799 
L 449.26549 185.203677 
L 450.953603 186.662762 
L 451.328739 186.722165 
L 452.641716 186.584279 
L 453.20442 187.051203 
L 454.329828 188.12669 
L 454.704965 188.229671 
L 455.080101 188.096428 
L 456.017941 187.517336 
L 456.955782 187.307647 
L 457.518486 187.632941 
L 459.019031 188.457584 
L 459.394167 188.512429 
L 459.956871 188.342234 
L 460.332007 188.06605 
L 460.707143 187.467044 
L 461.457416 186.04286 
L 462.395256 184.992176 
L 462.95796 184.531482 
L 463.708233 184.325905 
L 464.833641 184.125613 
L 466.146618 184.531432 
L 466.521754 184.858418 
L 467.084458 185.487421 
L 467.459594 185.603206 
L 468.397435 185.483203 
L 468.960139 185.544458 
L 469.897979 185.449473 
L 470.648252 185.889187 
L 472.899069 187.287777 
L 474.024477 187.57067 
L 474.77475 188.188686 
L 475.71259 189.183488 
L 476.087726 189.23324 
L 476.65043 188.876057 
L 477.963407 187.947753 
L 478.526111 187.979807 
L 479.276384 188.034292 
L 480.401792 187.912217 
L 481.527201 188.682164 
L 482.089905 188.685106 
L 483.215313 188.399085 
L 483.965586 188.762908 
L 484.715858 189.068333 
L 485.090994 189.049515 
L 485.653698 188.728703 
L 486.216403 188.421857 
L 486.591539 188.435172 
L 487.904515 188.834876 
L 488.279651 188.826575 
L 489.217492 188.371235 
L 489.780196 188.033576 
L 490.530468 187.230745 
L 491.468309 186.201372 
L 492.031013 185.950502 
L 492.593717 186.075439 
L 493.531558 186.612455 
L 494.28183 187.436061 
L 495.032102 188.270821 
L 495.407239 188.374362 
L 495.782375 188.161896 
L 497.845624 186.540196 
L 498.408328 186.319459 
L 498.783464 186.398337 
L 499.721305 186.910294 
L 500.096441 186.638319 
L 500.659145 185.650661 
L 501.221849 184.663719 
L 501.596985 184.365755 
L 501.972122 184.363793 
L 502.534826 184.557101 
L 503.09753 185.059331 
L 503.847802 185.830839 
L 504.410507 186.131285 
L 504.973211 186.209403 
L 506.286187 186.247176 
L 507.9743 187.265095 
L 508.537004 187.323398 
L 510.225117 187.344499 
L 510.787821 187.795626 
L 512.288366 189.163944 
L 512.663502 189.144139 
L 513.038638 188.851654 
L 514.351615 187.22415 
L 514.914319 187.125728 
L 516.227296 187.180008 
L 516.79 187.750398 
L 518.102977 189.359388 
L 518.478113 189.596888 
L 518.853249 189.52541 
L 519.415953 188.907235 
L 519.791089 188.552468 
L 520.166226 188.470563 
L 520.72893 188.501126 
L 521.104066 188.327178 
L 522.041906 187.508254 
L 522.417043 187.527944 
L 522.979747 187.634037 
L 524.292723 187.484447 
L 525.6057 187.887449 
L 526.355972 187.717398 
L 527.481381 187.558516 
L 528.044085 187.857927 
L 528.419221 188.024054 
L 528.981925 187.92954 
L 529.357062 187.967728 
L 529.732198 188.448272 
L 530.48247 189.873076 
L 530.670038 189.970073 
L 531.045174 189.781193 
L 531.607879 189.339163 
L 532.170583 189.322796 
L 532.545719 189.225219 
L 533.108423 188.645667 
L 534.796536 186.571404 
L 535.35924 186.15192 
L 535.921945 185.993429 
L 536.859785 185.982626 
L 537.234921 186.267606 
L 538.735466 188.108391 
L 539.29817 188.143973 
L 539.673306 187.948308 
L 540.798715 186.840257 
L 541.173851 187.171711 
L 542.486827 189.163874 
L 543.049532 189.581026 
L 543.424668 189.646474 
L 543.987372 189.344737 
L 546.238189 187.953197 
L 547.738734 187.443582 
L 548.301438 187.371689 
L 548.676574 187.111872 
L 549.239278 186.573466 
L 549.614415 186.526316 
L 549.989551 186.795014 
L 550.739823 187.689418 
L 552.240368 189.939235 
L 552.615504 190.003057 
L 553.178208 189.720569 
L 553.740912 189.471866 
L 554.116049 189.555087 
L 555.241457 190.20352 
L 555.616593 190.003682 
L 556.554434 189.229522 
L 557.304706 188.891103 
L 557.679842 188.89457 
L 558.430114 189.256602 
L 559.555523 189.767408 
L 560.493363 189.586605 
L 560.8685 189.281395 
L 561.431204 188.71719 
L 561.80634 188.629966 
L 562.556612 188.679337 
L 563.119317 188.499144 
L 564.244725 188.056623 
L 564.807429 188.199934 
L 565.932838 188.699572 
L 566.495542 188.963361 
L 566.870678 188.873265 
L 568.371223 188.058925 
L 568.746359 188.159149 
L 569.121495 188.472675 
L 569.871768 189.298378 
L 570.246904 189.309736 
L 570.62204 188.9212 
L 571.372312 187.945727 
L 571.55988 187.929785 
L 571.935016 188.30343 
L 573.435561 190.681427 
L 574.185833 191.065835 
L 574.936106 191.373756 
L 575.311242 191.223141 
L 576.624219 190.022171 
L 577.186923 189.592439 
L 577.562059 189.68113 
L 577.937195 190.141634 
L 578.499899 190.966802 
L 578.875036 191.157948 
L 579.250172 190.936554 
L 579.812876 190.060729 
L 580.37558 189.214521 
L 580.750716 188.957667 
L 581.313421 188.901285 
L 581.876125 189.176058 
L 582.251261 189.359763 
L 582.626397 189.226585 
L 583.564238 188.291126 
L 583.939374 188.275965 
L 585.439918 188.689479 
L 585.815055 188.326682 
L 586.940463 186.79019 
L 587.315599 186.5523 
L 587.690735 186.547427 
L 588.065872 186.77589 
L 588.441008 187.245606 
L 589.566416 189.007359 
L 589.941552 189.11863 
L 590.691825 189.024081 
L 591.629665 188.779406 
L 592.004801 188.976401 
L 594.06805 190.786744 
L 594.630754 190.82899 
L 595.193459 190.707986 
L 595.756163 190.388986 
L 596.318867 189.823114 
L 597.631844 188.02511 
L 598.00698 188.013952 
L 598.382116 188.301604 
L 598.94482 189.094238 
L 599.507525 189.870219 
L 599.882661 190.069176 
L 600.445365 190.045523 
L 600.820501 189.902098 
L 601.383205 189.369195 
L 602.321046 188.333172 
L 602.696182 188.222846 
L 604.009159 188.544523 
L 604.571863 189.166526 
L 605.134567 189.795979 
L 605.509703 189.887907 
L 606.072408 189.607315 
L 607.010248 189.107327 
L 609.073497 188.204397 
L 609.448633 188.17431 
L 609.823769 188.401367 
L 610.386473 188.940774 
L 610.76161 188.935741 
L 611.324314 188.384215 
L 612.074586 187.418398 
L 612.824859 186.380259 
L 613.199995 186.196668 
L 613.575131 186.359753 
L 614.512971 187.320276 
L 614.888107 187.356643 
L 615.263244 187.171046 
L 616.201084 186.518801 
L 616.57622 186.60653 
L 617.514061 187.492273 
L 618.451901 188.359972 
L 618.827037 188.469357 
L 619.202173 188.347763 
L 619.952446 187.90965 
L 620.327582 187.935519 
L 620.890286 188.098859 
L 621.45299 187.975298 
L 622.015695 187.859478 
L 623.516239 187.79441 
L 624.45408 187.435601 
L 625.767056 187.626121 
L 626.892465 187.419039 
L 627.267601 187.627842 
L 628.017873 188.519194 
L 628.580578 189.008214 
L 628.955714 189.078921 
L 629.33085 188.935586 
L 629.705986 188.533084 
L 630.26869 187.415051 
L 631.018963 185.940795 
L 632.331939 183.964589 
L 632.894643 183.62652 
L 634.020052 183.221407 
L 634.582756 183.046028 
L 634.957892 182.705052 
L 635.333028 182.039511 
L 635.895733 180.406163 
L 636.646005 177.265065 
L 637.396277 172.951638 
L 637.958982 168.130777 
L 638.709254 159.367497 
L 639.459526 148.079178 
L 641.335207 116.212652 
L 641.710343 113.550276 
L 641.897911 113.099033 
L 642.085479 113.21692 
L 642.273048 113.872028 
L 642.648184 116.671379 
L 643.210888 123.952017 
L 645.461705 158.432419 
L 646.211977 166.074002 
L 646.774682 170.138301 
L 647.524954 173.663772 
L 648.83793 178.577106 
L 649.588203 180.524596 
L 650.338475 181.808666 
L 650.713611 182.118885 
L 651.651452 182.382504 
L 652.77686 183.533827 
L 653.714701 183.713389 
L 654.277405 184.185087 
L 654.840109 184.676424 
L 655.215245 184.72609 
L 656.528222 184.57625 
L 657.278494 184.37954 
L 657.841198 184.148735 
L 658.216335 184.225036 
L 659.154175 184.714061 
L 659.904447 184.526033 
L 660.842288 184.418734 
L 661.404992 184.527929 
L 661.780128 184.89599 
L 662.905537 186.28721 
L 664.218513 187.141154 
L 665.156354 187.972561 
L 665.719058 188.004375 
L 666.281762 188.097914 
L 667.782307 188.75836 
L 668.157443 188.616361 
L 668.532579 188.252708 
L 669.657988 186.85741 
L 670.595828 185.875932 
L 671.158532 185.383614 
L 671.533668 185.334318 
L 671.908805 185.631157 
L 672.846645 186.719368 
L 673.784485 187.221698 
L 674.534758 187.678109 
L 674.909894 187.602594 
L 675.28503 187.135605 
L 676.410439 185.420477 
L 677.535847 183.597804 
L 677.910983 183.11722 
L 678.286119 182.951918 
L 678.661256 183.079983 
L 679.786664 183.785202 
L 680.536936 183.797736 
L 681.099641 183.829019 
L 681.474777 184.032975 
L 682.412617 185.057975 
L 683.538026 186.244694 
L 685.03857 186.692954 
L 685.413707 186.629242 
L 686.539115 186.112026 
L 687.101819 186.337612 
L 689.540204 187.649583 
L 690.478045 188.197267 
L 691.040749 188.3374 
L 692.353726 188.219813 
L 693.103998 188.414117 
L 694.041838 188.813361 
L 694.604543 188.683795 
L 695.542383 188.259868 
L 696.667792 188.204702 
L 698.168336 187.462731 
L 698.731041 187.291855 
L 699.481313 186.737226 
L 700.044017 186.4292 
L 700.794289 186.204429 
L 701.919698 185.462723 
L 702.294834 185.497283 
L 703.045106 185.925073 
L 704.545651 187.071323 
L 706.046196 188.297065 
L 706.6089 188.180234 
L 706.984036 188.097223 
L 707.359172 188.234269 
L 708.297013 189.065982 
L 708.672149 188.856252 
L 709.985125 187.381091 
L 710.54783 187.073114 
L 711.110534 187.071277 
L 712.423511 187.354906 
L 713.361351 186.807138 
L 714.299191 186.193061 
L 714.674328 186.35578 
L 715.799736 187.1764 
L 716.550008 187.456932 
L 716.925145 187.427935 
L 717.675417 187.020605 
L 718.050553 186.906311 
L 718.425689 187.053519 
L 719.36353 187.747641 
L 719.738666 187.706961 
L 720.30137 187.54997 
L 721.23921 187.578236 
L 722.739755 187.13559 
L 723.114891 187.279586 
L 723.490027 187.675362 
L 724.615436 189.132831 
L 724.990572 189.208161 
L 725.365708 188.901561 
L 726.303549 187.816922 
L 727.241389 187.309418 
L 727.616525 187.275388 
L 728.554366 187.406725 
L 729.11707 187.190951 
L 730.242478 186.655801 
L 731.367887 186.672299 
L 732.680864 186.179826 
L 733.056 186.487518 
L 733.99384 187.539537 
L 734.744112 187.961308 
L 735.119249 187.975358 
L 735.494385 187.668763 
L 736.432225 186.609888 
L 736.807361 186.641036 
L 740.183587 188.774142 
L 741.308995 188.953404 
L 741.684131 188.746982 
L 742.997108 187.476776 
L 743.372244 187.562279 
L 744.122517 187.956344 
L 744.497653 187.881579 
L 744.872789 187.529875 
L 746.185765 185.898809 
L 746.560902 185.946379 
L 748.436582 187.049446 
L 749.937127 188.378665 
L 750.874968 188.817699 
L 751.250104 188.814271 
L 752.56308 188.519299 
L 753.500921 188.434071 
L 754.063625 187.901089 
L 754.626329 187.459378 
L 755.376602 187.243499 
L 755.939306 187.10179 
L 756.877146 186.555578 
L 757.252282 186.672209 
L 758.377691 187.225521 
L 759.503099 187.616404 
L 760.065804 188.147615 
L 761.566348 189.970693 
L 762.129053 190.128374 
L 762.504189 190.091092 
L 762.879325 189.855954 
L 763.442029 189.437766 
L 764.755006 189.209978 
L 765.692846 189.073297 
L 766.25555 188.698686 
L 767.943663 187.210035 
L 769.444208 186.519781 
L 770.19448 186.012733 
L 770.757184 185.946574 
L 771.13232 186.127693 
L 772.820433 187.33303 
L 773.195569 187.328377 
L 773.758274 186.971149 
L 774.320978 186.618779 
L 774.883682 186.57206 
L 775.446386 186.655151 
L 775.821523 186.900141 
L 777.322067 188.395338 
L 777.697203 188.240764 
L 778.447476 187.647692 
L 778.822612 187.715752 
L 779.760452 188.259378 
L 780.135588 188.1674 
L 781.260997 187.566422 
L 782.198837 186.757286 
L 782.761542 186.751542 
L 783.324246 186.966135 
L 784.262086 187.616279 
L 784.637222 187.489425 
L 785.012359 187.002307 
L 785.950199 185.432155 
L 786.325335 185.301759 
L 786.888039 185.58844 
L 787.450744 185.819716 
L 788.201016 186.095504 
L 788.76372 186.196944 
L 789.138856 186.035565 
L 790.076697 185.496768 
L 790.639401 185.530127 
L 791.202105 185.765991 
L 791.76481 186.050641 
L 792.327514 185.995035 
L 793.077786 185.898394 
L 793.452922 186.06259 
L 794.015627 186.738012 
L 794.578331 187.28463 
L 794.953467 187.368937 
L 795.328603 187.179462 
L 796.64158 186.01623 
L 797.016716 186.11135 
L 797.954556 186.676071 
L 798.329693 186.611989 
L 798.704829 186.322536 
L 799.830237 185.083118 
L 801.143214 184.402382 
L 801.51835 184.406835 
L 802.45619 184.638876 
L 802.831327 184.426965 
L 803.769167 183.51694 
L 804.519439 182.426456 
L 805.45728 181.06697 
L 806.207552 180.022721 
L 808.083233 176.240225 
L 809.771346 172.231362 
L 811.084322 169.604397 
L 811.834594 167.204179 
L 812.397299 164.65887 
L 812.960003 160.923989 
L 813.522707 155.855185 
L 814.085411 148.683588 
L 814.648116 137.468803 
L 815.21082 119.795285 
L 816.336228 73.924594 
L 816.523797 71.591821 
L 816.711365 72.311746 
L 817.086501 81.096877 
L 818.211909 117.639047 
L 818.774614 128.830185 
L 819.337318 136.053746 
L 819.900022 141.006183 
L 820.462726 144.329256 
L 821.025431 146.3449 
L 821.400567 147.024351 
L 821.588135 147.096199 
L 821.775703 146.987934 
L 822.150839 146.368508 
L 822.713543 144.799402 
L 823.276248 142.568619 
L 823.838952 139.400391 
L 824.401656 134.173045 
L 825.527065 121.048013 
L 825.714633 120.556151 
L 825.902201 120.893369 
L 826.277337 123.349453 
L 827.402745 132.71945 
L 827.96545 135.814569 
L 828.715722 138.555808 
L 829.278426 139.882626 
L 830.028699 141.016371 
L 830.778971 141.607906 
L 831.716811 142.221964 
L 832.467084 142.822376 
L 833.029788 142.913528 
L 833.592492 142.796467 
L 833.967628 142.429131 
L 834.530333 141.40853 
L 835.093037 140.454732 
L 835.280605 140.333628 
L 835.468173 140.356495 
L 835.843309 140.802623 
L 837.156286 143.195696 
L 837.71899 143.528736 
L 838.094126 143.457048 
L 838.469262 143.068107 
L 839.031967 142.394356 
L 839.219535 142.34611 
L 839.407103 142.436056 
L 839.782239 143.034147 
L 840.907647 145.619746 
L 842.220624 146.524328 
L 842.408192 146.362754 
L 842.59576 145.880233 
L 842.970896 143.628685 
L 843.346032 139.259397 
L 844.471441 121.365092 
L 844.659009 120.918638 
L 844.846577 121.679989 
L 845.221713 125.823901 
L 846.347122 141.620876 
L 846.909826 145.955008 
L 847.284962 147.519711 
L 847.847666 148.912362 
L 848.410371 149.82689 
L 848.973075 150.20743 
L 849.723347 150.425551 
L 852.161732 150.723546 
L 853.474709 151.377677 
L 854.412549 152.343924 
L 854.787685 152.355953 
L 855.162822 152.088771 
L 856.100662 150.853777 
L 856.663366 150.270647 
L 857.038502 150.144414 
L 857.413639 150.378256 
L 857.976343 151.324143 
L 859.852024 154.95911 
L 861.727705 158.020145 
L 862.853113 160.734174 
L 863.228249 161.317278 
L 863.603385 161.587452 
L 864.16609 161.912132 
L 865.479066 163.434393 
L 866.416907 163.766698 
L 867.167179 164.652915 
L 867.917451 165.384204 
L 869.04286 166.278067 
L 869.605564 167.191895 
L 870.918541 169.912359 
L 871.668813 170.431111 
L 872.606653 171.19682 
L 873.356926 171.764403 
L 875.795311 172.648074 
L 876.545583 173.28131 
L 878.046128 174.895209 
L 878.7964 176.055854 
L 880.296945 178.687442 
L 881.047217 179.986114 
L 881.422353 180.26603 
L 882.73533 180.807909 
L 883.860738 181.563856 
L 884.798579 181.938557 
L 885.736419 182.586995 
L 886.111555 182.692522 
L 886.486691 182.578443 
L 887.236964 182.110048 
L 887.6121 182.354073 
L 888.362372 183.180932 
L 890.050485 184.409962 
L 891.175894 185.566609 
L 891.55103 185.613614 
L 891.926166 185.503142 
L 892.301302 185.209076 
L 893.051574 184.362662 
L 893.426711 184.355052 
L 893.989415 184.876551 
L 894.927255 186.082884 
L 895.677528 187.043937 
L 896.4278 187.420465 
L 897.178072 187.628573 
L 898.303481 187.744413 
L 899.053753 187.930791 
L 899.616457 187.886948 
L 901.30457 187.429561 
L 902.429979 187.476171 
L 902.992683 187.163906 
L 903.742955 186.734254 
L 904.305659 186.812047 
L 904.868364 186.794414 
L 905.806204 186.523399 
L 906.368908 186.306154 
L 906.744044 186.510534 
L 908.619725 188.074687 
L 908.994861 187.958816 
L 910.12027 186.938995 
L 910.870542 186.855093 
L 911.620815 186.516854 
L 911.995951 186.613265 
L 912.558655 187.164086 
L 913.496495 188.192458 
L 913.871632 188.413466 
L 914.246768 188.390995 
L 915.372176 187.870726 
L 915.93488 188.088702 
L 917.247857 188.877313 
L 917.622993 188.568911 
L 918.185697 187.551922 
L 918.748402 186.607396 
L 919.311106 186.139476 
L 920.624083 185.382644 
L 921.561923 185.465575 
L 922.124627 185.200294 
L 923.062468 184.363333 
L 923.437604 184.498588 
L 924.75058 185.651347 
L 925.688421 185.923402 
L 926.626261 186.736701 
L 930.565191 187.52954 
L 930.940327 187.332075 
L 931.315463 186.859982 
L 932.065736 185.715944 
L 932.440872 185.606709 
L 932.816008 185.860731 
L 934.316553 187.524576 
L 934.879257 187.674572 
L 935.254393 187.63143 
L 935.629529 187.377123 
L 936.379802 186.766858 
L 936.754938 186.773823 
L 937.317642 187.084852 
L 938.067914 187.619351 
L 938.44305 187.676353 
L 939.005755 187.480074 
L 939.568459 187.108485 
L 940.318731 186.559425 
L 941.256572 186.344217 
L 942.757116 186.373569 
L 944.257661 186.750311 
L 944.632797 186.622077 
L 945.758206 185.70956 
L 946.133342 185.766932 
L 946.696046 185.884663 
L 947.071182 185.641815 
L 947.821455 184.873719 
L 948.384159 184.683859 
L 948.946863 184.835346 
L 951.010112 185.840996 
L 951.760384 185.907625 
L 952.698225 185.91364 
L 953.448497 185.990296 
L 954.949042 185.721904 
L 956.262018 186.081564 
L 957.387427 186.330037 
L 958.137699 186.422515 
L 958.887971 186.53129 
L 959.825812 186.681766 
L 960.200948 186.583538 
L 960.763652 185.980179 
L 961.326357 185.536252 
L 961.889061 185.471409 
L 962.639333 185.384165 
L 963.389605 185.103498 
L 963.95231 185.19366 
L 964.89015 185.515902 
L 965.265286 185.364846 
L 966.015559 184.51557 
L 967.703671 182.585038 
L 968.078808 182.587125 
L 968.453944 183.047083 
L 969.204216 184.718825 
L 970.517193 187.534374 
L 971.079897 188.399065 
L 971.455033 188.668174 
L 972.017737 188.741212 
L 972.392873 188.54764 
L 973.143146 187.586242 
L 973.518282 187.227297 
L 973.893418 187.125988 
L 974.456122 187.37319 
L 974.831259 187.513723 
L 975.393963 187.436081 
L 976.144235 187.342127 
L 977.832348 187.479253 
L 978.58262 187.241218 
L 980.645869 187.495585 
L 981.58371 188.331686 
L 982.333982 188.840691 
L 982.709118 188.953909 
L 983.084254 188.849843 
L 984.022095 188.235145 
L 985.147503 188.232738 
L 985.522639 188.276655 
L 985.897775 188.494416 
L 987.210752 189.588997 
L 987.773456 189.696936 
L 988.523729 189.81005 
L 990.211841 190.659906 
L 991.149682 191.456888 
L 991.524818 191.441526 
L 992.087522 190.945291 
L 993.212931 189.63411 
L 994.150771 188.069373 
L 994.525907 187.764043 
L 994.901043 187.669838 
L 995.27618 187.785278 
L 995.651316 188.132079 
L 996.776724 189.522918 
L 997.15186 189.412127 
L 997.714565 189.1584 
L 998.277269 188.944747 
L 999.027541 188.550727 
L 999.965382 188.139084 
L 1001.278358 187.242233 
L 1001.841062 187.313101 
L 1002.403767 187.430322 
L 1002.778903 187.296243 
L 1004.091879 186.416535 
L 1005.404856 186.340564 
L 1005.779992 186.537715 
L 1007.280537 187.854034 
L 1008.405945 187.750948 
L 1009.718922 187.546187 
L 1010.281626 187.871947 
L 1011.031899 188.35117 
L 1011.969739 188.733802 
L 1012.344875 188.665126 
L 1012.720011 188.386326 
L 1014.032988 187.124987 
L 1014.595692 186.857105 
L 1015.158396 186.930304 
L 1015.721101 186.995617 
L 1016.471373 186.822154 
L 1017.034077 186.616583 
L 1017.409213 186.726979 
L 1018.347054 187.538852 
L 1019.284894 188.277601 
L 1019.66003 188.255715 
L 1020.035166 187.914769 
L 1020.785439 187.034425 
L 1021.535711 186.717927 
L 1022.285983 186.600606 
L 1022.848688 186.817741 
L 1023.59896 187.372054 
L 1024.161664 187.821905 
L 1024.5368 187.915885 
L 1025.099505 187.724334 
L 1025.662209 187.520648 
L 1026.224913 187.649348 
L 1026.975186 187.837347 
L 1027.350322 187.806914 
L 1027.725458 187.441991 
L 1028.288162 186.193731 
L 1029.226003 184.058614 
L 1029.601139 183.618319 
L 1029.976275 183.512031 
L 1030.914115 183.776266 
L 1031.47682 184.090897 
L 1032.039524 184.686746 
L 1033.164932 186.065642 
L 1034.102773 186.753694 
L 1034.665477 186.850055 
L 1035.790885 186.797266 
L 1036.728726 187.432724 
L 1037.103862 187.218506 
L 1038.229271 185.80514 
L 1038.604407 185.816613 
L 1038.979543 186.113842 
L 1039.542247 187.023007 
L 1040.292519 188.342719 
L 1040.667656 188.624817 
L 1041.042792 188.528791 
L 1042.543336 187.344078 
L 1043.856313 187.464267 
L 1044.419017 187.737118 
L 1044.794153 187.591631 
L 1045.544426 187.124777 
L 1045.919562 187.199222 
L 1046.294698 187.474084 
L 1047.420107 188.724825 
L 1047.795243 188.675299 
L 1049.108219 187.756552 
L 1049.670924 187.591711 
L 1050.04606 187.274142 
L 1050.796332 186.502444 
L 1051.171468 186.475033 
L 1052.484445 186.924589 
L 1053.047149 187.464022 
L 1054.735262 189.244538 
L 1055.110398 189.098946 
L 1055.86067 188.47341 
L 1056.235806 188.47279 
L 1057.736351 189.165525 
L 1058.111487 189.019172 
L 1059.424464 188.05932 
L 1060.925009 188.075057 
L 1061.675281 188.43175 
L 1062.800689 188.325541 
L 1063.550962 188.770464 
L 1063.926098 188.578983 
L 1065.239074 187.158342 
L 1065.801779 187.204856 
L 1066.364483 187.305975 
L 1066.739619 187.192432 
L 1067.302323 186.69385 
L 1068.990436 184.785974 
L 1069.365572 184.621438 
L 1069.740708 184.666446 
L 1070.678549 185.167205 
L 1071.241253 185.759421 
L 1071.991525 186.732643 
L 1072.366662 186.914937 
L 1072.741798 186.842684 
L 1073.304502 186.371567 
L 1073.867206 185.794432 
L 1074.242342 185.776514 
L 1074.617479 186.086462 
L 1075.930455 187.480289 
L 1076.493159 187.6311 
L 1076.868296 187.533363 
L 1077.243432 187.172422 
L 1077.993704 186.359698 
L 1078.36884 186.250123 
L 1078.931545 186.374584 
L 1080.244521 186.970598 
L 1080.994793 186.975762 
L 1081.557498 187.025869 
L 1083.058042 187.453499 
L 1083.620747 187.325965 
L 1084.746155 187.413615 
L 1085.121291 187.120259 
L 1086.059132 185.883673 
L 1086.434268 185.782859 
L 1086.996972 185.952824 
L 1087.934813 186.547902 
L 1089.060221 187.641543 
L 1089.622925 187.681607 
L 1090.560766 187.673581 
L 1091.686174 187.920448 
L 1092.811583 187.454755 
L 1093.749423 187.394786 
L 1095.249968 187.044413 
L 1095.812672 187.37285 
L 1096.375376 187.618826 
L 1096.93808 187.566092 
L 1098.813761 187.201268 
L 1099.376466 187.500374 
L 1100.689442 188.321804 
L 1101.252146 188.544563 
L 1101.627283 188.480075 
L 1102.565123 188.050174 
L 1102.940259 188.146645 
L 1104.440804 189.137644 
L 1105.003508 189.416895 
L 1105.378644 189.297107 
L 1105.941348 188.674633 
L 1106.504053 188.05837 
L 1108.75487 186.710632 
L 1109.130006 186.742465 
L 1109.69271 187.105813 
L 1110.818119 188.096883 
L 1111.193255 188.001478 
L 1111.755959 187.413615 
L 1113.068936 185.719387 
L 1113.444072 185.653483 
L 1114.006776 185.939669 
L 1114.56948 186.495343 
L 1115.694889 187.988568 
L 1116.070025 187.990229 
L 1116.820297 187.494359 
L 1117.758138 187.483636 
L 1118.133274 187.615323 
L 1119.071114 188.240424 
L 1119.633819 188.202906 
L 1120.759227 187.990024 
L 1121.321931 187.592707 
L 1122.259772 186.810986 
L 1122.634908 186.80313 
L 1123.38518 186.99296 
L 1124.135453 187.06089 
L 1124.698157 187.385489 
L 1125.448429 187.95013 
L 1125.823565 187.949369 
L 1126.198701 187.755902 
L 1126.761406 187.156645 
L 1127.32411 186.56562 
L 1129.199791 185.567815 
L 1129.574927 185.546319 
L 1129.950063 185.775763 
L 1130.700335 186.330077 
L 1131.450608 186.72175 
L 1132.388448 187.523596 
L 1132.763584 187.316673 
L 1134.264129 185.501006 
L 1134.639265 185.699582 
L 1135.764674 187.024123 
L 1136.327378 187.118547 
L 1137.265218 187.170631 
L 1138.578195 186.853422 
L 1139.516035 186.648706 
L 1140.453876 186.495213 
L 1141.01658 186.622397 
L 1141.95442 187.068355 
L 1142.329557 186.862569 
L 1142.704693 186.629867 
L 1143.079829 186.711357 
L 1144.392805 187.809016 
L 1144.767942 187.697048 
L 1146.268486 186.560972 
L 1146.831191 186.671678 
L 1147.769031 186.990913 
L 1148.331735 186.659935 
L 1148.894439 186.415164 
L 1149.644712 186.427008 
L 1151.145256 186.724887 
L 1151.707961 186.75496 
L 1152.458233 186.458186 
L 1153.396073 186.087018 
L 1153.958778 186.174562 
L 1154.521482 186.27301 
L 1155.084186 186.046953 
L 1155.459322 185.914646 
L 1155.834459 186.032688 
L 1156.959867 186.771807 
L 1158.460412 187.161014 
L 1159.023116 187.046659 
L 1159.58582 186.896088 
L 1160.148524 186.931124 
L 1160.711229 187.19049 
L 1162.024205 188.221805 
L 1162.774478 189.045377 
L 1163.149614 189.093107 
L 1163.52475 188.693672 
L 1164.275022 187.588949 
L 1164.650158 187.555559 
L 1165.775567 188.18778 
L 1166.338271 188.100966 
L 1167.46368 187.785814 
L 1168.213952 188.159099 
L 1169.33936 188.786296 
L 1169.714497 188.564017 
L 1170.277201 188.042393 
L 1170.652337 187.992481 
L 1171.027473 188.265607 
L 1171.777746 188.953704 
L 1172.152882 188.982585 
L 1172.528018 188.804039 
L 1173.090722 188.162506 
L 1173.653426 187.424488 
L 1174.028563 187.261107 
L 1174.778835 187.222609 
L 1175.529107 186.547597 
L 1176.27938 186.030166 
L 1176.654516 185.929927 
L 1177.029652 186.034049 
L 1177.404788 186.400263 
L 1178.530197 187.845678 
L 1179.092901 188.10681 
L 1180.593445 188.130858 
L 1180.968582 187.994758 
L 1182.09399 187.412834 
L 1182.844262 186.844065 
L 1183.406967 186.530469 
L 1183.782103 186.665449 
L 1184.344807 187.406775 
L 1184.719943 187.925802 
L 1184.719943 187.925802 
" clip-path="url(#p3a5cdcafca)" style="fill: none; stroke: #000000; stroke-width: 2; stroke-linecap: square"/>
   </g>
   <g id="patch_3">
    <path d="M 3.00024 198.907885 
L 1184.99976 198.907885 
" style="fill: none; stroke: #000000; stroke-width: 2; stroke-linejoin: miter; stroke-linecap: square"/>
   </g>
  </g>
 </g>
 <defs>
  <clipPath id="p3a5cdcafca">
   <rect x="3.00024" y="3.00024" width="1181.99952" height="195.907645"/>
  </clipPath>
 </defs>
</svg>
