<?xml version="1.0" encoding="utf-8" standalone="no"?>
<!DOCTYPE svg PUBLIC "-//W3C//DTD SVG 1.1//EN"
  "http://www.w3.org/Graphics/SVG/1.1/DTD/svg11.dtd">
<svg xmlns:xlink="http://www.w3.org/1999/xlink" width="1188pt" height="252pt" viewBox="0 0 1188 252" xmlns="http://www.w3.org/2000/svg" version="1.1">
 <metadata>
  <rdf:RDF xmlns:dc="http://purl.org/dc/elements/1.1/" xmlns:cc="http://creativecommons.org/ns#" xmlns:rdf="http://www.w3.org/1999/02/22-rdf-syntax-ns#">
   <cc:Work>
    <dc:type rdf:resource="http://purl.org/dc/dcmitype/StillImage"/>
    <dc:date>2024-05-13T18:26:10.487925</dc:date>
    <dc:format>image/svg+xml</dc:format>
    <dc:creator>
     <cc:Agent>
      <dc:title>Matplotlib v3.8.0, https://matplotlib.org/</dc:title>
     </cc:Agent>
    </dc:creator>
   </cc:Work>
  </rdf:RDF>
 </metadata>
 <defs>
  <style type="text/css">*{stroke-linejoin: round; stroke-linecap: butt}</style>
 </defs>
 <g id="figure_1">
  <g id="patch_1">
   <path d="M 0 252 
L 1188 252 
L 1188 0 
L 0 0 
z
" style="fill: #ffffff"/>
  </g>
  <g id="axes_1">
   <g id="patch_2">
    <path d="M 3.00024 198.907885 
L 1184.99976 198.907885 
L 1184.99976 3.00024 
L 3.00024 3.00024 
z
" style="fill: #ffffff"/>
   </g>
   <g id="matplotlib.axis_1">
    <g id="xtick_1">
     <g id="line2d_1">
      <defs>
       <path id="mb311c490f7" d="M 0 0 
L 0 8 
" style="stroke: #000000; stroke-width: 2"/>
      </defs>
      <g>
       <use xlink:href="#mb311c490f7" x="1135.74978" y="198.907885" style="stroke: #000000; stroke-width: 2"/>
      </g>
     </g>
     <g id="text_1">
      <!-- −1 -->
      <g transform="translate(1125.488374 224.791947) scale(0.18 -0.18)">
       <defs>
        <path id="Arial-BoldMT-2212" d="M 266 1850 
L 266 2672 
L 3469 2672 
L 3469 1850 
L 266 1850 
z
" transform="scale(0.015625)"/>
        <path id="Arial-BoldMT-31" d="M 2519 0 
L 1641 0 
L 1641 3309 
Q 1159 2859 506 2644 
L 506 3441 
Q 850 3553 1253 3867 
Q 1656 4181 1806 4600 
L 2519 4600 
L 2519 0 
z
" transform="scale(0.015625)"/>
       </defs>
       <use xlink:href="#Arial-BoldMT-2212"/>
       <use xlink:href="#Arial-BoldMT-31" x="58.398438"/>
      </g>
     </g>
    </g>
    <g id="xtick_2">
     <g id="line2d_2">
      <g>
       <use xlink:href="#mb311c490f7" x="1037.24982" y="198.907885" style="stroke: #000000; stroke-width: 2"/>
      </g>
     </g>
     <g id="text_2">
      <!-- 0 -->
      <g transform="translate(1032.244976 224.791947) scale(0.18 -0.18)">
       <defs>
        <path id="Arial-BoldMT-30" d="M 1756 4600 
Q 2422 4600 2797 4125 
Q 3244 3563 3244 2259 
Q 3244 959 2794 391 
Q 2422 -78 1756 -78 
Q 1088 -78 678 436 
Q 269 950 269 2269 
Q 269 3563 719 4131 
Q 1091 4600 1756 4600 
z
M 1756 3872 
Q 1597 3872 1472 3770 
Q 1347 3669 1278 3406 
Q 1188 3066 1188 2259 
Q 1188 1453 1269 1151 
Q 1350 850 1473 750 
Q 1597 650 1756 650 
Q 1916 650 2041 751 
Q 2166 853 2234 1116 
Q 2325 1453 2325 2259 
Q 2325 3066 2244 3367 
Q 2163 3669 2039 3770 
Q 1916 3872 1756 3872 
z
" transform="scale(0.015625)"/>
       </defs>
       <use xlink:href="#Arial-BoldMT-30"/>
      </g>
     </g>
    </g>
    <g id="xtick_3">
     <g id="line2d_3">
      <g>
       <use xlink:href="#mb311c490f7" x="938.74986" y="198.907885" style="stroke: #000000; stroke-width: 2"/>
      </g>
     </g>
     <g id="text_3">
      <!-- 1 -->
      <g transform="translate(933.745016 224.791947) scale(0.18 -0.18)">
       <use xlink:href="#Arial-BoldMT-31"/>
      </g>
     </g>
    </g>
    <g id="xtick_4">
     <g id="line2d_4">
      <g>
       <use xlink:href="#mb311c490f7" x="840.2499" y="198.907885" style="stroke: #000000; stroke-width: 2"/>
      </g>
     </g>
     <g id="text_4">
      <!-- 2 -->
      <g transform="translate(835.245056 224.791947) scale(0.18 -0.18)">
       <defs>
        <path id="Arial-BoldMT-32" d="M 3238 816 
L 3238 0 
L 159 0 
Q 209 463 459 877 
Q 709 1291 1447 1975 
Q 2041 2528 2175 2725 
Q 2356 2997 2356 3263 
Q 2356 3556 2198 3714 
Q 2041 3872 1763 3872 
Q 1488 3872 1325 3706 
Q 1163 3541 1138 3156 
L 263 3244 
Q 341 3969 753 4284 
Q 1166 4600 1784 4600 
Q 2463 4600 2850 4234 
Q 3238 3869 3238 3325 
Q 3238 3016 3127 2736 
Q 3016 2456 2775 2150 
Q 2616 1947 2200 1565 
Q 1784 1184 1673 1059 
Q 1563 934 1494 816 
L 3238 816 
z
" transform="scale(0.015625)"/>
       </defs>
       <use xlink:href="#Arial-BoldMT-32"/>
      </g>
     </g>
    </g>
    <g id="xtick_5">
     <g id="line2d_5">
      <g>
       <use xlink:href="#mb311c490f7" x="741.74994" y="198.907885" style="stroke: #000000; stroke-width: 2"/>
      </g>
     </g>
     <g id="text_5">
      <!-- 3 -->
      <g transform="translate(736.745096 224.791947) scale(0.18 -0.18)">
       <defs>
        <path id="Arial-BoldMT-33" d="M 241 1216 
L 1091 1319 
Q 1131 994 1309 822 
Q 1488 650 1741 650 
Q 2013 650 2198 856 
Q 2384 1063 2384 1413 
Q 2384 1744 2206 1937 
Q 2028 2131 1772 2131 
Q 1603 2131 1369 2066 
L 1466 2781 
Q 1822 2772 2009 2936 
Q 2197 3100 2197 3372 
Q 2197 3603 2059 3740 
Q 1922 3878 1694 3878 
Q 1469 3878 1309 3722 
Q 1150 3566 1116 3266 
L 306 3403 
Q 391 3819 561 4067 
Q 731 4316 1036 4458 
Q 1341 4600 1719 4600 
Q 2366 4600 2756 4188 
Q 3078 3850 3078 3425 
Q 3078 2822 2419 2463 
Q 2813 2378 3048 2084 
Q 3284 1791 3284 1375 
Q 3284 772 2843 347 
Q 2403 -78 1747 -78 
Q 1125 -78 715 280 
Q 306 638 241 1216 
z
" transform="scale(0.015625)"/>
       </defs>
       <use xlink:href="#Arial-BoldMT-33"/>
      </g>
     </g>
    </g>
    <g id="xtick_6">
     <g id="line2d_6">
      <g>
       <use xlink:href="#mb311c490f7" x="643.24998" y="198.907885" style="stroke: #000000; stroke-width: 2"/>
      </g>
     </g>
     <g id="text_6">
      <!-- 4 -->
      <g transform="translate(638.245136 224.791947) scale(0.18 -0.18)">
       <defs>
        <path id="Arial-BoldMT-34" d="M 1994 0 
L 1994 922 
L 119 922 
L 119 1691 
L 2106 4600 
L 2844 4600 
L 2844 1694 
L 3413 1694 
L 3413 922 
L 2844 922 
L 2844 0 
L 1994 0 
z
M 1994 1694 
L 1994 3259 
L 941 1694 
L 1994 1694 
z
" transform="scale(0.015625)"/>
       </defs>
       <use xlink:href="#Arial-BoldMT-34"/>
      </g>
     </g>
    </g>
    <g id="xtick_7">
     <g id="line2d_7">
      <g>
       <use xlink:href="#mb311c490f7" x="544.75002" y="198.907885" style="stroke: #000000; stroke-width: 2"/>
      </g>
     </g>
     <g id="text_7">
      <!-- 5 -->
      <g transform="translate(539.745176 224.791947) scale(0.18 -0.18)">
       <defs>
        <path id="Arial-BoldMT-35" d="M 284 1178 
L 1159 1269 
Q 1197 972 1381 798 
Q 1566 625 1806 625 
Q 2081 625 2272 848 
Q 2463 1072 2463 1522 
Q 2463 1944 2273 2155 
Q 2084 2366 1781 2366 
Q 1403 2366 1103 2031 
L 391 2134 
L 841 4519 
L 3163 4519 
L 3163 3697 
L 1506 3697 
L 1369 2919 
Q 1663 3066 1969 3066 
Q 2553 3066 2959 2641 
Q 3366 2216 3366 1538 
Q 3366 972 3038 528 
Q 2591 -78 1797 -78 
Q 1163 -78 763 262 
Q 363 603 284 1178 
z
" transform="scale(0.015625)"/>
       </defs>
       <use xlink:href="#Arial-BoldMT-35"/>
      </g>
     </g>
    </g>
    <g id="xtick_8">
     <g id="line2d_8">
      <g>
       <use xlink:href="#mb311c490f7" x="446.25006" y="198.907885" style="stroke: #000000; stroke-width: 2"/>
      </g>
     </g>
     <g id="text_8">
      <!-- 6 -->
      <g transform="translate(441.245216 224.791947) scale(0.18 -0.18)">
       <defs>
        <path id="Arial-BoldMT-36" d="M 3247 3459 
L 2397 3366 
Q 2366 3628 2234 3753 
Q 2103 3878 1894 3878 
Q 1616 3878 1423 3628 
Q 1231 3378 1181 2588 
Q 1509 2975 1997 2975 
Q 2547 2975 2939 2556 
Q 3331 2138 3331 1475 
Q 3331 772 2918 347 
Q 2506 -78 1859 -78 
Q 1166 -78 719 461 
Q 272 1000 272 2228 
Q 272 3488 737 4044 
Q 1203 4600 1947 4600 
Q 2469 4600 2811 4308 
Q 3153 4016 3247 3459 
z
M 1256 1544 
Q 1256 1116 1453 883 
Q 1650 650 1903 650 
Q 2147 650 2309 840 
Q 2472 1031 2472 1466 
Q 2472 1913 2297 2120 
Q 2122 2328 1859 2328 
Q 1606 2328 1431 2129 
Q 1256 1931 1256 1544 
z
" transform="scale(0.015625)"/>
       </defs>
       <use xlink:href="#Arial-BoldMT-36"/>
      </g>
     </g>
    </g>
    <g id="xtick_9">
     <g id="line2d_9">
      <g>
       <use xlink:href="#mb311c490f7" x="347.7501" y="198.907885" style="stroke: #000000; stroke-width: 2"/>
      </g>
     </g>
     <g id="text_9">
      <!-- 7 -->
      <g transform="translate(342.745256 224.791947) scale(0.18 -0.18)">
       <defs>
        <path id="Arial-BoldMT-37" d="M 272 3703 
L 272 4519 
L 3275 4519 
L 3275 3881 
Q 2903 3516 2518 2831 
Q 2134 2147 1932 1376 
Q 1731 606 1734 0 
L 888 0 
Q 909 950 1279 1937 
Q 1650 2925 2269 3703 
L 272 3703 
z
" transform="scale(0.015625)"/>
       </defs>
       <use xlink:href="#Arial-BoldMT-37"/>
      </g>
     </g>
    </g>
    <g id="xtick_10">
     <g id="line2d_10">
      <g>
       <use xlink:href="#mb311c490f7" x="249.25014" y="198.907885" style="stroke: #000000; stroke-width: 2"/>
      </g>
     </g>
     <g id="text_10">
      <!-- 8 -->
      <g transform="translate(244.245296 224.791947) scale(0.18 -0.18)">
       <defs>
        <path id="Arial-BoldMT-38" d="M 1025 2472 
Q 684 2616 529 2867 
Q 375 3119 375 3419 
Q 375 3931 733 4265 
Q 1091 4600 1750 4600 
Q 2403 4600 2764 4265 
Q 3125 3931 3125 3419 
Q 3125 3100 2959 2851 
Q 2794 2603 2494 2472 
Q 2875 2319 3073 2025 
Q 3272 1731 3272 1347 
Q 3272 713 2867 316 
Q 2463 -81 1791 -81 
Q 1166 -81 750 247 
Q 259 634 259 1309 
Q 259 1681 443 1992 
Q 628 2303 1025 2472 
z
M 1206 3356 
Q 1206 3094 1354 2947 
Q 1503 2800 1750 2800 
Q 2000 2800 2150 2948 
Q 2300 3097 2300 3359 
Q 2300 3606 2151 3754 
Q 2003 3903 1759 3903 
Q 1506 3903 1356 3753 
Q 1206 3603 1206 3356 
z
M 1125 1394 
Q 1125 1031 1311 828 
Q 1497 625 1775 625 
Q 2047 625 2225 820 
Q 2403 1016 2403 1384 
Q 2403 1706 2222 1901 
Q 2041 2097 1763 2097 
Q 1441 2097 1283 1875 
Q 1125 1653 1125 1394 
z
" transform="scale(0.015625)"/>
       </defs>
       <use xlink:href="#Arial-BoldMT-38"/>
      </g>
     </g>
    </g>
    <g id="xtick_11">
     <g id="line2d_11">
      <g>
       <use xlink:href="#mb311c490f7" x="150.75018" y="198.907885" style="stroke: #000000; stroke-width: 2"/>
      </g>
     </g>
     <g id="text_11">
      <!-- 9 -->
      <g transform="translate(145.745336 224.791947) scale(0.18 -0.18)">
       <defs>
        <path id="Arial-BoldMT-39" d="M 291 1059 
L 1141 1153 
Q 1172 894 1303 769 
Q 1434 644 1650 644 
Q 1922 644 2112 894 
Q 2303 1144 2356 1931 
Q 2025 1547 1528 1547 
Q 988 1547 595 1964 
Q 203 2381 203 3050 
Q 203 3747 617 4173 
Q 1031 4600 1672 4600 
Q 2369 4600 2816 4061 
Q 3263 3522 3263 2288 
Q 3263 1031 2797 475 
Q 2331 -81 1584 -81 
Q 1047 -81 715 205 
Q 384 491 291 1059 
z
M 2278 2978 
Q 2278 3403 2083 3637 
Q 1888 3872 1631 3872 
Q 1388 3872 1227 3680 
Q 1066 3488 1066 3050 
Q 1066 2606 1241 2398 
Q 1416 2191 1678 2191 
Q 1931 2191 2104 2391 
Q 2278 2591 2278 2978 
z
" transform="scale(0.015625)"/>
       </defs>
       <use xlink:href="#Arial-BoldMT-39"/>
      </g>
     </g>
    </g>
    <g id="xtick_12">
     <g id="line2d_12">
      <g>
       <use xlink:href="#mb311c490f7" x="52.25022" y="198.907885" style="stroke: #000000; stroke-width: 2"/>
      </g>
     </g>
     <g id="text_12">
      <!-- 10 -->
      <g transform="translate(42.240533 224.791947) scale(0.18 -0.18)">
       <use xlink:href="#Arial-BoldMT-31"/>
       <use xlink:href="#Arial-BoldMT-30" x="55.615234"/>
      </g>
     </g>
    </g>
    <g id="text_13">
     <!-- Chemical Shift / ppm -->
     <g transform="translate(504.992813 245.447573) scale(0.18 -0.18)">
      <defs>
       <path id="Arial-BoldMT-43" d="M 3397 1684 
L 4294 1400 
Q 4088 650 3608 286 
Q 3128 -78 2391 -78 
Q 1478 -78 890 545 
Q 303 1169 303 2250 
Q 303 3394 893 4026 
Q 1484 4659 2447 4659 
Q 3288 4659 3813 4163 
Q 4125 3869 4281 3319 
L 3366 3100 
Q 3284 3456 3026 3662 
Q 2769 3869 2400 3869 
Q 1891 3869 1573 3503 
Q 1256 3138 1256 2319 
Q 1256 1450 1568 1081 
Q 1881 713 2381 713 
Q 2750 713 3015 947 
Q 3281 1181 3397 1684 
z
" transform="scale(0.015625)"/>
       <path id="Arial-BoldMT-68" d="M 1334 4581 
L 1334 2897 
Q 1759 3394 2350 3394 
Q 2653 3394 2897 3281 
Q 3141 3169 3264 2994 
Q 3388 2819 3433 2606 
Q 3478 2394 3478 1947 
L 3478 0 
L 2600 0 
L 2600 1753 
Q 2600 2275 2550 2415 
Q 2500 2556 2373 2639 
Q 2247 2722 2056 2722 
Q 1838 2722 1666 2615 
Q 1494 2509 1414 2295 
Q 1334 2081 1334 1663 
L 1334 0 
L 456 0 
L 456 4581 
L 1334 4581 
z
" transform="scale(0.015625)"/>
       <path id="Arial-BoldMT-65" d="M 2381 1056 
L 3256 909 
Q 3088 428 2723 176 
Q 2359 -75 1813 -75 
Q 947 -75 531 491 
Q 203 944 203 1634 
Q 203 2459 634 2926 
Q 1066 3394 1725 3394 
Q 2466 3394 2894 2905 
Q 3322 2416 3303 1406 
L 1103 1406 
Q 1113 1016 1316 798 
Q 1519 581 1822 581 
Q 2028 581 2168 693 
Q 2309 806 2381 1056 
z
M 2431 1944 
Q 2422 2325 2234 2523 
Q 2047 2722 1778 2722 
Q 1491 2722 1303 2513 
Q 1116 2303 1119 1944 
L 2431 1944 
z
" transform="scale(0.015625)"/>
       <path id="Arial-BoldMT-6d" d="M 394 3319 
L 1203 3319 
L 1203 2866 
Q 1638 3394 2238 3394 
Q 2556 3394 2790 3262 
Q 3025 3131 3175 2866 
Q 3394 3131 3647 3262 
Q 3900 3394 4188 3394 
Q 4553 3394 4806 3245 
Q 5059 3097 5184 2809 
Q 5275 2597 5275 2122 
L 5275 0 
L 4397 0 
L 4397 1897 
Q 4397 2391 4306 2534 
Q 4184 2722 3931 2722 
Q 3747 2722 3584 2609 
Q 3422 2497 3350 2280 
Q 3278 2063 3278 1594 
L 3278 0 
L 2400 0 
L 2400 1819 
Q 2400 2303 2353 2443 
Q 2306 2584 2207 2653 
Q 2109 2722 1941 2722 
Q 1738 2722 1575 2612 
Q 1413 2503 1342 2297 
Q 1272 2091 1272 1613 
L 1272 0 
L 394 0 
L 394 3319 
z
" transform="scale(0.015625)"/>
       <path id="Arial-BoldMT-69" d="M 459 3769 
L 459 4581 
L 1338 4581 
L 1338 3769 
L 459 3769 
z
M 459 0 
L 459 3319 
L 1338 3319 
L 1338 0 
L 459 0 
z
" transform="scale(0.015625)"/>
       <path id="Arial-BoldMT-63" d="M 3353 2338 
L 2488 2181 
Q 2444 2441 2289 2572 
Q 2134 2703 1888 2703 
Q 1559 2703 1364 2476 
Q 1169 2250 1169 1719 
Q 1169 1128 1367 884 
Q 1566 641 1900 641 
Q 2150 641 2309 783 
Q 2469 925 2534 1272 
L 3397 1125 
Q 3263 531 2881 228 
Q 2500 -75 1859 -75 
Q 1131 -75 698 384 
Q 266 844 266 1656 
Q 266 2478 700 2936 
Q 1134 3394 1875 3394 
Q 2481 3394 2839 3133 
Q 3197 2872 3353 2338 
z
" transform="scale(0.015625)"/>
       <path id="Arial-BoldMT-61" d="M 1116 2306 
L 319 2450 
Q 453 2931 781 3162 
Q 1109 3394 1756 3394 
Q 2344 3394 2631 3255 
Q 2919 3116 3036 2902 
Q 3153 2688 3153 2116 
L 3144 1091 
Q 3144 653 3186 445 
Q 3228 238 3344 0 
L 2475 0 
Q 2441 88 2391 259 
Q 2369 338 2359 363 
Q 2134 144 1878 34 
Q 1622 -75 1331 -75 
Q 819 -75 523 203 
Q 228 481 228 906 
Q 228 1188 362 1408 
Q 497 1628 739 1745 
Q 981 1863 1438 1950 
Q 2053 2066 2291 2166 
L 2291 2253 
Q 2291 2506 2166 2614 
Q 2041 2722 1694 2722 
Q 1459 2722 1328 2630 
Q 1197 2538 1116 2306 
z
M 2291 1594 
Q 2122 1538 1756 1459 
Q 1391 1381 1278 1306 
Q 1106 1184 1106 997 
Q 1106 813 1243 678 
Q 1381 544 1594 544 
Q 1831 544 2047 700 
Q 2206 819 2256 991 
Q 2291 1103 2291 1419 
L 2291 1594 
z
" transform="scale(0.015625)"/>
       <path id="Arial-BoldMT-6c" d="M 459 0 
L 459 4581 
L 1338 4581 
L 1338 0 
L 459 0 
z
" transform="scale(0.015625)"/>
       <path id="Arial-BoldMT-20" transform="scale(0.015625)"/>
       <path id="Arial-BoldMT-53" d="M 231 1491 
L 1131 1578 
Q 1213 1125 1461 912 
Q 1709 700 2131 700 
Q 2578 700 2804 889 
Q 3031 1078 3031 1331 
Q 3031 1494 2936 1608 
Q 2841 1722 2603 1806 
Q 2441 1863 1863 2006 
Q 1119 2191 819 2459 
Q 397 2838 397 3381 
Q 397 3731 595 4036 
Q 794 4341 1167 4500 
Q 1541 4659 2069 4659 
Q 2931 4659 3367 4281 
Q 3803 3903 3825 3272 
L 2900 3231 
Q 2841 3584 2645 3739 
Q 2450 3894 2059 3894 
Q 1656 3894 1428 3728 
Q 1281 3622 1281 3444 
Q 1281 3281 1419 3166 
Q 1594 3019 2269 2859 
Q 2944 2700 3267 2529 
Q 3591 2359 3773 2064 
Q 3956 1769 3956 1334 
Q 3956 941 3737 597 
Q 3519 253 3119 86 
Q 2719 -81 2122 -81 
Q 1253 -81 787 320 
Q 322 722 231 1491 
z
" transform="scale(0.015625)"/>
       <path id="Arial-BoldMT-66" d="M 75 3319 
L 563 3319 
L 563 3569 
Q 563 3988 652 4194 
Q 741 4400 980 4529 
Q 1219 4659 1584 4659 
Q 1959 4659 2319 4547 
L 2200 3934 
Q 1991 3984 1797 3984 
Q 1606 3984 1523 3895 
Q 1441 3806 1441 3553 
L 1441 3319 
L 2097 3319 
L 2097 2628 
L 1441 2628 
L 1441 0 
L 563 0 
L 563 2628 
L 75 2628 
L 75 3319 
z
" transform="scale(0.015625)"/>
       <path id="Arial-BoldMT-74" d="M 1981 3319 
L 1981 2619 
L 1381 2619 
L 1381 1281 
Q 1381 875 1398 808 
Q 1416 741 1477 697 
Q 1538 653 1625 653 
Q 1747 653 1978 738 
L 2053 56 
Q 1747 -75 1359 -75 
Q 1122 -75 931 4 
Q 741 84 652 211 
Q 563 338 528 553 
Q 500 706 500 1172 
L 500 2619 
L 97 2619 
L 97 3319 
L 500 3319 
L 500 3978 
L 1381 4491 
L 1381 3319 
L 1981 3319 
z
" transform="scale(0.015625)"/>
       <path id="Arial-BoldMT-2f" d="M -9 -78 
L 1125 4659 
L 1784 4659 
L 638 -78 
L -9 -78 
z
" transform="scale(0.015625)"/>
       <path id="Arial-BoldMT-70" d="M 434 3319 
L 1253 3319 
L 1253 2831 
Q 1413 3081 1684 3237 
Q 1956 3394 2288 3394 
Q 2866 3394 3269 2941 
Q 3672 2488 3672 1678 
Q 3672 847 3265 386 
Q 2859 -75 2281 -75 
Q 2006 -75 1782 34 
Q 1559 144 1313 409 
L 1313 -1263 
L 434 -1263 
L 434 3319 
z
M 1303 1716 
Q 1303 1156 1525 889 
Q 1747 622 2066 622 
Q 2372 622 2575 867 
Q 2778 1113 2778 1672 
Q 2778 2194 2568 2447 
Q 2359 2700 2050 2700 
Q 1728 2700 1515 2451 
Q 1303 2203 1303 1716 
z
" transform="scale(0.015625)"/>
      </defs>
      <use xlink:href="#Arial-BoldMT-43"/>
      <use xlink:href="#Arial-BoldMT-68" x="72.216797"/>
      <use xlink:href="#Arial-BoldMT-65" x="133.300781"/>
      <use xlink:href="#Arial-BoldMT-6d" x="188.916016"/>
      <use xlink:href="#Arial-BoldMT-69" x="277.832031"/>
      <use xlink:href="#Arial-BoldMT-63" x="305.615234"/>
      <use xlink:href="#Arial-BoldMT-61" x="361.230469"/>
      <use xlink:href="#Arial-BoldMT-6c" x="416.845703"/>
      <use xlink:href="#Arial-BoldMT-20" x="444.628906"/>
      <use xlink:href="#Arial-BoldMT-53" x="472.412109"/>
      <use xlink:href="#Arial-BoldMT-68" x="539.111328"/>
      <use xlink:href="#Arial-BoldMT-69" x="600.195312"/>
      <use xlink:href="#Arial-BoldMT-66" x="627.978516"/>
      <use xlink:href="#Arial-BoldMT-74" x="661.279297"/>
      <use xlink:href="#Arial-BoldMT-20" x="694.580078"/>
      <use xlink:href="#Arial-BoldMT-2f" x="722.363281"/>
      <use xlink:href="#Arial-BoldMT-20" x="750.146484"/>
      <use xlink:href="#Arial-BoldMT-70" x="777.929688"/>
      <use xlink:href="#Arial-BoldMT-70" x="839.013672"/>
      <use xlink:href="#Arial-BoldMT-6d" x="900.097656"/>
     </g>
    </g>
   </g>
   <g id="matplotlib.axis_2"/>
   <g id="line2d_13">
    <path d="M 3.078224 189.649242 
L 4.3912 190.012534 
L 4.953904 189.731408 
L 6.642017 188.663436 
L 7.017153 188.696174 
L 8.33013 189.162108 
L 9.26797 189.037509 
L 10.018243 188.573149 
L 10.768515 188.039279 
L 11.331219 188.000961 
L 12.081492 187.963041 
L 12.644196 187.731553 
L 13.394468 187.354889 
L 13.769604 187.388291 
L 14.14474 187.592413 
L 14.707445 188.18693 
L 15.457717 189.003247 
L 15.832853 189.125097 
L 16.770694 189.05489 
L 17.708534 188.981152 
L 18.458806 188.849927 
L 19.021511 188.757097 
L 19.584215 188.906797 
L 21.272328 189.618045 
L 22.585304 189.526664 
L 23.898281 188.755315 
L 24.273417 188.873802 
L 24.836121 189.323636 
L 26.149098 190.748032 
L 26.711802 190.86658 
L 27.274506 190.784885 
L 27.649642 190.509721 
L 28.212347 189.720491 
L 28.775051 188.970715 
L 29.150187 188.802902 
L 29.525323 188.915204 
L 30.8383 189.748166 
L 31.963708 189.671254 
L 32.338845 189.274364 
L 33.276685 188.039293 
L 33.651821 187.855055 
L 34.026957 187.966888 
L 34.402093 188.362809 
L 35.527502 189.779529 
L 36.277774 190.287347 
L 36.840478 190.372205 
L 37.215615 190.274606 
L 37.778319 189.846226 
L 38.528591 189.299643 
L 39.091295 189.197367 
L 39.466432 189.298965 
L 40.216704 189.680514 
L 40.779408 189.589722 
L 42.467521 189.164712 
L 42.842657 189.085869 
L 43.217793 189.224036 
L 43.780498 189.832159 
L 44.155634 190.188796 
L 44.53077 190.252009 
L 45.093474 190.295938 
L 45.843746 190.500592 
L 46.781587 190.371508 
L 47.719427 190.205503 
L 48.4697 190.123987 
L 49.032404 190.065779 
L 49.782676 190.301104 
L 50.34538 190.486319 
L 51.845925 190.443445 
L 52.408629 190.197836 
L 52.971334 189.917043 
L 53.534038 190.054519 
L 54.659446 190.319087 
L 55.222151 190.296836 
L 57.2854 189.455852 
L 57.660536 189.277321 
L 58.22324 189.326378 
L 58.785944 189.449847 
L 59.16108 189.36774 
L 60.661625 188.610604 
L 61.787034 188.697485 
L 62.349738 188.94378 
L 63.287578 189.53261 
L 64.225419 189.590169 
L 64.975691 189.453292 
L 66.476236 188.893439 
L 68.727053 187.032392 
L 69.102189 187.222662 
L 69.852461 188.004462 
L 70.97787 189.307946 
L 71.353006 189.387987 
L 71.91571 189.142014 
L 72.665982 188.812956 
L 73.603823 188.810857 
L 75.85464 188.879833 
L 76.604912 189.31986 
L 77.167616 189.552865 
L 77.542752 189.516237 
L 78.668161 189.036075 
L 79.230865 189.400771 
L 79.793569 189.696011 
L 80.73141 189.895777 
L 81.294114 189.728836 
L 81.66925 189.645463 
L 82.044386 189.812491 
L 82.607091 190.477891 
L 82.982227 190.8963 
L 83.357363 191.021695 
L 83.920067 190.79812 
L 84.482772 190.573431 
L 85.045476 190.62571 
L 85.60818 190.784514 
L 85.983316 190.697531 
L 86.358452 190.360111 
L 87.296293 189.219241 
L 87.671429 189.093203 
L 88.234133 189.254613 
L 88.984406 189.507393 
L 90.48495 189.616312 
L 91.422791 189.731114 
L 92.173063 189.63223 
L 93.110903 189.969567 
L 93.48604 190.027733 
L 94.048744 189.844368 
L 94.42388 189.754285 
L 94.799016 189.873412 
L 95.924425 190.647002 
L 96.487129 190.603879 
L 97.237401 190.248431 
L 97.987674 189.901307 
L 98.925514 189.544191 
L 100.050922 188.908357 
L 100.801195 188.622169 
L 101.363899 188.344817 
L 101.739035 188.403923 
L 102.301739 188.892142 
L 103.427148 190.069896 
L 104.364988 190.560877 
L 104.927693 190.633899 
L 106.428237 190.505772 
L 107.553646 190.597503 
L 108.491486 190.898153 
L 109.429327 190.68141 
L 109.804463 190.925171 
L 110.929871 192.023234 
L 111.305007 192.052743 
L 111.680144 191.864699 
L 112.430416 191.103184 
L 113.930961 189.27811 
L 114.868801 189.066419 
L 115.431505 189.190147 
L 116.369346 189.522443 
L 116.744482 189.327919 
L 117.86989 188.252148 
L 118.432595 188.172476 
L 118.995299 188.279209 
L 119.745571 188.663544 
L 121.058548 189.523871 
L 121.621252 189.615986 
L 122.371524 189.490303 
L 123.309365 189.323792 
L 123.872069 189.506587 
L 124.434773 189.732927 
L 124.997477 189.69581 
L 125.372614 189.467749 
L 126.310454 188.695569 
L 126.68559 188.89927 
L 127.623431 189.89879 
L 127.998567 189.962316 
L 128.561271 189.730337 
L 129.874248 188.794255 
L 130.436952 188.91872 
L 131.374792 189.21717 
L 131.937497 189.12544 
L 133.250473 188.626139 
L 133.625609 188.809988 
L 134.000745 189.318163 
L 134.751018 190.480418 
L 135.126154 190.715034 
L 135.50129 190.600157 
L 136.251562 190.008379 
L 136.626699 190.060749 
L 137.376971 190.377534 
L 137.752107 190.142809 
L 138.314811 189.698667 
L 138.689948 189.713566 
L 139.815356 190.140953 
L 140.37806 189.995983 
L 141.503469 189.632315 
L 142.253741 189.745068 
L 142.628877 189.735071 
L 143.191581 189.451454 
L 144.31699 188.85316 
L 144.692126 188.802489 
L 145.067262 188.980533 
L 145.629967 189.670545 
L 146.380239 190.475225 
L 147.318079 190.980964 
L 147.693215 191.041928 
L 148.068352 190.889576 
L 148.818624 190.441053 
L 149.381328 190.3584 
L 150.319169 190.43272 
L 151.257009 189.978924 
L 152.007281 189.615828 
L 152.569986 189.598344 
L 153.320258 189.735347 
L 154.633235 189.461285 
L 156.133779 189.707769 
L 156.696483 190.180448 
L 157.07162 190.471675 
L 157.446756 190.480675 
L 157.821892 190.131897 
L 159.510005 187.862634 
L 160.260277 187.519065 
L 160.822981 187.307271 
L 161.385686 187.415886 
L 162.323526 187.745436 
L 162.698662 187.662362 
L 163.636503 187.209625 
L 164.011639 187.426441 
L 164.574343 188.19308 
L 165.699751 190.083847 
L 167.012728 191.699058 
L 167.575432 191.78346 
L 168.888409 191.904749 
L 169.451113 191.485899 
L 169.826249 190.95036 
L 170.951658 188.953758 
L 171.889498 188.395552 
L 172.827339 187.980201 
L 174.140315 187.576356 
L 176.015996 186.546317 
L 176.391132 186.756333 
L 177.141405 187.334777 
L 177.516541 187.30777 
L 177.891677 187.006709 
L 178.829517 185.942032 
L 179.204653 185.852211 
L 179.57979 185.971151 
L 180.705198 186.801939 
L 181.080334 186.633869 
L 181.45547 186.09769 
L 182.018175 184.731909 
L 182.768447 182.968392 
L 184.644128 180.100894 
L 185.957104 178.377484 
L 186.519809 176.967174 
L 187.832785 172.577276 
L 188.395489 169.966975 
L 188.958194 166.235486 
L 189.520898 161.170228 
L 190.27117 152.228928 
L 190.833875 143.467757 
L 191.396579 131.079949 
L 191.959283 113.387289 
L 192.521987 88.699343 
L 193.459828 34.087248 
L 194.022532 7.33281 
L 194.2101 3.41253 
L 194.397668 3.00024 
L 194.585236 6.264195 
L 194.960372 22.475331 
L 196.460917 110.590802 
L 197.023621 128.312858 
L 197.586326 138.354621 
L 197.961462 142.033348 
L 198.336598 144.171406 
L 200.399847 152.265211 
L 200.774983 152.592158 
L 201.150119 152.375667 
L 201.525255 151.71383 
L 201.900391 150.524146 
L 203.0258 145.695736 
L 203.213368 145.509701 
L 203.400936 145.642701 
L 203.776072 146.63909 
L 204.713913 149.68951 
L 205.651753 151.943496 
L 205.839321 152.103233 
L 206.026889 152.046476 
L 206.214457 151.749343 
L 206.589594 150.427263 
L 207.152298 146.929316 
L 207.715002 143.400206 
L 208.090138 142.351125 
L 208.277706 142.302936 
L 208.465274 142.508627 
L 208.840411 143.449554 
L 209.215547 144.941481 
L 209.778251 148.502017 
L 210.716091 155.492606 
L 211.091228 157.258435 
L 211.466364 158.085602 
L 211.653932 158.09136 
L 211.8415 157.796167 
L 212.216636 156.296769 
L 212.591772 153.705964 
L 213.342044 146.246041 
L 213.904749 141.019034 
L 214.092317 140.089137 
L 214.279885 139.796324 
L 214.467453 140.166018 
L 214.842589 142.517917 
L 216.71827 158.227777 
L 217.093406 159.962414 
L 217.468542 160.792051 
L 217.65611 160.882798 
L 217.843678 160.777923 
L 218.218815 160.022231 
L 218.593951 158.513075 
L 218.969087 156.048513 
L 219.531791 150.124581 
L 220.094495 141.354051 
L 220.844768 125.544207 
L 221.970176 101.841067 
L 222.345312 96.610452 
L 222.720449 94.251437 
L 222.908017 94.418756 
L 223.095585 95.482452 
L 223.470721 99.823816 
L 224.033425 109.953855 
L 224.783698 128.117795 
L 225.721538 150.047068 
L 226.284242 158.643156 
L 226.846946 163.794198 
L 227.222083 165.714118 
L 227.597219 166.797076 
L 228.159923 167.612327 
L 228.535059 167.778115 
L 228.722627 167.59961 
L 228.910195 167.15284 
L 229.285332 165.369981 
L 229.848036 161.026505 
L 230.973444 152.063306 
L 231.536149 149.467831 
L 231.723717 149.069832 
L 231.911285 148.987182 
L 232.098853 149.262837 
L 232.473989 150.921679 
L 233.036693 155.441127 
L 234.34967 168.971678 
L 235.099942 175.715273 
L 235.662646 179.096424 
L 236.225351 181.186078 
L 236.788055 182.539289 
L 237.538327 183.713868 
L 238.663736 184.979543 
L 239.038872 185.134837 
L 239.976712 185.147143 
L 240.351848 185.409738 
L 241.102121 186.244747 
L 242.415097 187.953126 
L 242.977802 188.199099 
L 243.352938 188.208456 
L 243.915642 187.879989 
L 244.478346 187.631865 
L 245.041051 187.456028 
L 245.416187 187.155964 
L 245.978891 186.358758 
L 247.479436 183.810732 
L 247.854572 183.599173 
L 248.792412 183.718323 
L 249.167548 183.349879 
L 249.730253 182.321435 
L 250.292957 180.805886 
L 250.855661 178.49026 
L 254.607023 160.380449 
L 255.169727 155.282961 
L 255.732431 148.516653 
L 256.295135 139.567625 
L 256.85784 127.707077 
L 257.420544 111.334979 
L 258.170816 81.672517 
L 259.296225 34.726892 
L 259.671361 25.495391 
L 260.046497 21.040043 
L 260.234065 20.630951 
L 260.421633 21.479765 
L 260.609201 23.629593 
L 260.984338 31.799894 
L 261.73461 58.331448 
L 262.297314 76.450817 
L 262.67245 83.916525 
L 263.047586 87.186776 
L 263.235155 87.372017 
L 263.422723 86.742384 
L 263.797859 83.692331 
L 264.923267 72.529724 
L 265.110835 71.864993 
L 265.298403 71.917675 
L 265.485972 72.828072 
L 265.861108 77.483853 
L 266.423812 90.038696 
L 269.049765 155.669492 
L 269.612469 163.321406 
L 270.175174 167.921852 
L 270.925446 171.944445 
L 271.675718 174.680212 
L 272.988695 178.401699 
L 275.802216 185.761246 
L 276.740057 187.486528 
L 277.865465 189.146656 
L 278.240601 189.290005 
L 278.803305 189.121495 
L 279.741146 188.656544 
L 280.30385 188.776224 
L 281.616827 189.241166 
L 282.179531 189.693863 
L 283.117371 190.615821 
L 283.867644 190.971014 
L 284.430348 190.971222 
L 284.993052 190.618336 
L 285.555756 190.278562 
L 285.930893 190.256843 
L 286.306029 190.425242 
L 286.868733 191.035577 
L 287.619005 192.050614 
L 288.18171 192.375874 
L 288.744414 192.413728 
L 289.11955 192.195362 
L 290.05739 191.286506 
L 290.432527 190.704628 
L 291.557935 188.591974 
L 292.120639 188.148596 
L 292.495775 188.023288 
L 292.870912 188.08615 
L 293.433616 188.433787 
L 295.121729 189.662273 
L 296.997409 190.031878 
L 297.93525 189.389426 
L 298.497954 189.449409 
L 298.87309 189.468756 
L 299.248226 189.262155 
L 300.186067 188.381464 
L 300.561203 188.3182 
L 300.936339 188.497646 
L 301.499043 189.161113 
L 302.81202 191.244052 
L 303.187156 191.290566 
L 305.437973 190.440304 
L 306.188246 189.630623 
L 307.126086 188.546372 
L 307.68879 188.189655 
L 308.063926 188.100167 
L 309.001767 188.189199 
L 309.376903 187.734914 
L 310.314743 186.199448 
L 310.68988 186.138652 
L 311.252584 186.61347 
L 311.815288 187.033817 
L 312.377992 187.162473 
L 312.940697 186.987927 
L 313.503401 186.795629 
L 313.878537 186.905889 
L 314.816377 187.495057 
L 315.191514 187.393171 
L 315.56665 187.003856 
L 316.129354 186.335306 
L 316.50449 186.171283 
L 316.879626 186.234483 
L 317.442331 186.705009 
L 318.005035 187.156818 
L 318.567739 187.298832 
L 319.318011 187.26219 
L 319.880716 187.006038 
L 320.630988 186.546251 
L 321.006124 186.613142 
L 321.568828 186.779029 
L 322.131533 186.560547 
L 322.694237 186.411419 
L 323.069373 186.516141 
L 324.007213 187.059474 
L 324.38235 186.918949 
L 324.945054 186.319972 
L 326.25803 184.751875 
L 327.008303 184.273457 
L 327.758575 184.143546 
L 328.321279 184.165256 
L 328.883984 184.50062 
L 329.634256 184.957176 
L 330.19696 184.921255 
L 331.885073 184.294673 
L 332.447777 183.773539 
L 333.198049 182.751009 
L 334.13589 181.297274 
L 334.698594 180.966571 
L 335.261298 180.594265 
L 336.011571 179.965869 
L 336.761843 179.556845 
L 337.136979 178.954117 
L 338.449956 176.258231 
L 339.762932 174.305297 
L 340.138069 173.214899 
L 340.888341 170.08094 
L 341.638613 166.3271 
L 342.201317 162.456575 
L 342.764022 157.00505 
L 343.701862 144.944017 
L 344.452134 133.038009 
L 345.202407 116.925996 
L 346.89052 73.606067 
L 347.078088 72.244902 
L 347.265656 72.183231 
L 347.453224 73.340761 
L 347.82836 78.607343 
L 348.578632 95.127333 
L 349.516473 114.646972 
L 350.454313 130.092857 
L 351.017017 136.845987 
L 351.392154 139.434597 
L 351.579722 140.04381 
L 351.76729 140.200366 
L 351.954858 139.929234 
L 352.329994 138.257701 
L 352.70513 135.297527 
L 353.267834 128.4675 
L 354.018107 115.074215 
L 354.955947 93.717401 
L 357.019196 43.823469 
L 357.206764 43.621512 
L 357.394332 45.192505 
L 357.769468 53.630654 
L 358.332173 75.476443 
L 359.270013 112.665124 
L 360.020285 133.167157 
L 360.770558 147.70589 
L 361.52083 158.198013 
L 362.271102 165.959403 
L 363.021375 171.332954 
L 364.146783 177.300503 
L 364.897055 180.548982 
L 365.45976 182.156711 
L 365.834896 182.726895 
L 367.335441 184.312358 
L 367.898145 184.926367 
L 368.460849 185.217849 
L 369.773826 185.637723 
L 370.148962 185.899297 
L 370.524098 185.873002 
L 371.649506 185.135215 
L 372.024643 185.154371 
L 372.399779 185.479756 
L 373.337619 186.496073 
L 373.900323 186.726337 
L 374.463028 186.559445 
L 375.025732 186.508798 
L 376.338709 186.697234 
L 376.901413 186.861726 
L 377.276549 186.804386 
L 377.839253 186.416323 
L 378.964662 185.421607 
L 380.465206 184.654158 
L 381.027911 184.957828 
L 381.778183 185.296876 
L 382.340887 185.578737 
L 383.09116 186.112482 
L 383.466296 186.139028 
L 384.96684 185.583145 
L 386.092249 184.860657 
L 386.654953 184.218038 
L 387.780362 182.511469 
L 388.155498 182.301725 
L 388.530634 182.364863 
L 389.280906 182.836493 
L 390.218747 183.544392 
L 390.593883 183.652491 
L 390.969019 183.535987 
L 391.531723 183.220757 
L 391.906859 183.3096 
L 392.469564 183.924121 
L 392.8447 184.309782 
L 393.219836 184.388885 
L 393.594972 184.162673 
L 394.157676 183.421034 
L 395.095517 182.055705 
L 395.470653 181.734252 
L 395.845789 181.642977 
L 396.408493 181.833907 
L 397.346334 182.380277 
L 397.72147 182.257201 
L 398.471742 181.877457 
L 399.034447 181.910249 
L 399.409583 182.163601 
L 400.159855 183.056738 
L 400.910127 183.823473 
L 401.472832 184.101513 
L 402.59824 184.432757 
L 403.911217 185.671978 
L 405.224193 185.729841 
L 405.599329 185.492088 
L 406.162034 184.715419 
L 407.099874 183.184895 
L 407.47501 182.967853 
L 407.850146 183.052956 
L 409.163123 183.658347 
L 409.538259 183.558615 
L 410.100963 183.026165 
L 410.663668 182.616886 
L 411.41394 182.338695 
L 412.539349 181.291006 
L 413.102053 180.416084 
L 414.039893 178.437424 
L 414.977734 175.705938 
L 416.478278 170.897506 
L 417.228551 167.361252 
L 417.791255 163.654921 
L 418.353959 158.138228 
L 419.104231 147.57423 
L 420.042072 129.813419 
L 420.792344 111.778272 
L 421.355048 93.61521 
L 422.855593 36.782201 
L 423.043161 34.775722 
L 423.230729 35.012603 
L 423.418297 37.376711 
L 423.793434 47.06055 
L 425.481546 101.615665 
L 426.419387 124.214191 
L 426.982091 134.19063 
L 427.544795 140.233512 
L 427.919931 142.250768 
L 428.295067 143.016837 
L 428.482636 142.996666 
L 428.670204 142.707549 
L 429.04534 141.216276 
L 429.420476 138.262047 
L 429.98318 130.938547 
L 430.733453 117.445468 
L 432.046429 89.039187 
L 432.796701 74.579517 
L 432.98427 72.879665 
L 433.171838 72.590326 
L 433.359406 73.935092 
L 433.734542 81.595412 
L 434.484814 108.636093 
L 435.235087 133.281956 
L 435.797791 145.899213 
L 436.548063 157.654313 
L 437.298335 165.784441 
L 438.423744 175.016788 
L 439.174016 179.766977 
L 439.736721 182.205494 
L 440.299425 183.505046 
L 440.862129 184.218534 
L 441.987538 185.139819 
L 442.550242 185.189852 
L 443.112946 185.122212 
L 443.863218 185.396635 
L 445.363763 186.05443 
L 446.301603 186.717954 
L 447.427012 187.536176 
L 447.989716 187.66357 
L 448.55242 187.438272 
L 449.677829 186.716115 
L 450.052965 186.962161 
L 450.615669 187.995916 
L 451.178374 189.048223 
L 451.55351 189.292929 
L 451.928646 189.134099 
L 452.49135 188.781405 
L 452.866486 188.895765 
L 453.429191 189.515516 
L 454.179463 190.385539 
L 454.554599 190.463569 
L 454.929735 190.22605 
L 455.49244 189.825374 
L 456.055144 189.784775 
L 456.992984 189.943752 
L 458.493529 190.326041 
L 459.618937 189.893057 
L 459.994074 190.084742 
L 460.931914 190.713867 
L 461.494618 190.744974 
L 462.620027 190.630888 
L 463.370299 190.400261 
L 464.495707 190.419255 
L 465.433548 190.002064 
L 465.996252 190.158873 
L 466.746524 190.683138 
L 467.309229 191.033301 
L 467.684365 190.947144 
L 468.247069 190.261439 
L 469.372478 188.767617 
L 469.747614 188.529391 
L 470.12275 188.686087 
L 470.685454 189.454358 
L 471.623295 190.806637 
L 472.185999 191.221978 
L 472.748703 191.285119 
L 473.686544 191.1684 
L 474.06168 190.914403 
L 474.99952 190.036862 
L 475.749792 189.796751 
L 476.687633 189.58591 
L 477.625473 189.188852 
L 478.93845 188.652659 
L 479.501154 188.345249 
L 479.87629 188.444141 
L 481.189267 189.306613 
L 482.87738 189.46752 
L 483.440084 189.197287 
L 484.565492 188.431029 
L 484.940629 188.553949 
L 485.690901 189.063294 
L 486.441173 188.969245 
L 487.003877 188.819297 
L 487.566582 188.256825 
L 488.129286 187.675285 
L 488.504422 187.619512 
L 488.879558 187.978935 
L 490.004967 189.758648 
L 490.380103 189.860137 
L 491.130375 189.829912 
L 492.068216 190.155661 
L 492.443352 189.966963 
L 493.381192 189.227846 
L 493.756328 189.156204 
L 495.069305 189.266943 
L 495.632009 188.679769 
L 496.382282 187.923194 
L 496.944986 187.668609 
L 497.50769 187.806123 
L 498.257962 187.937578 
L 498.633099 188.05405 
L 499.195803 188.506024 
L 499.758507 188.903436 
L 501.634188 189.631842 
L 502.009324 189.490454 
L 502.759596 188.872318 
L 503.885005 187.886389 
L 504.260141 187.875574 
L 504.635277 188.148364 
L 505.948254 189.515795 
L 507.823935 190.469938 
L 508.199071 190.410317 
L 508.949343 190.157166 
L 510.449888 190.253049 
L 511.575296 190.523538 
L 511.950432 190.765138 
L 512.700705 191.437147 
L 513.075841 191.459731 
L 514.013681 191.315191 
L 514.763954 191.596827 
L 515.13909 191.472049 
L 515.701794 190.926303 
L 516.452066 190.141161 
L 516.827203 189.974107 
L 517.202339 189.99634 
L 517.952611 190.129352 
L 518.702883 190.023008 
L 519.265588 190.335499 
L 519.640724 190.516592 
L 520.01586 190.48954 
L 520.766132 190.113817 
L 521.891541 189.47298 
L 523.016949 189.290324 
L 525.642903 188.954148 
L 526.580743 188.732052 
L 527.143447 189.010215 
L 528.081288 189.610005 
L 528.643992 189.652976 
L 529.206696 189.478954 
L 529.7694 189.243602 
L 530.144537 189.390587 
L 530.894809 190.017197 
L 531.269945 189.867208 
L 532.395353 189.043548 
L 535.959147 187.082517 
L 536.709419 186.63955 
L 537.084556 186.756002 
L 537.459692 187.147797 
L 538.5851 188.587776 
L 539.898077 190.045271 
L 540.273213 190.124769 
L 540.648349 189.89647 
L 541.211053 189.035564 
L 541.961326 187.857387 
L 542.336462 187.716123 
L 542.711598 188.015851 
L 544.024575 189.955694 
L 544.399711 189.968584 
L 544.962415 189.769101 
L 545.525119 189.384459 
L 546.275392 188.78066 
L 546.650528 188.717602 
L 547.213232 188.887729 
L 547.775936 189.379148 
L 548.338641 190.016209 
L 548.713777 190.158918 
L 549.088913 190.012744 
L 549.651617 189.390998 
L 550.777026 187.88048 
L 551.152162 187.67719 
L 551.527298 187.708711 
L 551.902434 187.934621 
L 552.652706 188.845543 
L 553.215411 189.286836 
L 553.965683 189.372242 
L 554.528387 189.506419 
L 555.091092 189.892456 
L 556.2165 190.862307 
L 556.591636 190.917748 
L 556.966772 190.787966 
L 559.405157 189.207499 
L 559.967862 189.360534 
L 560.530566 189.70826 
L 561.468406 190.327336 
L 561.843543 190.360969 
L 562.406247 190.107225 
L 563.719223 189.348192 
L 565.407336 188.885588 
L 565.782472 189.122927 
L 566.532745 189.831405 
L 567.658153 190.368563 
L 568.408425 191.06264 
L 568.97113 191.231344 
L 569.90897 191.357188 
L 570.84681 191.642379 
L 571.972219 191.480406 
L 572.534923 191.245652 
L 573.8479 190.183861 
L 574.223036 190.280188 
L 574.78574 190.7742 
L 575.723581 191.90473 
L 576.098717 192.343838 
L 576.473853 192.428053 
L 576.848989 192.082876 
L 577.78683 190.93423 
L 578.349534 190.21273 
L 579.099806 189.067666 
L 579.474942 188.895871 
L 581.163055 189.014967 
L 583.038736 188.73775 
L 583.60144 189.084543 
L 584.914417 190.079467 
L 585.289553 190.155557 
L 585.852257 189.931247 
L 586.414961 189.721685 
L 586.977666 189.701688 
L 587.727938 189.837477 
L 588.47821 189.540686 
L 588.853346 189.816918 
L 589.791187 191.107959 
L 590.166323 191.066488 
L 590.916595 190.504557 
L 591.666868 189.878945 
L 592.042004 189.864419 
L 592.604708 189.903935 
L 594.292821 189.510841 
L 595.418229 188.715811 
L 595.793366 188.801848 
L 596.168502 189.170455 
L 597.481478 190.874015 
L 597.856614 190.690176 
L 599.357159 189.177134 
L 599.919863 189.266705 
L 600.295 189.469725 
L 600.670136 189.924069 
L 601.983112 192.073612 
L 602.358248 192.140531 
L 602.920953 191.849042 
L 603.858793 191.150169 
L 604.609065 190.267568 
L 606.10961 188.136266 
L 606.672314 188.095117 
L 607.985291 188.387632 
L 609.298267 188.826196 
L 609.860972 188.561323 
L 612.486925 186.8175 
L 612.862061 186.880099 
L 613.237197 187.317755 
L 614.737742 189.771507 
L 615.112878 189.799828 
L 615.86315 189.38448 
L 617.551263 188.297698 
L 618.113967 188.341019 
L 618.86424 188.634791 
L 619.239376 188.954984 
L 619.80208 189.557608 
L 620.177216 189.679155 
L 620.927489 189.56113 
L 621.302625 189.252893 
L 622.803169 187.535954 
L 623.553442 186.984873 
L 624.116146 186.774025 
L 624.491282 186.844121 
L 625.053986 187.307241 
L 625.616691 187.78835 
L 626.179395 187.951904 
L 626.742099 187.75432 
L 628.430212 186.833654 
L 629.180484 186.820939 
L 629.55562 186.586828 
L 630.118325 185.796997 
L 630.681029 185.073486 
L 631.243733 184.759218 
L 631.806437 184.480651 
L 632.369142 183.728243 
L 634.995095 178.971467 
L 635.745367 176.883191 
L 636.308071 174.611314 
L 637.058344 170.446678 
L 637.621048 166.315298 
L 638.183752 160.533985 
L 638.934025 150.391288 
L 641.184842 117.442741 
L 641.559978 115.699393 
L 641.747546 115.673388 
L 641.935114 116.233114 
L 642.31025 119.02481 
L 642.872954 126.475558 
L 645.123771 161.416569 
L 645.874044 169.109707 
L 646.624316 174.562163 
L 647.374588 178.294895 
L 648.124861 180.910613 
L 648.687565 182.12317 
L 650.938382 185.457304 
L 651.876222 186.175878 
L 652.251358 186.184571 
L 652.626495 185.879985 
L 653.376767 185.084851 
L 653.751903 185.129146 
L 654.127039 185.572864 
L 654.877312 187.110268 
L 655.440016 187.982697 
L 656.00272 188.23109 
L 656.752992 188.342564 
L 657.128129 188.17166 
L 657.878401 187.674075 
L 658.253537 187.621431 
L 658.628673 187.777205 
L 659.754082 188.701 
L 660.316786 188.654675 
L 661.629763 188.145008 
L 662.192467 187.919235 
L 662.567603 187.954024 
L 663.693012 188.340839 
L 664.443284 188.316983 
L 664.81842 188.546996 
L 665.568692 189.127808 
L 665.943829 189.014871 
L 666.506533 188.787583 
L 666.881669 188.913937 
L 669.69519 190.832602 
L 670.257894 190.659783 
L 671.008167 190.36121 
L 671.570871 190.385622 
L 672.508711 190.480318 
L 672.883848 190.383911 
L 673.258984 190.024034 
L 674.196824 188.713573 
L 674.57196 188.659349 
L 675.884937 188.947663 
L 676.447641 188.527021 
L 677.57305 187.545722 
L 677.948186 187.532803 
L 678.51089 187.833338 
L 679.073594 188.487297 
L 679.823867 189.401132 
L 680.199003 189.58522 
L 680.761707 189.529692 
L 681.699547 189.205547 
L 682.074684 189.404885 
L 682.637388 190.281209 
L 683.012524 190.830909 
L 683.38766 191.00495 
L 683.762796 190.752707 
L 685.075773 189.022736 
L 685.450909 188.917369 
L 686.013613 189.08872 
L 686.576318 189.234279 
L 687.139022 189.11379 
L 688.451998 188.499912 
L 688.827135 188.839303 
L 689.952543 190.353149 
L 690.515247 190.513058 
L 691.640656 190.597784 
L 692.390928 190.168764 
L 692.953632 189.790353 
L 693.328769 189.783835 
L 694.079041 190.150216 
L 694.641745 189.979704 
L 695.016881 189.929082 
L 695.392018 190.09334 
L 695.954722 190.639968 
L 696.517426 191.196078 
L 696.892562 191.206519 
L 697.455266 190.806616 
L 698.017971 190.422763 
L 698.393107 190.354536 
L 699.518515 190.461692 
L 700.268788 190.327934 
L 701.206628 190.297325 
L 701.769332 189.974766 
L 703.269877 188.857667 
L 703.645013 188.910675 
L 705.520694 189.660295 
L 705.89583 189.416922 
L 706.833671 188.503207 
L 707.208807 188.422925 
L 708.896919 188.446069 
L 709.647192 188.235295 
L 710.209896 188.377323 
L 712.273145 189.352827 
L 712.648281 189.236014 
L 713.77369 188.540993 
L 714.336394 188.663977 
L 714.71153 188.954011 
L 715.836939 190.150225 
L 716.212075 190.027444 
L 716.774779 189.304181 
L 717.525051 188.354587 
L 718.087756 188.050141 
L 718.462892 188.099978 
L 719.025596 188.460186 
L 719.5883 189.060037 
L 720.526141 190.128368 
L 721.088845 190.431866 
L 722.58939 190.86637 
L 723.714798 191.032493 
L 725.027775 191.471104 
L 725.965615 191.110719 
L 727.278592 190.332847 
L 728.404 190.270293 
L 729.341841 189.919241 
L 729.716977 189.587299 
L 730.467249 188.500428 
L 731.217521 187.525961 
L 731.592658 187.462618 
L 731.967794 187.770842 
L 733.093202 188.898695 
L 733.655906 189.613413 
L 734.406179 190.730136 
L 734.781315 190.907661 
L 735.344019 190.798668 
L 736.094292 190.407077 
L 736.656996 189.862931 
L 737.782404 188.604096 
L 738.15754 188.379597 
L 738.532677 188.381383 
L 739.095381 188.733232 
L 739.658085 189.112096 
L 740.033221 189.090019 
L 740.595926 188.604748 
L 740.971062 188.351994 
L 741.346198 188.418519 
L 741.908902 188.766402 
L 742.284038 188.654786 
L 742.846743 187.919093 
L 743.409447 187.258921 
L 743.784583 187.079197 
L 744.159719 187.131756 
L 744.722423 187.508465 
L 745.472696 188.269011 
L 746.0354 188.718427 
L 746.410536 188.756294 
L 747.348376 188.694763 
L 747.911081 188.987907 
L 748.473785 189.554309 
L 749.411625 190.652515 
L 749.786762 190.631779 
L 750.724602 190.418166 
L 751.474874 190.233254 
L 751.85001 189.853586 
L 752.787851 188.591643 
L 753.538123 188.124047 
L 753.913259 188.137145 
L 754.475964 188.467962 
L 755.78894 189.284603 
L 756.351644 189.442395 
L 756.726781 189.373516 
L 757.289485 188.953701 
L 757.664621 188.72656 
L 758.227325 188.745143 
L 758.79003 188.717071 
L 759.72787 188.635519 
L 760.478142 188.940745 
L 762.166255 189.745928 
L 762.728959 189.72241 
L 763.479232 189.437507 
L 763.854368 189.179342 
L 764.60464 188.204762 
L 765.354912 187.284235 
L 765.730049 187.098735 
L 766.292753 187.153972 
L 768.731138 188.193039 
L 769.293842 188.642331 
L 769.856546 189.028895 
L 770.231683 188.99796 
L 770.794387 188.620089 
L 771.732227 187.577616 
L 772.857636 186.236464 
L 773.232772 186.160355 
L 774.920885 186.439191 
L 775.671157 186.818244 
L 776.233861 186.81866 
L 777.35927 186.497255 
L 777.734406 186.25552 
L 778.859814 185.207171 
L 779.234951 185.088349 
L 779.610087 185.138453 
L 780.735495 185.540297 
L 781.485768 185.433436 
L 782.048472 185.420104 
L 782.423608 185.650731 
L 783.17388 186.262832 
L 783.549016 186.267991 
L 784.486857 185.910892 
L 784.861993 186.134559 
L 785.799833 186.936488 
L 786.362538 187.091455 
L 786.925242 186.95227 
L 787.675514 186.529558 
L 788.613355 186.075783 
L 789.363627 185.835788 
L 790.113899 185.917244 
L 790.489036 186.152076 
L 791.98958 187.455338 
L 792.364716 187.439147 
L 792.927421 187.078691 
L 793.490125 186.761776 
L 795.178238 186.343013 
L 795.553374 185.984507 
L 796.116078 185.048379 
L 797.241487 182.380731 
L 799.117167 177.286918 
L 799.679872 174.869511 
L 800.80528 169.47778 
L 801.180416 168.693919 
L 801.367984 168.677049 
L 801.555552 168.907247 
L 801.930689 169.946456 
L 803.056097 173.762224 
L 804.74421 177.549527 
L 805.119346 177.855544 
L 805.494482 177.866759 
L 806.244755 177.695311 
L 807.182595 177.997601 
L 808.120435 177.844765 
L 808.495572 177.677042 
L 809.808548 176.767682 
L 811.309093 176.45608 
L 811.684229 175.97982 
L 812.997206 173.788205 
L 813.55991 173.397112 
L 814.122614 173.331755 
L 814.872886 173.417832 
L 815.248022 173.250603 
L 815.623159 172.802848 
L 818.061544 168.391882 
L 819.37452 165.403173 
L 821.250201 159.94227 
L 822.000473 157.065969 
L 822.750746 153.539734 
L 823.31345 149.562288 
L 823.876154 144.07899 
L 824.813995 133.347184 
L 825.001563 132.234508 
L 825.189131 131.859121 
L 825.376699 132.219683 
L 825.751835 134.633661 
L 826.877244 143.995487 
L 827.439948 146.676486 
L 828.19022 149.03656 
L 828.565356 149.702261 
L 828.940493 150.029341 
L 829.315629 150.09315 
L 829.878333 150.084729 
L 830.441037 150.357945 
L 831.19131 150.819653 
L 831.941582 150.969058 
L 832.316718 150.892385 
L 832.691854 150.634337 
L 833.629695 149.742847 
L 834.192399 149.605945 
L 835.692944 149.61706 
L 836.255648 149.437449 
L 836.630784 149.67801 
L 837.00592 150.270438 
L 838.318897 153.055093 
L 838.506465 153.162125 
L 838.694033 153.124736 
L 839.069169 152.640488 
L 839.819441 151.17689 
L 840.007009 151.054691 
L 840.194578 151.095275 
L 840.569714 151.56894 
L 841.132418 152.365915 
L 841.319986 152.364889 
L 841.507554 152.1398 
L 841.88269 150.948213 
L 842.257826 148.8043 
L 842.820531 143.850771 
L 843.383235 136.322998 
L 843.945939 128.354945 
L 844.133507 126.957788 
L 844.321075 126.651891 
L 844.508643 127.440892 
L 844.88378 131.45511 
L 845.82162 143.802225 
L 846.384324 148.078936 
L 846.75946 149.538513 
L 848.635141 154.054151 
L 849.197846 154.789628 
L 849.572982 154.977946 
L 850.135686 155.004582 
L 852.386503 154.627485 
L 852.761639 154.834953 
L 853.324343 155.629277 
L 854.262184 157.154438 
L 854.63732 157.502491 
L 855.200024 157.646786 
L 855.57516 157.813074 
L 855.950296 158.38063 
L 856.513001 160.091245 
L 857.263273 162.479256 
L 858.013545 164.016932 
L 858.57625 164.724332 
L 858.951386 164.935731 
L 859.326522 164.918296 
L 860.076794 164.773233 
L 860.45193 165.104007 
L 861.014635 166.13385 
L 862.327611 168.530892 
L 862.890316 169.146188 
L 863.640588 169.590252 
L 864.203292 170.433152 
L 865.516269 172.85272 
L 866.266541 174.891381 
L 867.39195 176.878497 
L 867.767086 177.426538 
L 868.142222 177.649735 
L 869.26763 177.634519 
L 869.642767 177.777992 
L 870.017903 177.671722 
L 871.143311 176.92036 
L 871.518447 176.938234 
L 871.893584 177.381638 
L 872.831424 179.208787 
L 873.20656 179.406656 
L 873.581696 179.218213 
L 873.956832 178.982795 
L 874.331969 179.056918 
L 875.082241 179.82839 
L 875.832513 180.78514 
L 876.582786 181.837171 
L 876.957922 182.098229 
L 878.08333 182.511386 
L 879.208739 183.51155 
L 880.146579 184.56234 
L 880.896852 185.474155 
L 881.271988 185.532308 
L 881.834692 185.16722 
L 882.209828 184.958244 
L 882.772532 184.957405 
L 883.522805 185.14637 
L 883.897941 185.446546 
L 884.648213 186.461367 
L 885.586054 187.63126 
L 886.148758 187.923088 
L 886.711462 187.843072 
L 888.024439 187.478589 
L 888.962279 187.475422 
L 889.337415 187.138213 
L 891.025528 184.957266 
L 891.400664 184.81177 
L 892.150936 184.867693 
L 892.526073 185.047384 
L 892.901209 185.5732 
L 893.839049 187.284157 
L 894.026617 187.340111 
L 894.401753 187.086991 
L 895.902298 185.189597 
L 896.465002 185.060385 
L 897.027707 185.147978 
L 897.590411 185.549048 
L 898.528251 186.201407 
L 898.903387 186.18515 
L 900.216364 185.325462 
L 900.5915 184.98985 
L 902.092045 183.124943 
L 902.842317 183.140813 
L 903.780158 183.257071 
L 904.342862 183.449151 
L 904.717998 183.347809 
L 905.093134 182.98949 
L 906.030975 181.865475 
L 906.593679 181.571615 
L 907.156383 181.300616 
L 907.531519 180.753196 
L 908.281792 178.935342 
L 912.220721 169.072467 
L 912.970994 165.995223 
L 913.533698 163.045893 
L 914.096402 158.995761 
L 914.846675 151.466227 
L 915.596947 141.686895 
L 916.347219 128.775167 
L 917.097492 111.540339 
L 917.660196 93.758628 
L 918.2229 70.039807 
L 918.785604 38.120914 
L 919.294358 -1 
M 925.804971 -1 
L 926.288328 39.698888 
L 926.851032 73.803585 
L 927.601304 104.746197 
L 928.351576 125.073085 
L 929.101849 139.518041 
L 929.852121 149.903305 
L 930.602393 157.496457 
L 931.352666 162.961437 
L 932.102938 166.910973 
L 933.228347 171.12775 
L 934.166187 174.062652 
L 934.916459 175.758238 
L 936.979708 179.55481 
L 937.917549 181.464999 
L 938.855389 182.942378 
L 939.605661 184.268298 
L 941.106206 186.046101 
L 941.66891 186.311485 
L 942.231615 186.29008 
L 942.606751 186.284556 
L 942.981887 186.519769 
L 943.732159 187.316805 
L 944.107295 187.35734 
L 944.857568 186.996619 
L 945.795408 186.427783 
L 946.170544 186.500843 
L 946.920817 186.731215 
L 947.483521 186.550961 
L 947.858657 186.454002 
L 948.984066 186.436336 
L 949.359202 186.449519 
L 949.734338 186.721586 
L 950.672178 187.608295 
L 951.234883 187.794318 
L 952.360291 187.795956 
L 952.922995 188.295765 
L 954.235972 189.918057 
L 954.611108 189.746602 
L 956.486789 188.133643 
L 956.861925 188.089279 
L 957.612197 188.13252 
L 958.36247 187.948423 
L 959.863014 188.215877 
L 960.425719 188.248352 
L 961.363559 188.394937 
L 962.301399 188.229762 
L 962.676536 188.485642 
L 964.364648 190.105942 
L 965.677625 190.005415 
L 966.990602 189.958892 
L 967.553306 190.048008 
L 968.11601 189.892161 
L 969.991691 189.024549 
L 970.366827 189.067586 
L 970.741963 189.277631 
L 971.304667 189.90447 
L 972.430076 191.476913 
L 972.805212 191.531515 
L 973.180348 191.117452 
L 973.930621 189.817371 
L 974.305757 189.575043 
L 974.868461 189.630902 
L 975.618733 189.766643 
L 975.99387 189.615065 
L 977.119278 188.745153 
L 977.494414 188.779261 
L 978.244687 188.987205 
L 978.619823 188.813814 
L 979.370095 188.277162 
L 980.307935 188.074506 
L 980.683072 188.059664 
L 981.058208 188.287223 
L 981.620912 189.082539 
L 982.746321 191.011426 
L 983.121457 191.072165 
L 983.496593 190.828496 
L 985.74741 188.660113 
L 986.310114 188.402205 
L 986.68525 188.476928 
L 987.623091 189.081882 
L 988.560931 188.818971 
L 988.936067 189.022552 
L 989.498772 189.767627 
L 990.061476 190.511877 
L 990.62418 190.82864 
L 991.749588 191.31355 
L 992.874997 191.945771 
L 993.812837 192.668027 
L 994.750678 192.995804 
L 995.125814 192.821823 
L 995.50095 192.325247 
L 996.438791 190.64638 
L 997.001495 190.231533 
L 997.939335 189.959939 
L 998.877176 189.852038 
L 999.815016 189.298632 
L 1000.752856 188.724863 
L 1001.503129 188.640903 
L 1002.065833 188.763802 
L 1003.191242 189.099471 
L 1003.753946 189.101723 
L 1004.129082 188.87211 
L 1005.066922 188.030981 
L 1005.442059 187.970403 
L 1006.379899 188.185467 
L 1006.942603 188.630412 
L 1007.505307 188.991409 
L 1008.443148 189.024447 
L 1008.818284 188.943373 
L 1009.380988 188.539769 
L 1009.943693 188.105981 
L 1010.318829 188.030816 
L 1010.693965 188.181147 
L 1012.382078 189.410761 
L 1012.944782 189.472216 
L 1013.882622 189.411096 
L 1014.820463 189.603011 
L 1015.570735 189.601598 
L 1016.883712 190.102662 
L 1017.258848 190.531098 
L 1018.00912 191.551691 
L 1018.384256 191.69803 
L 1019.884801 191.659703 
L 1020.635073 190.953215 
L 1021.572914 190.230399 
L 1022.135618 190.131186 
L 1022.698322 190.207185 
L 1024.011299 190.763392 
L 1024.574003 190.9738 
L 1024.949139 190.932781 
L 1025.324275 190.674748 
L 1027.012388 188.888823 
L 1028.137797 187.631728 
L 1028.888069 186.905492 
L 1029.263205 186.818755 
L 1029.638341 186.987192 
L 1031.138886 187.936958 
L 1033.014567 188.624676 
L 1033.764839 189.047849 
L 1034.139975 189.036722 
L 1035.265384 188.649404 
L 1036.203224 189.110902 
L 1036.765928 188.987798 
L 1037.703769 188.80514 
L 1038.078905 188.85263 
L 1038.641609 189.254639 
L 1039.016745 189.459085 
L 1039.391882 189.416067 
L 1040.704858 188.80342 
L 1041.830267 188.674752 
L 1042.580539 188.295453 
L 1042.955675 188.365664 
L 1044.081084 188.996682 
L 1044.831356 189.504805 
L 1047.082173 189.927515 
L 1047.644877 189.685707 
L 1048.582718 188.805221 
L 1049.145422 188.44138 
L 1049.520558 188.450241 
L 1049.895694 188.657052 
L 1051.021103 189.721585 
L 1051.396239 189.581152 
L 1051.958943 189.224643 
L 1052.334079 189.248509 
L 1053.27192 189.638753 
L 1054.397328 189.643969 
L 1055.522737 190.063136 
L 1056.085441 189.823084 
L 1057.210849 189.128791 
L 1057.585986 189.219335 
L 1058.898962 190.254141 
L 1059.274098 190.148861 
L 1060.024371 189.741565 
L 1060.587075 189.809031 
L 1060.962211 190.034641 
L 1061.524915 190.684074 
L 1062.275188 191.547054 
L 1062.650324 191.736164 
L 1063.02546 191.672409 
L 1063.588164 191.272623 
L 1064.901141 190.17108 
L 1066.026549 189.521517 
L 1066.776822 189.32388 
L 1067.151958 189.562685 
L 1067.714662 190.454527 
L 1068.464934 191.681411 
L 1068.840071 191.887345 
L 1069.215207 191.733413 
L 1070.153047 190.882994 
L 1070.528183 190.826197 
L 1070.903319 190.971737 
L 1071.84116 191.547167 
L 1072.216296 191.4453 
L 1074.279545 190.050208 
L 1075.404953 190.157199 
L 1076.530362 189.663956 
L 1077.65577 189.987529 
L 1078.030907 189.807488 
L 1079.156315 188.793836 
L 1079.719019 188.864745 
L 1080.281724 188.929727 
L 1081.5947 188.823447 
L 1082.157404 189.078919 
L 1082.907677 189.459194 
L 1083.282813 189.471611 
L 1083.657949 189.261266 
L 1084.220653 188.791981 
L 1084.59579 188.74087 
L 1086.096334 189.160966 
L 1087.221743 190.196406 
L 1087.596879 190.222148 
L 1087.972015 189.912519 
L 1088.909855 188.663029 
L 1089.284992 188.634557 
L 1090.222832 189.015041 
L 1090.785536 189.40174 
L 1092.286081 190.927846 
L 1092.848785 190.953258 
L 1094.536898 190.550835 
L 1095.474738 189.806722 
L 1096.600147 188.608208 
L 1096.975283 188.534527 
L 1098.100691 188.630072 
L 1098.663396 188.615097 
L 1099.413668 188.78425 
L 1100.726645 188.683546 
L 1101.664485 188.838982 
L 1102.414757 188.592087 
L 1103.352598 188.083399 
L 1104.10287 187.650562 
L 1104.478006 187.587932 
L 1104.853142 187.729606 
L 1105.790983 188.642818 
L 1106.728823 189.398868 
L 1107.854232 190.118338 
L 1109.354776 190.469678 
L 1109.917481 190.123202 
L 1111.418025 189.162791 
L 1112.168298 189.027016 
L 1112.543434 189.16731 
L 1113.85641 190.277669 
L 1114.794251 190.317712 
L 1116.107227 190.281876 
L 1116.669932 190.251003 
L 1117.045068 190.002343 
L 1117.79534 189.264481 
L 1118.170476 189.304536 
L 1118.733181 189.490757 
L 1119.108317 189.2897 
L 1119.858589 188.803642 
L 1120.608861 188.676598 
L 1120.983998 188.711498 
L 1121.359134 188.973029 
L 1122.484542 190.342452 
L 1122.859678 190.333677 
L 1123.422383 189.867641 
L 1123.985087 189.461153 
L 1124.922927 188.916003 
L 1126.235904 187.89887 
L 1126.61104 187.999681 
L 1126.986176 188.330594 
L 1127.924017 189.307636 
L 1129.424561 190.053839 
L 1129.987266 190.258417 
L 1130.54997 190.477052 
L 1130.925106 190.366152 
L 1132.425651 189.453959 
L 1133.363491 188.694583 
L 1134.113763 188.473594 
L 1134.4889 188.497913 
L 1134.864036 188.710739 
L 1136.739717 190.370049 
L 1137.302421 190.514306 
L 1137.865125 190.401414 
L 1139.178102 190.014313 
L 1139.928374 189.835759 
L 1141.428919 189.163197 
L 1142.366759 188.31591 
L 1142.741895 188.248397 
L 1143.304599 188.404646 
L 1144.617576 189.037153 
L 1144.992712 188.931057 
L 1145.555416 188.338221 
L 1146.118121 187.845606 
L 1146.493257 187.949416 
L 1146.868393 188.451302 
L 1148.18137 190.745463 
L 1148.556506 190.833051 
L 1149.11921 190.484374 
L 1149.869482 190.045931 
L 1152.120299 189.408974 
L 1153.620844 189.715726 
L 1154.183548 189.346488 
L 1154.933821 188.832664 
L 1155.308957 188.757107 
L 1155.684093 188.871018 
L 1156.059229 189.242433 
L 1156.99707 190.288644 
L 1157.747342 190.796382 
L 1158.310046 190.970208 
L 1159.060318 190.950034 
L 1159.623023 190.760544 
L 1160.185727 190.169061 
L 1160.748431 189.554628 
L 1161.123567 189.438001 
L 1161.498704 189.529302 
L 1161.87384 189.791024 
L 1163.186816 191.137024 
L 1163.749521 191.14535 
L 1165.062497 190.916651 
L 1165.625201 191.003846 
L 1166.187906 190.743622 
L 1167.313314 190.122935 
L 1167.876018 190.064219 
L 1168.438723 190.275476 
L 1169.939267 191.114446 
L 1170.314403 190.986012 
L 1171.064676 190.298041 
L 1172.190084 189.330724 
L 1172.752788 189.112644 
L 1173.315493 189.121703 
L 1173.690629 189.391969 
L 1174.440901 190.223176 
L 1174.628469 190.278737 
L 1175.003605 190.057674 
L 1175.753878 189.251692 
L 1176.129014 189.100792 
L 1176.879286 189.120966 
L 1177.629559 189.0443 
L 1178.379831 188.954285 
L 1178.754967 188.91457 
L 1179.317671 188.558458 
L 1179.880376 188.271102 
L 1180.255512 188.338778 
L 1181.38092 188.958277 
L 1182.131193 189.130573 
L 1182.881465 189.458955 
L 1183.256601 189.382388 
L 1184.006873 189.09316 
L 1184.757146 189.297197 
L 1184.757146 189.297197 
" clip-path="url(#p0a2643c557)" style="fill: none; stroke: #000000; stroke-width: 2; stroke-linecap: square"/>
   </g>
   <g id="patch_3">
    <path d="M 3.00024 198.907885 
L 1184.99976 198.907885 
" style="fill: none; stroke: #000000; stroke-width: 2; stroke-linejoin: miter; stroke-linecap: square"/>
   </g>
  </g>
 </g>
 <defs>
  <clipPath id="p0a2643c557">
   <rect x="3.00024" y="3.00024" width="1181.99952" height="195.907645"/>
  </clipPath>
 </defs>
</svg>
