<?xml version="1.0" encoding="utf-8" standalone="no"?>
<!DOCTYPE svg PUBLIC "-//W3C//DTD SVG 1.1//EN"
  "http://www.w3.org/Graphics/SVG/1.1/DTD/svg11.dtd">
<svg xmlns:xlink="http://www.w3.org/1999/xlink" width="1188pt" height="252pt" viewBox="0 0 1188 252" xmlns="http://www.w3.org/2000/svg" version="1.1">
 <metadata>
  <rdf:RDF xmlns:dc="http://purl.org/dc/elements/1.1/" xmlns:cc="http://creativecommons.org/ns#" xmlns:rdf="http://www.w3.org/1999/02/22-rdf-syntax-ns#">
   <cc:Work>
    <dc:type rdf:resource="http://purl.org/dc/dcmitype/StillImage"/>
    <dc:date>2024-05-13T18:25:19.093106</dc:date>
    <dc:format>image/svg+xml</dc:format>
    <dc:creator>
     <cc:Agent>
      <dc:title>Matplotlib v3.8.0, https://matplotlib.org/</dc:title>
     </cc:Agent>
    </dc:creator>
   </cc:Work>
  </rdf:RDF>
 </metadata>
 <defs>
  <style type="text/css">*{stroke-linejoin: round; stroke-linecap: butt}</style>
 </defs>
 <g id="figure_1">
  <g id="patch_1">
   <path d="M 0 252 
L 1188 252 
L 1188 0 
L 0 0 
z
" style="fill: #ffffff"/>
  </g>
  <g id="axes_1">
   <g id="patch_2">
    <path d="M 3.00024 198.907885 
L 1184.99976 198.907885 
L 1184.99976 3.00024 
L 3.00024 3.00024 
z
" style="fill: #ffffff"/>
   </g>
   <g id="matplotlib.axis_1">
    <g id="xtick_1">
     <g id="line2d_1">
      <defs>
       <path id="m4acc286403" d="M 0 0 
L 0 8 
" style="stroke: #000000; stroke-width: 2"/>
      </defs>
      <g>
       <use xlink:href="#m4acc286403" x="1135.74978" y="198.907885" style="stroke: #000000; stroke-width: 2"/>
      </g>
     </g>
     <g id="text_1">
      <!-- −1 -->
      <g transform="translate(1125.488374 224.791947) scale(0.18 -0.18)">
       <defs>
        <path id="Arial-BoldMT-2212" d="M 266 1850 
L 266 2672 
L 3469 2672 
L 3469 1850 
L 266 1850 
z
" transform="scale(0.015625)"/>
        <path id="Arial-BoldMT-31" d="M 2519 0 
L 1641 0 
L 1641 3309 
Q 1159 2859 506 2644 
L 506 3441 
Q 850 3553 1253 3867 
Q 1656 4181 1806 4600 
L 2519 4600 
L 2519 0 
z
" transform="scale(0.015625)"/>
       </defs>
       <use xlink:href="#Arial-BoldMT-2212"/>
       <use xlink:href="#Arial-BoldMT-31" x="58.398438"/>
      </g>
     </g>
    </g>
    <g id="xtick_2">
     <g id="line2d_2">
      <g>
       <use xlink:href="#m4acc286403" x="1037.24982" y="198.907885" style="stroke: #000000; stroke-width: 2"/>
      </g>
     </g>
     <g id="text_2">
      <!-- 0 -->
      <g transform="translate(1032.244976 224.791947) scale(0.18 -0.18)">
       <defs>
        <path id="Arial-BoldMT-30" d="M 1756 4600 
Q 2422 4600 2797 4125 
Q 3244 3563 3244 2259 
Q 3244 959 2794 391 
Q 2422 -78 1756 -78 
Q 1088 -78 678 436 
Q 269 950 269 2269 
Q 269 3563 719 4131 
Q 1091 4600 1756 4600 
z
M 1756 3872 
Q 1597 3872 1472 3770 
Q 1347 3669 1278 3406 
Q 1188 3066 1188 2259 
Q 1188 1453 1269 1151 
Q 1350 850 1473 750 
Q 1597 650 1756 650 
Q 1916 650 2041 751 
Q 2166 853 2234 1116 
Q 2325 1453 2325 2259 
Q 2325 3066 2244 3367 
Q 2163 3669 2039 3770 
Q 1916 3872 1756 3872 
z
" transform="scale(0.015625)"/>
       </defs>
       <use xlink:href="#Arial-BoldMT-30"/>
      </g>
     </g>
    </g>
    <g id="xtick_3">
     <g id="line2d_3">
      <g>
       <use xlink:href="#m4acc286403" x="938.74986" y="198.907885" style="stroke: #000000; stroke-width: 2"/>
      </g>
     </g>
     <g id="text_3">
      <!-- 1 -->
      <g transform="translate(933.745016 224.791947) scale(0.18 -0.18)">
       <use xlink:href="#Arial-BoldMT-31"/>
      </g>
     </g>
    </g>
    <g id="xtick_4">
     <g id="line2d_4">
      <g>
       <use xlink:href="#m4acc286403" x="840.2499" y="198.907885" style="stroke: #000000; stroke-width: 2"/>
      </g>
     </g>
     <g id="text_4">
      <!-- 2 -->
      <g transform="translate(835.245056 224.791947) scale(0.18 -0.18)">
       <defs>
        <path id="Arial-BoldMT-32" d="M 3238 816 
L 3238 0 
L 159 0 
Q 209 463 459 877 
Q 709 1291 1447 1975 
Q 2041 2528 2175 2725 
Q 2356 2997 2356 3263 
Q 2356 3556 2198 3714 
Q 2041 3872 1763 3872 
Q 1488 3872 1325 3706 
Q 1163 3541 1138 3156 
L 263 3244 
Q 341 3969 753 4284 
Q 1166 4600 1784 4600 
Q 2463 4600 2850 4234 
Q 3238 3869 3238 3325 
Q 3238 3016 3127 2736 
Q 3016 2456 2775 2150 
Q 2616 1947 2200 1565 
Q 1784 1184 1673 1059 
Q 1563 934 1494 816 
L 3238 816 
z
" transform="scale(0.015625)"/>
       </defs>
       <use xlink:href="#Arial-BoldMT-32"/>
      </g>
     </g>
    </g>
    <g id="xtick_5">
     <g id="line2d_5">
      <g>
       <use xlink:href="#m4acc286403" x="741.74994" y="198.907885" style="stroke: #000000; stroke-width: 2"/>
      </g>
     </g>
     <g id="text_5">
      <!-- 3 -->
      <g transform="translate(736.745096 224.791947) scale(0.18 -0.18)">
       <defs>
        <path id="Arial-BoldMT-33" d="M 241 1216 
L 1091 1319 
Q 1131 994 1309 822 
Q 1488 650 1741 650 
Q 2013 650 2198 856 
Q 2384 1063 2384 1413 
Q 2384 1744 2206 1937 
Q 2028 2131 1772 2131 
Q 1603 2131 1369 2066 
L 1466 2781 
Q 1822 2772 2009 2936 
Q 2197 3100 2197 3372 
Q 2197 3603 2059 3740 
Q 1922 3878 1694 3878 
Q 1469 3878 1309 3722 
Q 1150 3566 1116 3266 
L 306 3403 
Q 391 3819 561 4067 
Q 731 4316 1036 4458 
Q 1341 4600 1719 4600 
Q 2366 4600 2756 4188 
Q 3078 3850 3078 3425 
Q 3078 2822 2419 2463 
Q 2813 2378 3048 2084 
Q 3284 1791 3284 1375 
Q 3284 772 2843 347 
Q 2403 -78 1747 -78 
Q 1125 -78 715 280 
Q 306 638 241 1216 
z
" transform="scale(0.015625)"/>
       </defs>
       <use xlink:href="#Arial-BoldMT-33"/>
      </g>
     </g>
    </g>
    <g id="xtick_6">
     <g id="line2d_6">
      <g>
       <use xlink:href="#m4acc286403" x="643.24998" y="198.907885" style="stroke: #000000; stroke-width: 2"/>
      </g>
     </g>
     <g id="text_6">
      <!-- 4 -->
      <g transform="translate(638.245136 224.791947) scale(0.18 -0.18)">
       <defs>
        <path id="Arial-BoldMT-34" d="M 1994 0 
L 1994 922 
L 119 922 
L 119 1691 
L 2106 4600 
L 2844 4600 
L 2844 1694 
L 3413 1694 
L 3413 922 
L 2844 922 
L 2844 0 
L 1994 0 
z
M 1994 1694 
L 1994 3259 
L 941 1694 
L 1994 1694 
z
" transform="scale(0.015625)"/>
       </defs>
       <use xlink:href="#Arial-BoldMT-34"/>
      </g>
     </g>
    </g>
    <g id="xtick_7">
     <g id="line2d_7">
      <g>
       <use xlink:href="#m4acc286403" x="544.75002" y="198.907885" style="stroke: #000000; stroke-width: 2"/>
      </g>
     </g>
     <g id="text_7">
      <!-- 5 -->
      <g transform="translate(539.745176 224.791947) scale(0.18 -0.18)">
       <defs>
        <path id="Arial-BoldMT-35" d="M 284 1178 
L 1159 1269 
Q 1197 972 1381 798 
Q 1566 625 1806 625 
Q 2081 625 2272 848 
Q 2463 1072 2463 1522 
Q 2463 1944 2273 2155 
Q 2084 2366 1781 2366 
Q 1403 2366 1103 2031 
L 391 2134 
L 841 4519 
L 3163 4519 
L 3163 3697 
L 1506 3697 
L 1369 2919 
Q 1663 3066 1969 3066 
Q 2553 3066 2959 2641 
Q 3366 2216 3366 1538 
Q 3366 972 3038 528 
Q 2591 -78 1797 -78 
Q 1163 -78 763 262 
Q 363 603 284 1178 
z
" transform="scale(0.015625)"/>
       </defs>
       <use xlink:href="#Arial-BoldMT-35"/>
      </g>
     </g>
    </g>
    <g id="xtick_8">
     <g id="line2d_8">
      <g>
       <use xlink:href="#m4acc286403" x="446.25006" y="198.907885" style="stroke: #000000; stroke-width: 2"/>
      </g>
     </g>
     <g id="text_8">
      <!-- 6 -->
      <g transform="translate(441.245216 224.791947) scale(0.18 -0.18)">
       <defs>
        <path id="Arial-BoldMT-36" d="M 3247 3459 
L 2397 3366 
Q 2366 3628 2234 3753 
Q 2103 3878 1894 3878 
Q 1616 3878 1423 3628 
Q 1231 3378 1181 2588 
Q 1509 2975 1997 2975 
Q 2547 2975 2939 2556 
Q 3331 2138 3331 1475 
Q 3331 772 2918 347 
Q 2506 -78 1859 -78 
Q 1166 -78 719 461 
Q 272 1000 272 2228 
Q 272 3488 737 4044 
Q 1203 4600 1947 4600 
Q 2469 4600 2811 4308 
Q 3153 4016 3247 3459 
z
M 1256 1544 
Q 1256 1116 1453 883 
Q 1650 650 1903 650 
Q 2147 650 2309 840 
Q 2472 1031 2472 1466 
Q 2472 1913 2297 2120 
Q 2122 2328 1859 2328 
Q 1606 2328 1431 2129 
Q 1256 1931 1256 1544 
z
" transform="scale(0.015625)"/>
       </defs>
       <use xlink:href="#Arial-BoldMT-36"/>
      </g>
     </g>
    </g>
    <g id="xtick_9">
     <g id="line2d_9">
      <g>
       <use xlink:href="#m4acc286403" x="347.7501" y="198.907885" style="stroke: #000000; stroke-width: 2"/>
      </g>
     </g>
     <g id="text_9">
      <!-- 7 -->
      <g transform="translate(342.745256 224.791947) scale(0.18 -0.18)">
       <defs>
        <path id="Arial-BoldMT-37" d="M 272 3703 
L 272 4519 
L 3275 4519 
L 3275 3881 
Q 2903 3516 2518 2831 
Q 2134 2147 1932 1376 
Q 1731 606 1734 0 
L 888 0 
Q 909 950 1279 1937 
Q 1650 2925 2269 3703 
L 272 3703 
z
" transform="scale(0.015625)"/>
       </defs>
       <use xlink:href="#Arial-BoldMT-37"/>
      </g>
     </g>
    </g>
    <g id="xtick_10">
     <g id="line2d_10">
      <g>
       <use xlink:href="#m4acc286403" x="249.25014" y="198.907885" style="stroke: #000000; stroke-width: 2"/>
      </g>
     </g>
     <g id="text_10">
      <!-- 8 -->
      <g transform="translate(244.245296 224.791947) scale(0.18 -0.18)">
       <defs>
        <path id="Arial-BoldMT-38" d="M 1025 2472 
Q 684 2616 529 2867 
Q 375 3119 375 3419 
Q 375 3931 733 4265 
Q 1091 4600 1750 4600 
Q 2403 4600 2764 4265 
Q 3125 3931 3125 3419 
Q 3125 3100 2959 2851 
Q 2794 2603 2494 2472 
Q 2875 2319 3073 2025 
Q 3272 1731 3272 1347 
Q 3272 713 2867 316 
Q 2463 -81 1791 -81 
Q 1166 -81 750 247 
Q 259 634 259 1309 
Q 259 1681 443 1992 
Q 628 2303 1025 2472 
z
M 1206 3356 
Q 1206 3094 1354 2947 
Q 1503 2800 1750 2800 
Q 2000 2800 2150 2948 
Q 2300 3097 2300 3359 
Q 2300 3606 2151 3754 
Q 2003 3903 1759 3903 
Q 1506 3903 1356 3753 
Q 1206 3603 1206 3356 
z
M 1125 1394 
Q 1125 1031 1311 828 
Q 1497 625 1775 625 
Q 2047 625 2225 820 
Q 2403 1016 2403 1384 
Q 2403 1706 2222 1901 
Q 2041 2097 1763 2097 
Q 1441 2097 1283 1875 
Q 1125 1653 1125 1394 
z
" transform="scale(0.015625)"/>
       </defs>
       <use xlink:href="#Arial-BoldMT-38"/>
      </g>
     </g>
    </g>
    <g id="xtick_11">
     <g id="line2d_11">
      <g>
       <use xlink:href="#m4acc286403" x="150.75018" y="198.907885" style="stroke: #000000; stroke-width: 2"/>
      </g>
     </g>
     <g id="text_11">
      <!-- 9 -->
      <g transform="translate(145.745336 224.791947) scale(0.18 -0.18)">
       <defs>
        <path id="Arial-BoldMT-39" d="M 291 1059 
L 1141 1153 
Q 1172 894 1303 769 
Q 1434 644 1650 644 
Q 1922 644 2112 894 
Q 2303 1144 2356 1931 
Q 2025 1547 1528 1547 
Q 988 1547 595 1964 
Q 203 2381 203 3050 
Q 203 3747 617 4173 
Q 1031 4600 1672 4600 
Q 2369 4600 2816 4061 
Q 3263 3522 3263 2288 
Q 3263 1031 2797 475 
Q 2331 -81 1584 -81 
Q 1047 -81 715 205 
Q 384 491 291 1059 
z
M 2278 2978 
Q 2278 3403 2083 3637 
Q 1888 3872 1631 3872 
Q 1388 3872 1227 3680 
Q 1066 3488 1066 3050 
Q 1066 2606 1241 2398 
Q 1416 2191 1678 2191 
Q 1931 2191 2104 2391 
Q 2278 2591 2278 2978 
z
" transform="scale(0.015625)"/>
       </defs>
       <use xlink:href="#Arial-BoldMT-39"/>
      </g>
     </g>
    </g>
    <g id="xtick_12">
     <g id="line2d_12">
      <g>
       <use xlink:href="#m4acc286403" x="52.25022" y="198.907885" style="stroke: #000000; stroke-width: 2"/>
      </g>
     </g>
     <g id="text_12">
      <!-- 10 -->
      <g transform="translate(42.240533 224.791947) scale(0.18 -0.18)">
       <use xlink:href="#Arial-BoldMT-31"/>
       <use xlink:href="#Arial-BoldMT-30" x="55.615234"/>
      </g>
     </g>
    </g>
    <g id="text_13">
     <!-- Chemical Shift / ppm -->
     <g transform="translate(504.992813 245.447573) scale(0.18 -0.18)">
      <defs>
       <path id="Arial-BoldMT-43" d="M 3397 1684 
L 4294 1400 
Q 4088 650 3608 286 
Q 3128 -78 2391 -78 
Q 1478 -78 890 545 
Q 303 1169 303 2250 
Q 303 3394 893 4026 
Q 1484 4659 2447 4659 
Q 3288 4659 3813 4163 
Q 4125 3869 4281 3319 
L 3366 3100 
Q 3284 3456 3026 3662 
Q 2769 3869 2400 3869 
Q 1891 3869 1573 3503 
Q 1256 3138 1256 2319 
Q 1256 1450 1568 1081 
Q 1881 713 2381 713 
Q 2750 713 3015 947 
Q 3281 1181 3397 1684 
z
" transform="scale(0.015625)"/>
       <path id="Arial-BoldMT-68" d="M 1334 4581 
L 1334 2897 
Q 1759 3394 2350 3394 
Q 2653 3394 2897 3281 
Q 3141 3169 3264 2994 
Q 3388 2819 3433 2606 
Q 3478 2394 3478 1947 
L 3478 0 
L 2600 0 
L 2600 1753 
Q 2600 2275 2550 2415 
Q 2500 2556 2373 2639 
Q 2247 2722 2056 2722 
Q 1838 2722 1666 2615 
Q 1494 2509 1414 2295 
Q 1334 2081 1334 1663 
L 1334 0 
L 456 0 
L 456 4581 
L 1334 4581 
z
" transform="scale(0.015625)"/>
       <path id="Arial-BoldMT-65" d="M 2381 1056 
L 3256 909 
Q 3088 428 2723 176 
Q 2359 -75 1813 -75 
Q 947 -75 531 491 
Q 203 944 203 1634 
Q 203 2459 634 2926 
Q 1066 3394 1725 3394 
Q 2466 3394 2894 2905 
Q 3322 2416 3303 1406 
L 1103 1406 
Q 1113 1016 1316 798 
Q 1519 581 1822 581 
Q 2028 581 2168 693 
Q 2309 806 2381 1056 
z
M 2431 1944 
Q 2422 2325 2234 2523 
Q 2047 2722 1778 2722 
Q 1491 2722 1303 2513 
Q 1116 2303 1119 1944 
L 2431 1944 
z
" transform="scale(0.015625)"/>
       <path id="Arial-BoldMT-6d" d="M 394 3319 
L 1203 3319 
L 1203 2866 
Q 1638 3394 2238 3394 
Q 2556 3394 2790 3262 
Q 3025 3131 3175 2866 
Q 3394 3131 3647 3262 
Q 3900 3394 4188 3394 
Q 4553 3394 4806 3245 
Q 5059 3097 5184 2809 
Q 5275 2597 5275 2122 
L 5275 0 
L 4397 0 
L 4397 1897 
Q 4397 2391 4306 2534 
Q 4184 2722 3931 2722 
Q 3747 2722 3584 2609 
Q 3422 2497 3350 2280 
Q 3278 2063 3278 1594 
L 3278 0 
L 2400 0 
L 2400 1819 
Q 2400 2303 2353 2443 
Q 2306 2584 2207 2653 
Q 2109 2722 1941 2722 
Q 1738 2722 1575 2612 
Q 1413 2503 1342 2297 
Q 1272 2091 1272 1613 
L 1272 0 
L 394 0 
L 394 3319 
z
" transform="scale(0.015625)"/>
       <path id="Arial-BoldMT-69" d="M 459 3769 
L 459 4581 
L 1338 4581 
L 1338 3769 
L 459 3769 
z
M 459 0 
L 459 3319 
L 1338 3319 
L 1338 0 
L 459 0 
z
" transform="scale(0.015625)"/>
       <path id="Arial-BoldMT-63" d="M 3353 2338 
L 2488 2181 
Q 2444 2441 2289 2572 
Q 2134 2703 1888 2703 
Q 1559 2703 1364 2476 
Q 1169 2250 1169 1719 
Q 1169 1128 1367 884 
Q 1566 641 1900 641 
Q 2150 641 2309 783 
Q 2469 925 2534 1272 
L 3397 1125 
Q 3263 531 2881 228 
Q 2500 -75 1859 -75 
Q 1131 -75 698 384 
Q 266 844 266 1656 
Q 266 2478 700 2936 
Q 1134 3394 1875 3394 
Q 2481 3394 2839 3133 
Q 3197 2872 3353 2338 
z
" transform="scale(0.015625)"/>
       <path id="Arial-BoldMT-61" d="M 1116 2306 
L 319 2450 
Q 453 2931 781 3162 
Q 1109 3394 1756 3394 
Q 2344 3394 2631 3255 
Q 2919 3116 3036 2902 
Q 3153 2688 3153 2116 
L 3144 1091 
Q 3144 653 3186 445 
Q 3228 238 3344 0 
L 2475 0 
Q 2441 88 2391 259 
Q 2369 338 2359 363 
Q 2134 144 1878 34 
Q 1622 -75 1331 -75 
Q 819 -75 523 203 
Q 228 481 228 906 
Q 228 1188 362 1408 
Q 497 1628 739 1745 
Q 981 1863 1438 1950 
Q 2053 2066 2291 2166 
L 2291 2253 
Q 2291 2506 2166 2614 
Q 2041 2722 1694 2722 
Q 1459 2722 1328 2630 
Q 1197 2538 1116 2306 
z
M 2291 1594 
Q 2122 1538 1756 1459 
Q 1391 1381 1278 1306 
Q 1106 1184 1106 997 
Q 1106 813 1243 678 
Q 1381 544 1594 544 
Q 1831 544 2047 700 
Q 2206 819 2256 991 
Q 2291 1103 2291 1419 
L 2291 1594 
z
" transform="scale(0.015625)"/>
       <path id="Arial-BoldMT-6c" d="M 459 0 
L 459 4581 
L 1338 4581 
L 1338 0 
L 459 0 
z
" transform="scale(0.015625)"/>
       <path id="Arial-BoldMT-20" transform="scale(0.015625)"/>
       <path id="Arial-BoldMT-53" d="M 231 1491 
L 1131 1578 
Q 1213 1125 1461 912 
Q 1709 700 2131 700 
Q 2578 700 2804 889 
Q 3031 1078 3031 1331 
Q 3031 1494 2936 1608 
Q 2841 1722 2603 1806 
Q 2441 1863 1863 2006 
Q 1119 2191 819 2459 
Q 397 2838 397 3381 
Q 397 3731 595 4036 
Q 794 4341 1167 4500 
Q 1541 4659 2069 4659 
Q 2931 4659 3367 4281 
Q 3803 3903 3825 3272 
L 2900 3231 
Q 2841 3584 2645 3739 
Q 2450 3894 2059 3894 
Q 1656 3894 1428 3728 
Q 1281 3622 1281 3444 
Q 1281 3281 1419 3166 
Q 1594 3019 2269 2859 
Q 2944 2700 3267 2529 
Q 3591 2359 3773 2064 
Q 3956 1769 3956 1334 
Q 3956 941 3737 597 
Q 3519 253 3119 86 
Q 2719 -81 2122 -81 
Q 1253 -81 787 320 
Q 322 722 231 1491 
z
" transform="scale(0.015625)"/>
       <path id="Arial-BoldMT-66" d="M 75 3319 
L 563 3319 
L 563 3569 
Q 563 3988 652 4194 
Q 741 4400 980 4529 
Q 1219 4659 1584 4659 
Q 1959 4659 2319 4547 
L 2200 3934 
Q 1991 3984 1797 3984 
Q 1606 3984 1523 3895 
Q 1441 3806 1441 3553 
L 1441 3319 
L 2097 3319 
L 2097 2628 
L 1441 2628 
L 1441 0 
L 563 0 
L 563 2628 
L 75 2628 
L 75 3319 
z
" transform="scale(0.015625)"/>
       <path id="Arial-BoldMT-74" d="M 1981 3319 
L 1981 2619 
L 1381 2619 
L 1381 1281 
Q 1381 875 1398 808 
Q 1416 741 1477 697 
Q 1538 653 1625 653 
Q 1747 653 1978 738 
L 2053 56 
Q 1747 -75 1359 -75 
Q 1122 -75 931 4 
Q 741 84 652 211 
Q 563 338 528 553 
Q 500 706 500 1172 
L 500 2619 
L 97 2619 
L 97 3319 
L 500 3319 
L 500 3978 
L 1381 4491 
L 1381 3319 
L 1981 3319 
z
" transform="scale(0.015625)"/>
       <path id="Arial-BoldMT-2f" d="M -9 -78 
L 1125 4659 
L 1784 4659 
L 638 -78 
L -9 -78 
z
" transform="scale(0.015625)"/>
       <path id="Arial-BoldMT-70" d="M 434 3319 
L 1253 3319 
L 1253 2831 
Q 1413 3081 1684 3237 
Q 1956 3394 2288 3394 
Q 2866 3394 3269 2941 
Q 3672 2488 3672 1678 
Q 3672 847 3265 386 
Q 2859 -75 2281 -75 
Q 2006 -75 1782 34 
Q 1559 144 1313 409 
L 1313 -1263 
L 434 -1263 
L 434 3319 
z
M 1303 1716 
Q 1303 1156 1525 889 
Q 1747 622 2066 622 
Q 2372 622 2575 867 
Q 2778 1113 2778 1672 
Q 2778 2194 2568 2447 
Q 2359 2700 2050 2700 
Q 1728 2700 1515 2451 
Q 1303 2203 1303 1716 
z
" transform="scale(0.015625)"/>
      </defs>
      <use xlink:href="#Arial-BoldMT-43"/>
      <use xlink:href="#Arial-BoldMT-68" x="72.216797"/>
      <use xlink:href="#Arial-BoldMT-65" x="133.300781"/>
      <use xlink:href="#Arial-BoldMT-6d" x="188.916016"/>
      <use xlink:href="#Arial-BoldMT-69" x="277.832031"/>
      <use xlink:href="#Arial-BoldMT-63" x="305.615234"/>
      <use xlink:href="#Arial-BoldMT-61" x="361.230469"/>
      <use xlink:href="#Arial-BoldMT-6c" x="416.845703"/>
      <use xlink:href="#Arial-BoldMT-20" x="444.628906"/>
      <use xlink:href="#Arial-BoldMT-53" x="472.412109"/>
      <use xlink:href="#Arial-BoldMT-68" x="539.111328"/>
      <use xlink:href="#Arial-BoldMT-69" x="600.195312"/>
      <use xlink:href="#Arial-BoldMT-66" x="627.978516"/>
      <use xlink:href="#Arial-BoldMT-74" x="661.279297"/>
      <use xlink:href="#Arial-BoldMT-20" x="694.580078"/>
      <use xlink:href="#Arial-BoldMT-2f" x="722.363281"/>
      <use xlink:href="#Arial-BoldMT-20" x="750.146484"/>
      <use xlink:href="#Arial-BoldMT-70" x="777.929688"/>
      <use xlink:href="#Arial-BoldMT-70" x="839.013672"/>
      <use xlink:href="#Arial-BoldMT-6d" x="900.097656"/>
     </g>
    </g>
   </g>
   <g id="matplotlib.axis_2"/>
   <g id="line2d_13">
    <path d="M 2.995157 189.673239 
L 3.557862 188.783095 
L 3.932998 188.611891 
L 4.308134 188.831376 
L 5.058406 189.291388 
L 5.433542 189.416179 
L 5.621111 189.379497 
L 5.996247 188.952015 
L 6.934087 187.375956 
L 7.121655 187.403743 
L 7.496791 187.898928 
L 9.184904 191.268684 
L 9.935176 193.020273 
L 10.310313 193.389307 
L 10.685449 193.306426 
L 11.060585 192.833695 
L 11.623289 191.956045 
L 11.998425 191.668967 
L 12.748698 191.543107 
L 14.624379 191.134119 
L 14.999515 190.971448 
L 15.374651 191.073251 
L 15.937355 191.714157 
L 16.500059 192.355554 
L 16.875196 192.496914 
L 17.250332 192.312175 
L 17.625468 191.788391 
L 18.37574 190.541531 
L 18.750876 190.269214 
L 19.126012 190.212146 
L 19.501149 190.361823 
L 19.876285 190.840036 
L 20.438989 192.297771 
L 21.189261 194.207199 
L 21.564398 194.687153 
L 21.751966 194.69573 
L 21.939534 194.532188 
L 22.31467 193.804039 
L 23.064942 192.114756 
L 23.627646 191.430008 
L 24.190351 191.104962 
L 24.565487 191.243606 
L 25.503327 192.119556 
L 25.878463 191.767152 
L 26.441168 190.587351 
L 27.379008 188.414415 
L 27.941712 187.630012 
L 28.316849 187.559345 
L 28.691985 187.880771 
L 29.817393 189.324434 
L 30.192529 189.430881 
L 30.942802 189.163325 
L 31.317938 189.501367 
L 32.06821 190.748905 
L 32.255778 190.82003 
L 32.443346 190.704532 
L 32.818483 190.008095 
L 33.943891 186.811418 
L 34.881731 184.07624 
L 35.256868 183.667872 
L 35.444436 183.720963 
L 35.819572 184.337024 
L 36.757412 187.183569 
L 39.195797 194.320941 
L 39.758502 195.380294 
L 40.133638 195.600823 
L 40.508774 195.283073 
L 41.259046 193.976274 
L 42.572023 191.708577 
L 42.947159 191.688317 
L 44.072568 192.201379 
L 44.260136 192.054571 
L 44.635272 191.241248 
L 45.948248 186.70799 
L 46.135816 186.465724 
L 46.323385 186.444742 
L 46.698521 186.972696 
L 47.636361 188.878389 
L 48.011497 189.143756 
L 48.386633 189.171294 
L 48.76177 188.961266 
L 49.136906 188.365109 
L 49.69961 186.934658 
L 51.200155 182.68544 
L 51.575291 182.414663 
L 51.762859 182.538972 
L 52.137995 183.333953 
L 54.201244 190.153644 
L 54.57638 190.588913 
L 54.763948 190.585408 
L 55.139084 190.272621 
L 55.889357 189.598729 
L 57.202333 188.648849 
L 58.327742 187.555108 
L 58.702878 187.551717 
L 59.078014 187.856647 
L 60.015855 189.035812 
L 60.578559 190.363899 
L 61.328831 192.119262 
L 61.891535 192.975588 
L 62.266672 193.203078 
L 62.641808 193.020496 
L 63.204512 192.164366 
L 63.767216 191.416505 
L 65.080193 190.600867 
L 65.455329 190.627823 
L 65.830465 190.880393 
L 66.205601 191.38684 
L 66.955874 192.927764 
L 67.518578 193.837585 
L 67.706146 193.906907 
L 67.893714 193.823525 
L 68.26885 193.291861 
L 70.144531 190.025768 
L 70.332099 189.990827 
L 70.707235 190.261296 
L 71.26994 190.853121 
L 71.457508 190.870197 
L 71.645076 190.731604 
L 72.020212 190.004394 
L 72.582916 188.684235 
L 72.958052 188.378663 
L 73.333188 188.487265 
L 74.083461 189.068223 
L 74.458597 189.629043 
L 75.959142 192.524633 
L 76.334278 192.887374 
L 76.709414 192.91325 
L 77.08455 192.583141 
L 77.647254 192.086804 
L 78.585095 191.857509 
L 79.710503 191.255388 
L 80.085639 191.356879 
L 80.835912 191.740616 
L 81.211048 191.606011 
L 81.586184 191.228449 
L 82.524025 189.934484 
L 83.086729 189.756716 
L 83.461865 189.639923 
L 83.837001 189.259103 
L 84.774842 187.919358 
L 84.96241 187.887317 
L 85.337546 188.150577 
L 86.650522 189.801567 
L 87.025659 189.954112 
L 87.400795 189.906846 
L 88.713771 189.399191 
L 89.464044 189.275685 
L 89.83918 189.500977 
L 90.401884 189.919788 
L 90.77702 189.867559 
L 91.527292 189.345222 
L 92.277565 188.844808 
L 93.402973 188.642895 
L 94.153246 188.215377 
L 94.71595 187.951059 
L 95.091086 187.464851 
L 96.216495 185.633067 
L 96.591631 185.733014 
L 97.154335 185.992697 
L 98.092175 186.096129 
L 99.217584 187.105327 
L 99.59272 187.906616 
L 100.718129 191.148449 
L 101.093265 191.522701 
L 101.280833 191.511141 
L 101.655969 191.174772 
L 102.218673 190.490641 
L 102.406241 190.424399 
L 102.781377 190.660273 
L 103.906786 192.022841 
L 104.281922 192.135167 
L 104.46949 192.034981 
L 104.844626 191.342044 
L 105.782467 188.922621 
L 106.907875 187.692092 
L 107.095443 187.631656 
L 107.283011 187.723856 
L 107.658148 188.336836 
L 108.595988 190.510847 
L 108.783556 190.693572 
L 108.971124 190.716637 
L 109.158692 190.582366 
L 109.533828 189.924751 
L 110.284101 188.25013 
L 110.659237 187.884914 
L 110.846805 187.895087 
L 111.221941 188.279266 
L 112.722486 190.518913 
L 113.28519 190.589971 
L 114.223031 190.620118 
L 114.598167 190.410753 
L 116.098711 189.265941 
L 117.22412 188.622297 
L 117.786824 188.922862 
L 118.16196 189.265193 
L 118.724665 190.193359 
L 119.287369 191.015056 
L 119.662505 191.072359 
L 120.412777 190.901632 
L 121.538186 190.75286 
L 121.913322 190.643237 
L 122.288458 190.22724 
L 122.851162 189.53052 
L 124.164139 188.380995 
L 124.914411 187.836016 
L 125.289547 187.726878 
L 126.03982 187.757368 
L 126.602524 187.374394 
L 127.165228 186.99672 
L 127.540364 187.00604 
L 127.915501 187.334976 
L 128.665773 188.093037 
L 129.228477 188.694721 
L 131.666862 192.474182 
L 132.041998 192.325176 
L 132.604703 191.81275 
L 132.979839 191.727711 
L 133.354975 191.692732 
L 133.730111 191.355517 
L 134.292815 190.672994 
L 134.667952 190.548856 
L 135.230656 190.67622 
L 136.168496 191.192283 
L 136.543632 191.003931 
L 137.106337 190.471907 
L 137.481473 189.838567 
L 138.231745 188.252386 
L 138.419313 188.071063 
L 138.606881 188.048409 
L 138.982017 188.391922 
L 139.544722 188.95836 
L 139.73229 188.938171 
L 140.107426 188.525648 
L 140.67013 187.778097 
L 140.857698 187.720041 
L 141.232834 187.952413 
L 141.795539 188.827895 
L 142.545811 190.120607 
L 142.920947 190.436892 
L 143.296083 190.478448 
L 143.67122 190.186778 
L 145.5469 187.59638 
L 146.109605 187.129747 
L 146.484741 187.07339 
L 147.047445 187.251928 
L 147.610149 187.593452 
L 147.985285 188.003297 
L 148.923126 189.367972 
L 149.110694 189.387929 
L 149.48583 189.005008 
L 150.236102 187.880202 
L 150.611239 187.804277 
L 151.549079 188.115342 
L 152.111783 187.650447 
L 152.486919 187.402185 
L 152.862056 187.382001 
L 153.42476 187.419269 
L 153.799896 187.171607 
L 154.3626 186.626872 
L 154.737736 186.62296 
L 155.112873 187.044062 
L 155.675577 187.721504 
L 155.863145 187.717515 
L 156.050713 187.542975 
L 156.425849 186.779652 
L 156.988553 185.476181 
L 157.36369 185.178362 
L 157.551258 185.280804 
L 157.926394 185.843012 
L 159.426938 188.599029 
L 159.802075 188.826425 
L 160.177211 188.786964 
L 160.552347 188.501677 
L 160.927483 187.919891 
L 161.490187 186.476727 
L 162.803164 182.066143 
L 163.1783 181.54684 
L 163.553436 181.355724 
L 164.303709 181.075765 
L 165.616685 180.357975 
L 165.991821 179.681449 
L 166.554526 177.812291 
L 167.492366 174.662488 
L 168.617775 171.858476 
L 169.555615 170.074592 
L 170.118319 167.919703 
L 170.868592 163.836582 
L 171.618864 158.468013 
L 172.369136 151.346917 
L 172.93184 143.736386 
L 173.494545 133.314223 
L 174.057249 118.213064 
L 174.619953 97.318682 
L 175.370226 60.332713 
L 176.308066 12.376977 
L 176.683202 3.46724 
L 176.87077 3.00024 
L 177.058338 5.371363 
L 177.433474 17.883025 
L 178.183747 59.84202 
L 178.934019 99.143362 
L 179.684291 126.660905 
L 180.246996 140.814287 
L 180.997268 153.779461 
L 181.74754 163.008488 
L 182.310245 167.353653 
L 183.060517 171.00995 
L 183.623221 172.807705 
L 183.998357 173.376212 
L 184.373494 173.539927 
L 185.874038 173.579158 
L 186.436742 173.308578 
L 187.562151 172.417789 
L 187.937287 171.493087 
L 189.6254 165.65791 
L 190.000536 165.258194 
L 190.188104 165.267265 
L 190.56324 165.662589 
L 191.688649 167.499941 
L 192.063785 167.596137 
L 192.251353 167.430461 
L 192.626489 166.575097 
L 193.189193 164.383359 
L 195.252442 155.467901 
L 195.627578 154.914819 
L 196.190283 154.394315 
L 196.565419 153.666652 
L 196.940555 152.447618 
L 199.754076 140.88641 
L 200.129212 140.40254 
L 200.504349 140.30802 
L 201.254621 140.41321 
L 201.817325 140.45089 
L 202.192461 140.153375 
L 202.567598 139.132926 
L 202.942734 137.001275 
L 203.693006 130.1557 
L 204.443278 124.025977 
L 204.818415 122.508274 
L 205.005983 122.255653 
L 205.193551 122.341978 
L 205.568687 123.400245 
L 206.881663 129.103068 
L 207.2568 129.594298 
L 207.444368 129.550211 
L 207.631936 129.266973 
L 208.007072 127.861346 
L 208.569776 123.884415 
L 209.13248 118.174769 
L 210.445457 103.251167 
L 211.383297 95.914286 
L 212.13357 89.791347 
L 212.696274 83.110976 
L 213.821683 69.058655 
L 214.196819 66.608379 
L 214.384387 66.099211 
L 214.571955 66.130712 
L 214.759523 66.721501 
L 215.134659 69.546447 
L 215.509795 74.496652 
L 216.0725 85.761888 
L 217.760612 124.749904 
L 218.510885 136.769487 
L 219.073589 143.47501 
L 219.636293 147.863768 
L 220.011429 149.446587 
L 220.198997 149.789629 
L 220.386565 149.834386 
L 220.574134 149.621585 
L 220.94927 148.692721 
L 222.262246 144.400217 
L 223.200087 140.415137 
L 223.387655 140.092485 
L 223.575223 140.002824 
L 223.762791 140.121622 
L 224.137927 140.859944 
L 224.700631 142.743227 
L 225.263336 145.64469 
L 226.013608 151.404428 
L 227.326585 161.449303 
L 229.389833 174.494271 
L 230.140106 177.864825 
L 230.70281 179.538752 
L 231.077946 180.007625 
L 231.453082 179.933474 
L 231.828218 179.813642 
L 232.015787 179.919983 
L 232.390923 180.538014 
L 233.328763 182.665406 
L 233.703899 182.94115 
L 234.079035 182.779681 
L 235.016876 182.175349 
L 235.392012 181.934261 
L 235.767148 181.420987 
L 236.517421 180.035883 
L 236.892557 179.807784 
L 237.267693 180.043631 
L 237.830397 180.542128 
L 238.768238 180.912137 
L 239.143374 180.73737 
L 239.51851 180.22425 
L 240.081214 179.307011 
L 240.45635 179.149219 
L 240.831486 179.395249 
L 241.394191 179.841351 
L 241.769327 179.931606 
L 242.144463 179.834785 
L 243.082303 179.333994 
L 243.832576 179.381029 
L 244.207712 179.029162 
L 244.957984 177.702683 
L 245.520689 176.252292 
L 246.458529 173.748663 
L 247.396369 171.703575 
L 247.771506 170.20871 
L 248.33421 166.718696 
L 250.585027 149.918124 
L 251.522867 139.52533 
L 252.085571 131.532864 
L 252.648276 120.3201 
L 253.398548 100.40274 
L 254.523957 64.187638 
L 255.461797 35.135077 
L 256.024501 22.84561 
L 256.399637 17.550726 
L 256.774774 14.827484 
L 256.962342 14.489635 
L 257.14991 14.837084 
L 257.525046 17.379722 
L 258.08775 24.209867 
L 258.838022 33.56424 
L 259.213159 36.541847 
L 259.588295 38.08969 
L 259.775863 38.370986 
L 259.963431 38.367371 
L 260.338567 37.732041 
L 260.901271 36.460493 
L 261.088839 36.399368 
L 261.276408 36.727296 
L 261.463976 37.550896 
L 261.839112 40.949478 
L 262.214248 46.743154 
L 262.776952 59.150532 
L 264.089929 95.83269 
L 265.215337 124.128823 
L 265.96561 138.179924 
L 266.528314 145.943918 
L 267.278586 152.704651 
L 268.216427 159.106442 
L 270.092107 171.027353 
L 270.467244 171.98807 
L 271.592652 174.149398 
L 272.155356 175.216311 
L 273.655901 177.229963 
L 276.469422 181.028773 
L 277.594831 181.958757 
L 277.782399 181.982028 
L 277.969967 181.885852 
L 278.345103 181.288866 
L 279.845648 177.780974 
L 280.220784 177.534991 
L 280.59592 177.810635 
L 281.346192 178.805432 
L 281.721329 178.952649 
L 282.096465 178.842553 
L 282.471601 178.394879 
L 283.034305 177.079011 
L 285.47269 170.880334 
L 286.035394 170.22706 
L 286.973235 169.72046 
L 287.911075 168.480684 
L 288.286211 167.292507 
L 288.661348 165.05079 
L 289.41162 158.098171 
L 290.724597 144.20018 
L 291.287301 135.694593 
L 291.850005 124.120721 
L 292.600277 103.029884 
L 293.725686 69.433689 
L 294.100822 63.249985 
L 294.475958 60.645324 
L 294.663526 60.344597 
L 294.851094 60.445087 
L 295.413799 61.600825 
L 295.788935 62.599257 
L 296.164071 64.725403 
L 296.539207 69.448779 
L 296.914343 77.454292 
L 297.852184 105.3174 
L 298.790024 130.402402 
L 299.352728 140.872435 
L 299.915433 147.715438 
L 300.665705 153.324899 
L 301.415977 157.546144 
L 301.791113 158.830005 
L 302.16625 159.366427 
L 302.541386 159.35815 
L 303.291658 158.897342 
L 303.666794 158.444191 
L 304.04193 157.702026 
L 304.417067 156.57154 
L 304.979771 153.987742 
L 305.542475 149.76147 
L 306.105179 143.154867 
L 306.855452 131.06459 
L 308.543564 102.83391 
L 308.918701 100.249702 
L 309.293837 99.28298 
L 309.856541 98.88674 
L 310.231677 98.514284 
L 310.794381 97.374341 
L 311.357086 95.605162 
L 312.294926 91.927048 
L 312.482494 91.839805 
L 312.670062 92.179406 
L 313.045198 94.034344 
L 313.795471 100.094161 
L 314.545743 105.956845 
L 314.920879 107.814458 
L 315.108447 108.339522 
L 315.296015 108.529581 
L 315.483583 108.334898 
L 315.671152 107.735168 
L 316.046288 105.4043 
L 316.608992 99.667549 
L 317.546832 86.639337 
L 318.297105 76.230588 
L 318.672241 72.830516 
L 318.859809 71.938108 
L 319.047377 71.645483 
L 319.234945 71.907914 
L 319.610081 73.631792 
L 321.110626 82.541219 
L 322.423603 86.692446 
L 322.798739 89.604155 
L 323.173875 94.305179 
L 323.736579 104.359204 
L 325.799828 145.721154 
L 326.5501 155.59402 
L 327.300373 162.470908 
L 328.425781 170.972561 
L 329.176054 174.477505 
L 329.926326 177.225894 
L 330.48903 178.528821 
L 331.426871 180.530313 
L 332.177143 182.4309 
L 332.552279 182.865748 
L 332.927415 182.827277 
L 333.302551 182.649458 
L 333.490119 182.678829 
L 333.865256 183.123727 
L 334.990664 185.181476 
L 335.178232 185.26671 
L 335.3658 185.194752 
L 335.740936 184.649986 
L 336.491209 183.377028 
L 336.866345 183.207818 
L 337.053913 183.347364 
L 337.429049 184.08308 
L 338.179321 185.761718 
L 338.554458 186.021654 
L 339.679866 185.910766 
L 340.055002 185.698365 
L 340.430138 185.410226 
L 340.617707 185.369413 
L 340.992843 185.649274 
L 341.555547 186.354299 
L 341.930683 186.464732 
L 342.305819 186.173214 
L 343.056092 184.849553 
L 343.618796 184.146755 
L 344.556636 183.178516 
L 344.931772 182.854064 
L 345.306909 182.827525 
L 345.682045 183.158471 
L 346.057181 183.927517 
L 347.557726 187.822854 
L 348.12043 188.772687 
L 348.495566 189.153797 
L 348.870702 189.204152 
L 349.620975 189.072525 
L 349.996111 189.037431 
L 350.933951 188.708604 
L 351.684223 189.059598 
L 351.871792 188.968185 
L 352.246928 188.367394 
L 352.9972 186.841596 
L 353.559904 186.371362 
L 353.93504 186.226617 
L 354.122609 186.243026 
L 354.310177 186.37248 
L 354.685313 187.024729 
L 355.248017 188.210191 
L 355.623153 188.48919 
L 356.185857 188.549053 
L 356.93613 188.989912 
L 357.311266 188.730147 
L 358.811811 186.758394 
L 358.999379 186.778752 
L 359.374515 187.15019 
L 360.87506 189.462298 
L 361.250196 189.562143 
L 361.625332 189.204052 
L 362.563172 187.665088 
L 363.125877 187.293945 
L 363.501013 187.212177 
L 364.251285 187.489925 
L 365.75183 187.88736 
L 366.126966 187.63705 
L 366.68967 187.183661 
L 367.064806 187.323598 
L 367.627511 187.858828 
L 367.815079 187.900483 
L 368.190215 187.634704 
L 368.752919 186.604019 
L 369.315623 185.57789 
L 369.878328 184.952595 
L 370.441032 184.629908 
L 370.816168 184.614412 
L 371.191304 184.931721 
L 371.56644 185.665068 
L 372.316713 187.300782 
L 372.691849 187.61342 
L 373.066985 187.585078 
L 374.004825 187.281695 
L 374.379961 187.386325 
L 374.942666 187.702605 
L 375.317802 187.571821 
L 375.880506 186.847949 
L 376.44321 186.23215 
L 377.381051 185.788392 
L 378.131323 185.534505 
L 378.694027 185.465597 
L 379.069164 185.687837 
L 379.4443 186.29588 
L 380.569708 188.831842 
L 380.757276 188.898505 
L 381.132412 188.668338 
L 381.507549 188.123231 
L 381.882685 187.257548 
L 383.195661 183.291779 
L 384.133502 182.053653 
L 384.696206 180.54146 
L 385.634046 177.995803 
L 386.947023 173.849423 
L 388.072432 170.551308 
L 388.822704 168.343868 
L 389.385408 166.122387 
L 389.760544 163.670592 
L 390.323249 157.669053 
L 391.073521 146.01332 
L 392.198929 124.269621 
L 393.13677 101.012028 
L 394.637314 61.076803 
L 395.200019 52.844635 
L 395.575155 49.623587 
L 395.950291 48.262782 
L 396.137859 48.42799 
L 396.325427 49.23488 
L 396.700563 52.870154 
L 397.263268 62.848054 
L 399.326517 106.493353 
L 399.889221 112.425806 
L 400.264357 114.685552 
L 400.639493 115.89978 
L 400.827061 116.105164 
L 401.014629 115.999502 
L 401.202197 115.542637 
L 401.577334 113.479365 
L 402.140038 107.854884 
L 403.077878 95.110339 
L 404.578423 73.379392 
L 404.953559 71.056384 
L 405.141127 70.760627 
L 405.328695 71.079018 
L 405.516263 72.000398 
L 405.891399 75.49456 
L 406.454104 83.895746 
L 407.204376 99.062442 
L 409.267625 145.825423 
L 410.017897 156.363104 
L 411.143306 168.192187 
L 411.893578 173.650019 
L 412.831418 178.924221 
L 413.394123 180.790637 
L 413.956827 181.920407 
L 414.519531 182.572302 
L 414.894667 182.706888 
L 415.457372 182.74327 
L 415.832508 183.117749 
L 416.58278 184.24565 
L 416.957916 184.413286 
L 417.333052 184.220473 
L 418.083325 183.557989 
L 418.270893 183.591431 
L 418.646029 184.078503 
L 419.208733 185.5565 
L 420.146574 188.160995 
L 420.52171 188.817244 
L 420.896846 189.067756 
L 421.271982 189.018475 
L 422.022255 188.536419 
L 423.147663 187.58626 
L 424.085503 186.794005 
L 424.46064 186.862079 
L 424.835776 187.292793 
L 425.39848 188.07848 
L 425.773616 188.289742 
L 426.33632 188.20104 
L 427.274161 187.792378 
L 427.836865 188.219889 
L 428.212001 188.361367 
L 428.774706 188.156171 
L 429.33741 187.930042 
L 429.712546 187.996998 
L 430.27525 188.165093 
L 430.650386 187.909742 
L 431.963363 186.368454 
L 432.526067 186.257001 
L 432.901203 186.336274 
L 433.463908 186.801863 
L 433.839044 187.103028 
L 434.21418 187.161611 
L 434.589316 186.897571 
L 435.339588 186.00568 
L 435.714725 185.9551 
L 436.277429 186.190174 
L 436.652565 186.504728 
L 437.027701 187.138976 
L 437.965542 189.25093 
L 438.340678 189.481487 
L 439.653654 189.864451 
L 440.028791 189.772822 
L 440.403927 189.935958 
L 440.966631 190.397801 
L 441.341767 190.384059 
L 441.904471 190.303928 
L 442.842312 190.575263 
L 443.592584 190.441639 
L 443.96772 190.637941 
L 444.717993 191.388773 
L 445.280697 191.994103 
L 445.655833 192.131726 
L 446.218537 192.244474 
L 446.96881 192.707432 
L 447.343946 192.596299 
L 448.094218 192.26358 
L 448.656922 192.11359 
L 449.219627 191.68323 
L 449.594763 191.145756 
L 450.532603 189.332511 
L 450.720171 189.268476 
L 451.095307 189.514562 
L 451.658012 190.179408 
L 451.84558 190.250239 
L 452.220716 190.032379 
L 452.78342 189.499997 
L 453.158556 189.377498 
L 453.721261 189.455262 
L 454.471533 189.877042 
L 455.221805 190.524891 
L 456.347214 191.749489 
L 456.909918 191.789528 
L 458.973167 191.801762 
L 459.723439 191.584692 
L 460.66128 191.756588 
L 461.036416 191.434794 
L 461.411552 190.627923 
L 462.53696 187.38735 
L 463.662369 185.632422 
L 464.225073 184.433251 
L 464.600209 184.089544 
L 464.975346 184.062633 
L 465.53805 184.313282 
L 465.913186 184.673775 
L 466.288322 185.324428 
L 468.164003 189.388127 
L 469.101843 190.768156 
L 469.664548 191.277712 
L 470.602388 191.718028 
L 470.977524 191.713705 
L 471.35266 191.444747 
L 471.727797 190.768721 
L 473.040773 187.315658 
L 473.415909 187.093821 
L 474.166182 187.00448 
L 475.104022 186.38785 
L 475.479158 186.408436 
L 475.854294 186.602517 
L 476.229431 187.047147 
L 477.167271 188.421463 
L 477.542407 188.465723 
L 478.105111 188.25135 
L 478.292679 188.319301 
L 478.667816 188.872379 
L 479.418088 190.265129 
L 479.793224 190.489777 
L 480.731064 190.81189 
L 481.668905 191.649069 
L 482.044041 191.572281 
L 482.606745 190.959403 
L 482.981881 190.588225 
L 483.16945 190.552149 
L 483.544586 190.849936 
L 484.482426 192.136498 
L 484.857562 192.285677 
L 485.982971 192.413357 
L 486.170539 192.244915 
L 486.545675 191.438651 
L 487.295947 189.486561 
L 487.671084 189.103869 
L 488.04622 189.077676 
L 488.98406 189.289889 
L 489.734332 189.062235 
L 490.672173 188.873663 
L 491.047309 189.043287 
L 491.610013 189.637481 
L 492.360286 190.674991 
L 492.735422 190.838625 
L 493.110558 190.679348 
L 493.673262 190.007518 
L 494.423535 188.95884 
L 494.798671 188.800521 
L 495.173807 189.090475 
L 495.548943 189.354377 
L 495.736511 189.282384 
L 496.674352 188.307822 
L 497.049488 188.479298 
L 498.362464 189.586583 
L 498.7376 189.648276 
L 499.112737 189.972326 
L 499.675441 190.679607 
L 500.050577 190.845291 
L 501.175986 191.025975 
L 501.551122 191.476515 
L 502.113826 192.275938 
L 502.488962 192.478888 
L 502.864098 192.334827 
L 504.927347 190.425898 
L 505.302483 190.208085 
L 506.240324 190.089359 
L 506.61546 190.015231 
L 506.803028 190.148244 
L 507.178164 190.866932 
L 507.928437 192.723494 
L 508.303573 193.183711 
L 509.053845 193.645891 
L 509.241413 193.634174 
L 509.428981 193.490171 
L 509.804117 192.757567 
L 510.741958 190.371057 
L 510.929526 190.206411 
L 511.117094 190.229892 
L 511.49223 190.738448 
L 512.054934 191.643848 
L 512.805207 192.342061 
L 513.367911 192.664478 
L 514.868456 192.89166 
L 515.43116 192.748101 
L 516.181432 192.458402 
L 517.119273 192.566377 
L 517.494409 192.537414 
L 517.869545 192.33682 
L 518.432249 191.757629 
L 519.37009 190.347484 
L 520.120362 189.039226 
L 520.495498 188.814012 
L 522.371179 188.81471 
L 522.746315 188.568371 
L 523.496587 187.93383 
L 523.871724 187.931478 
L 524.24686 188.396812 
L 525.1847 190.230169 
L 525.559836 190.38952 
L 526.685245 190.017734 
L 527.060381 190.408232 
L 527.998221 191.887809 
L 528.185789 191.910908 
L 528.560926 191.560394 
L 529.498766 189.878357 
L 529.686334 189.826848 
L 529.873902 189.939608 
L 530.249038 190.525283 
L 530.999311 191.931814 
L 531.374447 192.124329 
L 531.562015 191.985532 
L 531.937151 191.248537 
L 533.06256 188.489939 
L 533.437696 188.005642 
L 533.812832 187.831384 
L 534.0004 187.903105 
L 534.375536 188.428255 
L 535.313377 190.354353 
L 535.688513 190.654013 
L 536.063649 190.663538 
L 536.626353 190.475241 
L 537.001489 190.569552 
L 537.376626 190.732218 
L 537.751762 190.62952 
L 538.87717 189.751665 
L 539.439874 189.69057 
L 540.002579 189.885625 
L 540.377715 189.983543 
L 540.752851 189.824341 
L 541.315555 189.541101 
L 541.690691 189.573186 
L 542.065828 189.88362 
L 543.003668 191.164713 
L 543.941508 192.595976 
L 544.316645 192.619835 
L 545.066917 192.122069 
L 545.629621 191.464592 
L 546.75503 189.71439 
L 547.130166 189.533986 
L 547.505302 189.539342 
L 548.068006 189.805568 
L 548.818279 190.502674 
L 549.756119 191.413281 
L 550.131255 191.298483 
L 550.693959 190.683901 
L 551.256664 189.721936 
L 551.6318 189.103236 
L 551.819368 188.964428 
L 552.006936 188.984879 
L 552.382072 189.42976 
L 552.944776 190.26884 
L 553.507481 190.669832 
L 554.257753 191.047196 
L 554.632889 190.899625 
L 555.195593 190.546592 
L 555.57073 190.511494 
L 555.945866 190.642678 
L 556.321002 191.039452 
L 557.071274 191.99452 
L 557.44641 192.059775 
L 557.821547 191.944379 
L 558.384251 191.460688 
L 558.946955 190.938688 
L 559.322091 190.898602 
L 559.697227 191.203126 
L 560.4475 192.100209 
L 560.635068 192.169246 
L 560.822636 192.115746 
L 561.197772 191.650382 
L 561.948044 190.485798 
L 562.323181 190.268671 
L 562.698317 190.333401 
L 563.448589 190.885038 
L 563.636157 190.857043 
L 564.011293 190.49324 
L 564.761566 189.688602 
L 565.511838 189.061339 
L 565.886974 189.066 
L 566.637246 189.520691 
L 567.199951 190.1096 
L 568.137791 191.423683 
L 568.700495 192.601842 
L 569.450768 194.172136 
L 569.825904 194.360531 
L 570.20104 194.112097 
L 570.763744 193.725307 
L 571.326449 193.549399 
L 572.264289 192.870041 
L 573.577266 191.729873 
L 574.890242 192.135581 
L 575.640514 192.85262 
L 576.765923 194.556955 
L 577.141059 194.411308 
L 577.516195 193.866973 
L 577.891331 192.941458 
L 579.01674 189.64768 
L 579.391876 189.305187 
L 580.142148 189.143423 
L 580.704853 189.136278 
L 580.892421 189.28219 
L 581.267557 190.029912 
L 582.392965 193.56837 
L 582.580534 193.660609 
L 582.95567 193.485534 
L 583.89351 192.833783 
L 584.268646 192.73481 
L 584.83135 192.73009 
L 585.206487 192.34301 
L 586.707031 189.793024 
L 587.644872 188.97756 
L 587.83244 188.967646 
L 588.207576 189.301861 
L 588.957848 190.388001 
L 589.520553 190.785859 
L 590.083257 191.179014 
L 590.833529 191.875038 
L 591.021097 191.891663 
L 591.208665 191.762364 
L 591.583801 191.041826 
L 592.70921 188.116396 
L 593.084346 187.844032 
L 593.64705 187.793393 
L 594.209755 188.100083 
L 594.584891 188.478426 
L 594.960027 189.182139 
L 596.085435 192.260867 
L 596.460572 192.644553 
L 596.835708 192.764602 
L 597.210844 192.494451 
L 600.024365 188.664733 
L 600.399501 188.757042 
L 600.962206 189.016703 
L 601.337342 188.918224 
L 602.087614 188.297855 
L 602.46275 188.39406 
L 603.213023 188.861562 
L 603.588159 188.965351 
L 603.963295 189.327737 
L 604.713567 190.301454 
L 605.088703 190.243575 
L 606.40168 189.513307 
L 607.151952 189.269003 
L 607.902225 189.107213 
L 608.277361 188.696848 
L 609.402769 187.001318 
L 609.590337 186.993682 
L 609.965474 187.4098 
L 610.528178 188.75686 
L 611.27845 190.468097 
L 611.653586 190.794097 
L 612.216291 190.692551 
L 612.778995 190.72603 
L 613.154131 190.752962 
L 613.529267 190.594391 
L 614.091971 190.021291 
L 614.842244 189.172074 
L 615.404948 188.863773 
L 615.780084 188.935496 
L 616.717925 189.544591 
L 617.093061 189.329656 
L 617.655765 188.771695 
L 618.030901 188.749539 
L 618.406037 189.143313 
L 619.15631 190.271872 
L 619.531446 190.362615 
L 619.906582 190.042532 
L 621.03199 188.690664 
L 621.407127 188.665586 
L 621.782263 188.945565 
L 622.532535 189.90282 
L 623.095239 190.611774 
L 624.03308 191.216468 
L 624.97092 192.022553 
L 625.533624 192.435356 
L 626.096329 192.503398 
L 626.471465 192.392424 
L 626.846601 191.954722 
L 627.221737 191.010409 
L 628.159578 188.245322 
L 628.347146 188.122986 
L 628.534714 188.228123 
L 628.90985 188.965633 
L 629.660122 190.699119 
L 630.410395 191.723466 
L 630.785531 191.92589 
L 631.160667 191.847145 
L 631.535803 191.565316 
L 631.910939 191.019288 
L 632.473644 189.633161 
L 633.223916 187.647629 
L 633.599052 187.163132 
L 633.78662 187.132436 
L 634.161756 187.422158 
L 635.474733 189.284346 
L 635.849869 189.184077 
L 636.412573 188.525966 
L 637.537982 187.148735 
L 637.913118 186.998545 
L 638.288254 187.219753 
L 638.850958 188.120281 
L 639.601231 189.910613 
L 640.539071 192.276203 
L 640.726639 192.443233 
L 640.914207 192.428322 
L 641.289343 191.967004 
L 641.852048 191.058186 
L 642.227184 190.844548 
L 642.60232 191.046248 
L 643.352592 191.713042 
L 643.727729 191.820287 
L 644.102865 191.737184 
L 644.665569 191.322804 
L 645.228273 190.519111 
L 645.978546 189.080606 
L 647.103954 186.366386 
L 647.47909 186.024567 
L 647.854226 186.02499 
L 648.604499 186.40236 
L 648.979635 186.813741 
L 649.542339 187.89404 
L 650.292611 189.356696 
L 650.667748 189.705231 
L 651.042884 189.786301 
L 651.41802 189.476334 
L 652.168292 188.659623 
L 652.543428 188.512461 
L 653.106133 188.580274 
L 653.668837 188.838218 
L 654.231541 189.160926 
L 654.606677 189.111198 
L 655.169382 188.952166 
L 655.544518 189.020541 
L 655.919654 189.310689 
L 656.669926 190.404191 
L 657.795335 192.131804 
L 657.982903 192.2086 
L 658.170471 192.12936 
L 658.545607 191.48302 
L 660.046152 187.420752 
L 660.23372 187.286799 
L 660.421288 187.331619 
L 660.796424 187.869046 
L 661.359128 188.844953 
L 662.109401 189.944833 
L 663.047241 192.052272 
L 663.234809 192.071316 
L 663.422377 191.860928 
L 663.985081 190.466296 
L 664.547786 189.369728 
L 666.235898 187.937927 
L 666.611035 187.848979 
L 666.986171 188.167429 
L 667.736443 189.247307 
L 668.111579 189.410959 
L 668.486715 189.285912 
L 669.236988 188.919853 
L 669.98726 188.758653 
L 670.362396 188.361399 
L 671.112669 187.357211 
L 672.425645 186.473595 
L 672.988349 185.870966 
L 673.363486 185.740103 
L 673.738622 185.792728 
L 674.676462 186.171852 
L 675.614303 186.115915 
L 676.927279 186.715977 
L 677.489983 187.136446 
L 678.240256 187.357924 
L 678.615392 187.91387 
L 679.365664 189.193783 
L 680.491073 190.164232 
L 680.678641 190.14138 
L 680.866209 189.955748 
L 681.241345 189.075073 
L 681.804049 187.445212 
L 682.179186 186.950029 
L 682.74189 186.765522 
L 683.117026 186.828707 
L 683.67973 187.213555 
L 684.430003 187.947551 
L 685.180275 188.875755 
L 685.555411 188.871494 
L 686.305683 188.283755 
L 687.431092 187.362144 
L 687.806228 187.425462 
L 688.368932 187.98227 
L 689.681909 189.404027 
L 690.994885 191.278675 
L 691.370022 191.392612 
L 691.745158 191.118743 
L 693.43327 188.705895 
L 693.995975 187.825232 
L 694.371111 187.665035 
L 694.746247 187.874614 
L 695.308951 188.550705 
L 695.871656 189.601342 
L 696.43436 190.760687 
L 696.809496 191.042073 
L 696.997064 190.971551 
L 697.3722 190.456915 
L 698.685177 187.678438 
L 699.060313 187.591476 
L 699.435449 187.96129 
L 700.185721 188.942926 
L 700.748426 189.296524 
L 701.123562 189.276171 
L 701.498698 188.911825 
L 703.749515 185.934608 
L 704.124651 185.815203 
L 704.499787 186.184345 
L 705.062492 186.785471 
L 705.437628 186.856875 
L 706.000332 186.7165 
L 706.375468 186.311425 
L 707.500877 184.533804 
L 707.876013 184.600837 
L 708.438717 185.11482 
L 708.813853 185.610693 
L 709.376558 186.839076 
L 709.939262 187.929957 
L 710.12683 188.01661 
L 710.501966 187.768413 
L 710.877102 187.442871 
L 711.252238 187.470704 
L 712.002511 187.88642 
L 713.503055 188.01032 
L 713.878192 187.599796 
L 715.378736 185.25776 
L 715.566304 185.280908 
L 715.94144 185.684633 
L 717.066849 187.697729 
L 717.629553 188.247959 
L 718.004689 188.666315 
L 718.379826 188.711154 
L 719.317666 188.045399 
L 720.255506 188.153925 
L 720.630643 187.752421 
L 721.568483 186.098438 
L 721.943619 185.980339 
L 722.318755 186.284379 
L 722.693891 186.993508 
L 723.256596 188.223649 
L 723.631732 188.562438 
L 724.006868 188.410654 
L 725.319845 187.055119 
L 725.694981 187.126748 
L 726.070117 187.572215 
L 726.632821 188.386207 
L 727.007957 188.559429 
L 727.945798 188.635125 
L 728.320934 188.347757 
L 729.821479 186.839674 
L 730.196615 186.773096 
L 730.571751 187.087922 
L 731.322023 188.405203 
L 731.884727 189.143683 
L 732.259864 189.282882 
L 733.57284 189.214307 
L 733.947976 189.006633 
L 734.323113 188.39064 
L 735.260953 185.831934 
L 735.448521 185.652916 
L 735.636089 185.640634 
L 736.011225 186.015376 
L 737.136634 187.744146 
L 738.074474 188.856299 
L 738.44961 189.217002 
L 738.637178 189.234505 
L 739.012315 188.942323 
L 739.575019 188.352943 
L 739.950155 188.269607 
L 740.325291 188.478733 
L 741.075564 189.278948 
L 741.263132 189.301655 
L 741.638268 188.970184 
L 743.138812 186.584587 
L 743.513949 186.392983 
L 743.889085 186.481878 
L 744.264221 186.911975 
L 745.577198 188.829259 
L 745.952334 189.005961 
L 746.702606 189.090714 
L 747.26531 189.390279 
L 747.452878 189.376075 
L 747.828015 189.006149 
L 748.390719 187.865549 
L 749.140991 186.271846 
L 749.328559 186.101282 
L 749.516127 186.098875 
L 749.891263 186.545704 
L 750.641536 187.782072 
L 751.20424 188.160748 
L 751.579376 188.221649 
L 751.954512 188.081018 
L 752.329649 187.725788 
L 752.892353 186.727302 
L 753.642625 185.259213 
L 754.205329 184.531244 
L 754.580466 184.32634 
L 754.955602 184.430246 
L 758.144259 186.750967 
L 758.706963 187.556929 
L 759.0821 187.689912 
L 759.457236 187.287407 
L 760.582644 185.257698 
L 760.95778 185.105686 
L 761.520485 185.213875 
L 762.083189 185.68916 
L 762.458325 185.95213 
L 763.021029 186.164265 
L 763.396165 186.897818 
L 764.521574 190.656306 
L 764.709142 190.844613 
L 764.89671 190.818948 
L 765.271846 190.240445 
L 766.209687 188.033642 
L 768.460504 185.730676 
L 769.210776 185.400293 
L 770.148616 185.211431 
L 770.898889 185.230589 
L 771.461593 185.174532 
L 771.836729 185.421147 
L 772.587001 186.116041 
L 772.77457 186.08782 
L 773.149706 185.670162 
L 774.275114 183.740849 
L 774.837818 182.987455 
L 775.775659 181.359477 
L 775.963227 181.320653 
L 776.338363 181.594793 
L 776.713499 182.233563 
L 778.214044 185.628504 
L 778.58918 185.800715 
L 779.527021 185.616467 
L 780.089725 185.361563 
L 780.839997 184.669363 
L 781.402701 184.253692 
L 781.777838 184.209078 
L 782.152974 184.502747 
L 782.903246 185.332655 
L 783.278382 185.294903 
L 783.841086 185.157311 
L 784.778927 185.373927 
L 786.654608 184.451552 
L 787.217312 184.074981 
L 787.780016 183.438371 
L 788.530289 182.545941 
L 789.280561 181.924539 
L 790.030833 181.062472 
L 790.405969 181.095522 
L 790.781106 181.255557 
L 791.156242 181.129428 
L 792.469218 179.85828 
L 792.844354 179.87377 
L 793.407059 180.229368 
L 793.782195 180.396291 
L 794.157331 180.220916 
L 795.095171 179.328534 
L 795.470308 179.368214 
L 796.033012 179.583187 
L 796.408148 179.330272 
L 797.345988 177.922669 
L 798.846533 175.656006 
L 799.409237 173.547857 
L 800.347078 168.76312 
L 801.09735 164.09918 
L 802.410327 154.973612 
L 802.785463 153.939731 
L 802.973031 153.997758 
L 803.160599 154.42992 
L 803.535735 156.134987 
L 805.03628 164.276875 
L 805.598984 165.705662 
L 805.97412 166.09717 
L 806.161688 166.124014 
L 806.349256 166.019143 
L 806.724393 165.46358 
L 807.287097 164.525645 
L 807.662233 164.229956 
L 809.162778 163.52128 
L 809.91305 162.72984 
L 810.288186 162.602751 
L 811.226027 162.494903 
L 812.351435 162.104281 
L 813.101707 161.219164 
L 813.85198 160.3688 
L 814.414684 160.171397 
L 814.78982 159.984864 
L 815.164956 159.482676 
L 815.540092 158.521379 
L 816.102797 156.107047 
L 818.72875 142.559689 
L 819.291454 141.182096 
L 819.854158 140.161738 
L 820.416863 138.287997 
L 821.354703 134.253789 
L 822.66768 128.009617 
L 823.417952 124.602105 
L 823.980656 120.804522 
L 824.730929 113.80991 
L 825.481201 104.177546 
L 826.043905 97.833201 
L 826.231473 97.165879 
L 826.419041 97.49575 
L 826.794177 100.516135 
L 827.732018 110.141557 
L 828.294722 113.902127 
L 829.044994 117.243678 
L 829.607699 118.777414 
L 830.170403 119.55641 
L 830.545539 119.719064 
L 831.108243 119.506392 
L 831.670948 119.179534 
L 832.046084 118.730972 
L 833.35906 116.406178 
L 833.546628 116.3307 
L 833.734196 116.401866 
L 834.109333 116.879091 
L 834.859605 117.914926 
L 835.047173 117.983724 
L 835.422309 117.779253 
L 836.172582 117.143615 
L 836.735286 116.869172 
L 837.485558 116.252852 
L 837.673126 116.23076 
L 837.860694 116.339204 
L 838.23583 117.065244 
L 838.798535 119.259393 
L 839.361239 121.568922 
L 839.736375 122.375465 
L 839.923943 122.387035 
L 840.111511 122.081594 
L 840.486647 120.538052 
L 841.987192 111.313646 
L 842.362328 106.757089 
L 842.925033 95.588586 
L 843.675305 77.407289 
L 843.862873 75.300845 
L 844.050441 75.532449 
L 844.238009 78.372328 
L 844.613145 90.10651 
L 845.363418 115.961162 
L 845.926122 127.530424 
L 846.301258 131.902949 
L 846.676394 134.507104 
L 847.239098 136.910516 
L 847.801803 138.356461 
L 848.364507 139.010349 
L 848.927211 139.320729 
L 849.302347 139.221062 
L 850.05262 138.70514 
L 850.615324 137.879557 
L 851.178028 137.083729 
L 851.365596 137.00198 
L 851.553164 137.059332 
L 851.928301 137.544502 
L 853.241277 139.919329 
L 853.616413 140.275646 
L 854.179118 140.446774 
L 855.492094 140.495864 
L 856.054798 140.24116 
L 856.429935 140.033641 
L 856.617503 140.028041 
L 856.805071 140.169994 
L 856.992639 140.515274 
L 857.367775 141.910953 
L 858.493183 147.32254 
L 858.86832 147.930085 
L 861.119137 150.087478 
L 861.494273 150.670785 
L 861.869409 151.635044 
L 862.432113 153.834394 
L 863.557522 159.548795 
L 864.120226 161.996248 
L 864.495362 162.895403 
L 864.870498 163.158536 
L 865.245634 163.077951 
L 866.746179 162.45414 
L 867.308883 162.358987 
L 867.684019 162.081033 
L 868.246724 161.641491 
L 868.62186 161.666863 
L 869.184564 161.959094 
L 869.5597 162.518058 
L 870.122405 164.028047 
L 870.872677 166.89612 
L 872.185653 172.072627 
L 872.935926 173.922154 
L 873.49863 175.527946 
L 874.248902 177.888269 
L 874.624039 178.392805 
L 874.999175 178.383254 
L 875.561879 178.229943 
L 876.874856 178.532654 
L 877.249992 178.924482 
L 877.812696 179.972118 
L 879.125673 182.712323 
L 879.500809 183.023075 
L 880.438649 183.309906 
L 881.001353 183.976047 
L 881.751626 184.935412 
L 882.126762 185.12049 
L 882.877034 185.248619 
L 883.439738 185.804037 
L 884.190011 186.680757 
L 884.565147 186.782894 
L 884.940283 186.669632 
L 885.690555 186.226282 
L 885.878124 186.262948 
L 886.25326 186.681447 
L 887.378668 188.607552 
L 888.128941 189.534068 
L 888.691645 190.693441 
L 889.254349 191.777111 
L 889.629485 192.042339 
L 890.004621 192.033768 
L 890.379758 191.786972 
L 891.880302 190.318628 
L 892.255438 190.421772 
L 892.818143 190.657033 
L 893.193279 190.632788 
L 893.568415 190.408264 
L 893.943551 189.868026 
L 894.506255 188.956372 
L 894.881392 188.810666 
L 895.256528 188.793326 
L 895.631664 188.546707 
L 896.381936 187.906414 
L 896.94464 187.835012 
L 897.319777 187.783097 
L 897.694913 187.439057 
L 898.257617 186.373787 
L 899.195457 184.649537 
L 899.94573 183.013059 
L 900.508434 181.900727 
L 900.88357 181.42888 
L 901.258706 181.314187 
L 901.633843 181.715348 
L 902.759251 183.664808 
L 903.134387 183.791796 
L 903.509523 183.609943 
L 904.259796 183.011428 
L 904.634932 183.116199 
L 905.010068 183.603146 
L 905.947908 185.195265 
L 906.323045 185.330399 
L 906.698181 184.955165 
L 907.448453 183.431066 
L 909.69927 178.639769 
L 910.261974 176.343621 
L 913.825768 158.135088 
L 914.388472 154.043634 
L 914.951176 148.415974 
L 915.513881 140.693609 
L 916.076585 130.557202 
L 916.826857 112.179116 
L 917.57713 87.898553 
L 918.327402 54.308331 
L 918.890106 19.16928 
L 919.144329 -1 
M 925.50688 -1 
L 926.017693 45.974672 
L 926.580398 82.068527 
L 927.33067 115.06419 
L 927.893374 132.11711 
L 928.643646 147.666708 
L 929.393919 158.66924 
L 930.144191 166.215243 
L 930.706895 170.207252 
L 931.2696 172.810094 
L 932.019872 175.646943 
L 932.957712 179.690884 
L 933.332849 180.446626 
L 934.270689 181.576869 
L 935.020961 183.208594 
L 935.958802 185.749456 
L 936.709074 187.869752 
L 937.08421 188.313225 
L 937.271778 188.27376 
L 938.209619 187.574253 
L 938.584755 187.969887 
L 939.897731 190.257109 
L 940.272868 190.416102 
L 940.835572 190.31727 
L 942.148548 189.832936 
L 944.399365 187.408608 
L 944.586933 187.351703 
L 944.774502 187.433218 
L 945.712342 188.409166 
L 946.275046 188.206353 
L 946.462614 188.293751 
L 946.83775 188.940947 
L 948.150727 192.401071 
L 948.525863 192.83254 
L 948.713431 192.883632 
L 949.088567 192.60539 
L 949.651272 191.884128 
L 950.026408 191.84795 
L 950.964248 192.385383 
L 951.339384 192.186355 
L 953.402633 189.831634 
L 953.77777 189.505046 
L 953.965338 189.521065 
L 954.71561 190.051711 
L 955.090746 189.86959 
L 956.028587 188.874414 
L 956.403723 188.935653 
L 957.341563 189.691001 
L 957.716699 189.522874 
L 958.091835 188.975496 
L 959.217244 187.024043 
L 959.59238 186.769299 
L 960.342652 186.426943 
L 960.717789 186.256625 
L 961.092925 186.315222 
L 962.781038 187.31046 
L 963.156174 188.02398 
L 963.906446 189.709907 
L 964.281582 189.929978 
L 964.656718 189.744141 
L 965.782127 188.722671 
L 966.532399 188.496965 
L 967.095103 188.024032 
L 968.032944 187.156201 
L 968.220512 187.237281 
L 968.595648 187.831453 
L 969.158352 188.955316 
L 969.533489 189.268615 
L 969.908625 189.197166 
L 970.658897 188.7907 
L 971.034033 188.887624 
L 971.409169 189.277178 
L 971.971874 190.295576 
L 972.909714 192.118104 
L 973.28485 192.348141 
L 973.659986 192.071334 
L 974.597827 190.898253 
L 974.972963 190.734824 
L 975.348099 190.86309 
L 975.910803 191.178433 
L 976.285939 191.014168 
L 977.22378 190.166007 
L 977.598916 190.149871 
L 977.974052 190.443005 
L 979.287029 192.09443 
L 979.662165 192.012945 
L 980.224869 191.781123 
L 980.787573 191.879181 
L 981.16271 192.03887 
L 981.537846 192.468359 
L 983.03839 195.138798 
L 983.413527 195.40509 
L 983.788663 195.40245 
L 984.163799 195.022835 
L 984.538935 194.170155 
L 985.289207 192.36526 
L 985.664344 191.998505 
L 986.03948 191.896994 
L 986.602184 192.045432 
L 987.540024 192.465801 
L 988.102729 192.570333 
L 988.477865 192.416836 
L 989.040569 191.846768 
L 989.790841 190.638066 
L 990.728682 189.047746 
L 991.103818 188.632089 
L 991.478954 188.570854 
L 991.85409 188.92139 
L 992.979499 190.539883 
L 993.354635 190.247809 
L 994.292475 189.100675 
L 994.480044 189.087133 
L 994.85518 189.420009 
L 995.417884 190.469722 
L 995.980588 191.552178 
L 996.168156 191.732041 
L 996.355724 191.732546 
L 996.543292 191.516152 
L 996.918429 190.458468 
L 997.856269 187.230691 
L 998.231405 186.664152 
L 998.418973 186.561992 
L 998.606541 186.587409 
L 998.981678 187.057826 
L 1000.107086 189.433423 
L 1000.482222 189.517131 
L 1000.857358 189.282562 
L 1001.795199 188.355223 
L 1002.170335 188.399748 
L 1003.295743 189.115004 
L 1003.67088 189.213452 
L 1004.046016 189.589887 
L 1004.60872 190.822102 
L 1005.358992 192.57245 
L 1005.734129 192.989312 
L 1006.109265 193.045192 
L 1006.671969 192.888659 
L 1007.984946 192.222149 
L 1008.360082 192.468057 
L 1008.735218 193.173605 
L 1009.673058 195.600955 
L 1009.860626 195.784571 
L 1010.048194 195.754945 
L 1010.235762 195.483669 
L 1010.610899 194.295768 
L 1011.548739 190.520347 
L 1011.923875 189.745611 
L 1012.111443 189.652845 
L 1012.299011 189.7737 
L 1012.674148 190.535018 
L 1013.236852 191.840602 
L 1013.611988 192.276546 
L 1013.987124 192.340689 
L 1014.36226 192.07103 
L 1014.737396 191.763187 
L 1015.112533 191.753183 
L 1015.862805 192.121273 
L 1016.237941 192.019566 
L 1016.613077 191.566605 
L 1017.550918 189.772834 
L 1017.926054 189.60153 
L 1018.863894 189.621391 
L 1019.801735 189.491206 
L 1020.176871 189.915358 
L 1021.114711 191.303265 
L 1021.489847 191.401099 
L 1022.24012 191.353489 
L 1022.615256 191.579453 
L 1023.17796 192.300242 
L 1023.740664 192.975378 
L 1024.115801 193.147695 
L 1024.490937 193.095312 
L 1024.866073 192.785172 
L 1025.428777 191.808932 
L 1025.991481 190.832282 
L 1026.366618 190.543711 
L 1027.492026 190.299097 
L 1028.992571 188.943793 
L 1029.555275 188.963648 
L 1030.117979 189.007425 
L 1031.05582 188.841833 
L 1031.618524 189.125763 
L 1032.556364 189.62752 
L 1033.306637 189.853402 
L 1033.681773 189.69308 
L 1034.056909 189.207754 
L 1034.619613 188.015446 
L 1035.182318 186.893143 
L 1035.369886 186.775591 
L 1035.745022 186.962028 
L 1036.307726 187.425 
L 1037.057998 187.90463 
L 1037.620703 188.324742 
L 1038.183407 188.455387 
L 1038.746111 188.394701 
L 1039.121247 188.129436 
L 1039.87152 187.433036 
L 1040.246656 187.457054 
L 1040.621792 187.85804 
L 1042.497473 190.794046 
L 1042.685041 190.847131 
L 1043.060177 190.581398 
L 1044.373154 188.818193 
L 1045.123426 189.03846 
L 1045.498562 188.775257 
L 1046.061266 187.802127 
L 1046.623971 186.939983 
L 1046.811539 186.873582 
L 1047.186675 187.104966 
L 1047.936947 188.194478 
L 1048.874788 189.676091 
L 1049.249924 189.856497 
L 1050.187764 189.716256 
L 1050.5629 190.087993 
L 1051.875877 192.022576 
L 1052.251013 192.135977 
L 1053.001285 192.215593 
L 1053.376422 192.548669 
L 1053.939126 193.241708 
L 1054.314262 193.277478 
L 1055.627239 192.30239 
L 1056.002375 191.857846 
L 1056.940215 190.510283 
L 1057.690487 189.936397 
L 1058.253192 189.666957 
L 1058.628328 189.691728 
L 1059.003464 189.947469 
L 1059.753736 190.899668 
L 1060.504009 191.837868 
L 1060.879145 191.928335 
L 1061.254281 191.607795 
L 1061.816985 190.921726 
L 1062.192121 190.902151 
L 1062.754826 191.094188 
L 1063.129962 190.979033 
L 1063.692666 190.508299 
L 1064.067802 190.215466 
L 1064.442938 190.197252 
L 1065.193211 190.397407 
L 1065.568347 190.801032 
L 1066.693755 192.830437 
L 1067.068892 192.841815 
L 1067.444028 192.845331 
L 1067.819164 193.251547 
L 1068.757004 194.775395 
L 1069.132141 194.911665 
L 1069.507277 194.576339 
L 1070.069981 193.384481 
L 1070.820253 191.736288 
L 1071.195389 191.301425 
L 1071.570526 191.26486 
L 1071.945662 191.368765 
L 1072.320798 191.21819 
L 1073.446206 190.189337 
L 1075.509455 189.290571 
L 1075.884592 189.499954 
L 1076.634864 190.218763 
L 1077.385136 190.410861 
L 1077.760272 190.309549 
L 1078.885681 189.592006 
L 1079.448385 189.393439 
L 1079.823521 189.499754 
L 1080.198657 189.91066 
L 1080.761362 191.048643 
L 1081.699202 193.289605 
L 1082.074338 193.646185 
L 1082.449474 193.717753 
L 1083.012179 193.764917 
L 1083.574883 194.114565 
L 1084.512723 194.759646 
L 1084.887859 194.656818 
L 1085.450564 194.338007 
L 1085.8257 194.408881 
L 1086.200836 194.818211 
L 1086.76354 195.556284 
L 1087.138676 195.728489 
L 1087.513813 195.583046 
L 1087.888949 195.140583 
L 1088.826789 193.824927 
L 1089.389493 193.524235 
L 1090.514902 193.410861 
L 1091.077606 192.899869 
L 1091.452742 192.345219 
L 1092.390583 190.47463 
L 1092.578151 190.39706 
L 1092.953287 190.554955 
L 1093.891127 191.155321 
L 1094.266264 191.059245 
L 1094.6414 190.530953 
L 1095.954376 187.634322 
L 1096.329513 187.410682 
L 1097.267353 187.320151 
L 1097.642489 187.644479 
L 1098.205193 188.265891 
L 1099.51817 189.021709 
L 1100.643578 189.756377 
L 1101.018715 189.422745 
L 1101.581419 188.662534 
L 1101.956555 188.558353 
L 1102.331691 188.919081 
L 1102.706827 189.358505 
L 1103.081964 189.472945 
L 1103.644668 189.189512 
L 1104.39494 188.607797 
L 1104.957644 187.647389 
L 1105.520349 186.800687 
L 1106.833325 186.092973 
L 1107.396029 186.030153 
L 1107.958734 186.185806 
L 1108.33387 186.605759 
L 1109.27171 188.026028 
L 1110.021983 188.466632 
L 1110.584687 188.974834 
L 1110.772255 188.919367 
L 1111.147391 188.281061 
L 1111.897663 186.664938 
L 1112.2728 186.423125 
L 1112.647936 186.418583 
L 1113.023072 186.632233 
L 1113.585776 187.118467 
L 1113.960912 187.054825 
L 1114.898753 186.222581 
L 1115.273889 186.279042 
L 1115.649025 186.523323 
L 1116.024161 187.079672 
L 1117.14957 189.444928 
L 1117.337138 189.5432 
L 1117.524706 189.485857 
L 1117.899842 188.960275 
L 1118.650114 187.611153 
L 1119.025251 187.512766 
L 1119.587955 187.600441 
L 1119.963091 187.260245 
L 1121.276068 185.141421 
L 1121.651204 184.974483 
L 1122.02634 184.997566 
L 1123.339316 185.546777 
L 1124.089589 186.452633 
L 1125.590133 187.907251 
L 1125.96527 187.958409 
L 1126.340406 187.631296 
L 1127.278246 186.403344 
L 1127.84095 184.990441 
L 1128.403655 182.830328 
L 1128.966359 179.510561 
L 1129.716631 173.30142 
L 1130.279336 166.629356 
L 1130.84204 156.66263 
L 1131.592312 137.932901 
L 1132.342584 119.640412 
L 1132.530153 117.764353 
L 1132.717721 117.831909 
L 1132.905289 119.9077 
L 1133.280425 128.735782 
L 1134.405833 159.47972 
L 1134.968538 168.83119 
L 1135.531242 175.177971 
L 1136.093946 179.53108 
L 1136.65665 182.480677 
L 1137.219355 184.467299 
L 1138.344763 187.071411 
L 1138.719899 187.624928 
L 1139.095035 187.777519 
L 1140.032876 187.664506 
L 1140.970716 187.179168 
L 1141.345852 187.387889 
L 1142.283693 188.165416 
L 1142.658829 187.997968 
L 1143.221533 187.568714 
L 1143.971806 187.325737 
L 1144.909646 186.357525 
L 1145.47235 185.982138 
L 1145.659918 186.028148 
L 1146.035055 186.460773 
L 1146.785327 187.595935 
L 1147.348031 187.953493 
L 1147.910735 188.211214 
L 1148.285872 188.697889 
L 1149.973984 192.009738 
L 1150.536688 192.631115 
L 1150.911825 192.731877 
L 1151.286961 192.481893 
L 1152.412369 190.821475 
L 1152.975074 189.690362 
L 1153.725346 188.159944 
L 1153.912914 188.046388 
L 1154.100482 188.126563 
L 1154.475618 188.798495 
L 1155.038322 189.951381 
L 1155.413459 190.191225 
L 1155.976163 190.060012 
L 1156.538867 189.67594 
L 1157.101571 189.264714 
L 1157.289139 189.337259 
L 1157.664276 189.926842 
L 1158.039412 190.656394 
L 1158.22698 190.845834 
L 1158.414548 190.838213 
L 1158.789684 190.315402 
L 1159.16482 189.719623 
L 1159.539956 189.578163 
L 1160.477797 189.802969 
L 1161.040501 189.335851 
L 1161.415637 189.086602 
L 1162.16591 189.018383 
L 1162.728614 189.131921 
L 1163.291318 189.318003 
L 1165.166999 189.279618 
L 1165.542135 188.911372 
L 1165.917271 188.12564 
L 1166.479976 186.14929 
L 1167.04268 184.172414 
L 1167.417816 183.676956 
L 1167.605384 183.761929 
L 1167.98052 184.388959 
L 1168.543224 185.331263 
L 1169.668633 186.451341 
L 1170.231337 186.599552 
L 1170.606473 186.745979 
L 1172.482154 188.566289 
L 1172.85729 188.956633 
L 1173.232427 189.059869 
L 1174.357835 188.950592 
L 1174.732971 189.266041 
L 1175.483244 189.961309 
L 1176.233516 190.136254 
L 1176.608652 190.05438 
L 1177.171356 189.544393 
L 1178.671901 187.851041 
L 1180.172446 187.575968 
L 1181.110286 186.610885 
L 1181.485422 186.971779 
L 1182.048126 187.78552 
L 1182.423263 187.959573 
L 1182.798399 187.659573 
L 1183.548671 186.778433 
L 1183.923807 186.715122 
L 1184.298943 186.910869 
L 1184.861648 187.354086 
L 1184.861648 187.354086 
" clip-path="url(#p60189b2f3b)" style="fill: none; stroke: #000000; stroke-width: 2; stroke-linecap: square"/>
   </g>
   <g id="patch_3">
    <path d="M 3.00024 198.907885 
L 1184.99976 198.907885 
" style="fill: none; stroke: #000000; stroke-width: 2; stroke-linejoin: miter; stroke-linecap: square"/>
   </g>
  </g>
 </g>
 <defs>
  <clipPath id="p60189b2f3b">
   <rect x="3.00024" y="3.00024" width="1181.99952" height="195.907645"/>
  </clipPath>
 </defs>
</svg>
