<?xml version="1.0" encoding="utf-8" standalone="no"?>
<!DOCTYPE svg PUBLIC "-//W3C//DTD SVG 1.1//EN"
  "http://www.w3.org/Graphics/SVG/1.1/DTD/svg11.dtd">
<svg xmlns:xlink="http://www.w3.org/1999/xlink" width="1188pt" height="252pt" viewBox="0 0 1188 252" xmlns="http://www.w3.org/2000/svg" version="1.1">
 <metadata>
  <rdf:RDF xmlns:dc="http://purl.org/dc/elements/1.1/" xmlns:cc="http://creativecommons.org/ns#" xmlns:rdf="http://www.w3.org/1999/02/22-rdf-syntax-ns#">
   <cc:Work>
    <dc:type rdf:resource="http://purl.org/dc/dcmitype/StillImage"/>
    <dc:date>2024-05-13T18:26:01.547165</dc:date>
    <dc:format>image/svg+xml</dc:format>
    <dc:creator>
     <cc:Agent>
      <dc:title>Matplotlib v3.8.0, https://matplotlib.org/</dc:title>
     </cc:Agent>
    </dc:creator>
   </cc:Work>
  </rdf:RDF>
 </metadata>
 <defs>
  <style type="text/css">*{stroke-linejoin: round; stroke-linecap: butt}</style>
 </defs>
 <g id="figure_1">
  <g id="patch_1">
   <path d="M 0 252 
L 1188 252 
L 1188 0 
L 0 0 
z
" style="fill: #ffffff"/>
  </g>
  <g id="axes_1">
   <g id="patch_2">
    <path d="M 3.00024 198.907885 
L 1184.99976 198.907885 
L 1184.99976 3.00024 
L 3.00024 3.00024 
z
" style="fill: #ffffff"/>
   </g>
   <g id="matplotlib.axis_1">
    <g id="xtick_1">
     <g id="line2d_1">
      <defs>
       <path id="mf4ef4cf866" d="M 0 0 
L 0 8 
" style="stroke: #000000; stroke-width: 2"/>
      </defs>
      <g>
       <use xlink:href="#mf4ef4cf866" x="1135.74978" y="198.907885" style="stroke: #000000; stroke-width: 2"/>
      </g>
     </g>
     <g id="text_1">
      <!-- −1 -->
      <g transform="translate(1125.488374 224.791947) scale(0.18 -0.18)">
       <defs>
        <path id="Arial-BoldMT-2212" d="M 266 1850 
L 266 2672 
L 3469 2672 
L 3469 1850 
L 266 1850 
z
" transform="scale(0.015625)"/>
        <path id="Arial-BoldMT-31" d="M 2519 0 
L 1641 0 
L 1641 3309 
Q 1159 2859 506 2644 
L 506 3441 
Q 850 3553 1253 3867 
Q 1656 4181 1806 4600 
L 2519 4600 
L 2519 0 
z
" transform="scale(0.015625)"/>
       </defs>
       <use xlink:href="#Arial-BoldMT-2212"/>
       <use xlink:href="#Arial-BoldMT-31" x="58.398438"/>
      </g>
     </g>
    </g>
    <g id="xtick_2">
     <g id="line2d_2">
      <g>
       <use xlink:href="#mf4ef4cf866" x="1037.24982" y="198.907885" style="stroke: #000000; stroke-width: 2"/>
      </g>
     </g>
     <g id="text_2">
      <!-- 0 -->
      <g transform="translate(1032.244976 224.791947) scale(0.18 -0.18)">
       <defs>
        <path id="Arial-BoldMT-30" d="M 1756 4600 
Q 2422 4600 2797 4125 
Q 3244 3563 3244 2259 
Q 3244 959 2794 391 
Q 2422 -78 1756 -78 
Q 1088 -78 678 436 
Q 269 950 269 2269 
Q 269 3563 719 4131 
Q 1091 4600 1756 4600 
z
M 1756 3872 
Q 1597 3872 1472 3770 
Q 1347 3669 1278 3406 
Q 1188 3066 1188 2259 
Q 1188 1453 1269 1151 
Q 1350 850 1473 750 
Q 1597 650 1756 650 
Q 1916 650 2041 751 
Q 2166 853 2234 1116 
Q 2325 1453 2325 2259 
Q 2325 3066 2244 3367 
Q 2163 3669 2039 3770 
Q 1916 3872 1756 3872 
z
" transform="scale(0.015625)"/>
       </defs>
       <use xlink:href="#Arial-BoldMT-30"/>
      </g>
     </g>
    </g>
    <g id="xtick_3">
     <g id="line2d_3">
      <g>
       <use xlink:href="#mf4ef4cf866" x="938.74986" y="198.907885" style="stroke: #000000; stroke-width: 2"/>
      </g>
     </g>
     <g id="text_3">
      <!-- 1 -->
      <g transform="translate(933.745016 224.791947) scale(0.18 -0.18)">
       <use xlink:href="#Arial-BoldMT-31"/>
      </g>
     </g>
    </g>
    <g id="xtick_4">
     <g id="line2d_4">
      <g>
       <use xlink:href="#mf4ef4cf866" x="840.2499" y="198.907885" style="stroke: #000000; stroke-width: 2"/>
      </g>
     </g>
     <g id="text_4">
      <!-- 2 -->
      <g transform="translate(835.245056 224.791947) scale(0.18 -0.18)">
       <defs>
        <path id="Arial-BoldMT-32" d="M 3238 816 
L 3238 0 
L 159 0 
Q 209 463 459 877 
Q 709 1291 1447 1975 
Q 2041 2528 2175 2725 
Q 2356 2997 2356 3263 
Q 2356 3556 2198 3714 
Q 2041 3872 1763 3872 
Q 1488 3872 1325 3706 
Q 1163 3541 1138 3156 
L 263 3244 
Q 341 3969 753 4284 
Q 1166 4600 1784 4600 
Q 2463 4600 2850 4234 
Q 3238 3869 3238 3325 
Q 3238 3016 3127 2736 
Q 3016 2456 2775 2150 
Q 2616 1947 2200 1565 
Q 1784 1184 1673 1059 
Q 1563 934 1494 816 
L 3238 816 
z
" transform="scale(0.015625)"/>
       </defs>
       <use xlink:href="#Arial-BoldMT-32"/>
      </g>
     </g>
    </g>
    <g id="xtick_5">
     <g id="line2d_5">
      <g>
       <use xlink:href="#mf4ef4cf866" x="741.74994" y="198.907885" style="stroke: #000000; stroke-width: 2"/>
      </g>
     </g>
     <g id="text_5">
      <!-- 3 -->
      <g transform="translate(736.745096 224.791947) scale(0.18 -0.18)">
       <defs>
        <path id="Arial-BoldMT-33" d="M 241 1216 
L 1091 1319 
Q 1131 994 1309 822 
Q 1488 650 1741 650 
Q 2013 650 2198 856 
Q 2384 1063 2384 1413 
Q 2384 1744 2206 1937 
Q 2028 2131 1772 2131 
Q 1603 2131 1369 2066 
L 1466 2781 
Q 1822 2772 2009 2936 
Q 2197 3100 2197 3372 
Q 2197 3603 2059 3740 
Q 1922 3878 1694 3878 
Q 1469 3878 1309 3722 
Q 1150 3566 1116 3266 
L 306 3403 
Q 391 3819 561 4067 
Q 731 4316 1036 4458 
Q 1341 4600 1719 4600 
Q 2366 4600 2756 4188 
Q 3078 3850 3078 3425 
Q 3078 2822 2419 2463 
Q 2813 2378 3048 2084 
Q 3284 1791 3284 1375 
Q 3284 772 2843 347 
Q 2403 -78 1747 -78 
Q 1125 -78 715 280 
Q 306 638 241 1216 
z
" transform="scale(0.015625)"/>
       </defs>
       <use xlink:href="#Arial-BoldMT-33"/>
      </g>
     </g>
    </g>
    <g id="xtick_6">
     <g id="line2d_6">
      <g>
       <use xlink:href="#mf4ef4cf866" x="643.24998" y="198.907885" style="stroke: #000000; stroke-width: 2"/>
      </g>
     </g>
     <g id="text_6">
      <!-- 4 -->
      <g transform="translate(638.245136 224.791947) scale(0.18 -0.18)">
       <defs>
        <path id="Arial-BoldMT-34" d="M 1994 0 
L 1994 922 
L 119 922 
L 119 1691 
L 2106 4600 
L 2844 4600 
L 2844 1694 
L 3413 1694 
L 3413 922 
L 2844 922 
L 2844 0 
L 1994 0 
z
M 1994 1694 
L 1994 3259 
L 941 1694 
L 1994 1694 
z
" transform="scale(0.015625)"/>
       </defs>
       <use xlink:href="#Arial-BoldMT-34"/>
      </g>
     </g>
    </g>
    <g id="xtick_7">
     <g id="line2d_7">
      <g>
       <use xlink:href="#mf4ef4cf866" x="544.75002" y="198.907885" style="stroke: #000000; stroke-width: 2"/>
      </g>
     </g>
     <g id="text_7">
      <!-- 5 -->
      <g transform="translate(539.745176 224.791947) scale(0.18 -0.18)">
       <defs>
        <path id="Arial-BoldMT-35" d="M 284 1178 
L 1159 1269 
Q 1197 972 1381 798 
Q 1566 625 1806 625 
Q 2081 625 2272 848 
Q 2463 1072 2463 1522 
Q 2463 1944 2273 2155 
Q 2084 2366 1781 2366 
Q 1403 2366 1103 2031 
L 391 2134 
L 841 4519 
L 3163 4519 
L 3163 3697 
L 1506 3697 
L 1369 2919 
Q 1663 3066 1969 3066 
Q 2553 3066 2959 2641 
Q 3366 2216 3366 1538 
Q 3366 972 3038 528 
Q 2591 -78 1797 -78 
Q 1163 -78 763 262 
Q 363 603 284 1178 
z
" transform="scale(0.015625)"/>
       </defs>
       <use xlink:href="#Arial-BoldMT-35"/>
      </g>
     </g>
    </g>
    <g id="xtick_8">
     <g id="line2d_8">
      <g>
       <use xlink:href="#mf4ef4cf866" x="446.25006" y="198.907885" style="stroke: #000000; stroke-width: 2"/>
      </g>
     </g>
     <g id="text_8">
      <!-- 6 -->
      <g transform="translate(441.245216 224.791947) scale(0.18 -0.18)">
       <defs>
        <path id="Arial-BoldMT-36" d="M 3247 3459 
L 2397 3366 
Q 2366 3628 2234 3753 
Q 2103 3878 1894 3878 
Q 1616 3878 1423 3628 
Q 1231 3378 1181 2588 
Q 1509 2975 1997 2975 
Q 2547 2975 2939 2556 
Q 3331 2138 3331 1475 
Q 3331 772 2918 347 
Q 2506 -78 1859 -78 
Q 1166 -78 719 461 
Q 272 1000 272 2228 
Q 272 3488 737 4044 
Q 1203 4600 1947 4600 
Q 2469 4600 2811 4308 
Q 3153 4016 3247 3459 
z
M 1256 1544 
Q 1256 1116 1453 883 
Q 1650 650 1903 650 
Q 2147 650 2309 840 
Q 2472 1031 2472 1466 
Q 2472 1913 2297 2120 
Q 2122 2328 1859 2328 
Q 1606 2328 1431 2129 
Q 1256 1931 1256 1544 
z
" transform="scale(0.015625)"/>
       </defs>
       <use xlink:href="#Arial-BoldMT-36"/>
      </g>
     </g>
    </g>
    <g id="xtick_9">
     <g id="line2d_9">
      <g>
       <use xlink:href="#mf4ef4cf866" x="347.7501" y="198.907885" style="stroke: #000000; stroke-width: 2"/>
      </g>
     </g>
     <g id="text_9">
      <!-- 7 -->
      <g transform="translate(342.745256 224.791947) scale(0.18 -0.18)">
       <defs>
        <path id="Arial-BoldMT-37" d="M 272 3703 
L 272 4519 
L 3275 4519 
L 3275 3881 
Q 2903 3516 2518 2831 
Q 2134 2147 1932 1376 
Q 1731 606 1734 0 
L 888 0 
Q 909 950 1279 1937 
Q 1650 2925 2269 3703 
L 272 3703 
z
" transform="scale(0.015625)"/>
       </defs>
       <use xlink:href="#Arial-BoldMT-37"/>
      </g>
     </g>
    </g>
    <g id="xtick_10">
     <g id="line2d_10">
      <g>
       <use xlink:href="#mf4ef4cf866" x="249.25014" y="198.907885" style="stroke: #000000; stroke-width: 2"/>
      </g>
     </g>
     <g id="text_10">
      <!-- 8 -->
      <g transform="translate(244.245296 224.791947) scale(0.18 -0.18)">
       <defs>
        <path id="Arial-BoldMT-38" d="M 1025 2472 
Q 684 2616 529 2867 
Q 375 3119 375 3419 
Q 375 3931 733 4265 
Q 1091 4600 1750 4600 
Q 2403 4600 2764 4265 
Q 3125 3931 3125 3419 
Q 3125 3100 2959 2851 
Q 2794 2603 2494 2472 
Q 2875 2319 3073 2025 
Q 3272 1731 3272 1347 
Q 3272 713 2867 316 
Q 2463 -81 1791 -81 
Q 1166 -81 750 247 
Q 259 634 259 1309 
Q 259 1681 443 1992 
Q 628 2303 1025 2472 
z
M 1206 3356 
Q 1206 3094 1354 2947 
Q 1503 2800 1750 2800 
Q 2000 2800 2150 2948 
Q 2300 3097 2300 3359 
Q 2300 3606 2151 3754 
Q 2003 3903 1759 3903 
Q 1506 3903 1356 3753 
Q 1206 3603 1206 3356 
z
M 1125 1394 
Q 1125 1031 1311 828 
Q 1497 625 1775 625 
Q 2047 625 2225 820 
Q 2403 1016 2403 1384 
Q 2403 1706 2222 1901 
Q 2041 2097 1763 2097 
Q 1441 2097 1283 1875 
Q 1125 1653 1125 1394 
z
" transform="scale(0.015625)"/>
       </defs>
       <use xlink:href="#Arial-BoldMT-38"/>
      </g>
     </g>
    </g>
    <g id="xtick_11">
     <g id="line2d_11">
      <g>
       <use xlink:href="#mf4ef4cf866" x="150.75018" y="198.907885" style="stroke: #000000; stroke-width: 2"/>
      </g>
     </g>
     <g id="text_11">
      <!-- 9 -->
      <g transform="translate(145.745336 224.791947) scale(0.18 -0.18)">
       <defs>
        <path id="Arial-BoldMT-39" d="M 291 1059 
L 1141 1153 
Q 1172 894 1303 769 
Q 1434 644 1650 644 
Q 1922 644 2112 894 
Q 2303 1144 2356 1931 
Q 2025 1547 1528 1547 
Q 988 1547 595 1964 
Q 203 2381 203 3050 
Q 203 3747 617 4173 
Q 1031 4600 1672 4600 
Q 2369 4600 2816 4061 
Q 3263 3522 3263 2288 
Q 3263 1031 2797 475 
Q 2331 -81 1584 -81 
Q 1047 -81 715 205 
Q 384 491 291 1059 
z
M 2278 2978 
Q 2278 3403 2083 3637 
Q 1888 3872 1631 3872 
Q 1388 3872 1227 3680 
Q 1066 3488 1066 3050 
Q 1066 2606 1241 2398 
Q 1416 2191 1678 2191 
Q 1931 2191 2104 2391 
Q 2278 2591 2278 2978 
z
" transform="scale(0.015625)"/>
       </defs>
       <use xlink:href="#Arial-BoldMT-39"/>
      </g>
     </g>
    </g>
    <g id="xtick_12">
     <g id="line2d_12">
      <g>
       <use xlink:href="#mf4ef4cf866" x="52.25022" y="198.907885" style="stroke: #000000; stroke-width: 2"/>
      </g>
     </g>
     <g id="text_12">
      <!-- 10 -->
      <g transform="translate(42.240533 224.791947) scale(0.18 -0.18)">
       <use xlink:href="#Arial-BoldMT-31"/>
       <use xlink:href="#Arial-BoldMT-30" x="55.615234"/>
      </g>
     </g>
    </g>
    <g id="text_13">
     <!-- Chemical Shift / ppm -->
     <g transform="translate(504.992813 245.447573) scale(0.18 -0.18)">
      <defs>
       <path id="Arial-BoldMT-43" d="M 3397 1684 
L 4294 1400 
Q 4088 650 3608 286 
Q 3128 -78 2391 -78 
Q 1478 -78 890 545 
Q 303 1169 303 2250 
Q 303 3394 893 4026 
Q 1484 4659 2447 4659 
Q 3288 4659 3813 4163 
Q 4125 3869 4281 3319 
L 3366 3100 
Q 3284 3456 3026 3662 
Q 2769 3869 2400 3869 
Q 1891 3869 1573 3503 
Q 1256 3138 1256 2319 
Q 1256 1450 1568 1081 
Q 1881 713 2381 713 
Q 2750 713 3015 947 
Q 3281 1181 3397 1684 
z
" transform="scale(0.015625)"/>
       <path id="Arial-BoldMT-68" d="M 1334 4581 
L 1334 2897 
Q 1759 3394 2350 3394 
Q 2653 3394 2897 3281 
Q 3141 3169 3264 2994 
Q 3388 2819 3433 2606 
Q 3478 2394 3478 1947 
L 3478 0 
L 2600 0 
L 2600 1753 
Q 2600 2275 2550 2415 
Q 2500 2556 2373 2639 
Q 2247 2722 2056 2722 
Q 1838 2722 1666 2615 
Q 1494 2509 1414 2295 
Q 1334 2081 1334 1663 
L 1334 0 
L 456 0 
L 456 4581 
L 1334 4581 
z
" transform="scale(0.015625)"/>
       <path id="Arial-BoldMT-65" d="M 2381 1056 
L 3256 909 
Q 3088 428 2723 176 
Q 2359 -75 1813 -75 
Q 947 -75 531 491 
Q 203 944 203 1634 
Q 203 2459 634 2926 
Q 1066 3394 1725 3394 
Q 2466 3394 2894 2905 
Q 3322 2416 3303 1406 
L 1103 1406 
Q 1113 1016 1316 798 
Q 1519 581 1822 581 
Q 2028 581 2168 693 
Q 2309 806 2381 1056 
z
M 2431 1944 
Q 2422 2325 2234 2523 
Q 2047 2722 1778 2722 
Q 1491 2722 1303 2513 
Q 1116 2303 1119 1944 
L 2431 1944 
z
" transform="scale(0.015625)"/>
       <path id="Arial-BoldMT-6d" d="M 394 3319 
L 1203 3319 
L 1203 2866 
Q 1638 3394 2238 3394 
Q 2556 3394 2790 3262 
Q 3025 3131 3175 2866 
Q 3394 3131 3647 3262 
Q 3900 3394 4188 3394 
Q 4553 3394 4806 3245 
Q 5059 3097 5184 2809 
Q 5275 2597 5275 2122 
L 5275 0 
L 4397 0 
L 4397 1897 
Q 4397 2391 4306 2534 
Q 4184 2722 3931 2722 
Q 3747 2722 3584 2609 
Q 3422 2497 3350 2280 
Q 3278 2063 3278 1594 
L 3278 0 
L 2400 0 
L 2400 1819 
Q 2400 2303 2353 2443 
Q 2306 2584 2207 2653 
Q 2109 2722 1941 2722 
Q 1738 2722 1575 2612 
Q 1413 2503 1342 2297 
Q 1272 2091 1272 1613 
L 1272 0 
L 394 0 
L 394 3319 
z
" transform="scale(0.015625)"/>
       <path id="Arial-BoldMT-69" d="M 459 3769 
L 459 4581 
L 1338 4581 
L 1338 3769 
L 459 3769 
z
M 459 0 
L 459 3319 
L 1338 3319 
L 1338 0 
L 459 0 
z
" transform="scale(0.015625)"/>
       <path id="Arial-BoldMT-63" d="M 3353 2338 
L 2488 2181 
Q 2444 2441 2289 2572 
Q 2134 2703 1888 2703 
Q 1559 2703 1364 2476 
Q 1169 2250 1169 1719 
Q 1169 1128 1367 884 
Q 1566 641 1900 641 
Q 2150 641 2309 783 
Q 2469 925 2534 1272 
L 3397 1125 
Q 3263 531 2881 228 
Q 2500 -75 1859 -75 
Q 1131 -75 698 384 
Q 266 844 266 1656 
Q 266 2478 700 2936 
Q 1134 3394 1875 3394 
Q 2481 3394 2839 3133 
Q 3197 2872 3353 2338 
z
" transform="scale(0.015625)"/>
       <path id="Arial-BoldMT-61" d="M 1116 2306 
L 319 2450 
Q 453 2931 781 3162 
Q 1109 3394 1756 3394 
Q 2344 3394 2631 3255 
Q 2919 3116 3036 2902 
Q 3153 2688 3153 2116 
L 3144 1091 
Q 3144 653 3186 445 
Q 3228 238 3344 0 
L 2475 0 
Q 2441 88 2391 259 
Q 2369 338 2359 363 
Q 2134 144 1878 34 
Q 1622 -75 1331 -75 
Q 819 -75 523 203 
Q 228 481 228 906 
Q 228 1188 362 1408 
Q 497 1628 739 1745 
Q 981 1863 1438 1950 
Q 2053 2066 2291 2166 
L 2291 2253 
Q 2291 2506 2166 2614 
Q 2041 2722 1694 2722 
Q 1459 2722 1328 2630 
Q 1197 2538 1116 2306 
z
M 2291 1594 
Q 2122 1538 1756 1459 
Q 1391 1381 1278 1306 
Q 1106 1184 1106 997 
Q 1106 813 1243 678 
Q 1381 544 1594 544 
Q 1831 544 2047 700 
Q 2206 819 2256 991 
Q 2291 1103 2291 1419 
L 2291 1594 
z
" transform="scale(0.015625)"/>
       <path id="Arial-BoldMT-6c" d="M 459 0 
L 459 4581 
L 1338 4581 
L 1338 0 
L 459 0 
z
" transform="scale(0.015625)"/>
       <path id="Arial-BoldMT-20" transform="scale(0.015625)"/>
       <path id="Arial-BoldMT-53" d="M 231 1491 
L 1131 1578 
Q 1213 1125 1461 912 
Q 1709 700 2131 700 
Q 2578 700 2804 889 
Q 3031 1078 3031 1331 
Q 3031 1494 2936 1608 
Q 2841 1722 2603 1806 
Q 2441 1863 1863 2006 
Q 1119 2191 819 2459 
Q 397 2838 397 3381 
Q 397 3731 595 4036 
Q 794 4341 1167 4500 
Q 1541 4659 2069 4659 
Q 2931 4659 3367 4281 
Q 3803 3903 3825 3272 
L 2900 3231 
Q 2841 3584 2645 3739 
Q 2450 3894 2059 3894 
Q 1656 3894 1428 3728 
Q 1281 3622 1281 3444 
Q 1281 3281 1419 3166 
Q 1594 3019 2269 2859 
Q 2944 2700 3267 2529 
Q 3591 2359 3773 2064 
Q 3956 1769 3956 1334 
Q 3956 941 3737 597 
Q 3519 253 3119 86 
Q 2719 -81 2122 -81 
Q 1253 -81 787 320 
Q 322 722 231 1491 
z
" transform="scale(0.015625)"/>
       <path id="Arial-BoldMT-66" d="M 75 3319 
L 563 3319 
L 563 3569 
Q 563 3988 652 4194 
Q 741 4400 980 4529 
Q 1219 4659 1584 4659 
Q 1959 4659 2319 4547 
L 2200 3934 
Q 1991 3984 1797 3984 
Q 1606 3984 1523 3895 
Q 1441 3806 1441 3553 
L 1441 3319 
L 2097 3319 
L 2097 2628 
L 1441 2628 
L 1441 0 
L 563 0 
L 563 2628 
L 75 2628 
L 75 3319 
z
" transform="scale(0.015625)"/>
       <path id="Arial-BoldMT-74" d="M 1981 3319 
L 1981 2619 
L 1381 2619 
L 1381 1281 
Q 1381 875 1398 808 
Q 1416 741 1477 697 
Q 1538 653 1625 653 
Q 1747 653 1978 738 
L 2053 56 
Q 1747 -75 1359 -75 
Q 1122 -75 931 4 
Q 741 84 652 211 
Q 563 338 528 553 
Q 500 706 500 1172 
L 500 2619 
L 97 2619 
L 97 3319 
L 500 3319 
L 500 3978 
L 1381 4491 
L 1381 3319 
L 1981 3319 
z
" transform="scale(0.015625)"/>
       <path id="Arial-BoldMT-2f" d="M -9 -78 
L 1125 4659 
L 1784 4659 
L 638 -78 
L -9 -78 
z
" transform="scale(0.015625)"/>
       <path id="Arial-BoldMT-70" d="M 434 3319 
L 1253 3319 
L 1253 2831 
Q 1413 3081 1684 3237 
Q 1956 3394 2288 3394 
Q 2866 3394 3269 2941 
Q 3672 2488 3672 1678 
Q 3672 847 3265 386 
Q 2859 -75 2281 -75 
Q 2006 -75 1782 34 
Q 1559 144 1313 409 
L 1313 -1263 
L 434 -1263 
L 434 3319 
z
M 1303 1716 
Q 1303 1156 1525 889 
Q 1747 622 2066 622 
Q 2372 622 2575 867 
Q 2778 1113 2778 1672 
Q 2778 2194 2568 2447 
Q 2359 2700 2050 2700 
Q 1728 2700 1515 2451 
Q 1303 2203 1303 1716 
z
" transform="scale(0.015625)"/>
      </defs>
      <use xlink:href="#Arial-BoldMT-43"/>
      <use xlink:href="#Arial-BoldMT-68" x="72.216797"/>
      <use xlink:href="#Arial-BoldMT-65" x="133.300781"/>
      <use xlink:href="#Arial-BoldMT-6d" x="188.916016"/>
      <use xlink:href="#Arial-BoldMT-69" x="277.832031"/>
      <use xlink:href="#Arial-BoldMT-63" x="305.615234"/>
      <use xlink:href="#Arial-BoldMT-61" x="361.230469"/>
      <use xlink:href="#Arial-BoldMT-6c" x="416.845703"/>
      <use xlink:href="#Arial-BoldMT-20" x="444.628906"/>
      <use xlink:href="#Arial-BoldMT-53" x="472.412109"/>
      <use xlink:href="#Arial-BoldMT-68" x="539.111328"/>
      <use xlink:href="#Arial-BoldMT-69" x="600.195312"/>
      <use xlink:href="#Arial-BoldMT-66" x="627.978516"/>
      <use xlink:href="#Arial-BoldMT-74" x="661.279297"/>
      <use xlink:href="#Arial-BoldMT-20" x="694.580078"/>
      <use xlink:href="#Arial-BoldMT-2f" x="722.363281"/>
      <use xlink:href="#Arial-BoldMT-20" x="750.146484"/>
      <use xlink:href="#Arial-BoldMT-70" x="777.929688"/>
      <use xlink:href="#Arial-BoldMT-70" x="839.013672"/>
      <use xlink:href="#Arial-BoldMT-6d" x="900.097656"/>
     </g>
    </g>
   </g>
   <g id="matplotlib.axis_2"/>
   <g id="line2d_13">
    <path d="M 2.96757 191.354873 
L 3.342706 191.465962 
L 3.717842 191.099434 
L 4.280546 190.261928 
L 4.468114 190.142152 
L 4.655683 190.179938 
L 5.030819 190.719795 
L 5.781091 192.127357 
L 6.156227 192.195501 
L 6.531363 191.857702 
L 7.469204 190.658857 
L 7.84434 190.51112 
L 8.219476 190.623902 
L 8.969748 191.28875 
L 9.532453 191.651806 
L 10.282725 191.796165 
L 10.657861 191.618809 
L 12.158406 189.951769 
L 12.533542 190.032871 
L 13.471382 190.568823 
L 14.409223 190.505548 
L 15.159495 190.64541 
L 15.722199 190.452855 
L 16.284904 190.004212 
L 17.035176 189.230696 
L 17.973016 188.838874 
L 19.098425 187.376421 
L 19.473561 187.508731 
L 20.036265 187.864669 
L 20.411401 187.802591 
L 21.724378 187.061858 
L 22.099514 187.326534 
L 23.224923 188.991912 
L 23.787627 189.230126 
L 24.350331 189.903667 
L 25.100604 190.730561 
L 25.47574 190.967386 
L 25.850876 190.931518 
L 27.163852 190.118627 
L 28.289261 190.166842 
L 28.851965 190.618819 
L 29.414669 191.036951 
L 29.789806 191.108275 
L 30.540078 190.903343 
L 30.915214 190.626211 
L 31.477918 189.61284 
L 31.853055 189.066225 
L 32.040623 188.986 
L 32.415759 189.210239 
L 32.978463 189.704651 
L 33.728735 190.078258 
L 34.479008 190.737444 
L 35.041712 190.968959 
L 35.416848 190.926936 
L 35.791984 190.523146 
L 36.917393 188.679204 
L 37.292529 188.797328 
L 37.667665 189.007552 
L 38.042801 188.939595 
L 38.417937 188.512976 
L 38.980642 187.698735 
L 39.355778 187.490156 
L 39.730914 187.52656 
L 40.10605 187.799155 
L 40.856323 188.832577 
L 41.419027 189.495032 
L 41.794163 189.596108 
L 42.169299 189.339035 
L 42.919571 188.739094 
L 43.294708 188.814661 
L 44.607684 190.035601 
L 45.170388 190.764192 
L 45.733093 191.574325 
L 45.920661 191.648554 
L 46.108229 191.588137 
L 46.483365 191.127793 
L 47.608773 189.306779 
L 48.171478 188.845128 
L 48.734182 188.728023 
L 49.85959 188.747724 
L 50.234727 188.548682 
L 51.172567 187.738475 
L 51.360135 187.857768 
L 51.735271 188.538701 
L 52.297976 189.784717 
L 52.673112 190.107479 
L 52.86068 190.040826 
L 53.235816 189.575596 
L 53.986088 188.522289 
L 54.548793 188.054918 
L 54.923929 188.027929 
L 55.299065 188.369492 
L 55.861769 189.081752 
L 56.236905 189.218331 
L 56.612041 189.027523 
L 57.362314 188.120393 
L 57.73745 187.746807 
L 58.112586 187.669017 
L 58.487722 187.920151 
L 59.237995 188.61763 
L 59.613131 188.631791 
L 60.550971 188.279923 
L 60.926107 188.537448 
L 62.426652 189.962586 
L 62.801788 189.898529 
L 63.364492 189.627035 
L 63.739629 189.673685 
L 64.302333 190.042766 
L 64.865037 190.664193 
L 65.427741 191.321549 
L 65.990446 191.581625 
L 66.365582 191.75182 
L 67.303422 192.365876 
L 67.678558 192.004933 
L 68.428831 190.842307 
L 69.366671 190.036191 
L 70.49208 187.916051 
L 70.679648 187.99322 
L 71.054784 188.692972 
L 71.805056 190.437146 
L 72.36776 191.001137 
L 74.243441 192.375934 
L 74.806146 192.617189 
L 75.556418 192.443082 
L 76.119122 192.190151 
L 76.494258 191.728882 
L 77.056963 190.919195 
L 77.244531 190.802942 
L 77.432099 190.819996 
L 77.807235 191.209172 
L 78.182371 191.6934 
L 78.369939 191.783386 
L 78.557507 191.710713 
L 78.932643 191.174902 
L 79.682916 190.025516 
L 80.058052 189.783154 
L 80.433188 189.906707 
L 81.18346 190.492339 
L 81.558596 190.261781 
L 82.496437 189.113772 
L 83.059141 188.37025 
L 83.246709 188.298825 
L 83.434277 188.373801 
L 83.809413 188.915876 
L 84.372118 189.864291 
L 84.559686 189.965929 
L 84.934822 189.768967 
L 85.497526 189.251588 
L 85.685094 189.248779 
L 86.06023 189.563969 
L 86.998071 190.612515 
L 87.748343 191.088165 
L 88.311047 191.136821 
L 88.873752 190.881903 
L 89.248888 190.770652 
L 89.624024 191.057652 
L 90.937001 192.946503 
L 91.312137 192.920696 
L 92.812681 192.171045 
L 93.187818 191.969429 
L 93.93809 191.350741 
L 94.125658 191.462088 
L 94.500794 192.104839 
L 94.87593 192.804266 
L 95.251067 193.05268 
L 95.813771 192.833683 
L 96.188907 192.572871 
L 96.751611 191.819633 
L 97.314315 191.115551 
L 98.439724 189.980016 
L 99.752701 188.040292 
L 99.940269 188.075791 
L 100.315405 188.557977 
L 101.065677 189.79313 
L 102.191086 190.994707 
L 102.566222 191.168795 
L 103.504062 191.148552 
L 104.254335 191.765811 
L 104.441903 191.720215 
L 104.817039 191.315992 
L 106.130015 189.198929 
L 106.69272 188.069439 
L 106.880288 187.901272 
L 107.067856 187.923658 
L 107.442992 188.434276 
L 107.818128 189.024878 
L 108.193264 189.221998 
L 109.693809 189.061613 
L 110.068945 188.72569 
L 110.631649 187.815023 
L 111.56949 185.943561 
L 111.757058 185.886981 
L 112.132194 186.178921 
L 112.882466 187.289649 
L 114.195443 189.344848 
L 114.570579 189.381549 
L 115.695988 188.770445 
L 116.071124 188.821012 
L 117.3841 189.502531 
L 117.759236 189.281961 
L 118.509509 188.590668 
L 118.884645 188.503249 
L 119.259781 188.565364 
L 119.634917 188.797071 
L 120.010053 189.246404 
L 120.947894 190.560304 
L 121.32303 190.649602 
L 122.073302 190.435294 
L 123.948983 189.155794 
L 124.324119 188.630866 
L 125.26196 186.962696 
L 125.449528 186.862678 
L 125.824664 187.051697 
L 127.512777 188.859019 
L 128.075481 189.069083 
L 128.825753 189.093729 
L 129.763594 188.811482 
L 130.13873 188.471894 
L 130.889002 187.357152 
L 131.264138 187.259706 
L 131.639275 187.480761 
L 132.389547 188.004987 
L 132.764683 187.958617 
L 134.07766 187.429458 
L 134.640364 187.385103 
L 135.0155 187.582385 
L 135.578204 187.964212 
L 135.953341 187.805837 
L 136.516045 187.0075 
L 137.078749 186.169584 
L 137.829021 185.613515 
L 138.204158 185.434542 
L 138.391726 185.454041 
L 138.579294 185.601039 
L 138.95443 186.289744 
L 139.517134 187.390778 
L 139.89227 187.549279 
L 140.642543 187.276008 
L 141.955519 186.651527 
L 142.330655 187.001518 
L 142.89336 187.958285 
L 144.393904 190.82203 
L 144.76904 191.146465 
L 145.144177 191.123859 
L 145.706881 190.704818 
L 146.082017 190.259767 
L 146.457153 189.437928 
L 147.019857 187.226167 
L 147.582562 185.328518 
L 148.145266 184.429882 
L 149.645811 182.351484 
L 150.020947 182.354356 
L 150.583651 182.817964 
L 151.146355 183.169847 
L 151.521491 183.172109 
L 151.896628 182.917758 
L 152.6469 182.094792 
L 152.834468 182.092915 
L 153.209604 182.466858 
L 153.959876 183.363203 
L 154.522581 183.611892 
L 155.460421 183.713 
L 156.210693 184.233861 
L 156.398262 184.197999 
L 156.773398 183.82783 
L 157.336102 183.294706 
L 158.086374 182.933831 
L 159.399351 181.730986 
L 159.962055 181.550633 
L 160.899896 181.020515 
L 162.025304 179.772422 
L 162.40044 179.8667 
L 162.775576 179.974126 
L 162.963144 179.89492 
L 163.338281 179.365113 
L 164.463689 177.240436 
L 165.026393 176.198142 
L 166.33937 173.113805 
L 166.902074 171.120283 
L 168.402619 165.264006 
L 168.965323 163.924849 
L 169.715595 162.666087 
L 170.090732 161.38189 
L 170.653436 158.254548 
L 171.21614 153.857518 
L 171.778844 147.963963 
L 172.529117 137.100102 
L 173.091821 126.259491 
L 173.654525 111.265603 
L 174.217229 90.85941 
L 174.967502 55.243751 
L 175.905342 9.587097 
L 176.09291 4.83015 
L 176.280478 3.00024 
L 176.468046 4.470609 
L 176.655615 9.275934 
L 177.030751 27.20189 
L 178.531295 114.481488 
L 179.094 133.477783 
L 179.656704 146.732068 
L 180.219408 155.489011 
L 180.782112 161.07522 
L 181.344817 164.568769 
L 182.657793 170.23568 
L 183.408066 172.435024 
L 184.158338 174.330347 
L 184.533474 174.684367 
L 184.90861 174.627954 
L 185.283746 174.355303 
L 186.409155 173.258255 
L 186.971859 173.224218 
L 187.346995 172.806359 
L 187.722131 171.801453 
L 188.284836 169.329414 
L 189.410244 163.922832 
L 189.972948 162.359803 
L 190.910789 160.474517 
L 191.285925 160.250768 
L 192.223765 160.47038 
L 192.598902 160.043578 
L 193.161606 158.911258 
L 193.72431 157.002 
L 195.412423 149.871985 
L 196.162695 147.472417 
L 196.725399 145.953388 
L 197.100536 144.426865 
L 197.850808 140.018831 
L 198.60108 135.747074 
L 199.351353 132.774657 
L 199.914057 131.209765 
L 200.101625 130.978641 
L 200.289193 130.953508 
L 200.476761 131.125091 
L 200.851897 131.901282 
L 201.789738 134.409451 
L 201.977306 134.624964 
L 202.164874 134.655797 
L 202.352442 134.487807 
L 202.727578 133.475312 
L 203.102714 131.373833 
L 203.665418 126.214284 
L 204.603259 116.938837 
L 204.978395 115.217363 
L 205.165963 115.085875 
L 205.353531 115.46864 
L 205.728667 117.567146 
L 206.854076 125.940347 
L 207.229212 127.10801 
L 207.41678 127.193636 
L 207.604348 126.904241 
L 207.979484 125.179679 
L 208.542189 120.179349 
L 209.480029 108.535282 
L 210.793006 91.204558 
L 211.35571 86.901465 
L 212.29355 80.43381 
L 213.794095 68.110767 
L 213.981663 67.534745 
L 214.169231 67.350874 
L 214.356799 67.570277 
L 214.544367 68.192482 
L 214.919503 70.666141 
L 215.29464 74.945778 
L 215.857344 85.057812 
L 218.295729 137.735871 
L 218.858433 144.729438 
L 219.421137 149.107921 
L 219.796274 150.901985 
L 220.17141 151.86732 
L 220.358978 152.055643 
L 220.546546 152.067362 
L 220.921682 151.702209 
L 221.296818 150.990649 
L 221.859522 149.346313 
L 222.797363 146.521627 
L 223.172499 146.001372 
L 223.360067 146.005482 
L 223.547635 146.202774 
L 223.922771 147.10195 
L 224.297908 148.551335 
L 224.860612 151.846517 
L 225.798452 159.813462 
L 226.923861 168.808127 
L 227.674133 172.815449 
L 228.424405 175.961451 
L 228.98711 177.319072 
L 231.988199 182.517855 
L 232.363335 182.845939 
L 233.113607 183.043587 
L 233.488744 182.940843 
L 234.426584 182.17459 
L 234.80172 181.596423 
L 235.364424 180.082889 
L 235.927129 178.703059 
L 236.114697 178.496722 
L 236.302265 178.465823 
L 236.677401 178.828471 
L 237.615241 180.532084 
L 238.365514 181.775662 
L 238.74065 181.910766 
L 239.115786 181.544542 
L 239.866058 180.170914 
L 240.241195 179.196848 
L 240.803899 176.787291 
L 241.554171 173.497173 
L 241.929307 172.984307 
L 242.304444 173.116011 
L 242.67958 173.285981 
L 242.867148 173.228186 
L 243.054716 173.016673 
L 243.429852 172.085908 
L 244.742829 167.803966 
L 245.868237 164.924054 
L 246.430941 163.299744 
L 247.181214 159.854309 
L 248.306622 153.933906 
L 249.807167 143.221822 
L 250.557439 135.887198 
L 251.682848 122.516555 
L 252.43312 111.446862 
L 253.183392 96.685384 
L 253.933665 77.278649 
L 255.809346 22.668965 
L 256.37205 13.851607 
L 256.747186 10.837198 
L 256.934754 10.342066 
L 257.122322 10.568853 
L 257.30989 11.516852 
L 257.685026 15.363776 
L 258.435299 27.523019 
L 258.998003 35.895272 
L 259.373139 39.435751 
L 259.748275 40.911464 
L 259.935843 40.936779 
L 260.123411 40.595368 
L 260.498548 39.198548 
L 261.061252 36.782174 
L 261.24882 36.376453 
L 261.436388 36.432577 
L 261.623956 37.099144 
L 261.999092 40.568145 
L 262.374228 46.819316 
L 262.936933 60.578272 
L 264.062341 96.821604 
L 265.000182 125.621034 
L 265.750454 141.536052 
L 266.500726 152.004108 
L 267.250999 159.23288 
L 268.188839 166.605703 
L 268.751543 169.487602 
L 269.501816 172.097063 
L 270.439656 174.252671 
L 271.377496 175.952214 
L 272.502905 178.808104 
L 272.878041 179.149005 
L 273.253177 179.26155 
L 273.815881 179.166372 
L 274.378586 178.883676 
L 274.94129 178.31999 
L 275.503994 177.823375 
L 275.87913 177.861071 
L 276.441835 178.06164 
L 276.816971 177.762986 
L 277.567243 176.822197 
L 278.317515 176.484735 
L 278.692652 175.888604 
L 279.630492 173.772184 
L 279.81806 173.722352 
L 280.193196 174.118082 
L 280.755901 174.906431 
L 280.943469 174.977124 
L 281.131037 174.90078 
L 281.506173 174.335681 
L 282.256445 172.333119 
L 283.006718 170.48413 
L 284.319694 168.169122 
L 284.882398 166.666068 
L 285.445103 164.433319 
L 286.195375 161.27872 
L 286.945647 158.645286 
L 287.508352 155.550798 
L 289.008896 144.296282 
L 289.5716 138.990409 
L 291.822417 113.195776 
L 292.385122 110.316706 
L 293.135394 106.866946 
L 293.51053 104.231971 
L 293.885666 100.437309 
L 294.448371 91.691838 
L 295.011075 78.562998 
L 295.948915 56.05785 
L 296.136483 53.905127 
L 296.324051 53.251836 
L 296.511619 54.30384 
L 296.699188 57.134045 
L 297.074324 67.604208 
L 298.762436 129.030811 
L 299.512709 144.346866 
L 300.075413 151.893208 
L 300.638117 156.708178 
L 301.200822 159.625456 
L 301.575958 160.716411 
L 301.763526 160.976155 
L 301.951094 161.035744 
L 302.138662 160.88808 
L 302.513798 159.9319 
L 303.076502 157.081302 
L 303.826775 151.782234 
L 305.890024 135.427765 
L 306.452728 133.364561 
L 307.203 130.663048 
L 307.953273 127.129549 
L 309.453817 118.571238 
L 309.828953 114.932395 
L 310.391658 106.364594 
L 312.267338 70.706587 
L 312.454907 69.464949 
L 312.642475 69.003455 
L 312.830043 69.293859 
L 313.205179 71.795268 
L 313.767883 78.420947 
L 314.705724 89.387789 
L 315.268428 93.829105 
L 316.768972 103.45695 
L 317.894381 111.693844 
L 318.269517 112.817153 
L 318.457085 112.88706 
L 318.644653 112.601433 
L 319.019789 110.912582 
L 319.394926 107.845328 
L 319.95763 101.374134 
L 321.083038 84.736509 
L 321.833311 74.551239 
L 322.208447 71.932875 
L 322.396015 71.710432 
L 322.583583 72.384757 
L 322.771151 74.053965 
L 323.146287 80.460008 
L 323.708992 96.00289 
L 324.8344 129.250774 
L 325.584672 145.421439 
L 326.334945 156.875082 
L 327.085217 164.808501 
L 328.210625 173.898004 
L 328.77333 177.164774 
L 329.336034 179.168251 
L 330.461442 182.166253 
L 331.586851 184.84877 
L 331.961987 185.253577 
L 332.337123 185.419065 
L 332.899828 185.450092 
L 333.274964 185.850491 
L 334.025236 187.130962 
L 334.212804 187.160861 
L 334.963076 186.777794 
L 335.338213 186.993188 
L 336.838757 188.867117 
L 337.58903 189.769516 
L 338.339302 190.256162 
L 338.714438 190.347179 
L 339.089574 190.144211 
L 339.652279 189.318914 
L 340.777687 187.403373 
L 341.340391 187.007826 
L 341.715527 187.04859 
L 342.4658 187.45797 
L 342.840936 187.39983 
L 343.778776 187.113549 
L 344.153913 187.040423 
L 344.529049 186.732285 
L 345.842025 185.015089 
L 346.217161 185.02589 
L 346.967434 185.417337 
L 347.34257 185.163975 
L 348.092842 184.416436 
L 348.467978 184.387078 
L 348.843115 184.585031 
L 349.780955 185.31559 
L 350.156091 185.322044 
L 351.093932 184.898146 
L 351.656636 184.611452 
L 352.21934 184.686372 
L 353.157181 184.982486 
L 353.532317 185.142593 
L 353.907453 185.087262 
L 354.282589 184.923791 
L 354.470157 184.940747 
L 354.657725 185.109765 
L 355.032861 185.943866 
L 355.783134 187.912267 
L 356.15827 188.402606 
L 356.533406 188.511988 
L 356.908542 188.327301 
L 357.283678 187.895488 
L 358.596655 185.816879 
L 359.346927 185.163036 
L 360.0972 184.497668 
L 360.847472 183.89118 
L 361.222608 183.905715 
L 361.597744 184.37651 
L 362.160449 185.757094 
L 362.910721 187.72194 
L 363.285857 188.035385 
L 363.473425 187.966206 
L 363.848561 187.483223 
L 365.349106 184.482604 
L 366.474514 181.80875 
L 366.662082 181.741324 
L 367.037219 182.044208 
L 367.599923 182.815709 
L 367.975059 182.977388 
L 369.663172 182.715568 
L 370.038308 183.153644 
L 371.351285 185.486173 
L 371.538853 185.467002 
L 371.913989 185.087259 
L 372.476693 183.830406 
L 373.039397 182.615708 
L 373.414533 182.328754 
L 373.977238 182.076712 
L 377.353463 178.710659 
L 378.478872 178.403213 
L 379.041576 178.266518 
L 379.416712 177.689994 
L 380.166984 176.124356 
L 380.542121 175.893106 
L 381.479961 176.035935 
L 381.855097 175.57855 
L 383.168074 172.959218 
L 383.730778 172.456985 
L 384.105914 171.711182 
L 385.043755 168.815243 
L 386.169163 165.101451 
L 386.544299 162.879787 
L 387.294572 156.235004 
L 389.170252 138.84317 
L 390.295661 124.208682 
L 391.045933 115.438378 
L 391.608638 110.82138 
L 392.171342 107.936577 
L 392.921614 104.716559 
L 393.29675 102.087663 
L 393.859455 95.78587 
L 394.609727 83.560316 
L 396.110272 55.567513 
L 396.485408 52.552064 
L 396.672976 52.438336 
L 396.860544 53.332795 
L 397.23568 57.883545 
L 397.798384 69.208104 
L 398.736225 88.30972 
L 399.486497 98.479433 
L 400.236769 105.133599 
L 401.362178 112.781013 
L 402.11245 116.175127 
L 402.487586 117.189466 
L 402.675154 117.385538 
L 402.862722 117.335406 
L 403.050291 117.028487 
L 403.425427 115.627736 
L 403.800563 113.167708 
L 404.363267 107.695102 
L 405.301108 97.871302 
L 405.676244 95.386002 
L 405.863812 94.678034 
L 406.05138 94.438573 
L 406.238948 94.780814 
L 406.426516 95.803431 
L 406.801652 100.066019 
L 407.364356 111.51503 
L 408.864901 146.825063 
L 409.802742 163.509552 
L 410.553014 172.900955 
L 411.303286 179.093875 
L 411.86599 181.762816 
L 413.366535 186.538059 
L 413.929239 188.505648 
L 414.304376 189.173804 
L 414.679512 189.270381 
L 415.054648 188.998959 
L 416.180056 187.775093 
L 416.742761 187.681928 
L 417.305465 187.219114 
L 417.868169 186.725868 
L 418.243305 186.683265 
L 418.618441 186.948852 
L 419.74385 188.393746 
L 420.306554 189.629651 
L 420.869258 190.675249 
L 421.056827 190.777391 
L 421.244395 190.734036 
L 421.619531 190.301309 
L 422.744939 188.465819 
L 423.120075 188.305583 
L 423.495212 188.458982 
L 423.870348 188.950047 
L 424.433052 189.753413 
L 424.62062 189.815024 
L 424.995756 189.614186 
L 425.370892 189.371766 
L 425.558461 189.38237 
L 425.933597 189.726887 
L 426.683869 190.586775 
L 427.246573 191.001008 
L 428.184414 191.980745 
L 429.122254 192.440736 
L 429.684958 193.207124 
L 430.060095 193.710597 
L 430.435231 193.817195 
L 430.810367 193.549618 
L 431.748207 192.723464 
L 432.123343 192.654215 
L 433.811456 193.19185 
L 434.186592 193.345618 
L 434.37416 193.258442 
L 434.749297 192.682372 
L 435.687137 190.602466 
L 436.062273 190.342009 
L 436.812545 190.152047 
L 437.562818 189.840432 
L 438.688226 189.832551 
L 439.063362 189.442903 
L 439.626067 188.776702 
L 440.001203 188.764693 
L 440.376339 189.130779 
L 441.126611 190.379173 
L 441.501748 190.880275 
L 441.876884 191.004036 
L 442.25202 190.835363 
L 443.564996 189.864184 
L 443.940133 190.180903 
L 445.253109 192.18181 
L 445.815813 192.382194 
L 446.19095 192.314775 
L 447.12879 191.946815 
L 447.503926 191.983465 
L 447.879062 192.224588 
L 448.629335 192.986779 
L 448.816903 192.931557 
L 449.192039 192.275021 
L 449.942311 189.84109 
L 450.505016 188.189566 
L 450.880152 187.630841 
L 451.06772 187.572311 
L 451.255288 187.675026 
L 451.630424 188.275523 
L 452.568264 190.307057 
L 452.755833 190.477194 
L 452.943401 190.480723 
L 453.130969 190.304731 
L 453.506105 189.417281 
L 454.631513 185.388803 
L 454.819081 185.168542 
L 455.00665 185.143107 
L 455.381786 185.532084 
L 456.132058 186.520472 
L 456.507194 186.708379 
L 457.445035 186.969913 
L 457.820171 187.783723 
L 459.133147 192.248109 
L 459.508284 192.437276 
L 459.88342 192.164929 
L 460.258556 191.532634 
L 461.008828 190.091098 
L 461.759101 189.229655 
L 462.134237 188.966116 
L 462.509373 189.060417 
L 463.072077 189.814133 
L 463.447213 190.205259 
L 463.634781 190.211577 
L 464.009918 189.775692 
L 464.572622 188.893267 
L 464.76019 188.820132 
L 465.135326 189.028491 
L 466.260735 190.199169 
L 466.635871 190.238679 
L 467.198575 189.877447 
L 467.948847 189.380878 
L 468.511552 189.3901 
L 469.074256 189.700067 
L 470.199664 190.830652 
L 470.762368 190.781896 
L 471.325073 190.58472 
L 471.887777 190.324782 
L 472.450481 190.4553 
L 473.200754 190.752118 
L 473.763458 191.209651 
L 474.51373 191.95756 
L 474.888866 191.987727 
L 475.826707 191.65983 
L 476.201843 191.491714 
L 476.952115 190.836393 
L 477.702388 190.526243 
L 478.45266 189.967449 
L 479.015364 189.613145 
L 479.765636 188.951299 
L 480.328341 188.635556 
L 481.641317 187.382458 
L 482.954294 185.366259 
L 483.32943 185.197883 
L 483.704566 185.207125 
L 484.079702 185.402826 
L 484.642407 185.996623 
L 486.330519 188.196001 
L 487.080792 188.81814 
L 488.018632 189.289533 
L 488.768904 189.500293 
L 489.706745 190.156327 
L 490.269449 190.267345 
L 490.644585 190.111413 
L 491.20729 189.416382 
L 491.769994 188.376189 
L 492.520266 186.759575 
L 492.895402 186.603681 
L 493.833243 186.997783 
L 494.395947 186.876951 
L 494.771083 187.079322 
L 495.708924 187.938672 
L 495.896492 187.883867 
L 496.271628 187.39203 
L 497.0219 186.216965 
L 497.209468 186.158757 
L 497.397036 186.238252 
L 497.772172 186.764007 
L 498.897581 189.134985 
L 499.272717 189.309849 
L 499.460285 189.181756 
L 499.835421 188.549441 
L 500.398126 187.568561 
L 500.585694 187.481395 
L 500.96083 187.696804 
L 501.523534 188.487495 
L 502.648943 190.288467 
L 503.211647 190.67471 
L 503.586783 190.755908 
L 503.961919 190.65079 
L 504.89976 190.144846 
L 505.274896 190.209013 
L 505.650032 190.536478 
L 506.400304 191.274004 
L 506.77544 191.287777 
L 507.713281 190.90239 
L 508.088417 191.064105 
L 508.838689 191.549906 
L 509.213825 191.60305 
L 509.588962 191.416223 
L 509.964098 190.892841 
L 510.901938 189.387314 
L 512.214915 187.868012 
L 513.152755 187.483786 
L 513.527891 187.448243 
L 513.903028 187.697816 
L 514.840868 188.893046 
L 515.216004 188.944541 
L 515.778708 188.847845 
L 516.153845 189.149605 
L 516.528981 189.887159 
L 517.466821 191.937799 
L 517.841957 192.432045 
L 518.217093 192.59391 
L 518.59223 192.386335 
L 519.342502 191.584525 
L 519.905206 191.003435 
L 520.655479 190.409137 
L 521.405751 189.607497 
L 521.780887 189.555773 
L 522.906296 189.723464 
L 523.281432 189.396949 
L 524.219272 188.395874 
L 524.594408 188.291899 
L 524.969544 188.527405 
L 525.719817 189.284132 
L 526.094953 189.265184 
L 526.470089 189.153473 
L 526.845225 189.260088 
L 528.533338 190.542412 
L 529.658747 192.015345 
L 530.221451 192.046393 
L 530.596587 192.12944 
L 532.2847 193.053229 
L 532.659836 192.876489 
L 533.22254 192.061588 
L 533.972812 190.625857 
L 535.473357 186.99622 
L 535.848493 186.787907 
L 536.223629 187.030125 
L 536.786334 188.067043 
L 537.16147 188.640662 
L 537.349038 188.707739 
L 537.724174 188.453098 
L 538.09931 188.14627 
L 538.286878 188.134172 
L 538.662015 188.465691 
L 539.974991 190.286519 
L 540.350127 190.384092 
L 540.725263 190.101757 
L 541.1004 189.788979 
L 541.287968 189.77817 
L 541.663104 190.074352 
L 542.788512 191.457365 
L 543.163648 191.342779 
L 543.913921 190.447178 
L 544.851761 189.314824 
L 545.226897 189.079435 
L 545.602034 189.133385 
L 546.352306 189.558604 
L 546.727442 189.361784 
L 547.665282 188.814749 
L 548.040419 188.687778 
L 548.415555 188.787174 
L 548.978259 189.336733 
L 549.728531 190.291469 
L 550.103668 190.427098 
L 550.85394 190.44396 
L 551.229076 190.766927 
L 551.79178 191.802896 
L 552.354485 192.702242 
L 552.729621 192.967746 
L 552.917189 192.943405 
L 553.104757 192.754888 
L 553.479893 191.809679 
L 554.230165 189.231232 
L 554.605302 188.724034 
L 554.79287 188.7095 
L 555.168006 188.992757 
L 556.105846 189.968982 
L 557.793959 191.321521 
L 558.169095 191.132907 
L 558.731799 190.451148 
L 559.66964 189.143386 
L 560.60748 188.388359 
L 561.170184 187.081253 
L 562.295593 184.063384 
L 562.670729 183.418893 
L 563.045865 183.251044 
L 563.421001 183.451583 
L 563.983706 184.053835 
L 564.54641 184.948883 
L 565.109114 186.501556 
L 565.671818 188.056019 
L 566.234523 188.811872 
L 567.172363 189.667582 
L 567.922635 190.190127 
L 569.42318 190.561224 
L 569.798316 190.233997 
L 570.173452 189.505858 
L 570.923725 187.13808 
L 571.486429 185.716647 
L 571.861565 185.388582 
L 572.049133 185.496425 
L 572.424269 186.316047 
L 573.36211 189.233666 
L 573.737246 189.501867 
L 574.112382 189.35682 
L 574.487518 188.905297 
L 575.612927 187.146904 
L 576.175631 186.860392 
L 576.925903 186.665141 
L 577.30104 186.981658 
L 577.863744 188.197053 
L 578.614016 189.94356 
L 578.989152 190.257094 
L 580.114561 190.446036 
L 580.864833 191.059136 
L 581.239969 191.083735 
L 581.990242 191.004291 
L 582.552946 191.004283 
L 582.928082 190.766551 
L 583.303218 190.138164 
L 584.241059 188.215369 
L 584.616195 188.05466 
L 584.991331 188.361908 
L 586.304308 190.101918 
L 586.867012 190.249279 
L 587.804852 190.462296 
L 588.179988 190.262038 
L 588.742693 189.701938 
L 589.305397 188.802747 
L 590.055669 187.486586 
L 590.430805 187.261028 
L 590.99351 187.360166 
L 591.743782 187.714458 
L 592.306486 188.041317 
L 593.807031 188.278828 
L 594.744871 189.106894 
L 595.682712 189.958901 
L 595.87028 189.986754 
L 596.245416 189.700748 
L 596.80812 188.924884 
L 597.183256 188.826266 
L 597.558393 189.147696 
L 598.496233 190.474134 
L 598.871369 190.94591 
L 599.058937 191.03032 
L 599.246505 190.982568 
L 600.184346 190.160012 
L 601.122186 190.183567 
L 603.560571 187.932191 
L 603.935707 187.92039 
L 604.498412 187.971082 
L 604.873548 187.733879 
L 605.811388 186.424335 
L 605.998956 186.490449 
L 606.186524 186.795837 
L 606.561661 187.989425 
L 607.311933 190.66903 
L 607.874637 191.888079 
L 608.624909 192.765237 
L 609.187614 193.328891 
L 609.375182 193.402439 
L 609.56275 193.350384 
L 609.937886 192.87614 
L 610.875726 191.396659 
L 611.250863 191.14726 
L 611.625999 191.26401 
L 612.001135 191.389658 
L 612.188703 191.23686 
L 612.563839 190.42223 
L 613.126543 189.123426 
L 613.689248 188.578068 
L 614.251952 187.959996 
L 615.189792 186.851106 
L 615.564928 186.766965 
L 615.940065 187.107735 
L 617.253041 189.285099 
L 617.815745 189.422561 
L 618.190882 189.268159 
L 618.566018 188.819741 
L 621.191971 184.776689 
L 621.379539 184.725326 
L 621.567107 184.800215 
L 621.942243 185.292213 
L 622.692516 186.464316 
L 622.880084 186.512744 
L 623.25522 186.260503 
L 623.630356 185.952959 
L 623.817924 185.927496 
L 624.19306 186.223112 
L 624.755765 187.227307 
L 625.318469 188.224356 
L 625.693605 188.539358 
L 626.068741 188.415374 
L 626.631445 187.651537 
L 628.319558 185.020177 
L 628.882262 184.406036 
L 629.820103 182.981271 
L 630.007671 182.994018 
L 630.382807 183.40189 
L 631.508216 185.085484 
L 631.883352 185.261448 
L 632.821192 185.235486 
L 633.196328 185.504844 
L 633.759033 185.961819 
L 634.134169 185.876794 
L 634.509305 185.450651 
L 635.634713 183.698859 
L 636.00985 183.617133 
L 636.572554 183.807828 
L 636.94769 183.633986 
L 638.073098 182.58073 
L 638.448235 182.503147 
L 639.010939 182.707393 
L 639.386075 183.055905 
L 640.136347 184.249972 
L 640.88662 185.63288 
L 641.636892 187.201218 
L 642.012028 187.60043 
L 642.387164 187.670795 
L 642.762301 187.45649 
L 643.325005 186.858719 
L 643.887709 185.929014 
L 644.637981 184.758714 
L 646.326094 183.366865 
L 646.70123 183.414654 
L 647.076366 183.814269 
L 648.576911 185.756075 
L 649.327183 186.370365 
L 649.70232 186.456118 
L 650.077456 186.322062 
L 650.64016 185.733012 
L 651.202864 184.759011 
L 652.515841 182.190852 
L 652.890977 181.980329 
L 653.078545 182.093177 
L 653.453681 182.694391 
L 654.391522 184.725122 
L 654.766658 185.095769 
L 655.141794 185.187037 
L 655.51693 185.082447 
L 655.892066 184.794368 
L 656.267202 184.220014 
L 657.767747 181.313201 
L 657.955315 181.229988 
L 658.330451 181.417685 
L 659.080724 182.474787 
L 659.643428 183.082213 
L 660.018564 183.071568 
L 660.768836 182.648315 
L 661.331541 182.91945 
L 661.706677 183.031479 
L 662.081813 182.905183 
L 662.456949 182.379779 
L 663.207222 180.954989 
L 664.33263 179.64755 
L 665.27047 178.106618 
L 666.020743 177.391894 
L 666.771015 176.647202 
L 667.333719 176.087993 
L 667.896424 175.909606 
L 669.959673 175.671607 
L 670.897513 175.19306 
L 671.460217 174.719018 
L 671.835353 174.703157 
L 672.585626 174.910488 
L 672.960762 174.802736 
L 673.335898 174.430522 
L 673.898602 173.297959 
L 676.336987 167.234967 
L 676.899692 166.647067 
L 677.462396 166.17737 
L 677.837532 165.64231 
L 678.400236 164.302744 
L 679.338077 161.574488 
L 679.713213 161.065834 
L 680.838621 160.112836 
L 681.213757 159.458383 
L 681.776462 157.905942 
L 682.526734 154.795086 
L 683.277006 151.674939 
L 683.652143 150.794294 
L 684.402415 149.39643 
L 684.965119 147.503353 
L 685.90296 142.990196 
L 686.8408 138.650098 
L 687.77864 135.60493 
L 688.716481 132.732865 
L 689.841889 128.774352 
L 690.404594 127.5962 
L 690.77973 127.259832 
L 691.342434 127.028465 
L 691.71757 126.609773 
L 692.280274 125.519885 
L 693.030547 123.501062 
L 693.593251 121.443713 
L 694.155955 119.393655 
L 694.531091 118.934628 
L 694.718659 119.003219 
L 695.6565 119.921466 
L 696.219204 119.923378 
L 696.59434 119.95679 
L 696.969476 120.246755 
L 697.344613 120.924964 
L 698.094885 123.126673 
L 700.158134 129.678012 
L 700.908406 134.029572 
L 701.846247 139.264527 
L 702.408951 141.416802 
L 703.159223 143.322709 
L 703.721927 144.099549 
L 704.097064 144.578988 
L 704.4722 145.473454 
L 705.222472 148.397175 
L 705.972744 151.97678 
L 707.285721 158.780554 
L 708.035993 161.270137 
L 708.786266 163.06397 
L 709.536538 164.529147 
L 710.099242 166.532836 
L 712.350059 175.921463 
L 713.100332 177.859467 
L 713.475468 178.360232 
L 714.788444 179.162676 
L 715.538717 179.312542 
L 716.476557 179.344117 
L 716.851693 179.999563 
L 717.789534 182.296003 
L 718.16467 182.574915 
L 718.539806 182.538085 
L 719.10251 182.130412 
L 719.477646 181.873071 
L 719.852783 181.922543 
L 720.790623 182.738076 
L 721.353327 182.635193 
L 721.916031 182.580721 
L 723.791712 182.599174 
L 724.354417 182.584403 
L 724.729553 182.805883 
L 725.667393 183.845514 
L 726.230097 184.522944 
L 726.605234 184.615159 
L 726.98037 184.327698 
L 727.730642 183.571621 
L 728.105778 183.461373 
L 728.856051 183.599005 
L 729.231187 183.162715 
L 730.169027 181.690287 
L 730.544163 181.588104 
L 731.106868 181.976241 
L 731.85714 182.442577 
L 732.232276 182.492227 
L 733.170116 182.321312 
L 733.545253 182.8232 
L 734.670661 185.155284 
L 735.045797 185.377225 
L 735.420933 185.292597 
L 736.546342 184.692609 
L 736.921478 184.549889 
L 737.296614 183.845245 
L 737.859319 181.701609 
L 738.797159 178.123489 
L 739.359863 176.868189 
L 739.922567 176.147132 
L 740.297704 175.881002 
L 740.485272 175.873481 
L 740.67284 175.992423 
L 741.047976 176.671952 
L 741.985816 179.19636 
L 742.360953 179.470263 
L 742.923657 179.308148 
L 743.486361 179.011649 
L 744.049065 178.404233 
L 744.61177 177.822899 
L 744.986906 177.635244 
L 745.362042 177.629045 
L 745.924746 177.913026 
L 746.675018 178.456311 
L 747.050155 178.415227 
L 747.425291 177.953713 
L 748.175563 176.321803 
L 748.738267 175.190744 
L 749.113404 174.74924 
L 749.48854 174.664576 
L 749.863676 175.086684 
L 750.42638 176.498845 
L 751.176652 178.408635 
L 751.739357 179.147202 
L 752.302061 179.520509 
L 752.864765 179.596458 
L 753.615037 179.66288 
L 754.36531 179.735227 
L 754.928014 179.344568 
L 755.490718 178.997382 
L 756.803695 178.645264 
L 757.178831 178.60196 
L 757.553967 178.285698 
L 758.866944 176.127763 
L 759.24208 176.120074 
L 759.804784 176.5957 
L 760.367488 176.970675 
L 761.305329 177.118963 
L 761.680465 177.08856 
L 762.055601 176.880895 
L 762.618305 176.23754 
L 763.743714 174.524354 
L 764.306418 173.66904 
L 764.681554 173.489525 
L 765.244259 173.719737 
L 765.806963 173.902637 
L 766.182099 173.804057 
L 766.744803 173.351134 
L 767.307508 172.58427 
L 767.870212 171.83617 
L 768.05778 171.761289 
L 768.432916 171.96498 
L 769.183188 172.701385 
L 769.745893 172.932214 
L 770.121029 173.668743 
L 770.871301 175.648616 
L 771.246437 175.890627 
L 771.621573 175.645469 
L 772.559414 174.43424 
L 772.93455 174.429203 
L 773.497254 174.566908 
L 773.87239 174.157668 
L 774.997799 172.148389 
L 775.560503 171.440226 
L 776.123207 170.366676 
L 777.436184 167.178738 
L 777.81132 166.941516 
L 778.186456 167.060365 
L 778.936729 167.633977 
L 779.311865 167.523204 
L 779.687001 167.003794 
L 780.437273 165.674825 
L 780.999978 164.85924 
L 781.375114 163.699878 
L 781.937818 160.704226 
L 783.625931 150.277272 
L 784.001067 148.74922 
L 784.188635 148.329927 
L 784.376203 148.22243 
L 784.563771 148.460151 
L 784.938907 149.900293 
L 786.439452 157.778824 
L 787.002156 159.518672 
L 787.377292 159.991607 
L 787.752429 160.026975 
L 788.127565 159.822368 
L 788.877837 158.991122 
L 789.252973 158.634824 
L 789.628109 158.592946 
L 790.003246 159.052386 
L 791.128654 161.195842 
L 791.878926 161.78752 
L 792.441631 162.380629 
L 793.004335 163.062264 
L 793.379471 163.146333 
L 793.754607 162.850285 
L 794.317311 162.357108 
L 794.692448 162.275034 
L 795.630288 162.242368 
L 796.005424 161.946621 
L 796.943265 160.77192 
L 797.318401 160.661121 
L 798.068673 160.623101 
L 798.443809 160.291492 
L 799.006514 159.681156 
L 799.569218 159.456247 
L 800.131922 159.475717 
L 800.694626 159.595228 
L 801.069762 159.377695 
L 801.632467 158.62141 
L 802.195171 157.358669 
L 802.757875 155.88232 
L 803.133011 155.519043 
L 803.320579 155.617678 
L 804.25842 156.818739 
L 804.633556 156.792771 
L 805.008692 156.482693 
L 805.383828 155.803692 
L 805.758965 154.628328 
L 806.509237 151.123052 
L 807.071941 149.037039 
L 807.447077 148.391059 
L 808.384918 147.315978 
L 809.510326 145.561915 
L 810.635735 144.163507 
L 811.573575 142.893967 
L 812.136279 142.41425 
L 812.511416 141.73836 
L 813.07412 140.020377 
L 814.01196 137.093878 
L 814.387096 136.416253 
L 814.762233 136.256363 
L 815.324937 136.553565 
L 815.512505 136.485535 
L 815.700073 136.227227 
L 816.075209 135.170434 
L 816.637913 132.717246 
L 817.95089 126.499168 
L 819.263867 120.604478 
L 820.389275 116.034668 
L 820.951979 114.842777 
L 821.702252 113.427764 
L 822.264956 111.651961 
L 822.82766 109.054262 
L 823.390364 105.583025 
L 823.953069 100.785009 
L 825.641181 84.518836 
L 825.828749 84.394993 
L 826.016317 85.109581 
L 826.391454 88.672616 
L 827.329294 99.577122 
L 827.70443 101.721858 
L 828.079566 102.630668 
L 828.454703 102.801928 
L 829.017407 102.712402 
L 829.580111 102.966272 
L 830.142815 103.409906 
L 830.70552 104.242914 
L 831.64336 105.707951 
L 832.206064 106.23998 
L 832.5812 106.323297 
L 832.956337 106.093002 
L 833.706609 105.082081 
L 834.081745 104.681356 
L 834.456881 104.661444 
L 834.832017 104.993805 
L 835.58229 106.03374 
L 836.144994 107.233393 
L 837.833107 111.547618 
L 838.020675 111.636364 
L 838.208243 111.459203 
L 838.583379 110.36953 
L 839.146083 108.287294 
L 839.333651 107.956565 
L 839.521219 107.952779 
L 839.708788 108.293459 
L 840.646628 111.227239 
L 840.834196 110.869088 
L 841.209332 108.803902 
L 841.772036 103.806506 
L 842.334741 97.392429 
L 842.897445 88.180722 
L 843.647717 73.732426 
L 843.835285 71.792625 
L 844.022853 71.750826 
L 844.210422 74.061058 
L 844.585558 85.013165 
L 845.33583 111.817352 
L 845.898534 123.328721 
L 846.27367 127.075543 
L 846.648807 128.845741 
L 847.023943 129.530747 
L 847.399079 129.636987 
L 847.961783 129.654529 
L 848.336919 129.928836 
L 848.899624 130.649415 
L 849.649896 131.762337 
L 849.837464 131.830217 
L 850.025032 131.749117 
L 851.900713 129.701403 
L 852.275849 129.765055 
L 853.026121 130.340898 
L 853.401258 130.347125 
L 853.963962 130.07976 
L 855.08937 129.29413 
L 855.276938 129.28704 
L 855.464507 129.397435 
L 855.839643 130.07758 
L 857.152619 133.886651 
L 857.527755 134.232439 
L 857.902892 134.297255 
L 858.278028 134.162494 
L 859.215868 133.546349 
L 859.591004 133.769994 
L 860.153709 134.709983 
L 860.716413 135.974548 
L 862.029389 139.596337 
L 862.96723 140.64544 
L 863.529934 142.100378 
L 864.842911 146.132734 
L 865.593183 147.744096 
L 865.968319 148.049814 
L 866.155887 147.981237 
L 866.531023 147.507264 
L 867.281296 146.161348 
L 867.844 144.515305 
L 868.406704 142.981942 
L 868.594272 142.767592 
L 868.78184 142.745553 
L 868.969408 142.918675 
L 869.344545 143.827431 
L 869.907249 146.316521 
L 870.845089 150.796284 
L 871.407794 152.315695 
L 871.970498 153.060989 
L 872.345634 153.274923 
L 872.72077 153.246127 
L 873.095906 153.140136 
L 873.471042 153.346921 
L 873.846179 153.9795 
L 874.596451 155.992714 
L 875.346723 157.791406 
L 876.096996 159.503397 
L 877.59754 163.372182 
L 877.972676 163.581082 
L 878.347813 163.370894 
L 879.285653 162.336365 
L 879.473221 162.396713 
L 879.848357 162.916223 
L 880.411062 163.871358 
L 880.786198 164.214351 
L 881.53647 164.738206 
L 881.911606 165.055468 
L 882.099174 165.083272 
L 882.47431 164.787052 
L 884.537559 161.866533 
L 884.912696 161.527415 
L 885.287832 161.443014 
L 886.225672 161.51845 
L 886.600808 161.524228 
L 887.351081 161.783303 
L 887.726217 161.452995 
L 888.288921 160.429322 
L 889.226761 158.397927 
L 889.789466 157.862823 
L 890.727306 157.119542 
L 891.477578 157.03672 
L 891.852715 156.662248 
L 892.415419 155.998201 
L 892.790555 155.828863 
L 894.103532 155.618056 
L 894.478668 155.212415 
L 895.041372 154.098267 
L 896.16678 151.340577 
L 896.541917 151.045105 
L 896.917053 151.085173 
L 897.854893 151.392627 
L 898.230029 151.314749 
L 898.980302 150.792463 
L 899.918142 149.760569 
L 900.668414 148.705737 
L 901.793823 147.283247 
L 902.356527 146.476415 
L 903.1068 145.254176 
L 903.669504 144.833573 
L 904.232208 144.521503 
L 904.607344 143.945107 
L 905.545185 141.647556 
L 906.670593 138.592224 
L 907.420865 136.037716 
L 907.98357 133.114419 
L 908.546274 128.652009 
L 910.421955 112.386654 
L 911.172227 107.857314 
L 911.547363 106.600162 
L 911.922499 106.066533 
L 912.485204 105.948195 
L 912.86034 105.809291 
L 913.79818 105.175977 
L 914.173316 105.34232 
L 914.548453 105.967333 
L 916.048997 109.732423 
L 916.611702 110.283081 
L 916.986838 110.401773 
L 917.361974 110.17178 
L 917.73711 109.426985 
L 919.050087 105.554011 
L 919.612791 104.807663 
L 919.987927 103.893824 
L 921.113336 100.387492 
L 921.300904 100.197105 
L 921.488472 100.213133 
L 921.67604 100.465661 
L 922.051176 101.83003 
L 922.426312 104.645003 
L 922.989016 111.695155 
L 924.114425 127.349306 
L 925.052265 135.544741 
L 926.55281 148.677457 
L 927.49065 153.808734 
L 928.053355 156.294256 
L 928.428491 157.202756 
L 929.366331 158.661249 
L 929.741467 159.758948 
L 930.304172 162.166953 
L 933.117693 175.904402 
L 934.430669 180.250465 
L 934.993374 181.584256 
L 936.118782 184.854024 
L 936.681486 185.822685 
L 937.056623 185.985713 
L 937.619327 185.786204 
L 938.369599 185.436879 
L 938.557167 185.552407 
L 938.932303 186.269961 
L 940.995552 191.831144 
L 941.18312 191.958773 
L 941.370688 191.877359 
L 941.745825 191.218191 
L 943.246369 187.385783 
L 943.809074 186.762895 
L 944.18421 186.619268 
L 944.559346 186.756709 
L 944.934482 187.129186 
L 945.497186 188.15896 
L 946.059891 189.07506 
L 946.435027 189.32591 
L 946.810163 189.239969 
L 947.935571 188.356877 
L 948.310708 188.095449 
L 949.06098 187.314394 
L 949.248548 187.280197 
L 949.436116 187.377957 
L 949.811252 187.953427 
L 950.373956 189.03246 
L 951.124229 189.748236 
L 952.062069 190.507508 
L 952.624773 190.747539 
L 953.375046 190.848678 
L 953.93775 191.274061 
L 954.688022 191.802551 
L 955.250727 191.929906 
L 955.625863 191.687066 
L 956.376135 190.93685 
L 956.563703 191.006995 
L 956.938839 191.531632 
L 957.501544 192.296897 
L 958.064248 192.802744 
L 959.002088 194.238472 
L 959.189656 194.27532 
L 959.564793 194.037251 
L 960.127497 193.572749 
L 960.502633 193.575468 
L 961.065337 194.077859 
L 961.628041 194.453792 
L 962.003178 194.415092 
L 962.565882 193.938215 
L 962.941018 193.662062 
L 963.316154 193.689805 
L 964.253995 194.476985 
L 965.191835 195.233386 
L 965.379403 195.141376 
L 965.754539 194.468216 
L 966.317243 192.581926 
L 966.879948 190.977702 
L 967.255084 190.685353 
L 968.943197 190.578174 
L 969.318333 190.356842 
L 969.693469 189.834681 
L 971.006446 187.112667 
L 971.194014 186.994982 
L 971.381582 187.026952 
L 971.756718 187.570533 
L 972.319422 189.337642 
L 972.882126 191.233905 
L 973.257263 192.00638 
L 973.819967 192.563639 
L 974.570239 193.113194 
L 974.945375 193.050449 
L 975.883216 192.275454 
L 976.44592 191.667733 
L 976.821056 190.939625 
L 977.38376 189.043593 
L 977.946465 187.266124 
L 978.321601 186.838959 
L 978.696737 187.010212 
L 979.447009 187.656144 
L 979.822145 187.689294 
L 980.38485 187.370367 
L 980.759986 187.169324 
L 981.135122 187.296531 
L 981.510258 187.858406 
L 983.198371 191.331859 
L 983.573507 191.528577 
L 983.761075 191.438289 
L 984.136211 190.743011 
L 985.449188 186.807817 
L 985.824324 186.655626 
L 986.387028 186.868817 
L 986.949733 187.07756 
L 987.887573 187.166354 
L 988.637845 187.763241 
L 989.20055 188.134068 
L 989.575686 188.153697 
L 990.701094 187.921766 
L 991.07623 188.096788 
L 992.201639 188.873079 
L 992.951911 188.991333 
L 994.264888 188.896932 
L 994.640024 188.799113 
L 995.01516 188.462947 
L 996.328137 186.788658 
L 996.515705 186.770148 
L 996.703273 186.90891 
L 997.078409 187.646778 
L 997.641113 188.873285 
L 997.828681 189.017863 
L 998.203818 188.913539 
L 998.578954 188.713098 
L 998.95409 188.757256 
L 999.329226 188.839717 
L 999.704362 188.656686 
L 1000.267066 188.287437 
L 1000.642203 188.444352 
L 1001.204907 189.164708 
L 1001.580043 189.600719 
L 1001.955179 189.735011 
L 1003.455724 189.448677 
L 1004.7687 188.474741 
L 1005.331405 187.944456 
L 1005.706541 187.934441 
L 1007.019517 188.639671 
L 1007.582222 188.491394 
L 1008.144926 188.045399 
L 1009.645471 186.307063 
L 1010.020607 186.349951 
L 1010.583311 186.801707 
L 1010.958447 187.078972 
L 1011.333583 187.005015 
L 1011.70872 186.508539 
L 1012.271424 185.603459 
L 1012.64656 185.42169 
L 1013.021696 185.775859 
L 1013.959537 187.193098 
L 1014.709809 187.986608 
L 1015.272513 188.203481 
L 1016.397922 188.552485 
L 1016.773058 188.805739 
L 1017.898466 190.065263 
L 1018.273602 189.861154 
L 1019.399011 188.550301 
L 1019.774147 188.55176 
L 1020.711988 188.781558 
L 1021.087124 188.534467 
L 1022.212532 187.331846 
L 1022.775236 186.797398 
L 1023.337941 186.207672 
L 1023.713077 186.207408 
L 1024.088213 186.277622 
L 1025.213622 186.07172 
L 1025.588758 186.337102 
L 1026.151462 187.03827 
L 1027.089302 188.176412 
L 1027.652007 188.622164 
L 1028.027143 188.634409 
L 1028.777415 188.478895 
L 1029.527687 188.645373 
L 1030.27796 188.435036 
L 1030.653096 188.788898 
L 1031.2158 189.544491 
L 1031.403368 189.624974 
L 1031.590936 189.550343 
L 1031.966073 188.999385 
L 1032.528777 188.006908 
L 1032.903913 187.767366 
L 1033.279049 187.960046 
L 1033.841753 188.824346 
L 1034.404458 189.718881 
L 1034.779594 190.043416 
L 1035.15473 190.004217 
L 1036.280138 189.207939 
L 1036.842843 189.200275 
L 1037.593115 189.316154 
L 1037.968251 189.002566 
L 1039.09366 187.127449 
L 1039.656364 186.205312 
L 1040.0315 185.952932 
L 1040.219068 186.01201 
L 1040.594204 186.498726 
L 1041.532045 188.360968 
L 1041.907181 188.545409 
L 1042.282317 188.255673 
L 1043.220157 186.974044 
L 1043.595294 186.979846 
L 1044.157998 187.179745 
L 1045.283406 187.175951 
L 1046.033679 187.559957 
L 1047.159087 188.573022 
L 1047.534223 188.723827 
L 1047.90936 189.122841 
L 1049.409904 191.286346 
L 1049.78504 191.404988 
L 1050.160177 191.279371 
L 1050.722881 190.79646 
L 1052.223425 189.217202 
L 1052.973698 188.880593 
L 1054.099106 188.825472 
L 1054.661811 189.138965 
L 1055.412083 189.525006 
L 1056.537491 189.880145 
L 1057.100196 190.573569 
L 1058.038036 192.163823 
L 1058.413172 192.284508 
L 1059.163445 192.042825 
L 1059.913717 191.621533 
L 1060.851557 190.821095 
L 1061.226693 189.991317 
L 1062.164534 187.478234 
L 1062.352102 187.313656 
L 1062.53967 187.306669 
L 1063.47751 187.906983 
L 1064.227783 187.669162 
L 1064.602919 187.957519 
L 1065.540759 188.877277 
L 1065.915896 189.27819 
L 1066.4786 190.345584 
L 1067.228872 191.781583 
L 1067.604008 192.052755 
L 1067.979144 191.99782 
L 1068.541849 191.438718 
L 1068.916985 191.139876 
L 1069.292121 191.151877 
L 1069.854825 191.233224 
L 1070.229961 191.009321 
L 1070.605098 190.461715 
L 1071.35537 189.128214 
L 1071.730506 188.806241 
L 1072.105642 188.846664 
L 1072.668346 189.119058 
L 1073.793755 189.235759 
L 1074.544027 190.191595 
L 1075.2943 190.97535 
L 1076.607276 191.922531 
L 1077.545117 192.24128 
L 1077.920253 191.929687 
L 1078.482957 190.702359 
L 1079.045661 189.491635 
L 1079.420797 189.091875 
L 1079.795934 189.093206 
L 1080.17107 189.517779 
L 1080.733774 190.706682 
L 1081.484046 192.308919 
L 1081.859183 192.807727 
L 1082.046751 192.920473 
L 1082.234319 192.885329 
L 1082.609455 192.34761 
L 1083.922431 189.623118 
L 1084.672704 188.559933 
L 1085.422976 187.634381 
L 1086.548385 185.765027 
L 1086.923521 185.649377 
L 1087.298657 185.842078 
L 1088.424065 186.756314 
L 1088.799202 186.756136 
L 1089.174338 186.42085 
L 1089.549474 185.679202 
L 1090.112178 184.398176 
L 1090.487314 184.006238 
L 1090.862451 184.05796 
L 1091.237587 184.551785 
L 1092.362995 186.881892 
L 1092.550563 186.988347 
L 1092.738131 186.962695 
L 1093.113268 186.590282 
L 1093.675972 185.546458 
L 1094.426244 184.031192 
L 1094.80138 183.87637 
L 1095.176516 184.10428 
L 1095.739221 184.784543 
L 1096.301925 186.060794 
L 1096.864629 187.217819 
L 1097.239765 187.543775 
L 1097.614902 187.613603 
L 1098.177606 187.615154 
L 1098.552742 187.840855 
L 1100.240855 189.341243 
L 1100.615991 189.023843 
L 1101.178695 188.381513 
L 1102.116536 187.747479 
L 1102.866808 186.851501 
L 1104.179784 185.85357 
L 1105.305193 184.130738 
L 1105.680329 184.185305 
L 1106.243033 184.58315 
L 1106.618169 185.128899 
L 1107.180874 186.568238 
L 1107.931146 188.62061 
L 1108.306282 189.009463 
L 1108.49385 188.959671 
L 1109.431691 188.193944 
L 1109.806827 188.357502 
L 1111.49494 189.486326 
L 1111.870076 189.422386 
L 1113.37062 188.470377 
L 1113.745757 188.446125 
L 1114.120893 188.632054 
L 1114.496029 189.155181 
L 1115.433869 190.776997 
L 1115.809006 191.04463 
L 1116.934414 191.15258 
L 1117.497118 191.415767 
L 1118.247391 191.682924 
L 1118.622527 191.871532 
L 1118.997663 191.753389 
L 1119.560367 191.072146 
L 1121.436048 188.482037 
L 1121.998752 188.210402 
L 1122.373888 188.293305 
L 1122.749025 188.741092 
L 1123.311729 189.964678 
L 1123.686865 190.738982 
L 1124.062001 191.056019 
L 1124.437137 190.945308 
L 1124.999842 190.319473 
L 1125.562546 189.720911 
L 1125.937682 189.746654 
L 1126.312818 190.187676 
L 1127.063091 191.426014 
L 1127.438227 191.5723 
L 1128.000931 191.612863 
L 1128.376067 192.097616 
L 1129.313908 193.899428 
L 1129.876612 194.358721 
L 1130.439316 194.536771 
L 1130.814452 194.475895 
L 1131.377156 194.052312 
L 1131.939861 193.278365 
L 1132.502565 191.947937 
L 1133.252837 189.747213 
L 1133.627973 189.219666 
L 1134.00311 189.07837 
L 1134.753382 188.876771 
L 1135.503654 188.595987 
L 1137.191767 188.80248 
L 1137.566903 189.195572 
L 1138.87988 191.29169 
L 1139.255016 191.391976 
L 1141.318265 191.195508 
L 1142.631241 190.259646 
L 1143.006378 189.648318 
L 1143.944218 187.61628 
L 1144.319354 187.261285 
L 1144.69449 187.282375 
L 1145.069626 187.734823 
L 1145.444763 188.59431 
L 1146.570171 191.859561 
L 1146.945307 192.097873 
L 1147.883148 192.131316 
L 1148.258284 191.890344 
L 1148.820988 190.97938 
L 1149.383692 190.252919 
L 1149.946397 190.000226 
L 1150.321533 189.960515 
L 1150.696669 190.12897 
L 1152.009646 191.170043 
L 1152.384782 191.275811 
L 1152.759918 191.134226 
L 1153.697758 190.373646 
L 1154.635599 189.921894 
L 1155.010735 189.536255 
L 1155.573439 188.808482 
L 1155.761007 188.760146 
L 1155.948575 188.898599 
L 1156.323711 189.667259 
L 1156.886416 190.945218 
L 1157.261552 191.148281 
L 1157.636688 190.853953 
L 1158.38696 189.880861 
L 1158.762097 189.808894 
L 1159.512369 190.122269 
L 1159.887505 189.893224 
L 1160.825345 188.664105 
L 1161.38805 188.03521 
L 1161.763186 188.02769 
L 1162.138322 188.407571 
L 1163.076162 189.609634 
L 1163.826435 190.454562 
L 1164.389139 191.048966 
L 1164.951843 191.168152 
L 1165.326979 191.117469 
L 1165.702116 190.778542 
L 1166.639956 189.126909 
L 1166.827524 189.079816 
L 1167.015092 189.188242 
L 1167.390228 189.781012 
L 1168.328069 191.5436 
L 1168.703205 191.85828 
L 1169.078341 191.89034 
L 1169.453477 191.554215 
L 1170.016182 190.469833 
L 1170.766454 189.042573 
L 1171.516726 188.152926 
L 1171.891862 187.946043 
L 1172.266999 188.008163 
L 1173.204839 188.522608 
L 1173.767543 188.656748 
L 1174.142679 188.971396 
L 1174.517816 189.623718 
L 1175.643224 191.96587 
L 1176.01836 192.328437 
L 1176.393496 192.373714 
L 1176.956201 192.064444 
L 1177.518905 191.503201 
L 1178.269177 190.737558 
L 1179.207018 190.347057 
L 1180.89513 189.764701 
L 1182.208107 188.899063 
L 1182.583243 188.611251 
L 1182.770811 188.604365 
L 1183.145947 188.958675 
L 1183.708652 190.075795 
L 1184.271356 191.156697 
L 1184.646492 191.445012 
L 1184.83406 191.458507 
L 1184.83406 191.458507 
" clip-path="url(#pa0d0528c97)" style="fill: none; stroke: #000000; stroke-width: 2; stroke-linecap: square"/>
   </g>
   <g id="patch_3">
    <path d="M 3.00024 198.907885 
L 1184.99976 198.907885 
" style="fill: none; stroke: #000000; stroke-width: 2; stroke-linejoin: miter; stroke-linecap: square"/>
   </g>
  </g>
 </g>
 <defs>
  <clipPath id="pa0d0528c97">
   <rect x="3.00024" y="3.00024" width="1181.99952" height="195.907645"/>
  </clipPath>
 </defs>
</svg>
