<?xml version="1.0" encoding="utf-8" standalone="no"?>
<!DOCTYPE svg PUBLIC "-//W3C//DTD SVG 1.1//EN"
  "http://www.w3.org/Graphics/SVG/1.1/DTD/svg11.dtd">
<svg xmlns:xlink="http://www.w3.org/1999/xlink" width="1188pt" height="252pt" viewBox="0 0 1188 252" xmlns="http://www.w3.org/2000/svg" version="1.1">
 <metadata>
  <rdf:RDF xmlns:dc="http://purl.org/dc/elements/1.1/" xmlns:cc="http://creativecommons.org/ns#" xmlns:rdf="http://www.w3.org/1999/02/22-rdf-syntax-ns#">
   <cc:Work>
    <dc:type rdf:resource="http://purl.org/dc/dcmitype/StillImage"/>
    <dc:date>2024-05-13T18:25:53.745770</dc:date>
    <dc:format>image/svg+xml</dc:format>
    <dc:creator>
     <cc:Agent>
      <dc:title>Matplotlib v3.8.0, https://matplotlib.org/</dc:title>
     </cc:Agent>
    </dc:creator>
   </cc:Work>
  </rdf:RDF>
 </metadata>
 <defs>
  <style type="text/css">*{stroke-linejoin: round; stroke-linecap: butt}</style>
 </defs>
 <g id="figure_1">
  <g id="patch_1">
   <path d="M 0 252 
L 1188 252 
L 1188 0 
L 0 0 
z
" style="fill: #ffffff"/>
  </g>
  <g id="axes_1">
   <g id="patch_2">
    <path d="M 3.00024 198.907885 
L 1184.99976 198.907885 
L 1184.99976 3.00024 
L 3.00024 3.00024 
z
" style="fill: #ffffff"/>
   </g>
   <g id="matplotlib.axis_1">
    <g id="xtick_1">
     <g id="line2d_1">
      <defs>
       <path id="mbc928ad468" d="M 0 0 
L 0 8 
" style="stroke: #000000; stroke-width: 2"/>
      </defs>
      <g>
       <use xlink:href="#mbc928ad468" x="1135.74978" y="198.907885" style="stroke: #000000; stroke-width: 2"/>
      </g>
     </g>
     <g id="text_1">
      <!-- −1 -->
      <g transform="translate(1125.488374 224.791947) scale(0.18 -0.18)">
       <defs>
        <path id="Arial-BoldMT-2212" d="M 266 1850 
L 266 2672 
L 3469 2672 
L 3469 1850 
L 266 1850 
z
" transform="scale(0.015625)"/>
        <path id="Arial-BoldMT-31" d="M 2519 0 
L 1641 0 
L 1641 3309 
Q 1159 2859 506 2644 
L 506 3441 
Q 850 3553 1253 3867 
Q 1656 4181 1806 4600 
L 2519 4600 
L 2519 0 
z
" transform="scale(0.015625)"/>
       </defs>
       <use xlink:href="#Arial-BoldMT-2212"/>
       <use xlink:href="#Arial-BoldMT-31" x="58.398438"/>
      </g>
     </g>
    </g>
    <g id="xtick_2">
     <g id="line2d_2">
      <g>
       <use xlink:href="#mbc928ad468" x="1037.24982" y="198.907885" style="stroke: #000000; stroke-width: 2"/>
      </g>
     </g>
     <g id="text_2">
      <!-- 0 -->
      <g transform="translate(1032.244976 224.791947) scale(0.18 -0.18)">
       <defs>
        <path id="Arial-BoldMT-30" d="M 1756 4600 
Q 2422 4600 2797 4125 
Q 3244 3563 3244 2259 
Q 3244 959 2794 391 
Q 2422 -78 1756 -78 
Q 1088 -78 678 436 
Q 269 950 269 2269 
Q 269 3563 719 4131 
Q 1091 4600 1756 4600 
z
M 1756 3872 
Q 1597 3872 1472 3770 
Q 1347 3669 1278 3406 
Q 1188 3066 1188 2259 
Q 1188 1453 1269 1151 
Q 1350 850 1473 750 
Q 1597 650 1756 650 
Q 1916 650 2041 751 
Q 2166 853 2234 1116 
Q 2325 1453 2325 2259 
Q 2325 3066 2244 3367 
Q 2163 3669 2039 3770 
Q 1916 3872 1756 3872 
z
" transform="scale(0.015625)"/>
       </defs>
       <use xlink:href="#Arial-BoldMT-30"/>
      </g>
     </g>
    </g>
    <g id="xtick_3">
     <g id="line2d_3">
      <g>
       <use xlink:href="#mbc928ad468" x="938.74986" y="198.907885" style="stroke: #000000; stroke-width: 2"/>
      </g>
     </g>
     <g id="text_3">
      <!-- 1 -->
      <g transform="translate(933.745016 224.791947) scale(0.18 -0.18)">
       <use xlink:href="#Arial-BoldMT-31"/>
      </g>
     </g>
    </g>
    <g id="xtick_4">
     <g id="line2d_4">
      <g>
       <use xlink:href="#mbc928ad468" x="840.2499" y="198.907885" style="stroke: #000000; stroke-width: 2"/>
      </g>
     </g>
     <g id="text_4">
      <!-- 2 -->
      <g transform="translate(835.245056 224.791947) scale(0.18 -0.18)">
       <defs>
        <path id="Arial-BoldMT-32" d="M 3238 816 
L 3238 0 
L 159 0 
Q 209 463 459 877 
Q 709 1291 1447 1975 
Q 2041 2528 2175 2725 
Q 2356 2997 2356 3263 
Q 2356 3556 2198 3714 
Q 2041 3872 1763 3872 
Q 1488 3872 1325 3706 
Q 1163 3541 1138 3156 
L 263 3244 
Q 341 3969 753 4284 
Q 1166 4600 1784 4600 
Q 2463 4600 2850 4234 
Q 3238 3869 3238 3325 
Q 3238 3016 3127 2736 
Q 3016 2456 2775 2150 
Q 2616 1947 2200 1565 
Q 1784 1184 1673 1059 
Q 1563 934 1494 816 
L 3238 816 
z
" transform="scale(0.015625)"/>
       </defs>
       <use xlink:href="#Arial-BoldMT-32"/>
      </g>
     </g>
    </g>
    <g id="xtick_5">
     <g id="line2d_5">
      <g>
       <use xlink:href="#mbc928ad468" x="741.74994" y="198.907885" style="stroke: #000000; stroke-width: 2"/>
      </g>
     </g>
     <g id="text_5">
      <!-- 3 -->
      <g transform="translate(736.745096 224.791947) scale(0.18 -0.18)">
       <defs>
        <path id="Arial-BoldMT-33" d="M 241 1216 
L 1091 1319 
Q 1131 994 1309 822 
Q 1488 650 1741 650 
Q 2013 650 2198 856 
Q 2384 1063 2384 1413 
Q 2384 1744 2206 1937 
Q 2028 2131 1772 2131 
Q 1603 2131 1369 2066 
L 1466 2781 
Q 1822 2772 2009 2936 
Q 2197 3100 2197 3372 
Q 2197 3603 2059 3740 
Q 1922 3878 1694 3878 
Q 1469 3878 1309 3722 
Q 1150 3566 1116 3266 
L 306 3403 
Q 391 3819 561 4067 
Q 731 4316 1036 4458 
Q 1341 4600 1719 4600 
Q 2366 4600 2756 4188 
Q 3078 3850 3078 3425 
Q 3078 2822 2419 2463 
Q 2813 2378 3048 2084 
Q 3284 1791 3284 1375 
Q 3284 772 2843 347 
Q 2403 -78 1747 -78 
Q 1125 -78 715 280 
Q 306 638 241 1216 
z
" transform="scale(0.015625)"/>
       </defs>
       <use xlink:href="#Arial-BoldMT-33"/>
      </g>
     </g>
    </g>
    <g id="xtick_6">
     <g id="line2d_6">
      <g>
       <use xlink:href="#mbc928ad468" x="643.24998" y="198.907885" style="stroke: #000000; stroke-width: 2"/>
      </g>
     </g>
     <g id="text_6">
      <!-- 4 -->
      <g transform="translate(638.245136 224.791947) scale(0.18 -0.18)">
       <defs>
        <path id="Arial-BoldMT-34" d="M 1994 0 
L 1994 922 
L 119 922 
L 119 1691 
L 2106 4600 
L 2844 4600 
L 2844 1694 
L 3413 1694 
L 3413 922 
L 2844 922 
L 2844 0 
L 1994 0 
z
M 1994 1694 
L 1994 3259 
L 941 1694 
L 1994 1694 
z
" transform="scale(0.015625)"/>
       </defs>
       <use xlink:href="#Arial-BoldMT-34"/>
      </g>
     </g>
    </g>
    <g id="xtick_7">
     <g id="line2d_7">
      <g>
       <use xlink:href="#mbc928ad468" x="544.75002" y="198.907885" style="stroke: #000000; stroke-width: 2"/>
      </g>
     </g>
     <g id="text_7">
      <!-- 5 -->
      <g transform="translate(539.745176 224.791947) scale(0.18 -0.18)">
       <defs>
        <path id="Arial-BoldMT-35" d="M 284 1178 
L 1159 1269 
Q 1197 972 1381 798 
Q 1566 625 1806 625 
Q 2081 625 2272 848 
Q 2463 1072 2463 1522 
Q 2463 1944 2273 2155 
Q 2084 2366 1781 2366 
Q 1403 2366 1103 2031 
L 391 2134 
L 841 4519 
L 3163 4519 
L 3163 3697 
L 1506 3697 
L 1369 2919 
Q 1663 3066 1969 3066 
Q 2553 3066 2959 2641 
Q 3366 2216 3366 1538 
Q 3366 972 3038 528 
Q 2591 -78 1797 -78 
Q 1163 -78 763 262 
Q 363 603 284 1178 
z
" transform="scale(0.015625)"/>
       </defs>
       <use xlink:href="#Arial-BoldMT-35"/>
      </g>
     </g>
    </g>
    <g id="xtick_8">
     <g id="line2d_8">
      <g>
       <use xlink:href="#mbc928ad468" x="446.25006" y="198.907885" style="stroke: #000000; stroke-width: 2"/>
      </g>
     </g>
     <g id="text_8">
      <!-- 6 -->
      <g transform="translate(441.245216 224.791947) scale(0.18 -0.18)">
       <defs>
        <path id="Arial-BoldMT-36" d="M 3247 3459 
L 2397 3366 
Q 2366 3628 2234 3753 
Q 2103 3878 1894 3878 
Q 1616 3878 1423 3628 
Q 1231 3378 1181 2588 
Q 1509 2975 1997 2975 
Q 2547 2975 2939 2556 
Q 3331 2138 3331 1475 
Q 3331 772 2918 347 
Q 2506 -78 1859 -78 
Q 1166 -78 719 461 
Q 272 1000 272 2228 
Q 272 3488 737 4044 
Q 1203 4600 1947 4600 
Q 2469 4600 2811 4308 
Q 3153 4016 3247 3459 
z
M 1256 1544 
Q 1256 1116 1453 883 
Q 1650 650 1903 650 
Q 2147 650 2309 840 
Q 2472 1031 2472 1466 
Q 2472 1913 2297 2120 
Q 2122 2328 1859 2328 
Q 1606 2328 1431 2129 
Q 1256 1931 1256 1544 
z
" transform="scale(0.015625)"/>
       </defs>
       <use xlink:href="#Arial-BoldMT-36"/>
      </g>
     </g>
    </g>
    <g id="xtick_9">
     <g id="line2d_9">
      <g>
       <use xlink:href="#mbc928ad468" x="347.7501" y="198.907885" style="stroke: #000000; stroke-width: 2"/>
      </g>
     </g>
     <g id="text_9">
      <!-- 7 -->
      <g transform="translate(342.745256 224.791947) scale(0.18 -0.18)">
       <defs>
        <path id="Arial-BoldMT-37" d="M 272 3703 
L 272 4519 
L 3275 4519 
L 3275 3881 
Q 2903 3516 2518 2831 
Q 2134 2147 1932 1376 
Q 1731 606 1734 0 
L 888 0 
Q 909 950 1279 1937 
Q 1650 2925 2269 3703 
L 272 3703 
z
" transform="scale(0.015625)"/>
       </defs>
       <use xlink:href="#Arial-BoldMT-37"/>
      </g>
     </g>
    </g>
    <g id="xtick_10">
     <g id="line2d_10">
      <g>
       <use xlink:href="#mbc928ad468" x="249.25014" y="198.907885" style="stroke: #000000; stroke-width: 2"/>
      </g>
     </g>
     <g id="text_10">
      <!-- 8 -->
      <g transform="translate(244.245296 224.791947) scale(0.18 -0.18)">
       <defs>
        <path id="Arial-BoldMT-38" d="M 1025 2472 
Q 684 2616 529 2867 
Q 375 3119 375 3419 
Q 375 3931 733 4265 
Q 1091 4600 1750 4600 
Q 2403 4600 2764 4265 
Q 3125 3931 3125 3419 
Q 3125 3100 2959 2851 
Q 2794 2603 2494 2472 
Q 2875 2319 3073 2025 
Q 3272 1731 3272 1347 
Q 3272 713 2867 316 
Q 2463 -81 1791 -81 
Q 1166 -81 750 247 
Q 259 634 259 1309 
Q 259 1681 443 1992 
Q 628 2303 1025 2472 
z
M 1206 3356 
Q 1206 3094 1354 2947 
Q 1503 2800 1750 2800 
Q 2000 2800 2150 2948 
Q 2300 3097 2300 3359 
Q 2300 3606 2151 3754 
Q 2003 3903 1759 3903 
Q 1506 3903 1356 3753 
Q 1206 3603 1206 3356 
z
M 1125 1394 
Q 1125 1031 1311 828 
Q 1497 625 1775 625 
Q 2047 625 2225 820 
Q 2403 1016 2403 1384 
Q 2403 1706 2222 1901 
Q 2041 2097 1763 2097 
Q 1441 2097 1283 1875 
Q 1125 1653 1125 1394 
z
" transform="scale(0.015625)"/>
       </defs>
       <use xlink:href="#Arial-BoldMT-38"/>
      </g>
     </g>
    </g>
    <g id="xtick_11">
     <g id="line2d_11">
      <g>
       <use xlink:href="#mbc928ad468" x="150.75018" y="198.907885" style="stroke: #000000; stroke-width: 2"/>
      </g>
     </g>
     <g id="text_11">
      <!-- 9 -->
      <g transform="translate(145.745336 224.791947) scale(0.18 -0.18)">
       <defs>
        <path id="Arial-BoldMT-39" d="M 291 1059 
L 1141 1153 
Q 1172 894 1303 769 
Q 1434 644 1650 644 
Q 1922 644 2112 894 
Q 2303 1144 2356 1931 
Q 2025 1547 1528 1547 
Q 988 1547 595 1964 
Q 203 2381 203 3050 
Q 203 3747 617 4173 
Q 1031 4600 1672 4600 
Q 2369 4600 2816 4061 
Q 3263 3522 3263 2288 
Q 3263 1031 2797 475 
Q 2331 -81 1584 -81 
Q 1047 -81 715 205 
Q 384 491 291 1059 
z
M 2278 2978 
Q 2278 3403 2083 3637 
Q 1888 3872 1631 3872 
Q 1388 3872 1227 3680 
Q 1066 3488 1066 3050 
Q 1066 2606 1241 2398 
Q 1416 2191 1678 2191 
Q 1931 2191 2104 2391 
Q 2278 2591 2278 2978 
z
" transform="scale(0.015625)"/>
       </defs>
       <use xlink:href="#Arial-BoldMT-39"/>
      </g>
     </g>
    </g>
    <g id="xtick_12">
     <g id="line2d_12">
      <g>
       <use xlink:href="#mbc928ad468" x="52.25022" y="198.907885" style="stroke: #000000; stroke-width: 2"/>
      </g>
     </g>
     <g id="text_12">
      <!-- 10 -->
      <g transform="translate(42.240533 224.791947) scale(0.18 -0.18)">
       <use xlink:href="#Arial-BoldMT-31"/>
       <use xlink:href="#Arial-BoldMT-30" x="55.615234"/>
      </g>
     </g>
    </g>
    <g id="text_13">
     <!-- Chemical Shift / ppm -->
     <g transform="translate(504.992813 245.447573) scale(0.18 -0.18)">
      <defs>
       <path id="Arial-BoldMT-43" d="M 3397 1684 
L 4294 1400 
Q 4088 650 3608 286 
Q 3128 -78 2391 -78 
Q 1478 -78 890 545 
Q 303 1169 303 2250 
Q 303 3394 893 4026 
Q 1484 4659 2447 4659 
Q 3288 4659 3813 4163 
Q 4125 3869 4281 3319 
L 3366 3100 
Q 3284 3456 3026 3662 
Q 2769 3869 2400 3869 
Q 1891 3869 1573 3503 
Q 1256 3138 1256 2319 
Q 1256 1450 1568 1081 
Q 1881 713 2381 713 
Q 2750 713 3015 947 
Q 3281 1181 3397 1684 
z
" transform="scale(0.015625)"/>
       <path id="Arial-BoldMT-68" d="M 1334 4581 
L 1334 2897 
Q 1759 3394 2350 3394 
Q 2653 3394 2897 3281 
Q 3141 3169 3264 2994 
Q 3388 2819 3433 2606 
Q 3478 2394 3478 1947 
L 3478 0 
L 2600 0 
L 2600 1753 
Q 2600 2275 2550 2415 
Q 2500 2556 2373 2639 
Q 2247 2722 2056 2722 
Q 1838 2722 1666 2615 
Q 1494 2509 1414 2295 
Q 1334 2081 1334 1663 
L 1334 0 
L 456 0 
L 456 4581 
L 1334 4581 
z
" transform="scale(0.015625)"/>
       <path id="Arial-BoldMT-65" d="M 2381 1056 
L 3256 909 
Q 3088 428 2723 176 
Q 2359 -75 1813 -75 
Q 947 -75 531 491 
Q 203 944 203 1634 
Q 203 2459 634 2926 
Q 1066 3394 1725 3394 
Q 2466 3394 2894 2905 
Q 3322 2416 3303 1406 
L 1103 1406 
Q 1113 1016 1316 798 
Q 1519 581 1822 581 
Q 2028 581 2168 693 
Q 2309 806 2381 1056 
z
M 2431 1944 
Q 2422 2325 2234 2523 
Q 2047 2722 1778 2722 
Q 1491 2722 1303 2513 
Q 1116 2303 1119 1944 
L 2431 1944 
z
" transform="scale(0.015625)"/>
       <path id="Arial-BoldMT-6d" d="M 394 3319 
L 1203 3319 
L 1203 2866 
Q 1638 3394 2238 3394 
Q 2556 3394 2790 3262 
Q 3025 3131 3175 2866 
Q 3394 3131 3647 3262 
Q 3900 3394 4188 3394 
Q 4553 3394 4806 3245 
Q 5059 3097 5184 2809 
Q 5275 2597 5275 2122 
L 5275 0 
L 4397 0 
L 4397 1897 
Q 4397 2391 4306 2534 
Q 4184 2722 3931 2722 
Q 3747 2722 3584 2609 
Q 3422 2497 3350 2280 
Q 3278 2063 3278 1594 
L 3278 0 
L 2400 0 
L 2400 1819 
Q 2400 2303 2353 2443 
Q 2306 2584 2207 2653 
Q 2109 2722 1941 2722 
Q 1738 2722 1575 2612 
Q 1413 2503 1342 2297 
Q 1272 2091 1272 1613 
L 1272 0 
L 394 0 
L 394 3319 
z
" transform="scale(0.015625)"/>
       <path id="Arial-BoldMT-69" d="M 459 3769 
L 459 4581 
L 1338 4581 
L 1338 3769 
L 459 3769 
z
M 459 0 
L 459 3319 
L 1338 3319 
L 1338 0 
L 459 0 
z
" transform="scale(0.015625)"/>
       <path id="Arial-BoldMT-63" d="M 3353 2338 
L 2488 2181 
Q 2444 2441 2289 2572 
Q 2134 2703 1888 2703 
Q 1559 2703 1364 2476 
Q 1169 2250 1169 1719 
Q 1169 1128 1367 884 
Q 1566 641 1900 641 
Q 2150 641 2309 783 
Q 2469 925 2534 1272 
L 3397 1125 
Q 3263 531 2881 228 
Q 2500 -75 1859 -75 
Q 1131 -75 698 384 
Q 266 844 266 1656 
Q 266 2478 700 2936 
Q 1134 3394 1875 3394 
Q 2481 3394 2839 3133 
Q 3197 2872 3353 2338 
z
" transform="scale(0.015625)"/>
       <path id="Arial-BoldMT-61" d="M 1116 2306 
L 319 2450 
Q 453 2931 781 3162 
Q 1109 3394 1756 3394 
Q 2344 3394 2631 3255 
Q 2919 3116 3036 2902 
Q 3153 2688 3153 2116 
L 3144 1091 
Q 3144 653 3186 445 
Q 3228 238 3344 0 
L 2475 0 
Q 2441 88 2391 259 
Q 2369 338 2359 363 
Q 2134 144 1878 34 
Q 1622 -75 1331 -75 
Q 819 -75 523 203 
Q 228 481 228 906 
Q 228 1188 362 1408 
Q 497 1628 739 1745 
Q 981 1863 1438 1950 
Q 2053 2066 2291 2166 
L 2291 2253 
Q 2291 2506 2166 2614 
Q 2041 2722 1694 2722 
Q 1459 2722 1328 2630 
Q 1197 2538 1116 2306 
z
M 2291 1594 
Q 2122 1538 1756 1459 
Q 1391 1381 1278 1306 
Q 1106 1184 1106 997 
Q 1106 813 1243 678 
Q 1381 544 1594 544 
Q 1831 544 2047 700 
Q 2206 819 2256 991 
Q 2291 1103 2291 1419 
L 2291 1594 
z
" transform="scale(0.015625)"/>
       <path id="Arial-BoldMT-6c" d="M 459 0 
L 459 4581 
L 1338 4581 
L 1338 0 
L 459 0 
z
" transform="scale(0.015625)"/>
       <path id="Arial-BoldMT-20" transform="scale(0.015625)"/>
       <path id="Arial-BoldMT-53" d="M 231 1491 
L 1131 1578 
Q 1213 1125 1461 912 
Q 1709 700 2131 700 
Q 2578 700 2804 889 
Q 3031 1078 3031 1331 
Q 3031 1494 2936 1608 
Q 2841 1722 2603 1806 
Q 2441 1863 1863 2006 
Q 1119 2191 819 2459 
Q 397 2838 397 3381 
Q 397 3731 595 4036 
Q 794 4341 1167 4500 
Q 1541 4659 2069 4659 
Q 2931 4659 3367 4281 
Q 3803 3903 3825 3272 
L 2900 3231 
Q 2841 3584 2645 3739 
Q 2450 3894 2059 3894 
Q 1656 3894 1428 3728 
Q 1281 3622 1281 3444 
Q 1281 3281 1419 3166 
Q 1594 3019 2269 2859 
Q 2944 2700 3267 2529 
Q 3591 2359 3773 2064 
Q 3956 1769 3956 1334 
Q 3956 941 3737 597 
Q 3519 253 3119 86 
Q 2719 -81 2122 -81 
Q 1253 -81 787 320 
Q 322 722 231 1491 
z
" transform="scale(0.015625)"/>
       <path id="Arial-BoldMT-66" d="M 75 3319 
L 563 3319 
L 563 3569 
Q 563 3988 652 4194 
Q 741 4400 980 4529 
Q 1219 4659 1584 4659 
Q 1959 4659 2319 4547 
L 2200 3934 
Q 1991 3984 1797 3984 
Q 1606 3984 1523 3895 
Q 1441 3806 1441 3553 
L 1441 3319 
L 2097 3319 
L 2097 2628 
L 1441 2628 
L 1441 0 
L 563 0 
L 563 2628 
L 75 2628 
L 75 3319 
z
" transform="scale(0.015625)"/>
       <path id="Arial-BoldMT-74" d="M 1981 3319 
L 1981 2619 
L 1381 2619 
L 1381 1281 
Q 1381 875 1398 808 
Q 1416 741 1477 697 
Q 1538 653 1625 653 
Q 1747 653 1978 738 
L 2053 56 
Q 1747 -75 1359 -75 
Q 1122 -75 931 4 
Q 741 84 652 211 
Q 563 338 528 553 
Q 500 706 500 1172 
L 500 2619 
L 97 2619 
L 97 3319 
L 500 3319 
L 500 3978 
L 1381 4491 
L 1381 3319 
L 1981 3319 
z
" transform="scale(0.015625)"/>
       <path id="Arial-BoldMT-2f" d="M -9 -78 
L 1125 4659 
L 1784 4659 
L 638 -78 
L -9 -78 
z
" transform="scale(0.015625)"/>
       <path id="Arial-BoldMT-70" d="M 434 3319 
L 1253 3319 
L 1253 2831 
Q 1413 3081 1684 3237 
Q 1956 3394 2288 3394 
Q 2866 3394 3269 2941 
Q 3672 2488 3672 1678 
Q 3672 847 3265 386 
Q 2859 -75 2281 -75 
Q 2006 -75 1782 34 
Q 1559 144 1313 409 
L 1313 -1263 
L 434 -1263 
L 434 3319 
z
M 1303 1716 
Q 1303 1156 1525 889 
Q 1747 622 2066 622 
Q 2372 622 2575 867 
Q 2778 1113 2778 1672 
Q 2778 2194 2568 2447 
Q 2359 2700 2050 2700 
Q 1728 2700 1515 2451 
Q 1303 2203 1303 1716 
z
" transform="scale(0.015625)"/>
      </defs>
      <use xlink:href="#Arial-BoldMT-43"/>
      <use xlink:href="#Arial-BoldMT-68" x="72.216797"/>
      <use xlink:href="#Arial-BoldMT-65" x="133.300781"/>
      <use xlink:href="#Arial-BoldMT-6d" x="188.916016"/>
      <use xlink:href="#Arial-BoldMT-69" x="277.832031"/>
      <use xlink:href="#Arial-BoldMT-63" x="305.615234"/>
      <use xlink:href="#Arial-BoldMT-61" x="361.230469"/>
      <use xlink:href="#Arial-BoldMT-6c" x="416.845703"/>
      <use xlink:href="#Arial-BoldMT-20" x="444.628906"/>
      <use xlink:href="#Arial-BoldMT-53" x="472.412109"/>
      <use xlink:href="#Arial-BoldMT-68" x="539.111328"/>
      <use xlink:href="#Arial-BoldMT-69" x="600.195312"/>
      <use xlink:href="#Arial-BoldMT-66" x="627.978516"/>
      <use xlink:href="#Arial-BoldMT-74" x="661.279297"/>
      <use xlink:href="#Arial-BoldMT-20" x="694.580078"/>
      <use xlink:href="#Arial-BoldMT-2f" x="722.363281"/>
      <use xlink:href="#Arial-BoldMT-20" x="750.146484"/>
      <use xlink:href="#Arial-BoldMT-70" x="777.929688"/>
      <use xlink:href="#Arial-BoldMT-70" x="839.013672"/>
      <use xlink:href="#Arial-BoldMT-6d" x="900.097656"/>
     </g>
    </g>
   </g>
   <g id="matplotlib.axis_2"/>
   <g id="line2d_13">
    <path d="M 3.003912 187.524789 
L 3.379049 187.862538 
L 4.129321 188.755816 
L 4.504457 188.846076 
L 4.879593 188.891157 
L 5.254729 189.184474 
L 5.817434 190.136564 
L 6.380138 191.161953 
L 6.755274 191.507809 
L 7.13041 191.503731 
L 7.693115 191.094041 
L 8.255819 190.682277 
L 9.193659 190.275881 
L 10.319068 188.913722 
L 10.694204 189.05687 
L 11.819612 190.04585 
L 12.194749 190.087011 
L 12.945021 190.060677 
L 13.695293 190.19405 
L 14.257997 190.012184 
L 15.00827 189.583255 
L 15.570974 189.764887 
L 17.446655 190.456656 
L 17.821791 190.701237 
L 18.759631 191.580246 
L 19.134768 191.554997 
L 20.072608 190.925424 
L 21.385585 190.01743 
L 22.135857 190.046558 
L 22.510993 189.822765 
L 23.448834 188.831034 
L 23.636402 188.879975 
L 24.011538 189.354278 
L 24.76181 190.520613 
L 25.136946 190.782603 
L 25.512082 190.820168 
L 25.887219 190.619122 
L 26.449923 189.932839 
L 27.012627 189.232148 
L 27.387763 189.051723 
L 27.950468 189.022423 
L 29.075876 189.226768 
L 29.451012 188.931734 
L 30.576421 187.332515 
L 31.514261 187.11472 
L 32.63967 185.985637 
L 33.014806 186.006492 
L 33.389942 186.319443 
L 34.702918 187.765876 
L 35.078055 187.780462 
L 35.828327 187.557413 
L 36.015895 187.661796 
L 36.391031 188.261585 
L 37.328872 190.450635 
L 37.704008 190.741768 
L 38.266712 190.603433 
L 38.829416 190.577817 
L 39.392121 190.634892 
L 39.767257 190.461904 
L 41.455369 189.140927 
L 42.205642 188.713023 
L 42.580778 188.760758 
L 44.081323 189.319638 
L 44.456459 188.989508 
L 45.019163 187.759774 
L 45.581867 186.701552 
L 45.957003 186.495487 
L 46.33214 186.712848 
L 47.457548 188.035235 
L 47.832684 188.106295 
L 48.958093 187.763344 
L 49.895933 187.947472 
L 50.458637 187.699546 
L 50.833774 187.334524 
L 51.20891 186.610884 
L 51.771614 185.365669 
L 51.959182 185.184425 
L 52.14675 185.204039 
L 52.334318 185.432521 
L 52.709454 186.400692 
L 53.647295 189.226109 
L 54.022431 189.863112 
L 54.397567 190.108833 
L 54.960271 190.017974 
L 55.710544 189.912956 
L 56.08568 190.002326 
L 56.648384 190.383751 
L 57.961361 191.365026 
L 58.336497 190.966234 
L 59.274337 189.491615 
L 59.649474 189.484898 
L 61.900291 190.838014 
L 62.650563 191.655141 
L 63.025699 191.769768 
L 63.400835 191.488889 
L 63.963539 190.38757 
L 64.713812 188.878735 
L 65.651652 187.508611 
L 66.401925 186.799532 
L 66.777061 186.700653 
L 67.152197 186.953699 
L 69.403014 189.894749 
L 69.77815 190.126252 
L 70.153286 190.150313 
L 70.71599 190.077028 
L 71.278695 190.300405 
L 72.028967 190.661437 
L 72.591671 191.022254 
L 73.154375 191.362708 
L 73.529512 191.144655 
L 74.279784 190.251878 
L 74.65492 190.237448 
L 75.030056 190.566697 
L 75.780329 191.47504 
L 75.967897 191.532863 
L 76.343033 191.294994 
L 77.468441 189.806014 
L 78.031146 189.271205 
L 79.344122 187.30596 
L 79.719258 187.199301 
L 80.094395 187.329069 
L 80.469531 187.797995 
L 81.219803 189.522098 
L 81.782507 190.485847 
L 82.53278 191.192962 
L 82.907916 191.396208 
L 83.283052 191.332815 
L 84.220892 190.726927 
L 84.783597 190.561778 
L 86.284141 189.695335 
L 88.159822 187.460928 
L 88.34739 187.523761 
L 88.722526 188.022506 
L 89.847935 190.053312 
L 90.410639 190.428332 
L 90.973343 190.832349 
L 92.098752 192.078965 
L 92.473888 192.046691 
L 93.22416 191.513682 
L 93.786865 190.862346 
L 94.349569 190.255775 
L 94.724705 190.19993 
L 95.662545 190.545804 
L 96.600386 190.313047 
L 97.538226 190.412922 
L 98.100931 190.35228 
L 98.476067 190.573388 
L 99.601475 191.920798 
L 99.976611 191.708791 
L 100.539316 191.217171 
L 100.726884 191.225058 
L 101.852292 191.819763 
L 102.414996 191.451788 
L 102.790133 190.97089 
L 104.103109 188.830453 
L 104.290677 188.779839 
L 104.665813 189.048864 
L 105.416086 189.90939 
L 105.97879 190.161492 
L 106.541494 190.179755 
L 107.291767 190.139537 
L 108.229607 190.3928 
L 110.292856 189.698083 
L 110.85556 188.994361 
L 111.418264 188.417879 
L 111.793401 188.368917 
L 112.356105 188.623049 
L 114.419354 190.102583 
L 114.79449 190.056309 
L 115.357194 189.604934 
L 115.919898 189.194659 
L 116.295035 189.171459 
L 116.670171 189.393683 
L 117.983147 190.478661 
L 118.358283 190.411447 
L 118.920988 189.966344 
L 119.483692 189.314173 
L 120.233964 188.307746 
L 120.6091 188.309287 
L 121.171805 188.804075 
L 121.734509 189.210128 
L 122.109645 189.218731 
L 122.484781 188.896907 
L 123.235054 188.105387 
L 123.797758 187.943572 
L 124.172894 187.927108 
L 124.54803 188.158413 
L 125.673439 189.525026 
L 126.236143 189.524482 
L 126.798847 189.546044 
L 127.173983 189.722347 
L 127.736688 190.360826 
L 128.48696 191.250161 
L 128.862096 191.325933 
L 129.237232 191.023448 
L 130.362641 189.464988 
L 130.737777 189.47783 
L 131.300481 189.89474 
L 132.050754 190.590529 
L 132.42589 190.651523 
L 132.988594 190.334262 
L 133.36373 190.215008 
L 133.738866 190.445453 
L 134.301571 191.256162 
L 134.864275 192.096661 
L 135.239411 192.383615 
L 136.552388 192.853589 
L 137.115092 193.177465 
L 137.490228 193.138406 
L 138.615636 192.70293 
L 139.178341 192.819349 
L 139.928613 193.052063 
L 140.303749 192.775941 
L 140.866453 191.807448 
L 141.804294 190.118101 
L 142.17943 189.865427 
L 142.554566 190.053303 
L 143.492407 190.960994 
L 144.055111 191.146859 
L 144.430247 190.989736 
L 144.805383 190.496451 
L 145.930792 188.720827 
L 146.493496 188.325613 
L 147.0562 188.286648 
L 147.431336 188.51283 
L 147.806472 189.137859 
L 149.307017 192.557791 
L 149.682153 192.682113 
L 150.057289 192.485801 
L 150.619994 191.934893 
L 151.182698 190.899164 
L 151.93297 189.307352 
L 152.495675 188.651529 
L 152.870811 188.516959 
L 153.433515 188.619755 
L 154.93406 189.154185 
L 155.309196 188.887936 
L 156.622172 186.96488 
L 156.80974 186.936614 
L 157.184877 187.189922 
L 157.747581 187.652848 
L 158.122717 187.62316 
L 159.248126 186.968192 
L 159.81083 187.116663 
L 160.373534 187.455189 
L 161.498943 188.530957 
L 161.874079 188.328029 
L 162.249215 187.714492 
L 162.999487 186.32037 
L 163.562191 185.897509 
L 163.937328 185.578559 
L 164.875168 184.250665 
L 165.437872 183.429895 
L 166.000577 182.093599 
L 166.750849 180.345571 
L 168.251394 178.000381 
L 168.62653 176.764531 
L 169.189234 173.762148 
L 170.502211 165.250103 
L 171.252483 158.276275 
L 172.002755 148.364418 
L 172.753028 134.580723 
L 173.5033 116.163525 
L 174.253572 91.003587 
L 175.003844 56.899263 
L 175.941685 11.939102 
L 176.316821 3.307199 
L 176.504389 3.00024 
L 176.691957 5.590353 
L 177.067093 18.464784 
L 178.004934 69.980905 
L 178.755206 105.394161 
L 179.505478 130.08116 
L 180.068183 142.394439 
L 180.818455 153.668397 
L 181.756295 163.335698 
L 182.506568 169.297331 
L 183.069272 172.084433 
L 184.382249 176.678198 
L 184.944953 178.07254 
L 185.320089 178.621768 
L 185.507657 178.692699 
L 185.695225 178.581458 
L 186.070361 177.793375 
L 187.570906 173.198523 
L 189.259019 169.070087 
L 190.196859 165.462284 
L 190.384427 165.237513 
L 190.571995 165.253403 
L 190.947132 165.8381 
L 191.697404 167.474984 
L 192.07254 167.894799 
L 192.447676 167.978571 
L 192.822812 167.599909 
L 193.197949 166.755091 
L 193.760653 164.749209 
L 194.510925 160.77145 
L 195.823902 153.439951 
L 196.94931 148.703469 
L 197.699583 145.512331 
L 199.575263 135.8047 
L 200.137968 134.142932 
L 200.513104 133.797215 
L 200.700672 133.9016 
L 201.075808 134.510882 
L 201.82608 135.911243 
L 202.201217 136.079258 
L 202.388785 135.926679 
L 202.763921 134.994585 
L 203.139057 133.199947 
L 203.701761 129.361924 
L 205.014738 119.479251 
L 205.202306 118.89781 
L 205.389874 118.752486 
L 205.577442 119.059916 
L 205.952578 120.837119 
L 207.077987 127.779956 
L 207.453123 128.693777 
L 207.640691 128.760842 
L 207.828259 128.549855 
L 208.203395 127.292202 
L 208.578531 124.903074 
L 208.953668 121.210518 
L 209.70394 110.657257 
L 210.64178 97.818686 
L 211.392053 90.763609 
L 212.517461 80.537531 
L 213.830438 66.110229 
L 214.393142 61.023757 
L 214.768278 59.417415 
L 214.955846 59.314991 
L 215.143414 59.737215 
L 215.51855 62.234878 
L 215.893687 66.868958 
L 216.456391 77.14739 
L 217.394231 99.647767 
L 218.51964 125.389581 
L 219.269912 137.04535 
L 219.832616 142.525815 
L 220.395321 145.804462 
L 220.770457 146.899782 
L 221.145593 147.237854 
L 221.333161 147.157371 
L 221.708297 146.54688 
L 222.083433 145.425738 
L 222.833706 142.093606 
L 223.39641 139.780679 
L 223.771546 139.003251 
L 223.959114 138.925404 
L 224.146682 139.101561 
L 224.521818 140.318838 
L 224.896955 142.606008 
L 225.834795 150.609235 
L 226.772635 158.436722 
L 227.522908 163.049698 
L 229.398589 171.91193 
L 230.336429 175.4955 
L 230.899133 176.909773 
L 231.461837 177.763276 
L 232.399678 178.88769 
L 233.337518 180.588109 
L 233.712654 180.902774 
L 234.087791 180.910005 
L 234.462927 180.591462 
L 235.025631 180.054036 
L 236.713744 179.459248 
L 237.464016 179.62878 
L 237.839152 179.318822 
L 239.152129 177.328768 
L 239.527265 177.457549 
L 239.902401 177.894552 
L 241.02781 179.69762 
L 242.340786 179.994079 
L 242.903491 179.774137 
L 243.841331 179.098114 
L 244.404035 178.505932 
L 245.341876 177.013542 
L 245.717012 176.001487 
L 246.654852 172.498297 
L 247.405124 169.047922 
L 248.155397 164.329392 
L 249.280805 156.753479 
L 250.031078 153.434891 
L 250.968918 149.607278 
L 251.531622 146.054972 
L 252.094327 141.082506 
L 252.657031 134.420704 
L 253.219735 125.135517 
L 253.970007 107.856 
L 254.72028 84.069801 
L 256.408392 26.374919 
L 256.971097 12.165875 
L 257.346233 6.493878 
L 257.533801 5.131526 
L 257.721369 4.816624 
L 257.908937 5.525494 
L 258.284073 9.600782 
L 259.034346 23.237239 
L 259.59705 32.033319 
L 259.972186 34.811686 
L 260.159754 34.992455 
L 260.347322 34.356591 
L 260.722458 30.978405 
L 261.847867 17.234503 
L 262.035435 16.50451 
L 262.223003 16.601032 
L 262.410571 17.571536 
L 262.785707 22.134994 
L 263.160843 29.915085 
L 263.911116 52.254347 
L 265.786797 113.308807 
L 266.537069 129.425378 
L 267.287341 140.139338 
L 268.600318 153.464822 
L 269.163022 158.038393 
L 269.725726 161.022999 
L 271.976543 169.560007 
L 272.726816 171.355066 
L 274.414928 174.702437 
L 274.790065 174.82484 
L 275.352769 174.531161 
L 275.915473 174.305638 
L 276.290609 174.45078 
L 276.665745 174.924376 
L 277.791154 176.871029 
L 278.16629 177.099078 
L 279.104131 177.236149 
L 279.854403 177.761621 
L 280.229539 177.659436 
L 280.604675 177.217404 
L 281.730084 175.479315 
L 282.10522 175.26826 
L 282.480356 175.44104 
L 283.04306 175.850688 
L 283.230628 175.815698 
L 283.605764 175.337882 
L 284.168469 173.880147 
L 284.731173 172.513098 
L 285.856581 170.537162 
L 287.169558 166.468339 
L 289.232807 162.28138 
L 289.795511 160.532664 
L 290.358215 158.0432 
L 290.92092 154.693728 
L 291.671192 148.59936 
L 292.421464 140.71195 
L 292.984169 132.806721 
L 293.546873 121.917265 
L 294.109577 107.062546 
L 294.859849 79.989695 
L 296.172826 26.752416 
L 296.360394 23.304048 
L 296.547962 22.129751 
L 296.73553 23.378199 
L 297.110666 32.539839 
L 297.673371 56.566798 
L 298.611211 97.613421 
L 299.361483 120.096986 
L 300.111756 134.55801 
L 300.862028 143.956201 
L 301.6123 150.191767 
L 302.362573 154.381073 
L 303.112845 157.288918 
L 303.675549 158.586207 
L 304.050686 158.790685 
L 304.425822 158.485396 
L 305.738798 156.543242 
L 306.301503 155.252764 
L 306.864207 153.299225 
L 307.426911 150.074626 
L 308.177183 143.752607 
L 308.927456 135.071435 
L 309.677728 123.25107 
L 310.428 106.948379 
L 311.553409 75.136511 
L 312.116113 61.208424 
L 312.491249 55.879203 
L 312.678817 54.86672 
L 312.866385 54.996061 
L 313.053954 56.178136 
L 313.42909 61.031027 
L 314.179362 75.864187 
L 315.492339 102.033894 
L 316.242611 113.067317 
L 316.805315 118.301098 
L 317.180451 120.202232 
L 317.368019 120.646096 
L 317.555587 120.759018 
L 317.743156 120.563255 
L 318.118292 119.321853 
L 318.493428 116.90607 
L 318.868564 113.175481 
L 319.431268 105.048379 
L 320.181541 89.931708 
L 321.119381 66.159655 
L 322.24479 37.696734 
L 322.619926 33.887328 
L 322.807494 33.981286 
L 322.995062 35.501598 
L 323.370198 42.567447 
L 323.932902 60.346666 
L 325.245879 104.919373 
L 325.996151 123.676054 
L 326.933992 141.863457 
L 327.684264 153.424752 
L 328.434536 161.62004 
L 328.997241 165.719486 
L 329.935081 170.55565 
L 330.685353 173.850463 
L 331.060489 174.865148 
L 331.623194 175.638396 
L 332.373466 176.425895 
L 332.93617 177.466507 
L 333.686443 178.892779 
L 334.249147 179.891978 
L 334.624283 180.940829 
L 335.93726 185.433515 
L 336.312396 185.774804 
L 336.499964 185.703798 
L 336.8751 185.176876 
L 337.81294 183.47338 
L 338.000509 183.425973 
L 338.375645 183.731775 
L 339.125917 184.740659 
L 339.501053 184.76207 
L 340.251326 184.339444 
L 340.626462 184.421484 
L 342.689711 185.702075 
L 343.627551 185.739331 
L 344.75296 186.182042 
L 345.503232 185.919986 
L 346.065936 185.879084 
L 346.441072 186.060414 
L 346.816208 186.65144 
L 347.941617 189.425592 
L 348.316753 189.738771 
L 348.879457 189.835281 
L 349.254594 189.709688 
L 350.56757 188.968668 
L 351.130274 189.055784 
L 351.692979 189.207609 
L 352.068115 189.033037 
L 352.630819 188.23076 
L 353.005955 187.776822 
L 353.381091 187.606281 
L 356.569749 187.18015 
L 356.944885 187.412581 
L 357.882725 188.201096 
L 358.257861 188.144116 
L 358.820566 187.61822 
L 359.38327 187.188717 
L 359.758406 187.148408 
L 360.508678 187.265839 
L 361.071383 186.990795 
L 361.634087 186.791853 
L 362.196791 186.63751 
L 363.134632 185.92346 
L 363.509768 186.240371 
L 364.26004 187.264986 
L 365.385449 188.07794 
L 366.135721 188.361197 
L 367.073561 188.585159 
L 367.636266 188.834885 
L 368.011402 188.816664 
L 368.574106 188.536217 
L 370.637355 186.978754 
L 371.387627 186.032402 
L 371.762763 186.007075 
L 373.263308 186.640813 
L 373.638444 186.427717 
L 374.763853 185.455108 
L 375.138989 185.336438 
L 376.076829 185.298264 
L 376.451966 184.832908 
L 377.764942 182.455281 
L 378.515214 181.282085 
L 379.265487 179.689709 
L 379.828191 178.644236 
L 380.203327 178.416202 
L 380.578463 178.535241 
L 381.516304 179.154904 
L 382.266576 179.330944 
L 383.016848 179.442484 
L 384.142257 179.881996 
L 384.704961 179.883855 
L 385.267665 179.527394 
L 386.017938 178.890282 
L 386.580642 178.465175 
L 386.955778 177.831883 
L 387.518482 176.273491 
L 388.081187 174.076431 
L 390.144436 164.021719 
L 390.894708 159.112438 
L 391.64498 152.782848 
L 392.395253 143.870985 
L 393.145525 131.336168 
L 393.895797 114.504698 
L 394.64607 92.991436 
L 396.334182 40.547976 
L 396.709318 36.951238 
L 396.896887 37.153304 
L 397.084455 38.627522 
L 397.459591 44.815329 
L 398.022295 59.288057 
L 399.710408 105.448128 
L 400.46068 119.960344 
L 401.023384 126.500546 
L 401.398521 128.708701 
L 401.586089 129.244718 
L 401.773657 129.438852 
L 401.961225 129.297811 
L 402.148793 128.80884 
L 402.523929 126.702112 
L 402.899065 123.109966 
L 403.649338 112.888953 
L 404.587178 96.526762 
L 406.087723 67.906666 
L 406.462859 64.942533 
L 406.650427 64.854489 
L 406.837995 65.808851 
L 407.213131 70.840313 
L 407.775835 84.380015 
L 409.463948 130.23303 
L 410.21422 143.755635 
L 411.152061 156.479648 
L 411.902333 164.204825 
L 412.465037 167.906662 
L 413.590446 172.951714 
L 414.528286 176.828935 
L 415.278559 178.635127 
L 416.779103 181.484661 
L 418.09208 183.382241 
L 419.217488 184.959183 
L 419.592625 185.180256 
L 419.967761 185.129174 
L 421.093169 184.603587 
L 421.468305 184.646521 
L 421.843442 184.902394 
L 422.406146 185.706582 
L 422.96885 186.526584 
L 424.094259 187.541946 
L 425.407235 189.463119 
L 425.969939 189.897852 
L 426.345076 189.988498 
L 426.90778 189.892581 
L 430.096437 188.577777 
L 430.659141 188.279963 
L 431.221846 188.396506 
L 432.159686 188.792546 
L 432.72239 189.293446 
L 433.472663 190.094252 
L 433.847799 190.12509 
L 435.535912 189.355336 
L 436.286184 188.739087 
L 436.848888 187.894885 
L 437.411592 187.157024 
L 437.786729 187.022197 
L 438.161865 187.098458 
L 438.537001 187.393801 
L 439.099705 188.197529 
L 439.662409 189.020508 
L 440.037546 189.276815 
L 440.412682 189.255 
L 441.162954 188.975258 
L 441.53809 189.06833 
L 442.663499 189.775855 
L 444.53918 190.100936 
L 445.289452 190.281867 
L 445.664588 190.20932 
L 447.165133 189.366598 
L 448.102973 188.990147 
L 448.478109 188.785596 
L 448.853246 188.313348 
L 449.978654 186.264879 
L 450.35379 186.056354 
L 450.728926 186.076252 
L 451.479199 186.573012 
L 453.167311 187.531355 
L 454.105152 187.68542 
L 455.605697 188.524362 
L 457.293809 190.009543 
L 457.668945 190.065373 
L 458.044082 189.8255 
L 458.606786 189.281501 
L 458.981922 189.213072 
L 460.10733 189.408962 
L 461.232739 189.046605 
L 462.358147 189.531164 
L 462.920852 189.284682 
L 463.671124 188.626215 
L 464.233828 188.191431 
L 464.796533 188.075933 
L 465.171669 188.14105 
L 465.546805 188.399841 
L 466.297077 189.056099 
L 466.859781 189.24055 
L 467.234918 189.372107 
L 467.797622 189.885242 
L 468.360326 190.368578 
L 468.735462 190.359969 
L 469.110598 189.937477 
L 470.048439 188.562653 
L 470.423575 188.449391 
L 470.986279 188.774214 
L 471.736552 189.112511 
L 472.299256 189.439682 
L 472.86196 189.757142 
L 473.237096 189.718924 
L 473.987369 189.375599 
L 474.362505 189.487751 
L 474.737641 189.878593 
L 475.487913 190.801228 
L 476.050618 191.121974 
L 476.613322 191.180922 
L 477.73873 191.146577 
L 479.239275 191.440746 
L 479.989547 191.564884 
L 480.364683 191.360936 
L 481.490092 190.243457 
L 482.052796 190.083966 
L 482.427932 190.274763 
L 483.178205 191.013797 
L 483.553341 190.987061 
L 484.491181 190.181534 
L 484.866317 189.630763 
L 485.804158 187.843789 
L 485.991726 187.754702 
L 486.366862 187.953059 
L 487.117134 189.021462 
L 487.679839 189.817632 
L 488.054975 190.070092 
L 488.430111 190.032795 
L 488.992815 189.953997 
L 489.930656 190.303081 
L 490.49336 190.086708 
L 491.056064 190.222875 
L 492.181473 190.79845 
L 492.556609 190.53533 
L 493.682017 189.148451 
L 493.869585 189.212463 
L 494.244722 189.865638 
L 494.994994 191.590745 
L 495.37013 191.861835 
L 495.745266 191.820228 
L 497.808515 190.839176 
L 498.183651 190.081875 
L 499.121492 187.511124 
L 499.496628 187.067669 
L 499.871764 186.993399 
L 500.434468 187.14733 
L 500.997173 187.515304 
L 501.935013 188.402439 
L 502.685285 189.330899 
L 503.060421 189.450676 
L 503.435558 189.258263 
L 504.373398 188.424891 
L 504.748534 188.444494 
L 505.12367 188.724102 
L 506.436647 190.137453 
L 506.811783 190.095685 
L 507.562055 189.755317 
L 508.12476 189.865396 
L 508.499896 189.888454 
L 509.250168 189.779385 
L 509.625304 190.157127 
L 510.563145 191.484558 
L 510.938281 191.739234 
L 511.500985 191.819948 
L 512.438826 191.869447 
L 513.189098 192.090668 
L 513.93937 192.177872 
L 515.252347 192.578985 
L 515.627483 192.319334 
L 516.002619 191.637748 
L 516.752892 190.05022 
L 517.128028 189.701269 
L 518.81614 189.329959 
L 519.191277 189.469697 
L 519.753981 190.055563 
L 520.316685 190.656864 
L 520.691821 190.683676 
L 521.254526 190.297482 
L 522.004798 189.835933 
L 522.567502 189.433529 
L 523.317774 188.52316 
L 523.880479 187.784991 
L 524.255615 187.62518 
L 524.630751 187.850087 
L 525.193455 188.684589 
L 525.75616 189.984717 
L 526.506432 191.656283 
L 526.881568 191.934465 
L 527.256704 191.74409 
L 528.006976 190.651495 
L 528.944817 189.349037 
L 529.319953 189.057176 
L 529.695089 189.046803 
L 530.257793 189.356024 
L 531.57077 190.220433 
L 532.321042 190.365716 
L 533.446451 191.017574 
L 533.821587 190.718841 
L 534.384291 190.073717 
L 534.759427 190.035587 
L 535.5097 190.353668 
L 536.072404 190.275746 
L 536.822676 190.101832 
L 537.385381 190.284875 
L 538.510789 190.749113 
L 538.885925 190.568442 
L 539.44863 189.735789 
L 540.011334 188.907385 
L 540.38647 188.685997 
L 540.761606 188.840963 
L 541.699447 189.59837 
L 542.449719 189.837989 
L 543.012423 190.497037 
L 543.387559 190.817341 
L 543.762695 190.715164 
L 544.137832 190.293951 
L 545.26324 188.52181 
L 545.450808 188.467053 
L 545.825944 188.705413 
L 546.388649 189.639208 
L 547.326489 191.170658 
L 548.264329 192.157035 
L 548.639466 192.373841 
L 549.014602 192.280083 
L 549.389738 191.890164 
L 550.327578 190.675477 
L 551.265419 189.846199 
L 552.203259 188.845631 
L 552.578395 188.663584 
L 552.953532 188.687321 
L 553.328668 188.981864 
L 553.891372 189.51568 
L 554.266508 189.582861 
L 554.829212 189.259387 
L 555.204349 189.091852 
L 555.767053 189.140066 
L 556.329757 189.475235 
L 557.455166 190.359818 
L 558.205438 190.569546 
L 558.768142 190.491638 
L 561.018959 189.708261 
L 561.9568 189.974843 
L 563.269776 189.628711 
L 564.020048 189.873625 
L 564.395185 189.713971 
L 564.770321 189.2092 
L 565.520593 187.947131 
L 565.895729 187.671622 
L 566.270865 187.711723 
L 566.646002 188.05248 
L 567.583842 189.275682 
L 567.958978 189.362301 
L 570.022227 189.404558 
L 570.584931 189.925235 
L 571.335204 190.613315 
L 571.71034 190.695749 
L 572.835748 190.571258 
L 574.523861 190.722944 
L 576.024406 190.200382 
L 576.399542 190.292003 
L 576.962246 190.728939 
L 577.337382 190.993018 
L 577.712518 190.961405 
L 578.650359 190.421405 
L 579.588199 190.216399 
L 579.963335 190.343173 
L 580.338472 190.735495 
L 580.901176 191.43217 
L 581.276312 191.540338 
L 581.651448 191.384916 
L 582.401721 190.744132 
L 582.964425 190.320499 
L 583.714697 190.10022 
L 584.089833 190.18948 
L 585.215242 190.676876 
L 585.965514 190.755124 
L 586.903355 190.584578 
L 587.278491 190.576292 
L 587.653627 190.824838 
L 588.216331 191.716413 
L 588.779035 192.67299 
L 589.154172 192.998982 
L 589.529308 193.002563 
L 589.904444 192.597233 
L 591.404989 189.676216 
L 592.530397 186.407335 
L 592.905533 186.226279 
L 593.468237 186.209998 
L 594.030942 186.025656 
L 594.406078 186.212729 
L 594.781214 186.787977 
L 596.094191 189.413783 
L 596.469327 189.48369 
L 597.969871 189.011498 
L 599.657984 187.507885 
L 600.220688 187.69672 
L 600.970961 187.965402 
L 601.346097 187.907188 
L 602.283937 187.4579 
L 602.659073 187.670142 
L 603.221778 187.978795 
L 604.534754 187.957292 
L 605.097459 188.474868 
L 605.847731 189.553512 
L 606.785571 190.91567 
L 606.973139 190.980269 
L 607.348276 190.745806 
L 608.286116 189.387017 
L 608.84882 188.548209 
L 609.223956 188.303818 
L 609.599093 188.307656 
L 610.724501 188.594991 
L 612.975318 188.42241 
L 613.350454 188.869673 
L 614.475863 190.831332 
L 615.038567 191.34315 
L 615.601271 191.586514 
L 616.163975 191.60793 
L 617.289384 191.22095 
L 618.414792 191.691393 
L 619.352633 191.440714 
L 619.915337 191.03521 
L 620.853178 190.312135 
L 621.415882 190.290177 
L 621.791018 190.268116 
L 623.103995 189.81009 
L 623.854267 190.221075 
L 624.416971 190.439141 
L 624.792107 190.384804 
L 626.292652 189.841662 
L 626.855356 189.899656 
L 627.41806 189.646321 
L 627.793197 189.254231 
L 628.543469 188.248506 
L 628.918605 188.169963 
L 629.293741 188.376257 
L 630.981854 189.755965 
L 631.35699 189.625232 
L 631.732126 189.184258 
L 632.294831 188.445075 
L 632.669967 188.316882 
L 633.045103 188.470506 
L 633.607807 189.028486 
L 634.170511 189.838508 
L 635.29592 191.752129 
L 635.671056 191.824624 
L 636.23376 191.812939 
L 637.359169 192.375485 
L 637.921873 192.11959 
L 638.484577 191.570196 
L 639.23485 190.73032 
L 639.609986 190.557211 
L 640.17269 190.548087 
L 641.11053 190.596577 
L 641.860803 190.588806 
L 642.611075 191.036754 
L 643.736484 191.784704 
L 644.674324 191.852532 
L 645.237028 191.882081 
L 645.799733 191.506092 
L 646.737573 190.522034 
L 647.300277 189.487222 
L 648.05055 188.039653 
L 648.425686 187.794515 
L 648.613254 187.880229 
L 648.98839 188.452004 
L 650.488935 191.663308 
L 650.864071 191.765526 
L 651.239207 191.587379 
L 651.989479 191.019532 
L 652.364615 191.069344 
L 652.92732 191.500213 
L 653.677592 192.093078 
L 654.052728 192.095942 
L 654.427864 191.80021 
L 655.178137 191.01902 
L 655.928409 190.679422 
L 656.491113 190.586543 
L 657.053818 190.608593 
L 657.428954 190.420174 
L 658.179226 189.718118 
L 658.554362 189.182683 
L 659.492203 187.37363 
L 659.679771 187.250668 
L 659.867339 187.26978 
L 660.242475 187.704882 
L 660.992747 189.364387 
L 661.555452 190.453243 
L 661.930588 190.754343 
L 662.868428 190.908526 
L 663.806269 191.525444 
L 664.181405 191.453918 
L 664.744109 191.039749 
L 666.244654 189.449407 
L 667.182494 188.844819 
L 667.745198 188.866855 
L 668.307903 189.134676 
L 668.870607 189.77807 
L 669.245743 190.166532 
L 669.620879 190.296037 
L 669.996015 190.090318 
L 670.558719 189.223083 
L 671.308992 188.004634 
L 671.871696 187.694027 
L 672.809536 187.366746 
L 673.184673 187.57707 
L 673.747377 187.973555 
L 674.122513 187.938128 
L 674.685217 187.773287 
L 675.247922 187.893809 
L 676.185762 188.436521 
L 676.936034 189.100711 
L 677.686307 189.769443 
L 678.061443 189.720528 
L 679.186851 188.989908 
L 679.561987 189.188141 
L 680.124692 189.538833 
L 680.499828 189.439891 
L 680.874964 189.038521 
L 682.563077 186.673286 
L 683.125781 186.413214 
L 683.500917 186.373958 
L 683.876053 186.579116 
L 685.001462 187.68389 
L 685.751734 188.206793 
L 686.502007 188.976942 
L 687.252279 189.979991 
L 687.814983 190.755343 
L 688.190119 190.845867 
L 688.752824 190.443148 
L 689.503096 189.985338 
L 690.628504 189.521278 
L 691.191209 189.547885 
L 691.753913 189.658209 
L 692.316617 189.491604 
L 693.254458 189.067751 
L 693.817162 189.181749 
L 694.379866 189.275083 
L 695.317706 189.272491 
L 695.880411 189.597049 
L 696.630683 190.038656 
L 697.193387 190.181002 
L 697.568523 190.068474 
L 698.131228 189.799586 
L 698.506364 189.891003 
L 699.81934 190.66381 
L 700.194477 190.307425 
L 700.757181 189.673135 
L 701.319885 189.429832 
L 702.070157 189.445055 
L 703.195566 189.774795 
L 703.570702 189.538147 
L 704.320974 188.771297 
L 705.258815 187.610851 
L 705.633951 187.549541 
L 706.009087 187.786696 
L 706.759359 188.430199 
L 707.322064 188.353131 
L 707.6972 188.435426 
L 708.072336 188.823916 
L 708.822608 189.722106 
L 709.197745 189.95081 
L 709.572881 189.928549 
L 709.948017 189.546621 
L 710.885857 188.209858 
L 712.198834 187.384543 
L 712.57397 187.374384 
L 713.136674 187.69914 
L 713.699379 188.327038 
L 714.449651 189.24433 
L 714.824787 189.320722 
L 715.199923 188.997691 
L 715.950196 188.089111 
L 716.325332 188.023027 
L 717.638308 188.380607 
L 718.201013 188.175899 
L 719.889125 187.231501 
L 720.45183 187.071243 
L 721.014534 187.212535 
L 722.32751 187.933948 
L 722.702647 187.934202 
L 723.077783 187.717072 
L 723.640487 187.316692 
L 724.015623 187.332514 
L 725.141032 187.876738 
L 725.516168 187.77611 
L 726.454008 187.171761 
L 727.016712 187.30044 
L 727.579417 187.424734 
L 727.954553 187.222457 
L 728.517257 186.803443 
L 728.892393 186.743998 
L 729.455098 186.985856 
L 730.20537 187.363255 
L 731.14321 187.36572 
L 731.705915 187.305507 
L 732.456187 186.959532 
L 732.831323 187.130292 
L 734.331868 188.423356 
L 734.707004 188.480011 
L 735.08214 188.345154 
L 737.332957 187.031202 
L 738.270797 187.148633 
L 739.02107 187.696082 
L 739.95891 188.36652 
L 740.334046 188.477717 
L 740.709182 188.333613 
L 741.647023 187.516454 
L 741.834591 187.535547 
L 742.209727 187.919926 
L 743.522704 190.32072 
L 743.89784 190.503899 
L 744.272976 190.379445 
L 744.648112 189.906439 
L 746.148657 187.347907 
L 746.711361 187.061514 
L 747.649202 186.780088 
L 748.399474 186.117576 
L 748.77461 186.183662 
L 749.149746 186.64963 
L 749.900019 187.791644 
L 750.275155 187.856362 
L 750.650291 187.527211 
L 751.775699 186.248272 
L 752.150836 186.081417 
L 752.525972 186.364867 
L 753.276244 187.336356 
L 753.65138 187.527605 
L 754.776789 187.764367 
L 755.339493 188.259928 
L 755.714629 188.279937 
L 756.277333 188.149449 
L 756.840038 188.333501 
L 757.402742 188.440472 
L 757.777878 188.188575 
L 758.52815 187.336486 
L 758.715718 187.325919 
L 758.903287 187.475459 
L 759.465991 188.563905 
L 759.841127 189.093703 
L 760.028695 189.15498 
L 760.403831 188.950118 
L 761.52924 187.674364 
L 763.029784 186.084299 
L 763.404921 186.006506 
L 764.717897 186.092559 
L 765.093033 186.482425 
L 766.030874 187.922972 
L 766.40601 188.011359 
L 766.781146 187.678975 
L 767.531418 186.725422 
L 767.906555 186.621049 
L 768.656827 186.798465 
L 769.969803 187.241535 
L 770.34494 187.027908 
L 770.907644 186.585906 
L 771.28278 186.559455 
L 772.033052 186.808891 
L 772.408189 186.70638 
L 772.783325 186.377156 
L 773.533597 185.544024 
L 773.721165 185.512316 
L 774.096301 185.853575 
L 774.659006 186.688275 
L 775.034142 186.848816 
L 775.409278 186.650919 
L 776.722254 185.312868 
L 777.284959 185.244389 
L 777.847663 185.339842 
L 778.222799 185.687613 
L 778.785503 186.632214 
L 779.348208 187.595312 
L 779.723344 187.782911 
L 780.09848 187.631104 
L 780.661184 187.392425 
L 781.599025 187.479799 
L 782.161729 187.053056 
L 782.912001 186.532489 
L 783.474705 186.267198 
L 783.849842 186.315799 
L 784.412546 186.839873 
L 784.97525 187.264598 
L 785.537954 187.265287 
L 785.91309 187.107966 
L 786.288227 186.674838 
L 787.601203 184.458082 
L 787.976339 184.308322 
L 788.726612 184.207999 
L 789.289316 184.105287 
L 789.664452 184.40296 
L 790.789861 186.024107 
L 791.164997 186.045145 
L 792.477973 185.510209 
L 793.040678 185.386556 
L 793.79095 184.80907 
L 794.353654 184.066388 
L 794.916358 182.768226 
L 795.479063 181.579791 
L 795.854199 181.28649 
L 796.229335 181.325804 
L 796.792039 181.499482 
L 797.167175 181.338898 
L 797.542312 180.765122 
L 798.105016 179.689655 
L 798.292584 179.529906 
L 798.480152 179.519643 
L 798.855288 179.818128 
L 799.417992 180.323669 
L 799.793129 180.407661 
L 800.168265 180.281288 
L 800.543401 179.916013 
L 801.293673 178.754751 
L 802.231514 177.25867 
L 802.794218 176.830713 
L 803.732058 176.463734 
L 805.982875 176.079129 
L 806.54558 176.342687 
L 807.108284 176.567063 
L 807.48342 176.482127 
L 808.233692 175.945347 
L 808.608829 175.381291 
L 809.734237 172.916154 
L 810.109373 172.680742 
L 810.484509 172.528713 
L 810.859645 172.127541 
L 811.42235 171.000272 
L 812.36019 168.467114 
L 813.110462 166.434189 
L 813.860735 165.068643 
L 814.423439 164.500966 
L 814.986143 164.081576 
L 815.361279 163.538771 
L 815.923984 162.200669 
L 817.23696 158.672459 
L 817.612096 158.36676 
L 818.549937 158.019939 
L 819.112641 157.458488 
L 819.487777 156.80611 
L 820.050482 155.145982 
L 821.738594 149.10645 
L 823.426707 143.580273 
L 823.801843 141.804624 
L 824.364547 137.662148 
L 825.11482 130.011201 
L 826.05266 120.538648 
L 826.240228 119.87641 
L 826.427796 119.994079 
L 826.615364 120.887656 
L 826.990501 124.367214 
L 827.740773 132.138067 
L 828.115909 134.494709 
L 828.491045 135.805445 
L 828.866181 136.416053 
L 829.241318 136.585824 
L 830.366726 136.643194 
L 831.116998 137.071284 
L 832.242407 137.841307 
L 832.429975 137.823387 
L 832.805111 137.444723 
L 834.305656 135.045123 
L 835.243496 134.262223 
L 835.618632 134.156591 
L 835.993769 134.293162 
L 836.744041 134.870523 
L 837.119177 134.820542 
L 837.681881 134.490227 
L 838.057018 133.913594 
L 838.619722 132.864123 
L 838.80729 132.726129 
L 838.994858 132.779963 
L 839.182426 133.043305 
L 839.557562 134.150594 
L 840.307835 136.969882 
L 840.495403 137.241113 
L 840.682971 137.224329 
L 841.058107 136.52048 
L 841.808379 134.198223 
L 842.183515 132.60916 
L 842.558652 130.05481 
L 842.933788 125.780181 
L 843.308924 119.218965 
L 844.246764 98.591562 
L 844.434332 97.356446 
L 844.6219 98.216564 
L 844.997037 105.061028 
L 845.934877 126.009644 
L 846.497581 133.178481 
L 847.060285 137.776344 
L 847.62299 140.877054 
L 847.998126 142.167343 
L 848.373262 142.870074 
L 848.748398 143.145188 
L 849.123534 143.189575 
L 849.498671 143.012377 
L 850.436511 142.23928 
L 850.624079 142.308308 
L 850.999215 142.791982 
L 852.124624 144.870999 
L 852.312192 144.943814 
L 852.687328 144.69328 
L 853.250032 144.017181 
L 853.625168 143.936901 
L 854.000305 144.298341 
L 855.688417 147.166209 
L 856.813826 149.296689 
L 857.37653 151.124984 
L 858.31437 154.369592 
L 858.877075 155.423928 
L 859.252211 155.838477 
L 859.627347 155.94672 
L 860.565187 155.606237 
L 860.940324 155.975362 
L 861.503028 157.285089 
L 862.2533 158.957849 
L 862.816004 160.122537 
L 863.941413 162.778409 
L 864.316549 163.039225 
L 864.691685 162.887131 
L 865.817094 161.939202 
L 866.19223 162.072631 
L 867.317638 163.200771 
L 868.067911 163.574936 
L 868.630615 164.266388 
L 869.380887 165.290609 
L 869.756024 165.564998 
L 870.318728 165.666582 
L 871.069 165.593802 
L 872.194409 165.254409 
L 873.694953 164.036565 
L 875.00793 162.861987 
L 875.570634 161.916329 
L 876.133338 160.459777 
L 876.696043 158.412962 
L 877.258747 155.620223 
L 878.009019 150.344961 
L 878.94686 141.756551 
L 879.8847 131.132576 
L 880.447404 121.734148 
L 881.010109 108.492945 
L 881.572813 90.561448 
L 882.323085 58.13295 
L 882.885789 24.073563 
L 883.198407 -1 
M 888.603215 -1 
L 889.075536 40.713601 
L 889.63824 75.873054 
L 890.388513 107.089278 
L 891.138785 128.812548 
L 891.889057 144.326121 
L 892.451762 152.475556 
L 893.014466 157.883996 
L 893.952306 163.680686 
L 895.265283 170.912783 
L 896.390691 176.000272 
L 896.953396 177.573341 
L 897.5161 178.465389 
L 899.391781 180.557022 
L 899.954485 180.872166 
L 900.517189 181.102192 
L 900.892325 181.563362 
L 903.143142 185.181593 
L 903.518278 185.316588 
L 903.893415 185.036388 
L 904.456119 184.48718 
L 904.643687 184.456729 
L 905.018823 184.741573 
L 905.581527 185.425919 
L 905.956664 185.520862 
L 907.082072 185.17003 
L 907.457208 185.559145 
L 908.395049 186.760893 
L 908.770185 186.960962 
L 909.520457 186.993053 
L 910.645866 186.778192 
L 911.771274 187.21794 
L 912.521546 187.079281 
L 914.584795 186.11075 
L 915.1475 185.425484 
L 916.08534 184.153714 
L 916.460476 183.908983 
L 916.835612 183.907519 
L 917.585885 184.261917 
L 918.148589 184.560269 
L 918.523725 184.439573 
L 919.461565 183.54046 
L 919.836702 183.59861 
L 920.211838 183.906807 
L 920.774542 184.680299 
L 921.337246 185.490215 
L 921.899951 185.904419 
L 922.462655 186.062162 
L 923.025359 185.994318 
L 924.338336 185.563675 
L 924.713472 185.785845 
L 926.589153 187.490978 
L 927.151857 187.992281 
L 928.652402 189.722385 
L 929.402674 190.334546 
L 930.340514 191.337957 
L 930.903219 191.535647 
L 931.278355 191.48861 
L 931.841059 191.172887 
L 933.529172 190.018653 
L 934.091876 189.804009 
L 934.467012 189.873439 
L 935.592421 190.588942 
L 936.342693 190.714237 
L 937.092965 190.95678 
L 937.65567 190.98685 
L 938.030806 191.296257 
L 939.156214 192.874272 
L 939.718918 193.091227 
L 940.281623 193.171193 
L 940.656759 193.067311 
L 941.219463 192.61735 
L 942.720008 191.103798 
L 943.095144 191.21565 
L 943.47028 191.67341 
L 944.032984 192.400176 
L 944.408121 192.469317 
L 944.783257 192.256951 
L 945.345961 191.821563 
L 945.721097 191.775205 
L 946.471369 191.825155 
L 947.784346 191.551939 
L 948.159482 191.264063 
L 948.722186 190.488434 
L 949.472459 189.272101 
L 949.847595 188.945885 
L 950.222731 188.843425 
L 950.785435 188.983865 
L 951.34814 189.095656 
L 952.28598 188.969916 
L 952.661116 189.270138 
L 953.22382 190.291476 
L 953.786525 191.228708 
L 955.287069 192.602928 
L 955.662205 192.544771 
L 956.412478 192.173667 
L 956.787614 192.274601 
L 957.350318 192.892668 
L 957.725454 193.26021 
L 958.100591 193.378276 
L 958.663295 193.324772 
L 959.225999 192.987779 
L 959.788703 192.690055 
L 960.726544 192.394653 
L 962.977361 191.161939 
L 963.727633 190.634425 
L 964.290337 190.686453 
L 964.853042 190.698359 
L 965.790882 190.520026 
L 966.166018 190.079639 
L 966.728722 188.815069 
L 968.229267 185.008845 
L 968.604403 184.428129 
L 968.791971 184.358834 
L 968.979539 184.481455 
L 969.354676 185.272997 
L 970.480084 188.496226 
L 971.042788 189.531332 
L 972.730901 191.733425 
L 973.106037 191.742869 
L 973.668741 191.424942 
L 974.606582 190.630144 
L 975.919558 189.007402 
L 976.482263 188.731096 
L 976.857399 188.707289 
L 977.232535 188.876913 
L 977.607671 189.346934 
L 978.545512 190.887193 
L 978.920648 190.818485 
L 979.67092 190.401775 
L 980.608761 190.344731 
L 981.171465 189.682628 
L 982.859578 187.540397 
L 984.360122 187.116691 
L 984.735258 187.393813 
L 985.673099 188.505108 
L 986.048235 188.623118 
L 986.798507 188.567711 
L 987.361212 188.960764 
L 987.736348 189.19181 
L 988.111484 189.171911 
L 988.861756 188.873355 
L 989.612028 188.838696 
L 990.925005 187.821319 
L 991.300141 187.92792 
L 991.675277 188.376842 
L 992.237982 189.091951 
L 992.613118 189.227433 
L 993.175822 189.055289 
L 993.550958 188.975116 
L 994.488799 189.132488 
L 994.863935 188.800433 
L 995.614207 187.881952 
L 996.364479 187.482316 
L 996.927184 187.256478 
L 997.30232 187.410385 
L 998.24016 188.229824 
L 998.615296 188.147154 
L 999.553137 187.649942 
L 1000.115841 187.683914 
L 1000.678545 187.955173 
L 1001.24125 188.573295 
L 1001.803954 189.203881 
L 1002.366658 189.400104 
L 1003.679635 189.568625 
L 1004.242339 189.451508 
L 1004.617475 189.646041 
L 1005.742884 190.703246 
L 1006.11802 190.433018 
L 1006.680724 189.446344 
L 1007.243428 188.511345 
L 1007.618564 188.155644 
L 1007.993701 188.063408 
L 1009.119109 188.375514 
L 1010.05695 188.066381 
L 1011.369926 188.095238 
L 1011.745062 188.6852 
L 1013.058039 191.184026 
L 1013.620743 192.095425 
L 1013.995879 192.334046 
L 1014.371015 192.140204 
L 1014.746152 191.542928 
L 1015.87156 189.344503 
L 1016.246696 189.090827 
L 1016.621832 189.115673 
L 1017.372105 189.409716 
L 1018.309945 189.426086 
L 1019.060218 189.842399 
L 1019.435354 189.7893 
L 1019.81049 189.505199 
L 1020.373194 188.968364 
L 1020.74833 188.907448 
L 1021.873739 189.176726 
L 1022.811579 189.011035 
L 1023.561851 188.781379 
L 1023.936988 188.890821 
L 1024.499692 189.434498 
L 1025.249964 190.124028 
L 1025.6251 190.177182 
L 1026.000237 189.961424 
L 1030.126734 186.345842 
L 1030.501871 186.725825 
L 1031.064575 187.948622 
L 1031.814847 189.517803 
L 1032.189983 189.925041 
L 1032.565119 190.085992 
L 1033.690528 190.3173 
L 1034.253232 190.674396 
L 1035.191073 191.559532 
L 1036.504049 191.886009 
L 1037.44189 192.563749 
L 1038.004594 192.973354 
L 1038.37973 192.959607 
L 1038.754866 192.753428 
L 1039.31757 192.156144 
L 1040.630547 190.504099 
L 1041.193251 190.128269 
L 1041.755956 190.050309 
L 1042.31866 190.262948 
L 1043.631636 191.084408 
L 1044.194341 191.488748 
L 1044.569477 191.330046 
L 1045.132181 190.602396 
L 1046.070021 189.324439 
L 1047.007862 188.590118 
L 1047.570566 188.542709 
L 1048.320838 188.633295 
L 1049.071111 188.612777 
L 1049.633815 188.726719 
L 1050.384087 188.539336 
L 1050.759224 188.524345 
L 1052.0722 188.851708 
L 1052.447336 188.636674 
L 1053.385177 187.526975 
L 1053.947881 187.045432 
L 1055.073289 186.622023 
L 1055.448426 186.636859 
L 1055.823562 186.975133 
L 1056.386266 187.95902 
L 1057.136538 189.375914 
L 1057.699243 189.929047 
L 1058.074379 189.986876 
L 1058.449515 189.765812 
L 1059.199787 189.072079 
L 1059.574923 189.168642 
L 1060.137628 189.855963 
L 1061.638172 191.910187 
L 1062.013308 192.434826 
L 1062.388445 192.520551 
L 1062.763581 192.208964 
L 1063.326285 191.717168 
L 1063.701421 191.624135 
L 1064.264125 191.788194 
L 1065.577102 192.457731 
L 1065.952238 192.3695 
L 1066.514942 192.002983 
L 1067.265215 191.106872 
L 1069.7036 188.133712 
L 1070.078736 188.168333 
L 1071.016576 188.804475 
L 1071.766849 189.200928 
L 1073.079825 189.552257 
L 1073.64253 190.373861 
L 1074.767938 192.397785 
L 1075.143074 192.699884 
L 1075.51821 192.6591 
L 1075.893347 192.257514 
L 1076.831187 190.83587 
L 1077.206323 190.775459 
L 1077.769027 190.81133 
L 1078.894436 190.195421 
L 1079.269572 189.872064 
L 1080.394981 188.133044 
L 1080.582549 188.158985 
L 1080.957685 188.524937 
L 1081.520389 189.085928 
L 1082.083093 189.147266 
L 1082.45823 189.273287 
L 1082.833366 189.623419 
L 1083.958774 190.925159 
L 1084.521478 191.116379 
L 1084.896615 191.06106 
L 1085.459319 190.746031 
L 1086.209591 190.044592 
L 1087.897704 188.291318 
L 1089.585817 187.192275 
L 1090.523657 187.214994 
L 1091.086361 187.113614 
L 1091.461498 186.869607 
L 1092.774474 185.666208 
L 1093.14961 185.899208 
L 1093.712314 186.673662 
L 1094.650155 188.057249 
L 1095.400427 188.574485 
L 1096.338268 189.629859 
L 1096.713404 189.677775 
L 1097.463676 189.651862 
L 1098.02638 190.089109 
L 1098.401517 190.320734 
L 1098.776653 190.33852 
L 1099.339357 190.112251 
L 1100.652334 189.25829 
L 1101.215038 189.16818 
L 1101.590174 188.845908 
L 1101.96531 188.136769 
L 1102.715582 186.519072 
L 1103.465855 185.542998 
L 1103.840991 185.441726 
L 1104.778831 185.712801 
L 1105.153968 185.742283 
L 1105.529104 186.025279 
L 1108.905329 189.641595 
L 1109.280465 189.539966 
L 1110.593442 188.66561 
L 1111.343714 187.543411 
L 1111.906419 186.9737 
L 1112.469123 186.780422 
L 1112.844259 186.834896 
L 1113.219395 187.161232 
L 1116.408053 191.159523 
L 1116.783189 191.332087 
L 1117.158325 191.27069 
L 1117.721029 190.880749 
L 1118.471301 190.268609 
L 1118.846438 190.231757 
L 1119.784278 190.507338 
L 1120.159414 190.344336 
L 1121.472391 189.388818 
L 1122.035095 189.410407 
L 1122.410231 189.371251 
L 1122.785367 188.909355 
L 1123.53564 187.619503 
L 1123.910776 187.574209 
L 1125.598889 188.047318 
L 1127.662138 188.082991 
L 1128.037274 188.620289 
L 1129.162682 190.722483 
L 1129.537818 190.864687 
L 1130.475659 190.810719 
L 1130.850795 191.103245 
L 1132.163771 192.524132 
L 1132.538908 192.558321 
L 1133.664316 192.102471 
L 1134.414588 192.074801 
L 1134.977293 191.802329 
L 1136.102701 190.906032 
L 1136.665405 190.384995 
L 1137.040542 190.245421 
L 1137.415678 190.306242 
L 1138.16595 190.558421 
L 1138.728654 190.508884 
L 1139.103791 190.262482 
L 1139.854063 189.495668 
L 1140.041631 189.464428 
L 1140.229199 189.56635 
L 1140.604335 190.145576 
L 1141.167039 191.270792 
L 1141.542176 191.551109 
L 1141.917312 191.427271 
L 1143.04272 190.545211 
L 1143.417856 190.257951 
L 1143.792993 190.288942 
L 1144.168129 190.76054 
L 1145.105969 192.384959 
L 1145.481105 192.621283 
L 1146.418946 192.923141 
L 1146.794082 192.789213 
L 1147.731922 192.115826 
L 1148.857331 190.881642 
L 1149.232467 190.84678 
L 1150.733012 191.278598 
L 1151.108148 190.945832 
L 1152.233556 189.246602 
L 1152.608693 189.355424 
L 1153.171397 189.582043 
L 1153.546533 189.420668 
L 1154.296805 188.624804 
L 1155.047078 187.876677 
L 1155.609782 187.658738 
L 1156.172486 187.446338 
L 1156.73519 187.187541 
L 1157.297895 187.282325 
L 1158.048167 187.628252 
L 1158.610871 188.417913 
L 1159.173575 189.050494 
L 1159.548712 189.075087 
L 1160.861688 188.388506 
L 1162.174665 187.317588 
L 1162.549801 187.443598 
L 1163.300073 188.078517 
L 1163.675209 188.317293 
L 1164.050346 188.243024 
L 1164.61305 187.649384 
L 1165.175754 187.19557 
L 1165.738458 187.167708 
L 1166.113594 187.347353 
L 1166.488731 187.827254 
L 1167.426571 189.472206 
L 1167.801707 189.640193 
L 1168.176843 189.496986 
L 1168.739548 188.902453 
L 1169.302252 188.198153 
L 1169.677388 188.033891 
L 1170.052524 188.159732 
L 1171.177933 188.838754 
L 1171.553069 188.675925 
L 1171.928205 188.17994 
L 1172.490909 187.265217 
L 1172.866045 187.084957 
L 1173.241182 187.41677 
L 1173.991454 188.660367 
L 1174.36659 188.814437 
L 1175.491999 188.823665 
L 1175.867135 189.037505 
L 1176.242271 189.5715 
L 1176.804975 190.515864 
L 1177.180111 190.762895 
L 1177.742816 190.633547 
L 1179.24336 190.047084 
L 1179.806065 189.658746 
L 1180.556337 189.084365 
L 1181.306609 188.637104 
L 1182.056882 188.139267 
L 1182.432018 188.268399 
L 1183.932562 189.628393 
L 1184.307699 189.533868 
L 1184.682835 189.143017 
L 1184.870403 188.87941 
L 1184.870403 188.87941 
" clip-path="url(#p7f70b4cc24)" style="fill: none; stroke: #000000; stroke-width: 2; stroke-linecap: square"/>
   </g>
   <g id="patch_3">
    <path d="M 3.00024 198.907885 
L 1184.99976 198.907885 
" style="fill: none; stroke: #000000; stroke-width: 2; stroke-linejoin: miter; stroke-linecap: square"/>
   </g>
  </g>
 </g>
 <defs>
  <clipPath id="p7f70b4cc24">
   <rect x="3.00024" y="3.00024" width="1181.99952" height="195.907645"/>
  </clipPath>
 </defs>
</svg>
