<?xml version="1.0" encoding="utf-8" standalone="no"?>
<!DOCTYPE svg PUBLIC "-//W3C//DTD SVG 1.1//EN"
  "http://www.w3.org/Graphics/SVG/1.1/DTD/svg11.dtd">
<svg xmlns:xlink="http://www.w3.org/1999/xlink" width="1188pt" height="252pt" viewBox="0 0 1188 252" xmlns="http://www.w3.org/2000/svg" version="1.1">
 <metadata>
  <rdf:RDF xmlns:dc="http://purl.org/dc/elements/1.1/" xmlns:cc="http://creativecommons.org/ns#" xmlns:rdf="http://www.w3.org/1999/02/22-rdf-syntax-ns#">
   <cc:Work>
    <dc:type rdf:resource="http://purl.org/dc/dcmitype/StillImage"/>
    <dc:date>2024-05-13T18:26:44.548354</dc:date>
    <dc:format>image/svg+xml</dc:format>
    <dc:creator>
     <cc:Agent>
      <dc:title>Matplotlib v3.8.0, https://matplotlib.org/</dc:title>
     </cc:Agent>
    </dc:creator>
   </cc:Work>
  </rdf:RDF>
 </metadata>
 <defs>
  <style type="text/css">*{stroke-linejoin: round; stroke-linecap: butt}</style>
 </defs>
 <g id="figure_1">
  <g id="patch_1">
   <path d="M 0 252 
L 1188 252 
L 1188 0 
L 0 0 
z
" style="fill: #ffffff"/>
  </g>
  <g id="axes_1">
   <g id="patch_2">
    <path d="M 3.00024 198.907885 
L 1184.99976 198.907885 
L 1184.99976 3.00024 
L 3.00024 3.00024 
z
" style="fill: #ffffff"/>
   </g>
   <g id="matplotlib.axis_1">
    <g id="xtick_1">
     <g id="line2d_1">
      <defs>
       <path id="m709f2f00ce" d="M 0 0 
L 0 8 
" style="stroke: #000000; stroke-width: 2"/>
      </defs>
      <g>
       <use xlink:href="#m709f2f00ce" x="1135.74978" y="198.907885" style="stroke: #000000; stroke-width: 2"/>
      </g>
     </g>
     <g id="text_1">
      <!-- −1 -->
      <g transform="translate(1125.488374 224.791947) scale(0.18 -0.18)">
       <defs>
        <path id="Arial-BoldMT-2212" d="M 266 1850 
L 266 2672 
L 3469 2672 
L 3469 1850 
L 266 1850 
z
" transform="scale(0.015625)"/>
        <path id="Arial-BoldMT-31" d="M 2519 0 
L 1641 0 
L 1641 3309 
Q 1159 2859 506 2644 
L 506 3441 
Q 850 3553 1253 3867 
Q 1656 4181 1806 4600 
L 2519 4600 
L 2519 0 
z
" transform="scale(0.015625)"/>
       </defs>
       <use xlink:href="#Arial-BoldMT-2212"/>
       <use xlink:href="#Arial-BoldMT-31" x="58.398438"/>
      </g>
     </g>
    </g>
    <g id="xtick_2">
     <g id="line2d_2">
      <g>
       <use xlink:href="#m709f2f00ce" x="1037.24982" y="198.907885" style="stroke: #000000; stroke-width: 2"/>
      </g>
     </g>
     <g id="text_2">
      <!-- 0 -->
      <g transform="translate(1032.244976 224.791947) scale(0.18 -0.18)">
       <defs>
        <path id="Arial-BoldMT-30" d="M 1756 4600 
Q 2422 4600 2797 4125 
Q 3244 3563 3244 2259 
Q 3244 959 2794 391 
Q 2422 -78 1756 -78 
Q 1088 -78 678 436 
Q 269 950 269 2269 
Q 269 3563 719 4131 
Q 1091 4600 1756 4600 
z
M 1756 3872 
Q 1597 3872 1472 3770 
Q 1347 3669 1278 3406 
Q 1188 3066 1188 2259 
Q 1188 1453 1269 1151 
Q 1350 850 1473 750 
Q 1597 650 1756 650 
Q 1916 650 2041 751 
Q 2166 853 2234 1116 
Q 2325 1453 2325 2259 
Q 2325 3066 2244 3367 
Q 2163 3669 2039 3770 
Q 1916 3872 1756 3872 
z
" transform="scale(0.015625)"/>
       </defs>
       <use xlink:href="#Arial-BoldMT-30"/>
      </g>
     </g>
    </g>
    <g id="xtick_3">
     <g id="line2d_3">
      <g>
       <use xlink:href="#m709f2f00ce" x="938.74986" y="198.907885" style="stroke: #000000; stroke-width: 2"/>
      </g>
     </g>
     <g id="text_3">
      <!-- 1 -->
      <g transform="translate(933.745016 224.791947) scale(0.18 -0.18)">
       <use xlink:href="#Arial-BoldMT-31"/>
      </g>
     </g>
    </g>
    <g id="xtick_4">
     <g id="line2d_4">
      <g>
       <use xlink:href="#m709f2f00ce" x="840.2499" y="198.907885" style="stroke: #000000; stroke-width: 2"/>
      </g>
     </g>
     <g id="text_4">
      <!-- 2 -->
      <g transform="translate(835.245056 224.791947) scale(0.18 -0.18)">
       <defs>
        <path id="Arial-BoldMT-32" d="M 3238 816 
L 3238 0 
L 159 0 
Q 209 463 459 877 
Q 709 1291 1447 1975 
Q 2041 2528 2175 2725 
Q 2356 2997 2356 3263 
Q 2356 3556 2198 3714 
Q 2041 3872 1763 3872 
Q 1488 3872 1325 3706 
Q 1163 3541 1138 3156 
L 263 3244 
Q 341 3969 753 4284 
Q 1166 4600 1784 4600 
Q 2463 4600 2850 4234 
Q 3238 3869 3238 3325 
Q 3238 3016 3127 2736 
Q 3016 2456 2775 2150 
Q 2616 1947 2200 1565 
Q 1784 1184 1673 1059 
Q 1563 934 1494 816 
L 3238 816 
z
" transform="scale(0.015625)"/>
       </defs>
       <use xlink:href="#Arial-BoldMT-32"/>
      </g>
     </g>
    </g>
    <g id="xtick_5">
     <g id="line2d_5">
      <g>
       <use xlink:href="#m709f2f00ce" x="741.74994" y="198.907885" style="stroke: #000000; stroke-width: 2"/>
      </g>
     </g>
     <g id="text_5">
      <!-- 3 -->
      <g transform="translate(736.745096 224.791947) scale(0.18 -0.18)">
       <defs>
        <path id="Arial-BoldMT-33" d="M 241 1216 
L 1091 1319 
Q 1131 994 1309 822 
Q 1488 650 1741 650 
Q 2013 650 2198 856 
Q 2384 1063 2384 1413 
Q 2384 1744 2206 1937 
Q 2028 2131 1772 2131 
Q 1603 2131 1369 2066 
L 1466 2781 
Q 1822 2772 2009 2936 
Q 2197 3100 2197 3372 
Q 2197 3603 2059 3740 
Q 1922 3878 1694 3878 
Q 1469 3878 1309 3722 
Q 1150 3566 1116 3266 
L 306 3403 
Q 391 3819 561 4067 
Q 731 4316 1036 4458 
Q 1341 4600 1719 4600 
Q 2366 4600 2756 4188 
Q 3078 3850 3078 3425 
Q 3078 2822 2419 2463 
Q 2813 2378 3048 2084 
Q 3284 1791 3284 1375 
Q 3284 772 2843 347 
Q 2403 -78 1747 -78 
Q 1125 -78 715 280 
Q 306 638 241 1216 
z
" transform="scale(0.015625)"/>
       </defs>
       <use xlink:href="#Arial-BoldMT-33"/>
      </g>
     </g>
    </g>
    <g id="xtick_6">
     <g id="line2d_6">
      <g>
       <use xlink:href="#m709f2f00ce" x="643.24998" y="198.907885" style="stroke: #000000; stroke-width: 2"/>
      </g>
     </g>
     <g id="text_6">
      <!-- 4 -->
      <g transform="translate(638.245136 224.791947) scale(0.18 -0.18)">
       <defs>
        <path id="Arial-BoldMT-34" d="M 1994 0 
L 1994 922 
L 119 922 
L 119 1691 
L 2106 4600 
L 2844 4600 
L 2844 1694 
L 3413 1694 
L 3413 922 
L 2844 922 
L 2844 0 
L 1994 0 
z
M 1994 1694 
L 1994 3259 
L 941 1694 
L 1994 1694 
z
" transform="scale(0.015625)"/>
       </defs>
       <use xlink:href="#Arial-BoldMT-34"/>
      </g>
     </g>
    </g>
    <g id="xtick_7">
     <g id="line2d_7">
      <g>
       <use xlink:href="#m709f2f00ce" x="544.75002" y="198.907885" style="stroke: #000000; stroke-width: 2"/>
      </g>
     </g>
     <g id="text_7">
      <!-- 5 -->
      <g transform="translate(539.745176 224.791947) scale(0.18 -0.18)">
       <defs>
        <path id="Arial-BoldMT-35" d="M 284 1178 
L 1159 1269 
Q 1197 972 1381 798 
Q 1566 625 1806 625 
Q 2081 625 2272 848 
Q 2463 1072 2463 1522 
Q 2463 1944 2273 2155 
Q 2084 2366 1781 2366 
Q 1403 2366 1103 2031 
L 391 2134 
L 841 4519 
L 3163 4519 
L 3163 3697 
L 1506 3697 
L 1369 2919 
Q 1663 3066 1969 3066 
Q 2553 3066 2959 2641 
Q 3366 2216 3366 1538 
Q 3366 972 3038 528 
Q 2591 -78 1797 -78 
Q 1163 -78 763 262 
Q 363 603 284 1178 
z
" transform="scale(0.015625)"/>
       </defs>
       <use xlink:href="#Arial-BoldMT-35"/>
      </g>
     </g>
    </g>
    <g id="xtick_8">
     <g id="line2d_8">
      <g>
       <use xlink:href="#m709f2f00ce" x="446.25006" y="198.907885" style="stroke: #000000; stroke-width: 2"/>
      </g>
     </g>
     <g id="text_8">
      <!-- 6 -->
      <g transform="translate(441.245216 224.791947) scale(0.18 -0.18)">
       <defs>
        <path id="Arial-BoldMT-36" d="M 3247 3459 
L 2397 3366 
Q 2366 3628 2234 3753 
Q 2103 3878 1894 3878 
Q 1616 3878 1423 3628 
Q 1231 3378 1181 2588 
Q 1509 2975 1997 2975 
Q 2547 2975 2939 2556 
Q 3331 2138 3331 1475 
Q 3331 772 2918 347 
Q 2506 -78 1859 -78 
Q 1166 -78 719 461 
Q 272 1000 272 2228 
Q 272 3488 737 4044 
Q 1203 4600 1947 4600 
Q 2469 4600 2811 4308 
Q 3153 4016 3247 3459 
z
M 1256 1544 
Q 1256 1116 1453 883 
Q 1650 650 1903 650 
Q 2147 650 2309 840 
Q 2472 1031 2472 1466 
Q 2472 1913 2297 2120 
Q 2122 2328 1859 2328 
Q 1606 2328 1431 2129 
Q 1256 1931 1256 1544 
z
" transform="scale(0.015625)"/>
       </defs>
       <use xlink:href="#Arial-BoldMT-36"/>
      </g>
     </g>
    </g>
    <g id="xtick_9">
     <g id="line2d_9">
      <g>
       <use xlink:href="#m709f2f00ce" x="347.7501" y="198.907885" style="stroke: #000000; stroke-width: 2"/>
      </g>
     </g>
     <g id="text_9">
      <!-- 7 -->
      <g transform="translate(342.745256 224.791947) scale(0.18 -0.18)">
       <defs>
        <path id="Arial-BoldMT-37" d="M 272 3703 
L 272 4519 
L 3275 4519 
L 3275 3881 
Q 2903 3516 2518 2831 
Q 2134 2147 1932 1376 
Q 1731 606 1734 0 
L 888 0 
Q 909 950 1279 1937 
Q 1650 2925 2269 3703 
L 272 3703 
z
" transform="scale(0.015625)"/>
       </defs>
       <use xlink:href="#Arial-BoldMT-37"/>
      </g>
     </g>
    </g>
    <g id="xtick_10">
     <g id="line2d_10">
      <g>
       <use xlink:href="#m709f2f00ce" x="249.25014" y="198.907885" style="stroke: #000000; stroke-width: 2"/>
      </g>
     </g>
     <g id="text_10">
      <!-- 8 -->
      <g transform="translate(244.245296 224.791947) scale(0.18 -0.18)">
       <defs>
        <path id="Arial-BoldMT-38" d="M 1025 2472 
Q 684 2616 529 2867 
Q 375 3119 375 3419 
Q 375 3931 733 4265 
Q 1091 4600 1750 4600 
Q 2403 4600 2764 4265 
Q 3125 3931 3125 3419 
Q 3125 3100 2959 2851 
Q 2794 2603 2494 2472 
Q 2875 2319 3073 2025 
Q 3272 1731 3272 1347 
Q 3272 713 2867 316 
Q 2463 -81 1791 -81 
Q 1166 -81 750 247 
Q 259 634 259 1309 
Q 259 1681 443 1992 
Q 628 2303 1025 2472 
z
M 1206 3356 
Q 1206 3094 1354 2947 
Q 1503 2800 1750 2800 
Q 2000 2800 2150 2948 
Q 2300 3097 2300 3359 
Q 2300 3606 2151 3754 
Q 2003 3903 1759 3903 
Q 1506 3903 1356 3753 
Q 1206 3603 1206 3356 
z
M 1125 1394 
Q 1125 1031 1311 828 
Q 1497 625 1775 625 
Q 2047 625 2225 820 
Q 2403 1016 2403 1384 
Q 2403 1706 2222 1901 
Q 2041 2097 1763 2097 
Q 1441 2097 1283 1875 
Q 1125 1653 1125 1394 
z
" transform="scale(0.015625)"/>
       </defs>
       <use xlink:href="#Arial-BoldMT-38"/>
      </g>
     </g>
    </g>
    <g id="xtick_11">
     <g id="line2d_11">
      <g>
       <use xlink:href="#m709f2f00ce" x="150.75018" y="198.907885" style="stroke: #000000; stroke-width: 2"/>
      </g>
     </g>
     <g id="text_11">
      <!-- 9 -->
      <g transform="translate(145.745336 224.791947) scale(0.18 -0.18)">
       <defs>
        <path id="Arial-BoldMT-39" d="M 291 1059 
L 1141 1153 
Q 1172 894 1303 769 
Q 1434 644 1650 644 
Q 1922 644 2112 894 
Q 2303 1144 2356 1931 
Q 2025 1547 1528 1547 
Q 988 1547 595 1964 
Q 203 2381 203 3050 
Q 203 3747 617 4173 
Q 1031 4600 1672 4600 
Q 2369 4600 2816 4061 
Q 3263 3522 3263 2288 
Q 3263 1031 2797 475 
Q 2331 -81 1584 -81 
Q 1047 -81 715 205 
Q 384 491 291 1059 
z
M 2278 2978 
Q 2278 3403 2083 3637 
Q 1888 3872 1631 3872 
Q 1388 3872 1227 3680 
Q 1066 3488 1066 3050 
Q 1066 2606 1241 2398 
Q 1416 2191 1678 2191 
Q 1931 2191 2104 2391 
Q 2278 2591 2278 2978 
z
" transform="scale(0.015625)"/>
       </defs>
       <use xlink:href="#Arial-BoldMT-39"/>
      </g>
     </g>
    </g>
    <g id="xtick_12">
     <g id="line2d_12">
      <g>
       <use xlink:href="#m709f2f00ce" x="52.25022" y="198.907885" style="stroke: #000000; stroke-width: 2"/>
      </g>
     </g>
     <g id="text_12">
      <!-- 10 -->
      <g transform="translate(42.240533 224.791947) scale(0.18 -0.18)">
       <use xlink:href="#Arial-BoldMT-31"/>
       <use xlink:href="#Arial-BoldMT-30" x="55.615234"/>
      </g>
     </g>
    </g>
    <g id="text_13">
     <!-- Chemical Shift / ppm -->
     <g transform="translate(504.992813 245.447573) scale(0.18 -0.18)">
      <defs>
       <path id="Arial-BoldMT-43" d="M 3397 1684 
L 4294 1400 
Q 4088 650 3608 286 
Q 3128 -78 2391 -78 
Q 1478 -78 890 545 
Q 303 1169 303 2250 
Q 303 3394 893 4026 
Q 1484 4659 2447 4659 
Q 3288 4659 3813 4163 
Q 4125 3869 4281 3319 
L 3366 3100 
Q 3284 3456 3026 3662 
Q 2769 3869 2400 3869 
Q 1891 3869 1573 3503 
Q 1256 3138 1256 2319 
Q 1256 1450 1568 1081 
Q 1881 713 2381 713 
Q 2750 713 3015 947 
Q 3281 1181 3397 1684 
z
" transform="scale(0.015625)"/>
       <path id="Arial-BoldMT-68" d="M 1334 4581 
L 1334 2897 
Q 1759 3394 2350 3394 
Q 2653 3394 2897 3281 
Q 3141 3169 3264 2994 
Q 3388 2819 3433 2606 
Q 3478 2394 3478 1947 
L 3478 0 
L 2600 0 
L 2600 1753 
Q 2600 2275 2550 2415 
Q 2500 2556 2373 2639 
Q 2247 2722 2056 2722 
Q 1838 2722 1666 2615 
Q 1494 2509 1414 2295 
Q 1334 2081 1334 1663 
L 1334 0 
L 456 0 
L 456 4581 
L 1334 4581 
z
" transform="scale(0.015625)"/>
       <path id="Arial-BoldMT-65" d="M 2381 1056 
L 3256 909 
Q 3088 428 2723 176 
Q 2359 -75 1813 -75 
Q 947 -75 531 491 
Q 203 944 203 1634 
Q 203 2459 634 2926 
Q 1066 3394 1725 3394 
Q 2466 3394 2894 2905 
Q 3322 2416 3303 1406 
L 1103 1406 
Q 1113 1016 1316 798 
Q 1519 581 1822 581 
Q 2028 581 2168 693 
Q 2309 806 2381 1056 
z
M 2431 1944 
Q 2422 2325 2234 2523 
Q 2047 2722 1778 2722 
Q 1491 2722 1303 2513 
Q 1116 2303 1119 1944 
L 2431 1944 
z
" transform="scale(0.015625)"/>
       <path id="Arial-BoldMT-6d" d="M 394 3319 
L 1203 3319 
L 1203 2866 
Q 1638 3394 2238 3394 
Q 2556 3394 2790 3262 
Q 3025 3131 3175 2866 
Q 3394 3131 3647 3262 
Q 3900 3394 4188 3394 
Q 4553 3394 4806 3245 
Q 5059 3097 5184 2809 
Q 5275 2597 5275 2122 
L 5275 0 
L 4397 0 
L 4397 1897 
Q 4397 2391 4306 2534 
Q 4184 2722 3931 2722 
Q 3747 2722 3584 2609 
Q 3422 2497 3350 2280 
Q 3278 2063 3278 1594 
L 3278 0 
L 2400 0 
L 2400 1819 
Q 2400 2303 2353 2443 
Q 2306 2584 2207 2653 
Q 2109 2722 1941 2722 
Q 1738 2722 1575 2612 
Q 1413 2503 1342 2297 
Q 1272 2091 1272 1613 
L 1272 0 
L 394 0 
L 394 3319 
z
" transform="scale(0.015625)"/>
       <path id="Arial-BoldMT-69" d="M 459 3769 
L 459 4581 
L 1338 4581 
L 1338 3769 
L 459 3769 
z
M 459 0 
L 459 3319 
L 1338 3319 
L 1338 0 
L 459 0 
z
" transform="scale(0.015625)"/>
       <path id="Arial-BoldMT-63" d="M 3353 2338 
L 2488 2181 
Q 2444 2441 2289 2572 
Q 2134 2703 1888 2703 
Q 1559 2703 1364 2476 
Q 1169 2250 1169 1719 
Q 1169 1128 1367 884 
Q 1566 641 1900 641 
Q 2150 641 2309 783 
Q 2469 925 2534 1272 
L 3397 1125 
Q 3263 531 2881 228 
Q 2500 -75 1859 -75 
Q 1131 -75 698 384 
Q 266 844 266 1656 
Q 266 2478 700 2936 
Q 1134 3394 1875 3394 
Q 2481 3394 2839 3133 
Q 3197 2872 3353 2338 
z
" transform="scale(0.015625)"/>
       <path id="Arial-BoldMT-61" d="M 1116 2306 
L 319 2450 
Q 453 2931 781 3162 
Q 1109 3394 1756 3394 
Q 2344 3394 2631 3255 
Q 2919 3116 3036 2902 
Q 3153 2688 3153 2116 
L 3144 1091 
Q 3144 653 3186 445 
Q 3228 238 3344 0 
L 2475 0 
Q 2441 88 2391 259 
Q 2369 338 2359 363 
Q 2134 144 1878 34 
Q 1622 -75 1331 -75 
Q 819 -75 523 203 
Q 228 481 228 906 
Q 228 1188 362 1408 
Q 497 1628 739 1745 
Q 981 1863 1438 1950 
Q 2053 2066 2291 2166 
L 2291 2253 
Q 2291 2506 2166 2614 
Q 2041 2722 1694 2722 
Q 1459 2722 1328 2630 
Q 1197 2538 1116 2306 
z
M 2291 1594 
Q 2122 1538 1756 1459 
Q 1391 1381 1278 1306 
Q 1106 1184 1106 997 
Q 1106 813 1243 678 
Q 1381 544 1594 544 
Q 1831 544 2047 700 
Q 2206 819 2256 991 
Q 2291 1103 2291 1419 
L 2291 1594 
z
" transform="scale(0.015625)"/>
       <path id="Arial-BoldMT-6c" d="M 459 0 
L 459 4581 
L 1338 4581 
L 1338 0 
L 459 0 
z
" transform="scale(0.015625)"/>
       <path id="Arial-BoldMT-20" transform="scale(0.015625)"/>
       <path id="Arial-BoldMT-53" d="M 231 1491 
L 1131 1578 
Q 1213 1125 1461 912 
Q 1709 700 2131 700 
Q 2578 700 2804 889 
Q 3031 1078 3031 1331 
Q 3031 1494 2936 1608 
Q 2841 1722 2603 1806 
Q 2441 1863 1863 2006 
Q 1119 2191 819 2459 
Q 397 2838 397 3381 
Q 397 3731 595 4036 
Q 794 4341 1167 4500 
Q 1541 4659 2069 4659 
Q 2931 4659 3367 4281 
Q 3803 3903 3825 3272 
L 2900 3231 
Q 2841 3584 2645 3739 
Q 2450 3894 2059 3894 
Q 1656 3894 1428 3728 
Q 1281 3622 1281 3444 
Q 1281 3281 1419 3166 
Q 1594 3019 2269 2859 
Q 2944 2700 3267 2529 
Q 3591 2359 3773 2064 
Q 3956 1769 3956 1334 
Q 3956 941 3737 597 
Q 3519 253 3119 86 
Q 2719 -81 2122 -81 
Q 1253 -81 787 320 
Q 322 722 231 1491 
z
" transform="scale(0.015625)"/>
       <path id="Arial-BoldMT-66" d="M 75 3319 
L 563 3319 
L 563 3569 
Q 563 3988 652 4194 
Q 741 4400 980 4529 
Q 1219 4659 1584 4659 
Q 1959 4659 2319 4547 
L 2200 3934 
Q 1991 3984 1797 3984 
Q 1606 3984 1523 3895 
Q 1441 3806 1441 3553 
L 1441 3319 
L 2097 3319 
L 2097 2628 
L 1441 2628 
L 1441 0 
L 563 0 
L 563 2628 
L 75 2628 
L 75 3319 
z
" transform="scale(0.015625)"/>
       <path id="Arial-BoldMT-74" d="M 1981 3319 
L 1981 2619 
L 1381 2619 
L 1381 1281 
Q 1381 875 1398 808 
Q 1416 741 1477 697 
Q 1538 653 1625 653 
Q 1747 653 1978 738 
L 2053 56 
Q 1747 -75 1359 -75 
Q 1122 -75 931 4 
Q 741 84 652 211 
Q 563 338 528 553 
Q 500 706 500 1172 
L 500 2619 
L 97 2619 
L 97 3319 
L 500 3319 
L 500 3978 
L 1381 4491 
L 1381 3319 
L 1981 3319 
z
" transform="scale(0.015625)"/>
       <path id="Arial-BoldMT-2f" d="M -9 -78 
L 1125 4659 
L 1784 4659 
L 638 -78 
L -9 -78 
z
" transform="scale(0.015625)"/>
       <path id="Arial-BoldMT-70" d="M 434 3319 
L 1253 3319 
L 1253 2831 
Q 1413 3081 1684 3237 
Q 1956 3394 2288 3394 
Q 2866 3394 3269 2941 
Q 3672 2488 3672 1678 
Q 3672 847 3265 386 
Q 2859 -75 2281 -75 
Q 2006 -75 1782 34 
Q 1559 144 1313 409 
L 1313 -1263 
L 434 -1263 
L 434 3319 
z
M 1303 1716 
Q 1303 1156 1525 889 
Q 1747 622 2066 622 
Q 2372 622 2575 867 
Q 2778 1113 2778 1672 
Q 2778 2194 2568 2447 
Q 2359 2700 2050 2700 
Q 1728 2700 1515 2451 
Q 1303 2203 1303 1716 
z
" transform="scale(0.015625)"/>
      </defs>
      <use xlink:href="#Arial-BoldMT-43"/>
      <use xlink:href="#Arial-BoldMT-68" x="72.216797"/>
      <use xlink:href="#Arial-BoldMT-65" x="133.300781"/>
      <use xlink:href="#Arial-BoldMT-6d" x="188.916016"/>
      <use xlink:href="#Arial-BoldMT-69" x="277.832031"/>
      <use xlink:href="#Arial-BoldMT-63" x="305.615234"/>
      <use xlink:href="#Arial-BoldMT-61" x="361.230469"/>
      <use xlink:href="#Arial-BoldMT-6c" x="416.845703"/>
      <use xlink:href="#Arial-BoldMT-20" x="444.628906"/>
      <use xlink:href="#Arial-BoldMT-53" x="472.412109"/>
      <use xlink:href="#Arial-BoldMT-68" x="539.111328"/>
      <use xlink:href="#Arial-BoldMT-69" x="600.195312"/>
      <use xlink:href="#Arial-BoldMT-66" x="627.978516"/>
      <use xlink:href="#Arial-BoldMT-74" x="661.279297"/>
      <use xlink:href="#Arial-BoldMT-20" x="694.580078"/>
      <use xlink:href="#Arial-BoldMT-2f" x="722.363281"/>
      <use xlink:href="#Arial-BoldMT-20" x="750.146484"/>
      <use xlink:href="#Arial-BoldMT-70" x="777.929688"/>
      <use xlink:href="#Arial-BoldMT-70" x="839.013672"/>
      <use xlink:href="#Arial-BoldMT-6d" x="900.097656"/>
     </g>
    </g>
   </g>
   <g id="matplotlib.axis_2"/>
   <g id="line2d_13">
    <path d="M 2.957109 190.653837 
L 3.519814 190.804713 
L 5.020358 191.688911 
L 5.395495 191.539889 
L 5.770631 191.128441 
L 6.708471 189.776124 
L 7.271175 189.420129 
L 8.021448 189.169368 
L 8.584152 188.949862 
L 9.334424 188.410936 
L 9.70956 188.467162 
L 10.272265 188.990853 
L 11.022537 189.691995 
L 11.585241 189.987565 
L 11.960377 189.950854 
L 12.335514 189.697916 
L 14.211194 187.85031 
L 14.773899 187.592431 
L 15.149035 187.722207 
L 16.649579 188.862931 
L 17.024716 188.941571 
L 17.399852 188.765235 
L 18.52526 187.732837 
L 18.900396 187.853712 
L 19.650669 188.244761 
L 20.025805 188.130416 
L 20.588509 187.551461 
L 21.338782 186.754911 
L 21.713918 186.8253 
L 22.276622 187.49483 
L 24.527439 190.446869 
L 25.840416 191.614873 
L 26.215552 191.566569 
L 27.153392 190.985736 
L 27.903664 191.044479 
L 28.466369 191.241334 
L 29.216641 191.565261 
L 29.779345 191.409979 
L 30.717186 190.828446 
L 31.655026 189.933303 
L 32.21773 189.834445 
L 33.155571 189.75994 
L 33.718275 190.097149 
L 34.843684 190.871175 
L 35.21882 190.853521 
L 36.531796 190.213995 
L 37.282069 189.464933 
L 37.657205 189.484712 
L 38.782613 189.781773 
L 39.345318 189.866769 
L 39.908022 189.635488 
L 41.220998 188.819558 
L 42.346407 187.919076 
L 43.284247 186.501975 
L 43.659383 186.470848 
L 44.222088 186.774695 
L 44.784792 187.343017 
L 45.722632 188.646949 
L 46.660473 189.486223 
L 47.223177 190.026342 
L 47.598313 190.110001 
L 48.161017 189.947562 
L 48.723722 189.796656 
L 49.098858 189.898099 
L 50.411834 190.613924 
L 50.786971 190.615767 
L 51.537243 190.23941 
L 52.850219 189.511139 
L 53.412924 189.528752 
L 54.163196 189.692896 
L 54.7259 189.462409 
L 55.288605 189.266768 
L 55.663741 189.38935 
L 56.038877 189.775014 
L 56.976717 191.125168 
L 57.351853 191.14316 
L 58.289694 190.645552 
L 58.852398 190.615872 
L 59.60267 190.703263 
L 59.977807 190.47447 
L 60.540511 189.647206 
L 61.665919 187.843397 
L 62.416192 187.129327 
L 62.791328 186.929499 
L 63.166464 186.979298 
L 63.5416 187.340592 
L 64.479441 188.680191 
L 64.854577 188.803054 
L 65.417281 188.587691 
L 66.355121 188.083396 
L 66.730258 188.153053 
L 67.668098 188.683355 
L 68.41837 188.70626 
L 68.793507 188.926966 
L 69.918915 189.903552 
L 70.294051 189.811032 
L 71.231892 189.301481 
L 72.169732 189.203783 
L 72.732436 189.033777 
L 73.295141 189.112476 
L 73.670277 189.320911 
L 74.232981 190.011412 
L 74.795685 190.581564 
L 75.170821 190.703447 
L 75.545958 190.641293 
L 76.108662 190.121303 
L 76.483798 189.855839 
L 76.858934 189.937437 
L 77.421638 190.304984 
L 77.796774 190.227026 
L 78.171911 189.786514 
L 79.109751 188.494943 
L 79.484887 188.429337 
L 80.23516 188.462431 
L 80.797864 188.476168 
L 81.173 188.744158 
L 82.298408 190.090167 
L 82.673545 190.021777 
L 83.048681 189.651394 
L 83.611385 189.085589 
L 83.798953 189.10882 
L 84.174089 189.577393 
L 84.924362 190.853846 
L 85.299498 191.197282 
L 86.424906 191.778356 
L 87.175179 192.491943 
L 87.550315 192.411881 
L 88.113019 191.855453 
L 88.863291 191.04448 
L 89.238428 190.912316 
L 89.9887 190.913893 
L 90.551404 190.372308 
L 90.92654 190.102982 
L 91.489245 190.096729 
L 92.614653 190.380952 
L 93.177357 190.780658 
L 93.740062 191.155634 
L 94.115198 191.150904 
L 94.677902 190.82228 
L 95.053038 190.36023 
L 96.178447 188.557323 
L 96.553583 188.525713 
L 96.928719 188.931777 
L 97.866559 190.438143 
L 98.241696 190.653693 
L 98.991968 190.820555 
L 99.367104 190.718397 
L 100.680081 189.658018 
L 101.805489 188.387798 
L 102.180625 188.441815 
L 102.555761 188.830987 
L 103.118466 189.509661 
L 103.493602 189.625078 
L 104.994147 189.415007 
L 106.307123 188.501422 
L 106.682259 188.611024 
L 107.244964 188.802743 
L 107.807668 188.589351 
L 108.370372 188.412669 
L 108.745508 188.484227 
L 109.308212 188.931597 
L 110.996325 190.717094 
L 111.559029 190.690472 
L 112.121734 190.349999 
L 113.809846 188.856375 
L 115.122823 188.540251 
L 115.685527 188.200798 
L 116.060663 188.190136 
L 116.623368 188.520576 
L 117.561208 189.196284 
L 117.936344 189.142074 
L 118.686617 188.952092 
L 120.187161 188.924169 
L 120.749865 188.828945 
L 121.125002 189.014614 
L 121.687706 189.394809 
L 122.062842 189.421595 
L 122.813114 189.130253 
L 123.188251 189.020489 
L 123.563387 189.136835 
L 124.313659 189.563726 
L 124.688795 189.406824 
L 125.251499 189.042479 
L 125.626636 189.159984 
L 126.18934 189.868373 
L 126.752044 190.400338 
L 127.12718 190.436189 
L 127.502316 190.25729 
L 128.627725 189.530143 
L 129.002861 189.638125 
L 130.315838 190.614565 
L 130.690974 190.528588 
L 131.06611 190.179886 
L 132.00395 189.050772 
L 132.566655 188.803544 
L 133.129359 188.548376 
L 133.692063 188.264537 
L 134.254767 188.256326 
L 134.817472 188.57261 
L 135.94288 189.436441 
L 136.318016 189.497832 
L 137.443425 189.270013 
L 137.818561 189.617553 
L 138.756401 190.826337 
L 139.319106 191.021686 
L 140.81965 191.002121 
L 141.382355 190.710347 
L 142.695331 189.955271 
L 143.445604 189.849602 
L 144.383444 189.757183 
L 145.321284 190.167776 
L 145.696421 190.014318 
L 146.821829 189.005686 
L 150.385623 187.792143 
L 150.760759 187.967882 
L 151.886167 188.68873 
L 152.261303 188.496377 
L 153.011576 187.969625 
L 153.949416 187.728189 
L 154.51212 187.0831 
L 155.074825 186.518709 
L 155.449961 186.418354 
L 155.825097 186.617468 
L 156.200233 187.242586 
L 157.700778 190.751954 
L 158.075914 190.967397 
L 159.013754 191.072978 
L 160.139163 191.065141 
L 160.889435 191.469686 
L 161.264571 191.362653 
L 162.014844 190.765094 
L 162.577548 190.034295 
L 163.32782 189.107601 
L 163.890525 188.845758 
L 164.265661 188.940612 
L 165.953773 190.17237 
L 166.704046 190.785639 
L 167.079182 190.899914 
L 167.454318 190.722538 
L 168.20459 190.105983 
L 169.142431 189.948707 
L 169.705135 189.353913 
L 170.642976 188.282922 
L 171.018112 188.176261 
L 172.14352 188.31242 
L 172.518656 188.475863 
L 173.081361 189.031279 
L 173.644065 189.501244 
L 174.019201 189.494613 
L 174.394337 189.221187 
L 175.14461 188.289538 
L 175.519746 187.877989 
L 175.894882 187.763351 
L 177.02029 187.862661 
L 177.582995 187.884517 
L 177.958131 188.079478 
L 178.895971 188.711404 
L 179.271107 188.70767 
L 179.833812 188.407503 
L 181.521924 187.054466 
L 182.459765 186.733715 
L 183.022469 185.951204 
L 183.772741 184.733348 
L 184.335446 184.317089 
L 184.89815 183.878857 
L 185.460854 183.029533 
L 186.211126 181.307423 
L 186.961399 179.117857 
L 188.274375 174.618298 
L 188.83708 171.386074 
L 189.399784 166.903783 
L 189.962488 160.942471 
L 190.71276 149.853257 
L 191.275465 138.637549 
L 191.838169 123.502737 
L 192.400873 102.619784 
L 192.963577 73.84292 
L 194.088986 9.419537 
L 194.276554 4.405144 
L 194.464122 3.00024 
L 194.65169 5.469409 
L 195.026826 20.813456 
L 196.527371 108.716424 
L 197.090075 125.765374 
L 197.652779 134.977953 
L 198.027916 138.218787 
L 198.59062 141.008499 
L 199.340892 144.376874 
L 200.278733 149.128493 
L 200.653869 149.999216 
L 200.841437 150.155972 
L 201.029005 150.148527 
L 201.216573 149.984309 
L 201.591709 149.130062 
L 201.966845 147.464672 
L 202.904686 142.049824 
L 203.092254 141.578349 
L 203.279822 141.45903 
L 203.46739 141.633909 
L 204.030094 142.93599 
L 204.780367 145.128027 
L 205.718207 148.332845 
L 205.905775 148.512617 
L 206.093343 148.422108 
L 206.280911 148.045933 
L 206.656047 146.504057 
L 207.969024 139.537401 
L 208.156592 139.495024 
L 208.34416 139.760346 
L 208.719296 140.89666 
L 209.282001 143.541911 
L 209.844705 147.48981 
L 210.782545 154.761023 
L 211.157681 156.273374 
L 211.34525 156.628538 
L 211.532818 156.735307 
L 211.720386 156.605785 
L 212.095522 155.652105 
L 212.470658 153.751462 
L 213.033362 149.105311 
L 213.971203 140.083377 
L 214.158771 139.372311 
L 214.346339 139.33596 
L 214.533907 139.956019 
L 214.909043 142.639508 
L 216.972292 160.796337 
L 217.347428 162.884154 
L 217.722564 163.949376 
L 217.910132 164.075017 
L 218.097701 163.934876 
L 218.285269 163.534184 
L 218.660405 161.911478 
L 219.035541 159.072802 
L 219.598245 152.394371 
L 220.160949 142.653793 
L 221.09879 120.931906 
L 222.03663 100.545276 
L 222.599334 92.905959 
L 222.786903 91.912329 
L 222.974471 91.885689 
L 223.162039 92.810877 
L 223.537175 97.028455 
L 224.099879 107.276892 
L 225.03772 130.69858 
L 225.787992 147.805052 
L 226.350696 157.079379 
L 226.9134 163.305518 
L 227.476105 167.44063 
L 228.038809 170.084178 
L 228.226377 170.48425 
L 228.413945 170.579382 
L 228.601513 170.366268 
L 228.976649 169.094741 
L 229.351785 166.787868 
L 229.91449 161.452654 
L 231.039898 149.679948 
L 231.415034 147.420426 
L 231.790171 146.359726 
L 231.977739 146.348361 
L 232.165307 146.711076 
L 232.540443 148.504409 
L 233.290715 154.564696 
L 234.416124 165.634794 
L 235.166396 172.383154 
L 235.916668 177.050762 
L 236.854509 181.591137 
L 237.417213 183.318445 
L 239.66803 188.46928 
L 240.418302 189.332518 
L 240.793439 189.465527 
L 241.168575 189.262062 
L 241.731279 188.47244 
L 242.481551 187.483991 
L 243.231824 186.679008 
L 243.60696 186.631825 
L 243.982096 186.995267 
L 244.732368 188.028904 
L 245.107504 188.129748 
L 245.482641 187.856385 
L 246.608049 186.521492 
L 247.170753 186.349301 
L 247.921026 186.079067 
L 248.48373 185.684067 
L 248.858866 185.074037 
L 250.546979 181.38463 
L 251.109683 180.205309 
L 251.672387 178.439256 
L 252.610228 174.498136 
L 254.485909 164.981915 
L 255.048613 160.371831 
L 255.798885 151.598805 
L 256.361589 142.876159 
L 256.924294 130.660855 
L 257.486998 113.422237 
L 258.23727 82.179784 
L 259.362679 34.179534 
L 259.737815 24.995691 
L 260.112951 20.608903 
L 260.300519 20.253066 
L 260.488087 21.184635 
L 260.675655 23.468282 
L 261.050791 32.100384 
L 261.801064 59.465999 
L 262.363768 77.149246 
L 262.738904 83.928637 
L 263.11404 86.443938 
L 263.301608 86.26824 
L 263.489177 85.308808 
L 263.864313 81.72976 
L 264.802153 71.232001 
L 264.989721 70.120379 
L 265.177289 69.681465 
L 265.364857 70.074514 
L 265.552425 71.439639 
L 265.927562 77.263106 
L 266.677834 96.547451 
L 268.553515 144.988706 
L 269.303787 159.046467 
L 269.866491 165.459049 
L 270.616764 170.873713 
L 271.179468 173.744327 
L 271.742172 175.524731 
L 272.680013 177.505443 
L 273.805421 179.327612 
L 274.368125 181.613269 
L 275.305966 185.811259 
L 275.86867 187.543945 
L 276.431374 188.593054 
L 276.994079 189.15166 
L 277.369215 189.270699 
L 277.744351 189.115356 
L 278.307055 188.725664 
L 278.682191 188.795782 
L 279.432464 189.514639 
L 280.557872 190.616309 
L 281.120576 190.800637 
L 282.245985 190.901524 
L 282.808689 191.175532 
L 283.183825 191.142754 
L 283.558961 190.779908 
L 284.871938 188.722468 
L 285.247074 188.668863 
L 285.997347 188.80659 
L 287.122755 188.716552 
L 287.873027 188.554646 
L 288.6233 188.255496 
L 289.186004 188.298882 
L 289.748708 188.578721 
L 290.123844 188.916724 
L 290.686549 189.810388 
L 291.249253 190.731125 
L 291.624389 191.001956 
L 291.999525 190.867107 
L 292.749797 190.041665 
L 293.875206 188.68533 
L 294.43791 188.562032 
L 294.813046 188.607831 
L 295.188183 188.917685 
L 296.313591 190.398494 
L 296.688727 190.417139 
L 297.251431 190.071744 
L 298.751976 188.787569 
L 299.31468 188.043059 
L 299.877385 187.267345 
L 300.252521 187.129824 
L 300.815225 187.322536 
L 301.565497 187.783556 
L 302.31577 188.330807 
L 303.441178 188.732945 
L 305.691995 190.415117 
L 306.254699 190.443889 
L 307.004972 190.252448 
L 307.380108 190.475379 
L 308.13038 191.155858 
L 308.693085 191.274566 
L 309.818493 191.432953 
L 310.381197 191.39707 
L 311.506606 190.900007 
L 312.06931 190.442569 
L 312.632014 190.008381 
L 313.194719 189.890474 
L 313.757423 190.094956 
L 315.257967 190.919407 
L 315.633104 190.753652 
L 316.195808 190.167479 
L 317.696353 188.216225 
L 318.259057 188.070739 
L 318.821761 188.154168 
L 319.196897 188.466818 
L 320.134738 189.625472 
L 320.509874 189.763072 
L 320.88501 189.599086 
L 321.260146 189.14615 
L 322.010418 187.778534 
L 322.948259 185.868205 
L 323.323395 185.627392 
L 323.698531 185.778192 
L 324.448803 186.295748 
L 324.82394 186.33448 
L 325.386644 186.127316 
L 325.949348 185.94302 
L 326.512052 186.048989 
L 327.637461 186.648444 
L 328.012597 186.538072 
L 328.762869 186.157163 
L 329.513142 185.867628 
L 329.888278 185.431368 
L 330.826118 183.67613 
L 331.763959 182.258877 
L 332.326663 181.648512 
L 332.889367 181.450775 
L 333.63964 181.423844 
L 334.014776 181.623061 
L 336.828297 184.125399 
L 337.203433 184.144216 
L 337.578569 183.908131 
L 338.51641 182.897736 
L 338.891546 182.31217 
L 339.45425 180.878539 
L 340.016954 178.724562 
L 340.767227 174.977298 
L 341.517499 170.050023 
L 342.455339 162.697849 
L 343.205612 154.935002 
L 343.955884 144.76954 
L 344.706156 131.058491 
L 345.456429 112.274638 
L 346.769405 76.434881 
L 347.144542 72.953079 
L 347.33211 73.200252 
L 347.519678 74.705812 
L 347.894814 80.704029 
L 349.958063 122.631226 
L 350.708335 132.900973 
L 351.271039 137.895719 
L 351.646176 139.361187 
L 351.833744 139.464899 
L 352.021312 139.179143 
L 352.396448 137.563482 
L 352.771584 134.65647 
L 353.334288 127.94385 
L 354.084561 115.259221 
L 354.834833 98.739716 
L 355.772673 72.872896 
L 356.710514 48.122884 
L 357.08565 43.950616 
L 357.273218 44.200503 
L 357.460786 46.213305 
L 357.835922 55.245602 
L 358.586195 84.789591 
L 359.524035 118.783799 
L 360.274307 136.860245 
L 361.02458 149.822616 
L 361.774852 159.892486 
L 362.337556 165.424261 
L 363.087829 170.487776 
L 364.213237 176.32487 
L 364.963509 178.837223 
L 365.90135 181.124638 
L 367.026758 183.382859 
L 367.401894 183.771226 
L 367.777031 183.80241 
L 368.714871 183.522182 
L 369.277575 183.386848 
L 369.652711 183.261133 
L 370.027848 183.386597 
L 370.402984 183.841099 
L 371.153256 185.223197 
L 371.903528 186.631608 
L 372.466233 187.15767 
L 373.028937 187.484706 
L 373.404073 187.437984 
L 374.154345 187.045992 
L 374.529482 187.280873 
L 374.904618 187.534287 
L 375.279754 187.453052 
L 375.842458 187.052509 
L 376.217594 187.15822 
L 376.780299 187.87073 
L 377.155435 188.276925 
L 377.343003 188.329115 
L 377.718139 188.041904 
L 378.468411 187.028412 
L 378.843548 186.904578 
L 379.406252 186.926932 
L 380.156524 186.603644 
L 380.719228 186.378542 
L 381.094365 186.480256 
L 381.469501 186.986785 
L 382.219773 188.310088 
L 382.594909 188.532275 
L 383.345182 188.487547 
L 383.720318 188.386921 
L 384.095454 188.032079 
L 384.47059 187.313939 
L 385.220862 185.046775 
L 385.971135 183.066246 
L 386.908975 181.226599 
L 387.284111 180.834349 
L 387.659247 180.879897 
L 388.221952 181.475776 
L 389.34736 182.888413 
L 390.285201 184.378644 
L 391.223041 185.106965 
L 391.785745 185.629143 
L 393.848994 186.701749 
L 394.599267 186.597951 
L 394.974403 186.30528 
L 395.349539 185.640298 
L 396.287379 183.629102 
L 396.662515 183.256276 
L 397.037652 183.154984 
L 397.600356 183.327176 
L 398.350628 183.594326 
L 399.1009 183.595511 
L 400.038741 183.402141 
L 400.601445 183.574951 
L 401.351717 184.078833 
L 401.914422 184.716705 
L 402.852262 186.324085 
L 403.414966 187.062926 
L 403.790103 187.084298 
L 404.165239 186.821203 
L 404.540375 186.338665 
L 405.853351 184.180577 
L 406.228488 183.991641 
L 406.791192 184.015339 
L 407.166328 184.052586 
L 407.541464 183.838252 
L 408.666873 182.689615 
L 410.354985 181.785189 
L 412.418234 180.502791 
L 412.980939 180.297339 
L 413.356075 179.871631 
L 413.918779 178.626457 
L 415.231756 175.160203 
L 415.79446 173.792558 
L 416.357164 171.494173 
L 417.107436 167.080711 
L 417.857709 161.672568 
L 418.420413 156.115716 
L 419.170685 146.261113 
L 419.920958 132.663819 
L 420.67123 115.21309 
L 421.233934 97.178039 
L 422.171775 56.752528 
L 422.734479 36.619039 
L 422.922047 33.496921 
L 423.109615 32.767081 
L 423.297183 34.405543 
L 423.672319 43.4433 
L 425.735568 110.595755 
L 426.673409 132.00664 
L 427.236113 140.411023 
L 427.611249 143.615194 
L 427.986385 144.906871 
L 428.173953 144.896036 
L 428.361521 144.488068 
L 428.736658 142.615292 
L 429.111794 139.501498 
L 429.674498 132.58925 
L 430.42477 119.568167 
L 431.925315 87.737921 
L 432.675587 72.569237 
L 432.863155 70.472837 
L 433.050723 69.718935 
L 433.238292 70.586312 
L 433.42586 73.202529 
L 433.800996 83.147942 
L 435.30154 133.416469 
L 436.051813 148.42357 
L 436.989653 161.863702 
L 437.927494 172.087053 
L 438.490198 176.17104 
L 439.052902 178.496549 
L 440.365879 182.078982 
L 440.928583 183.104334 
L 441.491287 183.624364 
L 442.053991 183.829181 
L 442.804264 184.002836 
L 443.742104 184.508946 
L 444.492377 185.33283 
L 445.055081 186.31715 
L 445.617785 187.340033 
L 445.992921 187.677844 
L 446.368057 187.779754 
L 446.743194 187.684271 
L 447.493466 187.314623 
L 447.868602 187.346206 
L 448.431306 187.627134 
L 448.994011 188.099073 
L 449.931851 189.010493 
L 450.306987 189.133273 
L 450.682123 188.974962 
L 451.619964 188.338724 
L 454.433485 187.901019 
L 454.996189 187.84189 
L 455.558893 187.773646 
L 456.309166 187.965923 
L 457.059438 188.21732 
L 457.434574 188.618791 
L 458.935119 190.85963 
L 459.310255 190.868442 
L 459.872959 190.782155 
L 460.623232 190.937908 
L 461.74864 191.504658 
L 462.311344 191.240729 
L 462.874049 190.745415 
L 463.999457 189.433043 
L 464.562161 189.203742 
L 465.124866 189.16981 
L 466.062706 189.309731 
L 466.437842 189.145578 
L 467.563251 188.304906 
L 468.125955 188.324588 
L 468.501091 188.326748 
L 469.814068 187.823113 
L 470.189204 187.964812 
L 471.127044 188.480969 
L 471.50218 188.363952 
L 472.064885 188.127553 
L 472.440021 188.185992 
L 473.002725 188.364308 
L 473.565429 188.23231 
L 474.128134 188.142602 
L 475.816246 188.264938 
L 476.191383 188.55908 
L 477.879495 190.497822 
L 478.817336 190.875652 
L 479.192472 190.780969 
L 479.942744 190.44421 
L 480.31788 190.745879 
L 481.255721 192.211075 
L 481.443289 192.211135 
L 481.818425 191.758984 
L 482.943834 189.689343 
L 484.069242 188.430326 
L 484.444378 188.367896 
L 484.819514 188.604262 
L 485.382219 189.366766 
L 485.944923 190.139965 
L 486.320059 190.349719 
L 486.695195 190.240953 
L 487.820604 189.365963 
L 489.321148 189.25802 
L 489.696285 189.533659 
L 490.258989 190.488161 
L 491.009261 191.848544 
L 491.384397 191.994948 
L 491.759533 191.691364 
L 492.884942 190.328237 
L 494.01035 189.907574 
L 494.385487 189.92109 
L 494.948191 190.31232 
L 495.323327 190.508214 
L 495.886031 190.460722 
L 497.01144 190.085742 
L 498.511984 188.764119 
L 499.074689 188.524453 
L 499.449825 188.649622 
L 500.762801 189.414883 
L 502.263346 190.228033 
L 503.576323 191.342461 
L 504.889299 191.154444 
L 505.639572 191.507525 
L 506.014708 191.416299 
L 506.577412 190.96557 
L 507.327684 190.392818 
L 508.077957 189.896832 
L 509.015797 188.747093 
L 509.766069 187.64918 
L 510.70391 186.003652 
L 511.079046 185.880515 
L 511.64175 186.108146 
L 512.204454 186.574377 
L 513.517431 187.925448 
L 514.080135 188.028912 
L 515.393112 188.118859 
L 515.768248 188.539273 
L 516.706088 189.925373 
L 517.081225 189.915035 
L 517.643929 189.334261 
L 518.206633 188.8682 
L 518.581769 188.944094 
L 518.956905 189.330668 
L 519.707178 190.195626 
L 520.082314 190.217816 
L 520.832586 189.832845 
L 523.833676 188.001002 
L 524.771516 187.7831 
L 525.146652 187.68374 
L 525.521788 187.806965 
L 526.272061 188.405673 
L 526.834765 189.168954 
L 527.772605 190.626982 
L 528.147742 190.808822 
L 528.710446 190.677906 
L 529.27315 190.414646 
L 529.835854 189.77101 
L 530.586127 188.849053 
L 530.961263 188.610744 
L 531.336399 188.575764 
L 531.899103 188.859075 
L 532.461807 189.155044 
L 532.836944 189.147181 
L 534.14992 188.774031 
L 534.525056 188.968224 
L 535.087761 189.595495 
L 535.650465 190.138511 
L 536.213169 190.250951 
L 537.151009 190.28255 
L 537.713714 190.579235 
L 538.276418 191.135912 
L 539.401826 192.738119 
L 539.776963 192.692841 
L 540.152099 192.369906 
L 540.714803 191.470566 
L 541.277507 190.568452 
L 541.652643 190.39636 
L 542.02778 190.73872 
L 542.778052 191.718076 
L 543.153188 191.711779 
L 543.715892 191.183163 
L 544.466165 190.617974 
L 545.779141 189.670843 
L 546.341846 189.722138 
L 547.279686 189.955795 
L 549.530503 189.675225 
L 550.468343 189.321984 
L 550.84348 189.389372 
L 551.406184 189.869457 
L 551.968888 190.372885 
L 552.344024 190.480602 
L 552.906728 190.351657 
L 553.469433 189.938974 
L 554.032137 189.229562 
L 554.782409 188.191971 
L 555.157545 187.974833 
L 555.532682 187.962698 
L 557.783499 188.611461 
L 558.158635 188.81296 
L 558.533771 188.762703 
L 558.908907 188.362806 
L 559.659179 187.269248 
L 560.034316 187.166745 
L 560.409452 187.426162 
L 561.53486 188.662651 
L 562.660269 190.23656 
L 563.410541 190.77728 
L 563.973245 190.960967 
L 564.348382 190.819439 
L 564.723518 190.36214 
L 566.224062 187.715397 
L 566.786767 187.4725 
L 567.161903 187.496098 
L 567.537039 187.724767 
L 568.850016 189.076269 
L 569.41272 190.081661 
L 570.35056 191.872598 
L 570.725696 191.973723 
L 571.851105 191.688068 
L 572.413809 191.049948 
L 572.976513 190.437951 
L 573.726786 190.095744 
L 574.477058 189.923996 
L 575.039762 190.06968 
L 575.602466 190.414265 
L 576.352739 191.237173 
L 576.915443 191.734457 
L 577.665715 192.100324 
L 578.040852 192.080852 
L 578.603556 191.697351 
L 580.1041 190.43665 
L 580.479237 190.098863 
L 581.041941 189.13868 
L 581.792213 187.799247 
L 582.354917 187.344509 
L 584.04303 186.834468 
L 584.418166 186.910777 
L 584.793303 187.291689 
L 585.543575 188.572192 
L 586.106279 189.42638 
L 587.419256 190.765538 
L 588.169528 191.950362 
L 588.732232 192.340508 
L 589.294937 192.395351 
L 589.670073 192.259842 
L 590.045209 191.852095 
L 590.983049 190.420901 
L 592.108458 189.720873 
L 593.421434 187.638515 
L 593.796571 187.646498 
L 594.171707 187.95448 
L 594.734411 188.979266 
L 595.672251 190.93368 
L 596.047388 191.310298 
L 596.234956 191.30248 
L 596.610092 190.959769 
L 597.172796 190.042404 
L 598.110636 188.260855 
L 598.485773 187.897325 
L 598.860909 187.77324 
L 600.73659 187.870086 
L 601.861998 188.770891 
L 602.61227 189.404048 
L 602.987407 189.38202 
L 603.737679 188.974813 
L 605.050656 188.124658 
L 605.61336 187.980918 
L 605.988496 188.105689 
L 606.5512 188.584782 
L 608.239313 190.370426 
L 608.614449 190.413765 
L 609.364721 190.131713 
L 609.927426 189.686705 
L 610.677698 188.822902 
L 611.052834 188.783558 
L 612.178243 189.309497 
L 612.740947 189.137635 
L 613.678787 188.683081 
L 614.053923 188.841399 
L 614.616628 189.500326 
L 615.554468 190.667582 
L 616.117172 190.836515 
L 617.430149 191.131194 
L 618.180421 191.059744 
L 618.930694 191.039742 
L 620.056102 190.693681 
L 620.806374 190.554787 
L 622.869623 189.758245 
L 624.370168 188.404499 
L 624.745304 188.576171 
L 625.683145 189.335943 
L 626.808553 189.504901 
L 627.371257 190.203965 
L 627.933962 190.812608 
L 628.309098 190.818991 
L 628.871802 190.422058 
L 629.434506 189.766093 
L 630.184779 188.51271 
L 632.623164 183.560779 
L 633.748572 182.103242 
L 634.311276 180.383864 
L 635.249117 177.625875 
L 635.811821 175.946268 
L 636.374525 173.317591 
L 637.124798 168.114776 
L 638.062638 159.828884 
L 638.81291 151.06996 
L 641.063727 120.742967 
L 641.438864 118.613379 
L 641.626432 118.260255 
L 641.814 118.424593 
L 642.001568 119.116645 
L 642.376704 122.054732 
L 642.939408 129.691011 
L 645.002657 162.675786 
L 646.128066 175.022304 
L 646.69077 179.17248 
L 647.253474 181.939776 
L 647.816178 183.75449 
L 648.191315 184.394637 
L 648.754019 184.765315 
L 649.316723 185.125087 
L 650.066995 185.924945 
L 651.755108 188.263258 
L 652.317812 188.644992 
L 652.880517 188.767017 
L 653.630789 188.918851 
L 654.756197 189.612274 
L 655.50647 190.325219 
L 656.069174 190.880167 
L 656.44431 190.850468 
L 656.819446 190.460135 
L 658.882695 187.779662 
L 659.257831 187.864193 
L 660.195672 188.701768 
L 661.133512 188.779233 
L 661.508648 189.286264 
L 662.258921 190.44595 
L 663.009193 191.154019 
L 663.384329 191.277562 
L 663.947034 191.106732 
L 664.509738 191.032506 
L 665.26001 191.071508 
L 666.010282 190.705663 
L 667.135691 190.128424 
L 668.073531 190.044268 
L 669.386508 189.382114 
L 670.699485 189.532637 
L 672.762733 189.030889 
L 673.325438 188.772344 
L 673.888142 188.51915 
L 674.638414 188.358963 
L 675.763823 187.735263 
L 676.701663 187.432607 
L 677.264367 187.678561 
L 678.95248 188.804368 
L 679.702752 188.669805 
L 680.265457 188.6311 
L 681.203297 188.908813 
L 682.328706 188.246089 
L 682.703842 188.398242 
L 683.641682 189.165055 
L 684.391955 189.374439 
L 684.954659 189.858157 
L 685.704931 190.647434 
L 685.892499 190.661995 
L 686.267635 190.350741 
L 686.83034 189.751249 
L 687.205476 189.677752 
L 687.76818 189.876245 
L 688.518452 190.255065 
L 689.831429 190.303812 
L 690.206565 190.181717 
L 691.331974 189.447887 
L 691.894678 189.55607 
L 692.832518 189.98895 
L 693.582791 190.39551 
L 693.957927 190.388443 
L 694.895767 190.071339 
L 695.270903 190.488925 
L 696.208744 192.046773 
L 696.58388 192.101797 
L 697.146584 191.607288 
L 698.084425 190.809112 
L 698.647129 190.269752 
L 699.397401 189.037643 
L 699.772537 188.507542 
L 700.147674 188.372294 
L 700.52281 188.742851 
L 701.835786 190.645971 
L 702.210922 190.962903 
L 702.586059 191.057397 
L 702.961195 190.94185 
L 704.086603 190.202756 
L 704.461739 190.474742 
L 705.774716 191.858882 
L 706.149852 191.785103 
L 706.524988 191.42345 
L 707.462829 190.31347 
L 707.837965 190.256504 
L 708.400669 190.397467 
L 708.775805 190.211001 
L 709.33851 189.822111 
L 709.713646 189.919577 
L 710.651486 190.396094 
L 711.026622 190.269277 
L 711.401759 189.842458 
L 712.152031 188.885247 
L 712.527167 188.847815 
L 713.089871 189.226747 
L 714.027712 189.814339 
L 714.777984 189.973948 
L 715.15312 189.839242 
L 715.715824 189.305215 
L 716.466097 188.595605 
L 717.216369 188.109786 
L 717.779073 188.039135 
L 718.904482 188.029073 
L 719.279618 187.710242 
L 720.217458 186.619719 
L 720.592595 186.420464 
L 720.967731 186.521923 
L 721.342867 186.963963 
L 722.843412 189.368913 
L 723.593684 189.907429 
L 724.719092 190.354173 
L 725.281797 190.775724 
L 725.656933 190.726964 
L 726.219637 190.136528 
L 726.782341 189.598769 
L 727.157477 189.499222 
L 728.282886 189.673284 
L 730.158567 189.937738 
L 730.908839 190.017254 
L 731.659111 190.168434 
L 732.972088 190.113986 
L 733.72236 190.340093 
L 734.097497 190.168878 
L 735.035337 189.205838 
L 736.72345 187.398237 
L 738.411562 186.692782 
L 738.974267 186.311847 
L 739.536971 186.282564 
L 740.474811 186.20385 
L 740.849948 186.12777 
L 741.225084 185.809773 
L 741.787788 185.146176 
L 742.162924 185.06775 
L 742.53806 185.438034 
L 743.100765 186.530675 
L 743.663469 187.579435 
L 744.038605 187.910914 
L 744.976445 188.25213 
L 745.351582 188.281986 
L 745.726718 188.065074 
L 746.101854 187.499226 
L 746.852126 186.146891 
L 747.227262 186.032984 
L 748.352671 186.464045 
L 749.478079 186.120601 
L 750.41592 186.343814 
L 750.791056 186.142069 
L 751.541328 185.556727 
L 751.916464 185.590106 
L 752.854305 186.035853 
L 753.229441 185.985811 
L 753.604577 185.714593 
L 755.480258 183.906856 
L 756.605666 183.556952 
L 757.168371 183.930817 
L 757.731075 184.491464 
L 758.293779 185.482187 
L 758.856483 186.408293 
L 759.23162 186.627792 
L 760.919732 186.765422 
L 762.982981 185.549225 
L 763.733254 185.449447 
L 765.421366 185.302948 
L 767.297047 184.431645 
L 767.672183 184.619301 
L 768.422456 185.113342 
L 768.797592 185.107492 
L 769.172728 184.842181 
L 769.547864 184.268922 
L 770.673273 182.104761 
L 771.423545 181.305423 
L 772.548954 179.581393 
L 772.92409 179.441119 
L 773.299226 179.689964 
L 773.86193 180.568684 
L 774.612202 181.850237 
L 774.987339 182.151439 
L 775.362475 182.201831 
L 776.112747 182.141188 
L 776.487883 182.416249 
L 777.425724 183.512652 
L 777.80086 183.325757 
L 778.7387 182.447937 
L 779.113836 182.55453 
L 780.614381 183.452549 
L 780.989517 183.192961 
L 781.552222 182.731599 
L 781.927358 182.666157 
L 782.490062 182.909889 
L 782.865198 183.047643 
L 783.240334 182.834843 
L 783.61547 182.238876 
L 784.740879 180.132222 
L 785.303583 179.611879 
L 786.241424 179.222133 
L 786.804128 178.976703 
L 787.929536 178.070575 
L 788.679809 177.870841 
L 789.430081 177.574394 
L 790.367921 177.592854 
L 790.743058 177.273481 
L 791.868466 175.887112 
L 792.243602 175.715593 
L 792.618738 175.770432 
L 793.556579 176.161626 
L 794.119283 176.023532 
L 795.057123 175.451675 
L 795.807396 175.039046 
L 796.3701 175.0256 
L 796.745236 175.016246 
L 797.30794 174.697392 
L 798.058213 174.227945 
L 799.746326 173.586497 
L 800.30903 173.750624 
L 801.059302 174.029913 
L 801.434438 173.909055 
L 802.747415 172.982163 
L 803.122551 172.315968 
L 803.872823 170.684517 
L 804.24796 170.298162 
L 804.810664 170.051908 
L 805.936072 169.814903 
L 807.436617 168.351665 
L 807.999321 167.370542 
L 808.749594 165.877078 
L 809.499866 165.035769 
L 810.06257 164.26785 
L 811.000411 162.885938 
L 811.375547 162.657884 
L 812.313387 162.341815 
L 813.438796 161.542234 
L 813.813932 160.842417 
L 816.064749 155.24946 
L 817.002589 154.061015 
L 818.127998 151.834449 
L 819.81611 147.968158 
L 821.316655 146.318671 
L 821.691791 145.302146 
L 822.254495 142.848726 
L 823.192336 138.634871 
L 823.942608 136.375924 
L 824.317744 135.063264 
L 824.692881 133.021555 
L 825.255585 128.436538 
L 826.193425 119.580722 
L 826.380993 118.946267 
L 826.568561 118.993632 
L 826.756129 119.642917 
L 827.318834 123.509247 
L 828.256674 130.122482 
L 828.819378 132.810822 
L 829.382083 134.566496 
L 829.757219 135.26264 
L 830.132355 135.516596 
L 830.507491 135.489179 
L 830.882627 135.217573 
L 832.195604 133.592516 
L 832.945876 133.39328 
L 833.883717 133.449148 
L 834.446421 133.429565 
L 834.821557 133.122203 
L 835.384261 132.108753 
L 836.322102 130.487982 
L 836.697238 130.178951 
L 837.44751 130.000513 
L 837.822646 130.019996 
L 838.197783 130.361034 
L 838.572919 131.141264 
L 839.323191 133.035518 
L 839.510759 133.184206 
L 839.698327 133.13274 
L 840.073463 132.58422 
L 840.4486 132.027513 
L 840.636168 131.993154 
L 840.823736 132.184262 
L 841.38644 133.56518 
L 841.761576 134.235454 
L 841.949144 134.276878 
L 842.136712 134.039761 
L 842.32428 133.452497 
L 842.699417 130.98454 
L 843.074553 126.604059 
L 844.199961 110.894528 
L 844.387529 111.079313 
L 844.575097 112.537849 
L 845.137802 121.297585 
L 845.888074 132.46416 
L 846.450778 137.068594 
L 846.825914 138.640324 
L 847.388619 140.023934 
L 848.138891 141.183212 
L 849.076731 142.366631 
L 849.451868 142.551288 
L 850.389708 142.583578 
L 850.952412 142.302002 
L 851.702685 141.889205 
L 852.077821 141.911929 
L 853.015661 142.106955 
L 853.578365 141.877441 
L 854.14107 141.596875 
L 854.516206 141.627612 
L 854.891342 142.076315 
L 856.204318 144.521917 
L 857.517295 145.17862 
L 858.079999 145.329486 
L 858.455135 145.691707 
L 858.830272 146.441353 
L 860.330816 150.297338 
L 860.705952 150.388246 
L 861.081089 150.144749 
L 861.643793 149.720883 
L 862.018929 149.717615 
L 862.394065 150.013759 
L 862.956769 150.801059 
L 863.519474 151.908015 
L 865.020018 155.352799 
L 866.520563 157.751562 
L 867.083267 158.325503 
L 867.458403 158.478126 
L 868.208676 158.480481 
L 868.583812 158.729722 
L 870.084357 160.205167 
L 870.459493 160.305599 
L 870.834629 160.109243 
L 871.209765 159.544004 
L 872.335174 157.365587 
L 872.897878 156.878011 
L 874.210854 156.344808 
L 874.773559 155.432132 
L 875.523831 154.168106 
L 876.086535 153.209332 
L 876.64924 151.563811 
L 877.211944 149.087998 
L 878.149784 143.724643 
L 878.900057 137.932612 
L 879.837897 128.758925 
L 880.400601 121.175816 
L 880.963305 110.855631 
L 881.713578 92.56605 
L 882.276282 73.680433 
L 882.838986 47.246716 
L 883.401691 9.749265 
L 883.52825 -1 
M 887.768287 -1 
L 888.278461 53.563606 
L 888.841165 93.331512 
L 889.403869 119.235742 
L 889.966573 136.226296 
L 890.716846 151.09042 
L 891.467118 161.126382 
L 892.404958 170.438512 
L 892.967663 174.256571 
L 893.342799 175.782846 
L 893.717935 176.640073 
L 894.280639 177.370692 
L 895.406048 178.676748 
L 896.343888 180.053513 
L 896.906592 180.711222 
L 897.469297 181.955109 
L 898.032001 183.171953 
L 898.407137 183.642461 
L 899.157409 184.297811 
L 899.720114 185.362102 
L 900.470386 186.747715 
L 900.845522 186.982337 
L 902.158499 187.078298 
L 902.908771 187.36872 
L 903.283907 187.269536 
L 904.221748 186.761172 
L 905.159588 186.699242 
L 906.284997 185.885371 
L 906.847701 185.956452 
L 907.410405 186.209477 
L 909.286086 187.549621 
L 911.161767 187.588514 
L 912.099607 187.05943 
L 912.474743 187.246075 
L 913.225016 187.813593 
L 913.975288 187.880135 
L 915.100697 187.960864 
L 916.226105 188.245199 
L 917.351514 188.045839 
L 918.101786 187.846649 
L 918.66449 187.991583 
L 919.789899 188.633006 
L 920.915307 189.409525 
L 921.665579 189.664163 
L 922.228284 190.106332 
L 923.166124 191.353693 
L 923.54126 191.365576 
L 924.479101 191.083592 
L 925.041805 191.233678 
L 925.604509 191.420658 
L 925.979645 191.373054 
L 926.354781 191.14853 
L 926.917486 190.451827 
L 927.48019 189.730596 
L 927.855326 189.566467 
L 928.793167 189.706509 
L 929.355871 188.930757 
L 929.731007 188.550397 
L 930.106143 188.548458 
L 931.231552 188.9931 
L 931.794256 189.160878 
L 932.35696 189.575877 
L 933.669937 190.776931 
L 934.232641 191.031734 
L 934.795345 190.998128 
L 935.358049 190.774065 
L 936.29589 190.170041 
L 936.671026 190.295818 
L 937.608866 191.100429 
L 937.984003 190.999345 
L 938.734275 190.515078 
L 939.296979 190.481455 
L 940.609956 190.708065 
L 941.547796 191.191819 
L 941.922932 191.190557 
L 942.298069 190.970634 
L 943.611045 189.712357 
L 945.486726 188.773747 
L 946.04943 188.349059 
L 946.612134 187.435007 
L 947.925111 185.138975 
L 948.300247 184.739254 
L 948.675383 184.725515 
L 949.05052 185.105679 
L 949.613224 186.154997 
L 950.551064 187.938654 
L 951.864041 189.744079 
L 953.552154 192.097033 
L 953.92729 192.283794 
L 954.302426 192.156764 
L 954.677562 191.682904 
L 955.802971 189.76699 
L 956.553243 189.060258 
L 957.303515 188.759868 
L 958.616492 188.392521 
L 959.929468 188.632562 
L 960.492173 188.205847 
L 961.054877 187.817605 
L 961.430013 187.872733 
L 962.367853 188.30654 
L 962.930558 188.220695 
L 963.493262 187.81065 
L 964.431102 186.898533 
L 964.993807 186.721662 
L 965.556511 186.845717 
L 966.306783 187.046569 
L 967.244624 187.082988 
L 967.994896 187.274815 
L 968.370032 187.07639 
L 968.932736 186.718528 
L 969.307872 186.865125 
L 969.870577 187.285143 
L 970.245713 187.279883 
L 970.808417 187.202632 
L 971.183553 187.411642 
L 972.684098 188.84386 
L 974.184643 189.602114 
L 974.559779 189.40895 
L 975.310051 188.932637 
L 975.685187 188.95992 
L 976.247892 189.377548 
L 976.623028 189.632328 
L 976.998164 189.614112 
L 979.061413 188.512527 
L 979.436549 188.530567 
L 980.186821 189.030994 
L 980.749526 189.258667 
L 981.499798 189.212778 
L 982.25007 188.974129 
L 982.812774 188.872556 
L 983.375479 188.819502 
L 984.313319 188.441752 
L 985.25116 188.046628 
L 985.813864 187.976248 
L 987.501977 188.183476 
L 988.064681 188.222713 
L 988.439817 188.47455 
L 989.190089 189.504558 
L 989.940362 190.478997 
L 990.315498 190.528793 
L 990.878202 190.070165 
L 991.440906 189.724298 
L 992.378747 189.626558 
L 992.941451 189.785445 
L 993.691723 190.214445 
L 994.254428 190.221455 
L 995.0047 190.258812 
L 995.754972 190.328288 
L 996.317676 190.14361 
L 997.067949 189.726945 
L 997.630653 189.795089 
L 998.193357 190.089326 
L 999.131198 190.737995 
L 999.693902 190.818048 
L 1000.069038 190.586831 
L 1001.194447 189.56916 
L 1001.569583 189.511973 
L 1001.944719 189.704206 
L 1002.694991 190.277782 
L 1003.070127 190.181747 
L 1004.195536 189.589775 
L 1004.75824 189.579685 
L 1005.133376 189.632531 
L 1005.508512 189.451144 
L 1006.071217 189.019849 
L 1006.446353 189.060222 
L 1007.009057 189.209802 
L 1007.946898 189.206479 
L 1009.447442 189.830561 
L 1010.385283 189.584784 
L 1010.760419 189.985334 
L 1011.698259 191.389891 
L 1012.073395 191.533368 
L 1012.823668 191.416954 
L 1013.198804 191.775087 
L 1013.761508 192.38162 
L 1014.136644 192.449623 
L 1014.51178 192.189468 
L 1014.886917 191.593042 
L 1015.637189 190.238035 
L 1016.012325 190.001163 
L 1016.387461 190.162171 
L 1017.325302 191.02148 
L 1017.700438 190.979495 
L 1018.075574 190.669777 
L 1019.013414 189.742825 
L 1019.763687 189.337904 
L 1020.326391 189.369596 
L 1021.4518 189.64141 
L 1022.952344 189.576057 
L 1023.515048 189.581326 
L 1023.890185 189.775243 
L 1024.640457 190.253609 
L 1025.015593 190.149484 
L 1025.953434 189.727048 
L 1026.891274 189.249211 
L 1028.391819 188.287237 
L 1029.892363 188.41225 
L 1030.455068 188.374551 
L 1030.830204 188.522329 
L 1031.580476 189.032952 
L 1031.955612 189.004404 
L 1033.081021 188.645792 
L 1033.643725 188.710283 
L 1034.018861 188.708246 
L 1034.393997 188.343713 
L 1034.956701 187.567362 
L 1035.331838 187.382079 
L 1035.706974 187.461525 
L 1036.269678 187.908229 
L 1036.832382 188.770546 
L 1037.395087 189.623587 
L 1038.145359 190.227269 
L 1038.520495 190.388836 
L 1038.895631 190.335767 
L 1039.458335 189.895196 
L 1041.146448 188.294519 
L 1041.709152 187.930218 
L 1042.459425 187.734262 
L 1043.584833 187.766622 
L 1044.147538 187.901238 
L 1044.522674 188.224426 
L 1044.89781 188.852422 
L 1046.398355 191.844883 
L 1046.773491 191.952952 
L 1047.336195 191.622728 
L 1047.898899 191.295407 
L 1048.461603 191.191942 
L 1049.399444 191.202886 
L 1050.149716 190.884812 
L 1051.462693 190.886938 
L 1052.963237 189.982833 
L 1053.901078 189.728023 
L 1054.276214 189.520314 
L 1055.401623 188.527017 
L 1056.527031 188.040559 
L 1057.277303 188.156661 
L 1057.840008 187.858652 
L 1059.152984 186.921767 
L 1059.715688 187.075011 
L 1060.465961 187.423928 
L 1061.028665 187.985664 
L 1061.591369 188.529438 
L 1062.154074 188.652639 
L 1062.716778 188.545071 
L 1063.279482 188.421732 
L 1063.842186 188.672191 
L 1064.967595 189.344692 
L 1065.342731 189.926587 
L 1066.280571 191.883966 
L 1066.655708 192.04934 
L 1067.968684 191.84032 
L 1068.34382 191.947094 
L 1068.718956 192.272162 
L 1069.656797 193.332605 
L 1070.031933 193.428672 
L 1070.594637 193.130018 
L 1071.157341 192.9265 
L 1071.907614 192.845529 
L 1072.470318 192.414545 
L 1073.22059 191.56049 
L 1073.970863 190.648096 
L 1074.721135 189.7298 
L 1075.283839 189.080979 
L 1075.658975 189.042944 
L 1076.409248 189.320808 
L 1076.971952 189.157048 
L 1077.534656 188.995443 
L 1078.847633 189.04703 
L 1080.910882 189.503882 
L 1081.661154 190.043903 
L 1082.03629 189.880648 
L 1083.349267 188.379361 
L 1083.724403 188.340583 
L 1084.099539 188.527116 
L 1085.97522 190.014782 
L 1086.350356 190.076224 
L 1086.725492 189.830095 
L 1087.288197 189.461357 
L 1087.663333 189.494456 
L 1088.788741 189.768851 
L 1089.163877 189.596976 
L 1089.726582 189.226325 
L 1090.289286 189.216165 
L 1090.664422 189.180417 
L 1091.977399 188.73457 
L 1092.540103 188.895477 
L 1094.040648 189.700863 
L 1094.415784 189.702303 
L 1094.79092 189.418731 
L 1095.72876 188.263157 
L 1096.103897 188.258107 
L 1097.229305 188.850413 
L 1097.604441 188.789847 
L 1098.167145 188.317002 
L 1099.66769 186.863563 
L 1100.042826 186.910848 
L 1100.605531 187.412454 
L 1101.355803 188.530859 
L 1102.293643 190.030503 
L 1102.668779 190.298613 
L 1103.231484 190.300961 
L 1103.794188 190.128329 
L 1104.169324 189.815219 
L 1104.919596 189.019303 
L 1105.294733 189.132644 
L 1105.857437 189.571506 
L 1106.232573 189.583405 
L 1107.357981 189.313553 
L 1108.108254 189.21967 
L 1108.48339 189.367543 
L 1110.546639 190.755582 
L 1112.42232 191.168082 
L 1112.797456 190.912816 
L 1115.048273 187.976582 
L 1115.423409 187.764852 
L 1116.173681 187.59974 
L 1117.486658 187.001342 
L 1119.174771 186.842292 
L 1119.737475 187.093246 
L 1120.112611 187.411408 
L 1120.675315 188.289768 
L 1121.23802 189.144025 
L 1122.926132 190.865699 
L 1124.989381 191.617723 
L 1125.552086 191.916222 
L 1125.927222 191.783156 
L 1126.677494 191.216856 
L 1127.615334 190.924787 
L 1128.553175 189.83341 
L 1128.928311 189.433019 
L 1129.303447 189.371327 
L 1129.678583 189.727065 
L 1130.428856 190.704743 
L 1130.803992 190.877138 
L 1131.366696 191.016644 
L 1131.741832 191.315133 
L 1132.492105 192.092332 
L 1132.867241 192.162131 
L 1133.992649 191.878674 
L 1135.118058 191.196303 
L 1136.431034 191.157204 
L 1137.181307 190.698485 
L 1137.556443 190.268685 
L 1138.681851 188.544553 
L 1139.244556 188.124065 
L 1139.619692 188.066783 
L 1139.994828 188.293709 
L 1140.7451 188.867613 
L 1141.682941 189.252094 
L 1142.433213 189.62547 
L 1142.808349 189.530502 
L 1143.183485 189.111758 
L 1144.121326 187.6052 
L 1144.496462 187.480783 
L 1145.059166 187.606773 
L 1145.62187 188.040893 
L 1146.184575 188.788045 
L 1147.122415 190.090425 
L 1147.685119 190.390898 
L 1148.247824 190.393382 
L 1148.998096 190.206437 
L 1150.123504 189.714012 
L 1150.873777 190.167461 
L 1151.061345 190.084774 
L 1151.436481 189.545634 
L 1152.186753 188.222624 
L 1152.374321 188.112175 
L 1152.561889 188.13391 
L 1152.937026 188.493809 
L 1153.687298 189.39844 
L 1154.062434 189.438951 
L 1154.625138 189.082938 
L 1155.375411 188.67336 
L 1156.125683 188.547982 
L 1156.875955 188.646249 
L 1157.626228 189.118815 
L 1158.188932 189.292269 
L 1159.126772 189.316788 
L 1160.627317 189.567259 
L 1161.190021 189.49253 
L 1161.752726 189.181344 
L 1162.690566 188.535423 
L 1163.065702 188.66202 
L 1164.378679 189.441505 
L 1164.941383 189.45321 
L 1166.817064 189.112481 
L 1167.379768 189.396531 
L 1168.317608 190.080563 
L 1168.692745 190.072833 
L 1170.193289 189.538863 
L 1171.13113 189.649438 
L 1171.881402 189.68928 
L 1172.256538 189.850156 
L 1172.631674 190.274043 
L 1173.569515 191.835261 
L 1173.944651 192.018039 
L 1174.319787 191.921229 
L 1175.257627 191.421405 
L 1175.820332 191.476193 
L 1176.758172 191.579149 
L 1177.320876 191.356449 
L 1178.633853 190.646169 
L 1179.571693 190.172192 
L 1180.321966 189.677113 
L 1180.697102 189.652118 
L 1181.259806 189.687317 
L 1181.634942 189.395497 
L 1182.197647 188.384466 
L 1182.760351 187.500797 
L 1183.135487 187.296581 
L 1183.698191 187.353542 
L 1184.260895 187.715704 
L 1184.8236 188.32798 
L 1184.8236 188.32798 
" clip-path="url(#pc36bae7447)" style="fill: none; stroke: #000000; stroke-width: 2; stroke-linecap: square"/>
   </g>
   <g id="patch_3">
    <path d="M 3.00024 198.907885 
L 1184.99976 198.907885 
" style="fill: none; stroke: #000000; stroke-width: 2; stroke-linejoin: miter; stroke-linecap: square"/>
   </g>
  </g>
 </g>
 <defs>
  <clipPath id="pc36bae7447">
   <rect x="3.00024" y="3.00024" width="1181.99952" height="195.907645"/>
  </clipPath>
 </defs>
</svg>
