<?xml version="1.0" encoding="utf-8" standalone="no"?>
<!DOCTYPE svg PUBLIC "-//W3C//DTD SVG 1.1//EN"
  "http://www.w3.org/Graphics/SVG/1.1/DTD/svg11.dtd">
<svg xmlns:xlink="http://www.w3.org/1999/xlink" width="1188pt" height="252pt" viewBox="0 0 1188 252" xmlns="http://www.w3.org/2000/svg" version="1.1">
 <metadata>
  <rdf:RDF xmlns:dc="http://purl.org/dc/elements/1.1/" xmlns:cc="http://creativecommons.org/ns#" xmlns:rdf="http://www.w3.org/1999/02/22-rdf-syntax-ns#">
   <cc:Work>
    <dc:type rdf:resource="http://purl.org/dc/dcmitype/StillImage"/>
    <dc:date>2024-05-13T18:25:47.920733</dc:date>
    <dc:format>image/svg+xml</dc:format>
    <dc:creator>
     <cc:Agent>
      <dc:title>Matplotlib v3.8.0, https://matplotlib.org/</dc:title>
     </cc:Agent>
    </dc:creator>
   </cc:Work>
  </rdf:RDF>
 </metadata>
 <defs>
  <style type="text/css">*{stroke-linejoin: round; stroke-linecap: butt}</style>
 </defs>
 <g id="figure_1">
  <g id="patch_1">
   <path d="M 0 252 
L 1188 252 
L 1188 0 
L 0 0 
z
" style="fill: #ffffff"/>
  </g>
  <g id="axes_1">
   <g id="patch_2">
    <path d="M 3.00024 198.907885 
L 1184.99976 198.907885 
L 1184.99976 3.00024 
L 3.00024 3.00024 
z
" style="fill: #ffffff"/>
   </g>
   <g id="matplotlib.axis_1">
    <g id="xtick_1">
     <g id="line2d_1">
      <defs>
       <path id="m5817aa33f8" d="M 0 0 
L 0 8 
" style="stroke: #000000; stroke-width: 2"/>
      </defs>
      <g>
       <use xlink:href="#m5817aa33f8" x="1135.74978" y="198.907885" style="stroke: #000000; stroke-width: 2"/>
      </g>
     </g>
     <g id="text_1">
      <!-- −1 -->
      <g transform="translate(1125.488374 224.791947) scale(0.18 -0.18)">
       <defs>
        <path id="Arial-BoldMT-2212" d="M 266 1850 
L 266 2672 
L 3469 2672 
L 3469 1850 
L 266 1850 
z
" transform="scale(0.015625)"/>
        <path id="Arial-BoldMT-31" d="M 2519 0 
L 1641 0 
L 1641 3309 
Q 1159 2859 506 2644 
L 506 3441 
Q 850 3553 1253 3867 
Q 1656 4181 1806 4600 
L 2519 4600 
L 2519 0 
z
" transform="scale(0.015625)"/>
       </defs>
       <use xlink:href="#Arial-BoldMT-2212"/>
       <use xlink:href="#Arial-BoldMT-31" x="58.398438"/>
      </g>
     </g>
    </g>
    <g id="xtick_2">
     <g id="line2d_2">
      <g>
       <use xlink:href="#m5817aa33f8" x="1037.24982" y="198.907885" style="stroke: #000000; stroke-width: 2"/>
      </g>
     </g>
     <g id="text_2">
      <!-- 0 -->
      <g transform="translate(1032.244976 224.791947) scale(0.18 -0.18)">
       <defs>
        <path id="Arial-BoldMT-30" d="M 1756 4600 
Q 2422 4600 2797 4125 
Q 3244 3563 3244 2259 
Q 3244 959 2794 391 
Q 2422 -78 1756 -78 
Q 1088 -78 678 436 
Q 269 950 269 2269 
Q 269 3563 719 4131 
Q 1091 4600 1756 4600 
z
M 1756 3872 
Q 1597 3872 1472 3770 
Q 1347 3669 1278 3406 
Q 1188 3066 1188 2259 
Q 1188 1453 1269 1151 
Q 1350 850 1473 750 
Q 1597 650 1756 650 
Q 1916 650 2041 751 
Q 2166 853 2234 1116 
Q 2325 1453 2325 2259 
Q 2325 3066 2244 3367 
Q 2163 3669 2039 3770 
Q 1916 3872 1756 3872 
z
" transform="scale(0.015625)"/>
       </defs>
       <use xlink:href="#Arial-BoldMT-30"/>
      </g>
     </g>
    </g>
    <g id="xtick_3">
     <g id="line2d_3">
      <g>
       <use xlink:href="#m5817aa33f8" x="938.74986" y="198.907885" style="stroke: #000000; stroke-width: 2"/>
      </g>
     </g>
     <g id="text_3">
      <!-- 1 -->
      <g transform="translate(933.745016 224.791947) scale(0.18 -0.18)">
       <use xlink:href="#Arial-BoldMT-31"/>
      </g>
     </g>
    </g>
    <g id="xtick_4">
     <g id="line2d_4">
      <g>
       <use xlink:href="#m5817aa33f8" x="840.2499" y="198.907885" style="stroke: #000000; stroke-width: 2"/>
      </g>
     </g>
     <g id="text_4">
      <!-- 2 -->
      <g transform="translate(835.245056 224.791947) scale(0.18 -0.18)">
       <defs>
        <path id="Arial-BoldMT-32" d="M 3238 816 
L 3238 0 
L 159 0 
Q 209 463 459 877 
Q 709 1291 1447 1975 
Q 2041 2528 2175 2725 
Q 2356 2997 2356 3263 
Q 2356 3556 2198 3714 
Q 2041 3872 1763 3872 
Q 1488 3872 1325 3706 
Q 1163 3541 1138 3156 
L 263 3244 
Q 341 3969 753 4284 
Q 1166 4600 1784 4600 
Q 2463 4600 2850 4234 
Q 3238 3869 3238 3325 
Q 3238 3016 3127 2736 
Q 3016 2456 2775 2150 
Q 2616 1947 2200 1565 
Q 1784 1184 1673 1059 
Q 1563 934 1494 816 
L 3238 816 
z
" transform="scale(0.015625)"/>
       </defs>
       <use xlink:href="#Arial-BoldMT-32"/>
      </g>
     </g>
    </g>
    <g id="xtick_5">
     <g id="line2d_5">
      <g>
       <use xlink:href="#m5817aa33f8" x="741.74994" y="198.907885" style="stroke: #000000; stroke-width: 2"/>
      </g>
     </g>
     <g id="text_5">
      <!-- 3 -->
      <g transform="translate(736.745096 224.791947) scale(0.18 -0.18)">
       <defs>
        <path id="Arial-BoldMT-33" d="M 241 1216 
L 1091 1319 
Q 1131 994 1309 822 
Q 1488 650 1741 650 
Q 2013 650 2198 856 
Q 2384 1063 2384 1413 
Q 2384 1744 2206 1937 
Q 2028 2131 1772 2131 
Q 1603 2131 1369 2066 
L 1466 2781 
Q 1822 2772 2009 2936 
Q 2197 3100 2197 3372 
Q 2197 3603 2059 3740 
Q 1922 3878 1694 3878 
Q 1469 3878 1309 3722 
Q 1150 3566 1116 3266 
L 306 3403 
Q 391 3819 561 4067 
Q 731 4316 1036 4458 
Q 1341 4600 1719 4600 
Q 2366 4600 2756 4188 
Q 3078 3850 3078 3425 
Q 3078 2822 2419 2463 
Q 2813 2378 3048 2084 
Q 3284 1791 3284 1375 
Q 3284 772 2843 347 
Q 2403 -78 1747 -78 
Q 1125 -78 715 280 
Q 306 638 241 1216 
z
" transform="scale(0.015625)"/>
       </defs>
       <use xlink:href="#Arial-BoldMT-33"/>
      </g>
     </g>
    </g>
    <g id="xtick_6">
     <g id="line2d_6">
      <g>
       <use xlink:href="#m5817aa33f8" x="643.24998" y="198.907885" style="stroke: #000000; stroke-width: 2"/>
      </g>
     </g>
     <g id="text_6">
      <!-- 4 -->
      <g transform="translate(638.245136 224.791947) scale(0.18 -0.18)">
       <defs>
        <path id="Arial-BoldMT-34" d="M 1994 0 
L 1994 922 
L 119 922 
L 119 1691 
L 2106 4600 
L 2844 4600 
L 2844 1694 
L 3413 1694 
L 3413 922 
L 2844 922 
L 2844 0 
L 1994 0 
z
M 1994 1694 
L 1994 3259 
L 941 1694 
L 1994 1694 
z
" transform="scale(0.015625)"/>
       </defs>
       <use xlink:href="#Arial-BoldMT-34"/>
      </g>
     </g>
    </g>
    <g id="xtick_7">
     <g id="line2d_7">
      <g>
       <use xlink:href="#m5817aa33f8" x="544.75002" y="198.907885" style="stroke: #000000; stroke-width: 2"/>
      </g>
     </g>
     <g id="text_7">
      <!-- 5 -->
      <g transform="translate(539.745176 224.791947) scale(0.18 -0.18)">
       <defs>
        <path id="Arial-BoldMT-35" d="M 284 1178 
L 1159 1269 
Q 1197 972 1381 798 
Q 1566 625 1806 625 
Q 2081 625 2272 848 
Q 2463 1072 2463 1522 
Q 2463 1944 2273 2155 
Q 2084 2366 1781 2366 
Q 1403 2366 1103 2031 
L 391 2134 
L 841 4519 
L 3163 4519 
L 3163 3697 
L 1506 3697 
L 1369 2919 
Q 1663 3066 1969 3066 
Q 2553 3066 2959 2641 
Q 3366 2216 3366 1538 
Q 3366 972 3038 528 
Q 2591 -78 1797 -78 
Q 1163 -78 763 262 
Q 363 603 284 1178 
z
" transform="scale(0.015625)"/>
       </defs>
       <use xlink:href="#Arial-BoldMT-35"/>
      </g>
     </g>
    </g>
    <g id="xtick_8">
     <g id="line2d_8">
      <g>
       <use xlink:href="#m5817aa33f8" x="446.25006" y="198.907885" style="stroke: #000000; stroke-width: 2"/>
      </g>
     </g>
     <g id="text_8">
      <!-- 6 -->
      <g transform="translate(441.245216 224.791947) scale(0.18 -0.18)">
       <defs>
        <path id="Arial-BoldMT-36" d="M 3247 3459 
L 2397 3366 
Q 2366 3628 2234 3753 
Q 2103 3878 1894 3878 
Q 1616 3878 1423 3628 
Q 1231 3378 1181 2588 
Q 1509 2975 1997 2975 
Q 2547 2975 2939 2556 
Q 3331 2138 3331 1475 
Q 3331 772 2918 347 
Q 2506 -78 1859 -78 
Q 1166 -78 719 461 
Q 272 1000 272 2228 
Q 272 3488 737 4044 
Q 1203 4600 1947 4600 
Q 2469 4600 2811 4308 
Q 3153 4016 3247 3459 
z
M 1256 1544 
Q 1256 1116 1453 883 
Q 1650 650 1903 650 
Q 2147 650 2309 840 
Q 2472 1031 2472 1466 
Q 2472 1913 2297 2120 
Q 2122 2328 1859 2328 
Q 1606 2328 1431 2129 
Q 1256 1931 1256 1544 
z
" transform="scale(0.015625)"/>
       </defs>
       <use xlink:href="#Arial-BoldMT-36"/>
      </g>
     </g>
    </g>
    <g id="xtick_9">
     <g id="line2d_9">
      <g>
       <use xlink:href="#m5817aa33f8" x="347.7501" y="198.907885" style="stroke: #000000; stroke-width: 2"/>
      </g>
     </g>
     <g id="text_9">
      <!-- 7 -->
      <g transform="translate(342.745256 224.791947) scale(0.18 -0.18)">
       <defs>
        <path id="Arial-BoldMT-37" d="M 272 3703 
L 272 4519 
L 3275 4519 
L 3275 3881 
Q 2903 3516 2518 2831 
Q 2134 2147 1932 1376 
Q 1731 606 1734 0 
L 888 0 
Q 909 950 1279 1937 
Q 1650 2925 2269 3703 
L 272 3703 
z
" transform="scale(0.015625)"/>
       </defs>
       <use xlink:href="#Arial-BoldMT-37"/>
      </g>
     </g>
    </g>
    <g id="xtick_10">
     <g id="line2d_10">
      <g>
       <use xlink:href="#m5817aa33f8" x="249.25014" y="198.907885" style="stroke: #000000; stroke-width: 2"/>
      </g>
     </g>
     <g id="text_10">
      <!-- 8 -->
      <g transform="translate(244.245296 224.791947) scale(0.18 -0.18)">
       <defs>
        <path id="Arial-BoldMT-38" d="M 1025 2472 
Q 684 2616 529 2867 
Q 375 3119 375 3419 
Q 375 3931 733 4265 
Q 1091 4600 1750 4600 
Q 2403 4600 2764 4265 
Q 3125 3931 3125 3419 
Q 3125 3100 2959 2851 
Q 2794 2603 2494 2472 
Q 2875 2319 3073 2025 
Q 3272 1731 3272 1347 
Q 3272 713 2867 316 
Q 2463 -81 1791 -81 
Q 1166 -81 750 247 
Q 259 634 259 1309 
Q 259 1681 443 1992 
Q 628 2303 1025 2472 
z
M 1206 3356 
Q 1206 3094 1354 2947 
Q 1503 2800 1750 2800 
Q 2000 2800 2150 2948 
Q 2300 3097 2300 3359 
Q 2300 3606 2151 3754 
Q 2003 3903 1759 3903 
Q 1506 3903 1356 3753 
Q 1206 3603 1206 3356 
z
M 1125 1394 
Q 1125 1031 1311 828 
Q 1497 625 1775 625 
Q 2047 625 2225 820 
Q 2403 1016 2403 1384 
Q 2403 1706 2222 1901 
Q 2041 2097 1763 2097 
Q 1441 2097 1283 1875 
Q 1125 1653 1125 1394 
z
" transform="scale(0.015625)"/>
       </defs>
       <use xlink:href="#Arial-BoldMT-38"/>
      </g>
     </g>
    </g>
    <g id="xtick_11">
     <g id="line2d_11">
      <g>
       <use xlink:href="#m5817aa33f8" x="150.75018" y="198.907885" style="stroke: #000000; stroke-width: 2"/>
      </g>
     </g>
     <g id="text_11">
      <!-- 9 -->
      <g transform="translate(145.745336 224.791947) scale(0.18 -0.18)">
       <defs>
        <path id="Arial-BoldMT-39" d="M 291 1059 
L 1141 1153 
Q 1172 894 1303 769 
Q 1434 644 1650 644 
Q 1922 644 2112 894 
Q 2303 1144 2356 1931 
Q 2025 1547 1528 1547 
Q 988 1547 595 1964 
Q 203 2381 203 3050 
Q 203 3747 617 4173 
Q 1031 4600 1672 4600 
Q 2369 4600 2816 4061 
Q 3263 3522 3263 2288 
Q 3263 1031 2797 475 
Q 2331 -81 1584 -81 
Q 1047 -81 715 205 
Q 384 491 291 1059 
z
M 2278 2978 
Q 2278 3403 2083 3637 
Q 1888 3872 1631 3872 
Q 1388 3872 1227 3680 
Q 1066 3488 1066 3050 
Q 1066 2606 1241 2398 
Q 1416 2191 1678 2191 
Q 1931 2191 2104 2391 
Q 2278 2591 2278 2978 
z
" transform="scale(0.015625)"/>
       </defs>
       <use xlink:href="#Arial-BoldMT-39"/>
      </g>
     </g>
    </g>
    <g id="xtick_12">
     <g id="line2d_12">
      <g>
       <use xlink:href="#m5817aa33f8" x="52.25022" y="198.907885" style="stroke: #000000; stroke-width: 2"/>
      </g>
     </g>
     <g id="text_12">
      <!-- 10 -->
      <g transform="translate(42.240533 224.791947) scale(0.18 -0.18)">
       <use xlink:href="#Arial-BoldMT-31"/>
       <use xlink:href="#Arial-BoldMT-30" x="55.615234"/>
      </g>
     </g>
    </g>
    <g id="text_13">
     <!-- Chemical Shift / ppm -->
     <g transform="translate(504.992813 245.447573) scale(0.18 -0.18)">
      <defs>
       <path id="Arial-BoldMT-43" d="M 3397 1684 
L 4294 1400 
Q 4088 650 3608 286 
Q 3128 -78 2391 -78 
Q 1478 -78 890 545 
Q 303 1169 303 2250 
Q 303 3394 893 4026 
Q 1484 4659 2447 4659 
Q 3288 4659 3813 4163 
Q 4125 3869 4281 3319 
L 3366 3100 
Q 3284 3456 3026 3662 
Q 2769 3869 2400 3869 
Q 1891 3869 1573 3503 
Q 1256 3138 1256 2319 
Q 1256 1450 1568 1081 
Q 1881 713 2381 713 
Q 2750 713 3015 947 
Q 3281 1181 3397 1684 
z
" transform="scale(0.015625)"/>
       <path id="Arial-BoldMT-68" d="M 1334 4581 
L 1334 2897 
Q 1759 3394 2350 3394 
Q 2653 3394 2897 3281 
Q 3141 3169 3264 2994 
Q 3388 2819 3433 2606 
Q 3478 2394 3478 1947 
L 3478 0 
L 2600 0 
L 2600 1753 
Q 2600 2275 2550 2415 
Q 2500 2556 2373 2639 
Q 2247 2722 2056 2722 
Q 1838 2722 1666 2615 
Q 1494 2509 1414 2295 
Q 1334 2081 1334 1663 
L 1334 0 
L 456 0 
L 456 4581 
L 1334 4581 
z
" transform="scale(0.015625)"/>
       <path id="Arial-BoldMT-65" d="M 2381 1056 
L 3256 909 
Q 3088 428 2723 176 
Q 2359 -75 1813 -75 
Q 947 -75 531 491 
Q 203 944 203 1634 
Q 203 2459 634 2926 
Q 1066 3394 1725 3394 
Q 2466 3394 2894 2905 
Q 3322 2416 3303 1406 
L 1103 1406 
Q 1113 1016 1316 798 
Q 1519 581 1822 581 
Q 2028 581 2168 693 
Q 2309 806 2381 1056 
z
M 2431 1944 
Q 2422 2325 2234 2523 
Q 2047 2722 1778 2722 
Q 1491 2722 1303 2513 
Q 1116 2303 1119 1944 
L 2431 1944 
z
" transform="scale(0.015625)"/>
       <path id="Arial-BoldMT-6d" d="M 394 3319 
L 1203 3319 
L 1203 2866 
Q 1638 3394 2238 3394 
Q 2556 3394 2790 3262 
Q 3025 3131 3175 2866 
Q 3394 3131 3647 3262 
Q 3900 3394 4188 3394 
Q 4553 3394 4806 3245 
Q 5059 3097 5184 2809 
Q 5275 2597 5275 2122 
L 5275 0 
L 4397 0 
L 4397 1897 
Q 4397 2391 4306 2534 
Q 4184 2722 3931 2722 
Q 3747 2722 3584 2609 
Q 3422 2497 3350 2280 
Q 3278 2063 3278 1594 
L 3278 0 
L 2400 0 
L 2400 1819 
Q 2400 2303 2353 2443 
Q 2306 2584 2207 2653 
Q 2109 2722 1941 2722 
Q 1738 2722 1575 2612 
Q 1413 2503 1342 2297 
Q 1272 2091 1272 1613 
L 1272 0 
L 394 0 
L 394 3319 
z
" transform="scale(0.015625)"/>
       <path id="Arial-BoldMT-69" d="M 459 3769 
L 459 4581 
L 1338 4581 
L 1338 3769 
L 459 3769 
z
M 459 0 
L 459 3319 
L 1338 3319 
L 1338 0 
L 459 0 
z
" transform="scale(0.015625)"/>
       <path id="Arial-BoldMT-63" d="M 3353 2338 
L 2488 2181 
Q 2444 2441 2289 2572 
Q 2134 2703 1888 2703 
Q 1559 2703 1364 2476 
Q 1169 2250 1169 1719 
Q 1169 1128 1367 884 
Q 1566 641 1900 641 
Q 2150 641 2309 783 
Q 2469 925 2534 1272 
L 3397 1125 
Q 3263 531 2881 228 
Q 2500 -75 1859 -75 
Q 1131 -75 698 384 
Q 266 844 266 1656 
Q 266 2478 700 2936 
Q 1134 3394 1875 3394 
Q 2481 3394 2839 3133 
Q 3197 2872 3353 2338 
z
" transform="scale(0.015625)"/>
       <path id="Arial-BoldMT-61" d="M 1116 2306 
L 319 2450 
Q 453 2931 781 3162 
Q 1109 3394 1756 3394 
Q 2344 3394 2631 3255 
Q 2919 3116 3036 2902 
Q 3153 2688 3153 2116 
L 3144 1091 
Q 3144 653 3186 445 
Q 3228 238 3344 0 
L 2475 0 
Q 2441 88 2391 259 
Q 2369 338 2359 363 
Q 2134 144 1878 34 
Q 1622 -75 1331 -75 
Q 819 -75 523 203 
Q 228 481 228 906 
Q 228 1188 362 1408 
Q 497 1628 739 1745 
Q 981 1863 1438 1950 
Q 2053 2066 2291 2166 
L 2291 2253 
Q 2291 2506 2166 2614 
Q 2041 2722 1694 2722 
Q 1459 2722 1328 2630 
Q 1197 2538 1116 2306 
z
M 2291 1594 
Q 2122 1538 1756 1459 
Q 1391 1381 1278 1306 
Q 1106 1184 1106 997 
Q 1106 813 1243 678 
Q 1381 544 1594 544 
Q 1831 544 2047 700 
Q 2206 819 2256 991 
Q 2291 1103 2291 1419 
L 2291 1594 
z
" transform="scale(0.015625)"/>
       <path id="Arial-BoldMT-6c" d="M 459 0 
L 459 4581 
L 1338 4581 
L 1338 0 
L 459 0 
z
" transform="scale(0.015625)"/>
       <path id="Arial-BoldMT-20" transform="scale(0.015625)"/>
       <path id="Arial-BoldMT-53" d="M 231 1491 
L 1131 1578 
Q 1213 1125 1461 912 
Q 1709 700 2131 700 
Q 2578 700 2804 889 
Q 3031 1078 3031 1331 
Q 3031 1494 2936 1608 
Q 2841 1722 2603 1806 
Q 2441 1863 1863 2006 
Q 1119 2191 819 2459 
Q 397 2838 397 3381 
Q 397 3731 595 4036 
Q 794 4341 1167 4500 
Q 1541 4659 2069 4659 
Q 2931 4659 3367 4281 
Q 3803 3903 3825 3272 
L 2900 3231 
Q 2841 3584 2645 3739 
Q 2450 3894 2059 3894 
Q 1656 3894 1428 3728 
Q 1281 3622 1281 3444 
Q 1281 3281 1419 3166 
Q 1594 3019 2269 2859 
Q 2944 2700 3267 2529 
Q 3591 2359 3773 2064 
Q 3956 1769 3956 1334 
Q 3956 941 3737 597 
Q 3519 253 3119 86 
Q 2719 -81 2122 -81 
Q 1253 -81 787 320 
Q 322 722 231 1491 
z
" transform="scale(0.015625)"/>
       <path id="Arial-BoldMT-66" d="M 75 3319 
L 563 3319 
L 563 3569 
Q 563 3988 652 4194 
Q 741 4400 980 4529 
Q 1219 4659 1584 4659 
Q 1959 4659 2319 4547 
L 2200 3934 
Q 1991 3984 1797 3984 
Q 1606 3984 1523 3895 
Q 1441 3806 1441 3553 
L 1441 3319 
L 2097 3319 
L 2097 2628 
L 1441 2628 
L 1441 0 
L 563 0 
L 563 2628 
L 75 2628 
L 75 3319 
z
" transform="scale(0.015625)"/>
       <path id="Arial-BoldMT-74" d="M 1981 3319 
L 1981 2619 
L 1381 2619 
L 1381 1281 
Q 1381 875 1398 808 
Q 1416 741 1477 697 
Q 1538 653 1625 653 
Q 1747 653 1978 738 
L 2053 56 
Q 1747 -75 1359 -75 
Q 1122 -75 931 4 
Q 741 84 652 211 
Q 563 338 528 553 
Q 500 706 500 1172 
L 500 2619 
L 97 2619 
L 97 3319 
L 500 3319 
L 500 3978 
L 1381 4491 
L 1381 3319 
L 1981 3319 
z
" transform="scale(0.015625)"/>
       <path id="Arial-BoldMT-2f" d="M -9 -78 
L 1125 4659 
L 1784 4659 
L 638 -78 
L -9 -78 
z
" transform="scale(0.015625)"/>
       <path id="Arial-BoldMT-70" d="M 434 3319 
L 1253 3319 
L 1253 2831 
Q 1413 3081 1684 3237 
Q 1956 3394 2288 3394 
Q 2866 3394 3269 2941 
Q 3672 2488 3672 1678 
Q 3672 847 3265 386 
Q 2859 -75 2281 -75 
Q 2006 -75 1782 34 
Q 1559 144 1313 409 
L 1313 -1263 
L 434 -1263 
L 434 3319 
z
M 1303 1716 
Q 1303 1156 1525 889 
Q 1747 622 2066 622 
Q 2372 622 2575 867 
Q 2778 1113 2778 1672 
Q 2778 2194 2568 2447 
Q 2359 2700 2050 2700 
Q 1728 2700 1515 2451 
Q 1303 2203 1303 1716 
z
" transform="scale(0.015625)"/>
      </defs>
      <use xlink:href="#Arial-BoldMT-43"/>
      <use xlink:href="#Arial-BoldMT-68" x="72.216797"/>
      <use xlink:href="#Arial-BoldMT-65" x="133.300781"/>
      <use xlink:href="#Arial-BoldMT-6d" x="188.916016"/>
      <use xlink:href="#Arial-BoldMT-69" x="277.832031"/>
      <use xlink:href="#Arial-BoldMT-63" x="305.615234"/>
      <use xlink:href="#Arial-BoldMT-61" x="361.230469"/>
      <use xlink:href="#Arial-BoldMT-6c" x="416.845703"/>
      <use xlink:href="#Arial-BoldMT-20" x="444.628906"/>
      <use xlink:href="#Arial-BoldMT-53" x="472.412109"/>
      <use xlink:href="#Arial-BoldMT-68" x="539.111328"/>
      <use xlink:href="#Arial-BoldMT-69" x="600.195312"/>
      <use xlink:href="#Arial-BoldMT-66" x="627.978516"/>
      <use xlink:href="#Arial-BoldMT-74" x="661.279297"/>
      <use xlink:href="#Arial-BoldMT-20" x="694.580078"/>
      <use xlink:href="#Arial-BoldMT-2f" x="722.363281"/>
      <use xlink:href="#Arial-BoldMT-20" x="750.146484"/>
      <use xlink:href="#Arial-BoldMT-70" x="777.929688"/>
      <use xlink:href="#Arial-BoldMT-70" x="839.013672"/>
      <use xlink:href="#Arial-BoldMT-6d" x="900.097656"/>
     </g>
    </g>
   </g>
   <g id="matplotlib.axis_2"/>
   <g id="line2d_13">
    <path d="M 3.083526 191.86457 
L 3.64623 192.12457 
L 4.208934 192.073072 
L 4.959206 192.02054 
L 5.334343 191.97849 
L 5.709479 191.688847 
L 6.459751 190.966687 
L 7.397592 190.557454 
L 7.960296 190.09203 
L 8.335432 190.058185 
L 9.085704 190.384176 
L 9.46084 190.229084 
L 10.773817 189.062248 
L 11.524089 188.082488 
L 11.899226 187.984674 
L 12.274362 188.231468 
L 13.024634 189.016914 
L 13.39977 189.007681 
L 14.150043 188.702549 
L 14.525179 188.735451 
L 14.900315 188.948237 
L 15.650587 189.595075 
L 16.025723 189.586804 
L 16.40086 189.203581 
L 17.526268 187.493865 
L 18.088972 187.237624 
L 18.464108 187.274875 
L 18.839245 187.645361 
L 20.714925 190.545666 
L 21.090062 190.856363 
L 21.465198 190.830731 
L 22.027902 190.646009 
L 22.403038 190.706376 
L 23.15331 190.974659 
L 23.528447 190.760299 
L 25.216559 188.848389 
L 25.591696 188.475133 
L 25.966832 188.416723 
L 26.341968 188.734372 
L 27.467376 190.33403 
L 27.842513 190.403514 
L 28.217649 190.121673 
L 29.343057 188.792229 
L 29.530625 188.842472 
L 29.905761 189.31064 
L 31.218738 191.841357 
L 31.593874 191.908285 
L 31.96901 191.645457 
L 32.531715 190.880278 
L 33.469555 189.187689 
L 34.407395 187.451828 
L 35.157668 186.599167 
L 35.532804 186.544061 
L 35.90794 186.945029 
L 36.470644 188.20897 
L 37.408485 190.375105 
L 37.783621 190.594608 
L 38.533893 190.394365 
L 39.659302 190.789442 
L 40.409574 190.798454 
L 40.972278 190.852299 
L 41.534983 190.626612 
L 43.7858 189.211312 
L 44.911208 187.99738 
L 45.286344 187.936187 
L 45.66148 188.171016 
L 46.786889 189.328333 
L 47.349593 189.50167 
L 47.724729 189.927737 
L 48.475002 191.012469 
L 48.850138 191.239196 
L 49.225274 191.156865 
L 49.60041 190.789156 
L 49.975546 190.047866 
L 50.538251 188.121079 
L 51.476091 184.578429 
L 51.851227 184.051512 
L 52.038795 184.033176 
L 52.413931 184.300581 
L 53.53934 185.41248 
L 53.914476 185.713625 
L 54.289612 186.295733 
L 55.602589 188.861465 
L 56.352861 189.574495 
L 56.727997 189.744438 
L 58.040974 189.913035 
L 58.603678 190.073888 
L 59.166382 189.841329 
L 59.729087 189.643556 
L 60.104223 189.74345 
L 60.479359 190.171994 
L 61.792336 192.538978 
L 62.35504 192.910881 
L 62.730176 192.863265 
L 63.855584 192.015111 
L 65.543697 192.451906 
L 66.106401 192.72186 
L 66.669106 192.753487 
L 67.044242 192.555643 
L 67.419378 192.045314 
L 68.544787 190.106582 
L 69.107491 189.805846 
L 69.857763 189.556686 
L 70.420467 188.95749 
L 70.983172 188.392112 
L 71.358308 188.355843 
L 71.733444 188.667197 
L 73.046421 190.219214 
L 73.421557 190.268689 
L 73.984261 189.955222 
L 74.546965 189.690847 
L 75.109669 189.868547 
L 76.04751 190.189791 
L 76.797782 190.235495 
L 77.548055 189.947803 
L 77.923191 189.608353 
L 78.298327 188.907735 
L 79.048599 187.10897 
L 79.423735 186.777063 
L 79.798872 186.934027 
L 80.361576 187.268139 
L 80.736712 187.204742 
L 81.111848 186.908909 
L 81.86212 186.229469 
L 82.237257 186.342549 
L 84.675642 188.809642 
L 85.238346 189.411087 
L 85.613482 189.504005 
L 86.363754 189.586148 
L 86.926459 189.71921 
L 87.301595 189.617176 
L 88.239435 189.19412 
L 88.989708 189.009703 
L 89.927548 188.463481 
L 90.302684 188.568226 
L 90.865388 189.15484 
L 91.240525 189.495942 
L 91.615661 189.551003 
L 92.178365 189.229967 
L 92.553501 189.048782 
L 92.928637 189.066741 
L 93.866478 189.314256 
L 94.241614 189.055733 
L 95.367022 187.645848 
L 96.492431 186.139802 
L 96.867567 186.069916 
L 97.242703 186.309401 
L 98.368112 187.402209 
L 98.743248 187.482031 
L 99.681088 187.273464 
L 100.243793 187.614449 
L 100.806497 188.305736 
L 101.556769 189.238712 
L 101.931905 189.452643 
L 102.307041 189.460361 
L 103.244882 188.97541 
L 103.807586 189.10104 
L 104.182722 188.921656 
L 104.745427 188.546996 
L 105.120563 188.662001 
L 105.870835 189.534929 
L 106.996244 190.998958 
L 107.934084 192.552711 
L 108.30922 192.720534 
L 108.684356 192.492935 
L 109.997333 191.038647 
L 110.747605 190.013079 
L 111.122741 189.759959 
L 111.497878 189.773393 
L 112.24815 190.087354 
L 112.623286 189.977798 
L 113.748695 189.175979 
L 115.436807 187.717074 
L 116.562216 187.879858 
L 117.12492 187.861977 
L 117.500056 188.081636 
L 118.06276 188.787592 
L 119.375737 190.911216 
L 119.750873 190.954768 
L 120.313577 190.739713 
L 121.814122 189.758275 
L 123.314667 187.832242 
L 123.689803 187.84431 
L 124.252507 188.155255 
L 124.815211 188.767559 
L 125.565484 189.595212 
L 125.94062 189.629869 
L 127.066028 189.113525 
L 127.628733 189.026082 
L 128.191437 188.65046 
L 128.566573 188.387619 
L 128.941709 188.464534 
L 129.691982 189.363608 
L 130.254686 189.817751 
L 130.629822 189.91323 
L 131.004958 189.822238 
L 131.75523 189.408025 
L 132.130367 189.577103 
L 132.880639 190.384156 
L 133.068207 190.404541 
L 133.255775 190.289262 
L 133.630911 189.669715 
L 134.75632 186.953462 
L 135.131456 186.658143 
L 135.319024 186.719381 
L 135.69416 187.269693 
L 136.632001 189.264962 
L 137.007137 189.531464 
L 137.382273 189.444307 
L 138.507681 188.7844 
L 138.882818 188.850567 
L 139.445522 189.368296 
L 140.008226 189.788881 
L 140.383362 189.691621 
L 140.758498 189.206403 
L 141.696339 187.732641 
L 142.071475 187.418328 
L 142.446611 187.346381 
L 143.009315 187.665342 
L 143.384452 187.852041 
L 143.947156 187.82494 
L 144.50986 187.816338 
L 145.447701 188.114973 
L 145.822837 188.41528 
L 146.948245 189.82679 
L 147.323381 189.745674 
L 147.698518 189.295003 
L 148.261222 188.117717 
L 149.011494 186.443542 
L 149.38663 185.922608 
L 149.949335 185.583541 
L 150.887175 185.151512 
L 151.637447 185.086333 
L 152.012583 184.659961 
L 152.762856 183.200237 
L 153.32556 182.180501 
L 153.700696 181.928018 
L 154.075832 182.049786 
L 154.826105 182.474188 
L 155.388809 182.364703 
L 155.951513 182.169434 
L 156.514217 182.254932 
L 157.26449 182.456229 
L 158.389898 183.246936 
L 158.765034 183.123621 
L 160.453147 182.204481 
L 161.578556 182.380023 
L 162.328828 182.536382 
L 162.703964 182.321028 
L 163.0791 181.726338 
L 164.579645 178.513911 
L 165.517485 177.182191 
L 166.267758 175.732481 
L 167.95587 171.824202 
L 169.643983 166.202755 
L 170.206687 162.785729 
L 170.95696 156.93377 
L 171.707232 149.205046 
L 172.457504 138.335401 
L 173.207777 123.352116 
L 173.770481 107.667622 
L 174.520753 79.430478 
L 175.458594 32.241398 
L 176.021298 8.041953 
L 176.208866 4.030113 
L 176.396434 3.00024 
L 176.584002 5.187742 
L 176.959138 18.462591 
L 177.709411 63.498319 
L 178.459683 103.946232 
L 179.022387 124.566803 
L 179.77266 143.110963 
L 180.522932 155.50462 
L 181.085636 161.737923 
L 181.648341 166.077554 
L 182.398613 170.120052 
L 182.961317 171.983046 
L 183.336453 172.541362 
L 185.024566 174.048156 
L 185.962406 175.097951 
L 186.337543 175.303208 
L 186.712679 175.176934 
L 187.087815 174.571236 
L 187.838087 172.447235 
L 189.338632 167.872203 
L 190.088904 165.131385 
L 190.46404 164.506863 
L 190.651609 164.455059 
L 191.026745 164.675804 
L 191.589449 165.369127 
L 192.152153 166.016426 
L 192.339721 166.045992 
L 192.527289 165.934251 
L 192.902426 165.303688 
L 193.46513 163.681284 
L 194.215402 160.718141 
L 194.965674 156.927216 
L 196.091083 151.019162 
L 197.779196 143.74187 
L 199.842445 132.884313 
L 200.217581 132.302296 
L 200.405149 132.260616 
L 200.592717 132.373378 
L 200.967853 132.995807 
L 201.905693 135.070547 
L 202.093262 135.208999 
L 202.28083 135.173087 
L 202.468398 134.935079 
L 202.843534 133.768918 
L 203.21867 131.664125 
L 203.968942 125.633992 
L 204.531647 121.369104 
L 204.906783 119.70952 
L 205.094351 119.488099 
L 205.281919 119.752617 
L 205.657055 121.70871 
L 207.1576 133.54671 
L 207.345168 133.997811 
L 207.532736 134.099669 
L 207.720304 133.854007 
L 208.09544 132.384601 
L 208.658144 128.357397 
L 209.408417 120.799311 
L 210.908961 103.37047 
L 212.597074 90.916147 
L 213.347347 81.676812 
L 214.285187 70.345403 
L 214.660323 67.441398 
L 214.847891 66.592801 
L 215.035459 66.312587 
L 215.223027 66.723055 
L 215.410595 67.896608 
L 215.785732 72.506922 
L 216.348436 84.010595 
L 218.599253 137.395057 
L 219.349525 148.931281 
L 219.912229 154.479962 
L 220.287366 156.697277 
L 220.662502 157.889472 
L 220.85007 158.105438 
L 221.037638 158.042775 
L 221.225206 157.682498 
L 221.600342 156.114317 
L 223.288455 146.509588 
L 223.663591 145.434791 
L 223.851159 145.169258 
L 224.038727 145.13135 
L 224.226295 145.33686 
L 224.601432 146.450294 
L 224.976568 148.415991 
L 225.539272 152.741701 
L 227.227385 167.037892 
L 227.977657 170.836477 
L 230.60361 181.668312 
L 231.166314 182.769293 
L 231.541451 183.257704 
L 231.916587 183.40998 
L 232.666859 183.339853 
L 234.167404 183.829141 
L 234.54254 183.6114 
L 235.105244 183.263231 
L 235.48038 183.46915 
L 236.418221 184.589665 
L 236.605789 184.544103 
L 236.980925 183.997179 
L 237.731197 182.554394 
L 239.41931 180.108453 
L 242.232831 176.173964 
L 242.607967 175.818024 
L 242.983104 175.816204 
L 244.108512 176.429119 
L 244.483648 176.209629 
L 245.046353 175.315914 
L 246.359329 172.934475 
L 246.922033 170.554526 
L 248.422578 161.864697 
L 249.360418 155.574389 
L 251.611235 138.040907 
L 252.549076 127.585774 
L 253.11178 119.153642 
L 253.674484 107.623712 
L 254.424757 86.92267 
L 256.488006 24.527447 
L 257.05071 14.502925 
L 257.425846 11.766152 
L 257.613414 11.897094 
L 257.800982 13.00173 
L 258.176118 17.669478 
L 259.676663 43.452723 
L 259.864231 44.716066 
L 260.051799 45.199827 
L 260.239367 44.918293 
L 260.614503 42.376945 
L 261.739912 30.615665 
L 261.92748 30.13018 
L 262.115048 30.476061 
L 262.302616 31.714526 
L 262.677752 36.890861 
L 263.240457 50.547276 
L 264.178297 82.823205 
L 265.116137 113.831618 
L 265.86641 132.408705 
L 266.616682 146.063813 
L 267.179386 152.580946 
L 267.929659 157.808063 
L 269.805339 168.26211 
L 270.555612 171.667426 
L 271.118316 173.251668 
L 271.493452 173.735599 
L 271.868588 173.851775 
L 272.993997 173.729428 
L 273.556701 173.986267 
L 274.494542 174.83831 
L 275.057246 175.442246 
L 275.61995 176.477568 
L 276.370222 178.011924 
L 277.308063 179.257997 
L 277.683199 179.341857 
L 278.058335 179.14967 
L 278.808607 178.405649 
L 279.55888 177.668703 
L 280.121584 177.440493 
L 281.246993 177.335085 
L 281.997265 177.385009 
L 282.935105 177.108676 
L 283.310241 176.773056 
L 284.060514 175.548259 
L 285.936195 172.140804 
L 286.498899 171.623894 
L 287.061603 171.288865 
L 287.436739 170.673056 
L 287.811875 169.554414 
L 289.31242 163.407305 
L 290.062692 159.946759 
L 290.812965 155.538627 
L 291.375669 150.75309 
L 292.125941 141.995826 
L 292.688646 132.874787 
L 293.25135 120.456376 
L 294.001622 98.609739 
L 294.751895 69.158644 
L 295.877303 22.014702 
L 296.064871 18.50243 
L 296.252439 17.472356 
L 296.440007 19.094123 
L 296.815143 29.630943 
L 297.565416 66.283782 
L 298.315688 100.999663 
L 299.06596 125.203991 
L 299.816233 141.167257 
L 300.566505 151.721412 
L 301.129209 156.91174 
L 301.691914 160.258803 
L 302.254618 162.582956 
L 302.629754 163.481288 
L 303.00489 163.76054 
L 303.380026 163.611613 
L 303.942731 163.022463 
L 304.693003 161.980827 
L 305.255707 160.86729 
L 305.818411 159.303075 
L 306.381116 156.883384 
L 306.94382 152.949383 
L 307.694092 145.468187 
L 308.444365 135.660347 
L 309.382205 120.118883 
L 310.132477 103.560375 
L 311.257886 72.247234 
L 311.82059 57.608401 
L 312.195726 51.394878 
L 312.383294 49.779204 
L 312.570862 49.255518 
L 312.75843 49.810902 
L 313.133567 53.734181 
L 313.696271 63.995774 
L 314.821679 85.436898 
L 315.571952 96.468247 
L 316.134656 102.375358 
L 316.509792 104.893708 
L 316.884928 106.057397 
L 317.072496 106.062449 
L 317.260064 105.64953 
L 317.635201 103.517427 
L 318.010337 99.730221 
L 318.573041 91.602109 
L 319.323313 77.335152 
L 320.073586 58.202824 
L 321.198994 22.042245 
L 321.922029 -1 
M 323.543082 -1 
L 324.57522 21.060242 
L 324.950356 25.868348 
L 325.325492 28.516392 
L 325.51306 29.009191 
L 325.700628 28.98088 
L 326.075764 27.923146 
L 326.263332 27.379726 
L 326.450901 27.206955 
L 326.638469 27.626148 
L 327.013605 30.377038 
L 327.763877 37.60912 
L 328.139013 39.112474 
L 328.326581 39.269907 
L 328.514149 39.075405 
L 328.701718 38.51454 
L 329.076854 36.070784 
L 329.45199 31.524602 
L 330.014694 20.57704 
L 330.577398 5.178281 
L 330.765054 -1 
M 345.203846 -1 
L 345.582845 16.915854 
L 346.333117 42.192235 
L 347.08339 60.46624 
L 347.833662 73.244271 
L 348.583934 81.889416 
L 348.95907 84.645515 
L 349.521775 86.797898 
L 349.709343 87.615101 
L 350.084479 91.003459 
L 350.459615 97.626624 
L 352.147728 133.879242 
L 352.898 145.511999 
L 353.460704 151.09135 
L 354.210977 155.764938 
L 354.961249 159.328388 
L 355.523953 161.188632 
L 356.83693 164.623221 
L 358.525043 170.743293 
L 359.462883 175.188313 
L 359.838019 176.081743 
L 361.901268 179.361546 
L 362.463972 179.615745 
L 363.026677 179.558161 
L 364.527221 178.916967 
L 365.277494 178.978868 
L 365.65263 179.179281 
L 366.027766 179.668725 
L 367.153175 181.573958 
L 367.528311 181.69291 
L 367.903447 181.452053 
L 368.466151 181.049043 
L 368.841287 181.118377 
L 369.216423 181.500879 
L 369.779128 182.593544 
L 370.716968 184.506637 
L 371.279672 185.296505 
L 371.842377 185.740271 
L 372.405081 185.949598 
L 373.342921 186.163731 
L 374.093194 186.522356 
L 374.46833 186.474168 
L 375.781306 185.85817 
L 376.531579 185.977649 
L 377.281851 185.830763 
L 377.844555 186.057295 
L 378.407259 186.238247 
L 379.3451 186.273892 
L 379.720236 185.947199 
L 380.845645 184.489653 
L 381.220781 184.38736 
L 381.971053 184.495206 
L 382.721325 184.675852 
L 383.096462 184.567004 
L 383.659166 184.038657 
L 384.409438 183.135201 
L 384.972142 181.933006 
L 385.722415 179.753645 
L 386.285119 177.551552 
L 387.410527 172.744167 
L 387.973232 171.456513 
L 389.09864 169.531286 
L 389.661344 167.807193 
L 390.224049 165.373028 
L 390.786753 161.823902 
L 391.349457 156.578071 
L 391.912161 149.242271 
L 392.662434 136.230718 
L 393.600274 115.610992 
L 394.538115 90.379321 
L 396.226227 38.681966 
L 396.413795 36.682302 
L 396.601364 36.123511 
L 396.788932 36.952405 
L 397.164068 42.232666 
L 397.726772 56.233824 
L 399.039749 92.159333 
L 399.790021 107.549034 
L 400.540293 118.566703 
L 401.102998 123.481882 
L 401.478134 124.918848 
L 401.665702 125.151186 
L 401.85327 125.096392 
L 402.040838 124.750816 
L 402.415974 123.073358 
L 402.79111 119.928796 
L 403.353815 112.92636 
L 404.291655 97.666698 
L 406.167336 63.933665 
L 406.354904 62.831129 
L 406.542472 62.815108 
L 406.73004 63.964095 
L 407.105176 69.671984 
L 407.66788 84.79783 
L 408.980857 123.917676 
L 409.731129 139.668623 
L 410.481402 151.748195 
L 411.231674 160.586926 
L 411.794378 165.248959 
L 412.357082 167.977643 
L 414.045195 173.868056 
L 414.983036 175.663531 
L 415.733308 178.431053 
L 416.296012 180.029984 
L 416.671148 180.483386 
L 417.233853 181.082413 
L 417.796557 182.245198 
L 418.359261 183.338475 
L 418.734397 183.562373 
L 419.109533 183.440001 
L 419.672238 183.226369 
L 420.047374 183.474567 
L 420.985214 184.610173 
L 421.36035 184.69374 
L 421.923055 184.704254 
L 423.611167 185.135724 
L 424.173872 185.226138 
L 424.549008 185.633784 
L 425.486848 187.325729 
L 425.861984 187.476432 
L 426.987393 187.346933 
L 427.737665 187.472024 
L 428.30037 187.579473 
L 429.050642 188.062767 
L 429.800914 188.569201 
L 430.738755 188.849969 
L 431.489027 188.812763 
L 431.864163 188.65191 
L 434.677684 186.288743 
L 435.052821 186.223005 
L 435.427957 186.52893 
L 436.365797 187.821253 
L 436.740933 187.919645 
L 437.116069 187.817228 
L 438.241478 187.233358 
L 438.99175 187.745912 
L 440.492295 188.51611 
L 440.867431 188.568759 
L 441.242567 188.414187 
L 441.805272 187.702177 
L 443.118248 185.91396 
L 443.493384 185.594939 
L 443.680952 185.574152 
L 444.056088 185.87362 
L 445.181497 187.437139 
L 446.306905 188.355817 
L 447.244746 189.389519 
L 447.619882 189.433266 
L 448.182586 189.100754 
L 450.433403 187.306639 
L 450.808539 187.200112 
L 451.183676 187.335171 
L 451.74638 187.660888 
L 452.121516 187.677248 
L 452.68422 187.447757 
L 453.434493 187.154948 
L 453.997197 187.273562 
L 454.559901 187.432392 
L 455.872878 187.571853 
L 456.435582 188.257269 
L 457.936127 190.585005 
L 458.498831 191.502902 
L 458.873967 191.611217 
L 460.749648 190.995824 
L 461.312352 190.687688 
L 462.812897 189.459666 
L 463.375601 189.371118 
L 463.750737 189.01456 
L 464.876146 187.501219 
L 465.251282 187.334715 
L 465.626418 187.451405 
L 466.189122 188.020625 
L 466.939395 188.841886 
L 468.064803 189.652425 
L 468.439939 190.543579 
L 469.37778 193.209718 
L 469.565348 193.369765 
L 469.752916 193.342709 
L 470.128052 192.914763 
L 472.191301 189.811815 
L 472.566437 189.833727 
L 473.879414 190.73756 
L 474.817254 191.317952 
L 475.19239 191.512577 
L 475.567526 191.418067 
L 476.130231 191.212602 
L 476.692935 191.162951 
L 477.068071 190.872957 
L 478.381048 189.179711 
L 478.943752 188.515148 
L 479.318888 188.393003 
L 479.694024 188.6478 
L 480.256728 189.258148 
L 480.631865 189.381691 
L 481.382137 189.452253 
L 481.944841 189.710042 
L 482.507545 190.20433 
L 483.07025 190.772881 
L 483.257818 190.816582 
L 483.445386 190.7136 
L 483.820522 190.072854 
L 485.133499 187.069827 
L 485.508635 187.015812 
L 486.071339 187.124498 
L 486.821611 187.048031 
L 487.196748 187.346842 
L 487.759452 188.444202 
L 488.134588 189.189419 
L 488.509724 189.448956 
L 488.88486 189.162337 
L 489.259996 188.790102 
L 489.635133 188.773268 
L 490.385405 189.241196 
L 491.323245 189.312247 
L 492.073518 189.678206 
L 493.198926 190.485143 
L 493.76163 190.457131 
L 494.136767 190.212256 
L 495.449743 188.832835 
L 497.325424 188.2795 
L 497.888128 188.260552 
L 498.450833 188.509647 
L 499.013537 188.943855 
L 499.763809 189.604822 
L 500.138945 189.488711 
L 501.264354 188.38879 
L 502.202194 188.097443 
L 502.57733 188.109238 
L 503.140035 188.421067 
L 503.890307 189.033898 
L 504.265443 188.88261 
L 505.015715 187.924561 
L 505.57842 187.339469 
L 505.953556 187.273575 
L 507.078964 187.778833 
L 507.454101 187.605612 
L 508.767077 186.512837 
L 509.892486 186.423327 
L 510.267622 186.315558 
L 510.642758 186.436065 
L 511.768166 187.310553 
L 513.456279 189.205492 
L 514.018983 190.099683 
L 515.707096 193.435054 
L 516.082232 193.626487 
L 516.457368 193.583819 
L 517.020073 193.291438 
L 517.582777 192.717036 
L 518.708185 191.31236 
L 519.083322 191.311664 
L 519.458458 191.736482 
L 520.20873 192.773436 
L 520.583866 192.919197 
L 520.959002 192.767064 
L 521.334139 192.319527 
L 522.834683 190.02254 
L 524.335228 188.519843 
L 524.710364 188.425729 
L 525.0855 188.653301 
L 525.835773 189.247237 
L 527.711453 190.314485 
L 528.461726 190.808214 
L 528.836862 190.870655 
L 529.211998 190.766125 
L 529.587134 190.409119 
L 529.96227 189.63524 
L 530.900111 187.261819 
L 531.275247 186.811401 
L 531.650383 186.721286 
L 532.025519 186.893713 
L 532.588224 187.470086 
L 533.713632 189.079635 
L 534.463904 190.146265 
L 535.026609 190.638876 
L 535.401745 190.774474 
L 536.339585 190.833189 
L 536.714721 191.280895 
L 537.277426 192.076973 
L 537.652562 192.310963 
L 538.590402 192.421151 
L 538.965538 192.5869 
L 539.340675 192.52016 
L 540.278515 192.071069 
L 541.028787 191.923734 
L 541.403924 191.668814 
L 541.77906 191.18344 
L 542.904468 189.330615 
L 543.279604 189.05756 
L 543.654741 189.086326 
L 545.155285 189.855842 
L 545.530421 189.758184 
L 546.093126 189.256743 
L 546.843398 188.521507 
L 547.218534 188.208762 
L 547.59367 187.637161 
L 549.094215 184.342501 
L 549.469351 184.203892 
L 549.656919 184.34083 
L 550.032055 185.011661 
L 551.5326 188.810155 
L 551.907736 189.111431 
L 552.282872 189.004157 
L 552.845577 188.801267 
L 553.220713 188.680942 
L 553.595849 188.325633 
L 554.158553 187.763897 
L 554.533689 187.86093 
L 555.659098 188.809778 
L 556.034234 188.81591 
L 556.596938 188.462759 
L 556.972074 188.300235 
L 557.159642 188.369244 
L 557.534779 188.951931 
L 558.847755 192.379926 
L 559.222891 192.659913 
L 559.598028 192.722133 
L 560.160732 192.554089 
L 561.473708 192.042043 
L 562.036413 192.253607 
L 562.599117 192.482259 
L 563.912093 192.503794 
L 565.22507 193.167382 
L 565.600206 193.01125 
L 567.288319 191.546298 
L 568.226159 190.703372 
L 569.164 190.098642 
L 569.726704 189.771657 
L 570.10184 189.380949 
L 570.664544 188.333306 
L 571.227249 187.396467 
L 571.602385 187.286846 
L 573.290498 188.026425 
L 573.665634 188.586439 
L 575.166178 191.43033 
L 575.541315 191.69784 
L 575.916451 191.594389 
L 576.479155 191.002241 
L 577.604564 189.329003 
L 578.91754 187.253327 
L 579.667812 186.590201 
L 580.042949 186.673566 
L 580.418085 187.147626 
L 581.168357 188.677041 
L 581.918629 190.392291 
L 582.293766 190.798168 
L 582.85647 191.000226 
L 583.231606 190.948292 
L 583.606742 190.582969 
L 585.107287 188.488853 
L 585.294855 188.434409 
L 585.669991 188.684629 
L 586.607831 189.893808 
L 586.982968 190.007812 
L 587.358104 189.821068 
L 588.108376 189.255092 
L 589.608921 188.52059 
L 589.984057 188.798887 
L 590.359193 189.598339 
L 591.109465 191.754221 
L 591.484602 192.185353 
L 591.859738 192.159071 
L 593.360282 191.404172 
L 594.485691 191.661752 
L 595.235963 191.471444 
L 595.611099 191.624845 
L 595.986236 192.021405 
L 596.736508 193.008317 
L 597.111644 193.066727 
L 597.48678 192.696417 
L 598.424621 191.402774 
L 598.987325 191.038693 
L 601.613278 190.004529 
L 602.36355 189.671282 
L 602.738687 189.709281 
L 603.864095 190.241406 
L 605.177072 190.456539 
L 605.552208 190.126758 
L 606.114912 189.540476 
L 606.490048 189.421315 
L 607.240321 189.540976 
L 607.990593 189.7333 
L 608.365729 189.569781 
L 609.116001 189.052728 
L 609.491138 189.087522 
L 610.053842 189.236846 
L 610.616546 189.032578 
L 611.17925 188.81221 
L 611.741955 188.91542 
L 612.304659 189.012597 
L 612.679795 188.784094 
L 613.430067 187.815473 
L 614.555476 186.193049 
L 614.743044 186.084085 
L 614.930612 186.108767 
L 615.305748 186.62831 
L 616.618725 189.517107 
L 617.744133 190.672668 
L 618.119269 190.867885 
L 618.494406 190.870083 
L 619.05711 190.765611 
L 619.432246 190.913999 
L 619.99495 191.458017 
L 620.745223 192.590456 
L 621.307927 193.290366 
L 621.683063 193.273999 
L 622.058199 192.865352 
L 622.99604 191.4666 
L 624.121448 190.535093 
L 625.621993 189.395944 
L 626.184697 188.832562 
L 626.559833 188.845534 
L 627.497674 189.290152 
L 628.060378 189.491267 
L 629.185786 190.257915 
L 629.560922 190.522017 
L 630.123627 191.388404 
L 630.686331 192.191491 
L 631.061467 192.345991 
L 631.811739 192.294233 
L 633.499852 192.945219 
L 635.000397 193.22479 
L 635.375533 192.797488 
L 636.68851 190.533396 
L 637.251214 190.080436 
L 637.62635 190.056716 
L 638.189054 190.401576 
L 639.126895 190.996331 
L 640.252303 191.340359 
L 640.627439 191.200508 
L 641.940416 190.34472 
L 642.690688 190.178288 
L 643.065824 190.193972 
L 644.191233 190.619148 
L 645.129073 190.133618 
L 645.50421 189.985737 
L 645.879346 190.133637 
L 646.817186 191.021098 
L 647.37989 191.115433 
L 648.317731 191.177425 
L 648.692867 190.932088 
L 649.443139 190.209252 
L 649.818275 190.166539 
L 650.756116 190.545802 
L 651.506388 190.500995 
L 651.881524 190.267733 
L 652.444229 189.765558 
L 652.819365 189.747033 
L 653.194501 190.021376 
L 653.757205 190.521634 
L 654.132341 190.616332 
L 657.696135 190.192893 
L 658.446407 190.71412 
L 658.821543 190.747294 
L 659.384248 190.541374 
L 660.13452 190.298353 
L 660.697224 190.125672 
L 661.07236 189.774791 
L 662.385337 188.010358 
L 662.760473 187.849805 
L 663.135609 187.964069 
L 663.885882 188.551821 
L 664.823722 189.304567 
L 666.511835 189.884718 
L 668.012379 190.17284 
L 668.762652 190.046806 
L 669.700492 190.06751 
L 670.450765 189.84971 
L 671.013469 189.731792 
L 671.763741 189.914024 
L 672.326445 190.044095 
L 672.701582 189.897742 
L 674.014558 188.885497 
L 674.389694 189.055492 
L 674.952399 189.53755 
L 675.327535 189.469269 
L 675.890239 188.794947 
L 676.452943 188.215758 
L 676.828079 188.265065 
L 677.76592 188.854702 
L 678.891328 189.107211 
L 680.767009 190.396407 
L 681.142145 190.202594 
L 681.70485 189.259104 
L 682.267554 188.299039 
L 682.830258 187.801467 
L 683.58053 187.481393 
L 683.955667 187.581385 
L 684.518371 188.105031 
L 685.081075 188.61988 
L 685.456211 188.654764 
L 686.018915 188.662444 
L 687.144324 189.155692 
L 687.707028 188.69277 
L 688.269732 188.285475 
L 688.832437 188.235857 
L 689.395141 188.192747 
L 690.145413 188.029553 
L 690.520549 188.191173 
L 691.083254 188.903495 
L 691.45839 189.36377 
L 691.833526 189.500942 
L 692.208662 189.226937 
L 692.583798 188.545052 
L 693.521639 186.383793 
L 693.896775 186.11261 
L 694.271911 186.190858 
L 694.834615 186.371523 
L 695.39732 186.121147 
L 695.772456 186.07331 
L 696.147592 186.380776 
L 696.710296 187.315482 
L 697.273 188.185289 
L 697.648137 188.358275 
L 698.210841 188.40461 
L 698.773545 188.774855 
L 699.523817 189.325498 
L 699.898954 189.339374 
L 701.587066 188.607747 
L 701.962202 188.307453 
L 702.337339 188.297713 
L 702.900043 188.767767 
L 703.462747 189.172507 
L 704.025451 189.32594 
L 704.400588 189.279963 
L 706.276268 188.207812 
L 706.838973 187.800088 
L 707.214109 187.946812 
L 707.776813 188.421249 
L 708.151949 188.460184 
L 708.902222 188.212624 
L 709.277358 188.350251 
L 710.215198 189.049204 
L 710.777902 189.380195 
L 710.96547 189.327611 
L 711.340607 188.894132 
L 711.903311 188.119076 
L 712.278447 187.938209 
L 712.653583 188.016366 
L 714.529264 188.864176 
L 714.9044 188.849182 
L 715.467104 188.49765 
L 716.029809 187.801942 
L 716.967649 186.443159 
L 718.280626 185.542414 
L 718.655762 185.442904 
L 719.030898 185.655833 
L 719.78117 186.632699 
L 720.343875 187.738967 
L 721.094147 189.412726 
L 721.469283 189.837499 
L 721.844419 189.939142 
L 722.219555 189.772333 
L 722.969828 189.285392 
L 723.7201 189.121503 
L 724.470372 189.264552 
L 725.220645 189.468132 
L 725.595781 189.862259 
L 726.721189 191.636536 
L 726.908757 191.638773 
L 727.283894 191.225912 
L 727.846598 190.458354 
L 728.409302 190.186722 
L 728.972006 190.120652 
L 729.534711 190.356671 
L 730.284983 190.659416 
L 730.660119 190.639175 
L 731.035255 190.422975 
L 731.973096 189.642438 
L 732.348232 189.778458 
L 733.47364 191.058167 
L 734.036345 191.06097 
L 734.411481 191.069436 
L 734.786617 191.330703 
L 735.161753 191.958814 
L 735.912025 193.53671 
L 736.099594 193.655734 
L 736.287162 193.611987 
L 736.662298 193.16681 
L 737.600138 191.726944 
L 737.975274 191.578972 
L 738.350411 191.52445 
L 738.725547 191.145811 
L 739.663387 189.643094 
L 740.038523 189.451837 
L 740.601228 189.460576 
L 741.726636 189.782431 
L 742.852045 190.303385 
L 743.227181 190.219357 
L 744.165021 189.741799 
L 745.477998 189.676828 
L 746.415838 189.307896 
L 746.978542 189.451401 
L 747.541247 189.533642 
L 748.479087 189.45384 
L 749.041791 189.913172 
L 751.292608 192.315833 
L 751.667744 192.232481 
L 752.042881 191.737263 
L 753.168289 189.658869 
L 753.730993 189.179692 
L 754.10613 189.244708 
L 754.481266 189.682244 
L 755.231538 190.61931 
L 755.794242 190.929318 
L 756.356947 190.938766 
L 758.232627 190.208153 
L 758.795332 189.97718 
L 759.170468 189.990523 
L 759.545604 190.309432 
L 760.671012 192.221083 
L 761.046149 192.326809 
L 761.421285 192.070139 
L 761.983989 191.478636 
L 762.171557 191.430655 
L 762.546693 191.689114 
L 763.296966 192.622903 
L 763.672102 192.623533 
L 764.234806 192.088196 
L 766.298055 189.833656 
L 769.111576 187.941246 
L 769.486712 187.932767 
L 769.861848 188.128147 
L 770.424553 188.859046 
L 770.799689 189.320114 
L 771.174825 189.481208 
L 773.050506 189.327098 
L 773.61321 189.629049 
L 773.988346 189.819305 
L 774.363482 189.784479 
L 774.738619 189.507022 
L 775.301323 188.989156 
L 775.676459 188.868916 
L 776.239163 188.949869 
L 776.801868 189.275086 
L 777.55214 189.789954 
L 778.677548 190.097309 
L 779.052685 190.032631 
L 779.615389 189.622944 
L 780.178093 189.185518 
L 780.553229 189.110046 
L 780.928365 189.257621 
L 782.241342 190.032072 
L 782.616478 190.043016 
L 783.179182 189.959546 
L 783.554319 190.206931 
L 784.304591 191.371511 
L 784.867295 192.108106 
L 785.242431 192.319572 
L 785.617567 192.247469 
L 786.180272 191.771192 
L 786.742976 191.251843 
L 787.493248 190.901723 
L 787.868384 190.886859 
L 788.243521 191.108202 
L 788.806225 191.849264 
L 789.368929 192.541696 
L 789.556497 192.568914 
L 789.931633 192.270188 
L 791.057042 190.611703 
L 792.18245 188.546372 
L 792.745155 188.113374 
L 793.307859 187.9267 
L 793.870563 188.046368 
L 794.808404 188.564955 
L 795.558676 189.057384 
L 795.933812 188.917325 
L 796.496516 188.225772 
L 796.871652 187.814127 
L 797.246789 187.701638 
L 797.809493 187.666623 
L 798.184629 187.313226 
L 799.872742 184.876928 
L 800.623014 183.707263 
L 800.99815 183.534375 
L 801.560854 183.702009 
L 801.935991 183.811455 
L 802.311127 183.728265 
L 803.248967 183.311672 
L 804.186808 183.359802 
L 804.749512 183.352663 
L 805.312216 183.087006 
L 805.687352 182.757875 
L 806.250057 181.833651 
L 808.500874 177.067459 
L 809.063578 175.3755 
L 810.564122 169.391019 
L 811.314395 165.682646 
L 812.252235 159.761107 
L 812.814939 155.087025 
L 813.377644 148.685256 
L 813.940348 139.728736 
L 814.503052 126.041137 
L 815.065756 104.180085 
L 815.816029 60.707096 
L 816.191165 41.44785 
L 816.378733 36.189736 
L 816.566301 34.904598 
L 816.753869 37.544839 
L 817.129005 51.360038 
L 818.254414 100.249173 
L 818.817118 115.42348 
L 819.379822 125.330473 
L 819.754959 129.472429 
L 820.130095 131.769 
L 820.505231 132.732699 
L 820.880367 133.068873 
L 821.255503 133.034476 
L 821.443071 132.817736 
L 821.818207 131.770405 
L 822.193344 129.696458 
L 822.56848 126.4518 
L 823.131184 119.239641 
L 823.693888 108.151624 
L 824.631729 86.915933 
L 824.819297 85.752218 
L 825.006865 86.369451 
L 825.382001 91.847231 
L 826.50741 113.966858 
L 827.070114 121.340507 
L 827.632818 126.262298 
L 828.007954 128.159338 
L 828.570658 129.722636 
L 830.258771 133.295671 
L 830.446339 133.391157 
L 830.821475 133.223873 
L 831.571748 132.576795 
L 832.134452 132.586067 
L 832.697156 132.50804 
L 833.447429 132.317576 
L 834.010133 132.420188 
L 834.385269 132.622974 
L 835.323109 133.472923 
L 835.885814 133.551242 
L 836.26095 133.346571 
L 836.636086 132.73242 
L 837.19879 131.786361 
L 837.386358 131.72219 
L 837.573926 131.843828 
L 837.949063 132.563764 
L 838.699335 134.20085 
L 838.886903 134.308807 
L 839.074471 134.219921 
L 839.262039 133.907605 
L 839.637175 132.633306 
L 840.387448 129.755291 
L 840.575016 129.567336 
L 840.762584 129.681555 
L 841.512856 131.180917 
L 841.700424 131.048817 
L 841.887992 130.442293 
L 842.263128 127.546039 
L 842.638265 122.292996 
L 843.200969 110.194464 
L 843.763673 97.039178 
L 843.951241 95.148439 
L 844.138809 95.700455 
L 844.326377 98.721474 
L 845.639354 130.131602 
L 846.202058 135.634676 
L 846.764762 138.865569 
L 847.327467 140.671486 
L 847.890171 141.773761 
L 848.452875 142.48962 
L 848.828011 142.687139 
L 849.203148 142.474327 
L 849.765852 141.556566 
L 850.328556 140.673443 
L 850.703692 140.460325 
L 851.078828 140.593315 
L 851.641533 141.130018 
L 852.204237 142.035613 
L 852.766941 142.92808 
L 853.142077 143.238674 
L 853.329645 143.27532 
L 853.517213 143.198665 
L 853.89235 142.650766 
L 854.455054 141.5162 
L 854.83019 141.259341 
L 855.205326 141.420285 
L 856.330735 142.329047 
L 857.081007 143.372301 
L 857.643711 144.125334 
L 858.018847 144.356431 
L 858.393984 144.240353 
L 858.76912 143.97497 
L 858.956688 143.954422 
L 859.144256 144.078089 
L 859.519392 144.723867 
L 860.832369 148.065571 
L 861.582641 150.297665 
L 862.520481 153.614759 
L 862.895618 154.045949 
L 863.458322 154.35768 
L 864.021026 155.025143 
L 865.146435 156.437323 
L 865.709139 156.822471 
L 866.271843 157.156336 
L 866.646979 157.688045 
L 867.022115 158.703001 
L 868.147524 162.352347 
L 869.085364 164.273497 
L 869.648069 164.882147 
L 870.398341 165.670988 
L 871.336181 166.745427 
L 872.836726 167.939787 
L 873.39943 167.965068 
L 874.149703 167.995453 
L 874.712407 168.240887 
L 875.087543 168.831272 
L 876.212951 171.730609 
L 879.214041 180.966842 
L 879.589177 181.246211 
L 879.964313 181.163158 
L 881.089722 180.507158 
L 881.652426 180.770981 
L 882.21513 180.888951 
L 882.777834 180.973526 
L 885.028651 182.048252 
L 885.591356 182.028576 
L 885.966492 182.239971 
L 886.341628 182.72379 
L 887.0919 183.879534 
L 887.654605 184.339159 
L 888.404877 184.789388 
L 889.342717 185.66677 
L 889.717853 185.648642 
L 890.09299 185.370514 
L 891.218398 184.167194 
L 891.593534 184.254181 
L 892.906511 185.238577 
L 893.656783 186.104632 
L 894.96976 187.951357 
L 895.344896 188.090011 
L 895.720032 187.778241 
L 896.845441 186.083642 
L 897.595713 185.904713 
L 898.345985 185.836557 
L 898.90869 185.753842 
L 899.471394 185.695802 
L 899.84653 185.929767 
L 900.78437 186.659073 
L 901.159507 186.665965 
L 901.722211 186.323654 
L 902.097347 186.137579 
L 902.472483 186.234313 
L 904.160596 187.589623 
L 905.286004 187.935862 
L 905.848709 187.80871 
L 906.598981 187.401845 
L 907.161685 186.780132 
L 908.474662 185.204485 
L 909.037366 184.717779 
L 909.60007 184.589626 
L 910.162774 184.740738 
L 910.537911 185.127791 
L 911.850887 187.175339 
L 912.413591 187.523034 
L 913.351432 187.72396 
L 913.726568 187.624358 
L 915.039545 186.925867 
L 915.414681 187.019044 
L 915.789817 187.394764 
L 916.352521 188.453168 
L 917.102794 189.929714 
L 917.47793 190.322255 
L 917.853066 190.374039 
L 918.228202 190.15172 
L 918.978474 189.34113 
L 919.541179 188.429676 
L 920.291451 187.012776 
L 920.479019 186.893479 
L 920.666587 186.959223 
L 921.041723 187.540551 
L 921.604428 188.595587 
L 921.979564 188.956586 
L 922.3547 189.012759 
L 923.667676 188.740594 
L 924.042813 189.056214 
L 925.168221 190.416674 
L 925.355789 190.365944 
L 925.730925 189.9363 
L 926.29363 189.24119 
L 927.23147 188.442784 
L 927.794174 187.773468 
L 928.356879 187.516128 
L 928.919583 187.504398 
L 929.294719 187.760243 
L 929.669855 188.355004 
L 930.607696 190.166662 
L 930.982832 190.412155 
L 931.357968 190.311832 
L 931.733104 189.918946 
L 932.858513 188.146633 
L 933.233649 188.133134 
L 933.796353 188.277367 
L 934.546625 188.364556 
L 934.921761 188.659531 
L 936.609874 190.633238 
L 936.98501 190.620916 
L 937.360146 190.317944 
L 939.048259 188.331843 
L 939.235827 188.335595 
L 939.610963 188.674453 
L 940.548804 189.961718 
L 941.111508 190.248467 
L 941.486644 190.188881 
L 942.049349 189.674689 
L 942.612053 189.252809 
L 942.987189 189.268928 
L 944.112597 189.698207 
L 944.675302 189.844352 
L 945.238006 189.649564 
L 947.863959 187.973855 
L 948.426663 187.634587 
L 949.176936 187.339768 
L 949.552072 187.285129 
L 949.927208 187.611718 
L 950.489912 188.288863 
L 950.865048 188.452538 
L 951.427753 188.364647 
L 951.990457 188.325731 
L 953.303434 188.458201 
L 953.866138 188.476512 
L 954.803978 188.838785 
L 955.366682 188.61066 
L 955.929387 188.172336 
L 957.242363 186.522941 
L 957.805068 186.384762 
L 958.180204 186.310617 
L 958.55534 186.063759 
L 959.680748 185.106562 
L 960.055885 185.206079 
L 960.618589 185.730642 
L 962.119133 187.563211 
L 963.43211 190.076249 
L 963.807246 190.21805 
L 964.182382 190.053699 
L 964.932655 189.678187 
L 965.307791 189.494375 
L 966.245631 188.822002 
L 966.620767 189.13876 
L 967.183472 189.725985 
L 967.558608 189.827596 
L 969.434289 189.735745 
L 970.184561 190.088252 
L 970.747265 190.29713 
L 971.30997 190.101412 
L 972.998082 189.027428 
L 973.560786 188.529707 
L 973.935923 188.428343 
L 975.624035 188.596277 
L 975.999172 188.975475 
L 976.561876 189.641969 
L 976.937012 189.785546 
L 978.437557 189.877845 
L 979.375397 190.501242 
L 979.938101 190.488257 
L 980.688374 190.379715 
L 981.813782 190.608861 
L 982.939191 189.692876 
L 983.501895 189.469471 
L 984.064599 188.988876 
L 984.627303 188.227235 
L 985.190008 187.391513 
L 985.565144 187.151345 
L 985.94028 187.264719 
L 986.315416 187.669367 
L 987.065688 188.691743 
L 987.440825 188.888 
L 987.815961 188.858051 
L 988.753801 188.549376 
L 989.316505 188.324924 
L 990.629482 187.447575 
L 991.754891 187.239874 
L 993.255435 187.100023 
L 994.380844 187.175352 
L 994.943548 187.352298 
L 996.256525 187.982197 
L 996.819229 188.033591 
L 998.319773 188.847855 
L 998.69491 189.417934 
L 999.63275 191.372467 
L 1000.007886 191.648832 
L 1000.945727 191.898064 
L 1001.695999 192.510947 
L 1002.071135 192.523919 
L 1003.008976 192.167797 
L 1004.134384 191.470319 
L 1004.50952 191.575955 
L 1005.259793 191.998582 
L 1005.634929 191.867119 
L 1006.197633 191.200079 
L 1007.135473 189.930552 
L 1007.51061 189.742722 
L 1008.073314 189.906644 
L 1008.823586 190.012793 
L 1009.948995 190.304309 
L 1010.511699 190.477919 
L 1011.074403 190.32879 
L 1012.38738 189.908035 
L 1012.950084 190.038347 
L 1015.013333 190.528682 
L 1015.576037 190.489246 
L 1015.951173 190.655892 
L 1016.326309 191.093943 
L 1017.076582 192.101519 
L 1017.451718 192.288804 
L 1018.389558 192.458883 
L 1019.327399 193.244856 
L 1019.702535 193.143128 
L 1020.265239 192.692769 
L 1021.578216 191.226641 
L 1021.953352 191.203597 
L 1022.516056 191.422391 
L 1022.891192 191.278145 
L 1023.453897 190.605896 
L 1024.204169 189.80846 
L 1025.142009 189.33256 
L 1025.517145 189.416094 
L 1026.267418 190.198712 
L 1026.830122 190.573873 
L 1027.205258 190.638245 
L 1027.580394 190.465968 
L 1027.955531 190.000998 
L 1029.268507 188.030138 
L 1030.018779 187.284206 
L 1030.206348 187.290864 
L 1030.581484 187.686735 
L 1031.89446 189.873274 
L 1032.269596 190.144321 
L 1032.832301 190.405477 
L 1034.145277 191.38711 
L 1034.520413 191.28678 
L 1034.89555 190.904968 
L 1035.458254 190.207302 
L 1035.83339 190.128371 
L 1037.709071 190.841473 
L 1038.459343 191.034525 
L 1038.834479 190.78766 
L 1039.209616 190.110268 
L 1039.77232 188.98634 
L 1040.147456 188.678777 
L 1040.522592 188.784732 
L 1040.897728 189.229421 
L 1041.648001 190.228122 
L 1042.210705 190.549093 
L 1043.148545 190.898725 
L 1043.523681 190.591383 
L 1044.086386 189.439027 
L 1044.461522 188.807854 
L 1044.64909 188.696847 
L 1044.836658 188.740464 
L 1045.211794 189.217119 
L 1046.149635 191.013568 
L 1046.524771 191.225912 
L 1047.087475 191.109301 
L 1048.400452 190.670899 
L 1048.963156 190.73375 
L 1049.713428 190.934605 
L 1050.4637 190.768862 
L 1051.589109 190.337789 
L 1053.089654 189.45897 
L 1053.46479 189.482944 
L 1053.839926 189.729743 
L 1054.40263 190.60325 
L 1054.777766 191.152443 
L 1055.152903 191.36088 
L 1055.528039 191.244002 
L 1056.465879 190.618049 
L 1056.841015 190.624109 
L 1057.966424 190.916698 
L 1058.34156 190.678474 
L 1058.716696 190.138013 
L 1060.029673 187.642227 
L 1060.592377 187.128848 
L 1061.155081 186.904968 
L 1061.530217 186.990954 
L 1062.28049 187.503579 
L 1063.030762 188.286353 
L 1063.593466 189.258843 
L 1064.343739 190.528539 
L 1064.718875 190.721025 
L 1065.094011 190.497036 
L 1066.406988 188.902936 
L 1066.782124 188.866751 
L 1067.344828 188.99201 
L 1067.719964 188.778463 
L 1068.282668 188.324183 
L 1068.657805 188.37217 
L 1070.158349 189.153084 
L 1071.658894 190.491684 
L 1072.03403 190.381926 
L 1072.409166 190.005283 
L 1073.722143 188.254609 
L 1074.284847 188.049905 
L 1075.410256 187.307614 
L 1075.785392 187.497005 
L 1076.9108 188.402835 
L 1077.285936 188.410774 
L 1077.848641 188.400396 
L 1078.223777 188.73432 
L 1078.974049 189.91089 
L 1079.536753 190.835829 
L 1079.911889 191.03366 
L 1080.287026 190.822629 
L 1080.662162 190.540653 
L 1081.037298 190.548137 
L 1081.78757 190.938883 
L 1082.725411 190.86873 
L 1083.475683 191.401025 
L 1083.850819 191.603323 
L 1084.225955 191.580207 
L 1084.601092 191.285467 
L 1086.101636 189.433774 
L 1086.476772 189.295783 
L 1087.039477 189.387478 
L 1087.602181 189.733989 
L 1088.352453 190.28473 
L 1088.915157 190.293905 
L 1090.040566 190.325545 
L 1090.415702 190.50238 
L 1090.978406 190.926685 
L 1091.353543 190.922602 
L 1091.916247 190.390451 
L 1092.291383 190.100001 
L 1092.666519 190.121244 
L 1093.229223 190.56302 
L 1094.167064 191.531349 
L 1094.917336 192.507292 
L 1095.104904 192.597804 
L 1095.292472 192.560383 
L 1095.667608 192.054072 
L 1096.793017 189.793517 
L 1097.355721 189.424027 
L 1098.856266 188.908164 
L 1099.231402 188.848636 
L 1100.169242 188.446491 
L 1102.795196 188.986204 
L 1103.920604 189.505871 
L 1105.046013 190.445421 
L 1105.421149 190.204889 
L 1106.734125 188.549272 
L 1108.609806 185.921489 
L 1108.984942 185.657849 
L 1109.17251 185.69562 
L 1109.547647 186.127221 
L 1110.485487 187.573199 
L 1111.235759 188.238568 
L 1111.610896 188.326758 
L 1111.986032 188.09401 
L 1112.548736 187.592133 
L 1112.923872 187.508781 
L 1113.861713 187.573868 
L 1114.236849 187.944894 
L 1115.174689 189.181454 
L 1115.549825 189.446479 
L 1116.112529 189.504219 
L 1117.05037 189.496982 
L 1117.425506 189.665885 
L 1118.363346 190.336092 
L 1118.926051 190.433391 
L 1120.051459 190.27592 
L 1120.801732 190.588054 
L 1121.364436 190.517895 
L 1121.739572 190.293534 
L 1122.114708 189.834228 
L 1123.240117 187.931349 
L 1123.615253 187.713862 
L 1123.990389 187.762492 
L 1125.678502 188.559045 
L 1126.428774 188.365531 
L 1128.116887 187.61679 
L 1128.492023 187.701911 
L 1129.054727 188.129311 
L 1129.992568 188.929153 
L 1130.930408 189.54504 
L 1132.243385 190.630072 
L 1132.618521 190.587781 
L 1132.993657 190.33775 
L 1134.119065 189.112959 
L 1134.306634 189.124624 
L 1134.68177 189.458391 
L 1135.432042 190.328952 
L 1135.807178 190.3951 
L 1136.182314 190.1744 
L 1136.557451 189.60912 
L 1137.307723 188.070784 
L 1137.682859 187.81003 
L 1138.057995 188.009097 
L 1138.620699 188.869775 
L 1139.55854 190.420647 
L 1139.933676 190.642049 
L 1140.49638 190.638492 
L 1141.059085 190.486996 
L 1142.184493 189.698851 
L 1142.559629 189.782802 
L 1143.309902 190.382687 
L 1143.872606 190.806432 
L 1144.247742 190.794728 
L 1145.37315 190.196365 
L 1145.935855 189.960034 
L 1147.061263 188.949505 
L 1147.436399 189.033293 
L 1148.749376 190.051228 
L 1149.31208 190.103103 
L 1149.874784 190.500969 
L 1150.249921 190.791984 
L 1150.625057 190.818962 
L 1151.375329 190.520418 
L 1151.938033 190.686979 
L 1153.063442 191.22919 
L 1153.438578 191.06331 
L 1154.001282 190.397707 
L 1154.563986 189.732214 
L 1155.126691 189.471591 
L 1155.689395 189.161108 
L 1156.439667 188.443201 
L 1157.002372 187.956936 
L 1157.377508 187.942384 
L 1157.940212 187.998342 
L 1158.502916 187.751575 
L 1159.06562 187.536721 
L 1159.440757 187.589936 
L 1160.003461 188.004032 
L 1160.753733 188.974747 
L 1161.316437 189.692531 
L 1161.691574 189.891825 
L 1162.06671 189.679826 
L 1162.441846 189.076208 
L 1163.192118 187.754787 
L 1163.567254 187.614312 
L 1163.942391 187.871678 
L 1164.505095 188.406352 
L 1165.255367 188.813452 
L 1165.818071 189.628731 
L 1166.380776 190.354656 
L 1166.755912 190.568118 
L 1167.131048 190.549879 
L 1168.068888 190.236575 
L 1168.631593 190.21541 
L 1169.757001 189.84774 
L 1170.319705 189.65526 
L 1172.758091 187.827424 
L 1173.508363 187.064352 
L 1174.071067 186.609942 
L 1174.633771 186.422553 
L 1175.571612 186.369131 
L 1176.69702 185.742124 
L 1177.072156 185.967935 
L 1178.009997 186.934586 
L 1178.572701 187.192245 
L 1179.322973 187.338682 
L 1179.69811 187.807182 
L 1180.63595 189.527946 
L 1181.011086 189.768984 
L 1181.57379 189.789376 
L 1182.324063 189.751168 
L 1183.449471 190.049362 
L 1184.012176 189.595303 
L 1184.762448 188.833063 
L 1184.762448 188.833063 
" clip-path="url(#p4b2cf86870)" style="fill: none; stroke: #000000; stroke-width: 2; stroke-linecap: square"/>
   </g>
   <g id="patch_3">
    <path d="M 3.00024 198.907885 
L 1184.99976 198.907885 
" style="fill: none; stroke: #000000; stroke-width: 2; stroke-linejoin: miter; stroke-linecap: square"/>
   </g>
  </g>
 </g>
 <defs>
  <clipPath id="p4b2cf86870">
   <rect x="3.00024" y="3.00024" width="1181.99952" height="195.907645"/>
  </clipPath>
 </defs>
</svg>
