<?xml version="1.0" encoding="utf-8" standalone="no"?>
<!DOCTYPE svg PUBLIC "-//W3C//DTD SVG 1.1//EN"
  "http://www.w3.org/Graphics/SVG/1.1/DTD/svg11.dtd">
<svg xmlns:xlink="http://www.w3.org/1999/xlink" width="1188pt" height="252pt" viewBox="0 0 1188 252" xmlns="http://www.w3.org/2000/svg" version="1.1">
 <metadata>
  <rdf:RDF xmlns:dc="http://purl.org/dc/elements/1.1/" xmlns:cc="http://creativecommons.org/ns#" xmlns:rdf="http://www.w3.org/1999/02/22-rdf-syntax-ns#">
   <cc:Work>
    <dc:type rdf:resource="http://purl.org/dc/dcmitype/StillImage"/>
    <dc:date>2024-05-13T18:25:28.308845</dc:date>
    <dc:format>image/svg+xml</dc:format>
    <dc:creator>
     <cc:Agent>
      <dc:title>Matplotlib v3.8.0, https://matplotlib.org/</dc:title>
     </cc:Agent>
    </dc:creator>
   </cc:Work>
  </rdf:RDF>
 </metadata>
 <defs>
  <style type="text/css">*{stroke-linejoin: round; stroke-linecap: butt}</style>
 </defs>
 <g id="figure_1">
  <g id="patch_1">
   <path d="M 0 252 
L 1188 252 
L 1188 0 
L 0 0 
z
" style="fill: #ffffff"/>
  </g>
  <g id="axes_1">
   <g id="patch_2">
    <path d="M 3.00024 198.907885 
L 1184.99976 198.907885 
L 1184.99976 3.00024 
L 3.00024 3.00024 
z
" style="fill: #ffffff"/>
   </g>
   <g id="matplotlib.axis_1">
    <g id="xtick_1">
     <g id="line2d_1">
      <defs>
       <path id="md162ffccfe" d="M 0 0 
L 0 8 
" style="stroke: #000000; stroke-width: 2"/>
      </defs>
      <g>
       <use xlink:href="#md162ffccfe" x="1135.74978" y="198.907885" style="stroke: #000000; stroke-width: 2"/>
      </g>
     </g>
     <g id="text_1">
      <!-- −1 -->
      <g transform="translate(1125.488374 224.791947) scale(0.18 -0.18)">
       <defs>
        <path id="Arial-BoldMT-2212" d="M 266 1850 
L 266 2672 
L 3469 2672 
L 3469 1850 
L 266 1850 
z
" transform="scale(0.015625)"/>
        <path id="Arial-BoldMT-31" d="M 2519 0 
L 1641 0 
L 1641 3309 
Q 1159 2859 506 2644 
L 506 3441 
Q 850 3553 1253 3867 
Q 1656 4181 1806 4600 
L 2519 4600 
L 2519 0 
z
" transform="scale(0.015625)"/>
       </defs>
       <use xlink:href="#Arial-BoldMT-2212"/>
       <use xlink:href="#Arial-BoldMT-31" x="58.398438"/>
      </g>
     </g>
    </g>
    <g id="xtick_2">
     <g id="line2d_2">
      <g>
       <use xlink:href="#md162ffccfe" x="1037.24982" y="198.907885" style="stroke: #000000; stroke-width: 2"/>
      </g>
     </g>
     <g id="text_2">
      <!-- 0 -->
      <g transform="translate(1032.244976 224.791947) scale(0.18 -0.18)">
       <defs>
        <path id="Arial-BoldMT-30" d="M 1756 4600 
Q 2422 4600 2797 4125 
Q 3244 3563 3244 2259 
Q 3244 959 2794 391 
Q 2422 -78 1756 -78 
Q 1088 -78 678 436 
Q 269 950 269 2269 
Q 269 3563 719 4131 
Q 1091 4600 1756 4600 
z
M 1756 3872 
Q 1597 3872 1472 3770 
Q 1347 3669 1278 3406 
Q 1188 3066 1188 2259 
Q 1188 1453 1269 1151 
Q 1350 850 1473 750 
Q 1597 650 1756 650 
Q 1916 650 2041 751 
Q 2166 853 2234 1116 
Q 2325 1453 2325 2259 
Q 2325 3066 2244 3367 
Q 2163 3669 2039 3770 
Q 1916 3872 1756 3872 
z
" transform="scale(0.015625)"/>
       </defs>
       <use xlink:href="#Arial-BoldMT-30"/>
      </g>
     </g>
    </g>
    <g id="xtick_3">
     <g id="line2d_3">
      <g>
       <use xlink:href="#md162ffccfe" x="938.74986" y="198.907885" style="stroke: #000000; stroke-width: 2"/>
      </g>
     </g>
     <g id="text_3">
      <!-- 1 -->
      <g transform="translate(933.745016 224.791947) scale(0.18 -0.18)">
       <use xlink:href="#Arial-BoldMT-31"/>
      </g>
     </g>
    </g>
    <g id="xtick_4">
     <g id="line2d_4">
      <g>
       <use xlink:href="#md162ffccfe" x="840.2499" y="198.907885" style="stroke: #000000; stroke-width: 2"/>
      </g>
     </g>
     <g id="text_4">
      <!-- 2 -->
      <g transform="translate(835.245056 224.791947) scale(0.18 -0.18)">
       <defs>
        <path id="Arial-BoldMT-32" d="M 3238 816 
L 3238 0 
L 159 0 
Q 209 463 459 877 
Q 709 1291 1447 1975 
Q 2041 2528 2175 2725 
Q 2356 2997 2356 3263 
Q 2356 3556 2198 3714 
Q 2041 3872 1763 3872 
Q 1488 3872 1325 3706 
Q 1163 3541 1138 3156 
L 263 3244 
Q 341 3969 753 4284 
Q 1166 4600 1784 4600 
Q 2463 4600 2850 4234 
Q 3238 3869 3238 3325 
Q 3238 3016 3127 2736 
Q 3016 2456 2775 2150 
Q 2616 1947 2200 1565 
Q 1784 1184 1673 1059 
Q 1563 934 1494 816 
L 3238 816 
z
" transform="scale(0.015625)"/>
       </defs>
       <use xlink:href="#Arial-BoldMT-32"/>
      </g>
     </g>
    </g>
    <g id="xtick_5">
     <g id="line2d_5">
      <g>
       <use xlink:href="#md162ffccfe" x="741.74994" y="198.907885" style="stroke: #000000; stroke-width: 2"/>
      </g>
     </g>
     <g id="text_5">
      <!-- 3 -->
      <g transform="translate(736.745096 224.791947) scale(0.18 -0.18)">
       <defs>
        <path id="Arial-BoldMT-33" d="M 241 1216 
L 1091 1319 
Q 1131 994 1309 822 
Q 1488 650 1741 650 
Q 2013 650 2198 856 
Q 2384 1063 2384 1413 
Q 2384 1744 2206 1937 
Q 2028 2131 1772 2131 
Q 1603 2131 1369 2066 
L 1466 2781 
Q 1822 2772 2009 2936 
Q 2197 3100 2197 3372 
Q 2197 3603 2059 3740 
Q 1922 3878 1694 3878 
Q 1469 3878 1309 3722 
Q 1150 3566 1116 3266 
L 306 3403 
Q 391 3819 561 4067 
Q 731 4316 1036 4458 
Q 1341 4600 1719 4600 
Q 2366 4600 2756 4188 
Q 3078 3850 3078 3425 
Q 3078 2822 2419 2463 
Q 2813 2378 3048 2084 
Q 3284 1791 3284 1375 
Q 3284 772 2843 347 
Q 2403 -78 1747 -78 
Q 1125 -78 715 280 
Q 306 638 241 1216 
z
" transform="scale(0.015625)"/>
       </defs>
       <use xlink:href="#Arial-BoldMT-33"/>
      </g>
     </g>
    </g>
    <g id="xtick_6">
     <g id="line2d_6">
      <g>
       <use xlink:href="#md162ffccfe" x="643.24998" y="198.907885" style="stroke: #000000; stroke-width: 2"/>
      </g>
     </g>
     <g id="text_6">
      <!-- 4 -->
      <g transform="translate(638.245136 224.791947) scale(0.18 -0.18)">
       <defs>
        <path id="Arial-BoldMT-34" d="M 1994 0 
L 1994 922 
L 119 922 
L 119 1691 
L 2106 4600 
L 2844 4600 
L 2844 1694 
L 3413 1694 
L 3413 922 
L 2844 922 
L 2844 0 
L 1994 0 
z
M 1994 1694 
L 1994 3259 
L 941 1694 
L 1994 1694 
z
" transform="scale(0.015625)"/>
       </defs>
       <use xlink:href="#Arial-BoldMT-34"/>
      </g>
     </g>
    </g>
    <g id="xtick_7">
     <g id="line2d_7">
      <g>
       <use xlink:href="#md162ffccfe" x="544.75002" y="198.907885" style="stroke: #000000; stroke-width: 2"/>
      </g>
     </g>
     <g id="text_7">
      <!-- 5 -->
      <g transform="translate(539.745176 224.791947) scale(0.18 -0.18)">
       <defs>
        <path id="Arial-BoldMT-35" d="M 284 1178 
L 1159 1269 
Q 1197 972 1381 798 
Q 1566 625 1806 625 
Q 2081 625 2272 848 
Q 2463 1072 2463 1522 
Q 2463 1944 2273 2155 
Q 2084 2366 1781 2366 
Q 1403 2366 1103 2031 
L 391 2134 
L 841 4519 
L 3163 4519 
L 3163 3697 
L 1506 3697 
L 1369 2919 
Q 1663 3066 1969 3066 
Q 2553 3066 2959 2641 
Q 3366 2216 3366 1538 
Q 3366 972 3038 528 
Q 2591 -78 1797 -78 
Q 1163 -78 763 262 
Q 363 603 284 1178 
z
" transform="scale(0.015625)"/>
       </defs>
       <use xlink:href="#Arial-BoldMT-35"/>
      </g>
     </g>
    </g>
    <g id="xtick_8">
     <g id="line2d_8">
      <g>
       <use xlink:href="#md162ffccfe" x="446.25006" y="198.907885" style="stroke: #000000; stroke-width: 2"/>
      </g>
     </g>
     <g id="text_8">
      <!-- 6 -->
      <g transform="translate(441.245216 224.791947) scale(0.18 -0.18)">
       <defs>
        <path id="Arial-BoldMT-36" d="M 3247 3459 
L 2397 3366 
Q 2366 3628 2234 3753 
Q 2103 3878 1894 3878 
Q 1616 3878 1423 3628 
Q 1231 3378 1181 2588 
Q 1509 2975 1997 2975 
Q 2547 2975 2939 2556 
Q 3331 2138 3331 1475 
Q 3331 772 2918 347 
Q 2506 -78 1859 -78 
Q 1166 -78 719 461 
Q 272 1000 272 2228 
Q 272 3488 737 4044 
Q 1203 4600 1947 4600 
Q 2469 4600 2811 4308 
Q 3153 4016 3247 3459 
z
M 1256 1544 
Q 1256 1116 1453 883 
Q 1650 650 1903 650 
Q 2147 650 2309 840 
Q 2472 1031 2472 1466 
Q 2472 1913 2297 2120 
Q 2122 2328 1859 2328 
Q 1606 2328 1431 2129 
Q 1256 1931 1256 1544 
z
" transform="scale(0.015625)"/>
       </defs>
       <use xlink:href="#Arial-BoldMT-36"/>
      </g>
     </g>
    </g>
    <g id="xtick_9">
     <g id="line2d_9">
      <g>
       <use xlink:href="#md162ffccfe" x="347.7501" y="198.907885" style="stroke: #000000; stroke-width: 2"/>
      </g>
     </g>
     <g id="text_9">
      <!-- 7 -->
      <g transform="translate(342.745256 224.791947) scale(0.18 -0.18)">
       <defs>
        <path id="Arial-BoldMT-37" d="M 272 3703 
L 272 4519 
L 3275 4519 
L 3275 3881 
Q 2903 3516 2518 2831 
Q 2134 2147 1932 1376 
Q 1731 606 1734 0 
L 888 0 
Q 909 950 1279 1937 
Q 1650 2925 2269 3703 
L 272 3703 
z
" transform="scale(0.015625)"/>
       </defs>
       <use xlink:href="#Arial-BoldMT-37"/>
      </g>
     </g>
    </g>
    <g id="xtick_10">
     <g id="line2d_10">
      <g>
       <use xlink:href="#md162ffccfe" x="249.25014" y="198.907885" style="stroke: #000000; stroke-width: 2"/>
      </g>
     </g>
     <g id="text_10">
      <!-- 8 -->
      <g transform="translate(244.245296 224.791947) scale(0.18 -0.18)">
       <defs>
        <path id="Arial-BoldMT-38" d="M 1025 2472 
Q 684 2616 529 2867 
Q 375 3119 375 3419 
Q 375 3931 733 4265 
Q 1091 4600 1750 4600 
Q 2403 4600 2764 4265 
Q 3125 3931 3125 3419 
Q 3125 3100 2959 2851 
Q 2794 2603 2494 2472 
Q 2875 2319 3073 2025 
Q 3272 1731 3272 1347 
Q 3272 713 2867 316 
Q 2463 -81 1791 -81 
Q 1166 -81 750 247 
Q 259 634 259 1309 
Q 259 1681 443 1992 
Q 628 2303 1025 2472 
z
M 1206 3356 
Q 1206 3094 1354 2947 
Q 1503 2800 1750 2800 
Q 2000 2800 2150 2948 
Q 2300 3097 2300 3359 
Q 2300 3606 2151 3754 
Q 2003 3903 1759 3903 
Q 1506 3903 1356 3753 
Q 1206 3603 1206 3356 
z
M 1125 1394 
Q 1125 1031 1311 828 
Q 1497 625 1775 625 
Q 2047 625 2225 820 
Q 2403 1016 2403 1384 
Q 2403 1706 2222 1901 
Q 2041 2097 1763 2097 
Q 1441 2097 1283 1875 
Q 1125 1653 1125 1394 
z
" transform="scale(0.015625)"/>
       </defs>
       <use xlink:href="#Arial-BoldMT-38"/>
      </g>
     </g>
    </g>
    <g id="xtick_11">
     <g id="line2d_11">
      <g>
       <use xlink:href="#md162ffccfe" x="150.75018" y="198.907885" style="stroke: #000000; stroke-width: 2"/>
      </g>
     </g>
     <g id="text_11">
      <!-- 9 -->
      <g transform="translate(145.745336 224.791947) scale(0.18 -0.18)">
       <defs>
        <path id="Arial-BoldMT-39" d="M 291 1059 
L 1141 1153 
Q 1172 894 1303 769 
Q 1434 644 1650 644 
Q 1922 644 2112 894 
Q 2303 1144 2356 1931 
Q 2025 1547 1528 1547 
Q 988 1547 595 1964 
Q 203 2381 203 3050 
Q 203 3747 617 4173 
Q 1031 4600 1672 4600 
Q 2369 4600 2816 4061 
Q 3263 3522 3263 2288 
Q 3263 1031 2797 475 
Q 2331 -81 1584 -81 
Q 1047 -81 715 205 
Q 384 491 291 1059 
z
M 2278 2978 
Q 2278 3403 2083 3637 
Q 1888 3872 1631 3872 
Q 1388 3872 1227 3680 
Q 1066 3488 1066 3050 
Q 1066 2606 1241 2398 
Q 1416 2191 1678 2191 
Q 1931 2191 2104 2391 
Q 2278 2591 2278 2978 
z
" transform="scale(0.015625)"/>
       </defs>
       <use xlink:href="#Arial-BoldMT-39"/>
      </g>
     </g>
    </g>
    <g id="xtick_12">
     <g id="line2d_12">
      <g>
       <use xlink:href="#md162ffccfe" x="52.25022" y="198.907885" style="stroke: #000000; stroke-width: 2"/>
      </g>
     </g>
     <g id="text_12">
      <!-- 10 -->
      <g transform="translate(42.240533 224.791947) scale(0.18 -0.18)">
       <use xlink:href="#Arial-BoldMT-31"/>
       <use xlink:href="#Arial-BoldMT-30" x="55.615234"/>
      </g>
     </g>
    </g>
    <g id="text_13">
     <!-- Chemical Shift / ppm -->
     <g transform="translate(504.992813 245.447573) scale(0.18 -0.18)">
      <defs>
       <path id="Arial-BoldMT-43" d="M 3397 1684 
L 4294 1400 
Q 4088 650 3608 286 
Q 3128 -78 2391 -78 
Q 1478 -78 890 545 
Q 303 1169 303 2250 
Q 303 3394 893 4026 
Q 1484 4659 2447 4659 
Q 3288 4659 3813 4163 
Q 4125 3869 4281 3319 
L 3366 3100 
Q 3284 3456 3026 3662 
Q 2769 3869 2400 3869 
Q 1891 3869 1573 3503 
Q 1256 3138 1256 2319 
Q 1256 1450 1568 1081 
Q 1881 713 2381 713 
Q 2750 713 3015 947 
Q 3281 1181 3397 1684 
z
" transform="scale(0.015625)"/>
       <path id="Arial-BoldMT-68" d="M 1334 4581 
L 1334 2897 
Q 1759 3394 2350 3394 
Q 2653 3394 2897 3281 
Q 3141 3169 3264 2994 
Q 3388 2819 3433 2606 
Q 3478 2394 3478 1947 
L 3478 0 
L 2600 0 
L 2600 1753 
Q 2600 2275 2550 2415 
Q 2500 2556 2373 2639 
Q 2247 2722 2056 2722 
Q 1838 2722 1666 2615 
Q 1494 2509 1414 2295 
Q 1334 2081 1334 1663 
L 1334 0 
L 456 0 
L 456 4581 
L 1334 4581 
z
" transform="scale(0.015625)"/>
       <path id="Arial-BoldMT-65" d="M 2381 1056 
L 3256 909 
Q 3088 428 2723 176 
Q 2359 -75 1813 -75 
Q 947 -75 531 491 
Q 203 944 203 1634 
Q 203 2459 634 2926 
Q 1066 3394 1725 3394 
Q 2466 3394 2894 2905 
Q 3322 2416 3303 1406 
L 1103 1406 
Q 1113 1016 1316 798 
Q 1519 581 1822 581 
Q 2028 581 2168 693 
Q 2309 806 2381 1056 
z
M 2431 1944 
Q 2422 2325 2234 2523 
Q 2047 2722 1778 2722 
Q 1491 2722 1303 2513 
Q 1116 2303 1119 1944 
L 2431 1944 
z
" transform="scale(0.015625)"/>
       <path id="Arial-BoldMT-6d" d="M 394 3319 
L 1203 3319 
L 1203 2866 
Q 1638 3394 2238 3394 
Q 2556 3394 2790 3262 
Q 3025 3131 3175 2866 
Q 3394 3131 3647 3262 
Q 3900 3394 4188 3394 
Q 4553 3394 4806 3245 
Q 5059 3097 5184 2809 
Q 5275 2597 5275 2122 
L 5275 0 
L 4397 0 
L 4397 1897 
Q 4397 2391 4306 2534 
Q 4184 2722 3931 2722 
Q 3747 2722 3584 2609 
Q 3422 2497 3350 2280 
Q 3278 2063 3278 1594 
L 3278 0 
L 2400 0 
L 2400 1819 
Q 2400 2303 2353 2443 
Q 2306 2584 2207 2653 
Q 2109 2722 1941 2722 
Q 1738 2722 1575 2612 
Q 1413 2503 1342 2297 
Q 1272 2091 1272 1613 
L 1272 0 
L 394 0 
L 394 3319 
z
" transform="scale(0.015625)"/>
       <path id="Arial-BoldMT-69" d="M 459 3769 
L 459 4581 
L 1338 4581 
L 1338 3769 
L 459 3769 
z
M 459 0 
L 459 3319 
L 1338 3319 
L 1338 0 
L 459 0 
z
" transform="scale(0.015625)"/>
       <path id="Arial-BoldMT-63" d="M 3353 2338 
L 2488 2181 
Q 2444 2441 2289 2572 
Q 2134 2703 1888 2703 
Q 1559 2703 1364 2476 
Q 1169 2250 1169 1719 
Q 1169 1128 1367 884 
Q 1566 641 1900 641 
Q 2150 641 2309 783 
Q 2469 925 2534 1272 
L 3397 1125 
Q 3263 531 2881 228 
Q 2500 -75 1859 -75 
Q 1131 -75 698 384 
Q 266 844 266 1656 
Q 266 2478 700 2936 
Q 1134 3394 1875 3394 
Q 2481 3394 2839 3133 
Q 3197 2872 3353 2338 
z
" transform="scale(0.015625)"/>
       <path id="Arial-BoldMT-61" d="M 1116 2306 
L 319 2450 
Q 453 2931 781 3162 
Q 1109 3394 1756 3394 
Q 2344 3394 2631 3255 
Q 2919 3116 3036 2902 
Q 3153 2688 3153 2116 
L 3144 1091 
Q 3144 653 3186 445 
Q 3228 238 3344 0 
L 2475 0 
Q 2441 88 2391 259 
Q 2369 338 2359 363 
Q 2134 144 1878 34 
Q 1622 -75 1331 -75 
Q 819 -75 523 203 
Q 228 481 228 906 
Q 228 1188 362 1408 
Q 497 1628 739 1745 
Q 981 1863 1438 1950 
Q 2053 2066 2291 2166 
L 2291 2253 
Q 2291 2506 2166 2614 
Q 2041 2722 1694 2722 
Q 1459 2722 1328 2630 
Q 1197 2538 1116 2306 
z
M 2291 1594 
Q 2122 1538 1756 1459 
Q 1391 1381 1278 1306 
Q 1106 1184 1106 997 
Q 1106 813 1243 678 
Q 1381 544 1594 544 
Q 1831 544 2047 700 
Q 2206 819 2256 991 
Q 2291 1103 2291 1419 
L 2291 1594 
z
" transform="scale(0.015625)"/>
       <path id="Arial-BoldMT-6c" d="M 459 0 
L 459 4581 
L 1338 4581 
L 1338 0 
L 459 0 
z
" transform="scale(0.015625)"/>
       <path id="Arial-BoldMT-20" transform="scale(0.015625)"/>
       <path id="Arial-BoldMT-53" d="M 231 1491 
L 1131 1578 
Q 1213 1125 1461 912 
Q 1709 700 2131 700 
Q 2578 700 2804 889 
Q 3031 1078 3031 1331 
Q 3031 1494 2936 1608 
Q 2841 1722 2603 1806 
Q 2441 1863 1863 2006 
Q 1119 2191 819 2459 
Q 397 2838 397 3381 
Q 397 3731 595 4036 
Q 794 4341 1167 4500 
Q 1541 4659 2069 4659 
Q 2931 4659 3367 4281 
Q 3803 3903 3825 3272 
L 2900 3231 
Q 2841 3584 2645 3739 
Q 2450 3894 2059 3894 
Q 1656 3894 1428 3728 
Q 1281 3622 1281 3444 
Q 1281 3281 1419 3166 
Q 1594 3019 2269 2859 
Q 2944 2700 3267 2529 
Q 3591 2359 3773 2064 
Q 3956 1769 3956 1334 
Q 3956 941 3737 597 
Q 3519 253 3119 86 
Q 2719 -81 2122 -81 
Q 1253 -81 787 320 
Q 322 722 231 1491 
z
" transform="scale(0.015625)"/>
       <path id="Arial-BoldMT-66" d="M 75 3319 
L 563 3319 
L 563 3569 
Q 563 3988 652 4194 
Q 741 4400 980 4529 
Q 1219 4659 1584 4659 
Q 1959 4659 2319 4547 
L 2200 3934 
Q 1991 3984 1797 3984 
Q 1606 3984 1523 3895 
Q 1441 3806 1441 3553 
L 1441 3319 
L 2097 3319 
L 2097 2628 
L 1441 2628 
L 1441 0 
L 563 0 
L 563 2628 
L 75 2628 
L 75 3319 
z
" transform="scale(0.015625)"/>
       <path id="Arial-BoldMT-74" d="M 1981 3319 
L 1981 2619 
L 1381 2619 
L 1381 1281 
Q 1381 875 1398 808 
Q 1416 741 1477 697 
Q 1538 653 1625 653 
Q 1747 653 1978 738 
L 2053 56 
Q 1747 -75 1359 -75 
Q 1122 -75 931 4 
Q 741 84 652 211 
Q 563 338 528 553 
Q 500 706 500 1172 
L 500 2619 
L 97 2619 
L 97 3319 
L 500 3319 
L 500 3978 
L 1381 4491 
L 1381 3319 
L 1981 3319 
z
" transform="scale(0.015625)"/>
       <path id="Arial-BoldMT-2f" d="M -9 -78 
L 1125 4659 
L 1784 4659 
L 638 -78 
L -9 -78 
z
" transform="scale(0.015625)"/>
       <path id="Arial-BoldMT-70" d="M 434 3319 
L 1253 3319 
L 1253 2831 
Q 1413 3081 1684 3237 
Q 1956 3394 2288 3394 
Q 2866 3394 3269 2941 
Q 3672 2488 3672 1678 
Q 3672 847 3265 386 
Q 2859 -75 2281 -75 
Q 2006 -75 1782 34 
Q 1559 144 1313 409 
L 1313 -1263 
L 434 -1263 
L 434 3319 
z
M 1303 1716 
Q 1303 1156 1525 889 
Q 1747 622 2066 622 
Q 2372 622 2575 867 
Q 2778 1113 2778 1672 
Q 2778 2194 2568 2447 
Q 2359 2700 2050 2700 
Q 1728 2700 1515 2451 
Q 1303 2203 1303 1716 
z
" transform="scale(0.015625)"/>
      </defs>
      <use xlink:href="#Arial-BoldMT-43"/>
      <use xlink:href="#Arial-BoldMT-68" x="72.216797"/>
      <use xlink:href="#Arial-BoldMT-65" x="133.300781"/>
      <use xlink:href="#Arial-BoldMT-6d" x="188.916016"/>
      <use xlink:href="#Arial-BoldMT-69" x="277.832031"/>
      <use xlink:href="#Arial-BoldMT-63" x="305.615234"/>
      <use xlink:href="#Arial-BoldMT-61" x="361.230469"/>
      <use xlink:href="#Arial-BoldMT-6c" x="416.845703"/>
      <use xlink:href="#Arial-BoldMT-20" x="444.628906"/>
      <use xlink:href="#Arial-BoldMT-53" x="472.412109"/>
      <use xlink:href="#Arial-BoldMT-68" x="539.111328"/>
      <use xlink:href="#Arial-BoldMT-69" x="600.195312"/>
      <use xlink:href="#Arial-BoldMT-66" x="627.978516"/>
      <use xlink:href="#Arial-BoldMT-74" x="661.279297"/>
      <use xlink:href="#Arial-BoldMT-20" x="694.580078"/>
      <use xlink:href="#Arial-BoldMT-2f" x="722.363281"/>
      <use xlink:href="#Arial-BoldMT-20" x="750.146484"/>
      <use xlink:href="#Arial-BoldMT-70" x="777.929688"/>
      <use xlink:href="#Arial-BoldMT-70" x="839.013672"/>
      <use xlink:href="#Arial-BoldMT-6d" x="900.097656"/>
     </g>
    </g>
   </g>
   <g id="matplotlib.axis_2"/>
   <g id="line2d_13">
    <path d="M 3.01641 190.614248 
L 3.391546 190.569586 
L 3.95425 190.180461 
L 5.079659 189.276504 
L 5.454795 189.273947 
L 6.392635 189.471803 
L 6.767771 189.509345 
L 7.142907 189.760224 
L 8.268316 190.794132 
L 8.83102 191.145259 
L 9.206156 191.178564 
L 9.768861 190.938894 
L 10.706701 190.511574 
L 11.269405 190.492341 
L 11.83211 190.820609 
L 13.145086 191.813133 
L 13.520222 191.724852 
L 14.270495 191.287886 
L 14.645631 191.355861 
L 15.395903 191.745902 
L 15.771039 191.739691 
L 16.333744 191.44112 
L 17.834288 190.073941 
L 18.209424 189.987024 
L 18.772129 190.155176 
L 19.334833 190.34468 
L 19.897537 190.29601 
L 20.460241 189.934616 
L 21.773218 188.906662 
L 22.148354 188.952462 
L 22.52349 189.277579 
L 23.461331 190.231695 
L 24.399171 190.895059 
L 24.774307 190.803774 
L 25.712148 189.950659 
L 26.274852 189.969008 
L 27.587829 190.175251 
L 28.713237 190.109574 
L 29.463509 190.323719 
L 30.964054 191.220213 
L 31.526758 191.14986 
L 31.901894 190.804963 
L 33.027303 189.226837 
L 33.402439 189.225054 
L 34.152711 189.818589 
L 34.902984 190.284831 
L 35.465688 190.382375 
L 35.840824 190.252789 
L 37.716505 189.022337 
L 38.279209 188.899342 
L 39.967322 188.930718 
L 40.530026 188.535685 
L 41.280299 187.969724 
L 41.655435 187.974415 
L 42.030571 188.196993 
L 42.780843 188.766606 
L 43.155979 188.718013 
L 43.906252 188.33218 
L 44.468956 188.421159 
L 45.03166 188.434763 
L 46.157069 188.188359 
L 47.094909 188.174605 
L 47.657613 188.179988 
L 48.783022 188.685033 
L 49.345726 188.798476 
L 49.720862 188.59603 
L 50.095998 188.114544 
L 51.221407 186.350222 
L 51.596543 186.373578 
L 51.971679 186.78484 
L 53.097088 188.80181 
L 53.472224 189.038675 
L 54.034928 189.064209 
L 54.785201 189.095273 
L 55.535473 189.165993 
L 56.098177 189.034946 
L 56.848449 188.513282 
L 57.411154 188.243145 
L 58.161426 188.237219 
L 58.536562 188.326527 
L 58.911698 188.623292 
L 59.474403 189.510842 
L 60.037107 190.287746 
L 60.412243 190.411001 
L 61.72522 190.107682 
L 62.287924 190.406502 
L 63.6009 191.382569 
L 64.163605 191.587677 
L 64.913877 191.568206 
L 67.53983 190.981055 
L 68.102534 191.123002 
L 69.227943 191.616785 
L 69.790647 191.216177 
L 70.165783 190.985716 
L 70.540919 190.991022 
L 71.103624 191.120644 
L 71.47876 191.012816 
L 72.041464 190.513531 
L 72.791736 189.690429 
L 73.166873 189.541206 
L 73.729577 189.607287 
L 75.980394 190.314992 
L 76.35553 189.988446 
L 77.480939 188.738919 
L 78.043643 188.388175 
L 78.793915 188.234319 
L 79.919324 188.22897 
L 80.29446 188.466803 
L 81.607436 189.868939 
L 82.545277 190.139478 
L 83.295549 190.844554 
L 84.23339 191.663172 
L 84.608526 191.779869 
L 84.983662 191.612281 
L 85.733934 191.074609 
L 86.296638 191.020468 
L 87.046911 190.931716 
L 87.609615 190.988825 
L 87.984751 191.018648 
L 88.735024 190.748921 
L 89.672864 190.29972 
L 90.610704 189.791269 
L 91.173409 189.740424 
L 91.923681 189.821369 
L 93.611794 189.40013 
L 94.549634 189.672419 
L 95.862611 190.358495 
L 96.237747 190.09692 
L 96.800451 189.508069 
L 96.988019 189.469804 
L 97.363155 189.763739 
L 98.113428 190.684221 
L 98.8637 190.937781 
L 99.613972 191.280326 
L 101.114517 192.087003 
L 101.864789 192.21488 
L 102.615062 192.110002 
L 103.177766 191.807879 
L 103.928038 191.057491 
L 104.490742 190.618686 
L 105.053447 190.482781 
L 105.991287 190.373687 
L 106.553991 189.895946 
L 107.304264 189.314817 
L 107.866968 188.965898 
L 108.804808 187.980967 
L 109.179945 187.661459 
L 109.555081 187.60344 
L 110.680489 187.934594 
L 111.243193 188.059078 
L 111.61833 188.353907 
L 113.118874 190.115685 
L 113.49401 190.149154 
L 114.056715 189.778051 
L 114.431851 189.577928 
L 114.994555 189.614184 
L 115.557259 189.57552 
L 116.119964 189.276519 
L 117.43294 188.277986 
L 117.995644 188.37408 
L 118.933485 188.590335 
L 119.683757 188.527924 
L 120.43403 188.322524 
L 120.809166 188.460814 
L 121.559438 189.213432 
L 121.934574 189.461125 
L 122.30971 189.376104 
L 122.872415 188.756214 
L 123.435119 188.144677 
L 123.997823 187.941181 
L 124.372959 188.010951 
L 124.748095 188.32329 
L 125.3108 189.1668 
L 126.24864 190.661897 
L 126.623776 190.882911 
L 126.998912 190.764119 
L 128.687025 189.281943 
L 129.249729 188.723688 
L 129.624866 188.680861 
L 130.750274 189.079761 
L 131.500546 189.617618 
L 132.063251 189.610241 
L 132.813523 189.605513 
L 133.376227 189.570785 
L 133.938932 189.168403 
L 134.876772 188.365228 
L 135.439476 188.270075 
L 136.189748 188.249134 
L 137.502725 187.95113 
L 138.252997 187.369019 
L 138.628134 187.305094 
L 139.00327 187.455578 
L 139.753542 188.139506 
L 140.878951 189.154158 
L 141.441655 189.221018 
L 142.004359 189.248332 
L 143.317336 189.768698 
L 143.88004 189.551991 
L 144.81788 189.107347 
L 145.380585 189.196235 
L 146.881129 189.668677 
L 147.443833 189.426438 
L 148.381674 188.984498 
L 148.944378 188.949327 
L 149.507082 189.001717 
L 149.882219 188.729171 
L 151.195195 187.101389 
L 151.757899 186.99832 
L 154.008716 186.994783 
L 154.946557 187.569908 
L 155.321693 187.544525 
L 156.447101 187.208946 
L 157.009806 187.311042 
L 158.135214 187.958583 
L 158.697918 187.733675 
L 159.635759 187.091983 
L 160.198463 186.852895 
L 161.51144 186.742355 
L 162.074144 186.361212 
L 163.199552 185.395236 
L 164.137393 184.968985 
L 165.825506 183.278212 
L 166.200642 182.690554 
L 166.763346 181.314964 
L 167.888755 178.105849 
L 169.764435 173.926691 
L 170.514708 170.965626 
L 171.077412 167.905719 
L 171.827684 162.437772 
L 172.577957 154.919217 
L 173.140661 147.24671 
L 173.703365 136.949129 
L 174.266069 122.781575 
L 174.828774 103.425351 
L 175.579046 68.171709 
L 176.704454 9.961521 
L 177.079591 3.00024 
L 177.267159 4.121371 
L 177.454727 8.334302 
L 177.829863 24.403179 
L 179.517976 115.108716 
L 180.08068 132.331643 
L 180.830952 147.636843 
L 181.393656 155.466422 
L 181.956361 160.880314 
L 182.706633 165.80849 
L 183.456905 169.641863 
L 184.01961 171.58855 
L 184.394746 172.300423 
L 184.95745 172.875332 
L 185.707722 173.411049 
L 186.082859 173.444622 
L 186.457995 173.181489 
L 186.833131 172.588028 
L 187.395835 171.074174 
L 188.89638 166.625083 
L 189.271516 166.264176 
L 189.646652 166.436079 
L 190.209356 167.181691 
L 190.772061 167.912897 
L 191.147197 167.99809 
L 191.334765 167.826126 
L 191.709901 167.010298 
L 192.272605 164.967532 
L 193.022878 161.254995 
L 194.148286 154.993552 
L 194.71099 153.247596 
L 196.211535 149.975959 
L 196.774239 147.774697 
L 197.336944 144.571684 
L 198.462352 137.544859 
L 198.837488 136.257268 
L 199.212624 135.810209 
L 199.400192 135.868773 
L 199.775329 136.383532 
L 200.713169 138.050704 
L 200.900737 138.101949 
L 201.088305 137.974415 
L 201.463441 137.163089 
L 202.026146 134.811033 
L 202.963986 130.299429 
L 203.339122 129.531058 
L 203.52669 129.470301 
L 203.901826 129.761004 
L 204.464531 130.261014 
L 204.839667 130.288216 
L 205.589939 130.149981 
L 206.340212 130.254634 
L 206.52778 130.048042 
L 206.902916 128.95265 
L 207.278052 126.799859 
L 207.840756 121.787513 
L 208.40346 114.759732 
L 210.279141 87.958012 
L 211.216982 75.814531 
L 212.34239 60.701401 
L 212.717526 57.452895 
L 212.905094 56.512992 
L 213.092662 56.171872 
L 213.280231 56.527946 
L 213.467799 57.644487 
L 213.842935 62.119788 
L 214.405639 73.110244 
L 215.343479 97.138571 
L 216.468888 124.874752 
L 217.21916 137.569736 
L 217.969433 146.207975 
L 218.532137 150.512747 
L 218.907273 152.093018 
L 219.282409 152.639218 
L 219.469977 152.56983 
L 219.845113 151.855143 
L 220.22025 150.495506 
L 221.720794 143.940512 
L 222.09593 143.369827 
L 222.283499 143.343131 
L 222.471067 143.517218 
L 222.846203 144.580564 
L 223.221339 146.677255 
L 223.971611 152.794657 
L 225.659724 167.172017 
L 226.409996 171.66638 
L 227.160269 174.821098 
L 227.722973 176.240233 
L 228.285677 176.891534 
L 229.03595 177.739694 
L 230.348926 179.7322 
L 230.91163 180.542939 
L 231.286767 180.767985 
L 232.599743 181.154662 
L 232.974879 181.780671 
L 233.725152 183.484891 
L 234.100288 183.872386 
L 234.475424 183.921265 
L 234.85056 183.72015 
L 235.975969 182.680178 
L 236.913809 182.39307 
L 237.664081 181.683397 
L 238.039218 181.622559 
L 239.164626 181.754546 
L 239.539762 181.539355 
L 240.852739 180.241959 
L 241.978147 179.927053 
L 242.353283 179.51505 
L 242.72842 178.813334 
L 244.6041 174.243222 
L 245.541941 171.973117 
L 246.292213 169.701001 
L 247.042485 166.534112 
L 247.980326 161.390207 
L 249.105734 153.434091 
L 249.668439 148.183386 
L 250.231143 140.718664 
L 250.981415 126.758577 
L 251.731688 107.960429 
L 252.48196 82.432092 
L 254.357641 11.097977 
L 254.732777 3.064645 
L 255.135467 -1 
M 255.407955 -1 
L 255.483049 -0.756913 
L 255.858185 3.275655 
L 256.42089 14.137727 
L 257.35873 33.032248 
L 257.921434 39.760067 
L 258.29657 41.979925 
L 258.671707 42.975445 
L 259.234411 44.024083 
L 259.609547 45.609224 
L 259.984683 48.463488 
L 260.359819 52.877176 
L 260.922524 62.641065 
L 262.2355 92.238664 
L 263.923613 130.402873 
L 264.673885 141.984175 
L 265.23659 147.484118 
L 265.986862 152.224306 
L 269.363087 168.610256 
L 270.11336 171.297779 
L 271.426336 174.470814 
L 271.989041 175.153865 
L 273.302017 176.238693 
L 275.552834 179.254362 
L 276.115538 179.343114 
L 276.490675 179.227508 
L 276.865811 178.915277 
L 278.366355 177.164562 
L 278.741491 177.136701 
L 279.116628 177.314416 
L 279.8669 178.03742 
L 280.80474 178.963371 
L 281.179877 179.053227 
L 281.742581 178.806217 
L 282.117717 178.50316 
L 282.680421 177.645919 
L 283.243125 176.746465 
L 284.556102 175.336719 
L 286.056647 172.388837 
L 286.806919 170.469509 
L 287.369623 168.365783 
L 287.932328 165.519174 
L 288.495032 161.724121 
L 289.057736 156.57103 
L 289.808008 147.233303 
L 290.558281 134.626309 
L 291.120985 121.79807 
L 291.871257 98.318085 
L 292.62153 66.087541 
L 293.371802 33.411539 
L 293.746938 25.186159 
L 293.934506 24.553739 
L 294.122074 26.37886 
L 294.49721 36.496317 
L 295.247483 69.976273 
L 296.185323 108.110702 
L 296.935596 129.549486 
L 297.685868 144.23031 
L 298.43614 154.031761 
L 299.186413 161.159735 
L 299.749117 164.734233 
L 300.311821 167.014119 
L 300.874525 168.254829 
L 301.249661 168.573401 
L 301.624798 168.51803 
L 301.999934 168.104687 
L 302.562638 166.945034 
L 303.31291 164.738832 
L 304.063183 161.577536 
L 305.188591 155.713951 
L 305.751295 151.843917 
L 306.314 146.316152 
L 306.876704 138.766956 
L 307.439408 128.679595 
L 308.189681 110.959298 
L 310.065361 62.764229 
L 310.252929 61.273218 
L 310.440498 60.874609 
L 310.628066 61.508597 
L 311.003202 65.348267 
L 311.565906 74.96417 
L 313.254019 105.85556 
L 314.004291 115.445192 
L 314.566995 120.013933 
L 314.942131 121.79674 
L 315.1297 122.27063 
L 315.317268 122.427632 
L 315.504836 122.228506 
L 315.692404 121.637812 
L 316.06754 119.228005 
L 316.630244 112.81964 
L 317.380517 100.150766 
L 318.318357 78.923187 
L 319.818902 41.184587 
L 320.194038 36.763976 
L 320.381606 36.352599 
L 320.569174 37.283674 
L 320.94431 43.11087 
L 321.507014 59.260005 
L 322.819991 101.324481 
L 323.757831 123.982973 
L 324.695672 141.982859 
L 325.445944 152.648471 
L 326.196216 160.064755 
L 326.946489 165.22214 
L 327.884329 170.30373 
L 328.82217 174.400141 
L 329.384874 176.223665 
L 329.947578 177.441991 
L 332.198395 181.249086 
L 332.948667 182.080459 
L 333.323804 182.251211 
L 333.69894 182.145515 
L 334.449212 181.696728 
L 334.824348 181.784151 
L 335.387053 182.316401 
L 336.512461 183.618169 
L 337.825438 184.662005 
L 338.200574 184.715039 
L 338.57571 184.578704 
L 339.701118 183.908558 
L 340.451391 183.886319 
L 341.389231 183.956907 
L 341.764367 184.167073 
L 342.327072 184.828891 
L 342.889776 185.467816 
L 343.264912 185.505352 
L 344.015184 185.306911 
L 344.577889 185.296421 
L 345.328161 185.100841 
L 345.890865 185.298411 
L 346.641138 185.775871 
L 347.954114 187.133791 
L 348.704386 188.08534 
L 349.454659 189.099081 
L 349.829795 189.325907 
L 351.705476 189.734397 
L 352.26818 189.922298 
L 353.768725 189.787492 
L 354.894133 189.695709 
L 355.269269 189.445551 
L 356.582246 188.281372 
L 356.957382 188.446462 
L 357.707654 188.982408 
L 358.082791 189.02669 
L 358.457927 188.814678 
L 359.208199 188.165612 
L 359.583335 188.125451 
L 360.521176 188.525653 
L 362.02172 189.135369 
L 362.584425 188.864271 
L 363.147129 188.694009 
L 363.709833 188.784218 
L 364.272537 188.896872 
L 364.835242 188.774876 
L 365.773082 188.257617 
L 366.523354 187.883756 
L 367.648763 187.729399 
L 368.399035 187.365897 
L 368.774171 187.525508 
L 369.524444 188.103914 
L 369.89958 188.035418 
L 370.462284 187.701 
L 370.83742 187.781834 
L 372.337965 188.857896 
L 372.713101 188.745216 
L 373.83851 188.048712 
L 374.77635 187.727756 
L 376.652031 186.715067 
L 377.402303 186.825627 
L 378.152575 187.023138 
L 378.527712 186.903147 
L 379.090416 186.432049 
L 379.840688 185.768189 
L 380.590961 185.202239 
L 380.966097 184.537061 
L 381.716369 183.045837 
L 383.59205 180.925063 
L 384.342322 180.55822 
L 384.717458 179.879407 
L 385.280163 178.137396 
L 387.155843 171.057655 
L 387.718548 167.520366 
L 388.281252 162.812333 
L 388.843956 156.533267 
L 389.594228 144.93282 
L 390.344501 129.648881 
L 391.094773 110.648959 
L 392.032614 80.302063 
L 392.970454 49.05312 
L 393.34559 41.47694 
L 393.533158 39.526002 
L 393.720726 38.896646 
L 393.908294 39.547812 
L 394.283431 44.125983 
L 394.846135 56.34113 
L 396.721816 101.712683 
L 397.472088 114.394258 
L 398.034792 120.704967 
L 398.409928 123.355221 
L 398.785065 124.804449 
L 398.972633 125.075706 
L 399.160201 125.029792 
L 399.347769 124.661499 
L 399.722905 122.992587 
L 400.098041 120.133494 
L 400.660745 113.55229 
L 401.22345 104.026974 
L 402.16129 83.466058 
L 402.911562 67.868558 
L 403.286699 63.393249 
L 403.474267 62.561769 
L 403.661835 62.810859 
L 403.849403 64.17213 
L 404.224539 70.019385 
L 404.787243 84.422242 
L 406.10022 120.814878 
L 406.850492 136.229906 
L 407.788333 150.835043 
L 408.538605 159.613972 
L 409.288877 166.262847 
L 410.226718 172.558104 
L 411.164558 177.48311 
L 411.727262 179.550544 
L 412.289967 180.871091 
L 412.852671 181.69555 
L 413.415375 182.097894 
L 413.790511 182.132203 
L 414.728352 182.063013 
L 415.103488 182.303509 
L 417.729441 185.24353 
L 418.292145 185.875059 
L 418.667281 185.980497 
L 419.229986 185.884912 
L 420.167826 185.465628 
L 420.542962 185.653218 
L 421.105666 186.356104 
L 422.231075 187.993514 
L 422.606211 188.13573 
L 423.168915 187.938703 
L 424.106756 187.642536 
L 425.232164 187.645946 
L 425.794868 187.936573 
L 426.357573 188.523072 
L 427.107845 189.331926 
L 427.670549 189.624076 
L 428.233254 189.625852 
L 429.921366 189.352891 
L 431.234343 188.684457 
L 432.359751 188.139783 
L 434.047864 186.63818 
L 434.423 186.748129 
L 434.798136 187.159205 
L 436.486249 189.981205 
L 437.048953 190.423786 
L 437.799226 190.783354 
L 439.29977 191.984192 
L 439.862475 191.905845 
L 440.612747 191.782666 
L 440.987883 191.699225 
L 441.550587 191.274508 
L 442.113292 190.929492 
L 442.863564 190.799423 
L 443.613836 190.731741 
L 444.739245 190.233739 
L 445.677085 190.33155 
L 446.427358 190.112755 
L 447.740334 189.562935 
L 448.303038 189.919811 
L 448.865743 190.21025 
L 449.428447 190.234322 
L 449.991151 190.020962 
L 451.11656 189.338635 
L 451.679264 189.233681 
L 452.241968 189.372248 
L 453.367377 189.964647 
L 453.930081 189.802291 
L 454.867921 189.484756 
L 455.805762 189.265913 
L 457.118738 188.441996 
L 459.181987 187.58004 
L 459.557123 187.584901 
L 461.057668 188.113215 
L 461.620372 187.876839 
L 462.183077 187.599173 
L 462.558213 187.628282 
L 463.308485 187.952241 
L 463.871189 188.413156 
L 464.433894 189.178848 
L 465.559302 190.918856 
L 466.122006 191.296614 
L 466.684711 191.280804 
L 467.247415 191.012292 
L 467.622551 190.566205 
L 468.747959 188.901148 
L 469.123096 188.778696 
L 469.6858 188.883401 
L 471.373913 189.39797 
L 471.936617 189.07548 
L 472.311753 188.664929 
L 472.874457 187.655536 
L 473.437162 186.745545 
L 473.812298 186.441492 
L 474.187434 186.359065 
L 474.750138 186.592076 
L 475.50041 187.225833 
L 477.563659 189.048993 
L 477.938796 189.14578 
L 478.313932 189.00156 
L 479.064204 188.418484 
L 479.43934 188.403445 
L 480.189613 188.581942 
L 481.127453 188.38128 
L 482.065293 188.260333 
L 482.627998 188.370897 
L 483.003134 188.700903 
L 484.128542 190.052088 
L 484.691247 190.250557 
L 485.253951 190.16141 
L 486.379359 189.577272 
L 486.942064 189.872489 
L 487.3172 190.014541 
L 487.692336 189.949959 
L 488.630176 189.384091 
L 489.943153 188.517698 
L 490.318289 188.646179 
L 493.694514 191.237513 
L 494.069651 191.28085 
L 494.632355 191.085368 
L 495.945331 190.505426 
L 496.320468 190.294335 
L 497.445876 189.272655 
L 497.821012 189.302952 
L 498.758853 189.652361 
L 499.696693 189.694747 
L 500.446965 189.333757 
L 501.197238 188.774666 
L 501.572374 188.583711 
L 501.94751 188.689927 
L 502.697782 189.39104 
L 503.823191 190.356161 
L 504.198327 190.44507 
L 504.573463 190.284355 
L 505.136168 189.965293 
L 505.511304 189.984098 
L 505.88644 190.238133 
L 506.82428 191.252886 
L 507.199416 191.245031 
L 507.574553 190.867854 
L 509.450233 188.172709 
L 510.388074 187.751106 
L 510.950778 187.762331 
L 512.076187 188.306758 
L 512.638891 188.476237 
L 513.201595 188.364637 
L 513.764299 188.258721 
L 514.139436 188.381618 
L 514.70214 188.936217 
L 515.264844 189.41996 
L 515.63998 189.34508 
L 516.765389 188.385281 
L 517.515661 188.671905 
L 518.828638 189.292817 
L 519.57891 189.920897 
L 520.329182 190.844282 
L 521.454591 192.304103 
L 521.829727 192.588819 
L 522.204863 192.596157 
L 522.579999 192.269235 
L 523.51784 191.171447 
L 524.268112 190.830006 
L 524.830816 190.472238 
L 525.768657 189.491153 
L 526.331361 189.488583 
L 526.894065 189.386454 
L 527.456769 189.182755 
L 527.831906 189.248426 
L 528.957314 190.052232 
L 529.33245 190.441023 
L 530.270291 191.811691 
L 530.645427 191.907145 
L 531.020563 191.710659 
L 532.521108 190.26229 
L 533.27138 189.634544 
L 534.021652 189.319158 
L 534.584357 189.344422 
L 535.334629 189.654576 
L 535.897333 190.233833 
L 536.460037 190.814831 
L 536.835174 190.903476 
L 537.585446 190.966854 
L 538.14815 191.205593 
L 538.523286 191.023919 
L 539.085991 190.175463 
L 539.648695 189.467251 
L 540.023831 189.292041 
L 541.149239 189.12367 
L 541.711944 189.061689 
L 542.08708 189.270554 
L 543.587625 190.401399 
L 544.337897 190.68548 
L 544.900601 190.668198 
L 545.463305 190.324762 
L 546.588714 189.448355 
L 548.464395 188.4228 
L 549.589803 187.687394 
L 549.964939 187.562826 
L 550.340076 187.625101 
L 550.90278 187.99668 
L 552.403324 189.36355 
L 552.778461 189.353727 
L 553.528733 189.153447 
L 554.654141 189.479201 
L 555.404414 189.193505 
L 555.77955 189.319403 
L 556.529822 189.997265 
L 557.280095 190.620272 
L 557.842799 190.707575 
L 559.906048 190.572964 
L 560.281184 190.27537 
L 561.406592 189.027013 
L 562.156865 188.550711 
L 562.719569 188.57234 
L 563.282273 188.838916 
L 564.220114 189.337549 
L 565.157954 189.613634 
L 566.095794 189.9139 
L 566.470931 189.882237 
L 567.033635 189.476212 
L 567.596339 189.117838 
L 567.971475 189.206893 
L 568.909316 189.780807 
L 569.47202 189.595832 
L 570.222292 189.386989 
L 570.597428 189.461422 
L 571.722837 189.975746 
L 572.285541 189.636314 
L 572.660677 189.456022 
L 573.223382 189.48444 
L 573.973654 189.820403 
L 574.536358 190.340598 
L 575.474199 191.659841 
L 575.849335 191.698646 
L 576.787175 191.277704 
L 577.349879 191.057838 
L 577.725016 191.070145 
L 578.475288 191.444318 
L 579.22556 191.742019 
L 579.600696 191.655363 
L 581.101241 190.846588 
L 581.663945 190.780326 
L 582.22665 191.054635 
L 582.789354 191.281736 
L 583.16449 191.178357 
L 584.477467 190.357828 
L 585.227739 190.183361 
L 585.790443 189.857912 
L 586.540716 189.3613 
L 586.915852 189.346213 
L 588.603964 189.8184 
L 589.354237 190.121681 
L 589.729373 189.977321 
L 590.479645 189.590923 
L 591.04235 189.651556 
L 591.417486 189.671901 
L 591.792622 189.440779 
L 592.167758 188.897808 
L 593.105598 187.15912 
L 593.480735 186.893475 
L 593.855871 186.935219 
L 594.231007 187.222923 
L 594.793711 187.999176 
L 596.106688 190.073467 
L 596.669392 190.565434 
L 597.044528 190.715991 
L 597.419664 190.666644 
L 597.982369 190.341726 
L 599.295345 189.33672 
L 600.045617 189.386478 
L 601.358594 189.6883 
L 601.921298 190.222555 
L 602.671571 191.039851 
L 603.234275 191.333716 
L 603.796979 191.398631 
L 605.297524 191.167448 
L 605.860228 190.70309 
L 606.6105 189.993704 
L 607.173205 189.886435 
L 608.111045 189.83369 
L 608.673749 189.498578 
L 609.236454 189.130673 
L 609.799158 189.074963 
L 610.361862 189.038265 
L 611.112134 188.924278 
L 611.674839 189.124542 
L 612.987815 189.96984 
L 613.738088 190.513221 
L 614.113224 190.37979 
L 614.48836 189.882469 
L 615.238632 188.772113 
L 615.613768 188.656985 
L 616.176473 188.917996 
L 616.926745 189.256182 
L 617.489449 189.326134 
L 618.989994 189.261107 
L 621.240811 189.853457 
L 621.803515 189.871704 
L 622.366219 190.20773 
L 622.928924 190.542239 
L 623.491628 190.532633 
L 624.617036 190.441069 
L 625.930013 190.583838 
L 626.867853 191.134143 
L 627.430558 191.03833 
L 628.555966 190.649537 
L 629.11867 190.769456 
L 629.681375 190.840003 
L 630.994351 190.47526 
L 633.0576 190.706866 
L 633.620304 190.350885 
L 634.183009 190.069828 
L 635.120849 189.922479 
L 635.495985 190.046452 
L 636.058689 190.34125 
L 636.433826 190.307493 
L 637.184098 190.109997 
L 638.497074 190.258817 
L 641.685732 188.447047 
L 642.060868 188.589772 
L 642.623572 189.26467 
L 643.373845 190.132474 
L 643.748981 190.32776 
L 644.124117 190.264782 
L 645.249525 189.704402 
L 645.999798 189.560075 
L 646.937638 189.002729 
L 649.563591 187.64661 
L 649.938728 187.803596 
L 650.501432 188.35867 
L 651.064136 188.885428 
L 651.62684 189.030899 
L 652.752249 188.882374 
L 654.252793 188.537494 
L 655.003066 188.623187 
L 656.128474 188.543332 
L 656.691179 188.647041 
L 657.066315 188.492948 
L 660.067404 186.243766 
L 660.630108 186.173148 
L 661.192813 186.368854 
L 662.693357 187.187488 
L 663.44363 188.006117 
L 664.006334 188.2915 
L 664.756606 188.379611 
L 666.444719 188.343286 
L 666.819855 188.591319 
L 667.382559 189.257793 
L 668.132832 190.246082 
L 668.507968 190.461244 
L 668.883104 190.445485 
L 669.633376 190.181175 
L 670.008512 190.281949 
L 670.758785 190.570518 
L 671.884193 190.497879 
L 672.822034 190.98322 
L 673.19717 190.89884 
L 674.322578 190.435529 
L 675.447987 190.407613 
L 676.573395 190.903845 
L 676.948531 191.172095 
L 677.886372 192.10359 
L 678.636644 192.219311 
L 679.199348 192.234027 
L 679.574485 192.062545 
L 679.949621 191.638758 
L 681.075029 190.091437 
L 681.637734 189.89487 
L 682.763142 189.504988 
L 683.325846 189.261877 
L 684.076119 188.75165 
L 684.451255 188.789343 
L 685.764231 189.502357 
L 686.88964 190.489171 
L 687.452344 190.530226 
L 689.328025 190.276575 
L 690.078297 190.625109 
L 690.641002 190.840215 
L 691.391274 190.788418 
L 691.953978 190.559354 
L 692.70425 189.880337 
L 693.829659 188.71788 
L 694.204795 188.553153 
L 694.579931 188.613764 
L 695.330204 189.270059 
L 695.892908 189.538239 
L 696.455612 189.512046 
L 697.018316 189.309129 
L 698.331293 188.54546 
L 698.706429 188.697541 
L 699.456701 189.160329 
L 701.144814 189.621877 
L 701.895086 189.583315 
L 702.645359 189.398572 
L 703.770767 188.812121 
L 704.333472 188.823918 
L 704.708608 188.970375 
L 706.021584 189.874058 
L 706.771857 189.812947 
L 707.146993 190.142297 
L 707.897265 191.159299 
L 708.272401 191.29381 
L 708.647537 191.110457 
L 709.39781 190.48165 
L 709.772946 190.440089 
L 710.33565 190.482095 
L 710.710786 190.24829 
L 712.023763 188.867581 
L 712.398899 188.814545 
L 712.774035 189.131895 
L 713.711876 190.470377 
L 714.087012 190.545357 
L 714.462148 190.193125 
L 715.21242 189.1609 
L 715.587557 189.057969 
L 716.900533 189.205525 
L 717.650805 189.746797 
L 718.401078 190.185322 
L 718.776214 190.198376 
L 720.276759 189.882381 
L 720.651895 189.878315 
L 721.027031 189.656897 
L 721.589735 188.848588 
L 722.152439 187.984922 
L 722.527576 187.814415 
L 722.902712 188.091212 
L 724.215688 189.764701 
L 724.778393 189.97124 
L 725.341097 189.910789 
L 726.841642 189.544656 
L 728.342186 189.394787 
L 729.092459 189.456752 
L 729.655163 189.326664 
L 730.030299 189.477728 
L 731.155707 190.479087 
L 731.530844 190.424775 
L 733.781661 189.470186 
L 735.282205 189.253693 
L 735.84491 188.872139 
L 737.157886 187.568618 
L 737.533022 187.487228 
L 737.908158 187.592267 
L 739.596271 188.663422 
L 740.158975 189.092563 
L 740.72168 189.24423 
L 741.284384 189.193494 
L 742.222224 188.965486 
L 742.972497 188.896178 
L 743.722769 188.562783 
L 744.473041 188.193925 
L 745.035746 188.121967 
L 745.59845 188.253524 
L 746.161154 188.616242 
L 747.286563 189.604036 
L 748.036835 189.808998 
L 748.787107 189.786329 
L 749.53738 189.531113 
L 750.47522 189.267672 
L 751.225492 189.203206 
L 751.788197 189.501584 
L 752.350901 189.822508 
L 752.726037 189.812147 
L 753.288741 189.434812 
L 755.35199 187.844693 
L 756.477399 187.347059 
L 757.040103 187.308411 
L 757.790375 187.344624 
L 759.103352 187.134963 
L 759.666056 187.564693 
L 760.416328 188.156479 
L 760.791465 188.202042 
L 761.729305 187.901333 
L 762.292009 187.537034 
L 763.042282 186.864186 
L 763.417418 186.806549 
L 764.730394 187.06264 
L 766.606075 187.488718 
L 767.731484 187.9176 
L 768.294188 187.995369 
L 768.856892 188.161855 
L 769.982301 188.21827 
L 770.545005 188.320981 
L 771.107709 188.112417 
L 772.04555 187.695463 
L 772.420686 187.779605 
L 772.98339 188.025212 
L 773.358526 187.9806 
L 775.796911 187.0661 
L 776.359615 187.143404 
L 776.734752 187.37349 
L 777.86016 188.446523 
L 779.923409 189.405534 
L 780.298545 189.30247 
L 781.048817 188.739462 
L 781.986658 187.991271 
L 782.549362 187.852685 
L 784.800179 187.807268 
L 785.925588 187.951665 
L 786.300724 187.473035 
L 787.050996 186.357446 
L 787.426132 186.215734 
L 788.176405 186.403816 
L 789.864517 186.652866 
L 790.61479 186.441169 
L 791.927766 185.957429 
L 792.678039 185.8426 
L 793.615879 185.3997 
L 793.991015 185.464598 
L 794.553719 185.825663 
L 795.49156 186.57124 
L 796.054264 186.678341 
L 796.992105 186.68143 
L 797.742377 186.785433 
L 798.117513 186.602431 
L 799.055353 185.873632 
L 799.43049 185.937906 
L 799.993194 186.40939 
L 800.743466 187.223896 
L 801.118602 187.359633 
L 801.493739 187.259208 
L 802.056443 186.779219 
L 803.744556 184.90014 
L 804.30726 184.815499 
L 804.682396 184.717816 
L 805.057532 184.357622 
L 805.995373 183.178557 
L 807.120781 182.474504 
L 808.246189 181.761759 
L 808.808894 180.761352 
L 809.371598 179.689423 
L 809.746734 179.296115 
L 810.12187 179.163779 
L 810.497006 179.277236 
L 811.059711 179.547347 
L 811.434847 179.401381 
L 811.809983 178.93936 
L 812.747823 177.510559 
L 813.12296 177.215586 
L 813.498096 177.131512 
L 814.0608 177.311021 
L 814.623504 177.414348 
L 814.99864 177.177649 
L 815.373777 176.595344 
L 815.936481 175.235648 
L 816.874321 172.858124 
L 819.312706 168.350153 
L 820.813251 163.938524 
L 821.751091 160.319794 
L 822.313796 157.430343 
L 822.8765 153.43168 
L 823.439204 147.432127 
L 824.189477 135.913481 
L 824.564613 130.558786 
L 824.752181 128.938858 
L 824.939749 128.362206 
L 825.127317 128.870993 
L 825.502453 132.346325 
L 826.440294 143.338571 
L 827.002998 147.650499 
L 827.565702 150.352719 
L 828.128406 151.870151 
L 828.691111 152.568918 
L 831.129496 154.386998 
L 831.6922 154.793658 
L 832.067336 154.862416 
L 832.442472 154.746891 
L 833.005176 154.221282 
L 834.318153 152.59242 
L 834.693289 152.432823 
L 835.255993 152.550202 
L 835.818698 152.901798 
L 837.694379 154.452134 
L 838.069515 154.252563 
L 838.819787 153.58407 
L 839.007355 153.602484 
L 839.382491 154.019473 
L 840.320332 155.765322 
L 840.5079 155.7989 
L 840.695468 155.631308 
L 841.070604 154.798321 
L 842.196013 151.45044 
L 842.571149 149.533739 
L 842.946285 146.492309 
L 844.071693 134.920752 
L 844.259261 135.125561 
L 844.446829 136.366095 
L 845.009534 143.55608 
L 845.759806 152.453131 
L 846.32251 156.133072 
L 846.885215 158.073569 
L 847.447919 159.23998 
L 847.823055 159.753791 
L 848.198191 159.87327 
L 848.573327 159.525475 
L 849.3236 158.637654 
L 849.886304 158.426358 
L 850.636576 158.271641 
L 851.19928 158.472174 
L 851.761985 158.659235 
L 852.324689 158.603609 
L 853.074961 158.453939 
L 853.450097 158.674318 
L 854.012802 159.342593 
L 855.13821 160.851333 
L 855.888483 161.753691 
L 856.826323 163.324135 
L 857.576595 164.5613 
L 860.952821 168.585104 
L 861.515525 169.259689 
L 863.203638 171.731492 
L 866.579863 173.387105 
L 867.330136 174.247845 
L 868.455544 175.647689 
L 869.393385 176.763091 
L 870.143657 177.602979 
L 871.081497 178.199519 
L 871.83177 178.673676 
L 873.519882 180.323082 
L 875.020427 182.321424 
L 875.395563 182.3773 
L 876.145836 182.355728 
L 879.522061 183.425338 
L 881.210174 183.816911 
L 881.960446 183.575332 
L 882.52315 183.41612 
L 883.460991 183.418978 
L 883.836127 182.983175 
L 884.398831 181.707277 
L 885.149103 179.889701 
L 886.649648 177.023504 
L 887.212352 175.259949 
L 887.962625 171.92776 
L 888.900465 167.004421 
L 889.463169 162.813804 
L 890.213442 155.173161 
L 890.776146 147.166423 
L 891.33885 136.213522 
L 891.901554 121.330431 
L 892.464259 101.468291 
L 893.026963 73.860698 
L 893.589667 33.653431 
L 893.93713 -1 
M 898.65012 -1 
L 899.029142 31.339495 
L 899.591846 66.590408 
L 900.342118 98.487414 
L 901.092391 119.905154 
L 901.842663 134.48494 
L 902.592935 144.909671 
L 903.530776 154.948441 
L 904.281048 160.952087 
L 905.03132 165.199488 
L 905.594025 167.20491 
L 907.844842 173.076502 
L 910.658363 178.288759 
L 911.783771 180.014237 
L 914.409724 183.859044 
L 914.784861 184.029791 
L 915.910269 184.153618 
L 916.472973 184.533208 
L 917.223246 185.072872 
L 918.536222 185.780752 
L 918.911358 186.137117 
L 920.036767 187.58671 
L 920.411903 187.778123 
L 920.787039 187.76685 
L 921.537312 187.539605 
L 922.100016 187.777082 
L 922.850288 188.199044 
L 924.350833 188.551233 
L 926.976786 189.932219 
L 927.351922 189.750672 
L 929.602739 187.737609 
L 930.353011 187.601673 
L 930.728148 187.685167 
L 931.103284 187.947338 
L 932.791397 189.687261 
L 933.166533 189.75104 
L 935.41735 189.55548 
L 937.293031 189.370913 
L 938.043303 188.936797 
L 939.543848 188.038639 
L 941.23196 187.812639 
L 943.857913 188.082026 
L 944.420618 188.375315 
L 945.546026 189.132971 
L 946.859003 189.635354 
L 947.796843 189.767352 
L 948.359547 189.866027 
L 948.734684 189.689668 
L 949.297388 189.342569 
L 949.672524 189.384499 
L 950.235228 189.835808 
L 951.360637 190.993182 
L 952.298477 191.613667 
L 953.611454 192.057865 
L 954.174158 191.971118 
L 954.92443 191.44669 
L 955.862271 190.775244 
L 956.237407 190.720051 
L 956.987679 190.755746 
L 957.362815 190.535009 
L 958.488224 189.461365 
L 958.86336 189.536816 
L 959.426064 189.752633 
L 959.988769 189.620463 
L 960.363905 189.572816 
L 960.739041 189.760346 
L 962.052017 190.827355 
L 962.427154 190.833028 
L 963.552562 190.565491 
L 964.677971 190.74298 
L 965.053107 190.536973 
L 965.803379 189.986821 
L 966.366083 189.885207 
L 967.866628 189.914552 
L 969.179605 190.426684 
L 969.554741 190.340827 
L 970.117445 189.972443 
L 971.430422 188.93434 
L 971.805558 189.073665 
L 972.55583 189.484902 
L 973.493671 189.706003 
L 975.369351 189.665408 
L 975.932056 189.406981 
L 976.49476 189.105657 
L 976.869896 189.108475 
L 977.995305 189.504035 
L 978.370441 189.170882 
L 979.308281 188.113547 
L 979.683417 188.07089 
L 980.996394 188.268323 
L 983.059643 187.60824 
L 983.622347 188.045394 
L 984.185051 188.406751 
L 986.060732 188.673271 
L 986.998572 188.242383 
L 987.373709 188.387306 
L 987.936413 188.972038 
L 988.499117 189.531194 
L 989.061821 189.741187 
L 989.812094 189.869109 
L 991.312638 190.535709 
L 991.875343 190.425128 
L 992.438047 190.070188 
L 993.375887 189.403494 
L 994.12616 189.069414 
L 994.688864 188.599516 
L 995.439136 187.880647 
L 995.814272 187.746231 
L 996.189409 187.792442 
L 996.752113 188.171618 
L 997.502385 188.653407 
L 998.065089 188.861424 
L 998.440226 189.270061 
L 999.00293 190.477885 
L 999.565634 191.62787 
L 999.94077 191.983596 
L 1000.315906 192.039985 
L 1000.691043 191.893485 
L 1001.253747 191.371295 
L 1002.004019 190.660655 
L 1002.379155 190.627066 
L 1003.129428 190.95805 
L 1003.692132 191.182697 
L 1004.067268 191.015266 
L 1005.005108 190.260661 
L 1005.755381 189.843752 
L 1007.068357 188.522064 
L 1007.443494 188.62308 
L 1008.006198 189.166686 
L 1008.75647 189.968147 
L 1010.632151 190.747815 
L 1011.007287 190.465003 
L 1012.320264 189.031339 
L 1012.6954 188.968398 
L 1014.383513 189.351098 
L 1015.696489 190.240352 
L 1016.071625 190.118059 
L 1017.009466 189.658688 
L 1018.134874 189.404138 
L 1018.697579 189.590262 
L 1019.635419 190.049352 
L 1020.198123 190.075725 
L 1020.760827 189.772379 
L 1021.323532 189.50072 
L 1021.886236 189.695037 
L 1022.636508 189.99272 
L 1023.386781 190.222359 
L 1024.512189 191.210936 
L 1024.887325 190.994578 
L 1025.450029 190.046801 
L 1026.012734 189.157361 
L 1026.763006 188.595759 
L 1027.138142 188.428521 
L 1027.513278 188.509318 
L 1028.638687 189.128055 
L 1030.139232 189.430488 
L 1030.701936 189.575836 
L 1031.26464 189.573436 
L 1031.639776 189.833648 
L 1032.952753 191.303894 
L 1033.327889 191.310043 
L 1033.890593 191.061076 
L 1034.453297 190.548272 
L 1036.14141 188.421768 
L 1036.891683 187.928922 
L 1037.641955 187.786043 
L 1038.017091 187.841786 
L 1038.392227 188.155999 
L 1039.517636 189.645968 
L 1040.08034 189.636181 
L 1040.643044 189.719476 
L 1041.393317 190.20061 
L 1041.956021 190.5127 
L 1042.331157 190.493085 
L 1043.081429 190.153328 
L 1044.394406 189.390026 
L 1044.95711 189.42456 
L 1045.332246 189.704373 
L 1046.082519 190.476892 
L 1046.457655 190.562694 
L 1047.020359 190.323787 
L 1048.520904 189.472819 
L 1048.89604 189.453728 
L 1049.271176 189.630958 
L 1049.83388 190.23929 
L 1050.396585 190.837586 
L 1050.771721 190.936221 
L 1051.146857 190.762937 
L 1052.084697 190.067371 
L 1053.022538 189.854904 
L 1053.77281 189.931782 
L 1056.586331 189.956685 
L 1057.524172 189.856418 
L 1058.086876 190.025242 
L 1059.399852 190.834551 
L 1060.150125 190.914508 
L 1060.525261 190.762675 
L 1061.087965 190.087719 
L 1061.463101 189.668637 
L 1061.838238 189.512275 
L 1063.151214 189.455356 
L 1064.464191 188.75671 
L 1064.839327 188.833645 
L 1065.402031 189.2551 
L 1068.027984 192.150263 
L 1068.40312 191.976366 
L 1068.778257 191.408098 
L 1070.091233 188.826366 
L 1070.466369 188.481185 
L 1070.841506 188.410252 
L 1071.216642 188.56296 
L 1071.591778 188.915636 
L 1072.34205 189.795353 
L 1072.717186 189.885432 
L 1073.842595 189.529481 
L 1074.217731 189.714469 
L 1075.155571 190.380774 
L 1077.031252 191.054445 
L 1077.781525 191.614315 
L 1078.156661 191.696482 
L 1078.719365 191.537253 
L 1080.21991 190.642245 
L 1081.15775 190.556227 
L 1083.220999 189.512605 
L 1083.783703 189.412154 
L 1084.346408 189.608417 
L 1084.909112 189.732541 
L 1085.284248 189.591351 
L 1086.222088 189.059175 
L 1086.597225 189.15322 
L 1087.722633 189.669857 
L 1088.285337 189.5076 
L 1088.848042 189.069153 
L 1089.785882 188.185228 
L 1090.161018 188.204987 
L 1091.473995 188.893621 
L 1092.224267 188.848217 
L 1092.786971 189.231897 
L 1093.537244 189.700861 
L 1094.099948 189.831781 
L 1094.662652 189.729401 
L 1095.225356 189.407782 
L 1095.600492 188.865369 
L 1095.975629 187.921796 
L 1097.101037 184.47661 
L 1097.476173 184.003856 
L 1098.414014 183.245397 
L 1098.976718 182.291437 
L 1099.539422 180.764633 
L 1100.289695 177.809165 
L 1100.852399 174.572197 
L 1101.415103 169.572651 
L 1101.977807 162.136803 
L 1102.540512 151.068901 
L 1103.103216 134.337888 
L 1103.66592 109.374677 
L 1104.978897 38.978139 
L 1105.166465 37.50712 
L 1105.354033 40.179127 
L 1105.729169 55.343001 
L 1107.042146 121.756066 
L 1107.60485 138.93601 
L 1108.167554 150.418154 
L 1108.730258 158.006526 
L 1109.292963 163.17719 
L 1110.043235 168.125622 
L 1111.356211 175.015564 
L 1112.294052 178.684203 
L 1113.044324 180.579177 
L 1113.607028 181.360621 
L 1114.544869 182.112645 
L 1114.920005 182.721405 
L 1115.857845 184.52092 
L 1116.232982 184.601711 
L 1117.545958 184.047699 
L 1118.108662 184.375699 
L 1118.671367 184.976868 
L 1119.234071 185.571915 
L 1119.609207 185.641231 
L 1122.047592 185.190815 
L 1122.422728 185.577332 
L 1123.923273 188.013166 
L 1124.485977 188.330817 
L 1125.048682 188.299377 
L 1125.798954 188.230809 
L 1126.549226 188.223642 
L 1127.674635 187.746072 
L 1128.049771 187.94105 
L 1128.612475 188.684407 
L 1129.175179 189.308777 
L 1129.550315 189.428646 
L 1130.300588 189.294388 
L 1130.863292 189.268488 
L 1132.176269 189.617448 
L 1133.301677 189.631662 
L 1135.177358 189.246427 
L 1135.92763 189.231338 
L 1136.490335 189.2569 
L 1137.615743 189.689829 
L 1138.92872 190.480509 
L 1139.303856 190.376951 
L 1140.429264 189.387475 
L 1141.179537 188.608121 
L 1142.117377 187.53518 
L 1142.867649 187.060661 
L 1143.430354 186.941117 
L 1144.180626 187.172706 
L 1144.74333 187.56628 
L 1145.681171 188.777042 
L 1146.431443 189.618619 
L 1146.994147 189.888035 
L 1147.556851 189.835579 
L 1148.307124 189.527816 
L 1148.869828 188.934884 
L 1149.6201 188.015165 
L 1149.995237 187.962751 
L 1150.370373 188.294924 
L 1150.933077 188.926392 
L 1151.308213 188.993382 
L 1151.683349 188.762954 
L 1152.808758 187.673128 
L 1153.183894 187.742293 
L 1153.746598 187.989659 
L 1154.121734 187.966983 
L 1155.059575 187.703658 
L 1155.434711 187.896312 
L 1156.560119 188.71061 
L 1157.310392 189.077219 
L 1157.685528 189.254581 
L 1158.060664 189.214542 
L 1158.623368 189.047149 
L 1159.186073 189.30209 
L 1159.561209 189.370767 
L 1161.061753 188.877777 
L 1161.624458 188.89178 
L 1162.187162 189.216794 
L 1163.125002 189.784062 
L 1164.062843 190.152098 
L 1165.000683 190.710052 
L 1165.375819 190.553578 
L 1165.938524 189.853913 
L 1166.876364 188.702007 
L 1167.2515 188.491586 
L 1167.814204 188.47814 
L 1168.752045 188.461137 
L 1171.002862 188.228878 
L 1171.940702 187.784549 
L 1172.315838 188.042976 
L 1173.441247 189.489855 
L 1173.816383 189.521806 
L 1174.191519 189.293947 
L 1174.941792 188.685997 
L 1175.316928 188.685395 
L 1176.629904 189.208922 
L 1177.192609 189.010497 
L 1177.942881 188.667836 
L 1178.693153 188.401126 
L 1179.630994 188.065224 
L 1181.694243 187.812873 
L 1183.757491 188.530545 
L 1184.8829 189.398232 
L 1184.8829 189.398232 
" clip-path="url(#p8a7709ac88)" style="fill: none; stroke: #000000; stroke-width: 2; stroke-linecap: square"/>
   </g>
   <g id="patch_3">
    <path d="M 3.00024 198.907885 
L 1184.99976 198.907885 
" style="fill: none; stroke: #000000; stroke-width: 2; stroke-linejoin: miter; stroke-linecap: square"/>
   </g>
  </g>
 </g>
 <defs>
  <clipPath id="p8a7709ac88">
   <rect x="3.00024" y="3.00024" width="1181.99952" height="195.907645"/>
  </clipPath>
 </defs>
</svg>
