<?xml version="1.0" encoding="utf-8" standalone="no"?>
<!DOCTYPE svg PUBLIC "-//W3C//DTD SVG 1.1//EN"
  "http://www.w3.org/Graphics/SVG/1.1/DTD/svg11.dtd">
<svg xmlns:xlink="http://www.w3.org/1999/xlink" width="1188pt" height="252pt" viewBox="0 0 1188 252" xmlns="http://www.w3.org/2000/svg" version="1.1">
 <metadata>
  <rdf:RDF xmlns:dc="http://purl.org/dc/elements/1.1/" xmlns:cc="http://creativecommons.org/ns#" xmlns:rdf="http://www.w3.org/1999/02/22-rdf-syntax-ns#">
   <cc:Work>
    <dc:type rdf:resource="http://purl.org/dc/dcmitype/StillImage"/>
    <dc:date>2024-05-14T19:45:00.080351</dc:date>
    <dc:format>image/svg+xml</dc:format>
    <dc:creator>
     <cc:Agent>
      <dc:title>Matplotlib v3.8.0, https://matplotlib.org/</dc:title>
     </cc:Agent>
    </dc:creator>
   </cc:Work>
  </rdf:RDF>
 </metadata>
 <defs>
  <style type="text/css">*{stroke-linejoin: round; stroke-linecap: butt}</style>
 </defs>
 <g id="figure_1">
  <g id="patch_1">
   <path d="M 0 252 
L 1188 252 
L 1188 0 
L 0 0 
z
" style="fill: #ffffff"/>
  </g>
  <g id="axes_1">
   <g id="patch_2">
    <path d="M 3.00024 198.907885 
L 1184.99976 198.907885 
L 1184.99976 3.00024 
L 3.00024 3.00024 
z
" style="fill: #ffffff"/>
   </g>
   <g id="matplotlib.axis_1">
    <g id="xtick_1">
     <g id="line2d_1">
      <defs>
       <path id="mdb73a71e73" d="M 0 0 
L 0 8 
" style="stroke: #000000; stroke-width: 2"/>
      </defs>
      <g>
       <use xlink:href="#mdb73a71e73" x="1131.272509" y="198.907885" style="stroke: #000000; stroke-width: 2"/>
      </g>
     </g>
     <g id="text_1">
      <!-- 0 -->
      <g transform="translate(1126.267665 224.791947) scale(0.18 -0.18)">
       <defs>
        <path id="Arial-BoldMT-30" d="M 1756 4600 
Q 2422 4600 2797 4125 
Q 3244 3563 3244 2259 
Q 3244 959 2794 391 
Q 2422 -78 1756 -78 
Q 1088 -78 678 436 
Q 269 950 269 2269 
Q 269 3563 719 4131 
Q 1091 4600 1756 4600 
z
M 1756 3872 
Q 1597 3872 1472 3770 
Q 1347 3669 1278 3406 
Q 1188 3066 1188 2259 
Q 1188 1453 1269 1151 
Q 1350 850 1473 750 
Q 1597 650 1756 650 
Q 1916 650 2041 751 
Q 2166 853 2234 1116 
Q 2325 1453 2325 2259 
Q 2325 3066 2244 3367 
Q 2163 3669 2039 3770 
Q 1916 3872 1756 3872 
z
" transform="scale(0.015625)"/>
       </defs>
       <use xlink:href="#Arial-BoldMT-30"/>
      </g>
     </g>
    </g>
    <g id="xtick_2">
     <g id="line2d_2">
      <g>
       <use xlink:href="#mdb73a71e73" x="1023.818007" y="198.907885" style="stroke: #000000; stroke-width: 2"/>
      </g>
     </g>
     <g id="text_2">
      <!-- 1 -->
      <g transform="translate(1018.813164 224.791947) scale(0.18 -0.18)">
       <defs>
        <path id="Arial-BoldMT-31" d="M 2519 0 
L 1641 0 
L 1641 3309 
Q 1159 2859 506 2644 
L 506 3441 
Q 850 3553 1253 3867 
Q 1656 4181 1806 4600 
L 2519 4600 
L 2519 0 
z
" transform="scale(0.015625)"/>
       </defs>
       <use xlink:href="#Arial-BoldMT-31"/>
      </g>
     </g>
    </g>
    <g id="xtick_3">
     <g id="line2d_3">
      <g>
       <use xlink:href="#mdb73a71e73" x="916.363505" y="198.907885" style="stroke: #000000; stroke-width: 2"/>
      </g>
     </g>
     <g id="text_3">
      <!-- 2 -->
      <g transform="translate(911.358662 224.791947) scale(0.18 -0.18)">
       <defs>
        <path id="Arial-BoldMT-32" d="M 3238 816 
L 3238 0 
L 159 0 
Q 209 463 459 877 
Q 709 1291 1447 1975 
Q 2041 2528 2175 2725 
Q 2356 2997 2356 3263 
Q 2356 3556 2198 3714 
Q 2041 3872 1763 3872 
Q 1488 3872 1325 3706 
Q 1163 3541 1138 3156 
L 263 3244 
Q 341 3969 753 4284 
Q 1166 4600 1784 4600 
Q 2463 4600 2850 4234 
Q 3238 3869 3238 3325 
Q 3238 3016 3127 2736 
Q 3016 2456 2775 2150 
Q 2616 1947 2200 1565 
Q 1784 1184 1673 1059 
Q 1563 934 1494 816 
L 3238 816 
z
" transform="scale(0.015625)"/>
       </defs>
       <use xlink:href="#Arial-BoldMT-32"/>
      </g>
     </g>
    </g>
    <g id="xtick_4">
     <g id="line2d_4">
      <g>
       <use xlink:href="#mdb73a71e73" x="808.909004" y="198.907885" style="stroke: #000000; stroke-width: 2"/>
      </g>
     </g>
     <g id="text_4">
      <!-- 3 -->
      <g transform="translate(803.90416 224.791947) scale(0.18 -0.18)">
       <defs>
        <path id="Arial-BoldMT-33" d="M 241 1216 
L 1091 1319 
Q 1131 994 1309 822 
Q 1488 650 1741 650 
Q 2013 650 2198 856 
Q 2384 1063 2384 1413 
Q 2384 1744 2206 1937 
Q 2028 2131 1772 2131 
Q 1603 2131 1369 2066 
L 1466 2781 
Q 1822 2772 2009 2936 
Q 2197 3100 2197 3372 
Q 2197 3603 2059 3740 
Q 1922 3878 1694 3878 
Q 1469 3878 1309 3722 
Q 1150 3566 1116 3266 
L 306 3403 
Q 391 3819 561 4067 
Q 731 4316 1036 4458 
Q 1341 4600 1719 4600 
Q 2366 4600 2756 4188 
Q 3078 3850 3078 3425 
Q 3078 2822 2419 2463 
Q 2813 2378 3048 2084 
Q 3284 1791 3284 1375 
Q 3284 772 2843 347 
Q 2403 -78 1747 -78 
Q 1125 -78 715 280 
Q 306 638 241 1216 
z
" transform="scale(0.015625)"/>
       </defs>
       <use xlink:href="#Arial-BoldMT-33"/>
      </g>
     </g>
    </g>
    <g id="xtick_5">
     <g id="line2d_5">
      <g>
       <use xlink:href="#mdb73a71e73" x="701.454502" y="198.907885" style="stroke: #000000; stroke-width: 2"/>
      </g>
     </g>
     <g id="text_5">
      <!-- 4 -->
      <g transform="translate(696.449658 224.791947) scale(0.18 -0.18)">
       <defs>
        <path id="Arial-BoldMT-34" d="M 1994 0 
L 1994 922 
L 119 922 
L 119 1691 
L 2106 4600 
L 2844 4600 
L 2844 1694 
L 3413 1694 
L 3413 922 
L 2844 922 
L 2844 0 
L 1994 0 
z
M 1994 1694 
L 1994 3259 
L 941 1694 
L 1994 1694 
z
" transform="scale(0.015625)"/>
       </defs>
       <use xlink:href="#Arial-BoldMT-34"/>
      </g>
     </g>
    </g>
    <g id="xtick_6">
     <g id="line2d_6">
      <g>
       <use xlink:href="#mdb73a71e73" x="594" y="198.907885" style="stroke: #000000; stroke-width: 2"/>
      </g>
     </g>
     <g id="text_6">
      <!-- 5 -->
      <g transform="translate(588.995156 224.791947) scale(0.18 -0.18)">
       <defs>
        <path id="Arial-BoldMT-35" d="M 284 1178 
L 1159 1269 
Q 1197 972 1381 798 
Q 1566 625 1806 625 
Q 2081 625 2272 848 
Q 2463 1072 2463 1522 
Q 2463 1944 2273 2155 
Q 2084 2366 1781 2366 
Q 1403 2366 1103 2031 
L 391 2134 
L 841 4519 
L 3163 4519 
L 3163 3697 
L 1506 3697 
L 1369 2919 
Q 1663 3066 1969 3066 
Q 2553 3066 2959 2641 
Q 3366 2216 3366 1538 
Q 3366 972 3038 528 
Q 2591 -78 1797 -78 
Q 1163 -78 763 262 
Q 363 603 284 1178 
z
" transform="scale(0.015625)"/>
       </defs>
       <use xlink:href="#Arial-BoldMT-35"/>
      </g>
     </g>
    </g>
    <g id="xtick_7">
     <g id="line2d_7">
      <g>
       <use xlink:href="#mdb73a71e73" x="486.545498" y="198.907885" style="stroke: #000000; stroke-width: 2"/>
      </g>
     </g>
     <g id="text_7">
      <!-- 6 -->
      <g transform="translate(481.540654 224.791947) scale(0.18 -0.18)">
       <defs>
        <path id="Arial-BoldMT-36" d="M 3247 3459 
L 2397 3366 
Q 2366 3628 2234 3753 
Q 2103 3878 1894 3878 
Q 1616 3878 1423 3628 
Q 1231 3378 1181 2588 
Q 1509 2975 1997 2975 
Q 2547 2975 2939 2556 
Q 3331 2138 3331 1475 
Q 3331 772 2918 347 
Q 2506 -78 1859 -78 
Q 1166 -78 719 461 
Q 272 1000 272 2228 
Q 272 3488 737 4044 
Q 1203 4600 1947 4600 
Q 2469 4600 2811 4308 
Q 3153 4016 3247 3459 
z
M 1256 1544 
Q 1256 1116 1453 883 
Q 1650 650 1903 650 
Q 2147 650 2309 840 
Q 2472 1031 2472 1466 
Q 2472 1913 2297 2120 
Q 2122 2328 1859 2328 
Q 1606 2328 1431 2129 
Q 1256 1931 1256 1544 
z
" transform="scale(0.015625)"/>
       </defs>
       <use xlink:href="#Arial-BoldMT-36"/>
      </g>
     </g>
    </g>
    <g id="xtick_8">
     <g id="line2d_8">
      <g>
       <use xlink:href="#mdb73a71e73" x="379.090996" y="198.907885" style="stroke: #000000; stroke-width: 2"/>
      </g>
     </g>
     <g id="text_8">
      <!-- 7 -->
      <g transform="translate(374.086153 224.791947) scale(0.18 -0.18)">
       <defs>
        <path id="Arial-BoldMT-37" d="M 272 3703 
L 272 4519 
L 3275 4519 
L 3275 3881 
Q 2903 3516 2518 2831 
Q 2134 2147 1932 1376 
Q 1731 606 1734 0 
L 888 0 
Q 909 950 1279 1937 
Q 1650 2925 2269 3703 
L 272 3703 
z
" transform="scale(0.015625)"/>
       </defs>
       <use xlink:href="#Arial-BoldMT-37"/>
      </g>
     </g>
    </g>
    <g id="xtick_9">
     <g id="line2d_9">
      <g>
       <use xlink:href="#mdb73a71e73" x="271.636495" y="198.907885" style="stroke: #000000; stroke-width: 2"/>
      </g>
     </g>
     <g id="text_9">
      <!-- 8 -->
      <g transform="translate(266.631651 224.791947) scale(0.18 -0.18)">
       <defs>
        <path id="Arial-BoldMT-38" d="M 1025 2472 
Q 684 2616 529 2867 
Q 375 3119 375 3419 
Q 375 3931 733 4265 
Q 1091 4600 1750 4600 
Q 2403 4600 2764 4265 
Q 3125 3931 3125 3419 
Q 3125 3100 2959 2851 
Q 2794 2603 2494 2472 
Q 2875 2319 3073 2025 
Q 3272 1731 3272 1347 
Q 3272 713 2867 316 
Q 2463 -81 1791 -81 
Q 1166 -81 750 247 
Q 259 634 259 1309 
Q 259 1681 443 1992 
Q 628 2303 1025 2472 
z
M 1206 3356 
Q 1206 3094 1354 2947 
Q 1503 2800 1750 2800 
Q 2000 2800 2150 2948 
Q 2300 3097 2300 3359 
Q 2300 3606 2151 3754 
Q 2003 3903 1759 3903 
Q 1506 3903 1356 3753 
Q 1206 3603 1206 3356 
z
M 1125 1394 
Q 1125 1031 1311 828 
Q 1497 625 1775 625 
Q 2047 625 2225 820 
Q 2403 1016 2403 1384 
Q 2403 1706 2222 1901 
Q 2041 2097 1763 2097 
Q 1441 2097 1283 1875 
Q 1125 1653 1125 1394 
z
" transform="scale(0.015625)"/>
       </defs>
       <use xlink:href="#Arial-BoldMT-38"/>
      </g>
     </g>
    </g>
    <g id="xtick_10">
     <g id="line2d_10">
      <g>
       <use xlink:href="#mdb73a71e73" x="164.181993" y="198.907885" style="stroke: #000000; stroke-width: 2"/>
      </g>
     </g>
     <g id="text_10">
      <!-- 9 -->
      <g transform="translate(159.177149 224.791947) scale(0.18 -0.18)">
       <defs>
        <path id="Arial-BoldMT-39" d="M 291 1059 
L 1141 1153 
Q 1172 894 1303 769 
Q 1434 644 1650 644 
Q 1922 644 2112 894 
Q 2303 1144 2356 1931 
Q 2025 1547 1528 1547 
Q 988 1547 595 1964 
Q 203 2381 203 3050 
Q 203 3747 617 4173 
Q 1031 4600 1672 4600 
Q 2369 4600 2816 4061 
Q 3263 3522 3263 2288 
Q 3263 1031 2797 475 
Q 2331 -81 1584 -81 
Q 1047 -81 715 205 
Q 384 491 291 1059 
z
M 2278 2978 
Q 2278 3403 2083 3637 
Q 1888 3872 1631 3872 
Q 1388 3872 1227 3680 
Q 1066 3488 1066 3050 
Q 1066 2606 1241 2398 
Q 1416 2191 1678 2191 
Q 1931 2191 2104 2391 
Q 2278 2591 2278 2978 
z
" transform="scale(0.015625)"/>
       </defs>
       <use xlink:href="#Arial-BoldMT-39"/>
      </g>
     </g>
    </g>
    <g id="xtick_11">
     <g id="line2d_11">
      <g>
       <use xlink:href="#mdb73a71e73" x="56.727491" y="198.907885" style="stroke: #000000; stroke-width: 2"/>
      </g>
     </g>
     <g id="text_11">
      <!-- 10 -->
      <g transform="translate(46.717803 224.791947) scale(0.18 -0.18)">
       <use xlink:href="#Arial-BoldMT-31"/>
       <use xlink:href="#Arial-BoldMT-30" x="55.615234"/>
      </g>
     </g>
    </g>
    <g id="text_12">
     <!-- Chemical Shift / ppm -->
     <g transform="translate(504.992813 245.447573) scale(0.18 -0.18)">
      <defs>
       <path id="Arial-BoldMT-43" d="M 3397 1684 
L 4294 1400 
Q 4088 650 3608 286 
Q 3128 -78 2391 -78 
Q 1478 -78 890 545 
Q 303 1169 303 2250 
Q 303 3394 893 4026 
Q 1484 4659 2447 4659 
Q 3288 4659 3813 4163 
Q 4125 3869 4281 3319 
L 3366 3100 
Q 3284 3456 3026 3662 
Q 2769 3869 2400 3869 
Q 1891 3869 1573 3503 
Q 1256 3138 1256 2319 
Q 1256 1450 1568 1081 
Q 1881 713 2381 713 
Q 2750 713 3015 947 
Q 3281 1181 3397 1684 
z
" transform="scale(0.015625)"/>
       <path id="Arial-BoldMT-68" d="M 1334 4581 
L 1334 2897 
Q 1759 3394 2350 3394 
Q 2653 3394 2897 3281 
Q 3141 3169 3264 2994 
Q 3388 2819 3433 2606 
Q 3478 2394 3478 1947 
L 3478 0 
L 2600 0 
L 2600 1753 
Q 2600 2275 2550 2415 
Q 2500 2556 2373 2639 
Q 2247 2722 2056 2722 
Q 1838 2722 1666 2615 
Q 1494 2509 1414 2295 
Q 1334 2081 1334 1663 
L 1334 0 
L 456 0 
L 456 4581 
L 1334 4581 
z
" transform="scale(0.015625)"/>
       <path id="Arial-BoldMT-65" d="M 2381 1056 
L 3256 909 
Q 3088 428 2723 176 
Q 2359 -75 1813 -75 
Q 947 -75 531 491 
Q 203 944 203 1634 
Q 203 2459 634 2926 
Q 1066 3394 1725 3394 
Q 2466 3394 2894 2905 
Q 3322 2416 3303 1406 
L 1103 1406 
Q 1113 1016 1316 798 
Q 1519 581 1822 581 
Q 2028 581 2168 693 
Q 2309 806 2381 1056 
z
M 2431 1944 
Q 2422 2325 2234 2523 
Q 2047 2722 1778 2722 
Q 1491 2722 1303 2513 
Q 1116 2303 1119 1944 
L 2431 1944 
z
" transform="scale(0.015625)"/>
       <path id="Arial-BoldMT-6d" d="M 394 3319 
L 1203 3319 
L 1203 2866 
Q 1638 3394 2238 3394 
Q 2556 3394 2790 3262 
Q 3025 3131 3175 2866 
Q 3394 3131 3647 3262 
Q 3900 3394 4188 3394 
Q 4553 3394 4806 3245 
Q 5059 3097 5184 2809 
Q 5275 2597 5275 2122 
L 5275 0 
L 4397 0 
L 4397 1897 
Q 4397 2391 4306 2534 
Q 4184 2722 3931 2722 
Q 3747 2722 3584 2609 
Q 3422 2497 3350 2280 
Q 3278 2063 3278 1594 
L 3278 0 
L 2400 0 
L 2400 1819 
Q 2400 2303 2353 2443 
Q 2306 2584 2207 2653 
Q 2109 2722 1941 2722 
Q 1738 2722 1575 2612 
Q 1413 2503 1342 2297 
Q 1272 2091 1272 1613 
L 1272 0 
L 394 0 
L 394 3319 
z
" transform="scale(0.015625)"/>
       <path id="Arial-BoldMT-69" d="M 459 3769 
L 459 4581 
L 1338 4581 
L 1338 3769 
L 459 3769 
z
M 459 0 
L 459 3319 
L 1338 3319 
L 1338 0 
L 459 0 
z
" transform="scale(0.015625)"/>
       <path id="Arial-BoldMT-63" d="M 3353 2338 
L 2488 2181 
Q 2444 2441 2289 2572 
Q 2134 2703 1888 2703 
Q 1559 2703 1364 2476 
Q 1169 2250 1169 1719 
Q 1169 1128 1367 884 
Q 1566 641 1900 641 
Q 2150 641 2309 783 
Q 2469 925 2534 1272 
L 3397 1125 
Q 3263 531 2881 228 
Q 2500 -75 1859 -75 
Q 1131 -75 698 384 
Q 266 844 266 1656 
Q 266 2478 700 2936 
Q 1134 3394 1875 3394 
Q 2481 3394 2839 3133 
Q 3197 2872 3353 2338 
z
" transform="scale(0.015625)"/>
       <path id="Arial-BoldMT-61" d="M 1116 2306 
L 319 2450 
Q 453 2931 781 3162 
Q 1109 3394 1756 3394 
Q 2344 3394 2631 3255 
Q 2919 3116 3036 2902 
Q 3153 2688 3153 2116 
L 3144 1091 
Q 3144 653 3186 445 
Q 3228 238 3344 0 
L 2475 0 
Q 2441 88 2391 259 
Q 2369 338 2359 363 
Q 2134 144 1878 34 
Q 1622 -75 1331 -75 
Q 819 -75 523 203 
Q 228 481 228 906 
Q 228 1188 362 1408 
Q 497 1628 739 1745 
Q 981 1863 1438 1950 
Q 2053 2066 2291 2166 
L 2291 2253 
Q 2291 2506 2166 2614 
Q 2041 2722 1694 2722 
Q 1459 2722 1328 2630 
Q 1197 2538 1116 2306 
z
M 2291 1594 
Q 2122 1538 1756 1459 
Q 1391 1381 1278 1306 
Q 1106 1184 1106 997 
Q 1106 813 1243 678 
Q 1381 544 1594 544 
Q 1831 544 2047 700 
Q 2206 819 2256 991 
Q 2291 1103 2291 1419 
L 2291 1594 
z
" transform="scale(0.015625)"/>
       <path id="Arial-BoldMT-6c" d="M 459 0 
L 459 4581 
L 1338 4581 
L 1338 0 
L 459 0 
z
" transform="scale(0.015625)"/>
       <path id="Arial-BoldMT-20" transform="scale(0.015625)"/>
       <path id="Arial-BoldMT-53" d="M 231 1491 
L 1131 1578 
Q 1213 1125 1461 912 
Q 1709 700 2131 700 
Q 2578 700 2804 889 
Q 3031 1078 3031 1331 
Q 3031 1494 2936 1608 
Q 2841 1722 2603 1806 
Q 2441 1863 1863 2006 
Q 1119 2191 819 2459 
Q 397 2838 397 3381 
Q 397 3731 595 4036 
Q 794 4341 1167 4500 
Q 1541 4659 2069 4659 
Q 2931 4659 3367 4281 
Q 3803 3903 3825 3272 
L 2900 3231 
Q 2841 3584 2645 3739 
Q 2450 3894 2059 3894 
Q 1656 3894 1428 3728 
Q 1281 3622 1281 3444 
Q 1281 3281 1419 3166 
Q 1594 3019 2269 2859 
Q 2944 2700 3267 2529 
Q 3591 2359 3773 2064 
Q 3956 1769 3956 1334 
Q 3956 941 3737 597 
Q 3519 253 3119 86 
Q 2719 -81 2122 -81 
Q 1253 -81 787 320 
Q 322 722 231 1491 
z
" transform="scale(0.015625)"/>
       <path id="Arial-BoldMT-66" d="M 75 3319 
L 563 3319 
L 563 3569 
Q 563 3988 652 4194 
Q 741 4400 980 4529 
Q 1219 4659 1584 4659 
Q 1959 4659 2319 4547 
L 2200 3934 
Q 1991 3984 1797 3984 
Q 1606 3984 1523 3895 
Q 1441 3806 1441 3553 
L 1441 3319 
L 2097 3319 
L 2097 2628 
L 1441 2628 
L 1441 0 
L 563 0 
L 563 2628 
L 75 2628 
L 75 3319 
z
" transform="scale(0.015625)"/>
       <path id="Arial-BoldMT-74" d="M 1981 3319 
L 1981 2619 
L 1381 2619 
L 1381 1281 
Q 1381 875 1398 808 
Q 1416 741 1477 697 
Q 1538 653 1625 653 
Q 1747 653 1978 738 
L 2053 56 
Q 1747 -75 1359 -75 
Q 1122 -75 931 4 
Q 741 84 652 211 
Q 563 338 528 553 
Q 500 706 500 1172 
L 500 2619 
L 97 2619 
L 97 3319 
L 500 3319 
L 500 3978 
L 1381 4491 
L 1381 3319 
L 1981 3319 
z
" transform="scale(0.015625)"/>
       <path id="Arial-BoldMT-2f" d="M -9 -78 
L 1125 4659 
L 1784 4659 
L 638 -78 
L -9 -78 
z
" transform="scale(0.015625)"/>
       <path id="Arial-BoldMT-70" d="M 434 3319 
L 1253 3319 
L 1253 2831 
Q 1413 3081 1684 3237 
Q 1956 3394 2288 3394 
Q 2866 3394 3269 2941 
Q 3672 2488 3672 1678 
Q 3672 847 3265 386 
Q 2859 -75 2281 -75 
Q 2006 -75 1782 34 
Q 1559 144 1313 409 
L 1313 -1263 
L 434 -1263 
L 434 3319 
z
M 1303 1716 
Q 1303 1156 1525 889 
Q 1747 622 2066 622 
Q 2372 622 2575 867 
Q 2778 1113 2778 1672 
Q 2778 2194 2568 2447 
Q 2359 2700 2050 2700 
Q 1728 2700 1515 2451 
Q 1303 2203 1303 1716 
z
" transform="scale(0.015625)"/>
      </defs>
      <use xlink:href="#Arial-BoldMT-43"/>
      <use xlink:href="#Arial-BoldMT-68" x="72.216797"/>
      <use xlink:href="#Arial-BoldMT-65" x="133.300781"/>
      <use xlink:href="#Arial-BoldMT-6d" x="188.916016"/>
      <use xlink:href="#Arial-BoldMT-69" x="277.832031"/>
      <use xlink:href="#Arial-BoldMT-63" x="305.615234"/>
      <use xlink:href="#Arial-BoldMT-61" x="361.230469"/>
      <use xlink:href="#Arial-BoldMT-6c" x="416.845703"/>
      <use xlink:href="#Arial-BoldMT-20" x="444.628906"/>
      <use xlink:href="#Arial-BoldMT-53" x="472.412109"/>
      <use xlink:href="#Arial-BoldMT-68" x="539.111328"/>
      <use xlink:href="#Arial-BoldMT-69" x="600.195312"/>
      <use xlink:href="#Arial-BoldMT-66" x="627.978516"/>
      <use xlink:href="#Arial-BoldMT-74" x="661.279297"/>
      <use xlink:href="#Arial-BoldMT-20" x="694.580078"/>
      <use xlink:href="#Arial-BoldMT-2f" x="722.363281"/>
      <use xlink:href="#Arial-BoldMT-20" x="750.146484"/>
      <use xlink:href="#Arial-BoldMT-70" x="777.929688"/>
      <use xlink:href="#Arial-BoldMT-70" x="839.013672"/>
      <use xlink:href="#Arial-BoldMT-6d" x="900.097656"/>
     </g>
    </g>
   </g>
   <g id="matplotlib.axis_2"/>
   <g id="line2d_12">
    <path d="M 3.038267 189.085401 
L 3.447507 188.944227 
L 4.061366 188.667661 
L 5.084464 188.753189 
L 6.312183 188.758668 
L 6.926042 188.664806 
L 8.35838 188.743351 
L 9.176859 188.669368 
L 9.995338 188.976469 
L 12.041535 188.916217 
L 13.064634 188.930344 
L 14.496972 188.733224 
L 15.52007 188.937786 
L 16.952409 189.35607 
L 17.566268 189.370708 
L 18.384747 189.039982 
L 18.998606 188.916282 
L 20.430944 189.000488 
L 21.249423 188.938372 
L 23.091 189.032452 
L 23.909479 188.900611 
L 25.546437 189.061346 
L 26.364916 189.1093 
L 27.797254 188.554981 
L 29.434212 188.633204 
L 30.048071 188.386314 
L 30.66193 188.52747 
L 31.275789 188.626781 
L 32.708128 188.447342 
L 34.140466 188.803112 
L 35.163564 188.499737 
L 35.777423 188.666487 
L 36.800522 188.987975 
L 37.619001 189.011385 
L 38.23286 189.076432 
L 40.279057 188.641597 
L 42.325255 188.540641 
L 42.939114 188.725301 
L 43.552973 188.801027 
L 44.166832 188.567368 
L 44.780691 188.278903 
L 45.189931 188.271805 
L 46.00841 188.546703 
L 46.826889 188.900438 
L 48.054607 188.984383 
L 48.668466 188.975846 
L 50.510044 188.634351 
L 52.556241 188.889526 
L 53.1701 188.728351 
L 53.57934 188.901032 
L 54.193199 189.406877 
L 54.602438 189.415059 
L 56.034776 188.822995 
L 57.057875 189.323255 
L 57.671734 189.224915 
L 58.490213 189.021909 
L 59.308692 189.070446 
L 59.922551 189.144862 
L 60.53641 188.851872 
L 61.559509 188.20857 
L 62.787227 188.140784 
L 63.810326 188.23131 
L 64.833425 188.129527 
L 66.265763 187.97905 
L 67.493481 188.525157 
L 69.130439 188.388626 
L 70.767397 188.240957 
L 71.176636 188.361748 
L 71.790495 188.637992 
L 72.404355 188.609545 
L 73.427453 188.317318 
L 74.041312 188.49619 
L 74.859791 188.790804 
L 75.47365 188.665506 
L 76.08751 188.512613 
L 76.701369 188.600031 
L 78.133707 188.898288 
L 79.566045 188.823495 
L 80.179904 188.668366 
L 80.793763 188.824508 
L 81.407622 188.971175 
L 83.45382 188.750946 
L 85.090778 189.519716 
L 86.113876 189.542073 
L 87.136975 189.138536 
L 87.955454 188.774677 
L 88.978552 188.367498 
L 89.592412 188.455696 
L 90.206271 188.508749 
L 92.252468 188.179268 
L 94.298665 188.577749 
L 95.526384 188.498971 
L 100.437257 188.935495 
L 101.255736 188.757136 
L 101.869595 188.503204 
L 102.483454 188.174672 
L 103.097314 188.222927 
L 103.711173 188.123404 
L 104.938891 187.879302 
L 105.96199 187.907735 
L 106.575849 188.141032 
L 107.189708 188.382927 
L 108.212807 188.226254 
L 110.463624 188.115562 
L 111.691342 188.528621 
L 112.91906 188.617305 
L 113.53292 188.83411 
L 114.146779 188.786819 
L 115.169877 188.705611 
L 115.988356 188.767918 
L 116.806835 189.033419 
L 117.420694 189.186141 
L 118.034554 189.096017 
L 118.853032 188.982481 
L 120.89923 189.492776 
L 121.922328 189.934968 
L 122.331568 189.760556 
L 123.763906 188.900268 
L 124.582385 188.75046 
L 125.196244 188.852563 
L 126.219343 189.315207 
L 127.037822 189.325734 
L 127.651681 189.160034 
L 129.084019 188.661753 
L 131.539456 188.753965 
L 132.153315 189.003675 
L 132.767174 188.980979 
L 133.790273 188.830544 
L 136.04109 189.008572 
L 136.450329 188.926613 
L 137.882667 188.247742 
L 138.905766 188.216084 
L 139.519625 188.443681 
L 140.338104 188.828703 
L 140.747343 188.787814 
L 141.361202 188.616443 
L 141.975062 188.702633 
L 143.4074 189.202237 
L 143.816639 189.333161 
L 144.225879 189.234747 
L 145.044358 188.918035 
L 146.476696 188.808419 
L 147.090555 189.164614 
L 148.522893 189.966909 
L 148.932132 189.970928 
L 149.341372 189.724005 
L 150.159851 189.048328 
L 150.77371 188.891658 
L 152.001428 188.740722 
L 152.819907 188.687376 
L 156.707682 188.66431 
L 157.321541 188.623049 
L 157.730781 188.57576 
L 158.958499 188.161444 
L 159.572358 188.234609 
L 161.413936 188.867415 
L 162.027795 188.826854 
L 162.641654 188.840418 
L 163.869372 188.695719 
L 165.30171 188.618593 
L 166.324809 188.467165 
L 167.143288 188.625037 
L 167.757147 188.603448 
L 168.575626 188.340858 
L 169.598725 188.461305 
L 170.007964 188.475689 
L 171.644922 188.996498 
L 172.668021 188.861157 
L 173.691119 188.981022 
L 175.328077 188.851429 
L 177.783514 188.549407 
L 178.397373 188.243532 
L 179.829711 188.095212 
L 180.44357 187.825798 
L 181.466669 187.714787 
L 182.285148 187.693695 
L 182.899007 187.989208 
L 183.717486 188.416329 
L 184.126725 188.349047 
L 184.945204 188.027025 
L 186.172923 187.897861 
L 186.582162 187.89693 
L 187.400641 188.19837 
L 188.42374 188.661481 
L 189.651458 188.84652 
L 191.493035 188.54419 
L 192.311514 188.172709 
L 193.129993 188.315798 
L 194.153092 188.49687 
L 195.176191 188.708952 
L 196.199289 189.000921 
L 197.631627 188.699825 
L 198.859346 188.249252 
L 199.677825 188.098151 
L 201.724022 188.194667 
L 202.542501 187.962637 
L 203.15636 187.874486 
L 204.179459 187.405381 
L 204.793318 187.575275 
L 205.816416 187.88919 
L 206.839515 187.867922 
L 207.657994 188.129172 
L 208.271853 187.94929 
L 209.090332 187.646188 
L 210.31805 187.690582 
L 211.341149 187.763945 
L 212.773487 188.110996 
L 214.205825 187.821851 
L 215.842783 188.111066 
L 217.070501 187.769688 
L 218.502839 187.815345 
L 219.321318 187.662898 
L 220.344417 187.748395 
L 221.776755 187.681124 
L 223.004473 187.191453 
L 223.618333 186.970938 
L 224.436812 187.163286 
L 226.892248 187.638109 
L 227.506107 187.758321 
L 233.440079 187.065176 
L 235.077037 187.559216 
L 235.895516 187.508855 
L 236.713995 187.682507 
L 237.327854 187.517663 
L 238.146333 187.300533 
L 239.783291 187.23989 
L 241.215629 187.2916 
L 242.238728 187.262035 
L 243.261826 187.189078 
L 244.284925 186.966696 
L 244.898784 187.026357 
L 245.512643 186.803032 
L 246.944981 186.043236 
L 248.1727 185.827882 
L 249.400418 185.884445 
L 250.423517 186.442672 
L 251.037376 186.368726 
L 251.855855 186.273058 
L 252.469714 186.232316 
L 254.925151 185.695605 
L 256.357489 185.627583 
L 257.175968 185.339172 
L 259.836024 184.688 
L 260.859123 184.686779 
L 261.268362 184.655831 
L 261.882222 184.351689 
L 263.723799 183.270603 
L 264.337658 183.166408 
L 264.746898 182.910884 
L 266.179236 181.707649 
L 266.793095 181.510562 
L 268.225433 180.409449 
L 268.839292 179.488156 
L 269.657771 178.229413 
L 270.27163 177.214382 
L 272.317828 172.471612 
L 272.931687 170.431147 
L 273.750166 166.795807 
L 274.364025 163.015788 
L 274.977884 157.795663 
L 275.591743 150.909994 
L 276.205602 141.020302 
L 276.819462 125.958587 
L 277.433321 104.312249 
L 279.479518 21.619723 
L 279.888757 14.376031 
L 280.093377 12.541436 
L 280.297997 11.905133 
L 280.502617 12.477299 
L 280.707236 14.269714 
L 281.116476 21.568442 
L 281.525715 33.79988 
L 282.139574 60.500531 
L 283.776532 140.149198 
L 284.390391 158.239005 
L 285.004251 169.514262 
L 285.61811 176.229413 
L 286.231969 180.19304 
L 286.845828 182.519324 
L 287.459687 183.893277 
L 288.278166 185.350394 
L 289.096645 186.227473 
L 289.505885 186.573612 
L 289.915124 186.621372 
L 291.552082 186.027119 
L 293.18904 186.116956 
L 294.621378 186.096569 
L 295.644476 185.614588 
L 296.667575 185.021718 
L 297.281434 184.906363 
L 299.123012 184.202723 
L 299.532251 184.029033 
L 300.35073 183.477667 
L 300.964589 183.394577 
L 301.783068 183.466675 
L 303.215406 184.447524 
L 304.238505 184.795759 
L 304.852364 184.780599 
L 305.466223 184.589952 
L 306.080083 184.060337 
L 306.898561 183.263728 
L 307.512421 183.112252 
L 308.330899 182.829799 
L 309.353998 182.331623 
L 310.172477 181.524953 
L 310.786336 180.920626 
L 311.400195 180.528747 
L 311.809435 179.984939 
L 312.423294 178.681668 
L 315.49259 171.460126 
L 316.106449 170.536495 
L 316.924928 169.700467 
L 317.948027 168.808847 
L 318.766506 167.63982 
L 319.175745 166.759594 
L 319.789604 164.790883 
L 320.608083 161.378517 
L 321.426562 157.027272 
L 322.449661 149.661134 
L 323.26814 142.287145 
L 324.086618 132.858509 
L 325.109717 118.166368 
L 327.155914 86.927223 
L 327.769774 81.307315 
L 328.179013 79.135402 
L 328.383633 78.699681 
L 328.588252 78.811726 
L 328.792872 79.427133 
L 329.202112 81.803045 
L 329.611351 85.849032 
L 330.22521 95.030246 
L 331.043689 111.716324 
L 332.680647 145.727107 
L 333.499126 158.902478 
L 334.317605 168.490207 
L 334.931464 173.318251 
L 335.545323 176.697752 
L 336.159182 179.159307 
L 336.773042 180.924646 
L 337.59152 182.52613 
L 338.409999 183.68019 
L 339.433098 184.844024 
L 340.251577 185.57068 
L 341.274676 186.011965 
L 342.093154 186.382423 
L 343.320873 187.230897 
L 345.57169 187.20306 
L 346.185549 187.017515 
L 346.594788 187.145345 
L 348.845605 188.41339 
L 349.254845 188.44309 
L 349.868704 188.424414 
L 350.891803 188.704573 
L 351.505662 188.411889 
L 352.119521 188.193298 
L 355.598056 188.346174 
L 358.258113 188.984511 
L 358.667352 188.884728 
L 359.485831 188.424088 
L 360.09969 188.502873 
L 360.918169 188.717535 
L 361.532028 188.699477 
L 362.555127 188.986465 
L 363.578226 188.964648 
L 364.192085 189.23154 
L 365.419803 189.825364 
L 366.033662 189.521698 
L 366.442902 189.385152 
L 367.67062 189.24237 
L 368.898339 188.808031 
L 369.716818 188.378996 
L 370.535296 188.40432 
L 371.353775 188.362527 
L 371.967635 188.263723 
L 372.581494 188.452963 
L 373.399973 188.705881 
L 374.013832 188.701803 
L 374.832311 188.56711 
L 375.24155 188.81924 
L 376.060029 189.565069 
L 376.469269 189.680923 
L 377.083128 189.363896 
L 377.492367 189.250935 
L 379.129325 189.353306 
L 379.947804 189.102971 
L 380.357043 189.04093 
L 381.380142 189.204005 
L 382.403241 188.936221 
L 383.0171 189.080393 
L 383.835579 189.270135 
L 385.063297 188.937004 
L 385.677156 188.962938 
L 386.700255 188.651624 
L 387.109494 188.946433 
L 387.723353 189.502385 
L 388.132593 189.527762 
L 389.769551 188.965702 
L 390.38341 188.99547 
L 391.406509 189.196185 
L 392.020368 189.00255 
L 392.634227 188.78039 
L 393.452706 188.832114 
L 395.089664 189.017387 
L 395.908143 188.891714 
L 397.74972 189.273602 
L 398.363579 188.966385 
L 399.182058 188.396056 
L 400.614396 188.168806 
L 401.228255 188.177193 
L 402.660594 188.657906 
L 404.706791 188.459266 
L 405.52527 188.298376 
L 406.957608 188.457021 
L 407.980706 188.33837 
L 410.231523 188.333846 
L 411.459242 188.583455 
L 413.0962 188.646224 
L 414.528538 188.105706 
L 415.960876 188.719248 
L 416.574735 188.985544 
L 417.188594 188.844297 
L 417.802453 188.742912 
L 418.825552 188.711814 
L 419.439411 188.427218 
L 419.848651 188.475905 
L 420.871749 188.861037 
L 421.894848 188.904984 
L 422.508707 188.891344 
L 423.122566 188.857376 
L 423.736425 188.848657 
L 424.964144 188.694952 
L 426.191862 188.665987 
L 429.261158 188.004406 
L 429.875017 188.235077 
L 431.102736 189.006658 
L 432.944313 189.020944 
L 433.762792 188.775759 
L 434.581271 188.718642 
L 435.19513 188.658969 
L 435.808989 188.850668 
L 436.627468 189.176526 
L 438.264426 189.147448 
L 439.492144 189.254923 
L 440.515243 188.91014 
L 441.742961 189.092061 
L 442.356821 189.026399 
L 443.993778 188.53813 
L 445.016877 188.677999 
L 446.039976 188.705385 
L 447.267694 189.055583 
L 448.086173 189.193522 
L 448.495412 189.282169 
L 449.109272 189.137023 
L 449.723131 188.975268 
L 450.54161 188.861068 
L 451.155469 188.765631 
L 452.587807 188.717325 
L 453.406286 188.465508 
L 454.224765 188.726888 
L 456.066342 189.096899 
L 458.11254 189.109667 
L 458.726399 189.242573 
L 460.977216 189.10161 
L 462.409554 188.775975 
L 463.023413 188.905576 
L 464.046512 189.036507 
L 464.86499 189.275094 
L 465.47885 189.541107 
L 465.888089 189.462826 
L 466.911188 188.9021 
L 467.729667 188.874232 
L 469.366624 188.273591 
L 470.594343 188.350112 
L 471.412822 188.248049 
L 472.026681 188.458616 
L 472.64054 188.642433 
L 474.072878 188.704555 
L 474.686737 188.880849 
L 475.709836 188.868481 
L 476.937554 188.65655 
L 477.346794 188.45617 
L 477.756033 188.500943 
L 478.574512 188.737586 
L 479.392991 188.696765 
L 480.21147 188.618127 
L 480.825329 188.768072 
L 481.643808 189.074642 
L 482.462287 189.02677 
L 483.485386 189.267179 
L 484.303865 189.262834 
L 484.713104 189.018278 
L 485.531583 188.407746 
L 486.145442 188.231442 
L 487.168541 188.247776 
L 487.98702 188.21531 
L 488.600879 188.206384 
L 489.828597 187.8853 
L 491.874794 188.075237 
L 493.102513 188.608976 
L 493.920992 188.382485 
L 495.14871 187.953451 
L 495.967189 187.669371 
L 496.581048 187.883605 
L 498.831865 188.774075 
L 499.445724 188.903188 
L 500.059583 188.565557 
L 500.468823 188.39717 
L 501.082682 188.433159 
L 501.696541 188.460698 
L 502.51502 188.344528 
L 503.333499 188.324262 
L 503.947358 188.062468 
L 504.561217 187.858911 
L 506.198175 187.969224 
L 507.016654 188.261826 
L 507.630513 188.247822 
L 508.858232 188.01939 
L 510.49519 187.933539 
L 511.109049 187.825091 
L 511.518288 187.975651 
L 512.132147 188.225219 
L 512.746007 188.087503 
L 513.564485 187.740603 
L 514.792204 187.118855 
L 515.406063 187.038511 
L 517.247641 186.886856 
L 519.498458 186.722952 
L 520.316936 186.860586 
L 521.749275 186.717583 
L 523.386232 185.506672 
L 524.81857 184.545352 
L 525.841669 184.454703 
L 526.455528 184.149926 
L 527.478627 183.372951 
L 528.092486 182.963373 
L 529.729444 182.323928 
L 531.161782 181.299512 
L 532.3895 179.97292 
L 533.821838 178.060872 
L 534.435698 176.860229 
L 535.663416 174.089381 
L 537.914233 169.472289 
L 538.528092 168.231466 
L 540.778909 162.006627 
L 542.211247 156.323764 
L 543.438966 149.977824 
L 545.894402 135.253191 
L 546.917501 128.123911 
L 548.759078 113.217021 
L 550.600656 96.947522 
L 552.237614 80.836682 
L 553.260712 70.704008 
L 553.669952 68.593667 
L 553.874572 68.229021 
L 554.079191 68.345513 
L 554.283811 68.931235 
L 554.693051 71.378834 
L 555.30691 77.668556 
L 555.920769 86.67453 
L 557.966966 122.850168 
L 558.580825 140.423614 
L 558.785445 142.840287 
L 558.990065 142.949243 
L 559.603924 140.678325 
L 560.013163 139.383099 
L 560.422403 136.712209 
L 561.854741 124.266823 
L 562.26398 122.802439 
L 562.4686 122.430714 
L 562.67322 122.324646 
L 562.87784 122.480177 
L 563.287079 123.412202 
L 563.900938 125.856399 
L 564.924037 131.414619 
L 568.607192 151.846295 
L 571.881108 165.332353 
L 573.108826 168.82986 
L 574.131925 171.159772 
L 575.155023 173.021131 
L 578.428939 178.166046 
L 581.498235 181.504698 
L 582.316714 182.015965 
L 582.930573 182.402971 
L 584.158291 183.412627 
L 584.77215 183.588604 
L 585.38601 183.755921 
L 587.636827 185.099704 
L 589.273784 185.840165 
L 589.683024 185.83546 
L 590.501503 185.499564 
L 591.115362 185.313861 
L 591.524601 185.499266 
L 593.161559 186.783604 
L 594.389278 187.091986 
L 595.616996 187.048117 
L 596.230855 186.92717 
L 597.458573 187.210706 
L 599.095531 187.627502 
L 600.11863 187.587295 
L 601.346348 187.442751 
L 602.164827 187.486384 
L 602.983306 187.463604 
L 604.620264 187.771449 
L 606.461841 187.664452 
L 607.28032 187.85208 
L 609.121898 187.983483 
L 610.963475 188.63757 
L 611.372715 188.583361 
L 612.600433 188.043733 
L 613.214292 188.071552 
L 616.078969 187.609225 
L 616.692828 187.742819 
L 617.715926 188.049102 
L 619.762124 188.379778 
L 623.854518 187.625861 
L 625.491476 188.034311 
L 627.537673 188.144818 
L 628.356152 188.288155 
L 629.99311 187.932891 
L 630.606969 188.039945 
L 632.039307 188.528712 
L 634.290124 188.160656 
L 635.517843 187.705765 
L 637.35942 188.236234 
L 637.973279 188.218958 
L 639.405617 188.577533 
L 640.428716 188.411035 
L 641.247195 188.496121 
L 642.679533 189.082845 
L 643.498012 188.961465 
L 645.748829 188.311093 
L 647.999646 188.165463 
L 648.818125 188.083772 
L 650.864322 188.221742 
L 651.478181 188.234559 
L 652.29666 188.219012 
L 653.115139 188.40514 
L 653.728998 188.600993 
L 655.570576 188.529326 
L 657.002914 188.028672 
L 658.435252 187.707457 
L 659.66297 187.7935 
L 660.27683 187.599719 
L 660.686069 187.50113 
L 661.299928 187.674334 
L 661.709168 187.746251 
L 662.936886 187.704898 
L 663.550745 187.839763 
L 664.573844 187.741303 
L 666.006182 187.198317 
L 666.620041 187.323263 
L 668.256999 188.278273 
L 668.870858 188.234906 
L 671.735534 187.980941 
L 672.554013 188.03621 
L 673.167872 187.783365 
L 675.00945 187.067952 
L 675.623309 187.044876 
L 677.464887 187.182926 
L 678.078746 187.041715 
L 678.897225 186.677334 
L 680.943422 186.527899 
L 681.761901 186.095121 
L 682.37576 185.819688 
L 683.808098 185.48127 
L 685.035817 185.071349 
L 686.058915 184.089393 
L 686.672774 183.397345 
L 687.491253 182.074015 
L 688.309732 180.219474 
L 689.332831 177.43199 
L 689.94669 174.828621 
L 690.560549 170.843568 
L 691.174408 165.205285 
L 691.788268 156.5926 
L 692.197507 148.048023 
L 692.606746 136.21774 
L 693.220606 110.946636 
L 693.629845 93.827318 
L 693.834465 89.037369 
L 694.039084 88.417733 
L 694.243704 91.772739 
L 695.266803 118.178648 
L 695.471423 119.575442 
L 695.676042 119.280924 
L 695.880662 117.283236 
L 696.289901 108.227551 
L 697.10838 82.763356 
L 697.313 82.143339 
L 697.51762 85.938899 
L 698.745338 128.668242 
L 699.154578 133.634369 
L 699.359197 134.238407 
L 699.563817 133.668071 
L 699.768437 131.922109 
L 700.177676 124.711223 
L 700.586916 112.398908 
L 701.200775 91.310635 
L 701.405395 88.378916 
L 701.610014 89.452718 
L 702.019254 100.842459 
L 702.633113 119.20861 
L 703.042352 124.200911 
L 703.246972 124.235079 
L 703.451592 122.639403 
L 703.860831 114.850927 
L 704.67931 95.036039 
L 704.88393 96.097162 
L 705.08855 101.260382 
L 706.520888 155.695652 
L 707.134747 166.282935 
L 707.748606 172.745182 
L 708.362465 176.885186 
L 708.976325 179.685394 
L 709.794803 182.348773 
L 710.408663 183.808455 
L 711.022522 184.701472 
L 712.45486 185.977414 
L 712.864099 186.176198 
L 713.273339 186.183392 
L 714.091818 186.041823 
L 714.705677 186.269315 
L 715.933395 186.82084 
L 716.547254 187.127241 
L 717.161114 187.441579 
L 717.774973 187.49151 
L 718.388832 187.526412 
L 719.61655 187.866707 
L 720.02579 188.09188 
L 720.435029 188.120901 
L 721.253508 187.839521 
L 721.662748 187.71878 
L 722.071987 187.798227 
L 722.890466 188.058769 
L 725.550522 188.215302 
L 726.982861 187.765568 
L 728.210579 187.783425 
L 728.824438 187.851184 
L 729.847537 188.17321 
L 731.689114 187.849508 
L 732.507593 187.785158 
L 733.530692 187.552371 
L 733.939931 187.699493 
L 734.75841 188.114673 
L 737.009227 188.436899 
L 737.418467 188.25009 
L 739.055424 187.011629 
L 739.873903 185.714365 
L 740.487762 184.363089 
L 741.101622 183.014997 
L 741.306241 182.993957 
L 741.510861 183.290576 
L 742.53396 185.66904 
L 743.147819 186.417665 
L 744.784777 187.955089 
L 745.603256 188.76029 
L 746.012495 188.855886 
L 746.626354 188.855456 
L 747.649453 189.069996 
L 748.877171 188.868104 
L 750.309509 188.802635 
L 750.923369 188.457093 
L 751.332608 188.249262 
L 751.946467 188.257388 
L 754.401904 188.983166 
L 755.015763 189.155254 
L 756.038862 188.959805 
L 756.652721 188.929637 
L 757.26658 188.972795 
L 758.698918 188.630531 
L 759.108158 188.765684 
L 759.926637 189.299064 
L 760.335876 189.223786 
L 761.154355 188.821529 
L 761.768214 188.798422 
L 763.609792 188.959359 
L 765.04213 188.934733 
L 765.860609 188.73732 
L 766.679088 188.779472 
L 767.702186 188.658396 
L 768.520665 188.737346 
L 769.543764 189.13739 
L 769.953003 188.971322 
L 770.771482 188.537625 
L 771.385341 188.615236 
L 771.9992 188.65306 
L 774.045398 188.647937 
L 774.863877 188.758596 
L 776.296215 188.818053 
L 776.910074 188.789086 
L 777.523933 189.028246 
L 777.933172 189.172776 
L 778.342412 189.101143 
L 779.57013 188.500717 
L 780.183989 188.556569 
L 781.411708 188.875587 
L 782.025567 189.036686 
L 783.253285 189.054152 
L 784.481004 188.899513 
L 785.299483 188.528063 
L 785.913342 188.507132 
L 787.14106 188.630361 
L 787.959539 188.467982 
L 788.778018 188.272344 
L 789.391877 188.284886 
L 791.233455 188.819036 
L 792.256553 188.757636 
L 792.665793 188.737633 
L 793.075032 188.958971 
L 793.688891 189.321384 
L 794.098131 189.201151 
L 794.71199 188.865947 
L 795.325849 188.860553 
L 795.939708 188.819842 
L 796.553568 188.81474 
L 797.576666 189.263965 
L 799.009004 189.171541 
L 800.441342 189.101444 
L 801.464441 188.896702 
L 801.873681 188.794229 
L 802.692159 188.412899 
L 803.306019 188.450909 
L 805.761455 189.540216 
L 806.375315 189.252007 
L 806.989174 189.037829 
L 807.807653 188.835767 
L 808.421512 188.64991 
L 809.035371 188.825155 
L 809.85385 189.156174 
L 813.332385 188.93008 
L 814.150864 188.813435 
L 814.764723 188.745219 
L 816.606301 188.274149 
L 817.22016 188.296683 
L 817.834019 188.607552 
L 818.652498 189.124989 
L 819.061738 189.19446 
L 819.470977 189.023973 
L 820.084836 188.659582 
L 821.107935 188.501393 
L 822.131033 188.625783 
L 823.358752 188.387354 
L 824.58647 188.507534 
L 825.404949 188.835786 
L 826.018808 188.831389 
L 827.451146 188.322854 
L 829.701963 189.02027 
L 830.111203 189.040016 
L 831.338921 188.868968 
L 832.36202 188.816859 
L 833.385118 188.62001 
L 833.998978 188.708362 
L 834.817457 189.09971 
L 835.431316 189.304711 
L 836.045175 189.245343 
L 836.659034 189.139699 
L 837.682133 189.325009 
L 838.295992 188.906978 
L 838.909851 188.574156 
L 839.52371 188.502613 
L 840.137569 188.881638 
L 840.956048 189.253422 
L 841.569908 189.26237 
L 842.797626 188.994516 
L 843.411485 188.871141 
L 845.662302 188.138917 
L 846.89002 187.981135 
L 847.50388 188.041345 
L 849.140837 188.722795 
L 849.754697 188.597604 
L 850.982415 188.280249 
L 852.414753 188.355538 
L 854.256331 188.979125 
L 855.688669 188.632562 
L 856.302528 188.835226 
L 856.916387 189.132482 
L 857.530246 189.127265 
L 858.348725 189.008008 
L 859.167204 189.223091 
L 859.781063 189.388301 
L 860.394922 189.198299 
L 861.82726 188.668937 
L 863.464218 188.807073 
L 865.715035 188.326524 
L 866.533514 187.961559 
L 868.784331 187.835542 
L 869.193571 188.027803 
L 870.01205 188.527258 
L 870.830528 188.739739 
L 871.649007 188.634566 
L 872.672106 188.456648 
L 873.899824 187.805435 
L 874.922923 188.039241 
L 875.332162 187.890286 
L 877.992219 185.669339 
L 878.606078 184.566576 
L 879.219937 182.835764 
L 879.833796 180.248713 
L 880.243036 177.727882 
L 880.652275 174.19193 
L 881.266135 166.50067 
L 881.675374 161.2986 
L 881.879994 159.918585 
L 882.084613 159.77926 
L 882.289233 160.677584 
L 882.903092 164.616544 
L 883.107712 165.141305 
L 883.312332 165.042055 
L 883.516952 164.313191 
L 883.926191 160.917987 
L 884.33543 154.630288 
L 885.153909 139.515746 
L 885.358529 139.721033 
L 885.563149 142.437302 
L 886.586247 162.052191 
L 886.995487 165.447195 
L 887.200107 166.177607 
L 887.404726 166.315396 
L 887.609346 165.902825 
L 888.018585 163.836852 
L 888.427825 161.952469 
L 888.632445 162.174032 
L 888.837064 163.507699 
L 890.269402 178.211439 
L 890.883262 181.067255 
L 891.497121 182.706451 
L 892.3156 184.23778 
L 892.929459 184.918012 
L 893.543318 185.335684 
L 894.566417 185.800411 
L 895.384896 186.281963 
L 895.998755 186.319205 
L 897.431093 186.093271 
L 898.658811 185.520512 
L 899.27267 185.289533 
L 900.705009 185.330267 
L 901.318868 185.425895 
L 901.932727 185.196649 
L 902.546586 184.996156 
L 903.160445 184.853268 
L 904.388164 184.064382 
L 904.797403 183.701096 
L 906.229741 182.049022 
L 907.25284 181.216564 
L 908.275938 180.650635 
L 908.889798 179.835293 
L 909.708277 178.699135 
L 910.117516 178.520475 
L 910.526755 178.412701 
L 911.140615 177.924643 
L 912.163713 176.859459 
L 913.186812 176.565231 
L 914.61915 175.287403 
L 915.233009 175.276653 
L 916.256108 175.739137 
L 916.665347 176.155138 
L 917.279206 177.233516 
L 919.530023 182.27303 
L 920.143883 184.127653 
L 920.348502 184.24519 
L 920.553122 184.013113 
L 921.576221 182.107857 
L 923.622418 179.710628 
L 924.031657 179.608262 
L 924.440897 179.684873 
L 925.463995 180.124337 
L 926.077855 180.152608 
L 926.487094 180.449067 
L 927.100953 181.206125 
L 928.124052 182.593314 
L 928.942531 183.277793 
L 929.76101 183.950255 
L 930.374869 184.398539 
L 931.397968 184.745783 
L 932.830306 185.85051 
L 935.694982 186.587335 
L 936.308841 186.87972 
L 936.71808 186.788117 
L 937.536559 186.421021 
L 937.945799 186.424324 
L 938.764278 186.601463 
L 939.378137 186.424603 
L 939.787376 186.112282 
L 940.605855 185.126985 
L 941.424334 183.758092 
L 942.038193 182.176685 
L 942.447433 180.603 
L 942.856672 178.342778 
L 943.470531 173.215104 
L 943.879771 168.137568 
L 944.28901 160.571615 
L 944.69825 149.277694 
L 945.721348 116.200475 
L 945.925968 115.279728 
L 946.130588 117.652747 
L 946.539827 129.42866 
L 947.358306 155.285143 
L 947.972165 166.722307 
L 948.586025 173.424879 
L 949.199884 177.296329 
L 949.813743 179.625163 
L 950.427602 180.984528 
L 951.246081 182.105889 
L 951.85994 182.593997 
L 952.473799 182.74147 
L 953.292278 182.853181 
L 953.906138 183.130561 
L 954.724616 183.82778 
L 956.361574 185.30088 
L 956.975433 185.475383 
L 957.384673 185.435369 
L 957.793912 185.189397 
L 958.407772 184.385355 
L 959.021631 183.543222 
L 960.044729 182.638836 
L 960.658589 181.430505 
L 961.477067 179.854029 
L 961.681687 179.669091 
L 961.886307 179.650929 
L 962.295546 180.095127 
L 962.909405 181.368789 
L 963.727884 183.2682 
L 964.546363 184.391115 
L 966.79718 186.72398 
L 967.411039 186.781487 
L 969.661856 186.508676 
L 970.275716 186.440438 
L 973.345012 186.641409 
L 973.958871 186.465717 
L 975.186589 186.31125 
L 975.595829 186.641418 
L 976.414307 187.399321 
L 977.232786 187.930256 
L 977.846646 188.376404 
L 978.869744 188.662445 
L 979.278984 188.650949 
L 980.097463 188.50703 
L 980.711322 188.580639 
L 981.73442 188.744486 
L 982.34828 188.689247 
L 983.166758 188.346443 
L 984.189857 187.898011 
L 984.803716 187.917711 
L 986.236054 188.175172 
L 987.054533 188.324815 
L 988.282252 188.321316 
L 988.691491 188.215966 
L 989.71459 187.74671 
L 990.328449 188.081523 
L 991.146928 188.460824 
L 991.965407 188.738121 
L 992.579266 188.783484 
L 993.806984 188.386947 
L 994.625463 188.061393 
L 996.057801 187.394804 
L 997.28552 187.271243 
L 1000.150196 188.219874 
L 1000.764055 188.237536 
L 1004.856449 189.095157 
L 1007.107266 188.874057 
L 1007.721126 188.902846 
L 1009.358083 188.655472 
L 1011.199661 188.60419 
L 1012.836619 188.331548 
L 1015.087436 188.847241 
L 1015.701295 188.888541 
L 1016.724394 189.210693 
L 1018.565971 189.284861 
L 1020.202929 188.800045 
L 1021.635267 189.057329 
L 1022.249126 188.912789 
L 1023.681464 188.391624 
L 1025.113802 188.567645 
L 1025.727662 188.545987 
L 1026.341521 188.851791 
L 1026.95538 189.118511 
L 1027.773859 189.026793 
L 1028.592338 188.779503 
L 1029.206197 188.551919 
L 1029.615436 188.633087 
L 1030.229296 188.8166 
L 1032.070873 188.900941 
L 1032.684732 188.831082 
L 1033.503211 188.580406 
L 1034.935549 188.455395 
L 1037.390986 188.345868 
L 1038.004845 188.283276 
L 1039.027944 188.44926 
L 1040.051042 188.760826 
L 1041.074141 188.665858 
L 1041.89262 188.603504 
L 1044.552676 188.148759 
L 1045.780395 188.422229 
L 1047.008113 188.214058 
L 1047.621972 188.502321 
L 1048.440451 189.007522 
L 1049.66817 189.214233 
L 1051.918987 189.102891 
L 1054.783663 189.018104 
L 1055.806761 188.731737 
L 1056.82986 188.576356 
L 1057.443719 188.705428 
L 1058.262198 188.894875 
L 1059.080677 188.783346 
L 1060.103776 188.482637 
L 1060.513015 188.637835 
L 1061.331494 189.122344 
L 1061.945353 189.077327 
L 1062.763832 189.069321 
L 1064.19617 189.190074 
L 1064.810029 189.278534 
L 1065.219269 189.154197 
L 1066.037748 188.744789 
L 1066.446987 188.771989 
L 1067.879325 189.210792 
L 1069.107044 189.396851 
L 1069.925523 189.284934 
L 1070.744002 188.99159 
L 1071.7671 188.948376 
L 1073.608678 188.744547 
L 1074.222537 189.123602 
L 1074.631776 189.338851 
L 1075.245636 189.346734 
L 1076.064114 189.192232 
L 1076.677974 189.064715 
L 1077.291833 188.990152 
L 1078.519551 188.593838 
L 1079.33803 188.614867 
L 1080.974988 188.842751 
L 1081.588847 188.691251 
L 1082.202706 188.556549 
L 1083.021185 188.666333 
L 1084.453523 188.944537 
L 1085.885861 188.892382 
L 1086.49972 189.181102 
L 1087.522819 189.748352 
L 1088.136678 189.763522 
L 1090.796735 189.176653 
L 1093.047552 188.373226 
L 1093.661411 188.140227 
L 1094.07065 188.234835 
L 1095.093749 188.628008 
L 1096.730707 188.721536 
L 1100.209242 188.389071 
L 1101.8462 188.71157 
L 1102.869299 188.941304 
L 1103.687778 189.085843 
L 1105.324735 188.927393 
L 1106.552454 189.06865 
L 1107.166313 188.717118 
L 1107.780172 188.343581 
L 1108.394031 188.286935 
L 1109.41713 188.513743 
L 1111.054088 188.410549 
L 1112.281806 188.614693 
L 1113.304905 188.440576 
L 1114.328003 188.078947 
L 1114.737243 188.100411 
L 1115.351102 188.236785 
L 1116.169581 188.261585 
L 1116.78344 188.571402 
L 1117.397299 188.826915 
L 1118.011158 188.708313 
L 1119.034257 188.37782 
L 1119.443496 188.547057 
L 1120.466595 189.331873 
L 1120.875835 189.345222 
L 1121.898933 188.93079 
L 1122.512792 188.731076 
L 1123.331271 188.626579 
L 1123.94513 188.511474 
L 1125.991328 188.678118 
L 1127.014426 188.771016 
L 1128.037525 188.816368 
L 1129.879103 189.318532 
L 1131.72068 189.004263 
L 1132.334539 189.022003 
L 1133.766877 188.606266 
L 1134.380737 188.360575 
L 1135.813075 188.44286 
L 1137.040793 188.860781 
L 1138.268511 188.910307 
L 1139.700849 188.722362 
L 1140.314709 188.67486 
L 1141.337807 188.513959 
L 1143.179385 188.673443 
L 1144.202483 188.653685 
L 1146.044061 188.760694 
L 1146.86254 188.854564 
L 1147.476399 189.01239 
L 1148.294878 188.757553 
L 1149.113357 188.409278 
L 1149.727216 188.347073 
L 1154.22885 188.893181 
L 1155.865808 188.050334 
L 1156.479667 188.32626 
L 1157.093526 188.566168 
L 1159.139723 188.784483 
L 1160.367442 188.685183 
L 1161.185921 188.438919 
L 1161.59516 188.545446 
L 1162.209019 188.788022 
L 1162.822879 188.745119 
L 1163.436738 188.693744 
L 1164.050597 188.920491 
L 1164.869076 189.288152 
L 1165.482935 189.246243 
L 1166.915273 188.754518 
L 1167.938372 188.547505 
L 1169.779949 188.623404 
L 1170.598428 188.547542 
L 1173.667724 189.074672 
L 1175.713921 189.262242 
L 1176.5324 189.096971 
L 1177.964738 189.36458 
L 1178.578598 189.253679 
L 1179.397076 188.891973 
L 1180.010936 188.956659 
L 1180.829415 189.030626 
L 1182.875612 188.607715 
L 1183.489471 188.499575 
L 1184.717189 188.607825 
L 1184.717189 188.607825 
" clip-path="url(#pfe28fd6210)" style="fill: none; stroke: #000000; stroke-width: 2; stroke-linecap: square"/>
   </g>
   <g id="patch_3">
    <path d="M 3.00024 198.907885 
L 1184.99976 198.907885 
" style="fill: none; stroke: #000000; stroke-width: 2; stroke-linejoin: miter; stroke-linecap: square"/>
   </g>
  </g>
 </g>
 <defs>
  <clipPath id="pfe28fd6210">
   <rect x="3.00024" y="3.00024" width="1181.99952" height="195.907645"/>
  </clipPath>
 </defs>
</svg>
