<?xml version="1.0" encoding="utf-8" standalone="no"?>
<!DOCTYPE svg PUBLIC "-//W3C//DTD SVG 1.1//EN"
  "http://www.w3.org/Graphics/SVG/1.1/DTD/svg11.dtd">
<svg xmlns:xlink="http://www.w3.org/1999/xlink" width="1188pt" height="252pt" viewBox="0 0 1188 252" xmlns="http://www.w3.org/2000/svg" version="1.1">
 <metadata>
  <rdf:RDF xmlns:dc="http://purl.org/dc/elements/1.1/" xmlns:cc="http://creativecommons.org/ns#" xmlns:rdf="http://www.w3.org/1999/02/22-rdf-syntax-ns#">
   <cc:Work>
    <dc:type rdf:resource="http://purl.org/dc/dcmitype/StillImage"/>
    <dc:date>2024-05-14T19:45:45.664030</dc:date>
    <dc:format>image/svg+xml</dc:format>
    <dc:creator>
     <cc:Agent>
      <dc:title>Matplotlib v3.8.0, https://matplotlib.org/</dc:title>
     </cc:Agent>
    </dc:creator>
   </cc:Work>
  </rdf:RDF>
 </metadata>
 <defs>
  <style type="text/css">*{stroke-linejoin: round; stroke-linecap: butt}</style>
 </defs>
 <g id="figure_1">
  <g id="patch_1">
   <path d="M 0 252 
L 1188 252 
L 1188 0 
L 0 0 
z
" style="fill: #ffffff"/>
  </g>
  <g id="axes_1">
   <g id="patch_2">
    <path d="M 3.00024 198.907885 
L 1184.99976 198.907885 
L 1184.99976 3.00024 
L 3.00024 3.00024 
z
" style="fill: #ffffff"/>
   </g>
   <g id="matplotlib.axis_1">
    <g id="xtick_1">
     <g id="line2d_1">
      <defs>
       <path id="mb2e3203ba8" d="M 0 0 
L 0 8 
" style="stroke: #000000; stroke-width: 2"/>
      </defs>
      <g>
       <use xlink:href="#mb2e3203ba8" x="1131.272509" y="198.907885" style="stroke: #000000; stroke-width: 2"/>
      </g>
     </g>
     <g id="text_1">
      <!-- 0 -->
      <g transform="translate(1126.267665 224.791947) scale(0.18 -0.18)">
       <defs>
        <path id="Arial-BoldMT-30" d="M 1756 4600 
Q 2422 4600 2797 4125 
Q 3244 3563 3244 2259 
Q 3244 959 2794 391 
Q 2422 -78 1756 -78 
Q 1088 -78 678 436 
Q 269 950 269 2269 
Q 269 3563 719 4131 
Q 1091 4600 1756 4600 
z
M 1756 3872 
Q 1597 3872 1472 3770 
Q 1347 3669 1278 3406 
Q 1188 3066 1188 2259 
Q 1188 1453 1269 1151 
Q 1350 850 1473 750 
Q 1597 650 1756 650 
Q 1916 650 2041 751 
Q 2166 853 2234 1116 
Q 2325 1453 2325 2259 
Q 2325 3066 2244 3367 
Q 2163 3669 2039 3770 
Q 1916 3872 1756 3872 
z
" transform="scale(0.015625)"/>
       </defs>
       <use xlink:href="#Arial-BoldMT-30"/>
      </g>
     </g>
    </g>
    <g id="xtick_2">
     <g id="line2d_2">
      <g>
       <use xlink:href="#mb2e3203ba8" x="1023.818007" y="198.907885" style="stroke: #000000; stroke-width: 2"/>
      </g>
     </g>
     <g id="text_2">
      <!-- 1 -->
      <g transform="translate(1018.813164 224.791947) scale(0.18 -0.18)">
       <defs>
        <path id="Arial-BoldMT-31" d="M 2519 0 
L 1641 0 
L 1641 3309 
Q 1159 2859 506 2644 
L 506 3441 
Q 850 3553 1253 3867 
Q 1656 4181 1806 4600 
L 2519 4600 
L 2519 0 
z
" transform="scale(0.015625)"/>
       </defs>
       <use xlink:href="#Arial-BoldMT-31"/>
      </g>
     </g>
    </g>
    <g id="xtick_3">
     <g id="line2d_3">
      <g>
       <use xlink:href="#mb2e3203ba8" x="916.363505" y="198.907885" style="stroke: #000000; stroke-width: 2"/>
      </g>
     </g>
     <g id="text_3">
      <!-- 2 -->
      <g transform="translate(911.358662 224.791947) scale(0.18 -0.18)">
       <defs>
        <path id="Arial-BoldMT-32" d="M 3238 816 
L 3238 0 
L 159 0 
Q 209 463 459 877 
Q 709 1291 1447 1975 
Q 2041 2528 2175 2725 
Q 2356 2997 2356 3263 
Q 2356 3556 2198 3714 
Q 2041 3872 1763 3872 
Q 1488 3872 1325 3706 
Q 1163 3541 1138 3156 
L 263 3244 
Q 341 3969 753 4284 
Q 1166 4600 1784 4600 
Q 2463 4600 2850 4234 
Q 3238 3869 3238 3325 
Q 3238 3016 3127 2736 
Q 3016 2456 2775 2150 
Q 2616 1947 2200 1565 
Q 1784 1184 1673 1059 
Q 1563 934 1494 816 
L 3238 816 
z
" transform="scale(0.015625)"/>
       </defs>
       <use xlink:href="#Arial-BoldMT-32"/>
      </g>
     </g>
    </g>
    <g id="xtick_4">
     <g id="line2d_4">
      <g>
       <use xlink:href="#mb2e3203ba8" x="808.909004" y="198.907885" style="stroke: #000000; stroke-width: 2"/>
      </g>
     </g>
     <g id="text_4">
      <!-- 3 -->
      <g transform="translate(803.90416 224.791947) scale(0.18 -0.18)">
       <defs>
        <path id="Arial-BoldMT-33" d="M 241 1216 
L 1091 1319 
Q 1131 994 1309 822 
Q 1488 650 1741 650 
Q 2013 650 2198 856 
Q 2384 1063 2384 1413 
Q 2384 1744 2206 1937 
Q 2028 2131 1772 2131 
Q 1603 2131 1369 2066 
L 1466 2781 
Q 1822 2772 2009 2936 
Q 2197 3100 2197 3372 
Q 2197 3603 2059 3740 
Q 1922 3878 1694 3878 
Q 1469 3878 1309 3722 
Q 1150 3566 1116 3266 
L 306 3403 
Q 391 3819 561 4067 
Q 731 4316 1036 4458 
Q 1341 4600 1719 4600 
Q 2366 4600 2756 4188 
Q 3078 3850 3078 3425 
Q 3078 2822 2419 2463 
Q 2813 2378 3048 2084 
Q 3284 1791 3284 1375 
Q 3284 772 2843 347 
Q 2403 -78 1747 -78 
Q 1125 -78 715 280 
Q 306 638 241 1216 
z
" transform="scale(0.015625)"/>
       </defs>
       <use xlink:href="#Arial-BoldMT-33"/>
      </g>
     </g>
    </g>
    <g id="xtick_5">
     <g id="line2d_5">
      <g>
       <use xlink:href="#mb2e3203ba8" x="701.454502" y="198.907885" style="stroke: #000000; stroke-width: 2"/>
      </g>
     </g>
     <g id="text_5">
      <!-- 4 -->
      <g transform="translate(696.449658 224.791947) scale(0.18 -0.18)">
       <defs>
        <path id="Arial-BoldMT-34" d="M 1994 0 
L 1994 922 
L 119 922 
L 119 1691 
L 2106 4600 
L 2844 4600 
L 2844 1694 
L 3413 1694 
L 3413 922 
L 2844 922 
L 2844 0 
L 1994 0 
z
M 1994 1694 
L 1994 3259 
L 941 1694 
L 1994 1694 
z
" transform="scale(0.015625)"/>
       </defs>
       <use xlink:href="#Arial-BoldMT-34"/>
      </g>
     </g>
    </g>
    <g id="xtick_6">
     <g id="line2d_6">
      <g>
       <use xlink:href="#mb2e3203ba8" x="594" y="198.907885" style="stroke: #000000; stroke-width: 2"/>
      </g>
     </g>
     <g id="text_6">
      <!-- 5 -->
      <g transform="translate(588.995156 224.791947) scale(0.18 -0.18)">
       <defs>
        <path id="Arial-BoldMT-35" d="M 284 1178 
L 1159 1269 
Q 1197 972 1381 798 
Q 1566 625 1806 625 
Q 2081 625 2272 848 
Q 2463 1072 2463 1522 
Q 2463 1944 2273 2155 
Q 2084 2366 1781 2366 
Q 1403 2366 1103 2031 
L 391 2134 
L 841 4519 
L 3163 4519 
L 3163 3697 
L 1506 3697 
L 1369 2919 
Q 1663 3066 1969 3066 
Q 2553 3066 2959 2641 
Q 3366 2216 3366 1538 
Q 3366 972 3038 528 
Q 2591 -78 1797 -78 
Q 1163 -78 763 262 
Q 363 603 284 1178 
z
" transform="scale(0.015625)"/>
       </defs>
       <use xlink:href="#Arial-BoldMT-35"/>
      </g>
     </g>
    </g>
    <g id="xtick_7">
     <g id="line2d_7">
      <g>
       <use xlink:href="#mb2e3203ba8" x="486.545498" y="198.907885" style="stroke: #000000; stroke-width: 2"/>
      </g>
     </g>
     <g id="text_7">
      <!-- 6 -->
      <g transform="translate(481.540654 224.791947) scale(0.18 -0.18)">
       <defs>
        <path id="Arial-BoldMT-36" d="M 3247 3459 
L 2397 3366 
Q 2366 3628 2234 3753 
Q 2103 3878 1894 3878 
Q 1616 3878 1423 3628 
Q 1231 3378 1181 2588 
Q 1509 2975 1997 2975 
Q 2547 2975 2939 2556 
Q 3331 2138 3331 1475 
Q 3331 772 2918 347 
Q 2506 -78 1859 -78 
Q 1166 -78 719 461 
Q 272 1000 272 2228 
Q 272 3488 737 4044 
Q 1203 4600 1947 4600 
Q 2469 4600 2811 4308 
Q 3153 4016 3247 3459 
z
M 1256 1544 
Q 1256 1116 1453 883 
Q 1650 650 1903 650 
Q 2147 650 2309 840 
Q 2472 1031 2472 1466 
Q 2472 1913 2297 2120 
Q 2122 2328 1859 2328 
Q 1606 2328 1431 2129 
Q 1256 1931 1256 1544 
z
" transform="scale(0.015625)"/>
       </defs>
       <use xlink:href="#Arial-BoldMT-36"/>
      </g>
     </g>
    </g>
    <g id="xtick_8">
     <g id="line2d_8">
      <g>
       <use xlink:href="#mb2e3203ba8" x="379.090996" y="198.907885" style="stroke: #000000; stroke-width: 2"/>
      </g>
     </g>
     <g id="text_8">
      <!-- 7 -->
      <g transform="translate(374.086153 224.791947) scale(0.18 -0.18)">
       <defs>
        <path id="Arial-BoldMT-37" d="M 272 3703 
L 272 4519 
L 3275 4519 
L 3275 3881 
Q 2903 3516 2518 2831 
Q 2134 2147 1932 1376 
Q 1731 606 1734 0 
L 888 0 
Q 909 950 1279 1937 
Q 1650 2925 2269 3703 
L 272 3703 
z
" transform="scale(0.015625)"/>
       </defs>
       <use xlink:href="#Arial-BoldMT-37"/>
      </g>
     </g>
    </g>
    <g id="xtick_9">
     <g id="line2d_9">
      <g>
       <use xlink:href="#mb2e3203ba8" x="271.636495" y="198.907885" style="stroke: #000000; stroke-width: 2"/>
      </g>
     </g>
     <g id="text_9">
      <!-- 8 -->
      <g transform="translate(266.631651 224.791947) scale(0.18 -0.18)">
       <defs>
        <path id="Arial-BoldMT-38" d="M 1025 2472 
Q 684 2616 529 2867 
Q 375 3119 375 3419 
Q 375 3931 733 4265 
Q 1091 4600 1750 4600 
Q 2403 4600 2764 4265 
Q 3125 3931 3125 3419 
Q 3125 3100 2959 2851 
Q 2794 2603 2494 2472 
Q 2875 2319 3073 2025 
Q 3272 1731 3272 1347 
Q 3272 713 2867 316 
Q 2463 -81 1791 -81 
Q 1166 -81 750 247 
Q 259 634 259 1309 
Q 259 1681 443 1992 
Q 628 2303 1025 2472 
z
M 1206 3356 
Q 1206 3094 1354 2947 
Q 1503 2800 1750 2800 
Q 2000 2800 2150 2948 
Q 2300 3097 2300 3359 
Q 2300 3606 2151 3754 
Q 2003 3903 1759 3903 
Q 1506 3903 1356 3753 
Q 1206 3603 1206 3356 
z
M 1125 1394 
Q 1125 1031 1311 828 
Q 1497 625 1775 625 
Q 2047 625 2225 820 
Q 2403 1016 2403 1384 
Q 2403 1706 2222 1901 
Q 2041 2097 1763 2097 
Q 1441 2097 1283 1875 
Q 1125 1653 1125 1394 
z
" transform="scale(0.015625)"/>
       </defs>
       <use xlink:href="#Arial-BoldMT-38"/>
      </g>
     </g>
    </g>
    <g id="xtick_10">
     <g id="line2d_10">
      <g>
       <use xlink:href="#mb2e3203ba8" x="164.181993" y="198.907885" style="stroke: #000000; stroke-width: 2"/>
      </g>
     </g>
     <g id="text_10">
      <!-- 9 -->
      <g transform="translate(159.177149 224.791947) scale(0.18 -0.18)">
       <defs>
        <path id="Arial-BoldMT-39" d="M 291 1059 
L 1141 1153 
Q 1172 894 1303 769 
Q 1434 644 1650 644 
Q 1922 644 2112 894 
Q 2303 1144 2356 1931 
Q 2025 1547 1528 1547 
Q 988 1547 595 1964 
Q 203 2381 203 3050 
Q 203 3747 617 4173 
Q 1031 4600 1672 4600 
Q 2369 4600 2816 4061 
Q 3263 3522 3263 2288 
Q 3263 1031 2797 475 
Q 2331 -81 1584 -81 
Q 1047 -81 715 205 
Q 384 491 291 1059 
z
M 2278 2978 
Q 2278 3403 2083 3637 
Q 1888 3872 1631 3872 
Q 1388 3872 1227 3680 
Q 1066 3488 1066 3050 
Q 1066 2606 1241 2398 
Q 1416 2191 1678 2191 
Q 1931 2191 2104 2391 
Q 2278 2591 2278 2978 
z
" transform="scale(0.015625)"/>
       </defs>
       <use xlink:href="#Arial-BoldMT-39"/>
      </g>
     </g>
    </g>
    <g id="xtick_11">
     <g id="line2d_11">
      <g>
       <use xlink:href="#mb2e3203ba8" x="56.727491" y="198.907885" style="stroke: #000000; stroke-width: 2"/>
      </g>
     </g>
     <g id="text_11">
      <!-- 10 -->
      <g transform="translate(46.717803 224.791947) scale(0.18 -0.18)">
       <use xlink:href="#Arial-BoldMT-31"/>
       <use xlink:href="#Arial-BoldMT-30" x="55.615234"/>
      </g>
     </g>
    </g>
    <g id="text_12">
     <!-- Chemical Shift / ppm -->
     <g transform="translate(504.992813 245.447573) scale(0.18 -0.18)">
      <defs>
       <path id="Arial-BoldMT-43" d="M 3397 1684 
L 4294 1400 
Q 4088 650 3608 286 
Q 3128 -78 2391 -78 
Q 1478 -78 890 545 
Q 303 1169 303 2250 
Q 303 3394 893 4026 
Q 1484 4659 2447 4659 
Q 3288 4659 3813 4163 
Q 4125 3869 4281 3319 
L 3366 3100 
Q 3284 3456 3026 3662 
Q 2769 3869 2400 3869 
Q 1891 3869 1573 3503 
Q 1256 3138 1256 2319 
Q 1256 1450 1568 1081 
Q 1881 713 2381 713 
Q 2750 713 3015 947 
Q 3281 1181 3397 1684 
z
" transform="scale(0.015625)"/>
       <path id="Arial-BoldMT-68" d="M 1334 4581 
L 1334 2897 
Q 1759 3394 2350 3394 
Q 2653 3394 2897 3281 
Q 3141 3169 3264 2994 
Q 3388 2819 3433 2606 
Q 3478 2394 3478 1947 
L 3478 0 
L 2600 0 
L 2600 1753 
Q 2600 2275 2550 2415 
Q 2500 2556 2373 2639 
Q 2247 2722 2056 2722 
Q 1838 2722 1666 2615 
Q 1494 2509 1414 2295 
Q 1334 2081 1334 1663 
L 1334 0 
L 456 0 
L 456 4581 
L 1334 4581 
z
" transform="scale(0.015625)"/>
       <path id="Arial-BoldMT-65" d="M 2381 1056 
L 3256 909 
Q 3088 428 2723 176 
Q 2359 -75 1813 -75 
Q 947 -75 531 491 
Q 203 944 203 1634 
Q 203 2459 634 2926 
Q 1066 3394 1725 3394 
Q 2466 3394 2894 2905 
Q 3322 2416 3303 1406 
L 1103 1406 
Q 1113 1016 1316 798 
Q 1519 581 1822 581 
Q 2028 581 2168 693 
Q 2309 806 2381 1056 
z
M 2431 1944 
Q 2422 2325 2234 2523 
Q 2047 2722 1778 2722 
Q 1491 2722 1303 2513 
Q 1116 2303 1119 1944 
L 2431 1944 
z
" transform="scale(0.015625)"/>
       <path id="Arial-BoldMT-6d" d="M 394 3319 
L 1203 3319 
L 1203 2866 
Q 1638 3394 2238 3394 
Q 2556 3394 2790 3262 
Q 3025 3131 3175 2866 
Q 3394 3131 3647 3262 
Q 3900 3394 4188 3394 
Q 4553 3394 4806 3245 
Q 5059 3097 5184 2809 
Q 5275 2597 5275 2122 
L 5275 0 
L 4397 0 
L 4397 1897 
Q 4397 2391 4306 2534 
Q 4184 2722 3931 2722 
Q 3747 2722 3584 2609 
Q 3422 2497 3350 2280 
Q 3278 2063 3278 1594 
L 3278 0 
L 2400 0 
L 2400 1819 
Q 2400 2303 2353 2443 
Q 2306 2584 2207 2653 
Q 2109 2722 1941 2722 
Q 1738 2722 1575 2612 
Q 1413 2503 1342 2297 
Q 1272 2091 1272 1613 
L 1272 0 
L 394 0 
L 394 3319 
z
" transform="scale(0.015625)"/>
       <path id="Arial-BoldMT-69" d="M 459 3769 
L 459 4581 
L 1338 4581 
L 1338 3769 
L 459 3769 
z
M 459 0 
L 459 3319 
L 1338 3319 
L 1338 0 
L 459 0 
z
" transform="scale(0.015625)"/>
       <path id="Arial-BoldMT-63" d="M 3353 2338 
L 2488 2181 
Q 2444 2441 2289 2572 
Q 2134 2703 1888 2703 
Q 1559 2703 1364 2476 
Q 1169 2250 1169 1719 
Q 1169 1128 1367 884 
Q 1566 641 1900 641 
Q 2150 641 2309 783 
Q 2469 925 2534 1272 
L 3397 1125 
Q 3263 531 2881 228 
Q 2500 -75 1859 -75 
Q 1131 -75 698 384 
Q 266 844 266 1656 
Q 266 2478 700 2936 
Q 1134 3394 1875 3394 
Q 2481 3394 2839 3133 
Q 3197 2872 3353 2338 
z
" transform="scale(0.015625)"/>
       <path id="Arial-BoldMT-61" d="M 1116 2306 
L 319 2450 
Q 453 2931 781 3162 
Q 1109 3394 1756 3394 
Q 2344 3394 2631 3255 
Q 2919 3116 3036 2902 
Q 3153 2688 3153 2116 
L 3144 1091 
Q 3144 653 3186 445 
Q 3228 238 3344 0 
L 2475 0 
Q 2441 88 2391 259 
Q 2369 338 2359 363 
Q 2134 144 1878 34 
Q 1622 -75 1331 -75 
Q 819 -75 523 203 
Q 228 481 228 906 
Q 228 1188 362 1408 
Q 497 1628 739 1745 
Q 981 1863 1438 1950 
Q 2053 2066 2291 2166 
L 2291 2253 
Q 2291 2506 2166 2614 
Q 2041 2722 1694 2722 
Q 1459 2722 1328 2630 
Q 1197 2538 1116 2306 
z
M 2291 1594 
Q 2122 1538 1756 1459 
Q 1391 1381 1278 1306 
Q 1106 1184 1106 997 
Q 1106 813 1243 678 
Q 1381 544 1594 544 
Q 1831 544 2047 700 
Q 2206 819 2256 991 
Q 2291 1103 2291 1419 
L 2291 1594 
z
" transform="scale(0.015625)"/>
       <path id="Arial-BoldMT-6c" d="M 459 0 
L 459 4581 
L 1338 4581 
L 1338 0 
L 459 0 
z
" transform="scale(0.015625)"/>
       <path id="Arial-BoldMT-20" transform="scale(0.015625)"/>
       <path id="Arial-BoldMT-53" d="M 231 1491 
L 1131 1578 
Q 1213 1125 1461 912 
Q 1709 700 2131 700 
Q 2578 700 2804 889 
Q 3031 1078 3031 1331 
Q 3031 1494 2936 1608 
Q 2841 1722 2603 1806 
Q 2441 1863 1863 2006 
Q 1119 2191 819 2459 
Q 397 2838 397 3381 
Q 397 3731 595 4036 
Q 794 4341 1167 4500 
Q 1541 4659 2069 4659 
Q 2931 4659 3367 4281 
Q 3803 3903 3825 3272 
L 2900 3231 
Q 2841 3584 2645 3739 
Q 2450 3894 2059 3894 
Q 1656 3894 1428 3728 
Q 1281 3622 1281 3444 
Q 1281 3281 1419 3166 
Q 1594 3019 2269 2859 
Q 2944 2700 3267 2529 
Q 3591 2359 3773 2064 
Q 3956 1769 3956 1334 
Q 3956 941 3737 597 
Q 3519 253 3119 86 
Q 2719 -81 2122 -81 
Q 1253 -81 787 320 
Q 322 722 231 1491 
z
" transform="scale(0.015625)"/>
       <path id="Arial-BoldMT-66" d="M 75 3319 
L 563 3319 
L 563 3569 
Q 563 3988 652 4194 
Q 741 4400 980 4529 
Q 1219 4659 1584 4659 
Q 1959 4659 2319 4547 
L 2200 3934 
Q 1991 3984 1797 3984 
Q 1606 3984 1523 3895 
Q 1441 3806 1441 3553 
L 1441 3319 
L 2097 3319 
L 2097 2628 
L 1441 2628 
L 1441 0 
L 563 0 
L 563 2628 
L 75 2628 
L 75 3319 
z
" transform="scale(0.015625)"/>
       <path id="Arial-BoldMT-74" d="M 1981 3319 
L 1981 2619 
L 1381 2619 
L 1381 1281 
Q 1381 875 1398 808 
Q 1416 741 1477 697 
Q 1538 653 1625 653 
Q 1747 653 1978 738 
L 2053 56 
Q 1747 -75 1359 -75 
Q 1122 -75 931 4 
Q 741 84 652 211 
Q 563 338 528 553 
Q 500 706 500 1172 
L 500 2619 
L 97 2619 
L 97 3319 
L 500 3319 
L 500 3978 
L 1381 4491 
L 1381 3319 
L 1981 3319 
z
" transform="scale(0.015625)"/>
       <path id="Arial-BoldMT-2f" d="M -9 -78 
L 1125 4659 
L 1784 4659 
L 638 -78 
L -9 -78 
z
" transform="scale(0.015625)"/>
       <path id="Arial-BoldMT-70" d="M 434 3319 
L 1253 3319 
L 1253 2831 
Q 1413 3081 1684 3237 
Q 1956 3394 2288 3394 
Q 2866 3394 3269 2941 
Q 3672 2488 3672 1678 
Q 3672 847 3265 386 
Q 2859 -75 2281 -75 
Q 2006 -75 1782 34 
Q 1559 144 1313 409 
L 1313 -1263 
L 434 -1263 
L 434 3319 
z
M 1303 1716 
Q 1303 1156 1525 889 
Q 1747 622 2066 622 
Q 2372 622 2575 867 
Q 2778 1113 2778 1672 
Q 2778 2194 2568 2447 
Q 2359 2700 2050 2700 
Q 1728 2700 1515 2451 
Q 1303 2203 1303 1716 
z
" transform="scale(0.015625)"/>
      </defs>
      <use xlink:href="#Arial-BoldMT-43"/>
      <use xlink:href="#Arial-BoldMT-68" x="72.216797"/>
      <use xlink:href="#Arial-BoldMT-65" x="133.300781"/>
      <use xlink:href="#Arial-BoldMT-6d" x="188.916016"/>
      <use xlink:href="#Arial-BoldMT-69" x="277.832031"/>
      <use xlink:href="#Arial-BoldMT-63" x="305.615234"/>
      <use xlink:href="#Arial-BoldMT-61" x="361.230469"/>
      <use xlink:href="#Arial-BoldMT-6c" x="416.845703"/>
      <use xlink:href="#Arial-BoldMT-20" x="444.628906"/>
      <use xlink:href="#Arial-BoldMT-53" x="472.412109"/>
      <use xlink:href="#Arial-BoldMT-68" x="539.111328"/>
      <use xlink:href="#Arial-BoldMT-69" x="600.195312"/>
      <use xlink:href="#Arial-BoldMT-66" x="627.978516"/>
      <use xlink:href="#Arial-BoldMT-74" x="661.279297"/>
      <use xlink:href="#Arial-BoldMT-20" x="694.580078"/>
      <use xlink:href="#Arial-BoldMT-2f" x="722.363281"/>
      <use xlink:href="#Arial-BoldMT-20" x="750.146484"/>
      <use xlink:href="#Arial-BoldMT-70" x="777.929688"/>
      <use xlink:href="#Arial-BoldMT-70" x="839.013672"/>
      <use xlink:href="#Arial-BoldMT-6d" x="900.097656"/>
     </g>
    </g>
   </g>
   <g id="matplotlib.axis_2"/>
   <g id="line2d_12">
    <path d="M 2.952668 189.831267 
L 6.635823 189.844506 
L 8.682021 189.831535 
L 19.322246 189.910523 
L 20.140725 189.950913 
L 23.005402 189.815462 
L 24.846979 189.84819 
L 27.097796 189.793075 
L 28.325514 189.755092 
L 32.622529 189.876648 
L 34.873346 189.816151 
L 37.328782 189.936935 
L 38.76112 189.906949 
L 58.813854 189.799133 
L 60.860051 189.880993 
L 65.566305 189.885001 
L 66.998643 189.845619 
L 68.226361 189.8594 
L 70.272558 189.885044 
L 72.727995 189.843772 
L 83.77746 189.801722 
L 85.209798 189.728146 
L 88.483714 189.814629 
L 90.939151 189.726165 
L 94.008447 189.748574 
L 95.645405 189.873919 
L 97.077743 189.919962 
L 105.467151 189.722422 
L 117.948955 189.820171 
L 120.813631 189.794026 
L 123.473687 189.855945 
L 134.932392 189.772062 
L 136.16011 189.697889 
L 138.001688 189.815152 
L 139.638646 189.806637 
L 141.275604 189.814919 
L 148.232674 189.748781 
L 155.598984 189.756732 
L 159.895999 189.939254 
L 163.579154 189.78422 
L 177.084056 189.765397 
L 181.38107 189.684892 
L 183.427267 189.841331 
L 189.15662 189.907507 
L 199.182986 189.701404 
L 201.638423 189.645806 
L 203.68462 189.811137 
L 206.140057 189.790838 
L 207.777015 189.76875 
L 214.529466 189.719643 
L 216.166424 189.709079 
L 219.0311 189.590004 
L 224.555832 189.762838 
L 226.19279 189.594693 
L 228.238988 189.681885 
L 230.899044 189.566222 
L 232.536002 189.644205 
L 235.400678 189.675506 
L 238.060734 189.646194 
L 241.948509 189.570275 
L 243.380847 189.643658 
L 244.403946 189.576528 
L 247.064002 189.516432 
L 248.90558 189.438893 
L 251.565636 189.222915 
L 253.816453 189.195576 
L 260.364285 188.889878 
L 263.024341 188.575329 
L 264.456679 188.288576 
L 266.093637 187.656333 
L 267.116736 187.057089 
L 268.139834 186.143151 
L 268.753693 185.335474 
L 269.367553 184.234273 
L 269.981412 182.740711 
L 270.595271 180.650582 
L 271.20913 177.60469 
L 271.822989 173.217294 
L 272.436848 167.133369 
L 274.483046 143.858608 
L 274.892285 141.596473 
L 275.301525 140.626605 
L 275.506144 140.632607 
L 275.710764 140.970241 
L 276.120004 142.641149 
L 276.529243 145.647067 
L 277.143102 152.48559 
L 278.78006 173.561423 
L 279.393919 178.634738 
L 280.007778 181.902611 
L 280.621638 183.947926 
L 281.235497 185.2525 
L 282.053976 186.435165 
L 282.872455 187.119683 
L 283.690933 187.546034 
L 284.714032 187.762745 
L 286.35099 187.897629 
L 287.578708 187.945292 
L 289.420286 188.225752 
L 297.400455 187.921219 
L 299.242033 187.530546 
L 300.674371 187.111221 
L 302.515948 186.170283 
L 303.948286 185.261009 
L 305.994484 183.775184 
L 306.812963 182.775535 
L 307.631441 181.478075 
L 308.44992 179.764289 
L 311.314597 173.216981 
L 311.723836 172.933845 
L 312.133075 173.007359 
L 312.542315 173.38309 
L 313.156174 174.358609 
L 314.588512 177.310864 
L 316.02085 180.150675 
L 316.634709 180.960078 
L 317.248569 181.447206 
L 317.862428 181.607056 
L 318.271667 181.532625 
L 318.680907 181.281182 
L 319.294766 180.54839 
L 319.908625 179.313121 
L 320.522484 177.45736 
L 321.545583 173.34153 
L 323.182541 166.878452 
L 323.7964 165.329441 
L 324.205639 164.776475 
L 324.614879 164.637043 
L 325.024118 164.900892 
L 325.433358 165.468464 
L 326.047217 166.824227 
L 327.274935 169.75385 
L 327.684175 170.351842 
L 328.093414 170.515622 
L 328.298034 170.397342 
L 328.707273 169.734627 
L 329.116513 168.452606 
L 329.525752 166.410701 
L 329.934992 163.457626 
L 330.548851 156.878154 
L 331.16271 146.47957 
L 331.57195 136.107388 
L 331.981189 121.386605 
L 332.390428 100.202715 
L 333.004288 52.854498 
L 333.413527 20.214987 
L 333.618147 11.905133 
L 333.822767 12.914504 
L 334.027386 23.127233 
L 335.255105 118.36443 
L 335.664344 134.811729 
L 336.278203 149.41884 
L 336.892062 157.47302 
L 337.505922 162.199582 
L 338.119781 165.209585 
L 338.93826 168.081401 
L 341.189077 175.420126 
L 342.416795 179.192991 
L 343.439894 181.569723 
L 344.462992 183.272376 
L 345.486091 184.592015 
L 347.123049 186.153731 
L 347.736908 186.533753 
L 350.806204 187.698311 
L 352.647781 188.13062 
L 355.307838 188.576059 
L 359.195613 188.665006 
L 360.627951 188.7639 
L 362.674148 189.114531 
L 366.766543 189.334235 
L 370.654317 189.303207 
L 378.429867 189.598998 
L 380.066825 189.618893 
L 381.499163 189.694183 
L 383.34074 189.663707 
L 386.000797 189.729408 
L 389.683952 189.600379 
L 392.753248 189.671534 
L 393.571727 189.711865 
L 395.617924 189.633618 
L 398.68722 189.573491 
L 399.914938 189.612487 
L 401.551896 189.653331 
L 405.439671 189.535014 
L 408.099727 189.666105 
L 409.327446 189.658852 
L 413.010601 189.311411 
L 415.875277 189.632905 
L 421.40001 189.526193 
L 423.855446 189.311313 
L 424.673925 189.314331 
L 427.333982 189.651777 
L 429.789418 189.623088 
L 430.812517 189.608963 
L 432.858714 189.751588 
L 434.495672 189.765143 
L 438.792686 189.85409 
L 444.112799 189.832854 
L 447.795954 189.909556 
L 458.23156 189.775401 
L 459.254659 189.763065 
L 460.686997 189.710196 
L 462.733194 189.743319 
L 464.370152 189.871378 
L 468.053307 189.880714 
L 470.713364 189.853885 
L 474.396519 189.883715 
L 475.419617 189.873313 
L 476.851956 189.824884 
L 485.855224 189.8863 
L 488.7199 189.766606 
L 495.472351 189.766424 
L 498.132407 189.805945 
L 499.769365 189.866671 
L 505.089478 189.7717 
L 506.931055 189.844193 
L 510.000351 189.772147 
L 517.775901 189.605155 
L 519.003619 189.467493 
L 520.845197 189.462207 
L 522.072915 189.460606 
L 524.119112 189.467168 
L 525.96069 189.382381 
L 526.983789 189.400566 
L 528.211507 189.177305 
L 530.257704 188.772783 
L 532.713141 188.449624 
L 535.577817 187.615961 
L 536.805536 187.108872 
L 538.647113 186.517352 
L 540.079451 185.769834 
L 543.148747 183.661676 
L 544.581085 182.245348 
L 546.422663 180.043015 
L 549.082719 176.387766 
L 550.310437 174.307788 
L 552.152015 170.743747 
L 552.970494 169.153611 
L 553.379733 168.658466 
L 553.788973 168.457128 
L 554.198212 168.523751 
L 554.607452 168.857768 
L 555.221311 169.849872 
L 556.03979 171.753769 
L 557.676748 176.139025 
L 558.085987 178.738446 
L 558.699846 183.391248 
L 558.904466 183.726211 
L 559.109086 183.47519 
L 560.541424 180.100772 
L 561.769142 177.68407 
L 562.178382 177.336747 
L 562.792241 177.219168 
L 563.4061 177.4137 
L 564.224579 177.983422 
L 565.043058 178.839395 
L 566.884635 180.931428 
L 569.544692 183.710595 
L 572.000129 185.376708 
L 573.637086 186.170662 
L 575.887903 187.166412 
L 582.435735 188.594484 
L 590.620524 189.275262 
L 592.666721 189.284728 
L 597.782214 189.500592 
L 599.214552 189.503197 
L 602.283848 189.704109 
L 606.580862 189.622059 
L 620.699623 189.719635 
L 623.15506 189.655291 
L 624.587398 189.698392 
L 630.93061 189.68607 
L 632.567568 189.842279 
L 633.590666 189.83016 
L 634.818385 189.776327 
L 636.659962 189.792767 
L 639.524638 189.650668 
L 641.980075 189.703232 
L 643.412413 189.79024 
L 648.323287 189.871779 
L 649.960244 189.824259 
L 655.894216 189.78565 
L 657.940414 189.748374 
L 661.828189 189.7738 
L 663.260527 189.813634 
L 664.488245 189.826259 
L 665.511344 189.800358 
L 667.148301 189.81921 
L 668.989879 189.821502 
L 671.445316 189.801197 
L 677.379288 189.820961 
L 679.834725 189.941685 
L 681.880922 189.969042 
L 684.336359 189.85202 
L 688.428753 189.858595 
L 689.656471 189.885353 
L 693.339626 189.764297 
L 697.227401 189.741208 
L 698.2505 189.742946 
L 701.115176 189.893179 
L 703.365993 189.821304 
L 706.435289 189.942778 
L 712.98312 189.912553 
L 714.620078 189.977551 
L 716.870895 189.883435 
L 720.144811 189.911716 
L 722.395628 189.936243 
L 724.851064 189.837515 
L 727.511121 189.723631 
L 731.194276 189.803762 
L 734.263572 189.757198 
L 736.309769 189.60937 
L 739.583685 189.632014 
L 740.402164 189.40244 
L 741.425262 188.836193 
L 741.834502 188.663661 
L 742.243741 188.753654 
L 743.676079 189.519732 
L 744.494558 189.647746 
L 750.42853 189.842216 
L 751.860868 189.814882 
L 753.088587 189.702516 
L 754.111685 189.697714 
L 755.953263 189.828104 
L 758.20408 189.78923 
L 766.184249 189.865213 
L 767.207348 189.800692 
L 768.435066 189.735735 
L 773.550559 189.867437 
L 787.87394 189.49362 
L 789.920138 189.360071 
L 790.738616 189.230852 
L 791.761715 188.816533 
L 793.194053 188.022176 
L 793.807912 187.496388 
L 794.421772 186.741845 
L 795.035631 185.644035 
L 795.64949 183.970766 
L 796.058729 182.326304 
L 796.467969 180.017663 
L 796.877208 176.654201 
L 797.286448 171.71448 
L 798.104927 159.905221 
L 798.309546 159.255383 
L 798.514166 160.430788 
L 798.923406 166.491287 
L 799.537265 175.932204 
L 800.151124 181.4637 
L 800.764983 184.42202 
L 801.378842 186.159924 
L 801.992701 187.231018 
L 802.81118 188.131033 
L 803.629659 188.678677 
L 805.266617 189.249881 
L 807.108195 189.542343 
L 808.540533 189.581347 
L 810.58673 189.546425 
L 811.814448 189.554281 
L 817.134561 189.733325 
L 821.431575 189.805468 
L 825.52397 189.933508 
L 827.774787 189.821979 
L 828.797886 189.861194 
L 830.025604 189.950586 
L 832.68566 189.863961 
L 835.141097 189.696016 
L 836.982675 189.715961 
L 841.893548 189.902411 
L 843.121267 189.835345 
L 844.348985 189.787022 
L 845.576703 189.782611 
L 847.009041 189.795603 
L 849.259858 189.794654 
L 851.306056 189.834551 
L 854.784591 189.46946 
L 858.263126 188.861177 
L 859.490845 188.188716 
L 859.900084 188.327147 
L 861.332422 189.191286 
L 862.355521 189.381919 
L 864.197098 189.383976 
L 865.424817 189.184036 
L 866.243296 188.836986 
L 867.471014 187.94775 
L 867.880253 188.155109 
L 868.903352 189.007 
L 869.721831 189.286312 
L 870.949549 189.4136 
L 872.586507 189.574363 
L 874.837324 189.705852 
L 880.566677 189.695846 
L 881.794395 189.642291 
L 884.249832 189.660911 
L 886.296029 189.603098 
L 887.728367 189.483948 
L 889.979184 189.295923 
L 891.411522 189.217118 
L 892.63924 189.151924 
L 895.094677 189.292103 
L 898.163973 189.092325 
L 900.005551 188.936128 
L 903.688706 188.410033 
L 904.916424 188.213505 
L 906.348762 187.926826 
L 913.305833 185.870821 
L 914.738171 185.410336 
L 915.55665 185.369094 
L 916.579748 185.602683 
L 917.807467 186.079092 
L 919.649044 187.310671 
L 920.262904 187.952147 
L 920.672143 188.463444 
L 920.876763 188.572363 
L 921.286002 188.398016 
L 922.309101 187.653221 
L 923.741439 186.92622 
L 924.355298 186.859458 
L 927.219974 187.209444 
L 929.061552 187.576007 
L 930.08465 187.68507 
L 930.903129 187.548621 
L 931.516988 187.198079 
L 932.130848 186.495161 
L 932.949327 185.37309 
L 933.153946 185.297208 
L 933.358566 185.372198 
L 933.767805 185.888841 
L 934.790904 187.584392 
L 935.404763 188.1847 
L 936.223242 188.663097 
L 937.8602 189.219408 
L 940.111017 189.531051 
L 947.068088 189.678383 
L 951.569722 189.296961 
L 952.79744 189.218831 
L 954.639018 189.141138 
L 958.322173 189.282915 
L 959.754511 188.893001 
L 961.800708 188.393112 
L 962.414567 188.325874 
L 963.028426 188.518479 
L 964.460764 189.208023 
L 966.506962 189.531984 
L 967.53006 189.606401 
L 971.417835 189.428505 
L 972.645554 189.450566 
L 974.487131 189.475459 
L 975.919469 189.553038 
L 977.556427 189.848954 
L 985.536596 189.750078 
L 986.968934 189.831558 
L 988.401273 189.82331 
L 991.879808 189.829521 
L 995.153724 189.781081 
L 996.176822 189.684909 
L 997.199921 189.598844 
L 1000.678456 189.791162 
L 1001.701555 189.760284 
L 1003.952372 189.851019 
L 1005.18009 189.829294 
L 1006.612428 189.849176 
L 1008.249386 189.839754 
L 1013.774119 189.797478 
L 1015.411076 189.755536 
L 1020.731189 189.839464 
L 1023.391246 189.806646 
L 1027.89288 189.914672 
L 1033.212993 189.738624 
L 1040.374683 189.765629 
L 1042.011641 189.807206 
L 1044.057838 189.824542 
L 1084.777164 189.778296 
L 1087.027981 189.682282 
L 1089.483418 189.770439 
L 1091.120375 189.758954 
L 1092.143474 189.692737 
L 1093.780432 189.789236 
L 1095.41739 189.717763 
L 1096.440488 189.732377 
L 1098.895925 189.861474 
L 1100.532883 189.725131 
L 1101.760601 189.697828 
L 1110.763869 189.903089 
L 1116.902461 189.76635 
L 1118.334799 189.802683 
L 1120.585616 189.78544 
L 1123.041053 189.710863 
L 1124.678011 189.638409 
L 1131.635081 189.867029 
L 1133.476659 189.79099 
L 1151.892434 189.842526 
L 1153.324772 189.863954 
L 1154.75711 189.782754 
L 1156.394068 189.717855 
L 1159.054125 189.819987 
L 1160.486463 189.799948 
L 1161.714181 189.839826 
L 1163.351139 189.855102 
L 1165.397336 189.755341 
L 1167.443533 189.772337 
L 1170.10359 189.828825 
L 1177.4699 189.875761 
L 1178.902238 189.828714 
L 1180.129957 189.664911 
L 1181.971534 189.735068 
L 1184.83621 189.746182 
L 1184.83621 189.746182 
" clip-path="url(#paa6a688f0c)" style="fill: none; stroke: #000000; stroke-width: 2; stroke-linecap: square"/>
   </g>
   <g id="patch_3">
    <path d="M 3.00024 198.907885 
L 1184.99976 198.907885 
" style="fill: none; stroke: #000000; stroke-width: 2; stroke-linejoin: miter; stroke-linecap: square"/>
   </g>
  </g>
 </g>
 <defs>
  <clipPath id="paa6a688f0c">
   <rect x="3.00024" y="3.00024" width="1181.99952" height="195.907645"/>
  </clipPath>
 </defs>
</svg>
