<?xml version="1.0" encoding="utf-8" standalone="no"?>
<!DOCTYPE svg PUBLIC "-//W3C//DTD SVG 1.1//EN"
  "http://www.w3.org/Graphics/SVG/1.1/DTD/svg11.dtd">
<svg xmlns:xlink="http://www.w3.org/1999/xlink" width="1188pt" height="252pt" viewBox="0 0 1188 252" xmlns="http://www.w3.org/2000/svg" version="1.1">
 <metadata>
  <rdf:RDF xmlns:dc="http://purl.org/dc/elements/1.1/" xmlns:cc="http://creativecommons.org/ns#" xmlns:rdf="http://www.w3.org/1999/02/22-rdf-syntax-ns#">
   <cc:Work>
    <dc:type rdf:resource="http://purl.org/dc/dcmitype/StillImage"/>
    <dc:date>2024-05-14T19:45:35.232967</dc:date>
    <dc:format>image/svg+xml</dc:format>
    <dc:creator>
     <cc:Agent>
      <dc:title>Matplotlib v3.8.0, https://matplotlib.org/</dc:title>
     </cc:Agent>
    </dc:creator>
   </cc:Work>
  </rdf:RDF>
 </metadata>
 <defs>
  <style type="text/css">*{stroke-linejoin: round; stroke-linecap: butt}</style>
 </defs>
 <g id="figure_1">
  <g id="patch_1">
   <path d="M 0 252 
L 1188 252 
L 1188 0 
L 0 0 
z
" style="fill: #ffffff"/>
  </g>
  <g id="axes_1">
   <g id="patch_2">
    <path d="M 3.00024 198.907885 
L 1184.99976 198.907885 
L 1184.99976 3.00024 
L 3.00024 3.00024 
z
" style="fill: #ffffff"/>
   </g>
   <g id="matplotlib.axis_1">
    <g id="xtick_1">
     <g id="line2d_1">
      <defs>
       <path id="med7d660e25" d="M 0 0 
L 0 8 
" style="stroke: #000000; stroke-width: 2"/>
      </defs>
      <g>
       <use xlink:href="#med7d660e25" x="1131.272509" y="198.907885" style="stroke: #000000; stroke-width: 2"/>
      </g>
     </g>
     <g id="text_1">
      <!-- 0 -->
      <g transform="translate(1126.267665 224.791947) scale(0.18 -0.18)">
       <defs>
        <path id="Arial-BoldMT-30" d="M 1756 4600 
Q 2422 4600 2797 4125 
Q 3244 3563 3244 2259 
Q 3244 959 2794 391 
Q 2422 -78 1756 -78 
Q 1088 -78 678 436 
Q 269 950 269 2269 
Q 269 3563 719 4131 
Q 1091 4600 1756 4600 
z
M 1756 3872 
Q 1597 3872 1472 3770 
Q 1347 3669 1278 3406 
Q 1188 3066 1188 2259 
Q 1188 1453 1269 1151 
Q 1350 850 1473 750 
Q 1597 650 1756 650 
Q 1916 650 2041 751 
Q 2166 853 2234 1116 
Q 2325 1453 2325 2259 
Q 2325 3066 2244 3367 
Q 2163 3669 2039 3770 
Q 1916 3872 1756 3872 
z
" transform="scale(0.015625)"/>
       </defs>
       <use xlink:href="#Arial-BoldMT-30"/>
      </g>
     </g>
    </g>
    <g id="xtick_2">
     <g id="line2d_2">
      <g>
       <use xlink:href="#med7d660e25" x="1023.818007" y="198.907885" style="stroke: #000000; stroke-width: 2"/>
      </g>
     </g>
     <g id="text_2">
      <!-- 1 -->
      <g transform="translate(1018.813164 224.791947) scale(0.18 -0.18)">
       <defs>
        <path id="Arial-BoldMT-31" d="M 2519 0 
L 1641 0 
L 1641 3309 
Q 1159 2859 506 2644 
L 506 3441 
Q 850 3553 1253 3867 
Q 1656 4181 1806 4600 
L 2519 4600 
L 2519 0 
z
" transform="scale(0.015625)"/>
       </defs>
       <use xlink:href="#Arial-BoldMT-31"/>
      </g>
     </g>
    </g>
    <g id="xtick_3">
     <g id="line2d_3">
      <g>
       <use xlink:href="#med7d660e25" x="916.363505" y="198.907885" style="stroke: #000000; stroke-width: 2"/>
      </g>
     </g>
     <g id="text_3">
      <!-- 2 -->
      <g transform="translate(911.358662 224.791947) scale(0.18 -0.18)">
       <defs>
        <path id="Arial-BoldMT-32" d="M 3238 816 
L 3238 0 
L 159 0 
Q 209 463 459 877 
Q 709 1291 1447 1975 
Q 2041 2528 2175 2725 
Q 2356 2997 2356 3263 
Q 2356 3556 2198 3714 
Q 2041 3872 1763 3872 
Q 1488 3872 1325 3706 
Q 1163 3541 1138 3156 
L 263 3244 
Q 341 3969 753 4284 
Q 1166 4600 1784 4600 
Q 2463 4600 2850 4234 
Q 3238 3869 3238 3325 
Q 3238 3016 3127 2736 
Q 3016 2456 2775 2150 
Q 2616 1947 2200 1565 
Q 1784 1184 1673 1059 
Q 1563 934 1494 816 
L 3238 816 
z
" transform="scale(0.015625)"/>
       </defs>
       <use xlink:href="#Arial-BoldMT-32"/>
      </g>
     </g>
    </g>
    <g id="xtick_4">
     <g id="line2d_4">
      <g>
       <use xlink:href="#med7d660e25" x="808.909004" y="198.907885" style="stroke: #000000; stroke-width: 2"/>
      </g>
     </g>
     <g id="text_4">
      <!-- 3 -->
      <g transform="translate(803.90416 224.791947) scale(0.18 -0.18)">
       <defs>
        <path id="Arial-BoldMT-33" d="M 241 1216 
L 1091 1319 
Q 1131 994 1309 822 
Q 1488 650 1741 650 
Q 2013 650 2198 856 
Q 2384 1063 2384 1413 
Q 2384 1744 2206 1937 
Q 2028 2131 1772 2131 
Q 1603 2131 1369 2066 
L 1466 2781 
Q 1822 2772 2009 2936 
Q 2197 3100 2197 3372 
Q 2197 3603 2059 3740 
Q 1922 3878 1694 3878 
Q 1469 3878 1309 3722 
Q 1150 3566 1116 3266 
L 306 3403 
Q 391 3819 561 4067 
Q 731 4316 1036 4458 
Q 1341 4600 1719 4600 
Q 2366 4600 2756 4188 
Q 3078 3850 3078 3425 
Q 3078 2822 2419 2463 
Q 2813 2378 3048 2084 
Q 3284 1791 3284 1375 
Q 3284 772 2843 347 
Q 2403 -78 1747 -78 
Q 1125 -78 715 280 
Q 306 638 241 1216 
z
" transform="scale(0.015625)"/>
       </defs>
       <use xlink:href="#Arial-BoldMT-33"/>
      </g>
     </g>
    </g>
    <g id="xtick_5">
     <g id="line2d_5">
      <g>
       <use xlink:href="#med7d660e25" x="701.454502" y="198.907885" style="stroke: #000000; stroke-width: 2"/>
      </g>
     </g>
     <g id="text_5">
      <!-- 4 -->
      <g transform="translate(696.449658 224.791947) scale(0.18 -0.18)">
       <defs>
        <path id="Arial-BoldMT-34" d="M 1994 0 
L 1994 922 
L 119 922 
L 119 1691 
L 2106 4600 
L 2844 4600 
L 2844 1694 
L 3413 1694 
L 3413 922 
L 2844 922 
L 2844 0 
L 1994 0 
z
M 1994 1694 
L 1994 3259 
L 941 1694 
L 1994 1694 
z
" transform="scale(0.015625)"/>
       </defs>
       <use xlink:href="#Arial-BoldMT-34"/>
      </g>
     </g>
    </g>
    <g id="xtick_6">
     <g id="line2d_6">
      <g>
       <use xlink:href="#med7d660e25" x="594" y="198.907885" style="stroke: #000000; stroke-width: 2"/>
      </g>
     </g>
     <g id="text_6">
      <!-- 5 -->
      <g transform="translate(588.995156 224.791947) scale(0.18 -0.18)">
       <defs>
        <path id="Arial-BoldMT-35" d="M 284 1178 
L 1159 1269 
Q 1197 972 1381 798 
Q 1566 625 1806 625 
Q 2081 625 2272 848 
Q 2463 1072 2463 1522 
Q 2463 1944 2273 2155 
Q 2084 2366 1781 2366 
Q 1403 2366 1103 2031 
L 391 2134 
L 841 4519 
L 3163 4519 
L 3163 3697 
L 1506 3697 
L 1369 2919 
Q 1663 3066 1969 3066 
Q 2553 3066 2959 2641 
Q 3366 2216 3366 1538 
Q 3366 972 3038 528 
Q 2591 -78 1797 -78 
Q 1163 -78 763 262 
Q 363 603 284 1178 
z
" transform="scale(0.015625)"/>
       </defs>
       <use xlink:href="#Arial-BoldMT-35"/>
      </g>
     </g>
    </g>
    <g id="xtick_7">
     <g id="line2d_7">
      <g>
       <use xlink:href="#med7d660e25" x="486.545498" y="198.907885" style="stroke: #000000; stroke-width: 2"/>
      </g>
     </g>
     <g id="text_7">
      <!-- 6 -->
      <g transform="translate(481.540654 224.791947) scale(0.18 -0.18)">
       <defs>
        <path id="Arial-BoldMT-36" d="M 3247 3459 
L 2397 3366 
Q 2366 3628 2234 3753 
Q 2103 3878 1894 3878 
Q 1616 3878 1423 3628 
Q 1231 3378 1181 2588 
Q 1509 2975 1997 2975 
Q 2547 2975 2939 2556 
Q 3331 2138 3331 1475 
Q 3331 772 2918 347 
Q 2506 -78 1859 -78 
Q 1166 -78 719 461 
Q 272 1000 272 2228 
Q 272 3488 737 4044 
Q 1203 4600 1947 4600 
Q 2469 4600 2811 4308 
Q 3153 4016 3247 3459 
z
M 1256 1544 
Q 1256 1116 1453 883 
Q 1650 650 1903 650 
Q 2147 650 2309 840 
Q 2472 1031 2472 1466 
Q 2472 1913 2297 2120 
Q 2122 2328 1859 2328 
Q 1606 2328 1431 2129 
Q 1256 1931 1256 1544 
z
" transform="scale(0.015625)"/>
       </defs>
       <use xlink:href="#Arial-BoldMT-36"/>
      </g>
     </g>
    </g>
    <g id="xtick_8">
     <g id="line2d_8">
      <g>
       <use xlink:href="#med7d660e25" x="379.090996" y="198.907885" style="stroke: #000000; stroke-width: 2"/>
      </g>
     </g>
     <g id="text_8">
      <!-- 7 -->
      <g transform="translate(374.086153 224.791947) scale(0.18 -0.18)">
       <defs>
        <path id="Arial-BoldMT-37" d="M 272 3703 
L 272 4519 
L 3275 4519 
L 3275 3881 
Q 2903 3516 2518 2831 
Q 2134 2147 1932 1376 
Q 1731 606 1734 0 
L 888 0 
Q 909 950 1279 1937 
Q 1650 2925 2269 3703 
L 272 3703 
z
" transform="scale(0.015625)"/>
       </defs>
       <use xlink:href="#Arial-BoldMT-37"/>
      </g>
     </g>
    </g>
    <g id="xtick_9">
     <g id="line2d_9">
      <g>
       <use xlink:href="#med7d660e25" x="271.636495" y="198.907885" style="stroke: #000000; stroke-width: 2"/>
      </g>
     </g>
     <g id="text_9">
      <!-- 8 -->
      <g transform="translate(266.631651 224.791947) scale(0.18 -0.18)">
       <defs>
        <path id="Arial-BoldMT-38" d="M 1025 2472 
Q 684 2616 529 2867 
Q 375 3119 375 3419 
Q 375 3931 733 4265 
Q 1091 4600 1750 4600 
Q 2403 4600 2764 4265 
Q 3125 3931 3125 3419 
Q 3125 3100 2959 2851 
Q 2794 2603 2494 2472 
Q 2875 2319 3073 2025 
Q 3272 1731 3272 1347 
Q 3272 713 2867 316 
Q 2463 -81 1791 -81 
Q 1166 -81 750 247 
Q 259 634 259 1309 
Q 259 1681 443 1992 
Q 628 2303 1025 2472 
z
M 1206 3356 
Q 1206 3094 1354 2947 
Q 1503 2800 1750 2800 
Q 2000 2800 2150 2948 
Q 2300 3097 2300 3359 
Q 2300 3606 2151 3754 
Q 2003 3903 1759 3903 
Q 1506 3903 1356 3753 
Q 1206 3603 1206 3356 
z
M 1125 1394 
Q 1125 1031 1311 828 
Q 1497 625 1775 625 
Q 2047 625 2225 820 
Q 2403 1016 2403 1384 
Q 2403 1706 2222 1901 
Q 2041 2097 1763 2097 
Q 1441 2097 1283 1875 
Q 1125 1653 1125 1394 
z
" transform="scale(0.015625)"/>
       </defs>
       <use xlink:href="#Arial-BoldMT-38"/>
      </g>
     </g>
    </g>
    <g id="xtick_10">
     <g id="line2d_10">
      <g>
       <use xlink:href="#med7d660e25" x="164.181993" y="198.907885" style="stroke: #000000; stroke-width: 2"/>
      </g>
     </g>
     <g id="text_10">
      <!-- 9 -->
      <g transform="translate(159.177149 224.791947) scale(0.18 -0.18)">
       <defs>
        <path id="Arial-BoldMT-39" d="M 291 1059 
L 1141 1153 
Q 1172 894 1303 769 
Q 1434 644 1650 644 
Q 1922 644 2112 894 
Q 2303 1144 2356 1931 
Q 2025 1547 1528 1547 
Q 988 1547 595 1964 
Q 203 2381 203 3050 
Q 203 3747 617 4173 
Q 1031 4600 1672 4600 
Q 2369 4600 2816 4061 
Q 3263 3522 3263 2288 
Q 3263 1031 2797 475 
Q 2331 -81 1584 -81 
Q 1047 -81 715 205 
Q 384 491 291 1059 
z
M 2278 2978 
Q 2278 3403 2083 3637 
Q 1888 3872 1631 3872 
Q 1388 3872 1227 3680 
Q 1066 3488 1066 3050 
Q 1066 2606 1241 2398 
Q 1416 2191 1678 2191 
Q 1931 2191 2104 2391 
Q 2278 2591 2278 2978 
z
" transform="scale(0.015625)"/>
       </defs>
       <use xlink:href="#Arial-BoldMT-39"/>
      </g>
     </g>
    </g>
    <g id="xtick_11">
     <g id="line2d_11">
      <g>
       <use xlink:href="#med7d660e25" x="56.727491" y="198.907885" style="stroke: #000000; stroke-width: 2"/>
      </g>
     </g>
     <g id="text_11">
      <!-- 10 -->
      <g transform="translate(46.717803 224.791947) scale(0.18 -0.18)">
       <use xlink:href="#Arial-BoldMT-31"/>
       <use xlink:href="#Arial-BoldMT-30" x="55.615234"/>
      </g>
     </g>
    </g>
    <g id="text_12">
     <!-- Chemical Shift / ppm -->
     <g transform="translate(504.992813 245.447573) scale(0.18 -0.18)">
      <defs>
       <path id="Arial-BoldMT-43" d="M 3397 1684 
L 4294 1400 
Q 4088 650 3608 286 
Q 3128 -78 2391 -78 
Q 1478 -78 890 545 
Q 303 1169 303 2250 
Q 303 3394 893 4026 
Q 1484 4659 2447 4659 
Q 3288 4659 3813 4163 
Q 4125 3869 4281 3319 
L 3366 3100 
Q 3284 3456 3026 3662 
Q 2769 3869 2400 3869 
Q 1891 3869 1573 3503 
Q 1256 3138 1256 2319 
Q 1256 1450 1568 1081 
Q 1881 713 2381 713 
Q 2750 713 3015 947 
Q 3281 1181 3397 1684 
z
" transform="scale(0.015625)"/>
       <path id="Arial-BoldMT-68" d="M 1334 4581 
L 1334 2897 
Q 1759 3394 2350 3394 
Q 2653 3394 2897 3281 
Q 3141 3169 3264 2994 
Q 3388 2819 3433 2606 
Q 3478 2394 3478 1947 
L 3478 0 
L 2600 0 
L 2600 1753 
Q 2600 2275 2550 2415 
Q 2500 2556 2373 2639 
Q 2247 2722 2056 2722 
Q 1838 2722 1666 2615 
Q 1494 2509 1414 2295 
Q 1334 2081 1334 1663 
L 1334 0 
L 456 0 
L 456 4581 
L 1334 4581 
z
" transform="scale(0.015625)"/>
       <path id="Arial-BoldMT-65" d="M 2381 1056 
L 3256 909 
Q 3088 428 2723 176 
Q 2359 -75 1813 -75 
Q 947 -75 531 491 
Q 203 944 203 1634 
Q 203 2459 634 2926 
Q 1066 3394 1725 3394 
Q 2466 3394 2894 2905 
Q 3322 2416 3303 1406 
L 1103 1406 
Q 1113 1016 1316 798 
Q 1519 581 1822 581 
Q 2028 581 2168 693 
Q 2309 806 2381 1056 
z
M 2431 1944 
Q 2422 2325 2234 2523 
Q 2047 2722 1778 2722 
Q 1491 2722 1303 2513 
Q 1116 2303 1119 1944 
L 2431 1944 
z
" transform="scale(0.015625)"/>
       <path id="Arial-BoldMT-6d" d="M 394 3319 
L 1203 3319 
L 1203 2866 
Q 1638 3394 2238 3394 
Q 2556 3394 2790 3262 
Q 3025 3131 3175 2866 
Q 3394 3131 3647 3262 
Q 3900 3394 4188 3394 
Q 4553 3394 4806 3245 
Q 5059 3097 5184 2809 
Q 5275 2597 5275 2122 
L 5275 0 
L 4397 0 
L 4397 1897 
Q 4397 2391 4306 2534 
Q 4184 2722 3931 2722 
Q 3747 2722 3584 2609 
Q 3422 2497 3350 2280 
Q 3278 2063 3278 1594 
L 3278 0 
L 2400 0 
L 2400 1819 
Q 2400 2303 2353 2443 
Q 2306 2584 2207 2653 
Q 2109 2722 1941 2722 
Q 1738 2722 1575 2612 
Q 1413 2503 1342 2297 
Q 1272 2091 1272 1613 
L 1272 0 
L 394 0 
L 394 3319 
z
" transform="scale(0.015625)"/>
       <path id="Arial-BoldMT-69" d="M 459 3769 
L 459 4581 
L 1338 4581 
L 1338 3769 
L 459 3769 
z
M 459 0 
L 459 3319 
L 1338 3319 
L 1338 0 
L 459 0 
z
" transform="scale(0.015625)"/>
       <path id="Arial-BoldMT-63" d="M 3353 2338 
L 2488 2181 
Q 2444 2441 2289 2572 
Q 2134 2703 1888 2703 
Q 1559 2703 1364 2476 
Q 1169 2250 1169 1719 
Q 1169 1128 1367 884 
Q 1566 641 1900 641 
Q 2150 641 2309 783 
Q 2469 925 2534 1272 
L 3397 1125 
Q 3263 531 2881 228 
Q 2500 -75 1859 -75 
Q 1131 -75 698 384 
Q 266 844 266 1656 
Q 266 2478 700 2936 
Q 1134 3394 1875 3394 
Q 2481 3394 2839 3133 
Q 3197 2872 3353 2338 
z
" transform="scale(0.015625)"/>
       <path id="Arial-BoldMT-61" d="M 1116 2306 
L 319 2450 
Q 453 2931 781 3162 
Q 1109 3394 1756 3394 
Q 2344 3394 2631 3255 
Q 2919 3116 3036 2902 
Q 3153 2688 3153 2116 
L 3144 1091 
Q 3144 653 3186 445 
Q 3228 238 3344 0 
L 2475 0 
Q 2441 88 2391 259 
Q 2369 338 2359 363 
Q 2134 144 1878 34 
Q 1622 -75 1331 -75 
Q 819 -75 523 203 
Q 228 481 228 906 
Q 228 1188 362 1408 
Q 497 1628 739 1745 
Q 981 1863 1438 1950 
Q 2053 2066 2291 2166 
L 2291 2253 
Q 2291 2506 2166 2614 
Q 2041 2722 1694 2722 
Q 1459 2722 1328 2630 
Q 1197 2538 1116 2306 
z
M 2291 1594 
Q 2122 1538 1756 1459 
Q 1391 1381 1278 1306 
Q 1106 1184 1106 997 
Q 1106 813 1243 678 
Q 1381 544 1594 544 
Q 1831 544 2047 700 
Q 2206 819 2256 991 
Q 2291 1103 2291 1419 
L 2291 1594 
z
" transform="scale(0.015625)"/>
       <path id="Arial-BoldMT-6c" d="M 459 0 
L 459 4581 
L 1338 4581 
L 1338 0 
L 459 0 
z
" transform="scale(0.015625)"/>
       <path id="Arial-BoldMT-20" transform="scale(0.015625)"/>
       <path id="Arial-BoldMT-53" d="M 231 1491 
L 1131 1578 
Q 1213 1125 1461 912 
Q 1709 700 2131 700 
Q 2578 700 2804 889 
Q 3031 1078 3031 1331 
Q 3031 1494 2936 1608 
Q 2841 1722 2603 1806 
Q 2441 1863 1863 2006 
Q 1119 2191 819 2459 
Q 397 2838 397 3381 
Q 397 3731 595 4036 
Q 794 4341 1167 4500 
Q 1541 4659 2069 4659 
Q 2931 4659 3367 4281 
Q 3803 3903 3825 3272 
L 2900 3231 
Q 2841 3584 2645 3739 
Q 2450 3894 2059 3894 
Q 1656 3894 1428 3728 
Q 1281 3622 1281 3444 
Q 1281 3281 1419 3166 
Q 1594 3019 2269 2859 
Q 2944 2700 3267 2529 
Q 3591 2359 3773 2064 
Q 3956 1769 3956 1334 
Q 3956 941 3737 597 
Q 3519 253 3119 86 
Q 2719 -81 2122 -81 
Q 1253 -81 787 320 
Q 322 722 231 1491 
z
" transform="scale(0.015625)"/>
       <path id="Arial-BoldMT-66" d="M 75 3319 
L 563 3319 
L 563 3569 
Q 563 3988 652 4194 
Q 741 4400 980 4529 
Q 1219 4659 1584 4659 
Q 1959 4659 2319 4547 
L 2200 3934 
Q 1991 3984 1797 3984 
Q 1606 3984 1523 3895 
Q 1441 3806 1441 3553 
L 1441 3319 
L 2097 3319 
L 2097 2628 
L 1441 2628 
L 1441 0 
L 563 0 
L 563 2628 
L 75 2628 
L 75 3319 
z
" transform="scale(0.015625)"/>
       <path id="Arial-BoldMT-74" d="M 1981 3319 
L 1981 2619 
L 1381 2619 
L 1381 1281 
Q 1381 875 1398 808 
Q 1416 741 1477 697 
Q 1538 653 1625 653 
Q 1747 653 1978 738 
L 2053 56 
Q 1747 -75 1359 -75 
Q 1122 -75 931 4 
Q 741 84 652 211 
Q 563 338 528 553 
Q 500 706 500 1172 
L 500 2619 
L 97 2619 
L 97 3319 
L 500 3319 
L 500 3978 
L 1381 4491 
L 1381 3319 
L 1981 3319 
z
" transform="scale(0.015625)"/>
       <path id="Arial-BoldMT-2f" d="M -9 -78 
L 1125 4659 
L 1784 4659 
L 638 -78 
L -9 -78 
z
" transform="scale(0.015625)"/>
       <path id="Arial-BoldMT-70" d="M 434 3319 
L 1253 3319 
L 1253 2831 
Q 1413 3081 1684 3237 
Q 1956 3394 2288 3394 
Q 2866 3394 3269 2941 
Q 3672 2488 3672 1678 
Q 3672 847 3265 386 
Q 2859 -75 2281 -75 
Q 2006 -75 1782 34 
Q 1559 144 1313 409 
L 1313 -1263 
L 434 -1263 
L 434 3319 
z
M 1303 1716 
Q 1303 1156 1525 889 
Q 1747 622 2066 622 
Q 2372 622 2575 867 
Q 2778 1113 2778 1672 
Q 2778 2194 2568 2447 
Q 2359 2700 2050 2700 
Q 1728 2700 1515 2451 
Q 1303 2203 1303 1716 
z
" transform="scale(0.015625)"/>
      </defs>
      <use xlink:href="#Arial-BoldMT-43"/>
      <use xlink:href="#Arial-BoldMT-68" x="72.216797"/>
      <use xlink:href="#Arial-BoldMT-65" x="133.300781"/>
      <use xlink:href="#Arial-BoldMT-6d" x="188.916016"/>
      <use xlink:href="#Arial-BoldMT-69" x="277.832031"/>
      <use xlink:href="#Arial-BoldMT-63" x="305.615234"/>
      <use xlink:href="#Arial-BoldMT-61" x="361.230469"/>
      <use xlink:href="#Arial-BoldMT-6c" x="416.845703"/>
      <use xlink:href="#Arial-BoldMT-20" x="444.628906"/>
      <use xlink:href="#Arial-BoldMT-53" x="472.412109"/>
      <use xlink:href="#Arial-BoldMT-68" x="539.111328"/>
      <use xlink:href="#Arial-BoldMT-69" x="600.195312"/>
      <use xlink:href="#Arial-BoldMT-66" x="627.978516"/>
      <use xlink:href="#Arial-BoldMT-74" x="661.279297"/>
      <use xlink:href="#Arial-BoldMT-20" x="694.580078"/>
      <use xlink:href="#Arial-BoldMT-2f" x="722.363281"/>
      <use xlink:href="#Arial-BoldMT-20" x="750.146484"/>
      <use xlink:href="#Arial-BoldMT-70" x="777.929688"/>
      <use xlink:href="#Arial-BoldMT-70" x="839.013672"/>
      <use xlink:href="#Arial-BoldMT-6d" x="900.097656"/>
     </g>
    </g>
   </g>
   <g id="matplotlib.axis_2"/>
   <g id="line2d_12">
    <path d="M 3.068894 189.168274 
L 4.910471 189.055459 
L 5.524331 188.875091 
L 6.13819 188.672959 
L 6.956669 188.843814 
L 8.593626 189.354883 
L 9.207486 189.436426 
L 10.435204 189.776319 
L 11.049063 189.611717 
L 11.867542 189.275751 
L 13.09526 189.182233 
L 13.70912 189.057442 
L 15.141458 189.089693 
L 15.959937 189.032864 
L 16.778416 189.105837 
L 18.415373 189.378613 
L 19.438472 189.322633 
L 20.052331 189.365507 
L 21.28005 189.141073 
L 22.098528 189.16576 
L 23.326247 188.933507 
L 24.963205 189.423414 
L 25.781684 189.289887 
L 26.804782 189.060716 
L 27.418641 188.860523 
L 28.850979 188.789672 
L 29.669458 188.92761 
L 30.897177 188.978119 
L 31.511036 188.991851 
L 32.534135 188.879987 
L 34.375712 189.316445 
L 35.80805 189.981636 
L 36.421909 189.939934 
L 37.854247 189.291038 
L 38.263487 189.368121 
L 38.877346 189.536202 
L 39.491205 189.326859 
L 40.309684 189.053906 
L 40.923543 189.003554 
L 41.742022 189.187124 
L 43.5836 189.255937 
L 45.834417 189.35067 
L 46.448276 189.008661 
L 47.062135 188.675351 
L 47.471375 188.732084 
L 48.903713 189.449726 
L 49.517572 189.323631 
L 50.336051 189.175597 
L 51.563769 189.014529 
L 52.177628 188.753774 
L 52.586868 188.798608 
L 52.996107 188.894002 
L 53.405347 188.718685 
L 53.814586 188.468248 
L 54.223826 188.463652 
L 55.656164 188.822398 
L 56.679262 188.851994 
L 57.906981 188.617694 
L 59.953178 188.614195 
L 60.567037 188.544307 
L 61.590136 188.834934 
L 62.408615 188.679332 
L 64.250192 188.997205 
L 65.273291 189.295352 
L 66.09177 189.391662 
L 66.705629 189.396708 
L 67.319488 189.347014 
L 68.547206 189.752372 
L 69.161066 189.552193 
L 70.184164 189.225799 
L 72.230362 189.095388 
L 74.276559 188.727879 
L 75.708897 189.22322 
L 76.731995 189.000383 
L 77.755094 188.583293 
L 78.573573 188.814029 
L 79.187432 188.939448 
L 79.801291 188.832653 
L 80.415151 188.673029 
L 81.847489 188.730665 
L 82.461348 188.846927 
L 83.279827 189.013701 
L 84.712165 189.0279 
L 85.326024 188.91505 
L 87.372221 189.240848 
L 87.98608 189.04107 
L 89.623038 188.405734 
L 90.441517 188.341747 
L 91.464616 188.090826 
L 92.283095 188.162087 
L 93.101574 188.206403 
L 94.124672 188.313819 
L 94.738531 188.491086 
L 95.55701 188.828723 
L 96.989348 189.123147 
L 97.807827 189.29825 
L 98.626306 189.318712 
L 99.444785 189.477796 
L 100.877123 189.491996 
L 102.104842 189.13712 
L 103.12794 188.994697 
L 104.355659 189.531702 
L 104.969518 189.336716 
L 105.992616 188.843587 
L 106.401856 188.857861 
L 107.220335 188.974465 
L 109.061912 188.727017 
L 109.675772 188.793339 
L 110.49425 188.617224 
L 111.312729 188.341771 
L 112.540448 188.464762 
L 113.972786 188.24343 
L 114.995884 188.457699 
L 115.405124 188.481754 
L 115.814363 188.765587 
L 116.632842 189.536033 
L 117.042082 189.738826 
L 117.451321 189.716837 
L 118.06518 189.431581 
L 118.883659 188.909784 
L 119.906758 188.620115 
L 120.520617 188.661498 
L 122.157575 189.117202 
L 124.817631 188.900085 
L 125.43149 188.850623 
L 126.249969 188.665352 
L 126.863829 188.911848 
L 127.477688 189.251358 
L 128.091547 189.207219 
L 129.319265 188.943777 
L 129.933124 188.570412 
L 130.342364 188.524082 
L 131.160843 188.723703 
L 132.388561 189.09119 
L 133.820899 188.747678 
L 135.662477 189.10845 
L 136.685575 189.147298 
L 137.913294 189.821364 
L 138.322533 189.828813 
L 138.936392 189.542086 
L 139.550252 189.264183 
L 140.368731 188.961687 
L 140.77797 188.866018 
L 144.051886 188.931511 
L 144.665745 188.676016 
L 145.279604 188.708857 
L 146.916562 188.995782 
L 150.599717 189.069411 
L 151.622815 188.999879 
L 152.441294 189.143843 
L 153.669013 188.945999 
L 154.282872 188.969118 
L 155.51059 188.805922 
L 156.533689 189.057086 
L 158.579886 189.131602 
L 160.012224 189.405476 
L 161.853802 188.856571 
L 162.8769 188.470618 
L 164.923098 188.852511 
L 166.560056 188.582628 
L 167.992394 188.484215 
L 168.606253 188.59384 
L 169.424732 188.928317 
L 170.038591 188.859517 
L 171.06169 188.633648 
L 171.675549 188.627727 
L 172.289408 188.839252 
L 173.312507 189.244951 
L 173.721746 189.284833 
L 175.563324 189.006775 
L 176.995662 188.82588 
L 177.609521 188.696947 
L 178.632619 188.717974 
L 179.451098 188.734378 
L 180.269577 188.901732 
L 180.883436 188.979461 
L 182.315775 188.693217 
L 182.725014 188.620424 
L 183.748113 188.654065 
L 184.361972 188.610134 
L 185.99893 188.81615 
L 186.817409 188.778528 
L 187.431268 188.928155 
L 188.249747 189.318159 
L 189.682085 189.187388 
L 190.705183 188.836615 
L 192.342141 188.72944 
L 194.183719 189.090241 
L 195.206817 188.70001 
L 197.048395 188.762858 
L 198.276113 188.545638 
L 198.889972 188.618217 
L 200.117691 188.946442 
L 200.52693 188.739478 
L 201.140789 188.323866 
L 201.754649 188.152707 
L 202.368508 188.300495 
L 203.596226 188.917788 
L 204.414705 188.964518 
L 205.028564 188.913855 
L 205.642423 188.941384 
L 207.688621 188.327883 
L 208.5071 188.093408 
L 209.120959 188.088691 
L 209.734818 188.339505 
L 210.757917 188.813023 
L 211.371776 188.75393 
L 212.394874 188.569564 
L 213.213353 188.631917 
L 214.441072 188.747128 
L 215.259551 188.714198 
L 218.124227 188.325684 
L 220.375044 187.749095 
L 220.784283 187.880281 
L 221.602762 188.306774 
L 222.216621 188.309396 
L 224.672058 187.898041 
L 225.490537 187.772506 
L 227.332114 188.165585 
L 228.150593 188.171011 
L 228.969072 188.452176 
L 229.992171 188.762772 
L 231.219889 188.679129 
L 235.107664 188.528823 
L 235.926143 188.556171 
L 237.153861 188.634225 
L 237.97234 188.928133 
L 240.632397 188.948786 
L 241.450876 188.970999 
L 242.064735 188.98192 
L 243.087833 188.644109 
L 243.906312 188.372437 
L 244.520171 188.542084 
L 245.33865 188.748593 
L 246.975608 188.672507 
L 247.589467 188.515582 
L 248.203327 188.39441 
L 250.044904 188.642426 
L 250.863383 188.699231 
L 251.681862 188.806278 
L 252.704961 188.62519 
L 253.523439 188.234455 
L 255.774256 187.88061 
L 256.388116 187.645421 
L 257.001975 187.676065 
L 259.866651 188.42435 
L 260.68513 188.404796 
L 261.094369 188.240486 
L 261.912848 187.695906 
L 262.322088 187.72828 
L 263.140567 188.01096 
L 264.572905 187.93792 
L 266.005243 187.518941 
L 268.25606 187.551163 
L 271.120736 186.89996 
L 272.143835 187.059431 
L 273.166933 186.804663 
L 273.780792 186.577441 
L 274.599271 186.452455 
L 275.41775 186.000098 
L 276.440849 185.117469 
L 277.873187 184.432066 
L 279.305525 183.168582 
L 279.919384 182.917628 
L 280.737863 182.84101 
L 282.98868 183.216725 
L 283.602539 182.908752 
L 284.625638 182.348832 
L 288.513413 180.210367 
L 289.127272 179.264366 
L 290.35499 177.187046 
L 291.173469 176.09992 
L 291.787328 175.429361 
L 292.605807 174.045767 
L 293.219666 173.064267 
L 293.833526 172.28675 
L 295.265864 169.631508 
L 296.288962 167.512588 
L 297.107441 166.390367 
L 297.92592 165.650914 
L 298.539779 165.458667 
L 299.153639 165.498929 
L 299.562878 165.772298 
L 300.176737 166.602784 
L 302.632174 170.78005 
L 304.882991 175.021797 
L 305.70147 176.137172 
L 306.724568 177.788423 
L 307.543047 178.948718 
L 309.384625 180.923544 
L 310.612343 181.360047 
L 311.635442 182.24301 
L 312.65854 183.199408 
L 314.704738 184.540154 
L 315.318597 184.528276 
L 316.546315 184.246129 
L 317.160174 184.474408 
L 317.978653 185.137103 
L 318.592513 185.606031 
L 319.206372 185.766909 
L 319.820231 185.724256 
L 321.047949 185.412628 
L 321.661808 185.461548 
L 322.480287 185.535082 
L 324.321865 185.337284 
L 325.344964 185.674339 
L 325.958823 185.511825 
L 326.777302 185.222253 
L 328.20964 185.059091 
L 329.028119 185.162302 
L 330.869696 184.778906 
L 331.483555 184.234865 
L 331.892795 183.868919 
L 332.302034 183.756648 
L 333.529753 183.693514 
L 333.938992 183.453615 
L 334.552851 182.741348 
L 335.16671 181.579146 
L 336.599049 178.070305 
L 337.212908 175.767129 
L 337.826767 172.173014 
L 338.440626 168.264903 
L 338.849866 166.809721 
L 339.054485 166.520892 
L 339.259105 166.510433 
L 339.463725 166.769902 
L 339.872964 167.927657 
L 340.691443 170.649438 
L 340.896063 171.003228 
L 341.100683 171.122281 
L 341.305302 170.99455 
L 341.714542 170.064471 
L 342.73764 166.717831 
L 343.14688 166.330375 
L 343.556119 166.259259 
L 343.760739 166.105252 
L 343.965359 165.736773 
L 344.374598 164.057399 
L 344.783838 160.754503 
L 346.011556 148.497478 
L 346.420795 146.849007 
L 346.830035 146.265663 
L 347.239274 146.100981 
L 347.853133 146.349279 
L 348.057753 146.20536 
L 348.262373 145.682413 
L 348.671612 143.035307 
L 349.080852 138.242886 
L 349.694711 127.340755 
L 350.30857 110.242624 
L 351.127049 85.416573 
L 351.331669 82.919639 
L 351.536289 82.942945 
L 351.740908 85.436115 
L 352.150148 95.564644 
L 352.764007 112.038105 
L 353.173246 117.433944 
L 353.377866 117.985975 
L 353.582486 117.297501 
L 353.991725 113.41751 
L 354.605584 106.78293 
L 355.014824 104.579595 
L 355.628683 103.459152 
L 355.833303 101.823086 
L 356.037923 98.677027 
L 356.447162 86.620861 
L 356.856401 66.077995 
L 357.67488 17.660284 
L 357.8795 12.148779 
L 358.08412 11.905133 
L 358.28874 17.077574 
L 358.697979 39.700948 
L 359.721078 103.823188 
L 360.130317 118.545573 
L 360.539557 126.477479 
L 360.948796 129.27978 
L 361.153416 129.534883 
L 361.358035 129.591918 
L 361.562655 129.927609 
L 361.767275 130.933228 
L 362.176514 135.455696 
L 363.404233 153.200615 
L 363.813472 155.867502 
L 364.018092 156.279608 
L 364.222712 156.124316 
L 364.427331 155.46088 
L 364.836571 152.926424 
L 365.65505 147.453436 
L 366.064289 144.887588 
L 366.473529 141.160399 
L 366.882768 135.844591 
L 367.292008 127.331442 
L 367.905867 107.029318 
L 368.315106 93.985947 
L 368.519726 90.396266 
L 368.724346 89.738362 
L 368.928965 92.116547 
L 369.338205 103.54787 
L 370.156684 129.124734 
L 370.770543 141.163823 
L 371.384402 149.003294 
L 371.793642 151.679429 
L 372.407501 154.278298 
L 373.02136 158.857957 
L 374.658318 172.560834 
L 375.067557 174.122568 
L 375.476797 174.886446 
L 375.681416 175.037342 
L 375.886036 175.03089 
L 376.090656 174.860673 
L 376.499895 174.027861 
L 377.113754 172.343205 
L 377.318374 172.108331 
L 377.522994 172.175623 
L 377.932233 173.095091 
L 378.341473 174.186762 
L 378.546093 174.422359 
L 378.750712 174.340897 
L 378.955332 173.927251 
L 379.364571 172.142717 
L 380.59229 164.070611 
L 380.79691 163.649232 
L 381.001529 163.830799 
L 381.206149 164.738288 
L 381.615388 168.536076 
L 382.433867 177.026242 
L 382.843107 179.542744 
L 383.252346 181.035823 
L 383.661586 181.897949 
L 384.275445 182.466454 
L 384.889304 183.126625 
L 386.321642 185.169955 
L 387.140121 186.574734 
L 387.54936 186.935411 
L 389.595558 188.034478 
L 390.209417 188.315409 
L 391.027896 188.492742 
L 391.641755 188.2941 
L 392.255614 188.153192 
L 393.892572 188.172446 
L 394.506431 188.138655 
L 395.12029 188.130073 
L 396.552628 188.436531 
L 397.166488 188.402992 
L 398.189586 188.222538 
L 399.212685 188.282358 
L 401.463502 188.082126 
L 402.486601 188.328754 
L 403.10046 188.428696 
L 403.918939 188.51795 
L 404.532798 188.549032 
L 406.783615 187.904875 
L 407.192854 188.05561 
L 408.011333 188.481268 
L 408.625192 188.567139 
L 409.239052 188.588979 
L 410.46677 188.831256 
L 411.489869 188.736962 
L 412.308347 188.554274 
L 412.922207 188.762463 
L 413.331446 188.902399 
L 413.740686 188.788738 
L 414.763784 188.029954 
L 415.377643 187.94076 
L 415.786883 188.005864 
L 417.219221 188.607133 
L 419.674658 188.492041 
L 420.288517 188.405911 
L 421.106996 188.183227 
L 421.720855 188.066383 
L 422.334714 187.887327 
L 424.585531 187.901428 
L 425.40401 187.891093 
L 426.222489 187.977659 
L 427.654827 187.628499 
L 428.473306 187.778462 
L 428.882545 187.596763 
L 429.701024 187.012545 
L 430.314883 186.887113 
L 432.5657 186.713887 
L 433.793419 186.281358 
L 434.407278 186.123983 
L 435.839616 186.098152 
L 436.453475 185.830788 
L 439.113532 183.818687 
L 440.13663 183.546558 
L 440.750489 183.556535 
L 441.364349 183.621854 
L 441.978208 183.37279 
L 442.796687 182.886758 
L 443.615166 182.2351 
L 444.024405 182.193208 
L 444.638264 182.24255 
L 445.456743 181.954334 
L 447.70756 180.949219 
L 450.367617 180.418693 
L 452.004574 180.612169 
L 453.027673 180.62992 
L 453.641532 180.879619 
L 454.460011 181.263565 
L 454.869251 181.260145 
L 455.892349 181.008488 
L 457.529307 180.987296 
L 457.938547 181.329627 
L 459.370885 182.833562 
L 463.05404 184.72813 
L 463.872519 184.89689 
L 465.100237 185.205056 
L 466.941814 185.247333 
L 467.555674 185.509189 
L 468.988012 186.42951 
L 469.601871 186.716732 
L 470.21573 187.143468 
L 470.62497 187.138687 
L 471.238829 187.103697 
L 472.261927 187.237522 
L 473.285026 187.611723 
L 473.694265 187.573795 
L 475.126604 186.998625 
L 477.172801 187.341118 
L 478.400519 187.826444 
L 480.037477 187.964227 
L 481.469815 187.682228 
L 483.311393 187.899779 
L 483.925252 187.993209 
L 484.539111 188.055785 
L 485.35759 188.237143 
L 489.859224 187.878433 
L 490.677703 188.258421 
L 491.291562 188.060898 
L 491.905421 187.958704 
L 493.337759 188.218396 
L 494.360858 188.819984 
L 494.974717 188.78371 
L 496.202435 188.519373 
L 497.839393 188.466395 
L 498.657872 188.679723 
L 500.29483 188.553659 
L 500.908689 188.402273 
L 502.136407 188.6129 
L 502.750267 188.626946 
L 503.977985 188.102946 
L 504.591844 188.264273 
L 505.819563 188.730255 
L 506.433422 188.660024 
L 508.07038 188.197295 
L 508.888858 188.10006 
L 509.502718 188.384395 
L 510.321197 188.754447 
L 510.935056 188.751864 
L 511.548915 188.559829 
L 512.367394 188.157704 
L 513.185873 188.03492 
L 514.004352 187.793987 
L 514.618211 187.855044 
L 515.43669 187.939493 
L 516.050549 187.765116 
L 516.664408 187.608598 
L 517.278267 187.632831 
L 517.892126 187.925614 
L 518.505986 188.254528 
L 518.710605 188.20061 
L 519.119845 187.719584 
L 519.733704 186.831621 
L 520.142943 186.590985 
L 520.756803 186.592642 
L 521.370662 186.800282 
L 521.984521 187.030765 
L 522.59838 187.120123 
L 523.00762 186.895488 
L 524.439958 185.28478 
L 525.872296 184.910898 
L 527.100014 184.327113 
L 527.918493 184.108578 
L 528.941592 183.942673 
L 529.555451 183.512954 
L 530.37393 182.446127 
L 530.987789 181.877789 
L 532.010888 181.240174 
L 534.057085 179.373415 
L 534.875564 177.874207 
L 535.489423 176.114869 
L 536.512522 173.101076 
L 537.331 171.273431 
L 538.967958 168.100665 
L 540.195677 164.463404 
L 541.423395 159.828426 
L 542.446494 154.676425 
L 544.90193 141.139197 
L 546.129649 132.801206 
L 547.357367 123.052993 
L 548.994325 108.412126 
L 551.245142 85.46207 
L 553.291339 62.954824 
L 553.700579 60.921479 
L 553.905198 60.405883 
L 554.109818 60.213876 
L 554.314438 60.364644 
L 554.519058 60.901569 
L 554.928297 63.251416 
L 555.337536 67.222352 
L 555.951396 75.579291 
L 557.383734 100.172056 
L 557.792973 109.78266 
L 558.202213 126.944653 
L 558.611452 146.777957 
L 558.816072 151.791753 
L 559.020692 152.669912 
L 559.429931 148.961688 
L 561.271509 129.489375 
L 561.680748 126.228895 
L 562.089987 124.1597 
L 562.499227 122.929183 
L 562.703847 122.637619 
L 562.908466 122.580828 
L 563.113086 122.739181 
L 563.522326 123.508772 
L 563.931565 124.73798 
L 564.545424 127.712786 
L 568.228579 148.698271 
L 569.660917 154.41585 
L 571.911734 162.824955 
L 572.730213 165.34558 
L 573.753312 168.765963 
L 574.776411 171.268888 
L 575.799509 172.986975 
L 577.845706 175.633099 
L 580.096523 179.459219 
L 580.505763 179.888869 
L 581.119622 180.158695 
L 581.733481 180.451949 
L 582.9612 181.509908 
L 583.575059 181.967707 
L 585.007397 182.727584 
L 585.825876 183.456223 
L 586.439735 183.666268 
L 587.053594 183.862663 
L 589.713651 185.304241 
L 590.941369 185.831804 
L 591.555228 185.74889 
L 592.373707 185.632534 
L 593.192186 185.766276 
L 594.419904 186.030453 
L 595.647623 186.108458 
L 596.261482 186.219319 
L 596.875341 186.332594 
L 597.89844 186.710786 
L 598.307679 186.691752 
L 599.126158 186.484144 
L 600.149257 186.632855 
L 600.763116 186.472725 
L 601.376975 186.674544 
L 601.990834 186.835378 
L 603.013933 186.957619 
L 604.037031 187.150074 
L 605.878609 187.31095 
L 606.492468 187.4491 
L 606.901708 187.302113 
L 607.720187 186.801109 
L 608.334046 186.72504 
L 609.357144 186.802961 
L 610.380243 187.330648 
L 611.403342 187.924474 
L 612.221821 187.993507 
L 613.244919 188.078413 
L 613.654159 188.067851 
L 614.677257 187.71423 
L 615.086497 187.76915 
L 616.518835 188.28797 
L 618.360412 188.033102 
L 618.769652 187.983972 
L 620.40661 188.196819 
L 621.634328 188.262721 
L 623.271286 189.095945 
L 624.294384 188.971611 
L 626.545201 188.264591 
L 626.954441 188.305113 
L 627.977539 188.604611 
L 628.591399 188.406964 
L 629.000638 188.291639 
L 629.819117 188.241767 
L 630.637596 188.044741 
L 631.251455 188.229299 
L 631.865314 188.447306 
L 632.274554 188.356162 
L 633.911512 187.631712 
L 634.320751 187.702429 
L 636.366948 188.908405 
L 636.776188 188.860941 
L 638.822385 188.023401 
L 639.436244 188.082011 
L 641.073202 188.431639 
L 641.891681 188.164305 
L 642.30092 188.085864 
L 643.733258 188.263471 
L 645.779456 187.778786 
L 646.188695 187.857166 
L 647.211794 188.313407 
L 647.825653 188.248694 
L 648.439512 188.132036 
L 649.462611 188.188759 
L 650.28109 188.052492 
L 653.145766 188.296256 
L 654.578104 187.902803 
L 654.987343 187.958772 
L 656.010442 188.246936 
L 656.828921 188.375393 
L 658.056639 188.593573 
L 659.898217 188.723026 
L 661.330555 188.059174 
L 662.967513 188.015468 
L 663.581372 187.950545 
L 664.399851 188.1392 
L 665.422949 188.528753 
L 666.446048 189.140561 
L 667.264527 189.147961 
L 668.083006 188.789833 
L 668.696865 188.606771 
L 669.515344 188.597935 
L 671.561541 189.10719 
L 671.970781 189.10637 
L 672.78926 188.807456 
L 673.812358 188.716641 
L 674.426217 188.642276 
L 675.040077 188.650991 
L 676.267795 188.245673 
L 678.109373 188.71781 
L 678.723232 188.726343 
L 679.95095 188.834531 
L 680.974049 188.595595 
L 681.792528 188.522225 
L 682.815626 188.609171 
L 683.838725 188.383086 
L 684.452584 188.224 
L 686.498781 188.215002 
L 687.7265 187.972896 
L 691.818894 187.910138 
L 692.637373 188.097475 
L 693.251232 187.796511 
L 693.660472 187.619004 
L 694.069711 187.632578 
L 694.88819 187.811657 
L 697.139007 187.902006 
L 698.980585 187.760062 
L 700.617542 187.905562 
L 701.231402 187.818121 
L 704.505317 188.092492 
L 705.119176 187.992297 
L 706.142275 188.093948 
L 706.960754 187.529001 
L 707.574613 187.278415 
L 711.257768 186.924556 
L 711.871627 187.108411 
L 712.485487 187.009761 
L 713.508585 186.618497 
L 713.917825 186.247179 
L 714.531684 185.343177 
L 716.168642 182.102165 
L 716.782501 179.93923 
L 717.39636 176.729243 
L 717.8056 173.521268 
L 718.214839 169.01378 
L 718.828698 159.471236 
L 719.442557 150.771011 
L 719.647177 149.924793 
L 719.851797 150.508251 
L 720.261036 155.106828 
L 721.079515 166.77957 
L 721.488755 170.476224 
L 721.897994 172.653113 
L 722.307234 173.762193 
L 722.511853 173.985262 
L 722.716473 173.997631 
L 722.921093 173.820328 
L 723.330332 173.022094 
L 723.739572 171.68437 
L 724.353431 168.46151 
L 724.96729 163.438035 
L 725.376529 158.480443 
L 725.785769 151.512247 
L 726.399628 135.830449 
L 727.422727 98.752873 
L 727.831966 85.788127 
L 728.036586 81.930094 
L 728.241206 80.790176 
L 728.445825 82.712364 
L 728.855065 95.135438 
L 729.878163 137.684086 
L 730.492023 151.607708 
L 730.901262 157.06002 
L 731.310501 160.430252 
L 731.719741 162.25261 
L 732.12898 162.889991 
L 732.3336 162.819959 
L 732.53822 162.498502 
L 732.947459 161.063377 
L 733.356699 158.351845 
L 733.765938 153.944219 
L 734.175178 147.299899 
L 734.584417 137.757524 
L 735.198276 116.362957 
L 736.016755 82.367019 
L 736.425995 74.446837 
L 736.630614 75.064041 
L 736.835234 78.826364 
L 737.244474 93.043694 
L 738.472192 142.453917 
L 739.086051 156.496102 
L 739.69991 164.537189 
L 740.313769 169.100505 
L 740.723009 170.829913 
L 741.132248 171.782436 
L 741.336868 171.998088 
L 741.541488 172.035812 
L 741.746108 171.889136 
L 742.155347 171.048379 
L 742.564586 169.499306 
L 742.973826 166.946085 
L 743.383065 162.884914 
L 743.996925 153.446083 
L 744.610784 143.17422 
L 744.815403 141.645375 
L 745.020023 141.884839 
L 745.224643 143.927048 
L 745.838502 156.135385 
L 746.452361 167.368856 
L 747.06622 174.395341 
L 747.68008 178.400466 
L 748.293939 180.790155 
L 749.112418 182.991992 
L 749.726277 184.166821 
L 750.340136 184.812173 
L 750.953995 185.119441 
L 752.590953 185.459663 
L 753.409432 185.457252 
L 753.818671 185.6195 
L 755.455629 186.669214 
L 756.274108 186.935387 
L 756.887967 187.213397 
L 757.706446 187.656879 
L 758.320305 187.669323 
L 759.138784 187.7235 
L 759.548024 187.74895 
L 761.798841 187.217248 
L 762.4127 186.510245 
L 763.845038 184.863134 
L 764.254278 184.62442 
L 765.072756 184.472591 
L 765.481996 184.019696 
L 766.300475 182.613155 
L 766.505095 182.644276 
L 766.914334 183.406835 
L 767.732813 185.303813 
L 768.346672 186.094188 
L 769.165151 186.607372 
L 769.77901 186.972912 
L 770.18825 186.949236 
L 770.802109 186.572525 
L 771.415968 185.824107 
L 773.666785 182.238151 
L 773.871405 182.335807 
L 774.280644 183.312792 
L 774.894503 184.925132 
L 775.712982 186.287029 
L 776.326841 187.053065 
L 776.736081 187.302372 
L 777.759179 187.490824 
L 779.600757 188.438708 
L 780.009996 188.306862 
L 781.442335 187.327067 
L 782.260813 187.265872 
L 782.874673 187.629286 
L 783.693152 188.038869 
L 784.92087 188.306264 
L 785.943969 188.522334 
L 786.557828 188.889895 
L 787.171687 188.894804 
L 788.194786 188.768279 
L 788.808645 188.728941 
L 789.422504 188.711176 
L 790.036363 188.700716 
L 791.059462 189.077521 
L 791.468701 189.16532 
L 792.08256 189.002648 
L 792.69642 188.871338 
L 793.514898 188.761622 
L 795.970335 188.125429 
L 796.379575 188.178174 
L 797.811913 188.770732 
L 798.425772 188.619367 
L 799.448871 188.200154 
L 800.676589 188.358601 
L 801.290448 188.19698 
L 801.904307 188.297286 
L 802.927406 188.393632 
L 805.382843 188.617583 
L 805.996702 188.674192 
L 806.815181 188.888848 
L 807.42904 188.759845 
L 808.042899 188.514337 
L 809.270617 188.367958 
L 810.907575 188.670887 
L 812.339913 188.526591 
L 813.567632 188.098435 
L 814.59073 188.224861 
L 818.683125 188.845203 
L 820.729322 188.892194 
L 822.36628 188.302202 
L 823.389379 188.392756 
L 824.003238 188.449563 
L 826.254055 188.283729 
L 827.072534 188.183864 
L 827.891013 188.230837 
L 829.52797 188.627676 
L 830.551069 188.569917 
L 833.006506 188.282645 
L 834.643464 188.364271 
L 835.666562 188.443561 
L 836.280421 188.368482 
L 836.894281 188.048779 
L 837.50814 187.635096 
L 837.917379 187.562463 
L 838.940478 187.552759 
L 840.168196 187.108433 
L 841.805154 186.950034 
L 843.442112 186.483816 
L 845.692929 184.583401 
L 846.306788 183.738376 
L 847.125267 182.128562 
L 847.739126 180.469478 
L 848.352985 177.926679 
L 848.966844 174.520552 
L 849.580704 169.516341 
L 850.194563 161.52306 
L 851.422281 140.836552 
L 851.626901 139.84536 
L 851.831521 140.158353 
L 852.03614 141.643201 
L 853.059239 152.169074 
L 853.263859 152.638226 
L 853.468478 152.334903 
L 853.673098 151.270218 
L 854.082338 146.914326 
L 854.900816 134.954743 
L 855.105436 134.102126 
L 855.310056 134.936982 
L 855.719295 140.732413 
L 856.537774 154.148912 
L 856.947014 157.459583 
L 857.151633 158.236268 
L 857.356253 158.496049 
L 857.560873 158.249888 
L 857.765493 157.466442 
L 858.174732 154.091082 
L 858.583972 147.915486 
L 858.993211 138.174719 
L 860.220929 102.673857 
L 860.425549 102.487903 
L 860.630169 104.721365 
L 861.244028 118.738336 
L 861.653267 126.431539 
L 861.857887 128.462622 
L 862.062507 129.109298 
L 862.267127 128.336872 
L 862.471746 126.152414 
L 862.880986 117.904927 
L 863.494845 102.778767 
L 863.699465 100.598973 
L 863.904084 101.090093 
L 864.108704 104.232586 
L 864.517944 116.288241 
L 865.336423 142.966804 
L 865.950282 154.686844 
L 866.359521 158.946483 
L 866.768761 161.077828 
L 866.97338 161.468624 
L 867.178 161.438852 
L 867.38262 160.986956 
L 867.791859 158.700028 
L 868.201099 154.506124 
L 868.814958 147.535247 
L 869.019578 146.479313 
L 869.224197 146.555683 
L 869.428817 147.734251 
L 870.656535 158.675625 
L 870.861155 159.012758 
L 871.065775 158.80143 
L 871.270395 158.045532 
L 871.679634 155.098796 
L 872.293493 150.228633 
L 872.498113 149.694075 
L 872.702733 150.061938 
L 872.907352 151.381571 
L 873.316592 156.467484 
L 874.339691 171.156945 
L 874.95355 176.198427 
L 875.567409 179.360365 
L 876.181268 181.379668 
L 876.999747 183.110289 
L 877.613606 183.889998 
L 878.841325 184.881285 
L 879.864423 185.408792 
L 880.478282 185.870734 
L 881.501381 186.158077 
L 882.11524 186.261493 
L 882.933719 186.235442 
L 883.956818 187.031219 
L 884.366057 187.014068 
L 884.979916 186.710975 
L 886.003015 186.065428 
L 886.412254 186.129129 
L 887.844592 186.842474 
L 888.458452 186.869347 
L 889.68617 186.704237 
L 890.300029 186.774856 
L 890.913888 186.484086 
L 891.527748 186.261902 
L 892.141607 186.385605 
L 893.573945 186.87449 
L 893.983184 186.764108 
L 895.006283 186.142019 
L 895.824762 185.14134 
L 896.438621 184.491068 
L 896.84786 184.332641 
L 897.46172 184.371494 
L 898.484818 184.54783 
L 899.098677 184.330316 
L 899.712537 183.880206 
L 900.735635 182.974607 
L 901.144875 182.853921 
L 902.167973 182.965247 
L 902.986452 182.492296 
L 904.009551 181.861239 
L 904.82803 181.029933 
L 907.078847 178.023322 
L 908.101945 175.822422 
L 909.329664 173.230538 
L 909.943523 171.61579 
L 910.762002 169.21894 
L 910.966622 169.015163 
L 911.171241 169.073093 
L 912.19434 170.217326 
L 912.603579 170.332562 
L 913.012819 170.210029 
L 913.422058 169.704598 
L 914.445157 167.868719 
L 914.854396 167.603176 
L 915.263636 167.70476 
L 915.672875 168.034664 
L 916.286735 168.903172 
L 916.900594 170.170603 
L 918.537552 174.10879 
L 919.151411 175.499967 
L 919.76527 177.331754 
L 920.174509 179.098491 
L 920.992988 183.334403 
L 921.197608 183.227397 
L 921.606847 181.532511 
L 922.220707 179.033067 
L 923.243805 176.227814 
L 923.857664 175.097495 
L 924.266904 174.764198 
L 924.676143 174.629797 
L 925.085383 174.685241 
L 925.903862 175.104082 
L 926.517721 175.681002 
L 927.3362 176.910005 
L 928.154679 178.016375 
L 929.791636 179.742907 
L 931.223975 181.694018 
L 933.270172 183.495733 
L 935.111749 184.361915 
L 936.748707 185.57441 
L 937.157947 185.583675 
L 938.385665 185.22739 
L 940.022623 185.491884 
L 941.659581 184.494473 
L 942.27344 183.29621 
L 942.887299 181.603905 
L 943.705778 178.492042 
L 944.319637 174.970125 
L 944.728877 171.418653 
L 945.138116 166.325701 
L 945.547355 158.769544 
L 945.956595 147.632296 
L 946.979694 111.640549 
L 947.184313 110.855419 
L 947.388933 114.291662 
L 948.002792 137.25523 
L 948.616651 156.140818 
L 949.230511 166.673786 
L 949.84437 172.434871 
L 950.458229 175.778304 
L 951.276708 178.800448 
L 951.890567 180.312445 
L 952.504426 181.299178 
L 952.913666 181.567933 
L 953.732145 181.81108 
L 955.573722 183.420853 
L 956.392201 184.101065 
L 957.619919 184.55668 
L 958.029159 184.601756 
L 958.438398 184.404986 
L 958.847638 183.910409 
L 959.870736 182.425238 
L 960.893835 181.068273 
L 961.916934 179.817014 
L 962.326173 179.624054 
L 962.530793 179.764175 
L 962.940032 180.562484 
L 964.37237 184.473235 
L 964.78161 184.946824 
L 965.190849 185.02764 
L 965.804708 185.135678 
L 966.623187 185.635475 
L 967.441666 186.265477 
L 967.850906 186.369631 
L 968.260145 186.286491 
L 968.874004 186.070661 
L 969.487863 186.196112 
L 970.510962 186.326915 
L 971.124821 186.069935 
L 971.73868 185.822256 
L 972.35254 185.861232 
L 972.966399 186.108664 
L 973.989497 186.688016 
L 974.398737 186.469973 
L 975.217216 185.604465 
L 975.626455 185.442104 
L 976.035695 185.652051 
L 977.672653 187.192146 
L 978.081892 187.202837 
L 979.104991 186.96017 
L 980.537329 187.307506 
L 981.355808 187.271126 
L 982.583526 187.442237 
L 983.197385 187.311058 
L 984.015864 187.137588 
L 984.629723 187.121154 
L 985.857442 187.386791 
L 987.08516 187.77236 
L 987.699019 187.732687 
L 988.312878 187.663026 
L 988.722118 187.843892 
L 990.154456 188.866769 
L 991.177555 188.888242 
L 991.791414 188.753841 
L 992.609893 188.51272 
L 994.86071 188.242438 
L 995.679189 187.801773 
L 997.111527 186.890516 
L 997.520766 186.798488 
L 997.930006 186.921694 
L 999.157724 187.904537 
L 1000.180822 188.11975 
L 1000.999301 188.015675 
L 1001.613161 187.740484 
L 1002.431639 187.293778 
L 1002.840879 187.401484 
L 1004.068597 188.295004 
L 1004.682456 188.323281 
L 1005.296316 187.937289 
L 1005.910175 187.567829 
L 1007.342513 187.281055 
L 1009.79795 188.229914 
L 1010.411809 188.372185 
L 1011.025668 188.610828 
L 1011.639527 188.501316 
L 1012.253386 188.385127 
L 1016.141161 188.483071 
L 1016.95964 188.31217 
L 1017.36888 188.418977 
L 1018.187358 188.850041 
L 1020.233556 188.741403 
L 1020.642795 188.818885 
L 1021.052035 188.694433 
L 1021.665894 188.465907 
L 1023.507471 188.365557 
L 1024.121331 187.948557 
L 1024.53057 187.885078 
L 1024.939809 187.990778 
L 1025.553669 188.252248 
L 1026.167528 188.206401 
L 1026.986007 188.031163 
L 1027.599866 187.87424 
L 1028.009105 187.734028 
L 1028.418345 187.814446 
L 1029.441443 188.366138 
L 1030.873782 188.756288 
L 1031.487641 189.043051 
L 1032.1015 188.957775 
L 1032.715359 188.745311 
L 1033.533838 188.282812 
L 1033.943077 188.228936 
L 1034.352317 188.357971 
L 1035.375416 189.100722 
L 1035.784655 189.36035 
L 1036.193894 189.336691 
L 1036.807754 188.980561 
L 1037.830852 188.235661 
L 1038.444711 188.173534 
L 1039.058571 188.357537 
L 1039.67243 188.548473 
L 1040.490909 188.486691 
L 1041.104768 188.303565 
L 1041.718627 188.038889 
L 1042.127866 188.090226 
L 1043.560205 188.643024 
L 1044.174064 188.628567 
L 1045.401782 188.195673 
L 1046.015641 188.223185 
L 1047.24336 188.598376 
L 1048.266458 188.89593 
L 1049.289557 188.774833 
L 1050.517275 189.119483 
L 1052.154233 189.086313 
L 1052.972712 188.711237 
L 1053.995811 188.646286 
L 1054.81429 188.61952 
L 1056.246628 188.12121 
L 1056.655867 188.241705 
L 1057.269726 188.451637 
L 1058.088205 188.580848 
L 1058.497445 188.708947 
L 1058.906684 188.606193 
L 1060.134402 187.895361 
L 1060.543642 187.955077 
L 1061.362121 188.274929 
L 1062.1806 188.462351 
L 1062.794459 188.682864 
L 1063.612938 188.64673 
L 1064.431417 188.578033 
L 1065.659135 188.960482 
L 1066.682234 188.78357 
L 1067.909952 189.246415 
L 1068.523811 189.388191 
L 1069.13767 189.555811 
L 1069.75153 189.359892 
L 1070.774628 189.010845 
L 1071.593107 188.861231 
L 1072.206966 188.676626 
L 1073.025445 188.778011 
L 1074.867023 189.280221 
L 1075.480882 189.13828 
L 1077.527079 188.522545 
L 1078.754798 188.717448 
L 1079.573276 188.398883 
L 1084.48415 188.719668 
L 1085.302629 188.935797 
L 1086.325727 189.353014 
L 1087.348826 189.379472 
L 1089.395023 189.913906 
L 1090.008883 189.703177 
L 1090.827361 189.309566 
L 1092.05508 189.31783 
L 1092.668939 189.280491 
L 1093.692038 188.707846 
L 1095.738235 189.094725 
L 1096.556714 189.314776 
L 1097.170573 189.333279 
L 1097.989052 188.992765 
L 1098.602911 188.801332 
L 1099.21677 188.952625 
L 1099.830629 189.061911 
L 1104.536883 188.55225 
L 1104.946123 188.433197 
L 1105.764602 188.666618 
L 1106.378461 188.8347 
L 1106.99232 189.057031 
L 1107.810799 189.014826 
L 1108.833897 189.01566 
L 1110.470855 189.180815 
L 1112.312433 188.889892 
L 1113.540151 188.999559 
L 1114.15401 189.143651 
L 1114.56325 189.044049 
L 1115.586348 188.572709 
L 1116.404827 188.536553 
L 1119.269503 189.03257 
L 1119.883363 189.299627 
L 1120.292602 189.195688 
L 1120.906461 188.972984 
L 1121.315701 189.024451 
L 1122.338799 189.47724 
L 1122.952659 189.2384 
L 1123.566518 189.101033 
L 1124.180377 189.064491 
L 1124.794236 188.814306 
L 1127.045053 188.804756 
L 1128.272771 188.562918 
L 1128.886631 188.811753 
L 1129.50049 189.090757 
L 1130.318969 189.154537 
L 1132.160546 189.031455 
L 1133.797504 188.820868 
L 1134.615983 188.660453 
L 1135.229842 188.537736 
L 1135.843701 188.592233 
L 1137.07142 188.904658 
L 1137.889899 188.889954 
L 1138.912997 189.009487 
L 1139.526856 188.887317 
L 1140.754575 188.526172 
L 1142.391533 188.787836 
L 1144.43773 189.426825 
L 1145.460829 189.287595 
L 1146.483927 189.406745 
L 1147.097786 189.356326 
L 1147.916265 188.969507 
L 1148.325505 188.820568 
L 1148.734744 188.854212 
L 1150.371702 189.367825 
L 1150.985561 189.200716 
L 1151.59942 189.03044 
L 1152.417899 189.259656 
L 1153.236378 189.376633 
L 1154.054857 189.334725 
L 1155.077956 189.147864 
L 1156.305674 189.221884 
L 1158.147252 188.768601 
L 1158.761111 188.774661 
L 1160.193449 188.467995 
L 1161.011928 188.743469 
L 1161.830407 188.827766 
L 1162.648886 189.054963 
L 1163.467364 188.936568 
L 1164.695083 188.204357 
L 1165.308942 188.3256 
L 1167.355139 188.868881 
L 1168.582858 188.690761 
L 1170.424435 188.93468 
L 1171.447534 188.812614 
L 1172.675252 188.576589 
L 1173.493731 188.314093 
L 1174.10759 188.503018 
L 1174.926069 188.71455 
L 1177.586126 188.961735 
L 1179.632323 188.397471 
L 1184.747816 189.287277 
L 1184.747816 189.287277 
" clip-path="url(#p79487e0cee)" style="fill: none; stroke: #000000; stroke-width: 2; stroke-linecap: square"/>
   </g>
   <g id="patch_3">
    <path d="M 3.00024 198.907885 
L 1184.99976 198.907885 
" style="fill: none; stroke: #000000; stroke-width: 2; stroke-linejoin: miter; stroke-linecap: square"/>
   </g>
  </g>
 </g>
 <defs>
  <clipPath id="p79487e0cee">
   <rect x="3.00024" y="3.00024" width="1181.99952" height="195.907645"/>
  </clipPath>
 </defs>
</svg>
