<?xml version="1.0" encoding="utf-8" standalone="no"?>
<!DOCTYPE svg PUBLIC "-//W3C//DTD SVG 1.1//EN"
  "http://www.w3.org/Graphics/SVG/1.1/DTD/svg11.dtd">
<svg xmlns:xlink="http://www.w3.org/1999/xlink" width="1188pt" height="252pt" viewBox="0 0 1188 252" xmlns="http://www.w3.org/2000/svg" version="1.1">
 <metadata>
  <rdf:RDF xmlns:dc="http://purl.org/dc/elements/1.1/" xmlns:cc="http://creativecommons.org/ns#" xmlns:rdf="http://www.w3.org/1999/02/22-rdf-syntax-ns#">
   <cc:Work>
    <dc:type rdf:resource="http://purl.org/dc/dcmitype/StillImage"/>
    <dc:date>2024-05-14T19:45:23.578469</dc:date>
    <dc:format>image/svg+xml</dc:format>
    <dc:creator>
     <cc:Agent>
      <dc:title>Matplotlib v3.8.0, https://matplotlib.org/</dc:title>
     </cc:Agent>
    </dc:creator>
   </cc:Work>
  </rdf:RDF>
 </metadata>
 <defs>
  <style type="text/css">*{stroke-linejoin: round; stroke-linecap: butt}</style>
 </defs>
 <g id="figure_1">
  <g id="patch_1">
   <path d="M 0 252 
L 1188 252 
L 1188 0 
L 0 0 
z
" style="fill: #ffffff"/>
  </g>
  <g id="axes_1">
   <g id="patch_2">
    <path d="M 3.00024 198.907885 
L 1184.99976 198.907885 
L 1184.99976 3.00024 
L 3.00024 3.00024 
z
" style="fill: #ffffff"/>
   </g>
   <g id="matplotlib.axis_1">
    <g id="xtick_1">
     <g id="line2d_1">
      <defs>
       <path id="mc8d59e0381" d="M 0 0 
L 0 8 
" style="stroke: #000000; stroke-width: 2"/>
      </defs>
      <g>
       <use xlink:href="#mc8d59e0381" x="1131.272509" y="198.907885" style="stroke: #000000; stroke-width: 2"/>
      </g>
     </g>
     <g id="text_1">
      <!-- 0 -->
      <g transform="translate(1126.267665 224.791947) scale(0.18 -0.18)">
       <defs>
        <path id="Arial-BoldMT-30" d="M 1756 4600 
Q 2422 4600 2797 4125 
Q 3244 3563 3244 2259 
Q 3244 959 2794 391 
Q 2422 -78 1756 -78 
Q 1088 -78 678 436 
Q 269 950 269 2269 
Q 269 3563 719 4131 
Q 1091 4600 1756 4600 
z
M 1756 3872 
Q 1597 3872 1472 3770 
Q 1347 3669 1278 3406 
Q 1188 3066 1188 2259 
Q 1188 1453 1269 1151 
Q 1350 850 1473 750 
Q 1597 650 1756 650 
Q 1916 650 2041 751 
Q 2166 853 2234 1116 
Q 2325 1453 2325 2259 
Q 2325 3066 2244 3367 
Q 2163 3669 2039 3770 
Q 1916 3872 1756 3872 
z
" transform="scale(0.015625)"/>
       </defs>
       <use xlink:href="#Arial-BoldMT-30"/>
      </g>
     </g>
    </g>
    <g id="xtick_2">
     <g id="line2d_2">
      <g>
       <use xlink:href="#mc8d59e0381" x="1023.818007" y="198.907885" style="stroke: #000000; stroke-width: 2"/>
      </g>
     </g>
     <g id="text_2">
      <!-- 1 -->
      <g transform="translate(1018.813164 224.791947) scale(0.18 -0.18)">
       <defs>
        <path id="Arial-BoldMT-31" d="M 2519 0 
L 1641 0 
L 1641 3309 
Q 1159 2859 506 2644 
L 506 3441 
Q 850 3553 1253 3867 
Q 1656 4181 1806 4600 
L 2519 4600 
L 2519 0 
z
" transform="scale(0.015625)"/>
       </defs>
       <use xlink:href="#Arial-BoldMT-31"/>
      </g>
     </g>
    </g>
    <g id="xtick_3">
     <g id="line2d_3">
      <g>
       <use xlink:href="#mc8d59e0381" x="916.363505" y="198.907885" style="stroke: #000000; stroke-width: 2"/>
      </g>
     </g>
     <g id="text_3">
      <!-- 2 -->
      <g transform="translate(911.358662 224.791947) scale(0.18 -0.18)">
       <defs>
        <path id="Arial-BoldMT-32" d="M 3238 816 
L 3238 0 
L 159 0 
Q 209 463 459 877 
Q 709 1291 1447 1975 
Q 2041 2528 2175 2725 
Q 2356 2997 2356 3263 
Q 2356 3556 2198 3714 
Q 2041 3872 1763 3872 
Q 1488 3872 1325 3706 
Q 1163 3541 1138 3156 
L 263 3244 
Q 341 3969 753 4284 
Q 1166 4600 1784 4600 
Q 2463 4600 2850 4234 
Q 3238 3869 3238 3325 
Q 3238 3016 3127 2736 
Q 3016 2456 2775 2150 
Q 2616 1947 2200 1565 
Q 1784 1184 1673 1059 
Q 1563 934 1494 816 
L 3238 816 
z
" transform="scale(0.015625)"/>
       </defs>
       <use xlink:href="#Arial-BoldMT-32"/>
      </g>
     </g>
    </g>
    <g id="xtick_4">
     <g id="line2d_4">
      <g>
       <use xlink:href="#mc8d59e0381" x="808.909004" y="198.907885" style="stroke: #000000; stroke-width: 2"/>
      </g>
     </g>
     <g id="text_4">
      <!-- 3 -->
      <g transform="translate(803.90416 224.791947) scale(0.18 -0.18)">
       <defs>
        <path id="Arial-BoldMT-33" d="M 241 1216 
L 1091 1319 
Q 1131 994 1309 822 
Q 1488 650 1741 650 
Q 2013 650 2198 856 
Q 2384 1063 2384 1413 
Q 2384 1744 2206 1937 
Q 2028 2131 1772 2131 
Q 1603 2131 1369 2066 
L 1466 2781 
Q 1822 2772 2009 2936 
Q 2197 3100 2197 3372 
Q 2197 3603 2059 3740 
Q 1922 3878 1694 3878 
Q 1469 3878 1309 3722 
Q 1150 3566 1116 3266 
L 306 3403 
Q 391 3819 561 4067 
Q 731 4316 1036 4458 
Q 1341 4600 1719 4600 
Q 2366 4600 2756 4188 
Q 3078 3850 3078 3425 
Q 3078 2822 2419 2463 
Q 2813 2378 3048 2084 
Q 3284 1791 3284 1375 
Q 3284 772 2843 347 
Q 2403 -78 1747 -78 
Q 1125 -78 715 280 
Q 306 638 241 1216 
z
" transform="scale(0.015625)"/>
       </defs>
       <use xlink:href="#Arial-BoldMT-33"/>
      </g>
     </g>
    </g>
    <g id="xtick_5">
     <g id="line2d_5">
      <g>
       <use xlink:href="#mc8d59e0381" x="701.454502" y="198.907885" style="stroke: #000000; stroke-width: 2"/>
      </g>
     </g>
     <g id="text_5">
      <!-- 4 -->
      <g transform="translate(696.449658 224.791947) scale(0.18 -0.18)">
       <defs>
        <path id="Arial-BoldMT-34" d="M 1994 0 
L 1994 922 
L 119 922 
L 119 1691 
L 2106 4600 
L 2844 4600 
L 2844 1694 
L 3413 1694 
L 3413 922 
L 2844 922 
L 2844 0 
L 1994 0 
z
M 1994 1694 
L 1994 3259 
L 941 1694 
L 1994 1694 
z
" transform="scale(0.015625)"/>
       </defs>
       <use xlink:href="#Arial-BoldMT-34"/>
      </g>
     </g>
    </g>
    <g id="xtick_6">
     <g id="line2d_6">
      <g>
       <use xlink:href="#mc8d59e0381" x="594" y="198.907885" style="stroke: #000000; stroke-width: 2"/>
      </g>
     </g>
     <g id="text_6">
      <!-- 5 -->
      <g transform="translate(588.995156 224.791947) scale(0.18 -0.18)">
       <defs>
        <path id="Arial-BoldMT-35" d="M 284 1178 
L 1159 1269 
Q 1197 972 1381 798 
Q 1566 625 1806 625 
Q 2081 625 2272 848 
Q 2463 1072 2463 1522 
Q 2463 1944 2273 2155 
Q 2084 2366 1781 2366 
Q 1403 2366 1103 2031 
L 391 2134 
L 841 4519 
L 3163 4519 
L 3163 3697 
L 1506 3697 
L 1369 2919 
Q 1663 3066 1969 3066 
Q 2553 3066 2959 2641 
Q 3366 2216 3366 1538 
Q 3366 972 3038 528 
Q 2591 -78 1797 -78 
Q 1163 -78 763 262 
Q 363 603 284 1178 
z
" transform="scale(0.015625)"/>
       </defs>
       <use xlink:href="#Arial-BoldMT-35"/>
      </g>
     </g>
    </g>
    <g id="xtick_7">
     <g id="line2d_7">
      <g>
       <use xlink:href="#mc8d59e0381" x="486.545498" y="198.907885" style="stroke: #000000; stroke-width: 2"/>
      </g>
     </g>
     <g id="text_7">
      <!-- 6 -->
      <g transform="translate(481.540654 224.791947) scale(0.18 -0.18)">
       <defs>
        <path id="Arial-BoldMT-36" d="M 3247 3459 
L 2397 3366 
Q 2366 3628 2234 3753 
Q 2103 3878 1894 3878 
Q 1616 3878 1423 3628 
Q 1231 3378 1181 2588 
Q 1509 2975 1997 2975 
Q 2547 2975 2939 2556 
Q 3331 2138 3331 1475 
Q 3331 772 2918 347 
Q 2506 -78 1859 -78 
Q 1166 -78 719 461 
Q 272 1000 272 2228 
Q 272 3488 737 4044 
Q 1203 4600 1947 4600 
Q 2469 4600 2811 4308 
Q 3153 4016 3247 3459 
z
M 1256 1544 
Q 1256 1116 1453 883 
Q 1650 650 1903 650 
Q 2147 650 2309 840 
Q 2472 1031 2472 1466 
Q 2472 1913 2297 2120 
Q 2122 2328 1859 2328 
Q 1606 2328 1431 2129 
Q 1256 1931 1256 1544 
z
" transform="scale(0.015625)"/>
       </defs>
       <use xlink:href="#Arial-BoldMT-36"/>
      </g>
     </g>
    </g>
    <g id="xtick_8">
     <g id="line2d_8">
      <g>
       <use xlink:href="#mc8d59e0381" x="379.090996" y="198.907885" style="stroke: #000000; stroke-width: 2"/>
      </g>
     </g>
     <g id="text_8">
      <!-- 7 -->
      <g transform="translate(374.086153 224.791947) scale(0.18 -0.18)">
       <defs>
        <path id="Arial-BoldMT-37" d="M 272 3703 
L 272 4519 
L 3275 4519 
L 3275 3881 
Q 2903 3516 2518 2831 
Q 2134 2147 1932 1376 
Q 1731 606 1734 0 
L 888 0 
Q 909 950 1279 1937 
Q 1650 2925 2269 3703 
L 272 3703 
z
" transform="scale(0.015625)"/>
       </defs>
       <use xlink:href="#Arial-BoldMT-37"/>
      </g>
     </g>
    </g>
    <g id="xtick_9">
     <g id="line2d_9">
      <g>
       <use xlink:href="#mc8d59e0381" x="271.636495" y="198.907885" style="stroke: #000000; stroke-width: 2"/>
      </g>
     </g>
     <g id="text_9">
      <!-- 8 -->
      <g transform="translate(266.631651 224.791947) scale(0.18 -0.18)">
       <defs>
        <path id="Arial-BoldMT-38" d="M 1025 2472 
Q 684 2616 529 2867 
Q 375 3119 375 3419 
Q 375 3931 733 4265 
Q 1091 4600 1750 4600 
Q 2403 4600 2764 4265 
Q 3125 3931 3125 3419 
Q 3125 3100 2959 2851 
Q 2794 2603 2494 2472 
Q 2875 2319 3073 2025 
Q 3272 1731 3272 1347 
Q 3272 713 2867 316 
Q 2463 -81 1791 -81 
Q 1166 -81 750 247 
Q 259 634 259 1309 
Q 259 1681 443 1992 
Q 628 2303 1025 2472 
z
M 1206 3356 
Q 1206 3094 1354 2947 
Q 1503 2800 1750 2800 
Q 2000 2800 2150 2948 
Q 2300 3097 2300 3359 
Q 2300 3606 2151 3754 
Q 2003 3903 1759 3903 
Q 1506 3903 1356 3753 
Q 1206 3603 1206 3356 
z
M 1125 1394 
Q 1125 1031 1311 828 
Q 1497 625 1775 625 
Q 2047 625 2225 820 
Q 2403 1016 2403 1384 
Q 2403 1706 2222 1901 
Q 2041 2097 1763 2097 
Q 1441 2097 1283 1875 
Q 1125 1653 1125 1394 
z
" transform="scale(0.015625)"/>
       </defs>
       <use xlink:href="#Arial-BoldMT-38"/>
      </g>
     </g>
    </g>
    <g id="xtick_10">
     <g id="line2d_10">
      <g>
       <use xlink:href="#mc8d59e0381" x="164.181993" y="198.907885" style="stroke: #000000; stroke-width: 2"/>
      </g>
     </g>
     <g id="text_10">
      <!-- 9 -->
      <g transform="translate(159.177149 224.791947) scale(0.18 -0.18)">
       <defs>
        <path id="Arial-BoldMT-39" d="M 291 1059 
L 1141 1153 
Q 1172 894 1303 769 
Q 1434 644 1650 644 
Q 1922 644 2112 894 
Q 2303 1144 2356 1931 
Q 2025 1547 1528 1547 
Q 988 1547 595 1964 
Q 203 2381 203 3050 
Q 203 3747 617 4173 
Q 1031 4600 1672 4600 
Q 2369 4600 2816 4061 
Q 3263 3522 3263 2288 
Q 3263 1031 2797 475 
Q 2331 -81 1584 -81 
Q 1047 -81 715 205 
Q 384 491 291 1059 
z
M 2278 2978 
Q 2278 3403 2083 3637 
Q 1888 3872 1631 3872 
Q 1388 3872 1227 3680 
Q 1066 3488 1066 3050 
Q 1066 2606 1241 2398 
Q 1416 2191 1678 2191 
Q 1931 2191 2104 2391 
Q 2278 2591 2278 2978 
z
" transform="scale(0.015625)"/>
       </defs>
       <use xlink:href="#Arial-BoldMT-39"/>
      </g>
     </g>
    </g>
    <g id="xtick_11">
     <g id="line2d_11">
      <g>
       <use xlink:href="#mc8d59e0381" x="56.727491" y="198.907885" style="stroke: #000000; stroke-width: 2"/>
      </g>
     </g>
     <g id="text_11">
      <!-- 10 -->
      <g transform="translate(46.717803 224.791947) scale(0.18 -0.18)">
       <use xlink:href="#Arial-BoldMT-31"/>
       <use xlink:href="#Arial-BoldMT-30" x="55.615234"/>
      </g>
     </g>
    </g>
    <g id="text_12">
     <!-- Chemical Shift / ppm -->
     <g transform="translate(504.992813 245.447573) scale(0.18 -0.18)">
      <defs>
       <path id="Arial-BoldMT-43" d="M 3397 1684 
L 4294 1400 
Q 4088 650 3608 286 
Q 3128 -78 2391 -78 
Q 1478 -78 890 545 
Q 303 1169 303 2250 
Q 303 3394 893 4026 
Q 1484 4659 2447 4659 
Q 3288 4659 3813 4163 
Q 4125 3869 4281 3319 
L 3366 3100 
Q 3284 3456 3026 3662 
Q 2769 3869 2400 3869 
Q 1891 3869 1573 3503 
Q 1256 3138 1256 2319 
Q 1256 1450 1568 1081 
Q 1881 713 2381 713 
Q 2750 713 3015 947 
Q 3281 1181 3397 1684 
z
" transform="scale(0.015625)"/>
       <path id="Arial-BoldMT-68" d="M 1334 4581 
L 1334 2897 
Q 1759 3394 2350 3394 
Q 2653 3394 2897 3281 
Q 3141 3169 3264 2994 
Q 3388 2819 3433 2606 
Q 3478 2394 3478 1947 
L 3478 0 
L 2600 0 
L 2600 1753 
Q 2600 2275 2550 2415 
Q 2500 2556 2373 2639 
Q 2247 2722 2056 2722 
Q 1838 2722 1666 2615 
Q 1494 2509 1414 2295 
Q 1334 2081 1334 1663 
L 1334 0 
L 456 0 
L 456 4581 
L 1334 4581 
z
" transform="scale(0.015625)"/>
       <path id="Arial-BoldMT-65" d="M 2381 1056 
L 3256 909 
Q 3088 428 2723 176 
Q 2359 -75 1813 -75 
Q 947 -75 531 491 
Q 203 944 203 1634 
Q 203 2459 634 2926 
Q 1066 3394 1725 3394 
Q 2466 3394 2894 2905 
Q 3322 2416 3303 1406 
L 1103 1406 
Q 1113 1016 1316 798 
Q 1519 581 1822 581 
Q 2028 581 2168 693 
Q 2309 806 2381 1056 
z
M 2431 1944 
Q 2422 2325 2234 2523 
Q 2047 2722 1778 2722 
Q 1491 2722 1303 2513 
Q 1116 2303 1119 1944 
L 2431 1944 
z
" transform="scale(0.015625)"/>
       <path id="Arial-BoldMT-6d" d="M 394 3319 
L 1203 3319 
L 1203 2866 
Q 1638 3394 2238 3394 
Q 2556 3394 2790 3262 
Q 3025 3131 3175 2866 
Q 3394 3131 3647 3262 
Q 3900 3394 4188 3394 
Q 4553 3394 4806 3245 
Q 5059 3097 5184 2809 
Q 5275 2597 5275 2122 
L 5275 0 
L 4397 0 
L 4397 1897 
Q 4397 2391 4306 2534 
Q 4184 2722 3931 2722 
Q 3747 2722 3584 2609 
Q 3422 2497 3350 2280 
Q 3278 2063 3278 1594 
L 3278 0 
L 2400 0 
L 2400 1819 
Q 2400 2303 2353 2443 
Q 2306 2584 2207 2653 
Q 2109 2722 1941 2722 
Q 1738 2722 1575 2612 
Q 1413 2503 1342 2297 
Q 1272 2091 1272 1613 
L 1272 0 
L 394 0 
L 394 3319 
z
" transform="scale(0.015625)"/>
       <path id="Arial-BoldMT-69" d="M 459 3769 
L 459 4581 
L 1338 4581 
L 1338 3769 
L 459 3769 
z
M 459 0 
L 459 3319 
L 1338 3319 
L 1338 0 
L 459 0 
z
" transform="scale(0.015625)"/>
       <path id="Arial-BoldMT-63" d="M 3353 2338 
L 2488 2181 
Q 2444 2441 2289 2572 
Q 2134 2703 1888 2703 
Q 1559 2703 1364 2476 
Q 1169 2250 1169 1719 
Q 1169 1128 1367 884 
Q 1566 641 1900 641 
Q 2150 641 2309 783 
Q 2469 925 2534 1272 
L 3397 1125 
Q 3263 531 2881 228 
Q 2500 -75 1859 -75 
Q 1131 -75 698 384 
Q 266 844 266 1656 
Q 266 2478 700 2936 
Q 1134 3394 1875 3394 
Q 2481 3394 2839 3133 
Q 3197 2872 3353 2338 
z
" transform="scale(0.015625)"/>
       <path id="Arial-BoldMT-61" d="M 1116 2306 
L 319 2450 
Q 453 2931 781 3162 
Q 1109 3394 1756 3394 
Q 2344 3394 2631 3255 
Q 2919 3116 3036 2902 
Q 3153 2688 3153 2116 
L 3144 1091 
Q 3144 653 3186 445 
Q 3228 238 3344 0 
L 2475 0 
Q 2441 88 2391 259 
Q 2369 338 2359 363 
Q 2134 144 1878 34 
Q 1622 -75 1331 -75 
Q 819 -75 523 203 
Q 228 481 228 906 
Q 228 1188 362 1408 
Q 497 1628 739 1745 
Q 981 1863 1438 1950 
Q 2053 2066 2291 2166 
L 2291 2253 
Q 2291 2506 2166 2614 
Q 2041 2722 1694 2722 
Q 1459 2722 1328 2630 
Q 1197 2538 1116 2306 
z
M 2291 1594 
Q 2122 1538 1756 1459 
Q 1391 1381 1278 1306 
Q 1106 1184 1106 997 
Q 1106 813 1243 678 
Q 1381 544 1594 544 
Q 1831 544 2047 700 
Q 2206 819 2256 991 
Q 2291 1103 2291 1419 
L 2291 1594 
z
" transform="scale(0.015625)"/>
       <path id="Arial-BoldMT-6c" d="M 459 0 
L 459 4581 
L 1338 4581 
L 1338 0 
L 459 0 
z
" transform="scale(0.015625)"/>
       <path id="Arial-BoldMT-20" transform="scale(0.015625)"/>
       <path id="Arial-BoldMT-53" d="M 231 1491 
L 1131 1578 
Q 1213 1125 1461 912 
Q 1709 700 2131 700 
Q 2578 700 2804 889 
Q 3031 1078 3031 1331 
Q 3031 1494 2936 1608 
Q 2841 1722 2603 1806 
Q 2441 1863 1863 2006 
Q 1119 2191 819 2459 
Q 397 2838 397 3381 
Q 397 3731 595 4036 
Q 794 4341 1167 4500 
Q 1541 4659 2069 4659 
Q 2931 4659 3367 4281 
Q 3803 3903 3825 3272 
L 2900 3231 
Q 2841 3584 2645 3739 
Q 2450 3894 2059 3894 
Q 1656 3894 1428 3728 
Q 1281 3622 1281 3444 
Q 1281 3281 1419 3166 
Q 1594 3019 2269 2859 
Q 2944 2700 3267 2529 
Q 3591 2359 3773 2064 
Q 3956 1769 3956 1334 
Q 3956 941 3737 597 
Q 3519 253 3119 86 
Q 2719 -81 2122 -81 
Q 1253 -81 787 320 
Q 322 722 231 1491 
z
" transform="scale(0.015625)"/>
       <path id="Arial-BoldMT-66" d="M 75 3319 
L 563 3319 
L 563 3569 
Q 563 3988 652 4194 
Q 741 4400 980 4529 
Q 1219 4659 1584 4659 
Q 1959 4659 2319 4547 
L 2200 3934 
Q 1991 3984 1797 3984 
Q 1606 3984 1523 3895 
Q 1441 3806 1441 3553 
L 1441 3319 
L 2097 3319 
L 2097 2628 
L 1441 2628 
L 1441 0 
L 563 0 
L 563 2628 
L 75 2628 
L 75 3319 
z
" transform="scale(0.015625)"/>
       <path id="Arial-BoldMT-74" d="M 1981 3319 
L 1981 2619 
L 1381 2619 
L 1381 1281 
Q 1381 875 1398 808 
Q 1416 741 1477 697 
Q 1538 653 1625 653 
Q 1747 653 1978 738 
L 2053 56 
Q 1747 -75 1359 -75 
Q 1122 -75 931 4 
Q 741 84 652 211 
Q 563 338 528 553 
Q 500 706 500 1172 
L 500 2619 
L 97 2619 
L 97 3319 
L 500 3319 
L 500 3978 
L 1381 4491 
L 1381 3319 
L 1981 3319 
z
" transform="scale(0.015625)"/>
       <path id="Arial-BoldMT-2f" d="M -9 -78 
L 1125 4659 
L 1784 4659 
L 638 -78 
L -9 -78 
z
" transform="scale(0.015625)"/>
       <path id="Arial-BoldMT-70" d="M 434 3319 
L 1253 3319 
L 1253 2831 
Q 1413 3081 1684 3237 
Q 1956 3394 2288 3394 
Q 2866 3394 3269 2941 
Q 3672 2488 3672 1678 
Q 3672 847 3265 386 
Q 2859 -75 2281 -75 
Q 2006 -75 1782 34 
Q 1559 144 1313 409 
L 1313 -1263 
L 434 -1263 
L 434 3319 
z
M 1303 1716 
Q 1303 1156 1525 889 
Q 1747 622 2066 622 
Q 2372 622 2575 867 
Q 2778 1113 2778 1672 
Q 2778 2194 2568 2447 
Q 2359 2700 2050 2700 
Q 1728 2700 1515 2451 
Q 1303 2203 1303 1716 
z
" transform="scale(0.015625)"/>
      </defs>
      <use xlink:href="#Arial-BoldMT-43"/>
      <use xlink:href="#Arial-BoldMT-68" x="72.216797"/>
      <use xlink:href="#Arial-BoldMT-65" x="133.300781"/>
      <use xlink:href="#Arial-BoldMT-6d" x="188.916016"/>
      <use xlink:href="#Arial-BoldMT-69" x="277.832031"/>
      <use xlink:href="#Arial-BoldMT-63" x="305.615234"/>
      <use xlink:href="#Arial-BoldMT-61" x="361.230469"/>
      <use xlink:href="#Arial-BoldMT-6c" x="416.845703"/>
      <use xlink:href="#Arial-BoldMT-20" x="444.628906"/>
      <use xlink:href="#Arial-BoldMT-53" x="472.412109"/>
      <use xlink:href="#Arial-BoldMT-68" x="539.111328"/>
      <use xlink:href="#Arial-BoldMT-69" x="600.195312"/>
      <use xlink:href="#Arial-BoldMT-66" x="627.978516"/>
      <use xlink:href="#Arial-BoldMT-74" x="661.279297"/>
      <use xlink:href="#Arial-BoldMT-20" x="694.580078"/>
      <use xlink:href="#Arial-BoldMT-2f" x="722.363281"/>
      <use xlink:href="#Arial-BoldMT-20" x="750.146484"/>
      <use xlink:href="#Arial-BoldMT-70" x="777.929688"/>
      <use xlink:href="#Arial-BoldMT-70" x="839.013672"/>
      <use xlink:href="#Arial-BoldMT-6d" x="900.097656"/>
     </g>
    </g>
   </g>
   <g id="matplotlib.axis_2"/>
   <g id="line2d_12">
    <path d="M 2.975435 189.169561 
L 3.384675 189.085883 
L 5.226252 188.248343 
L 5.840112 188.078404 
L 6.249351 188.230474 
L 7.27245 188.87805 
L 8.704788 189.022727 
L 10.341746 188.669835 
L 11.774084 189.008608 
L 12.387943 188.710537 
L 13.411041 187.949767 
L 14.024901 187.829101 
L 14.63876 188.008742 
L 15.866478 188.450343 
L 16.480337 188.455126 
L 17.094197 188.438712 
L 17.708056 188.522073 
L 18.731154 188.269509 
L 19.345014 188.232207 
L 22.00507 188.694045 
L 22.618929 188.976774 
L 23.232788 188.995017 
L 24.051267 188.658716 
L 24.665126 188.471168 
L 25.278986 188.477425 
L 26.097464 188.535307 
L 26.915943 188.517375 
L 27.939042 188.79084 
L 28.962141 188.380353 
L 29.576 188.195639 
L 30.189859 188.279612 
L 33.054535 189.397776 
L 33.463775 189.409872 
L 36.328451 188.286996 
L 37.351549 188.331453 
L 37.965409 188.552398 
L 38.988507 189.188285 
L 39.806986 189.715388 
L 40.216226 189.672749 
L 41.034705 189.1465 
L 41.853183 188.656211 
L 42.671662 188.489821 
L 44.30862 188.355412 
L 44.922479 188.297465 
L 49.424113 188.806584 
L 50.242592 188.744494 
L 52.28879 189.01295 
L 53.107268 189.1436 
L 53.721128 189.34545 
L 54.130367 189.236257 
L 54.948846 188.756224 
L 57.199663 188.237307 
L 58.632001 188.423591 
L 60.268959 188.919205 
L 61.087438 188.809375 
L 62.315156 188.643508 
L 63.542875 188.926288 
L 64.156734 189.012826 
L 65.384452 188.833779 
L 66.61217 188.77098 
L 67.22603 188.858148 
L 67.839889 188.714784 
L 69.067607 188.310763 
L 69.681466 188.438087 
L 70.909185 188.920758 
L 72.341523 189.007632 
L 73.160002 189.139722 
L 73.978481 189.286179 
L 75.206199 189.330971 
L 76.433917 188.949604 
L 76.843157 188.767469 
L 77.252396 188.785396 
L 77.866255 188.900791 
L 78.889354 188.866993 
L 79.707833 188.875422 
L 80.935551 188.626589 
L 81.95865 188.824736 
L 82.777129 188.832376 
L 84.823326 188.57021 
L 85.437185 188.725205 
L 87.074143 188.552047 
L 87.688002 188.665843 
L 88.506481 188.655566 
L 89.32496 188.757407 
L 91.780397 188.522987 
L 92.598876 188.766948 
L 93.417355 189.123397 
L 94.235834 189.00445 
L 95.258932 188.846399 
L 96.077411 188.638171 
L 97.10051 188.599318 
L 99.146707 189.053406 
L 99.760566 188.942935 
L 100.374425 188.65635 
L 100.988285 188.379762 
L 101.602144 188.563156 
L 102.011383 188.630164 
L 102.625242 188.382146 
L 103.443721 188.134943 
L 104.876059 187.863912 
L 105.694538 188.052925 
L 107.126876 187.888504 
L 108.354595 188.105535 
L 108.968454 188.264546 
L 111.62851 188.393112 
L 115.311665 188.473992 
L 115.925525 188.41014 
L 116.539384 188.665772 
L 117.153243 188.939061 
L 117.767102 188.960712 
L 119.60868 188.700529 
L 120.427159 188.500017 
L 122.677976 188.994633 
L 123.496454 189.584016 
L 124.110314 189.817384 
L 124.724173 189.819469 
L 126.156511 189.427345 
L 126.97499 188.810251 
L 127.384229 188.850324 
L 128.611948 189.36862 
L 129.021187 189.337099 
L 130.248905 188.986889 
L 130.862765 189.127266 
L 131.476624 189.208679 
L 132.499722 189.00038 
L 133.727441 188.639733 
L 134.54592 189.100512 
L 134.955159 189.008706 
L 135.773638 188.654154 
L 136.592117 188.497813 
L 137.615216 188.133629 
L 138.229075 188.300206 
L 139.047554 188.656406 
L 139.661413 188.692884 
L 140.684512 188.488373 
L 141.50299 188.735912 
L 142.11685 188.938661 
L 142.730709 188.909783 
L 144.981526 188.570249 
L 145.800005 188.503727 
L 146.823103 188.266813 
L 147.436962 188.163825 
L 148.050822 188.402356 
L 149.687779 189.293833 
L 150.506258 189.255834 
L 152.757075 188.969149 
L 155.212512 189.400167 
L 155.826371 189.159209 
L 156.64485 188.742387 
L 157.463329 188.782711 
L 158.486428 189.0046 
L 159.714146 188.683587 
L 160.532625 188.708921 
L 162.169583 188.502419 
L 163.192681 188.832131 
L 163.806541 188.732259 
L 164.4204 188.579071 
L 165.034259 188.696777 
L 167.080456 189.454894 
L 167.489696 189.473278 
L 168.103555 189.171301 
L 169.331273 188.592122 
L 170.354372 188.357242 
L 170.968231 188.545755 
L 171.99133 188.89877 
L 173.423668 188.909936 
L 174.037527 188.720165 
L 174.856006 188.456961 
L 176.902203 188.05853 
L 179.15302 188.433164 
L 179.766879 188.443346 
L 181.403837 188.901835 
L 182.222316 188.783802 
L 183.040795 188.583111 
L 184.268513 188.807705 
L 184.882372 188.520816 
L 185.291612 188.52219 
L 187.542429 189.137151 
L 189.179387 189.272822 
L 190.202485 189.148469 
L 190.816345 188.91639 
L 191.634823 188.517834 
L 192.044063 188.517207 
L 192.657922 188.590183 
L 193.476401 188.476222 
L 194.4995 188.817018 
L 195.113359 189.439929 
L 195.522598 189.87114 
L 195.931838 190.002992 
L 196.341077 189.840356 
L 197.773415 188.946605 
L 201.047331 188.460305 
L 201.66119 188.389604 
L 202.275049 188.236929 
L 202.684289 188.318814 
L 204.321247 189.062256 
L 204.730486 189.045422 
L 206.776683 188.572733 
L 207.390542 188.677208 
L 208.209021 188.797785 
L 208.822881 188.450673 
L 209.43674 188.129737 
L 211.278317 187.912134 
L 212.710655 188.568347 
L 213.324515 188.429696 
L 213.938374 188.290019 
L 214.552233 188.14828 
L 214.961472 188.072627 
L 215.779951 188.111968 
L 216.59843 188.044518 
L 218.644627 188.303749 
L 219.258487 188.391012 
L 220.076965 188.534371 
L 220.690825 188.481275 
L 221.713923 188.128882 
L 222.737022 188.092085 
L 223.350881 187.965522 
L 224.16936 188.161748 
L 224.783219 188.213448 
L 226.215557 188.043899 
L 227.034036 188.198788 
L 227.647895 188.001767 
L 228.466374 187.759518 
L 230.717191 188.060151 
L 232.149529 187.833024 
L 232.558769 187.90809 
L 236.855783 187.202277 
L 237.674262 187.381867 
L 238.288121 187.298692 
L 239.31122 186.767963 
L 239.720459 186.893499 
L 240.538938 187.252902 
L 241.152797 187.448215 
L 241.562037 187.633211 
L 241.971276 187.60053 
L 242.994375 187.273455 
L 244.631333 187.217512 
L 245.449812 187.291078 
L 247.086769 187.037619 
L 248.109868 186.652024 
L 249.542206 186.987669 
L 250.156065 186.782485 
L 251.383784 186.42954 
L 253.225361 186.383183 
L 253.83922 186.192201 
L 254.862319 185.787965 
L 255.476178 185.788827 
L 256.703897 186.059887 
L 258.954714 185.853821 
L 259.977812 185.608401 
L 260.796291 185.447263 
L 263.865587 184.190282 
L 265.297925 183.30273 
L 266.934883 182.777967 
L 267.548742 181.926 
L 268.98108 179.594686 
L 270.618038 177.389034 
L 271.436517 175.639921 
L 272.664235 172.586425 
L 273.482714 169.613494 
L 274.096573 166.826469 
L 274.710433 163.090563 
L 275.324292 158.115091 
L 275.938151 151.546458 
L 276.55201 142.435745 
L 277.165869 129.089729 
L 277.779728 109.685428 
L 278.598207 75.087335 
L 279.621306 32.210569 
L 280.030545 20.757445 
L 280.439785 14.012646 
L 280.644405 12.38558 
L 280.849024 11.905133 
L 281.053644 12.564244 
L 281.258264 14.347804 
L 281.667503 21.268936 
L 282.076743 32.841222 
L 282.690602 58.776422 
L 284.32756 138.798279 
L 284.941419 157.190534 
L 285.555278 168.772865 
L 286.169137 175.706311 
L 286.782996 179.941354 
L 287.396856 182.686811 
L 288.010715 184.392929 
L 288.624574 185.375117 
L 289.443053 186.219588 
L 290.466152 186.935219 
L 290.875391 186.986991 
L 292.716969 186.601818 
L 295.172405 186.083167 
L 297.218602 185.185154 
L 298.650941 184.830393 
L 299.06018 184.422783 
L 299.878659 183.418126 
L 300.287898 183.200807 
L 301.106377 183.199966 
L 301.720236 183.306125 
L 302.334096 183.709419 
L 303.152575 184.365137 
L 303.766434 184.491418 
L 305.198772 184.325621 
L 307.654209 183.563139 
L 308.472687 183.393347 
L 309.086547 182.959623 
L 310.518885 181.26282 
L 312.769702 177.697581 
L 313.588181 176.02038 
L 314.611279 174.700866 
L 315.838998 173.387538 
L 316.248237 173.231302 
L 316.862096 173.261572 
L 318.089815 173.423303 
L 318.499054 173.124403 
L 319.317533 172.058545 
L 319.931392 170.869538 
L 320.545251 168.906758 
L 321.36373 165.485821 
L 323.409928 155.274784 
L 324.228406 150.155594 
L 325.251505 141.669134 
L 326.274604 131.249776 
L 327.706942 114.276358 
L 329.13928 96.973903 
L 329.957759 89.111003 
L 330.571618 85.308673 
L 330.980857 84.2012 
L 331.185477 84.290174 
L 331.390097 84.851974 
L 331.799336 87.180465 
L 332.208576 91.056992 
L 332.822435 99.672079 
L 333.640914 114.72504 
L 335.687111 154.057877 
L 336.50559 165.250235 
L 337.324069 172.627551 
L 337.937928 176.609663 
L 338.551787 179.261287 
L 339.165646 180.986432 
L 339.984125 182.733018 
L 342.030323 185.773328 
L 342.644182 186.33951 
L 343.66728 186.924429 
L 345.099619 187.396554 
L 345.918097 187.68291 
L 346.941196 187.951109 
L 347.964295 187.656274 
L 348.987393 187.432992 
L 349.396633 187.538329 
L 350.624351 188.170808 
L 351.44283 188.369936 
L 353.284408 188.376747 
L 354.512126 188.169741 
L 355.330605 188.251414 
L 356.149084 188.663564 
L 356.558323 188.801662 
L 356.967563 188.742293 
L 357.581422 188.483067 
L 359.21838 188.414449 
L 360.241478 188.237989 
L 360.855338 188.296182 
L 362.083056 188.763931 
L 363.310774 188.752128 
L 364.947732 189.064201 
L 365.970831 188.874808 
L 366.78931 188.741009 
L 367.607789 188.520315 
L 369.858606 188.57047 
L 370.677084 188.715924 
L 371.290944 188.439144 
L 371.904803 188.279985 
L 372.927901 188.152825 
L 373.74638 188.417556 
L 374.360239 188.678102 
L 376.201817 188.585828 
L 377.020296 188.453838 
L 377.838775 188.382854 
L 378.861873 188.163177 
L 381.931169 188.533823 
L 383.158888 188.835961 
L 383.772747 188.746399 
L 384.795846 188.400948 
L 385.205085 188.545683 
L 385.818944 188.824775 
L 386.432803 188.727774 
L 387.455902 188.582364 
L 388.069761 188.662433 
L 388.88824 189.00002 
L 389.502099 188.924552 
L 389.911339 188.878984 
L 390.525198 189.080829 
L 391.139057 189.319901 
L 391.548297 189.285058 
L 392.571395 188.974507 
L 393.185254 188.79918 
L 393.799114 188.588432 
L 395.231452 188.603929 
L 397.482269 189.32196 
L 398.096128 189.543823 
L 398.709987 189.363221 
L 399.528466 188.992604 
L 400.346945 189.005212 
L 400.960804 189.137843 
L 401.574663 189.245881 
L 402.802382 188.982188 
L 404.23472 189.288728 
L 404.848579 189.149577 
L 405.667058 188.834194 
L 408.940973 188.785368 
L 409.759452 188.948703 
L 410.782551 188.928042 
L 412.010269 188.793397 
L 414.056466 188.717624 
L 414.670326 188.683792 
L 415.488805 188.382587 
L 415.898044 188.484717 
L 416.921143 188.84173 
L 417.944241 188.947419 
L 419.17196 189.177859 
L 419.785819 189.438246 
L 420.604298 189.496415 
L 421.218157 189.300621 
L 422.241256 188.855942 
L 422.855115 188.951823 
L 423.673594 189.113983 
L 424.696692 188.84405 
L 425.719791 188.893593 
L 427.152129 188.754373 
L 428.175228 188.063348 
L 428.584467 188.121678 
L 429.607566 188.542912 
L 430.426045 188.72272 
L 431.244524 189.004948 
L 431.858383 188.959563 
L 433.290721 188.671102 
L 434.723059 188.848178 
L 435.336918 189.08089 
L 436.769256 189.15775 
L 437.587735 188.987761 
L 439.020073 189.137453 
L 440.247792 188.877313 
L 441.06627 188.857352 
L 442.498609 189.067404 
L 442.907848 188.830844 
L 443.521707 188.35197 
L 443.930947 188.320606 
L 444.954045 188.945393 
L 445.567904 188.828767 
L 446.181764 188.452006 
L 447.204862 187.831061 
L 447.614102 187.833999 
L 448.6372 188.002076 
L 449.455679 188.04438 
L 450.683398 188.046623 
L 451.706496 188.091136 
L 452.524975 188.320139 
L 453.138834 188.310227 
L 453.957313 188.473607 
L 454.571172 188.548529 
L 455.798891 188.746257 
L 457.231229 188.699559 
L 458.049708 188.969115 
L 458.458947 188.948715 
L 459.072806 188.631251 
L 460.505144 187.793956 
L 461.323623 187.842392 
L 461.937483 188.22571 
L 462.346722 188.431558 
L 462.960581 188.414418 
L 464.597539 188.063874 
L 465.416018 188.24074 
L 467.666835 188.598526 
L 468.485314 188.521924 
L 469.917652 188.155071 
L 471.759229 187.711318 
L 472.168469 187.814141 
L 473.600807 188.518816 
L 474.214666 188.467163 
L 474.828525 188.371324 
L 476.874723 188.693506 
L 480.967117 188.016113 
L 484.036413 188.448411 
L 486.49185 188.073162 
L 487.924188 188.282011 
L 488.947286 187.951547 
L 490.175005 188.174839 
L 490.788864 187.869528 
L 491.402723 187.595055 
L 492.425822 187.674891 
L 493.85816 188.00384 
L 494.676639 188.071012 
L 495.495118 187.911043 
L 496.518216 188.203901 
L 498.359794 188.665364 
L 500.201371 188.541719 
L 502.042949 188.33857 
L 502.861428 188.472539 
L 504.089146 188.458734 
L 505.316865 188.183506 
L 508.386161 187.635599 
L 509.613879 187.728725 
L 510.636978 187.445587 
L 511.660076 187.553288 
L 512.887795 187.334361 
L 513.706273 187.278868 
L 514.729372 186.956262 
L 515.547851 187.066274 
L 516.16171 186.852349 
L 516.775569 186.601456 
L 517.594048 186.479492 
L 518.207907 186.225825 
L 519.231006 186.241343 
L 519.844865 186.13218 
L 520.663344 185.757551 
L 521.277203 185.769678 
L 522.504922 185.882729 
L 523.323401 185.485547 
L 524.14188 184.722567 
L 524.755739 184.276271 
L 527.825035 182.978429 
L 528.438894 182.793218 
L 529.052753 182.212064 
L 530.075852 181.231649 
L 530.689711 180.597325 
L 532.326669 178.589371 
L 533.554387 177.628827 
L 534.168246 176.807247 
L 534.782105 175.531456 
L 536.623683 171.279675 
L 538.056021 168.979803 
L 538.8745 166.673549 
L 540.920697 160.106176 
L 541.739176 156.709202 
L 543.376134 148.418863 
L 544.603852 141.1834 
L 546.24081 130.092833 
L 547.673148 118.647946 
L 549.719345 101.706254 
L 553.4025 71.218994 
L 553.60712 70.628102 
L 553.81174 70.450334 
L 554.01636 70.679487 
L 554.220979 71.298929 
L 554.630219 73.645443 
L 555.039458 77.365781 
L 555.653317 85.180114 
L 556.471796 99.400479 
L 557.699515 124.022879 
L 558.722613 153.501589 
L 558.927233 153.11906 
L 561.38267 126.141806 
L 561.791909 123.091324 
L 562.201149 121.521686 
L 562.610388 120.920345 
L 562.815008 120.944879 
L 563.019628 121.209756 
L 563.428867 122.38052 
L 564.247346 125.822085 
L 564.861205 129.391149 
L 567.930501 149.615745 
L 569.158219 155.452192 
L 571.409036 164.642282 
L 573.250614 171.053537 
L 574.273713 173.216752 
L 575.092191 174.68285 
L 575.91067 175.392481 
L 576.52453 176.169489 
L 578.979966 180.015734 
L 579.593825 180.784952 
L 582.663121 183.617747 
L 584.504699 184.11561 
L 585.527798 184.01637 
L 586.141657 184.304975 
L 589.620192 186.331167 
L 590.234051 186.409025 
L 592.689488 186.465794 
L 594.121826 187.217644 
L 596.168023 187.644768 
L 596.781883 187.674474 
L 598.41884 188.034162 
L 599.0327 188.008753 
L 600.055798 187.925667 
L 602.920474 188.112532 
L 603.738953 188.667329 
L 604.352812 188.714961 
L 605.375911 188.578756 
L 605.78515 188.532572 
L 606.603629 188.661668 
L 607.626728 188.505254 
L 608.445207 188.387554 
L 609.263686 188.648675 
L 609.877545 188.769157 
L 612.128362 188.340184 
L 612.742221 188.075129 
L 614.379179 187.896407 
L 615.811517 188.114082 
L 616.834616 188.562709 
L 617.653095 188.932619 
L 618.880813 189.231282 
L 619.494672 188.969718 
L 620.92701 188.205365 
L 621.745489 188.397256 
L 622.154729 188.558289 
L 623.587067 189.569656 
L 623.996306 189.553493 
L 626.656363 188.721432 
L 627.474842 188.848447 
L 628.29332 189.038688 
L 629.316419 188.804254 
L 629.930278 188.608825 
L 630.339518 188.658265 
L 630.953377 188.791712 
L 631.976476 188.723925 
L 632.794954 188.504339 
L 633.408814 188.467322 
L 634.227293 188.539421 
L 635.86425 188.17954 
L 636.47811 188.23136 
L 637.910448 188.501851 
L 639.138166 188.524405 
L 639.752025 188.443786 
L 641.388983 188.666868 
L 642.207462 188.909092 
L 643.43518 188.813529 
L 644.253659 188.471783 
L 644.867518 188.241943 
L 645.276758 188.270557 
L 645.890617 188.628483 
L 646.709096 189.13842 
L 647.732194 189.249465 
L 649.573772 189.339649 
L 650.187631 189.422812 
L 650.596871 189.332959 
L 651.00611 189.06745 
L 651.824589 188.418938 
L 652.847688 188.153994 
L 653.461547 187.942109 
L 654.893885 187.884816 
L 655.712364 187.951214 
L 657.144702 187.754847 
L 657.758561 187.702045 
L 658.37242 187.636995 
L 658.78166 187.90603 
L 659.600139 188.783502 
L 660.009378 188.935937 
L 660.827857 189.030098 
L 661.441716 189.158919 
L 662.055575 189.03569 
L 663.078674 188.553007 
L 664.306392 188.29086 
L 664.920252 188.17203 
L 666.35259 188.169653 
L 667.580308 187.962183 
L 670.240364 188.596867 
L 672.491181 188.422487 
L 674.741998 188.948055 
L 675.355858 189.288062 
L 675.765097 189.504991 
L 676.174337 189.500627 
L 676.992815 189.363891 
L 677.811294 189.228584 
L 678.425154 189.012137 
L 679.448252 189.017343 
L 680.062111 189.052166 
L 681.28983 188.808153 
L 681.903689 188.867706 
L 682.722168 189.01484 
L 684.154506 188.690353 
L 684.768365 188.627286 
L 685.586844 188.466649 
L 686.814562 188.835875 
L 687.428421 189.116355 
L 688.65614 189.142811 
L 689.679238 188.806722 
L 692.543915 188.842276 
L 693.157774 188.993592 
L 694.999351 188.850595 
L 695.81783 188.91743 
L 697.454788 188.753203 
L 698.068647 188.937017 
L 698.682506 188.809887 
L 699.296366 188.647357 
L 700.524084 188.755574 
L 701.547183 188.537935 
L 702.570281 188.778526 
L 703.18414 188.913446 
L 704.821098 188.763585 
L 705.844197 188.276012 
L 706.458056 188.220786 
L 711.573549 188.826987 
L 712.187408 188.780476 
L 714.233606 188.959414 
L 715.052085 188.394139 
L 715.665944 188.087307 
L 716.893662 187.715968 
L 717.507521 187.990109 
L 718.326 188.319372 
L 718.939859 188.268582 
L 721.599916 187.530034 
L 722.213775 187.540071 
L 722.623014 187.359086 
L 723.441493 186.531118 
L 724.055353 185.689937 
L 724.669212 184.414332 
L 725.078451 183.25262 
L 725.487691 181.550113 
L 726.510789 175.975825 
L 726.715409 175.976343 
L 726.920029 176.720844 
L 728.147747 183.602154 
L 728.761606 185.426555 
L 729.375465 186.598959 
L 729.989325 187.199197 
L 731.217043 188.005818 
L 731.626282 187.888617 
L 733.058621 187.221919 
L 734.900198 187.126176 
L 738.583353 186.967425 
L 740.015691 186.318862 
L 740.424931 185.791782 
L 740.83417 184.911004 
L 741.857269 182.152137 
L 742.061889 182.226284 
L 742.471128 183.129384 
L 743.084987 184.490305 
L 743.698846 185.129562 
L 745.131184 186.331898 
L 745.745044 186.542506 
L 746.358903 186.432032 
L 747.791241 185.95838 
L 748.81434 185.815228 
L 749.223579 185.432581 
L 750.246678 183.99899 
L 750.860537 182.945766 
L 751.679016 180.856353 
L 752.292875 178.965126 
L 752.906734 176.096492 
L 753.520593 171.902135 
L 754.134452 165.549156 
L 755.157551 152.177161 
L 755.362171 150.996129 
L 755.566791 150.908129 
L 755.77141 151.907679 
L 756.18065 156.356996 
L 756.999129 166.697106 
L 757.408368 170.059527 
L 757.817608 172.055768 
L 758.226847 172.869349 
L 758.431467 172.915848 
L 758.636086 172.77599 
L 759.045326 172.062636 
L 759.454565 170.772142 
L 759.863805 168.739083 
L 760.477664 164.485918 
L 761.091523 158.2454 
L 761.705382 148.288751 
L 762.319241 132.822205 
L 763.34234 96.65745 
L 763.75158 84.504528 
L 763.956199 81.050734 
L 764.160819 80.131389 
L 764.365439 81.999376 
L 764.774678 93.459705 
L 766.002397 139.493225 
L 766.616256 151.873169 
L 767.025495 156.594988 
L 767.434735 159.352425 
L 767.843974 160.639952 
L 768.048594 160.795365 
L 768.253214 160.657101 
L 768.457833 160.24156 
L 768.867073 158.579839 
L 769.276312 155.729446 
L 769.685552 151.357957 
L 770.094791 144.810777 
L 770.504031 135.413222 
L 771.11789 114.867174 
L 772.140988 74.954353 
L 772.345608 70.576878 
L 772.550228 69.040473 
L 772.754848 70.842052 
L 773.164087 83.489028 
L 774.596425 143.853453 
L 775.210284 157.228949 
L 775.824143 164.851569 
L 776.233383 167.845531 
L 776.642622 169.72729 
L 777.051862 170.77827 
L 777.461101 171.221583 
L 777.665721 171.252464 
L 777.870341 171.132828 
L 778.07496 170.829861 
L 778.4842 169.556494 
L 778.893439 167.219919 
L 779.302679 163.477734 
L 779.916538 154.552151 
L 780.735017 141.708303 
L 780.939637 140.836846 
L 781.144256 141.58639 
L 781.553496 147.451576 
L 782.781214 170.997761 
L 783.395073 177.079329 
L 784.008933 180.356897 
L 784.622792 182.381797 
L 785.236651 183.820795 
L 787.078228 186.70882 
L 787.692088 187.312092 
L 788.510567 187.764777 
L 789.738285 188.190445 
L 791.784482 188.606162 
L 792.602961 188.933753 
L 794.035299 188.918566 
L 795.263018 189.107288 
L 795.876877 188.993304 
L 796.899975 188.66697 
L 798.332313 188.671219 
L 801.401609 188.541129 
L 802.220088 188.234706 
L 803.857046 188.242842 
L 805.289384 188.959599 
L 806.107863 189.023324 
L 806.926342 188.83612 
L 807.949441 188.798157 
L 808.972539 188.507724 
L 809.586398 188.526552 
L 811.223356 188.932884 
L 812.041835 189.168761 
L 812.860314 189.235327 
L 813.474173 188.906459 
L 814.088032 188.608971 
L 814.497272 188.616285 
L 815.72499 188.96674 
L 816.338849 188.841248 
L 816.952709 188.70889 
L 817.566568 188.841758 
L 818.180427 188.943484 
L 820.840483 188.583607 
L 821.454343 188.571774 
L 822.477441 188.352875 
L 822.886681 188.375432 
L 823.50054 188.726305 
L 823.909779 188.933756 
L 824.319019 188.926797 
L 825.955977 188.483379 
L 827.592934 189.015343 
L 828.206794 188.899987 
L 828.616033 188.82947 
L 829.229892 189.031618 
L 829.639132 189.135138 
L 830.252991 188.915117 
L 830.86685 188.765125 
L 831.480709 188.841099 
L 832.299188 188.991146 
L 833.322287 188.869232 
L 834.140766 188.561129 
L 835.573104 187.853773 
L 836.391583 187.797871 
L 837.005442 187.72964 
L 837.619301 188.070904 
L 838.43778 188.630905 
L 838.847019 188.631359 
L 839.665498 188.356145 
L 840.279357 188.579591 
L 840.893217 188.784674 
L 841.302456 188.77098 
L 842.734794 188.231708 
L 844.167132 187.824502 
L 846.827189 186.705006 
L 847.441048 186.686956 
L 847.850287 186.874118 
L 848.873386 187.493574 
L 849.282625 187.491794 
L 849.896485 187.205824 
L 850.510344 186.850148 
L 851.124203 186.828321 
L 852.147302 186.801939 
L 852.556541 186.70358 
L 855.011978 185.051538 
L 855.625837 184.234364 
L 856.239696 183.130063 
L 856.853555 181.560692 
L 857.876654 178.322178 
L 858.490513 175.287456 
L 859.104372 170.610696 
L 859.513612 166.029784 
L 860.127471 156.066304 
L 860.94595 142.003562 
L 861.355189 139.164628 
L 861.559809 139.199429 
L 861.764429 140.173191 
L 862.787527 149.145501 
L 862.992147 149.545371 
L 863.196767 149.147724 
L 863.401387 147.939769 
L 863.810626 143.299294 
L 864.424485 134.41582 
L 864.629105 132.666883 
L 864.833725 132.222112 
L 865.038344 133.240396 
L 865.447584 138.93457 
L 866.266063 152.184346 
L 866.675302 155.454966 
L 866.879922 156.184649 
L 867.084542 156.381225 
L 867.289161 156.063531 
L 867.493781 155.205446 
L 867.903021 151.653264 
L 868.31226 145.269668 
L 868.721499 135.541752 
L 869.744598 107.34375 
L 869.949218 105.548569 
L 870.153838 105.702779 
L 870.358457 107.556208 
L 870.767697 114.763758 
L 871.381556 125.436185 
L 871.586176 127.02106 
L 871.790795 127.27486 
L 871.995415 126.134786 
L 872.404655 119.850021 
L 873.223133 102.978637 
L 873.427753 102.291062 
L 873.632373 103.895913 
L 874.041612 112.689289 
L 875.269331 148.036786 
L 875.88319 157.521433 
L 876.292429 160.899168 
L 876.701669 162.384419 
L 876.906288 162.460319 
L 877.110908 162.074552 
L 877.520148 159.874198 
L 878.747866 149.858772 
L 878.952486 150.084443 
L 879.157105 151.130618 
L 880.384824 160.2619 
L 880.589444 160.389638 
L 880.794063 159.998996 
L 881.203303 157.847315 
L 881.817162 153.880619 
L 882.021782 153.338118 
L 882.226401 153.388593 
L 882.431021 154.037801 
L 882.840261 157.262155 
L 884.477218 176.669211 
L 885.091078 179.956226 
L 885.704937 181.95841 
L 886.523416 183.592477 
L 887.137275 184.37794 
L 887.955754 185.089155 
L 888.364993 185.236879 
L 889.388092 185.167409 
L 890.82043 185.983129 
L 891.434289 185.817879 
L 892.048148 185.912618 
L 893.275867 186.198525 
L 894.094346 186.0009 
L 896.345163 185.798581 
L 896.959022 185.521121 
L 897.777501 185.196252 
L 898.800599 184.894971 
L 899.414458 184.424477 
L 900.642177 183.234441 
L 901.460656 182.811552 
L 901.869895 182.338413 
L 902.688374 180.770187 
L 904.325332 177.536337 
L 904.939191 175.473161 
L 906.166909 170.035396 
L 906.371529 170.025156 
L 906.780769 171.081578 
L 907.394628 172.848652 
L 907.599248 173.131102 
L 907.803867 173.220175 
L 908.008487 173.121877 
L 908.417726 172.478357 
L 909.645445 169.728893 
L 909.850065 169.666789 
L 910.259304 169.966963 
L 911.282403 170.962441 
L 911.691642 171.077525 
L 913.53322 170.900568 
L 914.147079 170.151254 
L 915.170177 168.980607 
L 915.579417 168.841659 
L 915.988656 168.931571 
L 916.602515 169.309339 
L 917.216375 169.941447 
L 917.625614 170.653417 
L 918.239473 172.421677 
L 920.285671 180.145161 
L 920.69491 181.56939 
L 920.89953 181.669925 
L 921.308769 180.836712 
L 922.945727 176.854808 
L 923.968826 174.964259 
L 924.378065 174.588911 
L 924.787305 174.588975 
L 925.196544 174.862096 
L 926.015023 175.920888 
L 928.47046 179.059221 
L 929.288939 180.206038 
L 930.107417 181.341852 
L 931.539756 182.780976 
L 931.948995 183.003683 
L 932.767474 183.205702 
L 933.585953 183.881178 
L 934.813671 185.056696 
L 936.246009 185.431115 
L 936.655249 185.310962 
L 937.269108 184.785346 
L 938.496826 183.461684 
L 939.110685 182.230882 
L 939.724545 180.304801 
L 940.133784 178.351976 
L 940.543024 175.557855 
L 940.952263 171.532291 
L 941.361502 165.710458 
L 941.770742 157.162986 
L 942.793841 128.380525 
L 942.99846 126.980535 
L 943.20308 128.821779 
L 943.612319 139.670238 
L 944.226179 158.29535 
L 944.840038 169.897277 
L 945.453897 176.172517 
L 946.067756 179.938527 
L 946.681615 182.417183 
L 947.295475 184.210823 
L 947.909334 185.322637 
L 948.727813 186.121582 
L 949.341672 186.559661 
L 949.955531 186.642295 
L 950.97863 186.255534 
L 952.001728 185.885485 
L 952.410968 185.878291 
L 952.820207 185.644754 
L 953.638686 185.086842 
L 954.252545 185.181309 
L 955.480264 185.343435 
L 957.731081 186.244107 
L 958.34494 185.922326 
L 959.572658 184.850753 
L 960.391137 183.610543 
L 961.004996 182.476874 
L 961.823475 180.686804 
L 962.232715 180.385094 
L 962.437334 180.439039 
L 962.846574 180.957491 
L 963.460433 182.510978 
L 964.483532 185.418573 
L 964.892771 186.087831 
L 965.30201 186.321551 
L 966.120489 186.472399 
L 968.166687 187.482284 
L 968.780546 187.332951 
L 969.394405 187.228933 
L 971.645222 187.190553 
L 972.668321 187.632595 
L 974.509898 187.440262 
L 974.919138 187.092852 
L 975.532997 186.569098 
L 975.737617 186.6139 
L 976.146856 187.083604 
L 976.760715 187.842994 
L 977.988434 188.635241 
L 979.420772 189.305268 
L 980.034631 189.290854 
L 981.262349 189.026018 
L 982.490068 188.406104 
L 983.103927 188.284242 
L 983.922406 188.252121 
L 985.354744 187.897834 
L 986.173223 188.233426 
L 988.0148 189.059069 
L 988.628659 189.082035 
L 990.674857 188.797513 
L 991.084096 188.804442 
L 992.721054 188.195261 
L 993.948772 188.514619 
L 995.176491 188.289543 
L 996.199589 187.888445 
L 997.018068 187.7487 
L 997.631927 188.001665 
L 999.268885 188.75134 
L 1000.087364 188.637743 
L 1001.724322 188.044338 
L 1002.133561 188.260677 
L 1002.95204 188.969712 
L 1003.36128 189.03868 
L 1004.998237 188.68005 
L 1006.225956 187.802668 
L 1006.839815 187.72174 
L 1007.453674 188.035353 
L 1009.499871 189.17615 
L 1009.909111 189.200361 
L 1011.136829 188.957381 
L 1012.364548 189.362622 
L 1012.978407 189.153492 
L 1013.592266 188.912797 
L 1014.615365 188.805546 
L 1015.638463 188.382849 
L 1016.047703 188.477149 
L 1017.070801 189.004664 
L 1017.88928 189.044021 
L 1019.526238 189.222627 
L 1019.935478 189.238066 
L 1020.958576 188.899233 
L 1022.390914 188.482809 
L 1023.414013 188.204867 
L 1024.232492 187.914957 
L 1024.846351 188.108794 
L 1026.278689 188.562153 
L 1027.711027 188.808828 
L 1028.529506 188.695685 
L 1029.961844 189.151637 
L 1030.984943 189.04305 
L 1032.621901 188.738468 
L 1033.644999 188.557101 
L 1034.463478 188.425544 
L 1035.486577 188.648001 
L 1036.918915 188.420444 
L 1038.351253 188.614238 
L 1040.80669 188.837753 
L 1041.420549 188.865547 
L 1042.239028 188.632597 
L 1043.671366 188.844359 
L 1044.285225 189.240213 
L 1044.694464 189.512064 
L 1045.103704 189.540991 
L 1045.512943 189.29677 
L 1046.536042 188.492421 
L 1047.149901 188.433876 
L 1047.76376 188.514561 
L 1048.37762 188.79821 
L 1049.605338 189.425233 
L 1050.219197 189.542758 
L 1051.037676 189.338026 
L 1052.879254 188.423027 
L 1053.493113 188.218752 
L 1054.106972 188.369714 
L 1055.33469 188.85047 
L 1057.585507 188.567689 
L 1058.608606 188.67535 
L 1059.836324 188.538389 
L 1060.859423 188.713922 
L 1064.133339 188.604797 
L 1065.361057 188.794237 
L 1067.202634 188.520744 
L 1067.611874 188.549893 
L 1068.634972 188.298767 
L 1072.318128 189.07208 
L 1074.773564 188.785801 
L 1075.387423 188.70994 
L 1077.024381 188.859261 
L 1080.502917 188.554363 
L 1080.912156 188.576672 
L 1081.321396 188.393058 
L 1082.139874 187.778168 
L 1082.549114 187.73164 
L 1085.41379 188.43064 
L 1086.846128 188.625255 
L 1087.869227 188.920827 
L 1088.483086 189.005339 
L 1089.096945 189.12556 
L 1089.710804 189.012696 
L 1090.733903 188.739405 
L 1093.18934 188.617005 
L 1094.007819 188.937371 
L 1094.621678 188.865633 
L 1095.235537 188.810139 
L 1096.258636 188.899594 
L 1097.077115 188.904959 
L 1098.714072 188.955682 
L 1099.327932 189.017353 
L 1101.374129 188.792456 
L 1102.601847 188.896309 
L 1105.466523 188.974008 
L 1106.080382 188.972084 
L 1107.308101 189.19458 
L 1109.149678 188.578198 
L 1109.763538 188.679916 
L 1110.991256 188.976884 
L 1112.014355 188.828971 
L 1113.037453 188.704155 
L 1113.651312 188.659777 
L 1115.28827 188.331474 
L 1116.106749 188.263797 
L 1117.743707 188.689779 
L 1118.152946 188.946814 
L 1118.766806 188.994472 
L 1119.789904 188.917496 
L 1122.245341 187.930534 
L 1123.882299 188.33936 
L 1124.496158 188.185665 
L 1124.905397 188.355294 
L 1125.928496 189.080869 
L 1126.542355 189.062797 
L 1130.63475 188.496741 
L 1131.248609 188.817247 
L 1132.067088 189.191801 
L 1132.680947 189.186023 
L 1133.499426 189.022019 
L 1134.113285 189.093678 
L 1135.136384 189.316426 
L 1136.364102 189.027752 
L 1137.182581 188.590988 
L 1137.79644 188.716314 
L 1138.819539 189.002612 
L 1142.298074 189.073216 
L 1143.525793 188.775205 
L 1144.548891 188.958859 
L 1146.595088 188.82832 
L 1147.208948 188.734035 
L 1148.641286 188.822274 
L 1150.482863 188.698934 
L 1151.505962 189.092022 
L 1152.73368 189.004087 
L 1155.189117 188.484173 
L 1156.007596 188.144461 
L 1156.416835 188.126884 
L 1158.667652 188.634672 
L 1159.281511 188.607493 
L 1160.09999 188.568085 
L 1161.327709 188.688416 
L 1161.941568 188.583178 
L 1162.555427 188.371194 
L 1162.964667 188.528275 
L 1163.578526 188.9749 
L 1163.987765 188.954126 
L 1165.010864 188.741881 
L 1165.829343 188.699037 
L 1166.647822 188.807304 
L 1167.057061 188.69372 
L 1168.08016 188.25392 
L 1169.103258 188.398619 
L 1169.717118 188.549998 
L 1171.763315 188.297844 
L 1172.172554 188.521643 
L 1172.786413 188.930744 
L 1173.195653 188.890958 
L 1174.627991 188.079862 
L 1175.03723 188.164975 
L 1176.469569 188.825196 
L 1177.083428 188.72421 
L 1177.697287 188.261227 
L 1178.106526 187.994894 
L 1178.515766 188.033535 
L 1179.538864 188.639821 
L 1180.561963 188.802413 
L 1181.789681 189.075671 
L 1182.60816 189.034759 
L 1184.654358 188.609967 
L 1184.858977 188.622911 
L 1184.858977 188.622911 
" clip-path="url(#p04b5f80fed)" style="fill: none; stroke: #000000; stroke-width: 2; stroke-linecap: square"/>
   </g>
   <g id="patch_3">
    <path d="M 3.00024 198.907885 
L 1184.99976 198.907885 
" style="fill: none; stroke: #000000; stroke-width: 2; stroke-linejoin: miter; stroke-linecap: square"/>
   </g>
  </g>
 </g>
 <defs>
  <clipPath id="p04b5f80fed">
   <rect x="3.00024" y="3.00024" width="1181.99952" height="195.907645"/>
  </clipPath>
 </defs>
</svg>
