<?xml version="1.0" encoding="utf-8" standalone="no"?>
<!DOCTYPE svg PUBLIC "-//W3C//DTD SVG 1.1//EN"
  "http://www.w3.org/Graphics/SVG/1.1/DTD/svg11.dtd">
<svg xmlns:xlink="http://www.w3.org/1999/xlink" width="1188pt" height="252pt" viewBox="0 0 1188 252" xmlns="http://www.w3.org/2000/svg" version="1.1">
 <metadata>
  <rdf:RDF xmlns:dc="http://purl.org/dc/elements/1.1/" xmlns:cc="http://creativecommons.org/ns#" xmlns:rdf="http://www.w3.org/1999/02/22-rdf-syntax-ns#">
   <cc:Work>
    <dc:type rdf:resource="http://purl.org/dc/dcmitype/StillImage"/>
    <dc:date>2024-05-14T22:49:45.338354</dc:date>
    <dc:format>image/svg+xml</dc:format>
    <dc:creator>
     <cc:Agent>
      <dc:title>Matplotlib v3.8.0, https://matplotlib.org/</dc:title>
     </cc:Agent>
    </dc:creator>
   </cc:Work>
  </rdf:RDF>
 </metadata>
 <defs>
  <style type="text/css">*{stroke-linejoin: round; stroke-linecap: butt}</style>
 </defs>
 <g id="figure_1">
  <g id="patch_1">
   <path d="M 0 252 
L 1188 252 
L 1188 0 
L 0 0 
z
" style="fill: #ffffff"/>
  </g>
  <g id="axes_1">
   <g id="patch_2">
    <path d="M 71.702428 199.12726 
L 1184.99976 199.12726 
L 1184.99976 3.00024 
L 71.702428 3.00024 
z
" style="fill: #ffffff"/>
   </g>
   <g id="PolyCollection_1">
    <path d="M 489.290852 169.419965 
L 489.290852 169.596523 
L 489.572085 169.596523 
L 489.853279 169.596523 
L 490.134512 169.596523 
L 490.415706 169.596523 
L 490.69694 169.596523 
L 490.978133 169.596523 
L 491.259367 169.596523 
L 491.54056 169.596523 
L 491.821794 169.596523 
L 492.102987 169.596523 
L 492.384221 169.596523 
L 492.665414 169.596523 
L 492.946648 169.596523 
L 493.227841 169.596523 
L 493.509075 169.596523 
L 493.790268 169.596523 
L 494.071502 169.596523 
L 494.352695 169.596523 
L 494.633929 169.596523 
L 494.915122 169.596523 
L 495.196356 169.596523 
L 495.477549 169.596523 
L 495.758783 169.596523 
L 496.039977 169.596523 
L 496.32121 169.596523 
L 496.602404 169.596523 
L 496.883637 169.596523 
L 497.164831 169.596523 
L 497.446064 169.596523 
L 497.727258 169.596523 
L 498.008491 169.596523 
L 498.289685 169.596523 
L 498.570918 169.596523 
L 498.852112 169.596523 
L 499.133345 169.596523 
L 499.414539 169.596523 
L 499.695773 169.596523 
L 499.976966 169.596523 
L 500.2582 169.596523 
L 500.539393 169.596523 
L 500.820627 169.596523 
L 501.10182 169.596523 
L 501.383054 169.596523 
L 501.664247 169.596523 
L 501.945481 169.596523 
L 502.226714 169.596523 
L 502.507908 169.596523 
L 502.789141 169.596523 
L 503.070335 169.596523 
L 503.351569 169.596523 
L 503.632762 169.596523 
L 503.913996 169.596523 
L 504.195189 169.596523 
L 504.476423 169.596523 
L 504.757616 169.596523 
L 505.03885 169.596523 
L 505.320043 169.596523 
L 505.601277 169.596523 
L 505.88247 169.596523 
L 506.163704 169.596523 
L 506.444897 169.596523 
L 506.726131 169.596523 
L 507.007324 169.596523 
L 507.288558 169.596523 
L 507.569751 169.596523 
L 507.850985 169.596523 
L 508.132178 169.596523 
L 508.413412 169.596523 
L 508.694606 169.596523 
L 508.975839 169.596523 
L 509.257033 169.596523 
L 509.538266 169.596523 
L 509.81946 169.596523 
L 510.100693 169.596523 
L 510.381887 169.596523 
L 510.66312 169.596523 
L 510.944314 169.596523 
L 511.225547 169.596523 
L 511.506741 169.596523 
L 511.787974 169.596523 
L 512.069168 169.596523 
L 512.350402 169.596523 
L 512.631595 169.596523 
L 512.912829 169.596523 
L 513.194022 169.596523 
L 513.475256 169.596523 
L 513.756449 169.596523 
L 514.037683 169.596523 
L 514.318876 169.596523 
L 514.60011 169.596523 
L 514.60011 169.290337 
L 514.60011 169.290337 
L 514.318876 168.680708 
L 514.037683 168.024579 
L 513.756449 167.318442 
L 513.475256 166.559897 
L 513.194022 165.745394 
L 512.912829 164.868113 
L 512.631595 163.926634 
L 512.350402 162.916092 
L 512.069168 161.830486 
L 511.787974 160.666098 
L 511.506741 159.418934 
L 511.225547 158.084126 
L 510.944314 156.655379 
L 510.66312 155.127946 
L 510.381887 153.495879 
L 510.100693 151.755765 
L 509.81946 149.899891 
L 509.538266 147.922979 
L 509.257033 145.82114 
L 508.975839 143.591552 
L 508.694606 141.22384 
L 508.413412 138.717943 
L 508.132178 136.071968 
L 507.850985 133.278743 
L 507.569751 130.338815 
L 507.288558 127.259744 
L 507.007324 124.041502 
L 506.726131 120.691731 
L 506.444897 117.218877 
L 506.163704 113.623611 
L 505.88247 109.914784 
L 505.601277 106.101983 
L 505.320043 102.186039 
L 505.03885 98.183251 
L 504.757616 94.118229 
L 504.476423 89.994944 
L 504.195189 85.824935 
L 503.913996 81.634919 
L 503.632762 77.442537 
L 503.351569 73.238405 
L 503.070335 69.059475 
L 502.789141 64.929796 
L 502.507908 60.868883 
L 502.226714 56.872172 
L 501.945481 52.99621 
L 501.664247 49.223687 
L 501.383054 45.564059 
L 501.10182 42.016388 
L 500.820627 38.612065 
L 500.539393 35.323028 
L 500.2582 32.197031 
L 499.976966 29.249761 
L 499.695773 26.496858 
L 499.414539 23.939197 
L 499.133345 21.620018 
L 498.852112 19.51775 
L 498.570918 17.63231 
L 498.289685 15.985045 
L 498.008491 14.604753 
L 497.727258 13.478209 
L 497.446064 12.647388 
L 497.164831 12.124706 
L 496.883637 11.915105 
L 496.602404 12.064514 
L 496.32121 12.609497 
L 496.039977 13.58621 
L 495.758783 15.052463 
L 495.477549 17.076485 
L 495.196356 19.649818 
L 494.915122 22.83625 
L 494.633929 26.670399 
L 494.352695 31.186364 
L 494.071502 36.406511 
L 493.790268 42.370796 
L 493.509075 49.078005 
L 493.227841 56.506833 
L 492.946648 64.640182 
L 492.665414 73.403195 
L 492.384221 82.720639 
L 492.102987 92.459303 
L 491.821794 102.460337 
L 491.54056 112.506609 
L 491.259367 122.373411 
L 490.978133 131.804549 
L 490.69694 140.564211 
L 490.415706 148.448954 
L 490.134512 155.31124 
L 489.853279 161.078258 
L 489.572085 165.756605 
L 489.290852 169.419965 
z
" clip-path="url(#p50e60ea211)" style="fill: #d55e00"/>
   </g>
   <g id="PolyCollection_2">
    <path d="M 562.687644 170.891549 
L 562.687644 171.096207 
L 562.968877 171.096207 
L 563.250071 171.096207 
L 563.531304 171.096207 
L 563.812498 171.096207 
L 564.093731 171.096207 
L 564.374925 171.096207 
L 564.656159 171.096207 
L 564.937352 171.096207 
L 565.218586 171.096207 
L 565.499819 171.096207 
L 565.781013 171.096207 
L 566.062246 171.096207 
L 566.34344 171.096207 
L 566.624673 171.096207 
L 566.905867 171.096207 
L 567.1871 171.096207 
L 567.468294 171.096207 
L 567.749528 171.096207 
L 568.030721 171.096207 
L 568.311955 171.096207 
L 568.593148 171.096207 
L 568.874382 171.096207 
L 569.155575 171.096207 
L 569.436809 171.096207 
L 569.718002 171.096207 
L 569.999236 171.096207 
L 570.280429 171.096207 
L 570.561663 171.096207 
L 570.842856 171.096207 
L 571.12409 171.096207 
L 571.405283 171.096207 
L 571.686517 171.096207 
L 571.96771 171.096207 
L 572.248944 171.096207 
L 572.530137 171.096207 
L 572.811371 171.096207 
L 573.092564 171.096207 
L 573.373798 171.096207 
L 573.654992 171.096207 
L 573.936225 171.096207 
L 574.217419 171.096207 
L 574.498652 171.096207 
L 574.779846 171.096207 
L 575.061079 171.096207 
L 575.342273 171.096207 
L 575.623506 171.096207 
L 575.9047 171.096207 
L 576.185933 171.096207 
L 576.467127 171.096207 
L 576.748361 171.096207 
L 577.029554 171.096207 
L 577.310788 171.096207 
L 577.591981 171.096207 
L 577.873215 171.096207 
L 578.154408 171.096207 
L 578.435642 171.096207 
L 578.716835 171.096207 
L 578.998069 171.096207 
L 579.279262 171.096207 
L 579.560496 171.096207 
L 579.841689 171.096207 
L 580.122923 171.096207 
L 580.404116 171.096207 
L 580.68535 171.096207 
L 580.966543 171.096207 
L 581.247777 171.096207 
L 581.52897 171.096207 
L 581.810204 171.096207 
L 582.091397 171.096207 
L 582.091397 170.682552 
L 582.091397 170.682552 
L 581.810204 170.203823 
L 581.52897 169.662307 
L 581.247777 169.053038 
L 580.966543 168.370025 
L 580.68535 167.609465 
L 580.404116 166.763127 
L 580.122923 165.828923 
L 579.841689 164.795672 
L 579.560496 163.661663 
L 579.279262 162.415124 
L 578.998069 161.047883 
L 578.716835 159.550553 
L 578.435642 157.914758 
L 578.154408 156.123017 
L 577.873215 154.170418 
L 577.591981 152.050409 
L 577.310788 149.749003 
L 577.029554 147.261102 
L 576.748361 144.585041 
L 576.467127 141.709931 
L 576.185933 138.629612 
L 575.9047 135.350482 
L 575.623506 131.872836 
L 575.342273 128.206629 
L 575.061079 124.367253 
L 574.779846 120.371972 
L 574.498652 116.24088 
L 574.217419 112.001462 
L 573.936225 107.676813 
L 573.654992 103.30153 
L 573.373798 98.914303 
L 573.092564 94.554432 
L 572.811371 90.258643 
L 572.530137 86.080094 
L 572.248944 82.054722 
L 571.96771 78.22699 
L 571.686517 74.621258 
L 571.405283 71.295019 
L 571.12409 68.265816 
L 570.842856 65.569637 
L 570.561663 63.22699 
L 570.280429 61.283734 
L 569.999236 59.731788 
L 569.718002 58.611808 
L 569.436809 57.931118 
L 569.155575 57.71407 
L 568.874382 57.977915 
L 568.593148 58.759953 
L 568.311955 60.074171 
L 568.030721 61.97435 
L 567.749528 64.493787 
L 567.468294 67.666103 
L 567.1871 71.533014 
L 566.905867 76.11452 
L 566.624673 81.411988 
L 566.34344 87.409845 
L 566.062246 94.05478 
L 565.781013 101.25011 
L 565.499819 108.879038 
L 565.218586 116.774546 
L 564.937352 124.742908 
L 564.656159 132.584873 
L 564.374925 140.098503 
L 564.093731 147.102197 
L 563.812498 153.444651 
L 563.531304 159.024712 
L 563.250071 163.785259 
L 562.968877 167.729505 
L 562.687644 170.891549 
z
" clip-path="url(#p50e60ea211)" style="fill: #0072b2"/>
   </g>
   <g id="PolyCollection_3">
    <path d="M 980.852547 176.18487 
L 980.852547 176.026944 
L 981.133821 176.026944 
L 981.415014 176.026944 
L 981.696207 176.026944 
L 981.977401 176.026944 
L 982.258675 176.026944 
L 982.539868 176.026944 
L 982.821061 176.026944 
L 983.102255 176.026944 
L 983.383529 176.026944 
L 983.664722 176.026944 
L 983.945916 176.026944 
L 984.227109 176.026944 
L 984.508383 176.026944 
L 984.789576 176.026944 
L 985.07077 176.026944 
L 985.351963 176.026944 
L 985.633237 176.026944 
L 985.91443 176.026944 
L 986.195624 176.026944 
L 986.476817 176.026944 
L 986.758091 176.026944 
L 987.039285 176.026944 
L 987.320478 176.026944 
L 987.601752 176.026944 
L 987.882945 176.026944 
L 988.164139 176.026944 
L 988.445332 176.026944 
L 988.726606 176.026944 
L 989.007799 176.026944 
L 989.288993 176.026944 
L 989.570186 176.026944 
L 989.85146 176.026944 
L 990.132654 176.026944 
L 990.413847 176.026944 
L 990.69504 176.026944 
L 990.976314 176.026944 
L 991.257508 176.026944 
L 991.538701 176.026944 
L 991.819894 176.026944 
L 992.101168 176.026944 
L 992.382362 176.026944 
L 992.663555 176.026944 
L 992.944749 176.026944 
L 993.226022 176.026944 
L 993.507216 176.026944 
L 993.788409 176.026944 
L 994.069603 176.026944 
L 994.350877 176.026944 
L 994.63207 176.026944 
L 994.913263 176.026944 
L 995.194457 176.026944 
L 995.475731 176.026944 
L 995.756924 176.026944 
L 996.038118 176.026944 
L 996.319311 176.026944 
L 996.600585 176.026944 
L 996.881778 176.026944 
L 997.162972 176.026944 
L 997.444165 176.026944 
L 997.725439 176.026944 
L 998.006632 176.026944 
L 998.287826 176.026944 
L 998.569019 176.026944 
L 998.850293 176.026944 
L 999.131487 176.026944 
L 999.41268 176.026944 
L 999.693873 176.026944 
L 999.975147 176.026944 
L 1000.256341 176.026944 
L 1000.537534 176.026944 
L 1000.537534 175.9738 
L 1000.537534 175.9738 
L 1000.256341 175.920104 
L 999.975147 175.863568 
L 999.693873 175.802936 
L 999.41268 175.737274 
L 999.131487 175.666102 
L 998.850293 175.591392 
L 998.569019 175.508825 
L 998.287826 175.420944 
L 998.006632 175.326839 
L 997.725439 175.225409 
L 997.444165 175.113999 
L 997.162972 174.993473 
L 996.881778 174.862914 
L 996.600585 174.720905 
L 996.319311 174.564807 
L 996.038118 174.395689 
L 995.756924 174.2113 
L 995.475731 174.007802 
L 995.194457 173.784817 
L 994.913263 173.542827 
L 994.63207 173.278768 
L 994.350877 172.992789 
L 994.069603 172.683044 
L 993.788409 172.349339 
L 993.507216 171.987631 
L 993.226022 171.597517 
L 992.944749 171.176883 
L 992.663555 170.72499 
L 992.382362 170.239843 
L 992.101168 169.725459 
L 991.819894 169.183524 
L 991.538701 168.614247 
L 991.257508 168.025615 
L 990.976314 167.419141 
L 990.69504 166.796436 
L 990.413847 166.160442 
L 990.132654 165.522867 
L 989.85146 164.880871 
L 989.570186 164.245295 
L 989.288993 163.623346 
L 989.007799 163.023852 
L 988.726606 162.451107 
L 988.445332 161.919763 
L 988.164139 161.436037 
L 987.882945 161.010944 
L 987.601752 160.653816 
L 987.320478 160.371146 
L 987.039285 160.172025 
L 986.758091 160.065376 
L 986.476817 160.060775 
L 986.195624 160.166007 
L 985.91443 160.394239 
L 985.633237 160.754743 
L 985.351963 161.255806 
L 985.07077 161.900045 
L 984.789576 162.689004 
L 984.508383 163.619089 
L 984.227109 164.674576 
L 983.945916 165.833681 
L 983.664722 167.070123 
L 983.383529 168.34991 
L 983.102255 169.628708 
L 982.821061 170.866692 
L 982.539868 172.025937 
L 982.258675 173.072305 
L 981.977401 173.981265 
L 981.696207 174.742274 
L 981.415014 175.354221 
L 981.133821 175.829485 
L 980.852547 176.18487 
z
" clip-path="url(#p50e60ea211)" style="fill: #009e73"/>
   </g>
   <g id="matplotlib.axis_1">
    <g id="xtick_1">
     <g id="line2d_1">
      <defs>
       <path id="mbfe19d1f7b" d="M 0 0 
L 0 8 
" style="stroke: #000000; stroke-width: 2"/>
      </defs>
      <g>
       <use xlink:href="#mbfe19d1f7b" x="122.306852" y="199.12726" style="stroke: #000000; stroke-width: 2"/>
      </g>
     </g>
     <g id="text_1">
      <!-- 0.0 -->
      <g transform="translate(109.796852 225.011323) scale(0.18 -0.18)">
       <defs>
        <path id="Arial-BoldMT-30" d="M 1756 4600 
Q 2422 4600 2797 4125 
Q 3244 3563 3244 2259 
Q 3244 959 2794 391 
Q 2422 -78 1756 -78 
Q 1088 -78 678 436 
Q 269 950 269 2269 
Q 269 3563 719 4131 
Q 1091 4600 1756 4600 
z
M 1756 3872 
Q 1597 3872 1472 3770 
Q 1347 3669 1278 3406 
Q 1188 3066 1188 2259 
Q 1188 1453 1269 1151 
Q 1350 850 1473 750 
Q 1597 650 1756 650 
Q 1916 650 2041 751 
Q 2166 853 2234 1116 
Q 2325 1453 2325 2259 
Q 2325 3066 2244 3367 
Q 2163 3669 2039 3770 
Q 1916 3872 1756 3872 
z
" transform="scale(0.015625)"/>
        <path id="Arial-BoldMT-2e" d="M 459 0 
L 459 878 
L 1338 878 
L 1338 0 
L 459 0 
z
" transform="scale(0.015625)"/>
       </defs>
       <use xlink:href="#Arial-BoldMT-30"/>
       <use xlink:href="#Arial-BoldMT-2e" x="55.615234"/>
       <use xlink:href="#Arial-BoldMT-30" x="83.398438"/>
      </g>
     </g>
    </g>
    <g id="xtick_2">
     <g id="line2d_2">
      <g>
       <use xlink:href="#mbfe19d1f7b" x="291.035131" y="199.12726" style="stroke: #000000; stroke-width: 2"/>
      </g>
     </g>
     <g id="text_2">
      <!-- 0.5 -->
      <g transform="translate(278.525131 225.011323) scale(0.18 -0.18)">
       <defs>
        <path id="Arial-BoldMT-35" d="M 284 1178 
L 1159 1269 
Q 1197 972 1381 798 
Q 1566 625 1806 625 
Q 2081 625 2272 848 
Q 2463 1072 2463 1522 
Q 2463 1944 2273 2155 
Q 2084 2366 1781 2366 
Q 1403 2366 1103 2031 
L 391 2134 
L 841 4519 
L 3163 4519 
L 3163 3697 
L 1506 3697 
L 1369 2919 
Q 1663 3066 1969 3066 
Q 2553 3066 2959 2641 
Q 3366 2216 3366 1538 
Q 3366 972 3038 528 
Q 2591 -78 1797 -78 
Q 1163 -78 763 262 
Q 363 603 284 1178 
z
" transform="scale(0.015625)"/>
       </defs>
       <use xlink:href="#Arial-BoldMT-30"/>
       <use xlink:href="#Arial-BoldMT-2e" x="55.615234"/>
       <use xlink:href="#Arial-BoldMT-35" x="83.398438"/>
      </g>
     </g>
    </g>
    <g id="xtick_3">
     <g id="line2d_3">
      <g>
       <use xlink:href="#mbfe19d1f7b" x="459.763411" y="199.12726" style="stroke: #000000; stroke-width: 2"/>
      </g>
     </g>
     <g id="text_3">
      <!-- 1.0 -->
      <g transform="translate(447.253411 225.011323) scale(0.18 -0.18)">
       <defs>
        <path id="Arial-BoldMT-31" d="M 2519 0 
L 1641 0 
L 1641 3309 
Q 1159 2859 506 2644 
L 506 3441 
Q 850 3553 1253 3867 
Q 1656 4181 1806 4600 
L 2519 4600 
L 2519 0 
z
" transform="scale(0.015625)"/>
       </defs>
       <use xlink:href="#Arial-BoldMT-31"/>
       <use xlink:href="#Arial-BoldMT-2e" x="55.615234"/>
       <use xlink:href="#Arial-BoldMT-30" x="83.398438"/>
      </g>
     </g>
    </g>
    <g id="xtick_4">
     <g id="line2d_4">
      <g>
       <use xlink:href="#mbfe19d1f7b" x="628.49169" y="199.12726" style="stroke: #000000; stroke-width: 2"/>
      </g>
     </g>
     <g id="text_4">
      <!-- 1.5 -->
      <g transform="translate(615.98169 225.011323) scale(0.18 -0.18)">
       <use xlink:href="#Arial-BoldMT-31"/>
       <use xlink:href="#Arial-BoldMT-2e" x="55.615234"/>
       <use xlink:href="#Arial-BoldMT-35" x="83.398438"/>
      </g>
     </g>
    </g>
    <g id="xtick_5">
     <g id="line2d_5">
      <g>
       <use xlink:href="#mbfe19d1f7b" x="797.21997" y="199.12726" style="stroke: #000000; stroke-width: 2"/>
      </g>
     </g>
     <g id="text_5">
      <!-- 2.0 -->
      <g transform="translate(784.70997 225.011323) scale(0.18 -0.18)">
       <defs>
        <path id="Arial-BoldMT-32" d="M 3238 816 
L 3238 0 
L 159 0 
Q 209 463 459 877 
Q 709 1291 1447 1975 
Q 2041 2528 2175 2725 
Q 2356 2997 2356 3263 
Q 2356 3556 2198 3714 
Q 2041 3872 1763 3872 
Q 1488 3872 1325 3706 
Q 1163 3541 1138 3156 
L 263 3244 
Q 341 3969 753 4284 
Q 1166 4600 1784 4600 
Q 2463 4600 2850 4234 
Q 3238 3869 3238 3325 
Q 3238 3016 3127 2736 
Q 3016 2456 2775 2150 
Q 2616 1947 2200 1565 
Q 1784 1184 1673 1059 
Q 1563 934 1494 816 
L 3238 816 
z
" transform="scale(0.015625)"/>
       </defs>
       <use xlink:href="#Arial-BoldMT-32"/>
       <use xlink:href="#Arial-BoldMT-2e" x="55.615234"/>
       <use xlink:href="#Arial-BoldMT-30" x="83.398438"/>
      </g>
     </g>
    </g>
    <g id="xtick_6">
     <g id="line2d_6">
      <g>
       <use xlink:href="#mbfe19d1f7b" x="965.94825" y="199.12726" style="stroke: #000000; stroke-width: 2"/>
      </g>
     </g>
     <g id="text_6">
      <!-- 2.5 -->
      <g transform="translate(953.43825 225.011323) scale(0.18 -0.18)">
       <use xlink:href="#Arial-BoldMT-32"/>
       <use xlink:href="#Arial-BoldMT-2e" x="55.615234"/>
       <use xlink:href="#Arial-BoldMT-35" x="83.398438"/>
      </g>
     </g>
    </g>
    <g id="xtick_7">
     <g id="line2d_7">
      <g>
       <use xlink:href="#mbfe19d1f7b" x="1134.676529" y="199.12726" style="stroke: #000000; stroke-width: 2"/>
      </g>
     </g>
     <g id="text_7">
      <!-- 3.0 -->
      <g transform="translate(1122.166529 225.011323) scale(0.18 -0.18)">
       <defs>
        <path id="Arial-BoldMT-33" d="M 241 1216 
L 1091 1319 
Q 1131 994 1309 822 
Q 1488 650 1741 650 
Q 2013 650 2198 856 
Q 2384 1063 2384 1413 
Q 2384 1744 2206 1937 
Q 2028 2131 1772 2131 
Q 1603 2131 1369 2066 
L 1466 2781 
Q 1822 2772 2009 2936 
Q 2197 3100 2197 3372 
Q 2197 3603 2059 3740 
Q 1922 3878 1694 3878 
Q 1469 3878 1309 3722 
Q 1150 3566 1116 3266 
L 306 3403 
Q 391 3819 561 4067 
Q 731 4316 1036 4458 
Q 1341 4600 1719 4600 
Q 2366 4600 2756 4188 
Q 3078 3850 3078 3425 
Q 3078 2822 2419 2463 
Q 2813 2378 3048 2084 
Q 3284 1791 3284 1375 
Q 3284 772 2843 347 
Q 2403 -78 1747 -78 
Q 1125 -78 715 280 
Q 306 638 241 1216 
z
" transform="scale(0.015625)"/>
       </defs>
       <use xlink:href="#Arial-BoldMT-33"/>
       <use xlink:href="#Arial-BoldMT-2e" x="55.615234"/>
       <use xlink:href="#Arial-BoldMT-30" x="83.398438"/>
      </g>
     </g>
    </g>
    <g id="text_8">
     <!-- Retention time / min -->
     <g transform="translate(542.350469 245.447573) scale(0.18 -0.18)">
      <defs>
       <path id="Arial-BoldMT-52" d="M 469 0 
L 469 4581 
L 2416 4581 
Q 3150 4581 3483 4457 
Q 3816 4334 4016 4018 
Q 4216 3703 4216 3297 
Q 4216 2781 3912 2445 
Q 3609 2109 3006 2022 
Q 3306 1847 3501 1637 
Q 3697 1428 4028 894 
L 4588 0 
L 3481 0 
L 2813 997 
Q 2456 1531 2325 1670 
Q 2194 1809 2047 1861 
Q 1900 1913 1581 1913 
L 1394 1913 
L 1394 0 
L 469 0 
z
M 1394 2644 
L 2078 2644 
Q 2744 2644 2909 2700 
Q 3075 2756 3169 2893 
Q 3263 3031 3263 3238 
Q 3263 3469 3139 3611 
Q 3016 3753 2791 3791 
Q 2678 3806 2116 3806 
L 1394 3806 
L 1394 2644 
z
" transform="scale(0.015625)"/>
       <path id="Arial-BoldMT-65" d="M 2381 1056 
L 3256 909 
Q 3088 428 2723 176 
Q 2359 -75 1813 -75 
Q 947 -75 531 491 
Q 203 944 203 1634 
Q 203 2459 634 2926 
Q 1066 3394 1725 3394 
Q 2466 3394 2894 2905 
Q 3322 2416 3303 1406 
L 1103 1406 
Q 1113 1016 1316 798 
Q 1519 581 1822 581 
Q 2028 581 2168 693 
Q 2309 806 2381 1056 
z
M 2431 1944 
Q 2422 2325 2234 2523 
Q 2047 2722 1778 2722 
Q 1491 2722 1303 2513 
Q 1116 2303 1119 1944 
L 2431 1944 
z
" transform="scale(0.015625)"/>
       <path id="Arial-BoldMT-74" d="M 1981 3319 
L 1981 2619 
L 1381 2619 
L 1381 1281 
Q 1381 875 1398 808 
Q 1416 741 1477 697 
Q 1538 653 1625 653 
Q 1747 653 1978 738 
L 2053 56 
Q 1747 -75 1359 -75 
Q 1122 -75 931 4 
Q 741 84 652 211 
Q 563 338 528 553 
Q 500 706 500 1172 
L 500 2619 
L 97 2619 
L 97 3319 
L 500 3319 
L 500 3978 
L 1381 4491 
L 1381 3319 
L 1981 3319 
z
" transform="scale(0.015625)"/>
       <path id="Arial-BoldMT-6e" d="M 3478 0 
L 2600 0 
L 2600 1694 
Q 2600 2231 2544 2389 
Q 2488 2547 2361 2634 
Q 2234 2722 2056 2722 
Q 1828 2722 1647 2597 
Q 1466 2472 1398 2265 
Q 1331 2059 1331 1503 
L 1331 0 
L 453 0 
L 453 3319 
L 1269 3319 
L 1269 2831 
Q 1703 3394 2363 3394 
Q 2653 3394 2893 3289 
Q 3134 3184 3257 3021 
Q 3381 2859 3429 2653 
Q 3478 2447 3478 2063 
L 3478 0 
z
" transform="scale(0.015625)"/>
       <path id="Arial-BoldMT-69" d="M 459 3769 
L 459 4581 
L 1338 4581 
L 1338 3769 
L 459 3769 
z
M 459 0 
L 459 3319 
L 1338 3319 
L 1338 0 
L 459 0 
z
" transform="scale(0.015625)"/>
       <path id="Arial-BoldMT-6f" d="M 256 1706 
Q 256 2144 472 2553 
Q 688 2963 1083 3178 
Q 1478 3394 1966 3394 
Q 2719 3394 3200 2905 
Q 3681 2416 3681 1669 
Q 3681 916 3195 420 
Q 2709 -75 1972 -75 
Q 1516 -75 1102 131 
Q 688 338 472 736 
Q 256 1134 256 1706 
z
M 1156 1659 
Q 1156 1166 1390 903 
Q 1625 641 1969 641 
Q 2313 641 2545 903 
Q 2778 1166 2778 1666 
Q 2778 2153 2545 2415 
Q 2313 2678 1969 2678 
Q 1625 2678 1390 2415 
Q 1156 2153 1156 1659 
z
" transform="scale(0.015625)"/>
       <path id="Arial-BoldMT-20" transform="scale(0.015625)"/>
       <path id="Arial-BoldMT-6d" d="M 394 3319 
L 1203 3319 
L 1203 2866 
Q 1638 3394 2238 3394 
Q 2556 3394 2790 3262 
Q 3025 3131 3175 2866 
Q 3394 3131 3647 3262 
Q 3900 3394 4188 3394 
Q 4553 3394 4806 3245 
Q 5059 3097 5184 2809 
Q 5275 2597 5275 2122 
L 5275 0 
L 4397 0 
L 4397 1897 
Q 4397 2391 4306 2534 
Q 4184 2722 3931 2722 
Q 3747 2722 3584 2609 
Q 3422 2497 3350 2280 
Q 3278 2063 3278 1594 
L 3278 0 
L 2400 0 
L 2400 1819 
Q 2400 2303 2353 2443 
Q 2306 2584 2207 2653 
Q 2109 2722 1941 2722 
Q 1738 2722 1575 2612 
Q 1413 2503 1342 2297 
Q 1272 2091 1272 1613 
L 1272 0 
L 394 0 
L 394 3319 
z
" transform="scale(0.015625)"/>
       <path id="Arial-BoldMT-2f" d="M -9 -78 
L 1125 4659 
L 1784 4659 
L 638 -78 
L -9 -78 
z
" transform="scale(0.015625)"/>
      </defs>
      <use xlink:href="#Arial-BoldMT-52"/>
      <use xlink:href="#Arial-BoldMT-65" x="72.216797"/>
      <use xlink:href="#Arial-BoldMT-74" x="127.832031"/>
      <use xlink:href="#Arial-BoldMT-65" x="161.132812"/>
      <use xlink:href="#Arial-BoldMT-6e" x="216.748047"/>
      <use xlink:href="#Arial-BoldMT-74" x="277.832031"/>
      <use xlink:href="#Arial-BoldMT-69" x="311.132812"/>
      <use xlink:href="#Arial-BoldMT-6f" x="338.916016"/>
      <use xlink:href="#Arial-BoldMT-6e" x="400"/>
      <use xlink:href="#Arial-BoldMT-20" x="461.083984"/>
      <use xlink:href="#Arial-BoldMT-74" x="488.867188"/>
      <use xlink:href="#Arial-BoldMT-69" x="522.167969"/>
      <use xlink:href="#Arial-BoldMT-6d" x="549.951172"/>
      <use xlink:href="#Arial-BoldMT-65" x="638.867188"/>
      <use xlink:href="#Arial-BoldMT-20" x="694.482422"/>
      <use xlink:href="#Arial-BoldMT-2f" x="722.265625"/>
      <use xlink:href="#Arial-BoldMT-20" x="750.048828"/>
      <use xlink:href="#Arial-BoldMT-6d" x="777.832031"/>
      <use xlink:href="#Arial-BoldMT-69" x="866.748047"/>
      <use xlink:href="#Arial-BoldMT-6e" x="894.53125"/>
     </g>
    </g>
   </g>
   <g id="matplotlib.axis_2">
    <g id="ytick_1">
     <g id="line2d_8">
      <defs>
       <path id="mdd4736ed20" d="M 0 0 
L -8 0 
" style="stroke: #000000; stroke-width: 2"/>
      </defs>
      <g>
       <use xlink:href="#mdd4736ed20" x="71.702428" y="176.579332" style="stroke: #000000; stroke-width: 2"/>
      </g>
     </g>
     <g id="text_9">
      <!-- 0.00 -->
      <g transform="translate(23.67274 183.021363) scale(0.18 -0.18)">
       <use xlink:href="#Arial-BoldMT-30"/>
       <use xlink:href="#Arial-BoldMT-2e" x="55.615234"/>
       <use xlink:href="#Arial-BoldMT-30" x="83.398438"/>
       <use xlink:href="#Arial-BoldMT-30" x="139.013672"/>
      </g>
     </g>
    </g>
    <g id="ytick_2">
     <g id="line2d_9">
      <g>
       <use xlink:href="#mdd4736ed20" x="71.702428" y="135.413275" style="stroke: #000000; stroke-width: 2"/>
      </g>
     </g>
     <g id="text_10">
      <!-- 0.25 -->
      <g transform="translate(23.67274 141.855306) scale(0.18 -0.18)">
       <use xlink:href="#Arial-BoldMT-30"/>
       <use xlink:href="#Arial-BoldMT-2e" x="55.615234"/>
       <use xlink:href="#Arial-BoldMT-32" x="83.398438"/>
       <use xlink:href="#Arial-BoldMT-35" x="139.013672"/>
      </g>
     </g>
    </g>
    <g id="ytick_3">
     <g id="line2d_10">
      <g>
       <use xlink:href="#mdd4736ed20" x="71.702428" y="94.247218" style="stroke: #000000; stroke-width: 2"/>
      </g>
     </g>
     <g id="text_11">
      <!-- 0.50 -->
      <g transform="translate(23.67274 100.689249) scale(0.18 -0.18)">
       <use xlink:href="#Arial-BoldMT-30"/>
       <use xlink:href="#Arial-BoldMT-2e" x="55.615234"/>
       <use xlink:href="#Arial-BoldMT-35" x="83.398438"/>
       <use xlink:href="#Arial-BoldMT-30" x="139.013672"/>
      </g>
     </g>
    </g>
    <g id="ytick_4">
     <g id="line2d_11">
      <g>
       <use xlink:href="#mdd4736ed20" x="71.702428" y="53.081161" style="stroke: #000000; stroke-width: 2"/>
      </g>
     </g>
     <g id="text_12">
      <!-- 0.75 -->
      <g transform="translate(23.67274 59.523193) scale(0.18 -0.18)">
       <defs>
        <path id="Arial-BoldMT-37" d="M 272 3703 
L 272 4519 
L 3275 4519 
L 3275 3881 
Q 2903 3516 2518 2831 
Q 2134 2147 1932 1376 
Q 1731 606 1734 0 
L 888 0 
Q 909 950 1279 1937 
Q 1650 2925 2269 3703 
L 272 3703 
z
" transform="scale(0.015625)"/>
       </defs>
       <use xlink:href="#Arial-BoldMT-30"/>
       <use xlink:href="#Arial-BoldMT-2e" x="55.615234"/>
       <use xlink:href="#Arial-BoldMT-37" x="83.398438"/>
       <use xlink:href="#Arial-BoldMT-35" x="139.013672"/>
      </g>
     </g>
    </g>
    <g id="ytick_5">
     <g id="line2d_12">
      <g>
       <use xlink:href="#mdd4736ed20" x="71.702428" y="11.915105" style="stroke: #000000; stroke-width: 2"/>
      </g>
     </g>
     <g id="text_13">
      <!-- 1.00 -->
      <g transform="translate(23.67274 18.357136) scale(0.18 -0.18)">
       <use xlink:href="#Arial-BoldMT-31"/>
       <use xlink:href="#Arial-BoldMT-2e" x="55.615234"/>
       <use xlink:href="#Arial-BoldMT-30" x="83.398438"/>
       <use xlink:href="#Arial-BoldMT-30" x="139.013672"/>
      </g>
     </g>
    </g>
    <g id="text_14">
     <!-- Rel. Intensity -->
     <g transform="translate(15.884303 157.071875) rotate(-90) scale(0.18 -0.18)">
      <defs>
       <path id="Arial-BoldMT-6c" d="M 459 0 
L 459 4581 
L 1338 4581 
L 1338 0 
L 459 0 
z
" transform="scale(0.015625)"/>
       <path id="Arial-BoldMT-49" d="M 438 0 
L 438 4581 
L 1363 4581 
L 1363 0 
L 438 0 
z
" transform="scale(0.015625)"/>
       <path id="Arial-BoldMT-73" d="M 150 947 
L 1031 1081 
Q 1088 825 1259 692 
Q 1431 559 1741 559 
Q 2081 559 2253 684 
Q 2369 772 2369 919 
Q 2369 1019 2306 1084 
Q 2241 1147 2013 1200 
Q 950 1434 666 1628 
Q 272 1897 272 2375 
Q 272 2806 612 3100 
Q 953 3394 1669 3394 
Q 2350 3394 2681 3172 
Q 3013 2950 3138 2516 
L 2309 2363 
Q 2256 2556 2107 2659 
Q 1959 2763 1684 2763 
Q 1338 2763 1188 2666 
Q 1088 2597 1088 2488 
Q 1088 2394 1175 2328 
Q 1294 2241 1995 2081 
Q 2697 1922 2975 1691 
Q 3250 1456 3250 1038 
Q 3250 581 2869 253 
Q 2488 -75 1741 -75 
Q 1063 -75 667 200 
Q 272 475 150 947 
z
" transform="scale(0.015625)"/>
       <path id="Arial-BoldMT-79" d="M 44 3319 
L 978 3319 
L 1772 963 
L 2547 3319 
L 3456 3319 
L 2284 125 
L 2075 -453 
Q 1959 -744 1854 -897 
Q 1750 -1050 1614 -1145 
Q 1478 -1241 1279 -1294 
Q 1081 -1347 831 -1347 
Q 578 -1347 334 -1294 
L 256 -606 
Q 463 -647 628 -647 
Q 934 -647 1081 -467 
Q 1228 -288 1306 -9 
L 44 3319 
z
" transform="scale(0.015625)"/>
      </defs>
      <use xlink:href="#Arial-BoldMT-52"/>
      <use xlink:href="#Arial-BoldMT-65" x="72.216797"/>
      <use xlink:href="#Arial-BoldMT-6c" x="127.832031"/>
      <use xlink:href="#Arial-BoldMT-2e" x="155.615234"/>
      <use xlink:href="#Arial-BoldMT-20" x="183.398438"/>
      <use xlink:href="#Arial-BoldMT-49" x="211.181641"/>
      <use xlink:href="#Arial-BoldMT-6e" x="238.964844"/>
      <use xlink:href="#Arial-BoldMT-74" x="300.048828"/>
      <use xlink:href="#Arial-BoldMT-65" x="333.349609"/>
      <use xlink:href="#Arial-BoldMT-6e" x="388.964844"/>
      <use xlink:href="#Arial-BoldMT-73" x="450.048828"/>
      <use xlink:href="#Arial-BoldMT-69" x="505.664062"/>
      <use xlink:href="#Arial-BoldMT-74" x="533.447266"/>
      <use xlink:href="#Arial-BoldMT-79" x="566.748047"/>
     </g>
    </g>
   </g>
   <g id="line2d_13">
    <path d="M 122.306852 176.712425 
L 148.459735 176.62678 
L 175.456259 176.56497 
L 187.267238 176.530394 
L 202.452784 176.385154 
L 203.015211 176.172723 
L 203.296424 175.932698 
L 203.577638 175.545632 
L 204.14007 174.150718 
L 204.702497 171.744439 
L 205.546137 166.57529 
L 206.389778 161.294986 
L 206.952205 158.798292 
L 207.514632 157.512163 
L 207.795846 157.32224 
L 208.077059 157.406771 
L 208.358273 157.740795 
L 208.9207 159.091336 
L 209.483127 161.360599 
L 210.045554 164.636794 
L 210.889194 171.282289 
L 212.295272 182.997214 
L 212.857699 186.316554 
L 213.420126 188.519798 
L 213.982553 189.733292 
L 214.54498 190.191242 
L 215.107407 190.127428 
L 215.669835 189.717907 
L 216.513475 188.70583 
L 220.450465 183.170821 
L 222.137746 181.530356 
L 224.106251 179.982219 
L 225.793532 178.913259 
L 227.480813 178.092057 
L 229.168094 177.522897 
L 231.136589 177.114721 
L 233.386307 176.865662 
L 236.760869 176.684433 
L 244.634858 176.580836 
L 257.289477 176.628665 
L 262.913748 176.743043 
L 278.099299 176.539665 
L 310.157672 176.482253 
L 322.812301 176.479304 
L 338.841472 176.638841 
L 371.462282 176.921372 
L 411.675857 176.27931 
L 422.924398 176.351807 
L 434.454173 176.399352 
L 435.297814 176.145342 
L 436.141454 175.675412 
L 438.953589 173.755302 
L 439.79723 173.525657 
L 440.640871 173.516518 
L 441.765725 173.757252 
L 443.171792 174.31108 
L 446.827568 175.855608 
L 448.51485 176.279668 
L 450.764578 176.616714 
L 454.13914 176.869703 
L 461.169499 177.142167 
L 485.353862 177.88664 
L 487.041144 177.849862 
L 487.603571 177.556007 
L 487.884804 177.191821 
L 488.165998 176.581882 
L 488.447231 175.626283 
L 488.728425 174.205962 
L 489.290852 169.419965 
L 489.853279 161.078258 
L 490.415706 148.448954 
L 491.259367 122.373411 
L 493.227841 56.506833 
L 494.071502 36.406511 
L 494.633929 26.670399 
L 495.196356 19.649818 
L 495.758783 15.052463 
L 496.32121 12.609497 
L 496.602404 12.064514 
L 496.883637 11.915105 
L 497.164831 12.124706 
L 497.446064 12.647388 
L 498.008491 14.604753 
L 498.570918 17.63231 
L 499.414539 23.939197 
L 500.2582 32.197031 
L 501.383054 45.564059 
L 502.789141 64.929796 
L 506.444897 117.218877 
L 507.850985 133.278743 
L 508.975839 143.591552 
L 510.100693 151.755765 
L 511.225547 158.084126 
L 512.350402 162.916092 
L 513.475256 166.559897 
L 514.60011 169.290337 
L 515.724964 171.332962 
L 516.849818 172.855617 
L 517.974672 174.008341 
L 519.38072 175.087057 
L 520.786807 175.882554 
L 522.755282 176.709344 
L 525.005031 177.392887 
L 527.817166 177.989227 
L 530.910495 178.448417 
L 535.691145 178.844301 
L 538.222046 178.933705 
L 543.28389 178.812932 
L 549.751821 179.308592 
L 554.251238 179.392169 
L 559.594315 179.310381 
L 560.437935 179.091475 
L 561.000363 178.62753 
L 561.281596 178.186194 
L 561.56279 177.525241 
L 561.844023 176.564015 
L 562.40645 173.351137 
L 562.968877 167.729505 
L 563.531304 159.024712 
L 564.374925 140.098503 
L 566.624673 81.411988 
L 567.1871 71.533014 
L 567.749528 64.493787 
L 568.311955 60.074171 
L 568.593148 58.759953 
L 568.874382 57.977915 
L 569.155575 57.71407 
L 569.436809 57.931118 
L 569.718002 58.611808 
L 570.280429 61.283734 
L 570.842856 65.569637 
L 571.686517 74.621258 
L 572.811371 90.258643 
L 575.623506 131.872836 
L 576.748361 144.585041 
L 577.591981 152.050409 
L 578.435642 157.914758 
L 579.279262 162.415124 
L 580.122923 165.828923 
L 580.966543 168.370025 
L 581.810204 170.203823 
L 582.653825 171.477727 
L 583.497485 172.337368 
L 584.622339 173.110174 
L 587.153281 174.446775 
L 589.684183 175.557369 
L 591.652698 176.164258 
L 593.621172 176.522147 
L 595.02726 176.555859 
L 596.433308 176.334868 
L 599.80787 175.633784 
L 601.495151 175.605799 
L 604.026093 175.862842 
L 609.36917 176.401622 
L 622.586186 176.965648 
L 631.303826 177.057109 
L 636.084476 176.963089 
L 640.583892 176.911634 
L 651.270007 176.846265 
L 668.424052 176.647342 
L 679.110166 176.633719 
L 690.639941 176.517701 
L 695.701785 176.521197 
L 725.791653 176.591939 
L 736.759001 176.731316 
L 747.163921 176.921304 
L 756.162754 177.02855 
L 757.287608 176.833529 
L 758.412463 176.341102 
L 759.81855 175.399357 
L 761.505831 174.308327 
L 762.630686 173.833254 
L 763.75554 173.588156 
L 765.161587 173.543903 
L 766.848868 173.748176 
L 775.566508 175.258618 
L 782.315633 175.810278 
L 788.783564 176.222443 
L 799.469678 176.627639 
L 803.406708 176.641706 
L 812.686734 176.631778 
L 817.186151 176.508339 
L 819.998326 176.508482 
L 834.058963 176.77739 
L 837.433525 176.742644 
L 843.620263 176.869061 
L 848.400873 176.890622 
L 849.525727 176.733328 
L 850.369388 176.42469 
L 851.213048 175.9049 
L 853.74395 174.074633 
L 854.587611 173.78753 
L 855.431191 173.698823 
L 856.556045 173.846906 
L 857.962173 174.293758 
L 862.46159 175.950993 
L 864.430105 176.306743 
L 866.679813 176.455769 
L 886.083526 176.655626 
L 913.080025 176.605108 
L 922.078858 176.605731 
L 940.357798 176.7334 
L 953.574854 176.468218 
L 960.042786 176.839543 
L 971.010133 176.976427 
L 978.602838 176.926749 
L 979.727693 176.816054 
L 980.29016 176.617477 
L 980.852547 176.18487 
L 981.415014 175.354221 
L 981.977401 173.981265 
L 982.539868 172.025937 
L 985.07077 161.900045 
L 985.633237 160.754743 
L 986.195624 160.166007 
L 986.758091 160.065376 
L 987.320478 160.371146 
L 987.882945 161.010944 
L 988.726606 162.451107 
L 990.132654 165.522867 
L 992.101168 169.725459 
L 993.226022 171.597517 
L 994.350877 172.992789 
L 995.475731 174.007802 
L 996.600585 174.720905 
L 998.006632 175.326839 
L 999.693873 175.802936 
L 1002.224855 176.238771 
L 1005.318144 176.528036 
L 1010.661221 176.748979 
L 1016.847959 176.812005 
L 1122.303134 176.53453 
L 1134.395336 176.526308 
L 1134.395336 176.526308 
" clip-path="url(#p50e60ea211)" style="fill: none; stroke: #000000; stroke-width: 2.5; stroke-linecap: square"/>
   </g>
   <g id="line2d_14">
    <path d="M 257.289475 199.12726 
L 257.289475 3.00024 
" clip-path="url(#p50e60ea211)" style="fill: none; stroke: #d55e00; stroke-width: 2; stroke-linecap: square"/>
   </g>
   <g id="line2d_15">
    <path d="M 1134.676529 199.12726 
L 1134.676529 3.00024 
" clip-path="url(#p50e60ea211)" style="fill: none; stroke: #d55e00; stroke-width: 2; stroke-linecap: square"/>
   </g>
   <g id="patch_3">
    <path d="M 71.702428 199.12726 
L 71.702428 3.00024 
" style="fill: none; stroke: #000000; stroke-width: 2; stroke-linejoin: miter; stroke-linecap: square"/>
   </g>
   <g id="patch_4">
    <path d="M 1184.99976 199.12726 
L 1184.99976 3.00024 
" style="fill: none; stroke: #000000; stroke-width: 2; stroke-linejoin: miter; stroke-linecap: square"/>
   </g>
   <g id="patch_5">
    <path d="M 71.702428 199.12726 
L 1184.99976 199.12726 
" style="fill: none; stroke: #000000; stroke-width: 2; stroke-linejoin: miter; stroke-linecap: square"/>
   </g>
   <g id="patch_6">
    <path d="M 71.702428 3.00024 
L 1184.99976 3.00024 
" style="fill: none; stroke: #000000; stroke-width: 2; stroke-linejoin: miter; stroke-linecap: square"/>
   </g>
   <g id="text_15">
    <!-- ANALYSIS -->
    <g style="fill: #d55e00" transform="translate(250.955938 131.469823) rotate(-90) scale(0.14994 -0.14994)">
     <defs>
      <path id="Arial-BoldMT-41" d="M 4597 0 
L 3591 0 
L 3191 1041 
L 1359 1041 
L 981 0 
L 0 0 
L 1784 4581 
L 2763 4581 
L 4597 0 
z
M 2894 1813 
L 2263 3513 
L 1644 1813 
L 2894 1813 
z
" transform="scale(0.015625)"/>
      <path id="Arial-BoldMT-4e" d="M 475 0 
L 475 4581 
L 1375 4581 
L 3250 1522 
L 3250 4581 
L 4109 4581 
L 4109 0 
L 3181 0 
L 1334 2988 
L 1334 0 
L 475 0 
z
" transform="scale(0.015625)"/>
      <path id="Arial-BoldMT-4c" d="M 491 0 
L 491 4544 
L 1416 4544 
L 1416 772 
L 3716 772 
L 3716 0 
L 491 0 
z
" transform="scale(0.015625)"/>
      <path id="Arial-BoldMT-59" d="M 1669 0 
L 1669 1928 
L -9 4581 
L 1075 4581 
L 2153 2769 
L 3209 4581 
L 4275 4581 
L 2591 1922 
L 2591 0 
L 1669 0 
z
" transform="scale(0.015625)"/>
      <path id="Arial-BoldMT-53" d="M 231 1491 
L 1131 1578 
Q 1213 1125 1461 912 
Q 1709 700 2131 700 
Q 2578 700 2804 889 
Q 3031 1078 3031 1331 
Q 3031 1494 2936 1608 
Q 2841 1722 2603 1806 
Q 2441 1863 1863 2006 
Q 1119 2191 819 2459 
Q 397 2838 397 3381 
Q 397 3731 595 4036 
Q 794 4341 1167 4500 
Q 1541 4659 2069 4659 
Q 2931 4659 3367 4281 
Q 3803 3903 3825 3272 
L 2900 3231 
Q 2841 3584 2645 3739 
Q 2450 3894 2059 3894 
Q 1656 3894 1428 3728 
Q 1281 3622 1281 3444 
Q 1281 3281 1419 3166 
Q 1594 3019 2269 2859 
Q 2944 2700 3267 2529 
Q 3591 2359 3773 2064 
Q 3956 1769 3956 1334 
Q 3956 941 3737 597 
Q 3519 253 3119 86 
Q 2719 -81 2122 -81 
Q 1253 -81 787 320 
Q 322 722 231 1491 
z
" transform="scale(0.015625)"/>
     </defs>
     <use xlink:href="#Arial-BoldMT-41"/>
     <use xlink:href="#Arial-BoldMT-4e" x="72.216797"/>
     <use xlink:href="#Arial-BoldMT-41" x="144.433594"/>
     <use xlink:href="#Arial-BoldMT-4c" x="216.650391"/>
     <use xlink:href="#Arial-BoldMT-59" x="268.609375"/>
     <use xlink:href="#Arial-BoldMT-53" x="335.308594"/>
     <use xlink:href="#Arial-BoldMT-49" x="402.007812"/>
     <use xlink:href="#Arial-BoldMT-53" x="429.791016"/>
    </g>
   </g>
   <g id="text_16">
    <!-- START -->
    <g style="fill: #d55e00" transform="translate(274.771031 118.681581) rotate(-90) scale(0.14994 -0.14994)">
     <defs>
      <path id="Arial-BoldMT-54" d="M 1497 0 
L 1497 3806 
L 138 3806 
L 138 4581 
L 3778 4581 
L 3778 3806 
L 2422 3806 
L 2422 0 
L 1497 0 
z
" transform="scale(0.015625)"/>
     </defs>
     <use xlink:href="#Arial-BoldMT-53"/>
     <use xlink:href="#Arial-BoldMT-54" x="66.699219"/>
     <use xlink:href="#Arial-BoldMT-41" x="120.408203"/>
     <use xlink:href="#Arial-BoldMT-52" x="192.625"/>
     <use xlink:href="#Arial-BoldMT-54" x="264.841797"/>
    </g>
   </g>
   <g id="text_17">
    <!-- ANALYSIS -->
    <g style="fill: #d55e00" transform="translate(1128.342991 131.469823) rotate(-90) scale(0.14994 -0.14994)">
     <use xlink:href="#Arial-BoldMT-41"/>
     <use xlink:href="#Arial-BoldMT-4e" x="72.216797"/>
     <use xlink:href="#Arial-BoldMT-41" x="144.433594"/>
     <use xlink:href="#Arial-BoldMT-4c" x="216.650391"/>
     <use xlink:href="#Arial-BoldMT-59" x="268.609375"/>
     <use xlink:href="#Arial-BoldMT-53" x="335.308594"/>
     <use xlink:href="#Arial-BoldMT-49" x="402.007812"/>
     <use xlink:href="#Arial-BoldMT-53" x="429.791016"/>
    </g>
   </g>
   <g id="text_18">
    <!-- END -->
    <g style="fill: #d55e00" transform="translate(1152.158084 110.076431) rotate(-90) scale(0.14994 -0.14994)">
     <defs>
      <path id="Arial-BoldMT-45" d="M 466 0 
L 466 4581 
L 3863 4581 
L 3863 3806 
L 1391 3806 
L 1391 2791 
L 3691 2791 
L 3691 2019 
L 1391 2019 
L 1391 772 
L 3950 772 
L 3950 0 
L 466 0 
z
" transform="scale(0.015625)"/>
      <path id="Arial-BoldMT-44" d="M 463 4581 
L 2153 4581 
Q 2725 4581 3025 4494 
Q 3428 4375 3715 4072 
Q 4003 3769 4153 3330 
Q 4303 2891 4303 2247 
Q 4303 1681 4163 1272 
Q 3991 772 3672 463 
Q 3431 228 3022 97 
Q 2716 0 2203 0 
L 463 0 
L 463 4581 
z
M 1388 3806 
L 1388 772 
L 2078 772 
Q 2466 772 2638 816 
Q 2863 872 3011 1006 
Q 3159 1141 3253 1448 
Q 3347 1756 3347 2288 
Q 3347 2819 3253 3103 
Q 3159 3388 2990 3547 
Q 2822 3706 2563 3763 
Q 2369 3806 1803 3806 
L 1388 3806 
z
" transform="scale(0.015625)"/>
     </defs>
     <use xlink:href="#Arial-BoldMT-45"/>
     <use xlink:href="#Arial-BoldMT-4e" x="66.699219"/>
     <use xlink:href="#Arial-BoldMT-44" x="138.916016"/>
    </g>
   </g>
  </g>
 </g>
 <defs>
  <clipPath id="p50e60ea211">
   <rect x="71.702428" y="3.00024" width="1113.297333" height="196.12702"/>
  </clipPath>
 </defs>
</svg>
