<?xml version="1.0" encoding="utf-8" standalone="no"?>
<!DOCTYPE svg PUBLIC "-//W3C//DTD SVG 1.1//EN"
  "http://www.w3.org/Graphics/SVG/1.1/DTD/svg11.dtd">
<svg xmlns:xlink="http://www.w3.org/1999/xlink" width="1188pt" height="252pt" viewBox="0 0 1188 252" xmlns="http://www.w3.org/2000/svg" version="1.1">
 <metadata>
  <rdf:RDF xmlns:dc="http://purl.org/dc/elements/1.1/" xmlns:cc="http://creativecommons.org/ns#" xmlns:rdf="http://www.w3.org/1999/02/22-rdf-syntax-ns#">
   <cc:Work>
    <dc:type rdf:resource="http://purl.org/dc/dcmitype/StillImage"/>
    <dc:date>2024-05-14T22:49:46.772705</dc:date>
    <dc:format>image/svg+xml</dc:format>
    <dc:creator>
     <cc:Agent>
      <dc:title>Matplotlib v3.8.0, https://matplotlib.org/</dc:title>
     </cc:Agent>
    </dc:creator>
   </cc:Work>
  </rdf:RDF>
 </metadata>
 <defs>
  <style type="text/css">*{stroke-linejoin: round; stroke-linecap: butt}</style>
 </defs>
 <g id="figure_1">
  <g id="patch_1">
   <path d="M 0 252 
L 1188 252 
L 1188 0 
L 0 0 
z
" style="fill: #ffffff"/>
  </g>
  <g id="axes_1">
   <g id="patch_2">
    <path d="M 61.69274 199.12726 
L 1184.99976 199.12726 
L 1184.99976 3.00024 
L 61.69274 3.00024 
z
" style="fill: #ffffff"/>
   </g>
   <g id="PolyCollection_1">
    <path d="M 556.968999 159.635761 
L 556.968999 160.836906 
L 557.252683 160.836906 
L 557.536325 160.836906 
L 557.820009 160.836906 
L 558.103652 160.836906 
L 558.387335 160.836906 
L 558.670978 160.836906 
L 558.954661 160.836906 
L 559.238304 160.836906 
L 559.521988 160.836906 
L 559.805671 160.836906 
L 560.089314 160.836906 
L 560.372997 160.836906 
L 560.65664 160.836906 
L 560.940323 160.836906 
L 561.223966 160.836906 
L 561.50765 160.836906 
L 561.791292 160.836906 
L 562.074976 160.836906 
L 562.358619 160.836906 
L 562.642302 160.836906 
L 562.925945 160.836906 
L 563.209628 160.836906 
L 563.493271 160.836906 
L 563.776955 160.836906 
L 564.060597 160.836906 
L 564.344281 160.836906 
L 564.627924 160.836906 
L 564.911607 160.836906 
L 565.19525 160.836906 
L 565.478933 160.836906 
L 565.762576 160.836906 
L 566.04626 160.836906 
L 566.329902 160.836906 
L 566.613586 160.836906 
L 566.897229 160.836906 
L 567.180912 160.836906 
L 567.464555 160.836906 
L 567.748238 160.836906 
L 568.031881 160.836906 
L 568.315564 160.836906 
L 568.599207 160.836906 
L 568.882891 160.836906 
L 569.166534 160.836906 
L 569.450217 160.836906 
L 569.73386 160.836906 
L 570.017543 160.836906 
L 570.301186 160.836906 
L 570.584869 160.836906 
L 570.868512 160.836906 
L 571.152196 160.836906 
L 571.435838 160.836906 
L 571.719522 160.836906 
L 572.003165 160.836906 
L 572.286848 160.836906 
L 572.570491 160.836906 
L 572.854174 160.836906 
L 573.137817 160.836906 
L 573.421501 160.836906 
L 573.705143 160.836906 
L 573.988827 160.836906 
L 574.27247 160.836906 
L 574.556153 160.836906 
L 574.839796 160.836906 
L 575.123479 160.836906 
L 575.407122 160.836906 
L 575.690806 160.836906 
L 575.974448 160.836906 
L 576.258132 160.836906 
L 576.541775 160.836906 
L 576.825458 160.836906 
L 577.109101 160.836906 
L 577.109101 160.444147 
L 577.109101 160.444147 
L 576.825458 159.93458 
L 576.541775 159.368166 
L 576.258132 158.738367 
L 575.974448 158.043802 
L 575.690806 157.278386 
L 575.407122 156.429144 
L 575.123479 155.493478 
L 574.839796 154.457376 
L 574.556153 153.307136 
L 574.27247 152.027808 
L 573.988827 150.610925 
L 573.705143 149.038451 
L 573.421501 147.300385 
L 573.137817 145.381796 
L 572.854174 143.269168 
L 572.570491 140.942741 
L 572.286848 138.395472 
L 572.003165 135.612476 
L 571.719522 132.579656 
L 571.435838 129.295768 
L 571.152196 125.749659 
L 570.868512 121.930719 
L 570.584869 117.838854 
L 570.301186 113.478502 
L 570.017543 108.843545 
L 569.73386 103.961624 
L 569.450217 98.84763 
L 569.166534 93.521544 
L 568.882891 88.013616 
L 568.599207 82.36951 
L 568.315564 76.606682 
L 568.031881 70.780543 
L 567.748238 64.942797 
L 567.464555 59.147713 
L 567.180912 53.43828 
L 566.897229 47.887668 
L 566.613586 42.542561 
L 566.329902 37.471463 
L 566.04626 32.71417 
L 565.762576 28.338127 
L 565.478933 24.395122 
L 565.19525 20.921668 
L 564.911607 17.952223 
L 564.627924 15.538424 
L 564.344281 13.705974 
L 564.060597 12.477936 
L 563.776955 11.915105 
L 563.493271 12.032396 
L 563.209628 12.875155 
L 562.925945 14.474177 
L 562.642302 16.877503 
L 562.358619 20.097708 
L 562.074976 24.185854 
L 561.791292 29.157288 
L 561.50765 35.02309 
L 561.223966 41.767862 
L 560.940323 49.359933 
L 560.65664 57.723666 
L 560.372997 66.739354 
L 560.089314 76.27419 
L 559.805671 86.140748 
L 559.521988 96.125101 
L 559.238304 105.994984 
L 558.954661 115.526194 
L 558.670978 124.492454 
L 558.387335 132.712124 
L 558.103652 140.044071 
L 557.820009 146.406786 
L 557.536325 151.769924 
L 557.252683 156.157166 
L 556.968999 159.635761 
z
" clip-path="url(#p4410804a47)" style="fill: #d55e00"/>
   </g>
   <g id="PolyCollection_2">
    <path d="M 817.371985 161.054465 
L 817.371985 160.431483 
L 817.655709 160.431483 
L 817.939352 160.431483 
L 818.222995 160.431483 
L 818.506638 160.431483 
L 818.790362 160.431483 
L 819.074005 160.431483 
L 819.357647 160.431483 
L 819.64129 160.431483 
L 819.925014 160.431483 
L 820.208657 160.431483 
L 820.4923 160.431483 
L 820.775943 160.431483 
L 821.059667 160.431483 
L 821.34331 160.431483 
L 821.626952 160.431483 
L 821.910595 160.431483 
L 822.194319 160.431483 
L 822.477962 160.431483 
L 822.761605 160.431483 
L 823.045248 160.431483 
L 823.328972 160.431483 
L 823.612614 160.431483 
L 823.896257 160.431483 
L 824.1799 160.431483 
L 824.463624 160.431483 
L 824.747267 160.431483 
L 825.03091 160.431483 
L 825.314553 160.431483 
L 825.598277 160.431483 
L 825.881919 160.431483 
L 826.165562 160.431483 
L 826.449205 160.431483 
L 826.732929 160.431483 
L 827.016572 160.431483 
L 827.300215 160.431483 
L 827.583858 160.431483 
L 827.867582 160.431483 
L 828.151224 160.431483 
L 828.434867 160.431483 
L 828.71851 160.431483 
L 829.002234 160.431483 
L 829.285877 160.431483 
L 829.56952 160.431483 
L 829.853162 160.431483 
L 830.136886 160.431483 
L 830.420529 160.431483 
L 830.704172 160.431483 
L 830.987815 160.431483 
L 831.271539 160.431483 
L 831.555182 160.431483 
L 831.838825 160.431483 
L 832.122467 160.431483 
L 832.406191 160.431483 
L 832.689834 160.431483 
L 832.973477 160.431483 
L 833.25712 160.431483 
L 833.540844 160.431483 
L 833.824487 160.431483 
L 834.10813 160.431483 
L 834.391772 160.431483 
L 834.675496 160.431483 
L 834.959139 160.431483 
L 835.242782 160.431483 
L 835.526425 160.431483 
L 835.810149 160.431483 
L 836.093792 160.431483 
L 836.377434 160.431483 
L 836.661158 160.431483 
L 836.944801 160.431483 
L 837.228444 160.431483 
L 837.512087 160.431483 
L 837.795811 160.431483 
L 838.079454 160.431483 
L 838.363097 160.431483 
L 838.363097 160.179226 
L 838.363097 160.179226 
L 838.079454 159.801924 
L 837.795811 159.396627 
L 837.512087 158.965419 
L 837.228444 158.497474 
L 836.944801 158.000369 
L 836.661158 157.470321 
L 836.377434 156.899971 
L 836.093792 156.285013 
L 835.810149 155.626156 
L 835.526425 154.91299 
L 835.242782 154.141206 
L 834.959139 153.3159 
L 834.675496 152.42323 
L 834.391772 151.457505 
L 834.10813 150.41531 
L 833.824487 149.28921 
L 833.540844 148.062393 
L 833.25712 146.733086 
L 832.973477 145.287066 
L 832.689834 143.712101 
L 832.406191 141.994496 
L 832.122467 140.125642 
L 831.838825 138.091394 
L 831.555182 135.886774 
L 831.271539 133.499236 
L 830.987815 130.92218 
L 830.704172 128.137009 
L 830.420529 125.140495 
L 830.136886 121.916502 
L 829.853162 118.460602 
L 829.56952 114.770097 
L 829.285877 110.857918 
L 829.002234 106.715055 
L 828.71851 102.36382 
L 828.434867 97.820787 
L 828.151224 93.098772 
L 827.867582 88.21944 
L 827.583858 83.229748 
L 827.300215 78.162176 
L 827.016572 73.060251 
L 826.732929 67.977784 
L 826.449205 62.982493 
L 826.165562 58.133765 
L 825.881919 53.499482 
L 825.598277 49.156013 
L 825.314553 45.186966 
L 825.03091 41.638564 
L 824.747267 38.602918 
L 824.463624 36.146561 
L 824.1799 34.334331 
L 823.896257 33.215423 
L 823.612614 32.867636 
L 823.328972 33.298614 
L 823.045248 34.535881 
L 822.761605 36.58942 
L 822.477962 39.468 
L 822.194319 43.167371 
L 821.910595 47.703309 
L 821.626952 53.084339 
L 821.34331 59.311919 
L 821.059667 66.375021 
L 820.775943 74.22534 
L 820.4923 82.76504 
L 820.208657 91.839856 
L 819.925014 101.240557 
L 819.64129 110.697397 
L 819.357647 119.923553 
L 819.074005 128.633717 
L 818.790362 136.578758 
L 818.506638 143.569786 
L 818.222995 149.503368 
L 817.939352 154.35175 
L 817.655709 158.165288 
L 817.371985 161.054465 
z
" clip-path="url(#p4410804a47)" style="fill: #0072b2"/>
   </g>
   <g id="PolyCollection_3">
    <path d="M 954.665097 163.635374 
L 954.665097 163.388419 
L 954.94874 163.388419 
L 955.232383 163.388419 
L 955.516107 163.388419 
L 955.799749 163.388419 
L 956.083392 163.388419 
L 956.367035 163.388419 
L 956.650759 163.388419 
L 956.934402 163.388419 
L 957.218045 163.388419 
L 957.501687 163.388419 
L 957.785411 163.388419 
L 958.069054 163.388419 
L 958.352697 163.388419 
L 958.63634 163.388419 
L 958.920064 163.388419 
L 959.203707 163.388419 
L 959.48735 163.388419 
L 959.770992 163.388419 
L 960.054716 163.388419 
L 960.338359 163.388419 
L 960.622002 163.388419 
L 960.905645 163.388419 
L 961.189369 163.388419 
L 961.473012 163.388419 
L 961.756655 163.388419 
L 962.040297 163.388419 
L 962.324021 163.388419 
L 962.607664 163.388419 
L 962.891307 163.388419 
L 963.17495 163.388419 
L 963.458674 163.388419 
L 963.742317 163.388419 
L 964.025959 163.388419 
L 964.309683 163.388419 
L 964.593326 163.388419 
L 964.876969 163.388419 
L 965.160612 163.388419 
L 965.444336 163.388419 
L 965.727979 163.388419 
L 966.011622 163.388419 
L 966.295264 163.388419 
L 966.578988 163.388419 
L 966.862631 163.388419 
L 967.146274 163.388419 
L 967.429917 163.388419 
L 967.713641 163.388419 
L 967.997284 163.388419 
L 968.280927 163.388419 
L 968.564569 163.388419 
L 968.848293 163.388419 
L 969.131936 163.388419 
L 969.415579 163.388419 
L 969.699222 163.388419 
L 969.982946 163.388419 
L 970.266589 163.388419 
L 970.550232 163.388419 
L 970.833874 163.388419 
L 971.117598 163.388419 
L 971.401241 163.388419 
L 971.684884 163.388419 
L 971.968527 163.388419 
L 972.252251 163.388419 
L 972.535894 163.388419 
L 972.819536 163.388419 
L 973.103179 163.388419 
L 973.386903 163.388419 
L 973.670546 163.388419 
L 973.954189 163.388419 
L 974.237832 163.388419 
L 974.521556 163.388419 
L 974.805199 163.388419 
L 975.088841 163.388419 
L 975.372484 163.388419 
L 975.656208 163.388419 
L 975.939851 163.388419 
L 976.223494 163.388419 
L 976.507137 163.388419 
L 976.790861 163.388419 
L 977.074504 163.388419 
L 977.358146 163.388419 
L 977.641789 163.388419 
L 977.925513 163.388419 
L 978.209156 163.388419 
L 978.492799 163.388419 
L 978.492799 163.164741 
L 978.492799 163.164741 
L 978.209156 163.008719 
L 977.925513 162.866342 
L 977.641789 162.737709 
L 977.358146 162.622965 
L 977.074504 162.521247 
L 976.790861 162.427333 
L 976.507137 162.345576 
L 976.223494 162.271024 
L 975.939851 162.206789 
L 975.656208 162.153176 
L 975.372484 162.106582 
L 975.088841 162.065044 
L 974.805199 162.02212 
L 974.521556 161.966904 
L 974.237832 161.893115 
L 973.954189 161.798951 
L 973.670546 161.667357 
L 973.386903 161.500008 
L 973.103179 161.292004 
L 972.819536 161.038229 
L 972.535894 160.732089 
L 972.252251 160.382002 
L 971.968527 159.986476 
L 971.684884 159.554876 
L 971.401241 159.087507 
L 971.117598 158.586766 
L 970.833874 158.051919 
L 970.550232 157.480624 
L 970.266589 156.864153 
L 969.982946 156.202209 
L 969.699222 155.490138 
L 969.415579 154.723066 
L 969.131936 153.893161 
L 968.848293 152.992447 
L 968.564569 152.012438 
L 968.280927 150.94956 
L 967.997284 149.789017 
L 967.713641 148.52344 
L 967.429917 147.145934 
L 967.146274 145.648067 
L 966.862631 144.014309 
L 966.578988 142.241229 
L 966.295264 140.318012 
L 966.011622 138.238842 
L 965.727979 135.988397 
L 965.444336 133.572773 
L 965.160612 130.993558 
L 964.876969 128.263411 
L 964.593326 125.393473 
L 964.309683 122.416099 
L 964.025959 119.35517 
L 963.742317 116.241199 
L 963.458674 113.11261 
L 963.17495 110.010115 
L 962.891307 106.97835 
L 962.607664 104.061058 
L 962.324021 101.311839 
L 962.040297 98.776956 
L 961.756655 96.517986 
L 961.473012 94.581073 
L 961.189369 93.02375 
L 960.905645 91.887258 
L 960.622002 91.224467 
L 960.338359 91.071875 
L 960.054716 91.476411 
L 959.770992 92.471465 
L 959.48735 94.101344 
L 959.203707 96.386474 
L 958.920064 99.338832 
L 958.63634 102.952568 
L 958.352697 107.198094 
L 958.069054 112.012019 
L 957.785411 117.292862 
L 957.501687 122.913526 
L 957.218045 128.706869 
L 956.934402 134.486947 
L 956.650759 140.057455 
L 956.367035 145.253496 
L 956.083392 149.923118 
L 955.799749 153.965668 
L 955.516107 157.332463 
L 955.232383 160.033551 
L 954.94874 162.108228 
L 954.665097 163.635374 
z
" clip-path="url(#p4410804a47)" style="fill: #009e73"/>
   </g>
   <g id="PathCollection_1">
    <defs>
     <path id="m378e9e5d1a" d="M 0 -6.708204 
L -1.506086 -2.072949 
L -6.379881 -2.072949 
L -2.436898 0.791796 
L -3.942983 5.427051 
L -0 2.562306 
L 3.942983 5.427051 
L 2.436898 0.791796 
L 6.379881 -2.072949 
L 1.506086 -2.072949 
z
" style="stroke: #000000; stroke-width: 1.5"/>
    </defs>
    <g clip-path="url(#p4410804a47)">
     <use xlink:href="#m378e9e5d1a" x="824.179929" y="18.927587" style="stroke: #000000; stroke-width: 1.5"/>
    </g>
   </g>
   <g id="matplotlib.axis_1">
    <g id="xtick_1">
     <g id="line2d_1">
      <defs>
       <path id="m870248314b" d="M 0 0 
L 0 8 
" style="stroke: #000000; stroke-width: 2"/>
      </defs>
      <g>
       <use xlink:href="#m870248314b" x="112.75215" y="199.12726" style="stroke: #000000; stroke-width: 2"/>
      </g>
     </g>
     <g id="text_1">
      <!-- 0.0 -->
      <g transform="translate(100.24215 225.011323) scale(0.18 -0.18)">
       <defs>
        <path id="Arial-BoldMT-30" d="M 1756 4600 
Q 2422 4600 2797 4125 
Q 3244 3563 3244 2259 
Q 3244 959 2794 391 
Q 2422 -78 1756 -78 
Q 1088 -78 678 436 
Q 269 950 269 2269 
Q 269 3563 719 4131 
Q 1091 4600 1756 4600 
z
M 1756 3872 
Q 1597 3872 1472 3770 
Q 1347 3669 1278 3406 
Q 1188 3066 1188 2259 
Q 1188 1453 1269 1151 
Q 1350 850 1473 750 
Q 1597 650 1756 650 
Q 1916 650 2041 751 
Q 2166 853 2234 1116 
Q 2325 1453 2325 2259 
Q 2325 3066 2244 3367 
Q 2163 3669 2039 3770 
Q 1916 3872 1756 3872 
z
" transform="scale(0.015625)"/>
        <path id="Arial-BoldMT-2e" d="M 459 0 
L 459 878 
L 1338 878 
L 1338 0 
L 459 0 
z
" transform="scale(0.015625)"/>
       </defs>
       <use xlink:href="#Arial-BoldMT-30"/>
       <use xlink:href="#Arial-BoldMT-2e" x="55.615234"/>
       <use xlink:href="#Arial-BoldMT-30" x="83.398438"/>
      </g>
     </g>
    </g>
    <g id="xtick_2">
     <g id="line2d_2">
      <g>
       <use xlink:href="#m870248314b" x="282.950183" y="199.12726" style="stroke: #000000; stroke-width: 2"/>
      </g>
     </g>
     <g id="text_2">
      <!-- 0.5 -->
      <g transform="translate(270.440183 225.011323) scale(0.18 -0.18)">
       <defs>
        <path id="Arial-BoldMT-35" d="M 284 1178 
L 1159 1269 
Q 1197 972 1381 798 
Q 1566 625 1806 625 
Q 2081 625 2272 848 
Q 2463 1072 2463 1522 
Q 2463 1944 2273 2155 
Q 2084 2366 1781 2366 
Q 1403 2366 1103 2031 
L 391 2134 
L 841 4519 
L 3163 4519 
L 3163 3697 
L 1506 3697 
L 1369 2919 
Q 1663 3066 1969 3066 
Q 2553 3066 2959 2641 
Q 3366 2216 3366 1538 
Q 3366 972 3038 528 
Q 2591 -78 1797 -78 
Q 1163 -78 763 262 
Q 363 603 284 1178 
z
" transform="scale(0.015625)"/>
       </defs>
       <use xlink:href="#Arial-BoldMT-30"/>
       <use xlink:href="#Arial-BoldMT-2e" x="55.615234"/>
       <use xlink:href="#Arial-BoldMT-35" x="83.398438"/>
      </g>
     </g>
    </g>
    <g id="xtick_3">
     <g id="line2d_3">
      <g>
       <use xlink:href="#m870248314b" x="453.148217" y="199.12726" style="stroke: #000000; stroke-width: 2"/>
      </g>
     </g>
     <g id="text_3">
      <!-- 1.0 -->
      <g transform="translate(440.638217 225.011323) scale(0.18 -0.18)">
       <defs>
        <path id="Arial-BoldMT-31" d="M 2519 0 
L 1641 0 
L 1641 3309 
Q 1159 2859 506 2644 
L 506 3441 
Q 850 3553 1253 3867 
Q 1656 4181 1806 4600 
L 2519 4600 
L 2519 0 
z
" transform="scale(0.015625)"/>
       </defs>
       <use xlink:href="#Arial-BoldMT-31"/>
       <use xlink:href="#Arial-BoldMT-2e" x="55.615234"/>
       <use xlink:href="#Arial-BoldMT-30" x="83.398438"/>
      </g>
     </g>
    </g>
    <g id="xtick_4">
     <g id="line2d_4">
      <g>
       <use xlink:href="#m870248314b" x="623.34625" y="199.12726" style="stroke: #000000; stroke-width: 2"/>
      </g>
     </g>
     <g id="text_4">
      <!-- 1.5 -->
      <g transform="translate(610.83625 225.011323) scale(0.18 -0.18)">
       <use xlink:href="#Arial-BoldMT-31"/>
       <use xlink:href="#Arial-BoldMT-2e" x="55.615234"/>
       <use xlink:href="#Arial-BoldMT-35" x="83.398438"/>
      </g>
     </g>
    </g>
    <g id="xtick_5">
     <g id="line2d_5">
      <g>
       <use xlink:href="#m870248314b" x="793.544283" y="199.12726" style="stroke: #000000; stroke-width: 2"/>
      </g>
     </g>
     <g id="text_5">
      <!-- 2.0 -->
      <g transform="translate(781.034283 225.011323) scale(0.18 -0.18)">
       <defs>
        <path id="Arial-BoldMT-32" d="M 3238 816 
L 3238 0 
L 159 0 
Q 209 463 459 877 
Q 709 1291 1447 1975 
Q 2041 2528 2175 2725 
Q 2356 2997 2356 3263 
Q 2356 3556 2198 3714 
Q 2041 3872 1763 3872 
Q 1488 3872 1325 3706 
Q 1163 3541 1138 3156 
L 263 3244 
Q 341 3969 753 4284 
Q 1166 4600 1784 4600 
Q 2463 4600 2850 4234 
Q 3238 3869 3238 3325 
Q 3238 3016 3127 2736 
Q 3016 2456 2775 2150 
Q 2616 1947 2200 1565 
Q 1784 1184 1673 1059 
Q 1563 934 1494 816 
L 3238 816 
z
" transform="scale(0.015625)"/>
       </defs>
       <use xlink:href="#Arial-BoldMT-32"/>
       <use xlink:href="#Arial-BoldMT-2e" x="55.615234"/>
       <use xlink:href="#Arial-BoldMT-30" x="83.398438"/>
      </g>
     </g>
    </g>
    <g id="xtick_6">
     <g id="line2d_6">
      <g>
       <use xlink:href="#m870248314b" x="963.742317" y="199.12726" style="stroke: #000000; stroke-width: 2"/>
      </g>
     </g>
     <g id="text_6">
      <!-- 2.5 -->
      <g transform="translate(951.232317 225.011323) scale(0.18 -0.18)">
       <use xlink:href="#Arial-BoldMT-32"/>
       <use xlink:href="#Arial-BoldMT-2e" x="55.615234"/>
       <use xlink:href="#Arial-BoldMT-35" x="83.398438"/>
      </g>
     </g>
    </g>
    <g id="xtick_7">
     <g id="line2d_7">
      <g>
       <use xlink:href="#m870248314b" x="1133.94035" y="199.12726" style="stroke: #000000; stroke-width: 2"/>
      </g>
     </g>
     <g id="text_7">
      <!-- 3.0 -->
      <g transform="translate(1121.43035 225.011323) scale(0.18 -0.18)">
       <defs>
        <path id="Arial-BoldMT-33" d="M 241 1216 
L 1091 1319 
Q 1131 994 1309 822 
Q 1488 650 1741 650 
Q 2013 650 2198 856 
Q 2384 1063 2384 1413 
Q 2384 1744 2206 1937 
Q 2028 2131 1772 2131 
Q 1603 2131 1369 2066 
L 1466 2781 
Q 1822 2772 2009 2936 
Q 2197 3100 2197 3372 
Q 2197 3603 2059 3740 
Q 1922 3878 1694 3878 
Q 1469 3878 1309 3722 
Q 1150 3566 1116 3266 
L 306 3403 
Q 391 3819 561 4067 
Q 731 4316 1036 4458 
Q 1341 4600 1719 4600 
Q 2366 4600 2756 4188 
Q 3078 3850 3078 3425 
Q 3078 2822 2419 2463 
Q 2813 2378 3048 2084 
Q 3284 1791 3284 1375 
Q 3284 772 2843 347 
Q 2403 -78 1747 -78 
Q 1125 -78 715 280 
Q 306 638 241 1216 
z
" transform="scale(0.015625)"/>
       </defs>
       <use xlink:href="#Arial-BoldMT-33"/>
       <use xlink:href="#Arial-BoldMT-2e" x="55.615234"/>
       <use xlink:href="#Arial-BoldMT-30" x="83.398438"/>
      </g>
     </g>
    </g>
    <g id="text_8">
     <!-- Retention time / min -->
     <g transform="translate(537.345625 245.447573) scale(0.18 -0.18)">
      <defs>
       <path id="Arial-BoldMT-52" d="M 469 0 
L 469 4581 
L 2416 4581 
Q 3150 4581 3483 4457 
Q 3816 4334 4016 4018 
Q 4216 3703 4216 3297 
Q 4216 2781 3912 2445 
Q 3609 2109 3006 2022 
Q 3306 1847 3501 1637 
Q 3697 1428 4028 894 
L 4588 0 
L 3481 0 
L 2813 997 
Q 2456 1531 2325 1670 
Q 2194 1809 2047 1861 
Q 1900 1913 1581 1913 
L 1394 1913 
L 1394 0 
L 469 0 
z
M 1394 2644 
L 2078 2644 
Q 2744 2644 2909 2700 
Q 3075 2756 3169 2893 
Q 3263 3031 3263 3238 
Q 3263 3469 3139 3611 
Q 3016 3753 2791 3791 
Q 2678 3806 2116 3806 
L 1394 3806 
L 1394 2644 
z
" transform="scale(0.015625)"/>
       <path id="Arial-BoldMT-65" d="M 2381 1056 
L 3256 909 
Q 3088 428 2723 176 
Q 2359 -75 1813 -75 
Q 947 -75 531 491 
Q 203 944 203 1634 
Q 203 2459 634 2926 
Q 1066 3394 1725 3394 
Q 2466 3394 2894 2905 
Q 3322 2416 3303 1406 
L 1103 1406 
Q 1113 1016 1316 798 
Q 1519 581 1822 581 
Q 2028 581 2168 693 
Q 2309 806 2381 1056 
z
M 2431 1944 
Q 2422 2325 2234 2523 
Q 2047 2722 1778 2722 
Q 1491 2722 1303 2513 
Q 1116 2303 1119 1944 
L 2431 1944 
z
" transform="scale(0.015625)"/>
       <path id="Arial-BoldMT-74" d="M 1981 3319 
L 1981 2619 
L 1381 2619 
L 1381 1281 
Q 1381 875 1398 808 
Q 1416 741 1477 697 
Q 1538 653 1625 653 
Q 1747 653 1978 738 
L 2053 56 
Q 1747 -75 1359 -75 
Q 1122 -75 931 4 
Q 741 84 652 211 
Q 563 338 528 553 
Q 500 706 500 1172 
L 500 2619 
L 97 2619 
L 97 3319 
L 500 3319 
L 500 3978 
L 1381 4491 
L 1381 3319 
L 1981 3319 
z
" transform="scale(0.015625)"/>
       <path id="Arial-BoldMT-6e" d="M 3478 0 
L 2600 0 
L 2600 1694 
Q 2600 2231 2544 2389 
Q 2488 2547 2361 2634 
Q 2234 2722 2056 2722 
Q 1828 2722 1647 2597 
Q 1466 2472 1398 2265 
Q 1331 2059 1331 1503 
L 1331 0 
L 453 0 
L 453 3319 
L 1269 3319 
L 1269 2831 
Q 1703 3394 2363 3394 
Q 2653 3394 2893 3289 
Q 3134 3184 3257 3021 
Q 3381 2859 3429 2653 
Q 3478 2447 3478 2063 
L 3478 0 
z
" transform="scale(0.015625)"/>
       <path id="Arial-BoldMT-69" d="M 459 3769 
L 459 4581 
L 1338 4581 
L 1338 3769 
L 459 3769 
z
M 459 0 
L 459 3319 
L 1338 3319 
L 1338 0 
L 459 0 
z
" transform="scale(0.015625)"/>
       <path id="Arial-BoldMT-6f" d="M 256 1706 
Q 256 2144 472 2553 
Q 688 2963 1083 3178 
Q 1478 3394 1966 3394 
Q 2719 3394 3200 2905 
Q 3681 2416 3681 1669 
Q 3681 916 3195 420 
Q 2709 -75 1972 -75 
Q 1516 -75 1102 131 
Q 688 338 472 736 
Q 256 1134 256 1706 
z
M 1156 1659 
Q 1156 1166 1390 903 
Q 1625 641 1969 641 
Q 2313 641 2545 903 
Q 2778 1166 2778 1666 
Q 2778 2153 2545 2415 
Q 2313 2678 1969 2678 
Q 1625 2678 1390 2415 
Q 1156 2153 1156 1659 
z
" transform="scale(0.015625)"/>
       <path id="Arial-BoldMT-20" transform="scale(0.015625)"/>
       <path id="Arial-BoldMT-6d" d="M 394 3319 
L 1203 3319 
L 1203 2866 
Q 1638 3394 2238 3394 
Q 2556 3394 2790 3262 
Q 3025 3131 3175 2866 
Q 3394 3131 3647 3262 
Q 3900 3394 4188 3394 
Q 4553 3394 4806 3245 
Q 5059 3097 5184 2809 
Q 5275 2597 5275 2122 
L 5275 0 
L 4397 0 
L 4397 1897 
Q 4397 2391 4306 2534 
Q 4184 2722 3931 2722 
Q 3747 2722 3584 2609 
Q 3422 2497 3350 2280 
Q 3278 2063 3278 1594 
L 3278 0 
L 2400 0 
L 2400 1819 
Q 2400 2303 2353 2443 
Q 2306 2584 2207 2653 
Q 2109 2722 1941 2722 
Q 1738 2722 1575 2612 
Q 1413 2503 1342 2297 
Q 1272 2091 1272 1613 
L 1272 0 
L 394 0 
L 394 3319 
z
" transform="scale(0.015625)"/>
       <path id="Arial-BoldMT-2f" d="M -9 -78 
L 1125 4659 
L 1784 4659 
L 638 -78 
L -9 -78 
z
" transform="scale(0.015625)"/>
      </defs>
      <use xlink:href="#Arial-BoldMT-52"/>
      <use xlink:href="#Arial-BoldMT-65" x="72.216797"/>
      <use xlink:href="#Arial-BoldMT-74" x="127.832031"/>
      <use xlink:href="#Arial-BoldMT-65" x="161.132812"/>
      <use xlink:href="#Arial-BoldMT-6e" x="216.748047"/>
      <use xlink:href="#Arial-BoldMT-74" x="277.832031"/>
      <use xlink:href="#Arial-BoldMT-69" x="311.132812"/>
      <use xlink:href="#Arial-BoldMT-6f" x="338.916016"/>
      <use xlink:href="#Arial-BoldMT-6e" x="400"/>
      <use xlink:href="#Arial-BoldMT-20" x="461.083984"/>
      <use xlink:href="#Arial-BoldMT-74" x="488.867188"/>
      <use xlink:href="#Arial-BoldMT-69" x="522.167969"/>
      <use xlink:href="#Arial-BoldMT-6d" x="549.951172"/>
      <use xlink:href="#Arial-BoldMT-65" x="638.867188"/>
      <use xlink:href="#Arial-BoldMT-20" x="694.482422"/>
      <use xlink:href="#Arial-BoldMT-2f" x="722.265625"/>
      <use xlink:href="#Arial-BoldMT-20" x="750.048828"/>
      <use xlink:href="#Arial-BoldMT-6d" x="777.832031"/>
      <use xlink:href="#Arial-BoldMT-69" x="866.748047"/>
      <use xlink:href="#Arial-BoldMT-6e" x="894.53125"/>
     </g>
    </g>
   </g>
   <g id="matplotlib.axis_2">
    <g id="ytick_1">
     <g id="line2d_8">
      <defs>
       <path id="m29edd57b83" d="M 0 0 
L -8 0 
" style="stroke: #000000; stroke-width: 2"/>
      </defs>
      <g>
       <use xlink:href="#m29edd57b83" x="61.69274" y="165.982544" style="stroke: #000000; stroke-width: 2"/>
      </g>
     </g>
     <g id="text_9">
      <!-- 0.0 -->
      <g transform="translate(23.67274 172.424576) scale(0.18 -0.18)">
       <use xlink:href="#Arial-BoldMT-30"/>
       <use xlink:href="#Arial-BoldMT-2e" x="55.615234"/>
       <use xlink:href="#Arial-BoldMT-30" x="83.398438"/>
      </g>
     </g>
    </g>
    <g id="ytick_2">
     <g id="line2d_9">
      <g>
       <use xlink:href="#m29edd57b83" x="61.69274" y="88.948824" style="stroke: #000000; stroke-width: 2"/>
      </g>
     </g>
     <g id="text_10">
      <!-- 0.5 -->
      <g transform="translate(23.67274 95.390856) scale(0.18 -0.18)">
       <use xlink:href="#Arial-BoldMT-30"/>
       <use xlink:href="#Arial-BoldMT-2e" x="55.615234"/>
       <use xlink:href="#Arial-BoldMT-35" x="83.398438"/>
      </g>
     </g>
    </g>
    <g id="ytick_3">
     <g id="line2d_10">
      <g>
       <use xlink:href="#m29edd57b83" x="61.69274" y="11.915105" style="stroke: #000000; stroke-width: 2"/>
      </g>
     </g>
     <g id="text_11">
      <!-- 1.0 -->
      <g transform="translate(23.67274 18.357136) scale(0.18 -0.18)">
       <use xlink:href="#Arial-BoldMT-31"/>
       <use xlink:href="#Arial-BoldMT-2e" x="55.615234"/>
       <use xlink:href="#Arial-BoldMT-30" x="83.398438"/>
      </g>
     </g>
    </g>
    <g id="text_12">
     <!-- Rel. Intensity -->
     <g transform="translate(15.884303 157.071875) rotate(-90) scale(0.18 -0.18)">
      <defs>
       <path id="Arial-BoldMT-6c" d="M 459 0 
L 459 4581 
L 1338 4581 
L 1338 0 
L 459 0 
z
" transform="scale(0.015625)"/>
       <path id="Arial-BoldMT-49" d="M 438 0 
L 438 4581 
L 1363 4581 
L 1363 0 
L 438 0 
z
" transform="scale(0.015625)"/>
       <path id="Arial-BoldMT-73" d="M 150 947 
L 1031 1081 
Q 1088 825 1259 692 
Q 1431 559 1741 559 
Q 2081 559 2253 684 
Q 2369 772 2369 919 
Q 2369 1019 2306 1084 
Q 2241 1147 2013 1200 
Q 950 1434 666 1628 
Q 272 1897 272 2375 
Q 272 2806 612 3100 
Q 953 3394 1669 3394 
Q 2350 3394 2681 3172 
Q 3013 2950 3138 2516 
L 2309 2363 
Q 2256 2556 2107 2659 
Q 1959 2763 1684 2763 
Q 1338 2763 1188 2666 
Q 1088 2597 1088 2488 
Q 1088 2394 1175 2328 
Q 1294 2241 1995 2081 
Q 2697 1922 2975 1691 
Q 3250 1456 3250 1038 
Q 3250 581 2869 253 
Q 2488 -75 1741 -75 
Q 1063 -75 667 200 
Q 272 475 150 947 
z
" transform="scale(0.015625)"/>
       <path id="Arial-BoldMT-79" d="M 44 3319 
L 978 3319 
L 1772 963 
L 2547 3319 
L 3456 3319 
L 2284 125 
L 2075 -453 
Q 1959 -744 1854 -897 
Q 1750 -1050 1614 -1145 
Q 1478 -1241 1279 -1294 
Q 1081 -1347 831 -1347 
Q 578 -1347 334 -1294 
L 256 -606 
Q 463 -647 628 -647 
Q 934 -647 1081 -467 
Q 1228 -288 1306 -9 
L 44 3319 
z
" transform="scale(0.015625)"/>
      </defs>
      <use xlink:href="#Arial-BoldMT-52"/>
      <use xlink:href="#Arial-BoldMT-65" x="72.216797"/>
      <use xlink:href="#Arial-BoldMT-6c" x="127.832031"/>
      <use xlink:href="#Arial-BoldMT-2e" x="155.615234"/>
      <use xlink:href="#Arial-BoldMT-20" x="183.398438"/>
      <use xlink:href="#Arial-BoldMT-49" x="211.181641"/>
      <use xlink:href="#Arial-BoldMT-6e" x="238.964844"/>
      <use xlink:href="#Arial-BoldMT-74" x="300.048828"/>
      <use xlink:href="#Arial-BoldMT-65" x="333.349609"/>
      <use xlink:href="#Arial-BoldMT-6e" x="388.964844"/>
      <use xlink:href="#Arial-BoldMT-73" x="450.048828"/>
      <use xlink:href="#Arial-BoldMT-69" x="505.664062"/>
      <use xlink:href="#Arial-BoldMT-74" x="533.447266"/>
      <use xlink:href="#Arial-BoldMT-79" x="566.748047"/>
     </g>
    </g>
   </g>
   <g id="line2d_11">
    <path d="M 112.75215 165.887632 
L 141.402153 166.054271 
L 146.508094 166.046012 
L 159.840273 165.962642 
L 163.527899 165.946153 
L 169.201166 165.924139 
L 192.461562 165.607401 
L 193.596215 165.334192 
L 194.163541 164.820322 
L 194.447204 164.285922 
L 194.730867 163.456302 
L 195.298199 160.572241 
L 195.865525 155.7696 
L 197.000177 142.359835 
L 197.851167 133.671626 
L 198.418493 130.394116 
L 198.702156 129.609703 
L 198.985819 129.362276 
L 199.269482 129.603711 
L 199.553145 130.299173 
L 200.120472 132.951848 
L 200.687798 137.374006 
L 201.255124 143.741346 
L 202.106113 156.42809 
L 203.240776 174.159525 
L 203.808102 180.967281 
L 204.375429 185.735657 
L 204.942755 188.594457 
L 205.510081 189.935581 
L 205.793744 190.181995 
L 206.077407 190.212395 
L 206.36107 190.068547 
L 206.928397 189.388607 
L 207.779386 187.71201 
L 209.765028 182.781679 
L 211.183343 179.636262 
L 212.601659 177.04897 
L 214.303648 174.374902 
L 216.005627 172.036772 
L 217.423942 170.386518 
L 218.842258 169.068321 
L 220.260573 168.107583 
L 221.678889 167.431343 
L 223.380868 166.911252 
L 225.36652 166.555109 
L 227.635825 166.346597 
L 231.890771 166.162978 
L 245.222948 166.018044 
L 248.910579 166.162169 
L 252.314536 166.353386 
L 254.867504 166.312342 
L 262.810082 165.960709 
L 281.815531 165.890025 
L 324.081376 165.927614 
L 345.35613 166.517978 
L 362.375938 166.66781 
L 368.0492 166.539027 
L 402.088815 165.474854 
L 410.882371 165.396662 
L 446.623965 165.956356 
L 458.537836 166.238707 
L 472.437309 166.442094 
L 478.677938 166.539243 
L 488.038801 166.609668 
L 489.173453 166.38477 
L 490.024463 166.004397 
L 490.875432 165.376539 
L 491.726441 164.50245 
L 492.861094 162.999298 
L 494.279389 160.648949 
L 497.116061 155.826736 
L 497.96703 154.864923 
L 498.81804 154.260047 
L 499.669009 154.004703 
L 500.520018 154.084377 
L 501.370987 154.448619 
L 502.221997 155.059998 
L 503.356649 156.164285 
L 505.058628 158.186463 
L 508.178902 161.986645 
L 509.880881 163.612792 
L 511.299217 164.661833 
L 512.717512 165.447944 
L 514.419491 166.148163 
L 516.688796 166.776521 
L 518.958141 167.204778 
L 522.929425 167.662002 
L 526.900709 167.844255 
L 531.722961 168.028409 
L 536.828897 168.322658 
L 547.891779 168.629765 
L 554.132368 168.565156 
L 554.699694 168.385801 
L 555.26702 167.914772 
L 555.550704 167.462383 
L 555.834347 166.772018 
L 556.11803 165.760462 
L 556.685356 162.317262 
L 557.252683 156.157166 
L 557.820009 146.406786 
L 558.387335 132.712124 
L 559.238304 105.994984 
L 560.940323 49.359933 
L 561.791292 29.157288 
L 562.358619 20.097708 
L 562.925945 14.474177 
L 563.209628 12.875155 
L 563.493271 12.032396 
L 563.776955 11.915105 
L 564.060597 12.477936 
L 564.344281 13.705974 
L 564.911607 17.952223 
L 565.478933 24.395122 
L 566.329902 37.471463 
L 567.464555 59.147713 
L 569.73386 103.961624 
L 570.868512 121.930719 
L 571.719522 132.579656 
L 572.570491 140.942741 
L 573.421501 147.300385 
L 574.27247 152.027808 
L 575.123479 155.493478 
L 575.974448 158.043802 
L 576.825458 159.93458 
L 577.676427 161.32704 
L 578.81108 162.683588 
L 579.945732 163.659482 
L 581.364068 164.546138 
L 583.066047 165.295676 
L 584.768025 165.855129 
L 587.03733 166.333161 
L 590.441288 166.708026 
L 593.845245 166.862851 
L 606.042779 167.02678 
L 611.432399 166.750163 
L 613.985347 166.550779 
L 617.389304 166.55402 
L 628.168543 166.814668 
L 629.303196 166.690173 
L 629.870522 166.466114 
L 630.437848 166.052648 
L 631.288817 165.057972 
L 632.990796 162.802651 
L 633.841806 162.138714 
L 634.409132 161.935512 
L 634.976458 161.914062 
L 635.827427 162.157068 
L 636.96208 162.826386 
L 640.082394 165.0122 
L 641.50069 165.679475 
L 642.919025 166.102743 
L 644.621004 166.374982 
L 646.890309 166.462372 
L 655.400203 166.453207 
L 666.463085 166.560281 
L 668.73239 166.430088 
L 671.569021 166.149037 
L 673.838326 166.160053 
L 676.107631 166.197908 
L 678.376936 165.954838 
L 680.64624 165.723389 
L 682.915545 165.758694 
L 692.560132 166.117251 
L 696.531416 166.100661 
L 706.175962 166.269603 
L 707.310614 166.069993 
L 709.296276 165.427718 
L 710.998255 164.957627 
L 712.41655 164.830521 
L 714.118529 164.978675 
L 724.046758 166.294383 
L 730.854673 166.436094 
L 732.273009 166.259703 
L 735.10964 165.796399 
L 736.811619 165.769093 
L 738.797241 165.998411 
L 742.768524 166.542425 
L 743.903177 166.439167 
L 744.754186 166.163307 
L 746.172482 165.402768 
L 747.590818 164.732673 
L 749.292796 164.293793 
L 751.845785 163.811452 
L 752.980437 163.911313 
L 754.682416 164.335989 
L 760.071995 165.96775 
L 762.3413 166.290386 
L 767.163593 166.48796 
L 768.865572 166.36646 
L 773.120539 165.661519 
L 774.822518 165.758992 
L 779.928454 166.340796 
L 781.914075 166.29408 
L 783.899737 166.029662 
L 785.885359 165.497285 
L 787.587338 165.077116 
L 789.005673 164.950445 
L 790.423969 165.090385 
L 792.125947 165.478844 
L 795.246303 166.226559 
L 796.948241 166.368902 
L 802.905146 166.487716 
L 810.56407 166.9153 
L 815.10268 167.09806 
L 815.670047 166.89478 
L 815.95369 166.65969 
L 816.237333 166.262682 
L 816.521057 165.618859 
L 816.8047 164.627939 
L 817.088342 163.15736 
L 817.655709 158.165288 
L 818.222995 149.503368 
L 818.790362 136.578758 
L 819.64129 110.697397 
L 821.059667 66.375021 
L 821.910595 47.703309 
L 822.477962 39.468 
L 823.045248 34.535881 
L 823.328972 33.298614 
L 823.612614 32.867636 
L 823.896257 33.215423 
L 824.1799 34.334331 
L 824.747267 38.602918 
L 825.314553 45.186966 
L 826.165562 58.133765 
L 829.56952 114.770097 
L 830.704172 128.137009 
L 831.555182 135.886774 
L 832.406191 141.994496 
L 833.25712 146.733086 
L 834.10813 150.41531 
L 834.959139 153.3159 
L 836.093792 156.285013 
L 837.228444 158.497474 
L 838.363097 160.179226 
L 839.497749 161.452018 
L 840.632402 162.394009 
L 841.483411 162.856176 
L 842.334421 163.059103 
L 843.185349 162.968723 
L 844.320002 162.536818 
L 845.454654 162.13904 
L 846.305664 162.034269 
L 847.156674 162.114666 
L 848.291326 162.454 
L 849.993264 163.254455 
L 853.113579 164.750265 
L 854.815598 165.283051 
L 856.801179 165.60263 
L 861.056146 165.94945 
L 862.474523 165.803044 
L 864.176461 165.349397 
L 866.445766 164.740593 
L 867.580418 164.644925 
L 868.998713 164.778572 
L 870.700733 165.179615 
L 874.10469 166.029206 
L 875.522985 166.189826 
L 878.6433 166.244794 
L 884.883929 166.094807 
L 890.840834 166.527828 
L 900.201697 166.740283 
L 909.278917 166.95902 
L 910.697293 166.730845 
L 912.399231 166.180256 
L 913.817527 165.760131 
L 914.952179 165.646834 
L 916.370556 165.755602 
L 919.207146 166.27714 
L 921.192808 166.526541 
L 927.149714 166.794453 
L 930.270028 166.97825 
L 937.64531 167.159769 
L 938.779962 166.945362 
L 940.198258 166.428707 
L 942.467563 165.521331 
L 943.602215 165.352881 
L 945.02051 165.435638 
L 949.275477 165.881299 
L 951.828425 166.292844 
L 952.963078 166.383931 
L 953.530444 166.174612 
L 953.814087 165.902241 
L 954.09773 165.439804 
L 954.381454 164.712994 
L 954.665097 163.635374 
L 955.232383 160.033551 
L 955.799749 153.965668 
L 956.367035 145.253496 
L 957.785411 117.292862 
L 958.63634 102.952568 
L 959.203707 96.386474 
L 959.770992 92.471465 
L 960.054716 91.476411 
L 960.338359 91.071875 
L 960.622002 91.224467 
L 960.905645 91.887258 
L 961.473012 94.581073 
L 962.040297 98.776956 
L 962.891307 106.97835 
L 965.444336 133.572773 
L 966.295264 140.318012 
L 967.146274 145.648067 
L 967.997284 149.789017 
L 968.848293 152.992447 
L 969.699222 155.490138 
L 970.833874 158.051919 
L 971.968527 159.986476 
L 972.819536 161.038229 
L 973.670546 161.667357 
L 974.521556 161.966904 
L 977.358146 162.622965 
L 978.492799 163.164741 
L 981.329471 164.976277 
L 982.747766 165.762593 
L 984.166061 166.310525 
L 985.86808 166.730456 
L 992.675995 167.788033 
L 993.527005 167.722459 
L 994.094291 167.411776 
L 994.661657 166.767939 
L 995.228943 165.756253 
L 996.647238 162.365969 
L 997.498248 160.658896 
L 998.065615 159.898291 
L 998.632901 159.474221 
L 999.200267 159.365881 
L 999.767553 159.53043 
L 1000.33492 159.910048 
L 1001.185848 160.804299 
L 1002.604225 162.763522 
L 1004.306163 165.026103 
L 1005.440815 166.175135 
L 1006.575468 167.012909 
L 1007.993844 167.716423 
L 1009.41214 168.154583 
L 1011.681445 168.595476 
L 1014.518035 168.903439 
L 1021.609674 169.287556 
L 1025.297274 169.249784 
L 1026.71557 169.02502 
L 1027.566579 168.715521 
L 1028.984874 167.923371 
L 1030.686894 166.750492 
L 1031.821546 165.598984 
L 1033.239842 164.061242 
L 1034.374494 163.20055 
L 1035.509146 162.647878 
L 1037.494809 161.779032 
L 1038.913104 160.846296 
L 1040.047756 160.114103 
L 1040.898766 159.820342 
L 1041.749776 159.826395 
L 1042.600704 160.148697 
L 1043.451714 160.718417 
L 1045.153733 162.240909 
L 1046.855671 163.714472 
L 1047.990324 164.437057 
L 1049.124976 164.955139 
L 1050.259629 165.219601 
L 1051.394281 165.225097 
L 1054.798239 165.030807 
L 1056.500258 165.27759 
L 1060.187858 166.188386 
L 1062.740806 166.752014 
L 1064.726468 166.987971 
L 1066.995773 167.015215 
L 1069.265078 166.750612 
L 1071.25074 166.549188 
L 1073.520045 166.55752 
L 1078.626022 166.71908 
L 1080.611603 166.385805 
L 1082.313622 166.15915 
L 1084.582927 166.218187 
L 1086.852232 166.258721 
L 1088.837894 166.038332 
L 1091.107199 165.787022 
L 1093.376504 165.719859 
L 1096.496818 165.67254 
L 1098.482399 165.431133 
L 1102.453724 164.759553 
L 1105.574038 163.905682 
L 1107.275976 163.578202 
L 1108.977996 163.512359 
L 1113.516605 163.710502 
L 1115.78591 163.626838 
L 1117.487849 163.912466 
L 1119.473511 164.530638 
L 1123.728478 165.886131 
L 1125.71414 166.191826 
L 1127.699721 166.267339 
L 1133.656707 166.330208 
L 1133.656707 166.330208 
" clip-path="url(#p4410804a47)" style="fill: none; stroke: #000000; stroke-width: 2.5; stroke-linecap: square"/>
   </g>
   <g id="line2d_12">
    <path d="M 248.910577 199.12726 
L 248.910577 3.00024 
" clip-path="url(#p4410804a47)" style="fill: none; stroke: #d55e00; stroke-width: 2; stroke-linecap: square"/>
   </g>
   <g id="line2d_13">
    <path d="M 1133.94035 199.12726 
L 1133.94035 3.00024 
" clip-path="url(#p4410804a47)" style="fill: none; stroke: #d55e00; stroke-width: 2; stroke-linecap: square"/>
   </g>
   <g id="patch_3">
    <path d="M 61.69274 199.12726 
L 61.69274 3.00024 
" style="fill: none; stroke: #000000; stroke-width: 2; stroke-linejoin: miter; stroke-linecap: square"/>
   </g>
   <g id="patch_4">
    <path d="M 1184.99976 199.12726 
L 1184.99976 3.00024 
" style="fill: none; stroke: #000000; stroke-width: 2; stroke-linejoin: miter; stroke-linecap: square"/>
   </g>
   <g id="patch_5">
    <path d="M 61.69274 199.12726 
L 1184.99976 199.12726 
" style="fill: none; stroke: #000000; stroke-width: 2; stroke-linejoin: miter; stroke-linecap: square"/>
   </g>
   <g id="patch_6">
    <path d="M 61.69274 3.00024 
L 1184.99976 3.00024 
" style="fill: none; stroke: #000000; stroke-width: 2; stroke-linejoin: miter; stroke-linecap: square"/>
   </g>
   <g id="text_13">
    <!-- ANALYSIS -->
    <g style="fill: #d55e00" transform="translate(242.547644 126.171429) rotate(-90) scale(0.14994 -0.14994)">
     <defs>
      <path id="Arial-BoldMT-41" d="M 4597 0 
L 3591 0 
L 3191 1041 
L 1359 1041 
L 981 0 
L 0 0 
L 1784 4581 
L 2763 4581 
L 4597 0 
z
M 2894 1813 
L 2263 3513 
L 1644 1813 
L 2894 1813 
z
" transform="scale(0.015625)"/>
      <path id="Arial-BoldMT-4e" d="M 475 0 
L 475 4581 
L 1375 4581 
L 3250 1522 
L 3250 4581 
L 4109 4581 
L 4109 0 
L 3181 0 
L 1334 2988 
L 1334 0 
L 475 0 
z
" transform="scale(0.015625)"/>
      <path id="Arial-BoldMT-4c" d="M 491 0 
L 491 4544 
L 1416 4544 
L 1416 772 
L 3716 772 
L 3716 0 
L 491 0 
z
" transform="scale(0.015625)"/>
      <path id="Arial-BoldMT-59" d="M 1669 0 
L 1669 1928 
L -9 4581 
L 1075 4581 
L 2153 2769 
L 3209 4581 
L 4275 4581 
L 2591 1922 
L 2591 0 
L 1669 0 
z
" transform="scale(0.015625)"/>
      <path id="Arial-BoldMT-53" d="M 231 1491 
L 1131 1578 
Q 1213 1125 1461 912 
Q 1709 700 2131 700 
Q 2578 700 2804 889 
Q 3031 1078 3031 1331 
Q 3031 1494 2936 1608 
Q 2841 1722 2603 1806 
Q 2441 1863 1863 2006 
Q 1119 2191 819 2459 
Q 397 2838 397 3381 
Q 397 3731 595 4036 
Q 794 4341 1167 4500 
Q 1541 4659 2069 4659 
Q 2931 4659 3367 4281 
Q 3803 3903 3825 3272 
L 2900 3231 
Q 2841 3584 2645 3739 
Q 2450 3894 2059 3894 
Q 1656 3894 1428 3728 
Q 1281 3622 1281 3444 
Q 1281 3281 1419 3166 
Q 1594 3019 2269 2859 
Q 2944 2700 3267 2529 
Q 3591 2359 3773 2064 
Q 3956 1769 3956 1334 
Q 3956 941 3737 597 
Q 3519 253 3119 86 
Q 2719 -81 2122 -81 
Q 1253 -81 787 320 
Q 322 722 231 1491 
z
" transform="scale(0.015625)"/>
     </defs>
     <use xlink:href="#Arial-BoldMT-41"/>
     <use xlink:href="#Arial-BoldMT-4e" x="72.216797"/>
     <use xlink:href="#Arial-BoldMT-41" x="144.433594"/>
     <use xlink:href="#Arial-BoldMT-4c" x="216.650391"/>
     <use xlink:href="#Arial-BoldMT-59" x="268.609375"/>
     <use xlink:href="#Arial-BoldMT-53" x="335.308594"/>
     <use xlink:href="#Arial-BoldMT-49" x="402.007812"/>
     <use xlink:href="#Arial-BoldMT-53" x="429.791016"/>
    </g>
   </g>
   <g id="text_14">
    <!-- START -->
    <g style="fill: #d55e00" transform="translate(266.450922 113.383187) rotate(-90) scale(0.14994 -0.14994)">
     <defs>
      <path id="Arial-BoldMT-54" d="M 1497 0 
L 1497 3806 
L 138 3806 
L 138 4581 
L 3778 4581 
L 3778 3806 
L 2422 3806 
L 2422 0 
L 1497 0 
z
" transform="scale(0.015625)"/>
     </defs>
     <use xlink:href="#Arial-BoldMT-53"/>
     <use xlink:href="#Arial-BoldMT-54" x="66.699219"/>
     <use xlink:href="#Arial-BoldMT-41" x="120.408203"/>
     <use xlink:href="#Arial-BoldMT-52" x="192.625"/>
     <use xlink:href="#Arial-BoldMT-54" x="264.841797"/>
    </g>
   </g>
   <g id="text_15">
    <!-- ANALYSIS -->
    <g style="fill: #d55e00" transform="translate(1127.577417 126.171429) rotate(-90) scale(0.14994 -0.14994)">
     <use xlink:href="#Arial-BoldMT-41"/>
     <use xlink:href="#Arial-BoldMT-4e" x="72.216797"/>
     <use xlink:href="#Arial-BoldMT-41" x="144.433594"/>
     <use xlink:href="#Arial-BoldMT-4c" x="216.650391"/>
     <use xlink:href="#Arial-BoldMT-59" x="268.609375"/>
     <use xlink:href="#Arial-BoldMT-53" x="335.308594"/>
     <use xlink:href="#Arial-BoldMT-49" x="402.007812"/>
     <use xlink:href="#Arial-BoldMT-53" x="429.791016"/>
    </g>
   </g>
   <g id="text_16">
    <!-- END -->
    <g style="fill: #d55e00" transform="translate(1151.480695 104.778037) rotate(-90) scale(0.14994 -0.14994)">
     <defs>
      <path id="Arial-BoldMT-45" d="M 466 0 
L 466 4581 
L 3863 4581 
L 3863 3806 
L 1391 3806 
L 1391 2791 
L 3691 2791 
L 3691 2019 
L 1391 2019 
L 1391 772 
L 3950 772 
L 3950 0 
L 466 0 
z
" transform="scale(0.015625)"/>
      <path id="Arial-BoldMT-44" d="M 463 4581 
L 2153 4581 
Q 2725 4581 3025 4494 
Q 3428 4375 3715 4072 
Q 4003 3769 4153 3330 
Q 4303 2891 4303 2247 
Q 4303 1681 4163 1272 
Q 3991 772 3672 463 
Q 3431 228 3022 97 
Q 2716 0 2203 0 
L 463 0 
L 463 4581 
z
M 1388 3806 
L 1388 772 
L 2078 772 
Q 2466 772 2638 816 
Q 2863 872 3011 1006 
Q 3159 1141 3253 1448 
Q 3347 1756 3347 2288 
Q 3347 2819 3253 3103 
Q 3159 3388 2990 3547 
Q 2822 3706 2563 3763 
Q 2369 3806 1803 3806 
L 1388 3806 
z
" transform="scale(0.015625)"/>
     </defs>
     <use xlink:href="#Arial-BoldMT-45"/>
     <use xlink:href="#Arial-BoldMT-4e" x="66.699219"/>
     <use xlink:href="#Arial-BoldMT-44" x="138.916016"/>
    </g>
   </g>
  </g>
 </g>
 <defs>
  <clipPath id="p4410804a47">
   <rect x="61.69274" y="3.00024" width="1123.30702" height="196.12702"/>
  </clipPath>
 </defs>
</svg>
