<?xml version="1.0" encoding="utf-8" standalone="no"?>
<!DOCTYPE svg PUBLIC "-//W3C//DTD SVG 1.1//EN"
  "http://www.w3.org/Graphics/SVG/1.1/DTD/svg11.dtd">
<svg xmlns:xlink="http://www.w3.org/1999/xlink" width="1188pt" height="252pt" viewBox="0 0 1188 252" xmlns="http://www.w3.org/2000/svg" version="1.1">
 <metadata>
  <rdf:RDF xmlns:dc="http://purl.org/dc/elements/1.1/" xmlns:cc="http://creativecommons.org/ns#" xmlns:rdf="http://www.w3.org/1999/02/22-rdf-syntax-ns#">
   <cc:Work>
    <dc:type rdf:resource="http://purl.org/dc/dcmitype/StillImage"/>
    <dc:date>2024-05-14T22:49:50.309988</dc:date>
    <dc:format>image/svg+xml</dc:format>
    <dc:creator>
     <cc:Agent>
      <dc:title>Matplotlib v3.8.0, https://matplotlib.org/</dc:title>
     </cc:Agent>
    </dc:creator>
   </cc:Work>
  </rdf:RDF>
 </metadata>
 <defs>
  <style type="text/css">*{stroke-linejoin: round; stroke-linecap: butt}</style>
 </defs>
 <g id="figure_1">
  <g id="patch_1">
   <path d="M 0 252 
L 1188 252 
L 1188 0 
L 0 0 
z
" style="fill: #ffffff"/>
  </g>
  <g id="axes_1">
   <g id="patch_2">
    <path d="M 61.69274 199.12726 
L 1184.99976 199.12726 
L 1184.99976 3.00024 
L 61.69274 3.00024 
z
" style="fill: #ffffff"/>
   </g>
   <g id="PolyCollection_1">
    <path d="M 714.402212 174.447634 
L 714.402212 173.567277 
L 714.685855 173.567277 
L 714.969539 173.567277 
L 715.253182 173.567277 
L 715.536865 173.567277 
L 715.820508 173.567277 
L 716.104191 173.567277 
L 716.387834 173.567277 
L 716.671517 173.567277 
L 716.95516 173.567277 
L 717.238844 173.567277 
L 717.522486 173.567277 
L 717.80617 173.567277 
L 718.089813 173.567277 
L 718.373496 173.567277 
L 718.657139 173.567277 
L 718.940822 173.567277 
L 719.224465 173.567277 
L 719.508149 173.567277 
L 719.791791 173.567277 
L 720.075475 173.567277 
L 720.359118 173.567277 
L 720.642801 173.567277 
L 720.926444 173.567277 
L 721.210127 173.567277 
L 721.49377 173.567277 
L 721.777454 173.567277 
L 722.061096 173.567277 
L 722.34478 173.567277 
L 722.628423 173.567277 
L 722.912106 173.567277 
L 723.195749 173.567277 
L 723.479432 173.567277 
L 723.763075 173.567277 
L 724.046758 173.567277 
L 724.330401 173.567277 
L 724.614085 173.567277 
L 724.897728 173.567277 
L 725.181411 173.567277 
L 725.465054 173.567277 
L 725.748737 173.567277 
L 726.03238 173.567277 
L 726.316063 173.567277 
L 726.599706 173.567277 
L 726.88339 173.567277 
L 727.167032 173.567277 
L 727.450716 173.567277 
L 727.734359 173.567277 
L 728.018042 173.567277 
L 728.301685 173.567277 
L 728.585368 173.567277 
L 728.869011 173.567277 
L 729.152695 173.567277 
L 729.436337 173.567277 
L 729.720021 173.567277 
L 730.003704 173.567277 
L 730.287347 173.567277 
L 730.57103 173.567277 
L 730.854673 173.567277 
L 731.138357 173.567277 
L 731.422 173.567277 
L 731.705683 173.567277 
L 731.989326 173.567277 
L 732.273009 173.567277 
L 732.556652 173.567277 
L 732.840335 173.567277 
L 733.123978 173.567277 
L 733.407662 173.567277 
L 733.691304 173.567277 
L 733.974988 173.567277 
L 734.258631 173.567277 
L 734.542314 173.567277 
L 734.825957 173.567277 
L 735.10964 173.567277 
L 735.393283 173.567277 
L 735.676967 173.567277 
L 735.960609 173.567277 
L 736.244293 173.567277 
L 736.527936 173.567277 
L 736.811619 173.567277 
L 737.095262 173.567277 
L 737.378945 173.567277 
L 737.662588 173.567277 
L 737.946272 173.567277 
L 738.229914 173.567277 
L 738.513598 173.567277 
L 738.797241 173.567277 
L 738.797241 173.008877 
L 738.797241 173.008877 
L 738.513598 172.61004 
L 738.229914 172.193389 
L 737.946272 171.756158 
L 737.662588 171.298529 
L 737.378945 170.81868 
L 737.095262 170.31176 
L 736.811619 169.779737 
L 736.527936 169.219755 
L 736.244293 168.63179 
L 735.960609 168.013426 
L 735.676967 167.364234 
L 735.393283 166.676254 
L 735.10964 165.950597 
L 734.825957 165.182518 
L 734.542314 164.369899 
L 734.258631 163.510339 
L 733.974988 162.604298 
L 733.691304 161.643615 
L 733.407662 160.629359 
L 733.123978 159.551661 
L 732.840335 158.403153 
L 732.556652 157.174341 
L 732.273009 155.859677 
L 731.989326 154.440214 
L 731.705683 152.907828 
L 731.422 151.250169 
L 731.138357 149.449064 
L 730.854673 147.483094 
L 730.57103 145.33291 
L 730.287347 142.973756 
L 730.003704 140.364604 
L 729.720021 137.478958 
L 729.436337 134.277226 
L 729.152695 130.71989 
L 728.869011 126.769918 
L 728.585368 122.397334 
L 728.301685 117.565774 
L 728.018042 112.260998 
L 727.734359 106.48235 
L 727.450716 100.23877 
L 727.167032 93.597053 
L 726.88339 86.619848 
L 726.599706 79.47458 
L 726.316063 72.318208 
L 726.03238 65.331912 
L 725.748737 58.720591 
L 725.465054 52.662593 
L 725.181411 47.229163 
L 724.897728 42.58981 
L 724.614085 38.745898 
L 724.330401 35.614438 
L 724.046758 33.206064 
L 723.763075 31.426852 
L 723.479432 30.007724 
L 723.195749 28.938648 
L 722.912106 28.178547 
L 722.628423 27.600399 
L 722.34478 27.13906 
L 722.061096 26.901837 
L 721.777454 26.760962 
L 721.49377 26.647626 
L 721.210127 26.530564 
L 720.926444 26.489642 
L 720.642801 26.385047 
L 720.359118 26.299141 
L 720.075475 26.287023 
L 719.791791 26.357256 
L 719.508149 26.434288 
L 719.224465 26.622209 
L 718.940822 26.923298 
L 718.657139 27.389388 
L 718.373496 28.264092 
L 718.089813 29.97728 
L 717.80617 33.143163 
L 717.522486 38.552576 
L 717.238844 46.922961 
L 716.95516 58.59304 
L 716.671517 73.375902 
L 716.387834 90.406254 
L 716.104191 108.292839 
L 715.820508 125.529053 
L 715.536865 140.840192 
L 715.253182 153.40778 
L 714.969539 162.997067 
L 714.685855 169.84467 
L 714.402212 174.447634 
z
" clip-path="url(#pb24b4fc563)" style="fill: #d55e00"/>
   </g>
   <g id="PolyCollection_2">
    <path d="M 803.18887 178.735519 
L 803.18887 178.869448 
L 803.472513 178.869448 
L 803.756156 178.869448 
L 804.039798 178.869448 
L 804.323522 178.869448 
L 804.607165 178.869448 
L 804.890808 178.869448 
L 805.174451 178.869448 
L 805.458175 178.869448 
L 805.741818 178.869448 
L 806.025461 178.869448 
L 806.309103 178.869448 
L 806.592827 178.869448 
L 806.87647 178.869448 
L 807.160113 178.869448 
L 807.443756 178.869448 
L 807.72748 178.869448 
L 808.011123 178.869448 
L 808.294765 178.869448 
L 808.578408 178.869448 
L 808.862132 178.869448 
L 809.145775 178.869448 
L 809.429418 178.869448 
L 809.713061 178.869448 
L 809.996785 178.869448 
L 810.280428 178.869448 
L 810.56407 178.869448 
L 810.847713 178.869448 
L 811.131437 178.869448 
L 811.41508 178.869448 
L 811.698723 178.869448 
L 811.982366 178.869448 
L 812.26609 178.869448 
L 812.549733 178.869448 
L 812.833375 178.869448 
L 813.117018 178.869448 
L 813.400742 178.869448 
L 813.684385 178.869448 
L 813.968028 178.869448 
L 814.251671 178.869448 
L 814.535395 178.869448 
L 814.819038 178.869448 
L 815.10268 178.869448 
L 815.386404 178.869448 
L 815.670047 178.869448 
L 815.95369 178.869448 
L 816.237333 178.869448 
L 816.521057 178.869448 
L 816.8047 178.869448 
L 817.088342 178.869448 
L 817.371985 178.869448 
L 817.655709 178.869448 
L 817.939352 178.869448 
L 818.222995 178.869448 
L 818.506638 178.869448 
L 818.790362 178.869448 
L 819.074005 178.869448 
L 819.357647 178.869448 
L 819.64129 178.869448 
L 819.925014 178.869448 
L 820.208657 178.869448 
L 820.4923 178.869448 
L 820.775943 178.869448 
L 821.059667 178.869448 
L 821.34331 178.869448 
L 821.626952 178.869448 
L 821.910595 178.869448 
L 822.194319 178.869448 
L 822.477962 178.869448 
L 822.761605 178.869448 
L 823.045248 178.869448 
L 823.328972 178.869448 
L 823.612614 178.869448 
L 823.896257 178.869448 
L 824.1799 178.869448 
L 824.463624 178.869448 
L 824.747267 178.869448 
L 825.03091 178.869448 
L 825.314553 178.869448 
L 825.598277 178.869448 
L 825.598277 178.735136 
L 825.598277 178.735136 
L 825.314553 178.583002 
L 825.03091 178.429032 
L 824.747267 178.272182 
L 824.463624 178.112598 
L 824.1799 177.951649 
L 823.896257 177.790898 
L 823.612614 177.630269 
L 823.328972 177.472846 
L 823.045248 177.320947 
L 822.761605 177.175059 
L 822.477962 177.036316 
L 822.194319 176.904965 
L 821.910595 176.780178 
L 821.626952 176.660467 
L 821.34331 176.544878 
L 821.059667 176.43022 
L 820.775943 176.315987 
L 820.4923 176.200834 
L 820.208657 176.080581 
L 819.925014 175.953471 
L 819.64129 175.815627 
L 819.357647 175.660975 
L 819.074005 175.48132 
L 818.790362 175.272681 
L 818.506638 175.024584 
L 818.222995 174.73233 
L 817.939352 174.387014 
L 817.655709 173.985203 
L 817.371985 173.516963 
L 817.088342 172.97853 
L 816.8047 172.361589 
L 816.521057 171.666448 
L 816.237333 170.883164 
L 815.95369 170.010403 
L 815.670047 169.044711 
L 815.386404 167.9829 
L 815.10268 166.812961 
L 814.819038 165.536987 
L 814.535395 164.149366 
L 814.251671 162.648983 
L 813.968028 161.031594 
L 813.684385 159.306025 
L 813.400742 157.470811 
L 813.117018 155.538187 
L 812.833375 153.510407 
L 812.549733 151.410437 
L 812.26609 149.253956 
L 811.982366 147.066848 
L 811.698723 144.865445 
L 811.41508 142.68898 
L 811.131437 140.5597 
L 810.847713 138.505101 
L 810.56407 136.55425 
L 810.280428 134.749525 
L 809.996785 133.114603 
L 809.713061 131.688162 
L 809.429418 130.505412 
L 809.145775 129.598541 
L 808.862132 128.992878 
L 808.578408 128.721673 
L 808.294765 128.811052 
L 808.011123 129.289331 
L 807.72748 130.189511 
L 807.443756 131.535788 
L 807.160113 133.350575 
L 806.87647 135.641606 
L 806.592827 138.411692 
L 806.309103 141.632212 
L 806.025461 145.256172 
L 805.741818 149.20177 
L 805.458175 153.365194 
L 805.174451 157.603934 
L 804.890808 161.77087 
L 804.607165 165.71602 
L 804.323522 169.306403 
L 804.039798 172.438526 
L 803.756156 175.056413 
L 803.472513 177.145619 
L 803.18887 178.735519 
z
" clip-path="url(#pb24b4fc563)" style="fill: #0072b2"/>
   </g>
   <g id="PathCollection_1">
    <defs>
     <path id="m10e88cd2cc" d="M 0 -6.708204 
L -1.506086 -2.072949 
L -6.379881 -2.072949 
L -2.436898 0.791796 
L -3.942983 5.427051 
L -0 2.562306 
L 3.942983 5.427051 
L 2.436898 0.791796 
L 6.379881 -2.072949 
L 1.506086 -2.072949 
z
" style="stroke: #000000; stroke-width: 1.5"/>
    </defs>
    <g clip-path="url(#pb24b4fc563)">
     <use xlink:href="#m10e88cd2cc" x="718.657149" y="11.915105" style="stroke: #000000; stroke-width: 1.5"/>
    </g>
   </g>
   <g id="matplotlib.axis_1">
    <g id="xtick_1">
     <g id="line2d_1">
      <defs>
       <path id="ma481f3a94c" d="M 0 0 
L 0 8 
" style="stroke: #000000; stroke-width: 2"/>
      </defs>
      <g>
       <use xlink:href="#ma481f3a94c" x="112.75215" y="199.12726" style="stroke: #000000; stroke-width: 2"/>
      </g>
     </g>
     <g id="text_1">
      <!-- 0.0 -->
      <g transform="translate(100.24215 225.011323) scale(0.18 -0.18)">
       <defs>
        <path id="Arial-BoldMT-30" d="M 1756 4600 
Q 2422 4600 2797 4125 
Q 3244 3563 3244 2259 
Q 3244 959 2794 391 
Q 2422 -78 1756 -78 
Q 1088 -78 678 436 
Q 269 950 269 2269 
Q 269 3563 719 4131 
Q 1091 4600 1756 4600 
z
M 1756 3872 
Q 1597 3872 1472 3770 
Q 1347 3669 1278 3406 
Q 1188 3066 1188 2259 
Q 1188 1453 1269 1151 
Q 1350 850 1473 750 
Q 1597 650 1756 650 
Q 1916 650 2041 751 
Q 2166 853 2234 1116 
Q 2325 1453 2325 2259 
Q 2325 3066 2244 3367 
Q 2163 3669 2039 3770 
Q 1916 3872 1756 3872 
z
" transform="scale(0.015625)"/>
        <path id="Arial-BoldMT-2e" d="M 459 0 
L 459 878 
L 1338 878 
L 1338 0 
L 459 0 
z
" transform="scale(0.015625)"/>
       </defs>
       <use xlink:href="#Arial-BoldMT-30"/>
       <use xlink:href="#Arial-BoldMT-2e" x="55.615234"/>
       <use xlink:href="#Arial-BoldMT-30" x="83.398438"/>
      </g>
     </g>
    </g>
    <g id="xtick_2">
     <g id="line2d_2">
      <g>
       <use xlink:href="#ma481f3a94c" x="282.950183" y="199.12726" style="stroke: #000000; stroke-width: 2"/>
      </g>
     </g>
     <g id="text_2">
      <!-- 0.5 -->
      <g transform="translate(270.440183 225.011323) scale(0.18 -0.18)">
       <defs>
        <path id="Arial-BoldMT-35" d="M 284 1178 
L 1159 1269 
Q 1197 972 1381 798 
Q 1566 625 1806 625 
Q 2081 625 2272 848 
Q 2463 1072 2463 1522 
Q 2463 1944 2273 2155 
Q 2084 2366 1781 2366 
Q 1403 2366 1103 2031 
L 391 2134 
L 841 4519 
L 3163 4519 
L 3163 3697 
L 1506 3697 
L 1369 2919 
Q 1663 3066 1969 3066 
Q 2553 3066 2959 2641 
Q 3366 2216 3366 1538 
Q 3366 972 3038 528 
Q 2591 -78 1797 -78 
Q 1163 -78 763 262 
Q 363 603 284 1178 
z
" transform="scale(0.015625)"/>
       </defs>
       <use xlink:href="#Arial-BoldMT-30"/>
       <use xlink:href="#Arial-BoldMT-2e" x="55.615234"/>
       <use xlink:href="#Arial-BoldMT-35" x="83.398438"/>
      </g>
     </g>
    </g>
    <g id="xtick_3">
     <g id="line2d_3">
      <g>
       <use xlink:href="#ma481f3a94c" x="453.148217" y="199.12726" style="stroke: #000000; stroke-width: 2"/>
      </g>
     </g>
     <g id="text_3">
      <!-- 1.0 -->
      <g transform="translate(440.638217 225.011323) scale(0.18 -0.18)">
       <defs>
        <path id="Arial-BoldMT-31" d="M 2519 0 
L 1641 0 
L 1641 3309 
Q 1159 2859 506 2644 
L 506 3441 
Q 850 3553 1253 3867 
Q 1656 4181 1806 4600 
L 2519 4600 
L 2519 0 
z
" transform="scale(0.015625)"/>
       </defs>
       <use xlink:href="#Arial-BoldMT-31"/>
       <use xlink:href="#Arial-BoldMT-2e" x="55.615234"/>
       <use xlink:href="#Arial-BoldMT-30" x="83.398438"/>
      </g>
     </g>
    </g>
    <g id="xtick_4">
     <g id="line2d_4">
      <g>
       <use xlink:href="#ma481f3a94c" x="623.34625" y="199.12726" style="stroke: #000000; stroke-width: 2"/>
      </g>
     </g>
     <g id="text_4">
      <!-- 1.5 -->
      <g transform="translate(610.83625 225.011323) scale(0.18 -0.18)">
       <use xlink:href="#Arial-BoldMT-31"/>
       <use xlink:href="#Arial-BoldMT-2e" x="55.615234"/>
       <use xlink:href="#Arial-BoldMT-35" x="83.398438"/>
      </g>
     </g>
    </g>
    <g id="xtick_5">
     <g id="line2d_5">
      <g>
       <use xlink:href="#ma481f3a94c" x="793.544283" y="199.12726" style="stroke: #000000; stroke-width: 2"/>
      </g>
     </g>
     <g id="text_5">
      <!-- 2.0 -->
      <g transform="translate(781.034283 225.011323) scale(0.18 -0.18)">
       <defs>
        <path id="Arial-BoldMT-32" d="M 3238 816 
L 3238 0 
L 159 0 
Q 209 463 459 877 
Q 709 1291 1447 1975 
Q 2041 2528 2175 2725 
Q 2356 2997 2356 3263 
Q 2356 3556 2198 3714 
Q 2041 3872 1763 3872 
Q 1488 3872 1325 3706 
Q 1163 3541 1138 3156 
L 263 3244 
Q 341 3969 753 4284 
Q 1166 4600 1784 4600 
Q 2463 4600 2850 4234 
Q 3238 3869 3238 3325 
Q 3238 3016 3127 2736 
Q 3016 2456 2775 2150 
Q 2616 1947 2200 1565 
Q 1784 1184 1673 1059 
Q 1563 934 1494 816 
L 3238 816 
z
" transform="scale(0.015625)"/>
       </defs>
       <use xlink:href="#Arial-BoldMT-32"/>
       <use xlink:href="#Arial-BoldMT-2e" x="55.615234"/>
       <use xlink:href="#Arial-BoldMT-30" x="83.398438"/>
      </g>
     </g>
    </g>
    <g id="xtick_6">
     <g id="line2d_6">
      <g>
       <use xlink:href="#ma481f3a94c" x="963.742317" y="199.12726" style="stroke: #000000; stroke-width: 2"/>
      </g>
     </g>
     <g id="text_6">
      <!-- 2.5 -->
      <g transform="translate(951.232317 225.011323) scale(0.18 -0.18)">
       <use xlink:href="#Arial-BoldMT-32"/>
       <use xlink:href="#Arial-BoldMT-2e" x="55.615234"/>
       <use xlink:href="#Arial-BoldMT-35" x="83.398438"/>
      </g>
     </g>
    </g>
    <g id="xtick_7">
     <g id="line2d_7">
      <g>
       <use xlink:href="#ma481f3a94c" x="1133.94035" y="199.12726" style="stroke: #000000; stroke-width: 2"/>
      </g>
     </g>
     <g id="text_7">
      <!-- 3.0 -->
      <g transform="translate(1121.43035 225.011323) scale(0.18 -0.18)">
       <defs>
        <path id="Arial-BoldMT-33" d="M 241 1216 
L 1091 1319 
Q 1131 994 1309 822 
Q 1488 650 1741 650 
Q 2013 650 2198 856 
Q 2384 1063 2384 1413 
Q 2384 1744 2206 1937 
Q 2028 2131 1772 2131 
Q 1603 2131 1369 2066 
L 1466 2781 
Q 1822 2772 2009 2936 
Q 2197 3100 2197 3372 
Q 2197 3603 2059 3740 
Q 1922 3878 1694 3878 
Q 1469 3878 1309 3722 
Q 1150 3566 1116 3266 
L 306 3403 
Q 391 3819 561 4067 
Q 731 4316 1036 4458 
Q 1341 4600 1719 4600 
Q 2366 4600 2756 4188 
Q 3078 3850 3078 3425 
Q 3078 2822 2419 2463 
Q 2813 2378 3048 2084 
Q 3284 1791 3284 1375 
Q 3284 772 2843 347 
Q 2403 -78 1747 -78 
Q 1125 -78 715 280 
Q 306 638 241 1216 
z
" transform="scale(0.015625)"/>
       </defs>
       <use xlink:href="#Arial-BoldMT-33"/>
       <use xlink:href="#Arial-BoldMT-2e" x="55.615234"/>
       <use xlink:href="#Arial-BoldMT-30" x="83.398438"/>
      </g>
     </g>
    </g>
    <g id="text_8">
     <!-- Retention time / min -->
     <g transform="translate(537.345625 245.447573) scale(0.18 -0.18)">
      <defs>
       <path id="Arial-BoldMT-52" d="M 469 0 
L 469 4581 
L 2416 4581 
Q 3150 4581 3483 4457 
Q 3816 4334 4016 4018 
Q 4216 3703 4216 3297 
Q 4216 2781 3912 2445 
Q 3609 2109 3006 2022 
Q 3306 1847 3501 1637 
Q 3697 1428 4028 894 
L 4588 0 
L 3481 0 
L 2813 997 
Q 2456 1531 2325 1670 
Q 2194 1809 2047 1861 
Q 1900 1913 1581 1913 
L 1394 1913 
L 1394 0 
L 469 0 
z
M 1394 2644 
L 2078 2644 
Q 2744 2644 2909 2700 
Q 3075 2756 3169 2893 
Q 3263 3031 3263 3238 
Q 3263 3469 3139 3611 
Q 3016 3753 2791 3791 
Q 2678 3806 2116 3806 
L 1394 3806 
L 1394 2644 
z
" transform="scale(0.015625)"/>
       <path id="Arial-BoldMT-65" d="M 2381 1056 
L 3256 909 
Q 3088 428 2723 176 
Q 2359 -75 1813 -75 
Q 947 -75 531 491 
Q 203 944 203 1634 
Q 203 2459 634 2926 
Q 1066 3394 1725 3394 
Q 2466 3394 2894 2905 
Q 3322 2416 3303 1406 
L 1103 1406 
Q 1113 1016 1316 798 
Q 1519 581 1822 581 
Q 2028 581 2168 693 
Q 2309 806 2381 1056 
z
M 2431 1944 
Q 2422 2325 2234 2523 
Q 2047 2722 1778 2722 
Q 1491 2722 1303 2513 
Q 1116 2303 1119 1944 
L 2431 1944 
z
" transform="scale(0.015625)"/>
       <path id="Arial-BoldMT-74" d="M 1981 3319 
L 1981 2619 
L 1381 2619 
L 1381 1281 
Q 1381 875 1398 808 
Q 1416 741 1477 697 
Q 1538 653 1625 653 
Q 1747 653 1978 738 
L 2053 56 
Q 1747 -75 1359 -75 
Q 1122 -75 931 4 
Q 741 84 652 211 
Q 563 338 528 553 
Q 500 706 500 1172 
L 500 2619 
L 97 2619 
L 97 3319 
L 500 3319 
L 500 3978 
L 1381 4491 
L 1381 3319 
L 1981 3319 
z
" transform="scale(0.015625)"/>
       <path id="Arial-BoldMT-6e" d="M 3478 0 
L 2600 0 
L 2600 1694 
Q 2600 2231 2544 2389 
Q 2488 2547 2361 2634 
Q 2234 2722 2056 2722 
Q 1828 2722 1647 2597 
Q 1466 2472 1398 2265 
Q 1331 2059 1331 1503 
L 1331 0 
L 453 0 
L 453 3319 
L 1269 3319 
L 1269 2831 
Q 1703 3394 2363 3394 
Q 2653 3394 2893 3289 
Q 3134 3184 3257 3021 
Q 3381 2859 3429 2653 
Q 3478 2447 3478 2063 
L 3478 0 
z
" transform="scale(0.015625)"/>
       <path id="Arial-BoldMT-69" d="M 459 3769 
L 459 4581 
L 1338 4581 
L 1338 3769 
L 459 3769 
z
M 459 0 
L 459 3319 
L 1338 3319 
L 1338 0 
L 459 0 
z
" transform="scale(0.015625)"/>
       <path id="Arial-BoldMT-6f" d="M 256 1706 
Q 256 2144 472 2553 
Q 688 2963 1083 3178 
Q 1478 3394 1966 3394 
Q 2719 3394 3200 2905 
Q 3681 2416 3681 1669 
Q 3681 916 3195 420 
Q 2709 -75 1972 -75 
Q 1516 -75 1102 131 
Q 688 338 472 736 
Q 256 1134 256 1706 
z
M 1156 1659 
Q 1156 1166 1390 903 
Q 1625 641 1969 641 
Q 2313 641 2545 903 
Q 2778 1166 2778 1666 
Q 2778 2153 2545 2415 
Q 2313 2678 1969 2678 
Q 1625 2678 1390 2415 
Q 1156 2153 1156 1659 
z
" transform="scale(0.015625)"/>
       <path id="Arial-BoldMT-20" transform="scale(0.015625)"/>
       <path id="Arial-BoldMT-6d" d="M 394 3319 
L 1203 3319 
L 1203 2866 
Q 1638 3394 2238 3394 
Q 2556 3394 2790 3262 
Q 3025 3131 3175 2866 
Q 3394 3131 3647 3262 
Q 3900 3394 4188 3394 
Q 4553 3394 4806 3245 
Q 5059 3097 5184 2809 
Q 5275 2597 5275 2122 
L 5275 0 
L 4397 0 
L 4397 1897 
Q 4397 2391 4306 2534 
Q 4184 2722 3931 2722 
Q 3747 2722 3584 2609 
Q 3422 2497 3350 2280 
Q 3278 2063 3278 1594 
L 3278 0 
L 2400 0 
L 2400 1819 
Q 2400 2303 2353 2443 
Q 2306 2584 2207 2653 
Q 2109 2722 1941 2722 
Q 1738 2722 1575 2612 
Q 1413 2503 1342 2297 
Q 1272 2091 1272 1613 
L 1272 0 
L 394 0 
L 394 3319 
z
" transform="scale(0.015625)"/>
       <path id="Arial-BoldMT-2f" d="M -9 -78 
L 1125 4659 
L 1784 4659 
L 638 -78 
L -9 -78 
z
" transform="scale(0.015625)"/>
      </defs>
      <use xlink:href="#Arial-BoldMT-52"/>
      <use xlink:href="#Arial-BoldMT-65" x="72.216797"/>
      <use xlink:href="#Arial-BoldMT-74" x="127.832031"/>
      <use xlink:href="#Arial-BoldMT-65" x="161.132812"/>
      <use xlink:href="#Arial-BoldMT-6e" x="216.748047"/>
      <use xlink:href="#Arial-BoldMT-74" x="277.832031"/>
      <use xlink:href="#Arial-BoldMT-69" x="311.132812"/>
      <use xlink:href="#Arial-BoldMT-6f" x="338.916016"/>
      <use xlink:href="#Arial-BoldMT-6e" x="400"/>
      <use xlink:href="#Arial-BoldMT-20" x="461.083984"/>
      <use xlink:href="#Arial-BoldMT-74" x="488.867188"/>
      <use xlink:href="#Arial-BoldMT-69" x="522.167969"/>
      <use xlink:href="#Arial-BoldMT-6d" x="549.951172"/>
      <use xlink:href="#Arial-BoldMT-65" x="638.867188"/>
      <use xlink:href="#Arial-BoldMT-20" x="694.482422"/>
      <use xlink:href="#Arial-BoldMT-2f" x="722.265625"/>
      <use xlink:href="#Arial-BoldMT-20" x="750.048828"/>
      <use xlink:href="#Arial-BoldMT-6d" x="777.832031"/>
      <use xlink:href="#Arial-BoldMT-69" x="866.748047"/>
      <use xlink:href="#Arial-BoldMT-6e" x="894.53125"/>
     </g>
    </g>
   </g>
   <g id="matplotlib.axis_2">
    <g id="ytick_1">
     <g id="line2d_8">
      <defs>
       <path id="m624323a157" d="M 0 0 
L -8 0 
" style="stroke: #000000; stroke-width: 2"/>
      </defs>
      <g>
       <use xlink:href="#m624323a157" x="61.69274" y="181.02986" style="stroke: #000000; stroke-width: 2"/>
      </g>
     </g>
     <g id="text_9">
      <!-- 0.0 -->
      <g transform="translate(23.67274 187.471891) scale(0.18 -0.18)">
       <use xlink:href="#Arial-BoldMT-30"/>
       <use xlink:href="#Arial-BoldMT-2e" x="55.615234"/>
       <use xlink:href="#Arial-BoldMT-30" x="83.398438"/>
      </g>
     </g>
    </g>
    <g id="ytick_2">
     <g id="line2d_9">
      <g>
       <use xlink:href="#m624323a157" x="61.69274" y="103.658442" style="stroke: #000000; stroke-width: 2"/>
      </g>
     </g>
     <g id="text_10">
      <!-- 0.5 -->
      <g transform="translate(23.67274 110.100473) scale(0.18 -0.18)">
       <use xlink:href="#Arial-BoldMT-30"/>
       <use xlink:href="#Arial-BoldMT-2e" x="55.615234"/>
       <use xlink:href="#Arial-BoldMT-35" x="83.398438"/>
      </g>
     </g>
    </g>
    <g id="ytick_3">
     <g id="line2d_10">
      <g>
       <use xlink:href="#m624323a157" x="61.69274" y="26.287023" style="stroke: #000000; stroke-width: 2"/>
      </g>
     </g>
     <g id="text_11">
      <!-- 1.0 -->
      <g transform="translate(23.67274 32.729054) scale(0.18 -0.18)">
       <use xlink:href="#Arial-BoldMT-31"/>
       <use xlink:href="#Arial-BoldMT-2e" x="55.615234"/>
       <use xlink:href="#Arial-BoldMT-30" x="83.398438"/>
      </g>
     </g>
    </g>
    <g id="text_12">
     <!-- Rel. Intensity -->
     <g transform="translate(15.884303 157.071875) rotate(-90) scale(0.18 -0.18)">
      <defs>
       <path id="Arial-BoldMT-6c" d="M 459 0 
L 459 4581 
L 1338 4581 
L 1338 0 
L 459 0 
z
" transform="scale(0.015625)"/>
       <path id="Arial-BoldMT-49" d="M 438 0 
L 438 4581 
L 1363 4581 
L 1363 0 
L 438 0 
z
" transform="scale(0.015625)"/>
       <path id="Arial-BoldMT-73" d="M 150 947 
L 1031 1081 
Q 1088 825 1259 692 
Q 1431 559 1741 559 
Q 2081 559 2253 684 
Q 2369 772 2369 919 
Q 2369 1019 2306 1084 
Q 2241 1147 2013 1200 
Q 950 1434 666 1628 
Q 272 1897 272 2375 
Q 272 2806 612 3100 
Q 953 3394 1669 3394 
Q 2350 3394 2681 3172 
Q 3013 2950 3138 2516 
L 2309 2363 
Q 2256 2556 2107 2659 
Q 1959 2763 1684 2763 
Q 1338 2763 1188 2666 
Q 1088 2597 1088 2488 
Q 1088 2394 1175 2328 
Q 1294 2241 1995 2081 
Q 2697 1922 2975 1691 
Q 3250 1456 3250 1038 
Q 3250 581 2869 253 
Q 2488 -75 1741 -75 
Q 1063 -75 667 200 
Q 272 475 150 947 
z
" transform="scale(0.015625)"/>
       <path id="Arial-BoldMT-79" d="M 44 3319 
L 978 3319 
L 1772 963 
L 2547 3319 
L 3456 3319 
L 2284 125 
L 2075 -453 
Q 1959 -744 1854 -897 
Q 1750 -1050 1614 -1145 
Q 1478 -1241 1279 -1294 
Q 1081 -1347 831 -1347 
Q 578 -1347 334 -1294 
L 256 -606 
Q 463 -647 628 -647 
Q 934 -647 1081 -467 
Q 1228 -288 1306 -9 
L 44 3319 
z
" transform="scale(0.015625)"/>
      </defs>
      <use xlink:href="#Arial-BoldMT-52"/>
      <use xlink:href="#Arial-BoldMT-65" x="72.216797"/>
      <use xlink:href="#Arial-BoldMT-6c" x="127.832031"/>
      <use xlink:href="#Arial-BoldMT-2e" x="155.615234"/>
      <use xlink:href="#Arial-BoldMT-20" x="183.398438"/>
      <use xlink:href="#Arial-BoldMT-49" x="211.181641"/>
      <use xlink:href="#Arial-BoldMT-6e" x="238.964844"/>
      <use xlink:href="#Arial-BoldMT-74" x="300.048828"/>
      <use xlink:href="#Arial-BoldMT-65" x="333.349609"/>
      <use xlink:href="#Arial-BoldMT-6e" x="388.964844"/>
      <use xlink:href="#Arial-BoldMT-73" x="450.048828"/>
      <use xlink:href="#Arial-BoldMT-69" x="505.664062"/>
      <use xlink:href="#Arial-BoldMT-74" x="533.447266"/>
      <use xlink:href="#Arial-BoldMT-79" x="566.748047"/>
     </g>
    </g>
   </g>
   <g id="line2d_11">
    <path d="M 112.75215 181.176251 
L 143.955123 181.037251 
L 180.831364 181.012623 
L 185.369979 180.738863 
L 189.0576 180.763601 
L 190.759584 180.54607 
L 193.312552 180.148045 
L 194.730867 180.055923 
L 195.298199 179.767149 
L 195.865525 178.987391 
L 196.432851 177.486194 
L 197.000177 175.250188 
L 198.702156 167.843118 
L 199.269482 166.581645 
L 199.553145 166.275864 
L 199.836808 166.160573 
L 200.120472 166.212853 
L 200.404135 166.41598 
L 200.971461 167.252369 
L 201.538787 168.770801 
L 202.106113 171.134432 
L 202.957103 176.119154 
L 204.375429 184.768995 
L 204.942755 187.161954 
L 205.510081 188.769083 
L 206.077407 189.706205 
L 206.644733 190.138408 
L 207.21206 190.211031 
L 207.779386 190.031305 
L 208.630375 189.453142 
L 210.048691 188.088387 
L 212.317996 185.926036 
L 214.303648 184.403105 
L 216.28929 183.143849 
L 218.274931 182.176124 
L 219.97691 181.609251 
L 221.678889 181.273242 
L 223.948194 181.052558 
L 227.352161 180.975334 
L 249.194242 181.070119 
L 253.449189 181.305423 
L 258.271472 181.251425 
L 267.065039 181.093997 
L 317.273461 180.976115 
L 336.562574 181.157084 
L 364.077916 181.270298 
L 417.690286 180.831017 
L 432.157126 180.726693 
L 438.96504 180.394616 
L 442.085335 180.704939 
L 446.340302 181.073375 
L 451.446238 181.203174 
L 462.225436 181.260225 
L 481.230886 181.142796 
L 488.322484 181.074706 
L 499.669009 181.065403 
L 554.699694 181.032142 
L 562.074976 180.962533 
L 567.748238 180.971861 
L 579.094763 181.044381 
L 598.667538 181.026597 
L 616.538335 181.054046 
L 622.778924 181.000677 
L 641.217047 180.886401 
L 651.145276 181.166076 
L 653.698224 181.073634 
L 656.818539 180.963773 
L 660.789822 181.100753 
L 668.448747 181.277217 
L 671.001694 181.107342 
L 673.554683 180.941411 
L 675.823988 181.055482 
L 679.511588 181.274569 
L 686.03586 181.19122 
L 688.588848 181.259337 
L 691.709122 181.059172 
L 692.843775 180.853102 
L 693.694785 180.525159 
L 694.829437 179.837019 
L 696.247732 178.974984 
L 697.098742 178.68695 
L 697.949711 178.615413 
L 698.800721 178.749108 
L 700.219016 179.266456 
L 703.339331 180.563081 
L 705.041309 180.969765 
L 707.026931 181.189246 
L 711.849224 181.305798 
L 712.700234 181.165849 
L 712.983877 181.012991 
L 713.26756 180.716333 
L 713.551203 180.15925 
L 713.834886 179.144158 
L 714.118529 177.375702 
L 714.402212 174.447634 
L 714.685855 169.84467 
L 714.969539 162.997067 
L 715.536865 140.840192 
L 716.387834 90.406254 
L 716.95516 58.59304 
L 717.522486 38.552576 
L 717.80617 33.143163 
L 718.089813 29.97728 
L 718.373496 28.264092 
L 718.657139 27.389388 
L 719.224465 26.622209 
L 719.791791 26.357256 
L 720.359118 26.299141 
L 722.061096 26.901837 
L 722.34478 27.13906 
L 722.912106 28.178547 
L 723.479432 30.007724 
L 724.046758 33.206064 
L 724.614085 38.745898 
L 725.181411 47.229163 
L 726.03238 65.331912 
L 728.018042 112.260998 
L 728.869011 126.769918 
L 729.720021 137.478958 
L 730.57103 145.33291 
L 731.422 151.250169 
L 732.273009 155.859677 
L 733.407662 160.629359 
L 734.542314 164.369899 
L 735.676967 167.364234 
L 736.811619 169.779737 
L 737.946272 171.756158 
L 739.364567 173.761084 
L 740.782903 175.368835 
L 742.201198 176.632907 
L 743.619534 177.563493 
L 745.321513 178.357349 
L 747.590818 179.140176 
L 751.278458 180.161162 
L 754.682416 180.86992 
L 758.370016 181.344045 
L 762.3413 181.659964 
L 770.000224 181.97763 
L 774.538834 182.082771 
L 780.212096 181.933155 
L 784.18338 181.683277 
L 787.587338 181.576629 
L 790.140326 181.580088 
L 799.784913 181.960094 
L 801.486851 181.830711 
L 802.054217 181.527184 
L 802.33786 181.202143 
L 802.621503 180.681853 
L 802.905146 179.887318 
L 803.472513 177.145619 
L 804.039798 172.438526 
L 804.607165 165.71602 
L 806.87647 135.641606 
L 807.443756 131.535788 
L 808.011123 129.289331 
L 808.294765 128.811052 
L 808.578408 128.721673 
L 808.862132 128.992878 
L 809.145775 129.598541 
L 809.713061 131.688162 
L 810.280428 134.749525 
L 811.131437 140.5597 
L 813.968028 161.031594 
L 814.819038 165.536987 
L 815.670047 169.044711 
L 816.521057 171.666448 
L 817.371985 173.516963 
L 818.222995 174.73233 
L 819.074005 175.48132 
L 820.208657 176.080581 
L 823.612614 177.630269 
L 827.016572 179.432702 
L 828.71851 180.047668 
L 830.704172 180.498779 
L 833.25712 180.805758 
L 838.363097 181.130672 
L 844.320002 181.3271 
L 856.801179 181.359098 
L 862.474523 181.398832 
L 871.551742 181.505907 
L 874.388333 181.362427 
L 879.49431 180.726636 
L 882.047257 180.848141 
L 888.855172 181.284061 
L 891.975487 181.229195 
L 895.379444 180.918625 
L 895.94673 180.659889 
L 896.514097 180.135164 
L 897.081382 179.234943 
L 897.648749 177.933628 
L 899.918054 171.803463 
L 900.485421 170.942025 
L 901.052707 170.517116 
L 901.620073 170.507515 
L 902.187359 170.849111 
L 902.754726 171.460173 
L 903.889378 173.151872 
L 905.874959 176.230617 
L 907.009612 177.578417 
L 908.144264 178.579065 
L 909.278917 179.290352 
L 910.413569 179.717217 
L 911.264579 179.807063 
L 912.115589 179.66496 
L 913.817527 178.975651 
L 914.952179 178.66004 
L 915.803189 178.623545 
L 916.937841 178.805039 
L 918.639861 179.328324 
L 921.760175 180.327707 
L 924.02948 180.762005 
L 926.866071 181.021747 
L 930.270028 181.150766 
L 936.510657 181.139327 
L 994.094291 181.143246 
L 994.9453 180.860223 
L 995.79631 180.358099 
L 997.781891 178.979128 
L 998.632901 178.677441 
L 999.48391 178.607439 
L 1000.618563 178.798524 
L 1002.320501 179.405614 
L 1004.87353 180.307537 
L 1006.859192 180.734261 
L 1009.41214 181.000675 
L 1013.383383 181.16041 
L 1019.340369 181.210694 
L 1053.0963 181.020324 
L 1056.216615 180.889277 
L 1060.471501 180.993193 
L 1065.577478 181.07825 
L 1131.103678 181.013728 
L 1133.656707 181.025434 
L 1133.656707 181.025434 
" clip-path="url(#pb24b4fc563)" style="fill: none; stroke: #000000; stroke-width: 2.5; stroke-linecap: square"/>
   </g>
   <g id="line2d_12">
    <path d="M 248.910577 199.12726 
L 248.910577 3.00024 
" clip-path="url(#pb24b4fc563)" style="fill: none; stroke: #d55e00; stroke-width: 2; stroke-linecap: square"/>
   </g>
   <g id="line2d_13">
    <path d="M 1133.94035 199.12726 
L 1133.94035 3.00024 
" clip-path="url(#pb24b4fc563)" style="fill: none; stroke: #d55e00; stroke-width: 2; stroke-linecap: square"/>
   </g>
   <g id="patch_3">
    <path d="M 61.69274 199.12726 
L 61.69274 3.00024 
" style="fill: none; stroke: #000000; stroke-width: 2; stroke-linejoin: miter; stroke-linecap: square"/>
   </g>
   <g id="patch_4">
    <path d="M 1184.99976 199.12726 
L 1184.99976 3.00024 
" style="fill: none; stroke: #000000; stroke-width: 2; stroke-linejoin: miter; stroke-linecap: square"/>
   </g>
   <g id="patch_5">
    <path d="M 61.69274 199.12726 
L 1184.99976 199.12726 
" style="fill: none; stroke: #000000; stroke-width: 2; stroke-linejoin: miter; stroke-linecap: square"/>
   </g>
   <g id="patch_6">
    <path d="M 61.69274 3.00024 
L 1184.99976 3.00024 
" style="fill: none; stroke: #000000; stroke-width: 2; stroke-linejoin: miter; stroke-linecap: square"/>
   </g>
   <g id="text_13">
    <!-- ANALYSIS -->
    <g style="fill: #d55e00" transform="translate(242.547644 140.881047) rotate(-90) scale(0.14994 -0.14994)">
     <defs>
      <path id="Arial-BoldMT-41" d="M 4597 0 
L 3591 0 
L 3191 1041 
L 1359 1041 
L 981 0 
L 0 0 
L 1784 4581 
L 2763 4581 
L 4597 0 
z
M 2894 1813 
L 2263 3513 
L 1644 1813 
L 2894 1813 
z
" transform="scale(0.015625)"/>
      <path id="Arial-BoldMT-4e" d="M 475 0 
L 475 4581 
L 1375 4581 
L 3250 1522 
L 3250 4581 
L 4109 4581 
L 4109 0 
L 3181 0 
L 1334 2988 
L 1334 0 
L 475 0 
z
" transform="scale(0.015625)"/>
      <path id="Arial-BoldMT-4c" d="M 491 0 
L 491 4544 
L 1416 4544 
L 1416 772 
L 3716 772 
L 3716 0 
L 491 0 
z
" transform="scale(0.015625)"/>
      <path id="Arial-BoldMT-59" d="M 1669 0 
L 1669 1928 
L -9 4581 
L 1075 4581 
L 2153 2769 
L 3209 4581 
L 4275 4581 
L 2591 1922 
L 2591 0 
L 1669 0 
z
" transform="scale(0.015625)"/>
      <path id="Arial-BoldMT-53" d="M 231 1491 
L 1131 1578 
Q 1213 1125 1461 912 
Q 1709 700 2131 700 
Q 2578 700 2804 889 
Q 3031 1078 3031 1331 
Q 3031 1494 2936 1608 
Q 2841 1722 2603 1806 
Q 2441 1863 1863 2006 
Q 1119 2191 819 2459 
Q 397 2838 397 3381 
Q 397 3731 595 4036 
Q 794 4341 1167 4500 
Q 1541 4659 2069 4659 
Q 2931 4659 3367 4281 
Q 3803 3903 3825 3272 
L 2900 3231 
Q 2841 3584 2645 3739 
Q 2450 3894 2059 3894 
Q 1656 3894 1428 3728 
Q 1281 3622 1281 3444 
Q 1281 3281 1419 3166 
Q 1594 3019 2269 2859 
Q 2944 2700 3267 2529 
Q 3591 2359 3773 2064 
Q 3956 1769 3956 1334 
Q 3956 941 3737 597 
Q 3519 253 3119 86 
Q 2719 -81 2122 -81 
Q 1253 -81 787 320 
Q 322 722 231 1491 
z
" transform="scale(0.015625)"/>
     </defs>
     <use xlink:href="#Arial-BoldMT-41"/>
     <use xlink:href="#Arial-BoldMT-4e" x="72.216797"/>
     <use xlink:href="#Arial-BoldMT-41" x="144.433594"/>
     <use xlink:href="#Arial-BoldMT-4c" x="216.650391"/>
     <use xlink:href="#Arial-BoldMT-59" x="268.609375"/>
     <use xlink:href="#Arial-BoldMT-53" x="335.308594"/>
     <use xlink:href="#Arial-BoldMT-49" x="402.007812"/>
     <use xlink:href="#Arial-BoldMT-53" x="429.791016"/>
    </g>
   </g>
   <g id="text_14">
    <!-- START -->
    <g style="fill: #d55e00" transform="translate(266.450922 128.092805) rotate(-90) scale(0.14994 -0.14994)">
     <defs>
      <path id="Arial-BoldMT-54" d="M 1497 0 
L 1497 3806 
L 138 3806 
L 138 4581 
L 3778 4581 
L 3778 3806 
L 2422 3806 
L 2422 0 
L 1497 0 
z
" transform="scale(0.015625)"/>
     </defs>
     <use xlink:href="#Arial-BoldMT-53"/>
     <use xlink:href="#Arial-BoldMT-54" x="66.699219"/>
     <use xlink:href="#Arial-BoldMT-41" x="120.408203"/>
     <use xlink:href="#Arial-BoldMT-52" x="192.625"/>
     <use xlink:href="#Arial-BoldMT-54" x="264.841797"/>
    </g>
   </g>
   <g id="text_15">
    <!-- ANALYSIS -->
    <g style="fill: #d55e00" transform="translate(1127.577417 140.881047) rotate(-90) scale(0.14994 -0.14994)">
     <use xlink:href="#Arial-BoldMT-41"/>
     <use xlink:href="#Arial-BoldMT-4e" x="72.216797"/>
     <use xlink:href="#Arial-BoldMT-41" x="144.433594"/>
     <use xlink:href="#Arial-BoldMT-4c" x="216.650391"/>
     <use xlink:href="#Arial-BoldMT-59" x="268.609375"/>
     <use xlink:href="#Arial-BoldMT-53" x="335.308594"/>
     <use xlink:href="#Arial-BoldMT-49" x="402.007812"/>
     <use xlink:href="#Arial-BoldMT-53" x="429.791016"/>
    </g>
   </g>
   <g id="text_16">
    <!-- END -->
    <g style="fill: #d55e00" transform="translate(1151.480695 119.487654) rotate(-90) scale(0.14994 -0.14994)">
     <defs>
      <path id="Arial-BoldMT-45" d="M 466 0 
L 466 4581 
L 3863 4581 
L 3863 3806 
L 1391 3806 
L 1391 2791 
L 3691 2791 
L 3691 2019 
L 1391 2019 
L 1391 772 
L 3950 772 
L 3950 0 
L 466 0 
z
" transform="scale(0.015625)"/>
      <path id="Arial-BoldMT-44" d="M 463 4581 
L 2153 4581 
Q 2725 4581 3025 4494 
Q 3428 4375 3715 4072 
Q 4003 3769 4153 3330 
Q 4303 2891 4303 2247 
Q 4303 1681 4163 1272 
Q 3991 772 3672 463 
Q 3431 228 3022 97 
Q 2716 0 2203 0 
L 463 0 
L 463 4581 
z
M 1388 3806 
L 1388 772 
L 2078 772 
Q 2466 772 2638 816 
Q 2863 872 3011 1006 
Q 3159 1141 3253 1448 
Q 3347 1756 3347 2288 
Q 3347 2819 3253 3103 
Q 3159 3388 2990 3547 
Q 2822 3706 2563 3763 
Q 2369 3806 1803 3806 
L 1388 3806 
z
" transform="scale(0.015625)"/>
     </defs>
     <use xlink:href="#Arial-BoldMT-45"/>
     <use xlink:href="#Arial-BoldMT-4e" x="66.699219"/>
     <use xlink:href="#Arial-BoldMT-44" x="138.916016"/>
    </g>
   </g>
  </g>
 </g>
 <defs>
  <clipPath id="pb24b4fc563">
   <rect x="61.69274" y="3.00024" width="1123.30702" height="196.12702"/>
  </clipPath>
 </defs>
</svg>
