<?xml version="1.0" encoding="utf-8" standalone="no"?>
<!DOCTYPE svg PUBLIC "-//W3C//DTD SVG 1.1//EN"
  "http://www.w3.org/Graphics/SVG/1.1/DTD/svg11.dtd">
<svg xmlns:xlink="http://www.w3.org/1999/xlink" width="1188pt" height="252pt" viewBox="0 0 1188 252" xmlns="http://www.w3.org/2000/svg" version="1.1">
 <metadata>
  <rdf:RDF xmlns:dc="http://purl.org/dc/elements/1.1/" xmlns:cc="http://creativecommons.org/ns#" xmlns:rdf="http://www.w3.org/1999/02/22-rdf-syntax-ns#">
   <cc:Work>
    <dc:type rdf:resource="http://purl.org/dc/dcmitype/StillImage"/>
    <dc:date>2024-05-14T22:49:51.025788</dc:date>
    <dc:format>image/svg+xml</dc:format>
    <dc:creator>
     <cc:Agent>
      <dc:title>Matplotlib v3.8.0, https://matplotlib.org/</dc:title>
     </cc:Agent>
    </dc:creator>
   </cc:Work>
  </rdf:RDF>
 </metadata>
 <defs>
  <style type="text/css">*{stroke-linejoin: round; stroke-linecap: butt}</style>
 </defs>
 <g id="figure_1">
  <g id="patch_1">
   <path d="M 0 252 
L 1188 252 
L 1188 0 
L 0 0 
z
" style="fill: #ffffff"/>
  </g>
  <g id="axes_1">
   <g id="patch_2">
    <path d="M 71.702428 199.12726 
L 1184.99976 199.12726 
L 1184.99976 3.00024 
L 71.702428 3.00024 
z
" style="fill: #ffffff"/>
   </g>
   <g id="PolyCollection_1">
    <path d="M 478.042311 175.04768 
L 478.042311 173.157398 
L 478.323504 173.157398 
L 478.604738 173.157398 
L 478.885931 173.157398 
L 479.167165 173.157398 
L 479.448358 173.157398 
L 479.729592 173.157398 
L 480.010785 173.157398 
L 480.292019 173.157398 
L 480.573212 173.157398 
L 480.854446 173.157398 
L 481.135679 173.157398 
L 481.416873 173.157398 
L 481.698107 173.157398 
L 481.9793 173.157398 
L 482.260534 173.157398 
L 482.541727 173.157398 
L 482.822961 173.157398 
L 483.104154 173.157398 
L 483.385388 173.157398 
L 483.666581 173.157398 
L 483.947815 173.157398 
L 484.229008 173.157398 
L 484.510242 173.157398 
L 484.791435 173.157398 
L 485.072669 173.157398 
L 485.353862 173.157398 
L 485.635096 173.157398 
L 485.916289 173.157398 
L 486.197523 173.157398 
L 486.478716 173.157398 
L 486.75995 173.157398 
L 487.041144 173.157398 
L 487.322377 173.157398 
L 487.603571 173.157398 
L 487.884804 173.157398 
L 488.165998 173.157398 
L 488.447231 173.157398 
L 488.728425 173.157398 
L 489.009658 173.157398 
L 489.290852 173.157398 
L 489.572085 173.157398 
L 489.853279 173.157398 
L 490.134512 173.157398 
L 490.415706 173.157398 
L 490.69694 173.157398 
L 490.978133 173.157398 
L 491.259367 173.157398 
L 491.54056 173.157398 
L 491.821794 173.157398 
L 492.102987 173.157398 
L 492.384221 173.157398 
L 492.665414 173.157398 
L 492.946648 173.157398 
L 493.227841 173.157398 
L 493.509075 173.157398 
L 493.790268 173.157398 
L 494.071502 173.157398 
L 494.352695 173.157398 
L 494.633929 173.157398 
L 494.915122 173.157398 
L 495.196356 173.157398 
L 495.477549 173.157398 
L 495.758783 173.157398 
L 496.039977 173.157398 
L 496.32121 173.157398 
L 496.602404 173.157398 
L 496.883637 173.157398 
L 497.164831 173.157398 
L 497.446064 173.157398 
L 497.727258 173.157398 
L 498.008491 173.157398 
L 498.289685 173.157398 
L 498.570918 173.157398 
L 498.852112 173.157398 
L 499.133345 173.157398 
L 499.414539 173.157398 
L 499.695773 173.157398 
L 499.976966 173.157398 
L 500.2582 173.157398 
L 500.539393 173.157398 
L 500.820627 173.157398 
L 501.10182 173.157398 
L 501.383054 173.157398 
L 501.664247 173.157398 
L 501.945481 173.157398 
L 502.226714 173.157398 
L 502.507908 173.157398 
L 502.789141 173.157398 
L 503.070335 173.157398 
L 503.351569 173.157398 
L 503.632762 173.157398 
L 503.913996 173.157398 
L 504.195189 173.157398 
L 504.476423 173.157398 
L 504.757616 173.157398 
L 505.03885 173.157398 
L 505.320043 173.157398 
L 505.601277 173.157398 
L 505.88247 173.157398 
L 506.163704 173.157398 
L 506.444897 173.157398 
L 506.726131 173.157398 
L 507.007324 173.157398 
L 507.288558 173.157398 
L 507.569751 173.157398 
L 507.850985 173.157398 
L 508.132178 173.157398 
L 508.413412 173.157398 
L 508.694606 173.157398 
L 508.975839 173.157398 
L 509.257033 173.157398 
L 509.538266 173.157398 
L 509.81946 173.157398 
L 510.100693 173.157398 
L 510.381887 173.157398 
L 510.66312 173.157398 
L 510.944314 173.157398 
L 511.225547 173.157398 
L 511.506741 173.157398 
L 511.787974 173.157398 
L 512.069168 173.157398 
L 512.350402 173.157398 
L 512.631595 173.157398 
L 512.912829 173.157398 
L 513.194022 173.157398 
L 513.475256 173.157398 
L 513.756449 173.157398 
L 514.037683 173.157398 
L 514.318876 173.157398 
L 514.60011 173.157398 
L 514.881303 173.157398 
L 515.162537 173.157398 
L 515.44373 173.157398 
L 515.724964 173.157398 
L 515.724964 172.812265 
L 515.724964 172.812265 
L 515.44373 172.288237 
L 515.162537 171.722825 
L 514.881303 171.11306 
L 514.60011 170.455304 
L 514.318876 169.746365 
L 514.037683 168.981183 
L 513.756449 168.158211 
L 513.475256 167.273319 
L 513.194022 166.321283 
L 512.912829 165.301027 
L 512.631595 164.207393 
L 512.350402 163.034016 
L 512.069168 161.776385 
L 511.787974 160.433932 
L 511.506741 158.997786 
L 511.225547 157.462176 
L 510.944314 155.825565 
L 510.66312 154.085878 
L 510.381887 152.23347 
L 510.100693 150.271132 
L 509.81946 148.192959 
L 509.538266 145.993394 
L 509.257033 143.665537 
L 508.975839 141.212799 
L 508.694606 138.627508 
L 508.413412 135.918033 
L 508.132178 133.075471 
L 507.850985 130.10538 
L 507.569751 127.001718 
L 507.288558 123.7742 
L 507.007324 120.416426 
L 506.726131 116.948691 
L 506.444897 113.373084 
L 506.163704 109.70674 
L 505.88247 105.952155 
L 505.601277 102.130981 
L 505.320043 98.256302 
L 505.03885 94.346539 
L 504.757616 90.423959 
L 504.476423 86.506427 
L 504.195189 82.613623 
L 503.913996 78.753751 
L 503.632762 74.950152 
L 503.351569 71.215184 
L 503.070335 67.570749 
L 502.789141 64.012488 
L 502.507908 60.554467 
L 502.226714 57.224073 
L 501.945481 54.003372 
L 501.664247 50.906567 
L 501.383054 47.948503 
L 501.10182 45.139157 
L 500.820627 42.474706 
L 500.539393 39.96832 
L 500.2582 37.591289 
L 499.976966 35.348182 
L 499.695773 33.271244 
L 499.414539 31.299088 
L 499.133345 29.467298 
L 498.852112 27.778477 
L 498.570918 26.247342 
L 498.289685 24.821108 
L 498.008491 23.524334 
L 497.727258 22.323781 
L 497.446064 21.236926 
L 497.164831 20.223802 
L 496.883637 19.282064 
L 496.602404 18.418586 
L 496.32121 17.644994 
L 496.039977 16.947344 
L 495.758783 16.307584 
L 495.477549 15.714678 
L 495.196356 15.178169 
L 494.915122 14.663746 
L 494.633929 14.167022 
L 494.352695 13.760589 
L 494.071502 13.412896 
L 493.790268 13.137716 
L 493.509075 12.932156 
L 493.227841 12.769837 
L 492.946648 12.583613 
L 492.665414 12.456981 
L 492.384221 12.284123 
L 492.102987 12.155082 
L 491.821794 12.038372 
L 491.54056 11.974107 
L 491.259367 11.915105 
L 490.978133 11.983965 
L 490.69694 11.971109 
L 490.415706 12.042117 
L 490.134512 12.118059 
L 489.853279 12.20132 
L 489.572085 12.250269 
L 489.290852 12.445421 
L 489.009658 12.656191 
L 488.728425 12.918411 
L 488.447231 13.246859 
L 488.165998 13.624766 
L 487.884804 14.015293 
L 487.603571 14.411345 
L 487.322377 14.85391 
L 487.041144 15.3471 
L 486.75995 15.837278 
L 486.478716 16.301405 
L 486.197523 16.718626 
L 485.916289 17.071227 
L 485.635096 17.294186 
L 485.353862 17.451779 
L 485.072669 17.516594 
L 484.791435 17.545068 
L 484.510242 17.522813 
L 484.229008 17.527355 
L 483.947815 17.599894 
L 483.666581 17.855921 
L 483.385388 18.380779 
L 483.104154 19.297342 
L 482.822961 20.719007 
L 482.541727 22.864623 
L 482.260534 25.973145 
L 481.9793 30.36082 
L 481.698107 36.360377 
L 481.416873 44.296521 
L 481.135679 54.281523 
L 480.854446 66.232802 
L 480.573212 79.783187 
L 480.292019 94.357817 
L 480.010785 109.201494 
L 479.729592 123.542791 
L 479.448358 136.703928 
L 479.167165 148.195276 
L 478.885931 157.74157 
L 478.604738 165.291482 
L 478.323504 170.976247 
L 478.042311 175.04768 
z
" clip-path="url(#p909e637df9)" style="fill: #d55e00"/>
   </g>
   <g id="PolyCollection_2">
    <path d="M 643.677221 178.822121 
L 643.677221 178.68633 
L 643.958455 178.68633 
L 644.239648 178.68633 
L 644.520882 178.68633 
L 644.802075 178.68633 
L 645.083309 178.68633 
L 645.364502 178.68633 
L 645.645736 178.68633 
L 645.926929 178.68633 
L 646.208163 178.68633 
L 646.489356 178.68633 
L 646.77059 178.68633 
L 647.051784 178.68633 
L 647.333017 178.68633 
L 647.614211 178.68633 
L 647.895444 178.68633 
L 648.176638 178.68633 
L 648.457871 178.68633 
L 648.739065 178.68633 
L 649.020298 178.68633 
L 649.301492 178.68633 
L 649.582725 178.68633 
L 649.863959 178.68633 
L 650.145152 178.68633 
L 650.426386 178.68633 
L 650.70758 178.68633 
L 650.988813 178.68633 
L 651.270007 178.68633 
L 651.55124 178.68633 
L 651.832434 178.68633 
L 652.113667 178.68633 
L 652.394861 178.68633 
L 652.676094 178.68633 
L 652.957288 178.68633 
L 653.238521 178.68633 
L 653.519715 178.68633 
L 653.800948 178.68633 
L 654.082142 178.68633 
L 654.363376 178.68633 
L 654.644569 178.68633 
L 654.925803 178.68633 
L 655.206996 178.68633 
L 655.48823 178.68633 
L 655.769423 178.68633 
L 656.050657 178.68633 
L 656.33185 178.68633 
L 656.613084 178.68633 
L 656.894277 178.68633 
L 657.175511 178.68633 
L 657.456704 178.68633 
L 657.737938 178.68633 
L 658.019131 178.68633 
L 658.300365 178.68633 
L 658.581558 178.68633 
L 658.862792 178.68633 
L 659.143985 178.68633 
L 659.425219 178.68633 
L 659.706413 178.68633 
L 659.987646 178.68633 
L 660.26884 178.68633 
L 660.550073 178.68633 
L 660.831267 178.68633 
L 661.1125 178.68633 
L 661.393694 178.68633 
L 661.674927 178.68633 
L 661.956121 178.68633 
L 662.237354 178.68633 
L 662.518548 178.68633 
L 662.799781 178.68633 
L 663.080975 178.68633 
L 663.362209 178.68633 
L 663.643402 178.68633 
L 663.924636 178.68633 
L 664.205829 178.68633 
L 664.487063 178.68633 
L 664.768256 178.68633 
L 665.04949 178.68633 
L 665.330683 178.68633 
L 665.611917 178.68633 
L 665.89311 178.68633 
L 666.174344 178.68633 
L 666.455537 178.68633 
L 666.736771 178.68633 
L 667.017964 178.68633 
L 667.299198 178.68633 
L 667.580391 178.68633 
L 667.861625 178.68633 
L 668.142818 178.68633 
L 668.424052 178.68633 
L 668.705246 178.68633 
L 668.705246 178.527097 
L 668.705246 178.527097 
L 668.424052 178.327995 
L 668.142818 178.110376 
L 667.861625 177.873855 
L 667.580391 177.618282 
L 667.299198 177.342759 
L 667.017964 177.048141 
L 666.736771 176.735551 
L 666.455537 176.406614 
L 666.174344 176.062833 
L 665.89311 175.706307 
L 665.611917 175.341891 
L 665.330683 174.971211 
L 665.04949 174.596696 
L 664.768256 174.221417 
L 664.487063 173.848029 
L 664.205829 173.479949 
L 663.924636 173.121565 
L 663.643402 172.77868 
L 663.362209 172.455827 
L 663.080975 172.160418 
L 662.799781 171.894907 
L 662.518548 171.663663 
L 662.237354 171.467634 
L 661.956121 171.315117 
L 661.674927 171.207838 
L 661.393694 171.15067 
L 661.1125 171.148701 
L 660.831267 171.208193 
L 660.550073 171.32586 
L 660.26884 171.505069 
L 659.987646 171.741668 
L 659.706413 172.031001 
L 659.425219 172.361908 
L 659.143985 172.724303 
L 658.862792 173.096702 
L 658.581558 173.461355 
L 658.300365 173.794068 
L 658.019131 174.069834 
L 657.737938 174.264542 
L 657.456704 174.359211 
L 657.175511 174.340119 
L 656.894277 174.194072 
L 656.613084 173.919964 
L 656.33185 173.51861 
L 656.050657 172.99664 
L 655.769423 172.356493 
L 655.48823 171.608383 
L 655.206996 170.757794 
L 654.925803 169.812205 
L 654.644569 168.772181 
L 654.363376 167.643408 
L 654.082142 166.428934 
L 653.800948 165.133203 
L 653.519715 163.754679 
L 653.238521 162.301442 
L 652.957288 160.780506 
L 652.676094 159.204439 
L 652.394861 157.581096 
L 652.113667 155.931683 
L 651.832434 154.275337 
L 651.55124 152.633189 
L 651.270007 151.023667 
L 650.988813 149.482504 
L 650.70758 148.038177 
L 650.426386 146.723105 
L 650.145152 145.569098 
L 649.863959 144.614145 
L 649.582725 143.883492 
L 649.301492 143.405197 
L 649.020298 143.207655 
L 648.739065 143.319203 
L 648.457871 143.758093 
L 648.176638 144.541867 
L 647.895444 145.685264 
L 647.614211 147.186996 
L 647.333017 149.033301 
L 647.051784 151.203983 
L 646.77059 153.660767 
L 646.489356 156.345716 
L 646.208163 159.190073 
L 645.926929 162.114681 
L 645.645736 165.029656 
L 645.364502 167.844943 
L 645.083309 170.472839 
L 644.802075 172.837812 
L 644.520882 174.879341 
L 644.239648 176.558884 
L 643.958455 177.865745 
L 643.677221 178.822121 
z
" clip-path="url(#p909e637df9)" style="fill: #0072b2"/>
   </g>
   <g id="PolyCollection_3">
    <path d="M 807.906124 179.414574 
L 807.906124 179.426632 
L 808.187318 179.426632 
L 808.468511 179.426632 
L 808.749705 179.426632 
L 809.030979 179.426632 
L 809.312172 179.426632 
L 809.593365 179.426632 
L 809.874559 179.426632 
L 810.155833 179.426632 
L 810.437026 179.426632 
L 810.71822 179.426632 
L 810.999413 179.426632 
L 811.280687 179.426632 
L 811.56188 179.426632 
L 811.843074 179.426632 
L 812.124267 179.426632 
L 812.405541 179.426632 
L 812.686734 179.426632 
L 812.967928 179.426632 
L 813.249121 179.426632 
L 813.530395 179.426632 
L 813.811588 179.426632 
L 814.092782 179.426632 
L 814.373975 179.426632 
L 814.655249 179.426632 
L 814.936443 179.426632 
L 815.217636 179.426632 
L 815.498829 179.426632 
L 815.780103 179.426632 
L 816.061297 179.426632 
L 816.34249 179.426632 
L 816.623684 179.426632 
L 816.904957 179.426632 
L 817.186151 179.426632 
L 817.467344 179.426632 
L 817.748538 179.426632 
L 818.029812 179.426632 
L 818.311005 179.426632 
L 818.592198 179.426632 
L 818.873472 179.426632 
L 819.154666 179.426632 
L 819.435859 179.426632 
L 819.717053 179.426632 
L 819.998326 179.426632 
L 820.27952 179.426632 
L 820.560713 179.426632 
L 820.841907 179.426632 
L 821.123181 179.426632 
L 821.404374 179.426632 
L 821.685567 179.426632 
L 821.966761 179.426632 
L 822.248035 179.426632 
L 822.529228 179.426632 
L 822.810421 179.426632 
L 823.091615 179.426632 
L 823.372889 179.426632 
L 823.654082 179.426632 
L 823.935276 179.426632 
L 824.216469 179.426632 
L 824.497743 179.426632 
L 824.778936 179.426632 
L 825.06013 179.426632 
L 825.341323 179.426632 
L 825.622597 179.426632 
L 825.90379 179.426632 
L 826.184984 179.426632 
L 826.466177 179.426632 
L 826.747451 179.426632 
L 827.028645 179.426632 
L 827.309838 179.426632 
L 827.591031 179.426632 
L 827.872305 179.426632 
L 828.153499 179.426632 
L 828.434692 179.426632 
L 828.715886 179.426632 
L 828.997159 179.426632 
L 829.278353 179.426632 
L 829.559546 179.426632 
L 829.84074 179.426632 
L 830.122014 179.426632 
L 830.403207 179.426632 
L 830.6844 179.426632 
L 830.965594 179.426632 
L 831.246868 179.426632 
L 831.528061 179.426632 
L 831.809254 179.426632 
L 832.090448 179.426632 
L 832.371722 179.426632 
L 832.652915 179.426632 
L 832.934109 179.426632 
L 832.934109 179.37492 
L 832.934109 179.37492 
L 832.652915 179.326835 
L 832.371722 179.273678 
L 832.090448 179.218894 
L 831.809254 179.160953 
L 831.528061 179.099919 
L 831.246868 179.032892 
L 830.965594 178.962353 
L 830.6844 178.885243 
L 830.403207 178.802078 
L 830.122014 178.711012 
L 829.84074 178.614164 
L 829.559546 178.510001 
L 829.278353 178.398326 
L 828.997159 178.277141 
L 828.715886 178.145154 
L 828.434692 177.997593 
L 828.153499 177.831169 
L 827.872305 177.643082 
L 827.591031 177.430298 
L 827.309838 177.18909 
L 827.028645 176.917154 
L 826.747451 176.609491 
L 826.466177 176.264071 
L 826.184984 175.877022 
L 825.90379 175.445984 
L 825.622597 174.97007 
L 825.341323 174.450816 
L 825.06013 173.886475 
L 824.778936 173.279595 
L 824.497743 172.634622 
L 824.216469 171.954198 
L 823.935276 171.243435 
L 823.654082 170.506689 
L 823.372889 169.751825 
L 823.091615 168.985004 
L 822.810421 168.213835 
L 822.529228 167.44647 
L 822.248035 166.694921 
L 821.966761 165.968907 
L 821.685567 165.278921 
L 821.404374 164.637199 
L 821.123181 164.057636 
L 820.841907 163.557193 
L 820.560713 163.15026 
L 820.27952 162.8562 
L 819.998326 162.694469 
L 819.717053 162.681923 
L 819.435859 162.83429 
L 819.154666 163.165885 
L 818.873472 163.680498 
L 818.592198 164.378377 
L 818.311005 165.24923 
L 818.029812 166.265895 
L 817.748538 167.392301 
L 817.467344 168.586578 
L 817.186151 169.795962 
L 816.904957 170.967785 
L 816.623684 172.060122 
L 816.34249 173.036707 
L 816.061297 173.87496 
L 815.780103 174.563192 
L 815.498829 175.10574 
L 815.217636 175.511998 
L 814.936443 175.798808 
L 814.655249 175.984789 
L 814.373975 176.091445 
L 814.092782 176.136433 
L 813.811588 176.138259 
L 813.530395 176.114246 
L 813.249121 176.077423 
L 812.967928 176.040218 
L 812.686734 176.013811 
L 812.405541 176.005144 
L 812.124267 176.018752 
L 811.843074 176.060489 
L 811.56188 176.135761 
L 811.280687 176.247258 
L 810.999413 176.396217 
L 810.71822 176.585644 
L 810.437026 176.813579 
L 810.155833 177.075742 
L 809.874559 177.364245 
L 809.593365 177.673979 
L 809.312172 177.99451 
L 809.030979 178.316782 
L 808.749705 178.628613 
L 808.468511 178.922129 
L 808.187318 179.186311 
L 807.906124 179.414574 
z
" clip-path="url(#p909e637df9)" style="fill: #009e73"/>
   </g>
   <g id="matplotlib.axis_1">
    <g id="xtick_1">
     <g id="line2d_1">
      <defs>
       <path id="md905c08f98" d="M 0 0 
L 0 8 
" style="stroke: #000000; stroke-width: 2"/>
      </defs>
      <g>
       <use xlink:href="#md905c08f98" x="122.306852" y="199.12726" style="stroke: #000000; stroke-width: 2"/>
      </g>
     </g>
     <g id="text_1">
      <!-- 0.0 -->
      <g transform="translate(109.796852 225.011323) scale(0.18 -0.18)">
       <defs>
        <path id="Arial-BoldMT-30" d="M 1756 4600 
Q 2422 4600 2797 4125 
Q 3244 3563 3244 2259 
Q 3244 959 2794 391 
Q 2422 -78 1756 -78 
Q 1088 -78 678 436 
Q 269 950 269 2269 
Q 269 3563 719 4131 
Q 1091 4600 1756 4600 
z
M 1756 3872 
Q 1597 3872 1472 3770 
Q 1347 3669 1278 3406 
Q 1188 3066 1188 2259 
Q 1188 1453 1269 1151 
Q 1350 850 1473 750 
Q 1597 650 1756 650 
Q 1916 650 2041 751 
Q 2166 853 2234 1116 
Q 2325 1453 2325 2259 
Q 2325 3066 2244 3367 
Q 2163 3669 2039 3770 
Q 1916 3872 1756 3872 
z
" transform="scale(0.015625)"/>
        <path id="Arial-BoldMT-2e" d="M 459 0 
L 459 878 
L 1338 878 
L 1338 0 
L 459 0 
z
" transform="scale(0.015625)"/>
       </defs>
       <use xlink:href="#Arial-BoldMT-30"/>
       <use xlink:href="#Arial-BoldMT-2e" x="55.615234"/>
       <use xlink:href="#Arial-BoldMT-30" x="83.398438"/>
      </g>
     </g>
    </g>
    <g id="xtick_2">
     <g id="line2d_2">
      <g>
       <use xlink:href="#md905c08f98" x="291.035131" y="199.12726" style="stroke: #000000; stroke-width: 2"/>
      </g>
     </g>
     <g id="text_2">
      <!-- 0.5 -->
      <g transform="translate(278.525131 225.011323) scale(0.18 -0.18)">
       <defs>
        <path id="Arial-BoldMT-35" d="M 284 1178 
L 1159 1269 
Q 1197 972 1381 798 
Q 1566 625 1806 625 
Q 2081 625 2272 848 
Q 2463 1072 2463 1522 
Q 2463 1944 2273 2155 
Q 2084 2366 1781 2366 
Q 1403 2366 1103 2031 
L 391 2134 
L 841 4519 
L 3163 4519 
L 3163 3697 
L 1506 3697 
L 1369 2919 
Q 1663 3066 1969 3066 
Q 2553 3066 2959 2641 
Q 3366 2216 3366 1538 
Q 3366 972 3038 528 
Q 2591 -78 1797 -78 
Q 1163 -78 763 262 
Q 363 603 284 1178 
z
" transform="scale(0.015625)"/>
       </defs>
       <use xlink:href="#Arial-BoldMT-30"/>
       <use xlink:href="#Arial-BoldMT-2e" x="55.615234"/>
       <use xlink:href="#Arial-BoldMT-35" x="83.398438"/>
      </g>
     </g>
    </g>
    <g id="xtick_3">
     <g id="line2d_3">
      <g>
       <use xlink:href="#md905c08f98" x="459.763411" y="199.12726" style="stroke: #000000; stroke-width: 2"/>
      </g>
     </g>
     <g id="text_3">
      <!-- 1.0 -->
      <g transform="translate(447.253411 225.011323) scale(0.18 -0.18)">
       <defs>
        <path id="Arial-BoldMT-31" d="M 2519 0 
L 1641 0 
L 1641 3309 
Q 1159 2859 506 2644 
L 506 3441 
Q 850 3553 1253 3867 
Q 1656 4181 1806 4600 
L 2519 4600 
L 2519 0 
z
" transform="scale(0.015625)"/>
       </defs>
       <use xlink:href="#Arial-BoldMT-31"/>
       <use xlink:href="#Arial-BoldMT-2e" x="55.615234"/>
       <use xlink:href="#Arial-BoldMT-30" x="83.398438"/>
      </g>
     </g>
    </g>
    <g id="xtick_4">
     <g id="line2d_4">
      <g>
       <use xlink:href="#md905c08f98" x="628.49169" y="199.12726" style="stroke: #000000; stroke-width: 2"/>
      </g>
     </g>
     <g id="text_4">
      <!-- 1.5 -->
      <g transform="translate(615.98169 225.011323) scale(0.18 -0.18)">
       <use xlink:href="#Arial-BoldMT-31"/>
       <use xlink:href="#Arial-BoldMT-2e" x="55.615234"/>
       <use xlink:href="#Arial-BoldMT-35" x="83.398438"/>
      </g>
     </g>
    </g>
    <g id="xtick_5">
     <g id="line2d_5">
      <g>
       <use xlink:href="#md905c08f98" x="797.21997" y="199.12726" style="stroke: #000000; stroke-width: 2"/>
      </g>
     </g>
     <g id="text_5">
      <!-- 2.0 -->
      <g transform="translate(784.70997 225.011323) scale(0.18 -0.18)">
       <defs>
        <path id="Arial-BoldMT-32" d="M 3238 816 
L 3238 0 
L 159 0 
Q 209 463 459 877 
Q 709 1291 1447 1975 
Q 2041 2528 2175 2725 
Q 2356 2997 2356 3263 
Q 2356 3556 2198 3714 
Q 2041 3872 1763 3872 
Q 1488 3872 1325 3706 
Q 1163 3541 1138 3156 
L 263 3244 
Q 341 3969 753 4284 
Q 1166 4600 1784 4600 
Q 2463 4600 2850 4234 
Q 3238 3869 3238 3325 
Q 3238 3016 3127 2736 
Q 3016 2456 2775 2150 
Q 2616 1947 2200 1565 
Q 1784 1184 1673 1059 
Q 1563 934 1494 816 
L 3238 816 
z
" transform="scale(0.015625)"/>
       </defs>
       <use xlink:href="#Arial-BoldMT-32"/>
       <use xlink:href="#Arial-BoldMT-2e" x="55.615234"/>
       <use xlink:href="#Arial-BoldMT-30" x="83.398438"/>
      </g>
     </g>
    </g>
    <g id="xtick_6">
     <g id="line2d_6">
      <g>
       <use xlink:href="#md905c08f98" x="965.94825" y="199.12726" style="stroke: #000000; stroke-width: 2"/>
      </g>
     </g>
     <g id="text_6">
      <!-- 2.5 -->
      <g transform="translate(953.43825 225.011323) scale(0.18 -0.18)">
       <use xlink:href="#Arial-BoldMT-32"/>
       <use xlink:href="#Arial-BoldMT-2e" x="55.615234"/>
       <use xlink:href="#Arial-BoldMT-35" x="83.398438"/>
      </g>
     </g>
    </g>
    <g id="xtick_7">
     <g id="line2d_7">
      <g>
       <use xlink:href="#md905c08f98" x="1134.676529" y="199.12726" style="stroke: #000000; stroke-width: 2"/>
      </g>
     </g>
     <g id="text_7">
      <!-- 3.0 -->
      <g transform="translate(1122.166529 225.011323) scale(0.18 -0.18)">
       <defs>
        <path id="Arial-BoldMT-33" d="M 241 1216 
L 1091 1319 
Q 1131 994 1309 822 
Q 1488 650 1741 650 
Q 2013 650 2198 856 
Q 2384 1063 2384 1413 
Q 2384 1744 2206 1937 
Q 2028 2131 1772 2131 
Q 1603 2131 1369 2066 
L 1466 2781 
Q 1822 2772 2009 2936 
Q 2197 3100 2197 3372 
Q 2197 3603 2059 3740 
Q 1922 3878 1694 3878 
Q 1469 3878 1309 3722 
Q 1150 3566 1116 3266 
L 306 3403 
Q 391 3819 561 4067 
Q 731 4316 1036 4458 
Q 1341 4600 1719 4600 
Q 2366 4600 2756 4188 
Q 3078 3850 3078 3425 
Q 3078 2822 2419 2463 
Q 2813 2378 3048 2084 
Q 3284 1791 3284 1375 
Q 3284 772 2843 347 
Q 2403 -78 1747 -78 
Q 1125 -78 715 280 
Q 306 638 241 1216 
z
" transform="scale(0.015625)"/>
       </defs>
       <use xlink:href="#Arial-BoldMT-33"/>
       <use xlink:href="#Arial-BoldMT-2e" x="55.615234"/>
       <use xlink:href="#Arial-BoldMT-30" x="83.398438"/>
      </g>
     </g>
    </g>
    <g id="text_8">
     <!-- Retention time / min -->
     <g transform="translate(542.350469 245.447573) scale(0.18 -0.18)">
      <defs>
       <path id="Arial-BoldMT-52" d="M 469 0 
L 469 4581 
L 2416 4581 
Q 3150 4581 3483 4457 
Q 3816 4334 4016 4018 
Q 4216 3703 4216 3297 
Q 4216 2781 3912 2445 
Q 3609 2109 3006 2022 
Q 3306 1847 3501 1637 
Q 3697 1428 4028 894 
L 4588 0 
L 3481 0 
L 2813 997 
Q 2456 1531 2325 1670 
Q 2194 1809 2047 1861 
Q 1900 1913 1581 1913 
L 1394 1913 
L 1394 0 
L 469 0 
z
M 1394 2644 
L 2078 2644 
Q 2744 2644 2909 2700 
Q 3075 2756 3169 2893 
Q 3263 3031 3263 3238 
Q 3263 3469 3139 3611 
Q 3016 3753 2791 3791 
Q 2678 3806 2116 3806 
L 1394 3806 
L 1394 2644 
z
" transform="scale(0.015625)"/>
       <path id="Arial-BoldMT-65" d="M 2381 1056 
L 3256 909 
Q 3088 428 2723 176 
Q 2359 -75 1813 -75 
Q 947 -75 531 491 
Q 203 944 203 1634 
Q 203 2459 634 2926 
Q 1066 3394 1725 3394 
Q 2466 3394 2894 2905 
Q 3322 2416 3303 1406 
L 1103 1406 
Q 1113 1016 1316 798 
Q 1519 581 1822 581 
Q 2028 581 2168 693 
Q 2309 806 2381 1056 
z
M 2431 1944 
Q 2422 2325 2234 2523 
Q 2047 2722 1778 2722 
Q 1491 2722 1303 2513 
Q 1116 2303 1119 1944 
L 2431 1944 
z
" transform="scale(0.015625)"/>
       <path id="Arial-BoldMT-74" d="M 1981 3319 
L 1981 2619 
L 1381 2619 
L 1381 1281 
Q 1381 875 1398 808 
Q 1416 741 1477 697 
Q 1538 653 1625 653 
Q 1747 653 1978 738 
L 2053 56 
Q 1747 -75 1359 -75 
Q 1122 -75 931 4 
Q 741 84 652 211 
Q 563 338 528 553 
Q 500 706 500 1172 
L 500 2619 
L 97 2619 
L 97 3319 
L 500 3319 
L 500 3978 
L 1381 4491 
L 1381 3319 
L 1981 3319 
z
" transform="scale(0.015625)"/>
       <path id="Arial-BoldMT-6e" d="M 3478 0 
L 2600 0 
L 2600 1694 
Q 2600 2231 2544 2389 
Q 2488 2547 2361 2634 
Q 2234 2722 2056 2722 
Q 1828 2722 1647 2597 
Q 1466 2472 1398 2265 
Q 1331 2059 1331 1503 
L 1331 0 
L 453 0 
L 453 3319 
L 1269 3319 
L 1269 2831 
Q 1703 3394 2363 3394 
Q 2653 3394 2893 3289 
Q 3134 3184 3257 3021 
Q 3381 2859 3429 2653 
Q 3478 2447 3478 2063 
L 3478 0 
z
" transform="scale(0.015625)"/>
       <path id="Arial-BoldMT-69" d="M 459 3769 
L 459 4581 
L 1338 4581 
L 1338 3769 
L 459 3769 
z
M 459 0 
L 459 3319 
L 1338 3319 
L 1338 0 
L 459 0 
z
" transform="scale(0.015625)"/>
       <path id="Arial-BoldMT-6f" d="M 256 1706 
Q 256 2144 472 2553 
Q 688 2963 1083 3178 
Q 1478 3394 1966 3394 
Q 2719 3394 3200 2905 
Q 3681 2416 3681 1669 
Q 3681 916 3195 420 
Q 2709 -75 1972 -75 
Q 1516 -75 1102 131 
Q 688 338 472 736 
Q 256 1134 256 1706 
z
M 1156 1659 
Q 1156 1166 1390 903 
Q 1625 641 1969 641 
Q 2313 641 2545 903 
Q 2778 1166 2778 1666 
Q 2778 2153 2545 2415 
Q 2313 2678 1969 2678 
Q 1625 2678 1390 2415 
Q 1156 2153 1156 1659 
z
" transform="scale(0.015625)"/>
       <path id="Arial-BoldMT-20" transform="scale(0.015625)"/>
       <path id="Arial-BoldMT-6d" d="M 394 3319 
L 1203 3319 
L 1203 2866 
Q 1638 3394 2238 3394 
Q 2556 3394 2790 3262 
Q 3025 3131 3175 2866 
Q 3394 3131 3647 3262 
Q 3900 3394 4188 3394 
Q 4553 3394 4806 3245 
Q 5059 3097 5184 2809 
Q 5275 2597 5275 2122 
L 5275 0 
L 4397 0 
L 4397 1897 
Q 4397 2391 4306 2534 
Q 4184 2722 3931 2722 
Q 3747 2722 3584 2609 
Q 3422 2497 3350 2280 
Q 3278 2063 3278 1594 
L 3278 0 
L 2400 0 
L 2400 1819 
Q 2400 2303 2353 2443 
Q 2306 2584 2207 2653 
Q 2109 2722 1941 2722 
Q 1738 2722 1575 2612 
Q 1413 2503 1342 2297 
Q 1272 2091 1272 1613 
L 1272 0 
L 394 0 
L 394 3319 
z
" transform="scale(0.015625)"/>
       <path id="Arial-BoldMT-2f" d="M -9 -78 
L 1125 4659 
L 1784 4659 
L 638 -78 
L -9 -78 
z
" transform="scale(0.015625)"/>
      </defs>
      <use xlink:href="#Arial-BoldMT-52"/>
      <use xlink:href="#Arial-BoldMT-65" x="72.216797"/>
      <use xlink:href="#Arial-BoldMT-74" x="127.832031"/>
      <use xlink:href="#Arial-BoldMT-65" x="161.132812"/>
      <use xlink:href="#Arial-BoldMT-6e" x="216.748047"/>
      <use xlink:href="#Arial-BoldMT-74" x="277.832031"/>
      <use xlink:href="#Arial-BoldMT-69" x="311.132812"/>
      <use xlink:href="#Arial-BoldMT-6f" x="338.916016"/>
      <use xlink:href="#Arial-BoldMT-6e" x="400"/>
      <use xlink:href="#Arial-BoldMT-20" x="461.083984"/>
      <use xlink:href="#Arial-BoldMT-74" x="488.867188"/>
      <use xlink:href="#Arial-BoldMT-69" x="522.167969"/>
      <use xlink:href="#Arial-BoldMT-6d" x="549.951172"/>
      <use xlink:href="#Arial-BoldMT-65" x="638.867188"/>
      <use xlink:href="#Arial-BoldMT-20" x="694.482422"/>
      <use xlink:href="#Arial-BoldMT-2f" x="722.265625"/>
      <use xlink:href="#Arial-BoldMT-20" x="750.048828"/>
      <use xlink:href="#Arial-BoldMT-6d" x="777.832031"/>
      <use xlink:href="#Arial-BoldMT-69" x="866.748047"/>
      <use xlink:href="#Arial-BoldMT-6e" x="894.53125"/>
     </g>
    </g>
   </g>
   <g id="matplotlib.axis_2">
    <g id="ytick_1">
     <g id="line2d_8">
      <defs>
       <path id="ma8989b8c72" d="M 0 0 
L -8 0 
" style="stroke: #000000; stroke-width: 2"/>
      </defs>
      <g>
       <use xlink:href="#ma8989b8c72" x="71.702428" y="179.662071" style="stroke: #000000; stroke-width: 2"/>
      </g>
     </g>
     <g id="text_9">
      <!-- 0.00 -->
      <g transform="translate(23.67274 186.104102) scale(0.18 -0.18)">
       <use xlink:href="#Arial-BoldMT-30"/>
       <use xlink:href="#Arial-BoldMT-2e" x="55.615234"/>
       <use xlink:href="#Arial-BoldMT-30" x="83.398438"/>
       <use xlink:href="#Arial-BoldMT-30" x="139.013672"/>
      </g>
     </g>
    </g>
    <g id="ytick_2">
     <g id="line2d_9">
      <g>
       <use xlink:href="#ma8989b8c72" x="71.702428" y="137.725329" style="stroke: #000000; stroke-width: 2"/>
      </g>
     </g>
     <g id="text_10">
      <!-- 0.25 -->
      <g transform="translate(23.67274 144.167361) scale(0.18 -0.18)">
       <use xlink:href="#Arial-BoldMT-30"/>
       <use xlink:href="#Arial-BoldMT-2e" x="55.615234"/>
       <use xlink:href="#Arial-BoldMT-32" x="83.398438"/>
       <use xlink:href="#Arial-BoldMT-35" x="139.013672"/>
      </g>
     </g>
    </g>
    <g id="ytick_3">
     <g id="line2d_10">
      <g>
       <use xlink:href="#ma8989b8c72" x="71.702428" y="95.788588" style="stroke: #000000; stroke-width: 2"/>
      </g>
     </g>
     <g id="text_11">
      <!-- 0.50 -->
      <g transform="translate(23.67274 102.230619) scale(0.18 -0.18)">
       <use xlink:href="#Arial-BoldMT-30"/>
       <use xlink:href="#Arial-BoldMT-2e" x="55.615234"/>
       <use xlink:href="#Arial-BoldMT-35" x="83.398438"/>
       <use xlink:href="#Arial-BoldMT-30" x="139.013672"/>
      </g>
     </g>
    </g>
    <g id="ytick_4">
     <g id="line2d_11">
      <g>
       <use xlink:href="#ma8989b8c72" x="71.702428" y="53.851846" style="stroke: #000000; stroke-width: 2"/>
      </g>
     </g>
     <g id="text_12">
      <!-- 0.75 -->
      <g transform="translate(23.67274 60.293877) scale(0.18 -0.18)">
       <defs>
        <path id="Arial-BoldMT-37" d="M 272 3703 
L 272 4519 
L 3275 4519 
L 3275 3881 
Q 2903 3516 2518 2831 
Q 2134 2147 1932 1376 
Q 1731 606 1734 0 
L 888 0 
Q 909 950 1279 1937 
Q 1650 2925 2269 3703 
L 272 3703 
z
" transform="scale(0.015625)"/>
       </defs>
       <use xlink:href="#Arial-BoldMT-30"/>
       <use xlink:href="#Arial-BoldMT-2e" x="55.615234"/>
       <use xlink:href="#Arial-BoldMT-37" x="83.398438"/>
       <use xlink:href="#Arial-BoldMT-35" x="139.013672"/>
      </g>
     </g>
    </g>
    <g id="ytick_5">
     <g id="line2d_12">
      <g>
       <use xlink:href="#ma8989b8c72" x="71.702428" y="11.915105" style="stroke: #000000; stroke-width: 2"/>
      </g>
     </g>
     <g id="text_13">
      <!-- 1.00 -->
      <g transform="translate(23.67274 18.357136) scale(0.18 -0.18)">
       <use xlink:href="#Arial-BoldMT-31"/>
       <use xlink:href="#Arial-BoldMT-2e" x="55.615234"/>
       <use xlink:href="#Arial-BoldMT-30" x="83.398438"/>
       <use xlink:href="#Arial-BoldMT-30" x="139.013672"/>
      </g>
     </g>
    </g>
    <g id="text_14">
     <!-- Rel. Intensity -->
     <g transform="translate(15.884303 157.071875) rotate(-90) scale(0.18 -0.18)">
      <defs>
       <path id="Arial-BoldMT-6c" d="M 459 0 
L 459 4581 
L 1338 4581 
L 1338 0 
L 459 0 
z
" transform="scale(0.015625)"/>
       <path id="Arial-BoldMT-49" d="M 438 0 
L 438 4581 
L 1363 4581 
L 1363 0 
L 438 0 
z
" transform="scale(0.015625)"/>
       <path id="Arial-BoldMT-73" d="M 150 947 
L 1031 1081 
Q 1088 825 1259 692 
Q 1431 559 1741 559 
Q 2081 559 2253 684 
Q 2369 772 2369 919 
Q 2369 1019 2306 1084 
Q 2241 1147 2013 1200 
Q 950 1434 666 1628 
Q 272 1897 272 2375 
Q 272 2806 612 3100 
Q 953 3394 1669 3394 
Q 2350 3394 2681 3172 
Q 3013 2950 3138 2516 
L 2309 2363 
Q 2256 2556 2107 2659 
Q 1959 2763 1684 2763 
Q 1338 2763 1188 2666 
Q 1088 2597 1088 2488 
Q 1088 2394 1175 2328 
Q 1294 2241 1995 2081 
Q 2697 1922 2975 1691 
Q 3250 1456 3250 1038 
Q 3250 581 2869 253 
Q 2488 -75 1741 -75 
Q 1063 -75 667 200 
Q 272 475 150 947 
z
" transform="scale(0.015625)"/>
       <path id="Arial-BoldMT-79" d="M 44 3319 
L 978 3319 
L 1772 963 
L 2547 3319 
L 3456 3319 
L 2284 125 
L 2075 -453 
Q 1959 -744 1854 -897 
Q 1750 -1050 1614 -1145 
Q 1478 -1241 1279 -1294 
Q 1081 -1347 831 -1347 
Q 578 -1347 334 -1294 
L 256 -606 
Q 463 -647 628 -647 
Q 934 -647 1081 -467 
Q 1228 -288 1306 -9 
L 44 3319 
z
" transform="scale(0.015625)"/>
      </defs>
      <use xlink:href="#Arial-BoldMT-52"/>
      <use xlink:href="#Arial-BoldMT-65" x="72.216797"/>
      <use xlink:href="#Arial-BoldMT-6c" x="127.832031"/>
      <use xlink:href="#Arial-BoldMT-2e" x="155.615234"/>
      <use xlink:href="#Arial-BoldMT-20" x="183.398438"/>
      <use xlink:href="#Arial-BoldMT-49" x="211.181641"/>
      <use xlink:href="#Arial-BoldMT-6e" x="238.964844"/>
      <use xlink:href="#Arial-BoldMT-74" x="300.048828"/>
      <use xlink:href="#Arial-BoldMT-65" x="333.349609"/>
      <use xlink:href="#Arial-BoldMT-6e" x="388.964844"/>
      <use xlink:href="#Arial-BoldMT-73" x="450.048828"/>
      <use xlink:href="#Arial-BoldMT-69" x="505.664062"/>
      <use xlink:href="#Arial-BoldMT-74" x="533.447266"/>
      <use xlink:href="#Arial-BoldMT-79" x="566.748047"/>
     </g>
    </g>
   </g>
   <g id="line2d_13">
    <path d="M 122.306852 179.650645 
L 164.488922 179.645225 
L 177.424754 179.649325 
L 191.766659 179.527654 
L 194.297586 179.505883 
L 197.953362 179.473653 
L 199.359435 179.193635 
L 202.17157 178.46091 
L 203.577638 178.185694 
L 204.14007 177.769925 
L 204.702497 176.839374 
L 205.264924 175.203661 
L 206.108564 171.557605 
L 207.233419 166.461907 
L 207.795846 164.795125 
L 208.358273 163.972934 
L 208.639486 163.859242 
L 208.9207 163.920238 
L 209.201913 164.147631 
L 209.76434 165.121594 
L 210.326767 166.929812 
L 210.889194 169.720359 
L 211.732835 175.413165 
L 212.857699 183.222626 
L 213.420126 186.148031 
L 213.982553 188.181059 
L 214.54498 189.41494 
L 215.107407 190.032994 
L 215.669835 190.212395 
L 216.232262 190.090172 
L 217.075902 189.534712 
L 218.200756 188.417482 
L 221.012892 185.484061 
L 222.981396 183.823304 
L 224.949891 182.431519 
L 226.637172 181.480302 
L 228.324454 180.794341 
L 230.011735 180.346139 
L 231.980229 180.035563 
L 234.792375 179.842339 
L 240.979072 179.721015 
L 260.66404 179.843119 
L 264.882253 179.796224 
L 272.756232 179.648267 
L 285.973288 179.628546 
L 330.967493 179.56214 
L 347.840325 179.8751 
L 369.212573 180.286572 
L 377.930193 180.27258 
L 386.085405 180.015581 
L 391.147249 179.649222 
L 407.738867 177.833398 
L 409.988576 177.451681 
L 411.394643 177.024232 
L 414.206779 175.998229 
L 415.331633 175.917672 
L 416.456487 176.122276 
L 417.862555 176.652966 
L 423.768039 179.326707 
L 425.736533 179.813582 
L 427.986242 180.164638 
L 431.642038 180.469851 
L 434.172959 180.503947 
L 435.0166 180.33035 
L 435.860241 179.963722 
L 437.266308 179.017738 
L 438.672376 178.101471 
L 439.79723 177.637395 
L 440.922084 177.47818 
L 442.046938 177.594129 
L 443.171792 177.938756 
L 445.140287 178.808861 
L 447.389995 179.780972 
L 449.35851 180.408088 
L 451.608218 180.874462 
L 454.701567 181.194566 
L 460.044645 181.465831 
L 472.136806 181.931276 
L 475.230175 182.059728 
L 476.073796 181.973047 
L 476.636223 181.68721 
L 476.917456 181.335445 
L 477.19865 180.699347 
L 477.479883 179.605238 
L 477.761077 177.817695 
L 478.042311 175.04768 
L 478.323504 170.976247 
L 478.885931 157.74157 
L 479.448358 136.703928 
L 481.698107 36.360377 
L 482.260534 25.973145 
L 482.822961 20.719007 
L 483.385388 18.380779 
L 483.666581 17.855921 
L 483.947815 17.599894 
L 484.510242 17.522813 
L 485.072669 17.516594 
L 485.635096 17.294186 
L 486.197523 16.718626 
L 487.322377 14.85391 
L 488.447231 13.246859 
L 489.009658 12.656191 
L 489.572085 12.250269 
L 491.54056 11.974107 
L 492.102987 12.155082 
L 493.227841 12.769837 
L 493.790268 13.137716 
L 494.352695 13.760589 
L 494.915122 14.663746 
L 496.039977 16.947344 
L 496.883637 19.282064 
L 497.727258 22.323781 
L 498.570918 26.247342 
L 499.414539 31.299088 
L 500.539393 39.96832 
L 501.664247 50.906567 
L 503.070335 67.570749 
L 505.03885 94.346539 
L 507.007324 120.416426 
L 508.413412 135.918033 
L 509.538266 145.993394 
L 510.66312 154.085878 
L 511.787974 160.433932 
L 512.912829 165.301027 
L 514.037683 168.981183 
L 515.162537 171.722825 
L 516.287391 173.755313 
L 517.412245 175.273627 
L 518.537099 176.407827 
L 519.661953 177.262683 
L 521.068001 178.053849 
L 523.036516 178.87595 
L 525.286224 179.592751 
L 526.973505 179.903715 
L 530.910495 180.52408 
L 534.285057 181.001901 
L 538.50328 181.329129 
L 539.909328 181.223825 
L 542.440269 180.875176 
L 543.846317 180.936977 
L 550.595482 181.643835 
L 552.84519 181.52281 
L 555.657326 181.410044 
L 561.56279 181.39193 
L 562.687644 181.151544 
L 563.812498 180.613054 
L 565.781013 179.541554 
L 566.624673 179.347289 
L 567.468294 179.338945 
L 568.593148 179.54141 
L 573.373798 180.732835 
L 575.623506 180.849064 
L 578.435642 180.833259 
L 579.279262 180.619175 
L 579.841689 180.182479 
L 580.404116 179.349572 
L 580.966543 178.073329 
L 582.091397 174.71085 
L 583.216252 171.651304 
L 583.778679 170.597416 
L 584.341106 169.921826 
L 584.903533 169.600063 
L 585.46596 169.589459 
L 586.028387 169.842324 
L 586.872048 170.609856 
L 587.996902 172.098919 
L 590.527844 175.705454 
L 591.652698 176.896202 
L 592.777552 177.756522 
L 593.902406 178.354779 
L 595.308454 178.796888 
L 596.714541 178.972035 
L 601.495151 179.123117 
L 604.307287 179.545073 
L 605.432141 179.408744 
L 608.244316 178.89359 
L 609.650364 178.974926 
L 611.618879 179.370155 
L 614.712207 180.000536 
L 618.93043 180.465389 
L 621.461332 180.532111 
L 626.523176 180.417283 
L 629.616545 179.925384 
L 631.585059 179.971848 
L 638.052951 180.313002 
L 641.427513 180.233799 
L 642.552367 180.198927 
L 643.114794 179.870571 
L 643.396028 179.470004 
L 643.677221 178.822121 
L 644.239648 176.558884 
L 644.802075 172.837812 
L 645.645736 165.029656 
L 647.051784 151.203983 
L 647.614211 147.186996 
L 648.176638 144.541867 
L 648.457871 143.758093 
L 648.739065 143.319203 
L 649.020298 143.207655 
L 649.301492 143.405197 
L 649.582725 143.883492 
L 650.145152 145.569098 
L 650.988813 149.482504 
L 654.363376 167.643408 
L 655.206996 170.757794 
L 656.050657 172.99664 
L 656.613084 173.919964 
L 657.175511 174.340119 
L 657.456704 174.359211 
L 658.019131 174.069834 
L 658.862792 173.096702 
L 659.987646 171.741668 
L 660.550073 171.32586 
L 661.1125 171.148701 
L 661.674927 171.207838 
L 662.237354 171.467634 
L 663.080975 172.160418 
L 664.205829 173.479949 
L 667.017964 177.048141 
L 668.142818 178.110376 
L 669.267673 178.868012 
L 670.392527 179.337479 
L 671.798614 179.646635 
L 673.485896 179.81078 
L 675.45441 179.751954 
L 677.985312 179.700437 
L 683.609583 179.897988 
L 688.671426 180.459036 
L 690.921135 180.546315 
L 691.764795 180.405633 
L 692.327222 180.088883 
L 692.889649 179.47558 
L 693.452076 178.540865 
L 695.983018 173.612006 
L 696.545445 173.117331 
L 697.107873 172.915935 
L 697.6703 172.980266 
L 698.232727 173.268117 
L 699.076347 173.998946 
L 700.482435 175.606316 
L 702.169716 177.49989 
L 703.29457 178.469758 
L 704.419424 179.150909 
L 705.544278 179.557849 
L 706.669133 179.71513 
L 707.793987 179.654161 
L 710.043695 179.213233 
L 711.730976 178.982016 
L 713.137064 178.99663 
L 715.386772 179.282566 
L 719.886189 180.000304 
L 721.292236 179.988152 
L 724.666799 179.791097 
L 726.635313 179.910922 
L 730.572303 180.193721 
L 731.97835 180.054091 
L 737.040234 179.184643 
L 746.039067 179.518112 
L 751.100911 179.991759 
L 753.913046 179.995389 
L 762.349452 179.983366 
L 770.504664 180.078766 
L 773.035566 180.010236 
L 774.722847 179.67916 
L 776.691362 179.330346 
L 778.94107 179.251826 
L 781.472012 179.373175 
L 790.189612 180.069365 
L 793.001747 180.005454 
L 797.782437 179.525919 
L 800.594532 179.732465 
L 804.812755 179.994129 
L 806.499996 179.983825 
L 807.343657 179.750666 
L 808.187318 179.186311 
L 809.312172 177.99451 
L 810.437026 176.813579 
L 811.280687 176.247258 
L 812.124267 176.018752 
L 812.967928 176.040218 
L 814.092782 176.136433 
L 814.655249 175.984789 
L 815.217636 175.511998 
L 815.780103 174.563192 
L 816.34249 173.036707 
L 817.186151 169.795962 
L 818.311005 165.24923 
L 818.873472 163.680498 
L 819.435859 162.83429 
L 819.717053 162.681923 
L 819.998326 162.694469 
L 820.27952 162.8562 
L 820.841907 163.557193 
L 821.685567 165.278921 
L 823.091615 168.985004 
L 824.778936 173.279595 
L 825.90379 175.445984 
L 826.747451 176.609491 
L 827.591031 177.430298 
L 828.715886 178.145154 
L 830.122014 178.711012 
L 831.809254 179.160953 
L 834.340156 179.588019 
L 838.277186 179.956423 
L 843.057796 180.209619 
L 847.557212 180.288147 
L 848.96334 180.122273 
L 849.525727 179.899504 
L 850.088194 179.470726 
L 850.650581 178.734777 
L 851.213048 177.644531 
L 852.056629 175.462752 
L 853.462757 171.749432 
L 854.025144 170.707454 
L 854.587611 170.031154 
L 855.149998 169.712002 
L 855.712465 169.701486 
L 856.274852 169.943177 
L 857.118513 170.674627 
L 858.243367 172.094985 
L 861.336736 176.368168 
L 862.46159 177.466175 
L 863.586444 178.230774 
L 864.992491 178.859841 
L 866.679813 179.327355 
L 868.648247 179.621914 
L 871.460423 179.847761 
L 878.771934 180.018913 
L 879.896788 179.854357 
L 880.740449 179.541888 
L 882.427771 178.561186 
L 883.552625 178.049024 
L 884.677479 177.853764 
L 885.802333 177.920037 
L 887.20838 178.224702 
L 891.707797 179.423256 
L 893.957505 179.667591 
L 896.488407 179.662936 
L 900.144243 179.720789 
L 907.737029 179.976523 
L 911.111591 179.856323 
L 914.486153 179.751648 
L 938.951751 179.993899 
L 945.700875 179.783076 
L 946.82573 179.531909 
L 948.231777 178.902305 
L 949.637825 178.309827 
L 950.762679 178.108067 
L 951.887533 178.149785 
L 953.574854 178.467525 
L 958.355464 179.478782 
L 961.16764 179.732209 
L 966.229443 179.907149 
L 978.884112 180.014829 
L 980.29016 179.922575 
L 980.852547 179.74303 
L 981.415014 179.376489 
L 981.977401 178.74167 
L 982.539868 177.7971 
L 983.664722 175.230365 
L 984.508383 173.351046 
L 985.07077 172.420536 
L 985.633237 171.824652 
L 986.195624 171.551096 
L 986.758091 171.551442 
L 987.320478 171.771292 
L 988.164139 172.403643 
L 989.570186 173.888817 
L 991.819894 176.273391 
L 993.226022 177.390343 
L 994.63207 178.183889 
L 996.038118 178.712036 
L 998.006632 179.1736 
L 1000.537534 179.499888 
L 1004.755757 179.768813 
L 1015.723105 179.900137 
L 1053.405758 179.743742 
L 1057.623981 179.543673 
L 1064.6543 179.716447 
L 1070.840957 179.738227 
L 1118.366104 179.626546 
L 1134.395336 179.642627 
L 1134.395336 179.642627 
" clip-path="url(#p909e637df9)" style="fill: none; stroke: #000000; stroke-width: 2.5; stroke-linecap: square"/>
   </g>
   <g id="line2d_14">
    <path d="M 257.289475 199.12726 
L 257.289475 3.00024 
" clip-path="url(#p909e637df9)" style="fill: none; stroke: #d55e00; stroke-width: 2; stroke-linecap: square"/>
   </g>
   <g id="line2d_15">
    <path d="M 1134.676529 199.12726 
L 1134.676529 3.00024 
" clip-path="url(#p909e637df9)" style="fill: none; stroke: #d55e00; stroke-width: 2; stroke-linecap: square"/>
   </g>
   <g id="patch_3">
    <path d="M 71.702428 199.12726 
L 71.702428 3.00024 
" style="fill: none; stroke: #000000; stroke-width: 2; stroke-linejoin: miter; stroke-linecap: square"/>
   </g>
   <g id="patch_4">
    <path d="M 1184.99976 199.12726 
L 1184.99976 3.00024 
" style="fill: none; stroke: #000000; stroke-width: 2; stroke-linejoin: miter; stroke-linecap: square"/>
   </g>
   <g id="patch_5">
    <path d="M 71.702428 199.12726 
L 1184.99976 199.12726 
" style="fill: none; stroke: #000000; stroke-width: 2; stroke-linejoin: miter; stroke-linecap: square"/>
   </g>
   <g id="patch_6">
    <path d="M 71.702428 3.00024 
L 1184.99976 3.00024 
" style="fill: none; stroke: #000000; stroke-width: 2; stroke-linejoin: miter; stroke-linecap: square"/>
   </g>
   <g id="text_15">
    <!-- ANALYSIS -->
    <g style="fill: #d55e00" transform="translate(250.955938 133.011193) rotate(-90) scale(0.14994 -0.14994)">
     <defs>
      <path id="Arial-BoldMT-41" d="M 4597 0 
L 3591 0 
L 3191 1041 
L 1359 1041 
L 981 0 
L 0 0 
L 1784 4581 
L 2763 4581 
L 4597 0 
z
M 2894 1813 
L 2263 3513 
L 1644 1813 
L 2894 1813 
z
" transform="scale(0.015625)"/>
      <path id="Arial-BoldMT-4e" d="M 475 0 
L 475 4581 
L 1375 4581 
L 3250 1522 
L 3250 4581 
L 4109 4581 
L 4109 0 
L 3181 0 
L 1334 2988 
L 1334 0 
L 475 0 
z
" transform="scale(0.015625)"/>
      <path id="Arial-BoldMT-4c" d="M 491 0 
L 491 4544 
L 1416 4544 
L 1416 772 
L 3716 772 
L 3716 0 
L 491 0 
z
" transform="scale(0.015625)"/>
      <path id="Arial-BoldMT-59" d="M 1669 0 
L 1669 1928 
L -9 4581 
L 1075 4581 
L 2153 2769 
L 3209 4581 
L 4275 4581 
L 2591 1922 
L 2591 0 
L 1669 0 
z
" transform="scale(0.015625)"/>
      <path id="Arial-BoldMT-53" d="M 231 1491 
L 1131 1578 
Q 1213 1125 1461 912 
Q 1709 700 2131 700 
Q 2578 700 2804 889 
Q 3031 1078 3031 1331 
Q 3031 1494 2936 1608 
Q 2841 1722 2603 1806 
Q 2441 1863 1863 2006 
Q 1119 2191 819 2459 
Q 397 2838 397 3381 
Q 397 3731 595 4036 
Q 794 4341 1167 4500 
Q 1541 4659 2069 4659 
Q 2931 4659 3367 4281 
Q 3803 3903 3825 3272 
L 2900 3231 
Q 2841 3584 2645 3739 
Q 2450 3894 2059 3894 
Q 1656 3894 1428 3728 
Q 1281 3622 1281 3444 
Q 1281 3281 1419 3166 
Q 1594 3019 2269 2859 
Q 2944 2700 3267 2529 
Q 3591 2359 3773 2064 
Q 3956 1769 3956 1334 
Q 3956 941 3737 597 
Q 3519 253 3119 86 
Q 2719 -81 2122 -81 
Q 1253 -81 787 320 
Q 322 722 231 1491 
z
" transform="scale(0.015625)"/>
     </defs>
     <use xlink:href="#Arial-BoldMT-41"/>
     <use xlink:href="#Arial-BoldMT-4e" x="72.216797"/>
     <use xlink:href="#Arial-BoldMT-41" x="144.433594"/>
     <use xlink:href="#Arial-BoldMT-4c" x="216.650391"/>
     <use xlink:href="#Arial-BoldMT-59" x="268.609375"/>
     <use xlink:href="#Arial-BoldMT-53" x="335.308594"/>
     <use xlink:href="#Arial-BoldMT-49" x="402.007812"/>
     <use xlink:href="#Arial-BoldMT-53" x="429.791016"/>
    </g>
   </g>
   <g id="text_16">
    <!-- START -->
    <g style="fill: #d55e00" transform="translate(274.771031 120.222951) rotate(-90) scale(0.14994 -0.14994)">
     <defs>
      <path id="Arial-BoldMT-54" d="M 1497 0 
L 1497 3806 
L 138 3806 
L 138 4581 
L 3778 4581 
L 3778 3806 
L 2422 3806 
L 2422 0 
L 1497 0 
z
" transform="scale(0.015625)"/>
     </defs>
     <use xlink:href="#Arial-BoldMT-53"/>
     <use xlink:href="#Arial-BoldMT-54" x="66.699219"/>
     <use xlink:href="#Arial-BoldMT-41" x="120.408203"/>
     <use xlink:href="#Arial-BoldMT-52" x="192.625"/>
     <use xlink:href="#Arial-BoldMT-54" x="264.841797"/>
    </g>
   </g>
   <g id="text_17">
    <!-- ANALYSIS -->
    <g style="fill: #d55e00" transform="translate(1128.342991 133.011193) rotate(-90) scale(0.14994 -0.14994)">
     <use xlink:href="#Arial-BoldMT-41"/>
     <use xlink:href="#Arial-BoldMT-4e" x="72.216797"/>
     <use xlink:href="#Arial-BoldMT-41" x="144.433594"/>
     <use xlink:href="#Arial-BoldMT-4c" x="216.650391"/>
     <use xlink:href="#Arial-BoldMT-59" x="268.609375"/>
     <use xlink:href="#Arial-BoldMT-53" x="335.308594"/>
     <use xlink:href="#Arial-BoldMT-49" x="402.007812"/>
     <use xlink:href="#Arial-BoldMT-53" x="429.791016"/>
    </g>
   </g>
   <g id="text_18">
    <!-- END -->
    <g style="fill: #d55e00" transform="translate(1152.158084 111.6178) rotate(-90) scale(0.14994 -0.14994)">
     <defs>
      <path id="Arial-BoldMT-45" d="M 466 0 
L 466 4581 
L 3863 4581 
L 3863 3806 
L 1391 3806 
L 1391 2791 
L 3691 2791 
L 3691 2019 
L 1391 2019 
L 1391 772 
L 3950 772 
L 3950 0 
L 466 0 
z
" transform="scale(0.015625)"/>
      <path id="Arial-BoldMT-44" d="M 463 4581 
L 2153 4581 
Q 2725 4581 3025 4494 
Q 3428 4375 3715 4072 
Q 4003 3769 4153 3330 
Q 4303 2891 4303 2247 
Q 4303 1681 4163 1272 
Q 3991 772 3672 463 
Q 3431 228 3022 97 
Q 2716 0 2203 0 
L 463 0 
L 463 4581 
z
M 1388 3806 
L 1388 772 
L 2078 772 
Q 2466 772 2638 816 
Q 2863 872 3011 1006 
Q 3159 1141 3253 1448 
Q 3347 1756 3347 2288 
Q 3347 2819 3253 3103 
Q 3159 3388 2990 3547 
Q 2822 3706 2563 3763 
Q 2369 3806 1803 3806 
L 1388 3806 
z
" transform="scale(0.015625)"/>
     </defs>
     <use xlink:href="#Arial-BoldMT-45"/>
     <use xlink:href="#Arial-BoldMT-4e" x="66.699219"/>
     <use xlink:href="#Arial-BoldMT-44" x="138.916016"/>
    </g>
   </g>
  </g>
 </g>
 <defs>
  <clipPath id="p909e637df9">
   <rect x="71.702428" y="3.00024" width="1113.297333" height="196.12702"/>
  </clipPath>
 </defs>
</svg>
