<?xml version="1.0" encoding="utf-8" standalone="no"?>
<!DOCTYPE svg PUBLIC "-//W3C//DTD SVG 1.1//EN"
  "http://www.w3.org/Graphics/SVG/1.1/DTD/svg11.dtd">
<svg xmlns:xlink="http://www.w3.org/1999/xlink" width="1188pt" height="252pt" viewBox="0 0 1188 252" xmlns="http://www.w3.org/2000/svg" version="1.1">
 <metadata>
  <rdf:RDF xmlns:dc="http://purl.org/dc/elements/1.1/" xmlns:cc="http://creativecommons.org/ns#" xmlns:rdf="http://www.w3.org/1999/02/22-rdf-syntax-ns#">
   <cc:Work>
    <dc:type rdf:resource="http://purl.org/dc/dcmitype/StillImage"/>
    <dc:date>2024-05-14T22:49:52.527321</dc:date>
    <dc:format>image/svg+xml</dc:format>
    <dc:creator>
     <cc:Agent>
      <dc:title>Matplotlib v3.8.0, https://matplotlib.org/</dc:title>
     </cc:Agent>
    </dc:creator>
   </cc:Work>
  </rdf:RDF>
 </metadata>
 <defs>
  <style type="text/css">*{stroke-linejoin: round; stroke-linecap: butt}</style>
 </defs>
 <g id="figure_1">
  <g id="patch_1">
   <path d="M 0 252 
L 1188 252 
L 1188 0 
L 0 0 
z
" style="fill: #ffffff"/>
  </g>
  <g id="axes_1">
   <g id="patch_2">
    <path d="M 61.69274 199.12726 
L 1184.99976 199.12726 
L 1184.99976 3.00024 
L 61.69274 3.00024 
z
" style="fill: #ffffff"/>
   </g>
   <g id="PolyCollection_1">
    <path d="M 715.536865 172.768047 
L 715.536865 173.463017 
L 715.820508 173.463017 
L 716.104191 173.463017 
L 716.387834 173.463017 
L 716.671517 173.463017 
L 716.95516 173.463017 
L 717.238844 173.463017 
L 717.522486 173.463017 
L 717.80617 173.463017 
L 718.089813 173.463017 
L 718.373496 173.463017 
L 718.657139 173.463017 
L 718.940822 173.463017 
L 719.224465 173.463017 
L 719.508149 173.463017 
L 719.791791 173.463017 
L 720.075475 173.463017 
L 720.359118 173.463017 
L 720.642801 173.463017 
L 720.926444 173.463017 
L 721.210127 173.463017 
L 721.49377 173.463017 
L 721.777454 173.463017 
L 722.061096 173.463017 
L 722.34478 173.463017 
L 722.628423 173.463017 
L 722.912106 173.463017 
L 723.195749 173.463017 
L 723.479432 173.463017 
L 723.763075 173.463017 
L 724.046758 173.463017 
L 724.330401 173.463017 
L 724.614085 173.463017 
L 724.897728 173.463017 
L 725.181411 173.463017 
L 725.465054 173.463017 
L 725.748737 173.463017 
L 726.03238 173.463017 
L 726.316063 173.463017 
L 726.599706 173.463017 
L 726.88339 173.463017 
L 727.167032 173.463017 
L 727.450716 173.463017 
L 727.734359 173.463017 
L 728.018042 173.463017 
L 728.301685 173.463017 
L 728.585368 173.463017 
L 728.869011 173.463017 
L 729.152695 173.463017 
L 729.436337 173.463017 
L 729.720021 173.463017 
L 730.003704 173.463017 
L 730.287347 173.463017 
L 730.57103 173.463017 
L 730.854673 173.463017 
L 731.138357 173.463017 
L 731.422 173.463017 
L 731.705683 173.463017 
L 731.989326 173.463017 
L 732.273009 173.463017 
L 732.556652 173.463017 
L 732.840335 173.463017 
L 733.123978 173.463017 
L 733.407662 173.463017 
L 733.691304 173.463017 
L 733.974988 173.463017 
L 734.258631 173.463017 
L 734.542314 173.463017 
L 734.825957 173.463017 
L 735.10964 173.463017 
L 735.393283 173.463017 
L 735.676967 173.463017 
L 735.960609 173.463017 
L 736.244293 173.463017 
L 736.527936 173.463017 
L 736.811619 173.463017 
L 737.095262 173.463017 
L 737.378945 173.463017 
L 737.662588 173.463017 
L 737.946272 173.463017 
L 738.229914 173.463017 
L 738.513598 173.463017 
L 738.797241 173.463017 
L 739.080924 173.463017 
L 739.364567 173.463017 
L 739.64825 173.463017 
L 739.931893 173.463017 
L 739.931893 173.238315 
L 739.931893 173.238315 
L 739.64825 172.90345 
L 739.364567 172.550803 
L 739.080924 172.180855 
L 738.797241 171.793823 
L 738.513598 171.387602 
L 738.229914 170.962002 
L 737.946272 170.51777 
L 737.662588 170.055467 
L 737.378945 169.574604 
L 737.095262 169.075721 
L 736.811619 168.557799 
L 736.527936 168.021625 
L 736.244293 167.470895 
L 735.960609 166.904108 
L 735.676967 166.321042 
L 735.393283 165.723241 
L 735.10964 165.109872 
L 734.825957 164.471352 
L 734.542314 163.807609 
L 734.258631 163.11483 
L 733.974988 162.38363 
L 733.691304 161.604114 
L 733.407662 160.770502 
L 733.123978 159.865193 
L 732.840335 158.869536 
L 732.556652 157.768094 
L 732.273009 156.538891 
L 731.989326 155.154786 
L 731.705683 153.591225 
L 731.422 151.820206 
L 731.138357 149.808935 
L 730.854673 147.523946 
L 730.57103 144.929742 
L 730.287347 141.989795 
L 730.003704 138.669556 
L 729.720021 134.926982 
L 729.436337 130.731788 
L 729.152695 126.062216 
L 728.869011 120.899085 
L 728.585368 115.236935 
L 728.301685 109.094065 
L 728.018042 102.513432 
L 727.734359 95.556911 
L 727.450716 88.33555 
L 727.167032 80.992395 
L 726.88339 73.678126 
L 726.599706 66.56394 
L 726.316063 59.82937 
L 726.03238 53.645339 
L 725.748737 48.118627 
L 725.465054 43.364237 
L 725.181411 39.442773 
L 724.897728 36.300147 
L 724.614085 33.841747 
L 724.330401 31.995373 
L 724.046758 30.63083 
L 723.763075 29.574279 
L 723.479432 28.805973 
L 723.195749 28.25039 
L 722.912106 27.847799 
L 722.628423 27.564598 
L 722.34478 27.387807 
L 722.061096 27.260731 
L 721.777454 27.17463 
L 721.49377 27.111755 
L 721.210127 27.066679 
L 720.926444 27.05604 
L 720.642801 27.10481 
L 720.359118 27.198513 
L 720.075475 27.395015 
L 719.791791 27.747581 
L 719.508149 28.462575 
L 719.224465 29.792919 
L 718.940822 32.365308 
L 718.657139 36.843741 
L 718.373496 43.982324 
L 718.089813 54.247517 
L 717.80617 67.74391 
L 717.522486 83.824687 
L 717.238844 101.351469 
L 716.95516 118.864254 
L 716.671517 134.974449 
L 716.387834 148.652477 
L 716.104191 159.423175 
L 715.820508 167.33031 
L 715.536865 172.768047 
z
" clip-path="url(#p7234412cd0)" style="fill: #d55e00"/>
   </g>
   <g id="PolyCollection_2">
    <path d="M 820.4923 178.553809 
L 820.4923 178.689038 
L 820.775943 178.689038 
L 821.059667 178.689038 
L 821.34331 178.689038 
L 821.626952 178.689038 
L 821.910595 178.689038 
L 822.194319 178.689038 
L 822.477962 178.689038 
L 822.761605 178.689038 
L 823.045248 178.689038 
L 823.328972 178.689038 
L 823.612614 178.689038 
L 823.896257 178.689038 
L 824.1799 178.689038 
L 824.463624 178.689038 
L 824.747267 178.689038 
L 825.03091 178.689038 
L 825.314553 178.689038 
L 825.598277 178.689038 
L 825.881919 178.689038 
L 826.165562 178.689038 
L 826.449205 178.689038 
L 826.732929 178.689038 
L 827.016572 178.689038 
L 827.300215 178.689038 
L 827.583858 178.689038 
L 827.867582 178.689038 
L 828.151224 178.689038 
L 828.434867 178.689038 
L 828.71851 178.689038 
L 829.002234 178.689038 
L 829.285877 178.689038 
L 829.56952 178.689038 
L 829.853162 178.689038 
L 830.136886 178.689038 
L 830.420529 178.689038 
L 830.704172 178.689038 
L 830.987815 178.689038 
L 831.271539 178.689038 
L 831.555182 178.689038 
L 831.838825 178.689038 
L 832.122467 178.689038 
L 832.406191 178.689038 
L 832.689834 178.689038 
L 832.973477 178.689038 
L 833.25712 178.689038 
L 833.540844 178.689038 
L 833.824487 178.689038 
L 834.10813 178.689038 
L 834.391772 178.689038 
L 834.675496 178.689038 
L 834.959139 178.689038 
L 835.242782 178.689038 
L 835.526425 178.689038 
L 835.810149 178.689038 
L 836.093792 178.689038 
L 836.377434 178.689038 
L 836.661158 178.689038 
L 836.944801 178.689038 
L 837.228444 178.689038 
L 837.512087 178.689038 
L 837.795811 178.689038 
L 838.079454 178.689038 
L 838.363097 178.689038 
L 838.646739 178.689038 
L 838.930463 178.689038 
L 839.214106 178.689038 
L 839.497749 178.689038 
L 839.781392 178.689038 
L 839.781392 178.621666 
L 839.781392 178.621666 
L 839.497749 178.505413 
L 839.214106 178.380205 
L 838.930463 178.245497 
L 838.646739 178.102081 
L 838.363097 177.945284 
L 838.079454 177.776491 
L 837.795811 177.596574 
L 837.512087 177.402109 
L 837.228444 177.193477 
L 836.944801 176.971176 
L 836.661158 176.733572 
L 836.377434 176.478265 
L 836.093792 176.204765 
L 835.810149 175.907547 
L 835.526425 175.583188 
L 835.242782 175.224589 
L 834.959139 174.824487 
L 834.675496 174.376231 
L 834.391772 173.874049 
L 834.10813 173.306847 
L 833.824487 172.668647 
L 833.540844 171.952826 
L 833.25712 171.151385 
L 832.973477 170.256056 
L 832.689834 169.265401 
L 832.406191 168.1727 
L 832.122467 166.97399 
L 831.838825 165.66816 
L 831.555182 164.256874 
L 831.271539 162.741554 
L 830.987815 161.126635 
L 830.704172 159.422326 
L 830.420529 157.63836 
L 830.136886 155.786459 
L 829.853162 153.882096 
L 829.56952 151.94621 
L 829.285877 149.997948 
L 829.002234 148.058628 
L 828.71851 146.155108 
L 828.434867 144.311024 
L 828.151224 142.552628 
L 827.867582 140.903701 
L 827.583858 139.394534 
L 827.300215 138.048229 
L 827.016572 136.894945 
L 826.732929 135.966881 
L 826.449205 135.290312 
L 826.165562 134.892639 
L 825.881919 134.809198 
L 825.598277 135.06389 
L 825.314553 135.679297 
L 825.03091 136.693339 
L 824.747267 138.131828 
L 824.463624 140.007296 
L 824.1799 142.331239 
L 823.896257 145.089019 
L 823.612614 148.232296 
L 823.328972 151.684812 
L 823.045248 155.344328 
L 822.761605 159.080481 
L 822.477962 162.750782 
L 822.194319 166.216611 
L 821.910595 169.360211 
L 821.626952 172.092463 
L 821.34331 174.364556 
L 821.059667 176.173354 
L 820.775943 177.550366 
L 820.4923 178.553809 
z
" clip-path="url(#p7234412cd0)" style="fill: #0072b2"/>
   </g>
   <g id="PathCollection_1">
    <defs>
     <path id="m19073d257f" d="M 0 -6.708204 
L -1.506086 -2.072949 
L -6.379881 -2.072949 
L -2.436898 0.791796 
L -3.942983 5.427051 
L -0 2.562306 
L 3.942983 5.427051 
L 2.436898 0.791796 
L 6.379881 -2.072949 
L 1.506086 -2.072949 
z
" style="stroke: #000000; stroke-width: 1.5"/>
    </defs>
    <g clip-path="url(#p7234412cd0)">
     <use xlink:href="#m19073d257f" x="722.061109" y="11.915105" style="stroke: #000000; stroke-width: 1.5"/>
    </g>
   </g>
   <g id="matplotlib.axis_1">
    <g id="xtick_1">
     <g id="line2d_1">
      <defs>
       <path id="m9addf41b57" d="M 0 0 
L 0 8 
" style="stroke: #000000; stroke-width: 2"/>
      </defs>
      <g>
       <use xlink:href="#m9addf41b57" x="112.75215" y="199.12726" style="stroke: #000000; stroke-width: 2"/>
      </g>
     </g>
     <g id="text_1">
      <!-- 0.0 -->
      <g transform="translate(100.24215 225.011323) scale(0.18 -0.18)">
       <defs>
        <path id="Arial-BoldMT-30" d="M 1756 4600 
Q 2422 4600 2797 4125 
Q 3244 3563 3244 2259 
Q 3244 959 2794 391 
Q 2422 -78 1756 -78 
Q 1088 -78 678 436 
Q 269 950 269 2269 
Q 269 3563 719 4131 
Q 1091 4600 1756 4600 
z
M 1756 3872 
Q 1597 3872 1472 3770 
Q 1347 3669 1278 3406 
Q 1188 3066 1188 2259 
Q 1188 1453 1269 1151 
Q 1350 850 1473 750 
Q 1597 650 1756 650 
Q 1916 650 2041 751 
Q 2166 853 2234 1116 
Q 2325 1453 2325 2259 
Q 2325 3066 2244 3367 
Q 2163 3669 2039 3770 
Q 1916 3872 1756 3872 
z
" transform="scale(0.015625)"/>
        <path id="Arial-BoldMT-2e" d="M 459 0 
L 459 878 
L 1338 878 
L 1338 0 
L 459 0 
z
" transform="scale(0.015625)"/>
       </defs>
       <use xlink:href="#Arial-BoldMT-30"/>
       <use xlink:href="#Arial-BoldMT-2e" x="55.615234"/>
       <use xlink:href="#Arial-BoldMT-30" x="83.398438"/>
      </g>
     </g>
    </g>
    <g id="xtick_2">
     <g id="line2d_2">
      <g>
       <use xlink:href="#m9addf41b57" x="282.950183" y="199.12726" style="stroke: #000000; stroke-width: 2"/>
      </g>
     </g>
     <g id="text_2">
      <!-- 0.5 -->
      <g transform="translate(270.440183 225.011323) scale(0.18 -0.18)">
       <defs>
        <path id="Arial-BoldMT-35" d="M 284 1178 
L 1159 1269 
Q 1197 972 1381 798 
Q 1566 625 1806 625 
Q 2081 625 2272 848 
Q 2463 1072 2463 1522 
Q 2463 1944 2273 2155 
Q 2084 2366 1781 2366 
Q 1403 2366 1103 2031 
L 391 2134 
L 841 4519 
L 3163 4519 
L 3163 3697 
L 1506 3697 
L 1369 2919 
Q 1663 3066 1969 3066 
Q 2553 3066 2959 2641 
Q 3366 2216 3366 1538 
Q 3366 972 3038 528 
Q 2591 -78 1797 -78 
Q 1163 -78 763 262 
Q 363 603 284 1178 
z
" transform="scale(0.015625)"/>
       </defs>
       <use xlink:href="#Arial-BoldMT-30"/>
       <use xlink:href="#Arial-BoldMT-2e" x="55.615234"/>
       <use xlink:href="#Arial-BoldMT-35" x="83.398438"/>
      </g>
     </g>
    </g>
    <g id="xtick_3">
     <g id="line2d_3">
      <g>
       <use xlink:href="#m9addf41b57" x="453.148217" y="199.12726" style="stroke: #000000; stroke-width: 2"/>
      </g>
     </g>
     <g id="text_3">
      <!-- 1.0 -->
      <g transform="translate(440.638217 225.011323) scale(0.18 -0.18)">
       <defs>
        <path id="Arial-BoldMT-31" d="M 2519 0 
L 1641 0 
L 1641 3309 
Q 1159 2859 506 2644 
L 506 3441 
Q 850 3553 1253 3867 
Q 1656 4181 1806 4600 
L 2519 4600 
L 2519 0 
z
" transform="scale(0.015625)"/>
       </defs>
       <use xlink:href="#Arial-BoldMT-31"/>
       <use xlink:href="#Arial-BoldMT-2e" x="55.615234"/>
       <use xlink:href="#Arial-BoldMT-30" x="83.398438"/>
      </g>
     </g>
    </g>
    <g id="xtick_4">
     <g id="line2d_4">
      <g>
       <use xlink:href="#m9addf41b57" x="623.34625" y="199.12726" style="stroke: #000000; stroke-width: 2"/>
      </g>
     </g>
     <g id="text_4">
      <!-- 1.5 -->
      <g transform="translate(610.83625 225.011323) scale(0.18 -0.18)">
       <use xlink:href="#Arial-BoldMT-31"/>
       <use xlink:href="#Arial-BoldMT-2e" x="55.615234"/>
       <use xlink:href="#Arial-BoldMT-35" x="83.398438"/>
      </g>
     </g>
    </g>
    <g id="xtick_5">
     <g id="line2d_5">
      <g>
       <use xlink:href="#m9addf41b57" x="793.544283" y="199.12726" style="stroke: #000000; stroke-width: 2"/>
      </g>
     </g>
     <g id="text_5">
      <!-- 2.0 -->
      <g transform="translate(781.034283 225.011323) scale(0.18 -0.18)">
       <defs>
        <path id="Arial-BoldMT-32" d="M 3238 816 
L 3238 0 
L 159 0 
Q 209 463 459 877 
Q 709 1291 1447 1975 
Q 2041 2528 2175 2725 
Q 2356 2997 2356 3263 
Q 2356 3556 2198 3714 
Q 2041 3872 1763 3872 
Q 1488 3872 1325 3706 
Q 1163 3541 1138 3156 
L 263 3244 
Q 341 3969 753 4284 
Q 1166 4600 1784 4600 
Q 2463 4600 2850 4234 
Q 3238 3869 3238 3325 
Q 3238 3016 3127 2736 
Q 3016 2456 2775 2150 
Q 2616 1947 2200 1565 
Q 1784 1184 1673 1059 
Q 1563 934 1494 816 
L 3238 816 
z
" transform="scale(0.015625)"/>
       </defs>
       <use xlink:href="#Arial-BoldMT-32"/>
       <use xlink:href="#Arial-BoldMT-2e" x="55.615234"/>
       <use xlink:href="#Arial-BoldMT-30" x="83.398438"/>
      </g>
     </g>
    </g>
    <g id="xtick_6">
     <g id="line2d_6">
      <g>
       <use xlink:href="#m9addf41b57" x="963.742317" y="199.12726" style="stroke: #000000; stroke-width: 2"/>
      </g>
     </g>
     <g id="text_6">
      <!-- 2.5 -->
      <g transform="translate(951.232317 225.011323) scale(0.18 -0.18)">
       <use xlink:href="#Arial-BoldMT-32"/>
       <use xlink:href="#Arial-BoldMT-2e" x="55.615234"/>
       <use xlink:href="#Arial-BoldMT-35" x="83.398438"/>
      </g>
     </g>
    </g>
    <g id="xtick_7">
     <g id="line2d_7">
      <g>
       <use xlink:href="#m9addf41b57" x="1133.94035" y="199.12726" style="stroke: #000000; stroke-width: 2"/>
      </g>
     </g>
     <g id="text_7">
      <!-- 3.0 -->
      <g transform="translate(1121.43035 225.011323) scale(0.18 -0.18)">
       <defs>
        <path id="Arial-BoldMT-33" d="M 241 1216 
L 1091 1319 
Q 1131 994 1309 822 
Q 1488 650 1741 650 
Q 2013 650 2198 856 
Q 2384 1063 2384 1413 
Q 2384 1744 2206 1937 
Q 2028 2131 1772 2131 
Q 1603 2131 1369 2066 
L 1466 2781 
Q 1822 2772 2009 2936 
Q 2197 3100 2197 3372 
Q 2197 3603 2059 3740 
Q 1922 3878 1694 3878 
Q 1469 3878 1309 3722 
Q 1150 3566 1116 3266 
L 306 3403 
Q 391 3819 561 4067 
Q 731 4316 1036 4458 
Q 1341 4600 1719 4600 
Q 2366 4600 2756 4188 
Q 3078 3850 3078 3425 
Q 3078 2822 2419 2463 
Q 2813 2378 3048 2084 
Q 3284 1791 3284 1375 
Q 3284 772 2843 347 
Q 2403 -78 1747 -78 
Q 1125 -78 715 280 
Q 306 638 241 1216 
z
" transform="scale(0.015625)"/>
       </defs>
       <use xlink:href="#Arial-BoldMT-33"/>
       <use xlink:href="#Arial-BoldMT-2e" x="55.615234"/>
       <use xlink:href="#Arial-BoldMT-30" x="83.398438"/>
      </g>
     </g>
    </g>
    <g id="text_8">
     <!-- Retention time / min -->
     <g transform="translate(537.345625 245.447573) scale(0.18 -0.18)">
      <defs>
       <path id="Arial-BoldMT-52" d="M 469 0 
L 469 4581 
L 2416 4581 
Q 3150 4581 3483 4457 
Q 3816 4334 4016 4018 
Q 4216 3703 4216 3297 
Q 4216 2781 3912 2445 
Q 3609 2109 3006 2022 
Q 3306 1847 3501 1637 
Q 3697 1428 4028 894 
L 4588 0 
L 3481 0 
L 2813 997 
Q 2456 1531 2325 1670 
Q 2194 1809 2047 1861 
Q 1900 1913 1581 1913 
L 1394 1913 
L 1394 0 
L 469 0 
z
M 1394 2644 
L 2078 2644 
Q 2744 2644 2909 2700 
Q 3075 2756 3169 2893 
Q 3263 3031 3263 3238 
Q 3263 3469 3139 3611 
Q 3016 3753 2791 3791 
Q 2678 3806 2116 3806 
L 1394 3806 
L 1394 2644 
z
" transform="scale(0.015625)"/>
       <path id="Arial-BoldMT-65" d="M 2381 1056 
L 3256 909 
Q 3088 428 2723 176 
Q 2359 -75 1813 -75 
Q 947 -75 531 491 
Q 203 944 203 1634 
Q 203 2459 634 2926 
Q 1066 3394 1725 3394 
Q 2466 3394 2894 2905 
Q 3322 2416 3303 1406 
L 1103 1406 
Q 1113 1016 1316 798 
Q 1519 581 1822 581 
Q 2028 581 2168 693 
Q 2309 806 2381 1056 
z
M 2431 1944 
Q 2422 2325 2234 2523 
Q 2047 2722 1778 2722 
Q 1491 2722 1303 2513 
Q 1116 2303 1119 1944 
L 2431 1944 
z
" transform="scale(0.015625)"/>
       <path id="Arial-BoldMT-74" d="M 1981 3319 
L 1981 2619 
L 1381 2619 
L 1381 1281 
Q 1381 875 1398 808 
Q 1416 741 1477 697 
Q 1538 653 1625 653 
Q 1747 653 1978 738 
L 2053 56 
Q 1747 -75 1359 -75 
Q 1122 -75 931 4 
Q 741 84 652 211 
Q 563 338 528 553 
Q 500 706 500 1172 
L 500 2619 
L 97 2619 
L 97 3319 
L 500 3319 
L 500 3978 
L 1381 4491 
L 1381 3319 
L 1981 3319 
z
" transform="scale(0.015625)"/>
       <path id="Arial-BoldMT-6e" d="M 3478 0 
L 2600 0 
L 2600 1694 
Q 2600 2231 2544 2389 
Q 2488 2547 2361 2634 
Q 2234 2722 2056 2722 
Q 1828 2722 1647 2597 
Q 1466 2472 1398 2265 
Q 1331 2059 1331 1503 
L 1331 0 
L 453 0 
L 453 3319 
L 1269 3319 
L 1269 2831 
Q 1703 3394 2363 3394 
Q 2653 3394 2893 3289 
Q 3134 3184 3257 3021 
Q 3381 2859 3429 2653 
Q 3478 2447 3478 2063 
L 3478 0 
z
" transform="scale(0.015625)"/>
       <path id="Arial-BoldMT-69" d="M 459 3769 
L 459 4581 
L 1338 4581 
L 1338 3769 
L 459 3769 
z
M 459 0 
L 459 3319 
L 1338 3319 
L 1338 0 
L 459 0 
z
" transform="scale(0.015625)"/>
       <path id="Arial-BoldMT-6f" d="M 256 1706 
Q 256 2144 472 2553 
Q 688 2963 1083 3178 
Q 1478 3394 1966 3394 
Q 2719 3394 3200 2905 
Q 3681 2416 3681 1669 
Q 3681 916 3195 420 
Q 2709 -75 1972 -75 
Q 1516 -75 1102 131 
Q 688 338 472 736 
Q 256 1134 256 1706 
z
M 1156 1659 
Q 1156 1166 1390 903 
Q 1625 641 1969 641 
Q 2313 641 2545 903 
Q 2778 1166 2778 1666 
Q 2778 2153 2545 2415 
Q 2313 2678 1969 2678 
Q 1625 2678 1390 2415 
Q 1156 2153 1156 1659 
z
" transform="scale(0.015625)"/>
       <path id="Arial-BoldMT-20" transform="scale(0.015625)"/>
       <path id="Arial-BoldMT-6d" d="M 394 3319 
L 1203 3319 
L 1203 2866 
Q 1638 3394 2238 3394 
Q 2556 3394 2790 3262 
Q 3025 3131 3175 2866 
Q 3394 3131 3647 3262 
Q 3900 3394 4188 3394 
Q 4553 3394 4806 3245 
Q 5059 3097 5184 2809 
Q 5275 2597 5275 2122 
L 5275 0 
L 4397 0 
L 4397 1897 
Q 4397 2391 4306 2534 
Q 4184 2722 3931 2722 
Q 3747 2722 3584 2609 
Q 3422 2497 3350 2280 
Q 3278 2063 3278 1594 
L 3278 0 
L 2400 0 
L 2400 1819 
Q 2400 2303 2353 2443 
Q 2306 2584 2207 2653 
Q 2109 2722 1941 2722 
Q 1738 2722 1575 2612 
Q 1413 2503 1342 2297 
Q 1272 2091 1272 1613 
L 1272 0 
L 394 0 
L 394 3319 
z
" transform="scale(0.015625)"/>
       <path id="Arial-BoldMT-2f" d="M -9 -78 
L 1125 4659 
L 1784 4659 
L 638 -78 
L -9 -78 
z
" transform="scale(0.015625)"/>
      </defs>
      <use xlink:href="#Arial-BoldMT-52"/>
      <use xlink:href="#Arial-BoldMT-65" x="72.216797"/>
      <use xlink:href="#Arial-BoldMT-74" x="127.832031"/>
      <use xlink:href="#Arial-BoldMT-65" x="161.132812"/>
      <use xlink:href="#Arial-BoldMT-6e" x="216.748047"/>
      <use xlink:href="#Arial-BoldMT-74" x="277.832031"/>
      <use xlink:href="#Arial-BoldMT-69" x="311.132812"/>
      <use xlink:href="#Arial-BoldMT-6f" x="338.916016"/>
      <use xlink:href="#Arial-BoldMT-6e" x="400"/>
      <use xlink:href="#Arial-BoldMT-20" x="461.083984"/>
      <use xlink:href="#Arial-BoldMT-74" x="488.867188"/>
      <use xlink:href="#Arial-BoldMT-69" x="522.167969"/>
      <use xlink:href="#Arial-BoldMT-6d" x="549.951172"/>
      <use xlink:href="#Arial-BoldMT-65" x="638.867188"/>
      <use xlink:href="#Arial-BoldMT-20" x="694.482422"/>
      <use xlink:href="#Arial-BoldMT-2f" x="722.265625"/>
      <use xlink:href="#Arial-BoldMT-20" x="750.048828"/>
      <use xlink:href="#Arial-BoldMT-6d" x="777.832031"/>
      <use xlink:href="#Arial-BoldMT-69" x="866.748047"/>
      <use xlink:href="#Arial-BoldMT-6e" x="894.53125"/>
     </g>
    </g>
   </g>
   <g id="matplotlib.axis_2">
    <g id="ytick_1">
     <g id="line2d_8">
      <defs>
       <path id="m78c1ecc863" d="M 0 0 
L -8 0 
" style="stroke: #000000; stroke-width: 2"/>
      </defs>
      <g>
       <use xlink:href="#m78c1ecc863" x="61.69274" y="180.5123" style="stroke: #000000; stroke-width: 2"/>
      </g>
     </g>
     <g id="text_9">
      <!-- 0.0 -->
      <g transform="translate(23.67274 186.954331) scale(0.18 -0.18)">
       <use xlink:href="#Arial-BoldMT-30"/>
       <use xlink:href="#Arial-BoldMT-2e" x="55.615234"/>
       <use xlink:href="#Arial-BoldMT-30" x="83.398438"/>
      </g>
     </g>
    </g>
    <g id="ytick_2">
     <g id="line2d_9">
      <g>
       <use xlink:href="#m78c1ecc863" x="61.69274" y="103.78417" style="stroke: #000000; stroke-width: 2"/>
      </g>
     </g>
     <g id="text_10">
      <!-- 0.5 -->
      <g transform="translate(23.67274 110.226201) scale(0.18 -0.18)">
       <use xlink:href="#Arial-BoldMT-30"/>
       <use xlink:href="#Arial-BoldMT-2e" x="55.615234"/>
       <use xlink:href="#Arial-BoldMT-35" x="83.398438"/>
      </g>
     </g>
    </g>
    <g id="ytick_3">
     <g id="line2d_10">
      <g>
       <use xlink:href="#m78c1ecc863" x="61.69274" y="27.05604" style="stroke: #000000; stroke-width: 2"/>
      </g>
     </g>
     <g id="text_11">
      <!-- 1.0 -->
      <g transform="translate(23.67274 33.498071) scale(0.18 -0.18)">
       <use xlink:href="#Arial-BoldMT-31"/>
       <use xlink:href="#Arial-BoldMT-2e" x="55.615234"/>
       <use xlink:href="#Arial-BoldMT-30" x="83.398438"/>
      </g>
     </g>
    </g>
    <g id="text_12">
     <!-- Rel. Intensity -->
     <g transform="translate(15.884303 157.071875) rotate(-90) scale(0.18 -0.18)">
      <defs>
       <path id="Arial-BoldMT-6c" d="M 459 0 
L 459 4581 
L 1338 4581 
L 1338 0 
L 459 0 
z
" transform="scale(0.015625)"/>
       <path id="Arial-BoldMT-49" d="M 438 0 
L 438 4581 
L 1363 4581 
L 1363 0 
L 438 0 
z
" transform="scale(0.015625)"/>
       <path id="Arial-BoldMT-73" d="M 150 947 
L 1031 1081 
Q 1088 825 1259 692 
Q 1431 559 1741 559 
Q 2081 559 2253 684 
Q 2369 772 2369 919 
Q 2369 1019 2306 1084 
Q 2241 1147 2013 1200 
Q 950 1434 666 1628 
Q 272 1897 272 2375 
Q 272 2806 612 3100 
Q 953 3394 1669 3394 
Q 2350 3394 2681 3172 
Q 3013 2950 3138 2516 
L 2309 2363 
Q 2256 2556 2107 2659 
Q 1959 2763 1684 2763 
Q 1338 2763 1188 2666 
Q 1088 2597 1088 2488 
Q 1088 2394 1175 2328 
Q 1294 2241 1995 2081 
Q 2697 1922 2975 1691 
Q 3250 1456 3250 1038 
Q 3250 581 2869 253 
Q 2488 -75 1741 -75 
Q 1063 -75 667 200 
Q 272 475 150 947 
z
" transform="scale(0.015625)"/>
       <path id="Arial-BoldMT-79" d="M 44 3319 
L 978 3319 
L 1772 963 
L 2547 3319 
L 3456 3319 
L 2284 125 
L 2075 -453 
Q 1959 -744 1854 -897 
Q 1750 -1050 1614 -1145 
Q 1478 -1241 1279 -1294 
Q 1081 -1347 831 -1347 
Q 578 -1347 334 -1294 
L 256 -606 
Q 463 -647 628 -647 
Q 934 -647 1081 -467 
Q 1228 -288 1306 -9 
L 44 3319 
z
" transform="scale(0.015625)"/>
      </defs>
      <use xlink:href="#Arial-BoldMT-52"/>
      <use xlink:href="#Arial-BoldMT-65" x="72.216797"/>
      <use xlink:href="#Arial-BoldMT-6c" x="127.832031"/>
      <use xlink:href="#Arial-BoldMT-2e" x="155.615234"/>
      <use xlink:href="#Arial-BoldMT-20" x="183.398438"/>
      <use xlink:href="#Arial-BoldMT-49" x="211.181641"/>
      <use xlink:href="#Arial-BoldMT-6e" x="238.964844"/>
      <use xlink:href="#Arial-BoldMT-74" x="300.048828"/>
      <use xlink:href="#Arial-BoldMT-65" x="333.349609"/>
      <use xlink:href="#Arial-BoldMT-6e" x="388.964844"/>
      <use xlink:href="#Arial-BoldMT-73" x="450.048828"/>
      <use xlink:href="#Arial-BoldMT-69" x="505.664062"/>
      <use xlink:href="#Arial-BoldMT-74" x="533.447266"/>
      <use xlink:href="#Arial-BoldMT-79" x="566.748047"/>
     </g>
    </g>
   </g>
   <g id="line2d_11">
    <path d="M 112.75215 180.629822 
L 189.624926 180.333244 
L 193.596215 179.919211 
L 194.447204 179.791613 
L 195.01453 179.375838 
L 195.581862 178.38905 
L 196.149188 176.640375 
L 197.000177 172.817485 
L 198.13483 167.780096 
L 198.702156 166.308413 
L 198.985819 165.924646 
L 199.269482 165.767143 
L 199.553145 165.814549 
L 199.836808 166.047558 
L 200.404135 167.019164 
L 200.971461 168.697876 
L 201.538787 171.196015 
L 202.389777 176.362269 
L 203.808102 185.288003 
L 204.375429 187.686288 
L 204.942755 189.204062 
L 205.510081 189.977396 
L 206.077407 190.212395 
L 206.644733 190.09795 
L 207.495723 189.551595 
L 208.914038 188.226668 
L 210.89968 186.394121 
L 212.885322 184.886446 
L 215.721963 183.018177 
L 217.707605 181.997345 
L 219.409584 181.4073 
L 221.395226 180.981454 
L 223.664531 180.746486 
L 227.635825 180.590773 
L 238.415033 180.490978 
L 248.910579 180.605088 
L 252.030873 180.762126 
L 256.28582 180.703579 
L 266.497702 180.519489 
L 294.296728 180.450186 
L 313.58582 180.430457 
L 369.183852 180.734204 
L 395.28088 180.334528 
L 413.151676 180.282898 
L 434.426431 180.291095 
L 438.96504 180.321506 
L 452.013564 180.66591 
L 461.090784 180.701812 
L 469.600678 180.641197 
L 477.259602 180.342838 
L 492.861094 180.668928 
L 496.548735 180.591616 
L 498.534356 180.233834 
L 500.236335 180.018192 
L 501.938314 180.061857 
L 509.880881 180.588214 
L 522.645742 180.612771 
L 615.971009 180.509151 
L 630.154165 180.487525 
L 641.784373 180.411101 
L 655.683886 180.407956 
L 659.087843 180.508624 
L 667.030411 180.759353 
L 680.929924 180.828619 
L 685.18485 180.570003 
L 688.588848 180.500745 
L 689.723501 180.157227 
L 691.709122 179.473707 
L 693.978427 178.897135 
L 696.247732 178.103048 
L 697.098742 178.072603 
L 698.233394 178.29249 
L 699.935373 178.920911 
L 703.339331 180.194563 
L 705.324952 180.678441 
L 707.310614 180.936348 
L 710.998255 181.147592 
L 713.26756 181.120291 
L 713.834886 180.971844 
L 714.118529 180.778821 
L 714.402212 180.408283 
L 714.685855 179.711186 
L 714.969539 178.453099 
L 715.253182 176.292957 
L 715.536865 172.768047 
L 715.820508 167.33031 
L 716.387834 148.652477 
L 716.95516 118.864254 
L 718.089813 54.247517 
L 718.657139 36.843741 
L 718.940822 32.365308 
L 719.224465 29.792919 
L 719.508149 28.462575 
L 719.791791 27.747581 
L 720.359118 27.198513 
L 720.926444 27.05604 
L 721.777454 27.17463 
L 722.34478 27.387807 
L 722.912106 27.847799 
L 723.479432 28.805973 
L 724.046758 30.63083 
L 724.614085 33.841747 
L 725.181411 39.442773 
L 725.748737 48.118627 
L 726.599706 66.56394 
L 728.869011 120.899085 
L 729.720021 134.926982 
L 730.57103 144.929742 
L 731.422 151.820206 
L 732.273009 156.538891 
L 733.123978 159.865193 
L 734.258631 163.11483 
L 735.676967 166.321042 
L 737.378945 169.574604 
L 738.797241 171.793823 
L 740.215577 173.556814 
L 741.633872 174.923889 
L 743.052208 175.982702 
L 744.754186 176.960449 
L 746.739808 177.836879 
L 749.009113 178.614539 
L 751.562101 179.230786 
L 754.682416 179.781007 
L 758.653699 180.24723 
L 766.028941 180.734253 
L 772.553213 180.946411 
L 777.091822 180.943559 
L 787.871021 180.966759 
L 794.678936 181.17226 
L 804.607165 181.004793 
L 807.160113 180.848079 
L 810.280428 180.95058 
L 815.95369 181.068957 
L 817.371985 180.951942 
L 818.506638 180.672715 
L 819.357647 180.28625 
L 819.925014 179.73915 
L 820.208657 179.258216 
L 820.4923 178.553809 
L 821.059667 176.173354 
L 821.626952 172.092463 
L 822.194319 166.216611 
L 824.1799 142.331239 
L 824.747267 138.131828 
L 825.314553 135.679297 
L 825.598277 135.06389 
L 825.881919 134.809198 
L 826.165562 134.892639 
L 826.449205 135.290312 
L 827.016572 136.894945 
L 827.583858 139.394534 
L 828.434867 144.311024 
L 831.555182 164.256874 
L 832.406191 168.1727 
L 833.25712 171.151385 
L 834.10813 173.306847 
L 834.959139 174.824487 
L 835.810149 175.907547 
L 836.944801 176.971176 
L 838.363097 177.945284 
L 839.781392 178.621666 
L 841.199768 179.068347 
L 842.050697 179.166998 
L 842.901707 179.048083 
L 844.036359 178.58235 
L 845.454654 177.999715 
L 846.305664 177.86409 
L 847.440316 177.94829 
L 848.858612 178.339059 
L 854.531874 180.216066 
L 856.801179 180.548365 
L 859.921494 180.74375 
L 874.671976 180.998504 
L 879.210667 180.864635 
L 882.614624 180.673223 
L 887.153234 180.837842 
L 892.25913 180.952452 
L 894.244792 180.857392 
L 895.095801 180.632553 
L 895.663087 180.271979 
L 896.230454 179.641172 
L 896.79774 178.714262 
L 898.216035 175.660833 
L 899.067045 174.117356 
L 899.634411 173.458867 
L 900.201697 173.132477 
L 900.769064 173.108607 
L 901.336349 173.331904 
L 902.187359 174.01687 
L 903.605654 175.652425 
L 905.307674 177.55606 
L 906.442326 178.497709 
L 907.576979 179.144696 
L 908.995274 179.668965 
L 910.129926 179.894321 
L 910.980936 179.904343 
L 911.831946 179.73936 
L 913.250241 179.183724 
L 914.384893 178.808858 
L 915.519546 178.690302 
L 916.654198 178.7946 
L 918.356137 179.213399 
L 921.760175 180.087415 
L 924.02948 180.38996 
L 927.149714 180.570046 
L 933.1067 180.651282 
L 948.424468 180.636037 
L 993.243281 180.689574 
L 994.377933 180.497781 
L 995.228943 180.1512 
L 998.349258 178.510624 
L 999.200267 178.436931 
L 1000.33492 178.589912 
L 1002.036858 179.106343 
L 1004.589806 179.89564 
L 1006.575468 180.262736 
L 1009.128497 180.48612 
L 1014.801759 180.646341 
L 1021.32595 180.646939 
L 1030.403251 180.656039 
L 1133.656707 180.499878 
L 1133.656707 180.499878 
" clip-path="url(#p7234412cd0)" style="fill: none; stroke: #000000; stroke-width: 2.5; stroke-linecap: square"/>
   </g>
   <g id="line2d_12">
    <path d="M 248.910577 199.12726 
L 248.910577 3.00024 
" clip-path="url(#p7234412cd0)" style="fill: none; stroke: #d55e00; stroke-width: 2; stroke-linecap: square"/>
   </g>
   <g id="line2d_13">
    <path d="M 1133.94035 199.12726 
L 1133.94035 3.00024 
" clip-path="url(#p7234412cd0)" style="fill: none; stroke: #d55e00; stroke-width: 2; stroke-linecap: square"/>
   </g>
   <g id="patch_3">
    <path d="M 61.69274 199.12726 
L 61.69274 3.00024 
" style="fill: none; stroke: #000000; stroke-width: 2; stroke-linejoin: miter; stroke-linecap: square"/>
   </g>
   <g id="patch_4">
    <path d="M 1184.99976 199.12726 
L 1184.99976 3.00024 
" style="fill: none; stroke: #000000; stroke-width: 2; stroke-linejoin: miter; stroke-linecap: square"/>
   </g>
   <g id="patch_5">
    <path d="M 61.69274 199.12726 
L 1184.99976 199.12726 
" style="fill: none; stroke: #000000; stroke-width: 2; stroke-linejoin: miter; stroke-linecap: square"/>
   </g>
   <g id="patch_6">
    <path d="M 61.69274 3.00024 
L 1184.99976 3.00024 
" style="fill: none; stroke: #000000; stroke-width: 2; stroke-linejoin: miter; stroke-linecap: square"/>
   </g>
   <g id="text_13">
    <!-- ANALYSIS -->
    <g style="fill: #d55e00" transform="translate(242.547644 141.006775) rotate(-90) scale(0.14994 -0.14994)">
     <defs>
      <path id="Arial-BoldMT-41" d="M 4597 0 
L 3591 0 
L 3191 1041 
L 1359 1041 
L 981 0 
L 0 0 
L 1784 4581 
L 2763 4581 
L 4597 0 
z
M 2894 1813 
L 2263 3513 
L 1644 1813 
L 2894 1813 
z
" transform="scale(0.015625)"/>
      <path id="Arial-BoldMT-4e" d="M 475 0 
L 475 4581 
L 1375 4581 
L 3250 1522 
L 3250 4581 
L 4109 4581 
L 4109 0 
L 3181 0 
L 1334 2988 
L 1334 0 
L 475 0 
z
" transform="scale(0.015625)"/>
      <path id="Arial-BoldMT-4c" d="M 491 0 
L 491 4544 
L 1416 4544 
L 1416 772 
L 3716 772 
L 3716 0 
L 491 0 
z
" transform="scale(0.015625)"/>
      <path id="Arial-BoldMT-59" d="M 1669 0 
L 1669 1928 
L -9 4581 
L 1075 4581 
L 2153 2769 
L 3209 4581 
L 4275 4581 
L 2591 1922 
L 2591 0 
L 1669 0 
z
" transform="scale(0.015625)"/>
      <path id="Arial-BoldMT-53" d="M 231 1491 
L 1131 1578 
Q 1213 1125 1461 912 
Q 1709 700 2131 700 
Q 2578 700 2804 889 
Q 3031 1078 3031 1331 
Q 3031 1494 2936 1608 
Q 2841 1722 2603 1806 
Q 2441 1863 1863 2006 
Q 1119 2191 819 2459 
Q 397 2838 397 3381 
Q 397 3731 595 4036 
Q 794 4341 1167 4500 
Q 1541 4659 2069 4659 
Q 2931 4659 3367 4281 
Q 3803 3903 3825 3272 
L 2900 3231 
Q 2841 3584 2645 3739 
Q 2450 3894 2059 3894 
Q 1656 3894 1428 3728 
Q 1281 3622 1281 3444 
Q 1281 3281 1419 3166 
Q 1594 3019 2269 2859 
Q 2944 2700 3267 2529 
Q 3591 2359 3773 2064 
Q 3956 1769 3956 1334 
Q 3956 941 3737 597 
Q 3519 253 3119 86 
Q 2719 -81 2122 -81 
Q 1253 -81 787 320 
Q 322 722 231 1491 
z
" transform="scale(0.015625)"/>
     </defs>
     <use xlink:href="#Arial-BoldMT-41"/>
     <use xlink:href="#Arial-BoldMT-4e" x="72.216797"/>
     <use xlink:href="#Arial-BoldMT-41" x="144.433594"/>
     <use xlink:href="#Arial-BoldMT-4c" x="216.650391"/>
     <use xlink:href="#Arial-BoldMT-59" x="268.609375"/>
     <use xlink:href="#Arial-BoldMT-53" x="335.308594"/>
     <use xlink:href="#Arial-BoldMT-49" x="402.007812"/>
     <use xlink:href="#Arial-BoldMT-53" x="429.791016"/>
    </g>
   </g>
   <g id="text_14">
    <!-- START -->
    <g style="fill: #d55e00" transform="translate(266.450922 128.218533) rotate(-90) scale(0.14994 -0.14994)">
     <defs>
      <path id="Arial-BoldMT-54" d="M 1497 0 
L 1497 3806 
L 138 3806 
L 138 4581 
L 3778 4581 
L 3778 3806 
L 2422 3806 
L 2422 0 
L 1497 0 
z
" transform="scale(0.015625)"/>
     </defs>
     <use xlink:href="#Arial-BoldMT-53"/>
     <use xlink:href="#Arial-BoldMT-54" x="66.699219"/>
     <use xlink:href="#Arial-BoldMT-41" x="120.408203"/>
     <use xlink:href="#Arial-BoldMT-52" x="192.625"/>
     <use xlink:href="#Arial-BoldMT-54" x="264.841797"/>
    </g>
   </g>
   <g id="text_15">
    <!-- ANALYSIS -->
    <g style="fill: #d55e00" transform="translate(1127.577417 141.006775) rotate(-90) scale(0.14994 -0.14994)">
     <use xlink:href="#Arial-BoldMT-41"/>
     <use xlink:href="#Arial-BoldMT-4e" x="72.216797"/>
     <use xlink:href="#Arial-BoldMT-41" x="144.433594"/>
     <use xlink:href="#Arial-BoldMT-4c" x="216.650391"/>
     <use xlink:href="#Arial-BoldMT-59" x="268.609375"/>
     <use xlink:href="#Arial-BoldMT-53" x="335.308594"/>
     <use xlink:href="#Arial-BoldMT-49" x="402.007812"/>
     <use xlink:href="#Arial-BoldMT-53" x="429.791016"/>
    </g>
   </g>
   <g id="text_16">
    <!-- END -->
    <g style="fill: #d55e00" transform="translate(1151.480695 119.613383) rotate(-90) scale(0.14994 -0.14994)">
     <defs>
      <path id="Arial-BoldMT-45" d="M 466 0 
L 466 4581 
L 3863 4581 
L 3863 3806 
L 1391 3806 
L 1391 2791 
L 3691 2791 
L 3691 2019 
L 1391 2019 
L 1391 772 
L 3950 772 
L 3950 0 
L 466 0 
z
" transform="scale(0.015625)"/>
      <path id="Arial-BoldMT-44" d="M 463 4581 
L 2153 4581 
Q 2725 4581 3025 4494 
Q 3428 4375 3715 4072 
Q 4003 3769 4153 3330 
Q 4303 2891 4303 2247 
Q 4303 1681 4163 1272 
Q 3991 772 3672 463 
Q 3431 228 3022 97 
Q 2716 0 2203 0 
L 463 0 
L 463 4581 
z
M 1388 3806 
L 1388 772 
L 2078 772 
Q 2466 772 2638 816 
Q 2863 872 3011 1006 
Q 3159 1141 3253 1448 
Q 3347 1756 3347 2288 
Q 3347 2819 3253 3103 
Q 3159 3388 2990 3547 
Q 2822 3706 2563 3763 
Q 2369 3806 1803 3806 
L 1388 3806 
z
" transform="scale(0.015625)"/>
     </defs>
     <use xlink:href="#Arial-BoldMT-45"/>
     <use xlink:href="#Arial-BoldMT-4e" x="66.699219"/>
     <use xlink:href="#Arial-BoldMT-44" x="138.916016"/>
    </g>
   </g>
  </g>
 </g>
 <defs>
  <clipPath id="p7234412cd0">
   <rect x="61.69274" y="3.00024" width="1123.30702" height="196.12702"/>
  </clipPath>
 </defs>
</svg>
