<?xml version="1.0" encoding="utf-8" standalone="no"?>
<!DOCTYPE svg PUBLIC "-//W3C//DTD SVG 1.1//EN"
  "http://www.w3.org/Graphics/SVG/1.1/DTD/svg11.dtd">
<svg xmlns:xlink="http://www.w3.org/1999/xlink" width="1188pt" height="252pt" viewBox="0 0 1188 252" xmlns="http://www.w3.org/2000/svg" version="1.1">
 <metadata>
  <rdf:RDF xmlns:dc="http://purl.org/dc/elements/1.1/" xmlns:cc="http://creativecommons.org/ns#" xmlns:rdf="http://www.w3.org/1999/02/22-rdf-syntax-ns#">
   <cc:Work>
    <dc:type rdf:resource="http://purl.org/dc/dcmitype/StillImage"/>
    <dc:date>2024-05-14T22:49:53.960557</dc:date>
    <dc:format>image/svg+xml</dc:format>
    <dc:creator>
     <cc:Agent>
      <dc:title>Matplotlib v3.8.0, https://matplotlib.org/</dc:title>
     </cc:Agent>
    </dc:creator>
   </cc:Work>
  </rdf:RDF>
 </metadata>
 <defs>
  <style type="text/css">*{stroke-linejoin: round; stroke-linecap: butt}</style>
 </defs>
 <g id="figure_1">
  <g id="patch_1">
   <path d="M 0 252 
L 1188 252 
L 1188 0 
L 0 0 
z
" style="fill: #ffffff"/>
  </g>
  <g id="axes_1">
   <g id="patch_2">
    <path d="M 71.702428 199.12726 
L 1184.99976 199.12726 
L 1184.99976 3.00024 
L 71.702428 3.00024 
z
" style="fill: #ffffff"/>
   </g>
   <g id="PolyCollection_1">
    <path d="M 478.224618 172.955848 
L 478.224618 173.149982 
L 478.505773 173.149982 
L 478.786888 173.149982 
L 479.068044 173.149982 
L 479.349159 173.149982 
L 479.630315 173.149982 
L 479.91143 173.149982 
L 480.192586 173.149982 
L 480.473701 173.149982 
L 480.754856 173.149982 
L 481.036012 173.149982 
L 481.317127 173.149982 
L 481.598283 173.149982 
L 481.879398 173.149982 
L 482.160554 173.149982 
L 482.441669 173.149982 
L 482.722825 173.149982 
L 483.00394 173.149982 
L 483.285095 173.149982 
L 483.566211 173.149982 
L 483.847366 173.149982 
L 484.128482 173.149982 
L 484.409637 173.149982 
L 484.690752 173.149982 
L 484.971908 173.149982 
L 485.253023 173.149982 
L 485.534179 173.149982 
L 485.815294 173.149982 
L 486.09645 173.149982 
L 486.377565 173.149982 
L 486.65872 173.149982 
L 486.939836 173.149982 
L 487.220991 173.149982 
L 487.502107 173.149982 
L 487.783262 173.149982 
L 488.064377 173.149982 
L 488.345533 173.149982 
L 488.626648 173.149982 
L 488.907804 173.149982 
L 489.188919 173.149982 
L 489.470075 173.149982 
L 489.75119 173.149982 
L 490.032346 173.149982 
L 490.313461 173.149982 
L 490.594616 173.149982 
L 490.875732 173.149982 
L 491.156887 173.149982 
L 491.438003 173.149982 
L 491.719158 173.149982 
L 492.000273 173.149982 
L 492.281429 173.149982 
L 492.562544 173.149982 
L 492.8437 173.149982 
L 493.124815 173.149982 
L 493.405971 173.149982 
L 493.687086 173.149982 
L 493.968241 173.149982 
L 494.249357 173.149982 
L 494.530512 173.149982 
L 494.811628 173.149982 
L 495.092783 173.149982 
L 495.373898 173.149982 
L 495.655054 173.149982 
L 495.936169 173.149982 
L 496.217325 173.149982 
L 496.49844 173.149982 
L 496.779596 173.149982 
L 497.060711 173.149982 
L 497.341866 173.149982 
L 497.622982 173.149982 
L 497.904137 173.149982 
L 498.185253 173.149982 
L 498.466408 173.149982 
L 498.747523 173.149982 
L 499.028679 173.149982 
L 499.309794 173.149982 
L 499.59095 173.149982 
L 499.872065 173.149982 
L 500.153221 173.149982 
L 500.434336 173.149982 
L 500.715492 173.149982 
L 500.996607 173.149982 
L 501.277762 173.149982 
L 501.558878 173.149982 
L 501.840033 173.149982 
L 502.121189 173.149982 
L 502.402304 173.149982 
L 502.68346 173.149982 
L 502.964575 173.149982 
L 503.24573 173.149982 
L 503.526846 173.149982 
L 503.808001 173.149982 
L 504.089117 173.149982 
L 504.370272 173.149982 
L 504.651387 173.149982 
L 504.932543 173.149982 
L 505.213658 173.149982 
L 505.494814 173.149982 
L 505.775929 173.149982 
L 506.057085 173.149982 
L 506.3382 173.149982 
L 506.619356 173.149982 
L 506.900471 173.149982 
L 507.181626 173.149982 
L 507.462742 173.149982 
L 507.743897 173.149982 
L 508.025013 173.149982 
L 508.306168 173.149982 
L 508.587283 173.149982 
L 508.868439 173.149982 
L 509.149554 173.149982 
L 509.43071 173.149982 
L 509.711825 173.149982 
L 509.992981 173.149982 
L 510.274096 173.149982 
L 510.555251 173.149982 
L 510.836367 173.149982 
L 511.117522 173.149982 
L 511.398638 173.149982 
L 511.679793 173.149982 
L 511.960908 173.149982 
L 512.242064 173.149982 
L 512.523179 173.149982 
L 512.804335 173.149982 
L 513.08545 173.149982 
L 513.366606 173.149982 
L 513.647721 173.149982 
L 513.928876 173.149982 
L 514.209992 173.149982 
L 514.491147 173.149982 
L 514.772263 173.149982 
L 515.053418 173.149982 
L 515.334533 173.149982 
L 515.615689 173.149982 
L 515.896804 173.149982 
L 516.17796 173.149982 
L 516.459075 173.149982 
L 516.740231 173.149982 
L 517.021346 173.149982 
L 517.302502 173.149982 
L 517.583617 173.149982 
L 517.864772 173.149982 
L 518.145888 173.149982 
L 518.427043 173.149982 
L 518.708159 173.149982 
L 518.989314 173.149982 
L 519.270429 173.149982 
L 519.270429 172.178199 
L 519.270429 172.178199 
L 518.989314 171.384454 
L 518.708159 170.525517 
L 518.427043 169.594029 
L 518.145888 168.586843 
L 517.864772 167.501107 
L 517.583617 166.330573 
L 517.302502 165.069412 
L 517.021346 163.711804 
L 516.740231 162.253229 
L 516.459075 160.687931 
L 516.17796 159.010918 
L 515.896804 157.222173 
L 515.615689 155.321864 
L 515.334533 153.307101 
L 515.053418 151.178721 
L 514.772263 148.942177 
L 514.491147 146.594435 
L 514.209992 144.136149 
L 513.928876 141.574313 
L 513.647721 138.913402 
L 513.366606 136.155229 
L 513.08545 133.31451 
L 512.804335 130.398291 
L 512.523179 127.411963 
L 512.242064 124.365906 
L 511.960908 121.267607 
L 511.679793 118.124226 
L 511.398638 114.948198 
L 511.117522 111.751832 
L 510.836367 108.546654 
L 510.555251 105.349616 
L 510.274096 102.159013 
L 509.992981 98.989878 
L 509.711825 95.853695 
L 509.43071 92.740475 
L 509.149554 89.663318 
L 508.868439 86.64811 
L 508.587283 83.698558 
L 508.306168 80.792266 
L 508.025013 77.969038 
L 507.743897 75.213834 
L 507.462742 72.506296 
L 507.181626 69.842565 
L 506.900471 67.267979 
L 506.619356 64.774047 
L 506.3382 62.377344 
L 506.057085 60.11112 
L 505.775929 57.979373 
L 505.494814 55.983149 
L 505.213658 54.096014 
L 504.932543 52.327569 
L 504.651387 50.672978 
L 504.370272 49.132006 
L 504.089117 47.710486 
L 503.808001 46.45911 
L 503.526846 45.396153 
L 503.24573 44.523374 
L 502.964575 43.880701 
L 502.68346 43.471071 
L 502.402304 43.312564 
L 502.121189 43.383318 
L 501.840033 43.741272 
L 501.558878 44.406181 
L 501.277762 45.420662 
L 500.996607 46.785698 
L 500.715492 48.598768 
L 500.434336 50.858612 
L 500.153221 53.612984 
L 499.872065 56.880174 
L 499.59095 60.705179 
L 499.309794 65.082727 
L 499.028679 70.03471 
L 498.747523 75.541246 
L 498.466408 81.586194 
L 498.185253 88.147131 
L 497.904137 95.156879 
L 497.622982 102.537326 
L 497.341866 110.172373 
L 497.060711 117.924766 
L 496.779596 125.618008 
L 496.49844 133.057748 
L 496.217325 140.036278 
L 495.936169 146.358964 
L 495.655054 151.850566 
L 495.373898 156.368592 
L 495.092783 159.845435 
L 494.811628 162.268446 
L 494.530512 163.694363 
L 494.249357 164.228204 
L 493.968241 164.008401 
L 493.687086 163.178898 
L 493.405971 161.87265 
L 493.124815 160.194363 
L 492.8437 158.213444 
L 492.562544 155.972041 
L 492.281429 153.479194 
L 492.000273 150.735666 
L 491.719158 147.724699 
L 491.438003 144.428038 
L 491.156887 140.826929 
L 490.875732 136.90368 
L 490.594616 132.635424 
L 490.313461 128.004058 
L 490.032346 123.004042 
L 489.75119 117.62949 
L 489.470075 111.889211 
L 489.188919 105.806607 
L 488.907804 99.423448 
L 488.626648 92.792615 
L 488.345533 85.982432 
L 488.064377 79.055582 
L 487.783262 72.140279 
L 487.502107 65.307222 
L 487.220991 58.655629 
L 486.939836 52.311415 
L 486.65872 46.384464 
L 486.377565 40.89366 
L 486.09645 35.949172 
L 485.815294 31.585997 
L 485.534179 27.759704 
L 485.253023 24.503473 
L 484.971908 21.828444 
L 484.690752 19.668019 
L 484.409637 18.003023 
L 484.128482 16.860667 
L 483.847366 16.203475 
L 483.566211 16.039204 
L 483.285095 16.478233 
L 483.00394 17.599254 
L 482.722825 19.55742 
L 482.441669 22.539031 
L 482.160554 26.821491 
L 481.879398 32.637871 
L 481.598283 40.253951 
L 481.317127 49.775206 
L 481.036012 61.194332 
L 480.754856 74.223924 
L 480.473701 88.392055 
L 480.192586 103.041878 
L 479.91143 117.47802 
L 479.630315 131.011299 
L 479.349159 143.106903 
L 479.068044 153.403688 
L 478.786888 161.76123 
L 478.505773 168.216272 
L 478.224618 172.955848 
z
" clip-path="url(#p8a78256367)" style="fill: #d55e00"/>
   </g>
   <g id="PolyCollection_2">
    <path d="M 495.092783 159.845435 
L 495.092783 158.182422 
L 495.373898 158.182422 
L 495.655054 158.182422 
L 495.936169 158.182422 
L 496.217325 158.182422 
L 496.49844 158.182422 
L 496.779596 158.182422 
L 497.060711 158.182422 
L 497.341866 158.182422 
L 497.622982 158.182422 
L 497.904137 158.182422 
L 498.185253 158.182422 
L 498.466408 158.182422 
L 498.747523 158.182422 
L 499.028679 158.182422 
L 499.309794 158.182422 
L 499.59095 158.182422 
L 499.872065 158.182422 
L 500.153221 158.182422 
L 500.434336 158.182422 
L 500.715492 158.182422 
L 500.996607 158.182422 
L 501.277762 158.182422 
L 501.558878 158.182422 
L 501.840033 158.182422 
L 502.121189 158.182422 
L 502.402304 158.182422 
L 502.68346 158.182422 
L 502.964575 158.182422 
L 503.24573 158.182422 
L 503.526846 158.182422 
L 503.808001 158.182422 
L 504.089117 158.182422 
L 504.370272 158.182422 
L 504.651387 158.182422 
L 504.932543 158.182422 
L 505.213658 158.182422 
L 505.494814 158.182422 
L 505.775929 158.182422 
L 506.057085 158.182422 
L 506.3382 158.182422 
L 506.619356 158.182422 
L 506.900471 158.182422 
L 507.181626 158.182422 
L 507.462742 158.182422 
L 507.743897 158.182422 
L 508.025013 158.182422 
L 508.306168 158.182422 
L 508.587283 158.182422 
L 508.868439 158.182422 
L 509.149554 158.182422 
L 509.43071 158.182422 
L 509.711825 158.182422 
L 509.992981 158.182422 
L 510.274096 158.182422 
L 510.555251 158.182422 
L 510.836367 158.182422 
L 511.117522 158.182422 
L 511.398638 158.182422 
L 511.679793 158.182422 
L 511.960908 158.182422 
L 512.242064 158.182422 
L 512.523179 158.182422 
L 512.804335 158.182422 
L 513.08545 158.182422 
L 513.366606 158.182422 
L 513.647721 158.182422 
L 513.928876 158.182422 
L 514.209992 158.182422 
L 514.491147 158.182422 
L 514.772263 158.182422 
L 515.053418 158.182422 
L 515.334533 158.182422 
L 515.615689 158.182422 
L 515.896804 158.182422 
L 515.896804 157.222173 
L 515.896804 157.222173 
L 515.615689 155.321864 
L 515.334533 153.307101 
L 515.053418 151.178721 
L 514.772263 148.942177 
L 514.491147 146.594435 
L 514.209992 144.136149 
L 513.928876 141.574313 
L 513.647721 138.913402 
L 513.366606 136.155229 
L 513.08545 133.31451 
L 512.804335 130.398291 
L 512.523179 127.411963 
L 512.242064 124.365906 
L 511.960908 121.267607 
L 511.679793 118.124226 
L 511.398638 114.948198 
L 511.117522 111.751832 
L 510.836367 108.546654 
L 510.555251 105.349616 
L 510.274096 102.159013 
L 509.992981 98.989878 
L 509.711825 95.853695 
L 509.43071 92.740475 
L 509.149554 89.663318 
L 508.868439 86.64811 
L 508.587283 83.698558 
L 508.306168 80.792266 
L 508.025013 77.969038 
L 507.743897 75.213834 
L 507.462742 72.506296 
L 507.181626 69.842565 
L 506.900471 67.267979 
L 506.619356 64.774047 
L 506.3382 62.377344 
L 506.057085 60.11112 
L 505.775929 57.979373 
L 505.494814 55.983149 
L 505.213658 54.096014 
L 504.932543 52.327569 
L 504.651387 50.672978 
L 504.370272 49.132006 
L 504.089117 47.710486 
L 503.808001 46.45911 
L 503.526846 45.396153 
L 503.24573 44.523374 
L 502.964575 43.880701 
L 502.68346 43.471071 
L 502.402304 43.312564 
L 502.121189 43.383318 
L 501.840033 43.741272 
L 501.558878 44.406181 
L 501.277762 45.420662 
L 500.996607 46.785698 
L 500.715492 48.598768 
L 500.434336 50.858612 
L 500.153221 53.612984 
L 499.872065 56.880174 
L 499.59095 60.705179 
L 499.309794 65.082727 
L 499.028679 70.03471 
L 498.747523 75.541246 
L 498.466408 81.586194 
L 498.185253 88.147131 
L 497.904137 95.156879 
L 497.622982 102.537326 
L 497.341866 110.172373 
L 497.060711 117.924766 
L 496.779596 125.618008 
L 496.49844 133.057748 
L 496.217325 140.036278 
L 495.936169 146.358964 
L 495.655054 151.850566 
L 495.373898 156.368592 
L 495.092783 159.845435 
z
" clip-path="url(#p8a78256367)" style="fill: #0072b2"/>
   </g>
   <g id="PolyCollection_3">
    <path d="M 578.308948 172.685008 
L 578.308948 172.463101 
L 578.590064 172.463101 
L 578.871219 172.463101 
L 579.152335 172.463101 
L 579.43349 172.463101 
L 579.714605 172.463101 
L 579.995761 172.463101 
L 580.276876 172.463101 
L 580.558032 172.463101 
L 580.839147 172.463101 
L 581.120303 172.463101 
L 581.401418 172.463101 
L 581.682573 172.463101 
L 581.963689 172.463101 
L 582.244844 172.463101 
L 582.52596 172.463101 
L 582.807115 172.463101 
L 583.08823 172.463101 
L 583.369386 172.463101 
L 583.650501 172.463101 
L 583.931657 172.463101 
L 584.212772 172.463101 
L 584.493928 172.463101 
L 584.775043 172.463101 
L 585.056199 172.463101 
L 585.337314 172.463101 
L 585.618469 172.463101 
L 585.899585 172.463101 
L 586.18074 172.463101 
L 586.461896 172.463101 
L 586.743011 172.463101 
L 587.024167 172.463101 
L 587.305282 172.463101 
L 587.586437 172.463101 
L 587.867553 172.463101 
L 588.148708 172.463101 
L 588.429824 172.463101 
L 588.710979 172.463101 
L 588.992094 172.463101 
L 589.27325 172.463101 
L 589.554365 172.463101 
L 589.835521 172.463101 
L 590.116636 172.463101 
L 590.397792 172.463101 
L 590.678907 172.463101 
L 590.960063 172.463101 
L 591.241178 172.463101 
L 591.522333 172.463101 
L 591.803449 172.463101 
L 592.084604 172.463101 
L 592.36572 172.463101 
L 592.646875 172.463101 
L 592.92799 172.463101 
L 593.209146 172.463101 
L 593.490261 172.463101 
L 593.771417 172.463101 
L 594.052532 172.463101 
L 594.333688 172.463101 
L 594.614803 172.463101 
L 594.895958 172.463101 
L 595.177074 172.463101 
L 595.458229 172.463101 
L 595.739345 172.463101 
L 595.739345 171.958072 
L 595.739345 171.958072 
L 595.458229 171.390888 
L 595.177074 170.757774 
L 594.895958 170.052924 
L 594.614803 169.268445 
L 594.333688 168.394664 
L 594.052532 167.423756 
L 593.771417 166.345303 
L 593.490261 165.148609 
L 593.209146 163.823099 
L 592.92799 162.353591 
L 592.646875 160.725367 
L 592.36572 158.922886 
L 592.084604 156.929362 
L 591.803449 154.722685 
L 591.522333 152.287201 
L 591.241178 149.600911 
L 590.960063 146.6466 
L 590.678907 143.399208 
L 590.397792 139.849533 
L 590.116636 135.977756 
L 589.835521 131.773039 
L 589.554365 127.225412 
L 589.27325 122.335836 
L 588.992094 117.093342 
L 588.710979 111.514259 
L 588.429824 105.627353 
L 588.148708 99.461603 
L 587.867553 93.071211 
L 587.586437 86.5287 
L 587.305282 79.897071 
L 587.024167 73.264057 
L 586.743011 66.727932 
L 586.461896 60.373604 
L 586.18074 54.314164 
L 585.899585 48.655307 
L 585.618469 43.442143 
L 585.337314 38.760181 
L 585.056199 34.655527 
L 584.775043 31.10456 
L 584.493928 28.127798 
L 584.212772 25.738015 
L 583.931657 23.913418 
L 583.650501 22.676812 
L 583.369386 22.072182 
L 583.08823 22.137131 
L 582.807115 23.002595 
L 582.52596 24.794482 
L 582.244844 27.700795 
L 581.963689 32.008802 
L 581.682573 37.973673 
L 581.401418 45.801267 
L 581.120303 55.643581 
L 580.839147 67.444234 
L 580.558032 80.892288 
L 580.276876 95.472438 
L 579.995761 110.480105 
L 579.714605 125.096907 
L 579.43349 138.568842 
L 579.152335 150.29158 
L 578.871219 159.908555 
L 578.590064 167.320838 
L 578.308948 172.685008 
z
" clip-path="url(#p8a78256367)" style="fill: #009e73"/>
   </g>
   <g id="PolyCollection_4">
    <path d="M 665.46101 178.811945 
L 665.46101 178.805985 
L 665.742125 178.805985 
L 666.023281 178.805985 
L 666.304396 178.805985 
L 666.585551 178.805985 
L 666.866667 178.805985 
L 667.147822 178.805985 
L 667.428938 178.805985 
L 667.710093 178.805985 
L 667.991208 178.805985 
L 668.272364 178.805985 
L 668.553479 178.805985 
L 668.834635 178.805985 
L 669.11575 178.805985 
L 669.396906 178.805985 
L 669.678021 178.805985 
L 669.959176 178.805985 
L 670.240292 178.805985 
L 670.521447 178.805985 
L 670.802603 178.805985 
L 671.083718 178.805985 
L 671.364874 178.805985 
L 671.645989 178.805985 
L 671.927144 178.805985 
L 672.20826 178.805985 
L 672.489415 178.805985 
L 672.770531 178.805985 
L 673.051686 178.805985 
L 673.332801 178.805985 
L 673.613957 178.805985 
L 673.895072 178.805985 
L 674.176228 178.805985 
L 674.457343 178.805985 
L 674.738499 178.805985 
L 675.019614 178.805985 
L 675.30077 178.805985 
L 675.581885 178.805985 
L 675.86304 178.805985 
L 676.144156 178.805985 
L 676.425311 178.805985 
L 676.706427 178.805985 
L 676.987582 178.805985 
L 677.268697 178.805985 
L 677.549853 178.805985 
L 677.830968 178.805985 
L 678.112124 178.805985 
L 678.393239 178.805985 
L 678.674395 178.805985 
L 678.95551 178.805985 
L 679.236665 178.805985 
L 679.517781 178.805985 
L 679.798936 178.805985 
L 680.080052 178.805985 
L 680.361207 178.805985 
L 680.642322 178.805985 
L 680.923478 178.805985 
L 681.204593 178.805985 
L 681.485749 178.805985 
L 681.766864 178.805985 
L 682.04802 178.805985 
L 682.329135 178.805985 
L 682.610291 178.805985 
L 682.891406 178.805985 
L 683.172561 178.805985 
L 683.453677 178.805985 
L 683.734832 178.805985 
L 684.015948 178.805985 
L 684.297103 178.805985 
L 684.578218 178.805985 
L 684.859374 178.805985 
L 685.140489 178.805985 
L 685.421645 178.805985 
L 685.70276 178.805985 
L 685.983916 178.805985 
L 686.265031 178.805985 
L 686.546186 178.805985 
L 686.827302 178.805985 
L 687.108457 178.805985 
L 687.389573 178.805985 
L 687.670728 178.805985 
L 687.951843 178.805985 
L 688.232999 178.805985 
L 688.514114 178.805985 
L 688.79527 178.805985 
L 689.076385 178.805985 
L 689.357541 178.805985 
L 689.638656 178.805985 
L 689.919811 178.805985 
L 690.200927 178.805985 
L 690.482082 178.805985 
L 690.482082 178.726921 
L 690.482082 178.726921 
L 690.200927 178.635392 
L 689.919811 178.534764 
L 689.638656 178.423952 
L 689.357541 178.303664 
L 689.076385 178.17143 
L 688.79527 178.025896 
L 688.514114 177.869469 
L 688.232999 177.701905 
L 687.951843 177.520819 
L 687.670728 177.32669 
L 687.389573 177.119474 
L 687.108457 176.894891 
L 686.827302 176.650325 
L 686.546186 176.386952 
L 686.265031 176.101144 
L 685.983916 175.788664 
L 685.70276 175.451856 
L 685.421645 175.090766 
L 685.140489 174.702386 
L 684.859374 174.287798 
L 684.578218 173.850334 
L 684.297103 173.386946 
L 684.015948 172.89871 
L 683.734832 172.389991 
L 683.453677 171.86365 
L 683.172561 171.320652 
L 682.891406 170.767401 
L 682.610291 170.208794 
L 682.329135 169.645667 
L 682.04802 169.079624 
L 681.766864 168.51482 
L 681.485749 167.952176 
L 681.204593 167.39093 
L 680.923478 166.837659 
L 680.642322 166.296589 
L 680.361207 165.772218 
L 680.080052 165.271188 
L 679.798936 164.801689 
L 679.517781 164.364779 
L 679.236665 163.96533 
L 678.95551 163.605188 
L 678.674395 163.280596 
L 678.393239 162.989321 
L 678.112124 162.726133 
L 677.830968 162.481371 
L 677.549853 162.246393 
L 677.268697 162.016817 
L 676.987582 161.787428 
L 676.706427 161.561018 
L 676.425311 161.345845 
L 676.144156 161.154587 
L 675.86304 161.002974 
L 675.581885 160.908643 
L 675.30077 160.888414 
L 675.019614 160.95934 
L 674.738499 161.132118 
L 674.457343 161.417952 
L 674.176228 161.820968 
L 673.895072 162.345246 
L 673.613957 162.980713 
L 673.332801 163.719957 
L 673.051686 164.541951 
L 672.770531 165.423138 
L 672.489415 166.328648 
L 672.20826 167.231348 
L 671.927144 168.096415 
L 671.645989 168.893546 
L 671.364874 169.60027 
L 671.083718 170.205143 
L 670.802603 170.702033 
L 670.521447 171.096469 
L 670.240292 171.408824 
L 669.959176 171.659977 
L 669.678021 171.876538 
L 669.396906 172.08383 
L 669.11575 172.310598 
L 668.834635 172.571311 
L 668.553479 172.881896 
L 668.272364 173.24896 
L 667.991208 173.677819 
L 667.710093 174.163964 
L 667.428938 174.704124 
L 667.147822 175.288355 
L 666.866667 175.904257 
L 666.585551 176.533539 
L 666.304396 177.158368 
L 666.023281 177.759234 
L 665.742125 178.315958 
L 665.46101 178.811945 
z
" clip-path="url(#p8a78256367)" style="fill: #cc79a7"/>
   </g>
   <g id="PathCollection_1">
    <defs>
     <path id="mef66cbc423" d="M 0 -6.708204 
L -1.506086 -2.072949 
L -6.379881 -2.072949 
L -2.436898 0.791796 
L -3.942983 5.427051 
L -0 2.562306 
L 3.942983 5.427051 
L 2.436898 0.791796 
L 6.379881 -2.072949 
L 1.506086 -2.072949 
z
" style="stroke: #000000; stroke-width: 1.5"/>
    </defs>
    <g clip-path="url(#p8a78256367)">
     <use xlink:href="#mef66cbc423" x="584.493926" y="11.915105" style="stroke: #000000; stroke-width: 1.5"/>
    </g>
   </g>
   <g id="matplotlib.axis_1">
    <g id="xtick_1">
     <g id="line2d_1">
      <defs>
       <path id="m350c8c9ed7" d="M 0 0 
L 0 8 
" style="stroke: #000000; stroke-width: 2"/>
      </defs>
      <g>
       <use xlink:href="#m350c8c9ed7" x="122.306852" y="199.12726" style="stroke: #000000; stroke-width: 2"/>
      </g>
     </g>
     <g id="text_1">
      <!-- 0.0 -->
      <g transform="translate(109.796852 225.011323) scale(0.18 -0.18)">
       <defs>
        <path id="Arial-BoldMT-30" d="M 1756 4600 
Q 2422 4600 2797 4125 
Q 3244 3563 3244 2259 
Q 3244 959 2794 391 
Q 2422 -78 1756 -78 
Q 1088 -78 678 436 
Q 269 950 269 2269 
Q 269 3563 719 4131 
Q 1091 4600 1756 4600 
z
M 1756 3872 
Q 1597 3872 1472 3770 
Q 1347 3669 1278 3406 
Q 1188 3066 1188 2259 
Q 1188 1453 1269 1151 
Q 1350 850 1473 750 
Q 1597 650 1756 650 
Q 1916 650 2041 751 
Q 2166 853 2234 1116 
Q 2325 1453 2325 2259 
Q 2325 3066 2244 3367 
Q 2163 3669 2039 3770 
Q 1916 3872 1756 3872 
z
" transform="scale(0.015625)"/>
        <path id="Arial-BoldMT-2e" d="M 459 0 
L 459 878 
L 1338 878 
L 1338 0 
L 459 0 
z
" transform="scale(0.015625)"/>
       </defs>
       <use xlink:href="#Arial-BoldMT-30"/>
       <use xlink:href="#Arial-BoldMT-2e" x="55.615234"/>
       <use xlink:href="#Arial-BoldMT-30" x="83.398438"/>
      </g>
     </g>
    </g>
    <g id="xtick_2">
     <g id="line2d_2">
      <g>
       <use xlink:href="#m350c8c9ed7" x="290.988266" y="199.12726" style="stroke: #000000; stroke-width: 2"/>
      </g>
     </g>
     <g id="text_2">
      <!-- 0.5 -->
      <g transform="translate(278.478266 225.011323) scale(0.18 -0.18)">
       <defs>
        <path id="Arial-BoldMT-35" d="M 284 1178 
L 1159 1269 
Q 1197 972 1381 798 
Q 1566 625 1806 625 
Q 2081 625 2272 848 
Q 2463 1072 2463 1522 
Q 2463 1944 2273 2155 
Q 2084 2366 1781 2366 
Q 1403 2366 1103 2031 
L 391 2134 
L 841 4519 
L 3163 4519 
L 3163 3697 
L 1506 3697 
L 1369 2919 
Q 1663 3066 1969 3066 
Q 2553 3066 2959 2641 
Q 3366 2216 3366 1538 
Q 3366 972 3038 528 
Q 2591 -78 1797 -78 
Q 1163 -78 763 262 
Q 363 603 284 1178 
z
" transform="scale(0.015625)"/>
       </defs>
       <use xlink:href="#Arial-BoldMT-30"/>
       <use xlink:href="#Arial-BoldMT-2e" x="55.615234"/>
       <use xlink:href="#Arial-BoldMT-35" x="83.398438"/>
      </g>
     </g>
    </g>
    <g id="xtick_3">
     <g id="line2d_3">
      <g>
       <use xlink:href="#m350c8c9ed7" x="459.66968" y="199.12726" style="stroke: #000000; stroke-width: 2"/>
      </g>
     </g>
     <g id="text_3">
      <!-- 1.0 -->
      <g transform="translate(447.15968 225.011323) scale(0.18 -0.18)">
       <defs>
        <path id="Arial-BoldMT-31" d="M 2519 0 
L 1641 0 
L 1641 3309 
Q 1159 2859 506 2644 
L 506 3441 
Q 850 3553 1253 3867 
Q 1656 4181 1806 4600 
L 2519 4600 
L 2519 0 
z
" transform="scale(0.015625)"/>
       </defs>
       <use xlink:href="#Arial-BoldMT-31"/>
       <use xlink:href="#Arial-BoldMT-2e" x="55.615234"/>
       <use xlink:href="#Arial-BoldMT-30" x="83.398438"/>
      </g>
     </g>
    </g>
    <g id="xtick_4">
     <g id="line2d_4">
      <g>
       <use xlink:href="#m350c8c9ed7" x="628.351094" y="199.12726" style="stroke: #000000; stroke-width: 2"/>
      </g>
     </g>
     <g id="text_4">
      <!-- 1.5 -->
      <g transform="translate(615.841094 225.011323) scale(0.18 -0.18)">
       <use xlink:href="#Arial-BoldMT-31"/>
       <use xlink:href="#Arial-BoldMT-2e" x="55.615234"/>
       <use xlink:href="#Arial-BoldMT-35" x="83.398438"/>
      </g>
     </g>
    </g>
    <g id="xtick_5">
     <g id="line2d_5">
      <g>
       <use xlink:href="#m350c8c9ed7" x="797.032508" y="199.12726" style="stroke: #000000; stroke-width: 2"/>
      </g>
     </g>
     <g id="text_5">
      <!-- 2.0 -->
      <g transform="translate(784.522508 225.011323) scale(0.18 -0.18)">
       <defs>
        <path id="Arial-BoldMT-32" d="M 3238 816 
L 3238 0 
L 159 0 
Q 209 463 459 877 
Q 709 1291 1447 1975 
Q 2041 2528 2175 2725 
Q 2356 2997 2356 3263 
Q 2356 3556 2198 3714 
Q 2041 3872 1763 3872 
Q 1488 3872 1325 3706 
Q 1163 3541 1138 3156 
L 263 3244 
Q 341 3969 753 4284 
Q 1166 4600 1784 4600 
Q 2463 4600 2850 4234 
Q 3238 3869 3238 3325 
Q 3238 3016 3127 2736 
Q 3016 2456 2775 2150 
Q 2616 1947 2200 1565 
Q 1784 1184 1673 1059 
Q 1563 934 1494 816 
L 3238 816 
z
" transform="scale(0.015625)"/>
       </defs>
       <use xlink:href="#Arial-BoldMT-32"/>
       <use xlink:href="#Arial-BoldMT-2e" x="55.615234"/>
       <use xlink:href="#Arial-BoldMT-30" x="83.398438"/>
      </g>
     </g>
    </g>
    <g id="xtick_6">
     <g id="line2d_6">
      <g>
       <use xlink:href="#m350c8c9ed7" x="965.713922" y="199.12726" style="stroke: #000000; stroke-width: 2"/>
      </g>
     </g>
     <g id="text_6">
      <!-- 2.5 -->
      <g transform="translate(953.203922 225.011323) scale(0.18 -0.18)">
       <use xlink:href="#Arial-BoldMT-32"/>
       <use xlink:href="#Arial-BoldMT-2e" x="55.615234"/>
       <use xlink:href="#Arial-BoldMT-35" x="83.398438"/>
      </g>
     </g>
    </g>
    <g id="xtick_7">
     <g id="line2d_7">
      <g>
       <use xlink:href="#m350c8c9ed7" x="1134.395336" y="199.12726" style="stroke: #000000; stroke-width: 2"/>
      </g>
     </g>
     <g id="text_7">
      <!-- 3.0 -->
      <g transform="translate(1121.885336 225.011323) scale(0.18 -0.18)">
       <defs>
        <path id="Arial-BoldMT-33" d="M 241 1216 
L 1091 1319 
Q 1131 994 1309 822 
Q 1488 650 1741 650 
Q 2013 650 2198 856 
Q 2384 1063 2384 1413 
Q 2384 1744 2206 1937 
Q 2028 2131 1772 2131 
Q 1603 2131 1369 2066 
L 1466 2781 
Q 1822 2772 2009 2936 
Q 2197 3100 2197 3372 
Q 2197 3603 2059 3740 
Q 1922 3878 1694 3878 
Q 1469 3878 1309 3722 
Q 1150 3566 1116 3266 
L 306 3403 
Q 391 3819 561 4067 
Q 731 4316 1036 4458 
Q 1341 4600 1719 4600 
Q 2366 4600 2756 4188 
Q 3078 3850 3078 3425 
Q 3078 2822 2419 2463 
Q 2813 2378 3048 2084 
Q 3284 1791 3284 1375 
Q 3284 772 2843 347 
Q 2403 -78 1747 -78 
Q 1125 -78 715 280 
Q 306 638 241 1216 
z
" transform="scale(0.015625)"/>
       </defs>
       <use xlink:href="#Arial-BoldMT-33"/>
       <use xlink:href="#Arial-BoldMT-2e" x="55.615234"/>
       <use xlink:href="#Arial-BoldMT-30" x="83.398438"/>
      </g>
     </g>
    </g>
    <g id="text_8">
     <!-- Retention time / min -->
     <g transform="translate(542.350469 245.447573) scale(0.18 -0.18)">
      <defs>
       <path id="Arial-BoldMT-52" d="M 469 0 
L 469 4581 
L 2416 4581 
Q 3150 4581 3483 4457 
Q 3816 4334 4016 4018 
Q 4216 3703 4216 3297 
Q 4216 2781 3912 2445 
Q 3609 2109 3006 2022 
Q 3306 1847 3501 1637 
Q 3697 1428 4028 894 
L 4588 0 
L 3481 0 
L 2813 997 
Q 2456 1531 2325 1670 
Q 2194 1809 2047 1861 
Q 1900 1913 1581 1913 
L 1394 1913 
L 1394 0 
L 469 0 
z
M 1394 2644 
L 2078 2644 
Q 2744 2644 2909 2700 
Q 3075 2756 3169 2893 
Q 3263 3031 3263 3238 
Q 3263 3469 3139 3611 
Q 3016 3753 2791 3791 
Q 2678 3806 2116 3806 
L 1394 3806 
L 1394 2644 
z
" transform="scale(0.015625)"/>
       <path id="Arial-BoldMT-65" d="M 2381 1056 
L 3256 909 
Q 3088 428 2723 176 
Q 2359 -75 1813 -75 
Q 947 -75 531 491 
Q 203 944 203 1634 
Q 203 2459 634 2926 
Q 1066 3394 1725 3394 
Q 2466 3394 2894 2905 
Q 3322 2416 3303 1406 
L 1103 1406 
Q 1113 1016 1316 798 
Q 1519 581 1822 581 
Q 2028 581 2168 693 
Q 2309 806 2381 1056 
z
M 2431 1944 
Q 2422 2325 2234 2523 
Q 2047 2722 1778 2722 
Q 1491 2722 1303 2513 
Q 1116 2303 1119 1944 
L 2431 1944 
z
" transform="scale(0.015625)"/>
       <path id="Arial-BoldMT-74" d="M 1981 3319 
L 1981 2619 
L 1381 2619 
L 1381 1281 
Q 1381 875 1398 808 
Q 1416 741 1477 697 
Q 1538 653 1625 653 
Q 1747 653 1978 738 
L 2053 56 
Q 1747 -75 1359 -75 
Q 1122 -75 931 4 
Q 741 84 652 211 
Q 563 338 528 553 
Q 500 706 500 1172 
L 500 2619 
L 97 2619 
L 97 3319 
L 500 3319 
L 500 3978 
L 1381 4491 
L 1381 3319 
L 1981 3319 
z
" transform="scale(0.015625)"/>
       <path id="Arial-BoldMT-6e" d="M 3478 0 
L 2600 0 
L 2600 1694 
Q 2600 2231 2544 2389 
Q 2488 2547 2361 2634 
Q 2234 2722 2056 2722 
Q 1828 2722 1647 2597 
Q 1466 2472 1398 2265 
Q 1331 2059 1331 1503 
L 1331 0 
L 453 0 
L 453 3319 
L 1269 3319 
L 1269 2831 
Q 1703 3394 2363 3394 
Q 2653 3394 2893 3289 
Q 3134 3184 3257 3021 
Q 3381 2859 3429 2653 
Q 3478 2447 3478 2063 
L 3478 0 
z
" transform="scale(0.015625)"/>
       <path id="Arial-BoldMT-69" d="M 459 3769 
L 459 4581 
L 1338 4581 
L 1338 3769 
L 459 3769 
z
M 459 0 
L 459 3319 
L 1338 3319 
L 1338 0 
L 459 0 
z
" transform="scale(0.015625)"/>
       <path id="Arial-BoldMT-6f" d="M 256 1706 
Q 256 2144 472 2553 
Q 688 2963 1083 3178 
Q 1478 3394 1966 3394 
Q 2719 3394 3200 2905 
Q 3681 2416 3681 1669 
Q 3681 916 3195 420 
Q 2709 -75 1972 -75 
Q 1516 -75 1102 131 
Q 688 338 472 736 
Q 256 1134 256 1706 
z
M 1156 1659 
Q 1156 1166 1390 903 
Q 1625 641 1969 641 
Q 2313 641 2545 903 
Q 2778 1166 2778 1666 
Q 2778 2153 2545 2415 
Q 2313 2678 1969 2678 
Q 1625 2678 1390 2415 
Q 1156 2153 1156 1659 
z
" transform="scale(0.015625)"/>
       <path id="Arial-BoldMT-20" transform="scale(0.015625)"/>
       <path id="Arial-BoldMT-6d" d="M 394 3319 
L 1203 3319 
L 1203 2866 
Q 1638 3394 2238 3394 
Q 2556 3394 2790 3262 
Q 3025 3131 3175 2866 
Q 3394 3131 3647 3262 
Q 3900 3394 4188 3394 
Q 4553 3394 4806 3245 
Q 5059 3097 5184 2809 
Q 5275 2597 5275 2122 
L 5275 0 
L 4397 0 
L 4397 1897 
Q 4397 2391 4306 2534 
Q 4184 2722 3931 2722 
Q 3747 2722 3584 2609 
Q 3422 2497 3350 2280 
Q 3278 2063 3278 1594 
L 3278 0 
L 2400 0 
L 2400 1819 
Q 2400 2303 2353 2443 
Q 2306 2584 2207 2653 
Q 2109 2722 1941 2722 
Q 1738 2722 1575 2612 
Q 1413 2503 1342 2297 
Q 1272 2091 1272 1613 
L 1272 0 
L 394 0 
L 394 3319 
z
" transform="scale(0.015625)"/>
       <path id="Arial-BoldMT-2f" d="M -9 -78 
L 1125 4659 
L 1784 4659 
L 638 -78 
L -9 -78 
z
" transform="scale(0.015625)"/>
      </defs>
      <use xlink:href="#Arial-BoldMT-52"/>
      <use xlink:href="#Arial-BoldMT-65" x="72.216797"/>
      <use xlink:href="#Arial-BoldMT-74" x="127.832031"/>
      <use xlink:href="#Arial-BoldMT-65" x="161.132812"/>
      <use xlink:href="#Arial-BoldMT-6e" x="216.748047"/>
      <use xlink:href="#Arial-BoldMT-74" x="277.832031"/>
      <use xlink:href="#Arial-BoldMT-69" x="311.132812"/>
      <use xlink:href="#Arial-BoldMT-6f" x="338.916016"/>
      <use xlink:href="#Arial-BoldMT-6e" x="400"/>
      <use xlink:href="#Arial-BoldMT-20" x="461.083984"/>
      <use xlink:href="#Arial-BoldMT-74" x="488.867188"/>
      <use xlink:href="#Arial-BoldMT-69" x="522.167969"/>
      <use xlink:href="#Arial-BoldMT-6d" x="549.951172"/>
      <use xlink:href="#Arial-BoldMT-65" x="638.867188"/>
      <use xlink:href="#Arial-BoldMT-20" x="694.482422"/>
      <use xlink:href="#Arial-BoldMT-2f" x="722.265625"/>
      <use xlink:href="#Arial-BoldMT-20" x="750.048828"/>
      <use xlink:href="#Arial-BoldMT-6d" x="777.832031"/>
      <use xlink:href="#Arial-BoldMT-69" x="866.748047"/>
      <use xlink:href="#Arial-BoldMT-6e" x="894.53125"/>
     </g>
    </g>
   </g>
   <g id="matplotlib.axis_2">
    <g id="ytick_1">
     <g id="line2d_8">
      <defs>
       <path id="m776fb1b490" d="M 0 0 
L -8 0 
" style="stroke: #000000; stroke-width: 2"/>
      </defs>
      <g>
       <use xlink:href="#m776fb1b490" x="71.702428" y="178.166142" style="stroke: #000000; stroke-width: 2"/>
      </g>
     </g>
     <g id="text_9">
      <!-- 0.00 -->
      <g transform="translate(23.67274 184.608173) scale(0.18 -0.18)">
       <use xlink:href="#Arial-BoldMT-30"/>
       <use xlink:href="#Arial-BoldMT-2e" x="55.615234"/>
       <use xlink:href="#Arial-BoldMT-30" x="83.398438"/>
       <use xlink:href="#Arial-BoldMT-30" x="139.013672"/>
      </g>
     </g>
    </g>
    <g id="ytick_2">
     <g id="line2d_9">
      <g>
       <use xlink:href="#m776fb1b490" x="71.702428" y="137.634408" style="stroke: #000000; stroke-width: 2"/>
      </g>
     </g>
     <g id="text_10">
      <!-- 0.25 -->
      <g transform="translate(23.67274 144.076439) scale(0.18 -0.18)">
       <use xlink:href="#Arial-BoldMT-30"/>
       <use xlink:href="#Arial-BoldMT-2e" x="55.615234"/>
       <use xlink:href="#Arial-BoldMT-32" x="83.398438"/>
       <use xlink:href="#Arial-BoldMT-35" x="139.013672"/>
      </g>
     </g>
    </g>
    <g id="ytick_3">
     <g id="line2d_10">
      <g>
       <use xlink:href="#m776fb1b490" x="71.702428" y="97.102673" style="stroke: #000000; stroke-width: 2"/>
      </g>
     </g>
     <g id="text_11">
      <!-- 0.50 -->
      <g transform="translate(23.67274 103.544704) scale(0.18 -0.18)">
       <use xlink:href="#Arial-BoldMT-30"/>
       <use xlink:href="#Arial-BoldMT-2e" x="55.615234"/>
       <use xlink:href="#Arial-BoldMT-35" x="83.398438"/>
       <use xlink:href="#Arial-BoldMT-30" x="139.013672"/>
      </g>
     </g>
    </g>
    <g id="ytick_4">
     <g id="line2d_11">
      <g>
       <use xlink:href="#m776fb1b490" x="71.702428" y="56.570939" style="stroke: #000000; stroke-width: 2"/>
      </g>
     </g>
     <g id="text_12">
      <!-- 0.75 -->
      <g transform="translate(23.67274 63.01297) scale(0.18 -0.18)">
       <defs>
        <path id="Arial-BoldMT-37" d="M 272 3703 
L 272 4519 
L 3275 4519 
L 3275 3881 
Q 2903 3516 2518 2831 
Q 2134 2147 1932 1376 
Q 1731 606 1734 0 
L 888 0 
Q 909 950 1279 1937 
Q 1650 2925 2269 3703 
L 272 3703 
z
" transform="scale(0.015625)"/>
       </defs>
       <use xlink:href="#Arial-BoldMT-30"/>
       <use xlink:href="#Arial-BoldMT-2e" x="55.615234"/>
       <use xlink:href="#Arial-BoldMT-37" x="83.398438"/>
       <use xlink:href="#Arial-BoldMT-35" x="139.013672"/>
      </g>
     </g>
    </g>
    <g id="ytick_5">
     <g id="line2d_12">
      <g>
       <use xlink:href="#m776fb1b490" x="71.702428" y="16.039204" style="stroke: #000000; stroke-width: 2"/>
      </g>
     </g>
     <g id="text_13">
      <!-- 1.00 -->
      <g transform="translate(23.67274 22.481236) scale(0.18 -0.18)">
       <use xlink:href="#Arial-BoldMT-31"/>
       <use xlink:href="#Arial-BoldMT-2e" x="55.615234"/>
       <use xlink:href="#Arial-BoldMT-30" x="83.398438"/>
       <use xlink:href="#Arial-BoldMT-30" x="139.013672"/>
      </g>
     </g>
    </g>
    <g id="text_14">
     <!-- Rel. Intensity -->
     <g transform="translate(15.884303 157.071875) rotate(-90) scale(0.18 -0.18)">
      <defs>
       <path id="Arial-BoldMT-6c" d="M 459 0 
L 459 4581 
L 1338 4581 
L 1338 0 
L 459 0 
z
" transform="scale(0.015625)"/>
       <path id="Arial-BoldMT-49" d="M 438 0 
L 438 4581 
L 1363 4581 
L 1363 0 
L 438 0 
z
" transform="scale(0.015625)"/>
       <path id="Arial-BoldMT-73" d="M 150 947 
L 1031 1081 
Q 1088 825 1259 692 
Q 1431 559 1741 559 
Q 2081 559 2253 684 
Q 2369 772 2369 919 
Q 2369 1019 2306 1084 
Q 2241 1147 2013 1200 
Q 950 1434 666 1628 
Q 272 1897 272 2375 
Q 272 2806 612 3100 
Q 953 3394 1669 3394 
Q 2350 3394 2681 3172 
Q 3013 2950 3138 2516 
L 2309 2363 
Q 2256 2556 2107 2659 
Q 1959 2763 1684 2763 
Q 1338 2763 1188 2666 
Q 1088 2597 1088 2488 
Q 1088 2394 1175 2328 
Q 1294 2241 1995 2081 
Q 2697 1922 2975 1691 
Q 3250 1456 3250 1038 
Q 3250 581 2869 253 
Q 2488 -75 1741 -75 
Q 1063 -75 667 200 
Q 272 475 150 947 
z
" transform="scale(0.015625)"/>
       <path id="Arial-BoldMT-79" d="M 44 3319 
L 978 3319 
L 1772 963 
L 2547 3319 
L 3456 3319 
L 2284 125 
L 2075 -453 
Q 1959 -744 1854 -897 
Q 1750 -1050 1614 -1145 
Q 1478 -1241 1279 -1294 
Q 1081 -1347 831 -1347 
Q 578 -1347 334 -1294 
L 256 -606 
Q 463 -647 628 -647 
Q 934 -647 1081 -467 
Q 1228 -288 1306 -9 
L 44 3319 
z
" transform="scale(0.015625)"/>
      </defs>
      <use xlink:href="#Arial-BoldMT-52"/>
      <use xlink:href="#Arial-BoldMT-65" x="72.216797"/>
      <use xlink:href="#Arial-BoldMT-6c" x="127.832031"/>
      <use xlink:href="#Arial-BoldMT-2e" x="155.615234"/>
      <use xlink:href="#Arial-BoldMT-20" x="183.398438"/>
      <use xlink:href="#Arial-BoldMT-49" x="211.181641"/>
      <use xlink:href="#Arial-BoldMT-6e" x="238.964844"/>
      <use xlink:href="#Arial-BoldMT-74" x="300.048828"/>
      <use xlink:href="#Arial-BoldMT-65" x="333.349609"/>
      <use xlink:href="#Arial-BoldMT-6e" x="388.964844"/>
      <use xlink:href="#Arial-BoldMT-73" x="450.048828"/>
      <use xlink:href="#Arial-BoldMT-69" x="505.664062"/>
      <use xlink:href="#Arial-BoldMT-74" x="533.447266"/>
      <use xlink:href="#Arial-BoldMT-79" x="566.748047"/>
     </g>
    </g>
   </g>
   <g id="line2d_13">
    <path d="M 122.306852 177.918468 
L 152.107234 178.051868 
L 168.694242 178.113358 
L 189.779418 178.112621 
L 194.839861 177.972062 
L 197.37008 177.982411 
L 199.056897 177.741468 
L 202.149387 177.158854 
L 203.555064 177.026213 
L 204.11734 176.691885 
L 204.679611 175.833377 
L 205.241882 174.215897 
L 205.804152 171.823628 
L 207.490965 163.876222 
L 208.053236 162.549571 
L 208.334371 162.263961 
L 208.615507 162.214542 
L 208.896642 162.383284 
L 209.177778 162.750144 
L 209.740048 164.05202 
L 210.302319 166.167369 
L 210.86459 169.211726 
L 211.707996 175.26946 
L 212.832548 183.587179 
L 213.394819 186.662771 
L 213.95709 188.712159 
L 214.519361 189.821242 
L 215.081631 190.212395 
L 215.643902 190.115103 
L 216.206173 189.711064 
L 217.049579 188.784854 
L 220.70434 184.301507 
L 222.391152 182.805132 
L 224.35911 181.331707 
L 226.045923 180.320469 
L 227.732735 179.567464 
L 229.419548 179.051769 
L 231.387496 178.679014 
L 234.19886 178.42101 
L 240.102704 178.138585 
L 253.316079 177.428917 
L 254.440631 177.230217 
L 255.565172 176.78962 
L 257.251985 176.084145 
L 258.376527 175.948818 
L 259.501068 176.051455 
L 261.469016 176.520035 
L 263.999235 177.075727 
L 266.529464 177.357565 
L 270.46536 177.466577 
L 274.682391 177.623389 
L 284.803276 178.180379 
L 294.080755 178.16606 
L 310.667765 178.079602 
L 361.272182 178.488828 
L 398.382097 177.880075 
L 413.56343 177.692381 
L 428.463628 177.927024 
L 437.459961 178.368179 
L 448.986514 179.083449 
L 449.548805 178.857109 
L 450.111075 178.189194 
L 450.673346 176.877807 
L 451.516752 173.81429 
L 452.641294 169.590515 
L 453.203565 168.259368 
L 453.765836 167.634746 
L 454.046971 167.56751 
L 454.328107 167.642172 
L 454.890378 168.130087 
L 455.452648 168.958404 
L 456.57719 171.159265 
L 458.264003 174.498483 
L 459.388544 176.198271 
L 460.513106 177.457333 
L 461.637648 178.377011 
L 463.043305 179.198207 
L 464.449002 179.769011 
L 466.41693 180.307974 
L 468.947169 180.754343 
L 473.16418 181.208964 
L 475.975534 181.413948 
L 476.537805 181.274478 
L 476.818961 181.051138 
L 477.100076 180.610178 
L 477.381231 179.810061 
L 477.662347 178.447217 
L 477.943502 176.261513 
L 478.224618 172.955848 
L 478.786888 161.76123 
L 479.349159 143.106903 
L 480.192586 103.041878 
L 481.317127 49.775206 
L 481.879398 32.637871 
L 482.441669 22.539031 
L 483.00394 17.599254 
L 483.285095 16.478233 
L 483.566211 16.039204 
L 483.847366 16.203475 
L 484.128482 16.860667 
L 484.409637 18.003023 
L 484.971908 21.828444 
L 485.534179 27.759704 
L 486.09645 35.949172 
L 486.939836 52.311415 
L 488.626648 92.792615 
L 489.75119 117.62949 
L 490.594616 132.635424 
L 491.438003 144.428038 
L 492.281429 153.479194 
L 493.124815 160.194363 
L 493.687086 163.178898 
L 493.968241 164.008401 
L 494.249357 164.228204 
L 494.530512 163.694363 
L 494.811628 162.268446 
L 495.092783 159.845435 
L 495.655054 151.850566 
L 496.217325 140.036278 
L 497.622982 102.537326 
L 498.747523 75.541246 
L 499.59095 60.705179 
L 500.153221 53.612984 
L 500.715492 48.598768 
L 501.277762 45.420662 
L 501.840033 43.741272 
L 502.121189 43.383318 
L 502.402304 43.312564 
L 502.68346 43.471071 
L 502.964575 43.880701 
L 503.526846 45.396153 
L 504.089117 47.710486 
L 504.932543 52.327569 
L 505.775929 57.979373 
L 506.900471 67.267979 
L 508.587283 83.698558 
L 510.555251 105.349616 
L 513.366606 136.155229 
L 514.772263 148.942177 
L 515.896804 157.222173 
L 517.021346 163.711804 
L 517.864772 167.501107 
L 518.708159 170.525517 
L 519.551585 172.908213 
L 520.394971 174.759127 
L 521.238397 176.174688 
L 522.081784 177.223036 
L 523.206366 178.214325 
L 524.612023 179.121859 
L 526.01772 179.790261 
L 527.985648 180.438606 
L 531.921543 181.487184 
L 534.732898 182.051843 
L 536.41971 182.218419 
L 537.544252 182.106526 
L 540.355606 181.530163 
L 542.042419 181.558871 
L 543.448116 181.538098 
L 544.010387 181.366887 
L 544.572658 181.019507 
L 545.416084 180.174603 
L 546.821741 178.597308 
L 547.384012 178.197707 
L 547.946283 177.995186 
L 548.508553 177.976221 
L 549.35198 178.211659 
L 550.476522 178.839482 
L 553.568991 180.74794 
L 554.974688 181.290316 
L 556.09923 181.462944 
L 557.223772 181.362402 
L 558.910584 180.888464 
L 560.597397 180.453055 
L 561.721938 180.421477 
L 563.408751 180.66367 
L 565.376719 180.972013 
L 566.501261 180.933328 
L 567.906918 180.620846 
L 569.59373 180.281383 
L 570.999427 180.28153 
L 572.967355 180.578396 
L 576.059865 181.097324 
L 576.622136 181.07008 
L 576.903251 180.937785 
L 577.184407 180.6062 
L 577.465522 179.905972 
L 577.746678 178.586704 
L 578.027793 176.309908 
L 578.308948 172.685008 
L 578.871219 159.908555 
L 579.43349 138.568842 
L 581.401418 45.801267 
L 581.963689 32.008802 
L 582.52596 24.794482 
L 582.807115 23.002595 
L 583.08823 22.137131 
L 583.369386 22.072182 
L 583.650501 22.676812 
L 583.931657 23.913418 
L 584.493928 28.127798 
L 585.056199 34.655527 
L 585.618469 43.442143 
L 586.461896 60.373604 
L 589.27325 122.335836 
L 590.116636 135.977756 
L 590.960063 146.6466 
L 591.803449 154.722685 
L 592.646875 160.725367 
L 593.490261 165.148609 
L 594.333688 168.394664 
L 595.177074 170.757774 
L 596.0205 172.46683 
L 596.863886 173.697083 
L 597.707313 174.581143 
L 598.831854 175.422695 
L 600.237511 176.173445 
L 603.611136 177.56501 
L 606.141375 178.389132 
L 608.390459 178.895878 
L 611.201813 179.341297 
L 612.326355 179.350579 
L 612.888625 179.196546 
L 613.450896 178.872346 
L 614.294323 178.021406 
L 616.824521 174.7716 
L 617.667948 174.226462 
L 618.230219 174.074739 
L 618.792489 174.089337 
L 619.635876 174.375954 
L 620.479302 174.899298 
L 621.884959 176.090254 
L 623.852927 177.74124 
L 624.977469 178.463694 
L 626.10201 178.908715 
L 626.945397 179.025474 
L 628.351094 178.942385 
L 630.881333 178.78627 
L 632.28699 178.858298 
L 633.973802 179.201175 
L 636.785156 179.761239 
L 638.190854 179.878008 
L 639.03424 179.726591 
L 640.439937 179.145625 
L 641.564479 178.78574 
L 642.407865 178.728008 
L 643.532407 178.894863 
L 645.219219 179.445182 
L 647.749458 180.251799 
L 648.311729 180.286138 
L 648.874 180.116837 
L 649.436271 179.643386 
L 649.998541 178.846222 
L 652.247625 175.131997 
L 652.809896 174.720349 
L 653.372166 174.592775 
L 653.934437 174.704527 
L 654.777864 175.213435 
L 656.183521 176.514172 
L 658.151489 178.35736 
L 659.557146 179.321371 
L 660.962843 179.976765 
L 662.087385 180.287072 
L 663.211926 180.374084 
L 664.055312 180.203666 
L 664.617583 179.860366 
L 665.179854 179.239777 
L 666.023281 177.759234 
L 667.991208 173.677819 
L 668.834635 172.571311 
L 670.802603 170.702033 
L 671.364874 169.60027 
L 672.20826 167.231348 
L 673.613957 162.980713 
L 674.176228 161.820968 
L 674.738499 161.132118 
L 675.30077 160.888414 
L 675.86304 161.002974 
L 676.706427 161.561018 
L 678.674395 163.280596 
L 679.517781 164.364779 
L 680.642322 166.296589 
L 684.859374 174.287798 
L 685.983916 175.788664 
L 687.108457 176.894891 
L 688.232999 177.701905 
L 689.638656 178.423952 
L 691.044353 178.889113 
L 693.574592 179.425637 
L 696.104791 179.710256 
L 696.948217 179.67776 
L 697.510488 179.484615 
L 698.072759 179.035567 
L 698.63503 178.256472 
L 699.478416 176.496835 
L 700.884113 173.292728 
L 701.446384 172.382259 
L 702.008655 171.787333 
L 702.570926 171.501418 
L 703.133196 171.491693 
L 703.695467 171.717453 
L 704.538853 172.389709 
L 705.663395 173.674638 
L 708.474749 177.115335 
L 709.599291 178.100727 
L 710.442717 178.573047 
L 711.286104 178.805215 
L 712.691801 178.883326 
L 714.659769 179.019049 
L 717.189968 179.498246 
L 718.87678 179.749015 
L 719.720206 179.650905 
L 720.563593 179.314996 
L 722.812676 178.123808 
L 723.656102 177.958898 
L 724.499488 177.984594 
L 725.62403 178.242139 
L 727.591998 178.764306 
L 728.154269 178.725408 
L 728.71654 178.452047 
L 729.278811 177.864704 
L 729.841082 176.956796 
L 732.37128 172.119938 
L 732.933551 171.539955 
L 733.495822 171.218533 
L 734.058133 171.134564 
L 734.620404 171.256926 
L 735.46379 171.762231 
L 736.588332 172.855079 
L 739.961957 176.57487 
L 740.805383 177.151149 
L 741.648769 177.480937 
L 742.773311 177.622488 
L 745.584665 177.824837 
L 748.114904 178.406907 
L 749.239446 178.581746 
L 750.082832 178.466837 
L 750.926258 178.101761 
L 752.613071 177.284645 
L 753.456457 177.139669 
L 754.299883 177.193427 
L 755.424425 177.478638 
L 760.766018 179.23593 
L 762.733946 179.457263 
L 765.264185 179.464466 
L 772.29255 179.360884 
L 781.570039 179.198095 
L 782.13231 179.001374 
L 782.694581 178.58956 
L 783.256852 177.857738 
L 783.819123 176.765234 
L 786.349362 171.0753 
L 786.911633 170.567983 
L 787.473903 170.414541 
L 788.036174 170.553051 
L 788.598445 170.926501 
L 789.441831 171.809264 
L 791.409799 174.431664 
L 792.534341 175.760131 
L 793.658883 176.766557 
L 794.783424 177.464929 
L 796.189081 177.967183 
L 797.594819 178.25286 
L 800.406133 178.530759 
L 802.936332 178.615332 
L 805.747726 178.576746 
L 806.591152 178.384064 
L 807.153383 178.085002 
L 807.715694 177.588769 
L 808.55904 176.474357 
L 810.245893 174.036229 
L 811.089319 173.312214 
L 811.65155 173.062322 
L 812.213861 172.98959 
L 813.057207 173.16555 
L 813.900633 173.594443 
L 815.30629 174.6166 
L 817.836569 176.526436 
L 819.242226 177.276606 
L 820.647883 177.746366 
L 822.334736 178.054918 
L 825.14605 178.301436 
L 829.081986 178.366958 
L 848.199195 178.456893 
L 849.042621 178.271142 
L 849.604852 177.958305 
L 850.167163 177.387927 
L 850.729393 176.480695 
L 851.57282 174.492296 
L 853.259673 170.030995 
L 853.821903 169.003081 
L 854.384214 168.32809 
L 854.946445 167.998684 
L 855.508756 167.971294 
L 856.070987 168.202874 
L 856.914413 168.913745 
L 858.038955 170.324588 
L 860.850349 174.221698 
L 861.974891 175.377614 
L 863.099432 176.204625 
L 864.223974 176.778023 
L 865.629631 177.245211 
L 867.597599 177.62701 
L 870.690029 177.930423 
L 876.593933 178.166836 
L 893.180943 178.241717 
L 904.707475 178.216821 
L 911.17361 178.179722 
L 914.82835 178.099063 
L 929.447392 178.196596 
L 939.568267 178.234484 
L 946.034402 178.166856 
L 955.874162 178.237143 
L 968.24412 178.119011 
L 972.180057 177.872724 
L 974.991371 177.961805 
L 981.17639 178.252697 
L 989.329297 178.25912 
L 994.389775 178.191791 
L 1008.446586 178.293784 
L 1017.724035 178.273167 
L 1057.926421 178.131312 
L 1109.655419 178.137691 
L 1119.495179 178.128396 
L 1129.053743 178.138387 
L 1134.11422 178.145002 
L 1134.11422 178.145002 
" clip-path="url(#p8a78256367)" style="fill: none; stroke: #000000; stroke-width: 2.5; stroke-linecap: square"/>
   </g>
   <g id="line2d_14">
    <path d="M 257.251983 199.12726 
L 257.251983 3.00024 
" clip-path="url(#p8a78256367)" style="fill: none; stroke: #d55e00; stroke-width: 2; stroke-linecap: square"/>
   </g>
   <g id="line2d_15">
    <path d="M 1134.395336 199.12726 
L 1134.395336 3.00024 
" clip-path="url(#p8a78256367)" style="fill: none; stroke: #d55e00; stroke-width: 2; stroke-linecap: square"/>
   </g>
   <g id="patch_3">
    <path d="M 71.702428 199.12726 
L 71.702428 3.00024 
" style="fill: none; stroke: #000000; stroke-width: 2; stroke-linejoin: miter; stroke-linecap: square"/>
   </g>
   <g id="patch_4">
    <path d="M 1184.99976 199.12726 
L 1184.99976 3.00024 
" style="fill: none; stroke: #000000; stroke-width: 2; stroke-linejoin: miter; stroke-linecap: square"/>
   </g>
   <g id="patch_5">
    <path d="M 71.702428 199.12726 
L 1184.99976 199.12726 
" style="fill: none; stroke: #000000; stroke-width: 2; stroke-linejoin: miter; stroke-linecap: square"/>
   </g>
   <g id="patch_6">
    <path d="M 71.702428 3.00024 
L 1184.99976 3.00024 
" style="fill: none; stroke: #000000; stroke-width: 2; stroke-linejoin: miter; stroke-linecap: square"/>
   </g>
   <g id="text_15">
    <!-- ANALYSIS -->
    <g style="fill: #d55e00" transform="translate(250.919382 134.325278) rotate(-90) scale(0.14994 -0.14994)">
     <defs>
      <path id="Arial-BoldMT-41" d="M 4597 0 
L 3591 0 
L 3191 1041 
L 1359 1041 
L 981 0 
L 0 0 
L 1784 4581 
L 2763 4581 
L 4597 0 
z
M 2894 1813 
L 2263 3513 
L 1644 1813 
L 2894 1813 
z
" transform="scale(0.015625)"/>
      <path id="Arial-BoldMT-4e" d="M 475 0 
L 475 4581 
L 1375 4581 
L 3250 1522 
L 3250 4581 
L 4109 4581 
L 4109 0 
L 3181 0 
L 1334 2988 
L 1334 0 
L 475 0 
z
" transform="scale(0.015625)"/>
      <path id="Arial-BoldMT-4c" d="M 491 0 
L 491 4544 
L 1416 4544 
L 1416 772 
L 3716 772 
L 3716 0 
L 491 0 
z
" transform="scale(0.015625)"/>
      <path id="Arial-BoldMT-59" d="M 1669 0 
L 1669 1928 
L -9 4581 
L 1075 4581 
L 2153 2769 
L 3209 4581 
L 4275 4581 
L 2591 1922 
L 2591 0 
L 1669 0 
z
" transform="scale(0.015625)"/>
      <path id="Arial-BoldMT-53" d="M 231 1491 
L 1131 1578 
Q 1213 1125 1461 912 
Q 1709 700 2131 700 
Q 2578 700 2804 889 
Q 3031 1078 3031 1331 
Q 3031 1494 2936 1608 
Q 2841 1722 2603 1806 
Q 2441 1863 1863 2006 
Q 1119 2191 819 2459 
Q 397 2838 397 3381 
Q 397 3731 595 4036 
Q 794 4341 1167 4500 
Q 1541 4659 2069 4659 
Q 2931 4659 3367 4281 
Q 3803 3903 3825 3272 
L 2900 3231 
Q 2841 3584 2645 3739 
Q 2450 3894 2059 3894 
Q 1656 3894 1428 3728 
Q 1281 3622 1281 3444 
Q 1281 3281 1419 3166 
Q 1594 3019 2269 2859 
Q 2944 2700 3267 2529 
Q 3591 2359 3773 2064 
Q 3956 1769 3956 1334 
Q 3956 941 3737 597 
Q 3519 253 3119 86 
Q 2719 -81 2122 -81 
Q 1253 -81 787 320 
Q 322 722 231 1491 
z
" transform="scale(0.015625)"/>
     </defs>
     <use xlink:href="#Arial-BoldMT-41"/>
     <use xlink:href="#Arial-BoldMT-4e" x="72.216797"/>
     <use xlink:href="#Arial-BoldMT-41" x="144.433594"/>
     <use xlink:href="#Arial-BoldMT-4c" x="216.650391"/>
     <use xlink:href="#Arial-BoldMT-59" x="268.609375"/>
     <use xlink:href="#Arial-BoldMT-53" x="335.308594"/>
     <use xlink:href="#Arial-BoldMT-49" x="402.007812"/>
     <use xlink:href="#Arial-BoldMT-53" x="429.791016"/>
    </g>
   </g>
   <g id="text_16">
    <!-- START -->
    <g style="fill: #d55e00" transform="translate(274.731664 121.537036) rotate(-90) scale(0.14994 -0.14994)">
     <defs>
      <path id="Arial-BoldMT-54" d="M 1497 0 
L 1497 3806 
L 138 3806 
L 138 4581 
L 3778 4581 
L 3778 3806 
L 2422 3806 
L 2422 0 
L 1497 0 
z
" transform="scale(0.015625)"/>
     </defs>
     <use xlink:href="#Arial-BoldMT-53"/>
     <use xlink:href="#Arial-BoldMT-54" x="66.699219"/>
     <use xlink:href="#Arial-BoldMT-41" x="120.408203"/>
     <use xlink:href="#Arial-BoldMT-52" x="192.625"/>
     <use xlink:href="#Arial-BoldMT-54" x="264.841797"/>
    </g>
   </g>
   <g id="text_17">
    <!-- ANALYSIS -->
    <g style="fill: #d55e00" transform="translate(1128.062735 134.325278) rotate(-90) scale(0.14994 -0.14994)">
     <use xlink:href="#Arial-BoldMT-41"/>
     <use xlink:href="#Arial-BoldMT-4e" x="72.216797"/>
     <use xlink:href="#Arial-BoldMT-41" x="144.433594"/>
     <use xlink:href="#Arial-BoldMT-4c" x="216.650391"/>
     <use xlink:href="#Arial-BoldMT-59" x="268.609375"/>
     <use xlink:href="#Arial-BoldMT-53" x="335.308594"/>
     <use xlink:href="#Arial-BoldMT-49" x="402.007812"/>
     <use xlink:href="#Arial-BoldMT-53" x="429.791016"/>
    </g>
   </g>
   <g id="text_18">
    <!-- END -->
    <g style="fill: #d55e00" transform="translate(1151.875016 112.931886) rotate(-90) scale(0.14994 -0.14994)">
     <defs>
      <path id="Arial-BoldMT-45" d="M 466 0 
L 466 4581 
L 3863 4581 
L 3863 3806 
L 1391 3806 
L 1391 2791 
L 3691 2791 
L 3691 2019 
L 1391 2019 
L 1391 772 
L 3950 772 
L 3950 0 
L 466 0 
z
" transform="scale(0.015625)"/>
      <path id="Arial-BoldMT-44" d="M 463 4581 
L 2153 4581 
Q 2725 4581 3025 4494 
Q 3428 4375 3715 4072 
Q 4003 3769 4153 3330 
Q 4303 2891 4303 2247 
Q 4303 1681 4163 1272 
Q 3991 772 3672 463 
Q 3431 228 3022 97 
Q 2716 0 2203 0 
L 463 0 
L 463 4581 
z
M 1388 3806 
L 1388 772 
L 2078 772 
Q 2466 772 2638 816 
Q 2863 872 3011 1006 
Q 3159 1141 3253 1448 
Q 3347 1756 3347 2288 
Q 3347 2819 3253 3103 
Q 3159 3388 2990 3547 
Q 2822 3706 2563 3763 
Q 2369 3806 1803 3806 
L 1388 3806 
z
" transform="scale(0.015625)"/>
     </defs>
     <use xlink:href="#Arial-BoldMT-45"/>
     <use xlink:href="#Arial-BoldMT-4e" x="66.699219"/>
     <use xlink:href="#Arial-BoldMT-44" x="138.916016"/>
    </g>
   </g>
  </g>
 </g>
 <defs>
  <clipPath id="p8a78256367">
   <rect x="71.702428" y="3.00024" width="1113.297333" height="196.12702"/>
  </clipPath>
 </defs>
</svg>
