<?xml version="1.0" encoding="utf-8" standalone="no"?>
<!DOCTYPE svg PUBLIC "-//W3C//DTD SVG 1.1//EN"
  "http://www.w3.org/Graphics/SVG/1.1/DTD/svg11.dtd">
<svg xmlns:xlink="http://www.w3.org/1999/xlink" width="1188pt" height="252pt" viewBox="0 0 1188 252" xmlns="http://www.w3.org/2000/svg" version="1.1">
 <metadata>
  <rdf:RDF xmlns:dc="http://purl.org/dc/elements/1.1/" xmlns:cc="http://creativecommons.org/ns#" xmlns:rdf="http://www.w3.org/1999/02/22-rdf-syntax-ns#">
   <cc:Work>
    <dc:type rdf:resource="http://purl.org/dc/dcmitype/StillImage"/>
    <dc:date>2024-05-13T16:41:37.211739</dc:date>
    <dc:format>image/svg+xml</dc:format>
    <dc:creator>
     <cc:Agent>
      <dc:title>Matplotlib v3.8.0, https://matplotlib.org/</dc:title>
     </cc:Agent>
    </dc:creator>
   </cc:Work>
  </rdf:RDF>
 </metadata>
 <defs>
  <style type="text/css">*{stroke-linejoin: round; stroke-linecap: butt}</style>
 </defs>
 <g id="figure_1">
  <g id="patch_1">
   <path d="M 0 252 
L 1188 252 
L 1188 0 
L 0 0 
z
" style="fill: #ffffff"/>
  </g>
  <g id="axes_1">
   <g id="patch_2">
    <path d="M 3.00024 198.907885 
L 1184.99976 198.907885 
L 1184.99976 20.50024 
L 3.00024 20.50024 
z
" style="fill: #ffffff"/>
   </g>
   <g id="matplotlib.axis_1">
    <g id="xtick_1">
     <g id="line2d_1">
      <defs>
       <path id="m014b2bef43" d="M 0 0 
L 0 8 
" style="stroke: #000000; stroke-width: 2"/>
      </defs>
      <g>
       <use xlink:href="#m014b2bef43" x="56.727491" y="198.907885" style="stroke: #000000; stroke-width: 2"/>
      </g>
     </g>
     <g id="text_1">
      <!-- 11.0 -->
      <g transform="translate(39.707647 224.791947) scale(0.18 -0.18)">
       <defs>
        <path id="Arial-BoldMT-31" d="M 2519 0 
L 1641 0 
L 1641 3309 
Q 1159 2859 506 2644 
L 506 3441 
Q 850 3553 1253 3867 
Q 1656 4181 1806 4600 
L 2519 4600 
L 2519 0 
z
" transform="scale(0.015625)"/>
        <path id="Arial-BoldMT-2e" d="M 459 0 
L 459 878 
L 1338 878 
L 1338 0 
L 459 0 
z
" transform="scale(0.015625)"/>
        <path id="Arial-BoldMT-30" d="M 1756 4600 
Q 2422 4600 2797 4125 
Q 3244 3563 3244 2259 
Q 3244 959 2794 391 
Q 2422 -78 1756 -78 
Q 1088 -78 678 436 
Q 269 950 269 2269 
Q 269 3563 719 4131 
Q 1091 4600 1756 4600 
z
M 1756 3872 
Q 1597 3872 1472 3770 
Q 1347 3669 1278 3406 
Q 1188 3066 1188 2259 
Q 1188 1453 1269 1151 
Q 1350 850 1473 750 
Q 1597 650 1756 650 
Q 1916 650 2041 751 
Q 2166 853 2234 1116 
Q 2325 1453 2325 2259 
Q 2325 3066 2244 3367 
Q 2163 3669 2039 3770 
Q 1916 3872 1756 3872 
z
" transform="scale(0.015625)"/>
       </defs>
       <use xlink:href="#Arial-BoldMT-31"/>
       <use xlink:href="#Arial-BoldMT-31" x="50.115234"/>
       <use xlink:href="#Arial-BoldMT-2e" x="105.730469"/>
       <use xlink:href="#Arial-BoldMT-30" x="133.513672"/>
      </g>
     </g>
    </g>
    <g id="xtick_2">
     <g id="line2d_2">
      <g>
       <use xlink:href="#m014b2bef43" x="154.599527" y="198.907885" style="stroke: #000000; stroke-width: 2"/>
      </g>
     </g>
     <g id="text_2">
      <!-- 10.5 -->
      <g transform="translate(137.084683 224.791947) scale(0.18 -0.18)">
       <defs>
        <path id="Arial-BoldMT-35" d="M 284 1178 
L 1159 1269 
Q 1197 972 1381 798 
Q 1566 625 1806 625 
Q 2081 625 2272 848 
Q 2463 1072 2463 1522 
Q 2463 1944 2273 2155 
Q 2084 2366 1781 2366 
Q 1403 2366 1103 2031 
L 391 2134 
L 841 4519 
L 3163 4519 
L 3163 3697 
L 1506 3697 
L 1369 2919 
Q 1663 3066 1969 3066 
Q 2553 3066 2959 2641 
Q 3366 2216 3366 1538 
Q 3366 972 3038 528 
Q 2591 -78 1797 -78 
Q 1163 -78 763 262 
Q 363 603 284 1178 
z
" transform="scale(0.015625)"/>
       </defs>
       <use xlink:href="#Arial-BoldMT-31"/>
       <use xlink:href="#Arial-BoldMT-30" x="55.615234"/>
       <use xlink:href="#Arial-BoldMT-2e" x="111.230469"/>
       <use xlink:href="#Arial-BoldMT-35" x="139.013672"/>
      </g>
     </g>
    </g>
    <g id="xtick_3">
     <g id="line2d_3">
      <g>
       <use xlink:href="#m014b2bef43" x="252.471563" y="198.907885" style="stroke: #000000; stroke-width: 2"/>
      </g>
     </g>
     <g id="text_3">
      <!-- 10.1 -->
      <g transform="translate(234.956719 224.791947) scale(0.18 -0.18)">
       <use xlink:href="#Arial-BoldMT-31"/>
       <use xlink:href="#Arial-BoldMT-30" x="55.615234"/>
       <use xlink:href="#Arial-BoldMT-2e" x="111.230469"/>
       <use xlink:href="#Arial-BoldMT-31" x="139.013672"/>
      </g>
     </g>
    </g>
    <g id="xtick_4">
     <g id="line2d_4">
      <g>
       <use xlink:href="#m014b2bef43" x="350.343598" y="198.907885" style="stroke: #000000; stroke-width: 2"/>
      </g>
     </g>
     <g id="text_4">
      <!-- 9.6 -->
      <g transform="translate(337.833598 224.791947) scale(0.18 -0.18)">
       <defs>
        <path id="Arial-BoldMT-39" d="M 291 1059 
L 1141 1153 
Q 1172 894 1303 769 
Q 1434 644 1650 644 
Q 1922 644 2112 894 
Q 2303 1144 2356 1931 
Q 2025 1547 1528 1547 
Q 988 1547 595 1964 
Q 203 2381 203 3050 
Q 203 3747 617 4173 
Q 1031 4600 1672 4600 
Q 2369 4600 2816 4061 
Q 3263 3522 3263 2288 
Q 3263 1031 2797 475 
Q 2331 -81 1584 -81 
Q 1047 -81 715 205 
Q 384 491 291 1059 
z
M 2278 2978 
Q 2278 3403 2083 3637 
Q 1888 3872 1631 3872 
Q 1388 3872 1227 3680 
Q 1066 3488 1066 3050 
Q 1066 2606 1241 2398 
Q 1416 2191 1678 2191 
Q 1931 2191 2104 2391 
Q 2278 2591 2278 2978 
z
" transform="scale(0.015625)"/>
        <path id="Arial-BoldMT-36" d="M 3247 3459 
L 2397 3366 
Q 2366 3628 2234 3753 
Q 2103 3878 1894 3878 
Q 1616 3878 1423 3628 
Q 1231 3378 1181 2588 
Q 1509 2975 1997 2975 
Q 2547 2975 2939 2556 
Q 3331 2138 3331 1475 
Q 3331 772 2918 347 
Q 2506 -78 1859 -78 
Q 1166 -78 719 461 
Q 272 1000 272 2228 
Q 272 3488 737 4044 
Q 1203 4600 1947 4600 
Q 2469 4600 2811 4308 
Q 3153 4016 3247 3459 
z
M 1256 1544 
Q 1256 1116 1453 883 
Q 1650 650 1903 650 
Q 2147 650 2309 840 
Q 2472 1031 2472 1466 
Q 2472 1913 2297 2120 
Q 2122 2328 1859 2328 
Q 1606 2328 1431 2129 
Q 1256 1931 1256 1544 
z
" transform="scale(0.015625)"/>
       </defs>
       <use xlink:href="#Arial-BoldMT-39"/>
       <use xlink:href="#Arial-BoldMT-2e" x="55.615234"/>
       <use xlink:href="#Arial-BoldMT-36" x="83.398438"/>
      </g>
     </g>
    </g>
    <g id="xtick_5">
     <g id="line2d_5">
      <g>
       <use xlink:href="#m014b2bef43" x="448.215634" y="198.907885" style="stroke: #000000; stroke-width: 2"/>
      </g>
     </g>
     <g id="text_5">
      <!-- 9.2 -->
      <g transform="translate(435.705634 224.791947) scale(0.18 -0.18)">
       <defs>
        <path id="Arial-BoldMT-32" d="M 3238 816 
L 3238 0 
L 159 0 
Q 209 463 459 877 
Q 709 1291 1447 1975 
Q 2041 2528 2175 2725 
Q 2356 2997 2356 3263 
Q 2356 3556 2198 3714 
Q 2041 3872 1763 3872 
Q 1488 3872 1325 3706 
Q 1163 3541 1138 3156 
L 263 3244 
Q 341 3969 753 4284 
Q 1166 4600 1784 4600 
Q 2463 4600 2850 4234 
Q 3238 3869 3238 3325 
Q 3238 3016 3127 2736 
Q 3016 2456 2775 2150 
Q 2616 1947 2200 1565 
Q 1784 1184 1673 1059 
Q 1563 934 1494 816 
L 3238 816 
z
" transform="scale(0.015625)"/>
       </defs>
       <use xlink:href="#Arial-BoldMT-39"/>
       <use xlink:href="#Arial-BoldMT-2e" x="55.615234"/>
       <use xlink:href="#Arial-BoldMT-32" x="83.398438"/>
      </g>
     </g>
    </g>
    <g id="xtick_6">
     <g id="line2d_6">
      <g>
       <use xlink:href="#m014b2bef43" x="546.08767" y="198.907885" style="stroke: #000000; stroke-width: 2"/>
      </g>
     </g>
     <g id="text_6">
      <!-- 8.7 -->
      <g transform="translate(533.57767 224.791947) scale(0.18 -0.18)">
       <defs>
        <path id="Arial-BoldMT-38" d="M 1025 2472 
Q 684 2616 529 2867 
Q 375 3119 375 3419 
Q 375 3931 733 4265 
Q 1091 4600 1750 4600 
Q 2403 4600 2764 4265 
Q 3125 3931 3125 3419 
Q 3125 3100 2959 2851 
Q 2794 2603 2494 2472 
Q 2875 2319 3073 2025 
Q 3272 1731 3272 1347 
Q 3272 713 2867 316 
Q 2463 -81 1791 -81 
Q 1166 -81 750 247 
Q 259 634 259 1309 
Q 259 1681 443 1992 
Q 628 2303 1025 2472 
z
M 1206 3356 
Q 1206 3094 1354 2947 
Q 1503 2800 1750 2800 
Q 2000 2800 2150 2948 
Q 2300 3097 2300 3359 
Q 2300 3606 2151 3754 
Q 2003 3903 1759 3903 
Q 1506 3903 1356 3753 
Q 1206 3603 1206 3356 
z
M 1125 1394 
Q 1125 1031 1311 828 
Q 1497 625 1775 625 
Q 2047 625 2225 820 
Q 2403 1016 2403 1384 
Q 2403 1706 2222 1901 
Q 2041 2097 1763 2097 
Q 1441 2097 1283 1875 
Q 1125 1653 1125 1394 
z
" transform="scale(0.015625)"/>
        <path id="Arial-BoldMT-37" d="M 272 3703 
L 272 4519 
L 3275 4519 
L 3275 3881 
Q 2903 3516 2518 2831 
Q 2134 2147 1932 1376 
Q 1731 606 1734 0 
L 888 0 
Q 909 950 1279 1937 
Q 1650 2925 2269 3703 
L 272 3703 
z
" transform="scale(0.015625)"/>
       </defs>
       <use xlink:href="#Arial-BoldMT-38"/>
       <use xlink:href="#Arial-BoldMT-2e" x="55.615234"/>
       <use xlink:href="#Arial-BoldMT-37" x="83.398438"/>
      </g>
     </g>
    </g>
    <g id="xtick_7">
     <g id="line2d_7">
      <g>
       <use xlink:href="#m014b2bef43" x="643.959706" y="198.907885" style="stroke: #000000; stroke-width: 2"/>
      </g>
     </g>
     <g id="text_7">
      <!-- 8.3 -->
      <g transform="translate(631.449706 224.791947) scale(0.18 -0.18)">
       <defs>
        <path id="Arial-BoldMT-33" d="M 241 1216 
L 1091 1319 
Q 1131 994 1309 822 
Q 1488 650 1741 650 
Q 2013 650 2198 856 
Q 2384 1063 2384 1413 
Q 2384 1744 2206 1937 
Q 2028 2131 1772 2131 
Q 1603 2131 1369 2066 
L 1466 2781 
Q 1822 2772 2009 2936 
Q 2197 3100 2197 3372 
Q 2197 3603 2059 3740 
Q 1922 3878 1694 3878 
Q 1469 3878 1309 3722 
Q 1150 3566 1116 3266 
L 306 3403 
Q 391 3819 561 4067 
Q 731 4316 1036 4458 
Q 1341 4600 1719 4600 
Q 2366 4600 2756 4188 
Q 3078 3850 3078 3425 
Q 3078 2822 2419 2463 
Q 2813 2378 3048 2084 
Q 3284 1791 3284 1375 
Q 3284 772 2843 347 
Q 2403 -78 1747 -78 
Q 1125 -78 715 280 
Q 306 638 241 1216 
z
" transform="scale(0.015625)"/>
       </defs>
       <use xlink:href="#Arial-BoldMT-38"/>
       <use xlink:href="#Arial-BoldMT-2e" x="55.615234"/>
       <use xlink:href="#Arial-BoldMT-33" x="83.398438"/>
      </g>
     </g>
    </g>
    <g id="xtick_8">
     <g id="line2d_8">
      <g>
       <use xlink:href="#m014b2bef43" x="741.831742" y="198.907885" style="stroke: #000000; stroke-width: 2"/>
      </g>
     </g>
     <g id="text_8">
      <!-- 7.8 -->
      <g transform="translate(729.321742 224.791947) scale(0.18 -0.18)">
       <use xlink:href="#Arial-BoldMT-37"/>
       <use xlink:href="#Arial-BoldMT-2e" x="55.615234"/>
       <use xlink:href="#Arial-BoldMT-38" x="83.398438"/>
      </g>
     </g>
    </g>
    <g id="xtick_9">
     <g id="line2d_9">
      <g>
       <use xlink:href="#m014b2bef43" x="839.703778" y="198.907885" style="stroke: #000000; stroke-width: 2"/>
      </g>
     </g>
     <g id="text_9">
      <!-- 7.4 -->
      <g transform="translate(827.193778 224.791947) scale(0.18 -0.18)">
       <defs>
        <path id="Arial-BoldMT-34" d="M 1994 0 
L 1994 922 
L 119 922 
L 119 1691 
L 2106 4600 
L 2844 4600 
L 2844 1694 
L 3413 1694 
L 3413 922 
L 2844 922 
L 2844 0 
L 1994 0 
z
M 1994 1694 
L 1994 3259 
L 941 1694 
L 1994 1694 
z
" transform="scale(0.015625)"/>
       </defs>
       <use xlink:href="#Arial-BoldMT-37"/>
       <use xlink:href="#Arial-BoldMT-2e" x="55.615234"/>
       <use xlink:href="#Arial-BoldMT-34" x="83.398438"/>
      </g>
     </g>
    </g>
    <g id="xtick_10">
     <g id="line2d_10">
      <g>
       <use xlink:href="#m014b2bef43" x="937.575814" y="198.907885" style="stroke: #000000; stroke-width: 2"/>
      </g>
     </g>
     <g id="text_10">
      <!-- 6.9 -->
      <g transform="translate(925.065814 224.791947) scale(0.18 -0.18)">
       <use xlink:href="#Arial-BoldMT-36"/>
       <use xlink:href="#Arial-BoldMT-2e" x="55.615234"/>
       <use xlink:href="#Arial-BoldMT-39" x="83.398438"/>
      </g>
     </g>
    </g>
    <g id="xtick_11">
     <g id="line2d_11">
      <g>
       <use xlink:href="#m014b2bef43" x="1035.447849" y="198.907885" style="stroke: #000000; stroke-width: 2"/>
      </g>
     </g>
     <g id="text_11">
      <!-- 6.4 -->
      <g transform="translate(1022.937849 224.791947) scale(0.18 -0.18)">
       <use xlink:href="#Arial-BoldMT-36"/>
       <use xlink:href="#Arial-BoldMT-2e" x="55.615234"/>
       <use xlink:href="#Arial-BoldMT-34" x="83.398438"/>
      </g>
     </g>
    </g>
    <g id="text_12">
     <!-- Chemical shift / ppm -->
     <g transform="translate(505.99125 245.447573) scale(0.18 -0.18)">
      <defs>
       <path id="Arial-BoldMT-43" d="M 3397 1684 
L 4294 1400 
Q 4088 650 3608 286 
Q 3128 -78 2391 -78 
Q 1478 -78 890 545 
Q 303 1169 303 2250 
Q 303 3394 893 4026 
Q 1484 4659 2447 4659 
Q 3288 4659 3813 4163 
Q 4125 3869 4281 3319 
L 3366 3100 
Q 3284 3456 3026 3662 
Q 2769 3869 2400 3869 
Q 1891 3869 1573 3503 
Q 1256 3138 1256 2319 
Q 1256 1450 1568 1081 
Q 1881 713 2381 713 
Q 2750 713 3015 947 
Q 3281 1181 3397 1684 
z
" transform="scale(0.015625)"/>
       <path id="Arial-BoldMT-68" d="M 1334 4581 
L 1334 2897 
Q 1759 3394 2350 3394 
Q 2653 3394 2897 3281 
Q 3141 3169 3264 2994 
Q 3388 2819 3433 2606 
Q 3478 2394 3478 1947 
L 3478 0 
L 2600 0 
L 2600 1753 
Q 2600 2275 2550 2415 
Q 2500 2556 2373 2639 
Q 2247 2722 2056 2722 
Q 1838 2722 1666 2615 
Q 1494 2509 1414 2295 
Q 1334 2081 1334 1663 
L 1334 0 
L 456 0 
L 456 4581 
L 1334 4581 
z
" transform="scale(0.015625)"/>
       <path id="Arial-BoldMT-65" d="M 2381 1056 
L 3256 909 
Q 3088 428 2723 176 
Q 2359 -75 1813 -75 
Q 947 -75 531 491 
Q 203 944 203 1634 
Q 203 2459 634 2926 
Q 1066 3394 1725 3394 
Q 2466 3394 2894 2905 
Q 3322 2416 3303 1406 
L 1103 1406 
Q 1113 1016 1316 798 
Q 1519 581 1822 581 
Q 2028 581 2168 693 
Q 2309 806 2381 1056 
z
M 2431 1944 
Q 2422 2325 2234 2523 
Q 2047 2722 1778 2722 
Q 1491 2722 1303 2513 
Q 1116 2303 1119 1944 
L 2431 1944 
z
" transform="scale(0.015625)"/>
       <path id="Arial-BoldMT-6d" d="M 394 3319 
L 1203 3319 
L 1203 2866 
Q 1638 3394 2238 3394 
Q 2556 3394 2790 3262 
Q 3025 3131 3175 2866 
Q 3394 3131 3647 3262 
Q 3900 3394 4188 3394 
Q 4553 3394 4806 3245 
Q 5059 3097 5184 2809 
Q 5275 2597 5275 2122 
L 5275 0 
L 4397 0 
L 4397 1897 
Q 4397 2391 4306 2534 
Q 4184 2722 3931 2722 
Q 3747 2722 3584 2609 
Q 3422 2497 3350 2280 
Q 3278 2063 3278 1594 
L 3278 0 
L 2400 0 
L 2400 1819 
Q 2400 2303 2353 2443 
Q 2306 2584 2207 2653 
Q 2109 2722 1941 2722 
Q 1738 2722 1575 2612 
Q 1413 2503 1342 2297 
Q 1272 2091 1272 1613 
L 1272 0 
L 394 0 
L 394 3319 
z
" transform="scale(0.015625)"/>
       <path id="Arial-BoldMT-69" d="M 459 3769 
L 459 4581 
L 1338 4581 
L 1338 3769 
L 459 3769 
z
M 459 0 
L 459 3319 
L 1338 3319 
L 1338 0 
L 459 0 
z
" transform="scale(0.015625)"/>
       <path id="Arial-BoldMT-63" d="M 3353 2338 
L 2488 2181 
Q 2444 2441 2289 2572 
Q 2134 2703 1888 2703 
Q 1559 2703 1364 2476 
Q 1169 2250 1169 1719 
Q 1169 1128 1367 884 
Q 1566 641 1900 641 
Q 2150 641 2309 783 
Q 2469 925 2534 1272 
L 3397 1125 
Q 3263 531 2881 228 
Q 2500 -75 1859 -75 
Q 1131 -75 698 384 
Q 266 844 266 1656 
Q 266 2478 700 2936 
Q 1134 3394 1875 3394 
Q 2481 3394 2839 3133 
Q 3197 2872 3353 2338 
z
" transform="scale(0.015625)"/>
       <path id="Arial-BoldMT-61" d="M 1116 2306 
L 319 2450 
Q 453 2931 781 3162 
Q 1109 3394 1756 3394 
Q 2344 3394 2631 3255 
Q 2919 3116 3036 2902 
Q 3153 2688 3153 2116 
L 3144 1091 
Q 3144 653 3186 445 
Q 3228 238 3344 0 
L 2475 0 
Q 2441 88 2391 259 
Q 2369 338 2359 363 
Q 2134 144 1878 34 
Q 1622 -75 1331 -75 
Q 819 -75 523 203 
Q 228 481 228 906 
Q 228 1188 362 1408 
Q 497 1628 739 1745 
Q 981 1863 1438 1950 
Q 2053 2066 2291 2166 
L 2291 2253 
Q 2291 2506 2166 2614 
Q 2041 2722 1694 2722 
Q 1459 2722 1328 2630 
Q 1197 2538 1116 2306 
z
M 2291 1594 
Q 2122 1538 1756 1459 
Q 1391 1381 1278 1306 
Q 1106 1184 1106 997 
Q 1106 813 1243 678 
Q 1381 544 1594 544 
Q 1831 544 2047 700 
Q 2206 819 2256 991 
Q 2291 1103 2291 1419 
L 2291 1594 
z
" transform="scale(0.015625)"/>
       <path id="Arial-BoldMT-6c" d="M 459 0 
L 459 4581 
L 1338 4581 
L 1338 0 
L 459 0 
z
" transform="scale(0.015625)"/>
       <path id="Arial-BoldMT-20" transform="scale(0.015625)"/>
       <path id="Arial-BoldMT-73" d="M 150 947 
L 1031 1081 
Q 1088 825 1259 692 
Q 1431 559 1741 559 
Q 2081 559 2253 684 
Q 2369 772 2369 919 
Q 2369 1019 2306 1084 
Q 2241 1147 2013 1200 
Q 950 1434 666 1628 
Q 272 1897 272 2375 
Q 272 2806 612 3100 
Q 953 3394 1669 3394 
Q 2350 3394 2681 3172 
Q 3013 2950 3138 2516 
L 2309 2363 
Q 2256 2556 2107 2659 
Q 1959 2763 1684 2763 
Q 1338 2763 1188 2666 
Q 1088 2597 1088 2488 
Q 1088 2394 1175 2328 
Q 1294 2241 1995 2081 
Q 2697 1922 2975 1691 
Q 3250 1456 3250 1038 
Q 3250 581 2869 253 
Q 2488 -75 1741 -75 
Q 1063 -75 667 200 
Q 272 475 150 947 
z
" transform="scale(0.015625)"/>
       <path id="Arial-BoldMT-66" d="M 75 3319 
L 563 3319 
L 563 3569 
Q 563 3988 652 4194 
Q 741 4400 980 4529 
Q 1219 4659 1584 4659 
Q 1959 4659 2319 4547 
L 2200 3934 
Q 1991 3984 1797 3984 
Q 1606 3984 1523 3895 
Q 1441 3806 1441 3553 
L 1441 3319 
L 2097 3319 
L 2097 2628 
L 1441 2628 
L 1441 0 
L 563 0 
L 563 2628 
L 75 2628 
L 75 3319 
z
" transform="scale(0.015625)"/>
       <path id="Arial-BoldMT-74" d="M 1981 3319 
L 1981 2619 
L 1381 2619 
L 1381 1281 
Q 1381 875 1398 808 
Q 1416 741 1477 697 
Q 1538 653 1625 653 
Q 1747 653 1978 738 
L 2053 56 
Q 1747 -75 1359 -75 
Q 1122 -75 931 4 
Q 741 84 652 211 
Q 563 338 528 553 
Q 500 706 500 1172 
L 500 2619 
L 97 2619 
L 97 3319 
L 500 3319 
L 500 3978 
L 1381 4491 
L 1381 3319 
L 1981 3319 
z
" transform="scale(0.015625)"/>
       <path id="Arial-BoldMT-2f" d="M -9 -78 
L 1125 4659 
L 1784 4659 
L 638 -78 
L -9 -78 
z
" transform="scale(0.015625)"/>
       <path id="Arial-BoldMT-70" d="M 434 3319 
L 1253 3319 
L 1253 2831 
Q 1413 3081 1684 3237 
Q 1956 3394 2288 3394 
Q 2866 3394 3269 2941 
Q 3672 2488 3672 1678 
Q 3672 847 3265 386 
Q 2859 -75 2281 -75 
Q 2006 -75 1782 34 
Q 1559 144 1313 409 
L 1313 -1263 
L 434 -1263 
L 434 3319 
z
M 1303 1716 
Q 1303 1156 1525 889 
Q 1747 622 2066 622 
Q 2372 622 2575 867 
Q 2778 1113 2778 1672 
Q 2778 2194 2568 2447 
Q 2359 2700 2050 2700 
Q 1728 2700 1515 2451 
Q 1303 2203 1303 1716 
z
" transform="scale(0.015625)"/>
      </defs>
      <use xlink:href="#Arial-BoldMT-43"/>
      <use xlink:href="#Arial-BoldMT-68" x="72.216797"/>
      <use xlink:href="#Arial-BoldMT-65" x="133.300781"/>
      <use xlink:href="#Arial-BoldMT-6d" x="188.916016"/>
      <use xlink:href="#Arial-BoldMT-69" x="277.832031"/>
      <use xlink:href="#Arial-BoldMT-63" x="305.615234"/>
      <use xlink:href="#Arial-BoldMT-61" x="361.230469"/>
      <use xlink:href="#Arial-BoldMT-6c" x="416.845703"/>
      <use xlink:href="#Arial-BoldMT-20" x="444.628906"/>
      <use xlink:href="#Arial-BoldMT-73" x="472.412109"/>
      <use xlink:href="#Arial-BoldMT-68" x="528.027344"/>
      <use xlink:href="#Arial-BoldMT-69" x="589.111328"/>
      <use xlink:href="#Arial-BoldMT-66" x="616.894531"/>
      <use xlink:href="#Arial-BoldMT-74" x="650.195312"/>
      <use xlink:href="#Arial-BoldMT-20" x="683.496094"/>
      <use xlink:href="#Arial-BoldMT-2f" x="711.279297"/>
      <use xlink:href="#Arial-BoldMT-20" x="739.0625"/>
      <use xlink:href="#Arial-BoldMT-70" x="766.845703"/>
      <use xlink:href="#Arial-BoldMT-70" x="827.929688"/>
      <use xlink:href="#Arial-BoldMT-6d" x="889.013672"/>
     </g>
    </g>
   </g>
   <g id="matplotlib.axis_2"/>
   <g id="line2d_12">
    <path d="M 56.727491 190.798447 
L 547.948071 190.798447 
L 548.357421 187.51464 
L 549.585473 187.447498 
L 550.813524 187.439668 
L 552.860276 187.243695 
L 554.497678 187.278735 
L 556.13508 187.11966 
L 559.000534 187.141762 
L 566.368842 185.407023 
L 568.006244 184.766094 
L 570.052997 183.533367 
L 570.871698 182.848509 
L 571.690399 181.889666 
L 572.91845 180.145648 
L 573.737151 178.6971 
L 574.555852 176.789811 
L 575.374553 174.346389 
L 576.193254 171.244202 
L 577.011955 167.271538 
L 577.830656 162.200133 
L 578.649357 155.593795 
L 579.468058 147.103126 
L 581.10546 129.031309 
L 581.51481 126.580578 
L 581.924161 125.922939 
L 582.333511 127.273605 
L 582.742862 130.518204 
L 583.561563 140.823141 
L 584.789614 157.196014 
L 585.608315 165.001596 
L 586.427016 170.382522 
L 587.245717 174.027709 
L 588.064418 176.393612 
L 588.883119 177.833113 
L 589.292469 178.264498 
L 589.70182 178.518066 
L 590.11117 178.613913 
L 590.929871 178.509355 
L 591.748572 178.361621 
L 592.567273 178.495764 
L 593.385974 179.040884 
L 594.614026 180.044185 
L 595.023376 180.174632 
L 595.432727 180.146319 
L 596.251428 179.726961 
L 597.479479 178.940113 
L 598.707531 178.196559 
L 600.754283 176.268809 
L 601.163633 176.250833 
L 601.982334 176.642004 
L 602.801035 177.123263 
L 603.619736 177.321323 
L 604.438437 177.483412 
L 605.257138 177.923533 
L 606.48519 178.761899 
L 606.89454 178.889771 
L 607.303891 178.89843 
L 608.122592 178.569695 
L 608.941293 177.905698 
L 609.759994 176.763778 
L 610.578695 175.406213 
L 610.988045 174.908118 
L 611.397396 174.636555 
L 611.806746 174.587816 
L 612.625447 174.864982 
L 614.262849 175.711492 
L 615.08155 176.615412 
L 617.537653 180.330116 
L 618.356354 180.897392 
L 619.584405 181.426498 
L 620.403106 181.42531 
L 620.812457 181.238195 
L 621.631158 180.480468 
L 622.449859 179.299365 
L 623.26856 177.655985 
L 624.496611 175.009926 
L 624.905961 174.458061 
L 625.315312 174.265049 
L 625.724662 174.473112 
L 626.134013 175.016484 
L 628.180765 178.46474 
L 630.227518 181.041814 
L 631.455569 182.292523 
L 632.27427 182.815246 
L 633.092971 183.067129 
L 633.911672 182.995352 
L 634.730373 182.489375 
L 635.549074 181.657107 
L 636.367775 180.552885 
L 637.186476 178.985409 
L 638.005177 176.859196 
L 639.233228 172.75712 
L 640.87063 167.123189 
L 642.508032 162.176391 
L 643.326733 160.348061 
L 643.736084 159.814395 
L 644.145434 159.674129 
L 644.554785 160.004601 
L 644.964135 160.759529 
L 646.192187 164.130584 
L 647.010888 166.743839 
L 648.238939 171.852779 
L 649.46699 177.128564 
L 650.285691 179.806602 
L 651.104392 181.685034 
L 651.923093 182.924937 
L 652.741794 183.71712 
L 653.560495 184.27019 
L 654.379196 184.546171 
L 655.197897 184.557954 
L 656.425949 184.352484 
L 657.24465 183.997131 
L 658.063351 183.343728 
L 658.882052 182.393311 
L 660.110103 180.520925 
L 661.338154 178.68111 
L 662.566206 177.45771 
L 663.384907 176.789537 
L 663.794257 176.614836 
L 664.203608 176.630046 
L 664.612958 176.854746 
L 665.431659 177.799069 
L 667.887762 181.580485 
L 670.343865 185.828089 
L 671.571917 187.081736 
L 671.981267 187.418982 
L 672.390618 190.798447 
L 700.22645 190.798447 
L 700.635801 187.451438 
L 701.863852 187.001323 
L 703.501254 186.724228 
L 706.366708 186.311924 
L 707.185409 186.094358 
L 708.41346 185.453695 
L 709.232161 185.037303 
L 710.050862 184.830583 
L 711.278913 184.677554 
L 712.097614 184.338225 
L 712.916315 183.760116 
L 714.144367 182.612844 
L 715.372418 181.074153 
L 716.191119 179.771942 
L 717.00982 178.062893 
L 717.828521 175.824248 
L 718.647222 173.112541 
L 719.465923 169.829165 
L 720.284624 165.581845 
L 721.103325 160.159367 
L 723.559428 142.434389 
L 724.378129 139.279872 
L 724.787479 138.374199 
L 725.19683 137.857117 
L 725.60618 137.70472 
L 726.015531 137.939419 
L 726.424881 138.63243 
L 726.834232 139.880027 
L 727.243582 141.743946 
L 728.062283 147.036274 
L 729.290335 155.964647 
L 730.109036 160.345289 
L 730.518386 161.76083 
L 730.927737 162.657366 
L 731.337087 163.094595 
L 731.746438 163.140223 
L 732.155788 162.843388 
L 732.565139 162.256657 
L 733.38384 160.497307 
L 735.021241 156.549533 
L 735.839942 154.9799 
L 736.249293 154.375516 
L 736.658643 154.008113 
L 737.067994 154.014951 
L 737.477344 154.516661 
L 737.886695 155.548155 
L 738.705396 158.770048 
L 739.933447 164.003989 
L 742.38955 173.106556 
L 743.617602 178.124126 
L 744.436303 180.629443 
L 745.255004 182.55761 
L 746.073704 184.024264 
L 746.892405 185.034077 
L 747.711106 185.684091 
L 748.939158 186.342038 
L 749.757859 186.489981 
L 751.804611 186.46267 
L 753.442013 186.971223 
L 754.260714 187.446544 
L 754.670065 190.798447 
L 897.942734 190.798447 
L 898.352084 187.470246 
L 899.989486 186.830857 
L 902.85494 185.784362 
L 903.67364 185.136297 
L 904.492341 184.29199 
L 905.311042 183.196659 
L 906.948444 180.474075 
L 909.404547 176.057722 
L 910.223248 173.944907 
L 911.041949 171.099789 
L 911.86065 167.444453 
L 913.907403 157.149023 
L 914.316753 155.719589 
L 914.726104 154.835748 
L 915.135454 154.566263 
L 915.544804 154.898693 
L 915.954155 155.758956 
L 916.772856 158.642834 
L 918.410258 165.249221 
L 919.638309 168.623616 
L 922.913113 176.791298 
L 923.731814 178.181722 
L 924.141165 178.666855 
L 924.550515 178.978724 
L 924.959866 179.130068 
L 925.369216 179.142773 
L 925.778567 179.022744 
L 926.597268 178.409449 
L 927.415968 177.387397 
L 928.234669 176.015898 
L 929.462721 173.377391 
L 930.281422 171.138192 
L 931.918824 165.53704 
L 933.556226 159.502054 
L 934.784277 153.875911 
L 936.012329 147.697584 
L 936.421679 146.032243 
L 936.83103 144.858275 
L 937.24038 144.38115 
L 937.649731 144.769649 
L 938.059081 146.076773 
L 938.468432 148.201052 
L 939.696483 157.055112 
L 940.924534 165.405749 
L 941.743235 169.652051 
L 942.561936 172.826682 
L 943.380637 175.256368 
L 944.608689 178.159509 
L 945.83674 180.518562 
L 946.655441 181.71811 
L 947.474142 182.651827 
L 949.111544 184.034421 
L 950.339596 185.122013 
L 951.567647 186.350914 
L 952.386348 186.854042 
L 953.614399 187.276824 
L 954.842451 187.547502 
L 955.251801 190.798447 
L 1001.508406 190.798447 
L 1001.917756 187.422406 
L 1002.736457 187.3305 
L 1003.555158 187.451967 
L 1003.964509 190.798447 
L 1065.367081 190.798447 
L 1065.776432 187.474439 
L 1067.004483 187.210748 
L 1067.823184 186.790012 
L 1069.051236 185.790166 
L 1070.279287 184.530459 
L 1071.097988 183.456418 
L 1072.32604 181.378135 
L 1073.14474 179.576719 
L 1074.782142 175.263968 
L 1076.010194 171.475178 
L 1076.828895 167.934507 
L 1077.647596 163.050598 
L 1078.466297 156.801759 
L 1079.694348 146.569204 
L 1080.103699 143.957934 
L 1080.513049 142.287205 
L 1080.9224 141.740201 
L 1081.33175 142.315855 
L 1081.741101 143.829883 
L 1082.559802 148.478977 
L 1084.197204 158.290898 
L 1085.015904 162.117992 
L 1086.243956 166.722314 
L 1088.290708 173.828994 
L 1089.109409 176.077422 
L 1089.92811 177.845685 
L 1090.746811 179.072806 
L 1091.565512 179.834824 
L 1092.384213 180.17329 
L 1092.793564 180.144669 
L 1093.202914 179.983023 
L 1094.021615 179.284293 
L 1094.840316 178.105903 
L 1095.659017 176.416476 
L 1096.887069 173.01869 
L 1099.343171 165.216612 
L 1100.571223 160.217788 
L 1102.208625 153.191488 
L 1102.617975 152.142407 
L 1103.027326 151.764174 
L 1103.436676 152.221662 
L 1103.846027 153.568422 
L 1104.664728 158.387656 
L 1106.30213 169.549048 
L 1107.120831 173.559069 
L 1107.939532 176.259465 
L 1108.758233 177.962082 
L 1111.623686 182.668933 
L 1112.851737 184.396967 
L 1113.670438 185.177668 
L 1115.30784 186.218666 
L 1116.945242 187.016094 
L 1117.763943 187.380585 
L 1118.173294 190.798447 
L 1131.272509 190.798447 
L 1131.272509 190.798447 
" clip-path="url(#p2dcaf36cdf)" style="fill: none; stroke: #000000; stroke-width: 2; stroke-linecap: square"/>
   </g>
   <g id="line2d_13">
    <path d="M 56.727491 93.485186 
L 565.550141 93.485186 
L 565.959492 90.107131 
L 567.187543 89.603361 
L 568.824945 88.582001 
L 570.871698 86.991247 
L 572.099749 85.917048 
L 572.91845 84.8491 
L 573.737151 83.344561 
L 574.555852 81.40497 
L 575.374553 78.923973 
L 576.193254 75.8721 
L 577.011955 72.164772 
L 577.830656 67.394038 
L 578.649357 60.810856 
L 579.468058 51.972763 
L 581.10546 32.37428 
L 581.51481 29.555969 
L 581.924161 28.609678 
L 582.333511 29.742035 
L 582.742862 32.824377 
L 583.561563 42.926462 
L 584.789614 59.206041 
L 585.608315 67.147474 
L 586.427016 72.653364 
L 587.245717 76.355442 
L 588.064418 78.787501 
L 588.883119 80.218919 
L 589.292469 80.605244 
L 589.70182 80.793411 
L 590.11117 80.814252 
L 590.929871 80.539107 
L 591.748572 80.247719 
L 592.157923 80.246078 
L 592.567273 80.391409 
L 593.385974 81.036391 
L 595.023376 82.402817 
L 595.842077 82.856604 
L 596.660778 82.977129 
L 597.88883 82.822718 
L 598.29818 82.653735 
L 598.707531 82.334763 
L 599.526232 81.232593 
L 600.344932 80.034367 
L 600.754283 79.621521 
L 601.163633 79.406246 
L 601.572984 79.410504 
L 602.391685 79.931865 
L 603.210386 80.583669 
L 604.029087 80.895897 
L 604.847788 81.038277 
L 605.666489 81.460228 
L 606.48519 81.942635 
L 607.303891 82.148033 
L 607.713241 82.107233 
L 608.122592 81.949169 
L 608.941293 81.242169 
L 610.169344 79.462999 
L 610.988045 78.349397 
L 611.397396 78.055946 
L 611.806746 78.012214 
L 612.625447 78.436712 
L 613.853498 79.153577 
L 615.08155 79.767678 
L 615.900251 80.626218 
L 617.128302 82.663396 
L 617.947003 83.903659 
L 618.765704 84.657858 
L 619.584405 84.978788 
L 620.403106 84.904172 
L 621.221807 84.427942 
L 622.040508 83.43913 
L 622.859209 81.969713 
L 624.905961 77.66386 
L 625.315312 77.455774 
L 625.724662 77.647706 
L 626.134013 78.181059 
L 628.180765 81.821803 
L 631.455569 86.086141 
L 632.27427 86.62703 
L 633.092971 86.728147 
L 633.911672 86.440808 
L 635.139724 85.589922 
L 635.958425 84.733088 
L 636.777125 83.457763 
L 637.595826 81.729415 
L 638.414527 79.530358 
L 639.233228 76.74624 
L 641.689331 67.697878 
L 642.917383 64.116402 
L 643.326733 63.183564 
L 643.736084 62.531396 
L 644.145434 62.285721 
L 644.554785 62.517952 
L 644.964135 63.181923 
L 645.782836 65.252732 
L 647.010888 69.025889 
L 647.829589 72.219752 
L 649.46699 79.300096 
L 650.285691 82.002166 
L 651.104392 83.97791 
L 651.923093 85.381836 
L 652.741794 86.34567 
L 653.560495 86.953846 
L 654.788547 87.464258 
L 655.607248 87.630288 
L 656.425949 87.565071 
L 657.24465 87.242983 
L 658.063351 86.663066 
L 658.882052 85.7325 
L 659.700753 84.375344 
L 661.338154 81.378054 
L 662.156855 80.353668 
L 662.975556 79.608893 
L 663.794257 79.1649 
L 664.203608 79.187713 
L 664.612958 79.417915 
L 665.431659 80.392947 
L 670.753216 88.605088 
L 671.981267 89.725942 
L 672.390618 90.032359 
L 672.799968 93.485186 
L 707.594759 93.485186 
L 708.00411 90.167746 
L 709.232161 89.659541 
L 711.688264 88.385163 
L 713.735016 86.738678 
L 714.553717 85.844872 
L 715.781769 84.169988 
L 716.60047 82.832819 
L 717.419171 81.162722 
L 718.237872 79.071107 
L 719.056573 76.288427 
L 719.875274 72.507785 
L 720.693975 67.609842 
L 721.922026 58.316883 
L 723.150077 48.480923 
L 723.968778 43.751277 
L 724.378129 42.240663 
L 724.787479 41.254136 
L 725.19683 40.693681 
L 725.60618 40.47383 
L 726.015531 40.580048 
L 726.424881 41.091044 
L 726.834232 42.137324 
L 727.243582 43.817551 
L 728.062283 48.931322 
L 729.290335 57.859306 
L 730.109036 62.257764 
L 730.518386 63.742705 
L 730.927737 64.755333 
L 731.337087 65.322916 
L 731.746438 65.479633 
L 732.155788 65.266038 
L 732.565139 64.740543 
L 733.38384 63.073321 
L 735.839942 57.269791 
L 736.658643 56.014486 
L 737.067994 55.854728 
L 737.477344 56.169293 
L 737.886695 57.027241 
L 738.705396 60.097326 
L 739.933447 65.107149 
L 741.9802 71.878827 
L 744.026952 80.572005 
L 744.845653 83.071898 
L 745.664354 84.916767 
L 746.483055 86.18117 
L 747.711106 87.459279 
L 748.529807 88.015126 
L 749.348508 88.298017 
L 750.167209 88.339977 
L 751.804611 88.223879 
L 753.442013 88.519195 
L 754.670065 88.878079 
L 755.488766 89.368668 
L 756.307467 90.066321 
L 756.716817 93.485186 
L 900.398837 93.485186 
L 900.808187 90.106047 
L 904.082991 87.819812 
L 905.311042 86.743228 
L 906.129743 85.7322 
L 908.585846 82.042295 
L 909.404547 80.344409 
L 910.223248 78.202895 
L 911.041949 75.396823 
L 911.86065 71.710442 
L 914.316753 59.136611 
L 914.726104 57.946175 
L 915.135454 57.34172 
L 915.544804 57.334936 
L 915.954155 57.864604 
L 916.363505 58.819878 
L 917.182206 61.510337 
L 918.819608 67.208448 
L 921.685062 75.460184 
L 922.913113 78.397313 
L 923.731814 79.743931 
L 924.550515 80.516253 
L 924.959866 80.685579 
L 925.369216 80.706887 
L 926.187917 80.421282 
L 927.006618 79.8503 
L 927.825319 78.98671 
L 928.64402 77.74323 
L 929.462721 76.100851 
L 930.281422 74.058423 
L 931.509473 70.303231 
L 933.146875 64.490934 
L 934.374927 59.049621 
L 936.83103 46.897113 
L 937.24038 46.200276 
L 937.649731 46.338647 
L 938.059081 47.350249 
L 938.468432 49.164697 
L 939.287133 54.469689 
L 940.924534 66.026237 
L 941.743235 70.468117 
L 942.561936 73.734365 
L 943.380637 76.177396 
L 945.018039 80.179896 
L 946.246091 82.699459 
L 947.474142 84.545881 
L 948.702194 85.773749 
L 952.386348 89.017617 
L 954.842451 90.19343 
L 955.251801 93.485186 
L 1067.413834 93.485186 
L 1067.823184 90.06985 
L 1069.051236 89.007178 
L 1070.688638 87.175963 
L 1071.916689 85.433814 
L 1073.14474 83.048894 
L 1074.372792 80.102199 
L 1075.600843 76.620914 
L 1076.419544 73.644232 
L 1077.238245 69.673059 
L 1078.056946 64.354969 
L 1079.284998 53.938297 
L 1080.103699 47.167046 
L 1080.513049 44.854975 
L 1080.9224 43.693951 
L 1081.33175 43.767501 
L 1081.741101 44.931512 
L 1082.559802 49.375332 
L 1084.197204 59.65013 
L 1085.015904 63.504842 
L 1087.881358 74.551511 
L 1088.700059 77.177094 
L 1089.51876 79.199843 
L 1090.337461 80.724627 
L 1091.156162 81.808084 
L 1091.974863 82.378424 
L 1092.793564 82.466306 
L 1093.612265 82.141207 
L 1094.430966 81.410276 
L 1095.249667 80.221586 
L 1096.068368 78.498706 
L 1096.887069 76.202221 
L 1100.161872 65.320257 
L 1101.389924 59.821694 
L 1102.208625 56.118252 
L 1102.617975 54.732127 
L 1103.027326 53.982972 
L 1103.436676 54.078804 
L 1103.846027 55.114946 
L 1104.255377 57.027351 
L 1105.483429 65.41083 
L 1106.30213 70.65621 
L 1107.120831 74.683964 
L 1107.939532 77.580845 
L 1108.758233 79.733992 
L 1109.986284 82.264058 
L 1112.033036 86.015284 
L 1112.851737 87.169163 
L 1113.670438 87.977268 
L 1114.489139 88.522639 
L 1116.945242 89.676551 
L 1118.173294 90.134852 
L 1118.582644 90.233451 
L 1118.991995 93.485186 
L 1131.272509 93.485186 
L 1131.272509 93.485186 
" clip-path="url(#p2dcaf36cdf)" style="fill: none; stroke: #d55e00; stroke-width: 2; stroke-linecap: square"/>
   </g>
   <g id="LineCollection_1">
    <path d="M 56.727491 190.798447 
L 56.727491 93.485186 
" clip-path="url(#p2dcaf36cdf)" style="fill: none; stroke-dasharray: 1,1.65; stroke-dashoffset: 0; stroke: #808080"/>
    <path d="M 62.458398 190.798447 
L 80.060468 93.485186 
" clip-path="url(#p2dcaf36cdf)" style="fill: none; stroke-dasharray: 1,1.65; stroke-dashoffset: 0; stroke: #808080"/>
    <path d="M 85.791375 190.798447 
L 103.393446 93.485186 
" clip-path="url(#p2dcaf36cdf)" style="fill: none; stroke-dasharray: 1,1.65; stroke-dashoffset: 0; stroke: #808080"/>
    <path d="M 109.124353 190.798447 
L 126.726424 93.485186 
" clip-path="url(#p2dcaf36cdf)" style="fill: none; stroke-dasharray: 1,1.65; stroke-dashoffset: 0; stroke: #808080"/>
    <path d="M 132.45733 190.798447 
L 150.059401 93.485186 
" clip-path="url(#p2dcaf36cdf)" style="fill: none; stroke-dasharray: 1,1.65; stroke-dashoffset: 0; stroke: #808080"/>
    <path d="M 156.199658 190.798447 
L 173.801729 93.485186 
" clip-path="url(#p2dcaf36cdf)" style="fill: none; stroke-dasharray: 1,1.65; stroke-dashoffset: 0; stroke: #808080"/>
    <path d="M 179.532636 190.798447 
L 197.134707 93.485186 
" clip-path="url(#p2dcaf36cdf)" style="fill: none; stroke-dasharray: 1,1.65; stroke-dashoffset: 0; stroke: #808080"/>
    <path d="M 202.865613 190.798447 
L 220.467684 93.485186 
" clip-path="url(#p2dcaf36cdf)" style="fill: none; stroke-dasharray: 1,1.65; stroke-dashoffset: 0; stroke: #808080"/>
    <path d="M 226.198591 190.798447 
L 243.800662 93.485186 
" clip-path="url(#p2dcaf36cdf)" style="fill: none; stroke-dasharray: 1,1.65; stroke-dashoffset: 0; stroke: #808080"/>
    <path d="M 249.531568 190.798447 
L 267.133639 93.485186 
" clip-path="url(#p2dcaf36cdf)" style="fill: none; stroke-dasharray: 1,1.65; stroke-dashoffset: 0; stroke: #808080"/>
    <path d="M 273.273896 190.798447 
L 290.875967 93.485186 
" clip-path="url(#p2dcaf36cdf)" style="fill: none; stroke-dasharray: 1,1.65; stroke-dashoffset: 0; stroke: #808080"/>
    <path d="M 296.606874 190.798447 
L 314.208945 93.485186 
" clip-path="url(#p2dcaf36cdf)" style="fill: none; stroke-dasharray: 1,1.65; stroke-dashoffset: 0; stroke: #808080"/>
    <path d="M 319.939852 190.798447 
L 337.541922 93.485186 
" clip-path="url(#p2dcaf36cdf)" style="fill: none; stroke-dasharray: 1,1.65; stroke-dashoffset: 0; stroke: #808080"/>
    <path d="M 343.272829 190.798447 
L 360.8749 93.485186 
" clip-path="url(#p2dcaf36cdf)" style="fill: none; stroke-dasharray: 1,1.65; stroke-dashoffset: 0; stroke: #808080"/>
    <path d="M 366.605807 190.798447 
L 384.207877 93.485186 
" clip-path="url(#p2dcaf36cdf)" style="fill: none; stroke-dasharray: 1,1.65; stroke-dashoffset: 0; stroke: #808080"/>
    <path d="M 390.348135 190.798447 
L 407.950205 93.485186 
" clip-path="url(#p2dcaf36cdf)" style="fill: none; stroke-dasharray: 1,1.65; stroke-dashoffset: 0; stroke: #808080"/>
    <path d="M 413.681112 190.798447 
L 431.283183 93.485186 
" clip-path="url(#p2dcaf36cdf)" style="fill: none; stroke-dasharray: 1,1.65; stroke-dashoffset: 0; stroke: #808080"/>
    <path d="M 437.01409 190.798447 
L 454.61616 93.485186 
" clip-path="url(#p2dcaf36cdf)" style="fill: none; stroke-dasharray: 1,1.65; stroke-dashoffset: 0; stroke: #808080"/>
    <path d="M 460.347067 190.798447 
L 477.949138 93.485186 
" clip-path="url(#p2dcaf36cdf)" style="fill: none; stroke-dasharray: 1,1.65; stroke-dashoffset: 0; stroke: #808080"/>
    <path d="M 483.680045 190.798447 
L 501.282116 93.485186 
" clip-path="url(#p2dcaf36cdf)" style="fill: none; stroke-dasharray: 1,1.65; stroke-dashoffset: 0; stroke: #808080"/>
    <path d="M 507.422373 190.798447 
L 525.024444 93.485186 
" clip-path="url(#p2dcaf36cdf)" style="fill: none; stroke-dasharray: 1,1.65; stroke-dashoffset: 0; stroke: #808080"/>
    <path d="M 530.75535 190.798447 
L 548.357421 93.485186 
" clip-path="url(#p2dcaf36cdf)" style="fill: none; stroke-dasharray: 1,1.65; stroke-dashoffset: 0; stroke: #808080"/>
    <path d="M 554.088328 187.310336 
L 566.368842 89.958831 
" clip-path="url(#p2dcaf36cdf)" style="fill: none; stroke-dasharray: 1,1.65; stroke-dashoffset: 0; stroke: #808080"/>
    <path d="M 577.421305 164.89337 
L 577.830656 67.394038 
" clip-path="url(#p2dcaf36cdf)" style="fill: none; stroke-dasharray: 1,1.65; stroke-dashoffset: 0; stroke: #808080"/>
    <path d="M 595.023376 180.174632 
L 597.479479 82.905411 
" clip-path="url(#p2dcaf36cdf)" style="fill: none; stroke-dasharray: 1,1.65; stroke-dashoffset: 0; stroke: #808080"/>
    <path d="M 613.034797 175.050797 
L 611.806746 78.012214 
" clip-path="url(#p2dcaf36cdf)" style="fill: none; stroke-dasharray: 1,1.65; stroke-dashoffset: 0; stroke: #808080"/>
    <path d="M 631.455569 182.292523 
L 630.636868 85.127068 
" clip-path="url(#p2dcaf36cdf)" style="fill: none; stroke-dasharray: 1,1.65; stroke-dashoffset: 0; stroke: #808080"/>
    <path d="M 650.695042 180.835453 
L 650.695042 83.073957 
" clip-path="url(#p2dcaf36cdf)" style="fill: none; stroke-dasharray: 1,1.65; stroke-dashoffset: 0; stroke: #808080"/>
    <path d="M 669.934515 185.275888 
L 670.343865 88.120901 
" clip-path="url(#p2dcaf36cdf)" style="fill: none; stroke-dasharray: 1,1.65; stroke-dashoffset: 0; stroke: #808080"/>
    <path d="M 686.308534 190.798447 
L 693.676843 93.485186 
" clip-path="url(#p2dcaf36cdf)" style="fill: none; stroke-dasharray: 1,1.65; stroke-dashoffset: 0; stroke: #808080"/>
    <path d="M 710.050862 184.830583 
L 712.916315 87.432691 
" clip-path="url(#p2dcaf36cdf)" style="fill: none; stroke-dasharray: 1,1.65; stroke-dashoffset: 0; stroke: #808080"/>
    <path d="M 732.155788 162.843388 
L 731.746438 65.479633 
" clip-path="url(#p2dcaf36cdf)" style="fill: none; stroke-dasharray: 1,1.65; stroke-dashoffset: 0; stroke: #808080"/>
    <path d="M 748.120457 185.93531 
L 754.260714 88.724272 
" clip-path="url(#p2dcaf36cdf)" style="fill: none; stroke-dasharray: 1,1.65; stroke-dashoffset: 0; stroke: #808080"/>
    <path d="M 771.044084 190.798447 
L 773.500187 93.485186 
" clip-path="url(#p2dcaf36cdf)" style="fill: none; stroke-dasharray: 1,1.65; stroke-dashoffset: 0; stroke: #808080"/>
    <path d="M 794.377061 190.798447 
L 796.833164 93.485186 
" clip-path="url(#p2dcaf36cdf)" style="fill: none; stroke-dasharray: 1,1.65; stroke-dashoffset: 0; stroke: #808080"/>
    <path d="M 818.11939 190.798447 
L 820.575492 93.485186 
" clip-path="url(#p2dcaf36cdf)" style="fill: none; stroke-dasharray: 1,1.65; stroke-dashoffset: 0; stroke: #808080"/>
    <path d="M 841.452367 190.798447 
L 843.90847 93.485186 
" clip-path="url(#p2dcaf36cdf)" style="fill: none; stroke-dasharray: 1,1.65; stroke-dashoffset: 0; stroke: #808080"/>
    <path d="M 864.785345 190.798447 
L 867.241447 93.485186 
" clip-path="url(#p2dcaf36cdf)" style="fill: none; stroke-dasharray: 1,1.65; stroke-dashoffset: 0; stroke: #808080"/>
    <path d="M 888.118322 190.798447 
L 890.574425 93.485186 
" clip-path="url(#p2dcaf36cdf)" style="fill: none; stroke-dasharray: 1,1.65; stroke-dashoffset: 0; stroke: #808080"/>
    <path d="M 911.041949 171.099789 
L 911.4513 73.668128 
" clip-path="url(#p2dcaf36cdf)" style="fill: none; stroke-dasharray: 1,1.65; stroke-dashoffset: 0; stroke: #808080"/>
    <path d="M 931.509473 166.9882 
L 931.509473 70.303231 
" clip-path="url(#p2dcaf36cdf)" style="fill: none; stroke-dasharray: 1,1.65; stroke-dashoffset: 0; stroke: #808080"/>
    <path d="M 952.386348 186.854042 
L 953.614399 89.627073 
" clip-path="url(#p2dcaf36cdf)" style="fill: none; stroke-dasharray: 1,1.65; stroke-dashoffset: 0; stroke: #808080"/>
    <path d="M 971.625821 190.798447 
L 975.719326 93.485186 
" clip-path="url(#p2dcaf36cdf)" style="fill: none; stroke-dasharray: 1,1.65; stroke-dashoffset: 0; stroke: #808080"/>
    <path d="M 994.958798 190.798447 
L 999.052303 93.485186 
" clip-path="url(#p2dcaf36cdf)" style="fill: none; stroke-dasharray: 1,1.65; stroke-dashoffset: 0; stroke: #808080"/>
    <path d="M 1018.291776 190.798447 
L 1020.338528 93.485186 
" clip-path="url(#p2dcaf36cdf)" style="fill: none; stroke-dasharray: 1,1.65; stroke-dashoffset: 0; stroke: #808080"/>
    <path d="M 1042.034104 190.798447 
L 1044.080856 93.485186 
" clip-path="url(#p2dcaf36cdf)" style="fill: none; stroke-dasharray: 1,1.65; stroke-dashoffset: 0; stroke: #808080"/>
    <path d="M 1065.367081 190.798447 
L 1067.413834 93.485186 
" clip-path="url(#p2dcaf36cdf)" style="fill: none; stroke-dasharray: 1,1.65; stroke-dashoffset: 0; stroke: #808080"/>
    <path d="M 1087.472007 171.114081 
L 1087.472007 73.05018 
" clip-path="url(#p2dcaf36cdf)" style="fill: none; stroke-dasharray: 1,1.65; stroke-dashoffset: 0; stroke: #808080"/>
    <path d="M 1108.348882 177.196826 
L 1108.758233 79.733992 
" clip-path="url(#p2dcaf36cdf)" style="fill: none; stroke-dasharray: 1,1.65; stroke-dashoffset: 0; stroke: #808080"/>
    <path d="M 1131.272509 190.798447 
L 1131.272509 93.485186 
" clip-path="url(#p2dcaf36cdf)" style="fill: none; stroke-dasharray: 1,1.65; stroke-dashoffset: 0; stroke: #808080"/>
   </g>
   <g id="patch_3">
    <path d="M 3.00024 198.907885 
L 3.00024 20.50024 
" style="fill: none; stroke: #000000; stroke-width: 2; stroke-linejoin: miter; stroke-linecap: square"/>
   </g>
   <g id="patch_4">
    <path d="M 1184.99976 198.907885 
L 1184.99976 20.50024 
" style="fill: none; stroke: #000000; stroke-width: 2; stroke-linejoin: miter; stroke-linecap: square"/>
   </g>
   <g id="patch_5">
    <path d="M 3.00024 198.907885 
L 1184.99976 198.907885 
" style="fill: none; stroke: #000000; stroke-width: 2; stroke-linejoin: miter; stroke-linecap: square"/>
   </g>
   <g id="patch_6">
    <path d="M 3.00024 20.50024 
L 1184.99976 20.50024 
" style="fill: none; stroke: #000000; stroke-width: 2; stroke-linejoin: miter; stroke-linecap: square"/>
   </g>
   <g id="text_13">
    <!-- Distance between spectra: 6.1 -->
    <g transform="translate(479.74 14.50024) scale(0.16 -0.16)">
     <defs>
      <path id="Arial-BoldMT-44" d="M 463 4581 
L 2153 4581 
Q 2725 4581 3025 4494 
Q 3428 4375 3715 4072 
Q 4003 3769 4153 3330 
Q 4303 2891 4303 2247 
Q 4303 1681 4163 1272 
Q 3991 772 3672 463 
Q 3431 228 3022 97 
Q 2716 0 2203 0 
L 463 0 
L 463 4581 
z
M 1388 3806 
L 1388 772 
L 2078 772 
Q 2466 772 2638 816 
Q 2863 872 3011 1006 
Q 3159 1141 3253 1448 
Q 3347 1756 3347 2288 
Q 3347 2819 3253 3103 
Q 3159 3388 2990 3547 
Q 2822 3706 2563 3763 
Q 2369 3806 1803 3806 
L 1388 3806 
z
" transform="scale(0.015625)"/>
      <path id="Arial-BoldMT-6e" d="M 3478 0 
L 2600 0 
L 2600 1694 
Q 2600 2231 2544 2389 
Q 2488 2547 2361 2634 
Q 2234 2722 2056 2722 
Q 1828 2722 1647 2597 
Q 1466 2472 1398 2265 
Q 1331 2059 1331 1503 
L 1331 0 
L 453 0 
L 453 3319 
L 1269 3319 
L 1269 2831 
Q 1703 3394 2363 3394 
Q 2653 3394 2893 3289 
Q 3134 3184 3257 3021 
Q 3381 2859 3429 2653 
Q 3478 2447 3478 2063 
L 3478 0 
z
" transform="scale(0.015625)"/>
      <path id="Arial-BoldMT-62" d="M 422 0 
L 422 4581 
L 1300 4581 
L 1300 2931 
Q 1706 3394 2263 3394 
Q 2869 3394 3266 2955 
Q 3663 2516 3663 1694 
Q 3663 844 3258 384 
Q 2853 -75 2275 -75 
Q 1991 -75 1714 67 
Q 1438 209 1238 488 
L 1238 0 
L 422 0 
z
M 1294 1731 
Q 1294 1216 1456 969 
Q 1684 619 2063 619 
Q 2353 619 2558 867 
Q 2763 1116 2763 1650 
Q 2763 2219 2556 2470 
Q 2350 2722 2028 2722 
Q 1713 2722 1503 2476 
Q 1294 2231 1294 1731 
z
" transform="scale(0.015625)"/>
      <path id="Arial-BoldMT-77" d="M 1078 0 
L 28 3319 
L 881 3319 
L 1503 1144 
L 2075 3319 
L 2922 3319 
L 3475 1144 
L 4109 3319 
L 4975 3319 
L 3909 0 
L 3066 0 
L 2494 2134 
L 1931 0 
L 1078 0 
z
" transform="scale(0.015625)"/>
      <path id="Arial-BoldMT-72" d="M 1300 0 
L 422 0 
L 422 3319 
L 1238 3319 
L 1238 2847 
Q 1447 3181 1614 3287 
Q 1781 3394 1994 3394 
Q 2294 3394 2572 3228 
L 2300 2463 
Q 2078 2606 1888 2606 
Q 1703 2606 1575 2504 
Q 1447 2403 1373 2137 
Q 1300 1872 1300 1025 
L 1300 0 
z
" transform="scale(0.015625)"/>
      <path id="Arial-BoldMT-3a" d="M 628 2441 
L 628 3319 
L 1506 3319 
L 1506 2441 
L 628 2441 
z
M 628 0 
L 628 878 
L 1506 878 
L 1506 0 
L 628 0 
z
" transform="scale(0.015625)"/>
     </defs>
     <use xlink:href="#Arial-BoldMT-44"/>
     <use xlink:href="#Arial-BoldMT-69" x="72.216797"/>
     <use xlink:href="#Arial-BoldMT-73" x="100"/>
     <use xlink:href="#Arial-BoldMT-74" x="155.615234"/>
     <use xlink:href="#Arial-BoldMT-61" x="188.916016"/>
     <use xlink:href="#Arial-BoldMT-6e" x="244.53125"/>
     <use xlink:href="#Arial-BoldMT-63" x="305.615234"/>
     <use xlink:href="#Arial-BoldMT-65" x="361.230469"/>
     <use xlink:href="#Arial-BoldMT-20" x="416.845703"/>
     <use xlink:href="#Arial-BoldMT-62" x="444.628906"/>
     <use xlink:href="#Arial-BoldMT-65" x="505.712891"/>
     <use xlink:href="#Arial-BoldMT-74" x="561.328125"/>
     <use xlink:href="#Arial-BoldMT-77" x="594.628906"/>
     <use xlink:href="#Arial-BoldMT-65" x="672.412109"/>
     <use xlink:href="#Arial-BoldMT-65" x="728.027344"/>
     <use xlink:href="#Arial-BoldMT-6e" x="783.642578"/>
     <use xlink:href="#Arial-BoldMT-20" x="844.726562"/>
     <use xlink:href="#Arial-BoldMT-73" x="872.509766"/>
     <use xlink:href="#Arial-BoldMT-70" x="928.125"/>
     <use xlink:href="#Arial-BoldMT-65" x="989.208984"/>
     <use xlink:href="#Arial-BoldMT-63" x="1044.824219"/>
     <use xlink:href="#Arial-BoldMT-74" x="1100.439453"/>
     <use xlink:href="#Arial-BoldMT-72" x="1133.740234"/>
     <use xlink:href="#Arial-BoldMT-61" x="1172.65625"/>
     <use xlink:href="#Arial-BoldMT-3a" x="1228.271484"/>
     <use xlink:href="#Arial-BoldMT-20" x="1261.572266"/>
     <use xlink:href="#Arial-BoldMT-36" x="1289.355469"/>
     <use xlink:href="#Arial-BoldMT-2e" x="1344.970703"/>
     <use xlink:href="#Arial-BoldMT-31" x="1372.753906"/>
    </g>
   </g>
  </g>
  <g id="axes_2">
   <g id="matplotlib.axis_3"/>
   <g id="patch_7">
    <path d="M 3.00024 198.907885 
L 3.00024 20.50024 
" style="fill: none; stroke: #000000; stroke-width: 2; stroke-linejoin: miter; stroke-linecap: square"/>
   </g>
   <g id="patch_8">
    <path d="M 1184.99976 198.907885 
L 1184.99976 20.50024 
" style="fill: none; stroke: #000000; stroke-width: 2; stroke-linejoin: miter; stroke-linecap: square"/>
   </g>
   <g id="patch_9">
    <path d="M 3.00024 198.907885 
L 1184.99976 198.907885 
" style="fill: none; stroke: #000000; stroke-width: 2; stroke-linejoin: miter; stroke-linecap: square"/>
   </g>
   <g id="patch_10">
    <path d="M 3.00024 20.50024 
L 1184.99976 20.50024 
" style="fill: none; stroke: #000000; stroke-width: 2; stroke-linejoin: miter; stroke-linecap: square"/>
   </g>
  </g>
 </g>
 <defs>
  <clipPath id="p2dcaf36cdf">
   <rect x="3.00024" y="20.50024" width="1181.99952" height="178.407645"/>
  </clipPath>
 </defs>
</svg>
