<?xml version="1.0" encoding="utf-8" standalone="no"?>
<!DOCTYPE svg PUBLIC "-//W3C//DTD SVG 1.1//EN"
  "http://www.w3.org/Graphics/SVG/1.1/DTD/svg11.dtd">
<svg xmlns:xlink="http://www.w3.org/1999/xlink" width="1188pt" height="252pt" viewBox="0 0 1188 252" xmlns="http://www.w3.org/2000/svg" version="1.1">
 <metadata>
  <rdf:RDF xmlns:dc="http://purl.org/dc/elements/1.1/" xmlns:cc="http://creativecommons.org/ns#" xmlns:rdf="http://www.w3.org/1999/02/22-rdf-syntax-ns#">
   <cc:Work>
    <dc:type rdf:resource="http://purl.org/dc/dcmitype/StillImage"/>
    <dc:date>2024-05-13T16:40:41.393458</dc:date>
    <dc:format>image/svg+xml</dc:format>
    <dc:creator>
     <cc:Agent>
      <dc:title>Matplotlib v3.8.0, https://matplotlib.org/</dc:title>
     </cc:Agent>
    </dc:creator>
   </cc:Work>
  </rdf:RDF>
 </metadata>
 <defs>
  <style type="text/css">*{stroke-linejoin: round; stroke-linecap: butt}</style>
 </defs>
 <g id="figure_1">
  <g id="patch_1">
   <path d="M 0 252 
L 1188 252 
L 1188 0 
L 0 0 
z
" style="fill: #ffffff"/>
  </g>
  <g id="axes_1">
   <g id="patch_2">
    <path d="M 3.00024 198.907885 
L 1184.99976 198.907885 
L 1184.99976 20.50024 
L 3.00024 20.50024 
z
" style="fill: #ffffff"/>
   </g>
   <g id="matplotlib.axis_1">
    <g id="xtick_1">
     <g id="line2d_1">
      <defs>
       <path id="m760d13bdd9" d="M 0 0 
L 0 8 
" style="stroke: #000000; stroke-width: 2"/>
      </defs>
      <g>
       <use xlink:href="#m760d13bdd9" x="56.727491" y="198.907885" style="stroke: #000000; stroke-width: 2"/>
      </g>
     </g>
     <g id="text_1">
      <!-- 11.0 -->
      <g transform="translate(39.707647 224.791947) scale(0.18 -0.18)">
       <defs>
        <path id="Arial-BoldMT-31" d="M 2519 0 
L 1641 0 
L 1641 3309 
Q 1159 2859 506 2644 
L 506 3441 
Q 850 3553 1253 3867 
Q 1656 4181 1806 4600 
L 2519 4600 
L 2519 0 
z
" transform="scale(0.015625)"/>
        <path id="Arial-BoldMT-2e" d="M 459 0 
L 459 878 
L 1338 878 
L 1338 0 
L 459 0 
z
" transform="scale(0.015625)"/>
        <path id="Arial-BoldMT-30" d="M 1756 4600 
Q 2422 4600 2797 4125 
Q 3244 3563 3244 2259 
Q 3244 959 2794 391 
Q 2422 -78 1756 -78 
Q 1088 -78 678 436 
Q 269 950 269 2269 
Q 269 3563 719 4131 
Q 1091 4600 1756 4600 
z
M 1756 3872 
Q 1597 3872 1472 3770 
Q 1347 3669 1278 3406 
Q 1188 3066 1188 2259 
Q 1188 1453 1269 1151 
Q 1350 850 1473 750 
Q 1597 650 1756 650 
Q 1916 650 2041 751 
Q 2166 853 2234 1116 
Q 2325 1453 2325 2259 
Q 2325 3066 2244 3367 
Q 2163 3669 2039 3770 
Q 1916 3872 1756 3872 
z
" transform="scale(0.015625)"/>
       </defs>
       <use xlink:href="#Arial-BoldMT-31"/>
       <use xlink:href="#Arial-BoldMT-31" x="50.115234"/>
       <use xlink:href="#Arial-BoldMT-2e" x="105.730469"/>
       <use xlink:href="#Arial-BoldMT-30" x="133.513672"/>
      </g>
     </g>
    </g>
    <g id="xtick_2">
     <g id="line2d_2">
      <g>
       <use xlink:href="#m760d13bdd9" x="154.599527" y="198.907885" style="stroke: #000000; stroke-width: 2"/>
      </g>
     </g>
     <g id="text_2">
      <!-- 10.5 -->
      <g transform="translate(137.084683 224.791947) scale(0.18 -0.18)">
       <defs>
        <path id="Arial-BoldMT-35" d="M 284 1178 
L 1159 1269 
Q 1197 972 1381 798 
Q 1566 625 1806 625 
Q 2081 625 2272 848 
Q 2463 1072 2463 1522 
Q 2463 1944 2273 2155 
Q 2084 2366 1781 2366 
Q 1403 2366 1103 2031 
L 391 2134 
L 841 4519 
L 3163 4519 
L 3163 3697 
L 1506 3697 
L 1369 2919 
Q 1663 3066 1969 3066 
Q 2553 3066 2959 2641 
Q 3366 2216 3366 1538 
Q 3366 972 3038 528 
Q 2591 -78 1797 -78 
Q 1163 -78 763 262 
Q 363 603 284 1178 
z
" transform="scale(0.015625)"/>
       </defs>
       <use xlink:href="#Arial-BoldMT-31"/>
       <use xlink:href="#Arial-BoldMT-30" x="55.615234"/>
       <use xlink:href="#Arial-BoldMT-2e" x="111.230469"/>
       <use xlink:href="#Arial-BoldMT-35" x="139.013672"/>
      </g>
     </g>
    </g>
    <g id="xtick_3">
     <g id="line2d_3">
      <g>
       <use xlink:href="#m760d13bdd9" x="252.471563" y="198.907885" style="stroke: #000000; stroke-width: 2"/>
      </g>
     </g>
     <g id="text_3">
      <!-- 10.1 -->
      <g transform="translate(234.956719 224.791947) scale(0.18 -0.18)">
       <use xlink:href="#Arial-BoldMT-31"/>
       <use xlink:href="#Arial-BoldMT-30" x="55.615234"/>
       <use xlink:href="#Arial-BoldMT-2e" x="111.230469"/>
       <use xlink:href="#Arial-BoldMT-31" x="139.013672"/>
      </g>
     </g>
    </g>
    <g id="xtick_4">
     <g id="line2d_4">
      <g>
       <use xlink:href="#m760d13bdd9" x="350.343598" y="198.907885" style="stroke: #000000; stroke-width: 2"/>
      </g>
     </g>
     <g id="text_4">
      <!-- 9.6 -->
      <g transform="translate(337.833598 224.791947) scale(0.18 -0.18)">
       <defs>
        <path id="Arial-BoldMT-39" d="M 291 1059 
L 1141 1153 
Q 1172 894 1303 769 
Q 1434 644 1650 644 
Q 1922 644 2112 894 
Q 2303 1144 2356 1931 
Q 2025 1547 1528 1547 
Q 988 1547 595 1964 
Q 203 2381 203 3050 
Q 203 3747 617 4173 
Q 1031 4600 1672 4600 
Q 2369 4600 2816 4061 
Q 3263 3522 3263 2288 
Q 3263 1031 2797 475 
Q 2331 -81 1584 -81 
Q 1047 -81 715 205 
Q 384 491 291 1059 
z
M 2278 2978 
Q 2278 3403 2083 3637 
Q 1888 3872 1631 3872 
Q 1388 3872 1227 3680 
Q 1066 3488 1066 3050 
Q 1066 2606 1241 2398 
Q 1416 2191 1678 2191 
Q 1931 2191 2104 2391 
Q 2278 2591 2278 2978 
z
" transform="scale(0.015625)"/>
        <path id="Arial-BoldMT-36" d="M 3247 3459 
L 2397 3366 
Q 2366 3628 2234 3753 
Q 2103 3878 1894 3878 
Q 1616 3878 1423 3628 
Q 1231 3378 1181 2588 
Q 1509 2975 1997 2975 
Q 2547 2975 2939 2556 
Q 3331 2138 3331 1475 
Q 3331 772 2918 347 
Q 2506 -78 1859 -78 
Q 1166 -78 719 461 
Q 272 1000 272 2228 
Q 272 3488 737 4044 
Q 1203 4600 1947 4600 
Q 2469 4600 2811 4308 
Q 3153 4016 3247 3459 
z
M 1256 1544 
Q 1256 1116 1453 883 
Q 1650 650 1903 650 
Q 2147 650 2309 840 
Q 2472 1031 2472 1466 
Q 2472 1913 2297 2120 
Q 2122 2328 1859 2328 
Q 1606 2328 1431 2129 
Q 1256 1931 1256 1544 
z
" transform="scale(0.015625)"/>
       </defs>
       <use xlink:href="#Arial-BoldMT-39"/>
       <use xlink:href="#Arial-BoldMT-2e" x="55.615234"/>
       <use xlink:href="#Arial-BoldMT-36" x="83.398438"/>
      </g>
     </g>
    </g>
    <g id="xtick_5">
     <g id="line2d_5">
      <g>
       <use xlink:href="#m760d13bdd9" x="448.215634" y="198.907885" style="stroke: #000000; stroke-width: 2"/>
      </g>
     </g>
     <g id="text_5">
      <!-- 9.2 -->
      <g transform="translate(435.705634 224.791947) scale(0.18 -0.18)">
       <defs>
        <path id="Arial-BoldMT-32" d="M 3238 816 
L 3238 0 
L 159 0 
Q 209 463 459 877 
Q 709 1291 1447 1975 
Q 2041 2528 2175 2725 
Q 2356 2997 2356 3263 
Q 2356 3556 2198 3714 
Q 2041 3872 1763 3872 
Q 1488 3872 1325 3706 
Q 1163 3541 1138 3156 
L 263 3244 
Q 341 3969 753 4284 
Q 1166 4600 1784 4600 
Q 2463 4600 2850 4234 
Q 3238 3869 3238 3325 
Q 3238 3016 3127 2736 
Q 3016 2456 2775 2150 
Q 2616 1947 2200 1565 
Q 1784 1184 1673 1059 
Q 1563 934 1494 816 
L 3238 816 
z
" transform="scale(0.015625)"/>
       </defs>
       <use xlink:href="#Arial-BoldMT-39"/>
       <use xlink:href="#Arial-BoldMT-2e" x="55.615234"/>
       <use xlink:href="#Arial-BoldMT-32" x="83.398438"/>
      </g>
     </g>
    </g>
    <g id="xtick_6">
     <g id="line2d_6">
      <g>
       <use xlink:href="#m760d13bdd9" x="546.08767" y="198.907885" style="stroke: #000000; stroke-width: 2"/>
      </g>
     </g>
     <g id="text_6">
      <!-- 8.7 -->
      <g transform="translate(533.57767 224.791947) scale(0.18 -0.18)">
       <defs>
        <path id="Arial-BoldMT-38" d="M 1025 2472 
Q 684 2616 529 2867 
Q 375 3119 375 3419 
Q 375 3931 733 4265 
Q 1091 4600 1750 4600 
Q 2403 4600 2764 4265 
Q 3125 3931 3125 3419 
Q 3125 3100 2959 2851 
Q 2794 2603 2494 2472 
Q 2875 2319 3073 2025 
Q 3272 1731 3272 1347 
Q 3272 713 2867 316 
Q 2463 -81 1791 -81 
Q 1166 -81 750 247 
Q 259 634 259 1309 
Q 259 1681 443 1992 
Q 628 2303 1025 2472 
z
M 1206 3356 
Q 1206 3094 1354 2947 
Q 1503 2800 1750 2800 
Q 2000 2800 2150 2948 
Q 2300 3097 2300 3359 
Q 2300 3606 2151 3754 
Q 2003 3903 1759 3903 
Q 1506 3903 1356 3753 
Q 1206 3603 1206 3356 
z
M 1125 1394 
Q 1125 1031 1311 828 
Q 1497 625 1775 625 
Q 2047 625 2225 820 
Q 2403 1016 2403 1384 
Q 2403 1706 2222 1901 
Q 2041 2097 1763 2097 
Q 1441 2097 1283 1875 
Q 1125 1653 1125 1394 
z
" transform="scale(0.015625)"/>
        <path id="Arial-BoldMT-37" d="M 272 3703 
L 272 4519 
L 3275 4519 
L 3275 3881 
Q 2903 3516 2518 2831 
Q 2134 2147 1932 1376 
Q 1731 606 1734 0 
L 888 0 
Q 909 950 1279 1937 
Q 1650 2925 2269 3703 
L 272 3703 
z
" transform="scale(0.015625)"/>
       </defs>
       <use xlink:href="#Arial-BoldMT-38"/>
       <use xlink:href="#Arial-BoldMT-2e" x="55.615234"/>
       <use xlink:href="#Arial-BoldMT-37" x="83.398438"/>
      </g>
     </g>
    </g>
    <g id="xtick_7">
     <g id="line2d_7">
      <g>
       <use xlink:href="#m760d13bdd9" x="643.959706" y="198.907885" style="stroke: #000000; stroke-width: 2"/>
      </g>
     </g>
     <g id="text_7">
      <!-- 8.3 -->
      <g transform="translate(631.449706 224.791947) scale(0.18 -0.18)">
       <defs>
        <path id="Arial-BoldMT-33" d="M 241 1216 
L 1091 1319 
Q 1131 994 1309 822 
Q 1488 650 1741 650 
Q 2013 650 2198 856 
Q 2384 1063 2384 1413 
Q 2384 1744 2206 1937 
Q 2028 2131 1772 2131 
Q 1603 2131 1369 2066 
L 1466 2781 
Q 1822 2772 2009 2936 
Q 2197 3100 2197 3372 
Q 2197 3603 2059 3740 
Q 1922 3878 1694 3878 
Q 1469 3878 1309 3722 
Q 1150 3566 1116 3266 
L 306 3403 
Q 391 3819 561 4067 
Q 731 4316 1036 4458 
Q 1341 4600 1719 4600 
Q 2366 4600 2756 4188 
Q 3078 3850 3078 3425 
Q 3078 2822 2419 2463 
Q 2813 2378 3048 2084 
Q 3284 1791 3284 1375 
Q 3284 772 2843 347 
Q 2403 -78 1747 -78 
Q 1125 -78 715 280 
Q 306 638 241 1216 
z
" transform="scale(0.015625)"/>
       </defs>
       <use xlink:href="#Arial-BoldMT-38"/>
       <use xlink:href="#Arial-BoldMT-2e" x="55.615234"/>
       <use xlink:href="#Arial-BoldMT-33" x="83.398438"/>
      </g>
     </g>
    </g>
    <g id="xtick_8">
     <g id="line2d_8">
      <g>
       <use xlink:href="#m760d13bdd9" x="741.831742" y="198.907885" style="stroke: #000000; stroke-width: 2"/>
      </g>
     </g>
     <g id="text_8">
      <!-- 7.8 -->
      <g transform="translate(729.321742 224.791947) scale(0.18 -0.18)">
       <use xlink:href="#Arial-BoldMT-37"/>
       <use xlink:href="#Arial-BoldMT-2e" x="55.615234"/>
       <use xlink:href="#Arial-BoldMT-38" x="83.398438"/>
      </g>
     </g>
    </g>
    <g id="xtick_9">
     <g id="line2d_9">
      <g>
       <use xlink:href="#m760d13bdd9" x="839.703778" y="198.907885" style="stroke: #000000; stroke-width: 2"/>
      </g>
     </g>
     <g id="text_9">
      <!-- 7.4 -->
      <g transform="translate(827.193778 224.791947) scale(0.18 -0.18)">
       <defs>
        <path id="Arial-BoldMT-34" d="M 1994 0 
L 1994 922 
L 119 922 
L 119 1691 
L 2106 4600 
L 2844 4600 
L 2844 1694 
L 3413 1694 
L 3413 922 
L 2844 922 
L 2844 0 
L 1994 0 
z
M 1994 1694 
L 1994 3259 
L 941 1694 
L 1994 1694 
z
" transform="scale(0.015625)"/>
       </defs>
       <use xlink:href="#Arial-BoldMT-37"/>
       <use xlink:href="#Arial-BoldMT-2e" x="55.615234"/>
       <use xlink:href="#Arial-BoldMT-34" x="83.398438"/>
      </g>
     </g>
    </g>
    <g id="xtick_10">
     <g id="line2d_10">
      <g>
       <use xlink:href="#m760d13bdd9" x="937.575814" y="198.907885" style="stroke: #000000; stroke-width: 2"/>
      </g>
     </g>
     <g id="text_10">
      <!-- 6.9 -->
      <g transform="translate(925.065814 224.791947) scale(0.18 -0.18)">
       <use xlink:href="#Arial-BoldMT-36"/>
       <use xlink:href="#Arial-BoldMT-2e" x="55.615234"/>
       <use xlink:href="#Arial-BoldMT-39" x="83.398438"/>
      </g>
     </g>
    </g>
    <g id="xtick_11">
     <g id="line2d_11">
      <g>
       <use xlink:href="#m760d13bdd9" x="1035.447849" y="198.907885" style="stroke: #000000; stroke-width: 2"/>
      </g>
     </g>
     <g id="text_11">
      <!-- 6.4 -->
      <g transform="translate(1022.937849 224.791947) scale(0.18 -0.18)">
       <use xlink:href="#Arial-BoldMT-36"/>
       <use xlink:href="#Arial-BoldMT-2e" x="55.615234"/>
       <use xlink:href="#Arial-BoldMT-34" x="83.398438"/>
      </g>
     </g>
    </g>
    <g id="text_12">
     <!-- Chemical shift / ppm -->
     <g transform="translate(505.99125 245.447573) scale(0.18 -0.18)">
      <defs>
       <path id="Arial-BoldMT-43" d="M 3397 1684 
L 4294 1400 
Q 4088 650 3608 286 
Q 3128 -78 2391 -78 
Q 1478 -78 890 545 
Q 303 1169 303 2250 
Q 303 3394 893 4026 
Q 1484 4659 2447 4659 
Q 3288 4659 3813 4163 
Q 4125 3869 4281 3319 
L 3366 3100 
Q 3284 3456 3026 3662 
Q 2769 3869 2400 3869 
Q 1891 3869 1573 3503 
Q 1256 3138 1256 2319 
Q 1256 1450 1568 1081 
Q 1881 713 2381 713 
Q 2750 713 3015 947 
Q 3281 1181 3397 1684 
z
" transform="scale(0.015625)"/>
       <path id="Arial-BoldMT-68" d="M 1334 4581 
L 1334 2897 
Q 1759 3394 2350 3394 
Q 2653 3394 2897 3281 
Q 3141 3169 3264 2994 
Q 3388 2819 3433 2606 
Q 3478 2394 3478 1947 
L 3478 0 
L 2600 0 
L 2600 1753 
Q 2600 2275 2550 2415 
Q 2500 2556 2373 2639 
Q 2247 2722 2056 2722 
Q 1838 2722 1666 2615 
Q 1494 2509 1414 2295 
Q 1334 2081 1334 1663 
L 1334 0 
L 456 0 
L 456 4581 
L 1334 4581 
z
" transform="scale(0.015625)"/>
       <path id="Arial-BoldMT-65" d="M 2381 1056 
L 3256 909 
Q 3088 428 2723 176 
Q 2359 -75 1813 -75 
Q 947 -75 531 491 
Q 203 944 203 1634 
Q 203 2459 634 2926 
Q 1066 3394 1725 3394 
Q 2466 3394 2894 2905 
Q 3322 2416 3303 1406 
L 1103 1406 
Q 1113 1016 1316 798 
Q 1519 581 1822 581 
Q 2028 581 2168 693 
Q 2309 806 2381 1056 
z
M 2431 1944 
Q 2422 2325 2234 2523 
Q 2047 2722 1778 2722 
Q 1491 2722 1303 2513 
Q 1116 2303 1119 1944 
L 2431 1944 
z
" transform="scale(0.015625)"/>
       <path id="Arial-BoldMT-6d" d="M 394 3319 
L 1203 3319 
L 1203 2866 
Q 1638 3394 2238 3394 
Q 2556 3394 2790 3262 
Q 3025 3131 3175 2866 
Q 3394 3131 3647 3262 
Q 3900 3394 4188 3394 
Q 4553 3394 4806 3245 
Q 5059 3097 5184 2809 
Q 5275 2597 5275 2122 
L 5275 0 
L 4397 0 
L 4397 1897 
Q 4397 2391 4306 2534 
Q 4184 2722 3931 2722 
Q 3747 2722 3584 2609 
Q 3422 2497 3350 2280 
Q 3278 2063 3278 1594 
L 3278 0 
L 2400 0 
L 2400 1819 
Q 2400 2303 2353 2443 
Q 2306 2584 2207 2653 
Q 2109 2722 1941 2722 
Q 1738 2722 1575 2612 
Q 1413 2503 1342 2297 
Q 1272 2091 1272 1613 
L 1272 0 
L 394 0 
L 394 3319 
z
" transform="scale(0.015625)"/>
       <path id="Arial-BoldMT-69" d="M 459 3769 
L 459 4581 
L 1338 4581 
L 1338 3769 
L 459 3769 
z
M 459 0 
L 459 3319 
L 1338 3319 
L 1338 0 
L 459 0 
z
" transform="scale(0.015625)"/>
       <path id="Arial-BoldMT-63" d="M 3353 2338 
L 2488 2181 
Q 2444 2441 2289 2572 
Q 2134 2703 1888 2703 
Q 1559 2703 1364 2476 
Q 1169 2250 1169 1719 
Q 1169 1128 1367 884 
Q 1566 641 1900 641 
Q 2150 641 2309 783 
Q 2469 925 2534 1272 
L 3397 1125 
Q 3263 531 2881 228 
Q 2500 -75 1859 -75 
Q 1131 -75 698 384 
Q 266 844 266 1656 
Q 266 2478 700 2936 
Q 1134 3394 1875 3394 
Q 2481 3394 2839 3133 
Q 3197 2872 3353 2338 
z
" transform="scale(0.015625)"/>
       <path id="Arial-BoldMT-61" d="M 1116 2306 
L 319 2450 
Q 453 2931 781 3162 
Q 1109 3394 1756 3394 
Q 2344 3394 2631 3255 
Q 2919 3116 3036 2902 
Q 3153 2688 3153 2116 
L 3144 1091 
Q 3144 653 3186 445 
Q 3228 238 3344 0 
L 2475 0 
Q 2441 88 2391 259 
Q 2369 338 2359 363 
Q 2134 144 1878 34 
Q 1622 -75 1331 -75 
Q 819 -75 523 203 
Q 228 481 228 906 
Q 228 1188 362 1408 
Q 497 1628 739 1745 
Q 981 1863 1438 1950 
Q 2053 2066 2291 2166 
L 2291 2253 
Q 2291 2506 2166 2614 
Q 2041 2722 1694 2722 
Q 1459 2722 1328 2630 
Q 1197 2538 1116 2306 
z
M 2291 1594 
Q 2122 1538 1756 1459 
Q 1391 1381 1278 1306 
Q 1106 1184 1106 997 
Q 1106 813 1243 678 
Q 1381 544 1594 544 
Q 1831 544 2047 700 
Q 2206 819 2256 991 
Q 2291 1103 2291 1419 
L 2291 1594 
z
" transform="scale(0.015625)"/>
       <path id="Arial-BoldMT-6c" d="M 459 0 
L 459 4581 
L 1338 4581 
L 1338 0 
L 459 0 
z
" transform="scale(0.015625)"/>
       <path id="Arial-BoldMT-20" transform="scale(0.015625)"/>
       <path id="Arial-BoldMT-73" d="M 150 947 
L 1031 1081 
Q 1088 825 1259 692 
Q 1431 559 1741 559 
Q 2081 559 2253 684 
Q 2369 772 2369 919 
Q 2369 1019 2306 1084 
Q 2241 1147 2013 1200 
Q 950 1434 666 1628 
Q 272 1897 272 2375 
Q 272 2806 612 3100 
Q 953 3394 1669 3394 
Q 2350 3394 2681 3172 
Q 3013 2950 3138 2516 
L 2309 2363 
Q 2256 2556 2107 2659 
Q 1959 2763 1684 2763 
Q 1338 2763 1188 2666 
Q 1088 2597 1088 2488 
Q 1088 2394 1175 2328 
Q 1294 2241 1995 2081 
Q 2697 1922 2975 1691 
Q 3250 1456 3250 1038 
Q 3250 581 2869 253 
Q 2488 -75 1741 -75 
Q 1063 -75 667 200 
Q 272 475 150 947 
z
" transform="scale(0.015625)"/>
       <path id="Arial-BoldMT-66" d="M 75 3319 
L 563 3319 
L 563 3569 
Q 563 3988 652 4194 
Q 741 4400 980 4529 
Q 1219 4659 1584 4659 
Q 1959 4659 2319 4547 
L 2200 3934 
Q 1991 3984 1797 3984 
Q 1606 3984 1523 3895 
Q 1441 3806 1441 3553 
L 1441 3319 
L 2097 3319 
L 2097 2628 
L 1441 2628 
L 1441 0 
L 563 0 
L 563 2628 
L 75 2628 
L 75 3319 
z
" transform="scale(0.015625)"/>
       <path id="Arial-BoldMT-74" d="M 1981 3319 
L 1981 2619 
L 1381 2619 
L 1381 1281 
Q 1381 875 1398 808 
Q 1416 741 1477 697 
Q 1538 653 1625 653 
Q 1747 653 1978 738 
L 2053 56 
Q 1747 -75 1359 -75 
Q 1122 -75 931 4 
Q 741 84 652 211 
Q 563 338 528 553 
Q 500 706 500 1172 
L 500 2619 
L 97 2619 
L 97 3319 
L 500 3319 
L 500 3978 
L 1381 4491 
L 1381 3319 
L 1981 3319 
z
" transform="scale(0.015625)"/>
       <path id="Arial-BoldMT-2f" d="M -9 -78 
L 1125 4659 
L 1784 4659 
L 638 -78 
L -9 -78 
z
" transform="scale(0.015625)"/>
       <path id="Arial-BoldMT-70" d="M 434 3319 
L 1253 3319 
L 1253 2831 
Q 1413 3081 1684 3237 
Q 1956 3394 2288 3394 
Q 2866 3394 3269 2941 
Q 3672 2488 3672 1678 
Q 3672 847 3265 386 
Q 2859 -75 2281 -75 
Q 2006 -75 1782 34 
Q 1559 144 1313 409 
L 1313 -1263 
L 434 -1263 
L 434 3319 
z
M 1303 1716 
Q 1303 1156 1525 889 
Q 1747 622 2066 622 
Q 2372 622 2575 867 
Q 2778 1113 2778 1672 
Q 2778 2194 2568 2447 
Q 2359 2700 2050 2700 
Q 1728 2700 1515 2451 
Q 1303 2203 1303 1716 
z
" transform="scale(0.015625)"/>
      </defs>
      <use xlink:href="#Arial-BoldMT-43"/>
      <use xlink:href="#Arial-BoldMT-68" x="72.216797"/>
      <use xlink:href="#Arial-BoldMT-65" x="133.300781"/>
      <use xlink:href="#Arial-BoldMT-6d" x="188.916016"/>
      <use xlink:href="#Arial-BoldMT-69" x="277.832031"/>
      <use xlink:href="#Arial-BoldMT-63" x="305.615234"/>
      <use xlink:href="#Arial-BoldMT-61" x="361.230469"/>
      <use xlink:href="#Arial-BoldMT-6c" x="416.845703"/>
      <use xlink:href="#Arial-BoldMT-20" x="444.628906"/>
      <use xlink:href="#Arial-BoldMT-73" x="472.412109"/>
      <use xlink:href="#Arial-BoldMT-68" x="528.027344"/>
      <use xlink:href="#Arial-BoldMT-69" x="589.111328"/>
      <use xlink:href="#Arial-BoldMT-66" x="616.894531"/>
      <use xlink:href="#Arial-BoldMT-74" x="650.195312"/>
      <use xlink:href="#Arial-BoldMT-20" x="683.496094"/>
      <use xlink:href="#Arial-BoldMT-2f" x="711.279297"/>
      <use xlink:href="#Arial-BoldMT-20" x="739.0625"/>
      <use xlink:href="#Arial-BoldMT-70" x="766.845703"/>
      <use xlink:href="#Arial-BoldMT-70" x="827.929688"/>
      <use xlink:href="#Arial-BoldMT-6d" x="889.013672"/>
     </g>
    </g>
   </g>
   <g id="matplotlib.axis_2"/>
   <g id="line2d_12">
    <path d="M 56.727491 190.798447 
L 511.106527 190.798447 
L 511.515878 187.392817 
L 512.334579 187.170856 
L 513.971981 187.046688 
L 514.790682 186.954195 
L 516.428083 186.426616 
L 518.474836 186.1924 
L 520.112238 186.278476 
L 521.74964 186.61 
L 523.387042 186.300377 
L 524.205743 185.990231 
L 525.433794 185.184716 
L 530.75535 181.365771 
L 531.574051 180.471343 
L 532.392752 179.293549 
L 533.211453 177.678681 
L 534.439505 174.604374 
L 535.667556 170.907866 
L 536.486257 167.790503 
L 537.304958 163.78702 
L 538.123659 158.416984 
L 538.94236 151.519312 
L 541.398463 127.836978 
L 541.807813 126.109062 
L 542.217164 125.922939 
L 542.626514 127.380216 
L 543.035865 130.352485 
L 543.854566 139.377162 
L 545.491968 158.575919 
L 546.310669 165.470105 
L 547.12937 170.499785 
L 547.948071 174.377244 
L 548.766772 177.460857 
L 549.585473 179.851412 
L 550.813524 182.577583 
L 552.041575 184.782988 
L 552.860276 185.764169 
L 554.088328 186.63084 
L 555.316379 187.127098 
L 556.544431 187.330014 
L 557.772482 187.534957 
L 558.181833 190.798447 
L 566.368842 190.798447 
L 566.778193 187.472675 
L 567.596894 186.866942 
L 568.824945 185.598967 
L 570.052997 184.419967 
L 570.871698 184.008258 
L 571.690399 183.834102 
L 572.5091 183.821484 
L 575.374553 184.127536 
L 576.193254 184.074808 
L 577.421305 184.292005 
L 578.240006 184.314637 
L 579.058707 183.911745 
L 581.10546 182.557128 
L 582.742862 181.791572 
L 584.380264 180.700958 
L 585.608315 179.720521 
L 586.427016 179.377983 
L 588.064418 178.923947 
L 588.883119 178.502316 
L 589.70182 177.877723 
L 590.929871 176.419158 
L 592.157923 175.154669 
L 592.976624 174.584646 
L 593.385974 174.472623 
L 593.795325 174.493786 
L 594.614026 174.893716 
L 597.070129 176.838629 
L 597.88883 177.174645 
L 598.707531 177.315491 
L 599.526232 177.124252 
L 600.344932 176.486562 
L 601.163633 175.523918 
L 601.982334 174.295306 
L 602.801035 172.672643 
L 604.029087 170.116205 
L 604.438437 169.55661 
L 604.847788 169.262918 
L 605.257138 169.28209 
L 605.666489 169.607125 
L 606.075839 170.192429 
L 606.89454 171.876334 
L 608.122592 174.514393 
L 608.941293 175.623255 
L 609.759994 176.248394 
L 610.578695 176.579217 
L 610.988045 176.574587 
L 611.397396 176.42116 
L 611.806746 176.105753 
L 612.625447 174.961462 
L 613.853498 172.430809 
L 615.900251 167.858435 
L 616.718952 166.596159 
L 617.537653 165.782905 
L 618.356354 165.334044 
L 619.175055 164.982715 
L 619.993756 164.281327 
L 621.221807 162.692134 
L 622.040508 161.354879 
L 625.724662 154.323826 
L 626.543363 153.410568 
L 626.952714 153.20187 
L 627.362064 153.238763 
L 627.771415 153.593278 
L 628.180765 154.285032 
L 628.999466 156.511921 
L 630.227518 161.102834 
L 633.502322 174.341668 
L 634.730373 178.150744 
L 635.549074 180.039939 
L 636.367775 181.402591 
L 636.777125 181.808603 
L 637.186476 182.030499 
L 638.005177 182.162919 
L 639.233228 182.217697 
L 640.051929 181.987077 
L 641.279981 181.235782 
L 643.326733 179.744069 
L 645.782836 177.506903 
L 646.601537 177.099418 
L 647.420238 177.066669 
L 647.829589 177.225273 
L 648.648289 177.897394 
L 649.46699 178.881435 
L 650.285691 180.156979 
L 652.741794 184.51615 
L 653.969846 186.074001 
L 655.197897 187.280826 
L 655.607248 190.798447 
L 692.858142 190.798447 
L 693.267492 187.476228 
L 697.770347 185.760945 
L 698.998399 185.015215 
L 699.8171 184.22517 
L 701.454502 182.259596 
L 702.273203 181.720144 
L 704.319955 180.733812 
L 706.776058 178.917052 
L 707.594759 177.946898 
L 708.41346 176.68524 
L 709.232161 174.947011 
L 710.869563 170.900904 
L 711.688264 168.269715 
L 712.506965 164.831264 
L 714.144367 156.560294 
L 716.191119 145.825247 
L 717.419171 140.349198 
L 718.237872 137.570168 
L 718.647222 136.657014 
L 719.056573 136.161538 
L 719.465923 136.128318 
L 719.875274 136.568902 
L 720.284624 137.450255 
L 721.103325 140.169974 
L 723.150077 148.253862 
L 723.968778 150.331325 
L 724.378129 150.817058 
L 724.787479 150.931022 
L 725.19683 150.719002 
L 725.60618 150.228106 
L 726.015531 149.473155 
L 726.834232 147.220095 
L 728.062283 143.173077 
L 728.471634 142.138632 
L 728.880984 141.464299 
L 729.290335 141.211673 
L 729.699685 141.370308 
L 730.109036 141.901454 
L 730.518386 142.775617 
L 731.337087 145.393175 
L 732.155788 148.918383 
L 733.38384 155.295834 
L 735.839942 168.831214 
L 736.658643 172.194765 
L 737.477344 174.836436 
L 738.296045 176.898846 
L 739.933447 180.223898 
L 741.161499 182.240405 
L 741.9802 183.198325 
L 742.798901 183.837657 
L 744.026952 184.416443 
L 746.892405 185.493775 
L 749.348508 187.013487 
L 750.57656 187.274913 
L 751.804611 187.259523 
L 753.442013 187.033198 
L 754.260714 187.342123 
L 754.670065 190.798447 
L 764.494476 190.798447 
L 764.903827 187.479404 
L 765.722528 187.451342 
L 766.131878 187.504195 
L 766.541229 190.798447 
L 768.178631 190.798447 
L 768.587981 187.519876 
L 769.816032 187.404691 
L 770.634733 187.506556 
L 771.044084 190.798447 
L 781.277846 190.798447 
L 781.687197 187.498536 
L 782.505897 187.158567 
L 783.324598 187.024144 
L 784.55265 187.086998 
L 785.780701 187.255881 
L 786.599402 187.148366 
L 787.827454 186.596663 
L 789.055505 185.744478 
L 790.283557 184.863597 
L 791.511608 183.961939 
L 793.967711 181.681505 
L 794.786412 180.605494 
L 795.605113 179.084619 
L 796.833164 176.232088 
L 797.651865 173.795476 
L 798.470566 170.658512 
L 799.698618 164.617571 
L 800.517319 159.650643 
L 801.33602 153.494294 
L 803.382772 135.897058 
L 803.792123 133.654922 
L 804.201473 132.552037 
L 804.610824 132.79406 
L 805.020174 134.412357 
L 805.429525 137.231188 
L 806.248225 145.059786 
L 807.476277 157.292041 
L 808.294978 163.912033 
L 809.113679 169.150886 
L 809.93238 173.090266 
L 810.751081 175.946152 
L 811.979132 179.189591 
L 812.797833 180.959318 
L 813.616534 182.247115 
L 814.435235 183.181974 
L 815.253936 183.858529 
L 816.072637 184.291406 
L 817.710039 184.883566 
L 818.93809 185.674397 
L 819.756791 186.161274 
L 820.575492 186.271067 
L 823.031595 185.823271 
L 824.259647 185.420874 
L 825.078348 185.040252 
L 825.897049 184.431078 
L 829.171853 181.273647 
L 829.990554 179.901996 
L 831.218605 177.430458 
L 833.265357 172.624612 
L 834.084058 170.328664 
L 834.902759 167.459469 
L 836.130811 161.903224 
L 838.177563 151.514517 
L 838.586914 150.018939 
L 838.996264 148.996127 
L 839.405615 148.491818 
L 839.814965 148.498877 
L 840.224316 148.986603 
L 840.633666 149.909591 
L 841.452367 152.726364 
L 843.089769 159.152366 
L 844.31782 162.994767 
L 846.364573 168.635712 
L 847.183274 170.486896 
L 848.001975 171.920629 
L 848.820676 172.885816 
L 849.230026 173.165436 
L 849.639377 173.300657 
L 850.048727 173.285031 
L 850.458078 173.119721 
L 851.276779 172.387438 
L 852.50483 170.648278 
L 853.323531 169.121719 
L 854.142232 167.150547 
L 855.779634 162.256248 
L 856.598335 159.417766 
L 857.826386 154.092116 
L 860.282489 141.975895 
L 860.69184 140.67092 
L 861.10119 139.85126 
L 861.510541 139.620294 
L 861.919891 140.068399 
L 862.329242 141.231164 
L 862.738592 143.07047 
L 863.557293 148.271601 
L 865.194695 159.632087 
L 866.013396 164.083071 
L 867.241447 169.215156 
L 868.878849 174.908399 
L 869.69755 177.168607 
L 870.516251 178.903295 
L 871.334952 180.202817 
L 872.563004 181.627178 
L 875.428457 184.346886 
L 877.065859 186.031061 
L 877.88456 186.678006 
L 878.703261 187.011839 
L 881.159364 187.338672 
L 882.796766 187.389576 
L 883.206116 187.484145 
L 883.615467 190.798447 
L 1004.373859 190.798447 
L 1004.78321 187.359223 
L 1006.420612 186.590689 
L 1007.648663 186.181945 
L 1008.876715 185.380241 
L 1010.514117 183.921665 
L 1011.332818 183.007402 
L 1012.560869 181.197576 
L 1013.37957 179.616141 
L 1014.607621 176.535555 
L 1016.654374 170.475226 
L 1017.473075 167.460278 
L 1018.291776 163.535506 
L 1019.519827 156.229464 
L 1021.56658 143.248001 
L 1021.97593 141.469758 
L 1022.385281 140.301789 
L 1022.794631 139.800448 
L 1023.203982 139.952287 
L 1023.613332 140.704595 
L 1024.022683 141.977673 
L 1024.841383 145.624114 
L 1027.706837 159.963462 
L 1028.934888 164.721374 
L 1030.16294 168.621136 
L 1030.981641 170.595223 
L 1031.800342 172.08277 
L 1032.619043 173.0916 
L 1033.437744 173.644081 
L 1034.256445 173.898385 
L 1035.075146 173.840127 
L 1035.893847 173.382871 
L 1036.712547 172.424576 
L 1037.531248 170.944797 
L 1038.7593 168.071409 
L 1039.987351 164.378721 
L 1041.215403 159.755917 
L 1043.262155 151.30338 
L 1044.080856 148.707248 
L 1044.490207 147.995074 
L 1044.899557 147.863666 
L 1045.308908 148.359775 
L 1045.718258 149.44908 
L 1046.536959 153.085649 
L 1048.993062 166.872397 
L 1050.221113 171.657045 
L 1051.449165 175.429244 
L 1052.267866 177.443844 
L 1053.086567 178.948898 
L 1054.314618 180.509672 
L 1057.180072 183.643073 
L 1058.408123 184.529845 
L 1059.636175 185.166442 
L 1061.273576 185.957805 
L 1063.729679 187.527945 
L 1064.13903 190.798447 
L 1131.272509 190.798447 
L 1131.272509 190.798447 
" clip-path="url(#p78b3318799)" style="fill: none; stroke: #000000; stroke-width: 2; stroke-linecap: square"/>
   </g>
   <g id="line2d_13">
    <path d="M 56.727491 93.485186 
L 269.589742 93.485186 
L 269.999093 90.23443 
L 270.408443 90.224232 
L 270.817794 93.485186 
L 518.884186 93.485186 
L 519.293537 90.235137 
L 520.930939 89.432235 
L 522.977691 88.711286 
L 525.433794 87.771411 
L 526.252495 87.528009 
L 527.480546 87.31733 
L 528.708598 86.679313 
L 529.936649 86.171543 
L 531.164701 85.663766 
L 531.983402 85.105339 
L 532.802103 84.295696 
L 533.620804 83.136486 
L 534.439505 81.493203 
L 535.258206 79.327403 
L 536.076907 76.5336 
L 536.895608 73.005437 
L 537.714309 68.76514 
L 538.53301 63.327264 
L 539.351711 56.241388 
L 541.807813 31.149851 
L 542.217164 29.101838 
L 542.626514 28.609678 
L 543.035865 29.766473 
L 543.445215 32.422436 
L 544.263916 40.800035 
L 545.901318 59.527533 
L 546.720019 66.538907 
L 547.53872 71.730739 
L 548.357421 75.554984 
L 549.176122 78.534076 
L 549.994823 80.835419 
L 551.222875 83.465643 
L 552.450926 85.461881 
L 554.088328 87.610709 
L 555.316379 88.763724 
L 556.13508 89.244458 
L 556.953781 89.480796 
L 559.000534 89.60955 
L 560.637936 89.50005 
L 561.865987 89.228977 
L 563.094039 88.883447 
L 564.32209 88.878451 
L 565.550141 88.767462 
L 567.187543 88.283209 
L 568.824945 87.706268 
L 570.052997 87.196068 
L 570.871698 87.109113 
L 574.146502 87.211411 
L 577.011955 87.238131 
L 579.058707 87.310995 
L 579.877408 86.994583 
L 581.10546 86.08014 
L 583.561563 83.935887 
L 584.789614 82.642684 
L 585.608315 82.109295 
L 587.245717 81.423627 
L 588.883119 80.849286 
L 589.70182 80.28851 
L 591.339222 78.765666 
L 592.976624 77.045798 
L 593.795325 76.507526 
L 594.614026 76.358972 
L 595.432727 76.610353 
L 596.251428 77.141537 
L 597.88883 78.50579 
L 598.707531 78.716948 
L 599.526232 78.606161 
L 600.344932 78.288871 
L 601.163633 77.703592 
L 601.982334 76.78678 
L 602.801035 75.487063 
L 604.438437 72.448458 
L 604.847788 71.950185 
L 605.257138 71.671452 
L 605.666489 71.633791 
L 606.075839 71.829214 
L 606.48519 72.225496 
L 607.303891 73.473216 
L 608.941293 76.362702 
L 609.759994 77.27396 
L 610.578695 77.730663 
L 611.397396 77.781498 
L 612.216096 77.586867 
L 613.034797 77.080871 
L 613.853498 76.026639 
L 614.672199 74.393523 
L 617.128302 68.701062 
L 617.947003 67.660536 
L 618.765704 67.121941 
L 620.403106 66.204668 
L 621.221807 65.498048 
L 622.040508 64.595682 
L 622.859209 63.429933 
L 623.67791 61.881762 
L 624.496611 59.969875 
L 626.134013 55.821271 
L 626.543363 55.125172 
L 626.952714 54.649657 
L 627.362064 54.395625 
L 627.771415 54.373068 
L 628.180765 54.608872 
L 628.590116 55.132193 
L 628.999466 55.956708 
L 629.818167 58.45699 
L 631.046219 63.63073 
L 632.683621 70.834735 
L 634.321023 76.80036 
L 635.139724 79.135585 
L 635.958425 80.751644 
L 636.777125 81.735886 
L 638.414527 83.164796 
L 639.233228 83.667779 
L 640.051929 83.921856 
L 640.87063 83.903303 
L 641.689331 83.654363 
L 642.508032 83.126134 
L 643.326733 82.285626 
L 645.782836 79.343347 
L 646.601537 78.763136 
L 647.420238 78.553568 
L 647.829589 78.650952 
L 648.238939 78.90178 
L 649.05764 79.761749 
L 651.104392 82.456734 
L 654.379196 87.005278 
L 655.607248 88.218044 
L 656.425949 88.735583 
L 657.24465 89.0182 
L 658.063351 89.133797 
L 660.519454 89.207769 
L 662.156855 89.319143 
L 663.794257 90.032585 
L 664.203608 90.194421 
L 664.612958 93.485186 
L 679.349576 93.485186 
L 679.758926 90.224484 
L 681.396328 90.235644 
L 681.805679 93.485186 
L 688.764637 93.485186 
L 689.173987 90.171809 
L 690.402039 89.980113 
L 691.63009 89.834049 
L 694.495544 88.9899 
L 696.542296 87.921402 
L 697.770347 87.521379 
L 698.998399 86.835143 
L 700.635801 85.491983 
L 702.273203 84.158817 
L 705.138656 82.375723 
L 708.00411 79.927448 
L 708.822811 78.831837 
L 709.641511 77.378463 
L 710.869563 74.451913 
L 711.688264 71.948412 
L 712.506965 68.6384 
L 713.735016 62.53497 
L 716.191119 50.129101 
L 717.828521 42.873579 
L 718.647222 40.131225 
L 719.056573 39.239176 
L 719.465923 38.719315 
L 719.875274 38.592654 
L 720.284624 38.88206 
L 720.693975 39.590122 
L 721.512675 42.023084 
L 723.559428 49.49103 
L 724.378129 51.563691 
L 724.787479 52.226923 
L 725.19683 52.600214 
L 725.60618 52.651197 
L 726.015531 52.362419 
L 726.424881 51.750343 
L 727.243582 49.726596 
L 728.880984 44.547441 
L 729.290335 43.739544 
L 729.699685 43.329428 
L 730.109036 43.326943 
L 730.518386 43.697552 
L 730.927737 44.388851 
L 731.746438 46.598342 
L 732.565139 49.816796 
L 733.79319 56.001073 
L 736.658643 71.670256 
L 737.477344 75.0575 
L 738.296045 77.640886 
L 739.524097 80.574549 
L 741.161499 84.031609 
L 741.9802 85.179771 
L 742.798901 85.791951 
L 743.617602 86.011522 
L 744.436303 86.213037 
L 746.073704 86.828871 
L 746.892405 87.118125 
L 748.939158 88.230726 
L 751.395261 88.943675 
L 752.623312 89.594388 
L 753.442013 89.76117 
L 754.260714 89.71686 
L 755.898116 89.443905 
L 756.716817 89.590281 
L 759.17292 90.167186 
L 759.58227 93.485186 
L 762.857074 93.485186 
L 763.266425 90.137637 
L 764.494476 89.882108 
L 765.722528 89.850252 
L 768.587981 90.053965 
L 771.044084 90.231153 
L 771.453434 93.485186 
L 771.862785 90.228449 
L 772.681486 90.057672 
L 773.909537 89.474053 
L 775.137589 88.948649 
L 775.95629 88.91255 
L 777.593692 88.923323 
L 779.231094 88.676665 
L 781.687197 88.820088 
L 782.915248 88.981013 
L 786.190052 88.711168 
L 787.418103 88.198758 
L 788.646155 87.625265 
L 789.874206 87.154153 
L 791.920959 85.961556 
L 793.558361 84.635887 
L 794.786412 83.465862 
L 795.605113 82.428766 
L 796.423814 81.059673 
L 797.242515 79.241811 
L 798.061216 76.936323 
L 798.879917 74.183245 
L 799.698618 70.765636 
L 800.517319 66.148577 
L 801.33602 60.160205 
L 804.201473 37.212566 
L 804.610824 36.080649 
L 805.020174 36.282019 
L 805.429525 37.82289 
L 805.838875 40.493637 
L 806.657576 47.832043 
L 807.885627 59.265114 
L 808.704328 65.463346 
L 809.523029 70.301236 
L 810.34173 73.93032 
L 811.569782 78.19911 
L 812.388483 80.527375 
L 813.207184 82.304366 
L 814.025885 83.671685 
L 815.663287 85.898155 
L 816.481988 86.698367 
L 817.300689 87.036847 
L 819.756791 87.373269 
L 820.984843 87.638765 
L 821.803544 87.599949 
L 823.850296 87.140588 
L 826.71575 86.378806 
L 827.534451 85.8106 
L 828.762502 84.54897 
L 831.218605 81.634118 
L 832.037306 80.273352 
L 833.265357 77.67838 
L 834.084058 75.451528 
L 834.902759 72.637996 
L 836.130811 67.482403 
L 838.996264 53.905438 
L 839.405615 52.886969 
L 839.814965 52.326079 
L 840.224316 52.248394 
L 840.633666 52.643358 
L 841.043017 53.466242 
L 841.861718 56.0861 
L 844.31782 65.38775 
L 845.545872 69.191883 
L 846.773923 72.169825 
L 847.592624 73.679659 
L 848.411325 74.645082 
L 849.230026 75.120651 
L 850.048727 75.374738 
L 850.867428 75.397112 
L 851.686129 75.048325 
L 852.50483 74.312685 
L 853.323531 73.205148 
L 854.142232 71.553425 
L 854.960933 69.348685 
L 856.188984 65.381197 
L 857.417036 60.750907 
L 858.645087 55.055067 
L 860.282489 47.067997 
L 861.10119 44.406212 
L 861.510541 43.745667 
L 861.919891 43.637506 
L 862.329242 44.109062 
L 862.738592 45.137975 
L 863.147943 46.67191 
L 863.966644 50.948315 
L 866.422747 66.037466 
L 867.241447 69.854739 
L 868.469499 74.326329 
L 869.69755 77.516712 
L 871.334952 81.118298 
L 872.972354 84.061599 
L 874.200406 85.800639 
L 875.019107 86.699577 
L 876.247158 87.63639 
L 879.112611 89.404762 
L 880.750013 90.21192 
L 881.159364 93.485186 
L 1002.736457 93.485186 
L 1003.145808 90.141957 
L 1006.011261 89.254256 
L 1006.829962 88.847324 
L 1008.467364 87.718366 
L 1009.695416 86.523437 
L 1011.742168 84.361931 
L 1013.78892 81.614526 
L 1014.607621 80.332067 
L 1015.426322 78.616676 
L 1016.245023 76.274397 
L 1017.473075 71.759824 
L 1018.701126 66.335656 
L 1019.519827 61.817728 
L 1021.97593 46.325064 
L 1022.385281 44.570739 
L 1022.794631 43.360264 
L 1023.203982 42.790534 
L 1023.613332 42.902036 
L 1024.022683 43.657452 
L 1024.432033 44.964656 
L 1025.250734 48.724232 
L 1028.116187 63.545074 
L 1029.344239 68.359021 
L 1030.57229 72.013966 
L 1031.390991 73.816564 
L 1032.209692 75.056415 
L 1033.028393 75.819061 
L 1034.256445 76.559587 
L 1034.665795 76.668513 
L 1035.075146 76.654073 
L 1035.484496 76.507115 
L 1036.303197 75.854418 
L 1037.121898 74.853265 
L 1037.940599 73.52224 
L 1038.7593 71.827959 
L 1039.578001 69.752219 
L 1040.806052 65.862364 
L 1044.080856 54.015292 
L 1044.490207 53.210017 
L 1044.899557 52.811605 
L 1045.308908 52.900568 
L 1045.718258 53.518811 
L 1046.127609 54.656414 
L 1046.94631 58.157819 
L 1049.811763 72.709932 
L 1051.039814 77.393102 
L 1051.858515 79.683528 
L 1053.086567 82.27482 
L 1055.133319 85.853687 
L 1055.95202 86.790043 
L 1057.180072 87.831097 
L 1057.998773 88.278988 
L 1060.045525 88.998386 
L 1060.864226 89.304531 
L 1062.910978 89.654729 
L 1064.13903 90.144891 
L 1064.54838 93.485186 
L 1131.272509 93.485186 
L 1131.272509 93.485186 
" clip-path="url(#p78b3318799)" style="fill: none; stroke: #d55e00; stroke-width: 2; stroke-linecap: square"/>
   </g>
   <g id="LineCollection_1">
    <path d="M 56.727491 190.798447 
L 56.727491 93.485186 
" clip-path="url(#p78b3318799)" style="fill: none; stroke-dasharray: 1,1.65; stroke-dashoffset: 0; stroke: #808080"/>
    <path d="M 74.329562 190.798447 
L 81.28852 93.485186 
" clip-path="url(#p78b3318799)" style="fill: none; stroke-dasharray: 1,1.65; stroke-dashoffset: 0; stroke: #808080"/>
    <path d="M 98.890591 190.798447 
L 105.849549 93.485186 
" clip-path="url(#p78b3318799)" style="fill: none; stroke-dasharray: 1,1.65; stroke-dashoffset: 0; stroke: #808080"/>
    <path d="M 123.45162 190.798447 
L 130.410578 93.485186 
" clip-path="url(#p78b3318799)" style="fill: none; stroke-dasharray: 1,1.65; stroke-dashoffset: 0; stroke: #808080"/>
    <path d="M 148.421999 190.798447 
L 155.380957 93.485186 
" clip-path="url(#p78b3318799)" style="fill: none; stroke-dasharray: 1,1.65; stroke-dashoffset: 0; stroke: #808080"/>
    <path d="M 172.983028 190.798447 
L 179.941986 93.485186 
" clip-path="url(#p78b3318799)" style="fill: none; stroke-dasharray: 1,1.65; stroke-dashoffset: 0; stroke: #808080"/>
    <path d="M 197.544057 190.798447 
L 204.503015 93.485186 
" clip-path="url(#p78b3318799)" style="fill: none; stroke-dasharray: 1,1.65; stroke-dashoffset: 0; stroke: #808080"/>
    <path d="M 222.105086 190.798447 
L 229.064044 93.485186 
" clip-path="url(#p78b3318799)" style="fill: none; stroke-dasharray: 1,1.65; stroke-dashoffset: 0; stroke: #808080"/>
    <path d="M 247.075466 190.798447 
L 254.034424 93.485186 
" clip-path="url(#p78b3318799)" style="fill: none; stroke-dasharray: 1,1.65; stroke-dashoffset: 0; stroke: #808080"/>
    <path d="M 270.817794 190.798447 
L 278.595453 93.485186 
" clip-path="url(#p78b3318799)" style="fill: none; stroke-dasharray: 1,1.65; stroke-dashoffset: 0; stroke: #808080"/>
    <path d="M 295.378823 190.798447 
L 303.156482 93.485186 
" clip-path="url(#p78b3318799)" style="fill: none; stroke-dasharray: 1,1.65; stroke-dashoffset: 0; stroke: #808080"/>
    <path d="M 319.939852 190.798447 
L 327.717511 93.485186 
" clip-path="url(#p78b3318799)" style="fill: none; stroke-dasharray: 1,1.65; stroke-dashoffset: 0; stroke: #808080"/>
    <path d="M 344.910231 190.798447 
L 352.68789 93.485186 
" clip-path="url(#p78b3318799)" style="fill: none; stroke-dasharray: 1,1.65; stroke-dashoffset: 0; stroke: #808080"/>
    <path d="M 369.47126 190.798447 
L 377.248919 93.485186 
" clip-path="url(#p78b3318799)" style="fill: none; stroke-dasharray: 1,1.65; stroke-dashoffset: 0; stroke: #808080"/>
    <path d="M 394.032289 190.798447 
L 401.809948 93.485186 
" clip-path="url(#p78b3318799)" style="fill: none; stroke-dasharray: 1,1.65; stroke-dashoffset: 0; stroke: #808080"/>
    <path d="M 418.593318 190.798447 
L 426.370977 93.485186 
" clip-path="url(#p78b3318799)" style="fill: none; stroke-dasharray: 1,1.65; stroke-dashoffset: 0; stroke: #808080"/>
    <path d="M 443.563697 190.798447 
L 451.341357 93.485186 
" clip-path="url(#p78b3318799)" style="fill: none; stroke-dasharray: 1,1.65; stroke-dashoffset: 0; stroke: #808080"/>
    <path d="M 468.124726 190.798447 
L 475.902386 93.485186 
" clip-path="url(#p78b3318799)" style="fill: none; stroke-dasharray: 1,1.65; stroke-dashoffset: 0; stroke: #808080"/>
    <path d="M 492.685755 190.798447 
L 500.463415 93.485186 
" clip-path="url(#p78b3318799)" style="fill: none; stroke-dasharray: 1,1.65; stroke-dashoffset: 0; stroke: #808080"/>
    <path d="M 517.246784 186.297778 
L 522.15899 89.058235 
" clip-path="url(#p78b3318799)" style="fill: none; stroke-dasharray: 1,1.65; stroke-dashoffset: 0; stroke: #808080"/>
    <path d="M 538.123659 158.416984 
L 538.94236 59.997529 
" clip-path="url(#p78b3318799)" style="fill: none; stroke-dasharray: 1,1.65; stroke-dashoffset: 0; stroke: #808080"/>
    <path d="M 559.000534 190.798447 
L 559.000534 89.60955 
" clip-path="url(#p78b3318799)" style="fill: none; stroke-dasharray: 1,1.65; stroke-dashoffset: 0; stroke: #808080"/>
    <path d="M 570.052997 184.419967 
L 575.374553 87.159731 
" clip-path="url(#p78b3318799)" style="fill: none; stroke-dasharray: 1,1.65; stroke-dashoffset: 0; stroke: #808080"/>
    <path d="M 589.70182 177.877723 
L 589.292469 80.597783 
" clip-path="url(#p78b3318799)" style="fill: none; stroke-dasharray: 1,1.65; stroke-dashoffset: 0; stroke: #808080"/>
    <path d="M 606.48519 170.974386 
L 607.303891 73.473216 
" clip-path="url(#p78b3318799)" style="fill: none; stroke-dasharray: 1,1.65; stroke-dashoffset: 0; stroke: #808080"/>
    <path d="M 626.134013 153.795048 
L 625.724662 56.720945 
" clip-path="url(#p78b3318799)" style="fill: none; stroke-dasharray: 1,1.65; stroke-dashoffset: 0; stroke: #808080"/>
    <path d="M 644.554785 178.574193 
L 644.145434 81.236469 
" clip-path="url(#p78b3318799)" style="fill: none; stroke-dasharray: 1,1.65; stroke-dashoffset: 0; stroke: #808080"/>
    <path d="M 658.063351 190.798447 
L 664.612958 93.485186 
" clip-path="url(#p78b3318799)" style="fill: none; stroke-dasharray: 1,1.65; stroke-dashoffset: 0; stroke: #808080"/>
    <path d="M 682.62438 190.798447 
L 676.484122 93.485186 
" clip-path="url(#p78b3318799)" style="fill: none; stroke-dasharray: 1,1.65; stroke-dashoffset: 0; stroke: #808080"/>
    <path d="M 701.045151 182.675534 
L 700.635801 85.491983 
" clip-path="url(#p78b3318799)" style="fill: none; stroke-dasharray: 1,1.65; stroke-dashoffset: 0; stroke: #808080"/>
    <path d="M 723.150077 148.253862 
L 723.968778 50.641328 
" clip-path="url(#p78b3318799)" style="fill: none; stroke-dasharray: 1,1.65; stroke-dashoffset: 0; stroke: #808080"/>
    <path d="M 743.208251 184.062135 
L 746.073704 86.828871 
" clip-path="url(#p78b3318799)" style="fill: none; stroke-dasharray: 1,1.65; stroke-dashoffset: 0; stroke: #808080"/>
    <path d="M 760.810322 190.798447 
L 759.58227 93.485186 
" clip-path="url(#p78b3318799)" style="fill: none; stroke-dasharray: 1,1.65; stroke-dashoffset: 0; stroke: #808080"/>
    <path d="M 778.412393 190.798447 
L 771.453434 93.485186 
" clip-path="url(#p78b3318799)" style="fill: none; stroke-dasharray: 1,1.65; stroke-dashoffset: 0; stroke: #808080"/>
    <path d="M 790.692907 184.601497 
L 789.464856 87.336209 
" clip-path="url(#p78b3318799)" style="fill: none; stroke-dasharray: 1,1.65; stroke-dashoffset: 0; stroke: #808080"/>
    <path d="M 811.979132 179.189591 
L 812.797833 81.479048 
" clip-path="url(#p78b3318799)" style="fill: none; stroke-dasharray: 1,1.65; stroke-dashoffset: 0; stroke: #808080"/>
    <path d="M 829.171853 181.273647 
L 829.581203 83.612091 
" clip-path="url(#p78b3318799)" style="fill: none; stroke-dasharray: 1,1.65; stroke-dashoffset: 0; stroke: #808080"/>
    <path d="M 850.048727 173.285031 
L 850.458078 75.42482 
" clip-path="url(#p78b3318799)" style="fill: none; stroke-dasharray: 1,1.65; stroke-dashoffset: 0; stroke: #808080"/>
    <path d="M 871.744303 180.735646 
L 872.563004 83.391758 
" clip-path="url(#p78b3318799)" style="fill: none; stroke-dasharray: 1,1.65; stroke-dashoffset: 0; stroke: #808080"/>
    <path d="M 894.258579 190.798447 
L 892.621177 93.485186 
" clip-path="url(#p78b3318799)" style="fill: none; stroke-dasharray: 1,1.65; stroke-dashoffset: 0; stroke: #808080"/>
    <path d="M 918.819608 190.798447 
L 917.182206 93.485186 
" clip-path="url(#p78b3318799)" style="fill: none; stroke-dasharray: 1,1.65; stroke-dashoffset: 0; stroke: #808080"/>
    <path d="M 943.380637 190.798447 
L 941.743235 93.485186 
" clip-path="url(#p78b3318799)" style="fill: none; stroke-dasharray: 1,1.65; stroke-dashoffset: 0; stroke: #808080"/>
    <path d="M 968.351017 190.798447 
L 966.713615 93.485186 
" clip-path="url(#p78b3318799)" style="fill: none; stroke-dasharray: 1,1.65; stroke-dashoffset: 0; stroke: #808080"/>
    <path d="M 992.912046 190.798447 
L 991.274644 93.485186 
" clip-path="url(#p78b3318799)" style="fill: none; stroke-dasharray: 1,1.65; stroke-dashoffset: 0; stroke: #808080"/>
    <path d="M 1015.016972 175.371033 
L 1015.426322 78.616676 
" clip-path="url(#p78b3318799)" style="fill: none; stroke-dasharray: 1,1.65; stroke-dashoffset: 0; stroke: #808080"/>
    <path d="M 1036.712547 172.424576 
L 1037.121898 74.853265 
" clip-path="url(#p78b3318799)" style="fill: none; stroke-dasharray: 1,1.65; stroke-dashoffset: 0; stroke: #808080"/>
    <path d="M 1060.045525 185.335282 
L 1057.589422 88.092651 
" clip-path="url(#p78b3318799)" style="fill: none; stroke-dasharray: 1,1.65; stroke-dashoffset: 0; stroke: #808080"/>
    <path d="M 1081.741101 190.798447 
L 1081.741101 93.485186 
" clip-path="url(#p78b3318799)" style="fill: none; stroke-dasharray: 1,1.65; stroke-dashoffset: 0; stroke: #808080"/>
    <path d="M 1106.30213 190.798447 
L 1106.30213 93.485186 
" clip-path="url(#p78b3318799)" style="fill: none; stroke-dasharray: 1,1.65; stroke-dashoffset: 0; stroke: #808080"/>
    <path d="M 1131.272509 190.798447 
L 1131.272509 93.485186 
" clip-path="url(#p78b3318799)" style="fill: none; stroke-dasharray: 1,1.65; stroke-dashoffset: 0; stroke: #808080"/>
   </g>
   <g id="patch_3">
    <path d="M 3.00024 198.907885 
L 3.00024 20.50024 
" style="fill: none; stroke: #000000; stroke-width: 2; stroke-linejoin: miter; stroke-linecap: square"/>
   </g>
   <g id="patch_4">
    <path d="M 1184.99976 198.907885 
L 1184.99976 20.50024 
" style="fill: none; stroke: #000000; stroke-width: 2; stroke-linejoin: miter; stroke-linecap: square"/>
   </g>
   <g id="patch_5">
    <path d="M 3.00024 198.907885 
L 1184.99976 198.907885 
" style="fill: none; stroke: #000000; stroke-width: 2; stroke-linejoin: miter; stroke-linecap: square"/>
   </g>
   <g id="patch_6">
    <path d="M 3.00024 20.50024 
L 1184.99976 20.50024 
" style="fill: none; stroke: #000000; stroke-width: 2; stroke-linejoin: miter; stroke-linecap: square"/>
   </g>
   <g id="text_13">
    <!-- Distance between spectra: 9.4 -->
    <g transform="translate(479.74 14.50024) scale(0.16 -0.16)">
     <defs>
      <path id="Arial-BoldMT-44" d="M 463 4581 
L 2153 4581 
Q 2725 4581 3025 4494 
Q 3428 4375 3715 4072 
Q 4003 3769 4153 3330 
Q 4303 2891 4303 2247 
Q 4303 1681 4163 1272 
Q 3991 772 3672 463 
Q 3431 228 3022 97 
Q 2716 0 2203 0 
L 463 0 
L 463 4581 
z
M 1388 3806 
L 1388 772 
L 2078 772 
Q 2466 772 2638 816 
Q 2863 872 3011 1006 
Q 3159 1141 3253 1448 
Q 3347 1756 3347 2288 
Q 3347 2819 3253 3103 
Q 3159 3388 2990 3547 
Q 2822 3706 2563 3763 
Q 2369 3806 1803 3806 
L 1388 3806 
z
" transform="scale(0.015625)"/>
      <path id="Arial-BoldMT-6e" d="M 3478 0 
L 2600 0 
L 2600 1694 
Q 2600 2231 2544 2389 
Q 2488 2547 2361 2634 
Q 2234 2722 2056 2722 
Q 1828 2722 1647 2597 
Q 1466 2472 1398 2265 
Q 1331 2059 1331 1503 
L 1331 0 
L 453 0 
L 453 3319 
L 1269 3319 
L 1269 2831 
Q 1703 3394 2363 3394 
Q 2653 3394 2893 3289 
Q 3134 3184 3257 3021 
Q 3381 2859 3429 2653 
Q 3478 2447 3478 2063 
L 3478 0 
z
" transform="scale(0.015625)"/>
      <path id="Arial-BoldMT-62" d="M 422 0 
L 422 4581 
L 1300 4581 
L 1300 2931 
Q 1706 3394 2263 3394 
Q 2869 3394 3266 2955 
Q 3663 2516 3663 1694 
Q 3663 844 3258 384 
Q 2853 -75 2275 -75 
Q 1991 -75 1714 67 
Q 1438 209 1238 488 
L 1238 0 
L 422 0 
z
M 1294 1731 
Q 1294 1216 1456 969 
Q 1684 619 2063 619 
Q 2353 619 2558 867 
Q 2763 1116 2763 1650 
Q 2763 2219 2556 2470 
Q 2350 2722 2028 2722 
Q 1713 2722 1503 2476 
Q 1294 2231 1294 1731 
z
" transform="scale(0.015625)"/>
      <path id="Arial-BoldMT-77" d="M 1078 0 
L 28 3319 
L 881 3319 
L 1503 1144 
L 2075 3319 
L 2922 3319 
L 3475 1144 
L 4109 3319 
L 4975 3319 
L 3909 0 
L 3066 0 
L 2494 2134 
L 1931 0 
L 1078 0 
z
" transform="scale(0.015625)"/>
      <path id="Arial-BoldMT-72" d="M 1300 0 
L 422 0 
L 422 3319 
L 1238 3319 
L 1238 2847 
Q 1447 3181 1614 3287 
Q 1781 3394 1994 3394 
Q 2294 3394 2572 3228 
L 2300 2463 
Q 2078 2606 1888 2606 
Q 1703 2606 1575 2504 
Q 1447 2403 1373 2137 
Q 1300 1872 1300 1025 
L 1300 0 
z
" transform="scale(0.015625)"/>
      <path id="Arial-BoldMT-3a" d="M 628 2441 
L 628 3319 
L 1506 3319 
L 1506 2441 
L 628 2441 
z
M 628 0 
L 628 878 
L 1506 878 
L 1506 0 
L 628 0 
z
" transform="scale(0.015625)"/>
     </defs>
     <use xlink:href="#Arial-BoldMT-44"/>
     <use xlink:href="#Arial-BoldMT-69" x="72.216797"/>
     <use xlink:href="#Arial-BoldMT-73" x="100"/>
     <use xlink:href="#Arial-BoldMT-74" x="155.615234"/>
     <use xlink:href="#Arial-BoldMT-61" x="188.916016"/>
     <use xlink:href="#Arial-BoldMT-6e" x="244.53125"/>
     <use xlink:href="#Arial-BoldMT-63" x="305.615234"/>
     <use xlink:href="#Arial-BoldMT-65" x="361.230469"/>
     <use xlink:href="#Arial-BoldMT-20" x="416.845703"/>
     <use xlink:href="#Arial-BoldMT-62" x="444.628906"/>
     <use xlink:href="#Arial-BoldMT-65" x="505.712891"/>
     <use xlink:href="#Arial-BoldMT-74" x="561.328125"/>
     <use xlink:href="#Arial-BoldMT-77" x="594.628906"/>
     <use xlink:href="#Arial-BoldMT-65" x="672.412109"/>
     <use xlink:href="#Arial-BoldMT-65" x="728.027344"/>
     <use xlink:href="#Arial-BoldMT-6e" x="783.642578"/>
     <use xlink:href="#Arial-BoldMT-20" x="844.726562"/>
     <use xlink:href="#Arial-BoldMT-73" x="872.509766"/>
     <use xlink:href="#Arial-BoldMT-70" x="928.125"/>
     <use xlink:href="#Arial-BoldMT-65" x="989.208984"/>
     <use xlink:href="#Arial-BoldMT-63" x="1044.824219"/>
     <use xlink:href="#Arial-BoldMT-74" x="1100.439453"/>
     <use xlink:href="#Arial-BoldMT-72" x="1133.740234"/>
     <use xlink:href="#Arial-BoldMT-61" x="1172.65625"/>
     <use xlink:href="#Arial-BoldMT-3a" x="1228.271484"/>
     <use xlink:href="#Arial-BoldMT-20" x="1261.572266"/>
     <use xlink:href="#Arial-BoldMT-39" x="1289.355469"/>
     <use xlink:href="#Arial-BoldMT-2e" x="1344.970703"/>
     <use xlink:href="#Arial-BoldMT-34" x="1372.753906"/>
    </g>
   </g>
  </g>
  <g id="axes_2">
   <g id="matplotlib.axis_3"/>
   <g id="patch_7">
    <path d="M 3.00024 198.907885 
L 3.00024 20.50024 
" style="fill: none; stroke: #000000; stroke-width: 2; stroke-linejoin: miter; stroke-linecap: square"/>
   </g>
   <g id="patch_8">
    <path d="M 1184.99976 198.907885 
L 1184.99976 20.50024 
" style="fill: none; stroke: #000000; stroke-width: 2; stroke-linejoin: miter; stroke-linecap: square"/>
   </g>
   <g id="patch_9">
    <path d="M 3.00024 198.907885 
L 1184.99976 198.907885 
" style="fill: none; stroke: #000000; stroke-width: 2; stroke-linejoin: miter; stroke-linecap: square"/>
   </g>
   <g id="patch_10">
    <path d="M 3.00024 20.50024 
L 1184.99976 20.50024 
" style="fill: none; stroke: #000000; stroke-width: 2; stroke-linejoin: miter; stroke-linecap: square"/>
   </g>
  </g>
 </g>
 <defs>
  <clipPath id="p78b3318799">
   <rect x="3.00024" y="20.50024" width="1181.99952" height="178.407645"/>
  </clipPath>
 </defs>
</svg>
