<?xml version="1.0" encoding="utf-8" standalone="no"?>
<!DOCTYPE svg PUBLIC "-//W3C//DTD SVG 1.1//EN"
  "http://www.w3.org/Graphics/SVG/1.1/DTD/svg11.dtd">
<svg xmlns:xlink="http://www.w3.org/1999/xlink" width="1188pt" height="252pt" viewBox="0 0 1188 252" xmlns="http://www.w3.org/2000/svg" version="1.1">
 <metadata>
  <rdf:RDF xmlns:dc="http://purl.org/dc/elements/1.1/" xmlns:cc="http://creativecommons.org/ns#" xmlns:rdf="http://www.w3.org/1999/02/22-rdf-syntax-ns#">
   <cc:Work>
    <dc:type rdf:resource="http://purl.org/dc/dcmitype/StillImage"/>
    <dc:date>2024-05-14T23:27:14.081391</dc:date>
    <dc:format>image/svg+xml</dc:format>
    <dc:creator>
     <cc:Agent>
      <dc:title>Matplotlib v3.8.0, https://matplotlib.org/</dc:title>
     </cc:Agent>
    </dc:creator>
   </cc:Work>
  </rdf:RDF>
 </metadata>
 <defs>
  <style type="text/css">*{stroke-linejoin: round; stroke-linecap: butt}</style>
 </defs>
 <g id="figure_1">
  <g id="patch_1">
   <path d="M 0 252 
L 1188 252 
L 1188 0 
L 0 0 
z
" style="fill: #ffffff"/>
  </g>
  <g id="axes_1">
   <g id="patch_2">
    <path d="M 71.702428 199.12726 
L 1184.99976 199.12726 
L 1184.99976 3.00024 
L 71.702428 3.00024 
z
" style="fill: #ffffff"/>
   </g>
   <g id="PolyCollection_1">
    <path d="M 588.278135 180.322321 
L 588.278135 180.329888 
L 588.559329 180.329888 
L 588.840562 180.329888 
L 589.121756 180.329888 
L 589.40299 180.329888 
L 589.684183 180.329888 
L 589.965417 180.329888 
L 590.24661 180.329888 
L 590.527844 180.329888 
L 590.809037 180.329888 
L 591.090271 180.329888 
L 591.371464 180.329888 
L 591.652698 180.329888 
L 591.933891 180.329888 
L 592.215125 180.329888 
L 592.496318 180.329888 
L 592.777552 180.329888 
L 593.058745 180.329888 
L 593.339979 180.329888 
L 593.621172 180.329888 
L 593.902406 180.329888 
L 594.183599 180.329888 
L 594.464833 180.329888 
L 594.746026 180.329888 
L 595.02726 180.329888 
L 595.308454 180.329888 
L 595.589687 180.329888 
L 595.870881 180.329888 
L 596.152114 180.329888 
L 596.433308 180.329888 
L 596.714541 180.329888 
L 596.995735 180.329888 
L 597.276968 180.329888 
L 597.558162 180.329888 
L 597.839395 180.329888 
L 598.120589 180.329888 
L 598.401823 180.329888 
L 598.683016 180.329888 
L 598.96425 180.329888 
L 599.245443 180.329888 
L 599.526677 180.329888 
L 599.80787 180.329888 
L 600.089104 180.329888 
L 600.370297 180.329888 
L 600.651531 180.329888 
L 600.932724 180.329888 
L 601.213958 180.329888 
L 601.495151 180.329888 
L 601.776385 180.329888 
L 602.057578 180.329888 
L 602.338812 180.329888 
L 602.620005 180.329888 
L 602.901239 180.329888 
L 603.182432 180.329888 
L 603.463666 180.329888 
L 603.744859 180.329888 
L 604.026093 180.329888 
L 604.307287 180.329888 
L 604.58852 180.329888 
L 604.869714 180.329888 
L 605.150947 180.329888 
L 605.432141 180.329888 
L 605.713374 180.329888 
L 605.994568 180.329888 
L 606.275801 180.329888 
L 606.556995 180.329888 
L 606.838228 180.329888 
L 607.119422 180.329888 
L 607.400656 180.329888 
L 607.681889 180.329888 
L 607.963083 180.329888 
L 608.244316 180.329888 
L 608.52551 180.329888 
L 608.806743 180.329888 
L 609.087937 180.329888 
L 609.36917 180.329888 
L 609.650364 180.329888 
L 609.931597 180.329888 
L 610.212791 180.329888 
L 610.494024 180.329888 
L 610.775218 180.329888 
L 611.056452 180.329888 
L 611.337645 180.329888 
L 611.618879 180.329888 
L 611.900072 180.329888 
L 612.181306 180.329888 
L 612.462499 180.329888 
L 612.743733 180.329888 
L 613.024926 180.329888 
L 613.30616 180.329888 
L 613.587353 180.329888 
L 613.868587 180.329888 
L 614.14978 180.329888 
L 614.431014 180.329888 
L 614.712207 180.329888 
L 614.993441 180.329888 
L 615.274634 180.329888 
L 615.555868 180.329888 
L 615.837061 180.329888 
L 616.118295 180.329888 
L 616.399489 180.329888 
L 616.680722 180.329888 
L 616.961916 180.329888 
L 617.243149 180.329888 
L 617.524343 180.329888 
L 617.805576 180.329888 
L 618.08677 180.329888 
L 618.368003 180.329888 
L 618.649197 180.329888 
L 618.93043 180.329888 
L 619.211624 180.329888 
L 619.492857 180.329888 
L 619.774051 180.329888 
L 620.055285 180.329888 
L 620.336478 180.329888 
L 620.617712 180.329888 
L 620.898905 180.329888 
L 621.180139 180.329888 
L 621.461332 180.329888 
L 621.742566 180.329888 
L 622.023759 180.329888 
L 622.304993 180.329888 
L 622.586186 180.329888 
L 622.86742 180.329888 
L 623.148613 180.329888 
L 623.148613 180.166574 
L 623.148613 180.166574 
L 622.86742 180.026524 
L 622.586186 179.869187 
L 622.304993 179.693276 
L 622.023759 179.497455 
L 621.742566 179.278967 
L 621.461332 179.038528 
L 621.180139 178.773599 
L 620.898905 178.482687 
L 620.617712 178.163972 
L 620.336478 177.81682 
L 620.055285 177.436501 
L 619.774051 177.02099 
L 619.492857 176.571111 
L 619.211624 176.083058 
L 618.93043 175.557945 
L 618.649197 174.994163 
L 618.368003 174.395482 
L 618.08677 173.758134 
L 617.805576 173.086002 
L 617.524343 172.375203 
L 617.243149 171.627875 
L 616.961916 170.845472 
L 616.680722 170.03042 
L 616.399489 169.184505 
L 616.118295 168.316098 
L 615.837061 167.432786 
L 615.555868 166.53746 
L 615.274634 165.64025 
L 614.993441 164.747001 
L 614.712207 163.866366 
L 614.431014 163.009623 
L 614.14978 162.187172 
L 613.868587 161.410992 
L 613.587353 160.697403 
L 613.30616 160.058299 
L 613.024926 159.499208 
L 612.743733 159.03584 
L 612.462499 158.673534 
L 612.181306 158.416675 
L 611.900072 158.268333 
L 611.618879 158.234655 
L 611.337645 158.310214 
L 611.056452 158.498522 
L 610.775218 158.801293 
L 610.494024 159.218569 
L 610.212791 159.753035 
L 609.931597 160.411122 
L 609.650364 161.19181 
L 609.36917 162.093997 
L 609.087937 163.115932 
L 608.806743 164.24897 
L 608.52551 165.477025 
L 608.244316 166.782633 
L 607.963083 168.138391 
L 607.681889 169.518229 
L 607.400656 170.888636 
L 607.119422 172.221761 
L 606.838228 173.486305 
L 606.556995 174.661095 
L 606.275801 175.719693 
L 605.994568 176.651933 
L 605.713374 177.446218 
L 605.432141 178.100749 
L 605.150947 178.619065 
L 604.869714 179.015163 
L 604.58852 179.298653 
L 604.307287 179.486373 
L 604.026093 179.596439 
L 603.744859 179.642861 
L 603.463666 179.63659 
L 603.182432 179.58793 
L 602.901239 179.506175 
L 602.620005 179.396716 
L 602.338812 179.263575 
L 602.057578 179.11026 
L 601.776385 178.94131 
L 601.495151 178.757583 
L 601.213958 178.560008 
L 600.932724 178.353672 
L 600.651531 178.140477 
L 600.370297 177.921275 
L 600.089104 177.699899 
L 599.80787 177.481699 
L 599.526677 177.264019 
L 599.245443 177.053729 
L 598.96425 176.854468 
L 598.683016 176.667095 
L 598.401823 176.492478 
L 598.120589 176.338883 
L 597.839395 176.205458 
L 597.558162 176.095973 
L 597.276968 176.015948 
L 596.995735 175.969035 
L 596.714541 175.956017 
L 596.433308 175.981207 
L 596.152114 176.047147 
L 595.870881 176.155329 
L 595.589687 176.306899 
L 595.308454 176.500776 
L 595.02726 176.733118 
L 594.746026 176.998701 
L 594.464833 177.288691 
L 594.183599 177.592747 
L 593.902406 177.899936 
L 593.621172 178.199496 
L 593.339979 178.479257 
L 593.058745 178.731073 
L 592.777552 178.949472 
L 592.496318 179.131793 
L 592.215125 179.278287 
L 591.933891 179.394603 
L 591.652698 179.486318 
L 591.371464 179.560749 
L 591.090271 179.622709 
L 590.809037 179.67975 
L 590.527844 179.734372 
L 590.24661 179.790627 
L 589.965417 179.84882 
L 589.684183 179.913797 
L 589.40299 179.984859 
L 589.121756 180.062844 
L 588.840562 180.145339 
L 588.559329 180.233157 
L 588.278135 180.322321 
z
" clip-path="url(#p76c62fe8f3)" style="fill: #d55e00"/>
   </g>
   <g id="PolyCollection_2">
    <path d="M 823.935276 174.630465 
L 823.935276 173.240574 
L 824.216469 173.240574 
L 824.497743 173.240574 
L 824.778936 173.240574 
L 825.06013 173.240574 
L 825.341323 173.240574 
L 825.622597 173.240574 
L 825.90379 173.240574 
L 826.184984 173.240574 
L 826.466177 173.240574 
L 826.747451 173.240574 
L 827.028645 173.240574 
L 827.309838 173.240574 
L 827.591031 173.240574 
L 827.872305 173.240574 
L 828.153499 173.240574 
L 828.434692 173.240574 
L 828.715886 173.240574 
L 828.997159 173.240574 
L 829.278353 173.240574 
L 829.559546 173.240574 
L 829.84074 173.240574 
L 830.122014 173.240574 
L 830.403207 173.240574 
L 830.6844 173.240574 
L 830.965594 173.240574 
L 831.246868 173.240574 
L 831.528061 173.240574 
L 831.809254 173.240574 
L 832.090448 173.240574 
L 832.371722 173.240574 
L 832.652915 173.240574 
L 832.934109 173.240574 
L 833.215302 173.240574 
L 833.496576 173.240574 
L 833.777769 173.240574 
L 834.058963 173.240574 
L 834.340156 173.240574 
L 834.62143 173.240574 
L 834.902623 173.240574 
L 835.183817 173.240574 
L 835.46501 173.240574 
L 835.746284 173.240574 
L 836.027478 173.240574 
L 836.308671 173.240574 
L 836.589864 173.240574 
L 836.871138 173.240574 
L 837.152332 173.240574 
L 837.433525 173.240574 
L 837.714719 173.240574 
L 837.995992 173.240574 
L 838.277186 173.240574 
L 838.558379 173.240574 
L 838.839573 173.240574 
L 839.120847 173.240574 
L 839.40204 173.240574 
L 839.683233 173.240574 
L 839.964507 173.240574 
L 840.245701 173.240574 
L 840.526894 173.240574 
L 840.808087 173.240574 
L 841.089361 173.240574 
L 841.370555 173.240574 
L 841.651748 173.240574 
L 841.932942 173.240574 
L 842.214215 173.240574 
L 842.495409 173.240574 
L 842.776602 173.240574 
L 843.057796 173.240574 
L 843.33907 173.240574 
L 843.620263 173.240574 
L 843.901456 173.240574 
L 844.18265 173.240574 
L 844.463924 173.240574 
L 844.745117 173.240574 
L 845.026311 173.240574 
L 845.307504 173.240574 
L 845.588778 173.240574 
L 845.869971 173.240574 
L 846.151165 173.240574 
L 846.432358 173.240574 
L 846.713632 173.240574 
L 846.994825 173.240574 
L 847.276019 173.240574 
L 847.557212 173.240574 
L 847.838486 173.240574 
L 848.11968 173.240574 
L 848.400873 173.240574 
L 848.682066 173.240574 
L 848.96334 173.240574 
L 849.244534 173.240574 
L 849.525727 173.240574 
L 849.80692 173.240574 
L 850.088194 173.240574 
L 850.369388 173.240574 
L 850.650581 173.240574 
L 850.931775 173.240574 
L 851.213048 173.240574 
L 851.213048 172.9223 
L 851.213048 172.9223 
L 850.931775 172.586532 
L 850.650581 172.232833 
L 850.369388 171.861017 
L 850.088194 171.469617 
L 849.80692 171.058425 
L 849.525727 170.627568 
L 849.244534 170.174684 
L 848.96334 169.697964 
L 848.682066 169.197922 
L 848.400873 168.672856 
L 848.11968 168.119014 
L 847.838486 167.536842 
L 847.557212 166.924031 
L 847.276019 166.277822 
L 846.994825 165.596438 
L 846.713632 164.882269 
L 846.432358 164.133221 
L 846.151165 163.346025 
L 845.869971 162.521307 
L 845.588778 161.658254 
L 845.307504 160.752434 
L 845.026311 159.79829 
L 844.745117 158.798628 
L 844.463924 157.744707 
L 844.18265 156.628523 
L 843.901456 155.446053 
L 843.620263 154.19218 
L 843.33907 152.852678 
L 843.057796 151.424265 
L 842.776602 149.901777 
L 842.495409 148.271705 
L 842.214215 146.525415 
L 841.932942 144.657492 
L 841.651748 142.653753 
L 841.370555 140.498689 
L 841.089361 138.178723 
L 840.808087 135.673699 
L 840.526894 132.952882 
L 840.245701 129.982544 
L 839.964507 126.730267 
L 839.683233 123.155323 
L 839.40204 119.222174 
L 839.120847 114.898639 
L 838.839573 110.168228 
L 838.558379 104.996961 
L 838.277186 99.383698 
L 837.995992 93.325403 
L 837.714719 86.851402 
L 837.433525 80.013797 
L 837.152332 72.930549 
L 836.871138 65.739984 
L 836.589864 58.597128 
L 836.308671 51.677673 
L 836.027478 45.16425 
L 835.746284 39.208867 
L 835.46501 33.905319 
L 835.183817 29.315575 
L 834.902623 25.501453 
L 834.62143 22.40576 
L 834.340156 19.920072 
L 834.058963 17.972381 
L 833.777769 16.541383 
L 833.496576 15.446888 
L 833.215302 14.63028 
L 832.934109 14.043857 
L 832.652915 13.662106 
L 832.371722 13.31347 
L 832.090448 13.023985 
L 831.809254 12.760886 
L 831.528061 12.569622 
L 831.246868 12.324233 
L 830.965594 12.152315 
L 830.6844 12.026919 
L 830.403207 11.974176 
L 830.122014 11.915105 
L 829.84074 11.966601 
L 829.559546 12.089838 
L 829.278353 12.294858 
L 828.997159 12.596033 
L 828.715886 13.060144 
L 828.434692 13.765286 
L 828.153499 14.881085 
L 827.872305 16.834326 
L 827.591031 20.156277 
L 827.309838 25.646396 
L 827.028645 34.001729 
L 826.747451 45.670459 
L 826.466177 60.528945 
L 826.184984 77.928959 
L 825.90379 96.558759 
L 825.622597 114.92365 
L 825.341323 131.664377 
L 825.06013 145.829879 
L 824.778936 156.974806 
L 824.497743 165.186935 
L 824.216469 170.88797 
L 823.935276 174.630465 
z
" clip-path="url(#p76c62fe8f3)" style="fill: #0072b2"/>
   </g>
   <g id="matplotlib.axis_1">
    <g id="xtick_1">
     <g id="line2d_1">
      <defs>
       <path id="mdb64c8e801" d="M 0 0 
L 0 8 
" style="stroke: #000000; stroke-width: 2"/>
      </defs>
      <g>
       <use xlink:href="#mdb64c8e801" x="122.306852" y="199.12726" style="stroke: #000000; stroke-width: 2"/>
      </g>
     </g>
     <g id="text_1">
      <!-- 0.0 -->
      <g transform="translate(109.796852 225.011323) scale(0.18 -0.18)">
       <defs>
        <path id="Arial-BoldMT-30" d="M 1756 4600 
Q 2422 4600 2797 4125 
Q 3244 3563 3244 2259 
Q 3244 959 2794 391 
Q 2422 -78 1756 -78 
Q 1088 -78 678 436 
Q 269 950 269 2269 
Q 269 3563 719 4131 
Q 1091 4600 1756 4600 
z
M 1756 3872 
Q 1597 3872 1472 3770 
Q 1347 3669 1278 3406 
Q 1188 3066 1188 2259 
Q 1188 1453 1269 1151 
Q 1350 850 1473 750 
Q 1597 650 1756 650 
Q 1916 650 2041 751 
Q 2166 853 2234 1116 
Q 2325 1453 2325 2259 
Q 2325 3066 2244 3367 
Q 2163 3669 2039 3770 
Q 1916 3872 1756 3872 
z
" transform="scale(0.015625)"/>
        <path id="Arial-BoldMT-2e" d="M 459 0 
L 459 878 
L 1338 878 
L 1338 0 
L 459 0 
z
" transform="scale(0.015625)"/>
       </defs>
       <use xlink:href="#Arial-BoldMT-30"/>
       <use xlink:href="#Arial-BoldMT-2e" x="55.615234"/>
       <use xlink:href="#Arial-BoldMT-30" x="83.398438"/>
      </g>
     </g>
    </g>
    <g id="xtick_2">
     <g id="line2d_2">
      <g>
       <use xlink:href="#mdb64c8e801" x="291.035131" y="199.12726" style="stroke: #000000; stroke-width: 2"/>
      </g>
     </g>
     <g id="text_2">
      <!-- 0.5 -->
      <g transform="translate(278.525131 225.011323) scale(0.18 -0.18)">
       <defs>
        <path id="Arial-BoldMT-35" d="M 284 1178 
L 1159 1269 
Q 1197 972 1381 798 
Q 1566 625 1806 625 
Q 2081 625 2272 848 
Q 2463 1072 2463 1522 
Q 2463 1944 2273 2155 
Q 2084 2366 1781 2366 
Q 1403 2366 1103 2031 
L 391 2134 
L 841 4519 
L 3163 4519 
L 3163 3697 
L 1506 3697 
L 1369 2919 
Q 1663 3066 1969 3066 
Q 2553 3066 2959 2641 
Q 3366 2216 3366 1538 
Q 3366 972 3038 528 
Q 2591 -78 1797 -78 
Q 1163 -78 763 262 
Q 363 603 284 1178 
z
" transform="scale(0.015625)"/>
       </defs>
       <use xlink:href="#Arial-BoldMT-30"/>
       <use xlink:href="#Arial-BoldMT-2e" x="55.615234"/>
       <use xlink:href="#Arial-BoldMT-35" x="83.398438"/>
      </g>
     </g>
    </g>
    <g id="xtick_3">
     <g id="line2d_3">
      <g>
       <use xlink:href="#mdb64c8e801" x="459.763411" y="199.12726" style="stroke: #000000; stroke-width: 2"/>
      </g>
     </g>
     <g id="text_3">
      <!-- 1.0 -->
      <g transform="translate(447.253411 225.011323) scale(0.18 -0.18)">
       <defs>
        <path id="Arial-BoldMT-31" d="M 2519 0 
L 1641 0 
L 1641 3309 
Q 1159 2859 506 2644 
L 506 3441 
Q 850 3553 1253 3867 
Q 1656 4181 1806 4600 
L 2519 4600 
L 2519 0 
z
" transform="scale(0.015625)"/>
       </defs>
       <use xlink:href="#Arial-BoldMT-31"/>
       <use xlink:href="#Arial-BoldMT-2e" x="55.615234"/>
       <use xlink:href="#Arial-BoldMT-30" x="83.398438"/>
      </g>
     </g>
    </g>
    <g id="xtick_4">
     <g id="line2d_4">
      <g>
       <use xlink:href="#mdb64c8e801" x="628.49169" y="199.12726" style="stroke: #000000; stroke-width: 2"/>
      </g>
     </g>
     <g id="text_4">
      <!-- 1.5 -->
      <g transform="translate(615.98169 225.011323) scale(0.18 -0.18)">
       <use xlink:href="#Arial-BoldMT-31"/>
       <use xlink:href="#Arial-BoldMT-2e" x="55.615234"/>
       <use xlink:href="#Arial-BoldMT-35" x="83.398438"/>
      </g>
     </g>
    </g>
    <g id="xtick_5">
     <g id="line2d_5">
      <g>
       <use xlink:href="#mdb64c8e801" x="797.21997" y="199.12726" style="stroke: #000000; stroke-width: 2"/>
      </g>
     </g>
     <g id="text_5">
      <!-- 2.0 -->
      <g transform="translate(784.70997 225.011323) scale(0.18 -0.18)">
       <defs>
        <path id="Arial-BoldMT-32" d="M 3238 816 
L 3238 0 
L 159 0 
Q 209 463 459 877 
Q 709 1291 1447 1975 
Q 2041 2528 2175 2725 
Q 2356 2997 2356 3263 
Q 2356 3556 2198 3714 
Q 2041 3872 1763 3872 
Q 1488 3872 1325 3706 
Q 1163 3541 1138 3156 
L 263 3244 
Q 341 3969 753 4284 
Q 1166 4600 1784 4600 
Q 2463 4600 2850 4234 
Q 3238 3869 3238 3325 
Q 3238 3016 3127 2736 
Q 3016 2456 2775 2150 
Q 2616 1947 2200 1565 
Q 1784 1184 1673 1059 
Q 1563 934 1494 816 
L 3238 816 
z
" transform="scale(0.015625)"/>
       </defs>
       <use xlink:href="#Arial-BoldMT-32"/>
       <use xlink:href="#Arial-BoldMT-2e" x="55.615234"/>
       <use xlink:href="#Arial-BoldMT-30" x="83.398438"/>
      </g>
     </g>
    </g>
    <g id="xtick_6">
     <g id="line2d_6">
      <g>
       <use xlink:href="#mdb64c8e801" x="965.94825" y="199.12726" style="stroke: #000000; stroke-width: 2"/>
      </g>
     </g>
     <g id="text_6">
      <!-- 2.5 -->
      <g transform="translate(953.43825 225.011323) scale(0.18 -0.18)">
       <use xlink:href="#Arial-BoldMT-32"/>
       <use xlink:href="#Arial-BoldMT-2e" x="55.615234"/>
       <use xlink:href="#Arial-BoldMT-35" x="83.398438"/>
      </g>
     </g>
    </g>
    <g id="xtick_7">
     <g id="line2d_7">
      <g>
       <use xlink:href="#mdb64c8e801" x="1134.676529" y="199.12726" style="stroke: #000000; stroke-width: 2"/>
      </g>
     </g>
     <g id="text_7">
      <!-- 3.0 -->
      <g transform="translate(1122.166529 225.011323) scale(0.18 -0.18)">
       <defs>
        <path id="Arial-BoldMT-33" d="M 241 1216 
L 1091 1319 
Q 1131 994 1309 822 
Q 1488 650 1741 650 
Q 2013 650 2198 856 
Q 2384 1063 2384 1413 
Q 2384 1744 2206 1937 
Q 2028 2131 1772 2131 
Q 1603 2131 1369 2066 
L 1466 2781 
Q 1822 2772 2009 2936 
Q 2197 3100 2197 3372 
Q 2197 3603 2059 3740 
Q 1922 3878 1694 3878 
Q 1469 3878 1309 3722 
Q 1150 3566 1116 3266 
L 306 3403 
Q 391 3819 561 4067 
Q 731 4316 1036 4458 
Q 1341 4600 1719 4600 
Q 2366 4600 2756 4188 
Q 3078 3850 3078 3425 
Q 3078 2822 2419 2463 
Q 2813 2378 3048 2084 
Q 3284 1791 3284 1375 
Q 3284 772 2843 347 
Q 2403 -78 1747 -78 
Q 1125 -78 715 280 
Q 306 638 241 1216 
z
" transform="scale(0.015625)"/>
       </defs>
       <use xlink:href="#Arial-BoldMT-33"/>
       <use xlink:href="#Arial-BoldMT-2e" x="55.615234"/>
       <use xlink:href="#Arial-BoldMT-30" x="83.398438"/>
      </g>
     </g>
    </g>
    <g id="text_8">
     <!-- Retention time / min -->
     <g transform="translate(542.350469 245.447573) scale(0.18 -0.18)">
      <defs>
       <path id="Arial-BoldMT-52" d="M 469 0 
L 469 4581 
L 2416 4581 
Q 3150 4581 3483 4457 
Q 3816 4334 4016 4018 
Q 4216 3703 4216 3297 
Q 4216 2781 3912 2445 
Q 3609 2109 3006 2022 
Q 3306 1847 3501 1637 
Q 3697 1428 4028 894 
L 4588 0 
L 3481 0 
L 2813 997 
Q 2456 1531 2325 1670 
Q 2194 1809 2047 1861 
Q 1900 1913 1581 1913 
L 1394 1913 
L 1394 0 
L 469 0 
z
M 1394 2644 
L 2078 2644 
Q 2744 2644 2909 2700 
Q 3075 2756 3169 2893 
Q 3263 3031 3263 3238 
Q 3263 3469 3139 3611 
Q 3016 3753 2791 3791 
Q 2678 3806 2116 3806 
L 1394 3806 
L 1394 2644 
z
" transform="scale(0.015625)"/>
       <path id="Arial-BoldMT-65" d="M 2381 1056 
L 3256 909 
Q 3088 428 2723 176 
Q 2359 -75 1813 -75 
Q 947 -75 531 491 
Q 203 944 203 1634 
Q 203 2459 634 2926 
Q 1066 3394 1725 3394 
Q 2466 3394 2894 2905 
Q 3322 2416 3303 1406 
L 1103 1406 
Q 1113 1016 1316 798 
Q 1519 581 1822 581 
Q 2028 581 2168 693 
Q 2309 806 2381 1056 
z
M 2431 1944 
Q 2422 2325 2234 2523 
Q 2047 2722 1778 2722 
Q 1491 2722 1303 2513 
Q 1116 2303 1119 1944 
L 2431 1944 
z
" transform="scale(0.015625)"/>
       <path id="Arial-BoldMT-74" d="M 1981 3319 
L 1981 2619 
L 1381 2619 
L 1381 1281 
Q 1381 875 1398 808 
Q 1416 741 1477 697 
Q 1538 653 1625 653 
Q 1747 653 1978 738 
L 2053 56 
Q 1747 -75 1359 -75 
Q 1122 -75 931 4 
Q 741 84 652 211 
Q 563 338 528 553 
Q 500 706 500 1172 
L 500 2619 
L 97 2619 
L 97 3319 
L 500 3319 
L 500 3978 
L 1381 4491 
L 1381 3319 
L 1981 3319 
z
" transform="scale(0.015625)"/>
       <path id="Arial-BoldMT-6e" d="M 3478 0 
L 2600 0 
L 2600 1694 
Q 2600 2231 2544 2389 
Q 2488 2547 2361 2634 
Q 2234 2722 2056 2722 
Q 1828 2722 1647 2597 
Q 1466 2472 1398 2265 
Q 1331 2059 1331 1503 
L 1331 0 
L 453 0 
L 453 3319 
L 1269 3319 
L 1269 2831 
Q 1703 3394 2363 3394 
Q 2653 3394 2893 3289 
Q 3134 3184 3257 3021 
Q 3381 2859 3429 2653 
Q 3478 2447 3478 2063 
L 3478 0 
z
" transform="scale(0.015625)"/>
       <path id="Arial-BoldMT-69" d="M 459 3769 
L 459 4581 
L 1338 4581 
L 1338 3769 
L 459 3769 
z
M 459 0 
L 459 3319 
L 1338 3319 
L 1338 0 
L 459 0 
z
" transform="scale(0.015625)"/>
       <path id="Arial-BoldMT-6f" d="M 256 1706 
Q 256 2144 472 2553 
Q 688 2963 1083 3178 
Q 1478 3394 1966 3394 
Q 2719 3394 3200 2905 
Q 3681 2416 3681 1669 
Q 3681 916 3195 420 
Q 2709 -75 1972 -75 
Q 1516 -75 1102 131 
Q 688 338 472 736 
Q 256 1134 256 1706 
z
M 1156 1659 
Q 1156 1166 1390 903 
Q 1625 641 1969 641 
Q 2313 641 2545 903 
Q 2778 1166 2778 1666 
Q 2778 2153 2545 2415 
Q 2313 2678 1969 2678 
Q 1625 2678 1390 2415 
Q 1156 2153 1156 1659 
z
" transform="scale(0.015625)"/>
       <path id="Arial-BoldMT-20" transform="scale(0.015625)"/>
       <path id="Arial-BoldMT-6d" d="M 394 3319 
L 1203 3319 
L 1203 2866 
Q 1638 3394 2238 3394 
Q 2556 3394 2790 3262 
Q 3025 3131 3175 2866 
Q 3394 3131 3647 3262 
Q 3900 3394 4188 3394 
Q 4553 3394 4806 3245 
Q 5059 3097 5184 2809 
Q 5275 2597 5275 2122 
L 5275 0 
L 4397 0 
L 4397 1897 
Q 4397 2391 4306 2534 
Q 4184 2722 3931 2722 
Q 3747 2722 3584 2609 
Q 3422 2497 3350 2280 
Q 3278 2063 3278 1594 
L 3278 0 
L 2400 0 
L 2400 1819 
Q 2400 2303 2353 2443 
Q 2306 2584 2207 2653 
Q 2109 2722 1941 2722 
Q 1738 2722 1575 2612 
Q 1413 2503 1342 2297 
Q 1272 2091 1272 1613 
L 1272 0 
L 394 0 
L 394 3319 
z
" transform="scale(0.015625)"/>
       <path id="Arial-BoldMT-2f" d="M -9 -78 
L 1125 4659 
L 1784 4659 
L 638 -78 
L -9 -78 
z
" transform="scale(0.015625)"/>
      </defs>
      <use xlink:href="#Arial-BoldMT-52"/>
      <use xlink:href="#Arial-BoldMT-65" x="72.216797"/>
      <use xlink:href="#Arial-BoldMT-74" x="127.832031"/>
      <use xlink:href="#Arial-BoldMT-65" x="161.132812"/>
      <use xlink:href="#Arial-BoldMT-6e" x="216.748047"/>
      <use xlink:href="#Arial-BoldMT-74" x="277.832031"/>
      <use xlink:href="#Arial-BoldMT-69" x="311.132812"/>
      <use xlink:href="#Arial-BoldMT-6f" x="338.916016"/>
      <use xlink:href="#Arial-BoldMT-6e" x="400"/>
      <use xlink:href="#Arial-BoldMT-20" x="461.083984"/>
      <use xlink:href="#Arial-BoldMT-74" x="488.867188"/>
      <use xlink:href="#Arial-BoldMT-69" x="522.167969"/>
      <use xlink:href="#Arial-BoldMT-6d" x="549.951172"/>
      <use xlink:href="#Arial-BoldMT-65" x="638.867188"/>
      <use xlink:href="#Arial-BoldMT-20" x="694.482422"/>
      <use xlink:href="#Arial-BoldMT-2f" x="722.265625"/>
      <use xlink:href="#Arial-BoldMT-20" x="750.048828"/>
      <use xlink:href="#Arial-BoldMT-6d" x="777.832031"/>
      <use xlink:href="#Arial-BoldMT-69" x="866.748047"/>
      <use xlink:href="#Arial-BoldMT-6e" x="894.53125"/>
     </g>
    </g>
   </g>
   <g id="matplotlib.axis_2">
    <g id="ytick_1">
     <g id="line2d_8">
      <defs>
       <path id="mc50bd1f3aa" d="M 0 0 
L -8 0 
" style="stroke: #000000; stroke-width: 2"/>
      </defs>
      <g>
       <use xlink:href="#mc50bd1f3aa" x="71.702428" y="180.253827" style="stroke: #000000; stroke-width: 2"/>
      </g>
     </g>
     <g id="text_9">
      <!-- 0.00 -->
      <g transform="translate(23.67274 186.695859) scale(0.18 -0.18)">
       <use xlink:href="#Arial-BoldMT-30"/>
       <use xlink:href="#Arial-BoldMT-2e" x="55.615234"/>
       <use xlink:href="#Arial-BoldMT-30" x="83.398438"/>
       <use xlink:href="#Arial-BoldMT-30" x="139.013672"/>
      </g>
     </g>
    </g>
    <g id="ytick_2">
     <g id="line2d_9">
      <g>
       <use xlink:href="#mc50bd1f3aa" x="71.702428" y="138.169147" style="stroke: #000000; stroke-width: 2"/>
      </g>
     </g>
     <g id="text_10">
      <!-- 0.25 -->
      <g transform="translate(23.67274 144.611178) scale(0.18 -0.18)">
       <use xlink:href="#Arial-BoldMT-30"/>
       <use xlink:href="#Arial-BoldMT-2e" x="55.615234"/>
       <use xlink:href="#Arial-BoldMT-32" x="83.398438"/>
       <use xlink:href="#Arial-BoldMT-35" x="139.013672"/>
      </g>
     </g>
    </g>
    <g id="ytick_3">
     <g id="line2d_10">
      <g>
       <use xlink:href="#mc50bd1f3aa" x="71.702428" y="96.084466" style="stroke: #000000; stroke-width: 2"/>
      </g>
     </g>
     <g id="text_11">
      <!-- 0.50 -->
      <g transform="translate(23.67274 102.526497) scale(0.18 -0.18)">
       <use xlink:href="#Arial-BoldMT-30"/>
       <use xlink:href="#Arial-BoldMT-2e" x="55.615234"/>
       <use xlink:href="#Arial-BoldMT-35" x="83.398438"/>
       <use xlink:href="#Arial-BoldMT-30" x="139.013672"/>
      </g>
     </g>
    </g>
    <g id="ytick_4">
     <g id="line2d_11">
      <g>
       <use xlink:href="#mc50bd1f3aa" x="71.702428" y="53.999785" style="stroke: #000000; stroke-width: 2"/>
      </g>
     </g>
     <g id="text_12">
      <!-- 0.75 -->
      <g transform="translate(23.67274 60.441816) scale(0.18 -0.18)">
       <defs>
        <path id="Arial-BoldMT-37" d="M 272 3703 
L 272 4519 
L 3275 4519 
L 3275 3881 
Q 2903 3516 2518 2831 
Q 2134 2147 1932 1376 
Q 1731 606 1734 0 
L 888 0 
Q 909 950 1279 1937 
Q 1650 2925 2269 3703 
L 272 3703 
z
" transform="scale(0.015625)"/>
       </defs>
       <use xlink:href="#Arial-BoldMT-30"/>
       <use xlink:href="#Arial-BoldMT-2e" x="55.615234"/>
       <use xlink:href="#Arial-BoldMT-37" x="83.398438"/>
       <use xlink:href="#Arial-BoldMT-35" x="139.013672"/>
      </g>
     </g>
    </g>
    <g id="ytick_5">
     <g id="line2d_12">
      <g>
       <use xlink:href="#mc50bd1f3aa" x="71.702428" y="11.915105" style="stroke: #000000; stroke-width: 2"/>
      </g>
     </g>
     <g id="text_13">
      <!-- 1.00 -->
      <g transform="translate(23.67274 18.357136) scale(0.18 -0.18)">
       <use xlink:href="#Arial-BoldMT-31"/>
       <use xlink:href="#Arial-BoldMT-2e" x="55.615234"/>
       <use xlink:href="#Arial-BoldMT-30" x="83.398438"/>
       <use xlink:href="#Arial-BoldMT-30" x="139.013672"/>
      </g>
     </g>
    </g>
    <g id="text_14">
     <!-- Rel. Intensity -->
     <g transform="translate(15.884303 157.071875) rotate(-90) scale(0.18 -0.18)">
      <defs>
       <path id="Arial-BoldMT-6c" d="M 459 0 
L 459 4581 
L 1338 4581 
L 1338 0 
L 459 0 
z
" transform="scale(0.015625)"/>
       <path id="Arial-BoldMT-49" d="M 438 0 
L 438 4581 
L 1363 4581 
L 1363 0 
L 438 0 
z
" transform="scale(0.015625)"/>
       <path id="Arial-BoldMT-73" d="M 150 947 
L 1031 1081 
Q 1088 825 1259 692 
Q 1431 559 1741 559 
Q 2081 559 2253 684 
Q 2369 772 2369 919 
Q 2369 1019 2306 1084 
Q 2241 1147 2013 1200 
Q 950 1434 666 1628 
Q 272 1897 272 2375 
Q 272 2806 612 3100 
Q 953 3394 1669 3394 
Q 2350 3394 2681 3172 
Q 3013 2950 3138 2516 
L 2309 2363 
Q 2256 2556 2107 2659 
Q 1959 2763 1684 2763 
Q 1338 2763 1188 2666 
Q 1088 2597 1088 2488 
Q 1088 2394 1175 2328 
Q 1294 2241 1995 2081 
Q 2697 1922 2975 1691 
Q 3250 1456 3250 1038 
Q 3250 581 2869 253 
Q 2488 -75 1741 -75 
Q 1063 -75 667 200 
Q 272 475 150 947 
z
" transform="scale(0.015625)"/>
       <path id="Arial-BoldMT-79" d="M 44 3319 
L 978 3319 
L 1772 963 
L 2547 3319 
L 3456 3319 
L 2284 125 
L 2075 -453 
Q 1959 -744 1854 -897 
Q 1750 -1050 1614 -1145 
Q 1478 -1241 1279 -1294 
Q 1081 -1347 831 -1347 
Q 578 -1347 334 -1294 
L 256 -606 
Q 463 -647 628 -647 
Q 934 -647 1081 -467 
Q 1228 -288 1306 -9 
L 44 3319 
z
" transform="scale(0.015625)"/>
      </defs>
      <use xlink:href="#Arial-BoldMT-52"/>
      <use xlink:href="#Arial-BoldMT-65" x="72.216797"/>
      <use xlink:href="#Arial-BoldMT-6c" x="127.832031"/>
      <use xlink:href="#Arial-BoldMT-2e" x="155.615234"/>
      <use xlink:href="#Arial-BoldMT-20" x="183.398438"/>
      <use xlink:href="#Arial-BoldMT-49" x="211.181641"/>
      <use xlink:href="#Arial-BoldMT-6e" x="238.964844"/>
      <use xlink:href="#Arial-BoldMT-74" x="300.048828"/>
      <use xlink:href="#Arial-BoldMT-65" x="333.349609"/>
      <use xlink:href="#Arial-BoldMT-6e" x="388.964844"/>
      <use xlink:href="#Arial-BoldMT-73" x="450.048828"/>
      <use xlink:href="#Arial-BoldMT-69" x="505.664062"/>
      <use xlink:href="#Arial-BoldMT-74" x="533.447266"/>
      <use xlink:href="#Arial-BoldMT-79" x="566.748047"/>
     </g>
    </g>
   </g>
   <g id="line2d_13">
    <path d="M 122.306852 148.294568 
L 125.400203 148.462671 
L 128.774769 148.888757 
L 132.149335 149.539979 
L 135.5239 150.436064 
L 138.617252 151.479377 
L 142.273031 152.973492 
L 145.928811 154.708526 
L 149.865803 156.826456 
L 153.802797 159.185776 
L 158.021005 161.971189 
L 163.082851 165.587017 
L 168.988343 170.069783 
L 176.018686 175.741331 
L 190.079378 187.227164 
L 193.45394 189.608697 
L 194.297586 190.062789 
L 194.860013 190.210149 
L 195.42244 190.159771 
L 195.984867 189.885097 
L 197.672148 188.676983 
L 198.234576 188.657825 
L 198.797008 188.90106 
L 199.921862 189.498453 
L 200.484289 189.503068 
L 201.327929 189.145866 
L 202.17157 188.853973 
L 203.015211 188.926916 
L 203.577638 188.880299 
L 203.858851 188.671818 
L 204.14007 188.255088 
L 204.421283 187.573684 
L 204.98371 185.281176 
L 205.546137 181.814372 
L 207.233419 169.083092 
L 207.514632 164.125046 
L 207.795846 155.229861 
L 208.358273 124.018621 
L 209.201913 65.617109 
L 209.76434 44.94538 
L 210.045554 40.797705 
L 210.326767 39.135691 
L 210.889194 37.790418 
L 211.451622 37.109221 
L 212.014059 36.823826 
L 212.857699 36.82164 
L 213.70134 37.013548 
L 215.388621 37.676619 
L 216.794689 38.321322 
L 220.731678 40.784352 
L 223.26261 41.928145 
L 224.668678 42.634091 
L 226.918386 43.608527 
L 228.324454 44.508633 
L 230.574162 46.231918 
L 237.60451 52.936753 
L 239.010578 54.185295 
L 239.854218 55.130717 
L 240.697859 56.310562 
L 241.260286 57.294717 
L 242.103927 59.387968 
L 242.947567 62.304986 
L 243.791218 66.231928 
L 244.916072 73.025404 
L 246.32214 83.569781 
L 251.94641 128.017012 
L 253.352478 136.596219 
L 254.758556 143.904678 
L 256.164623 150.16546 
L 257.570691 155.476277 
L 258.976759 159.981631 
L 260.382826 163.785466 
L 262.070107 167.621974 
L 263.476175 170.276648 
L 264.882253 172.536712 
L 266.569534 174.818515 
L 268.256815 176.716092 
L 269.944096 178.266455 
L 271.631378 179.526286 
L 273.599872 180.699359 
L 275.287163 181.473462 
L 277.255658 182.134762 
L 279.505366 182.650727 
L 282.317502 183.046867 
L 286.254501 183.298061 
L 290.191491 183.337863 
L 294.409694 183.15981 
L 299.190324 182.704642 
L 313.813447 181.290028 
L 321.406213 180.815335 
L 327.874144 180.660508 
L 333.498415 180.735512 
L 359.932507 181.622119 
L 367.525292 181.489854 
L 376.524125 181.091679 
L 386.647832 180.689641 
L 399.583655 180.250843 
L 415.612846 180.096443 
L 428.829902 179.856427 
L 432.204465 179.603727 
L 434.735386 179.652323 
L 439.516017 180.064094 
L 444.296647 180.341347 
L 449.35851 180.448368 
L 462.85678 180.21106 
L 472.136806 180.408137 
L 477.479883 180.727297 
L 480.010785 180.594656 
L 482.822961 180.490345 
L 488.165998 180.594685 
L 489.290852 180.194478 
L 491.54056 179.18169 
L 492.665414 179.032579 
L 493.790268 179.148269 
L 495.758783 179.675341 
L 498.570918 180.392009 
L 500.2582 180.625765 
L 501.10182 180.558287 
L 501.664247 180.306337 
L 502.226714 179.793275 
L 502.789141 178.998965 
L 505.03885 175.210397 
L 505.601277 174.752748 
L 506.163704 174.5748 
L 506.726131 174.64296 
L 507.569751 175.086102 
L 508.694606 176.05237 
L 510.944314 178.142716 
L 512.069168 178.902848 
L 513.475256 179.571114 
L 515.162537 180.136384 
L 516.849818 180.485369 
L 518.537099 180.583221 
L 522.474089 180.672313 
L 529.78564 181.126727 
L 531.472922 180.965479 
L 534.285057 180.548314 
L 535.972338 180.5799 
L 543.846317 181.082271 
L 545.252405 180.897901 
L 548.626967 180.214421 
L 554.251238 179.85303 
L 556.500946 179.374138 
L 557.6258 179.357957 
L 559.313081 179.590202 
L 564.937352 180.752585 
L 568.311955 181.063758 
L 573.092564 181.22476 
L 574.498652 181.081378 
L 575.9047 180.6846 
L 577.591981 180.210636 
L 578.998069 180.072032 
L 580.68535 180.182756 
L 586.309621 180.778633 
L 587.434475 180.572093 
L 592.496318 179.131793 
L 593.339979 178.479257 
L 595.589687 176.306899 
L 596.152114 176.047147 
L 596.714541 175.956017 
L 597.558162 176.095973 
L 598.401823 176.492478 
L 599.80787 177.481699 
L 602.057578 179.11026 
L 602.901239 179.506175 
L 603.744859 179.642861 
L 604.307287 179.486373 
L 604.869714 179.015163 
L 605.432141 178.100749 
L 605.994568 176.651933 
L 606.838228 173.486305 
L 609.650364 161.19181 
L 610.212791 159.753035 
L 610.775218 158.801293 
L 611.337645 158.310214 
L 611.900072 158.268333 
L 612.462499 158.673534 
L 613.024926 159.499208 
L 613.868587 161.410992 
L 614.993441 164.747001 
L 617.243149 171.627875 
L 618.368003 174.395482 
L 619.492857 176.571111 
L 620.617712 178.163972 
L 621.742566 179.278967 
L 622.86742 180.026524 
L 623.992274 180.506733 
L 625.398322 180.85782 
L 627.085603 181.063598 
L 629.054118 181.071324 
L 632.147486 180.815206 
L 634.678388 180.698237 
L 637.20933 180.830826 
L 645.926929 181.484366 
L 649.020298 181.241957 
L 652.957288 180.867248 
L 654.363376 180.404925 
L 657.175511 179.31927 
L 658.300365 179.165667 
L 659.425219 179.217106 
L 661.393694 179.57956 
L 667.299198 180.756987 
L 669.548906 180.953537 
L 670.67376 180.895014 
L 671.236187 180.683821 
L 671.798614 180.217112 
L 672.361042 179.397065 
L 672.923469 178.209707 
L 675.45441 172.050329 
L 676.016838 171.288975 
L 676.579265 170.796411 
L 677.141692 170.52115 
L 677.704119 170.411684 
L 678.547739 170.518829 
L 679.3914 170.964019 
L 680.23502 171.736968 
L 681.641108 173.426244 
L 684.17201 176.45213 
L 685.578098 177.850666 
L 686.702952 178.729353 
L 687.827806 179.375979 
L 688.95266 179.796852 
L 690.639941 180.164848 
L 693.73331 180.536331 
L 697.389066 180.73172 
L 701.044862 180.754556 
L 703.29457 180.503658 
L 704.981851 180.155286 
L 707.512753 179.563406 
L 708.918841 179.516744 
L 712.01217 179.539829 
L 712.85583 179.187415 
L 715.667966 177.629067 
L 716.511626 177.486894 
L 717.63648 177.545671 
L 719.604955 177.988927 
L 721.57347 178.317888 
L 724.385605 178.77844 
L 727.19774 179.48933 
L 730.572303 180.259869 
L 733.103204 180.535541 
L 737.321428 180.584345 
L 750.25725 180.642454 
L 754.756667 180.480346 
L 772.191946 180.817051 
L 776.410169 180.723379 
L 778.09745 180.305255 
L 779.784731 179.910814 
L 781.190779 179.79954 
L 782.87806 179.884688 
L 788.50233 180.446241 
L 795.532689 180.844523 
L 798.907291 180.923888 
L 802.00058 180.839399 
L 803.125434 180.623085 
L 806.78127 179.5349 
L 808.187318 179.594452 
L 812.405541 180.091945 
L 818.873472 179.968535 
L 821.966761 180.034972 
L 822.529228 179.831054 
L 822.810421 179.588062 
L 823.091615 179.144674 
L 823.372889 178.349849 
L 823.654082 176.962175 
L 823.935276 174.630465 
L 824.216469 170.88797 
L 824.497743 165.186935 
L 825.06013 145.829879 
L 825.622597 114.92365 
L 826.747451 45.670459 
L 827.309838 25.646396 
L 827.872305 16.834326 
L 828.153499 14.881085 
L 828.715886 13.060144 
L 829.278353 12.294858 
L 829.84074 11.966601 
L 830.403207 11.974176 
L 830.965594 12.152315 
L 831.809254 12.760886 
L 832.652915 13.662106 
L 832.934109 14.043857 
L 833.496576 15.446888 
L 834.058963 17.972381 
L 834.62143 22.40576 
L 835.183817 29.315575 
L 835.746284 39.208867 
L 836.589864 58.597128 
L 838.277186 99.383698 
L 839.120847 114.898639 
L 839.964507 126.730267 
L 840.808087 135.673699 
L 841.651748 142.653753 
L 842.776602 149.901777 
L 843.901456 155.446053 
L 845.026311 159.79829 
L 846.151165 163.346025 
L 847.276019 166.277822 
L 848.400873 168.672856 
L 849.525727 170.627568 
L 850.931775 172.586532 
L 852.337903 174.100905 
L 853.74395 175.281555 
L 855.712465 176.615625 
L 857.399706 177.533201 
L 859.649414 178.436822 
L 862.46159 179.332748 
L 864.430105 179.688159 
L 873.991324 180.934857 
L 878.490741 181.093145 
L 883.833818 181.564615 
L 886.36472 181.606308 
L 891.426604 181.459929 
L 895.92602 181.538215 
L 897.894535 181.270123 
L 900.425437 180.885212 
L 902.393951 180.90228 
L 904.924853 181.145564 
L 910.26793 181.721207 
L 912.798832 181.688137 
L 914.204879 181.463039 
L 915.04854 181.085061 
L 915.892201 180.375335 
L 916.735862 179.247033 
L 917.579442 177.682592 
L 919.547957 173.635982 
L 920.110424 172.890452 
L 920.672811 172.461161 
L 921.235278 172.324142 
L 921.797665 172.437501 
L 922.360132 172.754619 
L 923.203712 173.511117 
L 924.60984 175.175901 
L 926.578355 177.531898 
L 927.984403 178.820084 
L 929.109257 179.552196 
L 930.234111 180.026696 
L 931.077772 180.190316 
L 931.921352 180.102691 
L 932.483819 179.861098 
L 933.32748 179.206268 
L 935.858382 176.711998 
L 936.702042 176.381803 
L 937.545623 176.365359 
L 938.389283 176.584055 
L 939.795331 177.252708 
L 942.607506 178.70292 
L 944.576021 179.417923 
L 946.544536 179.935774 
L 947.66939 180.08167 
L 948.51297 179.991818 
L 949.075438 179.752718 
L 949.637825 179.329672 
L 950.481485 178.37506 
L 952.45 175.925268 
L 953.293661 175.351892 
L 953.856048 175.184174 
L 954.699708 175.222487 
L 955.543369 175.520164 
L 956.668223 176.179943 
L 960.323979 178.594099 
L 962.01122 179.315294 
L 963.698541 179.753066 
L 965.94825 180.075205 
L 970.166473 180.419042 
L 975.790743 180.668042 
L 979.446499 180.654991 
L 985.633237 180.466895 
L 991.819894 180.336209 
L 996.038118 180.366927 
L 1012.348543 180.334094 
L 1021.347376 180.28705 
L 1029.783822 180.328288 
L 1053.124565 180.256253 
L 1118.647378 180.208717 
L 1132.145628 180.234043 
L 1134.395336 180.233972 
L 1134.395336 180.233972 
" clip-path="url(#p76c62fe8f3)" style="fill: none; stroke: #000000; stroke-width: 2.5; stroke-linecap: square"/>
   </g>
   <g id="line2d_14">
    <path d="M 307.907959 199.12726 
L 307.907959 3.00024 
" clip-path="url(#p76c62fe8f3)" style="fill: none; stroke: #d55e00; stroke-width: 2; stroke-linecap: square"/>
   </g>
   <g id="line2d_15">
    <path d="M 1134.676529 199.12726 
L 1134.676529 3.00024 
" clip-path="url(#p76c62fe8f3)" style="fill: none; stroke: #d55e00; stroke-width: 2; stroke-linecap: square"/>
   </g>
   <g id="patch_3">
    <path d="M 71.702428 199.12726 
L 71.702428 3.00024 
" style="fill: none; stroke: #000000; stroke-width: 2; stroke-linejoin: miter; stroke-linecap: square"/>
   </g>
   <g id="patch_4">
    <path d="M 1184.99976 199.12726 
L 1184.99976 3.00024 
" style="fill: none; stroke: #000000; stroke-width: 2; stroke-linejoin: miter; stroke-linecap: square"/>
   </g>
   <g id="patch_5">
    <path d="M 71.702428 199.12726 
L 1184.99976 199.12726 
" style="fill: none; stroke: #000000; stroke-width: 2; stroke-linejoin: miter; stroke-linecap: square"/>
   </g>
   <g id="patch_6">
    <path d="M 71.702428 3.00024 
L 1184.99976 3.00024 
" style="fill: none; stroke: #000000; stroke-width: 2; stroke-linejoin: miter; stroke-linecap: square"/>
   </g>
   <g id="text_15">
    <!-- ANALYSIS -->
    <g style="fill: #d55e00" transform="translate(301.574421 133.307071) rotate(-90) scale(0.14994 -0.14994)">
     <defs>
      <path id="Arial-BoldMT-41" d="M 4597 0 
L 3591 0 
L 3191 1041 
L 1359 1041 
L 981 0 
L 0 0 
L 1784 4581 
L 2763 4581 
L 4597 0 
z
M 2894 1813 
L 2263 3513 
L 1644 1813 
L 2894 1813 
z
" transform="scale(0.015625)"/>
      <path id="Arial-BoldMT-4e" d="M 475 0 
L 475 4581 
L 1375 4581 
L 3250 1522 
L 3250 4581 
L 4109 4581 
L 4109 0 
L 3181 0 
L 1334 2988 
L 1334 0 
L 475 0 
z
" transform="scale(0.015625)"/>
      <path id="Arial-BoldMT-4c" d="M 491 0 
L 491 4544 
L 1416 4544 
L 1416 772 
L 3716 772 
L 3716 0 
L 491 0 
z
" transform="scale(0.015625)"/>
      <path id="Arial-BoldMT-59" d="M 1669 0 
L 1669 1928 
L -9 4581 
L 1075 4581 
L 2153 2769 
L 3209 4581 
L 4275 4581 
L 2591 1922 
L 2591 0 
L 1669 0 
z
" transform="scale(0.015625)"/>
      <path id="Arial-BoldMT-53" d="M 231 1491 
L 1131 1578 
Q 1213 1125 1461 912 
Q 1709 700 2131 700 
Q 2578 700 2804 889 
Q 3031 1078 3031 1331 
Q 3031 1494 2936 1608 
Q 2841 1722 2603 1806 
Q 2441 1863 1863 2006 
Q 1119 2191 819 2459 
Q 397 2838 397 3381 
Q 397 3731 595 4036 
Q 794 4341 1167 4500 
Q 1541 4659 2069 4659 
Q 2931 4659 3367 4281 
Q 3803 3903 3825 3272 
L 2900 3231 
Q 2841 3584 2645 3739 
Q 2450 3894 2059 3894 
Q 1656 3894 1428 3728 
Q 1281 3622 1281 3444 
Q 1281 3281 1419 3166 
Q 1594 3019 2269 2859 
Q 2944 2700 3267 2529 
Q 3591 2359 3773 2064 
Q 3956 1769 3956 1334 
Q 3956 941 3737 597 
Q 3519 253 3119 86 
Q 2719 -81 2122 -81 
Q 1253 -81 787 320 
Q 322 722 231 1491 
z
" transform="scale(0.015625)"/>
     </defs>
     <use xlink:href="#Arial-BoldMT-41"/>
     <use xlink:href="#Arial-BoldMT-4e" x="72.216797"/>
     <use xlink:href="#Arial-BoldMT-41" x="144.433594"/>
     <use xlink:href="#Arial-BoldMT-4c" x="216.650391"/>
     <use xlink:href="#Arial-BoldMT-59" x="268.609375"/>
     <use xlink:href="#Arial-BoldMT-53" x="335.308594"/>
     <use xlink:href="#Arial-BoldMT-49" x="402.007812"/>
     <use xlink:href="#Arial-BoldMT-53" x="429.791016"/>
    </g>
   </g>
   <g id="text_16">
    <!-- START -->
    <g style="fill: #d55e00" transform="translate(325.389514 120.518829) rotate(-90) scale(0.14994 -0.14994)">
     <defs>
      <path id="Arial-BoldMT-54" d="M 1497 0 
L 1497 3806 
L 138 3806 
L 138 4581 
L 3778 4581 
L 3778 3806 
L 2422 3806 
L 2422 0 
L 1497 0 
z
" transform="scale(0.015625)"/>
     </defs>
     <use xlink:href="#Arial-BoldMT-53"/>
     <use xlink:href="#Arial-BoldMT-54" x="66.699219"/>
     <use xlink:href="#Arial-BoldMT-41" x="120.408203"/>
     <use xlink:href="#Arial-BoldMT-52" x="192.625"/>
     <use xlink:href="#Arial-BoldMT-54" x="264.841797"/>
    </g>
   </g>
   <g id="text_17">
    <!-- ANALYSIS -->
    <g style="fill: #d55e00" transform="translate(1128.342991 133.307071) rotate(-90) scale(0.14994 -0.14994)">
     <use xlink:href="#Arial-BoldMT-41"/>
     <use xlink:href="#Arial-BoldMT-4e" x="72.216797"/>
     <use xlink:href="#Arial-BoldMT-41" x="144.433594"/>
     <use xlink:href="#Arial-BoldMT-4c" x="216.650391"/>
     <use xlink:href="#Arial-BoldMT-59" x="268.609375"/>
     <use xlink:href="#Arial-BoldMT-53" x="335.308594"/>
     <use xlink:href="#Arial-BoldMT-49" x="402.007812"/>
     <use xlink:href="#Arial-BoldMT-53" x="429.791016"/>
    </g>
   </g>
   <g id="text_18">
    <!-- END -->
    <g style="fill: #d55e00" transform="translate(1152.158084 111.913679) rotate(-90) scale(0.14994 -0.14994)">
     <defs>
      <path id="Arial-BoldMT-45" d="M 466 0 
L 466 4581 
L 3863 4581 
L 3863 3806 
L 1391 3806 
L 1391 2791 
L 3691 2791 
L 3691 2019 
L 1391 2019 
L 1391 772 
L 3950 772 
L 3950 0 
L 466 0 
z
" transform="scale(0.015625)"/>
      <path id="Arial-BoldMT-44" d="M 463 4581 
L 2153 4581 
Q 2725 4581 3025 4494 
Q 3428 4375 3715 4072 
Q 4003 3769 4153 3330 
Q 4303 2891 4303 2247 
Q 4303 1681 4163 1272 
Q 3991 772 3672 463 
Q 3431 228 3022 97 
Q 2716 0 2203 0 
L 463 0 
L 463 4581 
z
M 1388 3806 
L 1388 772 
L 2078 772 
Q 2466 772 2638 816 
Q 2863 872 3011 1006 
Q 3159 1141 3253 1448 
Q 3347 1756 3347 2288 
Q 3347 2819 3253 3103 
Q 3159 3388 2990 3547 
Q 2822 3706 2563 3763 
Q 2369 3806 1803 3806 
L 1388 3806 
z
" transform="scale(0.015625)"/>
     </defs>
     <use xlink:href="#Arial-BoldMT-45"/>
     <use xlink:href="#Arial-BoldMT-4e" x="66.699219"/>
     <use xlink:href="#Arial-BoldMT-44" x="138.916016"/>
    </g>
   </g>
  </g>
 </g>
 <defs>
  <clipPath id="p76c62fe8f3">
   <rect x="71.702428" y="3.00024" width="1113.297333" height="196.12702"/>
  </clipPath>
 </defs>
</svg>
