<?xml version="1.0" encoding="utf-8" standalone="no"?>
<!DOCTYPE svg PUBLIC "-//W3C//DTD SVG 1.1//EN"
  "http://www.w3.org/Graphics/SVG/1.1/DTD/svg11.dtd">
<svg xmlns:xlink="http://www.w3.org/1999/xlink" width="1188pt" height="252pt" viewBox="0 0 1188 252" xmlns="http://www.w3.org/2000/svg" version="1.1">
 <metadata>
  <rdf:RDF xmlns:dc="http://purl.org/dc/elements/1.1/" xmlns:cc="http://creativecommons.org/ns#" xmlns:rdf="http://www.w3.org/1999/02/22-rdf-syntax-ns#">
   <cc:Work>
    <dc:type rdf:resource="http://purl.org/dc/dcmitype/StillImage"/>
    <dc:date>2024-05-14T23:27:14.799896</dc:date>
    <dc:format>image/svg+xml</dc:format>
    <dc:creator>
     <cc:Agent>
      <dc:title>Matplotlib v3.8.0, https://matplotlib.org/</dc:title>
     </cc:Agent>
    </dc:creator>
   </cc:Work>
  </rdf:RDF>
 </metadata>
 <defs>
  <style type="text/css">*{stroke-linejoin: round; stroke-linecap: butt}</style>
 </defs>
 <g id="figure_1">
  <g id="patch_1">
   <path d="M 0 252 
L 1188 252 
L 1188 0 
L 0 0 
z
" style="fill: #ffffff"/>
  </g>
  <g id="axes_1">
   <g id="patch_2">
    <path d="M 71.702428 199.12726 
L 1184.99976 199.12726 
L 1184.99976 3.00024 
L 71.702428 3.00024 
z
" style="fill: #ffffff"/>
   </g>
   <g id="PolyCollection_1">
    <path d="M 587.996902 177.479124 
L 587.996902 177.442709 
L 588.278135 177.442709 
L 588.559329 177.442709 
L 588.840562 177.442709 
L 589.121756 177.442709 
L 589.40299 177.442709 
L 589.684183 177.442709 
L 589.965417 177.442709 
L 590.24661 177.442709 
L 590.527844 177.442709 
L 590.809037 177.442709 
L 591.090271 177.442709 
L 591.371464 177.442709 
L 591.652698 177.442709 
L 591.933891 177.442709 
L 592.215125 177.442709 
L 592.496318 177.442709 
L 592.777552 177.442709 
L 593.058745 177.442709 
L 593.339979 177.442709 
L 593.621172 177.442709 
L 593.902406 177.442709 
L 594.183599 177.442709 
L 594.464833 177.442709 
L 594.746026 177.442709 
L 595.02726 177.442709 
L 595.308454 177.442709 
L 595.589687 177.442709 
L 595.870881 177.442709 
L 596.152114 177.442709 
L 596.433308 177.442709 
L 596.714541 177.442709 
L 596.995735 177.442709 
L 597.276968 177.442709 
L 597.558162 177.442709 
L 597.839395 177.442709 
L 598.120589 177.442709 
L 598.401823 177.442709 
L 598.683016 177.442709 
L 598.96425 177.442709 
L 599.245443 177.442709 
L 599.526677 177.442709 
L 599.80787 177.442709 
L 600.089104 177.442709 
L 600.370297 177.442709 
L 600.651531 177.442709 
L 600.932724 177.442709 
L 601.213958 177.442709 
L 601.495151 177.442709 
L 601.776385 177.442709 
L 602.057578 177.442709 
L 602.338812 177.442709 
L 602.620005 177.442709 
L 602.901239 177.442709 
L 603.182432 177.442709 
L 603.463666 177.442709 
L 603.744859 177.442709 
L 604.026093 177.442709 
L 604.307287 177.442709 
L 604.58852 177.442709 
L 604.869714 177.442709 
L 605.150947 177.442709 
L 605.432141 177.442709 
L 605.713374 177.442709 
L 605.994568 177.442709 
L 606.275801 177.442709 
L 606.556995 177.442709 
L 606.838228 177.442709 
L 607.119422 177.442709 
L 607.400656 177.442709 
L 607.681889 177.442709 
L 607.963083 177.442709 
L 608.244316 177.442709 
L 608.52551 177.442709 
L 608.806743 177.442709 
L 609.087937 177.442709 
L 609.36917 177.442709 
L 609.650364 177.442709 
L 609.931597 177.442709 
L 610.212791 177.442709 
L 610.494024 177.442709 
L 610.775218 177.442709 
L 611.056452 177.442709 
L 611.337645 177.442709 
L 611.618879 177.442709 
L 611.900072 177.442709 
L 612.181306 177.442709 
L 612.462499 177.442709 
L 612.743733 177.442709 
L 613.024926 177.442709 
L 613.30616 177.442709 
L 613.587353 177.442709 
L 613.868587 177.442709 
L 614.14978 177.442709 
L 614.431014 177.442709 
L 614.712207 177.442709 
L 614.993441 177.442709 
L 615.274634 177.442709 
L 615.555868 177.442709 
L 615.837061 177.442709 
L 616.118295 177.442709 
L 616.399489 177.442709 
L 616.680722 177.442709 
L 616.961916 177.442709 
L 617.243149 177.442709 
L 617.524343 177.442709 
L 617.805576 177.442709 
L 618.08677 177.442709 
L 618.368003 177.442709 
L 618.649197 177.442709 
L 618.93043 177.442709 
L 619.211624 177.442709 
L 619.492857 177.442709 
L 619.774051 177.442709 
L 620.055285 177.442709 
L 620.336478 177.442709 
L 620.617712 177.442709 
L 620.898905 177.442709 
L 621.180139 177.442709 
L 621.461332 177.442709 
L 621.742566 177.442709 
L 622.023759 177.442709 
L 622.304993 177.442709 
L 622.586186 177.442709 
L 622.86742 177.442709 
L 623.148613 177.442709 
L 623.429847 177.442709 
L 623.71104 177.442709 
L 623.992274 177.442709 
L 624.273467 177.442709 
L 624.273467 177.401058 
L 624.273467 177.401058 
L 623.992274 177.310311 
L 623.71104 177.210296 
L 623.429847 177.100295 
L 623.148613 176.977662 
L 622.86742 176.841586 
L 622.586186 176.690817 
L 622.304993 176.523627 
L 622.023759 176.338831 
L 621.742566 176.133669 
L 621.461332 175.908067 
L 621.180139 175.660017 
L 620.898905 175.387022 
L 620.617712 175.086617 
L 620.336478 174.761678 
L 620.055285 174.406121 
L 619.774051 174.020008 
L 619.492857 173.600538 
L 619.211624 173.147671 
L 618.93043 172.659988 
L 618.649197 172.138823 
L 618.368003 171.583689 
L 618.08677 170.999878 
L 617.805576 170.388244 
L 617.524343 169.750903 
L 617.243149 169.091715 
L 616.961916 168.413281 
L 616.680722 167.719865 
L 616.399489 167.016267 
L 616.118295 166.306286 
L 615.837061 165.599082 
L 615.555868 164.905109 
L 615.274634 164.230043 
L 614.993441 163.584583 
L 614.712207 162.980268 
L 614.431014 162.425091 
L 614.14978 161.928212 
L 613.868587 161.502983 
L 613.587353 161.157876 
L 613.30616 160.903859 
L 613.024926 160.748382 
L 612.743733 160.69524 
L 612.462499 160.742074 
L 612.181306 160.88875 
L 611.900072 161.126254 
L 611.618879 161.446212 
L 611.337645 161.839152 
L 611.056452 162.298192 
L 610.775218 162.810598 
L 610.494024 163.368315 
L 610.212791 163.96691 
L 609.931597 164.600739 
L 609.650364 165.265782 
L 609.36917 165.963103 
L 609.087937 166.692982 
L 608.806743 167.450038 
L 608.52551 168.229734 
L 608.244316 169.022933 
L 607.963083 169.817811 
L 607.681889 170.601297 
L 607.400656 171.359828 
L 607.119422 172.08301 
L 606.838228 172.762694 
L 606.556995 173.390821 
L 606.275801 173.96113 
L 605.994568 174.473879 
L 605.713374 174.927269 
L 605.432141 175.321789 
L 605.150947 175.660602 
L 604.869714 175.94833 
L 604.58852 176.187532 
L 604.307287 176.381663 
L 604.026093 176.533475 
L 603.744859 176.646293 
L 603.463666 176.719819 
L 603.182432 176.757547 
L 602.901239 176.760687 
L 602.620005 176.732518 
L 602.338812 176.674682 
L 602.057578 176.593186 
L 601.776385 176.488685 
L 601.495151 176.366665 
L 601.213958 176.228863 
L 600.932724 176.078953 
L 600.651531 175.919487 
L 600.370297 175.754273 
L 600.089104 175.583726 
L 599.80787 175.413186 
L 599.526677 175.243917 
L 599.245443 175.077671 
L 598.96425 174.916755 
L 598.683016 174.764567 
L 598.401823 174.621247 
L 598.120589 174.490861 
L 597.839395 174.375108 
L 597.558162 174.277713 
L 597.276968 174.201196 
L 596.995735 174.148834 
L 596.714541 174.123241 
L 596.433308 174.127955 
L 596.152114 174.163967 
L 595.870881 174.233804 
L 595.589687 174.33828 
L 595.308454 174.47606 
L 595.02726 174.646493 
L 594.746026 174.846029 
L 594.464833 175.069246 
L 594.183599 175.30763 
L 593.902406 175.552533 
L 593.621172 175.792079 
L 593.339979 176.015753 
L 593.058745 176.21357 
L 592.777552 176.380367 
L 592.496318 176.513359 
L 592.215125 176.611772 
L 591.933891 176.680856 
L 591.652698 176.725418 
L 591.371464 176.751537 
L 591.090271 176.766372 
L 590.809037 176.77929 
L 590.527844 176.792678 
L 590.24661 176.814726 
L 589.965417 176.849428 
L 589.684183 176.898204 
L 589.40299 176.961208 
L 589.121756 177.041958 
L 588.840562 177.136388 
L 588.559329 177.242685 
L 588.278135 177.358602 
L 587.996902 177.479124 
z
" clip-path="url(#p79bf928750)" style="fill: #d55e00"/>
   </g>
   <g id="PolyCollection_2">
    <path d="M 824.497743 168.026269 
L 824.497743 169.582117 
L 824.778936 169.582117 
L 825.06013 169.582117 
L 825.341323 169.582117 
L 825.622597 169.582117 
L 825.90379 169.582117 
L 826.184984 169.582117 
L 826.466177 169.582117 
L 826.747451 169.582117 
L 827.028645 169.582117 
L 827.309838 169.582117 
L 827.591031 169.582117 
L 827.872305 169.582117 
L 828.153499 169.582117 
L 828.434692 169.582117 
L 828.715886 169.582117 
L 828.997159 169.582117 
L 829.278353 169.582117 
L 829.559546 169.582117 
L 829.84074 169.582117 
L 830.122014 169.582117 
L 830.403207 169.582117 
L 830.6844 169.582117 
L 830.965594 169.582117 
L 831.246868 169.582117 
L 831.528061 169.582117 
L 831.809254 169.582117 
L 832.090448 169.582117 
L 832.371722 169.582117 
L 832.652915 169.582117 
L 832.934109 169.582117 
L 833.215302 169.582117 
L 833.496576 169.582117 
L 833.777769 169.582117 
L 834.058963 169.582117 
L 834.340156 169.582117 
L 834.62143 169.582117 
L 834.902623 169.582117 
L 835.183817 169.582117 
L 835.46501 169.582117 
L 835.746284 169.582117 
L 836.027478 169.582117 
L 836.308671 169.582117 
L 836.589864 169.582117 
L 836.871138 169.582117 
L 837.152332 169.582117 
L 837.433525 169.582117 
L 837.714719 169.582117 
L 837.995992 169.582117 
L 838.277186 169.582117 
L 838.558379 169.582117 
L 838.839573 169.582117 
L 839.120847 169.582117 
L 839.40204 169.582117 
L 839.683233 169.582117 
L 839.964507 169.582117 
L 840.245701 169.582117 
L 840.526894 169.582117 
L 840.808087 169.582117 
L 841.089361 169.582117 
L 841.370555 169.582117 
L 841.651748 169.582117 
L 841.932942 169.582117 
L 842.214215 169.582117 
L 842.495409 169.582117 
L 842.776602 169.582117 
L 843.057796 169.582117 
L 843.33907 169.582117 
L 843.620263 169.582117 
L 843.901456 169.582117 
L 844.18265 169.582117 
L 844.463924 169.582117 
L 844.745117 169.582117 
L 845.026311 169.582117 
L 845.307504 169.582117 
L 845.588778 169.582117 
L 845.869971 169.582117 
L 846.151165 169.582117 
L 846.432358 169.582117 
L 846.713632 169.582117 
L 846.994825 169.582117 
L 847.276019 169.582117 
L 847.557212 169.582117 
L 847.838486 169.582117 
L 848.11968 169.582117 
L 848.400873 169.582117 
L 848.682066 169.582117 
L 848.96334 169.582117 
L 849.244534 169.582117 
L 849.525727 169.582117 
L 849.80692 169.582117 
L 850.088194 169.582117 
L 850.369388 169.582117 
L 850.650581 169.582117 
L 850.931775 169.582117 
L 851.213048 169.582117 
L 851.494242 169.582117 
L 851.494242 169.372195 
L 851.494242 169.372195 
L 851.213048 169.049652 
L 850.931775 168.726845 
L 850.650581 168.397874 
L 850.369388 168.062016 
L 850.088194 167.711374 
L 849.80692 167.340913 
L 849.525727 166.93986 
L 849.244534 166.507724 
L 848.96334 166.032714 
L 848.682066 165.517122 
L 848.400873 164.958929 
L 848.11968 164.358151 
L 847.838486 163.712012 
L 847.557212 163.029436 
L 847.276019 162.307627 
L 846.994825 161.546079 
L 846.713632 160.748494 
L 846.432358 159.917124 
L 846.151165 159.043889 
L 845.869971 158.126303 
L 845.588778 157.162974 
L 845.307504 156.147278 
L 845.026311 155.07207 
L 844.745117 153.936817 
L 844.463924 152.735565 
L 844.18265 151.46959 
L 843.901456 150.138457 
L 843.620263 148.743545 
L 843.33907 147.285453 
L 843.057796 145.769941 
L 842.776602 144.183042 
L 842.495409 142.520773 
L 842.214215 140.76644 
L 841.932942 138.894855 
L 841.651748 136.876711 
L 841.370555 134.686907 
L 841.089361 132.277054 
L 840.808087 129.610193 
L 840.526894 126.651794 
L 840.245701 123.362027 
L 839.964507 119.698484 
L 839.683233 115.640216 
L 839.40204 111.168944 
L 839.120847 106.258147 
L 838.839573 100.89012 
L 838.558379 95.091974 
L 838.277186 88.888959 
L 837.995992 82.325602 
L 837.714719 75.485231 
L 837.433525 68.49673 
L 837.152332 61.454774 
L 836.871138 54.530396 
L 836.589864 47.883207 
L 836.308671 41.685982 
L 836.027478 36.058706 
L 835.746284 31.153392 
L 835.46501 26.982166 
L 835.183817 23.568091 
L 834.902623 20.84118 
L 834.62143 18.718288 
L 834.340156 17.081579 
L 834.058963 15.871327 
L 833.777769 14.901564 
L 833.496576 14.178184 
L 833.215302 13.651217 
L 832.934109 13.214457 
L 832.652915 12.813707 
L 832.371722 12.571539 
L 832.090448 12.341223 
L 831.809254 12.162151 
L 831.528061 12.08792 
L 831.246868 12.068978 
L 830.965594 12.027635 
L 830.6844 12.027101 
L 830.403207 11.976326 
L 830.122014 11.915105 
L 829.84074 11.944167 
L 829.559546 12.023094 
L 829.278353 12.177527 
L 828.997159 12.514832 
L 828.715886 13.052219 
L 828.434692 13.88342 
L 828.153499 15.389932 
L 827.872305 18.098657 
L 827.591031 22.710299 
L 827.309838 30.020194 
L 827.028645 40.619365 
L 826.747451 54.633547 
L 826.466177 71.511524 
L 826.184984 90.073434 
L 825.90379 108.796457 
L 825.622597 126.195998 
L 825.341323 141.123714 
L 825.06013 153.01085 
L 824.778936 161.852252 
L 824.497743 168.026269 
z
" clip-path="url(#p79bf928750)" style="fill: #0072b2"/>
   </g>
   <g id="matplotlib.axis_1">
    <g id="xtick_1">
     <g id="line2d_1">
      <defs>
       <path id="m0c6e9f4c99" d="M 0 0 
L 0 8 
" style="stroke: #000000; stroke-width: 2"/>
      </defs>
      <g>
       <use xlink:href="#m0c6e9f4c99" x="122.306852" y="199.12726" style="stroke: #000000; stroke-width: 2"/>
      </g>
     </g>
     <g id="text_1">
      <!-- 0.0 -->
      <g transform="translate(109.796852 225.011323) scale(0.18 -0.18)">
       <defs>
        <path id="Arial-BoldMT-30" d="M 1756 4600 
Q 2422 4600 2797 4125 
Q 3244 3563 3244 2259 
Q 3244 959 2794 391 
Q 2422 -78 1756 -78 
Q 1088 -78 678 436 
Q 269 950 269 2269 
Q 269 3563 719 4131 
Q 1091 4600 1756 4600 
z
M 1756 3872 
Q 1597 3872 1472 3770 
Q 1347 3669 1278 3406 
Q 1188 3066 1188 2259 
Q 1188 1453 1269 1151 
Q 1350 850 1473 750 
Q 1597 650 1756 650 
Q 1916 650 2041 751 
Q 2166 853 2234 1116 
Q 2325 1453 2325 2259 
Q 2325 3066 2244 3367 
Q 2163 3669 2039 3770 
Q 1916 3872 1756 3872 
z
" transform="scale(0.015625)"/>
        <path id="Arial-BoldMT-2e" d="M 459 0 
L 459 878 
L 1338 878 
L 1338 0 
L 459 0 
z
" transform="scale(0.015625)"/>
       </defs>
       <use xlink:href="#Arial-BoldMT-30"/>
       <use xlink:href="#Arial-BoldMT-2e" x="55.615234"/>
       <use xlink:href="#Arial-BoldMT-30" x="83.398438"/>
      </g>
     </g>
    </g>
    <g id="xtick_2">
     <g id="line2d_2">
      <g>
       <use xlink:href="#m0c6e9f4c99" x="291.035131" y="199.12726" style="stroke: #000000; stroke-width: 2"/>
      </g>
     </g>
     <g id="text_2">
      <!-- 0.5 -->
      <g transform="translate(278.525131 225.011323) scale(0.18 -0.18)">
       <defs>
        <path id="Arial-BoldMT-35" d="M 284 1178 
L 1159 1269 
Q 1197 972 1381 798 
Q 1566 625 1806 625 
Q 2081 625 2272 848 
Q 2463 1072 2463 1522 
Q 2463 1944 2273 2155 
Q 2084 2366 1781 2366 
Q 1403 2366 1103 2031 
L 391 2134 
L 841 4519 
L 3163 4519 
L 3163 3697 
L 1506 3697 
L 1369 2919 
Q 1663 3066 1969 3066 
Q 2553 3066 2959 2641 
Q 3366 2216 3366 1538 
Q 3366 972 3038 528 
Q 2591 -78 1797 -78 
Q 1163 -78 763 262 
Q 363 603 284 1178 
z
" transform="scale(0.015625)"/>
       </defs>
       <use xlink:href="#Arial-BoldMT-30"/>
       <use xlink:href="#Arial-BoldMT-2e" x="55.615234"/>
       <use xlink:href="#Arial-BoldMT-35" x="83.398438"/>
      </g>
     </g>
    </g>
    <g id="xtick_3">
     <g id="line2d_3">
      <g>
       <use xlink:href="#m0c6e9f4c99" x="459.763411" y="199.12726" style="stroke: #000000; stroke-width: 2"/>
      </g>
     </g>
     <g id="text_3">
      <!-- 1.0 -->
      <g transform="translate(447.253411 225.011323) scale(0.18 -0.18)">
       <defs>
        <path id="Arial-BoldMT-31" d="M 2519 0 
L 1641 0 
L 1641 3309 
Q 1159 2859 506 2644 
L 506 3441 
Q 850 3553 1253 3867 
Q 1656 4181 1806 4600 
L 2519 4600 
L 2519 0 
z
" transform="scale(0.015625)"/>
       </defs>
       <use xlink:href="#Arial-BoldMT-31"/>
       <use xlink:href="#Arial-BoldMT-2e" x="55.615234"/>
       <use xlink:href="#Arial-BoldMT-30" x="83.398438"/>
      </g>
     </g>
    </g>
    <g id="xtick_4">
     <g id="line2d_4">
      <g>
       <use xlink:href="#m0c6e9f4c99" x="628.49169" y="199.12726" style="stroke: #000000; stroke-width: 2"/>
      </g>
     </g>
     <g id="text_4">
      <!-- 1.5 -->
      <g transform="translate(615.98169 225.011323) scale(0.18 -0.18)">
       <use xlink:href="#Arial-BoldMT-31"/>
       <use xlink:href="#Arial-BoldMT-2e" x="55.615234"/>
       <use xlink:href="#Arial-BoldMT-35" x="83.398438"/>
      </g>
     </g>
    </g>
    <g id="xtick_5">
     <g id="line2d_5">
      <g>
       <use xlink:href="#m0c6e9f4c99" x="797.21997" y="199.12726" style="stroke: #000000; stroke-width: 2"/>
      </g>
     </g>
     <g id="text_5">
      <!-- 2.0 -->
      <g transform="translate(784.70997 225.011323) scale(0.18 -0.18)">
       <defs>
        <path id="Arial-BoldMT-32" d="M 3238 816 
L 3238 0 
L 159 0 
Q 209 463 459 877 
Q 709 1291 1447 1975 
Q 2041 2528 2175 2725 
Q 2356 2997 2356 3263 
Q 2356 3556 2198 3714 
Q 2041 3872 1763 3872 
Q 1488 3872 1325 3706 
Q 1163 3541 1138 3156 
L 263 3244 
Q 341 3969 753 4284 
Q 1166 4600 1784 4600 
Q 2463 4600 2850 4234 
Q 3238 3869 3238 3325 
Q 3238 3016 3127 2736 
Q 3016 2456 2775 2150 
Q 2616 1947 2200 1565 
Q 1784 1184 1673 1059 
Q 1563 934 1494 816 
L 3238 816 
z
" transform="scale(0.015625)"/>
       </defs>
       <use xlink:href="#Arial-BoldMT-32"/>
       <use xlink:href="#Arial-BoldMT-2e" x="55.615234"/>
       <use xlink:href="#Arial-BoldMT-30" x="83.398438"/>
      </g>
     </g>
    </g>
    <g id="xtick_6">
     <g id="line2d_6">
      <g>
       <use xlink:href="#m0c6e9f4c99" x="965.94825" y="199.12726" style="stroke: #000000; stroke-width: 2"/>
      </g>
     </g>
     <g id="text_6">
      <!-- 2.5 -->
      <g transform="translate(953.43825 225.011323) scale(0.18 -0.18)">
       <use xlink:href="#Arial-BoldMT-32"/>
       <use xlink:href="#Arial-BoldMT-2e" x="55.615234"/>
       <use xlink:href="#Arial-BoldMT-35" x="83.398438"/>
      </g>
     </g>
    </g>
    <g id="xtick_7">
     <g id="line2d_7">
      <g>
       <use xlink:href="#m0c6e9f4c99" x="1134.676529" y="199.12726" style="stroke: #000000; stroke-width: 2"/>
      </g>
     </g>
     <g id="text_7">
      <!-- 3.0 -->
      <g transform="translate(1122.166529 225.011323) scale(0.18 -0.18)">
       <defs>
        <path id="Arial-BoldMT-33" d="M 241 1216 
L 1091 1319 
Q 1131 994 1309 822 
Q 1488 650 1741 650 
Q 2013 650 2198 856 
Q 2384 1063 2384 1413 
Q 2384 1744 2206 1937 
Q 2028 2131 1772 2131 
Q 1603 2131 1369 2066 
L 1466 2781 
Q 1822 2772 2009 2936 
Q 2197 3100 2197 3372 
Q 2197 3603 2059 3740 
Q 1922 3878 1694 3878 
Q 1469 3878 1309 3722 
Q 1150 3566 1116 3266 
L 306 3403 
Q 391 3819 561 4067 
Q 731 4316 1036 4458 
Q 1341 4600 1719 4600 
Q 2366 4600 2756 4188 
Q 3078 3850 3078 3425 
Q 3078 2822 2419 2463 
Q 2813 2378 3048 2084 
Q 3284 1791 3284 1375 
Q 3284 772 2843 347 
Q 2403 -78 1747 -78 
Q 1125 -78 715 280 
Q 306 638 241 1216 
z
" transform="scale(0.015625)"/>
       </defs>
       <use xlink:href="#Arial-BoldMT-33"/>
       <use xlink:href="#Arial-BoldMT-2e" x="55.615234"/>
       <use xlink:href="#Arial-BoldMT-30" x="83.398438"/>
      </g>
     </g>
    </g>
    <g id="text_8">
     <!-- Retention time / min -->
     <g transform="translate(542.350469 245.447573) scale(0.18 -0.18)">
      <defs>
       <path id="Arial-BoldMT-52" d="M 469 0 
L 469 4581 
L 2416 4581 
Q 3150 4581 3483 4457 
Q 3816 4334 4016 4018 
Q 4216 3703 4216 3297 
Q 4216 2781 3912 2445 
Q 3609 2109 3006 2022 
Q 3306 1847 3501 1637 
Q 3697 1428 4028 894 
L 4588 0 
L 3481 0 
L 2813 997 
Q 2456 1531 2325 1670 
Q 2194 1809 2047 1861 
Q 1900 1913 1581 1913 
L 1394 1913 
L 1394 0 
L 469 0 
z
M 1394 2644 
L 2078 2644 
Q 2744 2644 2909 2700 
Q 3075 2756 3169 2893 
Q 3263 3031 3263 3238 
Q 3263 3469 3139 3611 
Q 3016 3753 2791 3791 
Q 2678 3806 2116 3806 
L 1394 3806 
L 1394 2644 
z
" transform="scale(0.015625)"/>
       <path id="Arial-BoldMT-65" d="M 2381 1056 
L 3256 909 
Q 3088 428 2723 176 
Q 2359 -75 1813 -75 
Q 947 -75 531 491 
Q 203 944 203 1634 
Q 203 2459 634 2926 
Q 1066 3394 1725 3394 
Q 2466 3394 2894 2905 
Q 3322 2416 3303 1406 
L 1103 1406 
Q 1113 1016 1316 798 
Q 1519 581 1822 581 
Q 2028 581 2168 693 
Q 2309 806 2381 1056 
z
M 2431 1944 
Q 2422 2325 2234 2523 
Q 2047 2722 1778 2722 
Q 1491 2722 1303 2513 
Q 1116 2303 1119 1944 
L 2431 1944 
z
" transform="scale(0.015625)"/>
       <path id="Arial-BoldMT-74" d="M 1981 3319 
L 1981 2619 
L 1381 2619 
L 1381 1281 
Q 1381 875 1398 808 
Q 1416 741 1477 697 
Q 1538 653 1625 653 
Q 1747 653 1978 738 
L 2053 56 
Q 1747 -75 1359 -75 
Q 1122 -75 931 4 
Q 741 84 652 211 
Q 563 338 528 553 
Q 500 706 500 1172 
L 500 2619 
L 97 2619 
L 97 3319 
L 500 3319 
L 500 3978 
L 1381 4491 
L 1381 3319 
L 1981 3319 
z
" transform="scale(0.015625)"/>
       <path id="Arial-BoldMT-6e" d="M 3478 0 
L 2600 0 
L 2600 1694 
Q 2600 2231 2544 2389 
Q 2488 2547 2361 2634 
Q 2234 2722 2056 2722 
Q 1828 2722 1647 2597 
Q 1466 2472 1398 2265 
Q 1331 2059 1331 1503 
L 1331 0 
L 453 0 
L 453 3319 
L 1269 3319 
L 1269 2831 
Q 1703 3394 2363 3394 
Q 2653 3394 2893 3289 
Q 3134 3184 3257 3021 
Q 3381 2859 3429 2653 
Q 3478 2447 3478 2063 
L 3478 0 
z
" transform="scale(0.015625)"/>
       <path id="Arial-BoldMT-69" d="M 459 3769 
L 459 4581 
L 1338 4581 
L 1338 3769 
L 459 3769 
z
M 459 0 
L 459 3319 
L 1338 3319 
L 1338 0 
L 459 0 
z
" transform="scale(0.015625)"/>
       <path id="Arial-BoldMT-6f" d="M 256 1706 
Q 256 2144 472 2553 
Q 688 2963 1083 3178 
Q 1478 3394 1966 3394 
Q 2719 3394 3200 2905 
Q 3681 2416 3681 1669 
Q 3681 916 3195 420 
Q 2709 -75 1972 -75 
Q 1516 -75 1102 131 
Q 688 338 472 736 
Q 256 1134 256 1706 
z
M 1156 1659 
Q 1156 1166 1390 903 
Q 1625 641 1969 641 
Q 2313 641 2545 903 
Q 2778 1166 2778 1666 
Q 2778 2153 2545 2415 
Q 2313 2678 1969 2678 
Q 1625 2678 1390 2415 
Q 1156 2153 1156 1659 
z
" transform="scale(0.015625)"/>
       <path id="Arial-BoldMT-20" transform="scale(0.015625)"/>
       <path id="Arial-BoldMT-6d" d="M 394 3319 
L 1203 3319 
L 1203 2866 
Q 1638 3394 2238 3394 
Q 2556 3394 2790 3262 
Q 3025 3131 3175 2866 
Q 3394 3131 3647 3262 
Q 3900 3394 4188 3394 
Q 4553 3394 4806 3245 
Q 5059 3097 5184 2809 
Q 5275 2597 5275 2122 
L 5275 0 
L 4397 0 
L 4397 1897 
Q 4397 2391 4306 2534 
Q 4184 2722 3931 2722 
Q 3747 2722 3584 2609 
Q 3422 2497 3350 2280 
Q 3278 2063 3278 1594 
L 3278 0 
L 2400 0 
L 2400 1819 
Q 2400 2303 2353 2443 
Q 2306 2584 2207 2653 
Q 2109 2722 1941 2722 
Q 1738 2722 1575 2612 
Q 1413 2503 1342 2297 
Q 1272 2091 1272 1613 
L 1272 0 
L 394 0 
L 394 3319 
z
" transform="scale(0.015625)"/>
       <path id="Arial-BoldMT-2f" d="M -9 -78 
L 1125 4659 
L 1784 4659 
L 638 -78 
L -9 -78 
z
" transform="scale(0.015625)"/>
      </defs>
      <use xlink:href="#Arial-BoldMT-52"/>
      <use xlink:href="#Arial-BoldMT-65" x="72.216797"/>
      <use xlink:href="#Arial-BoldMT-74" x="127.832031"/>
      <use xlink:href="#Arial-BoldMT-65" x="161.132812"/>
      <use xlink:href="#Arial-BoldMT-6e" x="216.748047"/>
      <use xlink:href="#Arial-BoldMT-74" x="277.832031"/>
      <use xlink:href="#Arial-BoldMT-69" x="311.132812"/>
      <use xlink:href="#Arial-BoldMT-6f" x="338.916016"/>
      <use xlink:href="#Arial-BoldMT-6e" x="400"/>
      <use xlink:href="#Arial-BoldMT-20" x="461.083984"/>
      <use xlink:href="#Arial-BoldMT-74" x="488.867188"/>
      <use xlink:href="#Arial-BoldMT-69" x="522.167969"/>
      <use xlink:href="#Arial-BoldMT-6d" x="549.951172"/>
      <use xlink:href="#Arial-BoldMT-65" x="638.867188"/>
      <use xlink:href="#Arial-BoldMT-20" x="694.482422"/>
      <use xlink:href="#Arial-BoldMT-2f" x="722.265625"/>
      <use xlink:href="#Arial-BoldMT-20" x="750.048828"/>
      <use xlink:href="#Arial-BoldMT-6d" x="777.832031"/>
      <use xlink:href="#Arial-BoldMT-69" x="866.748047"/>
      <use xlink:href="#Arial-BoldMT-6e" x="894.53125"/>
     </g>
    </g>
   </g>
   <g id="matplotlib.axis_2">
    <g id="ytick_1">
     <g id="line2d_8">
      <defs>
       <path id="m14ceff326a" d="M 0 0 
L -8 0 
" style="stroke: #000000; stroke-width: 2"/>
      </defs>
      <g>
       <use xlink:href="#m14ceff326a" x="71.702428" y="177.640352" style="stroke: #000000; stroke-width: 2"/>
      </g>
     </g>
     <g id="text_9">
      <!-- 0.00 -->
      <g transform="translate(23.67274 184.082383) scale(0.18 -0.18)">
       <use xlink:href="#Arial-BoldMT-30"/>
       <use xlink:href="#Arial-BoldMT-2e" x="55.615234"/>
       <use xlink:href="#Arial-BoldMT-30" x="83.398438"/>
       <use xlink:href="#Arial-BoldMT-30" x="139.013672"/>
      </g>
     </g>
    </g>
    <g id="ytick_2">
     <g id="line2d_9">
      <g>
       <use xlink:href="#m14ceff326a" x="71.702428" y="136.20904" style="stroke: #000000; stroke-width: 2"/>
      </g>
     </g>
     <g id="text_10">
      <!-- 0.25 -->
      <g transform="translate(23.67274 142.651071) scale(0.18 -0.18)">
       <use xlink:href="#Arial-BoldMT-30"/>
       <use xlink:href="#Arial-BoldMT-2e" x="55.615234"/>
       <use xlink:href="#Arial-BoldMT-32" x="83.398438"/>
       <use xlink:href="#Arial-BoldMT-35" x="139.013672"/>
      </g>
     </g>
    </g>
    <g id="ytick_3">
     <g id="line2d_10">
      <g>
       <use xlink:href="#m14ceff326a" x="71.702428" y="94.777728" style="stroke: #000000; stroke-width: 2"/>
      </g>
     </g>
     <g id="text_11">
      <!-- 0.50 -->
      <g transform="translate(23.67274 101.219759) scale(0.18 -0.18)">
       <use xlink:href="#Arial-BoldMT-30"/>
       <use xlink:href="#Arial-BoldMT-2e" x="55.615234"/>
       <use xlink:href="#Arial-BoldMT-35" x="83.398438"/>
       <use xlink:href="#Arial-BoldMT-30" x="139.013672"/>
      </g>
     </g>
    </g>
    <g id="ytick_4">
     <g id="line2d_11">
      <g>
       <use xlink:href="#m14ceff326a" x="71.702428" y="53.346416" style="stroke: #000000; stroke-width: 2"/>
      </g>
     </g>
     <g id="text_12">
      <!-- 0.75 -->
      <g transform="translate(23.67274 59.788448) scale(0.18 -0.18)">
       <defs>
        <path id="Arial-BoldMT-37" d="M 272 3703 
L 272 4519 
L 3275 4519 
L 3275 3881 
Q 2903 3516 2518 2831 
Q 2134 2147 1932 1376 
Q 1731 606 1734 0 
L 888 0 
Q 909 950 1279 1937 
Q 1650 2925 2269 3703 
L 272 3703 
z
" transform="scale(0.015625)"/>
       </defs>
       <use xlink:href="#Arial-BoldMT-30"/>
       <use xlink:href="#Arial-BoldMT-2e" x="55.615234"/>
       <use xlink:href="#Arial-BoldMT-37" x="83.398438"/>
       <use xlink:href="#Arial-BoldMT-35" x="139.013672"/>
      </g>
     </g>
    </g>
    <g id="ytick_5">
     <g id="line2d_12">
      <g>
       <use xlink:href="#m14ceff326a" x="71.702428" y="11.915105" style="stroke: #000000; stroke-width: 2"/>
      </g>
     </g>
     <g id="text_13">
      <!-- 1.00 -->
      <g transform="translate(23.67274 18.357136) scale(0.18 -0.18)">
       <use xlink:href="#Arial-BoldMT-31"/>
       <use xlink:href="#Arial-BoldMT-2e" x="55.615234"/>
       <use xlink:href="#Arial-BoldMT-30" x="83.398438"/>
       <use xlink:href="#Arial-BoldMT-30" x="139.013672"/>
      </g>
     </g>
    </g>
    <g id="text_14">
     <!-- Rel. Intensity -->
     <g transform="translate(15.884303 157.071875) rotate(-90) scale(0.18 -0.18)">
      <defs>
       <path id="Arial-BoldMT-6c" d="M 459 0 
L 459 4581 
L 1338 4581 
L 1338 0 
L 459 0 
z
" transform="scale(0.015625)"/>
       <path id="Arial-BoldMT-49" d="M 438 0 
L 438 4581 
L 1363 4581 
L 1363 0 
L 438 0 
z
" transform="scale(0.015625)"/>
       <path id="Arial-BoldMT-73" d="M 150 947 
L 1031 1081 
Q 1088 825 1259 692 
Q 1431 559 1741 559 
Q 2081 559 2253 684 
Q 2369 772 2369 919 
Q 2369 1019 2306 1084 
Q 2241 1147 2013 1200 
Q 950 1434 666 1628 
Q 272 1897 272 2375 
Q 272 2806 612 3100 
Q 953 3394 1669 3394 
Q 2350 3394 2681 3172 
Q 3013 2950 3138 2516 
L 2309 2363 
Q 2256 2556 2107 2659 
Q 1959 2763 1684 2763 
Q 1338 2763 1188 2666 
Q 1088 2597 1088 2488 
Q 1088 2394 1175 2328 
Q 1294 2241 1995 2081 
Q 2697 1922 2975 1691 
Q 3250 1456 3250 1038 
Q 3250 581 2869 253 
Q 2488 -75 1741 -75 
Q 1063 -75 667 200 
Q 272 475 150 947 
z
" transform="scale(0.015625)"/>
       <path id="Arial-BoldMT-79" d="M 44 3319 
L 978 3319 
L 1772 963 
L 2547 3319 
L 3456 3319 
L 2284 125 
L 2075 -453 
Q 1959 -744 1854 -897 
Q 1750 -1050 1614 -1145 
Q 1478 -1241 1279 -1294 
Q 1081 -1347 831 -1347 
Q 578 -1347 334 -1294 
L 256 -606 
Q 463 -647 628 -647 
Q 934 -647 1081 -467 
Q 1228 -288 1306 -9 
L 44 3319 
z
" transform="scale(0.015625)"/>
      </defs>
      <use xlink:href="#Arial-BoldMT-52"/>
      <use xlink:href="#Arial-BoldMT-65" x="72.216797"/>
      <use xlink:href="#Arial-BoldMT-6c" x="127.832031"/>
      <use xlink:href="#Arial-BoldMT-2e" x="155.615234"/>
      <use xlink:href="#Arial-BoldMT-20" x="183.398438"/>
      <use xlink:href="#Arial-BoldMT-49" x="211.181641"/>
      <use xlink:href="#Arial-BoldMT-6e" x="238.964844"/>
      <use xlink:href="#Arial-BoldMT-74" x="300.048828"/>
      <use xlink:href="#Arial-BoldMT-65" x="333.349609"/>
      <use xlink:href="#Arial-BoldMT-6e" x="388.964844"/>
      <use xlink:href="#Arial-BoldMT-73" x="450.048828"/>
      <use xlink:href="#Arial-BoldMT-69" x="505.664062"/>
      <use xlink:href="#Arial-BoldMT-74" x="533.447266"/>
      <use xlink:href="#Arial-BoldMT-79" x="566.748047"/>
     </g>
    </g>
   </g>
   <g id="line2d_13">
    <path d="M 122.306852 149.758284 
L 125.681417 150.03515 
L 129.337197 150.568589 
L 132.992976 151.332909 
L 136.929969 152.419364 
L 140.866962 153.795814 
L 145.08517 155.540045 
L 149.303376 157.520327 
L 154.365224 160.179922 
L 158.864646 162.776553 
L 164.488922 166.238088 
L 172.081692 171.206093 
L 181.642962 177.736612 
L 190.360592 183.594602 
L 199.921862 189.026844 
L 202.452784 190.134658 
L 203.015211 190.212395 
L 203.577638 189.984658 
L 203.858851 189.652757 
L 204.14007 189.1076 
L 204.702497 187.195403 
L 205.264924 184.087441 
L 206.952205 171.941628 
L 207.233419 169.165059 
L 207.514632 164.16331 
L 207.795846 155.246743 
L 208.358273 123.9872 
L 209.201913 65.287409 
L 209.76434 44.341759 
L 210.045554 40.122073 
L 210.326767 38.449783 
L 210.889194 37.195625 
L 211.451622 36.454201 
L 212.014059 36.028589 
L 212.576486 35.83332 
L 213.420126 35.811205 
L 214.263767 35.977255 
L 215.951048 36.731896 
L 217.075902 37.392689 
L 218.48197 38.261721 
L 219.32561 38.679475 
L 220.731678 39.539622 
L 224.106251 40.818771 
L 227.199599 41.957797 
L 231.417802 45.069705 
L 234.229948 47.644838 
L 235.636015 49.047263 
L 239.573005 52.919771 
L 240.697859 54.748991 
L 241.5415 56.716552 
L 242.38514 59.540526 
L 243.228781 63.5083 
L 244.072431 68.584549 
L 245.197285 76.663246 
L 247.16578 93.086595 
L 249.696702 113.889858 
L 251.383983 125.851601 
L 252.790051 134.290931 
L 254.196129 141.496299 
L 255.602196 147.595538 
L 257.008264 152.768329 
L 258.414332 157.150407 
L 259.820399 160.887986 
L 261.226467 164.025418 
L 262.632534 166.720283 
L 264.038602 168.996341 
L 265.725893 171.303902 
L 267.413175 173.229339 
L 269.100456 174.816864 
L 270.787737 176.115208 
L 272.475018 177.181886 
L 274.443513 178.144994 
L 276.412018 178.86096 
L 278.661726 179.445511 
L 281.473861 179.919791 
L 284.848424 180.242622 
L 288.50421 180.384696 
L 292.441199 180.311928 
L 298.346683 179.929519 
L 317.469223 178.390445 
L 323.374728 178.172829 
L 329.842639 178.1074 
L 340.809967 178.371026 
L 358.526439 178.83502 
L 366.962865 178.775305 
L 378.211406 178.39546 
L 392.272103 177.83828 
L 399.583655 177.620688 
L 412.519497 177.425428 
L 444.859074 177.537952 
L 467.63739 177.685521 
L 500.2582 177.708318 
L 507.288558 177.625493 
L 515.162537 177.736885 
L 516.849818 177.603841 
L 520.22438 177.196026 
L 522.192855 177.264743 
L 530.066874 177.777331 
L 534.566291 177.777433 
L 539.346901 177.787094 
L 545.252405 177.821561 
L 551.157909 177.698133 
L 559.031888 177.744253 
L 564.374925 177.67712 
L 566.34344 177.663335 
L 569.436809 177.893583 
L 572.811371 178.10259 
L 573.936225 177.973307 
L 575.342273 177.55629 
L 577.029554 177.098657 
L 578.154408 177.004786 
L 579.560496 177.100516 
L 581.810204 177.513375 
L 584.341106 177.955798 
L 586.028387 178.053192 
L 586.872048 177.904526 
L 588.278135 177.358602 
L 589.684183 176.898204 
L 591.090271 176.766372 
L 592.215125 176.611772 
L 593.058745 176.21357 
L 594.183599 175.30763 
L 595.308454 174.47606 
L 596.152114 174.163967 
L 596.995735 174.148834 
L 597.839395 174.375108 
L 598.96425 174.916755 
L 602.057578 176.593186 
L 602.901239 176.760687 
L 603.744859 176.646293 
L 604.307287 176.381663 
L 604.869714 175.94833 
L 605.713374 174.927269 
L 606.556995 173.390821 
L 607.400656 171.359828 
L 610.212791 163.96691 
L 611.056452 162.298192 
L 611.900072 161.126254 
L 612.462499 160.742074 
L 613.024926 160.748382 
L 613.587353 161.157876 
L 614.14978 161.928212 
L 614.993441 163.584583 
L 616.680722 167.719865 
L 618.08677 170.999878 
L 619.211624 173.147671 
L 620.336478 174.761678 
L 621.461332 175.908067 
L 622.586186 176.690817 
L 623.71104 177.210296 
L 625.117128 177.627331 
L 627.085603 177.960446 
L 629.335351 178.122883 
L 631.585059 178.054529 
L 634.959622 177.909391 
L 638.334184 178.066912 
L 642.271174 178.319458 
L 644.239648 178.247667 
L 645.364502 178.032771 
L 646.489356 177.608064 
L 649.020298 176.515206 
L 650.145152 176.363288 
L 651.270007 176.438628 
L 652.957288 176.81212 
L 655.769423 177.421648 
L 658.300365 177.690301 
L 660.831267 177.754532 
L 665.330683 177.771777 
L 672.079848 178.096989 
L 674.329556 177.920356 
L 679.110166 177.542832 
L 681.359875 177.531144 
L 683.890816 177.586174 
L 684.734437 177.4117 
L 685.578098 177.001736 
L 686.421718 176.329844 
L 688.671426 174.339103 
L 689.515087 173.973732 
L 690.358708 173.896275 
L 691.202368 174.07011 
L 692.327222 174.578666 
L 696.826639 176.978413 
L 698.232727 177.380898 
L 700.201201 177.672265 
L 702.450909 177.77696 
L 734.509292 177.819848 
L 744.351786 177.799143 
L 753.631812 177.651778 
L 774.16042 177.826287 
L 776.410169 177.793302 
L 778.94107 177.465698 
L 780.628352 177.338629 
L 782.87806 177.417497 
L 788.221137 177.745425 
L 791.314466 177.654069 
L 794.689028 177.518029 
L 797.782437 177.729287 
L 800.875726 177.909059 
L 803.406708 177.834737 
L 806.78127 177.59385 
L 809.593365 177.726404 
L 811.843074 177.732153 
L 816.623684 177.415355 
L 819.154666 177.654931 
L 821.966761 177.916644 
L 822.529228 177.833106 
L 823.091615 177.461306 
L 823.372889 176.995643 
L 823.654082 176.1409 
L 823.935276 174.633451 
L 824.216469 172.09497 
L 824.497743 168.026269 
L 824.778936 161.852252 
L 825.341323 141.123714 
L 825.90379 108.796457 
L 827.028645 40.619365 
L 827.591031 22.710299 
L 827.872305 18.098657 
L 828.153499 15.389932 
L 828.434692 13.88342 
L 828.997159 12.514832 
L 829.278353 12.177527 
L 829.84074 11.944167 
L 830.403207 11.976326 
L 832.090448 12.341223 
L 832.652915 12.813707 
L 833.496576 14.178184 
L 834.058963 15.871327 
L 834.62143 18.718288 
L 835.183817 23.568091 
L 835.746284 31.153392 
L 836.308671 41.685982 
L 837.433525 68.49673 
L 838.839573 100.89012 
L 839.683233 115.640216 
L 840.526894 126.651794 
L 841.370555 134.686907 
L 842.214215 140.76644 
L 843.33907 147.285453 
L 844.463924 152.735565 
L 845.588778 157.162974 
L 846.713632 160.748494 
L 847.838486 163.712012 
L 848.96334 166.032714 
L 849.80692 167.340913 
L 851.213048 169.049652 
L 853.74395 171.796335 
L 854.868804 172.675413 
L 856.274852 173.433756 
L 859.930608 175.071927 
L 861.617929 175.490653 
L 866.679813 176.408278 
L 870.616762 176.891157 
L 872.86647 177.106593 
L 893.395118 177.835627 
L 896.488407 177.745105 
L 900.144243 177.637568 
L 913.080025 177.782984 
L 922.360132 177.425242 
L 933.889867 177.738402 
L 952.45 177.701525 
L 968.479151 177.71657 
L 1080.683451 177.615326 
L 1091.650799 177.614495 
L 1106.83637 177.606556 
L 1129.895919 177.61229 
L 1134.395336 177.628099 
L 1134.395336 177.628099 
" clip-path="url(#p79bf928750)" style="fill: none; stroke: #000000; stroke-width: 2.5; stroke-linecap: square"/>
   </g>
   <g id="line2d_14">
    <path d="M 307.907959 199.12726 
L 307.907959 3.00024 
" clip-path="url(#p79bf928750)" style="fill: none; stroke: #d55e00; stroke-width: 2; stroke-linecap: square"/>
   </g>
   <g id="line2d_15">
    <path d="M 1134.676529 199.12726 
L 1134.676529 3.00024 
" clip-path="url(#p79bf928750)" style="fill: none; stroke: #d55e00; stroke-width: 2; stroke-linecap: square"/>
   </g>
   <g id="patch_3">
    <path d="M 71.702428 199.12726 
L 71.702428 3.00024 
" style="fill: none; stroke: #000000; stroke-width: 2; stroke-linejoin: miter; stroke-linecap: square"/>
   </g>
   <g id="patch_4">
    <path d="M 1184.99976 199.12726 
L 1184.99976 3.00024 
" style="fill: none; stroke: #000000; stroke-width: 2; stroke-linejoin: miter; stroke-linecap: square"/>
   </g>
   <g id="patch_5">
    <path d="M 71.702428 199.12726 
L 1184.99976 199.12726 
" style="fill: none; stroke: #000000; stroke-width: 2; stroke-linejoin: miter; stroke-linecap: square"/>
   </g>
   <g id="patch_6">
    <path d="M 71.702428 3.00024 
L 1184.99976 3.00024 
" style="fill: none; stroke: #000000; stroke-width: 2; stroke-linejoin: miter; stroke-linecap: square"/>
   </g>
   <g id="text_15">
    <!-- ANALYSIS -->
    <g style="fill: #d55e00" transform="translate(301.574421 132.000333) rotate(-90) scale(0.14994 -0.14994)">
     <defs>
      <path id="Arial-BoldMT-41" d="M 4597 0 
L 3591 0 
L 3191 1041 
L 1359 1041 
L 981 0 
L 0 0 
L 1784 4581 
L 2763 4581 
L 4597 0 
z
M 2894 1813 
L 2263 3513 
L 1644 1813 
L 2894 1813 
z
" transform="scale(0.015625)"/>
      <path id="Arial-BoldMT-4e" d="M 475 0 
L 475 4581 
L 1375 4581 
L 3250 1522 
L 3250 4581 
L 4109 4581 
L 4109 0 
L 3181 0 
L 1334 2988 
L 1334 0 
L 475 0 
z
" transform="scale(0.015625)"/>
      <path id="Arial-BoldMT-4c" d="M 491 0 
L 491 4544 
L 1416 4544 
L 1416 772 
L 3716 772 
L 3716 0 
L 491 0 
z
" transform="scale(0.015625)"/>
      <path id="Arial-BoldMT-59" d="M 1669 0 
L 1669 1928 
L -9 4581 
L 1075 4581 
L 2153 2769 
L 3209 4581 
L 4275 4581 
L 2591 1922 
L 2591 0 
L 1669 0 
z
" transform="scale(0.015625)"/>
      <path id="Arial-BoldMT-53" d="M 231 1491 
L 1131 1578 
Q 1213 1125 1461 912 
Q 1709 700 2131 700 
Q 2578 700 2804 889 
Q 3031 1078 3031 1331 
Q 3031 1494 2936 1608 
Q 2841 1722 2603 1806 
Q 2441 1863 1863 2006 
Q 1119 2191 819 2459 
Q 397 2838 397 3381 
Q 397 3731 595 4036 
Q 794 4341 1167 4500 
Q 1541 4659 2069 4659 
Q 2931 4659 3367 4281 
Q 3803 3903 3825 3272 
L 2900 3231 
Q 2841 3584 2645 3739 
Q 2450 3894 2059 3894 
Q 1656 3894 1428 3728 
Q 1281 3622 1281 3444 
Q 1281 3281 1419 3166 
Q 1594 3019 2269 2859 
Q 2944 2700 3267 2529 
Q 3591 2359 3773 2064 
Q 3956 1769 3956 1334 
Q 3956 941 3737 597 
Q 3519 253 3119 86 
Q 2719 -81 2122 -81 
Q 1253 -81 787 320 
Q 322 722 231 1491 
z
" transform="scale(0.015625)"/>
     </defs>
     <use xlink:href="#Arial-BoldMT-41"/>
     <use xlink:href="#Arial-BoldMT-4e" x="72.216797"/>
     <use xlink:href="#Arial-BoldMT-41" x="144.433594"/>
     <use xlink:href="#Arial-BoldMT-4c" x="216.650391"/>
     <use xlink:href="#Arial-BoldMT-59" x="268.609375"/>
     <use xlink:href="#Arial-BoldMT-53" x="335.308594"/>
     <use xlink:href="#Arial-BoldMT-49" x="402.007812"/>
     <use xlink:href="#Arial-BoldMT-53" x="429.791016"/>
    </g>
   </g>
   <g id="text_16">
    <!-- START -->
    <g style="fill: #d55e00" transform="translate(325.389514 119.212091) rotate(-90) scale(0.14994 -0.14994)">
     <defs>
      <path id="Arial-BoldMT-54" d="M 1497 0 
L 1497 3806 
L 138 3806 
L 138 4581 
L 3778 4581 
L 3778 3806 
L 2422 3806 
L 2422 0 
L 1497 0 
z
" transform="scale(0.015625)"/>
     </defs>
     <use xlink:href="#Arial-BoldMT-53"/>
     <use xlink:href="#Arial-BoldMT-54" x="66.699219"/>
     <use xlink:href="#Arial-BoldMT-41" x="120.408203"/>
     <use xlink:href="#Arial-BoldMT-52" x="192.625"/>
     <use xlink:href="#Arial-BoldMT-54" x="264.841797"/>
    </g>
   </g>
   <g id="text_17">
    <!-- ANALYSIS -->
    <g style="fill: #d55e00" transform="translate(1128.342991 132.000333) rotate(-90) scale(0.14994 -0.14994)">
     <use xlink:href="#Arial-BoldMT-41"/>
     <use xlink:href="#Arial-BoldMT-4e" x="72.216797"/>
     <use xlink:href="#Arial-BoldMT-41" x="144.433594"/>
     <use xlink:href="#Arial-BoldMT-4c" x="216.650391"/>
     <use xlink:href="#Arial-BoldMT-59" x="268.609375"/>
     <use xlink:href="#Arial-BoldMT-53" x="335.308594"/>
     <use xlink:href="#Arial-BoldMT-49" x="402.007812"/>
     <use xlink:href="#Arial-BoldMT-53" x="429.791016"/>
    </g>
   </g>
   <g id="text_18">
    <!-- END -->
    <g style="fill: #d55e00" transform="translate(1152.158084 110.606941) rotate(-90) scale(0.14994 -0.14994)">
     <defs>
      <path id="Arial-BoldMT-45" d="M 466 0 
L 466 4581 
L 3863 4581 
L 3863 3806 
L 1391 3806 
L 1391 2791 
L 3691 2791 
L 3691 2019 
L 1391 2019 
L 1391 772 
L 3950 772 
L 3950 0 
L 466 0 
z
" transform="scale(0.015625)"/>
      <path id="Arial-BoldMT-44" d="M 463 4581 
L 2153 4581 
Q 2725 4581 3025 4494 
Q 3428 4375 3715 4072 
Q 4003 3769 4153 3330 
Q 4303 2891 4303 2247 
Q 4303 1681 4163 1272 
Q 3991 772 3672 463 
Q 3431 228 3022 97 
Q 2716 0 2203 0 
L 463 0 
L 463 4581 
z
M 1388 3806 
L 1388 772 
L 2078 772 
Q 2466 772 2638 816 
Q 2863 872 3011 1006 
Q 3159 1141 3253 1448 
Q 3347 1756 3347 2288 
Q 3347 2819 3253 3103 
Q 3159 3388 2990 3547 
Q 2822 3706 2563 3763 
Q 2369 3806 1803 3806 
L 1388 3806 
z
" transform="scale(0.015625)"/>
     </defs>
     <use xlink:href="#Arial-BoldMT-45"/>
     <use xlink:href="#Arial-BoldMT-4e" x="66.699219"/>
     <use xlink:href="#Arial-BoldMT-44" x="138.916016"/>
    </g>
   </g>
  </g>
 </g>
 <defs>
  <clipPath id="p79bf928750">
   <rect x="71.702428" y="3.00024" width="1113.297333" height="196.12702"/>
  </clipPath>
 </defs>
</svg>
