<?xml version="1.0" encoding="utf-8" standalone="no"?>
<!DOCTYPE svg PUBLIC "-//W3C//DTD SVG 1.1//EN"
  "http://www.w3.org/Graphics/SVG/1.1/DTD/svg11.dtd">
<svg xmlns:xlink="http://www.w3.org/1999/xlink" width="1188pt" height="252pt" viewBox="0 0 1188 252" xmlns="http://www.w3.org/2000/svg" version="1.1">
 <metadata>
  <rdf:RDF xmlns:dc="http://purl.org/dc/elements/1.1/" xmlns:cc="http://creativecommons.org/ns#" xmlns:rdf="http://www.w3.org/1999/02/22-rdf-syntax-ns#">
   <cc:Work>
    <dc:type rdf:resource="http://purl.org/dc/dcmitype/StillImage"/>
    <dc:date>2024-05-14T23:27:17.081198</dc:date>
    <dc:format>image/svg+xml</dc:format>
    <dc:creator>
     <cc:Agent>
      <dc:title>Matplotlib v3.8.0, https://matplotlib.org/</dc:title>
     </cc:Agent>
    </dc:creator>
   </cc:Work>
  </rdf:RDF>
 </metadata>
 <defs>
  <style type="text/css">*{stroke-linejoin: round; stroke-linecap: butt}</style>
 </defs>
 <g id="figure_1">
  <g id="patch_1">
   <path d="M 0 252 
L 1188 252 
L 1188 0 
L 0 0 
z
" style="fill: #ffffff"/>
  </g>
  <g id="axes_1">
   <g id="patch_2">
    <path d="M 71.702428 199.12726 
L 1184.99976 199.12726 
L 1184.99976 3.00024 
L 71.702428 3.00024 
z
" style="fill: #ffffff"/>
   </g>
   <g id="PolyCollection_1">
    <path d="M 834.142383 176.874006 
L 834.142383 176.760522 
L 834.423579 176.760522 
L 834.704695 176.760522 
L 834.98581 176.760522 
L 835.266925 176.760522 
L 835.548121 176.760522 
L 835.829236 176.760522 
L 836.110352 176.760522 
L 836.391467 176.760522 
L 836.672663 176.760522 
L 836.953778 176.760522 
L 837.234893 176.760522 
L 837.516009 176.760522 
L 837.797204 176.760522 
L 838.07832 176.760522 
L 838.359435 176.760522 
L 838.64055 176.760522 
L 838.921746 176.760522 
L 839.202861 176.760522 
L 839.483977 176.760522 
L 839.765172 176.760522 
L 840.046288 176.760522 
L 840.327403 176.760522 
L 840.608518 176.760522 
L 840.889714 176.760522 
L 841.170829 176.760522 
L 841.451945 176.760522 
L 841.73306 176.760522 
L 842.014256 176.760522 
L 842.295371 176.760522 
L 842.576486 176.760522 
L 842.857602 176.760522 
L 843.138797 176.760522 
L 843.419913 176.760522 
L 843.701028 176.760522 
L 843.982143 176.760522 
L 844.263339 176.760522 
L 844.544454 176.760522 
L 844.82557 176.760522 
L 845.106685 176.760522 
L 845.387881 176.760522 
L 845.668996 176.760522 
L 845.950111 176.760522 
L 846.231227 176.760522 
L 846.512422 176.760522 
L 846.793538 176.760522 
L 847.074653 176.760522 
L 847.355768 176.760522 
L 847.636964 176.760522 
L 847.918079 176.760522 
L 848.199195 176.760522 
L 848.48031 176.760522 
L 848.761506 176.760522 
L 849.042621 176.760522 
L 849.323736 176.760522 
L 849.604852 176.760522 
L 849.886048 176.760522 
L 850.167163 176.760522 
L 850.448278 176.760522 
L 850.729393 176.760522 
L 851.010589 176.760522 
L 851.291705 176.760522 
L 851.57282 176.760522 
L 851.853935 176.760522 
L 852.135131 176.760522 
L 852.416246 176.760522 
L 852.697362 176.760522 
L 852.978477 176.760522 
L 853.259673 176.760522 
L 853.540788 176.760522 
L 853.821903 176.760522 
L 854.103019 176.760522 
L 854.384214 176.760522 
L 854.66533 176.760522 
L 854.946445 176.760522 
L 855.22756 176.760522 
L 855.508756 176.760522 
L 855.789871 176.760522 
L 856.070987 176.760522 
L 856.352102 176.760522 
L 856.633298 176.760522 
L 856.914413 176.760522 
L 856.914413 176.671876 
L 856.914413 176.671876 
L 856.633298 176.503661 
L 856.352102 176.33453 
L 856.070987 176.162664 
L 855.789871 175.993052 
L 855.508756 175.823843 
L 855.22756 175.659655 
L 854.946445 175.495958 
L 854.66533 175.340363 
L 854.384214 175.190066 
L 854.103019 175.050329 
L 853.821903 174.920218 
L 853.540788 174.804613 
L 853.259673 174.700171 
L 852.978477 174.609548 
L 852.697362 174.533063 
L 852.416246 174.470937 
L 852.135131 174.425802 
L 851.853935 174.399128 
L 851.57282 174.384146 
L 851.291705 174.378525 
L 851.010589 174.377524 
L 850.729393 174.368837 
L 850.448278 174.340408 
L 850.167163 174.288079 
L 849.886048 174.198364 
L 849.604852 174.062518 
L 849.323736 173.874852 
L 849.042621 173.632128 
L 848.761506 173.325378 
L 848.48031 172.951222 
L 848.199195 172.506475 
L 847.918079 171.989152 
L 847.636964 171.395327 
L 847.355768 170.725976 
L 847.074653 169.977404 
L 846.793538 169.143803 
L 846.512422 168.218053 
L 846.231227 167.194147 
L 845.950111 166.063285 
L 845.668996 164.825185 
L 845.387881 163.475934 
L 845.106685 162.016178 
L 844.82557 160.447888 
L 844.544454 158.780256 
L 844.263339 157.013265 
L 843.982143 155.161522 
L 843.701028 153.238179 
L 843.419913 151.260075 
L 843.138797 149.244005 
L 842.857602 147.221078 
L 842.576486 145.21611 
L 842.295371 143.261728 
L 842.014256 141.390968 
L 841.73306 139.640864 
L 841.451945 138.042339 
L 841.170829 136.635257 
L 840.889714 135.450678 
L 840.608518 134.527733 
L 840.327403 133.902241 
L 840.046288 133.612534 
L 839.765172 133.685581 
L 839.483977 134.150315 
L 839.202861 135.02274 
L 838.921746 136.305556 
L 838.64055 137.993008 
L 838.359435 140.073122 
L 838.07832 142.517518 
L 837.797204 145.278283 
L 837.516009 148.304789 
L 837.234893 151.526493 
L 836.953778 154.855167 
L 836.672663 158.201208 
L 836.391467 161.473299 
L 836.110352 164.575492 
L 835.829236 167.423604 
L 835.548121 169.948971 
L 835.266925 172.100028 
L 834.98581 173.853236 
L 834.704695 175.210687 
L 834.423579 176.199694 
L 834.142383 176.874006 
z
" clip-path="url(#pebbd466f4e)" style="fill: #d55e00"/>
   </g>
   <g id="PolyCollection_2">
    <path d="M 930.290818 172.176818 
L 930.290818 172.620814 
L 930.571934 172.620814 
L 930.853129 172.620814 
L 931.134245 172.620814 
L 931.41536 172.620814 
L 931.696475 172.620814 
L 931.977671 172.620814 
L 932.258786 172.620814 
L 932.539902 172.620814 
L 932.821017 172.620814 
L 933.102213 172.620814 
L 933.383328 172.620814 
L 933.664443 172.620814 
L 933.945559 172.620814 
L 934.226755 172.620814 
L 934.50787 172.620814 
L 934.788985 172.620814 
L 935.0701 172.620814 
L 935.351296 172.620814 
L 935.632412 172.620814 
L 935.913527 172.620814 
L 936.194642 172.620814 
L 936.475838 172.620814 
L 936.756953 172.620814 
L 937.038069 172.620814 
L 937.319184 172.620814 
L 937.60038 172.620814 
L 937.881495 172.620814 
L 938.16261 172.620814 
L 938.443726 172.620814 
L 938.724921 172.620814 
L 939.006037 172.620814 
L 939.287152 172.620814 
L 939.568267 172.620814 
L 939.849463 172.620814 
L 940.130578 172.620814 
L 940.411694 172.620814 
L 940.692809 172.620814 
L 940.974005 172.620814 
L 941.25512 172.620814 
L 941.536235 172.620814 
L 941.817351 172.620814 
L 942.098546 172.620814 
L 942.379662 172.620814 
L 942.660777 172.620814 
L 942.941892 172.620814 
L 943.223088 172.620814 
L 943.504203 172.620814 
L 943.785319 172.620814 
L 944.066434 172.620814 
L 944.34763 172.620814 
L 944.628745 172.620814 
L 944.90986 172.620814 
L 945.191056 172.620814 
L 945.472171 172.620814 
L 945.753287 172.620814 
L 946.034402 172.620814 
L 946.315598 172.620814 
L 946.596713 172.620814 
L 946.877828 172.620814 
L 947.158944 172.620814 
L 947.440139 172.620814 
L 947.721255 172.620814 
L 948.00237 172.620814 
L 948.283485 172.620814 
L 948.564681 172.620814 
L 948.845796 172.620814 
L 949.126912 172.620814 
L 949.408027 172.620814 
L 949.689223 172.620814 
L 949.970338 172.620814 
L 950.251453 172.620814 
L 950.532569 172.620814 
L 950.813765 172.620814 
L 951.09488 172.620814 
L 951.375995 172.620814 
L 951.65711 172.620814 
L 951.938306 172.620814 
L 952.219422 172.620814 
L 952.500537 172.620814 
L 952.781652 172.620814 
L 953.062848 172.620814 
L 953.343963 172.620814 
L 953.625079 172.620814 
L 953.906194 172.620814 
L 954.18739 172.620814 
L 954.468505 172.620814 
L 954.74962 172.620814 
L 955.030736 172.620814 
L 955.311931 172.620814 
L 955.593047 172.620814 
L 955.874162 172.620814 
L 956.155277 172.620814 
L 956.436473 172.620814 
L 956.717588 172.620814 
L 956.998704 172.620814 
L 957.279819 172.620814 
L 957.561015 172.620814 
L 957.84213 172.620814 
L 958.123245 172.620814 
L 958.404361 172.620814 
L 958.685556 172.620814 
L 958.966672 172.620814 
L 959.247787 172.620814 
L 959.528902 172.620814 
L 959.810098 172.620814 
L 960.091213 172.620814 
L 960.372329 172.620814 
L 960.653444 172.620814 
L 960.93464 172.620814 
L 961.215755 172.620814 
L 961.49687 172.620814 
L 961.777986 172.620814 
L 962.059181 172.620814 
L 962.340297 172.620814 
L 962.621412 172.620814 
L 962.902527 172.620814 
L 963.183723 172.620814 
L 963.464838 172.620814 
L 963.745954 172.620814 
L 964.027069 172.620814 
L 964.308265 172.620814 
L 964.58938 172.620814 
L 964.870495 172.620814 
L 965.151611 172.620814 
L 965.432806 172.620814 
L 965.713922 172.620814 
L 965.995037 172.620814 
L 966.276233 172.620814 
L 966.276233 172.26697 
L 966.276233 172.26697 
L 965.995037 171.868436 
L 965.713922 171.444745 
L 965.432806 170.993747 
L 965.151611 170.517462 
L 964.870495 170.006555 
L 964.58938 169.460543 
L 964.308265 168.877627 
L 964.027069 168.253767 
L 963.745954 167.581564 
L 963.464838 166.861273 
L 963.183723 166.087747 
L 962.902527 165.254896 
L 962.621412 164.353636 
L 962.340297 163.378916 
L 962.059181 162.324243 
L 961.777986 161.178362 
L 961.49687 159.93423 
L 961.215755 158.587241 
L 960.93464 157.127699 
L 960.653444 155.54498 
L 960.372329 153.834398 
L 960.091213 151.980523 
L 959.810098 149.978424 
L 959.528902 147.820228 
L 959.247787 145.5017 
L 958.966672 143.019328 
L 958.685556 140.379649 
L 958.404361 137.580381 
L 958.123245 134.63429 
L 957.84213 131.548653 
L 957.561015 128.337577 
L 957.279819 125.024634 
L 956.998704 121.630326 
L 956.717588 118.178653 
L 956.436473 114.713662 
L 956.155277 111.265113 
L 955.874162 107.859968 
L 955.593047 104.549085 
L 955.311931 101.365829 
L 955.030736 98.328435 
L 954.74962 95.485284 
L 954.468505 92.883164 
L 954.18739 90.542029 
L 953.906194 88.484318 
L 953.625079 86.767431 
L 953.343963 85.415951 
L 953.062848 84.452699 
L 952.781652 83.922638 
L 952.500537 83.90578 
L 952.219422 84.429847 
L 951.938306 85.546506 
L 951.65711 87.317953 
L 951.375995 89.794387 
L 951.09488 92.991115 
L 950.813765 96.926598 
L 950.532569 101.58756 
L 950.251453 106.910652 
L 949.970338 112.792846 
L 949.689223 119.07493 
L 949.408027 125.561168 
L 949.126912 132.022284 
L 948.845796 138.224469 
L 948.564681 143.942986 
L 948.283485 148.996237 
L 948.00237 153.259006 
L 947.721255 156.66655 
L 947.440139 159.213413 
L 947.158944 160.950301 
L 946.877828 161.967577 
L 946.596713 162.368419 
L 946.315598 162.266059 
L 946.034402 161.766607 
L 945.753287 160.954117 
L 945.472171 159.891972 
L 945.191056 158.625846 
L 944.90986 157.182488 
L 944.628745 155.57391 
L 944.34763 153.801963 
L 944.066434 151.870899 
L 943.785319 149.770917 
L 943.504203 147.495084 
L 943.223088 145.034568 
L 942.941892 142.389517 
L 942.660777 139.542387 
L 942.379662 136.499134 
L 942.098546 133.263079 
L 941.817351 129.842866 
L 941.536235 126.242441 
L 941.25512 122.485762 
L 940.974005 118.594832 
L 940.692809 114.589212 
L 940.411694 110.502075 
L 940.130578 106.371391 
L 939.849463 102.243861 
L 939.568267 98.158776 
L 939.287152 94.169625 
L 939.006037 90.309291 
L 938.724921 86.618316 
L 938.443726 83.133436 
L 938.16261 79.90052 
L 937.881495 76.945903 
L 937.60038 74.313124 
L 937.319184 72.043557 
L 937.038069 70.160727 
L 936.756953 68.677215 
L 936.475838 67.639526 
L 936.194642 67.0854 
L 935.913527 67.054044 
L 935.632412 67.593163 
L 935.351296 68.777749 
L 935.0701 70.660728 
L 934.788985 73.311392 
L 934.50787 76.798167 
L 934.226755 81.18232 
L 933.945559 86.483467 
L 933.664443 92.687064 
L 933.383328 99.723297 
L 933.102213 107.445433 
L 932.821017 115.656665 
L 932.539902 124.108761 
L 932.258786 132.519903 
L 931.977671 140.603415 
L 931.696475 148.105479 
L 931.41536 154.819023 
L 931.134245 160.603208 
L 930.853129 165.406513 
L 930.571934 169.238309 
L 930.290818 172.176818 
z
" clip-path="url(#pebbd466f4e)" style="fill: #0072b2"/>
   </g>
   <g id="PolyCollection_3">
    <path d="M 947.440139 159.213413 
L 947.440139 158.445287 
L 947.721255 158.445287 
L 948.00237 158.445287 
L 948.283485 158.445287 
L 948.564681 158.445287 
L 948.845796 158.445287 
L 949.126912 158.445287 
L 949.408027 158.445287 
L 949.689223 158.445287 
L 949.970338 158.445287 
L 950.251453 158.445287 
L 950.532569 158.445287 
L 950.813765 158.445287 
L 951.09488 158.445287 
L 951.375995 158.445287 
L 951.65711 158.445287 
L 951.938306 158.445287 
L 952.219422 158.445287 
L 952.500537 158.445287 
L 952.781652 158.445287 
L 953.062848 158.445287 
L 953.343963 158.445287 
L 953.625079 158.445287 
L 953.906194 158.445287 
L 954.18739 158.445287 
L 954.468505 158.445287 
L 954.74962 158.445287 
L 955.030736 158.445287 
L 955.311931 158.445287 
L 955.593047 158.445287 
L 955.874162 158.445287 
L 956.155277 158.445287 
L 956.436473 158.445287 
L 956.717588 158.445287 
L 956.998704 158.445287 
L 957.279819 158.445287 
L 957.561015 158.445287 
L 957.84213 158.445287 
L 958.123245 158.445287 
L 958.404361 158.445287 
L 958.685556 158.445287 
L 958.966672 158.445287 
L 959.247787 158.445287 
L 959.528902 158.445287 
L 959.810098 158.445287 
L 960.091213 158.445287 
L 960.372329 158.445287 
L 960.653444 158.445287 
L 960.93464 158.445287 
L 960.93464 157.127699 
L 960.93464 157.127699 
L 960.653444 155.54498 
L 960.372329 153.834398 
L 960.091213 151.980523 
L 959.810098 149.978424 
L 959.528902 147.820228 
L 959.247787 145.5017 
L 958.966672 143.019328 
L 958.685556 140.379649 
L 958.404361 137.580381 
L 958.123245 134.63429 
L 957.84213 131.548653 
L 957.561015 128.337577 
L 957.279819 125.024634 
L 956.998704 121.630326 
L 956.717588 118.178653 
L 956.436473 114.713662 
L 956.155277 111.265113 
L 955.874162 107.859968 
L 955.593047 104.549085 
L 955.311931 101.365829 
L 955.030736 98.328435 
L 954.74962 95.485284 
L 954.468505 92.883164 
L 954.18739 90.542029 
L 953.906194 88.484318 
L 953.625079 86.767431 
L 953.343963 85.415951 
L 953.062848 84.452699 
L 952.781652 83.922638 
L 952.500537 83.90578 
L 952.219422 84.429847 
L 951.938306 85.546506 
L 951.65711 87.317953 
L 951.375995 89.794387 
L 951.09488 92.991115 
L 950.813765 96.926598 
L 950.532569 101.58756 
L 950.251453 106.910652 
L 949.970338 112.792846 
L 949.689223 119.07493 
L 949.408027 125.561168 
L 949.126912 132.022284 
L 948.845796 138.224469 
L 948.564681 143.942986 
L 948.283485 148.996237 
L 948.00237 153.259006 
L 947.721255 156.66655 
L 947.440139 159.213413 
z
" clip-path="url(#pebbd466f4e)" style="fill: #009e73"/>
   </g>
   <g id="PathCollection_1">
    <defs>
     <path id="m76c16eefa6" d="M 0 -5.91608 
L -1.328243 -1.828169 
L -5.626526 -1.828169 
L -2.149142 0.698298 
L -3.477384 4.786209 
L -0 2.259741 
L 3.477384 4.786209 
L 2.149142 0.698298 
L 5.626526 -1.828169 
L 1.328243 -1.828169 
z
" style="stroke: #000000; stroke-width: 1.5"/>
    </defs>
    <g clip-path="url(#pebbd466f4e)">
     <use xlink:href="#m76c16eefa6" x="935.351267" y="52.215408" style="stroke: #000000; stroke-width: 1.5"/>
    </g>
   </g>
   <g id="PathCollection_2">
    <g clip-path="url(#pebbd466f4e)">
     <use xlink:href="#m76c16eefa6" x="952.219409" y="67.867506" style="stroke: #000000; stroke-width: 1.5"/>
    </g>
   </g>
   <g id="matplotlib.axis_1">
    <g id="xtick_1">
     <g id="line2d_1">
      <defs>
       <path id="m2b64b38c3a" d="M 0 0 
L 0 8 
" style="stroke: #000000; stroke-width: 2"/>
      </defs>
      <g>
       <use xlink:href="#m2b64b38c3a" x="122.306852" y="199.12726" style="stroke: #000000; stroke-width: 2"/>
      </g>
     </g>
     <g id="text_1">
      <!-- 0.0 -->
      <g transform="translate(109.796852 225.011323) scale(0.18 -0.18)">
       <defs>
        <path id="Arial-BoldMT-30" d="M 1756 4600 
Q 2422 4600 2797 4125 
Q 3244 3563 3244 2259 
Q 3244 959 2794 391 
Q 2422 -78 1756 -78 
Q 1088 -78 678 436 
Q 269 950 269 2269 
Q 269 3563 719 4131 
Q 1091 4600 1756 4600 
z
M 1756 3872 
Q 1597 3872 1472 3770 
Q 1347 3669 1278 3406 
Q 1188 3066 1188 2259 
Q 1188 1453 1269 1151 
Q 1350 850 1473 750 
Q 1597 650 1756 650 
Q 1916 650 2041 751 
Q 2166 853 2234 1116 
Q 2325 1453 2325 2259 
Q 2325 3066 2244 3367 
Q 2163 3669 2039 3770 
Q 1916 3872 1756 3872 
z
" transform="scale(0.015625)"/>
        <path id="Arial-BoldMT-2e" d="M 459 0 
L 459 878 
L 1338 878 
L 1338 0 
L 459 0 
z
" transform="scale(0.015625)"/>
       </defs>
       <use xlink:href="#Arial-BoldMT-30"/>
       <use xlink:href="#Arial-BoldMT-2e" x="55.615234"/>
       <use xlink:href="#Arial-BoldMT-30" x="83.398438"/>
      </g>
     </g>
    </g>
    <g id="xtick_2">
     <g id="line2d_2">
      <g>
       <use xlink:href="#m2b64b38c3a" x="290.988266" y="199.12726" style="stroke: #000000; stroke-width: 2"/>
      </g>
     </g>
     <g id="text_2">
      <!-- 0.5 -->
      <g transform="translate(278.478266 225.011323) scale(0.18 -0.18)">
       <defs>
        <path id="Arial-BoldMT-35" d="M 284 1178 
L 1159 1269 
Q 1197 972 1381 798 
Q 1566 625 1806 625 
Q 2081 625 2272 848 
Q 2463 1072 2463 1522 
Q 2463 1944 2273 2155 
Q 2084 2366 1781 2366 
Q 1403 2366 1103 2031 
L 391 2134 
L 841 4519 
L 3163 4519 
L 3163 3697 
L 1506 3697 
L 1369 2919 
Q 1663 3066 1969 3066 
Q 2553 3066 2959 2641 
Q 3366 2216 3366 1538 
Q 3366 972 3038 528 
Q 2591 -78 1797 -78 
Q 1163 -78 763 262 
Q 363 603 284 1178 
z
" transform="scale(0.015625)"/>
       </defs>
       <use xlink:href="#Arial-BoldMT-30"/>
       <use xlink:href="#Arial-BoldMT-2e" x="55.615234"/>
       <use xlink:href="#Arial-BoldMT-35" x="83.398438"/>
      </g>
     </g>
    </g>
    <g id="xtick_3">
     <g id="line2d_3">
      <g>
       <use xlink:href="#m2b64b38c3a" x="459.66968" y="199.12726" style="stroke: #000000; stroke-width: 2"/>
      </g>
     </g>
     <g id="text_3">
      <!-- 1.0 -->
      <g transform="translate(447.15968 225.011323) scale(0.18 -0.18)">
       <defs>
        <path id="Arial-BoldMT-31" d="M 2519 0 
L 1641 0 
L 1641 3309 
Q 1159 2859 506 2644 
L 506 3441 
Q 850 3553 1253 3867 
Q 1656 4181 1806 4600 
L 2519 4600 
L 2519 0 
z
" transform="scale(0.015625)"/>
       </defs>
       <use xlink:href="#Arial-BoldMT-31"/>
       <use xlink:href="#Arial-BoldMT-2e" x="55.615234"/>
       <use xlink:href="#Arial-BoldMT-30" x="83.398438"/>
      </g>
     </g>
    </g>
    <g id="xtick_4">
     <g id="line2d_4">
      <g>
       <use xlink:href="#m2b64b38c3a" x="628.351094" y="199.12726" style="stroke: #000000; stroke-width: 2"/>
      </g>
     </g>
     <g id="text_4">
      <!-- 1.5 -->
      <g transform="translate(615.841094 225.011323) scale(0.18 -0.18)">
       <use xlink:href="#Arial-BoldMT-31"/>
       <use xlink:href="#Arial-BoldMT-2e" x="55.615234"/>
       <use xlink:href="#Arial-BoldMT-35" x="83.398438"/>
      </g>
     </g>
    </g>
    <g id="xtick_5">
     <g id="line2d_5">
      <g>
       <use xlink:href="#m2b64b38c3a" x="797.032508" y="199.12726" style="stroke: #000000; stroke-width: 2"/>
      </g>
     </g>
     <g id="text_5">
      <!-- 2.0 -->
      <g transform="translate(784.522508 225.011323) scale(0.18 -0.18)">
       <defs>
        <path id="Arial-BoldMT-32" d="M 3238 816 
L 3238 0 
L 159 0 
Q 209 463 459 877 
Q 709 1291 1447 1975 
Q 2041 2528 2175 2725 
Q 2356 2997 2356 3263 
Q 2356 3556 2198 3714 
Q 2041 3872 1763 3872 
Q 1488 3872 1325 3706 
Q 1163 3541 1138 3156 
L 263 3244 
Q 341 3969 753 4284 
Q 1166 4600 1784 4600 
Q 2463 4600 2850 4234 
Q 3238 3869 3238 3325 
Q 3238 3016 3127 2736 
Q 3016 2456 2775 2150 
Q 2616 1947 2200 1565 
Q 1784 1184 1673 1059 
Q 1563 934 1494 816 
L 3238 816 
z
" transform="scale(0.015625)"/>
       </defs>
       <use xlink:href="#Arial-BoldMT-32"/>
       <use xlink:href="#Arial-BoldMT-2e" x="55.615234"/>
       <use xlink:href="#Arial-BoldMT-30" x="83.398438"/>
      </g>
     </g>
    </g>
    <g id="xtick_6">
     <g id="line2d_6">
      <g>
       <use xlink:href="#m2b64b38c3a" x="965.713922" y="199.12726" style="stroke: #000000; stroke-width: 2"/>
      </g>
     </g>
     <g id="text_6">
      <!-- 2.5 -->
      <g transform="translate(953.203922 225.011323) scale(0.18 -0.18)">
       <use xlink:href="#Arial-BoldMT-32"/>
       <use xlink:href="#Arial-BoldMT-2e" x="55.615234"/>
       <use xlink:href="#Arial-BoldMT-35" x="83.398438"/>
      </g>
     </g>
    </g>
    <g id="xtick_7">
     <g id="line2d_7">
      <g>
       <use xlink:href="#m2b64b38c3a" x="1134.395336" y="199.12726" style="stroke: #000000; stroke-width: 2"/>
      </g>
     </g>
     <g id="text_7">
      <!-- 3.0 -->
      <g transform="translate(1121.885336 225.011323) scale(0.18 -0.18)">
       <defs>
        <path id="Arial-BoldMT-33" d="M 241 1216 
L 1091 1319 
Q 1131 994 1309 822 
Q 1488 650 1741 650 
Q 2013 650 2198 856 
Q 2384 1063 2384 1413 
Q 2384 1744 2206 1937 
Q 2028 2131 1772 2131 
Q 1603 2131 1369 2066 
L 1466 2781 
Q 1822 2772 2009 2936 
Q 2197 3100 2197 3372 
Q 2197 3603 2059 3740 
Q 1922 3878 1694 3878 
Q 1469 3878 1309 3722 
Q 1150 3566 1116 3266 
L 306 3403 
Q 391 3819 561 4067 
Q 731 4316 1036 4458 
Q 1341 4600 1719 4600 
Q 2366 4600 2756 4188 
Q 3078 3850 3078 3425 
Q 3078 2822 2419 2463 
Q 2813 2378 3048 2084 
Q 3284 1791 3284 1375 
Q 3284 772 2843 347 
Q 2403 -78 1747 -78 
Q 1125 -78 715 280 
Q 306 638 241 1216 
z
" transform="scale(0.015625)"/>
       </defs>
       <use xlink:href="#Arial-BoldMT-33"/>
       <use xlink:href="#Arial-BoldMT-2e" x="55.615234"/>
       <use xlink:href="#Arial-BoldMT-30" x="83.398438"/>
      </g>
     </g>
    </g>
    <g id="text_8">
     <!-- Retention time / min -->
     <g transform="translate(542.350469 245.447573) scale(0.18 -0.18)">
      <defs>
       <path id="Arial-BoldMT-52" d="M 469 0 
L 469 4581 
L 2416 4581 
Q 3150 4581 3483 4457 
Q 3816 4334 4016 4018 
Q 4216 3703 4216 3297 
Q 4216 2781 3912 2445 
Q 3609 2109 3006 2022 
Q 3306 1847 3501 1637 
Q 3697 1428 4028 894 
L 4588 0 
L 3481 0 
L 2813 997 
Q 2456 1531 2325 1670 
Q 2194 1809 2047 1861 
Q 1900 1913 1581 1913 
L 1394 1913 
L 1394 0 
L 469 0 
z
M 1394 2644 
L 2078 2644 
Q 2744 2644 2909 2700 
Q 3075 2756 3169 2893 
Q 3263 3031 3263 3238 
Q 3263 3469 3139 3611 
Q 3016 3753 2791 3791 
Q 2678 3806 2116 3806 
L 1394 3806 
L 1394 2644 
z
" transform="scale(0.015625)"/>
       <path id="Arial-BoldMT-65" d="M 2381 1056 
L 3256 909 
Q 3088 428 2723 176 
Q 2359 -75 1813 -75 
Q 947 -75 531 491 
Q 203 944 203 1634 
Q 203 2459 634 2926 
Q 1066 3394 1725 3394 
Q 2466 3394 2894 2905 
Q 3322 2416 3303 1406 
L 1103 1406 
Q 1113 1016 1316 798 
Q 1519 581 1822 581 
Q 2028 581 2168 693 
Q 2309 806 2381 1056 
z
M 2431 1944 
Q 2422 2325 2234 2523 
Q 2047 2722 1778 2722 
Q 1491 2722 1303 2513 
Q 1116 2303 1119 1944 
L 2431 1944 
z
" transform="scale(0.015625)"/>
       <path id="Arial-BoldMT-74" d="M 1981 3319 
L 1981 2619 
L 1381 2619 
L 1381 1281 
Q 1381 875 1398 808 
Q 1416 741 1477 697 
Q 1538 653 1625 653 
Q 1747 653 1978 738 
L 2053 56 
Q 1747 -75 1359 -75 
Q 1122 -75 931 4 
Q 741 84 652 211 
Q 563 338 528 553 
Q 500 706 500 1172 
L 500 2619 
L 97 2619 
L 97 3319 
L 500 3319 
L 500 3978 
L 1381 4491 
L 1381 3319 
L 1981 3319 
z
" transform="scale(0.015625)"/>
       <path id="Arial-BoldMT-6e" d="M 3478 0 
L 2600 0 
L 2600 1694 
Q 2600 2231 2544 2389 
Q 2488 2547 2361 2634 
Q 2234 2722 2056 2722 
Q 1828 2722 1647 2597 
Q 1466 2472 1398 2265 
Q 1331 2059 1331 1503 
L 1331 0 
L 453 0 
L 453 3319 
L 1269 3319 
L 1269 2831 
Q 1703 3394 2363 3394 
Q 2653 3394 2893 3289 
Q 3134 3184 3257 3021 
Q 3381 2859 3429 2653 
Q 3478 2447 3478 2063 
L 3478 0 
z
" transform="scale(0.015625)"/>
       <path id="Arial-BoldMT-69" d="M 459 3769 
L 459 4581 
L 1338 4581 
L 1338 3769 
L 459 3769 
z
M 459 0 
L 459 3319 
L 1338 3319 
L 1338 0 
L 459 0 
z
" transform="scale(0.015625)"/>
       <path id="Arial-BoldMT-6f" d="M 256 1706 
Q 256 2144 472 2553 
Q 688 2963 1083 3178 
Q 1478 3394 1966 3394 
Q 2719 3394 3200 2905 
Q 3681 2416 3681 1669 
Q 3681 916 3195 420 
Q 2709 -75 1972 -75 
Q 1516 -75 1102 131 
Q 688 338 472 736 
Q 256 1134 256 1706 
z
M 1156 1659 
Q 1156 1166 1390 903 
Q 1625 641 1969 641 
Q 2313 641 2545 903 
Q 2778 1166 2778 1666 
Q 2778 2153 2545 2415 
Q 2313 2678 1969 2678 
Q 1625 2678 1390 2415 
Q 1156 2153 1156 1659 
z
" transform="scale(0.015625)"/>
       <path id="Arial-BoldMT-20" transform="scale(0.015625)"/>
       <path id="Arial-BoldMT-6d" d="M 394 3319 
L 1203 3319 
L 1203 2866 
Q 1638 3394 2238 3394 
Q 2556 3394 2790 3262 
Q 3025 3131 3175 2866 
Q 3394 3131 3647 3262 
Q 3900 3394 4188 3394 
Q 4553 3394 4806 3245 
Q 5059 3097 5184 2809 
Q 5275 2597 5275 2122 
L 5275 0 
L 4397 0 
L 4397 1897 
Q 4397 2391 4306 2534 
Q 4184 2722 3931 2722 
Q 3747 2722 3584 2609 
Q 3422 2497 3350 2280 
Q 3278 2063 3278 1594 
L 3278 0 
L 2400 0 
L 2400 1819 
Q 2400 2303 2353 2443 
Q 2306 2584 2207 2653 
Q 2109 2722 1941 2722 
Q 1738 2722 1575 2612 
Q 1413 2503 1342 2297 
Q 1272 2091 1272 1613 
L 1272 0 
L 394 0 
L 394 3319 
z
" transform="scale(0.015625)"/>
       <path id="Arial-BoldMT-2f" d="M -9 -78 
L 1125 4659 
L 1784 4659 
L 638 -78 
L -9 -78 
z
" transform="scale(0.015625)"/>
      </defs>
      <use xlink:href="#Arial-BoldMT-52"/>
      <use xlink:href="#Arial-BoldMT-65" x="72.216797"/>
      <use xlink:href="#Arial-BoldMT-74" x="127.832031"/>
      <use xlink:href="#Arial-BoldMT-65" x="161.132812"/>
      <use xlink:href="#Arial-BoldMT-6e" x="216.748047"/>
      <use xlink:href="#Arial-BoldMT-74" x="277.832031"/>
      <use xlink:href="#Arial-BoldMT-69" x="311.132812"/>
      <use xlink:href="#Arial-BoldMT-6f" x="338.916016"/>
      <use xlink:href="#Arial-BoldMT-6e" x="400"/>
      <use xlink:href="#Arial-BoldMT-20" x="461.083984"/>
      <use xlink:href="#Arial-BoldMT-74" x="488.867188"/>
      <use xlink:href="#Arial-BoldMT-69" x="522.167969"/>
      <use xlink:href="#Arial-BoldMT-6d" x="549.951172"/>
      <use xlink:href="#Arial-BoldMT-65" x="638.867188"/>
      <use xlink:href="#Arial-BoldMT-20" x="694.482422"/>
      <use xlink:href="#Arial-BoldMT-2f" x="722.265625"/>
      <use xlink:href="#Arial-BoldMT-20" x="750.048828"/>
      <use xlink:href="#Arial-BoldMT-6d" x="777.832031"/>
      <use xlink:href="#Arial-BoldMT-69" x="866.748047"/>
      <use xlink:href="#Arial-BoldMT-6e" x="894.53125"/>
     </g>
    </g>
   </g>
   <g id="matplotlib.axis_2">
    <g id="ytick_1">
     <g id="line2d_8">
      <defs>
       <path id="m2317aed7e5" d="M 0 0 
L -8 0 
" style="stroke: #000000; stroke-width: 2"/>
      </defs>
      <g>
       <use xlink:href="#m2317aed7e5" x="71.702428" y="177.538512" style="stroke: #000000; stroke-width: 2"/>
      </g>
     </g>
     <g id="text_9">
      <!-- 0.00 -->
      <g transform="translate(23.67274 183.980543) scale(0.18 -0.18)">
       <use xlink:href="#Arial-BoldMT-30"/>
       <use xlink:href="#Arial-BoldMT-2e" x="55.615234"/>
       <use xlink:href="#Arial-BoldMT-30" x="83.398438"/>
       <use xlink:href="#Arial-BoldMT-30" x="139.013672"/>
      </g>
     </g>
    </g>
    <g id="ytick_2">
     <g id="line2d_9">
      <g>
       <use xlink:href="#m2317aed7e5" x="71.702428" y="136.13266" style="stroke: #000000; stroke-width: 2"/>
      </g>
     </g>
     <g id="text_10">
      <!-- 0.25 -->
      <g transform="translate(23.67274 142.574691) scale(0.18 -0.18)">
       <use xlink:href="#Arial-BoldMT-30"/>
       <use xlink:href="#Arial-BoldMT-2e" x="55.615234"/>
       <use xlink:href="#Arial-BoldMT-32" x="83.398438"/>
       <use xlink:href="#Arial-BoldMT-35" x="139.013672"/>
      </g>
     </g>
    </g>
    <g id="ytick_3">
     <g id="line2d_10">
      <g>
       <use xlink:href="#m2317aed7e5" x="71.702428" y="94.726808" style="stroke: #000000; stroke-width: 2"/>
      </g>
     </g>
     <g id="text_11">
      <!-- 0.50 -->
      <g transform="translate(23.67274 101.168839) scale(0.18 -0.18)">
       <use xlink:href="#Arial-BoldMT-30"/>
       <use xlink:href="#Arial-BoldMT-2e" x="55.615234"/>
       <use xlink:href="#Arial-BoldMT-35" x="83.398438"/>
       <use xlink:href="#Arial-BoldMT-30" x="139.013672"/>
      </g>
     </g>
    </g>
    <g id="ytick_4">
     <g id="line2d_11">
      <g>
       <use xlink:href="#m2317aed7e5" x="71.702428" y="53.320956" style="stroke: #000000; stroke-width: 2"/>
      </g>
     </g>
     <g id="text_12">
      <!-- 0.75 -->
      <g transform="translate(23.67274 59.762988) scale(0.18 -0.18)">
       <defs>
        <path id="Arial-BoldMT-37" d="M 272 3703 
L 272 4519 
L 3275 4519 
L 3275 3881 
Q 2903 3516 2518 2831 
Q 2134 2147 1932 1376 
Q 1731 606 1734 0 
L 888 0 
Q 909 950 1279 1937 
Q 1650 2925 2269 3703 
L 272 3703 
z
" transform="scale(0.015625)"/>
       </defs>
       <use xlink:href="#Arial-BoldMT-30"/>
       <use xlink:href="#Arial-BoldMT-2e" x="55.615234"/>
       <use xlink:href="#Arial-BoldMT-37" x="83.398438"/>
       <use xlink:href="#Arial-BoldMT-35" x="139.013672"/>
      </g>
     </g>
    </g>
    <g id="ytick_5">
     <g id="line2d_12">
      <g>
       <use xlink:href="#m2317aed7e5" x="71.702428" y="11.915105" style="stroke: #000000; stroke-width: 2"/>
      </g>
     </g>
     <g id="text_13">
      <!-- 1.00 -->
      <g transform="translate(23.67274 18.357136) scale(0.18 -0.18)">
       <use xlink:href="#Arial-BoldMT-31"/>
       <use xlink:href="#Arial-BoldMT-2e" x="55.615234"/>
       <use xlink:href="#Arial-BoldMT-30" x="83.398438"/>
       <use xlink:href="#Arial-BoldMT-30" x="139.013672"/>
      </g>
     </g>
    </g>
    <g id="text_14">
     <!-- Rel. Intensity -->
     <g transform="translate(15.884303 157.071875) rotate(-90) scale(0.18 -0.18)">
      <defs>
       <path id="Arial-BoldMT-6c" d="M 459 0 
L 459 4581 
L 1338 4581 
L 1338 0 
L 459 0 
z
" transform="scale(0.015625)"/>
       <path id="Arial-BoldMT-49" d="M 438 0 
L 438 4581 
L 1363 4581 
L 1363 0 
L 438 0 
z
" transform="scale(0.015625)"/>
       <path id="Arial-BoldMT-73" d="M 150 947 
L 1031 1081 
Q 1088 825 1259 692 
Q 1431 559 1741 559 
Q 2081 559 2253 684 
Q 2369 772 2369 919 
Q 2369 1019 2306 1084 
Q 2241 1147 2013 1200 
Q 950 1434 666 1628 
Q 272 1897 272 2375 
Q 272 2806 612 3100 
Q 953 3394 1669 3394 
Q 2350 3394 2681 3172 
Q 3013 2950 3138 2516 
L 2309 2363 
Q 2256 2556 2107 2659 
Q 1959 2763 1684 2763 
Q 1338 2763 1188 2666 
Q 1088 2597 1088 2488 
Q 1088 2394 1175 2328 
Q 1294 2241 1995 2081 
Q 2697 1922 2975 1691 
Q 3250 1456 3250 1038 
Q 3250 581 2869 253 
Q 2488 -75 1741 -75 
Q 1063 -75 667 200 
Q 272 475 150 947 
z
" transform="scale(0.015625)"/>
       <path id="Arial-BoldMT-79" d="M 44 3319 
L 978 3319 
L 1772 963 
L 2547 3319 
L 3456 3319 
L 2284 125 
L 2075 -453 
Q 1959 -744 1854 -897 
Q 1750 -1050 1614 -1145 
Q 1478 -1241 1279 -1294 
Q 1081 -1347 831 -1347 
Q 578 -1347 334 -1294 
L 256 -606 
Q 463 -647 628 -647 
Q 934 -647 1081 -467 
Q 1228 -288 1306 -9 
L 44 3319 
z
" transform="scale(0.015625)"/>
      </defs>
      <use xlink:href="#Arial-BoldMT-52"/>
      <use xlink:href="#Arial-BoldMT-65" x="72.216797"/>
      <use xlink:href="#Arial-BoldMT-6c" x="127.832031"/>
      <use xlink:href="#Arial-BoldMT-2e" x="155.615234"/>
      <use xlink:href="#Arial-BoldMT-20" x="183.398438"/>
      <use xlink:href="#Arial-BoldMT-49" x="211.181641"/>
      <use xlink:href="#Arial-BoldMT-6e" x="238.964844"/>
      <use xlink:href="#Arial-BoldMT-74" x="300.048828"/>
      <use xlink:href="#Arial-BoldMT-65" x="333.349609"/>
      <use xlink:href="#Arial-BoldMT-6e" x="388.964844"/>
      <use xlink:href="#Arial-BoldMT-73" x="450.048828"/>
      <use xlink:href="#Arial-BoldMT-69" x="505.664062"/>
      <use xlink:href="#Arial-BoldMT-74" x="533.447266"/>
      <use xlink:href="#Arial-BoldMT-79" x="566.748047"/>
     </g>
    </g>
   </g>
   <g id="line2d_13">
    <path d="M 122.306852 149.82493 
L 126.242751 150.14905 
L 130.459786 150.815808 
L 134.395686 151.690102 
L 138.05045 152.767136 
L 141.424079 153.975222 
L 145.078844 155.488573 
L 149.858148 157.731031 
L 154.075185 159.9561 
L 159.135627 162.878942 
L 165.882882 167.081593 
L 172.067867 171.165756 
L 185.843517 180.568334 
L 191.747366 184.444944 
L 193.153043 185.131284 
L 193.996455 185.312749 
L 196.245538 185.463404 
L 197.088944 185.914987 
L 198.213486 186.857947 
L 200.181439 188.550735 
L 201.868252 189.716737 
L 202.711658 190.135254 
L 203.273929 190.212395 
L 203.555064 190.101473 
L 203.836199 189.824137 
L 204.11734 189.327675 
L 204.679611 187.459948 
L 205.241882 184.274896 
L 206.366423 175.414608 
L 207.490965 167.415292 
L 207.7721 163.606405 
L 208.053236 156.256434 
L 208.334371 143.840789 
L 208.896642 104.051452 
L 209.740048 39.420495 
L 210.021184 26.889421 
L 210.302319 19.359586 
L 210.583455 15.845568 
L 210.86459 14.483516 
L 211.426861 13.196448 
L 212.270277 12.340616 
L 213.394819 11.928216 
L 213.95709 11.93469 
L 214.800496 12.231481 
L 215.643902 12.642337 
L 216.768444 13.220589 
L 217.61185 13.861148 
L 218.174121 14.18199 
L 219.298663 14.63762 
L 220.985475 15.353674 
L 222.110017 16.168642 
L 222.953433 16.405883 
L 224.077975 16.778542 
L 225.483652 17.619719 
L 226.327058 17.671208 
L 226.889329 17.676497 
L 228.576142 18.289979 
L 229.700683 19.052081 
L 231.949767 20.751128 
L 232.793173 21.77151 
L 237.010214 26.760416 
L 238.415892 28.223751 
L 239.259298 29.589145 
L 240.664975 32.393148 
L 241.227246 34.088435 
L 242.070652 37.928314 
L 242.914058 43.198112 
L 244.03861 52.425099 
L 245.444287 66.437917 
L 248.817912 101.310332 
L 250.504725 116.02239 
L 251.910402 126.322157 
L 253.316079 135.046813 
L 254.721766 142.339471 
L 256.127443 148.462858 
L 257.53312 153.608622 
L 258.938797 157.925136 
L 260.344475 161.576724 
L 261.750152 164.687346 
L 263.155829 167.295143 
L 264.842651 169.923185 
L 266.529464 172.117536 
L 268.216276 173.920768 
L 269.903089 175.38799 
L 271.871037 176.785616 
L 273.838985 177.864077 
L 275.806943 178.67585 
L 278.337162 179.416768 
L 280.586245 179.813221 
L 283.116464 180.106097 
L 286.490099 180.259715 
L 291.550537 180.239409 
L 296.329839 180.010198 
L 302.514838 179.504142 
L 313.47912 178.612122 
L 325.005692 178.046323 
L 331.752942 178.014436 
L 339.343599 178.323373 
L 349.183358 178.777857 
L 359.866504 178.944109 
L 370.549671 178.695227 
L 378.702598 178.297195 
L 386.57441 177.919161 
L 400.631181 177.481713 
L 426.49566 177.184746 
L 429.025899 176.763441 
L 431.274982 176.430087 
L 432.961795 176.381074 
L 435.210878 176.564771 
L 442.239263 177.363774 
L 448.705378 177.626463 
L 468.103742 177.808134 
L 477.100076 177.652447 
L 481.879398 177.409658 
L 485.534179 177.569081 
L 492.281429 177.806273 
L 501.277762 177.847168 
L 505.213658 177.814755 
L 514.772263 177.974352 
L 515.896804 177.749373 
L 519.551585 176.666011 
L 521.238397 176.605585 
L 522.92521 176.774685 
L 527.423377 177.363691 
L 528.829074 177.169437 
L 530.797002 176.874742 
L 532.202699 176.898936 
L 534.732898 177.24802 
L 536.981981 177.507838 
L 542.042419 177.886815 
L 544.291542 178.005262 
L 546.540626 177.916075 
L 548.227438 177.610483 
L 551.038792 177.050192 
L 553.00672 176.917522 
L 557.786043 176.856713 
L 559.75397 177.28563 
L 563.689866 178.129078 
L 566.501261 178.454986 
L 570.999427 178.578183 
L 572.68624 178.502635 
L 573.529626 178.280579 
L 574.654168 177.738466 
L 576.34098 176.930969 
L 577.465522 176.694133 
L 578.590064 176.717449 
L 579.995761 177.001269 
L 584.212772 178.058132 
L 585.618469 178.143561 
L 586.743011 177.964084 
L 588.148708 177.45272 
L 589.554365 177.011518 
L 592.084604 176.4831 
L 592.92799 175.973063 
L 595.177074 174.325703 
L 596.0205 174.132085 
L 596.863886 174.220019 
L 597.988428 174.641368 
L 599.67524 175.59035 
L 601.643209 176.708007 
L 602.76775 177.060004 
L 603.611136 177.105659 
L 604.735678 176.8974 
L 606.422491 176.268234 
L 609.233885 175.112054 
L 609.796156 174.57806 
L 610.358427 173.725334 
L 611.201813 171.870046 
L 612.60751 168.518744 
L 613.169781 167.624863 
L 613.732052 167.121167 
L 614.294323 166.989395 
L 614.856593 167.18213 
L 615.418864 167.638938 
L 616.26225 168.676545 
L 617.667948 170.905159 
L 619.635876 174.032214 
L 620.760417 175.425044 
L 621.884959 176.474766 
L 623.009501 177.221386 
L 624.134042 177.72699 
L 625.53974 178.101191 
L 627.507667 178.318553 
L 629.475635 178.332008 
L 631.724719 178.122876 
L 634.536073 177.812598 
L 636.504041 177.904661 
L 643.251291 178.494712 
L 647.468302 178.774969 
L 651.404239 178.827523 
L 653.653322 178.618311 
L 657.026947 178.223878 
L 660.119417 178.271929 
L 667.710093 178.405534 
L 671.083718 178.190084 
L 671.645989 177.856328 
L 672.20826 177.264782 
L 673.051686 175.905846 
L 675.019614 172.375732 
L 675.86304 171.481562 
L 676.706427 170.961918 
L 677.830968 170.595533 
L 678.674395 170.543638 
L 679.517781 170.777412 
L 680.361207 171.313891 
L 681.485749 172.34851 
L 684.015948 174.804379 
L 684.859374 175.361281 
L 685.70276 175.655573 
L 686.546186 175.698676 
L 687.951843 175.434599 
L 689.357541 175.234177 
L 690.482082 175.361084 
L 691.606624 175.756099 
L 696.104791 177.737717 
L 698.072759 178.190073 
L 699.759571 178.377307 
L 701.446384 178.362323 
L 703.976583 178.037958 
L 707.350208 177.530314 
L 708.755905 177.584635 
L 710.161562 177.672289 
L 710.723833 177.534467 
L 711.286104 177.114971 
L 711.848374 176.285986 
L 712.410645 174.986016 
L 713.535227 171.429011 
L 714.659769 168.111639 
L 715.22204 166.972885 
L 715.784311 166.242036 
L 716.346581 165.900537 
L 716.908852 165.895605 
L 717.471123 166.159185 
L 718.314509 166.891609 
L 720.001322 168.506225 
L 721.407019 169.405488 
L 722.531561 170.180343 
L 723.937218 171.515059 
L 727.029727 174.676958 
L 728.435384 175.80074 
L 729.841082 176.657802 
L 731.246739 177.27162 
L 732.933551 177.767786 
L 734.901519 178.134161 
L 737.150603 178.325658 
L 741.648769 178.560213 
L 745.584665 178.855552 
L 747.271478 178.801339 
L 748.396019 178.525203 
L 749.239446 178.07409 
L 750.363988 177.102323 
L 751.769645 175.844766 
L 752.613071 175.40431 
L 753.456457 175.266475 
L 754.299883 175.377813 
L 755.424425 175.80729 
L 757.392393 176.913284 
L 759.079206 177.7606 
L 760.203747 178.120317 
L 762.171675 178.460148 
L 765.264185 178.636117 
L 779.320956 178.954976 
L 781.570039 178.850122 
L 782.975737 178.513356 
L 785.22482 177.882628 
L 786.630477 177.776838 
L 789.722987 177.769355 
L 790.285258 177.528137 
L 791.128644 176.853779 
L 792.815456 175.231507 
L 793.377727 174.936984 
L 793.939998 174.821285 
L 794.783424 174.946732 
L 795.907966 175.479772 
L 797.875934 176.496195 
L 799.281591 176.881332 
L 801.249559 177.20492 
L 802.655216 177.173588 
L 806.309957 176.859301 
L 807.715694 177.063546 
L 811.089319 177.69674 
L 816.993143 178.286475 
L 821.772425 177.923039 
L 825.989476 178.159847 
L 833.299038 177.647835 
L 833.580153 177.53225 
L 833.861268 177.295807 
L 834.142383 176.874006 
L 834.423579 176.199694 
L 834.98581 173.853236 
L 835.548121 169.948971 
L 836.391467 161.473299 
L 838.07832 142.517518 
L 838.64055 137.993008 
L 839.202861 135.02274 
L 839.483977 134.150315 
L 839.765172 133.685581 
L 840.046288 133.612534 
L 840.327403 133.902241 
L 840.608518 134.527733 
L 841.170829 136.635257 
L 842.014256 141.390968 
L 845.387881 163.475934 
L 846.231227 167.194147 
L 847.074653 169.977404 
L 847.918079 171.989152 
L 848.761506 173.325378 
L 849.323736 173.874852 
L 849.886048 174.198364 
L 850.729393 174.368837 
L 852.697362 174.533063 
L 853.821903 174.920218 
L 855.22756 175.659655 
L 858.882381 177.70229 
L 860.569153 178.31452 
L 861.693695 178.561301 
L 862.537121 178.520223 
L 863.099432 178.30372 
L 863.942778 177.666217 
L 866.191862 175.519407 
L 866.754173 175.291615 
L 867.316403 175.246366 
L 867.878715 175.370379 
L 868.722141 175.809341 
L 872.095766 178.006713 
L 872.939112 178.117537 
L 873.782538 177.943535 
L 875.750506 177.266575 
L 876.593933 177.251527 
L 877.437279 177.4334 
L 878.843016 178.005155 
L 881.65433 179.207654 
L 883.341183 179.662027 
L 884.74684 179.837265 
L 886.433693 179.773436 
L 887.83935 179.516042 
L 892.337516 178.445484 
L 895.992257 178.257627 
L 897.397914 178.477506 
L 902.739507 179.623812 
L 905.550901 179.792116 
L 909.205642 179.850706 
L 910.330183 179.615848 
L 913.422693 178.654418 
L 914.266119 178.174398 
L 915.109465 177.357788 
L 915.952892 176.114205 
L 917.077433 173.852107 
L 918.48309 170.99272 
L 919.045402 170.229037 
L 919.607632 169.789628 
L 920.169943 169.672134 
L 920.732174 169.840783 
L 921.294485 170.237382 
L 922.137911 171.132177 
L 923.543568 173.040432 
L 925.792652 176.126548 
L 926.917193 177.294653 
L 927.76062 177.886692 
L 928.32285 178.054053 
L 928.604046 178.013881 
L 928.885161 177.84599 
L 929.166277 177.489257 
L 929.447392 176.857309 
L 929.728588 175.849073 
L 930.009703 174.333956 
L 930.571934 169.238309 
L 931.134245 160.603208 
L 931.696475 148.105479 
L 932.821017 115.656665 
L 933.664443 92.687064 
L 934.226755 81.18232 
L 934.788985 73.311392 
L 935.351296 68.777749 
L 935.632412 67.593163 
L 935.913527 67.054044 
L 936.194642 67.0854 
L 936.475838 67.639526 
L 936.756953 68.677215 
L 937.319184 72.043557 
L 937.881495 76.945903 
L 938.724921 86.618316 
L 940.130578 106.371391 
L 941.817351 129.842866 
L 942.941892 142.389517 
L 943.785319 149.770917 
L 944.628745 155.57391 
L 945.472171 159.891972 
L 946.034402 161.766607 
L 946.315598 162.266059 
L 946.596713 162.368419 
L 946.877828 161.967577 
L 947.158944 160.950301 
L 947.440139 159.213413 
L 948.00237 153.259006 
L 948.564681 143.942986 
L 949.689223 119.07493 
L 950.532569 101.58756 
L 951.09488 92.991115 
L 951.65711 87.317953 
L 952.219422 84.429847 
L 952.500537 83.90578 
L 952.781652 83.922638 
L 953.062848 84.452699 
L 953.625079 86.767431 
L 954.18739 90.542029 
L 955.030736 98.328435 
L 956.436473 114.713662 
L 958.123245 134.63429 
L 959.247787 145.5017 
L 960.091213 151.980523 
L 960.93464 157.127699 
L 961.777986 161.178362 
L 962.621412 164.353636 
L 963.464838 166.861273 
L 964.58938 169.460543 
L 965.713922 171.444745 
L 966.838463 172.991 
L 967.963005 174.149938 
L 969.087547 174.998277 
L 970.493204 175.780651 
L 972.742287 176.748664 
L 974.710255 177.395755 
L 976.397108 177.70579 
L 978.927307 177.907178 
L 984.550015 178.118759 
L 988.204756 177.834883 
L 993.546349 177.986275 
L 995.795432 178.027173 
L 997.7634 177.792595 
L 1002.261567 177.141139 
L 1003.948339 177.185908 
L 1008.727702 177.461751 
L 1011.2579 177.643009 
L 1016.037182 177.982229 
L 1019.129692 178.008901 
L 1036.841244 177.612457 
L 1041.901722 177.554281 
L 1048.930087 177.539044 
L 1085.758847 177.384626 
L 1090.257014 177.440888 
L 1099.253348 177.531956 
L 1129.053743 177.529037 
L 1134.11422 177.530353 
L 1134.11422 177.530353 
" clip-path="url(#pebbd466f4e)" style="fill: none; stroke: #000000; stroke-width: 2.5; stroke-linecap: square"/>
   </g>
   <g id="line2d_14">
    <path d="M 307.856407 199.12726 
L 307.856407 3.00024 
" clip-path="url(#pebbd466f4e)" style="fill: none; stroke: #d55e00; stroke-width: 2; stroke-linecap: square"/>
   </g>
   <g id="line2d_15">
    <path d="M 1134.395336 199.12726 
L 1134.395336 3.00024 
" clip-path="url(#pebbd466f4e)" style="fill: none; stroke: #d55e00; stroke-width: 2; stroke-linecap: square"/>
   </g>
   <g id="patch_3">
    <path d="M 71.702428 199.12726 
L 71.702428 3.00024 
" style="fill: none; stroke: #000000; stroke-width: 2; stroke-linejoin: miter; stroke-linecap: square"/>
   </g>
   <g id="patch_4">
    <path d="M 1184.99976 199.12726 
L 1184.99976 3.00024 
" style="fill: none; stroke: #000000; stroke-width: 2; stroke-linejoin: miter; stroke-linecap: square"/>
   </g>
   <g id="patch_5">
    <path d="M 71.702428 199.12726 
L 1184.99976 199.12726 
" style="fill: none; stroke: #000000; stroke-width: 2; stroke-linejoin: miter; stroke-linecap: square"/>
   </g>
   <g id="patch_6">
    <path d="M 71.702428 3.00024 
L 1184.99976 3.00024 
" style="fill: none; stroke: #000000; stroke-width: 2; stroke-linejoin: miter; stroke-linecap: square"/>
   </g>
   <g id="text_15">
    <!-- ANALYSIS -->
    <g style="fill: #d55e00" transform="translate(301.523807 131.949413) rotate(-90) scale(0.14994 -0.14994)">
     <defs>
      <path id="Arial-BoldMT-41" d="M 4597 0 
L 3591 0 
L 3191 1041 
L 1359 1041 
L 981 0 
L 0 0 
L 1784 4581 
L 2763 4581 
L 4597 0 
z
M 2894 1813 
L 2263 3513 
L 1644 1813 
L 2894 1813 
z
" transform="scale(0.015625)"/>
      <path id="Arial-BoldMT-4e" d="M 475 0 
L 475 4581 
L 1375 4581 
L 3250 1522 
L 3250 4581 
L 4109 4581 
L 4109 0 
L 3181 0 
L 1334 2988 
L 1334 0 
L 475 0 
z
" transform="scale(0.015625)"/>
      <path id="Arial-BoldMT-4c" d="M 491 0 
L 491 4544 
L 1416 4544 
L 1416 772 
L 3716 772 
L 3716 0 
L 491 0 
z
" transform="scale(0.015625)"/>
      <path id="Arial-BoldMT-59" d="M 1669 0 
L 1669 1928 
L -9 4581 
L 1075 4581 
L 2153 2769 
L 3209 4581 
L 4275 4581 
L 2591 1922 
L 2591 0 
L 1669 0 
z
" transform="scale(0.015625)"/>
      <path id="Arial-BoldMT-53" d="M 231 1491 
L 1131 1578 
Q 1213 1125 1461 912 
Q 1709 700 2131 700 
Q 2578 700 2804 889 
Q 3031 1078 3031 1331 
Q 3031 1494 2936 1608 
Q 2841 1722 2603 1806 
Q 2441 1863 1863 2006 
Q 1119 2191 819 2459 
Q 397 2838 397 3381 
Q 397 3731 595 4036 
Q 794 4341 1167 4500 
Q 1541 4659 2069 4659 
Q 2931 4659 3367 4281 
Q 3803 3903 3825 3272 
L 2900 3231 
Q 2841 3584 2645 3739 
Q 2450 3894 2059 3894 
Q 1656 3894 1428 3728 
Q 1281 3622 1281 3444 
Q 1281 3281 1419 3166 
Q 1594 3019 2269 2859 
Q 2944 2700 3267 2529 
Q 3591 2359 3773 2064 
Q 3956 1769 3956 1334 
Q 3956 941 3737 597 
Q 3519 253 3119 86 
Q 2719 -81 2122 -81 
Q 1253 -81 787 320 
Q 322 722 231 1491 
z
" transform="scale(0.015625)"/>
     </defs>
     <use xlink:href="#Arial-BoldMT-41"/>
     <use xlink:href="#Arial-BoldMT-4e" x="72.216797"/>
     <use xlink:href="#Arial-BoldMT-41" x="144.433594"/>
     <use xlink:href="#Arial-BoldMT-4c" x="216.650391"/>
     <use xlink:href="#Arial-BoldMT-59" x="268.609375"/>
     <use xlink:href="#Arial-BoldMT-53" x="335.308594"/>
     <use xlink:href="#Arial-BoldMT-49" x="402.007812"/>
     <use xlink:href="#Arial-BoldMT-53" x="429.791016"/>
    </g>
   </g>
   <g id="text_16">
    <!-- START -->
    <g style="fill: #d55e00" transform="translate(325.336088 119.161171) rotate(-90) scale(0.14994 -0.14994)">
     <defs>
      <path id="Arial-BoldMT-54" d="M 1497 0 
L 1497 3806 
L 138 3806 
L 138 4581 
L 3778 4581 
L 3778 3806 
L 2422 3806 
L 2422 0 
L 1497 0 
z
" transform="scale(0.015625)"/>
     </defs>
     <use xlink:href="#Arial-BoldMT-53"/>
     <use xlink:href="#Arial-BoldMT-54" x="66.699219"/>
     <use xlink:href="#Arial-BoldMT-41" x="120.408203"/>
     <use xlink:href="#Arial-BoldMT-52" x="192.625"/>
     <use xlink:href="#Arial-BoldMT-54" x="264.841797"/>
    </g>
   </g>
   <g id="text_17">
    <!-- ANALYSIS -->
    <g style="fill: #d55e00" transform="translate(1128.062735 131.949413) rotate(-90) scale(0.14994 -0.14994)">
     <use xlink:href="#Arial-BoldMT-41"/>
     <use xlink:href="#Arial-BoldMT-4e" x="72.216797"/>
     <use xlink:href="#Arial-BoldMT-41" x="144.433594"/>
     <use xlink:href="#Arial-BoldMT-4c" x="216.650391"/>
     <use xlink:href="#Arial-BoldMT-59" x="268.609375"/>
     <use xlink:href="#Arial-BoldMT-53" x="335.308594"/>
     <use xlink:href="#Arial-BoldMT-49" x="402.007812"/>
     <use xlink:href="#Arial-BoldMT-53" x="429.791016"/>
    </g>
   </g>
   <g id="text_18">
    <!-- END -->
    <g style="fill: #d55e00" transform="translate(1151.875016 110.556021) rotate(-90) scale(0.14994 -0.14994)">
     <defs>
      <path id="Arial-BoldMT-45" d="M 466 0 
L 466 4581 
L 3863 4581 
L 3863 3806 
L 1391 3806 
L 1391 2791 
L 3691 2791 
L 3691 2019 
L 1391 2019 
L 1391 772 
L 3950 772 
L 3950 0 
L 466 0 
z
" transform="scale(0.015625)"/>
      <path id="Arial-BoldMT-44" d="M 463 4581 
L 2153 4581 
Q 2725 4581 3025 4494 
Q 3428 4375 3715 4072 
Q 4003 3769 4153 3330 
Q 4303 2891 4303 2247 
Q 4303 1681 4163 1272 
Q 3991 772 3672 463 
Q 3431 228 3022 97 
Q 2716 0 2203 0 
L 463 0 
L 463 4581 
z
M 1388 3806 
L 1388 772 
L 2078 772 
Q 2466 772 2638 816 
Q 2863 872 3011 1006 
Q 3159 1141 3253 1448 
Q 3347 1756 3347 2288 
Q 3347 2819 3253 3103 
Q 3159 3388 2990 3547 
Q 2822 3706 2563 3763 
Q 2369 3806 1803 3806 
L 1388 3806 
z
" transform="scale(0.015625)"/>
     </defs>
     <use xlink:href="#Arial-BoldMT-45"/>
     <use xlink:href="#Arial-BoldMT-4e" x="66.699219"/>
     <use xlink:href="#Arial-BoldMT-44" x="138.916016"/>
    </g>
   </g>
  </g>
 </g>
 <defs>
  <clipPath id="pebbd466f4e">
   <rect x="71.702428" y="3.00024" width="1113.297333" height="196.12702"/>
  </clipPath>
 </defs>
</svg>
