<?xml version="1.0" encoding="utf-8" standalone="no"?>
<!DOCTYPE svg PUBLIC "-//W3C//DTD SVG 1.1//EN"
  "http://www.w3.org/Graphics/SVG/1.1/DTD/svg11.dtd">
<svg xmlns:xlink="http://www.w3.org/1999/xlink" width="1188pt" height="252pt" viewBox="0 0 1188 252" xmlns="http://www.w3.org/2000/svg" version="1.1">
 <metadata>
  <rdf:RDF xmlns:dc="http://purl.org/dc/elements/1.1/" xmlns:cc="http://creativecommons.org/ns#" xmlns:rdf="http://www.w3.org/1999/02/22-rdf-syntax-ns#">
   <cc:Work>
    <dc:type rdf:resource="http://purl.org/dc/dcmitype/StillImage"/>
    <dc:date>2024-05-14T23:27:19.314860</dc:date>
    <dc:format>image/svg+xml</dc:format>
    <dc:creator>
     <cc:Agent>
      <dc:title>Matplotlib v3.8.0, https://matplotlib.org/</dc:title>
     </cc:Agent>
    </dc:creator>
   </cc:Work>
  </rdf:RDF>
 </metadata>
 <defs>
  <style type="text/css">*{stroke-linejoin: round; stroke-linecap: butt}</style>
 </defs>
 <g id="figure_1">
  <g id="patch_1">
   <path d="M 0 252 
L 1188 252 
L 1188 0 
L 0 0 
z
" style="fill: #ffffff"/>
  </g>
  <g id="axes_1">
   <g id="patch_2">
    <path d="M 71.702428 199.12726 
L 1184.99976 199.12726 
L 1184.99976 3.00024 
L 71.702428 3.00024 
z
" style="fill: #ffffff"/>
   </g>
   <g id="PolyCollection_1">
    <path d="M 930.009703 173.253444 
L 930.009703 173.472381 
L 930.290818 173.472381 
L 930.571934 173.472381 
L 930.853129 173.472381 
L 931.134245 173.472381 
L 931.41536 173.472381 
L 931.696475 173.472381 
L 931.977671 173.472381 
L 932.258786 173.472381 
L 932.539902 173.472381 
L 932.821017 173.472381 
L 933.102213 173.472381 
L 933.383328 173.472381 
L 933.664443 173.472381 
L 933.945559 173.472381 
L 934.226755 173.472381 
L 934.50787 173.472381 
L 934.788985 173.472381 
L 935.0701 173.472381 
L 935.351296 173.472381 
L 935.632412 173.472381 
L 935.913527 173.472381 
L 936.194642 173.472381 
L 936.475838 173.472381 
L 936.756953 173.472381 
L 937.038069 173.472381 
L 937.319184 173.472381 
L 937.60038 173.472381 
L 937.881495 173.472381 
L 938.16261 173.472381 
L 938.443726 173.472381 
L 938.724921 173.472381 
L 939.006037 173.472381 
L 939.287152 173.472381 
L 939.568267 173.472381 
L 939.849463 173.472381 
L 940.130578 173.472381 
L 940.411694 173.472381 
L 940.692809 173.472381 
L 940.974005 173.472381 
L 941.25512 173.472381 
L 941.536235 173.472381 
L 941.817351 173.472381 
L 942.098546 173.472381 
L 942.379662 173.472381 
L 942.660777 173.472381 
L 942.941892 173.472381 
L 943.223088 173.472381 
L 943.504203 173.472381 
L 943.785319 173.472381 
L 944.066434 173.472381 
L 944.34763 173.472381 
L 944.628745 173.472381 
L 944.90986 173.472381 
L 945.191056 173.472381 
L 945.472171 173.472381 
L 945.753287 173.472381 
L 946.034402 173.472381 
L 946.315598 173.472381 
L 946.596713 173.472381 
L 946.877828 173.472381 
L 947.158944 173.472381 
L 947.440139 173.472381 
L 947.721255 173.472381 
L 948.00237 173.472381 
L 948.283485 173.472381 
L 948.564681 173.472381 
L 948.845796 173.472381 
L 949.126912 173.472381 
L 949.408027 173.472381 
L 949.689223 173.472381 
L 949.970338 173.472381 
L 950.251453 173.472381 
L 950.532569 173.472381 
L 950.813765 173.472381 
L 951.09488 173.472381 
L 951.375995 173.472381 
L 951.65711 173.472381 
L 951.938306 173.472381 
L 952.219422 173.472381 
L 952.500537 173.472381 
L 952.781652 173.472381 
L 953.062848 173.472381 
L 953.343963 173.472381 
L 953.625079 173.472381 
L 953.906194 173.472381 
L 954.18739 173.472381 
L 954.468505 173.472381 
L 954.74962 173.472381 
L 955.030736 173.472381 
L 955.311931 173.472381 
L 955.593047 173.472381 
L 955.874162 173.472381 
L 956.155277 173.472381 
L 956.436473 173.472381 
L 956.717588 173.472381 
L 956.998704 173.472381 
L 957.279819 173.472381 
L 957.561015 173.472381 
L 957.84213 173.472381 
L 958.123245 173.472381 
L 958.404361 173.472381 
L 958.685556 173.472381 
L 958.966672 173.472381 
L 959.247787 173.472381 
L 959.528902 173.472381 
L 959.810098 173.472381 
L 960.091213 173.472381 
L 960.372329 173.472381 
L 960.653444 173.472381 
L 960.93464 173.472381 
L 961.215755 173.472381 
L 961.49687 173.472381 
L 961.777986 173.472381 
L 962.059181 173.472381 
L 962.340297 173.472381 
L 962.621412 173.472381 
L 962.902527 173.472381 
L 963.183723 173.472381 
L 963.464838 173.472381 
L 963.745954 173.472381 
L 964.027069 173.472381 
L 964.308265 173.472381 
L 964.58938 173.472381 
L 964.870495 173.472381 
L 965.151611 173.472381 
L 965.432806 173.472381 
L 965.713922 173.472381 
L 965.995037 173.472381 
L 966.276233 173.472381 
L 966.557348 173.472381 
L 966.838463 173.472381 
L 966.838463 172.89039 
L 966.838463 172.89039 
L 966.557348 172.385098 
L 966.276233 171.84969 
L 965.995037 171.278979 
L 965.713922 170.671162 
L 965.432806 170.028875 
L 965.151611 169.343728 
L 964.870495 168.612138 
L 964.58938 167.830539 
L 964.308265 166.995065 
L 964.027069 166.094634 
L 963.745954 165.127253 
L 963.464838 164.08349 
L 963.183723 162.953621 
L 962.902527 161.728435 
L 962.621412 160.401259 
L 962.340297 158.955858 
L 962.059181 157.383985 
L 961.777986 155.672899 
L 961.49687 153.811171 
L 961.215755 151.785303 
L 960.93464 149.586791 
L 960.653444 147.201481 
L 960.372329 144.62257 
L 960.091213 141.841149 
L 959.810098 138.851758 
L 959.528902 135.654708 
L 959.247787 132.249341 
L 958.966672 128.636989 
L 958.685556 124.830428 
L 958.404361 120.836917 
L 958.123245 116.677636 
L 957.84213 112.385586 
L 957.561015 107.990283 
L 957.279819 103.52412 
L 956.998704 99.045821 
L 956.717588 94.589952 
L 956.436473 90.201211 
L 956.155277 85.938141 
L 955.874162 81.833444 
L 955.593047 77.928168 
L 955.311931 74.274556 
L 955.030736 70.909747 
L 954.74962 67.842443 
L 954.468505 65.127605 
L 954.18739 62.771558 
L 953.906194 60.786414 
L 953.625079 59.172541 
L 953.343963 57.980348 
L 953.062848 57.221571 
L 952.781652 56.926734 
L 952.500537 57.13245 
L 952.219422 57.906229 
L 951.938306 59.277538 
L 951.65711 61.315429 
L 951.375995 64.095256 
L 951.09488 67.698773 
L 950.813765 72.171238 
L 950.532569 77.562693 
L 950.251453 83.841293 
L 949.970338 90.933067 
L 949.689223 98.66831 
L 949.408027 106.820926 
L 949.126912 115.096928 
L 948.845796 123.181523 
L 948.564681 130.752802 
L 948.283485 137.534258 
L 948.00237 143.312138 
L 947.721255 147.958407 
L 947.440139 151.435553 
L 947.158944 153.790182 
L 946.877828 155.128184 
L 946.596713 155.601607 
L 946.315598 155.358991 
L 946.034402 154.55074 
L 945.753287 153.294632 
L 945.472171 151.686606 
L 945.191056 149.779866 
L 944.90986 147.616112 
L 944.628745 145.213136 
L 944.34763 142.578677 
L 944.066434 139.717513 
L 943.785319 136.626392 
L 943.504203 133.301076 
L 943.223088 129.734753 
L 942.941892 125.927272 
L 942.660777 121.863973 
L 942.379662 117.555239 
L 942.098546 113.01798 
L 941.817351 108.279854 
L 941.536235 103.358403 
L 941.25512 98.301555 
L 940.974005 93.165436 
L 940.692809 87.98445 
L 940.411694 82.82334 
L 940.130578 77.739463 
L 939.849463 72.807288 
L 939.568267 68.054851 
L 939.287152 63.581734 
L 939.006037 59.394929 
L 938.724921 55.573148 
L 938.443726 52.105742 
L 938.16261 49.0426 
L 937.881495 46.356509 
L 937.60038 44.084884 
L 937.319184 42.177117 
L 937.038069 40.653369 
L 936.756953 39.509239 
L 936.475838 38.737001 
L 936.194642 38.340932 
L 935.913527 38.386512 
L 935.632412 38.929486 
L 935.351296 39.99955 
L 935.0701 41.681763 
L 934.788985 44.096551 
L 934.50787 47.346206 
L 934.226755 51.557303 
L 933.945559 56.866582 
L 933.664443 63.405776 
L 933.383328 71.186478 
L 933.102213 80.154949 
L 932.821017 90.129767 
L 932.539902 100.864521 
L 932.258786 111.962396 
L 931.977671 123.012472 
L 931.696475 133.590739 
L 931.41536 143.328401 
L 931.134245 151.927763 
L 930.853129 159.220312 
L 930.571934 165.154858 
L 930.290818 169.78497 
L 930.009703 173.253444 
z
" clip-path="url(#pc0ce2d957b)" style="fill: #d55e00"/>
   </g>
   <g id="PolyCollection_2">
    <path d="M 947.440139 151.435553 
L 947.440139 150.667863 
L 947.721255 150.667863 
L 948.00237 150.667863 
L 948.283485 150.667863 
L 948.564681 150.667863 
L 948.845796 150.667863 
L 949.126912 150.667863 
L 949.408027 150.667863 
L 949.689223 150.667863 
L 949.970338 150.667863 
L 950.251453 150.667863 
L 950.532569 150.667863 
L 950.813765 150.667863 
L 951.09488 150.667863 
L 951.375995 150.667863 
L 951.65711 150.667863 
L 951.938306 150.667863 
L 952.219422 150.667863 
L 952.500537 150.667863 
L 952.781652 150.667863 
L 953.062848 150.667863 
L 953.343963 150.667863 
L 953.625079 150.667863 
L 953.906194 150.667863 
L 954.18739 150.667863 
L 954.468505 150.667863 
L 954.74962 150.667863 
L 955.030736 150.667863 
L 955.311931 150.667863 
L 955.593047 150.667863 
L 955.874162 150.667863 
L 956.155277 150.667863 
L 956.436473 150.667863 
L 956.717588 150.667863 
L 956.998704 150.667863 
L 957.279819 150.667863 
L 957.561015 150.667863 
L 957.84213 150.667863 
L 958.123245 150.667863 
L 958.404361 150.667863 
L 958.685556 150.667863 
L 958.966672 150.667863 
L 959.247787 150.667863 
L 959.528902 150.667863 
L 959.810098 150.667863 
L 960.091213 150.667863 
L 960.372329 150.667863 
L 960.653444 150.667863 
L 960.653444 147.201481 
L 960.653444 147.201481 
L 960.372329 144.62257 
L 960.091213 141.841149 
L 959.810098 138.851758 
L 959.528902 135.654708 
L 959.247787 132.249341 
L 958.966672 128.636989 
L 958.685556 124.830428 
L 958.404361 120.836917 
L 958.123245 116.677636 
L 957.84213 112.385586 
L 957.561015 107.990283 
L 957.279819 103.52412 
L 956.998704 99.045821 
L 956.717588 94.589952 
L 956.436473 90.201211 
L 956.155277 85.938141 
L 955.874162 81.833444 
L 955.593047 77.928168 
L 955.311931 74.274556 
L 955.030736 70.909747 
L 954.74962 67.842443 
L 954.468505 65.127605 
L 954.18739 62.771558 
L 953.906194 60.786414 
L 953.625079 59.172541 
L 953.343963 57.980348 
L 953.062848 57.221571 
L 952.781652 56.926734 
L 952.500537 57.13245 
L 952.219422 57.906229 
L 951.938306 59.277538 
L 951.65711 61.315429 
L 951.375995 64.095256 
L 951.09488 67.698773 
L 950.813765 72.171238 
L 950.532569 77.562693 
L 950.251453 83.841293 
L 949.970338 90.933067 
L 949.689223 98.66831 
L 949.408027 106.820926 
L 949.126912 115.096928 
L 948.845796 123.181523 
L 948.564681 130.752802 
L 948.283485 137.534258 
L 948.00237 143.312138 
L 947.721255 147.958407 
L 947.440139 151.435553 
z
" clip-path="url(#pc0ce2d957b)" style="fill: #0072b2"/>
   </g>
   <g id="PathCollection_1">
    <defs>
     <path id="mcfa0484ba3" d="M 0 -5.91608 
L -1.328243 -1.828169 
L -5.626526 -1.828169 
L -2.149142 0.698298 
L -3.477384 4.786209 
L -0 2.259741 
L 3.477384 4.786209 
L 2.149142 0.698298 
L 5.626526 -1.828169 
L 1.328243 -1.828169 
z
" style="stroke: #000000; stroke-width: 1.5"/>
    </defs>
    <g clip-path="url(#pc0ce2d957b)">
     <use xlink:href="#mcfa0484ba3" x="935.351267" y="23.290573" style="stroke: #000000; stroke-width: 1.5"/>
    </g>
   </g>
   <g id="PathCollection_2">
    <g clip-path="url(#pc0ce2d957b)">
     <use xlink:href="#mcfa0484ba3" x="952.219409" y="41.197252" style="stroke: #000000; stroke-width: 1.5"/>
    </g>
   </g>
   <g id="matplotlib.axis_1">
    <g id="xtick_1">
     <g id="line2d_1">
      <defs>
       <path id="mdaf49d3d42" d="M 0 0 
L 0 8 
" style="stroke: #000000; stroke-width: 2"/>
      </defs>
      <g>
       <use xlink:href="#mdaf49d3d42" x="122.306852" y="199.12726" style="stroke: #000000; stroke-width: 2"/>
      </g>
     </g>
     <g id="text_1">
      <!-- 0.0 -->
      <g transform="translate(109.796852 225.011323) scale(0.18 -0.18)">
       <defs>
        <path id="Arial-BoldMT-30" d="M 1756 4600 
Q 2422 4600 2797 4125 
Q 3244 3563 3244 2259 
Q 3244 959 2794 391 
Q 2422 -78 1756 -78 
Q 1088 -78 678 436 
Q 269 950 269 2269 
Q 269 3563 719 4131 
Q 1091 4600 1756 4600 
z
M 1756 3872 
Q 1597 3872 1472 3770 
Q 1347 3669 1278 3406 
Q 1188 3066 1188 2259 
Q 1188 1453 1269 1151 
Q 1350 850 1473 750 
Q 1597 650 1756 650 
Q 1916 650 2041 751 
Q 2166 853 2234 1116 
Q 2325 1453 2325 2259 
Q 2325 3066 2244 3367 
Q 2163 3669 2039 3770 
Q 1916 3872 1756 3872 
z
" transform="scale(0.015625)"/>
        <path id="Arial-BoldMT-2e" d="M 459 0 
L 459 878 
L 1338 878 
L 1338 0 
L 459 0 
z
" transform="scale(0.015625)"/>
       </defs>
       <use xlink:href="#Arial-BoldMT-30"/>
       <use xlink:href="#Arial-BoldMT-2e" x="55.615234"/>
       <use xlink:href="#Arial-BoldMT-30" x="83.398438"/>
      </g>
     </g>
    </g>
    <g id="xtick_2">
     <g id="line2d_2">
      <g>
       <use xlink:href="#mdaf49d3d42" x="290.988266" y="199.12726" style="stroke: #000000; stroke-width: 2"/>
      </g>
     </g>
     <g id="text_2">
      <!-- 0.5 -->
      <g transform="translate(278.478266 225.011323) scale(0.18 -0.18)">
       <defs>
        <path id="Arial-BoldMT-35" d="M 284 1178 
L 1159 1269 
Q 1197 972 1381 798 
Q 1566 625 1806 625 
Q 2081 625 2272 848 
Q 2463 1072 2463 1522 
Q 2463 1944 2273 2155 
Q 2084 2366 1781 2366 
Q 1403 2366 1103 2031 
L 391 2134 
L 841 4519 
L 3163 4519 
L 3163 3697 
L 1506 3697 
L 1369 2919 
Q 1663 3066 1969 3066 
Q 2553 3066 2959 2641 
Q 3366 2216 3366 1538 
Q 3366 972 3038 528 
Q 2591 -78 1797 -78 
Q 1163 -78 763 262 
Q 363 603 284 1178 
z
" transform="scale(0.015625)"/>
       </defs>
       <use xlink:href="#Arial-BoldMT-30"/>
       <use xlink:href="#Arial-BoldMT-2e" x="55.615234"/>
       <use xlink:href="#Arial-BoldMT-35" x="83.398438"/>
      </g>
     </g>
    </g>
    <g id="xtick_3">
     <g id="line2d_3">
      <g>
       <use xlink:href="#mdaf49d3d42" x="459.66968" y="199.12726" style="stroke: #000000; stroke-width: 2"/>
      </g>
     </g>
     <g id="text_3">
      <!-- 1.0 -->
      <g transform="translate(447.15968 225.011323) scale(0.18 -0.18)">
       <defs>
        <path id="Arial-BoldMT-31" d="M 2519 0 
L 1641 0 
L 1641 3309 
Q 1159 2859 506 2644 
L 506 3441 
Q 850 3553 1253 3867 
Q 1656 4181 1806 4600 
L 2519 4600 
L 2519 0 
z
" transform="scale(0.015625)"/>
       </defs>
       <use xlink:href="#Arial-BoldMT-31"/>
       <use xlink:href="#Arial-BoldMT-2e" x="55.615234"/>
       <use xlink:href="#Arial-BoldMT-30" x="83.398438"/>
      </g>
     </g>
    </g>
    <g id="xtick_4">
     <g id="line2d_4">
      <g>
       <use xlink:href="#mdaf49d3d42" x="628.351094" y="199.12726" style="stroke: #000000; stroke-width: 2"/>
      </g>
     </g>
     <g id="text_4">
      <!-- 1.5 -->
      <g transform="translate(615.841094 225.011323) scale(0.18 -0.18)">
       <use xlink:href="#Arial-BoldMT-31"/>
       <use xlink:href="#Arial-BoldMT-2e" x="55.615234"/>
       <use xlink:href="#Arial-BoldMT-35" x="83.398438"/>
      </g>
     </g>
    </g>
    <g id="xtick_5">
     <g id="line2d_5">
      <g>
       <use xlink:href="#mdaf49d3d42" x="797.032508" y="199.12726" style="stroke: #000000; stroke-width: 2"/>
      </g>
     </g>
     <g id="text_5">
      <!-- 2.0 -->
      <g transform="translate(784.522508 225.011323) scale(0.18 -0.18)">
       <defs>
        <path id="Arial-BoldMT-32" d="M 3238 816 
L 3238 0 
L 159 0 
Q 209 463 459 877 
Q 709 1291 1447 1975 
Q 2041 2528 2175 2725 
Q 2356 2997 2356 3263 
Q 2356 3556 2198 3714 
Q 2041 3872 1763 3872 
Q 1488 3872 1325 3706 
Q 1163 3541 1138 3156 
L 263 3244 
Q 341 3969 753 4284 
Q 1166 4600 1784 4600 
Q 2463 4600 2850 4234 
Q 3238 3869 3238 3325 
Q 3238 3016 3127 2736 
Q 3016 2456 2775 2150 
Q 2616 1947 2200 1565 
Q 1784 1184 1673 1059 
Q 1563 934 1494 816 
L 3238 816 
z
" transform="scale(0.015625)"/>
       </defs>
       <use xlink:href="#Arial-BoldMT-32"/>
       <use xlink:href="#Arial-BoldMT-2e" x="55.615234"/>
       <use xlink:href="#Arial-BoldMT-30" x="83.398438"/>
      </g>
     </g>
    </g>
    <g id="xtick_6">
     <g id="line2d_6">
      <g>
       <use xlink:href="#mdaf49d3d42" x="965.713922" y="199.12726" style="stroke: #000000; stroke-width: 2"/>
      </g>
     </g>
     <g id="text_6">
      <!-- 2.5 -->
      <g transform="translate(953.203922 225.011323) scale(0.18 -0.18)">
       <use xlink:href="#Arial-BoldMT-32"/>
       <use xlink:href="#Arial-BoldMT-2e" x="55.615234"/>
       <use xlink:href="#Arial-BoldMT-35" x="83.398438"/>
      </g>
     </g>
    </g>
    <g id="xtick_7">
     <g id="line2d_7">
      <g>
       <use xlink:href="#mdaf49d3d42" x="1134.395336" y="199.12726" style="stroke: #000000; stroke-width: 2"/>
      </g>
     </g>
     <g id="text_7">
      <!-- 3.0 -->
      <g transform="translate(1121.885336 225.011323) scale(0.18 -0.18)">
       <defs>
        <path id="Arial-BoldMT-33" d="M 241 1216 
L 1091 1319 
Q 1131 994 1309 822 
Q 1488 650 1741 650 
Q 2013 650 2198 856 
Q 2384 1063 2384 1413 
Q 2384 1744 2206 1937 
Q 2028 2131 1772 2131 
Q 1603 2131 1369 2066 
L 1466 2781 
Q 1822 2772 2009 2936 
Q 2197 3100 2197 3372 
Q 2197 3603 2059 3740 
Q 1922 3878 1694 3878 
Q 1469 3878 1309 3722 
Q 1150 3566 1116 3266 
L 306 3403 
Q 391 3819 561 4067 
Q 731 4316 1036 4458 
Q 1341 4600 1719 4600 
Q 2366 4600 2756 4188 
Q 3078 3850 3078 3425 
Q 3078 2822 2419 2463 
Q 2813 2378 3048 2084 
Q 3284 1791 3284 1375 
Q 3284 772 2843 347 
Q 2403 -78 1747 -78 
Q 1125 -78 715 280 
Q 306 638 241 1216 
z
" transform="scale(0.015625)"/>
       </defs>
       <use xlink:href="#Arial-BoldMT-33"/>
       <use xlink:href="#Arial-BoldMT-2e" x="55.615234"/>
       <use xlink:href="#Arial-BoldMT-30" x="83.398438"/>
      </g>
     </g>
    </g>
    <g id="text_8">
     <!-- Retention time / min -->
     <g transform="translate(542.350469 245.447573) scale(0.18 -0.18)">
      <defs>
       <path id="Arial-BoldMT-52" d="M 469 0 
L 469 4581 
L 2416 4581 
Q 3150 4581 3483 4457 
Q 3816 4334 4016 4018 
Q 4216 3703 4216 3297 
Q 4216 2781 3912 2445 
Q 3609 2109 3006 2022 
Q 3306 1847 3501 1637 
Q 3697 1428 4028 894 
L 4588 0 
L 3481 0 
L 2813 997 
Q 2456 1531 2325 1670 
Q 2194 1809 2047 1861 
Q 1900 1913 1581 1913 
L 1394 1913 
L 1394 0 
L 469 0 
z
M 1394 2644 
L 2078 2644 
Q 2744 2644 2909 2700 
Q 3075 2756 3169 2893 
Q 3263 3031 3263 3238 
Q 3263 3469 3139 3611 
Q 3016 3753 2791 3791 
Q 2678 3806 2116 3806 
L 1394 3806 
L 1394 2644 
z
" transform="scale(0.015625)"/>
       <path id="Arial-BoldMT-65" d="M 2381 1056 
L 3256 909 
Q 3088 428 2723 176 
Q 2359 -75 1813 -75 
Q 947 -75 531 491 
Q 203 944 203 1634 
Q 203 2459 634 2926 
Q 1066 3394 1725 3394 
Q 2466 3394 2894 2905 
Q 3322 2416 3303 1406 
L 1103 1406 
Q 1113 1016 1316 798 
Q 1519 581 1822 581 
Q 2028 581 2168 693 
Q 2309 806 2381 1056 
z
M 2431 1944 
Q 2422 2325 2234 2523 
Q 2047 2722 1778 2722 
Q 1491 2722 1303 2513 
Q 1116 2303 1119 1944 
L 2431 1944 
z
" transform="scale(0.015625)"/>
       <path id="Arial-BoldMT-74" d="M 1981 3319 
L 1981 2619 
L 1381 2619 
L 1381 1281 
Q 1381 875 1398 808 
Q 1416 741 1477 697 
Q 1538 653 1625 653 
Q 1747 653 1978 738 
L 2053 56 
Q 1747 -75 1359 -75 
Q 1122 -75 931 4 
Q 741 84 652 211 
Q 563 338 528 553 
Q 500 706 500 1172 
L 500 2619 
L 97 2619 
L 97 3319 
L 500 3319 
L 500 3978 
L 1381 4491 
L 1381 3319 
L 1981 3319 
z
" transform="scale(0.015625)"/>
       <path id="Arial-BoldMT-6e" d="M 3478 0 
L 2600 0 
L 2600 1694 
Q 2600 2231 2544 2389 
Q 2488 2547 2361 2634 
Q 2234 2722 2056 2722 
Q 1828 2722 1647 2597 
Q 1466 2472 1398 2265 
Q 1331 2059 1331 1503 
L 1331 0 
L 453 0 
L 453 3319 
L 1269 3319 
L 1269 2831 
Q 1703 3394 2363 3394 
Q 2653 3394 2893 3289 
Q 3134 3184 3257 3021 
Q 3381 2859 3429 2653 
Q 3478 2447 3478 2063 
L 3478 0 
z
" transform="scale(0.015625)"/>
       <path id="Arial-BoldMT-69" d="M 459 3769 
L 459 4581 
L 1338 4581 
L 1338 3769 
L 459 3769 
z
M 459 0 
L 459 3319 
L 1338 3319 
L 1338 0 
L 459 0 
z
" transform="scale(0.015625)"/>
       <path id="Arial-BoldMT-6f" d="M 256 1706 
Q 256 2144 472 2553 
Q 688 2963 1083 3178 
Q 1478 3394 1966 3394 
Q 2719 3394 3200 2905 
Q 3681 2416 3681 1669 
Q 3681 916 3195 420 
Q 2709 -75 1972 -75 
Q 1516 -75 1102 131 
Q 688 338 472 736 
Q 256 1134 256 1706 
z
M 1156 1659 
Q 1156 1166 1390 903 
Q 1625 641 1969 641 
Q 2313 641 2545 903 
Q 2778 1166 2778 1666 
Q 2778 2153 2545 2415 
Q 2313 2678 1969 2678 
Q 1625 2678 1390 2415 
Q 1156 2153 1156 1659 
z
" transform="scale(0.015625)"/>
       <path id="Arial-BoldMT-20" transform="scale(0.015625)"/>
       <path id="Arial-BoldMT-6d" d="M 394 3319 
L 1203 3319 
L 1203 2866 
Q 1638 3394 2238 3394 
Q 2556 3394 2790 3262 
Q 3025 3131 3175 2866 
Q 3394 3131 3647 3262 
Q 3900 3394 4188 3394 
Q 4553 3394 4806 3245 
Q 5059 3097 5184 2809 
Q 5275 2597 5275 2122 
L 5275 0 
L 4397 0 
L 4397 1897 
Q 4397 2391 4306 2534 
Q 4184 2722 3931 2722 
Q 3747 2722 3584 2609 
Q 3422 2497 3350 2280 
Q 3278 2063 3278 1594 
L 3278 0 
L 2400 0 
L 2400 1819 
Q 2400 2303 2353 2443 
Q 2306 2584 2207 2653 
Q 2109 2722 1941 2722 
Q 1738 2722 1575 2612 
Q 1413 2503 1342 2297 
Q 1272 2091 1272 1613 
L 1272 0 
L 394 0 
L 394 3319 
z
" transform="scale(0.015625)"/>
       <path id="Arial-BoldMT-2f" d="M -9 -78 
L 1125 4659 
L 1784 4659 
L 638 -78 
L -9 -78 
z
" transform="scale(0.015625)"/>
      </defs>
      <use xlink:href="#Arial-BoldMT-52"/>
      <use xlink:href="#Arial-BoldMT-65" x="72.216797"/>
      <use xlink:href="#Arial-BoldMT-74" x="127.832031"/>
      <use xlink:href="#Arial-BoldMT-65" x="161.132812"/>
      <use xlink:href="#Arial-BoldMT-6e" x="216.748047"/>
      <use xlink:href="#Arial-BoldMT-74" x="277.832031"/>
      <use xlink:href="#Arial-BoldMT-69" x="311.132812"/>
      <use xlink:href="#Arial-BoldMT-6f" x="338.916016"/>
      <use xlink:href="#Arial-BoldMT-6e" x="400"/>
      <use xlink:href="#Arial-BoldMT-20" x="461.083984"/>
      <use xlink:href="#Arial-BoldMT-74" x="488.867188"/>
      <use xlink:href="#Arial-BoldMT-69" x="522.167969"/>
      <use xlink:href="#Arial-BoldMT-6d" x="549.951172"/>
      <use xlink:href="#Arial-BoldMT-65" x="638.867188"/>
      <use xlink:href="#Arial-BoldMT-20" x="694.482422"/>
      <use xlink:href="#Arial-BoldMT-2f" x="722.265625"/>
      <use xlink:href="#Arial-BoldMT-20" x="750.048828"/>
      <use xlink:href="#Arial-BoldMT-6d" x="777.832031"/>
      <use xlink:href="#Arial-BoldMT-69" x="866.748047"/>
      <use xlink:href="#Arial-BoldMT-6e" x="894.53125"/>
     </g>
    </g>
   </g>
   <g id="matplotlib.axis_2">
    <g id="ytick_1">
     <g id="line2d_8">
      <defs>
       <path id="mcfbbf92085" d="M 0 0 
L -8 0 
" style="stroke: #000000; stroke-width: 2"/>
      </defs>
      <g>
       <use xlink:href="#mcfbbf92085" x="71.702428" y="179.004873" style="stroke: #000000; stroke-width: 2"/>
      </g>
     </g>
     <g id="text_9">
      <!-- 0.00 -->
      <g transform="translate(23.67274 185.446904) scale(0.18 -0.18)">
       <use xlink:href="#Arial-BoldMT-30"/>
       <use xlink:href="#Arial-BoldMT-2e" x="55.615234"/>
       <use xlink:href="#Arial-BoldMT-30" x="83.398438"/>
       <use xlink:href="#Arial-BoldMT-30" x="139.013672"/>
      </g>
     </g>
    </g>
    <g id="ytick_2">
     <g id="line2d_9">
      <g>
       <use xlink:href="#mcfbbf92085" x="71.702428" y="137.232431" style="stroke: #000000; stroke-width: 2"/>
      </g>
     </g>
     <g id="text_10">
      <!-- 0.25 -->
      <g transform="translate(23.67274 143.674462) scale(0.18 -0.18)">
       <use xlink:href="#Arial-BoldMT-30"/>
       <use xlink:href="#Arial-BoldMT-2e" x="55.615234"/>
       <use xlink:href="#Arial-BoldMT-32" x="83.398438"/>
       <use xlink:href="#Arial-BoldMT-35" x="139.013672"/>
      </g>
     </g>
    </g>
    <g id="ytick_3">
     <g id="line2d_10">
      <g>
       <use xlink:href="#mcfbbf92085" x="71.702428" y="95.459989" style="stroke: #000000; stroke-width: 2"/>
      </g>
     </g>
     <g id="text_11">
      <!-- 0.50 -->
      <g transform="translate(23.67274 101.90202) scale(0.18 -0.18)">
       <use xlink:href="#Arial-BoldMT-30"/>
       <use xlink:href="#Arial-BoldMT-2e" x="55.615234"/>
       <use xlink:href="#Arial-BoldMT-35" x="83.398438"/>
       <use xlink:href="#Arial-BoldMT-30" x="139.013672"/>
      </g>
     </g>
    </g>
    <g id="ytick_4">
     <g id="line2d_11">
      <g>
       <use xlink:href="#mcfbbf92085" x="71.702428" y="53.687547" style="stroke: #000000; stroke-width: 2"/>
      </g>
     </g>
     <g id="text_12">
      <!-- 0.75 -->
      <g transform="translate(23.67274 60.129578) scale(0.18 -0.18)">
       <defs>
        <path id="Arial-BoldMT-37" d="M 272 3703 
L 272 4519 
L 3275 4519 
L 3275 3881 
Q 2903 3516 2518 2831 
Q 2134 2147 1932 1376 
Q 1731 606 1734 0 
L 888 0 
Q 909 950 1279 1937 
Q 1650 2925 2269 3703 
L 272 3703 
z
" transform="scale(0.015625)"/>
       </defs>
       <use xlink:href="#Arial-BoldMT-30"/>
       <use xlink:href="#Arial-BoldMT-2e" x="55.615234"/>
       <use xlink:href="#Arial-BoldMT-37" x="83.398438"/>
       <use xlink:href="#Arial-BoldMT-35" x="139.013672"/>
      </g>
     </g>
    </g>
    <g id="ytick_5">
     <g id="line2d_12">
      <g>
       <use xlink:href="#mcfbbf92085" x="71.702428" y="11.915105" style="stroke: #000000; stroke-width: 2"/>
      </g>
     </g>
     <g id="text_13">
      <!-- 1.00 -->
      <g transform="translate(23.67274 18.357136) scale(0.18 -0.18)">
       <use xlink:href="#Arial-BoldMT-31"/>
       <use xlink:href="#Arial-BoldMT-2e" x="55.615234"/>
       <use xlink:href="#Arial-BoldMT-30" x="83.398438"/>
       <use xlink:href="#Arial-BoldMT-30" x="139.013672"/>
      </g>
     </g>
    </g>
    <g id="text_14">
     <!-- Rel. Intensity -->
     <g transform="translate(15.884303 157.071875) rotate(-90) scale(0.18 -0.18)">
      <defs>
       <path id="Arial-BoldMT-6c" d="M 459 0 
L 459 4581 
L 1338 4581 
L 1338 0 
L 459 0 
z
" transform="scale(0.015625)"/>
       <path id="Arial-BoldMT-49" d="M 438 0 
L 438 4581 
L 1363 4581 
L 1363 0 
L 438 0 
z
" transform="scale(0.015625)"/>
       <path id="Arial-BoldMT-73" d="M 150 947 
L 1031 1081 
Q 1088 825 1259 692 
Q 1431 559 1741 559 
Q 2081 559 2253 684 
Q 2369 772 2369 919 
Q 2369 1019 2306 1084 
Q 2241 1147 2013 1200 
Q 950 1434 666 1628 
Q 272 1897 272 2375 
Q 272 2806 612 3100 
Q 953 3394 1669 3394 
Q 2350 3394 2681 3172 
Q 3013 2950 3138 2516 
L 2309 2363 
Q 2256 2556 2107 2659 
Q 1959 2763 1684 2763 
Q 1338 2763 1188 2666 
Q 1088 2597 1088 2488 
Q 1088 2394 1175 2328 
Q 1294 2241 1995 2081 
Q 2697 1922 2975 1691 
Q 3250 1456 3250 1038 
Q 3250 581 2869 253 
Q 2488 -75 1741 -75 
Q 1063 -75 667 200 
Q 272 475 150 947 
z
" transform="scale(0.015625)"/>
       <path id="Arial-BoldMT-79" d="M 44 3319 
L 978 3319 
L 1772 963 
L 2547 3319 
L 3456 3319 
L 2284 125 
L 2075 -453 
Q 1959 -744 1854 -897 
Q 1750 -1050 1614 -1145 
Q 1478 -1241 1279 -1294 
Q 1081 -1347 831 -1347 
Q 578 -1347 334 -1294 
L 256 -606 
Q 463 -647 628 -647 
Q 934 -647 1081 -467 
Q 1228 -288 1306 -9 
L 44 3319 
z
" transform="scale(0.015625)"/>
      </defs>
      <use xlink:href="#Arial-BoldMT-52"/>
      <use xlink:href="#Arial-BoldMT-65" x="72.216797"/>
      <use xlink:href="#Arial-BoldMT-6c" x="127.832031"/>
      <use xlink:href="#Arial-BoldMT-2e" x="155.615234"/>
      <use xlink:href="#Arial-BoldMT-20" x="183.398438"/>
      <use xlink:href="#Arial-BoldMT-49" x="211.181641"/>
      <use xlink:href="#Arial-BoldMT-6e" x="238.964844"/>
      <use xlink:href="#Arial-BoldMT-74" x="300.048828"/>
      <use xlink:href="#Arial-BoldMT-65" x="333.349609"/>
      <use xlink:href="#Arial-BoldMT-6e" x="388.964844"/>
      <use xlink:href="#Arial-BoldMT-73" x="450.048828"/>
      <use xlink:href="#Arial-BoldMT-69" x="505.664062"/>
      <use xlink:href="#Arial-BoldMT-74" x="533.447266"/>
      <use xlink:href="#Arial-BoldMT-79" x="566.748047"/>
     </g>
    </g>
   </g>
   <g id="line2d_13">
    <path d="M 122.306852 147.328943 
L 125.68048 147.535082 
L 129.054108 147.990554 
L 132.708872 148.73057 
L 136.0825 149.649669 
L 139.174993 150.729547 
L 143.392028 152.502373 
L 147.046791 154.297993 
L 150.982692 156.459595 
L 154.35632 158.512952 
L 158.573356 161.301119 
L 163.914934 165.116995 
L 170.381054 170.053681 
L 182.188752 179.576522 
L 189.217147 185.126368 
L 191.185095 186.517525 
L 192.028502 186.843506 
L 192.590773 186.806291 
L 193.153043 186.511814 
L 193.996455 185.706866 
L 194.839861 184.932351 
L 195.402132 184.715073 
L 195.964403 184.839961 
L 196.526673 185.285118 
L 197.37008 186.349699 
L 199.338033 188.98882 
L 200.181439 189.81046 
L 200.74371 190.141803 
L 201.305981 190.20869 
L 201.868252 189.974995 
L 202.711658 189.223356 
L 203.555064 188.210959 
L 204.11734 187.121339 
L 204.679611 185.206688 
L 205.241882 182.156638 
L 207.20983 168.013381 
L 207.490965 165.117117 
L 207.7721 159.592136 
L 208.053236 149.529985 
L 208.615507 113.761172 
L 209.458913 46.342619 
L 210.021184 22.093745 
L 210.302319 17.140444 
L 210.583455 15.123288 
L 211.145725 13.554589 
L 211.707996 12.646393 
L 212.270277 12.137853 
L 212.832548 11.92208 
L 213.95709 11.998078 
L 215.362767 12.590725 
L 217.049579 13.756104 
L 218.455256 14.48799 
L 221.266611 16.236679 
L 224.35911 17.576988 
L 225.483652 17.893794 
L 226.608194 18.23257 
L 227.732735 18.448082 
L 228.576142 18.956055 
L 229.138413 19.333266 
L 229.700683 19.653277 
L 230.54409 20.342542 
L 231.668631 21.396416 
L 232.793173 22.443728 
L 236.729079 27.215706 
L 240.102704 31.474146 
L 240.664975 32.605796 
L 241.227246 34.287319 
L 242.070652 37.760397 
L 242.914058 42.364742 
L 243.757475 48.420671 
L 244.882016 58.48369 
L 247.1311 82.090665 
L 249.380183 104.62165 
L 251.066996 119.053487 
L 252.472673 129.188226 
L 253.87835 137.72429 
L 255.284037 144.90912 
L 256.689714 150.943679 
L 258.095391 156.046219 
L 259.501068 160.324407 
L 260.906745 163.922589 
L 262.312423 166.960916 
L 263.7181 169.530689 
L 265.404922 172.1369 
L 267.091735 174.30938 
L 268.778547 176.10716 
L 270.46536 177.585714 
L 272.152172 178.78679 
L 273.838985 179.75561 
L 275.525807 180.506704 
L 277.493755 181.136368 
L 279.742839 181.630191 
L 281.991922 181.899818 
L 284.241006 181.999455 
L 287.895776 181.8931 
L 301.390276 181.136603 
L 309.824359 180.436546 
L 321.069776 179.732169 
L 330.347265 179.535254 
L 335.969973 179.688639 
L 347.777681 180.186022 
L 357.05515 180.414769 
L 363.8024 180.338665 
L 371.393077 180.114497 
L 380.108275 179.709453 
L 393.883931 179.125246 
L 402.880264 178.850429 
L 413.56343 178.713383 
L 420.591816 178.747268 
L 425.652253 178.746563 
L 436.89769 178.811102 
L 441.676993 178.897912 
L 450.673346 178.912233 
L 476.818961 179.076945 
L 481.598283 178.733909 
L 484.409637 178.871517 
L 489.470075 179.16529 
L 502.964575 179.18076 
L 506.619356 179.227363 
L 512.523179 179.262645 
L 517.302502 179.06745 
L 519.8327 178.959186 
L 522.644054 179.087059 
L 524.612023 179.10423 
L 525.736564 178.869784 
L 526.861106 178.385073 
L 529.110189 177.319371 
L 530.234731 177.077458 
L 531.359273 177.107843 
L 532.76497 177.389322 
L 537.544252 178.609637 
L 540.917877 179.07918 
L 544.572658 179.396328 
L 548.508553 179.395598 
L 552.725605 179.170139 
L 554.693533 178.966857 
L 556.661501 178.746096 
L 558.348313 178.81185 
L 564.252137 179.371212 
L 568.469189 179.625655 
L 572.967355 179.687436 
L 574.935323 179.430877 
L 576.903251 179.192963 
L 578.871219 179.222804 
L 585.056199 179.570623 
L 586.18074 179.356725 
L 587.305282 178.914928 
L 589.27325 178.069279 
L 590.397792 177.831621 
L 591.803449 177.593423 
L 592.646875 177.187107 
L 593.771417 176.264128 
L 594.895958 175.411898 
L 595.739345 175.123742 
L 596.582771 175.165067 
L 597.426157 175.466764 
L 598.831854 176.270559 
L 601.924324 178.240883 
L 603.048866 178.670224 
L 604.173407 178.884589 
L 605.297949 178.891329 
L 607.547073 178.584746 
L 608.671614 178.27906 
L 609.233885 177.948323 
L 609.796156 177.371618 
L 610.358427 176.4748 
L 611.201813 174.590914 
L 612.60751 171.294287 
L 613.169781 170.419759 
L 613.732052 169.914114 
L 614.294323 169.758201 
L 614.856593 169.904145 
L 615.418864 170.292221 
L 616.26225 171.216339 
L 617.667948 173.209968 
L 619.35476 175.599213 
L 620.479302 176.869179 
L 621.603844 177.815272 
L 622.728385 178.500977 
L 624.134042 179.066111 
L 625.820855 179.476277 
L 628.069938 179.746321 
L 630.600177 179.837822 
L 633.130416 179.705833 
L 635.660615 179.611396 
L 646.906032 179.732483 
L 653.372166 178.742008 
L 655.340134 178.724336 
L 658.151489 178.950798 
L 661.525114 179.235592 
L 668.834635 179.316498 
L 671.645989 179.185821 
L 672.770531 178.863684 
L 675.86304 177.654963 
L 677.549853 177.46456 
L 679.236665 177.495641 
L 680.923478 177.819176 
L 685.983916 178.998715 
L 687.108457 179.03408 
L 688.514114 178.811041 
L 690.482082 178.478559 
L 691.88778 178.468137 
L 693.855707 178.738195 
L 698.072759 179.39682 
L 700.884113 179.510038 
L 711.004988 179.308688 
L 711.848374 178.950144 
L 712.691801 178.238332 
L 715.22204 175.586871 
L 716.065426 175.194609 
L 716.908852 175.098616 
L 717.752238 175.233115 
L 725.62403 177.574279 
L 728.997655 178.539518 
L 731.246739 178.965456 
L 733.776978 179.212702 
L 737.712873 179.422165 
L 747.271478 179.62262 
L 748.677175 179.484884 
L 749.801717 179.167572 
L 752.894186 177.995156 
L 754.018728 177.924148 
L 755.424425 178.096779 
L 762.171675 179.404595 
L 764.701914 179.485566 
L 768.075539 179.403337 
L 772.29255 179.331292 
L 779.039841 179.284501 
L 782.13231 179.334422 
L 785.787091 179.351151 
L 793.658883 179.106977 
L 797.875934 179.230309 
L 798.719361 178.99126 
L 799.281591 178.648058 
L 799.843902 178.101615 
L 800.687248 176.892229 
L 802.655216 173.737622 
L 803.498643 172.984595 
L 804.060873 172.751145 
L 804.623184 172.713403 
L 805.466611 172.958229 
L 806.309957 173.46515 
L 809.402466 175.61608 
L 810.808123 176.285979 
L 812.494976 176.847134 
L 816.149716 177.728849 
L 818.3988 178.110167 
L 825.708361 178.920249 
L 836.391467 178.954368 
L 842.014256 178.155097 
L 843.701028 178.250564 
L 845.950111 178.604547 
L 848.48031 178.995201 
L 849.886048 178.952202 
L 854.66533 178.424825 
L 856.914413 178.535987 
L 860.288038 178.939575 
L 863.380548 179.242606 
L 870.127798 179.446228 
L 873.220308 179.424426 
L 878.843016 179.281653 
L 884.184609 179.511109 
L 888.682776 179.585934 
L 893.180943 179.628452 
L 897.116798 179.712003 
L 900.771539 179.937397 
L 903.582933 180.047812 
L 908.0811 180.074112 
L 912.017036 180.240189 
L 913.422693 180.124681 
L 914.547235 179.787672 
L 915.390661 179.30026 
L 916.515203 178.332369 
L 918.764286 176.086213 
L 919.607632 175.661239 
L 920.169943 175.584966 
L 921.01337 175.758769 
L 921.856716 176.188479 
L 923.262453 177.223477 
L 925.792652 179.152205 
L 926.917193 179.74594 
L 927.76062 179.966429 
L 928.32285 179.869126 
L 928.604046 179.655955 
L 928.885161 179.252205 
L 929.166277 178.556428 
L 929.447392 177.441507 
L 929.728588 175.736395 
L 930.290818 169.78497 
L 930.853129 159.220312 
L 931.41536 143.328401 
L 932.539902 100.864521 
L 933.383328 71.186478 
L 933.945559 56.866582 
L 934.50787 47.346206 
L 935.0701 41.681763 
L 935.632412 38.929486 
L 935.913527 38.386512 
L 936.194642 38.340932 
L 936.475838 38.737001 
L 936.756953 39.509239 
L 937.319184 42.177117 
L 937.881495 46.356509 
L 938.443726 52.105742 
L 939.287152 63.581734 
L 940.411694 82.82334 
L 942.379662 117.555239 
L 943.504203 133.301076 
L 944.34763 142.578677 
L 945.191056 149.779866 
L 945.753287 153.294632 
L 946.315598 155.358991 
L 946.596713 155.601607 
L 946.877828 155.128184 
L 947.158944 153.790182 
L 947.440139 151.435553 
L 948.00237 143.312138 
L 948.564681 130.752802 
L 950.813765 72.171238 
L 951.375995 64.095256 
L 951.938306 59.277538 
L 952.219422 57.906229 
L 952.500537 57.13245 
L 952.781652 56.926734 
L 953.062848 57.221571 
L 953.343963 57.980348 
L 953.906194 60.786414 
L 954.468505 65.127605 
L 955.311931 74.274556 
L 956.436473 90.201211 
L 958.966672 128.636989 
L 960.091213 141.841149 
L 960.93464 149.586791 
L 961.777986 155.672899 
L 962.621412 160.401259 
L 963.464838 164.08349 
L 964.308265 166.995065 
L 965.432806 170.028875 
L 966.557348 172.385098 
L 967.68189 174.213871 
L 968.806432 175.591017 
L 969.930973 176.590708 
L 971.33663 177.485501 
L 975.272566 179.490248 
L 977.802765 180.50974 
L 979.770733 181.075586 
L 981.17639 181.259302 
L 982.019816 181.128869 
L 982.582047 180.848731 
L 983.425473 180.11972 
L 985.674557 177.792844 
L 986.517983 177.377443 
L 987.36141 177.303825 
L 988.204756 177.505313 
L 989.610493 178.177139 
L 991.578381 179.081562 
L 992.984118 179.414301 
L 994.952006 179.664941 
L 996.638858 179.667874 
L 998.325631 179.443136 
L 1000.574714 178.935744 
L 1002.542682 178.402152 
L 1003.667224 178.408981 
L 1004.791766 178.659503 
L 1007.321964 179.584891 
L 1010.133359 180.52388 
L 1012.663557 181.096752 
L 1014.912641 181.366741 
L 1016.318378 181.333728 
L 1017.161724 181.14816 
L 1018.286266 180.639619 
L 1020.535349 179.447825 
L 1022.784433 178.426487 
L 1023.627859 177.75096 
L 1024.471285 176.773179 
L 1025.595827 174.991407 
L 1027.282599 172.153739 
L 1027.84491 171.549856 
L 1028.407141 171.229726 
L 1028.969452 171.200136 
L 1029.531763 171.434735 
L 1030.375109 172.184972 
L 1031.499651 173.625823 
L 1033.748734 176.624346 
L 1034.873276 177.708347 
L 1035.997817 178.444388 
L 1037.122359 178.904349 
L 1038.528097 179.209091 
L 1040.214869 179.344778 
L 1050.898055 179.613939 
L 1059.894389 179.012265 
L 1062.424587 178.792465 
L 1065.798212 178.834146 
L 1068.890722 178.769996 
L 1072.264347 178.835317 
L 1078.449367 178.933114 
L 1081.260681 179.020404 
L 1082.947533 178.831238 
L 1086.602274 178.306798 
L 1090.819325 178.183121 
L 1093.068409 178.394039 
L 1097.004264 178.84068 
L 1102.345857 178.984114 
L 1106.844024 178.875871 
L 1109.936534 179.103961 
L 1115.559242 179.513372 
L 1127.648086 179.890544 
L 1134.11422 180.069598 
L 1134.11422 180.069598 
" clip-path="url(#pc0ce2d957b)" style="fill: none; stroke: #000000; stroke-width: 2.5; stroke-linecap: square"/>
   </g>
   <g id="line2d_14">
    <path d="M 307.856407 199.12726 
L 307.856407 3.00024 
" clip-path="url(#pc0ce2d957b)" style="fill: none; stroke: #d55e00; stroke-width: 2; stroke-linecap: square"/>
   </g>
   <g id="line2d_15">
    <path d="M 1134.395336 199.12726 
L 1134.395336 3.00024 
" clip-path="url(#pc0ce2d957b)" style="fill: none; stroke: #d55e00; stroke-width: 2; stroke-linecap: square"/>
   </g>
   <g id="patch_3">
    <path d="M 71.702428 199.12726 
L 71.702428 3.00024 
" style="fill: none; stroke: #000000; stroke-width: 2; stroke-linejoin: miter; stroke-linecap: square"/>
   </g>
   <g id="patch_4">
    <path d="M 1184.99976 199.12726 
L 1184.99976 3.00024 
" style="fill: none; stroke: #000000; stroke-width: 2; stroke-linejoin: miter; stroke-linecap: square"/>
   </g>
   <g id="patch_5">
    <path d="M 71.702428 199.12726 
L 1184.99976 199.12726 
" style="fill: none; stroke: #000000; stroke-width: 2; stroke-linejoin: miter; stroke-linecap: square"/>
   </g>
   <g id="patch_6">
    <path d="M 71.702428 3.00024 
L 1184.99976 3.00024 
" style="fill: none; stroke: #000000; stroke-width: 2; stroke-linejoin: miter; stroke-linecap: square"/>
   </g>
   <g id="text_15">
    <!-- ANALYSIS -->
    <g style="fill: #d55e00" transform="translate(301.523807 132.682594) rotate(-90) scale(0.14994 -0.14994)">
     <defs>
      <path id="Arial-BoldMT-41" d="M 4597 0 
L 3591 0 
L 3191 1041 
L 1359 1041 
L 981 0 
L 0 0 
L 1784 4581 
L 2763 4581 
L 4597 0 
z
M 2894 1813 
L 2263 3513 
L 1644 1813 
L 2894 1813 
z
" transform="scale(0.015625)"/>
      <path id="Arial-BoldMT-4e" d="M 475 0 
L 475 4581 
L 1375 4581 
L 3250 1522 
L 3250 4581 
L 4109 4581 
L 4109 0 
L 3181 0 
L 1334 2988 
L 1334 0 
L 475 0 
z
" transform="scale(0.015625)"/>
      <path id="Arial-BoldMT-4c" d="M 491 0 
L 491 4544 
L 1416 4544 
L 1416 772 
L 3716 772 
L 3716 0 
L 491 0 
z
" transform="scale(0.015625)"/>
      <path id="Arial-BoldMT-59" d="M 1669 0 
L 1669 1928 
L -9 4581 
L 1075 4581 
L 2153 2769 
L 3209 4581 
L 4275 4581 
L 2591 1922 
L 2591 0 
L 1669 0 
z
" transform="scale(0.015625)"/>
      <path id="Arial-BoldMT-53" d="M 231 1491 
L 1131 1578 
Q 1213 1125 1461 912 
Q 1709 700 2131 700 
Q 2578 700 2804 889 
Q 3031 1078 3031 1331 
Q 3031 1494 2936 1608 
Q 2841 1722 2603 1806 
Q 2441 1863 1863 2006 
Q 1119 2191 819 2459 
Q 397 2838 397 3381 
Q 397 3731 595 4036 
Q 794 4341 1167 4500 
Q 1541 4659 2069 4659 
Q 2931 4659 3367 4281 
Q 3803 3903 3825 3272 
L 2900 3231 
Q 2841 3584 2645 3739 
Q 2450 3894 2059 3894 
Q 1656 3894 1428 3728 
Q 1281 3622 1281 3444 
Q 1281 3281 1419 3166 
Q 1594 3019 2269 2859 
Q 2944 2700 3267 2529 
Q 3591 2359 3773 2064 
Q 3956 1769 3956 1334 
Q 3956 941 3737 597 
Q 3519 253 3119 86 
Q 2719 -81 2122 -81 
Q 1253 -81 787 320 
Q 322 722 231 1491 
z
" transform="scale(0.015625)"/>
     </defs>
     <use xlink:href="#Arial-BoldMT-41"/>
     <use xlink:href="#Arial-BoldMT-4e" x="72.216797"/>
     <use xlink:href="#Arial-BoldMT-41" x="144.433594"/>
     <use xlink:href="#Arial-BoldMT-4c" x="216.650391"/>
     <use xlink:href="#Arial-BoldMT-59" x="268.609375"/>
     <use xlink:href="#Arial-BoldMT-53" x="335.308594"/>
     <use xlink:href="#Arial-BoldMT-49" x="402.007812"/>
     <use xlink:href="#Arial-BoldMT-53" x="429.791016"/>
    </g>
   </g>
   <g id="text_16">
    <!-- START -->
    <g style="fill: #d55e00" transform="translate(325.336088 119.894352) rotate(-90) scale(0.14994 -0.14994)">
     <defs>
      <path id="Arial-BoldMT-54" d="M 1497 0 
L 1497 3806 
L 138 3806 
L 138 4581 
L 3778 4581 
L 3778 3806 
L 2422 3806 
L 2422 0 
L 1497 0 
z
" transform="scale(0.015625)"/>
     </defs>
     <use xlink:href="#Arial-BoldMT-53"/>
     <use xlink:href="#Arial-BoldMT-54" x="66.699219"/>
     <use xlink:href="#Arial-BoldMT-41" x="120.408203"/>
     <use xlink:href="#Arial-BoldMT-52" x="192.625"/>
     <use xlink:href="#Arial-BoldMT-54" x="264.841797"/>
    </g>
   </g>
   <g id="text_17">
    <!-- ANALYSIS -->
    <g style="fill: #d55e00" transform="translate(1128.062735 132.682594) rotate(-90) scale(0.14994 -0.14994)">
     <use xlink:href="#Arial-BoldMT-41"/>
     <use xlink:href="#Arial-BoldMT-4e" x="72.216797"/>
     <use xlink:href="#Arial-BoldMT-41" x="144.433594"/>
     <use xlink:href="#Arial-BoldMT-4c" x="216.650391"/>
     <use xlink:href="#Arial-BoldMT-59" x="268.609375"/>
     <use xlink:href="#Arial-BoldMT-53" x="335.308594"/>
     <use xlink:href="#Arial-BoldMT-49" x="402.007812"/>
     <use xlink:href="#Arial-BoldMT-53" x="429.791016"/>
    </g>
   </g>
   <g id="text_18">
    <!-- END -->
    <g style="fill: #d55e00" transform="translate(1151.875016 111.289201) rotate(-90) scale(0.14994 -0.14994)">
     <defs>
      <path id="Arial-BoldMT-45" d="M 466 0 
L 466 4581 
L 3863 4581 
L 3863 3806 
L 1391 3806 
L 1391 2791 
L 3691 2791 
L 3691 2019 
L 1391 2019 
L 1391 772 
L 3950 772 
L 3950 0 
L 466 0 
z
" transform="scale(0.015625)"/>
      <path id="Arial-BoldMT-44" d="M 463 4581 
L 2153 4581 
Q 2725 4581 3025 4494 
Q 3428 4375 3715 4072 
Q 4003 3769 4153 3330 
Q 4303 2891 4303 2247 
Q 4303 1681 4163 1272 
Q 3991 772 3672 463 
Q 3431 228 3022 97 
Q 2716 0 2203 0 
L 463 0 
L 463 4581 
z
M 1388 3806 
L 1388 772 
L 2078 772 
Q 2466 772 2638 816 
Q 2863 872 3011 1006 
Q 3159 1141 3253 1448 
Q 3347 1756 3347 2288 
Q 3347 2819 3253 3103 
Q 3159 3388 2990 3547 
Q 2822 3706 2563 3763 
Q 2369 3806 1803 3806 
L 1388 3806 
z
" transform="scale(0.015625)"/>
     </defs>
     <use xlink:href="#Arial-BoldMT-45"/>
     <use xlink:href="#Arial-BoldMT-4e" x="66.699219"/>
     <use xlink:href="#Arial-BoldMT-44" x="138.916016"/>
    </g>
   </g>
  </g>
 </g>
 <defs>
  <clipPath id="pc0ce2d957b">
   <rect x="71.702428" y="3.00024" width="1113.297333" height="196.12702"/>
  </clipPath>
 </defs>
</svg>
