<?xml version="1.0" encoding="utf-8" standalone="no"?>
<!DOCTYPE svg PUBLIC "-//W3C//DTD SVG 1.1//EN"
  "http://www.w3.org/Graphics/SVG/1.1/DTD/svg11.dtd">
<svg xmlns:xlink="http://www.w3.org/1999/xlink" width="1188pt" height="252pt" viewBox="0 0 1188 252" xmlns="http://www.w3.org/2000/svg" version="1.1">
 <metadata>
  <rdf:RDF xmlns:dc="http://purl.org/dc/elements/1.1/" xmlns:cc="http://creativecommons.org/ns#" xmlns:rdf="http://www.w3.org/1999/02/22-rdf-syntax-ns#">
   <cc:Work>
    <dc:type rdf:resource="http://purl.org/dc/dcmitype/StillImage"/>
    <dc:date>2024-05-14T23:27:21.598257</dc:date>
    <dc:format>image/svg+xml</dc:format>
    <dc:creator>
     <cc:Agent>
      <dc:title>Matplotlib v3.8.0, https://matplotlib.org/</dc:title>
     </cc:Agent>
    </dc:creator>
   </cc:Work>
  </rdf:RDF>
 </metadata>
 <defs>
  <style type="text/css">*{stroke-linejoin: round; stroke-linecap: butt}</style>
 </defs>
 <g id="figure_1">
  <g id="patch_1">
   <path d="M 0 252 
L 1188 252 
L 1188 0 
L 0 0 
z
" style="fill: #ffffff"/>
  </g>
  <g id="axes_1">
   <g id="patch_2">
    <path d="M 71.702428 199.12726 
L 1184.99976 199.12726 
L 1184.99976 3.00024 
L 71.702428 3.00024 
z
" style="fill: #ffffff"/>
   </g>
   <g id="PolyCollection_1">
    <path d="M 930.853129 169.318095 
L 930.853129 169.92373 
L 931.134245 169.92373 
L 931.41536 169.92373 
L 931.696475 169.92373 
L 931.977671 169.92373 
L 932.258786 169.92373 
L 932.539902 169.92373 
L 932.821017 169.92373 
L 933.102213 169.92373 
L 933.383328 169.92373 
L 933.664443 169.92373 
L 933.945559 169.92373 
L 934.226755 169.92373 
L 934.50787 169.92373 
L 934.788985 169.92373 
L 935.0701 169.92373 
L 935.351296 169.92373 
L 935.632412 169.92373 
L 935.913527 169.92373 
L 936.194642 169.92373 
L 936.475838 169.92373 
L 936.756953 169.92373 
L 937.038069 169.92373 
L 937.319184 169.92373 
L 937.60038 169.92373 
L 937.881495 169.92373 
L 938.16261 169.92373 
L 938.443726 169.92373 
L 938.724921 169.92373 
L 939.006037 169.92373 
L 939.287152 169.92373 
L 939.568267 169.92373 
L 939.849463 169.92373 
L 940.130578 169.92373 
L 940.411694 169.92373 
L 940.692809 169.92373 
L 940.974005 169.92373 
L 941.25512 169.92373 
L 941.536235 169.92373 
L 941.817351 169.92373 
L 942.098546 169.92373 
L 942.379662 169.92373 
L 942.660777 169.92373 
L 942.941892 169.92373 
L 943.223088 169.92373 
L 943.504203 169.92373 
L 943.785319 169.92373 
L 944.066434 169.92373 
L 944.34763 169.92373 
L 944.628745 169.92373 
L 944.90986 169.92373 
L 945.191056 169.92373 
L 945.472171 169.92373 
L 945.753287 169.92373 
L 946.034402 169.92373 
L 946.315598 169.92373 
L 946.596713 169.92373 
L 946.877828 169.92373 
L 947.158944 169.92373 
L 947.440139 169.92373 
L 947.721255 169.92373 
L 948.00237 169.92373 
L 948.283485 169.92373 
L 948.564681 169.92373 
L 948.845796 169.92373 
L 949.126912 169.92373 
L 949.408027 169.92373 
L 949.689223 169.92373 
L 949.970338 169.92373 
L 950.251453 169.92373 
L 950.532569 169.92373 
L 950.813765 169.92373 
L 951.09488 169.92373 
L 951.375995 169.92373 
L 951.65711 169.92373 
L 951.938306 169.92373 
L 952.219422 169.92373 
L 952.500537 169.92373 
L 952.781652 169.92373 
L 953.062848 169.92373 
L 953.343963 169.92373 
L 953.625079 169.92373 
L 953.906194 169.92373 
L 954.18739 169.92373 
L 954.468505 169.92373 
L 954.74962 169.92373 
L 955.030736 169.92373 
L 955.311931 169.92373 
L 955.593047 169.92373 
L 955.874162 169.92373 
L 956.155277 169.92373 
L 956.436473 169.92373 
L 956.717588 169.92373 
L 956.998704 169.92373 
L 957.279819 169.92373 
L 957.561015 169.92373 
L 957.84213 169.92373 
L 958.123245 169.92373 
L 958.404361 169.92373 
L 958.685556 169.92373 
L 958.966672 169.92373 
L 959.247787 169.92373 
L 959.528902 169.92373 
L 959.810098 169.92373 
L 960.091213 169.92373 
L 960.372329 169.92373 
L 960.653444 169.92373 
L 960.93464 169.92373 
L 961.215755 169.92373 
L 961.49687 169.92373 
L 961.777986 169.92373 
L 962.059181 169.92373 
L 962.340297 169.92373 
L 962.621412 169.92373 
L 962.902527 169.92373 
L 963.183723 169.92373 
L 963.464838 169.92373 
L 963.745954 169.92373 
L 964.027069 169.92373 
L 964.308265 169.92373 
L 964.58938 169.92373 
L 964.870495 169.92373 
L 965.151611 169.92373 
L 965.432806 169.92373 
L 965.713922 169.92373 
L 965.995037 169.92373 
L 966.276233 169.92373 
L 966.557348 169.92373 
L 966.838463 169.92373 
L 967.119579 169.92373 
L 967.400775 169.92373 
L 967.400775 169.615492 
L 967.400775 169.615492 
L 967.119579 169.160625 
L 966.838463 168.67419 
L 966.557348 168.154724 
L 966.276233 167.603951 
L 965.995037 167.020405 
L 965.713922 166.398892 
L 965.432806 165.735982 
L 965.151611 165.026783 
L 964.870495 164.262936 
L 964.58938 163.436161 
L 964.308265 162.545456 
L 964.027069 161.583793 
L 963.745954 160.544039 
L 963.464838 159.420523 
L 963.183723 158.210204 
L 962.902527 156.900097 
L 962.621412 155.479868 
L 962.340297 153.938824 
L 962.059181 152.270816 
L 961.777986 150.457533 
L 961.49687 148.491619 
L 961.215755 146.366566 
L 960.93464 144.076303 
L 960.653444 141.607856 
L 960.372329 138.953465 
L 960.091213 136.11125 
L 959.810098 133.079889 
L 959.528902 129.857259 
L 959.247787 126.449759 
L 958.966672 122.883711 
L 958.685556 119.169955 
L 958.404361 115.326039 
L 958.123245 111.389665 
L 957.84213 107.389716 
L 957.561015 103.352659 
L 957.279819 99.322283 
L 956.998704 95.345031 
L 956.717588 91.45107 
L 956.436473 87.699118 
L 956.155277 84.134586 
L 955.874162 80.787931 
L 955.593047 77.705356 
L 955.311931 74.912082 
L 955.030736 72.429495 
L 954.74962 70.278676 
L 954.468505 68.491136 
L 954.18739 67.080031 
L 953.906194 66.091488 
L 953.625079 65.539979 
L 953.343963 65.464217 
L 953.062848 65.91317 
L 952.781652 66.924724 
L 952.500537 68.573774 
L 952.219422 70.924193 
L 951.938306 74.05065 
L 951.65711 77.993181 
L 951.375995 82.801385 
L 951.09488 88.420181 
L 950.813765 94.811882 
L 950.532569 101.824824 
L 950.251453 109.272943 
L 949.970338 116.891054 
L 949.689223 124.416818 
L 949.408027 131.537957 
L 949.126912 138.001383 
L 948.845796 143.589407 
L 948.564681 148.175941 
L 948.283485 151.706705 
L 948.00237 154.209542 
L 947.721255 155.76651 
L 947.440139 156.51156 
L 947.158944 156.579497 
L 946.877828 156.100035 
L 946.596713 155.190299 
L 946.315598 153.94291 
L 946.034402 152.413718 
L 945.753287 150.640096 
L 945.472171 148.654881 
L 945.191056 146.465678 
L 944.90986 144.072547 
L 944.628745 141.473644 
L 944.34763 138.668748 
L 944.066434 135.644758 
L 943.785319 132.398015 
L 943.504203 128.926181 
L 943.223088 125.232351 
L 942.941892 121.323355 
L 942.660777 117.207101 
L 942.379662 112.907087 
L 942.098546 108.451167 
L 941.817351 103.866391 
L 941.536235 99.198969 
L 941.25512 94.492768 
L 940.974005 89.797293 
L 940.692809 85.160898 
L 940.411694 80.642468 
L 940.130578 76.280782 
L 939.849463 72.140838 
L 939.568267 68.263064 
L 939.287152 64.673566 
L 939.006037 61.425369 
L 938.724921 58.528835 
L 938.443726 56.004757 
L 938.16261 53.852896 
L 937.881495 52.090645 
L 937.60038 50.691907 
L 937.319184 49.699357 
L 937.038069 49.089338 
L 936.756953 48.915851 
L 936.475838 49.243618 
L 936.194642 50.142279 
L 935.913527 51.650562 
L 935.632412 53.903002 
L 935.351296 56.976056 
L 935.0701 60.95739 
L 934.788985 65.917821 
L 934.50787 71.955007 
L 934.226755 79.050205 
L 933.945559 87.131535 
L 933.664443 96.035583 
L 933.383328 105.54718 
L 933.102213 115.334717 
L 932.821017 125.04383 
L 932.539902 134.336467 
L 932.258786 142.893847 
L 931.977671 150.462921 
L 931.696475 156.892498 
L 931.41536 162.14121 
L 931.134245 166.243996 
L 930.853129 169.318095 
z
" clip-path="url(#p5e31f41c20)" style="fill: #d55e00"/>
   </g>
   <g id="PolyCollection_2">
    <path d="M 948.283485 151.706705 
L 948.283485 152.023733 
L 948.564681 152.023733 
L 948.845796 152.023733 
L 949.126912 152.023733 
L 949.408027 152.023733 
L 949.689223 152.023733 
L 949.970338 152.023733 
L 950.251453 152.023733 
L 950.532569 152.023733 
L 950.813765 152.023733 
L 951.09488 152.023733 
L 951.375995 152.023733 
L 951.65711 152.023733 
L 951.938306 152.023733 
L 952.219422 152.023733 
L 952.500537 152.023733 
L 952.781652 152.023733 
L 953.062848 152.023733 
L 953.343963 152.023733 
L 953.625079 152.023733 
L 953.906194 152.023733 
L 954.18739 152.023733 
L 954.468505 152.023733 
L 954.74962 152.023733 
L 955.030736 152.023733 
L 955.311931 152.023733 
L 955.593047 152.023733 
L 955.874162 152.023733 
L 956.155277 152.023733 
L 956.436473 152.023733 
L 956.717588 152.023733 
L 956.998704 152.023733 
L 957.279819 152.023733 
L 957.561015 152.023733 
L 957.84213 152.023733 
L 958.123245 152.023733 
L 958.404361 152.023733 
L 958.685556 152.023733 
L 958.966672 152.023733 
L 959.247787 152.023733 
L 959.528902 152.023733 
L 959.810098 152.023733 
L 960.091213 152.023733 
L 960.372329 152.023733 
L 960.653444 152.023733 
L 960.93464 152.023733 
L 961.215755 152.023733 
L 961.49687 152.023733 
L 961.777986 152.023733 
L 961.777986 150.457533 
L 961.777986 150.457533 
L 961.49687 148.491619 
L 961.215755 146.366566 
L 960.93464 144.076303 
L 960.653444 141.607856 
L 960.372329 138.953465 
L 960.091213 136.11125 
L 959.810098 133.079889 
L 959.528902 129.857259 
L 959.247787 126.449759 
L 958.966672 122.883711 
L 958.685556 119.169955 
L 958.404361 115.326039 
L 958.123245 111.389665 
L 957.84213 107.389716 
L 957.561015 103.352659 
L 957.279819 99.322283 
L 956.998704 95.345031 
L 956.717588 91.45107 
L 956.436473 87.699118 
L 956.155277 84.134586 
L 955.874162 80.787931 
L 955.593047 77.705356 
L 955.311931 74.912082 
L 955.030736 72.429495 
L 954.74962 70.278676 
L 954.468505 68.491136 
L 954.18739 67.080031 
L 953.906194 66.091488 
L 953.625079 65.539979 
L 953.343963 65.464217 
L 953.062848 65.91317 
L 952.781652 66.924724 
L 952.500537 68.573774 
L 952.219422 70.924193 
L 951.938306 74.05065 
L 951.65711 77.993181 
L 951.375995 82.801385 
L 951.09488 88.420181 
L 950.813765 94.811882 
L 950.532569 101.824824 
L 950.251453 109.272943 
L 949.970338 116.891054 
L 949.689223 124.416818 
L 949.408027 131.537957 
L 949.126912 138.001383 
L 948.845796 143.589407 
L 948.564681 148.175941 
L 948.283485 151.706705 
z
" clip-path="url(#p5e31f41c20)" style="fill: #0072b2"/>
   </g>
   <g id="PathCollection_1">
    <defs>
     <path id="m1eab1d391a" d="M 0 -5.91608 
L -1.328243 -1.828169 
L -5.626526 -1.828169 
L -2.149142 0.698298 
L -3.477384 4.786209 
L -0 2.259741 
L 3.477384 4.786209 
L 2.149142 0.698298 
L 5.626526 -1.828169 
L 1.328243 -1.828169 
z
" style="stroke: #000000; stroke-width: 1.5"/>
    </defs>
    <g clip-path="url(#p5e31f41c20)">
     <use xlink:href="#m1eab1d391a" x="935.351267" y="40.659187" style="stroke: #000000; stroke-width: 1.5"/>
    </g>
   </g>
   <g id="PathCollection_2">
    <g clip-path="url(#p5e31f41c20)">
     <use xlink:href="#m1eab1d391a" x="952.219409" y="54.607324" style="stroke: #000000; stroke-width: 1.5"/>
    </g>
   </g>
   <g id="matplotlib.axis_1">
    <g id="xtick_1">
     <g id="line2d_1">
      <defs>
       <path id="mf39e3f7ce5" d="M 0 0 
L 0 8 
" style="stroke: #000000; stroke-width: 2"/>
      </defs>
      <g>
       <use xlink:href="#mf39e3f7ce5" x="122.306852" y="199.12726" style="stroke: #000000; stroke-width: 2"/>
      </g>
     </g>
     <g id="text_1">
      <!-- 0.0 -->
      <g transform="translate(109.796852 225.011323) scale(0.18 -0.18)">
       <defs>
        <path id="Arial-BoldMT-30" d="M 1756 4600 
Q 2422 4600 2797 4125 
Q 3244 3563 3244 2259 
Q 3244 959 2794 391 
Q 2422 -78 1756 -78 
Q 1088 -78 678 436 
Q 269 950 269 2269 
Q 269 3563 719 4131 
Q 1091 4600 1756 4600 
z
M 1756 3872 
Q 1597 3872 1472 3770 
Q 1347 3669 1278 3406 
Q 1188 3066 1188 2259 
Q 1188 1453 1269 1151 
Q 1350 850 1473 750 
Q 1597 650 1756 650 
Q 1916 650 2041 751 
Q 2166 853 2234 1116 
Q 2325 1453 2325 2259 
Q 2325 3066 2244 3367 
Q 2163 3669 2039 3770 
Q 1916 3872 1756 3872 
z
" transform="scale(0.015625)"/>
        <path id="Arial-BoldMT-2e" d="M 459 0 
L 459 878 
L 1338 878 
L 1338 0 
L 459 0 
z
" transform="scale(0.015625)"/>
       </defs>
       <use xlink:href="#Arial-BoldMT-30"/>
       <use xlink:href="#Arial-BoldMT-2e" x="55.615234"/>
       <use xlink:href="#Arial-BoldMT-30" x="83.398438"/>
      </g>
     </g>
    </g>
    <g id="xtick_2">
     <g id="line2d_2">
      <g>
       <use xlink:href="#mf39e3f7ce5" x="290.988266" y="199.12726" style="stroke: #000000; stroke-width: 2"/>
      </g>
     </g>
     <g id="text_2">
      <!-- 0.5 -->
      <g transform="translate(278.478266 225.011323) scale(0.18 -0.18)">
       <defs>
        <path id="Arial-BoldMT-35" d="M 284 1178 
L 1159 1269 
Q 1197 972 1381 798 
Q 1566 625 1806 625 
Q 2081 625 2272 848 
Q 2463 1072 2463 1522 
Q 2463 1944 2273 2155 
Q 2084 2366 1781 2366 
Q 1403 2366 1103 2031 
L 391 2134 
L 841 4519 
L 3163 4519 
L 3163 3697 
L 1506 3697 
L 1369 2919 
Q 1663 3066 1969 3066 
Q 2553 3066 2959 2641 
Q 3366 2216 3366 1538 
Q 3366 972 3038 528 
Q 2591 -78 1797 -78 
Q 1163 -78 763 262 
Q 363 603 284 1178 
z
" transform="scale(0.015625)"/>
       </defs>
       <use xlink:href="#Arial-BoldMT-30"/>
       <use xlink:href="#Arial-BoldMT-2e" x="55.615234"/>
       <use xlink:href="#Arial-BoldMT-35" x="83.398438"/>
      </g>
     </g>
    </g>
    <g id="xtick_3">
     <g id="line2d_3">
      <g>
       <use xlink:href="#mf39e3f7ce5" x="459.66968" y="199.12726" style="stroke: #000000; stroke-width: 2"/>
      </g>
     </g>
     <g id="text_3">
      <!-- 1.0 -->
      <g transform="translate(447.15968 225.011323) scale(0.18 -0.18)">
       <defs>
        <path id="Arial-BoldMT-31" d="M 2519 0 
L 1641 0 
L 1641 3309 
Q 1159 2859 506 2644 
L 506 3441 
Q 850 3553 1253 3867 
Q 1656 4181 1806 4600 
L 2519 4600 
L 2519 0 
z
" transform="scale(0.015625)"/>
       </defs>
       <use xlink:href="#Arial-BoldMT-31"/>
       <use xlink:href="#Arial-BoldMT-2e" x="55.615234"/>
       <use xlink:href="#Arial-BoldMT-30" x="83.398438"/>
      </g>
     </g>
    </g>
    <g id="xtick_4">
     <g id="line2d_4">
      <g>
       <use xlink:href="#mf39e3f7ce5" x="628.351094" y="199.12726" style="stroke: #000000; stroke-width: 2"/>
      </g>
     </g>
     <g id="text_4">
      <!-- 1.5 -->
      <g transform="translate(615.841094 225.011323) scale(0.18 -0.18)">
       <use xlink:href="#Arial-BoldMT-31"/>
       <use xlink:href="#Arial-BoldMT-2e" x="55.615234"/>
       <use xlink:href="#Arial-BoldMT-35" x="83.398438"/>
      </g>
     </g>
    </g>
    <g id="xtick_5">
     <g id="line2d_5">
      <g>
       <use xlink:href="#mf39e3f7ce5" x="797.032508" y="199.12726" style="stroke: #000000; stroke-width: 2"/>
      </g>
     </g>
     <g id="text_5">
      <!-- 2.0 -->
      <g transform="translate(784.522508 225.011323) scale(0.18 -0.18)">
       <defs>
        <path id="Arial-BoldMT-32" d="M 3238 816 
L 3238 0 
L 159 0 
Q 209 463 459 877 
Q 709 1291 1447 1975 
Q 2041 2528 2175 2725 
Q 2356 2997 2356 3263 
Q 2356 3556 2198 3714 
Q 2041 3872 1763 3872 
Q 1488 3872 1325 3706 
Q 1163 3541 1138 3156 
L 263 3244 
Q 341 3969 753 4284 
Q 1166 4600 1784 4600 
Q 2463 4600 2850 4234 
Q 3238 3869 3238 3325 
Q 3238 3016 3127 2736 
Q 3016 2456 2775 2150 
Q 2616 1947 2200 1565 
Q 1784 1184 1673 1059 
Q 1563 934 1494 816 
L 3238 816 
z
" transform="scale(0.015625)"/>
       </defs>
       <use xlink:href="#Arial-BoldMT-32"/>
       <use xlink:href="#Arial-BoldMT-2e" x="55.615234"/>
       <use xlink:href="#Arial-BoldMT-30" x="83.398438"/>
      </g>
     </g>
    </g>
    <g id="xtick_6">
     <g id="line2d_6">
      <g>
       <use xlink:href="#mf39e3f7ce5" x="965.713922" y="199.12726" style="stroke: #000000; stroke-width: 2"/>
      </g>
     </g>
     <g id="text_6">
      <!-- 2.5 -->
      <g transform="translate(953.203922 225.011323) scale(0.18 -0.18)">
       <use xlink:href="#Arial-BoldMT-32"/>
       <use xlink:href="#Arial-BoldMT-2e" x="55.615234"/>
       <use xlink:href="#Arial-BoldMT-35" x="83.398438"/>
      </g>
     </g>
    </g>
    <g id="xtick_7">
     <g id="line2d_7">
      <g>
       <use xlink:href="#mf39e3f7ce5" x="1134.395336" y="199.12726" style="stroke: #000000; stroke-width: 2"/>
      </g>
     </g>
     <g id="text_7">
      <!-- 3.0 -->
      <g transform="translate(1121.885336 225.011323) scale(0.18 -0.18)">
       <defs>
        <path id="Arial-BoldMT-33" d="M 241 1216 
L 1091 1319 
Q 1131 994 1309 822 
Q 1488 650 1741 650 
Q 2013 650 2198 856 
Q 2384 1063 2384 1413 
Q 2384 1744 2206 1937 
Q 2028 2131 1772 2131 
Q 1603 2131 1369 2066 
L 1466 2781 
Q 1822 2772 2009 2936 
Q 2197 3100 2197 3372 
Q 2197 3603 2059 3740 
Q 1922 3878 1694 3878 
Q 1469 3878 1309 3722 
Q 1150 3566 1116 3266 
L 306 3403 
Q 391 3819 561 4067 
Q 731 4316 1036 4458 
Q 1341 4600 1719 4600 
Q 2366 4600 2756 4188 
Q 3078 3850 3078 3425 
Q 3078 2822 2419 2463 
Q 2813 2378 3048 2084 
Q 3284 1791 3284 1375 
Q 3284 772 2843 347 
Q 2403 -78 1747 -78 
Q 1125 -78 715 280 
Q 306 638 241 1216 
z
" transform="scale(0.015625)"/>
       </defs>
       <use xlink:href="#Arial-BoldMT-33"/>
       <use xlink:href="#Arial-BoldMT-2e" x="55.615234"/>
       <use xlink:href="#Arial-BoldMT-30" x="83.398438"/>
      </g>
     </g>
    </g>
    <g id="text_8">
     <!-- Retention time / min -->
     <g transform="translate(542.350469 245.447573) scale(0.18 -0.18)">
      <defs>
       <path id="Arial-BoldMT-52" d="M 469 0 
L 469 4581 
L 2416 4581 
Q 3150 4581 3483 4457 
Q 3816 4334 4016 4018 
Q 4216 3703 4216 3297 
Q 4216 2781 3912 2445 
Q 3609 2109 3006 2022 
Q 3306 1847 3501 1637 
Q 3697 1428 4028 894 
L 4588 0 
L 3481 0 
L 2813 997 
Q 2456 1531 2325 1670 
Q 2194 1809 2047 1861 
Q 1900 1913 1581 1913 
L 1394 1913 
L 1394 0 
L 469 0 
z
M 1394 2644 
L 2078 2644 
Q 2744 2644 2909 2700 
Q 3075 2756 3169 2893 
Q 3263 3031 3263 3238 
Q 3263 3469 3139 3611 
Q 3016 3753 2791 3791 
Q 2678 3806 2116 3806 
L 1394 3806 
L 1394 2644 
z
" transform="scale(0.015625)"/>
       <path id="Arial-BoldMT-65" d="M 2381 1056 
L 3256 909 
Q 3088 428 2723 176 
Q 2359 -75 1813 -75 
Q 947 -75 531 491 
Q 203 944 203 1634 
Q 203 2459 634 2926 
Q 1066 3394 1725 3394 
Q 2466 3394 2894 2905 
Q 3322 2416 3303 1406 
L 1103 1406 
Q 1113 1016 1316 798 
Q 1519 581 1822 581 
Q 2028 581 2168 693 
Q 2309 806 2381 1056 
z
M 2431 1944 
Q 2422 2325 2234 2523 
Q 2047 2722 1778 2722 
Q 1491 2722 1303 2513 
Q 1116 2303 1119 1944 
L 2431 1944 
z
" transform="scale(0.015625)"/>
       <path id="Arial-BoldMT-74" d="M 1981 3319 
L 1981 2619 
L 1381 2619 
L 1381 1281 
Q 1381 875 1398 808 
Q 1416 741 1477 697 
Q 1538 653 1625 653 
Q 1747 653 1978 738 
L 2053 56 
Q 1747 -75 1359 -75 
Q 1122 -75 931 4 
Q 741 84 652 211 
Q 563 338 528 553 
Q 500 706 500 1172 
L 500 2619 
L 97 2619 
L 97 3319 
L 500 3319 
L 500 3978 
L 1381 4491 
L 1381 3319 
L 1981 3319 
z
" transform="scale(0.015625)"/>
       <path id="Arial-BoldMT-6e" d="M 3478 0 
L 2600 0 
L 2600 1694 
Q 2600 2231 2544 2389 
Q 2488 2547 2361 2634 
Q 2234 2722 2056 2722 
Q 1828 2722 1647 2597 
Q 1466 2472 1398 2265 
Q 1331 2059 1331 1503 
L 1331 0 
L 453 0 
L 453 3319 
L 1269 3319 
L 1269 2831 
Q 1703 3394 2363 3394 
Q 2653 3394 2893 3289 
Q 3134 3184 3257 3021 
Q 3381 2859 3429 2653 
Q 3478 2447 3478 2063 
L 3478 0 
z
" transform="scale(0.015625)"/>
       <path id="Arial-BoldMT-69" d="M 459 3769 
L 459 4581 
L 1338 4581 
L 1338 3769 
L 459 3769 
z
M 459 0 
L 459 3319 
L 1338 3319 
L 1338 0 
L 459 0 
z
" transform="scale(0.015625)"/>
       <path id="Arial-BoldMT-6f" d="M 256 1706 
Q 256 2144 472 2553 
Q 688 2963 1083 3178 
Q 1478 3394 1966 3394 
Q 2719 3394 3200 2905 
Q 3681 2416 3681 1669 
Q 3681 916 3195 420 
Q 2709 -75 1972 -75 
Q 1516 -75 1102 131 
Q 688 338 472 736 
Q 256 1134 256 1706 
z
M 1156 1659 
Q 1156 1166 1390 903 
Q 1625 641 1969 641 
Q 2313 641 2545 903 
Q 2778 1166 2778 1666 
Q 2778 2153 2545 2415 
Q 2313 2678 1969 2678 
Q 1625 2678 1390 2415 
Q 1156 2153 1156 1659 
z
" transform="scale(0.015625)"/>
       <path id="Arial-BoldMT-20" transform="scale(0.015625)"/>
       <path id="Arial-BoldMT-6d" d="M 394 3319 
L 1203 3319 
L 1203 2866 
Q 1638 3394 2238 3394 
Q 2556 3394 2790 3262 
Q 3025 3131 3175 2866 
Q 3394 3131 3647 3262 
Q 3900 3394 4188 3394 
Q 4553 3394 4806 3245 
Q 5059 3097 5184 2809 
Q 5275 2597 5275 2122 
L 5275 0 
L 4397 0 
L 4397 1897 
Q 4397 2391 4306 2534 
Q 4184 2722 3931 2722 
Q 3747 2722 3584 2609 
Q 3422 2497 3350 2280 
Q 3278 2063 3278 1594 
L 3278 0 
L 2400 0 
L 2400 1819 
Q 2400 2303 2353 2443 
Q 2306 2584 2207 2653 
Q 2109 2722 1941 2722 
Q 1738 2722 1575 2612 
Q 1413 2503 1342 2297 
Q 1272 2091 1272 1613 
L 1272 0 
L 394 0 
L 394 3319 
z
" transform="scale(0.015625)"/>
       <path id="Arial-BoldMT-2f" d="M -9 -78 
L 1125 4659 
L 1784 4659 
L 638 -78 
L -9 -78 
z
" transform="scale(0.015625)"/>
      </defs>
      <use xlink:href="#Arial-BoldMT-52"/>
      <use xlink:href="#Arial-BoldMT-65" x="72.216797"/>
      <use xlink:href="#Arial-BoldMT-74" x="127.832031"/>
      <use xlink:href="#Arial-BoldMT-65" x="161.132812"/>
      <use xlink:href="#Arial-BoldMT-6e" x="216.748047"/>
      <use xlink:href="#Arial-BoldMT-74" x="277.832031"/>
      <use xlink:href="#Arial-BoldMT-69" x="311.132812"/>
      <use xlink:href="#Arial-BoldMT-6f" x="338.916016"/>
      <use xlink:href="#Arial-BoldMT-6e" x="400"/>
      <use xlink:href="#Arial-BoldMT-20" x="461.083984"/>
      <use xlink:href="#Arial-BoldMT-74" x="488.867188"/>
      <use xlink:href="#Arial-BoldMT-69" x="522.167969"/>
      <use xlink:href="#Arial-BoldMT-6d" x="549.951172"/>
      <use xlink:href="#Arial-BoldMT-65" x="638.867188"/>
      <use xlink:href="#Arial-BoldMT-20" x="694.482422"/>
      <use xlink:href="#Arial-BoldMT-2f" x="722.265625"/>
      <use xlink:href="#Arial-BoldMT-20" x="750.048828"/>
      <use xlink:href="#Arial-BoldMT-6d" x="777.832031"/>
      <use xlink:href="#Arial-BoldMT-69" x="866.748047"/>
      <use xlink:href="#Arial-BoldMT-6e" x="894.53125"/>
     </g>
    </g>
   </g>
   <g id="matplotlib.axis_2">
    <g id="ytick_1">
     <g id="line2d_8">
      <defs>
       <path id="m61583126f1" d="M 0 0 
L -8 0 
" style="stroke: #000000; stroke-width: 2"/>
      </defs>
      <g>
       <use xlink:href="#m61583126f1" x="71.702428" y="175.083801" style="stroke: #000000; stroke-width: 2"/>
      </g>
     </g>
     <g id="text_9">
      <!-- 0.00 -->
      <g transform="translate(23.67274 181.525833) scale(0.18 -0.18)">
       <use xlink:href="#Arial-BoldMT-30"/>
       <use xlink:href="#Arial-BoldMT-2e" x="55.615234"/>
       <use xlink:href="#Arial-BoldMT-30" x="83.398438"/>
       <use xlink:href="#Arial-BoldMT-30" x="139.013672"/>
      </g>
     </g>
    </g>
    <g id="ytick_2">
     <g id="line2d_9">
      <g>
       <use xlink:href="#m61583126f1" x="71.702428" y="134.291627" style="stroke: #000000; stroke-width: 2"/>
      </g>
     </g>
     <g id="text_10">
      <!-- 0.25 -->
      <g transform="translate(23.67274 140.733658) scale(0.18 -0.18)">
       <use xlink:href="#Arial-BoldMT-30"/>
       <use xlink:href="#Arial-BoldMT-2e" x="55.615234"/>
       <use xlink:href="#Arial-BoldMT-32" x="83.398438"/>
       <use xlink:href="#Arial-BoldMT-35" x="139.013672"/>
      </g>
     </g>
    </g>
    <g id="ytick_3">
     <g id="line2d_10">
      <g>
       <use xlink:href="#m61583126f1" x="71.702428" y="93.499453" style="stroke: #000000; stroke-width: 2"/>
      </g>
     </g>
     <g id="text_11">
      <!-- 0.50 -->
      <g transform="translate(23.67274 99.941484) scale(0.18 -0.18)">
       <use xlink:href="#Arial-BoldMT-30"/>
       <use xlink:href="#Arial-BoldMT-2e" x="55.615234"/>
       <use xlink:href="#Arial-BoldMT-35" x="83.398438"/>
       <use xlink:href="#Arial-BoldMT-30" x="139.013672"/>
      </g>
     </g>
    </g>
    <g id="ytick_4">
     <g id="line2d_11">
      <g>
       <use xlink:href="#m61583126f1" x="71.702428" y="52.707279" style="stroke: #000000; stroke-width: 2"/>
      </g>
     </g>
     <g id="text_12">
      <!-- 0.75 -->
      <g transform="translate(23.67274 59.14931) scale(0.18 -0.18)">
       <defs>
        <path id="Arial-BoldMT-37" d="M 272 3703 
L 272 4519 
L 3275 4519 
L 3275 3881 
Q 2903 3516 2518 2831 
Q 2134 2147 1932 1376 
Q 1731 606 1734 0 
L 888 0 
Q 909 950 1279 1937 
Q 1650 2925 2269 3703 
L 272 3703 
z
" transform="scale(0.015625)"/>
       </defs>
       <use xlink:href="#Arial-BoldMT-30"/>
       <use xlink:href="#Arial-BoldMT-2e" x="55.615234"/>
       <use xlink:href="#Arial-BoldMT-37" x="83.398438"/>
       <use xlink:href="#Arial-BoldMT-35" x="139.013672"/>
      </g>
     </g>
    </g>
    <g id="ytick_5">
     <g id="line2d_12">
      <g>
       <use xlink:href="#m61583126f1" x="71.702428" y="11.915105" style="stroke: #000000; stroke-width: 2"/>
      </g>
     </g>
     <g id="text_13">
      <!-- 1.00 -->
      <g transform="translate(23.67274 18.357136) scale(0.18 -0.18)">
       <use xlink:href="#Arial-BoldMT-31"/>
       <use xlink:href="#Arial-BoldMT-2e" x="55.615234"/>
       <use xlink:href="#Arial-BoldMT-30" x="83.398438"/>
       <use xlink:href="#Arial-BoldMT-30" x="139.013672"/>
      </g>
     </g>
    </g>
    <g id="text_14">
     <!-- Rel. Intensity -->
     <g transform="translate(15.884303 157.071875) rotate(-90) scale(0.18 -0.18)">
      <defs>
       <path id="Arial-BoldMT-6c" d="M 459 0 
L 459 4581 
L 1338 4581 
L 1338 0 
L 459 0 
z
" transform="scale(0.015625)"/>
       <path id="Arial-BoldMT-49" d="M 438 0 
L 438 4581 
L 1363 4581 
L 1363 0 
L 438 0 
z
" transform="scale(0.015625)"/>
       <path id="Arial-BoldMT-73" d="M 150 947 
L 1031 1081 
Q 1088 825 1259 692 
Q 1431 559 1741 559 
Q 2081 559 2253 684 
Q 2369 772 2369 919 
Q 2369 1019 2306 1084 
Q 2241 1147 2013 1200 
Q 950 1434 666 1628 
Q 272 1897 272 2375 
Q 272 2806 612 3100 
Q 953 3394 1669 3394 
Q 2350 3394 2681 3172 
Q 3013 2950 3138 2516 
L 2309 2363 
Q 2256 2556 2107 2659 
Q 1959 2763 1684 2763 
Q 1338 2763 1188 2666 
Q 1088 2597 1088 2488 
Q 1088 2394 1175 2328 
Q 1294 2241 1995 2081 
Q 2697 1922 2975 1691 
Q 3250 1456 3250 1038 
Q 3250 581 2869 253 
Q 2488 -75 1741 -75 
Q 1063 -75 667 200 
Q 272 475 150 947 
z
" transform="scale(0.015625)"/>
       <path id="Arial-BoldMT-79" d="M 44 3319 
L 978 3319 
L 1772 963 
L 2547 3319 
L 3456 3319 
L 2284 125 
L 2075 -453 
Q 1959 -744 1854 -897 
Q 1750 -1050 1614 -1145 
Q 1478 -1241 1279 -1294 
Q 1081 -1347 831 -1347 
Q 578 -1347 334 -1294 
L 256 -606 
Q 463 -647 628 -647 
Q 934 -647 1081 -467 
Q 1228 -288 1306 -9 
L 44 3319 
z
" transform="scale(0.015625)"/>
      </defs>
      <use xlink:href="#Arial-BoldMT-52"/>
      <use xlink:href="#Arial-BoldMT-65" x="72.216797"/>
      <use xlink:href="#Arial-BoldMT-6c" x="127.832031"/>
      <use xlink:href="#Arial-BoldMT-2e" x="155.615234"/>
      <use xlink:href="#Arial-BoldMT-20" x="183.398438"/>
      <use xlink:href="#Arial-BoldMT-49" x="211.181641"/>
      <use xlink:href="#Arial-BoldMT-6e" x="238.964844"/>
      <use xlink:href="#Arial-BoldMT-74" x="300.048828"/>
      <use xlink:href="#Arial-BoldMT-65" x="333.349609"/>
      <use xlink:href="#Arial-BoldMT-6e" x="388.964844"/>
      <use xlink:href="#Arial-BoldMT-73" x="450.048828"/>
      <use xlink:href="#Arial-BoldMT-69" x="505.664062"/>
      <use xlink:href="#Arial-BoldMT-74" x="533.447266"/>
      <use xlink:href="#Arial-BoldMT-79" x="566.748047"/>
     </g>
    </g>
   </g>
   <g id="line2d_13">
    <path d="M 122.306852 142.659052 
L 125.399344 142.944473 
L 128.491837 143.458659 
L 131.865465 144.228052 
L 135.520229 145.332895 
L 138.893858 146.588887 
L 142.267486 148.090685 
L 146.484521 150.237203 
L 150.420422 152.463421 
L 155.199726 155.451899 
L 160.260169 158.915811 
L 165.882882 162.991534 
L 173.473549 168.721936 
L 188.092601 180.3236 
L 191.466231 182.85033 
L 193.153043 183.922883 
L 196.245538 185.729582 
L 201.305981 189.371827 
L 202.711658 190.099062 
L 203.273929 190.212395 
L 203.555064 190.131941 
L 203.836199 189.893693 
L 204.11734 189.4354 
L 204.398475 188.694195 
L 204.960746 186.201283 
L 205.523017 182.390462 
L 207.20983 169.020604 
L 207.490965 165.547036 
L 207.7721 158.99598 
L 208.053236 147.595454 
L 208.615507 109.365552 
L 209.458913 42.613095 
L 210.021184 20.424779 
L 210.302319 16.207995 
L 210.583455 14.519603 
L 211.145725 13.065059 
L 211.707996 12.281314 
L 212.270277 11.992125 
L 213.113683 11.964514 
L 214.519361 11.957907 
L 215.081631 12.236699 
L 216.487309 13.22241 
L 218.174121 13.987054 
L 221.547746 16.254872 
L 223.234569 16.741818 
L 224.35911 17.344226 
L 226.045923 18.113844 
L 226.608194 18.416172 
L 228.295006 19.028663 
L 229.419548 19.872664 
L 230.262954 20.646341 
L 232.793173 23.060799 
L 235.323402 26.164933 
L 236.729079 27.487145 
L 239.540433 30.818789 
L 240.94611 33.237441 
L 241.508381 34.57504 
L 242.351787 37.435918 
L 243.195194 41.531082 
L 244.03861 46.791361 
L 244.882016 53.19203 
L 246.287693 66.044318 
L 250.504725 106.122037 
L 251.910402 117.229764 
L 253.316079 126.805886 
L 254.721766 134.931216 
L 256.127443 141.745626 
L 257.53312 147.590696 
L 258.938797 152.51875 
L 260.344475 156.689187 
L 261.750152 160.239797 
L 263.436964 163.804217 
L 264.842651 166.276836 
L 266.529464 168.799004 
L 268.216276 170.881004 
L 269.903089 172.58641 
L 271.589901 173.981869 
L 273.276714 175.121556 
L 274.963527 176.007842 
L 277.21262 176.886441 
L 279.461703 177.488944 
L 281.710787 177.883546 
L 284.803276 178.194114 
L 288.458047 178.309403 
L 292.393943 178.234849 
L 298.297787 177.810062 
L 319.664099 175.836343 
L 325.849098 175.597693 
L 332.596348 175.602954 
L 337.937921 175.855272 
L 351.713577 176.416223 
L 359.585369 176.47555 
L 368.300587 176.302989 
L 378.140327 175.891847 
L 389.666899 175.417172 
L 400.631181 175.075872 
L 417.499326 174.919164 
L 423.684306 174.881233 
L 426.214524 174.58993 
L 430.993847 173.865319 
L 432.680659 173.914307 
L 435.210878 174.2131 
L 439.709045 174.799147 
L 445.050618 175.095203 
L 450.673346 175.219367 
L 475.694419 175.318863 
L 477.943502 175.139671 
L 480.754856 174.922313 
L 483.847366 174.989115 
L 492.8437 175.33982 
L 500.434336 175.36926 
L 506.057085 175.308593 
L 514.772263 175.389738 
L 516.17796 175.116454 
L 518.989314 174.451414 
L 520.957242 174.336405 
L 523.206366 174.434044 
L 528.266803 174.940309 
L 532.202699 174.816361 
L 535.857439 175.11682 
L 544.572658 175.627497 
L 546.540626 175.493282 
L 548.227438 175.122584 
L 551.882179 174.204013 
L 555.818074 173.845853 
L 557.223772 173.837197 
L 558.629429 174.091043 
L 561.721938 174.986679 
L 564.252137 175.560023 
L 567.063532 175.873804 
L 570.156001 175.960192 
L 572.967355 175.911927 
L 574.091897 175.701552 
L 577.184407 174.918549 
L 578.590064 174.914837 
L 580.558032 175.173872 
L 583.650501 175.608862 
L 585.337314 175.649407 
L 586.461896 175.456448 
L 587.586437 174.977279 
L 588.992094 174.327487 
L 590.116636 174.067042 
L 591.803449 173.789284 
L 592.646875 173.324815 
L 593.771417 172.292313 
L 594.895958 171.291285 
L 595.739345 170.895945 
L 596.582771 170.85869 
L 597.426157 171.103125 
L 598.550699 171.725654 
L 601.924324 173.904751 
L 602.76775 174.152482 
L 603.611136 174.169798 
L 604.454563 173.966378 
L 608.671614 172.586301 
L 609.515 172.219076 
L 610.077271 171.715793 
L 610.639542 170.932043 
L 611.482968 169.309699 
L 612.60751 167.13848 
L 613.169781 166.407137 
L 613.732052 166.000255 
L 614.294323 165.918078 
L 614.856593 166.122484 
L 615.69998 166.823348 
L 616.824521 168.212411 
L 619.635876 172.053998 
L 620.760417 173.221273 
L 621.884959 174.110997 
L 623.290656 174.892299 
L 624.696313 175.38387 
L 626.383126 175.713728 
L 628.351094 175.852594 
L 630.600177 175.748285 
L 635.098344 175.437488 
L 637.909698 175.63571 
L 641.283323 175.854347 
L 651.966509 176.166232 
L 658.432604 175.84874 
L 665.179854 176.134917 
L 670.802603 176.06942 
L 671.645989 175.829151 
L 672.20826 175.443101 
L 672.770531 174.819159 
L 673.613957 173.502022 
L 675.019614 171.203525 
L 675.86304 170.257114 
L 676.706427 169.691209 
L 677.549853 169.392667 
L 678.393239 169.272527 
L 679.236665 169.35678 
L 680.080052 169.700067 
L 681.204593 170.455884 
L 684.578218 173.02349 
L 685.421645 173.353294 
L 686.265031 173.445969 
L 687.389573 173.276597 
L 689.357541 172.911508 
L 690.482082 172.999969 
L 691.606624 173.318551 
L 693.574592 174.197173 
L 695.54252 175.049719 
L 696.948217 175.46515 
L 698.63503 175.731921 
L 700.321842 175.794956 
L 704.538853 175.537372 
L 708.474749 175.331692 
L 711.004988 175.331236 
L 711.567259 175.046432 
L 712.12953 174.439107 
L 712.691801 173.434415 
L 713.535227 171.28407 
L 714.940884 167.426069 
L 715.784311 165.883237 
L 716.346581 165.287968 
L 716.908852 165.012717 
L 717.471123 165.01708 
L 718.033394 165.243305 
L 718.87678 165.859798 
L 720.563593 167.181733 
L 722.250405 168.070099 
L 723.374947 168.806543 
L 724.780644 170.020536 
L 728.435384 173.350601 
L 729.841082 174.286304 
L 731.246739 174.885108 
L 732.652436 175.212604 
L 734.620404 175.395605 
L 741.929925 175.730121 
L 744.741279 175.911097 
L 746.990362 175.903739 
L 748.114904 175.757678 
L 748.95829 175.466548 
L 749.801717 174.936492 
L 751.207374 173.6352 
L 752.331915 172.724229 
L 753.175342 172.333003 
L 754.018728 172.193362 
L 754.862154 172.284527 
L 755.986696 172.683436 
L 757.954664 173.729214 
L 759.641477 174.544019 
L 761.047134 174.939664 
L 763.015102 175.205083 
L 767.794384 175.542788 
L 772.854821 175.795644 
L 787.192748 175.765175 
L 792.534341 175.659496 
L 800.968444 175.596393 
L 802.936332 175.380678 
L 806.591152 174.769376 
L 808.55904 174.833468 
L 810.808123 174.904818 
L 815.868601 174.803555 
L 818.117685 174.811067 
L 821.772425 174.734539 
L 824.021508 175.007651 
L 825.989476 175.195717 
L 827.957444 175.112737 
L 830.768758 175.039833 
L 833.017842 175.214543 
L 838.07832 175.795767 
L 839.483977 175.621386 
L 841.73306 175.008076 
L 844.263339 174.329692 
L 845.387881 174.277292 
L 846.512422 174.443201 
L 849.323736 175.062186 
L 850.167163 174.916207 
L 851.010589 174.49226 
L 852.697362 173.491728 
L 853.540788 173.249719 
L 854.384214 173.226884 
L 855.508756 173.456258 
L 856.914413 174.022151 
L 860.850349 175.794545 
L 862.537121 176.234612 
L 864.223974 176.452525 
L 866.473058 176.458194 
L 869.284372 176.303561 
L 874.063654 175.585133 
L 875.750506 175.590548 
L 877.99959 175.892015 
L 879.686362 176.059972 
L 880.529788 175.947222 
L 881.935526 175.434576 
L 883.060068 175.102198 
L 884.184609 175.057057 
L 885.590266 175.32026 
L 887.558234 175.686562 
L 888.682776 175.649071 
L 889.807318 175.373258 
L 892.618632 174.459365 
L 894.305484 174.256259 
L 895.711141 174.291378 
L 897.116798 174.540097 
L 898.522455 174.999923 
L 901.33385 176.009819 
L 902.458392 176.1969 
L 903.301818 176.092078 
L 904.42636 175.614108 
L 905.550901 175.114936 
L 906.394328 174.982206 
L 907.237674 175.13489 
L 909.486757 175.865502 
L 910.049068 175.745193 
L 910.611299 175.412118 
L 911.454725 174.572212 
L 913.141578 172.695324 
L 913.984924 172.128232 
L 917.077433 170.582488 
L 918.201975 169.495923 
L 919.326517 168.46883 
L 919.888828 168.184185 
L 920.451059 168.127634 
L 921.01337 168.306844 
L 921.5756 168.692682 
L 922.419027 169.561153 
L 925.792652 173.602953 
L 926.917193 174.346919 
L 928.32285 174.956876 
L 928.885161 175.062265 
L 929.447392 174.885539 
L 929.728588 174.568756 
L 930.009703 173.986945 
L 930.290818 173.019647 
L 930.571934 171.517985 
L 931.134245 166.243996 
L 931.696475 156.892498 
L 932.258786 142.893847 
L 933.383328 105.54718 
L 934.226755 79.050205 
L 934.788985 65.917821 
L 935.351296 56.976056 
L 935.913527 51.650562 
L 936.194642 50.142279 
L 936.475838 49.243618 
L 936.756953 48.915851 
L 937.038069 49.089338 
L 937.319184 49.699357 
L 937.881495 52.090645 
L 938.443726 56.004757 
L 939.006037 61.425369 
L 939.849463 72.140838 
L 940.974005 89.797293 
L 942.941892 121.323355 
L 944.066434 135.644758 
L 944.90986 144.072547 
L 945.753287 150.640096 
L 946.315598 153.94291 
L 946.877828 156.100035 
L 947.158944 156.579497 
L 947.440139 156.51156 
L 947.721255 155.76651 
L 948.00237 154.209542 
L 948.283485 151.706705 
L 948.845796 143.589407 
L 949.408027 131.537957 
L 951.375995 82.801385 
L 951.938306 74.05065 
L 952.500537 68.573774 
L 953.062848 65.91317 
L 953.343963 65.464217 
L 953.625079 65.539979 
L 953.906194 66.091488 
L 954.18739 67.080031 
L 954.74962 70.278676 
L 955.311931 74.912082 
L 956.155277 84.134586 
L 957.561015 103.352659 
L 959.247787 126.449759 
L 960.372329 138.953465 
L 961.215755 146.366566 
L 962.059181 152.270816 
L 962.902527 156.900097 
L 963.745954 160.544039 
L 964.58938 163.436161 
L 965.713922 166.398892 
L 966.838463 168.67419 
L 967.963005 170.435746 
L 969.087547 171.75956 
L 970.212089 172.751818 
L 971.617746 173.663745 
L 973.023483 174.311571 
L 975.834797 175.280351 
L 977.802765 175.730994 
L 979.489537 175.898173 
L 983.144358 176.193105 
L 984.83113 176.29146 
L 987.642525 176.11372 
L 992.140692 175.888884 
L 996.919974 175.115734 
L 1003.104993 174.169457 
L 1004.51065 174.302018 
L 1009.852243 175.129991 
L 1016.037182 175.835007 
L 1019.129692 175.870137 
L 1021.941087 175.625063 
L 1025.033516 175.326288 
L 1028.407141 175.265616 
L 1031.780846 175.076074 
L 1034.59216 175.016572 
L 1044.713036 175.181182 
L 1059.332078 175.010212 
L 1066.079328 175.160845 
L 1079.573908 174.862827 
L 1083.509764 174.644389 
L 1086.602274 174.673803 
L 1100.096774 175.129011 
L 1122.868804 175.174749 
L 1134.11422 175.119717 
L 1134.11422 175.119717 
" clip-path="url(#p5e31f41c20)" style="fill: none; stroke: #000000; stroke-width: 2.5; stroke-linecap: square"/>
   </g>
   <g id="line2d_14">
    <path d="M 307.856407 199.12726 
L 307.856407 3.00024 
" clip-path="url(#p5e31f41c20)" style="fill: none; stroke: #d55e00; stroke-width: 2; stroke-linecap: square"/>
   </g>
   <g id="line2d_15">
    <path d="M 1134.395336 199.12726 
L 1134.395336 3.00024 
" clip-path="url(#p5e31f41c20)" style="fill: none; stroke: #d55e00; stroke-width: 2; stroke-linecap: square"/>
   </g>
   <g id="patch_3">
    <path d="M 71.702428 199.12726 
L 71.702428 3.00024 
" style="fill: none; stroke: #000000; stroke-width: 2; stroke-linejoin: miter; stroke-linecap: square"/>
   </g>
   <g id="patch_4">
    <path d="M 1184.99976 199.12726 
L 1184.99976 3.00024 
" style="fill: none; stroke: #000000; stroke-width: 2; stroke-linejoin: miter; stroke-linecap: square"/>
   </g>
   <g id="patch_5">
    <path d="M 71.702428 199.12726 
L 1184.99976 199.12726 
" style="fill: none; stroke: #000000; stroke-width: 2; stroke-linejoin: miter; stroke-linecap: square"/>
   </g>
   <g id="patch_6">
    <path d="M 71.702428 3.00024 
L 1184.99976 3.00024 
" style="fill: none; stroke: #000000; stroke-width: 2; stroke-linejoin: miter; stroke-linecap: square"/>
   </g>
   <g id="text_15">
    <!-- ANALYSIS -->
    <g style="fill: #d55e00" transform="translate(301.523807 130.722058) rotate(-90) scale(0.14994 -0.14994)">
     <defs>
      <path id="Arial-BoldMT-41" d="M 4597 0 
L 3591 0 
L 3191 1041 
L 1359 1041 
L 981 0 
L 0 0 
L 1784 4581 
L 2763 4581 
L 4597 0 
z
M 2894 1813 
L 2263 3513 
L 1644 1813 
L 2894 1813 
z
" transform="scale(0.015625)"/>
      <path id="Arial-BoldMT-4e" d="M 475 0 
L 475 4581 
L 1375 4581 
L 3250 1522 
L 3250 4581 
L 4109 4581 
L 4109 0 
L 3181 0 
L 1334 2988 
L 1334 0 
L 475 0 
z
" transform="scale(0.015625)"/>
      <path id="Arial-BoldMT-4c" d="M 491 0 
L 491 4544 
L 1416 4544 
L 1416 772 
L 3716 772 
L 3716 0 
L 491 0 
z
" transform="scale(0.015625)"/>
      <path id="Arial-BoldMT-59" d="M 1669 0 
L 1669 1928 
L -9 4581 
L 1075 4581 
L 2153 2769 
L 3209 4581 
L 4275 4581 
L 2591 1922 
L 2591 0 
L 1669 0 
z
" transform="scale(0.015625)"/>
      <path id="Arial-BoldMT-53" d="M 231 1491 
L 1131 1578 
Q 1213 1125 1461 912 
Q 1709 700 2131 700 
Q 2578 700 2804 889 
Q 3031 1078 3031 1331 
Q 3031 1494 2936 1608 
Q 2841 1722 2603 1806 
Q 2441 1863 1863 2006 
Q 1119 2191 819 2459 
Q 397 2838 397 3381 
Q 397 3731 595 4036 
Q 794 4341 1167 4500 
Q 1541 4659 2069 4659 
Q 2931 4659 3367 4281 
Q 3803 3903 3825 3272 
L 2900 3231 
Q 2841 3584 2645 3739 
Q 2450 3894 2059 3894 
Q 1656 3894 1428 3728 
Q 1281 3622 1281 3444 
Q 1281 3281 1419 3166 
Q 1594 3019 2269 2859 
Q 2944 2700 3267 2529 
Q 3591 2359 3773 2064 
Q 3956 1769 3956 1334 
Q 3956 941 3737 597 
Q 3519 253 3119 86 
Q 2719 -81 2122 -81 
Q 1253 -81 787 320 
Q 322 722 231 1491 
z
" transform="scale(0.015625)"/>
     </defs>
     <use xlink:href="#Arial-BoldMT-41"/>
     <use xlink:href="#Arial-BoldMT-4e" x="72.216797"/>
     <use xlink:href="#Arial-BoldMT-41" x="144.433594"/>
     <use xlink:href="#Arial-BoldMT-4c" x="216.650391"/>
     <use xlink:href="#Arial-BoldMT-59" x="268.609375"/>
     <use xlink:href="#Arial-BoldMT-53" x="335.308594"/>
     <use xlink:href="#Arial-BoldMT-49" x="402.007812"/>
     <use xlink:href="#Arial-BoldMT-53" x="429.791016"/>
    </g>
   </g>
   <g id="text_16">
    <!-- START -->
    <g style="fill: #d55e00" transform="translate(325.336088 117.933816) rotate(-90) scale(0.14994 -0.14994)">
     <defs>
      <path id="Arial-BoldMT-54" d="M 1497 0 
L 1497 3806 
L 138 3806 
L 138 4581 
L 3778 4581 
L 3778 3806 
L 2422 3806 
L 2422 0 
L 1497 0 
z
" transform="scale(0.015625)"/>
     </defs>
     <use xlink:href="#Arial-BoldMT-53"/>
     <use xlink:href="#Arial-BoldMT-54" x="66.699219"/>
     <use xlink:href="#Arial-BoldMT-41" x="120.408203"/>
     <use xlink:href="#Arial-BoldMT-52" x="192.625"/>
     <use xlink:href="#Arial-BoldMT-54" x="264.841797"/>
    </g>
   </g>
   <g id="text_17">
    <!-- ANALYSIS -->
    <g style="fill: #d55e00" transform="translate(1128.062735 130.722058) rotate(-90) scale(0.14994 -0.14994)">
     <use xlink:href="#Arial-BoldMT-41"/>
     <use xlink:href="#Arial-BoldMT-4e" x="72.216797"/>
     <use xlink:href="#Arial-BoldMT-41" x="144.433594"/>
     <use xlink:href="#Arial-BoldMT-4c" x="216.650391"/>
     <use xlink:href="#Arial-BoldMT-59" x="268.609375"/>
     <use xlink:href="#Arial-BoldMT-53" x="335.308594"/>
     <use xlink:href="#Arial-BoldMT-49" x="402.007812"/>
     <use xlink:href="#Arial-BoldMT-53" x="429.791016"/>
    </g>
   </g>
   <g id="text_18">
    <!-- END -->
    <g style="fill: #d55e00" transform="translate(1151.875016 109.328666) rotate(-90) scale(0.14994 -0.14994)">
     <defs>
      <path id="Arial-BoldMT-45" d="M 466 0 
L 466 4581 
L 3863 4581 
L 3863 3806 
L 1391 3806 
L 1391 2791 
L 3691 2791 
L 3691 2019 
L 1391 2019 
L 1391 772 
L 3950 772 
L 3950 0 
L 466 0 
z
" transform="scale(0.015625)"/>
      <path id="Arial-BoldMT-44" d="M 463 4581 
L 2153 4581 
Q 2725 4581 3025 4494 
Q 3428 4375 3715 4072 
Q 4003 3769 4153 3330 
Q 4303 2891 4303 2247 
Q 4303 1681 4163 1272 
Q 3991 772 3672 463 
Q 3431 228 3022 97 
Q 2716 0 2203 0 
L 463 0 
L 463 4581 
z
M 1388 3806 
L 1388 772 
L 2078 772 
Q 2466 772 2638 816 
Q 2863 872 3011 1006 
Q 3159 1141 3253 1448 
Q 3347 1756 3347 2288 
Q 3347 2819 3253 3103 
Q 3159 3388 2990 3547 
Q 2822 3706 2563 3763 
Q 2369 3806 1803 3806 
L 1388 3806 
z
" transform="scale(0.015625)"/>
     </defs>
     <use xlink:href="#Arial-BoldMT-45"/>
     <use xlink:href="#Arial-BoldMT-4e" x="66.699219"/>
     <use xlink:href="#Arial-BoldMT-44" x="138.916016"/>
    </g>
   </g>
  </g>
 </g>
 <defs>
  <clipPath id="p5e31f41c20">
   <rect x="71.702428" y="3.00024" width="1113.297333" height="196.12702"/>
  </clipPath>
 </defs>
</svg>
