<?xml version="1.0" encoding="utf-8" standalone="no"?>
<!DOCTYPE svg PUBLIC "-//W3C//DTD SVG 1.1//EN"
  "http://www.w3.org/Graphics/SVG/1.1/DTD/svg11.dtd">
<svg xmlns:xlink="http://www.w3.org/1999/xlink" width="1188pt" height="252pt" viewBox="0 0 1188 252" xmlns="http://www.w3.org/2000/svg" version="1.1">
 <metadata>
  <rdf:RDF xmlns:dc="http://purl.org/dc/elements/1.1/" xmlns:cc="http://creativecommons.org/ns#" xmlns:rdf="http://www.w3.org/1999/02/22-rdf-syntax-ns#">
   <cc:Work>
    <dc:type rdf:resource="http://purl.org/dc/dcmitype/StillImage"/>
    <dc:date>2024-05-14T23:27:22.314911</dc:date>
    <dc:format>image/svg+xml</dc:format>
    <dc:creator>
     <cc:Agent>
      <dc:title>Matplotlib v3.8.0, https://matplotlib.org/</dc:title>
     </cc:Agent>
    </dc:creator>
   </cc:Work>
  </rdf:RDF>
 </metadata>
 <defs>
  <style type="text/css">*{stroke-linejoin: round; stroke-linecap: butt}</style>
 </defs>
 <g id="figure_1">
  <g id="patch_1">
   <path d="M 0 252 
L 1188 252 
L 1188 0 
L 0 0 
z
" style="fill: #ffffff"/>
  </g>
  <g id="axes_1">
   <g id="patch_2">
    <path d="M 71.702428 199.12726 
L 1184.99976 199.12726 
L 1184.99976 3.00024 
L 71.702428 3.00024 
z
" style="fill: #ffffff"/>
   </g>
   <g id="PolyCollection_1">
    <path d="M 823.654082 170.394744 
L 823.654082 168.576659 
L 823.935276 168.576659 
L 824.216469 168.576659 
L 824.497743 168.576659 
L 824.778936 168.576659 
L 825.06013 168.576659 
L 825.341323 168.576659 
L 825.622597 168.576659 
L 825.90379 168.576659 
L 826.184984 168.576659 
L 826.466177 168.576659 
L 826.747451 168.576659 
L 827.028645 168.576659 
L 827.309838 168.576659 
L 827.591031 168.576659 
L 827.872305 168.576659 
L 828.153499 168.576659 
L 828.434692 168.576659 
L 828.715886 168.576659 
L 828.997159 168.576659 
L 829.278353 168.576659 
L 829.559546 168.576659 
L 829.84074 168.576659 
L 830.122014 168.576659 
L 830.403207 168.576659 
L 830.6844 168.576659 
L 830.965594 168.576659 
L 831.246868 168.576659 
L 831.528061 168.576659 
L 831.809254 168.576659 
L 832.090448 168.576659 
L 832.371722 168.576659 
L 832.652915 168.576659 
L 832.934109 168.576659 
L 833.215302 168.576659 
L 833.496576 168.576659 
L 833.777769 168.576659 
L 834.058963 168.576659 
L 834.340156 168.576659 
L 834.62143 168.576659 
L 834.902623 168.576659 
L 835.183817 168.576659 
L 835.46501 168.576659 
L 835.746284 168.576659 
L 836.027478 168.576659 
L 836.308671 168.576659 
L 836.589864 168.576659 
L 836.871138 168.576659 
L 837.152332 168.576659 
L 837.433525 168.576659 
L 837.714719 168.576659 
L 837.995992 168.576659 
L 838.277186 168.576659 
L 838.558379 168.576659 
L 838.839573 168.576659 
L 839.120847 168.576659 
L 839.40204 168.576659 
L 839.683233 168.576659 
L 839.964507 168.576659 
L 840.245701 168.576659 
L 840.526894 168.576659 
L 840.808087 168.576659 
L 841.089361 168.576659 
L 841.370555 168.576659 
L 841.651748 168.576659 
L 841.932942 168.576659 
L 842.214215 168.576659 
L 842.495409 168.576659 
L 842.776602 168.576659 
L 843.057796 168.576659 
L 843.33907 168.576659 
L 843.620263 168.576659 
L 843.901456 168.576659 
L 844.18265 168.576659 
L 844.463924 168.576659 
L 844.745117 168.576659 
L 845.026311 168.576659 
L 845.307504 168.576659 
L 845.588778 168.576659 
L 845.869971 168.576659 
L 846.151165 168.576659 
L 846.432358 168.576659 
L 846.713632 168.576659 
L 846.994825 168.576659 
L 847.276019 168.576659 
L 847.557212 168.576659 
L 847.838486 168.576659 
L 848.11968 168.576659 
L 848.400873 168.576659 
L 848.682066 168.576659 
L 848.96334 168.576659 
L 849.244534 168.576659 
L 849.525727 168.576659 
L 849.80692 168.576659 
L 850.088194 168.576659 
L 850.369388 168.576659 
L 850.650581 168.576659 
L 850.931775 168.576659 
L 851.213048 168.576659 
L 851.494242 168.576659 
L 851.775435 168.576659 
L 851.775435 168.432675 
L 851.775435 168.432675 
L 851.494242 168.164953 
L 851.213048 167.880905 
L 850.931775 167.572461 
L 850.650581 167.236961 
L 850.369388 166.869253 
L 850.088194 166.465217 
L 849.80692 166.024248 
L 849.525727 165.548048 
L 849.244534 165.035122 
L 848.96334 164.490378 
L 848.682066 163.919059 
L 848.400873 163.320563 
L 848.11968 162.697782 
L 847.838486 162.052825 
L 847.557212 161.38406 
L 847.276019 160.691018 
L 846.994825 159.974777 
L 846.713632 159.229187 
L 846.432358 158.454479 
L 846.151165 157.644021 
L 845.869971 156.789752 
L 845.588778 155.886749 
L 845.307504 154.935209 
L 845.026311 153.924367 
L 844.745117 152.858243 
L 844.463924 151.739997 
L 844.18265 150.566702 
L 843.901456 149.334038 
L 843.620263 148.047189 
L 843.33907 146.693883 
L 843.057796 145.266157 
L 842.776602 143.752639 
L 842.495409 142.140595 
L 842.214215 140.405475 
L 841.932942 138.534143 
L 841.651748 136.504294 
L 841.370555 134.291553 
L 841.089361 131.875967 
L 840.808087 129.235445 
L 840.526894 126.347557 
L 840.245701 123.180013 
L 839.964507 119.726601 
L 839.683233 115.964882 
L 839.40204 111.875128 
L 839.120847 107.44093 
L 838.839573 102.666181 
L 838.558379 97.529356 
L 838.277186 92.001033 
L 837.995992 86.102058 
L 837.714719 79.861508 
L 837.433525 73.318008 
L 837.152332 66.559636 
L 836.871138 59.748618 
L 836.589864 53.045594 
L 836.308671 46.614482 
L 836.027478 40.644666 
L 835.746284 35.26074 
L 835.46501 30.564114 
L 835.183817 26.548205 
L 834.902623 23.267015 
L 834.62143 20.614728 
L 834.340156 18.591178 
L 834.058963 17.005624 
L 833.777769 15.867442 
L 833.496576 14.965563 
L 833.215302 14.314321 
L 832.934109 13.720502 
L 832.652915 13.311096 
L 832.371722 12.980467 
L 832.090448 12.715599 
L 831.809254 12.494526 
L 831.528061 12.36947 
L 831.246868 12.25625 
L 830.965594 12.112865 
L 830.6844 12.067943 
L 830.403207 11.984095 
L 830.122014 11.942772 
L 829.84074 11.915105 
L 829.559546 11.946141 
L 829.278353 11.945193 
L 828.997159 12.076743 
L 828.715886 12.195164 
L 828.434692 12.385418 
L 828.153499 12.735927 
L 827.872305 13.37185 
L 827.591031 14.47277 
L 827.309838 16.636606 
L 827.028645 20.521657 
L 826.747451 26.928905 
L 826.466177 36.59412 
L 826.184984 49.82289 
L 825.90379 66.240996 
L 825.622597 84.775402 
L 825.341323 103.867032 
L 825.06013 121.89686 
L 824.778936 137.577969 
L 824.497743 150.160196 
L 824.216469 159.544648 
L 823.935276 166.096077 
L 823.654082 170.394744 
z
" clip-path="url(#pf10834c437)" style="fill: #d55e00"/>
   </g>
   <g id="matplotlib.axis_1">
    <g id="xtick_1">
     <g id="line2d_1">
      <defs>
       <path id="m39cea96534" d="M 0 0 
L 0 8 
" style="stroke: #000000; stroke-width: 2"/>
      </defs>
      <g>
       <use xlink:href="#m39cea96534" x="122.306852" y="199.12726" style="stroke: #000000; stroke-width: 2"/>
      </g>
     </g>
     <g id="text_1">
      <!-- 0.0 -->
      <g transform="translate(109.796852 225.011323) scale(0.18 -0.18)">
       <defs>
        <path id="Arial-BoldMT-30" d="M 1756 4600 
Q 2422 4600 2797 4125 
Q 3244 3563 3244 2259 
Q 3244 959 2794 391 
Q 2422 -78 1756 -78 
Q 1088 -78 678 436 
Q 269 950 269 2269 
Q 269 3563 719 4131 
Q 1091 4600 1756 4600 
z
M 1756 3872 
Q 1597 3872 1472 3770 
Q 1347 3669 1278 3406 
Q 1188 3066 1188 2259 
Q 1188 1453 1269 1151 
Q 1350 850 1473 750 
Q 1597 650 1756 650 
Q 1916 650 2041 751 
Q 2166 853 2234 1116 
Q 2325 1453 2325 2259 
Q 2325 3066 2244 3367 
Q 2163 3669 2039 3770 
Q 1916 3872 1756 3872 
z
" transform="scale(0.015625)"/>
        <path id="Arial-BoldMT-2e" d="M 459 0 
L 459 878 
L 1338 878 
L 1338 0 
L 459 0 
z
" transform="scale(0.015625)"/>
       </defs>
       <use xlink:href="#Arial-BoldMT-30"/>
       <use xlink:href="#Arial-BoldMT-2e" x="55.615234"/>
       <use xlink:href="#Arial-BoldMT-30" x="83.398438"/>
      </g>
     </g>
    </g>
    <g id="xtick_2">
     <g id="line2d_2">
      <g>
       <use xlink:href="#m39cea96534" x="291.035131" y="199.12726" style="stroke: #000000; stroke-width: 2"/>
      </g>
     </g>
     <g id="text_2">
      <!-- 0.5 -->
      <g transform="translate(278.525131 225.011323) scale(0.18 -0.18)">
       <defs>
        <path id="Arial-BoldMT-35" d="M 284 1178 
L 1159 1269 
Q 1197 972 1381 798 
Q 1566 625 1806 625 
Q 2081 625 2272 848 
Q 2463 1072 2463 1522 
Q 2463 1944 2273 2155 
Q 2084 2366 1781 2366 
Q 1403 2366 1103 2031 
L 391 2134 
L 841 4519 
L 3163 4519 
L 3163 3697 
L 1506 3697 
L 1369 2919 
Q 1663 3066 1969 3066 
Q 2553 3066 2959 2641 
Q 3366 2216 3366 1538 
Q 3366 972 3038 528 
Q 2591 -78 1797 -78 
Q 1163 -78 763 262 
Q 363 603 284 1178 
z
" transform="scale(0.015625)"/>
       </defs>
       <use xlink:href="#Arial-BoldMT-30"/>
       <use xlink:href="#Arial-BoldMT-2e" x="55.615234"/>
       <use xlink:href="#Arial-BoldMT-35" x="83.398438"/>
      </g>
     </g>
    </g>
    <g id="xtick_3">
     <g id="line2d_3">
      <g>
       <use xlink:href="#m39cea96534" x="459.763411" y="199.12726" style="stroke: #000000; stroke-width: 2"/>
      </g>
     </g>
     <g id="text_3">
      <!-- 1.0 -->
      <g transform="translate(447.253411 225.011323) scale(0.18 -0.18)">
       <defs>
        <path id="Arial-BoldMT-31" d="M 2519 0 
L 1641 0 
L 1641 3309 
Q 1159 2859 506 2644 
L 506 3441 
Q 850 3553 1253 3867 
Q 1656 4181 1806 4600 
L 2519 4600 
L 2519 0 
z
" transform="scale(0.015625)"/>
       </defs>
       <use xlink:href="#Arial-BoldMT-31"/>
       <use xlink:href="#Arial-BoldMT-2e" x="55.615234"/>
       <use xlink:href="#Arial-BoldMT-30" x="83.398438"/>
      </g>
     </g>
    </g>
    <g id="xtick_4">
     <g id="line2d_4">
      <g>
       <use xlink:href="#m39cea96534" x="628.49169" y="199.12726" style="stroke: #000000; stroke-width: 2"/>
      </g>
     </g>
     <g id="text_4">
      <!-- 1.5 -->
      <g transform="translate(615.98169 225.011323) scale(0.18 -0.18)">
       <use xlink:href="#Arial-BoldMT-31"/>
       <use xlink:href="#Arial-BoldMT-2e" x="55.615234"/>
       <use xlink:href="#Arial-BoldMT-35" x="83.398438"/>
      </g>
     </g>
    </g>
    <g id="xtick_5">
     <g id="line2d_5">
      <g>
       <use xlink:href="#m39cea96534" x="797.21997" y="199.12726" style="stroke: #000000; stroke-width: 2"/>
      </g>
     </g>
     <g id="text_5">
      <!-- 2.0 -->
      <g transform="translate(784.70997 225.011323) scale(0.18 -0.18)">
       <defs>
        <path id="Arial-BoldMT-32" d="M 3238 816 
L 3238 0 
L 159 0 
Q 209 463 459 877 
Q 709 1291 1447 1975 
Q 2041 2528 2175 2725 
Q 2356 2997 2356 3263 
Q 2356 3556 2198 3714 
Q 2041 3872 1763 3872 
Q 1488 3872 1325 3706 
Q 1163 3541 1138 3156 
L 263 3244 
Q 341 3969 753 4284 
Q 1166 4600 1784 4600 
Q 2463 4600 2850 4234 
Q 3238 3869 3238 3325 
Q 3238 3016 3127 2736 
Q 3016 2456 2775 2150 
Q 2616 1947 2200 1565 
Q 1784 1184 1673 1059 
Q 1563 934 1494 816 
L 3238 816 
z
" transform="scale(0.015625)"/>
       </defs>
       <use xlink:href="#Arial-BoldMT-32"/>
       <use xlink:href="#Arial-BoldMT-2e" x="55.615234"/>
       <use xlink:href="#Arial-BoldMT-30" x="83.398438"/>
      </g>
     </g>
    </g>
    <g id="xtick_6">
     <g id="line2d_6">
      <g>
       <use xlink:href="#m39cea96534" x="965.94825" y="199.12726" style="stroke: #000000; stroke-width: 2"/>
      </g>
     </g>
     <g id="text_6">
      <!-- 2.5 -->
      <g transform="translate(953.43825 225.011323) scale(0.18 -0.18)">
       <use xlink:href="#Arial-BoldMT-32"/>
       <use xlink:href="#Arial-BoldMT-2e" x="55.615234"/>
       <use xlink:href="#Arial-BoldMT-35" x="83.398438"/>
      </g>
     </g>
    </g>
    <g id="xtick_7">
     <g id="line2d_7">
      <g>
       <use xlink:href="#m39cea96534" x="1134.676529" y="199.12726" style="stroke: #000000; stroke-width: 2"/>
      </g>
     </g>
     <g id="text_7">
      <!-- 3.0 -->
      <g transform="translate(1122.166529 225.011323) scale(0.18 -0.18)">
       <defs>
        <path id="Arial-BoldMT-33" d="M 241 1216 
L 1091 1319 
Q 1131 994 1309 822 
Q 1488 650 1741 650 
Q 2013 650 2198 856 
Q 2384 1063 2384 1413 
Q 2384 1744 2206 1937 
Q 2028 2131 1772 2131 
Q 1603 2131 1369 2066 
L 1466 2781 
Q 1822 2772 2009 2936 
Q 2197 3100 2197 3372 
Q 2197 3603 2059 3740 
Q 1922 3878 1694 3878 
Q 1469 3878 1309 3722 
Q 1150 3566 1116 3266 
L 306 3403 
Q 391 3819 561 4067 
Q 731 4316 1036 4458 
Q 1341 4600 1719 4600 
Q 2366 4600 2756 4188 
Q 3078 3850 3078 3425 
Q 3078 2822 2419 2463 
Q 2813 2378 3048 2084 
Q 3284 1791 3284 1375 
Q 3284 772 2843 347 
Q 2403 -78 1747 -78 
Q 1125 -78 715 280 
Q 306 638 241 1216 
z
" transform="scale(0.015625)"/>
       </defs>
       <use xlink:href="#Arial-BoldMT-33"/>
       <use xlink:href="#Arial-BoldMT-2e" x="55.615234"/>
       <use xlink:href="#Arial-BoldMT-30" x="83.398438"/>
      </g>
     </g>
    </g>
    <g id="text_8">
     <!-- Retention time / min -->
     <g transform="translate(542.350469 245.447573) scale(0.18 -0.18)">
      <defs>
       <path id="Arial-BoldMT-52" d="M 469 0 
L 469 4581 
L 2416 4581 
Q 3150 4581 3483 4457 
Q 3816 4334 4016 4018 
Q 4216 3703 4216 3297 
Q 4216 2781 3912 2445 
Q 3609 2109 3006 2022 
Q 3306 1847 3501 1637 
Q 3697 1428 4028 894 
L 4588 0 
L 3481 0 
L 2813 997 
Q 2456 1531 2325 1670 
Q 2194 1809 2047 1861 
Q 1900 1913 1581 1913 
L 1394 1913 
L 1394 0 
L 469 0 
z
M 1394 2644 
L 2078 2644 
Q 2744 2644 2909 2700 
Q 3075 2756 3169 2893 
Q 3263 3031 3263 3238 
Q 3263 3469 3139 3611 
Q 3016 3753 2791 3791 
Q 2678 3806 2116 3806 
L 1394 3806 
L 1394 2644 
z
" transform="scale(0.015625)"/>
       <path id="Arial-BoldMT-65" d="M 2381 1056 
L 3256 909 
Q 3088 428 2723 176 
Q 2359 -75 1813 -75 
Q 947 -75 531 491 
Q 203 944 203 1634 
Q 203 2459 634 2926 
Q 1066 3394 1725 3394 
Q 2466 3394 2894 2905 
Q 3322 2416 3303 1406 
L 1103 1406 
Q 1113 1016 1316 798 
Q 1519 581 1822 581 
Q 2028 581 2168 693 
Q 2309 806 2381 1056 
z
M 2431 1944 
Q 2422 2325 2234 2523 
Q 2047 2722 1778 2722 
Q 1491 2722 1303 2513 
Q 1116 2303 1119 1944 
L 2431 1944 
z
" transform="scale(0.015625)"/>
       <path id="Arial-BoldMT-74" d="M 1981 3319 
L 1981 2619 
L 1381 2619 
L 1381 1281 
Q 1381 875 1398 808 
Q 1416 741 1477 697 
Q 1538 653 1625 653 
Q 1747 653 1978 738 
L 2053 56 
Q 1747 -75 1359 -75 
Q 1122 -75 931 4 
Q 741 84 652 211 
Q 563 338 528 553 
Q 500 706 500 1172 
L 500 2619 
L 97 2619 
L 97 3319 
L 500 3319 
L 500 3978 
L 1381 4491 
L 1381 3319 
L 1981 3319 
z
" transform="scale(0.015625)"/>
       <path id="Arial-BoldMT-6e" d="M 3478 0 
L 2600 0 
L 2600 1694 
Q 2600 2231 2544 2389 
Q 2488 2547 2361 2634 
Q 2234 2722 2056 2722 
Q 1828 2722 1647 2597 
Q 1466 2472 1398 2265 
Q 1331 2059 1331 1503 
L 1331 0 
L 453 0 
L 453 3319 
L 1269 3319 
L 1269 2831 
Q 1703 3394 2363 3394 
Q 2653 3394 2893 3289 
Q 3134 3184 3257 3021 
Q 3381 2859 3429 2653 
Q 3478 2447 3478 2063 
L 3478 0 
z
" transform="scale(0.015625)"/>
       <path id="Arial-BoldMT-69" d="M 459 3769 
L 459 4581 
L 1338 4581 
L 1338 3769 
L 459 3769 
z
M 459 0 
L 459 3319 
L 1338 3319 
L 1338 0 
L 459 0 
z
" transform="scale(0.015625)"/>
       <path id="Arial-BoldMT-6f" d="M 256 1706 
Q 256 2144 472 2553 
Q 688 2963 1083 3178 
Q 1478 3394 1966 3394 
Q 2719 3394 3200 2905 
Q 3681 2416 3681 1669 
Q 3681 916 3195 420 
Q 2709 -75 1972 -75 
Q 1516 -75 1102 131 
Q 688 338 472 736 
Q 256 1134 256 1706 
z
M 1156 1659 
Q 1156 1166 1390 903 
Q 1625 641 1969 641 
Q 2313 641 2545 903 
Q 2778 1166 2778 1666 
Q 2778 2153 2545 2415 
Q 2313 2678 1969 2678 
Q 1625 2678 1390 2415 
Q 1156 2153 1156 1659 
z
" transform="scale(0.015625)"/>
       <path id="Arial-BoldMT-20" transform="scale(0.015625)"/>
       <path id="Arial-BoldMT-6d" d="M 394 3319 
L 1203 3319 
L 1203 2866 
Q 1638 3394 2238 3394 
Q 2556 3394 2790 3262 
Q 3025 3131 3175 2866 
Q 3394 3131 3647 3262 
Q 3900 3394 4188 3394 
Q 4553 3394 4806 3245 
Q 5059 3097 5184 2809 
Q 5275 2597 5275 2122 
L 5275 0 
L 4397 0 
L 4397 1897 
Q 4397 2391 4306 2534 
Q 4184 2722 3931 2722 
Q 3747 2722 3584 2609 
Q 3422 2497 3350 2280 
Q 3278 2063 3278 1594 
L 3278 0 
L 2400 0 
L 2400 1819 
Q 2400 2303 2353 2443 
Q 2306 2584 2207 2653 
Q 2109 2722 1941 2722 
Q 1738 2722 1575 2612 
Q 1413 2503 1342 2297 
Q 1272 2091 1272 1613 
L 1272 0 
L 394 0 
L 394 3319 
z
" transform="scale(0.015625)"/>
       <path id="Arial-BoldMT-2f" d="M -9 -78 
L 1125 4659 
L 1784 4659 
L 638 -78 
L -9 -78 
z
" transform="scale(0.015625)"/>
      </defs>
      <use xlink:href="#Arial-BoldMT-52"/>
      <use xlink:href="#Arial-BoldMT-65" x="72.216797"/>
      <use xlink:href="#Arial-BoldMT-74" x="127.832031"/>
      <use xlink:href="#Arial-BoldMT-65" x="161.132812"/>
      <use xlink:href="#Arial-BoldMT-6e" x="216.748047"/>
      <use xlink:href="#Arial-BoldMT-74" x="277.832031"/>
      <use xlink:href="#Arial-BoldMT-69" x="311.132812"/>
      <use xlink:href="#Arial-BoldMT-6f" x="338.916016"/>
      <use xlink:href="#Arial-BoldMT-6e" x="400"/>
      <use xlink:href="#Arial-BoldMT-20" x="461.083984"/>
      <use xlink:href="#Arial-BoldMT-74" x="488.867188"/>
      <use xlink:href="#Arial-BoldMT-69" x="522.167969"/>
      <use xlink:href="#Arial-BoldMT-6d" x="549.951172"/>
      <use xlink:href="#Arial-BoldMT-65" x="638.867188"/>
      <use xlink:href="#Arial-BoldMT-20" x="694.482422"/>
      <use xlink:href="#Arial-BoldMT-2f" x="722.265625"/>
      <use xlink:href="#Arial-BoldMT-20" x="750.048828"/>
      <use xlink:href="#Arial-BoldMT-6d" x="777.832031"/>
      <use xlink:href="#Arial-BoldMT-69" x="866.748047"/>
      <use xlink:href="#Arial-BoldMT-6e" x="894.53125"/>
     </g>
    </g>
   </g>
   <g id="matplotlib.axis_2">
    <g id="ytick_1">
     <g id="line2d_8">
      <defs>
       <path id="m8eaf66ad1a" d="M 0 0 
L -8 0 
" style="stroke: #000000; stroke-width: 2"/>
      </defs>
      <g>
       <use xlink:href="#m8eaf66ad1a" x="71.702428" y="176.001064" style="stroke: #000000; stroke-width: 2"/>
      </g>
     </g>
     <g id="text_9">
      <!-- 0.00 -->
      <g transform="translate(23.67274 182.443095) scale(0.18 -0.18)">
       <use xlink:href="#Arial-BoldMT-30"/>
       <use xlink:href="#Arial-BoldMT-2e" x="55.615234"/>
       <use xlink:href="#Arial-BoldMT-30" x="83.398438"/>
       <use xlink:href="#Arial-BoldMT-30" x="139.013672"/>
      </g>
     </g>
    </g>
    <g id="ytick_2">
     <g id="line2d_9">
      <g>
       <use xlink:href="#m8eaf66ad1a" x="71.702428" y="134.979574" style="stroke: #000000; stroke-width: 2"/>
      </g>
     </g>
     <g id="text_10">
      <!-- 0.25 -->
      <g transform="translate(23.67274 141.421605) scale(0.18 -0.18)">
       <use xlink:href="#Arial-BoldMT-30"/>
       <use xlink:href="#Arial-BoldMT-2e" x="55.615234"/>
       <use xlink:href="#Arial-BoldMT-32" x="83.398438"/>
       <use xlink:href="#Arial-BoldMT-35" x="139.013672"/>
      </g>
     </g>
    </g>
    <g id="ytick_3">
     <g id="line2d_10">
      <g>
       <use xlink:href="#m8eaf66ad1a" x="71.702428" y="93.958084" style="stroke: #000000; stroke-width: 2"/>
      </g>
     </g>
     <g id="text_11">
      <!-- 0.50 -->
      <g transform="translate(23.67274 100.400115) scale(0.18 -0.18)">
       <use xlink:href="#Arial-BoldMT-30"/>
       <use xlink:href="#Arial-BoldMT-2e" x="55.615234"/>
       <use xlink:href="#Arial-BoldMT-35" x="83.398438"/>
       <use xlink:href="#Arial-BoldMT-30" x="139.013672"/>
      </g>
     </g>
    </g>
    <g id="ytick_4">
     <g id="line2d_11">
      <g>
       <use xlink:href="#m8eaf66ad1a" x="71.702428" y="52.936594" style="stroke: #000000; stroke-width: 2"/>
      </g>
     </g>
     <g id="text_12">
      <!-- 0.75 -->
      <g transform="translate(23.67274 59.378626) scale(0.18 -0.18)">
       <defs>
        <path id="Arial-BoldMT-37" d="M 272 3703 
L 272 4519 
L 3275 4519 
L 3275 3881 
Q 2903 3516 2518 2831 
Q 2134 2147 1932 1376 
Q 1731 606 1734 0 
L 888 0 
Q 909 950 1279 1937 
Q 1650 2925 2269 3703 
L 272 3703 
z
" transform="scale(0.015625)"/>
       </defs>
       <use xlink:href="#Arial-BoldMT-30"/>
       <use xlink:href="#Arial-BoldMT-2e" x="55.615234"/>
       <use xlink:href="#Arial-BoldMT-37" x="83.398438"/>
       <use xlink:href="#Arial-BoldMT-35" x="139.013672"/>
      </g>
     </g>
    </g>
    <g id="ytick_5">
     <g id="line2d_12">
      <g>
       <use xlink:href="#m8eaf66ad1a" x="71.702428" y="11.915105" style="stroke: #000000; stroke-width: 2"/>
      </g>
     </g>
     <g id="text_13">
      <!-- 1.00 -->
      <g transform="translate(23.67274 18.357136) scale(0.18 -0.18)">
       <use xlink:href="#Arial-BoldMT-31"/>
       <use xlink:href="#Arial-BoldMT-2e" x="55.615234"/>
       <use xlink:href="#Arial-BoldMT-30" x="83.398438"/>
       <use xlink:href="#Arial-BoldMT-30" x="139.013672"/>
      </g>
     </g>
    </g>
    <g id="text_14">
     <!-- Rel. Intensity -->
     <g transform="translate(15.884303 157.071875) rotate(-90) scale(0.18 -0.18)">
      <defs>
       <path id="Arial-BoldMT-6c" d="M 459 0 
L 459 4581 
L 1338 4581 
L 1338 0 
L 459 0 
z
" transform="scale(0.015625)"/>
       <path id="Arial-BoldMT-49" d="M 438 0 
L 438 4581 
L 1363 4581 
L 1363 0 
L 438 0 
z
" transform="scale(0.015625)"/>
       <path id="Arial-BoldMT-73" d="M 150 947 
L 1031 1081 
Q 1088 825 1259 692 
Q 1431 559 1741 559 
Q 2081 559 2253 684 
Q 2369 772 2369 919 
Q 2369 1019 2306 1084 
Q 2241 1147 2013 1200 
Q 950 1434 666 1628 
Q 272 1897 272 2375 
Q 272 2806 612 3100 
Q 953 3394 1669 3394 
Q 2350 3394 2681 3172 
Q 3013 2950 3138 2516 
L 2309 2363 
Q 2256 2556 2107 2659 
Q 1959 2763 1684 2763 
Q 1338 2763 1188 2666 
Q 1088 2597 1088 2488 
Q 1088 2394 1175 2328 
Q 1294 2241 1995 2081 
Q 2697 1922 2975 1691 
Q 3250 1456 3250 1038 
Q 3250 581 2869 253 
Q 2488 -75 1741 -75 
Q 1063 -75 667 200 
Q 272 475 150 947 
z
" transform="scale(0.015625)"/>
       <path id="Arial-BoldMT-79" d="M 44 3319 
L 978 3319 
L 1772 963 
L 2547 3319 
L 3456 3319 
L 2284 125 
L 2075 -453 
Q 1959 -744 1854 -897 
Q 1750 -1050 1614 -1145 
Q 1478 -1241 1279 -1294 
Q 1081 -1347 831 -1347 
Q 578 -1347 334 -1294 
L 256 -606 
Q 463 -647 628 -647 
Q 934 -647 1081 -467 
Q 1228 -288 1306 -9 
L 44 3319 
z
" transform="scale(0.015625)"/>
      </defs>
      <use xlink:href="#Arial-BoldMT-52"/>
      <use xlink:href="#Arial-BoldMT-65" x="72.216797"/>
      <use xlink:href="#Arial-BoldMT-6c" x="127.832031"/>
      <use xlink:href="#Arial-BoldMT-2e" x="155.615234"/>
      <use xlink:href="#Arial-BoldMT-20" x="183.398438"/>
      <use xlink:href="#Arial-BoldMT-49" x="211.181641"/>
      <use xlink:href="#Arial-BoldMT-6e" x="238.964844"/>
      <use xlink:href="#Arial-BoldMT-74" x="300.048828"/>
      <use xlink:href="#Arial-BoldMT-65" x="333.349609"/>
      <use xlink:href="#Arial-BoldMT-6e" x="388.964844"/>
      <use xlink:href="#Arial-BoldMT-73" x="450.048828"/>
      <use xlink:href="#Arial-BoldMT-69" x="505.664062"/>
      <use xlink:href="#Arial-BoldMT-74" x="533.447266"/>
      <use xlink:href="#Arial-BoldMT-79" x="566.748047"/>
     </g>
    </g>
   </g>
   <g id="line2d_13">
    <path d="M 122.306852 146.887273 
L 125.681417 147.240997 
L 129.055983 147.822186 
L 132.430548 148.592535 
L 135.805114 149.565426 
L 139.460893 150.867645 
L 143.397887 152.515198 
L 148.178522 154.789045 
L 152.115514 156.88602 
L 156.896149 159.651441 
L 163.364067 163.681478 
L 172.362906 169.673336 
L 191.485446 182.668097 
L 193.45394 183.823944 
L 197.109721 186.425117 
L 199.921862 188.224658 
L 203.296424 190.197049 
L 203.577638 190.212395 
L 203.858851 190.104981 
L 204.14007 189.824546 
L 204.421283 189.319041 
L 204.98371 187.485199 
L 205.546137 184.545183 
L 207.514632 172.205309 
L 207.795846 168.006055 
L 208.077059 160.013291 
L 208.639486 130.04635 
L 209.76434 55.830186 
L 210.045554 46.665667 
L 210.326767 41.683564 
L 210.607981 39.589743 
L 211.170408 38.167045 
L 211.732835 37.335616 
L 212.295272 36.899478 
L 212.857699 36.792419 
L 213.982553 37.026506 
L 215.107407 37.369688 
L 217.919543 38.672878 
L 219.044397 39.112795 
L 222.418959 41.018065 
L 223.26261 41.3603 
L 224.949891 42.143323 
L 226.074745 42.299633 
L 229.449308 43.738035 
L 231.136589 45.177373 
L 232.542656 46.136099 
L 233.386307 47.093557 
L 235.636015 49.526845 
L 236.760869 50.604222 
L 238.166937 51.9613 
L 241.5415 55.831262 
L 242.103927 56.90837 
L 242.947567 59.134881 
L 243.791218 62.193755 
L 244.634858 66.219873 
L 245.478499 71.399039 
L 246.884567 81.793978 
L 251.665197 119.610422 
L 253.071264 128.653788 
L 254.477342 136.415568 
L 255.88341 143.024637 
L 257.289477 148.656872 
L 258.695545 153.434277 
L 260.101613 157.479564 
L 261.50768 160.941584 
L 262.913748 163.895619 
L 264.319816 166.401744 
L 266.007107 168.924908 
L 267.694388 171.034471 
L 269.381669 172.772787 
L 271.06895 174.198622 
L 273.037445 175.53379 
L 275.00594 176.55736 
L 276.974445 177.333025 
L 278.942939 177.891187 
L 281.473861 178.358366 
L 284.56721 178.71167 
L 288.222996 178.869891 
L 292.159985 178.857173 
L 297.503043 178.537254 
L 319.156505 176.762343 
L 325.343222 176.553778 
L 334.060842 176.573823 
L 346.153044 176.911445 
L 355.995517 177.139894 
L 362.182215 177.122144 
L 374.55563 176.799399 
L 402.677004 175.902315 
L 418.987409 175.779001 
L 448.233636 175.948307 
L 469.605905 176.092407 
L 505.03885 175.871923 
L 509.81946 175.950452 
L 520.22438 175.952162 
L 526.129885 176.064601 
L 548.626967 176.233451 
L 550.314248 176.090624 
L 553.970044 175.583242 
L 555.938519 175.676149 
L 564.656159 176.375143 
L 572.530137 176.495181 
L 573.373798 176.225499 
L 574.217419 175.671092 
L 577.029554 173.32224 
L 577.873215 173.114431 
L 578.716835 173.165354 
L 579.841689 173.516092 
L 581.52897 174.35172 
L 584.059912 175.618299 
L 585.184766 175.970013 
L 586.028387 176.068692 
L 586.872048 175.962353 
L 588.559329 175.374125 
L 589.684183 175.086752 
L 592.496318 174.636224 
L 593.339979 174.053819 
L 595.308454 172.483656 
L 596.152114 172.229762 
L 596.995735 172.293579 
L 597.839395 172.604975 
L 599.245443 173.445735 
L 601.776385 175.014513 
L 602.901239 175.438288 
L 603.744859 175.522171 
L 604.307287 175.4037 
L 604.869714 175.084026 
L 605.432141 174.487098 
L 605.994568 173.545602 
L 606.556995 172.231975 
L 607.400656 169.635132 
L 609.36917 163.031119 
L 609.931597 161.720192 
L 610.494024 160.871931 
L 611.056452 160.496072 
L 611.618879 160.564212 
L 612.181306 161.026811 
L 612.743733 161.809453 
L 613.587353 163.429957 
L 617.524343 171.846567 
L 618.649197 173.352444 
L 619.774051 174.402699 
L 620.898905 175.092918 
L 622.304993 175.608699 
L 623.992274 175.953414 
L 626.523176 176.195873 
L 631.303826 176.393675 
L 647.051784 176.454694 
L 678.547739 176.098564 
L 681.078681 175.974183 
L 684.453243 176.079537 
L 687.546572 176.050436 
L 694.576931 175.768695 
L 697.107873 175.451172 
L 699.076347 175.477979 
L 701.326055 175.692175 
L 704.419424 175.964868 
L 709.481268 176.132974 
L 715.667966 176.086703 
L 721.854663 175.698106 
L 725.510459 175.909632 
L 731.13473 176.146056 
L 755.319134 176.016962 
L 756.443988 175.542765 
L 758.412463 174.548165 
L 759.537317 174.294542 
L 760.662171 174.319396 
L 762.068259 174.609758 
L 767.411296 175.969866 
L 769.37981 176.124238 
L 773.3168 176.104135 
L 776.410169 176.054675 
L 780.909585 175.646558 
L 783.440487 175.910187 
L 786.533856 176.210015 
L 790.189612 176.285619 
L 793.845408 176.352955 
L 801.157 176.665689 
L 803.125434 176.437897 
L 805.93761 176.120488 
L 808.187318 176.135735 
L 811.56188 176.219451 
L 815.498829 176.017427 
L 819.154666 176.390213 
L 821.123181 176.494807 
L 821.966761 176.377521 
L 822.529228 175.989904 
L 822.810421 175.513066 
L 823.091615 174.631285 
L 823.372889 173.060939 
L 823.654082 170.394744 
L 823.935276 166.096077 
L 824.216469 159.544648 
L 824.778936 137.577969 
L 825.622597 84.775402 
L 826.184984 49.82289 
L 826.747451 26.928905 
L 827.309838 16.636606 
L 827.591031 14.47277 
L 827.872305 13.37185 
L 828.153499 12.735927 
L 828.715886 12.195164 
L 829.559546 11.946141 
L 830.122014 11.942772 
L 830.965594 12.112865 
L 832.090448 12.715599 
L 832.652915 13.311096 
L 833.215302 14.314321 
L 833.777769 15.867442 
L 834.340156 18.591178 
L 834.902623 23.267015 
L 835.46501 30.564114 
L 836.027478 40.644666 
L 837.152332 66.559636 
L 838.277186 92.001033 
L 839.120847 107.44093 
L 839.964507 119.726601 
L 840.808087 129.235445 
L 841.651748 136.504294 
L 842.495409 142.140595 
L 843.620263 148.047189 
L 844.745117 152.858243 
L 845.869971 156.789752 
L 846.994825 159.974777 
L 848.400873 163.320563 
L 849.525727 165.548048 
L 850.650581 167.236961 
L 851.775435 168.432675 
L 854.868804 171.110238 
L 855.993658 171.893739 
L 857.399706 172.588013 
L 860.774268 173.913906 
L 862.46159 174.279625 
L 868.929521 175.257731 
L 870.335569 175.234941 
L 871.460423 175.003394 
L 874.272518 174.262678 
L 875.397372 174.228157 
L 876.522226 174.389397 
L 878.771934 175.045357 
L 881.58411 175.780491 
L 883.833818 176.151896 
L 886.927187 176.421901 
L 890.020556 176.549235 
L 899.300582 176.536078 
L 906.049707 176.822004 
L 908.299415 176.720028 
L 909.705463 176.423025 
L 912.798832 175.538597 
L 914.486153 175.453561 
L 917.017055 175.586635 
L 920.110424 175.805732 
L 922.360132 175.736855 
L 926.015888 175.640045 
L 929.109257 175.677171 
L 933.608673 176.078649 
L 938.389283 176.429344 
L 941.201459 176.36563 
L 944.576021 176.301401 
L 946.82573 176.219514 
L 948.231777 175.913759 
L 950.200292 175.476825 
L 951.606339 175.426392 
L 953.574854 175.62954 
L 957.793077 176.187043 
L 960.042786 176.257878 
L 965.385782 176.025513 
L 967.073104 175.878419 
L 972.697374 174.979703 
L 974.665889 175.008877 
L 976.915597 175.307887 
L 979.727693 175.637546 
L 985.91443 176.087987 
L 991.819894 176.056661 
L 997.444165 176.327933 
L 1007.567852 176.373618 
L 1018.254007 176.323145 
L 1027.534033 176.254042 
L 1050.031196 176.047575 
L 1055.092999 176.044804 
L 1064.091832 176.009114 
L 1072.809472 176.009613 
L 1090.807138 175.967229 
L 1108.52361 175.970022 
L 1121.459473 175.959809 
L 1134.395336 175.987373 
L 1134.395336 175.987373 
" clip-path="url(#pf10834c437)" style="fill: none; stroke: #000000; stroke-width: 2.5; stroke-linecap: square"/>
   </g>
   <g id="line2d_14">
    <path d="M 307.907959 199.12726 
L 307.907959 3.00024 
" clip-path="url(#pf10834c437)" style="fill: none; stroke: #d55e00; stroke-width: 2; stroke-linecap: square"/>
   </g>
   <g id="line2d_15">
    <path d="M 1134.676529 199.12726 
L 1134.676529 3.00024 
" clip-path="url(#pf10834c437)" style="fill: none; stroke: #d55e00; stroke-width: 2; stroke-linecap: square"/>
   </g>
   <g id="patch_3">
    <path d="M 71.702428 199.12726 
L 71.702428 3.00024 
" style="fill: none; stroke: #000000; stroke-width: 2; stroke-linejoin: miter; stroke-linecap: square"/>
   </g>
   <g id="patch_4">
    <path d="M 1184.99976 199.12726 
L 1184.99976 3.00024 
" style="fill: none; stroke: #000000; stroke-width: 2; stroke-linejoin: miter; stroke-linecap: square"/>
   </g>
   <g id="patch_5">
    <path d="M 71.702428 199.12726 
L 1184.99976 199.12726 
" style="fill: none; stroke: #000000; stroke-width: 2; stroke-linejoin: miter; stroke-linecap: square"/>
   </g>
   <g id="patch_6">
    <path d="M 71.702428 3.00024 
L 1184.99976 3.00024 
" style="fill: none; stroke: #000000; stroke-width: 2; stroke-linejoin: miter; stroke-linecap: square"/>
   </g>
   <g id="text_15">
    <!-- ANALYSIS -->
    <g style="fill: #d55e00" transform="translate(301.574421 131.180689) rotate(-90) scale(0.14994 -0.14994)">
     <defs>
      <path id="Arial-BoldMT-41" d="M 4597 0 
L 3591 0 
L 3191 1041 
L 1359 1041 
L 981 0 
L 0 0 
L 1784 4581 
L 2763 4581 
L 4597 0 
z
M 2894 1813 
L 2263 3513 
L 1644 1813 
L 2894 1813 
z
" transform="scale(0.015625)"/>
      <path id="Arial-BoldMT-4e" d="M 475 0 
L 475 4581 
L 1375 4581 
L 3250 1522 
L 3250 4581 
L 4109 4581 
L 4109 0 
L 3181 0 
L 1334 2988 
L 1334 0 
L 475 0 
z
" transform="scale(0.015625)"/>
      <path id="Arial-BoldMT-4c" d="M 491 0 
L 491 4544 
L 1416 4544 
L 1416 772 
L 3716 772 
L 3716 0 
L 491 0 
z
" transform="scale(0.015625)"/>
      <path id="Arial-BoldMT-59" d="M 1669 0 
L 1669 1928 
L -9 4581 
L 1075 4581 
L 2153 2769 
L 3209 4581 
L 4275 4581 
L 2591 1922 
L 2591 0 
L 1669 0 
z
" transform="scale(0.015625)"/>
      <path id="Arial-BoldMT-53" d="M 231 1491 
L 1131 1578 
Q 1213 1125 1461 912 
Q 1709 700 2131 700 
Q 2578 700 2804 889 
Q 3031 1078 3031 1331 
Q 3031 1494 2936 1608 
Q 2841 1722 2603 1806 
Q 2441 1863 1863 2006 
Q 1119 2191 819 2459 
Q 397 2838 397 3381 
Q 397 3731 595 4036 
Q 794 4341 1167 4500 
Q 1541 4659 2069 4659 
Q 2931 4659 3367 4281 
Q 3803 3903 3825 3272 
L 2900 3231 
Q 2841 3584 2645 3739 
Q 2450 3894 2059 3894 
Q 1656 3894 1428 3728 
Q 1281 3622 1281 3444 
Q 1281 3281 1419 3166 
Q 1594 3019 2269 2859 
Q 2944 2700 3267 2529 
Q 3591 2359 3773 2064 
Q 3956 1769 3956 1334 
Q 3956 941 3737 597 
Q 3519 253 3119 86 
Q 2719 -81 2122 -81 
Q 1253 -81 787 320 
Q 322 722 231 1491 
z
" transform="scale(0.015625)"/>
     </defs>
     <use xlink:href="#Arial-BoldMT-41"/>
     <use xlink:href="#Arial-BoldMT-4e" x="72.216797"/>
     <use xlink:href="#Arial-BoldMT-41" x="144.433594"/>
     <use xlink:href="#Arial-BoldMT-4c" x="216.650391"/>
     <use xlink:href="#Arial-BoldMT-59" x="268.609375"/>
     <use xlink:href="#Arial-BoldMT-53" x="335.308594"/>
     <use xlink:href="#Arial-BoldMT-49" x="402.007812"/>
     <use xlink:href="#Arial-BoldMT-53" x="429.791016"/>
    </g>
   </g>
   <g id="text_16">
    <!-- START -->
    <g style="fill: #d55e00" transform="translate(325.389514 118.392447) rotate(-90) scale(0.14994 -0.14994)">
     <defs>
      <path id="Arial-BoldMT-54" d="M 1497 0 
L 1497 3806 
L 138 3806 
L 138 4581 
L 3778 4581 
L 3778 3806 
L 2422 3806 
L 2422 0 
L 1497 0 
z
" transform="scale(0.015625)"/>
     </defs>
     <use xlink:href="#Arial-BoldMT-53"/>
     <use xlink:href="#Arial-BoldMT-54" x="66.699219"/>
     <use xlink:href="#Arial-BoldMT-41" x="120.408203"/>
     <use xlink:href="#Arial-BoldMT-52" x="192.625"/>
     <use xlink:href="#Arial-BoldMT-54" x="264.841797"/>
    </g>
   </g>
   <g id="text_17">
    <!-- ANALYSIS -->
    <g style="fill: #d55e00" transform="translate(1128.342991 131.180689) rotate(-90) scale(0.14994 -0.14994)">
     <use xlink:href="#Arial-BoldMT-41"/>
     <use xlink:href="#Arial-BoldMT-4e" x="72.216797"/>
     <use xlink:href="#Arial-BoldMT-41" x="144.433594"/>
     <use xlink:href="#Arial-BoldMT-4c" x="216.650391"/>
     <use xlink:href="#Arial-BoldMT-59" x="268.609375"/>
     <use xlink:href="#Arial-BoldMT-53" x="335.308594"/>
     <use xlink:href="#Arial-BoldMT-49" x="402.007812"/>
     <use xlink:href="#Arial-BoldMT-53" x="429.791016"/>
    </g>
   </g>
   <g id="text_18">
    <!-- END -->
    <g style="fill: #d55e00" transform="translate(1152.158084 109.787297) rotate(-90) scale(0.14994 -0.14994)">
     <defs>
      <path id="Arial-BoldMT-45" d="M 466 0 
L 466 4581 
L 3863 4581 
L 3863 3806 
L 1391 3806 
L 1391 2791 
L 3691 2791 
L 3691 2019 
L 1391 2019 
L 1391 772 
L 3950 772 
L 3950 0 
L 466 0 
z
" transform="scale(0.015625)"/>
      <path id="Arial-BoldMT-44" d="M 463 4581 
L 2153 4581 
Q 2725 4581 3025 4494 
Q 3428 4375 3715 4072 
Q 4003 3769 4153 3330 
Q 4303 2891 4303 2247 
Q 4303 1681 4163 1272 
Q 3991 772 3672 463 
Q 3431 228 3022 97 
Q 2716 0 2203 0 
L 463 0 
L 463 4581 
z
M 1388 3806 
L 1388 772 
L 2078 772 
Q 2466 772 2638 816 
Q 2863 872 3011 1006 
Q 3159 1141 3253 1448 
Q 3347 1756 3347 2288 
Q 3347 2819 3253 3103 
Q 3159 3388 2990 3547 
Q 2822 3706 2563 3763 
Q 2369 3806 1803 3806 
L 1388 3806 
z
" transform="scale(0.015625)"/>
     </defs>
     <use xlink:href="#Arial-BoldMT-45"/>
     <use xlink:href="#Arial-BoldMT-4e" x="66.699219"/>
     <use xlink:href="#Arial-BoldMT-44" x="138.916016"/>
    </g>
   </g>
  </g>
 </g>
 <defs>
  <clipPath id="pf10834c437">
   <rect x="71.702428" y="3.00024" width="1113.297333" height="196.12702"/>
  </clipPath>
 </defs>
</svg>
