<?xml version="1.0" encoding="utf-8" standalone="no"?>
<!DOCTYPE svg PUBLIC "-//W3C//DTD SVG 1.1//EN"
  "http://www.w3.org/Graphics/SVG/1.1/DTD/svg11.dtd">
<svg xmlns:xlink="http://www.w3.org/1999/xlink" width="1188pt" height="252pt" viewBox="0 0 1188 252" xmlns="http://www.w3.org/2000/svg" version="1.1">
 <metadata>
  <rdf:RDF xmlns:dc="http://purl.org/dc/elements/1.1/" xmlns:cc="http://creativecommons.org/ns#" xmlns:rdf="http://www.w3.org/1999/02/22-rdf-syntax-ns#">
   <cc:Work>
    <dc:type rdf:resource="http://purl.org/dc/dcmitype/StillImage"/>
    <dc:date>2024-05-14T19:00:01.892223</dc:date>
    <dc:format>image/svg+xml</dc:format>
    <dc:creator>
     <cc:Agent>
      <dc:title>Matplotlib v3.8.0, https://matplotlib.org/</dc:title>
     </cc:Agent>
    </dc:creator>
   </cc:Work>
  </rdf:RDF>
 </metadata>
 <defs>
  <style type="text/css">*{stroke-linejoin: round; stroke-linecap: butt}</style>
 </defs>
 <g id="figure_1">
  <g id="patch_1">
   <path d="M 0 252 
L 1188 252 
L 1188 0 
L 0 0 
z
" style="fill: #ffffff"/>
  </g>
  <g id="axes_1">
   <g id="patch_2">
    <path d="M 3.00024 198.907885 
L 1184.99976 198.907885 
L 1184.99976 20.50024 
L 3.00024 20.50024 
z
" style="fill: #ffffff"/>
   </g>
   <g id="matplotlib.axis_1">
    <g id="xtick_1">
     <g id="line2d_1">
      <defs>
       <path id="me67f6b74d8" d="M 0 0 
L 0 8 
" style="stroke: #000000; stroke-width: 2"/>
      </defs>
      <g>
       <use xlink:href="#me67f6b74d8" x="56.727491" y="198.907885" style="stroke: #000000; stroke-width: 2"/>
      </g>
     </g>
     <g id="text_1">
      <!-- 9.5 -->
      <g transform="translate(44.217491 224.791947) scale(0.18 -0.18)">
       <defs>
        <path id="Arial-BoldMT-39" d="M 291 1059 
L 1141 1153 
Q 1172 894 1303 769 
Q 1434 644 1650 644 
Q 1922 644 2112 894 
Q 2303 1144 2356 1931 
Q 2025 1547 1528 1547 
Q 988 1547 595 1964 
Q 203 2381 203 3050 
Q 203 3747 617 4173 
Q 1031 4600 1672 4600 
Q 2369 4600 2816 4061 
Q 3263 3522 3263 2288 
Q 3263 1031 2797 475 
Q 2331 -81 1584 -81 
Q 1047 -81 715 205 
Q 384 491 291 1059 
z
M 2278 2978 
Q 2278 3403 2083 3637 
Q 1888 3872 1631 3872 
Q 1388 3872 1227 3680 
Q 1066 3488 1066 3050 
Q 1066 2606 1241 2398 
Q 1416 2191 1678 2191 
Q 1931 2191 2104 2391 
Q 2278 2591 2278 2978 
z
" transform="scale(0.015625)"/>
        <path id="Arial-BoldMT-2e" d="M 459 0 
L 459 878 
L 1338 878 
L 1338 0 
L 459 0 
z
" transform="scale(0.015625)"/>
        <path id="Arial-BoldMT-35" d="M 284 1178 
L 1159 1269 
Q 1197 972 1381 798 
Q 1566 625 1806 625 
Q 2081 625 2272 848 
Q 2463 1072 2463 1522 
Q 2463 1944 2273 2155 
Q 2084 2366 1781 2366 
Q 1403 2366 1103 2031 
L 391 2134 
L 841 4519 
L 3163 4519 
L 3163 3697 
L 1506 3697 
L 1369 2919 
Q 1663 3066 1969 3066 
Q 2553 3066 2959 2641 
Q 3366 2216 3366 1538 
Q 3366 972 3038 528 
Q 2591 -78 1797 -78 
Q 1163 -78 763 262 
Q 363 603 284 1178 
z
" transform="scale(0.015625)"/>
       </defs>
       <use xlink:href="#Arial-BoldMT-39"/>
       <use xlink:href="#Arial-BoldMT-2e" x="55.615234"/>
       <use xlink:href="#Arial-BoldMT-35" x="83.398438"/>
      </g>
     </g>
    </g>
    <g id="xtick_2">
     <g id="line2d_2">
      <g>
       <use xlink:href="#me67f6b74d8" x="164.318467" y="198.907885" style="stroke: #000000; stroke-width: 2"/>
      </g>
     </g>
     <g id="text_2">
      <!-- 8.6 -->
      <g transform="translate(151.808467 224.791947) scale(0.18 -0.18)">
       <defs>
        <path id="Arial-BoldMT-38" d="M 1025 2472 
Q 684 2616 529 2867 
Q 375 3119 375 3419 
Q 375 3931 733 4265 
Q 1091 4600 1750 4600 
Q 2403 4600 2764 4265 
Q 3125 3931 3125 3419 
Q 3125 3100 2959 2851 
Q 2794 2603 2494 2472 
Q 2875 2319 3073 2025 
Q 3272 1731 3272 1347 
Q 3272 713 2867 316 
Q 2463 -81 1791 -81 
Q 1166 -81 750 247 
Q 259 634 259 1309 
Q 259 1681 443 1992 
Q 628 2303 1025 2472 
z
M 1206 3356 
Q 1206 3094 1354 2947 
Q 1503 2800 1750 2800 
Q 2000 2800 2150 2948 
Q 2300 3097 2300 3359 
Q 2300 3606 2151 3754 
Q 2003 3903 1759 3903 
Q 1506 3903 1356 3753 
Q 1206 3603 1206 3356 
z
M 1125 1394 
Q 1125 1031 1311 828 
Q 1497 625 1775 625 
Q 2047 625 2225 820 
Q 2403 1016 2403 1384 
Q 2403 1706 2222 1901 
Q 2041 2097 1763 2097 
Q 1441 2097 1283 1875 
Q 1125 1653 1125 1394 
z
" transform="scale(0.015625)"/>
        <path id="Arial-BoldMT-36" d="M 3247 3459 
L 2397 3366 
Q 2366 3628 2234 3753 
Q 2103 3878 1894 3878 
Q 1616 3878 1423 3628 
Q 1231 3378 1181 2588 
Q 1509 2975 1997 2975 
Q 2547 2975 2939 2556 
Q 3331 2138 3331 1475 
Q 3331 772 2918 347 
Q 2506 -78 1859 -78 
Q 1166 -78 719 461 
Q 272 1000 272 2228 
Q 272 3488 737 4044 
Q 1203 4600 1947 4600 
Q 2469 4600 2811 4308 
Q 3153 4016 3247 3459 
z
M 1256 1544 
Q 1256 1116 1453 883 
Q 1650 650 1903 650 
Q 2147 650 2309 840 
Q 2472 1031 2472 1466 
Q 2472 1913 2297 2120 
Q 2122 2328 1859 2328 
Q 1606 2328 1431 2129 
Q 1256 1931 1256 1544 
z
" transform="scale(0.015625)"/>
       </defs>
       <use xlink:href="#Arial-BoldMT-38"/>
       <use xlink:href="#Arial-BoldMT-2e" x="55.615234"/>
       <use xlink:href="#Arial-BoldMT-36" x="83.398438"/>
      </g>
     </g>
    </g>
    <g id="xtick_3">
     <g id="line2d_3">
      <g>
       <use xlink:href="#me67f6b74d8" x="271.909443" y="198.907885" style="stroke: #000000; stroke-width: 2"/>
      </g>
     </g>
     <g id="text_3">
      <!-- 7.7 -->
      <g transform="translate(259.399443 224.791947) scale(0.18 -0.18)">
       <defs>
        <path id="Arial-BoldMT-37" d="M 272 3703 
L 272 4519 
L 3275 4519 
L 3275 3881 
Q 2903 3516 2518 2831 
Q 2134 2147 1932 1376 
Q 1731 606 1734 0 
L 888 0 
Q 909 950 1279 1937 
Q 1650 2925 2269 3703 
L 272 3703 
z
" transform="scale(0.015625)"/>
       </defs>
       <use xlink:href="#Arial-BoldMT-37"/>
       <use xlink:href="#Arial-BoldMT-2e" x="55.615234"/>
       <use xlink:href="#Arial-BoldMT-37" x="83.398438"/>
      </g>
     </g>
    </g>
    <g id="xtick_4">
     <g id="line2d_4">
      <g>
       <use xlink:href="#me67f6b74d8" x="379.500419" y="198.907885" style="stroke: #000000; stroke-width: 2"/>
      </g>
     </g>
     <g id="text_4">
      <!-- 6.8 -->
      <g transform="translate(366.990419 224.791947) scale(0.18 -0.18)">
       <use xlink:href="#Arial-BoldMT-36"/>
       <use xlink:href="#Arial-BoldMT-2e" x="55.615234"/>
       <use xlink:href="#Arial-BoldMT-38" x="83.398438"/>
      </g>
     </g>
    </g>
    <g id="xtick_5">
     <g id="line2d_5">
      <g>
       <use xlink:href="#me67f6b74d8" x="487.091395" y="198.907885" style="stroke: #000000; stroke-width: 2"/>
      </g>
     </g>
     <g id="text_5">
      <!-- 5.9 -->
      <g transform="translate(474.581395 224.791947) scale(0.18 -0.18)">
       <use xlink:href="#Arial-BoldMT-35"/>
       <use xlink:href="#Arial-BoldMT-2e" x="55.615234"/>
       <use xlink:href="#Arial-BoldMT-39" x="83.398438"/>
      </g>
     </g>
    </g>
    <g id="xtick_6">
     <g id="line2d_6">
      <g>
       <use xlink:href="#me67f6b74d8" x="594.682371" y="198.907885" style="stroke: #000000; stroke-width: 2"/>
      </g>
     </g>
     <g id="text_6">
      <!-- 5.0 -->
      <g transform="translate(582.172371 224.791947) scale(0.18 -0.18)">
       <defs>
        <path id="Arial-BoldMT-30" d="M 1756 4600 
Q 2422 4600 2797 4125 
Q 3244 3563 3244 2259 
Q 3244 959 2794 391 
Q 2422 -78 1756 -78 
Q 1088 -78 678 436 
Q 269 950 269 2269 
Q 269 3563 719 4131 
Q 1091 4600 1756 4600 
z
M 1756 3872 
Q 1597 3872 1472 3770 
Q 1347 3669 1278 3406 
Q 1188 3066 1188 2259 
Q 1188 1453 1269 1151 
Q 1350 850 1473 750 
Q 1597 650 1756 650 
Q 1916 650 2041 751 
Q 2166 853 2234 1116 
Q 2325 1453 2325 2259 
Q 2325 3066 2244 3367 
Q 2163 3669 2039 3770 
Q 1916 3872 1756 3872 
z
" transform="scale(0.015625)"/>
       </defs>
       <use xlink:href="#Arial-BoldMT-35"/>
       <use xlink:href="#Arial-BoldMT-2e" x="55.615234"/>
       <use xlink:href="#Arial-BoldMT-30" x="83.398438"/>
      </g>
     </g>
    </g>
    <g id="xtick_7">
     <g id="line2d_7">
      <g>
       <use xlink:href="#me67f6b74d8" x="702.273347" y="198.907885" style="stroke: #000000; stroke-width: 2"/>
      </g>
     </g>
     <g id="text_7">
      <!-- 4.1 -->
      <g transform="translate(689.763347 224.791947) scale(0.18 -0.18)">
       <defs>
        <path id="Arial-BoldMT-34" d="M 1994 0 
L 1994 922 
L 119 922 
L 119 1691 
L 2106 4600 
L 2844 4600 
L 2844 1694 
L 3413 1694 
L 3413 922 
L 2844 922 
L 2844 0 
L 1994 0 
z
M 1994 1694 
L 1994 3259 
L 941 1694 
L 1994 1694 
z
" transform="scale(0.015625)"/>
        <path id="Arial-BoldMT-31" d="M 2519 0 
L 1641 0 
L 1641 3309 
Q 1159 2859 506 2644 
L 506 3441 
Q 850 3553 1253 3867 
Q 1656 4181 1806 4600 
L 2519 4600 
L 2519 0 
z
" transform="scale(0.015625)"/>
       </defs>
       <use xlink:href="#Arial-BoldMT-34"/>
       <use xlink:href="#Arial-BoldMT-2e" x="55.615234"/>
       <use xlink:href="#Arial-BoldMT-31" x="83.398438"/>
      </g>
     </g>
    </g>
    <g id="xtick_8">
     <g id="line2d_8">
      <g>
       <use xlink:href="#me67f6b74d8" x="809.864323" y="198.907885" style="stroke: #000000; stroke-width: 2"/>
      </g>
     </g>
     <g id="text_8">
      <!-- 3.2 -->
      <g transform="translate(797.354323 224.791947) scale(0.18 -0.18)">
       <defs>
        <path id="Arial-BoldMT-33" d="M 241 1216 
L 1091 1319 
Q 1131 994 1309 822 
Q 1488 650 1741 650 
Q 2013 650 2198 856 
Q 2384 1063 2384 1413 
Q 2384 1744 2206 1937 
Q 2028 2131 1772 2131 
Q 1603 2131 1369 2066 
L 1466 2781 
Q 1822 2772 2009 2936 
Q 2197 3100 2197 3372 
Q 2197 3603 2059 3740 
Q 1922 3878 1694 3878 
Q 1469 3878 1309 3722 
Q 1150 3566 1116 3266 
L 306 3403 
Q 391 3819 561 4067 
Q 731 4316 1036 4458 
Q 1341 4600 1719 4600 
Q 2366 4600 2756 4188 
Q 3078 3850 3078 3425 
Q 3078 2822 2419 2463 
Q 2813 2378 3048 2084 
Q 3284 1791 3284 1375 
Q 3284 772 2843 347 
Q 2403 -78 1747 -78 
Q 1125 -78 715 280 
Q 306 638 241 1216 
z
" transform="scale(0.015625)"/>
        <path id="Arial-BoldMT-32" d="M 3238 816 
L 3238 0 
L 159 0 
Q 209 463 459 877 
Q 709 1291 1447 1975 
Q 2041 2528 2175 2725 
Q 2356 2997 2356 3263 
Q 2356 3556 2198 3714 
Q 2041 3872 1763 3872 
Q 1488 3872 1325 3706 
Q 1163 3541 1138 3156 
L 263 3244 
Q 341 3969 753 4284 
Q 1166 4600 1784 4600 
Q 2463 4600 2850 4234 
Q 3238 3869 3238 3325 
Q 3238 3016 3127 2736 
Q 3016 2456 2775 2150 
Q 2616 1947 2200 1565 
Q 1784 1184 1673 1059 
Q 1563 934 1494 816 
L 3238 816 
z
" transform="scale(0.015625)"/>
       </defs>
       <use xlink:href="#Arial-BoldMT-33"/>
       <use xlink:href="#Arial-BoldMT-2e" x="55.615234"/>
       <use xlink:href="#Arial-BoldMT-32" x="83.398438"/>
      </g>
     </g>
    </g>
    <g id="xtick_9">
     <g id="line2d_9">
      <g>
       <use xlink:href="#me67f6b74d8" x="917.455299" y="198.907885" style="stroke: #000000; stroke-width: 2"/>
      </g>
     </g>
     <g id="text_9">
      <!-- 2.3 -->
      <g transform="translate(904.945299 224.791947) scale(0.18 -0.18)">
       <use xlink:href="#Arial-BoldMT-32"/>
       <use xlink:href="#Arial-BoldMT-2e" x="55.615234"/>
       <use xlink:href="#Arial-BoldMT-33" x="83.398438"/>
      </g>
     </g>
    </g>
    <g id="xtick_10">
     <g id="line2d_10">
      <g>
       <use xlink:href="#me67f6b74d8" x="1025.046275" y="198.907885" style="stroke: #000000; stroke-width: 2"/>
      </g>
     </g>
     <g id="text_10">
      <!-- 1.4 -->
      <g transform="translate(1012.536275 224.791947) scale(0.18 -0.18)">
       <use xlink:href="#Arial-BoldMT-31"/>
       <use xlink:href="#Arial-BoldMT-2e" x="55.615234"/>
       <use xlink:href="#Arial-BoldMT-34" x="83.398438"/>
      </g>
     </g>
    </g>
    <g id="text_11">
     <!-- Chemical shift / ppm -->
     <g transform="translate(505.99125 245.447573) scale(0.18 -0.18)">
      <defs>
       <path id="Arial-BoldMT-43" d="M 3397 1684 
L 4294 1400 
Q 4088 650 3608 286 
Q 3128 -78 2391 -78 
Q 1478 -78 890 545 
Q 303 1169 303 2250 
Q 303 3394 893 4026 
Q 1484 4659 2447 4659 
Q 3288 4659 3813 4163 
Q 4125 3869 4281 3319 
L 3366 3100 
Q 3284 3456 3026 3662 
Q 2769 3869 2400 3869 
Q 1891 3869 1573 3503 
Q 1256 3138 1256 2319 
Q 1256 1450 1568 1081 
Q 1881 713 2381 713 
Q 2750 713 3015 947 
Q 3281 1181 3397 1684 
z
" transform="scale(0.015625)"/>
       <path id="Arial-BoldMT-68" d="M 1334 4581 
L 1334 2897 
Q 1759 3394 2350 3394 
Q 2653 3394 2897 3281 
Q 3141 3169 3264 2994 
Q 3388 2819 3433 2606 
Q 3478 2394 3478 1947 
L 3478 0 
L 2600 0 
L 2600 1753 
Q 2600 2275 2550 2415 
Q 2500 2556 2373 2639 
Q 2247 2722 2056 2722 
Q 1838 2722 1666 2615 
Q 1494 2509 1414 2295 
Q 1334 2081 1334 1663 
L 1334 0 
L 456 0 
L 456 4581 
L 1334 4581 
z
" transform="scale(0.015625)"/>
       <path id="Arial-BoldMT-65" d="M 2381 1056 
L 3256 909 
Q 3088 428 2723 176 
Q 2359 -75 1813 -75 
Q 947 -75 531 491 
Q 203 944 203 1634 
Q 203 2459 634 2926 
Q 1066 3394 1725 3394 
Q 2466 3394 2894 2905 
Q 3322 2416 3303 1406 
L 1103 1406 
Q 1113 1016 1316 798 
Q 1519 581 1822 581 
Q 2028 581 2168 693 
Q 2309 806 2381 1056 
z
M 2431 1944 
Q 2422 2325 2234 2523 
Q 2047 2722 1778 2722 
Q 1491 2722 1303 2513 
Q 1116 2303 1119 1944 
L 2431 1944 
z
" transform="scale(0.015625)"/>
       <path id="Arial-BoldMT-6d" d="M 394 3319 
L 1203 3319 
L 1203 2866 
Q 1638 3394 2238 3394 
Q 2556 3394 2790 3262 
Q 3025 3131 3175 2866 
Q 3394 3131 3647 3262 
Q 3900 3394 4188 3394 
Q 4553 3394 4806 3245 
Q 5059 3097 5184 2809 
Q 5275 2597 5275 2122 
L 5275 0 
L 4397 0 
L 4397 1897 
Q 4397 2391 4306 2534 
Q 4184 2722 3931 2722 
Q 3747 2722 3584 2609 
Q 3422 2497 3350 2280 
Q 3278 2063 3278 1594 
L 3278 0 
L 2400 0 
L 2400 1819 
Q 2400 2303 2353 2443 
Q 2306 2584 2207 2653 
Q 2109 2722 1941 2722 
Q 1738 2722 1575 2612 
Q 1413 2503 1342 2297 
Q 1272 2091 1272 1613 
L 1272 0 
L 394 0 
L 394 3319 
z
" transform="scale(0.015625)"/>
       <path id="Arial-BoldMT-69" d="M 459 3769 
L 459 4581 
L 1338 4581 
L 1338 3769 
L 459 3769 
z
M 459 0 
L 459 3319 
L 1338 3319 
L 1338 0 
L 459 0 
z
" transform="scale(0.015625)"/>
       <path id="Arial-BoldMT-63" d="M 3353 2338 
L 2488 2181 
Q 2444 2441 2289 2572 
Q 2134 2703 1888 2703 
Q 1559 2703 1364 2476 
Q 1169 2250 1169 1719 
Q 1169 1128 1367 884 
Q 1566 641 1900 641 
Q 2150 641 2309 783 
Q 2469 925 2534 1272 
L 3397 1125 
Q 3263 531 2881 228 
Q 2500 -75 1859 -75 
Q 1131 -75 698 384 
Q 266 844 266 1656 
Q 266 2478 700 2936 
Q 1134 3394 1875 3394 
Q 2481 3394 2839 3133 
Q 3197 2872 3353 2338 
z
" transform="scale(0.015625)"/>
       <path id="Arial-BoldMT-61" d="M 1116 2306 
L 319 2450 
Q 453 2931 781 3162 
Q 1109 3394 1756 3394 
Q 2344 3394 2631 3255 
Q 2919 3116 3036 2902 
Q 3153 2688 3153 2116 
L 3144 1091 
Q 3144 653 3186 445 
Q 3228 238 3344 0 
L 2475 0 
Q 2441 88 2391 259 
Q 2369 338 2359 363 
Q 2134 144 1878 34 
Q 1622 -75 1331 -75 
Q 819 -75 523 203 
Q 228 481 228 906 
Q 228 1188 362 1408 
Q 497 1628 739 1745 
Q 981 1863 1438 1950 
Q 2053 2066 2291 2166 
L 2291 2253 
Q 2291 2506 2166 2614 
Q 2041 2722 1694 2722 
Q 1459 2722 1328 2630 
Q 1197 2538 1116 2306 
z
M 2291 1594 
Q 2122 1538 1756 1459 
Q 1391 1381 1278 1306 
Q 1106 1184 1106 997 
Q 1106 813 1243 678 
Q 1381 544 1594 544 
Q 1831 544 2047 700 
Q 2206 819 2256 991 
Q 2291 1103 2291 1419 
L 2291 1594 
z
" transform="scale(0.015625)"/>
       <path id="Arial-BoldMT-6c" d="M 459 0 
L 459 4581 
L 1338 4581 
L 1338 0 
L 459 0 
z
" transform="scale(0.015625)"/>
       <path id="Arial-BoldMT-20" transform="scale(0.015625)"/>
       <path id="Arial-BoldMT-73" d="M 150 947 
L 1031 1081 
Q 1088 825 1259 692 
Q 1431 559 1741 559 
Q 2081 559 2253 684 
Q 2369 772 2369 919 
Q 2369 1019 2306 1084 
Q 2241 1147 2013 1200 
Q 950 1434 666 1628 
Q 272 1897 272 2375 
Q 272 2806 612 3100 
Q 953 3394 1669 3394 
Q 2350 3394 2681 3172 
Q 3013 2950 3138 2516 
L 2309 2363 
Q 2256 2556 2107 2659 
Q 1959 2763 1684 2763 
Q 1338 2763 1188 2666 
Q 1088 2597 1088 2488 
Q 1088 2394 1175 2328 
Q 1294 2241 1995 2081 
Q 2697 1922 2975 1691 
Q 3250 1456 3250 1038 
Q 3250 581 2869 253 
Q 2488 -75 1741 -75 
Q 1063 -75 667 200 
Q 272 475 150 947 
z
" transform="scale(0.015625)"/>
       <path id="Arial-BoldMT-66" d="M 75 3319 
L 563 3319 
L 563 3569 
Q 563 3988 652 4194 
Q 741 4400 980 4529 
Q 1219 4659 1584 4659 
Q 1959 4659 2319 4547 
L 2200 3934 
Q 1991 3984 1797 3984 
Q 1606 3984 1523 3895 
Q 1441 3806 1441 3553 
L 1441 3319 
L 2097 3319 
L 2097 2628 
L 1441 2628 
L 1441 0 
L 563 0 
L 563 2628 
L 75 2628 
L 75 3319 
z
" transform="scale(0.015625)"/>
       <path id="Arial-BoldMT-74" d="M 1981 3319 
L 1981 2619 
L 1381 2619 
L 1381 1281 
Q 1381 875 1398 808 
Q 1416 741 1477 697 
Q 1538 653 1625 653 
Q 1747 653 1978 738 
L 2053 56 
Q 1747 -75 1359 -75 
Q 1122 -75 931 4 
Q 741 84 652 211 
Q 563 338 528 553 
Q 500 706 500 1172 
L 500 2619 
L 97 2619 
L 97 3319 
L 500 3319 
L 500 3978 
L 1381 4491 
L 1381 3319 
L 1981 3319 
z
" transform="scale(0.015625)"/>
       <path id="Arial-BoldMT-2f" d="M -9 -78 
L 1125 4659 
L 1784 4659 
L 638 -78 
L -9 -78 
z
" transform="scale(0.015625)"/>
       <path id="Arial-BoldMT-70" d="M 434 3319 
L 1253 3319 
L 1253 2831 
Q 1413 3081 1684 3237 
Q 1956 3394 2288 3394 
Q 2866 3394 3269 2941 
Q 3672 2488 3672 1678 
Q 3672 847 3265 386 
Q 2859 -75 2281 -75 
Q 2006 -75 1782 34 
Q 1559 144 1313 409 
L 1313 -1263 
L 434 -1263 
L 434 3319 
z
M 1303 1716 
Q 1303 1156 1525 889 
Q 1747 622 2066 622 
Q 2372 622 2575 867 
Q 2778 1113 2778 1672 
Q 2778 2194 2568 2447 
Q 2359 2700 2050 2700 
Q 1728 2700 1515 2451 
Q 1303 2203 1303 1716 
z
" transform="scale(0.015625)"/>
      </defs>
      <use xlink:href="#Arial-BoldMT-43"/>
      <use xlink:href="#Arial-BoldMT-68" x="72.216797"/>
      <use xlink:href="#Arial-BoldMT-65" x="133.300781"/>
      <use xlink:href="#Arial-BoldMT-6d" x="188.916016"/>
      <use xlink:href="#Arial-BoldMT-69" x="277.832031"/>
      <use xlink:href="#Arial-BoldMT-63" x="305.615234"/>
      <use xlink:href="#Arial-BoldMT-61" x="361.230469"/>
      <use xlink:href="#Arial-BoldMT-6c" x="416.845703"/>
      <use xlink:href="#Arial-BoldMT-20" x="444.628906"/>
      <use xlink:href="#Arial-BoldMT-73" x="472.412109"/>
      <use xlink:href="#Arial-BoldMT-68" x="528.027344"/>
      <use xlink:href="#Arial-BoldMT-69" x="589.111328"/>
      <use xlink:href="#Arial-BoldMT-66" x="616.894531"/>
      <use xlink:href="#Arial-BoldMT-74" x="650.195312"/>
      <use xlink:href="#Arial-BoldMT-20" x="683.496094"/>
      <use xlink:href="#Arial-BoldMT-2f" x="711.279297"/>
      <use xlink:href="#Arial-BoldMT-20" x="739.0625"/>
      <use xlink:href="#Arial-BoldMT-70" x="766.845703"/>
      <use xlink:href="#Arial-BoldMT-70" x="827.929688"/>
      <use xlink:href="#Arial-BoldMT-6d" x="889.013672"/>
     </g>
    </g>
   </g>
   <g id="matplotlib.axis_2"/>
   <g id="line2d_11">
    <path d="M 56.727491 190.798447 
L 262.767234 190.798447 
L 262.994651 177.71825 
L 264.359153 170.531946 
L 265.723654 163.687438 
L 266.405905 161.543236 
L 266.860739 160.880405 
L 267.088156 160.839741 
L 267.315573 160.978008 
L 267.770407 161.688228 
L 268.225241 163.020167 
L 268.907491 166.034215 
L 269.817159 171.212333 
L 270.954244 177.806599 
L 271.181661 190.798447 
L 280.505755 190.798447 
L 280.733172 177.709848 
L 281.415423 172.733541 
L 282.097674 165.311009 
L 283.007341 151.524606 
L 284.144426 134.017265 
L 284.59926 129.659319 
L 285.054094 127.604592 
L 285.281511 127.413594 
L 285.508928 127.740092 
L 285.736345 128.542281 
L 286.191178 131.387349 
L 286.646012 135.67356 
L 287.328263 144.436348 
L 289.375015 173.969503 
L 289.602432 176.204819 
L 289.829849 190.798447 
L 535.212722 190.798447 
L 535.440139 177.715725 
L 536.804641 175.393537 
L 538.851393 171.203532 
L 540.443312 167.272346 
L 542.490064 161.40244 
L 544.3094 155.812678 
L 547.720654 144.716611 
L 549.085155 139.8246 
L 549.539989 139.009884 
L 549.994823 138.794363 
L 550.449657 138.987143 
L 551.131908 139.595745 
L 551.586742 140.281407 
L 552.041575 141.465379 
L 552.723826 143.394916 
L 552.951243 143.626547 
L 553.17866 143.473301 
L 553.406077 142.89002 
L 553.860911 141.009104 
L 554.088328 140.630728 
L 554.315745 141.549523 
L 554.543162 144.168364 
L 555.45283 158.230624 
L 555.907663 160.765338 
L 556.13508 161.121395 
L 556.362497 161.065231 
L 556.817331 160.203983 
L 557.726999 158.00644 
L 558.181833 157.348096 
L 558.636667 157.129529 
L 558.864084 157.202921 
L 559.318917 157.704704 
L 560.001168 159.082584 
L 561.138253 162.014155 
L 563.639839 169.246853 
L 565.231758 172.896274 
L 566.823676 176.012507 
L 567.733344 177.575727 
L 567.960761 190.798447 
L 784.461683 190.798447 
L 784.6891 177.112115 
L 784.916517 177.041738 
L 785.143934 177.765302 
L 785.371351 190.798447 
L 846.091673 190.798447 
L 846.319089 177.315999 
L 847.228757 170.757219 
L 847.683591 169.449914 
L 848.138425 169.142327 
L 848.365842 169.092128 
L 848.593259 169.199979 
L 848.820676 169.637083 
L 849.27551 171.839238 
L 849.95776 176.662332 
L 850.185177 190.798447 
L 853.823848 190.798447 
L 854.051265 177.171996 
L 854.506099 174.18121 
L 854.960933 169.950503 
L 855.643184 160.617201 
L 856.780268 142.991944 
L 857.462519 136.349327 
L 857.689936 134.958204 
L 857.917353 134.373407 
L 858.14477 135.094629 
L 858.372187 137.511233 
L 858.827021 146.647848 
L 859.509272 161.636963 
L 859.964106 168.570321 
L 860.418939 173.202488 
L 860.873773 176.244977 
L 861.10119 177.351552 
L 861.328607 190.798447 
L 863.602777 190.798447 
L 863.830193 177.673782 
L 864.285027 175.379922 
L 864.739861 171.939961 
L 865.194695 166.94221 
L 866.559197 148.855583 
L 866.786614 147.996435 
L 867.014031 148.047901 
L 867.241447 149.026998 
L 867.696281 153.913524 
L 869.060783 174.330712 
L 869.2882 176.488289 
L 869.515617 190.798447 
L 906.129743 190.798447 
L 906.35716 177.359909 
L 907.494245 169.668247 
L 907.949079 168.464432 
L 908.403913 167.940339 
L 908.63133 167.974159 
L 908.858747 168.29826 
L 909.768414 170.355774 
L 909.995831 170.261838 
L 910.223248 169.748014 
L 910.678082 167.534667 
L 911.360333 163.309339 
L 911.58775 162.501548 
L 911.815167 162.218756 
L 912.042584 162.480089 
L 912.270001 163.284097 
L 912.724834 166.289012 
L 913.634502 172.832879 
L 914.089336 174.398723 
L 914.316753 174.697362 
L 914.54417 174.68139 
L 914.771587 174.34669 
L 914.999004 173.679619 
L 915.453838 171.263524 
L 916.136089 165.176252 
L 916.590922 161.452655 
L 916.818339 160.504205 
L 917.045756 160.183817 
L 917.273173 160.250056 
L 918.182841 161.208273 
L 918.865092 162.062146 
L 919.092509 162.015172 
L 919.319926 161.564309 
L 919.547343 160.613163 
L 920.684427 153.7263 
L 920.911844 153.985495 
L 921.366678 156.383038 
L 922.73118 167.246659 
L 923.640847 174.480808 
L 924.095681 176.779748 
L 924.323098 177.524552 
L 924.550515 190.798447 
L 925.460183 190.798447 
L 925.6876 177.572496 
L 926.142434 176.83726 
L 926.597268 176.583812 
L 927.052101 176.761466 
L 927.506935 177.275875 
L 927.734352 177.655031 
L 927.961769 190.798447 
L 928.871437 190.798447 
L 929.098854 177.703216 
L 929.553688 176.706642 
L 929.781105 176.440628 
L 930.008522 176.43622 
L 931.373023 177.631618 
L 931.60044 190.798447 
L 945.018039 190.798447 
L 945.245456 177.195766 
L 945.927707 170.071453 
L 946.382541 165.553218 
L 946.609958 164.578557 
L 946.837375 164.783373 
L 947.292209 167.569968 
L 947.747042 170.562892 
L 947.974459 171.469581 
L 948.201876 171.875777 
L 948.429293 171.758701 
L 948.65671 171.101407 
L 949.111544 168.090133 
L 949.793795 159.999154 
L 950.248629 155.90155 
L 950.476046 155.729041 
L 950.703463 156.979136 
L 951.158297 162.334694 
L 951.840547 170.800759 
L 952.295381 174.231985 
L 952.750215 175.851509 
L 952.977632 176.063943 
L 953.205049 175.908843 
L 953.659883 174.742963 
L 954.114717 173.604879 
L 954.342134 173.727376 
L 954.569551 174.51912 
L 955.024384 177.477104 
L 955.251801 190.798447 
L 1008.922198 190.798447 
L 1009.149615 177.810083 
L 1009.604449 175.219235 
L 1009.831866 174.528683 
L 1010.059283 174.514021 
L 1010.2867 175.16544 
L 1010.741534 177.618096 
L 1010.96895 190.798447 
L 1028.934888 190.798447 
L 1029.162305 177.774321 
L 1030.071973 175.444513 
L 1030.981641 172.448614 
L 1031.891308 168.529885 
L 1032.800976 163.554774 
L 1033.710644 157.363688 
L 1034.847729 147.80022 
L 1036.894481 129.648822 
L 1037.349315 127.23364 
L 1037.804149 126.036414 
L 1038.031566 125.922939 
L 1038.258983 126.126233 
L 1038.4864 126.629431 
L 1038.941233 128.443886 
L 1039.623484 132.752828 
L 1040.533152 140.169363 
L 1043.034738 162.577534 
L 1043.944406 168.015356 
L 1044.854074 171.922487 
L 1045.991158 175.668084 
L 1046.673409 177.55829 
L 1046.900826 190.798447 
L 1131.272509 190.798447 
L 1131.272509 190.798447 
" clip-path="url(#p9815fa7128)" style="fill: none; stroke: #000000; stroke-width: 2; stroke-linecap: square"/>
   </g>
   <g id="line2d_12">
    <path d="M 56.727491 93.485186 
L 243.436795 93.485186 
L 243.664212 79.606291 
L 244.346462 75.377059 
L 245.028713 69.158301 
L 245.710964 60.604434 
L 247.530299 34.92689 
L 247.985133 31.098194 
L 248.439967 29.011359 
L 248.667384 28.609678 
L 248.894801 28.628604 
L 249.122218 29.070893 
L 249.349635 29.948063 
L 249.804469 33.065391 
L 250.259303 38.054727 
L 250.941553 48.425408 
L 252.306055 70.734455 
L 252.988306 78.503329 
L 253.215723 80.447528 
L 253.44314 93.485186 
L 295.970107 93.485186 
L 296.197524 80.284962 
L 297.107191 75.510117 
L 299.153944 64.354336 
L 299.836194 61.927974 
L 300.291028 61.035621 
L 300.745862 60.654249 
L 300.973279 60.6914 
L 301.428113 61.187672 
L 301.882947 62.123202 
L 302.565198 64.207575 
L 304.384533 70.117047 
L 305.066784 71.516784 
L 305.521618 72.098502 
L 305.976452 72.395525 
L 306.658703 72.483143 
L 307.56837 72.519262 
L 308.023204 72.702749 
L 308.478038 73.061104 
L 308.932872 73.632646 
L 309.615123 74.930793 
L 310.752207 77.767696 
L 311.661875 80.236249 
L 311.889292 93.485186 
L 538.851393 93.485186 
L 539.07881 80.352725 
L 541.807813 75.78135 
L 547.26582 65.446769 
L 549.085155 62.553966 
L 549.539989 62.197467 
L 549.994823 62.225736 
L 550.449657 62.695815 
L 550.904491 63.639558 
L 551.586742 65.741459 
L 552.496409 69.366193 
L 553.860911 75.593095 
L 554.315745 79.501652 
L 554.543162 93.485186 
L 555.907663 93.485186 
L 556.13508 79.935751 
L 556.817331 78.434433 
L 557.954416 76.489794 
L 558.864084 75.329383 
L 559.546334 74.741547 
L 560.001168 74.612859 
L 560.456002 74.689014 
L 561.138253 75.056277 
L 561.593087 75.520861 
L 562.730171 77.256207 
L 564.776924 80.347543 
L 565.004341 93.485186 
L 770.134416 93.485186 
L 770.361833 79.990401 
L 770.58925 79.630832 
L 770.816667 79.664395 
L 771.044084 80.072722 
L 771.271501 93.485186 
L 777.184341 93.485186 
L 777.411758 79.315423 
L 778.094009 74.180913 
L 778.77626 66.916195 
L 779.685927 56.76737 
L 779.913344 55.228358 
L 780.140761 54.54612 
L 780.368178 54.859653 
L 780.595595 56.180491 
L 781.050429 61.254698 
L 781.960097 73.211831 
L 782.642348 78.799975 
L 782.869765 80.0079 
L 783.097182 93.485186 
L 786.053602 93.485186 
L 786.281019 79.961195 
L 786.735852 77.745421 
L 787.190686 74.621656 
L 787.872937 67.762046 
L 789.010022 53.780984 
L 789.237439 52.13174 
L 789.464856 51.451728 
L 789.692273 51.930843 
L 789.91969 53.572217 
L 790.374523 59.35305 
L 791.511608 75.152308 
L 791.966442 79.243553 
L 792.193859 93.485186 
L 797.651865 93.485186 
L 797.879282 79.981302 
L 798.334116 77.610666 
L 798.561533 76.829301 
L 798.78895 76.535634 
L 799.016367 76.811422 
L 799.243784 77.634485 
L 799.698618 80.387885 
L 799.926035 93.485186 
L 887.936389 93.485186 
L 888.163806 79.556797 
L 888.846056 76.163216 
L 889.073473 75.590859 
L 889.30089 75.374212 
L 889.528307 75.50622 
L 889.983141 76.600297 
L 890.665392 78.555325 
L 890.892809 78.857639 
L 891.120226 78.900816 
L 891.347643 78.673894 
L 891.802476 77.428312 
L 892.939561 72.971747 
L 893.166978 72.968436 
L 893.394395 73.480123 
L 893.849229 75.638852 
L 894.53148 79.154117 
L 894.758897 79.960006 
L 894.986314 93.485186 
L 895.895981 93.485186 
L 896.123398 80.30901 
L 896.578232 78.725375 
L 897.033066 76.111506 
L 897.715317 70.138565 
L 898.397568 64.26207 
L 898.624985 63.395731 
L 898.852401 63.259973 
L 899.079818 63.775686 
L 899.534652 66.160262 
L 900.216903 69.999269 
L 900.44432 70.648482 
L 900.671737 70.845649 
L 900.899154 70.572422 
L 901.126571 69.838791 
L 901.581405 67.213556 
L 902.263655 62.966617 
L 902.491072 62.535045 
L 902.718489 62.894 
L 902.945906 64.008741 
L 903.40074 67.910185 
L 904.310408 76.973901 
L 904.765242 80.097284 
L 904.992659 93.485186 
L 907.721662 93.485186 
L 907.949079 80.131998 
L 908.176496 79.670751 
L 908.403913 79.487348 
L 908.63133 79.625323 
L 908.858747 80.062371 
L 909.086164 93.485186 
L 987.545006 93.485186 
L 987.772423 79.59456 
L 988.227257 74.850709 
L 988.909508 64.167535 
L 989.364342 56.727823 
L 989.591759 54.579733 
L 989.819175 54.278473 
L 990.046592 55.932423 
L 990.501426 63.19942 
L 991.183677 74.619503 
L 991.638511 79.660613 
L 991.865928 93.485186 
L 1131.272509 93.485186 
L 1131.272509 93.485186 
" clip-path="url(#p9815fa7128)" style="fill: none; stroke: #d55e00; stroke-width: 2; stroke-linecap: square"/>
   </g>
   <g id="LineCollection_1">
    <path d="M 56.727491 190.798447 
L 56.727491 93.485186 
" clip-path="url(#p9815fa7128)" style="fill: none; stroke-dasharray: 1,1.65; stroke-dashoffset: 0; stroke: #808080"/>
    <path d="M 87.883611 190.798447 
L 59.00166 93.485186 
" clip-path="url(#p9815fa7128)" style="fill: none; stroke-dasharray: 1,1.65; stroke-dashoffset: 0; stroke: #808080"/>
    <path d="M 119.267148 190.798447 
L 90.385197 93.485186 
" clip-path="url(#p9815fa7128)" style="fill: none; stroke-dasharray: 1,1.65; stroke-dashoffset: 0; stroke: #808080"/>
    <path d="M 150.423268 190.798447 
L 121.541317 93.485186 
" clip-path="url(#p9815fa7128)" style="fill: none; stroke-dasharray: 1,1.65; stroke-dashoffset: 0; stroke: #808080"/>
    <path d="M 181.806805 190.798447 
L 152.924854 93.485186 
" clip-path="url(#p9815fa7128)" style="fill: none; stroke-dasharray: 1,1.65; stroke-dashoffset: 0; stroke: #808080"/>
    <path d="M 212.962925 190.798447 
L 184.080975 93.485186 
" clip-path="url(#p9815fa7128)" style="fill: none; stroke-dasharray: 1,1.65; stroke-dashoffset: 0; stroke: #808080"/>
    <path d="M 244.346462 190.798447 
L 215.464512 93.485186 
" clip-path="url(#p9815fa7128)" style="fill: none; stroke-dasharray: 1,1.65; stroke-dashoffset: 0; stroke: #808080"/>
    <path d="M 275.502582 190.798447 
L 238.433622 93.485186 
" clip-path="url(#p9815fa7128)" style="fill: none; stroke-dasharray: 1,1.65; stroke-dashoffset: 0; stroke: #808080"/>
    <path d="M 305.294201 190.798447 
L 253.44314 93.485186 
" clip-path="url(#p9815fa7128)" style="fill: none; stroke-dasharray: 1,1.65; stroke-dashoffset: 0; stroke: #808080"/>
    <path d="M 336.450321 190.798447 
L 253.44314 93.485186 
" clip-path="url(#p9815fa7128)" style="fill: none; stroke-dasharray: 1,1.65; stroke-dashoffset: 0; stroke: #808080"/>
    <path d="M 367.833858 190.798447 
L 253.44314 93.485186 
" clip-path="url(#p9815fa7128)" style="fill: none; stroke-dasharray: 1,1.65; stroke-dashoffset: 0; stroke: #808080"/>
    <path d="M 398.989978 190.798447 
L 253.44314 93.485186 
" clip-path="url(#p9815fa7128)" style="fill: none; stroke-dasharray: 1,1.65; stroke-dashoffset: 0; stroke: #808080"/>
    <path d="M 430.373515 190.798447 
L 253.44314 93.485186 
" clip-path="url(#p9815fa7128)" style="fill: none; stroke-dasharray: 1,1.65; stroke-dashoffset: 0; stroke: #808080"/>
    <path d="M 461.529635 190.798447 
L 253.44314 93.485186 
" clip-path="url(#p9815fa7128)" style="fill: none; stroke-dasharray: 1,1.65; stroke-dashoffset: 0; stroke: #808080"/>
    <path d="M 492.913172 190.798447 
L 253.670557 93.485186 
" clip-path="url(#p9815fa7128)" style="fill: none; stroke-dasharray: 1,1.65; stroke-dashoffset: 0; stroke: #808080"/>
    <path d="M 524.069292 190.798447 
L 284.826677 93.485186 
" clip-path="url(#p9815fa7128)" style="fill: none; stroke-dasharray: 1,1.65; stroke-dashoffset: 0; stroke: #808080"/>
    <path d="M 554.997996 152.233236 
L 300.745862 60.654249 
" clip-path="url(#p9815fa7128)" style="fill: none; stroke-dasharray: 1,1.65; stroke-dashoffset: 0; stroke: #808080"/>
    <path d="M 582.742862 190.798447 
L 311.889292 93.485186 
" clip-path="url(#p9815fa7128)" style="fill: none; stroke-dasharray: 1,1.65; stroke-dashoffset: 0; stroke: #808080"/>
    <path d="M 614.126399 190.798447 
L 311.889292 93.485186 
" clip-path="url(#p9815fa7128)" style="fill: none; stroke-dasharray: 1,1.65; stroke-dashoffset: 0; stroke: #808080"/>
    <path d="M 645.282519 190.798447 
L 338.72449 93.485186 
" clip-path="url(#p9815fa7128)" style="fill: none; stroke-dasharray: 1,1.65; stroke-dashoffset: 0; stroke: #808080"/>
    <path d="M 676.666056 190.798447 
L 370.108027 93.485186 
" clip-path="url(#p9815fa7128)" style="fill: none; stroke-dasharray: 1,1.65; stroke-dashoffset: 0; stroke: #808080"/>
    <path d="M 707.822176 190.798447 
L 401.264148 93.485186 
" clip-path="url(#p9815fa7128)" style="fill: none; stroke-dasharray: 1,1.65; stroke-dashoffset: 0; stroke: #808080"/>
    <path d="M 739.205713 190.798447 
L 432.647685 93.485186 
" clip-path="url(#p9815fa7128)" style="fill: none; stroke-dasharray: 1,1.65; stroke-dashoffset: 0; stroke: #808080"/>
    <path d="M 770.361833 190.798447 
L 463.803805 93.485186 
" clip-path="url(#p9815fa7128)" style="fill: none; stroke-dasharray: 1,1.65; stroke-dashoffset: 0; stroke: #808080"/>
    <path d="M 801.74537 190.798447 
L 494.505091 93.485186 
" clip-path="url(#p9815fa7128)" style="fill: none; stroke-dasharray: 1,1.65; stroke-dashoffset: 0; stroke: #808080"/>
    <path d="M 832.90149 190.798447 
L 525.661211 93.485186 
" clip-path="url(#p9815fa7128)" style="fill: none; stroke-dasharray: 1,1.65; stroke-dashoffset: 0; stroke: #808080"/>
    <path d="M 851.777096 190.798447 
L 554.543162 93.485186 
" clip-path="url(#p9815fa7128)" style="fill: none; stroke-dasharray: 1,1.65; stroke-dashoffset: 0; stroke: #808080"/>
    <path d="M 861.328607 190.798447 
L 579.559025 93.485186 
" clip-path="url(#p9815fa7128)" style="fill: none; stroke-dasharray: 1,1.65; stroke-dashoffset: 0; stroke: #808080"/>
    <path d="M 861.328607 190.798447 
L 610.942562 93.485186 
" clip-path="url(#p9815fa7128)" style="fill: none; stroke-dasharray: 1,1.65; stroke-dashoffset: 0; stroke: #808080"/>
    <path d="M 861.328607 190.798447 
L 642.098682 93.485186 
" clip-path="url(#p9815fa7128)" style="fill: none; stroke-dasharray: 1,1.65; stroke-dashoffset: 0; stroke: #808080"/>
    <path d="M 861.328607 190.798447 
L 673.482219 93.485186 
" clip-path="url(#p9815fa7128)" style="fill: none; stroke-dasharray: 1,1.65; stroke-dashoffset: 0; stroke: #808080"/>
    <path d="M 861.328607 190.798447 
L 704.638339 93.485186 
" clip-path="url(#p9815fa7128)" style="fill: none; stroke-dasharray: 1,1.65; stroke-dashoffset: 0; stroke: #808080"/>
    <path d="M 861.328607 190.798447 
L 736.021876 93.485186 
" clip-path="url(#p9815fa7128)" style="fill: none; stroke-dasharray: 1,1.65; stroke-dashoffset: 0; stroke: #808080"/>
    <path d="M 861.328607 190.798447 
L 767.177996 93.485186 
" clip-path="url(#p9815fa7128)" style="fill: none; stroke-dasharray: 1,1.65; stroke-dashoffset: 0; stroke: #808080"/>
    <path d="M 883.615467 190.798447 
L 783.097182 93.485186 
" clip-path="url(#p9815fa7128)" style="fill: none; stroke-dasharray: 1,1.65; stroke-dashoffset: 0; stroke: #808080"/>
    <path d="M 914.54417 174.68139 
L 787.418103 72.642182 
" clip-path="url(#p9815fa7128)" style="fill: none; stroke-dasharray: 1,1.65; stroke-dashoffset: 0; stroke: #808080"/>
    <path d="M 927.961769 190.798447 
L 810.614631 93.485186 
" clip-path="url(#p9815fa7128)" style="fill: none; stroke-dasharray: 1,1.65; stroke-dashoffset: 0; stroke: #808080"/>
    <path d="M 927.961769 190.798447 
L 841.770751 93.485186 
" clip-path="url(#p9815fa7128)" style="fill: none; stroke-dasharray: 1,1.65; stroke-dashoffset: 0; stroke: #808080"/>
    <path d="M 927.961769 190.798447 
L 873.154288 93.485186 
" clip-path="url(#p9815fa7128)" style="fill: none; stroke-dasharray: 1,1.65; stroke-dashoffset: 0; stroke: #808080"/>
    <path d="M 938.877782 190.798447 
L 894.986314 93.485186 
" clip-path="url(#p9815fa7128)" style="fill: none; stroke-dasharray: 1,1.65; stroke-dashoffset: 0; stroke: #808080"/>
    <path d="M 965.940397 190.798447 
L 904.992659 93.485186 
" clip-path="url(#p9815fa7128)" style="fill: none; stroke-dasharray: 1,1.65; stroke-dashoffset: 0; stroke: #808080"/>
    <path d="M 997.096517 190.798447 
L 904.992659 93.485186 
" clip-path="url(#p9815fa7128)" style="fill: none; stroke-dasharray: 1,1.65; stroke-dashoffset: 0; stroke: #808080"/>
    <path d="M 1010.96895 190.798447 
L 926.142434 93.485186 
" clip-path="url(#p9815fa7128)" style="fill: none; stroke-dasharray: 1,1.65; stroke-dashoffset: 0; stroke: #808080"/>
    <path d="M 1010.96895 190.798447 
L 957.298554 93.485186 
" clip-path="url(#p9815fa7128)" style="fill: none; stroke-dasharray: 1,1.65; stroke-dashoffset: 0; stroke: #808080"/>
    <path d="M 1030.071973 175.444513 
L 987.99984 77.444944 
" clip-path="url(#p9815fa7128)" style="fill: none; stroke-dasharray: 1,1.65; stroke-dashoffset: 0; stroke: #808080"/>
    <path d="M 1046.900826 190.798447 
L 1005.965778 93.485186 
" clip-path="url(#p9815fa7128)" style="fill: none; stroke-dasharray: 1,1.65; stroke-dashoffset: 0; stroke: #808080"/>
    <path d="M 1046.900826 190.798447 
L 1037.349315 93.485186 
" clip-path="url(#p9815fa7128)" style="fill: none; stroke-dasharray: 1,1.65; stroke-dashoffset: 0; stroke: #808080"/>
    <path d="M 1068.505435 190.798447 
L 1068.505435 93.485186 
" clip-path="url(#p9815fa7128)" style="fill: none; stroke-dasharray: 1,1.65; stroke-dashoffset: 0; stroke: #808080"/>
    <path d="M 1099.888972 190.798447 
L 1099.888972 93.485186 
" clip-path="url(#p9815fa7128)" style="fill: none; stroke-dasharray: 1,1.65; stroke-dashoffset: 0; stroke: #808080"/>
    <path d="M 1131.272509 190.798447 
L 1131.272509 93.485186 
" clip-path="url(#p9815fa7128)" style="fill: none; stroke-dasharray: 1,1.65; stroke-dashoffset: 0; stroke: #808080"/>
   </g>
   <g id="patch_3">
    <path d="M 3.00024 198.907885 
L 3.00024 20.50024 
" style="fill: none; stroke: #000000; stroke-width: 2; stroke-linejoin: miter; stroke-linecap: square"/>
   </g>
   <g id="patch_4">
    <path d="M 1184.99976 198.907885 
L 1184.99976 20.50024 
" style="fill: none; stroke: #000000; stroke-width: 2; stroke-linejoin: miter; stroke-linecap: square"/>
   </g>
   <g id="patch_5">
    <path d="M 3.00024 198.907885 
L 1184.99976 198.907885 
" style="fill: none; stroke: #000000; stroke-width: 2; stroke-linejoin: miter; stroke-linecap: square"/>
   </g>
   <g id="patch_6">
    <path d="M 3.00024 20.50024 
L 1184.99976 20.50024 
" style="fill: none; stroke: #000000; stroke-width: 2; stroke-linejoin: miter; stroke-linecap: square"/>
   </g>
   <g id="text_12">
    <!-- Distance between spectra: 52.2 -->
    <g transform="translate(475.29125 14.50024) scale(0.16 -0.16)">
     <defs>
      <path id="Arial-BoldMT-44" d="M 463 4581 
L 2153 4581 
Q 2725 4581 3025 4494 
Q 3428 4375 3715 4072 
Q 4003 3769 4153 3330 
Q 4303 2891 4303 2247 
Q 4303 1681 4163 1272 
Q 3991 772 3672 463 
Q 3431 228 3022 97 
Q 2716 0 2203 0 
L 463 0 
L 463 4581 
z
M 1388 3806 
L 1388 772 
L 2078 772 
Q 2466 772 2638 816 
Q 2863 872 3011 1006 
Q 3159 1141 3253 1448 
Q 3347 1756 3347 2288 
Q 3347 2819 3253 3103 
Q 3159 3388 2990 3547 
Q 2822 3706 2563 3763 
Q 2369 3806 1803 3806 
L 1388 3806 
z
" transform="scale(0.015625)"/>
      <path id="Arial-BoldMT-6e" d="M 3478 0 
L 2600 0 
L 2600 1694 
Q 2600 2231 2544 2389 
Q 2488 2547 2361 2634 
Q 2234 2722 2056 2722 
Q 1828 2722 1647 2597 
Q 1466 2472 1398 2265 
Q 1331 2059 1331 1503 
L 1331 0 
L 453 0 
L 453 3319 
L 1269 3319 
L 1269 2831 
Q 1703 3394 2363 3394 
Q 2653 3394 2893 3289 
Q 3134 3184 3257 3021 
Q 3381 2859 3429 2653 
Q 3478 2447 3478 2063 
L 3478 0 
z
" transform="scale(0.015625)"/>
      <path id="Arial-BoldMT-62" d="M 422 0 
L 422 4581 
L 1300 4581 
L 1300 2931 
Q 1706 3394 2263 3394 
Q 2869 3394 3266 2955 
Q 3663 2516 3663 1694 
Q 3663 844 3258 384 
Q 2853 -75 2275 -75 
Q 1991 -75 1714 67 
Q 1438 209 1238 488 
L 1238 0 
L 422 0 
z
M 1294 1731 
Q 1294 1216 1456 969 
Q 1684 619 2063 619 
Q 2353 619 2558 867 
Q 2763 1116 2763 1650 
Q 2763 2219 2556 2470 
Q 2350 2722 2028 2722 
Q 1713 2722 1503 2476 
Q 1294 2231 1294 1731 
z
" transform="scale(0.015625)"/>
      <path id="Arial-BoldMT-77" d="M 1078 0 
L 28 3319 
L 881 3319 
L 1503 1144 
L 2075 3319 
L 2922 3319 
L 3475 1144 
L 4109 3319 
L 4975 3319 
L 3909 0 
L 3066 0 
L 2494 2134 
L 1931 0 
L 1078 0 
z
" transform="scale(0.015625)"/>
      <path id="Arial-BoldMT-72" d="M 1300 0 
L 422 0 
L 422 3319 
L 1238 3319 
L 1238 2847 
Q 1447 3181 1614 3287 
Q 1781 3394 1994 3394 
Q 2294 3394 2572 3228 
L 2300 2463 
Q 2078 2606 1888 2606 
Q 1703 2606 1575 2504 
Q 1447 2403 1373 2137 
Q 1300 1872 1300 1025 
L 1300 0 
z
" transform="scale(0.015625)"/>
      <path id="Arial-BoldMT-3a" d="M 628 2441 
L 628 3319 
L 1506 3319 
L 1506 2441 
L 628 2441 
z
M 628 0 
L 628 878 
L 1506 878 
L 1506 0 
L 628 0 
z
" transform="scale(0.015625)"/>
     </defs>
     <use xlink:href="#Arial-BoldMT-44"/>
     <use xlink:href="#Arial-BoldMT-69" x="72.216797"/>
     <use xlink:href="#Arial-BoldMT-73" x="100"/>
     <use xlink:href="#Arial-BoldMT-74" x="155.615234"/>
     <use xlink:href="#Arial-BoldMT-61" x="188.916016"/>
     <use xlink:href="#Arial-BoldMT-6e" x="244.53125"/>
     <use xlink:href="#Arial-BoldMT-63" x="305.615234"/>
     <use xlink:href="#Arial-BoldMT-65" x="361.230469"/>
     <use xlink:href="#Arial-BoldMT-20" x="416.845703"/>
     <use xlink:href="#Arial-BoldMT-62" x="444.628906"/>
     <use xlink:href="#Arial-BoldMT-65" x="505.712891"/>
     <use xlink:href="#Arial-BoldMT-74" x="561.328125"/>
     <use xlink:href="#Arial-BoldMT-77" x="594.628906"/>
     <use xlink:href="#Arial-BoldMT-65" x="672.412109"/>
     <use xlink:href="#Arial-BoldMT-65" x="728.027344"/>
     <use xlink:href="#Arial-BoldMT-6e" x="783.642578"/>
     <use xlink:href="#Arial-BoldMT-20" x="844.726562"/>
     <use xlink:href="#Arial-BoldMT-73" x="872.509766"/>
     <use xlink:href="#Arial-BoldMT-70" x="928.125"/>
     <use xlink:href="#Arial-BoldMT-65" x="989.208984"/>
     <use xlink:href="#Arial-BoldMT-63" x="1044.824219"/>
     <use xlink:href="#Arial-BoldMT-74" x="1100.439453"/>
     <use xlink:href="#Arial-BoldMT-72" x="1133.740234"/>
     <use xlink:href="#Arial-BoldMT-61" x="1172.65625"/>
     <use xlink:href="#Arial-BoldMT-3a" x="1228.271484"/>
     <use xlink:href="#Arial-BoldMT-20" x="1261.572266"/>
     <use xlink:href="#Arial-BoldMT-35" x="1289.355469"/>
     <use xlink:href="#Arial-BoldMT-32" x="1344.970703"/>
     <use xlink:href="#Arial-BoldMT-2e" x="1400.585938"/>
     <use xlink:href="#Arial-BoldMT-32" x="1428.369141"/>
    </g>
   </g>
  </g>
  <g id="axes_2">
   <g id="matplotlib.axis_3"/>
   <g id="patch_7">
    <path d="M 3.00024 198.907885 
L 3.00024 20.50024 
" style="fill: none; stroke: #000000; stroke-width: 2; stroke-linejoin: miter; stroke-linecap: square"/>
   </g>
   <g id="patch_8">
    <path d="M 1184.99976 198.907885 
L 1184.99976 20.50024 
" style="fill: none; stroke: #000000; stroke-width: 2; stroke-linejoin: miter; stroke-linecap: square"/>
   </g>
   <g id="patch_9">
    <path d="M 3.00024 198.907885 
L 1184.99976 198.907885 
" style="fill: none; stroke: #000000; stroke-width: 2; stroke-linejoin: miter; stroke-linecap: square"/>
   </g>
   <g id="patch_10">
    <path d="M 3.00024 20.50024 
L 1184.99976 20.50024 
" style="fill: none; stroke: #000000; stroke-width: 2; stroke-linejoin: miter; stroke-linecap: square"/>
   </g>
  </g>
 </g>
 <defs>
  <clipPath id="p9815fa7128">
   <rect x="3.00024" y="20.50024" width="1181.99952" height="178.407645"/>
  </clipPath>
 </defs>
</svg>
