<?xml version="1.0" encoding="utf-8" standalone="no"?>
<!DOCTYPE svg PUBLIC "-//W3C//DTD SVG 1.1//EN"
  "http://www.w3.org/Graphics/SVG/1.1/DTD/svg11.dtd">
<svg xmlns:xlink="http://www.w3.org/1999/xlink" width="1188pt" height="252pt" viewBox="0 0 1188 252" xmlns="http://www.w3.org/2000/svg" version="1.1">
 <metadata>
  <rdf:RDF xmlns:dc="http://purl.org/dc/elements/1.1/" xmlns:cc="http://creativecommons.org/ns#" xmlns:rdf="http://www.w3.org/1999/02/22-rdf-syntax-ns#">
   <cc:Work>
    <dc:type rdf:resource="http://purl.org/dc/dcmitype/StillImage"/>
    <dc:date>2024-05-14T18:59:30.449307</dc:date>
    <dc:format>image/svg+xml</dc:format>
    <dc:creator>
     <cc:Agent>
      <dc:title>Matplotlib v3.8.0, https://matplotlib.org/</dc:title>
     </cc:Agent>
    </dc:creator>
   </cc:Work>
  </rdf:RDF>
 </metadata>
 <defs>
  <style type="text/css">*{stroke-linejoin: round; stroke-linecap: butt}</style>
 </defs>
 <g id="figure_1">
  <g id="patch_1">
   <path d="M 0 252 
L 1188 252 
L 1188 0 
L 0 0 
z
" style="fill: #ffffff"/>
  </g>
  <g id="axes_1">
   <g id="patch_2">
    <path d="M 3.00024 198.907885 
L 1184.99976 198.907885 
L 1184.99976 20.50024 
L 3.00024 20.50024 
z
" style="fill: #ffffff"/>
   </g>
   <g id="matplotlib.axis_1">
    <g id="xtick_1">
     <g id="line2d_1">
      <defs>
       <path id="ma00d431bd2" d="M 0 0 
L 0 8 
" style="stroke: #000000; stroke-width: 2"/>
      </defs>
      <g>
       <use xlink:href="#ma00d431bd2" x="56.727491" y="198.907885" style="stroke: #000000; stroke-width: 2"/>
      </g>
     </g>
     <g id="text_1">
      <!-- 9.5 -->
      <g transform="translate(44.217491 224.791947) scale(0.18 -0.18)">
       <defs>
        <path id="Arial-BoldMT-39" d="M 291 1059 
L 1141 1153 
Q 1172 894 1303 769 
Q 1434 644 1650 644 
Q 1922 644 2112 894 
Q 2303 1144 2356 1931 
Q 2025 1547 1528 1547 
Q 988 1547 595 1964 
Q 203 2381 203 3050 
Q 203 3747 617 4173 
Q 1031 4600 1672 4600 
Q 2369 4600 2816 4061 
Q 3263 3522 3263 2288 
Q 3263 1031 2797 475 
Q 2331 -81 1584 -81 
Q 1047 -81 715 205 
Q 384 491 291 1059 
z
M 2278 2978 
Q 2278 3403 2083 3637 
Q 1888 3872 1631 3872 
Q 1388 3872 1227 3680 
Q 1066 3488 1066 3050 
Q 1066 2606 1241 2398 
Q 1416 2191 1678 2191 
Q 1931 2191 2104 2391 
Q 2278 2591 2278 2978 
z
" transform="scale(0.015625)"/>
        <path id="Arial-BoldMT-2e" d="M 459 0 
L 459 878 
L 1338 878 
L 1338 0 
L 459 0 
z
" transform="scale(0.015625)"/>
        <path id="Arial-BoldMT-35" d="M 284 1178 
L 1159 1269 
Q 1197 972 1381 798 
Q 1566 625 1806 625 
Q 2081 625 2272 848 
Q 2463 1072 2463 1522 
Q 2463 1944 2273 2155 
Q 2084 2366 1781 2366 
Q 1403 2366 1103 2031 
L 391 2134 
L 841 4519 
L 3163 4519 
L 3163 3697 
L 1506 3697 
L 1369 2919 
Q 1663 3066 1969 3066 
Q 2553 3066 2959 2641 
Q 3366 2216 3366 1538 
Q 3366 972 3038 528 
Q 2591 -78 1797 -78 
Q 1163 -78 763 262 
Q 363 603 284 1178 
z
" transform="scale(0.015625)"/>
       </defs>
       <use xlink:href="#Arial-BoldMT-39"/>
       <use xlink:href="#Arial-BoldMT-2e" x="55.615234"/>
       <use xlink:href="#Arial-BoldMT-35" x="83.398438"/>
      </g>
     </g>
    </g>
    <g id="xtick_2">
     <g id="line2d_2">
      <g>
       <use xlink:href="#ma00d431bd2" x="164.318467" y="198.907885" style="stroke: #000000; stroke-width: 2"/>
      </g>
     </g>
     <g id="text_2">
      <!-- 8.6 -->
      <g transform="translate(151.808467 224.791947) scale(0.18 -0.18)">
       <defs>
        <path id="Arial-BoldMT-38" d="M 1025 2472 
Q 684 2616 529 2867 
Q 375 3119 375 3419 
Q 375 3931 733 4265 
Q 1091 4600 1750 4600 
Q 2403 4600 2764 4265 
Q 3125 3931 3125 3419 
Q 3125 3100 2959 2851 
Q 2794 2603 2494 2472 
Q 2875 2319 3073 2025 
Q 3272 1731 3272 1347 
Q 3272 713 2867 316 
Q 2463 -81 1791 -81 
Q 1166 -81 750 247 
Q 259 634 259 1309 
Q 259 1681 443 1992 
Q 628 2303 1025 2472 
z
M 1206 3356 
Q 1206 3094 1354 2947 
Q 1503 2800 1750 2800 
Q 2000 2800 2150 2948 
Q 2300 3097 2300 3359 
Q 2300 3606 2151 3754 
Q 2003 3903 1759 3903 
Q 1506 3903 1356 3753 
Q 1206 3603 1206 3356 
z
M 1125 1394 
Q 1125 1031 1311 828 
Q 1497 625 1775 625 
Q 2047 625 2225 820 
Q 2403 1016 2403 1384 
Q 2403 1706 2222 1901 
Q 2041 2097 1763 2097 
Q 1441 2097 1283 1875 
Q 1125 1653 1125 1394 
z
" transform="scale(0.015625)"/>
        <path id="Arial-BoldMT-36" d="M 3247 3459 
L 2397 3366 
Q 2366 3628 2234 3753 
Q 2103 3878 1894 3878 
Q 1616 3878 1423 3628 
Q 1231 3378 1181 2588 
Q 1509 2975 1997 2975 
Q 2547 2975 2939 2556 
Q 3331 2138 3331 1475 
Q 3331 772 2918 347 
Q 2506 -78 1859 -78 
Q 1166 -78 719 461 
Q 272 1000 272 2228 
Q 272 3488 737 4044 
Q 1203 4600 1947 4600 
Q 2469 4600 2811 4308 
Q 3153 4016 3247 3459 
z
M 1256 1544 
Q 1256 1116 1453 883 
Q 1650 650 1903 650 
Q 2147 650 2309 840 
Q 2472 1031 2472 1466 
Q 2472 1913 2297 2120 
Q 2122 2328 1859 2328 
Q 1606 2328 1431 2129 
Q 1256 1931 1256 1544 
z
" transform="scale(0.015625)"/>
       </defs>
       <use xlink:href="#Arial-BoldMT-38"/>
       <use xlink:href="#Arial-BoldMT-2e" x="55.615234"/>
       <use xlink:href="#Arial-BoldMT-36" x="83.398438"/>
      </g>
     </g>
    </g>
    <g id="xtick_3">
     <g id="line2d_3">
      <g>
       <use xlink:href="#ma00d431bd2" x="271.909443" y="198.907885" style="stroke: #000000; stroke-width: 2"/>
      </g>
     </g>
     <g id="text_3">
      <!-- 7.7 -->
      <g transform="translate(259.399443 224.791947) scale(0.18 -0.18)">
       <defs>
        <path id="Arial-BoldMT-37" d="M 272 3703 
L 272 4519 
L 3275 4519 
L 3275 3881 
Q 2903 3516 2518 2831 
Q 2134 2147 1932 1376 
Q 1731 606 1734 0 
L 888 0 
Q 909 950 1279 1937 
Q 1650 2925 2269 3703 
L 272 3703 
z
" transform="scale(0.015625)"/>
       </defs>
       <use xlink:href="#Arial-BoldMT-37"/>
       <use xlink:href="#Arial-BoldMT-2e" x="55.615234"/>
       <use xlink:href="#Arial-BoldMT-37" x="83.398438"/>
      </g>
     </g>
    </g>
    <g id="xtick_4">
     <g id="line2d_4">
      <g>
       <use xlink:href="#ma00d431bd2" x="379.500419" y="198.907885" style="stroke: #000000; stroke-width: 2"/>
      </g>
     </g>
     <g id="text_4">
      <!-- 6.8 -->
      <g transform="translate(366.990419 224.791947) scale(0.18 -0.18)">
       <use xlink:href="#Arial-BoldMT-36"/>
       <use xlink:href="#Arial-BoldMT-2e" x="55.615234"/>
       <use xlink:href="#Arial-BoldMT-38" x="83.398438"/>
      </g>
     </g>
    </g>
    <g id="xtick_5">
     <g id="line2d_5">
      <g>
       <use xlink:href="#ma00d431bd2" x="487.091395" y="198.907885" style="stroke: #000000; stroke-width: 2"/>
      </g>
     </g>
     <g id="text_5">
      <!-- 5.9 -->
      <g transform="translate(474.581395 224.791947) scale(0.18 -0.18)">
       <use xlink:href="#Arial-BoldMT-35"/>
       <use xlink:href="#Arial-BoldMT-2e" x="55.615234"/>
       <use xlink:href="#Arial-BoldMT-39" x="83.398438"/>
      </g>
     </g>
    </g>
    <g id="xtick_6">
     <g id="line2d_6">
      <g>
       <use xlink:href="#ma00d431bd2" x="594.682371" y="198.907885" style="stroke: #000000; stroke-width: 2"/>
      </g>
     </g>
     <g id="text_6">
      <!-- 5.0 -->
      <g transform="translate(582.172371 224.791947) scale(0.18 -0.18)">
       <defs>
        <path id="Arial-BoldMT-30" d="M 1756 4600 
Q 2422 4600 2797 4125 
Q 3244 3563 3244 2259 
Q 3244 959 2794 391 
Q 2422 -78 1756 -78 
Q 1088 -78 678 436 
Q 269 950 269 2269 
Q 269 3563 719 4131 
Q 1091 4600 1756 4600 
z
M 1756 3872 
Q 1597 3872 1472 3770 
Q 1347 3669 1278 3406 
Q 1188 3066 1188 2259 
Q 1188 1453 1269 1151 
Q 1350 850 1473 750 
Q 1597 650 1756 650 
Q 1916 650 2041 751 
Q 2166 853 2234 1116 
Q 2325 1453 2325 2259 
Q 2325 3066 2244 3367 
Q 2163 3669 2039 3770 
Q 1916 3872 1756 3872 
z
" transform="scale(0.015625)"/>
       </defs>
       <use xlink:href="#Arial-BoldMT-35"/>
       <use xlink:href="#Arial-BoldMT-2e" x="55.615234"/>
       <use xlink:href="#Arial-BoldMT-30" x="83.398438"/>
      </g>
     </g>
    </g>
    <g id="xtick_7">
     <g id="line2d_7">
      <g>
       <use xlink:href="#ma00d431bd2" x="702.273347" y="198.907885" style="stroke: #000000; stroke-width: 2"/>
      </g>
     </g>
     <g id="text_7">
      <!-- 4.1 -->
      <g transform="translate(689.763347 224.791947) scale(0.18 -0.18)">
       <defs>
        <path id="Arial-BoldMT-34" d="M 1994 0 
L 1994 922 
L 119 922 
L 119 1691 
L 2106 4600 
L 2844 4600 
L 2844 1694 
L 3413 1694 
L 3413 922 
L 2844 922 
L 2844 0 
L 1994 0 
z
M 1994 1694 
L 1994 3259 
L 941 1694 
L 1994 1694 
z
" transform="scale(0.015625)"/>
        <path id="Arial-BoldMT-31" d="M 2519 0 
L 1641 0 
L 1641 3309 
Q 1159 2859 506 2644 
L 506 3441 
Q 850 3553 1253 3867 
Q 1656 4181 1806 4600 
L 2519 4600 
L 2519 0 
z
" transform="scale(0.015625)"/>
       </defs>
       <use xlink:href="#Arial-BoldMT-34"/>
       <use xlink:href="#Arial-BoldMT-2e" x="55.615234"/>
       <use xlink:href="#Arial-BoldMT-31" x="83.398438"/>
      </g>
     </g>
    </g>
    <g id="xtick_8">
     <g id="line2d_8">
      <g>
       <use xlink:href="#ma00d431bd2" x="809.864323" y="198.907885" style="stroke: #000000; stroke-width: 2"/>
      </g>
     </g>
     <g id="text_8">
      <!-- 3.2 -->
      <g transform="translate(797.354323 224.791947) scale(0.18 -0.18)">
       <defs>
        <path id="Arial-BoldMT-33" d="M 241 1216 
L 1091 1319 
Q 1131 994 1309 822 
Q 1488 650 1741 650 
Q 2013 650 2198 856 
Q 2384 1063 2384 1413 
Q 2384 1744 2206 1937 
Q 2028 2131 1772 2131 
Q 1603 2131 1369 2066 
L 1466 2781 
Q 1822 2772 2009 2936 
Q 2197 3100 2197 3372 
Q 2197 3603 2059 3740 
Q 1922 3878 1694 3878 
Q 1469 3878 1309 3722 
Q 1150 3566 1116 3266 
L 306 3403 
Q 391 3819 561 4067 
Q 731 4316 1036 4458 
Q 1341 4600 1719 4600 
Q 2366 4600 2756 4188 
Q 3078 3850 3078 3425 
Q 3078 2822 2419 2463 
Q 2813 2378 3048 2084 
Q 3284 1791 3284 1375 
Q 3284 772 2843 347 
Q 2403 -78 1747 -78 
Q 1125 -78 715 280 
Q 306 638 241 1216 
z
" transform="scale(0.015625)"/>
        <path id="Arial-BoldMT-32" d="M 3238 816 
L 3238 0 
L 159 0 
Q 209 463 459 877 
Q 709 1291 1447 1975 
Q 2041 2528 2175 2725 
Q 2356 2997 2356 3263 
Q 2356 3556 2198 3714 
Q 2041 3872 1763 3872 
Q 1488 3872 1325 3706 
Q 1163 3541 1138 3156 
L 263 3244 
Q 341 3969 753 4284 
Q 1166 4600 1784 4600 
Q 2463 4600 2850 4234 
Q 3238 3869 3238 3325 
Q 3238 3016 3127 2736 
Q 3016 2456 2775 2150 
Q 2616 1947 2200 1565 
Q 1784 1184 1673 1059 
Q 1563 934 1494 816 
L 3238 816 
z
" transform="scale(0.015625)"/>
       </defs>
       <use xlink:href="#Arial-BoldMT-33"/>
       <use xlink:href="#Arial-BoldMT-2e" x="55.615234"/>
       <use xlink:href="#Arial-BoldMT-32" x="83.398438"/>
      </g>
     </g>
    </g>
    <g id="xtick_9">
     <g id="line2d_9">
      <g>
       <use xlink:href="#ma00d431bd2" x="917.455299" y="198.907885" style="stroke: #000000; stroke-width: 2"/>
      </g>
     </g>
     <g id="text_9">
      <!-- 2.3 -->
      <g transform="translate(904.945299 224.791947) scale(0.18 -0.18)">
       <use xlink:href="#Arial-BoldMT-32"/>
       <use xlink:href="#Arial-BoldMT-2e" x="55.615234"/>
       <use xlink:href="#Arial-BoldMT-33" x="83.398438"/>
      </g>
     </g>
    </g>
    <g id="xtick_10">
     <g id="line2d_10">
      <g>
       <use xlink:href="#ma00d431bd2" x="1025.046275" y="198.907885" style="stroke: #000000; stroke-width: 2"/>
      </g>
     </g>
     <g id="text_10">
      <!-- 1.4 -->
      <g transform="translate(1012.536275 224.791947) scale(0.18 -0.18)">
       <use xlink:href="#Arial-BoldMT-31"/>
       <use xlink:href="#Arial-BoldMT-2e" x="55.615234"/>
       <use xlink:href="#Arial-BoldMT-34" x="83.398438"/>
      </g>
     </g>
    </g>
    <g id="text_11">
     <!-- Chemical shift / ppm -->
     <g transform="translate(505.99125 245.447573) scale(0.18 -0.18)">
      <defs>
       <path id="Arial-BoldMT-43" d="M 3397 1684 
L 4294 1400 
Q 4088 650 3608 286 
Q 3128 -78 2391 -78 
Q 1478 -78 890 545 
Q 303 1169 303 2250 
Q 303 3394 893 4026 
Q 1484 4659 2447 4659 
Q 3288 4659 3813 4163 
Q 4125 3869 4281 3319 
L 3366 3100 
Q 3284 3456 3026 3662 
Q 2769 3869 2400 3869 
Q 1891 3869 1573 3503 
Q 1256 3138 1256 2319 
Q 1256 1450 1568 1081 
Q 1881 713 2381 713 
Q 2750 713 3015 947 
Q 3281 1181 3397 1684 
z
" transform="scale(0.015625)"/>
       <path id="Arial-BoldMT-68" d="M 1334 4581 
L 1334 2897 
Q 1759 3394 2350 3394 
Q 2653 3394 2897 3281 
Q 3141 3169 3264 2994 
Q 3388 2819 3433 2606 
Q 3478 2394 3478 1947 
L 3478 0 
L 2600 0 
L 2600 1753 
Q 2600 2275 2550 2415 
Q 2500 2556 2373 2639 
Q 2247 2722 2056 2722 
Q 1838 2722 1666 2615 
Q 1494 2509 1414 2295 
Q 1334 2081 1334 1663 
L 1334 0 
L 456 0 
L 456 4581 
L 1334 4581 
z
" transform="scale(0.015625)"/>
       <path id="Arial-BoldMT-65" d="M 2381 1056 
L 3256 909 
Q 3088 428 2723 176 
Q 2359 -75 1813 -75 
Q 947 -75 531 491 
Q 203 944 203 1634 
Q 203 2459 634 2926 
Q 1066 3394 1725 3394 
Q 2466 3394 2894 2905 
Q 3322 2416 3303 1406 
L 1103 1406 
Q 1113 1016 1316 798 
Q 1519 581 1822 581 
Q 2028 581 2168 693 
Q 2309 806 2381 1056 
z
M 2431 1944 
Q 2422 2325 2234 2523 
Q 2047 2722 1778 2722 
Q 1491 2722 1303 2513 
Q 1116 2303 1119 1944 
L 2431 1944 
z
" transform="scale(0.015625)"/>
       <path id="Arial-BoldMT-6d" d="M 394 3319 
L 1203 3319 
L 1203 2866 
Q 1638 3394 2238 3394 
Q 2556 3394 2790 3262 
Q 3025 3131 3175 2866 
Q 3394 3131 3647 3262 
Q 3900 3394 4188 3394 
Q 4553 3394 4806 3245 
Q 5059 3097 5184 2809 
Q 5275 2597 5275 2122 
L 5275 0 
L 4397 0 
L 4397 1897 
Q 4397 2391 4306 2534 
Q 4184 2722 3931 2722 
Q 3747 2722 3584 2609 
Q 3422 2497 3350 2280 
Q 3278 2063 3278 1594 
L 3278 0 
L 2400 0 
L 2400 1819 
Q 2400 2303 2353 2443 
Q 2306 2584 2207 2653 
Q 2109 2722 1941 2722 
Q 1738 2722 1575 2612 
Q 1413 2503 1342 2297 
Q 1272 2091 1272 1613 
L 1272 0 
L 394 0 
L 394 3319 
z
" transform="scale(0.015625)"/>
       <path id="Arial-BoldMT-69" d="M 459 3769 
L 459 4581 
L 1338 4581 
L 1338 3769 
L 459 3769 
z
M 459 0 
L 459 3319 
L 1338 3319 
L 1338 0 
L 459 0 
z
" transform="scale(0.015625)"/>
       <path id="Arial-BoldMT-63" d="M 3353 2338 
L 2488 2181 
Q 2444 2441 2289 2572 
Q 2134 2703 1888 2703 
Q 1559 2703 1364 2476 
Q 1169 2250 1169 1719 
Q 1169 1128 1367 884 
Q 1566 641 1900 641 
Q 2150 641 2309 783 
Q 2469 925 2534 1272 
L 3397 1125 
Q 3263 531 2881 228 
Q 2500 -75 1859 -75 
Q 1131 -75 698 384 
Q 266 844 266 1656 
Q 266 2478 700 2936 
Q 1134 3394 1875 3394 
Q 2481 3394 2839 3133 
Q 3197 2872 3353 2338 
z
" transform="scale(0.015625)"/>
       <path id="Arial-BoldMT-61" d="M 1116 2306 
L 319 2450 
Q 453 2931 781 3162 
Q 1109 3394 1756 3394 
Q 2344 3394 2631 3255 
Q 2919 3116 3036 2902 
Q 3153 2688 3153 2116 
L 3144 1091 
Q 3144 653 3186 445 
Q 3228 238 3344 0 
L 2475 0 
Q 2441 88 2391 259 
Q 2369 338 2359 363 
Q 2134 144 1878 34 
Q 1622 -75 1331 -75 
Q 819 -75 523 203 
Q 228 481 228 906 
Q 228 1188 362 1408 
Q 497 1628 739 1745 
Q 981 1863 1438 1950 
Q 2053 2066 2291 2166 
L 2291 2253 
Q 2291 2506 2166 2614 
Q 2041 2722 1694 2722 
Q 1459 2722 1328 2630 
Q 1197 2538 1116 2306 
z
M 2291 1594 
Q 2122 1538 1756 1459 
Q 1391 1381 1278 1306 
Q 1106 1184 1106 997 
Q 1106 813 1243 678 
Q 1381 544 1594 544 
Q 1831 544 2047 700 
Q 2206 819 2256 991 
Q 2291 1103 2291 1419 
L 2291 1594 
z
" transform="scale(0.015625)"/>
       <path id="Arial-BoldMT-6c" d="M 459 0 
L 459 4581 
L 1338 4581 
L 1338 0 
L 459 0 
z
" transform="scale(0.015625)"/>
       <path id="Arial-BoldMT-20" transform="scale(0.015625)"/>
       <path id="Arial-BoldMT-73" d="M 150 947 
L 1031 1081 
Q 1088 825 1259 692 
Q 1431 559 1741 559 
Q 2081 559 2253 684 
Q 2369 772 2369 919 
Q 2369 1019 2306 1084 
Q 2241 1147 2013 1200 
Q 950 1434 666 1628 
Q 272 1897 272 2375 
Q 272 2806 612 3100 
Q 953 3394 1669 3394 
Q 2350 3394 2681 3172 
Q 3013 2950 3138 2516 
L 2309 2363 
Q 2256 2556 2107 2659 
Q 1959 2763 1684 2763 
Q 1338 2763 1188 2666 
Q 1088 2597 1088 2488 
Q 1088 2394 1175 2328 
Q 1294 2241 1995 2081 
Q 2697 1922 2975 1691 
Q 3250 1456 3250 1038 
Q 3250 581 2869 253 
Q 2488 -75 1741 -75 
Q 1063 -75 667 200 
Q 272 475 150 947 
z
" transform="scale(0.015625)"/>
       <path id="Arial-BoldMT-66" d="M 75 3319 
L 563 3319 
L 563 3569 
Q 563 3988 652 4194 
Q 741 4400 980 4529 
Q 1219 4659 1584 4659 
Q 1959 4659 2319 4547 
L 2200 3934 
Q 1991 3984 1797 3984 
Q 1606 3984 1523 3895 
Q 1441 3806 1441 3553 
L 1441 3319 
L 2097 3319 
L 2097 2628 
L 1441 2628 
L 1441 0 
L 563 0 
L 563 2628 
L 75 2628 
L 75 3319 
z
" transform="scale(0.015625)"/>
       <path id="Arial-BoldMT-74" d="M 1981 3319 
L 1981 2619 
L 1381 2619 
L 1381 1281 
Q 1381 875 1398 808 
Q 1416 741 1477 697 
Q 1538 653 1625 653 
Q 1747 653 1978 738 
L 2053 56 
Q 1747 -75 1359 -75 
Q 1122 -75 931 4 
Q 741 84 652 211 
Q 563 338 528 553 
Q 500 706 500 1172 
L 500 2619 
L 97 2619 
L 97 3319 
L 500 3319 
L 500 3978 
L 1381 4491 
L 1381 3319 
L 1981 3319 
z
" transform="scale(0.015625)"/>
       <path id="Arial-BoldMT-2f" d="M -9 -78 
L 1125 4659 
L 1784 4659 
L 638 -78 
L -9 -78 
z
" transform="scale(0.015625)"/>
       <path id="Arial-BoldMT-70" d="M 434 3319 
L 1253 3319 
L 1253 2831 
Q 1413 3081 1684 3237 
Q 1956 3394 2288 3394 
Q 2866 3394 3269 2941 
Q 3672 2488 3672 1678 
Q 3672 847 3265 386 
Q 2859 -75 2281 -75 
Q 2006 -75 1782 34 
Q 1559 144 1313 409 
L 1313 -1263 
L 434 -1263 
L 434 3319 
z
M 1303 1716 
Q 1303 1156 1525 889 
Q 1747 622 2066 622 
Q 2372 622 2575 867 
Q 2778 1113 2778 1672 
Q 2778 2194 2568 2447 
Q 2359 2700 2050 2700 
Q 1728 2700 1515 2451 
Q 1303 2203 1303 1716 
z
" transform="scale(0.015625)"/>
      </defs>
      <use xlink:href="#Arial-BoldMT-43"/>
      <use xlink:href="#Arial-BoldMT-68" x="72.216797"/>
      <use xlink:href="#Arial-BoldMT-65" x="133.300781"/>
      <use xlink:href="#Arial-BoldMT-6d" x="188.916016"/>
      <use xlink:href="#Arial-BoldMT-69" x="277.832031"/>
      <use xlink:href="#Arial-BoldMT-63" x="305.615234"/>
      <use xlink:href="#Arial-BoldMT-61" x="361.230469"/>
      <use xlink:href="#Arial-BoldMT-6c" x="416.845703"/>
      <use xlink:href="#Arial-BoldMT-20" x="444.628906"/>
      <use xlink:href="#Arial-BoldMT-73" x="472.412109"/>
      <use xlink:href="#Arial-BoldMT-68" x="528.027344"/>
      <use xlink:href="#Arial-BoldMT-69" x="589.111328"/>
      <use xlink:href="#Arial-BoldMT-66" x="616.894531"/>
      <use xlink:href="#Arial-BoldMT-74" x="650.195312"/>
      <use xlink:href="#Arial-BoldMT-20" x="683.496094"/>
      <use xlink:href="#Arial-BoldMT-2f" x="711.279297"/>
      <use xlink:href="#Arial-BoldMT-20" x="739.0625"/>
      <use xlink:href="#Arial-BoldMT-70" x="766.845703"/>
      <use xlink:href="#Arial-BoldMT-70" x="827.929688"/>
      <use xlink:href="#Arial-BoldMT-6d" x="889.013672"/>
     </g>
    </g>
   </g>
   <g id="matplotlib.axis_2"/>
   <g id="line2d_11">
    <path d="M 56.727491 190.798447 
L 262.767234 190.798447 
L 262.994651 177.479556 
L 264.359153 169.991253 
L 265.496237 164.046661 
L 266.178488 161.566703 
L 266.633322 160.581032 
L 266.860739 160.340203 
L 267.088156 160.289007 
L 267.315573 160.410624 
L 267.770407 161.104378 
L 268.225241 162.460639 
L 268.907491 165.54633 
L 270.044576 172.244701 
L 270.954244 177.585671 
L 271.181661 190.798447 
L 280.505755 190.798447 
L 280.733172 177.265075 
L 281.188006 174.181248 
L 281.870257 167.558185 
L 282.552507 158.101723 
L 284.371843 130.118637 
L 284.826677 126.844264 
L 285.054094 126.10275 
L 285.281511 125.922939 
L 285.508928 126.272691 
L 285.736345 127.109424 
L 286.191178 130.04027 
L 286.646012 134.407205 
L 287.328263 143.352355 
L 289.375015 173.679043 
L 289.602432 175.971046 
L 289.829849 190.798447 
L 534.757888 190.798447 
L 534.985305 177.516601 
L 536.804641 174.496944 
L 538.623976 170.854595 
L 540.215895 167.02403 
L 542.262647 161.208799 
L 544.081983 155.590799 
L 547.948071 142.803161 
L 549.085155 138.477849 
L 549.539989 137.533158 
L 549.767406 137.352587 
L 549.994823 137.372529 
L 550.22224 137.574419 
L 550.677074 138.379003 
L 552.951243 143.450145 
L 553.17866 143.359176 
L 553.406077 142.830446 
L 554.088328 140.489507 
L 554.315745 141.281083 
L 554.543162 143.735125 
L 555.45283 157.698944 
L 555.907663 160.623053 
L 556.13508 161.118853 
L 556.362497 161.154363 
L 556.589914 160.87666 
L 558.181833 157.744948 
L 558.636667 157.580006 
L 559.0915 157.903681 
L 559.546334 158.598204 
L 560.228585 160.112179 
L 561.138253 162.780827 
L 562.730171 167.498067 
L 564.32209 171.475405 
L 566.596259 176.271026 
L 567.27851 177.484605 
L 567.505927 190.798447 
L 781.505263 190.798447 
L 781.73268 177.70325 
L 782.414931 172.961099 
L 782.869765 168.375929 
L 783.324598 162.047277 
L 784.006849 148.18574 
L 784.6891 131.953308 
L 784.916517 128.48341 
L 785.143934 127.138746 
L 785.371351 128.016514 
L 785.826185 134.087701 
L 786.281019 140.678137 
L 786.735852 144.07376 
L 786.963269 144.216183 
L 787.190686 143.292862 
L 787.64552 138.439688 
L 788.327771 127.822608 
L 788.555188 126.011227 
L 788.782605 126.369916 
L 789.010022 129.088165 
L 789.464856 139.420292 
L 790.374523 160.812251 
L 791.056774 170.759612 
L 791.739025 176.791043 
L 791.966442 190.798447 
L 918.865092 190.798447 
L 919.092509 177.456787 
L 919.774759 172.691935 
L 920.002176 171.907837 
L 920.229593 171.686523 
L 920.45701 171.894049 
L 921.139261 172.981107 
L 921.366678 172.968469 
L 921.594095 172.624367 
L 921.821512 171.899732 
L 922.276346 169.158678 
L 923.41343 158.757841 
L 923.640847 158.703128 
L 923.868264 159.877707 
L 925.232766 171.583716 
L 925.6876 173.016412 
L 925.915017 173.21073 
L 926.142434 173.117311 
L 926.824684 172.236586 
L 927.052101 172.36395 
L 927.279518 172.986278 
L 927.734352 175.5471 
L 927.961769 177.139384 
L 928.189186 190.798447 
L 1008.922198 190.798447 
L 1009.149615 176.647999 
L 1009.604449 173.997515 
L 1009.831866 173.28614 
L 1010.059283 173.265507 
L 1010.2867 173.93078 
L 1010.96895 177.8157 
L 1011.196367 190.798447 
L 1028.707471 190.798447 
L 1028.934888 177.808887 
L 1030.071973 176.422252 
L 1032.346142 173.288786 
L 1033.710644 171.549111 
L 1035.529979 169.668411 
L 1036.667064 168.827465 
L 1037.349315 168.603755 
L 1040.305735 168.447539 
L 1040.760569 168.79751 
L 1041.215403 169.556625 
L 1043.716989 174.759839 
L 1045.081491 176.75245 
L 1045.763742 177.60944 
L 1045.991158 190.798447 
L 1131.272509 190.798447 
L 1131.272509 190.798447 
" clip-path="url(#p4f57ed7c41)" style="fill: none; stroke: #000000; stroke-width: 2; stroke-linecap: square"/>
   </g>
   <g id="line2d_12">
    <path d="M 56.727491 93.485186 
L 242.527127 93.485186 
L 242.754544 79.76778 
L 243.436795 74.859224 
L 244.119045 67.717029 
L 245.028713 54.684553 
L 246.165798 37.94184 
L 246.848049 31.402481 
L 247.302882 29.145662 
L 247.530299 28.657579 
L 247.757716 28.609678 
L 247.985133 29.011264 
L 248.21255 29.866974 
L 248.667384 32.956608 
L 249.122218 37.905201 
L 249.804469 48.166827 
L 251.396387 73.39366 
L 252.078638 80.194473 
L 252.306055 93.485186 
L 291.649185 93.485186 
L 291.876602 80.43922 
L 292.558853 78.175842 
L 293.241103 75.178019 
L 294.150771 70.035435 
L 297.107191 51.509483 
L 297.562025 49.993084 
L 298.016859 49.320358 
L 298.244276 49.320759 
L 298.471693 49.528872 
L 298.926527 50.595713 
L 299.381361 52.483916 
L 300.063611 56.325483 
L 301.200696 64.663736 
L 302.792615 76.060887 
L 303.474865 79.958678 
L 303.702282 93.485186 
L 538.851393 93.485186 
L 539.07881 80.240777 
L 540.443312 77.902238 
L 544.081983 70.829917 
L 548.402905 61.868535 
L 548.857738 61.323788 
L 549.312572 61.138447 
L 549.767406 61.282874 
L 550.22224 61.696572 
L 550.677074 62.38154 
L 551.131908 63.43673 
L 551.814159 65.806741 
L 553.633494 73.550043 
L 554.088328 76.827023 
L 554.315745 78.934976 
L 554.543162 93.485186 
L 555.907663 93.485186 
L 556.13508 80.335275 
L 557.726999 77.210975 
L 558.864084 75.446259 
L 559.318917 75.091636 
L 559.773751 74.999004 
L 560.456002 75.07061 
L 560.910836 75.26347 
L 561.36567 75.681577 
L 562.957588 77.857495 
L 564.549507 80.324783 
L 564.776924 93.485186 
L 700.999668 93.485186 
L 701.227085 80.399258 
L 701.681919 76.908594 
L 702.36417 69.148171 
L 703.04642 59.981157 
L 703.273837 58.146531 
L 703.501254 57.639417 
L 703.728671 58.471191 
L 704.865756 67.276643 
L 705.093173 67.80387 
L 705.32059 67.729572 
L 705.548007 67.061164 
L 706.002841 64.031862 
L 706.912508 55.457073 
L 707.139925 55.048117 
L 707.367342 56.070752 
L 707.822176 61.189535 
L 708.504427 69.129198 
L 708.959261 72.045793 
L 709.186678 72.77453 
L 709.414095 73.063266 
L 709.641511 72.931626 
L 709.868928 72.382739 
L 710.323762 69.987876 
L 710.778596 65.857935 
L 711.460847 58.801692 
L 711.688264 57.73706 
L 711.915681 57.948401 
L 712.143098 59.352362 
L 713.052766 67.681071 
L 713.507599 69.40404 
L 713.735016 69.43103 
L 713.962433 68.916377 
L 714.417267 66.369389 
L 715.099518 60.845445 
L 715.326935 59.942368 
L 715.554352 60.256623 
L 715.781769 61.910655 
L 716.46402 71.180068 
L 717.14627 79.139649 
L 717.373687 93.485186 
L 916.818339 93.485186 
L 917.045756 79.590332 
L 917.50059 76.668707 
L 917.728007 75.859705 
L 917.955424 75.903267 
L 918.182841 76.804112 
L 918.637675 79.919617 
L 918.865092 93.485186 
L 985.725671 93.485186 
L 985.953088 79.469995 
L 986.407921 74.407273 
L 987.545006 58.590696 
L 987.772423 58.122413 
L 987.99984 59.459374 
L 988.454674 65.785905 
L 989.136925 75.827498 
L 989.591759 80.312266 
L 989.819175 93.485186 
L 1131.272509 93.485186 
L 1131.272509 93.485186 
" clip-path="url(#p4f57ed7c41)" style="fill: none; stroke: #d55e00; stroke-width: 2; stroke-linecap: square"/>
   </g>
   <g id="LineCollection_1">
    <path d="M 56.727491 190.798447 
L 56.727491 93.485186 
" clip-path="url(#p4f57ed7c41)" style="fill: none; stroke-dasharray: 1,1.65; stroke-dashoffset: 0; stroke: #808080"/>
    <path d="M 84.472357 190.798447 
L 56.727491 93.485186 
" clip-path="url(#p4f57ed7c41)" style="fill: none; stroke-dasharray: 1,1.65; stroke-dashoffset: 0; stroke: #808080"/>
    <path d="M 112.44464 190.798447 
L 82.653022 93.485186 
" clip-path="url(#p4f57ed7c41)" style="fill: none; stroke-dasharray: 1,1.65; stroke-dashoffset: 0; stroke: #808080"/>
    <path d="M 140.416923 190.798447 
L 110.625305 93.485186 
" clip-path="url(#p4f57ed7c41)" style="fill: none; stroke-dasharray: 1,1.65; stroke-dashoffset: 0; stroke: #808080"/>
    <path d="M 168.389206 190.798447 
L 138.597588 93.485186 
" clip-path="url(#p4f57ed7c41)" style="fill: none; stroke-dasharray: 1,1.65; stroke-dashoffset: 0; stroke: #808080"/>
    <path d="M 196.361489 190.798447 
L 166.569871 93.485186 
" clip-path="url(#p4f57ed7c41)" style="fill: none; stroke-dasharray: 1,1.65; stroke-dashoffset: 0; stroke: #808080"/>
    <path d="M 224.333772 190.798447 
L 194.542154 93.485186 
" clip-path="url(#p4f57ed7c41)" style="fill: none; stroke-dasharray: 1,1.65; stroke-dashoffset: 0; stroke: #808080"/>
    <path d="M 252.306055 190.798447 
L 222.514437 93.485186 
" clip-path="url(#p4f57ed7c41)" style="fill: none; stroke-dasharray: 1,1.65; stroke-dashoffset: 0; stroke: #808080"/>
    <path d="M 280.050921 190.798447 
L 242.072293 93.485186 
" clip-path="url(#p4f57ed7c41)" style="fill: none; stroke-dasharray: 1,1.65; stroke-dashoffset: 0; stroke: #808080"/>
    <path d="M 307.340953 190.798447 
L 252.306055 93.485186 
" clip-path="url(#p4f57ed7c41)" style="fill: none; stroke-dasharray: 1,1.65; stroke-dashoffset: 0; stroke: #808080"/>
    <path d="M 335.313236 190.798447 
L 252.306055 93.485186 
" clip-path="url(#p4f57ed7c41)" style="fill: none; stroke-dasharray: 1,1.65; stroke-dashoffset: 0; stroke: #808080"/>
    <path d="M 363.285519 190.798447 
L 252.306055 93.485186 
" clip-path="url(#p4f57ed7c41)" style="fill: none; stroke-dasharray: 1,1.65; stroke-dashoffset: 0; stroke: #808080"/>
    <path d="M 391.257802 190.798447 
L 252.306055 93.485186 
" clip-path="url(#p4f57ed7c41)" style="fill: none; stroke-dasharray: 1,1.65; stroke-dashoffset: 0; stroke: #808080"/>
    <path d="M 419.230085 190.798447 
L 252.306055 93.485186 
" clip-path="url(#p4f57ed7c41)" style="fill: none; stroke-dasharray: 1,1.65; stroke-dashoffset: 0; stroke: #808080"/>
    <path d="M 447.202368 190.798447 
L 252.306055 93.485186 
" clip-path="url(#p4f57ed7c41)" style="fill: none; stroke-dasharray: 1,1.65; stroke-dashoffset: 0; stroke: #808080"/>
    <path d="M 474.947234 190.798447 
L 252.306055 93.485186 
" clip-path="url(#p4f57ed7c41)" style="fill: none; stroke-dasharray: 1,1.65; stroke-dashoffset: 0; stroke: #808080"/>
    <path d="M 502.919518 190.798447 
L 259.810814 93.485186 
" clip-path="url(#p4f57ed7c41)" style="fill: none; stroke-dasharray: 1,1.65; stroke-dashoffset: 0; stroke: #808080"/>
    <path d="M 530.891801 190.798447 
L 287.783097 93.485186 
" clip-path="url(#p4f57ed7c41)" style="fill: none; stroke-dasharray: 1,1.65; stroke-dashoffset: 0; stroke: #808080"/>
    <path d="M 556.589914 160.87666 
L 300.745862 61.209015 
" clip-path="url(#p4f57ed7c41)" style="fill: none; stroke-dasharray: 1,1.65; stroke-dashoffset: 0; stroke: #808080"/>
    <path d="M 567.505927 190.798447 
L 320.758553 93.485186 
" clip-path="url(#p4f57ed7c41)" style="fill: none; stroke-dasharray: 1,1.65; stroke-dashoffset: 0; stroke: #808080"/>
    <path d="M 591.384705 190.798447 
L 348.730836 93.485186 
" clip-path="url(#p4f57ed7c41)" style="fill: none; stroke-dasharray: 1,1.65; stroke-dashoffset: 0; stroke: #808080"/>
    <path d="M 619.356988 190.798447 
L 376.703119 93.485186 
" clip-path="url(#p4f57ed7c41)" style="fill: none; stroke-dasharray: 1,1.65; stroke-dashoffset: 0; stroke: #808080"/>
    <path d="M 647.101854 190.798447 
L 404.447985 93.485186 
" clip-path="url(#p4f57ed7c41)" style="fill: none; stroke-dasharray: 1,1.65; stroke-dashoffset: 0; stroke: #808080"/>
    <path d="M 675.074137 190.798447 
L 432.420268 93.485186 
" clip-path="url(#p4f57ed7c41)" style="fill: none; stroke-dasharray: 1,1.65; stroke-dashoffset: 0; stroke: #808080"/>
    <path d="M 703.04642 190.798447 
L 460.392551 93.485186 
" clip-path="url(#p4f57ed7c41)" style="fill: none; stroke-dasharray: 1,1.65; stroke-dashoffset: 0; stroke: #808080"/>
    <path d="M 731.018703 190.798447 
L 488.364834 93.485186 
" clip-path="url(#p4f57ed7c41)" style="fill: none; stroke-dasharray: 1,1.65; stroke-dashoffset: 0; stroke: #808080"/>
    <path d="M 758.990986 190.798447 
L 516.337117 93.485186 
" clip-path="url(#p4f57ed7c41)" style="fill: none; stroke-dasharray: 1,1.65; stroke-dashoffset: 0; stroke: #808080"/>
    <path d="M 782.869765 168.375929 
L 544.3094 70.347123 
" clip-path="url(#p4f57ed7c41)" style="fill: none; stroke-dasharray: 1,1.65; stroke-dashoffset: 0; stroke: #808080"/>
    <path d="M 791.966442 190.798447 
L 565.686592 93.485186 
" clip-path="url(#p4f57ed7c41)" style="fill: none; stroke-dasharray: 1,1.65; stroke-dashoffset: 0; stroke: #808080"/>
    <path d="M 811.296881 190.798447 
L 593.431458 93.485186 
" clip-path="url(#p4f57ed7c41)" style="fill: none; stroke-dasharray: 1,1.65; stroke-dashoffset: 0; stroke: #808080"/>
    <path d="M 839.269164 190.798447 
L 621.403741 93.485186 
" clip-path="url(#p4f57ed7c41)" style="fill: none; stroke-dasharray: 1,1.65; stroke-dashoffset: 0; stroke: #808080"/>
    <path d="M 867.241447 190.798447 
L 649.376024 93.485186 
" clip-path="url(#p4f57ed7c41)" style="fill: none; stroke-dasharray: 1,1.65; stroke-dashoffset: 0; stroke: #808080"/>
    <path d="M 895.21373 190.798447 
L 677.348307 93.485186 
" clip-path="url(#p4f57ed7c41)" style="fill: none; stroke-dasharray: 1,1.65; stroke-dashoffset: 0; stroke: #808080"/>
    <path d="M 923.186014 160.066555 
L 702.819003 62.757227 
" clip-path="url(#p4f57ed7c41)" style="fill: none; stroke-dasharray: 1,1.65; stroke-dashoffset: 0; stroke: #808080"/>
    <path d="M 928.189186 190.798447 
L 727.607449 93.485186 
" clip-path="url(#p4f57ed7c41)" style="fill: none; stroke-dasharray: 1,1.65; stroke-dashoffset: 0; stroke: #808080"/>
    <path d="M 928.189186 190.798447 
L 755.579732 93.485186 
" clip-path="url(#p4f57ed7c41)" style="fill: none; stroke-dasharray: 1,1.65; stroke-dashoffset: 0; stroke: #808080"/>
    <path d="M 928.189186 190.798447 
L 783.324598 93.485186 
" clip-path="url(#p4f57ed7c41)" style="fill: none; stroke-dasharray: 1,1.65; stroke-dashoffset: 0; stroke: #808080"/>
    <path d="M 928.189186 190.798447 
L 811.296881 93.485186 
" clip-path="url(#p4f57ed7c41)" style="fill: none; stroke-dasharray: 1,1.65; stroke-dashoffset: 0; stroke: #808080"/>
    <path d="M 931.373023 190.798447 
L 839.269164 93.485186 
" clip-path="url(#p4f57ed7c41)" style="fill: none; stroke-dasharray: 1,1.65; stroke-dashoffset: 0; stroke: #808080"/>
    <path d="M 959.345306 190.798447 
L 867.241447 93.485186 
" clip-path="url(#p4f57ed7c41)" style="fill: none; stroke-dasharray: 1,1.65; stroke-dashoffset: 0; stroke: #808080"/>
    <path d="M 987.317589 190.798447 
L 895.21373 93.485186 
" clip-path="url(#p4f57ed7c41)" style="fill: none; stroke-dasharray: 1,1.65; stroke-dashoffset: 0; stroke: #808080"/>
    <path d="M 1011.196367 190.798447 
L 922.958597 93.485186 
" clip-path="url(#p4f57ed7c41)" style="fill: none; stroke-dasharray: 1,1.65; stroke-dashoffset: 0; stroke: #808080"/>
    <path d="M 1011.196367 190.798447 
L 950.93088 93.485186 
" clip-path="url(#p4f57ed7c41)" style="fill: none; stroke-dasharray: 1,1.65; stroke-dashoffset: 0; stroke: #808080"/>
    <path d="M 1021.657546 190.798447 
L 978.675746 93.485186 
" clip-path="url(#p4f57ed7c41)" style="fill: none; stroke-dasharray: 1,1.65; stroke-dashoffset: 0; stroke: #808080"/>
    <path d="M 1045.991158 190.798447 
L 991.411094 93.485186 
" clip-path="url(#p4f57ed7c41)" style="fill: none; stroke-dasharray: 1,1.65; stroke-dashoffset: 0; stroke: #808080"/>
    <path d="M 1045.991158 190.798447 
L 1019.383377 93.485186 
" clip-path="url(#p4f57ed7c41)" style="fill: none; stroke-dasharray: 1,1.65; stroke-dashoffset: 0; stroke: #808080"/>
    <path d="M 1047.35566 190.798447 
L 1047.35566 93.485186 
" clip-path="url(#p4f57ed7c41)" style="fill: none; stroke-dasharray: 1,1.65; stroke-dashoffset: 0; stroke: #808080"/>
    <path d="M 1075.327943 190.798447 
L 1075.327943 93.485186 
" clip-path="url(#p4f57ed7c41)" style="fill: none; stroke-dasharray: 1,1.65; stroke-dashoffset: 0; stroke: #808080"/>
    <path d="M 1103.300226 190.798447 
L 1103.300226 93.485186 
" clip-path="url(#p4f57ed7c41)" style="fill: none; stroke-dasharray: 1,1.65; stroke-dashoffset: 0; stroke: #808080"/>
    <path d="M 1131.272509 190.798447 
L 1131.272509 93.485186 
" clip-path="url(#p4f57ed7c41)" style="fill: none; stroke-dasharray: 1,1.65; stroke-dashoffset: 0; stroke: #808080"/>
   </g>
   <g id="patch_3">
    <path d="M 3.00024 198.907885 
L 3.00024 20.50024 
" style="fill: none; stroke: #000000; stroke-width: 2; stroke-linejoin: miter; stroke-linecap: square"/>
   </g>
   <g id="patch_4">
    <path d="M 1184.99976 198.907885 
L 1184.99976 20.50024 
" style="fill: none; stroke: #000000; stroke-width: 2; stroke-linejoin: miter; stroke-linecap: square"/>
   </g>
   <g id="patch_5">
    <path d="M 3.00024 198.907885 
L 1184.99976 198.907885 
" style="fill: none; stroke: #000000; stroke-width: 2; stroke-linejoin: miter; stroke-linecap: square"/>
   </g>
   <g id="patch_6">
    <path d="M 3.00024 20.50024 
L 1184.99976 20.50024 
" style="fill: none; stroke: #000000; stroke-width: 2; stroke-linejoin: miter; stroke-linecap: square"/>
   </g>
   <g id="text_12">
    <!-- Distance between spectra: 36.6 -->
    <g transform="translate(475.29125 14.50024) scale(0.16 -0.16)">
     <defs>
      <path id="Arial-BoldMT-44" d="M 463 4581 
L 2153 4581 
Q 2725 4581 3025 4494 
Q 3428 4375 3715 4072 
Q 4003 3769 4153 3330 
Q 4303 2891 4303 2247 
Q 4303 1681 4163 1272 
Q 3991 772 3672 463 
Q 3431 228 3022 97 
Q 2716 0 2203 0 
L 463 0 
L 463 4581 
z
M 1388 3806 
L 1388 772 
L 2078 772 
Q 2466 772 2638 816 
Q 2863 872 3011 1006 
Q 3159 1141 3253 1448 
Q 3347 1756 3347 2288 
Q 3347 2819 3253 3103 
Q 3159 3388 2990 3547 
Q 2822 3706 2563 3763 
Q 2369 3806 1803 3806 
L 1388 3806 
z
" transform="scale(0.015625)"/>
      <path id="Arial-BoldMT-6e" d="M 3478 0 
L 2600 0 
L 2600 1694 
Q 2600 2231 2544 2389 
Q 2488 2547 2361 2634 
Q 2234 2722 2056 2722 
Q 1828 2722 1647 2597 
Q 1466 2472 1398 2265 
Q 1331 2059 1331 1503 
L 1331 0 
L 453 0 
L 453 3319 
L 1269 3319 
L 1269 2831 
Q 1703 3394 2363 3394 
Q 2653 3394 2893 3289 
Q 3134 3184 3257 3021 
Q 3381 2859 3429 2653 
Q 3478 2447 3478 2063 
L 3478 0 
z
" transform="scale(0.015625)"/>
      <path id="Arial-BoldMT-62" d="M 422 0 
L 422 4581 
L 1300 4581 
L 1300 2931 
Q 1706 3394 2263 3394 
Q 2869 3394 3266 2955 
Q 3663 2516 3663 1694 
Q 3663 844 3258 384 
Q 2853 -75 2275 -75 
Q 1991 -75 1714 67 
Q 1438 209 1238 488 
L 1238 0 
L 422 0 
z
M 1294 1731 
Q 1294 1216 1456 969 
Q 1684 619 2063 619 
Q 2353 619 2558 867 
Q 2763 1116 2763 1650 
Q 2763 2219 2556 2470 
Q 2350 2722 2028 2722 
Q 1713 2722 1503 2476 
Q 1294 2231 1294 1731 
z
" transform="scale(0.015625)"/>
      <path id="Arial-BoldMT-77" d="M 1078 0 
L 28 3319 
L 881 3319 
L 1503 1144 
L 2075 3319 
L 2922 3319 
L 3475 1144 
L 4109 3319 
L 4975 3319 
L 3909 0 
L 3066 0 
L 2494 2134 
L 1931 0 
L 1078 0 
z
" transform="scale(0.015625)"/>
      <path id="Arial-BoldMT-72" d="M 1300 0 
L 422 0 
L 422 3319 
L 1238 3319 
L 1238 2847 
Q 1447 3181 1614 3287 
Q 1781 3394 1994 3394 
Q 2294 3394 2572 3228 
L 2300 2463 
Q 2078 2606 1888 2606 
Q 1703 2606 1575 2504 
Q 1447 2403 1373 2137 
Q 1300 1872 1300 1025 
L 1300 0 
z
" transform="scale(0.015625)"/>
      <path id="Arial-BoldMT-3a" d="M 628 2441 
L 628 3319 
L 1506 3319 
L 1506 2441 
L 628 2441 
z
M 628 0 
L 628 878 
L 1506 878 
L 1506 0 
L 628 0 
z
" transform="scale(0.015625)"/>
     </defs>
     <use xlink:href="#Arial-BoldMT-44"/>
     <use xlink:href="#Arial-BoldMT-69" x="72.216797"/>
     <use xlink:href="#Arial-BoldMT-73" x="100"/>
     <use xlink:href="#Arial-BoldMT-74" x="155.615234"/>
     <use xlink:href="#Arial-BoldMT-61" x="188.916016"/>
     <use xlink:href="#Arial-BoldMT-6e" x="244.53125"/>
     <use xlink:href="#Arial-BoldMT-63" x="305.615234"/>
     <use xlink:href="#Arial-BoldMT-65" x="361.230469"/>
     <use xlink:href="#Arial-BoldMT-20" x="416.845703"/>
     <use xlink:href="#Arial-BoldMT-62" x="444.628906"/>
     <use xlink:href="#Arial-BoldMT-65" x="505.712891"/>
     <use xlink:href="#Arial-BoldMT-74" x="561.328125"/>
     <use xlink:href="#Arial-BoldMT-77" x="594.628906"/>
     <use xlink:href="#Arial-BoldMT-65" x="672.412109"/>
     <use xlink:href="#Arial-BoldMT-65" x="728.027344"/>
     <use xlink:href="#Arial-BoldMT-6e" x="783.642578"/>
     <use xlink:href="#Arial-BoldMT-20" x="844.726562"/>
     <use xlink:href="#Arial-BoldMT-73" x="872.509766"/>
     <use xlink:href="#Arial-BoldMT-70" x="928.125"/>
     <use xlink:href="#Arial-BoldMT-65" x="989.208984"/>
     <use xlink:href="#Arial-BoldMT-63" x="1044.824219"/>
     <use xlink:href="#Arial-BoldMT-74" x="1100.439453"/>
     <use xlink:href="#Arial-BoldMT-72" x="1133.740234"/>
     <use xlink:href="#Arial-BoldMT-61" x="1172.65625"/>
     <use xlink:href="#Arial-BoldMT-3a" x="1228.271484"/>
     <use xlink:href="#Arial-BoldMT-20" x="1261.572266"/>
     <use xlink:href="#Arial-BoldMT-33" x="1289.355469"/>
     <use xlink:href="#Arial-BoldMT-36" x="1344.970703"/>
     <use xlink:href="#Arial-BoldMT-2e" x="1400.585938"/>
     <use xlink:href="#Arial-BoldMT-36" x="1428.369141"/>
    </g>
   </g>
  </g>
  <g id="axes_2">
   <g id="matplotlib.axis_3"/>
   <g id="patch_7">
    <path d="M 3.00024 198.907885 
L 3.00024 20.50024 
" style="fill: none; stroke: #000000; stroke-width: 2; stroke-linejoin: miter; stroke-linecap: square"/>
   </g>
   <g id="patch_8">
    <path d="M 1184.99976 198.907885 
L 1184.99976 20.50024 
" style="fill: none; stroke: #000000; stroke-width: 2; stroke-linejoin: miter; stroke-linecap: square"/>
   </g>
   <g id="patch_9">
    <path d="M 3.00024 198.907885 
L 1184.99976 198.907885 
" style="fill: none; stroke: #000000; stroke-width: 2; stroke-linejoin: miter; stroke-linecap: square"/>
   </g>
   <g id="patch_10">
    <path d="M 3.00024 20.50024 
L 1184.99976 20.50024 
" style="fill: none; stroke: #000000; stroke-width: 2; stroke-linejoin: miter; stroke-linecap: square"/>
   </g>
  </g>
 </g>
 <defs>
  <clipPath id="p4f57ed7c41">
   <rect x="3.00024" y="20.50024" width="1181.99952" height="178.407645"/>
  </clipPath>
 </defs>
</svg>
