<?xml version="1.0" encoding="utf-8" standalone="no"?>
<!DOCTYPE svg PUBLIC "-//W3C//DTD SVG 1.1//EN"
  "http://www.w3.org/Graphics/SVG/1.1/DTD/svg11.dtd">
<svg xmlns:xlink="http://www.w3.org/1999/xlink" width="1188pt" height="252pt" viewBox="0 0 1188 252" xmlns="http://www.w3.org/2000/svg" version="1.1">
 <metadata>
  <rdf:RDF xmlns:dc="http://purl.org/dc/elements/1.1/" xmlns:cc="http://creativecommons.org/ns#" xmlns:rdf="http://www.w3.org/1999/02/22-rdf-syntax-ns#">
   <cc:Work>
    <dc:type rdf:resource="http://purl.org/dc/dcmitype/StillImage"/>
    <dc:date>2024-05-13T15:44:39.907067</dc:date>
    <dc:format>image/svg+xml</dc:format>
    <dc:creator>
     <cc:Agent>
      <dc:title>Matplotlib v3.8.0, https://matplotlib.org/</dc:title>
     </cc:Agent>
    </dc:creator>
   </cc:Work>
  </rdf:RDF>
 </metadata>
 <defs>
  <style type="text/css">*{stroke-linejoin: round; stroke-linecap: butt}</style>
 </defs>
 <g id="figure_1">
  <g id="patch_1">
   <path d="M 0 252 
L 1188 252 
L 1188 0 
L 0 0 
z
" style="fill: #ffffff"/>
  </g>
  <g id="axes_1">
   <g id="patch_2">
    <path d="M 3.00024 198.907885 
L 1184.99976 198.907885 
L 1184.99976 3.00024 
L 3.00024 3.00024 
z
" style="fill: #ffffff"/>
   </g>
   <g id="matplotlib.axis_1">
    <g id="xtick_1">
     <g id="line2d_1">
      <defs>
       <path id="m6d40929eed" d="M 0 0 
L 0 8 
" style="stroke: #000000; stroke-width: 2"/>
      </defs>
      <g>
       <use xlink:href="#m6d40929eed" x="1131.272509" y="198.907885" style="stroke: #000000; stroke-width: 2"/>
      </g>
     </g>
     <g id="text_1">
      <!-- 0 -->
      <g transform="translate(1126.267665 224.791947) scale(0.18 -0.18)">
       <defs>
        <path id="Arial-BoldMT-30" d="M 1756 4600 
Q 2422 4600 2797 4125 
Q 3244 3563 3244 2259 
Q 3244 959 2794 391 
Q 2422 -78 1756 -78 
Q 1088 -78 678 436 
Q 269 950 269 2269 
Q 269 3563 719 4131 
Q 1091 4600 1756 4600 
z
M 1756 3872 
Q 1597 3872 1472 3770 
Q 1347 3669 1278 3406 
Q 1188 3066 1188 2259 
Q 1188 1453 1269 1151 
Q 1350 850 1473 750 
Q 1597 650 1756 650 
Q 1916 650 2041 751 
Q 2166 853 2234 1116 
Q 2325 1453 2325 2259 
Q 2325 3066 2244 3367 
Q 2163 3669 2039 3770 
Q 1916 3872 1756 3872 
z
" transform="scale(0.015625)"/>
       </defs>
       <use xlink:href="#Arial-BoldMT-30"/>
      </g>
     </g>
    </g>
    <g id="xtick_2">
     <g id="line2d_2">
      <g>
       <use xlink:href="#m6d40929eed" x="1023.818007" y="198.907885" style="stroke: #000000; stroke-width: 2"/>
      </g>
     </g>
     <g id="text_2">
      <!-- 1 -->
      <g transform="translate(1018.813164 224.791947) scale(0.18 -0.18)">
       <defs>
        <path id="Arial-BoldMT-31" d="M 2519 0 
L 1641 0 
L 1641 3309 
Q 1159 2859 506 2644 
L 506 3441 
Q 850 3553 1253 3867 
Q 1656 4181 1806 4600 
L 2519 4600 
L 2519 0 
z
" transform="scale(0.015625)"/>
       </defs>
       <use xlink:href="#Arial-BoldMT-31"/>
      </g>
     </g>
    </g>
    <g id="xtick_3">
     <g id="line2d_3">
      <g>
       <use xlink:href="#m6d40929eed" x="916.363505" y="198.907885" style="stroke: #000000; stroke-width: 2"/>
      </g>
     </g>
     <g id="text_3">
      <!-- 2 -->
      <g transform="translate(911.358662 224.791947) scale(0.18 -0.18)">
       <defs>
        <path id="Arial-BoldMT-32" d="M 3238 816 
L 3238 0 
L 159 0 
Q 209 463 459 877 
Q 709 1291 1447 1975 
Q 2041 2528 2175 2725 
Q 2356 2997 2356 3263 
Q 2356 3556 2198 3714 
Q 2041 3872 1763 3872 
Q 1488 3872 1325 3706 
Q 1163 3541 1138 3156 
L 263 3244 
Q 341 3969 753 4284 
Q 1166 4600 1784 4600 
Q 2463 4600 2850 4234 
Q 3238 3869 3238 3325 
Q 3238 3016 3127 2736 
Q 3016 2456 2775 2150 
Q 2616 1947 2200 1565 
Q 1784 1184 1673 1059 
Q 1563 934 1494 816 
L 3238 816 
z
" transform="scale(0.015625)"/>
       </defs>
       <use xlink:href="#Arial-BoldMT-32"/>
      </g>
     </g>
    </g>
    <g id="xtick_4">
     <g id="line2d_4">
      <g>
       <use xlink:href="#m6d40929eed" x="808.909004" y="198.907885" style="stroke: #000000; stroke-width: 2"/>
      </g>
     </g>
     <g id="text_4">
      <!-- 3 -->
      <g transform="translate(803.90416 224.791947) scale(0.18 -0.18)">
       <defs>
        <path id="Arial-BoldMT-33" d="M 241 1216 
L 1091 1319 
Q 1131 994 1309 822 
Q 1488 650 1741 650 
Q 2013 650 2198 856 
Q 2384 1063 2384 1413 
Q 2384 1744 2206 1937 
Q 2028 2131 1772 2131 
Q 1603 2131 1369 2066 
L 1466 2781 
Q 1822 2772 2009 2936 
Q 2197 3100 2197 3372 
Q 2197 3603 2059 3740 
Q 1922 3878 1694 3878 
Q 1469 3878 1309 3722 
Q 1150 3566 1116 3266 
L 306 3403 
Q 391 3819 561 4067 
Q 731 4316 1036 4458 
Q 1341 4600 1719 4600 
Q 2366 4600 2756 4188 
Q 3078 3850 3078 3425 
Q 3078 2822 2419 2463 
Q 2813 2378 3048 2084 
Q 3284 1791 3284 1375 
Q 3284 772 2843 347 
Q 2403 -78 1747 -78 
Q 1125 -78 715 280 
Q 306 638 241 1216 
z
" transform="scale(0.015625)"/>
       </defs>
       <use xlink:href="#Arial-BoldMT-33"/>
      </g>
     </g>
    </g>
    <g id="xtick_5">
     <g id="line2d_5">
      <g>
       <use xlink:href="#m6d40929eed" x="701.454502" y="198.907885" style="stroke: #000000; stroke-width: 2"/>
      </g>
     </g>
     <g id="text_5">
      <!-- 4 -->
      <g transform="translate(696.449658 224.791947) scale(0.18 -0.18)">
       <defs>
        <path id="Arial-BoldMT-34" d="M 1994 0 
L 1994 922 
L 119 922 
L 119 1691 
L 2106 4600 
L 2844 4600 
L 2844 1694 
L 3413 1694 
L 3413 922 
L 2844 922 
L 2844 0 
L 1994 0 
z
M 1994 1694 
L 1994 3259 
L 941 1694 
L 1994 1694 
z
" transform="scale(0.015625)"/>
       </defs>
       <use xlink:href="#Arial-BoldMT-34"/>
      </g>
     </g>
    </g>
    <g id="xtick_6">
     <g id="line2d_6">
      <g>
       <use xlink:href="#m6d40929eed" x="594" y="198.907885" style="stroke: #000000; stroke-width: 2"/>
      </g>
     </g>
     <g id="text_6">
      <!-- 5 -->
      <g transform="translate(588.995156 224.791947) scale(0.18 -0.18)">
       <defs>
        <path id="Arial-BoldMT-35" d="M 284 1178 
L 1159 1269 
Q 1197 972 1381 798 
Q 1566 625 1806 625 
Q 2081 625 2272 848 
Q 2463 1072 2463 1522 
Q 2463 1944 2273 2155 
Q 2084 2366 1781 2366 
Q 1403 2366 1103 2031 
L 391 2134 
L 841 4519 
L 3163 4519 
L 3163 3697 
L 1506 3697 
L 1369 2919 
Q 1663 3066 1969 3066 
Q 2553 3066 2959 2641 
Q 3366 2216 3366 1538 
Q 3366 972 3038 528 
Q 2591 -78 1797 -78 
Q 1163 -78 763 262 
Q 363 603 284 1178 
z
" transform="scale(0.015625)"/>
       </defs>
       <use xlink:href="#Arial-BoldMT-35"/>
      </g>
     </g>
    </g>
    <g id="xtick_7">
     <g id="line2d_7">
      <g>
       <use xlink:href="#m6d40929eed" x="486.545498" y="198.907885" style="stroke: #000000; stroke-width: 2"/>
      </g>
     </g>
     <g id="text_7">
      <!-- 6 -->
      <g transform="translate(481.540654 224.791947) scale(0.18 -0.18)">
       <defs>
        <path id="Arial-BoldMT-36" d="M 3247 3459 
L 2397 3366 
Q 2366 3628 2234 3753 
Q 2103 3878 1894 3878 
Q 1616 3878 1423 3628 
Q 1231 3378 1181 2588 
Q 1509 2975 1997 2975 
Q 2547 2975 2939 2556 
Q 3331 2138 3331 1475 
Q 3331 772 2918 347 
Q 2506 -78 1859 -78 
Q 1166 -78 719 461 
Q 272 1000 272 2228 
Q 272 3488 737 4044 
Q 1203 4600 1947 4600 
Q 2469 4600 2811 4308 
Q 3153 4016 3247 3459 
z
M 1256 1544 
Q 1256 1116 1453 883 
Q 1650 650 1903 650 
Q 2147 650 2309 840 
Q 2472 1031 2472 1466 
Q 2472 1913 2297 2120 
Q 2122 2328 1859 2328 
Q 1606 2328 1431 2129 
Q 1256 1931 1256 1544 
z
" transform="scale(0.015625)"/>
       </defs>
       <use xlink:href="#Arial-BoldMT-36"/>
      </g>
     </g>
    </g>
    <g id="xtick_8">
     <g id="line2d_8">
      <g>
       <use xlink:href="#m6d40929eed" x="379.090996" y="198.907885" style="stroke: #000000; stroke-width: 2"/>
      </g>
     </g>
     <g id="text_8">
      <!-- 7 -->
      <g transform="translate(374.086153 224.791947) scale(0.18 -0.18)">
       <defs>
        <path id="Arial-BoldMT-37" d="M 272 3703 
L 272 4519 
L 3275 4519 
L 3275 3881 
Q 2903 3516 2518 2831 
Q 2134 2147 1932 1376 
Q 1731 606 1734 0 
L 888 0 
Q 909 950 1279 1937 
Q 1650 2925 2269 3703 
L 272 3703 
z
" transform="scale(0.015625)"/>
       </defs>
       <use xlink:href="#Arial-BoldMT-37"/>
      </g>
     </g>
    </g>
    <g id="xtick_9">
     <g id="line2d_9">
      <g>
       <use xlink:href="#m6d40929eed" x="271.636495" y="198.907885" style="stroke: #000000; stroke-width: 2"/>
      </g>
     </g>
     <g id="text_9">
      <!-- 8 -->
      <g transform="translate(266.631651 224.791947) scale(0.18 -0.18)">
       <defs>
        <path id="Arial-BoldMT-38" d="M 1025 2472 
Q 684 2616 529 2867 
Q 375 3119 375 3419 
Q 375 3931 733 4265 
Q 1091 4600 1750 4600 
Q 2403 4600 2764 4265 
Q 3125 3931 3125 3419 
Q 3125 3100 2959 2851 
Q 2794 2603 2494 2472 
Q 2875 2319 3073 2025 
Q 3272 1731 3272 1347 
Q 3272 713 2867 316 
Q 2463 -81 1791 -81 
Q 1166 -81 750 247 
Q 259 634 259 1309 
Q 259 1681 443 1992 
Q 628 2303 1025 2472 
z
M 1206 3356 
Q 1206 3094 1354 2947 
Q 1503 2800 1750 2800 
Q 2000 2800 2150 2948 
Q 2300 3097 2300 3359 
Q 2300 3606 2151 3754 
Q 2003 3903 1759 3903 
Q 1506 3903 1356 3753 
Q 1206 3603 1206 3356 
z
M 1125 1394 
Q 1125 1031 1311 828 
Q 1497 625 1775 625 
Q 2047 625 2225 820 
Q 2403 1016 2403 1384 
Q 2403 1706 2222 1901 
Q 2041 2097 1763 2097 
Q 1441 2097 1283 1875 
Q 1125 1653 1125 1394 
z
" transform="scale(0.015625)"/>
       </defs>
       <use xlink:href="#Arial-BoldMT-38"/>
      </g>
     </g>
    </g>
    <g id="xtick_10">
     <g id="line2d_10">
      <g>
       <use xlink:href="#m6d40929eed" x="164.181993" y="198.907885" style="stroke: #000000; stroke-width: 2"/>
      </g>
     </g>
     <g id="text_10">
      <!-- 9 -->
      <g transform="translate(159.177149 224.791947) scale(0.18 -0.18)">
       <defs>
        <path id="Arial-BoldMT-39" d="M 291 1059 
L 1141 1153 
Q 1172 894 1303 769 
Q 1434 644 1650 644 
Q 1922 644 2112 894 
Q 2303 1144 2356 1931 
Q 2025 1547 1528 1547 
Q 988 1547 595 1964 
Q 203 2381 203 3050 
Q 203 3747 617 4173 
Q 1031 4600 1672 4600 
Q 2369 4600 2816 4061 
Q 3263 3522 3263 2288 
Q 3263 1031 2797 475 
Q 2331 -81 1584 -81 
Q 1047 -81 715 205 
Q 384 491 291 1059 
z
M 2278 2978 
Q 2278 3403 2083 3637 
Q 1888 3872 1631 3872 
Q 1388 3872 1227 3680 
Q 1066 3488 1066 3050 
Q 1066 2606 1241 2398 
Q 1416 2191 1678 2191 
Q 1931 2191 2104 2391 
Q 2278 2591 2278 2978 
z
" transform="scale(0.015625)"/>
       </defs>
       <use xlink:href="#Arial-BoldMT-39"/>
      </g>
     </g>
    </g>
    <g id="xtick_11">
     <g id="line2d_11">
      <g>
       <use xlink:href="#m6d40929eed" x="56.727491" y="198.907885" style="stroke: #000000; stroke-width: 2"/>
      </g>
     </g>
     <g id="text_11">
      <!-- 10 -->
      <g transform="translate(46.717803 224.791947) scale(0.18 -0.18)">
       <use xlink:href="#Arial-BoldMT-31"/>
       <use xlink:href="#Arial-BoldMT-30" x="55.615234"/>
      </g>
     </g>
    </g>
    <g id="text_12">
     <!-- Chemical Shift / ppm -->
     <g transform="translate(504.992813 245.447573) scale(0.18 -0.18)">
      <defs>
       <path id="Arial-BoldMT-43" d="M 3397 1684 
L 4294 1400 
Q 4088 650 3608 286 
Q 3128 -78 2391 -78 
Q 1478 -78 890 545 
Q 303 1169 303 2250 
Q 303 3394 893 4026 
Q 1484 4659 2447 4659 
Q 3288 4659 3813 4163 
Q 4125 3869 4281 3319 
L 3366 3100 
Q 3284 3456 3026 3662 
Q 2769 3869 2400 3869 
Q 1891 3869 1573 3503 
Q 1256 3138 1256 2319 
Q 1256 1450 1568 1081 
Q 1881 713 2381 713 
Q 2750 713 3015 947 
Q 3281 1181 3397 1684 
z
" transform="scale(0.015625)"/>
       <path id="Arial-BoldMT-68" d="M 1334 4581 
L 1334 2897 
Q 1759 3394 2350 3394 
Q 2653 3394 2897 3281 
Q 3141 3169 3264 2994 
Q 3388 2819 3433 2606 
Q 3478 2394 3478 1947 
L 3478 0 
L 2600 0 
L 2600 1753 
Q 2600 2275 2550 2415 
Q 2500 2556 2373 2639 
Q 2247 2722 2056 2722 
Q 1838 2722 1666 2615 
Q 1494 2509 1414 2295 
Q 1334 2081 1334 1663 
L 1334 0 
L 456 0 
L 456 4581 
L 1334 4581 
z
" transform="scale(0.015625)"/>
       <path id="Arial-BoldMT-65" d="M 2381 1056 
L 3256 909 
Q 3088 428 2723 176 
Q 2359 -75 1813 -75 
Q 947 -75 531 491 
Q 203 944 203 1634 
Q 203 2459 634 2926 
Q 1066 3394 1725 3394 
Q 2466 3394 2894 2905 
Q 3322 2416 3303 1406 
L 1103 1406 
Q 1113 1016 1316 798 
Q 1519 581 1822 581 
Q 2028 581 2168 693 
Q 2309 806 2381 1056 
z
M 2431 1944 
Q 2422 2325 2234 2523 
Q 2047 2722 1778 2722 
Q 1491 2722 1303 2513 
Q 1116 2303 1119 1944 
L 2431 1944 
z
" transform="scale(0.015625)"/>
       <path id="Arial-BoldMT-6d" d="M 394 3319 
L 1203 3319 
L 1203 2866 
Q 1638 3394 2238 3394 
Q 2556 3394 2790 3262 
Q 3025 3131 3175 2866 
Q 3394 3131 3647 3262 
Q 3900 3394 4188 3394 
Q 4553 3394 4806 3245 
Q 5059 3097 5184 2809 
Q 5275 2597 5275 2122 
L 5275 0 
L 4397 0 
L 4397 1897 
Q 4397 2391 4306 2534 
Q 4184 2722 3931 2722 
Q 3747 2722 3584 2609 
Q 3422 2497 3350 2280 
Q 3278 2063 3278 1594 
L 3278 0 
L 2400 0 
L 2400 1819 
Q 2400 2303 2353 2443 
Q 2306 2584 2207 2653 
Q 2109 2722 1941 2722 
Q 1738 2722 1575 2612 
Q 1413 2503 1342 2297 
Q 1272 2091 1272 1613 
L 1272 0 
L 394 0 
L 394 3319 
z
" transform="scale(0.015625)"/>
       <path id="Arial-BoldMT-69" d="M 459 3769 
L 459 4581 
L 1338 4581 
L 1338 3769 
L 459 3769 
z
M 459 0 
L 459 3319 
L 1338 3319 
L 1338 0 
L 459 0 
z
" transform="scale(0.015625)"/>
       <path id="Arial-BoldMT-63" d="M 3353 2338 
L 2488 2181 
Q 2444 2441 2289 2572 
Q 2134 2703 1888 2703 
Q 1559 2703 1364 2476 
Q 1169 2250 1169 1719 
Q 1169 1128 1367 884 
Q 1566 641 1900 641 
Q 2150 641 2309 783 
Q 2469 925 2534 1272 
L 3397 1125 
Q 3263 531 2881 228 
Q 2500 -75 1859 -75 
Q 1131 -75 698 384 
Q 266 844 266 1656 
Q 266 2478 700 2936 
Q 1134 3394 1875 3394 
Q 2481 3394 2839 3133 
Q 3197 2872 3353 2338 
z
" transform="scale(0.015625)"/>
       <path id="Arial-BoldMT-61" d="M 1116 2306 
L 319 2450 
Q 453 2931 781 3162 
Q 1109 3394 1756 3394 
Q 2344 3394 2631 3255 
Q 2919 3116 3036 2902 
Q 3153 2688 3153 2116 
L 3144 1091 
Q 3144 653 3186 445 
Q 3228 238 3344 0 
L 2475 0 
Q 2441 88 2391 259 
Q 2369 338 2359 363 
Q 2134 144 1878 34 
Q 1622 -75 1331 -75 
Q 819 -75 523 203 
Q 228 481 228 906 
Q 228 1188 362 1408 
Q 497 1628 739 1745 
Q 981 1863 1438 1950 
Q 2053 2066 2291 2166 
L 2291 2253 
Q 2291 2506 2166 2614 
Q 2041 2722 1694 2722 
Q 1459 2722 1328 2630 
Q 1197 2538 1116 2306 
z
M 2291 1594 
Q 2122 1538 1756 1459 
Q 1391 1381 1278 1306 
Q 1106 1184 1106 997 
Q 1106 813 1243 678 
Q 1381 544 1594 544 
Q 1831 544 2047 700 
Q 2206 819 2256 991 
Q 2291 1103 2291 1419 
L 2291 1594 
z
" transform="scale(0.015625)"/>
       <path id="Arial-BoldMT-6c" d="M 459 0 
L 459 4581 
L 1338 4581 
L 1338 0 
L 459 0 
z
" transform="scale(0.015625)"/>
       <path id="Arial-BoldMT-20" transform="scale(0.015625)"/>
       <path id="Arial-BoldMT-53" d="M 231 1491 
L 1131 1578 
Q 1213 1125 1461 912 
Q 1709 700 2131 700 
Q 2578 700 2804 889 
Q 3031 1078 3031 1331 
Q 3031 1494 2936 1608 
Q 2841 1722 2603 1806 
Q 2441 1863 1863 2006 
Q 1119 2191 819 2459 
Q 397 2838 397 3381 
Q 397 3731 595 4036 
Q 794 4341 1167 4500 
Q 1541 4659 2069 4659 
Q 2931 4659 3367 4281 
Q 3803 3903 3825 3272 
L 2900 3231 
Q 2841 3584 2645 3739 
Q 2450 3894 2059 3894 
Q 1656 3894 1428 3728 
Q 1281 3622 1281 3444 
Q 1281 3281 1419 3166 
Q 1594 3019 2269 2859 
Q 2944 2700 3267 2529 
Q 3591 2359 3773 2064 
Q 3956 1769 3956 1334 
Q 3956 941 3737 597 
Q 3519 253 3119 86 
Q 2719 -81 2122 -81 
Q 1253 -81 787 320 
Q 322 722 231 1491 
z
" transform="scale(0.015625)"/>
       <path id="Arial-BoldMT-66" d="M 75 3319 
L 563 3319 
L 563 3569 
Q 563 3988 652 4194 
Q 741 4400 980 4529 
Q 1219 4659 1584 4659 
Q 1959 4659 2319 4547 
L 2200 3934 
Q 1991 3984 1797 3984 
Q 1606 3984 1523 3895 
Q 1441 3806 1441 3553 
L 1441 3319 
L 2097 3319 
L 2097 2628 
L 1441 2628 
L 1441 0 
L 563 0 
L 563 2628 
L 75 2628 
L 75 3319 
z
" transform="scale(0.015625)"/>
       <path id="Arial-BoldMT-74" d="M 1981 3319 
L 1981 2619 
L 1381 2619 
L 1381 1281 
Q 1381 875 1398 808 
Q 1416 741 1477 697 
Q 1538 653 1625 653 
Q 1747 653 1978 738 
L 2053 56 
Q 1747 -75 1359 -75 
Q 1122 -75 931 4 
Q 741 84 652 211 
Q 563 338 528 553 
Q 500 706 500 1172 
L 500 2619 
L 97 2619 
L 97 3319 
L 500 3319 
L 500 3978 
L 1381 4491 
L 1381 3319 
L 1981 3319 
z
" transform="scale(0.015625)"/>
       <path id="Arial-BoldMT-2f" d="M -9 -78 
L 1125 4659 
L 1784 4659 
L 638 -78 
L -9 -78 
z
" transform="scale(0.015625)"/>
       <path id="Arial-BoldMT-70" d="M 434 3319 
L 1253 3319 
L 1253 2831 
Q 1413 3081 1684 3237 
Q 1956 3394 2288 3394 
Q 2866 3394 3269 2941 
Q 3672 2488 3672 1678 
Q 3672 847 3265 386 
Q 2859 -75 2281 -75 
Q 2006 -75 1782 34 
Q 1559 144 1313 409 
L 1313 -1263 
L 434 -1263 
L 434 3319 
z
M 1303 1716 
Q 1303 1156 1525 889 
Q 1747 622 2066 622 
Q 2372 622 2575 867 
Q 2778 1113 2778 1672 
Q 2778 2194 2568 2447 
Q 2359 2700 2050 2700 
Q 1728 2700 1515 2451 
Q 1303 2203 1303 1716 
z
" transform="scale(0.015625)"/>
      </defs>
      <use xlink:href="#Arial-BoldMT-43"/>
      <use xlink:href="#Arial-BoldMT-68" x="72.216797"/>
      <use xlink:href="#Arial-BoldMT-65" x="133.300781"/>
      <use xlink:href="#Arial-BoldMT-6d" x="188.916016"/>
      <use xlink:href="#Arial-BoldMT-69" x="277.832031"/>
      <use xlink:href="#Arial-BoldMT-63" x="305.615234"/>
      <use xlink:href="#Arial-BoldMT-61" x="361.230469"/>
      <use xlink:href="#Arial-BoldMT-6c" x="416.845703"/>
      <use xlink:href="#Arial-BoldMT-20" x="444.628906"/>
      <use xlink:href="#Arial-BoldMT-53" x="472.412109"/>
      <use xlink:href="#Arial-BoldMT-68" x="539.111328"/>
      <use xlink:href="#Arial-BoldMT-69" x="600.195312"/>
      <use xlink:href="#Arial-BoldMT-66" x="627.978516"/>
      <use xlink:href="#Arial-BoldMT-74" x="661.279297"/>
      <use xlink:href="#Arial-BoldMT-20" x="694.580078"/>
      <use xlink:href="#Arial-BoldMT-2f" x="722.363281"/>
      <use xlink:href="#Arial-BoldMT-20" x="750.146484"/>
      <use xlink:href="#Arial-BoldMT-70" x="777.929688"/>
      <use xlink:href="#Arial-BoldMT-70" x="839.013672"/>
      <use xlink:href="#Arial-BoldMT-6d" x="900.097656"/>
     </g>
    </g>
   </g>
   <g id="matplotlib.axis_2"/>
   <g id="line2d_12">
    <path d="M 2.947605 195.237054 
L 3.152225 195.38803 
L 3.356845 195.115161 
L 4.379944 192.167887 
L 4.789183 192.708703 
L 5.403042 193.532935 
L 5.607662 193.640745 
L 5.812282 193.582707 
L 7.04 192.35991 
L 7.449239 191.327531 
L 8.472338 187.017795 
L 8.676958 186.864449 
L 8.881578 187.020859 
L 9.495437 187.992862 
L 9.700056 187.883313 
L 10.313916 187.205013 
L 11.132395 187.143849 
L 11.337014 187.246845 
L 11.541634 187.486747 
L 12.769352 190.048858 
L 12.973972 190.188793 
L 13.178592 190.094462 
L 13.587831 189.172101 
L 13.997071 188.467752 
L 14.20169 188.441553 
L 14.40631 188.603413 
L 15.020169 189.519724 
L 15.224789 189.46251 
L 15.429409 189.031877 
L 16.247888 186.511219 
L 16.657127 185.961961 
L 16.861747 186.32546 
L 17.270986 188.853693 
L 17.680226 191.285076 
L 17.884846 191.532226 
L 18.089465 191.105562 
L 18.703324 188.924317 
L 19.112564 188.563783 
L 19.521803 188.330911 
L 19.931043 187.767164 
L 20.340282 187.219146 
L 20.544902 187.405154 
L 20.954141 188.755263 
L 21.363381 190.475572 
L 21.568001 190.939686 
L 22.591099 191.774749 
L 22.795719 191.516236 
L 23.204958 189.979275 
L 23.818818 187.532207 
L 24.023437 187.31513 
L 24.228057 187.480025 
L 24.637296 188.075941 
L 24.841916 188.160538 
L 25.455775 187.850221 
L 25.660395 188.183357 
L 26.069635 189.215248 
L 26.274254 189.313649 
L 26.683494 188.492726 
L 27.092733 187.835347 
L 27.297353 187.766742 
L 27.501973 187.820469 
L 27.706592 188.059125 
L 28.320452 189.213353 
L 28.525071 189.157487 
L 29.34355 188.441868 
L 29.54817 188.524742 
L 29.957409 189.042552 
L 30.162029 189.091559 
L 30.366649 188.874577 
L 31.185128 187.550882 
L 31.389747 187.585169 
L 31.798987 188.212457 
L 32.412846 189.466859 
L 32.822086 189.85364 
L 33.435945 190.131954 
L 33.845184 190.059842 
L 34.254424 189.576619 
L 34.868283 188.415632 
L 35.686762 186.342578 
L 36.300621 186.092205 
L 36.70986 186.048687 
L 36.91448 186.194133 
L 37.32372 186.947586 
L 38.346818 189.333638 
L 39.369917 190.972446 
L 39.779156 192.001078 
L 39.983776 192.113229 
L 40.188396 191.670533 
L 41.416114 186.520774 
L 41.620734 186.245819 
L 41.825354 186.20205 
L 42.029973 186.378584 
L 42.643832 187.382938 
L 42.848452 187.35591 
L 43.257692 186.970938 
L 43.462311 187.263392 
L 43.871551 189.16431 
L 44.48541 192.443424 
L 44.69003 192.829783 
L 44.894649 192.648022 
L 45.917748 189.852337 
L 46.940847 188.358273 
L 47.145466 188.244337 
L 47.350086 188.446587 
L 47.759326 189.569392 
L 48.373185 192.364284 
L 48.987044 194.812339 
L 49.191664 195.233106 
L 49.396283 195.392226 
L 49.600903 195.247923 
L 49.805523 194.772024 
L 50.214762 192.769027 
L 50.624002 190.502584 
L 51.033241 189.437946 
L 51.237861 189.292398 
L 51.442481 189.407686 
L 51.85172 189.969434 
L 52.05634 189.934703 
L 52.26096 189.703551 
L 52.465579 189.6408 
L 52.670199 189.994163 
L 53.284058 191.777137 
L 53.693298 192.243895 
L 53.897917 192.082758 
L 54.307157 190.862402 
L 54.921016 188.520723 
L 55.534875 185.543871 
L 55.739495 185.147093 
L 55.944115 185.093442 
L 56.353354 185.214446 
L 56.557974 185.05581 
L 56.967213 184.245014 
L 57.376453 182.301532 
L 58.194932 176.831652 
L 58.604171 171.751549 
L 59.42265 158.413798 
L 59.83189 148.878565 
L 60.241129 134.78403 
L 60.854988 101.693304 
L 61.468847 66.297307 
L 61.673467 60.573546 
L 61.878087 58.740556 
L 62.082706 60.287823 
L 62.287326 65.298096 
L 62.696566 85.903246 
L 63.515045 133.124283 
L 64.128904 152.844135 
L 64.742763 164.733228 
L 65.561242 175.657539 
L 67.1982 191.666362 
L 67.402819 192.354603 
L 67.607439 192.368509 
L 67.812059 191.647498 
L 68.630538 186.588648 
L 68.835157 186.195654 
L 69.039777 186.125564 
L 69.449017 186.349189 
L 69.858256 187.179299 
L 70.472115 188.63979 
L 71.290594 189.446665 
L 71.495214 189.567733 
L 72.109073 189.103213 
L 72.313693 189.407452 
L 72.722932 191.165538 
L 73.132172 192.690552 
L 73.336791 192.915562 
L 73.950651 193.07116 
L 74.35989 193.177598 
L 74.76913 192.947457 
L 75.178369 193.131299 
L 75.382989 192.884531 
L 76.201468 189.986533 
L 76.406087 189.799711 
L 76.610707 189.883537 
L 76.815327 190.297516 
L 77.633806 192.726203 
L 78.043045 193.153194 
L 78.247665 193.090302 
L 78.452285 192.711908 
L 79.475383 189.441138 
L 79.884623 189.439071 
L 80.293862 189.182196 
L 80.498482 189.296423 
L 80.907721 189.89922 
L 81.112341 189.976388 
L 81.316961 189.795902 
L 81.7262 189.15547 
L 81.93082 189.049711 
L 82.544679 189.466058 
L 82.749299 189.401825 
L 83.158538 188.768013 
L 83.977017 187.001815 
L 84.795496 185.442618 
L 85.204736 185.209409 
L 85.613975 184.413277 
L 86.023215 183.693657 
L 86.227834 183.84749 
L 86.637074 184.822814 
L 88.069412 189.290992 
L 88.478651 189.385919 
L 88.887891 189.265394 
L 89.70637 188.401101 
L 89.910989 188.741347 
L 91.343327 193.006701 
L 91.547947 193.165465 
L 91.752567 192.872322 
L 92.366426 190.949854 
L 92.571046 190.692314 
L 93.389525 190.435999 
L 93.798764 189.904652 
L 94.412623 188.710488 
L 94.617243 188.734676 
L 95.026483 189.828447 
L 95.435722 190.90733 
L 96.049581 191.58089 
L 96.86806 192.286198 
L 97.07268 192.01727 
L 97.481919 190.431265 
L 97.891159 188.948618 
L 98.300398 188.334075 
L 98.709638 187.791385 
L 99.118877 186.573588 
L 99.528116 185.184514 
L 99.732736 184.867977 
L 99.937356 184.948128 
L 100.346595 185.775386 
L 100.960455 186.998054 
L 101.778933 187.685495 
L 101.983553 187.646761 
L 102.597412 187.149345 
L 103.415891 187.49836 
L 103.825131 187.937443 
L 104.23437 188.665224 
L 104.64361 190.008364 
L 105.052849 191.590298 
L 105.257469 191.906674 
L 105.462089 191.818032 
L 105.871328 191.447391 
L 106.485187 191.407841 
L 106.689807 191.538776 
L 107.099046 192.337656 
L 108.122145 195.200578 
L 108.326765 195.339651 
L 108.736004 195.220575 
L 109.349863 194.833341 
L 109.554483 194.533692 
L 109.963723 193.243203 
L 110.372962 191.961345 
L 110.577582 191.83449 
L 111.191441 191.978144 
L 111.60068 191.69703 
L 112.419159 190.64837 
L 113.033018 189.569206 
L 113.237638 189.64043 
L 113.851497 190.725116 
L 114.465357 191.975748 
L 115.079216 193.504886 
L 115.283835 193.750569 
L 115.488455 193.629392 
L 115.897695 192.183468 
L 116.102314 191.359268 
L 116.306934 191.003078 
L 116.511554 191.172185 
L 116.920793 191.608836 
L 117.125413 191.566298 
L 117.330033 191.638295 
L 117.739272 191.938825 
L 117.943892 191.621793 
L 118.762371 188.753635 
L 118.966991 188.808578 
L 119.990089 190.724357 
L 120.399329 191.693685 
L 121.013188 192.402679 
L 121.627047 192.839531 
L 122.036286 193.009822 
L 122.240906 192.982346 
L 122.445526 192.749761 
L 122.854765 191.713003 
L 123.264005 190.656209 
L 123.673244 190.150087 
L 124.082484 189.638243 
L 124.491723 188.281434 
L 124.900963 186.708972 
L 125.105582 186.300871 
L 125.310202 186.226501 
L 125.514822 186.394319 
L 125.924061 187.113602 
L 126.333301 188.117151 
L 127.356399 191.450084 
L 127.561019 191.531981 
L 127.970259 191.332808 
L 128.174878 191.150185 
L 128.379498 190.786337 
L 128.788737 188.869017 
L 129.197977 186.826192 
L 129.402597 186.555081 
L 129.607216 186.803795 
L 131.244174 191.184706 
L 131.448794 191.263029 
L 131.858033 191.225098 
L 132.471893 191.816917 
L 132.676512 191.751924 
L 133.085752 191.247318 
L 133.290371 191.301334 
L 133.699611 192.466827 
L 134.10885 193.787862 
L 134.31347 194.021935 
L 134.72271 193.76592 
L 135.336569 193.494825 
L 135.541188 193.080901 
L 136.155048 190.477492 
L 136.973527 187.300999 
L 137.178146 187.013479 
L 137.382766 186.95362 
L 137.587386 187.093346 
L 137.792005 187.52121 
L 138.610484 190.633381 
L 138.815104 190.788374 
L 139.019724 190.670662 
L 139.633583 189.86704 
L 139.838203 189.830237 
L 140.042822 190.029238 
L 140.656682 191.22918 
L 140.861301 191.323324 
L 142.08902 190.682653 
L 142.907499 188.65638 
L 143.112118 188.593109 
L 143.316738 188.856423 
L 143.930597 190.026185 
L 144.339837 190.357015 
L 145.158316 190.643107 
L 145.772175 191.438044 
L 145.976794 191.351106 
L 146.386034 190.056566 
L 146.590654 189.406651 
L 146.795273 189.1782 
L 147.409133 189.752214 
L 147.613752 189.578083 
L 148.227611 188.46444 
L 148.432231 188.564388 
L 149.04609 189.679069 
L 149.25071 189.512679 
L 149.864569 188.610684 
L 150.069189 188.269151 
L 150.887668 185.752905 
L 151.092288 185.783487 
L 151.501527 186.420325 
L 152.320006 188.521831 
L 152.729245 189.506783 
L 152.933865 189.703782 
L 153.343105 189.618315 
L 153.752344 189.195396 
L 155.184682 187.239424 
L 155.389302 187.189683 
L 155.798541 187.818895 
L 156.61702 189.059498 
L 157.02626 189.482682 
L 158.049358 189.799179 
L 158.253978 189.851484 
L 158.458598 189.58434 
L 159.277077 187.366267 
L 159.686316 187.303538 
L 159.890936 187.055318 
L 160.300175 185.620884 
L 160.709415 184.060266 
L 160.914035 183.74983 
L 161.118654 183.861043 
L 161.937133 185.206792 
L 162.346373 185.274155 
L 162.550992 185.486505 
L 163.164852 186.629865 
L 163.574091 187.07057 
L 164.18795 188.422822 
L 164.801809 189.912894 
L 165.006429 190.166347 
L 165.211049 190.215011 
L 165.620288 190.136209 
L 166.234147 190.93151 
L 166.438767 190.756821 
L 166.848007 189.670757 
L 167.461866 187.158757 
L 168.075725 184.947283 
L 168.280345 184.555054 
L 168.484964 184.44491 
L 168.689584 184.651082 
L 170.121922 187.740644 
L 171.145021 192.314104 
L 171.349641 192.015062 
L 172.16812 188.792555 
L 172.372739 188.617336 
L 172.577359 188.920036 
L 173.191218 190.903603 
L 173.395838 191.169914 
L 173.600458 191.189334 
L 174.009697 190.928099 
L 174.418937 190.200416 
L 175.032796 188.630467 
L 175.237415 188.406144 
L 175.442035 188.611417 
L 175.851275 190.344107 
L 176.260514 192.176482 
L 176.465134 192.530756 
L 176.669753 192.462049 
L 177.078993 191.565633 
L 177.488232 190.350489 
L 178.102092 188.146505 
L 178.306711 188.13629 
L 179.12519 190.015746 
L 179.32981 189.505508 
L 180.148289 185.130237 
L 180.557528 184.634769 
L 180.966768 184.136585 
L 181.376007 183.345888 
L 181.580627 183.286025 
L 181.785247 183.655829 
L 182.603726 186.277004 
L 183.012965 186.57093 
L 183.831444 186.854578 
L 184.036064 187.567051 
L 184.649923 190.718182 
L 184.854543 191.052876 
L 185.059162 191.00867 
L 185.673021 190.489557 
L 185.877641 190.438507 
L 186.082261 190.508242 
L 186.69612 191.233076 
L 186.90074 191.111042 
L 187.514599 190.469128 
L 188.128458 189.90987 
L 188.537698 189.371959 
L 189.560796 187.69101 
L 190.174655 185.845138 
L 190.993134 182.999713 
L 191.606994 181.504362 
L 192.016233 179.565974 
L 192.630092 175.535515 
L 194.26705 161.694662 
L 194.676289 161.341227 
L 194.880909 160.832946 
L 195.085529 159.577767 
L 195.494768 154.321217 
L 196.313247 142.109542 
L 196.517867 140.856285 
L 196.722487 141.03424 
L 196.927106 142.624413 
L 197.950205 155.443495 
L 198.973304 161.770946 
L 200.405642 172.644104 
L 201.224121 177.165439 
L 201.42874 177.537138 
L 201.63336 177.23921 
L 203.270318 170.5456 
L 204.088797 162.479515 
L 204.498036 157.157078 
L 204.907276 149.187356 
L 205.316515 137.756088 
L 205.930374 112.45155 
L 206.748853 66.444758 
L 207.567332 23.851147 
L 207.976572 14.345183 
L 208.181191 14.811519 
L 208.385811 18.814857 
L 208.795051 34.269406 
L 209.40891 66.822684 
L 210.432008 122.699168 
L 211.045868 144.362969 
L 211.659727 158.879151 
L 212.273586 166.536117 
L 212.682825 169.521007 
L 213.092065 171.095477 
L 213.910544 173.434128 
L 214.524403 175.586777 
L 214.933642 176.841162 
L 216.161361 183.295989 
L 216.5706 184.234903 
L 217.798319 185.989398 
L 218.616797 187.963848 
L 218.821417 188.183377 
L 219.026037 188.035741 
L 219.435276 187.576716 
L 219.639896 187.797458 
L 220.662995 190.193298 
L 221.072234 191.17334 
L 221.481474 191.984579 
L 221.686093 192.070744 
L 221.890713 192.003436 
L 222.299953 191.38834 
L 222.709192 190.791256 
L 222.913812 190.774962 
L 223.323051 190.949302 
L 224.14153 190.789178 
L 224.34615 190.854372 
L 224.55077 190.773538 
L 224.960009 190.373865 
L 225.164629 190.408637 
L 225.778488 191.000175 
L 226.392347 191.253905 
L 226.801587 191.445767 
L 227.210826 190.935457 
L 227.620065 190.460445 
L 227.824685 190.492655 
L 228.233925 191.114708 
L 228.643164 192.334044 
L 229.052404 193.754075 
L 229.257023 194.088385 
L 230.075502 194.356063 
L 230.280122 194.255009 
L 230.484742 193.903176 
L 230.893981 192.498738 
L 231.91708 187.195258 
L 232.121699 186.900095 
L 232.326319 186.91272 
L 232.530939 187.186239 
L 233.554038 189.321874 
L 234.167897 189.930913 
L 234.781756 190.81328 
L 235.395615 191.618457 
L 235.600235 191.701637 
L 235.804855 191.9602 
L 236.623333 193.921928 
L 236.827953 193.84478 
L 237.032573 193.501925 
L 237.441812 191.962276 
L 237.851052 190.223448 
L 238.260291 189.410821 
L 238.87415 188.65433 
L 239.28339 187.975439 
L 239.48801 187.852774 
L 239.692629 188.036764 
L 240.306489 189.453403 
L 240.920348 191.128804 
L 241.124967 190.955532 
L 241.534207 189.344662 
L 242.148066 186.7756 
L 242.557306 183.241462 
L 243.171165 176.888062 
L 243.375784 176.249575 
L 243.580404 176.529828 
L 243.989644 178.60509 
L 244.603503 181.657897 
L 245.012742 182.461223 
L 245.217362 182.684079 
L 245.626601 183.746063 
L 246.035841 184.51318 
L 246.44508 184.487398 
L 246.85432 184.343733 
L 247.05894 184.457342 
L 247.672799 185.750581 
L 247.877418 185.61388 
L 248.286658 183.935007 
L 248.900517 180.259662 
L 249.514376 175.088439 
L 250.128235 168.664597 
L 251.151334 155.714694 
L 251.355954 154.951904 
L 251.560574 155.355351 
L 252.174433 159.389705 
L 252.379052 159.519848 
L 252.583672 158.693582 
L 253.402151 153.124804 
L 253.606771 152.828798 
L 253.81139 153.894235 
L 254.22063 160.190594 
L 255.039109 174.207415 
L 255.448348 178.098461 
L 255.652968 179.000221 
L 255.857588 179.257235 
L 256.062207 179.079767 
L 256.676067 178.126431 
L 256.880686 178.16191 
L 257.494546 178.786309 
L 257.903785 178.571408 
L 258.108405 178.369532 
L 258.313024 178.006788 
L 258.517644 177.231111 
L 258.926884 173.709225 
L 259.336123 167.238501 
L 259.745363 157.385013 
L 260.154602 143.340032 
L 260.768461 112.777212 
L 261.177701 92.680028 
L 261.38232 86.50901 
L 261.58694 84.218615 
L 261.79156 85.92939 
L 262.200799 98.245586 
L 262.814658 119.596529 
L 263.223898 126.675958 
L 263.837757 134.388537 
L 265.065475 156.610694 
L 266.088574 168.633132 
L 266.907053 175.272257 
L 267.316292 177.558629 
L 267.520912 177.967296 
L 267.725532 177.785467 
L 268.134771 176.11969 
L 268.95325 170.783429 
L 269.36249 166.847383 
L 269.976349 157.177245 
L 270.385588 147.689586 
L 270.999448 125.708159 
L 271.408687 110.399861 
L 271.613307 105.672891 
L 271.817926 104.355053 
L 272.022546 106.679445 
L 272.431786 118.735059 
L 273.250265 145.291235 
L 273.864124 159.099758 
L 274.477983 167.879525 
L 274.887222 170.240472 
L 275.091842 170.414965 
L 275.296462 170.160797 
L 276.114941 168.179832 
L 276.31956 168.038121 
L 276.52418 168.103891 
L 276.93342 168.812158 
L 277.342659 170.237663 
L 277.751899 173.393639 
L 278.570377 181.67475 
L 278.979617 183.405245 
L 279.388856 184.294883 
L 279.593476 184.454002 
L 279.798096 184.459732 
L 280.002716 184.3314 
L 280.207335 183.962095 
L 280.616575 182.186125 
L 281.025814 180.376565 
L 281.230434 180.115505 
L 281.435054 180.330856 
L 282.048913 181.695944 
L 282.253533 181.670383 
L 282.458152 181.320739 
L 282.867392 179.871574 
L 283.481251 176.303359 
L 283.89049 172.891877 
L 284.50435 164.520146 
L 285.322828 149.024758 
L 285.936688 134.023716 
L 287.369026 92.061533 
L 287.778265 88.218245 
L 288.187505 87.192161 
L 288.392124 86.749934 
L 288.801364 84.993654 
L 289.415223 80.296322 
L 290.029082 75.97988 
L 290.642941 72.751289 
L 290.847561 72.20875 
L 291.052181 72.22197 
L 291.256801 72.917885 
L 291.46142 74.420848 
L 291.87066 80.273189 
L 292.484519 95.724964 
L 293.098378 110.013235 
L 293.302998 112.595401 
L 293.507617 113.658517 
L 293.712237 113.220881 
L 293.916857 111.484119 
L 294.326096 104.651874 
L 294.735336 91.901786 
L 295.144575 71.053803 
L 296.167674 11.365879 
L 296.576913 3.30401 
L 296.781533 3.00024 
L 297.190773 6.567039 
L 297.395392 8.40283 
L 297.600012 9.175111 
L 297.804632 8.677468 
L 298.418491 5.102171 
L 298.623111 6.111598 
L 298.82773 9.303757 
L 299.23697 22.086146 
L 300.873928 90.83541 
L 301.692407 110.615237 
L 303.329364 144.122987 
L 303.943224 150.149723 
L 304.352463 152.636119 
L 304.557083 152.78095 
L 304.761702 152.148406 
L 305.375562 148.471042 
L 306.39866 141.727502 
L 306.60328 141.360074 
L 306.8079 141.532616 
L 307.217139 142.491834 
L 307.421759 142.708719 
L 307.830998 142.615699 
L 308.035618 142.834176 
L 308.444858 144.276197 
L 309.263336 148.456184 
L 309.877196 153.265908 
L 311.104914 164.271547 
L 311.514153 165.525607 
L 311.718773 165.755548 
L 311.923393 165.735101 
L 312.128013 165.412724 
L 312.332632 164.619235 
L 312.537252 163.128825 
L 312.946492 157.667464 
L 313.560351 145.390307 
L 314.17421 127.825803 
L 314.992689 102.4495 
L 315.401928 96.058137 
L 315.606548 95.007583 
L 315.811168 95.119972 
L 316.425027 97.26116 
L 316.834266 97.826878 
L 317.038886 98.901548 
L 317.243506 101.144292 
L 317.652745 109.230174 
L 319.289703 148.008387 
L 319.698943 153.151574 
L 319.903562 154.480185 
L 320.108182 154.879778 
L 320.312802 154.531083 
L 320.722041 152.754583 
L 321.131281 150.251172 
L 321.54052 145.370732 
L 322.972858 120.468151 
L 323.791337 115.763504 
L 324.200577 110.288665 
L 324.609816 100.834513 
L 325.428295 78.89678 
L 325.632915 76.321098 
L 325.837534 75.766202 
L 326.042154 77.213223 
L 326.451394 84.114477 
L 327.269872 98.163255 
L 327.679112 105.887314 
L 329.31607 143.566512 
L 329.725309 147.348458 
L 330.134549 149.266991 
L 330.543788 150.21336 
L 330.748408 150.248088 
L 330.953027 149.965905 
L 331.566887 148.604946 
L 331.771506 148.852282 
L 332.180746 150.7263 
L 332.794605 153.600293 
L 332.999225 153.702916 
L 333.203844 153.135864 
L 334.022323 148.587146 
L 334.226943 148.36322 
L 334.431563 148.6003 
L 334.840802 149.989578 
L 335.045422 151.375927 
L 335.454661 156.595538 
L 336.47776 172.789588 
L 337.091619 177.285757 
L 337.500859 178.817762 
L 337.705478 178.893037 
L 337.910098 178.597034 
L 338.933197 175.677402 
L 339.547056 173.511198 
L 339.751676 173.350482 
L 339.956295 173.697261 
L 340.365535 175.704944 
L 340.979394 179.140734 
L 341.388634 180.418421 
L 342.002493 181.23922 
L 342.411732 181.550846 
L 342.616352 181.46008 
L 343.025591 180.726354 
L 343.434831 179.952183 
L 343.84407 179.565676 
L 344.25331 179.46572 
L 344.457929 179.663926 
L 344.867169 180.875658 
L 345.276408 182.044639 
L 345.481028 182.187526 
L 345.685648 182.013426 
L 346.094887 181.018327 
L 346.708746 179.419284 
L 346.913366 179.181135 
L 347.117986 179.115866 
L 347.322606 179.288832 
L 347.527225 179.826322 
L 348.550324 184.461203 
L 348.959563 184.872937 
L 349.573423 184.905243 
L 349.778042 185.258554 
L 351.005761 189.148916 
L 351.21038 189.238757 
L 351.61962 188.861973 
L 352.233479 188.02972 
L 352.642719 186.671701 
L 353.051958 185.170329 
L 353.256578 184.803343 
L 353.461197 184.786763 
L 354.075057 185.262298 
L 354.279676 185.658677 
L 354.688916 187.370185 
L 355.302775 190.194149 
L 355.712014 191.154374 
L 355.916634 190.965512 
L 356.530493 189.364267 
L 356.939733 189.086036 
L 357.758212 188.774311 
L 358.167451 188.237788 
L 358.78131 187.405613 
L 358.98593 187.4858 
L 359.39517 188.577912 
L 360.213648 191.128373 
L 360.622888 191.922947 
L 361.032127 192.063918 
L 361.441367 192.084488 
L 361.850606 192.305306 
L 362.055226 192.214583 
L 362.464465 191.654321 
L 364.101423 188.304436 
L 364.306043 188.295971 
L 364.715282 188.861375 
L 365.124522 189.313419 
L 365.533761 189.495707 
L 366.147621 190.581341 
L 366.35224 190.435004 
L 367.170719 188.688065 
L 367.375339 188.791454 
L 367.989198 189.515578 
L 368.193818 189.484957 
L 369.012297 188.543953 
L 369.216916 188.446892 
L 369.421536 188.031387 
L 370.240015 184.344535 
L 370.444635 184.340794 
L 371.058494 185.37526 
L 371.263114 185.293229 
L 371.672353 184.930833 
L 371.876973 185.032237 
L 372.081593 185.368295 
L 373.309311 188.559518 
L 373.71855 189.047569 
L 374.12779 189.075373 
L 374.33241 188.981713 
L 374.537029 188.751146 
L 374.946269 187.430484 
L 375.355508 186.34763 
L 375.560128 186.475396 
L 376.378607 187.935055 
L 376.583227 187.794586 
L 377.401705 185.923243 
L 377.606325 186.164008 
L 377.810945 186.886162 
L 378.220184 189.572325 
L 378.834044 193.504461 
L 379.447903 195.617302 
L 379.652522 195.889678 
L 379.857142 195.771084 
L 380.266382 194.479114 
L 380.471001 193.834067 
L 380.675621 193.659483 
L 381.28948 194.290248 
L 381.69872 194.13986 
L 382.107959 194.335357 
L 382.312579 194.484666 
L 382.517199 194.467267 
L 382.926438 193.945877 
L 383.540297 193.19108 
L 384.154156 192.74336 
L 384.358776 192.738421 
L 384.563396 192.937014 
L 384.972635 193.577697 
L 385.177255 193.585163 
L 385.381875 193.288058 
L 385.995734 191.873482 
L 386.200354 191.751531 
L 386.814213 191.920967 
L 387.018833 191.88095 
L 387.428072 192.120824 
L 387.632692 192.241796 
L 387.837312 192.070242 
L 388.246551 190.394179 
L 388.65579 188.737814 
L 389.06503 188.160013 
L 389.26965 188.209501 
L 390.088129 189.166259 
L 390.292748 189.112431 
L 390.701988 188.464679 
L 391.520467 186.812947 
L 391.929706 186.12364 
L 392.134326 185.986862 
L 392.338946 186.015495 
L 393.771284 187.016121 
L 394.999002 188.778086 
L 395.203622 188.818571 
L 395.408241 188.567586 
L 395.817481 187.675369 
L 396.022101 187.580131 
L 396.43134 188.270567 
L 396.63596 188.587761 
L 396.84058 188.639953 
L 397.249819 188.530972 
L 397.454439 188.731325 
L 397.863678 189.822096 
L 398.477537 191.572977 
L 398.682157 191.834601 
L 398.886777 191.883747 
L 399.296016 191.548973 
L 400.319115 190.075753 
L 400.523735 190.16786 
L 401.342214 191.262326 
L 401.751453 191.194686 
L 402.160692 190.605752 
L 402.569932 189.846418 
L 402.774552 189.856609 
L 403.79765 191.366811 
L 404.616129 192.003879 
L 404.820749 191.57601 
L 405.843848 187.790214 
L 406.048467 187.753328 
L 406.457707 188.291881 
L 406.866946 189.194248 
L 407.480805 190.82187 
L 407.685425 190.915858 
L 408.299284 190.487338 
L 408.503904 190.515807 
L 408.708524 190.749612 
L 410.550101 194.494174 
L 410.754721 194.292575 
L 411.16396 193.116464 
L 412.187059 189.491723 
L 412.391679 189.252695 
L 412.596298 189.343837 
L 413.210158 190.344365 
L 413.414777 190.180182 
L 414.233256 188.171523 
L 414.437876 188.841277 
L 415.051735 191.607726 
L 415.460975 191.729835 
L 416.074834 191.877803 
L 416.484073 191.328765 
L 417.097932 190.386625 
L 417.711792 190.109906 
L 418.93951 188.047832 
L 419.757989 187.537651 
L 419.962609 187.652848 
L 420.371848 188.524641 
L 420.985707 190.942648 
L 421.394947 192.307312 
L 421.804186 192.813632 
L 422.213426 192.885687 
L 422.622665 192.588307 
L 423.031905 191.88768 
L 423.441144 190.28185 
L 424.055003 187.349551 
L 424.464243 186.531742 
L 424.873482 186.031165 
L 425.487341 185.031526 
L 425.691961 185.079959 
L 425.896581 185.456154 
L 426.919679 188.93373 
L 427.328919 189.308694 
L 427.942778 189.632884 
L 428.352017 189.858889 
L 428.761257 189.990121 
L 429.579736 191.071347 
L 430.398215 190.335237 
L 430.807454 189.888542 
L 431.830553 187.705275 
L 432.035173 187.617943 
L 432.239792 187.882534 
L 432.649032 189.516627 
L 433.262891 192.252316 
L 433.67213 192.984247 
L 433.87675 192.957246 
L 434.08137 192.69158 
L 434.490609 191.407788 
L 434.899849 189.944968 
L 435.104468 189.67133 
L 435.309088 189.790035 
L 435.718328 190.339694 
L 435.922947 190.386482 
L 436.536807 190.130216 
L 436.741426 190.274723 
L 437.150666 190.843372 
L 437.355285 190.869519 
L 437.764525 190.39304 
L 437.969145 190.383428 
L 438.583004 190.921114 
L 438.787624 190.776846 
L 439.401483 190.055988 
L 440.015342 190.4227 
L 440.219962 189.929258 
L 440.629201 187.570672 
L 441.24306 183.854116 
L 441.6523 182.824752 
L 442.061539 182.137432 
L 442.266159 181.995521 
L 442.470779 182.183356 
L 443.493877 184.430215 
L 444.312356 184.944521 
L 445.130835 186.256089 
L 445.335455 186.18278 
L 445.744694 185.223116 
L 446.153934 184.220785 
L 446.358553 184.043307 
L 446.563173 184.100489 
L 446.767793 184.36493 
L 448.404751 188.293583 
L 449.01861 190.472326 
L 449.22323 190.827267 
L 450.041708 191.465955 
L 450.655568 192.928114 
L 451.064807 193.151294 
L 451.474047 193.26048 
L 452.292525 194.22382 
L 452.497145 193.918296 
L 452.906385 192.24123 
L 453.929483 185.403134 
L 454.134103 185.269316 
L 454.338723 185.855583 
L 454.952582 188.635151 
L 455.157202 188.702039 
L 455.975681 187.486722 
L 456.1803 187.20419 
L 457.203399 184.774739 
L 457.408019 185.049169 
L 458.431117 188.11178 
L 458.635737 188.563312 
L 459.863455 193.065704 
L 460.272695 193.643626 
L 460.477315 193.671955 
L 460.886554 193.410133 
L 461.500413 192.608376 
L 461.909653 191.757269 
L 462.318892 190.888237 
L 462.523512 190.829838 
L 462.728132 191.317723 
L 463.341991 194.145571 
L 463.54661 194.188055 
L 464.365089 192.593085 
L 464.569709 192.434765 
L 464.774329 192.049169 
L 465.183568 190.389406 
L 465.797427 187.972007 
L 466.002047 187.480488 
L 466.206667 187.288729 
L 466.411287 187.527218 
L 467.025146 189.22794 
L 467.229766 189.474415 
L 467.843625 189.589971 
L 468.048244 189.974308 
L 470.094442 196.117866 
L 470.299061 195.985426 
L 470.708301 194.532752 
L 471.52678 191.210908 
L 472.959118 187.428817 
L 473.163738 187.236634 
L 473.368357 187.200532 
L 473.572977 187.290296 
L 473.982217 187.936453 
L 474.391456 188.447286 
L 474.596076 188.362938 
L 475.005315 188.011052 
L 475.209935 188.036321 
L 476.233034 189.003741 
L 476.846893 190.201809 
L 477.256132 191.061823 
L 477.460752 191.203332 
L 478.279231 191.163059 
L 479.09771 192.26397 
L 479.506949 191.541892 
L 479.916189 190.602385 
L 480.120808 190.425075 
L 480.325428 190.596302 
L 481.143907 192.048602 
L 481.348527 191.671948 
L 481.962386 189.828525 
L 482.371625 188.986319 
L 483.190104 186.687854 
L 483.394724 186.582651 
L 483.599344 186.800248 
L 484.008583 187.979571 
L 484.417823 189.151226 
L 485.031682 190.007676 
L 485.850161 190.728846 
L 486.46402 191.902731 
L 486.873259 191.998273 
L 487.896358 191.656131 
L 488.305597 191.905814 
L 488.714837 192.160844 
L 488.919457 192.065565 
L 489.124076 191.671673 
L 489.942555 188.70819 
L 490.147175 188.676829 
L 490.556414 188.882169 
L 491.170274 188.770438 
L 491.988752 189.583952 
L 492.193372 189.544323 
L 492.397992 189.305081 
L 492.807231 188.23345 
L 493.62571 185.503016 
L 493.83033 185.45263 
L 494.03495 185.871845 
L 494.444189 187.753373 
L 494.853429 189.710961 
L 495.058048 190.197152 
L 495.262668 190.174575 
L 495.467288 189.682898 
L 496.285767 186.835398 
L 496.490386 186.76268 
L 496.695006 187.163843 
L 497.104246 189.321434 
L 497.718105 193.205831 
L 497.922725 193.645964 
L 498.945823 194.060399 
L 499.150443 193.794382 
L 499.968922 191.9525 
L 500.378161 191.628024 
L 500.582781 191.6972 
L 501.19664 192.545833 
L 501.810499 193.333766 
L 502.015119 193.38214 
L 502.219739 193.160392 
L 502.628978 192.212713 
L 503.038218 190.548343 
L 503.652077 186.790132 
L 503.856697 186.405667 
L 504.061316 186.487292 
L 504.675176 187.305714 
L 505.084415 188.372568 
L 505.289035 188.633281 
L 505.493654 188.608788 
L 505.902894 188.283435 
L 506.107514 188.291573 
L 506.516753 188.865104 
L 506.925993 189.567718 
L 507.130612 189.617229 
L 507.335232 189.262335 
L 508.76757 184.637258 
L 508.97219 184.549268 
L 509.381429 185.030552 
L 509.586049 185.279939 
L 509.790669 185.228292 
L 510.404528 183.921933 
L 510.609148 183.879525 
L 511.427627 184.5505 
L 511.632246 185.296818 
L 512.450725 190.109837 
L 512.655345 190.298073 
L 512.859965 190.166822 
L 513.269204 189.651405 
L 513.473824 189.615087 
L 514.292303 190.119704 
L 514.496922 189.829533 
L 514.906162 188.139965 
L 515.315401 186.014442 
L 515.520021 185.416564 
L 515.724641 185.279539 
L 515.929261 185.570113 
L 516.3385 187.075459 
L 517.156979 191.056527 
L 517.361599 191.521924 
L 517.566218 191.622908 
L 517.770838 191.393121 
L 518.180078 190.108139 
L 518.589317 188.965658 
L 518.793937 188.958861 
L 519.203176 189.653165 
L 519.612416 190.747978 
L 520.430895 193.856031 
L 521.044754 197.832656 
L 521.249373 198.407557 
L 521.453993 198.356216 
L 522.272472 196.016143 
L 522.886331 195.372233 
L 524.318669 191.896138 
L 524.727909 190.767529 
L 525.137148 189.446185 
L 525.546388 188.82681 
L 525.751007 188.774628 
L 525.955627 188.921806 
L 527.387965 191.219217 
L 528.001824 192.431277 
L 528.206444 192.510115 
L 528.411064 192.304967 
L 529.638782 189.787635 
L 530.048022 188.93837 
L 530.252641 188.758207 
L 530.457261 188.759287 
L 530.866501 189.233905 
L 531.27574 189.785176 
L 531.889599 190.385587 
L 532.298839 190.676991 
L 532.503458 190.568045 
L 532.912698 190.020156 
L 533.321937 189.126282 
L 533.935796 186.974162 
L 534.140416 186.679411 
L 534.345036 186.660481 
L 534.549656 186.838731 
L 535.163515 187.849996 
L 535.368135 187.833581 
L 535.572754 187.523375 
L 536.391233 185.227859 
L 536.595853 185.054414 
L 536.800473 185.177325 
L 537.414332 185.8583 
L 538.43743 186.82249 
L 539.255909 188.627875 
L 539.460529 188.575955 
L 540.074388 187.988406 
L 540.279008 188.188588 
L 540.483628 188.757723 
L 540.892867 190.955969 
L 541.302107 193.107588 
L 541.506726 193.607024 
L 541.711346 193.756262 
L 541.915966 193.603292 
L 542.529825 192.250753 
L 542.734445 192.169308 
L 543.143684 192.264752 
L 543.348304 191.917641 
L 543.757543 190.116194 
L 544.576022 185.994804 
L 544.985262 185.294535 
L 545.189881 185.211836 
L 545.803741 185.35573 
L 546.4176 185.176855 
L 546.826839 185.787306 
L 547.236079 186.420298 
L 547.849938 186.991536 
L 548.259177 188.220459 
L 548.873037 190.737417 
L 549.486896 191.922607 
L 549.896135 192.428862 
L 550.100755 192.563361 
L 550.305375 192.522391 
L 550.509994 192.192316 
L 551.533093 189.149207 
L 551.942332 189.023148 
L 552.351572 189.09552 
L 552.556192 189.324046 
L 552.760811 189.766564 
L 553.170051 191.427941 
L 553.57929 193.211217 
L 553.98853 193.970208 
L 554.193149 193.939979 
L 554.602389 193.204283 
L 555.625488 190.980176 
L 556.034727 189.879721 
L 556.239347 189.670501 
L 556.853206 189.729973 
L 557.876305 188.867317 
L 558.080924 188.915193 
L 558.285544 189.198883 
L 558.899403 190.926581 
L 559.104023 191.062784 
L 559.308643 190.896711 
L 559.717882 189.893205 
L 560.9456 186.211967 
L 561.764079 185.483751 
L 561.968699 185.473591 
L 562.173319 185.70953 
L 562.582558 187.049926 
L 563.196417 189.740371 
L 563.401037 190.166736 
L 563.605657 190.186045 
L 563.810277 189.861192 
L 564.219516 188.508342 
L 564.628755 186.889902 
L 564.833375 186.509356 
L 565.037995 186.494987 
L 565.447234 186.99987 
L 565.856474 187.928765 
L 566.265713 188.847043 
L 566.470333 188.769989 
L 567.084192 187.437278 
L 567.288812 187.654228 
L 567.698051 189.795306 
L 568.107291 192.227245 
L 568.311911 192.552139 
L 568.51653 192.079807 
L 569.539629 187.391462 
L 569.948868 186.259851 
L 570.358108 184.794833 
L 570.562728 184.524614 
L 570.971967 184.824094 
L 571.995066 185.57121 
L 572.199685 185.257741 
L 572.608925 183.446527 
L 573.018164 181.30315 
L 573.222784 180.795803 
L 573.427404 180.901318 
L 574.245883 183.121282 
L 574.859742 183.870656 
L 575.268981 185.11698 
L 576.4967 189.869045 
L 576.701319 189.592207 
L 577.724418 186.726487 
L 577.929038 186.606974 
L 578.338277 186.768418 
L 578.952136 187.262729 
L 579.361376 188.307654 
L 579.770615 189.57561 
L 579.975235 189.6692 
L 580.793714 188.620595 
L 581.202953 188.737495 
L 581.407573 188.978334 
L 581.816813 189.99173 
L 582.226052 191.15334 
L 582.430672 191.331587 
L 582.635291 191.171391 
L 583.65839 189.360025 
L 584.06763 189.300949 
L 584.476869 189.712506 
L 584.886108 190.188579 
L 585.090728 190.148735 
L 585.499968 189.23901 
L 585.704587 188.79741 
L 585.909207 188.660185 
L 586.113827 188.932311 
L 586.727686 190.420622 
L 586.932306 190.3038 
L 587.341545 189.277677 
L 587.955404 187.431562 
L 588.160024 187.381213 
L 588.364644 187.869386 
L 588.773883 190.304858 
L 589.387742 194.357013 
L 589.796982 196.011236 
L 591.0247 198.353419 
L 591.22932 197.783943 
L 591.638559 195.525084 
L 592.252419 190.208346 
L 592.661658 187.076592 
L 592.866278 186.401228 
L 593.070898 186.263233 
L 593.480137 186.45156 
L 594.093996 186.219564 
L 594.298616 186.604213 
L 594.707855 188.542513 
L 595.321715 191.347546 
L 595.730954 192.304319 
L 595.935574 192.403312 
L 596.344813 192.155871 
L 596.754053 191.68254 
L 597.163292 191.196778 
L 597.367912 191.455188 
L 598.39101 194.832998 
L 598.59563 195.105905 
L 598.80025 195.141072 
L 599.00487 194.902786 
L 600.027968 192.247035 
L 601.051067 188.112144 
L 601.255687 188.055358 
L 601.460306 188.155053 
L 601.664926 188.405688 
L 602.074165 189.69551 
L 602.892644 193.054579 
L 603.097264 193.349584 
L 603.301884 193.338671 
L 603.506504 193.080682 
L 603.711123 192.503078 
L 604.120363 190.315446 
L 604.529602 188.040341 
L 604.734222 187.49825 
L 604.938842 187.535765 
L 605.348081 188.761904 
L 605.96194 191.751871 
L 606.37118 193.703842 
L 606.575799 194.098696 
L 606.780419 194.056407 
L 606.985039 193.873611 
L 607.189659 193.943348 
L 608.008138 195.763602 
L 608.212757 195.293614 
L 608.621997 192.915302 
L 609.235856 189.177924 
L 609.440476 188.723429 
L 609.645095 188.706357 
L 609.849715 188.992392 
L 610.463574 190.36792 
L 610.872814 190.521574 
L 611.077433 190.641929 
L 612.919011 193.754844 
L 613.32825 195.127861 
L 613.94211 198.226233 
L 614.351349 198.938694 
L 615.169828 200.051178 
L 615.783687 199.828874 
L 615.988307 199.639336 
L 616.192927 199.147615 
L 616.602166 196.944389 
L 617.216025 193.61207 
L 618.034504 191.313395 
L 618.443744 190.615315 
L 618.648363 190.638404 
L 619.262223 191.471435 
L 619.466842 191.419462 
L 620.080701 190.358977 
L 620.285321 190.49332 
L 620.694561 190.96884 
L 620.89918 190.914528 
L 621.1038 190.673631 
L 621.51304 189.608344 
L 621.922279 188.482906 
L 622.126899 188.247361 
L 622.536138 188.260528 
L 622.945378 188.60706 
L 623.559237 189.682521 
L 623.763857 189.694914 
L 623.968476 189.388135 
L 624.377716 187.846224 
L 624.991575 185.023428 
L 625.400814 184.153967 
L 625.605434 184.308556 
L 626.219293 185.980141 
L 626.833152 188.013906 
L 627.037772 188.643212 
L 627.242392 188.873383 
L 627.447012 188.657514 
L 628.060871 187.443063 
L 628.265491 187.352622 
L 628.67473 187.45056 
L 629.083969 187.20683 
L 630.107068 186.401431 
L 630.311688 186.674673 
L 630.720927 187.959385 
L 631.334786 190.24042 
L 631.539406 190.640308 
L 631.744026 190.755058 
L 632.971744 190.075507 
L 633.176364 190.210473 
L 633.790223 191.130868 
L 633.994843 191.192921 
L 634.199463 190.968272 
L 635.222561 188.758379 
L 635.427181 188.728638 
L 635.83642 188.895789 
L 636.24566 188.803315 
L 636.45028 188.888738 
L 636.859519 189.251645 
L 637.064139 189.131693 
L 637.473378 188.547702 
L 637.677998 188.501697 
L 638.087237 188.648806 
L 638.291857 188.469658 
L 638.701097 187.29193 
L 639.314956 185.091436 
L 639.724195 184.341411 
L 639.928815 184.489252 
L 640.338054 185.842606 
L 640.747294 187.58584 
L 640.951914 188.088761 
L 641.156533 188.124396 
L 641.770392 186.755212 
L 641.975012 186.781984 
L 642.384252 187.801742 
L 642.998111 189.654465 
L 643.202731 189.691059 
L 643.40735 189.31198 
L 643.81659 187.705318 
L 644.430449 185.121381 
L 644.635069 184.815615 
L 645.248928 184.715215 
L 645.862787 184.656758 
L 646.476646 184.491556 
L 646.681266 184.726805 
L 646.885886 185.318564 
L 648.113604 190.614587 
L 648.522843 191.420809 
L 648.727463 191.381387 
L 649.136703 190.563943 
L 650.159801 187.309686 
L 650.364421 186.984763 
L 650.569041 186.936158 
L 650.77366 187.298582 
L 651.1829 188.963009 
L 651.796759 191.355018 
L 652.001379 191.502967 
L 652.205999 191.249465 
L 652.819858 189.98567 
L 653.229097 189.495155 
L 653.433717 189.438146 
L 653.638337 189.696631 
L 654.047576 191.528211 
L 654.252196 192.507088 
L 654.456816 192.889024 
L 654.661435 192.551207 
L 656.093773 187.061828 
L 656.503013 186.164497 
L 656.707633 186.188478 
L 657.526111 187.773367 
L 657.935351 187.901335 
L 658.34459 188.266266 
L 658.54921 188.187137 
L 658.95845 187.666415 
L 659.367689 187.524842 
L 659.776928 186.876198 
L 659.981548 186.541351 
L 660.186168 186.431328 
L 660.800027 186.493117 
L 661.209267 186.41063 
L 661.413886 186.614896 
L 661.823126 187.674584 
L 662.232365 188.790022 
L 662.436985 188.921835 
L 663.255464 188.387726 
L 663.460084 187.898108 
L 663.869323 185.932525 
L 664.483182 182.906998 
L 664.892422 181.471465 
L 665.097041 181.166084 
L 665.301661 181.129974 
L 665.710901 181.426379 
L 666.32476 182.292977 
L 666.733999 183.516205 
L 667.347858 185.666891 
L 667.757098 187.415298 
L 668.575577 192.008449 
L 668.780196 192.463937 
L 668.984816 192.470402 
L 669.598675 191.613417 
L 670.417154 190.314622 
L 670.621774 190.628808 
L 671.031013 192.120826 
L 671.440253 193.969634 
L 671.849492 194.692837 
L 672.054112 194.694093 
L 672.258732 194.441723 
L 672.667971 193.140206 
L 673.28183 191.080602 
L 673.69107 190.291432 
L 673.89569 190.254349 
L 674.304929 190.39996 
L 674.509549 190.210043 
L 674.918788 189.224693 
L 675.328028 188.040285 
L 675.737267 187.640961 
L 675.941887 187.677596 
L 676.146507 187.900554 
L 676.760366 188.903805 
L 678.192704 189.617035 
L 678.397324 189.383291 
L 679.011183 188.187577 
L 679.215802 188.103244 
L 679.625042 188.31508 
L 680.034281 189.079189 
L 680.443521 189.914282 
L 680.648141 190.008051 
L 681.05738 189.581688 
L 681.671239 188.836389 
L 681.875859 188.783039 
L 682.080479 188.914841 
L 682.694338 189.678184 
L 682.898958 189.615916 
L 683.922056 188.231374 
L 684.126676 188.434813 
L 684.535915 189.463169 
L 685.559014 192.591991 
L 686.786732 193.783234 
L 687.400592 195.146294 
L 688.014451 195.394164 
L 688.83293 196.839173 
L 689.037549 196.791863 
L 689.446789 196.027257 
L 690.265268 193.83658 
L 691.902226 188.956658 
L 692.106845 189.00347 
L 692.516085 189.555489 
L 692.720704 189.368757 
L 693.129944 187.494355 
L 693.539183 185.575847 
L 693.948423 184.647237 
L 694.153043 184.44499 
L 694.357662 184.501339 
L 694.562282 184.866853 
L 695.585381 187.852312 
L 695.99462 188.170262 
L 696.813099 189.287567 
L 697.017719 188.935696 
L 697.426958 187.03127 
L 697.836198 184.880391 
L 698.040817 184.378644 
L 698.245437 184.277193 
L 698.654677 184.452054 
L 698.859296 184.37243 
L 699.063916 184.048692 
L 699.268536 183.286665 
L 699.677775 180.185039 
L 700.087015 176.959829 
L 700.496254 175.385315 
L 700.905494 174.077275 
L 701.519353 170.816216 
L 701.723972 170.420824 
L 701.928592 170.451143 
L 702.542451 171.191263 
L 702.951691 171.648916 
L 703.156311 171.597798 
L 703.77017 170.917689 
L 703.974789 171.145586 
L 704.384029 172.73839 
L 704.793268 174.051266 
L 705.407128 174.592325 
L 705.816367 175.91682 
L 706.430226 179.012055 
L 707.044085 181.937961 
L 707.248705 182.184446 
L 707.453325 181.809814 
L 707.862564 179.316843 
L 708.681043 170.534436 
L 709.908762 158.104585 
L 710.318001 156.054932 
L 710.72724 155.011659 
L 711.3411 154.538718 
L 711.954959 152.984398 
L 712.159579 153.096775 
L 712.364198 153.926325 
L 712.773438 157.91495 
L 714.205776 175.686681 
L 714.615015 178.425076 
L 714.819635 178.799548 
L 715.024255 178.778329 
L 715.228874 178.612437 
L 715.433494 178.248779 
L 715.842734 176.447975 
L 716.456593 173.221822 
L 718.093551 167.816824 
L 718.50279 167.114092 
L 718.70741 166.910239 
L 719.116649 165.94648 
L 719.525889 164.807973 
L 719.730508 164.677175 
L 719.935128 165.011314 
L 720.344368 166.890218 
L 720.958227 170.155852 
L 721.776706 172.798256 
L 722.185945 173.921456 
L 722.595185 175.866093 
L 723.209044 178.824157 
L 723.618283 180.052174 
L 724.436762 183.167347 
L 724.846002 183.652348 
L 726.27834 187.120211 
L 726.482959 186.899384 
L 727.096819 185.77 
L 727.506058 185.035501 
L 728.324537 183.245661 
L 729.143016 182.616967 
L 729.552255 182.978069 
L 729.961495 183.854722 
L 731.189213 187.21075 
L 731.393833 187.423461 
L 731.598453 187.36735 
L 732.416931 186.294073 
L 732.621551 186.468863 
L 733.030791 187.570022 
L 733.44003 188.819778 
L 733.64465 189.013487 
L 733.84927 188.856829 
L 734.258509 187.918959 
L 734.872368 186.351184 
L 735.076988 186.337355 
L 735.486227 187.013056 
L 736.100087 187.91944 
L 736.713946 188.64308 
L 736.918565 188.544447 
L 737.327805 187.499158 
L 738.760143 182.511051 
L 738.964763 182.688106 
L 739.987861 185.635727 
L 740.192481 185.654788 
L 740.601721 184.955524 
L 741.21558 183.871893 
L 741.829439 183.000508 
L 742.238678 182.180357 
L 742.443298 182.049905 
L 743.057157 182.364074 
L 743.261777 182.261775 
L 743.466397 181.954104 
L 744.080256 180.363517 
L 744.284876 180.168096 
L 744.489495 180.225469 
L 745.103355 180.987831 
L 745.512594 182.021934 
L 746.126453 184.202536 
L 746.535693 184.721094 
L 746.740312 185.262576 
L 747.354172 187.912851 
L 747.968031 188.935942 
L 748.17265 189.145995 
L 748.37727 189.024548 
L 748.58189 188.411969 
L 749.195749 185.444686 
L 749.400369 185.049446 
L 750.014228 184.661258 
L 750.423467 183.382206 
L 750.832707 181.862263 
L 751.855806 179.210111 
L 752.060425 179.145231 
L 752.265045 179.452378 
L 753.083524 181.980708 
L 753.288144 182.002622 
L 753.902003 181.101613 
L 754.515862 181.275312 
L 754.720482 180.989108 
L 755.129721 179.540012 
L 756.357439 174.538043 
L 756.766679 174.239852 
L 757.380538 173.32645 
L 757.789778 173.181915 
L 758.403637 172.618208 
L 759.017496 173.51018 
L 759.631355 172.511879 
L 760.040595 171.494255 
L 760.449834 170.089549 
L 760.654454 169.819485 
L 760.859073 170.056576 
L 761.268313 171.664412 
L 761.882172 174.633509 
L 762.086792 174.943511 
L 762.291412 174.562261 
L 762.905271 171.411206 
L 764.542229 162.749633 
L 765.156088 161.337845 
L 766.383806 158.905311 
L 767.406905 156.05885 
L 767.816144 155.856297 
L 768.225384 155.749784 
L 768.634623 155.621274 
L 768.839243 155.658717 
L 769.043863 155.510865 
L 769.248482 154.902494 
L 769.657722 152.200927 
L 770.066961 149.554022 
L 770.476201 148.551852 
L 770.88544 148.135759 
L 771.09006 147.76988 
L 771.499299 146.153318 
L 772.727018 139.431515 
L 773.750116 132.736249 
L 774.159356 131.393998 
L 774.363975 131.445166 
L 774.773215 132.581087 
L 775.182454 134.475019 
L 775.591694 137.764602 
L 776.614792 148.03252 
L 778.45637 163.637174 
L 778.66099 163.931541 
L 778.865609 163.665759 
L 779.479469 162.168833 
L 779.684088 162.333801 
L 780.093328 163.933669 
L 780.911807 167.457028 
L 781.321046 168.407928 
L 781.730286 168.839866 
L 781.934905 169.342242 
L 782.344145 171.294434 
L 783.162624 175.69125 
L 783.367243 175.980839 
L 783.571863 175.832662 
L 785.208821 172.77131 
L 785.61806 171.671867 
L 786.0273 169.935463 
L 786.641159 167.140734 
L 787.868877 164.525261 
L 788.482737 162.546211 
L 788.687356 162.415342 
L 788.891976 162.649574 
L 789.301216 163.555803 
L 789.505835 163.66259 
L 789.710455 163.340236 
L 790.324314 160.983475 
L 790.733554 159.878078 
L 790.938173 159.855054 
L 791.347413 160.571873 
L 793.18899 165.07229 
L 793.59823 165.865385 
L 794.212089 167.606528 
L 794.621328 168.055706 
L 795.030568 168.134127 
L 795.439807 168.076555 
L 795.849047 168.307207 
L 796.053666 168.661608 
L 796.462906 170.461263 
L 796.872145 171.838893 
L 797.076765 171.593998 
L 797.486005 169.658943 
L 798.099864 166.615204 
L 798.304483 166.315512 
L 798.509103 166.532007 
L 798.713723 167.291867 
L 799.327582 171.854929 
L 799.736822 174.319337 
L 800.146061 175.811183 
L 800.350681 176.121006 
L 800.5553 176.046868 
L 800.96454 175.005051 
L 801.783019 171.773598 
L 802.806117 166.777064 
L 803.010737 166.774237 
L 803.829216 168.328299 
L 804.443075 167.903559 
L 804.647695 168.12161 
L 805.056934 169.67049 
L 805.466174 171.309011 
L 805.670794 171.725056 
L 805.875413 171.766669 
L 806.284653 170.899276 
L 806.693892 170.129086 
L 807.103132 169.816292 
L 807.716991 169.612457 
L 808.33085 169.639643 
L 808.944709 169.414081 
L 809.149329 169.012639 
L 809.558568 167.162162 
L 810.377047 161.536532 
L 811.195526 154.911477 
L 811.604766 153.434072 
L 811.809385 153.176905 
L 812.014005 153.33503 
L 812.218625 153.976151 
L 812.627864 156.424888 
L 813.241724 160.62034 
L 813.650963 161.527804 
L 814.060202 162.255293 
L 815.083301 164.600165 
L 815.492541 166.712835 
L 815.90178 169.340001 
L 816.1064 170.088475 
L 816.311019 170.319041 
L 816.515639 170.121587 
L 817.129498 168.705473 
L 817.743358 168.216955 
L 817.947977 167.752113 
L 818.357217 166.019369 
L 818.971076 163.139746 
L 819.175696 162.588056 
L 819.380315 162.404563 
L 819.994175 162.783025 
L 820.198794 162.680213 
L 820.403414 162.365714 
L 820.812653 160.814979 
L 821.426513 158.003874 
L 821.631132 157.661973 
L 821.835752 157.587544 
L 822.244992 157.945944 
L 822.654231 158.250973 
L 822.858851 158.141698 
L 823.06347 157.758202 
L 823.47271 156.061225 
L 823.881949 154.474228 
L 824.086569 154.376118 
L 824.291189 154.75635 
L 824.905048 157.137602 
L 825.518907 159.413172 
L 825.723527 159.673072 
L 825.928147 159.460496 
L 826.132766 158.728875 
L 826.542006 155.849236 
L 826.951245 152.800628 
L 827.155865 151.884564 
L 827.360485 151.551489 
L 827.565104 151.825698 
L 827.974344 153.729084 
L 828.792823 158.325166 
L 829.611302 162.116857 
L 830.225161 165.287583 
L 830.429781 165.621484 
L 830.83902 165.841925 
L 831.04364 166.400237 
L 831.452879 168.986595 
L 832.271358 175.49941 
L 832.475978 176.045438 
L 832.680598 175.897054 
L 833.089837 174.873036 
L 833.294457 174.903672 
L 833.703696 176.447201 
L 834.112936 177.617123 
L 834.317555 177.684582 
L 835.340654 177.338926 
L 835.749893 176.729703 
L 836.159133 175.951046 
L 836.363753 175.946848 
L 836.568372 176.338986 
L 837.386851 178.680967 
L 837.591471 178.693013 
L 838.20533 178.243048 
L 838.61457 177.860924 
L 838.819189 177.857403 
L 839.637668 178.494262 
L 839.842288 178.246914 
L 840.456147 177.104913 
L 841.070006 176.781351 
L 841.683866 176.097747 
L 842.297725 174.889915 
L 842.502344 174.966355 
L 842.706964 175.595078 
L 843.320823 178.472516 
L 843.525443 178.923199 
L 843.730063 179.02171 
L 844.343922 178.823359 
L 844.548542 179.040005 
L 844.957781 180.441603 
L 845.57164 182.971658 
L 845.77626 183.336784 
L 845.98088 183.437748 
L 846.1855 183.242543 
L 846.390119 182.685493 
L 847.617838 177.752117 
L 848.027077 177.14121 
L 848.436317 176.816877 
L 848.640936 176.35741 
L 848.845556 175.390812 
L 849.254795 171.705854 
L 850.073274 161.310734 
L 850.482514 153.885087 
L 851.710232 125.094658 
L 851.914852 124.256432 
L 852.119472 125.535658 
L 852.528711 132.028168 
L 853.55181 148.985609 
L 854.165669 156.493405 
L 855.188768 164.462233 
L 855.598007 167.150717 
L 856.007246 168.514788 
L 856.825725 170.122524 
L 857.234965 171.659804 
L 857.848824 174.214382 
L 858.053444 174.579883 
L 858.258063 174.696915 
L 858.462683 174.6094 
L 859.485782 173.459759 
L 859.690402 173.436927 
L 859.895021 173.625396 
L 860.50888 174.493772 
L 860.91812 174.523093 
L 861.12274 174.69698 
L 861.736599 175.734658 
L 862.145838 176.092285 
L 862.350458 176.166137 
L 862.759697 175.957535 
L 863.782796 175.005065 
L 863.987416 175.279954 
L 864.396655 176.397018 
L 864.805895 177.657292 
L 865.010514 177.823871 
L 865.215134 177.62402 
L 865.624374 176.827214 
L 865.828993 176.655027 
L 866.033613 176.722971 
L 866.442853 177.417986 
L 867.056712 179.449549 
L 867.670571 181.649516 
L 868.07981 182.30614 
L 868.28443 182.222935 
L 868.48905 181.713163 
L 868.898289 179.379776 
L 869.512148 175.066255 
L 869.921388 173.648708 
L 870.535247 172.620643 
L 870.739867 172.51487 
L 870.944487 172.584011 
L 871.149106 172.874302 
L 871.558346 174.036816 
L 872.172205 175.852069 
L 872.376825 175.959838 
L 872.581444 175.571834 
L 873.399923 172.912817 
L 873.604543 173.065085 
L 873.809163 173.760191 
L 874.627642 178.191672 
L 874.832261 178.17344 
L 875.44612 176.990356 
L 875.65074 177.072177 
L 875.85536 177.507594 
L 876.469219 179.911977 
L 876.673839 180.156265 
L 877.083078 179.87717 
L 877.287698 179.588686 
L 877.696937 178.399769 
L 878.720036 174.619894 
L 880.152374 171.748041 
L 880.356994 171.790997 
L 881.175473 172.497638 
L 881.789332 172.470485 
L 881.993952 172.788293 
L 882.812431 174.823436 
L 883.01705 174.828311 
L 883.835529 174.079101 
L 884.244769 172.291516 
L 884.654008 170.53866 
L 884.858628 170.140258 
L 885.063248 170.065092 
L 885.472487 170.295751 
L 885.677107 170.278222 
L 886.086346 169.916285 
L 886.495586 169.274272 
L 886.904825 167.910816 
L 887.314065 166.124832 
L 887.518684 165.633532 
L 887.723304 165.518817 
L 888.337163 166.053547 
L 888.541783 165.991211 
L 889.360262 165.258097 
L 889.974121 165.449054 
L 890.383361 165.335515 
L 890.7926 165.691333 
L 890.99722 165.909166 
L 891.201839 165.890381 
L 891.406459 165.526881 
L 891.815699 164.040618 
L 892.634178 160.845979 
L 893.043417 159.851601 
L 893.657276 158.921894 
L 894.066516 157.343713 
L 894.680375 153.494127 
L 896.112713 142.233264 
L 896.521952 140.802955 
L 897.545051 138.940921 
L 897.95429 138.54535 
L 898.15891 138.374313 
L 898.36353 137.983802 
L 899.182009 135.23842 
L 899.591248 133.155917 
L 900.000488 130.173787 
L 900.409727 125.783507 
L 900.818967 119.272452 
L 901.842065 98.407327 
L 902.046685 96.914213 
L 902.251305 97.159862 
L 902.660544 101.06887 
L 903.274403 107.329681 
L 903.683643 109.337656 
L 903.888263 109.699363 
L 904.092882 109.62857 
L 904.706741 108.480725 
L 904.911361 108.436692 
L 905.115981 108.877409 
L 905.93446 112.370939 
L 906.13908 112.427454 
L 906.548319 112.343626 
L 906.957558 112.568457 
L 907.162178 112.740787 
L 907.366798 112.74699 
L 907.571418 112.40192 
L 907.980657 110.54723 
L 908.594516 106.805614 
L 908.799136 106.180264 
L 909.003756 106.01792 
L 909.208375 106.33589 
L 909.822235 108.422828 
L 910.026854 108.496953 
L 910.436094 107.913232 
L 910.640713 107.363557 
L 911.049953 105.232926 
L 911.663812 101.289201 
L 911.868432 100.933313 
L 912.073052 101.256363 
L 913.914629 107.106066 
L 914.119249 107.107168 
L 914.323869 106.542792 
L 914.733108 104.013972 
L 915.756207 95.525123 
L 915.960826 95.374085 
L 916.165446 96.320368 
L 916.574686 100.868266 
L 916.983925 105.533876 
L 917.188545 106.432753 
L 917.393164 106.058827 
L 918.211643 101.418243 
L 918.620883 100.052865 
L 918.825503 98.674135 
L 919.234742 93.128894 
L 919.643981 80.80041 
L 920.053221 57.987237 
L 920.66708 15.064181 
L 920.8717 8.80658 
L 921.07632 9.822989 
L 921.485559 26.491525 
L 922.099418 55.503169 
L 922.713277 73.662934 
L 923.327137 85.702701 
L 924.145615 96.877653 
L 924.554855 99.972751 
L 924.964094 101.873768 
L 925.373334 102.7961 
L 925.577954 102.826032 
L 925.987193 102.553642 
L 926.601052 101.768231 
L 927.010292 101.302636 
L 927.419531 100.867099 
L 928.23801 99.317968 
L 928.647249 98.749664 
L 928.851869 98.696398 
L 929.056489 98.953595 
L 929.670348 100.291007 
L 930.898066 101.943649 
L 931.511926 102.088695 
L 932.330405 103.16935 
L 932.739644 102.330901 
L 933.148883 101.58953 
L 933.353503 101.54237 
L 933.558123 101.733238 
L 933.762743 102.261668 
L 933.967362 103.27464 
L 934.376602 107.02026 
L 935.195081 115.898206 
L 935.3997 116.822477 
L 935.60432 117.108896 
L 936.218179 116.90472 
L 936.627419 117.117829 
L 936.832039 116.842088 
L 937.036658 116.020945 
L 938.264377 108.108302 
L 938.468996 107.783626 
L 938.673616 107.748191 
L 939.082856 108.177516 
L 939.492095 108.872814 
L 939.901334 110.680316 
L 940.719813 115.777143 
L 941.333673 117.540689 
L 941.742912 118.547761 
L 942.152151 120.583164 
L 942.766011 124.125853 
L 943.17525 124.966442 
L 943.789109 125.410369 
L 943.993729 125.850667 
L 944.402968 127.658444 
L 945.016828 130.593054 
L 946.449166 134.584177 
L 946.858405 136.34407 
L 947.881504 143.147693 
L 948.086124 142.989814 
L 949.109222 140.0232 
L 949.518462 139.704842 
L 949.723081 139.729119 
L 949.927701 140.030054 
L 950.9508 143.106471 
L 951.564659 143.693224 
L 952.383138 145.359179 
L 952.587757 145.271311 
L 952.996997 144.838529 
L 953.201617 144.837172 
L 954.020096 145.663812 
L 955.043194 147.462801 
L 955.452434 147.580569 
L 955.861673 147.53155 
L 956.066293 147.890591 
L 956.475532 150.0562 
L 957.089391 154.448995 
L 957.498631 155.740156 
L 957.90787 155.948554 
L 958.11249 156.027788 
L 958.52173 156.731943 
L 958.930969 157.4388 
L 960.158687 158.711874 
L 960.567927 159.805815 
L 960.977166 161.464117 
L 961.795645 165.590841 
L 962.614124 167.742298 
L 962.818744 167.685257 
L 963.432603 166.288694 
L 963.637223 166.372741 
L 963.841842 166.634013 
L 964.046462 166.698549 
L 964.251082 166.427608 
L 965.069561 164.62655 
L 965.274181 164.490673 
L 965.4788 164.701312 
L 966.911138 168.17417 
L 967.320378 168.978193 
L 967.729617 170.716391 
L 968.138857 172.577378 
L 968.343476 172.990324 
L 968.548096 173.048827 
L 968.752716 172.863619 
L 969.161955 172.189654 
L 969.366575 172.1206 
L 969.571195 172.55599 
L 969.980434 174.723931 
L 970.594293 178.312927 
L 970.798913 178.804688 
L 971.003533 178.516431 
L 971.412772 176.281447 
L 972.026632 172.763276 
L 972.435871 171.558124 
L 973.04973 170.534105 
L 973.25435 170.426662 
L 973.45897 170.636137 
L 974.072829 171.889636 
L 974.686688 172.207412 
L 974.891308 172.483083 
L 975.095927 173.037946 
L 975.914406 176.357694 
L 976.119026 176.382247 
L 976.528266 175.778685 
L 977.142125 174.539291 
L 977.346744 174.641816 
L 977.551364 175.167936 
L 977.960604 177.067488 
L 978.983702 182.769669 
L 979.188322 183.169017 
L 979.392942 183.288208 
L 979.802181 183.154968 
L 980.211421 182.61708 
L 980.82528 181.175373 
L 981.234519 179.542487 
L 982.052998 175.061922 
L 982.257618 174.607913 
L 982.462238 174.533282 
L 982.666857 174.841365 
L 983.076097 176.25968 
L 983.894576 179.172532 
L 984.508435 180.776703 
L 984.713055 180.806663 
L 985.326914 179.904634 
L 985.736153 179.809376 
L 985.940773 179.618267 
L 986.759252 178.040311 
L 986.963872 177.944358 
L 987.168491 178.016712 
L 987.373111 178.295795 
L 987.98697 180.051838 
L 988.39621 181.196701 
L 988.600829 181.478097 
L 988.805449 181.478241 
L 989.214689 180.780272 
L 989.623928 180.102637 
L 990.033167 179.682765 
L 990.647027 178.684149 
L 990.851646 178.522932 
L 991.056266 178.519987 
L 991.260886 178.738814 
L 992.079365 180.73328 
L 992.283984 180.67298 
L 992.488604 180.371282 
L 992.897844 179.12442 
L 993.511703 176.956155 
L 993.920942 176.46531 
L 994.125562 176.382805 
L 994.330182 176.160634 
L 994.944041 174.93649 
L 995.148661 175.216522 
L 995.96714 177.500594 
L 996.171759 177.664284 
L 996.376379 177.670831 
L 997.194858 177.162663 
L 997.604097 177.664619 
L 997.808717 177.58968 
L 998.217957 176.854743 
L 998.422576 176.985824 
L 998.831816 178.671607 
L 999.445675 181.511176 
L 999.854914 182.419438 
L 1000.264154 182.766701 
L 1000.673393 182.81712 
L 1001.082633 182.747799 
L 1001.491872 182.754567 
L 1001.901112 182.514848 
L 1002.105731 182.265423 
L 1003.12883 179.989791 
L 1003.33345 179.97793 
L 1003.538069 180.463209 
L 1004.356548 184.069087 
L 1005.175027 186.051575 
L 1005.584267 187.03698 
L 1006.607365 190.471252 
L 1006.811985 190.481814 
L 1007.221225 189.822516 
L 1007.630464 189.160919 
L 1008.039703 188.909606 
L 1008.448943 188.138107 
L 1009.062802 186.651133 
L 1009.881281 185.504604 
L 1010.085901 185.711061 
L 1010.49514 187.008049 
L 1010.90438 188.319451 
L 1011.108999 188.681939 
L 1011.313619 188.677373 
L 1011.518239 188.186176 
L 1012.132098 184.934684 
L 1012.541337 183.048929 
L 1012.745957 182.67089 
L 1012.950577 182.78977 
L 1013.359816 183.58974 
L 1013.564436 183.668321 
L 1013.769056 183.39147 
L 1014.382915 181.78404 
L 1014.587535 181.760118 
L 1014.996774 182.779028 
L 1015.610633 184.479058 
L 1016.838352 187.383788 
L 1017.656831 189.867014 
L 1017.86145 189.660451 
L 1018.27069 188.611819 
L 1018.884549 188.164745 
L 1019.498408 186.446599 
L 1019.703028 186.500461 
L 1020.316887 187.684572 
L 1020.521507 187.589782 
L 1021.135366 186.58867 
L 1021.544605 185.656843 
L 1021.749225 185.492191 
L 1022.158465 185.934502 
L 1022.567704 186.272432 
L 1022.772324 186.130337 
L 1023.181563 184.868505 
L 1023.590803 183.328153 
L 1024.000042 182.52015 
L 1024.204662 182.469379 
L 1024.409282 182.748247 
L 1025.023141 184.556837 
L 1025.43238 185.747353 
L 1025.84162 186.346687 
L 1026.046239 186.54163 
L 1026.455479 187.420624 
L 1026.864718 188.371409 
L 1027.273958 188.848435 
L 1027.478577 188.615174 
L 1027.887817 186.574056 
L 1028.297056 184.511359 
L 1028.501676 184.298858 
L 1028.706296 184.736063 
L 1029.115535 186.893521 
L 1030.138634 193.048283 
L 1030.343254 193.420066 
L 1030.547873 193.167463 
L 1031.161733 191.632299 
L 1031.570972 191.313532 
L 1031.980211 191.009412 
L 1032.389451 189.942322 
L 1033.20793 186.595501 
L 1033.41255 186.506225 
L 1033.821789 187.351336 
L 1035.254127 190.353854 
L 1035.458747 190.527068 
L 1035.663367 190.532029 
L 1035.867986 190.293236 
L 1036.277226 188.972023 
L 1036.686465 187.394015 
L 1036.891085 187.012664 
L 1037.300324 186.977254 
L 1037.914184 186.874049 
L 1038.118803 187.132699 
L 1038.528043 188.641324 
L 1038.937282 190.047198 
L 1039.141902 190.193399 
L 1039.346522 189.999345 
L 1040.165001 188.64317 
L 1040.57424 188.146913 
L 1041.188099 187.005854 
L 1041.392719 186.987695 
L 1041.801958 187.356026 
L 1042.006578 187.223406 
L 1042.825057 185.349329 
L 1043.029677 185.636414 
L 1043.438916 186.539127 
L 1043.643536 186.683672 
L 1044.257395 186.334105 
L 1044.462015 186.628404 
L 1045.075874 187.899304 
L 1045.280494 187.887454 
L 1045.689733 187.555978 
L 1045.894353 187.622575 
L 1046.098973 188.02439 
L 1046.508212 189.676044 
L 1046.917452 191.410109 
L 1047.326691 192.17412 
L 1047.531311 192.269855 
L 1047.73593 192.225664 
L 1047.94055 192.001491 
L 1048.34979 190.888394 
L 1048.759029 189.193131 
L 1048.963649 188.860384 
L 1049.168269 189.133956 
L 1049.782128 190.603014 
L 1049.986747 190.69642 
L 1050.395987 190.520918 
L 1050.805226 190.370342 
L 1051.009846 190.758702 
L 1051.419086 192.865172 
L 1052.032945 196.068349 
L 1052.442184 196.889388 
L 1052.646804 196.967914 
L 1052.851424 196.715921 
L 1053.669903 194.441053 
L 1053.874522 194.518761 
L 1054.283762 194.950486 
L 1054.488381 194.852576 
L 1054.693001 194.333218 
L 1055.7161 189.945282 
L 1055.92072 190.024166 
L 1056.329959 190.94495 
L 1056.739198 191.863004 
L 1056.943818 191.882198 
L 1057.353058 190.996446 
L 1058.171537 188.701 
L 1058.785396 186.807175 
L 1058.990015 186.550742 
L 1059.194635 186.540568 
L 1059.808494 186.953499 
L 1060.013114 186.639414 
L 1060.626973 185.09853 
L 1060.831593 185.143579 
L 1061.036213 185.702511 
L 1062.059311 190.834275 
L 1062.263931 190.684236 
L 1062.87779 189.475659 
L 1063.08241 189.430983 
L 1063.491649 189.685488 
L 1063.696269 189.453992 
L 1064.310128 187.443598 
L 1064.514748 187.402968 
L 1065.333227 189.040846 
L 1065.742466 190.618611 
L 1066.970185 196.897506 
L 1067.174804 197.187533 
L 1067.379424 197.123294 
L 1067.584044 196.695782 
L 1067.993283 194.758712 
L 1068.607143 191.720377 
L 1069.016382 190.951807 
L 1069.221002 191.1581 
L 1069.834861 192.981999 
L 1070.039481 192.968813 
L 1070.65334 192.004367 
L 1071.062579 191.834373 
L 1071.267199 191.980347 
L 1071.676438 192.619664 
L 1071.881058 192.720808 
L 1072.085678 192.59334 
L 1072.290298 192.176277 
L 1072.904157 189.519731 
L 1073.313396 187.550535 
L 1073.927255 183.854681 
L 1074.131875 183.380306 
L 1074.541115 183.135997 
L 1074.745734 183.136481 
L 1074.950354 183.378457 
L 1075.564213 185.147723 
L 1076.382692 187.437982 
L 1076.587312 187.418482 
L 1076.791932 187.02284 
L 1077.405791 185.24278 
L 1077.610411 185.18285 
L 1077.81503 185.595006 
L 1078.838129 189.584052 
L 1079.042749 189.531642 
L 1079.451988 189.122279 
L 1079.861228 189.059283 
L 1080.884326 189.400565 
L 1081.293566 189.992246 
L 1081.702805 191.320247 
L 1082.316664 193.674581 
L 1082.521284 194.099566 
L 1082.725904 194.174074 
L 1083.135143 193.599291 
L 1083.749002 192.437316 
L 1084.567481 191.303512 
L 1084.976721 190.573895 
L 1085.18134 190.546576 
L 1085.59058 190.987169 
L 1085.7952 191.210712 
L 1086.613679 191.489688 
L 1087.227538 192.920371 
L 1087.636777 193.754175 
L 1087.841397 193.959437 
L 1088.046017 193.974174 
L 1088.864496 193.287176 
L 1089.273735 192.319709 
L 1089.887594 190.730937 
L 1090.296834 190.202247 
L 1090.910693 189.861506 
L 1091.115313 190.024698 
L 1091.524552 190.58934 
L 1091.729172 190.395539 
L 1092.138411 188.681002 
L 1092.547651 187.250153 
L 1092.75227 187.072419 
L 1093.16151 187.087109 
L 1093.36613 186.934459 
L 1094.184608 185.461138 
L 1094.389228 185.518261 
L 1094.593848 185.802185 
L 1095.003087 187.262147 
L 1095.616947 189.66409 
L 1095.821566 189.917993 
L 1096.026186 189.880174 
L 1096.230806 189.595711 
L 1096.640045 188.302146 
L 1097.049285 186.739258 
L 1097.253904 186.366972 
L 1097.458524 186.342472 
L 1098.072383 186.979285 
L 1098.277003 186.909894 
L 1098.890862 186.146921 
L 1099.300102 186.092779 
L 1099.709341 186.136575 
L 1099.913961 186.128578 
L 1100.73244 186.476122 
L 1101.141679 186.04877 
L 1101.550919 185.988804 
L 1101.960158 186.296824 
L 1102.574017 186.839853 
L 1103.392496 187.268002 
L 1103.801736 186.884563 
L 1104.210975 186.227943 
L 1104.415595 186.131963 
L 1104.620214 186.348992 
L 1105.029454 187.147833 
L 1105.234074 187.317757 
L 1105.643313 187.34081 
L 1105.847933 187.541039 
L 1106.666412 189.261467 
L 1106.871031 189.163975 
L 1107.68951 187.621251 
L 1107.89413 187.789836 
L 1108.507989 188.672919 
L 1109.326468 188.527786 
L 1109.735708 188.791199 
L 1110.144947 189.091502 
L 1110.349567 188.891654 
L 1110.758806 187.589193 
L 1111.168046 186.27054 
L 1111.577285 185.77011 
L 1111.986525 185.714936 
L 1112.395764 186.174969 
L 1112.600384 186.391454 
L 1112.805004 186.318218 
L 1113.418863 185.036134 
L 1113.623482 185.140801 
L 1113.828102 185.779877 
L 1114.237342 188.754392 
L 1114.646581 192.374628 
L 1114.851201 193.321969 
L 1115.055821 193.376725 
L 1115.874299 190.698179 
L 1116.078919 190.589357 
L 1116.283539 190.692715 
L 1116.692778 191.359935 
L 1116.897398 191.718449 
L 1117.102018 191.807549 
L 1117.306638 191.549251 
L 1118.125116 189.687806 
L 1118.329736 189.739401 
L 1118.738976 190.138314 
L 1119.966694 190.513516 
L 1120.375933 190.359242 
L 1120.580553 190.472328 
L 1121.194412 191.230307 
L 1121.399032 191.079135 
L 1121.808272 189.704601 
L 1122.422131 187.139452 
L 1122.83137 186.247089 
L 1123.24061 185.933323 
L 1124.263708 186.194997 
L 1124.468328 186.505948 
L 1125.082187 187.831892 
L 1125.286807 187.941239 
L 1125.491427 188.18791 
L 1125.900666 189.584202 
L 1126.514525 191.508822 
L 1127.333004 193.134695 
L 1127.537624 193.448621 
L 1127.742244 193.541479 
L 1127.946863 193.331905 
L 1128.356103 192.250437 
L 1128.969962 190.711899 
L 1129.788441 189.255874 
L 1130.60692 188.517951 
L 1131.220779 187.349471 
L 1131.425399 187.423372 
L 1131.834638 188.366088 
L 1132.448497 189.721381 
L 1132.653117 189.782875 
L 1133.062357 189.537257 
L 1133.471596 189.517036 
L 1133.676216 189.273337 
L 1134.290075 187.854265 
L 1134.494695 188.165655 
L 1135.108554 189.797619 
L 1135.313174 189.780125 
L 1135.722413 188.929708 
L 1136.131652 187.270414 
L 1136.745512 183.720493 
L 1136.950131 183.421213 
L 1137.154751 183.840553 
L 1137.563991 186.237702 
L 1138.17785 190.443664 
L 1138.587089 192.082668 
L 1138.791709 192.37757 
L 1138.996329 192.345259 
L 1139.405568 192.118662 
L 1139.814808 192.674794 
L 1140.019427 192.932439 
L 1140.224047 192.843966 
L 1140.428667 192.253777 
L 1141.042526 189.453263 
L 1141.247146 189.144991 
L 1141.451765 189.206811 
L 1142.065624 189.949266 
L 1142.679484 189.964049 
L 1143.088723 190.184997 
L 1143.293343 190.18172 
L 1144.111822 189.750562 
L 1144.930301 191.278617 
L 1145.13492 191.351909 
L 1145.33954 191.247351 
L 1146.158019 190.049162 
L 1146.567258 190.03136 
L 1147.181118 189.027587 
L 1147.385737 189.074238 
L 1147.794977 189.567914 
L 1147.999597 189.98585 
L 1148.408836 191.782444 
L 1149.022695 195.269839 
L 1150.045794 198.813132 
L 1150.250414 199.129248 
L 1150.455033 199.049749 
L 1151.068892 197.688712 
L 1151.478132 196.505775 
L 1151.887371 194.12052 
L 1152.91047 187.167912 
L 1153.11509 186.744799 
L 1153.319709 186.836716 
L 1153.728949 188.029615 
L 1154.547428 190.891857 
L 1155.365907 192.634151 
L 1155.775146 193.266802 
L 1155.979766 193.403599 
L 1156.184386 193.337809 
L 1156.798245 192.386843 
L 1157.002865 192.496947 
L 1157.616724 193.595505 
L 1157.821343 193.334731 
L 1158.230583 191.857126 
L 1159.253682 187.62239 
L 1159.458301 187.386349 
L 1159.662921 187.651932 
L 1160.07216 189.252461 
L 1160.4814 190.704507 
L 1160.68602 190.698238 
L 1161.299879 189.440704 
L 1161.504499 189.384808 
L 1161.913738 189.71462 
L 1162.322977 190.135207 
L 1162.527597 190.125736 
L 1162.732217 189.916355 
L 1164.164555 187.139729 
L 1164.778414 185.22667 
L 1164.983034 184.896951 
L 1165.187654 184.880738 
L 1165.392273 185.195463 
L 1166.210752 187.523621 
L 1166.824611 189.237817 
L 1167.233851 189.409572 
L 1167.438471 189.500993 
L 1167.64309 189.799507 
L 1168.666189 192.346824 
L 1169.075428 192.854488 
L 1170.098527 194.58431 
L 1170.712386 193.714597 
L 1170.917006 193.796237 
L 1171.121626 194.016539 
L 1171.326245 193.984449 
L 1171.530865 193.394267 
L 1172.144724 190.144966 
L 1172.349344 189.688909 
L 1172.553964 189.721322 
L 1172.963203 190.801805 
L 1173.781682 193.573897 
L 1173.986302 193.486011 
L 1174.395541 192.955447 
L 1174.600161 192.906628 
L 1175.009401 193.032594 
L 1175.21402 192.904377 
L 1175.41864 192.565223 
L 1175.62326 191.969632 
L 1176.032499 189.739812 
L 1176.646358 186.364819 
L 1176.850978 185.846823 
L 1177.055598 185.706576 
L 1177.260218 185.896882 
L 1177.669457 186.931039 
L 1178.078696 187.970749 
L 1178.283316 188.095112 
L 1179.101795 187.636505 
L 1179.306415 187.372284 
L 1179.715654 186.088234 
L 1180.124894 184.619367 
L 1180.329513 184.347346 
L 1180.738753 184.367704 
L 1181.147992 184.554461 
L 1181.966471 185.364054 
L 1182.375711 185.386495 
L 1182.58033 185.553969 
L 1183.398809 186.98046 
L 1184.012668 186.962612 
L 1184.421908 187.177945 
L 1184.831147 187.812905 
L 1184.831147 187.812905 
" clip-path="url(#pba66e9b3b6)" style="fill: none; stroke: #000000; stroke-width: 2; stroke-linecap: square"/>
   </g>
   <g id="patch_3">
    <path d="M 3.00024 198.907885 
L 1184.99976 198.907885 
" style="fill: none; stroke: #000000; stroke-width: 2; stroke-linejoin: miter; stroke-linecap: square"/>
   </g>
  </g>
 </g>
 <defs>
  <clipPath id="pba66e9b3b6">
   <rect x="3.00024" y="3.00024" width="1181.99952" height="195.907645"/>
  </clipPath>
 </defs>
</svg>
