<?xml version="1.0" encoding="utf-8" standalone="no"?>
<!DOCTYPE svg PUBLIC "-//W3C//DTD SVG 1.1//EN"
  "http://www.w3.org/Graphics/SVG/1.1/DTD/svg11.dtd">
<svg xmlns:xlink="http://www.w3.org/1999/xlink" width="1188pt" height="252pt" viewBox="0 0 1188 252" xmlns="http://www.w3.org/2000/svg" version="1.1">
 <metadata>
  <rdf:RDF xmlns:dc="http://purl.org/dc/elements/1.1/" xmlns:cc="http://creativecommons.org/ns#" xmlns:rdf="http://www.w3.org/1999/02/22-rdf-syntax-ns#">
   <cc:Work>
    <dc:type rdf:resource="http://purl.org/dc/dcmitype/StillImage"/>
    <dc:date>2024-05-13T15:44:35.017210</dc:date>
    <dc:format>image/svg+xml</dc:format>
    <dc:creator>
     <cc:Agent>
      <dc:title>Matplotlib v3.8.0, https://matplotlib.org/</dc:title>
     </cc:Agent>
    </dc:creator>
   </cc:Work>
  </rdf:RDF>
 </metadata>
 <defs>
  <style type="text/css">*{stroke-linejoin: round; stroke-linecap: butt}</style>
 </defs>
 <g id="figure_1">
  <g id="patch_1">
   <path d="M 0 252 
L 1188 252 
L 1188 0 
L 0 0 
z
" style="fill: #ffffff"/>
  </g>
  <g id="axes_1">
   <g id="patch_2">
    <path d="M 3.00024 198.907885 
L 1184.99976 198.907885 
L 1184.99976 3.00024 
L 3.00024 3.00024 
z
" style="fill: #ffffff"/>
   </g>
   <g id="matplotlib.axis_1">
    <g id="xtick_1">
     <g id="line2d_1">
      <defs>
       <path id="m19c143b249" d="M 0 0 
L 0 8 
" style="stroke: #000000; stroke-width: 2"/>
      </defs>
      <g>
       <use xlink:href="#m19c143b249" x="1131.272509" y="198.907885" style="stroke: #000000; stroke-width: 2"/>
      </g>
     </g>
     <g id="text_1">
      <!-- 0 -->
      <g transform="translate(1126.267665 224.791947) scale(0.18 -0.18)">
       <defs>
        <path id="Arial-BoldMT-30" d="M 1756 4600 
Q 2422 4600 2797 4125 
Q 3244 3563 3244 2259 
Q 3244 959 2794 391 
Q 2422 -78 1756 -78 
Q 1088 -78 678 436 
Q 269 950 269 2269 
Q 269 3563 719 4131 
Q 1091 4600 1756 4600 
z
M 1756 3872 
Q 1597 3872 1472 3770 
Q 1347 3669 1278 3406 
Q 1188 3066 1188 2259 
Q 1188 1453 1269 1151 
Q 1350 850 1473 750 
Q 1597 650 1756 650 
Q 1916 650 2041 751 
Q 2166 853 2234 1116 
Q 2325 1453 2325 2259 
Q 2325 3066 2244 3367 
Q 2163 3669 2039 3770 
Q 1916 3872 1756 3872 
z
" transform="scale(0.015625)"/>
       </defs>
       <use xlink:href="#Arial-BoldMT-30"/>
      </g>
     </g>
    </g>
    <g id="xtick_2">
     <g id="line2d_2">
      <g>
       <use xlink:href="#m19c143b249" x="1023.818007" y="198.907885" style="stroke: #000000; stroke-width: 2"/>
      </g>
     </g>
     <g id="text_2">
      <!-- 1 -->
      <g transform="translate(1018.813164 224.791947) scale(0.18 -0.18)">
       <defs>
        <path id="Arial-BoldMT-31" d="M 2519 0 
L 1641 0 
L 1641 3309 
Q 1159 2859 506 2644 
L 506 3441 
Q 850 3553 1253 3867 
Q 1656 4181 1806 4600 
L 2519 4600 
L 2519 0 
z
" transform="scale(0.015625)"/>
       </defs>
       <use xlink:href="#Arial-BoldMT-31"/>
      </g>
     </g>
    </g>
    <g id="xtick_3">
     <g id="line2d_3">
      <g>
       <use xlink:href="#m19c143b249" x="916.363505" y="198.907885" style="stroke: #000000; stroke-width: 2"/>
      </g>
     </g>
     <g id="text_3">
      <!-- 2 -->
      <g transform="translate(911.358662 224.791947) scale(0.18 -0.18)">
       <defs>
        <path id="Arial-BoldMT-32" d="M 3238 816 
L 3238 0 
L 159 0 
Q 209 463 459 877 
Q 709 1291 1447 1975 
Q 2041 2528 2175 2725 
Q 2356 2997 2356 3263 
Q 2356 3556 2198 3714 
Q 2041 3872 1763 3872 
Q 1488 3872 1325 3706 
Q 1163 3541 1138 3156 
L 263 3244 
Q 341 3969 753 4284 
Q 1166 4600 1784 4600 
Q 2463 4600 2850 4234 
Q 3238 3869 3238 3325 
Q 3238 3016 3127 2736 
Q 3016 2456 2775 2150 
Q 2616 1947 2200 1565 
Q 1784 1184 1673 1059 
Q 1563 934 1494 816 
L 3238 816 
z
" transform="scale(0.015625)"/>
       </defs>
       <use xlink:href="#Arial-BoldMT-32"/>
      </g>
     </g>
    </g>
    <g id="xtick_4">
     <g id="line2d_4">
      <g>
       <use xlink:href="#m19c143b249" x="808.909004" y="198.907885" style="stroke: #000000; stroke-width: 2"/>
      </g>
     </g>
     <g id="text_4">
      <!-- 3 -->
      <g transform="translate(803.90416 224.791947) scale(0.18 -0.18)">
       <defs>
        <path id="Arial-BoldMT-33" d="M 241 1216 
L 1091 1319 
Q 1131 994 1309 822 
Q 1488 650 1741 650 
Q 2013 650 2198 856 
Q 2384 1063 2384 1413 
Q 2384 1744 2206 1937 
Q 2028 2131 1772 2131 
Q 1603 2131 1369 2066 
L 1466 2781 
Q 1822 2772 2009 2936 
Q 2197 3100 2197 3372 
Q 2197 3603 2059 3740 
Q 1922 3878 1694 3878 
Q 1469 3878 1309 3722 
Q 1150 3566 1116 3266 
L 306 3403 
Q 391 3819 561 4067 
Q 731 4316 1036 4458 
Q 1341 4600 1719 4600 
Q 2366 4600 2756 4188 
Q 3078 3850 3078 3425 
Q 3078 2822 2419 2463 
Q 2813 2378 3048 2084 
Q 3284 1791 3284 1375 
Q 3284 772 2843 347 
Q 2403 -78 1747 -78 
Q 1125 -78 715 280 
Q 306 638 241 1216 
z
" transform="scale(0.015625)"/>
       </defs>
       <use xlink:href="#Arial-BoldMT-33"/>
      </g>
     </g>
    </g>
    <g id="xtick_5">
     <g id="line2d_5">
      <g>
       <use xlink:href="#m19c143b249" x="701.454502" y="198.907885" style="stroke: #000000; stroke-width: 2"/>
      </g>
     </g>
     <g id="text_5">
      <!-- 4 -->
      <g transform="translate(696.449658 224.791947) scale(0.18 -0.18)">
       <defs>
        <path id="Arial-BoldMT-34" d="M 1994 0 
L 1994 922 
L 119 922 
L 119 1691 
L 2106 4600 
L 2844 4600 
L 2844 1694 
L 3413 1694 
L 3413 922 
L 2844 922 
L 2844 0 
L 1994 0 
z
M 1994 1694 
L 1994 3259 
L 941 1694 
L 1994 1694 
z
" transform="scale(0.015625)"/>
       </defs>
       <use xlink:href="#Arial-BoldMT-34"/>
      </g>
     </g>
    </g>
    <g id="xtick_6">
     <g id="line2d_6">
      <g>
       <use xlink:href="#m19c143b249" x="594" y="198.907885" style="stroke: #000000; stroke-width: 2"/>
      </g>
     </g>
     <g id="text_6">
      <!-- 5 -->
      <g transform="translate(588.995156 224.791947) scale(0.18 -0.18)">
       <defs>
        <path id="Arial-BoldMT-35" d="M 284 1178 
L 1159 1269 
Q 1197 972 1381 798 
Q 1566 625 1806 625 
Q 2081 625 2272 848 
Q 2463 1072 2463 1522 
Q 2463 1944 2273 2155 
Q 2084 2366 1781 2366 
Q 1403 2366 1103 2031 
L 391 2134 
L 841 4519 
L 3163 4519 
L 3163 3697 
L 1506 3697 
L 1369 2919 
Q 1663 3066 1969 3066 
Q 2553 3066 2959 2641 
Q 3366 2216 3366 1538 
Q 3366 972 3038 528 
Q 2591 -78 1797 -78 
Q 1163 -78 763 262 
Q 363 603 284 1178 
z
" transform="scale(0.015625)"/>
       </defs>
       <use xlink:href="#Arial-BoldMT-35"/>
      </g>
     </g>
    </g>
    <g id="xtick_7">
     <g id="line2d_7">
      <g>
       <use xlink:href="#m19c143b249" x="486.545498" y="198.907885" style="stroke: #000000; stroke-width: 2"/>
      </g>
     </g>
     <g id="text_7">
      <!-- 6 -->
      <g transform="translate(481.540654 224.791947) scale(0.18 -0.18)">
       <defs>
        <path id="Arial-BoldMT-36" d="M 3247 3459 
L 2397 3366 
Q 2366 3628 2234 3753 
Q 2103 3878 1894 3878 
Q 1616 3878 1423 3628 
Q 1231 3378 1181 2588 
Q 1509 2975 1997 2975 
Q 2547 2975 2939 2556 
Q 3331 2138 3331 1475 
Q 3331 772 2918 347 
Q 2506 -78 1859 -78 
Q 1166 -78 719 461 
Q 272 1000 272 2228 
Q 272 3488 737 4044 
Q 1203 4600 1947 4600 
Q 2469 4600 2811 4308 
Q 3153 4016 3247 3459 
z
M 1256 1544 
Q 1256 1116 1453 883 
Q 1650 650 1903 650 
Q 2147 650 2309 840 
Q 2472 1031 2472 1466 
Q 2472 1913 2297 2120 
Q 2122 2328 1859 2328 
Q 1606 2328 1431 2129 
Q 1256 1931 1256 1544 
z
" transform="scale(0.015625)"/>
       </defs>
       <use xlink:href="#Arial-BoldMT-36"/>
      </g>
     </g>
    </g>
    <g id="xtick_8">
     <g id="line2d_8">
      <g>
       <use xlink:href="#m19c143b249" x="379.090996" y="198.907885" style="stroke: #000000; stroke-width: 2"/>
      </g>
     </g>
     <g id="text_8">
      <!-- 7 -->
      <g transform="translate(374.086153 224.791947) scale(0.18 -0.18)">
       <defs>
        <path id="Arial-BoldMT-37" d="M 272 3703 
L 272 4519 
L 3275 4519 
L 3275 3881 
Q 2903 3516 2518 2831 
Q 2134 2147 1932 1376 
Q 1731 606 1734 0 
L 888 0 
Q 909 950 1279 1937 
Q 1650 2925 2269 3703 
L 272 3703 
z
" transform="scale(0.015625)"/>
       </defs>
       <use xlink:href="#Arial-BoldMT-37"/>
      </g>
     </g>
    </g>
    <g id="xtick_9">
     <g id="line2d_9">
      <g>
       <use xlink:href="#m19c143b249" x="271.636495" y="198.907885" style="stroke: #000000; stroke-width: 2"/>
      </g>
     </g>
     <g id="text_9">
      <!-- 8 -->
      <g transform="translate(266.631651 224.791947) scale(0.18 -0.18)">
       <defs>
        <path id="Arial-BoldMT-38" d="M 1025 2472 
Q 684 2616 529 2867 
Q 375 3119 375 3419 
Q 375 3931 733 4265 
Q 1091 4600 1750 4600 
Q 2403 4600 2764 4265 
Q 3125 3931 3125 3419 
Q 3125 3100 2959 2851 
Q 2794 2603 2494 2472 
Q 2875 2319 3073 2025 
Q 3272 1731 3272 1347 
Q 3272 713 2867 316 
Q 2463 -81 1791 -81 
Q 1166 -81 750 247 
Q 259 634 259 1309 
Q 259 1681 443 1992 
Q 628 2303 1025 2472 
z
M 1206 3356 
Q 1206 3094 1354 2947 
Q 1503 2800 1750 2800 
Q 2000 2800 2150 2948 
Q 2300 3097 2300 3359 
Q 2300 3606 2151 3754 
Q 2003 3903 1759 3903 
Q 1506 3903 1356 3753 
Q 1206 3603 1206 3356 
z
M 1125 1394 
Q 1125 1031 1311 828 
Q 1497 625 1775 625 
Q 2047 625 2225 820 
Q 2403 1016 2403 1384 
Q 2403 1706 2222 1901 
Q 2041 2097 1763 2097 
Q 1441 2097 1283 1875 
Q 1125 1653 1125 1394 
z
" transform="scale(0.015625)"/>
       </defs>
       <use xlink:href="#Arial-BoldMT-38"/>
      </g>
     </g>
    </g>
    <g id="xtick_10">
     <g id="line2d_10">
      <g>
       <use xlink:href="#m19c143b249" x="164.181993" y="198.907885" style="stroke: #000000; stroke-width: 2"/>
      </g>
     </g>
     <g id="text_10">
      <!-- 9 -->
      <g transform="translate(159.177149 224.791947) scale(0.18 -0.18)">
       <defs>
        <path id="Arial-BoldMT-39" d="M 291 1059 
L 1141 1153 
Q 1172 894 1303 769 
Q 1434 644 1650 644 
Q 1922 644 2112 894 
Q 2303 1144 2356 1931 
Q 2025 1547 1528 1547 
Q 988 1547 595 1964 
Q 203 2381 203 3050 
Q 203 3747 617 4173 
Q 1031 4600 1672 4600 
Q 2369 4600 2816 4061 
Q 3263 3522 3263 2288 
Q 3263 1031 2797 475 
Q 2331 -81 1584 -81 
Q 1047 -81 715 205 
Q 384 491 291 1059 
z
M 2278 2978 
Q 2278 3403 2083 3637 
Q 1888 3872 1631 3872 
Q 1388 3872 1227 3680 
Q 1066 3488 1066 3050 
Q 1066 2606 1241 2398 
Q 1416 2191 1678 2191 
Q 1931 2191 2104 2391 
Q 2278 2591 2278 2978 
z
" transform="scale(0.015625)"/>
       </defs>
       <use xlink:href="#Arial-BoldMT-39"/>
      </g>
     </g>
    </g>
    <g id="xtick_11">
     <g id="line2d_11">
      <g>
       <use xlink:href="#m19c143b249" x="56.727491" y="198.907885" style="stroke: #000000; stroke-width: 2"/>
      </g>
     </g>
     <g id="text_11">
      <!-- 10 -->
      <g transform="translate(46.717803 224.791947) scale(0.18 -0.18)">
       <use xlink:href="#Arial-BoldMT-31"/>
       <use xlink:href="#Arial-BoldMT-30" x="55.615234"/>
      </g>
     </g>
    </g>
    <g id="text_12">
     <!-- Chemical Shift / ppm -->
     <g transform="translate(504.992813 245.447573) scale(0.18 -0.18)">
      <defs>
       <path id="Arial-BoldMT-43" d="M 3397 1684 
L 4294 1400 
Q 4088 650 3608 286 
Q 3128 -78 2391 -78 
Q 1478 -78 890 545 
Q 303 1169 303 2250 
Q 303 3394 893 4026 
Q 1484 4659 2447 4659 
Q 3288 4659 3813 4163 
Q 4125 3869 4281 3319 
L 3366 3100 
Q 3284 3456 3026 3662 
Q 2769 3869 2400 3869 
Q 1891 3869 1573 3503 
Q 1256 3138 1256 2319 
Q 1256 1450 1568 1081 
Q 1881 713 2381 713 
Q 2750 713 3015 947 
Q 3281 1181 3397 1684 
z
" transform="scale(0.015625)"/>
       <path id="Arial-BoldMT-68" d="M 1334 4581 
L 1334 2897 
Q 1759 3394 2350 3394 
Q 2653 3394 2897 3281 
Q 3141 3169 3264 2994 
Q 3388 2819 3433 2606 
Q 3478 2394 3478 1947 
L 3478 0 
L 2600 0 
L 2600 1753 
Q 2600 2275 2550 2415 
Q 2500 2556 2373 2639 
Q 2247 2722 2056 2722 
Q 1838 2722 1666 2615 
Q 1494 2509 1414 2295 
Q 1334 2081 1334 1663 
L 1334 0 
L 456 0 
L 456 4581 
L 1334 4581 
z
" transform="scale(0.015625)"/>
       <path id="Arial-BoldMT-65" d="M 2381 1056 
L 3256 909 
Q 3088 428 2723 176 
Q 2359 -75 1813 -75 
Q 947 -75 531 491 
Q 203 944 203 1634 
Q 203 2459 634 2926 
Q 1066 3394 1725 3394 
Q 2466 3394 2894 2905 
Q 3322 2416 3303 1406 
L 1103 1406 
Q 1113 1016 1316 798 
Q 1519 581 1822 581 
Q 2028 581 2168 693 
Q 2309 806 2381 1056 
z
M 2431 1944 
Q 2422 2325 2234 2523 
Q 2047 2722 1778 2722 
Q 1491 2722 1303 2513 
Q 1116 2303 1119 1944 
L 2431 1944 
z
" transform="scale(0.015625)"/>
       <path id="Arial-BoldMT-6d" d="M 394 3319 
L 1203 3319 
L 1203 2866 
Q 1638 3394 2238 3394 
Q 2556 3394 2790 3262 
Q 3025 3131 3175 2866 
Q 3394 3131 3647 3262 
Q 3900 3394 4188 3394 
Q 4553 3394 4806 3245 
Q 5059 3097 5184 2809 
Q 5275 2597 5275 2122 
L 5275 0 
L 4397 0 
L 4397 1897 
Q 4397 2391 4306 2534 
Q 4184 2722 3931 2722 
Q 3747 2722 3584 2609 
Q 3422 2497 3350 2280 
Q 3278 2063 3278 1594 
L 3278 0 
L 2400 0 
L 2400 1819 
Q 2400 2303 2353 2443 
Q 2306 2584 2207 2653 
Q 2109 2722 1941 2722 
Q 1738 2722 1575 2612 
Q 1413 2503 1342 2297 
Q 1272 2091 1272 1613 
L 1272 0 
L 394 0 
L 394 3319 
z
" transform="scale(0.015625)"/>
       <path id="Arial-BoldMT-69" d="M 459 3769 
L 459 4581 
L 1338 4581 
L 1338 3769 
L 459 3769 
z
M 459 0 
L 459 3319 
L 1338 3319 
L 1338 0 
L 459 0 
z
" transform="scale(0.015625)"/>
       <path id="Arial-BoldMT-63" d="M 3353 2338 
L 2488 2181 
Q 2444 2441 2289 2572 
Q 2134 2703 1888 2703 
Q 1559 2703 1364 2476 
Q 1169 2250 1169 1719 
Q 1169 1128 1367 884 
Q 1566 641 1900 641 
Q 2150 641 2309 783 
Q 2469 925 2534 1272 
L 3397 1125 
Q 3263 531 2881 228 
Q 2500 -75 1859 -75 
Q 1131 -75 698 384 
Q 266 844 266 1656 
Q 266 2478 700 2936 
Q 1134 3394 1875 3394 
Q 2481 3394 2839 3133 
Q 3197 2872 3353 2338 
z
" transform="scale(0.015625)"/>
       <path id="Arial-BoldMT-61" d="M 1116 2306 
L 319 2450 
Q 453 2931 781 3162 
Q 1109 3394 1756 3394 
Q 2344 3394 2631 3255 
Q 2919 3116 3036 2902 
Q 3153 2688 3153 2116 
L 3144 1091 
Q 3144 653 3186 445 
Q 3228 238 3344 0 
L 2475 0 
Q 2441 88 2391 259 
Q 2369 338 2359 363 
Q 2134 144 1878 34 
Q 1622 -75 1331 -75 
Q 819 -75 523 203 
Q 228 481 228 906 
Q 228 1188 362 1408 
Q 497 1628 739 1745 
Q 981 1863 1438 1950 
Q 2053 2066 2291 2166 
L 2291 2253 
Q 2291 2506 2166 2614 
Q 2041 2722 1694 2722 
Q 1459 2722 1328 2630 
Q 1197 2538 1116 2306 
z
M 2291 1594 
Q 2122 1538 1756 1459 
Q 1391 1381 1278 1306 
Q 1106 1184 1106 997 
Q 1106 813 1243 678 
Q 1381 544 1594 544 
Q 1831 544 2047 700 
Q 2206 819 2256 991 
Q 2291 1103 2291 1419 
L 2291 1594 
z
" transform="scale(0.015625)"/>
       <path id="Arial-BoldMT-6c" d="M 459 0 
L 459 4581 
L 1338 4581 
L 1338 0 
L 459 0 
z
" transform="scale(0.015625)"/>
       <path id="Arial-BoldMT-20" transform="scale(0.015625)"/>
       <path id="Arial-BoldMT-53" d="M 231 1491 
L 1131 1578 
Q 1213 1125 1461 912 
Q 1709 700 2131 700 
Q 2578 700 2804 889 
Q 3031 1078 3031 1331 
Q 3031 1494 2936 1608 
Q 2841 1722 2603 1806 
Q 2441 1863 1863 2006 
Q 1119 2191 819 2459 
Q 397 2838 397 3381 
Q 397 3731 595 4036 
Q 794 4341 1167 4500 
Q 1541 4659 2069 4659 
Q 2931 4659 3367 4281 
Q 3803 3903 3825 3272 
L 2900 3231 
Q 2841 3584 2645 3739 
Q 2450 3894 2059 3894 
Q 1656 3894 1428 3728 
Q 1281 3622 1281 3444 
Q 1281 3281 1419 3166 
Q 1594 3019 2269 2859 
Q 2944 2700 3267 2529 
Q 3591 2359 3773 2064 
Q 3956 1769 3956 1334 
Q 3956 941 3737 597 
Q 3519 253 3119 86 
Q 2719 -81 2122 -81 
Q 1253 -81 787 320 
Q 322 722 231 1491 
z
" transform="scale(0.015625)"/>
       <path id="Arial-BoldMT-66" d="M 75 3319 
L 563 3319 
L 563 3569 
Q 563 3988 652 4194 
Q 741 4400 980 4529 
Q 1219 4659 1584 4659 
Q 1959 4659 2319 4547 
L 2200 3934 
Q 1991 3984 1797 3984 
Q 1606 3984 1523 3895 
Q 1441 3806 1441 3553 
L 1441 3319 
L 2097 3319 
L 2097 2628 
L 1441 2628 
L 1441 0 
L 563 0 
L 563 2628 
L 75 2628 
L 75 3319 
z
" transform="scale(0.015625)"/>
       <path id="Arial-BoldMT-74" d="M 1981 3319 
L 1981 2619 
L 1381 2619 
L 1381 1281 
Q 1381 875 1398 808 
Q 1416 741 1477 697 
Q 1538 653 1625 653 
Q 1747 653 1978 738 
L 2053 56 
Q 1747 -75 1359 -75 
Q 1122 -75 931 4 
Q 741 84 652 211 
Q 563 338 528 553 
Q 500 706 500 1172 
L 500 2619 
L 97 2619 
L 97 3319 
L 500 3319 
L 500 3978 
L 1381 4491 
L 1381 3319 
L 1981 3319 
z
" transform="scale(0.015625)"/>
       <path id="Arial-BoldMT-2f" d="M -9 -78 
L 1125 4659 
L 1784 4659 
L 638 -78 
L -9 -78 
z
" transform="scale(0.015625)"/>
       <path id="Arial-BoldMT-70" d="M 434 3319 
L 1253 3319 
L 1253 2831 
Q 1413 3081 1684 3237 
Q 1956 3394 2288 3394 
Q 2866 3394 3269 2941 
Q 3672 2488 3672 1678 
Q 3672 847 3265 386 
Q 2859 -75 2281 -75 
Q 2006 -75 1782 34 
Q 1559 144 1313 409 
L 1313 -1263 
L 434 -1263 
L 434 3319 
z
M 1303 1716 
Q 1303 1156 1525 889 
Q 1747 622 2066 622 
Q 2372 622 2575 867 
Q 2778 1113 2778 1672 
Q 2778 2194 2568 2447 
Q 2359 2700 2050 2700 
Q 1728 2700 1515 2451 
Q 1303 2203 1303 1716 
z
" transform="scale(0.015625)"/>
      </defs>
      <use xlink:href="#Arial-BoldMT-43"/>
      <use xlink:href="#Arial-BoldMT-68" x="72.216797"/>
      <use xlink:href="#Arial-BoldMT-65" x="133.300781"/>
      <use xlink:href="#Arial-BoldMT-6d" x="188.916016"/>
      <use xlink:href="#Arial-BoldMT-69" x="277.832031"/>
      <use xlink:href="#Arial-BoldMT-63" x="305.615234"/>
      <use xlink:href="#Arial-BoldMT-61" x="361.230469"/>
      <use xlink:href="#Arial-BoldMT-6c" x="416.845703"/>
      <use xlink:href="#Arial-BoldMT-20" x="444.628906"/>
      <use xlink:href="#Arial-BoldMT-53" x="472.412109"/>
      <use xlink:href="#Arial-BoldMT-68" x="539.111328"/>
      <use xlink:href="#Arial-BoldMT-69" x="600.195312"/>
      <use xlink:href="#Arial-BoldMT-66" x="627.978516"/>
      <use xlink:href="#Arial-BoldMT-74" x="661.279297"/>
      <use xlink:href="#Arial-BoldMT-20" x="694.580078"/>
      <use xlink:href="#Arial-BoldMT-2f" x="722.363281"/>
      <use xlink:href="#Arial-BoldMT-20" x="750.146484"/>
      <use xlink:href="#Arial-BoldMT-70" x="777.929688"/>
      <use xlink:href="#Arial-BoldMT-70" x="839.013672"/>
      <use xlink:href="#Arial-BoldMT-6d" x="900.097656"/>
     </g>
    </g>
   </g>
   <g id="matplotlib.axis_2"/>
   <g id="line2d_12">
    <path d="M 2.944662 188.704424 
L 3.763141 189.324906 
L 4.58162 188.730311 
L 4.990859 189.061006 
L 5.195479 189.077624 
L 6.218578 188.651427 
L 6.627817 189.156558 
L 7.241676 190.196667 
L 7.855536 191.390052 
L 8.060155 191.466399 
L 8.469395 191.17418 
L 8.878634 190.504055 
L 9.492493 189.229552 
L 9.697113 189.037457 
L 9.901733 189.03818 
L 10.515592 189.512049 
L 11.129451 190.286748 
L 11.334071 190.275952 
L 12.35717 189.240171 
L 13.175649 188.752583 
L 13.789508 189.052587 
L 14.198747 189.394366 
L 15.426466 191.355363 
L 15.835705 191.432739 
L 16.654184 191.214683 
L 17.472663 190.621318 
L 17.881902 190.746119 
L 18.700381 191.468443 
L 19.109621 191.032338 
L 19.31424 190.821123 
L 19.51886 190.81188 
L 19.9281 191.404947 
L 20.541959 192.526124 
L 20.746578 192.611195 
L 21.155818 192.41699 
L 22.178917 191.572114 
L 22.588156 191.612408 
L 22.997395 191.688731 
L 24.429734 191.135377 
L 24.634353 190.935357 
L 25.657452 189.22623 
L 26.475931 188.37709 
L 27.08979 188.067597 
L 27.29441 188.083931 
L 27.499029 188.239156 
L 27.908269 189.154409 
L 28.726748 191.849043 
L 28.931367 192.059323 
L 29.135987 192.000436 
L 30.159086 190.760922 
L 30.772945 190.830201 
L 31.182184 190.353077 
L 31.796044 189.305084 
L 32.000663 189.229437 
L 32.205283 189.373662 
L 32.819142 190.132042 
L 33.228382 190.04018 
L 33.842241 189.793193 
L 34.046861 189.822292 
L 34.25148 189.987271 
L 34.66072 190.804725 
L 35.069959 191.728412 
L 35.274579 191.912834 
L 35.479199 191.85211 
L 35.888438 191.329385 
L 36.911537 189.550155 
L 37.320776 188.79354 
L 37.525396 188.6663 
L 37.934635 188.777796 
L 38.343875 188.98133 
L 38.753114 188.801964 
L 39.162354 188.615283 
L 39.366974 188.723873 
L 39.776213 189.286385 
L 40.799312 191.257837 
L 41.003931 191.313168 
L 41.617791 191.119401 
L 42.640889 191.277272 
L 43.050129 191.006631 
L 43.663988 190.280803 
L 44.482467 190.101123 
L 44.891706 189.379868 
L 45.505565 188.036474 
L 46.324044 186.85698 
L 46.528664 186.804717 
L 46.733284 187.017245 
L 47.142523 188.097457 
L 47.756382 189.944269 
L 47.961002 190.077476 
L 48.165622 189.810877 
L 48.779481 188.287259 
L 48.984101 188.122425 
L 49.18872 188.165991 
L 49.59796 188.597634 
L 50.416439 189.841567 
L 50.825678 190.202268 
L 51.439537 191.118883 
L 51.644157 191.0395 
L 52.053397 190.458259 
L 52.871876 189.071853 
L 53.076495 188.93544 
L 53.281115 188.951555 
L 53.690354 189.319037 
L 54.099594 189.657635 
L 54.304214 189.663327 
L 55.327312 189.238029 
L 55.736552 189.498262 
L 57.37351 191.048443 
L 57.578129 191.06059 
L 57.987369 190.706166 
L 58.601228 189.832898 
L 59.215087 188.898496 
L 59.624327 188.488171 
L 59.828946 188.448316 
L 60.238186 188.853589 
L 60.442805 189.063315 
L 60.647425 189.098145 
L 61.056665 188.754979 
L 61.670524 188.021754 
L 61.875144 187.998491 
L 62.079763 188.231713 
L 62.693622 189.554258 
L 62.898242 189.648112 
L 63.102862 189.483858 
L 63.921341 188.119 
L 64.125961 188.094084 
L 64.5352 188.43657 
L 65.967538 190.167246 
L 66.172158 190.158758 
L 66.786017 189.770049 
L 66.990637 189.812274 
L 67.399876 190.281515 
L 68.013735 190.965301 
L 68.627594 191.150341 
L 69.241454 191.354055 
L 70.469172 191.812047 
L 70.673792 191.699699 
L 71.083031 190.878741 
L 71.492271 189.780181 
L 71.69689 189.511524 
L 72.10613 189.452848 
L 72.719989 189.671817 
L 73.129228 189.892207 
L 73.538468 189.793369 
L 73.947707 189.602009 
L 74.356947 189.652717 
L 74.766186 189.374453 
L 75.380045 188.468417 
L 75.993905 187.572173 
L 76.403144 187.313531 
L 76.607764 187.4594 
L 77.017003 188.393898 
L 77.835482 190.729612 
L 78.244722 191.213911 
L 78.653961 191.234047 
L 79.26782 191.141507 
L 79.67706 191.145288 
L 80.086299 190.826152 
L 80.495539 190.475843 
L 81.109398 190.391329 
L 81.518637 190.049865 
L 81.927877 189.654964 
L 82.132496 189.611973 
L 82.541736 189.900445 
L 83.155595 190.68395 
L 83.564835 191.245919 
L 83.974074 191.440159 
L 84.792553 191.458458 
L 85.201792 191.040954 
L 86.224891 189.576634 
L 86.83875 188.575948 
L 87.452609 188.02612 
L 87.861849 187.259215 
L 88.271088 186.365701 
L 88.475708 186.192666 
L 88.680328 186.314088 
L 89.498807 187.835944 
L 90.317286 188.119822 
L 90.931145 189.131704 
L 91.340384 189.203262 
L 91.749624 189.21826 
L 92.772722 189.767244 
L 93.181962 189.613565 
L 93.591201 189.764384 
L 94.000441 190.249648 
L 94.6143 190.99777 
L 95.432779 191.263013 
L 96.046638 191.839821 
L 96.251258 191.816321 
L 96.455877 191.549425 
L 97.683596 188.929402 
L 98.092835 188.567969 
L 98.502075 188.559688 
L 98.911314 188.837591 
L 99.525173 189.529465 
L 99.934413 189.552087 
L 100.343652 189.554814 
L 100.548272 189.825609 
L 100.957511 191.185237 
L 101.366751 192.700202 
L 101.571371 193.021173 
L 101.77599 193.052908 
L 102.389849 192.713005 
L 102.799089 192.277652 
L 103.412948 191.107853 
L 104.026807 189.767654 
L 104.231427 189.724041 
L 104.640666 190.04548 
L 105.663765 191.03791 
L 106.073004 190.956934 
L 106.686864 190.749416 
L 107.096103 190.866121 
L 108.119202 191.354019 
L 108.528441 190.900577 
L 109.1423 190.210735 
L 109.55154 190.023007 
L 110.370019 190.199934 
L 112.211596 189.322367 
L 112.620836 189.544994 
L 113.643934 190.721714 
L 114.053174 190.895634 
L 114.462413 191.178668 
L 114.667033 191.137809 
L 115.690132 190.095995 
L 116.099371 190.014843 
L 116.91785 190.136235 
L 117.531709 190.096884 
L 118.350188 190.608368 
L 118.964047 191.028257 
L 119.168667 190.946485 
L 119.577906 190.396414 
L 120.191766 189.293781 
L 120.601005 188.974456 
L 121.010245 188.889856 
L 121.419484 188.546079 
L 122.033343 187.877859 
L 122.647202 187.604939 
L 122.851822 187.623924 
L 123.056442 187.793851 
L 123.874921 189.089713 
L 124.28416 189.105471 
L 124.6934 188.927794 
L 125.716498 188.303927 
L 126.125738 188.241113 
L 126.534977 188.491944 
L 127.558076 190.067377 
L 128.376555 191.471078 
L 128.785794 191.774756 
L 128.990414 191.771151 
L 129.399653 191.398485 
L 131.036611 189.323865 
L 131.445851 189.308699 
L 131.85509 189.322636 
L 133.082808 188.856551 
L 133.492048 188.356481 
L 133.901287 187.829646 
L 134.310527 187.668044 
L 134.924386 187.771038 
L 135.333625 187.347777 
L 135.742865 186.834609 
L 135.947485 186.876898 
L 136.356724 187.744965 
L 137.379823 190.574527 
L 137.789062 191.490059 
L 137.993682 191.731022 
L 138.198302 191.749887 
L 138.607541 191.269261 
L 139.016781 190.2705 
L 139.63064 188.556157 
L 140.039879 188.114412 
L 140.244499 188.139062 
L 140.858358 188.559968 
L 141.062978 188.43458 
L 141.676837 187.628787 
L 141.881457 187.776049 
L 142.495316 188.805605 
L 142.699936 188.918883 
L 142.904555 188.82733 
L 143.518414 188.257197 
L 144.132274 187.917998 
L 144.541513 187.765993 
L 145.973851 188.096905 
L 146.383091 187.854146 
L 147.20157 187.095738 
L 147.610809 187.221945 
L 148.429288 187.824428 
L 149.452387 188.44963 
L 149.861626 189.581607 
L 150.270865 191.014429 
L 150.475485 191.397631 
L 150.680105 191.482899 
L 151.703204 190.94264 
L 152.317063 190.872327 
L 152.726302 190.354807 
L 153.340161 189.584466 
L 153.749401 189.55174 
L 154.772499 189.973505 
L 155.386359 190.662863 
L 155.590978 190.660825 
L 156.204838 190.196393 
L 156.409457 190.319661 
L 157.023316 190.957534 
L 157.227936 190.952693 
L 157.637176 190.570415 
L 158.251035 189.967531 
L 158.864894 189.662629 
L 159.683373 189.835336 
L 160.501852 189.261613 
L 160.911091 189.230441 
L 161.72957 189.291719 
L 162.343429 189.209461 
L 163.366528 189.707699 
L 163.980387 189.41015 
L 164.185007 189.586252 
L 165.003486 190.809727 
L 165.821965 190.967717 
L 166.231204 191.202269 
L 166.640444 191.085028 
L 166.845063 190.850508 
L 167.254303 189.872217 
L 167.868162 188.298432 
L 168.072782 188.229763 
L 168.482021 188.749604 
L 168.891261 189.323912 
L 169.3005 189.586387 
L 169.70974 189.578416 
L 170.323599 189.236591 
L 170.732838 189.405837 
L 171.142078 189.677866 
L 171.346697 189.680771 
L 171.755937 189.295251 
L 172.165176 188.871889 
L 172.779035 188.55985 
L 173.188275 188.649884 
L 174.211374 189.505619 
L 174.620613 189.525278 
L 175.029852 189.285944 
L 175.439092 188.923721 
L 176.257571 188.830369 
L 176.462191 188.954834 
L 176.87143 189.582113 
L 177.485289 190.49743 
L 177.894529 190.64121 
L 178.303768 190.399274 
L 178.713008 189.726746 
L 179.122247 188.914828 
L 179.326867 188.744136 
L 179.736106 188.855561 
L 180.145346 189.033916 
L 180.759205 189.181048 
L 181.168444 189.768581 
L 181.782303 190.767119 
L 181.986923 190.888971 
L 182.600782 190.722066 
L 183.214641 190.581853 
L 183.623881 190.685409 
L 183.828501 190.55072 
L 184.851599 188.905245 
L 185.056219 188.854114 
L 185.260839 189.078084 
L 185.670078 190.318855 
L 186.079318 191.52211 
L 186.283937 191.692381 
L 186.488557 191.449914 
L 186.897797 189.919103 
L 187.511656 187.295146 
L 187.920895 186.620561 
L 188.534754 186.298328 
L 189.353233 185.211987 
L 189.762473 184.834606 
L 190.171712 183.715747 
L 190.580952 181.621355 
L 191.194811 176.941836 
L 192.01329 168.923979 
L 192.627149 160.671207 
L 193.241008 148.015679 
L 194.059487 129.936916 
L 195.491825 106.967848 
L 195.696445 105.433581 
L 195.901065 105.459154 
L 196.105684 106.869166 
L 196.719543 113.219313 
L 197.128783 115.255948 
L 197.538022 116.782939 
L 197.947262 119.726886 
L 198.765741 127.489356 
L 198.97036 128.079103 
L 199.17498 127.705218 
L 199.3796 126.337349 
L 199.993459 118.601866 
L 200.607318 112.419338 
L 201.221177 106.938358 
L 201.630417 103.203145 
L 201.835037 102.094475 
L 202.039656 101.79355 
L 202.244276 102.357394 
L 202.653516 105.841065 
L 203.676614 120.123855 
L 204.085854 127.831087 
L 205.518192 160.447624 
L 206.132051 169.193615 
L 206.74591 174.585826 
L 207.359769 177.732387 
L 207.973628 179.531372 
L 208.792107 181.035485 
L 210.633685 186.354773 
L 211.042924 186.687053 
L 212.270643 186.882682 
L 212.679882 186.680218 
L 213.702981 185.916436 
L 213.907601 186.063673 
L 214.31684 186.868247 
L 214.726079 187.698218 
L 214.930699 187.885619 
L 215.339939 187.829095 
L 216.158418 187.508573 
L 216.567657 187.561761 
L 216.976896 187.91416 
L 217.590756 188.749274 
L 217.999995 188.936762 
L 218.204615 188.990949 
L 218.409235 189.185338 
L 218.818474 190.172685 
L 219.636953 192.757208 
L 219.841573 193.041873 
L 220.046192 193.073115 
L 220.250812 192.802297 
L 221.273911 190.312888 
L 221.68315 189.966652 
L 222.09239 189.955916 
L 222.297009 190.138927 
L 223.115488 191.525363 
L 223.320108 191.589634 
L 223.524728 191.489016 
L 223.933967 190.816192 
L 224.547826 189.554433 
L 224.752446 189.403847 
L 224.957066 189.421081 
L 225.366305 189.855903 
L 225.980164 190.756401 
L 226.389404 190.874501 
L 226.594024 190.763408 
L 227.412502 189.845781 
L 228.640221 189.980506 
L 229.04946 189.781659 
L 229.4587 189.140401 
L 230.277179 187.483716 
L 230.686418 187.141724 
L 231.095658 187.210059 
L 232.118756 187.94968 
L 232.937235 188.336755 
L 233.346475 188.632419 
L 233.960334 189.37815 
L 234.164953 189.45156 
L 234.574193 189.197286 
L 236.006531 187.530187 
L 236.41577 187.412366 
L 236.82501 187.448571 
L 237.234249 187.140291 
L 237.643489 186.743028 
L 238.052728 186.758729 
L 238.461968 186.91439 
L 238.666587 187.167045 
L 239.894306 189.754658 
L 240.712785 190.545368 
L 241.122024 190.568736 
L 241.326644 190.385591 
L 241.735883 189.566948 
L 242.145123 188.746527 
L 242.349743 188.541145 
L 242.554362 188.494613 
L 242.963602 188.77183 
L 243.372841 188.982815 
L 243.577461 188.932495 
L 244.39594 188.264379 
L 244.805179 188.922021 
L 245.214419 189.573903 
L 245.419038 189.595853 
L 245.828278 189.000247 
L 246.237517 188.380849 
L 247.055996 187.600803 
L 247.260616 187.586936 
L 247.669855 188.007363 
L 248.079095 188.650616 
L 248.283715 188.814614 
L 248.488334 188.810805 
L 248.897574 188.407757 
L 249.306813 188.016482 
L 250.534532 187.493078 
L 250.943771 186.9872 
L 251.55763 185.981609 
L 251.76225 186.011581 
L 252.785349 187.319004 
L 253.194588 187.367968 
L 253.603828 187.326754 
L 254.013067 187.671348 
L 254.626926 188.376157 
L 255.036166 188.368221 
L 255.650025 187.958782 
L 256.059264 187.53296 
L 256.263884 187.455538 
L 256.468504 187.540335 
L 258.105462 189.160335 
L 258.514701 188.808276 
L 258.92394 188.154833 
L 259.5378 186.9779 
L 259.742419 186.809588 
L 259.947039 186.814255 
L 260.356278 187.309014 
L 260.765518 188.002596 
L 260.970138 188.112754 
L 261.174757 187.995545 
L 261.788617 187.062408 
L 262.197856 186.214637 
L 262.607095 185.255437 
L 262.811715 184.973386 
L 263.016335 184.89447 
L 263.220955 185.008384 
L 264.039434 185.921568 
L 264.244053 185.587075 
L 264.857912 184.092978 
L 265.267152 183.340407 
L 265.676391 182.066567 
L 266.085631 180.043344 
L 267.313349 171.700077 
L 267.722589 171.086103 
L 267.927208 170.871175 
L 268.336448 169.897184 
L 268.745687 168.945673 
L 268.950307 168.809328 
L 269.359546 168.794186 
L 269.564166 168.624942 
L 269.768786 168.203989 
L 270.178025 166.428211 
L 270.587265 162.933916 
L 270.996504 157.052803 
L 271.610363 143.371493 
L 272.019603 129.280363 
L 272.428842 108.091966 
L 273.042702 60.826782 
L 273.451941 29.545318 
L 273.656561 20.73726 
L 273.86118 17.928506 
L 274.0658 19.133932 
L 274.27042 21.120447 
L 274.47504 21.298071 
L 274.679659 18.564825 
L 275.293519 3.00024 
L 275.498138 3.537635 
L 275.702758 9.737764 
L 276.521237 47.513894 
L 276.725857 50.920285 
L 276.930476 51.196867 
L 277.135096 49.076471 
L 277.544336 42.926632 
L 277.748955 41.802961 
L 277.953575 42.736116 
L 278.567434 48.698404 
L 278.772054 49.861832 
L 278.976674 51.671204 
L 279.181293 55.296645 
L 280.204392 84.235879 
L 280.409012 85.172108 
L 280.613631 83.701938 
L 281.022871 75.4413 
L 281.43211 67.787146 
L 281.63673 67.980894 
L 281.84135 71.443708 
L 282.659829 90.456825 
L 282.864448 91.408537 
L 283.069068 90.636166 
L 283.478308 87.620832 
L 283.682927 88.380086 
L 283.887547 92.345215 
L 284.296787 108.339142 
L 284.910646 134.010039 
L 285.524505 150.217954 
L 286.138364 160.403639 
L 286.956843 169.508575 
L 287.366082 172.614302 
L 287.775322 174.287071 
L 288.389181 175.373386 
L 289.00304 176.077256 
L 289.41228 176.302241 
L 289.616899 176.253911 
L 289.821519 176.014013 
L 290.435378 174.426612 
L 290.844618 172.999986 
L 291.253857 170.314705 
L 291.663097 167.19744 
L 291.867716 166.345824 
L 292.072336 166.322256 
L 292.481576 168.100752 
L 292.890815 169.85721 
L 293.095435 170.091386 
L 293.300055 169.82981 
L 294.118533 167.615271 
L 294.323153 168.350821 
L 294.732393 171.970421 
L 295.346252 177.434086 
L 295.960111 180.88804 
L 296.36935 182.22928 
L 296.77859 182.936763 
L 296.98321 183.070306 
L 297.187829 183.061584 
L 297.597069 182.650856 
L 298.006308 182.290959 
L 298.415548 182.299889 
L 298.824787 182.57718 
L 299.847886 183.618268 
L 300.461745 184.805843 
L 300.870984 185.178861 
L 301.280224 185.295834 
L 301.689463 185.086729 
L 302.098703 184.8374 
L 302.303322 184.908269 
L 302.712562 185.258936 
L 302.917182 185.223003 
L 303.326421 184.535957 
L 303.735661 183.299261 
L 304.34952 180.271827 
L 304.758759 178.620755 
L 304.963379 178.45052 
L 305.167999 178.670734 
L 305.986478 180.116381 
L 306.191097 180.234296 
L 306.395717 180.190552 
L 306.804956 179.654823 
L 308.032675 177.2112 
L 308.441914 175.005705 
L 308.851154 171.586455 
L 309.260393 166.79702 
L 309.669633 160.151291 
L 310.283492 145.940669 
L 310.897351 130.144558 
L 311.101971 127.556156 
L 311.30659 127.702792 
L 311.51121 130.413506 
L 312.534309 150.691785 
L 312.943548 154.780233 
L 313.352788 156.755319 
L 313.557407 156.79348 
L 313.762027 156.042349 
L 313.966647 154.398228 
L 314.375886 148.373767 
L 314.989746 136.650713 
L 315.194365 134.498983 
L 315.398985 134.133699 
L 315.808224 136.867526 
L 316.012844 138.08896 
L 316.217464 138.220092 
L 316.422084 136.946519 
L 316.831323 130.488926 
L 317.445182 120.064319 
L 317.649802 119.502917 
L 317.854422 120.553697 
L 318.468281 125.337578 
L 318.672901 125.794943 
L 318.87752 125.877871 
L 319.08214 126.180418 
L 319.28676 127.205554 
L 320.105239 134.5186 
L 320.309858 134.722116 
L 320.514478 133.906808 
L 320.923718 130.89947 
L 321.128337 130.237599 
L 321.332957 131.024636 
L 321.742197 136.048605 
L 322.151436 140.602532 
L 322.356056 141.444862 
L 322.560675 141.338121 
L 322.969915 140.281435 
L 323.174535 140.743076 
L 323.379154 142.387957 
L 324.402253 154.062523 
L 324.606873 154.504776 
L 324.811492 154.100401 
L 325.220732 151.375841 
L 325.629971 148.85051 
L 325.834591 149.16466 
L 326.039211 150.851579 
L 327.266929 166.12484 
L 327.676169 167.792083 
L 327.880788 168.036183 
L 328.085408 167.886472 
L 328.290028 167.266439 
L 328.699267 164.275228 
L 329.313126 158.13897 
L 329.517746 157.760205 
L 329.722366 158.901596 
L 330.131605 164.456663 
L 330.745465 173.664009 
L 331.154704 177.374377 
L 331.563943 178.977097 
L 332.177803 180.178155 
L 333.81476 184.896917 
L 334.224 185.40821 
L 334.633239 185.532629 
L 335.247099 185.564882 
L 335.656338 185.276387 
L 336.065577 184.807498 
L 336.270197 184.735166 
L 336.474817 184.830248 
L 336.884056 185.423866 
L 337.497915 187.008292 
L 338.111775 188.737942 
L 338.521014 189.244204 
L 338.725634 189.200335 
L 339.544113 188.450718 
L 339.953352 188.927404 
L 340.362592 189.305032 
L 340.771831 189.120335 
L 341.181071 188.989784 
L 341.59031 189.111722 
L 341.79493 189.06061 
L 341.999549 188.843482 
L 343.227268 186.554326 
L 343.841127 186.055011 
L 344.045747 186.023519 
L 344.250366 186.155183 
L 345.068845 187.153739 
L 345.682705 187.313138 
L 346.296564 187.835268 
L 347.115043 188.682779 
L 347.728902 188.755091 
L 348.138141 189.421472 
L 348.95662 191.427676 
L 349.16124 191.571331 
L 349.36586 191.421575 
L 350.798198 188.993708 
L 351.412057 188.482434 
L 351.821296 188.51787 
L 352.230536 188.80402 
L 352.435156 188.800566 
L 352.639775 188.564646 
L 353.253634 187.475677 
L 353.458254 187.44924 
L 355.299832 188.763841 
L 355.504451 188.618676 
L 356.118311 187.768504 
L 356.52755 187.862509 
L 356.93679 187.986345 
L 357.346029 187.695195 
L 357.755268 187.264531 
L 358.573747 186.908812 
L 358.982987 186.538617 
L 359.187607 186.674297 
L 359.801466 188.05541 
L 360.415325 189.225411 
L 360.824564 189.37578 
L 361.438424 189.498432 
L 361.847663 189.467895 
L 362.256902 189.348435 
L 362.666142 189.774945 
L 363.075381 190.235778 
L 363.484621 190.130633 
L 364.09848 189.79881 
L 364.916959 189.720175 
L 365.326198 188.982572 
L 365.940058 187.933146 
L 366.144677 187.823136 
L 366.349297 187.89148 
L 366.758536 188.558149 
L 367.372396 189.725402 
L 367.986255 190.112219 
L 368.395494 190.904878 
L 368.804734 191.770379 
L 369.009353 191.963427 
L 369.213973 191.94983 
L 369.418593 191.710164 
L 369.827832 190.473705 
L 370.441692 188.117954 
L 370.646311 187.862786 
L 370.850931 187.947108 
L 371.87403 189.461579 
L 373.715607 189.093615 
L 375.147945 189.045561 
L 375.557185 188.824747 
L 375.966424 189.005077 
L 376.989523 189.578773 
L 377.194142 189.592931 
L 378.012621 189.039098 
L 378.8311 189.673523 
L 379.03572 189.58213 
L 379.444959 188.902595 
L 380.058819 187.811395 
L 380.263438 187.72537 
L 380.468058 187.858575 
L 381.286537 189.166943 
L 381.695776 189.245096 
L 382.105016 189.821801 
L 383.537354 192.687126 
L 383.741974 192.728816 
L 383.946593 192.529071 
L 384.560453 191.198833 
L 385.583551 188.772218 
L 385.788171 188.657501 
L 386.19741 188.835187 
L 387.015889 189.245098 
L 387.425129 189.371825 
L 388.038988 189.334945 
L 389.062087 189.897943 
L 389.471326 189.807149 
L 390.289805 189.071572 
L 390.903664 188.539729 
L 391.517523 188.067011 
L 391.926763 187.342942 
L 392.336002 186.54664 
L 392.540622 186.376381 
L 392.949861 186.413377 
L 393.359101 186.691443 
L 393.76834 187.424289 
L 394.586819 189.72348 
L 394.996059 190.093138 
L 395.405298 190.126795 
L 396.223777 189.49987 
L 396.837636 189.468993 
L 398.065355 189.009643 
L 399.293073 189.669687 
L 400.930031 191.484284 
L 401.134651 191.576517 
L 401.54389 191.394171 
L 402.157749 191.019273 
L 402.976228 189.979007 
L 403.794707 189.64313 
L 404.203946 189.818179 
L 405.227045 190.737202 
L 405.431665 191.021011 
L 405.636285 191.103873 
L 406.045524 190.729933 
L 406.454763 190.399993 
L 406.864003 190.516106 
L 407.477862 190.88546 
L 407.887102 191.035572 
L 408.091721 191.292061 
L 408.9102 193.054138 
L 409.11482 193.054492 
L 409.524059 192.402262 
L 410.137919 191.368053 
L 410.342538 191.307204 
L 410.751778 191.638078 
L 411.161017 191.859342 
L 411.979496 191.569742 
L 412.593355 192.045296 
L 412.797975 192.003068 
L 414.025693 190.836841 
L 415.048792 189.115086 
L 415.253412 189.031935 
L 415.662651 189.237365 
L 416.071891 189.383046 
L 416.48113 188.945433 
L 416.890369 188.624212 
L 417.299609 188.677681 
L 417.708848 188.969299 
L 418.322708 189.713034 
L 418.527327 189.672568 
L 419.141186 189.20379 
L 419.755046 189.023938 
L 420.573525 188.343593 
L 420.982764 188.386068 
L 421.596623 188.574892 
L 422.210482 188.474334 
L 422.619722 188.715204 
L 423.438201 189.390011 
L 423.64282 189.434714 
L 424.25668 189.126607 
L 424.461299 189.242337 
L 425.279778 190.436416 
L 425.893637 190.458547 
L 426.302877 190.378983 
L 426.712116 189.804513 
L 427.530595 187.786184 
L 427.735215 187.65571 
L 428.758314 187.822219 
L 429.372173 187.888559 
L 429.781412 188.559529 
L 430.190652 189.440666 
L 430.395271 189.657046 
L 430.599891 189.692722 
L 430.804511 189.567409 
L 431.21375 188.899797 
L 431.62299 188.260199 
L 432.032229 188.144217 
L 433.259948 188.536429 
L 433.669187 188.951694 
L 435.510765 192.135618 
L 435.920004 192.248171 
L 436.124624 192.232558 
L 436.329244 192.103042 
L 436.738483 191.365551 
L 437.352342 190.058386 
L 437.556962 190.025836 
L 438.170821 190.714387 
L 438.375441 190.606194 
L 438.78468 189.669675 
L 439.19392 188.88783 
L 439.398539 188.90659 
L 440.012399 189.625843 
L 440.217018 189.590364 
L 440.830878 188.78105 
L 441.240117 188.33954 
L 441.444737 188.301531 
L 443.081695 189.127439 
L 443.490934 188.996546 
L 444.514033 188.618501 
L 444.923272 188.602753 
L 445.127892 188.831173 
L 445.741751 190.36171 
L 446.35561 191.830733 
L 446.76485 192.353486 
L 446.969469 192.365943 
L 447.378709 191.917859 
L 447.992568 191.006958 
L 448.197188 190.928854 
L 449.015667 191.16285 
L 449.424906 190.965727 
L 449.629526 191.003915 
L 450.038765 191.411467 
L 450.652624 192.056822 
L 451.061864 192.144582 
L 451.471103 191.76464 
L 451.880343 191.398909 
L 452.698822 191.278944 
L 453.108061 190.651041 
L 453.72192 189.295303 
L 454.13116 188.452604 
L 454.540399 188.256142 
L 455.154258 188.034103 
L 456.381977 188.546345 
L 456.995836 189.248628 
L 457.609695 189.673201 
L 459.246653 191.388712 
L 460.065132 192.641 
L 460.269752 192.766602 
L 460.474371 192.701374 
L 461.49747 191.548446 
L 461.906709 190.667267 
L 462.520569 189.050272 
L 462.725188 188.789251 
L 462.929808 188.757894 
L 463.134428 188.968283 
L 464.157526 190.690866 
L 464.362146 190.761695 
L 465.180625 190.629719 
L 466.203724 191.108992 
L 466.612963 190.893732 
L 467.840681 189.86637 
L 468.454541 189.520117 
L 469.477639 188.541616 
L 469.682259 188.623557 
L 470.091498 189.119034 
L 470.500738 189.629932 
L 471.319217 190.084591 
L 471.933076 190.679875 
L 472.751555 190.734751 
L 472.956175 190.819044 
L 473.160794 190.780214 
L 473.570034 190.199202 
L 473.979273 189.551759 
L 474.797752 189.038704 
L 475.002372 188.981505 
L 475.411611 189.247891 
L 476.43471 190.362854 
L 476.63933 190.412738 
L 477.048569 190.146426 
L 477.662428 189.543284 
L 478.071668 189.467909 
L 478.480907 189.67134 
L 478.685527 189.574734 
L 479.094766 188.802153 
L 479.708626 187.698773 
L 480.117865 187.298907 
L 480.527105 187.3065 
L 481.140964 187.566909 
L 482.164062 188.491749 
L 482.573302 188.112851 
L 482.982541 187.778795 
L 483.5964 187.540561 
L 483.80102 187.434651 
L 484.00564 187.490864 
L 485.642598 189.45287 
L 486.051837 190.132588 
L 486.461077 190.456419 
L 486.870316 190.436651 
L 487.484175 190.13547 
L 488.098034 189.272722 
L 489.121133 187.862203 
L 489.530373 187.700344 
L 489.939612 188.128245 
L 490.758091 189.452721 
L 491.16733 189.645186 
L 491.37195 189.668244 
L 491.57657 189.804064 
L 491.985809 190.640598 
L 492.395049 191.502348 
L 492.599668 191.608956 
L 493.008908 191.389192 
L 493.622767 190.601371 
L 494.236626 189.818723 
L 495.055105 189.109694 
L 495.464345 188.450931 
L 495.668964 188.289699 
L 495.873584 188.307678 
L 496.487443 188.845178 
L 496.896683 189.130103 
L 497.715162 189.277026 
L 498.124401 189.366605 
L 498.329021 189.629136 
L 498.73826 190.788563 
L 499.1475 191.904165 
L 499.352119 192.161111 
L 499.556739 192.238889 
L 499.761359 192.133241 
L 500.170598 191.381219 
L 500.579838 190.584233 
L 500.784457 190.448924 
L 500.989077 190.581386 
L 501.807556 192.115274 
L 502.012176 192.135411 
L 502.421415 191.661456 
L 503.239894 190.078967 
L 503.649134 189.159075 
L 504.058373 188.771356 
L 505.081472 188.117895 
L 505.490711 188.413768 
L 506.71843 189.509924 
L 506.923049 189.338817 
L 507.332289 188.344089 
L 507.741528 187.159305 
L 508.150768 186.631689 
L 508.355387 186.652961 
L 509.173866 187.327968 
L 509.378486 187.412523 
L 509.787725 187.98357 
L 510.401585 189.139746 
L 511.220064 190.034197 
L 511.629303 189.980582 
L 512.038542 189.862048 
L 512.447782 189.981313 
L 512.857021 190.652557 
L 513.266261 191.40735 
L 513.470881 191.513471 
L 513.88012 191.239145 
L 514.289359 191.028644 
L 514.903219 190.808712 
L 515.312458 190.395885 
L 516.335557 188.821164 
L 516.540176 188.758195 
L 516.744796 188.842908 
L 517.154036 189.436464 
L 517.563275 190.038977 
L 517.767895 190.107513 
L 518.381754 190.018836 
L 519.200233 190.248502 
L 521.04181 189.903336 
L 521.860289 189.777376 
L 523.088008 190.01117 
L 523.497247 189.894481 
L 523.701867 189.99959 
L 524.111106 190.694726 
L 524.520346 191.568726 
L 524.724966 191.806501 
L 524.929585 191.845065 
L 525.952684 191.139284 
L 526.566543 190.250498 
L 526.975783 189.881573 
L 528.408121 189.807627 
L 528.81736 189.570469 
L 529.2266 189.726228 
L 529.635839 189.845282 
L 530.249698 189.511894 
L 530.658938 189.072043 
L 531.068177 188.22149 
L 531.682036 186.543937 
L 531.886656 186.257863 
L 532.091276 186.199872 
L 533.114374 186.705977 
L 533.523614 187.368096 
L 534.342093 189.329308 
L 534.751332 189.541021 
L 534.955952 189.607139 
L 535.365191 190.122897 
L 535.774431 190.66457 
L 536.797529 191.159424 
L 537.206769 191.154187 
L 537.820628 190.837551 
L 538.843727 190.115252 
L 539.252966 190.374612 
L 540.071445 191.134256 
L 540.276065 191.142393 
L 540.480684 190.968966 
L 541.299163 189.754484 
L 542.117642 189.351791 
L 542.526882 188.50963 
L 543.345361 186.429073 
L 543.7546 186.137394 
L 544.16384 186.344193 
L 544.777699 186.959217 
L 544.982318 187.050044 
L 545.800797 186.973546 
L 546.414657 188.139164 
L 546.823896 188.743619 
L 547.642375 189.304041 
L 548.665474 190.059118 
L 549.074713 190.536289 
L 549.279333 190.549335 
L 549.483952 190.26539 
L 550.507051 187.765538 
L 550.711671 187.633994 
L 550.916291 187.723605 
L 551.32553 188.297764 
L 551.734769 189.208312 
L 552.757868 191.912681 
L 552.962488 192.142794 
L 553.167108 192.14253 
L 553.576347 191.695506 
L 553.985586 190.867752 
L 554.599446 189.567663 
L 555.008685 189.265808 
L 555.417925 189.586341 
L 555.827164 189.897609 
L 556.236403 189.705155 
L 556.645643 189.214683 
L 557.259502 188.123552 
L 557.464122 188.032049 
L 557.873361 188.544478 
L 558.077981 188.780958 
L 558.282601 188.831852 
L 558.48722 188.685549 
L 559.305699 187.687169 
L 560.328798 187.564555 
L 560.738037 188.017575 
L 561.556516 189.17845 
L 561.965756 189.145715 
L 562.579615 188.796069 
L 562.784235 188.895453 
L 563.398094 189.516306 
L 563.602714 189.543816 
L 564.011953 189.219971 
L 564.830432 188.221402 
L 565.239671 187.835083 
L 565.648911 187.076412 
L 566.05815 186.185905 
L 566.26277 185.983425 
L 566.46739 186.02516 
L 566.876629 186.676787 
L 567.695108 188.336801 
L 568.104348 188.59738 
L 568.513587 188.457505 
L 569.127446 187.933266 
L 569.536686 187.468028 
L 569.741305 187.450096 
L 570.150545 188.026174 
L 570.764404 188.899967 
L 572.401362 190.518837 
L 572.605982 190.580919 
L 573.015221 190.280301 
L 573.42446 189.941396 
L 573.8337 189.836603 
L 574.242939 189.897637 
L 574.652179 190.114433 
L 575.675277 190.904723 
L 576.493756 191.402554 
L 576.902996 191.125369 
L 577.721475 190.233252 
L 578.539954 189.900152 
L 578.949193 190.01224 
L 579.563052 190.342521 
L 580.176911 190.201324 
L 580.381531 190.298703 
L 581.40463 191.311809 
L 581.813869 191.036992 
L 582.632348 190.424335 
L 583.041588 190.201569 
L 583.450827 189.572984 
L 583.860067 188.89072 
L 584.064686 188.944847 
L 584.883165 190.068053 
L 585.701644 190.280077 
L 586.110884 191.01086 
L 586.929362 192.908485 
L 587.133982 193.062313 
L 587.338602 193.038524 
L 587.747841 192.667199 
L 588.56632 191.758229 
L 589.180179 191.543794 
L 590.203278 191.177838 
L 591.021757 190.762069 
L 591.430996 190.769076 
L 592.249475 191.025167 
L 592.863335 191.355605 
L 593.272574 191.9229 
L 593.681813 192.630459 
L 593.886433 192.800204 
L 594.091053 192.811521 
L 594.295673 192.672001 
L 594.704912 191.937161 
L 595.318771 190.74507 
L 595.728011 190.457314 
L 596.54649 190.273466 
L 596.751109 190.326614 
L 597.160349 190.853635 
L 597.774208 191.792849 
L 598.183447 191.912088 
L 598.592687 191.78025 
L 599.001926 191.419603 
L 599.820405 189.979645 
L 600.025025 189.898229 
L 600.229645 190.076977 
L 600.843504 190.998074 
L 602.275842 191.394189 
L 602.685081 191.037227 
L 603.298941 190.46838 
L 603.9128 190.236083 
L 604.526659 190.26261 
L 604.935898 190.294377 
L 605.345138 189.979529 
L 606.163617 189.179621 
L 606.368237 189.248572 
L 606.982096 189.731585 
L 607.595955 189.850057 
L 607.800575 189.77511 
L 608.209814 189.051445 
L 608.619053 188.204721 
L 608.823673 188.01787 
L 609.028293 188.031917 
L 610.051392 188.851884 
L 610.460631 188.744891 
L 611.27911 188.288942 
L 611.892969 187.802521 
L 612.506828 187.659872 
L 613.120687 186.977238 
L 613.325307 187.090087 
L 614.143786 188.208702 
L 615.576124 190.338624 
L 615.985364 190.602751 
L 616.803843 190.590044 
L 617.008462 190.63044 
L 617.213082 190.531314 
L 617.622321 189.709321 
L 618.236181 188.346911 
L 618.64542 187.889292 
L 619.05466 187.880089 
L 619.463899 187.855579 
L 620.077758 187.372063 
L 620.486998 187.126572 
L 620.691617 187.229155 
L 621.510096 188.459539 
L 621.714716 188.450107 
L 622.123955 187.890128 
L 622.533195 187.396074 
L 622.942434 187.421947 
L 624.988632 187.932315 
L 625.602491 188.166137 
L 626.01173 188.503328 
L 627.239449 190.236624 
L 627.444068 190.182108 
L 628.057928 189.625441 
L 629.285646 189.543229 
L 629.899505 189.199388 
L 630.308745 189.160819 
L 631.127223 188.609773 
L 632.150322 187.839518 
L 632.764181 188.346788 
L 633.173421 188.488427 
L 633.58266 189.016606 
L 634.196519 189.886762 
L 634.605759 189.977639 
L 635.219618 189.734116 
L 635.628857 190.095163 
L 636.038097 190.403691 
L 636.447336 190.208319 
L 637.061196 189.676901 
L 637.265815 189.698796 
L 639.516632 191.44027 
L 640.130491 191.028439 
L 640.94897 190.529437 
L 641.35821 190.401997 
L 641.767449 190.01658 
L 642.790548 188.522063 
L 643.199787 188.688247 
L 643.609027 188.89695 
L 644.018266 188.701911 
L 644.427506 188.498648 
L 644.836745 188.728577 
L 645.859844 189.657592 
L 646.473703 189.72974 
L 647.087562 189.705992 
L 647.496802 190.132778 
L 648.110661 190.938199 
L 648.72452 191.289199 
L 648.92914 191.287501 
L 649.133759 191.160176 
L 650.156858 189.953739 
L 650.566097 189.725746 
L 651.384576 188.870319 
L 651.589196 188.958053 
L 651.998436 189.571959 
L 652.407675 190.276392 
L 652.612295 190.373228 
L 652.816914 190.209892 
L 653.430774 189.348051 
L 653.635393 189.345596 
L 654.044633 189.817211 
L 654.658492 190.68064 
L 654.863112 190.754915 
L 655.067731 190.666449 
L 655.476971 190.161874 
L 656.29545 188.958157 
L 657.318548 188.114274 
L 657.727788 188.423977 
L 658.341647 189.000707 
L 658.546267 189.084396 
L 659.160126 189.003157 
L 659.569365 189.717339 
L 659.978605 190.433234 
L 660.387844 190.592934 
L 660.797084 190.583356 
L 661.206323 190.885324 
L 662.843281 192.942925 
L 663.047901 192.916431 
L 663.45714 192.397327 
L 664.684859 189.701543 
L 665.094098 189.52758 
L 665.503338 189.644622 
L 666.117197 189.963037 
L 666.731056 189.908465 
L 667.140295 189.513844 
L 667.549535 188.962343 
L 667.754155 188.911622 
L 668.368014 189.31741 
L 668.777253 189.651188 
L 669.186493 190.076821 
L 669.595732 190.057308 
L 670.004972 189.939387 
L 670.209591 190.008128 
L 670.414211 190.28872 
L 671.02807 191.672384 
L 671.23269 191.800355 
L 671.641929 191.703688 
L 672.665028 191.064112 
L 673.074267 190.442024 
L 673.892746 188.742634 
L 674.301986 188.534731 
L 675.734324 188.416418 
L 676.757423 189.507075 
L 677.166662 189.420759 
L 678.80362 188.830882 
L 679.212859 189.238338 
L 679.622099 189.592519 
L 680.031338 189.520393 
L 681.259057 189.058181 
L 681.668296 189.177203 
L 682.077535 188.999312 
L 682.486775 188.750275 
L 682.896014 188.736745 
L 683.305254 188.849535 
L 683.509874 188.766383 
L 683.714493 188.420448 
L 684.328352 186.78726 
L 684.737592 186.450894 
L 685.146831 186.317658 
L 685.351451 186.098237 
L 685.76069 185.130869 
L 686.16993 184.246256 
L 686.37455 184.190564 
L 686.783789 184.723096 
L 687.397648 185.709078 
L 688.011507 186.373573 
L 688.625367 187.224732 
L 689.239226 187.628799 
L 689.853085 188.643255 
L 690.057705 188.716871 
L 690.466944 188.548733 
L 690.671564 188.588916 
L 691.080803 189.089966 
L 691.694663 190.106543 
L 691.899282 190.312181 
L 692.103902 190.353408 
L 692.308522 190.175471 
L 692.922381 188.874365 
L 693.33162 188.214359 
L 693.53624 188.155881 
L 694.559339 188.522173 
L 694.968578 188.629139 
L 695.377818 189.060858 
L 695.991677 190.295669 
L 696.400916 191.073958 
L 696.605536 191.099686 
L 696.810156 190.813188 
L 697.833254 188.208377 
L 698.037874 188.207446 
L 698.447114 188.757958 
L 699.879452 191.716796 
L 700.697931 192.463253 
L 701.10717 193.045033 
L 701.31179 193.05407 
L 701.516409 192.750145 
L 702.334888 190.490266 
L 702.539508 190.374606 
L 702.948748 190.518817 
L 703.357987 190.81897 
L 703.767226 191.441868 
L 704.176466 192.095168 
L 704.381086 192.121729 
L 705.199565 191.449166 
L 705.608804 191.49062 
L 706.018043 191.211643 
L 706.427283 190.871436 
L 707.245762 190.668453 
L 708.26886 189.959073 
L 708.6781 190.03842 
L 708.88272 189.910505 
L 709.701199 188.798669 
L 709.905818 188.824142 
L 710.315058 189.23049 
L 711.133537 190.198082 
L 711.338156 190.309582 
L 711.542776 190.292442 
L 711.952016 189.894809 
L 712.361255 189.446299 
L 712.565875 189.336856 
L 712.770494 189.367475 
L 713.384354 189.787908 
L 713.588973 189.6332 
L 714.407452 188.070529 
L 714.816692 187.386581 
L 715.021311 187.208053 
L 715.225931 187.186423 
L 715.430551 187.328431 
L 715.83979 188.001436 
L 716.862889 190.079243 
L 717.067509 190.159112 
L 717.476748 189.938425 
L 718.295227 189.17826 
L 718.909086 189.061006 
L 719.932185 189.295951 
L 720.341424 189.038475 
L 720.750664 188.748636 
L 720.955284 188.776939 
L 721.773762 189.488066 
L 722.387622 189.344845 
L 722.796861 188.917616 
L 724.433819 186.145288 
L 724.638439 186.011568 
L 724.843058 186.150399 
L 725.252298 187.036372 
L 726.070777 189.321842 
L 726.275396 189.553888 
L 726.480016 189.596208 
L 726.684636 189.483597 
L 727.093875 188.894997 
L 727.503115 188.253091 
L 727.707734 188.17751 
L 727.912354 188.352014 
L 728.526213 189.411404 
L 728.935453 189.564405 
L 729.549312 189.386813 
L 730.367791 189.70952 
L 730.98165 189.6682 
L 732.004749 189.947703 
L 732.413988 190.062109 
L 732.823228 189.82982 
L 733.232467 189.583306 
L 734.255566 189.616076 
L 735.074045 190.683728 
L 735.483284 190.78335 
L 736.301763 190.596122 
L 737.120242 191.083793 
L 738.961819 189.936149 
L 739.166439 189.928562 
L 739.575679 190.317461 
L 739.984918 190.903281 
L 740.189538 191.035689 
L 740.598777 190.911125 
L 741.008017 190.601878 
L 741.212636 190.607081 
L 741.621876 191.232199 
L 742.031115 191.720671 
L 742.235735 191.591 
L 742.644975 190.536761 
L 743.054214 189.25954 
L 743.463453 188.708053 
L 743.872693 188.749389 
L 744.486552 188.929872 
L 744.691172 188.88353 
L 745.100411 188.428906 
L 745.509651 187.840068 
L 745.71427 187.791808 
L 745.91889 188.058609 
L 746.32813 189.479152 
L 746.941989 192.147596 
L 747.146609 192.605376 
L 747.351228 192.746811 
L 747.965087 192.388803 
L 748.578947 191.973987 
L 748.988186 191.778343 
L 749.397426 191.953908 
L 750.011285 192.565945 
L 750.625144 192.670355 
L 751.034383 192.703108 
L 751.852862 192.432231 
L 752.262102 192.673205 
L 752.671341 192.484083 
L 753.080581 192.269416 
L 753.48982 192.174086 
L 753.69444 191.968202 
L 754.103679 191.097613 
L 754.922158 189.015264 
L 755.126778 188.864835 
L 755.331398 188.927627 
L 756.149877 189.781238 
L 756.559116 189.775063 
L 757.582215 189.543284 
L 758.196074 188.975011 
L 758.400694 188.964252 
L 758.809933 189.383804 
L 759.219172 189.930296 
L 759.628412 190.140046 
L 760.037651 190.366907 
L 761.06075 191.5526 
L 761.469989 191.571364 
L 761.674609 191.314905 
L 762.083849 190.142835 
L 762.493088 188.918972 
L 762.902327 188.282478 
L 763.311567 188.149198 
L 763.516187 188.320385 
L 763.925426 189.363662 
L 764.334666 190.551505 
L 764.539285 190.866393 
L 764.743905 190.969392 
L 764.948525 190.860469 
L 765.357764 189.979965 
L 765.971623 188.416878 
L 766.380863 187.843044 
L 766.585483 187.757754 
L 767.199342 188.047185 
L 767.608581 187.915469 
L 767.813201 187.979242 
L 769.245539 189.541159 
L 769.654778 189.669035 
L 770.677877 189.31138 
L 771.496356 189.380128 
L 772.110215 189.938383 
L 772.519455 190.326831 
L 772.724074 190.368268 
L 773.133314 190.02124 
L 773.542553 189.709453 
L 774.770272 189.539407 
L 775.588751 189.853347 
L 776.407229 189.917148 
L 776.816469 189.972356 
L 777.225708 189.646899 
L 777.634948 189.256958 
L 777.839568 189.218596 
L 778.248807 189.603594 
L 779.271906 190.984997 
L 779.885765 191.306687 
L 780.295004 191.198548 
L 780.704244 190.752922 
L 781.522723 189.292363 
L 781.727342 189.171235 
L 781.931962 189.190199 
L 782.341202 189.634387 
L 782.750441 190.056019 
L 783.15968 190.066289 
L 783.978159 189.901072 
L 784.387399 189.61238 
L 785.205878 189.497091 
L 785.615117 188.528955 
L 786.228976 186.88805 
L 786.433596 186.613241 
L 786.638216 186.529092 
L 786.842836 186.667066 
L 787.661314 187.837132 
L 789.502892 188.411881 
L 791.13985 187.869024 
L 791.549089 187.993829 
L 792.776808 188.55147 
L 793.390667 188.494235 
L 793.799906 188.707522 
L 794.209146 188.619769 
L 794.823005 188.497511 
L 795.846104 188.329515 
L 796.255343 188.415997 
L 796.664582 188.709234 
L 797.073822 189.220304 
L 797.892301 190.66242 
L 798.096921 190.48764 
L 799.938498 186.919029 
L 800.347737 186.667433 
L 800.756977 186.724337 
L 801.370836 187.041878 
L 801.984695 187.068278 
L 802.803174 187.417941 
L 803.212414 187.463043 
L 804.235512 188.369543 
L 804.644752 188.143364 
L 805.463231 187.331905 
L 805.66785 187.247746 
L 805.87247 187.285624 
L 806.486329 187.932188 
L 807.509428 188.824048 
L 807.714048 188.816022 
L 808.123287 188.385188 
L 808.941766 187.27165 
L 809.555625 187.143867 
L 809.760245 186.893356 
L 810.169484 185.893433 
L 810.578724 184.848368 
L 810.783344 184.710945 
L 810.987963 185.004533 
L 812.011062 188.156509 
L 813.034161 188.880891 
L 813.23878 188.790694 
L 814.261879 187.238294 
L 814.466499 187.309443 
L 814.875738 187.900407 
L 815.284978 188.530501 
L 815.489597 188.646219 
L 816.717316 188.353118 
L 817.331175 187.928084 
L 817.535795 188.065235 
L 818.354273 189.563624 
L 818.558893 189.510055 
L 818.968133 188.717451 
L 819.991231 186.108391 
L 820.400471 185.778012 
L 820.80971 185.767996 
L 821.423569 186.089996 
L 821.832809 186.212017 
L 822.446668 186.01967 
L 823.469767 185.626252 
L 824.288246 185.861082 
L 824.697485 185.194648 
L 825.720584 182.966797 
L 826.129823 182.990837 
L 826.539063 183.247249 
L 827.357541 184.180957 
L 827.562161 184.143111 
L 827.971401 183.691097 
L 828.38064 183.185076 
L 828.78988 183.006937 
L 830.017598 182.627484 
L 830.631457 181.959535 
L 831.245316 181.227942 
L 831.859175 180.913951 
L 832.268415 181.057759 
L 832.882274 181.600719 
L 833.496133 181.702249 
L 833.905373 181.629733 
L 834.314612 181.129601 
L 834.723852 180.265912 
L 835.337711 178.757301 
L 835.95157 177.967325 
L 837.793148 176.208695 
L 838.202387 175.28711 
L 840.043964 169.38228 
L 840.657824 168.021454 
L 841.271683 166.72802 
L 842.704021 164.720004 
L 843.31788 163.326231 
L 843.72712 161.494635 
L 845.159458 153.071629 
L 845.568697 148.383302 
L 845.977937 140.309383 
L 846.387176 127.011331 
L 847.001035 94.890619 
L 847.410275 76.421547 
L 847.614894 75.266594 
L 847.819514 80.240838 
L 849.251852 138.195803 
L 849.865711 150.139104 
L 850.479571 158.014591 
L 851.09343 162.936746 
L 852.116528 169.393089 
L 852.935007 173.107539 
L 853.344247 174.18109 
L 853.548866 174.390733 
L 853.753486 174.369855 
L 854.162726 174.162262 
L 854.367345 174.315059 
L 854.776585 175.471738 
L 855.390444 177.57884 
L 856.413543 179.870297 
L 857.232022 180.784522 
L 857.845881 181.556391 
L 858.45974 181.854283 
L 858.868979 181.847485 
L 859.278219 181.874734 
L 859.892078 182.439883 
L 860.915177 183.585566 
L 861.529036 184.106105 
L 861.733656 184.033212 
L 862.552134 182.851134 
L 862.756754 182.882361 
L 863.165994 183.480352 
L 863.984473 185.452576 
L 864.393712 186.348801 
L 864.598332 186.565488 
L 865.007571 186.540637 
L 865.416811 186.397569 
L 865.62143 186.453754 
L 866.439909 187.247286 
L 866.849149 186.831868 
L 867.258388 186.525382 
L 867.872247 186.707588 
L 868.281487 186.37906 
L 868.690726 186.031854 
L 868.895346 186.021586 
L 869.304585 186.301135 
L 869.713825 186.548651 
L 869.918445 186.40218 
L 870.327684 185.527239 
L 870.941543 184.294316 
L 871.350783 184.005586 
L 871.555402 184.068507 
L 872.578501 184.993217 
L 872.987741 184.86361 
L 873.19236 184.941929 
L 873.806219 185.514588 
L 874.010839 185.492296 
L 874.420079 184.979925 
L 874.829318 184.462698 
L 875.033938 184.402625 
L 875.443177 184.641356 
L 876.261656 185.394833 
L 876.466276 185.318725 
L 876.875515 184.638381 
L 877.284755 183.919764 
L 877.898614 183.275101 
L 879.330952 180.940777 
L 879.740191 181.153088 
L 880.354051 181.872155 
L 880.76329 182.5216 
L 880.96791 182.685284 
L 881.17253 182.689812 
L 881.581769 182.414312 
L 882.809487 181.218298 
L 883.218727 181.249858 
L 883.627966 181.297899 
L 884.446445 180.736811 
L 884.855685 180.213874 
L 885.878783 178.234572 
L 886.492642 177.182656 
L 887.106502 176.013193 
L 887.515741 175.844728 
L 887.924981 175.633881 
L 888.33422 175.411582 
L 888.743459 175.437063 
L 888.948079 175.27989 
L 889.357319 174.228139 
L 890.175798 171.292599 
L 890.585037 170.425617 
L 890.994276 169.982074 
L 891.403516 169.658563 
L 892.017375 168.858008 
L 892.426615 168.789235 
L 893.040474 169.070958 
L 893.245093 168.914224 
L 893.654333 167.847674 
L 894.882051 162.750676 
L 895.291291 159.880113 
L 895.90515 153.447088 
L 896.314389 147.371334 
L 896.723629 138.473982 
L 897.132868 124.765235 
L 897.951347 90.099678 
L 898.155967 87.725461 
L 898.360587 89.819219 
L 898.769826 101.664097 
L 899.383685 119.753665 
L 899.997544 131.743686 
L 900.611404 138.722058 
L 901.225263 142.739467 
L 902.043742 146.325242 
L 902.452981 147.495278 
L 902.862221 148.05872 
L 903.47608 148.542577 
L 903.885319 148.573992 
L 904.294559 148.569405 
L 904.703798 148.936874 
L 905.113038 149.289266 
L 906.340756 149.451843 
L 906.749995 149.816203 
L 907.363855 150.806121 
L 907.773094 151.303126 
L 907.977714 151.33792 
L 908.386953 151.024794 
L 908.796193 150.402327 
L 909.205432 149.611282 
L 909.614672 149.358518 
L 910.228531 149.287987 
L 910.63777 149.067769 
L 911.04701 148.580192 
L 911.660869 147.285312 
L 912.070108 146.408698 
L 912.274728 146.170815 
L 912.479348 146.123833 
L 912.888587 146.420753 
L 913.297827 147.166453 
L 913.707066 148.581822 
L 914.525545 151.916524 
L 914.730165 152.29682 
L 914.934785 152.374796 
L 915.139404 152.191001 
L 915.548644 151.146792 
L 916.162503 148.298866 
L 916.571742 146.621527 
L 916.776362 146.349559 
L 916.980982 146.654936 
L 917.390221 148.562114 
L 917.799461 150.302901 
L 918.00408 150.662772 
L 918.41332 150.801651 
L 918.61794 150.709996 
L 918.822559 150.400855 
L 919.231799 148.900222 
L 919.641038 146.319042 
L 920.050278 141.117872 
L 920.459517 129.382587 
L 921.073376 108.727894 
L 921.277996 108.114299 
L 921.482616 110.967097 
L 922.710334 137.878527 
L 923.119574 141.988256 
L 923.733433 145.400236 
L 924.347292 147.252294 
L 924.756531 147.713561 
L 925.370391 147.78763 
L 925.57501 148.027786 
L 925.98425 149.032354 
L 926.598109 150.968539 
L 926.802729 151.23001 
L 927.211968 151.231949 
L 927.621208 150.972614 
L 928.439686 150.019089 
L 929.053546 150.065692 
L 929.462785 150.28317 
L 929.872025 150.977711 
L 930.281264 151.738548 
L 930.485884 151.892047 
L 930.690503 151.800026 
L 931.713602 150.386753 
L 931.918222 150.604351 
L 932.94132 152.722656 
L 933.14594 152.715256 
L 933.964419 152.237038 
L 934.373659 152.719695 
L 934.987518 153.751119 
L 935.192137 153.904078 
L 935.396757 153.893889 
L 936.010616 153.362473 
L 936.215236 153.400747 
L 936.624476 154.089291 
L 937.852194 157.455417 
L 938.261433 158.712871 
L 938.670673 159.359273 
L 939.284532 160.0618 
L 940.103011 161.079465 
L 940.92149 162.137082 
L 941.330729 162.793695 
L 941.535349 162.941996 
L 941.944588 162.9431 
L 942.149208 163.067283 
L 942.558448 163.780887 
L 943.786166 166.564587 
L 944.400025 168.379584 
L 944.604645 168.684854 
L 944.809265 168.781214 
L 945.218504 168.544928 
L 945.627744 168.36124 
L 946.241603 168.676888 
L 946.650842 169.030536 
L 947.878561 170.884764 
L 948.2878 171.409088 
L 948.901659 172.313721 
L 949.106279 172.421475 
L 949.310899 172.401881 
L 949.720138 172.04018 
L 950.129378 171.673594 
L 950.333997 171.628012 
L 950.743237 171.879611 
L 951.152476 172.5657 
L 951.766335 173.617925 
L 952.994054 174.453289 
L 953.403293 174.667469 
L 953.607913 174.606679 
L 954.017152 174.058528 
L 954.426392 173.6181 
L 954.835631 173.685125 
L 955.244871 174.083621 
L 955.85873 175.382289 
L 956.472589 176.65164 
L 957.291068 177.763732 
L 957.495688 177.820853 
L 957.700307 177.627124 
L 958.518786 176.253023 
L 958.723406 176.385566 
L 959.132645 177.416762 
L 959.746505 179.172983 
L 960.155744 180.000524 
L 960.564984 180.388957 
L 961.178843 180.575024 
L 961.997322 181.403864 
L 962.406561 181.448165 
L 963.02042 181.235302 
L 963.42966 180.594133 
L 964.043519 179.374188 
L 964.452758 179.105422 
L 965.066618 178.988738 
L 965.475857 179.34438 
L 966.089716 180.149215 
L 967.522054 182.531592 
L 968.340533 183.038866 
L 968.749773 182.935671 
L 969.568252 182.350096 
L 969.772871 182.358054 
L 969.977491 182.508698 
L 970.38673 183.243728 
L 970.79597 184.04905 
L 971.205209 184.294932 
L 971.819069 184.190545 
L 972.228308 184.406243 
L 972.842167 184.761479 
L 973.251407 184.866286 
L 974.274505 185.713108 
L 974.683745 185.774815 
L 975.092984 185.62193 
L 975.502224 185.31805 
L 975.706843 185.28476 
L 976.116083 185.632584 
L 976.525322 186.094993 
L 977.139181 186.348531 
L 977.548421 186.620188 
L 978.57152 187.606262 
L 979.389998 188.037174 
L 979.799238 188.364341 
L 980.003858 188.327672 
L 980.617717 187.620571 
L 981.026956 187.179051 
L 981.231576 187.079169 
L 981.436196 187.10455 
L 983.073154 188.201998 
L 983.277773 188.129396 
L 984.300872 187.016101 
L 985.119351 185.695943 
L 985.73321 184.630027 
L 985.93783 184.549182 
L 986.142449 184.616314 
L 986.551689 185.142232 
L 986.960928 185.742912 
L 987.370168 185.845014 
L 987.574788 185.888157 
L 987.984027 186.451352 
L 988.597886 187.399356 
L 990.030224 188.46048 
L 990.848703 188.538379 
L 991.462562 187.89409 
L 991.871802 187.533094 
L 992.281041 187.435694 
L 992.690281 187.615938 
L 994.327238 188.611131 
L 994.941098 188.389388 
L 996.578055 187.515951 
L 996.782675 187.528647 
L 996.987295 187.657168 
L 997.601154 188.35425 
L 997.805774 188.176348 
L 998.828872 186.062089 
L 999.238112 185.957633 
L 999.647351 186.108222 
L 1000.67045 186.90953 
L 1001.693549 186.78104 
L 1002.102788 186.983881 
L 1002.921267 187.898116 
L 1003.944366 189.564537 
L 1004.967464 190.380567 
L 1005.376704 190.41208 
L 1005.785943 190.098619 
L 1006.399802 189.573824 
L 1006.604422 189.565048 
L 1007.422901 190.096951 
L 1007.83214 189.813605 
L 1008.446 188.805212 
L 1009.059859 187.760114 
L 1009.673718 187.21325 
L 1010.696817 185.831847 
L 1010.901436 185.872673 
L 1011.515296 186.379117 
L 1011.924535 186.310311 
L 1012.538394 186.162169 
L 1012.947634 186.014153 
L 1013.766113 185.084279 
L 1013.970732 185.160896 
L 1014.379972 185.639987 
L 1014.789211 186.473605 
L 1015.60769 188.410006 
L 1016.221549 189.109715 
L 1016.630789 189.35167 
L 1017.040028 189.257482 
L 1017.653887 188.917537 
L 1018.063127 189.110652 
L 1018.472366 189.451698 
L 1018.676986 189.467597 
L 1019.700085 188.801672 
L 1020.313944 188.966316 
L 1021.132423 189.432258 
L 1021.541662 189.373698 
L 1022.155521 189.065772 
L 1022.564761 189.247129 
L 1023.17862 189.597687 
L 1023.792479 189.364681 
L 1024.610958 189.587302 
L 1026.247916 189.334416 
L 1027.884874 189.786398 
L 1028.294113 190.186385 
L 1028.498733 190.227363 
L 1028.907972 189.932481 
L 1029.931071 189.083002 
L 1031.158789 188.758463 
L 1031.363409 188.930788 
L 1031.772648 189.738782 
L 1032.386508 191.038919 
L 1032.591127 191.073891 
L 1033.204987 190.691722 
L 1033.409606 190.708958 
L 1033.818846 191.086545 
L 1034.228085 191.539113 
L 1034.637325 191.740811 
L 1035.046564 191.851045 
L 1036.478902 192.839995 
L 1036.683522 192.848175 
L 1036.888142 192.686102 
L 1037.092761 192.252732 
L 1037.706621 189.762298 
L 1038.11586 188.542795 
L 1038.525099 188.204415 
L 1039.343578 188.227753 
L 1039.752818 188.552262 
L 1040.162057 188.884058 
L 1040.366677 188.822223 
L 1041.185156 188.121189 
L 1042.003635 187.75178 
L 1042.617494 187.048305 
L 1043.435973 185.920273 
L 1043.640593 186.028921 
L 1044.049832 187.092661 
L 1044.868311 189.739758 
L 1045.27755 190.351464 
L 1045.68679 190.587323 
L 1045.89141 190.504187 
L 1046.300649 189.82467 
L 1046.709889 189.145891 
L 1046.914508 189.001178 
L 1047.119128 188.992919 
L 1047.937607 189.536811 
L 1049.574565 189.085074 
L 1050.188424 189.048619 
L 1050.597663 188.820912 
L 1051.006903 188.940002 
L 1051.416142 189.45961 
L 1052.030001 190.650696 
L 1052.234621 190.812739 
L 1053.0531 190.841709 
L 1053.25772 190.934079 
L 1053.46234 190.818901 
L 1054.280818 189.381066 
L 1054.485438 189.422485 
L 1055.303917 190.226049 
L 1055.508537 190.214356 
L 1055.917776 189.776738 
L 1056.327016 189.221084 
L 1057.145495 188.694304 
L 1057.350114 188.729002 
L 1057.554734 188.937363 
L 1057.963974 189.9891 
L 1058.577833 191.936537 
L 1058.782452 192.149265 
L 1059.191692 192.138601 
L 1059.396312 191.982716 
L 1059.805551 191.132507 
L 1060.41941 189.602649 
L 1060.82865 189.176213 
L 1061.851748 188.955487 
L 1062.260988 189.293652 
L 1062.874847 190.132053 
L 1063.693326 191.008805 
L 1064.102565 191.479851 
L 1064.307185 191.545771 
L 1064.511805 191.449944 
L 1064.921044 190.848077 
L 1065.534903 189.661012 
L 1065.739523 189.555881 
L 1066.148763 189.850936 
L 1066.558002 190.097133 
L 1066.967242 189.820836 
L 1067.581101 189.249075 
L 1067.99034 189.225964 
L 1068.39958 189.583357 
L 1069.013439 190.1989 
L 1069.422678 190.371133 
L 1069.627298 190.28868 
L 1070.036537 189.718978 
L 1070.445777 188.988193 
L 1070.650397 188.815789 
L 1070.855016 188.889119 
L 1071.673495 189.858817 
L 1072.082735 189.849381 
L 1073.105833 189.265239 
L 1073.515073 189.474571 
L 1074.538171 190.430071 
L 1074.742791 190.38812 
L 1075.56127 189.467355 
L 1075.970509 189.584476 
L 1076.175129 189.485546 
L 1076.788988 188.614373 
L 1076.993608 188.564347 
L 1077.402848 188.927665 
L 1078.221326 190.082274 
L 1078.630566 190.819065 
L 1078.835186 190.982995 
L 1079.244425 190.911582 
L 1079.858284 190.681091 
L 1080.267524 190.666956 
L 1080.472143 190.472936 
L 1081.495242 188.768547 
L 1081.699862 188.724079 
L 1082.313721 189.046555 
L 1082.92758 189.186454 
L 1083.33682 188.946858 
L 1083.950679 188.325722 
L 1084.359918 188.281247 
L 1085.178397 188.893654 
L 1085.383017 188.773181 
L 1085.996876 187.898789 
L 1086.406116 187.871289 
L 1086.815355 188.228096 
L 1087.429214 189.260962 
L 1088.247693 191.178728 
L 1088.452313 191.308659 
L 1088.861552 191.171686 
L 1089.270792 190.623233 
L 1090.49851 188.145305 
L 1090.90775 188.16016 
L 1091.316989 188.370607 
L 1092.135468 189.023191 
L 1092.340088 188.984866 
L 1092.749327 188.529809 
L 1093.363186 187.793367 
L 1093.772426 187.509917 
L 1093.977045 187.491613 
L 1094.181665 187.705408 
L 1094.590905 188.828546 
L 1095.204764 191.032962 
L 1095.409384 191.426306 
L 1095.614003 191.505037 
L 1096.023243 190.974924 
L 1096.227862 190.721906 
L 1096.432482 190.692261 
L 1097.250961 191.178968 
L 1097.86482 191.138298 
L 1098.27406 190.912111 
L 1099.297158 189.807143 
L 1099.706398 189.604486 
L 1100.524877 188.578195 
L 1100.729496 188.542162 
L 1101.138736 188.800625 
L 1101.752595 189.43708 
L 1102.366454 190.32541 
L 1102.775694 190.177355 
L 1104.003412 189.441795 
L 1104.821891 188.853386 
L 1105.026511 188.9346 
L 1105.64037 189.682475 
L 1105.84499 189.686306 
L 1106.458849 189.285276 
L 1106.663469 189.39567 
L 1107.072708 190.083635 
L 1107.686567 191.337469 
L 1108.095807 191.637039 
L 1109.323525 192.188194 
L 1109.732764 191.870703 
L 1110.755863 190.803518 
L 1111.574342 191.165019 
L 1112.188201 190.846476 
L 1112.80206 190.160969 
L 1113.2113 189.48607 
L 1114.029779 187.56959 
L 1114.234398 187.552545 
L 1114.848258 188.214164 
L 1115.052877 188.218338 
L 1115.462117 187.871315 
L 1116.689835 186.323364 
L 1116.894455 186.334468 
L 1117.099075 186.557893 
L 1117.508314 187.515025 
L 1118.122173 189.137371 
L 1118.940652 190.629216 
L 1119.145272 190.877064 
L 1119.349892 190.949319 
L 1119.554511 190.790397 
L 1119.963751 189.874488 
L 1120.57761 188.590539 
L 1121.191469 187.984848 
L 1121.600709 187.859065 
L 1122.419187 188.235022 
L 1122.828427 187.953978 
L 1123.442286 187.495664 
L 1123.646906 187.587225 
L 1124.056145 188.291721 
L 1124.670004 189.502383 
L 1125.283864 190.17909 
L 1125.488483 190.217858 
L 1125.897723 189.962958 
L 1127.330061 188.300364 
L 1127.534681 188.289807 
L 1127.7393 188.456481 
L 1128.14854 189.493619 
L 1128.557779 190.881093 
L 1128.762399 191.194414 
L 1128.967019 191.12872 
L 1130.194737 189.283264 
L 1131.217836 189.014997 
L 1131.627075 189.126975 
L 1131.831695 189.420281 
L 1132.854794 191.872608 
L 1133.059413 191.893857 
L 1133.468653 191.371834 
L 1133.877892 191.003233 
L 1134.287132 191.290634 
L 1134.900991 191.607222 
L 1135.31023 191.730677 
L 1135.71947 191.450624 
L 1136.333329 190.462545 
L 1136.742568 189.803639 
L 1137.151808 189.507128 
L 1137.561047 189.437744 
L 1138.379526 189.816996 
L 1138.788766 190.405122 
L 1139.198005 191.168176 
L 1139.402625 191.377146 
L 1139.607245 191.397681 
L 1140.016484 191.001622 
L 1140.834963 189.784001 
L 1141.039583 189.70635 
L 1141.858062 190.065097 
L 1142.267301 189.723283 
L 1142.67654 189.338849 
L 1143.08578 189.264297 
L 1143.699639 189.418582 
L 1144.108879 189.229417 
L 1144.722738 188.794569 
L 1144.927357 188.822998 
L 1145.541217 189.308757 
L 1145.745836 189.265768 
L 1146.359696 188.67853 
L 1147.996653 188.460233 
L 1149.224372 189.584063 
L 1149.633611 189.524315 
L 1150.24747 189.240695 
L 1150.65671 188.73671 
L 1151.065949 188.049362 
L 1151.270569 187.904575 
L 1151.884428 187.837624 
L 1152.498287 187.432368 
L 1153.316766 187.438151 
L 1154.135245 186.772389 
L 1154.339865 186.809892 
L 1154.749104 187.292814 
L 1155.158344 187.693963 
L 1155.567583 187.686289 
L 1155.976823 187.627105 
L 1156.386062 187.839923 
L 1157.409161 189.053209 
L 1158.22764 189.837764 
L 1158.636879 189.878857 
L 1159.046119 189.618042 
L 1160.273837 188.461824 
L 1161.501555 188.632679 
L 1162.115414 188.483397 
L 1163.138513 188.908374 
L 1163.547753 189.133452 
L 1163.752372 189.045062 
L 1164.570851 188.108808 
L 1164.775471 188.237602 
L 1165.59395 189.664973 
L 1166.207809 190.727695 
L 1166.412429 190.885164 
L 1166.617048 190.848212 
L 1166.821668 190.615122 
L 1167.230908 189.474976 
L 1167.844767 187.34957 
L 1168.049387 187.042302 
L 1168.254006 187.004408 
L 1168.663246 187.499532 
L 1169.277105 188.418828 
L 1169.686344 188.558909 
L 1170.300204 188.628723 
L 1170.709443 188.825706 
L 1171.118682 189.377791 
L 1171.732542 190.567025 
L 1172.141781 190.793357 
L 1172.551021 190.614543 
L 1172.96026 190.50587 
L 1173.574119 190.808434 
L 1173.983359 190.611781 
L 1174.392598 189.964003 
L 1175.006457 188.277948 
L 1175.620316 186.358463 
L 1175.824936 186.027455 
L 1176.029556 185.978996 
L 1176.438795 186.445979 
L 1177.052655 187.1181 
L 1177.461894 187.512066 
L 1178.689612 189.550329 
L 1178.894232 189.656237 
L 1179.303472 189.453333 
L 1179.508091 189.343086 
L 1179.712711 189.365322 
L 1180.12195 189.80545 
L 1180.53119 190.287319 
L 1180.940429 190.381716 
L 1181.349669 190.212443 
L 1182.168148 189.512315 
L 1182.577387 189.639208 
L 1182.986627 189.751479 
L 1183.395866 189.36733 
L 1184.418965 187.98755 
L 1184.828204 187.88494 
L 1184.828204 187.88494 
" clip-path="url(#pf6b3db5f24)" style="fill: none; stroke: #000000; stroke-width: 2; stroke-linecap: square"/>
   </g>
   <g id="patch_3">
    <path d="M 3.00024 198.907885 
L 1184.99976 198.907885 
" style="fill: none; stroke: #000000; stroke-width: 2; stroke-linejoin: miter; stroke-linecap: square"/>
   </g>
  </g>
 </g>
 <defs>
  <clipPath id="pf6b3db5f24">
   <rect x="3.00024" y="3.00024" width="1181.99952" height="195.907645"/>
  </clipPath>
 </defs>
</svg>
