<?xml version="1.0" encoding="utf-8" standalone="no"?>
<!DOCTYPE svg PUBLIC "-//W3C//DTD SVG 1.1//EN"
  "http://www.w3.org/Graphics/SVG/1.1/DTD/svg11.dtd">
<svg xmlns:xlink="http://www.w3.org/1999/xlink" width="1188pt" height="252pt" viewBox="0 0 1188 252" xmlns="http://www.w3.org/2000/svg" version="1.1">
 <metadata>
  <rdf:RDF xmlns:dc="http://purl.org/dc/elements/1.1/" xmlns:cc="http://creativecommons.org/ns#" xmlns:rdf="http://www.w3.org/1999/02/22-rdf-syntax-ns#">
   <cc:Work>
    <dc:type rdf:resource="http://purl.org/dc/dcmitype/StillImage"/>
    <dc:date>2024-05-13T15:44:16.771845</dc:date>
    <dc:format>image/svg+xml</dc:format>
    <dc:creator>
     <cc:Agent>
      <dc:title>Matplotlib v3.8.0, https://matplotlib.org/</dc:title>
     </cc:Agent>
    </dc:creator>
   </cc:Work>
  </rdf:RDF>
 </metadata>
 <defs>
  <style type="text/css">*{stroke-linejoin: round; stroke-linecap: butt}</style>
 </defs>
 <g id="figure_1">
  <g id="patch_1">
   <path d="M 0 252 
L 1188 252 
L 1188 0 
L 0 0 
z
" style="fill: #ffffff"/>
  </g>
  <g id="axes_1">
   <g id="patch_2">
    <path d="M 3.00024 198.907885 
L 1184.99976 198.907885 
L 1184.99976 3.00024 
L 3.00024 3.00024 
z
" style="fill: #ffffff"/>
   </g>
   <g id="matplotlib.axis_1">
    <g id="xtick_1">
     <g id="line2d_1">
      <defs>
       <path id="mb06f9961c1" d="M 0 0 
L 0 8 
" style="stroke: #000000; stroke-width: 2"/>
      </defs>
      <g>
       <use xlink:href="#mb06f9961c1" x="1131.272509" y="198.907885" style="stroke: #000000; stroke-width: 2"/>
      </g>
     </g>
     <g id="text_1">
      <!-- 0 -->
      <g transform="translate(1126.267665 224.791947) scale(0.18 -0.18)">
       <defs>
        <path id="Arial-BoldMT-30" d="M 1756 4600 
Q 2422 4600 2797 4125 
Q 3244 3563 3244 2259 
Q 3244 959 2794 391 
Q 2422 -78 1756 -78 
Q 1088 -78 678 436 
Q 269 950 269 2269 
Q 269 3563 719 4131 
Q 1091 4600 1756 4600 
z
M 1756 3872 
Q 1597 3872 1472 3770 
Q 1347 3669 1278 3406 
Q 1188 3066 1188 2259 
Q 1188 1453 1269 1151 
Q 1350 850 1473 750 
Q 1597 650 1756 650 
Q 1916 650 2041 751 
Q 2166 853 2234 1116 
Q 2325 1453 2325 2259 
Q 2325 3066 2244 3367 
Q 2163 3669 2039 3770 
Q 1916 3872 1756 3872 
z
" transform="scale(0.015625)"/>
       </defs>
       <use xlink:href="#Arial-BoldMT-30"/>
      </g>
     </g>
    </g>
    <g id="xtick_2">
     <g id="line2d_2">
      <g>
       <use xlink:href="#mb06f9961c1" x="1023.818007" y="198.907885" style="stroke: #000000; stroke-width: 2"/>
      </g>
     </g>
     <g id="text_2">
      <!-- 1 -->
      <g transform="translate(1018.813164 224.791947) scale(0.18 -0.18)">
       <defs>
        <path id="Arial-BoldMT-31" d="M 2519 0 
L 1641 0 
L 1641 3309 
Q 1159 2859 506 2644 
L 506 3441 
Q 850 3553 1253 3867 
Q 1656 4181 1806 4600 
L 2519 4600 
L 2519 0 
z
" transform="scale(0.015625)"/>
       </defs>
       <use xlink:href="#Arial-BoldMT-31"/>
      </g>
     </g>
    </g>
    <g id="xtick_3">
     <g id="line2d_3">
      <g>
       <use xlink:href="#mb06f9961c1" x="916.363505" y="198.907885" style="stroke: #000000; stroke-width: 2"/>
      </g>
     </g>
     <g id="text_3">
      <!-- 2 -->
      <g transform="translate(911.358662 224.791947) scale(0.18 -0.18)">
       <defs>
        <path id="Arial-BoldMT-32" d="M 3238 816 
L 3238 0 
L 159 0 
Q 209 463 459 877 
Q 709 1291 1447 1975 
Q 2041 2528 2175 2725 
Q 2356 2997 2356 3263 
Q 2356 3556 2198 3714 
Q 2041 3872 1763 3872 
Q 1488 3872 1325 3706 
Q 1163 3541 1138 3156 
L 263 3244 
Q 341 3969 753 4284 
Q 1166 4600 1784 4600 
Q 2463 4600 2850 4234 
Q 3238 3869 3238 3325 
Q 3238 3016 3127 2736 
Q 3016 2456 2775 2150 
Q 2616 1947 2200 1565 
Q 1784 1184 1673 1059 
Q 1563 934 1494 816 
L 3238 816 
z
" transform="scale(0.015625)"/>
       </defs>
       <use xlink:href="#Arial-BoldMT-32"/>
      </g>
     </g>
    </g>
    <g id="xtick_4">
     <g id="line2d_4">
      <g>
       <use xlink:href="#mb06f9961c1" x="808.909004" y="198.907885" style="stroke: #000000; stroke-width: 2"/>
      </g>
     </g>
     <g id="text_4">
      <!-- 3 -->
      <g transform="translate(803.90416 224.791947) scale(0.18 -0.18)">
       <defs>
        <path id="Arial-BoldMT-33" d="M 241 1216 
L 1091 1319 
Q 1131 994 1309 822 
Q 1488 650 1741 650 
Q 2013 650 2198 856 
Q 2384 1063 2384 1413 
Q 2384 1744 2206 1937 
Q 2028 2131 1772 2131 
Q 1603 2131 1369 2066 
L 1466 2781 
Q 1822 2772 2009 2936 
Q 2197 3100 2197 3372 
Q 2197 3603 2059 3740 
Q 1922 3878 1694 3878 
Q 1469 3878 1309 3722 
Q 1150 3566 1116 3266 
L 306 3403 
Q 391 3819 561 4067 
Q 731 4316 1036 4458 
Q 1341 4600 1719 4600 
Q 2366 4600 2756 4188 
Q 3078 3850 3078 3425 
Q 3078 2822 2419 2463 
Q 2813 2378 3048 2084 
Q 3284 1791 3284 1375 
Q 3284 772 2843 347 
Q 2403 -78 1747 -78 
Q 1125 -78 715 280 
Q 306 638 241 1216 
z
" transform="scale(0.015625)"/>
       </defs>
       <use xlink:href="#Arial-BoldMT-33"/>
      </g>
     </g>
    </g>
    <g id="xtick_5">
     <g id="line2d_5">
      <g>
       <use xlink:href="#mb06f9961c1" x="701.454502" y="198.907885" style="stroke: #000000; stroke-width: 2"/>
      </g>
     </g>
     <g id="text_5">
      <!-- 4 -->
      <g transform="translate(696.449658 224.791947) scale(0.18 -0.18)">
       <defs>
        <path id="Arial-BoldMT-34" d="M 1994 0 
L 1994 922 
L 119 922 
L 119 1691 
L 2106 4600 
L 2844 4600 
L 2844 1694 
L 3413 1694 
L 3413 922 
L 2844 922 
L 2844 0 
L 1994 0 
z
M 1994 1694 
L 1994 3259 
L 941 1694 
L 1994 1694 
z
" transform="scale(0.015625)"/>
       </defs>
       <use xlink:href="#Arial-BoldMT-34"/>
      </g>
     </g>
    </g>
    <g id="xtick_6">
     <g id="line2d_6">
      <g>
       <use xlink:href="#mb06f9961c1" x="594" y="198.907885" style="stroke: #000000; stroke-width: 2"/>
      </g>
     </g>
     <g id="text_6">
      <!-- 5 -->
      <g transform="translate(588.995156 224.791947) scale(0.18 -0.18)">
       <defs>
        <path id="Arial-BoldMT-35" d="M 284 1178 
L 1159 1269 
Q 1197 972 1381 798 
Q 1566 625 1806 625 
Q 2081 625 2272 848 
Q 2463 1072 2463 1522 
Q 2463 1944 2273 2155 
Q 2084 2366 1781 2366 
Q 1403 2366 1103 2031 
L 391 2134 
L 841 4519 
L 3163 4519 
L 3163 3697 
L 1506 3697 
L 1369 2919 
Q 1663 3066 1969 3066 
Q 2553 3066 2959 2641 
Q 3366 2216 3366 1538 
Q 3366 972 3038 528 
Q 2591 -78 1797 -78 
Q 1163 -78 763 262 
Q 363 603 284 1178 
z
" transform="scale(0.015625)"/>
       </defs>
       <use xlink:href="#Arial-BoldMT-35"/>
      </g>
     </g>
    </g>
    <g id="xtick_7">
     <g id="line2d_7">
      <g>
       <use xlink:href="#mb06f9961c1" x="486.545498" y="198.907885" style="stroke: #000000; stroke-width: 2"/>
      </g>
     </g>
     <g id="text_7">
      <!-- 6 -->
      <g transform="translate(481.540654 224.791947) scale(0.18 -0.18)">
       <defs>
        <path id="Arial-BoldMT-36" d="M 3247 3459 
L 2397 3366 
Q 2366 3628 2234 3753 
Q 2103 3878 1894 3878 
Q 1616 3878 1423 3628 
Q 1231 3378 1181 2588 
Q 1509 2975 1997 2975 
Q 2547 2975 2939 2556 
Q 3331 2138 3331 1475 
Q 3331 772 2918 347 
Q 2506 -78 1859 -78 
Q 1166 -78 719 461 
Q 272 1000 272 2228 
Q 272 3488 737 4044 
Q 1203 4600 1947 4600 
Q 2469 4600 2811 4308 
Q 3153 4016 3247 3459 
z
M 1256 1544 
Q 1256 1116 1453 883 
Q 1650 650 1903 650 
Q 2147 650 2309 840 
Q 2472 1031 2472 1466 
Q 2472 1913 2297 2120 
Q 2122 2328 1859 2328 
Q 1606 2328 1431 2129 
Q 1256 1931 1256 1544 
z
" transform="scale(0.015625)"/>
       </defs>
       <use xlink:href="#Arial-BoldMT-36"/>
      </g>
     </g>
    </g>
    <g id="xtick_8">
     <g id="line2d_8">
      <g>
       <use xlink:href="#mb06f9961c1" x="379.090996" y="198.907885" style="stroke: #000000; stroke-width: 2"/>
      </g>
     </g>
     <g id="text_8">
      <!-- 7 -->
      <g transform="translate(374.086153 224.791947) scale(0.18 -0.18)">
       <defs>
        <path id="Arial-BoldMT-37" d="M 272 3703 
L 272 4519 
L 3275 4519 
L 3275 3881 
Q 2903 3516 2518 2831 
Q 2134 2147 1932 1376 
Q 1731 606 1734 0 
L 888 0 
Q 909 950 1279 1937 
Q 1650 2925 2269 3703 
L 272 3703 
z
" transform="scale(0.015625)"/>
       </defs>
       <use xlink:href="#Arial-BoldMT-37"/>
      </g>
     </g>
    </g>
    <g id="xtick_9">
     <g id="line2d_9">
      <g>
       <use xlink:href="#mb06f9961c1" x="271.636495" y="198.907885" style="stroke: #000000; stroke-width: 2"/>
      </g>
     </g>
     <g id="text_9">
      <!-- 8 -->
      <g transform="translate(266.631651 224.791947) scale(0.18 -0.18)">
       <defs>
        <path id="Arial-BoldMT-38" d="M 1025 2472 
Q 684 2616 529 2867 
Q 375 3119 375 3419 
Q 375 3931 733 4265 
Q 1091 4600 1750 4600 
Q 2403 4600 2764 4265 
Q 3125 3931 3125 3419 
Q 3125 3100 2959 2851 
Q 2794 2603 2494 2472 
Q 2875 2319 3073 2025 
Q 3272 1731 3272 1347 
Q 3272 713 2867 316 
Q 2463 -81 1791 -81 
Q 1166 -81 750 247 
Q 259 634 259 1309 
Q 259 1681 443 1992 
Q 628 2303 1025 2472 
z
M 1206 3356 
Q 1206 3094 1354 2947 
Q 1503 2800 1750 2800 
Q 2000 2800 2150 2948 
Q 2300 3097 2300 3359 
Q 2300 3606 2151 3754 
Q 2003 3903 1759 3903 
Q 1506 3903 1356 3753 
Q 1206 3603 1206 3356 
z
M 1125 1394 
Q 1125 1031 1311 828 
Q 1497 625 1775 625 
Q 2047 625 2225 820 
Q 2403 1016 2403 1384 
Q 2403 1706 2222 1901 
Q 2041 2097 1763 2097 
Q 1441 2097 1283 1875 
Q 1125 1653 1125 1394 
z
" transform="scale(0.015625)"/>
       </defs>
       <use xlink:href="#Arial-BoldMT-38"/>
      </g>
     </g>
    </g>
    <g id="xtick_10">
     <g id="line2d_10">
      <g>
       <use xlink:href="#mb06f9961c1" x="164.181993" y="198.907885" style="stroke: #000000; stroke-width: 2"/>
      </g>
     </g>
     <g id="text_10">
      <!-- 9 -->
      <g transform="translate(159.177149 224.791947) scale(0.18 -0.18)">
       <defs>
        <path id="Arial-BoldMT-39" d="M 291 1059 
L 1141 1153 
Q 1172 894 1303 769 
Q 1434 644 1650 644 
Q 1922 644 2112 894 
Q 2303 1144 2356 1931 
Q 2025 1547 1528 1547 
Q 988 1547 595 1964 
Q 203 2381 203 3050 
Q 203 3747 617 4173 
Q 1031 4600 1672 4600 
Q 2369 4600 2816 4061 
Q 3263 3522 3263 2288 
Q 3263 1031 2797 475 
Q 2331 -81 1584 -81 
Q 1047 -81 715 205 
Q 384 491 291 1059 
z
M 2278 2978 
Q 2278 3403 2083 3637 
Q 1888 3872 1631 3872 
Q 1388 3872 1227 3680 
Q 1066 3488 1066 3050 
Q 1066 2606 1241 2398 
Q 1416 2191 1678 2191 
Q 1931 2191 2104 2391 
Q 2278 2591 2278 2978 
z
" transform="scale(0.015625)"/>
       </defs>
       <use xlink:href="#Arial-BoldMT-39"/>
      </g>
     </g>
    </g>
    <g id="xtick_11">
     <g id="line2d_11">
      <g>
       <use xlink:href="#mb06f9961c1" x="56.727491" y="198.907885" style="stroke: #000000; stroke-width: 2"/>
      </g>
     </g>
     <g id="text_11">
      <!-- 10 -->
      <g transform="translate(46.717803 224.791947) scale(0.18 -0.18)">
       <use xlink:href="#Arial-BoldMT-31"/>
       <use xlink:href="#Arial-BoldMT-30" x="55.615234"/>
      </g>
     </g>
    </g>
    <g id="text_12">
     <!-- Chemical Shift / ppm -->
     <g transform="translate(504.992813 245.447573) scale(0.18 -0.18)">
      <defs>
       <path id="Arial-BoldMT-43" d="M 3397 1684 
L 4294 1400 
Q 4088 650 3608 286 
Q 3128 -78 2391 -78 
Q 1478 -78 890 545 
Q 303 1169 303 2250 
Q 303 3394 893 4026 
Q 1484 4659 2447 4659 
Q 3288 4659 3813 4163 
Q 4125 3869 4281 3319 
L 3366 3100 
Q 3284 3456 3026 3662 
Q 2769 3869 2400 3869 
Q 1891 3869 1573 3503 
Q 1256 3138 1256 2319 
Q 1256 1450 1568 1081 
Q 1881 713 2381 713 
Q 2750 713 3015 947 
Q 3281 1181 3397 1684 
z
" transform="scale(0.015625)"/>
       <path id="Arial-BoldMT-68" d="M 1334 4581 
L 1334 2897 
Q 1759 3394 2350 3394 
Q 2653 3394 2897 3281 
Q 3141 3169 3264 2994 
Q 3388 2819 3433 2606 
Q 3478 2394 3478 1947 
L 3478 0 
L 2600 0 
L 2600 1753 
Q 2600 2275 2550 2415 
Q 2500 2556 2373 2639 
Q 2247 2722 2056 2722 
Q 1838 2722 1666 2615 
Q 1494 2509 1414 2295 
Q 1334 2081 1334 1663 
L 1334 0 
L 456 0 
L 456 4581 
L 1334 4581 
z
" transform="scale(0.015625)"/>
       <path id="Arial-BoldMT-65" d="M 2381 1056 
L 3256 909 
Q 3088 428 2723 176 
Q 2359 -75 1813 -75 
Q 947 -75 531 491 
Q 203 944 203 1634 
Q 203 2459 634 2926 
Q 1066 3394 1725 3394 
Q 2466 3394 2894 2905 
Q 3322 2416 3303 1406 
L 1103 1406 
Q 1113 1016 1316 798 
Q 1519 581 1822 581 
Q 2028 581 2168 693 
Q 2309 806 2381 1056 
z
M 2431 1944 
Q 2422 2325 2234 2523 
Q 2047 2722 1778 2722 
Q 1491 2722 1303 2513 
Q 1116 2303 1119 1944 
L 2431 1944 
z
" transform="scale(0.015625)"/>
       <path id="Arial-BoldMT-6d" d="M 394 3319 
L 1203 3319 
L 1203 2866 
Q 1638 3394 2238 3394 
Q 2556 3394 2790 3262 
Q 3025 3131 3175 2866 
Q 3394 3131 3647 3262 
Q 3900 3394 4188 3394 
Q 4553 3394 4806 3245 
Q 5059 3097 5184 2809 
Q 5275 2597 5275 2122 
L 5275 0 
L 4397 0 
L 4397 1897 
Q 4397 2391 4306 2534 
Q 4184 2722 3931 2722 
Q 3747 2722 3584 2609 
Q 3422 2497 3350 2280 
Q 3278 2063 3278 1594 
L 3278 0 
L 2400 0 
L 2400 1819 
Q 2400 2303 2353 2443 
Q 2306 2584 2207 2653 
Q 2109 2722 1941 2722 
Q 1738 2722 1575 2612 
Q 1413 2503 1342 2297 
Q 1272 2091 1272 1613 
L 1272 0 
L 394 0 
L 394 3319 
z
" transform="scale(0.015625)"/>
       <path id="Arial-BoldMT-69" d="M 459 3769 
L 459 4581 
L 1338 4581 
L 1338 3769 
L 459 3769 
z
M 459 0 
L 459 3319 
L 1338 3319 
L 1338 0 
L 459 0 
z
" transform="scale(0.015625)"/>
       <path id="Arial-BoldMT-63" d="M 3353 2338 
L 2488 2181 
Q 2444 2441 2289 2572 
Q 2134 2703 1888 2703 
Q 1559 2703 1364 2476 
Q 1169 2250 1169 1719 
Q 1169 1128 1367 884 
Q 1566 641 1900 641 
Q 2150 641 2309 783 
Q 2469 925 2534 1272 
L 3397 1125 
Q 3263 531 2881 228 
Q 2500 -75 1859 -75 
Q 1131 -75 698 384 
Q 266 844 266 1656 
Q 266 2478 700 2936 
Q 1134 3394 1875 3394 
Q 2481 3394 2839 3133 
Q 3197 2872 3353 2338 
z
" transform="scale(0.015625)"/>
       <path id="Arial-BoldMT-61" d="M 1116 2306 
L 319 2450 
Q 453 2931 781 3162 
Q 1109 3394 1756 3394 
Q 2344 3394 2631 3255 
Q 2919 3116 3036 2902 
Q 3153 2688 3153 2116 
L 3144 1091 
Q 3144 653 3186 445 
Q 3228 238 3344 0 
L 2475 0 
Q 2441 88 2391 259 
Q 2369 338 2359 363 
Q 2134 144 1878 34 
Q 1622 -75 1331 -75 
Q 819 -75 523 203 
Q 228 481 228 906 
Q 228 1188 362 1408 
Q 497 1628 739 1745 
Q 981 1863 1438 1950 
Q 2053 2066 2291 2166 
L 2291 2253 
Q 2291 2506 2166 2614 
Q 2041 2722 1694 2722 
Q 1459 2722 1328 2630 
Q 1197 2538 1116 2306 
z
M 2291 1594 
Q 2122 1538 1756 1459 
Q 1391 1381 1278 1306 
Q 1106 1184 1106 997 
Q 1106 813 1243 678 
Q 1381 544 1594 544 
Q 1831 544 2047 700 
Q 2206 819 2256 991 
Q 2291 1103 2291 1419 
L 2291 1594 
z
" transform="scale(0.015625)"/>
       <path id="Arial-BoldMT-6c" d="M 459 0 
L 459 4581 
L 1338 4581 
L 1338 0 
L 459 0 
z
" transform="scale(0.015625)"/>
       <path id="Arial-BoldMT-20" transform="scale(0.015625)"/>
       <path id="Arial-BoldMT-53" d="M 231 1491 
L 1131 1578 
Q 1213 1125 1461 912 
Q 1709 700 2131 700 
Q 2578 700 2804 889 
Q 3031 1078 3031 1331 
Q 3031 1494 2936 1608 
Q 2841 1722 2603 1806 
Q 2441 1863 1863 2006 
Q 1119 2191 819 2459 
Q 397 2838 397 3381 
Q 397 3731 595 4036 
Q 794 4341 1167 4500 
Q 1541 4659 2069 4659 
Q 2931 4659 3367 4281 
Q 3803 3903 3825 3272 
L 2900 3231 
Q 2841 3584 2645 3739 
Q 2450 3894 2059 3894 
Q 1656 3894 1428 3728 
Q 1281 3622 1281 3444 
Q 1281 3281 1419 3166 
Q 1594 3019 2269 2859 
Q 2944 2700 3267 2529 
Q 3591 2359 3773 2064 
Q 3956 1769 3956 1334 
Q 3956 941 3737 597 
Q 3519 253 3119 86 
Q 2719 -81 2122 -81 
Q 1253 -81 787 320 
Q 322 722 231 1491 
z
" transform="scale(0.015625)"/>
       <path id="Arial-BoldMT-66" d="M 75 3319 
L 563 3319 
L 563 3569 
Q 563 3988 652 4194 
Q 741 4400 980 4529 
Q 1219 4659 1584 4659 
Q 1959 4659 2319 4547 
L 2200 3934 
Q 1991 3984 1797 3984 
Q 1606 3984 1523 3895 
Q 1441 3806 1441 3553 
L 1441 3319 
L 2097 3319 
L 2097 2628 
L 1441 2628 
L 1441 0 
L 563 0 
L 563 2628 
L 75 2628 
L 75 3319 
z
" transform="scale(0.015625)"/>
       <path id="Arial-BoldMT-74" d="M 1981 3319 
L 1981 2619 
L 1381 2619 
L 1381 1281 
Q 1381 875 1398 808 
Q 1416 741 1477 697 
Q 1538 653 1625 653 
Q 1747 653 1978 738 
L 2053 56 
Q 1747 -75 1359 -75 
Q 1122 -75 931 4 
Q 741 84 652 211 
Q 563 338 528 553 
Q 500 706 500 1172 
L 500 2619 
L 97 2619 
L 97 3319 
L 500 3319 
L 500 3978 
L 1381 4491 
L 1381 3319 
L 1981 3319 
z
" transform="scale(0.015625)"/>
       <path id="Arial-BoldMT-2f" d="M -9 -78 
L 1125 4659 
L 1784 4659 
L 638 -78 
L -9 -78 
z
" transform="scale(0.015625)"/>
       <path id="Arial-BoldMT-70" d="M 434 3319 
L 1253 3319 
L 1253 2831 
Q 1413 3081 1684 3237 
Q 1956 3394 2288 3394 
Q 2866 3394 3269 2941 
Q 3672 2488 3672 1678 
Q 3672 847 3265 386 
Q 2859 -75 2281 -75 
Q 2006 -75 1782 34 
Q 1559 144 1313 409 
L 1313 -1263 
L 434 -1263 
L 434 3319 
z
M 1303 1716 
Q 1303 1156 1525 889 
Q 1747 622 2066 622 
Q 2372 622 2575 867 
Q 2778 1113 2778 1672 
Q 2778 2194 2568 2447 
Q 2359 2700 2050 2700 
Q 1728 2700 1515 2451 
Q 1303 2203 1303 1716 
z
" transform="scale(0.015625)"/>
      </defs>
      <use xlink:href="#Arial-BoldMT-43"/>
      <use xlink:href="#Arial-BoldMT-68" x="72.216797"/>
      <use xlink:href="#Arial-BoldMT-65" x="133.300781"/>
      <use xlink:href="#Arial-BoldMT-6d" x="188.916016"/>
      <use xlink:href="#Arial-BoldMT-69" x="277.832031"/>
      <use xlink:href="#Arial-BoldMT-63" x="305.615234"/>
      <use xlink:href="#Arial-BoldMT-61" x="361.230469"/>
      <use xlink:href="#Arial-BoldMT-6c" x="416.845703"/>
      <use xlink:href="#Arial-BoldMT-20" x="444.628906"/>
      <use xlink:href="#Arial-BoldMT-53" x="472.412109"/>
      <use xlink:href="#Arial-BoldMT-68" x="539.111328"/>
      <use xlink:href="#Arial-BoldMT-69" x="600.195312"/>
      <use xlink:href="#Arial-BoldMT-66" x="627.978516"/>
      <use xlink:href="#Arial-BoldMT-74" x="661.279297"/>
      <use xlink:href="#Arial-BoldMT-20" x="694.580078"/>
      <use xlink:href="#Arial-BoldMT-2f" x="722.363281"/>
      <use xlink:href="#Arial-BoldMT-20" x="750.146484"/>
      <use xlink:href="#Arial-BoldMT-70" x="777.929688"/>
      <use xlink:href="#Arial-BoldMT-70" x="839.013672"/>
      <use xlink:href="#Arial-BoldMT-6d" x="900.097656"/>
     </g>
    </g>
   </g>
   <g id="matplotlib.axis_2"/>
   <g id="line2d_12">
    <path d="M 2.927061 189.701785 
L 3.54092 190.701099 
L 3.95016 191.021661 
L 4.359399 190.919514 
L 4.973258 190.27749 
L 5.587117 189.567323 
L 5.996357 189.422483 
L 6.405596 189.441417 
L 7.019455 189.701575 
L 7.428695 189.596072 
L 7.633315 189.730505 
L 8.451794 190.808668 
L 9.270272 191.30367 
L 10.088751 192.439024 
L 10.293371 192.505132 
L 10.497991 192.389336 
L 10.90723 191.653295 
L 11.31647 190.778539 
L 11.725709 190.428491 
L 12.339568 190.495695 
L 12.953428 190.558883 
L 13.567287 190.609144 
L 13.976526 190.765059 
L 14.181146 190.718845 
L 14.999625 189.907926 
L 15.408864 189.441367 
L 16.227343 187.838858 
L 16.431963 187.810719 
L 17.250442 188.352198 
L 18.27354 189.208939 
L 18.68278 189.076715 
L 19.092019 189.278799 
L 19.705878 190.086353 
L 20.115118 190.721601 
L 20.319738 190.875887 
L 20.524357 190.839332 
L 20.933597 190.208757 
L 21.342836 189.418298 
L 21.547456 189.248147 
L 21.752076 189.273577 
L 22.570555 189.916593 
L 22.775174 189.797594 
L 23.184414 189.161651 
L 24.002893 187.763228 
L 24.207512 187.649022 
L 24.412132 187.666436 
L 24.821372 188.111362 
L 25.435231 188.99014 
L 25.84447 189.213349 
L 27.276808 190.83474 
L 27.686048 190.766297 
L 28.299907 190.44139 
L 28.913766 189.600684 
L 29.527625 188.88192 
L 29.936865 188.261267 
L 30.755344 186.598234 
L 31.164583 186.349925 
L 31.778442 186.516619 
L 32.187682 186.844166 
L 33.21078 188.595216 
L 33.62002 188.443717 
L 34.847738 187.371574 
L 35.256978 187.277679 
L 35.666217 187.34036 
L 36.280076 187.157674 
L 36.689316 187.453631 
L 38.735513 190.086244 
L 39.758612 190.476996 
L 40.78171 191.31265 
L 40.98633 191.293643 
L 41.19095 191.095293 
L 42.214048 189.255056 
L 42.827908 189.105704 
L 43.441767 188.909089 
L 43.851006 188.45129 
L 44.464865 187.555364 
L 44.669485 187.450993 
L 44.874105 187.58335 
L 45.897204 189.358138 
L 46.511063 189.646152 
L 46.920302 189.852134 
L 48.148021 189.662752 
L 48.966499 188.926769 
L 49.375739 189.47907 
L 49.784978 190.035779 
L 49.989598 190.10694 
L 50.398838 189.839394 
L 50.808077 189.560166 
L 51.012697 189.588438 
L 51.421936 189.96832 
L 51.831176 190.293063 
L 52.240415 190.089646 
L 53.058894 189.703023 
L 53.263514 189.781589 
L 53.877373 190.445641 
L 54.286612 190.320772 
L 54.900471 189.916131 
L 55.514331 189.118216 
L 55.92357 188.317043 
L 56.33281 187.436519 
L 56.537429 187.306245 
L 56.742049 187.408446 
L 57.969767 188.790511 
L 58.788246 189.269989 
L 59.197486 188.875835 
L 59.606725 188.578039 
L 60.220584 188.648684 
L 60.629824 188.360136 
L 61.243683 187.811586 
L 61.652922 187.633171 
L 61.857542 187.638502 
L 62.062162 187.768163 
L 62.266782 188.074884 
L 62.676021 189.334553 
L 63.28988 191.547471 
L 63.4945 191.793548 
L 63.69912 191.718501 
L 64.108359 190.903659 
L 64.517599 190.078681 
L 64.926838 189.867256 
L 65.131458 189.780128 
L 65.540697 189.132109 
L 65.949937 188.283744 
L 66.359176 187.94064 
L 66.768416 188.096906 
L 67.382275 189.010612 
L 68.200754 190.506967 
L 68.609993 191.230823 
L 69.019233 191.369447 
L 70.042331 191.102408 
L 70.451571 190.331333 
L 71.06543 188.691874 
L 71.27005 188.446537 
L 71.474669 188.44828 
L 71.883909 188.905245 
L 73.316247 190.850609 
L 73.520867 190.887587 
L 74.339346 190.312278 
L 74.748585 190.48547 
L 76.180923 191.535502 
L 76.385543 191.546098 
L 76.794782 191.064281 
L 78.022501 188.851568 
L 78.43174 188.204057 
L 79.045599 187.89264 
L 79.454839 187.855552 
L 80.682557 188.565394 
L 81.091797 189.250352 
L 81.501036 190.075988 
L 81.705656 190.285848 
L 81.910275 190.301317 
L 82.319515 189.858792 
L 82.728754 189.334043 
L 82.933374 189.207624 
L 83.137994 189.2499 
L 83.547233 189.837364 
L 83.956473 190.287717 
L 84.365712 190.240883 
L 85.593431 189.776592 
L 85.79805 189.813029 
L 86.20729 190.233554 
L 86.616529 190.54959 
L 86.821149 190.361163 
L 87.435008 189.296459 
L 87.639628 189.286711 
L 88.253487 189.845282 
L 88.662726 189.704413 
L 89.071966 189.358737 
L 89.890445 188.136307 
L 90.095065 188.155309 
L 91.118163 189.053505 
L 91.322783 189.199969 
L 91.732022 190.048211 
L 92.141262 191.115208 
L 92.550501 191.508668 
L 94.187459 191.683991 
L 94.596698 191.07668 
L 95.005938 190.386812 
L 95.415177 190.232009 
L 95.824417 190.43337 
L 96.438276 191.113277 
L 96.642896 191.112071 
L 97.052135 190.644238 
L 97.870614 189.675477 
L 98.279854 189.492335 
L 98.689093 189.68551 
L 99.507572 190.805354 
L 100.326051 191.949728 
L 100.530671 191.960382 
L 100.93991 191.579797 
L 101.758389 190.279313 
L 102.167628 189.66817 
L 102.372248 189.68041 
L 103.804586 191.424799 
L 104.418445 192.399792 
L 104.623065 192.438569 
L 104.827685 192.250155 
L 105.646164 190.740081 
L 105.850783 190.746859 
L 106.260023 191.000294 
L 106.464643 190.995209 
L 106.873882 190.631344 
L 108.1016 189.119467 
L 108.30622 189.141906 
L 109.943178 190.451873 
L 110.352417 190.500636 
L 110.761657 190.140203 
L 111.580136 189.184411 
L 112.603234 187.04135 
L 113.012474 187.209606 
L 113.830953 187.845811 
L 114.444812 188.949571 
L 115.67253 191.473159 
L 116.08177 191.88391 
L 116.28639 191.810994 
L 117.104868 191.086985 
L 117.514108 190.853916 
L 119.560305 188.421271 
L 119.969545 188.252388 
L 120.378784 188.372866 
L 120.788024 188.918302 
L 121.606502 190.426767 
L 121.811122 190.437186 
L 122.220362 190.118293 
L 123.038841 189.083049 
L 123.24346 189.216166 
L 123.857319 190.497486 
L 124.675798 191.95526 
L 125.289658 192.824704 
L 125.698897 192.964807 
L 126.108136 192.638535 
L 126.926615 191.51641 
L 127.335855 191.476674 
L 128.358953 191.671347 
L 129.177432 191.425876 
L 129.586672 190.787134 
L 130.405151 188.788391 
L 130.60977 188.622035 
L 131.428249 188.639838 
L 131.837489 188.650499 
L 132.655968 188.366654 
L 133.269827 188.56599 
L 133.883686 188.461941 
L 134.292925 187.916778 
L 134.702165 187.319105 
L 134.906785 187.227891 
L 135.316024 187.538582 
L 135.725264 187.854357 
L 136.134503 188.141786 
L 136.748362 188.762395 
L 137.157602 188.982886 
L 137.566841 189.703136 
L 137.976081 190.453724 
L 138.58994 190.974002 
L 138.999179 191.886257 
L 139.203799 192.38521 
L 139.408419 192.582198 
L 139.613038 192.3732 
L 140.226898 191.090143 
L 140.840757 190.703718 
L 141.249996 189.87491 
L 141.863855 188.301286 
L 142.068475 188.081709 
L 142.273095 188.075177 
L 142.886954 188.404746 
L 143.705433 188.139694 
L 144.114672 188.473632 
L 144.523912 188.813426 
L 145.342391 188.854633 
L 145.75163 189.462247 
L 146.16087 190.069145 
L 146.570109 190.157547 
L 146.979349 190.053071 
L 147.593208 190.242792 
L 147.797827 190.05403 
L 148.411687 188.610699 
L 148.820926 187.736746 
L 149.230166 187.386056 
L 149.844025 187.132811 
L 150.253264 187.402088 
L 151.890222 188.938941 
L 152.504081 189.107387 
L 153.11794 189.200849 
L 153.52718 189.384292 
L 153.7318 189.307291 
L 153.936419 188.984457 
L 154.754898 186.991372 
L 154.959518 186.921861 
L 155.368757 187.204486 
L 155.777997 187.549074 
L 156.187236 187.638053 
L 157.005715 187.441735 
L 157.414955 187.335746 
L 157.824194 187.554661 
L 158.847293 188.499762 
L 159.665772 188.763534 
L 160.075011 188.998415 
L 160.68887 189.032602 
L 161.507349 189.753498 
L 162.121208 189.556715 
L 162.530448 189.806714 
L 163.144307 190.374631 
L 163.348927 190.317193 
L 163.758166 189.851015 
L 164.167406 189.091991 
L 164.985885 187.038245 
L 165.190504 186.913773 
L 165.395124 187.03939 
L 165.804363 187.775745 
L 166.213603 188.518201 
L 166.418223 188.556354 
L 166.622842 188.304228 
L 167.645941 186.248783 
L 167.850561 186.204278 
L 168.2598 186.554411 
L 169.282899 187.952966 
L 169.896758 188.179629 
L 170.101378 188.015856 
L 170.715237 187.019739 
L 170.919857 186.916599 
L 171.329096 187.184385 
L 171.533716 187.312702 
L 171.738335 187.258572 
L 172.352195 186.773295 
L 172.761434 186.526247 
L 174.603012 184.676981 
L 174.807631 184.762854 
L 175.421491 185.633732 
L 175.62611 185.651024 
L 175.83073 185.379022 
L 176.444589 183.553867 
L 176.853829 182.593796 
L 177.263068 182.187962 
L 177.876927 181.979132 
L 178.081547 181.92357 
L 178.286167 181.708299 
L 179.104646 180.163476 
L 179.923125 179.517359 
L 180.332364 179.483603 
L 180.741603 179.58034 
L 181.150843 180.013951 
L 181.560082 180.646443 
L 181.764702 180.700451 
L 182.173942 180.312829 
L 182.787801 179.420955 
L 183.19704 178.19086 
L 186.061716 166.474442 
L 186.675576 162.725603 
L 187.289435 157.097038 
L 188.107914 145.546297 
L 188.721773 134.722403 
L 189.335632 120.159369 
L 189.949491 98.147352 
L 190.56335 66.297129 
L 191.586449 8.604813 
L 191.791069 3.545233 
L 191.995688 3.00024 
L 192.200308 7.267351 
L 192.609548 28.123994 
L 193.837266 109.488786 
L 194.451125 133.527485 
L 195.064984 149.670903 
L 195.678844 160.910357 
L 196.497322 171.202296 
L 197.111182 176.971723 
L 197.520421 179.198009 
L 198.13428 181.367155 
L 198.748139 182.51351 
L 199.157379 182.808751 
L 199.566618 183.08539 
L 199.975858 183.849021 
L 200.385097 184.681677 
L 200.589717 184.830715 
L 200.794337 184.761251 
L 201.817435 183.928177 
L 202.431295 183.539302 
L 202.635914 183.511793 
L 202.840534 183.600764 
L 203.659013 184.430539 
L 203.863633 184.229519 
L 204.272872 183.226482 
L 204.682112 181.45281 
L 206.11445 173.572581 
L 206.523689 172.76516 
L 206.932929 172.489405 
L 207.342168 172.685985 
L 208.160647 173.521886 
L 208.365267 173.539309 
L 208.979126 173.277053 
L 209.388365 173.635861 
L 209.797605 174.08233 
L 210.002224 173.979306 
L 210.206844 173.525934 
L 211.025323 170.21077 
L 211.639182 168.335216 
L 212.048422 167.271124 
L 212.866901 164.284433 
L 213.889999 159.906215 
L 214.503858 158.985148 
L 214.913098 158.194611 
L 215.322337 156.960015 
L 215.731577 155.131119 
L 217.368535 145.488528 
L 217.573154 145.16051 
L 217.777774 145.222478 
L 217.982394 145.647975 
L 218.391633 147.389796 
L 219.210112 151.399968 
L 219.619352 152.643725 
L 220.028591 153.366262 
L 220.233211 153.484826 
L 220.43783 153.359848 
L 220.64245 152.924852 
L 221.05169 151.057604 
L 221.665549 146.559284 
L 222.279408 139.889916 
L 222.893267 132.404307 
L 223.302507 129.905765 
L 223.507126 129.961902 
L 223.711746 130.91365 
L 224.120986 134.917181 
L 225.144084 147.136815 
L 225.553324 149.560792 
L 225.962563 150.974298 
L 226.167183 151.328913 
L 226.371803 151.315356 
L 226.576422 150.866099 
L 226.985662 148.507921 
L 227.599521 141.855368 
L 229.031859 123.777594 
L 229.441098 120.752747 
L 229.850338 118.948598 
L 230.668817 116.512252 
L 231.282676 112.319392 
L 231.896535 106.74992 
L 233.738113 86.162012 
L 234.147352 83.487864 
L 234.351972 82.876769 
L 234.556592 82.984795 
L 234.761211 84.022864 
L 235.170451 88.9557 
L 235.78431 101.223865 
L 238.035127 152.612643 
L 238.648986 161.462391 
L 239.058226 165.452428 
L 239.467465 167.291029 
L 239.876705 167.678773 
L 240.490564 167.839171 
L 240.695183 167.623323 
L 241.104423 166.519036 
L 242.332141 161.620446 
L 244.173719 152.852133 
L 244.378339 152.65019 
L 244.582958 152.756239 
L 244.787578 153.220656 
L 245.196817 155.188718 
L 245.810677 159.822798 
L 247.856874 179.130969 
L 249.084592 185.954044 
L 249.493832 187.199673 
L 249.903071 187.416727 
L 250.92617 187.856798 
L 251.335409 187.991357 
L 251.744649 188.679752 
L 252.563128 190.65115 
L 252.972367 191.181875 
L 253.381606 191.353757 
L 255.223184 190.446085 
L 256.041663 189.471523 
L 256.860142 189.077093 
L 257.064762 189.196316 
L 257.88324 190.097802 
L 258.4971 190.633879 
L 258.906339 191.027992 
L 259.110959 191.070145 
L 259.315579 190.971715 
L 259.520198 190.673187 
L 259.929438 189.209731 
L 260.543297 186.412847 
L 260.747917 186.06672 
L 261.157156 185.971712 
L 261.566396 185.962184 
L 261.771015 186.073765 
L 262.589494 187.07369 
L 262.794114 187.076726 
L 263.203353 186.670185 
L 264.021832 185.771459 
L 264.226452 185.746568 
L 264.635691 186.076604 
L 265.65879 187.628854 
L 265.86341 187.512276 
L 266.272649 186.395667 
L 266.886508 184.513335 
L 269.955804 177.572929 
L 270.365044 176.030695 
L 270.774283 173.717333 
L 271.797382 167.05974 
L 272.411241 165.333375 
L 272.820481 164.25258 
L 274.048199 159.301918 
L 274.662058 155.333673 
L 275.071298 151.639361 
L 275.685157 143.642143 
L 276.503636 131.158573 
L 277.117495 116.929263 
L 278.140593 86.185549 
L 279.368312 50.262578 
L 279.982171 37.104956 
L 280.39141 32.980291 
L 280.59603 32.883018 
L 280.80065 34.173109 
L 281.209889 40.378309 
L 282.846847 74.471411 
L 283.051467 75.893705 
L 283.256087 76.227407 
L 283.460706 75.606582 
L 283.869946 71.958569 
L 284.279185 65.361293 
L 285.097664 50.482057 
L 285.302284 48.507515 
L 285.506904 47.767792 
L 285.711523 48.232299 
L 285.916143 49.787568 
L 286.325382 55.801296 
L 286.939242 70.334119 
L 287.96234 102.731955 
L 288.780819 128.641675 
L 289.394678 142.603002 
L 290.008538 152.26483 
L 291.031636 164.187735 
L 291.645495 169.428172 
L 292.259355 172.582641 
L 292.873214 174.277409 
L 294.305552 177.431986 
L 295.53327 181.881915 
L 295.94251 182.485764 
L 296.351749 182.720685 
L 296.760989 182.602345 
L 297.374848 181.918122 
L 297.579467 181.939632 
L 297.784087 182.263129 
L 298.193327 183.594278 
L 299.011806 186.677011 
L 299.421045 187.340744 
L 299.625665 187.425452 
L 299.830284 187.362449 
L 300.239524 186.741363 
L 301.262623 184.627125 
L 301.671862 184.278605 
L 302.285721 184.082287 
L 302.694961 183.914935 
L 303.51344 183.135495 
L 303.718059 183.164017 
L 304.127299 183.565737 
L 304.536538 183.91924 
L 304.741158 183.844107 
L 305.559637 183.044063 
L 305.968876 183.121409 
L 307.401214 184.420222 
L 307.810454 184.532639 
L 308.833552 184.520675 
L 309.242792 185.214101 
L 309.652031 186.01781 
L 309.856651 186.221124 
L 310.061271 186.257754 
L 310.47051 186.029594 
L 310.87975 185.479849 
L 311.288989 184.547729 
L 312.107468 182.306729 
L 312.516708 181.913121 
L 312.925947 181.971726 
L 313.335186 182.28785 
L 313.744426 182.591679 
L 313.949046 182.529687 
L 314.358285 181.85212 
L 314.972144 179.952935 
L 316.609102 172.946556 
L 317.83682 166.269126 
L 318.24606 163.118414 
L 318.859919 156.074561 
L 319.473778 146.965485 
L 320.087637 133.99226 
L 320.906116 109.394711 
L 321.519976 83.733026 
L 322.747694 25.640567 
L 322.952314 22.411165 
L 323.156933 23.119842 
L 323.361553 27.858444 
L 323.770793 46.890883 
L 324.998511 114.237625 
L 325.61237 135.802623 
L 326.226229 149.475209 
L 327.044708 161.732119 
L 327.658567 167.925311 
L 328.272426 171.74047 
L 328.681666 173.366931 
L 329.090905 174.316466 
L 329.500145 175.098532 
L 329.909384 176.326337 
L 330.727863 179.386518 
L 330.932483 179.699695 
L 331.137103 179.708007 
L 331.955582 178.9051 
L 332.569441 178.090776 
L 333.1833 176.70669 
L 333.592539 175.31634 
L 335.024877 167.902106 
L 335.434117 165.07486 
L 336.047976 158.782157 
L 337.071075 145.579954 
L 337.889554 133.026418 
L 338.503413 119.643712 
L 339.526511 89.497358 
L 340.140371 73.556701 
L 340.54961 69.085076 
L 340.75423 69.105746 
L 340.95885 70.533877 
L 341.368089 76.989294 
L 343.005047 111.55174 
L 344.232765 130.931126 
L 344.846624 137.687915 
L 345.255864 140.514117 
L 345.665103 141.728829 
L 345.869723 141.683073 
L 346.074343 141.199024 
L 346.483582 139.054795 
L 347.097441 133.962293 
L 347.711301 126.774299 
L 348.529779 113.112988 
L 349.348258 96.29051 
L 350.166737 73.384406 
L 350.985216 50.00554 
L 351.394456 43.784312 
L 351.599075 43.108012 
L 351.803695 44.420128 
L 352.008315 47.824864 
L 352.417554 60.255168 
L 353.849892 114.738448 
L 354.668371 134.137107 
L 355.48685 149.952249 
L 356.100709 158.134137 
L 356.714569 163.499519 
L 357.328428 167.202996 
L 358.556146 174.073735 
L 359.579245 180.042556 
L 359.988484 181.510058 
L 360.397724 182.09095 
L 361.420822 182.834102 
L 362.034681 182.811335 
L 362.443921 183.260068 
L 363.876259 185.237046 
L 364.694738 185.188696 
L 365.103977 185.542156 
L 365.513217 186.031069 
L 365.922456 186.160535 
L 366.127076 186.204786 
L 366.331696 186.402926 
L 366.740935 187.313121 
L 367.150175 188.241145 
L 367.559414 188.709962 
L 368.582513 189.467991 
L 368.787132 189.399466 
L 370.21947 187.832458 
L 371.037949 186.400068 
L 371.242569 186.471139 
L 371.651809 187.17576 
L 372.265668 189.122766 
L 372.674907 190.237795 
L 372.879527 190.417079 
L 373.084147 190.2861 
L 373.493386 189.299063 
L 373.902626 188.228624 
L 374.107245 187.978453 
L 374.311865 187.978115 
L 374.516485 188.188287 
L 374.925724 189.056005 
L 375.744203 191.027854 
L 375.948823 190.955441 
L 377.381161 188.691511 
L 377.585781 188.573522 
L 377.7904 188.626145 
L 378.40426 189.262553 
L 378.608879 189.189358 
L 379.222738 188.37739 
L 379.427358 188.319263 
L 379.631978 188.454737 
L 380.450457 189.58233 
L 380.655077 189.645576 
L 380.859696 189.527895 
L 381.268936 188.803041 
L 381.678175 188.020556 
L 382.087415 187.691061 
L 382.496654 187.657642 
L 382.905894 187.729024 
L 383.519753 187.666656 
L 383.928992 188.261414 
L 384.952091 190.402887 
L 385.156711 190.27192 
L 385.975189 189.12478 
L 386.384429 189.074796 
L 386.793668 189.43014 
L 388.021387 190.815105 
L 388.430626 191.227684 
L 389.044485 191.975118 
L 389.249105 192.02887 
L 389.453725 191.905638 
L 389.862964 191.132432 
L 390.272204 190.35463 
L 391.295302 189.281456 
L 391.704542 189.169512 
L 392.113781 189.394133 
L 392.72764 189.966538 
L 393.13688 190.130005 
L 393.546119 190.634921 
L 393.955359 191.133461 
L 394.159979 191.180999 
L 394.569218 190.824052 
L 395.387697 189.834476 
L 396.615415 188.487098 
L 396.820035 188.548136 
L 398.047753 189.934721 
L 398.661613 190.449896 
L 399.275472 191.112897 
L 399.684711 190.992205 
L 400.50319 190.497595 
L 400.91243 190.518612 
L 401.321669 190.765142 
L 401.935528 191.485911 
L 402.140148 191.403352 
L 403.572486 189.378926 
L 403.981725 189.302483 
L 404.390965 189.619232 
L 406.027923 191.330928 
L 406.232542 191.249877 
L 406.641782 190.652333 
L 407.051021 190.113827 
L 408.07412 189.375658 
L 408.483359 189.21004 
L 409.097219 188.548303 
L 409.711078 187.712977 
L 409.915697 187.666692 
L 410.120317 187.768168 
L 410.529557 188.311311 
L 411.143416 189.245067 
L 411.348036 189.343404 
L 411.552655 189.252084 
L 412.166514 188.620679 
L 412.575754 188.676236 
L 412.984993 188.974368 
L 413.803472 190.039571 
L 414.212712 190.019014 
L 414.621951 189.549725 
L 415.23581 188.369668 
L 415.44043 188.183919 
L 415.64505 188.148324 
L 416.463529 188.540617 
L 416.872768 188.304118 
L 417.282008 187.745488 
L 417.691247 187.040187 
L 417.895867 186.902405 
L 418.305106 187.148019 
L 418.509726 187.297925 
L 418.714346 187.305743 
L 419.123585 186.843901 
L 419.737444 185.798439 
L 420.146684 185.147304 
L 420.351304 185.098355 
L 420.760543 185.408101 
L 421.579022 186.134603 
L 421.783642 186.219732 
L 421.988261 186.177554 
L 422.192881 185.946995 
L 422.602121 184.907775 
L 423.829839 181.111082 
L 424.852938 178.787975 
L 425.466797 176.127322 
L 426.285276 171.570918 
L 426.899135 166.78655 
L 427.512994 160.22145 
L 428.331473 147.791181 
L 429.354572 129.338861 
L 429.968431 113.135101 
L 430.78691 83.901165 
L 431.605389 53.730447 
L 432.014628 45.103524 
L 432.219248 43.635529 
L 432.423867 44.080133 
L 432.628487 46.282997 
L 433.037727 54.940357 
L 435.288544 116.607488 
L 436.107023 131.111724 
L 436.720882 138.162687 
L 437.130121 141.11668 
L 437.539361 142.734424 
L 437.9486 143.47906 
L 438.15322 143.526107 
L 438.35784 143.308473 
L 438.562459 142.803337 
L 438.971699 140.761356 
L 439.380938 137.174582 
L 439.994797 129.432029 
L 440.608656 119.517157 
L 441.427135 102.067936 
L 442.654854 73.106796 
L 443.064093 67.630541 
L 443.268713 67.245758 
L 443.473333 68.698436 
L 443.882572 76.593162 
L 444.496431 96.69737 
L 445.31491 122.905986 
L 446.133389 140.923991 
L 446.951868 153.860662 
L 447.565727 159.967539 
L 448.998065 169.663063 
L 449.611924 172.988539 
L 450.225784 175.301786 
L 451.862741 180.490149 
L 452.476601 182.883548 
L 452.88584 183.644619 
L 453.29508 183.687345 
L 454.113558 183.789665 
L 454.318178 183.956568 
L 454.727418 184.709232 
L 456.364375 188.518997 
L 456.568995 188.50958 
L 456.978235 187.976453 
L 457.592094 186.973339 
L 458.410573 186.240969 
L 458.819812 186.102296 
L 459.433671 186.206975 
L 460.45677 185.483128 
L 461.479869 185.929724 
L 462.093728 186.442253 
L 462.707587 187.103876 
L 463.321446 187.39327 
L 463.730686 187.53503 
L 464.139925 187.995833 
L 464.753784 188.841517 
L 464.958404 188.791373 
L 465.572263 188.103634 
L 465.776883 188.065667 
L 466.186122 188.435489 
L 466.595362 188.812846 
L 467.209221 189.010537 
L 467.413841 188.857133 
L 468.436939 187.164211 
L 469.050799 186.959057 
L 469.664658 186.497986 
L 469.869277 186.595764 
L 470.278517 187.175664 
L 471.506235 189.792008 
L 471.915475 189.942032 
L 472.324714 190.040207 
L 473.143193 190.744543 
L 473.347813 190.643904 
L 474.166292 189.206826 
L 474.575531 188.343097 
L 474.984771 187.321537 
L 475.18939 187.044021 
L 475.39401 187.055674 
L 476.212489 188.068705 
L 477.440207 188.488178 
L 478.054067 188.858185 
L 478.463306 188.782932 
L 478.872545 188.647334 
L 479.077165 188.693732 
L 479.486405 189.207397 
L 480.100264 190.321991 
L 480.509503 190.543919 
L 480.918743 190.583556 
L 481.327982 191.029329 
L 481.941841 191.79947 
L 482.351081 191.842011 
L 482.76032 191.73797 
L 483.16956 191.899082 
L 483.578799 192.126375 
L 483.783419 192.035892 
L 484.397278 191.195495 
L 485.215757 190.070826 
L 485.624996 189.848554 
L 486.648095 188.536279 
L 487.057334 187.935908 
L 487.261954 187.820972 
L 487.671194 188.035843 
L 488.080433 188.288667 
L 488.285053 188.26385 
L 488.694292 187.893348 
L 489.103532 187.372985 
L 489.308151 187.258932 
L 489.512771 187.353661 
L 489.717391 187.702838 
L 490.12663 189.126745 
L 490.53587 190.788512 
L 490.945109 191.61752 
L 491.354349 191.922659 
L 491.558968 191.890554 
L 491.968208 191.444847 
L 493.809785 187.929717 
L 494.423645 186.22512 
L 494.628264 186.07818 
L 494.832884 186.153181 
L 495.242124 186.670769 
L 495.855983 187.675943 
L 496.265222 187.961446 
L 496.674462 187.978831 
L 496.879081 187.843255 
L 497.288321 187.020876 
L 497.69756 186.296978 
L 497.90218 186.364727 
L 498.311419 187.189168 
L 498.925279 188.729103 
L 499.129898 188.940382 
L 499.334518 188.93481 
L 499.743758 188.458719 
L 500.152997 187.936949 
L 500.562236 187.93189 
L 501.380715 188.040492 
L 501.789955 188.818507 
L 502.403814 190.316309 
L 502.608434 190.501963 
L 503.017673 190.442931 
L 503.222293 190.372143 
L 503.426913 190.450686 
L 504.040772 191.208079 
L 504.245392 191.260271 
L 504.450011 191.16098 
L 504.859251 190.558527 
L 505.26849 189.910785 
L 505.67773 189.718867 
L 506.086969 189.803449 
L 506.496209 189.574297 
L 506.700828 189.460356 
L 506.905448 189.533199 
L 507.519307 190.155904 
L 508.337786 190.485904 
L 508.747026 190.881298 
L 509.565504 192.069058 
L 509.770124 191.961551 
L 510.179364 191.02998 
L 510.588603 190.063767 
L 510.793223 189.852164 
L 511.202462 189.824017 
L 512.020941 189.909113 
L 513.04404 191.448002 
L 513.453279 191.786244 
L 514.271758 192.745903 
L 514.476378 192.655866 
L 514.885617 191.795605 
L 515.294857 191.019353 
L 515.704096 190.646338 
L 515.908716 190.670383 
L 516.931815 191.580966 
L 517.136434 191.522113 
L 517.545674 190.986269 
L 518.364153 189.811671 
L 518.568772 189.806817 
L 518.773392 190.001037 
L 519.387251 191.302511 
L 519.591871 191.665991 
L 519.796491 191.801008 
L 520.00111 191.696536 
L 520.61497 191.159743 
L 521.433449 191.388005 
L 521.638068 191.589997 
L 522.456547 193.035336 
L 522.865787 193.052111 
L 523.275026 192.912439 
L 523.684266 192.369942 
L 524.911984 190.593382 
L 525.321223 190.389037 
L 525.525843 190.102034 
L 526.548942 187.612673 
L 526.958181 187.980427 
L 527.367421 188.245355 
L 527.98128 188.190334 
L 528.390519 188.279972 
L 528.799759 188.22866 
L 529.004378 188.362835 
L 530.232097 189.917317 
L 530.641336 189.801286 
L 531.050576 189.661025 
L 531.459815 189.868302 
L 531.869055 190.290629 
L 532.073674 190.369286 
L 533.301393 190.028636 
L 533.710632 189.880948 
L 534.938351 190.163232 
L 535.14297 190.050331 
L 535.55221 189.411142 
L 536.166069 188.24059 
L 536.370689 188.106545 
L 536.575308 188.225983 
L 536.984548 189.181048 
L 537.393787 190.281988 
L 537.598407 190.578923 
L 537.803027 190.596523 
L 538.007646 190.323182 
L 538.621506 188.892599 
L 538.826125 188.695294 
L 539.849224 188.668753 
L 540.258463 188.928144 
L 541.281562 189.819492 
L 541.486182 189.740084 
L 543.12314 188.017744 
L 543.532379 188.188981 
L 543.941619 188.721216 
L 544.555478 189.668451 
L 544.760097 189.739821 
L 544.964717 189.684078 
L 545.169337 189.495699 
L 545.578576 188.669382 
L 545.987816 187.986749 
L 546.192436 188.141396 
L 546.601675 189.410925 
L 547.010914 190.733438 
L 547.215534 191.080801 
L 547.420154 191.164027 
L 547.624774 190.995958 
L 548.852492 189.03747 
L 549.057112 189.053456 
L 549.466351 189.66336 
L 549.875591 190.230598 
L 550.28483 190.23436 
L 550.898689 190.27565 
L 551.307929 190.458839 
L 551.921788 191.19019 
L 552.535647 192.066042 
L 552.740267 192.13344 
L 552.944887 191.996345 
L 553.763365 191.080699 
L 554.377225 190.645825 
L 554.991084 189.871263 
L 555.604943 188.99782 
L 556.014182 188.996901 
L 556.218802 189.026822 
L 556.423422 188.935412 
L 556.832661 188.231495 
L 557.241901 187.388471 
L 558.264999 186.31392 
L 558.674239 186.231994 
L 559.697337 186.407169 
L 560.515816 186.283614 
L 561.129676 187.179627 
L 561.948154 188.44049 
L 562.152774 188.483761 
L 563.380493 188.00508 
L 564.198971 188.00868 
L 565.22207 187.350903 
L 565.63131 187.748315 
L 566.040549 188.153338 
L 566.245169 188.146116 
L 566.859028 187.791308 
L 567.677507 187.769753 
L 568.086746 187.56088 
L 568.495986 187.712263 
L 568.905225 187.937013 
L 569.723704 188.090145 
L 570.746803 188.894649 
L 571.360662 189.201502 
L 571.769901 189.174245 
L 572.58838 188.797942 
L 572.99762 188.056233 
L 573.406859 187.327804 
L 573.611479 187.387515 
L 574.634578 188.524704 
L 575.248437 188.958844 
L 575.657676 189.174704 
L 576.066916 189.64583 
L 576.680775 190.39914 
L 577.090014 190.461149 
L 577.703873 190.358454 
L 578.317733 189.898059 
L 578.931592 189.273041 
L 579.545451 188.250624 
L 579.750071 188.324756 
L 580.36393 189.169293 
L 581.182409 190.5092 
L 581.387029 190.398174 
L 581.796268 189.19562 
L 582.410127 187.221388 
L 582.819367 186.684775 
L 583.637846 186.441885 
L 583.842465 186.474508 
L 584.047085 186.63272 
L 584.456324 187.487283 
L 585.479423 191.026423 
L 585.684043 191.206067 
L 585.888663 191.108664 
L 586.297902 190.474414 
L 586.911761 189.445613 
L 587.116381 189.263494 
L 587.321001 189.257094 
L 588.13948 190.016462 
L 588.753339 189.926531 
L 589.162578 190.367025 
L 589.776437 191.36853 
L 590.185677 191.231885 
L 590.799536 190.863508 
L 591.208775 190.515085 
L 591.618015 190.6021 
L 593.459592 191.717289 
L 594.073452 192.779689 
L 594.278071 192.802749 
L 594.687311 192.123897 
L 595.30117 191.036202 
L 595.710409 190.700401 
L 596.119649 190.67764 
L 596.733508 191.019242 
L 597.142747 190.867575 
L 597.756607 190.563789 
L 598.370466 190.4166 
L 599.393564 189.345378 
L 600.007424 189.259049 
L 600.621283 189.018408 
L 601.030522 188.817947 
L 602.46286 188.609889 
L 603.485959 188.04431 
L 603.895198 188.439035 
L 604.509058 189.248796 
L 604.713677 189.329894 
L 605.122917 189.092318 
L 605.532156 188.709107 
L 605.941396 188.649671 
L 606.555255 189.113495 
L 606.964494 189.477215 
L 607.169114 189.471516 
L 607.987593 188.765349 
L 608.601452 189.441592 
L 608.806072 189.404607 
L 609.215311 188.890367 
L 610.03379 187.339127 
L 610.23841 187.314791 
L 610.647649 187.734112 
L 612.079988 190.201162 
L 612.693847 190.712494 
L 613.307706 191.709492 
L 613.512326 191.642369 
L 614.944664 189.897654 
L 615.149283 189.920615 
L 615.763143 190.416917 
L 616.377002 190.046823 
L 616.581622 190.146208 
L 617.4001 191.004853 
L 618.01396 191.247315 
L 618.423199 191.428806 
L 619.037058 191.565135 
L 619.446298 191.875599 
L 620.060157 192.460897 
L 620.674016 192.417011 
L 621.287875 193.102825 
L 621.492495 193.049189 
L 621.901734 192.404789 
L 622.310974 191.766328 
L 622.515594 191.752658 
L 622.924833 191.989889 
L 623.129453 191.91438 
L 623.538692 191.184891 
L 623.947932 190.254254 
L 624.152551 190.025886 
L 624.357171 189.98869 
L 624.97103 190.345298 
L 625.38027 190.766933 
L 625.789509 191.67122 
L 626.607988 193.853563 
L 626.812608 193.94415 
L 627.017228 193.761182 
L 627.426467 192.667978 
L 628.040326 190.528705 
L 628.449566 189.735553 
L 628.654185 189.557542 
L 628.858805 189.553849 
L 629.268045 190.026807 
L 629.881904 190.969424 
L 630.291143 191.118247 
L 630.700383 190.776908 
L 631.314242 190.117355 
L 632.132721 189.734478 
L 632.9512 189.547715 
L 633.155819 189.465956 
L 633.360439 189.534962 
L 633.769679 190.356587 
L 634.383538 191.784168 
L 634.792777 192.239421 
L 634.997397 192.22244 
L 636.020496 191.475602 
L 636.634355 191.353028 
L 636.838974 191.538525 
L 637.452834 192.394492 
L 637.657453 192.250778 
L 638.066693 191.030557 
L 638.680552 188.608638 
L 639.089791 187.80506 
L 639.294411 187.760308 
L 639.703651 188.142997 
L 640.31751 188.718404 
L 640.726749 188.92392 
L 641.545228 188.851861 
L 643.591425 190.500413 
L 644.000665 190.509933 
L 644.205285 190.723319 
L 644.819144 192.161411 
L 645.433003 193.495483 
L 645.637623 193.703811 
L 645.842242 193.648563 
L 646.251482 192.76084 
L 647.069961 190.646309 
L 647.4792 190.084065 
L 647.88844 189.973639 
L 648.297679 190.052159 
L 649.934637 190.853764 
L 650.139257 190.831733 
L 650.343876 190.630409 
L 650.753116 189.683294 
L 652.185454 185.744785 
L 652.390074 185.912942 
L 653.617792 188.12692 
L 653.822412 188.179484 
L 655.05013 187.770523 
L 655.45937 188.195685 
L 656.277849 189.429814 
L 656.687088 189.372825 
L 657.096327 189.329176 
L 657.300947 189.338844 
L 657.505567 189.224386 
L 657.914806 188.489263 
L 658.324046 187.741914 
L 658.528666 187.698567 
L 659.142525 188.008594 
L 659.961004 187.956823 
L 660.574863 188.14074 
L 661.393342 187.93738 
L 662.211821 188.064307 
L 663.0303 187.760121 
L 664.053398 186.93691 
L 664.258018 186.987124 
L 665.485736 188.132207 
L 665.894976 187.987743 
L 666.508835 187.621497 
L 666.918074 187.807505 
L 667.327314 188.284525 
L 668.350412 190.121026 
L 668.555032 190.129617 
L 668.964272 189.934506 
L 669.373511 190.034834 
L 669.98737 190.402892 
L 670.39661 190.360903 
L 670.805849 189.981467 
L 671.828948 188.790138 
L 672.647427 189.110417 
L 673.261286 188.72012 
L 673.465906 188.766254 
L 673.670525 188.989729 
L 674.693624 191.045859 
L 674.898244 191.078361 
L 675.102863 190.910623 
L 675.512103 189.911409 
L 676.125962 188.333039 
L 676.330582 188.160307 
L 676.535201 188.173561 
L 676.944441 188.583821 
L 677.96754 189.965441 
L 678.376779 190.053727 
L 679.195258 189.566719 
L 679.809117 189.983797 
L 680.013737 189.779932 
L 680.627596 188.618055 
L 680.832216 188.489239 
L 681.036835 188.599665 
L 681.650695 189.4712 
L 681.855314 189.53411 
L 683.083033 188.88653 
L 683.492272 188.206106 
L 683.901512 187.478181 
L 684.106131 187.35277 
L 684.92461 187.294131 
L 685.947709 186.42752 
L 686.561568 186.620312 
L 686.970808 186.990503 
L 687.380047 187.745642 
L 688.607765 190.756616 
L 689.835484 191.986164 
L 690.040103 191.893511 
L 690.449343 191.048971 
L 691.677061 188.023021 
L 692.086301 187.742018 
L 692.49554 187.593336 
L 692.90478 186.9048 
L 693.314019 186.166847 
L 693.518639 186.04587 
L 693.723259 186.147144 
L 694.132498 186.890021 
L 695.974076 190.840061 
L 696.587935 191.103253 
L 696.997174 191.221139 
L 697.815653 190.980623 
L 698.224893 191.152901 
L 699.043371 191.213258 
L 699.452611 191.485278 
L 699.86185 191.460345 
L 700.47571 191.297614 
L 700.884949 191.513915 
L 701.294188 191.816525 
L 701.498808 191.780362 
L 701.908048 191.17778 
L 702.931146 189.188484 
L 703.135766 188.972914 
L 703.340386 189.006123 
L 703.749625 189.717865 
L 704.158865 190.365209 
L 704.568104 190.492019 
L 705.181963 190.297491 
L 705.386583 190.086601 
L 705.795822 189.175724 
L 706.409682 187.620257 
L 706.614301 187.609988 
L 707.023541 188.304066 
L 707.43278 188.90949 
L 709.274358 190.077436 
L 709.683597 189.854538 
L 711.320555 188.405439 
L 711.729794 188.229614 
L 712.139034 187.738217 
L 712.752893 186.837541 
L 713.162133 186.595862 
L 713.571372 186.798569 
L 714.389851 187.374266 
L 714.79909 187.537577 
L 715.20833 188.074856 
L 716.026809 189.426146 
L 717.049907 190.580319 
L 717.663767 191.028308 
L 718.277626 191.479942 
L 718.482245 191.45875 
L 718.891485 190.990831 
L 719.709964 189.760174 
L 719.914584 189.674262 
L 720.119203 189.800322 
L 721.551541 191.856761 
L 722.165401 192.350558 
L 722.37002 192.315842 
L 722.77926 191.840129 
L 724.006978 190.203727 
L 724.416218 189.905235 
L 724.825457 189.754841 
L 725.234696 189.092394 
L 725.643936 188.418488 
L 725.848556 188.342742 
L 726.257795 188.614545 
L 728.303992 191.237213 
L 729.531711 192.128873 
L 730.35019 193.028515 
L 730.554809 192.893326 
L 730.964049 191.767105 
L 731.782528 188.688765 
L 731.987147 188.307282 
L 732.191767 188.230555 
L 732.601007 188.515128 
L 732.805626 188.475373 
L 733.010246 188.181544 
L 734.237964 185.412234 
L 734.647204 185.279628 
L 735.056443 185.6339 
L 735.465683 186.181223 
L 736.079542 186.569611 
L 736.488781 187.372403 
L 736.898021 188.33409 
L 737.30726 188.84858 
L 737.92112 189.467197 
L 738.534979 190.172032 
L 739.148838 190.772433 
L 739.558077 191.04493 
L 740.376556 191.031421 
L 740.785796 191.1658 
L 740.990415 191.110309 
L 741.399655 190.64856 
L 742.013514 189.743717 
L 742.218134 189.732602 
L 742.627373 190.204204 
L 743.241232 191.043445 
L 743.650472 191.100575 
L 744.059711 190.659125 
L 744.673571 189.747757 
L 744.87819 189.626694 
L 745.28743 189.756125 
L 745.696669 190.14487 
L 746.105909 190.88453 
L 746.515148 191.812352 
L 746.719768 192.060827 
L 746.924388 192.068393 
L 747.333627 191.541862 
L 747.742866 190.900054 
L 748.152106 190.730939 
L 748.970585 190.908933 
L 749.379824 190.606729 
L 749.789064 190.247973 
L 750.198303 190.175657 
L 750.812162 190.113443 
L 751.221402 189.905668 
L 751.835261 189.118958 
L 752.2445 188.52832 
L 752.44912 188.396005 
L 752.65374 188.467622 
L 753.267599 189.304235 
L 754.086078 190.703693 
L 754.495317 190.801432 
L 754.904557 190.611177 
L 755.518416 190.060214 
L 756.336895 188.807019 
L 756.541515 188.875237 
L 756.950754 189.726281 
L 757.359994 190.452774 
L 757.769233 190.570613 
L 758.178472 190.58532 
L 758.792332 190.998019 
L 759.81543 191.006974 
L 760.838529 191.534519 
L 761.247768 191.442391 
L 761.657008 190.81264 
L 762.475487 189.132181 
L 763.703205 187.952972 
L 763.907825 188.0083 
L 764.930923 189.217602 
L 765.135543 189.054589 
L 765.954022 187.972973 
L 766.363262 187.562607 
L 766.772501 186.987829 
L 766.977121 186.885743 
L 767.18174 187.012817 
L 767.7956 187.763737 
L 768.204839 187.798536 
L 768.614079 187.834495 
L 769.227938 188.167683 
L 769.637177 187.995709 
L 770.046417 187.905138 
L 771.478755 188.396945 
L 771.887994 188.640109 
L 772.297234 188.529403 
L 772.706473 188.307112 
L 773.524952 188.309763 
L 774.138811 188.00099 
L 774.75267 188.293806 
L 774.95729 188.528745 
L 775.36653 189.580649 
L 775.980389 191.540228 
L 776.389628 192.104847 
L 776.594248 191.98484 
L 777.003487 191.129883 
L 778.026586 188.919603 
L 778.435825 188.338669 
L 778.845065 188.120152 
L 779.254304 188.188028 
L 779.663544 188.723186 
L 780.482023 190.306465 
L 780.686642 190.383971 
L 781.709741 190.147314 
L 781.914361 190.285424 
L 782.3236 190.990695 
L 782.73284 191.61591 
L 782.937459 191.633129 
L 784.165178 190.972304 
L 784.574417 190.199851 
L 785.188276 189.027772 
L 786.415995 188.124392 
L 787.643713 187.012841 
L 788.052953 186.883339 
L 788.257572 186.977952 
L 788.666812 187.646256 
L 789.485291 189.427388 
L 789.68991 189.354967 
L 790.09915 188.479825 
L 790.508389 187.536106 
L 790.713009 187.27346 
L 790.917629 187.25125 
L 791.122248 187.483095 
L 792.554587 190.269153 
L 792.759206 190.4238 
L 793.168446 190.342752 
L 793.782305 190.137256 
L 794.191544 189.975295 
L 794.805404 189.529711 
L 795.214643 189.572717 
L 795.828502 190.073502 
L 796.442361 190.739368 
L 796.851601 190.759326 
L 798.079319 190.338934 
L 798.897798 190.492103 
L 800.125516 189.395753 
L 800.739376 189.122086 
L 801.148615 188.644033 
L 802.171714 187.289319 
L 802.376333 187.503107 
L 803.604052 189.966662 
L 804.013291 190.046943 
L 804.422531 190.028862 
L 804.83177 190.349798 
L 806.468728 192.295075 
L 806.673348 192.319067 
L 806.877967 192.133129 
L 807.901066 190.051686 
L 808.310306 189.235068 
L 808.514925 189.095536 
L 808.719545 189.174933 
L 809.333404 189.975497 
L 809.742644 190.470592 
L 810.561123 190.908181 
L 811.584221 192.159272 
L 811.993461 192.410819 
L 812.4027 192.186519 
L 812.81194 191.780296 
L 813.221179 190.978071 
L 814.244278 188.369253 
L 815.471996 186.367126 
L 815.881235 186.013549 
L 816.290475 186.205238 
L 816.699714 186.44332 
L 817.108954 186.4808 
L 817.313574 186.679663 
L 818.336672 188.81422 
L 818.541292 188.928164 
L 818.745912 188.901378 
L 819.155151 188.450645 
L 819.564391 188.081717 
L 819.76901 188.226477 
L 820.17825 188.849148 
L 820.382869 188.955045 
L 820.792109 188.71891 
L 821.201348 188.298276 
L 822.429067 186.600449 
L 822.838306 186.314154 
L 823.247546 186.391813 
L 823.861405 186.661728 
L 824.270644 186.427505 
L 824.884503 185.832907 
L 825.089123 186.037332 
L 825.498363 187.139834 
L 826.521461 190.51334 
L 827.13532 191.709019 
L 827.54456 192.171833 
L 827.74918 192.239184 
L 828.158419 191.991765 
L 828.772278 191.626966 
L 828.976898 191.503457 
L 829.181518 191.23607 
L 829.590757 190.208206 
L 830.204616 188.618718 
L 830.409236 188.419341 
L 830.613856 188.480145 
L 831.023095 189.18929 
L 831.636954 190.736879 
L 831.841574 190.988673 
L 832.046194 191.036104 
L 832.455433 190.793446 
L 833.273912 189.926627 
L 834.092391 188.371955 
L 834.70625 187.94776 
L 835.11549 187.965646 
L 835.320109 188.141759 
L 835.729349 188.982134 
L 836.957067 192.606754 
L 837.161687 192.635868 
L 837.366307 192.474177 
L 837.775546 191.667805 
L 838.389405 190.256537 
L 838.798645 189.749354 
L 839.003265 189.682712 
L 839.412504 190.022444 
L 839.821743 190.317412 
L 840.640222 190.21692 
L 841.049462 190.377921 
L 841.254082 190.354693 
L 841.663321 189.910583 
L 842.4818 188.650123 
L 842.68642 188.533995 
L 842.891039 188.627849 
L 843.300279 189.296675 
L 843.914138 190.722468 
L 844.118758 190.876789 
L 844.323377 190.793062 
L 844.732617 190.148419 
L 845.346476 188.541973 
L 846.164955 186.287541 
L 846.369575 186.028385 
L 846.574194 185.963604 
L 846.983434 186.266908 
L 847.392673 186.959958 
L 847.801913 187.726801 
L 848.006533 187.801156 
L 848.415772 187.40267 
L 848.825011 187.113486 
L 849.029631 187.237561 
L 849.438871 187.93983 
L 850.05273 189.318955 
L 850.461969 189.711966 
L 850.666589 189.62795 
L 852.712786 186.653806 
L 853.326645 186.330503 
L 853.735885 186.159307 
L 853.940505 186.227916 
L 854.758984 187.040195 
L 854.963603 187.098164 
L 855.168223 187.27334 
L 855.986702 188.943048 
L 856.191322 188.811199 
L 857.41904 186.698302 
L 857.828279 186.713115 
L 858.237519 187.098983 
L 858.851378 188.021366 
L 859.669857 188.63517 
L 860.283716 189.287805 
L 860.488336 189.248561 
L 861.102195 188.819679 
L 861.306815 188.895467 
L 861.716054 189.462837 
L 862.739153 191.233813 
L 862.943773 191.462088 
L 863.148392 191.505776 
L 863.353012 191.315618 
L 863.966871 190.023299 
L 864.98997 187.892367 
L 865.399209 187.765482 
L 866.217688 187.838823 
L 867.036167 188.790277 
L 867.445407 188.620185 
L 868.673125 187.581035 
L 869.082364 186.848807 
L 869.491604 186.070659 
L 869.900843 185.790957 
L 870.310083 185.642306 
L 870.923942 185.274547 
L 871.333181 185.302687 
L 871.742421 185.678984 
L 872.35628 186.331771 
L 872.765519 186.516277 
L 873.174759 186.431704 
L 873.583998 186.363942 
L 874.402477 186.679049 
L 874.811717 186.430214 
L 875.425576 185.879993 
L 875.834815 185.896079 
L 876.857914 186.396422 
L 877.881013 185.833892 
L 878.290252 185.823422 
L 878.494872 185.97443 
L 879.72259 187.656371 
L 879.92721 187.808437 
L 880.13183 187.791493 
L 880.541069 187.317739 
L 881.154928 185.998862 
L 881.768787 184.211684 
L 882.382647 182.415551 
L 882.791886 181.789101 
L 883.201126 181.631364 
L 883.405745 181.580184 
L 884.224224 181.001771 
L 885.042703 181.522466 
L 885.451943 181.385787 
L 886.679661 179.929031 
L 887.907379 176.965737 
L 888.521238 175.280874 
L 888.930478 174.863365 
L 889.339717 174.402487 
L 890.158196 172.887846 
L 890.567436 172.614141 
L 890.772055 172.635209 
L 891.181295 173.065797 
L 891.590534 173.536593 
L 891.795154 173.433121 
L 892.204394 172.42612 
L 892.818253 170.644935 
L 893.022872 170.497052 
L 893.432112 170.865723 
L 893.841351 171.283341 
L 894.250591 171.481289 
L 894.65983 171.422064 
L 895.887549 170.53321 
L 896.296788 169.510758 
L 896.910647 167.612161 
L 898.956845 163.380039 
L 899.366084 163.066347 
L 899.570704 162.59659 
L 899.979943 160.668682 
L 900.389183 157.39397 
L 901.207662 147.988325 
L 901.821521 141.691414 
L 902.02614 141.37202 
L 902.23076 142.205279 
L 903.049239 147.591708 
L 903.458478 148.632399 
L 904.072338 148.945471 
L 904.686197 149.73817 
L 905.300056 149.888025 
L 905.709295 150.00899 
L 906.118535 150.377051 
L 906.527774 150.801669 
L 906.732394 150.770945 
L 908.164732 149.101576 
L 908.778591 148.488768 
L 909.392451 148.333656 
L 909.80169 148.254002 
L 910.620169 147.694046 
L 911.438648 147.772854 
L 911.847887 147.150309 
L 912.461746 146.041807 
L 913.280225 145.412437 
L 913.894085 143.681013 
L 914.303324 142.794133 
L 914.507944 142.72604 
L 914.712563 142.924395 
L 915.940282 145.142677 
L 916.144902 145.037764 
L 916.349521 144.519547 
L 916.96338 141.776525 
L 917.168 141.521478 
L 917.37262 141.869882 
L 918.191099 144.731436 
L 918.395719 144.781112 
L 918.600338 144.132212 
L 918.804958 142.627047 
L 919.214197 136.863935 
L 919.623437 127.307743 
L 920.441916 102.553833 
L 920.646536 100.811221 
L 920.851155 103.1105 
L 921.465014 122.608929 
L 921.874254 133.28665 
L 922.283493 139.641675 
L 923.101972 147.403846 
L 923.715831 151.234573 
L 924.329691 153.554266 
L 924.53431 153.808181 
L 924.73893 153.730528 
L 925.352789 153.09523 
L 925.762029 152.880436 
L 926.171268 152.187435 
L 927.808226 148.760988 
L 928.217465 148.740913 
L 928.831325 148.89265 
L 929.240564 149.506574 
L 929.649804 150.111866 
L 929.854423 150.160071 
L 930.263663 149.924906 
L 931.491381 148.803606 
L 931.900621 148.487832 
L 932.51448 148.379107 
L 932.923719 148.583171 
L 933.742198 149.499518 
L 933.946818 149.513204 
L 934.765297 149.063425 
L 935.174536 149.286035 
L 935.583776 149.787816 
L 936.811494 152.43525 
L 937.629973 154.356481 
L 938.039212 154.8663 
L 938.243832 154.902201 
L 938.653072 154.624176 
L 939.266931 153.603909 
L 939.67617 153.131345 
L 939.88079 153.123324 
L 940.08541 153.288206 
L 940.494649 154.226401 
L 941.108508 156.957176 
L 941.517748 158.596047 
L 941.926987 159.512262 
L 943.973184 162.003697 
L 944.382424 162.302036 
L 944.791663 163.065231 
L 945.814762 165.3661 
L 946.224001 165.717746 
L 946.633241 165.639028 
L 947.04248 165.439849 
L 947.2471 165.507016 
L 947.45172 165.806577 
L 948.474818 168.177322 
L 948.679438 168.188438 
L 949.907156 167.294897 
L 950.111776 167.421276 
L 950.521016 168.137452 
L 950.930255 168.90828 
L 951.339495 169.18237 
L 951.544114 169.117547 
L 951.953354 168.585848 
L 952.362593 167.848571 
L 952.567213 167.739289 
L 952.771833 167.901543 
L 953.794931 169.93306 
L 954.40879 171.167216 
L 954.61341 171.198217 
L 955.431889 170.827853 
L 955.636509 171.074199 
L 956.045748 172.239167 
L 956.659607 173.935235 
L 957.682706 176.163906 
L 958.091946 177.038608 
L 959.115044 180.261094 
L 959.524284 180.464683 
L 959.933523 180.673668 
L 960.547382 181.107487 
L 960.752002 181.003724 
L 961.365861 180.396161 
L 961.97972 180.486279 
L 963.002819 180.828154 
L 963.207439 180.632155 
L 963.821298 179.565315 
L 964.025918 179.508518 
L 964.230537 179.683047 
L 964.844397 180.891036 
L 965.458256 182.718684 
L 966.072115 184.935152 
L 966.276735 185.346297 
L 966.481354 185.496793 
L 966.685974 185.451351 
L 967.095214 185.040766 
L 967.913692 183.743327 
L 968.322932 182.608634 
L 968.732171 181.342586 
L 968.936791 181.023403 
L 969.141411 180.985211 
L 969.95989 181.565283 
L 970.369129 182.234325 
L 970.982988 183.451661 
L 971.596848 184.116047 
L 972.006087 184.207326 
L 972.415326 183.928197 
L 972.824566 183.677774 
L 973.233805 183.593734 
L 973.847665 183.346926 
L 974.256904 183.633998 
L 974.666143 183.792554 
L 975.280003 183.436853 
L 975.484622 183.486152 
L 975.689242 183.74483 
L 976.91696 186.307839 
L 977.12158 186.376735 
L 977.3262 186.2322 
L 977.735439 185.513685 
L 978.553918 183.835538 
L 978.758538 183.754611 
L 978.963158 183.902932 
L 979.986256 185.398402 
L 980.804735 185.82039 
L 981.213975 185.879579 
L 981.623214 186.070551 
L 981.827834 185.975506 
L 982.237073 185.178285 
L 982.646313 184.407551 
L 982.850932 184.468302 
L 983.260172 185.628674 
L 983.669411 186.729502 
L 984.078651 187.133363 
L 984.48789 187.06009 
L 985.306369 186.468209 
L 986.124848 186.219929 
L 986.943327 186.668885 
L 987.352566 186.420788 
L 987.557186 186.490259 
L 987.966426 187.194081 
L 988.375665 187.756615 
L 988.784905 187.743992 
L 989.194144 187.628068 
L 989.603383 187.752202 
L 990.012623 188.041428 
L 990.217243 188.056125 
L 990.421862 187.872778 
L 991.035722 186.64826 
L 991.8542 184.959718 
L 992.46806 184.353517 
L 992.672679 184.300522 
L 992.877299 184.436662 
L 993.286539 185.469178 
L 993.900398 187.278548 
L 994.514257 188.769635 
L 995.128116 190.51234 
L 995.332736 190.764173 
L 995.537356 190.701839 
L 995.741975 190.295419 
L 996.765074 187.128862 
L 997.583553 186.522812 
L 997.992792 186.546545 
L 998.402032 187.031881 
L 999.220511 188.310546 
L 999.42513 188.383874 
L 999.83437 188.140446 
L 1000.652849 187.271377 
L 1001.062088 186.492421 
L 1001.471328 185.592117 
L 1001.675947 185.345988 
L 1001.880567 185.29915 
L 1002.289807 185.688246 
L 1002.699046 186.209376 
L 1003.108285 186.440961 
L 1003.312905 186.433799 
L 1003.517525 186.238076 
L 1003.926764 185.240301 
L 1004.336004 184.331344 
L 1004.540624 184.271851 
L 1004.949863 184.747807 
L 1005.768342 185.985136 
L 1007.609919 190.60582 
L 1007.814539 190.757824 
L 1008.223779 190.665905 
L 1008.428398 190.619125 
L 1008.837638 190.865004 
L 1009.451497 191.389129 
L 1010.065356 191.731028 
L 1010.269976 191.687236 
L 1010.474596 191.485921 
L 1010.883835 190.644012 
L 1011.497694 189.308375 
L 1011.702314 189.194896 
L 1012.520793 189.26732 
L 1012.930032 189.157018 
L 1013.543892 189.350899 
L 1013.748511 189.216942 
L 1014.97623 187.3919 
L 1015.385469 187.237007 
L 1015.794709 187.271557 
L 1015.999328 187.482704 
L 1017.022427 189.379316 
L 1017.431666 189.516929 
L 1018.454765 190.341047 
L 1018.864004 190.479314 
L 1019.273244 190.840399 
L 1019.682483 191.247413 
L 1019.887103 191.307961 
L 1020.091723 191.21704 
L 1020.500962 190.609633 
L 1021.114821 189.571417 
L 1021.728681 189.375717 
L 1022.13792 189.270179 
L 1022.956399 189.342445 
L 1023.570258 188.490992 
L 1023.774878 188.462098 
L 1024.388737 188.7365 
L 1024.797976 188.842463 
L 1025.207216 189.282668 
L 1026.434934 191.111958 
L 1026.639554 191.248208 
L 1026.844174 191.184115 
L 1027.253413 190.562855 
L 1027.662653 189.764512 
L 1028.071892 188.419834 
L 1028.685751 186.096964 
L 1029.094991 185.482609 
L 1029.50423 185.182765 
L 1029.70885 185.225444 
L 1030.118089 185.870534 
L 1031.141188 188.53994 
L 1032.573526 189.252935 
L 1033.596625 189.008483 
L 1034.005864 188.597596 
L 1034.619723 187.726413 
L 1035.642822 187.540904 
L 1035.847442 187.58196 
L 1036.256681 188.032624 
L 1037.27978 189.21233 
L 1037.689019 189.292797 
L 1038.712118 188.925126 
L 1039.530597 189.117026 
L 1039.939836 189.209572 
L 1040.349076 189.624462 
L 1040.758315 190.323007 
L 1040.962935 190.437851 
L 1041.167555 190.276822 
L 1041.781414 189.429073 
L 1042.190653 189.498429 
L 1043.009132 189.934819 
L 1043.418372 189.96159 
L 1044.236851 190.544541 
L 1045.055329 189.658881 
L 1045.259949 189.639575 
L 1045.464569 189.497976 
L 1046.078428 188.772527 
L 1046.283048 188.813522 
L 1046.692287 189.532075 
L 1047.101527 190.175798 
L 1047.715386 190.308072 
L 1048.533865 191.156741 
L 1049.352344 191.159674 
L 1049.761583 191.974509 
L 1050.375442 193.405785 
L 1050.580062 193.596316 
L 1050.784682 193.535253 
L 1051.398541 192.622956 
L 1052.0124 191.396303 
L 1052.626259 189.962359 
L 1052.830879 189.711883 
L 1053.035499 189.667134 
L 1053.444738 190.019959 
L 1053.853978 190.310071 
L 1054.058597 190.253428 
L 1054.467837 189.726366 
L 1054.877076 189.218232 
L 1056.104795 189.349499 
L 1056.514034 189.602796 
L 1056.923274 189.566167 
L 1057.946372 189.258824 
L 1058.150992 189.277268 
L 1058.355612 189.429496 
L 1059.37871 190.863443 
L 1059.992569 190.918014 
L 1060.606429 191.34467 
L 1060.811048 191.504579 
L 1061.015668 191.515648 
L 1061.220288 191.238212 
L 1061.834147 189.539266 
L 1062.038767 189.342915 
L 1062.652626 189.44784 
L 1063.061865 189.173851 
L 1063.266485 189.250817 
L 1064.084964 190.224402 
L 1064.903443 189.552048 
L 1065.517302 189.813981 
L 1066.74502 190.60156 
L 1067.35888 190.269325 
L 1067.972739 190.029523 
L 1068.177359 190.078886 
L 1068.381978 190.279844 
L 1068.791218 191.189357 
L 1069.405077 192.640996 
L 1069.609697 192.829502 
L 1069.814316 192.857283 
L 1070.018936 192.708131 
L 1070.632795 191.650064 
L 1071.860514 189.286057 
L 1072.269753 189.505566 
L 1072.678993 189.717828 
L 1073.292852 189.738333 
L 1073.702091 190.164552 
L 1074.111331 191.161573 
L 1074.52057 192.366074 
L 1074.72519 192.704393 
L 1074.92981 192.77708 
L 1075.339049 192.438267 
L 1076.566767 190.736561 
L 1076.976007 190.488572 
L 1077.589866 189.790698 
L 1077.794486 189.731884 
L 1078.203725 189.973191 
L 1078.612965 190.314505 
L 1078.817584 190.289241 
L 1079.431444 189.646156 
L 1079.840683 189.361667 
L 1080.045303 189.408186 
L 1080.454542 189.968736 
L 1081.068401 190.994204 
L 1081.477641 191.053345 
L 1081.88688 190.764486 
L 1082.705359 190.059528 
L 1083.319218 189.763826 
L 1083.728458 189.839231 
L 1084.137697 189.908809 
L 1084.546937 189.448351 
L 1084.956176 188.955035 
L 1085.160796 188.9204 
L 1085.570035 189.275296 
L 1085.979275 189.753204 
L 1086.388514 189.858674 
L 1087.411613 189.764831 
L 1087.616233 189.908211 
L 1088.434712 191.137833 
L 1089.048571 190.833218 
L 1089.66243 190.353014 
L 1090.276289 189.754539 
L 1091.094768 189.442743 
L 1091.504007 189.160779 
L 1091.913247 189.226876 
L 1092.527106 189.584961 
L 1093.140965 190.353988 
L 1093.959444 191.360342 
L 1094.164064 191.387073 
L 1094.368684 191.257509 
L 1094.777923 190.501797 
L 1095.801022 187.596418 
L 1096.005641 187.296875 
L 1096.210261 187.29066 
L 1096.414881 187.589412 
L 1097.23336 189.430566 
L 1097.642599 189.719204 
L 1097.847219 189.647711 
L 1098.256458 189.070261 
L 1098.870318 188.069244 
L 1099.074937 187.969018 
L 1099.484177 188.212203 
L 1099.893416 188.56818 
L 1100.711895 188.724369 
L 1101.121135 189.487456 
L 1101.530374 190.525286 
L 1101.734994 190.751766 
L 1101.939613 190.687626 
L 1102.758092 189.532563 
L 1103.781191 189.05918 
L 1104.19043 189.563366 
L 1104.80429 190.34295 
L 1105.008909 190.373713 
L 1105.213529 190.191755 
L 1105.622769 189.180469 
L 1106.032008 188.030482 
L 1106.236628 187.803948 
L 1106.441247 187.832228 
L 1107.464346 188.735379 
L 1108.078205 188.67356 
L 1108.487445 188.950045 
L 1108.896684 189.251495 
L 1109.919783 189.554272 
L 1110.329022 189.803379 
L 1110.738262 189.810257 
L 1111.147501 189.508454 
L 1111.556741 188.74474 
L 1112.1706 187.475172 
L 1112.37522 187.398335 
L 1113.398318 187.672088 
L 1113.807558 187.472455 
L 1114.216797 187.592019 
L 1115.444515 188.546242 
L 1115.853755 188.468014 
L 1116.262994 188.392744 
L 1117.081473 189.075196 
L 1117.286093 189.026039 
L 1118.104572 188.358794 
L 1118.309192 188.552451 
L 1118.923051 189.581156 
L 1119.127671 189.604282 
L 1119.74153 189.018136 
L 1120.355389 189.102212 
L 1120.764628 188.602397 
L 1121.787727 186.715342 
L 1122.196966 186.44946 
L 1122.401586 186.45619 
L 1123.220065 186.984653 
L 1123.629305 186.948646 
L 1123.833924 187.160612 
L 1124.857023 189.0421 
L 1125.061643 189.136694 
L 1125.470882 188.898774 
L 1125.880122 188.495936 
L 1126.084741 188.440331 
L 1126.90322 188.693571 
L 1127.10784 188.430722 
L 1127.721699 187.21493 
L 1127.926319 187.141966 
L 1129.563277 187.763309 
L 1129.767896 187.539445 
L 1130.177136 186.40436 
L 1130.586375 185.388742 
L 1130.790995 185.334674 
L 1130.995615 185.63332 
L 1132.018713 187.94117 
L 1132.427953 188.326881 
L 1133.451051 188.77848 
L 1134.26953 189.833887 
L 1134.88339 190.962594 
L 1135.088009 190.956047 
L 1135.497249 190.548163 
L 1136.111108 189.653552 
L 1136.520347 189.447781 
L 1136.929587 189.426356 
L 1137.338826 189.625948 
L 1137.952685 190.015265 
L 1138.566545 190.030784 
L 1138.771164 189.903239 
L 1139.385023 188.943853 
L 1139.794263 188.465865 
L 1140.203502 188.233725 
L 1140.408122 188.228565 
L 1140.612742 188.342303 
L 1141.021981 189.069719 
L 1141.63584 190.48881 
L 1141.84046 190.5663 
L 1142.04508 190.38874 
L 1143.272798 188.57643 
L 1143.682038 188.492503 
L 1144.295897 188.597238 
L 1145.114376 187.753201 
L 1145.318996 187.881639 
L 1145.728235 188.563068 
L 1146.751334 190.677159 
L 1146.955953 190.738396 
L 1147.160573 190.604958 
L 1149.20677 187.922494 
L 1149.61601 187.962897 
L 1150.434489 188.357477 
L 1151.866827 190.496681 
L 1152.685306 192.037626 
L 1153.094545 191.791176 
L 1153.503785 191.536034 
L 1153.913024 191.683948 
L 1154.322264 191.986082 
L 1154.526883 192.010539 
L 1154.731503 191.913476 
L 1155.140742 191.357028 
L 1155.549982 190.625041 
L 1155.754602 190.553726 
L 1155.959221 190.815845 
L 1156.368461 191.696409 
L 1156.573081 191.915966 
L 1156.98232 191.875717 
L 1157.18694 191.853642 
L 1157.596179 192.128531 
L 1158.005419 192.416648 
L 1158.619278 192.53625 
L 1159.642376 191.913661 
L 1160.051616 190.933846 
L 1160.460855 189.854037 
L 1160.870095 189.339618 
L 1161.688574 188.573699 
L 1162.097813 188.61614 
L 1162.507053 188.597442 
L 1162.916292 188.061751 
L 1163.325532 187.578099 
L 1163.530151 187.637842 
L 1163.939391 188.381464 
L 1164.34863 189.117194 
L 1164.75787 189.34284 
L 1165.371729 189.368136 
L 1165.780968 189.226995 
L 1165.985588 189.328386 
L 1166.394827 190.055855 
L 1166.804067 190.736395 
L 1167.008687 190.799296 
L 1167.622546 190.382827 
L 1167.827166 190.532487 
L 1168.236405 191.165402 
L 1168.441025 191.214803 
L 1168.850264 190.907137 
L 1169.054884 190.913549 
L 1169.464123 191.305373 
L 1169.873363 192.047626 
L 1170.896461 194.187404 
L 1171.101081 194.552906 
L 1171.305701 194.686459 
L 1171.510321 194.464464 
L 1173.147278 190.569917 
L 1174.170377 188.909637 
L 1174.784236 187.894585 
L 1174.988856 187.873205 
L 1175.398095 188.308257 
L 1175.807335 188.627028 
L 1176.011955 188.525748 
L 1176.830433 187.513255 
L 1177.239673 187.718213 
L 1177.853532 188.310782 
L 1178.262772 188.264725 
L 1178.467391 188.250247 
L 1178.672011 188.413268 
L 1179.28587 189.394564 
L 1179.49049 189.392497 
L 1179.899729 188.808665 
L 1180.308969 188.148926 
L 1180.718208 187.990791 
L 1181.127448 188.16268 
L 1181.741307 188.645977 
L 1182.355166 188.797692 
L 1182.764406 188.554119 
L 1183.173645 188.352329 
L 1183.378265 188.46416 
L 1184.196744 189.451375 
L 1184.605983 189.422785 
L 1184.810603 189.299877 
L 1184.810603 189.299877 
" clip-path="url(#pf3c97c6551)" style="fill: none; stroke: #000000; stroke-width: 2; stroke-linecap: square"/>
   </g>
   <g id="patch_3">
    <path d="M 3.00024 198.907885 
L 1184.99976 198.907885 
" style="fill: none; stroke: #000000; stroke-width: 2; stroke-linejoin: miter; stroke-linecap: square"/>
   </g>
  </g>
 </g>
 <defs>
  <clipPath id="pf3c97c6551">
   <rect x="3.00024" y="3.00024" width="1181.99952" height="195.907645"/>
  </clipPath>
 </defs>
</svg>
