<?xml version="1.0" encoding="utf-8" standalone="no"?>
<!DOCTYPE svg PUBLIC "-//W3C//DTD SVG 1.1//EN"
  "http://www.w3.org/Graphics/SVG/1.1/DTD/svg11.dtd">
<svg xmlns:xlink="http://www.w3.org/1999/xlink" width="1188pt" height="252pt" viewBox="0 0 1188 252" xmlns="http://www.w3.org/2000/svg" version="1.1">
 <metadata>
  <rdf:RDF xmlns:dc="http://purl.org/dc/elements/1.1/" xmlns:cc="http://creativecommons.org/ns#" xmlns:rdf="http://www.w3.org/1999/02/22-rdf-syntax-ns#">
   <cc:Work>
    <dc:type rdf:resource="http://purl.org/dc/dcmitype/StillImage"/>
    <dc:date>2024-05-13T15:44:26.055956</dc:date>
    <dc:format>image/svg+xml</dc:format>
    <dc:creator>
     <cc:Agent>
      <dc:title>Matplotlib v3.8.0, https://matplotlib.org/</dc:title>
     </cc:Agent>
    </dc:creator>
   </cc:Work>
  </rdf:RDF>
 </metadata>
 <defs>
  <style type="text/css">*{stroke-linejoin: round; stroke-linecap: butt}</style>
 </defs>
 <g id="figure_1">
  <g id="patch_1">
   <path d="M 0 252 
L 1188 252 
L 1188 0 
L 0 0 
z
" style="fill: #ffffff"/>
  </g>
  <g id="axes_1">
   <g id="patch_2">
    <path d="M 3.00024 198.907885 
L 1184.99976 198.907885 
L 1184.99976 3.00024 
L 3.00024 3.00024 
z
" style="fill: #ffffff"/>
   </g>
   <g id="matplotlib.axis_1">
    <g id="xtick_1">
     <g id="line2d_1">
      <defs>
       <path id="m6af9b96669" d="M 0 0 
L 0 8 
" style="stroke: #000000; stroke-width: 2"/>
      </defs>
      <g>
       <use xlink:href="#m6af9b96669" x="1131.272509" y="198.907885" style="stroke: #000000; stroke-width: 2"/>
      </g>
     </g>
     <g id="text_1">
      <!-- 0 -->
      <g transform="translate(1126.267665 224.791947) scale(0.18 -0.18)">
       <defs>
        <path id="Arial-BoldMT-30" d="M 1756 4600 
Q 2422 4600 2797 4125 
Q 3244 3563 3244 2259 
Q 3244 959 2794 391 
Q 2422 -78 1756 -78 
Q 1088 -78 678 436 
Q 269 950 269 2269 
Q 269 3563 719 4131 
Q 1091 4600 1756 4600 
z
M 1756 3872 
Q 1597 3872 1472 3770 
Q 1347 3669 1278 3406 
Q 1188 3066 1188 2259 
Q 1188 1453 1269 1151 
Q 1350 850 1473 750 
Q 1597 650 1756 650 
Q 1916 650 2041 751 
Q 2166 853 2234 1116 
Q 2325 1453 2325 2259 
Q 2325 3066 2244 3367 
Q 2163 3669 2039 3770 
Q 1916 3872 1756 3872 
z
" transform="scale(0.015625)"/>
       </defs>
       <use xlink:href="#Arial-BoldMT-30"/>
      </g>
     </g>
    </g>
    <g id="xtick_2">
     <g id="line2d_2">
      <g>
       <use xlink:href="#m6af9b96669" x="1023.818007" y="198.907885" style="stroke: #000000; stroke-width: 2"/>
      </g>
     </g>
     <g id="text_2">
      <!-- 1 -->
      <g transform="translate(1018.813164 224.791947) scale(0.18 -0.18)">
       <defs>
        <path id="Arial-BoldMT-31" d="M 2519 0 
L 1641 0 
L 1641 3309 
Q 1159 2859 506 2644 
L 506 3441 
Q 850 3553 1253 3867 
Q 1656 4181 1806 4600 
L 2519 4600 
L 2519 0 
z
" transform="scale(0.015625)"/>
       </defs>
       <use xlink:href="#Arial-BoldMT-31"/>
      </g>
     </g>
    </g>
    <g id="xtick_3">
     <g id="line2d_3">
      <g>
       <use xlink:href="#m6af9b96669" x="916.363505" y="198.907885" style="stroke: #000000; stroke-width: 2"/>
      </g>
     </g>
     <g id="text_3">
      <!-- 2 -->
      <g transform="translate(911.358662 224.791947) scale(0.18 -0.18)">
       <defs>
        <path id="Arial-BoldMT-32" d="M 3238 816 
L 3238 0 
L 159 0 
Q 209 463 459 877 
Q 709 1291 1447 1975 
Q 2041 2528 2175 2725 
Q 2356 2997 2356 3263 
Q 2356 3556 2198 3714 
Q 2041 3872 1763 3872 
Q 1488 3872 1325 3706 
Q 1163 3541 1138 3156 
L 263 3244 
Q 341 3969 753 4284 
Q 1166 4600 1784 4600 
Q 2463 4600 2850 4234 
Q 3238 3869 3238 3325 
Q 3238 3016 3127 2736 
Q 3016 2456 2775 2150 
Q 2616 1947 2200 1565 
Q 1784 1184 1673 1059 
Q 1563 934 1494 816 
L 3238 816 
z
" transform="scale(0.015625)"/>
       </defs>
       <use xlink:href="#Arial-BoldMT-32"/>
      </g>
     </g>
    </g>
    <g id="xtick_4">
     <g id="line2d_4">
      <g>
       <use xlink:href="#m6af9b96669" x="808.909004" y="198.907885" style="stroke: #000000; stroke-width: 2"/>
      </g>
     </g>
     <g id="text_4">
      <!-- 3 -->
      <g transform="translate(803.90416 224.791947) scale(0.18 -0.18)">
       <defs>
        <path id="Arial-BoldMT-33" d="M 241 1216 
L 1091 1319 
Q 1131 994 1309 822 
Q 1488 650 1741 650 
Q 2013 650 2198 856 
Q 2384 1063 2384 1413 
Q 2384 1744 2206 1937 
Q 2028 2131 1772 2131 
Q 1603 2131 1369 2066 
L 1466 2781 
Q 1822 2772 2009 2936 
Q 2197 3100 2197 3372 
Q 2197 3603 2059 3740 
Q 1922 3878 1694 3878 
Q 1469 3878 1309 3722 
Q 1150 3566 1116 3266 
L 306 3403 
Q 391 3819 561 4067 
Q 731 4316 1036 4458 
Q 1341 4600 1719 4600 
Q 2366 4600 2756 4188 
Q 3078 3850 3078 3425 
Q 3078 2822 2419 2463 
Q 2813 2378 3048 2084 
Q 3284 1791 3284 1375 
Q 3284 772 2843 347 
Q 2403 -78 1747 -78 
Q 1125 -78 715 280 
Q 306 638 241 1216 
z
" transform="scale(0.015625)"/>
       </defs>
       <use xlink:href="#Arial-BoldMT-33"/>
      </g>
     </g>
    </g>
    <g id="xtick_5">
     <g id="line2d_5">
      <g>
       <use xlink:href="#m6af9b96669" x="701.454502" y="198.907885" style="stroke: #000000; stroke-width: 2"/>
      </g>
     </g>
     <g id="text_5">
      <!-- 4 -->
      <g transform="translate(696.449658 224.791947) scale(0.18 -0.18)">
       <defs>
        <path id="Arial-BoldMT-34" d="M 1994 0 
L 1994 922 
L 119 922 
L 119 1691 
L 2106 4600 
L 2844 4600 
L 2844 1694 
L 3413 1694 
L 3413 922 
L 2844 922 
L 2844 0 
L 1994 0 
z
M 1994 1694 
L 1994 3259 
L 941 1694 
L 1994 1694 
z
" transform="scale(0.015625)"/>
       </defs>
       <use xlink:href="#Arial-BoldMT-34"/>
      </g>
     </g>
    </g>
    <g id="xtick_6">
     <g id="line2d_6">
      <g>
       <use xlink:href="#m6af9b96669" x="594" y="198.907885" style="stroke: #000000; stroke-width: 2"/>
      </g>
     </g>
     <g id="text_6">
      <!-- 5 -->
      <g transform="translate(588.995156 224.791947) scale(0.18 -0.18)">
       <defs>
        <path id="Arial-BoldMT-35" d="M 284 1178 
L 1159 1269 
Q 1197 972 1381 798 
Q 1566 625 1806 625 
Q 2081 625 2272 848 
Q 2463 1072 2463 1522 
Q 2463 1944 2273 2155 
Q 2084 2366 1781 2366 
Q 1403 2366 1103 2031 
L 391 2134 
L 841 4519 
L 3163 4519 
L 3163 3697 
L 1506 3697 
L 1369 2919 
Q 1663 3066 1969 3066 
Q 2553 3066 2959 2641 
Q 3366 2216 3366 1538 
Q 3366 972 3038 528 
Q 2591 -78 1797 -78 
Q 1163 -78 763 262 
Q 363 603 284 1178 
z
" transform="scale(0.015625)"/>
       </defs>
       <use xlink:href="#Arial-BoldMT-35"/>
      </g>
     </g>
    </g>
    <g id="xtick_7">
     <g id="line2d_7">
      <g>
       <use xlink:href="#m6af9b96669" x="486.545498" y="198.907885" style="stroke: #000000; stroke-width: 2"/>
      </g>
     </g>
     <g id="text_7">
      <!-- 6 -->
      <g transform="translate(481.540654 224.791947) scale(0.18 -0.18)">
       <defs>
        <path id="Arial-BoldMT-36" d="M 3247 3459 
L 2397 3366 
Q 2366 3628 2234 3753 
Q 2103 3878 1894 3878 
Q 1616 3878 1423 3628 
Q 1231 3378 1181 2588 
Q 1509 2975 1997 2975 
Q 2547 2975 2939 2556 
Q 3331 2138 3331 1475 
Q 3331 772 2918 347 
Q 2506 -78 1859 -78 
Q 1166 -78 719 461 
Q 272 1000 272 2228 
Q 272 3488 737 4044 
Q 1203 4600 1947 4600 
Q 2469 4600 2811 4308 
Q 3153 4016 3247 3459 
z
M 1256 1544 
Q 1256 1116 1453 883 
Q 1650 650 1903 650 
Q 2147 650 2309 840 
Q 2472 1031 2472 1466 
Q 2472 1913 2297 2120 
Q 2122 2328 1859 2328 
Q 1606 2328 1431 2129 
Q 1256 1931 1256 1544 
z
" transform="scale(0.015625)"/>
       </defs>
       <use xlink:href="#Arial-BoldMT-36"/>
      </g>
     </g>
    </g>
    <g id="xtick_8">
     <g id="line2d_8">
      <g>
       <use xlink:href="#m6af9b96669" x="379.090996" y="198.907885" style="stroke: #000000; stroke-width: 2"/>
      </g>
     </g>
     <g id="text_8">
      <!-- 7 -->
      <g transform="translate(374.086153 224.791947) scale(0.18 -0.18)">
       <defs>
        <path id="Arial-BoldMT-37" d="M 272 3703 
L 272 4519 
L 3275 4519 
L 3275 3881 
Q 2903 3516 2518 2831 
Q 2134 2147 1932 1376 
Q 1731 606 1734 0 
L 888 0 
Q 909 950 1279 1937 
Q 1650 2925 2269 3703 
L 272 3703 
z
" transform="scale(0.015625)"/>
       </defs>
       <use xlink:href="#Arial-BoldMT-37"/>
      </g>
     </g>
    </g>
    <g id="xtick_9">
     <g id="line2d_9">
      <g>
       <use xlink:href="#m6af9b96669" x="271.636495" y="198.907885" style="stroke: #000000; stroke-width: 2"/>
      </g>
     </g>
     <g id="text_9">
      <!-- 8 -->
      <g transform="translate(266.631651 224.791947) scale(0.18 -0.18)">
       <defs>
        <path id="Arial-BoldMT-38" d="M 1025 2472 
Q 684 2616 529 2867 
Q 375 3119 375 3419 
Q 375 3931 733 4265 
Q 1091 4600 1750 4600 
Q 2403 4600 2764 4265 
Q 3125 3931 3125 3419 
Q 3125 3100 2959 2851 
Q 2794 2603 2494 2472 
Q 2875 2319 3073 2025 
Q 3272 1731 3272 1347 
Q 3272 713 2867 316 
Q 2463 -81 1791 -81 
Q 1166 -81 750 247 
Q 259 634 259 1309 
Q 259 1681 443 1992 
Q 628 2303 1025 2472 
z
M 1206 3356 
Q 1206 3094 1354 2947 
Q 1503 2800 1750 2800 
Q 2000 2800 2150 2948 
Q 2300 3097 2300 3359 
Q 2300 3606 2151 3754 
Q 2003 3903 1759 3903 
Q 1506 3903 1356 3753 
Q 1206 3603 1206 3356 
z
M 1125 1394 
Q 1125 1031 1311 828 
Q 1497 625 1775 625 
Q 2047 625 2225 820 
Q 2403 1016 2403 1384 
Q 2403 1706 2222 1901 
Q 2041 2097 1763 2097 
Q 1441 2097 1283 1875 
Q 1125 1653 1125 1394 
z
" transform="scale(0.015625)"/>
       </defs>
       <use xlink:href="#Arial-BoldMT-38"/>
      </g>
     </g>
    </g>
    <g id="xtick_10">
     <g id="line2d_10">
      <g>
       <use xlink:href="#m6af9b96669" x="164.181993" y="198.907885" style="stroke: #000000; stroke-width: 2"/>
      </g>
     </g>
     <g id="text_10">
      <!-- 9 -->
      <g transform="translate(159.177149 224.791947) scale(0.18 -0.18)">
       <defs>
        <path id="Arial-BoldMT-39" d="M 291 1059 
L 1141 1153 
Q 1172 894 1303 769 
Q 1434 644 1650 644 
Q 1922 644 2112 894 
Q 2303 1144 2356 1931 
Q 2025 1547 1528 1547 
Q 988 1547 595 1964 
Q 203 2381 203 3050 
Q 203 3747 617 4173 
Q 1031 4600 1672 4600 
Q 2369 4600 2816 4061 
Q 3263 3522 3263 2288 
Q 3263 1031 2797 475 
Q 2331 -81 1584 -81 
Q 1047 -81 715 205 
Q 384 491 291 1059 
z
M 2278 2978 
Q 2278 3403 2083 3637 
Q 1888 3872 1631 3872 
Q 1388 3872 1227 3680 
Q 1066 3488 1066 3050 
Q 1066 2606 1241 2398 
Q 1416 2191 1678 2191 
Q 1931 2191 2104 2391 
Q 2278 2591 2278 2978 
z
" transform="scale(0.015625)"/>
       </defs>
       <use xlink:href="#Arial-BoldMT-39"/>
      </g>
     </g>
    </g>
    <g id="xtick_11">
     <g id="line2d_11">
      <g>
       <use xlink:href="#m6af9b96669" x="56.727491" y="198.907885" style="stroke: #000000; stroke-width: 2"/>
      </g>
     </g>
     <g id="text_11">
      <!-- 10 -->
      <g transform="translate(46.717803 224.791947) scale(0.18 -0.18)">
       <use xlink:href="#Arial-BoldMT-31"/>
       <use xlink:href="#Arial-BoldMT-30" x="55.615234"/>
      </g>
     </g>
    </g>
    <g id="text_12">
     <!-- Chemical Shift / ppm -->
     <g transform="translate(504.992813 245.447573) scale(0.18 -0.18)">
      <defs>
       <path id="Arial-BoldMT-43" d="M 3397 1684 
L 4294 1400 
Q 4088 650 3608 286 
Q 3128 -78 2391 -78 
Q 1478 -78 890 545 
Q 303 1169 303 2250 
Q 303 3394 893 4026 
Q 1484 4659 2447 4659 
Q 3288 4659 3813 4163 
Q 4125 3869 4281 3319 
L 3366 3100 
Q 3284 3456 3026 3662 
Q 2769 3869 2400 3869 
Q 1891 3869 1573 3503 
Q 1256 3138 1256 2319 
Q 1256 1450 1568 1081 
Q 1881 713 2381 713 
Q 2750 713 3015 947 
Q 3281 1181 3397 1684 
z
" transform="scale(0.015625)"/>
       <path id="Arial-BoldMT-68" d="M 1334 4581 
L 1334 2897 
Q 1759 3394 2350 3394 
Q 2653 3394 2897 3281 
Q 3141 3169 3264 2994 
Q 3388 2819 3433 2606 
Q 3478 2394 3478 1947 
L 3478 0 
L 2600 0 
L 2600 1753 
Q 2600 2275 2550 2415 
Q 2500 2556 2373 2639 
Q 2247 2722 2056 2722 
Q 1838 2722 1666 2615 
Q 1494 2509 1414 2295 
Q 1334 2081 1334 1663 
L 1334 0 
L 456 0 
L 456 4581 
L 1334 4581 
z
" transform="scale(0.015625)"/>
       <path id="Arial-BoldMT-65" d="M 2381 1056 
L 3256 909 
Q 3088 428 2723 176 
Q 2359 -75 1813 -75 
Q 947 -75 531 491 
Q 203 944 203 1634 
Q 203 2459 634 2926 
Q 1066 3394 1725 3394 
Q 2466 3394 2894 2905 
Q 3322 2416 3303 1406 
L 1103 1406 
Q 1113 1016 1316 798 
Q 1519 581 1822 581 
Q 2028 581 2168 693 
Q 2309 806 2381 1056 
z
M 2431 1944 
Q 2422 2325 2234 2523 
Q 2047 2722 1778 2722 
Q 1491 2722 1303 2513 
Q 1116 2303 1119 1944 
L 2431 1944 
z
" transform="scale(0.015625)"/>
       <path id="Arial-BoldMT-6d" d="M 394 3319 
L 1203 3319 
L 1203 2866 
Q 1638 3394 2238 3394 
Q 2556 3394 2790 3262 
Q 3025 3131 3175 2866 
Q 3394 3131 3647 3262 
Q 3900 3394 4188 3394 
Q 4553 3394 4806 3245 
Q 5059 3097 5184 2809 
Q 5275 2597 5275 2122 
L 5275 0 
L 4397 0 
L 4397 1897 
Q 4397 2391 4306 2534 
Q 4184 2722 3931 2722 
Q 3747 2722 3584 2609 
Q 3422 2497 3350 2280 
Q 3278 2063 3278 1594 
L 3278 0 
L 2400 0 
L 2400 1819 
Q 2400 2303 2353 2443 
Q 2306 2584 2207 2653 
Q 2109 2722 1941 2722 
Q 1738 2722 1575 2612 
Q 1413 2503 1342 2297 
Q 1272 2091 1272 1613 
L 1272 0 
L 394 0 
L 394 3319 
z
" transform="scale(0.015625)"/>
       <path id="Arial-BoldMT-69" d="M 459 3769 
L 459 4581 
L 1338 4581 
L 1338 3769 
L 459 3769 
z
M 459 0 
L 459 3319 
L 1338 3319 
L 1338 0 
L 459 0 
z
" transform="scale(0.015625)"/>
       <path id="Arial-BoldMT-63" d="M 3353 2338 
L 2488 2181 
Q 2444 2441 2289 2572 
Q 2134 2703 1888 2703 
Q 1559 2703 1364 2476 
Q 1169 2250 1169 1719 
Q 1169 1128 1367 884 
Q 1566 641 1900 641 
Q 2150 641 2309 783 
Q 2469 925 2534 1272 
L 3397 1125 
Q 3263 531 2881 228 
Q 2500 -75 1859 -75 
Q 1131 -75 698 384 
Q 266 844 266 1656 
Q 266 2478 700 2936 
Q 1134 3394 1875 3394 
Q 2481 3394 2839 3133 
Q 3197 2872 3353 2338 
z
" transform="scale(0.015625)"/>
       <path id="Arial-BoldMT-61" d="M 1116 2306 
L 319 2450 
Q 453 2931 781 3162 
Q 1109 3394 1756 3394 
Q 2344 3394 2631 3255 
Q 2919 3116 3036 2902 
Q 3153 2688 3153 2116 
L 3144 1091 
Q 3144 653 3186 445 
Q 3228 238 3344 0 
L 2475 0 
Q 2441 88 2391 259 
Q 2369 338 2359 363 
Q 2134 144 1878 34 
Q 1622 -75 1331 -75 
Q 819 -75 523 203 
Q 228 481 228 906 
Q 228 1188 362 1408 
Q 497 1628 739 1745 
Q 981 1863 1438 1950 
Q 2053 2066 2291 2166 
L 2291 2253 
Q 2291 2506 2166 2614 
Q 2041 2722 1694 2722 
Q 1459 2722 1328 2630 
Q 1197 2538 1116 2306 
z
M 2291 1594 
Q 2122 1538 1756 1459 
Q 1391 1381 1278 1306 
Q 1106 1184 1106 997 
Q 1106 813 1243 678 
Q 1381 544 1594 544 
Q 1831 544 2047 700 
Q 2206 819 2256 991 
Q 2291 1103 2291 1419 
L 2291 1594 
z
" transform="scale(0.015625)"/>
       <path id="Arial-BoldMT-6c" d="M 459 0 
L 459 4581 
L 1338 4581 
L 1338 0 
L 459 0 
z
" transform="scale(0.015625)"/>
       <path id="Arial-BoldMT-20" transform="scale(0.015625)"/>
       <path id="Arial-BoldMT-53" d="M 231 1491 
L 1131 1578 
Q 1213 1125 1461 912 
Q 1709 700 2131 700 
Q 2578 700 2804 889 
Q 3031 1078 3031 1331 
Q 3031 1494 2936 1608 
Q 2841 1722 2603 1806 
Q 2441 1863 1863 2006 
Q 1119 2191 819 2459 
Q 397 2838 397 3381 
Q 397 3731 595 4036 
Q 794 4341 1167 4500 
Q 1541 4659 2069 4659 
Q 2931 4659 3367 4281 
Q 3803 3903 3825 3272 
L 2900 3231 
Q 2841 3584 2645 3739 
Q 2450 3894 2059 3894 
Q 1656 3894 1428 3728 
Q 1281 3622 1281 3444 
Q 1281 3281 1419 3166 
Q 1594 3019 2269 2859 
Q 2944 2700 3267 2529 
Q 3591 2359 3773 2064 
Q 3956 1769 3956 1334 
Q 3956 941 3737 597 
Q 3519 253 3119 86 
Q 2719 -81 2122 -81 
Q 1253 -81 787 320 
Q 322 722 231 1491 
z
" transform="scale(0.015625)"/>
       <path id="Arial-BoldMT-66" d="M 75 3319 
L 563 3319 
L 563 3569 
Q 563 3988 652 4194 
Q 741 4400 980 4529 
Q 1219 4659 1584 4659 
Q 1959 4659 2319 4547 
L 2200 3934 
Q 1991 3984 1797 3984 
Q 1606 3984 1523 3895 
Q 1441 3806 1441 3553 
L 1441 3319 
L 2097 3319 
L 2097 2628 
L 1441 2628 
L 1441 0 
L 563 0 
L 563 2628 
L 75 2628 
L 75 3319 
z
" transform="scale(0.015625)"/>
       <path id="Arial-BoldMT-74" d="M 1981 3319 
L 1981 2619 
L 1381 2619 
L 1381 1281 
Q 1381 875 1398 808 
Q 1416 741 1477 697 
Q 1538 653 1625 653 
Q 1747 653 1978 738 
L 2053 56 
Q 1747 -75 1359 -75 
Q 1122 -75 931 4 
Q 741 84 652 211 
Q 563 338 528 553 
Q 500 706 500 1172 
L 500 2619 
L 97 2619 
L 97 3319 
L 500 3319 
L 500 3978 
L 1381 4491 
L 1381 3319 
L 1981 3319 
z
" transform="scale(0.015625)"/>
       <path id="Arial-BoldMT-2f" d="M -9 -78 
L 1125 4659 
L 1784 4659 
L 638 -78 
L -9 -78 
z
" transform="scale(0.015625)"/>
       <path id="Arial-BoldMT-70" d="M 434 3319 
L 1253 3319 
L 1253 2831 
Q 1413 3081 1684 3237 
Q 1956 3394 2288 3394 
Q 2866 3394 3269 2941 
Q 3672 2488 3672 1678 
Q 3672 847 3265 386 
Q 2859 -75 2281 -75 
Q 2006 -75 1782 34 
Q 1559 144 1313 409 
L 1313 -1263 
L 434 -1263 
L 434 3319 
z
M 1303 1716 
Q 1303 1156 1525 889 
Q 1747 622 2066 622 
Q 2372 622 2575 867 
Q 2778 1113 2778 1672 
Q 2778 2194 2568 2447 
Q 2359 2700 2050 2700 
Q 1728 2700 1515 2451 
Q 1303 2203 1303 1716 
z
" transform="scale(0.015625)"/>
      </defs>
      <use xlink:href="#Arial-BoldMT-43"/>
      <use xlink:href="#Arial-BoldMT-68" x="72.216797"/>
      <use xlink:href="#Arial-BoldMT-65" x="133.300781"/>
      <use xlink:href="#Arial-BoldMT-6d" x="188.916016"/>
      <use xlink:href="#Arial-BoldMT-69" x="277.832031"/>
      <use xlink:href="#Arial-BoldMT-63" x="305.615234"/>
      <use xlink:href="#Arial-BoldMT-61" x="361.230469"/>
      <use xlink:href="#Arial-BoldMT-6c" x="416.845703"/>
      <use xlink:href="#Arial-BoldMT-20" x="444.628906"/>
      <use xlink:href="#Arial-BoldMT-53" x="472.412109"/>
      <use xlink:href="#Arial-BoldMT-68" x="539.111328"/>
      <use xlink:href="#Arial-BoldMT-69" x="600.195312"/>
      <use xlink:href="#Arial-BoldMT-66" x="627.978516"/>
      <use xlink:href="#Arial-BoldMT-74" x="661.279297"/>
      <use xlink:href="#Arial-BoldMT-20" x="694.580078"/>
      <use xlink:href="#Arial-BoldMT-2f" x="722.363281"/>
      <use xlink:href="#Arial-BoldMT-20" x="750.146484"/>
      <use xlink:href="#Arial-BoldMT-70" x="777.929688"/>
      <use xlink:href="#Arial-BoldMT-70" x="839.013672"/>
      <use xlink:href="#Arial-BoldMT-6d" x="900.097656"/>
     </g>
    </g>
   </g>
   <g id="matplotlib.axis_2"/>
   <g id="line2d_12">
    <path d="M 3.080825 187.250557 
L 3.490064 187.784107 
L 4.103923 188.669698 
L 4.308543 188.605296 
L 5.331642 187.380426 
L 5.740881 187.072263 
L 6.150121 187.108763 
L 6.76398 187.432763 
L 7.173219 187.376182 
L 7.582459 187.051105 
L 7.991698 186.770346 
L 8.810177 187.001748 
L 9.014797 187.114891 
L 9.219417 187.410328 
L 9.628656 188.578743 
L 10.037895 189.792826 
L 10.447135 190.240218 
L 10.856374 190.091838 
L 11.470234 189.64046 
L 11.879473 188.693506 
L 12.288712 187.566567 
L 12.493332 187.268324 
L 12.697952 187.239125 
L 12.902572 187.506311 
L 13.92567 189.694826 
L 14.13029 189.856536 
L 14.33491 189.875474 
L 14.539529 189.702961 
L 15.562628 188.122924 
L 15.971868 188.336439 
L 16.381107 188.648874 
L 16.790346 188.546284 
L 17.404206 188.04415 
L 17.813445 188.01555 
L 18.222685 188.229535 
L 18.631924 188.815944 
L 19.041163 189.441602 
L 19.245783 189.518635 
L 19.655023 189.219685 
L 20.268882 188.589837 
L 21.29198 186.875747 
L 21.4966 187.019474 
L 22.519699 188.51649 
L 22.928938 188.455619 
L 24.156657 187.806268 
L 24.770516 187.453628 
L 25.179755 187.468647 
L 25.588995 187.65499 
L 26.202854 188.305113 
L 27.430572 189.504915 
L 27.635192 189.467829 
L 28.044431 188.974581 
L 28.658291 187.977137 
L 29.06753 187.805785 
L 29.47677 187.927537 
L 29.886009 188.430466 
L 30.295248 189.248816 
L 31.318347 191.805989 
L 31.932206 192.171253 
L 32.546065 193.370267 
L 32.750685 193.321794 
L 33.159925 192.288139 
L 33.773784 190.734131 
L 34.387643 189.968956 
L 34.796882 189.791853 
L 35.001502 189.944393 
L 35.615361 190.824316 
L 35.819981 190.908415 
L 36.22922 190.680278 
L 36.84308 190.003709 
L 37.661559 188.784374 
L 38.070798 188.216791 
L 38.275418 188.162408 
L 38.480037 188.333312 
L 38.889277 189.426288 
L 39.503136 191.290111 
L 39.912376 191.711595 
L 40.116995 191.639294 
L 40.321615 191.391749 
L 40.730854 190.313323 
L 41.549333 187.487469 
L 41.958573 186.716003 
L 42.163193 186.583339 
L 42.367812 186.66111 
L 42.777052 187.353966 
L 44.41401 190.690522 
L 45.027869 191.454915 
L 46.050967 192.342887 
L 46.255587 192.221301 
L 46.460207 191.799615 
L 47.074066 189.445899 
L 47.483305 188.016673 
L 47.892545 187.435296 
L 48.301784 187.210143 
L 48.711024 186.636164 
L 49.324883 185.465919 
L 49.529503 185.321175 
L 49.938742 185.401274 
L 50.347982 185.826837 
L 50.961841 186.808806 
L 51.166461 186.934431 
L 51.37108 186.868687 
L 51.78032 186.288398 
L 52.394179 185.494214 
L 52.803418 185.105752 
L 53.008038 185.100835 
L 53.417278 185.628417 
L 54.440376 187.383724 
L 55.258855 188.181967 
L 55.668095 188.470393 
L 56.077334 188.271571 
L 56.486573 187.697852 
L 57.100433 186.367868 
L 58.94201 181.03287 
L 59.35125 178.938212 
L 59.965109 174.345747 
L 60.374348 169.851566 
L 60.783588 163.062413 
L 62.011306 136.909958 
L 62.215926 136.333651 
L 62.420546 137.309637 
L 62.625165 140.016977 
L 63.239024 155.350669 
L 63.852884 168.848189 
L 64.262123 174.567288 
L 64.671363 177.89802 
L 65.285222 180.366919 
L 66.103701 183.491782 
L 67.126799 187.190106 
L 67.536039 188.047006 
L 67.945278 188.373368 
L 68.149898 188.412381 
L 68.559137 188.164436 
L 68.968377 187.929386 
L 69.172997 187.976447 
L 69.991475 188.516281 
L 70.400715 187.969358 
L 70.809954 187.472443 
L 71.014574 187.559495 
L 71.423814 188.359276 
L 72.242292 190.639534 
L 72.446912 190.873396 
L 73.060771 190.977989 
L 73.87925 191.918709 
L 74.08387 191.763782 
L 74.493109 190.84872 
L 75.720828 186.893851 
L 75.925447 186.787873 
L 76.130067 186.920336 
L 76.743926 187.584687 
L 77.153166 187.40154 
L 77.562405 187.253298 
L 77.971645 187.657648 
L 78.380884 187.966839 
L 78.994743 187.817799 
L 79.403983 188.178185 
L 79.813222 188.915897 
L 80.836321 191.416351 
L 81.040941 191.47879 
L 81.45018 191.381026 
L 81.6548 191.440152 
L 82.677898 192.327501 
L 83.087138 192.275044 
L 83.496377 192.555073 
L 84.519476 193.646401 
L 84.928715 193.156036 
L 85.542575 192.291527 
L 86.565673 190.996869 
L 86.974913 191.297471 
L 87.384152 191.505496 
L 87.793392 191.20501 
L 89.22573 189.722031 
L 89.430349 189.731257 
L 89.634969 189.963844 
L 90.044209 191.114137 
L 90.862688 193.761364 
L 91.271927 194.302221 
L 91.476547 194.110554 
L 91.885786 192.880573 
L 92.499645 190.625977 
L 92.704265 190.191301 
L 92.908885 190.069397 
L 93.318124 190.471871 
L 93.522744 190.667953 
L 93.727364 190.682541 
L 94.136603 190.209591 
L 94.750462 189.10562 
L 95.364322 187.859456 
L 95.568941 187.772139 
L 96.1828 187.871653 
L 96.38742 187.849341 
L 96.59204 187.966383 
L 97.001279 188.844566 
L 97.410519 189.763762 
L 97.615139 189.859821 
L 98.228998 189.645034 
L 98.842857 189.902199 
L 99.047477 189.75218 
L 99.661336 188.940284 
L 100.479815 188.856017 
L 100.889054 188.681731 
L 101.093674 188.802586 
L 101.707533 189.549582 
L 101.912153 189.586473 
L 102.321392 189.345285 
L 102.935251 188.642481 
L 103.344491 188.127582 
L 103.549111 188.1147 
L 103.75373 188.336676 
L 104.776829 190.398894 
L 105.186068 190.463228 
L 105.595308 190.268704 
L 106.004547 189.610808 
L 107.027646 187.208557 
L 107.641505 186.686618 
L 108.664604 186.271253 
L 108.869224 186.454396 
L 109.687702 187.902715 
L 109.892322 187.86842 
L 110.301562 187.208902 
L 110.710801 186.443819 
L 110.915421 186.40043 
L 111.32466 186.95098 
L 111.938519 187.849879 
L 112.347759 188.230004 
L 112.756998 188.262284 
L 113.370857 188.027674 
L 113.575477 188.219847 
L 114.393956 189.765845 
L 115.212435 190.398794 
L 115.621674 190.651236 
L 115.826294 190.622041 
L 116.030914 190.401293 
L 116.644773 189.339201 
L 116.849393 189.286689 
L 117.258632 189.595365 
L 117.667872 189.889346 
L 118.077111 190.009883 
L 118.281731 190.216563 
L 119.10021 191.60718 
L 119.30483 191.460025 
L 119.714069 190.411483 
L 120.123308 189.443415 
L 120.327928 189.298644 
L 120.532548 189.429485 
L 120.941787 190.338828 
L 121.555647 191.911664 
L 122.374125 193.003338 
L 122.783365 193.421475 
L 123.192604 193.458163 
L 123.806464 193.268698 
L 124.215703 192.932718 
L 124.624942 192.318433 
L 125.443421 190.679083 
L 125.852661 190.407839 
L 126.2619 190.480051 
L 127.489619 191.012037 
L 128.103478 191.571869 
L 128.717337 191.847547 
L 129.331196 192.375659 
L 129.945055 192.623238 
L 130.354295 192.991602 
L 130.558915 193.010722 
L 130.763534 192.757014 
L 131.582013 190.967468 
L 133.014351 190.128634 
L 133.62821 189.961005 
L 134.24207 189.406521 
L 135.060549 189.354247 
L 135.265168 189.114399 
L 135.674408 188.083802 
L 136.083647 187.022805 
L 136.288267 186.886554 
L 136.492887 187.088847 
L 136.902126 187.852212 
L 137.106746 188.026177 
L 137.311366 188.015367 
L 137.720605 187.687173 
L 138.129844 187.220154 
L 138.334464 187.130869 
L 138.539084 187.216839 
L 139.562183 188.1043 
L 140.380661 188.47637 
L 140.994521 188.839624 
L 141.40376 189.256757 
L 142.017619 190.323773 
L 142.222239 190.423168 
L 143.040718 190.174817 
L 143.245338 189.984374 
L 144.063817 188.589515 
L 144.268436 188.574655 
L 144.677676 188.902959 
L 145.086915 189.72519 
L 145.496155 190.579469 
L 145.700774 190.749887 
L 146.110014 190.685538 
L 146.723873 190.259295 
L 147.542352 189.608897 
L 147.951591 189.545617 
L 149.17931 188.719702 
L 149.588549 188.09356 
L 150.202408 186.809803 
L 150.407028 186.560807 
L 150.611648 186.505391 
L 150.816267 186.692837 
L 151.430127 187.722362 
L 152.043986 188.349086 
L 152.657845 189.723825 
L 152.862465 189.860367 
L 154.090183 189.446329 
L 154.908662 189.986028 
L 155.931761 189.671871 
L 156.341 188.831516 
L 156.75024 188.01518 
L 157.568718 187.145057 
L 157.977958 186.86197 
L 158.591817 186.830024 
L 159.001057 186.886996 
L 159.205676 187.032131 
L 159.614916 187.765962 
L 160.024155 188.752269 
L 160.228775 189.024391 
L 160.433395 189.094565 
L 160.842634 188.838503 
L 161.251874 188.101267 
L 161.661113 187.37264 
L 162.070352 187.060233 
L 162.274972 186.701927 
L 162.684212 185.232076 
L 163.502691 181.704147 
L 164.11655 177.758377 
L 164.730409 174.136797 
L 166.162747 170.384312 
L 166.367367 170.089654 
L 166.571986 170.098469 
L 166.776606 170.47061 
L 167.185846 172.030408 
L 168.004325 175.470964 
L 168.413564 176.082459 
L 168.618184 176.050842 
L 169.027423 175.567428 
L 169.436663 175.082539 
L 169.845902 174.964384 
L 170.050522 175.094155 
L 170.459761 175.772954 
L 171.48286 178.083175 
L 171.68748 178.030136 
L 172.096719 177.170937 
L 172.710578 175.629745 
L 174.142916 173.294492 
L 174.552156 173.184269 
L 174.961395 173.071197 
L 175.166015 172.73757 
L 175.575254 171.269306 
L 177.007593 163.233098 
L 179.25841 150.487747 
L 180.281508 145.823665 
L 180.895367 144.303165 
L 181.099987 144.05398 
L 181.304607 144.008106 
L 181.509227 144.277157 
L 181.918466 145.763717 
L 182.532325 148.17456 
L 183.350804 150.873806 
L 184.373903 155.573854 
L 186.010861 164.995704 
L 186.62472 166.859899 
L 188.466297 174.135397 
L 189.694016 178.984041 
L 189.898635 179.164271 
L 190.103255 179.051239 
L 190.512494 178.170166 
L 190.921734 177.167248 
L 191.126354 176.963174 
L 191.330973 176.987261 
L 191.944833 177.568914 
L 192.763311 178.535003 
L 193.172551 179.849789 
L 193.99103 183.318521 
L 194.19565 183.598727 
L 194.604889 183.612455 
L 195.423368 183.407284 
L 195.627988 183.278501 
L 195.832607 183.284055 
L 197.264945 184.503504 
L 198.288044 185.08476 
L 199.106523 186.08252 
L 199.515762 185.552555 
L 199.925002 185.015631 
L 200.334241 184.746166 
L 200.538861 184.701956 
L 200.743481 184.795708 
L 201.15272 185.510414 
L 201.766579 186.765057 
L 201.971199 186.821615 
L 202.175819 186.623416 
L 202.789678 185.660628 
L 203.198918 185.544254 
L 203.608157 185.392438 
L 204.631256 184.85615 
L 205.040495 184.411518 
L 205.245115 184.454139 
L 205.654354 185.136345 
L 206.063594 185.820355 
L 206.268213 185.922579 
L 206.677453 185.792287 
L 207.291312 185.146085 
L 207.905171 184.423131 
L 208.51903 183.083226 
L 209.13289 181.648309 
L 209.337509 181.377254 
L 209.542129 181.293231 
L 210.155988 181.447792 
L 210.974467 181.234819 
L 211.383707 181.280496 
L 211.588326 181.096486 
L 211.997566 180.218156 
L 215.885341 168.79473 
L 216.70382 165.403351 
L 217.113059 164.721824 
L 217.317679 164.737182 
L 217.726918 165.343028 
L 218.136158 166.092362 
L 218.340777 166.300006 
L 218.954637 166.379616 
L 219.159256 166.781889 
L 219.773115 169.420722 
L 220.796214 173.923437 
L 221.205454 174.724059 
L 221.410073 174.867984 
L 221.614693 174.719963 
L 222.023932 173.553595 
L 222.637792 171.703265 
L 222.842411 171.361776 
L 223.047031 171.238949 
L 223.251651 171.369747 
L 224.274749 173.107263 
L 225.502468 172.90539 
L 225.911707 172.304661 
L 226.525566 171.216641 
L 227.139426 170.928506 
L 227.548665 170.554327 
L 228.776383 170.411859 
L 229.185623 170.309873 
L 229.594862 169.829142 
L 230.208721 168.828383 
L 230.617961 168.57142 
L 231.0272 168.363226 
L 231.23182 168.034573 
L 231.64106 166.74392 
L 232.459538 162.886978 
L 233.687257 156.10313 
L 234.301116 153.703107 
L 234.505736 153.246955 
L 234.710355 153.116192 
L 234.914975 153.296042 
L 235.938074 155.052058 
L 236.142694 155.150265 
L 236.756553 154.922881 
L 236.961172 155.178675 
L 237.575032 156.862145 
L 238.59813 159.879143 
L 238.80275 160.133303 
L 239.00737 160.126135 
L 239.211989 159.867104 
L 239.825849 158.248254 
L 240.235088 157.368562 
L 240.644328 156.993365 
L 241.053567 156.7188 
L 241.462806 155.73936 
L 242.485905 152.218587 
L 242.895145 151.15034 
L 243.918243 147.852291 
L 244.122863 147.724635 
L 244.532102 148.070358 
L 244.941342 148.577835 
L 245.350581 149.593663 
L 247.601398 158.232439 
L 249.033736 162.087018 
L 249.647596 163.61623 
L 250.261455 164.465535 
L 250.670694 164.711524 
L 250.875314 164.740597 
L 251.079934 164.618221 
L 251.489173 163.81213 
L 252.512272 161.320728 
L 253.330751 159.855985 
L 253.73999 158.826859 
L 254.763089 155.013101 
L 255.581568 151.619194 
L 255.990807 148.689289 
L 256.604666 141.972381 
L 257.423145 130.717386 
L 258.446244 116.20612 
L 259.060103 109.596124 
L 259.673962 105.541039 
L 259.878582 104.827207 
L 260.083202 104.548954 
L 260.287821 104.751925 
L 260.492441 105.467831 
L 260.901681 108.408972 
L 261.720159 116.831795 
L 263.561737 139.991319 
L 264.175596 144.115465 
L 264.994075 147.199646 
L 265.198695 147.700532 
L 265.403315 147.861275 
L 265.607934 147.611693 
L 266.017174 146.249789 
L 266.631033 143.614728 
L 267.040272 140.906444 
L 268.67723 127.545736 
L 268.88185 127.009383 
L 269.08647 126.833676 
L 269.495709 126.901884 
L 269.700329 127.136026 
L 270.109568 128.250534 
L 271.746526 135.151135 
L 273.383484 144.321986 
L 273.792723 145.591373 
L 273.997343 145.816239 
L 274.201963 145.766519 
L 274.611202 145.093903 
L 275.225061 143.333629 
L 275.634301 141.68056 
L 276.04354 139.12326 
L 279.112836 113.500043 
L 279.726695 110.746509 
L 280.340555 108.547269 
L 280.749794 107.781932 
L 281.159033 107.394848 
L 281.568273 106.162311 
L 283.205231 98.862471 
L 284.02371 93.55206 
L 284.637569 88.17382 
L 285.251428 79.982435 
L 286.069907 65.704023 
L 287.297625 43.484187 
L 288.116104 32.967395 
L 290.571541 5.342901 
L 290.98078 3.244536 
L 291.1854 3.00024 
L 291.39002 3.21199 
L 291.59464 3.88063 
L 292.003879 6.589414 
L 294.050076 23.987472 
L 294.254696 24.591578 
L 294.459316 24.632513 
L 294.663935 23.9642 
L 295.073175 20.346536 
L 295.891654 10.533772 
L 296.096274 9.797939 
L 296.300893 10.018321 
L 296.505513 11.074318 
L 296.914752 15.109206 
L 297.323992 19.237239 
L 297.528612 20.184522 
L 297.733231 20.128885 
L 298.55171 17.073482 
L 298.75633 17.699406 
L 299.165569 21.29213 
L 299.984048 29.918647 
L 300.393288 32.670645 
L 300.802527 34.257385 
L 301.416386 35.92429 
L 302.030246 39.325033 
L 302.644105 43.852577 
L 303.257964 50.46899 
L 307.964218 113.991233 
L 308.782697 120.777454 
L 309.191936 123.083191 
L 309.805795 125.733214 
L 310.624274 130.104686 
L 311.238133 132.329797 
L 311.647373 132.968887 
L 312.261232 132.889845 
L 312.465852 132.816742 
L 312.670471 132.601564 
L 313.079711 131.499504 
L 313.48895 129.220619 
L 314.307429 124.082443 
L 315.944387 115.043196 
L 316.558246 111.587888 
L 316.967486 110.365783 
L 317.172105 110.151756 
L 317.376725 110.155471 
L 317.785965 110.427132 
L 317.990584 110.694002 
L 318.399824 111.898621 
L 319.218303 115.653318 
L 320.650641 124.19768 
L 320.85526 124.688643 
L 321.05988 124.774941 
L 321.2645 124.435928 
L 321.673739 122.694647 
L 322.287599 119.798257 
L 322.492218 119.326617 
L 322.696838 119.202795 
L 322.901458 119.416645 
L 323.310697 120.614658 
L 323.719937 121.838144 
L 323.924556 122.057312 
L 324.129176 121.878861 
L 324.333796 121.222534 
L 324.743035 118.517811 
L 325.561514 112.445696 
L 325.970754 111.501133 
L 326.175373 111.434613 
L 326.993852 111.531681 
L 327.403092 110.927597 
L 327.812331 110.267725 
L 328.016951 110.185732 
L 328.221571 110.431173 
L 328.63081 112.043077 
L 329.449289 117.550917 
L 330.472388 124.506254 
L 330.881627 126.008402 
L 331.495486 127.687753 
L 332.313965 131.209689 
L 332.927824 133.85786 
L 333.337064 134.658112 
L 333.950923 134.797082 
L 334.360162 135.548356 
L 334.769402 137.026169 
L 335.383261 140.708401 
L 336.610979 149.190713 
L 337.020219 151.118979 
L 337.634078 152.765664 
L 339.475656 156.83163 
L 339.884895 157.538121 
L 340.294135 158.945397 
L 341.521853 164.44686 
L 341.931092 164.78941 
L 342.135712 164.756295 
L 342.340332 164.583077 
L 342.749571 163.817602 
L 343.158811 162.955961 
L 343.36343 162.75368 
L 343.97729 162.638672 
L 344.795768 161.750167 
L 345.409628 162.117912 
L 345.818867 162.422652 
L 346.637346 163.227481 
L 348.683543 164.704525 
L 349.502022 164.303757 
L 350.729741 164.836853 
L 351.13898 164.606463 
L 351.548219 164.303711 
L 351.957459 164.3007 
L 352.366698 164.481201 
L 352.571318 164.417756 
L 352.775938 164.1893 
L 353.185177 163.231274 
L 354.208276 160.376197 
L 355.026755 159.479408 
L 355.640614 158.220212 
L 356.254473 157.502536 
L 356.663713 156.158527 
L 357.277572 153.921621 
L 357.482192 153.727748 
L 357.686811 153.84797 
L 358.30067 154.64588 
L 358.70991 154.737006 
L 359.119149 154.604222 
L 359.528389 154.055926 
L 359.937628 153.356717 
L 360.142248 153.197694 
L 360.551487 153.229252 
L 361.165347 153.462336 
L 361.574586 154.01719 
L 361.983826 154.476771 
L 362.188445 154.296278 
L 363.006924 152.560818 
L 363.211544 152.532717 
L 363.620783 153.096948 
L 364.030023 153.706172 
L 364.234643 153.738826 
L 364.643882 153.351148 
L 365.053121 152.80059 
L 365.462361 151.710504 
L 366.894699 146.052802 
L 367.099319 145.74604 
L 367.303938 145.704272 
L 367.713178 145.880896 
L 367.917798 145.788179 
L 368.531657 144.920032 
L 369.350136 143.357324 
L 369.759375 142.215115 
L 370.987094 137.987633 
L 371.396333 137.748895 
L 371.805572 138.038852 
L 372.010192 138.210748 
L 372.214812 138.193965 
L 372.624051 137.500457 
L 373.64715 135.10176 
L 374.056389 134.235068 
L 374.261009 134.278106 
L 374.670249 135.250843 
L 375.693347 138.588571 
L 377.125685 141.483889 
L 377.944164 143.162026 
L 378.558023 145.908039 
L 378.967263 147.533006 
L 379.171883 147.91963 
L 379.376502 148.016626 
L 379.785742 147.951 
L 380.194981 148.112483 
L 380.604221 148.393391 
L 381.01346 149.106747 
L 382.241178 152.14439 
L 382.650418 152.682815 
L 382.855038 152.780095 
L 383.059657 152.684401 
L 384.287376 150.988356 
L 384.491995 150.988683 
L 384.696615 151.157512 
L 385.105855 152.029557 
L 386.333573 155.891811 
L 386.742812 157.107056 
L 387.152052 157.56499 
L 387.356672 157.692043 
L 387.561291 158.043077 
L 387.970531 159.938783 
L 388.993629 166.377712 
L 390.630587 171.999122 
L 391.039827 172.512352 
L 391.449066 172.501907 
L 391.858306 172.425582 
L 392.062925 172.597236 
L 393.086024 174.024845 
L 393.699883 174.360168 
L 394.109123 174.208115 
L 394.722982 173.733644 
L 395.132221 173.713718 
L 395.541461 174.036937 
L 395.9507 174.477635 
L 396.35994 174.599303 
L 396.564559 174.58479 
L 396.769179 174.439672 
L 397.178419 173.410292 
L 398.201517 169.296953 
L 398.815376 166.18798 
L 400.452334 155.156608 
L 401.475433 145.698355 
L 402.293912 138.241235 
L 402.703151 136.388873 
L 402.907771 135.94379 
L 403.112391 135.82864 
L 403.31701 136.040088 
L 403.72625 137.406741 
L 404.544729 142.16347 
L 405.363208 146.609655 
L 405.772447 148.421494 
L 407.000165 155.624912 
L 407.818644 157.681205 
L 408.227884 158.078541 
L 409.250982 158.205568 
L 409.660222 158.423889 
L 409.864842 158.330854 
L 410.274081 157.52318 
L 411.09256 155.266992 
L 411.706419 152.612444 
L 413.547997 142.547921 
L 413.752616 141.971405 
L 413.957236 141.980828 
L 414.161856 142.571776 
L 414.571095 144.931916 
L 415.798814 152.714768 
L 416.821912 156.78161 
L 418.25425 165.453101 
L 419.277349 172.46015 
L 419.891208 174.737872 
L 420.095828 175.15832 
L 420.300448 175.279625 
L 420.914307 175.005047 
L 421.118927 175.148495 
L 421.528166 176.009728 
L 422.551265 179.736794 
L 422.755884 179.912612 
L 422.960504 179.892484 
L 423.778983 179.381949 
L 424.802082 179.043842 
L 425.415941 179.483145 
L 425.82518 179.90655 
L 426.23442 180.747606 
L 426.848279 182.365751 
L 427.052899 182.568413 
L 427.462138 182.459153 
L 428.485237 181.850403 
L 428.689856 181.884745 
L 429.099096 182.383014 
L 430.326814 184.736859 
L 430.736054 184.61338 
L 431.145293 184.466004 
L 431.554533 184.62024 
L 432.577631 185.514048 
L 433.19149 185.184498 
L 433.39611 185.315089 
L 434.009969 186.075423 
L 434.419209 186.043184 
L 435.033068 185.807635 
L 435.442307 185.943262 
L 436.465406 187.003264 
L 436.874646 187.203052 
L 437.488505 187.579936 
L 437.897744 187.431798 
L 438.306984 187.186392 
L 438.716223 187.329945 
L 439.125463 187.488335 
L 439.330082 187.39355 
L 439.739322 186.790725 
L 440.148561 186.088148 
L 440.96704 185.208571 
L 441.37628 184.644216 
L 442.399378 183.713296 
L 442.808618 183.276423 
L 443.013237 183.344154 
L 443.422477 184.257383 
L 444.240956 186.802864 
L 444.445575 186.946457 
L 445.059435 186.870277 
L 445.468674 186.785367 
L 446.491773 186.010814 
L 447.105632 186.164405 
L 447.514871 186.85958 
L 448.128731 188.187611 
L 448.33335 188.273522 
L 448.947209 187.971652 
L 449.356449 188.242674 
L 449.765688 188.820229 
L 450.174928 189.513565 
L 450.379548 189.684268 
L 450.584167 189.686774 
L 450.993407 189.297271 
L 451.607266 188.15171 
L 452.425745 186.566729 
L 452.834984 186.17274 
L 454.062703 186.079884 
L 454.471942 186.800466 
L 454.881182 187.698822 
L 455.290421 188.07731 
L 455.90428 188.101089 
L 456.1089 187.842752 
L 456.518139 186.693318 
L 457.131999 185.041073 
L 457.336618 184.900973 
L 457.541238 185.052414 
L 458.359717 186.567035 
L 458.768956 186.641039 
L 459.178196 186.604139 
L 459.792055 186.915799 
L 460.610534 187.295447 
L 460.815154 187.283291 
L 461.224393 186.869673 
L 461.633632 186.478752 
L 462.452111 186.215904 
L 462.861351 186.052266 
L 463.27059 186.357955 
L 464.293689 187.448359 
L 464.702928 187.9228 
L 465.112168 187.920884 
L 465.521407 187.737356 
L 466.339886 186.989363 
L 467.158365 186.025845 
L 467.362985 186.245925 
L 467.772224 187.323334 
L 468.386083 189.419865 
L 468.590703 189.791515 
L 468.795323 189.871905 
L 468.999943 189.712031 
L 469.409182 188.934393 
L 470.023041 186.835353 
L 470.432281 185.607354 
L 470.84152 185.039794 
L 471.455379 184.477463 
L 471.659999 184.412479 
L 472.069239 184.606836 
L 472.478478 184.795326 
L 472.887717 184.799668 
L 473.296957 185.086202 
L 474.729295 186.806441 
L 475.547774 188.062801 
L 476.775492 189.182383 
L 477.184732 189.696583 
L 477.389351 189.71512 
L 477.593971 189.509229 
L 478.82169 187.445018 
L 479.844788 187.622162 
L 480.254028 188.090135 
L 480.663267 188.711697 
L 480.867887 188.865176 
L 481.072507 188.808217 
L 481.481746 188.170233 
L 481.890985 187.485084 
L 482.300225 187.370041 
L 482.709464 187.29785 
L 483.118704 187.261948 
L 483.527943 187.715176 
L 483.937183 188.22046 
L 484.141802 188.220685 
L 484.346422 188.003635 
L 485.574141 185.921313 
L 485.98338 185.654993 
L 486.597239 185.793883 
L 487.211098 185.927958 
L 487.824958 186.404912 
L 488.234197 186.191346 
L 488.438817 186.099059 
L 488.643436 186.179065 
L 489.052676 186.942828 
L 489.461915 187.808844 
L 490.075775 188.468649 
L 490.280394 188.44387 
L 490.689634 187.809712 
L 491.098873 187.303784 
L 491.303493 187.412223 
L 491.712732 188.142002 
L 492.531211 189.909892 
L 492.940451 189.983497 
L 493.963549 189.534938 
L 494.372789 189.793025 
L 494.986648 190.330167 
L 495.805127 190.604684 
L 496.214366 190.709628 
L 496.623606 190.842157 
L 496.828226 190.648886 
L 497.646704 188.856515 
L 498.055944 188.75398 
L 499.079042 188.919318 
L 499.692902 189.926 
L 499.897521 189.980018 
L 500.306761 189.689083 
L 501.329859 188.412839 
L 501.943719 188.162309 
L 502.352958 188.256107 
L 503.376057 189.154825 
L 503.785296 189.965793 
L 504.399155 191.459892 
L 504.603775 191.591458 
L 505.013015 191.163266 
L 505.422254 190.802978 
L 506.445353 190.309329 
L 506.854592 189.65602 
L 507.673071 188.278023 
L 508.49155 186.962145 
L 508.900789 186.778658 
L 509.719268 186.767755 
L 510.333127 187.169497 
L 511.356226 187.316889 
L 511.970085 187.21632 
L 512.379325 187.073832 
L 512.788564 186.858268 
L 512.993184 186.899903 
L 513.402423 187.358158 
L 514.220902 188.497507 
L 514.425522 188.634153 
L 514.630142 188.594695 
L 514.834761 188.332217 
L 515.244001 187.242527 
L 515.85786 185.466574 
L 516.06248 185.264874 
L 516.2671 185.280033 
L 516.676339 185.79953 
L 517.290198 186.863924 
L 517.494818 187.027506 
L 517.699438 187.016447 
L 518.517917 186.298287 
L 519.131776 186.36189 
L 519.541015 186.210363 
L 519.950255 186.471618 
L 520.154874 186.407852 
L 520.973353 185.049318 
L 521.382593 185.134919 
L 521.996452 185.309737 
L 522.405691 185.207411 
L 522.814931 184.817299 
L 523.22417 183.897833 
L 524.042649 181.36383 
L 524.451889 180.694937 
L 524.656508 180.641258 
L 525.474987 180.939317 
L 525.679607 180.770811 
L 526.702706 179.144753 
L 527.111945 178.79543 
L 527.521185 178.484481 
L 527.930424 178.872577 
L 528.339663 179.293364 
L 528.953523 179.469183 
L 529.158142 179.488692 
L 529.362762 179.386278 
L 530.181241 178.33926 
L 530.59048 178.431045 
L 530.99972 178.613175 
L 531.20434 178.566737 
L 531.408959 178.368186 
L 532.227438 177.136348 
L 532.636678 177.303021 
L 533.045917 177.516428 
L 533.455157 177.436195 
L 533.864396 177.656391 
L 534.273636 178.200002 
L 534.682875 178.946753 
L 534.887495 179.111918 
L 535.705974 178.985437 
L 535.910593 178.902326 
L 536.115213 178.609682 
L 537.138312 176.377512 
L 537.547551 176.168892 
L 538.775269 176.14404 
L 538.979889 176.307128 
L 539.798368 177.522372 
L 540.412227 177.963825 
L 541.026086 178.970136 
L 541.844565 180.76041 
L 542.049185 180.815373 
L 542.663044 180.427327 
L 543.276903 179.789332 
L 543.686143 179.280682 
L 543.890763 179.224348 
L 544.095382 179.493077 
L 545.118481 182.509079 
L 546.755439 184.279013 
L 547.573918 185.790742 
L 548.392397 186.835095 
L 548.597016 186.824637 
L 549.006256 186.169171 
L 549.415495 185.525766 
L 549.824735 185.419744 
L 550.438594 185.45212 
L 551.257073 185.181553 
L 552.280171 185.387318 
L 552.894031 185.469793 
L 553.30327 185.521916 
L 553.71251 185.497617 
L 553.917129 185.655749 
L 554.735608 186.978566 
L 554.940228 187.026085 
L 555.144848 186.944492 
L 555.554087 186.345085 
L 555.963327 185.578804 
L 556.167946 185.377675 
L 556.372566 185.388066 
L 556.781805 185.931473 
L 557.395665 186.861004 
L 557.804904 187.119265 
L 558.214144 187.002853 
L 559.237242 186.469974 
L 560.260341 185.627537 
L 560.66958 186.051486 
L 561.07882 186.738779 
L 561.692679 187.950988 
L 563.125017 189.56567 
L 563.329637 189.704509 
L 563.534256 189.665318 
L 563.943496 189.154766 
L 564.352735 188.544218 
L 564.557355 188.408245 
L 564.761975 188.455064 
L 565.580454 189.321608 
L 565.989693 189.918908 
L 566.603552 191.039237 
L 566.808172 191.111791 
L 567.012792 190.933402 
L 567.422031 189.984931 
L 568.44513 186.514872 
L 568.64975 186.3845 
L 568.854369 186.609712 
L 569.468229 187.825455 
L 569.877468 187.844563 
L 570.286707 187.74363 
L 570.695947 187.50505 
L 570.900567 187.542808 
L 571.309806 188.057552 
L 571.719046 189.032052 
L 572.332905 190.464446 
L 572.742144 190.681256 
L 573.151384 190.937535 
L 573.560623 191.311978 
L 573.969863 191.388341 
L 574.379102 191.261155 
L 575.402201 190.503753 
L 576.629919 189.185975 
L 576.834539 189.137492 
L 577.243778 189.442538 
L 577.653018 189.787354 
L 578.062257 189.760695 
L 578.880736 189.363816 
L 579.289975 189.35941 
L 579.699215 189.002212 
L 580.926933 187.624423 
L 581.336173 187.439853 
L 581.540792 187.495782 
L 581.745412 187.786759 
L 582.359271 189.303025 
L 582.563891 189.417047 
L 582.768511 189.213133 
L 583.38237 188.207675 
L 583.791609 188.047847 
L 584.200849 188.313227 
L 584.814708 189.08367 
L 585.428567 189.909468 
L 586.042426 190.355057 
L 586.451666 190.713536 
L 586.860905 190.563828 
L 587.065525 190.481403 
L 587.270145 190.537296 
L 588.088624 191.390237 
L 588.497863 191.172824 
L 588.907103 190.756358 
L 589.520962 189.962114 
L 589.930201 189.882306 
L 590.54406 189.808544 
L 590.9533 189.318285 
L 591.567159 188.416283 
L 591.771779 188.398698 
L 591.976398 188.592173 
L 592.794877 190.000134 
L 592.999497 190.022427 
L 593.204117 189.821716 
L 594.022596 188.179118 
L 594.227215 188.117935 
L 594.636455 188.347267 
L 595.045694 188.953373 
L 595.659554 189.998251 
L 595.864173 190.00128 
L 596.273413 189.479485 
L 596.682652 189.072198 
L 596.887272 189.117838 
L 597.501131 189.791763 
L 597.910371 190.145893 
L 598.728849 190.414195 
L 599.342709 190.503583 
L 599.547328 190.290595 
L 600.161188 188.80202 
L 600.979666 187.006503 
L 601.184286 186.780165 
L 601.388906 186.779186 
L 602.002765 187.346949 
L 602.412005 188.019995 
L 603.230483 189.921863 
L 603.435103 190.069796 
L 603.639723 189.979695 
L 604.253582 189.216131 
L 604.867441 187.934964 
L 605.276681 187.211362 
L 605.4813 187.118196 
L 605.68592 187.212867 
L 606.09516 187.770235 
L 606.709019 188.7956 
L 607.322878 189.285701 
L 607.732117 189.429706 
L 608.345977 189.392704 
L 609.369075 188.898534 
L 609.778315 188.934108 
L 610.187554 188.710049 
L 610.392174 188.837747 
L 611.210653 190.105551 
L 611.824512 190.111826 
L 612.438371 190.510559 
L 612.847611 190.459195 
L 613.25685 190.649642 
L 613.666089 190.883482 
L 614.075329 190.679057 
L 614.484568 190.53957 
L 615.303047 190.91945 
L 615.712287 190.300042 
L 616.940005 188.145901 
L 617.349245 187.873208 
L 617.758484 188.10235 
L 618.167723 188.388046 
L 618.986202 188.378832 
L 619.600062 188.98151 
L 620.213921 188.954721 
L 620.82778 189.31028 
L 621.237019 189.219197 
L 621.646259 189.057493 
L 621.850879 189.098747 
L 622.260118 189.59549 
L 622.873977 190.49813 
L 623.078597 190.43555 
L 623.487836 189.547526 
L 623.897076 188.580102 
L 624.101696 188.407546 
L 624.510935 188.55554 
L 625.534034 188.952706 
L 625.943273 188.956105 
L 626.352513 188.621075 
L 626.761752 188.075348 
L 626.966372 187.956735 
L 627.170991 188.034755 
L 627.580231 188.772311 
L 627.98947 189.507066 
L 628.60333 190.103491 
L 629.217189 190.729901 
L 630.649527 191.765305 
L 630.854147 191.679596 
L 631.058766 191.30352 
L 631.877245 188.933804 
L 632.286485 188.452239 
L 633.309583 187.776283 
L 633.718823 188.135945 
L 634.128062 188.595647 
L 634.332682 188.607821 
L 635.355781 187.904397 
L 635.5604 187.979748 
L 635.76502 188.237047 
L 636.174259 189.453303 
L 636.583499 190.878177 
L 636.788119 191.246602 
L 637.197358 191.345375 
L 637.606598 191.175974 
L 638.015837 190.335784 
L 638.425076 189.554357 
L 638.629696 189.506274 
L 639.652795 189.807287 
L 639.857415 189.716365 
L 640.266654 189.133674 
L 640.675893 188.716089 
L 641.085133 189.06053 
L 641.494372 189.374151 
L 641.903612 189.32036 
L 642.108232 189.418097 
L 643.949809 191.480886 
L 644.154429 191.423601 
L 645.177527 190.410851 
L 645.791387 190.473285 
L 647.019105 190.805415 
L 647.223725 190.578456 
L 647.632964 189.594497 
L 648.246823 187.851096 
L 648.451443 187.699382 
L 648.656063 187.746283 
L 649.883781 188.643308 
L 650.293021 188.521351 
L 650.90688 187.963905 
L 651.1115 188.011288 
L 652.134598 188.751976 
L 652.543838 188.119107 
L 652.953077 187.649081 
L 653.771556 187.735804 
L 654.385415 188.019344 
L 654.999274 187.963136 
L 655.408514 188.242804 
L 655.817753 188.990342 
L 656.431612 190.399391 
L 656.840852 190.826065 
L 657.250091 190.913157 
L 657.659331 190.941976 
L 658.06857 191.311977 
L 658.47781 191.675682 
L 658.682429 191.606934 
L 659.091669 191.077756 
L 660.114767 189.333219 
L 660.728627 189.030649 
L 661.751725 187.849228 
L 662.160965 188.121049 
L 662.570204 188.34236 
L 662.979444 188.31733 
L 663.388683 188.208527 
L 663.797923 188.416902 
L 664.411782 188.882995 
L 664.616401 188.834359 
L 665.230261 188.266027 
L 665.43488 188.338633 
L 665.6395 188.692007 
L 666.662599 191.524745 
L 667.071838 191.743756 
L 667.481078 191.613403 
L 668.708796 190.266927 
L 669.322655 189.567817 
L 669.731895 189.374774 
L 670.959613 189.675562 
L 671.368852 190.379167 
L 671.573472 190.76533 
L 671.778092 190.914157 
L 671.982712 190.737969 
L 672.801191 189.172026 
L 673.00581 189.163037 
L 673.619669 189.555048 
L 673.824289 189.44147 
L 674.233529 188.727239 
L 674.847388 187.52278 
L 675.256627 187.210763 
L 675.461247 187.215562 
L 675.870486 187.635171 
L 676.279726 188.077885 
L 676.893585 188.201697 
L 677.712064 188.271788 
L 678.121303 188.536124 
L 678.325923 188.43473 
L 678.735163 187.955681 
L 678.939782 187.947391 
L 679.553642 188.599222 
L 679.758261 188.571476 
L 680.37212 188.100203 
L 680.57674 188.168758 
L 680.98598 188.652599 
L 682.009078 190.386419 
L 682.213698 190.291979 
L 682.622937 189.49996 
L 683.032177 188.688249 
L 683.441416 188.308313 
L 684.055276 187.942614 
L 684.873754 188.159718 
L 685.282994 187.246788 
L 685.692233 186.355777 
L 685.896853 186.227815 
L 686.101473 186.365053 
L 686.510712 187.244674 
L 686.919952 188.167426 
L 687.329191 188.646292 
L 687.94305 189.077114 
L 688.14767 189.115491 
L 688.761529 188.790628 
L 688.966149 188.926536 
L 689.580008 189.839428 
L 689.989248 189.788969 
L 690.807726 189.644164 
L 691.421586 188.936664 
L 691.626205 188.888837 
L 691.830825 189.035609 
L 692.649304 190.156489 
L 693.058543 190.405112 
L 693.672403 190.541551 
L 694.081642 190.913173 
L 694.900121 191.979129 
L 695.104741 192.048994 
L 695.30936 191.942386 
L 695.7186 191.32675 
L 696.332459 190.341619 
L 696.741699 190.233366 
L 697.150938 190.426991 
L 697.560177 191.037057 
L 698.174037 192.096629 
L 698.378656 192.300882 
L 698.583276 192.343403 
L 699.197135 191.900896 
L 699.401755 191.693051 
L 699.810994 190.797304 
L 700.220234 189.769876 
L 700.834093 188.956877 
L 701.243333 188.605959 
L 701.857192 188.652392 
L 702.266431 188.21616 
L 703.08491 187.288412 
L 703.49415 187.1186 
L 703.698769 187.297189 
L 704.312628 188.293335 
L 704.721868 188.369681 
L 704.926488 188.393457 
L 705.335727 188.811526 
L 706.358826 190.256992 
L 706.972685 191.359319 
L 707.177305 191.449668 
L 707.586544 191.211062 
L 707.995784 190.851873 
L 708.200403 190.865963 
L 708.609643 191.34459 
L 709.837361 193.086186 
L 710.041981 193.078665 
L 710.45122 192.644431 
L 711.065079 191.714059 
L 711.474319 191.434332 
L 711.678939 191.420243 
L 712.088178 191.705487 
L 712.497418 192.055761 
L 712.702037 192.049949 
L 713.520516 191.480024 
L 714.543615 192.03905 
L 714.748235 191.853574 
L 715.157474 190.841697 
L 715.771333 189.163312 
L 715.975953 188.931418 
L 716.180573 188.890665 
L 717.203671 189.311278 
L 717.408291 189.165883 
L 717.81753 188.235792 
L 718.22677 187.095874 
L 718.43139 186.784066 
L 718.636009 186.690807 
L 719.045249 186.922867 
L 719.454488 187.513356 
L 720.068347 189.149685 
L 720.477587 189.95868 
L 721.091446 190.564962 
L 721.909925 192.101398 
L 722.114545 192.261043 
L 722.319164 192.21206 
L 722.933024 191.824577 
L 723.342263 191.70989 
L 724.365362 191.006679 
L 724.569981 191.12096 
L 725.7977 192.861061 
L 726.206939 192.87918 
L 726.411559 192.781606 
L 726.820798 192.11006 
L 727.230038 191.219235 
L 727.434658 191.025932 
L 727.639277 191.037787 
L 728.048517 191.498473 
L 728.457756 192.008517 
L 729.071615 192.442593 
L 729.276235 192.46072 
L 729.685475 192.115185 
L 730.913193 190.494739 
L 731.117813 190.469994 
L 731.731672 190.699097 
L 732.550151 190.626948 
L 732.95939 189.703854 
L 733.36863 188.680546 
L 733.777869 188.235389 
L 734.800968 187.665639 
L 735.005587 187.636502 
L 735.210207 187.729583 
L 736.437926 188.924014 
L 738.074883 189.314569 
L 738.893362 189.912584 
L 739.916461 189.772294 
L 740.3257 189.448531 
L 741.144179 188.411275 
L 741.553419 188.443946 
L 741.962658 188.559528 
L 742.167278 188.454865 
L 742.985757 187.499535 
L 743.190377 187.641118 
L 744.213475 189.299288 
L 744.827334 189.303753 
L 746.055053 190.095748 
L 746.668912 190.299252 
L 747.487391 189.858768 
L 748.510489 189.073906 
L 748.919729 188.778558 
L 749.124349 188.824566 
L 749.533588 189.461747 
L 750.556687 191.756921 
L 751.170546 192.112695 
L 751.375166 192.169945 
L 751.579785 192.071426 
L 751.989025 191.22315 
L 753.012123 188.45509 
L 753.421363 188.027546 
L 753.830602 188.09106 
L 754.239842 188.667607 
L 754.853701 190.008173 
L 755.058321 190.194109 
L 756.081419 190.294724 
L 756.490659 189.839537 
L 756.899898 189.450864 
L 757.104518 189.567498 
L 757.718377 190.387903 
L 758.332236 190.564524 
L 758.741476 191.449072 
L 759.355335 192.833086 
L 759.559955 193.029399 
L 759.764574 193.068227 
L 760.173814 192.734815 
L 761.196913 191.436436 
L 761.810772 191.29344 
L 763.03849 190.286931 
L 763.652349 190.111311 
L 764.061589 190.228553 
L 764.675448 190.4102 
L 765.084687 190.120297 
L 765.698547 189.539894 
L 765.903166 189.538908 
L 766.312406 189.862 
L 766.926265 190.590144 
L 767.130885 190.694583 
L 767.335504 190.626119 
L 767.744744 190.05008 
L 768.153983 189.471563 
L 768.358603 189.406943 
L 768.563223 189.607321 
L 769.177082 190.655617 
L 769.381702 190.56791 
L 769.995561 189.830962 
L 770.20018 189.915972 
L 770.4048 190.263651 
L 770.81404 191.559936 
L 771.223279 192.994664 
L 771.427899 193.414361 
L 771.632519 193.534201 
L 772.041758 193.275865 
L 772.655617 192.800591 
L 773.474096 192.68381 
L 773.883336 192.173884 
L 774.292575 191.231463 
L 774.701814 190.137838 
L 774.906434 190.007067 
L 775.111054 190.293707 
L 775.724913 192.040669 
L 775.929533 192.206434 
L 776.134153 192.058992 
L 776.543392 191.079525 
L 777.157251 189.49165 
L 777.566491 189.223217 
L 778.38497 189.095355 
L 778.998829 188.488647 
L 779.408068 188.188445 
L 779.817308 188.116198 
L 780.226547 188.234828 
L 780.635787 188.492816 
L 780.840406 188.484736 
L 781.249646 188.122091 
L 781.863505 187.145947 
L 782.068125 186.84503 
L 782.272744 186.756202 
L 782.477364 186.912545 
L 783.091223 187.706984 
L 783.909702 188.225462 
L 784.114322 188.210932 
L 784.932801 187.661866 
L 785.34204 188.069346 
L 785.75128 188.951084 
L 786.774378 191.94638 
L 787.183618 192.510144 
L 787.592857 192.592394 
L 788.002097 192.56501 
L 788.411336 192.238114 
L 788.820576 191.829242 
L 789.434435 191.62016 
L 789.639055 191.335487 
L 790.048294 190.246844 
L 790.866773 187.850237 
L 791.276012 187.192953 
L 791.889872 186.585188 
L 792.094491 186.607502 
L 792.70835 187.203834 
L 793.526829 188.111629 
L 793.731449 188.025301 
L 794.140689 187.235264 
L 794.549928 186.414185 
L 794.754548 186.337152 
L 794.959167 186.548865 
L 796.186886 189.106717 
L 796.391506 189.141073 
L 796.800745 188.721433 
L 797.005365 188.516908 
L 797.414604 188.53055 
L 797.619224 188.544978 
L 798.233083 188.234809 
L 798.642323 188.624897 
L 799.051562 188.933089 
L 799.460801 189.151663 
L 800.27928 190.349657 
L 800.4839 190.360866 
L 800.68852 190.216459 
L 801.097759 189.422005 
L 801.506999 188.633684 
L 801.711618 188.637946 
L 802.530097 189.721858 
L 802.939337 189.87598 
L 803.143957 189.798424 
L 803.757816 189.060818 
L 803.962435 189.05189 
L 804.576295 189.420111 
L 804.985534 189.373648 
L 805.190154 189.56024 
L 805.804013 190.73133 
L 806.008633 190.779189 
L 806.417872 190.350955 
L 806.827112 189.60542 
L 807.031731 189.486806 
L 807.236351 189.748366 
L 807.85021 191.373022 
L 808.05483 191.635618 
L 808.25945 191.708778 
L 808.668689 191.433102 
L 809.282548 190.509527 
L 809.691788 190.016812 
L 810.101027 189.725453 
L 810.919506 188.553442 
L 811.328746 188.240428 
L 812.351844 186.869182 
L 813.374943 187.051256 
L 813.988802 187.671815 
L 814.398041 187.66842 
L 814.807281 187.502837 
L 815.21652 187.715057 
L 815.62576 188.320709 
L 816.239619 189.285347 
L 816.648858 189.807046 
L 817.058098 190.620471 
L 817.671957 191.914548 
L 817.876577 192.047922 
L 818.081197 191.974893 
L 818.490436 191.352065 
L 818.899675 190.756374 
L 819.308915 190.610864 
L 819.922774 190.539248 
L 820.332014 190.151438 
L 821.150492 188.769215 
L 822.173591 188.156321 
L 822.99207 188.254175 
L 824.015169 188.555417 
L 825.038267 188.990003 
L 825.856746 188.633081 
L 826.675225 188.053181 
L 826.879845 188.136184 
L 828.107563 189.231158 
L 828.516803 188.897907 
L 828.926042 188.265274 
L 830.35838 185.122668 
L 830.76762 184.599017 
L 830.972239 184.577991 
L 831.995338 184.965757 
L 832.404577 185.042346 
L 832.813817 185.576446 
L 833.223056 186.056343 
L 833.632296 186.232918 
L 833.836916 186.59106 
L 834.246155 188.122296 
L 834.655394 189.610195 
L 834.860014 189.819127 
L 835.064634 189.618697 
L 835.883113 187.99643 
L 836.087733 188.061338 
L 837.315451 189.475005 
L 838.33855 190.22529 
L 839.157028 191.704898 
L 839.361648 191.753661 
L 840.180127 191.232569 
L 840.793986 191.756917 
L 840.998606 191.590815 
L 841.407845 190.460734 
L 841.817085 189.296504 
L 842.021705 189.025542 
L 842.226324 188.98543 
L 844.067902 189.926988 
L 844.272522 189.696153 
L 844.886381 188.662982 
L 845.50024 188.417368 
L 845.909479 187.846991 
L 846.727958 186.121729 
L 847.341817 185.589651 
L 847.751057 185.474915 
L 848.160296 185.739762 
L 848.364916 185.671537 
L 848.774156 184.828042 
L 850.206494 180.694337 
L 850.615733 178.344922 
L 851.843451 169.370408 
L 852.048071 168.920862 
L 852.252691 168.958922 
L 852.457311 169.487385 
L 853.07117 172.588807 
L 853.889649 176.649889 
L 854.503508 178.483963 
L 855.731226 181.026758 
L 856.140466 181.266878 
L 856.754325 181.39457 
L 857.572804 181.032475 
L 857.982043 180.589417 
L 858.391283 180.1722 
L 859.209762 179.834631 
L 859.414381 179.91903 
L 859.823621 180.639666 
L 860.846719 183.18225 
L 861.460579 184.059238 
L 862.279058 184.951406 
L 862.688297 185.194763 
L 863.097536 185.906001 
L 863.506776 186.836399 
L 863.711396 187.024658 
L 863.916015 186.931644 
L 864.325255 186.043738 
L 864.939114 184.297994 
L 865.552973 183.279821 
L 866.166832 182.688953 
L 866.371452 182.7733 
L 866.985311 183.737832 
L 867.189931 183.63125 
L 867.59917 182.431673 
L 868.00841 181.248766 
L 868.21303 181.132461 
L 868.622269 181.540422 
L 869.236128 182.45295 
L 870.463847 184.672385 
L 870.668466 184.654451 
L 871.077706 184.133104 
L 871.486945 183.574491 
L 871.691565 183.536169 
L 871.896185 183.69952 
L 872.510044 184.650478 
L 872.714664 184.691781 
L 873.123903 184.255722 
L 873.533143 183.881284 
L 873.737762 183.906708 
L 874.351621 184.284425 
L 874.760861 184.205399 
L 875.57934 183.796853 
L 876.193199 183.58142 
L 877.011678 183.702061 
L 877.830157 182.743921 
L 878.034777 182.690524 
L 878.444016 182.984052 
L 878.853255 183.386285 
L 879.057875 183.450405 
L 879.467115 183.202099 
L 880.080974 182.784039 
L 880.694833 182.406855 
L 881.308692 181.902607 
L 881.717932 181.043343 
L 882.536411 178.703489 
L 882.94565 178.16671 
L 883.354889 178.045456 
L 883.764129 178.292782 
L 884.173368 178.77647 
L 884.377988 178.811207 
L 884.787227 178.318354 
L 886.014946 176.877874 
L 886.219566 176.808346 
L 886.628805 177.043519 
L 887.242664 177.501289 
L 887.447284 177.431355 
L 888.061143 176.776556 
L 888.265763 176.457397 
L 888.675002 175.145991 
L 889.084242 173.609616 
L 889.902721 171.863504 
L 891.335059 168.762743 
L 892.153538 165.944725 
L 892.358157 165.579279 
L 892.562777 165.467612 
L 892.972017 165.828912 
L 893.176636 166.035728 
L 893.381256 166.082933 
L 893.585876 165.890983 
L 894.199735 164.543242 
L 894.608974 163.346411 
L 895.222834 160.52399 
L 896.450552 154.355918 
L 896.859791 152.83608 
L 897.064411 152.440462 
L 897.269031 152.306679 
L 898.292129 152.462543 
L 899.110608 153.631353 
L 899.315228 153.680938 
L 899.724468 153.408163 
L 900.338327 152.940179 
L 900.747566 152.734327 
L 900.952186 152.780769 
L 901.566045 153.218446 
L 901.770665 153.109041 
L 902.179904 152.396446 
L 903.203003 149.896642 
L 904.021482 148.677163 
L 904.839961 148.129538 
L 905.45382 147.965215 
L 905.863059 147.408349 
L 906.272299 146.516593 
L 906.886158 145.089578 
L 907.090778 145.01052 
L 907.500017 145.094198 
L 907.704637 144.955157 
L 908.523116 143.60904 
L 908.727736 143.703634 
L 909.341595 144.490071 
L 909.955454 145.376583 
L 910.364693 145.462085 
L 910.569313 145.303384 
L 910.978553 144.453105 
L 911.387792 143.554403 
L 911.592412 143.426593 
L 911.797031 143.493099 
L 912.206271 144.037488 
L 912.61551 145.167995 
L 913.843229 149.248354 
L 914.252468 150.287628 
L 914.457088 150.447554 
L 914.661708 150.319241 
L 914.866327 149.884238 
L 915.275567 148.196621 
L 916.094046 144.366684 
L 916.298665 143.873794 
L 916.503285 143.70309 
L 916.707905 143.880252 
L 917.526384 145.913834 
L 917.731004 145.994434 
L 917.935623 145.862085 
L 918.140243 145.514613 
L 918.549482 144.184856 
L 918.958722 142.08824 
L 919.367961 138.383842 
L 919.777201 130.979835 
L 920.800299 106.960882 
L 921.004919 108.194382 
L 921.414159 117.341867 
L 922.028018 132.277299 
L 922.641877 141.499733 
L 923.255736 146.885602 
L 923.664976 148.596314 
L 924.688074 151.277845 
L 925.097314 152.424171 
L 925.301933 152.660608 
L 925.506553 152.613921 
L 925.915793 152.215724 
L 926.120412 152.216236 
L 926.529652 152.871898 
L 926.734271 153.208462 
L 926.938891 153.297449 
L 927.348131 152.91052 
L 928.575849 151.367598 
L 929.598948 148.997224 
L 929.803567 148.84744 
L 930.417427 148.845826 
L 931.031286 148.407038 
L 931.235905 148.516013 
L 932.054384 149.391282 
L 932.872863 149.757411 
L 933.282103 150.109187 
L 933.691342 150.860038 
L 934.305201 152.322574 
L 934.509821 152.591626 
L 934.714441 152.67221 
L 934.919061 152.550851 
L 937.169878 149.748197 
L 937.579117 149.718133 
L 937.988356 149.997696 
L 938.192976 150.30652 
L 938.602216 151.60829 
L 939.625314 156.498455 
L 940.239173 159.284171 
L 940.853033 160.92431 
L 941.876131 162.559789 
L 942.285371 163.274931 
L 942.48999 163.333675 
L 942.89923 162.937316 
L 944.126948 161.142223 
L 944.331568 161.193843 
L 944.740807 161.807475 
L 945.763906 163.903588 
L 946.173146 164.11961 
L 946.377765 164.187429 
L 946.582385 164.401203 
L 946.991624 165.361012 
L 947.810103 168.324123 
L 948.219343 169.646179 
L 948.628582 170.415462 
L 949.037822 170.779067 
L 949.856301 171.166874 
L 950.26554 171.828446 
L 951.084019 173.73831 
L 952.107118 176.781953 
L 952.311737 176.906744 
L 952.720977 176.474433 
L 952.925597 176.303309 
L 953.130216 176.386086 
L 953.539456 176.845922 
L 953.744075 176.876668 
L 954.562554 176.241944 
L 954.971794 176.652382 
L 955.381033 176.99311 
L 955.994892 177.107433 
L 956.404132 177.217847 
L 957.222611 177.284923 
L 957.63185 177.481816 
L 959.064188 178.939506 
L 959.882667 179.246428 
L 960.087287 179.422105 
L 960.496526 180.298884 
L 961.519625 183.382925 
L 961.928864 183.926244 
L 962.338104 184.100949 
L 962.542724 183.997789 
L 963.361203 183.083028 
L 963.770442 183.357841 
L 964.384301 183.854384 
L 964.99816 183.916148 
L 965.4074 183.848578 
L 966.225879 183.151117 
L 967.044358 183.348059 
L 967.453597 182.740219 
L 968.067456 181.50164 
L 968.272076 181.289111 
L 968.476696 181.360343 
L 968.885935 182.269144 
L 969.499794 183.542563 
L 970.113654 184.855716 
L 970.727513 186.085718 
L 970.932132 186.200258 
L 971.136752 186.072388 
L 971.545992 185.201125 
L 972.159851 183.611229 
L 972.364471 183.448818 
L 972.56909 183.537827 
L 974.206048 185.860958 
L 975.229147 187.732127 
L 975.433766 187.767292 
L 976.047626 187.475227 
L 976.252245 187.610575 
L 976.661485 188.387599 
L 977.479964 190.644918 
L 977.684583 190.831806 
L 978.093823 190.790076 
L 978.503062 190.521559 
L 979.116922 190.013716 
L 980.14002 190.06963 
L 980.753879 190.328573 
L 981.163119 189.879704 
L 981.572358 189.090702 
L 982.595457 186.387315 
L 982.800077 186.609432 
L 983.618556 188.373522 
L 984.027795 188.750822 
L 984.232415 188.705205 
L 984.641654 188.133594 
L 985.460133 186.542648 
L 985.664753 186.440514 
L 986.278612 186.543826 
L 986.483232 186.661947 
L 986.892471 187.461935 
L 987.50633 188.781567 
L 987.71095 188.943769 
L 987.91557 188.95503 
L 988.324809 188.610458 
L 989.143288 187.498975 
L 989.347908 187.511028 
L 989.757147 188.256579 
L 990.166387 188.977372 
L 990.371007 189.01437 
L 990.780246 188.479356 
L 991.189485 188.10274 
L 991.598725 188.226364 
L 992.007964 188.356977 
L 992.621824 188.077731 
L 992.826443 188.247544 
L 994.258781 190.523724 
L 994.463401 190.567183 
L 994.872641 190.210686 
L 995.4865 189.634159 
L 996.509598 189.005227 
L 997.123458 188.966576 
L 997.737317 189.041326 
L 997.941936 188.826322 
L 998.555796 187.709233 
L 998.760415 187.650251 
L 999.169655 188.172242 
L 999.988134 189.602669 
L 1000.192753 189.754111 
L 1000.397373 189.76275 
L 1000.601993 189.613627 
L 1001.011232 188.914615 
L 1001.420472 188.148587 
L 1001.625091 188.013985 
L 1001.829711 188.164828 
L 1002.64819 189.562537 
L 1003.466669 190.018371 
L 1003.875908 190.344566 
L 1004.285148 190.223802 
L 1004.694387 189.972671 
L 1005.103627 189.338006 
L 1005.512866 188.752366 
L 1005.717486 188.753767 
L 1006.126725 189.191237 
L 1006.535965 189.569747 
L 1006.740585 189.413603 
L 1007.149824 188.224513 
L 1007.559064 187.205348 
L 1007.763683 187.158152 
L 1008.786782 187.717257 
L 1009.809881 189.056598 
L 1010.42374 190.479989 
L 1011.037599 191.797915 
L 1011.242219 192.003177 
L 1011.446838 191.969747 
L 1011.651458 191.699178 
L 1012.060698 190.608995 
L 1012.674557 188.754562 
L 1013.083796 188.410002 
L 1013.493036 188.42961 
L 1013.902275 188.522001 
L 1014.106895 188.40471 
L 1015.129993 187.174434 
L 1015.334613 187.224823 
L 1015.539233 187.460788 
L 1015.948472 188.461981 
L 1016.766951 191.053039 
L 1017.176191 191.60623 
L 1017.99467 191.840538 
L 1018.403909 192.572472 
L 1018.608529 192.997679 
L 1018.813149 193.143833 
L 1019.017768 192.868512 
L 1019.631627 190.671935 
L 1020.245487 188.986054 
L 1020.654726 188.432741 
L 1021.063966 188.405133 
L 1021.473205 188.722936 
L 1021.882444 189.04057 
L 1022.087064 188.99646 
L 1022.700923 188.545526 
L 1023.110163 188.499252 
L 1023.724022 188.577009 
L 1024.133261 188.181419 
L 1025.15636 186.88677 
L 1025.36098 187.030178 
L 1025.974839 188.050143 
L 1026.384078 188.235167 
L 1026.997938 188.240246 
L 1027.816417 188.509343 
L 1028.021036 188.264606 
L 1028.839515 186.322417 
L 1029.044135 186.336487 
L 1029.657994 186.995405 
L 1029.862614 187.024931 
L 1030.271853 186.748486 
L 1030.681093 186.460427 
L 1031.090332 186.470596 
L 1031.908811 186.751685 
L 1032.318051 187.124175 
L 1032.72729 187.594226 
L 1032.93191 187.640824 
L 1033.341149 187.534252 
L 1033.545769 187.622117 
L 1033.955008 188.235513 
L 1034.773487 190.064856 
L 1035.182727 190.726553 
L 1035.591966 190.871757 
L 1036.001206 191.010629 
L 1036.410445 191.251479 
L 1036.615065 191.113062 
L 1037.228924 189.920417 
L 1037.842783 188.871667 
L 1038.252023 188.635793 
L 1038.865882 188.703819 
L 1040.0936 189.595855 
L 1040.912079 191.299553 
L 1041.116699 191.148816 
L 1041.525938 190.058749 
L 1041.935178 188.869184 
L 1042.139797 188.561631 
L 1042.344417 188.536405 
L 1042.549037 188.787362 
L 1043.367516 190.424281 
L 1043.572135 190.387864 
L 1043.981375 189.677384 
L 1044.390614 188.951668 
L 1044.595234 188.900528 
L 1045.004474 189.295176 
L 1046.232192 190.693277 
L 1046.641431 190.287181 
L 1047.050671 189.702524 
L 1048.073769 189.086839 
L 1048.278389 189.029519 
L 1048.483009 189.103549 
L 1048.892248 189.590645 
L 1049.301488 190.177056 
L 1049.506108 190.317019 
L 1049.710727 190.268769 
L 1050.119967 189.595763 
L 1050.733826 188.21245 
L 1051.143065 187.918621 
L 1051.552305 187.872127 
L 1051.961544 188.180714 
L 1052.575403 188.842778 
L 1053.189263 189.143048 
L 1054.007742 189.180362 
L 1054.212361 189.038061 
L 1055.23546 187.626608 
L 1055.44008 187.810766 
L 1056.258559 189.034093 
L 1056.667798 188.783052 
L 1057.077037 188.606401 
L 1057.486277 188.859764 
L 1058.100136 189.517663 
L 1058.509376 189.714166 
L 1059.327854 189.722419 
L 1059.737094 190.235571 
L 1060.146333 191.427384 
L 1060.760193 193.485518 
L 1061.169432 194.086841 
L 1061.374052 194.06338 
L 1061.578671 193.767553 
L 1061.987911 192.417724 
L 1062.60177 190.480294 
L 1063.01101 189.746601 
L 1063.420249 189.57993 
L 1064.034108 189.685379 
L 1064.443348 189.531006 
L 1065.466446 188.680291 
L 1065.671066 188.776934 
L 1066.080305 189.371717 
L 1067.308024 191.927916 
L 1067.921883 193.12066 
L 1068.126503 193.341203 
L 1068.331122 193.393451 
L 1068.740362 193.032767 
L 1069.354221 192.320994 
L 1069.763461 192.260045 
L 1070.1727 192.263936 
L 1070.991179 191.859359 
L 1071.605038 192.023054 
L 1072.014278 191.782079 
L 1072.423517 191.493238 
L 1073.037376 191.153935 
L 1073.446616 190.865594 
L 1073.855855 190.932164 
L 1074.265095 190.952853 
L 1074.469714 190.701136 
L 1074.878954 189.540333 
L 1075.288193 188.406156 
L 1075.492813 188.272025 
L 1075.697433 188.439155 
L 1076.311292 189.336392 
L 1076.925151 189.747692 
L 1077.33439 189.840401 
L 1077.94825 189.736207 
L 1078.357489 190.02471 
L 1078.766728 190.296295 
L 1079.175968 190.212163 
L 1079.585207 189.808133 
L 1080.199067 189.064871 
L 1080.608306 188.956036 
L 1080.812926 189.103271 
L 1081.836024 190.442937 
L 1082.859123 190.45096 
L 1083.268362 190.388651 
L 1083.677602 190.624516 
L 1084.291461 191.303719 
L 1084.700701 191.626485 
L 1084.90532 191.507301 
L 1085.723799 190.199883 
L 1085.928419 190.220491 
L 1087.360757 191.16027 
L 1087.565377 190.993333 
L 1088.383856 189.777259 
L 1088.997715 189.738106 
L 1089.406954 189.524433 
L 1090.225433 189.615597 
L 1090.634673 189.638309 
L 1090.839292 189.885038 
L 1091.657771 191.470178 
L 1091.862391 191.402058 
L 1092.68087 190.557388 
L 1093.090109 190.597027 
L 1093.499349 190.784473 
L 1094.113208 191.225905 
L 1094.727067 191.181708 
L 1094.931687 191.124284 
L 1095.340926 190.553849 
L 1095.750166 190.040323 
L 1096.159405 189.993332 
L 1097.796363 189.069326 
L 1098.205603 189.361358 
L 1098.614842 189.623888 
L 1099.024081 189.32966 
L 1099.84256 188.501859 
L 1100.2518 188.396135 
L 1101.070279 188.558878 
L 1101.684138 188.289612 
L 1102.093377 188.267183 
L 1102.707237 188.019399 
L 1102.911856 188.095797 
L 1103.116476 188.404884 
L 1103.934955 190.709474 
L 1104.139575 190.862498 
L 1104.344194 190.818459 
L 1104.753434 190.199149 
L 1105.571913 188.688481 
L 1105.981152 188.270288 
L 1106.390392 188.276787 
L 1107.41349 188.616775 
L 1107.82273 188.923755 
L 1108.231969 188.811897 
L 1108.641209 188.640249 
L 1109.255068 188.841127 
L 1109.868927 189.028203 
L 1110.278166 188.682928 
L 1110.687406 188.300778 
L 1111.096645 188.338512 
L 1111.505885 188.284564 
L 1111.915124 187.806246 
L 1112.528983 187.003475 
L 1112.938223 186.975826 
L 1113.552082 187.158145 
L 1113.756702 187.122483 
L 1114.165941 186.699224 
L 1114.575181 186.132602 
L 1114.7798 186.16886 
L 1114.98442 186.530191 
L 1115.802899 189.102774 
L 1116.007519 189.256073 
L 1116.212138 189.240612 
L 1116.416758 189.113438 
L 1116.825998 188.465468 
L 1117.235237 187.715038 
L 1117.644477 187.521787 
L 1118.258336 187.753367 
L 1118.872195 188.239675 
L 1119.486054 188.909414 
L 1119.895294 189.08814 
L 1120.099913 189.373303 
L 1120.713772 191.002208 
L 1120.918392 191.203353 
L 1121.327632 191.134678 
L 1121.736871 190.975613 
L 1121.941491 190.778514 
L 1122.35073 189.907397 
L 1122.75997 189.0509 
L 1123.578449 188.096509 
L 1124.192308 186.740911 
L 1124.396928 186.60689 
L 1124.806167 186.972384 
L 1125.215406 187.255519 
L 1125.829266 187.220584 
L 1126.033885 187.379586 
L 1126.443125 188.243446 
L 1127.056984 189.766166 
L 1127.670843 190.600968 
L 1128.284702 191.0457 
L 1129.103181 191.64539 
L 1129.307801 191.496156 
L 1130.12628 190.35916 
L 1130.535519 190.234864 
L 1130.740139 190.332096 
L 1131.353998 190.962739 
L 1131.558618 190.995189 
L 1131.967857 190.70289 
L 1132.377097 190.071226 
L 1132.990956 188.63296 
L 1133.604815 186.915465 
L 1133.809435 186.7408 
L 1134.014055 186.851515 
L 1134.832534 188.138171 
L 1135.241773 188.783061 
L 1135.446393 188.898256 
L 1136.469491 188.882845 
L 1137.28797 189.781323 
L 1137.49259 189.698879 
L 1138.106449 188.91085 
L 1138.720308 188.169642 
L 1139.129548 188.109233 
L 1139.538787 188.080437 
L 1139.948027 187.95892 
L 1140.152647 188.013244 
L 1140.561886 188.484957 
L 1140.971125 188.915917 
L 1141.584985 188.903993 
L 1142.198844 188.997112 
L 1142.608083 189.292492 
L 1143.426562 190.00791 
L 1143.835802 190.013735 
L 1144.245041 189.858457 
L 1144.449661 190.01891 
L 1145.472759 191.720425 
L 1145.881999 191.996005 
L 1146.291238 191.866203 
L 1147.723576 190.834411 
L 1148.542055 189.761131 
L 1149.360534 189.761163 
L 1149.769774 189.625859 
L 1149.974393 189.70288 
L 1150.383633 190.262935 
L 1150.997492 191.243462 
L 1151.202112 191.381475 
L 1151.406732 191.3754 
L 1151.815971 190.868731 
L 1152.63445 189.562027 
L 1153.862168 188.975951 
L 1154.271408 189.008321 
L 1154.680647 188.756026 
L 1155.089887 188.519006 
L 1155.294506 188.595671 
L 1155.703746 189.146446 
L 1157.136084 191.683319 
L 1158.363802 192.952472 
L 1158.773042 192.743714 
L 1159.182281 192.330021 
L 1159.591521 191.332229 
L 1160.00076 190.136943 
L 1160.20538 189.860454 
L 1160.614619 189.850728 
L 1161.023859 189.777828 
L 1161.433098 189.544533 
L 1161.842338 189.602886 
L 1162.660816 190.258005 
L 1163.070056 190.068254 
L 1163.479295 189.594593 
L 1163.888535 188.640777 
L 1164.297774 187.673895 
L 1164.502394 187.513807 
L 1164.911633 187.634412 
L 1165.525493 188.125116 
L 1166.548591 189.071634 
L 1166.957831 189.305595 
L 1167.16245 189.29229 
L 1167.57169 188.760086 
L 1167.980929 188.279861 
L 1168.390169 188.128926 
L 1168.594789 188.149761 
L 1169.004028 188.55683 
L 1169.617887 189.85629 
L 1170.027127 190.632951 
L 1170.845606 191.231425 
L 1171.459465 192.036442 
L 1171.664084 192.11525 
L 1171.868704 192.069287 
L 1172.277944 191.575585 
L 1172.891803 190.704963 
L 1173.301042 190.208359 
L 1174.119521 188.686009 
L 1174.528761 188.478998 
L 1175.14262 188.729042 
L 1175.551859 188.470057 
L 1175.756479 188.328604 
L 1175.961099 188.338907 
L 1176.165718 188.555638 
L 1177.393437 190.897629 
L 1178.007296 191.542268 
L 1178.416535 191.624719 
L 1178.621155 191.537426 
L 1179.030395 190.938241 
L 1179.439634 190.227546 
L 1180.258113 189.601667 
L 1181.281212 187.579485 
L 1181.485831 187.654868 
L 1181.895071 188.506494 
L 1182.50893 190.070623 
L 1183.736648 191.293959 
L 1184.145888 191.211736 
L 1184.759747 191.116601 
L 1184.759747 191.116601 
" clip-path="url(#p3b921c516a)" style="fill: none; stroke: #000000; stroke-width: 2; stroke-linecap: square"/>
   </g>
   <g id="patch_3">
    <path d="M 3.00024 198.907885 
L 1184.99976 198.907885 
" style="fill: none; stroke: #000000; stroke-width: 2; stroke-linejoin: miter; stroke-linecap: square"/>
   </g>
  </g>
 </g>
 <defs>
  <clipPath id="p3b921c516a">
   <rect x="3.00024" y="3.00024" width="1181.99952" height="195.907645"/>
  </clipPath>
 </defs>
</svg>
