<?xml version="1.0" encoding="utf-8" standalone="no"?>
<!DOCTYPE svg PUBLIC "-//W3C//DTD SVG 1.1//EN"
  "http://www.w3.org/Graphics/SVG/1.1/DTD/svg11.dtd">
<svg xmlns:xlink="http://www.w3.org/1999/xlink" width="1188pt" height="252pt" viewBox="0 0 1188 252" xmlns="http://www.w3.org/2000/svg" version="1.1">
 <metadata>
  <rdf:RDF xmlns:dc="http://purl.org/dc/elements/1.1/" xmlns:cc="http://creativecommons.org/ns#" xmlns:rdf="http://www.w3.org/1999/02/22-rdf-syntax-ns#">
   <cc:Work>
    <dc:type rdf:resource="http://purl.org/dc/dcmitype/StillImage"/>
    <dc:date>2024-05-13T15:45:24.293916</dc:date>
    <dc:format>image/svg+xml</dc:format>
    <dc:creator>
     <cc:Agent>
      <dc:title>Matplotlib v3.8.0, https://matplotlib.org/</dc:title>
     </cc:Agent>
    </dc:creator>
   </cc:Work>
  </rdf:RDF>
 </metadata>
 <defs>
  <style type="text/css">*{stroke-linejoin: round; stroke-linecap: butt}</style>
 </defs>
 <g id="figure_1">
  <g id="patch_1">
   <path d="M 0 252 
L 1188 252 
L 1188 0 
L 0 0 
z
" style="fill: #ffffff"/>
  </g>
  <g id="axes_1">
   <g id="patch_2">
    <path d="M 3.00024 198.907885 
L 1184.99976 198.907885 
L 1184.99976 3.00024 
L 3.00024 3.00024 
z
" style="fill: #ffffff"/>
   </g>
   <g id="matplotlib.axis_1">
    <g id="xtick_1">
     <g id="line2d_1">
      <defs>
       <path id="mcd1a08eb6b" d="M 0 0 
L 0 8 
" style="stroke: #000000; stroke-width: 2"/>
      </defs>
      <g>
       <use xlink:href="#mcd1a08eb6b" x="1131.272509" y="198.907885" style="stroke: #000000; stroke-width: 2"/>
      </g>
     </g>
     <g id="text_1">
      <!-- 0 -->
      <g transform="translate(1126.267665 224.791947) scale(0.18 -0.18)">
       <defs>
        <path id="Arial-BoldMT-30" d="M 1756 4600 
Q 2422 4600 2797 4125 
Q 3244 3563 3244 2259 
Q 3244 959 2794 391 
Q 2422 -78 1756 -78 
Q 1088 -78 678 436 
Q 269 950 269 2269 
Q 269 3563 719 4131 
Q 1091 4600 1756 4600 
z
M 1756 3872 
Q 1597 3872 1472 3770 
Q 1347 3669 1278 3406 
Q 1188 3066 1188 2259 
Q 1188 1453 1269 1151 
Q 1350 850 1473 750 
Q 1597 650 1756 650 
Q 1916 650 2041 751 
Q 2166 853 2234 1116 
Q 2325 1453 2325 2259 
Q 2325 3066 2244 3367 
Q 2163 3669 2039 3770 
Q 1916 3872 1756 3872 
z
" transform="scale(0.015625)"/>
       </defs>
       <use xlink:href="#Arial-BoldMT-30"/>
      </g>
     </g>
    </g>
    <g id="xtick_2">
     <g id="line2d_2">
      <g>
       <use xlink:href="#mcd1a08eb6b" x="1023.818007" y="198.907885" style="stroke: #000000; stroke-width: 2"/>
      </g>
     </g>
     <g id="text_2">
      <!-- 1 -->
      <g transform="translate(1018.813164 224.791947) scale(0.18 -0.18)">
       <defs>
        <path id="Arial-BoldMT-31" d="M 2519 0 
L 1641 0 
L 1641 3309 
Q 1159 2859 506 2644 
L 506 3441 
Q 850 3553 1253 3867 
Q 1656 4181 1806 4600 
L 2519 4600 
L 2519 0 
z
" transform="scale(0.015625)"/>
       </defs>
       <use xlink:href="#Arial-BoldMT-31"/>
      </g>
     </g>
    </g>
    <g id="xtick_3">
     <g id="line2d_3">
      <g>
       <use xlink:href="#mcd1a08eb6b" x="916.363505" y="198.907885" style="stroke: #000000; stroke-width: 2"/>
      </g>
     </g>
     <g id="text_3">
      <!-- 2 -->
      <g transform="translate(911.358662 224.791947) scale(0.18 -0.18)">
       <defs>
        <path id="Arial-BoldMT-32" d="M 3238 816 
L 3238 0 
L 159 0 
Q 209 463 459 877 
Q 709 1291 1447 1975 
Q 2041 2528 2175 2725 
Q 2356 2997 2356 3263 
Q 2356 3556 2198 3714 
Q 2041 3872 1763 3872 
Q 1488 3872 1325 3706 
Q 1163 3541 1138 3156 
L 263 3244 
Q 341 3969 753 4284 
Q 1166 4600 1784 4600 
Q 2463 4600 2850 4234 
Q 3238 3869 3238 3325 
Q 3238 3016 3127 2736 
Q 3016 2456 2775 2150 
Q 2616 1947 2200 1565 
Q 1784 1184 1673 1059 
Q 1563 934 1494 816 
L 3238 816 
z
" transform="scale(0.015625)"/>
       </defs>
       <use xlink:href="#Arial-BoldMT-32"/>
      </g>
     </g>
    </g>
    <g id="xtick_4">
     <g id="line2d_4">
      <g>
       <use xlink:href="#mcd1a08eb6b" x="808.909004" y="198.907885" style="stroke: #000000; stroke-width: 2"/>
      </g>
     </g>
     <g id="text_4">
      <!-- 3 -->
      <g transform="translate(803.90416 224.791947) scale(0.18 -0.18)">
       <defs>
        <path id="Arial-BoldMT-33" d="M 241 1216 
L 1091 1319 
Q 1131 994 1309 822 
Q 1488 650 1741 650 
Q 2013 650 2198 856 
Q 2384 1063 2384 1413 
Q 2384 1744 2206 1937 
Q 2028 2131 1772 2131 
Q 1603 2131 1369 2066 
L 1466 2781 
Q 1822 2772 2009 2936 
Q 2197 3100 2197 3372 
Q 2197 3603 2059 3740 
Q 1922 3878 1694 3878 
Q 1469 3878 1309 3722 
Q 1150 3566 1116 3266 
L 306 3403 
Q 391 3819 561 4067 
Q 731 4316 1036 4458 
Q 1341 4600 1719 4600 
Q 2366 4600 2756 4188 
Q 3078 3850 3078 3425 
Q 3078 2822 2419 2463 
Q 2813 2378 3048 2084 
Q 3284 1791 3284 1375 
Q 3284 772 2843 347 
Q 2403 -78 1747 -78 
Q 1125 -78 715 280 
Q 306 638 241 1216 
z
" transform="scale(0.015625)"/>
       </defs>
       <use xlink:href="#Arial-BoldMT-33"/>
      </g>
     </g>
    </g>
    <g id="xtick_5">
     <g id="line2d_5">
      <g>
       <use xlink:href="#mcd1a08eb6b" x="701.454502" y="198.907885" style="stroke: #000000; stroke-width: 2"/>
      </g>
     </g>
     <g id="text_5">
      <!-- 4 -->
      <g transform="translate(696.449658 224.791947) scale(0.18 -0.18)">
       <defs>
        <path id="Arial-BoldMT-34" d="M 1994 0 
L 1994 922 
L 119 922 
L 119 1691 
L 2106 4600 
L 2844 4600 
L 2844 1694 
L 3413 1694 
L 3413 922 
L 2844 922 
L 2844 0 
L 1994 0 
z
M 1994 1694 
L 1994 3259 
L 941 1694 
L 1994 1694 
z
" transform="scale(0.015625)"/>
       </defs>
       <use xlink:href="#Arial-BoldMT-34"/>
      </g>
     </g>
    </g>
    <g id="xtick_6">
     <g id="line2d_6">
      <g>
       <use xlink:href="#mcd1a08eb6b" x="594" y="198.907885" style="stroke: #000000; stroke-width: 2"/>
      </g>
     </g>
     <g id="text_6">
      <!-- 5 -->
      <g transform="translate(588.995156 224.791947) scale(0.18 -0.18)">
       <defs>
        <path id="Arial-BoldMT-35" d="M 284 1178 
L 1159 1269 
Q 1197 972 1381 798 
Q 1566 625 1806 625 
Q 2081 625 2272 848 
Q 2463 1072 2463 1522 
Q 2463 1944 2273 2155 
Q 2084 2366 1781 2366 
Q 1403 2366 1103 2031 
L 391 2134 
L 841 4519 
L 3163 4519 
L 3163 3697 
L 1506 3697 
L 1369 2919 
Q 1663 3066 1969 3066 
Q 2553 3066 2959 2641 
Q 3366 2216 3366 1538 
Q 3366 972 3038 528 
Q 2591 -78 1797 -78 
Q 1163 -78 763 262 
Q 363 603 284 1178 
z
" transform="scale(0.015625)"/>
       </defs>
       <use xlink:href="#Arial-BoldMT-35"/>
      </g>
     </g>
    </g>
    <g id="xtick_7">
     <g id="line2d_7">
      <g>
       <use xlink:href="#mcd1a08eb6b" x="486.545498" y="198.907885" style="stroke: #000000; stroke-width: 2"/>
      </g>
     </g>
     <g id="text_7">
      <!-- 6 -->
      <g transform="translate(481.540654 224.791947) scale(0.18 -0.18)">
       <defs>
        <path id="Arial-BoldMT-36" d="M 3247 3459 
L 2397 3366 
Q 2366 3628 2234 3753 
Q 2103 3878 1894 3878 
Q 1616 3878 1423 3628 
Q 1231 3378 1181 2588 
Q 1509 2975 1997 2975 
Q 2547 2975 2939 2556 
Q 3331 2138 3331 1475 
Q 3331 772 2918 347 
Q 2506 -78 1859 -78 
Q 1166 -78 719 461 
Q 272 1000 272 2228 
Q 272 3488 737 4044 
Q 1203 4600 1947 4600 
Q 2469 4600 2811 4308 
Q 3153 4016 3247 3459 
z
M 1256 1544 
Q 1256 1116 1453 883 
Q 1650 650 1903 650 
Q 2147 650 2309 840 
Q 2472 1031 2472 1466 
Q 2472 1913 2297 2120 
Q 2122 2328 1859 2328 
Q 1606 2328 1431 2129 
Q 1256 1931 1256 1544 
z
" transform="scale(0.015625)"/>
       </defs>
       <use xlink:href="#Arial-BoldMT-36"/>
      </g>
     </g>
    </g>
    <g id="xtick_8">
     <g id="line2d_8">
      <g>
       <use xlink:href="#mcd1a08eb6b" x="379.090996" y="198.907885" style="stroke: #000000; stroke-width: 2"/>
      </g>
     </g>
     <g id="text_8">
      <!-- 7 -->
      <g transform="translate(374.086153 224.791947) scale(0.18 -0.18)">
       <defs>
        <path id="Arial-BoldMT-37" d="M 272 3703 
L 272 4519 
L 3275 4519 
L 3275 3881 
Q 2903 3516 2518 2831 
Q 2134 2147 1932 1376 
Q 1731 606 1734 0 
L 888 0 
Q 909 950 1279 1937 
Q 1650 2925 2269 3703 
L 272 3703 
z
" transform="scale(0.015625)"/>
       </defs>
       <use xlink:href="#Arial-BoldMT-37"/>
      </g>
     </g>
    </g>
    <g id="xtick_9">
     <g id="line2d_9">
      <g>
       <use xlink:href="#mcd1a08eb6b" x="271.636495" y="198.907885" style="stroke: #000000; stroke-width: 2"/>
      </g>
     </g>
     <g id="text_9">
      <!-- 8 -->
      <g transform="translate(266.631651 224.791947) scale(0.18 -0.18)">
       <defs>
        <path id="Arial-BoldMT-38" d="M 1025 2472 
Q 684 2616 529 2867 
Q 375 3119 375 3419 
Q 375 3931 733 4265 
Q 1091 4600 1750 4600 
Q 2403 4600 2764 4265 
Q 3125 3931 3125 3419 
Q 3125 3100 2959 2851 
Q 2794 2603 2494 2472 
Q 2875 2319 3073 2025 
Q 3272 1731 3272 1347 
Q 3272 713 2867 316 
Q 2463 -81 1791 -81 
Q 1166 -81 750 247 
Q 259 634 259 1309 
Q 259 1681 443 1992 
Q 628 2303 1025 2472 
z
M 1206 3356 
Q 1206 3094 1354 2947 
Q 1503 2800 1750 2800 
Q 2000 2800 2150 2948 
Q 2300 3097 2300 3359 
Q 2300 3606 2151 3754 
Q 2003 3903 1759 3903 
Q 1506 3903 1356 3753 
Q 1206 3603 1206 3356 
z
M 1125 1394 
Q 1125 1031 1311 828 
Q 1497 625 1775 625 
Q 2047 625 2225 820 
Q 2403 1016 2403 1384 
Q 2403 1706 2222 1901 
Q 2041 2097 1763 2097 
Q 1441 2097 1283 1875 
Q 1125 1653 1125 1394 
z
" transform="scale(0.015625)"/>
       </defs>
       <use xlink:href="#Arial-BoldMT-38"/>
      </g>
     </g>
    </g>
    <g id="xtick_10">
     <g id="line2d_10">
      <g>
       <use xlink:href="#mcd1a08eb6b" x="164.181993" y="198.907885" style="stroke: #000000; stroke-width: 2"/>
      </g>
     </g>
     <g id="text_10">
      <!-- 9 -->
      <g transform="translate(159.177149 224.791947) scale(0.18 -0.18)">
       <defs>
        <path id="Arial-BoldMT-39" d="M 291 1059 
L 1141 1153 
Q 1172 894 1303 769 
Q 1434 644 1650 644 
Q 1922 644 2112 894 
Q 2303 1144 2356 1931 
Q 2025 1547 1528 1547 
Q 988 1547 595 1964 
Q 203 2381 203 3050 
Q 203 3747 617 4173 
Q 1031 4600 1672 4600 
Q 2369 4600 2816 4061 
Q 3263 3522 3263 2288 
Q 3263 1031 2797 475 
Q 2331 -81 1584 -81 
Q 1047 -81 715 205 
Q 384 491 291 1059 
z
M 2278 2978 
Q 2278 3403 2083 3637 
Q 1888 3872 1631 3872 
Q 1388 3872 1227 3680 
Q 1066 3488 1066 3050 
Q 1066 2606 1241 2398 
Q 1416 2191 1678 2191 
Q 1931 2191 2104 2391 
Q 2278 2591 2278 2978 
z
" transform="scale(0.015625)"/>
       </defs>
       <use xlink:href="#Arial-BoldMT-39"/>
      </g>
     </g>
    </g>
    <g id="xtick_11">
     <g id="line2d_11">
      <g>
       <use xlink:href="#mcd1a08eb6b" x="56.727491" y="198.907885" style="stroke: #000000; stroke-width: 2"/>
      </g>
     </g>
     <g id="text_11">
      <!-- 10 -->
      <g transform="translate(46.717803 224.791947) scale(0.18 -0.18)">
       <use xlink:href="#Arial-BoldMT-31"/>
       <use xlink:href="#Arial-BoldMT-30" x="55.615234"/>
      </g>
     </g>
    </g>
    <g id="text_12">
     <!-- Chemical Shift / ppm -->
     <g transform="translate(504.992813 245.447573) scale(0.18 -0.18)">
      <defs>
       <path id="Arial-BoldMT-43" d="M 3397 1684 
L 4294 1400 
Q 4088 650 3608 286 
Q 3128 -78 2391 -78 
Q 1478 -78 890 545 
Q 303 1169 303 2250 
Q 303 3394 893 4026 
Q 1484 4659 2447 4659 
Q 3288 4659 3813 4163 
Q 4125 3869 4281 3319 
L 3366 3100 
Q 3284 3456 3026 3662 
Q 2769 3869 2400 3869 
Q 1891 3869 1573 3503 
Q 1256 3138 1256 2319 
Q 1256 1450 1568 1081 
Q 1881 713 2381 713 
Q 2750 713 3015 947 
Q 3281 1181 3397 1684 
z
" transform="scale(0.015625)"/>
       <path id="Arial-BoldMT-68" d="M 1334 4581 
L 1334 2897 
Q 1759 3394 2350 3394 
Q 2653 3394 2897 3281 
Q 3141 3169 3264 2994 
Q 3388 2819 3433 2606 
Q 3478 2394 3478 1947 
L 3478 0 
L 2600 0 
L 2600 1753 
Q 2600 2275 2550 2415 
Q 2500 2556 2373 2639 
Q 2247 2722 2056 2722 
Q 1838 2722 1666 2615 
Q 1494 2509 1414 2295 
Q 1334 2081 1334 1663 
L 1334 0 
L 456 0 
L 456 4581 
L 1334 4581 
z
" transform="scale(0.015625)"/>
       <path id="Arial-BoldMT-65" d="M 2381 1056 
L 3256 909 
Q 3088 428 2723 176 
Q 2359 -75 1813 -75 
Q 947 -75 531 491 
Q 203 944 203 1634 
Q 203 2459 634 2926 
Q 1066 3394 1725 3394 
Q 2466 3394 2894 2905 
Q 3322 2416 3303 1406 
L 1103 1406 
Q 1113 1016 1316 798 
Q 1519 581 1822 581 
Q 2028 581 2168 693 
Q 2309 806 2381 1056 
z
M 2431 1944 
Q 2422 2325 2234 2523 
Q 2047 2722 1778 2722 
Q 1491 2722 1303 2513 
Q 1116 2303 1119 1944 
L 2431 1944 
z
" transform="scale(0.015625)"/>
       <path id="Arial-BoldMT-6d" d="M 394 3319 
L 1203 3319 
L 1203 2866 
Q 1638 3394 2238 3394 
Q 2556 3394 2790 3262 
Q 3025 3131 3175 2866 
Q 3394 3131 3647 3262 
Q 3900 3394 4188 3394 
Q 4553 3394 4806 3245 
Q 5059 3097 5184 2809 
Q 5275 2597 5275 2122 
L 5275 0 
L 4397 0 
L 4397 1897 
Q 4397 2391 4306 2534 
Q 4184 2722 3931 2722 
Q 3747 2722 3584 2609 
Q 3422 2497 3350 2280 
Q 3278 2063 3278 1594 
L 3278 0 
L 2400 0 
L 2400 1819 
Q 2400 2303 2353 2443 
Q 2306 2584 2207 2653 
Q 2109 2722 1941 2722 
Q 1738 2722 1575 2612 
Q 1413 2503 1342 2297 
Q 1272 2091 1272 1613 
L 1272 0 
L 394 0 
L 394 3319 
z
" transform="scale(0.015625)"/>
       <path id="Arial-BoldMT-69" d="M 459 3769 
L 459 4581 
L 1338 4581 
L 1338 3769 
L 459 3769 
z
M 459 0 
L 459 3319 
L 1338 3319 
L 1338 0 
L 459 0 
z
" transform="scale(0.015625)"/>
       <path id="Arial-BoldMT-63" d="M 3353 2338 
L 2488 2181 
Q 2444 2441 2289 2572 
Q 2134 2703 1888 2703 
Q 1559 2703 1364 2476 
Q 1169 2250 1169 1719 
Q 1169 1128 1367 884 
Q 1566 641 1900 641 
Q 2150 641 2309 783 
Q 2469 925 2534 1272 
L 3397 1125 
Q 3263 531 2881 228 
Q 2500 -75 1859 -75 
Q 1131 -75 698 384 
Q 266 844 266 1656 
Q 266 2478 700 2936 
Q 1134 3394 1875 3394 
Q 2481 3394 2839 3133 
Q 3197 2872 3353 2338 
z
" transform="scale(0.015625)"/>
       <path id="Arial-BoldMT-61" d="M 1116 2306 
L 319 2450 
Q 453 2931 781 3162 
Q 1109 3394 1756 3394 
Q 2344 3394 2631 3255 
Q 2919 3116 3036 2902 
Q 3153 2688 3153 2116 
L 3144 1091 
Q 3144 653 3186 445 
Q 3228 238 3344 0 
L 2475 0 
Q 2441 88 2391 259 
Q 2369 338 2359 363 
Q 2134 144 1878 34 
Q 1622 -75 1331 -75 
Q 819 -75 523 203 
Q 228 481 228 906 
Q 228 1188 362 1408 
Q 497 1628 739 1745 
Q 981 1863 1438 1950 
Q 2053 2066 2291 2166 
L 2291 2253 
Q 2291 2506 2166 2614 
Q 2041 2722 1694 2722 
Q 1459 2722 1328 2630 
Q 1197 2538 1116 2306 
z
M 2291 1594 
Q 2122 1538 1756 1459 
Q 1391 1381 1278 1306 
Q 1106 1184 1106 997 
Q 1106 813 1243 678 
Q 1381 544 1594 544 
Q 1831 544 2047 700 
Q 2206 819 2256 991 
Q 2291 1103 2291 1419 
L 2291 1594 
z
" transform="scale(0.015625)"/>
       <path id="Arial-BoldMT-6c" d="M 459 0 
L 459 4581 
L 1338 4581 
L 1338 0 
L 459 0 
z
" transform="scale(0.015625)"/>
       <path id="Arial-BoldMT-20" transform="scale(0.015625)"/>
       <path id="Arial-BoldMT-53" d="M 231 1491 
L 1131 1578 
Q 1213 1125 1461 912 
Q 1709 700 2131 700 
Q 2578 700 2804 889 
Q 3031 1078 3031 1331 
Q 3031 1494 2936 1608 
Q 2841 1722 2603 1806 
Q 2441 1863 1863 2006 
Q 1119 2191 819 2459 
Q 397 2838 397 3381 
Q 397 3731 595 4036 
Q 794 4341 1167 4500 
Q 1541 4659 2069 4659 
Q 2931 4659 3367 4281 
Q 3803 3903 3825 3272 
L 2900 3231 
Q 2841 3584 2645 3739 
Q 2450 3894 2059 3894 
Q 1656 3894 1428 3728 
Q 1281 3622 1281 3444 
Q 1281 3281 1419 3166 
Q 1594 3019 2269 2859 
Q 2944 2700 3267 2529 
Q 3591 2359 3773 2064 
Q 3956 1769 3956 1334 
Q 3956 941 3737 597 
Q 3519 253 3119 86 
Q 2719 -81 2122 -81 
Q 1253 -81 787 320 
Q 322 722 231 1491 
z
" transform="scale(0.015625)"/>
       <path id="Arial-BoldMT-66" d="M 75 3319 
L 563 3319 
L 563 3569 
Q 563 3988 652 4194 
Q 741 4400 980 4529 
Q 1219 4659 1584 4659 
Q 1959 4659 2319 4547 
L 2200 3934 
Q 1991 3984 1797 3984 
Q 1606 3984 1523 3895 
Q 1441 3806 1441 3553 
L 1441 3319 
L 2097 3319 
L 2097 2628 
L 1441 2628 
L 1441 0 
L 563 0 
L 563 2628 
L 75 2628 
L 75 3319 
z
" transform="scale(0.015625)"/>
       <path id="Arial-BoldMT-74" d="M 1981 3319 
L 1981 2619 
L 1381 2619 
L 1381 1281 
Q 1381 875 1398 808 
Q 1416 741 1477 697 
Q 1538 653 1625 653 
Q 1747 653 1978 738 
L 2053 56 
Q 1747 -75 1359 -75 
Q 1122 -75 931 4 
Q 741 84 652 211 
Q 563 338 528 553 
Q 500 706 500 1172 
L 500 2619 
L 97 2619 
L 97 3319 
L 500 3319 
L 500 3978 
L 1381 4491 
L 1381 3319 
L 1981 3319 
z
" transform="scale(0.015625)"/>
       <path id="Arial-BoldMT-2f" d="M -9 -78 
L 1125 4659 
L 1784 4659 
L 638 -78 
L -9 -78 
z
" transform="scale(0.015625)"/>
       <path id="Arial-BoldMT-70" d="M 434 3319 
L 1253 3319 
L 1253 2831 
Q 1413 3081 1684 3237 
Q 1956 3394 2288 3394 
Q 2866 3394 3269 2941 
Q 3672 2488 3672 1678 
Q 3672 847 3265 386 
Q 2859 -75 2281 -75 
Q 2006 -75 1782 34 
Q 1559 144 1313 409 
L 1313 -1263 
L 434 -1263 
L 434 3319 
z
M 1303 1716 
Q 1303 1156 1525 889 
Q 1747 622 2066 622 
Q 2372 622 2575 867 
Q 2778 1113 2778 1672 
Q 2778 2194 2568 2447 
Q 2359 2700 2050 2700 
Q 1728 2700 1515 2451 
Q 1303 2203 1303 1716 
z
" transform="scale(0.015625)"/>
      </defs>
      <use xlink:href="#Arial-BoldMT-43"/>
      <use xlink:href="#Arial-BoldMT-68" x="72.216797"/>
      <use xlink:href="#Arial-BoldMT-65" x="133.300781"/>
      <use xlink:href="#Arial-BoldMT-6d" x="188.916016"/>
      <use xlink:href="#Arial-BoldMT-69" x="277.832031"/>
      <use xlink:href="#Arial-BoldMT-63" x="305.615234"/>
      <use xlink:href="#Arial-BoldMT-61" x="361.230469"/>
      <use xlink:href="#Arial-BoldMT-6c" x="416.845703"/>
      <use xlink:href="#Arial-BoldMT-20" x="444.628906"/>
      <use xlink:href="#Arial-BoldMT-53" x="472.412109"/>
      <use xlink:href="#Arial-BoldMT-68" x="539.111328"/>
      <use xlink:href="#Arial-BoldMT-69" x="600.195312"/>
      <use xlink:href="#Arial-BoldMT-66" x="627.978516"/>
      <use xlink:href="#Arial-BoldMT-74" x="661.279297"/>
      <use xlink:href="#Arial-BoldMT-20" x="694.580078"/>
      <use xlink:href="#Arial-BoldMT-2f" x="722.363281"/>
      <use xlink:href="#Arial-BoldMT-20" x="750.146484"/>
      <use xlink:href="#Arial-BoldMT-70" x="777.929688"/>
      <use xlink:href="#Arial-BoldMT-70" x="839.013672"/>
      <use xlink:href="#Arial-BoldMT-6d" x="900.097656"/>
     </g>
    </g>
   </g>
   <g id="matplotlib.axis_2"/>
   <g id="line2d_12">
    <path d="M 3.080825 189.578608 
L 3.490064 189.126461 
L 3.694684 189.14486 
L 4.513163 189.591913 
L 5.127022 189.386811 
L 5.945501 188.801277 
L 6.35474 189.076926 
L 6.76398 189.294857 
L 6.9686 189.195658 
L 7.787078 188.170592 
L 7.991698 188.116751 
L 8.400938 188.337306 
L 9.219417 189.278087 
L 9.833276 190.134616 
L 10.037895 190.216539 
L 10.447135 190.0081 
L 11.470234 189.029259 
L 11.879473 188.709678 
L 12.902572 187.073302 
L 13.107191 187.11224 
L 13.92567 187.819029 
L 14.33491 187.569496 
L 14.948769 186.980984 
L 15.153389 187.061958 
L 15.562628 187.803379 
L 16.176487 189.043409 
L 17.404206 191.011389 
L 17.608825 190.930374 
L 18.631924 189.732286 
L 19.041163 189.227967 
L 19.450403 188.596805 
L 19.655023 188.479303 
L 19.859642 188.561843 
L 21.29198 190.204024 
L 22.315079 192.577228 
L 22.519699 192.751506 
L 22.724319 192.748244 
L 23.133558 192.266689 
L 23.747417 191.312381 
L 23.952037 191.255793 
L 24.361276 191.506328 
L 24.975136 191.891228 
L 25.998234 192.270193 
L 26.612093 191.45944 
L 27.225953 190.814202 
L 27.635192 190.650106 
L 28.249051 190.760388 
L 28.658291 190.732932 
L 29.06753 190.264413 
L 30.090629 189.040859 
L 30.295248 188.976126 
L 30.499868 189.072859 
L 32.136826 190.82358 
L 32.341446 190.895432 
L 32.546065 190.823782 
L 32.750685 190.551531 
L 33.159925 189.438882 
L 33.569164 188.262385 
L 33.773784 187.971133 
L 33.978404 187.93581 
L 34.796882 188.626456 
L 35.206122 189.354005 
L 35.615361 190.157399 
L 35.819981 190.285094 
L 36.024601 190.189306 
L 37.252319 188.688099 
L 37.866178 188.281999 
L 38.275418 188.325295 
L 38.684657 188.777369 
L 39.707756 190.512641 
L 41.344714 191.067623 
L 41.753953 191.383371 
L 41.958573 191.41118 
L 42.367812 191.105637 
L 42.981671 190.587995 
L 43.595531 190.154704 
L 44.823249 188.717458 
L 45.232488 188.162066 
L 45.641728 188.013016 
L 46.050967 188.075015 
L 46.460207 188.510923 
L 46.869446 189.11246 
L 47.074066 189.225601 
L 47.278686 189.154753 
L 47.892545 188.667405 
L 48.097165 188.772901 
L 49.120263 189.886899 
L 50.347982 190.107821 
L 51.5757 190.639945 
L 51.984939 190.51069 
L 52.394179 189.835535 
L 53.826517 186.355804 
L 55.668095 179.068278 
L 55.872714 178.825954 
L 56.077334 178.927167 
L 56.486573 180.020071 
L 57.918912 185.254097 
L 58.328151 185.441085 
L 58.532771 185.741909 
L 59.965109 188.996134 
L 60.578968 189.912816 
L 60.783588 190.056364 
L 61.192827 189.965358 
L 61.602067 189.911506 
L 62.420546 190.394517 
L 63.239024 190.141544 
L 64.057503 189.939667 
L 64.671363 189.979239 
L 65.285222 189.78531 
L 65.694461 190.015108 
L 66.103701 190.339472 
L 66.51294 190.359623 
L 67.331419 190.120367 
L 67.740658 190.29043 
L 68.354518 190.671262 
L 68.763757 190.364025 
L 69.172997 190.111854 
L 69.582236 190.420885 
L 70.196095 190.99093 
L 70.400715 190.902034 
L 71.219194 189.990683 
L 71.628433 189.886804 
L 72.242292 189.835109 
L 73.265391 189.090184 
L 73.87925 189.285161 
L 74.493109 189.212769 
L 74.902349 189.552813 
L 75.925447 190.640653 
L 76.743926 192.104392 
L 77.153166 192.329842 
L 77.357786 192.299819 
L 77.767025 191.855735 
L 78.380884 190.95915 
L 79.608603 190.29073 
L 80.017842 190.557477 
L 80.631701 190.988598 
L 81.040941 190.82281 
L 82.064039 189.708732 
L 82.677898 190.070498 
L 83.087138 189.847315 
L 84.314856 188.658994 
L 84.519476 188.792638 
L 84.928715 189.635129 
L 85.542575 190.985601 
L 85.951814 191.38213 
L 86.156434 191.392771 
L 86.565673 191.039392 
L 86.974913 190.652117 
L 87.793392 190.32558 
L 88.407251 189.711308 
L 89.22573 189.454815 
L 89.634969 189.225644 
L 90.044209 189.292108 
L 90.453448 189.358397 
L 91.271927 189.212551 
L 91.681166 189.414841 
L 92.295026 189.737985 
L 92.908885 189.79262 
L 93.931983 190.466176 
L 94.750462 190.331398 
L 95.568941 189.926202 
L 96.59204 189.514706 
L 97.410519 189.647357 
L 98.842857 189.572411 
L 100.070575 190.467804 
L 100.684434 190.461062 
L 101.093674 190.202708 
L 101.502913 189.956234 
L 101.912153 190.064256 
L 102.321392 190.162403 
L 103.549111 189.536793 
L 104.16297 189.422435 
L 106.004547 189.864119 
L 106.413787 189.898312 
L 107.846125 190.307973 
L 108.664604 190.424928 
L 109.278463 190.468795 
L 110.096942 190.880388 
L 110.506181 190.715261 
L 111.52928 189.542728 
L 112.143139 188.918504 
L 112.961618 188.506063 
L 113.370857 188.510345 
L 113.984717 188.733274 
L 114.393956 189.200299 
L 114.803196 189.692756 
L 115.826294 190.102634 
L 116.235534 190.087222 
L 116.644773 189.860236 
L 117.258632 189.436877 
L 117.463252 189.366623 
L 117.667872 189.418788 
L 118.486351 190.192135 
L 118.89559 189.95891 
L 119.509449 189.350763 
L 120.123308 188.983783 
L 120.941787 188.242863 
L 121.964886 188.58444 
L 122.374125 188.066542 
L 122.987985 186.935095 
L 123.192604 186.840266 
L 124.420323 187.258665 
L 125.238802 188.022904 
L 125.648041 187.805621 
L 126.2619 187.303646 
L 126.46652 187.310339 
L 126.875759 187.662699 
L 127.489619 188.26733 
L 127.898858 188.263236 
L 128.512717 188.037534 
L 129.126576 187.450957 
L 129.535816 187.363328 
L 130.149675 187.561793 
L 130.968154 187.931574 
L 131.377393 187.64517 
L 131.786633 187.314689 
L 132.195872 187.216573 
L 133.218971 187.208324 
L 133.62821 187.098408 
L 134.03745 186.773702 
L 135.060549 185.515241 
L 136.083647 183.38759 
L 136.492887 182.89158 
L 136.902126 182.696818 
L 137.311366 182.593129 
L 137.720605 182.141358 
L 138.129844 180.961485 
L 138.743704 178.166328 
L 139.766802 172.576405 
L 140.380661 168.309842 
L 140.994521 161.968951 
L 141.60838 152.655019 
L 142.222239 138.522602 
L 142.631478 124.253177 
L 143.245338 94.238979 
L 143.859197 63.34976 
L 144.268436 52.622747 
L 144.473056 52.108052 
L 144.677676 54.986103 
L 145.086915 69.924936 
L 146.519253 139.507946 
L 147.133112 154.636598 
L 147.746972 164.718691 
L 148.360831 171.462807 
L 148.97469 176.334458 
L 149.588549 179.279729 
L 150.816267 183.820554 
L 152.043986 186.208432 
L 152.453225 186.491229 
L 152.862465 186.535996 
L 153.271704 187.027899 
L 153.885563 188.037635 
L 154.294803 188.272236 
L 154.908662 188.193415 
L 156.13638 187.514967 
L 156.341 187.602285 
L 156.75024 188.280336 
L 157.568718 189.885291 
L 158.387197 191.071049 
L 158.591817 191.037776 
L 158.796437 190.772494 
L 159.205676 189.726012 
L 159.819535 187.993793 
L 160.228775 187.439053 
L 160.842634 187.323519 
L 161.251874 187.136015 
L 161.661113 186.884311 
L 161.865733 186.935705 
L 162.274972 187.448453 
L 163.298071 189.264122 
L 163.502691 189.273547 
L 163.91193 188.694957 
L 164.321169 188.007381 
L 164.525789 187.868356 
L 164.935029 187.972927 
L 165.344268 188.107123 
L 165.753508 187.902127 
L 166.571986 187.045 
L 166.776606 186.962487 
L 166.981226 187.022215 
L 168.618184 188.420469 
L 169.027423 188.546573 
L 169.845902 188.925114 
L 170.459761 188.6949 
L 171.48286 188.186829 
L 171.892099 187.881664 
L 172.301339 187.894322 
L 173.119818 188.207699 
L 173.324437 188.075899 
L 173.733677 187.36271 
L 174.347536 186.181385 
L 174.756776 185.812171 
L 175.166015 185.746582 
L 175.779874 185.914228 
L 175.984494 185.85454 
L 176.393733 185.345582 
L 176.802973 184.663282 
L 177.007593 184.527919 
L 177.416832 184.669551 
L 178.030691 185.042136 
L 178.235311 185.025456 
L 179.05379 184.527792 
L 179.872269 184.796039 
L 180.281508 184.344173 
L 180.895367 183.523228 
L 181.304607 183.344191 
L 181.713846 183.496825 
L 182.532325 184.202213 
L 183.555424 184.527122 
L 184.169283 185.169128 
L 184.373903 185.086463 
L 184.783142 184.690042 
L 185.192382 184.649351 
L 185.806241 184.942029 
L 186.21548 185.313804 
L 186.62472 185.780701 
L 186.829339 185.769941 
L 187.852438 184.544008 
L 188.466297 184.311115 
L 189.898635 183.060726 
L 190.307875 182.794461 
L 190.717114 182.991526 
L 191.126354 183.197585 
L 191.535593 182.966383 
L 191.944833 182.7223 
L 192.149452 182.807859 
L 192.558692 183.467089 
L 193.58179 185.85301 
L 193.99103 186.327141 
L 194.400269 186.411775 
L 195.218748 186.421745 
L 196.037227 185.612537 
L 196.241847 185.7407 
L 196.651086 186.577806 
L 197.264945 187.851221 
L 197.878805 188.60137 
L 198.083424 188.648272 
L 198.288044 188.547061 
L 198.697284 187.923164 
L 199.925002 185.334119 
L 200.743481 184.343382 
L 201.15272 184.108124 
L 201.766579 184.169321 
L 202.175819 184.132456 
L 202.585058 183.808881 
L 204.426636 181.859588 
L 204.835875 180.702871 
L 205.654354 177.351956 
L 206.472833 172.863569 
L 207.086692 167.739033 
L 207.700552 160.759907 
L 209.13289 141.563576 
L 209.542129 138.81787 
L 209.951369 137.188771 
L 210.155988 136.819697 
L 210.360608 136.798861 
L 210.565228 137.10465 
L 210.974467 138.541413 
L 211.383707 141.03309 
L 211.997566 146.521054 
L 212.611425 152.00384 
L 213.020664 153.805692 
L 213.225284 153.886457 
L 213.429904 153.356827 
L 213.839143 150.64406 
L 214.657622 142.212351 
L 215.476101 134.227301 
L 215.885341 131.4259 
L 216.29458 129.927468 
L 216.4992 129.606894 
L 216.70382 129.565558 
L 216.908439 129.854775 
L 217.113059 130.561121 
L 217.522298 133.595339 
L 218.136158 141.846087 
L 219.977735 169.470663 
L 220.591594 175.376356 
L 221.000834 177.779136 
L 221.614693 179.967691 
L 222.637792 182.984971 
L 223.456271 184.382645 
L 224.274749 185.337022 
L 224.888609 186.949479 
L 225.297848 187.926612 
L 225.707088 188.26559 
L 226.116327 188.239354 
L 226.525566 187.9646 
L 227.344045 186.958276 
L 227.548665 187.022328 
L 227.957904 187.533653 
L 228.571764 189.158052 
L 228.981003 190.00486 
L 229.185623 190.120296 
L 229.390243 190.028863 
L 230.208721 189.027001 
L 230.617961 189.241909 
L 231.0272 189.519084 
L 231.43644 189.496343 
L 231.845679 189.101251 
L 232.254919 188.7059 
L 232.459538 188.693337 
L 233.278017 189.223946 
L 233.687257 188.834856 
L 234.096496 188.536061 
L 234.301116 188.662763 
L 235.324215 189.967162 
L 235.733454 190.130595 
L 236.142694 190.026224 
L 236.551933 189.682139 
L 237.165792 188.718593 
L 237.779651 187.876133 
L 238.188891 187.335373 
L 238.59813 186.467581 
L 239.211989 184.406382 
L 240.848947 178.602247 
L 241.053567 178.718385 
L 241.872046 180.327408 
L 242.076666 180.206137 
L 242.895145 179.095159 
L 243.099764 179.209706 
L 243.509004 180.10848 
L 244.941342 184.91996 
L 245.350581 185.401566 
L 245.555201 185.452002 
L 245.96444 185.18733 
L 246.37368 184.458785 
L 246.782919 183.061137 
L 248.010638 178.17055 
L 248.624497 176.333674 
L 249.033736 173.667523 
L 249.647596 166.128706 
L 251.079934 146.549136 
L 251.284553 145.44608 
L 251.489173 145.196877 
L 251.693793 145.5854 
L 252.103032 146.787036 
L 252.307652 146.948179 
L 252.512272 146.656236 
L 252.921511 145.513478 
L 253.126131 145.485352 
L 253.330751 146.37359 
L 253.73999 151.021967 
L 254.558469 161.852863 
L 254.967708 164.865863 
L 255.376948 166.705641 
L 255.786187 167.57553 
L 255.990807 167.656857 
L 256.195427 167.460821 
L 256.604666 166.225923 
L 257.013906 164.26499 
L 257.423145 161.511075 
L 257.832385 157.541759 
L 258.241624 151.041857 
L 258.855483 135.655447 
L 259.469342 114.053541 
L 260.492441 74.647603 
L 260.901681 68.633075 
L 261.924779 61.592396 
L 262.129399 61.202581 
L 262.334019 61.737745 
L 262.743258 65.382509 
L 263.357117 73.653239 
L 263.970976 85.491306 
L 264.789455 105.767089 
L 266.221793 146.463153 
L 266.835653 156.43129 
L 267.449512 162.862409 
L 267.858751 165.682531 
L 268.267991 167.020304 
L 268.67723 167.519898 
L 269.08647 167.728021 
L 269.291089 167.636124 
L 269.495709 167.328664 
L 269.904948 166.029844 
L 270.518808 162.821942 
L 270.928047 160.826221 
L 271.132667 160.306799 
L 271.337287 160.166762 
L 271.541906 160.317085 
L 271.951146 161.077443 
L 272.360385 162.473975 
L 273.178864 167.034519 
L 273.588104 168.890686 
L 274.406582 171.055443 
L 277.680498 179.373662 
L 278.089738 180.001958 
L 278.294357 180.089524 
L 278.498977 179.973926 
L 278.703597 179.620613 
L 279.112836 178.296635 
L 279.522076 176.920089 
L 279.726695 176.587454 
L 279.931315 176.578185 
L 280.749794 177.427651 
L 281.363653 177.276773 
L 281.568273 177.585745 
L 281.977512 179.109212 
L 283.000611 183.977434 
L 283.40985 185.177899 
L 283.61447 185.472039 
L 283.81909 185.535596 
L 284.228329 185.258231 
L 285.046808 184.472803 
L 285.251428 184.440971 
L 285.660667 184.729299 
L 286.888386 185.810292 
L 287.297625 185.725231 
L 287.706865 185.628115 
L 289.548442 186.31319 
L 290.162301 185.463711 
L 291.59464 182.82169 
L 292.003879 181.632595 
L 292.413118 179.685743 
L 292.822358 176.857148 
L 293.231597 172.655641 
L 294.050076 160.320279 
L 294.459316 155.38901 
L 294.663935 154.272164 
L 294.868555 154.239266 
L 295.073175 155.185661 
L 296.096274 162.75274 
L 296.300893 162.829593 
L 296.505513 162.390427 
L 297.323992 159.714364 
L 297.528612 159.838771 
L 297.733231 160.530412 
L 298.75633 166.132542 
L 298.96095 166.461304 
L 299.165569 166.473542 
L 299.370189 166.202761 
L 299.779429 164.784064 
L 300.188668 161.970461 
L 301.211767 152.762078 
L 301.416386 152.237604 
L 301.621006 152.357239 
L 302.030246 153.251405 
L 302.234865 153.326369 
L 302.439485 152.92946 
L 302.848725 150.668806 
L 303.871823 141.914302 
L 304.076443 141.818507 
L 304.281063 142.670282 
L 304.690302 146.571652 
L 305.304161 153.326669 
L 305.713401 155.759264 
L 306.12264 156.655967 
L 306.32726 156.967921 
L 306.53188 157.544401 
L 306.941119 160.082231 
L 307.964218 168.677932 
L 308.373457 170.877155 
L 308.782697 171.991328 
L 308.987316 171.963927 
L 309.191936 171.477728 
L 309.601175 169.259504 
L 310.010415 166.706341 
L 310.215035 165.962945 
L 310.419654 165.863981 
L 310.624274 166.442976 
L 311.442753 170.616055 
L 311.647373 170.965403 
L 311.851992 170.99984 
L 312.056612 170.7865 
L 312.465852 169.780526 
L 312.875091 168.485161 
L 313.079711 168.133615 
L 313.284331 168.22153 
L 313.48895 168.863842 
L 313.89819 171.532082 
L 314.921288 178.769705 
L 315.535148 181.621101 
L 315.944387 182.472338 
L 316.149007 182.464183 
L 316.762866 181.935627 
L 317.172105 182.024708 
L 318.195204 182.554935 
L 318.604443 182.590679 
L 319.218303 182.565527 
L 319.422922 182.695584 
L 319.832162 183.369504 
L 320.241401 184.165997 
L 320.446021 184.296074 
L 321.2645 183.942456 
L 321.878359 184.163373 
L 322.696838 184.155391 
L 323.515317 184.754687 
L 324.743035 184.807369 
L 325.356894 185.135224 
L 325.766134 185.243743 
L 326.175373 184.977801 
L 326.584613 184.72506 
L 326.993852 184.615406 
L 327.198472 184.338784 
L 327.607711 183.101935 
L 328.016951 181.114983 
L 328.63081 176.664952 
L 330.881627 157.301135 
L 331.495486 148.703052 
L 332.927824 123.579525 
L 333.132444 122.702016 
L 333.337064 123.094017 
L 333.541684 124.541148 
L 333.950923 129.596182 
L 334.769402 140.802184 
L 335.178641 143.752942 
L 335.792501 146.558821 
L 336.20174 149.892808 
L 337.224839 159.506579 
L 337.634078 161.573812 
L 338.043318 162.478795 
L 338.247937 162.526061 
L 338.452557 162.255172 
L 338.861796 160.756205 
L 339.271036 158.433354 
L 339.680275 154.958025 
L 340.294135 146.683499 
L 340.907994 135.205137 
L 342.340332 103.351503 
L 342.954191 81.251162 
L 343.56805 47.339834 
L 344.181909 11.990516 
L 344.386529 5.256414 
L 344.591149 3.00024 
L 344.795768 5.6603 
L 345.205008 23.351272 
L 346.228107 81.734907 
L 346.841966 104.221229 
L 347.865064 131.978041 
L 348.478924 144.553647 
L 349.092783 153.109667 
L 349.706642 158.171755 
L 350.115881 159.888897 
L 350.320501 160.260667 
L 350.525121 160.334522 
L 350.729741 160.140389 
L 350.93436 159.670371 
L 351.3436 157.653624 
L 351.752839 153.7867 
L 352.366698 144.723629 
L 353.185177 128.280733 
L 354.003656 107.324566 
L 354.617515 82.5285 
L 355.845234 19.840157 
L 356.049853 15.499733 
L 356.254473 14.986806 
L 356.459093 18.390982 
L 356.868332 34.818374 
L 358.096051 96.897613 
L 358.70991 114.300617 
L 359.733009 133.562709 
L 360.960727 153.314655 
L 361.574586 159.658434 
L 362.188445 163.944733 
L 362.597685 165.170716 
L 362.802304 165.231397 
L 363.006924 164.97677 
L 363.416164 163.758706 
L 363.825403 161.87161 
L 364.439262 157.586541 
L 365.257741 151.705407 
L 365.8716 147.391642 
L 366.48546 140.83666 
L 367.303938 130.737344 
L 367.508558 129.467876 
L 367.713178 129.225774 
L 367.917798 130.18437 
L 368.327037 135.715327 
L 369.554755 158.465498 
L 370.168615 165.61483 
L 370.987094 172.576019 
L 371.600953 176.378097 
L 372.214812 178.627237 
L 373.033291 180.855557 
L 373.64715 181.779425 
L 375.693347 184.905541 
L 376.102587 185.55318 
L 376.511826 185.862093 
L 376.921066 185.96739 
L 377.330305 185.854513 
L 377.739545 185.403321 
L 378.353404 183.962114 
L 379.376502 181.279587 
L 379.581122 181.079262 
L 379.785742 181.063712 
L 380.194981 181.395109 
L 381.4227 183.301917 
L 382.036559 183.758391 
L 383.059657 184.25845 
L 383.468897 184.294563 
L 383.878136 183.986085 
L 384.696615 183.039154 
L 385.719714 181.708432 
L 385.924334 181.533888 
L 386.128953 181.523025 
L 386.333573 181.719971 
L 386.947432 182.709099 
L 387.356672 182.778879 
L 387.765911 182.729556 
L 388.78901 182.828581 
L 388.993629 182.613312 
L 389.402869 181.658537 
L 390.630587 177.862504 
L 390.835207 177.707628 
L 391.039827 177.877384 
L 391.449066 178.939297 
L 392.676785 182.875717 
L 392.881404 182.921457 
L 393.699883 182.664675 
L 394.313742 182.733285 
L 394.927602 182.389082 
L 395.336841 181.659642 
L 395.74608 180.708513 
L 395.9507 180.443725 
L 396.35994 180.405029 
L 396.769179 180.603907 
L 397.178419 181.199689 
L 398.201517 183.741144 
L 399.633855 185.383365 
L 400.247714 186.224942 
L 401.475433 187.164663 
L 401.884672 187.880899 
L 402.293912 188.709321 
L 402.498531 188.905568 
L 402.703151 188.905243 
L 403.52163 188.47964 
L 404.135489 188.57761 
L 404.749348 188.872248 
L 405.158588 188.893054 
L 405.567827 189.144087 
L 405.977067 189.436468 
L 406.386306 189.43527 
L 406.795546 189.323107 
L 407.000165 189.460959 
L 407.614025 190.289605 
L 407.818644 190.341074 
L 408.227884 190.030156 
L 408.637123 189.779773 
L 410.274081 190.099626 
L 410.88794 190.273837 
L 411.09256 190.473846 
L 411.911039 191.899566 
L 412.115659 191.953912 
L 412.524898 191.709349 
L 413.752616 190.188444 
L 414.366476 189.864267 
L 415.594194 188.170819 
L 416.412673 187.368364 
L 416.821912 187.154271 
L 417.231152 186.39863 
L 418.049631 184.323548 
L 418.45887 183.850312 
L 419.277349 183.088318 
L 419.891208 182.04689 
L 420.709687 180.075009 
L 420.914307 179.979188 
L 421.118927 180.110723 
L 422.551265 181.922541 
L 422.755884 181.767487 
L 423.165124 180.758099 
L 423.778983 178.851077 
L 423.983603 178.689223 
L 424.188222 178.902566 
L 424.802082 180.652177 
L 425.82518 183.390871 
L 426.23442 183.808328 
L 426.643659 184.17497 
L 427.052899 185.136385 
L 427.462138 186.243635 
L 427.666758 186.520811 
L 427.871378 186.553598 
L 428.075997 186.368087 
L 428.894476 184.985038 
L 429.712955 184.599361 
L 431.145293 182.814431 
L 432.168392 182.157821 
L 432.577631 182.16834 
L 432.986871 182.365196 
L 433.39611 183.002172 
L 434.214589 184.708728 
L 434.419209 184.887683 
L 434.623829 184.910103 
L 435.033068 184.599378 
L 435.851547 183.633348 
L 436.056167 183.762468 
L 436.465406 184.52646 
L 437.079265 185.670735 
L 438.306984 187.313601 
L 439.125463 187.230244 
L 439.534702 187.80398 
L 440.148561 188.778788 
L 440.557801 188.929712 
L 442.399378 188.731992 
L 442.808618 188.768816 
L 443.217857 188.917529 
L 443.627097 188.739964 
L 444.036336 188.342944 
L 444.240956 188.2842 
L 444.650195 188.575387 
L 445.264054 189.470275 
L 445.877914 190.481763 
L 446.082533 190.573356 
L 446.491773 190.400557 
L 447.924111 189.580943 
L 448.33335 189.465985 
L 448.74259 189.034691 
L 449.970308 187.51721 
L 450.379548 187.186514 
L 450.584167 187.240887 
L 450.788787 187.469653 
L 451.198026 188.451085 
L 451.607266 189.662698 
L 451.811886 189.928802 
L 452.016505 189.913829 
L 452.425745 189.705479 
L 452.834984 189.824137 
L 453.244224 190.047886 
L 453.448843 190.052138 
L 453.858083 189.726112 
L 454.267322 189.257759 
L 454.471942 189.209381 
L 455.495041 189.717692 
L 456.518139 189.713606 
L 456.722759 189.71562 
L 457.131999 189.3923 
L 457.950477 188.436325 
L 458.768956 187.864422 
L 458.973576 187.837313 
L 459.792055 188.092682 
L 460.405914 188.005057 
L 460.815154 188.396817 
L 461.429013 189.096139 
L 461.633632 189.084307 
L 462.452111 188.528218 
L 462.861351 188.612549 
L 463.884449 189.07915 
L 464.498309 188.902533 
L 464.907548 189.22375 
L 465.930647 190.425912 
L 466.339886 190.467909 
L 467.158365 190.27256 
L 467.567605 190.833776 
L 467.976844 191.499745 
L 468.386083 191.751198 
L 469.409182 191.476748 
L 469.818422 191.014459 
L 470.227661 190.504767 
L 470.432281 190.436345 
L 471.04614 190.561173 
L 471.455379 190.462095 
L 471.864619 190.540706 
L 472.069239 190.447384 
L 472.478478 189.811459 
L 472.887717 189.148685 
L 473.296957 188.930053 
L 474.115436 188.826899 
L 474.524675 189.427321 
L 474.933915 190.154238 
L 475.138534 190.324801 
L 475.343154 190.315954 
L 475.957013 189.855516 
L 476.161633 190.006254 
L 476.775492 190.869351 
L 477.184732 190.990282 
L 478.20783 190.461294 
L 479.435549 190.486749 
L 480.458647 191.101921 
L 480.663267 190.837025 
L 481.686366 188.663264 
L 482.095605 188.425159 
L 482.709464 188.294356 
L 483.118704 188.382321 
L 483.527943 188.707279 
L 483.937183 189.628913 
L 484.551042 191.439672 
L 484.755662 191.619619 
L 485.164901 191.412994 
L 486.597239 190.51523 
L 487.006479 189.939184 
L 487.824958 188.355561 
L 488.029577 188.335682 
L 488.438817 188.748035 
L 489.461915 190.200453 
L 489.666535 190.211235 
L 490.075775 189.900502 
L 490.485014 189.615379 
L 490.894253 189.841575 
L 491.303493 190.108295 
L 491.508113 190.038433 
L 492.326592 189.077275 
L 492.531211 189.184426 
L 492.940451 189.952755 
L 493.34969 190.788946 
L 493.55431 190.876508 
L 493.963549 190.443481 
L 494.782028 189.051977 
L 494.986648 188.94642 
L 495.191268 189.027065 
L 495.600507 189.454838 
L 495.805127 189.498727 
L 496.623606 188.816647 
L 497.032845 189.032653 
L 497.442085 189.271647 
L 497.851324 189.105063 
L 498.260564 188.712152 
L 498.874423 187.915429 
L 499.079042 188.002163 
L 499.488282 188.870567 
L 500.102141 190.143173 
L 500.511381 190.544799 
L 500.716 190.558593 
L 501.534479 190.139034 
L 502.148338 190.330715 
L 502.557578 190.109347 
L 503.580676 188.898165 
L 504.194536 188.522878 
L 504.399155 188.569888 
L 504.808395 189.252665 
L 505.217634 190.009965 
L 505.626874 190.240366 
L 506.240733 190.298369 
L 506.649972 190.173821 
L 507.468451 190.264203 
L 507.877691 190.200098 
L 508.28693 190.587149 
L 508.900789 191.338357 
L 509.105409 191.397334 
L 509.514649 191.187475 
L 510.333127 190.529394 
L 510.946987 190.080234 
L 511.356226 189.817263 
L 512.583944 189.732831 
L 512.993184 190.156945 
L 513.811663 191.255607 
L 514.220902 191.480539 
L 514.630142 191.339969 
L 515.039381 191.014009 
L 515.448621 190.378271 
L 516.2671 188.812622 
L 516.880959 187.931397 
L 517.085578 187.861414 
L 517.290198 188.017898 
L 518.108677 189.288751 
L 518.722536 189.791376 
L 519.131776 190.129164 
L 519.745635 190.265397 
L 520.154874 190.267738 
L 520.564114 189.981548 
L 521.791832 188.777267 
L 522.201072 188.837573 
L 523.42879 188.491348 
L 523.838029 189.187724 
L 524.247269 190.011093 
L 524.656508 190.251208 
L 525.679607 190.053489 
L 525.884227 190.324268 
L 526.907325 192.513929 
L 527.111945 192.607775 
L 527.521185 192.359248 
L 528.339663 191.316269 
L 528.748903 190.476923 
L 529.362762 188.84096 
L 529.772002 188.468899 
L 530.99972 188.430189 
L 531.408959 188.292797 
L 531.613579 188.347326 
L 532.022819 188.839985 
L 532.841297 190.520066 
L 533.250537 190.689066 
L 534.273636 190.644685 
L 534.887495 190.118818 
L 535.501354 189.872847 
L 535.705974 189.935281 
L 536.319833 190.453665 
L 536.524452 190.441742 
L 537.138312 190.034531 
L 537.547551 190.159902 
L 537.956791 190.296842 
L 538.36603 190.011994 
L 539.389129 188.800698 
L 540.207608 188.118321 
L 540.821467 187.445086 
L 541.026086 187.44173 
L 541.844565 188.22858 
L 542.867664 188.154284 
L 543.890763 188.76576 
L 544.300002 188.783264 
L 544.504622 188.967298 
L 545.323101 190.225261 
L 545.52772 190.08441 
L 545.93696 189.113857 
L 546.550819 187.711471 
L 546.960059 187.445994 
L 547.573918 187.537107 
L 548.597016 187.764641 
L 549.006256 187.77121 
L 549.620115 188.038209 
L 550.438594 187.867611 
L 551.052453 188.433066 
L 551.461693 188.725053 
L 551.666312 188.66628 
L 552.280171 188.236607 
L 552.689411 188.598693 
L 552.894031 188.775297 
L 553.09865 188.794263 
L 553.50789 188.457542 
L 554.121749 187.89033 
L 554.326369 187.83866 
L 554.530988 187.944784 
L 555.963327 189.598539 
L 556.372566 189.887861 
L 556.986425 189.94144 
L 557.600284 190.363082 
L 557.804904 190.302637 
L 558.214144 189.827869 
L 558.828003 189.009634 
L 559.237242 188.925141 
L 560.055721 189.135541 
L 560.464961 189.162534 
L 561.07882 188.929565 
L 562.101918 188.511654 
L 562.511158 188.785286 
L 563.125017 189.700522 
L 563.943496 191.077281 
L 564.148116 191.168251 
L 564.557355 191.033431 
L 565.171214 190.621272 
L 565.580454 190.084805 
L 566.603552 187.983724 
L 566.808172 187.924556 
L 567.012792 188.068791 
L 567.422031 188.740312 
L 567.831271 189.522941 
L 568.03589 189.710431 
L 568.24051 189.608829 
L 569.058989 188.306879 
L 569.263609 188.298128 
L 569.672848 188.671973 
L 570.491327 189.776343 
L 571.105186 190.240568 
L 571.923665 190.744089 
L 573.356003 191.887348 
L 573.560623 191.830763 
L 575.197581 190.075597 
L 575.81144 190.128606 
L 576.220679 189.730859 
L 576.629919 189.366422 
L 576.834539 189.434797 
L 577.243778 190.059844 
L 578.266877 191.812557 
L 578.471496 191.922615 
L 578.676116 191.878157 
L 579.085356 191.489668 
L 579.494595 191.091435 
L 580.313074 190.759441 
L 580.722313 190.475679 
L 581.131553 190.517777 
L 581.540792 190.674894 
L 581.745412 190.635043 
L 581.950032 190.447534 
L 582.359271 189.623233 
L 582.97313 188.385908 
L 583.38237 188.223071 
L 584.814708 188.76162 
L 585.633187 188.847703 
L 586.247046 189.215175 
L 586.656286 189.115141 
L 587.270145 188.65316 
L 587.884004 188.185439 
L 588.702483 187.936586 
L 588.907103 188.020109 
L 589.316342 188.565531 
L 589.930201 189.58886 
L 590.339441 189.801809 
L 590.9533 189.456709 
L 591.362539 189.273935 
L 591.771779 189.342697 
L 592.181018 189.807586 
L 592.794877 190.649058 
L 593.204117 190.824096 
L 593.613356 190.540054 
L 594.841075 189.179484 
L 596.273413 188.785399 
L 596.682652 189.177563 
L 597.501131 190.266247 
L 597.910371 190.437688 
L 598.728849 190.222505 
L 599.342709 190.429512 
L 599.751948 190.460596 
L 600.570427 191.049344 
L 601.184286 190.910893 
L 601.798145 190.579383 
L 602.412005 189.890376 
L 602.616624 189.838204 
L 603.025864 190.145234 
L 603.435103 190.454846 
L 604.048962 190.704425 
L 604.867441 191.39205 
L 605.276681 191.259489 
L 605.89054 191.085544 
L 606.913639 190.791335 
L 607.732117 191.066042 
L 607.936737 190.99348 
L 609.369075 189.586275 
L 609.778315 189.110288 
L 610.392174 188.886826 
L 611.210653 187.934701 
L 611.619892 188.064739 
L 612.029132 188.201581 
L 614.484568 187.849187 
L 614.893808 188.070903 
L 615.916906 189.031097 
L 616.735385 189.424517 
L 617.144625 189.89489 
L 617.553864 190.402858 
L 617.963104 190.568149 
L 618.372343 190.330108 
L 619.190822 189.643387 
L 619.600062 189.4872 
L 619.804681 189.561161 
L 620.82778 190.552176 
L 621.237019 190.455558 
L 621.646259 190.059896 
L 622.464738 188.873498 
L 622.873977 187.961738 
L 623.487836 186.448605 
L 623.897076 185.92716 
L 624.101696 185.878948 
L 624.306315 186.039842 
L 625.124794 187.191082 
L 625.738653 187.580049 
L 626.352513 188.491256 
L 626.966372 189.374361 
L 627.580231 189.804983 
L 628.60333 190.534904 
L 629.012569 190.397501 
L 629.421808 190.124822 
L 629.831048 189.574232 
L 630.240287 188.902396 
L 630.444907 188.714658 
L 630.649527 188.6862 
L 631.058766 189.082933 
L 631.672625 190.00587 
L 631.877245 190.126498 
L 632.081865 190.087844 
L 632.695724 189.643418 
L 633.104964 189.781478 
L 633.923442 190.258515 
L 634.128062 190.190652 
L 634.741921 189.647645 
L 634.946541 189.672776 
L 635.76502 190.256156 
L 636.378879 190.330478 
L 636.788119 190.037795 
L 637.401978 189.509549 
L 637.811217 189.414495 
L 638.425076 189.61377 
L 638.834316 189.748676 
L 639.243555 189.584814 
L 639.652795 189.331366 
L 639.857415 189.324749 
L 640.266654 189.626834 
L 640.880513 190.20029 
L 641.289753 190.357053 
L 641.903612 190.44778 
L 642.722091 190.603545 
L 643.745189 190.548168 
L 644.768288 190.180556 
L 645.382147 190.103116 
L 646.405246 189.561783 
L 648.451443 189.848745 
L 649.269922 189.236214 
L 649.883781 189.445768 
L 650.49764 189.287746 
L 651.316119 189.396565 
L 652.134598 188.868087 
L 652.543838 188.414223 
L 653.362316 187.250227 
L 653.771556 187.051206 
L 653.976176 187.099543 
L 654.385415 187.610943 
L 654.794655 188.206765 
L 655.203894 188.356353 
L 656.022373 188.252006 
L 656.636232 188.266783 
L 657.045472 188.571611 
L 657.659331 189.185257 
L 658.06857 189.284213 
L 658.47781 189.051218 
L 659.296289 188.328332 
L 660.319387 187.649513 
L 660.524007 187.722328 
L 660.933246 188.222548 
L 661.342486 188.752594 
L 662.570204 189.86987 
L 663.184063 190.472287 
L 663.593303 190.540481 
L 664.002542 190.469631 
L 664.411782 190.198002 
L 665.025641 189.621187 
L 665.230261 189.5634 
L 665.6395 189.782818 
L 666.253359 190.11096 
L 666.867218 190.236885 
L 667.276458 190.231087 
L 667.685697 190.503772 
L 668.094937 190.86237 
L 668.504176 190.961537 
L 668.913416 190.769816 
L 669.731895 189.990218 
L 670.141134 190.136705 
L 670.754993 190.587851 
L 671.368852 191.240326 
L 671.778092 191.385992 
L 672.187331 191.326668 
L 672.596571 191.016558 
L 673.41505 190.11769 
L 673.824289 190.01754 
L 675.665867 190.338243 
L 676.279726 190.612152 
L 676.688965 190.799929 
L 677.098205 190.693596 
L 677.916684 190.187577 
L 678.939782 189.848532 
L 679.758261 189.143208 
L 679.962881 189.122536 
L 680.167501 189.231365 
L 680.57674 189.987637 
L 681.190599 191.416632 
L 681.599839 191.679663 
L 682.009078 191.478479 
L 682.827557 190.620374 
L 683.032177 190.663256 
L 683.646036 191.124629 
L 684.055276 190.863374 
L 685.692233 189.543453 
L 686.101473 189.412833 
L 686.715332 189.345598 
L 687.329191 189.143631 
L 687.533811 189.197216 
L 687.94305 189.727637 
L 688.35229 190.287766 
L 688.761529 190.549336 
L 689.170769 190.604101 
L 690.807726 189.839125 
L 691.216966 189.517885 
L 691.421586 189.466876 
L 691.626205 189.589958 
L 692.649304 191.239007 
L 693.263163 191.379165 
L 693.672403 191.250719 
L 694.081642 190.888822 
L 694.900121 189.636481 
L 695.30936 189.068153 
L 695.92322 188.510527 
L 696.946318 186.72183 
L 697.150938 186.670893 
L 697.355558 186.791712 
L 697.764797 187.54048 
L 698.583276 189.343083 
L 698.992516 189.923022 
L 699.401755 190.148619 
L 699.810994 190.313669 
L 700.424854 190.846402 
L 700.834093 190.901828 
L 701.243333 190.805303 
L 701.857192 190.242627 
L 702.471051 189.706197 
L 703.49415 189.376448 
L 704.312628 188.729164 
L 704.517248 188.575887 
L 704.721868 188.638098 
L 705.131107 189.402049 
L 705.744967 190.491441 
L 705.949586 190.621931 
L 706.154206 190.597394 
L 706.358826 190.407552 
L 706.768065 189.541414 
L 707.381924 187.919817 
L 707.791164 187.501715 
L 708.200403 187.456758 
L 709.428122 187.588929 
L 709.632741 187.381427 
L 710.86046 185.167352 
L 711.269699 184.642279 
L 711.883558 182.809048 
L 712.497418 180.458162 
L 713.520516 175.925717 
L 713.929756 172.614937 
L 714.543615 165.158002 
L 715.362094 151.171615 
L 716.794432 122.304601 
L 717.203671 118.289796 
L 717.408291 117.868324 
L 717.612911 118.542147 
L 718.02215 122.870433 
L 718.636009 134.654912 
L 719.659108 154.496288 
L 720.477587 164.836667 
L 721.091446 169.745512 
L 722.933024 180.245023 
L 723.342263 181.850072 
L 723.956122 183.323926 
L 724.365362 183.931134 
L 724.774601 184.191682 
L 725.183841 184.021345 
L 725.7977 183.76257 
L 726.206939 183.856946 
L 726.616179 184.185555 
L 727.230038 185.15846 
L 727.843897 186.114321 
L 728.866996 187.158595 
L 729.276235 187.581733 
L 730.503953 187.960099 
L 731.731672 187.462428 
L 732.140911 187.824205 
L 732.95939 188.793057 
L 733.16401 188.823863 
L 733.36863 188.664508 
L 734.596348 186.967935 
L 735.005587 187.175595 
L 735.824066 187.847908 
L 736.437926 188.006244 
L 737.051785 187.879479 
L 737.461024 187.620224 
L 737.870264 186.861315 
L 738.279503 186.106078 
L 738.484123 185.979084 
L 738.893362 186.129723 
L 739.507221 186.343771 
L 739.916461 186.152259 
L 740.53032 185.724971 
L 741.144179 185.749802 
L 741.553419 185.968696 
L 741.962658 186.642711 
L 743.190377 189.279935 
L 743.599616 189.47554 
L 744.213475 189.572298 
L 745.031954 188.899737 
L 745.850433 188.880472 
L 746.668912 188.420651 
L 747.078151 188.51367 
L 747.89663 189.06673 
L 748.715109 188.799033 
L 749.124349 189.101712 
L 749.738208 189.694953 
L 750.147447 189.831627 
L 750.556687 189.765739 
L 751.170546 189.516437 
L 751.989025 189.586219 
L 752.807504 189.248159 
L 753.625983 188.324503 
L 753.830602 188.294156 
L 754.239842 188.593562 
L 755.058321 189.407939 
L 756.081419 190.20784 
L 756.695279 190.181112 
L 757.309138 189.86798 
L 757.718377 189.328547 
L 758.127617 188.827186 
L 758.332236 188.848328 
L 759.559955 189.834148 
L 760.173814 190.407004 
L 760.787673 190.912924 
L 761.401532 190.928903 
L 762.220011 190.760007 
L 762.629251 190.708068 
L 763.03849 190.261677 
L 763.44773 189.855021 
L 763.856969 189.922548 
L 765.289307 190.821124 
L 765.493927 190.663761 
L 766.517025 189.063643 
L 766.926265 189.0615 
L 767.540124 189.458649 
L 767.949363 189.960788 
L 768.358603 190.481933 
L 768.563223 190.480755 
L 768.972462 190.064549 
L 769.586321 189.42429 
L 770.81404 188.548972 
L 771.018659 188.665928 
L 772.041758 189.812791 
L 772.655617 189.637522 
L 773.269476 190.00205 
L 773.678716 189.745868 
L 774.701814 188.759664 
L 775.315674 188.495451 
L 775.929533 188.517379 
L 776.338772 188.690105 
L 777.566491 189.68497 
L 777.77111 189.697521 
L 778.18035 189.401014 
L 778.794209 188.831597 
L 779.408068 188.731509 
L 779.817308 188.791592 
L 780.431167 189.07257 
L 781.045026 188.976138 
L 782.477364 189.388002 
L 783.500463 189.052366 
L 783.909702 189.326137 
L 784.728181 190.407138 
L 785.137421 190.384652 
L 785.54666 190.287147 
L 786.365139 190.502296 
L 787.388238 191.028885 
L 787.797477 190.874101 
L 788.206716 190.657951 
L 788.411336 190.737327 
L 789.025195 191.428541 
L 789.229815 191.462821 
L 789.434435 191.306579 
L 790.048294 190.143488 
L 790.457533 189.499524 
L 790.866773 189.268133 
L 791.276012 189.559243 
L 791.685252 189.799131 
L 792.094491 189.723078 
L 792.70835 189.486167 
L 793.936069 189.545413 
L 794.345308 189.882187 
L 795.163787 190.8757 
L 795.368407 190.89095 
L 795.777646 190.426061 
L 796.800745 188.347296 
L 797.414604 187.792302 
L 797.823844 187.338023 
L 798.028463 187.331807 
L 798.437703 187.831719 
L 798.846942 188.403506 
L 799.051562 188.461975 
L 799.665421 188.370083 
L 800.074661 188.819831 
L 800.68852 189.572789 
L 801.302379 190.064749 
L 802.120858 190.228992 
L 803.143957 190.72288 
L 803.757816 191.557536 
L 804.167055 191.720923 
L 804.371675 191.708843 
L 804.576295 191.570333 
L 805.804013 189.912265 
L 806.622492 189.767952 
L 807.236351 189.110098 
L 807.440971 189.095381 
L 807.85021 189.410845 
L 808.25945 189.684961 
L 808.873309 189.88305 
L 809.691788 190.446821 
L 809.896407 190.356414 
L 810.919506 189.248599 
L 811.328746 189.290008 
L 811.533365 189.192075 
L 811.942605 188.551002 
L 812.351844 187.821092 
L 812.556464 187.733356 
L 812.965703 188.005935 
L 813.374943 188.26305 
L 814.602661 188.482493 
L 815.21652 188.84933 
L 815.62576 188.785269 
L 816.444239 188.142356 
L 816.853478 188.349871 
L 817.262718 188.646888 
L 817.671957 188.684761 
L 818.285816 188.672199 
L 818.695056 189.03396 
L 819.104295 189.417915 
L 819.922774 189.776591 
L 820.945873 190.673319 
L 821.355112 190.736012 
L 821.764352 190.49847 
L 822.378211 189.922355 
L 822.582831 189.933196 
L 823.19669 190.336094 
L 823.401309 190.301881 
L 824.219788 189.739789 
L 824.424408 190.005734 
L 825.242887 191.858899 
L 825.447507 191.919351 
L 825.856746 191.487466 
L 826.675225 190.421577 
L 827.084465 190.000032 
L 827.289084 189.929822 
L 828.312183 190.212641 
L 828.721422 189.697436 
L 829.130662 188.986115 
L 829.539901 188.736721 
L 829.949141 188.945493 
L 830.35838 189.688613 
L 830.972239 191.153909 
L 831.381479 191.483815 
L 831.586099 191.39611 
L 831.995338 190.75585 
L 832.813817 189.262441 
L 833.018437 189.133424 
L 833.223056 189.220282 
L 833.836916 189.986027 
L 834.041535 190.007588 
L 834.450775 189.651473 
L 835.678493 188.337013 
L 836.087733 188.15185 
L 837.520071 188.133751 
L 838.13393 187.63092 
L 838.33855 187.835158 
L 839.770888 190.807221 
L 839.975507 190.849013 
L 840.384747 190.488639 
L 840.998606 189.779464 
L 841.203226 189.883031 
L 842.021705 191.297699 
L 842.226324 191.343016 
L 842.635564 191.071145 
L 843.249423 190.634392 
L 843.863282 190.416456 
L 844.272522 189.882592 
L 845.091 188.190376 
L 845.50024 188.014685 
L 845.909479 187.952485 
L 846.318719 187.721605 
L 846.523339 187.745091 
L 847.341817 188.299133 
L 847.751057 188.48868 
L 849.183395 189.747367 
L 850.001874 190.014293 
L 850.411113 189.633457 
L 851.843451 187.49596 
L 852.457311 187.425771 
L 852.86655 187.232854 
L 853.480409 186.538006 
L 853.889649 186.416138 
L 854.298888 186.495449 
L 854.708128 187.107275 
L 855.935846 189.916697 
L 856.345085 190.057888 
L 856.754325 189.93841 
L 857.163564 189.379453 
L 857.777424 188.304903 
L 858.186663 188.088969 
L 858.595902 188.396449 
L 858.800522 188.546236 
L 859.209762 188.471072 
L 859.414381 188.443961 
L 859.619001 188.578357 
L 860.6421 189.918766 
L 861.869818 189.695571 
L 862.483677 189.674251 
L 862.892917 189.621644 
L 863.302156 189.292805 
L 864.529875 187.816903 
L 865.143734 186.802856 
L 865.348353 186.668841 
L 865.552973 186.698784 
L 865.962213 187.143737 
L 866.780692 188.717413 
L 866.985311 188.783914 
L 868.622269 188.130476 
L 869.236128 188.066285 
L 869.645368 187.537614 
L 870.463847 185.895164 
L 870.668466 185.880385 
L 870.873086 186.137877 
L 871.691565 187.968662 
L 871.896185 188.078939 
L 872.100804 187.900597 
L 872.919283 186.501587 
L 873.533143 186.05899 
L 874.556241 185.629441 
L 875.1701 185.844842 
L 875.37472 185.739836 
L 875.78396 184.950919 
L 876.193199 184.039287 
L 876.602438 183.708944 
L 877.625537 183.326635 
L 878.239396 182.703794 
L 879.262495 182.266496 
L 879.467115 182.140278 
L 879.671734 182.159238 
L 880.080974 182.652883 
L 880.490213 183.184432 
L 880.899453 183.351426 
L 882.127171 183.433732 
L 882.536411 183.560577 
L 882.94565 183.406108 
L 883.354889 182.614527 
L 883.968749 181.069772 
L 884.787227 179.848642 
L 885.401087 179.223748 
L 886.219566 178.650773 
L 886.424185 178.683884 
L 887.447284 179.53194 
L 888.061143 179.46305 
L 888.675002 179.66393 
L 889.084242 179.159523 
L 889.493481 178.677931 
L 889.698101 178.744317 
L 890.31196 179.448906 
L 890.51658 179.404511 
L 890.925819 178.923566 
L 891.948918 177.165242 
L 893.381256 174.275209 
L 895.222834 170.305582 
L 895.632073 169.833357 
L 895.836693 169.891803 
L 896.450552 170.409296 
L 896.859791 170.420015 
L 897.269031 170.145327 
L 897.67827 169.520653 
L 898.292129 168.090652 
L 898.905989 166.063385 
L 900.133707 160.289015 
L 900.542946 157.410635 
L 901.156806 150.842281 
L 901.566045 146.431937 
L 901.770665 145.586715 
L 901.975285 146.017611 
L 902.384524 149.307768 
L 902.998383 154.214765 
L 903.407623 155.718439 
L 903.816862 156.27416 
L 904.226102 156.301981 
L 904.839961 156.184109 
L 905.04458 156.29984 
L 905.45382 156.97657 
L 905.863059 157.63273 
L 906.067679 157.63681 
L 906.476919 157.197118 
L 906.886158 156.751938 
L 907.090778 156.713619 
L 907.909257 157.032242 
L 908.727736 156.592861 
L 909.341595 156.861667 
L 909.750834 156.265274 
L 910.160074 155.674183 
L 910.978553 155.195001 
L 912.001651 153.792077 
L 912.410891 153.882397 
L 912.82013 154.397281 
L 914.047848 157.040543 
L 914.252468 157.134717 
L 914.457088 157.036698 
L 914.866327 156.26718 
L 915.684806 153.753042 
L 916.094046 153.291812 
L 916.298665 153.410998 
L 916.503285 153.938283 
L 916.912525 156.163101 
L 917.526384 159.55495 
L 917.731004 160.01659 
L 917.935623 160.062325 
L 918.140243 159.768686 
L 918.549482 158.639657 
L 918.958722 157.009064 
L 919.367961 154.098314 
L 919.777201 149.003192 
L 920.39106 136.889107 
L 920.800299 129.986222 
L 921.004919 129.370412 
L 921.209539 131.011831 
L 921.823398 142.718915 
L 922.437257 152.575101 
L 922.846497 156.374503 
L 923.255736 158.614608 
L 923.664976 159.893479 
L 924.278835 160.971429 
L 924.688074 161.491756 
L 925.097314 161.59083 
L 925.506553 161.18298 
L 925.915793 160.663057 
L 926.120412 160.663957 
L 926.938891 161.412419 
L 927.348131 161.383322 
L 927.55275 161.275429 
L 927.96199 160.671565 
L 928.371229 159.894932 
L 928.575849 159.716104 
L 928.780469 159.733821 
L 929.189708 160.139491 
L 929.803567 161.202897 
L 930.212807 161.955052 
L 930.417427 162.152044 
L 930.622046 162.177789 
L 931.031286 161.814616 
L 931.849765 160.661844 
L 932.259004 160.501298 
L 932.668244 160.780443 
L 933.282103 161.45638 
L 934.714441 164.277776 
L 934.919061 164.253361 
L 935.12368 164.025203 
L 935.53292 163.109769 
L 936.146779 161.737621 
L 936.760638 161.019198 
L 936.965258 160.95718 
L 937.169878 161.041466 
L 937.374497 161.337971 
L 937.783737 162.647134 
L 938.397596 164.811006 
L 939.625314 167.35403 
L 940.034554 167.70242 
L 940.443793 167.539466 
L 941.057652 167.14392 
L 941.262272 167.136321 
L 941.671512 167.521855 
L 942.080751 168.021856 
L 942.48999 168.160022 
L 943.10385 168.034216 
L 943.717709 168.302811 
L 944.331568 168.761327 
L 944.945427 169.695698 
L 945.968526 171.673688 
L 946.787005 173.42166 
L 947.196244 174.27707 
L 947.605484 174.644265 
L 948.014723 174.515081 
L 948.219343 174.453484 
L 948.423963 174.559269 
L 948.628582 174.886278 
L 949.037822 176.142906 
L 949.651681 178.463502 
L 949.856301 178.9223 
L 950.06092 179.050873 
L 950.26554 178.870387 
L 950.879399 177.913219 
L 951.697878 177.388798 
L 952.516357 176.520962 
L 952.925597 176.514939 
L 953.334836 176.95383 
L 954.562554 179.116932 
L 956.199512 181.140477 
L 956.404132 181.21698 
L 956.813371 181.016325 
L 957.222611 180.807586 
L 957.63185 180.858788 
L 958.04109 181.229592 
L 958.450329 181.705226 
L 958.859569 181.908064 
L 959.268808 181.815334 
L 959.678048 181.256883 
L 960.087287 180.675721 
L 960.291907 180.655688 
L 960.496526 180.940768 
L 960.905766 182.261191 
L 961.519625 184.166359 
L 961.928864 184.633069 
L 963.565822 185.96444 
L 963.975062 186.054064 
L 964.588921 185.736153 
L 965.816639 185.224671 
L 966.430498 185.236729 
L 966.635118 185.335133 
L 967.044358 185.926437 
L 967.658217 187.136384 
L 967.862837 187.236835 
L 968.067456 187.105922 
L 968.476696 186.384116 
L 969.090555 185.129437 
L 969.295175 184.915637 
L 969.499794 184.896406 
L 969.909034 185.187844 
L 970.727513 186.033369 
L 971.136752 185.907493 
L 971.955231 185.293018 
L 972.56909 185.15306 
L 973.182949 184.684464 
L 973.387569 184.742679 
L 973.796809 185.290759 
L 974.206048 185.865996 
L 974.615288 186.060681 
L 975.024527 185.737003 
L 975.433766 185.277314 
L 975.638386 185.167711 
L 975.843006 185.187556 
L 976.047626 185.368426 
L 976.456865 186.149808 
L 977.070724 187.305777 
L 977.479964 187.618159 
L 978.912302 188.12564 
L 980.34464 188.795548 
L 981.367739 189.894885 
L 982.390837 189.900041 
L 983.004696 189.189303 
L 983.413936 188.486035 
L 984.232415 186.922703 
L 984.641654 186.390592 
L 984.846274 186.337026 
L 985.255513 186.683178 
L 986.073992 187.41837 
L 986.687851 187.70935 
L 987.91557 188.032545 
L 988.324809 188.00837 
L 988.734049 187.842524 
L 989.143288 187.962558 
L 989.552528 188.257698 
L 989.961767 188.996123 
L 990.575626 190.371603 
L 990.780246 190.513538 
L 990.984866 190.489876 
L 991.598725 189.875134 
L 992.007964 189.595141 
L 992.417204 189.654981 
L 992.826443 189.647356 
L 993.644922 189.213371 
L 994.054162 189.253401 
L 994.463401 189.445168 
L 994.872641 189.304304 
L 995.895739 188.496623 
L 996.918838 188.885808 
L 997.328077 188.652807 
L 997.737317 188.425693 
L 998.146556 188.517057 
L 998.555796 188.958992 
L 999.169655 189.608843 
L 999.578894 189.757257 
L 999.988134 189.609045 
L 1000.601993 188.959647 
L 1001.011232 188.522605 
L 1001.215852 188.438499 
L 1001.625091 188.661322 
L 1002.238951 189.007543 
L 1002.64819 188.996538 
L 1003.262049 188.641813 
L 1003.671289 188.646624 
L 1003.875908 188.525037 
L 1004.694387 187.4458 
L 1006.535965 188.847491 
L 1007.149824 188.732663 
L 1007.354444 188.90469 
L 1008.172923 190.039122 
L 1008.991402 190.517229 
L 1009.605261 191.030546 
L 1009.809881 191.033982 
L 1010.0145 190.886708 
L 1010.42374 190.15816 
L 1011.242219 188.095159 
L 1011.446838 187.939865 
L 1011.651458 188.028394 
L 1012.060698 188.692032 
L 1012.674557 189.666232 
L 1013.288416 190.118097 
L 1013.697655 190.171456 
L 1014.925374 190.084377 
L 1015.539233 190.27826 
L 1016.971571 189.837511 
L 1017.38081 189.654231 
L 1018.199289 188.90279 
L 1019.631627 189.094797 
L 1020.040867 189.233456 
L 1021.063966 190.111859 
L 1021.473205 189.641565 
L 1022.087064 188.766643 
L 1022.496304 188.508715 
L 1023.110163 188.35019 
L 1023.519402 188.165352 
L 1023.724022 188.211458 
L 1024.133261 188.738821 
L 1024.747121 189.689175 
L 1025.15636 190.010579 
L 1025.36098 189.956506 
L 1025.770219 189.39615 
L 1026.384078 188.375401 
L 1026.588698 188.220119 
L 1026.997938 188.305776 
L 1027.407177 188.357256 
L 1027.816417 188.38411 
L 1028.225656 188.959067 
L 1028.839515 190.349806 
L 1029.044135 190.506786 
L 1029.248755 190.411609 
L 1029.862614 189.867878 
L 1030.271853 189.967614 
L 1030.681093 189.710488 
L 1031.090332 189.491022 
L 1032.113431 189.77632 
L 1032.72729 189.613398 
L 1033.341149 189.287078 
L 1033.750389 189.090051 
L 1034.159628 189.354969 
L 1034.568868 189.608286 
L 1035.182727 189.184677 
L 1035.387346 189.263871 
L 1036.819685 190.726499 
L 1037.024304 190.788625 
L 1037.228924 190.714626 
L 1037.638163 190.019723 
L 1038.661262 187.417697 
L 1038.865882 187.143312 
L 1039.070501 187.157989 
L 1039.479741 188.017426 
L 1040.29822 190.148061 
L 1040.707459 190.789093 
L 1041.935178 191.672653 
L 1042.344417 191.543166 
L 1043.367516 190.952125 
L 1043.776755 190.346232 
L 1044.390614 189.287544 
L 1044.595234 189.158835 
L 1044.799854 189.179957 
L 1045.209093 189.627014 
L 1045.618333 190.276647 
L 1045.822952 190.405276 
L 1046.027572 190.297707 
L 1046.846051 188.958238 
L 1047.050671 189.002123 
L 1047.66453 189.429481 
L 1048.278389 189.495577 
L 1048.892248 189.611848 
L 1049.506108 190.164341 
L 1049.710727 190.114609 
L 1050.324586 189.617269 
L 1051.143065 189.367686 
L 1051.756925 188.818235 
L 1051.961544 188.853101 
L 1052.370784 189.275123 
L 1052.780023 189.762491 
L 1053.189263 189.984786 
L 1053.598502 189.940376 
L 1054.007742 189.542543 
L 1054.416981 189.00271 
L 1054.621601 188.926533 
L 1055.44008 189.254645 
L 1056.667798 188.483571 
L 1057.077037 188.5461 
L 1057.486277 188.84369 
L 1057.690897 188.837452 
L 1058.100136 188.35317 
L 1058.713995 187.52379 
L 1058.918615 187.470144 
L 1059.327854 187.723495 
L 1059.737094 188.014121 
L 1060.760193 188.444043 
L 1061.578671 189.995229 
L 1061.783291 190.173673 
L 1061.987911 190.191238 
L 1062.60177 189.686759 
L 1063.215629 189.096689 
L 1063.829488 188.518409 
L 1064.238728 188.550736 
L 1064.647967 188.800365 
L 1065.261827 189.548556 
L 1066.284925 191.003061 
L 1066.694165 190.93016 
L 1067.512644 190.441317 
L 1067.921883 190.67174 
L 1068.331122 190.874502 
L 1068.535742 190.746727 
L 1068.944982 189.95145 
L 1069.558841 188.730935 
L 1069.763461 188.589222 
L 1069.96808 188.632172 
L 1070.37732 189.216433 
L 1070.786559 189.862629 
L 1071.195799 190.030729 
L 1071.605038 190.03807 
L 1072.218897 190.493054 
L 1073.037376 191.095393 
L 1073.446616 190.753317 
L 1074.878954 188.822071 
L 1075.083573 188.85719 
L 1075.492813 189.228059 
L 1076.311292 190.188661 
L 1076.925151 190.167163 
L 1077.53901 190.210814 
L 1077.94825 190.522552 
L 1078.766728 191.241826 
L 1078.971348 191.291617 
L 1079.994447 191.017753 
L 1080.403686 190.916995 
L 1080.812926 190.475741 
L 1081.836024 188.81076 
L 1082.245264 188.72418 
L 1082.654503 188.842165 
L 1083.268362 189.350849 
L 1083.882222 190.012887 
L 1085.10994 191.848326 
L 1085.519179 192.04264 
L 1085.928419 191.89177 
L 1086.746898 191.098104 
L 1087.360757 191.050137 
L 1087.565377 191.02054 
L 1087.974616 190.613827 
L 1088.588475 189.911546 
L 1089.816194 189.044249 
L 1090.430053 188.636196 
L 1091.043912 188.645215 
L 1091.657771 188.65843 
L 1091.862391 188.446025 
L 1092.47625 187.330861 
L 1092.68087 187.207838 
L 1093.294729 187.274536 
L 1093.703969 187.173098 
L 1094.113208 187.411569 
L 1094.931687 188.337361 
L 1095.136307 188.319535 
L 1095.750166 187.58584 
L 1096.773264 186.36967 
L 1097.182504 186.264661 
L 1097.387124 186.354121 
L 1097.796363 186.925353 
L 1098.819462 189.480605 
L 1099.228701 189.696099 
L 1100.04718 189.810017 
L 1100.661039 190.476257 
L 1101.070279 190.482014 
L 1101.684138 190.208341 
L 1102.093377 190.206141 
L 1102.502617 189.84491 
L 1103.525715 188.341666 
L 1103.934955 188.395781 
L 1104.548814 188.453291 
L 1104.958054 188.445913 
L 1105.367293 188.827883 
L 1106.390392 190.054057 
L 1106.799631 190.497125 
L 1107.004251 190.545033 
L 1107.41349 190.302527 
L 1108.436589 189.273943 
L 1109.255068 189.244897 
L 1109.664307 189.420552 
L 1110.278166 189.884834 
L 1111.505885 190.350799 
L 1113.347462 190.331652 
L 1113.961322 190.654832 
L 1114.7798 190.923497 
L 1115.39366 191.269736 
L 1116.212138 191.084099 
L 1116.621378 191.145118 
L 1117.030617 190.879117 
L 1118.872195 189.015217 
L 1120.304533 189.799843 
L 1121.327632 191.790731 
L 1121.532251 191.989699 
L 1121.736871 192.031208 
L 1121.941491 191.875754 
L 1122.35073 191.061947 
L 1122.75997 190.152187 
L 1122.964589 189.91955 
L 1123.373829 189.892659 
L 1123.987688 190.184495 
L 1124.396928 190.331732 
L 1124.601547 190.125305 
L 1125.215406 188.888044 
L 1125.420026 188.762053 
L 1125.624646 188.870457 
L 1127.056984 190.6416 
L 1127.466223 190.821521 
L 1127.875463 190.728276 
L 1128.489322 190.334595 
L 1129.103181 190.375148 
L 1129.512421 189.994293 
L 1130.535519 188.308247 
L 1130.740139 188.289931 
L 1131.149379 188.605321 
L 1131.558618 188.907698 
L 1131.967857 188.794504 
L 1132.786336 188.166497 
L 1133.400196 188.112798 
L 1134.423294 187.606798 
L 1134.832534 187.946256 
L 1135.446393 188.902769 
L 1136.264872 190.481041 
L 1137.28797 191.598754 
L 1137.90183 192.137647 
L 1138.106449 192.183618 
L 1138.311069 192.061586 
L 1138.720308 191.329059 
L 1139.538787 189.622721 
L 1139.948027 189.096701 
L 1140.152647 189.020897 
L 1140.561886 189.225861 
L 1141.175745 189.634518 
L 1141.584985 189.658829 
L 1141.994224 189.291714 
L 1142.812703 188.099075 
L 1143.221942 187.868184 
L 1143.631182 187.915729 
L 1145.881999 188.810275 
L 1146.700478 188.761309 
L 1147.109717 189.041405 
L 1148.951295 190.812552 
L 1149.769774 190.869637 
L 1150.588253 191.251822 
L 1150.997492 190.802468 
L 1151.611351 190.130888 
L 1152.020591 190.084378 
L 1152.83907 190.394229 
L 1153.248309 190.202388 
L 1153.657548 189.913746 
L 1154.680647 189.720868 
L 1155.089887 189.028169 
L 1155.703746 187.849052 
L 1156.112985 187.532774 
L 1156.522225 187.392195 
L 1156.726844 187.42122 
L 1156.931464 187.628298 
L 1157.545323 188.691654 
L 1157.954563 188.843158 
L 1158.568422 188.621559 
L 1158.977661 188.556675 
L 1159.591521 188.89718 
L 1160.409999 189.517595 
L 1160.614619 189.483987 
L 1161.023859 189.047486 
L 1161.433098 188.530304 
L 1162.456197 187.764976 
L 1162.865436 187.933148 
L 1163.479295 188.313014 
L 1163.888535 188.245268 
L 1164.502394 187.986864 
L 1164.707014 188.052425 
L 1165.116253 188.612633 
L 1166.139352 190.487447 
L 1166.548591 190.559089 
L 1167.16245 190.586249 
L 1167.77631 190.682806 
L 1169.413267 190.232253 
L 1170.027127 190.306841 
L 1170.436366 190.645113 
L 1171.254845 191.618148 
L 1171.664084 191.826023 
L 1172.073324 191.615679 
L 1172.482563 191.458832 
L 1173.096423 191.531702 
L 1173.505662 191.195799 
L 1173.914901 190.726607 
L 1174.324141 190.631619 
L 1174.938 190.632112 
L 1175.34724 190.193337 
L 1175.961099 189.012388 
L 1176.165718 188.85777 
L 1176.779578 188.811523 
L 1177.188817 188.430653 
L 1177.598057 188.012614 
L 1178.007296 187.95959 
L 1178.416535 188.239566 
L 1178.825775 188.589959 
L 1179.030395 188.60483 
L 1179.439634 188.27345 
L 1180.667352 186.914872 
L 1180.871972 186.978471 
L 1181.485831 187.668014 
L 1181.895071 187.666169 
L 1182.30431 187.655107 
L 1183.532029 188.207114 
L 1183.941268 188.709043 
L 1184.350508 189.301832 
L 1184.759747 189.544479 
L 1184.759747 189.544479 
" clip-path="url(#p3a389e5d2e)" style="fill: none; stroke: #000000; stroke-width: 2; stroke-linecap: square"/>
   </g>
   <g id="patch_3">
    <path d="M 3.00024 198.907885 
L 1184.99976 198.907885 
" style="fill: none; stroke: #000000; stroke-width: 2; stroke-linejoin: miter; stroke-linecap: square"/>
   </g>
  </g>
 </g>
 <defs>
  <clipPath id="p3a389e5d2e">
   <rect x="3.00024" y="3.00024" width="1181.99952" height="195.907645"/>
  </clipPath>
 </defs>
</svg>
