<?xml version="1.0" encoding="utf-8" standalone="no"?>
<!DOCTYPE svg PUBLIC "-//W3C//DTD SVG 1.1//EN"
  "http://www.w3.org/Graphics/SVG/1.1/DTD/svg11.dtd">
<svg xmlns:xlink="http://www.w3.org/1999/xlink" width="1188pt" height="252pt" viewBox="0 0 1188 252" xmlns="http://www.w3.org/2000/svg" version="1.1">
 <metadata>
  <rdf:RDF xmlns:dc="http://purl.org/dc/elements/1.1/" xmlns:cc="http://creativecommons.org/ns#" xmlns:rdf="http://www.w3.org/1999/02/22-rdf-syntax-ns#">
   <cc:Work>
    <dc:type rdf:resource="http://purl.org/dc/dcmitype/StillImage"/>
    <dc:date>2024-05-13T15:45:04.744184</dc:date>
    <dc:format>image/svg+xml</dc:format>
    <dc:creator>
     <cc:Agent>
      <dc:title>Matplotlib v3.8.0, https://matplotlib.org/</dc:title>
     </cc:Agent>
    </dc:creator>
   </cc:Work>
  </rdf:RDF>
 </metadata>
 <defs>
  <style type="text/css">*{stroke-linejoin: round; stroke-linecap: butt}</style>
 </defs>
 <g id="figure_1">
  <g id="patch_1">
   <path d="M 0 252 
L 1188 252 
L 1188 0 
L 0 0 
z
" style="fill: #ffffff"/>
  </g>
  <g id="axes_1">
   <g id="patch_2">
    <path d="M 3.00024 198.907885 
L 1184.99976 198.907885 
L 1184.99976 3.00024 
L 3.00024 3.00024 
z
" style="fill: #ffffff"/>
   </g>
   <g id="matplotlib.axis_1">
    <g id="xtick_1">
     <g id="line2d_1">
      <defs>
       <path id="m49996de6d1" d="M 0 0 
L 0 8 
" style="stroke: #000000; stroke-width: 2"/>
      </defs>
      <g>
       <use xlink:href="#m49996de6d1" x="1131.272509" y="198.907885" style="stroke: #000000; stroke-width: 2"/>
      </g>
     </g>
     <g id="text_1">
      <!-- 0 -->
      <g transform="translate(1126.267665 224.791947) scale(0.18 -0.18)">
       <defs>
        <path id="Arial-BoldMT-30" d="M 1756 4600 
Q 2422 4600 2797 4125 
Q 3244 3563 3244 2259 
Q 3244 959 2794 391 
Q 2422 -78 1756 -78 
Q 1088 -78 678 436 
Q 269 950 269 2269 
Q 269 3563 719 4131 
Q 1091 4600 1756 4600 
z
M 1756 3872 
Q 1597 3872 1472 3770 
Q 1347 3669 1278 3406 
Q 1188 3066 1188 2259 
Q 1188 1453 1269 1151 
Q 1350 850 1473 750 
Q 1597 650 1756 650 
Q 1916 650 2041 751 
Q 2166 853 2234 1116 
Q 2325 1453 2325 2259 
Q 2325 3066 2244 3367 
Q 2163 3669 2039 3770 
Q 1916 3872 1756 3872 
z
" transform="scale(0.015625)"/>
       </defs>
       <use xlink:href="#Arial-BoldMT-30"/>
      </g>
     </g>
    </g>
    <g id="xtick_2">
     <g id="line2d_2">
      <g>
       <use xlink:href="#m49996de6d1" x="1023.818007" y="198.907885" style="stroke: #000000; stroke-width: 2"/>
      </g>
     </g>
     <g id="text_2">
      <!-- 1 -->
      <g transform="translate(1018.813164 224.791947) scale(0.18 -0.18)">
       <defs>
        <path id="Arial-BoldMT-31" d="M 2519 0 
L 1641 0 
L 1641 3309 
Q 1159 2859 506 2644 
L 506 3441 
Q 850 3553 1253 3867 
Q 1656 4181 1806 4600 
L 2519 4600 
L 2519 0 
z
" transform="scale(0.015625)"/>
       </defs>
       <use xlink:href="#Arial-BoldMT-31"/>
      </g>
     </g>
    </g>
    <g id="xtick_3">
     <g id="line2d_3">
      <g>
       <use xlink:href="#m49996de6d1" x="916.363505" y="198.907885" style="stroke: #000000; stroke-width: 2"/>
      </g>
     </g>
     <g id="text_3">
      <!-- 2 -->
      <g transform="translate(911.358662 224.791947) scale(0.18 -0.18)">
       <defs>
        <path id="Arial-BoldMT-32" d="M 3238 816 
L 3238 0 
L 159 0 
Q 209 463 459 877 
Q 709 1291 1447 1975 
Q 2041 2528 2175 2725 
Q 2356 2997 2356 3263 
Q 2356 3556 2198 3714 
Q 2041 3872 1763 3872 
Q 1488 3872 1325 3706 
Q 1163 3541 1138 3156 
L 263 3244 
Q 341 3969 753 4284 
Q 1166 4600 1784 4600 
Q 2463 4600 2850 4234 
Q 3238 3869 3238 3325 
Q 3238 3016 3127 2736 
Q 3016 2456 2775 2150 
Q 2616 1947 2200 1565 
Q 1784 1184 1673 1059 
Q 1563 934 1494 816 
L 3238 816 
z
" transform="scale(0.015625)"/>
       </defs>
       <use xlink:href="#Arial-BoldMT-32"/>
      </g>
     </g>
    </g>
    <g id="xtick_4">
     <g id="line2d_4">
      <g>
       <use xlink:href="#m49996de6d1" x="808.909004" y="198.907885" style="stroke: #000000; stroke-width: 2"/>
      </g>
     </g>
     <g id="text_4">
      <!-- 3 -->
      <g transform="translate(803.90416 224.791947) scale(0.18 -0.18)">
       <defs>
        <path id="Arial-BoldMT-33" d="M 241 1216 
L 1091 1319 
Q 1131 994 1309 822 
Q 1488 650 1741 650 
Q 2013 650 2198 856 
Q 2384 1063 2384 1413 
Q 2384 1744 2206 1937 
Q 2028 2131 1772 2131 
Q 1603 2131 1369 2066 
L 1466 2781 
Q 1822 2772 2009 2936 
Q 2197 3100 2197 3372 
Q 2197 3603 2059 3740 
Q 1922 3878 1694 3878 
Q 1469 3878 1309 3722 
Q 1150 3566 1116 3266 
L 306 3403 
Q 391 3819 561 4067 
Q 731 4316 1036 4458 
Q 1341 4600 1719 4600 
Q 2366 4600 2756 4188 
Q 3078 3850 3078 3425 
Q 3078 2822 2419 2463 
Q 2813 2378 3048 2084 
Q 3284 1791 3284 1375 
Q 3284 772 2843 347 
Q 2403 -78 1747 -78 
Q 1125 -78 715 280 
Q 306 638 241 1216 
z
" transform="scale(0.015625)"/>
       </defs>
       <use xlink:href="#Arial-BoldMT-33"/>
      </g>
     </g>
    </g>
    <g id="xtick_5">
     <g id="line2d_5">
      <g>
       <use xlink:href="#m49996de6d1" x="701.454502" y="198.907885" style="stroke: #000000; stroke-width: 2"/>
      </g>
     </g>
     <g id="text_5">
      <!-- 4 -->
      <g transform="translate(696.449658 224.791947) scale(0.18 -0.18)">
       <defs>
        <path id="Arial-BoldMT-34" d="M 1994 0 
L 1994 922 
L 119 922 
L 119 1691 
L 2106 4600 
L 2844 4600 
L 2844 1694 
L 3413 1694 
L 3413 922 
L 2844 922 
L 2844 0 
L 1994 0 
z
M 1994 1694 
L 1994 3259 
L 941 1694 
L 1994 1694 
z
" transform="scale(0.015625)"/>
       </defs>
       <use xlink:href="#Arial-BoldMT-34"/>
      </g>
     </g>
    </g>
    <g id="xtick_6">
     <g id="line2d_6">
      <g>
       <use xlink:href="#m49996de6d1" x="594" y="198.907885" style="stroke: #000000; stroke-width: 2"/>
      </g>
     </g>
     <g id="text_6">
      <!-- 5 -->
      <g transform="translate(588.995156 224.791947) scale(0.18 -0.18)">
       <defs>
        <path id="Arial-BoldMT-35" d="M 284 1178 
L 1159 1269 
Q 1197 972 1381 798 
Q 1566 625 1806 625 
Q 2081 625 2272 848 
Q 2463 1072 2463 1522 
Q 2463 1944 2273 2155 
Q 2084 2366 1781 2366 
Q 1403 2366 1103 2031 
L 391 2134 
L 841 4519 
L 3163 4519 
L 3163 3697 
L 1506 3697 
L 1369 2919 
Q 1663 3066 1969 3066 
Q 2553 3066 2959 2641 
Q 3366 2216 3366 1538 
Q 3366 972 3038 528 
Q 2591 -78 1797 -78 
Q 1163 -78 763 262 
Q 363 603 284 1178 
z
" transform="scale(0.015625)"/>
       </defs>
       <use xlink:href="#Arial-BoldMT-35"/>
      </g>
     </g>
    </g>
    <g id="xtick_7">
     <g id="line2d_7">
      <g>
       <use xlink:href="#m49996de6d1" x="486.545498" y="198.907885" style="stroke: #000000; stroke-width: 2"/>
      </g>
     </g>
     <g id="text_7">
      <!-- 6 -->
      <g transform="translate(481.540654 224.791947) scale(0.18 -0.18)">
       <defs>
        <path id="Arial-BoldMT-36" d="M 3247 3459 
L 2397 3366 
Q 2366 3628 2234 3753 
Q 2103 3878 1894 3878 
Q 1616 3878 1423 3628 
Q 1231 3378 1181 2588 
Q 1509 2975 1997 2975 
Q 2547 2975 2939 2556 
Q 3331 2138 3331 1475 
Q 3331 772 2918 347 
Q 2506 -78 1859 -78 
Q 1166 -78 719 461 
Q 272 1000 272 2228 
Q 272 3488 737 4044 
Q 1203 4600 1947 4600 
Q 2469 4600 2811 4308 
Q 3153 4016 3247 3459 
z
M 1256 1544 
Q 1256 1116 1453 883 
Q 1650 650 1903 650 
Q 2147 650 2309 840 
Q 2472 1031 2472 1466 
Q 2472 1913 2297 2120 
Q 2122 2328 1859 2328 
Q 1606 2328 1431 2129 
Q 1256 1931 1256 1544 
z
" transform="scale(0.015625)"/>
       </defs>
       <use xlink:href="#Arial-BoldMT-36"/>
      </g>
     </g>
    </g>
    <g id="xtick_8">
     <g id="line2d_8">
      <g>
       <use xlink:href="#m49996de6d1" x="379.090996" y="198.907885" style="stroke: #000000; stroke-width: 2"/>
      </g>
     </g>
     <g id="text_8">
      <!-- 7 -->
      <g transform="translate(374.086153 224.791947) scale(0.18 -0.18)">
       <defs>
        <path id="Arial-BoldMT-37" d="M 272 3703 
L 272 4519 
L 3275 4519 
L 3275 3881 
Q 2903 3516 2518 2831 
Q 2134 2147 1932 1376 
Q 1731 606 1734 0 
L 888 0 
Q 909 950 1279 1937 
Q 1650 2925 2269 3703 
L 272 3703 
z
" transform="scale(0.015625)"/>
       </defs>
       <use xlink:href="#Arial-BoldMT-37"/>
      </g>
     </g>
    </g>
    <g id="xtick_9">
     <g id="line2d_9">
      <g>
       <use xlink:href="#m49996de6d1" x="271.636495" y="198.907885" style="stroke: #000000; stroke-width: 2"/>
      </g>
     </g>
     <g id="text_9">
      <!-- 8 -->
      <g transform="translate(266.631651 224.791947) scale(0.18 -0.18)">
       <defs>
        <path id="Arial-BoldMT-38" d="M 1025 2472 
Q 684 2616 529 2867 
Q 375 3119 375 3419 
Q 375 3931 733 4265 
Q 1091 4600 1750 4600 
Q 2403 4600 2764 4265 
Q 3125 3931 3125 3419 
Q 3125 3100 2959 2851 
Q 2794 2603 2494 2472 
Q 2875 2319 3073 2025 
Q 3272 1731 3272 1347 
Q 3272 713 2867 316 
Q 2463 -81 1791 -81 
Q 1166 -81 750 247 
Q 259 634 259 1309 
Q 259 1681 443 1992 
Q 628 2303 1025 2472 
z
M 1206 3356 
Q 1206 3094 1354 2947 
Q 1503 2800 1750 2800 
Q 2000 2800 2150 2948 
Q 2300 3097 2300 3359 
Q 2300 3606 2151 3754 
Q 2003 3903 1759 3903 
Q 1506 3903 1356 3753 
Q 1206 3603 1206 3356 
z
M 1125 1394 
Q 1125 1031 1311 828 
Q 1497 625 1775 625 
Q 2047 625 2225 820 
Q 2403 1016 2403 1384 
Q 2403 1706 2222 1901 
Q 2041 2097 1763 2097 
Q 1441 2097 1283 1875 
Q 1125 1653 1125 1394 
z
" transform="scale(0.015625)"/>
       </defs>
       <use xlink:href="#Arial-BoldMT-38"/>
      </g>
     </g>
    </g>
    <g id="xtick_10">
     <g id="line2d_10">
      <g>
       <use xlink:href="#m49996de6d1" x="164.181993" y="198.907885" style="stroke: #000000; stroke-width: 2"/>
      </g>
     </g>
     <g id="text_10">
      <!-- 9 -->
      <g transform="translate(159.177149 224.791947) scale(0.18 -0.18)">
       <defs>
        <path id="Arial-BoldMT-39" d="M 291 1059 
L 1141 1153 
Q 1172 894 1303 769 
Q 1434 644 1650 644 
Q 1922 644 2112 894 
Q 2303 1144 2356 1931 
Q 2025 1547 1528 1547 
Q 988 1547 595 1964 
Q 203 2381 203 3050 
Q 203 3747 617 4173 
Q 1031 4600 1672 4600 
Q 2369 4600 2816 4061 
Q 3263 3522 3263 2288 
Q 3263 1031 2797 475 
Q 2331 -81 1584 -81 
Q 1047 -81 715 205 
Q 384 491 291 1059 
z
M 2278 2978 
Q 2278 3403 2083 3637 
Q 1888 3872 1631 3872 
Q 1388 3872 1227 3680 
Q 1066 3488 1066 3050 
Q 1066 2606 1241 2398 
Q 1416 2191 1678 2191 
Q 1931 2191 2104 2391 
Q 2278 2591 2278 2978 
z
" transform="scale(0.015625)"/>
       </defs>
       <use xlink:href="#Arial-BoldMT-39"/>
      </g>
     </g>
    </g>
    <g id="xtick_11">
     <g id="line2d_11">
      <g>
       <use xlink:href="#m49996de6d1" x="56.727491" y="198.907885" style="stroke: #000000; stroke-width: 2"/>
      </g>
     </g>
     <g id="text_11">
      <!-- 10 -->
      <g transform="translate(46.717803 224.791947) scale(0.18 -0.18)">
       <use xlink:href="#Arial-BoldMT-31"/>
       <use xlink:href="#Arial-BoldMT-30" x="55.615234"/>
      </g>
     </g>
    </g>
    <g id="text_12">
     <!-- Chemical Shift / ppm -->
     <g transform="translate(504.992813 245.447573) scale(0.18 -0.18)">
      <defs>
       <path id="Arial-BoldMT-43" d="M 3397 1684 
L 4294 1400 
Q 4088 650 3608 286 
Q 3128 -78 2391 -78 
Q 1478 -78 890 545 
Q 303 1169 303 2250 
Q 303 3394 893 4026 
Q 1484 4659 2447 4659 
Q 3288 4659 3813 4163 
Q 4125 3869 4281 3319 
L 3366 3100 
Q 3284 3456 3026 3662 
Q 2769 3869 2400 3869 
Q 1891 3869 1573 3503 
Q 1256 3138 1256 2319 
Q 1256 1450 1568 1081 
Q 1881 713 2381 713 
Q 2750 713 3015 947 
Q 3281 1181 3397 1684 
z
" transform="scale(0.015625)"/>
       <path id="Arial-BoldMT-68" d="M 1334 4581 
L 1334 2897 
Q 1759 3394 2350 3394 
Q 2653 3394 2897 3281 
Q 3141 3169 3264 2994 
Q 3388 2819 3433 2606 
Q 3478 2394 3478 1947 
L 3478 0 
L 2600 0 
L 2600 1753 
Q 2600 2275 2550 2415 
Q 2500 2556 2373 2639 
Q 2247 2722 2056 2722 
Q 1838 2722 1666 2615 
Q 1494 2509 1414 2295 
Q 1334 2081 1334 1663 
L 1334 0 
L 456 0 
L 456 4581 
L 1334 4581 
z
" transform="scale(0.015625)"/>
       <path id="Arial-BoldMT-65" d="M 2381 1056 
L 3256 909 
Q 3088 428 2723 176 
Q 2359 -75 1813 -75 
Q 947 -75 531 491 
Q 203 944 203 1634 
Q 203 2459 634 2926 
Q 1066 3394 1725 3394 
Q 2466 3394 2894 2905 
Q 3322 2416 3303 1406 
L 1103 1406 
Q 1113 1016 1316 798 
Q 1519 581 1822 581 
Q 2028 581 2168 693 
Q 2309 806 2381 1056 
z
M 2431 1944 
Q 2422 2325 2234 2523 
Q 2047 2722 1778 2722 
Q 1491 2722 1303 2513 
Q 1116 2303 1119 1944 
L 2431 1944 
z
" transform="scale(0.015625)"/>
       <path id="Arial-BoldMT-6d" d="M 394 3319 
L 1203 3319 
L 1203 2866 
Q 1638 3394 2238 3394 
Q 2556 3394 2790 3262 
Q 3025 3131 3175 2866 
Q 3394 3131 3647 3262 
Q 3900 3394 4188 3394 
Q 4553 3394 4806 3245 
Q 5059 3097 5184 2809 
Q 5275 2597 5275 2122 
L 5275 0 
L 4397 0 
L 4397 1897 
Q 4397 2391 4306 2534 
Q 4184 2722 3931 2722 
Q 3747 2722 3584 2609 
Q 3422 2497 3350 2280 
Q 3278 2063 3278 1594 
L 3278 0 
L 2400 0 
L 2400 1819 
Q 2400 2303 2353 2443 
Q 2306 2584 2207 2653 
Q 2109 2722 1941 2722 
Q 1738 2722 1575 2612 
Q 1413 2503 1342 2297 
Q 1272 2091 1272 1613 
L 1272 0 
L 394 0 
L 394 3319 
z
" transform="scale(0.015625)"/>
       <path id="Arial-BoldMT-69" d="M 459 3769 
L 459 4581 
L 1338 4581 
L 1338 3769 
L 459 3769 
z
M 459 0 
L 459 3319 
L 1338 3319 
L 1338 0 
L 459 0 
z
" transform="scale(0.015625)"/>
       <path id="Arial-BoldMT-63" d="M 3353 2338 
L 2488 2181 
Q 2444 2441 2289 2572 
Q 2134 2703 1888 2703 
Q 1559 2703 1364 2476 
Q 1169 2250 1169 1719 
Q 1169 1128 1367 884 
Q 1566 641 1900 641 
Q 2150 641 2309 783 
Q 2469 925 2534 1272 
L 3397 1125 
Q 3263 531 2881 228 
Q 2500 -75 1859 -75 
Q 1131 -75 698 384 
Q 266 844 266 1656 
Q 266 2478 700 2936 
Q 1134 3394 1875 3394 
Q 2481 3394 2839 3133 
Q 3197 2872 3353 2338 
z
" transform="scale(0.015625)"/>
       <path id="Arial-BoldMT-61" d="M 1116 2306 
L 319 2450 
Q 453 2931 781 3162 
Q 1109 3394 1756 3394 
Q 2344 3394 2631 3255 
Q 2919 3116 3036 2902 
Q 3153 2688 3153 2116 
L 3144 1091 
Q 3144 653 3186 445 
Q 3228 238 3344 0 
L 2475 0 
Q 2441 88 2391 259 
Q 2369 338 2359 363 
Q 2134 144 1878 34 
Q 1622 -75 1331 -75 
Q 819 -75 523 203 
Q 228 481 228 906 
Q 228 1188 362 1408 
Q 497 1628 739 1745 
Q 981 1863 1438 1950 
Q 2053 2066 2291 2166 
L 2291 2253 
Q 2291 2506 2166 2614 
Q 2041 2722 1694 2722 
Q 1459 2722 1328 2630 
Q 1197 2538 1116 2306 
z
M 2291 1594 
Q 2122 1538 1756 1459 
Q 1391 1381 1278 1306 
Q 1106 1184 1106 997 
Q 1106 813 1243 678 
Q 1381 544 1594 544 
Q 1831 544 2047 700 
Q 2206 819 2256 991 
Q 2291 1103 2291 1419 
L 2291 1594 
z
" transform="scale(0.015625)"/>
       <path id="Arial-BoldMT-6c" d="M 459 0 
L 459 4581 
L 1338 4581 
L 1338 0 
L 459 0 
z
" transform="scale(0.015625)"/>
       <path id="Arial-BoldMT-20" transform="scale(0.015625)"/>
       <path id="Arial-BoldMT-53" d="M 231 1491 
L 1131 1578 
Q 1213 1125 1461 912 
Q 1709 700 2131 700 
Q 2578 700 2804 889 
Q 3031 1078 3031 1331 
Q 3031 1494 2936 1608 
Q 2841 1722 2603 1806 
Q 2441 1863 1863 2006 
Q 1119 2191 819 2459 
Q 397 2838 397 3381 
Q 397 3731 595 4036 
Q 794 4341 1167 4500 
Q 1541 4659 2069 4659 
Q 2931 4659 3367 4281 
Q 3803 3903 3825 3272 
L 2900 3231 
Q 2841 3584 2645 3739 
Q 2450 3894 2059 3894 
Q 1656 3894 1428 3728 
Q 1281 3622 1281 3444 
Q 1281 3281 1419 3166 
Q 1594 3019 2269 2859 
Q 2944 2700 3267 2529 
Q 3591 2359 3773 2064 
Q 3956 1769 3956 1334 
Q 3956 941 3737 597 
Q 3519 253 3119 86 
Q 2719 -81 2122 -81 
Q 1253 -81 787 320 
Q 322 722 231 1491 
z
" transform="scale(0.015625)"/>
       <path id="Arial-BoldMT-66" d="M 75 3319 
L 563 3319 
L 563 3569 
Q 563 3988 652 4194 
Q 741 4400 980 4529 
Q 1219 4659 1584 4659 
Q 1959 4659 2319 4547 
L 2200 3934 
Q 1991 3984 1797 3984 
Q 1606 3984 1523 3895 
Q 1441 3806 1441 3553 
L 1441 3319 
L 2097 3319 
L 2097 2628 
L 1441 2628 
L 1441 0 
L 563 0 
L 563 2628 
L 75 2628 
L 75 3319 
z
" transform="scale(0.015625)"/>
       <path id="Arial-BoldMT-74" d="M 1981 3319 
L 1981 2619 
L 1381 2619 
L 1381 1281 
Q 1381 875 1398 808 
Q 1416 741 1477 697 
Q 1538 653 1625 653 
Q 1747 653 1978 738 
L 2053 56 
Q 1747 -75 1359 -75 
Q 1122 -75 931 4 
Q 741 84 652 211 
Q 563 338 528 553 
Q 500 706 500 1172 
L 500 2619 
L 97 2619 
L 97 3319 
L 500 3319 
L 500 3978 
L 1381 4491 
L 1381 3319 
L 1981 3319 
z
" transform="scale(0.015625)"/>
       <path id="Arial-BoldMT-2f" d="M -9 -78 
L 1125 4659 
L 1784 4659 
L 638 -78 
L -9 -78 
z
" transform="scale(0.015625)"/>
       <path id="Arial-BoldMT-70" d="M 434 3319 
L 1253 3319 
L 1253 2831 
Q 1413 3081 1684 3237 
Q 1956 3394 2288 3394 
Q 2866 3394 3269 2941 
Q 3672 2488 3672 1678 
Q 3672 847 3265 386 
Q 2859 -75 2281 -75 
Q 2006 -75 1782 34 
Q 1559 144 1313 409 
L 1313 -1263 
L 434 -1263 
L 434 3319 
z
M 1303 1716 
Q 1303 1156 1525 889 
Q 1747 622 2066 622 
Q 2372 622 2575 867 
Q 2778 1113 2778 1672 
Q 2778 2194 2568 2447 
Q 2359 2700 2050 2700 
Q 1728 2700 1515 2451 
Q 1303 2203 1303 1716 
z
" transform="scale(0.015625)"/>
      </defs>
      <use xlink:href="#Arial-BoldMT-43"/>
      <use xlink:href="#Arial-BoldMT-68" x="72.216797"/>
      <use xlink:href="#Arial-BoldMT-65" x="133.300781"/>
      <use xlink:href="#Arial-BoldMT-6d" x="188.916016"/>
      <use xlink:href="#Arial-BoldMT-69" x="277.832031"/>
      <use xlink:href="#Arial-BoldMT-63" x="305.615234"/>
      <use xlink:href="#Arial-BoldMT-61" x="361.230469"/>
      <use xlink:href="#Arial-BoldMT-6c" x="416.845703"/>
      <use xlink:href="#Arial-BoldMT-20" x="444.628906"/>
      <use xlink:href="#Arial-BoldMT-53" x="472.412109"/>
      <use xlink:href="#Arial-BoldMT-68" x="539.111328"/>
      <use xlink:href="#Arial-BoldMT-69" x="600.195312"/>
      <use xlink:href="#Arial-BoldMT-66" x="627.978516"/>
      <use xlink:href="#Arial-BoldMT-74" x="661.279297"/>
      <use xlink:href="#Arial-BoldMT-20" x="694.580078"/>
      <use xlink:href="#Arial-BoldMT-2f" x="722.363281"/>
      <use xlink:href="#Arial-BoldMT-20" x="750.146484"/>
      <use xlink:href="#Arial-BoldMT-70" x="777.929688"/>
      <use xlink:href="#Arial-BoldMT-70" x="839.013672"/>
      <use xlink:href="#Arial-BoldMT-6d" x="900.097656"/>
     </g>
    </g>
   </g>
   <g id="matplotlib.axis_2"/>
   <g id="line2d_12">
    <path d="M 3.060584 190.128938 
L 3.265203 190.326871 
L 3.469823 190.30386 
L 3.879063 189.667495 
L 4.697542 188.112702 
L 4.902161 187.972444 
L 5.106781 188.013023 
L 5.51602 188.404851 
L 6.12988 189.050561 
L 7.357598 189.645286 
L 8.176077 190.879517 
L 8.585316 190.884432 
L 9.199176 191.242489 
L 9.608415 191.046858 
L 10.017654 190.506901 
L 10.631514 189.385605 
L 10.836133 189.287323 
L 11.040753 189.400988 
L 12.063852 190.663067 
L 12.677711 190.345883 
L 13.08695 190.31541 
L 13.49619 189.724381 
L 14.110049 188.095226 
L 14.519288 187.118046 
L 14.928528 186.553774 
L 15.337767 186.24748 
L 15.542387 186.24292 
L 16.565486 186.807172 
L 17.179345 186.710732 
L 17.383965 186.977396 
L 17.793204 188.313664 
L 18.202443 189.877904 
L 18.611683 190.55164 
L 18.816303 190.540371 
L 19.430162 190.247645 
L 21.680979 191.568491 
L 22.090218 191.18804 
L 22.499458 190.830919 
L 23.317937 190.788505 
L 23.931796 190.420491 
L 24.750275 190.137271 
L 24.954894 190.044204 
L 25.159514 190.136396 
L 25.977993 191.383039 
L 26.182613 191.243077 
L 27.205711 189.949566 
L 27.614951 190.127624 
L 28.02419 190.479079 
L 28.43343 190.490096 
L 29.456528 189.784379 
L 29.865768 189.050458 
L 30.479627 187.742448 
L 31.093486 186.439377 
L 31.502726 185.726392 
L 31.707345 185.662458 
L 32.116585 185.991993 
L 32.730444 187.039885 
L 33.139684 187.608814 
L 33.344303 187.672487 
L 33.548923 187.559966 
L 34.572022 186.251558 
L 35.390501 186.534294 
L 36.208979 187.139935 
L 36.618219 186.919141 
L 37.641318 185.862296 
L 37.845937 185.8752 
L 39.482895 187.330273 
L 39.892135 188.028023 
L 40.505994 189.340849 
L 40.710613 189.550978 
L 40.915233 189.583374 
L 42.552191 188.889486 
L 43.16605 189.233415 
L 43.57529 188.989621 
L 44.189149 188.402636 
L 44.393769 188.441583 
L 44.803008 188.943883 
L 45.212247 189.504216 
L 45.416867 189.624075 
L 45.621487 189.599316 
L 46.030726 189.070741 
L 46.439966 188.675546 
L 46.849205 188.669029 
L 47.053825 188.44002 
L 47.872304 186.644019 
L 48.076924 186.648788 
L 48.281543 186.870186 
L 49.100022 188.822792 
L 49.304642 188.712264 
L 50.327741 186.674905 
L 50.73698 186.587616 
L 50.9416 186.669965 
L 51.350839 187.203734 
L 51.760079 187.817488 
L 52.169318 188.082841 
L 52.783177 188.189091 
L 53.192417 188.674168 
L 53.601656 189.164372 
L 53.806276 189.194408 
L 54.010896 189.046407 
L 54.420135 188.270063 
L 56.057093 184.01009 
L 57.080192 182.110324 
L 57.284811 181.963729 
L 57.489431 181.976387 
L 57.89867 182.267019 
L 58.10329 182.255448 
L 58.30791 181.949777 
L 58.717149 180.312927 
L 59.535628 174.974671 
L 59.944868 171.211863 
L 60.558727 162.334659 
L 61.377206 148.380744 
L 61.581826 146.663897 
L 61.786445 146.308433 
L 61.991065 147.111512 
L 62.195685 148.87729 
L 62.604924 155.347866 
L 63.423403 170.317308 
L 64.037262 176.339661 
L 65.264981 186.790599 
L 65.4696 187.534721 
L 65.67422 187.831015 
L 66.492699 188.075173 
L 66.901938 187.871122 
L 67.311178 187.608412 
L 68.538896 187.141225 
L 68.743516 187.051763 
L 68.948136 187.205702 
L 69.766615 188.733088 
L 69.971234 188.648338 
L 70.994333 187.237886 
L 71.608192 187.05094 
L 72.017432 186.977627 
L 72.222051 187.225787 
L 73.04053 189.300062 
L 73.24515 189.263711 
L 73.654389 188.907394 
L 73.859009 188.89968 
L 74.063629 189.090506 
L 74.882108 190.354489 
L 75.495967 191.114704 
L 75.905206 191.607203 
L 76.109826 191.660226 
L 76.519066 191.371887 
L 77.542164 189.955284 
L 78.360643 188.453572 
L 79.383742 187.159886 
L 79.588362 186.954737 
L 79.792981 186.926643 
L 79.997601 187.131767 
L 80.40684 188.015057 
L 81.225319 190.311735 
L 81.429939 190.461648 
L 82.248418 190.162763 
L 82.453038 190.275973 
L 82.862277 190.873348 
L 83.271517 191.506869 
L 83.680756 191.649652 
L 84.089996 191.450897 
L 84.499235 190.918814 
L 85.113094 189.488342 
L 85.931573 187.31804 
L 86.545432 186.401728 
L 86.750052 186.385482 
L 87.97777 187.393501 
L 88.796249 189.155234 
L 89.205489 189.192088 
L 90.023968 189.054795 
L 90.228587 188.890599 
L 90.637827 188.088324 
L 90.842447 187.670825 
L 91.047066 187.52882 
L 91.251686 187.73926 
L 91.660925 188.541662 
L 91.865545 188.724907 
L 92.070165 188.66857 
L 93.707123 186.834597 
L 93.911742 186.884158 
L 94.934841 188.283806 
L 95.34408 187.972675 
L 95.75332 187.339616 
L 96.162559 186.468952 
L 96.367179 186.251881 
L 96.571799 186.300336 
L 96.776419 186.631378 
L 97.185658 188.139273 
L 97.799517 190.790049 
L 98.004137 191.059069 
L 98.208757 191.011889 
L 98.617996 190.354571 
L 99.231855 189.191928 
L 99.845714 188.498964 
L 100.254954 188.45851 
L 101.073433 188.605791 
L 101.278053 188.903403 
L 102.096531 191.247932 
L 102.301151 191.228826 
L 102.710391 190.733119 
L 102.91501 190.734353 
L 103.32425 191.351811 
L 103.938109 192.30048 
L 104.142729 192.334089 
L 104.551968 191.801658 
L 104.961208 191.255465 
L 105.165827 191.136773 
L 105.370447 191.156899 
L 105.984306 191.728298 
L 106.188926 191.615414 
L 106.598165 190.502372 
L 107.007405 189.21493 
L 107.212025 188.992726 
L 108.235123 189.151961 
L 108.644363 189.31233 
L 109.258222 189.617787 
L 110.076701 189.936379 
L 110.69056 189.978423 
L 111.099799 189.899163 
L 111.713659 190.211491 
L 111.918278 190.114163 
L 113.555236 187.878481 
L 113.964476 186.542128 
L 114.373715 185.097269 
L 114.782955 184.426758 
L 114.987574 184.272997 
L 115.192194 184.265736 
L 115.396814 184.460155 
L 115.806053 185.391126 
L 116.215293 186.339696 
L 116.624532 186.674898 
L 117.033772 186.714343 
L 117.443011 186.628943 
L 117.647631 186.735583 
L 118.05687 187.181914 
L 118.26149 187.173743 
L 118.875349 186.623493 
L 119.284589 186.980731 
L 119.693828 187.381375 
L 119.898448 187.455246 
L 120.103067 187.385261 
L 120.512307 186.707604 
L 121.330786 185.175924 
L 121.740025 184.925594 
L 122.558504 184.789562 
L 122.763124 184.602472 
L 122.967744 184.251084 
L 123.376983 182.844487 
L 123.786223 181.203944 
L 123.990842 180.886817 
L 124.195462 181.079237 
L 125.013941 183.12029 
L 126.03704 183.356469 
L 126.855518 182.946906 
L 127.060138 183.039996 
L 127.264758 183.259594 
L 127.673997 184.16089 
L 128.287857 185.574149 
L 128.492476 185.727478 
L 128.697096 185.6249 
L 130.129434 183.773676 
L 131.152533 182.457609 
L 131.561772 182.043247 
L 132.380251 180.856412 
L 133.40335 179.859087 
L 133.607969 179.788682 
L 133.812589 179.893291 
L 134.426448 180.525542 
L 134.631068 180.455097 
L 135.040307 179.88039 
L 135.449547 179.32845 
L 136.063406 178.91207 
L 136.268026 178.994608 
L 136.881885 179.629026 
L 137.086505 179.605341 
L 137.291124 179.414394 
L 137.700364 178.455675 
L 138.109603 176.627642 
L 139.337322 170.280335 
L 139.746561 168.530459 
L 140.155801 167.83402 
L 140.56504 167.290897 
L 140.97428 166.343545 
L 141.588139 164.628835 
L 141.997378 164.20849 
L 142.406618 164.212534 
L 143.225097 164.947212 
L 143.838956 165.74298 
L 144.043575 165.725524 
L 144.452815 165.450958 
L 145.271294 165.417936 
L 145.475914 165.171711 
L 145.680533 164.631664 
L 146.089773 162.633376 
L 147.112871 157.091306 
L 148.34059 151.761917 
L 149.772928 143.870808 
L 149.977548 143.935346 
L 150.386787 145.160997 
L 152.228365 153.125839 
L 152.842224 155.774119 
L 153.660703 157.701203 
L 154.069942 159.643454 
L 154.888421 163.844544 
L 155.50228 166.059257 
L 156.116139 168.42252 
L 156.525379 169.627595 
L 156.934618 171.562119 
L 157.957717 176.816085 
L 158.571576 178.596589 
L 159.185435 180.143035 
L 160.003914 182.697248 
L 160.413154 183.283847 
L 161.027013 183.72846 
L 161.845492 184.715533 
L 162.254731 184.601006 
L 162.663971 184.846616 
L 162.86859 184.982632 
L 163.07321 184.961596 
L 163.48245 184.498706 
L 164.505548 183.004637 
L 164.710168 183.081926 
L 165.119407 183.607275 
L 165.937886 184.862136 
L 166.551745 185.48786 
L 166.960985 186.511305 
L 167.370224 187.65967 
L 167.779464 188.278525 
L 168.597943 189.082763 
L 169.007182 190.261993 
L 169.621041 192.098727 
L 169.825661 192.368133 
L 170.030281 192.388387 
L 170.234901 192.18707 
L 171.053379 190.971483 
L 171.462619 190.894578 
L 172.076478 190.942279 
L 172.690337 190.42765 
L 173.099577 189.913009 
L 174.122675 188.42382 
L 174.327295 188.541103 
L 174.736534 189.341043 
L 175.759633 191.836517 
L 175.964253 192.057895 
L 176.168873 192.10881 
L 176.373492 192.010232 
L 176.782732 191.273807 
L 177.396591 189.920024 
L 177.80583 189.625945 
L 178.21507 189.704514 
L 178.624309 190.010655 
L 179.033549 190.772037 
L 179.442788 191.737434 
L 179.852028 192.153993 
L 180.261267 192.259588 
L 180.670507 191.806841 
L 181.898225 189.570589 
L 182.102845 189.575082 
L 182.307464 189.711269 
L 182.716704 190.426348 
L 183.330563 191.993205 
L 183.739802 192.356797 
L 184.149042 192.38022 
L 184.353662 192.158869 
L 184.762901 191.05523 
L 185.172141 190.038095 
L 185.37676 189.876098 
L 185.990619 189.934837 
L 186.399859 189.53968 
L 187.013718 188.75867 
L 188.650676 187.479151 
L 189.469155 185.764779 
L 189.878394 185.629243 
L 190.083014 185.787126 
L 191.310732 187.879135 
L 191.924592 188.384454 
L 192.333831 188.461833 
L 192.538451 188.491588 
L 192.74307 188.684321 
L 193.766169 190.483698 
L 193.970789 190.573638 
L 194.175409 190.541098 
L 194.380028 190.332582 
L 194.993887 189.202052 
L 195.198507 189.08139 
L 196.016986 189.252897 
L 196.426226 188.665063 
L 197.040085 187.723156 
L 197.653944 186.813073 
L 198.677043 185.01914 
L 198.881662 184.898478 
L 199.086282 184.991586 
L 199.495521 185.758332 
L 199.904761 186.640195 
L 200.109381 186.883948 
L 200.314 186.887566 
L 201.132479 186.009996 
L 201.541719 186.618658 
L 201.746338 186.900536 
L 201.950958 186.963293 
L 202.360198 186.5654 
L 203.383296 185.359338 
L 203.587916 185.344342 
L 203.997155 185.631464 
L 204.611015 186.11712 
L 205.020254 186.148856 
L 205.634113 185.806625 
L 206.247972 185.32854 
L 207.066451 184.224844 
L 207.271071 184.293807 
L 207.680311 185.061713 
L 208.29417 186.341626 
L 208.908029 186.918271 
L 209.317268 187.082606 
L 209.521888 186.992739 
L 209.931128 186.17626 
L 210.340367 185.320354 
L 210.544987 185.2049 
L 210.954226 185.415033 
L 211.568085 185.95822 
L 212.591184 185.948107 
L 213.000423 186.142723 
L 213.409663 186.262414 
L 214.228142 186.898614 
L 214.432761 186.736711 
L 215.25124 185.377074 
L 215.45586 185.461784 
L 216.478959 187.075816 
L 216.888198 186.941343 
L 217.297438 186.658898 
L 217.706677 186.613056 
L 218.115917 186.741602 
L 218.729776 187.052024 
L 219.139015 186.695597 
L 219.752874 186.055739 
L 219.957494 185.992063 
L 220.366734 186.248134 
L 220.775973 186.543525 
L 220.980593 186.47406 
L 221.799072 185.529007 
L 222.412931 185.326334 
L 223.02679 184.829286 
L 223.436029 185.027197 
L 224.254508 185.946967 
L 224.868368 186.943476 
L 225.482227 188.015202 
L 226.096086 188.576398 
L 226.505325 188.66108 
L 226.709945 188.494876 
L 227.528424 187.360648 
L 228.346903 187.36255 
L 228.756142 186.820185 
L 229.165382 186.300887 
L 229.983861 185.944193 
L 230.59772 185.310236 
L 231.620819 184.836947 
L 232.030058 185.269758 
L 232.643917 186.15401 
L 232.848537 186.185318 
L 233.257776 185.88502 
L 233.667016 185.26197 
L 234.076255 184.586032 
L 234.485495 184.399735 
L 235.099354 184.557418 
L 235.303974 184.37004 
L 235.713213 183.424369 
L 236.327072 180.81702 
L 236.736312 179.274346 
L 236.940931 178.84856 
L 237.145551 178.6915 
L 237.554791 178.879366 
L 238.16865 179.227257 
L 238.577889 179.844043 
L 238.987129 180.604147 
L 239.191748 180.748787 
L 240.010227 180.708982 
L 240.419467 180.919348 
L 240.828706 181.242476 
L 241.033326 181.167049 
L 241.442565 180.299346 
L 243.079523 175.043132 
L 243.284143 175.078541 
L 243.898002 175.840233 
L 244.307242 175.591015 
L 244.511861 175.504266 
L 244.921101 175.831739 
L 246.148819 176.98157 
L 246.353439 176.821692 
L 246.762678 175.941377 
L 247.171918 174.200789 
L 247.785777 171.310495 
L 247.990397 170.894555 
L 248.195016 170.819264 
L 248.604256 170.921553 
L 249.013495 170.540073 
L 249.422735 170.184639 
L 249.627354 170.129593 
L 249.831974 169.91291 
L 250.241214 168.651707 
L 250.855073 166.48256 
L 251.059693 166.136049 
L 251.264312 166.01996 
L 251.673552 166.296385 
L 252.287411 166.695132 
L 252.69665 166.766896 
L 253.10589 166.577379 
L 253.924369 165.670559 
L 254.538228 164.280007 
L 255.356707 161.972411 
L 255.765946 161.11667 
L 256.175186 159.748518 
L 257.812144 152.365279 
L 258.426003 147.664894 
L 259.244482 141.287237 
L 260.4722 133.203942 
L 260.881439 132.258559 
L 261.086059 132.236262 
L 261.290679 132.604907 
L 261.495299 133.489097 
L 261.904538 136.662003 
L 262.723017 143.502669 
L 263.132256 145.31456 
L 263.541496 146.045787 
L 263.950735 146.576724 
L 264.769214 148.113108 
L 264.973834 148.114091 
L 265.178454 147.826016 
L 265.587693 146.315108 
L 266.201552 142.174022 
L 266.815412 138.163398 
L 267.224651 136.813019 
L 267.63389 136.317175 
L 267.83851 135.859155 
L 268.24775 133.978716 
L 268.861609 129.598431 
L 269.475468 123.343388 
L 270.498567 112.051444 
L 270.907806 110.435381 
L 271.112426 110.400836 
L 271.317046 110.912231 
L 271.726285 113.414148 
L 272.954003 123.210766 
L 273.363243 124.562269 
L 273.567863 124.834168 
L 273.772482 124.849165 
L 274.181722 124.221888 
L 275.000201 122.383003 
L 275.40944 120.171505 
L 276.637158 112.052326 
L 277.046398 110.703152 
L 277.251018 110.382686 
L 277.455637 110.366972 
L 277.660257 110.794329 
L 277.864877 111.826737 
L 278.274116 115.602738 
L 280.115694 135.849851 
L 280.524933 138.332173 
L 280.729553 138.935726 
L 281.138792 139.313161 
L 281.548032 139.76947 
L 281.957271 140.161591 
L 282.161891 140.065196 
L 282.98037 138.920625 
L 283.389609 138.001465 
L 283.798849 136.562416 
L 284.208088 134.214326 
L 285.026567 127.571939 
L 285.435807 122.582408 
L 286.868145 101.80191 
L 287.277384 98.504316 
L 287.482004 97.722707 
L 287.686624 97.397824 
L 288.300483 97.171301 
L 288.505103 96.73249 
L 288.709722 95.753041 
L 289.323581 90.353777 
L 290.5513 79.713867 
L 290.960539 77.865434 
L 291.165159 77.445288 
L 291.369779 77.307772 
L 291.779018 77.34499 
L 291.983638 77.155502 
L 292.188258 76.639033 
L 292.802117 73.763392 
L 293.825215 68.56684 
L 294.234455 64.423995 
L 294.848314 55.582762 
L 295.871413 38.237009 
L 296.280652 34.81154 
L 296.485272 34.403632 
L 296.689892 34.745996 
L 297.303751 37.341356 
L 297.508371 37.471489 
L 297.71299 36.972101 
L 298.326849 34.837942 
L 298.531469 34.764908 
L 298.736089 35.213558 
L 299.145328 37.907418 
L 299.554568 41.309073 
L 299.759188 42.215899 
L 299.963807 42.323287 
L 300.168427 41.661415 
L 300.577666 38.385831 
L 300.986906 32.894063 
L 301.805385 17.42837 
L 302.419244 6.817005 
L 302.828483 3.421647 
L 303.033103 3.00024 
L 303.237723 3.453922 
L 303.646962 6.578528 
L 304.260822 14.201248 
L 304.874681 24.099149 
L 307.125498 68.259365 
L 307.534737 72.210202 
L 307.739357 73.163142 
L 307.943977 73.380735 
L 308.148596 72.951477 
L 308.557836 70.752118 
L 309.171695 65.598999 
L 309.785554 58.176355 
L 310.808653 42.204075 
L 311.831751 25.752552 
L 312.240991 21.866313 
L 312.445611 21.027991 
L 312.65023 21.068186 
L 312.85485 21.927517 
L 313.26409 25.333846 
L 313.673329 30.477098 
L 314.287188 42.188151 
L 316.333385 87.266325 
L 317.356484 103.139766 
L 317.970343 110.712461 
L 318.584202 115.801677 
L 319.607301 122.594643 
L 320.22116 124.677349 
L 320.6304 125.537065 
L 321.039639 125.921902 
L 321.244259 125.798541 
L 321.653498 124.537205 
L 322.676597 121.0644 
L 322.881217 120.689521 
L 323.085836 120.819842 
L 323.290456 121.49282 
L 324.518175 127.699288 
L 324.722794 127.849761 
L 325.132034 127.615336 
L 325.336653 127.766289 
L 325.541273 128.331303 
L 325.950513 130.747264 
L 326.768991 138.588101 
L 327.382851 143.7298 
L 327.79209 145.471487 
L 327.99671 145.717335 
L 328.20133 145.641189 
L 329.019808 144.664164 
L 329.224428 144.63219 
L 329.429048 144.812909 
L 329.838287 145.915439 
L 330.247527 148.028742 
L 332.089104 159.939221 
L 333.112203 165.611885 
L 333.521442 166.37512 
L 333.930682 166.516904 
L 334.135302 166.724623 
L 334.339921 167.197257 
L 334.749161 168.901568 
L 335.36302 171.512064 
L 335.772259 172.250478 
L 336.181499 172.731232 
L 336.590738 174.068915 
L 337.818457 179.654136 
L 338.432316 181.613677 
L 338.636936 181.879012 
L 339.046175 181.919874 
L 339.660034 181.796456 
L 340.069274 181.286792 
L 340.478513 180.866184 
L 340.887753 180.957278 
L 341.296992 181.401944 
L 341.706232 182.360887 
L 342.115471 183.422 
L 342.52471 183.892597 
L 344.161668 184.512796 
L 344.366288 184.35384 
L 344.775527 183.529664 
L 345.389387 182.266815 
L 345.594006 182.171063 
L 345.798626 182.324416 
L 346.412485 183.352957 
L 347.640204 183.932496 
L 348.049443 183.806472 
L 348.254063 183.928523 
L 349.072542 185.067414 
L 349.277161 185.02553 
L 349.686401 184.351581 
L 350.09564 183.647624 
L 350.50488 183.486879 
L 351.118739 183.496013 
L 351.323359 183.581347 
L 351.527978 183.806614 
L 351.937218 184.869338 
L 352.346457 186.092714 
L 352.551077 186.437746 
L 352.755697 186.461976 
L 353.574176 185.270692 
L 353.983415 185.390499 
L 354.188035 185.137465 
L 355.006514 182.588778 
L 355.415753 182.30052 
L 355.824993 182.220652 
L 356.234232 182.395807 
L 356.643472 183.018664 
L 357.052711 183.76158 
L 357.66657 184.463678 
L 358.07581 185.925161 
L 358.485049 187.355783 
L 359.098908 188.324041 
L 359.508148 188.834627 
L 359.712768 188.886475 
L 359.917387 188.775302 
L 360.326627 188.14238 
L 360.940486 186.311717 
L 361.349725 185.346285 
L 361.758965 185.072494 
L 362.782063 185.04448 
L 363.805162 184.99128 
L 364.214402 185.066604 
L 366.055979 184.47383 
L 366.874458 183.683658 
L 367.079078 183.692163 
L 367.283697 183.856276 
L 367.692937 184.612895 
L 368.306796 185.928035 
L 368.716035 186.25426 
L 370.557613 186.59646 
L 370.966852 187.04607 
L 371.376092 187.509506 
L 371.785331 187.76369 
L 372.399191 188.459272 
L 372.60381 188.453418 
L 373.626909 187.777686 
L 374.036148 187.748725 
L 374.854627 187.181688 
L 375.263867 186.672491 
L 376.286965 184.996407 
L 376.696205 184.622779 
L 377.105444 184.484279 
L 377.514684 184.67803 
L 378.128543 185.000933 
L 378.742402 184.941413 
L 378.947022 184.827751 
L 379.356261 184.107331 
L 380.17474 181.98352 
L 380.37936 181.959812 
L 380.58398 182.310848 
L 381.197839 183.910035 
L 381.402459 184.054626 
L 381.811698 184.093449 
L 382.016318 184.319007 
L 382.425557 185.453639 
L 383.039416 187.625866 
L 383.244036 187.91993 
L 383.448656 187.864497 
L 383.857895 187.036609 
L 384.471754 185.598521 
L 384.676374 185.530621 
L 385.290233 185.723801 
L 385.699473 185.517581 
L 387.131811 184.291612 
L 387.336431 184.426591 
L 387.54105 184.875956 
L 388.564149 188.228689 
L 388.973388 189.047872 
L 389.178008 189.260942 
L 389.382628 189.215609 
L 389.791867 188.422551 
L 390.814966 185.893302 
L 391.019586 185.536439 
L 391.224205 185.410142 
L 391.428825 185.562175 
L 392.042684 186.422292 
L 392.451924 186.556958 
L 392.861163 186.508242 
L 393.065783 186.330576 
L 393.475022 185.455943 
L 394.088882 184.093418 
L 394.293501 183.935403 
L 394.498121 184.002725 
L 395.3166 184.94971 
L 395.725839 184.464221 
L 396.135079 183.972415 
L 396.339699 183.917804 
L 396.748938 184.200184 
L 396.953558 184.340139 
L 397.158178 184.325215 
L 397.567417 183.890311 
L 398.590516 182.525337 
L 398.795135 182.593728 
L 399.204375 183.245658 
L 399.408995 183.596187 
L 399.613614 183.692795 
L 399.818234 183.397062 
L 400.227473 181.732505 
L 401.045952 176.161003 
L 401.864431 170.270661 
L 402.88753 160.973561 
L 403.296769 159.23201 
L 403.501389 159.000767 
L 403.706009 159.313506 
L 403.910628 160.230322 
L 405.547586 171.403214 
L 406.775305 176.204615 
L 407.593784 178.604866 
L 408.821502 181.516849 
L 409.026122 181.373484 
L 409.435361 180.33751 
L 410.04922 178.264873 
L 410.867699 176.510527 
L 411.276939 176.077303 
L 412.095418 175.754806 
L 412.709277 175.0635 
L 413.118516 174.16278 
L 414.550854 169.264283 
L 414.755474 169.179184 
L 414.960094 169.502461 
L 415.369333 171.293116 
L 416.392432 177.866137 
L 416.801671 179.167227 
L 418.02939 185.192908 
L 418.643249 186.623542 
L 419.052488 187.093369 
L 419.461728 187.39209 
L 419.870967 188.087289 
L 420.689446 190.582692 
L 420.894066 190.810489 
L 421.098686 190.843429 
L 422.121784 190.339327 
L 422.326404 190.015538 
L 422.940263 188.587929 
L 423.144883 188.581308 
L 423.758742 189.144812 
L 423.963362 189.110247 
L 424.372601 188.847972 
L 424.577221 188.904323 
L 425.3957 189.542937 
L 425.804939 189.420207 
L 426.418798 189.19707 
L 426.828038 189.145544 
L 427.237277 188.737999 
L 427.851137 188.00496 
L 428.260376 187.86186 
L 428.669615 187.881114 
L 429.078855 188.232591 
L 429.897334 189.653854 
L 430.511193 190.642041 
L 430.920432 190.715108 
L 431.329672 190.471208 
L 431.943531 190.041433 
L 432.352771 190.087301 
L 432.76201 190.199421 
L 433.989728 189.870378 
L 434.398968 189.492416 
L 435.217447 188.234423 
L 435.626686 188.184411 
L 435.831306 188.167802 
L 436.035926 188.033131 
L 436.854405 186.781935 
L 437.059024 186.857119 
L 437.468264 187.507776 
L 438.082123 188.573669 
L 438.695982 188.825097 
L 439.105222 188.754577 
L 439.514461 188.42892 
L 439.9237 188.462633 
L 440.33294 188.901471 
L 441.151419 190.258887 
L 441.765278 190.403792 
L 442.583757 191.841728 
L 442.992996 191.339065 
L 443.402236 190.951616 
L 444.629954 190.800842 
L 445.243813 189.972153 
L 447.085391 186.855792 
L 447.49463 187.427574 
L 448.313109 188.940968 
L 448.517729 188.997844 
L 448.926968 188.724606 
L 449.336208 188.190079 
L 449.950067 187.341303 
L 450.154687 187.385953 
L 450.973166 188.203955 
L 451.177785 187.993537 
L 451.996264 186.380527 
L 452.200884 186.338304 
L 452.405504 186.598899 
L 452.814743 187.805069 
L 453.428602 189.538943 
L 454.656321 190.821616 
L 454.86094 190.682429 
L 455.4748 189.298212 
L 455.884039 188.658279 
L 456.088659 188.61698 
L 456.497898 188.926122 
L 456.907138 189.15992 
L 457.520997 188.656486 
L 457.725617 188.753544 
L 459.157955 190.634293 
L 459.771814 190.878435 
L 459.976434 190.898294 
L 460.181053 190.781832 
L 460.999532 189.412218 
L 461.408772 188.778895 
L 461.613391 188.700282 
L 462.022631 189.121523 
L 462.63649 189.77627 
L 463.04573 189.915402 
L 464.068828 189.931773 
L 464.273448 189.552371 
L 465.091927 186.549556 
L 465.296547 186.485199 
L 465.501166 186.801767 
L 465.910406 188.182612 
L 466.319645 189.582693 
L 466.524265 189.799703 
L 466.933504 189.647874 
L 467.138124 189.809087 
L 468.570462 192.9742 
L 468.775082 193.165456 
L 468.979702 193.182512 
L 469.184321 193.077049 
L 469.593561 192.454136 
L 470.20742 190.650848 
L 471.230519 187.311895 
L 471.435138 187.018523 
L 471.639758 186.990433 
L 473.072096 188.01122 
L 473.276716 188.068712 
L 473.890575 187.847557 
L 474.095195 188.029235 
L 474.709054 189.454189 
L 475.118293 190.210825 
L 475.527533 190.579859 
L 475.732153 190.60544 
L 477.164491 189.878458 
L 477.57373 189.535861 
L 477.77835 189.544914 
L 477.98297 189.838967 
L 478.596829 191.118477 
L 478.801449 191.02057 
L 479.210688 189.970574 
L 479.824547 188.017312 
L 480.029167 187.873185 
L 480.233787 188.089343 
L 481.052265 189.79447 
L 481.256885 189.771009 
L 481.666125 189.498623 
L 481.870744 189.498614 
L 482.689223 189.962843 
L 482.893843 189.948227 
L 483.098463 190.048172 
L 483.507702 190.848841 
L 484.121561 192.257724 
L 485.14466 193.291028 
L 485.34928 193.061472 
L 485.963139 191.589291 
L 486.781618 188.84902 
L 487.600097 186.165955 
L 487.804716 186.133838 
L 488.213956 186.483042 
L 488.623195 186.394518 
L 489.032435 186.327096 
L 489.850914 186.381125 
L 490.055533 186.575047 
L 490.260153 187.071892 
L 491.283252 191.10112 
L 491.692491 191.743229 
L 491.897111 191.757234 
L 492.30635 191.392423 
L 492.71559 190.41171 
L 493.738689 186.823099 
L 493.943308 186.677991 
L 494.147928 186.711551 
L 494.557167 187.16146 
L 495.580266 188.289379 
L 496.194125 188.763452 
L 496.807984 188.963675 
L 497.217224 189.28226 
L 497.421844 189.256782 
L 497.831083 188.994587 
L 498.035703 189.085765 
L 498.444942 189.86874 
L 498.854182 190.549617 
L 499.263421 190.634037 
L 499.672661 190.60584 
L 500.28652 190.738731 
L 500.695759 190.65403 
L 501.104999 190.988366 
L 501.514238 191.68544 
L 502.332717 193.382569 
L 502.741957 193.572642 
L 503.560435 193.646997 
L 504.378914 193.238982 
L 504.992774 193.895695 
L 505.197393 193.782398 
L 505.811252 192.634949 
L 506.220492 192.491657 
L 506.425112 192.434018 
L 506.629731 192.235836 
L 507.038971 191.308434 
L 507.65283 189.69382 
L 508.266689 188.687677 
L 508.675929 188.219821 
L 508.880548 188.238244 
L 509.085168 188.551597 
L 510.108267 191.264661 
L 510.926746 191.973504 
L 511.745225 192.04525 
L 511.949844 191.897778 
L 512.563703 191.10103 
L 512.972943 191.190466 
L 513.791422 191.4241 
L 514.200661 191.250632 
L 514.609901 190.975921 
L 515.01914 191.227032 
L 515.22376 191.349908 
L 515.632999 191.237263 
L 516.246859 190.845032 
L 516.656098 190.867522 
L 517.679197 191.053602 
L 518.088436 190.821554 
L 518.702295 190.385042 
L 519.111535 190.548305 
L 519.316154 190.636879 
L 519.520774 190.557624 
L 519.930014 189.781241 
L 520.543873 188.167324 
L 520.953112 187.675071 
L 521.362352 187.233734 
L 522.79469 184.68037 
L 522.999309 184.708911 
L 523.203929 185.173372 
L 524.227028 189.109556 
L 524.636267 189.426055 
L 524.840887 189.330533 
L 525.659366 188.398519 
L 526.068605 188.860368 
L 526.682465 189.459579 
L 528.933282 192.041464 
L 529.547141 193.27777 
L 529.95638 193.431064 
L 530.36562 193.171744 
L 531.388718 192.17365 
L 532.002577 191.056695 
L 532.616437 189.868542 
L 533.434916 189.372454 
L 534.048775 188.094141 
L 534.253394 187.992369 
L 535.481113 189.005317 
L 535.685733 188.93749 
L 536.299592 188.120873 
L 536.708831 187.67705 
L 536.913451 187.658225 
L 537.32269 188.1389 
L 537.73193 188.572498 
L 538.141169 188.739901 
L 538.550409 189.289401 
L 538.755028 189.565669 
L 538.959648 189.586826 
L 539.573507 188.690179 
L 539.778127 188.721683 
L 540.187367 189.4575 
L 540.596606 190.42139 
L 541.005845 190.85431 
L 542.028944 191.432922 
L 542.847423 189.966875 
L 543.052043 190.006495 
L 543.870522 191.133463 
L 544.279761 191.021788 
L 544.484381 190.855319 
L 544.689001 190.521911 
L 545.09824 189.055711 
L 546.121339 184.200394 
L 546.325958 183.906991 
L 546.530578 183.839858 
L 546.735198 184.016344 
L 546.939818 184.491285 
L 547.962916 188.04333 
L 548.372156 188.45563 
L 548.986015 188.642244 
L 549.599874 189.445519 
L 550.009113 190.205486 
L 550.827592 192.345125 
L 551.032212 192.525985 
L 551.236832 192.492921 
L 551.646071 191.968308 
L 552.46455 190.731676 
L 552.66917 190.580021 
L 553.487649 190.648993 
L 554.101508 189.821187 
L 554.306128 189.77784 
L 555.533846 190.54498 
L 556.352325 192.04636 
L 556.761564 192.246846 
L 557.170804 192.219136 
L 557.375424 192.40521 
L 557.989283 193.387817 
L 558.193902 193.520229 
L 558.398522 193.505865 
L 558.603142 193.332734 
L 559.421621 191.950406 
L 559.626241 191.959566 
L 560.2401 192.61217 
L 560.444719 192.481074 
L 560.853959 191.65651 
L 561.877058 189.05554 
L 562.081677 189.221508 
L 562.490917 189.803884 
L 562.900156 190.172158 
L 563.309396 191.089537 
L 563.718635 192.164645 
L 564.127875 192.578073 
L 564.332494 192.532725 
L 564.537114 192.258572 
L 565.355593 190.111403 
L 565.560213 190.142176 
L 566.378692 191.498762 
L 566.992551 191.653837 
L 567.19717 191.579322 
L 568.015649 190.688741 
L 568.629509 190.969849 
L 569.243368 191.279721 
L 570.061847 192.092244 
L 570.471086 192.055672 
L 572.108044 191.36301 
L 572.721903 191.66516 
L 572.926523 191.582405 
L 573.745002 190.709784 
L 574.563481 190.938534 
L 575.586579 191.853202 
L 575.995819 191.786646 
L 576.200438 191.586016 
L 576.609678 190.690019 
L 577.018917 189.94014 
L 577.223537 190.021774 
L 577.632777 190.513121 
L 577.837396 190.566732 
L 578.655875 190.145012 
L 579.269734 190.003608 
L 579.474354 190.16004 
L 579.883594 191.022151 
L 580.702072 192.878465 
L 581.111312 193.566173 
L 581.315932 193.633492 
L 581.725171 193.497121 
L 582.54365 193.739596 
L 583.566749 192.723122 
L 583.771368 192.762866 
L 584.180608 193.355788 
L 584.589847 194.072007 
L 584.794467 194.200506 
L 584.999087 194.14989 
L 585.612946 193.526539 
L 586.022185 192.525218 
L 586.636045 190.710432 
L 586.840664 190.442573 
L 587.249904 190.356248 
L 587.454523 190.313692 
L 587.863763 189.896463 
L 589.70534 187.372762 
L 590.11458 187.136435 
L 590.3192 187.166893 
L 590.728439 187.709501 
L 591.546918 189.015899 
L 592.365397 189.461988 
L 592.979256 190.549161 
L 593.593115 191.552509 
L 594.206974 191.976528 
L 594.616214 192.152259 
L 595.025453 192.058843 
L 595.230073 191.976918 
L 595.843932 192.24909 
L 596.048552 191.997866 
L 596.457791 190.578971 
L 596.867031 189.131369 
L 597.071651 188.768032 
L 597.27627 188.689578 
L 598.094749 189.144655 
L 598.503989 188.941108 
L 598.913228 188.638354 
L 599.527087 188.614899 
L 600.140946 187.980535 
L 600.345566 188.000447 
L 600.754806 188.440317 
L 601.164045 189.225811 
L 601.777904 191.192179 
L 602.187144 192.282952 
L 602.391763 192.54878 
L 602.596383 192.60867 
L 604.233341 191.725542 
L 604.64258 191.507105 
L 605.05182 190.892764 
L 605.461059 190.168091 
L 605.665679 190.007949 
L 605.870299 190.099925 
L 606.279538 190.890371 
L 606.688778 191.824056 
L 606.893397 192.053069 
L 608.121116 192.246178 
L 608.939595 191.599254 
L 609.348834 191.873231 
L 609.758074 192.249422 
L 610.576553 192.570745 
L 610.985792 192.963509 
L 611.395031 192.999137 
L 611.804271 192.595716 
L 612.21351 192.073094 
L 612.62275 192.074607 
L 612.82737 192.076082 
L 614.055088 191.471568 
L 614.873567 191.333774 
L 615.282806 191.192726 
L 615.487426 191.409214 
L 616.715144 194.000675 
L 616.919764 193.878507 
L 617.738243 192.871803 
L 618.147482 192.973935 
L 618.352102 193.033226 
L 618.556722 192.966893 
L 618.965961 192.446269 
L 619.98906 190.874579 
L 620.398299 190.212475 
L 620.807539 190.196359 
L 621.216778 190.412281 
L 622.444497 191.560625 
L 622.853736 191.677774 
L 623.058356 191.629071 
L 623.467595 191.131681 
L 623.876835 190.567524 
L 624.490694 190.308723 
L 624.899933 189.675009 
L 625.309173 188.858934 
L 625.513793 188.681922 
L 626.332272 188.709063 
L 626.741511 188.751851 
L 627.969229 189.55574 
L 628.583089 189.39281 
L 628.992328 189.395982 
L 629.196948 189.546119 
L 629.606187 190.260055 
L 630.015427 190.968462 
L 630.220046 190.900899 
L 630.629286 189.975313 
L 631.243145 188.462732 
L 631.447765 188.309805 
L 631.652384 188.392778 
L 632.061624 189.012073 
L 632.470863 189.639509 
L 632.675483 189.697882 
L 632.880103 189.491756 
L 633.493962 188.350808 
L 633.698582 188.2553 
L 633.903201 188.385173 
L 634.72168 189.460832 
L 635.13092 189.369786 
L 635.540159 188.924234 
L 636.358638 187.647761 
L 636.767878 187.376783 
L 637.177117 187.16398 
L 637.995596 186.166557 
L 638.200216 186.13521 
L 638.404835 186.228843 
L 638.814075 186.884924 
L 639.837173 189.3671 
L 640.041793 189.254562 
L 640.451033 188.458963 
L 641.474131 185.453362 
L 641.678751 185.32075 
L 641.883371 185.408577 
L 642.08799 185.771513 
L 642.49723 187.498457 
L 642.906469 189.793702 
L 643.111089 190.468243 
L 643.315709 190.693251 
L 644.338807 190.602224 
L 644.543427 190.295832 
L 645.361906 188.239274 
L 645.566526 188.152402 
L 645.771146 188.212321 
L 645.975765 188.477181 
L 646.385005 189.637586 
L 646.794244 190.893591 
L 646.998864 191.205541 
L 647.203484 191.221004 
L 647.612723 190.590887 
L 649.045061 187.654247 
L 649.249681 187.440021 
L 649.454301 187.436415 
L 650.06816 187.949341 
L 650.682019 188.437527 
L 650.886639 188.476281 
L 651.091258 188.318932 
L 652.114357 186.696834 
L 652.523597 187.769489 
L 652.932836 188.996358 
L 653.342075 189.663029 
L 653.751315 189.918301 
L 654.160554 189.809048 
L 654.569794 189.357163 
L 655.388273 188.198022 
L 655.592892 188.096267 
L 656.206752 188.440696 
L 656.411371 188.2633 
L 657.22985 186.839296 
L 657.43447 186.882751 
L 658.662188 187.921255 
L 659.071428 188.302243 
L 659.480667 189.312614 
L 659.889907 190.519936 
L 660.094526 190.700902 
L 660.299146 190.507175 
L 661.526865 187.908504 
L 661.731484 187.897721 
L 662.140724 188.151695 
L 662.345343 188.119314 
L 662.754583 187.429669 
L 663.368442 186.307772 
L 663.982301 185.279861 
L 664.391541 185.100285 
L 665.0054 185.039676 
L 665.21002 184.766394 
L 665.619259 183.677158 
L 666.028499 182.496602 
L 666.437738 181.969404 
L 666.846977 182.042331 
L 667.051597 182.248013 
L 667.870076 183.532269 
L 668.074696 183.238944 
L 669.507034 179.333765 
L 669.711654 179.168421 
L 670.120893 179.362285 
L 670.325513 179.464113 
L 670.530133 179.432358 
L 671.143992 178.950922 
L 671.553231 179.064818 
L 672.16709 179.514022 
L 672.37171 179.797836 
L 672.78095 180.943171 
L 674.008668 185.826861 
L 674.417907 186.395546 
L 674.827147 186.605858 
L 675.645626 186.678896 
L 676.054865 186.621022 
L 676.464105 186.238206 
L 676.873344 185.792004 
L 677.487203 185.635646 
L 677.896443 185.335023 
L 678.305682 185.358986 
L 678.510302 185.513365 
L 678.714922 185.837508 
L 679.124161 187.120028 
L 679.5334 188.436185 
L 679.73802 188.701024 
L 680.14726 188.607472 
L 680.965739 188.279442 
L 681.374978 187.700457 
L 681.579598 187.6424 
L 681.988837 188.112681 
L 682.398077 188.566798 
L 682.602696 188.563304 
L 683.011936 188.109001 
L 683.830415 186.63764 
L 684.035034 186.64487 
L 684.648894 187.508928 
L 685.058133 188.339445 
L 685.671992 189.915623 
L 687.30895 191.908005 
L 687.51357 191.862769 
L 687.922809 191.432115 
L 688.536668 190.622083 
L 688.945908 190.448611 
L 689.150528 190.417203 
L 689.355147 190.229504 
L 689.764387 189.231882 
L 690.378246 187.687207 
L 690.582866 187.514829 
L 690.787485 187.578054 
L 691.401345 188.243604 
L 691.605964 188.173854 
L 692.219824 187.634898 
L 692.424443 187.730112 
L 692.629063 188.115743 
L 693.652162 191.010545 
L 693.856781 191.130236 
L 694.061401 191.091772 
L 694.266021 190.877584 
L 694.67526 189.721544 
L 695.289119 187.304446 
L 695.493739 186.873889 
L 695.698359 186.71668 
L 695.902979 186.808669 
L 696.516838 187.538733 
L 696.721458 187.521346 
L 697.539936 186.805484 
L 697.949176 187.572095 
L 698.358415 188.441331 
L 698.563035 188.614986 
L 698.767655 188.571287 
L 699.381514 188.086033 
L 699.586134 188.180847 
L 699.995373 188.962381 
L 700.404613 189.702767 
L 700.609232 189.75009 
L 701.223092 189.294193 
L 701.632331 189.22026 
L 702.45081 188.429724 
L 703.064669 188.176327 
L 703.473909 188.058491 
L 703.678528 188.086563 
L 703.883148 188.27597 
L 704.292387 189.437755 
L 704.701627 190.923985 
L 704.906247 191.287267 
L 705.110866 191.333588 
L 705.520106 191.015977 
L 705.929345 190.517008 
L 707.157064 188.367801 
L 707.361683 188.353455 
L 707.770923 188.718318 
L 708.384782 189.28698 
L 708.794021 189.486102 
L 709.203261 189.356788 
L 709.81712 188.727352 
L 710.02174 188.725023 
L 710.430979 189.032084 
L 711.249458 189.851169 
L 711.658698 189.849638 
L 712.272557 189.661889 
L 712.681796 189.821542 
L 714.114134 190.979325 
L 714.523374 190.822255 
L 715.137233 190.34429 
L 715.341853 190.311895 
L 716.160332 190.693222 
L 716.774191 190.623596 
L 717.18343 190.691682 
L 717.59267 191.087732 
L 718.001909 191.691807 
L 718.411149 191.840397 
L 718.820388 191.918039 
L 719.229627 192.009785 
L 719.638867 191.893832 
L 719.843487 191.617314 
L 720.866585 189.306547 
L 722.094304 189.054742 
L 722.503543 189.234409 
L 723.322022 190.109807 
L 723.526642 189.986461 
L 724.345121 188.763826 
L 724.54974 188.813443 
L 724.95898 189.238011 
L 725.368219 189.727129 
L 725.777459 189.850353 
L 726.391318 189.79463 
L 727.209797 189.340297 
L 727.619036 189.572545 
L 728.028276 190.168691 
L 729.255994 192.642886 
L 729.460614 192.680194 
L 729.869853 192.173001 
L 730.279093 191.749293 
L 730.688332 191.560689 
L 731.302191 190.928142 
L 731.506811 191.070077 
L 731.916051 192.068069 
L 732.52991 193.726576 
L 732.734529 193.911966 
L 733.143769 193.831729 
L 733.553008 193.418852 
L 733.962248 192.685269 
L 734.576107 191.268853 
L 735.189966 190.531866 
L 735.599206 190.256723 
L 736.417685 190.219182 
L 736.622304 189.958634 
L 737.031544 188.910633 
L 737.645403 187.190169 
L 738.054642 186.796974 
L 738.259262 186.688076 
L 738.463882 186.717033 
L 738.668502 186.97593 
L 739.077741 187.965993 
L 739.89622 190.215799 
L 740.10084 190.242414 
L 740.714699 189.65139 
L 740.919319 189.746894 
L 741.328558 190.446048 
L 741.942417 191.730554 
L 742.351657 192.147185 
L 742.965516 192.369778 
L 743.374755 192.333214 
L 743.783995 191.929864 
L 744.193234 190.864699 
L 744.602474 189.661082 
L 745.011713 189.169994 
L 745.420953 189.203522 
L 745.625572 189.343845 
L 745.830192 189.666834 
L 746.648671 191.79707 
L 746.853291 191.803799 
L 747.05791 191.576758 
L 747.46715 190.452646 
L 748.081009 188.382405 
L 748.285629 188.279479 
L 748.490248 188.432655 
L 748.899488 189.367022 
L 749.717967 192.16058 
L 749.922587 192.120094 
L 750.945685 190.078518 
L 751.354925 189.921561 
L 751.764164 190.28135 
L 752.787263 191.755087 
L 753.196502 191.984409 
L 753.810361 192.735578 
L 754.219601 193.374013 
L 754.42422 193.527829 
L 754.62884 193.440989 
L 755.03808 192.644381 
L 755.447319 191.74814 
L 755.856559 191.31791 
L 756.675037 191.040785 
L 757.084277 191.370885 
L 757.288897 191.547921 
L 757.493516 191.569724 
L 757.698136 191.365182 
L 758.107376 190.356728 
L 758.516615 189.371607 
L 759.130474 188.760964 
L 759.335094 188.651907 
L 759.539714 188.693223 
L 759.948953 189.264954 
L 760.767432 190.42895 
L 760.972052 190.535419 
L 761.585911 190.491743 
L 761.99515 191.017319 
L 762.40439 191.550098 
L 762.60901 191.515548 
L 763.222869 190.71392 
L 764.450587 189.131037 
L 764.655207 189.097823 
L 765.269066 189.653752 
L 765.678305 190.121505 
L 766.292165 191.239898 
L 766.496784 191.349941 
L 766.906024 191.013959 
L 767.315263 190.612445 
L 767.929122 190.414754 
L 768.542982 190.255152 
L 768.747601 190.053644 
L 769.156841 188.984927 
L 769.56608 187.595411 
L 769.7707 187.253342 
L 769.97532 187.28538 
L 770.384559 188.244835 
L 770.793799 189.144298 
L 771.203038 189.168146 
L 771.407658 189.379429 
L 772.226137 191.368493 
L 772.430756 191.384007 
L 773.249235 190.783833 
L 773.658475 190.875729 
L 774.272334 191.18527 
L 775.295433 190.866265 
L 775.909292 190.24026 
L 776.318531 189.456248 
L 777.13701 187.702043 
L 777.34163 187.526981 
L 777.54625 187.708032 
L 777.955489 189.135472 
L 778.773968 192.585468 
L 779.183207 193.289144 
L 779.387827 193.29843 
L 779.592447 193.087398 
L 780.001686 192.201948 
L 780.820165 190.054847 
L 781.229405 189.505179 
L 781.638644 189.281445 
L 781.843264 189.435416 
L 782.457123 190.518177 
L 783.070982 192.052084 
L 783.480222 192.835519 
L 783.889461 193.040899 
L 784.298701 193.083868 
L 784.91256 193.604141 
L 785.321799 193.908183 
L 785.731039 193.946602 
L 786.140278 193.613617 
L 786.754137 192.950493 
L 787.163377 192.613518 
L 787.572616 191.877786 
L 787.981856 191.071355 
L 788.186475 191.088506 
L 788.595715 192.083793 
L 789.004954 193.177142 
L 789.209574 193.368631 
L 789.414194 193.306504 
L 789.823433 192.620058 
L 790.641912 190.516906 
L 791.051152 190.422172 
L 791.460391 190.313704 
L 792.27887 189.689969 
L 792.892729 190.034224 
L 793.301969 190.608183 
L 794.120447 192.109825 
L 794.734307 192.320758 
L 795.143546 192.177609 
L 795.552786 191.974453 
L 795.757405 192.030182 
L 796.575884 192.63531 
L 797.189743 192.391515 
L 797.598983 192.50178 
L 797.803603 192.355217 
L 798.212842 191.291539 
L 798.622081 190.253378 
L 798.826701 190.070405 
L 799.235941 190.158453 
L 799.64518 190.25992 
L 799.8498 190.137132 
L 800.668279 189.023944 
L 800.872898 189.045091 
L 801.282138 189.385267 
L 801.691377 189.761303 
L 802.714476 190.027355 
L 803.532955 190.545153 
L 803.737575 190.443644 
L 804.760673 189.277796 
L 805.169913 189.433176 
L 805.988392 190.067848 
L 806.602251 190.549656 
L 807.21611 190.806123 
L 807.625349 190.574146 
L 808.034589 190.339137 
L 808.443828 190.510658 
L 808.853068 190.719788 
L 809.057688 190.597373 
L 809.466927 189.691645 
L 809.876166 188.592173 
L 810.285406 188.086134 
L 810.694645 187.852638 
L 811.103885 187.356366 
L 811.513124 186.85527 
L 811.717744 186.866176 
L 811.922364 187.083736 
L 813.150082 189.327091 
L 813.763941 189.751656 
L 814.173181 189.721506 
L 814.78704 189.283196 
L 814.99166 189.410685 
L 816.423998 192.111256 
L 817.037857 193.902979 
L 817.242477 194.259951 
L 817.447096 194.325897 
L 817.651716 194.101477 
L 818.060956 193.108255 
L 819.288674 189.918469 
L 819.697913 189.601758 
L 820.107153 189.294667 
L 820.925632 188.21196 
L 821.334871 187.971406 
L 821.94873 188.111598 
L 822.767209 187.687206 
L 822.971829 187.937819 
L 824.199547 190.315294 
L 824.813407 190.561086 
L 825.222646 190.300526 
L 825.836505 189.907793 
L 826.041125 189.916778 
L 826.450364 190.317209 
L 826.859604 190.831849 
L 827.678083 191.06175 
L 827.882702 191.010615 
L 828.087322 190.67035 
L 829.31504 187.125239 
L 829.72428 186.947547 
L 829.9289 187.069721 
L 830.338139 187.716709 
L 830.951998 188.736098 
L 832.179717 189.979586 
L 832.588956 190.296504 
L 832.998196 190.265698 
L 833.407435 189.988857 
L 834.430534 188.660393 
L 834.839773 188.497023 
L 835.044393 188.611203 
L 835.658252 189.357789 
L 836.067491 189.319853 
L 836.272111 189.500719 
L 836.681351 190.469035 
L 837.09059 191.356975 
L 837.29521 191.421913 
L 837.704449 190.935776 
L 838.522928 189.593545 
L 839.136787 187.79635 
L 839.546027 186.865563 
L 840.159886 186.123062 
L 840.364506 186.05127 
L 840.569125 186.206688 
L 840.978365 187.186213 
L 841.592224 188.987166 
L 842.410703 190.331801 
L 842.819942 190.668578 
L 843.229182 190.685111 
L 843.638421 190.404496 
L 844.66152 189.037979 
L 844.86614 189.034135 
L 845.070759 189.27317 
L 845.889238 190.774779 
L 846.093858 190.825662 
L 846.298478 190.699652 
L 847.116957 189.841389 
L 847.321576 189.969537 
L 847.935436 190.622749 
L 848.344675 190.508366 
L 848.753915 190.106378 
L 849.163154 189.521161 
L 849.367774 189.047812 
L 849.777013 187.21773 
L 850.186253 185.559924 
L 850.595492 184.865347 
L 850.800112 184.211914 
L 851.209351 181.697463 
L 851.618591 179.169743 
L 851.82321 178.60636 
L 852.02783 178.632047 
L 852.43707 179.842704 
L 853.664788 184.482437 
L 854.278647 186.256112 
L 854.687887 187.011774 
L 855.097126 187.259382 
L 855.710985 187.406729 
L 855.915605 187.619253 
L 856.324844 188.519966 
L 856.938704 189.924132 
L 857.143323 190.014566 
L 857.757183 189.711954 
L 858.371042 189.854709 
L 858.780281 189.257442 
L 859.189521 188.558097 
L 859.80338 188.089131 
L 860.212619 187.924137 
L 860.621859 188.149656 
L 860.826478 188.065023 
L 861.644957 186.644665 
L 861.849577 186.805349 
L 862.463436 187.851782 
L 862.668056 187.838966 
L 863.281915 187.458714 
L 863.486535 187.649521 
L 864.100394 189.028975 
L 864.305014 189.167707 
L 864.509634 189.061369 
L 864.714253 188.737305 
L 865.123493 187.443645 
L 865.737352 185.428342 
L 865.941972 185.140321 
L 866.146591 185.136206 
L 866.555831 185.837079 
L 866.96507 186.627723 
L 867.16969 186.779903 
L 867.37431 186.774198 
L 867.783549 186.40559 
L 868.192789 185.54981 
L 868.806648 184.278842 
L 869.625127 183.635732 
L 870.034366 183.495278 
L 871.057465 183.492296 
L 871.262084 183.234254 
L 872.489803 180.330745 
L 872.694423 180.414383 
L 872.899042 180.814065 
L 873.512901 183.206993 
L 873.922141 184.422305 
L 874.126761 184.583834 
L 874.33138 184.510077 
L 874.94524 183.700047 
L 875.763718 182.668888 
L 876.377578 182.112297 
L 877.605296 180.240409 
L 877.809916 180.194199 
L 878.014535 180.352102 
L 878.423775 181.304289 
L 878.833014 182.417913 
L 879.037634 182.66211 
L 879.856113 182.823192 
L 880.060733 182.846738 
L 880.265352 182.69904 
L 880.674592 181.754168 
L 881.083831 180.872259 
L 881.697691 180.364838 
L 882.10693 180.294403 
L 882.925409 180.511726 
L 883.334648 180.300033 
L 883.743888 179.68768 
L 884.562367 178.282457 
L 884.971606 177.933431 
L 885.176226 177.998982 
L 885.380846 178.311168 
L 885.994705 179.914932 
L 886.199325 180.121603 
L 886.403944 180.052666 
L 886.813184 179.31983 
L 887.427043 178.194208 
L 887.836282 177.657966 
L 888.245522 176.45411 
L 889.064001 173.413386 
L 889.47324 172.563817 
L 890.087099 171.842901 
L 890.291719 171.786699 
L 890.700959 172.145955 
L 891.314818 172.938533 
L 891.928677 173.250744 
L 892.133297 173.201335 
L 892.337916 172.965015 
L 892.747156 171.946416 
L 893.156395 170.922364 
L 893.770254 170.21087 
L 894.384114 169.503374 
L 894.793353 168.662318 
L 895.202593 167.110531 
L 896.225691 162.705131 
L 897.04417 160.506723 
L 898.476508 157.24886 
L 899.090367 155.654493 
L 899.499607 154.89344 
L 899.704227 154.091305 
L 900.113466 151.067122 
L 900.522705 146.610666 
L 901.136565 136.745783 
L 901.750424 127.739677 
L 901.955044 126.98955 
L 902.159663 127.592801 
L 903.387382 136.393887 
L 903.796621 137.745201 
L 904.205861 138.412928 
L 904.41048 138.507899 
L 904.6151 138.438068 
L 905.024339 137.900936 
L 905.638199 137.062835 
L 905.842818 137.089932 
L 906.047438 137.346633 
L 906.456677 138.421554 
L 906.865917 139.818091 
L 907.070537 140.184341 
L 907.275156 140.208922 
L 907.684396 139.609163 
L 908.298255 137.863792 
L 908.707494 136.819043 
L 909.116734 136.362029 
L 909.321354 136.457154 
L 909.730593 137.452253 
L 910.344452 138.963626 
L 911.367551 140.706729 
L 911.572171 140.583903 
L 911.98141 139.824105 
L 912.595269 138.635061 
L 913.618368 137.335649 
L 914.641467 137.743932 
L 914.846086 138.050764 
L 915.664565 140.152008 
L 915.869185 140.26795 
L 916.073805 140.183016 
L 916.278424 139.867724 
L 916.687664 138.338388 
L 917.096903 136.384104 
L 917.301523 136.052968 
L 917.506143 136.396685 
L 918.120002 138.321721 
L 918.324622 138.163122 
L 918.529241 137.395479 
L 918.938481 134.12159 
L 919.34772 127.907047 
L 919.75696 117.022354 
L 920.780058 81.154384 
L 920.984678 81.923115 
L 921.393918 94.231234 
L 922.212396 122.562902 
L 922.621636 130.716988 
L 923.030875 135.572716 
L 923.440115 138.484374 
L 923.849354 139.895304 
L 924.463213 140.948235 
L 925.077073 141.572323 
L 925.690932 142.941384 
L 925.895552 143.101978 
L 926.100171 142.967122 
L 926.509411 141.822846 
L 926.91865 140.364947 
L 928.146369 137.767907 
L 928.350988 137.558245 
L 928.555608 137.647431 
L 928.964847 138.466868 
L 929.374087 139.331488 
L 929.987946 139.959808 
L 930.397186 140.539433 
L 930.806425 141.232363 
L 931.420284 141.975266 
L 932.034143 143.26289 
L 932.238763 143.377725 
L 932.443383 143.134139 
L 933.466481 140.558307 
L 933.875721 140.166577 
L 934.28496 140.11037 
L 934.89882 140.20032 
L 935.103439 140.462063 
L 935.512679 141.837116 
L 936.331158 144.724912 
L 936.740397 145.606544 
L 937.763496 146.609636 
L 938.581975 146.647008 
L 939.605073 148.37071 
L 939.809693 148.478383 
L 940.014313 148.379186 
L 940.423552 148.028747 
L 940.628172 148.254995 
L 941.446651 150.552452 
L 942.674369 151.873009 
L 943.492848 152.013215 
L 943.902087 152.921616 
L 944.720566 155.834325 
L 945.129806 157.120835 
L 945.539045 157.533007 
L 946.357524 158.073728 
L 947.176003 157.448522 
L 947.380623 157.538794 
L 947.585243 157.870218 
L 947.994482 159.308399 
L 949.017581 164.041916 
L 949.63144 165.151857 
L 950.654538 166.557974 
L 951.268398 167.039706 
L 951.677637 167.564333 
L 952.905355 169.660289 
L 953.314595 169.751561 
L 953.928454 169.560218 
L 954.133074 169.790825 
L 955.770032 172.960812 
L 956.179271 173.346835 
L 956.588511 173.360779 
L 957.406989 172.878242 
L 957.611609 173.037571 
L 958.634708 174.805966 
L 959.248567 176.841293 
L 959.657806 177.879788 
L 960.067046 178.120479 
L 960.680905 177.976829 
L 961.090145 177.958869 
L 961.499384 178.132709 
L 961.704004 178.072557 
L 962.113243 177.468609 
L 962.727102 176.451485 
L 962.931722 176.335445 
L 963.136342 176.448163 
L 963.545581 177.372082 
L 964.36406 179.664472 
L 964.56868 179.731598 
L 964.977919 179.159412 
L 965.591779 178.174186 
L 965.796398 178.004444 
L 966.001018 178.020545 
L 966.410257 178.471086 
L 966.819497 179.209532 
L 967.228736 180.47288 
L 967.842596 182.478061 
L 968.047215 182.649706 
L 968.661074 182.319603 
L 969.070314 182.699549 
L 970.093413 183.857023 
L 970.502652 184.17056 
L 970.911891 184.414449 
L 971.321131 184.684914 
L 971.525751 184.671776 
L 971.93499 184.332202 
L 972.548849 183.665777 
L 972.958089 183.574314 
L 973.367328 184.065505 
L 973.776568 184.552541 
L 973.981187 184.469972 
L 974.595047 183.570311 
L 974.799666 183.634812 
L 975.413525 184.351585 
L 975.822765 184.332733 
L 976.641244 183.697369 
L 977.459723 183.050776 
L 978.278202 181.646928 
L 978.892061 181.252169 
L 979.3013 180.552077 
L 979.915159 179.222426 
L 980.119779 179.360874 
L 980.529019 180.838129 
L 981.142878 183.275783 
L 981.552117 183.879978 
L 981.961357 184.075136 
L 982.370596 183.788621 
L 983.393695 182.886246 
L 983.598314 183.029779 
L 983.802934 183.478465 
L 984.212174 185.463918 
L 984.621413 187.669918 
L 985.030653 188.917858 
L 985.849131 190.484636 
L 986.258371 190.802892 
L 986.462991 190.661756 
L 986.87223 190.126231 
L 987.07685 190.083189 
L 987.486089 190.55262 
L 987.895329 190.896252 
L 988.099948 190.876814 
L 988.509188 190.465724 
L 989.736906 188.487775 
L 990.146146 188.30668 
L 990.760005 188.246295 
L 991.987723 188.894269 
L 992.396963 188.997056 
L 992.601582 189.081441 
L 992.806202 189.019126 
L 993.420061 188.427372 
L 993.624681 188.59921 
L 994.033921 189.57782 
L 994.64778 190.950676 
L 995.261639 191.732512 
L 995.466259 191.685608 
L 995.670878 191.369835 
L 996.489357 189.497835 
L 996.898597 189.106019 
L 997.307836 189.05665 
L 997.717076 189.414319 
L 998.944794 191.217481 
L 999.558653 191.006949 
L 999.763273 190.820076 
L 999.967893 190.426859 
L 1000.581752 188.099401 
L 1001.195611 186.176343 
L 1001.60485 185.491129 
L 1001.80947 185.473223 
L 1002.21871 185.93771 
L 1003.241808 187.589363 
L 1003.855667 188.188181 
L 1004.264907 188.499736 
L 1005.083386 189.306153 
L 1005.492625 189.197072 
L 1005.697245 189.301068 
L 1006.515724 190.656488 
L 1006.720344 190.574858 
L 1006.924963 190.122627 
L 1007.948062 186.632348 
L 1008.152682 186.383607 
L 1008.357301 186.371543 
L 1008.766541 186.70746 
L 1009.17578 187.304136 
L 1010.403499 189.70739 
L 1010.608118 189.631411 
L 1011.631217 188.704301 
L 1012.858935 188.411543 
L 1013.063555 188.633155 
L 1013.472795 189.622481 
L 1014.086654 191.111198 
L 1014.495893 191.40233 
L 1014.905133 191.152283 
L 1015.928231 189.988605 
L 1016.337471 190.172325 
L 1016.74671 190.433713 
L 1017.360569 190.585104 
L 1017.565189 190.705547 
L 1017.769809 190.684427 
L 1018.179048 190.029137 
L 1018.588288 189.540693 
L 1018.997527 189.421007 
L 1019.406767 188.871536 
L 1020.429865 186.774335 
L 1021.043724 186.622803 
L 1021.657584 185.956692 
L 1021.862203 186.029354 
L 1022.885302 187.40525 
L 1023.499161 188.457982 
L 1023.703781 188.52493 
L 1024.31764 188.082706 
L 1024.72688 188.191053 
L 1025.136119 188.258423 
L 1025.545358 187.948901 
L 1026.159218 187.126333 
L 1026.363837 187.141419 
L 1027.182316 188.158715 
L 1027.591556 187.689626 
L 1027.796175 187.630968 
L 1028.000795 187.771933 
L 1028.410035 188.515031 
L 1029.023894 189.677878 
L 1029.228514 189.76989 
L 1029.637753 189.404837 
L 1030.046992 189.150756 
L 1030.456232 189.376435 
L 1030.660852 189.517394 
L 1030.865471 189.486567 
L 1031.070091 189.149222 
L 1031.68395 187.598759 
L 1031.88857 187.574508 
L 1032.297809 187.811464 
L 1033.116288 187.706509 
L 1033.525528 187.885354 
L 1033.934767 187.985286 
L 1035.367105 189.179743 
L 1035.571725 189.157643 
L 1035.776345 188.934897 
L 1036.594824 187.274374 
L 1036.799443 187.233419 
L 1037.004063 187.417044 
L 1037.413303 188.440618 
L 1038.231782 191.06303 
L 1038.845641 191.924555 
L 1039.4595 192.581296 
L 1039.66412 192.536131 
L 1039.868739 192.265153 
L 1040.687218 190.170487 
L 1041.505697 188.125391 
L 1041.710317 188.004202 
L 1041.914937 188.152649 
L 1042.528796 189.2223 
L 1042.733416 189.184275 
L 1043.961134 187.813366 
L 1044.165754 187.836852 
L 1044.574993 188.383807 
L 1045.188852 189.361281 
L 1045.802711 190.251012 
L 1046.007331 190.325047 
L 1046.416571 189.946519 
L 1046.82581 189.533557 
L 1047.23505 189.603223 
L 1047.644289 189.636068 
L 1048.053528 189.446612 
L 1049.281247 189.55893 
L 1049.895106 190.510973 
L 1050.099726 190.340192 
L 1050.508965 188.859122 
L 1050.918205 187.395925 
L 1051.122824 187.13425 
L 1051.327444 187.176944 
L 1051.736684 187.665125 
L 1052.145923 188.546919 
L 1052.555162 189.352146 
L 1052.964402 189.276832 
L 1053.578261 189.134332 
L 1054.19212 189.138724 
L 1054.805979 188.595816 
L 1055.829078 187.241396 
L 1056.033698 187.43519 
L 1056.442937 188.290635 
L 1057.261416 190.305628 
L 1057.466036 190.364711 
L 1057.875275 189.953141 
L 1058.489135 189.125414 
L 1058.693754 189.103436 
L 1059.512233 189.914998 
L 1059.921473 189.673657 
L 1060.330712 189.370204 
L 1060.535332 189.462632 
L 1060.944571 190.293299 
L 1061.353811 191.186875 
L 1061.55843 191.188345 
L 1061.76305 190.774429 
L 1062.376909 188.761089 
L 1062.581529 188.512549 
L 1062.786149 188.56488 
L 1063.195388 189.176445 
L 1063.604628 190.280605 
L 1064.218487 192.304263 
L 1064.423107 192.657944 
L 1064.627726 192.771876 
L 1065.241585 192.534803 
L 1065.650825 192.171004 
L 1066.060064 191.247274 
L 1066.673924 189.704102 
L 1067.083163 189.131926 
L 1067.492402 188.960378 
L 1067.901642 189.052442 
L 1068.720121 189.794622 
L 1069.33398 189.78357 
L 1069.743219 189.557629 
L 1070.357079 188.93261 
L 1070.766318 188.697649 
L 1070.970938 188.324007 
L 1071.380177 186.784377 
L 1071.789417 185.244436 
L 1071.994036 184.88922 
L 1072.198656 184.822046 
L 1072.607896 185.189352 
L 1073.835614 187.041691 
L 1074.449473 188.735285 
L 1075.267952 191.10488 
L 1075.677192 191.863248 
L 1076.086431 191.956793 
L 1076.70029 192.037574 
L 1077.10953 192.209673 
L 1077.314149 192.149449 
L 1077.518769 191.857123 
L 1078.951107 188.661201 
L 1079.564966 187.574712 
L 1079.769586 187.52194 
L 1080.178826 187.979428 
L 1081.201924 189.547153 
L 1081.815783 189.470267 
L 1082.020403 189.730604 
L 1082.838882 191.519013 
L 1083.248121 191.692614 
L 1083.861981 191.616325 
L 1084.68046 191.367609 
L 1085.294319 191.636595 
L 1085.498938 191.523171 
L 1085.908178 190.670578 
L 1087.135896 187.166936 
L 1087.340516 187.065797 
L 1087.545136 187.189543 
L 1087.954375 187.927846 
L 1088.568234 189.758512 
L 1089.386713 192.573604 
L 1089.591333 192.811104 
L 1089.795953 192.793371 
L 1090.819051 191.901779 
L 1091.228291 191.935127 
L 1091.63753 192.245572 
L 1091.84215 192.14255 
L 1092.251389 191.220907 
L 1093.479108 188.223867 
L 1093.888347 187.644769 
L 1094.297587 187.641124 
L 1094.706826 187.670091 
L 1094.911446 187.604978 
L 1095.116066 187.666759 
L 1095.320685 188.00343 
L 1096.139164 190.110272 
L 1096.957643 190.271089 
L 1097.571502 191.073894 
L 1097.776122 191.18242 
L 1097.980742 191.108914 
L 1098.389981 190.520616 
L 1098.799221 189.866997 
L 1099.41308 189.427502 
L 1100.026939 189.343977 
L 1100.231559 189.302218 
L 1100.640798 188.85554 
L 1101.254657 187.506639 
L 1101.868517 186.163822 
L 1102.277756 185.662433 
L 1102.482376 185.625129 
L 1102.686995 185.834507 
L 1103.096235 187.024034 
L 1103.505474 187.989872 
L 1103.710094 188.029217 
L 1104.528573 187.478487 
L 1104.733193 187.642717 
L 1105.756291 189.301719 
L 1106.165531 189.040699 
L 1107.393249 188.030094 
L 1107.597869 188.007389 
L 1108.211728 188.353604 
L 1108.416348 188.586846 
L 1108.825587 189.608176 
L 1109.234827 190.534765 
L 1109.439446 190.530303 
L 1110.053306 189.687487 
L 1110.667165 188.797701 
L 1110.871785 188.683251 
L 1111.076404 188.790862 
L 1111.485644 189.630771 
L 1111.894883 190.414124 
L 1112.099503 190.461213 
L 1112.508742 190.31319 
L 1112.713362 190.361354 
L 1113.122602 190.955605 
L 1113.531841 191.58517 
L 1113.94108 191.776989 
L 1114.35032 191.773176 
L 1115.373419 191.317942 
L 1115.782658 191.076262 
L 1116.601137 190.028552 
L 1116.805757 190.082442 
L 1117.828855 191.0385 
L 1118.238095 190.826454 
L 1118.851954 189.917336 
L 1119.465813 188.848151 
L 1119.875053 188.869887 
L 1120.079672 188.862175 
L 1120.488912 188.381454 
L 1120.898151 188.026812 
L 1121.307391 187.911765 
L 1121.92125 187.286243 
L 1122.12587 187.276687 
L 1122.330489 187.476995 
L 1122.739729 188.512879 
L 1123.353588 190.406065 
L 1123.762827 190.866738 
L 1124.990546 190.942242 
L 1125.195165 190.832133 
L 1125.604405 190.060798 
L 1126.218264 188.86252 
L 1126.422884 188.663773 
L 1126.627504 188.70031 
L 1126.832123 189.110328 
L 1127.855222 192.945304 
L 1128.059842 192.816244 
L 1128.469081 191.374975 
L 1129.08294 188.388101 
L 1129.28756 187.907612 
L 1129.49218 187.899157 
L 1130.106039 188.764153 
L 1130.515278 188.649137 
L 1130.924518 188.387676 
L 1131.538377 187.690634 
L 1131.742997 187.65394 
L 1132.152236 187.786926 
L 1132.766095 187.555919 
L 1133.789194 187.905479 
L 1134.198433 187.660874 
L 1134.403053 187.513069 
L 1134.607673 187.534707 
L 1134.812293 187.83935 
L 1135.426152 189.895696 
L 1136.040011 191.401952 
L 1136.44925 191.944469 
L 1137.06311 192.355563 
L 1137.267729 192.215942 
L 1137.676969 191.294855 
L 1138.495448 189.133484 
L 1138.700067 188.940342 
L 1138.904687 188.947374 
L 1139.313927 189.160985 
L 1139.518546 188.944915 
L 1139.927786 187.53097 
L 1140.337025 185.803707 
L 1140.541645 185.363468 
L 1140.746265 185.378019 
L 1141.564744 186.979789 
L 1142.587842 189.491519 
L 1143.201701 189.630848 
L 1143.610941 189.889395 
L 1144.02018 189.822149 
L 1144.838659 189.189876 
L 1145.247899 189.673705 
L 1145.452518 189.921499 
L 1145.657138 189.953424 
L 1146.884856 188.776623 
L 1147.498716 187.530628 
L 1147.703335 187.440657 
L 1147.907955 187.655185 
L 1148.521814 188.886283 
L 1148.726434 189.059493 
L 1148.931054 189.050266 
L 1149.544913 188.548091 
L 1149.749533 188.652323 
L 1150.772631 189.912536 
L 1151.38649 190.304966 
L 1152.204969 189.711456 
L 1152.614209 189.725661 
L 1152.818829 189.600539 
L 1153.228068 188.919637 
L 1153.841927 187.558711 
L 1154.046547 187.307875 
L 1154.251167 187.25377 
L 1154.455786 187.442165 
L 1154.865026 188.40869 
L 1155.478885 189.945527 
L 1155.888124 190.709716 
L 1156.092744 190.906074 
L 1156.297364 190.882607 
L 1156.706603 190.221534 
L 1158.138941 186.8878 
L 1158.95742 186.008564 
L 1159.36666 186.04424 
L 1159.775899 186.376095 
L 1160.798998 187.800377 
L 1161.208237 187.671572 
L 1161.412857 187.847824 
L 1162.435956 189.599938 
L 1162.845195 189.747707 
L 1163.049815 189.957678 
L 1163.459054 190.952781 
L 1163.868294 191.936508 
L 1164.072914 192.085221 
L 1164.277533 191.950354 
L 1165.300632 190.302837 
L 1165.505252 190.069613 
L 1165.914491 189.087735 
L 1167.346829 185.042054 
L 1167.551449 184.777978 
L 1167.756069 184.715958 
L 1167.960688 184.929768 
L 1168.369928 186.186742 
L 1169.393026 189.982977 
L 1169.597646 190.18644 
L 1169.802266 190.072051 
L 1170.416125 189.158958 
L 1170.620745 189.143083 
L 1170.825365 189.436195 
L 1171.848463 192.209938 
L 1172.053083 192.324036 
L 1172.257703 192.081033 
L 1172.666942 190.238225 
L 1173.280801 187.16575 
L 1173.485421 186.926783 
L 1173.690041 187.200803 
L 1174.917759 190.75961 
L 1175.326998 191.257292 
L 1175.531618 191.280057 
L 1176.145477 190.949389 
L 1176.554717 190.945104 
L 1176.759337 190.741728 
L 1177.168576 189.788431 
L 1177.987055 187.356779 
L 1178.600914 186.87078 
L 1178.805534 186.769279 
L 1179.010154 186.888491 
L 1179.624013 188.126962 
L 1179.828632 188.192781 
L 1180.033252 187.997116 
L 1181.056351 186.399123 
L 1181.260971 186.445747 
L 1181.46559 186.65368 
L 1181.87483 187.732908 
L 1182.284069 188.582229 
L 1182.488689 188.451456 
L 1183.102548 187.396907 
L 1183.307168 187.315543 
L 1183.511788 187.443673 
L 1184.739506 189.290239 
L 1184.739506 189.290239 
" clip-path="url(#p77f786fd94)" style="fill: none; stroke: #000000; stroke-width: 2; stroke-linecap: square"/>
   </g>
   <g id="patch_3">
    <path d="M 3.00024 198.907885 
L 1184.99976 198.907885 
" style="fill: none; stroke: #000000; stroke-width: 2; stroke-linejoin: miter; stroke-linecap: square"/>
   </g>
  </g>
 </g>
 <defs>
  <clipPath id="p77f786fd94">
   <rect x="3.00024" y="3.00024" width="1181.99952" height="195.907645"/>
  </clipPath>
 </defs>
</svg>
