<?xml version="1.0" encoding="utf-8" standalone="no"?>
<!DOCTYPE svg PUBLIC "-//W3C//DTD SVG 1.1//EN"
  "http://www.w3.org/Graphics/SVG/1.1/DTD/svg11.dtd">
<svg xmlns:xlink="http://www.w3.org/1999/xlink" width="1188pt" height="252pt" viewBox="0 0 1188 252" xmlns="http://www.w3.org/2000/svg" version="1.1">
 <metadata>
  <rdf:RDF xmlns:dc="http://purl.org/dc/elements/1.1/" xmlns:cc="http://creativecommons.org/ns#" xmlns:rdf="http://www.w3.org/1999/02/22-rdf-syntax-ns#">
   <cc:Work>
    <dc:type rdf:resource="http://purl.org/dc/dcmitype/StillImage"/>
    <dc:date>2024-05-13T15:45:34.514102</dc:date>
    <dc:format>image/svg+xml</dc:format>
    <dc:creator>
     <cc:Agent>
      <dc:title>Matplotlib v3.8.0, https://matplotlib.org/</dc:title>
     </cc:Agent>
    </dc:creator>
   </cc:Work>
  </rdf:RDF>
 </metadata>
 <defs>
  <style type="text/css">*{stroke-linejoin: round; stroke-linecap: butt}</style>
 </defs>
 <g id="figure_1">
  <g id="patch_1">
   <path d="M 0 252 
L 1188 252 
L 1188 0 
L 0 0 
z
" style="fill: #ffffff"/>
  </g>
  <g id="axes_1">
   <g id="patch_2">
    <path d="M 3.00024 198.907885 
L 1184.99976 198.907885 
L 1184.99976 3.00024 
L 3.00024 3.00024 
z
" style="fill: #ffffff"/>
   </g>
   <g id="matplotlib.axis_1">
    <g id="xtick_1">
     <g id="line2d_1">
      <defs>
       <path id="m1182eb9294" d="M 0 0 
L 0 8 
" style="stroke: #000000; stroke-width: 2"/>
      </defs>
      <g>
       <use xlink:href="#m1182eb9294" x="1131.272509" y="198.907885" style="stroke: #000000; stroke-width: 2"/>
      </g>
     </g>
     <g id="text_1">
      <!-- 0 -->
      <g transform="translate(1126.267665 224.791947) scale(0.18 -0.18)">
       <defs>
        <path id="Arial-BoldMT-30" d="M 1756 4600 
Q 2422 4600 2797 4125 
Q 3244 3563 3244 2259 
Q 3244 959 2794 391 
Q 2422 -78 1756 -78 
Q 1088 -78 678 436 
Q 269 950 269 2269 
Q 269 3563 719 4131 
Q 1091 4600 1756 4600 
z
M 1756 3872 
Q 1597 3872 1472 3770 
Q 1347 3669 1278 3406 
Q 1188 3066 1188 2259 
Q 1188 1453 1269 1151 
Q 1350 850 1473 750 
Q 1597 650 1756 650 
Q 1916 650 2041 751 
Q 2166 853 2234 1116 
Q 2325 1453 2325 2259 
Q 2325 3066 2244 3367 
Q 2163 3669 2039 3770 
Q 1916 3872 1756 3872 
z
" transform="scale(0.015625)"/>
       </defs>
       <use xlink:href="#Arial-BoldMT-30"/>
      </g>
     </g>
    </g>
    <g id="xtick_2">
     <g id="line2d_2">
      <g>
       <use xlink:href="#m1182eb9294" x="1023.818007" y="198.907885" style="stroke: #000000; stroke-width: 2"/>
      </g>
     </g>
     <g id="text_2">
      <!-- 1 -->
      <g transform="translate(1018.813164 224.791947) scale(0.18 -0.18)">
       <defs>
        <path id="Arial-BoldMT-31" d="M 2519 0 
L 1641 0 
L 1641 3309 
Q 1159 2859 506 2644 
L 506 3441 
Q 850 3553 1253 3867 
Q 1656 4181 1806 4600 
L 2519 4600 
L 2519 0 
z
" transform="scale(0.015625)"/>
       </defs>
       <use xlink:href="#Arial-BoldMT-31"/>
      </g>
     </g>
    </g>
    <g id="xtick_3">
     <g id="line2d_3">
      <g>
       <use xlink:href="#m1182eb9294" x="916.363505" y="198.907885" style="stroke: #000000; stroke-width: 2"/>
      </g>
     </g>
     <g id="text_3">
      <!-- 2 -->
      <g transform="translate(911.358662 224.791947) scale(0.18 -0.18)">
       <defs>
        <path id="Arial-BoldMT-32" d="M 3238 816 
L 3238 0 
L 159 0 
Q 209 463 459 877 
Q 709 1291 1447 1975 
Q 2041 2528 2175 2725 
Q 2356 2997 2356 3263 
Q 2356 3556 2198 3714 
Q 2041 3872 1763 3872 
Q 1488 3872 1325 3706 
Q 1163 3541 1138 3156 
L 263 3244 
Q 341 3969 753 4284 
Q 1166 4600 1784 4600 
Q 2463 4600 2850 4234 
Q 3238 3869 3238 3325 
Q 3238 3016 3127 2736 
Q 3016 2456 2775 2150 
Q 2616 1947 2200 1565 
Q 1784 1184 1673 1059 
Q 1563 934 1494 816 
L 3238 816 
z
" transform="scale(0.015625)"/>
       </defs>
       <use xlink:href="#Arial-BoldMT-32"/>
      </g>
     </g>
    </g>
    <g id="xtick_4">
     <g id="line2d_4">
      <g>
       <use xlink:href="#m1182eb9294" x="808.909004" y="198.907885" style="stroke: #000000; stroke-width: 2"/>
      </g>
     </g>
     <g id="text_4">
      <!-- 3 -->
      <g transform="translate(803.90416 224.791947) scale(0.18 -0.18)">
       <defs>
        <path id="Arial-BoldMT-33" d="M 241 1216 
L 1091 1319 
Q 1131 994 1309 822 
Q 1488 650 1741 650 
Q 2013 650 2198 856 
Q 2384 1063 2384 1413 
Q 2384 1744 2206 1937 
Q 2028 2131 1772 2131 
Q 1603 2131 1369 2066 
L 1466 2781 
Q 1822 2772 2009 2936 
Q 2197 3100 2197 3372 
Q 2197 3603 2059 3740 
Q 1922 3878 1694 3878 
Q 1469 3878 1309 3722 
Q 1150 3566 1116 3266 
L 306 3403 
Q 391 3819 561 4067 
Q 731 4316 1036 4458 
Q 1341 4600 1719 4600 
Q 2366 4600 2756 4188 
Q 3078 3850 3078 3425 
Q 3078 2822 2419 2463 
Q 2813 2378 3048 2084 
Q 3284 1791 3284 1375 
Q 3284 772 2843 347 
Q 2403 -78 1747 -78 
Q 1125 -78 715 280 
Q 306 638 241 1216 
z
" transform="scale(0.015625)"/>
       </defs>
       <use xlink:href="#Arial-BoldMT-33"/>
      </g>
     </g>
    </g>
    <g id="xtick_5">
     <g id="line2d_5">
      <g>
       <use xlink:href="#m1182eb9294" x="701.454502" y="198.907885" style="stroke: #000000; stroke-width: 2"/>
      </g>
     </g>
     <g id="text_5">
      <!-- 4 -->
      <g transform="translate(696.449658 224.791947) scale(0.18 -0.18)">
       <defs>
        <path id="Arial-BoldMT-34" d="M 1994 0 
L 1994 922 
L 119 922 
L 119 1691 
L 2106 4600 
L 2844 4600 
L 2844 1694 
L 3413 1694 
L 3413 922 
L 2844 922 
L 2844 0 
L 1994 0 
z
M 1994 1694 
L 1994 3259 
L 941 1694 
L 1994 1694 
z
" transform="scale(0.015625)"/>
       </defs>
       <use xlink:href="#Arial-BoldMT-34"/>
      </g>
     </g>
    </g>
    <g id="xtick_6">
     <g id="line2d_6">
      <g>
       <use xlink:href="#m1182eb9294" x="594" y="198.907885" style="stroke: #000000; stroke-width: 2"/>
      </g>
     </g>
     <g id="text_6">
      <!-- 5 -->
      <g transform="translate(588.995156 224.791947) scale(0.18 -0.18)">
       <defs>
        <path id="Arial-BoldMT-35" d="M 284 1178 
L 1159 1269 
Q 1197 972 1381 798 
Q 1566 625 1806 625 
Q 2081 625 2272 848 
Q 2463 1072 2463 1522 
Q 2463 1944 2273 2155 
Q 2084 2366 1781 2366 
Q 1403 2366 1103 2031 
L 391 2134 
L 841 4519 
L 3163 4519 
L 3163 3697 
L 1506 3697 
L 1369 2919 
Q 1663 3066 1969 3066 
Q 2553 3066 2959 2641 
Q 3366 2216 3366 1538 
Q 3366 972 3038 528 
Q 2591 -78 1797 -78 
Q 1163 -78 763 262 
Q 363 603 284 1178 
z
" transform="scale(0.015625)"/>
       </defs>
       <use xlink:href="#Arial-BoldMT-35"/>
      </g>
     </g>
    </g>
    <g id="xtick_7">
     <g id="line2d_7">
      <g>
       <use xlink:href="#m1182eb9294" x="486.545498" y="198.907885" style="stroke: #000000; stroke-width: 2"/>
      </g>
     </g>
     <g id="text_7">
      <!-- 6 -->
      <g transform="translate(481.540654 224.791947) scale(0.18 -0.18)">
       <defs>
        <path id="Arial-BoldMT-36" d="M 3247 3459 
L 2397 3366 
Q 2366 3628 2234 3753 
Q 2103 3878 1894 3878 
Q 1616 3878 1423 3628 
Q 1231 3378 1181 2588 
Q 1509 2975 1997 2975 
Q 2547 2975 2939 2556 
Q 3331 2138 3331 1475 
Q 3331 772 2918 347 
Q 2506 -78 1859 -78 
Q 1166 -78 719 461 
Q 272 1000 272 2228 
Q 272 3488 737 4044 
Q 1203 4600 1947 4600 
Q 2469 4600 2811 4308 
Q 3153 4016 3247 3459 
z
M 1256 1544 
Q 1256 1116 1453 883 
Q 1650 650 1903 650 
Q 2147 650 2309 840 
Q 2472 1031 2472 1466 
Q 2472 1913 2297 2120 
Q 2122 2328 1859 2328 
Q 1606 2328 1431 2129 
Q 1256 1931 1256 1544 
z
" transform="scale(0.015625)"/>
       </defs>
       <use xlink:href="#Arial-BoldMT-36"/>
      </g>
     </g>
    </g>
    <g id="xtick_8">
     <g id="line2d_8">
      <g>
       <use xlink:href="#m1182eb9294" x="379.090996" y="198.907885" style="stroke: #000000; stroke-width: 2"/>
      </g>
     </g>
     <g id="text_8">
      <!-- 7 -->
      <g transform="translate(374.086153 224.791947) scale(0.18 -0.18)">
       <defs>
        <path id="Arial-BoldMT-37" d="M 272 3703 
L 272 4519 
L 3275 4519 
L 3275 3881 
Q 2903 3516 2518 2831 
Q 2134 2147 1932 1376 
Q 1731 606 1734 0 
L 888 0 
Q 909 950 1279 1937 
Q 1650 2925 2269 3703 
L 272 3703 
z
" transform="scale(0.015625)"/>
       </defs>
       <use xlink:href="#Arial-BoldMT-37"/>
      </g>
     </g>
    </g>
    <g id="xtick_9">
     <g id="line2d_9">
      <g>
       <use xlink:href="#m1182eb9294" x="271.636495" y="198.907885" style="stroke: #000000; stroke-width: 2"/>
      </g>
     </g>
     <g id="text_9">
      <!-- 8 -->
      <g transform="translate(266.631651 224.791947) scale(0.18 -0.18)">
       <defs>
        <path id="Arial-BoldMT-38" d="M 1025 2472 
Q 684 2616 529 2867 
Q 375 3119 375 3419 
Q 375 3931 733 4265 
Q 1091 4600 1750 4600 
Q 2403 4600 2764 4265 
Q 3125 3931 3125 3419 
Q 3125 3100 2959 2851 
Q 2794 2603 2494 2472 
Q 2875 2319 3073 2025 
Q 3272 1731 3272 1347 
Q 3272 713 2867 316 
Q 2463 -81 1791 -81 
Q 1166 -81 750 247 
Q 259 634 259 1309 
Q 259 1681 443 1992 
Q 628 2303 1025 2472 
z
M 1206 3356 
Q 1206 3094 1354 2947 
Q 1503 2800 1750 2800 
Q 2000 2800 2150 2948 
Q 2300 3097 2300 3359 
Q 2300 3606 2151 3754 
Q 2003 3903 1759 3903 
Q 1506 3903 1356 3753 
Q 1206 3603 1206 3356 
z
M 1125 1394 
Q 1125 1031 1311 828 
Q 1497 625 1775 625 
Q 2047 625 2225 820 
Q 2403 1016 2403 1384 
Q 2403 1706 2222 1901 
Q 2041 2097 1763 2097 
Q 1441 2097 1283 1875 
Q 1125 1653 1125 1394 
z
" transform="scale(0.015625)"/>
       </defs>
       <use xlink:href="#Arial-BoldMT-38"/>
      </g>
     </g>
    </g>
    <g id="xtick_10">
     <g id="line2d_10">
      <g>
       <use xlink:href="#m1182eb9294" x="164.181993" y="198.907885" style="stroke: #000000; stroke-width: 2"/>
      </g>
     </g>
     <g id="text_10">
      <!-- 9 -->
      <g transform="translate(159.177149 224.791947) scale(0.18 -0.18)">
       <defs>
        <path id="Arial-BoldMT-39" d="M 291 1059 
L 1141 1153 
Q 1172 894 1303 769 
Q 1434 644 1650 644 
Q 1922 644 2112 894 
Q 2303 1144 2356 1931 
Q 2025 1547 1528 1547 
Q 988 1547 595 1964 
Q 203 2381 203 3050 
Q 203 3747 617 4173 
Q 1031 4600 1672 4600 
Q 2369 4600 2816 4061 
Q 3263 3522 3263 2288 
Q 3263 1031 2797 475 
Q 2331 -81 1584 -81 
Q 1047 -81 715 205 
Q 384 491 291 1059 
z
M 2278 2978 
Q 2278 3403 2083 3637 
Q 1888 3872 1631 3872 
Q 1388 3872 1227 3680 
Q 1066 3488 1066 3050 
Q 1066 2606 1241 2398 
Q 1416 2191 1678 2191 
Q 1931 2191 2104 2391 
Q 2278 2591 2278 2978 
z
" transform="scale(0.015625)"/>
       </defs>
       <use xlink:href="#Arial-BoldMT-39"/>
      </g>
     </g>
    </g>
    <g id="xtick_11">
     <g id="line2d_11">
      <g>
       <use xlink:href="#m1182eb9294" x="56.727491" y="198.907885" style="stroke: #000000; stroke-width: 2"/>
      </g>
     </g>
     <g id="text_11">
      <!-- 10 -->
      <g transform="translate(46.717803 224.791947) scale(0.18 -0.18)">
       <use xlink:href="#Arial-BoldMT-31"/>
       <use xlink:href="#Arial-BoldMT-30" x="55.615234"/>
      </g>
     </g>
    </g>
    <g id="text_12">
     <!-- Chemical Shift / ppm -->
     <g transform="translate(504.992813 245.447573) scale(0.18 -0.18)">
      <defs>
       <path id="Arial-BoldMT-43" d="M 3397 1684 
L 4294 1400 
Q 4088 650 3608 286 
Q 3128 -78 2391 -78 
Q 1478 -78 890 545 
Q 303 1169 303 2250 
Q 303 3394 893 4026 
Q 1484 4659 2447 4659 
Q 3288 4659 3813 4163 
Q 4125 3869 4281 3319 
L 3366 3100 
Q 3284 3456 3026 3662 
Q 2769 3869 2400 3869 
Q 1891 3869 1573 3503 
Q 1256 3138 1256 2319 
Q 1256 1450 1568 1081 
Q 1881 713 2381 713 
Q 2750 713 3015 947 
Q 3281 1181 3397 1684 
z
" transform="scale(0.015625)"/>
       <path id="Arial-BoldMT-68" d="M 1334 4581 
L 1334 2897 
Q 1759 3394 2350 3394 
Q 2653 3394 2897 3281 
Q 3141 3169 3264 2994 
Q 3388 2819 3433 2606 
Q 3478 2394 3478 1947 
L 3478 0 
L 2600 0 
L 2600 1753 
Q 2600 2275 2550 2415 
Q 2500 2556 2373 2639 
Q 2247 2722 2056 2722 
Q 1838 2722 1666 2615 
Q 1494 2509 1414 2295 
Q 1334 2081 1334 1663 
L 1334 0 
L 456 0 
L 456 4581 
L 1334 4581 
z
" transform="scale(0.015625)"/>
       <path id="Arial-BoldMT-65" d="M 2381 1056 
L 3256 909 
Q 3088 428 2723 176 
Q 2359 -75 1813 -75 
Q 947 -75 531 491 
Q 203 944 203 1634 
Q 203 2459 634 2926 
Q 1066 3394 1725 3394 
Q 2466 3394 2894 2905 
Q 3322 2416 3303 1406 
L 1103 1406 
Q 1113 1016 1316 798 
Q 1519 581 1822 581 
Q 2028 581 2168 693 
Q 2309 806 2381 1056 
z
M 2431 1944 
Q 2422 2325 2234 2523 
Q 2047 2722 1778 2722 
Q 1491 2722 1303 2513 
Q 1116 2303 1119 1944 
L 2431 1944 
z
" transform="scale(0.015625)"/>
       <path id="Arial-BoldMT-6d" d="M 394 3319 
L 1203 3319 
L 1203 2866 
Q 1638 3394 2238 3394 
Q 2556 3394 2790 3262 
Q 3025 3131 3175 2866 
Q 3394 3131 3647 3262 
Q 3900 3394 4188 3394 
Q 4553 3394 4806 3245 
Q 5059 3097 5184 2809 
Q 5275 2597 5275 2122 
L 5275 0 
L 4397 0 
L 4397 1897 
Q 4397 2391 4306 2534 
Q 4184 2722 3931 2722 
Q 3747 2722 3584 2609 
Q 3422 2497 3350 2280 
Q 3278 2063 3278 1594 
L 3278 0 
L 2400 0 
L 2400 1819 
Q 2400 2303 2353 2443 
Q 2306 2584 2207 2653 
Q 2109 2722 1941 2722 
Q 1738 2722 1575 2612 
Q 1413 2503 1342 2297 
Q 1272 2091 1272 1613 
L 1272 0 
L 394 0 
L 394 3319 
z
" transform="scale(0.015625)"/>
       <path id="Arial-BoldMT-69" d="M 459 3769 
L 459 4581 
L 1338 4581 
L 1338 3769 
L 459 3769 
z
M 459 0 
L 459 3319 
L 1338 3319 
L 1338 0 
L 459 0 
z
" transform="scale(0.015625)"/>
       <path id="Arial-BoldMT-63" d="M 3353 2338 
L 2488 2181 
Q 2444 2441 2289 2572 
Q 2134 2703 1888 2703 
Q 1559 2703 1364 2476 
Q 1169 2250 1169 1719 
Q 1169 1128 1367 884 
Q 1566 641 1900 641 
Q 2150 641 2309 783 
Q 2469 925 2534 1272 
L 3397 1125 
Q 3263 531 2881 228 
Q 2500 -75 1859 -75 
Q 1131 -75 698 384 
Q 266 844 266 1656 
Q 266 2478 700 2936 
Q 1134 3394 1875 3394 
Q 2481 3394 2839 3133 
Q 3197 2872 3353 2338 
z
" transform="scale(0.015625)"/>
       <path id="Arial-BoldMT-61" d="M 1116 2306 
L 319 2450 
Q 453 2931 781 3162 
Q 1109 3394 1756 3394 
Q 2344 3394 2631 3255 
Q 2919 3116 3036 2902 
Q 3153 2688 3153 2116 
L 3144 1091 
Q 3144 653 3186 445 
Q 3228 238 3344 0 
L 2475 0 
Q 2441 88 2391 259 
Q 2369 338 2359 363 
Q 2134 144 1878 34 
Q 1622 -75 1331 -75 
Q 819 -75 523 203 
Q 228 481 228 906 
Q 228 1188 362 1408 
Q 497 1628 739 1745 
Q 981 1863 1438 1950 
Q 2053 2066 2291 2166 
L 2291 2253 
Q 2291 2506 2166 2614 
Q 2041 2722 1694 2722 
Q 1459 2722 1328 2630 
Q 1197 2538 1116 2306 
z
M 2291 1594 
Q 2122 1538 1756 1459 
Q 1391 1381 1278 1306 
Q 1106 1184 1106 997 
Q 1106 813 1243 678 
Q 1381 544 1594 544 
Q 1831 544 2047 700 
Q 2206 819 2256 991 
Q 2291 1103 2291 1419 
L 2291 1594 
z
" transform="scale(0.015625)"/>
       <path id="Arial-BoldMT-6c" d="M 459 0 
L 459 4581 
L 1338 4581 
L 1338 0 
L 459 0 
z
" transform="scale(0.015625)"/>
       <path id="Arial-BoldMT-20" transform="scale(0.015625)"/>
       <path id="Arial-BoldMT-53" d="M 231 1491 
L 1131 1578 
Q 1213 1125 1461 912 
Q 1709 700 2131 700 
Q 2578 700 2804 889 
Q 3031 1078 3031 1331 
Q 3031 1494 2936 1608 
Q 2841 1722 2603 1806 
Q 2441 1863 1863 2006 
Q 1119 2191 819 2459 
Q 397 2838 397 3381 
Q 397 3731 595 4036 
Q 794 4341 1167 4500 
Q 1541 4659 2069 4659 
Q 2931 4659 3367 4281 
Q 3803 3903 3825 3272 
L 2900 3231 
Q 2841 3584 2645 3739 
Q 2450 3894 2059 3894 
Q 1656 3894 1428 3728 
Q 1281 3622 1281 3444 
Q 1281 3281 1419 3166 
Q 1594 3019 2269 2859 
Q 2944 2700 3267 2529 
Q 3591 2359 3773 2064 
Q 3956 1769 3956 1334 
Q 3956 941 3737 597 
Q 3519 253 3119 86 
Q 2719 -81 2122 -81 
Q 1253 -81 787 320 
Q 322 722 231 1491 
z
" transform="scale(0.015625)"/>
       <path id="Arial-BoldMT-66" d="M 75 3319 
L 563 3319 
L 563 3569 
Q 563 3988 652 4194 
Q 741 4400 980 4529 
Q 1219 4659 1584 4659 
Q 1959 4659 2319 4547 
L 2200 3934 
Q 1991 3984 1797 3984 
Q 1606 3984 1523 3895 
Q 1441 3806 1441 3553 
L 1441 3319 
L 2097 3319 
L 2097 2628 
L 1441 2628 
L 1441 0 
L 563 0 
L 563 2628 
L 75 2628 
L 75 3319 
z
" transform="scale(0.015625)"/>
       <path id="Arial-BoldMT-74" d="M 1981 3319 
L 1981 2619 
L 1381 2619 
L 1381 1281 
Q 1381 875 1398 808 
Q 1416 741 1477 697 
Q 1538 653 1625 653 
Q 1747 653 1978 738 
L 2053 56 
Q 1747 -75 1359 -75 
Q 1122 -75 931 4 
Q 741 84 652 211 
Q 563 338 528 553 
Q 500 706 500 1172 
L 500 2619 
L 97 2619 
L 97 3319 
L 500 3319 
L 500 3978 
L 1381 4491 
L 1381 3319 
L 1981 3319 
z
" transform="scale(0.015625)"/>
       <path id="Arial-BoldMT-2f" d="M -9 -78 
L 1125 4659 
L 1784 4659 
L 638 -78 
L -9 -78 
z
" transform="scale(0.015625)"/>
       <path id="Arial-BoldMT-70" d="M 434 3319 
L 1253 3319 
L 1253 2831 
Q 1413 3081 1684 3237 
Q 1956 3394 2288 3394 
Q 2866 3394 3269 2941 
Q 3672 2488 3672 1678 
Q 3672 847 3265 386 
Q 2859 -75 2281 -75 
Q 2006 -75 1782 34 
Q 1559 144 1313 409 
L 1313 -1263 
L 434 -1263 
L 434 3319 
z
M 1303 1716 
Q 1303 1156 1525 889 
Q 1747 622 2066 622 
Q 2372 622 2575 867 
Q 2778 1113 2778 1672 
Q 2778 2194 2568 2447 
Q 2359 2700 2050 2700 
Q 1728 2700 1515 2451 
Q 1303 2203 1303 1716 
z
" transform="scale(0.015625)"/>
      </defs>
      <use xlink:href="#Arial-BoldMT-43"/>
      <use xlink:href="#Arial-BoldMT-68" x="72.216797"/>
      <use xlink:href="#Arial-BoldMT-65" x="133.300781"/>
      <use xlink:href="#Arial-BoldMT-6d" x="188.916016"/>
      <use xlink:href="#Arial-BoldMT-69" x="277.832031"/>
      <use xlink:href="#Arial-BoldMT-63" x="305.615234"/>
      <use xlink:href="#Arial-BoldMT-61" x="361.230469"/>
      <use xlink:href="#Arial-BoldMT-6c" x="416.845703"/>
      <use xlink:href="#Arial-BoldMT-20" x="444.628906"/>
      <use xlink:href="#Arial-BoldMT-53" x="472.412109"/>
      <use xlink:href="#Arial-BoldMT-68" x="539.111328"/>
      <use xlink:href="#Arial-BoldMT-69" x="600.195312"/>
      <use xlink:href="#Arial-BoldMT-66" x="627.978516"/>
      <use xlink:href="#Arial-BoldMT-74" x="661.279297"/>
      <use xlink:href="#Arial-BoldMT-20" x="694.580078"/>
      <use xlink:href="#Arial-BoldMT-2f" x="722.363281"/>
      <use xlink:href="#Arial-BoldMT-20" x="750.146484"/>
      <use xlink:href="#Arial-BoldMT-70" x="777.929688"/>
      <use xlink:href="#Arial-BoldMT-70" x="839.013672"/>
      <use xlink:href="#Arial-BoldMT-6d" x="900.097656"/>
     </g>
    </g>
   </g>
   <g id="matplotlib.axis_2"/>
   <g id="line2d_12">
    <path d="M 2.961239 187.182056 
L 3.370478 187.276874 
L 4.188957 188.230207 
L 4.598197 187.632344 
L 5.007436 187.045121 
L 5.212056 187.067351 
L 5.416675 187.374673 
L 6.030535 188.895079 
L 7.462873 190.815551 
L 7.872112 191.534727 
L 8.076732 191.688616 
L 8.281352 191.67942 
L 8.485971 191.496438 
L 9.50907 189.952441 
L 10.122929 189.594846 
L 10.532169 189.578996 
L 10.941408 189.724248 
L 11.555267 190.244194 
L 12.578366 191.235642 
L 13.192225 191.316824 
L 13.806084 191.505409 
L 14.624563 191.708215 
L 14.829183 191.648383 
L 15.033803 191.442062 
L 15.443042 190.461883 
L 16.056901 188.780119 
L 16.466141 188.178992 
L 16.87538 187.950726 
L 17.08 188.123394 
L 17.489239 189.048953 
L 18.103099 190.430093 
L 18.307718 190.618882 
L 18.512338 190.579436 
L 18.716958 190.274016 
L 19.126197 188.984364 
L 19.740056 186.980926 
L 19.944676 186.879545 
L 20.149296 187.134607 
L 20.558535 188.37678 
L 21.172394 190.429889 
L 21.581634 191.204814 
L 21.990873 191.627002 
L 22.400113 191.732645 
L 22.809352 191.463504 
L 23.218592 191.021189 
L 23.627831 190.142741 
L 24.037071 189.274714 
L 24.24169 189.17918 
L 24.44631 189.299836 
L 26.287888 191.415795 
L 27.310986 191.964197 
L 27.515606 192.001233 
L 27.720226 191.869266 
L 28.129465 191.085614 
L 28.743324 189.985025 
L 28.947944 189.885075 
L 29.152564 190.011926 
L 29.561803 190.802961 
L 30.584902 193.176955 
L 30.789522 193.390827 
L 30.994141 193.334956 
L 31.403381 192.645561 
L 31.81262 192.021563 
L 32.22186 191.654933 
L 33.040339 190.233836 
L 33.244958 190.232947 
L 33.449578 190.40483 
L 34.472677 191.816817 
L 35.086536 191.193986 
L 35.905015 191.114993 
L 36.518874 190.694774 
L 36.928113 190.547283 
L 37.337353 189.999612 
L 37.746592 189.255235 
L 38.565071 188.531168 
L 38.974311 187.834315 
L 39.17893 187.730152 
L 39.38355 187.880686 
L 39.79279 188.42644 
L 40.202029 188.56797 
L 40.611268 188.74071 
L 41.429747 189.516634 
L 41.838987 190.164849 
L 42.043607 190.208088 
L 42.452846 189.677589 
L 43.885184 187.319108 
L 44.294424 186.994251 
L 44.703663 187.067019 
L 45.522142 187.435266 
L 45.931381 187.419945 
L 46.340621 187.164237 
L 46.74986 186.747311 
L 46.95448 186.727867 
L 47.1591 186.915861 
L 47.568339 187.789238 
L 48.591438 190.420859 
L 49.205297 191.132792 
L 49.614536 191.319975 
L 50.023776 191.262237 
L 50.433015 190.824329 
L 51.251494 189.356099 
L 51.456114 189.256597 
L 51.865353 189.462225 
L 52.274593 189.674531 
L 52.479213 189.585816 
L 52.888452 189.009293 
L 53.502311 187.860691 
L 53.706931 187.739809 
L 54.11617 187.941444 
L 54.52541 188.251978 
L 54.73003 188.207594 
L 54.934649 187.921424 
L 55.548509 186.119345 
L 56.162368 184.68365 
L 56.571607 184.285777 
L 57.390086 183.839088 
L 57.594706 183.692983 
L 57.799326 183.40427 
L 58.208565 182.123688 
L 58.617804 179.861313 
L 59.640903 172.307044 
L 60.050143 167.583351 
L 60.459382 160.077428 
L 61.482481 138.368676 
L 61.6871 137.291777 
L 61.89172 137.655778 
L 62.09634 139.412184 
L 62.505579 147.558881 
L 63.324058 167.81812 
L 63.937917 176.229961 
L 64.551776 181.786403 
L 65.165636 185.014693 
L 65.779495 186.920124 
L 66.188734 187.628735 
L 66.597974 187.92523 
L 67.007213 187.865118 
L 67.621072 188.029355 
L 68.030312 187.992359 
L 68.439551 188.420887 
L 68.848791 188.853308 
L 69.25803 188.674429 
L 69.66727 188.508871 
L 71.099608 188.88765 
L 71.918087 189.311986 
L 72.327326 189.19708 
L 72.941185 188.989074 
L 73.350425 189.080096 
L 73.759664 189.710488 
L 74.578143 191.388885 
L 74.782763 191.524583 
L 75.192002 191.40683 
L 75.601242 190.919017 
L 76.215101 189.956739 
L 77.442819 188.942332 
L 77.852059 187.968403 
L 78.261298 187.002532 
L 78.465918 186.915095 
L 78.670538 187.104372 
L 79.284397 188.038506 
L 79.693636 188.141461 
L 80.102876 187.771058 
L 80.716735 186.876161 
L 80.921355 186.778524 
L 81.125974 186.818254 
L 81.535214 187.213446 
L 81.944453 187.566249 
L 82.353693 187.318887 
L 82.558312 187.193526 
L 82.762932 187.292868 
L 83.172172 188.255056 
L 83.786031 189.818289 
L 84.19527 190.457139 
L 84.39989 190.544879 
L 84.60451 190.426626 
L 85.218369 189.741054 
L 85.422989 189.791928 
L 86.446087 190.681353 
L 86.855327 190.732156 
L 87.469186 190.949313 
L 87.673806 190.8046 
L 88.083045 190.104058 
L 88.492285 189.263647 
L 88.696904 189.06561 
L 88.901524 189.098407 
L 90.129242 190.191697 
L 90.743102 190.612011 
L 90.947721 190.517141 
L 91.7662 189.651713 
L 92.17544 189.671022 
L 92.584679 189.661757 
L 92.993919 189.251874 
L 93.812397 188.343429 
L 94.630876 188.007038 
L 95.040116 187.992947 
L 95.244736 188.190918 
L 96.677074 190.667729 
L 97.086313 191.148141 
L 97.495553 191.210816 
L 97.700172 191.095956 
L 97.904792 190.838394 
L 98.314031 189.573213 
L 98.723271 187.986946 
L 98.927891 187.547494 
L 99.13251 187.431246 
L 99.33713 187.59993 
L 100.360229 189.482928 
L 100.564848 189.523892 
L 100.974088 188.967824 
L 101.178708 188.672128 
L 101.383327 188.614576 
L 101.792567 189.105626 
L 102.201806 189.619153 
L 102.611046 189.72677 
L 103.224905 189.558953 
L 103.634144 189.11055 
L 104.043384 188.437208 
L 104.248003 188.314913 
L 104.452623 188.492107 
L 105.066482 189.920115 
L 105.680342 191.19698 
L 105.884961 191.284765 
L 106.294201 190.832212 
L 107.726539 189.281077 
L 108.135778 189.044004 
L 108.545018 189.327634 
L 109.363497 190.296905 
L 110.181976 191.097057 
L 110.386595 190.96598 
L 111.409694 189.442934 
L 111.614314 189.548168 
L 112.228173 190.495563 
L 112.637412 191.031926 
L 114.06975 191.611297 
L 114.27437 191.521387 
L 115.502088 189.8301 
L 116.115948 188.207862 
L 116.320567 188.062256 
L 116.525187 188.243322 
L 117.548286 190.567409 
L 117.752905 190.60254 
L 117.957525 190.403906 
L 118.366765 189.455039 
L 118.776004 188.48564 
L 118.980624 188.286545 
L 119.185244 188.351785 
L 119.594483 189.125386 
L 120.208342 190.444723 
L 120.617582 190.667834 
L 121.026821 190.536404 
L 121.64068 190.002442 
L 122.04992 189.562475 
L 122.459159 188.696403 
L 122.868399 187.776413 
L 123.277638 187.33598 
L 123.686878 187.278298 
L 124.505356 187.713469 
L 125.119216 187.929897 
L 125.528455 187.536318 
L 125.937695 187.07198 
L 126.346934 187.0582 
L 126.960793 187.405444 
L 127.370033 187.565928 
L 127.779272 187.66274 
L 128.393131 188.131357 
L 128.802371 188.399371 
L 129.21161 188.299989 
L 130.030089 188.006329 
L 130.643948 187.152929 
L 131.667047 186.590508 
L 132.076286 186.28158 
L 132.485526 186.457035 
L 133.713244 187.569707 
L 134.122484 187.090185 
L 134.531723 186.621095 
L 134.940963 186.576808 
L 135.554822 186.651403 
L 135.964061 186.125124 
L 136.57792 184.797038 
L 137.19178 182.988678 
L 138.010258 180.336226 
L 139.237977 178.290828 
L 140.056456 175.452158 
L 140.465695 173.169703 
L 141.079554 167.062618 
L 141.898033 155.790487 
L 142.511892 145.160221 
L 143.125752 130.108873 
L 143.739611 109.302922 
L 144.762709 69.91227 
L 144.967329 65.585531 
L 145.171949 63.8853 
L 145.376569 65.019681 
L 145.581188 68.859406 
L 145.990428 82.649977 
L 147.218146 129.760068 
L 147.832005 145.438841 
L 148.445864 156.78459 
L 149.059724 164.707568 
L 149.673583 170.39418 
L 150.492062 175.546497 
L 151.105921 178.396218 
L 152.742879 183.707092 
L 152.947498 183.839131 
L 153.356738 183.894204 
L 153.561358 184.224134 
L 154.379837 186.455128 
L 154.993696 187.118997 
L 155.402935 187.266883 
L 155.812175 187.039112 
L 156.221414 186.914436 
L 156.630654 187.372014 
L 157.039893 187.970375 
L 157.244513 188.030967 
L 157.653752 187.610302 
L 158.267611 186.88851 
L 158.676851 186.7549 
L 159.29071 186.832145 
L 159.699949 186.861326 
L 160.313809 186.57999 
L 160.518428 186.67093 
L 160.927668 187.529095 
L 161.336907 188.46901 
L 161.746147 188.830734 
L 162.769245 189.208818 
L 163.383105 190.208138 
L 163.587724 190.266868 
L 163.792344 190.002109 
L 165.020062 186.830549 
L 165.429302 186.700498 
L 165.838541 186.811173 
L 166.4524 187.214848 
L 166.86164 187.994963 
L 167.884739 190.921932 
L 168.089358 191.087053 
L 168.293978 190.92983 
L 168.703217 189.741745 
L 169.521696 186.556958 
L 169.930936 185.720354 
L 170.135556 185.589197 
L 170.340175 185.63335 
L 170.954034 186.05777 
L 171.158654 185.895522 
L 171.567894 184.821446 
L 172.181753 183.018941 
L 172.590992 182.097622 
L 173.409471 179.192214 
L 174.02333 176.678321 
L 174.43257 174.054907 
L 175.251049 167.405574 
L 175.455668 166.523299 
L 175.660288 166.292203 
L 175.864908 166.682722 
L 176.274147 169.018975 
L 177.501866 179.696561 
L 178.115725 182.672721 
L 178.729584 184.681297 
L 179.343443 186.015781 
L 179.957302 186.730169 
L 180.366542 186.831585 
L 180.571162 186.833262 
L 180.775781 186.978103 
L 181.59426 188.269174 
L 182.412739 188.162549 
L 183.026598 188.747917 
L 183.231218 188.745864 
L 183.845077 188.383085 
L 185.686655 189.148554 
L 186.095894 189.379743 
L 186.914373 190.217577 
L 187.118993 190.20834 
L 187.528232 189.759672 
L 187.937472 189.323834 
L 188.346711 189.286895 
L 189.57443 189.732083 
L 190.597528 188.734488 
L 190.802148 188.676717 
L 191.620627 188.918361 
L 192.439106 188.636275 
L 192.643725 188.750717 
L 193.462204 189.989135 
L 193.666824 189.899265 
L 194.689923 188.510128 
L 195.099162 188.072299 
L 195.508402 187.600602 
L 195.917641 187.718494 
L 196.73612 188.105063 
L 197.349979 188.51719 
L 198.373078 188.367843 
L 198.782317 188.147403 
L 198.986937 188.213016 
L 200.623895 189.976418 
L 200.828515 189.926009 
L 201.851613 188.339308 
L 202.260853 188.400409 
L 202.874712 188.569569 
L 203.693191 188.645733 
L 204.10243 189.161368 
L 204.51167 189.679165 
L 205.330149 190.064352 
L 206.148627 191.228488 
L 206.557867 191.435874 
L 206.967106 191.181407 
L 207.785585 190.289875 
L 208.399444 189.625842 
L 208.808684 189.420154 
L 209.013304 189.474694 
L 211.264121 191.530242 
L 211.67336 191.469171 
L 212.287219 191.657713 
L 212.696459 191.257226 
L 213.719557 189.926559 
L 214.128797 189.4196 
L 214.538036 189.304303 
L 214.947276 189.551039 
L 215.356515 190.032311 
L 216.379614 191.820348 
L 216.584233 191.848033 
L 216.788853 191.728441 
L 217.198093 191.053482 
L 218.221191 188.423833 
L 218.630431 188.073254 
L 219.24429 188.031764 
L 219.653529 188.337343 
L 220.267389 189.212545 
L 221.290487 189.859998 
L 222.108966 189.43031 
L 222.722825 190.051361 
L 223.745924 190.894503 
L 224.359783 190.842899 
L 224.769023 190.795287 
L 224.973642 190.569836 
L 225.996741 188.737978 
L 226.40598 188.478282 
L 226.81522 188.574241 
L 228.452178 189.550946 
L 229.066037 189.391028 
L 229.679896 189.286567 
L 230.089135 189.399537 
L 230.498375 189.712784 
L 231.316854 190.586647 
L 231.726093 190.567998 
L 232.135333 190.045632 
L 232.749192 188.960696 
L 232.953812 188.82502 
L 233.363051 189.006881 
L 233.772291 189.251275 
L 233.97691 189.233139 
L 234.18153 189.0524 
L 234.590769 188.179285 
L 235.000009 187.364789 
L 235.204629 187.280307 
L 235.613868 187.641197 
L 236.227727 188.23544 
L 236.636967 188.556341 
L 237.046206 189.344836 
L 237.455446 190.315199 
L 237.660065 190.540335 
L 238.069305 190.538004 
L 238.478544 190.492878 
L 240.524742 191.238578 
L 240.729361 191.144092 
L 240.933981 190.830021 
L 241.95708 188.128342 
L 242.366319 187.859209 
L 242.570939 187.849813 
L 242.775559 188.005677 
L 243.184798 188.923925 
L 243.594037 190.033692 
L 244.003277 190.461076 
L 244.821756 190.635553 
L 245.435615 190.55256 
L 246.049474 190.708697 
L 246.254094 190.569705 
L 246.663333 189.77887 
L 247.891052 186.263786 
L 248.504911 185.118738 
L 248.709531 185.033597 
L 249.11877 185.382313 
L 249.32339 185.578851 
L 249.52801 185.58608 
L 249.732629 185.253864 
L 250.141869 183.61179 
L 250.960348 179.736978 
L 251.574207 177.409216 
L 251.983446 174.9824 
L 252.597305 170.867691 
L 252.801925 170.378192 
L 253.006545 170.594691 
L 253.415784 172.65377 
L 254.438883 180.204065 
L 254.848122 181.295266 
L 255.461982 181.969425 
L 256.075841 182.338996 
L 256.28046 182.350347 
L 256.6897 182.015807 
L 257.098939 181.287785 
L 257.712799 179.191166 
L 258.122038 178.048214 
L 258.531277 177.593288 
L 258.940517 177.21264 
L 259.349756 176.200548 
L 259.758996 174.263865 
L 260.168235 171.121563 
L 260.577475 166.445186 
L 261.191334 156.2493 
L 261.805193 141.713059 
L 262.623672 120.184038 
L 262.828292 118.216406 
L 263.032911 118.67139 
L 263.237531 121.43622 
L 263.646771 131.873732 
L 264.46525 153.479678 
L 265.079109 162.977195 
L 265.488348 166.980661 
L 266.102207 170.423967 
L 266.511447 171.883984 
L 266.716067 172.045317 
L 266.920686 171.818283 
L 267.329926 170.47565 
L 268.557644 164.3031 
L 268.762264 164.31876 
L 269.376123 165.390042 
L 269.580743 165.356566 
L 269.785362 164.902263 
L 270.194602 162.620413 
L 270.603841 158.560487 
L 271.013081 152.41424 
L 271.62694 138.98744 
L 272.854658 105.934901 
L 273.059278 106.150953 
L 273.263898 108.960908 
L 273.877757 124.902487 
L 274.491616 139.935526 
L 274.900856 146.295698 
L 275.310095 149.738573 
L 275.514715 150.430439 
L 275.719335 150.444387 
L 275.923954 149.810267 
L 276.333194 146.908599 
L 276.742433 142.359262 
L 277.151673 135.833279 
L 277.765532 121.879761 
L 278.584011 102.356294 
L 278.99325 97.114173 
L 279.40249 95.454818 
L 279.811729 95.256416 
L 280.016349 95.298665 
L 280.220969 95.470568 
L 280.425588 95.930847 
L 280.630208 96.881476 
L 280.834828 98.544088 
L 281.244067 104.854345 
L 281.857926 121.643352 
L 282.676405 143.633605 
L 283.290264 152.861084 
L 283.904124 158.873129 
L 284.517983 162.635462 
L 284.927222 163.795086 
L 285.131842 163.705351 
L 285.541081 162.409032 
L 285.950321 160.403713 
L 286.35956 157.399992 
L 286.97342 152.43028 
L 287.791898 148.379744 
L 288.405758 144.789617 
L 289.019617 141.112608 
L 289.224237 140.51359 
L 289.428856 140.315552 
L 289.633476 140.457185 
L 290.451955 141.774557 
L 290.861194 142.007837 
L 291.270434 142.618 
L 291.679673 143.880097 
L 292.088913 145.916561 
L 292.702772 150.82266 
L 293.316631 155.130905 
L 293.521251 155.821214 
L 293.72587 156.017105 
L 293.93049 155.708053 
L 294.13511 154.89428 
L 294.544349 151.76919 
L 294.953589 146.344291 
L 295.772068 133.768903 
L 295.976687 132.138113 
L 296.181307 131.59115 
L 296.385927 132.09756 
L 296.795166 135.459438 
L 297.409026 140.948008 
L 297.818265 142.353982 
L 298.227504 143.331531 
L 298.432124 144.402333 
L 298.841364 148.567696 
L 299.659843 159.079635 
L 300.069082 162.378246 
L 300.887561 166.325385 
L 301.70604 169.972148 
L 302.115279 171.128903 
L 302.319899 171.369778 
L 302.524519 171.305327 
L 302.729138 170.930617 
L 303.138378 169.389317 
L 303.752237 166.095949 
L 304.161477 162.972587 
L 304.570716 158.389505 
L 305.184575 148.212717 
L 306.003054 129.237007 
L 307.026153 105.607271 
L 307.435392 99.639765 
L 307.640012 98.106937 
L 307.844632 97.608153 
L 308.049251 97.948355 
L 308.458491 99.905612 
L 309.07235 103.898328 
L 309.481589 108.849986 
L 309.890829 116.854225 
L 311.527787 154.156392 
L 311.937026 159.483956 
L 312.346266 162.545328 
L 312.755505 164.251555 
L 313.164745 165.114645 
L 313.369364 165.266714 
L 313.573984 165.203981 
L 313.778604 164.913305 
L 314.187843 163.531368 
L 314.597083 161.068181 
L 315.006322 157.660885 
L 315.620181 149.865668 
L 316.23404 138.3831 
L 317.052519 122.212694 
L 317.461759 118.501282 
L 317.666379 118.167858 
L 317.870998 118.614982 
L 318.894097 122.793013 
L 319.098717 123.467147 
L 319.303336 124.545751 
L 319.712576 128.771338 
L 321.349534 152.748301 
L 321.554153 153.831583 
L 321.758773 154.274941 
L 321.963393 154.157424 
L 322.781872 152.345598 
L 322.986491 152.736376 
L 323.80497 155.915175 
L 324.00959 155.974897 
L 324.21421 155.662072 
L 324.623449 154.025377 
L 325.237308 150.749846 
L 325.441928 150.313963 
L 325.646548 150.297698 
L 325.851168 150.651183 
L 326.260407 152.361292 
L 326.669647 154.399802 
L 326.874266 154.945445 
L 327.078886 155.009273 
L 327.283506 154.611729 
L 327.692745 152.575601 
L 328.511224 146.932254 
L 328.715844 146.200953 
L 328.920464 145.926044 
L 329.125083 145.977084 
L 329.738942 146.537044 
L 329.943562 146.476977 
L 330.148182 146.134932 
L 330.557421 144.548337 
L 330.966661 141.623586 
L 331.58052 134.793565 
L 332.808238 118.300941 
L 333.217478 116.649662 
L 333.422097 116.694956 
L 333.626717 117.180771 
L 334.035957 119.016599 
L 334.445196 122.127321 
L 335.263675 131.353938 
L 336.491393 146.398199 
L 337.105253 150.243528 
L 337.514492 152.095074 
L 337.923731 152.873462 
L 338.128351 152.795944 
L 338.332971 152.437149 
L 338.74221 151.085134 
L 339.15145 149.011806 
L 339.560689 145.978763 
L 339.969929 141.658829 
L 340.583788 132.092336 
L 341.606887 110.848536 
L 342.425365 91.016502 
L 343.039225 69.729684 
L 344.471563 6.799202 
L 344.676182 3.357572 
L 344.880802 3.00024 
L 345.085422 5.866665 
L 345.494661 19.902031 
L 346.926999 84.606923 
L 347.745478 108.455448 
L 348.563957 127.141493 
L 349.177816 137.253168 
L 349.791676 144.193061 
L 350.200915 146.692367 
L 350.405535 147.122731 
L 350.610155 147.111606 
L 350.814774 146.762828 
L 351.224014 145.08132 
L 351.633253 141.786051 
L 352.247112 133.846345 
L 352.860972 121.7208 
L 353.67945 100.042232 
L 354.497929 72.297191 
L 355.930267 15.454125 
L 356.134887 12.173811 
L 356.339507 11.635821 
L 356.544127 13.958179 
L 356.953366 26.156493 
L 357.771845 65.895496 
L 358.385704 91.163805 
L 358.999563 108.137343 
L 359.818042 124.575403 
L 360.841141 141.653191 
L 361.65962 151.167444 
L 362.068859 154.282566 
L 362.478099 155.989598 
L 362.682718 156.261003 
L 362.887338 156.187263 
L 363.091958 155.831583 
L 363.501197 154.496746 
L 364.319676 150.67793 
L 365.342775 144.254874 
L 365.956634 138.917042 
L 366.979733 128.899077 
L 367.388972 127.063197 
L 367.593592 126.932657 
L 367.798212 127.355022 
L 368.002831 128.373706 
L 368.412071 132.463366 
L 369.02593 142.521647 
L 370.049029 159.127691 
L 370.662888 165.155752 
L 371.481367 170.202106 
L 372.299846 173.900878 
L 374.141423 181.02189 
L 374.550663 181.878573 
L 374.755282 181.910331 
L 375.369141 181.674435 
L 375.778381 181.732551 
L 375.983001 181.645857 
L 376.80148 180.612256 
L 377.210719 180.937823 
L 377.415339 180.875848 
L 377.824578 180.210903 
L 378.233818 179.228087 
L 379.052297 176.378883 
L 379.666156 174.325828 
L 380.075395 173.825641 
L 380.280015 173.888807 
L 380.689254 174.54871 
L 381.098494 175.123477 
L 381.303114 175.061355 
L 382.121592 173.932615 
L 382.940071 173.695661 
L 383.349311 172.954403 
L 383.75855 171.612164 
L 384.372409 168.180189 
L 384.781649 166.36368 
L 384.986269 166.264569 
L 385.190888 166.757726 
L 385.600128 169.031322 
L 386.009367 171.48501 
L 386.418607 172.524939 
L 386.623226 172.605574 
L 387.237086 172.393172 
L 387.850945 171.998169 
L 388.464804 171.518278 
L 388.874043 170.864332 
L 389.283283 169.589018 
L 389.897142 166.581312 
L 390.715621 161.655103 
L 390.920241 161.258526 
L 391.12486 161.366501 
L 391.5341 162.585 
L 392.761818 167.745295 
L 392.966438 167.840473 
L 393.580297 167.278144 
L 393.784917 167.040796 
L 393.989537 166.592066 
L 394.398776 164.645623 
L 395.012635 159.599222 
L 395.626494 154.591886 
L 396.035734 153.248028 
L 396.240354 153.323949 
L 396.444973 154.008402 
L 396.854213 157.283641 
L 397.672692 167.890267 
L 398.286551 174.479962 
L 398.69579 176.843432 
L 399.10503 178.188321 
L 399.718889 179.449122 
L 400.128128 181.018122 
L 401.151227 185.897118 
L 401.560467 186.884667 
L 401.969706 187.257115 
L 402.378945 187.451052 
L 402.992805 188.283849 
L 403.402044 188.705909 
L 403.606664 188.620754 
L 404.015903 187.858228 
L 404.425143 187.028392 
L 404.629762 186.856444 
L 404.834382 186.8889 
L 405.448241 187.464522 
L 405.652861 187.347106 
L 406.26672 186.467267 
L 406.67596 186.438196 
L 407.289819 186.536517 
L 407.699058 186.974843 
L 408.312918 187.947057 
L 408.517537 187.968859 
L 409.336016 187.371813 
L 409.949875 186.684755 
L 410.154495 186.703496 
L 410.768354 187.219224 
L 411.586833 186.824665 
L 412.609932 186.422321 
L 413.019171 186.818799 
L 413.63303 187.705291 
L 413.83765 187.643907 
L 415.065368 186.362557 
L 415.474608 186.207055 
L 416.497707 186.247764 
L 416.702326 186.014438 
L 417.111566 184.774986 
L 417.725425 182.627155 
L 418.748524 180.676014 
L 419.157763 178.459774 
L 419.771622 172.763499 
L 420.999341 157.341794 
L 421.20396 156.360929 
L 421.40858 156.021517 
L 421.6132 156.117978 
L 422.022439 156.642512 
L 422.227059 156.597887 
L 422.431679 156.108103 
L 422.636298 155.039016 
L 423.045538 150.981494 
L 423.659397 144.360795 
L 423.864017 143.973319 
L 424.068636 145.019031 
L 424.477876 150.588081 
L 425.296355 163.899746 
L 425.705594 168.074021 
L 426.114834 170.354037 
L 427.137932 173.520658 
L 427.956411 176.804639 
L 428.365651 177.65682 
L 428.57027 177.878557 
L 428.77489 177.885587 
L 428.97951 177.644179 
L 430.002609 175.791886 
L 430.411848 175.08904 
L 430.821087 173.312665 
L 432.253426 163.989744 
L 432.458045 163.461378 
L 432.662665 163.529222 
L 433.071904 165.033923 
L 433.685764 167.592495 
L 434.095003 168.521271 
L 434.299623 168.539437 
L 434.708862 168.165802 
L 434.913482 168.176116 
L 435.118102 168.574668 
L 435.322721 169.527263 
L 435.936581 174.788116 
L 436.55044 179.222341 
L 437.573538 183.7135 
L 437.982778 185.318952 
L 438.187398 185.805437 
L 438.596637 186.05106 
L 438.801257 186.121923 
L 439.005877 186.340493 
L 440.438215 189.004958 
L 440.847454 189.024997 
L 441.461313 188.925146 
L 442.279792 189.234458 
L 442.689032 189.2885 
L 443.302891 189.83517 
L 444.12137 190.788953 
L 444.939849 192.07739 
L 445.144468 192.058333 
L 445.758328 191.519521 
L 446.372187 191.427505 
L 446.986046 190.71628 
L 447.599905 190.110953 
L 448.009144 189.937675 
L 449.032243 189.800072 
L 449.646102 189.964282 
L 449.850722 189.866471 
L 450.259961 189.129209 
L 450.669201 188.468354 
L 451.07844 188.082841 
L 451.6923 187.23975 
L 452.101539 187.084229 
L 452.510778 187.366512 
L 453.943117 189.133483 
L 454.352356 189.160336 
L 454.761595 188.736719 
L 455.170835 188.328136 
L 455.375455 188.4059 
L 455.784694 189.09336 
L 456.193934 189.761095 
L 456.398553 189.86617 
L 456.807793 189.600157 
L 457.217032 189.104188 
L 458.035511 187.597859 
L 458.240131 187.638499 
L 459.05861 188.194342 
L 459.467849 188.442386 
L 460.081708 188.96836 
L 460.900187 189.237376 
L 461.514046 189.924192 
L 462.127906 190.486369 
L 462.332525 190.515893 
L 462.537145 190.390451 
L 463.151004 189.636309 
L 463.355624 189.687538 
L 464.174103 190.36349 
L 464.583342 190.156543 
L 465.197202 189.72146 
L 466.834159 189.306209 
L 467.652638 188.094078 
L 467.857258 188.076266 
L 468.266497 188.488159 
L 469.084976 189.533544 
L 469.494216 190.392913 
L 469.903455 191.399964 
L 470.108075 191.651365 
L 470.312695 191.709154 
L 470.721934 191.526572 
L 471.540413 190.788677 
L 472.154272 190.266095 
L 472.563512 190.203276 
L 473.79123 190.461622 
L 474.20047 190.950479 
L 475.223568 192.450676 
L 475.632808 192.440949 
L 476.451287 192.049907 
L 477.065146 191.993454 
L 477.269765 191.787095 
L 478.088244 190.392124 
L 478.497484 189.957932 
L 479.725202 187.956442 
L 480.134442 188.005806 
L 480.748301 188.539034 
L 481.56678 189.611901 
L 481.771399 189.618775 
L 482.794498 188.779816 
L 482.999118 188.835538 
L 483.408357 189.256506 
L 483.817597 189.73825 
L 484.022216 189.824743 
L 484.431456 189.664722 
L 485.454555 189.113249 
L 485.863794 189.251245 
L 486.477653 189.539495 
L 486.682273 189.468718 
L 487.091512 188.896365 
L 487.705371 187.574978 
L 487.909991 187.409425 
L 488.319231 187.569192 
L 488.93309 188.074138 
L 489.956188 188.374345 
L 490.979287 189.77572 
L 491.388527 189.721936 
L 491.797766 189.603471 
L 492.616245 189.567846 
L 493.230104 189.419787 
L 493.843963 188.826091 
L 494.253203 188.475136 
L 494.457822 188.644841 
L 494.867062 189.995197 
L 495.276301 191.389467 
L 495.480921 191.569354 
L 495.685541 191.374234 
L 496.2994 190.276134 
L 497.117879 189.90767 
L 497.527118 189.645109 
L 497.731738 189.825759 
L 498.140978 191.137859 
L 498.754837 193.36049 
L 499.164076 193.895071 
L 500.187175 194.589664 
L 500.391795 194.542856 
L 500.596414 194.28369 
L 501.210273 192.565175 
L 501.824133 191.095424 
L 502.233372 190.517512 
L 502.437992 190.660856 
L 503.051851 191.773117 
L 503.256471 191.716417 
L 503.66571 190.744025 
L 504.279569 189.124926 
L 504.484189 189.079394 
L 505.098048 189.687471 
L 505.711907 189.611436 
L 506.121147 189.911784 
L 506.939626 190.681211 
L 507.144246 190.71134 
L 508.781203 189.957319 
L 509.804302 189.122917 
L 510.008922 189.200809 
L 510.213541 189.434569 
L 510.622781 190.480462 
L 511.03202 191.537413 
L 511.23664 191.693676 
L 511.44126 191.590391 
L 511.850499 190.905845 
L 512.259739 190.221422 
L 513.078218 189.582351 
L 513.282837 189.619397 
L 513.692077 190.295743 
L 514.101316 190.914269 
L 514.305936 190.894817 
L 514.715175 190.585965 
L 514.919795 190.576488 
L 515.533654 190.846279 
L 516.147514 190.494453 
L 516.556753 189.995521 
L 517.375232 188.414508 
L 517.784471 187.979425 
L 517.989091 187.96842 
L 518.398331 188.200489 
L 518.60295 188.088917 
L 519.01219 187.17276 
L 519.421429 186.417213 
L 519.626049 186.410698 
L 519.830669 186.60679 
L 520.239908 187.597247 
L 520.853767 189.655583 
L 521.058387 190.008386 
L 521.263007 190.049742 
L 521.876866 189.415096 
L 522.286105 188.708238 
L 523.309204 185.72918 
L 523.513824 185.597262 
L 523.718443 185.739259 
L 524.127683 186.650439 
L 524.946162 188.616316 
L 525.560021 189.669019 
L 525.96926 190.050802 
L 527.401598 190.824091 
L 527.606218 190.575252 
L 528.629317 188.329582 
L 529.243176 187.669608 
L 530.266275 185.938312 
L 530.470894 185.996941 
L 530.880134 186.497477 
L 531.493993 187.212403 
L 532.312472 187.610067 
L 532.926331 187.673651 
L 533.335571 188.040375 
L 533.74481 188.388863 
L 534.563289 188.566636 
L 534.767909 188.524771 
L 535.177148 188.039421 
L 535.586388 187.462278 
L 535.995627 187.258534 
L 536.814106 187.524608 
L 538.246444 188.274543 
L 538.860303 188.187039 
L 539.678782 188.35352 
L 540.088022 188.500014 
L 540.701881 189.086401 
L 540.9065 189.087976 
L 541.31574 188.700089 
L 541.929599 188.049396 
L 542.338839 187.920225 
L 542.748078 188.456006 
L 543.361937 189.374332 
L 543.566557 189.494802 
L 543.771177 189.438309 
L 544.589656 188.484305 
L 545.612754 188.646334 
L 546.635853 188.562558 
L 547.045092 188.15311 
L 547.454332 187.588125 
L 547.658951 187.519652 
L 547.863571 187.574095 
L 548.068191 187.743861 
L 548.47743 188.592674 
L 549.295909 190.805866 
L 549.909768 191.705359 
L 550.319008 191.848063 
L 550.728247 191.730176 
L 551.137487 191.351167 
L 551.546726 190.461434 
L 552.160585 188.973095 
L 552.365205 188.798364 
L 552.569825 188.793344 
L 552.979064 189.210262 
L 553.592924 190.099059 
L 554.002163 190.134679 
L 554.820642 189.733749 
L 555.229881 190.131356 
L 556.04836 191.159336 
L 556.25298 191.0316 
L 556.662219 190.13022 
L 557.071459 189.125148 
L 557.276079 188.861143 
L 558.094558 188.595759 
L 558.503797 188.31912 
L 558.708417 188.481472 
L 559.322276 189.744984 
L 559.936135 190.77668 
L 560.345375 191.141871 
L 561.368473 191.087503 
L 561.777713 191.055631 
L 562.391572 191.373712 
L 563.005431 191.955037 
L 563.210051 191.963197 
L 563.41467 191.844059 
L 563.61929 191.569806 
L 564.02853 190.447868 
L 564.437769 189.403743 
L 564.847008 189.166199 
L 565.051628 189.245457 
L 565.870107 190.133738 
L 566.688586 189.989063 
L 566.893206 189.778091 
L 567.302445 188.913257 
L 567.711685 187.940619 
L 567.916304 187.736722 
L 568.120924 187.829498 
L 568.734783 188.522919 
L 570.576361 189.632796 
L 570.9856 190.11501 
L 571.599459 191.051137 
L 571.804079 191.208676 
L 572.008699 191.208397 
L 572.417938 190.733133 
L 573.031798 189.837223 
L 573.441037 189.682289 
L 574.054896 189.62114 
L 574.464136 189.575696 
L 574.873375 189.787466 
L 575.282615 190.535385 
L 576.305713 193.548873 
L 576.714953 193.859721 
L 576.919572 193.913622 
L 577.124192 193.840394 
L 577.738051 193.261085 
L 577.942671 193.240822 
L 579.579629 194.024637 
L 579.784249 193.954681 
L 580.193488 193.373823 
L 580.602727 192.702889 
L 581.421206 191.928477 
L 581.830446 191.458368 
L 582.035066 191.39209 
L 582.239685 191.446623 
L 583.262784 192.256464 
L 583.467404 192.171573 
L 583.672023 191.919799 
L 584.081263 190.896836 
L 584.490502 189.820322 
L 584.695122 189.543442 
L 585.513601 189.314344 
L 586.12746 188.429305 
L 586.741319 187.840299 
L 587.150559 187.431027 
L 587.355178 187.403476 
L 587.559798 187.594576 
L 588.582897 189.458542 
L 588.992136 189.719209 
L 589.196756 189.677979 
L 590.219855 188.824382 
L 591.652193 188.908738 
L 592.061432 188.458178 
L 592.470672 187.991597 
L 592.879911 187.989221 
L 593.289151 188.185793 
L 594.312249 189.517296 
L 594.721489 189.849809 
L 595.335348 190.545764 
L 595.539968 190.600826 
L 595.744587 190.505923 
L 596.563066 189.615325 
L 596.972306 189.182217 
L 597.381545 188.483247 
L 597.586165 188.333528 
L 597.790785 188.454698 
L 598.404644 189.31537 
L 598.609263 189.386959 
L 599.018503 189.17503 
L 600.041602 188.499487 
L 600.246221 188.625706 
L 601.26932 190.200778 
L 602.087799 190.492779 
L 602.701658 190.796812 
L 603.520137 191.058045 
L 603.929376 191.24396 
L 604.338616 190.967245 
L 605.157095 189.751756 
L 605.361714 189.742929 
L 606.180193 190.293149 
L 607.612531 188.180725 
L 608.43101 186.044969 
L 608.63563 185.995516 
L 609.044869 186.507464 
L 609.454109 186.917974 
L 609.863348 187.053455 
L 610.272588 187.400306 
L 610.477208 187.42453 
L 610.886447 186.997535 
L 611.704926 185.921029 
L 611.909546 185.809312 
L 612.114165 185.827721 
L 612.318785 186.035647 
L 612.728025 186.917552 
L 613.751123 189.825959 
L 614.160363 190.217644 
L 614.364982 190.185341 
L 614.774222 189.657919 
L 615.183461 189.090441 
L 615.592701 188.595868 
L 616.00194 187.862712 
L 616.20656 187.688286 
L 616.41118 187.757583 
L 616.820419 188.467467 
L 617.229659 189.201405 
L 617.638898 189.52804 
L 618.048137 189.470598 
L 618.457377 189.268351 
L 618.866616 189.380742 
L 619.275856 189.534435 
L 619.685095 189.263488 
L 620.298954 188.515363 
L 620.708194 188.408731 
L 621.322053 188.715162 
L 621.731293 189.152925 
L 622.754391 191.036618 
L 622.959011 190.95759 
L 623.36825 190.105876 
L 623.77749 189.349411 
L 623.98211 189.325301 
L 624.391349 189.851128 
L 625.005208 190.68312 
L 625.414448 190.948704 
L 625.619067 190.836973 
L 626.437546 189.610374 
L 627.256025 189.434083 
L 627.665265 189.605965 
L 628.074504 189.869972 
L 628.483744 189.816982 
L 629.097603 189.446309 
L 629.302222 189.577365 
L 629.711462 190.49406 
L 630.120701 191.346398 
L 630.529941 191.713438 
L 630.93918 191.648493 
L 631.34842 191.097987 
L 631.962279 189.881374 
L 632.371518 189.565775 
L 633.189997 189.35836 
L 633.803856 189.199662 
L 634.213096 189.319387 
L 634.826955 189.816576 
L 635.236195 189.749 
L 636.054673 189.313324 
L 636.873152 188.239621 
L 637.282392 188.273592 
L 637.896251 188.561866 
L 638.100871 188.398424 
L 638.51011 187.803128 
L 638.71473 187.778366 
L 639.123969 188.455949 
L 639.533209 189.165487 
L 639.942448 189.264308 
L 640.351688 189.316896 
L 641.170167 189.658903 
L 641.374786 189.582173 
L 641.784026 189.027423 
L 642.807124 186.522758 
L 643.011744 186.646651 
L 645.262561 190.613706 
L 645.671801 190.759347 
L 646.899519 190.425482 
L 647.308758 190.691758 
L 647.717998 191.230711 
L 648.536477 192.736127 
L 648.741096 192.735505 
L 649.150336 192.128716 
L 650.173435 189.553119 
L 650.991913 187.374673 
L 651.401153 187.035652 
L 651.605773 187.042366 
L 652.015012 187.422549 
L 652.628871 188.243728 
L 652.833491 188.266144 
L 653.44735 187.902509 
L 653.85659 188.045945 
L 654.675069 188.963981 
L 655.084308 188.710653 
L 655.288928 188.595002 
L 655.493547 188.632057 
L 655.902787 189.164229 
L 656.925886 190.958196 
L 657.130505 190.956061 
L 657.744364 190.318358 
L 658.562843 190.329356 
L 658.972083 190.05902 
L 659.585942 190.023029 
L 659.995181 190.191141 
L 660.404421 190.726759 
L 660.81366 191.331389 
L 662.655238 192.84836 
L 662.859858 192.888511 
L 663.064477 192.714482 
L 663.473717 191.716349 
L 664.087576 190.243795 
L 664.496815 189.93934 
L 664.906055 189.653842 
L 665.315294 189.331501 
L 665.519914 189.35459 
L 665.929154 189.913947 
L 666.338393 190.499103 
L 667.156872 190.834414 
L 667.566111 190.725389 
L 668.179971 190.259913 
L 668.58921 189.940067 
L 668.998449 189.945795 
L 669.816928 190.117996 
L 670.226168 190.62443 
L 671.863126 193.863668 
L 672.067745 193.924013 
L 672.272365 193.735138 
L 673.704703 191.257694 
L 674.727802 188.294519 
L 674.932422 188.239475 
L 675.341661 188.699671 
L 675.7509 189.018267 
L 676.16014 188.707193 
L 676.569379 188.450197 
L 676.978619 188.595011 
L 677.387858 189.092193 
L 678.206337 190.605758 
L 678.410957 190.457091 
L 678.820196 189.181187 
L 679.229436 187.947602 
L 679.434055 187.730185 
L 679.638675 187.697521 
L 680.457154 187.98687 
L 680.866394 187.335068 
L 681.071013 186.979309 
L 681.275633 186.848934 
L 681.480253 187.026093 
L 682.503351 189.099259 
L 682.707971 189.12998 
L 683.117211 188.739336 
L 683.52645 188.385988 
L 683.73107 188.521667 
L 684.140309 189.041284 
L 684.344929 189.091609 
L 685.572647 188.115938 
L 686.391126 187.3211 
L 687.209605 186.930619 
L 688.028084 186.965609 
L 688.437323 187.249684 
L 688.846563 187.987043 
L 689.869662 189.927478 
L 690.89276 190.714407 
L 691.302 190.87417 
L 692.120479 191.564954 
L 692.325098 191.54334 
L 692.734338 191.143456 
L 693.757436 189.922684 
L 694.371296 189.422751 
L 694.575915 189.391677 
L 695.394394 189.652481 
L 696.417493 188.759819 
L 696.826732 188.847069 
L 697.235972 189.232657 
L 697.645211 189.773173 
L 697.849831 189.842029 
L 698.054451 189.69971 
L 698.46369 188.916565 
L 699.077549 187.460281 
L 699.486789 187.271245 
L 699.691408 187.337556 
L 699.896028 187.521648 
L 700.714507 188.674361 
L 701.532986 188.129473 
L 702.146845 188.679421 
L 702.351465 188.494561 
L 702.760704 187.315272 
L 703.169944 186.129961 
L 703.374564 185.909946 
L 703.783803 185.925054 
L 704.193042 185.949805 
L 704.602282 185.843719 
L 704.806902 185.919636 
L 705.216141 186.456186 
L 705.83 187.424508 
L 706.443859 188.112378 
L 707.057719 188.983224 
L 707.262338 189.06856 
L 707.466958 188.928769 
L 707.876198 188.024117 
L 708.490057 186.705243 
L 708.899296 186.277304 
L 709.308536 186.173036 
L 709.922395 186.325324 
L 710.127015 186.140233 
L 710.536254 184.955849 
L 711.354733 182.045237 
L 711.968592 180.575342 
L 712.787071 179.23136 
L 713.19631 177.094558 
L 714.219409 168.808126 
L 714.833268 162.031755 
L 715.447127 151.502053 
L 717.697944 107.534179 
L 717.902564 106.127257 
L 718.107184 105.943959 
L 718.311804 107.061172 
L 718.721043 112.561161 
L 719.334902 125.906321 
L 720.358001 149.830034 
L 720.97186 159.544371 
L 721.790339 168.595591 
L 722.404198 173.412346 
L 723.018057 176.49351 
L 723.631916 177.880429 
L 725.064255 181.067973 
L 725.473494 181.25985 
L 725.678114 181.264731 
L 725.882733 181.4165 
L 726.291973 182.264614 
L 727.315072 184.76942 
L 727.928931 186.732451 
L 728.54279 187.768561 
L 728.952029 188.223305 
L 729.770508 188.595682 
L 730.179748 188.00587 
L 730.588987 187.606045 
L 730.793607 187.720249 
L 732.839804 190.718874 
L 733.044424 190.732531 
L 733.453663 190.310815 
L 733.862903 189.920563 
L 734.681382 189.756331 
L 735.499861 189.209713 
L 736.11372 189.201448 
L 736.31834 188.975833 
L 736.522959 188.503394 
L 736.932199 186.736514 
L 737.750678 181.284544 
L 738.364537 177.184325 
L 738.978396 174.72858 
L 739.387635 173.739137 
L 739.592255 173.474499 
L 739.796875 173.505731 
L 740.001495 173.893208 
L 740.410734 175.57938 
L 742.252312 185.300291 
L 742.661551 186.87431 
L 743.070791 187.649738 
L 743.27541 187.680109 
L 743.889269 187.374155 
L 744.093889 187.566121 
L 744.503129 188.532149 
L 745.321608 191.331353 
L 745.730847 192.806923 
L 745.935467 193.175732 
L 746.140086 193.173842 
L 746.549326 192.480225 
L 747.367805 190.721924 
L 748.800143 187.181058 
L 749.004763 187.065733 
L 749.209382 187.266272 
L 750.437101 189.616601 
L 751.05096 190.26422 
L 751.460199 190.587968 
L 751.664819 190.392888 
L 752.074059 189.095621 
L 752.687918 186.766905 
L 752.892537 186.464915 
L 753.097157 186.362013 
L 753.301777 186.418102 
L 753.711016 186.914286 
L 754.120256 187.438935 
L 754.324876 187.56903 
L 754.529495 187.563498 
L 755.143354 187.27883 
L 755.961833 187.540033 
L 756.371073 187.318659 
L 757.189552 186.349818 
L 757.394171 186.346739 
L 757.598791 186.523167 
L 758.008031 187.270686 
L 759.235749 190.117244 
L 759.644988 190.293392 
L 760.258848 190.006536 
L 760.668087 189.872269 
L 761.077326 190.173622 
L 761.486566 190.593518 
L 761.691186 190.626786 
L 762.100425 190.238315 
L 762.714284 189.082183 
L 763.123524 188.353777 
L 763.328143 188.229408 
L 763.942003 188.378139 
L 764.351242 188.614079 
L 764.760482 189.353639 
L 765.374341 190.471825 
L 765.57896 190.637382 
L 766.397439 190.807463 
L 767.420538 192.632752 
L 767.625158 192.478788 
L 768.034397 191.553203 
L 768.852876 188.747459 
L 769.057496 188.48612 
L 769.262116 188.549649 
L 769.671355 189.258624 
L 770.694454 191.59272 
L 771.512933 193.569683 
L 771.717552 193.759938 
L 771.922172 193.65673 
L 772.331411 192.666789 
L 772.945271 190.948052 
L 773.76375 189.257224 
L 774.172989 189.107752 
L 774.786848 189.075099 
L 774.991468 189.344403 
L 775.605327 190.974577 
L 775.809947 191.055942 
L 776.628426 189.86254 
L 777.856144 189.708299 
L 778.674623 191.032098 
L 779.493102 191.401107 
L 779.697722 191.388734 
L 780.106961 190.925601 
L 781.743919 188.323782 
L 781.948539 188.34353 
L 782.971637 189.32736 
L 783.790116 189.667782 
L 784.199356 190.081484 
L 784.608595 190.552824 
L 785.017835 190.679786 
L 785.427074 190.671112 
L 786.245553 190.3101 
L 786.654792 190.258459 
L 788.08713 189.507917 
L 788.29175 189.692022 
L 788.905609 190.727649 
L 789.110229 190.805729 
L 789.314849 190.702028 
L 789.724088 190.034074 
L 790.337947 188.649376 
L 791.565666 187.570331 
L 792.179525 187.911601 
L 792.588764 187.636706 
L 792.998004 187.466259 
L 793.202624 187.567149 
L 794.225722 188.621727 
L 794.634962 188.495391 
L 795.248821 188.127219 
L 795.65806 188.107079 
L 796.0673 187.709911 
L 796.476539 187.364395 
L 797.090398 187.174743 
L 797.704258 186.73564 
L 798.318117 186.575264 
L 798.727356 186.362036 
L 799.955075 186.399593 
L 800.159694 186.600601 
L 800.568934 187.665726 
L 801.182793 189.599354 
L 801.387413 189.814176 
L 801.592032 189.772866 
L 802.001272 189.208931 
L 803.02437 187.438319 
L 803.22899 187.342405 
L 803.43361 187.496638 
L 804.252089 188.801926 
L 804.456709 188.564022 
L 805.275187 186.718664 
L 806.707526 185.284966 
L 807.321385 185.211081 
L 807.526004 185.311983 
L 807.935244 185.909439 
L 808.549103 186.919727 
L 808.958343 187.128464 
L 809.367582 187.343725 
L 809.981441 188.308512 
L 810.5953 189.107701 
L 811.20916 189.366441 
L 811.618399 189.383294 
L 811.823019 189.250795 
L 812.232258 188.595178 
L 812.641498 187.956027 
L 812.846117 187.877414 
L 813.050737 188.004497 
L 813.869216 189.357737 
L 814.278455 190.202504 
L 814.687695 191.228263 
L 815.096934 191.608126 
L 815.506174 191.697294 
L 815.915413 191.498941 
L 817.552371 190.027982 
L 818.37085 189.108167 
L 820.007808 186.661603 
L 820.417047 186.590002 
L 821.849385 186.591429 
L 822.258625 187.336392 
L 822.667864 188.299658 
L 823.077104 188.722993 
L 823.486343 189.227455 
L 824.100202 190.318513 
L 824.509442 190.445509 
L 826.1464 189.924498 
L 826.760259 189.255196 
L 827.169498 188.942999 
L 828.397217 187.617249 
L 829.011076 186.890642 
L 829.215696 186.878541 
L 829.420315 187.158732 
L 829.829555 188.4754 
L 830.238794 189.855306 
L 830.648034 190.564045 
L 831.261893 191.073858 
L 831.466513 191.135626 
L 831.671132 191.016735 
L 832.284991 190.230106 
L 833.51271 190.132983 
L 834.126569 190.625629 
L 834.535808 190.411497 
L 834.945048 190.220344 
L 835.558907 190.314234 
L 835.968146 189.794594 
L 836.377386 189.166934 
L 836.991245 188.822329 
L 837.400485 188.717149 
L 838.014344 188.877904 
L 838.218963 188.680376 
L 838.628203 187.773688 
L 839.242062 186.328405 
L 839.446682 186.129007 
L 839.855921 186.240905 
L 840.6744 186.472343 
L 841.08364 187.053411 
L 841.697499 188.272797 
L 841.902119 188.456679 
L 842.311358 188.411896 
L 842.720597 187.94812 
L 843.129837 187.039868 
L 843.539076 186.027639 
L 843.743696 185.815978 
L 843.948316 185.860431 
L 844.357555 186.135022 
L 844.562175 186.072205 
L 845.380654 185.213805 
L 845.994513 185.268537 
L 846.403753 184.777368 
L 846.812992 184.371873 
L 848.04071 184.093829 
L 848.24533 183.846223 
L 848.859189 182.060702 
L 850.086908 178.208155 
L 851.314626 172.519597 
L 851.519246 172.273318 
L 851.723865 172.471805 
L 852.133105 173.770579 
L 852.542344 175.979076 
L 853.360823 181.592971 
L 853.565443 182.277027 
L 853.770063 182.562454 
L 854.179302 182.519728 
L 854.383922 182.494664 
L 854.588542 182.622001 
L 855.81626 184.262583 
L 856.634739 186.159988 
L 857.657838 186.907706 
L 857.862457 186.90588 
L 858.067077 186.646173 
L 858.680936 185.524757 
L 859.294795 185.205133 
L 860.317894 183.795063 
L 860.727133 183.707918 
L 861.136373 183.366138 
L 861.545612 182.918383 
L 861.750232 182.876211 
L 862.159472 183.20301 
L 862.97795 184.588091 
L 863.59181 186.182609 
L 864.001049 187.212328 
L 864.410289 187.693487 
L 864.819528 187.655908 
L 866.047246 186.786883 
L 866.661106 186.635803 
L 867.070345 186.26467 
L 868.093444 185.053889 
L 868.502683 185.029977 
L 868.707303 184.822258 
L 869.116542 183.760126 
L 869.935021 180.883162 
L 870.139641 180.68289 
L 870.344261 180.754644 
L 870.54888 181.101023 
L 871.981218 184.804673 
L 872.185838 184.786951 
L 873.004317 183.995481 
L 874.027416 182.71544 
L 874.641275 181.594682 
L 874.845895 181.522838 
L 875.255134 181.800141 
L 876.278233 182.880067 
L 877.710571 182.308524 
L 878.733669 181.565909 
L 879.347529 181.342023 
L 879.756768 180.740678 
L 880.370627 179.681253 
L 880.575247 179.627145 
L 881.189106 180.13581 
L 881.393726 180.066469 
L 881.802965 179.407926 
L 882.212205 178.846123 
L 882.621444 178.644503 
L 883.030684 177.909517 
L 884.258402 174.919869 
L 884.463022 174.784956 
L 884.872261 174.994471 
L 885.281501 175.504882 
L 885.69074 176.19078 
L 885.89536 176.287673 
L 886.09998 176.11545 
L 886.509219 175.097921 
L 887.327698 172.827813 
L 887.941557 171.328916 
L 888.350797 170.865276 
L 888.760036 170.458692 
L 889.169275 169.440964 
L 889.783135 167.581842 
L 890.396994 166.464546 
L 890.806233 166.250528 
L 891.215473 166.503979 
L 891.624712 167.263193 
L 892.033952 167.861899 
L 892.238571 167.725719 
L 893.05705 166.381486 
L 893.46629 166.228204 
L 893.875529 165.609921 
L 894.898628 163.454289 
L 896.126346 160.170494 
L 896.535586 159.299544 
L 896.944825 159.029908 
L 897.149445 158.876929 
L 897.354065 158.440356 
L 897.763304 156.580046 
L 898.377163 153.698089 
L 899.400262 150.702349 
L 899.809501 147.9158 
L 900.42336 142.048911 
L 901.03722 132.144511 
L 901.446459 127.259881 
L 901.651079 127.358895 
L 902.060318 131.592046 
L 902.674177 138.326951 
L 903.288037 141.808157 
L 903.697276 143.180234 
L 904.311135 144.805093 
L 904.720375 146.215383 
L 904.924994 146.566493 
L 905.129614 146.605288 
L 905.743473 146.095681 
L 906.152713 146.266635 
L 906.561952 146.38455 
L 906.971192 146.040663 
L 907.585051 145.469802 
L 907.789671 145.490614 
L 908.19891 146.00915 
L 908.60815 146.57039 
L 908.812769 146.648327 
L 909.835868 146.418419 
L 910.654347 145.54463 
L 911.882065 144.069763 
L 912.086685 144.056341 
L 912.495924 144.364093 
L 913.723643 145.962837 
L 914.132882 146.755974 
L 914.337502 146.855302 
L 914.542122 146.646648 
L 914.951361 145.40507 
L 915.97446 140.968375 
L 916.383699 140.273666 
L 916.588319 140.382956 
L 916.997558 141.29123 
L 917.406798 142.266753 
L 917.611417 142.403413 
L 917.816037 142.133745 
L 918.225277 140.646139 
L 918.839136 137.954304 
L 919.248375 134.091739 
L 919.657615 126.650875 
L 920.476094 106.267141 
L 920.680713 105.455479 
L 920.885333 107.839423 
L 922.113051 134.205057 
L 922.726911 141.605623 
L 923.13615 144.646516 
L 924.773108 152.458179 
L 924.977728 152.738624 
L 925.182347 152.637086 
L 926.000826 151.138529 
L 926.205446 151.137899 
L 926.819305 151.55654 
L 927.023925 151.498119 
L 927.433164 150.914548 
L 928.251643 149.006322 
L 929.274742 145.323025 
L 929.683981 144.951484 
L 930.297841 144.679613 
L 930.50246 144.739596 
L 930.70708 144.991409 
L 931.116319 146.030877 
L 931.730179 147.696456 
L 931.934798 147.943044 
L 932.139418 147.949722 
L 932.548658 147.393409 
L 932.957897 146.801509 
L 933.162517 146.762857 
L 933.367136 146.956315 
L 934.390235 148.901586 
L 935.413334 151.771519 
L 935.617953 151.793407 
L 936.027193 151.675909 
L 936.231813 151.871304 
L 936.641052 152.957834 
L 937.459531 155.855627 
L 938.07339 157.146846 
L 939.914968 160.437971 
L 940.528827 160.980269 
L 941.142686 161.701197 
L 941.551926 161.93961 
L 941.961165 161.920468 
L 942.984264 161.534594 
L 943.188883 161.63054 
L 943.598123 162.317583 
L 944.621221 164.895573 
L 945.235081 165.519137 
L 945.64432 165.464668 
L 945.84894 165.402109 
L 946.05356 165.509128 
L 946.258179 165.881209 
L 947.281278 168.783106 
L 948.099757 169.851724 
L 949.532095 173.291966 
L 950.145954 175.484726 
L 950.555193 176.062449 
L 951.987532 177.5992 
L 952.192151 177.575724 
L 953.01063 176.850141 
L 953.21525 177.054838 
L 953.624489 178.095983 
L 954.033729 179.268065 
L 954.442968 179.754393 
L 955.056827 179.699907 
L 955.875306 180.41012 
L 956.489166 180.184372 
L 956.898405 180.412081 
L 957.512264 180.946831 
L 957.716884 180.85941 
L 958.330743 180.178754 
L 958.535363 180.413653 
L 959.353842 182.06672 
L 959.558461 182.080485 
L 959.967701 181.629853 
L 960.37694 181.190134 
L 960.9908 181.174857 
L 961.195419 181.231366 
L 961.604659 181.727269 
L 962.627757 183.557687 
L 962.832377 183.485087 
L 963.446236 182.573472 
L 963.650856 182.686163 
L 964.469335 183.991691 
L 964.878574 184.060035 
L 966.515532 183.791753 
L 967.538631 184.634075 
L 967.94787 184.205525 
L 968.766349 182.938249 
L 968.970969 182.915514 
L 969.175589 183.123587 
L 969.584828 184.211471 
L 970.198687 186.735899 
L 970.812546 189.293331 
L 971.221786 189.910773 
L 971.631025 189.90673 
L 972.040265 189.503185 
L 973.472603 187.699313 
L 974.291082 187.673484 
L 974.700321 187.419071 
L 975.31418 187.388759 
L 975.92804 187.739741 
L 976.132659 187.650529 
L 976.951138 186.588577 
L 977.155758 186.720037 
L 977.564997 187.602617 
L 978.178857 189.037286 
L 978.383476 189.218154 
L 978.792716 189.133695 
L 979.611195 188.663804 
L 980.429674 187.745503 
L 981.043533 187.622947 
L 981.248153 187.661257 
L 981.657392 188.095238 
L 982.475871 189.137642 
L 982.88511 189.439943 
L 983.08973 189.439011 
L 983.29435 189.312474 
L 984.931308 187.41263 
L 985.340547 187.189375 
L 985.545167 187.272089 
L 986.363646 188.182396 
L 987.182125 187.908625 
L 987.386744 188.094489 
L 988.205223 189.539437 
L 988.409843 189.606788 
L 988.819082 189.266982 
L 989.228322 189.012363 
L 989.637561 188.774753 
L 990.25142 188.046573 
L 991.274519 186.4002 
L 991.683759 186.617898 
L 992.092998 186.86099 
L 992.706857 186.941884 
L 992.911477 187.182264 
L 993.320716 188.24374 
L 993.729956 189.402161 
L 993.934576 189.75136 
L 994.139195 189.840745 
L 994.343815 189.640289 
L 995.162294 188.128325 
L 995.571533 187.900848 
L 996.390012 187.96863 
L 997.003871 187.371763 
L 997.413111 187.0772 
L 997.82235 187.016921 
L 998.43621 187.03798 
L 999.050069 186.850943 
L 999.459308 187.121157 
L 999.868548 187.412985 
L 1000.073167 187.377314 
L 1000.687027 186.846985 
L 1000.891646 186.878942 
L 1001.300886 187.142077 
L 1001.505505 187.137743 
L 1001.914745 186.768143 
L 1002.937844 185.060411 
L 1003.347083 185.152832 
L 1004.370182 185.609131 
L 1005.188661 186.179794 
L 1005.80252 186.807386 
L 1006.211759 186.881804 
L 1006.620999 186.812634 
L 1007.439478 186.993248 
L 1008.257956 186.662419 
L 1008.871816 186.310106 
L 1009.076435 186.399191 
L 1009.485675 186.927944 
L 1010.304154 188.310361 
L 1010.713393 188.495017 
L 1011.122633 188.569775 
L 1011.531872 188.76041 
L 1011.736492 188.656544 
L 1011.941112 188.286301 
L 1012.554971 186.507302 
L 1012.96421 186.15796 
L 1013.37345 185.991229 
L 1013.987309 185.536988 
L 1014.601168 185.377306 
L 1014.805788 185.452849 
L 1016.033506 186.67157 
L 1016.238126 186.765207 
L 1016.647365 187.433834 
L 1017.056605 188.177241 
L 1017.465844 188.479911 
L 1018.079703 188.555694 
L 1018.488943 188.39602 
L 1019.102802 187.920586 
L 1019.512041 188.089527 
L 1019.921281 188.287663 
L 1020.33052 188.151283 
L 1020.73976 187.92213 
L 1020.94438 187.922793 
L 1021.148999 188.116135 
L 1021.967478 189.775494 
L 1022.172098 189.867113 
L 1022.376718 189.738958 
L 1022.785957 188.83903 
L 1023.399816 187.079975 
L 1023.809056 186.475126 
L 1024.013675 186.393441 
L 1024.422915 186.58496 
L 1024.832154 186.71749 
L 1025.241394 186.869539 
L 1025.855253 187.606155 
L 1026.264492 188.016204 
L 1026.878352 188.338502 
L 1027.082971 188.325751 
L 1028.10607 187.5563 
L 1028.31069 187.677703 
L 1028.719929 188.535078 
L 1029.333788 189.888038 
L 1030.356887 191.889486 
L 1030.561507 191.871901 
L 1030.970746 191.019896 
L 1031.379986 190.113841 
L 1031.584605 189.919791 
L 1031.993845 189.924026 
L 1032.403084 190.059227 
L 1032.812324 190.511415 
L 1033.221563 191.015572 
L 1033.426183 191.019563 
L 1034.244662 190.360908 
L 1034.653901 190.601553 
L 1035.063141 191.174891 
L 1035.677 192.145334 
L 1035.88162 192.149142 
L 1036.290859 191.617544 
L 1037.313958 189.396325 
L 1037.723197 188.256405 
L 1037.927817 187.953813 
L 1038.132437 187.894464 
L 1039.564775 188.591758 
L 1039.974014 188.555327 
L 1040.587873 188.998925 
L 1040.997113 189.568702 
L 1041.610972 191.033306 
L 1042.224831 192.525597 
L 1042.429451 192.794545 
L 1042.634071 192.867109 
L 1042.83869 192.750775 
L 1043.24793 192.064942 
L 1043.861789 190.69505 
L 1044.066409 190.46654 
L 1044.271028 190.45029 
L 1044.680268 190.889181 
L 1045.498747 192.578978 
L 1045.703366 192.598069 
L 1045.907986 192.30221 
L 1046.521845 190.967067 
L 1046.931085 190.621002 
L 1047.544944 190.501152 
L 1048.158803 190.390085 
L 1048.772662 190.509715 
L 1049.181902 190.527625 
L 1049.591141 190.309777 
L 1051.023479 189.017911 
L 1051.637339 189.079553 
L 1052.660437 188.951918 
L 1053.069677 189.168169 
L 1053.888156 190.101939 
L 1054.297395 189.761175 
L 1054.706634 189.409449 
L 1054.911254 189.358081 
L 1055.320494 189.61771 
L 1055.729733 189.987941 
L 1055.934353 189.995959 
L 1056.343592 189.482229 
L 1056.752832 189.005634 
L 1057.162071 189.106494 
L 1057.571311 189.132736 
L 1057.98055 188.953928 
L 1058.18517 189.064296 
L 1058.594409 189.751141 
L 1059.003649 190.426493 
L 1059.412888 190.60875 
L 1059.822128 190.393498 
L 1060.231367 189.774714 
L 1060.845226 188.614227 
L 1061.049846 188.511222 
L 1062.277564 188.66425 
L 1063.505283 187.899289 
L 1064.937621 187.84579 
L 1065.34686 187.735651 
L 1065.7561 188.023117 
L 1067.188438 190.166161 
L 1067.597677 190.869974 
L 1067.802297 190.91375 
L 1068.006917 190.749975 
L 1068.416156 189.935048 
L 1069.030015 188.555891 
L 1069.439255 188.257274 
L 1070.257734 188.506989 
L 1070.666973 189.02116 
L 1071.280832 190.530265 
L 1071.894691 191.910458 
L 1072.508551 192.405752 
L 1072.71317 192.48868 
L 1072.91779 192.36189 
L 1073.12241 191.904687 
L 1074.350128 187.572918 
L 1074.759368 187.02301 
L 1074.963987 186.989219 
L 1075.373227 187.370157 
L 1075.782466 187.868294 
L 1076.600945 188.386316 
L 1077.419424 189.392307 
L 1077.624044 189.354694 
L 1078.033283 188.743962 
L 1078.442523 187.972373 
L 1078.647142 187.800509 
L 1079.056382 187.893327 
L 1079.874861 188.284585 
L 1080.48872 189.22757 
L 1080.69334 189.244685 
L 1081.102579 189.035928 
L 1081.307199 189.122234 
L 1081.716438 189.783307 
L 1082.739537 191.700777 
L 1083.148776 191.906894 
L 1083.558016 192.006779 
L 1083.967255 192.252058 
L 1084.171875 192.186313 
L 1084.581115 191.526858 
L 1085.399593 189.909596 
L 1086.627312 188.326331 
L 1087.445791 187.793051 
L 1088.05965 187.078278 
L 1088.878129 186.487301 
L 1089.287368 186.559771 
L 1089.696608 187.063005 
L 1090.515087 189.04355 
L 1091.947425 193.309522 
L 1092.152044 193.4824 
L 1092.561284 193.350622 
L 1093.175143 193.221375 
L 1093.379763 192.941984 
L 1093.993622 191.568042 
L 1094.198242 191.436924 
L 1094.812101 191.568669 
L 1095.42596 191.471934 
L 1095.8352 191.535525 
L 1096.244439 191.333508 
L 1096.653678 190.581916 
L 1097.062918 189.884794 
L 1097.676777 189.892482 
L 1098.699876 188.725038 
L 1099.109115 188.033814 
L 1099.313735 187.892329 
L 1100.336834 187.771379 
L 1100.746073 187.758334 
L 1100.950693 188.001032 
L 1101.359932 189.06217 
L 1102.178411 191.298996 
L 1102.587651 191.733972 
L 1102.79227 191.681754 
L 1102.99689 191.449665 
L 1104.019989 189.359052 
L 1104.224608 189.235149 
L 1104.633848 189.31933 
L 1105.043087 189.363796 
L 1105.452327 188.868342 
L 1105.861566 188.378007 
L 1106.270806 188.091739 
L 1106.475425 188.046859 
L 1106.680045 188.128738 
L 1107.089284 188.688584 
L 1107.703144 189.725515 
L 1107.907763 189.795442 
L 1108.112383 189.670878 
L 1108.930862 188.651839 
L 1109.135482 188.690463 
L 1109.749341 189.226836 
L 1109.953961 189.213425 
L 1110.77244 188.788274 
L 1111.590918 188.840654 
L 1111.795538 189.042331 
L 1112.204778 189.931405 
L 1112.614017 190.889874 
L 1112.818637 191.146003 
L 1113.023257 191.198485 
L 1113.432496 190.823807 
L 1114.250975 190.019706 
L 1114.660214 189.685396 
L 1114.864834 189.684916 
L 1115.274074 190.104044 
L 1115.683313 190.841142 
L 1116.297172 192.130604 
L 1116.501792 192.30119 
L 1116.706412 192.279529 
L 1116.911031 192.044442 
L 1118.343369 189.024909 
L 1118.547989 188.886161 
L 1118.752609 188.934977 
L 1119.571088 189.519715 
L 1120.184947 189.263853 
L 1121.208046 188.883447 
L 1122.026525 187.923006 
L 1122.845003 188.049967 
L 1123.049623 188.398734 
L 1123.663482 190.083963 
L 1123.868102 190.32353 
L 1124.072722 190.29249 
L 1124.481961 189.509557 
L 1125.09582 188.157197 
L 1125.914299 187.071438 
L 1126.118919 186.971835 
L 1126.528159 187.125312 
L 1126.937398 187.400201 
L 1127.142018 187.401922 
L 1127.755877 187.063418 
L 1128.165116 187.236447 
L 1128.983595 187.760853 
L 1129.188215 187.783784 
L 1129.392835 187.678837 
L 1130.211314 186.605185 
L 1130.620553 186.823428 
L 1131.234412 187.520749 
L 1131.848271 188.760406 
L 1132.462131 189.770343 
L 1133.28061 191.086902 
L 1133.485229 191.173594 
L 1133.689849 191.043816 
L 1134.712948 189.488205 
L 1135.736046 188.852084 
L 1136.145286 189.33048 
L 1136.554525 189.886991 
L 1136.759145 189.961705 
L 1137.373004 189.83756 
L 1137.782244 190.181676 
L 1138.191483 190.562909 
L 1138.396103 190.496003 
L 1138.805342 189.907605 
L 1139.214582 189.335428 
L 1139.419201 189.254511 
L 1139.623821 189.373091 
L 1140.033061 190.130468 
L 1140.4423 190.812835 
L 1140.64692 190.898749 
L 1141.056159 190.690469 
L 1141.670018 190.352449 
L 1141.874638 190.393028 
L 1142.283878 190.872163 
L 1142.693117 191.220399 
L 1142.897737 191.12979 
L 1143.306976 190.633159 
L 1144.125455 189.284878 
L 1144.534694 189.152289 
L 1144.943934 189.279702 
L 1145.353173 189.789431 
L 1146.376272 191.449697 
L 1146.580892 191.562683 
L 1146.785511 191.515566 
L 1147.60399 190.897395 
L 1148.01323 191.330849 
L 1148.422469 191.91299 
L 1148.627089 191.954635 
L 1148.831709 191.740386 
L 1149.240948 190.723335 
L 1150.264047 187.687971 
L 1150.468667 187.597261 
L 1150.877906 187.641844 
L 1151.491765 187.135377 
L 1151.696385 187.307153 
L 1152.310244 188.270716 
L 1153.537962 189.117399 
L 1153.947202 189.425206 
L 1155.58416 191.25739 
L 1155.788779 191.277108 
L 1156.198019 190.804891 
L 1156.811878 190.034362 
L 1157.630357 189.199082 
L 1157.834977 189.233537 
L 1158.448836 189.717688 
L 1159.062695 189.419325 
L 1159.881174 189.052404 
L 1160.290413 189.282884 
L 1161.108892 189.86517 
L 1161.518132 189.973879 
L 1161.927371 189.846429 
L 1162.54123 189.369746 
L 1162.74585 189.385854 
L 1162.95047 189.592795 
L 1163.359709 190.510394 
L 1163.973569 191.965205 
L 1164.178188 192.217283 
L 1164.382808 192.251863 
L 1165.610526 191.303 
L 1166.429005 191.26512 
L 1166.838245 190.530138 
L 1167.656724 188.373333 
L 1167.861343 188.239792 
L 1168.270583 188.313963 
L 1168.679822 188.572616 
L 1170.11216 190.414078 
L 1170.5214 190.818687 
L 1171.544498 192.23884 
L 1171.953738 192.048759 
L 1172.362977 191.464601 
L 1173.386076 189.06986 
L 1173.795315 189.342349 
L 1174.613794 189.980069 
L 1175.023034 190.145164 
L 1175.227654 189.92151 
L 1175.841513 188.337489 
L 1176.250752 187.467699 
L 1176.455372 187.343688 
L 1176.659992 187.508119 
L 1177.069231 188.160327 
L 1177.273851 188.246452 
L 1178.09233 187.717915 
L 1178.910809 188.040009 
L 1179.320048 187.852308 
L 1179.933907 188.170301 
L 1180.343147 188.5342 
L 1180.752386 189.168276 
L 1180.957006 189.259909 
L 1181.161626 189.086052 
L 1181.980104 187.547457 
L 1182.184724 187.438046 
L 1182.389344 187.490004 
L 1182.798583 187.94817 
L 1183.617062 189.370812 
L 1183.821682 189.474716 
L 1184.026302 189.402265 
L 1184.640161 188.920371 
L 1184.844781 188.95193 
L 1184.844781 188.95193 
" clip-path="url(#p4c164c3d92)" style="fill: none; stroke: #000000; stroke-width: 2; stroke-linecap: square"/>
   </g>
   <g id="patch_3">
    <path d="M 3.00024 198.907885 
L 1184.99976 198.907885 
" style="fill: none; stroke: #000000; stroke-width: 2; stroke-linejoin: miter; stroke-linecap: square"/>
   </g>
  </g>
 </g>
 <defs>
  <clipPath id="p4c164c3d92">
   <rect x="3.00024" y="3.00024" width="1181.99952" height="195.907645"/>
  </clipPath>
 </defs>
</svg>
