<?xml version="1.0" encoding="utf-8" standalone="no"?>
<!DOCTYPE svg PUBLIC "-//W3C//DTD SVG 1.1//EN"
  "http://www.w3.org/Graphics/SVG/1.1/DTD/svg11.dtd">
<svg xmlns:xlink="http://www.w3.org/1999/xlink" width="1188pt" height="252pt" viewBox="0 0 1188 252" xmlns="http://www.w3.org/2000/svg" version="1.1">
 <metadata>
  <rdf:RDF xmlns:dc="http://purl.org/dc/elements/1.1/" xmlns:cc="http://creativecommons.org/ns#" xmlns:rdf="http://www.w3.org/1999/02/22-rdf-syntax-ns#">
   <cc:Work>
    <dc:type rdf:resource="http://purl.org/dc/dcmitype/StillImage"/>
    <dc:date>2024-05-13T15:44:21.623045</dc:date>
    <dc:format>image/svg+xml</dc:format>
    <dc:creator>
     <cc:Agent>
      <dc:title>Matplotlib v3.8.0, https://matplotlib.org/</dc:title>
     </cc:Agent>
    </dc:creator>
   </cc:Work>
  </rdf:RDF>
 </metadata>
 <defs>
  <style type="text/css">*{stroke-linejoin: round; stroke-linecap: butt}</style>
 </defs>
 <g id="figure_1">
  <g id="patch_1">
   <path d="M 0 252 
L 1188 252 
L 1188 0 
L 0 0 
z
" style="fill: #ffffff"/>
  </g>
  <g id="axes_1">
   <g id="patch_2">
    <path d="M 3.00024 198.907885 
L 1184.99976 198.907885 
L 1184.99976 3.00024 
L 3.00024 3.00024 
z
" style="fill: #ffffff"/>
   </g>
   <g id="matplotlib.axis_1">
    <g id="xtick_1">
     <g id="line2d_1">
      <defs>
       <path id="m9372f86fdd" d="M 0 0 
L 0 8 
" style="stroke: #000000; stroke-width: 2"/>
      </defs>
      <g>
       <use xlink:href="#m9372f86fdd" x="1131.272509" y="198.907885" style="stroke: #000000; stroke-width: 2"/>
      </g>
     </g>
     <g id="text_1">
      <!-- 0 -->
      <g transform="translate(1126.267665 224.791947) scale(0.18 -0.18)">
       <defs>
        <path id="Arial-BoldMT-30" d="M 1756 4600 
Q 2422 4600 2797 4125 
Q 3244 3563 3244 2259 
Q 3244 959 2794 391 
Q 2422 -78 1756 -78 
Q 1088 -78 678 436 
Q 269 950 269 2269 
Q 269 3563 719 4131 
Q 1091 4600 1756 4600 
z
M 1756 3872 
Q 1597 3872 1472 3770 
Q 1347 3669 1278 3406 
Q 1188 3066 1188 2259 
Q 1188 1453 1269 1151 
Q 1350 850 1473 750 
Q 1597 650 1756 650 
Q 1916 650 2041 751 
Q 2166 853 2234 1116 
Q 2325 1453 2325 2259 
Q 2325 3066 2244 3367 
Q 2163 3669 2039 3770 
Q 1916 3872 1756 3872 
z
" transform="scale(0.015625)"/>
       </defs>
       <use xlink:href="#Arial-BoldMT-30"/>
      </g>
     </g>
    </g>
    <g id="xtick_2">
     <g id="line2d_2">
      <g>
       <use xlink:href="#m9372f86fdd" x="1023.818007" y="198.907885" style="stroke: #000000; stroke-width: 2"/>
      </g>
     </g>
     <g id="text_2">
      <!-- 1 -->
      <g transform="translate(1018.813164 224.791947) scale(0.18 -0.18)">
       <defs>
        <path id="Arial-BoldMT-31" d="M 2519 0 
L 1641 0 
L 1641 3309 
Q 1159 2859 506 2644 
L 506 3441 
Q 850 3553 1253 3867 
Q 1656 4181 1806 4600 
L 2519 4600 
L 2519 0 
z
" transform="scale(0.015625)"/>
       </defs>
       <use xlink:href="#Arial-BoldMT-31"/>
      </g>
     </g>
    </g>
    <g id="xtick_3">
     <g id="line2d_3">
      <g>
       <use xlink:href="#m9372f86fdd" x="916.363505" y="198.907885" style="stroke: #000000; stroke-width: 2"/>
      </g>
     </g>
     <g id="text_3">
      <!-- 2 -->
      <g transform="translate(911.358662 224.791947) scale(0.18 -0.18)">
       <defs>
        <path id="Arial-BoldMT-32" d="M 3238 816 
L 3238 0 
L 159 0 
Q 209 463 459 877 
Q 709 1291 1447 1975 
Q 2041 2528 2175 2725 
Q 2356 2997 2356 3263 
Q 2356 3556 2198 3714 
Q 2041 3872 1763 3872 
Q 1488 3872 1325 3706 
Q 1163 3541 1138 3156 
L 263 3244 
Q 341 3969 753 4284 
Q 1166 4600 1784 4600 
Q 2463 4600 2850 4234 
Q 3238 3869 3238 3325 
Q 3238 3016 3127 2736 
Q 3016 2456 2775 2150 
Q 2616 1947 2200 1565 
Q 1784 1184 1673 1059 
Q 1563 934 1494 816 
L 3238 816 
z
" transform="scale(0.015625)"/>
       </defs>
       <use xlink:href="#Arial-BoldMT-32"/>
      </g>
     </g>
    </g>
    <g id="xtick_4">
     <g id="line2d_4">
      <g>
       <use xlink:href="#m9372f86fdd" x="808.909004" y="198.907885" style="stroke: #000000; stroke-width: 2"/>
      </g>
     </g>
     <g id="text_4">
      <!-- 3 -->
      <g transform="translate(803.90416 224.791947) scale(0.18 -0.18)">
       <defs>
        <path id="Arial-BoldMT-33" d="M 241 1216 
L 1091 1319 
Q 1131 994 1309 822 
Q 1488 650 1741 650 
Q 2013 650 2198 856 
Q 2384 1063 2384 1413 
Q 2384 1744 2206 1937 
Q 2028 2131 1772 2131 
Q 1603 2131 1369 2066 
L 1466 2781 
Q 1822 2772 2009 2936 
Q 2197 3100 2197 3372 
Q 2197 3603 2059 3740 
Q 1922 3878 1694 3878 
Q 1469 3878 1309 3722 
Q 1150 3566 1116 3266 
L 306 3403 
Q 391 3819 561 4067 
Q 731 4316 1036 4458 
Q 1341 4600 1719 4600 
Q 2366 4600 2756 4188 
Q 3078 3850 3078 3425 
Q 3078 2822 2419 2463 
Q 2813 2378 3048 2084 
Q 3284 1791 3284 1375 
Q 3284 772 2843 347 
Q 2403 -78 1747 -78 
Q 1125 -78 715 280 
Q 306 638 241 1216 
z
" transform="scale(0.015625)"/>
       </defs>
       <use xlink:href="#Arial-BoldMT-33"/>
      </g>
     </g>
    </g>
    <g id="xtick_5">
     <g id="line2d_5">
      <g>
       <use xlink:href="#m9372f86fdd" x="701.454502" y="198.907885" style="stroke: #000000; stroke-width: 2"/>
      </g>
     </g>
     <g id="text_5">
      <!-- 4 -->
      <g transform="translate(696.449658 224.791947) scale(0.18 -0.18)">
       <defs>
        <path id="Arial-BoldMT-34" d="M 1994 0 
L 1994 922 
L 119 922 
L 119 1691 
L 2106 4600 
L 2844 4600 
L 2844 1694 
L 3413 1694 
L 3413 922 
L 2844 922 
L 2844 0 
L 1994 0 
z
M 1994 1694 
L 1994 3259 
L 941 1694 
L 1994 1694 
z
" transform="scale(0.015625)"/>
       </defs>
       <use xlink:href="#Arial-BoldMT-34"/>
      </g>
     </g>
    </g>
    <g id="xtick_6">
     <g id="line2d_6">
      <g>
       <use xlink:href="#m9372f86fdd" x="594" y="198.907885" style="stroke: #000000; stroke-width: 2"/>
      </g>
     </g>
     <g id="text_6">
      <!-- 5 -->
      <g transform="translate(588.995156 224.791947) scale(0.18 -0.18)">
       <defs>
        <path id="Arial-BoldMT-35" d="M 284 1178 
L 1159 1269 
Q 1197 972 1381 798 
Q 1566 625 1806 625 
Q 2081 625 2272 848 
Q 2463 1072 2463 1522 
Q 2463 1944 2273 2155 
Q 2084 2366 1781 2366 
Q 1403 2366 1103 2031 
L 391 2134 
L 841 4519 
L 3163 4519 
L 3163 3697 
L 1506 3697 
L 1369 2919 
Q 1663 3066 1969 3066 
Q 2553 3066 2959 2641 
Q 3366 2216 3366 1538 
Q 3366 972 3038 528 
Q 2591 -78 1797 -78 
Q 1163 -78 763 262 
Q 363 603 284 1178 
z
" transform="scale(0.015625)"/>
       </defs>
       <use xlink:href="#Arial-BoldMT-35"/>
      </g>
     </g>
    </g>
    <g id="xtick_7">
     <g id="line2d_7">
      <g>
       <use xlink:href="#m9372f86fdd" x="486.545498" y="198.907885" style="stroke: #000000; stroke-width: 2"/>
      </g>
     </g>
     <g id="text_7">
      <!-- 6 -->
      <g transform="translate(481.540654 224.791947) scale(0.18 -0.18)">
       <defs>
        <path id="Arial-BoldMT-36" d="M 3247 3459 
L 2397 3366 
Q 2366 3628 2234 3753 
Q 2103 3878 1894 3878 
Q 1616 3878 1423 3628 
Q 1231 3378 1181 2588 
Q 1509 2975 1997 2975 
Q 2547 2975 2939 2556 
Q 3331 2138 3331 1475 
Q 3331 772 2918 347 
Q 2506 -78 1859 -78 
Q 1166 -78 719 461 
Q 272 1000 272 2228 
Q 272 3488 737 4044 
Q 1203 4600 1947 4600 
Q 2469 4600 2811 4308 
Q 3153 4016 3247 3459 
z
M 1256 1544 
Q 1256 1116 1453 883 
Q 1650 650 1903 650 
Q 2147 650 2309 840 
Q 2472 1031 2472 1466 
Q 2472 1913 2297 2120 
Q 2122 2328 1859 2328 
Q 1606 2328 1431 2129 
Q 1256 1931 1256 1544 
z
" transform="scale(0.015625)"/>
       </defs>
       <use xlink:href="#Arial-BoldMT-36"/>
      </g>
     </g>
    </g>
    <g id="xtick_8">
     <g id="line2d_8">
      <g>
       <use xlink:href="#m9372f86fdd" x="379.090996" y="198.907885" style="stroke: #000000; stroke-width: 2"/>
      </g>
     </g>
     <g id="text_8">
      <!-- 7 -->
      <g transform="translate(374.086153 224.791947) scale(0.18 -0.18)">
       <defs>
        <path id="Arial-BoldMT-37" d="M 272 3703 
L 272 4519 
L 3275 4519 
L 3275 3881 
Q 2903 3516 2518 2831 
Q 2134 2147 1932 1376 
Q 1731 606 1734 0 
L 888 0 
Q 909 950 1279 1937 
Q 1650 2925 2269 3703 
L 272 3703 
z
" transform="scale(0.015625)"/>
       </defs>
       <use xlink:href="#Arial-BoldMT-37"/>
      </g>
     </g>
    </g>
    <g id="xtick_9">
     <g id="line2d_9">
      <g>
       <use xlink:href="#m9372f86fdd" x="271.636495" y="198.907885" style="stroke: #000000; stroke-width: 2"/>
      </g>
     </g>
     <g id="text_9">
      <!-- 8 -->
      <g transform="translate(266.631651 224.791947) scale(0.18 -0.18)">
       <defs>
        <path id="Arial-BoldMT-38" d="M 1025 2472 
Q 684 2616 529 2867 
Q 375 3119 375 3419 
Q 375 3931 733 4265 
Q 1091 4600 1750 4600 
Q 2403 4600 2764 4265 
Q 3125 3931 3125 3419 
Q 3125 3100 2959 2851 
Q 2794 2603 2494 2472 
Q 2875 2319 3073 2025 
Q 3272 1731 3272 1347 
Q 3272 713 2867 316 
Q 2463 -81 1791 -81 
Q 1166 -81 750 247 
Q 259 634 259 1309 
Q 259 1681 443 1992 
Q 628 2303 1025 2472 
z
M 1206 3356 
Q 1206 3094 1354 2947 
Q 1503 2800 1750 2800 
Q 2000 2800 2150 2948 
Q 2300 3097 2300 3359 
Q 2300 3606 2151 3754 
Q 2003 3903 1759 3903 
Q 1506 3903 1356 3753 
Q 1206 3603 1206 3356 
z
M 1125 1394 
Q 1125 1031 1311 828 
Q 1497 625 1775 625 
Q 2047 625 2225 820 
Q 2403 1016 2403 1384 
Q 2403 1706 2222 1901 
Q 2041 2097 1763 2097 
Q 1441 2097 1283 1875 
Q 1125 1653 1125 1394 
z
" transform="scale(0.015625)"/>
       </defs>
       <use xlink:href="#Arial-BoldMT-38"/>
      </g>
     </g>
    </g>
    <g id="xtick_10">
     <g id="line2d_10">
      <g>
       <use xlink:href="#m9372f86fdd" x="164.181993" y="198.907885" style="stroke: #000000; stroke-width: 2"/>
      </g>
     </g>
     <g id="text_10">
      <!-- 9 -->
      <g transform="translate(159.177149 224.791947) scale(0.18 -0.18)">
       <defs>
        <path id="Arial-BoldMT-39" d="M 291 1059 
L 1141 1153 
Q 1172 894 1303 769 
Q 1434 644 1650 644 
Q 1922 644 2112 894 
Q 2303 1144 2356 1931 
Q 2025 1547 1528 1547 
Q 988 1547 595 1964 
Q 203 2381 203 3050 
Q 203 3747 617 4173 
Q 1031 4600 1672 4600 
Q 2369 4600 2816 4061 
Q 3263 3522 3263 2288 
Q 3263 1031 2797 475 
Q 2331 -81 1584 -81 
Q 1047 -81 715 205 
Q 384 491 291 1059 
z
M 2278 2978 
Q 2278 3403 2083 3637 
Q 1888 3872 1631 3872 
Q 1388 3872 1227 3680 
Q 1066 3488 1066 3050 
Q 1066 2606 1241 2398 
Q 1416 2191 1678 2191 
Q 1931 2191 2104 2391 
Q 2278 2591 2278 2978 
z
" transform="scale(0.015625)"/>
       </defs>
       <use xlink:href="#Arial-BoldMT-39"/>
      </g>
     </g>
    </g>
    <g id="xtick_11">
     <g id="line2d_11">
      <g>
       <use xlink:href="#m9372f86fdd" x="56.727491" y="198.907885" style="stroke: #000000; stroke-width: 2"/>
      </g>
     </g>
     <g id="text_11">
      <!-- 10 -->
      <g transform="translate(46.717803 224.791947) scale(0.18 -0.18)">
       <use xlink:href="#Arial-BoldMT-31"/>
       <use xlink:href="#Arial-BoldMT-30" x="55.615234"/>
      </g>
     </g>
    </g>
    <g id="text_12">
     <!-- Chemical Shift / ppm -->
     <g transform="translate(504.992813 245.447573) scale(0.18 -0.18)">
      <defs>
       <path id="Arial-BoldMT-43" d="M 3397 1684 
L 4294 1400 
Q 4088 650 3608 286 
Q 3128 -78 2391 -78 
Q 1478 -78 890 545 
Q 303 1169 303 2250 
Q 303 3394 893 4026 
Q 1484 4659 2447 4659 
Q 3288 4659 3813 4163 
Q 4125 3869 4281 3319 
L 3366 3100 
Q 3284 3456 3026 3662 
Q 2769 3869 2400 3869 
Q 1891 3869 1573 3503 
Q 1256 3138 1256 2319 
Q 1256 1450 1568 1081 
Q 1881 713 2381 713 
Q 2750 713 3015 947 
Q 3281 1181 3397 1684 
z
" transform="scale(0.015625)"/>
       <path id="Arial-BoldMT-68" d="M 1334 4581 
L 1334 2897 
Q 1759 3394 2350 3394 
Q 2653 3394 2897 3281 
Q 3141 3169 3264 2994 
Q 3388 2819 3433 2606 
Q 3478 2394 3478 1947 
L 3478 0 
L 2600 0 
L 2600 1753 
Q 2600 2275 2550 2415 
Q 2500 2556 2373 2639 
Q 2247 2722 2056 2722 
Q 1838 2722 1666 2615 
Q 1494 2509 1414 2295 
Q 1334 2081 1334 1663 
L 1334 0 
L 456 0 
L 456 4581 
L 1334 4581 
z
" transform="scale(0.015625)"/>
       <path id="Arial-BoldMT-65" d="M 2381 1056 
L 3256 909 
Q 3088 428 2723 176 
Q 2359 -75 1813 -75 
Q 947 -75 531 491 
Q 203 944 203 1634 
Q 203 2459 634 2926 
Q 1066 3394 1725 3394 
Q 2466 3394 2894 2905 
Q 3322 2416 3303 1406 
L 1103 1406 
Q 1113 1016 1316 798 
Q 1519 581 1822 581 
Q 2028 581 2168 693 
Q 2309 806 2381 1056 
z
M 2431 1944 
Q 2422 2325 2234 2523 
Q 2047 2722 1778 2722 
Q 1491 2722 1303 2513 
Q 1116 2303 1119 1944 
L 2431 1944 
z
" transform="scale(0.015625)"/>
       <path id="Arial-BoldMT-6d" d="M 394 3319 
L 1203 3319 
L 1203 2866 
Q 1638 3394 2238 3394 
Q 2556 3394 2790 3262 
Q 3025 3131 3175 2866 
Q 3394 3131 3647 3262 
Q 3900 3394 4188 3394 
Q 4553 3394 4806 3245 
Q 5059 3097 5184 2809 
Q 5275 2597 5275 2122 
L 5275 0 
L 4397 0 
L 4397 1897 
Q 4397 2391 4306 2534 
Q 4184 2722 3931 2722 
Q 3747 2722 3584 2609 
Q 3422 2497 3350 2280 
Q 3278 2063 3278 1594 
L 3278 0 
L 2400 0 
L 2400 1819 
Q 2400 2303 2353 2443 
Q 2306 2584 2207 2653 
Q 2109 2722 1941 2722 
Q 1738 2722 1575 2612 
Q 1413 2503 1342 2297 
Q 1272 2091 1272 1613 
L 1272 0 
L 394 0 
L 394 3319 
z
" transform="scale(0.015625)"/>
       <path id="Arial-BoldMT-69" d="M 459 3769 
L 459 4581 
L 1338 4581 
L 1338 3769 
L 459 3769 
z
M 459 0 
L 459 3319 
L 1338 3319 
L 1338 0 
L 459 0 
z
" transform="scale(0.015625)"/>
       <path id="Arial-BoldMT-63" d="M 3353 2338 
L 2488 2181 
Q 2444 2441 2289 2572 
Q 2134 2703 1888 2703 
Q 1559 2703 1364 2476 
Q 1169 2250 1169 1719 
Q 1169 1128 1367 884 
Q 1566 641 1900 641 
Q 2150 641 2309 783 
Q 2469 925 2534 1272 
L 3397 1125 
Q 3263 531 2881 228 
Q 2500 -75 1859 -75 
Q 1131 -75 698 384 
Q 266 844 266 1656 
Q 266 2478 700 2936 
Q 1134 3394 1875 3394 
Q 2481 3394 2839 3133 
Q 3197 2872 3353 2338 
z
" transform="scale(0.015625)"/>
       <path id="Arial-BoldMT-61" d="M 1116 2306 
L 319 2450 
Q 453 2931 781 3162 
Q 1109 3394 1756 3394 
Q 2344 3394 2631 3255 
Q 2919 3116 3036 2902 
Q 3153 2688 3153 2116 
L 3144 1091 
Q 3144 653 3186 445 
Q 3228 238 3344 0 
L 2475 0 
Q 2441 88 2391 259 
Q 2369 338 2359 363 
Q 2134 144 1878 34 
Q 1622 -75 1331 -75 
Q 819 -75 523 203 
Q 228 481 228 906 
Q 228 1188 362 1408 
Q 497 1628 739 1745 
Q 981 1863 1438 1950 
Q 2053 2066 2291 2166 
L 2291 2253 
Q 2291 2506 2166 2614 
Q 2041 2722 1694 2722 
Q 1459 2722 1328 2630 
Q 1197 2538 1116 2306 
z
M 2291 1594 
Q 2122 1538 1756 1459 
Q 1391 1381 1278 1306 
Q 1106 1184 1106 997 
Q 1106 813 1243 678 
Q 1381 544 1594 544 
Q 1831 544 2047 700 
Q 2206 819 2256 991 
Q 2291 1103 2291 1419 
L 2291 1594 
z
" transform="scale(0.015625)"/>
       <path id="Arial-BoldMT-6c" d="M 459 0 
L 459 4581 
L 1338 4581 
L 1338 0 
L 459 0 
z
" transform="scale(0.015625)"/>
       <path id="Arial-BoldMT-20" transform="scale(0.015625)"/>
       <path id="Arial-BoldMT-53" d="M 231 1491 
L 1131 1578 
Q 1213 1125 1461 912 
Q 1709 700 2131 700 
Q 2578 700 2804 889 
Q 3031 1078 3031 1331 
Q 3031 1494 2936 1608 
Q 2841 1722 2603 1806 
Q 2441 1863 1863 2006 
Q 1119 2191 819 2459 
Q 397 2838 397 3381 
Q 397 3731 595 4036 
Q 794 4341 1167 4500 
Q 1541 4659 2069 4659 
Q 2931 4659 3367 4281 
Q 3803 3903 3825 3272 
L 2900 3231 
Q 2841 3584 2645 3739 
Q 2450 3894 2059 3894 
Q 1656 3894 1428 3728 
Q 1281 3622 1281 3444 
Q 1281 3281 1419 3166 
Q 1594 3019 2269 2859 
Q 2944 2700 3267 2529 
Q 3591 2359 3773 2064 
Q 3956 1769 3956 1334 
Q 3956 941 3737 597 
Q 3519 253 3119 86 
Q 2719 -81 2122 -81 
Q 1253 -81 787 320 
Q 322 722 231 1491 
z
" transform="scale(0.015625)"/>
       <path id="Arial-BoldMT-66" d="M 75 3319 
L 563 3319 
L 563 3569 
Q 563 3988 652 4194 
Q 741 4400 980 4529 
Q 1219 4659 1584 4659 
Q 1959 4659 2319 4547 
L 2200 3934 
Q 1991 3984 1797 3984 
Q 1606 3984 1523 3895 
Q 1441 3806 1441 3553 
L 1441 3319 
L 2097 3319 
L 2097 2628 
L 1441 2628 
L 1441 0 
L 563 0 
L 563 2628 
L 75 2628 
L 75 3319 
z
" transform="scale(0.015625)"/>
       <path id="Arial-BoldMT-74" d="M 1981 3319 
L 1981 2619 
L 1381 2619 
L 1381 1281 
Q 1381 875 1398 808 
Q 1416 741 1477 697 
Q 1538 653 1625 653 
Q 1747 653 1978 738 
L 2053 56 
Q 1747 -75 1359 -75 
Q 1122 -75 931 4 
Q 741 84 652 211 
Q 563 338 528 553 
Q 500 706 500 1172 
L 500 2619 
L 97 2619 
L 97 3319 
L 500 3319 
L 500 3978 
L 1381 4491 
L 1381 3319 
L 1981 3319 
z
" transform="scale(0.015625)"/>
       <path id="Arial-BoldMT-2f" d="M -9 -78 
L 1125 4659 
L 1784 4659 
L 638 -78 
L -9 -78 
z
" transform="scale(0.015625)"/>
       <path id="Arial-BoldMT-70" d="M 434 3319 
L 1253 3319 
L 1253 2831 
Q 1413 3081 1684 3237 
Q 1956 3394 2288 3394 
Q 2866 3394 3269 2941 
Q 3672 2488 3672 1678 
Q 3672 847 3265 386 
Q 2859 -75 2281 -75 
Q 2006 -75 1782 34 
Q 1559 144 1313 409 
L 1313 -1263 
L 434 -1263 
L 434 3319 
z
M 1303 1716 
Q 1303 1156 1525 889 
Q 1747 622 2066 622 
Q 2372 622 2575 867 
Q 2778 1113 2778 1672 
Q 2778 2194 2568 2447 
Q 2359 2700 2050 2700 
Q 1728 2700 1515 2451 
Q 1303 2203 1303 1716 
z
" transform="scale(0.015625)"/>
      </defs>
      <use xlink:href="#Arial-BoldMT-43"/>
      <use xlink:href="#Arial-BoldMT-68" x="72.216797"/>
      <use xlink:href="#Arial-BoldMT-65" x="133.300781"/>
      <use xlink:href="#Arial-BoldMT-6d" x="188.916016"/>
      <use xlink:href="#Arial-BoldMT-69" x="277.832031"/>
      <use xlink:href="#Arial-BoldMT-63" x="305.615234"/>
      <use xlink:href="#Arial-BoldMT-61" x="361.230469"/>
      <use xlink:href="#Arial-BoldMT-6c" x="416.845703"/>
      <use xlink:href="#Arial-BoldMT-20" x="444.628906"/>
      <use xlink:href="#Arial-BoldMT-53" x="472.412109"/>
      <use xlink:href="#Arial-BoldMT-68" x="539.111328"/>
      <use xlink:href="#Arial-BoldMT-69" x="600.195312"/>
      <use xlink:href="#Arial-BoldMT-66" x="627.978516"/>
      <use xlink:href="#Arial-BoldMT-74" x="661.279297"/>
      <use xlink:href="#Arial-BoldMT-20" x="694.580078"/>
      <use xlink:href="#Arial-BoldMT-2f" x="722.363281"/>
      <use xlink:href="#Arial-BoldMT-20" x="750.146484"/>
      <use xlink:href="#Arial-BoldMT-70" x="777.929688"/>
      <use xlink:href="#Arial-BoldMT-70" x="839.013672"/>
      <use xlink:href="#Arial-BoldMT-6d" x="900.097656"/>
     </g>
    </g>
   </g>
   <g id="matplotlib.axis_2"/>
   <g id="line2d_12">
    <path d="M 3.007607 188.39664 
L 3.212227 188.362532 
L 3.826086 188.714161 
L 4.439945 188.928929 
L 5.667664 188.899347 
L 6.281523 188.835744 
L 7.304622 189.11832 
L 8.123101 189.1981 
L 8.53234 189.20509 
L 9.146199 189.713368 
L 9.555439 189.970453 
L 10.169298 190.02529 
L 11.192396 189.875613 
L 12.420115 189.492012 
L 12.829354 189.488041 
L 13.443213 189.546455 
L 14.670932 189.437568 
L 15.89865 189.661671 
L 16.30789 189.592159 
L 17.330988 189.291775 
L 17.944847 189.293975 
L 18.967946 188.77374 
L 19.786425 188.872445 
L 20.400284 188.794818 
L 20.809524 189.007655 
L 22.241862 190.269866 
L 23.26496 191.078703 
L 23.6742 191.01685 
L 24.083439 190.741627 
L 25.106538 189.771354 
L 27.152735 188.774466 
L 27.561975 189.055543 
L 28.175834 189.519083 
L 28.585073 189.431089 
L 29.198932 189.136336 
L 29.608172 189.38767 
L 30.222031 190.057656 
L 30.63127 190.083548 
L 31.24513 189.724026 
L 31.858989 189.322694 
L 32.268228 189.43775 
L 33.086707 189.861465 
L 34.723665 189.761867 
L 35.746764 189.990632 
L 36.565243 189.769549 
L 38.2022 189.698492 
L 38.61144 189.904023 
L 39.020679 190.372757 
L 39.634538 191.124653 
L 40.248398 191.409015 
L 41.476116 191.582637 
L 41.680736 191.386789 
L 42.294595 190.103458 
L 42.703834 189.354338 
L 43.113074 189.03067 
L 43.522313 188.9789 
L 44.136172 189.114418 
L 45.568511 189.612339 
L 46.18237 189.378933 
L 46.591609 189.530086 
L 47.410088 190.342204 
L 47.614708 190.278639 
L 48.637806 189.453258 
L 50.479384 189.633121 
L 51.297863 189.09599 
L 52.116342 189.198646 
L 52.730201 189.068352 
L 53.54868 189.268041 
L 53.957919 189.346431 
L 54.776398 189.651492 
L 55.185638 189.742181 
L 55.594877 189.625246 
L 56.004117 189.480969 
L 56.822595 189.529577 
L 58.868793 190.224986 
L 59.482652 189.998025 
L 60.301131 189.664511 
L 60.71037 189.507694 
L 61.528849 188.959184 
L 61.938089 189.041496 
L 62.756568 189.391914 
L 63.575046 189.469233 
L 64.393525 190.12389 
L 64.802765 190.064072 
L 66.235103 189.546261 
L 66.848962 189.77232 
L 67.258202 189.573862 
L 69.304399 187.787756 
L 69.713638 187.847301 
L 70.327497 188.49811 
L 70.941357 189.015504 
L 72.578314 190.043112 
L 74.829131 189.80702 
L 75.85223 189.292668 
L 76.670709 189.305935 
L 77.079948 188.892262 
L 77.489188 188.415461 
L 78.103047 188.167726 
L 78.716906 188.237996 
L 79.126146 188.442843 
L 79.740005 189.161318 
L 80.149244 189.525454 
L 81.581582 190.020665 
L 82.195442 189.818571 
L 82.809301 189.955667 
L 83.832399 190.497517 
L 84.241639 190.263757 
L 84.650878 190.036128 
L 85.469357 189.935672 
L 86.287836 189.418858 
L 87.310935 189.457159 
L 89.561752 190.350324 
L 90.58485 190.143697 
L 90.99409 190.58841 
L 91.403329 191.067876 
L 91.812569 191.184081 
L 92.221808 190.974158 
L 93.449527 189.81315 
L 93.858766 189.82507 
L 95.291104 190.62308 
L 95.700344 190.491239 
L 96.518822 189.973216 
L 97.132682 189.90895 
L 97.746541 190.095371 
L 98.15578 190.246185 
L 98.56502 190.114705 
L 98.974259 189.910589 
L 99.588118 189.909009 
L 101.020456 190.094576 
L 101.634316 189.794849 
L 102.043555 189.590519 
L 102.657414 189.615414 
L 103.066654 189.534065 
L 103.885133 188.915779 
L 104.089752 188.926511 
L 104.498992 189.291654 
L 104.908231 189.706325 
L 105.52209 189.880892 
L 106.954429 189.917924 
L 107.363668 190.243999 
L 107.977527 190.790379 
L 108.386767 190.910556 
L 108.796006 190.655492 
L 109.205246 190.343646 
L 110.023724 190.174038 
L 110.432964 189.873729 
L 110.842203 189.840851 
L 111.251443 189.850406 
L 112.069922 189.410963 
L 112.479161 189.565565 
L 113.29764 190.016706 
L 113.70688 189.920781 
L 114.729978 189.522627 
L 115.139218 189.657747 
L 115.753077 189.974997 
L 117.799274 190.382789 
L 119.436232 190.047521 
L 120.459331 189.933394 
L 121.07319 190.070835 
L 121.482429 189.899949 
L 122.300908 189.447104 
L 122.914767 189.081525 
L 123.733246 188.139079 
L 123.937866 188.172541 
L 124.756345 188.815501 
L 125.165584 188.763582 
L 125.574824 188.671811 
L 125.984063 188.830335 
L 126.597922 189.287043 
L 127.007162 189.192482 
L 127.825641 188.724019 
L 128.848739 188.473896 
L 129.257979 188.575678 
L 129.667218 188.895545 
L 130.281077 189.508767 
L 130.690317 189.554913 
L 131.508796 189.205034 
L 132.327275 188.866842 
L 133.964232 188.746717 
L 134.373472 189.012721 
L 135.396571 190.150025 
L 136.419669 190.70784 
L 137.033528 191.234072 
L 137.442768 191.305145 
L 137.852007 191.200321 
L 138.261247 190.82611 
L 139.693585 189.155119 
L 140.102824 189.130419 
L 141.535162 189.610995 
L 142.149022 189.551685 
L 142.558261 189.72736 
L 143.37674 190.359353 
L 143.785979 190.328518 
L 144.809078 189.954496 
L 145.422937 190.051476 
L 146.036796 190.172023 
L 146.446036 189.989515 
L 147.264515 189.059936 
L 147.878374 188.559392 
L 148.492233 188.354897 
L 148.901473 188.470382 
L 149.310712 188.653232 
L 149.924571 188.582902 
L 150.53843 188.569244 
L 152.380008 189.058851 
L 152.789247 188.979269 
L 154.016966 188.368275 
L 154.630825 188.226057 
L 155.653924 187.811255 
L 156.677022 188.283827 
L 157.290881 188.809377 
L 157.904741 189.384658 
L 158.5186 189.580039 
L 159.337079 189.812793 
L 160.769417 190.314198 
L 161.178656 190.076635 
L 161.792515 189.592191 
L 162.406375 189.468493 
L 162.815614 189.111412 
L 163.224853 188.756641 
L 163.634093 188.780027 
L 164.861811 189.21096 
L 165.271051 189.088662 
L 166.08953 188.562972 
L 166.498769 188.582268 
L 166.908008 188.634835 
L 167.521868 188.624055 
L 168.135727 188.830526 
L 168.749586 188.637932 
L 169.363445 188.518911 
L 169.977304 188.544561 
L 170.591164 188.380431 
L 171.614262 188.692949 
L 172.432741 188.537115 
L 173.25122 188.27474 
L 174.069699 188.374899 
L 174.478938 188.591316 
L 175.502037 189.645021 
L 175.911276 189.631284 
L 176.525136 189.439475 
L 176.934375 189.579382 
L 177.548234 189.952206 
L 177.957474 189.818334 
L 178.980572 189.008277 
L 179.594432 188.942095 
L 180.208291 189.055856 
L 180.82215 189.250955 
L 181.231389 189.132601 
L 181.845249 188.48738 
L 182.459108 188.008938 
L 182.663727 188.017201 
L 183.482206 188.540595 
L 184.096066 188.308192 
L 185.119164 187.893988 
L 186.756122 186.547193 
L 188.39308 184.060042 
L 189.006939 183.674869 
L 189.416178 182.822313 
L 190.234657 180.128707 
L 191.053136 176.697745 
L 191.462376 174.185585 
L 192.076235 168.889262 
L 194.327052 146.508268 
L 194.736291 144.173244 
L 194.940911 143.918369 
L 195.145531 144.270387 
L 195.75939 146.935069 
L 196.782489 152.193917 
L 197.600968 157.122838 
L 197.805587 157.741409 
L 198.010207 157.938053 
L 198.214827 157.658219 
L 198.624066 155.803057 
L 199.647165 148.19765 
L 200.465644 142.76394 
L 200.874883 140.999632 
L 201.079503 140.643718 
L 201.284123 140.666162 
L 201.488742 141.057325 
L 201.897982 142.721758 
L 202.511841 146.295518 
L 202.92108 149.558062 
L 203.53494 157.081097 
L 204.353418 167.309842 
L 204.967278 172.677891 
L 205.581137 176.625431 
L 206.194996 179.186867 
L 207.013475 181.739703 
L 207.627334 182.986758 
L 208.241193 183.890409 
L 208.855052 184.329309 
L 210.90125 185.381487 
L 211.924348 186.607038 
L 212.333588 186.659993 
L 212.947447 186.563474 
L 213.356686 186.299086 
L 213.970546 185.400801 
L 214.584405 184.593293 
L 214.993644 184.551292 
L 216.016743 185.041714 
L 216.630602 185.012023 
L 217.244461 184.568354 
L 217.85832 183.86498 
L 218.676799 182.440488 
L 221.132236 178.001952 
L 222.769194 173.413024 
L 223.383053 171.534233 
L 223.587673 171.290456 
L 223.792293 171.309761 
L 224.201532 171.799163 
L 225.42925 173.651976 
L 225.63387 173.744905 
L 225.83849 173.70376 
L 226.247729 173.242054 
L 226.656969 172.161121 
L 227.270828 169.456347 
L 227.884687 165.745387 
L 228.703166 160.554257 
L 228.907786 159.974988 
L 229.112405 159.778921 
L 229.521645 160.008674 
L 230.135504 160.6507 
L 230.544744 161.903187 
L 231.567842 166.502536 
L 231.977082 167.173865 
L 232.181701 167.118436 
L 232.386321 166.833136 
L 232.795561 165.575673 
L 233.2048 163.09367 
L 233.818659 157.097632 
L 234.432518 148.395717 
L 235.046378 134.887833 
L 236.274096 102.210456 
L 236.683335 97.863286 
L 237.092575 95.990865 
L 237.501814 95.009617 
L 237.706434 94.90063 
L 237.911054 95.152865 
L 238.320293 96.781727 
L 238.729533 99.671214 
L 239.343392 105.831602 
L 240.36649 120.698787 
L 241.184969 134.996736 
L 242.003448 148.728436 
L 242.412688 152.891999 
L 242.821927 154.917061 
L 243.026547 155.165457 
L 243.231167 154.97736 
L 243.435786 154.395179 
L 243.845026 152.069123 
L 244.458885 146.133937 
L 244.868124 142.121028 
L 245.072744 140.877894 
L 245.277364 140.49406 
L 245.481984 140.996475 
L 246.505082 146.23409 
L 246.914322 146.815512 
L 247.118941 147.465793 
L 247.323561 148.768729 
L 247.732801 153.63694 
L 248.755899 167.924973 
L 249.369758 173.674683 
L 249.983618 177.548861 
L 250.597477 179.583649 
L 251.620575 181.733992 
L 252.234435 182.710712 
L 252.643674 182.964464 
L 253.052913 182.931705 
L 253.462153 182.607937 
L 253.871392 181.899294 
L 254.485252 180.183853 
L 255.50835 176.751728 
L 255.71297 176.562453 
L 255.91759 176.662978 
L 256.736069 177.709071 
L 256.940688 177.651926 
L 257.554547 177.130111 
L 257.759167 177.1186 
L 257.963787 177.295814 
L 258.373026 178.281981 
L 260.009984 184.045731 
L 260.419224 184.886381 
L 261.646942 186.56526 
L 262.056181 186.761886 
L 262.465421 186.607329 
L 263.07928 186.207416 
L 264.511618 186.007661 
L 265.125477 185.957297 
L 265.534717 185.604375 
L 266.557815 184.185931 
L 267.376294 182.529064 
L 267.785534 182.317579 
L 268.399393 182.348184 
L 269.422492 182.732415 
L 269.831731 182.408043 
L 271.673309 179.188128 
L 272.491788 177.692904 
L 274.128745 175.493536 
L 274.537985 175.621798 
L 275.356464 176.140391 
L 275.765703 175.933135 
L 276.174943 175.303236 
L 276.788802 173.765477 
L 277.402661 171.758026 
L 278.01652 168.628725 
L 278.630379 163.731011 
L 279.448858 155.942802 
L 279.653478 155.097338 
L 279.858098 155.021226 
L 280.062717 155.626412 
L 280.676577 159.444016 
L 281.085816 161.583168 
L 281.290436 162.149944 
L 281.495055 162.378372 
L 281.699675 162.299896 
L 281.904295 161.947841 
L 282.313534 160.587785 
L 282.927394 158.396857 
L 283.132013 158.259821 
L 283.336633 158.538351 
L 284.155112 160.859559 
L 284.359732 161.035217 
L 284.564351 160.911191 
L 284.768971 160.468381 
L 285.178211 158.681332 
L 285.996689 153.984587 
L 286.201309 153.484477 
L 286.405929 153.535588 
L 286.815168 154.818536 
L 287.224408 155.888754 
L 287.429028 155.930817 
L 287.633647 155.675879 
L 288.042887 154.612592 
L 288.656746 153.002274 
L 288.861366 152.833542 
L 289.065985 152.975309 
L 289.270605 153.484042 
L 289.679845 155.665682 
L 290.498323 161.145858 
L 290.907563 162.223003 
L 291.726042 162.918643 
L 292.135281 164.5291 
L 292.95376 169.024153 
L 293.363 170.054629 
L 293.567619 170.208749 
L 293.772239 170.153794 
L 294.181479 169.49236 
L 294.795338 168.23762 
L 294.999957 168.080044 
L 295.204577 168.176632 
L 295.613817 169.106368 
L 296.432296 171.476071 
L 296.636915 171.704377 
L 296.841535 171.706536 
L 297.046155 171.447934 
L 297.455394 170.138353 
L 298.069253 167.583306 
L 298.273873 167.169527 
L 298.478493 167.115663 
L 298.887732 167.712639 
L 299.706211 169.107557 
L 300.115451 169.623827 
L 300.32007 169.730452 
L 300.52469 169.671875 
L 300.72931 169.429791 
L 301.138549 168.416547 
L 301.752408 166.480869 
L 301.957028 166.152189 
L 302.161648 166.057784 
L 302.775507 166.152753 
L 302.980127 165.908575 
L 303.389366 164.53018 
L 304.003225 161.564777 
L 304.207845 161.036458 
L 304.412465 160.974574 
L 304.617085 161.384018 
L 305.026324 163.135637 
L 306.254042 168.984732 
L 307.481761 173.342874 
L 307.891 173.782887 
L 308.30024 173.697222 
L 308.709479 173.297661 
L 309.323338 172.585202 
L 309.937198 172.220457 
L 310.346437 171.332963 
L 310.755676 169.673536 
L 311.369536 165.824285 
L 311.983395 160.915197 
L 312.597254 154.127769 
L 313.211113 144.431182 
L 313.824972 130.378109 
L 314.438832 110.051611 
L 317.098888 3.365936 
L 317.303508 3.00024 
L 317.508127 7.298174 
L 317.917367 25.27593 
L 319.554325 113.940249 
L 319.963564 125.718323 
L 320.577423 136.345984 
L 322.009761 155.942973 
L 322.419001 158.601755 
L 322.82824 159.566473 
L 323.03286 159.631919 
L 323.23748 159.503281 
L 323.442099 159.162501 
L 323.851339 157.804633 
L 324.465198 154.683307 
L 324.874438 151.765317 
L 325.283677 147.172808 
L 325.692916 140.017941 
L 326.920635 115.269612 
L 327.125255 114.439763 
L 327.329874 114.732996 
L 327.739114 116.479901 
L 327.943733 116.719681 
L 328.148353 115.951882 
L 328.557593 111.063892 
L 329.171452 100.518053 
L 329.376072 99.032095 
L 329.580691 99.916834 
L 329.785311 103.508315 
L 330.19455 116.913225 
L 331.013029 144.795204 
L 331.626889 157.340539 
L 332.240748 164.215343 
L 332.854607 168.105156 
L 333.673086 173.207655 
L 334.491565 178.327308 
L 335.514663 183.1535 
L 335.923903 184.359426 
L 336.537762 185.385632 
L 336.947001 185.814168 
L 337.9701 186.583016 
L 338.583959 187.234179 
L 338.993199 187.257562 
L 339.402438 187.228872 
L 339.811678 187.449475 
L 341.653255 189.360547 
L 342.267114 189.631226 
L 342.676354 189.525963 
L 344.108692 188.46138 
L 344.517931 188.513501 
L 345.54103 189.320864 
L 345.950269 189.306069 
L 346.768748 189.086387 
L 347.587227 189.281387 
L 347.996467 189.587785 
L 348.814946 190.417725 
L 349.019565 190.42152 
L 349.838044 190.009514 
L 350.247284 190.104206 
L 351.065763 190.5654 
L 351.475002 190.469256 
L 352.088861 189.969005 
L 352.70272 189.464575 
L 353.11196 189.404929 
L 354.135059 189.765545 
L 355.362777 189.292391 
L 355.772016 189.484522 
L 356.590495 190.149438 
L 357.408974 190.513521 
L 357.818214 190.448449 
L 358.227453 190.067485 
L 359.455171 188.454618 
L 359.864411 188.315923 
L 360.27365 188.576102 
L 361.296749 189.792696 
L 361.705988 189.895634 
L 362.319848 189.652278 
L 363.752186 189.075242 
L 365.184524 188.572103 
L 365.798383 188.834819 
L 366.207622 188.952016 
L 366.821482 188.838959 
L 367.63996 188.384556 
L 368.0492 188.179966 
L 368.867679 187.96992 
L 369.276918 187.944243 
L 369.890777 188.403834 
L 370.504637 189.01621 
L 371.732355 189.449421 
L 372.755454 189.737642 
L 373.369313 190.048118 
L 373.778552 189.977793 
L 374.801651 189.515469 
L 375.62013 189.785088 
L 376.029369 189.555846 
L 376.438609 189.263198 
L 376.643228 189.239675 
L 377.052468 189.562371 
L 377.461707 189.919488 
L 377.666327 189.913521 
L 378.484806 189.469873 
L 379.712524 189.423743 
L 380.326384 189.357382 
L 380.940243 189.753561 
L 381.758722 190.165596 
L 382.167961 190.074683 
L 382.98644 189.477036 
L 384.214158 188.045132 
L 384.623398 188.062157 
L 385.237257 188.321892 
L 385.646496 188.153405 
L 386.055736 187.916608 
L 386.464975 187.964907 
L 387.692694 188.677645 
L 388.306553 188.511752 
L 389.125032 188.089426 
L 389.943511 187.650454 
L 390.35275 187.424263 
L 390.966609 186.688402 
L 393.012807 183.796284 
L 393.831286 183.37055 
L 394.240525 182.525939 
L 394.854384 180.17225 
L 396.286722 172.464813 
L 396.695962 169.90096 
L 397.309821 164.167048 
L 397.92368 155.440049 
L 398.742159 139.819843 
L 399.560638 123.925858 
L 400.583736 108.137756 
L 400.992976 96.360368 
L 401.606835 76.045798 
L 401.811455 72.90065 
L 402.016075 73.229833 
L 402.220694 76.914195 
L 402.629934 90.863773 
L 403.448413 119.66079 
L 403.857652 128.087964 
L 406.108469 159.292541 
L 406.517709 162.022776 
L 406.926948 163.130768 
L 407.131568 163.077712 
L 407.540807 162.013755 
L 408.154666 159.445569 
L 408.768526 155.931592 
L 409.177765 152.355982 
L 409.587004 146.846023 
L 411.019343 122.19877 
L 411.428582 120.275207 
L 411.633202 119.641352 
L 411.837821 118.637801 
L 412.247061 114.334704 
L 413.06554 101.6523 
L 413.27016 101.053312 
L 413.474779 102.724207 
L 413.884019 112.906936 
L 414.907117 146.697895 
L 415.520977 158.445579 
L 416.134836 165.697181 
L 416.748695 169.794816 
L 417.567174 174.597487 
L 418.385653 179.47543 
L 419.204132 182.624701 
L 419.613371 183.626148 
L 420.43185 184.790071 
L 421.045709 185.408699 
L 421.864188 185.88892 
L 422.682667 186.179729 
L 423.501146 186.913797 
L 423.910385 186.982609 
L 424.524245 186.840431 
L 425.956583 186.498904 
L 426.979681 187.014909 
L 427.59354 186.765503 
L 428.616639 186.142112 
L 429.844357 186.346135 
L 431.481315 187.372707 
L 432.504414 188.640701 
L 432.913653 188.938716 
L 433.936752 189.035708 
L 434.550611 189.184841 
L 436.801428 189.344443 
L 437.824527 189.600579 
L 438.438386 189.483265 
L 438.847625 189.639644 
L 439.256865 189.890429 
L 439.461485 189.901744 
L 439.870724 189.586212 
L 440.279963 189.22209 
L 441.916921 188.715464 
L 442.94002 189.152096 
L 443.758499 188.996704 
L 444.576978 189.418419 
L 445.395457 189.916767 
L 446.213936 190.578433 
L 446.827795 190.632924 
L 448.260133 190.145281 
L 448.873992 189.658032 
L 449.283231 189.447218 
L 449.692471 189.489389 
L 450.71557 189.91577 
L 452.352527 189.617341 
L 453.375626 189.728147 
L 454.398725 189.451053 
L 455.012584 189.118455 
L 455.421823 189.140815 
L 456.035682 189.457716 
L 458.286499 191.042012 
L 458.695739 191.052642 
L 459.514218 190.700819 
L 460.946556 189.99735 
L 461.355795 189.872625 
L 462.992753 189.891328 
L 463.606612 190.022332 
L 464.629711 190.252671 
L 466.062049 190.114917 
L 466.880528 189.469128 
L 467.494387 188.920996 
L 467.903627 188.832279 
L 470.563683 189.505687 
L 471.996021 188.851841 
L 472.8145 188.361749 
L 473.223739 188.431759 
L 474.246838 188.869593 
L 475.065317 188.688221 
L 475.679176 188.341743 
L 476.293035 187.783866 
L 476.702275 187.332121 
L 476.906895 187.231884 
L 477.111514 187.280597 
L 478.748472 188.59169 
L 479.771571 188.756205 
L 480.18081 188.55203 
L 480.59005 188.275833 
L 480.999289 188.306377 
L 482.022388 188.883459 
L 482.431627 189.119716 
L 482.840867 189.060473 
L 483.863965 188.625251 
L 484.273205 188.650705 
L 484.887064 188.830965 
L 485.705543 188.785924 
L 486.524022 189.2791 
L 487.137881 189.579641 
L 487.54712 189.57601 
L 488.16098 189.190843 
L 488.979458 188.731182 
L 489.388698 188.666475 
L 489.797937 188.954802 
L 490.411797 189.45921 
L 491.025656 189.533835 
L 491.639515 189.691698 
L 492.048754 189.745515 
L 492.867233 189.593168 
L 493.276473 189.808167 
L 493.890332 190.182833 
L 494.299571 190.068623 
L 495.11805 189.752832 
L 495.936529 189.631372 
L 496.550388 189.653263 
L 497.368867 189.468946 
L 497.778107 189.742897 
L 498.596586 190.439919 
L 499.619684 190.867189 
L 500.642783 190.862866 
L 501.665882 190.565668 
L 502.279741 190.328609 
L 503.916699 189.374933 
L 504.325938 189.488026 
L 505.349037 189.926618 
L 505.758276 189.909863 
L 506.167516 189.710735 
L 506.985994 188.934328 
L 507.190614 188.98425 
L 508.827572 190.364972 
L 509.236811 190.414194 
L 510.05529 190.293027 
L 510.46453 190.267503 
L 512.101488 189.540685 
L 512.510727 189.594181 
L 513.329206 189.845372 
L 514.352305 189.862669 
L 514.761544 189.766696 
L 515.170783 189.971122 
L 516.193882 190.713219 
L 516.603122 190.739295 
L 518.240079 190.136214 
L 518.649319 190.198324 
L 519.877037 190.713379 
L 521.309375 190.613397 
L 521.718615 190.587905 
L 522.127854 190.297761 
L 522.741713 189.705068 
L 523.764812 189.044019 
L 524.378671 188.643356 
L 524.787911 188.587341 
L 526.015629 188.688612 
L 526.424868 188.74815 
L 527.243347 189.054912 
L 527.857207 188.969089 
L 528.471066 188.668245 
L 528.880305 188.880455 
L 529.289545 189.116761 
L 529.903404 189.20827 
L 530.721883 189.706442 
L 531.335742 190.09483 
L 531.744981 190.026504 
L 532.358841 189.537362 
L 532.9727 189.169639 
L 533.177319 189.171468 
L 533.586559 189.506975 
L 534.405038 190.486692 
L 535.018897 190.711515 
L 535.428136 190.66088 
L 537.269714 189.602726 
L 537.678953 189.735409 
L 538.088193 189.98981 
L 538.497432 189.899058 
L 539.111292 189.519087 
L 539.520531 189.525635 
L 540.33901 190.037506 
L 540.952869 190.509892 
L 541.771348 191.152642 
L 542.180587 191.061763 
L 542.794447 190.634476 
L 543.817545 189.800126 
L 545.249883 188.870259 
L 545.659123 188.906243 
L 546.682221 189.296026 
L 547.296081 189.86302 
L 547.70532 189.86574 
L 549.137658 189.62119 
L 550.365376 189.194955 
L 551.388475 189.651986 
L 552.002334 189.532034 
L 552.820813 189.21171 
L 553.434672 189.291689 
L 554.048532 189.213806 
L 555.07163 189.439896 
L 555.48087 189.337952 
L 556.299349 188.954956 
L 556.913208 189.083445 
L 557.322447 189.131399 
L 557.936306 188.808405 
L 558.345546 189.018967 
L 559.573264 189.865139 
L 560.187123 190.061983 
L 562.43794 190.414964 
L 562.84718 190.321151 
L 563.665659 189.87188 
L 564.074898 190.031808 
L 564.893377 190.624887 
L 565.302617 190.610514 
L 566.530335 190.23563 
L 567.348814 190.349767 
L 567.758053 190.069258 
L 568.781152 188.987747 
L 569.190391 188.742721 
L 569.599631 188.751207 
L 570.622729 189.042626 
L 571.236589 188.967246 
L 571.645828 188.920864 
L 572.055068 189.103254 
L 572.873546 189.721671 
L 573.487406 189.81401 
L 574.305885 189.693224 
L 575.738223 189.250248 
L 576.147462 189.070218 
L 576.556702 188.897965 
L 576.965941 189.170216 
L 577.5798 189.756493 
L 577.98904 189.810826 
L 578.807519 189.809475 
L 579.421378 190.038748 
L 579.830617 189.750641 
L 580.444476 189.314004 
L 581.058336 189.088116 
L 581.467575 189.35826 
L 582.286054 190.416162 
L 582.695293 190.62099 
L 583.104533 190.522872 
L 583.923012 190.128434 
L 584.332251 190.110779 
L 585.35535 190.604541 
L 586.583068 189.92868 
L 588.015406 188.923231 
L 588.833885 188.65154 
L 589.652364 188.733631 
L 590.266223 189.125995 
L 591.698561 190.222964 
L 592.107801 190.579724 
L 592.92628 191.021038 
L 593.335519 191.186994 
L 593.744759 190.919613 
L 594.153998 190.681215 
L 594.767857 190.852279 
L 595.381716 190.9616 
L 595.790956 190.73836 
L 596.609435 189.88467 
L 597.223294 189.884338 
L 598.041773 190.109263 
L 598.451012 190.163384 
L 599.269491 190.04914 
L 599.88335 190.140423 
L 600.29259 189.922432 
L 600.701829 189.352536 
L 601.315688 188.448078 
L 601.520308 188.379159 
L 601.929548 188.581683 
L 602.338787 188.749895 
L 604.180365 188.660161 
L 604.589604 188.367782 
L 605.612703 187.144661 
L 606.021942 186.923387 
L 606.431182 187.014783 
L 607.045041 187.522704 
L 607.45428 187.852724 
L 607.86352 187.94228 
L 608.681999 187.773844 
L 609.091238 188.077452 
L 610.114337 189.294982 
L 610.523576 189.240819 
L 611.546675 188.681037 
L 611.955914 188.680534 
L 612.365154 188.948622 
L 612.774393 189.303264 
L 613.183633 189.35794 
L 613.797492 189.402814 
L 614.411351 189.523002 
L 616.252929 189.022704 
L 616.662168 189.181463 
L 617.071407 189.546223 
L 617.685267 190.187836 
L 618.094506 190.221185 
L 619.117605 189.517224 
L 620.345323 189.514184 
L 620.959182 189.702225 
L 622.186901 189.490531 
L 622.80076 189.75619 
L 623.209999 189.527721 
L 623.619239 189.278867 
L 624.028478 189.334618 
L 626.279295 190.492863 
L 627.097774 190.557729 
L 627.507013 191.003469 
L 627.916253 191.416821 
L 628.325492 191.39498 
L 629.75783 190.693154 
L 630.985549 189.557997 
L 631.394788 189.553432 
L 632.417887 190.233673 
L 633.031746 190.148386 
L 633.645605 189.906954 
L 634.259464 189.49393 
L 635.282563 189.421252 
L 635.896422 189.352479 
L 636.305662 189.265573 
L 637.32876 188.778492 
L 637.53338 188.870363 
L 638.147239 189.68643 
L 638.556479 190.106449 
L 638.965718 190.148632 
L 640.602676 189.669912 
L 641.421155 189.448369 
L 642.035014 189.364521 
L 642.853493 189.442671 
L 645.30893 190.030792 
L 645.718169 189.836776 
L 646.127409 189.577519 
L 646.536648 189.568848 
L 647.559747 189.931338 
L 648.173606 189.797286 
L 648.992085 189.867882 
L 650.015183 190.650483 
L 650.833662 190.620875 
L 651.652141 190.49889 
L 652.266 190.156008 
L 652.67524 190.268665 
L 653.289099 190.611202 
L 653.902958 190.66406 
L 654.721437 191.272711 
L 655.130677 190.948039 
L 655.744536 190.422732 
L 656.358395 190.279975 
L 656.767634 190.334302 
L 657.176874 190.454667 
L 657.586113 190.247015 
L 658.199973 189.633638 
L 658.609212 189.588006 
L 660.24617 189.98863 
L 661.883128 189.803682 
L 662.496987 189.997196 
L 663.315466 189.814196 
L 663.929325 190.152941 
L 664.543184 190.10522 
L 665.361663 190.523833 
L 665.770902 190.154885 
L 666.180142 189.718083 
L 667.20324 189.029594 
L 667.61248 188.761702 
L 668.021719 188.909959 
L 668.840198 189.622778 
L 669.249438 189.907859 
L 669.658677 189.695861 
L 671.091015 188.506501 
L 671.704874 188.491774 
L 672.114114 188.55953 
L 673.341832 189.110749 
L 673.751072 189.163123 
L 675.18341 189.698741 
L 676.001889 189.428382 
L 676.820368 189.695816 
L 677.229607 189.36329 
L 677.638847 188.94088 
L 678.457325 188.601359 
L 678.866565 188.65923 
L 679.685044 189.292751 
L 680.298903 189.719265 
L 680.708142 189.786613 
L 681.117382 189.607855 
L 681.731241 189.239507 
L 682.3451 189.238168 
L 683.368199 189.6365 
L 684.186678 190.049652 
L 684.595917 189.987926 
L 685.619016 189.546454 
L 686.437495 189.929742 
L 687.869833 189.806823 
L 688.688312 190.001478 
L 689.506791 190.287452 
L 689.91603 190.225457 
L 690.529889 190.036947 
L 690.939129 190.180618 
L 691.757608 190.640527 
L 691.962227 190.592084 
L 692.371467 190.124481 
L 692.780706 189.613694 
L 693.189946 189.457524 
L 694.008425 189.310302 
L 695.031523 189.050709 
L 695.440763 189.155102 
L 695.850002 189.515018 
L 696.668481 190.495789 
L 696.873101 190.531213 
L 697.28234 190.285995 
L 698.100819 189.55141 
L 698.714678 189.371275 
L 699.123918 189.37738 
L 699.737777 189.582816 
L 700.147017 189.340993 
L 700.760876 188.761803 
L 700.965495 188.784266 
L 701.374735 189.266152 
L 701.783974 189.855319 
L 702.193214 190.032725 
L 702.807073 189.902129 
L 703.420932 189.585721 
L 704.444031 188.739608 
L 705.467129 188.515337 
L 705.876369 188.280741 
L 706.080989 188.306602 
L 706.490228 188.734424 
L 706.899467 189.179746 
L 708.127186 189.735745 
L 708.536425 189.726506 
L 708.945665 189.613579 
L 709.354904 189.825979 
L 709.764144 190.102149 
L 710.173383 189.992173 
L 710.582623 189.755775 
L 710.991862 189.794717 
L 711.605721 190.106934 
L 712.014961 189.888366 
L 712.83344 189.099375 
L 713.651918 188.988005 
L 714.061158 188.860405 
L 717.335074 189.213163 
L 718.358172 188.906629 
L 718.767412 188.933461 
L 719.381271 189.205659 
L 719.79051 189.074696 
L 720.813609 188.295086 
L 721.222848 188.400442 
L 722.041327 188.820608 
L 722.450567 189.403022 
L 723.269046 190.843032 
L 723.473665 190.945314 
L 723.678285 190.884219 
L 724.087525 190.380338 
L 725.110623 188.88044 
L 725.315243 188.763666 
L 725.519863 188.787209 
L 726.952201 189.656779 
L 727.56606 189.554655 
L 728.179919 189.430989 
L 728.589159 189.628589 
L 728.998398 189.840699 
L 730.226116 190.043762 
L 730.839976 189.809505 
L 732.067694 188.844355 
L 733.090793 188.873553 
L 733.500032 188.862649 
L 733.909271 189.091928 
L 734.72775 189.7671 
L 735.34161 189.860896 
L 737.797046 188.890594 
L 738.615525 188.948506 
L 739.229384 189.027838 
L 740.047863 189.354807 
L 741.070962 190.019507 
L 741.684821 190.066413 
L 742.094061 190.048526 
L 742.5033 190.231496 
L 743.526399 190.946193 
L 744.140258 190.974585 
L 744.549497 190.786097 
L 745.572596 189.777174 
L 746.391075 189.744372 
L 748.028033 188.95393 
L 748.437272 188.881282 
L 749.86961 189.052709 
L 750.483469 188.692028 
L 751.097328 188.240318 
L 751.711188 188.20523 
L 752.120427 188.435766 
L 752.938906 189.164545 
L 753.348145 189.185039 
L 753.962005 189.041434 
L 754.371244 188.67088 
L 754.780484 188.249453 
L 755.189723 188.212636 
L 755.598962 188.534882 
L 756.417441 189.2775 
L 756.826681 189.269968 
L 757.23592 189.219356 
L 757.849779 189.445966 
L 758.259019 189.537089 
L 759.077498 189.44258 
L 759.691357 189.619626 
L 760.509836 189.51654 
L 761.328315 189.838634 
L 761.737554 189.67429 
L 762.556033 189.06489 
L 763.783752 189.277366 
L 764.60223 189.919327 
L 765.01147 189.852426 
L 765.625329 189.313581 
L 766.239188 188.73083 
L 766.443808 188.732128 
L 766.853047 189.174564 
L 767.262287 189.71399 
L 767.876146 189.997761 
L 769.922343 190.830307 
L 770.945442 190.244415 
L 771.559301 189.985153 
L 772.17316 189.304382 
L 772.78702 188.701463 
L 773.196259 188.64319 
L 774.219358 188.686576 
L 774.628597 188.999962 
L 775.447076 189.754421 
L 775.856315 189.805509 
L 777.084034 189.46992 
L 777.493273 189.583186 
L 777.902513 189.798093 
L 778.311752 189.671162 
L 779.130231 189.338436 
L 779.94871 189.121722 
L 780.562569 189.361157 
L 781.585668 189.166152 
L 781.994907 189.44206 
L 782.404147 189.72857 
L 783.427245 189.614036 
L 783.836485 189.426789 
L 784.654964 188.85211 
L 785.268823 188.893389 
L 785.882682 189.105221 
L 786.291921 189.264727 
L 787.31502 189.250594 
L 788.542738 189.434257 
L 789.565837 188.558962 
L 789.975077 188.717083 
L 790.998175 189.392705 
L 792.225894 189.17303 
L 793.248992 189.436408 
L 794.067471 189.642929 
L 794.476711 189.6368 
L 795.499809 189.183548 
L 795.909049 189.104004 
L 796.932147 189.225975 
L 797.341387 188.799525 
L 798.159866 187.779463 
L 798.773725 187.624691 
L 799.182964 187.724099 
L 799.796823 188.105013 
L 800.410683 188.750993 
L 801.024542 189.394194 
L 801.433781 189.465573 
L 803.070739 188.914535 
L 803.479979 189.041855 
L 804.093838 189.309889 
L 804.503077 189.172383 
L 805.730796 188.376508 
L 806.753894 188.383018 
L 807.572373 188.562803 
L 807.981613 188.258156 
L 809.209331 186.716097 
L 809.61857 186.550217 
L 810.02781 186.773008 
L 811.664768 188.254601 
L 812.074007 188.235671 
L 812.687866 188.017235 
L 813.301725 188.071935 
L 814.529444 188.295577 
L 815.143303 188.213283 
L 815.552542 188.325835 
L 816.371021 188.703518 
L 818.007979 188.925345 
L 819.031078 188.544293 
L 819.644937 188.806573 
L 820.463416 189.434019 
L 820.872655 189.293703 
L 822.509613 188.357013 
L 823.123472 187.549425 
L 823.737331 186.767174 
L 824.351191 186.431246 
L 824.76043 186.39233 
L 825.374289 186.63109 
L 826.192768 187.289167 
L 826.397388 187.295199 
L 826.806627 186.996289 
L 827.420487 186.463205 
L 827.829726 186.316743 
L 828.238965 185.841803 
L 829.875923 182.330431 
L 830.489782 180.276389 
L 831.308261 176.870532 
L 831.717501 173.844489 
L 832.12674 169.172185 
L 832.53598 162.211345 
L 833.149839 146.406773 
L 833.559078 136.15299 
L 833.763698 133.796212 
L 833.968318 134.265195 
L 834.377557 141.965602 
L 835.196036 161.36981 
L 835.809895 170.930241 
L 836.423755 176.888491 
L 837.037614 180.469156 
L 837.651473 182.446656 
L 838.060712 183.185077 
L 839.083811 184.408233 
L 839.69767 185.435945 
L 840.10691 185.58565 
L 840.720769 185.539004 
L 841.130008 185.811692 
L 842.153107 187.012904 
L 843.176206 187.666217 
L 844.199304 187.631313 
L 844.608544 187.727076 
L 845.017783 187.592404 
L 845.836262 187.030771 
L 846.654741 186.979887 
L 847.882459 186.543329 
L 848.291699 186.729168 
L 848.905558 187.13213 
L 849.519417 187.163621 
L 850.747135 187.117009 
L 851.770234 187.498114 
L 852.793333 188.212904 
L 852.997952 188.208062 
L 853.407192 187.888135 
L 853.816431 187.61615 
L 854.83953 187.847137 
L 855.453389 188.08712 
L 855.862629 188.18864 
L 856.271868 187.936679 
L 856.885727 187.439937 
L 857.294967 187.408373 
L 857.908826 187.573732 
L 858.318065 187.399247 
L 858.931924 187.053725 
L 859.545784 186.74699 
L 860.159643 186.178401 
L 860.773502 185.142292 
L 861.182741 184.532185 
L 861.591981 184.307658 
L 862.00122 184.526878 
L 862.61508 185.333009 
L 863.228939 186.194149 
L 863.638178 186.48552 
L 864.047418 186.479606 
L 865.479756 186.008438 
L 866.093615 186.012994 
L 867.935192 185.431975 
L 868.549052 185.899694 
L 869.162911 186.206525 
L 869.57215 186.241506 
L 870.186009 185.961317 
L 871.413728 185.092799 
L 872.027587 185.361886 
L 873.050686 185.992417 
L 873.459925 185.986928 
L 874.892263 185.545055 
L 875.710742 184.906781 
L 876.93846 183.924521 
L 879.598517 183.903473 
L 880.621616 183.429111 
L 881.235475 182.988571 
L 881.440094 182.923899 
L 881.644714 182.976679 
L 882.463193 183.63004 
L 882.872433 183.568764 
L 883.281672 183.218577 
L 883.895531 182.445174 
L 884.304771 182.361042 
L 884.71401 182.3067 
L 885.12325 181.894774 
L 885.532489 181.424474 
L 886.350968 180.921111 
L 886.760207 180.585196 
L 887.169447 180.550067 
L 887.783306 180.75027 
L 889.829503 180.438788 
L 890.647982 179.978947 
L 891.261841 179.36329 
L 892.48956 177.895434 
L 892.898799 177.613959 
L 893.308039 177.689055 
L 893.921898 177.855845 
L 894.331137 177.617152 
L 894.944996 176.817539 
L 895.558856 176.059865 
L 895.968095 175.869359 
L 896.377335 176.010906 
L 896.786574 176.276822 
L 897.195813 176.227722 
L 897.809673 175.701039 
L 899.242011 174.033165 
L 901.083588 173.036966 
L 902.720546 172.495704 
L 903.539025 171.589114 
L 904.562124 170.921739 
L 905.789842 170.487042 
L 907.22218 170.993 
L 907.631419 170.743418 
L 909.063758 169.372918 
L 909.472997 169.102117 
L 909.882236 169.104392 
L 910.496096 169.418064 
L 911.314575 169.899616 
L 912.337673 169.908243 
L 912.951532 169.68142 
L 913.360772 169.324517 
L 914.38387 167.792747 
L 914.58849 167.74795 
L 914.79311 167.869419 
L 915.816209 169.179337 
L 916.020828 169.16255 
L 916.430068 168.786766 
L 917.043927 167.95301 
L 917.248547 167.898802 
L 917.453166 168.04967 
L 918.067026 168.924632 
L 918.271645 168.977292 
L 918.476265 168.790831 
L 918.680885 168.343714 
L 919.090124 166.56664 
L 919.499364 163.41769 
L 919.908603 158.554939 
L 920.522462 150.736831 
L 920.727082 150.42622 
L 920.931702 151.904098 
L 922.15942 167.577455 
L 922.56866 169.761973 
L 922.977899 170.958283 
L 923.796378 172.441039 
L 924.410237 173.329292 
L 925.024096 173.7651 
L 925.637955 173.991685 
L 926.047195 173.884399 
L 926.456434 173.549494 
L 927.888772 171.901063 
L 928.707251 171.717717 
L 929.321111 171.936686 
L 929.73035 172.256841 
L 930.958068 173.780825 
L 933.208885 174.763544 
L 933.618125 174.586349 
L 934.845843 173.555629 
L 935.255083 173.779574 
L 936.073561 174.889672 
L 937.30128 177.092471 
L 937.710519 177.166551 
L 938.324378 177.03659 
L 938.733618 177.016214 
L 939.756717 176.658923 
L 940.165956 176.987638 
L 940.984435 177.932503 
L 942.212153 178.892589 
L 943.439872 180.499541 
L 944.053731 180.966821 
L 944.66759 181.421894 
L 945.281449 181.589941 
L 946.304548 182.228385 
L 946.918407 182.403794 
L 947.327646 182.480363 
L 947.736886 182.822775 
L 948.350745 183.553752 
L 948.555365 183.639266 
L 948.964604 183.466484 
L 949.373844 183.327866 
L 949.783083 183.49171 
L 951.010802 184.320482 
L 951.420041 184.321762 
L 952.23852 184.089726 
L 952.647759 184.221314 
L 953.056999 184.747008 
L 954.080097 186.513865 
L 954.693957 187.042827 
L 955.103196 187.160993 
L 955.512436 187.06533 
L 956.330914 186.630566 
L 957.354013 186.435344 
L 957.763253 186.632862 
L 958.172492 186.880728 
L 958.581731 186.813183 
L 959.40021 186.255767 
L 959.80945 186.412606 
L 960.627929 187.006378 
L 961.241788 187.323903 
L 962.674126 188.104743 
L 963.083365 188.076903 
L 963.697225 187.847002 
L 964.106464 187.988983 
L 964.720323 188.387877 
L 965.538802 188.401858 
L 966.357281 188.772398 
L 967.17576 189.240785 
L 967.584999 189.142745 
L 969.631197 188.137964 
L 970.040436 188.415279 
L 970.654295 188.869116 
L 971.268155 188.822676 
L 971.677394 188.808073 
L 972.086633 189.026661 
L 972.495873 189.324848 
L 973.928211 189.674739 
L 974.33745 189.733009 
L 975.360549 190.25005 
L 975.974408 189.972858 
L 976.588267 189.770978 
L 977.202127 189.858614 
L 977.611366 189.906457 
L 978.225225 189.818419 
L 979.248324 190.08986 
L 979.657563 189.782742 
L 980.271422 188.825735 
L 980.680662 188.353372 
L 981.089901 188.322535 
L 982.113 188.729652 
L 982.931479 188.488357 
L 983.340718 188.833756 
L 983.954578 189.485995 
L 984.363817 189.484351 
L 984.977676 189.276222 
L 985.591535 189.298769 
L 986.000775 189.636122 
L 986.614634 190.198276 
L 987.023873 190.216788 
L 987.433113 190.070802 
L 988.046972 189.543165 
L 988.660831 189.095854 
L 989.47931 188.718542 
L 989.88855 188.848116 
L 990.502409 189.22389 
L 990.911648 189.099792 
L 992.139367 188.205236 
L 992.548606 188.507102 
L 993.162465 189.384413 
L 993.571705 190.006235 
L 993.980944 190.211259 
L 994.390184 189.894011 
L 995.004043 189.301134 
L 995.413282 189.252364 
L 996.027141 189.521344 
L 997.25486 189.295737 
L 999.096437 189.815984 
L 999.710297 190.221029 
L 1000.119536 190.21443 
L 1000.733395 190.030786 
L 1001.961114 189.35144 
L 1002.370353 189.547252 
L 1002.984212 190.002675 
L 1003.802691 190.004797 
L 1004.62117 190.057434 
L 1006.667367 190.431275 
L 1007.281226 190.430314 
L 1007.895086 190.265887 
L 1009.736663 190.446976 
L 1011.373621 190.937763 
L 1011.78286 190.571753 
L 1012.601339 189.688833 
L 1013.010579 189.624179 
L 1013.419818 189.826236 
L 1014.238297 190.733194 
L 1014.852156 191.286271 
L 1015.261396 191.39977 
L 1015.670635 191.301575 
L 1016.284494 190.875279 
L 1017.307593 189.968321 
L 1018.739931 189.602513 
L 1022.013847 189.817333 
L 1022.832326 189.336889 
L 1023.241565 189.492994 
L 1024.673903 190.704407 
L 1025.287762 191.207774 
L 1025.697002 191.162759 
L 1026.7201 190.465276 
L 1027.33396 190.801255 
L 1027.743199 190.923246 
L 1028.357058 190.788836 
L 1028.970917 190.60461 
L 1029.994016 190.710758 
L 1030.812495 190.312388 
L 1031.221734 190.461463 
L 1032.449453 191.065102 
L 1032.858692 190.883773 
L 1033.472551 190.438334 
L 1034.49565 190.247463 
L 1034.90489 189.763891 
L 1035.518749 188.917791 
L 1035.927988 188.914969 
L 1036.541847 189.273707 
L 1037.769566 190.099172 
L 1038.178805 190.111892 
L 1038.792664 189.977654 
L 1039.406524 190.001132 
L 1040.429622 189.930756 
L 1040.838862 190.097307 
L 1041.452721 190.48201 
L 1042.06658 190.532105 
L 1042.475819 190.468397 
L 1043.089679 189.860011 
L 1043.703538 189.342092 
L 1044.112777 189.244328 
L 1045.135876 189.527163 
L 1045.954355 189.518557 
L 1046.772834 189.698431 
L 1047.386693 189.445699 
L 1048.000552 188.78866 
L 1048.409792 188.44066 
L 1048.614411 188.406582 
L 1048.819031 188.501878 
L 1049.22827 189.036781 
L 1049.84213 189.79972 
L 1050.455989 190.288868 
L 1051.069848 190.986646 
L 1051.274468 191.03972 
L 1051.479087 190.920822 
L 1052.502186 189.678327 
L 1053.320665 189.598313 
L 1053.729904 189.697161 
L 1054.343764 189.951938 
L 1054.753003 189.668232 
L 1055.366862 189.049173 
L 1055.776102 188.958868 
L 1056.594581 189.151604 
L 1057.20844 189.411508 
L 1057.617679 189.304604 
L 1058.231538 189.042012 
L 1058.640778 189.19771 
L 1059.459257 189.648346 
L 1059.868496 189.577048 
L 1060.277736 189.133126 
L 1060.891595 188.337766 
L 1061.300834 188.279188 
L 1061.710074 188.417864 
L 1062.119313 188.275865 
L 1062.733172 187.842894 
L 1063.347032 187.764126 
L 1063.756271 187.935823 
L 1064.37013 188.303766 
L 1064.77937 188.289376 
L 1065.393229 188.148798 
L 1065.802468 188.316542 
L 1066.211708 188.520476 
L 1066.825567 188.552012 
L 1067.234806 188.917517 
L 1067.848666 189.902392 
L 1068.462525 190.848241 
L 1068.871764 191.062027 
L 1069.281004 190.90637 
L 1069.894863 190.624145 
L 1070.508722 190.477796 
L 1070.917961 190.106378 
L 1071.94106 188.739038 
L 1073.168778 188.451745 
L 1073.578018 188.310644 
L 1073.987257 188.440469 
L 1074.805736 189.065228 
L 1075.419595 189.387691 
L 1076.238074 190.08792 
L 1077.465793 190.546366 
L 1078.284272 190.937855 
L 1078.693511 190.923087 
L 1079.102751 190.674693 
L 1080.535089 189.026312 
L 1080.944328 188.929025 
L 1081.353568 189.146231 
L 1082.172046 190.025454 
L 1082.581286 190.109016 
L 1082.990525 189.916898 
L 1083.809004 189.420153 
L 1084.422863 189.466704 
L 1086.469061 189.964562 
L 1086.8783 189.778686 
L 1087.28754 189.551085 
L 1087.696779 189.617869 
L 1088.106019 189.656634 
L 1088.515258 189.367503 
L 1089.742976 188.221985 
L 1090.152216 188.443395 
L 1091.379934 189.574102 
L 1091.789174 189.758482 
L 1092.403033 189.676542 
L 1093.221512 189.564017 
L 1094.44923 188.790848 
L 1094.858469 188.958361 
L 1095.267709 189.071592 
L 1095.881568 188.98135 
L 1096.495427 189.176489 
L 1097.723146 189.975961 
L 1098.541625 190.312733 
L 1100.383202 189.898525 
L 1100.997061 189.928758 
L 1102.22478 190.079223 
L 1103.043259 189.465707 
L 1104.066357 189.84526 
L 1104.884836 189.468136 
L 1105.294076 189.635858 
L 1106.931033 190.901911 
L 1107.340273 191.260887 
L 1107.544893 191.264002 
L 1107.749512 191.079033 
L 1108.567991 189.902757 
L 1108.977231 189.847723 
L 1110.000329 190.093889 
L 1111.228048 189.420974 
L 1112.865005 189.515862 
L 1113.888104 189.466012 
L 1114.501963 189.384473 
L 1115.525062 189.565038 
L 1116.138921 189.394842 
L 1116.75278 189.456016 
L 1117.16202 189.652924 
L 1117.571259 189.919746 
L 1117.980499 189.901258 
L 1118.594358 189.660216 
L 1119.822076 188.693768 
L 1120.231316 188.730491 
L 1121.254414 189.303716 
L 1121.663654 189.077517 
L 1122.482133 188.243731 
L 1122.686752 188.187484 
L 1123.095992 188.453225 
L 1123.505231 188.876085 
L 1123.914471 188.963369 
L 1125.346809 188.33869 
L 1125.756048 188.255416 
L 1127.597626 188.876217 
L 1128.416105 188.58277 
L 1130.257682 189.119286 
L 1131.69002 188.914115 
L 1132.713119 189.193993 
L 1133.531598 189.79488 
L 1133.940837 189.579828 
L 1134.759316 188.825413 
L 1135.168556 188.812338 
L 1135.987035 188.943551 
L 1136.396274 188.973222 
L 1138.237852 189.612537 
L 1138.647091 189.786064 
L 1139.46557 190.348289 
L 1139.874809 190.16998 
L 1140.897908 189.334139 
L 1142.739486 189.057022 
L 1143.762584 189.639112 
L 1144.171824 189.646183 
L 1144.990303 189.231545 
L 1145.399542 188.872912 
L 1146.218021 188.003338 
L 1146.62726 187.903018 
L 1147.0365 188.086079 
L 1148.059598 189.067027 
L 1148.673458 189.19337 
L 1150.719655 190.764078 
L 1150.924275 190.741063 
L 1151.333514 190.368767 
L 1152.356613 188.988677 
L 1152.561232 188.913702 
L 1152.765852 188.979106 
L 1153.175092 189.440876 
L 1153.788951 190.300211 
L 1154.60743 190.866855 
L 1155.425909 191.377674 
L 1155.835148 191.224024 
L 1156.653627 190.51145 
L 1157.062866 190.61084 
L 1157.676726 190.970648 
L 1158.085965 190.818855 
L 1159.927543 189.230574 
L 1160.746022 188.949062 
L 1161.5645 189.10864 
L 1162.792219 188.708387 
L 1163.406078 188.37486 
L 1163.815317 188.513946 
L 1164.633796 189.086873 
L 1165.452275 188.997374 
L 1166.884613 189.929255 
L 1167.703092 190.502454 
L 1168.112332 190.405501 
L 1169.13543 189.508002 
L 1169.749289 188.985995 
L 1170.158529 189.004536 
L 1170.772388 189.343269 
L 1171.590867 189.815923 
L 1172.204726 189.846813 
L 1172.613966 189.704872 
L 1173.227825 189.347304 
L 1174.250923 189.244989 
L 1174.660163 189.168128 
L 1175.069402 189.40876 
L 1175.683262 189.965402 
L 1176.092501 189.980902 
L 1176.91098 189.376487 
L 1177.934079 188.656151 
L 1178.343318 188.899567 
L 1178.957177 189.492913 
L 1179.571036 189.722081 
L 1180.389515 189.816538 
L 1180.798755 189.537268 
L 1181.821853 188.794244 
L 1182.435713 188.642996 
L 1183.458811 188.775659 
L 1184.07267 189.126886 
L 1184.891149 189.87037 
L 1184.891149 189.87037 
" clip-path="url(#p2e8be01886)" style="fill: none; stroke: #000000; stroke-width: 2; stroke-linecap: square"/>
   </g>
   <g id="patch_3">
    <path d="M 3.00024 198.907885 
L 1184.99976 198.907885 
" style="fill: none; stroke: #000000; stroke-width: 2; stroke-linejoin: miter; stroke-linecap: square"/>
   </g>
  </g>
 </g>
 <defs>
  <clipPath id="p2e8be01886">
   <rect x="3.00024" y="3.00024" width="1181.99952" height="195.907645"/>
  </clipPath>
 </defs>
</svg>
