<?xml version="1.0" encoding="utf-8" standalone="no"?>
<!DOCTYPE svg PUBLIC "-//W3C//DTD SVG 1.1//EN"
  "http://www.w3.org/Graphics/SVG/1.1/DTD/svg11.dtd">
<svg xmlns:xlink="http://www.w3.org/1999/xlink" width="1188pt" height="252pt" viewBox="0 0 1188 252" xmlns="http://www.w3.org/2000/svg" version="1.1">
 <metadata>
  <rdf:RDF xmlns:dc="http://purl.org/dc/elements/1.1/" xmlns:cc="http://creativecommons.org/ns#" xmlns:rdf="http://www.w3.org/1999/02/22-rdf-syntax-ns#">
   <cc:Work>
    <dc:type rdf:resource="http://purl.org/dc/dcmitype/StillImage"/>
    <dc:date>2024-05-13T15:44:53.840445</dc:date>
    <dc:format>image/svg+xml</dc:format>
    <dc:creator>
     <cc:Agent>
      <dc:title>Matplotlib v3.8.0, https://matplotlib.org/</dc:title>
     </cc:Agent>
    </dc:creator>
   </cc:Work>
  </rdf:RDF>
 </metadata>
 <defs>
  <style type="text/css">*{stroke-linejoin: round; stroke-linecap: butt}</style>
 </defs>
 <g id="figure_1">
  <g id="patch_1">
   <path d="M 0 252 
L 1188 252 
L 1188 0 
L 0 0 
z
" style="fill: #ffffff"/>
  </g>
  <g id="axes_1">
   <g id="patch_2">
    <path d="M 3.00024 198.907885 
L 1184.99976 198.907885 
L 1184.99976 3.00024 
L 3.00024 3.00024 
z
" style="fill: #ffffff"/>
   </g>
   <g id="matplotlib.axis_1">
    <g id="xtick_1">
     <g id="line2d_1">
      <defs>
       <path id="mdfe1f1fd43" d="M 0 0 
L 0 8 
" style="stroke: #000000; stroke-width: 2"/>
      </defs>
      <g>
       <use xlink:href="#mdfe1f1fd43" x="1131.272509" y="198.907885" style="stroke: #000000; stroke-width: 2"/>
      </g>
     </g>
     <g id="text_1">
      <!-- 0 -->
      <g transform="translate(1126.267665 224.791947) scale(0.18 -0.18)">
       <defs>
        <path id="Arial-BoldMT-30" d="M 1756 4600 
Q 2422 4600 2797 4125 
Q 3244 3563 3244 2259 
Q 3244 959 2794 391 
Q 2422 -78 1756 -78 
Q 1088 -78 678 436 
Q 269 950 269 2269 
Q 269 3563 719 4131 
Q 1091 4600 1756 4600 
z
M 1756 3872 
Q 1597 3872 1472 3770 
Q 1347 3669 1278 3406 
Q 1188 3066 1188 2259 
Q 1188 1453 1269 1151 
Q 1350 850 1473 750 
Q 1597 650 1756 650 
Q 1916 650 2041 751 
Q 2166 853 2234 1116 
Q 2325 1453 2325 2259 
Q 2325 3066 2244 3367 
Q 2163 3669 2039 3770 
Q 1916 3872 1756 3872 
z
" transform="scale(0.015625)"/>
       </defs>
       <use xlink:href="#Arial-BoldMT-30"/>
      </g>
     </g>
    </g>
    <g id="xtick_2">
     <g id="line2d_2">
      <g>
       <use xlink:href="#mdfe1f1fd43" x="1023.818007" y="198.907885" style="stroke: #000000; stroke-width: 2"/>
      </g>
     </g>
     <g id="text_2">
      <!-- 1 -->
      <g transform="translate(1018.813164 224.791947) scale(0.18 -0.18)">
       <defs>
        <path id="Arial-BoldMT-31" d="M 2519 0 
L 1641 0 
L 1641 3309 
Q 1159 2859 506 2644 
L 506 3441 
Q 850 3553 1253 3867 
Q 1656 4181 1806 4600 
L 2519 4600 
L 2519 0 
z
" transform="scale(0.015625)"/>
       </defs>
       <use xlink:href="#Arial-BoldMT-31"/>
      </g>
     </g>
    </g>
    <g id="xtick_3">
     <g id="line2d_3">
      <g>
       <use xlink:href="#mdfe1f1fd43" x="916.363505" y="198.907885" style="stroke: #000000; stroke-width: 2"/>
      </g>
     </g>
     <g id="text_3">
      <!-- 2 -->
      <g transform="translate(911.358662 224.791947) scale(0.18 -0.18)">
       <defs>
        <path id="Arial-BoldMT-32" d="M 3238 816 
L 3238 0 
L 159 0 
Q 209 463 459 877 
Q 709 1291 1447 1975 
Q 2041 2528 2175 2725 
Q 2356 2997 2356 3263 
Q 2356 3556 2198 3714 
Q 2041 3872 1763 3872 
Q 1488 3872 1325 3706 
Q 1163 3541 1138 3156 
L 263 3244 
Q 341 3969 753 4284 
Q 1166 4600 1784 4600 
Q 2463 4600 2850 4234 
Q 3238 3869 3238 3325 
Q 3238 3016 3127 2736 
Q 3016 2456 2775 2150 
Q 2616 1947 2200 1565 
Q 1784 1184 1673 1059 
Q 1563 934 1494 816 
L 3238 816 
z
" transform="scale(0.015625)"/>
       </defs>
       <use xlink:href="#Arial-BoldMT-32"/>
      </g>
     </g>
    </g>
    <g id="xtick_4">
     <g id="line2d_4">
      <g>
       <use xlink:href="#mdfe1f1fd43" x="808.909004" y="198.907885" style="stroke: #000000; stroke-width: 2"/>
      </g>
     </g>
     <g id="text_4">
      <!-- 3 -->
      <g transform="translate(803.90416 224.791947) scale(0.18 -0.18)">
       <defs>
        <path id="Arial-BoldMT-33" d="M 241 1216 
L 1091 1319 
Q 1131 994 1309 822 
Q 1488 650 1741 650 
Q 2013 650 2198 856 
Q 2384 1063 2384 1413 
Q 2384 1744 2206 1937 
Q 2028 2131 1772 2131 
Q 1603 2131 1369 2066 
L 1466 2781 
Q 1822 2772 2009 2936 
Q 2197 3100 2197 3372 
Q 2197 3603 2059 3740 
Q 1922 3878 1694 3878 
Q 1469 3878 1309 3722 
Q 1150 3566 1116 3266 
L 306 3403 
Q 391 3819 561 4067 
Q 731 4316 1036 4458 
Q 1341 4600 1719 4600 
Q 2366 4600 2756 4188 
Q 3078 3850 3078 3425 
Q 3078 2822 2419 2463 
Q 2813 2378 3048 2084 
Q 3284 1791 3284 1375 
Q 3284 772 2843 347 
Q 2403 -78 1747 -78 
Q 1125 -78 715 280 
Q 306 638 241 1216 
z
" transform="scale(0.015625)"/>
       </defs>
       <use xlink:href="#Arial-BoldMT-33"/>
      </g>
     </g>
    </g>
    <g id="xtick_5">
     <g id="line2d_5">
      <g>
       <use xlink:href="#mdfe1f1fd43" x="701.454502" y="198.907885" style="stroke: #000000; stroke-width: 2"/>
      </g>
     </g>
     <g id="text_5">
      <!-- 4 -->
      <g transform="translate(696.449658 224.791947) scale(0.18 -0.18)">
       <defs>
        <path id="Arial-BoldMT-34" d="M 1994 0 
L 1994 922 
L 119 922 
L 119 1691 
L 2106 4600 
L 2844 4600 
L 2844 1694 
L 3413 1694 
L 3413 922 
L 2844 922 
L 2844 0 
L 1994 0 
z
M 1994 1694 
L 1994 3259 
L 941 1694 
L 1994 1694 
z
" transform="scale(0.015625)"/>
       </defs>
       <use xlink:href="#Arial-BoldMT-34"/>
      </g>
     </g>
    </g>
    <g id="xtick_6">
     <g id="line2d_6">
      <g>
       <use xlink:href="#mdfe1f1fd43" x="594" y="198.907885" style="stroke: #000000; stroke-width: 2"/>
      </g>
     </g>
     <g id="text_6">
      <!-- 5 -->
      <g transform="translate(588.995156 224.791947) scale(0.18 -0.18)">
       <defs>
        <path id="Arial-BoldMT-35" d="M 284 1178 
L 1159 1269 
Q 1197 972 1381 798 
Q 1566 625 1806 625 
Q 2081 625 2272 848 
Q 2463 1072 2463 1522 
Q 2463 1944 2273 2155 
Q 2084 2366 1781 2366 
Q 1403 2366 1103 2031 
L 391 2134 
L 841 4519 
L 3163 4519 
L 3163 3697 
L 1506 3697 
L 1369 2919 
Q 1663 3066 1969 3066 
Q 2553 3066 2959 2641 
Q 3366 2216 3366 1538 
Q 3366 972 3038 528 
Q 2591 -78 1797 -78 
Q 1163 -78 763 262 
Q 363 603 284 1178 
z
" transform="scale(0.015625)"/>
       </defs>
       <use xlink:href="#Arial-BoldMT-35"/>
      </g>
     </g>
    </g>
    <g id="xtick_7">
     <g id="line2d_7">
      <g>
       <use xlink:href="#mdfe1f1fd43" x="486.545498" y="198.907885" style="stroke: #000000; stroke-width: 2"/>
      </g>
     </g>
     <g id="text_7">
      <!-- 6 -->
      <g transform="translate(481.540654 224.791947) scale(0.18 -0.18)">
       <defs>
        <path id="Arial-BoldMT-36" d="M 3247 3459 
L 2397 3366 
Q 2366 3628 2234 3753 
Q 2103 3878 1894 3878 
Q 1616 3878 1423 3628 
Q 1231 3378 1181 2588 
Q 1509 2975 1997 2975 
Q 2547 2975 2939 2556 
Q 3331 2138 3331 1475 
Q 3331 772 2918 347 
Q 2506 -78 1859 -78 
Q 1166 -78 719 461 
Q 272 1000 272 2228 
Q 272 3488 737 4044 
Q 1203 4600 1947 4600 
Q 2469 4600 2811 4308 
Q 3153 4016 3247 3459 
z
M 1256 1544 
Q 1256 1116 1453 883 
Q 1650 650 1903 650 
Q 2147 650 2309 840 
Q 2472 1031 2472 1466 
Q 2472 1913 2297 2120 
Q 2122 2328 1859 2328 
Q 1606 2328 1431 2129 
Q 1256 1931 1256 1544 
z
" transform="scale(0.015625)"/>
       </defs>
       <use xlink:href="#Arial-BoldMT-36"/>
      </g>
     </g>
    </g>
    <g id="xtick_8">
     <g id="line2d_8">
      <g>
       <use xlink:href="#mdfe1f1fd43" x="379.090996" y="198.907885" style="stroke: #000000; stroke-width: 2"/>
      </g>
     </g>
     <g id="text_8">
      <!-- 7 -->
      <g transform="translate(374.086153 224.791947) scale(0.18 -0.18)">
       <defs>
        <path id="Arial-BoldMT-37" d="M 272 3703 
L 272 4519 
L 3275 4519 
L 3275 3881 
Q 2903 3516 2518 2831 
Q 2134 2147 1932 1376 
Q 1731 606 1734 0 
L 888 0 
Q 909 950 1279 1937 
Q 1650 2925 2269 3703 
L 272 3703 
z
" transform="scale(0.015625)"/>
       </defs>
       <use xlink:href="#Arial-BoldMT-37"/>
      </g>
     </g>
    </g>
    <g id="xtick_9">
     <g id="line2d_9">
      <g>
       <use xlink:href="#mdfe1f1fd43" x="271.636495" y="198.907885" style="stroke: #000000; stroke-width: 2"/>
      </g>
     </g>
     <g id="text_9">
      <!-- 8 -->
      <g transform="translate(266.631651 224.791947) scale(0.18 -0.18)">
       <defs>
        <path id="Arial-BoldMT-38" d="M 1025 2472 
Q 684 2616 529 2867 
Q 375 3119 375 3419 
Q 375 3931 733 4265 
Q 1091 4600 1750 4600 
Q 2403 4600 2764 4265 
Q 3125 3931 3125 3419 
Q 3125 3100 2959 2851 
Q 2794 2603 2494 2472 
Q 2875 2319 3073 2025 
Q 3272 1731 3272 1347 
Q 3272 713 2867 316 
Q 2463 -81 1791 -81 
Q 1166 -81 750 247 
Q 259 634 259 1309 
Q 259 1681 443 1992 
Q 628 2303 1025 2472 
z
M 1206 3356 
Q 1206 3094 1354 2947 
Q 1503 2800 1750 2800 
Q 2000 2800 2150 2948 
Q 2300 3097 2300 3359 
Q 2300 3606 2151 3754 
Q 2003 3903 1759 3903 
Q 1506 3903 1356 3753 
Q 1206 3603 1206 3356 
z
M 1125 1394 
Q 1125 1031 1311 828 
Q 1497 625 1775 625 
Q 2047 625 2225 820 
Q 2403 1016 2403 1384 
Q 2403 1706 2222 1901 
Q 2041 2097 1763 2097 
Q 1441 2097 1283 1875 
Q 1125 1653 1125 1394 
z
" transform="scale(0.015625)"/>
       </defs>
       <use xlink:href="#Arial-BoldMT-38"/>
      </g>
     </g>
    </g>
    <g id="xtick_10">
     <g id="line2d_10">
      <g>
       <use xlink:href="#mdfe1f1fd43" x="164.181993" y="198.907885" style="stroke: #000000; stroke-width: 2"/>
      </g>
     </g>
     <g id="text_10">
      <!-- 9 -->
      <g transform="translate(159.177149 224.791947) scale(0.18 -0.18)">
       <defs>
        <path id="Arial-BoldMT-39" d="M 291 1059 
L 1141 1153 
Q 1172 894 1303 769 
Q 1434 644 1650 644 
Q 1922 644 2112 894 
Q 2303 1144 2356 1931 
Q 2025 1547 1528 1547 
Q 988 1547 595 1964 
Q 203 2381 203 3050 
Q 203 3747 617 4173 
Q 1031 4600 1672 4600 
Q 2369 4600 2816 4061 
Q 3263 3522 3263 2288 
Q 3263 1031 2797 475 
Q 2331 -81 1584 -81 
Q 1047 -81 715 205 
Q 384 491 291 1059 
z
M 2278 2978 
Q 2278 3403 2083 3637 
Q 1888 3872 1631 3872 
Q 1388 3872 1227 3680 
Q 1066 3488 1066 3050 
Q 1066 2606 1241 2398 
Q 1416 2191 1678 2191 
Q 1931 2191 2104 2391 
Q 2278 2591 2278 2978 
z
" transform="scale(0.015625)"/>
       </defs>
       <use xlink:href="#Arial-BoldMT-39"/>
      </g>
     </g>
    </g>
    <g id="xtick_11">
     <g id="line2d_11">
      <g>
       <use xlink:href="#mdfe1f1fd43" x="56.727491" y="198.907885" style="stroke: #000000; stroke-width: 2"/>
      </g>
     </g>
     <g id="text_11">
      <!-- 10 -->
      <g transform="translate(46.717803 224.791947) scale(0.18 -0.18)">
       <use xlink:href="#Arial-BoldMT-31"/>
       <use xlink:href="#Arial-BoldMT-30" x="55.615234"/>
      </g>
     </g>
    </g>
    <g id="text_12">
     <!-- Chemical Shift / ppm -->
     <g transform="translate(504.992813 245.447573) scale(0.18 -0.18)">
      <defs>
       <path id="Arial-BoldMT-43" d="M 3397 1684 
L 4294 1400 
Q 4088 650 3608 286 
Q 3128 -78 2391 -78 
Q 1478 -78 890 545 
Q 303 1169 303 2250 
Q 303 3394 893 4026 
Q 1484 4659 2447 4659 
Q 3288 4659 3813 4163 
Q 4125 3869 4281 3319 
L 3366 3100 
Q 3284 3456 3026 3662 
Q 2769 3869 2400 3869 
Q 1891 3869 1573 3503 
Q 1256 3138 1256 2319 
Q 1256 1450 1568 1081 
Q 1881 713 2381 713 
Q 2750 713 3015 947 
Q 3281 1181 3397 1684 
z
" transform="scale(0.015625)"/>
       <path id="Arial-BoldMT-68" d="M 1334 4581 
L 1334 2897 
Q 1759 3394 2350 3394 
Q 2653 3394 2897 3281 
Q 3141 3169 3264 2994 
Q 3388 2819 3433 2606 
Q 3478 2394 3478 1947 
L 3478 0 
L 2600 0 
L 2600 1753 
Q 2600 2275 2550 2415 
Q 2500 2556 2373 2639 
Q 2247 2722 2056 2722 
Q 1838 2722 1666 2615 
Q 1494 2509 1414 2295 
Q 1334 2081 1334 1663 
L 1334 0 
L 456 0 
L 456 4581 
L 1334 4581 
z
" transform="scale(0.015625)"/>
       <path id="Arial-BoldMT-65" d="M 2381 1056 
L 3256 909 
Q 3088 428 2723 176 
Q 2359 -75 1813 -75 
Q 947 -75 531 491 
Q 203 944 203 1634 
Q 203 2459 634 2926 
Q 1066 3394 1725 3394 
Q 2466 3394 2894 2905 
Q 3322 2416 3303 1406 
L 1103 1406 
Q 1113 1016 1316 798 
Q 1519 581 1822 581 
Q 2028 581 2168 693 
Q 2309 806 2381 1056 
z
M 2431 1944 
Q 2422 2325 2234 2523 
Q 2047 2722 1778 2722 
Q 1491 2722 1303 2513 
Q 1116 2303 1119 1944 
L 2431 1944 
z
" transform="scale(0.015625)"/>
       <path id="Arial-BoldMT-6d" d="M 394 3319 
L 1203 3319 
L 1203 2866 
Q 1638 3394 2238 3394 
Q 2556 3394 2790 3262 
Q 3025 3131 3175 2866 
Q 3394 3131 3647 3262 
Q 3900 3394 4188 3394 
Q 4553 3394 4806 3245 
Q 5059 3097 5184 2809 
Q 5275 2597 5275 2122 
L 5275 0 
L 4397 0 
L 4397 1897 
Q 4397 2391 4306 2534 
Q 4184 2722 3931 2722 
Q 3747 2722 3584 2609 
Q 3422 2497 3350 2280 
Q 3278 2063 3278 1594 
L 3278 0 
L 2400 0 
L 2400 1819 
Q 2400 2303 2353 2443 
Q 2306 2584 2207 2653 
Q 2109 2722 1941 2722 
Q 1738 2722 1575 2612 
Q 1413 2503 1342 2297 
Q 1272 2091 1272 1613 
L 1272 0 
L 394 0 
L 394 3319 
z
" transform="scale(0.015625)"/>
       <path id="Arial-BoldMT-69" d="M 459 3769 
L 459 4581 
L 1338 4581 
L 1338 3769 
L 459 3769 
z
M 459 0 
L 459 3319 
L 1338 3319 
L 1338 0 
L 459 0 
z
" transform="scale(0.015625)"/>
       <path id="Arial-BoldMT-63" d="M 3353 2338 
L 2488 2181 
Q 2444 2441 2289 2572 
Q 2134 2703 1888 2703 
Q 1559 2703 1364 2476 
Q 1169 2250 1169 1719 
Q 1169 1128 1367 884 
Q 1566 641 1900 641 
Q 2150 641 2309 783 
Q 2469 925 2534 1272 
L 3397 1125 
Q 3263 531 2881 228 
Q 2500 -75 1859 -75 
Q 1131 -75 698 384 
Q 266 844 266 1656 
Q 266 2478 700 2936 
Q 1134 3394 1875 3394 
Q 2481 3394 2839 3133 
Q 3197 2872 3353 2338 
z
" transform="scale(0.015625)"/>
       <path id="Arial-BoldMT-61" d="M 1116 2306 
L 319 2450 
Q 453 2931 781 3162 
Q 1109 3394 1756 3394 
Q 2344 3394 2631 3255 
Q 2919 3116 3036 2902 
Q 3153 2688 3153 2116 
L 3144 1091 
Q 3144 653 3186 445 
Q 3228 238 3344 0 
L 2475 0 
Q 2441 88 2391 259 
Q 2369 338 2359 363 
Q 2134 144 1878 34 
Q 1622 -75 1331 -75 
Q 819 -75 523 203 
Q 228 481 228 906 
Q 228 1188 362 1408 
Q 497 1628 739 1745 
Q 981 1863 1438 1950 
Q 2053 2066 2291 2166 
L 2291 2253 
Q 2291 2506 2166 2614 
Q 2041 2722 1694 2722 
Q 1459 2722 1328 2630 
Q 1197 2538 1116 2306 
z
M 2291 1594 
Q 2122 1538 1756 1459 
Q 1391 1381 1278 1306 
Q 1106 1184 1106 997 
Q 1106 813 1243 678 
Q 1381 544 1594 544 
Q 1831 544 2047 700 
Q 2206 819 2256 991 
Q 2291 1103 2291 1419 
L 2291 1594 
z
" transform="scale(0.015625)"/>
       <path id="Arial-BoldMT-6c" d="M 459 0 
L 459 4581 
L 1338 4581 
L 1338 0 
L 459 0 
z
" transform="scale(0.015625)"/>
       <path id="Arial-BoldMT-20" transform="scale(0.015625)"/>
       <path id="Arial-BoldMT-53" d="M 231 1491 
L 1131 1578 
Q 1213 1125 1461 912 
Q 1709 700 2131 700 
Q 2578 700 2804 889 
Q 3031 1078 3031 1331 
Q 3031 1494 2936 1608 
Q 2841 1722 2603 1806 
Q 2441 1863 1863 2006 
Q 1119 2191 819 2459 
Q 397 2838 397 3381 
Q 397 3731 595 4036 
Q 794 4341 1167 4500 
Q 1541 4659 2069 4659 
Q 2931 4659 3367 4281 
Q 3803 3903 3825 3272 
L 2900 3231 
Q 2841 3584 2645 3739 
Q 2450 3894 2059 3894 
Q 1656 3894 1428 3728 
Q 1281 3622 1281 3444 
Q 1281 3281 1419 3166 
Q 1594 3019 2269 2859 
Q 2944 2700 3267 2529 
Q 3591 2359 3773 2064 
Q 3956 1769 3956 1334 
Q 3956 941 3737 597 
Q 3519 253 3119 86 
Q 2719 -81 2122 -81 
Q 1253 -81 787 320 
Q 322 722 231 1491 
z
" transform="scale(0.015625)"/>
       <path id="Arial-BoldMT-66" d="M 75 3319 
L 563 3319 
L 563 3569 
Q 563 3988 652 4194 
Q 741 4400 980 4529 
Q 1219 4659 1584 4659 
Q 1959 4659 2319 4547 
L 2200 3934 
Q 1991 3984 1797 3984 
Q 1606 3984 1523 3895 
Q 1441 3806 1441 3553 
L 1441 3319 
L 2097 3319 
L 2097 2628 
L 1441 2628 
L 1441 0 
L 563 0 
L 563 2628 
L 75 2628 
L 75 3319 
z
" transform="scale(0.015625)"/>
       <path id="Arial-BoldMT-74" d="M 1981 3319 
L 1981 2619 
L 1381 2619 
L 1381 1281 
Q 1381 875 1398 808 
Q 1416 741 1477 697 
Q 1538 653 1625 653 
Q 1747 653 1978 738 
L 2053 56 
Q 1747 -75 1359 -75 
Q 1122 -75 931 4 
Q 741 84 652 211 
Q 563 338 528 553 
Q 500 706 500 1172 
L 500 2619 
L 97 2619 
L 97 3319 
L 500 3319 
L 500 3978 
L 1381 4491 
L 1381 3319 
L 1981 3319 
z
" transform="scale(0.015625)"/>
       <path id="Arial-BoldMT-2f" d="M -9 -78 
L 1125 4659 
L 1784 4659 
L 638 -78 
L -9 -78 
z
" transform="scale(0.015625)"/>
       <path id="Arial-BoldMT-70" d="M 434 3319 
L 1253 3319 
L 1253 2831 
Q 1413 3081 1684 3237 
Q 1956 3394 2288 3394 
Q 2866 3394 3269 2941 
Q 3672 2488 3672 1678 
Q 3672 847 3265 386 
Q 2859 -75 2281 -75 
Q 2006 -75 1782 34 
Q 1559 144 1313 409 
L 1313 -1263 
L 434 -1263 
L 434 3319 
z
M 1303 1716 
Q 1303 1156 1525 889 
Q 1747 622 2066 622 
Q 2372 622 2575 867 
Q 2778 1113 2778 1672 
Q 2778 2194 2568 2447 
Q 2359 2700 2050 2700 
Q 1728 2700 1515 2451 
Q 1303 2203 1303 1716 
z
" transform="scale(0.015625)"/>
      </defs>
      <use xlink:href="#Arial-BoldMT-43"/>
      <use xlink:href="#Arial-BoldMT-68" x="72.216797"/>
      <use xlink:href="#Arial-BoldMT-65" x="133.300781"/>
      <use xlink:href="#Arial-BoldMT-6d" x="188.916016"/>
      <use xlink:href="#Arial-BoldMT-69" x="277.832031"/>
      <use xlink:href="#Arial-BoldMT-63" x="305.615234"/>
      <use xlink:href="#Arial-BoldMT-61" x="361.230469"/>
      <use xlink:href="#Arial-BoldMT-6c" x="416.845703"/>
      <use xlink:href="#Arial-BoldMT-20" x="444.628906"/>
      <use xlink:href="#Arial-BoldMT-53" x="472.412109"/>
      <use xlink:href="#Arial-BoldMT-68" x="539.111328"/>
      <use xlink:href="#Arial-BoldMT-69" x="600.195312"/>
      <use xlink:href="#Arial-BoldMT-66" x="627.978516"/>
      <use xlink:href="#Arial-BoldMT-74" x="661.279297"/>
      <use xlink:href="#Arial-BoldMT-20" x="694.580078"/>
      <use xlink:href="#Arial-BoldMT-2f" x="722.363281"/>
      <use xlink:href="#Arial-BoldMT-20" x="750.146484"/>
      <use xlink:href="#Arial-BoldMT-70" x="777.929688"/>
      <use xlink:href="#Arial-BoldMT-70" x="839.013672"/>
      <use xlink:href="#Arial-BoldMT-6d" x="900.097656"/>
     </g>
    </g>
   </g>
   <g id="matplotlib.axis_2"/>
   <g id="line2d_12">
    <path d="M 2.982981 188.292642 
L 4.006079 187.676502 
L 4.210699 187.790581 
L 4.824558 188.40442 
L 5.029178 188.264706 
L 5.438417 187.792621 
L 5.643037 187.850071 
L 6.052276 188.411361 
L 6.461516 189.512732 
L 7.075375 191.397834 
L 7.484615 192.234517 
L 7.689234 192.452763 
L 7.893854 192.48647 
L 8.303093 192.275628 
L 8.712333 192.034195 
L 8.916953 192.089016 
L 9.326192 192.614162 
L 9.735432 193.295278 
L 9.940051 193.429934 
L 10.144671 193.340509 
L 10.75853 192.559244 
L 10.96315 192.562882 
L 11.372389 193.049494 
L 11.781629 193.685944 
L 12.395488 195.072997 
L 12.600108 195.091808 
L 13.009347 194.154906 
L 14.237066 190.670618 
L 14.441685 190.650102 
L 14.850925 191.806975 
L 16.078643 196.149859 
L 16.897122 197.711722 
L 17.101742 198.218584 
L 17.306361 198.369504 
L 17.510981 198.064677 
L 17.920221 196.645811 
L 18.7387 193.534393 
L 19.352559 192.472397 
L 19.966418 191.603003 
L 20.171038 191.530667 
L 20.580277 191.5978 
L 21.603376 191.078287 
L 22.217235 190.644391 
L 22.626474 190.227785 
L 23.240333 189.348695 
L 23.444953 189.363481 
L 23.649573 189.579513 
L 24.058812 190.536893 
L 24.468052 191.607159 
L 24.877291 191.999808 
L 25.286531 192.343486 
L 25.69577 193.093549 
L 26.514249 195.363438 
L 26.718869 195.309717 
L 26.923489 194.822635 
L 27.946587 191.061538 
L 28.151207 190.888902 
L 28.765066 190.804972 
L 28.969686 190.600441 
L 29.378925 189.605762 
L 29.788165 188.374711 
L 29.992784 188.296298 
L 30.402024 189.378223 
L 30.606644 189.910675 
L 30.811263 190.104517 
L 31.220503 189.868582 
L 31.629742 189.665809 
L 32.243601 189.777483 
L 32.857461 189.431057 
L 33.06208 189.451505 
L 33.2667 189.627402 
L 33.67594 190.698767 
L 34.085179 191.675966 
L 34.289799 191.727183 
L 34.494418 191.472314 
L 35.108278 190.150492 
L 35.312897 190.10711 
L 35.517517 190.300854 
L 35.926757 191.186275 
L 36.335996 192.239768 
L 36.540616 192.535761 
L 36.745235 192.564546 
L 36.949855 192.30416 
L 37.359095 191.125823 
L 37.768334 189.907441 
L 37.972954 189.589094 
L 38.177574 189.568037 
L 38.996052 190.460163 
L 39.200672 190.367897 
L 39.609912 189.526572 
L 40.019151 187.994852 
L 41.04225 183.076785 
L 41.451489 182.51788 
L 41.656109 182.394715 
L 41.860729 182.455204 
L 42.269968 182.799876 
L 42.679208 182.792939 
L 42.883827 183.076677 
L 43.293067 184.804506 
L 43.906926 187.945784 
L 44.111546 188.490587 
L 44.316165 188.633353 
L 44.725405 187.977392 
L 45.134644 187.51785 
L 45.748503 187.310492 
L 46.157743 186.730231 
L 46.362363 186.733397 
L 46.566982 187.202803 
L 47.180842 189.580475 
L 47.385461 189.654612 
L 47.794701 188.495788 
L 48.20394 187.354159 
L 48.61318 186.890463 
L 49.636278 186.324799 
L 50.045518 185.851269 
L 50.250137 185.930431 
L 50.454757 186.421435 
L 51.477856 190.345163 
L 51.682476 190.10245 
L 52.705574 186.713644 
L 52.910194 186.639067 
L 53.319433 187.06729 
L 53.728673 187.610804 
L 54.547152 188.170254 
L 55.365631 189.865824 
L 55.97949 190.870255 
L 56.18411 190.954362 
L 56.593349 190.664703 
L 57.411828 189.428975 
L 57.616448 189.481688 
L 58.230307 190.277901 
L 58.434927 190.063607 
L 58.844166 188.513364 
L 59.458025 186.355623 
L 59.867265 185.355803 
L 60.481124 184.675133 
L 60.685744 184.173608 
L 61.094983 182.146375 
L 61.913462 177.107083 
L 62.118082 177.004721 
L 62.322701 177.727618 
L 62.731941 181.227835 
L 63.14118 184.883335 
L 63.55042 186.913244 
L 64.368899 189.526066 
L 64.573518 189.828637 
L 64.778138 189.817555 
L 65.187377 189.305601 
L 65.801237 188.335251 
L 66.415096 188.005746 
L 66.619716 188.038884 
L 67.438194 188.716836 
L 67.847434 188.534185 
L 68.052054 188.607961 
L 68.256673 188.964721 
L 68.870533 190.785492 
L 69.075152 191.012185 
L 69.279772 190.874067 
L 70.098251 189.350584 
L 70.71211 189.51518 
L 70.91673 189.225276 
L 72.349068 185.49766 
L 72.553688 185.312526 
L 72.758307 185.550416 
L 73.167547 186.887874 
L 74.190645 191.061499 
L 74.395265 191.177254 
L 74.599885 190.976882 
L 75.418364 189.70343 
L 75.622984 189.927178 
L 76.032223 191.496776 
L 76.850702 195.298427 
L 77.055322 195.472636 
L 77.259941 195.096264 
L 77.873801 193.389376 
L 78.28304 193.058201 
L 78.692279 192.980626 
L 79.101519 193.046318 
L 79.306139 193.209428 
L 79.919998 194.058814 
L 80.329237 194.008957 
L 80.738477 194.470536 
L 80.943096 194.418201 
L 81.352336 193.192418 
L 81.761575 192.058597 
L 82.170815 191.676801 
L 82.580054 191.563596 
L 82.989294 191.762526 
L 83.193913 191.864491 
L 83.398533 191.800785 
L 83.807773 191.117461 
L 84.217012 190.328965 
L 84.421632 190.188154 
L 84.626252 190.255868 
L 85.035491 190.859025 
L 85.44473 191.84408 
L 86.05859 193.924311 
L 86.263209 194.10288 
L 86.672449 193.659392 
L 87.490928 192.500845 
L 87.695547 192.388427 
L 88.514026 192.558151 
L 89.127886 192.064146 
L 89.537125 191.525724 
L 90.560224 189.550274 
L 91.174083 187.633695 
L 91.378703 187.271514 
L 91.787942 187.137059 
L 92.401801 186.903468 
L 92.606421 187.118101 
L 93.4249 189.154723 
L 94.038759 190.943593 
L 94.652618 192.754903 
L 95.266477 193.86424 
L 95.880337 195.155537 
L 96.494196 195.853891 
L 96.698815 195.659297 
L 97.108055 194.344293 
L 97.517294 193.01283 
L 98.540393 190.853532 
L 99.358872 188.722662 
L 99.563492 188.818308 
L 99.972731 189.767311 
L 100.58659 191.17202 
L 100.79121 191.277749 
L 101.200449 191.301079 
L 101.814309 192.586916 
L 102.018928 192.49627 
L 102.223548 191.857819 
L 103.246647 187.263901 
L 103.451266 187.194091 
L 103.860506 187.750684 
L 104.474365 188.843853 
L 105.088224 189.133134 
L 105.906703 190.693172 
L 106.315943 190.540826 
L 106.725182 190.19629 
L 107.134421 189.484907 
L 107.9529 187.379627 
L 108.36214 186.883633 
L 108.771379 185.946425 
L 110.203717 181.862038 
L 110.408337 181.747915 
L 110.612957 182.078926 
L 111.022196 184.092358 
L 111.636055 187.009094 
L 112.045295 188.06531 
L 112.659154 188.648684 
L 113.068394 190.198733 
L 113.477633 191.853224 
L 113.682253 192.091457 
L 113.886872 191.867841 
L 114.909971 189.298397 
L 115.319211 189.260985 
L 115.52383 189.237814 
L 115.72845 189.028506 
L 115.93307 188.57655 
L 116.342309 186.764624 
L 116.751549 184.837382 
L 117.160788 183.833963 
L 117.365408 183.741524 
L 117.570028 183.92969 
L 117.979267 184.954364 
L 119.002366 188.359008 
L 119.206985 188.274678 
L 119.820845 186.846109 
L 120.025464 186.842983 
L 120.230084 187.270792 
L 121.867042 193.177163 
L 122.071662 193.341001 
L 122.276281 193.160526 
L 122.480901 192.600731 
L 123.504 187.806938 
L 123.708619 187.688424 
L 123.913239 187.947934 
L 124.731718 189.628064 
L 125.140957 190.345202 
L 125.959436 192.591372 
L 126.368676 193.053339 
L 126.573296 193.074741 
L 126.777915 192.980452 
L 126.982535 192.756571 
L 127.391774 191.814438 
L 128.005634 190.36357 
L 128.210253 190.231597 
L 128.414873 190.41177 
L 128.824113 191.704189 
L 129.233352 192.938986 
L 129.437972 192.948676 
L 129.847211 191.833398 
L 130.256451 190.583478 
L 130.66569 190.001531 
L 131.07493 189.718184 
L 131.279549 189.797792 
L 131.484169 190.231076 
L 132.302648 193.448912 
L 132.507268 193.623102 
L 132.711887 193.553839 
L 132.916507 193.303428 
L 133.325747 192.140752 
L 133.734986 190.848436 
L 134.348845 189.830919 
L 134.758085 189.515489 
L 134.962704 189.517597 
L 135.167324 189.766927 
L 135.576564 191.38195 
L 135.985803 193.232119 
L 136.190423 193.406408 
L 136.395042 192.920583 
L 137.213521 189.919354 
L 138.44124 187.253008 
L 138.850479 187.824485 
L 139.259719 188.337621 
L 139.873578 188.629384 
L 140.282817 189.597053 
L 141.101296 191.974522 
L 141.510536 192.611235 
L 141.715155 192.761709 
L 141.919775 192.746206 
L 142.124395 192.442382 
L 142.329014 191.676739 
L 143.352113 185.631389 
L 144.170592 184.153081 
L 144.375212 184.06033 
L 144.579831 184.298334 
L 144.989071 185.644259 
L 146.01217 190.331059 
L 146.626029 190.805061 
L 147.239888 192.135575 
L 148.058367 194.422727 
L 148.262987 194.282734 
L 148.876846 193.133626 
L 149.286085 193.157111 
L 149.695325 193.199025 
L 149.899944 193.097992 
L 150.309184 192.295392 
L 151.946142 188.117491 
L 153.37848 184.763159 
L 153.787719 184.662041 
L 154.401578 184.959268 
L 154.606198 185.282855 
L 155.015438 186.735836 
L 155.629297 189.24875 
L 156.038536 189.991371 
L 156.447776 190.713192 
L 157.266255 192.732987 
L 157.470874 192.837471 
L 158.084733 192.627036 
L 158.493973 192.452224 
L 159.721691 191.283781 
L 160.130931 189.963525 
L 160.74479 187.404494 
L 161.154029 186.596739 
L 161.563269 186.336876 
L 161.767889 186.389932 
L 161.972508 186.608909 
L 162.790987 188.161013 
L 162.995607 188.174858 
L 163.404846 187.926253 
L 163.609466 187.991967 
L 164.018706 188.658845 
L 164.632565 189.701161 
L 165.041804 189.797085 
L 165.451044 189.628092 
L 165.860283 188.822427 
L 166.064903 188.409125 
L 166.269523 188.251214 
L 166.474142 188.427595 
L 166.883382 189.685897 
L 167.292621 190.764378 
L 167.497241 190.597772 
L 167.90648 188.90022 
L 168.31572 187.499043 
L 168.52034 187.316673 
L 168.724959 187.393858 
L 169.338818 188.165951 
L 169.748058 188.980986 
L 170.157297 190.002772 
L 170.361917 190.241919 
L 170.771157 190.14532 
L 171.385016 189.93554 
L 171.794255 189.179824 
L 172.817354 186.167821 
L 173.431213 183.489075 
L 173.635833 183.094597 
L 173.840452 183.094377 
L 174.045072 183.471529 
L 174.863551 185.921542 
L 175.068171 185.992533 
L 175.68203 185.839747 
L 175.88665 185.959565 
L 176.091269 186.357053 
L 177.114368 189.960127 
L 177.318988 190.217844 
L 177.932847 190.543918 
L 178.751326 191.911488 
L 179.160565 191.978151 
L 179.569805 191.870411 
L 179.979044 191.699117 
L 180.388284 191.764552 
L 181.206763 192.061409 
L 181.616002 191.498187 
L 181.820622 191.517052 
L 182.025241 192.049127 
L 182.84372 196.108483 
L 183.04834 196.165042 
L 183.25296 195.519862 
L 184.071439 191.514818 
L 185.094537 189.897671 
L 186.322256 187.229987 
L 186.526875 187.469873 
L 186.936115 188.815913 
L 187.345354 190.092252 
L 187.549974 190.308668 
L 187.754594 190.275913 
L 188.368453 189.76788 
L 188.777692 189.138377 
L 189.186932 187.712373 
L 189.800791 185.195779 
L 190.005411 185.079444 
L 190.210031 185.373368 
L 191.437749 188.783268 
L 191.642369 188.869341 
L 192.051608 188.668453 
L 192.256228 188.790573 
L 192.665467 189.665027 
L 193.893186 193.036799 
L 194.097805 193.1062 
L 194.302425 192.945434 
L 194.711665 191.919963 
L 195.939383 187.341564 
L 196.144003 187.160771 
L 196.348622 187.185637 
L 196.757862 187.767127 
L 197.98558 190.595823 
L 198.39482 191.763068 
L 199.417918 193.412279 
L 199.827158 193.684793 
L 200.031777 193.475104 
L 200.441017 191.948769 
L 200.850256 190.18382 
L 201.054876 189.801193 
L 201.259496 189.732591 
L 201.668735 189.853047 
L 201.873355 189.711399 
L 202.077975 189.224396 
L 202.896454 186.129273 
L 203.101073 186.207159 
L 203.510313 187.164024 
L 203.919552 187.896428 
L 204.124172 187.748956 
L 204.942651 186.397939 
L 205.35189 185.968594 
L 206.784228 183.080776 
L 206.988848 183.127631 
L 207.807327 183.746668 
L 208.011947 183.706651 
L 208.216567 183.408495 
L 208.625806 181.767963 
L 209.239665 178.126811 
L 209.648905 177.285921 
L 210.058144 176.69446 
L 210.672003 174.871286 
L 211.285862 172.026479 
L 211.695102 169.469657 
L 212.92282 158.340504 
L 213.945919 148.913708 
L 215.787496 133.014051 
L 216.605975 122.986642 
L 217.219834 113.725399 
L 219.266032 76.660009 
L 219.879891 70.061118 
L 220.084511 69.22234 
L 220.28913 69.142571 
L 220.49375 69.538217 
L 220.90299 71.316834 
L 221.312229 74.497397 
L 221.926088 81.441282 
L 222.949187 96.02807 
L 224.176905 107.599967 
L 224.995384 116.669475 
L 225.404624 119.074581 
L 226.018483 121.741804 
L 226.427722 125.15675 
L 228.06468 141.199266 
L 229.087779 149.386438 
L 229.497018 150.755298 
L 230.110877 152.086984 
L 230.724736 154.328614 
L 231.133976 155.620818 
L 231.747835 156.680081 
L 232.157075 156.895314 
L 232.566314 156.836203 
L 232.770934 156.580205 
L 232.975553 155.948333 
L 233.384793 153.422819 
L 233.794032 149.416089 
L 234.203272 143.037666 
L 236.249469 103.465775 
L 236.658709 99.366175 
L 236.863328 98.89326 
L 237.067948 99.250112 
L 237.477187 101.013306 
L 237.886427 103.905797 
L 238.295666 108.894813 
L 239.728004 129.983547 
L 240.751103 141.065075 
L 241.364962 146.106457 
L 241.774202 148.049216 
L 241.978821 148.341236 
L 242.592681 147.989398 
L 243.20654 148.55144 
L 243.41116 148.260793 
L 243.615779 147.49216 
L 244.025019 144.487059 
L 244.638878 136.893659 
L 246.071216 117.754086 
L 246.480455 113.361488 
L 246.889695 111.339445 
L 247.094315 111.297197 
L 247.298934 111.692011 
L 247.708174 113.370107 
L 248.117413 116.520766 
L 248.526653 121.76771 
L 249.958991 144.204406 
L 250.982089 157.495483 
L 251.800568 165.520583 
L 252.209808 167.893603 
L 252.619047 169.319247 
L 253.028287 170.004734 
L 253.232906 170.071025 
L 253.437526 169.969539 
L 253.846766 169.392901 
L 254.665244 167.960524 
L 254.869864 167.846213 
L 255.279104 168.127106 
L 255.688343 168.514282 
L 255.892963 168.527432 
L 256.097583 168.297877 
L 256.506822 167.159462 
L 257.120681 164.906458 
L 257.529921 161.706364 
L 258.14378 153.880721 
L 258.962259 140.413974 
L 259.780738 123.051813 
L 260.394597 104.734899 
L 261.622315 64.403609 
L 262.236174 51.148656 
L 262.645414 46.331992 
L 263.054653 44.227498 
L 263.259273 44.180427 
L 263.463893 44.940428 
L 263.668512 46.752096 
L 264.077752 54.401627 
L 264.691611 72.903832 
L 265.71471 103.5606 
L 266.737808 126.54502 
L 267.147048 133.393203 
L 267.556287 137.472644 
L 268.579386 143.691455 
L 268.784006 143.55809 
L 268.988625 142.538388 
L 269.397865 138.667543 
L 270.420963 126.147313 
L 271.648682 105.688485 
L 271.853302 104.548524 
L 272.057921 104.142525 
L 272.262541 104.26445 
L 272.67178 105.283858 
L 273.08102 107.090158 
L 273.490259 110.45218 
L 274.104119 118.919837 
L 274.922597 132.653185 
L 275.536457 143.152067 
L 276.559555 155.617377 
L 277.173414 161.958577 
L 277.582654 164.861831 
L 277.991893 166.585392 
L 278.401133 167.285132 
L 278.810372 167.38892 
L 279.014992 167.334571 
L 279.219612 167.068743 
L 279.628851 165.628475 
L 280.24271 163.51568 
L 280.65195 162.095246 
L 281.265809 159.894031 
L 281.470429 159.742639 
L 281.879668 159.995816 
L 282.084288 159.829517 
L 282.288908 159.106146 
L 282.698147 156.165652 
L 283.312006 149.647359 
L 284.539725 134.857452 
L 284.948964 127.629025 
L 285.767443 106.998282 
L 286.585922 88.26046 
L 287.199781 79.491626 
L 287.81364 74.097707 
L 288.22288 71.965674 
L 288.427499 71.323868 
L 288.632119 71.129093 
L 288.836739 71.604146 
L 289.041359 72.86066 
L 289.450598 77.458435 
L 290.064457 87.342092 
L 290.678316 100.57962 
L 291.496795 119.529457 
L 291.906035 125.301102 
L 292.519894 130.52984 
L 292.929133 132.714303 
L 293.338373 133.664765 
L 293.542993 133.70067 
L 293.747612 133.402996 
L 294.156852 131.891167 
L 294.566091 129.338612 
L 294.975331 125.667681 
L 295.58919 117.456517 
L 296.612288 102.647109 
L 297.226148 97.596708 
L 297.840007 93.816778 
L 298.249246 92.677734 
L 298.453866 92.812377 
L 298.658486 93.613253 
L 299.067725 97.26856 
L 299.681584 105.780315 
L 301.523162 135.236855 
L 302.75088 150.503398 
L 303.364739 156.266238 
L 303.978599 160.199644 
L 305.206317 167.160238 
L 306.024796 173.248948 
L 306.434035 174.892919 
L 307.457134 177.569741 
L 308.275613 180.452276 
L 308.889472 181.463413 
L 309.094092 181.609843 
L 309.298712 181.36601 
L 309.912571 179.853981 
L 310.11719 179.797056 
L 310.32181 180.03215 
L 310.52643 180.642829 
L 311.344909 184.455885 
L 311.549529 184.852746 
L 311.754148 184.964095 
L 311.958768 184.87945 
L 312.163388 184.663816 
L 312.572627 183.573401 
L 312.777247 182.960866 
L 312.981867 182.805291 
L 313.186486 183.298325 
L 313.595726 185.818794 
L 314.004965 188.318093 
L 314.209585 188.961021 
L 314.414205 189.149581 
L 314.823444 188.692686 
L 315.028064 188.492938 
L 315.232684 188.498974 
L 315.846543 189.061447 
L 316.051163 188.911654 
L 316.665022 187.930118 
L 316.869641 188.010653 
L 317.278881 188.817863 
L 318.30198 191.550702 
L 318.506599 191.842008 
L 318.711219 191.892734 
L 318.915839 191.557434 
L 319.938937 188.379823 
L 320.552797 186.738791 
L 321.575895 183.602169 
L 321.780515 183.49647 
L 322.189754 183.646108 
L 322.598994 183.446844 
L 323.008233 183.276468 
L 323.212853 183.430757 
L 323.622092 184.318948 
L 324.031332 185.618208 
L 324.645191 188.070042 
L 324.849811 188.324723 
L 325.872909 187.75287 
L 326.077529 187.365127 
L 326.691388 185.520728 
L 326.896008 185.404228 
L 327.100628 185.651604 
L 327.509867 187.029304 
L 328.328346 190.635551 
L 328.737586 191.536212 
L 329.351445 191.492242 
L 329.760684 192.045083 
L 330.374543 192.762426 
L 330.579163 192.976475 
L 330.783783 193.007185 
L 330.988403 192.712846 
L 331.806882 190.701424 
L 332.216121 190.282074 
L 332.62536 189.970805 
L 333.0346 188.67671 
L 333.648459 186.231427 
L 334.057698 185.592568 
L 334.262318 185.619992 
L 334.466938 185.822134 
L 334.671558 186.187024 
L 334.876177 186.829886 
L 335.285417 189.256889 
L 335.694656 191.752941 
L 336.103896 192.843079 
L 336.513135 193.063421 
L 336.922375 193.017087 
L 337.331614 192.910226 
L 337.945473 193.486913 
L 338.150093 193.211795 
L 338.968572 190.631584 
L 339.173192 190.381172 
L 339.377811 190.379011 
L 339.787051 190.993621 
L 340.810149 193.306126 
L 341.014769 193.335953 
L 341.219389 193.023119 
L 341.833248 190.805084 
L 342.242488 189.314763 
L 342.447107 188.879883 
L 342.651727 188.809224 
L 343.265586 189.49201 
L 343.879445 189.088043 
L 344.902544 189.305976 
L 345.311783 189.684904 
L 345.925643 190.828492 
L 346.334882 191.577029 
L 347.357981 192.12344 
L 347.5626 191.884729 
L 347.97184 190.041828 
L 348.585699 187.308334 
L 348.994939 186.093296 
L 349.404178 185.585387 
L 349.608798 185.71807 
L 349.813417 186.210119 
L 350.222657 188.387082 
L 350.631896 190.885897 
L 350.836516 191.495002 
L 351.041136 191.525297 
L 351.450375 190.418137 
L 351.859615 189.176512 
L 352.064234 188.886268 
L 352.473474 188.885127 
L 353.087333 188.785828 
L 353.701192 188.6432 
L 354.315051 188.930391 
L 354.724291 188.659778 
L 355.13353 188.343716 
L 355.33815 188.50353 
L 355.952009 189.730492 
L 356.156629 189.635577 
L 356.565868 188.481583 
L 357.588967 184.622589 
L 357.998207 183.982147 
L 358.202826 183.809589 
L 358.407446 183.843203 
L 358.612066 184.147768 
L 359.635164 186.666029 
L 359.839784 186.559611 
L 360.249024 185.481336 
L 361.067502 182.944636 
L 361.681362 181.149419 
L 362.090601 179.911265 
L 362.295221 179.656913 
L 362.90908 179.687265 
L 363.1137 179.152848 
L 363.932179 176.186937 
L 365.773756 173.635241 
L 366.182996 173.740409 
L 366.387615 173.510497 
L 366.796855 172.178924 
L 367.819953 168.321124 
L 368.433813 164.678441 
L 369.252292 157.977612 
L 370.68463 145.851336 
L 371.707728 129.476694 
L 373.140066 104.274954 
L 373.958545 84.161371 
L 376.004742 31.483327 
L 376.618602 19.340891 
L 377.027841 15.573601 
L 377.232461 15.585788 
L 377.437081 16.616607 
L 377.84632 20.626917 
L 378.460179 30.253078 
L 379.483278 46.240303 
L 380.710996 63.752311 
L 381.120236 66.971273 
L 381.734095 69.445247 
L 382.143334 70.598016 
L 382.347954 70.713411 
L 382.552574 70.250088 
L 382.757193 69.011271 
L 383.166433 64.235711 
L 384.394151 45.483311 
L 386.031109 14.654421 
L 386.644968 6.644855 
L 387.054208 3.333654 
L 387.258827 3.00024 
L 387.463447 3.74022 
L 387.872687 7.983531 
L 388.281926 15.032999 
L 388.895785 29.95417 
L 391.146602 91.124014 
L 393.1928 131.766541 
L 394.625138 148.702182 
L 395.238997 155.061163 
L 395.852856 158.252147 
L 396.262095 161.049039 
L 396.875955 165.521873 
L 397.285194 166.629831 
L 397.694434 167.341417 
L 398.308293 168.880086 
L 400.35449 174.953857 
L 400.763729 175.137779 
L 400.968349 175.012938 
L 401.786828 174.085921 
L 401.991448 174.329639 
L 402.400687 175.663235 
L 403.423786 179.812785 
L 404.651504 185.242864 
L 405.060744 185.976016 
L 405.469983 186.198534 
L 406.493082 186.68115 
L 406.902321 187.349867 
L 407.311561 187.918173 
L 407.51618 187.85746 
L 408.13004 187.245246 
L 408.539279 186.924944 
L 409.153138 185.825543 
L 409.357758 185.856596 
L 409.971617 186.659527 
L 410.176237 186.649435 
L 410.380857 186.267324 
L 410.790096 184.332559 
L 411.199335 182.508226 
L 411.608575 181.927132 
L 411.813195 181.914756 
L 412.017814 182.138772 
L 412.631674 183.619467 
L 413.245533 184.15552 
L 414.064012 185.60838 
L 414.677871 185.28979 
L 415.08711 185.019238 
L 415.29173 185.12801 
L 416.110209 186.564369 
L 416.314829 186.399077 
L 416.724068 185.556954 
L 417.542547 183.455733 
L 417.747167 183.537638 
L 418.770265 185.113856 
L 419.588744 186.711306 
L 419.793364 186.709898 
L 419.997984 186.443507 
L 420.407223 185.205766 
L 420.816463 183.827516 
L 421.021082 183.476415 
L 421.225702 183.393535 
L 421.430322 183.545658 
L 421.839561 184.503467 
L 422.044181 184.991615 
L 422.248801 185.110515 
L 422.45342 184.773767 
L 423.06728 182.874254 
L 423.271899 182.758338 
L 423.681139 183.248477 
L 424.499618 184.845983 
L 425.113477 186.198192 
L 425.318097 186.397232 
L 425.522716 186.297796 
L 425.727336 185.87315 
L 426.545815 182.831188 
L 426.750435 182.934761 
L 427.159674 184.643331 
L 427.568914 186.324981 
L 427.978153 187.208868 
L 428.387393 187.541935 
L 428.796632 187.626034 
L 429.615111 188.130415 
L 430.02435 187.080518 
L 430.63821 185.355957 
L 430.842829 185.112959 
L 431.047449 185.111551 
L 431.456688 185.700933 
L 431.865928 186.760605 
L 432.479787 188.557082 
L 432.889027 188.90618 
L 433.502886 189.028681 
L 433.707505 189.262436 
L 434.525984 190.884795 
L 434.730604 190.86408 
L 434.935224 190.641658 
L 435.344463 189.58938 
L 436.367562 185.959427 
L 436.572182 185.747472 
L 436.776801 185.743853 
L 436.981421 185.945537 
L 437.390661 186.825975 
L 437.7999 188.119012 
L 438.618379 191.282469 
L 439.027618 191.640242 
L 439.641478 191.756493 
L 440.050717 191.477378 
L 440.869196 190.582624 
L 441.073816 190.422697 
L 441.278435 190.015936 
L 441.892295 187.939894 
L 442.096914 187.713244 
L 442.301534 187.964886 
L 442.710773 189.539614 
L 443.120013 191.102381 
L 443.529252 191.775056 
L 443.733872 191.85004 
L 443.938492 191.765209 
L 444.347731 191.209221 
L 444.756971 190.189381 
L 445.57545 187.165579 
L 445.780069 187.322794 
L 446.189309 188.047148 
L 446.803168 188.612672 
L 447.212407 189.535954 
L 448.235506 192.339558 
L 448.440126 192.509325 
L 448.644745 192.376463 
L 449.053985 191.493136 
L 450.281703 188.018166 
L 450.690943 187.591679 
L 450.895562 187.513148 
L 451.100182 187.602005 
L 451.509422 188.129433 
L 451.918661 188.911506 
L 452.73714 190.632961 
L 453.146379 191.30845 
L 453.555619 191.645954 
L 454.169478 192.636962 
L 454.374098 192.562366 
L 455.192577 191.6505 
L 455.806436 190.619818 
L 456.215675 189.963737 
L 456.420295 190.268694 
L 456.829535 192.360267 
L 457.238774 193.953941 
L 457.443394 193.85192 
L 458.057253 192.379072 
L 458.875732 190.204895 
L 459.489591 189.31102 
L 460.30807 187.037047 
L 460.51269 186.979494 
L 460.717309 187.206062 
L 460.921929 187.802056 
L 461.331169 190.295339 
L 461.740408 192.881648 
L 461.945028 193.493405 
L 462.149647 193.578942 
L 462.354267 193.286727 
L 462.763507 192.156427 
L 463.377366 190.245679 
L 463.786605 189.66775 
L 464.195845 189.408831 
L 464.400464 189.446376 
L 464.605084 189.670815 
L 465.218943 191.238562 
L 465.628183 191.942024 
L 466.037422 192.176418 
L 466.242042 192.184783 
L 466.446662 191.995444 
L 466.855901 191.058844 
L 467.46976 189.58559 
L 468.08362 188.44161 
L 468.288239 188.331901 
L 468.902098 188.676395 
L 469.106718 188.896635 
L 469.925197 190.324084 
L 470.539056 190.615248 
L 470.948296 190.718287 
L 471.357535 190.473164 
L 471.562155 190.47104 
L 471.971394 190.755919 
L 472.380634 191.281509 
L 473.403732 193.382203 
L 473.608352 193.178823 
L 474.222211 191.894081 
L 474.426831 191.847191 
L 475.24531 192.544306 
L 475.44993 192.314666 
L 475.859169 191.152787 
L 476.268409 189.97134 
L 476.473028 189.776069 
L 476.882268 189.868866 
L 477.086888 190.089475 
L 477.700747 191.291179 
L 477.905366 191.304046 
L 478.314606 190.642548 
L 478.928465 189.186387 
L 479.133085 188.947342 
L 479.337705 188.941521 
L 479.746944 189.491094 
L 480.156183 189.981071 
L 480.360803 190.052034 
L 480.565423 189.945426 
L 481.179282 189.105124 
L 481.588522 189.127071 
L 481.997761 189.286646 
L 482.202381 189.174292 
L 482.61162 188.492406 
L 483.634719 186.582804 
L 484.043958 186.329184 
L 484.248578 186.414644 
L 484.657817 187.08637 
L 485.271677 188.469181 
L 485.476296 188.604748 
L 485.680916 188.438681 
L 485.885536 187.878503 
L 486.908634 183.299214 
L 487.727113 182.558368 
L 488.340972 182.811801 
L 488.545592 182.687358 
L 488.954832 182.012596 
L 490.591789 178.269565 
L 491.205649 176.655274 
L 491.614888 176.366856 
L 491.819508 176.336332 
L 492.024128 176.177835 
L 492.433367 175.245482 
L 494.274945 170.197888 
L 495.093423 169.685759 
L 495.298043 169.170716 
L 495.707283 166.830698 
L 496.321142 162.469687 
L 498.367339 151.172167 
L 499.390438 143.406847 
L 501.027396 134.851612 
L 502.664353 122.594495 
L 504.096691 112.547898 
L 504.91517 106.307631 
L 505.11979 105.86212 
L 505.32441 105.897983 
L 505.52903 106.324231 
L 506.142889 108.380234 
L 506.347508 108.445741 
L 506.552128 107.902735 
L 507.370607 104.451889 
L 507.575227 104.483755 
L 507.779847 105.105304 
L 509.007565 111.452195 
L 509.621424 112.930513 
L 510.235283 114.040204 
L 510.439903 113.924595 
L 511.258382 112.548511 
L 511.667621 112.307805 
L 512.4861 112.035365 
L 514.327678 109.077435 
L 514.532298 109.225519 
L 514.941537 110.788804 
L 515.964636 116.199133 
L 519.033932 136.246184 
L 519.85241 138.733757 
L 521.080129 143.202418 
L 522.307847 149.987155 
L 522.921706 153.104006 
L 523.535566 156.213336 
L 523.944805 157.834067 
L 524.558664 161.815085 
L 525.377143 166.603929 
L 525.991002 169.312912 
L 528.037199 176.149322 
L 528.855678 177.643295 
L 529.264918 179.436492 
L 529.878777 182.899461 
L 530.083397 183.42183 
L 530.288016 183.355692 
L 531.106495 181.724544 
L 531.515735 181.746441 
L 531.924974 182.105605 
L 532.334214 182.765943 
L 532.743453 183.430687 
L 533.357312 183.698116 
L 533.766552 184.085592 
L 533.971172 184.102219 
L 534.175791 183.783161 
L 534.585031 181.936022 
L 534.99427 179.820947 
L 535.19889 179.311837 
L 535.40351 179.311171 
L 535.608129 179.759072 
L 536.017369 181.609613 
L 536.835848 185.724598 
L 537.245087 186.677205 
L 537.449707 186.762401 
L 537.858946 186.408495 
L 538.268186 185.798589 
L 538.677425 184.717743 
L 539.291284 183.047035 
L 539.700524 182.705186 
L 540.109763 182.521695 
L 540.314383 182.566854 
L 540.519003 182.879648 
L 541.337482 185.149366 
L 542.36058 186.051164 
L 542.97444 185.990783 
L 543.588299 186.174426 
L 543.997538 186.183185 
L 544.406778 185.850515 
L 544.816017 185.317878 
L 545.020637 185.286555 
L 545.839116 186.182678 
L 546.452975 186.166418 
L 546.862214 186.224065 
L 547.066834 186.043273 
L 547.885313 184.804635 
L 548.089933 184.974235 
L 548.499172 186.002859 
L 548.908412 186.929356 
L 549.113031 186.987917 
L 549.522271 186.767779 
L 549.726891 186.871363 
L 549.93151 187.277413 
L 550.749989 189.789704 
L 551.568468 190.692469 
L 551.773088 190.669441 
L 551.977708 190.36127 
L 553.000806 187.530626 
L 553.410046 187.364791 
L 553.819285 186.750813 
L 554.023905 186.435768 
L 554.228525 186.393457 
L 554.433144 186.707243 
L 555.251623 188.960698 
L 555.660863 190.955174 
L 556.479342 195.298775 
L 556.683961 195.984608 
L 556.888581 196.260689 
L 557.093201 196.098613 
L 557.70706 194.44127 
L 558.116299 193.095328 
L 558.934778 189.797157 
L 559.344018 188.685985 
L 559.753257 188.11206 
L 559.957877 187.951276 
L 560.162497 188.010101 
L 560.776356 188.806431 
L 560.980976 188.593829 
L 561.390215 187.872707 
L 561.594835 187.908151 
L 562.413314 189.439311 
L 562.822553 188.838462 
L 563.845652 187.231369 
L 564.254891 186.918726 
L 564.459511 187.019966 
L 564.86875 187.869972 
L 565.687229 190.138084 
L 565.891849 190.228724 
L 566.301088 189.612871 
L 567.324187 188.154773 
L 567.733426 187.868303 
L 568.142666 187.982762 
L 569.370384 188.983391 
L 569.779624 188.863555 
L 569.984243 188.776667 
L 570.188863 188.93312 
L 570.393483 189.510075 
L 570.802722 192.007474 
L 571.211962 194.849198 
L 571.621201 196.171609 
L 571.825821 196.172323 
L 572.030441 195.744512 
L 572.6443 192.822632 
L 573.053539 191.164483 
L 573.462779 190.362958 
L 573.667399 190.541531 
L 574.076638 191.849186 
L 574.690497 193.942626 
L 575.304356 195.35674 
L 575.508976 195.50131 
L 575.713596 195.32753 
L 576.122835 194.29584 
L 576.736694 191.749097 
L 577.145934 189.885816 
L 577.555173 189.092798 
L 577.759793 188.98104 
L 577.964413 189.113265 
L 578.373652 190.103567 
L 578.782892 191.1305 
L 579.396751 191.565349 
L 580.624469 194.185134 
L 581.033709 194.707119 
L 581.442948 195.447938 
L 581.647568 195.594271 
L 581.852188 195.460075 
L 582.261427 194.518174 
L 582.670667 193.003369 
L 583.284526 189.381173 
L 583.693765 187.582672 
L 583.898385 187.436223 
L 584.103005 187.738767 
L 584.716864 189.587424 
L 585.330723 191.331422 
L 585.739962 191.677092 
L 586.353822 192.001517 
L 586.967681 192.789748 
L 587.172301 192.649499 
L 587.58154 191.709758 
L 587.990779 190.862077 
L 588.195399 190.82347 
L 588.809258 191.525048 
L 589.013878 191.492126 
L 590.241596 190.111948 
L 590.650836 189.707285 
L 591.060075 189.178924 
L 591.264695 189.076715 
L 591.673935 189.276619 
L 591.878554 189.503255 
L 592.287794 190.484908 
L 592.697033 191.372008 
L 592.901653 191.361299 
L 593.310892 190.99652 
L 593.515512 191.029344 
L 594.129371 191.654931 
L 594.333991 191.534581 
L 594.74323 190.513155 
L 595.35709 188.571297 
L 596.175569 187.012268 
L 596.584808 186.131588 
L 596.789428 186.352167 
L 597.607907 189.02456 
L 597.812526 188.832259 
L 598.631005 186.536081 
L 598.835625 186.444312 
L 599.040245 186.806811 
L 599.449484 188.804626 
L 600.063343 191.839981 
L 600.267963 192.23615 
L 600.472583 192.272308 
L 600.677203 191.970357 
L 601.086442 190.407353 
L 601.904921 186.489941 
L 602.51878 184.973639 
L 602.928019 184.549256 
L 603.132639 184.712098 
L 603.337259 185.159622 
L 603.951118 187.332264 
L 604.155738 187.40678 
L 604.360358 186.877674 
L 604.974217 184.606031 
L 605.178836 184.682578 
L 605.792696 186.35158 
L 605.997315 186.404852 
L 606.815794 185.739764 
L 607.020414 185.787484 
L 607.429653 186.503151 
L 607.838893 187.254529 
L 608.248132 187.458059 
L 608.657372 187.60593 
L 608.861992 187.832597 
L 609.271231 188.782757 
L 609.68047 189.908819 
L 609.88509 190.134935 
L 610.08971 189.917734 
L 610.498949 188.318485 
L 611.317428 183.823063 
L 611.522048 183.575397 
L 611.726668 183.815205 
L 612.135907 185.261319 
L 612.749766 187.890218 
L 613.159006 188.418828 
L 613.977485 189.262189 
L 614.386724 189.353845 
L 614.795964 189.779618 
L 615.000583 190.037715 
L 615.205203 190.098267 
L 615.409823 189.857061 
L 616.023682 188.673621 
L 616.228302 188.700383 
L 616.637541 189.458188 
L 617.45602 191.540021 
L 617.86526 192.646717 
L 618.069879 192.78259 
L 618.274499 192.644096 
L 618.683738 192.197005 
L 618.888358 192.386647 
L 619.297598 193.935314 
L 619.706837 195.120044 
L 619.911457 195.096243 
L 620.729936 194.15229 
L 620.934555 194.282958 
L 621.343795 195.229391 
L 621.753034 196.3573 
L 622.162274 196.850681 
L 622.366894 196.853908 
L 622.571513 196.64935 
L 622.980753 195.402405 
L 624.003851 191.050292 
L 624.208471 191.052066 
L 624.617711 191.605033 
L 625.02695 192.206767 
L 625.23157 192.230865 
L 625.436189 191.90942 
L 626.459288 188.755478 
L 627.073147 187.929277 
L 627.891626 186.247038 
L 628.505485 185.740567 
L 628.914725 185.841068 
L 629.119345 186.051425 
L 629.528584 186.982672 
L 629.937823 187.961889 
L 630.142443 188.121042 
L 630.347063 188.056139 
L 631.984021 186.20245 
L 632.39326 184.78638 
L 632.8025 183.377606 
L 633.007119 183.397829 
L 633.620979 184.97458 
L 633.825598 185.035922 
L 634.030218 184.745773 
L 634.439457 183.829888 
L 634.644077 183.744779 
L 634.848697 184.089363 
L 635.462556 185.601441 
L 635.871796 186.413393 
L 636.281035 187.731938 
L 637.099514 191.1213 
L 637.304134 191.280662 
L 637.508753 191.1032 
L 638.122613 190.175621 
L 638.531852 189.964534 
L 638.736472 190.003791 
L 639.145711 190.692105 
L 639.350331 191.02339 
L 639.554951 191.040333 
L 639.96419 190.1581 
L 640.37343 189.489206 
L 640.578049 189.576598 
L 640.987289 189.96727 
L 641.191908 190.008657 
L 641.396528 189.845342 
L 642.215007 188.275804 
L 642.419627 188.59352 
L 643.033486 190.441939 
L 643.238106 190.523103 
L 643.647345 190.219166 
L 643.851965 190.296829 
L 644.465824 191.144934 
L 644.670444 190.879863 
L 645.488923 188.748587 
L 645.693542 188.492337 
L 645.898162 188.432906 
L 646.716641 188.725449 
L 647.12588 188.539828 
L 647.3305 188.733511 
L 647.944359 189.654502 
L 648.558219 189.650207 
L 648.967458 189.480666 
L 649.172078 189.57963 
L 649.376697 190.01911 
L 650.195176 192.989959 
L 650.399796 193.098211 
L 650.604416 192.86945 
L 651.013655 191.750057 
L 651.422895 190.482534 
L 651.627514 190.238501 
L 652.036754 190.458664 
L 652.445993 190.592854 
L 652.855233 190.24832 
L 653.673712 189.234966 
L 653.878331 189.173135 
L 654.287571 189.489348 
L 654.90143 190.155035 
L 655.924529 190.667227 
L 656.129148 190.686437 
L 656.743008 190.191349 
L 656.947627 190.547705 
L 657.356867 191.720883 
L 657.561487 191.829727 
L 658.379965 190.789045 
L 658.584585 190.828098 
L 659.198444 191.485313 
L 659.403064 191.478774 
L 659.607684 191.266176 
L 660.835402 188.874245 
L 661.244642 188.5527 
L 661.653881 188.324082 
L 662.063121 187.954535 
L 662.26774 187.949879 
L 662.881599 188.279279 
L 663.700078 188.021776 
L 663.904698 188.284294 
L 664.313938 189.325098 
L 665.132416 192.593117 
L 665.541656 193.948866 
L 665.746276 194.027074 
L 665.950895 193.537899 
L 666.769374 190.138843 
L 667.178614 189.473054 
L 667.587853 189.366364 
L 667.997093 189.698303 
L 668.406332 190.022957 
L 669.020191 189.865115 
L 669.224811 190.006456 
L 670.04329 191.232291 
L 670.452529 191.354112 
L 671.475628 192.213893 
L 671.680248 192.093993 
L 672.089487 191.481116 
L 672.703346 190.59995 
L 673.112586 190.424427 
L 673.521825 190.385914 
L 673.931065 189.775537 
L 674.340304 189.23445 
L 675.158783 188.743781 
L 675.568023 187.764378 
L 676.181882 186.233786 
L 676.386501 186.252041 
L 676.591121 186.673052 
L 677.000361 188.651366 
L 677.4096 190.58596 
L 677.61422 190.943808 
L 677.81884 190.957607 
L 678.637318 190.401062 
L 679.046558 189.182495 
L 680.069656 185.218231 
L 680.274276 185.50793 
L 680.888135 187.811039 
L 681.092755 187.862344 
L 681.297375 187.34632 
L 682.115854 183.730674 
L 682.320473 183.871862 
L 682.729713 185.643638 
L 683.138952 187.531509 
L 683.548192 188.489006 
L 684.366671 189.194257 
L 684.57129 189.112843 
L 684.77591 188.643617 
L 685.594389 185.51453 
L 686.617488 183.970504 
L 687.026727 183.56267 
L 687.231347 183.069037 
L 687.845206 180.553556 
L 688.049826 180.291971 
L 688.254446 180.578725 
L 688.663685 182.140215 
L 689.072924 183.737403 
L 689.277544 184.1372 
L 689.482164 184.213447 
L 689.686784 184.02324 
L 689.891403 183.546436 
L 690.709882 180.046644 
L 691.323741 179.401428 
L 691.732981 177.812407 
L 693.369939 168.342974 
L 694.188418 161.59274 
L 694.802277 156.246634 
L 695.620756 146.465323 
L 696.439235 132.863853 
L 697.053094 119.087469 
L 698.690052 73.783602 
L 699.099291 68.06007 
L 699.508531 65.149655 
L 699.71315 64.466949 
L 699.91777 64.486252 
L 700.12239 65.314476 
L 700.531629 69.032556 
L 700.940869 75.195703 
L 701.554728 89.403865 
L 702.373207 109.130659 
L 703.805545 134.534619 
L 704.624024 144.955384 
L 705.647122 156.537441 
L 706.260982 160.911515 
L 706.874841 164.04638 
L 707.28408 165.242949 
L 707.897939 166.145523 
L 708.921038 169.153045 
L 709.125658 169.263198 
L 709.534897 169.077648 
L 709.739517 169.192699 
L 710.148756 170.342755 
L 710.557996 171.585977 
L 710.762616 171.864585 
L 710.967235 171.86971 
L 711.376475 171.535068 
L 711.581094 171.560503 
L 711.785714 171.888792 
L 712.194954 173.588701 
L 712.604193 175.501323 
L 713.627292 178.434083 
L 714.036531 179.72381 
L 714.241151 179.770278 
L 714.65039 178.832002 
L 714.85501 178.32767 
L 715.05963 178.1492 
L 715.26425 178.363823 
L 715.673489 179.745933 
L 716.287348 182.680288 
L 716.491968 183.209718 
L 716.696588 183.348695 
L 717.105827 182.845093 
L 717.515067 182.341102 
L 718.128926 181.931495 
L 718.742785 180.562436 
L 718.947405 180.571936 
L 719.356644 181.368922 
L 719.561264 181.783422 
L 719.765883 181.896965 
L 719.970503 181.583711 
L 720.379743 180.116088 
L 721.607461 174.505186 
L 721.812081 174.460779 
L 722.0167 174.919704 
L 722.42594 177.198261 
L 723.039799 181.084631 
L 723.449039 182.489908 
L 723.653658 182.635717 
L 723.858278 182.375499 
L 724.676757 180.592195 
L 724.881377 180.632549 
L 725.085996 181.097028 
L 726.313715 185.209021 
L 726.722954 186.262818 
L 726.927574 186.444343 
L 727.541433 186.317855 
L 727.746053 186.544285 
L 728.564532 188.451158 
L 728.769151 188.320647 
L 729.58763 187.047805 
L 730.20149 186.279337 
L 731.019968 184.528896 
L 731.224588 184.80387 
L 732.043067 187.028126 
L 732.656926 187.348123 
L 733.475405 189.125671 
L 733.884645 189.347601 
L 734.089264 189.269727 
L 734.293884 188.958674 
L 735.112363 186.715641 
L 735.316983 186.778029 
L 735.726222 187.572687 
L 736.135462 188.366348 
L 736.340081 188.375175 
L 736.544701 187.983485 
L 736.953941 185.846055 
L 737.36318 183.768919 
L 737.5678 183.581807 
L 737.772419 183.9429 
L 738.590898 186.333229 
L 739.204758 186.973035 
L 739.613997 188.268566 
L 740.023236 189.767138 
L 740.227856 190.11095 
L 740.432476 190.120446 
L 741.046335 189.503462 
L 741.660194 188.751494 
L 741.864814 188.684659 
L 742.069434 188.824119 
L 742.478673 189.813143 
L 743.501772 193.215672 
L 743.911011 193.754363 
L 744.115631 193.823466 
L 744.320251 193.739879 
L 744.52487 193.468441 
L 745.343349 191.700191 
L 745.547969 191.631801 
L 745.752589 191.803339 
L 746.366448 192.982653 
L 746.571068 193.039928 
L 747.184927 192.413877 
L 747.389547 192.545438 
L 748.003406 193.336087 
L 748.617265 193.714544 
L 748.821885 193.708508 
L 749.026504 193.444558 
L 749.844983 191.382548 
L 750.049603 191.722879 
L 751.072702 195.404586 
L 751.277321 195.266896 
L 751.686561 194.069701 
L 752.50504 191.026731 
L 753.528138 189.103419 
L 753.732758 189.075914 
L 754.141998 189.322137 
L 754.755857 189.118123 
L 755.165096 190.029871 
L 755.369716 190.464041 
L 755.574336 190.581663 
L 755.983575 190.087596 
L 756.392815 189.560255 
L 756.597434 189.48795 
L 756.802054 189.598092 
L 757.620533 190.621419 
L 757.825153 190.467214 
L 758.234392 189.906192 
L 759.257491 189.343694 
L 759.46211 189.481625 
L 760.280589 190.854957 
L 760.689829 190.687669 
L 761.099068 190.430593 
L 761.303688 190.460568 
L 761.712927 190.790423 
L 761.917547 190.730729 
L 762.326787 189.663357 
L 762.736026 188.848372 
L 762.940646 188.89709 
L 763.554505 189.279067 
L 763.963744 189.315319 
L 764.577604 189.530506 
L 764.986843 189.218425 
L 766.009942 189.240714 
L 766.214561 189.547847 
L 766.623801 190.935646 
L 767.03304 192.262311 
L 767.23766 192.430779 
L 767.44228 192.330975 
L 768.056139 191.432906 
L 768.874618 190.017035 
L 769.079238 189.943587 
L 769.693097 190.070866 
L 769.897717 189.853095 
L 770.306956 188.610992 
L 770.716195 187.126666 
L 770.920815 186.737162 
L 771.125435 186.73898 
L 771.330055 187.128297 
L 771.943914 189.171484 
L 772.148534 189.40447 
L 772.353153 189.272477 
L 772.762393 188.715241 
L 772.967012 188.702366 
L 773.171632 189.024492 
L 773.580872 190.119553 
L 773.990111 190.472859 
L 774.60397 191.06734 
L 774.80859 190.865419 
L 775.422449 188.853833 
L 775.627069 188.824684 
L 776.036308 190.117205 
L 776.445548 191.673525 
L 776.854787 192.351483 
L 777.264027 192.259744 
L 777.877886 191.997826 
L 778.491745 191.432578 
L 778.696365 191.060983 
L 779.105604 189.392728 
L 779.514844 187.389455 
L 779.924083 186.573084 
L 780.333323 186.528827 
L 780.537942 186.672578 
L 781.356421 188.040844 
L 781.561041 187.948585 
L 782.1749 186.867618 
L 782.37952 186.867072 
L 782.993379 187.503153 
L 783.402619 187.606945 
L 783.607238 187.966344 
L 784.425717 190.440861 
L 784.630337 190.425808 
L 784.834957 189.98421 
L 786.471914 184.166739 
L 786.676534 184.326887 
L 787.290393 186.240332 
L 787.495013 186.267188 
L 788.313492 184.942479 
L 788.518112 185.221545 
L 789.54121 188.554463 
L 789.74583 188.676588 
L 790.15507 188.646969 
L 790.359689 188.795388 
L 791.382788 190.430981 
L 791.587408 190.49805 
L 791.792027 190.41073 
L 792.201267 189.711996 
L 792.815126 188.632909 
L 793.224365 188.332281 
L 793.428985 188.316249 
L 793.633605 188.511944 
L 794.042844 189.168461 
L 794.247464 189.251214 
L 795.475182 188.382666 
L 795.679802 188.395617 
L 795.884422 188.788487 
L 796.498281 191.096959 
L 796.702901 191.382354 
L 796.90752 191.423835 
L 797.11214 191.33206 
L 797.52138 190.663709 
L 797.725999 190.292794 
L 797.930619 190.165404 
L 798.339859 190.497115 
L 799.158337 191.353475 
L 799.362957 191.466029 
L 799.567577 191.423298 
L 799.976816 191.032353 
L 800.181436 191.073855 
L 800.386056 191.441796 
L 800.999915 193.001068 
L 801.204535 192.860797 
L 801.613774 191.376773 
L 802.227633 189.061969 
L 802.432253 188.784703 
L 802.636873 188.782017 
L 802.841493 189.018767 
L 803.455352 190.226794 
L 803.659971 190.198323 
L 803.864591 189.762959 
L 804.68307 187.267051 
L 804.88769 187.07969 
L 805.910788 187.035515 
L 806.115408 187.431459 
L 806.933887 190.918219 
L 807.138507 190.910921 
L 807.547746 189.750288 
L 807.956986 188.513579 
L 808.161605 188.295631 
L 808.775465 188.475282 
L 809.389324 187.525188 
L 809.593944 187.606537 
L 809.798563 188.193349 
L 811.026282 194.195934 
L 811.844761 195.098508 
L 812.04938 195.174619 
L 812.254 194.960633 
L 812.663239 193.610737 
L 813.277099 190.940333 
L 813.890958 189.137531 
L 814.095578 188.772176 
L 814.300197 188.687796 
L 814.504817 188.885286 
L 815.118676 190.105062 
L 815.527916 190.926396 
L 815.732535 191.084417 
L 815.937155 190.904047 
L 816.346395 189.510979 
L 816.755634 187.946903 
L 816.960254 187.570469 
L 817.164873 187.477477 
L 817.574113 187.495957 
L 817.778733 187.290554 
L 818.801831 185.340636 
L 819.006451 185.353336 
L 819.211071 185.599999 
L 819.62031 186.796941 
L 820.438789 189.818007 
L 820.643409 190.115378 
L 820.848029 190.05789 
L 821.052648 189.633495 
L 821.871127 186.611932 
L 822.075747 186.408559 
L 822.484986 186.366 
L 823.303465 185.32841 
L 823.712705 185.067687 
L 824.121944 184.634071 
L 824.940423 184.157221 
L 825.758902 182.582846 
L 825.963522 182.557157 
L 826.372761 183.017078 
L 826.782001 183.646035 
L 826.98662 183.716015 
L 827.19124 183.409881 
L 828.009719 180.803339 
L 828.214339 180.698083 
L 828.418958 180.945913 
L 829.032818 182.344874 
L 829.646677 183.306931 
L 830.055916 183.92767 
L 830.260536 184.06305 
L 830.465156 184.059875 
L 831.692874 183.331242 
L 831.897494 183.366401 
L 832.306733 183.961383 
L 832.715973 184.596725 
L 832.920592 184.613233 
L 833.329832 184.085418 
L 834.55755 181.862258 
L 834.76217 181.861593 
L 835.171409 182.281737 
L 835.580649 183.005851 
L 836.603747 185.802513 
L 836.808367 185.862303 
L 837.012987 185.489892 
L 837.422226 183.533198 
L 838.036086 180.372418 
L 838.445325 179.662004 
L 838.649945 179.744072 
L 839.059184 180.701154 
L 839.673043 183.341724 
L 840.082283 184.911382 
L 840.286903 185.25053 
L 840.491522 185.255479 
L 840.900762 184.730742 
L 841.719241 182.899955 
L 842.3331 181.574758 
L 842.53772 181.442311 
L 842.742339 181.585096 
L 843.356198 182.3161 
L 843.560818 182.329183 
L 844.583917 181.680741 
L 844.993156 181.794705 
L 845.197776 181.727143 
L 845.607015 181.142951 
L 846.016255 180.529706 
L 846.220875 180.679222 
L 847.243973 182.970122 
L 848.062452 182.398473 
L 848.471692 181.263097 
L 848.880931 180.32448 
L 849.085551 180.240312 
L 849.69941 180.339205 
L 850.722509 179.310301 
L 851.131748 177.734575 
L 851.745607 174.802305 
L 852.154847 173.930529 
L 852.564086 173.482426 
L 852.768706 173.410687 
L 852.973326 173.707181 
L 853.791805 176.687526 
L 853.996424 176.893215 
L 854.201044 176.896447 
L 854.405664 176.715762 
L 854.814903 175.710978 
L 855.428762 173.668162 
L 855.633382 173.312659 
L 856.247241 173.0099 
L 856.451861 172.6097 
L 857.27034 169.904524 
L 857.47496 169.880544 
L 857.679579 170.262272 
L 858.498058 172.845629 
L 858.702678 172.903679 
L 859.316537 172.610427 
L 859.725777 172.561839 
L 859.930396 172.352619 
L 860.339636 171.260061 
L 860.953495 168.835637 
L 861.158115 168.765058 
L 861.567354 169.787616 
L 862.795073 173.272373 
L 863.408932 175.769924 
L 863.818171 176.425568 
L 864.022791 176.416058 
L 864.84127 175.782928 
L 865.250509 175.048743 
L 865.659749 173.865062 
L 866.273608 171.401595 
L 866.478228 171.119808 
L 866.682847 171.170625 
L 867.092087 171.824397 
L 867.705946 172.987504 
L 867.910566 173.01727 
L 868.319805 172.323291 
L 869.342904 170.16723 
L 869.547524 170.145021 
L 869.956763 170.743737 
L 870.366002 171.918098 
L 870.979862 174.187689 
L 871.184481 174.386203 
L 871.389101 174.241915 
L 871.798341 173.416724 
L 872.20758 171.875925 
L 872.616819 170.356962 
L 872.821439 170.073179 
L 873.026059 170.200191 
L 873.844538 172.207781 
L 874.049157 171.943349 
L 874.458397 170.223231 
L 875.276876 166.900253 
L 875.686115 165.924844 
L 875.890735 165.868698 
L 876.504594 166.15387 
L 876.709214 166.387819 
L 877.323073 167.664368 
L 877.527693 167.721775 
L 877.732313 167.448787 
L 878.141552 166.31527 
L 879.36927 162.186078 
L 879.57389 161.972399 
L 879.98313 162.030126 
L 880.392369 162.2242 
L 881.006228 162.736185 
L 881.210848 162.370604 
L 881.620087 160.3782 
L 882.438566 155.821279 
L 883.052425 153.306784 
L 883.461665 152.231984 
L 883.666285 151.890353 
L 883.870904 151.820446 
L 884.075524 152.14521 
L 884.689383 153.726428 
L 885.917102 154.572971 
L 886.121721 154.271384 
L 886.530961 152.901902 
L 887.14482 150.180047 
L 887.34944 149.737037 
L 887.554059 149.735028 
L 887.963299 150.664204 
L 888.372538 151.698051 
L 888.577158 151.903292 
L 888.781778 151.740071 
L 889.600257 149.695848 
L 889.804876 149.52853 
L 890.009496 149.213564 
L 890.214116 148.518348 
L 890.623355 145.874265 
L 891.032595 143.022196 
L 891.441834 141.532034 
L 891.851074 141.126996 
L 892.260313 140.789143 
L 892.669553 139.865783 
L 893.078792 138.794248 
L 893.283412 138.512784 
L 893.692651 138.5025 
L 894.101891 138.495003 
L 894.30651 138.286461 
L 894.71575 137.239059 
L 895.738849 133.201301 
L 896.761947 127.888424 
L 897.171187 127.522778 
L 897.375806 127.325381 
L 897.580426 126.850912 
L 900.240483 116.235255 
L 901.468201 109.390319 
L 901.672821 108.962768 
L 901.87744 108.844846 
L 902.4913 109.038553 
L 902.695919 108.798129 
L 903.309778 107.299527 
L 903.514398 107.132668 
L 903.719018 107.235289 
L 904.332877 108.011385 
L 904.742117 107.884019 
L 905.151356 107.745258 
L 905.355976 107.776975 
L 905.560595 108.028236 
L 906.379074 110.091968 
L 906.583694 109.813422 
L 908.016032 105.253351 
L 908.425272 104.251736 
L 908.629891 103.962732 
L 908.834511 103.883999 
L 909.039131 104.120965 
L 909.85761 106.616613 
L 910.062229 106.569466 
L 910.676089 105.946821 
L 911.085328 105.277339 
L 911.494567 104.031349 
L 912.108427 101.793668 
L 912.313046 101.560284 
L 912.926906 101.658514 
L 913.131525 101.814945 
L 913.336145 102.218789 
L 914.154624 104.668011 
L 914.359244 104.704445 
L 914.563863 104.458953 
L 914.973103 103.482822 
L 915.382342 101.941462 
L 915.996201 99.545115 
L 916.200821 99.299053 
L 916.405441 99.717272 
L 916.610061 101.060482 
L 917.42854 108.792111 
L 917.633159 108.735974 
L 917.837779 107.513565 
L 918.860878 96.511517 
L 919.270117 91.233081 
L 919.679357 82.38462 
L 920.088596 66.781898 
L 920.497835 50.322745 
L 920.702455 48.093907 
L 920.907075 51.780844 
L 922.134793 94.68945 
L 922.748652 106.134123 
L 923.157892 111.229975 
L 923.567131 113.753099 
L 923.976371 114.46636 
L 924.59023 114.737439 
L 924.79485 114.45744 
L 925.613329 111.831606 
L 925.817948 111.847267 
L 926.431808 112.397531 
L 926.636427 112.315022 
L 927.659526 111.277387 
L 928.273385 111.338134 
L 929.091864 110.634584 
L 929.296484 110.952609 
L 930.114963 112.825781 
L 930.319582 112.709422 
L 930.728822 111.581063 
L 931.75192 107.832666 
L 931.95654 107.597004 
L 932.16116 107.787564 
L 932.570399 109.37314 
L 933.388878 113.337017 
L 934.002737 114.968686 
L 934.821216 116.763345 
L 935.025836 116.905555 
L 935.435076 116.871018 
L 935.639695 117.009073 
L 936.048935 117.904028 
L 936.867414 120.705749 
L 938.299752 125.892708 
L 940.345949 130.245891 
L 940.550569 130.142495 
L 941.369048 129.152297 
L 941.573667 129.395821 
L 941.778287 130.011388 
L 942.187527 132.608871 
L 943.824484 146.379453 
L 944.029104 146.863799 
L 944.233724 146.993235 
L 944.847583 146.956372 
L 945.256822 147.441274 
L 945.666062 147.986911 
L 945.870682 147.994998 
L 946.689161 147.383255 
L 946.89378 147.535539 
L 947.30302 148.33778 
L 947.916879 150.545383 
L 948.939978 154.476537 
L 949.144597 154.56589 
L 949.963076 154.249848 
L 950.576935 155.202809 
L 950.781555 155.240298 
L 950.986175 155.420357 
L 951.190794 156.070016 
L 952.009273 160.129874 
L 952.213893 160.511488 
L 952.827752 160.981362 
L 954.055471 164.093365 
L 954.66933 166.45791 
L 954.87395 166.58167 
L 955.078569 166.315343 
L 955.487809 165.013531 
L 956.101668 162.756962 
L 956.306288 162.718685 
L 956.510907 163.147242 
L 957.329386 165.715095 
L 958.352485 167.865059 
L 958.761724 168.368798 
L 959.170964 169.056047 
L 959.580203 170.267559 
L 959.989443 171.2749 
L 960.603302 171.440707 
L 961.217161 172.284907 
L 961.421781 172.377876 
L 962.03564 172.293888 
L 962.444879 172.854629 
L 963.058739 173.770396 
L 963.263358 173.815508 
L 963.672598 173.655406 
L 963.877218 173.879916 
L 964.286457 175.316582 
L 964.900316 178.037887 
L 965.104936 178.548641 
L 965.309556 178.643925 
L 965.514175 178.344879 
L 966.128035 176.839459 
L 966.332654 176.770739 
L 966.537274 176.996595 
L 967.560373 178.873349 
L 967.969612 179.38707 
L 968.378852 180.19963 
L 968.788091 181.120841 
L 968.992711 181.195522 
L 969.19733 180.833298 
L 970.425049 177.175053 
L 970.629669 177.034375 
L 970.834288 177.295499 
L 971.243528 178.822051 
L 971.857387 180.970248 
L 973.289725 183.880587 
L 973.494345 183.973362 
L 973.698964 183.895305 
L 974.108204 183.220653 
L 974.312824 182.859998 
L 974.517443 182.764909 
L 974.722063 183.04192 
L 975.131303 184.194604 
L 975.335922 184.416017 
L 975.540542 184.16877 
L 976.359021 182.397113 
L 977.38212 181.404412 
L 977.791359 181.658809 
L 979.632937 183.4854 
L 980.451415 184.876414 
L 981.065275 184.868957 
L 981.679134 185.60753 
L 981.883754 185.529152 
L 982.292993 184.223593 
L 982.497613 183.627335 
L 982.702232 183.482902 
L 983.520711 184.330658 
L 984.134571 184.378578 
L 984.33919 184.015068 
L 984.74843 181.961293 
L 985.362289 178.029093 
L 985.566909 177.609403 
L 985.771528 177.839012 
L 986.999247 181.837888 
L 987.817726 182.499727 
L 988.226965 183.035739 
L 988.636204 183.689008 
L 988.840824 183.719537 
L 989.045444 183.268287 
L 989.659303 180.397636 
L 989.863923 180.064467 
L 990.068543 180.115188 
L 990.682402 180.673322 
L 990.887021 180.591409 
L 991.500881 179.709532 
L 991.7055 179.743855 
L 992.11474 180.651432 
L 992.728599 182.734598 
L 993.547078 185.900188 
L 993.751698 186.216828 
L 994.570177 186.489899 
L 995.184036 187.268984 
L 995.388655 187.290538 
L 995.593275 187.154449 
L 996.002515 186.306261 
L 996.820994 183.857124 
L 997.025613 183.723173 
L 997.230233 183.959557 
L 997.639472 185.317872 
L 998.048712 186.920371 
L 998.253332 187.395004 
L 998.457951 187.486932 
L 998.662571 187.220264 
L 999.48105 185.160665 
L 999.68567 185.174127 
L 1000.094909 185.766327 
L 1000.299529 185.853378 
L 1000.504149 185.607216 
L 1001.731867 182.361651 
L 1001.936487 182.149043 
L 1002.141106 182.11097 
L 1002.345726 182.233339 
L 1002.754966 182.857125 
L 1003.368825 184.396199 
L 1003.982684 186.586608 
L 1004.187304 186.716301 
L 1005.005783 185.667193 
L 1005.619642 185.369842 
L 1006.028881 185.862353 
L 1006.438121 186.779423 
L 1007.2566 189.911749 
L 1007.461219 190.122489 
L 1007.665839 189.97421 
L 1008.688938 188.087052 
L 1009.302797 188.098716 
L 1009.712036 188.310794 
L 1010.121276 188.838409 
L 1011.144374 190.578591 
L 1011.348994 190.574526 
L 1011.758234 189.701329 
L 1012.781332 187.140628 
L 1013.599811 185.959671 
L 1014.009051 185.161998 
L 1014.21367 185.071544 
L 1014.41829 185.232226 
L 1014.82753 186.020932 
L 1015.646008 187.981775 
L 1016.259868 188.733823 
L 1016.464487 188.744063 
L 1016.669107 188.492289 
L 1017.078347 187.400361 
L 1017.896825 184.118924 
L 1018.101445 183.800002 
L 1018.510685 183.72869 
L 1018.715304 183.765214 
L 1018.919924 183.977616 
L 1019.943023 186.016257 
L 1020.147642 186.26674 
L 1020.352262 186.312166 
L 1020.556882 186.022246 
L 1021.579981 183.346092 
L 1021.7846 183.383303 
L 1021.98922 183.585923 
L 1022.19384 183.981531 
L 1022.603079 185.652614 
L 1023.216938 189.073819 
L 1023.626178 190.122088 
L 1024.035417 190.490179 
L 1024.240037 190.384126 
L 1025.058516 189.221729 
L 1025.467755 188.542641 
L 1026.081615 187.338565 
L 1026.286234 187.369247 
L 1026.490854 187.815935 
L 1027.104713 190.41079 
L 1027.718572 192.633724 
L 1028.741671 194.566032 
L 1029.76477 194.813712 
L 1030.174009 194.201757 
L 1030.583248 193.151506 
L 1030.992488 191.425293 
L 1031.606347 188.461884 
L 1032.220206 186.736511 
L 1032.424826 186.610693 
L 1032.629446 186.814385 
L 1033.038685 187.492738 
L 1033.652544 187.865982 
L 1034.266404 188.676063 
L 1034.471023 188.764753 
L 1034.675643 188.626469 
L 1035.084882 187.506986 
L 1035.494122 186.394139 
L 1035.698742 186.156098 
L 1035.903361 186.170957 
L 1036.72184 187.183663 
L 1036.92646 187.459492 
L 1037.335699 188.831145 
L 1038.154178 192.72752 
L 1038.358798 192.956992 
L 1038.563418 192.738255 
L 1039.995756 189.451841 
L 1040.609615 188.856978 
L 1041.018855 188.057503 
L 1041.428094 187.03063 
L 1041.632714 186.798377 
L 1041.837333 186.801284 
L 1042.041953 186.98989 
L 1042.860432 188.329239 
L 1043.065052 188.26038 
L 1043.678911 187.475529 
L 1043.883531 187.498385 
L 1044.29277 188.383218 
L 1044.906629 189.577064 
L 1045.111249 189.742214 
L 1045.315869 189.617757 
L 1045.929728 188.632123 
L 1046.338967 188.4299 
L 1046.543587 188.505303 
L 1046.952827 189.135053 
L 1047.362066 189.732281 
L 1047.566686 189.709432 
L 1047.975925 189.107265 
L 1050.022123 185.703658 
L 1050.226742 185.821878 
L 1050.635982 186.518588 
L 1051.045221 188.034473 
L 1052.06832 192.686181 
L 1052.27294 193.18766 
L 1052.477559 193.19024 
L 1052.682179 192.694031 
L 1053.500658 189.432302 
L 1053.705278 189.111254 
L 1053.909897 189.007639 
L 1054.114517 189.139053 
L 1054.319137 189.615996 
L 1055.137616 192.777818 
L 1055.342235 192.823442 
L 1055.956095 192.288777 
L 1056.160714 192.278265 
L 1056.365334 192.107444 
L 1056.979193 190.920613 
L 1058.002292 190.332657 
L 1058.206912 190.428264 
L 1058.616151 191.051878 
L 1059.025391 191.926942 
L 1059.43463 192.958051 
L 1059.63925 193.160494 
L 1059.843869 193.045826 
L 1060.866968 191.466938 
L 1061.276208 191.159846 
L 1061.890067 190.452231 
L 1062.708546 190.082136 
L 1063.527025 189.318989 
L 1064.140884 189.628981 
L 1064.550123 189.673842 
L 1065.573222 189.226562 
L 1065.982461 189.263265 
L 1066.59632 189.702588 
L 1066.80094 189.590501 
L 1067.21018 188.879709 
L 1067.619419 188.024486 
L 1068.028658 187.752072 
L 1068.437898 187.740934 
L 1068.642518 187.601302 
L 1069.256377 186.590593 
L 1069.870236 185.116388 
L 1070.279475 184.354748 
L 1070.484095 184.476577 
L 1070.893335 185.689022 
L 1071.302574 187.0225 
L 1071.711814 187.564178 
L 1071.916433 187.757409 
L 1072.121053 188.117405 
L 1072.530292 189.521011 
L 1073.553391 194.464391 
L 1073.758011 194.348973 
L 1074.37187 192.691092 
L 1074.57649 192.549915 
L 1074.985729 192.561014 
L 1075.394969 192.308396 
L 1075.804208 191.743958 
L 1076.213448 190.52564 
L 1077.031926 187.093255 
L 1077.236546 186.964906 
L 1077.441166 187.253408 
L 1077.850405 188.165217 
L 1078.055025 188.370004 
L 1078.464265 188.350251 
L 1078.668884 188.600075 
L 1079.691983 191.271825 
L 1080.510462 192.178241 
L 1080.715082 192.137421 
L 1081.124321 191.442602 
L 1081.73818 190.12431 
L 1082.14742 189.071885 
L 1082.556659 188.688643 
L 1083.170518 188.373914 
L 1083.784377 187.94264 
L 1084.193617 187.979648 
L 1085.421335 188.542587 
L 1085.625955 188.548005 
L 1085.830575 188.36285 
L 1086.239814 187.19282 
L 1086.853673 185.13992 
L 1087.058293 184.982575 
L 1087.262913 185.217316 
L 1087.672152 186.511158 
L 1088.695251 190.539779 
L 1089.10449 190.983223 
L 1089.71835 191.317631 
L 1090.127589 191.545541 
L 1090.741448 191.00935 
L 1091.150688 190.93624 
L 1091.355307 190.633024 
L 1092.378406 187.842954 
L 1092.992265 187.345168 
L 1093.401505 187.378448 
L 1093.810744 187.402232 
L 1094.424603 187.054958 
L 1094.629223 187.135737 
L 1095.038462 187.776681 
L 1096.061561 190.220524 
L 1096.266181 190.419949 
L 1096.470801 190.341118 
L 1096.88004 189.570465 
L 1099.130857 184.843331 
L 1099.540096 184.574199 
L 1099.744716 184.707735 
L 1099.949336 185.081302 
L 1100.358575 186.504637 
L 1100.972435 188.952329 
L 1101.177054 189.17974 
L 1101.586294 189.235657 
L 1101.995533 189.825608 
L 1102.609392 190.679312 
L 1103.223252 191.266515 
L 1103.427871 191.419204 
L 1103.632491 191.760964 
L 1104.04173 193.321844 
L 1104.45097 194.766608 
L 1104.65559 194.635951 
L 1105.064829 192.735472 
L 1105.474068 190.845319 
L 1105.678688 190.603329 
L 1106.087928 191.091071 
L 1106.497167 191.458632 
L 1106.701787 191.248272 
L 1107.111026 189.495928 
L 1107.520266 187.643278 
L 1107.929505 186.993981 
L 1108.134125 186.999912 
L 1108.338745 187.319562 
L 1109.361843 190.194719 
L 1109.566463 190.383126 
L 1109.975702 190.307264 
L 1110.180322 190.233467 
L 1110.384942 190.301146 
L 1111.203421 191.3749 
L 1111.408041 191.160153 
L 1111.81728 190.440948 
L 1112.0219 190.268194 
L 1112.226519 190.272249 
L 1112.431139 190.423959 
L 1112.840379 191.164355 
L 1113.454238 192.281771 
L 1113.863477 192.582602 
L 1114.068097 192.544208 
L 1114.681956 192.195873 
L 1115.091196 192.409833 
L 1115.500435 192.743446 
L 1115.705055 192.743823 
L 1115.909675 192.567705 
L 1117.342013 190.3154 
L 1117.955872 189.921394 
L 1118.160492 189.366702 
L 1118.774351 186.778973 
L 1119.18359 186.201773 
L 1119.797449 185.839351 
L 1120.206689 186.059515 
L 1120.411309 186.180899 
L 1120.615928 186.117503 
L 1121.229787 185.382752 
L 1121.434407 185.510421 
L 1121.843647 186.060052 
L 1122.048266 186.174315 
L 1122.457506 186.038352 
L 1123.071365 185.554691 
L 1123.275985 185.621037 
L 1123.685224 186.508214 
L 1124.094464 187.530643 
L 1124.299083 187.77116 
L 1124.708323 187.787161 
L 1124.912943 187.761815 
L 1125.731421 188.120442 
L 1126.345281 187.881666 
L 1126.5499 187.940859 
L 1126.95914 188.401599 
L 1127.572999 189.14188 
L 1128.391478 189.938623 
L 1129.209957 191.593953 
L 1129.823816 192.108589 
L 1130.233055 192.753269 
L 1130.437675 192.806186 
L 1130.846915 192.165596 
L 1131.256154 191.416063 
L 1131.665394 191.054039 
L 1131.870013 191.095805 
L 1132.688492 192.039032 
L 1132.893112 191.763298 
L 1133.506971 190.278789 
L 1134.32545 189.239548 
L 1134.734689 189.102733 
L 1135.143929 189.305565 
L 1135.553168 189.787359 
L 1136.167028 190.997371 
L 1136.371647 191.023074 
L 1137.394746 189.884105 
L 1137.599366 189.93449 
L 1138.008605 190.532318 
L 1139.440943 192.883627 
L 1139.645563 192.8265 
L 1140.054802 191.990101 
L 1140.668662 190.184219 
L 1140.873281 190.025177 
L 1141.077901 190.169297 
L 1141.48714 191.007506 
L 1142.510239 193.922462 
L 1142.714859 193.970301 
L 1142.919478 193.763529 
L 1143.737957 192.134088 
L 1143.942577 192.054343 
L 1144.147197 192.192015 
L 1145.579535 194.149549 
L 1145.784155 194.334192 
L 1145.988774 194.27713 
L 1146.602634 193.654381 
L 1147.216493 193.759303 
L 1147.830352 193.860906 
L 1148.239591 193.853786 
L 1148.853451 193.499456 
L 1149.26269 193.493231 
L 1149.46731 193.188645 
L 1150.285789 191.095806 
L 1150.490408 191.0332 
L 1150.695028 191.118073 
L 1151.104268 191.629709 
L 1151.513507 192.322596 
L 1151.718127 192.447561 
L 1151.922746 192.228806 
L 1152.741225 190.322279 
L 1152.945845 190.209375 
L 1153.355085 190.421907 
L 1153.559704 190.305718 
L 1153.968944 189.559175 
L 1154.173563 189.534319 
L 1154.582803 190.408281 
L 1155.196662 191.602998 
L 1155.605902 191.893297 
L 1155.810521 191.756978 
L 1156.219761 191.031824 
L 1156.83362 189.410213 
L 1157.856719 185.860167 
L 1158.061338 185.86312 
L 1158.470578 186.392622 
L 1159.084437 187.232503 
L 1159.289057 187.488496 
L 1159.698296 188.650025 
L 1160.312155 190.967316 
L 1160.516775 191.137962 
L 1160.926014 190.535229 
L 1161.335254 190.064858 
L 1161.949113 189.439378 
L 1162.358353 188.749733 
L 1163.790691 184.56826 
L 1163.99531 184.474193 
L 1164.40455 184.932898 
L 1165.223029 186.345812 
L 1165.427648 186.294121 
L 1165.836888 186.057668 
L 1166.246127 186.532604 
L 1166.655367 186.952464 
L 1167.064606 187.401649 
L 1168.292325 189.710425 
L 1168.496944 189.868892 
L 1168.701564 189.62379 
L 1169.315423 188.083057 
L 1169.520043 188.104005 
L 1170.747761 190.09219 
L 1170.952381 190.240516 
L 1171.157001 190.147839 
L 1171.56624 189.140238 
L 1171.97548 187.90808 
L 1172.180099 187.608986 
L 1172.384719 187.590205 
L 1172.793959 188.126478 
L 1173.407818 189.095632 
L 1173.612438 189.322378 
L 1173.817057 189.722225 
L 1174.226297 191.29541 
L 1175.249395 195.713407 
L 1175.454015 195.734736 
L 1175.658635 195.280145 
L 1176.067874 193.403873 
L 1176.477114 191.42087 
L 1176.886353 190.359462 
L 1177.295593 189.863286 
L 1177.704832 189.889692 
L 1178.114072 190.319955 
L 1179.13717 192.023761 
L 1179.34179 191.811023 
L 1180.160269 189.812295 
L 1180.364889 189.772096 
L 1180.774128 190.233881 
L 1181.183367 190.679026 
L 1181.592607 190.736206 
L 1182.001846 190.405577 
L 1182.411086 190.052628 
L 1182.820325 189.829377 
L 1183.229565 189.1156 
L 1183.843424 187.278465 
L 1184.661903 184.715046 
L 1184.866522 184.480991 
L 1184.866522 184.480991 
" clip-path="url(#p5ad16ee279)" style="fill: none; stroke: #000000; stroke-width: 2; stroke-linecap: square"/>
   </g>
   <g id="patch_3">
    <path d="M 3.00024 198.907885 
L 1184.99976 198.907885 
" style="fill: none; stroke: #000000; stroke-width: 2; stroke-linejoin: miter; stroke-linecap: square"/>
   </g>
  </g>
 </g>
 <defs>
  <clipPath id="p5ad16ee279">
   <rect x="3.00024" y="3.00024" width="1181.99952" height="195.907645"/>
  </clipPath>
 </defs>
</svg>
