<?xml version="1.0" encoding="utf-8" standalone="no"?>
<!DOCTYPE svg PUBLIC "-//W3C//DTD SVG 1.1//EN"
  "http://www.w3.org/Graphics/SVG/1.1/DTD/svg11.dtd">
<svg xmlns:xlink="http://www.w3.org/1999/xlink" width="1188pt" height="252pt" viewBox="0 0 1188 252" xmlns="http://www.w3.org/2000/svg" version="1.1">
 <metadata>
  <rdf:RDF xmlns:dc="http://purl.org/dc/elements/1.1/" xmlns:cc="http://creativecommons.org/ns#" xmlns:rdf="http://www.w3.org/1999/02/22-rdf-syntax-ns#">
   <cc:Work>
    <dc:type rdf:resource="http://purl.org/dc/dcmitype/StillImage"/>
    <dc:date>2024-05-13T15:45:19.290960</dc:date>
    <dc:format>image/svg+xml</dc:format>
    <dc:creator>
     <cc:Agent>
      <dc:title>Matplotlib v3.8.0, https://matplotlib.org/</dc:title>
     </cc:Agent>
    </dc:creator>
   </cc:Work>
  </rdf:RDF>
 </metadata>
 <defs>
  <style type="text/css">*{stroke-linejoin: round; stroke-linecap: butt}</style>
 </defs>
 <g id="figure_1">
  <g id="patch_1">
   <path d="M 0 252 
L 1188 252 
L 1188 0 
L 0 0 
z
" style="fill: #ffffff"/>
  </g>
  <g id="axes_1">
   <g id="patch_2">
    <path d="M 3.00024 198.907885 
L 1184.99976 198.907885 
L 1184.99976 3.00024 
L 3.00024 3.00024 
z
" style="fill: #ffffff"/>
   </g>
   <g id="matplotlib.axis_1">
    <g id="xtick_1">
     <g id="line2d_1">
      <defs>
       <path id="mdb24bedd8e" d="M 0 0 
L 0 8 
" style="stroke: #000000; stroke-width: 2"/>
      </defs>
      <g>
       <use xlink:href="#mdb24bedd8e" x="1131.272509" y="198.907885" style="stroke: #000000; stroke-width: 2"/>
      </g>
     </g>
     <g id="text_1">
      <!-- 0 -->
      <g transform="translate(1126.267665 224.791947) scale(0.18 -0.18)">
       <defs>
        <path id="Arial-BoldMT-30" d="M 1756 4600 
Q 2422 4600 2797 4125 
Q 3244 3563 3244 2259 
Q 3244 959 2794 391 
Q 2422 -78 1756 -78 
Q 1088 -78 678 436 
Q 269 950 269 2269 
Q 269 3563 719 4131 
Q 1091 4600 1756 4600 
z
M 1756 3872 
Q 1597 3872 1472 3770 
Q 1347 3669 1278 3406 
Q 1188 3066 1188 2259 
Q 1188 1453 1269 1151 
Q 1350 850 1473 750 
Q 1597 650 1756 650 
Q 1916 650 2041 751 
Q 2166 853 2234 1116 
Q 2325 1453 2325 2259 
Q 2325 3066 2244 3367 
Q 2163 3669 2039 3770 
Q 1916 3872 1756 3872 
z
" transform="scale(0.015625)"/>
       </defs>
       <use xlink:href="#Arial-BoldMT-30"/>
      </g>
     </g>
    </g>
    <g id="xtick_2">
     <g id="line2d_2">
      <g>
       <use xlink:href="#mdb24bedd8e" x="1023.818007" y="198.907885" style="stroke: #000000; stroke-width: 2"/>
      </g>
     </g>
     <g id="text_2">
      <!-- 1 -->
      <g transform="translate(1018.813164 224.791947) scale(0.18 -0.18)">
       <defs>
        <path id="Arial-BoldMT-31" d="M 2519 0 
L 1641 0 
L 1641 3309 
Q 1159 2859 506 2644 
L 506 3441 
Q 850 3553 1253 3867 
Q 1656 4181 1806 4600 
L 2519 4600 
L 2519 0 
z
" transform="scale(0.015625)"/>
       </defs>
       <use xlink:href="#Arial-BoldMT-31"/>
      </g>
     </g>
    </g>
    <g id="xtick_3">
     <g id="line2d_3">
      <g>
       <use xlink:href="#mdb24bedd8e" x="916.363505" y="198.907885" style="stroke: #000000; stroke-width: 2"/>
      </g>
     </g>
     <g id="text_3">
      <!-- 2 -->
      <g transform="translate(911.358662 224.791947) scale(0.18 -0.18)">
       <defs>
        <path id="Arial-BoldMT-32" d="M 3238 816 
L 3238 0 
L 159 0 
Q 209 463 459 877 
Q 709 1291 1447 1975 
Q 2041 2528 2175 2725 
Q 2356 2997 2356 3263 
Q 2356 3556 2198 3714 
Q 2041 3872 1763 3872 
Q 1488 3872 1325 3706 
Q 1163 3541 1138 3156 
L 263 3244 
Q 341 3969 753 4284 
Q 1166 4600 1784 4600 
Q 2463 4600 2850 4234 
Q 3238 3869 3238 3325 
Q 3238 3016 3127 2736 
Q 3016 2456 2775 2150 
Q 2616 1947 2200 1565 
Q 1784 1184 1673 1059 
Q 1563 934 1494 816 
L 3238 816 
z
" transform="scale(0.015625)"/>
       </defs>
       <use xlink:href="#Arial-BoldMT-32"/>
      </g>
     </g>
    </g>
    <g id="xtick_4">
     <g id="line2d_4">
      <g>
       <use xlink:href="#mdb24bedd8e" x="808.909004" y="198.907885" style="stroke: #000000; stroke-width: 2"/>
      </g>
     </g>
     <g id="text_4">
      <!-- 3 -->
      <g transform="translate(803.90416 224.791947) scale(0.18 -0.18)">
       <defs>
        <path id="Arial-BoldMT-33" d="M 241 1216 
L 1091 1319 
Q 1131 994 1309 822 
Q 1488 650 1741 650 
Q 2013 650 2198 856 
Q 2384 1063 2384 1413 
Q 2384 1744 2206 1937 
Q 2028 2131 1772 2131 
Q 1603 2131 1369 2066 
L 1466 2781 
Q 1822 2772 2009 2936 
Q 2197 3100 2197 3372 
Q 2197 3603 2059 3740 
Q 1922 3878 1694 3878 
Q 1469 3878 1309 3722 
Q 1150 3566 1116 3266 
L 306 3403 
Q 391 3819 561 4067 
Q 731 4316 1036 4458 
Q 1341 4600 1719 4600 
Q 2366 4600 2756 4188 
Q 3078 3850 3078 3425 
Q 3078 2822 2419 2463 
Q 2813 2378 3048 2084 
Q 3284 1791 3284 1375 
Q 3284 772 2843 347 
Q 2403 -78 1747 -78 
Q 1125 -78 715 280 
Q 306 638 241 1216 
z
" transform="scale(0.015625)"/>
       </defs>
       <use xlink:href="#Arial-BoldMT-33"/>
      </g>
     </g>
    </g>
    <g id="xtick_5">
     <g id="line2d_5">
      <g>
       <use xlink:href="#mdb24bedd8e" x="701.454502" y="198.907885" style="stroke: #000000; stroke-width: 2"/>
      </g>
     </g>
     <g id="text_5">
      <!-- 4 -->
      <g transform="translate(696.449658 224.791947) scale(0.18 -0.18)">
       <defs>
        <path id="Arial-BoldMT-34" d="M 1994 0 
L 1994 922 
L 119 922 
L 119 1691 
L 2106 4600 
L 2844 4600 
L 2844 1694 
L 3413 1694 
L 3413 922 
L 2844 922 
L 2844 0 
L 1994 0 
z
M 1994 1694 
L 1994 3259 
L 941 1694 
L 1994 1694 
z
" transform="scale(0.015625)"/>
       </defs>
       <use xlink:href="#Arial-BoldMT-34"/>
      </g>
     </g>
    </g>
    <g id="xtick_6">
     <g id="line2d_6">
      <g>
       <use xlink:href="#mdb24bedd8e" x="594" y="198.907885" style="stroke: #000000; stroke-width: 2"/>
      </g>
     </g>
     <g id="text_6">
      <!-- 5 -->
      <g transform="translate(588.995156 224.791947) scale(0.18 -0.18)">
       <defs>
        <path id="Arial-BoldMT-35" d="M 284 1178 
L 1159 1269 
Q 1197 972 1381 798 
Q 1566 625 1806 625 
Q 2081 625 2272 848 
Q 2463 1072 2463 1522 
Q 2463 1944 2273 2155 
Q 2084 2366 1781 2366 
Q 1403 2366 1103 2031 
L 391 2134 
L 841 4519 
L 3163 4519 
L 3163 3697 
L 1506 3697 
L 1369 2919 
Q 1663 3066 1969 3066 
Q 2553 3066 2959 2641 
Q 3366 2216 3366 1538 
Q 3366 972 3038 528 
Q 2591 -78 1797 -78 
Q 1163 -78 763 262 
Q 363 603 284 1178 
z
" transform="scale(0.015625)"/>
       </defs>
       <use xlink:href="#Arial-BoldMT-35"/>
      </g>
     </g>
    </g>
    <g id="xtick_7">
     <g id="line2d_7">
      <g>
       <use xlink:href="#mdb24bedd8e" x="486.545498" y="198.907885" style="stroke: #000000; stroke-width: 2"/>
      </g>
     </g>
     <g id="text_7">
      <!-- 6 -->
      <g transform="translate(481.540654 224.791947) scale(0.18 -0.18)">
       <defs>
        <path id="Arial-BoldMT-36" d="M 3247 3459 
L 2397 3366 
Q 2366 3628 2234 3753 
Q 2103 3878 1894 3878 
Q 1616 3878 1423 3628 
Q 1231 3378 1181 2588 
Q 1509 2975 1997 2975 
Q 2547 2975 2939 2556 
Q 3331 2138 3331 1475 
Q 3331 772 2918 347 
Q 2506 -78 1859 -78 
Q 1166 -78 719 461 
Q 272 1000 272 2228 
Q 272 3488 737 4044 
Q 1203 4600 1947 4600 
Q 2469 4600 2811 4308 
Q 3153 4016 3247 3459 
z
M 1256 1544 
Q 1256 1116 1453 883 
Q 1650 650 1903 650 
Q 2147 650 2309 840 
Q 2472 1031 2472 1466 
Q 2472 1913 2297 2120 
Q 2122 2328 1859 2328 
Q 1606 2328 1431 2129 
Q 1256 1931 1256 1544 
z
" transform="scale(0.015625)"/>
       </defs>
       <use xlink:href="#Arial-BoldMT-36"/>
      </g>
     </g>
    </g>
    <g id="xtick_8">
     <g id="line2d_8">
      <g>
       <use xlink:href="#mdb24bedd8e" x="379.090996" y="198.907885" style="stroke: #000000; stroke-width: 2"/>
      </g>
     </g>
     <g id="text_8">
      <!-- 7 -->
      <g transform="translate(374.086153 224.791947) scale(0.18 -0.18)">
       <defs>
        <path id="Arial-BoldMT-37" d="M 272 3703 
L 272 4519 
L 3275 4519 
L 3275 3881 
Q 2903 3516 2518 2831 
Q 2134 2147 1932 1376 
Q 1731 606 1734 0 
L 888 0 
Q 909 950 1279 1937 
Q 1650 2925 2269 3703 
L 272 3703 
z
" transform="scale(0.015625)"/>
       </defs>
       <use xlink:href="#Arial-BoldMT-37"/>
      </g>
     </g>
    </g>
    <g id="xtick_9">
     <g id="line2d_9">
      <g>
       <use xlink:href="#mdb24bedd8e" x="271.636495" y="198.907885" style="stroke: #000000; stroke-width: 2"/>
      </g>
     </g>
     <g id="text_9">
      <!-- 8 -->
      <g transform="translate(266.631651 224.791947) scale(0.18 -0.18)">
       <defs>
        <path id="Arial-BoldMT-38" d="M 1025 2472 
Q 684 2616 529 2867 
Q 375 3119 375 3419 
Q 375 3931 733 4265 
Q 1091 4600 1750 4600 
Q 2403 4600 2764 4265 
Q 3125 3931 3125 3419 
Q 3125 3100 2959 2851 
Q 2794 2603 2494 2472 
Q 2875 2319 3073 2025 
Q 3272 1731 3272 1347 
Q 3272 713 2867 316 
Q 2463 -81 1791 -81 
Q 1166 -81 750 247 
Q 259 634 259 1309 
Q 259 1681 443 1992 
Q 628 2303 1025 2472 
z
M 1206 3356 
Q 1206 3094 1354 2947 
Q 1503 2800 1750 2800 
Q 2000 2800 2150 2948 
Q 2300 3097 2300 3359 
Q 2300 3606 2151 3754 
Q 2003 3903 1759 3903 
Q 1506 3903 1356 3753 
Q 1206 3603 1206 3356 
z
M 1125 1394 
Q 1125 1031 1311 828 
Q 1497 625 1775 625 
Q 2047 625 2225 820 
Q 2403 1016 2403 1384 
Q 2403 1706 2222 1901 
Q 2041 2097 1763 2097 
Q 1441 2097 1283 1875 
Q 1125 1653 1125 1394 
z
" transform="scale(0.015625)"/>
       </defs>
       <use xlink:href="#Arial-BoldMT-38"/>
      </g>
     </g>
    </g>
    <g id="xtick_10">
     <g id="line2d_10">
      <g>
       <use xlink:href="#mdb24bedd8e" x="164.181993" y="198.907885" style="stroke: #000000; stroke-width: 2"/>
      </g>
     </g>
     <g id="text_10">
      <!-- 9 -->
      <g transform="translate(159.177149 224.791947) scale(0.18 -0.18)">
       <defs>
        <path id="Arial-BoldMT-39" d="M 291 1059 
L 1141 1153 
Q 1172 894 1303 769 
Q 1434 644 1650 644 
Q 1922 644 2112 894 
Q 2303 1144 2356 1931 
Q 2025 1547 1528 1547 
Q 988 1547 595 1964 
Q 203 2381 203 3050 
Q 203 3747 617 4173 
Q 1031 4600 1672 4600 
Q 2369 4600 2816 4061 
Q 3263 3522 3263 2288 
Q 3263 1031 2797 475 
Q 2331 -81 1584 -81 
Q 1047 -81 715 205 
Q 384 491 291 1059 
z
M 2278 2978 
Q 2278 3403 2083 3637 
Q 1888 3872 1631 3872 
Q 1388 3872 1227 3680 
Q 1066 3488 1066 3050 
Q 1066 2606 1241 2398 
Q 1416 2191 1678 2191 
Q 1931 2191 2104 2391 
Q 2278 2591 2278 2978 
z
" transform="scale(0.015625)"/>
       </defs>
       <use xlink:href="#Arial-BoldMT-39"/>
      </g>
     </g>
    </g>
    <g id="xtick_11">
     <g id="line2d_11">
      <g>
       <use xlink:href="#mdb24bedd8e" x="56.727491" y="198.907885" style="stroke: #000000; stroke-width: 2"/>
      </g>
     </g>
     <g id="text_11">
      <!-- 10 -->
      <g transform="translate(46.717803 224.791947) scale(0.18 -0.18)">
       <use xlink:href="#Arial-BoldMT-31"/>
       <use xlink:href="#Arial-BoldMT-30" x="55.615234"/>
      </g>
     </g>
    </g>
    <g id="text_12">
     <!-- Chemical Shift / ppm -->
     <g transform="translate(504.992813 245.447573) scale(0.18 -0.18)">
      <defs>
       <path id="Arial-BoldMT-43" d="M 3397 1684 
L 4294 1400 
Q 4088 650 3608 286 
Q 3128 -78 2391 -78 
Q 1478 -78 890 545 
Q 303 1169 303 2250 
Q 303 3394 893 4026 
Q 1484 4659 2447 4659 
Q 3288 4659 3813 4163 
Q 4125 3869 4281 3319 
L 3366 3100 
Q 3284 3456 3026 3662 
Q 2769 3869 2400 3869 
Q 1891 3869 1573 3503 
Q 1256 3138 1256 2319 
Q 1256 1450 1568 1081 
Q 1881 713 2381 713 
Q 2750 713 3015 947 
Q 3281 1181 3397 1684 
z
" transform="scale(0.015625)"/>
       <path id="Arial-BoldMT-68" d="M 1334 4581 
L 1334 2897 
Q 1759 3394 2350 3394 
Q 2653 3394 2897 3281 
Q 3141 3169 3264 2994 
Q 3388 2819 3433 2606 
Q 3478 2394 3478 1947 
L 3478 0 
L 2600 0 
L 2600 1753 
Q 2600 2275 2550 2415 
Q 2500 2556 2373 2639 
Q 2247 2722 2056 2722 
Q 1838 2722 1666 2615 
Q 1494 2509 1414 2295 
Q 1334 2081 1334 1663 
L 1334 0 
L 456 0 
L 456 4581 
L 1334 4581 
z
" transform="scale(0.015625)"/>
       <path id="Arial-BoldMT-65" d="M 2381 1056 
L 3256 909 
Q 3088 428 2723 176 
Q 2359 -75 1813 -75 
Q 947 -75 531 491 
Q 203 944 203 1634 
Q 203 2459 634 2926 
Q 1066 3394 1725 3394 
Q 2466 3394 2894 2905 
Q 3322 2416 3303 1406 
L 1103 1406 
Q 1113 1016 1316 798 
Q 1519 581 1822 581 
Q 2028 581 2168 693 
Q 2309 806 2381 1056 
z
M 2431 1944 
Q 2422 2325 2234 2523 
Q 2047 2722 1778 2722 
Q 1491 2722 1303 2513 
Q 1116 2303 1119 1944 
L 2431 1944 
z
" transform="scale(0.015625)"/>
       <path id="Arial-BoldMT-6d" d="M 394 3319 
L 1203 3319 
L 1203 2866 
Q 1638 3394 2238 3394 
Q 2556 3394 2790 3262 
Q 3025 3131 3175 2866 
Q 3394 3131 3647 3262 
Q 3900 3394 4188 3394 
Q 4553 3394 4806 3245 
Q 5059 3097 5184 2809 
Q 5275 2597 5275 2122 
L 5275 0 
L 4397 0 
L 4397 1897 
Q 4397 2391 4306 2534 
Q 4184 2722 3931 2722 
Q 3747 2722 3584 2609 
Q 3422 2497 3350 2280 
Q 3278 2063 3278 1594 
L 3278 0 
L 2400 0 
L 2400 1819 
Q 2400 2303 2353 2443 
Q 2306 2584 2207 2653 
Q 2109 2722 1941 2722 
Q 1738 2722 1575 2612 
Q 1413 2503 1342 2297 
Q 1272 2091 1272 1613 
L 1272 0 
L 394 0 
L 394 3319 
z
" transform="scale(0.015625)"/>
       <path id="Arial-BoldMT-69" d="M 459 3769 
L 459 4581 
L 1338 4581 
L 1338 3769 
L 459 3769 
z
M 459 0 
L 459 3319 
L 1338 3319 
L 1338 0 
L 459 0 
z
" transform="scale(0.015625)"/>
       <path id="Arial-BoldMT-63" d="M 3353 2338 
L 2488 2181 
Q 2444 2441 2289 2572 
Q 2134 2703 1888 2703 
Q 1559 2703 1364 2476 
Q 1169 2250 1169 1719 
Q 1169 1128 1367 884 
Q 1566 641 1900 641 
Q 2150 641 2309 783 
Q 2469 925 2534 1272 
L 3397 1125 
Q 3263 531 2881 228 
Q 2500 -75 1859 -75 
Q 1131 -75 698 384 
Q 266 844 266 1656 
Q 266 2478 700 2936 
Q 1134 3394 1875 3394 
Q 2481 3394 2839 3133 
Q 3197 2872 3353 2338 
z
" transform="scale(0.015625)"/>
       <path id="Arial-BoldMT-61" d="M 1116 2306 
L 319 2450 
Q 453 2931 781 3162 
Q 1109 3394 1756 3394 
Q 2344 3394 2631 3255 
Q 2919 3116 3036 2902 
Q 3153 2688 3153 2116 
L 3144 1091 
Q 3144 653 3186 445 
Q 3228 238 3344 0 
L 2475 0 
Q 2441 88 2391 259 
Q 2369 338 2359 363 
Q 2134 144 1878 34 
Q 1622 -75 1331 -75 
Q 819 -75 523 203 
Q 228 481 228 906 
Q 228 1188 362 1408 
Q 497 1628 739 1745 
Q 981 1863 1438 1950 
Q 2053 2066 2291 2166 
L 2291 2253 
Q 2291 2506 2166 2614 
Q 2041 2722 1694 2722 
Q 1459 2722 1328 2630 
Q 1197 2538 1116 2306 
z
M 2291 1594 
Q 2122 1538 1756 1459 
Q 1391 1381 1278 1306 
Q 1106 1184 1106 997 
Q 1106 813 1243 678 
Q 1381 544 1594 544 
Q 1831 544 2047 700 
Q 2206 819 2256 991 
Q 2291 1103 2291 1419 
L 2291 1594 
z
" transform="scale(0.015625)"/>
       <path id="Arial-BoldMT-6c" d="M 459 0 
L 459 4581 
L 1338 4581 
L 1338 0 
L 459 0 
z
" transform="scale(0.015625)"/>
       <path id="Arial-BoldMT-20" transform="scale(0.015625)"/>
       <path id="Arial-BoldMT-53" d="M 231 1491 
L 1131 1578 
Q 1213 1125 1461 912 
Q 1709 700 2131 700 
Q 2578 700 2804 889 
Q 3031 1078 3031 1331 
Q 3031 1494 2936 1608 
Q 2841 1722 2603 1806 
Q 2441 1863 1863 2006 
Q 1119 2191 819 2459 
Q 397 2838 397 3381 
Q 397 3731 595 4036 
Q 794 4341 1167 4500 
Q 1541 4659 2069 4659 
Q 2931 4659 3367 4281 
Q 3803 3903 3825 3272 
L 2900 3231 
Q 2841 3584 2645 3739 
Q 2450 3894 2059 3894 
Q 1656 3894 1428 3728 
Q 1281 3622 1281 3444 
Q 1281 3281 1419 3166 
Q 1594 3019 2269 2859 
Q 2944 2700 3267 2529 
Q 3591 2359 3773 2064 
Q 3956 1769 3956 1334 
Q 3956 941 3737 597 
Q 3519 253 3119 86 
Q 2719 -81 2122 -81 
Q 1253 -81 787 320 
Q 322 722 231 1491 
z
" transform="scale(0.015625)"/>
       <path id="Arial-BoldMT-66" d="M 75 3319 
L 563 3319 
L 563 3569 
Q 563 3988 652 4194 
Q 741 4400 980 4529 
Q 1219 4659 1584 4659 
Q 1959 4659 2319 4547 
L 2200 3934 
Q 1991 3984 1797 3984 
Q 1606 3984 1523 3895 
Q 1441 3806 1441 3553 
L 1441 3319 
L 2097 3319 
L 2097 2628 
L 1441 2628 
L 1441 0 
L 563 0 
L 563 2628 
L 75 2628 
L 75 3319 
z
" transform="scale(0.015625)"/>
       <path id="Arial-BoldMT-74" d="M 1981 3319 
L 1981 2619 
L 1381 2619 
L 1381 1281 
Q 1381 875 1398 808 
Q 1416 741 1477 697 
Q 1538 653 1625 653 
Q 1747 653 1978 738 
L 2053 56 
Q 1747 -75 1359 -75 
Q 1122 -75 931 4 
Q 741 84 652 211 
Q 563 338 528 553 
Q 500 706 500 1172 
L 500 2619 
L 97 2619 
L 97 3319 
L 500 3319 
L 500 3978 
L 1381 4491 
L 1381 3319 
L 1981 3319 
z
" transform="scale(0.015625)"/>
       <path id="Arial-BoldMT-2f" d="M -9 -78 
L 1125 4659 
L 1784 4659 
L 638 -78 
L -9 -78 
z
" transform="scale(0.015625)"/>
       <path id="Arial-BoldMT-70" d="M 434 3319 
L 1253 3319 
L 1253 2831 
Q 1413 3081 1684 3237 
Q 1956 3394 2288 3394 
Q 2866 3394 3269 2941 
Q 3672 2488 3672 1678 
Q 3672 847 3265 386 
Q 2859 -75 2281 -75 
Q 2006 -75 1782 34 
Q 1559 144 1313 409 
L 1313 -1263 
L 434 -1263 
L 434 3319 
z
M 1303 1716 
Q 1303 1156 1525 889 
Q 1747 622 2066 622 
Q 2372 622 2575 867 
Q 2778 1113 2778 1672 
Q 2778 2194 2568 2447 
Q 2359 2700 2050 2700 
Q 1728 2700 1515 2451 
Q 1303 2203 1303 1716 
z
" transform="scale(0.015625)"/>
      </defs>
      <use xlink:href="#Arial-BoldMT-43"/>
      <use xlink:href="#Arial-BoldMT-68" x="72.216797"/>
      <use xlink:href="#Arial-BoldMT-65" x="133.300781"/>
      <use xlink:href="#Arial-BoldMT-6d" x="188.916016"/>
      <use xlink:href="#Arial-BoldMT-69" x="277.832031"/>
      <use xlink:href="#Arial-BoldMT-63" x="305.615234"/>
      <use xlink:href="#Arial-BoldMT-61" x="361.230469"/>
      <use xlink:href="#Arial-BoldMT-6c" x="416.845703"/>
      <use xlink:href="#Arial-BoldMT-20" x="444.628906"/>
      <use xlink:href="#Arial-BoldMT-53" x="472.412109"/>
      <use xlink:href="#Arial-BoldMT-68" x="539.111328"/>
      <use xlink:href="#Arial-BoldMT-69" x="600.195312"/>
      <use xlink:href="#Arial-BoldMT-66" x="627.978516"/>
      <use xlink:href="#Arial-BoldMT-74" x="661.279297"/>
      <use xlink:href="#Arial-BoldMT-20" x="694.580078"/>
      <use xlink:href="#Arial-BoldMT-2f" x="722.363281"/>
      <use xlink:href="#Arial-BoldMT-20" x="750.146484"/>
      <use xlink:href="#Arial-BoldMT-70" x="777.929688"/>
      <use xlink:href="#Arial-BoldMT-70" x="839.013672"/>
      <use xlink:href="#Arial-BoldMT-6d" x="900.097656"/>
     </g>
    </g>
   </g>
   <g id="matplotlib.axis_2"/>
   <g id="line2d_12">
    <path d="M 3.031615 185.222498 
L 3.440855 183.887248 
L 3.645475 183.879199 
L 3.850094 184.166937 
L 4.259334 185.60683 
L 4.668573 187.225488 
L 5.077813 188.258411 
L 5.896292 191.296573 
L 6.100911 191.313397 
L 6.510151 190.863157 
L 6.71477 191.033518 
L 7.32863 192.599902 
L 7.533249 192.734359 
L 7.942489 192.546062 
L 8.351728 192.89517 
L 8.965587 193.463034 
L 9.374827 193.651747 
L 9.988686 193.585492 
L 10.193306 193.32976 
L 10.602545 192.22634 
L 11.011785 190.941736 
L 11.216404 190.654766 
L 11.625644 190.653158 
L 12.239503 189.905311 
L 12.444123 190.225656 
L 13.057982 192.593902 
L 13.262602 192.749208 
L 13.467221 192.526273 
L 14.081081 191.413783 
L 14.49032 191.418173 
L 14.89956 191.786294 
L 15.308799 192.26098 
L 15.513419 192.02132 
L 15.922658 190.920338 
L 16.127278 190.8157 
L 16.331898 191.302909 
L 16.945757 193.740939 
L 17.150377 193.964747 
L 17.354996 193.701076 
L 18.173475 191.243704 
L 18.378095 191.056087 
L 18.582715 191.192218 
L 19.401194 192.737479 
L 19.605813 192.491699 
L 20.424292 190.173541 
L 20.628912 190.185867 
L 20.833532 190.818212 
L 22.26587 198.579108 
L 22.470489 198.637804 
L 22.675109 198.218041 
L 23.288968 195.884621 
L 24.107447 191.671868 
L 24.516687 191.10191 
L 24.925926 191.113284 
L 25.130546 191.249817 
L 25.335166 191.553969 
L 25.949025 193.211619 
L 26.153644 193.229497 
L 26.358264 192.764048 
L 27.790602 187.484708 
L 27.995222 187.198224 
L 28.199842 187.107359 
L 28.609081 187.228645 
L 28.813701 187.146052 
L 29.42756 186.514454 
L 29.63218 186.721675 
L 30.246039 187.851607 
L 30.450659 187.79092 
L 31.473757 186.14001 
L 32.292236 184.612282 
L 32.496856 184.880469 
L 33.724574 187.465787 
L 34.133814 187.197823 
L 34.338434 187.657191 
L 34.952293 190.197123 
L 35.156912 190.384579 
L 35.566152 189.881908 
L 36.180011 189.122689 
L 36.79387 187.710224 
L 37.20311 187.269412 
L 38.021589 185.947737 
L 38.635448 185.906929 
L 39.044687 184.948727 
L 39.249307 184.486551 
L 39.453927 184.495286 
L 39.863166 186.07456 
L 40.477025 188.446584 
L 40.886265 189.465412 
L 41.090885 189.657809 
L 41.295504 189.592324 
L 41.909363 188.828529 
L 42.318603 188.312248 
L 42.523223 188.279363 
L 42.727842 188.530743 
L 43.137082 189.84019 
L 43.546321 191.246591 
L 44.77404 193.843972 
L 44.978659 193.871249 
L 45.183279 193.434063 
L 46.615617 188.356722 
L 46.820237 188.239612 
L 47.229476 188.240118 
L 47.638716 187.937191 
L 47.843336 187.949159 
L 48.252575 188.640222 
L 48.661814 189.33622 
L 49.071054 189.620512 
L 49.480293 190.611591 
L 49.684913 191.174633 
L 49.889533 191.404203 
L 50.298772 191.25845 
L 50.912631 191.572392 
L 51.117251 191.340944 
L 51.526491 190.346615 
L 52.14035 188.761255 
L 52.958829 187.32852 
L 53.368068 185.643622 
L 53.981927 182.948338 
L 54.391167 181.772925 
L 55.005026 180.38126 
L 55.823505 176.935961 
L 56.437364 173.844327 
L 57.051223 171.831491 
L 57.460463 169.199135 
L 57.869702 165.206663 
L 58.483561 156.466384 
L 59.097421 144.951141 
L 59.50666 134.584248 
L 59.915899 119.820514 
L 60.325139 98.624465 
L 60.938998 52.707709 
L 61.348238 23.380026 
L 61.552857 14.848301 
L 61.757477 11.570032 
L 61.962097 13.230177 
L 62.166716 19.677247 
L 62.575956 46.272007 
L 63.394435 109.689293 
L 64.008294 139.111269 
L 64.417533 150.403539 
L 64.826773 157.015174 
L 65.440632 163.28513 
L 67.691449 179.456008 
L 68.305308 182.558344 
L 68.509928 182.79521 
L 68.714548 182.42037 
L 69.123787 180.598369 
L 69.533027 178.709999 
L 69.737646 178.621219 
L 69.942266 179.2528 
L 71.374604 186.695553 
L 71.988463 190.693577 
L 72.397703 192.173464 
L 72.602322 192.191981 
L 73.216182 191.066088 
L 73.420801 191.023366 
L 73.625421 191.288067 
L 74.034661 192.239182 
L 74.23928 192.461923 
L 74.4439 192.44784 
L 74.64852 192.238103 
L 75.057759 191.258725 
L 75.466999 190.44642 
L 75.671618 190.51096 
L 76.080858 190.981484 
L 76.285478 191.06299 
L 76.694717 190.743614 
L 76.899337 190.568181 
L 77.103956 190.546887 
L 77.717816 190.731805 
L 77.922435 190.474009 
L 78.536295 189.263551 
L 78.740914 189.359068 
L 78.945534 189.801543 
L 79.354773 191.644151 
L 79.968633 194.848088 
L 80.173252 195.117767 
L 80.377872 194.976968 
L 80.787112 194.426695 
L 81.81021 193.630683 
L 82.21945 192.604146 
L 82.628689 191.601757 
L 83.037929 191.465721 
L 83.242548 191.55121 
L 83.856407 192.466505 
L 84.061027 192.302467 
L 84.470267 190.829832 
L 84.879506 189.500804 
L 85.084126 189.444411 
L 85.697985 190.009915 
L 85.902605 190.020629 
L 86.311844 189.620576 
L 86.925703 188.84909 
L 87.334943 188.616947 
L 87.539563 188.321254 
L 88.358041 186.210053 
L 88.562661 186.442577 
L 89.17652 187.842019 
L 89.38114 187.86227 
L 89.994999 187.34422 
L 90.199619 187.370132 
L 90.404239 187.540487 
L 90.608858 187.907479 
L 91.018098 189.704532 
L 91.427337 191.597632 
L 91.631957 191.847989 
L 91.836577 191.603568 
L 92.450436 190.141735 
L 92.655056 190.128032 
L 93.064295 190.904614 
L 93.268915 191.278274 
L 93.473535 191.394744 
L 93.678154 191.217113 
L 94.087394 190.242476 
L 94.701253 188.596644 
L 95.110492 187.990987 
L 95.519732 187.735175 
L 95.928971 187.993467 
L 96.338211 188.237398 
L 96.542831 188.093582 
L 96.95207 187.554668 
L 97.361309 187.273664 
L 97.770549 186.432483 
L 97.975169 185.933321 
L 98.179788 185.731082 
L 98.384408 186.181766 
L 99.407507 191.970496 
L 99.612126 192.17823 
L 99.816746 191.861963 
L 100.635225 188.383351 
L 100.839845 188.410951 
L 101.249084 188.934881 
L 101.453704 188.926452 
L 102.067563 188.285261 
L 102.272183 188.389549 
L 102.681422 188.790755 
L 102.886042 188.696034 
L 103.295281 188.06354 
L 103.499901 187.982469 
L 103.909141 188.461991 
L 104.11376 188.699196 
L 104.31838 188.72284 
L 104.72762 188.469017 
L 104.932239 188.645991 
L 105.136859 189.309687 
L 105.750718 192.768196 
L 105.955338 193.106675 
L 106.364577 192.614823 
L 106.569197 192.855698 
L 107.387676 196.373479 
L 107.592296 196.42318 
L 107.796915 195.985245 
L 108.206155 193.977643 
L 108.820014 190.323182 
L 109.024634 189.936716 
L 109.229254 189.997887 
L 109.843113 191.133515 
L 110.047732 191.105039 
L 110.456972 190.393427 
L 110.661592 190.300149 
L 110.866211 190.584509 
L 112.09393 193.998186 
L 112.503169 194.564527 
L 112.707789 194.699801 
L 112.912409 194.594661 
L 113.117028 194.097098 
L 114.140127 190.167193 
L 114.549366 189.187382 
L 114.753986 189.254229 
L 115.367845 190.110447 
L 115.572465 189.956674 
L 116.390944 188.421356 
L 117.004803 188.334347 
L 117.618662 187.373066 
L 117.823282 187.493313 
L 118.437141 188.739102 
L 118.641761 188.68341 
L 119.051 188.21941 
L 119.25562 188.257786 
L 119.46024 188.452383 
L 119.66486 188.446223 
L 119.869479 187.96502 
L 120.483339 185.781431 
L 120.687958 185.967987 
L 121.097198 187.605138 
L 121.506437 189.378603 
L 121.711057 189.769212 
L 121.915677 189.598448 
L 122.324916 188.010873 
L 122.938775 185.419462 
L 123.143395 185.191528 
L 123.348015 185.497785 
L 124.166494 188.45855 
L 124.371113 188.61437 
L 124.780353 188.178091 
L 125.189592 187.644729 
L 125.598832 186.349268 
L 126.008071 184.904445 
L 126.62193 183.650416 
L 126.82655 183.472926 
L 127.03117 183.518439 
L 127.645029 184.087566 
L 128.054268 184.797695 
L 128.258888 185.364508 
L 128.463508 186.29923 
L 129.281987 192.414559 
L 129.486607 192.765442 
L 129.691226 192.598085 
L 130.100466 191.315763 
L 130.509705 189.740015 
L 130.714325 189.452336 
L 130.918945 189.624938 
L 131.532804 191.131286 
L 131.737424 191.211587 
L 131.942043 191.159194 
L 132.146663 191.239125 
L 132.555902 191.660734 
L 132.760522 191.649607 
L 133.169762 191.285913 
L 133.374381 191.2602 
L 133.783621 191.656288 
L 135.011339 193.067386 
L 135.215959 192.836333 
L 135.625198 191.509648 
L 136.034438 189.956534 
L 136.443677 189.434372 
L 136.648297 189.284516 
L 136.852917 188.919099 
L 137.466776 186.908159 
L 137.671396 186.783364 
L 137.876015 187.150608 
L 138.285255 188.669013 
L 138.899114 191.310432 
L 139.103734 191.617062 
L 139.308353 191.399105 
L 139.717593 190.638877 
L 139.922213 190.850161 
L 140.331452 192.455176 
L 140.740691 193.983631 
L 140.945311 194.192863 
L 141.149931 193.873222 
L 141.55917 192.100065 
L 142.17303 189.382116 
L 142.377649 188.948185 
L 142.582269 188.870046 
L 142.991508 188.942873 
L 143.196128 188.701848 
L 143.605368 187.747093 
L 144.423847 185.630492 
L 144.628466 185.459235 
L 144.833086 185.502758 
L 145.242325 186.08054 
L 146.060804 187.271041 
L 146.265424 187.376239 
L 146.879283 187.344612 
L 147.083903 187.479046 
L 147.288523 187.449954 
L 147.493142 187.037682 
L 148.107002 184.701337 
L 148.311621 184.45132 
L 148.516241 184.629404 
L 148.720861 185.203133 
L 149.1301 187.50087 
L 149.743959 191.705872 
L 149.948579 192.281961 
L 150.153199 192.31937 
L 150.357819 191.883984 
L 150.767058 189.780231 
L 151.790157 182.496631 
L 151.994776 181.687519 
L 152.199396 181.529292 
L 152.404016 182.013277 
L 153.222495 185.007753 
L 153.631734 185.719231 
L 154.450213 186.571549 
L 155.064072 187.989553 
L 155.473312 188.826152 
L 155.677932 188.855768 
L 155.882551 188.567561 
L 156.291791 187.261954 
L 157.11027 183.138361 
L 157.519509 182.034612 
L 157.724129 181.875961 
L 157.928749 182.171921 
L 158.337988 183.461346 
L 158.542608 183.723159 
L 158.747227 183.402385 
L 159.361087 181.491662 
L 159.565706 181.309188 
L 159.770326 181.302849 
L 159.974946 181.476628 
L 160.179566 181.931945 
L 160.588805 183.840751 
L 161.202664 187.481133 
L 161.407284 187.930267 
L 161.611904 187.784635 
L 162.635002 185.768048 
L 162.839622 185.559141 
L 163.044242 185.576521 
L 163.248861 185.895909 
L 164.27196 189.063386 
L 165.090439 189.310826 
L 165.499678 189.943048 
L 165.704298 190.279181 
L 165.908918 190.37808 
L 166.113538 190.161396 
L 166.522777 188.872894 
L 166.932017 186.945298 
L 167.136636 186.505197 
L 167.341256 186.689377 
L 167.750495 188.251002 
L 168.159735 189.908778 
L 168.568974 190.77817 
L 168.978214 191.458472 
L 169.796693 193.455648 
L 170.410552 194.40609 
L 170.819791 194.566728 
L 171.229031 194.275235 
L 171.63827 193.404194 
L 172.456749 191.444718 
L 172.661369 191.360603 
L 173.070608 191.607188 
L 173.889087 192.452244 
L 174.093707 192.997045 
L 174.912186 196.901222 
L 175.116806 196.87515 
L 175.526045 195.517325 
L 176.344524 192.70329 
L 176.753763 191.614534 
L 176.958383 191.438994 
L 177.163003 191.669013 
L 177.367623 192.473644 
L 178.595341 200.57859 
L 178.799961 200.524141 
L 179.2092 199.50302 
L 180.027679 197.136421 
L 180.232299 196.926206 
L 180.436918 197.174579 
L 181.050778 198.574756 
L 181.255397 198.494287 
L 181.460017 197.974947 
L 183.506214 189.481988 
L 183.710834 189.262933 
L 183.915454 189.279657 
L 184.120074 189.546466 
L 184.529313 190.904901 
L 185.143172 194.46379 
L 185.552412 196.671979 
L 185.757031 196.989687 
L 185.961651 196.669794 
L 186.370891 194.908135 
L 186.98475 191.159888 
L 187.189369 190.575181 
L 187.393989 190.626679 
L 187.598609 191.246039 
L 188.417088 194.79186 
L 188.621708 194.952525 
L 188.826327 194.90442 
L 189.235567 194.410416 
L 189.849426 192.948586 
L 191.077144 189.299406 
L 191.691003 187.482444 
L 191.895623 187.323253 
L 192.100243 187.472746 
L 192.509482 188.378723 
L 193.123342 190.250402 
L 193.327961 190.378253 
L 193.94182 189.545721 
L 194.14644 189.613152 
L 194.35106 189.948153 
L 194.760299 191.381453 
L 195.374159 193.693415 
L 195.783398 194.415423 
L 195.988018 194.443859 
L 196.397257 194.022155 
L 197.624976 191.257726 
L 198.852694 188.677547 
L 199.057314 188.78246 
L 199.466553 189.738909 
L 200.080412 191.44918 
L 200.285032 191.67405 
L 200.489652 191.624016 
L 200.694271 191.29222 
L 201.103511 189.77543 
L 201.51275 188.232439 
L 201.71737 188.000675 
L 202.12661 188.245629 
L 202.535849 188.835383 
L 202.945088 189.855615 
L 203.763567 192.262313 
L 203.968187 192.023638 
L 204.582046 190.263436 
L 204.786666 190.342846 
L 205.195905 191.703017 
L 205.605145 192.986053 
L 205.809765 193.117044 
L 206.219004 192.724196 
L 206.832863 192.02375 
L 207.242103 191.610225 
L 207.651342 191.191206 
L 207.855962 191.424496 
L 208.674441 193.697068 
L 208.879061 193.586261 
L 209.902159 191.340114 
L 210.516018 191.023939 
L 210.720638 191.128409 
L 211.129878 191.604952 
L 211.334497 191.423 
L 212.152976 189.451043 
L 212.562216 188.565729 
L 212.971455 187.176055 
L 213.789934 183.958276 
L 213.994554 183.672334 
L 214.199173 183.766118 
L 214.608413 184.946408 
L 215.017652 186.03402 
L 215.222272 186.069566 
L 215.836131 184.963654 
L 216.040751 185.043436 
L 216.65461 186.087866 
L 216.85923 186.285876 
L 217.06385 186.844776 
L 217.473089 189.395412 
L 218.086948 193.41604 
L 218.700807 195.37654 
L 218.905427 195.722588 
L 219.110047 195.626221 
L 219.519286 194.152878 
L 220.337765 190.20825 
L 220.542385 189.642326 
L 220.747005 189.572008 
L 220.951624 190.093842 
L 221.770103 194.390559 
L 221.974723 194.396131 
L 222.179343 193.758466 
L 223.407061 187.768704 
L 224.02092 185.899795 
L 224.634779 182.928276 
L 224.839399 183.045319 
L 225.248639 185.399069 
L 225.657878 187.531743 
L 225.862498 187.879049 
L 226.067118 187.845711 
L 226.271737 187.521542 
L 226.680977 186.041118 
L 227.090216 184.540925 
L 227.294836 184.510768 
L 227.704075 185.211346 
L 227.908695 185.169813 
L 228.522554 183.838001 
L 228.727174 183.791369 
L 229.136413 184.173649 
L 229.341033 183.996018 
L 230.568752 180.897848 
L 230.977991 180.701448 
L 231.38723 180.829646 
L 232.205709 181.706431 
L 232.614949 182.76844 
L 233.433428 185.391659 
L 233.842667 186.018701 
L 234.661146 186.23967 
L 235.275005 187.144056 
L 235.479625 187.716332 
L 235.888864 189.95119 
L 236.298104 192.285854 
L 236.502724 192.621595 
L 236.707343 192.128144 
L 237.116583 190.115913 
L 237.321203 189.729673 
L 237.525822 190.051927 
L 238.139681 192.336494 
L 238.344301 192.478146 
L 238.548921 192.033961 
L 238.95816 189.659363 
L 239.57202 185.911462 
L 239.776639 185.489592 
L 239.981259 185.580473 
L 240.390498 187.002307 
L 240.799738 188.415132 
L 241.208977 188.978159 
L 241.618217 189.020271 
L 242.641315 188.692735 
L 243.255175 188.891522 
L 243.459794 188.806457 
L 244.073654 188.138902 
L 244.278273 188.303633 
L 244.687513 189.145748 
L 244.892132 189.220912 
L 245.096752 188.724207 
L 245.505992 186.583309 
L 246.119851 183.328995 
L 246.324471 183.007888 
L 246.52909 183.253458 
L 247.142949 185.426413 
L 247.552189 187.525071 
L 247.961428 189.662585 
L 248.779907 191.58939 
L 249.598386 193.852322 
L 250.416865 196.526995 
L 250.621485 196.842034 
L 250.826105 196.62803 
L 251.235344 195.553104 
L 251.439964 195.39059 
L 251.849203 195.566642 
L 252.053823 195.467748 
L 252.258443 195.027632 
L 252.872302 192.47206 
L 253.690781 188.21004 
L 253.8954 188.051581 
L 254.50926 188.668726 
L 254.918499 188.473252 
L 255.327739 187.835834 
L 256.350837 185.217084 
L 256.555457 185.181607 
L 256.760077 185.292583 
L 257.169316 186.009337 
L 257.783175 187.432901 
L 257.987795 187.741486 
L 258.192415 188.346328 
L 258.601654 190.880053 
L 259.010894 193.183297 
L 259.215513 193.375258 
L 259.420133 192.997798 
L 260.647851 189.464431 
L 260.852471 189.664836 
L 261.46633 190.612382 
L 261.87557 191.086935 
L 262.489429 192.52958 
L 262.694049 192.207331 
L 263.103288 190.883286 
L 263.307908 190.749659 
L 263.717147 191.385568 
L 263.921767 191.243914 
L 264.331006 189.586442 
L 264.740246 187.960882 
L 264.944866 187.544873 
L 265.149485 187.393332 
L 265.558725 187.453726 
L 265.763345 187.636668 
L 266.172584 188.728029 
L 266.991063 191.063463 
L 267.195683 191.353614 
L 267.400302 191.282632 
L 268.014162 190.16391 
L 268.423401 190.061402 
L 268.628021 190.112632 
L 268.83264 190.377885 
L 269.24188 191.296095 
L 269.4465 191.450541 
L 269.651119 191.278469 
L 270.469598 189.911597 
L 271.083457 189.965289 
L 272.515796 188.606491 
L 272.720415 188.711705 
L 273.129655 189.841067 
L 273.334274 190.370387 
L 273.538894 190.490776 
L 273.948134 189.776351 
L 274.357373 188.468885 
L 274.971232 185.346246 
L 275.175852 184.947091 
L 275.380472 184.895715 
L 275.585091 185.003169 
L 275.789711 184.964191 
L 275.994331 184.460645 
L 276.40357 181.979148 
L 277.01743 177.582373 
L 277.426669 176.042625 
L 277.631289 175.57147 
L 277.835908 175.587507 
L 278.040528 176.318306 
L 279.063627 182.728973 
L 279.268247 182.584429 
L 279.677486 181.003889 
L 280.700585 175.593605 
L 281.723683 172.325301 
L 281.928303 172.094455 
L 282.337542 172.269634 
L 282.542162 172.308438 
L 282.746782 172.043109 
L 283.360641 170.357769 
L 283.565261 170.063516 
L 283.769881 169.534161 
L 284.17912 167.201081 
L 284.588359 163.770533 
L 284.997599 158.47718 
L 285.611458 146.455169 
L 286.429937 128.581212 
L 286.839176 124.223631 
L 287.043796 124.328088 
L 287.248416 125.97423 
L 287.862275 135.326072 
L 288.885374 150.726462 
L 289.703853 158.248953 
L 290.113092 160.622405 
L 290.317712 161.057566 
L 290.522332 161.15243 
L 291.136191 160.900169 
L 291.34081 160.604104 
L 291.54543 159.901209 
L 291.95467 156.76349 
L 292.568529 148.943429 
L 293.182388 137.903159 
L 293.796247 121.788213 
L 294.410106 98.237141 
L 295.023965 62.707106 
L 295.842444 14.415653 
L 296.251684 3.503028 
L 296.456304 3.00024 
L 296.660923 5.486424 
L 297.070163 16.802029 
L 297.684022 34.190242 
L 298.707121 52.076626 
L 299.11636 67.339762 
L 300.344078 120.396369 
L 300.753318 131.016976 
L 301.162557 137.647863 
L 301.776416 143.448621 
L 302.390276 146.618661 
L 303.208755 150.349786 
L 303.413374 150.541482 
L 303.617994 150.500027 
L 303.822614 150.329778 
L 304.027233 149.842127 
L 304.436473 147.255384 
L 305.459572 138.515116 
L 305.664191 137.723062 
L 305.868811 137.586087 
L 306.27805 138.486831 
L 306.68729 139.868383 
L 307.301149 143.138322 
L 307.915008 147.783275 
L 308.938107 157.329332 
L 309.551966 163.244481 
L 310.370445 168.500111 
L 310.575065 168.992977 
L 310.984304 169.376862 
L 311.598163 170.244718 
L 312.212023 170.210405 
L 312.621262 170.370204 
L 312.825882 170.146804 
L 313.84898 168.002133 
L 314.667459 168.703185 
L 315.076699 168.698425 
L 315.281318 168.907251 
L 315.485938 169.565749 
L 315.895178 172.405547 
L 316.509037 177.118908 
L 316.918276 178.599457 
L 317.327516 178.796624 
L 317.736755 178.897175 
L 318.145995 179.016987 
L 318.350614 178.778874 
L 318.759854 177.357591 
L 319.782952 171.710937 
L 320.192192 166.767444 
L 320.806051 155.959766 
L 321.41991 139.087279 
L 322.647629 100.225698 
L 323.056868 92.767042 
L 323.466108 89.402406 
L 323.875347 88.437494 
L 324.079967 88.118812 
L 324.284586 87.468517 
L 324.693826 84.30072 
L 325.307685 77.894449 
L 325.512305 77.096058 
L 325.716925 77.848594 
L 325.921544 80.335838 
L 326.330784 89.719009 
L 328.581601 154.708017 
L 328.99084 158.939401 
L 329.19546 159.875295 
L 329.40008 160.00272 
L 329.604699 159.334861 
L 330.013939 156.042848 
L 331.446277 140.371329 
L 331.855516 139.073428 
L 332.060136 138.985979 
L 332.469376 139.168616 
L 332.878615 139.45217 
L 333.083235 139.231862 
L 333.287854 138.459678 
L 333.697094 135.051786 
L 334.515573 125.488516 
L 334.924812 123.776719 
L 335.129432 124.101271 
L 335.334052 125.514837 
L 335.743291 131.184397 
L 336.35715 141.057292 
L 336.76639 144.510285 
L 337.380249 147.884335 
L 337.994108 153.23335 
L 339.017207 162.395081 
L 339.426446 164.589184 
L 339.835686 165.475985 
L 340.449545 166.139778 
L 340.654165 166.211252 
L 340.858784 166.098629 
L 341.268024 165.617458 
L 341.472643 165.551146 
L 342.086503 165.73564 
L 342.495742 165.769963 
L 342.904982 165.837632 
L 343.314221 165.727981 
L 343.518841 166.062176 
L 343.92808 167.930132 
L 344.33732 169.424923 
L 344.541939 169.425788 
L 345.974277 167.596365 
L 346.178897 167.666634 
L 346.383517 167.936144 
L 346.792756 169.130024 
L 347.201996 170.256267 
L 348.225094 170.578005 
L 348.838954 169.555218 
L 349.452813 169.469273 
L 349.657433 169.839117 
L 350.066672 171.517662 
L 350.475911 173.195408 
L 350.680531 173.48288 
L 350.885151 173.235336 
L 351.70363 170.580473 
L 351.90825 170.438228 
L 352.112869 170.470075 
L 352.726728 171.148632 
L 352.931348 171.058122 
L 353.545207 170.228385 
L 353.954447 169.745169 
L 354.159067 169.81829 
L 354.568306 170.453826 
L 354.772926 170.522498 
L 355.182165 170.145957 
L 355.386785 170.196984 
L 355.591405 170.529041 
L 356.000644 171.900723 
L 356.614503 173.942149 
L 357.023743 175.6711 
L 357.432982 177.748825 
L 357.637602 178.082149 
L 357.842222 177.87339 
L 358.046841 177.496293 
L 358.251461 177.368287 
L 358.456081 177.659057 
L 358.86532 179.231187 
L 359.683799 182.888629 
L 360.706898 185.572673 
L 360.911518 185.258867 
L 361.729996 182.280223 
L 362.139236 181.214353 
L 362.343856 181.088623 
L 362.548475 181.126785 
L 362.753095 181.298981 
L 363.162335 182.145314 
L 363.571574 183.419944 
L 363.980813 185.34631 
L 364.799292 189.425063 
L 365.208532 190.524442 
L 365.413152 190.711063 
L 365.617771 190.634309 
L 366.027011 190.105016 
L 366.43625 189.409335 
L 366.64087 189.273184 
L 366.84549 189.433644 
L 367.663969 190.941596 
L 368.073208 191.900854 
L 368.277828 191.920486 
L 368.482447 191.475391 
L 368.891687 189.554387 
L 369.505546 186.579314 
L 369.914786 185.452548 
L 370.119405 185.326627 
L 370.324025 185.574448 
L 370.937884 186.8701 
L 371.347124 187.113829 
L 371.756363 187.165123 
L 371.960983 187.369211 
L 372.370222 188.669567 
L 373.597941 193.015674 
L 373.80256 193.020422 
L 374.2118 192.302749 
L 374.416419 192.223883 
L 375.030279 192.823807 
L 375.234898 192.361261 
L 376.257997 187.913773 
L 376.667236 187.333651 
L 376.871856 187.363096 
L 377.281096 188.508229 
L 377.485715 189.031891 
L 377.894955 189.272324 
L 378.099575 189.436453 
L 378.508814 190.334388 
L 378.918053 192.08583 
L 379.941152 197.40621 
L 380.145772 197.783695 
L 380.350392 197.514107 
L 380.759631 195.308033 
L 381.16887 192.919158 
L 381.78273 190.821753 
L 382.396589 189.245529 
L 382.805828 188.815738 
L 383.010448 188.961665 
L 383.419687 190.305924 
L 384.442786 194.944118 
L 384.852026 195.654215 
L 385.670504 196.827131 
L 385.875124 196.747121 
L 386.079744 196.293112 
L 386.488983 194.457735 
L 386.898223 192.497442 
L 387.307462 191.441287 
L 387.716702 191.016317 
L 388.330561 191.345561 
L 388.7398 190.485061 
L 389.14904 189.666181 
L 389.35366 189.679758 
L 389.762899 190.61981 
L 390.172138 191.496939 
L 390.581378 191.590461 
L 390.785998 191.536486 
L 390.990617 191.270694 
L 391.399857 189.849117 
L 392.218336 185.795948 
L 392.422955 185.60732 
L 392.627575 186.224206 
L 393.650674 192.129586 
L 393.855294 192.037978 
L 394.059913 191.817508 
L 394.264533 191.771077 
L 394.673772 192.038739 
L 394.878392 191.805617 
L 395.287632 190.254524 
L 395.696871 188.833718 
L 396.31073 186.977866 
L 396.71997 185.687492 
L 397.129209 185.13155 
L 397.947688 184.396486 
L 398.152308 184.578496 
L 398.561547 185.730023 
L 399.175406 187.49546 
L 399.584646 188.167206 
L 399.789266 188.419296 
L 400.198505 189.543752 
L 400.812364 191.970401 
L 401.016984 192.410898 
L 401.221604 192.487397 
L 401.426223 192.227116 
L 401.835463 191.096566 
L 402.653942 188.573865 
L 402.858562 188.21585 
L 403.063181 188.154867 
L 403.267801 188.368789 
L 403.67704 189.332541 
L 404.495519 191.57069 
L 404.700139 191.729711 
L 405.109379 191.302356 
L 405.927857 190.260041 
L 406.541717 189.168718 
L 407.155576 187.82266 
L 407.360196 187.990362 
L 407.974055 189.683111 
L 408.178674 189.61703 
L 408.587914 188.321985 
L 409.815632 183.015648 
L 410.020252 182.744616 
L 410.224872 182.915371 
L 410.429491 183.682938 
L 411.45259 189.918817 
L 411.861829 190.765397 
L 412.271069 191.082229 
L 413.089548 191.390003 
L 413.498787 191.608266 
L 413.908027 191.859027 
L 414.317266 191.914703 
L 414.931125 192.342135 
L 415.135745 192.346348 
L 415.340365 192.132506 
L 415.749604 190.794085 
L 416.363463 188.159063 
L 416.568083 187.747059 
L 416.772703 187.593989 
L 417.386562 187.513137 
L 417.591182 187.034595 
L 418.61428 182.878569 
L 418.8189 182.996106 
L 419.22814 184.474685 
L 419.637379 186.047249 
L 420.046619 186.672813 
L 420.455858 187.146348 
L 420.660478 187.733271 
L 421.683576 193.028232 
L 422.297436 196.043156 
L 422.502055 196.47343 
L 423.115914 196.557421 
L 423.934393 197.43007 
L 424.139013 196.96258 
L 424.548253 194.185113 
L 425.366731 187.269591 
L 425.775971 185.532634 
L 425.980591 185.632524 
L 426.38983 187.373468 
L 426.79907 189.284573 
L 427.822168 191.729989 
L 428.026788 191.713189 
L 428.231408 191.163234 
L 429.049887 187.088262 
L 429.254506 186.980428 
L 429.663746 187.800447 
L 430.277605 189.50758 
L 431.505323 194.023158 
L 432.323802 195.8406 
L 432.528422 195.926093 
L 432.733042 195.694089 
L 432.937661 195.115941 
L 433.346901 192.829424 
L 433.96076 189.067664 
L 434.369999 187.976982 
L 434.574619 187.810255 
L 434.779239 187.875537 
L 436.006957 189.427739 
L 436.416197 190.4626 
L 436.825436 192.100833 
L 437.848535 196.963129 
L 438.053155 196.668422 
L 438.462394 195.028556 
L 438.871633 192.595526 
L 439.485493 188.372066 
L 439.690112 187.707028 
L 439.894732 187.5434 
L 440.099352 187.770917 
L 440.917831 189.97163 
L 441.12245 189.974732 
L 441.32707 189.654201 
L 441.73631 188.24657 
L 442.145549 186.949512 
L 442.350169 186.794924 
L 442.554789 186.91717 
L 442.964028 187.669268 
L 443.577887 189.323538 
L 444.191746 190.271345 
L 444.396366 190.250725 
L 444.600986 190.106841 
L 444.805606 190.225453 
L 445.624084 191.968432 
L 445.828704 191.972443 
L 446.033324 191.803977 
L 446.237944 191.363894 
L 446.647183 189.446033 
L 447.056423 187.160297 
L 447.465662 186.096599 
L 447.874901 185.711338 
L 448.079521 185.691823 
L 448.284141 185.883239 
L 449.10262 187.471191 
L 449.511859 187.649618 
L 449.716479 187.548254 
L 450.125718 186.740488 
L 450.944197 184.947305 
L 451.148817 184.69065 
L 451.353437 184.838237 
L 451.558056 185.581733 
L 452.171916 189.296069 
L 452.376535 189.630215 
L 452.990395 188.798324 
L 453.195014 188.915103 
L 453.399634 189.4155 
L 453.808873 191.767311 
L 454.218113 194.370057 
L 454.422733 194.909499 
L 454.627352 194.879522 
L 455.241212 194.061878 
L 455.650451 193.663831 
L 456.05969 192.856584 
L 456.46893 191.780509 
L 457.082789 190.98124 
L 457.492029 190.678548 
L 457.696648 190.639137 
L 457.901268 190.790913 
L 458.310507 191.801256 
L 458.719747 193.022096 
L 458.924367 193.317717 
L 459.128986 193.197736 
L 459.538226 192.179552 
L 459.947465 190.331798 
L 460.970564 183.44562 
L 461.379803 182.359809 
L 461.789043 182.015568 
L 461.993663 182.090721 
L 462.198282 182.470024 
L 462.607522 184.454258 
L 463.221381 187.952744 
L 463.63062 189.284458 
L 463.83524 189.69405 
L 464.03986 189.802148 
L 464.449099 189.302988 
L 465.472198 188.065128 
L 465.676818 187.947132 
L 465.881437 188.111518 
L 466.290677 189.136172 
L 466.699916 190.119712 
L 466.904536 190.115815 
L 467.313775 189.295022 
L 467.723015 188.478139 
L 467.927635 188.515294 
L 468.541494 189.389865 
L 468.746114 189.351628 
L 469.564592 188.45888 
L 469.769212 188.807559 
L 470.178452 190.449945 
L 470.792311 193.857275 
L 470.996931 194.379605 
L 471.20155 194.288702 
L 471.40617 193.644753 
L 472.020029 190.089729 
L 472.838508 185.211378 
L 473.043128 184.589544 
L 473.247748 184.357227 
L 473.452367 184.399669 
L 473.656987 184.668494 
L 474.066226 185.990183 
L 475.498565 192.115934 
L 475.703184 192.472396 
L 475.907804 192.291051 
L 476.317043 190.755037 
L 477.544762 185.557338 
L 477.749382 185.03785 
L 477.954001 184.852272 
L 478.158621 185.0759 
L 478.56786 186.791106 
L 478.9771 188.605442 
L 479.18172 188.88931 
L 479.590959 189.033417 
L 479.795579 189.40721 
L 480.204818 190.856762 
L 480.818677 193.289993 
L 481.227917 193.780948 
L 481.637156 194.162935 
L 482.046396 195.331011 
L 482.455635 196.612782 
L 482.660255 196.595298 
L 482.864875 195.947336 
L 483.274114 193.098609 
L 483.887973 188.79085 
L 484.092593 188.179032 
L 484.297213 187.94648 
L 484.501833 187.969685 
L 484.911072 188.496274 
L 485.524931 189.840019 
L 486.13879 191.704822 
L 486.34341 191.885257 
L 486.54803 191.731623 
L 486.957269 190.587351 
L 487.980368 186.758565 
L 488.184988 186.510795 
L 488.389607 186.500005 
L 488.798847 187.036923 
L 489.208086 187.72117 
L 489.412706 187.825176 
L 489.821945 187.578117 
L 490.845044 186.53841 
L 491.254283 185.650629 
L 491.663523 184.967866 
L 491.868143 185.00257 
L 492.277382 185.274476 
L 492.686622 185.187943 
L 492.891241 185.430202 
L 493.095861 186.251967 
L 493.91434 191.611159 
L 494.323579 192.310632 
L 495.755917 193.093078 
L 496.165157 193.492766 
L 496.369777 193.502309 
L 496.574396 193.36564 
L 497.597495 191.777716 
L 498.006734 190.177295 
L 498.825213 186.688232 
L 499.029833 186.167177 
L 499.234453 185.982621 
L 499.643692 186.277435 
L 499.848312 186.112805 
L 500.257551 184.775164 
L 500.666791 183.580633 
L 500.871411 183.714967 
L 501.07603 184.586383 
L 502.099129 191.997088 
L 502.303749 191.968531 
L 502.712988 189.9977 
L 503.122228 188.317693 
L 503.326847 188.154655 
L 503.531467 188.359394 
L 503.940707 189.317947 
L 504.554566 191.688904 
L 505.577664 195.906343 
L 505.782284 195.7722 
L 505.986904 194.688429 
L 506.600763 189.482902 
L 506.805383 188.752318 
L 507.010002 188.603117 
L 507.214622 188.864853 
L 507.828481 190.122937 
L 508.033101 190.165949 
L 508.442341 190.047872 
L 508.64696 190.163398 
L 508.85158 190.580866 
L 509.465439 192.663247 
L 509.670059 192.822174 
L 509.874679 192.584273 
L 510.283918 191.664165 
L 510.488538 191.477181 
L 510.693158 191.580707 
L 511.920876 193.307791 
L 512.330115 195.121384 
L 512.739355 196.971597 
L 512.943975 197.469819 
L 513.148594 197.541324 
L 513.353214 197.112005 
L 513.762453 195.076203 
L 514.580932 191.000611 
L 514.990172 189.798071 
L 515.194792 189.780231 
L 515.604031 190.329767 
L 515.808651 190.327168 
L 516.01327 189.929805 
L 517.036369 186.866933 
L 517.445609 186.045869 
L 518.059468 185.820984 
L 518.264087 185.866243 
L 518.468707 186.135458 
L 518.877947 187.28053 
L 519.696426 190.107738 
L 519.901045 189.599087 
L 520.719524 184.353416 
L 520.924144 184.007763 
L 521.128764 184.136984 
L 521.333383 184.688888 
L 521.742623 186.637765 
L 522.356482 189.934263 
L 522.561102 190.53568 
L 522.765721 190.670694 
L 522.970341 190.321464 
L 523.5842 188.168362 
L 523.78882 187.904594 
L 524.811919 188.049086 
L 525.425778 189.012404 
L 525.630398 188.883916 
L 526.448876 187.260391 
L 526.653496 187.553362 
L 527.267355 190.030907 
L 528.495074 195.902735 
L 528.699693 196.049646 
L 528.904313 195.832966 
L 529.313553 194.310342 
L 529.722792 193.048047 
L 530.336651 192.866619 
L 530.95051 191.757361 
L 531.15513 191.778513 
L 531.56437 192.57799 
L 532.178229 194.044817 
L 532.382849 194.086415 
L 532.587468 193.741591 
L 533.405947 191.016908 
L 534.019806 188.432646 
L 534.224426 188.233697 
L 534.429046 188.454668 
L 535.247525 190.634789 
L 536.270623 191.552343 
L 536.475243 191.603743 
L 536.679863 191.205165 
L 538.72606 182.800681 
L 538.93068 182.695132 
L 539.339919 183.426113 
L 539.544539 183.800104 
L 539.749159 183.865655 
L 539.953778 183.55286 
L 540.567638 182.079838 
L 540.772257 182.062852 
L 541.386117 182.736627 
L 541.795356 183.588065 
L 542.204595 185.168549 
L 542.818455 188.001648 
L 543.227694 188.745975 
L 543.636934 189.453377 
L 544.250793 190.762658 
L 544.455412 190.855964 
L 544.660032 190.764101 
L 545.069272 190.108671 
L 546.09237 187.766813 
L 546.50161 187.429868 
L 546.706229 187.368559 
L 546.910849 187.178961 
L 547.524708 186.017411 
L 547.729328 186.004417 
L 547.933948 186.321759 
L 548.343187 187.889487 
L 548.752427 189.213978 
L 548.957046 188.970947 
L 549.570906 186.561621 
L 549.775525 186.340732 
L 549.980145 186.32042 
L 550.184765 186.175167 
L 550.389385 185.639938 
L 550.798624 183.247144 
L 551.207863 180.971306 
L 551.412483 180.781146 
L 551.617103 181.308431 
L 552.230962 184.918903 
L 552.640202 187.11535 
L 552.844821 187.660168 
L 553.049441 187.768772 
L 553.45868 187.405539 
L 553.86792 186.452862 
L 554.481779 184.300439 
L 554.686399 184.030535 
L 554.891019 184.097618 
L 555.300258 184.920329 
L 555.709497 186.565474 
L 556.527976 190.509562 
L 556.937216 191.864162 
L 557.346455 192.499611 
L 557.755695 193.023187 
L 558.164934 193.673661 
L 558.778793 194.160329 
L 558.983413 194.078572 
L 559.392653 193.222928 
L 559.801892 192.234132 
L 560.211131 191.809245 
L 560.415751 191.853422 
L 560.620371 192.129012 
L 560.824991 192.752042 
L 561.23423 195.080385 
L 561.64347 197.560102 
L 561.848089 198.186135 
L 562.052709 198.130409 
L 562.257329 197.414019 
L 563.075808 192.41209 
L 563.689667 188.536913 
L 563.894287 187.906174 
L 564.098906 187.933103 
L 564.508146 189.411752 
L 564.917385 190.53065 
L 565.122005 190.590515 
L 565.735864 190.064415 
L 565.940484 190.146683 
L 566.758963 191.28717 
L 566.963582 191.156599 
L 567.372822 190.42227 
L 567.782061 189.511438 
L 568.39592 188.962421 
L 569.214399 186.855007 
L 569.419019 186.945783 
L 569.623639 187.324539 
L 570.646737 190.390188 
L 570.851357 190.300732 
L 571.465216 189.417976 
L 571.669836 189.561919 
L 572.079076 190.843188 
L 572.488315 192.033951 
L 573.716033 194.069027 
L 573.920653 194.105425 
L 574.125273 193.869208 
L 574.534512 192.599896 
L 575.148371 190.32863 
L 575.557611 189.598906 
L 575.762231 189.512111 
L 575.96685 189.695447 
L 576.37609 190.869269 
L 576.785329 192.294418 
L 576.989949 192.64676 
L 577.194569 192.573683 
L 578.013048 190.881245 
L 578.626907 191.085877 
L 578.831527 191.245103 
L 579.650005 192.796725 
L 580.263865 192.681379 
L 581.082344 191.923593 
L 581.491583 191.435402 
L 582.310062 189.968892 
L 583.333161 187.607559 
L 583.53778 187.972232 
L 584.560879 192.08442 
L 584.765499 192.128253 
L 584.970118 191.76868 
L 585.583978 190.009082 
L 585.788597 189.982151 
L 586.402456 190.334037 
L 587.425555 192.56112 
L 587.630175 192.413301 
L 588.039414 191.004996 
L 588.653273 188.398791 
L 589.062513 187.471691 
L 589.267133 187.311261 
L 589.471752 187.330549 
L 590.290231 187.826434 
L 590.699471 187.688417 
L 590.90409 187.819789 
L 591.31333 188.723918 
L 591.722569 190.052699 
L 591.927189 190.368859 
L 592.131809 190.337722 
L 592.336429 190.142587 
L 592.541048 190.1211 
L 592.745668 190.553189 
L 593.154907 192.59314 
L 593.564147 194.658435 
L 593.768767 195.13423 
L 593.973386 195.039212 
L 594.382626 193.454148 
L 594.791865 191.896886 
L 595.201105 191.198567 
L 595.405724 190.996424 
L 595.610344 191.069378 
L 596.019584 191.694587 
L 596.224203 191.729771 
L 596.428823 191.422955 
L 597.042682 189.981973 
L 597.247302 189.899277 
L 597.656541 190.105296 
L 598.065781 190.619759 
L 598.47502 191.797616 
L 598.88426 192.943259 
L 599.08888 193.164303 
L 599.498119 193.127382 
L 599.702739 192.992854 
L 600.111978 192.260638 
L 600.521218 191.534158 
L 600.725837 191.684799 
L 601.135077 192.562818 
L 601.339697 192.705321 
L 601.544316 192.503169 
L 601.953556 191.257338 
L 602.567415 189.033129 
L 602.772035 188.756649 
L 603.385894 188.563045 
L 603.795133 187.404606 
L 604.204373 186.221932 
L 604.408992 185.888854 
L 604.613612 185.774701 
L 604.818232 185.926324 
L 605.227471 186.419056 
L 605.432091 186.296818 
L 606.25057 184.588398 
L 606.659809 184.943037 
L 606.864429 185.107755 
L 607.273669 185.021714 
L 607.478288 184.996198 
L 607.682908 185.162528 
L 608.501387 186.631368 
L 608.706007 186.586707 
L 609.115246 186.1117 
L 609.524486 185.61246 
L 610.138345 185.764063 
L 610.547584 185.08919 
L 610.956824 184.348661 
L 611.161443 184.259775 
L 611.570683 184.480749 
L 612.389162 185.479763 
L 612.593781 185.343939 
L 613.41226 183.606986 
L 613.61688 183.440021 
L 613.8215 183.02956 
L 614.435359 181.14743 
L 614.639979 181.38869 
L 616.072317 186.942885 
L 616.686176 190.647467 
L 617.504655 193.40962 
L 618.118514 194.801318 
L 618.323134 194.889118 
L 618.527754 194.631398 
L 619.346232 192.347672 
L 619.550852 192.446658 
L 619.960092 193.260589 
L 620.164711 193.215701 
L 620.778571 191.93026 
L 621.18781 190.670922 
L 621.597049 189.472522 
L 621.801669 189.355393 
L 622.210909 189.609217 
L 622.620148 189.945345 
L 622.824768 189.872419 
L 623.029388 189.484792 
L 623.643247 187.806525 
L 623.847866 187.789639 
L 624.052486 188.052483 
L 624.257106 188.565762 
L 625.075585 191.780721 
L 625.280205 191.479086 
L 625.894064 189.852619 
L 626.712543 189.41371 
L 627.940261 190.168776 
L 628.55412 190.826457 
L 628.75874 190.707953 
L 629.167979 189.392943 
L 629.577219 188.121992 
L 629.781839 188.035844 
L 630.191078 188.630853 
L 630.600317 189.241284 
L 630.804937 189.172973 
L 631.009557 188.706077 
L 631.828036 185.835498 
L 632.237275 185.346821 
L 632.441895 185.281521 
L 632.646515 185.42341 
L 633.055754 186.407215 
L 633.669613 188.92746 
L 634.283473 192.460689 
L 634.897332 197.154335 
L 635.101951 197.880536 
L 635.306571 197.893594 
L 635.92043 196.700028 
L 636.12505 196.473491 
L 636.32967 195.963121 
L 636.738909 193.529068 
L 637.557388 186.421963 
L 637.762008 185.731218 
L 637.966628 185.49012 
L 638.375867 185.62144 
L 638.580487 185.65644 
L 638.785107 185.460721 
L 638.989726 184.952656 
L 639.398966 182.883615 
L 639.808205 180.754302 
L 640.012825 180.425505 
L 640.217445 180.559575 
L 640.422064 181.03989 
L 641.035924 183.732088 
L 641.240543 183.889259 
L 641.649783 183.280753 
L 641.854402 183.500529 
L 642.672881 185.736759 
L 642.877501 185.553367 
L 643.9006 183.36072 
L 644.105219 183.463369 
L 644.514459 184.5224 
L 644.923698 186.166815 
L 645.537557 189.102903 
L 646.151417 190.511471 
L 646.765276 191.847508 
L 647.174515 192.603821 
L 647.992994 193.636482 
L 648.402234 194.325912 
L 648.606853 194.135123 
L 649.016093 192.744893 
L 649.425332 191.402327 
L 649.629952 191.424212 
L 649.834572 192.082781 
L 650.448431 195.549039 
L 650.653051 195.546174 
L 651.06229 193.177519 
L 651.47153 191.411414 
L 652.085389 190.944627 
L 652.494628 189.585312 
L 652.903868 188.034947 
L 653.108487 187.838341 
L 653.517727 188.229903 
L 653.926966 188.68654 
L 654.131586 188.738256 
L 654.540825 188.568799 
L 654.745445 188.813814 
L 655.154685 190.356031 
L 655.768544 193.063173 
L 655.973164 193.40134 
L 656.587023 193.651649 
L 656.996262 195.00169 
L 657.814741 198.889549 
L 658.019361 199.042431 
L 658.223981 198.557926 
L 659.247079 194.229385 
L 659.656319 192.743769 
L 660.270178 189.158877 
L 660.474798 188.815545 
L 660.679417 189.004487 
L 661.088657 189.649388 
L 661.293276 189.563235 
L 661.702516 188.975963 
L 661.907136 188.924207 
L 662.111755 189.23084 
L 662.520995 190.96732 
L 662.930234 192.577011 
L 663.339474 193.081712 
L 663.544093 193.258323 
L 664.157953 194.102036 
L 664.567192 193.766493 
L 665.590291 192.656377 
L 665.99953 192.353747 
L 666.613389 192.297835 
L 667.431868 191.787547 
L 667.841108 191.665934 
L 668.045727 191.752675 
L 668.864206 192.554606 
L 669.273446 192.683669 
L 669.478066 192.552764 
L 669.887305 191.880431 
L 670.501164 190.433637 
L 671.115023 188.359691 
L 671.524263 187.700576 
L 672.138122 185.426339 
L 672.342742 185.529053 
L 672.751981 187.297133 
L 673.161221 189.323386 
L 673.57046 190.350509 
L 673.9797 190.729641 
L 674.184319 190.543201 
L 674.593559 189.41855 
L 675.616657 186.336139 
L 675.821277 185.91824 
L 676.025897 185.839532 
L 676.435136 186.464731 
L 676.844376 187.703028 
L 677.662855 191.419484 
L 677.867474 191.816255 
L 678.072094 191.915938 
L 678.481334 191.750253 
L 678.685953 191.534771 
L 678.890573 190.97074 
L 679.709052 187.46777 
L 680.118291 187.01051 
L 680.527531 186.177729 
L 680.93677 185.207027 
L 681.14139 185.025778 
L 681.34601 185.315625 
L 681.550629 186.188812 
L 682.982967 195.048771 
L 683.801446 197.242799 
L 684.006066 197.195862 
L 684.415306 195.811193 
L 685.438404 192.046842 
L 686.052263 190.657587 
L 686.256883 190.643487 
L 686.461503 191.048491 
L 687.279982 193.824952 
L 687.484601 193.465091 
L 688.5077 189.205773 
L 688.71232 189.003254 
L 689.530799 189.039084 
L 689.735418 189.5439 
L 690.349278 192.34116 
L 690.553897 192.524346 
L 691.372376 191.882479 
L 692.190855 191.007634 
L 692.395475 191.201818 
L 692.804714 192.7531 
L 693.213954 194.073536 
L 694.441672 195.291018 
L 694.850912 195.253545 
L 695.464771 195.656445 
L 695.669391 195.37819 
L 696.28325 193.314312 
L 696.897109 190.954809 
L 697.510968 188.11822 
L 697.715588 187.90497 
L 697.920208 188.069188 
L 698.329447 189.180379 
L 699.147926 192.867994 
L 699.352546 193.133238 
L 699.761785 193.062278 
L 699.966405 193.197216 
L 700.171025 193.600288 
L 700.580264 195.324604 
L 700.989503 196.991116 
L 701.194123 197.055734 
L 701.398743 196.613309 
L 702.831081 191.779754 
L 703.035701 191.897846 
L 703.44494 193.157013 
L 703.85418 194.321541 
L 704.468039 194.813228 
L 704.877278 196.022836 
L 705.081898 196.669085 
L 705.286518 196.913186 
L 705.491137 196.513894 
L 705.900377 193.850449 
L 706.514236 189.906814 
L 707.332715 185.738564 
L 707.741954 183.508177 
L 707.946574 182.906538 
L 708.151194 182.822597 
L 708.560433 183.439624 
L 708.765053 183.4802 
L 708.969673 183.129752 
L 709.378912 182.083353 
L 709.583532 182.000021 
L 709.788152 182.347897 
L 711.01587 186.102612 
L 711.42511 186.285352 
L 711.629729 186.317993 
L 711.834349 186.201068 
L 712.038969 185.682436 
L 712.448208 183.354393 
L 713.266687 178.777192 
L 713.880546 176.614654 
L 714.085166 176.364095 
L 714.289786 176.558906 
L 714.699025 177.896953 
L 716.335983 183.809846 
L 716.949842 184.451215 
L 718.38218 186.023004 
L 718.5868 185.804082 
L 718.79142 185.242111 
L 719.200659 182.922254 
L 719.609899 180.607944 
L 719.814518 180.225795 
L 720.019138 180.389761 
L 720.632997 182.179849 
L 720.837617 182.221045 
L 721.656096 180.903051 
L 722.065335 180.829779 
L 722.269955 180.811445 
L 722.474575 180.653789 
L 723.088434 179.766445 
L 723.293054 180.027458 
L 724.520772 183.948855 
L 724.930011 185.125629 
L 725.134631 185.156223 
L 725.339251 184.638313 
L 725.74849 181.899786 
L 726.36235 176.866401 
L 726.566969 176.536248 
L 726.771589 177.213785 
L 727.999307 185.69429 
L 728.408547 186.70968 
L 728.613167 186.688468 
L 728.817786 186.396807 
L 729.431645 184.989682 
L 729.636265 185.071501 
L 730.454744 186.509017 
L 730.659364 186.766473 
L 730.863984 187.222621 
L 731.273223 189.238298 
L 731.887082 192.621105 
L 732.296322 193.810368 
L 732.500941 193.928802 
L 732.705561 193.550582 
L 733.52404 189.807254 
L 733.72866 189.777883 
L 734.137899 189.93368 
L 734.547139 189.615429 
L 734.751758 189.443408 
L 734.956378 189.428022 
L 735.365618 190.035278 
L 735.570237 190.320964 
L 735.774857 190.260077 
L 735.979477 189.796846 
L 737.002575 186.214365 
L 737.207195 186.408693 
L 737.616435 188.149605 
L 738.230294 191.296286 
L 738.639533 192.503748 
L 739.253392 193.433166 
L 739.662632 193.847258 
L 740.071871 194.396516 
L 740.276491 194.265024 
L 740.68573 192.94045 
L 741.708829 188.89381 
L 741.913449 189.329347 
L 742.936547 195.531991 
L 743.141167 195.416229 
L 743.550407 193.988672 
L 744.368886 190.826441 
L 744.573505 190.493969 
L 744.778125 190.571418 
L 745.596604 192.248048 
L 746.210463 192.609137 
L 746.619703 193.418551 
L 746.824322 193.532369 
L 747.028942 193.300077 
L 747.438181 191.929171 
L 748.052041 189.459819 
L 748.46128 188.258461 
L 748.6659 187.912124 
L 748.87052 187.909601 
L 749.484379 188.679547 
L 749.688998 188.530116 
L 750.302858 187.71468 
L 750.916717 187.378442 
L 751.121337 187.543538 
L 751.530576 188.677266 
L 752.144435 190.665596 
L 752.349055 190.873986 
L 752.758294 190.950951 
L 752.962914 191.353696 
L 753.576773 193.396706 
L 753.781393 193.49908 
L 753.986013 193.157337 
L 754.599872 191.423158 
L 754.804492 191.282375 
L 755.009111 191.455428 
L 755.418351 192.466445 
L 756.03221 194.585228 
L 756.23683 194.998391 
L 756.441449 195.104353 
L 756.646069 194.903239 
L 757.873787 192.699944 
L 758.487647 192.493034 
L 758.692266 192.522358 
L 758.896886 192.686927 
L 759.306126 193.54809 
L 759.919985 195.259237 
L 760.533844 195.85865 
L 761.556943 196.244889 
L 761.966182 195.601727 
L 764.216999 190.997391 
L 764.421619 190.802247 
L 764.830858 190.752328 
L 765.035478 190.577219 
L 765.240098 190.133345 
L 765.649337 188.281546 
L 766.058577 186.467011 
L 766.263196 186.26222 
L 766.467816 186.508513 
L 766.877055 187.663674 
L 767.490915 189.473184 
L 767.695534 189.524343 
L 767.900154 189.249953 
L 768.514013 187.632249 
L 768.718633 187.552423 
L 768.923253 187.847665 
L 769.537112 189.43626 
L 770.355591 190.247076 
L 770.560211 190.266077 
L 770.96945 189.730598 
L 771.378689 189.191199 
L 771.992549 188.881645 
L 772.197168 188.917532 
L 772.401788 189.158475 
L 773.015647 190.47669 
L 773.629506 190.963134 
L 774.038746 191.99583 
L 775.061845 195.726869 
L 775.266464 195.776661 
L 775.471084 195.198456 
L 776.084943 192.231067 
L 776.289563 191.869666 
L 776.494183 191.945437 
L 776.903422 192.960259 
L 777.517281 195.010281 
L 777.721901 195.288305 
L 777.926521 195.081586 
L 778.33576 193.38739 
L 778.949619 190.476955 
L 779.358859 189.991146 
L 779.768098 189.369026 
L 780.177338 188.72584 
L 780.995817 188.265538 
L 781.200436 188.681747 
L 781.609676 190.814166 
L 782.018915 192.82632 
L 782.428155 193.606463 
L 782.632774 193.69555 
L 782.837394 193.583393 
L 783.246634 192.86454 
L 784.065113 190.30755 
L 784.474352 189.708743 
L 784.678972 189.597524 
L 784.883591 189.858315 
L 785.292831 190.877901 
L 785.497451 190.895229 
L 785.70207 190.336182 
L 786.11131 188.46599 
L 786.31593 188.04991 
L 786.520549 188.331441 
L 786.929789 189.674628 
L 787.134408 189.899943 
L 787.543648 189.709664 
L 787.748268 189.860269 
L 788.157507 190.696583 
L 788.362127 190.802736 
L 788.566747 190.407493 
L 789.180606 188.188501 
L 789.589845 187.544509 
L 789.794465 187.436565 
L 789.999085 187.490637 
L 790.408324 188.092292 
L 791.636042 190.712697 
L 791.840662 190.734054 
L 792.045282 190.279606 
L 792.863761 187.44175 
L 793.068381 187.444236 
L 793.68224 188.243607 
L 794.091479 187.910082 
L 794.500719 187.685242 
L 794.909958 187.859466 
L 795.114578 187.703723 
L 795.933057 185.973763 
L 796.137676 186.061996 
L 796.546916 186.955724 
L 797.774634 190.454822 
L 797.979254 190.631648 
L 798.388493 190.46012 
L 798.593113 190.209606 
L 799.411592 188.65102 
L 799.616212 188.248573 
L 800.434691 185.177468 
L 800.84393 184.918492 
L 801.04855 184.767262 
L 801.457789 184.196961 
L 801.662409 184.135439 
L 802.071648 184.554723 
L 802.276268 184.996712 
L 802.685508 186.876232 
L 803.094747 189.171126 
L 803.299367 189.86421 
L 803.503987 190.128586 
L 803.708606 190.049213 
L 804.117846 189.611567 
L 804.322465 189.574746 
L 804.527085 189.726911 
L 804.936325 190.552403 
L 805.345564 191.347249 
L 805.550184 191.403083 
L 806.368663 190.784023 
L 806.777902 190.160957 
L 807.596381 188.609773 
L 808.21024 188.263328 
L 808.41486 187.837068 
L 809.028719 185.271159 
L 810.051818 180.965991 
L 810.665677 176.661384 
L 810.870297 175.976392 
L 811.074916 175.72472 
L 811.484156 175.72797 
L 811.688776 175.876745 
L 812.098015 176.642121 
L 812.916494 178.95065 
L 813.325733 179.352856 
L 813.939593 179.296827 
L 814.144212 179.62599 
L 814.758072 181.11294 
L 814.962691 180.995392 
L 815.57655 180.001002 
L 815.98579 178.529003 
L 817.008889 172.390414 
L 817.213508 172.112567 
L 817.418128 172.322446 
L 817.827367 173.671932 
L 818.236607 174.950292 
L 818.441227 175.136142 
L 819.055086 174.921124 
L 819.668945 175.34664 
L 820.487424 175.324418 
L 820.896663 175.65037 
L 821.715142 176.503266 
L 822.329001 178.13945 
L 822.942861 178.154798 
L 823.3521 179.055757 
L 823.55672 179.221313 
L 823.76134 178.945458 
L 824.170579 177.217725 
L 824.579818 175.098872 
L 824.784438 174.615023 
L 824.989058 174.754422 
L 825.398297 176.32398 
L 825.807537 178.96254 
L 826.830635 187.019778 
L 827.239875 188.285376 
L 827.649114 189.030926 
L 828.058354 190.540182 
L 828.467593 192.133021 
L 828.672213 192.312125 
L 828.876833 191.911567 
L 829.286072 189.80796 
L 830.104551 184.375241 
L 830.309171 184.054115 
L 830.513791 184.178777 
L 831.332269 185.54958 
L 831.741509 186.1442 
L 831.946129 185.976588 
L 832.559988 184.826349 
L 832.764608 184.880052 
L 833.378467 185.553504 
L 833.583086 185.58775 
L 834.401565 185.314684 
L 835.220044 186.048242 
L 835.629284 186.114422 
L 836.447763 187.150531 
L 836.857002 186.604788 
L 837.470861 185.542119 
L 837.675481 185.558462 
L 839.107819 187.688436 
L 839.721678 188.794574 
L 839.926298 189.000385 
L 840.130918 189.010727 
L 840.540157 188.858118 
L 840.949397 188.923522 
L 841.154016 188.765142 
L 841.563256 187.96453 
L 842.177115 186.423458 
L 842.381735 186.278938 
L 842.586354 186.648391 
L 842.995594 188.902482 
L 843.609453 192.725446 
L 843.814073 193.331552 
L 844.018692 193.285505 
L 844.223312 192.510029 
L 845.246411 185.898744 
L 845.451031 185.712285 
L 846.06489 185.920567 
L 846.678749 185.744113 
L 846.883369 185.515929 
L 847.087988 184.831131 
L 847.497228 181.981357 
L 847.906467 179.013196 
L 848.111087 178.196542 
L 848.315707 177.947999 
L 848.929566 178.381925 
L 849.134186 178.275738 
L 849.338805 177.762893 
L 849.543425 176.539491 
L 849.952665 171.621499 
L 850.566524 160.973891 
L 851.794242 136.365764 
L 851.998862 135.941818 
L 852.203482 137.077705 
L 852.612721 142.976517 
L 853.63582 160.546089 
L 854.658918 172.669382 
L 855.886637 184.58304 
L 856.091256 185.498176 
L 856.295876 185.900251 
L 856.500496 185.718048 
L 856.909735 183.960311 
L 857.318975 181.811464 
L 857.523594 181.160725 
L 857.728214 180.938423 
L 857.932834 181.118637 
L 858.342073 182.201066 
L 859.569792 186.484024 
L 859.979031 186.895415 
L 860.183651 186.907821 
L 860.388271 186.62566 
L 860.79751 184.939567 
L 861.615989 180.367028 
L 861.820609 179.8734 
L 862.229848 179.606673 
L 862.639088 179.69852 
L 863.252947 179.897205 
L 863.866806 179.820243 
L 864.276045 180.130825 
L 864.685285 180.020432 
L 865.094524 179.898614 
L 866.117623 180.000725 
L 866.526862 180.159383 
L 866.731482 180.062687 
L 867.754581 178.51325 
L 868.16382 178.598902 
L 868.36844 178.352387 
L 868.982299 177.130468 
L 869.391539 176.624832 
L 870.210018 174.442978 
L 870.414637 174.485069 
L 870.619257 174.98699 
L 871.233116 177.166116 
L 871.437736 177.285489 
L 871.642356 176.911648 
L 872.051595 175.036585 
L 872.665454 172.175833 
L 873.074694 171.34356 
L 873.279313 171.323756 
L 873.483933 171.430128 
L 873.688553 171.683454 
L 874.302412 173.49361 
L 874.507032 173.466591 
L 874.916271 171.845548 
L 875.325511 170.231078 
L 875.73475 169.619472 
L 875.93937 169.73523 
L 876.14399 170.222594 
L 876.553229 172.312316 
L 877.167088 176.306549 
L 877.371708 177.025663 
L 877.576328 177.274924 
L 878.190187 177.226374 
L 878.599426 177.246141 
L 879.213285 176.703462 
L 879.622525 176.775019 
L 880.031764 176.482332 
L 880.441004 175.675339 
L 880.850243 173.968802 
L 881.668722 170.070745 
L 882.282581 168.168515 
L 882.691821 167.47488 
L 882.896441 167.41985 
L 883.5103 168.130524 
L 883.714919 167.946208 
L 883.919539 167.208483 
L 884.942638 161.465261 
L 885.147258 161.30035 
L 885.761117 161.999246 
L 885.965736 161.734326 
L 886.374976 160.012178 
L 887.193455 155.708795 
L 887.398075 155.282925 
L 887.602694 155.296038 
L 888.011934 156.231954 
L 888.421173 157.086711 
L 888.830413 157.260947 
L 889.239652 157.043517 
L 889.444272 156.654939 
L 889.853511 154.898432 
L 892.104328 141.604005 
L 892.513568 139.772529 
L 892.922807 138.914129 
L 893.127427 138.882864 
L 893.741286 139.471976 
L 893.945906 139.350957 
L 894.355145 138.295263 
L 894.969004 136.469726 
L 895.378244 135.747168 
L 895.787483 134.297687 
L 897.219821 125.445178 
L 897.629061 121.848968 
L 898.44754 113.9796 
L 899.266019 108.493656 
L 899.879878 101.656971 
L 900.493737 91.419249 
L 901.107596 75.031961 
L 901.516836 65.634103 
L 901.721455 64.084669 
L 901.926075 64.865564 
L 903.972272 85.894303 
L 904.381512 89.020521 
L 904.790751 90.547335 
L 904.995371 90.700787 
L 905.199991 90.602583 
L 905.60923 89.949907 
L 906.01847 88.713179 
L 906.836949 85.771551 
L 907.450808 84.019622 
L 907.655428 83.924506 
L 907.860047 84.307957 
L 908.473906 86.583602 
L 908.678526 86.771066 
L 908.883146 86.441675 
L 909.292385 84.542676 
L 910.520104 76.334805 
L 911.543202 71.481462 
L 911.747822 71.254661 
L 911.952442 71.758343 
L 912.361681 74.704304 
L 912.97554 79.628335 
L 913.794019 84.412994 
L 913.998639 84.942405 
L 914.203259 84.940347 
L 914.407878 84.411372 
L 914.817118 82.140543 
L 915.430977 77.976191 
L 915.635597 77.370923 
L 915.840217 77.569342 
L 916.044836 78.723518 
L 916.454076 83.388049 
L 917.067935 90.21944 
L 917.272555 90.769016 
L 917.477174 90.274256 
L 917.886414 87.601716 
L 918.500273 82.061485 
L 918.909512 76.200378 
L 919.318752 64.246197 
L 919.727991 42.581995 
L 920.286856 -1 
M 921.420737 -1 
L 922.388048 51.787676 
L 922.797287 64.633467 
L 923.411146 75.900855 
L 924.638865 92.157304 
L 925.048104 95.425749 
L 925.252724 96.355938 
L 925.457344 96.465592 
L 925.661963 95.734032 
L 926.480442 91.03952 
L 926.685062 90.594997 
L 926.889682 90.516357 
L 927.91278 91.207075 
L 928.731259 93.304469 
L 929.140499 93.237048 
L 929.549738 92.994689 
L 930.368217 91.916146 
L 930.572837 92.566521 
L 931.595936 98.794931 
L 931.800555 98.898018 
L 932.005175 98.581197 
L 932.414414 97.2062 
L 933.437513 93.005199 
L 933.642133 93.38921 
L 934.665231 97.100308 
L 935.074471 97.8604 
L 935.279091 97.918188 
L 935.68833 97.800942 
L 935.89295 97.98423 
L 936.302189 99.084991 
L 936.711429 100.154099 
L 937.325288 100.822845 
L 938.143767 102.736442 
L 938.757626 105.957573 
L 939.576105 110.873114 
L 939.985344 112.753036 
L 940.189964 112.736096 
L 941.008443 110.987536 
L 941.213063 111.044382 
L 941.622302 111.697425 
L 942.440781 113.279358 
L 942.645401 114.136009 
L 943.05464 117.365887 
L 943.668499 122.595775 
L 944.282359 125.9775 
L 945.100838 129.493492 
L 945.714697 132.064773 
L 946.328556 133.973679 
L 947.556274 138.151085 
L 947.965514 138.951556 
L 948.170133 138.826761 
L 948.579373 138.342482 
L 948.783993 138.62657 
L 949.193232 139.494174 
L 949.397852 139.731158 
L 949.602472 140.196222 
L 949.807091 141.237255 
L 950.62557 147.920948 
L 950.83019 148.132452 
L 951.239429 147.535381 
L 951.444049 147.888649 
L 952.467148 152.621171 
L 952.876387 153.290048 
L 953.081007 153.494556 
L 953.490246 154.384966 
L 954.513345 156.803558 
L 955.127204 158.055257 
L 955.536444 159.585848 
L 956.150303 162.109946 
L 956.764162 163.667313 
L 957.582641 164.748334 
L 958.810359 169.009272 
L 959.014979 169.06649 
L 959.628838 168.424404 
L 959.833458 168.723329 
L 960.242697 170.268353 
L 962.084275 179.136164 
L 962.288895 179.161345 
L 962.493514 178.884668 
L 962.902754 177.728994 
L 964.130472 172.166056 
L 964.744331 170.808608 
L 965.56281 169.887524 
L 965.76743 169.72382 
L 965.97205 169.725428 
L 966.381289 170.219893 
L 966.790529 170.81548 
L 966.995148 170.975288 
L 967.199768 170.979546 
L 967.609007 170.666109 
L 967.813627 170.759746 
L 968.632106 172.346743 
L 969.041346 172.060774 
L 969.450585 172.210519 
L 969.859824 172.492585 
L 970.269064 173.211845 
L 970.882923 174.381832 
L 971.087543 174.530045 
L 971.292163 174.493827 
L 971.496782 174.194315 
L 972.110641 172.313879 
L 972.315261 172.247637 
L 972.519881 172.901905 
L 973.33836 177.965317 
L 973.54298 178.294798 
L 973.952219 178.345503 
L 974.156839 178.257153 
L 974.566078 177.635915 
L 975.179937 176.606243 
L 975.589177 175.87125 
L 976.203036 174.42874 
L 976.407656 174.331574 
L 976.612275 174.644023 
L 977.021515 176.566408 
L 977.430754 178.710654 
L 977.635374 179.25711 
L 977.839994 179.386196 
L 978.249233 179.183445 
L 979.272332 179.60657 
L 980.090811 179.360532 
L 980.50005 178.583046 
L 980.90929 177.538604 
L 981.113909 177.286841 
L 981.318529 177.464004 
L 981.727769 179.059476 
L 982.341628 181.745168 
L 982.750867 182.875437 
L 983.978586 185.07928 
L 984.387825 186.061877 
L 984.592445 186.076879 
L 985.001684 185.539349 
L 985.206304 185.667068 
L 986.024783 187.579165 
L 986.229403 187.527953 
L 986.638642 186.848447 
L 987.047882 186.216409 
L 987.661741 185.668261 
L 988.07098 185.20841 
L 988.48022 185.048943 
L 988.684839 185.172381 
L 988.889459 185.686853 
L 989.912558 190.450448 
L 990.117177 190.325012 
L 990.526417 189.063373 
L 991.754135 184.516467 
L 992.367994 182.459796 
L 992.777234 181.754821 
L 992.981854 181.702882 
L 993.186473 181.857971 
L 993.391093 182.23474 
L 993.800332 183.74577 
L 994.209572 185.624669 
L 994.414192 186.163177 
L 994.618811 186.280665 
L 995.028051 185.907923 
L 995.232671 186.031631 
L 995.64191 187.168219 
L 996.051149 188.696143 
L 996.255769 189.029643 
L 996.460389 188.825938 
L 996.869628 187.028554 
L 997.278868 184.913818 
L 997.483488 184.700056 
L 997.688107 185.264146 
L 998.301966 188.236399 
L 998.506586 188.672605 
L 998.711206 188.837245 
L 998.915826 188.804805 
L 999.120445 188.539095 
L 999.529685 187.208616 
L 999.938924 185.845752 
L 1000.552783 184.447798 
L 1000.757403 184.408286 
L 1001.371262 185.833806 
L 1001.575882 185.733594 
L 1001.985122 184.184776 
L 1002.394361 182.701491 
L 1002.598981 182.382186 
L 1003.00822 182.324123 
L 1003.622079 182.4049 
L 1004.031319 183.20812 
L 1005.259037 186.545709 
L 1005.668277 187.258307 
L 1006.691375 190.114298 
L 1006.895995 190.473409 
L 1007.100615 190.597736 
L 1007.305234 190.492026 
L 1007.919094 189.833467 
L 1008.123713 189.963214 
L 1008.737573 191.197774 
L 1009.146812 191.960878 
L 1009.351432 191.987219 
L 1009.556051 191.644078 
L 1009.965291 190.145721 
L 1010.57915 187.963082 
L 1010.98839 187.318542 
L 1011.397629 187.069275 
L 1011.602249 186.533391 
L 1012.625347 182.350403 
L 1012.829967 182.074464 
L 1013.443826 181.932608 
L 1013.853066 180.77401 
L 1014.671545 178.216993 
L 1014.876164 178.014543 
L 1015.080784 178.254106 
L 1015.490024 179.628921 
L 1016.922362 184.954168 
L 1017.331601 185.101044 
L 1017.536221 185.157228 
L 1017.740841 185.357784 
L 1018.15008 186.25664 
L 1018.763939 187.852756 
L 1018.968559 187.894108 
L 1019.173179 187.481941 
L 1019.582418 185.518956 
L 1020.810136 177.45716 
L 1021.014756 177.077563 
L 1021.219376 176.993351 
L 1021.423996 177.07968 
L 1021.628615 177.365449 
L 1022.037855 178.907884 
L 1022.651714 181.872883 
L 1023.060953 182.790359 
L 1023.265573 182.72361 
L 1023.674813 182.230811 
L 1023.879432 182.166039 
L 1024.288672 182.515272 
L 1024.902531 183.580795 
L 1025.107151 183.555326 
L 1025.51639 182.822367 
L 1025.72101 182.753284 
L 1026.539489 184.096025 
L 1027.153348 184.351985 
L 1027.357968 184.221081 
L 1027.562587 183.764489 
L 1027.971827 181.941586 
L 1028.585686 179.113458 
L 1028.994925 178.246935 
L 1030.018024 178.086164 
L 1030.222644 178.376705 
L 1030.631883 179.613564 
L 1031.041123 181.658144 
L 1031.654982 187.082179 
L 1032.064221 190.794861 
L 1032.473461 192.596795 
L 1032.678081 192.744743 
L 1033.29194 192.161585 
L 1033.496559 192.237498 
L 1034.110419 193.108559 
L 1034.928898 194.164428 
L 1035.133517 194.107369 
L 1035.338137 193.711403 
L 1035.747376 191.844537 
L 1036.156616 189.853283 
L 1036.361236 189.476805 
L 1036.565855 189.66915 
L 1036.975095 191.409944 
L 1037.384334 192.946849 
L 1037.588954 193.003828 
L 1037.998193 191.833495 
L 1039.635151 186.193928 
L 1039.839771 186.418177 
L 1041.885968 192.3412 
L 1042.090588 192.3454 
L 1042.499827 191.586873 
L 1043.932166 187.9259 
L 1044.546025 187.483114 
L 1044.750644 187.233615 
L 1044.955264 187.26382 
L 1045.159884 187.825126 
L 1045.978363 191.919615 
L 1046.182983 192.282606 
L 1046.387602 192.269937 
L 1046.796842 191.417699 
L 1047.206081 190.684603 
L 1047.615321 190.47636 
L 1048.02456 189.819227 
L 1048.4338 188.92429 
L 1048.843039 188.62091 
L 1049.252278 188.688835 
L 1049.456898 188.858394 
L 1049.866138 189.706525 
L 1050.275377 190.697096 
L 1050.479997 190.896405 
L 1050.889236 190.928162 
L 1051.093856 191.277224 
L 1051.912335 194.233374 
L 1052.321574 194.30018 
L 1052.730814 194.34945 
L 1052.935434 194.142861 
L 1053.344673 192.806583 
L 1053.753912 191.266018 
L 1053.958532 190.870954 
L 1054.163152 190.737947 
L 1054.367772 190.887841 
L 1055.186251 192.373271 
L 1056.004729 192.29907 
L 1056.209349 192.094539 
L 1056.618589 190.802551 
L 1057.027828 189.594215 
L 1057.232448 189.613819 
L 1057.641687 190.187863 
L 1057.846307 190.197165 
L 1058.255546 189.941571 
L 1058.460166 189.936471 
L 1058.664786 190.048848 
L 1059.074025 190.563712 
L 1059.278645 190.560457 
L 1059.483265 190.072999 
L 1060.097124 187.609851 
L 1060.301744 187.425027 
L 1060.915603 187.727994 
L 1061.324842 187.50541 
L 1061.734082 186.960175 
L 1062.143321 186.020878 
L 1062.552561 185.050133 
L 1062.75718 185.254763 
L 1063.575659 188.079133 
L 1063.780279 187.941503 
L 1064.189519 186.717978 
L 1064.803378 184.355438 
L 1065.007997 184.383935 
L 1065.417237 185.823972 
L 1065.826476 186.985484 
L 1066.235716 187.590588 
L 1066.440335 187.740862 
L 1066.644955 187.550315 
L 1066.849575 186.765826 
L 1067.463434 182.738184 
L 1067.668054 182.367484 
L 1067.872674 182.741249 
L 1069.509631 189.726367 
L 1069.714251 189.910884 
L 1069.918871 189.815559 
L 1070.32811 189.392111 
L 1070.73735 189.327251 
L 1070.941969 189.436819 
L 1071.146589 189.806829 
L 1072.169688 192.935553 
L 1072.783547 193.660167 
L 1072.988167 193.731788 
L 1073.397406 193.442017 
L 1073.602026 193.101562 
L 1074.011265 191.616215 
L 1074.420505 190.020152 
L 1074.829744 189.445324 
L 1075.238984 189.169989 
L 1075.443603 189.234786 
L 1076.057463 190.19568 
L 1076.262082 190.072035 
L 1076.671322 189.168652 
L 1077.080561 187.491822 
L 1077.489801 185.758484 
L 1077.69442 185.418419 
L 1077.89904 185.535847 
L 1078.10366 186.097562 
L 1078.512899 188.569501 
L 1079.126759 192.801408 
L 1079.535998 194.259068 
L 1080.149857 195.459493 
L 1080.354477 195.646606 
L 1080.559097 195.481686 
L 1080.763716 194.758701 
L 1081.582195 190.285506 
L 1082.400674 188.520376 
L 1083.014533 185.988131 
L 1083.219153 185.600422 
L 1083.423773 185.598044 
L 1084.037632 186.116343 
L 1084.651491 186.254757 
L 1085.67459 186.253719 
L 1085.87921 186.548643 
L 1086.288449 187.7726 
L 1086.902308 189.961458 
L 1087.106928 190.141504 
L 1087.311548 189.899305 
L 1087.925407 188.640632 
L 1088.334646 188.177099 
L 1089.153125 186.104747 
L 1089.357745 186.162359 
L 1089.766984 186.948689 
L 1090.176224 188.210923 
L 1091.403942 193.227141 
L 1091.608562 193.467633 
L 1091.813182 193.30313 
L 1092.222421 191.994055 
L 1092.631661 190.434828 
L 1092.83628 190.004086 
L 1093.0409 189.943976 
L 1093.450139 190.678682 
L 1094.268618 192.4386 
L 1094.473238 192.724016 
L 1094.677858 192.752516 
L 1095.087097 192.087457 
L 1095.905576 190.503231 
L 1096.314816 189.827118 
L 1096.928675 189.594227 
L 1097.337914 188.441138 
L 1097.747154 186.868971 
L 1097.951773 186.500133 
L 1098.156393 186.793294 
L 1098.974872 190.363745 
L 1099.179492 190.361046 
L 1099.588731 189.270111 
L 1099.997971 188.344135 
L 1101.021069 187.336674 
L 1101.225689 187.431237 
L 1101.430309 188.015751 
L 1102.044168 191.433156 
L 1102.248788 191.85091 
L 1102.453407 191.757075 
L 1102.658027 191.252077 
L 1103.067267 189.374672 
L 1103.885746 185.232562 
L 1104.294985 184.405034 
L 1104.499605 184.282719 
L 1104.704224 184.386618 
L 1104.908844 184.812352 
L 1105.318084 186.996568 
L 1106.341182 195.130944 
L 1106.545802 195.418287 
L 1106.955041 195.033612 
L 1107.364281 194.34677 
L 1107.77352 192.381461 
L 1108.387379 188.24384 
L 1108.591999 187.499862 
L 1108.796619 187.224863 
L 1109.001239 187.4844 
L 1109.410478 189.286816 
L 1109.819718 190.961902 
L 1110.024337 191.109916 
L 1110.228957 190.785118 
L 1111.047436 188.260844 
L 1111.661295 187.567654 
L 1112.479774 187.084467 
L 1112.684394 187.127774 
L 1113.093633 188.125136 
L 1113.707492 189.811628 
L 1113.912112 189.864109 
L 1114.116732 189.389996 
L 1114.730591 187.414116 
L 1114.935211 187.237452 
L 1115.13983 187.302415 
L 1115.34445 187.736269 
L 1115.75369 189.848147 
L 1116.367549 193.023318 
L 1116.572169 193.61434 
L 1116.776788 193.773534 
L 1117.186028 193.36888 
L 1117.390647 193.398107 
L 1117.595267 193.699039 
L 1118.209126 195.110936 
L 1118.413746 195.193427 
L 1118.822986 194.946434 
L 1119.232225 194.540671 
L 1119.641464 193.67724 
L 1120.050704 192.778481 
L 1121.073803 191.784618 
L 1121.892281 190.280639 
L 1122.096901 190.456829 
L 1122.91538 192.272601 
L 1124.143098 195.273797 
L 1124.552338 196.859078 
L 1124.756958 197.306062 
L 1124.961577 197.316798 
L 1125.370817 196.400347 
L 1126.189296 194.153097 
L 1126.803155 191.946529 
L 1127.417014 191.092892 
L 1127.621634 190.33497 
L 1128.030873 187.374003 
L 1128.644732 182.425236 
L 1128.849352 182.178614 
L 1129.053972 182.799865 
L 1129.667831 185.592736 
L 1130.48631 188.039893 
L 1130.69093 187.970221 
L 1131.304789 186.629389 
L 1131.509409 186.689008 
L 1131.714028 187.211326 
L 1132.327888 189.484328 
L 1132.532507 189.479151 
L 1133.146366 188.661457 
L 1133.760226 188.596587 
L 1133.964845 188.409527 
L 1134.169465 188.034575 
L 1134.578705 186.380359 
L 1134.987944 184.458434 
L 1135.192564 183.896732 
L 1135.397183 183.709031 
L 1135.601803 184.025285 
L 1135.806423 184.922695 
L 1136.624902 190.603992 
L 1136.829522 191.034142 
L 1137.034141 191.015564 
L 1137.443381 190.703646 
L 1138.05724 190.542948 
L 1138.26186 190.789562 
L 1139.080339 193.215039 
L 1139.284958 192.587141 
L 1139.898817 189.360058 
L 1140.103437 189.084171 
L 1140.308057 189.335501 
L 1140.921916 190.984353 
L 1141.126536 191.102513 
L 1141.535775 190.712486 
L 1141.945015 190.048321 
L 1142.354254 188.805737 
L 1142.763494 187.614092 
L 1142.968113 187.608287 
L 1143.172733 187.737586 
L 1143.377353 187.669345 
L 1143.991212 186.874508 
L 1144.195832 187.102779 
L 1145.21893 189.021252 
L 1145.62817 189.946898 
L 1146.037409 190.828826 
L 1146.242029 190.659748 
L 1146.651268 189.031458 
L 1147.265128 186.601973 
L 1147.878987 185.051393 
L 1148.083606 184.832061 
L 1148.492846 184.956152 
L 1148.902085 185.182245 
L 1149.311325 185.830996 
L 1149.925184 187.033459 
L 1150.129804 186.915536 
L 1150.539043 185.680718 
L 1151.357522 182.285524 
L 1151.766762 181.567927 
L 1152.176001 181.099363 
L 1152.380621 181.056681 
L 1152.58524 181.349071 
L 1152.99448 182.828888 
L 1153.608339 184.974632 
L 1154.017579 185.6492 
L 1154.222198 185.762795 
L 1154.631438 185.804762 
L 1154.836057 186.259734 
L 1155.245297 188.892192 
L 1155.859156 193.242413 
L 1156.063776 193.801088 
L 1156.268396 193.827941 
L 1156.473015 193.331243 
L 1156.882255 191.796477 
L 1157.086874 191.470421 
L 1157.291494 191.697864 
L 1157.496114 192.484095 
L 1158.314593 196.980015 
L 1158.519213 196.656151 
L 1159.337691 192.708102 
L 1159.542311 192.378989 
L 1159.951551 192.140861 
L 1160.77003 191.132139 
L 1161.383889 191.018005 
L 1161.793128 191.226346 
L 1161.997748 191.085761 
L 1162.611607 190.053288 
L 1163.225466 189.859192 
L 1163.430086 189.537416 
L 1163.839325 188.079126 
L 1164.453185 185.24482 
L 1164.657804 185.019679 
L 1164.862424 185.350456 
L 1165.680903 188.582121 
L 1165.885523 188.33875 
L 1166.499382 186.385416 
L 1166.908621 185.349212 
L 1167.113241 185.452844 
L 1168.954819 189.925677 
L 1169.773298 191.630217 
L 1170.591776 193.347013 
L 1171.410255 195.597092 
L 1171.819495 196.643318 
L 1172.024115 196.786366 
L 1172.228734 196.457643 
L 1173.047213 193.99253 
L 1173.456453 192.87288 
L 1174.274932 189.77931 
L 1175.09341 188.631877 
L 1176.730368 185.589663 
L 1176.934988 185.674094 
L 1177.344227 186.664536 
L 1177.958087 188.616831 
L 1178.571946 190.971539 
L 1178.981185 191.613517 
L 1179.799664 191.635358 
L 1180.004284 191.325737 
L 1180.618143 189.586543 
L 1180.822763 189.352719 
L 1181.027383 189.341485 
L 1182.050481 190.221773 
L 1182.459721 189.962009 
L 1182.66434 189.88333 
L 1182.86896 190.074305 
L 1183.278199 191.253192 
L 1184.096678 194.612013 
L 1184.301298 194.87415 
L 1184.505918 194.849935 
L 1184.710538 194.644893 
L 1184.710538 194.644893 
" clip-path="url(#p1536610039)" style="fill: none; stroke: #000000; stroke-width: 2; stroke-linecap: square"/>
   </g>
   <g id="patch_3">
    <path d="M 3.00024 198.907885 
L 1184.99976 198.907885 
" style="fill: none; stroke: #000000; stroke-width: 2; stroke-linejoin: miter; stroke-linecap: square"/>
   </g>
  </g>
 </g>
 <defs>
  <clipPath id="p1536610039">
   <rect x="3.00024" y="3.00024" width="1181.99952" height="195.907645"/>
  </clipPath>
 </defs>
</svg>
