<?xml version="1.0" encoding="utf-8" standalone="no"?>
<!DOCTYPE svg PUBLIC "-//W3C//DTD SVG 1.1//EN"
  "http://www.w3.org/Graphics/SVG/1.1/DTD/svg11.dtd">
<svg xmlns:xlink="http://www.w3.org/1999/xlink" width="1188pt" height="252pt" viewBox="0 0 1188 252" xmlns="http://www.w3.org/2000/svg" version="1.1">
 <metadata>
  <rdf:RDF xmlns:dc="http://purl.org/dc/elements/1.1/" xmlns:cc="http://creativecommons.org/ns#" xmlns:rdf="http://www.w3.org/1999/02/22-rdf-syntax-ns#">
   <cc:Work>
    <dc:type rdf:resource="http://purl.org/dc/dcmitype/StillImage"/>
    <dc:date>2024-05-13T15:44:44.202867</dc:date>
    <dc:format>image/svg+xml</dc:format>
    <dc:creator>
     <cc:Agent>
      <dc:title>Matplotlib v3.8.0, https://matplotlib.org/</dc:title>
     </cc:Agent>
    </dc:creator>
   </cc:Work>
  </rdf:RDF>
 </metadata>
 <defs>
  <style type="text/css">*{stroke-linejoin: round; stroke-linecap: butt}</style>
 </defs>
 <g id="figure_1">
  <g id="patch_1">
   <path d="M 0 252 
L 1188 252 
L 1188 0 
L 0 0 
z
" style="fill: #ffffff"/>
  </g>
  <g id="axes_1">
   <g id="patch_2">
    <path d="M 3.00024 198.907885 
L 1184.99976 198.907885 
L 1184.99976 3.00024 
L 3.00024 3.00024 
z
" style="fill: #ffffff"/>
   </g>
   <g id="matplotlib.axis_1">
    <g id="xtick_1">
     <g id="line2d_1">
      <defs>
       <path id="m7a1b40b774" d="M 0 0 
L 0 8 
" style="stroke: #000000; stroke-width: 2"/>
      </defs>
      <g>
       <use xlink:href="#m7a1b40b774" x="1131.272509" y="198.907885" style="stroke: #000000; stroke-width: 2"/>
      </g>
     </g>
     <g id="text_1">
      <!-- 0 -->
      <g transform="translate(1126.267665 224.791947) scale(0.18 -0.18)">
       <defs>
        <path id="Arial-BoldMT-30" d="M 1756 4600 
Q 2422 4600 2797 4125 
Q 3244 3563 3244 2259 
Q 3244 959 2794 391 
Q 2422 -78 1756 -78 
Q 1088 -78 678 436 
Q 269 950 269 2269 
Q 269 3563 719 4131 
Q 1091 4600 1756 4600 
z
M 1756 3872 
Q 1597 3872 1472 3770 
Q 1347 3669 1278 3406 
Q 1188 3066 1188 2259 
Q 1188 1453 1269 1151 
Q 1350 850 1473 750 
Q 1597 650 1756 650 
Q 1916 650 2041 751 
Q 2166 853 2234 1116 
Q 2325 1453 2325 2259 
Q 2325 3066 2244 3367 
Q 2163 3669 2039 3770 
Q 1916 3872 1756 3872 
z
" transform="scale(0.015625)"/>
       </defs>
       <use xlink:href="#Arial-BoldMT-30"/>
      </g>
     </g>
    </g>
    <g id="xtick_2">
     <g id="line2d_2">
      <g>
       <use xlink:href="#m7a1b40b774" x="1023.818007" y="198.907885" style="stroke: #000000; stroke-width: 2"/>
      </g>
     </g>
     <g id="text_2">
      <!-- 1 -->
      <g transform="translate(1018.813164 224.791947) scale(0.18 -0.18)">
       <defs>
        <path id="Arial-BoldMT-31" d="M 2519 0 
L 1641 0 
L 1641 3309 
Q 1159 2859 506 2644 
L 506 3441 
Q 850 3553 1253 3867 
Q 1656 4181 1806 4600 
L 2519 4600 
L 2519 0 
z
" transform="scale(0.015625)"/>
       </defs>
       <use xlink:href="#Arial-BoldMT-31"/>
      </g>
     </g>
    </g>
    <g id="xtick_3">
     <g id="line2d_3">
      <g>
       <use xlink:href="#m7a1b40b774" x="916.363505" y="198.907885" style="stroke: #000000; stroke-width: 2"/>
      </g>
     </g>
     <g id="text_3">
      <!-- 2 -->
      <g transform="translate(911.358662 224.791947) scale(0.18 -0.18)">
       <defs>
        <path id="Arial-BoldMT-32" d="M 3238 816 
L 3238 0 
L 159 0 
Q 209 463 459 877 
Q 709 1291 1447 1975 
Q 2041 2528 2175 2725 
Q 2356 2997 2356 3263 
Q 2356 3556 2198 3714 
Q 2041 3872 1763 3872 
Q 1488 3872 1325 3706 
Q 1163 3541 1138 3156 
L 263 3244 
Q 341 3969 753 4284 
Q 1166 4600 1784 4600 
Q 2463 4600 2850 4234 
Q 3238 3869 3238 3325 
Q 3238 3016 3127 2736 
Q 3016 2456 2775 2150 
Q 2616 1947 2200 1565 
Q 1784 1184 1673 1059 
Q 1563 934 1494 816 
L 3238 816 
z
" transform="scale(0.015625)"/>
       </defs>
       <use xlink:href="#Arial-BoldMT-32"/>
      </g>
     </g>
    </g>
    <g id="xtick_4">
     <g id="line2d_4">
      <g>
       <use xlink:href="#m7a1b40b774" x="808.909004" y="198.907885" style="stroke: #000000; stroke-width: 2"/>
      </g>
     </g>
     <g id="text_4">
      <!-- 3 -->
      <g transform="translate(803.90416 224.791947) scale(0.18 -0.18)">
       <defs>
        <path id="Arial-BoldMT-33" d="M 241 1216 
L 1091 1319 
Q 1131 994 1309 822 
Q 1488 650 1741 650 
Q 2013 650 2198 856 
Q 2384 1063 2384 1413 
Q 2384 1744 2206 1937 
Q 2028 2131 1772 2131 
Q 1603 2131 1369 2066 
L 1466 2781 
Q 1822 2772 2009 2936 
Q 2197 3100 2197 3372 
Q 2197 3603 2059 3740 
Q 1922 3878 1694 3878 
Q 1469 3878 1309 3722 
Q 1150 3566 1116 3266 
L 306 3403 
Q 391 3819 561 4067 
Q 731 4316 1036 4458 
Q 1341 4600 1719 4600 
Q 2366 4600 2756 4188 
Q 3078 3850 3078 3425 
Q 3078 2822 2419 2463 
Q 2813 2378 3048 2084 
Q 3284 1791 3284 1375 
Q 3284 772 2843 347 
Q 2403 -78 1747 -78 
Q 1125 -78 715 280 
Q 306 638 241 1216 
z
" transform="scale(0.015625)"/>
       </defs>
       <use xlink:href="#Arial-BoldMT-33"/>
      </g>
     </g>
    </g>
    <g id="xtick_5">
     <g id="line2d_5">
      <g>
       <use xlink:href="#m7a1b40b774" x="701.454502" y="198.907885" style="stroke: #000000; stroke-width: 2"/>
      </g>
     </g>
     <g id="text_5">
      <!-- 4 -->
      <g transform="translate(696.449658 224.791947) scale(0.18 -0.18)">
       <defs>
        <path id="Arial-BoldMT-34" d="M 1994 0 
L 1994 922 
L 119 922 
L 119 1691 
L 2106 4600 
L 2844 4600 
L 2844 1694 
L 3413 1694 
L 3413 922 
L 2844 922 
L 2844 0 
L 1994 0 
z
M 1994 1694 
L 1994 3259 
L 941 1694 
L 1994 1694 
z
" transform="scale(0.015625)"/>
       </defs>
       <use xlink:href="#Arial-BoldMT-34"/>
      </g>
     </g>
    </g>
    <g id="xtick_6">
     <g id="line2d_6">
      <g>
       <use xlink:href="#m7a1b40b774" x="594" y="198.907885" style="stroke: #000000; stroke-width: 2"/>
      </g>
     </g>
     <g id="text_6">
      <!-- 5 -->
      <g transform="translate(588.995156 224.791947) scale(0.18 -0.18)">
       <defs>
        <path id="Arial-BoldMT-35" d="M 284 1178 
L 1159 1269 
Q 1197 972 1381 798 
Q 1566 625 1806 625 
Q 2081 625 2272 848 
Q 2463 1072 2463 1522 
Q 2463 1944 2273 2155 
Q 2084 2366 1781 2366 
Q 1403 2366 1103 2031 
L 391 2134 
L 841 4519 
L 3163 4519 
L 3163 3697 
L 1506 3697 
L 1369 2919 
Q 1663 3066 1969 3066 
Q 2553 3066 2959 2641 
Q 3366 2216 3366 1538 
Q 3366 972 3038 528 
Q 2591 -78 1797 -78 
Q 1163 -78 763 262 
Q 363 603 284 1178 
z
" transform="scale(0.015625)"/>
       </defs>
       <use xlink:href="#Arial-BoldMT-35"/>
      </g>
     </g>
    </g>
    <g id="xtick_7">
     <g id="line2d_7">
      <g>
       <use xlink:href="#m7a1b40b774" x="486.545498" y="198.907885" style="stroke: #000000; stroke-width: 2"/>
      </g>
     </g>
     <g id="text_7">
      <!-- 6 -->
      <g transform="translate(481.540654 224.791947) scale(0.18 -0.18)">
       <defs>
        <path id="Arial-BoldMT-36" d="M 3247 3459 
L 2397 3366 
Q 2366 3628 2234 3753 
Q 2103 3878 1894 3878 
Q 1616 3878 1423 3628 
Q 1231 3378 1181 2588 
Q 1509 2975 1997 2975 
Q 2547 2975 2939 2556 
Q 3331 2138 3331 1475 
Q 3331 772 2918 347 
Q 2506 -78 1859 -78 
Q 1166 -78 719 461 
Q 272 1000 272 2228 
Q 272 3488 737 4044 
Q 1203 4600 1947 4600 
Q 2469 4600 2811 4308 
Q 3153 4016 3247 3459 
z
M 1256 1544 
Q 1256 1116 1453 883 
Q 1650 650 1903 650 
Q 2147 650 2309 840 
Q 2472 1031 2472 1466 
Q 2472 1913 2297 2120 
Q 2122 2328 1859 2328 
Q 1606 2328 1431 2129 
Q 1256 1931 1256 1544 
z
" transform="scale(0.015625)"/>
       </defs>
       <use xlink:href="#Arial-BoldMT-36"/>
      </g>
     </g>
    </g>
    <g id="xtick_8">
     <g id="line2d_8">
      <g>
       <use xlink:href="#m7a1b40b774" x="379.090996" y="198.907885" style="stroke: #000000; stroke-width: 2"/>
      </g>
     </g>
     <g id="text_8">
      <!-- 7 -->
      <g transform="translate(374.086153 224.791947) scale(0.18 -0.18)">
       <defs>
        <path id="Arial-BoldMT-37" d="M 272 3703 
L 272 4519 
L 3275 4519 
L 3275 3881 
Q 2903 3516 2518 2831 
Q 2134 2147 1932 1376 
Q 1731 606 1734 0 
L 888 0 
Q 909 950 1279 1937 
Q 1650 2925 2269 3703 
L 272 3703 
z
" transform="scale(0.015625)"/>
       </defs>
       <use xlink:href="#Arial-BoldMT-37"/>
      </g>
     </g>
    </g>
    <g id="xtick_9">
     <g id="line2d_9">
      <g>
       <use xlink:href="#m7a1b40b774" x="271.636495" y="198.907885" style="stroke: #000000; stroke-width: 2"/>
      </g>
     </g>
     <g id="text_9">
      <!-- 8 -->
      <g transform="translate(266.631651 224.791947) scale(0.18 -0.18)">
       <defs>
        <path id="Arial-BoldMT-38" d="M 1025 2472 
Q 684 2616 529 2867 
Q 375 3119 375 3419 
Q 375 3931 733 4265 
Q 1091 4600 1750 4600 
Q 2403 4600 2764 4265 
Q 3125 3931 3125 3419 
Q 3125 3100 2959 2851 
Q 2794 2603 2494 2472 
Q 2875 2319 3073 2025 
Q 3272 1731 3272 1347 
Q 3272 713 2867 316 
Q 2463 -81 1791 -81 
Q 1166 -81 750 247 
Q 259 634 259 1309 
Q 259 1681 443 1992 
Q 628 2303 1025 2472 
z
M 1206 3356 
Q 1206 3094 1354 2947 
Q 1503 2800 1750 2800 
Q 2000 2800 2150 2948 
Q 2300 3097 2300 3359 
Q 2300 3606 2151 3754 
Q 2003 3903 1759 3903 
Q 1506 3903 1356 3753 
Q 1206 3603 1206 3356 
z
M 1125 1394 
Q 1125 1031 1311 828 
Q 1497 625 1775 625 
Q 2047 625 2225 820 
Q 2403 1016 2403 1384 
Q 2403 1706 2222 1901 
Q 2041 2097 1763 2097 
Q 1441 2097 1283 1875 
Q 1125 1653 1125 1394 
z
" transform="scale(0.015625)"/>
       </defs>
       <use xlink:href="#Arial-BoldMT-38"/>
      </g>
     </g>
    </g>
    <g id="xtick_10">
     <g id="line2d_10">
      <g>
       <use xlink:href="#m7a1b40b774" x="164.181993" y="198.907885" style="stroke: #000000; stroke-width: 2"/>
      </g>
     </g>
     <g id="text_10">
      <!-- 9 -->
      <g transform="translate(159.177149 224.791947) scale(0.18 -0.18)">
       <defs>
        <path id="Arial-BoldMT-39" d="M 291 1059 
L 1141 1153 
Q 1172 894 1303 769 
Q 1434 644 1650 644 
Q 1922 644 2112 894 
Q 2303 1144 2356 1931 
Q 2025 1547 1528 1547 
Q 988 1547 595 1964 
Q 203 2381 203 3050 
Q 203 3747 617 4173 
Q 1031 4600 1672 4600 
Q 2369 4600 2816 4061 
Q 3263 3522 3263 2288 
Q 3263 1031 2797 475 
Q 2331 -81 1584 -81 
Q 1047 -81 715 205 
Q 384 491 291 1059 
z
M 2278 2978 
Q 2278 3403 2083 3637 
Q 1888 3872 1631 3872 
Q 1388 3872 1227 3680 
Q 1066 3488 1066 3050 
Q 1066 2606 1241 2398 
Q 1416 2191 1678 2191 
Q 1931 2191 2104 2391 
Q 2278 2591 2278 2978 
z
" transform="scale(0.015625)"/>
       </defs>
       <use xlink:href="#Arial-BoldMT-39"/>
      </g>
     </g>
    </g>
    <g id="xtick_11">
     <g id="line2d_11">
      <g>
       <use xlink:href="#m7a1b40b774" x="56.727491" y="198.907885" style="stroke: #000000; stroke-width: 2"/>
      </g>
     </g>
     <g id="text_11">
      <!-- 10 -->
      <g transform="translate(46.717803 224.791947) scale(0.18 -0.18)">
       <use xlink:href="#Arial-BoldMT-31"/>
       <use xlink:href="#Arial-BoldMT-30" x="55.615234"/>
      </g>
     </g>
    </g>
    <g id="text_12">
     <!-- Chemical Shift / ppm -->
     <g transform="translate(504.992813 245.447573) scale(0.18 -0.18)">
      <defs>
       <path id="Arial-BoldMT-43" d="M 3397 1684 
L 4294 1400 
Q 4088 650 3608 286 
Q 3128 -78 2391 -78 
Q 1478 -78 890 545 
Q 303 1169 303 2250 
Q 303 3394 893 4026 
Q 1484 4659 2447 4659 
Q 3288 4659 3813 4163 
Q 4125 3869 4281 3319 
L 3366 3100 
Q 3284 3456 3026 3662 
Q 2769 3869 2400 3869 
Q 1891 3869 1573 3503 
Q 1256 3138 1256 2319 
Q 1256 1450 1568 1081 
Q 1881 713 2381 713 
Q 2750 713 3015 947 
Q 3281 1181 3397 1684 
z
" transform="scale(0.015625)"/>
       <path id="Arial-BoldMT-68" d="M 1334 4581 
L 1334 2897 
Q 1759 3394 2350 3394 
Q 2653 3394 2897 3281 
Q 3141 3169 3264 2994 
Q 3388 2819 3433 2606 
Q 3478 2394 3478 1947 
L 3478 0 
L 2600 0 
L 2600 1753 
Q 2600 2275 2550 2415 
Q 2500 2556 2373 2639 
Q 2247 2722 2056 2722 
Q 1838 2722 1666 2615 
Q 1494 2509 1414 2295 
Q 1334 2081 1334 1663 
L 1334 0 
L 456 0 
L 456 4581 
L 1334 4581 
z
" transform="scale(0.015625)"/>
       <path id="Arial-BoldMT-65" d="M 2381 1056 
L 3256 909 
Q 3088 428 2723 176 
Q 2359 -75 1813 -75 
Q 947 -75 531 491 
Q 203 944 203 1634 
Q 203 2459 634 2926 
Q 1066 3394 1725 3394 
Q 2466 3394 2894 2905 
Q 3322 2416 3303 1406 
L 1103 1406 
Q 1113 1016 1316 798 
Q 1519 581 1822 581 
Q 2028 581 2168 693 
Q 2309 806 2381 1056 
z
M 2431 1944 
Q 2422 2325 2234 2523 
Q 2047 2722 1778 2722 
Q 1491 2722 1303 2513 
Q 1116 2303 1119 1944 
L 2431 1944 
z
" transform="scale(0.015625)"/>
       <path id="Arial-BoldMT-6d" d="M 394 3319 
L 1203 3319 
L 1203 2866 
Q 1638 3394 2238 3394 
Q 2556 3394 2790 3262 
Q 3025 3131 3175 2866 
Q 3394 3131 3647 3262 
Q 3900 3394 4188 3394 
Q 4553 3394 4806 3245 
Q 5059 3097 5184 2809 
Q 5275 2597 5275 2122 
L 5275 0 
L 4397 0 
L 4397 1897 
Q 4397 2391 4306 2534 
Q 4184 2722 3931 2722 
Q 3747 2722 3584 2609 
Q 3422 2497 3350 2280 
Q 3278 2063 3278 1594 
L 3278 0 
L 2400 0 
L 2400 1819 
Q 2400 2303 2353 2443 
Q 2306 2584 2207 2653 
Q 2109 2722 1941 2722 
Q 1738 2722 1575 2612 
Q 1413 2503 1342 2297 
Q 1272 2091 1272 1613 
L 1272 0 
L 394 0 
L 394 3319 
z
" transform="scale(0.015625)"/>
       <path id="Arial-BoldMT-69" d="M 459 3769 
L 459 4581 
L 1338 4581 
L 1338 3769 
L 459 3769 
z
M 459 0 
L 459 3319 
L 1338 3319 
L 1338 0 
L 459 0 
z
" transform="scale(0.015625)"/>
       <path id="Arial-BoldMT-63" d="M 3353 2338 
L 2488 2181 
Q 2444 2441 2289 2572 
Q 2134 2703 1888 2703 
Q 1559 2703 1364 2476 
Q 1169 2250 1169 1719 
Q 1169 1128 1367 884 
Q 1566 641 1900 641 
Q 2150 641 2309 783 
Q 2469 925 2534 1272 
L 3397 1125 
Q 3263 531 2881 228 
Q 2500 -75 1859 -75 
Q 1131 -75 698 384 
Q 266 844 266 1656 
Q 266 2478 700 2936 
Q 1134 3394 1875 3394 
Q 2481 3394 2839 3133 
Q 3197 2872 3353 2338 
z
" transform="scale(0.015625)"/>
       <path id="Arial-BoldMT-61" d="M 1116 2306 
L 319 2450 
Q 453 2931 781 3162 
Q 1109 3394 1756 3394 
Q 2344 3394 2631 3255 
Q 2919 3116 3036 2902 
Q 3153 2688 3153 2116 
L 3144 1091 
Q 3144 653 3186 445 
Q 3228 238 3344 0 
L 2475 0 
Q 2441 88 2391 259 
Q 2369 338 2359 363 
Q 2134 144 1878 34 
Q 1622 -75 1331 -75 
Q 819 -75 523 203 
Q 228 481 228 906 
Q 228 1188 362 1408 
Q 497 1628 739 1745 
Q 981 1863 1438 1950 
Q 2053 2066 2291 2166 
L 2291 2253 
Q 2291 2506 2166 2614 
Q 2041 2722 1694 2722 
Q 1459 2722 1328 2630 
Q 1197 2538 1116 2306 
z
M 2291 1594 
Q 2122 1538 1756 1459 
Q 1391 1381 1278 1306 
Q 1106 1184 1106 997 
Q 1106 813 1243 678 
Q 1381 544 1594 544 
Q 1831 544 2047 700 
Q 2206 819 2256 991 
Q 2291 1103 2291 1419 
L 2291 1594 
z
" transform="scale(0.015625)"/>
       <path id="Arial-BoldMT-6c" d="M 459 0 
L 459 4581 
L 1338 4581 
L 1338 0 
L 459 0 
z
" transform="scale(0.015625)"/>
       <path id="Arial-BoldMT-20" transform="scale(0.015625)"/>
       <path id="Arial-BoldMT-53" d="M 231 1491 
L 1131 1578 
Q 1213 1125 1461 912 
Q 1709 700 2131 700 
Q 2578 700 2804 889 
Q 3031 1078 3031 1331 
Q 3031 1494 2936 1608 
Q 2841 1722 2603 1806 
Q 2441 1863 1863 2006 
Q 1119 2191 819 2459 
Q 397 2838 397 3381 
Q 397 3731 595 4036 
Q 794 4341 1167 4500 
Q 1541 4659 2069 4659 
Q 2931 4659 3367 4281 
Q 3803 3903 3825 3272 
L 2900 3231 
Q 2841 3584 2645 3739 
Q 2450 3894 2059 3894 
Q 1656 3894 1428 3728 
Q 1281 3622 1281 3444 
Q 1281 3281 1419 3166 
Q 1594 3019 2269 2859 
Q 2944 2700 3267 2529 
Q 3591 2359 3773 2064 
Q 3956 1769 3956 1334 
Q 3956 941 3737 597 
Q 3519 253 3119 86 
Q 2719 -81 2122 -81 
Q 1253 -81 787 320 
Q 322 722 231 1491 
z
" transform="scale(0.015625)"/>
       <path id="Arial-BoldMT-66" d="M 75 3319 
L 563 3319 
L 563 3569 
Q 563 3988 652 4194 
Q 741 4400 980 4529 
Q 1219 4659 1584 4659 
Q 1959 4659 2319 4547 
L 2200 3934 
Q 1991 3984 1797 3984 
Q 1606 3984 1523 3895 
Q 1441 3806 1441 3553 
L 1441 3319 
L 2097 3319 
L 2097 2628 
L 1441 2628 
L 1441 0 
L 563 0 
L 563 2628 
L 75 2628 
L 75 3319 
z
" transform="scale(0.015625)"/>
       <path id="Arial-BoldMT-74" d="M 1981 3319 
L 1981 2619 
L 1381 2619 
L 1381 1281 
Q 1381 875 1398 808 
Q 1416 741 1477 697 
Q 1538 653 1625 653 
Q 1747 653 1978 738 
L 2053 56 
Q 1747 -75 1359 -75 
Q 1122 -75 931 4 
Q 741 84 652 211 
Q 563 338 528 553 
Q 500 706 500 1172 
L 500 2619 
L 97 2619 
L 97 3319 
L 500 3319 
L 500 3978 
L 1381 4491 
L 1381 3319 
L 1981 3319 
z
" transform="scale(0.015625)"/>
       <path id="Arial-BoldMT-2f" d="M -9 -78 
L 1125 4659 
L 1784 4659 
L 638 -78 
L -9 -78 
z
" transform="scale(0.015625)"/>
       <path id="Arial-BoldMT-70" d="M 434 3319 
L 1253 3319 
L 1253 2831 
Q 1413 3081 1684 3237 
Q 1956 3394 2288 3394 
Q 2866 3394 3269 2941 
Q 3672 2488 3672 1678 
Q 3672 847 3265 386 
Q 2859 -75 2281 -75 
Q 2006 -75 1782 34 
Q 1559 144 1313 409 
L 1313 -1263 
L 434 -1263 
L 434 3319 
z
M 1303 1716 
Q 1303 1156 1525 889 
Q 1747 622 2066 622 
Q 2372 622 2575 867 
Q 2778 1113 2778 1672 
Q 2778 2194 2568 2447 
Q 2359 2700 2050 2700 
Q 1728 2700 1515 2451 
Q 1303 2203 1303 1716 
z
" transform="scale(0.015625)"/>
      </defs>
      <use xlink:href="#Arial-BoldMT-43"/>
      <use xlink:href="#Arial-BoldMT-68" x="72.216797"/>
      <use xlink:href="#Arial-BoldMT-65" x="133.300781"/>
      <use xlink:href="#Arial-BoldMT-6d" x="188.916016"/>
      <use xlink:href="#Arial-BoldMT-69" x="277.832031"/>
      <use xlink:href="#Arial-BoldMT-63" x="305.615234"/>
      <use xlink:href="#Arial-BoldMT-61" x="361.230469"/>
      <use xlink:href="#Arial-BoldMT-6c" x="416.845703"/>
      <use xlink:href="#Arial-BoldMT-20" x="444.628906"/>
      <use xlink:href="#Arial-BoldMT-53" x="472.412109"/>
      <use xlink:href="#Arial-BoldMT-68" x="539.111328"/>
      <use xlink:href="#Arial-BoldMT-69" x="600.195312"/>
      <use xlink:href="#Arial-BoldMT-66" x="627.978516"/>
      <use xlink:href="#Arial-BoldMT-74" x="661.279297"/>
      <use xlink:href="#Arial-BoldMT-20" x="694.580078"/>
      <use xlink:href="#Arial-BoldMT-2f" x="722.363281"/>
      <use xlink:href="#Arial-BoldMT-20" x="750.146484"/>
      <use xlink:href="#Arial-BoldMT-70" x="777.929688"/>
      <use xlink:href="#Arial-BoldMT-70" x="839.013672"/>
      <use xlink:href="#Arial-BoldMT-6d" x="900.097656"/>
     </g>
    </g>
   </g>
   <g id="matplotlib.axis_2"/>
   <g id="line2d_12">
    <path d="M 2.911206 188.557832 
L 3.115825 188.408193 
L 3.320445 188.466606 
L 3.729685 189.252811 
L 4.138924 190.205122 
L 4.343544 190.449195 
L 4.548163 190.468852 
L 4.957403 189.99853 
L 5.775882 188.938405 
L 6.389741 188.606576 
L 6.79898 188.689473 
L 7.20822 189.24057 
L 8.231319 190.954885 
L 8.640558 191.184799 
L 9.254417 191.228506 
L 9.868276 191.700307 
L 10.277516 191.611391 
L 10.891375 191.365505 
L 11.709854 190.661917 
L 12.119093 190.964376 
L 12.732953 192.010611 
L 13.142192 192.773207 
L 13.346812 192.962964 
L 13.551431 192.925209 
L 13.960671 192.280794 
L 14.57453 191.041713 
L 14.983769 190.848075 
L 15.393009 190.684479 
L 16.006868 190.218525 
L 16.620727 190.00955 
L 17.029967 189.67466 
L 17.234586 189.680281 
L 17.848446 190.27725 
L 19.076164 191.376355 
L 19.485403 191.217935 
L 19.894643 190.894183 
L 20.303882 190.941995 
L 20.508502 190.974157 
L 20.713122 190.883011 
L 21.122361 190.240373 
L 21.73622 189.052594 
L 22.35008 188.566178 
L 22.759319 188.437353 
L 23.373178 188.595363 
L 23.987037 189.209736 
L 24.805516 190.123976 
L 25.214756 190.244469 
L 26.237854 189.848298 
L 27.670193 190.598557 
L 28.079432 190.580153 
L 29.102531 190.062935 
L 29.51177 190.051482 
L 29.92101 189.743888 
L 30.534869 189.22998 
L 30.739488 189.20615 
L 30.944108 189.352607 
L 31.762587 190.724537 
L 32.171827 190.557966 
L 32.785686 189.947774 
L 33.194925 189.638448 
L 33.399545 189.7664 
L 34.218024 190.878028 
L 35.445742 191.283077 
L 35.854982 191.16042 
L 36.264221 190.718382 
L 37.0827 189.693105 
L 37.28732 189.54421 
L 37.491939 189.536202 
L 37.901179 189.859364 
L 38.515038 190.653651 
L 39.128897 191.546221 
L 39.333517 191.682633 
L 39.538137 191.675544 
L 40.151996 191.186289 
L 40.561235 190.814784 
L 41.584334 189.380034 
L 42.812052 188.65786 
L 43.221292 188.624528 
L 43.630531 188.231952 
L 44.039771 187.868551 
L 44.24439 187.864173 
L 45.676729 188.547574 
L 46.085968 188.533134 
L 46.699827 188.380719 
L 47.518306 188.63102 
L 48.132165 189.142817 
L 48.541405 189.771349 
L 49.155264 190.839181 
L 49.564503 190.926229 
L 49.973743 190.999595 
L 51.201461 191.975245 
L 51.610701 191.739307 
L 52.01994 191.234261 
L 53.247658 189.293317 
L 53.452278 189.218345 
L 53.656898 189.349417 
L 54.679996 190.923495 
L 55.089236 190.66441 
L 55.498475 190.493387 
L 55.907715 190.744917 
L 56.521574 191.373089 
L 56.726194 191.315566 
L 57.749292 190.227929 
L 58.567771 190.033773 
L 59.18163 189.509703 
L 60.613969 188.049994 
L 61.023208 187.553345 
L 61.227828 187.486466 
L 61.637067 187.663891 
L 62.046307 187.987901 
L 63.069405 189.114479 
L 63.478645 189.071451 
L 64.910983 188.347866 
L 65.115603 188.331525 
L 65.524842 188.704154 
L 66.138701 189.380579 
L 66.547941 189.410572 
L 67.571039 188.942468 
L 68.389518 188.314002 
L 68.798758 188.279197 
L 69.617237 187.753354 
L 69.821856 187.813908 
L 70.231096 188.264631 
L 70.640335 188.727605 
L 71.254194 188.992725 
L 72.891152 189.385933 
L 73.709631 188.967841 
L 74.32349 189.24292 
L 74.52811 189.102483 
L 75.141969 188.231917 
L 75.346589 188.154368 
L 76.369688 188.35244 
L 76.778927 188.146355 
L 77.802026 187.242087 
L 78.006645 187.235954 
L 78.211265 187.403994 
L 79.234364 188.928603 
L 79.643603 189.050131 
L 80.052843 188.972591 
L 80.666702 188.694749 
L 81.075941 188.698937 
L 81.6898 189.024115 
L 82.09904 189.163222 
L 83.122139 188.775556 
L 83.940617 189.066567 
L 84.349857 189.434806 
L 84.963716 190.475076 
L 85.782195 192.118671 
L 85.986815 192.281723 
L 86.191434 192.22647 
L 86.600674 191.573915 
L 87.828392 188.618155 
L 88.033012 188.525856 
L 88.237632 188.617826 
L 88.646871 189.231594 
L 89.26073 190.54056 
L 89.46535 190.751802 
L 89.66997 190.77475 
L 90.079209 190.449822 
L 91.306928 189.18156 
L 91.716167 189.240081 
L 93.148505 190.113321 
L 93.557745 190.213814 
L 94.171604 190.081748 
L 94.580843 190.497524 
L 94.990083 190.835097 
L 96.013181 190.73156 
L 97.03628 190.984661 
L 97.650139 190.640724 
L 98.468618 189.952802 
L 98.877857 189.485932 
L 99.491717 189.023561 
L 100.105576 188.181622 
L 100.310196 188.082376 
L 100.719435 188.25952 
L 101.333294 188.700002 
L 102.151773 189.010593 
L 102.765632 189.619017 
L 102.970252 189.625435 
L 103.379491 189.227471 
L 104.19797 187.947688 
L 104.60721 187.635987 
L 105.016449 187.64637 
L 105.834928 187.907661 
L 106.448787 187.903886 
L 106.653407 188.074172 
L 107.062647 188.865379 
L 107.676506 190.236608 
L 108.085745 190.630069 
L 108.494985 190.728571 
L 109.518083 190.244255 
L 110.131942 190.71028 
L 110.541182 191.055803 
L 110.745802 191.115228 
L 111.155041 190.823733 
L 111.7689 190.284624 
L 112.17814 190.04108 
L 112.587379 189.447443 
L 113.610478 187.545905 
L 113.815098 187.442225 
L 114.019717 187.547005 
L 115.042816 188.942574 
L 115.656675 189.798108 
L 115.861295 189.892105 
L 116.270534 189.712745 
L 117.702872 189.056886 
L 118.112112 189.453056 
L 118.521351 189.86668 
L 118.725971 189.909025 
L 119.13521 189.634684 
L 119.54445 189.454073 
L 119.953689 189.731292 
L 120.772168 190.439951 
L 121.795267 190.546241 
L 122.204506 190.04365 
L 122.818366 189.14299 
L 123.022985 189.177475 
L 123.636844 189.62976 
L 123.841464 189.51046 
L 124.250704 188.796141 
L 124.659943 187.99827 
L 125.069183 187.650983 
L 125.478422 187.686768 
L 126.296901 188.124043 
L 127.11538 188.604727 
L 128.138478 189.03345 
L 128.547718 188.831551 
L 129.161577 188.173734 
L 129.775436 187.388673 
L 130.184676 187.368609 
L 130.798535 187.353872 
L 131.821633 187.255335 
L 132.435493 187.538451 
L 133.049352 187.557624 
L 134.48169 188.528442 
L 135.095549 189.145756 
L 136.323267 190.871701 
L 136.937127 190.799864 
L 137.346366 190.721933 
L 137.755606 190.932478 
L 138.164845 191.291008 
L 138.574084 191.32519 
L 139.392563 190.901304 
L 140.006423 190.387677 
L 140.824901 190.113035 
L 143.075718 188.514412 
L 143.689578 188.563243 
L 144.098817 188.547264 
L 144.508057 188.125385 
L 145.121916 187.382707 
L 145.735775 187.03156 
L 145.940395 187.083232 
L 146.145014 187.322646 
L 147.372733 189.758067 
L 147.986592 190.191398 
L 148.395831 190.085097 
L 149.21431 189.505781 
L 149.828169 189.496604 
L 150.237409 189.448317 
L 150.851268 189.06663 
L 151.465127 188.600927 
L 151.874367 188.63387 
L 152.488226 188.845877 
L 152.897465 188.816894 
L 153.715944 188.488306 
L 154.943663 188.743802 
L 155.352902 188.498729 
L 155.762142 188.250627 
L 156.171381 188.47423 
L 157.399099 189.374357 
L 157.603719 189.33829 
L 158.012959 188.950925 
L 158.831437 188.053048 
L 159.036057 187.963484 
L 159.240677 188.002014 
L 159.649916 188.396719 
L 160.059156 188.78251 
L 160.468395 188.813565 
L 160.877635 188.773802 
L 161.082254 188.834428 
L 161.491494 189.334391 
L 162.105353 190.331373 
L 162.309973 190.464603 
L 162.514593 190.448811 
L 162.923832 190.023813 
L 163.333071 189.538111 
L 163.742311 189.418885 
L 164.35617 189.438191 
L 164.76541 189.030783 
L 165.583888 187.967211 
L 165.993128 187.797385 
L 166.402367 187.742571 
L 166.811607 187.333025 
L 167.220846 187.026135 
L 167.425466 187.114426 
L 168.857804 188.597822 
L 169.471663 188.542961 
L 169.880903 188.919735 
L 171.108621 190.61961 
L 171.313241 190.605528 
L 172.13172 189.673127 
L 172.745579 189.529181 
L 173.154818 189.462524 
L 173.359438 189.461373 
L 173.564058 189.343893 
L 173.973297 188.614537 
L 174.587156 187.377373 
L 174.791776 187.170725 
L 174.996396 187.131761 
L 175.405635 187.469074 
L 176.019494 188.151179 
L 176.428734 188.306844 
L 177.247213 188.102209 
L 177.451833 188.234836 
L 178.065692 189.017177 
L 178.270311 189.06417 
L 178.679551 188.808628 
L 179.08879 188.189663 
L 179.49803 187.508906 
L 179.907269 187.346724 
L 180.725748 187.474603 
L 181.134988 187.586194 
L 181.544227 187.473214 
L 182.158086 186.963982 
L 182.567326 186.667647 
L 182.976565 186.762426 
L 184.204284 187.772699 
L 184.818143 187.688392 
L 185.432002 188.038922 
L 185.841241 188.34272 
L 186.65972 189.463068 
L 186.86434 189.429942 
L 187.273579 188.825341 
L 187.887439 187.790366 
L 188.296678 187.559742 
L 188.501298 187.666402 
L 189.319777 188.734403 
L 190.342875 188.017689 
L 190.956735 186.610263 
L 191.365974 185.876529 
L 191.775213 185.609889 
L 192.184453 185.423091 
L 193.002932 184.430346 
L 193.412171 184.420511 
L 193.821411 184.438431 
L 195.253749 183.225647 
L 195.662988 183.151013 
L 196.072228 183.20059 
L 196.481467 182.97401 
L 197.095326 182.518038 
L 197.504566 182.658685 
L 197.913805 182.749388 
L 198.323045 182.483996 
L 198.732284 182.210074 
L 199.141524 182.217049 
L 200.164622 182.459948 
L 200.983101 181.493259 
L 201.59696 180.542555 
L 202.0062 179.891855 
L 202.415439 179.601298 
L 202.824679 179.372508 
L 203.233918 178.871721 
L 203.643158 178.118274 
L 205.075496 174.633605 
L 206.098594 170.78178 
L 206.507834 168.373177 
L 207.326313 161.770382 
L 207.940172 154.921554 
L 208.554031 144.789504 
L 209.16789 130.245822 
L 209.781749 109.22391 
L 210.395609 78.11604 
L 211.623327 4.925878 
L 211.827947 3.00024 
L 212.032566 6.955139 
L 212.441806 30.266124 
L 213.464904 107.01474 
L 214.078764 133.182859 
L 214.692623 147.71448 
L 215.101862 153.186956 
L 215.511102 156.262163 
L 215.715721 157.004638 
L 215.920341 157.285292 
L 216.124961 157.224638 
L 216.73882 156.54655 
L 216.94344 156.597471 
L 217.14806 156.939337 
L 217.557299 158.535508 
L 218.171158 161.473285 
L 218.375778 161.85525 
L 218.580398 161.772347 
L 218.989637 160.54442 
L 219.808116 157.622404 
L 220.217355 156.063232 
L 221.240454 150.418563 
L 221.445074 150.365927 
L 221.649694 150.789151 
L 222.468172 153.298488 
L 223.082032 153.975056 
L 223.491271 155.263781 
L 224.10513 157.718609 
L 224.30975 158.093034 
L 224.51437 158.118389 
L 224.718989 157.784129 
L 225.128229 156.31198 
L 225.537468 153.73315 
L 226.355947 146.43431 
L 226.560567 145.639143 
L 226.765187 145.496429 
L 226.969806 145.801684 
L 227.788285 147.985682 
L 228.197525 149.916402 
L 228.606764 153.308326 
L 229.425243 161.079689 
L 229.834483 163.236956 
L 230.448342 165.137337 
L 230.857581 165.677795 
L 231.062201 165.517375 
L 231.266821 164.969481 
L 231.67606 162.750773 
L 232.0853 159.29237 
L 232.699159 151.742696 
L 233.313018 145.116493 
L 233.517638 144.551332 
L 233.722257 145.160564 
L 234.131497 148.89646 
L 234.949976 156.848496 
L 236.177694 165.752519 
L 236.791553 168.928226 
L 237.200793 170.053175 
L 237.405413 170.324805 
L 237.610032 170.362425 
L 237.814652 170.114633 
L 238.223891 168.633077 
L 238.837751 164.708855 
L 239.24699 160.870468 
L 239.860849 152.147282 
L 240.883948 131.572029 
L 242.111666 109.154392 
L 242.520906 103.800839 
L 242.725525 102.238205 
L 242.930145 101.827491 
L 243.134765 102.795149 
L 243.544004 108.022207 
L 244.362483 122.528388 
L 245.180962 142.88993 
L 245.794821 157.170842 
L 246.40868 166.277874 
L 246.81792 169.908451 
L 247.431779 173.119008 
L 247.841019 174.36911 
L 248.045638 174.655604 
L 248.250258 174.73701 
L 248.659497 174.56896 
L 249.068737 174.088468 
L 249.477976 173.047954 
L 249.887216 171.134717 
L 250.501075 166.652571 
L 251.728793 156.146632 
L 252.547272 151.943314 
L 252.751892 151.431769 
L 252.956512 151.476305 
L 253.161131 152.134252 
L 253.570371 154.899335 
L 255.002709 168.074102 
L 256.025808 178.409202 
L 256.639667 182.08002 
L 257.253526 184.725088 
L 257.662765 185.682522 
L 258.072005 185.97885 
L 258.481244 186.246535 
L 259.095104 186.722546 
L 259.708963 186.764362 
L 260.118202 186.716664 
L 262.164399 185.664373 
L 262.369019 185.820001 
L 263.187498 186.986127 
L 263.596738 187.072613 
L 264.005977 187.609241 
L 264.415216 188.128789 
L 264.619836 188.17257 
L 265.029076 187.825232 
L 265.438315 187.520657 
L 266.052174 187.45122 
L 266.461414 186.856969 
L 267.075273 185.815349 
L 267.484512 185.628834 
L 267.893752 185.943067 
L 268.507611 186.664604 
L 268.712231 186.701552 
L 268.91685 186.559566 
L 269.32609 185.770885 
L 269.939949 184.516837 
L 270.349189 184.353948 
L 270.553808 184.289769 
L 270.758428 184.079891 
L 271.167667 183.162549 
L 271.781527 181.844561 
L 272.395386 181.187053 
L 274.032344 179.825925 
L 274.441583 179.188868 
L 275.055442 177.312936 
L 275.669301 175.700092 
L 276.078541 175.394282 
L 276.283161 175.28256 
L 276.6924 174.631321 
L 277.10164 173.27683 
L 277.715499 170.223306 
L 278.329358 166.133329 
L 278.943217 160.676129 
L 279.557076 152.578646 
L 280.170935 141.17666 
L 280.784795 125.775763 
L 281.398654 103.24832 
L 282.626372 51.347607 
L 283.035612 42.110829 
L 283.444851 37.944843 
L 283.649471 37.498608 
L 283.85409 38.185833 
L 284.05871 40.215047 
L 284.46795 49.325914 
L 285.081809 73.790667 
L 285.695668 98.092182 
L 286.104907 107.937583 
L 286.514147 111.842997 
L 286.718767 111.976599 
L 286.923386 111.107434 
L 287.332626 107.026015 
L 288.764964 88.082262 
L 289.174203 85.236762 
L 289.378823 85.256784 
L 289.583443 86.725848 
L 289.992682 94.063992 
L 291.220401 122.842533 
L 292.03888 141.159134 
L 292.857358 159.778163 
L 293.471218 168.832876 
L 294.085077 174.773894 
L 294.698936 177.987561 
L 295.312795 179.914101 
L 295.517415 180.247424 
L 295.722035 180.347296 
L 296.540514 180.098081 
L 296.949753 180.575737 
L 297.563612 181.756426 
L 297.972852 183.148219 
L 298.586711 185.72741 
L 298.99595 186.447474 
L 299.814429 186.763699 
L 300.223669 187.059833 
L 300.632908 187.823449 
L 301.042148 188.79789 
L 301.246767 189.026333 
L 301.451387 189.015997 
L 302.269866 188.52698 
L 303.702204 188.120348 
L 304.111443 188.357539 
L 304.725303 188.822247 
L 305.339162 188.795471 
L 305.748401 189.258219 
L 307.180739 191.631396 
L 307.385359 191.721194 
L 307.589979 191.687259 
L 307.999218 191.176984 
L 308.817697 189.794598 
L 309.022317 189.677692 
L 309.226937 189.700374 
L 309.636176 190.073965 
L 310.250035 190.693166 
L 310.454655 190.713244 
L 310.659275 190.561403 
L 311.068514 189.737838 
L 311.682373 188.333739 
L 311.886993 188.186133 
L 312.091613 188.322286 
L 312.500852 189.517059 
L 312.910092 190.89074 
L 313.114711 191.183363 
L 313.319331 191.142535 
L 313.728571 190.408131 
L 314.34243 189.057797 
L 314.54705 188.886756 
L 314.751669 188.930276 
L 315.365528 189.478176 
L 315.570148 189.458502 
L 315.774768 189.250226 
L 316.184007 188.292724 
L 316.797867 186.838107 
L 317.002486 186.730295 
L 317.207106 186.858294 
L 317.616345 187.610025 
L 318.639444 189.694313 
L 319.253303 189.997406 
L 319.662543 190.259585 
L 320.071782 190.872236 
L 320.685641 192.086307 
L 321.094881 192.32887 
L 321.50412 192.166136 
L 322.322599 191.503288 
L 322.527219 191.60368 
L 323.550317 192.816188 
L 323.754937 192.835867 
L 323.959557 192.714434 
L 324.368796 192.115624 
L 325.187275 190.644453 
L 325.596515 190.479641 
L 326.005754 190.72052 
L 326.824233 191.555205 
L 327.233473 191.853674 
L 327.438092 191.812231 
L 328.461191 190.895088 
L 328.87043 190.330543 
L 329.48429 189.327127 
L 329.688909 189.302307 
L 330.098149 189.744867 
L 330.712008 190.60605 
L 331.939726 191.204327 
L 332.553585 191.010882 
L 332.962825 190.902035 
L 333.372064 190.340474 
L 333.985924 188.930107 
L 334.599783 187.382583 
L 335.009022 186.971687 
L 335.418262 187.113002 
L 335.827501 187.553665 
L 336.44136 188.556471 
L 337.669079 190.767662 
L 338.692177 191.874724 
L 339.101417 192.058006 
L 339.510656 191.742276 
L 339.919896 191.321713 
L 340.124515 191.35727 
L 340.533755 192.021667 
L 340.942994 192.655071 
L 341.147614 192.68657 
L 341.556853 192.25962 
L 341.966093 191.721024 
L 342.375332 191.517497 
L 343.193811 191.480776 
L 343.603051 190.968051 
L 344.21691 189.558877 
L 344.626149 188.77825 
L 345.035389 188.452125 
L 345.444628 188.431775 
L 346.467727 188.925319 
L 347.081586 189.025255 
L 347.490826 189.198636 
L 347.695445 189.14311 
L 348.104685 188.632909 
L 348.513924 188.081414 
L 348.923164 187.884591 
L 349.537023 188.121462 
L 350.764741 188.867914 
L 351.173981 188.985609 
L 351.78784 189.284675 
L 352.401699 189.433742 
L 352.810938 189.539369 
L 353.424798 189.573186 
L 354.447896 190.229873 
L 355.266375 190.353661 
L 355.880234 189.981642 
L 357.312572 188.887945 
L 357.721812 188.286152 
L 357.926432 188.147607 
L 358.131051 188.181198 
L 358.540291 188.661447 
L 359.563389 190.111068 
L 359.972629 190.444124 
L 360.177249 190.425224 
L 360.586488 189.976057 
L 362.018826 187.563419 
L 362.428066 187.45122 
L 363.041925 187.410028 
L 364.474263 187.123735 
L 364.883502 186.624718 
L 365.497361 185.847089 
L 366.52046 185.366084 
L 367.952798 183.914011 
L 368.362038 184.019368 
L 369.180517 184.768015 
L 369.385136 184.612174 
L 369.794376 183.768905 
L 370.612855 181.781634 
L 371.431334 180.194501 
L 371.840573 179.517457 
L 372.249812 178.281164 
L 372.863672 175.222784 
L 373.477531 170.704083 
L 374.909869 156.551193 
L 375.523728 149.800479 
L 376.137587 139.736739 
L 376.751446 124.579864 
L 377.979165 90.248154 
L 378.183785 87.660169 
L 378.388404 86.871089 
L 378.593024 87.84448 
L 379.002263 94.129873 
L 380.434602 124.964696 
L 382.480799 154.154924 
L 382.890038 157.44031 
L 383.299278 158.79665 
L 383.503897 158.833852 
L 383.708517 158.482393 
L 384.117757 156.686598 
L 384.526996 153.693915 
L 385.140855 147.311892 
L 385.754714 138.861947 
L 386.573193 123.243907 
L 387.800912 96.257786 
L 389.23325 58.445016 
L 389.43787 57.04794 
L 389.642489 58.185509 
L 389.847109 62.012913 
L 390.256348 76.188947 
L 391.484067 125.263634 
L 392.097926 140.339633 
L 392.711785 150.481512 
L 393.530264 160.776065 
L 394.144123 166.374725 
L 394.757982 170.222809 
L 396.39494 178.863628 
L 396.80418 180.784475 
L 397.213419 181.891215 
L 397.827278 182.950843 
L 398.645757 184.039759 
L 399.668856 185.938149 
L 400.078095 186.003374 
L 401.101194 185.937182 
L 401.510433 186.422599 
L 403.147391 188.873361 
L 403.556631 189.238554 
L 403.96587 189.194514 
L 404.37511 188.971904 
L 404.579729 188.993047 
L 405.398208 189.604747 
L 406.012067 189.62229 
L 406.421307 189.699192 
L 407.444405 189.52573 
L 407.853645 189.906468 
L 408.262884 190.224491 
L 408.467504 190.14697 
L 409.285983 189.373368 
L 409.490603 189.371056 
L 409.899842 189.704673 
L 410.309082 190.097122 
L 410.718321 190.002337 
L 411.127561 189.919808 
L 411.5368 190.174128 
L 411.946039 190.437472 
L 412.150659 190.408589 
L 412.969138 189.762718 
L 413.378378 190.053916 
L 413.787617 190.393484 
L 414.196856 190.385883 
L 414.606096 190.304769 
L 415.015335 189.908249 
L 415.833814 188.521583 
L 416.038434 188.506707 
L 416.652293 188.844841 
L 418.90311 187.562824 
L 419.516969 187.480025 
L 420.130829 187.118184 
L 420.540068 186.529003 
L 421.153927 184.844923 
L 421.767786 183.07754 
L 421.972406 182.821052 
L 422.177026 182.80843 
L 422.586265 183.164098 
L 422.995505 183.897155 
L 424.223223 186.832458 
L 424.632463 186.833287 
L 425.041702 186.73506 
L 425.450941 186.969434 
L 425.860181 187.560768 
L 426.67866 189.228553 
L 427.497139 190.313561 
L 427.701758 190.354668 
L 427.906378 190.234495 
L 428.929477 189.086331 
L 429.134097 189.16154 
L 430.157195 190.194205 
L 430.566435 189.905 
L 430.975674 189.582176 
L 434.24959 188.345803 
L 434.658829 188.547842 
L 435.068069 188.933139 
L 435.681928 189.107302 
L 436.295787 189.336754 
L 436.705026 189.760196 
L 437.318886 190.462081 
L 437.728125 190.623404 
L 437.932745 190.536368 
L 438.955843 189.598967 
L 439.569703 189.196194 
L 440.183562 188.763254 
L 440.592801 188.721232 
L 441.6159 189.237474 
L 442.434379 189.177775 
L 442.843618 188.704457 
L 443.252858 188.178191 
L 443.662097 188.172223 
L 444.071337 188.445139 
L 444.889815 189.274031 
L 445.912914 189.389253 
L 447.549872 190.441987 
L 447.754492 190.312045 
L 448.163731 189.532795 
L 449.18683 187.298649 
L 449.596069 186.861808 
L 450.005309 186.834548 
L 450.823788 186.966865 
L 451.437647 186.749004 
L 451.846886 186.422734 
L 452.256126 185.703299 
L 453.074605 184.086028 
L 453.893083 183.020184 
L 454.302323 182.457781 
L 454.711562 181.225821 
L 455.325422 178.29816 
L 456.1439 173.146004 
L 456.75776 167.591069 
L 457.371619 160.104494 
L 458.599337 140.441004 
L 459.008577 131.641151 
L 459.622436 111.714169 
L 460.440915 72.930446 
L 460.850154 55.808715 
L 461.054774 50.916636 
L 461.259394 49.314947 
L 461.464013 51.000526 
L 461.873253 61.743009 
L 463.305591 108.983393 
L 464.533309 135.324946 
L 465.351788 149.858161 
L 465.965647 157.032949 
L 466.374887 159.887806 
L 466.784126 161.535582 
L 466.988746 161.85132 
L 467.193366 161.767516 
L 467.397985 161.294199 
L 467.807225 159.248238 
L 468.216464 155.797782 
L 468.830324 147.827667 
L 470.058042 126.044281 
L 470.876521 108.682246 
L 472.104239 79.773767 
L 472.308859 78.666258 
L 472.513479 80.005834 
L 472.718098 83.949298 
L 473.127338 98.060552 
L 474.150436 137.112074 
L 474.764296 150.391204 
L 475.378155 157.412721 
L 477.015113 172.711592 
L 477.628972 176.504697 
L 478.447451 179.552856 
L 479.26593 181.887814 
L 480.493648 184.839421 
L 481.107507 185.638947 
L 481.721366 186.585999 
L 482.130606 186.698856 
L 482.744465 186.874991 
L 483.562944 187.520169 
L 484.176803 188.401394 
L 484.586042 188.965447 
L 484.995282 189.206514 
L 485.404521 189.198798 
L 487.041479 188.582812 
L 487.859958 187.792095 
L 488.064578 187.820673 
L 488.678437 188.405596 
L 489.087676 188.939901 
L 489.496916 189.622373 
L 489.701536 189.791329 
L 490.110775 189.692784 
L 490.929254 189.02568 
L 491.543113 188.39972 
L 492.156972 188.187715 
L 492.566212 188.154011 
L 492.975451 188.388174 
L 494.612409 190.139974 
L 495.021649 189.911239 
L 496.249367 188.330984 
L 496.658606 188.514765 
L 497.477085 189.315883 
L 497.681705 189.340701 
L 498.500184 188.904973 
L 498.704804 188.973316 
L 499.114043 189.556548 
L 499.523283 190.354854 
L 499.727902 190.531023 
L 499.932522 190.457086 
L 500.341761 189.715011 
L 500.751001 189.010789 
L 501.16024 188.795902 
L 501.56948 189.049663 
L 503.001818 190.743792 
L 503.411057 190.727776 
L 503.820297 190.441771 
L 504.638776 189.530222 
L 505.048015 189.891259 
L 505.252635 190.059566 
L 505.457255 190.078817 
L 505.866494 189.76012 
L 506.480353 188.928897 
L 507.094212 188.060829 
L 507.503452 187.809551 
L 507.912691 187.978503 
L 508.321931 188.42528 
L 508.93579 189.649684 
L 509.345029 190.329493 
L 509.754269 190.696264 
L 510.163508 190.774276 
L 512.005086 190.582644 
L 512.414325 190.733748 
L 512.618945 190.592018 
L 513.846663 188.590925 
L 514.255903 188.207062 
L 514.665142 188.140833 
L 515.074382 188.47017 
L 516.3021 190.160124 
L 516.50672 190.16717 
L 517.325199 189.69946 
L 518.143678 189.693408 
L 518.962157 189.347069 
L 520.189875 188.106168 
L 520.599114 188.205965 
L 521.622213 189.099155 
L 522.849931 188.52733 
L 523.66841 188.056503 
L 524.07765 187.741582 
L 524.691509 186.991898 
L 524.896129 186.912984 
L 525.100748 187.021664 
L 525.714608 187.999536 
L 526.328467 188.767631 
L 526.737706 188.838917 
L 527.351565 188.560435 
L 527.760805 188.690367 
L 528.374664 189.052674 
L 530.420861 189.367578 
L 531.03472 189.218911 
L 531.853199 188.749351 
L 532.467059 188.281917 
L 532.671678 188.376347 
L 533.490157 189.304539 
L 533.694777 189.338284 
L 534.104016 188.941474 
L 534.717876 188.255721 
L 535.331735 187.880576 
L 535.740974 188.056964 
L 536.354833 188.53134 
L 537.991791 189.117443 
L 538.60565 188.90543 
L 539.01489 188.586296 
L 539.424129 188.246102 
L 539.628749 188.255444 
L 540.447228 188.733565 
L 541.674946 188.376852 
L 542.288805 188.657003 
L 542.902665 189.094948 
L 543.311904 188.913988 
L 543.721144 188.646311 
L 544.130383 188.686326 
L 544.539622 188.769525 
L 544.948862 188.632173 
L 545.358101 188.225577 
L 546.58582 186.304247 
L 546.995059 186.379269 
L 547.404299 186.504667 
L 548.222778 186.319264 
L 549.041256 186.839406 
L 549.450496 187.226676 
L 549.859735 188.062025 
L 550.473595 189.258295 
L 550.882834 189.554757 
L 551.292073 189.553555 
L 551.701313 189.190886 
L 552.110552 188.856327 
L 552.315172 188.9525 
L 553.338271 190.335592 
L 553.54289 190.297734 
L 553.95213 189.654439 
L 554.565989 188.525833 
L 555.179848 187.924213 
L 555.589088 187.786672 
L 555.998327 187.963964 
L 557.021426 188.99856 
L 557.430665 189.283231 
L 557.839905 189.173145 
L 558.453764 188.948473 
L 559.476862 188.780904 
L 559.886102 189.143295 
L 560.499961 190.114225 
L 560.704581 190.236065 
L 561.11382 190.137863 
L 561.727679 189.697396 
L 562.341539 189.206438 
L 562.750778 189.252686 
L 563.569257 189.810427 
L 564.387736 190.913824 
L 564.796975 191.003305 
L 565.206215 190.718538 
L 566.024694 189.958771 
L 566.843173 189.530712 
L 567.457032 188.838429 
L 567.661652 188.898553 
L 568.070891 189.721023 
L 568.48013 190.662051 
L 568.68475 190.819091 
L 568.88937 190.712545 
L 570.730947 188.252204 
L 571.140187 188.08956 
L 571.549426 188.094996 
L 571.754046 188.221307 
L 572.163286 188.849054 
L 572.777145 189.803069 
L 573.391004 190.39043 
L 573.800243 190.497897 
L 574.209483 190.302133 
L 574.618722 190.039367 
L 575.027962 190.043526 
L 575.437201 190.065383 
L 576.05106 189.677443 
L 576.66492 189.389341 
L 577.074159 189.301125 
L 577.688018 189.482559 
L 578.301877 189.631622 
L 580.143455 189.550973 
L 580.757314 189.939309 
L 581.371173 190.620065 
L 581.985032 190.696752 
L 582.803511 190.760654 
L 583.417371 190.558676 
L 583.82661 190.094691 
L 584.645089 189.020469 
L 585.054328 188.769612 
L 585.463568 188.771988 
L 585.872807 188.997321 
L 586.282047 189.471188 
L 587.919005 191.822001 
L 588.532864 192.581612 
L 588.942103 192.781482 
L 589.351343 192.56029 
L 589.965202 191.956852 
L 590.783681 190.813704 
L 590.9883 190.788399 
L 591.806779 191.138879 
L 592.216019 190.974079 
L 593.443737 189.742853 
L 594.262216 188.440292 
L 594.466836 188.395442 
L 595.285315 188.807333 
L 595.694554 189.231186 
L 596.308413 190.145019 
L 596.513033 190.131959 
L 596.922272 189.805146 
L 597.126892 189.791751 
L 597.536132 190.311212 
L 597.945371 190.855836 
L 598.149991 190.929512 
L 598.96847 190.70653 
L 599.582329 191.038524 
L 599.991568 190.870047 
L 601.014667 190.164095 
L 601.628526 189.794706 
L 602.037766 189.717317 
L 602.447005 189.980839 
L 603.060864 191.072974 
L 603.674723 191.921115 
L 604.083963 192.148806 
L 605.516301 192.353287 
L 606.744019 192.128855 
L 607.971738 192.475656 
L 609.404076 191.71499 
L 609.813315 190.70089 
L 610.222555 189.49982 
L 610.427174 189.258036 
L 610.631794 189.291723 
L 611.245653 189.747069 
L 611.859513 189.63273 
L 612.268752 190.348607 
L 612.677991 191.015984 
L 612.882611 191.070194 
L 614.724189 190.339696 
L 615.133428 190.266658 
L 615.951907 189.79979 
L 616.156527 189.988008 
L 617.384245 191.988319 
L 617.588865 192.026788 
L 617.793485 191.930001 
L 618.611964 191.157206 
L 619.635062 191.191517 
L 619.839682 191.019899 
L 620.862781 189.470595 
L 621.681259 188.828198 
L 622.704358 188.670167 
L 623.113598 188.484251 
L 623.522837 188.600557 
L 624.750555 189.929268 
L 625.159795 190.070431 
L 625.569034 189.811711 
L 625.978274 189.455043 
L 626.592133 189.340705 
L 627.001372 189.109905 
L 627.615232 189.25471 
L 628.63833 188.577408 
L 628.84295 188.634974 
L 629.252189 189.105446 
L 630.070668 190.358901 
L 630.479908 190.46423 
L 630.889147 190.54113 
L 631.298387 190.681719 
L 631.707626 190.63693 
L 632.321485 190.247124 
L 632.730725 189.604756 
L 633.344584 188.652176 
L 633.753823 188.458676 
L 633.958443 188.578072 
L 634.367682 189.228046 
L 634.776922 189.89202 
L 635.186161 190.082689 
L 635.800021 190.079621 
L 636.20926 189.879655 
L 637.436978 188.579665 
L 637.641598 188.755822 
L 638.664697 190.314479 
L 639.073936 190.0599 
L 639.687795 189.588109 
L 639.892415 189.583233 
L 640.301655 189.98856 
L 640.710894 190.291828 
L 641.733993 189.830625 
L 642.143232 189.898771 
L 642.552472 189.710008 
L 642.961711 189.546273 
L 643.37095 189.895777 
L 645.417148 192.678766 
L 645.826387 192.673934 
L 646.235627 192.641847 
L 646.644866 192.759911 
L 647.054106 192.563263 
L 647.463345 191.99067 
L 648.077204 190.899009 
L 648.895683 190.252841 
L 649.304923 190.271312 
L 649.714162 190.709994 
L 650.123401 191.115798 
L 650.532641 191.028027 
L 650.94188 190.929835 
L 651.760359 190.89297 
L 652.374218 190.764321 
L 652.783458 190.260964 
L 653.192697 189.740837 
L 653.397317 189.671606 
L 653.601937 189.75918 
L 655.238895 191.666251 
L 655.648134 192.216431 
L 655.852754 192.325675 
L 656.057374 192.28847 
L 656.466613 191.845271 
L 657.694331 189.860888 
L 657.898951 189.977175 
L 658.71743 191.181727 
L 658.92205 191.094567 
L 659.740529 190.082714 
L 660.559008 188.852976 
L 660.968247 188.999301 
L 661.582106 189.438436 
L 662.400585 189.509919 
L 663.014444 190.118016 
L 663.219064 190.102395 
L 664.037543 189.524095 
L 664.856022 190.336617 
L 665.265261 190.150356 
L 665.674501 189.881731 
L 666.08374 189.863927 
L 667.311459 190.318464 
L 667.720698 191.021621 
L 668.129937 191.894668 
L 668.334557 192.131403 
L 668.539177 192.183601 
L 668.948416 191.909095 
L 670.789994 189.716629 
L 671.199233 189.245531 
L 671.403853 189.257799 
L 671.813092 189.712493 
L 672.222332 190.181352 
L 672.631571 190.269282 
L 673.45005 189.837987 
L 673.85929 190.19838 
L 674.268529 190.548492 
L 674.473149 190.524182 
L 674.882388 190.092737 
L 675.496248 189.144895 
L 676.110107 188.810736 
L 677.133205 188.492561 
L 677.747065 188.468543 
L 678.360924 188.652614 
L 678.974783 189.084964 
L 679.793262 189.684479 
L 679.997882 189.728093 
L 680.407121 189.445696 
L 681.634839 187.799404 
L 682.657938 187.194238 
L 682.862558 187.317885 
L 683.067177 187.695896 
L 683.476417 189.116719 
L 684.090276 191.264913 
L 684.294896 191.555902 
L 684.499516 191.565684 
L 686.341093 189.933951 
L 686.545713 189.998236 
L 687.364192 190.757155 
L 687.568811 190.646978 
L 687.978051 189.920992 
L 689.205769 186.938174 
L 689.819628 186.286805 
L 690.228868 186.119078 
L 690.638107 186.443613 
L 691.047347 186.860741 
L 691.251967 186.827224 
L 691.661206 186.242895 
L 692.070445 185.646904 
L 693.093544 185.050107 
L 693.502784 184.383094 
L 693.912023 183.179073 
L 694.525882 180.446978 
L 695.548981 173.683276 
L 696.16284 168.888729 
L 696.776699 162.509593 
L 697.595178 150.549101 
L 699.027516 128.644617 
L 699.436756 124.845333 
L 699.641375 123.823308 
L 699.845995 123.453822 
L 700.050615 123.627479 
L 700.459854 125.051923 
L 700.869094 128.03311 
L 701.278333 132.978974 
L 703.32453 162.297062 
L 704.143009 169.75614 
L 704.961488 175.058114 
L 705.575347 178.004845 
L 705.984587 179.105196 
L 706.393826 179.395293 
L 707.212305 179.45206 
L 707.621545 179.814655 
L 708.440024 181.189737 
L 709.258502 181.927993 
L 709.667742 182.705435 
L 710.690841 185.169154 
L 710.89546 185.184233 
L 711.713939 184.75125 
L 712.737038 184.865106 
L 713.350897 184.5478 
L 714.169376 184.778474 
L 714.578615 184.957073 
L 714.987855 185.515921 
L 715.601714 186.617634 
L 716.010953 187.072269 
L 716.420193 187.19416 
L 716.829432 187.244284 
L 717.443292 187.398334 
L 718.057151 187.254805 
L 718.67101 187.031828 
L 718.87563 187.076248 
L 719.284869 187.501715 
L 719.898728 188.15751 
L 720.103348 188.173052 
L 720.307968 188.028533 
L 720.717207 187.265666 
L 721.331066 185.811295 
L 721.535686 185.675413 
L 721.740306 185.804102 
L 722.558785 186.878842 
L 723.991123 187.810472 
L 724.400362 187.948796 
L 725.014221 187.918843 
L 725.423461 188.162864 
L 725.8327 188.419586 
L 726.24194 188.282105 
L 726.651179 188.085007 
L 727.060419 188.302364 
L 727.878898 188.840053 
L 728.288137 188.815838 
L 729.311236 188.121305 
L 729.720475 188.357351 
L 730.334334 188.838498 
L 730.948194 189.067872 
L 731.357433 188.810981 
L 732.175912 188.021025 
L 732.380532 188.009396 
L 732.994391 188.412773 
L 733.199011 188.363112 
L 733.81287 187.666528 
L 734.835968 186.563681 
L 735.245208 186.328045 
L 735.859067 185.642409 
L 736.063687 185.590411 
L 736.268306 185.734553 
L 737.905264 188.157852 
L 738.314504 188.662471 
L 738.519123 188.7574 
L 738.928363 188.589478 
L 739.132983 188.478635 
L 739.337602 188.517298 
L 739.746842 189.10893 
L 740.565321 190.414365 
L 741.588419 191.493928 
L 741.793039 191.731403 
L 741.997659 191.795197 
L 742.406898 191.47494 
L 743.225377 190.447572 
L 743.634617 189.837444 
L 744.043856 189.669628 
L 744.453096 189.490778 
L 744.862335 189.19824 
L 745.066955 189.18704 
L 746.090053 189.606766 
L 747.113152 188.583414 
L 747.931631 189.065923 
L 748.954729 189.787175 
L 749.159349 189.779613 
L 749.568589 189.415042 
L 749.977828 189.044666 
L 750.591687 188.806796 
L 751.000927 188.932125 
L 751.410166 189.161897 
L 751.819406 189.004467 
L 752.228645 188.521845 
L 752.842504 187.542685 
L 753.047124 187.500548 
L 753.456363 187.832054 
L 753.865603 188.145445 
L 754.274842 188.129864 
L 754.684082 187.771245 
L 755.502561 186.076876 
L 755.70718 186.063012 
L 755.9118 186.363363 
L 756.730279 188.252693 
L 757.753378 189.773089 
L 758.981096 190.742307 
L 759.185716 190.716791 
L 759.594955 190.301185 
L 760.208814 189.555611 
L 760.618054 189.222481 
L 760.822674 189.201218 
L 761.231913 189.629008 
L 761.845772 190.543864 
L 762.255012 190.652843 
L 763.48273 190.148774 
L 764.301209 190.295168 
L 765.324308 190.130903 
L 766.347406 189.409314 
L 767.165885 189.658734 
L 768.188984 189.177779 
L 769.007463 189.396572 
L 770.030561 189.066934 
L 770.439801 189.139847 
L 770.84904 188.810156 
L 771.25828 188.441906 
L 771.667519 188.46904 
L 772.076759 188.689156 
L 772.485998 188.993133 
L 772.895238 188.997467 
L 773.509097 188.912445 
L 775.146055 189.356608 
L 775.759914 189.717796 
L 776.578393 189.349359 
L 777.601491 190.39057 
L 778.21535 190.531036 
L 779.033829 190.954906 
L 780.466167 190.689735 
L 781.284646 190.89623 
L 781.693886 190.66249 
L 782.103125 190.173772 
L 782.716984 189.295809 
L 783.330844 188.92299 
L 783.740083 188.820863 
L 784.149323 189.133889 
L 784.967801 189.989175 
L 785.172421 190.002458 
L 785.581661 189.552992 
L 786.19552 188.626592 
L 786.604759 188.515639 
L 787.013999 188.585327 
L 787.423238 188.410353 
L 788.037097 188.052703 
L 788.446337 188.202178 
L 789.469435 189.326809 
L 790.287914 190.349747 
L 790.492534 190.414576 
L 790.901773 190.123277 
L 791.311013 189.86503 
L 791.924872 190.126527 
L 793.15259 190.783246 
L 794.175689 190.344538 
L 794.584929 190.600684 
L 795.198788 191.366472 
L 795.403407 191.389833 
L 795.608027 191.189325 
L 796.017267 190.157891 
L 796.631126 188.581508 
L 796.835746 188.427788 
L 797.040365 188.479389 
L 797.449605 188.967268 
L 798.063464 189.766838 
L 798.268084 189.813299 
L 798.472703 189.655877 
L 798.881943 188.752316 
L 799.291182 187.677283 
L 799.495802 187.381967 
L 799.905041 187.324174 
L 800.72352 187.5703 
L 801.13276 188.041498 
L 801.746619 188.741261 
L 802.974337 189.099977 
L 803.383577 188.938177 
L 804.406675 188.201703 
L 804.815915 188.372381 
L 805.225154 188.947479 
L 806.248253 191.060053 
L 806.452873 191.047486 
L 807.066732 190.291454 
L 807.885211 189.3582 
L 808.29445 189.307604 
L 808.908309 189.47315 
L 809.317549 189.956544 
L 810.954507 192.411782 
L 811.159126 192.402431 
L 811.568366 191.955882 
L 811.977605 191.380212 
L 812.386845 191.193741 
L 813.000704 191.20438 
L 813.819183 190.901694 
L 814.023803 190.686946 
L 814.433042 189.781094 
L 815.046901 188.079454 
L 815.456141 187.524765 
L 815.66076 187.495613 
L 816.07 187.764528 
L 817.093099 188.760046 
L 817.706958 188.773768 
L 818.730056 189.163903 
L 819.139296 188.67753 
L 819.957775 187.202909 
L 820.162394 187.143347 
L 820.571634 187.413203 
L 821.799352 188.394475 
L 822.413211 188.479076 
L 823.027071 188.290823 
L 823.43631 188.633924 
L 823.845549 189.047931 
L 824.254789 189.17295 
L 824.459409 189.098206 
L 824.868648 188.577397 
L 825.277888 187.94038 
L 825.687127 187.841104 
L 826.096366 187.827768 
L 826.505606 187.520165 
L 826.914845 187.061635 
L 827.119465 187.087397 
L 827.528705 187.897164 
L 827.937944 188.778766 
L 828.347183 189.021975 
L 829.165662 188.900918 
L 829.574902 189.327879 
L 830.188761 189.981861 
L 830.393381 190.028922 
L 830.598 189.902012 
L 831.00724 189.089842 
L 831.416479 188.252884 
L 831.621099 188.106551 
L 832.030339 188.250533 
L 833.053437 188.888478 
L 833.462677 189.066356 
L 833.871916 188.870044 
L 834.281156 188.709955 
L 835.099634 188.98705 
L 836.531973 188.472412 
L 836.941212 188.706673 
L 837.350451 189.000832 
L 837.555071 188.992499 
L 838.78279 188.254564 
L 838.987409 188.291377 
L 839.396649 188.721651 
L 840.215128 190.01383 
L 840.419747 190.067746 
L 840.828987 189.739555 
L 841.647466 188.616973 
L 842.261325 187.57621 
L 842.465945 187.451899 
L 842.670564 187.568561 
L 843.693663 189.185539 
L 843.898283 189.0497 
L 844.512142 187.906763 
L 845.126001 186.921989 
L 845.535241 186.633795 
L 845.73986 186.73285 
L 846.353719 187.687324 
L 846.762959 188.191746 
L 847.581438 188.70646 
L 848.195297 189.267346 
L 848.604536 189.387592 
L 849.013776 189.290513 
L 849.423015 189.118488 
L 849.832255 189.307407 
L 851.264593 190.681114 
L 851.673832 190.634423 
L 852.083072 190.415579 
L 852.492311 189.813055 
L 853.10617 188.552535 
L 853.31079 188.47196 
L 853.51541 188.65154 
L 854.129269 189.636857 
L 854.743128 190.113518 
L 854.947748 190.212058 
L 855.152368 190.176027 
L 855.970847 189.498017 
L 856.789326 189.563263 
L 857.403185 189.625659 
L 858.017044 189.358001 
L 858.426283 189.449182 
L 858.835523 189.85205 
L 859.449382 190.692526 
L 859.858621 190.768657 
L 860.267861 190.63613 
L 860.6771 190.791407 
L 861.08634 191.041507 
L 861.29096 191.007994 
L 861.495579 190.815599 
L 861.904819 189.888892 
L 862.723298 187.453547 
L 863.132537 187.291381 
L 864.564875 187.330769 
L 865.178734 187.694949 
L 865.792593 187.875725 
L 866.611072 188.576131 
L 867.634171 188.787815 
L 868.04341 188.448718 
L 868.45265 187.768699 
L 869.271129 186.202989 
L 869.884988 185.661981 
L 870.089608 185.654079 
L 870.498847 186.009497 
L 871.317326 186.843972 
L 871.726566 186.998378 
L 872.545044 187.014453 
L 872.954284 187.119726 
L 873.363523 186.909181 
L 873.772763 186.704893 
L 874.182002 186.807835 
L 875.61434 187.532833 
L 876.637439 187.710033 
L 877.251298 187.70931 
L 877.865157 187.465403 
L 878.479017 187.036411 
L 878.888256 186.597573 
L 879.502115 185.721607 
L 879.706735 185.603155 
L 880.525214 185.647479 
L 881.343693 185.046893 
L 881.752932 184.650439 
L 882.366791 183.450779 
L 883.18527 181.676912 
L 884.617608 180.155158 
L 885.640707 179.673756 
L 886.049946 179.932684 
L 887.073045 181.222181 
L 887.277665 181.232499 
L 887.482285 181.052338 
L 887.891524 180.239306 
L 888.710003 178.217912 
L 889.119242 177.661675 
L 889.528482 177.65461 
L 889.733102 177.66348 
L 890.142341 177.325198 
L 890.55158 176.898724 
L 890.96082 176.78299 
L 891.370059 177.049975 
L 891.779299 177.314511 
L 892.188538 177.277799 
L 892.802397 176.68813 
L 894.439355 175.207743 
L 894.848595 174.858655 
L 895.257834 174.021618 
L 896.076313 172.006167 
L 896.690172 171.0266 
L 897.099412 170.85163 
L 897.304031 170.780904 
L 897.508651 170.567262 
L 897.917891 169.674299 
L 898.73637 167.457019 
L 899.145609 167.04114 
L 899.554848 166.889458 
L 899.759468 166.665213 
L 900.168708 165.71925 
L 900.987186 163.134616 
L 902.214905 157.233754 
L 902.419525 157.176448 
L 903.647243 157.853286 
L 904.670342 157.659267 
L 905.48882 156.899905 
L 905.89806 156.928296 
L 906.511919 157.030357 
L 906.921159 156.875302 
L 907.944257 155.841398 
L 908.558116 156.043677 
L 908.967356 155.709082 
L 909.581215 154.867973 
L 909.990454 154.767211 
L 910.604314 154.783874 
L 911.013553 154.857694 
L 911.422793 155.217759 
L 911.832032 155.929005 
L 912.445891 157.962269 
L 913.05975 160.176861 
L 913.26437 160.543505 
L 913.46899 160.604539 
L 913.67361 160.331726 
L 914.082849 158.764703 
L 914.901328 154.494263 
L 915.105948 154.166199 
L 915.310567 154.249383 
L 915.515187 154.685651 
L 915.924427 156.382736 
L 916.538286 159.198722 
L 916.742905 159.577118 
L 916.947525 159.56882 
L 917.766004 158.54336 
L 917.970624 158.73074 
L 918.379863 159.38899 
L 918.584483 159.461718 
L 918.789103 159.070373 
L 918.993722 158.013121 
L 919.402962 153.313223 
L 919.812201 145.031957 
L 920.426061 130.996786 
L 920.63068 129.259031 
L 920.8353 130.259518 
L 921.244539 137.474269 
L 921.858399 148.548249 
L 922.267638 153.403178 
L 922.676878 155.976896 
L 923.495356 158.709974 
L 924.109216 160.055906 
L 924.518455 160.391186 
L 924.927695 160.3084 
L 925.336934 159.768904 
L 926.155413 158.005855 
L 926.360033 157.832523 
L 926.564652 157.821963 
L 926.769272 157.955325 
L 927.178512 158.673568 
L 928.40623 162.056241 
L 928.61085 162.124026 
L 928.815469 161.927088 
L 929.838568 160.12758 
L 930.657047 159.603792 
L 931.066286 159.475851 
L 931.475526 159.680877 
L 932.089385 160.133126 
L 932.703244 160.179977 
L 933.317103 159.819251 
L 933.930963 159.385642 
L 934.135582 159.452719 
L 934.749441 160.29514 
L 936.795639 162.846788 
L 937.818737 163.510006 
L 938.841836 165.047196 
L 939.455695 166.572572 
L 940.478794 169.324116 
L 940.888033 169.645982 
L 941.297273 169.544126 
L 941.706512 169.065836 
L 942.115752 168.115707 
L 942.729611 166.462326 
L 942.93423 166.319866 
L 943.13885 166.430462 
L 943.752709 167.313881 
L 944.571188 169.008341 
L 946.208146 173.165497 
L 946.822005 173.020115 
L 947.026625 173.177073 
L 948.458963 175.476663 
L 948.868203 175.796806 
L 949.482062 175.935288 
L 949.891301 176.435274 
L 950.50516 177.422096 
L 950.9144 177.447588 
L 951.11902 177.429914 
L 951.323639 177.525086 
L 951.528259 177.790723 
L 952.551358 179.8388 
L 952.960597 179.557592 
L 953.369837 179.175723 
L 953.779076 179.120518 
L 954.188315 179.540928 
L 955.825273 182.545669 
L 956.234513 182.613448 
L 956.643752 182.649552 
L 957.257611 182.848904 
L 957.666851 182.692791 
L 957.871471 182.737454 
L 958.48533 183.445554 
L 959.099189 183.985455 
L 959.713048 184.370601 
L 960.531527 185.277959 
L 960.736147 185.152313 
L 961.759245 183.509934 
L 962.168485 183.494062 
L 962.577724 183.735701 
L 963.600823 184.957069 
L 964.214682 184.806473 
L 964.623922 185.167696 
L 965.033161 185.635812 
L 965.4424 185.753004 
L 965.85164 185.685497 
L 966.05626 185.832916 
L 966.874739 187.029704 
L 967.283978 187.047165 
L 967.693217 186.985296 
L 968.716316 187.35404 
L 969.125556 187.933752 
L 969.944034 189.356527 
L 970.148654 189.538311 
L 970.353274 189.568858 
L 970.762513 189.289667 
L 971.785612 188.380939 
L 972.194851 188.276774 
L 972.604091 188.400007 
L 974.445668 189.311182 
L 974.854908 189.174367 
L 975.264147 188.608629 
L 975.878007 187.830322 
L 976.491866 187.473038 
L 976.901105 187.541864 
L 977.514964 188.197822 
L 977.924204 188.577098 
L 978.333443 188.627251 
L 978.742683 188.332113 
L 979.151922 187.984758 
L 979.561162 187.94981 
L 979.970401 188.306926 
L 980.9935 189.925514 
L 981.811979 191.428217 
L 982.016598 191.500491 
L 982.425838 191.263389 
L 983.039697 190.969402 
L 983.653556 190.618586 
L 984.062796 190.183302 
L 984.676655 189.343747 
L 985.085894 189.423449 
L 985.495134 189.53596 
L 985.904373 189.319081 
L 986.313613 188.871879 
L 986.518232 188.827913 
L 986.927472 189.302382 
L 987.336711 189.685586 
L 988.15519 189.893373 
L 988.56443 190.292904 
L 989.178289 191.037046 
L 989.382908 191.085666 
L 989.587528 190.948873 
L 990.610627 189.616006 
L 991.019866 189.612475 
L 991.429106 189.69419 
L 991.838345 189.441503 
L 993.679923 187.282817 
L 994.498402 186.516541 
L 994.907641 186.730686 
L 995.316881 187.282544 
L 996.135359 188.623411 
L 996.749219 189.165863 
L 997.567698 189.361048 
L 998.795416 190.93597 
L 999.409275 191.163252 
L 999.613895 191.099058 
L 1000.023134 190.640972 
L 1001.660092 188.214045 
L 1001.864712 188.062433 
L 1002.069332 188.070113 
L 1002.478571 188.663145 
L 1003.09243 189.668569 
L 1003.50167 189.94735 
L 1003.910909 189.859416 
L 1004.320149 189.675407 
L 1004.729388 189.56068 
L 1005.138627 189.010318 
L 1005.752487 187.882886 
L 1005.957106 187.726662 
L 1006.366346 187.838942 
L 1006.775585 188.201478 
L 1008.821783 191.009602 
L 1009.026402 190.910124 
L 1009.640261 190.085953 
L 1010.254121 189.334918 
L 1010.66336 189.266617 
L 1011.277219 189.484604 
L 1012.300318 189.990581 
L 1012.914177 190.193239 
L 1013.528036 190.494995 
L 1013.732656 190.434607 
L 1014.141895 189.819388 
L 1014.755755 188.626107 
L 1014.960374 188.623894 
L 1015.164994 188.926187 
L 1015.574234 190.299501 
L 1015.983473 191.786178 
L 1016.188093 192.13271 
L 1016.392712 192.140273 
L 1016.801952 191.608478 
L 1017.82505 190.082234 
L 1018.23429 189.703049 
L 1018.43891 189.657289 
L 1018.848149 189.890884 
L 1019.462008 190.288102 
L 1020.689727 190.372584 
L 1021.508206 190.288608 
L 1021.917445 190.102416 
L 1022.326684 189.535399 
L 1023.349783 187.209706 
L 1023.759023 186.841043 
L 1024.168262 187.005637 
L 1024.577501 187.130564 
L 1024.986741 187.234474 
L 1025.39598 187.68615 
L 1026.419079 189.344487 
L 1026.623699 189.283475 
L 1027.032938 188.674886 
L 1027.646797 187.429496 
L 1028.056037 187.066084 
L 1028.465276 187.172415 
L 1029.079135 187.639437 
L 1030.102234 188.93091 
L 1031.125333 190.453168 
L 1031.534572 190.609531 
L 1032.353051 190.34828 
L 1032.762291 190.236913 
L 1033.37615 190.180564 
L 1033.990009 189.759481 
L 1034.399248 189.099965 
L 1035.013108 187.966363 
L 1035.422347 187.71214 
L 1035.831586 187.633067 
L 1036.240826 187.821179 
L 1037.673164 189.326213 
L 1038.696263 189.713974 
L 1039.923981 189.327153 
L 1040.53784 189.344252 
L 1041.151699 188.99034 
L 1041.560939 189.110093 
L 1042.584037 189.97002 
L 1043.607136 190.075287 
L 1044.425615 189.522129 
L 1045.039474 189.757186 
L 1045.244094 189.674641 
L 1046.267193 188.777747 
L 1047.085671 188.361469 
L 1047.494911 188.845835 
L 1047.90415 189.321344 
L 1048.31339 189.243802 
L 1049.131869 188.905291 
L 1049.541108 188.892549 
L 1050.359587 189.199702 
L 1050.973446 189.26292 
L 1051.791925 189.556076 
L 1052.201165 189.363976 
L 1052.610404 188.633542 
L 1053.428883 186.506176 
L 1053.633503 186.288922 
L 1053.838122 186.309701 
L 1054.247362 186.804431 
L 1055.47508 188.4083 
L 1056.498179 189.730763 
L 1056.702799 189.768135 
L 1057.930517 189.003626 
L 1058.544376 188.54216 
L 1058.748996 188.555602 
L 1058.953616 188.72367 
L 1059.976714 190.187222 
L 1060.181334 190.059163 
L 1060.795193 189.245103 
L 1061.204433 189.212336 
L 1061.409052 189.243716 
L 1061.613672 189.142 
L 1062.432151 188.126362 
L 1062.636771 188.090944 
L 1063.04601 188.414079 
L 1063.659869 189.058718 
L 1063.864489 189.072307 
L 1064.069109 188.956007 
L 1064.478348 188.348825 
L 1065.092207 187.323733 
L 1065.910686 186.9238 
L 1066.319926 186.959738 
L 1066.933785 187.156929 
L 1067.343024 187.348064 
L 1067.752264 187.926488 
L 1068.366123 188.889192 
L 1068.775362 189.068664 
L 1069.389222 189.067846 
L 1069.798461 189.130644 
L 1070.41232 188.874289 
L 1070.61694 188.914121 
L 1071.026179 189.335937 
L 1071.640039 190.246682 
L 1072.049278 190.309459 
L 1072.663137 190.373114 
L 1073.481616 190.776985 
L 1074.504715 190.629389 
L 1074.913954 190.564136 
L 1075.323194 190.109675 
L 1075.732433 189.592115 
L 1076.141673 189.50605 
L 1076.755532 189.983131 
L 1077.369391 190.363721 
L 1077.98325 190.498878 
L 1078.597109 190.603748 
L 1078.801729 190.618638 
L 1079.210969 190.301689 
L 1079.620208 189.872521 
L 1080.029447 189.792082 
L 1080.438687 189.883895 
L 1080.643307 189.798064 
L 1081.666405 188.733544 
L 1082.280264 188.854653 
L 1082.894124 188.993297 
L 1083.507983 188.440358 
L 1084.326462 187.603614 
L 1084.531081 187.66933 
L 1084.940321 188.41682 
L 1085.34956 189.091897 
L 1086.372659 189.811224 
L 1087.191138 189.871528 
L 1087.600377 190.161443 
L 1088.009617 190.188212 
L 1088.623476 190.04696 
L 1089.032715 189.868222 
L 1089.441955 189.801466 
L 1090.260434 189.264423 
L 1091.078913 189.508454 
L 1091.488152 189.277325 
L 1092.102011 188.423109 
L 1092.92049 186.901276 
L 1093.12511 186.767462 
L 1093.32973 186.810334 
L 1093.738969 187.304721 
L 1094.148209 188.3232 
L 1094.762068 189.98056 
L 1095.171307 190.436895 
L 1095.580547 190.73275 
L 1096.194406 191.31345 
L 1096.603645 191.172826 
L 1097.217504 190.911397 
L 1097.422124 190.948356 
L 1097.831364 191.360112 
L 1098.445223 192.095255 
L 1098.854462 192.1434 
L 1099.263702 192.087421 
L 1100.082181 191.603363 
L 1100.2868 191.742322 
L 1100.90066 192.50987 
L 1101.105279 192.529703 
L 1101.514519 192.230032 
L 1102.128378 191.745842 
L 1102.946857 191.567537 
L 1103.356096 191.770708 
L 1103.765336 192.065652 
L 1104.583815 192.27056 
L 1104.993054 192.439134 
L 1105.402294 192.222458 
L 1106.220772 191.385297 
L 1106.834632 190.338601 
L 1107.448491 189.129991 
L 1107.85773 188.948995 
L 1108.26697 189.24433 
L 1108.676209 189.624577 
L 1109.085449 189.633413 
L 1110.108547 189.128367 
L 1111.745505 187.732915 
L 1111.950125 187.78592 
L 1112.154745 188.014787 
L 1112.973223 189.491981 
L 1113.177843 189.505559 
L 1113.587083 189.245538 
L 1114.200942 188.719444 
L 1114.405562 188.729078 
L 1115.22404 189.322786 
L 1115.8379 189.533871 
L 1116.656379 190.08414 
L 1117.065618 190.097799 
L 1117.679477 189.972836 
L 1118.293336 190.056787 
L 1118.702576 189.608919 
L 1119.111815 189.104284 
L 1119.316435 189.023873 
L 1120.134914 189.261989 
L 1120.748773 188.926556 
L 1120.953393 188.987273 
L 1121.362632 189.461495 
L 1122.181111 190.490047 
L 1122.590351 190.677647 
L 1122.99959 190.402603 
L 1124.022689 189.387065 
L 1124.636548 189.415523 
L 1126.068886 188.590052 
L 1126.273506 188.612977 
L 1126.682745 189.033978 
L 1127.091985 189.427137 
L 1128.115083 189.791844 
L 1128.319703 189.795292 
L 1128.728942 189.384799 
L 1129.342802 188.565883 
L 1129.752041 188.439623 
L 1130.3659 188.533368 
L 1130.77514 188.829834 
L 1131.798238 189.976895 
L 1132.207478 190.16784 
L 1132.616717 190.0708 
L 1133.025957 189.824801 
L 1133.230576 189.835576 
L 1133.639816 190.200316 
L 1134.253675 190.846666 
L 1135.481393 191.320837 
L 1135.890633 191.103495 
L 1136.504492 190.736312 
L 1136.913731 190.744473 
L 1137.118351 190.788101 
L 1137.322971 190.717153 
L 1138.14145 189.98337 
L 1138.550689 190.238059 
L 1139.573788 191.063738 
L 1139.983027 191.200927 
L 1140.392267 191.049305 
L 1140.801506 190.570582 
L 1141.824605 189.010777 
L 1142.233844 188.836798 
L 1142.643084 188.315816 
L 1143.052323 187.618239 
L 1143.256943 187.461149 
L 1143.461563 187.53846 
L 1143.870802 188.231671 
L 1144.484661 190.028838 
L 1144.893901 191.330015 
L 1145.098521 191.668907 
L 1145.30314 191.742158 
L 1146.121619 191.472115 
L 1146.530859 191.337531 
L 1147.349338 190.727514 
L 1147.758577 190.751898 
L 1148.167816 191.205107 
L 1148.577056 191.653282 
L 1148.781676 191.702361 
L 1149.190915 191.420002 
L 1150.418633 189.845441 
L 1150.827873 190.14183 
L 1151.237112 190.465381 
L 1151.441732 190.449797 
L 1151.850972 190.050642 
L 1153.07869 188.356857 
L 1153.487929 188.371202 
L 1154.101789 188.621761 
L 1154.511028 188.718973 
L 1154.920267 189.330356 
L 1155.943366 191.559522 
L 1156.147986 191.689837 
L 1156.352606 191.595514 
L 1156.761845 190.781749 
L 1157.580324 188.376967 
L 1158.194183 187.330383 
L 1158.603423 186.820893 
L 1159.012662 186.62851 
L 1159.421901 186.658019 
L 1159.626521 186.869557 
L 1160.64962 188.840011 
L 1160.85424 188.823231 
L 1161.263479 188.280341 
L 1161.877338 187.482295 
L 1162.491197 187.047191 
L 1162.900437 187.100964 
L 1163.718916 187.611176 
L 1164.537395 188.549764 
L 1164.946634 188.354133 
L 1165.355874 188.203258 
L 1165.765113 188.611816 
L 1166.378972 189.319045 
L 1166.788212 189.511948 
L 1167.197451 189.648911 
L 1167.606691 189.883603 
L 1167.81131 189.871413 
L 1168.22055 189.538612 
L 1168.629789 189.184776 
L 1169.039029 189.11261 
L 1169.652888 189.071422 
L 1170.266747 189.015759 
L 1170.675986 189.214242 
L 1171.699085 190.094396 
L 1171.903705 190.063888 
L 1172.312944 189.60906 
L 1173.131423 188.334806 
L 1174.154522 187.626225 
L 1174.563761 187.626112 
L 1174.973001 187.70705 
L 1175.38224 187.538994 
L 1175.79148 187.218464 
L 1175.996099 187.222611 
L 1176.405339 187.671165 
L 1177.223818 188.884318 
L 1177.633057 189.276688 
L 1177.837677 189.322753 
L 1178.246916 189.093163 
L 1178.656156 188.509248 
L 1179.679254 186.332191 
L 1179.883874 186.409053 
L 1180.293114 187.182862 
L 1180.906973 188.626688 
L 1181.316212 189.096312 
L 1181.725452 189.132046 
L 1182.339311 189.110726 
L 1182.74855 188.733374 
L 1183.15779 188.22895 
L 1183.567029 188.086001 
L 1183.976269 188.308427 
L 1184.590128 188.789728 
L 1184.794748 188.807458 
L 1184.794748 188.807458 
" clip-path="url(#p3f19451366)" style="fill: none; stroke: #000000; stroke-width: 2; stroke-linecap: square"/>
   </g>
   <g id="patch_3">
    <path d="M 3.00024 198.907885 
L 1184.99976 198.907885 
" style="fill: none; stroke: #000000; stroke-width: 2; stroke-linejoin: miter; stroke-linecap: square"/>
   </g>
  </g>
 </g>
 <defs>
  <clipPath id="p3f19451366">
   <rect x="3.00024" y="3.00024" width="1181.99952" height="195.907645"/>
  </clipPath>
 </defs>
</svg>
